<?xml version="1.0" encoding="utf-8"?>
<!-- Generator: Adobe Illustrator 18.0.0, SVG Export Plug-In . SVG Version: 6.00 Build 0)  -->
<!DOCTYPE svg PUBLIC "-//W3C//DTD SVG 1.1//EN" "http://www.w3.org/Graphics/SVG/1.1/DTD/svg11.dtd">
<svg version="1.1" id="Layer_1" xmlns="http://www.w3.org/2000/svg" xmlns:xlink="http://www.w3.org/1999/xlink" x="0px" y="0px"
	 viewBox="0 0 289.3 165.6" enable-background="new 0 0 289.3 165.6" xml:space="preserve">
<g>
	<path fill="#7F58A5" d="M94.1,125c-0.3,0-0.7,0-1-0.1l0-0.3c0.4,0.1,0.8,0.1,1.2,0.1l0,0.3C94.3,125,94.2,125,94.1,125z
		 M95.6,124.9l0-0.3c0.4,0,0.8-0.1,1.2-0.2l0.1,0.3C96.5,124.8,96.1,124.9,95.6,124.9z M91.8,124.7c-0.4-0.1-0.8-0.3-1.2-0.4
		l0.1-0.3c0.4,0.2,0.8,0.3,1.2,0.4L91.8,124.7z M98.2,124.5l-0.1-0.3c0.4-0.1,0.8-0.2,1.2-0.4l0.1,0.3
		C99,124.3,98.6,124.4,98.2,124.5z M89.5,123.6c-0.4-0.2-0.7-0.5-1.1-0.7l0.2-0.3c0.3,0.3,0.7,0.5,1,0.7L89.5,123.6z M100.6,123.6
		l-0.1-0.3c0.4-0.2,0.7-0.4,1.1-0.6l0.2,0.3C101.3,123.2,100.9,123.4,100.6,123.6z M102.7,122.2l-0.2-0.3c0.3-0.3,0.6-0.5,0.9-0.8
		l0.2,0.2C103.4,121.7,103.1,122,102.7,122.2z M87.4,122.1c-0.3-0.3-0.6-0.6-0.9-0.9l0.2-0.2c0.3,0.3,0.6,0.6,0.9,0.9L87.4,122.1z
		 M104.6,120.5l-0.2-0.2c0.3-0.3,0.5-0.6,0.8-1l0.3,0.2C105.1,119.8,104.9,120.1,104.6,120.5z M85.6,120.3c-0.3-0.3-0.6-0.6-0.8-1
		l0.2-0.2c0.3,0.3,0.6,0.7,0.8,1L85.6,120.3z M106.1,118.4l-0.3-0.2c0.2-0.4,0.4-0.7,0.6-1.1l0.3,0.1
		C106.5,117.6,106.3,118,106.1,118.4z M84,118.3c-0.3-0.3-0.5-0.7-0.8-1l0.3-0.2c0.3,0.3,0.5,0.7,0.8,1L84,118.3z M82.5,116.3
		c-0.2-0.3-0.5-0.7-0.7-1.1L82,115c0.2,0.4,0.5,0.7,0.7,1L82.5,116.3z M107.2,116.1l-0.3-0.1c0.2-0.4,0.3-0.8,0.4-1.2l0.3,0.1
		C107.5,115.3,107.4,115.7,107.2,116.1z M81,114.2c-0.2-0.4-0.5-0.7-0.7-1.1l0.3-0.2c0.2,0.4,0.5,0.7,0.7,1.1L81,114.2z M108,113.7
		l-0.3-0.1c0.1-0.4,0.2-0.8,0.3-1.2l0.3,0.1C108.2,112.8,108.1,113.2,108,113.7z M53.1,112.9l-0.3-0.1c0.1-0.4,0.3-0.8,0.4-1.2
		l0.3,0.1C53.4,112.1,53.2,112.5,53.1,112.9z M79.7,112L79,111l0.3-0.2l0.7,1.1L79.7,112z M108.6,111.1l-0.3-0.1
		c0.1-0.4,0.1-0.8,0.2-1.3l0.3,0C108.7,110.3,108.7,110.7,108.6,111.1z M53.9,110.5l-0.3-0.1c0.1-0.4,0.3-0.8,0.5-1.2l0.3,0.1
		C54.2,109.7,54.1,110.1,53.9,110.5z M78.3,109.9c-0.2-0.4-0.5-0.7-0.7-1.1l0.3-0.2c0.2,0.3,0.5,0.7,0.7,1.1L78.3,109.9z
		 M108.9,108.6l-0.3,0c0-0.1,0-0.2,0-0.2l0.1-0.2l0,0.2l0.2,0C108.9,108.4,108.9,108.5,108.9,108.6z M54.9,108.2l-0.3-0.1
		c0.2-0.4,0.4-0.8,0.5-1.2l0.3,0.1C55.2,107.4,55,107.8,54.9,108.2z M76.8,107.8c-0.2-0.3-0.5-0.7-0.7-1l0.3-0.2
		c0.2,0.3,0.5,0.7,0.7,1L76.8,107.8z M56,105.9l-0.3-0.2c0.2-0.4,0.5-0.7,0.7-1.1l0.3,0.2C56.4,105.2,56.2,105.5,56,105.9z
		 M75.3,105.7c-0.3-0.3-0.5-0.7-0.8-1l0.2-0.2c0.3,0.3,0.5,0.6,0.8,1L75.3,105.7z M57.4,103.8l-0.2-0.2c0.3-0.3,0.6-0.7,0.9-0.9
		l0.2,0.2C58,103.2,57.7,103.5,57.4,103.8z M73.7,103.8c-0.3-0.3-0.6-0.6-0.9-0.9l0.2-0.2c0.3,0.3,0.6,0.6,0.9,0.9L73.7,103.8z
		 M59.2,102.1l-0.2-0.3c0.3-0.3,0.7-0.5,1.1-0.7l0.2,0.3C59.9,101.6,59.5,101.8,59.2,102.1z M71.9,102.1c-0.3-0.3-0.7-0.5-1-0.7
		l0.2-0.3c0.3,0.2,0.7,0.5,1,0.8L71.9,102.1z M61.4,100.8l-0.1-0.3c0.4-0.2,0.8-0.3,1.2-0.5l0.1,0.3
		C62.1,100.5,61.7,100.6,61.4,100.8z M69.8,100.7c-0.4-0.2-0.8-0.4-1.1-0.5l0.1-0.3c0.4,0.1,0.8,0.3,1.2,0.5L69.8,100.7z
		 M63.7,100.1l-0.1-0.3c0.4-0.1,0.8-0.1,1.3-0.2l0,0.3C64.6,99.9,64.1,100,63.7,100.1z M67.5,99.9c-0.4-0.1-0.8-0.1-1.2-0.1h-0.1
		v-0.3h0.1c0.4,0,0.8,0,1.2,0.1L67.5,99.9z"/>
	<g>
		<path fill="#BCBEC0" d="M81,130.1c-1.4-0.6-2.8-1.3-4.2-2c-1.4-0.7-2.8-1.5-4.1-2.3c-1.3-0.8-2.7-1.7-3.9-2.6
			c-0.6-0.5-1.3-0.9-1.9-1.4c-0.6-0.5-1.2-1-1.9-1.4l1.9,1.3c0.6,0.4,1.3,0.9,2,1.3c1.3,0.9,2.6,1.7,4,2.5c1.3,0.8,2.7,1.6,4.1,2.4
			C78.2,128.6,79.6,129.3,81,130.1z"/>
		
			<linearGradient id="SVGID_1_" gradientUnits="userSpaceOnUse" x1="-1657.4153" y1="520.4856" x2="-1657.4153" y2="541.7415" gradientTransform="matrix(0.8546 0.5192 -0.5192 0.8546 1762.4995 536.0877)">
			<stop  offset="0" style="stop-color:#FFF33B;stop-opacity:0"/>
			<stop  offset="1.385293e-002" style="stop-color:#FEEF3B;stop-opacity:2.072120e-002"/>
			<stop  offset="0.1383" style="stop-color:#FACD3D;stop-opacity:0.2069"/>
			<stop  offset="0.2654" style="stop-color:#F7B23E;stop-opacity:0.397"/>
			<stop  offset="0.3946" style="stop-color:#F59F3E;stop-opacity:0.5902"/>
			<stop  offset="0.5273" style="stop-color:#F3943F;stop-opacity:0.7887"/>
			<stop  offset="0.6685" style="stop-color:#F3903F"/>
			<stop  offset="0.8876" style="stop-color:#ED683C"/>
			<stop  offset="1" style="stop-color:#E93E3A"/>
		</linearGradient>
		<path fill="url(#SVGID_1_)" d="M66.8,121.4c-2.3,1.6-3.5,5.6-3,7.5l1.7-1.1c-1.2,2.3-1.7,4.8-1.5,7.6l1.9-1.8
			c-0.6,1.5-0.1,3.3-1.7,6.6c2.1-3.4,4.6-3.4,6.1-4.9l-0.6,2.6c2.1-1.6,3.8-3.3,4.9-5.2l-1,3.6c3.1-2.5,5.4-6,5.7-7.4l-1.8-8.9
			L66.8,121.4z"/>
		<path fill="#E6E7E8" d="M89,133.6l-5.9-3.6c-0.3,0.3-0.6,0.6-0.9,0.9l-1.2-0.7l-0.4,0.7c-2.6-1-14-7.9-16-9.7l0.4-0.7l-1.2-0.7
			c0.1-0.4,0.2-0.8,0.4-1.2l-5.9-3.6l12-8.2c5.4-7.6,12.8-14,18.2-16.9l9,5.5c-0.1,6.1-2.3,15.5-6.6,23.9L89,133.6z"/>
		
			<linearGradient id="SVGID_2_" gradientUnits="userSpaceOnUse" x1="-1667.0957" y1="507.4688" x2="-1656.8284" y2="507.4688" gradientTransform="matrix(0.8546 0.5192 -0.5192 0.8546 1762.4995 536.0877)">
			<stop  offset="0" style="stop-color:#FFFFFF"/>
			<stop  offset="1" style="stop-color:#231F20"/>
		</linearGradient>
		<path opacity="0.6" fill="url(#SVGID_2_)" d="M92.9,92.4l-20.5,33.8l-7.8-5.2l0.4-0.7l-1.2-0.7l0.4-1.2l6.1-11.8
			c0,0,8.5-11.9,18.2-16.9L92.9,92.4z"/>
		<path fill="#A7A9AC" d="M81.7,110.6c-2.9-1.7-3.7-5.5-1.9-8.5c1.8-3,5.6-4,8.4-2.2"/>
		<path fill="#BCBEC0" d="M88.2,99.9c2.9,1.7,3.7,5.5,1.9,8.5c-1.8,3-5.6,4-8.4,2.2"/>
		<polygon fill="#BCBEC0" points="70.2,106.6 64.1,118.4 58.1,114.8 		"/>
		<polygon fill="#BCBEC0" points="90.7,119.1 89,133.6 83.1,129.9 		"/>
		<path fill="#414042" d="M88.3,89.7l6.8-2.8c0.8-0.3,1.6,0.2,1.7,1l0.6,7.3L88.3,89.7z"/>
		<g id="yq35wh_4_">
			<g>
				<path fill="#0C56AB" d="M82.1,101.6c0.1-0.1,0.2-0.2,0.3-0.4c0,0,0-0.1,0-0.1c0-0.2-0.1-0.3-0.1-0.5c0,0,0,0,0,0
					c0.1,0,0.2,0.1,0.3,0.1c0,0,0.1,0,0.1,0c0.1,0.1,0.2,0,0.3,0c0.1-0.1,0.2-0.1,0.3-0.2c0,0.2,0,0.3-0.1,0.5c0,0,0,0.1,0,0.1
					c0.1,0.1,0.2,0.2,0.4,0.3c-0.1,0-0.2,0.1-0.3,0.1c-0.2,0-0.3,0.1-0.3,0.3c0,0.1-0.1,0.2-0.1,0.3c-0.1-0.1-0.1-0.2-0.2-0.3
					c-0.1-0.1-0.1-0.2-0.3-0.2C82.3,101.6,82.2,101.6,82.1,101.6z"/>
				<path fill="#0C56AB" d="M85.5,108.8c0,0.2,0,0.3-0.1,0.5c0,0.1,0,0.1,0.1,0.1c0.1,0.1,0.2,0.2,0.3,0.3c0,0,0,0,0,0
					c-0.1,0-0.1,0-0.2,0.1c-0.1,0-0.1,0-0.2,0.1c-0.1,0-0.2,0.1-0.2,0.2c0,0.1-0.1,0.2-0.2,0.4c-0.1-0.1-0.2-0.3-0.2-0.4
					c0-0.1-0.1-0.1-0.1-0.1c-0.1,0-0.3,0-0.4,0c0.1-0.1,0.2-0.2,0.3-0.3c0.1-0.1,0.1-0.1,0.1-0.3c0-0.1-0.1-0.3-0.1-0.4c0,0,0,0,0,0
					c0.1,0,0.2,0.1,0.3,0.1c0.1,0.1,0.2,0.1,0.3,0C85.3,109,85.4,108.9,85.5,108.8z"/>
				<path fill="#0C56AB" d="M89.9,104.6c0,0.2,0,0.3-0.1,0.5c0,0,0,0.1,0,0.1c0.1,0.1,0.2,0.2,0.4,0.3c0,0-0.1,0-0.1,0
					c-0.1,0-0.3,0.1-0.4,0.1c0,0-0.1,0-0.1,0.1c-0.1,0.1-0.1,0.3-0.2,0.4c0,0,0,0,0,0c-0.1-0.1-0.1-0.2-0.2-0.3c0,0-0.1-0.1-0.1-0.1
					c-0.2,0-0.3,0-0.5,0c0.1-0.1,0.2-0.2,0.3-0.3c0.1-0.1,0.1-0.1,0.1-0.2c0-0.1-0.1-0.3-0.1-0.4c0.1,0.1,0.3,0.1,0.4,0.2
					c0.1,0,0.1,0,0.2,0C89.7,104.8,89.8,104.7,89.9,104.6z"/>
				<path fill="#0C56AB" d="M81.9,107.4c-0.2,0-0.3,0.1-0.5,0.1c0,0-0.1,0-0.1,0.1c0,0.1-0.1,0.3-0.2,0.4c0,0,0,0,0,0.1
					c-0.1-0.1-0.1-0.3-0.2-0.4c0-0.1-0.1-0.1-0.1-0.1c-0.1,0-0.3,0-0.4,0c0.1-0.1,0.2-0.2,0.2-0.3c0.1-0.1,0.1-0.2,0.1-0.3
					c0-0.1-0.1-0.2-0.1-0.4c0.1,0,0.2,0.1,0.2,0.1c0.1,0,0.1,0.1,0.2,0.1c0,0,0.1,0,0.1,0c0.1-0.1,0.3-0.2,0.4-0.3
					c0,0.1,0,0.3,0,0.4c0,0.1,0,0.1,0.1,0.2C81.7,107.2,81.8,107.3,81.9,107.4C81.9,107.4,81.9,107.4,81.9,107.4z"/>
				<path fill="#0C56AB" d="M80.4,103.3c0.1-0.1,0.2-0.3,0.3-0.4c0,0,0-0.1,0-0.1c0-0.1-0.1-0.3-0.1-0.4c0,0,0,0,0-0.1
					c0.2,0.1,0.3,0.1,0.5,0.2c0,0,0.1,0,0.1,0c0.1-0.1,0.3-0.2,0.4-0.3c0,0.1,0,0.1,0,0.2c0,0,0,0.1,0,0.1c0,0.1,0,0.2,0,0.3
					c0,0.1,0.1,0.1,0.2,0.2c0.1,0.1,0.1,0.1,0.2,0.2c0,0,0,0-0.1,0c-0.1,0-0.3,0.1-0.4,0.1c0,0-0.1,0-0.1,0.1
					c-0.1,0.1-0.1,0.3-0.2,0.4c-0.1-0.1-0.1-0.2-0.2-0.3c-0.1-0.1-0.1-0.2-0.3-0.2C80.7,103.3,80.5,103.3,80.4,103.3z"/>
				<path fill="#0C56AB" d="M88,107.9c0.1-0.1,0.2-0.3,0.3-0.4c0,0,0-0.1,0-0.1c0-0.1-0.1-0.3-0.1-0.5c0.1,0,0.2,0.1,0.3,0.1
					c0.1,0.1,0.3,0.1,0.4,0c0.1-0.1,0.2-0.1,0.3-0.2c0,0,0,0,0,0c0,0.1,0,0.2,0,0.3c0,0.2,0,0.3,0.1,0.4c0.1,0.1,0.2,0.1,0.2,0.2
					c0,0,0,0-0.1,0c-0.1,0-0.3,0.1-0.4,0.1c0,0-0.1,0-0.1,0.1c-0.1,0.1-0.1,0.3-0.2,0.4c0,0,0,0,0,0c0,0-0.1-0.1-0.1-0.1
					c-0.1-0.1-0.1-0.2-0.2-0.3c0,0,0-0.1-0.1-0.1C88.3,107.9,88.2,107.9,88,107.9z"/>
				<path fill="#0C56AB" d="M88.4,102.6c0.2,0.1,0.3,0.1,0.4,0.2c0,0,0.1,0,0.1,0c0.1-0.1,0.2-0.2,0.4-0.2c0,0.2,0,0.3,0,0.5
					c0,0,0,0.1,0,0.1c0.1,0.1,0.2,0.2,0.4,0.3c0,0,0,0-0.1,0c-0.1,0-0.3,0.1-0.4,0.1c0,0-0.1,0-0.1,0.1c-0.1,0.1-0.1,0.3-0.2,0.4
					c0,0,0,0,0,0c-0.1-0.1-0.1-0.2-0.2-0.4c0,0,0-0.1-0.1-0.1c-0.1,0-0.3,0-0.4,0c0,0,0,0-0.1,0c0.1-0.1,0.1-0.2,0.2-0.2
					c0,0,0,0,0,0c0.1-0.1,0.1-0.2,0.1-0.3C88.4,102.8,88.4,102.7,88.4,102.6z"/>
				<path fill="#0C56AB" d="M85,101.6c-0.1-0.1-0.1-0.2-0.2-0.4c0-0.1-0.1-0.1-0.2-0.1c-0.1,0-0.3,0-0.4,0c0.1-0.1,0.2-0.2,0.2-0.3
					c0.1-0.1,0.1-0.2,0.1-0.3c0-0.1-0.1-0.2-0.1-0.4c0.2,0.1,0.3,0.1,0.4,0.2c0,0,0.1,0,0.1,0c0.1-0.1,0.3-0.2,0.4-0.2
					c0,0.1,0,0.2,0,0.3c0,0.2,0,0.3,0.1,0.4c0.1,0.1,0.2,0.1,0.2,0.2c-0.1,0-0.2,0.1-0.3,0.1c-0.2,0-0.3,0.1-0.3,0.3
					C85.1,101.4,85.1,101.5,85,101.6z"/>
				<path fill="#0C56AB" d="M80,104.4c0.2,0.1,0.3,0.1,0.5,0.2c0,0,0.1,0,0.1,0c0.1-0.1,0.2-0.1,0.3-0.2c0,0,0,0,0.1,0
					c0,0.2,0,0.3,0,0.5c0,0,0,0.1,0,0.1c0.1,0.1,0.2,0.2,0.4,0.3c-0.1,0-0.1,0-0.2,0c0,0,0,0,0,0c-0.1,0-0.2,0-0.3,0.1
					c-0.1,0.1-0.1,0.2-0.1,0.3c0,0.1,0,0.1-0.1,0.2c-0.1-0.1-0.2-0.3-0.2-0.4c0,0,0-0.1-0.1-0.1c-0.1,0-0.3,0-0.4,0c0,0,0,0-0.1,0
					c0.1-0.1,0.2-0.2,0.3-0.3c0.1-0.1,0.1-0.2,0.1-0.3C80.1,104.7,80.1,104.5,80,104.4z"/>
				<path fill="#0C56AB" d="M86.5,109.4c0.1-0.1,0.2-0.3,0.3-0.4c0,0,0-0.1,0-0.1c0-0.2-0.1-0.3-0.1-0.4c0,0,0,0,0,0
					c0.1,0,0.2,0.1,0.2,0.1c0.1,0,0.1,0,0.2,0.1c0,0,0.1,0,0.1,0c0.1-0.1,0.3-0.2,0.4-0.3c0,0.1,0,0.2,0,0.3c0,0.2,0,0.3,0.1,0.4
					c0.1,0.1,0.2,0.1,0.2,0.2c0,0,0,0,0,0c0,0-0.1,0-0.1,0c-0.1,0-0.2,0.1-0.3,0.1c-0.1,0-0.1,0-0.1,0.1c0,0.1-0.1,0.3-0.2,0.4
					c0,0,0,0,0,0.1c-0.1-0.1-0.1-0.3-0.2-0.4c0-0.1-0.1-0.1-0.1-0.1C86.8,109.4,86.6,109.4,86.5,109.4z"/>
				<path fill="#0C56AB" d="M83.4,109.4c-0.1,0-0.3,0.1-0.4,0.1c-0.1,0-0.1,0.1-0.2,0.1c0,0.1-0.1,0.3-0.2,0.4
					c-0.1-0.1-0.1-0.2-0.2-0.3c-0.1-0.1-0.1-0.2-0.3-0.2c-0.1,0-0.2,0-0.3,0c0.1-0.1,0.1-0.2,0.2-0.3c0.1-0.1,0.1-0.2,0.1-0.3
					c0-0.1-0.1-0.2-0.1-0.3c0,0,0,0,0,0c0.1,0.1,0.3,0.1,0.4,0.2c0.1,0,0.1,0,0.2,0c0.1-0.1,0.2-0.2,0.4-0.3c0,0,0,0,0,0.1
					c0,0.1,0,0.3,0,0.4c0,0.1,0,0.1,0.1,0.1C83.1,109.2,83.2,109.3,83.4,109.4z"/>
				<path fill="#0C56AB" d="M86.6,101.7c0.1-0.1,0.2-0.3,0.3-0.4c0,0,0-0.1,0-0.1c0-0.1-0.1-0.3-0.1-0.4c0,0,0,0,0,0
					c0,0,0.1,0,0.1,0.1c0.1,0,0.2,0.1,0.3,0.1c0,0,0.1,0,0.1,0c0.1-0.1,0.3-0.2,0.4-0.3c0,0,0,0,0,0.1c0,0.1,0,0.3,0,0.4
					c0,0,0,0.1,0,0.1c0.1,0.1,0.2,0.2,0.4,0.3c-0.2,0-0.3,0.1-0.4,0.1c0,0-0.1,0-0.1,0.1c-0.1,0.1-0.1,0.3-0.2,0.4
					c0,0,0-0.1-0.1-0.1c-0.1-0.1-0.1-0.2-0.2-0.3c0,0,0-0.1-0.1-0.1C86.9,101.7,86.7,101.7,86.6,101.7z"/>
			</g>
		</g>
		<path fill="#BCBEC0" d="M77.8,121.2c-2.3,3.9-6.1,5.9-6.1,5.9s0.1-4.3,2.4-8.1c2.3-3.9,5.1-6.5,6.1-5.9
			C81.3,113.7,80.2,117.3,77.8,121.2z"/>
	</g>
	<g>
		<path fill="#7F58A5" d="M110.7,88.5c-0.6-0.6-1.1-0.9-1.9-0.9c-0.9,0-1.4,0.4-1.4,1.2c0,1.8,4.4,1.6,4.4,4.9
			c0,1.6-0.9,2.8-2.6,3.1l0,1.7l-1.5,0l0-1.6c-1-0.1-2.1-0.6-2.9-1.3l1-1.4c0.8,0.6,1.6,1,2.4,1c1,0,1.5-0.4,1.5-1.3
			c0-2-4.4-1.8-4.4-4.9c0-1.6,1-2.7,2.5-3l0-1.7l1.5,0l0,1.7c1.1,0.2,1.8,0.7,2.4,1.4L110.7,88.5z"/>
	</g>
	<polygon fill="#7F58A5" points="106.9,107.5 108.7,102.9 110.3,107.6 	"/>
	<path fill="#7F58A5" d="M61.5,140.2c0,0-0.1,0-0.1,0c-7.7-6.1-17.1-16.4-17.7-30.8H13c-3.5,0-6.8-1.4-9.2-3.8
		C1.4,103,0,99.7,0,96.2L0,0.2C0,0.1,0.1,0,0.2,0l0,0c0.1,0,0.2,0.1,0.2,0.2l0,96.1c0,3.4,1.3,6.6,3.7,8.9c2.4,2.4,5.6,3.7,8.9,3.7
		h30.9c0.1,0,0.2,0.1,0.2,0.2c0.5,14.4,9.8,24.7,17.5,30.7c0.1,0.1,0.1,0.2,0,0.3C61.6,140.1,61.6,140.2,61.5,140.2z"/>
	<polygon fill="#7F58A5" points="46.5,103.3 46.2,103.3 46.2,91.6 77.9,91.6 77.9,91.9 46.5,91.9 	"/>
	<path fill="#7F58A5" d="M80.2,142.7h-4.3v-0.3h4.3c20.1,0,36.4-16.3,36.4-36.4v-0.1l6.9-4.3h-6.9v-5.6H114v-0.3h2.8v5.6h7.7
		l-7.7,4.8C116.8,126.2,100.4,142.7,80.2,142.7z"/>
	<path fill="#7F58A5" d="M280.3,107.7v-0.4c4.7,0,8.6-3.8,8.6-8.6v-0.3c0-4.7-3.8-8.6-8.6-8.6h-20.7c-2.2,0-4.1-1.8-4.1-4.1
		c0-2-1.6-3.7-3.7-3.7H135.3v-0.4h116.6c2.2,0,4.1,1.8,4.1,4.1c0,2,1.6,3.7,3.7,3.7h20.7c4.9,0,9,4,9,9v0.3
		C289.3,103.7,285.2,107.7,280.3,107.7z"/>
	<path fill="#7F58A5" d="M205,158.6h-70.1c-5.5,0-10-4.5-10-10v-10.3h0.5v10.3c0,5.2,4.3,9.5,9.5,9.5H205V158.6z"/>
	<path fill="#7F58A5" d="M253.7,156.1h4.5c0.1,0,0.2,0.1,0.2,0.2c0,0.1-0.1,0.2-0.2,0.2H254v3.6c0,3-2.4,5.4-5.4,5.4h-81.4
		c-0.1,0-0.2-0.1-0.2-0.2s0.1-0.2,0.2-0.2h81.4c2.7,0,4.9-2.2,4.9-4.9v-3.9C253.5,156.2,253.6,156.1,253.7,156.1z"/>
</g>
<g>
</g>
<g>
</g>
<g>
</g>
<g>
</g>
<g>
</g>
<g>
</g>
<g>
</g>
<g>
</g>
<g>
</g>
<g>
</g>
<g>
</g>
<g>
</g>
<g>
</g>
<g>
</g>
<g>
</g>
</svg>
