<?xml version="1.0" encoding="utf-8"?>
<!-- Generator: Adobe Illustrator 18.0.0, SVG Export Plug-In . SVG Version: 6.00 Build 0)  -->
<!DOCTYPE svg PUBLIC "-//W3C//DTD SVG 1.1//EN" "http://www.w3.org/Graphics/SVG/1.1/DTD/svg11.dtd">
<svg version="1.1" id="Layer_1" xmlns="http://www.w3.org/2000/svg" xmlns:xlink="http://www.w3.org/1999/xlink" x="0px" y="0px"
	 viewBox="0 0 265.8 49.4" enable-background="new 0 0 265.8 49.4" xml:space="preserve">
<g>
	<rect x="0" y="0" fill="none" width="265.8" height="48.8"/>
	<path fill="#58595B" d="M2.7,2.5H0.4V2.1h2.3V2.5z M3.3,6.7C2.6,7,1.6,7.4,0.9,7.6C0.8,7.5,0.6,7.3,0.5,7.2
		c0.8-0.2,1.8-0.5,2.4-0.8L3.3,6.7z M2.5,1.3H0.6V0.9h1.9V1.3z M6.6,6.4H1.5V3.2h5.1V6.4z M6.1,3.5H2v0.6h4.1V3.5z M6.1,4.5H2v0.6
		h4.1V4.5z M6.1,5.4H2V6h4.1V5.4z M5.3,1.4c0,0.1,0,0.2,0,0.3c0.4,0.5,1.3,0.8,2.3,0.9C7.5,2.7,7.4,2.9,7.3,3.1
		c-0.9-0.1-1.7-0.5-2.2-1c-0.3,0.4-0.9,0.8-2.3,1C2.8,3,2.7,2.8,2.6,2.7c2.1-0.3,2.3-0.9,2.3-1.3V1.3H4C3.8,1.7,3.6,1.9,3.3,2.2
		C3.3,2.1,3.1,1.9,2.9,1.9c0.4-0.4,0.7-1,0.9-1.5l0.5,0.1C4.3,0.6,4.2,0.8,4.2,0.9h2.8l0.1,0L7.4,1C7.2,1.4,6.9,1.9,6.7,2.1L6.3,2
		c0.1-0.2,0.3-0.4,0.4-0.7L5.3,1.4L5.3,1.4z M5.1,6.5C6,6.7,6.9,7,7.5,7.3L7,7.6C6.5,7.4,5.7,7,4.8,6.7L5.1,6.5z"/>
	<path fill="#58595B" d="M9.5,4.1C9.3,5,9,6.2,8.6,6.7C8.5,6.6,8.4,6.3,8.3,6.1C8.6,5.7,9,4.8,9.1,4L9.5,4.1z M10.2,3.5v4.1H9.7V3.5
		H8.4V3h1.3V0.4h0.5V3h1.3v0.5H10.2z M8.9,2.7c0-0.5-0.2-1.2-0.5-1.8l0.4-0.1c0.2,0.5,0.4,1.3,0.5,1.7L8.9,2.7z M10.6,4
		c0.2,0.2,0.7,1.3,0.8,1.6L11,6c-0.1-0.4-0.6-1.5-0.8-1.8L10.6,4z M11.5,1c-0.2,0.6-0.4,1.3-0.7,1.8l-0.4-0.1
		c0.2-0.5,0.4-1.3,0.6-1.8L11.5,1z M14.6,5.4v2.3h-0.5V5.5l-2.5,0.5l-0.1-0.5L14.1,5V0.4h0.5v4.5l1-0.2l0.1,0.5L14.6,5.4z M13.1,4.3
		c-0.3-0.3-0.9-0.7-1.3-1L12,2.9c0.5,0.2,1.1,0.6,1.3,0.9L13.1,4.3z M13.4,2.3c-0.3-0.3-0.8-0.7-1.3-1l0.3-0.4c0.5,0.3,1,0.7,1.3,1
		L13.4,2.3z"/>
	<path fill="#58595B" d="M20.2,3.9c0.7,1.2,2.1,2.4,3.4,2.9c-0.1,0.1-0.3,0.3-0.4,0.5c-1.1-0.5-2.2-1.4-3-2.5v2.9h-0.5V4.8
		c-0.8,1.1-1.9,2-3,2.5c-0.1-0.1-0.2-0.3-0.4-0.4C17.6,6.3,19,5.2,19.7,4V2h-3.1V1.5h3.1V0.4h0.5v1.1h3.2V2h-3.2V3.9z M18.5,2.3
		c-0.1,0.3-0.2,0.7-0.3,1c0.3,0.3,0.7,0.7,0.9,0.9l-0.4,0.4C18.6,4.3,18.3,4,18,3.7c-0.3,0.5-0.6,0.9-1,1.3
		c-0.1-0.1-0.3-0.3-0.4-0.3c0.7-0.5,1.2-1.4,1.5-2.5L18.5,2.3z M22.3,2.3c-0.1,0.3-0.2,0.7-0.3,1c0.5,0.4,1.1,0.9,1.5,1.3l-0.4,0.4
		c-0.3-0.3-0.8-0.8-1.3-1.2c-0.2,0.4-0.4,0.7-0.7,1c-0.1-0.1-0.3-0.2-0.4-0.3c0.6-0.5,1-1.3,1.1-2.2L22.3,2.3z"/>
	<path fill="#58595B" d="M25.7,3.8c-0.3-0.2-0.9-0.6-1.4-0.9l0.3-0.4c0.4,0.2,1.1,0.6,1.4,0.8L25.7,3.8z M26.2,5
		c-0.3,0.8-0.8,1.8-1.2,2.6l-0.5-0.3c0.4-0.6,0.9-1.7,1.2-2.6L26.2,5z M26.1,1.7c-0.3-0.2-0.9-0.6-1.3-0.9L25,0.5
		c0.4,0.2,1,0.6,1.3,0.9L26.1,1.7z M27.2,2.9c0,1.4-0.1,3.3-1.1,4.7c-0.1-0.1-0.3-0.2-0.4-0.3c0.9-1.3,1-3.1,1-4.4V0.7h4.8v0.5h-4.3
		V2.9z M28.5,5.5c-0.3,0.6-0.7,1.2-1,1.6c-0.1-0.1-0.3-0.2-0.4-0.3c0.4-0.4,0.8-1,1-1.5L28.5,5.5z M29.7,4.9v2.2
		c0,0.3-0.1,0.4-0.3,0.5c-0.2,0.1-0.6,0.1-1.1,0.1c0-0.1-0.1-0.3-0.2-0.5c0.4,0,0.8,0,0.8,0c0.1,0,0.1,0,0.1-0.1V4.9h-1.5V2.2H29
		c0.1-0.3,0.2-0.6,0.2-0.8l0.6,0.1c-0.1,0.2-0.2,0.5-0.3,0.7h1.8v2.7H29.7z M28.2,3.4h2.5V2.6h-2.5V3.4z M28.2,4.5h2.5V3.7h-2.5V4.5
		z M30.7,5.3c0.3,0.5,0.7,1.1,0.9,1.5l-0.5,0.2C31,6.7,30.6,6,30.3,5.5L30.7,5.3z"/>
	<path fill="#58595B" d="M33.4,2.1c0-0.4,0.3-0.6,0.6-0.6s0.6,0.2,0.6,0.6c0,0.3-0.3,0.6-0.6,0.6S33.4,2.4,33.4,2.1z M33.4,6
		c0-0.4,0.3-0.6,0.6-0.6s0.6,0.2,0.6,0.6S34.3,6.6,34,6.6S33.4,6.4,33.4,6z"/>
	<path fill="#58595B" d="M39.2,3.3c0,0,0,0.2,0,0.2c-0.1,2.7-0.1,3.6-0.3,3.8c-0.1,0.2-0.3,0.2-0.5,0.2c-0.2,0-0.5,0-0.9,0
		c0-0.2-0.1-0.4-0.1-0.5c0.3,0,0.6,0,0.8,0c0.1,0,0.2,0,0.2-0.1c0.1-0.2,0.2-1,0.2-3.3h-1c-0.1,1.5-0.3,2.9-1,3.8
		c-0.1-0.1-0.3-0.3-0.4-0.3c0.8-1.1,0.9-3.1,1-5.1h-0.9V1.7h3.1v0.5h-1.8c0,0.4,0,0.8,0,1.1H39.2z M38,1.6c-0.1-0.3-0.3-0.7-0.4-1.1
		L38,0.4c0.2,0.3,0.4,0.8,0.4,1L38,1.6z M40.5,2c-0.2,0.5-0.5,1-0.8,1.3c-0.1-0.1-0.3-0.3-0.4-0.4c0.6-0.6,1-1.6,1.2-2.6L41,0.5
		c-0.1,0.4-0.2,0.7-0.3,1h2.9V2H40.5z M42.8,7.1c0.4,0,0.4-0.2,0.5-0.9c0.1,0.1,0.3,0.2,0.5,0.2c-0.1,0.9-0.2,1.2-0.9,1.2h-1.7
		c-0.8,0-1-0.2-1-0.8v-2L39.6,5l-0.2-0.4l0.7-0.3V2.9h0.5v1l0.8-0.4V2.3h0.5v1.1L42.8,3l0.1-0.1l0.4,0.1l0,0.1c0,0.9-0.1,2-0.2,2.7
		l-0.4-0.1c0.1-0.6,0.1-1.4,0.1-2.2l-0.9,0.4v2.4h-0.5V4.1l-0.8,0.4v2.3c0,0.3,0.1,0.4,0.5,0.4H42.8z"/>
	<path fill="#58595B" d="M45.4,6c-0.1,0.6-0.2,1.2-0.4,1.6c-0.1,0-0.3-0.1-0.4-0.1c0.2-0.4,0.3-1,0.4-1.5L45.4,6z M47.1,4.3
		c0.3,0.4,0.5,1,0.6,1.4l-0.4,0.2c0-0.1-0.1-0.3-0.1-0.4c-2,0.2-2.3,0.3-2.4,0.3c0-0.1-0.1-0.3-0.2-0.4c0.2,0,0.4-0.2,0.6-0.4
		c0.2-0.1,0.5-0.4,0.9-0.8c-1,0.1-1.2,0.1-1.3,0.2c0-0.1-0.1-0.3-0.2-0.4c0.1,0,0.2-0.1,0.4-0.2c0.2-0.1,0.7-0.7,1-1.2h-1.1V0.7h6.2
		v1.7H46l0.4,0.2c-0.3,0.4-0.7,0.9-1,1.2l1-0.1c0.2-0.2,0.4-0.4,0.5-0.6l0.4,0.2c-0.6,0.7-1.2,1.3-1.9,1.9L47,5
		c-0.1-0.2-0.2-0.4-0.3-0.6L47.1,4.3z M45.4,1.9h1.4V1.1h-1.4V1.9z M46.2,5.9c0.2,0.4,0.3,1,0.3,1.4L46,7.4c0-0.4-0.1-1-0.2-1.4
		L46.2,5.9z M47.1,5.8c0.2,0.4,0.5,0.9,0.6,1.3l-0.4,0.1c-0.1-0.3-0.3-0.9-0.5-1.3L47.1,5.8z M47.3,1.9h1.4V1.1h-1.4V1.9z M51.6,7.3
		h-3.1v0.3h-0.5V4.3c-0.1,0.2-0.3,0.3-0.4,0.5c-0.1-0.1-0.3-0.2-0.4-0.3c0.5-0.5,1-1.3,1.3-2L49,2.5c-0.1,0.3-0.3,0.6-0.4,0.9h1.3
		c-0.1-0.3-0.2-0.6-0.4-0.8l0.4-0.1c0.2,0.3,0.4,0.7,0.5,1h1.1v0.4h-1.3v0.7h1.1V5h-1.1v0.7h1.1v0.4h-1.1v0.7h1.4V7.3z M49.7,3.9
		h-1.2v0.7h1.2V3.9z M49.7,5h-1.2v0.7h1.2V5z M48.5,6.9h1.2V6.2h-1.2V6.9z M49.2,1.9h1.4V1.1h-1.4V1.9z"/>
	<path fill="#58595B" d="M54.6,2.3c-0.2,0.4-0.4,0.7-0.7,1.1v4.3h-0.5V4c-0.3,0.4-0.6,0.7-0.9,1c-0.1-0.1-0.2-0.4-0.3-0.5
		c0.7-0.6,1.4-1.5,1.9-2.4L54.6,2.3z M54.5,0.6c-0.5,0.7-1.2,1.4-1.9,2c-0.1-0.1-0.2-0.3-0.3-0.4c0.6-0.5,1.3-1.2,1.7-1.7L54.5,0.6z
		 M54.2,7.1c0.3-0.4,0.6-1,0.7-1.5l0.4,0.2c-0.2,0.5-0.4,1.1-0.7,1.6L54.2,7.1z M59.7,4.6V5h-5.1V4.6H59.7z M56.6,2.1
		c0-0.2,0.1-0.4,0.1-0.6h-2.1V1h2.2c0-0.2,0.1-0.5,0.1-0.7l0.6,0c0,0.2-0.1,0.4-0.1,0.7h2.3v0.4h-2.4c0,0.2-0.1,0.4-0.1,0.6h2.2v2
		H55v-2H56.6z M56.3,2.5h-0.8v1.1h0.8V2.5z M57.7,7.1C58,7.1,58,7,58,6.3c0.1,0.1,0.3,0.1,0.4,0.2c-0.1,0.8-0.2,1-0.7,1h-1.2
		c-0.6,0-0.8-0.1-0.8-0.6V5.7h0.5v1.2c0,0.2,0.1,0.2,0.4,0.2H57.7z M57.1,6.3c-0.1-0.3-0.4-0.7-0.6-1l0.4-0.1c0.2,0.3,0.5,0.7,0.6,1
		L57.1,6.3z M57.5,2.5h-0.9v1.1h0.9V2.5z M57.9,3.6h0.9V2.5h-0.9V3.6z M58.8,5.5c0.3,0.5,0.7,1.1,0.8,1.5l-0.4,0.2
		c-0.1-0.4-0.5-1.1-0.8-1.6L58.8,5.5z"/>
	<path fill="#58595B" d="M61.2,5.1c0.6-0.3,1-0.6,1-1.2c0,0-0.1,0-0.2,0c-0.3,0-0.6-0.2-0.6-0.5c0-0.4,0.3-0.5,0.6-0.5
		c0.4,0,0.6,0.3,0.6,0.9c0,0.9-0.5,1.5-1.3,1.8L61.2,5.1z"/>
	<path fill="#58595B" d="M71.2,3.5C70.9,4.4,70.5,5.2,70,6c0.2,0.7,0.5,1,0.9,1c0.2,0,0.3-0.4,0.3-1.3C71.3,5.8,71.5,6,71.6,6
		c-0.1,1.2-0.3,1.6-0.8,1.6c-0.5,0-0.9-0.4-1.2-1.1c-0.4,0.4-0.8,0.8-1.2,1.2c-0.1-0.1-0.2-0.3-0.4-0.4c0.1-0.1,0.2-0.2,0.3-0.2
		h-2.8v0.4h-0.5V4.6C65,4.8,64.9,4.9,64.7,5c-0.1-0.1-0.3-0.2-0.4-0.3c0.5-0.5,1-1.2,1.3-1.9L66.1,3c-0.1,0.2-0.2,0.5-0.3,0.7h1.2
		c-0.1-0.2-0.2-0.5-0.4-0.7l0.4-0.2c0.2,0.2,0.4,0.6,0.5,0.8l0,0h1.1v0.4h-1.2v0.6h1.1v0.4h-1.1v0.6h1.1V6h-1.1v0.6h1.2V7
		c0.4-0.3,0.7-0.6,1-1C69.1,5.1,69,4,68.9,2.8h-4.4V2.3h1.9V1.6h-1.5V1.1h1.5V0.4h0.5v0.8h1.5v0.5h-1.5v0.7h2c0-0.6-0.1-1.3-0.1-2
		h0.5c0,0.7,0,1.3,0,2h2.2v0.5h-2.2c0.1,1,0.2,1.9,0.4,2.6c0.4-0.6,0.7-1.3,0.9-2.1L71.2,3.5z M66.8,4.1h-1.2v0.6h1.2V4.1z
		 M66.8,5.1h-1.2v0.6h1.2V5.1z M65.6,6.6h1.2V6h-1.2V6.6z M71,2c-0.2-0.3-0.7-0.8-1.2-1.2l0.4-0.3c0.4,0.3,1,0.8,1.2,1.1L71,2z"/>
	<path fill="#58595B" d="M79.6,6.8v0.5h-7.1V6.8h3.3V5.3h-2.6V4.8h2.6V3.7h0.5v1.1h2.6v0.5h-2.6v1.5H79.6z M78.8,3.9
		c-0.1-0.2-0.3-0.4-0.5-0.6c-4.4,0.2-4.8,0.2-5.1,0.3c0-0.1-0.1-0.4-0.2-0.5c0.2,0,0.3-0.2,0.6-0.4c0.2-0.2,0.8-0.8,1.3-1.4h-2.2
		V0.8h6.7v0.5h-3.8C75,2,74.5,2.6,74,3l3.8-0.2c-0.3-0.3-0.7-0.6-1-0.9l0.4-0.3c0.7,0.5,1.6,1.3,2,1.8L78.8,3.9z"/>
	<path fill="#58595B" d="M80.4,6.6c1.9-1.6,2.7-2.8,2.7-3.8c0-0.7-0.4-1.2-1.1-1.2c-0.5,0-0.9,0.3-1.2,0.7l-0.4-0.4
		c0.5-0.5,1-0.9,1.7-0.9c1,0,1.7,0.7,1.7,1.7c0,1.2-0.9,2.4-2.4,3.7c0.3,0,0.7,0,1,0H84V7h-3.6V6.6z"/>
	<path fill="#58595B" d="M84.8,4.1c0-2,0.7-3,1.8-3c1.1,0,1.8,1,1.8,3c0,2-0.7,3.1-1.8,3.1C85.5,7.1,84.8,6.1,84.8,4.1z M87.7,4.1
		c0-1.7-0.5-2.5-1.2-2.5c-0.7,0-1.2,0.8-1.2,2.5c0,1.7,0.5,2.5,1.2,2.5C87.3,6.6,87.7,5.8,87.7,4.1z"/>
	<path fill="#58595B" d="M89.5,6.5h1.3V2h-1V1.6c0.5-0.1,0.9-0.2,1.2-0.4h0.5v5.3h1.2V7h-3.2V6.5z"/>
	<path fill="#58595B" d="M96.4,1.7h-2.9V1.2h3.6v0.4c-1.4,1.8-1.6,3.2-1.7,5.5h-0.7C94.9,4.8,95.3,3.3,96.4,1.7z"/>
	<path fill="#58595B" d="M105.2,5.8h-2.9v1.9h-0.5V5.8H98V5.3h1.3V3.1h2.4V1.9h-2c-0.4,0.6-0.8,1.2-1.2,1.6
		c-0.1-0.1-0.3-0.3-0.5-0.3c0.8-0.7,1.4-1.7,1.8-2.8l0.5,0.1c-0.1,0.3-0.2,0.6-0.4,0.9h4.8v0.5h-2.6v1.3h2.4v0.5h-2.4v1.7h2.9V5.8z
		 M101.7,5.3V3.6h-1.9v1.7H101.7z"/>
	<path fill="#58595B" d="M105.9,5.6c0-0.8,0.6-1.3,1.1-1.6v0c-0.4-0.3-0.8-0.7-0.8-1.3c0-0.9,0.7-1.5,1.6-1.5c1,0,1.6,0.6,1.6,1.5
		c0,0.6-0.4,1.2-0.8,1.4v0c0.5,0.3,1,0.7,1,1.5c0,0.8-0.7,1.5-1.8,1.5C106.7,7.1,105.9,6.5,105.9,5.6z M109,5.6
		c0-0.8-0.8-1.1-1.6-1.5c-0.5,0.3-0.8,0.8-0.8,1.4c0,0.6,0.5,1.1,1.3,1.1C108.5,6.7,109,6.2,109,5.6z M108.8,2.7
		c0-0.6-0.4-1.1-1-1.1c-0.6,0-1,0.4-1,1c0,0.7,0.7,1,1.4,1.3C108.6,3.5,108.8,3.1,108.8,2.7z"/>
	<path fill="#58595B" d="M116.5,6.8c0,0.4-0.1,0.6-0.4,0.7c-0.3,0.1-0.8,0.1-1.7,0.1c0-0.2-0.1-0.4-0.2-0.6c0.7,0,1.3,0,1.5,0
		c0.2,0,0.2-0.1,0.2-0.2V5.1H112c-0.2,0.9-0.6,1.8-1.4,2.5c-0.1-0.1-0.3-0.3-0.4-0.4c1.3-1.2,1.4-2.8,1.4-4.1V0.8h4.8V6.8z
		 M115.9,4.6V3.2h-3.7c0,0.4,0,0.9-0.1,1.4H115.9z M112.2,1.3v1.4h3.7V1.3H112.2z"/>
	<path fill="#58595B" d="M118.2,6.3l0.3-0.4c0.3,0.4,0.8,0.7,1.5,0.7c0.7,0,1.2-0.4,1.2-1.1c0-0.7-0.5-1.2-1.9-1.2V3.7
		c1.2,0,1.6-0.5,1.6-1.2c0-0.6-0.4-1-1-1c-0.5,0-0.9,0.3-1.2,0.6l-0.4-0.4c0.4-0.4,0.9-0.7,1.6-0.7c1,0,1.7,0.5,1.7,1.5
		c0,0.7-0.4,1.2-1,1.4v0c0.7,0.2,1.2,0.7,1.2,1.5c0,1-0.8,1.7-1.8,1.7C119.1,7.1,118.6,6.8,118.2,6.3z"/>
	<path fill="#58595B" d="M123.1,6.5h1.3V2h-1V1.6c0.5-0.1,0.9-0.2,1.2-0.4h0.5v5.3h1.2V7h-3.2V6.5z"/>
	<path fill="#58595B" d="M133.3,0.9v6.6h-0.6V7h-4.1v0.5h-0.5V0.9H133.3z M128.7,1.5v2.2h4.1V1.5H128.7z M132.8,6.5V4.2h-4.1v2.3
		H132.8z"/>
	<path fill="#58595B" d="M136.8,2.8c0.7,0,1.2,0.5,1.2,1.2c0,0.7-0.5,1.2-1.2,1.2c-0.7,0-1.2-0.5-1.2-1.2
		C135.6,3.3,136.1,2.8,136.8,2.8z M136.8,4.8c0.5,0,0.8-0.4,0.8-0.8c0-0.5-0.4-0.8-0.8-0.8c-0.5,0-0.8,0.4-0.8,0.8
		C135.9,4.5,136.3,4.8,136.8,4.8z"/>
	<path fill="#58595B" d="M143.7,2.6c0.6,1.4,1.6,2.7,2.8,3.3c-0.1,0.1-0.3,0.3-0.4,0.4c-1.2-0.7-2.3-2.2-2.9-3.7H143v3h1.9v0.5H143
		v1.5h-0.6V6.1h-1.9V5.6h1.9v-3h-0.1c-0.6,1.6-1.7,3-2.8,3.8c-0.1-0.1-0.3-0.3-0.4-0.4c1.1-0.7,2.1-2,2.7-3.3h-2.5V2.1h3.2V0.4h0.6
		v1.7h3.2v0.5H143.7z"/>
	<path fill="#58595B" d="M154.4,6.9v0.5h-7.2V6.9h1.1V4.4h5.2v2.5H154.4z M154.2,2.4h-6.9V1.9h2.1c-0.2-0.4-0.5-0.9-0.8-1.4l0.4-0.2
		c0.3,0.4,0.7,1,0.9,1.3l-0.4,0.2h4.7V2.4z M149.9,3.1c-0.5,0.5-1.5,1.1-2.2,1.4c-0.1-0.1-0.2-0.3-0.3-0.4c0.7-0.3,1.7-0.8,2.2-1.3
		L149.9,3.1z M148.7,6.9h1.1v-2h-1.1V6.9z M150.2,4.9v2h1.1v-2H150.2z M153.9,4.3c-0.5-0.3-1.6-0.8-2.4-1.1l0.2-0.4
		c0.8,0.3,1.9,0.7,2.4,1L153.9,4.3z M153,0.5c-0.3,0.5-0.6,1-0.9,1.4l-0.4-0.2c0.3-0.4,0.7-1,0.8-1.4L153,0.5z M151.8,4.9v2h1.1v-2
		H151.8z"/>
	<path fill="#58595B" d="M158.6,6c0,0.1,0,0.4,0,0.5c-2.3,0.6-2.6,0.7-2.8,0.8c0-0.1-0.2-0.4-0.3-0.5c0.1-0.1,0.3-0.2,0.3-0.6v-6
		h0.5v2.5h2.1v0.5h-2.1v3.2L158.6,6z M161.4,7c0.4,0,0.4-0.3,0.5-1.5c0.1,0.1,0.3,0.2,0.5,0.2c-0.1,1.3-0.2,1.7-1,1.7h-1.4
		c-0.8,0-1-0.2-1-1V0.4h0.5v2.5h2.2v0.5h-2.2v3.1c0,0.4,0.1,0.5,0.5,0.5H161.4z"/>
	<path fill="#58595B" d="M163.3,7.2c0.4-0.3,0.8-0.9,0.9-1.4l0.4,0.2c-0.2,0.5-0.5,1.1-1,1.4L163.3,7.2z M170.2,2.3v0.4h-6.8V2.3
		h1.9c-0.1-0.2-0.2-0.5-0.3-0.7l0.4-0.1h-1.7V1h2.9c-0.1-0.2-0.2-0.4-0.3-0.6l0.5-0.1c0.1,0.2,0.3,0.5,0.4,0.7h2.6v0.4h-1.6l0.4,0.1
		c-0.1,0.3-0.3,0.5-0.4,0.7H170.2z M169.2,5.4h-2.8c0.4,0.2,0.9,0.6,1.2,0.8l-0.3,0.3c-0.3-0.3-0.8-0.7-1.2-0.9l0.3-0.2h-2V3.1h5
		V5.4z M168.7,3.5h-3.9v0.6h3.9V3.5z M168.7,4.4h-3.9V5h3.9V4.4z M167.6,7.1c0.3,0,0.4-0.1,0.4-0.8c0.1,0.1,0.3,0.2,0.5,0.2
		c-0.1,0.9-0.2,1.1-0.9,1.1h-1.5c-0.8,0-1-0.1-1-0.7V5.8h0.5v1.1c0,0.2,0.1,0.2,0.5,0.2H167.6z M165.4,1.4c0.2,0.3,0.3,0.6,0.4,0.8
		l-0.1,0h2c0.1-0.3,0.3-0.6,0.4-0.8H165.4z M169.1,5.7c0.4,0.4,0.9,1,1.1,1.4l-0.4,0.2c-0.2-0.4-0.6-1-1-1.4L169.1,5.7z"/>
	<path fill="#58595B" d="M173.8,4.3l-1,0.3V7c0,0.3-0.1,0.5-0.3,0.5c-0.2,0.1-0.5,0.1-1,0.1c0-0.1-0.1-0.3-0.2-0.5
		c0.4,0,0.7,0,0.8,0c0.1,0,0.2,0,0.2-0.2V4.8l-1.1,0.3L171,4.6c0.4-0.1,0.8-0.2,1.3-0.4V2.5h-1.2V2h1.2V0.4h0.5V2h0.9v0.5h-0.9v1.6
		c0.3-0.1,0.6-0.2,0.9-0.3L173.8,4.3z M175.3,3.5c-0.7,0-1-0.2-1-0.9V0.4h0.5v1h3.2v0.5h-3.2v0.7c0,0.3,0.1,0.4,0.4,0.4h2.2
		c0.3,0,0.7,0,0.9,0c0,0.1,0,0.3,0.1,0.5c-0.1,0-0.5,0-0.9,0H175.3z M174.3,4.2h3.7v3.4h-0.5V7.3h-2.7v0.4h-0.5V4.2z M174.8,4.6v0.8
		h2.7V4.6H174.8z M177.5,6.8V5.9h-2.7v0.9H177.5z"/>
	<path fill="#58595B" d="M181.8,6.9c0,0.3-0.1,0.4-0.2,0.5c-0.2,0.1-0.5,0.1-1,0.1c0-0.1-0.1-0.4-0.2-0.5c0.4,0,0.7,0,0.8,0
		c0.1,0,0.1,0,0.1-0.2V4.6c-0.4,0.2-0.7,0.4-1,0.6l-0.2-0.4c-0.1,1-0.2,2-0.6,2.8c-0.1-0.1-0.3-0.2-0.4-0.3c0.6-1.1,0.6-2.7,0.6-3.9
		V0.7h2.2V6.9z M180.1,3.5c0,0.4,0,0.8,0,1.3c0.3-0.1,0.8-0.4,1.2-0.6V3.3L181,3.5c-0.2-0.3-0.6-0.7-0.9-1V3.5z M180.1,1.1v1.3
		l0.3-0.2c0.3,0.3,0.7,0.7,0.9,1v-2H180.1z M186.1,4c-0.3,1-0.8,1.8-1.5,2.4c0.5,0.4,1.1,0.7,1.8,0.8c-0.1,0.1-0.3,0.3-0.4,0.5
		c-0.7-0.2-1.3-0.5-1.8-1c-0.6,0.4-1.3,0.8-1.9,1c-0.1-0.1-0.2-0.3-0.3-0.5c0.6-0.2,1.3-0.5,1.8-0.9c-0.5-0.5-0.9-1.2-1.2-1.9l0,0
		h-0.4V3.9h3.4l0.1,0L186.1,4z M183.5,1.6c0,0.7-0.2,1.5-1.2,2.1c-0.1-0.1-0.2-0.3-0.3-0.4c0.9-0.5,1-1.2,1-1.8V0.7h2.4v1.9
		c0,0.2,0,0.3,0.1,0.3h0.5c0.1,0,0.2,0,0.3,0c0,0.1,0,0.3,0,0.4c-0.1,0-0.2,0-0.4,0h-0.5c-0.5,0-0.6-0.2-0.6-0.8V1.2h-1.4V1.6z
		 M183.1,4.4c0.3,0.6,0.6,1.2,1.1,1.6c0.5-0.4,0.9-1,1.2-1.6H183.1z"/>
	<path fill="#58595B" d="M189.1,0.5c-0.2,0.5-0.4,1.1-0.6,1.6v5.5H188V3.1c-0.2,0.4-0.5,0.8-0.8,1.1c0-0.1-0.2-0.4-0.3-0.5
		c0.7-0.8,1.3-2,1.7-3.3L189.1,0.5z M191.2,6.8c-0.5,0.4-1.3,0.7-2,0.8c-0.1-0.1-0.2-0.3-0.3-0.4c0.7-0.2,1.5-0.5,1.9-0.7L191.2,6.8
		z M190.8,1.2h-1.6V0.8h5.1v0.4h-1.7v0.5h1.4v1.5h-4.7V1.7h1.4V1.2z M189.6,6.5V3.6h4.4v2.9H189.6z M189.9,2.9h0.9V2.1h-0.9V2.9z
		 M190.1,4.4h3.4V4h-3.4V4.4z M190.1,5.3h3.4V4.8h-3.4V5.3z M190.1,6.1h3.4V5.6h-3.4V6.1z M192.2,1.2h-0.9v0.5h0.9V1.2z M191.2,2.9
		h0.9V2.1h-0.9V2.9z M192.5,6.6c0.7,0.2,1.5,0.5,1.9,0.8L194,7.7c-0.4-0.2-1.1-0.6-1.8-0.8L192.5,6.6z M192.6,2.1v0.8h0.9V2.1H192.6
		z"/>
	<path fill="#58595B" d="M197,3.3c0.3,0.3,1,1.1,1.2,1.4l-0.3,0.4c-0.2-0.3-0.5-0.8-0.9-1.2v3.7h-0.5V3.7c-0.3,1-0.8,1.9-1.2,2.5
		c-0.1-0.1-0.2-0.4-0.3-0.5c0.6-0.7,1.1-2,1.4-3.1h-1.3V2.1h1.3V0.4h0.5v1.7h1.2v0.5H197V3.3z M202.1,0.8v6.7h-0.5V7.1h-2.5v0.5
		h-0.5V0.8H202.1z M199.1,1.3v1.4h2.5V1.3H199.1z M199.1,4.7h2.5V3.2h-2.5V4.7z M201.6,6.6V5.2h-2.5v1.5H201.6z"/>
	<path fill="#58595B" d="M210.3,3h-0.8V7c0,0.4-0.1,0.5-0.3,0.6c-0.2,0.1-0.6,0.1-1.2,0.1c0-0.1-0.1-0.4-0.2-0.5c0.5,0,0.9,0,1.1,0
		c0.1,0,0.2,0,0.2-0.2V3h-1.9V2.5h-4V2.1h1.2V0.4h0.4v1.7h0.7V0.4h0.4v1.4c0.3-0.3,0.6-0.8,0.8-1.1l0.4,0.2
		c-0.3,0.4-0.6,0.8-0.9,1.1l-0.3-0.2v0.3h1.2v0.4h1.9V0.4h0.5v2.1h0.8V3z M205.4,6.5c0.6-0.1,1.1-0.2,1.7-0.2l0,0.5
		c-1.4,0.2-2.9,0.4-3.9,0.6l-0.1-0.5c0.5-0.1,1.1-0.1,1.8-0.2v-1h-1.3V5.1h1.3V4.2h-1.5V3.8h2.1c0.2-0.3,0.4-0.8,0.6-1.2l0.5,0.2
		c-0.2,0.3-0.4,0.7-0.5,1h0.9v0.5h-1.5v0.9h1.3v0.5h-1.3V6.5z M204,1.9c-0.1-0.3-0.5-0.8-0.8-1.1l0.3-0.2c0.3,0.3,0.6,0.8,0.8,1.1
		L204,1.9z M204.2,2.6c0.3,0.3,0.5,0.7,0.6,0.9l-0.4,0.2c-0.1-0.3-0.4-0.7-0.6-0.9L204.2,2.6z M208.1,5.7c-0.1-0.5-0.4-1.3-0.7-1.8
		l0.4-0.2c0.3,0.6,0.7,1.3,0.8,1.8L208.1,5.7z"/>
	<path fill="#58595B" d="M214.1,3.3c0,0,0,0.2,0,0.2c-0.1,2.5-0.2,3.4-0.4,3.7c-0.1,0.2-0.3,0.2-0.4,0.2c-0.2,0-0.4,0-0.7,0
		c0-0.2-0.1-0.4-0.1-0.5c0.3,0,0.5,0,0.6,0c0.1,0,0.2,0,0.2-0.1c0.2-0.2,0.3-1,0.3-3.1h-1.1c-0.1,1.6-0.3,2.9-1,3.8
		c-0.1-0.1-0.3-0.3-0.4-0.4c0.9-1,0.9-2.9,1-5h-0.8V1.7h3.2v0.5h-1.9c0,0.4,0,0.8,0,1.1H214.1z M212.8,1.7c-0.1-0.3-0.4-0.8-0.7-1.1
		l0.5-0.2c0.3,0.4,0.6,0.8,0.7,1.1L212.8,1.7z M216.6,0.5c0,0.1-0.1,0.3-0.1,0.4c0.4,0.9,1.2,1.8,2,2.2c-0.1,0.1-0.3,0.3-0.4,0.4
		c-0.7-0.4-1.4-1.3-1.8-2.1c-0.4,0.9-1,1.7-1.8,2.2c-0.1-0.1-0.2-0.3-0.4-0.4c0.9-0.6,1.7-1.6,2-2.9L216.6,0.5z M215.3,5.7
		C216,6,217,6.6,217.5,7l-0.4,0.5c-0.5-0.4-1.4-1-2.1-1.4L215.3,5.7z M216.8,4.9c-0.3-0.3-0.9-0.8-1.4-1.1l0.3-0.4
		c0.5,0.3,1.1,0.8,1.4,1L216.8,4.9z"/>
	<path fill="#58595B" d="M221.1,2.4c-0.3,1.1-0.9,1.9-1.7,2.4c-0.1-0.1-0.3-0.3-0.4-0.4c1-0.7,1.6-1.8,1.8-3.2h-1.5V0.8h5.3
		c-0.1,0.4-0.2,1-0.3,1.4h1.6c0,0,0,0.1,0,0.2c-0.1,1.3-0.2,1.8-0.4,2c-0.1,0.1-0.3,0.2-0.5,0.2c-0.2,0-0.6,0-1,0
		c0-0.1-0.1-0.3-0.2-0.5c0.4,0,0.8,0,0.9,0s0.2,0,0.3-0.1c0.1-0.1,0.2-0.5,0.3-1.4h-1.7c0.1-0.4,0.3-0.9,0.4-1.4h-2.7
		c0,0.3-0.1,0.5-0.2,0.7h1.9l0.1,0l0.3,0.1c-0.2,0.6-0.4,1.1-0.7,1.5c0.3,0.2,0.6,0.5,0.9,0.7l-0.3,0.3c-0.2-0.2-0.5-0.4-0.8-0.7
		c-0.4,0.4-0.9,0.6-1.4,0.8c0-0.1-0.2-0.3-0.3-0.4c0.5-0.2,0.9-0.4,1.3-0.7c-0.3-0.2-0.7-0.4-1-0.5l0.3-0.3c0.3,0.1,0.6,0.3,1,0.5
		c0.2-0.2,0.4-0.5,0.5-0.9H221.1z M226.4,6.9v0.5h-7.2V6.9h0.9V5h5.4v2H226.4z M220.5,6.9h1.1V5.4h-1.1V6.9z M222.2,5.4v1.6h1.1V5.4
		H222.2z M223.8,5.4v1.6h1.2V5.4H223.8z"/>
	<path fill="#58595B" d="M229.9,1.9c-0.3-0.2-0.7-0.6-1.1-0.8c-0.4,0.5-0.9,1-1.4,1.4c0-0.1-0.2-0.4-0.3-0.5c0.6-0.4,1.3-1,1.7-1.7
		l0.5,0.2c0,0.1-0.1,0.2-0.2,0.3c0.4,0.2,0.9,0.6,1.1,0.8L229.9,1.9z M229.3,5.6c0.3,0.5,0.7,1.2,0.8,1.6l-0.4,0.2
		c-0.1-0.2-0.2-0.4-0.3-0.7c-1.6,0.7-1.8,0.8-2,0.9c0-0.1-0.1-0.4-0.2-0.5c0.1,0,0.3-0.2,0.3-0.4V2.8h2.2v2.6h-1.7v1.4l1.2-0.4
		c-0.1-0.2-0.2-0.4-0.3-0.6L229.3,5.6z M228.1,3.2v0.7h1.3V3.2H228.1z M229.3,5V4.3h-1.3V5H229.3z M228.1,1.9h1.4v0.4h-1.4V1.9z
		 M231.3,5.2c-0.3,0.6-0.6,1.3-0.9,1.8c-0.1-0.1-0.3-0.2-0.4-0.3c0.3-0.4,0.7-1.1,0.9-1.7L231.3,5.2z M232.7,0.5
		c-0.1,0.1-0.1,0.2-0.2,0.3c0.6,0.7,1.2,1.1,2,1.5c-0.1,0.1-0.3,0.3-0.3,0.4c-0.7-0.4-1.3-0.9-1.9-1.6c-0.5,0.6-1.2,1.2-1.9,1.5
		c-0.1-0.1-0.2-0.3-0.3-0.4c0.9-0.4,1.8-1.2,2.2-2L232.7,0.5z M232.5,4.6v2.4c0,0.3-0.1,0.4-0.2,0.5c-0.2,0.1-0.5,0.1-1,0.1
		c0-0.1-0.1-0.3-0.2-0.5c0.4,0,0.7,0,0.8,0c0.1,0,0.1,0,0.1-0.1V4.6h-1.8V4.2h1.8v-1h-1.3V2.7h3v0.5h-1.3v1h1.8v0.5H232.5z M233.5,5
		c0.3,0.6,0.7,1.3,0.9,1.8L234,7c-0.2-0.4-0.6-1.2-0.9-1.8L233.5,5z"/>
	<path fill="#58595B" d="M241.6,2.2c-1,1.5-2.8,3.1-4.4,4.1c0.1,0.1,0.2,0.1,0.3,0.2c0.5,0.3,1.2,0.4,2,0.4c1,0,2.1-0.1,2.9-0.1
		c-0.1,0.1-0.1,0.4-0.2,0.6c-0.6,0-2,0.1-2.8,0.1c-1,0-1.6-0.1-2.2-0.4c-0.3-0.2-0.6-0.5-0.7-0.5c-0.3,0-0.6,0.5-1,1L235.2,7
		c0.5-0.6,1-1,1.4-1c0,0,0.1,0,0.1,0c1.5-0.8,3.1-2.3,4-3.5h-5.1V2h5.5l0.1,0L241.6,2.2z M238.9,1.9c-0.2-0.3-0.5-0.9-0.8-1.3
		l0.5-0.2c0.3,0.4,0.7,1,0.9,1.3L238.9,1.9z"/>
	<path fill="#58595B" d="M246.6,6c0,0.1,0,0.4,0,0.5c-2.3,0.6-2.6,0.7-2.8,0.8c0-0.1-0.2-0.4-0.3-0.5c0.1-0.1,0.3-0.2,0.3-0.6v-6
		h0.5v2.5h2.1v0.5h-2.1v3.2L246.6,6z M249.4,7c0.4,0,0.4-0.3,0.5-1.5c0.1,0.1,0.3,0.2,0.5,0.2c-0.1,1.3-0.2,1.7-1,1.7h-1.4
		c-0.8,0-1-0.2-1-1V0.4h0.5v2.5h2.2v0.5h-2.2v3.1c0,0.4,0.1,0.5,0.5,0.5H249.4z"/>
	<path fill="#58595B" d="M253,0.5c-0.2,0.5-0.3,1.1-0.6,1.6v5.6h-0.5V3.1c-0.2,0.4-0.4,0.7-0.6,0.9c0-0.1-0.2-0.4-0.3-0.5
		c0.6-0.8,1.1-1.9,1.5-3.1L253,0.5z M255.5,2.6l0.3,0.1c-0.2,2.7-1.1,4.2-2.5,5c-0.1-0.1-0.2-0.3-0.3-0.4c0.7-0.3,1.2-0.9,1.7-1.8
		c-0.3-0.3-0.7-0.7-1.2-1c-0.1,0.2-0.2,0.4-0.4,0.5c-0.1-0.1-0.2-0.3-0.3-0.4c0.6-0.8,1-1.9,1.1-3.2h-0.8V0.8h2.6v0.5h-1.3
		c-0.1,0.4-0.2,0.9-0.3,1.3L255.5,2.6L255.5,2.6z M254,3.1c-0.1,0.3-0.2,0.6-0.4,0.9c0.4,0.3,0.9,0.7,1.2,1c0.2-0.5,0.3-1.2,0.4-1.9
		H254z M256.7,5.7h-0.5V1.3h0.5V5.7z M258,0.4v6.5c0,0.4-0.1,0.5-0.3,0.6c-0.2,0.1-0.6,0.1-1.3,0.1c0-0.2-0.1-0.4-0.2-0.5
		c0.5,0,0.9,0,1.1,0c0.1,0,0.2,0,0.2-0.2V0.4H258z"/>
	<path fill="#58595B" d="M259.9,7.4c0.6-0.3,1-0.7,1-1.4c0,0-0.1,0-0.2,0c-0.3,0-0.6-0.2-0.6-0.6c0-0.4,0.3-0.5,0.6-0.5
		c0.4,0,0.7,0.4,0.7,0.9c0,0.9-0.5,1.6-1.4,1.9L259.9,7.4z M260.2,2.1c0-0.4,0.3-0.6,0.6-0.6s0.6,0.2,0.6,0.6c0,0.3-0.3,0.6-0.6,0.6
		S260.2,2.4,260.2,2.1z"/>
	<path fill="#58595B" d="M2.6,21.8v2.8H2.1v-2.8H0.4v-0.5h1.6v-0.9H0.4V20h2.2c0.2-0.4,0.4-0.9,0.4-1.3l0.5,0.1
		c-0.1,0.4-0.3,0.8-0.5,1.2h1v0.5H2.6v0.9h1.5v0.5H2.6z M1.6,22.4C1.4,23,1.1,23.6,0.8,24c-0.1-0.1-0.3-0.2-0.4-0.3
		c0.3-0.4,0.6-0.9,0.8-1.4L1.6,22.4z M4,18.7H0.5v-0.5h1.6C2,18,1.9,17.7,1.8,17.5l0.5-0.1c0.2,0.3,0.3,0.6,0.5,0.9H4V18.7z M1.4,20
		c0-0.3-0.2-0.8-0.3-1.2l0.4-0.1c0.2,0.4,0.3,0.8,0.3,1.1L1.4,20z M3.3,22.2c0.3,0.4,0.5,0.9,0.7,1.3l-0.4,0.2
		c-0.1-0.3-0.4-0.9-0.7-1.3L3.3,22.2z M7.6,20.5H6.7v4.1H6.2v-4.1H5v0.3c0,1.1-0.1,2.7-0.8,3.7c-0.1-0.1-0.3-0.3-0.4-0.3
		c0.7-1,0.8-2.4,0.8-3.4v-2.7c0.9-0.2,1.9-0.4,2.5-0.6l0.4,0.4c-0.7,0.3-1.6,0.4-2.4,0.6V20h2.6V20.5z"/>
	<path fill="#58595B" d="M15.6,22.2v0.5H8.4v-0.5h0.7L8.9,18c0.5-0.1,1-0.3,1.4-0.5l0.3,0.5c-0.3,0.1-0.8,0.3-1.1,0.4l0,1h0.9v0.4
		H9.5l0,1h0.9v0.4H9.5l0,1h1.1v-4.5h2.7v4.5h1.1c0-0.3,0-0.6,0-1h-0.9v-0.4h1c0-0.3,0-0.7,0-1h-1v-0.4h1c0-0.4,0-0.8,0-1.1h-1v-0.4
		h1.5c0,1.4-0.1,3.3-0.1,4.5H15.6z M11.2,23.2c-0.6,0.5-1.6,1-2.4,1.4c-0.1-0.1-0.2-0.3-0.3-0.4c0.8-0.3,1.7-0.9,2.2-1.3L11.2,23.2z
		 M11,22.2h1.9v-4H11V22.2z M12.7,18.8v0.4h-1.4v-0.4H12.7z M11.4,19.7h1.2v1.8h-1.2V19.7z M11.7,21.2h0.6v-1.1h-0.6V21.2z
		 M13.1,22.9c0.8,0.4,1.8,0.9,2.3,1.3l-0.3,0.4c-0.6-0.4-1.4-0.9-2.3-1.3L13.1,22.9z"/>
	<path fill="#58595B" d="M20.2,19.1v1.1h2.6V23c0,0.3-0.1,0.5-0.3,0.6c-0.3,0.1-0.7,0.1-1.4,0.1c0-0.2-0.1-0.4-0.2-0.5
		c0.6,0,1,0,1.2,0c0.1,0,0.2,0,0.2-0.2v-2.3h-2.1v3.9h-0.5v-3.9h-1.9v3h-0.5v-3.5h2.5v-1.1h-3.3v-0.5h3.5c-0.1-0.3-0.4-0.7-0.6-1.1
		l0.5-0.2c0.2,0.4,0.5,0.9,0.6,1.2l-0.2,0.1h3.2v0.5H20.2z"/>
	<path fill="#58595B" d="M26.9,22c-0.8,0.4-1.7,0.8-2.4,1.2l-0.2-0.5c0.3-0.1,0.7-0.3,1.1-0.5v-2.6h-1v-0.5h1v-1.7h0.5v1.7h0.9v0.5
		h-0.9v2.3l0.8-0.4L26.9,22z M28.3,21.1c-0.1,0.2-0.2,0.4-0.4,0.6h3.5c0,0,0,0.1,0,0.2c-0.1,1.7-0.2,2.3-0.5,2.5
		c-0.1,0.1-0.3,0.2-0.4,0.2c-0.2,0-0.5,0-0.8,0c0-0.1-0.1-0.3-0.1-0.4c0.3,0,0.6,0,0.7,0c0.1,0,0.2,0,0.2-0.1c0.1-0.1,0.3-0.7,0.4-2
		h-0.7c-0.3,1-1,2-1.6,2.5c-0.1-0.1-0.2-0.2-0.4-0.3c0.7-0.4,1.3-1.3,1.6-2.2H29c-0.4,0.8-1.2,1.7-2,2.2c-0.1-0.1-0.2-0.2-0.4-0.3
		c0.7-0.4,1.4-1.1,1.8-1.9h-0.9c-0.3,0.4-0.7,0.7-1.1,0.9c-0.1-0.1-0.3-0.3-0.4-0.3c0.6-0.4,1.2-1,1.6-1.6h-1.2v-0.5h5v0.5H28.3z
		 M31.1,20.2h-3.6v-2.6h3.6V20.2z M30.6,18h-2.7v0.7h2.7V18z M30.6,19.1h-2.7v0.7h2.7V19.1z"/>
	<path fill="#58595B" d="M34.3,20.3c0.3,0.3,1,1.1,1.2,1.4l-0.3,0.4c-0.2-0.3-0.5-0.8-0.9-1.2v3.7h-0.5v-3.9c-0.3,1-0.8,1.9-1.2,2.5
		c-0.1-0.1-0.2-0.4-0.3-0.5c0.6-0.7,1.1-2,1.4-3.1h-1.3v-0.5h1.3v-1.7h0.5v1.7h1.2v0.5h-1.2V20.3z M39.4,17.8v6.7h-0.5v-0.5h-2.5
		v0.5h-0.5v-6.7H39.4z M36.3,18.3v1.4h2.5v-1.4H36.3z M36.3,21.7h2.5v-1.4h-2.5V21.7z M38.8,23.6v-1.5h-2.5v1.5H38.8z"/>
	<path fill="#58595B" d="M47.6,20h-0.8V24c0,0.4-0.1,0.5-0.3,0.6c-0.2,0.1-0.6,0.1-1.2,0.1c0-0.1-0.1-0.4-0.2-0.5c0.5,0,0.9,0,1.1,0
		c0.1,0,0.2,0,0.2-0.2V20h-1.9v-0.5h-4v-0.5h1.2v-1.7h0.4v1.7h0.7v-1.7h0.4v1.4c0.3-0.3,0.6-0.8,0.8-1.1l0.4,0.2
		c-0.3,0.4-0.6,0.8-0.9,1.1l-0.3-0.2v0.3h1.2v0.4h1.9v-2.1h0.5v2.1h0.8V20z M42.7,23.5c0.6-0.1,1.1-0.2,1.7-0.2l0,0.5
		c-1.4,0.2-2.9,0.4-3.9,0.6l-0.1-0.5c0.5-0.1,1.1-0.1,1.8-0.2v-1h-1.3v-0.5h1.3v-0.9h-1.5v-0.5h2.1c0.2-0.3,0.4-0.8,0.6-1.2l0.5,0.2
		c-0.2,0.3-0.4,0.7-0.5,1h0.9v0.5h-1.5v0.9H44v0.5h-1.3V23.5z M41.3,18.9c-0.1-0.3-0.5-0.8-0.8-1.1l0.3-0.2c0.3,0.3,0.6,0.8,0.8,1.1
		L41.3,18.9z M41.5,19.6c0.3,0.3,0.5,0.7,0.6,0.9l-0.4,0.2c-0.1-0.3-0.4-0.7-0.6-0.9L41.5,19.6z M45.3,22.7
		c-0.1-0.5-0.4-1.3-0.7-1.8l0.4-0.2c0.3,0.6,0.7,1.3,0.8,1.8L45.3,22.7z"/>
	<path fill="#58595B" d="M51.3,20.3c0,0,0,0.2,0,0.2c-0.1,2.5-0.2,3.4-0.4,3.7c-0.1,0.2-0.3,0.2-0.4,0.2c-0.2,0-0.4,0-0.7,0
		c0-0.2-0.1-0.4-0.1-0.5c0.3,0,0.5,0,0.6,0c0.1,0,0.2,0,0.2-0.1c0.2-0.2,0.3-1,0.3-3.1h-1.1c-0.1,1.6-0.3,2.9-1,3.8
		c-0.1-0.1-0.3-0.3-0.4-0.4c0.9-1,0.9-2.9,1-5h-0.8v-0.5h3.2v0.5h-1.9c0,0.4,0,0.8,0,1.1H51.3z M50.1,18.7c-0.1-0.3-0.4-0.8-0.7-1.1
		l0.5-0.2c0.3,0.4,0.6,0.8,0.7,1.1L50.1,18.7z M53.9,17.5c0,0.1-0.1,0.3-0.1,0.4c0.4,0.9,1.2,1.8,2,2.2c-0.1,0.1-0.3,0.3-0.4,0.4
		c-0.7-0.4-1.4-1.3-1.8-2.1c-0.4,0.9-1,1.7-1.8,2.2c-0.1-0.1-0.2-0.3-0.4-0.4c0.9-0.6,1.7-1.6,2-2.9L53.9,17.5z M52.5,22.7
		c0.7,0.4,1.7,0.9,2.2,1.3l-0.4,0.5c-0.5-0.4-1.4-1-2.1-1.4L52.5,22.7z M54.1,21.9c-0.3-0.3-0.9-0.8-1.4-1.1l0.3-0.4
		c0.5,0.3,1.1,0.8,1.4,1L54.1,21.9z"/>
	<path fill="#58595B" d="M61.9,23.9c0.9,0,1-0.3,1.1-1.6c0.1,0.1,0.4,0.2,0.5,0.2c-0.1,1.5-0.4,1.9-1.7,1.9h-3
		c-1.2,0-1.6-0.2-1.6-1.2v-4h0.5v1.4H62v-2.2h-5.3v-0.5h5.8v3.6H62v-0.4h-4.3v2.2c0,0.5,0.2,0.6,1.1,0.6H61.9z"/>
	<path fill="#58595B" d="M65.3,20.4v4.3h-0.5v-6.9h2.9v2.6H65.3z M65.3,18.1v0.7h1.8v-0.7H65.3z M67.1,19.9v-0.7h-1.8v0.7H67.1z
		 M69,22.7v1.8h-0.5v-1.8h-1.2c-0.1,0.5-0.3,1.4-1.1,1.9c-0.1-0.1-0.2-0.2-0.4-0.3c0.7-0.4,0.9-1.1,1-1.6h-1v-0.4h1v-0.9H66v-0.4h4
		v0.4H69v0.9h1.1v0.4H69z M68.6,22.2v-0.9h-1.2v0.9H68.6z M71.3,23.9c0,0.3-0.1,0.5-0.3,0.6c-0.2,0.1-0.6,0.1-1.2,0.1
		c0-0.1-0.1-0.4-0.2-0.5c0.5,0,0.9,0,1,0c0.1,0,0.2,0,0.2-0.2v-3.6h-2.4v-2.7h2.9V23.9z M68.9,18.1v0.7h1.9v-0.7H68.9z M70.8,19.9
		v-0.7h-1.9v0.7H70.8z"/>
	<path fill="#58595B" d="M75.3,22.4c0,0,0,0.2,0,0.2c-0.1,1.1-0.2,1.6-0.4,1.8c-0.1,0.1-0.3,0.2-0.5,0.2c-0.2,0-0.6,0-1.1,0
		c0-0.1-0.1-0.3-0.2-0.5c0.4,0,0.9,0,1,0c0.1,0,0.2,0,0.3-0.1c0.1-0.1,0.2-0.5,0.3-1.3h-1.9c0.1-0.5,0.2-1.2,0.3-1.7h1.6v-0.9h-1.4
		v-0.1c-0.3,0.2-0.6,0.3-0.9,0.4c-0.1-0.1-0.2-0.3-0.3-0.4c0.5-0.2,1.1-0.4,1.6-0.8c-0.2-0.2-0.6-0.5-0.9-0.7l0.3-0.3
		c0.3,0.2,0.7,0.5,1,0.7c0.3-0.3,0.6-0.6,0.8-0.9h-1.9v-0.4h2.2l0.1,0l0.3,0.2c-0.4,0.8-1,1.4-1.7,1.9h1.3v1.7h-1.7
		c0,0.3-0.1,0.6-0.1,0.9H75.3z M79.4,18.5c-0.3,0.3-0.8,0.7-1.2,0.9c0.4,0.3,0.9,0.5,1.4,0.6c-0.1,0.1-0.2,0.3-0.3,0.4
		c-0.4-0.1-0.8-0.3-1.2-0.5V21c0,0.2,0,0.2,0.1,0.2h0.6c0.1,0,0.3,0,0.4,0c0,0.1,0,0.3,0,0.4c-0.1,0-0.2,0-0.4,0h-0.7
		c-0.4,0-0.5-0.2-0.5-0.6v-0.8h-1.2v0.2c0,0.5-0.2,1.1-0.9,1.5c-0.1-0.1-0.2-0.3-0.3-0.3c0.6-0.3,0.8-0.8,0.8-1.2v-0.6h1.8
		c-0.9-0.6-1.6-1.3-2-2.2l0.4-0.1c0.2,0.4,0.4,0.7,0.6,1c0.4-0.3,0.8-0.7,1.1-0.9l0.4,0.3c-0.4,0.3-0.8,0.7-1.2,1
		c0.2,0.2,0.4,0.3,0.6,0.5c0.4-0.3,0.8-0.7,1.1-0.9L79.4,18.5z M78.8,22.2c-0.2,0.6-0.6,1.1-1.1,1.4c0.4,0.3,0.8,0.5,1.1,0.7
		l-0.3,0.4c-0.3-0.2-0.7-0.5-1.2-0.8c-0.6,0.4-1.2,0.6-1.8,0.8c0-0.1-0.2-0.3-0.2-0.4c0.6-0.1,1.2-0.4,1.7-0.7
		c-0.4-0.3-0.9-0.5-1.3-0.8l0.3-0.3c0.4,0.2,0.9,0.5,1.4,0.8c0.3-0.3,0.6-0.6,0.8-0.9h-2.5V22h2.8l0.1,0L78.8,22.2z"/>
	<path fill="#58595B" d="M87.3,17.7v6.9h-0.5v-0.4h-5.6v0.4h-0.5v-6.9H87.3z M86.8,23.8v-5.6h-5.6v5.6H86.8z M84,22.5
		c-0.8,0.2-1.7,0.3-2.4,0.5l-0.1-0.4c0.6-0.1,1.5-0.3,2.4-0.4L84,22.5z M86,20.2c-0.2,0.8-0.5,1.4-0.9,2c0.2,0.5,0.4,0.8,0.7,0.8
		c0.1,0,0.2-0.3,0.3-0.8c0.1,0.1,0.3,0.2,0.4,0.2c-0.1,0.9-0.3,1.2-0.7,1c-0.4-0.1-0.7-0.4-0.9-0.8c-0.3,0.4-0.7,0.7-1.1,1
		c-0.1-0.1-0.2-0.3-0.3-0.3c0.5-0.3,0.9-0.6,1.2-1.1c-0.2-0.6-0.4-1.5-0.4-2.4h-2.5v-0.4h2.5c0-0.3,0-0.6-0.1-0.9h0.5
		c0,0.3,0,0.6,0.1,0.9h1.8v0.4h-1.8c0.1,0.7,0.2,1.4,0.3,2c0.3-0.5,0.5-1,0.6-1.6L86,20.2z M83.7,20.3v1.6H82v-1.6H83.7z M83.3,20.6
		h-1v0.9h1V20.6z M85.9,19.2c-0.2-0.2-0.6-0.4-0.9-0.6l0.3-0.3c0.3,0.1,0.7,0.4,0.9,0.5L85.9,19.2z"/>
	<path fill="#58595B" d="M94.8,20.6c-0.4,0.3-0.8,0.6-1.3,0.9c0.4,1.1,1.2,2,2.2,2.4c-0.1,0.1-0.3,0.3-0.4,0.4
		c-1-0.5-1.8-1.4-2.2-2.6c-0.1,0.1-0.3,0.2-0.4,0.3c0.3,1,0.1,2-0.4,2.4c-0.2,0.2-0.4,0.3-0.8,0.3c-0.2,0-0.4,0-0.7,0
		c0-0.1-0.1-0.4-0.1-0.5c0.3,0,0.6,0,0.7,0c0.2,0,0.4,0,0.5-0.2c0.3-0.2,0.4-0.8,0.3-1.5c-0.9,0.7-2.3,1.4-3.5,1.7
		c-0.1-0.1-0.2-0.3-0.3-0.5c1.3-0.3,2.8-1.1,3.6-1.8c-0.1-0.2-0.1-0.4-0.2-0.6c-0.8,0.5-2,1.1-3,1.4c-0.1-0.1-0.2-0.3-0.3-0.4
		c1-0.2,2.3-0.8,3-1.4c-0.1-0.2-0.3-0.4-0.4-0.5c-0.7,0.4-1.6,0.7-2.3,1c-0.1-0.1-0.2-0.3-0.3-0.4c1-0.3,2.1-0.7,2.9-1.2h-1.9v-0.5
		h4.6v0.5h-2c-0.2,0.2-0.4,0.3-0.6,0.4c0.4,0.4,0.7,0.8,0.8,1.3c0.6-0.4,1.3-0.9,1.8-1.4L94.8,20.6z M89.2,19.7h-0.5v-1.6h3
		c-0.1-0.2-0.2-0.4-0.3-0.6l0.5-0.2c0.1,0.2,0.3,0.5,0.4,0.8h3v1.6h-0.5v-1.1h-5.6V19.7z"/>
	<path fill="#58595B" d="M102.9,19.2c-1,1.5-2.8,3.1-4.4,4.1c0.1,0.1,0.2,0.1,0.3,0.2c0.5,0.3,1.2,0.4,2,0.4c1,0,2.1-0.1,2.9-0.1
		c-0.1,0.1-0.1,0.4-0.2,0.6c-0.6,0-2,0.1-2.8,0.1c-1,0-1.6-0.1-2.2-0.4c-0.3-0.2-0.6-0.5-0.7-0.5c-0.3,0-0.6,0.5-1,1L96.4,24
		c0.5-0.6,1-1,1.4-1c0,0,0.1,0,0.1,0c1.5-0.8,3.1-2.3,4-3.5h-5.1V19h5.5l0.1,0L102.9,19.2z M100.2,18.9c-0.2-0.3-0.5-0.9-0.8-1.3
		l0.5-0.2c0.3,0.4,0.7,1,0.9,1.3L100.2,18.9z"/>
	<path fill="#58595B" d="M108.9,19.6c0.6,1.4,1.6,2.7,2.8,3.3c-0.1,0.1-0.3,0.3-0.4,0.4c-1.2-0.7-2.3-2.2-2.9-3.7h-0.1v3h1.9v0.5
		h-1.9v1.5h-0.6v-1.5h-1.9v-0.5h1.9v-3h-0.1c-0.6,1.6-1.7,3-2.8,3.8c-0.1-0.1-0.3-0.3-0.4-0.4c1.1-0.7,2.1-2,2.7-3.3h-2.5v-0.5h3.2
		v-1.7h0.6v1.7h3.2v0.5H108.9z"/>
	<path fill="#58595B" d="M119.6,23.9v0.5h-7.2v-0.5h1.1v-2.5h5.2v2.5H119.6z M119.4,19.4h-6.9v-0.5h2.1c-0.2-0.4-0.5-0.9-0.8-1.4
		l0.4-0.2c0.3,0.4,0.7,1,0.9,1.3l-0.4,0.2h4.7V19.4z M115.1,20.1c-0.5,0.5-1.5,1.1-2.2,1.4c-0.1-0.1-0.2-0.3-0.3-0.4
		c0.7-0.3,1.7-0.8,2.2-1.3L115.1,20.1z M113.9,23.9h1.1v-2h-1.1V23.9z M115.5,21.9v2h1.1v-2H115.5z M119.1,21.3
		c-0.5-0.3-1.6-0.8-2.4-1.1l0.2-0.4c0.8,0.3,1.9,0.7,2.4,1L119.1,21.3z M118.3,17.5c-0.3,0.5-0.6,1-0.9,1.4l-0.4-0.2
		c0.3-0.4,0.7-1,0.8-1.4L118.3,17.5z M117,21.9v2h1.1v-2H117z"/>
	<path fill="#58595B" d="M123.8,23c0,0.1,0,0.4,0,0.5c-2.3,0.6-2.6,0.7-2.8,0.8c0-0.1-0.2-0.4-0.3-0.5c0.1-0.1,0.3-0.2,0.3-0.6v-6
		h0.5v2.5h2.1v0.5h-2.1v3.2L123.8,23z M126.7,24c0.4,0,0.4-0.3,0.5-1.5c0.1,0.1,0.3,0.2,0.5,0.2c-0.1,1.3-0.2,1.7-1,1.7h-1.4
		c-0.8,0-1-0.2-1-1v-6.1h0.5v2.5h2.2v0.5h-2.2v3.1c0,0.4,0.1,0.5,0.5,0.5H126.7z"/>
	<path fill="#58595B" d="M131.3,21.3c-0.4,0.1-0.8,0.2-1.1,0.4V24c0,0.3-0.1,0.5-0.3,0.5c-0.2,0.1-0.5,0.1-1,0.1
		c0-0.1-0.1-0.4-0.2-0.5c0.4,0,0.7,0,0.8,0c0.1,0,0.2,0,0.2-0.2v-2.2c-0.4,0.1-0.8,0.2-1.1,0.3l-0.2-0.5c0.3-0.1,0.8-0.2,1.3-0.4
		v-1.8h-1.1V19h1.1v-1.6h0.5V19h1.1v0.5h-1.1v1.6l1.1-0.3L131.3,21.3z M135.6,20.5h-1.4v4.1h-0.5v-4.1h-1.6v0.1c0,1.4-0.1,2.8-1,4
		c-0.1-0.1-0.3-0.3-0.4-0.3c0.8-1.1,0.9-2.4,0.9-3.7v-2.5c1.2-0.1,2.6-0.4,3.4-0.6l0.3,0.4c-0.8,0.2-2.1,0.5-3.2,0.6V20h3.5V20.5z"
		/>
	<path fill="#58595B" d="M138.4,17.5c-0.2,0.5-0.4,1.1-0.6,1.6v5.5h-0.5v-4.6c-0.2,0.4-0.5,0.8-0.8,1.1c0-0.1-0.2-0.4-0.3-0.5
		c0.7-0.8,1.3-2,1.7-3.3L138.4,17.5z M140.5,23.8c-0.5,0.4-1.3,0.7-2,0.8c-0.1-0.1-0.2-0.3-0.3-0.4c0.7-0.2,1.5-0.5,1.9-0.7
		L140.5,23.8z M140,18.2h-1.6v-0.4h5.1v0.4h-1.7v0.5h1.4v1.5h-4.7v-1.5h1.4V18.2z M138.8,23.5v-2.9h4.4v2.9H138.8z M139.1,19.9h0.9
		v-0.8h-0.9V19.9z M139.3,21.4h3.4V21h-3.4V21.4z M139.3,22.3h3.4v-0.5h-3.4V22.3z M139.3,23.1h3.4v-0.5h-3.4V23.1z M141.4,18.2
		h-0.9v0.5h0.9V18.2z M140.5,19.9h0.9v-0.8h-0.9V19.9z M141.8,23.6c0.7,0.2,1.5,0.5,1.9,0.8l-0.5,0.3c-0.4-0.2-1.1-0.6-1.8-0.8
		L141.8,23.6z M141.9,19.1v0.8h0.9v-0.8H141.9z"/>
	<path fill="#58595B" d="M148.1,23.3c-1.2,0.3-2.5,0.6-3.4,0.8l-0.1-0.5c0.9-0.2,2.2-0.4,3.5-0.7L148.1,23.3z M151.1,19.9
		c-0.4,1.1-0.8,2-1.4,2.8c0.3,0.9,0.7,1.4,1.1,1.4c0.2,0,0.3-0.4,0.4-1.5c0.1,0.1,0.3,0.2,0.5,0.3c-0.1,1.4-0.3,1.8-0.9,1.8
		c-0.6,0-1.1-0.6-1.5-1.4c-0.5,0.6-1.1,1-1.8,1.4c-0.1-0.1-0.3-0.3-0.4-0.4c0.8-0.4,1.4-1,2-1.6c-0.3-0.9-0.5-2.1-0.6-3.4h-3.9v-0.5
		h3.9c0-0.4,0-0.8,0-1.3h0.6c0,0.4,0,0.9,0,1.3h2.4v0.5h-2.4c0.1,1.1,0.2,2.1,0.4,2.9c0.5-0.7,0.8-1.4,1.1-2.3L151.1,19.9z
		 M147.8,19.9v2.4h-2.7v-2.4H147.8z M147.3,20.4h-1.7v1.5h1.7V20.4z M150.9,18.6c-0.3-0.3-0.9-0.6-1.4-0.9l0.3-0.3
		c0.5,0.2,1.1,0.6,1.4,0.8L150.9,18.6z"/>
	<path fill="#58595B" d="M153.6,21c-0.3-0.3-0.8-0.7-1.3-1l0.3-0.3c0.5,0.3,1,0.7,1.3,1L153.6,21z M152.6,24.2
		c0.3-0.6,0.7-1.7,0.9-2.6l0.4,0.2c-0.2,0.8-0.6,1.8-0.9,2.6L152.6,24.2z M153.9,18.9c-0.3-0.3-0.8-0.8-1.3-1.1l0.3-0.3
		c0.4,0.3,1,0.8,1.3,1.1L153.9,18.9z M159.6,23.9v0.5H154v-0.5h0.8v-2.3h4.2v2.3H159.6z M156.3,20.1c-0.4,0.5-1.2,1.1-1.8,1.4
		c-0.1-0.1-0.2-0.3-0.3-0.4c0.6-0.3,1.4-0.8,1.8-1.3L156.3,20.1z M154.2,19.1h5.2v0.5h-5.2V19.1z M155.7,18.9
		c-0.2-0.4-0.5-0.9-0.8-1.4l0.4-0.2c0.3,0.4,0.6,1,0.8,1.3L155.7,18.9z M155.2,23.9h0.8V22h-0.8V23.9z M156.4,22v1.9h0.8V22H156.4z
		 M157.5,19.9c0.6,0.4,1.5,0.9,1.9,1.2l-0.3,0.4c-0.4-0.4-1.3-0.9-1.9-1.3L157.5,19.9z M158.7,17.6c-0.3,0.5-0.6,1-0.9,1.3l-0.4-0.2
		c0.2-0.4,0.6-0.9,0.7-1.4L158.7,17.6z M157.7,22v1.9h0.8V22H157.7z"/>
	<path fill="#58595B" d="M162.4,17.5c-0.2,0.5-0.4,1.1-0.6,1.6v5.5h-0.5v-4.6c-0.2,0.4-0.5,0.8-0.8,1.1c0-0.1-0.2-0.4-0.3-0.5
		c0.7-0.8,1.3-2,1.7-3.3L162.4,17.5z M164.5,23.8c-0.5,0.4-1.3,0.7-2,0.8c-0.1-0.1-0.2-0.3-0.3-0.4c0.7-0.2,1.5-0.5,1.9-0.7
		L164.5,23.8z M164,18.2h-1.6v-0.4h5.1v0.4h-1.7v0.5h1.4v1.5h-4.7v-1.5h1.4V18.2z M162.8,23.5v-2.9h4.4v2.9H162.8z M163.1,19.9h0.9
		v-0.8h-0.9V19.9z M163.3,21.4h3.4V21h-3.4V21.4z M163.3,22.3h3.4v-0.5h-3.4V22.3z M163.3,23.1h3.4v-0.5h-3.4V23.1z M165.4,18.2
		h-0.9v0.5h0.9V18.2z M164.5,19.9h0.9v-0.8h-0.9V19.9z M165.8,23.6c0.7,0.2,1.5,0.5,1.9,0.8l-0.5,0.3c-0.4-0.2-1.1-0.6-1.8-0.8
		L165.8,23.6z M165.9,19.1v0.8h0.9v-0.8H165.9z"/>
	<path fill="#58595B" d="M174.9,19.2c-1,1.5-2.8,3.1-4.4,4.1c0.1,0.1,0.2,0.1,0.3,0.2c0.5,0.3,1.2,0.4,2,0.4c1,0,2.1-0.1,2.9-0.1
		c-0.1,0.1-0.1,0.4-0.2,0.6c-0.6,0-2,0.1-2.8,0.1c-1,0-1.6-0.1-2.2-0.4c-0.3-0.2-0.6-0.5-0.7-0.5c-0.3,0-0.6,0.5-1,1l-0.4-0.5
		c0.5-0.6,1-1,1.4-1c0,0,0.1,0,0.1,0c1.5-0.8,3.1-2.3,4-3.5h-5.1V19h5.5l0.1,0L174.9,19.2z M172.2,18.9c-0.2-0.3-0.5-0.9-0.8-1.3
		l0.5-0.2c0.3,0.4,0.7,1,0.9,1.3L172.2,18.9z"/>
	<path fill="#58595B" d="M178.8,22.1c-0.1-0.2-0.4-0.7-0.6-1.1v3.7h-0.5V21c-0.3,0.9-0.7,1.7-1.1,2.3c-0.1-0.2-0.2-0.4-0.3-0.5
		c0.5-0.6,1-1.6,1.3-2.6h-1.1v-0.5h1.2v-1.4c-0.3,0.1-0.7,0.1-1,0.2c0-0.1-0.1-0.3-0.2-0.4c0.8-0.1,1.7-0.4,2.2-0.6l0.3,0.4
		c-0.3,0.1-0.6,0.2-0.9,0.3v1.5h1v0.5h-1v0.2c0.2,0.3,0.8,1.1,1,1.3L178.8,22.1z M183.6,24v0.5H179V24h2.1v-1.1h-1.6v-0.5h1.6v-1
		c-0.5,0.1-0.9,0.1-1.4,0.1c0-0.1-0.1-0.3-0.1-0.4c1.1-0.1,2.4-0.2,3.2-0.5l0.4,0.4c-0.4,0.1-0.9,0.2-1.5,0.3v1.1h1.6v0.5h-1.6V24
		H183.6z M183.2,20.3h-3.6v-2.5h3.6V20.3z M182.6,18.2h-2.6v1.6h2.6V18.2z"/>
	<path fill="#58595B" d="M185.6,20.3c0,1.3-0.1,3.1-0.8,4.3c-0.1-0.1-0.3-0.2-0.5-0.2c0.6-1.2,0.7-2.9,0.7-4.1v-2.2h3.1
		c-0.1-0.2-0.2-0.5-0.4-0.7l0.5-0.1c0.2,0.3,0.3,0.6,0.4,0.8h2.8v0.5h-6V20.3z M190.9,22.1c-0.4,0.7-1,1.2-1.7,1.6
		c0.7,0.3,1.6,0.4,2.5,0.5c-0.1,0.1-0.2,0.3-0.3,0.5c-1-0.1-2-0.4-2.8-0.7c-0.9,0.3-1.9,0.6-2.9,0.7c0-0.1-0.1-0.3-0.2-0.5
		c0.9-0.1,1.8-0.2,2.5-0.5c-0.5-0.3-1-0.7-1.3-1.2l0.3-0.1h-1.1v-0.4h4.5l0.1,0L190.9,22.1z M187.1,21.4V20h-1.3v-0.4h1.3v-0.7h0.5
		v0.7h2v-0.7h0.5v0.7h1.3V20h-1.3v1.3H187.1z M187.2,22.4c0.3,0.4,0.8,0.8,1.4,1.1c0.6-0.3,1.1-0.6,1.5-1.1H187.2z M187.6,20v0.9h2
		V20H187.6z"/>
	<path fill="#58595B" d="M194,19.8c0.7,0,1.2,0.5,1.2,1.2c0,0.7-0.5,1.2-1.2,1.2c-0.7,0-1.2-0.5-1.2-1.2
		C192.8,20.3,193.4,19.8,194,19.8z M194,21.8c0.5,0,0.8-0.4,0.8-0.8c0-0.5-0.4-0.8-0.8-0.8c-0.5,0-0.8,0.4-0.8,0.8
		C193.2,21.5,193.6,21.8,194,21.8z"/>
	<path fill="#58595B" d="M203.5,18.2v0.5h-7v-0.5h3.3c-0.1-0.2-0.2-0.5-0.3-0.8l0.5-0.1c0.1,0.3,0.2,0.6,0.3,0.9H203.5z M203.2,24.1
		c0,0.3-0.1,0.4-0.3,0.5c-0.2,0.1-0.5,0.1-1,0.1c0-0.1-0.1-0.3-0.2-0.4c0.4,0,0.7,0,0.8,0c0.1,0,0.1,0,0.1-0.1v-2.4h-5.3v3h-0.5
		v-3.5h6.4V24.1z M202.3,19.2v1.6h-4.6v-1.6H202.3z M201.8,19.6h-3.5v0.8h3.5V19.6z M201.6,23.8h-2.9v0.4h-0.5v-2h3.4V23.8z
		 M198.8,22.6v0.8h2.4v-0.8H198.8z"/>
	<path fill="#58595B" d="M207.3,20.3c0,0,0,0.2,0,0.2c-0.1,2.5-0.2,3.4-0.4,3.7c-0.1,0.2-0.3,0.2-0.4,0.2c-0.2,0-0.4,0-0.7,0
		c0-0.2-0.1-0.4-0.1-0.5c0.3,0,0.5,0,0.6,0c0.1,0,0.2,0,0.2-0.1c0.2-0.2,0.3-1,0.3-3.1h-1.1c-0.1,1.6-0.3,2.9-1,3.8
		c-0.1-0.1-0.3-0.3-0.4-0.4c0.9-1,0.9-2.9,1-5h-0.8v-0.5h3.2v0.5h-1.9c0,0.4,0,0.8,0,1.1H207.3z M206.1,18.7
		c-0.1-0.3-0.4-0.8-0.7-1.1l0.5-0.2c0.3,0.4,0.6,0.8,0.7,1.1L206.1,18.7z M209.9,17.5c0,0.1-0.1,0.3-0.1,0.4c0.4,0.9,1.2,1.8,2,2.2
		c-0.1,0.1-0.3,0.3-0.4,0.4c-0.7-0.4-1.4-1.3-1.8-2.1c-0.4,0.9-1,1.7-1.8,2.2c-0.1-0.1-0.2-0.3-0.4-0.4c0.9-0.6,1.7-1.6,2-2.9
		L209.9,17.5z M208.5,22.7c0.7,0.4,1.7,0.9,2.2,1.3l-0.4,0.5c-0.5-0.4-1.4-1-2.1-1.4L208.5,22.7z M210.1,21.9
		c-0.3-0.3-0.9-0.8-1.4-1.1l0.3-0.4c0.5,0.3,1.1,0.8,1.4,1L210.1,21.9z"/>
	<path fill="#58595B" d="M212.7,23.5h1.3V19h-1v-0.4c0.5-0.1,0.9-0.2,1.2-0.4h0.5v5.3h1.2V24h-3.2V23.5z"/>
	<path fill="#58595B" d="M216.8,21.1c0-2,0.7-3,1.8-3c1.1,0,1.8,1,1.8,3c0,2-0.7,3.1-1.8,3.1C217.5,24.1,216.8,23.1,216.8,21.1z
		 M219.7,21.1c0-1.7-0.5-2.5-1.2-2.5c-0.7,0-1.2,0.8-1.2,2.5c0,1.7,0.5,2.5,1.2,2.5C219.3,23.6,219.7,22.8,219.7,21.1z"/>
	<path fill="#58595B" d="M221.2,21.1c0-2,0.7-3,1.8-3c1.1,0,1.8,1,1.8,3c0,2-0.7,3.1-1.8,3.1C221.9,24.1,221.2,23.1,221.2,21.1z
		 M224.1,21.1c0-1.7-0.5-2.5-1.2-2.5c-0.7,0-1.2,0.8-1.2,2.5c0,1.7,0.5,2.5,1.2,2.5C223.7,23.6,224.1,22.8,224.1,21.1z"/>
	<path fill="#58595B" d="M225.5,19.9c0-1.2,0.5-1.8,1.3-1.8s1.3,0.7,1.3,1.8c0,1.2-0.5,1.9-1.3,1.9S225.5,21.1,225.5,19.9z
		 M227.6,19.9c0-0.9-0.3-1.4-0.8-1.4S226,19,226,19.9s0.3,1.4,0.8,1.4S227.6,20.9,227.6,19.9z M230.2,18.1h0.5l-3.2,6.1H227
		L230.2,18.1z M229.5,22.3c0-1.2,0.5-1.8,1.3-1.8c0.8,0,1.3,0.7,1.3,1.8c0,1.2-0.5,1.9-1.3,1.9C230.1,24.1,229.5,23.5,229.5,22.3z
		 M231.7,22.3c0-0.9-0.3-1.4-0.8-1.4c-0.5,0-0.8,0.5-0.8,1.4c0,1,0.3,1.4,0.8,1.4C231.3,23.7,231.7,23.2,231.7,22.3z"/>
	<path fill="#58595B" d="M235.5,17.6c-0.2,0.6-0.5,1.1-0.9,1.6v5.4h-0.5V20c-0.4,0.5-0.7,0.9-1.1,1.2c-0.1-0.1-0.2-0.4-0.3-0.5
		c0.9-0.8,1.8-2,2.4-3.3L235.5,17.6z M237.6,20.3c0.3,2.2,0.8,3.7,1.7,3.7c0.2,0,0.4-0.5,0.5-1.4c0.1,0.1,0.3,0.2,0.4,0.3
		c-0.2,1.3-0.5,1.8-0.9,1.8c-1.3-0.1-1.9-1.8-2.3-4.3l-2,0.3l-0.1-0.5l2-0.2c-0.1-0.7-0.1-1.5-0.2-2.4h0.5c0,0.8,0.1,1.6,0.2,2.3
		l2.4-0.3l0.1,0.5L237.6,20.3z M239.5,19.1c-0.3-0.4-0.8-0.9-1.3-1.3l0.4-0.2c0.5,0.4,1.1,0.9,1.4,1.3L239.5,19.1z"/>
	<path fill="#58595B" d="M247.7,21.6c-0.5,0.4-1.1,0.8-1.6,1.1c0.6,0.5,1.2,0.9,2,1.2c-0.1,0.1-0.3,0.3-0.4,0.5
		c-1.6-0.5-2.8-1.8-3.4-3.4h0c-0.4,0.4-0.8,0.7-1.3,1.1v1.8l2-0.6c0,0.1,0,0.3,0.1,0.5c-2.2,0.7-2.5,0.8-2.7,0.9
		c0-0.1-0.1-0.4-0.2-0.5c0.1-0.1,0.3-0.2,0.3-0.5v-1.3c-0.5,0.3-1,0.5-1.4,0.7c-0.1-0.1-0.2-0.3-0.4-0.4c1-0.3,2.2-1,2.9-1.7H241
		v-0.5h3.2v-0.8h-2.4v-0.4h2.4v-0.7h-2.8v-0.5h2.8v-0.7h0.5v0.7h2.9v0.5h-2.9v0.7h2.6v0.4h-2.6v0.8h3.2v0.5h-3
		c0.2,0.6,0.5,1,0.9,1.5c0.5-0.3,1.1-0.8,1.4-1.1L247.7,21.6z"/>
	<path fill="#58595B" d="M251.1,21.8v2.8h-0.5v-2.8h-1.6v-0.5h1.6v-0.9h-1.7V20h2.2c0.2-0.4,0.4-0.9,0.4-1.3l0.5,0.1
		c-0.1,0.4-0.3,0.8-0.5,1.2h1v0.5h-1.6v0.9h1.5v0.5H251.1z M250.1,22.4c-0.2,0.6-0.5,1.2-0.8,1.6c-0.1-0.1-0.3-0.2-0.4-0.3
		c0.3-0.4,0.6-0.9,0.8-1.4L250.1,22.4z M252.5,18.7H249v-0.5h1.6c-0.1-0.2-0.2-0.5-0.4-0.7l0.5-0.1c0.2,0.3,0.3,0.6,0.5,0.9h1.3
		V18.7z M249.9,20c0-0.3-0.2-0.8-0.3-1.2l0.4-0.1c0.2,0.4,0.3,0.8,0.3,1.1L249.9,20z M251.8,22.2c0.3,0.4,0.5,0.9,0.7,1.3l-0.4,0.2
		c-0.1-0.3-0.4-0.9-0.7-1.3L251.8,22.2z M256.1,20.5h-0.9v4.1h-0.5v-4.1h-1.2v0.3c0,1.1-0.1,2.7-0.8,3.7c-0.1-0.1-0.3-0.3-0.4-0.3
		c0.7-1,0.8-2.4,0.8-3.4v-2.7c0.9-0.2,1.9-0.4,2.5-0.6l0.4,0.4c-0.7,0.3-1.6,0.4-2.4,0.6V20h2.6V20.5z"/>
	<path fill="#58595B" d="M264.1,22.2v0.5h-7.2v-0.5h0.7l-0.1-4.3c0.5-0.1,1-0.3,1.4-0.5l0.3,0.5c-0.3,0.1-0.8,0.3-1.1,0.4l0,1h0.9
		v0.4h-0.9l0,1h0.9v0.4H258l0,1h1.1v-4.5h2.7v4.5h1.1c0-0.3,0-0.6,0-1h-0.9v-0.4h1c0-0.3,0-0.7,0-1h-1v-0.4h1c0-0.4,0-0.8,0-1.1h-1
		v-0.4h1.5c0,1.4-0.1,3.3-0.1,4.5H264.1z M259.7,23.2c-0.6,0.5-1.6,1-2.4,1.4c-0.1-0.1-0.2-0.3-0.3-0.4c0.8-0.3,1.7-0.9,2.2-1.3
		L259.7,23.2z M259.5,22.2h1.9v-4h-1.9V22.2z M261.2,18.8v0.4h-1.4v-0.4H261.2z M259.9,19.7h1.2v1.8h-1.2V19.7z M260.2,21.2h0.6
		v-1.1h-0.6V21.2z M261.6,22.9c0.8,0.4,1.8,0.9,2.3,1.3l-0.3,0.4c-0.6-0.4-1.4-0.9-2.3-1.3L261.6,22.9z"/>
	<path fill="#58595B" d="M4.2,36.1v1.1h2.6V40c0,0.3-0.1,0.5-0.3,0.6c-0.3,0.1-0.7,0.1-1.4,0.1c0-0.2-0.1-0.4-0.2-0.5
		c0.6,0,1,0,1.2,0c0.1,0,0.2,0,0.2-0.2v-2.3H4.2v3.9H3.7v-3.9H1.8v3H1.2v-3.5h2.5v-1.1H0.4v-0.5h3.5c-0.1-0.3-0.4-0.7-0.6-1.1
		l0.5-0.2c0.2,0.4,0.5,0.9,0.6,1.2l-0.2,0.1h3.2v0.5H4.2z"/>
	<path fill="#58595B" d="M10.9,39c-0.8,0.4-1.7,0.8-2.4,1.2l-0.2-0.5c0.3-0.1,0.7-0.3,1.1-0.5v-2.6h-1v-0.5h1v-1.7h0.5v1.7h0.9v0.5
		H9.9v2.3l0.8-0.4L10.9,39z M12.3,38.1c-0.1,0.2-0.2,0.4-0.4,0.6h3.5c0,0,0,0.1,0,0.2c-0.1,1.7-0.2,2.3-0.5,2.5
		c-0.1,0.1-0.3,0.2-0.4,0.2c-0.2,0-0.5,0-0.8,0c0-0.1-0.1-0.3-0.1-0.4c0.3,0,0.6,0,0.7,0c0.1,0,0.2,0,0.2-0.1c0.1-0.1,0.3-0.7,0.4-2
		h-0.7c-0.3,1-1,2-1.6,2.5c-0.1-0.1-0.2-0.2-0.4-0.3c0.7-0.4,1.3-1.3,1.6-2.2H13c-0.4,0.8-1.2,1.7-2,2.2c-0.1-0.1-0.2-0.2-0.4-0.3
		c0.7-0.4,1.4-1.1,1.8-1.9h-0.9c-0.3,0.4-0.7,0.7-1.1,0.9c-0.1-0.1-0.3-0.3-0.4-0.3c0.6-0.4,1.2-1,1.6-1.6h-1.2v-0.5h5v0.5H12.3z
		 M15.1,37.2h-3.6v-2.6h3.6V37.2z M14.6,35h-2.7v0.7h2.7V35z M14.6,36.1h-2.7v0.7h2.7V36.1z"/>
	<path fill="#58595B" d="M18,38.6v2.3c0,0.3-0.1,0.5-0.3,0.5c-0.2,0.1-0.5,0.1-1.1,0.1c0-0.1-0.1-0.4-0.2-0.5c0.4,0,0.7,0,0.8,0
		c0.1,0,0.2,0,0.2-0.2v-2.1c-0.4,0.1-0.7,0.2-1,0.3l-0.2-0.5c0.3-0.1,0.8-0.2,1.2-0.3v-1.8h-1.1V36h1.1v-1.6H18V36h1v0.5h-1v1.6
		c0.3-0.1,0.5-0.2,0.8-0.2l0.1,0.5L18,38.6z M23,38c-0.3,1-0.9,1.7-1.6,2.3c0.6,0.4,1.3,0.7,2.2,0.9c-0.1,0.1-0.3,0.3-0.4,0.5
		c-0.9-0.2-1.6-0.6-2.3-1c-0.7,0.5-1.5,0.8-2.4,1c-0.1-0.1-0.2-0.4-0.3-0.5c0.8-0.2,1.6-0.5,2.2-0.9c-0.6-0.5-1-1.2-1.3-1.9l0,0H19
		v-0.5h3.6l0.1,0L23,38z M20.3,35.5c0,0.7-0.2,1.6-1.2,2.1c-0.1-0.1-0.3-0.3-0.3-0.4c0.9-0.5,1-1.2,1-1.8v-0.9h2.5v1.9
		c0,0.2,0,0.3,0.2,0.3h0.6c0.1,0,0.3,0,0.4,0c0,0.1,0,0.3,0,0.5c-0.1,0-0.3,0-0.4,0h-0.7c-0.5,0-0.6-0.2-0.6-0.8v-1.4h-1.5V35.5z
		 M19.8,38.4c0.3,0.6,0.7,1.2,1.3,1.6c0.6-0.4,1-1,1.3-1.6H19.8z"/>
	<path fill="#58595B" d="M26.7,36.5h-2.3v-0.4h2.3V36.5z M27.3,40.7c-0.6,0.4-1.6,0.7-2.4,1c-0.1-0.1-0.3-0.3-0.4-0.4
		c0.8-0.2,1.8-0.5,2.4-0.8L27.3,40.7z M26.5,35.3h-1.9v-0.4h1.9V35.3z M30.6,40.4h-5.1v-3.2h5.1V40.4z M30.1,37.5H26v0.6h4.1V37.5z
		 M30.1,38.5H26v0.6h4.1V38.5z M30.1,39.4H26V40h4.1V39.4z M29.3,35.4c0,0.1,0,0.2,0,0.3c0.4,0.5,1.3,0.8,2.3,0.9
		c-0.1,0.1-0.2,0.3-0.3,0.4c-0.9-0.1-1.7-0.5-2.2-1c-0.3,0.4-0.9,0.8-2.3,1c-0.1-0.1-0.2-0.3-0.3-0.4c2.1-0.3,2.3-0.9,2.3-1.3v-0.1
		H28c-0.2,0.3-0.4,0.6-0.6,0.8c-0.1-0.1-0.3-0.2-0.4-0.3c0.4-0.4,0.7-1,0.9-1.5l0.5,0.1c-0.1,0.2-0.1,0.3-0.2,0.5h2.8l0.1,0l0.4,0.1
		c-0.2,0.4-0.5,0.9-0.7,1.1L30.3,36c0.1-0.2,0.3-0.4,0.4-0.7L29.3,35.4L29.3,35.4z M29.1,40.5c0.9,0.3,1.8,0.6,2.4,0.8L31,41.6
		c-0.5-0.2-1.4-0.6-2.3-0.9L29.1,40.5z"/>
	<path fill="#58595B" d="M35.3,36.2h-2.9v-0.4h2.9V36.2z M35,41.2h-1.8v0.4h-0.4v-2.7H35V41.2z M32.7,36.8H35v0.4h-2.2V36.8z
		 M32.7,37.8H35v0.4h-2.2V37.8z M33.2,39.3v1.4h1.3v-1.4H33.2z M33.8,35.6c-0.1-0.3-0.4-0.7-0.6-1.1l0.4-0.2c0.2,0.3,0.5,0.7,0.6,1
		L33.8,35.6z M39.7,38.7h-1.9v2.9h-0.5v-2.9h-2v-0.5h2v-2.9h-1.7v-0.5h3.9v0.5h-1.7v2.9h1.9V38.7z M36.2,35.8c0.2,0.6,0.4,1.4,0.5,2
		l-0.5,0.1c0-0.5-0.2-1.4-0.4-2L36.2,35.8z M38.3,37.7c0.2-0.5,0.4-1.4,0.5-2l0.5,0.1c-0.2,0.7-0.4,1.5-0.6,2L38.3,37.7z"/>
	<path fill="#58595B" d="M42.4,34.5c-0.2,0.5-0.4,1.1-0.6,1.6v5.5h-0.5v-4.6c-0.2,0.4-0.5,0.8-0.8,1.1c0-0.1-0.2-0.4-0.3-0.5
		c0.7-0.8,1.3-2,1.7-3.3L42.4,34.5z M44.5,40.8c-0.5,0.4-1.3,0.7-2,0.8c-0.1-0.1-0.2-0.3-0.3-0.4c0.7-0.2,1.5-0.5,1.9-0.7L44.5,40.8
		z M44,35.2h-1.6v-0.4h5.1v0.4h-1.7v0.5h1.4v1.5h-4.7v-1.5H44V35.2z M42.8,40.5v-2.9h4.4v2.9H42.8z M43.1,36.9H44v-0.8h-0.9V36.9z
		 M43.3,38.4h3.4V38h-3.4V38.4z M43.3,39.3h3.4v-0.5h-3.4V39.3z M43.3,40.1h3.4v-0.5h-3.4V40.1z M45.4,35.2h-0.9v0.5h0.9V35.2z
		 M44.5,36.9h0.9v-0.8h-0.9V36.9z M45.8,40.6c0.7,0.2,1.5,0.5,1.9,0.8l-0.5,0.3c-0.4-0.2-1.1-0.6-1.8-0.8L45.8,40.6z M45.9,36.1v0.8
		h0.9v-0.8H45.9z"/>
	<path fill="#58595B" d="M50.2,40.3v1.4h-0.5v-1.4h-1.3v-0.5h1.3v-0.6h-1.1v-2.8h1.1v-0.6h-1.3v-0.5h1.3v-0.9h0.5v0.9h1.3v0.5h-1.3
		v0.6h1.1v2.8h-1.1v0.6h1.3v0.5H50.2z M49.1,37.5h0.7v-0.8h-0.7V37.5z M49.1,38.8h0.7v-0.8h-0.7V38.8z M50.9,36.7h-0.7v0.8h0.7V36.7
		z M50.9,37.9h-0.7v0.8h0.7V37.9z M54.7,37.8c-0.2,0.7-0.5,1.4-0.8,1.9c0.5,0.7,1.2,1.2,1.9,1.5c-0.1,0.1-0.3,0.3-0.4,0.4
		c-0.7-0.3-1.3-0.8-1.8-1.5c-0.5,0.6-1.1,1.1-1.9,1.5c-0.1-0.1-0.2-0.3-0.3-0.4c0.8-0.4,1.4-0.9,1.9-1.6c-0.4-0.6-0.7-1.2-0.9-1.9
		l0.5-0.1c0.2,0.5,0.4,1.1,0.7,1.6c0.3-0.5,0.5-1,0.7-1.6L54.7,37.8z M53.1,36.4c-0.3,0.6-0.8,1.3-1.2,1.8c-0.1-0.1-0.3-0.2-0.4-0.3
		c0.4-0.4,0.8-1.1,1.1-1.6L53.1,36.4z M55.5,36h-3.9v-0.5h3.9V36z M53.5,35.5c-0.1-0.3-0.3-0.7-0.5-1l0.4-0.2
		c0.2,0.3,0.4,0.7,0.5,0.9L53.5,35.5z M54.5,36.2c0.4,0.5,0.9,1.2,1.2,1.6l-0.4,0.3c-0.3-0.4-0.8-1.1-1.2-1.7L54.5,36.2z"/>
	<path fill="#58595B" d="M59.7,40c0,0.1,0,0.4,0,0.5c-2.4,0.5-2.7,0.5-2.9,0.7c0-0.1-0.1-0.3-0.2-0.5c0.1-0.1,0.4-0.2,0.4-0.5v-1.8
		c0.8-0.2,1.8-0.4,2.3-0.7l0.4,0.4c-0.6,0.2-1.4,0.4-2.2,0.6v1.7L59.7,40z M62.7,37.5h-5.4v-2.8h5.4V37.5z M62.2,35.1h-4.4v0.7h4.4
		V35.1z M62.2,36.3h-4.4V37h4.4V36.3z M63.1,40.4c0,0.3-0.1,0.4-0.3,0.5C62.6,41,62.2,41,61.6,41c0-0.1-0.1-0.3-0.2-0.5
		c0.5,0,0.9,0,1,0c0.1,0,0.2,0,0.2-0.1v-1.9h-2v3.1h-0.5V38h3V40.4z"/>
	<path fill="#58595B" d="M71.5,36.6v0.4h-7.1v-0.4h3.3v-0.5h-2.2v-1.4h2.2v-0.5h0.5v0.5h2.3v1.4h-2.3v0.5H71.5z M67.3,40.8
		c-0.7,0.4-1.7,0.7-2.5,0.9c-0.1-0.1-0.3-0.3-0.4-0.4c0.8-0.2,1.8-0.4,2.4-0.7L67.3,40.8z M70.6,40.5h-5.1v-3h5.1V40.5z M70.1,37.8
		H66v0.5h4.1V37.8z M70.1,38.7H66v0.5h4.1V38.7z M70.1,39.6H66v0.5h4.1V39.6z M67.7,35.8v-0.6H66v0.6H67.7z M68.3,35.2v0.6H70v-0.6
		H68.3z M69.1,40.6c0.9,0.2,1.8,0.6,2.4,0.8l-0.6,0.3c-0.5-0.2-1.4-0.5-2.3-0.8L69.1,40.6z"/>
	<path fill="#58595B" d="M73.2,39.1c0.6-0.3,1-0.6,1-1.2c0,0-0.1,0-0.2,0c-0.3,0-0.6-0.2-0.6-0.5c0-0.4,0.3-0.5,0.6-0.5
		c0.4,0,0.6,0.3,0.6,0.9c0,0.9-0.5,1.5-1.3,1.8L73.2,39.1z"/>
	<path fill="#58595B" d="M82.7,37c-0.4,1.3-1,2.3-1.8,3c0.7,0.5,1.6,0.9,2.6,1.1c-0.1,0.1-0.3,0.3-0.4,0.5c-1.1-0.3-1.9-0.7-2.6-1.3
		c-0.7,0.6-1.6,1-2.5,1.2c-0.1-0.1-0.2-0.4-0.3-0.5c0.9-0.2,1.7-0.6,2.4-1.1c-0.7-0.7-1.2-1.6-1.6-2.6h-0.6c0,1.3-0.2,3-1,4.2
		c-0.1-0.1-0.3-0.2-0.4-0.3c0.9-1.3,1-3,1-4.3v-2.2h5.8v0.5h-5.3v1.5h4.3l0.1,0L82.7,37z M79,37.4c0.3,0.9,0.8,1.7,1.5,2.3
		c0.7-0.6,1.2-1.4,1.5-2.3H79z"/>
	<path fill="#58595B" d="M90.9,36.2c-1,1.5-2.8,3.1-4.4,4.1c0.1,0.1,0.2,0.1,0.3,0.2c0.5,0.3,1.2,0.4,2,0.4c1,0,2.1-0.1,2.9-0.1
		c-0.1,0.1-0.1,0.4-0.2,0.6c-0.6,0-2,0.1-2.8,0.1c-1,0-1.6-0.1-2.2-0.4c-0.3-0.2-0.6-0.5-0.7-0.5c-0.3,0-0.6,0.5-1,1L84.4,41
		c0.5-0.6,1-1,1.4-1c0,0,0.1,0,0.1,0c1.5-0.8,3.1-2.3,4-3.5h-5.1V36h5.5l0.1,0L90.9,36.2z M88.2,35.9c-0.2-0.3-0.5-0.9-0.8-1.3
		l0.5-0.2c0.3,0.4,0.7,1,0.9,1.3L88.2,35.9z"/>
	<path fill="#58595B" d="M93.9,40.1c-0.3,0.6-0.7,1.2-1.1,1.6c-0.1-0.1-0.3-0.2-0.4-0.3c0.4-0.4,0.8-0.9,1.1-1.4L93.9,40.1z
		 M95.9,34.7v5h-3.1v-5H95.9z M93.3,36.2h2v-1h-2V36.2z M93.3,37.7h2v-1h-2V37.7z M93.3,39.2h2v-1.1h-2V39.2z M95.2,39.9
		c0.4,0.4,0.7,1,0.9,1.4l-0.5,0.2c-0.2-0.4-0.5-1-0.9-1.4L95.2,39.9z M97.3,35.3v4.4h-0.5v-4.4H97.3z M99.3,34.5v6.4
		c0,0.4-0.1,0.5-0.3,0.6c-0.3,0.1-0.7,0.1-1.4,0.1c0-0.1-0.1-0.4-0.2-0.5c0.6,0,1.1,0,1.2,0c0.1,0,0.2-0.1,0.2-0.2v-6.4H99.3z"/>
	<path fill="#58595B" d="M103.1,34.6c-0.2,0.6-0.5,1.1-0.9,1.6v5.4h-0.5V37c-0.4,0.5-0.7,0.9-1.1,1.2c-0.1-0.1-0.2-0.4-0.3-0.5
		c0.9-0.8,1.8-2,2.4-3.3L103.1,34.6z M105.1,37.3c0.3,2.2,0.8,3.7,1.7,3.7c0.2,0,0.4-0.5,0.5-1.4c0.1,0.1,0.3,0.2,0.4,0.3
		c-0.2,1.3-0.5,1.8-0.9,1.8c-1.3-0.1-1.9-1.8-2.3-4.3l-2,0.3l-0.1-0.5l2-0.2c-0.1-0.7-0.1-1.5-0.2-2.4h0.5c0,0.8,0.1,1.6,0.2,2.3
		l2.4-0.3l0.1,0.5L105.1,37.3z M107,36.1c-0.3-0.4-0.8-0.9-1.3-1.3l0.4-0.2c0.5,0.4,1.1,0.9,1.4,1.3L107,36.1z"/>
	<path fill="#58595B" d="M115.2,38.6c-0.5,0.4-1.1,0.8-1.6,1.1c0.6,0.5,1.2,0.9,2,1.2c-0.1,0.1-0.3,0.3-0.4,0.5
		c-1.6-0.5-2.8-1.8-3.4-3.4h0c-0.4,0.4-0.8,0.7-1.3,1.1v1.8l2-0.6c0,0.1,0,0.3,0.1,0.5c-2.2,0.7-2.5,0.8-2.7,0.9
		c0-0.1-0.1-0.4-0.2-0.5c0.1-0.1,0.3-0.2,0.3-0.5v-1.3c-0.5,0.3-1,0.5-1.4,0.7c-0.1-0.1-0.2-0.3-0.4-0.4c1-0.3,2.2-1,2.9-1.7h-2.7
		v-0.5h3.2v-0.8h-2.4v-0.4h2.4v-0.7h-2.8v-0.5h2.8v-0.7h0.5v0.7h2.9v0.5h-2.9v0.7h2.6v0.4h-2.6v0.8h3.2v0.5h-3
		c0.2,0.6,0.5,1,0.9,1.5c0.5-0.3,1.1-0.8,1.4-1.1L115.2,38.6z"/>
	<path fill="#58595B" d="M121.9,40.9c0.9,0,1-0.3,1.1-1.6c0.1,0.1,0.4,0.2,0.5,0.2c-0.1,1.5-0.4,1.9-1.7,1.9h-3
		c-1.2,0-1.6-0.2-1.6-1.2v-4h0.5v1.4h4.3v-2.2h-5.3v-0.5h5.8v3.6H122v-0.4h-4.3v2.2c0,0.5,0.2,0.6,1.1,0.6H121.9z"/>
	<path fill="#58595B" d="M125.3,37.4v4.3h-0.5v-6.9h2.9v2.6H125.3z M125.3,35.1v0.7h1.8v-0.7H125.3z M127.1,36.9v-0.7h-1.8v0.7
		H127.1z M129,39.7v1.8h-0.5v-1.8h-1.2c-0.1,0.5-0.3,1.4-1.1,1.9c-0.1-0.1-0.2-0.2-0.4-0.3c0.7-0.4,0.9-1.1,1-1.6h-1v-0.4h1v-0.9
		H126v-0.4h4v0.4H129v0.9h1.1v0.4H129z M128.6,39.2v-0.9h-1.2v0.9H128.6z M131.3,40.9c0,0.3-0.1,0.5-0.3,0.6
		c-0.2,0.1-0.6,0.1-1.2,0.1c0-0.1-0.1-0.4-0.2-0.5c0.5,0,0.9,0,1,0c0.1,0,0.2,0,0.2-0.2v-3.6h-2.4v-2.7h2.9V40.9z M128.9,35.1v0.7
		h1.9v-0.7H128.9z M130.8,36.9v-0.7h-1.9v0.7H130.8z"/>
	<path fill="#58595B" d="M135.3,39.4c0,0,0,0.2,0,0.2c-0.1,1.1-0.2,1.6-0.4,1.8c-0.1,0.1-0.3,0.2-0.5,0.2c-0.2,0-0.6,0-1.1,0
		c0-0.1-0.1-0.3-0.2-0.5c0.4,0,0.9,0,1,0c0.1,0,0.2,0,0.3-0.1c0.1-0.1,0.2-0.5,0.3-1.3h-1.9c0.1-0.5,0.2-1.2,0.3-1.7h1.6v-0.9h-1.4
		v-0.1c-0.3,0.2-0.6,0.3-0.9,0.4c-0.1-0.1-0.2-0.3-0.3-0.4c0.5-0.2,1.1-0.4,1.6-0.8c-0.2-0.2-0.6-0.5-0.9-0.7l0.3-0.3
		c0.3,0.2,0.7,0.5,1,0.7c0.3-0.3,0.6-0.6,0.8-0.9h-1.9v-0.4h2.2l0.1,0l0.3,0.2c-0.4,0.8-1,1.4-1.7,1.9h1.3v1.7h-1.7
		c0,0.3-0.1,0.6-0.1,0.9H135.3z M139.4,35.5c-0.3,0.3-0.8,0.7-1.2,0.9c0.4,0.3,0.9,0.5,1.4,0.6c-0.1,0.1-0.2,0.3-0.3,0.4
		c-0.4-0.1-0.8-0.3-1.2-0.5V38c0,0.2,0,0.2,0.1,0.2h0.6c0.1,0,0.3,0,0.4,0c0,0.1,0,0.3,0,0.4c-0.1,0-0.2,0-0.4,0h-0.7
		c-0.4,0-0.5-0.2-0.5-0.6v-0.8h-1.2v0.2c0,0.5-0.2,1.1-0.9,1.5c-0.1-0.1-0.2-0.3-0.3-0.3c0.6-0.3,0.8-0.8,0.8-1.2v-0.6h1.8
		c-0.9-0.6-1.6-1.3-2-2.2l0.4-0.1c0.2,0.4,0.4,0.7,0.6,1c0.4-0.3,0.8-0.7,1.1-0.9l0.4,0.3c-0.4,0.3-0.8,0.7-1.2,1
		c0.2,0.2,0.4,0.3,0.6,0.5c0.4-0.3,0.8-0.7,1.1-0.9L139.4,35.5z M138.8,39.2c-0.2,0.6-0.6,1.1-1.1,1.4c0.4,0.3,0.8,0.5,1.1,0.7
		l-0.3,0.4c-0.3-0.2-0.7-0.5-1.2-0.8c-0.6,0.4-1.2,0.6-1.8,0.8c0-0.1-0.2-0.3-0.2-0.4c0.6-0.1,1.2-0.4,1.7-0.7
		c-0.4-0.3-0.9-0.5-1.3-0.8l0.3-0.3c0.4,0.2,0.9,0.5,1.4,0.8c0.3-0.3,0.6-0.6,0.8-0.9h-2.5V39h2.8l0.1,0L138.8,39.2z"/>
	<path fill="#58595B" d="M147.3,34.7v6.9h-0.5v-0.4h-5.6v0.4h-0.5v-6.9H147.3z M146.8,40.8v-5.6h-5.6v5.6H146.8z M144,39.5
		c-0.8,0.2-1.7,0.3-2.4,0.5l-0.1-0.4c0.6-0.1,1.5-0.3,2.4-0.4L144,39.5z M146,37.2c-0.2,0.8-0.5,1.4-0.9,2c0.2,0.5,0.4,0.8,0.7,0.8
		c0.1,0,0.2-0.3,0.3-0.8c0.1,0.1,0.3,0.2,0.4,0.2c-0.1,0.9-0.3,1.2-0.7,1c-0.4-0.1-0.7-0.4-0.9-0.8c-0.3,0.4-0.7,0.7-1.1,1
		c-0.1-0.1-0.2-0.3-0.3-0.3c0.5-0.3,0.9-0.6,1.2-1.1c-0.2-0.6-0.4-1.5-0.4-2.4h-2.5v-0.4h2.5c0-0.3,0-0.6-0.1-0.9h0.5
		c0,0.3,0,0.6,0.1,0.9h1.8v0.4h-1.8c0.1,0.7,0.2,1.4,0.3,2c0.3-0.5,0.5-1,0.6-1.6L146,37.2z M143.7,37.3v1.6H142v-1.6H143.7z
		 M143.3,37.6h-1v0.9h1V37.6z M145.9,36.2c-0.2-0.2-0.6-0.4-0.9-0.6l0.3-0.3c0.3,0.1,0.7,0.4,0.9,0.5L145.9,36.2z"/>
	<path fill="#58595B" d="M154.8,37.6c-0.4,0.3-0.8,0.6-1.3,0.9c0.4,1.1,1.2,2,2.2,2.4c-0.1,0.1-0.3,0.3-0.4,0.4
		c-1-0.5-1.8-1.4-2.2-2.6c-0.1,0.1-0.3,0.2-0.4,0.3c0.3,1,0.1,2-0.4,2.4c-0.2,0.2-0.4,0.3-0.8,0.3c-0.2,0-0.4,0-0.7,0
		c0-0.1-0.1-0.4-0.1-0.5c0.3,0,0.6,0,0.7,0c0.2,0,0.4,0,0.5-0.2c0.3-0.2,0.4-0.8,0.3-1.5c-0.9,0.7-2.3,1.4-3.5,1.7
		c-0.1-0.1-0.2-0.3-0.3-0.5c1.3-0.3,2.8-1.1,3.6-1.8c-0.1-0.2-0.1-0.4-0.2-0.6c-0.8,0.5-2,1.1-3,1.4c-0.1-0.1-0.2-0.3-0.3-0.4
		c1-0.2,2.3-0.8,3-1.4c-0.1-0.2-0.3-0.4-0.4-0.5c-0.7,0.4-1.6,0.7-2.3,1c-0.1-0.1-0.2-0.3-0.3-0.4c1-0.3,2.1-0.7,2.9-1.2h-1.9v-0.5
		h4.6v0.5h-2c-0.2,0.2-0.4,0.3-0.6,0.4c0.4,0.4,0.7,0.8,0.8,1.3c0.6-0.4,1.3-0.9,1.8-1.4L154.8,37.6z M149.2,36.7h-0.5v-1.6h3
		c-0.1-0.2-0.2-0.4-0.3-0.6l0.5-0.2c0.1,0.2,0.3,0.5,0.4,0.8h3v1.6h-0.5v-1.1h-5.6V36.7z"/>
	<path fill="#58595B" d="M158,38.6v2.3c0,0.3-0.1,0.5-0.3,0.5c-0.2,0.1-0.5,0.1-1.1,0.1c0-0.1-0.1-0.4-0.2-0.5c0.4,0,0.7,0,0.8,0
		c0.1,0,0.2,0,0.2-0.2v-2.1c-0.4,0.1-0.7,0.2-1,0.3l-0.2-0.5c0.3-0.1,0.8-0.2,1.2-0.3v-1.8h-1.1V36h1.1v-1.6h0.5V36h1v0.5h-1v1.6
		c0.3-0.1,0.5-0.2,0.8-0.2l0.1,0.5L158,38.6z M163,38c-0.3,1-0.9,1.7-1.6,2.3c0.6,0.4,1.3,0.7,2.2,0.9c-0.1,0.1-0.3,0.3-0.4,0.5
		c-0.9-0.2-1.6-0.6-2.3-1c-0.7,0.5-1.5,0.8-2.4,1c-0.1-0.1-0.2-0.4-0.3-0.5c0.8-0.2,1.6-0.5,2.2-0.9c-0.6-0.5-1-1.2-1.3-1.9l0,0H159
		v-0.5h3.6l0.1,0L163,38z M160.3,35.5c0,0.7-0.2,1.6-1.2,2.1c-0.1-0.1-0.3-0.3-0.3-0.4c0.9-0.5,1-1.2,1-1.8v-0.9h2.5v1.9
		c0,0.2,0,0.3,0.2,0.3h0.6c0.1,0,0.3,0,0.4,0c0,0.1,0,0.3,0,0.5c-0.1,0-0.3,0-0.4,0h-0.7c-0.5,0-0.6-0.2-0.6-0.8v-1.4h-1.5V35.5z
		 M159.8,38.4c0.3,0.6,0.7,1.2,1.3,1.6c0.6-0.4,1-1,1.3-1.6H159.8z"/>
	<path fill="#58595B" d="M166.7,36.5h-2.3v-0.4h2.3V36.5z M167.3,40.7c-0.6,0.4-1.6,0.7-2.4,1c-0.1-0.1-0.3-0.3-0.4-0.4
		c0.8-0.2,1.8-0.5,2.4-0.8L167.3,40.7z M166.5,35.3h-1.9v-0.4h1.9V35.3z M170.6,40.4h-5.1v-3.2h5.1V40.4z M170.1,37.5H166v0.6h4.1
		V37.5z M170.1,38.5H166v0.6h4.1V38.5z M170.1,39.4H166V40h4.1V39.4z M169.3,35.4c0,0.1,0,0.2,0,0.3c0.4,0.5,1.3,0.8,2.3,0.9
		c-0.1,0.1-0.2,0.3-0.3,0.4c-0.9-0.1-1.7-0.5-2.2-1c-0.3,0.4-0.9,0.8-2.3,1c-0.1-0.1-0.2-0.3-0.3-0.4c2.1-0.3,2.3-0.9,2.3-1.3v-0.1
		H168c-0.2,0.3-0.4,0.6-0.6,0.8c-0.1-0.1-0.3-0.2-0.4-0.3c0.4-0.4,0.7-1,0.9-1.5l0.5,0.1c-0.1,0.2-0.1,0.3-0.2,0.5h2.8l0.1,0
		l0.4,0.1c-0.2,0.4-0.5,0.9-0.7,1.1l-0.4-0.2c0.1-0.2,0.3-0.4,0.4-0.7L169.3,35.4L169.3,35.4z M169.1,40.5c0.9,0.3,1.8,0.6,2.4,0.8
		l-0.5,0.3c-0.5-0.2-1.4-0.6-2.3-0.9L169.1,40.5z"/>
	<path fill="#58595B" d="M175.3,36.2h-2.9v-0.4h2.9V36.2z M175,41.2h-1.8v0.4h-0.4v-2.7h2.2V41.2z M172.7,36.8h2.2v0.4h-2.2V36.8z
		 M172.7,37.8h2.2v0.4h-2.2V37.8z M173.2,39.3v1.4h1.3v-1.4H173.2z M173.8,35.6c-0.1-0.3-0.4-0.7-0.6-1.1l0.4-0.2
		c0.2,0.3,0.5,0.7,0.6,1L173.8,35.6z M179.7,38.7h-1.9v2.9h-0.5v-2.9h-2v-0.5h2v-2.9h-1.7v-0.5h3.9v0.5h-1.7v2.9h1.9V38.7z
		 M176.2,35.8c0.2,0.6,0.4,1.4,0.5,2l-0.5,0.1c0-0.5-0.2-1.4-0.4-2L176.2,35.8z M178.3,37.7c0.2-0.5,0.4-1.4,0.5-2l0.5,0.1
		c-0.2,0.7-0.4,1.5-0.6,2L178.3,37.7z"/>
	<path fill="#58595B" d="M182.4,34.5c-0.2,0.5-0.4,1.1-0.6,1.6v5.5h-0.5v-4.6c-0.2,0.4-0.5,0.8-0.8,1.1c0-0.1-0.2-0.4-0.3-0.5
		c0.7-0.8,1.3-2,1.7-3.3L182.4,34.5z M184.5,40.8c-0.5,0.4-1.3,0.7-2,0.8c-0.1-0.1-0.2-0.3-0.3-0.4c0.7-0.2,1.5-0.5,1.9-0.7
		L184.5,40.8z M184,35.2h-1.6v-0.4h5.1v0.4h-1.7v0.5h1.4v1.5h-4.7v-1.5h1.4V35.2z M182.8,40.5v-2.9h4.4v2.9H182.8z M183.1,36.9h0.9
		v-0.8h-0.9V36.9z M183.3,38.4h3.4V38h-3.4V38.4z M183.3,39.3h3.4v-0.5h-3.4V39.3z M183.3,40.1h3.4v-0.5h-3.4V40.1z M185.4,35.2
		h-0.9v0.5h0.9V35.2z M184.5,36.9h0.9v-0.8h-0.9V36.9z M185.8,40.6c0.7,0.2,1.5,0.5,1.9,0.8l-0.5,0.3c-0.4-0.2-1.1-0.6-1.8-0.8
		L185.8,40.6z M185.9,36.1v0.8h0.9v-0.8H185.9z"/>
	<path fill="#58595B" d="M190.2,40.3v1.4h-0.5v-1.4h-1.3v-0.5h1.3v-0.6h-1.1v-2.8h1.1v-0.6h-1.3v-0.5h1.3v-0.9h0.5v0.9h1.3v0.5h-1.3
		v0.6h1.1v2.8h-1.1v0.6h1.3v0.5H190.2z M189.1,37.5h0.7v-0.8h-0.7V37.5z M189.1,38.8h0.7v-0.8h-0.7V38.8z M190.9,36.7h-0.7v0.8h0.7
		V36.7z M190.9,37.9h-0.7v0.8h0.7V37.9z M194.7,37.8c-0.2,0.7-0.5,1.4-0.8,1.9c0.5,0.7,1.2,1.2,1.9,1.5c-0.1,0.1-0.3,0.3-0.4,0.4
		c-0.7-0.3-1.3-0.8-1.8-1.5c-0.5,0.6-1.1,1.1-1.9,1.5c-0.1-0.1-0.2-0.3-0.3-0.4c0.8-0.4,1.4-0.9,1.9-1.6c-0.4-0.6-0.7-1.2-0.9-1.9
		l0.5-0.1c0.2,0.5,0.4,1.1,0.7,1.6c0.3-0.5,0.5-1,0.7-1.6L194.7,37.8z M193.1,36.4c-0.3,0.6-0.8,1.3-1.2,1.8
		c-0.1-0.1-0.3-0.2-0.4-0.3c0.4-0.4,0.8-1.1,1.1-1.6L193.1,36.4z M195.5,36h-3.9v-0.5h3.9V36z M193.5,35.5c-0.1-0.3-0.3-0.7-0.5-1
		l0.4-0.2c0.2,0.3,0.4,0.7,0.5,0.9L193.5,35.5z M194.5,36.2c0.4,0.5,0.9,1.2,1.2,1.6l-0.4,0.3c-0.3-0.4-0.8-1.1-1.2-1.7L194.5,36.2z
		"/>
	<path fill="#58595B" d="M199.7,40c0,0.1,0,0.4,0,0.5c-2.4,0.5-2.7,0.5-2.9,0.7c0-0.1-0.1-0.3-0.2-0.5c0.1-0.1,0.4-0.2,0.4-0.5v-1.8
		c0.8-0.2,1.8-0.4,2.3-0.7l0.4,0.4c-0.6,0.2-1.4,0.4-2.2,0.6v1.7L199.7,40z M202.7,37.5h-5.4v-2.8h5.4V37.5z M202.2,35.1h-4.4v0.7
		h4.4V35.1z M202.2,36.3h-4.4V37h4.4V36.3z M203.1,40.4c0,0.3-0.1,0.4-0.3,0.5c-0.2,0.1-0.6,0.1-1.2,0.1c0-0.1-0.1-0.3-0.2-0.5
		c0.5,0,0.9,0,1,0c0.1,0,0.2,0,0.2-0.1v-1.9h-2v3.1h-0.5V38h3V40.4z"/>
	<path fill="#58595B" d="M211.5,36.6v0.4h-7.1v-0.4h3.3v-0.5h-2.2v-1.4h2.2v-0.5h0.5v0.5h2.3v1.4h-2.3v0.5H211.5z M207.3,40.8
		c-0.7,0.4-1.7,0.7-2.5,0.9c-0.1-0.1-0.3-0.3-0.4-0.4c0.8-0.2,1.8-0.4,2.4-0.7L207.3,40.8z M210.6,40.5h-5.1v-3h5.1V40.5z
		 M210.1,37.8H206v0.5h4.1V37.8z M210.1,38.7H206v0.5h4.1V38.7z M210.1,39.6H206v0.5h4.1V39.6z M207.7,35.8v-0.6H206v0.6H207.7z
		 M208.3,35.2v0.6h1.8v-0.6H208.3z M209.1,40.6c0.9,0.2,1.8,0.6,2.4,0.8l-0.6,0.3c-0.5-0.2-1.4-0.5-2.3-0.8L209.1,40.6z"/>
	<path fill="#58595B" d="M214,36.8c0.7,0,1.2,0.5,1.2,1.2c0,0.7-0.5,1.2-1.2,1.2c-0.7,0-1.2-0.5-1.2-1.2
		C212.8,37.3,213.4,36.8,214,36.8z M214,38.8c0.5,0,0.8-0.4,0.8-0.8c0-0.5-0.4-0.8-0.8-0.8c-0.5,0-0.8,0.4-0.8,0.8
		C213.2,38.5,213.6,38.8,214,38.8z"/>
</g>
<g>
</g>
<g>
</g>
<g>
</g>
<g>
</g>
<g>
</g>
<g>
</g>
<g>
</g>
<g>
</g>
<g>
</g>
<g>
</g>
<g>
</g>
<g>
</g>
<g>
</g>
<g>
</g>
<g>
</g>
</svg>
