<?xml version="1.0" encoding="utf-8"?>
<!-- Generator: Adobe Illustrator 18.0.0, SVG Export Plug-In . SVG Version: 6.00 Build 0)  -->
<!DOCTYPE svg PUBLIC "-//W3C//DTD SVG 1.1//EN" "http://www.w3.org/Graphics/SVG/1.1/DTD/svg11.dtd">
<svg version="1.1" id="Layer_1" xmlns="http://www.w3.org/2000/svg" xmlns:xlink="http://www.w3.org/1999/xlink" x="0px" y="0px"
	 viewBox="0 0 216.3 179" enable-background="new 0 0 216.3 179" xml:space="preserve">
<g>
	<g>
		<circle fill="#007A6D" cx="29.1" cy="29.1" r="29.1"/>
		<g>
			<path fill="#FFFFFF" d="M23.9,27.1l9-8H18.1v-5.3h22.6v5l-8.9,7.7c4.9,0.1,9.8,3.6,9.8,9.9c0,5.6-4.5,10.7-12.2,10.7
				c-7.5,0-12-4.9-12.4-10.3l5.9-1.2c0.2,3.8,2.9,6.3,6.5,6.3c4,0,6.2-2.6,6.2-5.5c0-3.8-3-5.4-5.8-5.4c-1.6,0-2.6,0.3-3.1,0.6
				L23.9,27.1z"/>
		</g>
	</g>
	<g>
		<polygon fill="#2368B5" points="66.4,179 54.9,98.8 47.5,136.1 44.1,135.4 55.5,78.5 65.4,147.7 68.3,110.9 77.3,133.2 95,59.9 
			103.3,146.8 114.7,105.6 119,129.2 128.5,76 143.2,154.5 159.8,104 163.7,127.8 184.5,93.9 199.9,139.3 196.6,140.4 183.6,101.9 
			161.8,137.5 158.7,118.4 142.2,168.2 128.6,95.2 119.1,148.5 114,120.9 101.7,165.7 93.5,80.6 78.1,144.4 70.6,125.8 		"/>
		<g>
			<path fill="#2368B5" d="M31.6,130.3h-1.1c-0.9,0-1.7-0.8-1.7-1.7c0-0.9,0.8-1.7,1.7-1.7h1.1c0.9,0,1.7,0.8,1.7,1.7
				C33.3,129.5,32.5,130.3,31.6,130.3z"/>
			<path fill="#2368B5" d="M201.7,130.3h-2.4c-0.9,0-1.7-0.8-1.7-1.7c0-0.9,0.8-1.7,1.7-1.7h2.4c0.9,0,1.7,0.8,1.7,1.7
				C203.4,129.5,202.6,130.3,201.7,130.3z M187.5,130.3h-2.4c-0.9,0-1.7-0.8-1.7-1.7c0-0.9,0.8-1.7,1.7-1.7h2.4
				c0.9,0,1.7,0.8,1.7,1.7C189.2,129.5,188.4,130.3,187.5,130.3z M173.3,130.3H171c-0.9,0-1.7-0.8-1.7-1.7c0-0.9,0.8-1.7,1.7-1.7
				h2.4c0.9,0,1.7,0.8,1.7,1.7C175,129.5,174.3,130.3,173.3,130.3z M159.1,130.3h-2.4c-0.9,0-1.7-0.8-1.7-1.7c0-0.9,0.8-1.7,1.7-1.7
				h2.4c0.9,0,1.7,0.8,1.7,1.7C160.9,129.5,160.1,130.3,159.1,130.3z M145,130.3h-2.4c-0.9,0-1.7-0.8-1.7-1.7c0-0.9,0.8-1.7,1.7-1.7
				h2.4c0.9,0,1.7,0.8,1.7,1.7C146.7,129.5,145.9,130.3,145,130.3z M130.8,130.3h-2.4c-0.9,0-1.7-0.8-1.7-1.7c0-0.9,0.8-1.7,1.7-1.7
				h2.4c0.9,0,1.7,0.8,1.7,1.7C132.5,129.5,131.7,130.3,130.8,130.3z M116.6,130.3h-2.4c-0.9,0-1.7-0.8-1.7-1.7
				c0-0.9,0.8-1.7,1.7-1.7h2.4c0.9,0,1.7,0.8,1.7,1.7C118.3,129.5,117.6,130.3,116.6,130.3z M102.4,130.3h-2.4
				c-0.9,0-1.7-0.8-1.7-1.7c0-0.9,0.8-1.7,1.7-1.7h2.4c0.9,0,1.7,0.8,1.7,1.7C104.2,129.5,103.4,130.3,102.4,130.3z M88.3,130.3
				h-2.4c-0.9,0-1.7-0.8-1.7-1.7c0-0.9,0.8-1.7,1.7-1.7h2.4c0.9,0,1.7,0.8,1.7,1.7C90,129.5,89.2,130.3,88.3,130.3z M74.1,130.3
				h-2.4c-0.9,0-1.7-0.8-1.7-1.7c0-0.9,0.8-1.7,1.7-1.7h2.4c0.9,0,1.7,0.8,1.7,1.7C75.8,129.5,75,130.3,74.1,130.3z M59.9,130.3
				h-2.4c-0.9,0-1.7-0.8-1.7-1.7c0-0.9,0.8-1.7,1.7-1.7h2.4c0.9,0,1.7,0.8,1.7,1.7C61.6,129.5,60.9,130.3,59.9,130.3z M45.7,130.3
				h-2.4c-0.9,0-1.7-0.8-1.7-1.7c0-0.9,0.8-1.7,1.7-1.7h2.4c0.9,0,1.7,0.8,1.7,1.7C47.5,129.5,46.7,130.3,45.7,130.3z"/>
			<path fill="#2368B5" d="M214.6,130.3h-1.1c-0.9,0-1.7-0.8-1.7-1.7c0-0.9,0.8-1.7,1.7-1.7h1.1c0.9,0,1.7,0.8,1.7,1.7
				C216.3,129.5,215.6,130.3,214.6,130.3z"/>
		</g>
	</g>
</g>
<g>
</g>
<g>
</g>
<g>
</g>
<g>
</g>
<g>
</g>
<g>
</g>
<g>
</g>
<g>
</g>
<g>
</g>
<g>
</g>
<g>
</g>
<g>
</g>
<g>
</g>
<g>
</g>
<g>
</g>
</svg>
