<?xml version="1.0" encoding="utf-8"?>
<!-- Generator: Adobe Illustrator 18.0.0, SVG Export Plug-In . SVG Version: 6.00 Build 0)  -->
<!DOCTYPE svg PUBLIC "-//W3C//DTD SVG 1.1//EN" "http://www.w3.org/Graphics/SVG/1.1/DTD/svg11.dtd">
<svg version="1.1" id="Layer_1" xmlns="http://www.w3.org/2000/svg" xmlns:xlink="http://www.w3.org/1999/xlink" x="0px" y="0px"
	 viewBox="0 0 807.1 470.5" enable-background="new 0 0 807.1 470.5" xml:space="preserve">
<g>
	<g>
		<g>
			<path fill="#A7A9AC" d="M68.9,447.9h-4v-0.8h4V447.9z M70,455.1c-1.1,0.7-2.9,1.3-4.3,1.7c-0.2-0.2-0.5-0.6-0.8-0.8
				c1.4-0.3,3.1-0.8,4.1-1.3L70,455.1z M68.5,445.7h-3.3v-0.8h3.3V445.7z M66.7,449h9.1v5.6h-9.1V449z M67.7,450.7h7v-1h-7V450.7z
				 M67.7,452.3h7v-1h-7V452.3z M67.7,453.9h7v-1h-7V453.9z M71.1,445.8c-0.3,0.5-0.7,1-1.1,1.4c-0.2-0.2-0.6-0.4-0.8-0.5
				c0.7-0.7,1.3-1.6,1.6-2.7l0.9,0.2c-0.1,0.3-0.2,0.5-0.3,0.8h4.7l0.2,0l0.7,0.2c-0.4,0.7-0.8,1.5-1.2,2l-0.8-0.3
				c0.2-0.3,0.5-0.7,0.7-1.1h-2.2v0.2c0,0.1,0,0.3,0,0.5c0.7,0.8,2.3,1.4,4.1,1.5c-0.2,0.2-0.5,0.6-0.6,0.8
				c-1.6-0.2-2.9-0.8-3.8-1.6c-0.5,0.7-1.6,1.3-4,1.7c-0.1-0.2-0.4-0.6-0.6-0.8c3.6-0.5,4-1.4,4-2.2v-0.1H71.1z M73.2,454.7
				c1.5,0.5,3.1,1.1,4.1,1.5l-0.9,0.6c-0.9-0.4-2.4-1-3.9-1.6L73.2,454.7z"/>
			<path fill="#A7A9AC" d="M81.2,450.8c-0.3,1.6-0.9,3.5-1.6,4.5c-0.1-0.4-0.4-0.8-0.5-1.1c0.6-0.8,1.2-2.4,1.4-3.6L81.2,450.8z
				 M82.4,449.7v7.1h-1v-7.1h-2.2v-1h2.2v-4.7h1v4.7h2.3v1H82.4z M80.1,448.3c-0.1-0.8-0.4-2.1-0.8-3.1l0.8-0.2
				c0.4,1,0.7,2.2,0.8,3.1L80.1,448.3z M83.1,450.6c0.3,0.4,1.3,2.3,1.5,2.8l-0.7,0.8c-0.3-0.8-1-2.5-1.3-3.2L83.1,450.6z
				 M84.7,445.1c-0.3,1.1-0.8,2.4-1.1,3.1l-0.7-0.2c0.3-0.8,0.7-2.2,0.9-3.1L84.7,445.1z M90.2,452.9v3.9h-1v-3.8l-4.3,0.8l-0.2-1
				l4.5-0.8v-8h1v7.9l1.7-0.3l0.2,1L90.2,452.9z M87.3,451c-0.5-0.5-1.5-1.2-2.3-1.7l0.5-0.7c0.8,0.4,1.8,1.1,2.3,1.6L87.3,451z
				 M87.9,447.6c-0.4-0.5-1.4-1.3-2.2-1.8l0.5-0.7c0.8,0.5,1.8,1.2,2.2,1.7L87.9,447.6z"/>
			<path fill="#A7A9AC" d="M100.4,450.4c1.2,2.1,3.6,4.1,6,5c-0.3,0.2-0.6,0.6-0.8,0.9c-1.9-0.9-3.8-2.4-5.2-4.2v4.8h-1.1v-4.8
				c-1.4,1.8-3.3,3.3-5.1,4.2c-0.2-0.3-0.5-0.7-0.7-0.9c2.3-0.9,4.6-2.9,5.9-4.9V447h-5.4v-1h5.4v-1.9h1.1v1.9h5.6v1h-5.6V450.4z
				 M97.4,447.5c-0.1,0.6-0.3,1.1-0.5,1.7c0.6,0.5,1.2,1.1,1.6,1.5l-0.7,0.7c-0.3-0.3-0.8-0.9-1.3-1.4c-0.5,0.9-1.1,1.6-1.8,2.2
				c-0.2-0.2-0.6-0.5-0.8-0.7c1.3-1,2.1-2.5,2.5-4.3L97.4,447.5z M103.9,447.5c-0.1,0.6-0.3,1.1-0.5,1.7c0.9,0.7,2,1.6,2.5,2.2
				l-0.7,0.7c-0.5-0.5-1.4-1.3-2.2-2c-0.4,0.6-0.8,1.2-1.2,1.7c-0.2-0.2-0.6-0.4-0.9-0.6c1-0.9,1.7-2.2,2-3.8L103.9,447.5z"/>
			<path fill="#A7A9AC" d="M110.1,450.2c-0.5-0.4-1.6-1.1-2.4-1.5l0.6-0.7c0.8,0.4,1.8,1,2.4,1.4L110.1,450.2z M111,452.2
				c-0.6,1.5-1.4,3.2-2,4.5l-0.9-0.6c0.6-1.1,1.5-2.9,2.1-4.5L111,452.2z M110.8,446.5c-0.5-0.4-1.6-1.1-2.3-1.6l0.6-0.7
				c0.8,0.4,1.8,1.1,2.3,1.5L110.8,446.5z M113,448.6c0,2.4-0.2,5.9-1.9,8.2c-0.2-0.2-0.6-0.4-0.9-0.5c1.6-2.2,1.7-5.4,1.7-7.7v-3.8
				h8.5v1H113V448.6z M115.2,453.2c-0.5,1-1.2,2.1-1.8,2.9c-0.2-0.2-0.6-0.4-0.8-0.5c0.6-0.7,1.3-1.7,1.7-2.6L115.2,453.2z
				 M117.3,452.1v3.7c0,0.5-0.1,0.8-0.5,0.9c-0.4,0.2-1,0.2-1.9,0.1c0-0.3-0.2-0.6-0.3-0.9c0.7,0,1.3,0,1.4,0c0.2,0,0.2-0.1,0.2-0.2
				v-3.6h-2.5v-4.8h2.1c0.2-0.4,0.3-1,0.4-1.4l1.2,0.2c-0.2,0.4-0.4,0.8-0.6,1.2h3.1v4.8H117.3z M114.7,449.3h4.3v-1.2h-4.3V449.3z
				 M114.7,451.3h4.3v-1.2h-4.3V451.3z M119.1,452.8c0.5,0.9,1.2,2,1.6,2.7l-1,0.4c-0.3-0.7-1-1.9-1.5-2.7L119.1,452.8z"/>
			<path fill="#A7A9AC" d="M124,447.1c0-0.6,0.5-1.1,1.1-1.1c0.6,0,1.1,0.4,1.1,1.1s-0.5,1.1-1.1,1.1
				C124.5,448.2,124,447.8,124,447.1z M124,454c0-0.6,0.5-1.1,1.1-1.1c0.6,0,1.1,0.4,1.1,1.1c0,0.6-0.5,1-1.1,1
				C124.5,455,124,454.6,124,454z"/>
			<path fill="#A7A9AC" d="M132.5,446.6h-3.1v-1.1h7.5v1.1h-3.1v9.2h-1.3V446.6z"/>
			<path fill="#A7A9AC" d="M138.9,444.6h1.3v3.1l0,1.6c0.7-0.7,1.5-1.3,2.5-1.3c1.6,0,2.3,1,2.3,3v4.8h-1.3v-4.7c0-1.4-0.4-2-1.4-2
				c-0.8,0-1.3,0.4-2.1,1.2v5.5h-1.3V444.6z"/>
			<path fill="#A7A9AC" d="M147.2,452c0-2.5,1.7-4,3.5-4c1.9,0,3.5,1.5,3.5,4c0,2.5-1.7,4-3.5,4C148.9,456,147.2,454.5,147.2,452z
				 M153,452c0-1.8-0.9-2.9-2.2-2.9c-1.3,0-2.2,1.2-2.2,2.9c0,1.8,0.9,2.9,2.2,2.9C152.1,454.9,153,453.7,153,452z"/>
			<path fill="#A7A9AC" d="M156.6,448.2h1.1l0.1,1.1h0c0.7-0.7,1.5-1.3,2.4-1.3c1.2,0,1.8,0.6,2.1,1.5c0.8-0.9,1.6-1.5,2.5-1.5
				c1.6,0,2.3,1,2.3,3v4.8h-1.3v-4.7c0-1.4-0.4-2-1.4-2c-0.6,0-1.2,0.4-1.9,1.2v5.5h-1.3v-4.7c0-1.4-0.4-2-1.4-2
				c-0.6,0-1.2,0.4-1.9,1.2v5.5h-1.3V448.2z"/>
			<path fill="#A7A9AC" d="M169.1,454.9l0.6-0.8c0.7,0.5,1.3,0.9,2.3,0.9c1,0,1.5-0.5,1.5-1.2c0-0.8-0.9-1.1-1.7-1.4
				c-1.1-0.4-2.3-0.9-2.3-2.2c0-1.2,1-2.2,2.6-2.2c0.9,0,1.8,0.4,2.4,0.9l-0.6,0.8c-0.5-0.4-1.1-0.7-1.8-0.7c-1,0-1.4,0.5-1.4,1.1
				c0,0.7,0.8,1,1.7,1.3c1.1,0.4,2.3,0.9,2.3,2.3c0,1.2-1,2.3-2.8,2.3C170.8,456,169.8,455.5,169.1,454.9z"/>
			<path fill="#A7A9AC" d="M176.3,452c0-2.5,1.7-4,3.5-4c1.9,0,3.5,1.5,3.5,4c0,2.5-1.7,4-3.5,4C177.9,456,176.3,454.5,176.3,452z
				 M182,452c0-1.8-0.9-2.9-2.2-2.9c-1.3,0-2.2,1.2-2.2,2.9c0,1.8,0.9,2.9,2.2,2.9C181.1,454.9,182,453.7,182,452z"/>
			<path fill="#A7A9AC" d="M185.7,448.2h1.1l0.1,1.1h0c0.7-0.7,1.5-1.3,2.5-1.3c1.6,0,2.3,1,2.3,3v4.8h-1.3v-4.7c0-1.4-0.4-2-1.4-2
				c-0.8,0-1.3,0.4-2.1,1.2v5.5h-1.3V448.2z"/>
			<path fill="#A7A9AC" d="M198.2,445.5h2.6c3.2,0,4.8,1.8,4.8,5.1c0,3.3-1.7,5.2-4.8,5.2h-2.6V445.5z M200.6,454.7
				c2.4,0,3.6-1.5,3.6-4.1c0-2.6-1.2-4-3.6-4h-1.2v8.2H200.6z"/>
			<path fill="#A7A9AC" d="M207.6,453.8c0-1.7,1.4-2.5,4.7-2.8c0-1-0.3-1.9-1.6-1.9c-0.9,0-1.7,0.4-2.3,0.8l-0.5-0.9
				c0.7-0.4,1.8-1,3-1c1.8,0,2.6,1.2,2.6,3.1v4.7h-1.1l-0.1-0.9h0c-0.7,0.6-1.6,1.1-2.5,1.1C208.5,456,207.6,455.2,207.6,453.8z
				 M212.2,453.9v-2.1c-2.6,0.3-3.4,0.9-3.4,1.9c0,0.9,0.6,1.2,1.3,1.2C210.9,455,211.5,454.6,212.2,453.9z"/>
			<path fill="#A7A9AC" d="M216.3,453.4v-4.2h-1.1v-1l1.2-0.1l0.2-2.1h1.1v2.1h2.1v1h-2.1v4.2c0,0.9,0.3,1.5,1.2,1.5
				c0.3,0,0.6-0.1,0.9-0.2l0.3,1c-0.4,0.1-0.9,0.3-1.4,0.3C216.8,456,216.3,455,216.3,453.4z"/>
			<path fill="#A7A9AC" d="M220.9,453.8c0-1.7,1.4-2.5,4.7-2.8c0-1-0.3-1.9-1.6-1.9c-0.9,0-1.7,0.4-2.3,0.8l-0.5-0.9
				c0.7-0.4,1.8-1,3-1c1.8,0,2.6,1.2,2.6,3.1v4.7h-1.1l-0.1-0.9h0c-0.7,0.6-1.6,1.1-2.5,1.1C221.8,456,220.9,455.2,220.9,453.8z
				 M225.6,453.9v-2.1c-2.6,0.3-3.4,0.9-3.4,1.9c0,0.9,0.6,1.2,1.3,1.2C224.2,455,224.8,454.6,225.6,453.9z"/>
			<path fill="#A7A9AC" d="M228.7,454.9l0.6-0.8c0.7,0.5,1.3,0.9,2.3,0.9c1,0,1.5-0.5,1.5-1.2c0-0.8-0.9-1.1-1.7-1.4
				c-1.1-0.4-2.3-0.9-2.3-2.2c0-1.2,1-2.2,2.6-2.2c0.9,0,1.8,0.4,2.4,0.9l-0.6,0.8c-0.5-0.4-1.1-0.7-1.8-0.7c-1,0-1.4,0.5-1.4,1.1
				c0,0.7,0.8,1,1.7,1.3c1.1,0.4,2.3,0.9,2.3,2.3c0,1.2-1,2.3-2.8,2.3C230.5,456,229.5,455.5,228.7,454.9z"/>
			<path fill="#A7A9AC" d="M236.4,453.4v-4.2h-1.1v-1l1.2-0.1l0.2-2.1h1.1v2.1h2.1v1h-2.1v4.2c0,0.9,0.3,1.5,1.2,1.5
				c0.3,0,0.6-0.1,0.9-0.2l0.3,1c-0.4,0.1-0.9,0.3-1.4,0.3C237,456,236.4,455,236.4,453.4z"/>
			<path fill="#A7A9AC" d="M241.8,448.2h1.1l0.1,1.4h0c0.5-1,1.3-1.6,2.2-1.6c0.3,0,0.6,0,0.8,0.2l-0.2,1.1
				c-0.3-0.1-0.4-0.1-0.7-0.1c-0.6,0-1.4,0.4-1.9,1.8v4.9h-1.3V448.2z"/>
			<path fill="#A7A9AC" d="M246.9,452c0-2.5,1.7-4,3.4-4c1.9,0,3,1.4,3,3.6c0,0.3,0,0.5-0.1,0.7h-5.1c0.1,1.6,1.1,2.7,2.5,2.7
				c0.7,0,1.3-0.2,1.9-0.6l0.5,0.8c-0.7,0.4-1.5,0.8-2.5,0.8C248.5,456,246.9,454.5,246.9,452z M252.2,451.4c0-1.5-0.7-2.4-1.9-2.4
				c-1.1,0-2,0.9-2.2,2.4H252.2z"/>
			<path fill="#A7A9AC" d="M254.9,453.8c0-1.7,1.4-2.5,4.7-2.8c0-1-0.3-1.9-1.6-1.9c-0.9,0-1.7,0.4-2.3,0.8l-0.5-0.9
				c0.7-0.4,1.8-1,3-1c1.8,0,2.6,1.2,2.6,3.1v4.7h-1.1l-0.1-0.9h0c-0.7,0.6-1.6,1.1-2.5,1.1C255.8,456,254.9,455.2,254.9,453.8z
				 M259.5,453.9v-2.1c-2.6,0.3-3.4,0.9-3.4,1.9c0,0.9,0.6,1.2,1.3,1.2C258.2,455,258.8,454.6,259.5,453.9z"/>
			<path fill="#A7A9AC" d="M263.6,448.2h1.1l0.1,1.1h0c0.7-0.7,1.5-1.3,2.4-1.3c1.2,0,1.8,0.6,2.1,1.5c0.8-0.9,1.6-1.5,2.5-1.5
				c1.6,0,2.3,1,2.3,3v4.8h-1.3v-4.7c0-1.4-0.4-2-1.4-2c-0.6,0-1.2,0.4-1.9,1.2v5.5h-1.3v-4.7c0-1.4-0.4-2-1.4-2
				c-0.6,0-1.2,0.4-1.9,1.2v5.5h-1.3V448.2z"/>
			<path fill="#A7A9AC" d="M279.2,448.4c1.2,0,2.1,1,2.1,2.1c0,1.2-1,2.1-2.1,2.1c-1.2,0-2.1-1-2.1-2.1
				C277,449.3,278,448.4,279.2,448.4z M279.2,451.9c0.8,0,1.4-0.6,1.4-1.4c0-0.8-0.6-1.4-1.4-1.4c-0.8,0-1.4,0.6-1.4,1.4
				C277.7,451.3,278.4,451.9,279.2,451.9z"/>
			<path fill="#A7A9AC" d="M287.7,447.9h-4v-0.8h4V447.9z M288.8,455.1c-1.1,0.7-2.9,1.3-4.3,1.7c-0.2-0.2-0.5-0.6-0.8-0.8
				c1.4-0.3,3.1-0.8,4.1-1.3L288.8,455.1z M287.3,445.7H284v-0.8h3.3V445.7z M285.5,449h9.1v5.6h-9.1V449z M286.5,450.7h7v-1h-7
				V450.7z M286.5,452.3h7v-1h-7V452.3z M286.5,453.9h7v-1h-7V453.9z M289.9,445.8c-0.3,0.5-0.7,1-1.1,1.4c-0.2-0.2-0.6-0.4-0.8-0.5
				c0.7-0.7,1.3-1.6,1.6-2.7l0.9,0.2c-0.1,0.3-0.2,0.5-0.3,0.8h4.7l0.2,0l0.7,0.2c-0.4,0.7-0.8,1.5-1.2,2l-0.8-0.3
				c0.2-0.3,0.5-0.7,0.7-1.1h-2.2v0.2c0,0.1,0,0.3,0,0.5c0.7,0.8,2.3,1.4,4.1,1.5c-0.2,0.2-0.5,0.6-0.6,0.8
				c-1.6-0.2-2.9-0.8-3.8-1.6c-0.5,0.7-1.6,1.3-4,1.7c-0.1-0.2-0.4-0.6-0.6-0.8c3.6-0.5,4-1.4,4-2.2v-0.1H289.9z M292,454.7
				c1.5,0.5,3.1,1.1,4.1,1.5l-0.9,0.6c-0.9-0.4-2.4-1-3.9-1.6L292,454.7z"/>
			<path fill="#A7A9AC" d="M300,450.8c-0.3,1.6-0.9,3.5-1.6,4.5c-0.1-0.4-0.4-0.8-0.5-1.1c0.6-0.8,1.2-2.4,1.4-3.6L300,450.8z
				 M301.2,449.7v7.1h-1v-7.1H298v-1h2.2v-4.7h1v4.7h2.3v1H301.2z M298.9,448.3c-0.1-0.8-0.4-2.1-0.8-3.1l0.8-0.2
				c0.4,1,0.7,2.2,0.8,3.1L298.9,448.3z M301.9,450.6c0.3,0.4,1.3,2.3,1.5,2.8l-0.7,0.8c-0.3-0.8-1-2.5-1.3-3.2L301.9,450.6z
				 M303.5,445.1c-0.3,1.1-0.8,2.4-1.1,3.1l-0.7-0.2c0.3-0.8,0.7-2.2,0.9-3.1L303.5,445.1z M309,452.9v3.9h-1v-3.8l-4.3,0.8l-0.2-1
				l4.5-0.8v-8h1v7.9l1.7-0.3l0.2,1L309,452.9z M306.1,451c-0.5-0.5-1.5-1.2-2.3-1.7l0.5-0.7c0.8,0.4,1.8,1.1,2.3,1.6L306.1,451z
				 M306.7,447.6c-0.4-0.5-1.4-1.3-2.2-1.8l0.5-0.7c0.8,0.5,1.8,1.2,2.2,1.7L306.7,447.6z"/>
			<path fill="#A7A9AC" d="M316.7,454.1h-3v1.1h-1V445h4V454.1z M313.7,445.9v3.1h2v-3.1H313.7z M315.8,453.2V450h-2v3.2H315.8z
				 M321.5,446.7v1.8h3.1v0.9h-1.2v1.5h1.6v0.9h-1.6v3.8c0,0.6-0.2,0.9-0.6,1.1c-0.4,0.2-1.1,0.2-2.3,0.2c0-0.3-0.2-0.7-0.3-1
				c0.9,0,1.6,0,1.9,0s0.3-0.1,0.3-0.3v-3.7H317v-0.9h5.3v-1.5h-4.7v-0.9h2.9v-1.8H317v-0.9h3.5v-1.7h1v1.7h3.5v0.9H321.5z
				 M318.8,452.4c0.7,0.7,1.4,1.7,1.8,2.4l-0.9,0.6c-0.3-0.7-1.1-1.7-1.8-2.5L318.8,452.4z"/>
			<path fill="#A7A9AC" d="M328.3,449.4v7.4h-1v-12.2h5.1v4.8H328.3z M328.3,445.5v1.2h3v-1.2H328.3z M331.4,448.6v-1.2h-3v1.2
				H331.4z M331.3,455.6v0.7h-0.9v-5.8h5.2v5.1H331.3z M331.3,451.3v1.3h3.3v-1.3H331.3z M334.6,454.7v-1.4h-3.3v1.4H334.6z
				 M338.8,455.5c0,0.7-0.2,1-0.6,1.2c-0.4,0.2-1.2,0.2-2.4,0.2c0-0.3-0.2-0.8-0.4-1.1c0.9,0,1.7,0,2,0c0.2,0,0.3-0.1,0.3-0.3v-6
				h-4.1v-4.8h5.2V455.5z M334.6,445.5v1.2h3.1v-1.2H334.6z M337.7,448.7v-1.2h-3.1v1.2H337.7z"/>
			<path fill="#A7A9AC" d="M352.3,446v10.8h-1.1v-0.7h-7.5v0.8h-1V446h3.5c0.2-0.6,0.4-1.4,0.5-1.9l1.2,0.2
				c-0.2,0.6-0.5,1.2-0.7,1.8H352.3z M343.7,447v2.1h7.5V447H343.7z M343.7,450v2h7.5v-2H343.7z M351.2,455.1V453h-7.5v2.1H351.2z"
				/>
			<path fill="#A7A9AC" d="M355.3,455c3.2-2.8,4.7-4.9,4.7-6.6c0-1.2-0.6-2-1.9-2c-0.8,0-1.6,0.5-2.1,1.2l-0.7-0.7
				c0.8-0.9,1.7-1.5,3-1.5c1.8,0,3,1.2,3,3c0,2-1.6,4.1-4,6.4c0.5,0,1.2-0.1,1.7-0.1h2.8v1.1h-6.5V455z"/>
			<path fill="#A7A9AC" d="M363.5,450.6c0-3.6,1.2-5.3,3.2-5.3c1.9,0,3.2,1.7,3.2,5.3c0,3.6-1.2,5.4-3.2,5.4
				C364.8,456,363.5,454.2,363.5,450.6z M368.7,450.6c0-3-0.8-4.3-1.9-4.3c-1.2,0-2,1.3-2,4.3c0,3,0.8,4.3,2,4.3
				C367.9,455,368.7,453.6,368.7,450.6z"/>
			<path fill="#A7A9AC" d="M372.2,454.7h2.3v-7.7h-1.8v-0.8c0.9-0.2,1.6-0.4,2.1-0.7h1v9.2h2.1v1.1h-5.6V454.7z"/>
			<path fill="#A7A9AC" d="M380.3,454.7h2.3v-7.7h-1.8v-0.8c0.9-0.2,1.6-0.4,2.1-0.7h1v9.2h2.1v1.1h-5.6V454.7z"/>
			<path fill="#A7A9AC" d="M400.5,453.7h-5.1v3.2h-1.1v-3.2h-6.5v-1h2.3v-3.8h4.2v-2.1H391c-0.6,1.1-1.4,2-2.1,2.8
				c-0.2-0.2-0.6-0.5-0.9-0.7c1.3-1.1,2.5-3,3.2-4.8l1,0.3c-0.2,0.5-0.4,1-0.6,1.5h8.3v1h-4.4v2.1h4.1v1h-4.1v2.8h5.1V453.7z
				 M394.4,452.7v-2.8h-3.1v2.8H394.4z"/>
			<path fill="#A7A9AC" d="M402.8,454.7h2.3v-7.7h-1.8v-0.8c0.9-0.2,1.6-0.4,2.1-0.7h1v9.2h2.1v1.1h-5.6V454.7z"/>
			<path fill="#A7A9AC" d="M421.1,455.3c0,0.7-0.2,1.1-0.7,1.3c-0.5,0.2-1.5,0.2-3,0.2c-0.1-0.3-0.3-0.8-0.4-1.1c1.2,0,2.3,0,2.6,0
				c0.3,0,0.4-0.1,0.4-0.4v-2.8h-6.7c-0.4,1.6-1.1,3.2-2.4,4.4c-0.1-0.2-0.6-0.6-0.8-0.8c2.2-2,2.5-4.8,2.5-7v-4.3h8.5V455.3z
				 M420,451.5v-2.4h-6.4c0,0.7,0,1.5-0.2,2.4H420z M413.6,445.8v2.3h6.4v-2.3H413.6z"/>
			<path fill="#A7A9AC" d="M425.2,454.7h2.3v-7.7h-1.8v-0.8c0.9-0.2,1.6-0.4,2.1-0.7h1v9.2h2.1v1.1h-5.6V454.7z"/>
			<path fill="#A7A9AC" d="M432.5,454.6l0.6-0.8c0.6,0.6,1.3,1.1,2.5,1.1c1.2,0,2.2-0.9,2.2-2.4c0-1.5-0.8-2.3-2.1-2.3
				c-0.7,0-1.1,0.2-1.7,0.6l-0.7-0.4l0.3-4.8h5v1.1h-3.9l-0.3,3c0.4-0.3,0.9-0.4,1.5-0.4c1.7,0,3.1,1,3.1,3.3c0,2.3-1.6,3.5-3.4,3.5
				C434.2,456,433.2,455.3,432.5,454.6z"/>
			<path fill="#A7A9AC" d="M451.9,445v11.6h-1.1v-0.9h-6.9v0.9h-1.1V445H451.9z M443.8,446.1v3.8h6.9v-3.8H443.8z M450.8,454.8v-3.9
				h-6.9v3.9H450.8z"/>
			<path fill="#A7A9AC" d="M467.8,455.3v1h-12.4v-1h5.6v-2.6h-4.4v-1h4.4V450h1.1v1.8h4.6v1h-4.6v2.6H467.8z M466.4,450.3
				c-0.2-0.3-0.5-0.6-0.9-1c-7.6,0.4-8.3,0.4-8.8,0.6c-0.1-0.2-0.2-0.8-0.3-1c0.3,0,0.6-0.3,1-0.6c0.3-0.3,1.3-1.3,2.1-2.4h-3.7v-1
				h11.7v1h-6.6c-0.8,1.1-1.7,2.1-2.6,2.9l6.5-0.3c-0.6-0.5-1.2-1-1.7-1.5l0.8-0.5c1.3,0.9,2.8,2.3,3.6,3.2L466.4,450.3z"/>
			<path fill="#A7A9AC" d="M469.6,455c3.2-2.8,4.7-4.9,4.7-6.6c0-1.2-0.6-2-1.9-2c-0.8,0-1.6,0.5-2.1,1.2l-0.7-0.7
				c0.8-0.9,1.7-1.5,3-1.5c1.8,0,3,1.2,3,3c0,2-1.6,4.1-4,6.4c0.5,0,1.2-0.1,1.7-0.1h2.8v1.1h-6.5V455z"/>
			<path fill="#A7A9AC" d="M477.7,450.6c0-3.6,1.2-5.3,3.2-5.3c1.9,0,3.2,1.7,3.2,5.3c0,3.6-1.2,5.4-3.2,5.4
				C479,456,477.7,454.2,477.7,450.6z M482.9,450.6c0-3-0.8-4.3-1.9-4.3c-1.2,0-2,1.3-2,4.3c0,3,0.8,4.3,2,4.3
				C482.1,455,482.9,453.6,482.9,450.6z"/>
			<path fill="#A7A9AC" d="M486.4,454.7h2.3v-7.7h-1.8v-0.8c0.9-0.2,1.6-0.4,2.1-0.7h1v9.2h2.1v1.1h-5.6V454.7z"/>
			<path fill="#A7A9AC" d="M499,446.6h-5v-1.1h6.4v0.8c-2.4,3.1-2.9,5.5-3,9.5h-1.3C496.2,451.9,497,449.4,499,446.6z"/>
			<path fill="#A7A9AC" d="M514.7,453.7h-5.1v3.2h-1.1v-3.2h-6.5v-1h2.3v-3.8h4.2v-2.1h-3.4c-0.6,1.1-1.4,2-2.1,2.8
				c-0.2-0.2-0.6-0.5-0.9-0.7c1.3-1.1,2.5-3,3.2-4.8l1.1,0.3c-0.2,0.5-0.4,1-0.6,1.5h8.3v1h-4.4v2.1h4.1v1h-4.1v2.8h5.1V453.7z
				 M508.6,452.7v-2.8h-3.1v2.8H508.6z"/>
			<path fill="#A7A9AC" d="M521.4,446.6h-5v-1.1h6.4v0.8c-2.4,3.1-2.9,5.5-3,9.5h-1.3C518.7,451.9,519.4,449.4,521.4,446.6z"/>
			<path fill="#A7A9AC" d="M535.3,455.3c0,0.7-0.2,1.1-0.7,1.3c-0.5,0.2-1.5,0.2-3,0.2c-0.1-0.3-0.3-0.8-0.4-1.1c1.2,0,2.3,0,2.6,0
				c0.3,0,0.4-0.1,0.4-0.4v-2.8h-6.7c-0.4,1.6-1.1,3.2-2.4,4.4c-0.1-0.2-0.6-0.6-0.8-0.8c2.2-2,2.5-4.8,2.5-7v-4.3h8.5V455.3z
				 M534.3,451.5v-2.4h-6.4c0,0.7,0,1.5-0.2,2.4H534.3z M527.9,445.8v2.3h6.4v-2.3H527.9z"/>
			<path fill="#A7A9AC" d="M539.5,454.7h2.3v-7.7h-1.8v-0.8c0.9-0.2,1.6-0.4,2.1-0.7h1v9.2h2.1v1.1h-5.6V454.7z"/>
			<path fill="#A7A9AC" d="M546.8,454.6l0.6-0.8c0.6,0.6,1.3,1.1,2.5,1.1c1.2,0,2.2-0.9,2.2-2.4c0-1.5-0.8-2.3-2.1-2.3
				c-0.7,0-1.1,0.2-1.7,0.6l-0.7-0.4l0.3-4.8h5v1.1H549l-0.3,3c0.4-0.3,0.9-0.4,1.5-0.4c1.7,0,3.1,1,3.1,3.3c0,2.3-1.6,3.5-3.4,3.5
				C548.4,456,547.4,455.3,546.8,454.6z"/>
			<path fill="#A7A9AC" d="M566.1,445v11.6H565v-0.9h-6.9v0.9H557V445H566.1z M558.1,446.1v3.8h6.9v-3.8H558.1z M565,454.8v-3.9
				h-6.9v3.9H565z"/>
			<path fill="#A7A9AC" d="M572.4,448.4c1.2,0,2.1,1,2.1,2.1c0,1.2-1,2.1-2.1,2.1c-1.2,0-2.1-1-2.1-2.1
				C570.2,449.3,571.2,448.4,572.4,448.4z M572.4,451.9c0.8,0,1.4-0.6,1.4-1.4c0-0.8-0.6-1.4-1.4-1.4c-0.8,0-1.4,0.6-1.4,1.4
				C571,451.3,571.6,451.9,572.4,451.9z"/>
		</g>
	</g>
	<g>
		<path fill="none" stroke="#D9D9D9" stroke-width="0.72" stroke-linejoin="round" stroke-miterlimit="10" d="M69.1,62.2h731.2
			 M69.1,118.3h731.2 M69.1,174.5h731.2 M69.1,230.9h731.2 M69.1,287.1h731.2"/>
		
			<line fill="none" stroke="#7F7F7F" stroke-width="0.72" stroke-linejoin="round" stroke-miterlimit="10" x1="69.1" y1="343.2" x2="800.3" y2="343.2"/>
		<g>
			
				<line fill="none" stroke="#7F7F7F" stroke-width="0.72" stroke-linejoin="round" stroke-miterlimit="10" x1="624.3" y1="348.8" x2="624.3" y2="344.3"/>
			
				<line fill="none" stroke="#7F7F7F" stroke-width="0.72" stroke-linejoin="round" stroke-miterlimit="10" x1="568.9" y1="348.8" x2="568.9" y2="344.3"/>
			
				<line fill="none" stroke="#7F7F7F" stroke-width="0.72" stroke-linejoin="round" stroke-miterlimit="10" x1="513.4" y1="348.8" x2="513.4" y2="344.3"/>
			
				<line fill="none" stroke="#7F7F7F" stroke-width="0.72" stroke-linejoin="round" stroke-miterlimit="10" x1="791" y1="348.8" x2="791" y2="344.3"/>
			
				<line fill="none" stroke="#7F7F7F" stroke-width="0.72" stroke-linejoin="round" stroke-miterlimit="10" x1="457.9" y1="348.8" x2="457.9" y2="344.3"/>
			
				<line fill="none" stroke="#7F7F7F" stroke-width="0.72" stroke-linejoin="round" stroke-miterlimit="10" x1="735.5" y1="348.8" x2="735.5" y2="344.3"/>
			
				<line fill="none" stroke="#7F7F7F" stroke-width="0.72" stroke-linejoin="round" stroke-miterlimit="10" x1="680.1" y1="348.8" x2="680.1" y2="344.3"/>
			
				<line fill="none" stroke="#7F7F7F" stroke-width="0.72" stroke-linejoin="round" stroke-miterlimit="10" x1="69.1" y1="348.8" x2="69.1" y2="344.3"/>
			
				<line fill="none" stroke="#7F7F7F" stroke-width="0.72" stroke-linejoin="round" stroke-miterlimit="10" x1="180.1" y1="348.8" x2="180.1" y2="344.3"/>
			
				<line fill="none" stroke="#7F7F7F" stroke-width="0.72" stroke-linejoin="round" stroke-miterlimit="10" x1="124.6" y1="348.8" x2="124.6" y2="344.3"/>
			
				<line fill="none" stroke="#7F7F7F" stroke-width="0.72" stroke-linejoin="round" stroke-miterlimit="10" x1="235.5" y1="348.8" x2="235.5" y2="344.3"/>
			
				<line fill="none" stroke="#7F7F7F" stroke-width="0.72" stroke-linejoin="round" stroke-miterlimit="10" x1="402.2" y1="348.8" x2="402.2" y2="344.3"/>
			
				<line fill="none" stroke="#7F7F7F" stroke-width="0.72" stroke-linejoin="round" stroke-miterlimit="10" x1="346.7" y1="348.8" x2="346.7" y2="344.3"/>
			
				<line fill="none" stroke="#7F7F7F" stroke-width="0.72" stroke-linejoin="round" stroke-miterlimit="10" x1="291.3" y1="348.8" x2="291.3" y2="344.3"/>
		</g>
		
			<polyline fill="none" stroke="#002A5E" stroke-width="1.44" stroke-linecap="round" stroke-linejoin="round" stroke-miterlimit="10" points="
			73.7,95.9 83,82.5 92.1,89.2 101.4,86.8 110.7,109.3 120.1,137.4 129.1,162.1 138.5,166.7 147.8,184.7 156.9,214 166.2,208.5 
			175.5,193.8 184.9,170.1 193.9,182.5 203.3,184.7 212.6,211.8 221.7,219.5 231,215.2 240.3,214 249.7,216.1 258.7,218.5 
			268.1,223.1 277.4,214 286.5,206.1 295.8,190.5 305.1,198.1 314.5,214 323.5,209.4 332.9,200.5 342.2,189.3 351.3,169.1 
			360.6,157.8 369.9,149.9 379.3,153.3 388.3,155.4 397.7,151.1 407,142 416.1,137.4 425.4,139.8 434.7,129.7 444.1,135.3 
			453.1,143.2 462.5,131.9 471.8,146.5 480.9,152.1 490.2,151.1 499.5,162.1 508.9,158.8 517.9,145.3 527.3,137.4 536.6,129.7 
			545.7,130.7 555,134.1 564.3,127.3 573.7,130.7 582.7,126.1 592.1,134.1 601.4,130.7 610.5,127.3 619.8,126.1 629.1,134.1 
			638.4,140.8 647.5,139.8 656.9,140.8 666.2,139.8 675.3,139.8 684.6,138.6 693.9,142 703.2,145.3 712.3,137.4 721.7,130.7 
			731,125.2 740.1,125.2 749.4,107.2 758.7,102.6 768,98.1 777.1,98.1 786.5,103.8 795.8,110.5 		"/>
		
			<polyline fill="none" stroke="#0C56AB" stroke-width="1.44" stroke-linecap="round" stroke-linejoin="round" stroke-miterlimit="10" points="
			73.7,47.4 83,52 92.1,57.7 101.4,71.2 110.7,94.7 120.1,103.8 129.1,146.5 138.5,160 147.8,169.1 156.9,171.3 166.2,181.3 
			175.5,160 184.9,130.7 193.9,138.6 203.3,156.6 212.6,169.1 221.7,182.5 231,196 240.3,202.7 249.7,208.5 258.7,183.5 
			268.1,200.5 277.4,183.5 286.5,171.3 295.8,125.2 305.1,137.4 314.5,167.9 323.5,183.5 332.9,172.5 342.2,170.1 351.3,151.1 
			360.6,135.3 369.9,138.6 379.3,138.6 388.3,113.9 397.7,118.5 407,112.7 416.1,102.6 425.4,126.1 434.7,106 444.1,111.7 
			453.1,129.7 462.5,110.5 471.8,133.1 480.9,128.5 490.2,130.7 499.5,155.4 508.9,152.1 517.9,135.3 527.3,131.9 536.6,113.9 
			545.7,128.5 555,145.3 564.3,133.1 573.7,133.1 582.7,118.5 592.1,128.5 601.4,127.3 610.5,116.1 619.8,112.7 629.1,124 
			638.4,128.5 647.5,129.7 656.9,134.1 666.2,124 675.3,125.2 684.6,115.1 693.9,137.4 703.2,143.2 712.3,117.3 721.7,118.5 
			731,116.1 740.1,120.6 749.4,106 758.7,94.7 768,99.3 777.1,91.3 786.5,102.6 795.8,121.8 		"/>
		
			<polyline fill="none" stroke="#73B564" stroke-width="1.44" stroke-linecap="round" stroke-linejoin="round" stroke-miterlimit="10" points="
			73.7,90.1 83,73.3 92.1,72.4 101.4,35.2 110.7,58.7 120.1,119.4 129.1,138.6 138.5,133.1 147.8,172.5 156.9,224.1 166.2,188.1 
			175.5,174.6 184.9,161.2 193.9,172.5 203.3,189.3 212.6,220.7 221.7,235.3 231,205.1 240.3,198.1 249.7,197.2 258.7,251.2 
			268.1,247.8 277.4,238.7 286.5,235.3 295.8,256.7 305.1,252.1 314.5,265.8 323.5,238.7 332.9,235.3 342.2,203.9 351.3,184.7 
			360.6,188.1 369.9,169.1 379.3,169.1 388.3,197.2 397.7,205.1 407,187.1 416.1,198.1 425.4,154.5 434.7,167.9 444.1,182.5 
			453.1,196 462.5,181.3 471.8,180.1 480.9,192.6 490.2,194.8 499.5,198.1 508.9,178 517.9,182.5 527.3,149.9 536.6,157.8 
			545.7,167.9 555,152.1 564.3,137.4 573.7,157.8 582.7,172.5 592.1,153.3 601.4,145.3 610.5,163.3 619.8,173.4 629.1,172.5 
			638.4,182.5 647.5,174.6 656.9,172.5 666.2,164.5 675.3,179.2 684.6,173.4 693.9,153.3 703.2,144.1 712.3,156.6 721.7,158.8 
			731,139.8 740.1,128.5 749.4,108.1 758.7,98.1 768,100.5 777.1,97.1 786.5,100.5 795.8,111.7 		"/>
		
			<polyline fill="none" stroke="#7F58A5" stroke-width="1.44" stroke-linecap="round" stroke-linejoin="round" stroke-miterlimit="10" points="
			73.7,174.6 83,155.4 92.1,175.8 101.4,165.5 110.7,171.3 120.1,183.5 129.1,218.5 138.5,230.8 147.8,243.3 156.9,268 166.2,307.3 
			175.5,263.4 184.9,219.5 193.9,254.5 203.3,219.5 212.6,264.6 221.7,273.5 231,264.6 240.3,252.1 249.7,248.8 258.7,273.5 
			268.1,270.1 277.4,248.8 286.5,243.3 295.8,214 305.1,227.4 314.5,233.2 323.5,242.1 332.9,206.1 342.2,196 351.3,190.5 
			360.6,165.5 369.9,179.2 379.3,173.4 388.3,165.5 397.7,130.7 407,120.6 416.1,131.9 425.4,127.3 434.7,103.8 444.1,111.7 
			453.1,116.1 462.5,110.5 471.8,97.1 480.9,115.1 490.2,112.7 499.5,131.9 508.9,126.1 517.9,97.1 527.3,107.2 536.6,97.1 
			545.7,72.4 555,81.3 564.3,109.3 573.7,81.3 582.7,75.7 592.1,122.8 601.4,118.5 610.5,104.8 619.8,116.1 629.1,115.1 638.4,124 
			647.5,117.3 656.9,116.1 666.2,120.6 675.3,110.5 684.6,133.1 693.9,120.6 703.2,128.5 712.3,125.2 721.7,116.1 731,112.7 
			740.1,121.8 749.4,95.9 758.7,98.1 768,92.5 777.1,93.7 786.5,88 795.8,99.3 		"/>
		<g>
			<g>
				<path fill="#231F20" d="M47.4,341.2l2.7-2.4h-4.5v-1.6h6.8v1.5l-2.7,2.3c1.5,0,2.9,1.1,2.9,3c0,1.7-1.3,3.2-3.7,3.2
					c-2.3,0-3.6-1.5-3.7-3.1l1.8-0.4c0,1.1,0.9,1.9,2,1.9c1.2,0,1.9-0.8,1.9-1.7c0-1.1-0.9-1.6-1.7-1.6c-0.5,0-0.8,0.1-0.9,0.2
					L47.4,341.2z"/>
				<path fill="#231F20" d="M55.9,343.8c0.1,1,0.8,1.8,2,1.8c1,0,1.9-0.7,1.9-1.8c0-1.2-0.9-1.8-1.9-1.8c-0.7,0-1.3,0.3-1.6,0.7
					l-1.7-0.6l1.2-5h5.4v1.6h-4.2l-0.6,2.5c0.4-0.4,1.2-0.7,1.9-0.7c2,0,3.4,1.2,3.4,3.3c0,1.8-1.4,3.4-3.7,3.4
					c-2.1,0-3.6-1.4-3.7-3L55.9,343.8z"/>
			</g>
		</g>
		<g>
			<g>
				<path fill="#231F20" d="M45.5,286.6l4.2-5.7H52v6.1h1.7v1.6H52v2.2h-1.8v-2.2h-4.7V286.6z M50.2,282.7l-3.1,4.2h3.1V282.7z"/>
				<path fill="#231F20" d="M55.8,282.3c0.6-1,1.7-1.6,3.1-1.6s2.5,0.7,3.1,1.6c0.7,1,0.9,2.2,0.9,3.5s-0.2,2.5-0.9,3.5
					c-0.6,1-1.7,1.6-3.1,1.6s-2.5-0.7-3.1-1.6c-0.7-1-0.9-2.2-0.9-3.5S55.1,283.3,55.8,282.3z M57.4,288.6c0.3,0.4,0.8,0.7,1.5,0.7
					s1.2-0.3,1.5-0.7c0.5-0.6,0.7-1.6,0.7-2.8c0-1.2-0.2-2.2-0.7-2.8c-0.3-0.4-0.8-0.7-1.5-0.7s-1.2,0.3-1.5,0.7
					c-0.5,0.6-0.7,1.6-0.7,2.8C56.7,287,56.9,288,57.4,288.6z"/>
			</g>
		</g>
		<g>
			<g>
				<path fill="#231F20" d="M45.5,230.3l4.2-5.7H52v6.1h1.7v1.6H52v2.2h-1.8v-2.2h-4.7V230.3z M50.2,226.5l-3.1,4.2h3.1V226.5z"/>
				<path fill="#231F20" d="M56.4,231.3c0.1,1,0.8,1.8,2,1.8c1,0,1.9-0.7,1.9-1.8c0-1.2-0.9-1.8-1.9-1.8c-0.7,0-1.3,0.3-1.6,0.7
					l-1.7-0.6l1.2-5h5.4v1.6h-4.2l-0.6,2.5c0.4-0.4,1.2-0.7,1.9-0.7c2,0,3.4,1.2,3.4,3.3c0,1.8-1.4,3.4-3.7,3.4
					c-2.1,0-3.6-1.4-3.7-3L56.4,231.3z"/>
			</g>
		</g>
		<g>
			<g>
				<path fill="#231F20" d="M47.2,175c0.1,1,0.8,1.8,2,1.8c1,0,1.9-0.7,1.9-1.8c0-1.2-0.9-1.8-1.9-1.8c-0.7,0-1.3,0.3-1.6,0.7
					l-1.7-0.6l1.2-5h5.4v1.6h-4.2l-0.6,2.5c0.4-0.4,1.2-0.7,1.9-0.7c2,0,3.4,1.2,3.4,3.3c0,1.9-1.4,3.4-3.7,3.4
					c-2.1,0-3.6-1.4-3.7-3L47.2,175z"/>
				<path fill="#231F20" d="M55.2,169.7c0.6-1,1.7-1.6,3.1-1.6s2.5,0.7,3.1,1.6c0.7,1,0.9,2.2,0.9,3.5c0,1.3-0.2,2.5-0.9,3.5
					c-0.6,1-1.7,1.6-3.1,1.6s-2.5-0.7-3.1-1.6c-0.7-1-0.9-2.2-0.9-3.5C54.3,172,54.6,170.7,55.2,169.7z M56.8,176.1
					c0.3,0.4,0.8,0.7,1.5,0.7s1.2-0.3,1.5-0.7c0.5-0.6,0.7-1.6,0.7-2.8c0-1.2-0.2-2.2-0.7-2.8c-0.3-0.4-0.8-0.7-1.5-0.7
					s-1.2,0.3-1.5,0.7c-0.5,0.6-0.7,1.6-0.7,2.8C56.1,174.5,56.4,175.5,56.8,176.1z"/>
			</g>
		</g>
		<g>
			<g>
				<path fill="#231F20" d="M47.2,118.8c0.1,1,0.8,1.8,2,1.8c1,0,1.9-0.7,1.9-1.8c0-1.2-0.9-1.8-1.9-1.8c-0.7,0-1.3,0.3-1.6,0.7
					l-1.7-0.6l1.2-5h5.4v1.6h-4.2l-0.6,2.5c0.4-0.4,1.2-0.7,1.9-0.7c2,0,3.4,1.2,3.4,3.3c0,1.9-1.4,3.4-3.7,3.4
					c-2.1,0-3.6-1.4-3.7-3L47.2,118.8z"/>
				<path fill="#231F20" d="M55.9,118.8c0.1,1,0.8,1.8,2,1.8c1,0,1.9-0.7,1.9-1.8c0-1.2-0.9-1.8-1.9-1.8c-0.7,0-1.3,0.3-1.6,0.7
					l-1.7-0.6l1.2-5h5.4v1.6h-4.2l-0.6,2.5c0.4-0.4,1.2-0.7,1.9-0.7c2,0,3.4,1.2,3.4,3.3c0,1.9-1.4,3.4-3.7,3.4
					c-2.1,0-3.6-1.4-3.7-3L55.9,118.8z"/>
			</g>
		</g>
		<g>
			<g>
				<path fill="#231F20" d="M52.5,57.6c-0.4-0.2-0.9-0.4-1.7-0.4c-1.9,0-3.2,1.2-3.4,3.1c0.5-0.8,1.5-1.2,2.5-1.2
					c2,0,3.3,1.3,3.3,3.3c0,2-1.7,3.4-3.7,3.4c-2.5,0-3.9-2-3.9-4.6c0-3.6,2.2-5.7,5.3-5.7c0.9,0,1.7,0.2,2.1,0.5L52.5,57.6z
					 M49.6,64.3c1,0,1.9-0.7,1.9-1.8c0-1.2-0.9-1.8-1.9-1.8s-1.9,0.7-1.9,1.8C47.7,63.6,48.6,64.3,49.6,64.3z"/>
				<path fill="#231F20" d="M55.7,57.2c0.6-1,1.7-1.6,3.1-1.6s2.5,0.7,3.1,1.6c0.7,1,0.9,2.2,0.9,3.5s-0.2,2.5-0.9,3.5
					c-0.6,1-1.7,1.6-3.1,1.6s-2.5-0.7-3.1-1.6c-0.7-1-0.9-2.2-0.9-3.5S55,58.2,55.7,57.2z M57.3,63.5c0.3,0.4,0.8,0.7,1.5,0.7
					s1.2-0.3,1.5-0.7c0.5-0.6,0.7-1.6,0.7-2.8c0-1.2-0.2-2.2-0.7-2.8c-0.3-0.4-0.8-0.7-1.5-0.7s-1.2,0.3-1.5,0.7
					c-0.5,0.6-0.7,1.6-0.7,2.8C56.6,62,56.9,62.9,57.3,63.5z"/>
			</g>
		</g>
		<g>
			<g>
				<path fill="#231F20" d="M57.3,359.4c0-0.1,0-0.4,0-0.6c0-1.7,1.3-3.2,3.5-3.2c2.2,0,3.5,1.4,3.5,3.1c0,1.3-0.7,2.3-1.9,3
					l-1.9,1.2c-0.5,0.3-0.9,0.6-1,1.1h4.9v1.6h-7.1c0-1.7,0.6-3,2.3-4.1l1.6-1c0.9-0.5,1.3-1.1,1.3-1.9c0-0.8-0.5-1.5-1.7-1.5
					c-1.2,0-1.7,0.8-1.7,1.8c0,0.2,0,0.3,0,0.5L57.3,359.4z"/>
				<path fill="#231F20" d="M66.8,357.2c0.6-1,1.7-1.6,3.1-1.6s2.5,0.7,3.1,1.6c0.7,1,0.9,2.2,0.9,3.5s-0.2,2.5-0.9,3.5
					c-0.6,1-1.7,1.6-3.1,1.6s-2.5-0.7-3.1-1.6c-0.7-1-0.9-2.2-0.9-3.5S66.1,358.2,66.8,357.2z M68.4,363.5c0.3,0.4,0.8,0.7,1.5,0.7
					s1.2-0.3,1.5-0.7c0.5-0.6,0.7-1.6,0.7-2.8c0-1.2-0.2-2.2-0.7-2.8c-0.3-0.4-0.8-0.7-1.5-0.7s-1.2,0.3-1.5,0.7
					c-0.5,0.6-0.7,1.6-0.7,2.8C67.7,362,67.9,362.9,68.4,363.5z"/>
				<path fill="#231F20" d="M77.7,365.7v-6.7h-2.4v-1.2c1.4,0,2.4-0.8,2.6-1.9h1.6v9.8H77.7z"/>
				<path fill="#231F20" d="M83.8,365.7v-6.7h-2.4v-1.2c1.4,0,2.4-0.8,2.6-1.9h1.6v9.8H83.8z"/>
			</g>
		</g>
		<g>
			<g>
				<path fill="#231F20" d="M110.2,359.4c0-0.1,0-0.4,0-0.6c0-1.7,1.3-3.2,3.5-3.2c2.2,0,3.5,1.4,3.5,3.1c0,1.3-0.7,2.3-1.9,3
					l-1.9,1.2c-0.5,0.3-0.9,0.6-1,1.1h4.9v1.6h-7.1c0-1.7,0.6-3,2.3-4.1l1.6-1c0.9-0.5,1.3-1.1,1.3-1.9c0-0.8-0.5-1.5-1.7-1.5
					c-1.2,0-1.7,0.8-1.7,1.8c0,0.2,0,0.3,0,0.5L110.2,359.4z"/>
				<path fill="#231F20" d="M119.7,357.2c0.6-1,1.7-1.6,3.1-1.6s2.5,0.7,3.1,1.6c0.7,1,0.9,2.2,0.9,3.5s-0.2,2.5-0.9,3.5
					c-0.6,1-1.7,1.6-3.1,1.6s-2.5-0.7-3.1-1.6c-0.7-1-0.9-2.2-0.9-3.5S119,358.2,119.7,357.2z M121.3,363.5c0.3,0.4,0.8,0.7,1.5,0.7
					s1.2-0.3,1.5-0.7c0.5-0.6,0.7-1.6,0.7-2.8c0-1.2-0.2-2.2-0.7-2.8c-0.3-0.4-0.8-0.7-1.5-0.7s-1.2,0.3-1.5,0.7
					c-0.5,0.6-0.7,1.6-0.7,2.8C120.6,362,120.8,362.9,121.3,363.5z"/>
				<path fill="#231F20" d="M130.6,365.7v-6.7h-2.4v-1.2c1.4,0,2.4-0.8,2.6-1.9h1.6v9.8H130.6z"/>
				<path fill="#231F20" d="M136.6,365.7v-6.7h-2.4v-1.2c1.4,0,2.4-0.8,2.6-1.9h1.6v9.8H136.6z"/>
			</g>
		</g>
		<g>
			<g>
				<path fill="#231F20" d="M59.9,386.2h-1.6l5.3-10.9h1.6L59.9,386.2z"/>
				<path fill="#231F20" d="M71.3,377.7c0.6-1,1.7-1.6,3.1-1.6s2.5,0.7,3.1,1.6c0.7,1,0.9,2.2,0.9,3.5s-0.2,2.5-0.9,3.5
					c-0.6,1-1.7,1.6-3.1,1.6s-2.5-0.7-3.1-1.6c-0.7-1-0.9-2.2-0.9-3.5S70.6,378.7,71.3,377.7z M72.9,384c0.3,0.4,0.8,0.7,1.5,0.7
					s1.2-0.3,1.5-0.7c0.5-0.6,0.7-1.6,0.7-2.8s-0.2-2.2-0.7-2.8c-0.3-0.4-0.8-0.7-1.5-0.7s-1.2,0.3-1.5,0.7
					c-0.5,0.6-0.7,1.6-0.7,2.8S72.4,383.4,72.9,384z"/>
				<path fill="#231F20" d="M82.2,386.1v-6.7h-2.4v-1.2c1.4,0,2.4-0.8,2.6-1.9H84v9.8H82.2z"/>
			</g>
		</g>
		<g>
			<g>
				<path fill="#231F20" d="M111.8,386.2h-1.6l5.3-10.9h1.6L111.8,386.2z"/>
				<path fill="#231F20" d="M123.2,377.7c0.6-1,1.7-1.6,3.1-1.6s2.5,0.7,3.1,1.6c0.7,1,0.9,2.2,0.9,3.5s-0.2,2.5-0.9,3.5
					c-0.6,1-1.7,1.6-3.1,1.6s-2.5-0.7-3.1-1.6c-0.7-1-0.9-2.2-0.9-3.5S122.5,378.7,123.2,377.7z M124.8,384c0.3,0.4,0.8,0.7,1.5,0.7
					s1.2-0.3,1.5-0.7c0.5-0.6,0.7-1.6,0.7-2.8s-0.2-2.2-0.7-2.8c-0.3-0.4-0.8-0.7-1.5-0.7s-1.2,0.3-1.5,0.7
					c-0.5,0.6-0.7,1.6-0.7,2.8S124.4,383.4,124.8,384z"/>
				<path fill="#231F20" d="M138.8,377.9c-0.8,0.7-3.6,3.2-4,8.2h-1.9c0.4-5.5,3.9-8.2,3.9-8.2h-5.3v-1.6h7.3V377.9z"/>
			</g>
		</g>
		<g>
			<g>
				<path fill="#231F20" d="M166.9,386.2h-1.6l5.3-10.9h1.6L166.9,386.2z"/>
				<path fill="#231F20" d="M178.3,377.7c0.6-1,1.7-1.6,3.1-1.6s2.5,0.7,3.1,1.6c0.7,1,0.9,2.2,0.9,3.5s-0.2,2.5-0.9,3.5
					c-0.6,1-1.7,1.6-3.1,1.6s-2.5-0.7-3.1-1.6c-0.7-1-0.9-2.2-0.9-3.5S177.7,378.7,178.3,377.7z M179.9,384c0.3,0.4,0.8,0.7,1.5,0.7
					s1.2-0.3,1.5-0.7c0.5-0.6,0.7-1.6,0.7-2.8s-0.2-2.2-0.7-2.8c-0.3-0.4-0.8-0.7-1.5-0.7s-1.2,0.3-1.5,0.7
					c-0.5,0.6-0.7,1.6-0.7,2.8S179.5,383.4,179.9,384z"/>
				<path fill="#231F20" d="M189.2,386.1v-6.7h-2.4v-1.2c1.4,0,2.4-0.8,2.6-1.9h1.6v9.8H189.2z"/>
			</g>
		</g>
		<g>
			<g>
				<path fill="#231F20" d="M221.4,386.2h-1.6l5.3-10.9h1.6L221.4,386.2z"/>
				<path fill="#231F20" d="M232.8,377.7c0.6-1,1.7-1.6,3.1-1.6s2.5,0.7,3.1,1.6c0.7,1,0.9,2.2,0.9,3.5s-0.2,2.5-0.9,3.5
					c-0.6,1-1.7,1.6-3.1,1.6s-2.5-0.7-3.1-1.6c-0.7-1-0.9-2.2-0.9-3.5S232.2,378.7,232.8,377.7z M234.4,384c0.3,0.4,0.8,0.7,1.5,0.7
					s1.2-0.3,1.5-0.7c0.5-0.6,0.7-1.6,0.7-2.8s-0.2-2.2-0.7-2.8c-0.3-0.4-0.8-0.7-1.5-0.7s-1.2,0.3-1.5,0.7
					c-0.5,0.6-0.7,1.6-0.7,2.8S234,383.4,234.4,384z"/>
				<path fill="#231F20" d="M248.4,377.9c-0.8,0.7-3.6,3.2-4,8.2h-1.9c0.4-5.5,3.9-8.2,3.9-8.2h-5.3v-1.6h7.3V377.9z"/>
			</g>
		</g>
		<g>
			<g>
				<path fill="#231F20" d="M277.9,386.2h-1.6l5.3-10.9h1.6L277.9,386.2z"/>
				<path fill="#231F20" d="M289.3,377.7c0.6-1,1.7-1.6,3.1-1.6s2.5,0.7,3.1,1.6c0.7,1,0.9,2.2,0.9,3.5s-0.2,2.5-0.9,3.5
					c-0.6,1-1.7,1.6-3.1,1.6s-2.5-0.7-3.1-1.6c-0.7-1-0.9-2.2-0.9-3.5S288.6,378.7,289.3,377.7z M290.9,384c0.3,0.4,0.8,0.7,1.5,0.7
					s1.2-0.3,1.5-0.7c0.5-0.6,0.7-1.6,0.7-2.8s-0.2-2.2-0.7-2.8c-0.3-0.4-0.8-0.7-1.5-0.7s-1.2,0.3-1.5,0.7
					c-0.5,0.6-0.7,1.6-0.7,2.8S290.5,383.4,290.9,384z"/>
				<path fill="#231F20" d="M300.2,386.1v-6.7h-2.4v-1.2c1.4,0,2.4-0.8,2.6-1.9h1.6v9.8H300.2z"/>
			</g>
		</g>
		<g>
			<g>
				<path fill="#231F20" d="M332.6,386.2h-1.6l5.3-10.9h1.6L332.6,386.2z"/>
				<path fill="#231F20" d="M343.9,377.7c0.6-1,1.7-1.6,3.1-1.6c1.5,0,2.5,0.7,3.1,1.6c0.7,1,0.9,2.2,0.9,3.5s-0.2,2.5-0.9,3.5
					c-0.6,1-1.7,1.6-3.1,1.6c-1.5,0-2.5-0.7-3.1-1.6c-0.7-1-0.9-2.2-0.9-3.5S343.3,378.7,343.9,377.7z M345.6,384
					c0.3,0.4,0.8,0.7,1.5,0.7s1.2-0.3,1.5-0.7c0.5-0.6,0.7-1.6,0.7-2.8s-0.2-2.2-0.7-2.8c-0.3-0.4-0.8-0.7-1.5-0.7s-1.2,0.3-1.5,0.7
					c-0.5,0.6-0.7,1.6-0.7,2.8S345.1,383.4,345.6,384z"/>
				<path fill="#231F20" d="M359.6,377.9c-0.8,0.7-3.6,3.2-4,8.2h-1.9c0.4-5.5,3.9-8.2,3.9-8.2h-5.3v-1.6h7.3V377.9z"/>
			</g>
		</g>
		<g>
			<g>
				<path fill="#231F20" d="M389.4,386.2h-1.6l5.3-10.9h1.6L389.4,386.2z"/>
				<path fill="#231F20" d="M400.7,377.7c0.6-1,1.7-1.6,3.1-1.6c1.5,0,2.5,0.7,3.1,1.6c0.7,1,0.9,2.2,0.9,3.5s-0.2,2.5-0.9,3.5
					c-0.6,1-1.7,1.6-3.1,1.6c-1.5,0-2.5-0.7-3.1-1.6c-0.7-1-0.9-2.2-0.9-3.5S400.1,378.7,400.7,377.7z M402.3,384
					c0.3,0.4,0.8,0.7,1.5,0.7s1.2-0.3,1.5-0.7c0.5-0.6,0.7-1.6,0.7-2.8s-0.2-2.2-0.7-2.8c-0.3-0.4-0.8-0.7-1.5-0.7s-1.2,0.3-1.5,0.7
					c-0.5,0.6-0.7,1.6-0.7,2.8S401.9,383.4,402.3,384z"/>
				<path fill="#231F20" d="M411.6,386.1v-6.7h-2.4v-1.2c1.4,0,2.4-0.8,2.6-1.9h1.6v9.8H411.6z"/>
			</g>
		</g>
		<g>
			<g>
				<path fill="#231F20" d="M446.2,386.2h-1.6l5.3-10.9h1.6L446.2,386.2z"/>
				<path fill="#231F20" d="M457.6,377.7c0.6-1,1.7-1.6,3.1-1.6c1.5,0,2.5,0.7,3.1,1.6c0.7,1,0.9,2.2,0.9,3.5s-0.2,2.5-0.9,3.5
					c-0.6,1-1.7,1.6-3.1,1.6c-1.5,0-2.5-0.7-3.1-1.6c-0.7-1-0.9-2.2-0.9-3.5S456.9,378.7,457.6,377.7z M459.2,384
					c0.3,0.4,0.8,0.7,1.5,0.7s1.2-0.3,1.5-0.7c0.5-0.6,0.7-1.6,0.7-2.8s-0.2-2.2-0.7-2.8c-0.3-0.4-0.8-0.7-1.5-0.7s-1.2,0.3-1.5,0.7
					c-0.5,0.6-0.7,1.6-0.7,2.8S458.7,383.4,459.2,384z"/>
				<path fill="#231F20" d="M473.2,377.9c-0.8,0.7-3.6,3.2-4,8.2h-1.9c0.4-5.5,3.9-8.2,3.9-8.2h-5.3v-1.6h7.3V377.9z"/>
			</g>
		</g>
		<g>
			<g>
				<path fill="#231F20" d="M502.4,386.2h-1.6l5.3-10.9h1.6L502.4,386.2z"/>
				<path fill="#231F20" d="M513.8,377.7c0.6-1,1.7-1.6,3.1-1.6c1.5,0,2.5,0.7,3.1,1.6c0.7,1,0.9,2.2,0.9,3.5s-0.2,2.5-0.9,3.5
					c-0.6,1-1.7,1.6-3.1,1.6c-1.5,0-2.5-0.7-3.1-1.6c-0.7-1-0.9-2.2-0.9-3.5S513.2,378.7,513.8,377.7z M515.4,384
					c0.3,0.4,0.8,0.7,1.5,0.7s1.2-0.3,1.5-0.7c0.5-0.6,0.7-1.6,0.7-2.8s-0.2-2.2-0.7-2.8c-0.3-0.4-0.8-0.7-1.5-0.7s-1.2,0.3-1.5,0.7
					c-0.5,0.6-0.7,1.6-0.7,2.8S515,383.4,515.4,384z"/>
				<path fill="#231F20" d="M524.7,386.1v-6.7h-2.4v-1.2c1.4,0,2.4-0.8,2.6-1.9h1.6v9.8H524.7z"/>
			</g>
		</g>
		<g>
			<g>
				<path fill="#231F20" d="M555.9,386.2h-1.6l5.3-10.9h1.6L555.9,386.2z"/>
				<path fill="#231F20" d="M567.3,377.7c0.6-1,1.7-1.6,3.1-1.6c1.5,0,2.5,0.7,3.1,1.6c0.7,1,0.9,2.2,0.9,3.5s-0.2,2.5-0.9,3.5
					c-0.6,1-1.7,1.6-3.1,1.6c-1.5,0-2.5-0.7-3.1-1.6c-0.7-1-0.9-2.2-0.9-3.5S566.6,378.7,567.3,377.7z M568.9,384
					c0.3,0.4,0.8,0.7,1.5,0.7s1.2-0.3,1.5-0.7c0.5-0.6,0.7-1.6,0.7-2.8s-0.2-2.2-0.7-2.8c-0.3-0.4-0.8-0.7-1.5-0.7s-1.2,0.3-1.5,0.7
					c-0.5,0.6-0.7,1.6-0.7,2.8S568.4,383.4,568.9,384z"/>
				<path fill="#231F20" d="M582.9,377.9c-0.8,0.7-3.6,3.2-4,8.2H577c0.4-5.5,3.9-8.2,3.9-8.2h-5.3v-1.6h7.3V377.9z"/>
			</g>
		</g>
		<g>
			<g>
				<path fill="#231F20" d="M612.7,386.2h-1.6l5.3-10.9h1.6L612.7,386.2z"/>
				<path fill="#231F20" d="M624.1,377.7c0.6-1,1.7-1.6,3.1-1.6s2.5,0.7,3.1,1.6c0.7,1,0.9,2.2,0.9,3.5s-0.2,2.5-0.9,3.5
					c-0.6,1-1.7,1.6-3.1,1.6s-2.5-0.7-3.1-1.6c-0.7-1-0.9-2.2-0.9-3.5S623.4,378.7,624.1,377.7z M625.7,384c0.3,0.4,0.8,0.7,1.5,0.7
					s1.2-0.3,1.5-0.7c0.5-0.6,0.7-1.6,0.7-2.8s-0.2-2.2-0.7-2.8c-0.3-0.4-0.8-0.7-1.5-0.7s-1.2,0.3-1.5,0.7
					c-0.5,0.6-0.7,1.6-0.7,2.8S625.2,383.4,625.7,384z"/>
				<path fill="#231F20" d="M634.9,386.1v-6.7h-2.4v-1.2c1.4,0,2.4-0.8,2.6-1.9h1.6v9.8H634.9z"/>
			</g>
		</g>
		<g>
			<g>
				<path fill="#231F20" d="M667.4,386.2h-1.6l5.3-10.9h1.6L667.4,386.2z"/>
				<path fill="#231F20" d="M678.8,377.7c0.6-1,1.7-1.6,3.1-1.6s2.5,0.7,3.1,1.6c0.7,1,0.9,2.2,0.9,3.5s-0.2,2.5-0.9,3.5
					c-0.6,1-1.7,1.6-3.1,1.6s-2.5-0.7-3.1-1.6c-0.7-1-0.9-2.2-0.9-3.5S678.1,378.7,678.8,377.7z M680.4,384c0.3,0.4,0.8,0.7,1.5,0.7
					s1.2-0.3,1.5-0.7c0.5-0.6,0.7-1.6,0.7-2.8s-0.2-2.2-0.7-2.8c-0.3-0.4-0.8-0.7-1.5-0.7s-1.2,0.3-1.5,0.7
					c-0.5,0.6-0.7,1.6-0.7,2.8S680,383.4,680.4,384z"/>
				<path fill="#231F20" d="M694.4,377.9c-0.8,0.7-3.6,3.2-4,8.2h-1.9c0.4-5.5,3.9-8.2,3.9-8.2h-5.3v-1.6h7.3V377.9z"/>
			</g>
		</g>
		<g>
			<g>
				<path fill="#231F20" d="M724.2,386.2h-1.6l5.3-10.9h1.6L724.2,386.2z"/>
				<path fill="#231F20" d="M735.6,377.7c0.6-1,1.7-1.6,3.1-1.6c1.5,0,2.5,0.7,3.1,1.6c0.7,1,0.9,2.2,0.9,3.5s-0.2,2.5-0.9,3.5
					c-0.6,1-1.7,1.6-3.1,1.6c-1.5,0-2.5-0.7-3.1-1.6c-0.7-1-0.9-2.2-0.9-3.5S734.9,378.7,735.6,377.7z M737.2,384
					c0.3,0.4,0.8,0.7,1.5,0.7s1.2-0.3,1.5-0.7c0.5-0.6,0.7-1.6,0.7-2.8s-0.2-2.2-0.7-2.8c-0.3-0.4-0.8-0.7-1.5-0.7s-1.2,0.3-1.5,0.7
					c-0.5,0.6-0.7,1.6-0.7,2.8S736.8,383.4,737.2,384z"/>
				<path fill="#231F20" d="M746.5,386.1v-6.7h-2.4v-1.2c1.4,0,2.4-0.8,2.6-1.9h1.6v9.8H746.5z"/>
			</g>
		</g>
		<g>
			<g>
				<path fill="#231F20" d="M778.1,386.2h-1.6l5.3-10.9h1.6L778.1,386.2z"/>
				<path fill="#231F20" d="M789.4,377.7c0.6-1,1.7-1.6,3.1-1.6c1.5,0,2.5,0.7,3.1,1.6c0.7,1,0.9,2.2,0.9,3.5s-0.2,2.5-0.9,3.5
					c-0.6,1-1.7,1.6-3.1,1.6c-1.5,0-2.5-0.7-3.1-1.6c-0.7-1-0.9-2.2-0.9-3.5S788.8,378.7,789.4,377.7z M791.1,384
					c0.3,0.4,0.8,0.7,1.5,0.7s1.2-0.3,1.5-0.7c0.5-0.6,0.7-1.6,0.7-2.8s-0.2-2.2-0.7-2.8c-0.3-0.4-0.8-0.7-1.5-0.7s-1.2,0.3-1.5,0.7
					c-0.5,0.6-0.7,1.6-0.7,2.8S790.6,383.4,791.1,384z"/>
				<path fill="#231F20" d="M805.1,377.9c-0.8,0.7-3.6,3.2-4,8.2h-1.9c0.4-5.5,3.9-8.2,3.9-8.2h-5.3v-1.6h7.3V377.9z"/>
			</g>
		</g>
		<g>
			<g>
				<path fill="#231F20" d="M163.1,359.4c0-0.1,0-0.4,0-0.6c0-1.7,1.3-3.2,3.5-3.2c2.2,0,3.5,1.4,3.5,3.1c0,1.3-0.7,2.3-1.9,3
					l-1.9,1.2c-0.5,0.3-0.9,0.6-1,1.1h4.9v1.6h-7.1c0-1.7,0.6-3,2.3-4.1l1.6-1c0.9-0.5,1.3-1.1,1.3-1.9c0-0.8-0.5-1.5-1.7-1.5
					c-1.2,0-1.7,0.8-1.7,1.8c0,0.2,0,0.3,0,0.5L163.1,359.4z"/>
				<path fill="#231F20" d="M172.5,357.2c0.6-1,1.7-1.6,3.1-1.6s2.5,0.7,3.1,1.6c0.7,1,0.9,2.2,0.9,3.5s-0.2,2.5-0.9,3.5
					c-0.6,1-1.7,1.6-3.1,1.6s-2.5-0.7-3.1-1.6c-0.7-1-0.9-2.2-0.9-3.5S171.9,358.2,172.5,357.2z M174.1,363.5
					c0.3,0.4,0.8,0.7,1.5,0.7s1.2-0.3,1.5-0.7c0.5-0.6,0.7-1.6,0.7-2.8c0-1.2-0.2-2.2-0.7-2.8c-0.3-0.4-0.8-0.7-1.5-0.7
					s-1.2,0.3-1.5,0.7c-0.5,0.6-0.7,1.6-0.7,2.8C173.5,362,173.7,362.9,174.1,363.5z"/>
				<path fill="#231F20" d="M183.4,365.7v-6.7H181v-1.2c1.4,0,2.4-0.8,2.6-1.9h1.6v9.8H183.4z"/>
				<path fill="#231F20" d="M187.5,359.4c0-0.1,0-0.4,0-0.6c0-1.7,1.3-3.2,3.5-3.2c2.2,0,3.5,1.4,3.5,3.1c0,1.3-0.7,2.3-1.9,3
					l-1.9,1.2c-0.5,0.3-0.9,0.6-1,1.1h4.9v1.6h-7.1c0-1.7,0.6-3,2.3-4.1l1.6-1c0.9-0.5,1.3-1.1,1.3-1.9c0-0.8-0.5-1.5-1.7-1.5
					c-1.2,0-1.7,0.8-1.7,1.8c0,0.2,0,0.3,0,0.5L187.5,359.4z"/>
			</g>
		</g>
		<g>
			<g>
				<path fill="#231F20" d="M218.5,359.4c0-0.1,0-0.4,0-0.6c0-1.7,1.3-3.2,3.5-3.2c2.2,0,3.5,1.4,3.5,3.1c0,1.3-0.7,2.3-1.9,3
					l-1.9,1.2c-0.5,0.3-0.9,0.6-1,1.1h4.9v1.6h-7.1c0-1.7,0.6-3,2.3-4.1l1.6-1c0.9-0.5,1.3-1.1,1.3-1.9c0-0.8-0.5-1.5-1.7-1.5
					c-1.2,0-1.7,0.8-1.7,1.8c0,0.2,0,0.3,0,0.5L218.5,359.4z"/>
				<path fill="#231F20" d="M228,357.2c0.6-1,1.7-1.6,3.1-1.6s2.5,0.7,3.1,1.6c0.7,1,0.9,2.2,0.9,3.5s-0.2,2.5-0.9,3.5
					c-0.6,1-1.7,1.6-3.1,1.6s-2.5-0.7-3.1-1.6c-0.7-1-0.9-2.2-0.9-3.5S227.3,358.2,228,357.2z M229.6,363.5c0.3,0.4,0.8,0.7,1.5,0.7
					s1.2-0.3,1.5-0.7c0.5-0.6,0.7-1.6,0.7-2.8c0-1.2-0.2-2.2-0.7-2.8c-0.3-0.4-0.8-0.7-1.5-0.7s-1.2,0.3-1.5,0.7
					c-0.5,0.6-0.7,1.6-0.7,2.8C228.9,362,229.1,362.9,229.6,363.5z"/>
				<path fill="#231F20" d="M238.9,365.7v-6.7h-2.4v-1.2c1.4,0,2.4-0.8,2.6-1.9h1.6v9.8H238.9z"/>
				<path fill="#231F20" d="M242.9,359.4c0-0.1,0-0.4,0-0.6c0-1.7,1.3-3.2,3.5-3.2c2.2,0,3.5,1.4,3.5,3.1c0,1.3-0.7,2.3-1.9,3
					l-1.9,1.2c-0.5,0.3-0.9,0.6-1,1.1h4.9v1.6h-7.1c0-1.7,0.6-3,2.3-4.1l1.6-1c0.9-0.5,1.3-1.1,1.3-1.9c0-0.8-0.5-1.5-1.7-1.5
					c-1.2,0-1.7,0.8-1.7,1.8c0,0.2,0,0.3,0,0.5L242.9,359.4z"/>
			</g>
		</g>
		<g>
			<g>
				<path fill="#231F20" d="M274,359.4c0-0.1,0-0.4,0-0.6c0-1.7,1.3-3.2,3.5-3.2c2.2,0,3.5,1.4,3.5,3.1c0,1.3-0.7,2.3-1.9,3
					l-1.9,1.2c-0.5,0.3-0.9,0.6-1,1.1h4.9v1.6h-7.1c0-1.7,0.6-3,2.3-4.1l1.6-1c0.9-0.5,1.3-1.1,1.3-1.9c0-0.8-0.5-1.5-1.7-1.5
					c-1.2,0-1.7,0.8-1.7,1.8c0,0.2,0,0.3,0,0.5L274,359.4z"/>
				<path fill="#231F20" d="M283.4,357.2c0.6-1,1.7-1.6,3.1-1.6s2.5,0.7,3.1,1.6c0.7,1,0.9,2.2,0.9,3.5s-0.2,2.5-0.9,3.5
					c-0.6,1-1.7,1.6-3.1,1.6s-2.5-0.7-3.1-1.6c-0.7-1-0.9-2.2-0.9-3.5S282.8,358.2,283.4,357.2z M285.1,363.5
					c0.3,0.4,0.8,0.7,1.5,0.7s1.2-0.3,1.5-0.7c0.5-0.6,0.7-1.6,0.7-2.8c0-1.2-0.2-2.2-0.7-2.8c-0.3-0.4-0.8-0.7-1.5-0.7
					s-1.2,0.3-1.5,0.7c-0.5,0.6-0.7,1.6-0.7,2.8C284.4,362,284.6,362.9,285.1,363.5z"/>
				<path fill="#231F20" d="M294.3,365.7v-6.7h-2.4v-1.2c1.4,0,2.4-0.8,2.6-1.9h1.6v9.8H294.3z"/>
				<path fill="#231F20" d="M300.2,359.8l2.7-2.4h-4.5v-1.6h6.8v1.5l-2.7,2.3c1.5,0,2.9,1.1,2.9,3c0,1.7-1.3,3.2-3.7,3.2
					c-2.3,0-3.6-1.5-3.7-3.1l1.8-0.4c0,1.1,0.9,1.9,2,1.9c1.2,0,1.9-0.8,1.9-1.7c0-1.1-0.9-1.6-1.7-1.6c-0.5,0-0.8,0.1-0.9,0.2
					L300.2,359.8z"/>
			</g>
		</g>
		<g>
			<g>
				<path fill="#231F20" d="M329.6,359.4c0-0.1,0-0.4,0-0.6c0-1.7,1.3-3.2,3.5-3.2c2.2,0,3.5,1.4,3.5,3.1c0,1.3-0.7,2.3-1.9,3
					l-1.9,1.2c-0.5,0.3-0.9,0.6-1,1.1h4.9v1.6h-7.1c0-1.7,0.6-3,2.3-4.1l1.6-1c0.9-0.5,1.3-1.1,1.3-1.9c0-0.8-0.5-1.5-1.7-1.5
					c-1.2,0-1.7,0.8-1.7,1.8c0,0.2,0,0.3,0,0.5L329.6,359.4z"/>
				<path fill="#231F20" d="M339,357.2c0.6-1,1.7-1.6,3.1-1.6s2.5,0.7,3.1,1.6c0.7,1,0.9,2.2,0.9,3.5s-0.2,2.5-0.9,3.5
					c-0.6,1-1.7,1.6-3.1,1.6s-2.5-0.7-3.1-1.6c-0.7-1-0.9-2.2-0.9-3.5S338.4,358.2,339,357.2z M340.7,363.5c0.3,0.4,0.8,0.7,1.5,0.7
					s1.2-0.3,1.5-0.7c0.5-0.6,0.7-1.6,0.7-2.8c0-1.2-0.2-2.2-0.7-2.8c-0.3-0.4-0.8-0.7-1.5-0.7s-1.2,0.3-1.5,0.7
					c-0.5,0.6-0.7,1.6-0.7,2.8C340,362,340.2,362.9,340.7,363.5z"/>
				<path fill="#231F20" d="M349.9,365.7v-6.7h-2.4v-1.2c1.4,0,2.4-0.8,2.6-1.9h1.6v9.8H349.9z"/>
				<path fill="#231F20" d="M355.8,359.8l2.7-2.4H354v-1.6h6.8v1.5l-2.7,2.3c1.5,0,2.9,1.1,2.9,3c0,1.7-1.3,3.2-3.7,3.2
					c-2.3,0-3.6-1.5-3.7-3.1l1.8-0.4c0,1.1,0.9,1.9,2,1.9c1.2,0,1.9-0.8,1.9-1.7c0-1.1-0.9-1.6-1.7-1.6c-0.5,0-0.8,0.1-0.9,0.2
					L355.8,359.8z"/>
			</g>
		</g>
		<g>
			<g>
				<path fill="#231F20" d="M385.2,359.4c0-0.1,0-0.4,0-0.6c0-1.7,1.3-3.2,3.5-3.2c2.2,0,3.5,1.4,3.5,3.1c0,1.3-0.7,2.3-1.9,3
					l-1.9,1.2c-0.5,0.3-0.9,0.6-1,1.1h4.9v1.6H385c0-1.7,0.6-3,2.3-4.1l1.6-1c0.9-0.5,1.3-1.1,1.3-1.9c0-0.8-0.5-1.5-1.7-1.5
					c-1.2,0-1.7,0.8-1.7,1.8c0,0.2,0,0.3,0,0.5L385.2,359.4z"/>
				<path fill="#231F20" d="M394.6,357.2c0.6-1,1.7-1.6,3.1-1.6c1.5,0,2.5,0.7,3.1,1.6c0.7,1,0.9,2.2,0.9,3.5s-0.2,2.5-0.9,3.5
					c-0.6,1-1.7,1.6-3.1,1.6c-1.5,0-2.5-0.7-3.1-1.6c-0.7-1-0.9-2.2-0.9-3.5S394,358.2,394.6,357.2z M396.3,363.5
					c0.3,0.4,0.8,0.7,1.5,0.7s1.2-0.3,1.5-0.7c0.5-0.6,0.7-1.6,0.7-2.8c0-1.2-0.2-2.2-0.7-2.8c-0.3-0.4-0.8-0.7-1.5-0.7
					s-1.2,0.3-1.5,0.7c-0.5,0.6-0.7,1.6-0.7,2.8C395.6,362,395.8,362.9,396.3,363.5z"/>
				<path fill="#231F20" d="M405.5,365.7v-6.7h-2.4v-1.2c1.4,0,2.4-0.8,2.6-1.9h1.6v9.8H405.5z"/>
				<path fill="#231F20" d="M409.3,361.5l4.2-5.7h2.3v6.1h1.7v1.6h-1.7v2.2H414v-2.2h-4.7V361.5z M414,357.7l-3.1,4.2h3.1V357.7z"/>
			</g>
		</g>
		<g>
			<g>
				<path fill="#231F20" d="M441.2,359.4c0-0.1,0-0.4,0-0.6c0-1.7,1.3-3.2,3.5-3.2c2.2,0,3.5,1.4,3.5,3.1c0,1.3-0.7,2.3-1.9,3
					l-1.9,1.2c-0.5,0.3-0.9,0.6-1,1.1h4.9v1.6h-7.1c0-1.7,0.6-3,2.3-4.1l1.6-1c0.9-0.5,1.3-1.1,1.3-1.9c0-0.8-0.5-1.5-1.7-1.5
					c-1.2,0-1.7,0.8-1.7,1.8c0,0.2,0,0.3,0,0.5L441.2,359.4z"/>
				<path fill="#231F20" d="M450.7,357.2c0.6-1,1.7-1.6,3.1-1.6c1.5,0,2.5,0.7,3.1,1.6c0.7,1,0.9,2.2,0.9,3.5s-0.2,2.5-0.9,3.5
					c-0.6,1-1.7,1.6-3.1,1.6c-1.5,0-2.5-0.7-3.1-1.6c-0.7-1-0.9-2.2-0.9-3.5S450,358.2,450.7,357.2z M452.3,363.5
					c0.3,0.4,0.8,0.7,1.5,0.7s1.2-0.3,1.5-0.7c0.5-0.6,0.7-1.6,0.7-2.8c0-1.2-0.2-2.2-0.7-2.8c-0.3-0.4-0.8-0.7-1.5-0.7
					s-1.2,0.3-1.5,0.7c-0.5,0.6-0.7,1.6-0.7,2.8C451.6,362,451.8,362.9,452.3,363.5z"/>
				<path fill="#231F20" d="M461.6,365.7v-6.7h-2.4v-1.2c1.4,0,2.4-0.8,2.6-1.9h1.6v9.8H461.6z"/>
				<path fill="#231F20" d="M465.4,361.5l4.2-5.7h2.3v6.1h1.7v1.6h-1.7v2.2h-1.8v-2.2h-4.7V361.5z M470.1,357.7l-3.1,4.2h3.1V357.7z
					"/>
			</g>
		</g>
		<g>
			<g>
				<path fill="#231F20" d="M497.3,359.4c0-0.1,0-0.4,0-0.6c0-1.7,1.3-3.2,3.5-3.2c2.2,0,3.5,1.4,3.5,3.1c0,1.3-0.7,2.3-1.9,3
					l-1.9,1.2c-0.5,0.3-0.9,0.6-1,1.1h4.9v1.6h-7.1c0-1.7,0.6-3,2.3-4.1l1.6-1c0.9-0.5,1.3-1.1,1.3-1.9c0-0.8-0.5-1.5-1.7-1.5
					c-1.2,0-1.7,0.8-1.7,1.8c0,0.2,0,0.3,0,0.5L497.3,359.4z"/>
				<path fill="#231F20" d="M506.8,357.2c0.6-1,1.7-1.6,3.1-1.6c1.5,0,2.5,0.7,3.1,1.6c0.7,1,0.9,2.2,0.9,3.5s-0.2,2.5-0.9,3.5
					c-0.6,1-1.7,1.6-3.1,1.6c-1.5,0-2.5-0.7-3.1-1.6c-0.7-1-0.9-2.2-0.9-3.5S506.1,358.2,506.8,357.2z M508.4,363.5
					c0.3,0.4,0.8,0.7,1.5,0.7s1.2-0.3,1.5-0.7c0.5-0.6,0.7-1.6,0.7-2.8c0-1.2-0.2-2.2-0.7-2.8c-0.3-0.4-0.8-0.7-1.5-0.7
					s-1.2,0.3-1.5,0.7c-0.5,0.6-0.7,1.6-0.7,2.8C507.7,362,507.9,362.9,508.4,363.5z"/>
				<path fill="#231F20" d="M517.6,365.7v-6.7h-2.4v-1.2c1.4,0,2.4-0.8,2.6-1.9h1.6v9.8H517.6z"/>
				<path fill="#231F20" d="M523.2,362.5c0.1,1,0.8,1.8,2,1.8c1,0,1.9-0.7,1.9-1.8c0-1.2-0.9-1.8-1.9-1.8c-0.7,0-1.3,0.3-1.6,0.7
					l-1.7-0.6l1.2-5h5.4v1.6h-4.2l-0.6,2.5c0.4-0.4,1.2-0.7,1.9-0.7c2,0,3.4,1.2,3.4,3.3c0,1.9-1.4,3.4-3.7,3.4
					c-2.1,0-3.6-1.4-3.7-3L523.2,362.5z"/>
			</g>
		</g>
		<g>
			<g>
				<path fill="#231F20" d="M552.9,359.4c0-0.1,0-0.4,0-0.6c0-1.7,1.3-3.2,3.5-3.2c2.2,0,3.5,1.4,3.5,3.1c0,1.3-0.7,2.3-1.9,3
					l-1.9,1.2c-0.5,0.3-0.9,0.6-1,1.1h4.9v1.6h-7.1c0-1.7,0.6-3,2.3-4.1l1.6-1c0.9-0.5,1.3-1.1,1.3-1.9c0-0.8-0.5-1.5-1.7-1.5
					c-1.2,0-1.7,0.8-1.7,1.8c0,0.2,0,0.3,0,0.5L552.9,359.4z"/>
				<path fill="#231F20" d="M562.3,357.2c0.6-1,1.7-1.6,3.1-1.6c1.5,0,2.5,0.7,3.1,1.6c0.7,1,0.9,2.2,0.9,3.5s-0.2,2.5-0.9,3.5
					c-0.6,1-1.7,1.6-3.1,1.6c-1.5,0-2.5-0.7-3.1-1.6c-0.7-1-0.9-2.2-0.9-3.5S561.7,358.2,562.3,357.2z M564,363.5
					c0.3,0.4,0.8,0.7,1.5,0.7s1.2-0.3,1.5-0.7c0.5-0.6,0.7-1.6,0.7-2.8c0-1.2-0.2-2.2-0.7-2.8c-0.3-0.4-0.8-0.7-1.5-0.7
					s-1.2,0.3-1.5,0.7c-0.5,0.6-0.7,1.6-0.7,2.8C563.3,362,563.5,362.9,564,363.5z"/>
				<path fill="#231F20" d="M573.2,365.7v-6.7h-2.4v-1.2c1.4,0,2.4-0.8,2.6-1.9h1.6v9.8H573.2z"/>
				<path fill="#231F20" d="M578.8,362.5c0.1,1,0.8,1.8,2,1.8c1,0,1.9-0.7,1.9-1.8c0-1.2-0.9-1.8-1.9-1.8c-0.7,0-1.3,0.3-1.6,0.7
					l-1.7-0.6l1.2-5h5.4v1.6h-4.2l-0.6,2.5c0.4-0.4,1.2-0.7,1.9-0.7c2,0,3.4,1.2,3.4,3.3c0,1.9-1.4,3.4-3.7,3.4
					c-2.1,0-3.6-1.4-3.7-3L578.8,362.5z"/>
			</g>
		</g>
		<g>
			<g>
				<path fill="#231F20" d="M608.5,359.4c0-0.1,0-0.4,0-0.6c0-1.7,1.3-3.2,3.5-3.2c2.2,0,3.5,1.4,3.5,3.1c0,1.3-0.7,2.3-1.9,3
					l-1.9,1.2c-0.5,0.3-0.9,0.6-1,1.1h4.9v1.6h-7.1c0-1.7,0.6-3,2.3-4.1l1.6-1c0.9-0.5,1.3-1.1,1.3-1.9c0-0.8-0.5-1.5-1.7-1.5
					c-1.2,0-1.7,0.8-1.7,1.8c0,0.2,0,0.3,0,0.5L608.5,359.4z"/>
				<path fill="#231F20" d="M617.9,357.2c0.6-1,1.7-1.6,3.1-1.6c1.5,0,2.5,0.7,3.1,1.6c0.7,1,0.9,2.2,0.9,3.5s-0.2,2.5-0.9,3.5
					c-0.6,1-1.7,1.6-3.1,1.6c-1.5,0-2.5-0.7-3.1-1.6c-0.7-1-0.9-2.2-0.9-3.5S617.3,358.2,617.9,357.2z M619.6,363.5
					c0.3,0.4,0.8,0.7,1.5,0.7s1.2-0.3,1.5-0.7c0.5-0.6,0.7-1.6,0.7-2.8c0-1.2-0.2-2.2-0.7-2.8c-0.3-0.4-0.8-0.7-1.5-0.7
					s-1.2,0.3-1.5,0.7c-0.5,0.6-0.7,1.6-0.7,2.8C618.9,362,619.1,362.9,619.6,363.5z"/>
				<path fill="#231F20" d="M628.8,365.7v-6.7h-2.4v-1.2c1.4,0,2.4-0.8,2.6-1.9h1.6v9.8H628.8z"/>
				<path fill="#231F20" d="M639.8,357.6c-0.4-0.2-0.9-0.4-1.7-0.4c-1.9,0-3.2,1.2-3.4,3.1c0.5-0.8,1.5-1.2,2.5-1.2
					c2,0,3.3,1.3,3.3,3.3c0,2-1.7,3.4-3.7,3.4c-2.5,0-3.9-2-3.9-4.6c0-3.6,2.2-5.7,5.3-5.7c0.9,0,1.7,0.2,2.1,0.5L639.8,357.6z
					 M636.9,364.3c1,0,1.9-0.7,1.9-1.8c0-1.2-0.9-1.8-1.9-1.8s-1.9,0.7-1.9,1.8C634.9,363.6,635.9,364.3,636.9,364.3z"/>
			</g>
		</g>
		<g>
			<g>
				<path fill="#231F20" d="M664.6,359.4c0-0.1,0-0.4,0-0.6c0-1.7,1.3-3.2,3.5-3.2c2.2,0,3.5,1.4,3.5,3.1c0,1.3-0.7,2.3-1.9,3
					l-1.9,1.2c-0.5,0.3-0.9,0.6-1,1.1h4.9v1.6h-7.1c0-1.7,0.6-3,2.3-4.1l1.6-1c0.9-0.5,1.3-1.1,1.3-1.9c0-0.8-0.5-1.5-1.7-1.5
					c-1.2,0-1.7,0.8-1.7,1.8c0,0.2,0,0.3,0,0.5L664.6,359.4z"/>
				<path fill="#231F20" d="M674,357.2c0.6-1,1.7-1.6,3.1-1.6c1.5,0,2.5,0.7,3.1,1.6c0.7,1,0.9,2.2,0.9,3.5s-0.2,2.5-0.9,3.5
					c-0.6,1-1.7,1.6-3.1,1.6c-1.5,0-2.5-0.7-3.1-1.6c-0.7-1-0.9-2.2-0.9-3.5S673.4,358.2,674,357.2z M675.7,363.5
					c0.3,0.4,0.8,0.7,1.5,0.7s1.2-0.3,1.5-0.7c0.5-0.6,0.7-1.6,0.7-2.8c0-1.2-0.2-2.2-0.7-2.8c-0.3-0.4-0.8-0.7-1.5-0.7
					s-1.2,0.3-1.5,0.7c-0.5,0.6-0.7,1.6-0.7,2.8C675,362,675.2,362.9,675.7,363.5z"/>
				<path fill="#231F20" d="M684.9,365.7v-6.7h-2.4v-1.2c1.4,0,2.4-0.8,2.6-1.9h1.6v9.8H684.9z"/>
				<path fill="#231F20" d="M695.9,357.6c-0.4-0.2-0.9-0.4-1.7-0.4c-1.9,0-3.2,1.2-3.4,3.1c0.5-0.8,1.5-1.2,2.5-1.2
					c2,0,3.3,1.3,3.3,3.3c0,2-1.7,3.4-3.7,3.4c-2.5,0-3.9-2-3.9-4.6c0-3.6,2.2-5.7,5.3-5.7c0.9,0,1.7,0.2,2.1,0.5L695.9,357.6z
					 M692.9,364.3c1,0,1.9-0.7,1.9-1.8c0-1.2-0.9-1.8-1.9-1.8s-1.9,0.7-1.9,1.8C691,363.6,691.9,364.3,692.9,364.3z"/>
			</g>
		</g>
		<g>
			<g>
				<path fill="#231F20" d="M720.7,359.4c0-0.1,0-0.4,0-0.6c0-1.7,1.3-3.2,3.5-3.2c2.2,0,3.5,1.4,3.5,3.1c0,1.3-0.7,2.3-1.9,3
					l-1.9,1.2c-0.5,0.3-0.9,0.6-1,1.1h4.9v1.6h-7.1c0-1.7,0.6-3,2.3-4.1l1.6-1c0.9-0.5,1.3-1.1,1.3-1.9c0-0.8-0.5-1.5-1.7-1.5
					c-1.2,0-1.7,0.8-1.7,1.8c0,0.2,0,0.3,0,0.5L720.7,359.4z"/>
				<path fill="#231F20" d="M730.1,357.2c0.6-1,1.7-1.6,3.1-1.6c1.5,0,2.5,0.7,3.1,1.6c0.7,1,0.9,2.2,0.9,3.5s-0.2,2.5-0.9,3.5
					c-0.6,1-1.7,1.6-3.1,1.6c-1.5,0-2.5-0.7-3.1-1.6c-0.7-1-0.9-2.2-0.9-3.5S729.5,358.2,730.1,357.2z M731.8,363.5
					c0.3,0.4,0.8,0.7,1.5,0.7s1.2-0.3,1.5-0.7c0.5-0.6,0.7-1.6,0.7-2.8c0-1.2-0.2-2.2-0.7-2.8c-0.3-0.4-0.8-0.7-1.5-0.7
					s-1.2,0.3-1.5,0.7c-0.5,0.6-0.7,1.6-0.7,2.8C731.1,362,731.3,362.9,731.8,363.5z"/>
				<path fill="#231F20" d="M741,365.7v-6.7h-2.4v-1.2c1.4,0,2.4-0.8,2.6-1.9h1.6v9.8H741z"/>
				<path fill="#231F20" d="M751.9,357.4c-0.8,0.7-3.6,3.2-4,8.2h-1.9c0.4-5.5,3.9-8.2,3.9-8.2h-5.3v-1.6h7.3V357.4z"/>
			</g>
		</g>
		<g>
			<g>
				<path fill="#231F20" d="M775.5,359.4c0-0.1,0-0.4,0-0.6c0-1.7,1.3-3.2,3.5-3.2c2.2,0,3.5,1.4,3.5,3.1c0,1.3-0.7,2.3-1.9,3
					l-1.9,1.2c-0.5,0.3-0.9,0.6-1,1.1h4.9v1.6h-7.1c0-1.7,0.6-3,2.3-4.1l1.6-1c0.9-0.5,1.3-1.1,1.3-1.9c0-0.8-0.5-1.5-1.7-1.5
					c-1.2,0-1.7,0.8-1.7,1.8c0,0.2,0,0.3,0,0.5L775.5,359.4z"/>
				<path fill="#231F20" d="M784.9,357.2c0.6-1,1.7-1.6,3.1-1.6c1.5,0,2.5,0.7,3.1,1.6c0.7,1,0.9,2.2,0.9,3.5s-0.2,2.5-0.9,3.5
					c-0.6,1-1.7,1.6-3.1,1.6c-1.5,0-2.5-0.7-3.1-1.6c-0.7-1-0.9-2.2-0.9-3.5S784.3,358.2,784.9,357.2z M786.6,363.5
					c0.3,0.4,0.8,0.7,1.5,0.7s1.2-0.3,1.5-0.7c0.5-0.6,0.7-1.6,0.7-2.8c0-1.2-0.2-2.2-0.7-2.8c-0.3-0.4-0.8-0.7-1.5-0.7
					s-1.2,0.3-1.5,0.7c-0.5,0.6-0.7,1.6-0.7,2.8C785.9,362,786.1,362.9,786.6,363.5z"/>
				<path fill="#231F20" d="M795.8,365.7v-6.7h-2.4v-1.2c1.4,0,2.4-0.8,2.6-1.9h1.6v9.8H795.8z"/>
				<path fill="#231F20" d="M806.7,357.4c-0.8,0.7-3.6,3.2-4,8.2h-1.9c0.4-5.5,3.9-8.2,3.9-8.2h-5.3v-1.6h7.3V357.4z"/>
			</g>
		</g>
		<g>
			<g>
				<path fill="#231F20" d="M106.7,414.9c0,0.4,0,0.7,0,1.1c0.5,2.8,1.2,4.4,2.8,5.9c-0.3,0.2-0.5,0.5-0.7,0.8
					c-1.2-1.2-1.9-2.5-2.4-4.2c-0.4,1.4-1,3-2.3,4.2c-0.2-0.3-0.5-0.6-0.7-0.8l0,0c-0.3,0-0.7,0-1.1,0h-3.1c-1.5,0-2-0.5-2-2.1v-8.4
					h-0.5v-0.9h6.8v0.9h-5.4v8.4c0,0.8,0.3,1.1,1,1.1h3.2c0.4,0,1,0,1.3-0.1c0,0.2,0.1,0.5,0.1,0.7c2-2.2,2.1-4.9,2.1-6.8V414h1
					V414.9z M98.6,416.6h2.1v3.5h-2.1V416.6z M102.7,415.7h-3.6v-3.2h3.6V415.7z M99.2,419.5h0.9v-2.2h-0.9V419.5z M101.9,413.2h-2
					v1.8h2V413.2z M103.4,420.1h-2.2v-3.5h2.2V420.1z M102.8,417.3h-1v2.1h1V417.3z M105.2,413.1c-0.3,1.1-0.7,2.1-1.2,2.8
					c-0.2-0.2-0.6-0.5-0.8-0.6c0.9-1.3,1.5-3.3,1.8-5.5l1,0.2c-0.1,0.7-0.2,1.4-0.4,2.1h3.3l0.2-0.1l0.7,0.2c-0.3,1.3-0.6,2.7-1,3.6
					l-0.8-0.3c0.2-0.7,0.5-1.7,0.7-2.6H105.2z"/>
				<path fill="#231F20" d="M113.4,416c-0.5-0.4-1.6-1-2.4-1.4l0.6-0.8c0.8,0.4,1.8,0.9,2.4,1.3L113.4,416z M111.4,422.1
					c0.6-1.1,1.4-2.9,1.9-4.5l0.8,0.6c-0.5,1.5-1.2,3.2-1.8,4.5L111.4,422.1z M113.9,412.4c-0.5-0.5-1.5-1.1-2.3-1.5l0.6-0.7
					c0.8,0.4,1.8,1,2.3,1.5L113.9,412.4z M116.2,410.3h1v4.9c0,2.7-0.2,5.5-2,7.7c-0.2-0.2-0.6-0.5-0.9-0.6c1.7-2,1.9-4.5,1.9-7
					V410.3z M115.3,417.7c-0.1-0.9-0.5-2.3-1-3.3l0.8-0.3c0.4,1.1,0.9,2.4,1,3.3L115.3,417.7z M118,414.1c0.4,1,0.8,2.3,1,3.1
					l-0.8,0.3c-0.1-0.8-0.5-2.1-0.9-3.1L118,414.1z M123.3,410.2v12.5h-1v-5.6l-0.7,0.3c-0.2-0.8-0.8-2.1-1.3-3.1v8.1h-1v-12h1v3.7
					l0.6-0.3c0.6,1,1.2,2.2,1.4,3.1v-6.8H123.3z"/>
				<path fill="#231F20" d="M135.7,421.2c0.8,0,1.8-0.1,2.3-0.2c0,0.3,0.1,0.8,0.2,1c-0.4,0.1-1.4,0.1-2.5,0.1h-6.2
					c-2.2,0-3.2-0.7-3.2-2.7v-7.9h-0.6v-0.9h11.8v0.9h-10.2v7.9c0,1.2,0.5,1.7,2.1,1.7H135.7z M128.5,416.5h3.7v3.6h-3.7V416.5z
					 M129.4,419.3h1.9v-2.1h-1.9V419.3z M135.2,415.5H130v-3.1h5.2V415.5z M134.2,413.2H131v1.6h3.2V413.2z M136.9,420.1h-3.8v-3.6
					h3.8V420.1z M135.9,417.3h-2v2.1h2V417.3z"/>
			</g>
			<circle fill="#002A5E" cx="74.8" cy="416.9" r="10.3"/>
		</g>
		<g>
			<g>
				<path fill="#231F20" d="M235.8,413.3c-0.3,0.6-0.7,1.3-1.2,1.9v7.5h-1v-6.2c-0.5,0.6-1,1.2-1.4,1.6c-0.1-0.2-0.4-0.7-0.6-0.9
					c1.2-1.1,2.4-2.7,3.3-4.3L235.8,413.3z M235.6,410.3c-0.9,1.2-2.2,2.6-3.3,3.5c-0.1-0.2-0.4-0.6-0.5-0.8c1-0.8,2.3-2.1,2.9-3.1
					L235.6,410.3z M235.1,421.8c0.6-0.7,1-1.8,1.3-2.6l0.8,0.3c-0.3,0.9-0.7,2-1.3,2.7L235.1,421.8z M244.7,418.2h-9v-0.9h9V418.2z
					 M239.3,413c0.1-0.3,0.1-0.6,0.2-1h-3.6v-0.9h3.8c0.1-0.4,0.1-0.8,0.1-1.2l1.1,0.1c-0.1,0.4-0.1,0.8-0.2,1.1h4v0.9h-4.1
					c-0.1,0.4-0.1,0.7-0.2,1h3.8v3.5h-7.7V413H239.3z M238.7,413.8h-1.4v1.9h1.4V413.8z M241.2,421.8c0.5,0,0.5-0.2,0.6-1.3
					c0.2,0.2,0.6,0.3,0.8,0.3c-0.1,1.5-0.4,1.8-1.3,1.8h-2.1c-1.2,0-1.5-0.3-1.5-1.2v-2.1h0.9v2.1c0,0.3,0.1,0.4,0.6,0.4H241.2z
					 M240.2,420.4c-0.2-0.5-0.6-1.2-1-1.8l0.8-0.3c0.4,0.5,0.8,1.3,1,1.7L240.2,420.4z M240.9,413.8h-1.5v1.9h1.5V413.8z
					 M241.7,415.7h1.5v-1.9h-1.5V415.7z M243.2,419.1c0.6,0.8,1.2,2,1.4,2.7l-0.8,0.4c-0.2-0.7-0.8-1.9-1.4-2.7L243.2,419.1z"/>
				<path fill="#231F20" d="M258.5,410.6v12.2h-1v-0.6h-9.7v0.6h-1v-12.2H258.5z M257.4,421.2v-9.7h-9.7v9.7H257.4z M252.7,419.1
					c-1.5,0.3-3,0.6-4.1,0.8l-0.1-0.8c1.1-0.2,2.6-0.5,4.2-0.7L252.7,419.1z M256.2,415c-0.4,1.3-0.9,2.5-1.6,3.4
					c0.3,0.7,0.7,1.2,1.1,1.3c0.2,0.1,0.3-0.5,0.4-1.4c0.2,0.2,0.5,0.4,0.7,0.5c-0.2,1.5-0.7,2.1-1.4,1.8c-0.6-0.1-1.1-0.6-1.5-1.4
					c-0.5,0.6-1.2,1.2-1.9,1.6c-0.1-0.2-0.4-0.5-0.6-0.7c0.8-0.5,1.5-1.1,2.1-1.8c-0.4-1.1-0.6-2.6-0.8-4.2h-4.3v-0.8h4.2
					c0-0.5-0.1-1-0.1-1.5h0.9c0,0.5,0.1,1,0.1,1.5h3.1v0.8h-3c0.1,1.2,0.3,2.3,0.5,3.2c0.5-0.8,0.8-1.6,1-2.6L256.2,415z
					 M252.2,415.1v2.7h-3.1v-2.7H252.2z M251.4,415.7h-1.6v1.4h1.6V415.7z M255.9,413.2c-0.3-0.3-1-0.7-1.5-1l0.5-0.5
					c0.5,0.3,1.2,0.6,1.5,1L255.9,413.2z"/>
			</g>
			<circle fill="#0C56AB" cx="209.9" cy="416.9" r="10.3"/>
		</g>
		<g>
			<g>
				<path fill="#231F20" d="M355.1,416.2c-0.6-0.5-1.7-1.1-2.6-1.5l0.6-0.8c0.9,0.4,2,1,2.6,1.4L355.1,416.2z M353,421.9
					c0.7-1.1,1.9-2.9,2.7-4.5l0.8,0.7c-0.7,1.5-1.7,3.2-2.5,4.5L353,421.9z M353.8,410.1c0.9,0.4,2.1,1,2.7,1.5l-0.6,0.9
					c-0.6-0.5-1.7-1.2-2.6-1.6L353.8,410.1z M364.1,422.8c-0.1-0.4-0.4-0.9-0.6-1.4c-5.2,0.6-5.8,0.7-6.2,0.9
					c-0.1-0.2-0.2-0.8-0.4-1c0.3-0.1,0.5-0.4,0.9-0.9c0.3-0.4,1.2-1.9,1.9-3.5h-3.1v-1h3.6v-2.5h-3v-1h3v-2.4h1v2.4h3.1v1h-3.1v2.5
					h3.7v1h-4c-0.7,1.5-1.6,3-2.5,4.2l4.4-0.5c-0.4-0.6-0.8-1.3-1.3-1.8l0.8-0.4c1,1.2,2,2.9,2.5,4L364.1,422.8z"/>
				<path fill="#231F20" d="M379.2,410.6v12.2h-1v-0.6h-9.7v0.6h-1v-12.2H379.2z M378.1,421.2v-9.7h-9.7v9.7H378.1z M373.4,419.1
					c-1.5,0.3-3,0.6-4.1,0.8l-0.1-0.8c1.1-0.2,2.6-0.5,4.2-0.7L373.4,419.1z M376.9,415c-0.4,1.3-0.9,2.5-1.6,3.4
					c0.3,0.7,0.7,1.2,1.1,1.3c0.2,0.1,0.3-0.5,0.4-1.4c0.2,0.2,0.5,0.4,0.7,0.5c-0.2,1.5-0.7,2.1-1.4,1.8c-0.6-0.1-1.1-0.6-1.5-1.4
					c-0.5,0.6-1.2,1.2-1.9,1.6c-0.1-0.2-0.4-0.5-0.6-0.7c0.8-0.5,1.5-1.1,2.1-1.8c-0.4-1.1-0.6-2.6-0.8-4.2h-4.3v-0.8h4.2
					c0-0.5-0.1-1-0.1-1.5h0.9c0,0.5,0.1,1,0.1,1.5h3.1v0.8h-3c0.1,1.2,0.3,2.3,0.5,3.2c0.5-0.8,0.8-1.6,1-2.6L376.9,415z
					 M372.9,415.1v2.7h-3.1v-2.7H372.9z M372.1,415.7h-1.6v1.4h1.6V415.7z M376.6,413.2c-0.3-0.3-1-0.7-1.5-1l0.5-0.5
					c0.5,0.3,1.2,0.6,1.5,1L376.6,413.2z"/>
			</g>
			<circle fill="#73B564" cx="330.6" cy="416.9" r="10.3"/>
		</g>
		<g>
			<g>
				<path fill="#231F20" d="M481.6,411.9v2h3.5v8.8h-1v-0.8h-8.8v0.9h-1v-8.8h3.4v-2h-4.1v-1h12.3v1H481.6z M484.1,420.9v-2.4h-0.2
					H482c-1.2,0-1.4-0.3-1.4-1.4v-2.2h-2c-0.1,1.5-0.6,3.1-2.7,4.2c-0.1-0.2-0.4-0.6-0.6-0.7v2.6H484.1z M475.2,414.9v3.4
					c1.9-0.9,2.3-2.2,2.3-3.4H475.2z M480.6,411.9h-2v2h2V411.9z M481.6,414.9v2.2c0,0.4,0.1,0.4,0.5,0.4h1.7c0.1,0,0.2,0,0.3,0
					v-2.6H481.6z"/>
				<path fill="#231F20" d="M491.9,420.5c-1.5,0.4-3,0.8-4.2,1.1l-0.2-1c0.5-0.1,1.1-0.3,1.8-0.4v-3.8h-1.4v-1h1.4v-3.5h-1.6v-1h4.3
					v1h-1.7v3.5h1.4v1h-1.4v3.6l1.5-0.4L491.9,420.5z M494.8,415.9c0,2.8-0.4,5.2-3,6.9c-0.1-0.2-0.5-0.6-0.6-0.7
					c2.4-1.4,2.7-3.5,2.7-5.9l-0.6,0.3c-0.3-0.8-0.9-2-1.4-2.9l0.8-0.3c0.4,0.7,0.9,1.5,1.2,2.2v-5.5h0.9V415.9z M500.4,421.3v1
					h-5.9v-1h2.6V417h-1.7v-1h1.7v-4.1h-1.9v-1h4.9v1h-2v4.1h1.8v1h-1.8v4.3H500.4z"/>
				<path fill="#231F20" d="M514.6,416.5h-3.1v4.9c0,0.7-0.2,1-0.6,1.2c-0.5,0.2-1.2,0.2-2.4,0.2c-0.1-0.3-0.2-0.8-0.4-1.1
					c0.9,0,1.8,0,2,0c0.2,0,0.3-0.1,0.3-0.3v-4.8c-1.8,2.3-4.8,4.4-7.5,5.5c-0.2-0.3-0.5-0.7-0.7-0.9c2.5-0.9,5.3-2.8,7-4.7h-5.7
					c0.4-1.3,0.8-3.2,1.1-4.8h-1.4v-1h10.8v1h-2.5v3.8h3.1V416.5z M505.7,411.7c-0.3,1.2-0.6,2.7-0.9,3.8h5.5v-3.8H505.7z"/>
			</g>
			<circle fill="#7F58A5" cx="451.3" cy="416.9" r="10.3"/>
		</g>
		<g>
			<g>
				<path fill="#231F20" d="M619.9,419.2c-0.5,0.6-1.1,1.2-1.9,1.7c0.5,0.6,1.2,0.9,1.8,0.9c0.4,0,0.5-0.3,0.6-1.3
					c0.2,0.2,0.5,0.3,0.8,0.4c-0.2,1.5-0.5,1.9-1.4,1.9c-1,0-1.9-0.5-2.6-1.4c-1,0.5-2.1,1-3.1,1.3c-0.1-0.2-0.4-0.6-0.5-0.8
					c1.1-0.3,2.2-0.7,3.2-1.2c-0.4-0.6-0.6-1.3-0.9-2h-3.3v0.9l2.5-0.2v0.7c-0.8,0.1-1.7,0.2-2.5,0.2v1.3c0,0.5-0.1,0.8-0.5,0.9
					c-0.4,0.1-1.1,0.1-2.1,0.1c-0.1-0.2-0.2-0.6-0.3-0.8c0.8,0,1.5,0,1.7,0c0.2,0,0.3,0,0.3-0.2v-1.2l-2.9,0.3l-0.1-0.8
					c0.8-0.1,1.9-0.1,3-0.2v-1h-3v-0.8h3v-1c-0.9,0.1-1.8,0.2-2.6,0.2c0-0.2-0.1-0.5-0.2-0.7c1.9-0.1,4.2-0.4,5.5-0.7l0.6,0.7
					c-0.6,0.2-1.4,0.3-2.3,0.4v1.1h3.1c-0.1-0.6-0.2-1.3-0.3-2.1h1c0,0.7,0.1,1.4,0.3,2.1h4.4v0.8h-4.2c0.2,0.6,0.4,1.1,0.7,1.5
					c0.6-0.4,1.1-0.8,1.5-1.3L619.9,419.2z M620.9,415.6h-12.4v-0.8h5.7v-0.9h-4.3v-0.8h4.3v-0.9h-5.1v-0.8h2.9
					c-0.2-0.4-0.5-0.8-0.8-1.2l0.9-0.3c0.4,0.4,0.8,1,1,1.4l-0.1,0h3.4c0.3-0.4,0.6-1.1,0.8-1.5l1.1,0.3c-0.3,0.4-0.6,0.9-0.8,1.2
					h2.9v0.8h-5.1v0.9h4.4v0.8h-4.4v0.9h5.7V415.6z M619.6,417.7c-0.5-0.4-1.4-1-2.2-1.3l0.6-0.6c0.8,0.3,1.8,0.8,2.3,1.2
					L619.6,417.7z"/>
				<path fill="#231F20" d="M630,415c1,3.1,2.8,5.6,5.5,6.8c-0.3,0.2-0.6,0.7-0.8,1c-2.7-1.3-4.5-3.8-5.6-7c-0.7,2.7-2.2,5.4-5.6,7
					c-0.2-0.3-0.5-0.6-0.8-0.9c3.5-1.5,4.9-4.2,5.5-6.9H623V414h5.4c0.2-1.5,0.2-2.9,0.2-4h1.1c0,1.1,0,2.5-0.2,4h5.8v1.1H630z"/>
				<path fill="#231F20" d="M641.3,414.2h2.9v1h-2.9v0.4c0.7,0.6,2.3,2.3,2.7,2.7l-0.6,0.9c-0.4-0.5-1.4-1.6-2.1-2.3v6.1h-1v-6
					c-0.7,1.6-1.7,3.2-2.7,4.1c-0.1-0.3-0.4-0.7-0.6-1c1.1-1.1,2.3-3,3-4.7h-2.7v-1h3v-2.4c-0.9,0.2-1.8,0.3-2.7,0.5
					c0-0.3-0.2-0.6-0.3-0.8c2.1-0.3,4.5-0.8,5.8-1.4l0.8,0.8c-0.7,0.3-1.6,0.5-2.5,0.7V414.2z M646.3,419.3h-1v-7.7h1V419.3z
					 M649.3,410.1v11.2c0,0.7-0.2,1-0.6,1.2c-0.5,0.2-1.2,0.2-2.5,0.2c-0.1-0.3-0.2-0.8-0.4-1.1c1,0,1.9,0,2.1,0
					c0.3,0,0.4-0.1,0.4-0.4v-11.2H649.3z"/>
			</g>
			<circle fill="#C12B5D" cx="586.4" cy="416.9" r="10.3"/>
		</g>
		
			<polyline fill="none" stroke="#C12B5D" stroke-width="1.4966" stroke-linecap="round" stroke-linejoin="round" stroke-miterlimit="10" points="
			73.6,142.1 82.9,103.9 92,116.2 101.3,124.1 110.7,163.4 120,192.7 129.1,184.8 138.4,197.3 147.7,200.6 156.8,252.2 166.1,233.3 
			175.5,240 184.8,223.2 193.9,234.2 203.2,224.2 212.5,256.8 221.6,247.9 230.9,250.1 240.3,251.3 249.6,247.9 258.7,233.3 
			268,224.2 277.3,237.6 286.4,223.2 295.7,226.6 305.1,240 314.4,232.1 323.5,212.9 332.8,212.9 342.1,208.6 351.2,178.1 
			360.5,171.4 369.9,143.3 379.2,160.1 388.3,188.2 397.6,174.7 406.9,160.1 416,136.6 425.4,162.2 434.7,145.4 444,144.2 
			453.1,127.4 462.4,139.9 471.8,175.9 480.8,180.2 490.2,170.2 499.5,161.3 508.8,181.4 517.9,161.3 527.2,163.4 536.6,147.8 
			545.6,130.8 555,133.2 564.3,129.8 573.6,135.4 582.7,118.6 592,136.6 601.4,130.8 610.4,126.2 619.8,107.3 629.1,132 
			638.4,133.2 647.5,147.8 656.8,139.9 666.2,165.6 675.2,145.4 684.6,150 693.9,153.4 703.2,162.2 712.3,162.2 721.6,136.6 
			731,142.1 740,143.3 749.4,120.7 758.7,127.4 768,98.2 777.1,116.2 786.4,124.1 795.8,104.9 		"/>
	</g>
	<polygon fill="#F7A823" points="449,251.3 450.1,255.5 757.6,177.2 757.4,182.3 771.3,171.2 754,168.5 756.4,172.8 	"/>
</g>
<g>
	<g>
		<path fill="#0C56AB" d="M10.6,5.6c0,0.4,0,0.7,0,1.1c0.4,2.8,1.2,4.4,2.7,5.9c-0.3,0.2-0.5,0.5-0.7,0.8c-1.2-1.2-1.9-2.5-2.4-4.2
			c-0.4,1.4-1,2.9-2.3,4.2c-0.2-0.3-0.5-0.6-0.7-0.8l0,0c-0.3,0-0.7,0-1.1,0h-3c-1.5,0-2-0.5-2-2.1V2.2H0.6V1.3h6.8v0.9H2v8.4
			c0,0.8,0.3,1.1,1,1.1h3.1c0.4,0,1,0,1.3-0.1c0,0.2,0.1,0.5,0.1,0.7c2-2.2,2.1-4.9,2.1-6.8V4.6h1V5.6z M2.5,7.2h2.1v3.5H2.5V7.2z
			 M6.6,6.3H3V3.2h3.6V6.3z M3.1,10.1h0.9V7.9H3.1V10.1z M5.8,3.9h-2v1.8h2V3.9z M7.3,10.8H5.1V7.3h2.2V10.8z M6.7,8h-1v2.1h1V8z
			 M9.1,3.8c-0.3,1.1-0.7,2-1.2,2.8C7.7,6.4,7.3,6.1,7.1,6C8,4.7,8.5,2.7,8.9,0.6l1,0.2C9.7,1.5,9.6,2.2,9.4,2.8h3.3l0.2-0.1L13.5,3
			c-0.3,1.2-0.6,2.7-1,3.6l-0.8-0.3c0.2-0.7,0.5-1.7,0.7-2.6H9.1z"/>
		<path fill="#0C56AB" d="M17.3,6.7c-0.5-0.4-1.6-1-2.4-1.4l0.6-0.8c0.8,0.4,1.8,0.9,2.4,1.3L17.3,6.7z M15.2,12.7
			c0.6-1.1,1.4-2.9,1.9-4.5L18,8.8c-0.5,1.5-1.2,3.2-1.8,4.4L15.2,12.7z M17.8,3c-0.5-0.4-1.5-1.1-2.2-1.5l0.6-0.7
			c0.8,0.4,1.8,1,2.3,1.5L17.8,3z M20.1,0.9h1v4.9c0,2.7-0.2,5.5-2,7.6c-0.2-0.2-0.6-0.5-0.9-0.6c1.7-2,1.9-4.5,1.9-7V0.9z
			 M19.2,8.3C19,7.4,18.6,6,18.2,5L19,4.7c0.4,1.1,0.9,2.4,1,3.3L19.2,8.3z M21.9,4.7c0.4,1,0.8,2.2,1,3.1l-0.8,0.3
			C22,7.3,21.6,6,21.2,5L21.9,4.7z M27.1,0.9v12.5h-1V7.8l-0.7,0.3C25.2,7.3,24.6,6,24.1,5v8.1h-1v-12h1v3.7l0.6-0.3
			c0.6,1,1.1,2.2,1.4,3.1V0.9H27.1z"/>
		<path fill="#0C56AB" d="M32,8v4.2c0,0.6-0.1,0.9-0.5,1c-0.3,0.2-0.9,0.2-1.7,0.2c0-0.2-0.2-0.7-0.3-1c0.6,0,1.1,0,1.3,0
			c0.2,0,0.2,0,0.2-0.3V8.3l-1.7,0.5l-0.3-1c0.5-0.1,1.2-0.4,1.9-0.6V4.4h-1.8v-1h1.8V0.6h1v2.8h1.5v1H32v2.6
			c0.5-0.1,0.9-0.3,1.4-0.4l0.1,1L32,8z M39,8.4c0.8,1.3,2.1,2.7,3.3,3.3c-0.2,0.2-0.5,0.5-0.7,0.8c-1.2-0.8-2.5-2.1-3.3-3.5v4.3h-1
			V9c-0.9,1.5-2.3,2.8-3.6,3.6c-0.2-0.3-0.5-0.6-0.7-0.8c1.4-0.7,2.8-1.9,3.7-3.3h-2.9V7.5h3.5V5.9h1v1.5h3.6v0.9H39z M41.5,1.6
			c-1.9,0.6-5,0.9-7.5,1c0-0.3-0.2-0.6-0.3-0.9c2.5-0.2,5.4-0.5,7.1-1L41.5,1.6z M34.9,6.1c-0.1-0.7-0.5-1.8-1-2.6l0.8-0.2
			c0.5,0.8,0.9,1.9,1.1,2.6L34.9,6.1z M37.4,5.6c0-0.7-0.3-1.8-0.7-2.6l0.9-0.2c0.4,0.8,0.7,1.9,0.7,2.6L37.4,5.6z M39.2,6.1
			c0.6-0.9,1.4-2.4,1.8-3.5L42,3c-0.6,1.2-1.3,2.6-1.9,3.4L39.2,6.1z"/>
		<path fill="#0C56AB" d="M45.9,10.4c-0.3,1.1-0.9,2.3-1.6,3c-0.2-0.2-0.6-0.4-0.8-0.6c0.6-0.7,1.1-1.7,1.4-2.7L45.9,10.4z
			 M48.2,9.9h-3.9V1.1h3.9V9.9z M47.3,2h-2.1v1.8h2.1V2z M47.3,4.6h-2.1v1.8h2.1V4.6z M47.3,7.2h-2.1V9h2.1V7.2z M47.5,10.2
			c0.5,0.7,0.9,1.6,1.2,2.2l-0.8,0.4c-0.2-0.6-0.7-1.5-1.1-2.2L47.5,10.2z M56.5,11.1h-0.8v1.2c0,0.5-0.1,0.8-0.5,0.9
			c-0.4,0.1-1,0.1-2,0.1c0-0.2-0.2-0.6-0.3-0.8c0.7,0,1.4,0,1.6,0c0.2,0,0.2-0.1,0.2-0.2v-1.2h-4.4v2.3h-0.9v-2.3h-0.9v-0.8h0.9V6.7
			h2.6V5.9h-3.5V5.1h2V4.2h-1.3V3.4h1.3V2.6h-1.7V1.8h1.7V0.6h0.9v1.2h2.1V0.6h0.9v1.2h1.7v0.8h-1.7v0.8h1.5v0.8h-1.5v0.9h2v0.8
			h-3.5v0.8h2.7v3.6h0.8V11.1z M50.2,7.5v1h1.7v-1H50.2z M50.2,10.3h1.7V9.2h-1.7V10.3z M51.4,3.4h2.1V2.6h-2.1V3.4z M51.4,5.1h2.1
			V4.2h-2.1V5.1z M52.9,7.5v1h1.8v-1H52.9z M54.7,10.3V9.2h-1.8v1.1H54.7z"/>
		<path fill="#0C56AB" d="M62.2,9c0-0.2-0.1-0.5-0.2-0.7c-3,0.4-3.4,0.5-3.7,0.7c-0.1-0.2-0.2-0.7-0.3-1c0.3-0.1,0.6-0.4,1-0.9
			c0.2-0.3,0.6-0.8,1.1-1.6c-1.4,0.2-1.7,0.2-1.9,0.3c-0.1-0.2-0.2-0.7-0.3-0.9c0.2-0.1,0.5-0.3,0.8-0.8c0.3-0.4,1.3-2,1.8-3.5
			L61.5,1c-0.6,1.3-1.4,2.7-2.1,3.7l1.4-0.1c0.4-0.6,0.7-1.2,1-1.9l0.9,0.5c-0.9,1.6-2,3.2-3.1,4.5l2.2-0.3
			c-0.2-0.5-0.3-0.9-0.5-1.4l0.8-0.2C62.5,6.8,62.9,8,63,8.7L62.2,9z M59.5,9.7c-0.1,1.2-0.4,2.5-0.7,3.4c-0.2-0.1-0.6-0.2-0.8-0.3
			c0.3-0.9,0.5-2.1,0.7-3.3L59.5,9.7z M60.9,9.5c0.2,0.9,0.4,2.1,0.4,2.9l-0.8,0.1c0-0.8-0.2-2-0.4-2.9L60.9,9.5z M62.2,9.2
			c0.3,0.7,0.6,1.7,0.7,2.3l-0.8,0.3c-0.1-0.6-0.4-1.6-0.7-2.4L62.2,9.2z M70.7,12.1v1h-8v-1h3.6V9.4h-2.8V8.5h6.6v0.9h-2.8v2.7
			H70.7z M64.7,8c-0.3-0.7-1-1.8-1.7-2.8c0.6-0.9,1.1-1.9,1.5-2.6l0.9,0.2c-0.4,0.7-0.9,1.6-1.4,2.3c0.6,0.8,1.2,1.8,1.5,2.4L64.7,8
			z M70.6,2.2h-7.4v-1h7.4V2.2z M67.8,2.9c-0.4,0.7-0.9,1.6-1.4,2.3C67.1,6,67.7,7,68,7.6L67.2,8c-0.3-0.7-1-1.8-1.8-2.7
			c0.6-0.8,1.2-1.9,1.5-2.5L67.8,2.9z M69.7,8c-0.4-0.7-1.1-1.8-1.9-2.8c0.6-0.9,1.2-1.9,1.6-2.6l0.9,0.3c-0.4,0.7-1,1.6-1.4,2.3
			C69.5,6,70.2,7,70.5,7.6L69.7,8z"/>
		<path fill="#0C56AB" d="M76.9,10.5c-1.5,0.5-3.1,1.1-4.3,1.5l-0.2-1.1c0.5-0.2,1.2-0.4,1.9-0.6V6.5h-1.6v-1h1.6v-3h-1.7v-1h4.3v1
			h-1.6v3h1.4v1h-1.4V10l1.5-0.5L76.9,10.5z M85.2,12v1h-9v-1h4.3v-1.9h-3.2v-1h3.2V7.5h-3V1.2h7.1v6.2h-3.1v1.6h3.3v1h-3.3V12H85.2
			z M78.4,3.9h2.1V2.2h-2.1V3.9z M78.4,6.6h2.1V4.8h-2.1V6.6z M83.6,2.2h-2.1v1.8h2.1V2.2z M83.6,4.8h-2.1v1.8h2.1V4.8z"/>
		<path fill="#0C56AB" d="M93.7,0.7c0,0.5,0,1.2-0.1,2c0.2,1.7,1.1,7.5,6,9.7c-0.3,0.2-0.6,0.6-0.8,0.9c-3.5-1.6-5-5.1-5.7-7.7
			c-0.6,2.8-2.1,5.9-5.5,7.8c-0.2-0.3-0.5-0.6-0.8-0.8c5.8-2.9,5.7-9.7,5.8-11.9H93.7z"/>
		<path fill="#0C56AB" d="M105.9,7.6l-1.8,0.5v4c0,0.6-0.1,0.9-0.5,1.1c-0.4,0.2-0.9,0.2-1.8,0.2c0-0.3-0.2-0.7-0.3-1
			c0.6,0,1.2,0,1.4,0c0.2,0,0.3-0.1,0.3-0.3V8.4c-0.7,0.2-1.3,0.4-1.9,0.6l-0.3-1c0.6-0.2,1.4-0.4,2.2-0.6v-3h-2v-1h2V0.6h1v2.8h1.6
			v1h-1.6v2.6c0.5-0.1,1.1-0.3,1.6-0.5L105.9,7.6z M108.4,6.1c-1.4,0-1.8-0.4-1.8-1.6V0.7h1v1.7h5.6v0.9h-5.6v1.2
			c0,0.5,0.2,0.7,0.8,0.7h3.7c0.5,0,1.2,0,1.5-0.1c0,0.3,0.1,0.7,0.1,0.9c-0.3,0.1-1,0.1-1.6,0.1H108.4z M106.6,7.3h6.6v6.1h-1v-0.6
			h-4.5v0.6h-1V7.3z M107.6,8.2v1.4h4.5V8.2H107.6z M112.2,11.9v-1.5h-4.5v1.5H112.2z"/>
		<path fill="#0C56AB" d="M121.6,9.8c-0.1,0.6-0.4,1.2-1.2,1.8c0.6,0.3,1.2,0.6,1.6,0.8l-0.7,0.6c-0.4-0.3-1.1-0.6-1.7-0.9
			c-0.9,0.5-2.2,0.9-3.9,1.2c-0.1-0.2-0.3-0.5-0.4-0.7c1.5-0.3,2.6-0.6,3.4-0.9c-0.7-0.3-1.5-0.6-2.2-0.8c0.2-0.3,0.5-0.6,0.7-0.9
			l-1.7,0.1l-0.1-0.8c0.6,0,1.4-0.1,2.3-0.1c0.2-0.4,0.4-0.7,0.6-1.1h-2.3V5.9h2.6V5.3h-2.3V3.8h-0.9V3h0.9V1.6h2.3v-1h0.8v1h2.4V3
			h1v0.8h-1v1.5h-2.4v0.6h2.7v2.3h-3c-0.2,0.4-0.4,0.7-0.6,1.1c0.7,0,1.4-0.1,2.1-0.1V9V8.5h0.9V9v0.1l0.7,0l0,0.7L121.6,9.8z
			 M117,7.5h1.8V6.6H117V7.5z M117.4,2.3V3h1.4V2.3H117.4z M118.7,4.6V3.7h-1.4v0.8H118.7z M118.2,10c-0.1,0.2-0.3,0.4-0.4,0.6
			c0.6,0.2,1.2,0.4,1.8,0.6c0.7-0.4,1-1,1.2-1.4L118.2,10z M119.5,2.3V3h1.5V2.3H119.5z M121,4.6V3.7h-1.5v0.8H121z M119.5,6.6v0.9
			h1.8V6.6H119.5z M127.2,4.2c-0.3,2.1-0.6,3.9-1.3,5.4c0.6,1.3,1.4,2.3,2.4,2.9c-0.2,0.2-0.5,0.5-0.6,0.7c-0.9-0.6-1.6-1.5-2.2-2.6
			c-0.6,1.1-1.4,2.1-2.5,2.9c-0.1-0.2-0.4-0.6-0.6-0.8c1.2-0.8,2-1.8,2.6-3.2c-0.4-1.1-0.8-2.3-1-3.7c-0.2,0.6-0.5,1.1-0.7,1.5
			c-0.2-0.1-0.5-0.5-0.7-0.6c0.9-1.5,1.5-3.7,1.8-6l0.9,0.1c-0.1,0.8-0.3,1.6-0.4,2.4h3.4v0.9H127.2z M124.5,4.2
			c0.2,1.5,0.5,2.9,0.9,4.1c0.4-1.2,0.6-2.6,0.8-4.1H124.5z"/>
	</g>
</g>
<g>
</g>
<g>
</g>
<g>
</g>
<g>
</g>
<g>
</g>
<g>
</g>
<g>
</g>
<g>
</g>
<g>
</g>
<g>
</g>
<g>
</g>
<g>
</g>
<g>
</g>
<g>
</g>
<g>
</g>
</svg>
