<?xml version="1.0" encoding="utf-8"?>
<!-- Generator: Adobe Illustrator 18.0.0, SVG Export Plug-In . SVG Version: 6.00 Build 0)  -->
<!DOCTYPE svg PUBLIC "-//W3C//DTD SVG 1.1//EN" "http://www.w3.org/Graphics/SVG/1.1/DTD/svg11.dtd">
<svg version="1.1" id="Layer_1" xmlns="http://www.w3.org/2000/svg" xmlns:xlink="http://www.w3.org/1999/xlink" x="0px" y="0px"
	 viewBox="0 0 687 526.3" enable-background="new 0 0 687 526.3" xml:space="preserve">
<g>
	<radialGradient id="SVGID_1_" cx="559.7335" cy="77.3887" r="64.8047" gradientUnits="userSpaceOnUse">
		<stop  offset="0" style="stop-color:#231F20;stop-opacity:0"/>
		<stop  offset="1" style="stop-color:#FFFFFF"/>
	</radialGradient>
	<circle opacity="0.15" fill="url(#SVGID_1_)" cx="517.4" cy="43.2" r="21.7"/>
	<g>
		<defs>
			<path id="SVGID_2_" d="M687,0.2L0.2,0L0,503.4c229.8-73.8,458.4-70,686.8,0.2L687,0.2z"/>
		</defs>
		<clipPath id="SVGID_3_">
			<use xlink:href="#SVGID_2_"  overflow="visible"/>
		</clipPath>
		<polyline opacity="0.58" clip-path="url(#SVGID_3_)" fill="#414042" points="314.6,119.3 411.4,119.3 411.5,99.3 449.2,137.1 
			415.1,166.7 415.1,146 314.6,145.9 		"/>
		<g clip-path="url(#SVGID_3_)">
			<g>
				<path fill="#FFEBCA" d="M395.5,220.7L333,190.8L286.7,328l91.8,14.2C378.5,342.3,396.2,217.6,395.5,220.7z"/>
				<polygon fill="#1B75BC" points="327,241.5 315.7,286.7 297.2,275.8 				"/>
				<path fill="#6D6E71" d="M333,190.8l-12.9-16.2c0,0,63.7,3.9,76,19.1c14.7,18.2-5,62.3-5,62.3s2.7-13.2-3.4-15.2
					c-3.3-1.1-7.2,4.9-7.2,4.9l-2.4-31.8L333,190.8z"/>
				
					<ellipse transform="matrix(0.8917 0.4525 -0.4525 0.8917 147.2267 -132.4569)" fill="#6D6E71" cx="350.5" cy="241.5" rx="4.8" ry="7"/>
				
					<ellipse transform="matrix(0.8917 0.4525 -0.4525 0.8917 140.3288 -120.6022)" fill="#6D6E71" cx="322.2" cy="233" rx="4.8" ry="7"/>
			</g>
			<path fill="#2368B5" d="M243.4,526.3c9.5-53.9,26.6-129.2,40.1-202.8l101,9.3c0,0,11.4,10.5,8.8,33.6
				c-1.7,14.8,7.6,93.7,16,159.7"/>
			<path fill="#E6E7E8" d="M346.4,335.6c0,0-21.9,69.5-22.9,65.7c-1-3.8-8.5-68.1-8.5-68.1L346.4,335.6z"/>
			<g>
				<path fill="#2368B5" d="M377.7,417.4c26.7-7.3,114.9-81.7,177.5-139.6l-10.5-14.3c0,0-108.8,69.4-168.1,68.9"/>
				<polygon fill="#FFEBCA" points="555.2,277.8 578.6,255.6 566.3,239.2 542.2,265.9 				"/>
			</g>
			<path fill="#2368B5" d="M276.4,407.8c-23.5-12.4-77-69.9-87.8-184.9l15.5-16.3c0,0,4.9,81.3,79.4,116.9l18.7,16.2L276.4,407.8z"
				/>
			<polygon fill="#FFEBCA" points="189.3,227.9 182.8,187.2 196.3,184 206.5,217.7 			"/>
		</g>
		<g clip-path="url(#SVGID_3_)">
			<polygon fill="#2368B5" points="300.9,79.7 228.4,145.3 192.8,110 138.4,158.7 138.4,182.5 191.6,135.8 227,172 309.2,96.1 			
				"/>
			<polygon fill="#2368B5" points="284.7,74.7 330.3,59.7 315.2,107 			"/>
		</g>
		<g clip-path="url(#SVGID_3_)">
			<polyline fill="#2368B5" points="594.8,63.6 557.8,29.5 531,53.5 509,32.8 475.9,65.2 475.9,54.2 508.3,21.7 531,43.1 
				558.2,20.1 599.7,60.3 594.8,63.6 			"/>
			<polygon fill="#2368B5" points="590,68.1 612.9,75.7 605.4,51.9 			"/>
		</g>
		<g clip-path="url(#SVGID_3_)">
			<g>
				<path fill="#0C56AB" d="M206.9,51.8c6.9,0,12.9,5.6,12.9,12.7c0,7.2-6,12.6-13,12.6c-6.9,0-12.8-5.5-12.8-12.6
					C194,57.4,199.9,51.8,206.9,51.8z M201.1,103.5l36.4-51h8.2l-36.3,51H201.1z M206.9,70.3c3.1,0,5.5-2.4,5.5-5.8
					c0-3.4-2.4-5.7-5.5-5.7s-5.6,2.4-5.6,5.7C201.4,67.9,203.8,70.3,206.9,70.3z M239.9,79c6.9,0,12.9,5.6,12.9,12.7
					c0,7.2-6,12.6-13,12.6c-6.9,0-12.8-5.5-12.8-12.6C227,84.6,232.9,79,239.9,79z M239.9,97.5c3.2,0,5.5-2.4,5.5-5.8
					c0-3.4-2.4-5.7-5.5-5.7c-3.1,0-5.6,2.4-5.6,5.7C234.3,95,236.7,97.5,239.9,97.5z"/>
			</g>
		</g>
		<g clip-path="url(#SVGID_3_)">
			<path fill="#2368B5" d="M620.3,182.3l-160.6-0.1l0-102.2l160.6,0.1L620.3,182.3z M466.3,175.6l147.3,0.1l0-88.9l-147.3-0.1
				L466.3,175.6z"/>
			<g>
				<rect x="463" y="83.4" fill="#FFFFFF" width="154" height="95.6"/>
			</g>
			<g>
				<defs>
					<rect id="SVGID_4_" x="470.4" y="91.5" width="138.8" height="79.8"/>
				</defs>
				<clipPath id="SVGID_5_">
					<use xlink:href="#SVGID_4_"  overflow="visible"/>
				</clipPath>
				<rect x="470.6" y="91.3" clip-path="url(#SVGID_5_)" fill="#FFFFFF" width="138.8" height="79.8"/>
				<circle clip-path="url(#SVGID_5_)" fill="#2368B5" cx="470.6" cy="91.3" r="9.8"/>
				<circle clip-path="url(#SVGID_5_)" fill="#2368B5" cx="609.1" cy="91.3" r="9.8"/>
				<circle clip-path="url(#SVGID_5_)" fill="#2368B5" cx="470.6" cy="171.2" r="9.8"/>
				<circle clip-path="url(#SVGID_5_)" fill="#2368B5" cx="609.1" cy="171.2" r="9.8"/>
				<use xlink:href="#SVGID_4_"  overflow="visible" fill="none" stroke="#0C56AB" stroke-width="4" stroke-miterlimit="10"/>
			</g>
			<g>
				<circle fill="#2368B5" cx="597.1" cy="133.2" r="3.7"/>
				<circle fill="#2368B5" cx="482.9" cy="133.2" r="3.7"/>
			</g>
			<g>
				<polygon fill="#2368B5" points="600.4,202.4 595.4,197.6 588.7,200.3 593.2,176.4 604.8,178.6 				"/>
				<polygon fill="#2368B5" points="607.1,202.4 612.1,197.6 618.7,200.3 614.3,176.4 602.7,178.6 				"/>
				<circle fill="#2368B5" cx="603.3" cy="169.2" r="14.1"/>
				<polygon fill="#FFFFFF" points="603.5,161.8 607,157.9 607.5,163.1 612.6,161.9 610,166.5 614.8,168.6 610,170.6 612.6,175.2 
					607.5,174 607,179.3 603.5,175.3 600.1,179.3 599.6,174 594.4,175.2 597.1,170.6 592.3,168.6 597.1,166.5 594.4,161.9 
					599.6,163.1 600.1,157.9 				"/>
			</g>
			<line fill="none" stroke="#0C56AB" stroke-linecap="round" stroke-miterlimit="10" x1="495" y1="98.5" x2="585" y2="98.5"/>
			<line fill="none" stroke="#0C56AB" stroke-linecap="round" stroke-miterlimit="10" x1="495" y1="105.5" x2="585" y2="105.5"/>
			<line fill="none" stroke="#0C56AB" stroke-linecap="round" stroke-miterlimit="10" x1="495" y1="112.5" x2="585" y2="112.5"/>
			<line fill="none" stroke="#0C56AB" stroke-linecap="round" stroke-miterlimit="10" x1="513.6" y1="119.5" x2="585" y2="119.5"/>
			<line fill="none" stroke="#0C56AB" stroke-linecap="round" stroke-miterlimit="10" x1="513.6" y1="126.5" x2="585" y2="126.5"/>
			<line fill="none" stroke="#0C56AB" stroke-linecap="round" stroke-miterlimit="10" x1="513.6" y1="133.5" x2="585" y2="133.5"/>
			<line fill="none" stroke="#0C56AB" stroke-linecap="round" stroke-miterlimit="10" x1="513.6" y1="140.5" x2="585" y2="140.5"/>
			<line fill="none" stroke="#0C56AB" stroke-linecap="round" stroke-miterlimit="10" x1="513.6" y1="147.5" x2="585" y2="147.5"/>
			<line fill="none" stroke="#0C56AB" stroke-linecap="round" stroke-miterlimit="10" x1="495" y1="154.5" x2="585" y2="154.5"/>
			<line fill="none" stroke="#0C56AB" stroke-linecap="round" stroke-miterlimit="10" x1="495" y1="161.5" x2="585" y2="161.5"/>
		</g>
	</g>
</g>
<g>
</g>
<g>
</g>
<g>
</g>
<g>
</g>
<g>
</g>
<g>
</g>
<g>
</g>
<g>
</g>
<g>
</g>
<g>
</g>
<g>
</g>
<g>
</g>
<g>
</g>
<g>
</g>
<g>
</g>
</svg>
