<?xml version="1.0" encoding="utf-8"?>
<!-- Generator: Adobe Illustrator 18.0.0, SVG Export Plug-In . SVG Version: 6.00 Build 0)  -->
<!DOCTYPE svg PUBLIC "-//W3C//DTD SVG 1.1//EN" "http://www.w3.org/Graphics/SVG/1.1/DTD/svg11.dtd">
<svg version="1.1" id="Layer_1" xmlns="http://www.w3.org/2000/svg" xmlns:xlink="http://www.w3.org/1999/xlink" x="0px" y="0px"
	 viewBox="0 0 110.6 119.2" enable-background="new 0 0 110.6 119.2" xml:space="preserve">
<g>
	<g>
		<path fill="#573392" d="M55.3,119.2C24.8,119.2,0,94.4,0,63.9c0-21.7,12.3-46.5,39.7-53.1l1.1,4.6C12.3,22.2,4.7,49.1,4.7,63.9
			c0,27.9,22.7,50.6,50.6,50.6s50.6-22.7,50.6-50.6S83.2,13.3,55.3,13.3V8.6c30.5,0,55.3,24.8,55.3,55.3
			C110.6,94.4,85.8,119.2,55.3,119.2z"/>
		<polygon fill="#573392" points="56,29 49.2,7.9 73.7,0 75.2,4.5 55.1,11 60.5,27.5 		"/>
		<g>
			<path fill="#573392" d="M63.7,55.9c-2.7-2.5-5-3.9-8.4-3.9c-3.9,0-6,1.8-6,5.4c0,8.1,19.9,6.9,19.9,21.5c0,7.1-4,12.4-11.5,13.9
				v7.6h-6.5v-7.3c-4.4-0.5-9.5-2.6-13-5.7l4.3-6.5c3.6,2.8,7.1,4.4,10.8,4.4c4.6,0,6.7-2,6.7-5.8c0-8.8-19.9-8-19.9-21.7
				c0-7.1,4.3-12,11.1-13.3V37h6.5v7.5c4.7,0.7,8,3,10.9,6L63.7,55.9z"/>
		</g>
	</g>
</g>
<g>
</g>
<g>
</g>
<g>
</g>
<g>
</g>
<g>
</g>
<g>
</g>
<g>
</g>
<g>
</g>
<g>
</g>
<g>
</g>
<g>
</g>
<g>
</g>
<g>
</g>
<g>
</g>
<g>
</g>
</svg>
