<?xml version="1.0" encoding="utf-8"?>
<!-- Generator: Adobe Illustrator 18.0.0, SVG Export Plug-In . SVG Version: 6.00 Build 0)  -->
<!DOCTYPE svg PUBLIC "-//W3C//DTD SVG 1.1//EN" "http://www.w3.org/Graphics/SVG/1.1/DTD/svg11.dtd">
<svg version="1.1" id="Layer_1" xmlns="http://www.w3.org/2000/svg" xmlns:xlink="http://www.w3.org/1999/xlink" x="0px" y="0px"
	 viewBox="0 0 184.2 129.2" enable-background="new 0 0 184.2 129.2" xml:space="preserve">
<g>
	<g>
		<g>
			<line fill="none" stroke="#A7A9AC" stroke-width="0.3021" stroke-miterlimit="10" x1="16.3" y1="3" x2="184.2" y2="3"/>
			<line fill="none" stroke="#A7A9AC" stroke-width="0.3021" stroke-miterlimit="10" x1="16.3" y1="24.3" x2="184.2" y2="24.3"/>
			<line fill="none" stroke="#A7A9AC" stroke-width="0.3021" stroke-miterlimit="10" x1="16.3" y1="45.6" x2="184.2" y2="45.6"/>
			<line fill="none" stroke="#A7A9AC" stroke-width="0.3021" stroke-miterlimit="10" x1="16.3" y1="66.9" x2="184.2" y2="66.9"/>
			<line fill="none" stroke="#A7A9AC" stroke-width="0.3021" stroke-miterlimit="10" x1="16.3" y1="88.3" x2="184.2" y2="88.3"/>
		</g>
		<path fill="none" stroke="#EA5284" stroke-width="0.3435" stroke-linejoin="bevel" stroke-miterlimit="10" d="M31.7,3.7l5.3-1.3
			L40,18.7l2.2-5.2l3.5,18.7l3.5-16.7L50.5,40l5.3-15.4L58,10.9L60.9,5l3.6,4.3L68,6.6v11.5L72.4,5l8.8,0.7l1.8,6.2L86,8.6v18.4
			l4.8-5.6L89.9,44l6.1-10.2l1.3,14.8l2.2-20.3l13.1,42.9l4.4-22.6l7.4,30.8l5.7-30.2l3.9,14.1l4.8-27.2c0,0,7.4,39,8.3,36.7
			c0.9-2.3,7.4-25.9,7.4-25.9l3.9,5.6l3.1-7.9l2.6,13.4l4.4-9.2l3.1,7.9l2.2-9.8"/>
		<path fill="none" stroke="#0C56AB" stroke-width="0.3435" stroke-linejoin="bevel" stroke-miterlimit="10" d="M33.9,5l7-2l0.4,3.3
			c0,0,5.7-3.3,7-2.9c1.3,0.3,1.3,0.3,1.3,0.3l10.1-1h8.8l5.7,16.4l7.9-3.9c0,0,7-6.6,8.3-5.6C91.7,10.5,97,20,97,20l6.6-5.6
			c0,0,6.1,1.6,7,2.6c0.9,1,0.4,14.8,0.4,14.8l3.5-10.2l7.4,20.7c0,0,5.3-10.5,6.6-9.5c1.3,1,7.4,13.1,7.4,13.1l5.7-0.7l5.3,13.8
			l3.1-5.9l7.4,4.3l7.4-9.8l1.3-10.8l3.5,5.6l3.1-4.6"/>
		<circle fill="#2368B5" cx="3.1" cy="108.6" r="3.1"/>
		<g>
			<g>
				<path fill="#0C56AB" d="M12,105.8c0,0.2,0,0.5,0,0.9c0.1,0.7,0.4,3.2,2.6,4.2c-0.1,0.1-0.3,0.3-0.3,0.4
					c-1.5-0.7-2.1-2.2-2.4-3.3c-0.3,1.2-0.9,2.5-2.4,3.3c-0.1-0.1-0.2-0.3-0.4-0.3c2.5-1.3,2.5-4.2,2.5-5.1H12z"/>
				<path fill="#0C56AB" d="M18.4,109.1c0.3,1,0.9,1.6,1.4,1.6c0.2,0,0.2-0.2,0.3-0.9c0.1,0.1,0.3,0.2,0.4,0.2
					c-0.1,0.9-0.3,1.1-0.7,1.1c-0.8,0-1.5-0.8-1.8-2h-1.8v1.5l1.4-0.3c0,0.1,0,0.3,0,0.4c-1.6,0.4-1.9,0.5-2,0.6
					c0-0.1-0.1-0.3-0.2-0.4c0.1-0.1,0.3-0.2,0.3-0.4v-4.4h4.2v1.7h-1.8c0,0.3,0.1,0.6,0.1,0.9h2.1v0.4H18.4z M16.1,106.5v0.9h3.3
					v-0.9H16.1z M17.8,108.7c-0.1-0.3-0.1-0.6-0.1-0.9h-1.6v0.9H17.8z"/>
				<path fill="#0C56AB" d="M26.1,106.7c-0.1,0.5-0.4,0.8-0.7,1.2c0.3,0.3,0.7,0.5,1.1,0.6c-0.1,0.1-0.2,0.2-0.2,0.3
					c-0.4-0.2-0.8-0.4-1.1-0.7c-0.3,0.2-0.7,0.4-1.1,0.6c0-0.1-0.2-0.3-0.2-0.3c0.4-0.1,0.7-0.3,1-0.5c-0.2-0.2-0.4-0.5-0.5-0.8
					c-0.1,0.1-0.2,0.3-0.3,0.4c-0.1-0.1-0.2-0.2-0.3-0.3v1.5h-0.4V107h-0.7v1.7h-0.3V107h-0.7v1.8h-0.3v-2.1h1v-1h0.4v1h1v0.4
					c0.4-0.3,0.7-0.8,0.8-1.3l0.4,0.1c-0.1,0.2-0.1,0.4-0.2,0.5h1.6v0.4H26.1z M21.7,106.7c-0.1-0.2-0.2-0.5-0.4-0.7l0.3-0.1
					c0.2,0.2,0.3,0.5,0.4,0.7L21.7,106.7z M25.9,110.4c0,0.2-0.1,0.3-0.2,0.4c-0.2,0.1-0.5,0.1-1,0.1c0-0.1-0.1-0.3-0.1-0.4
					c0.4,0,0.7,0,0.8,0c0.1,0,0.1,0,0.1-0.1v-0.9H24v1.7h-0.4v-1.7h-1.4v1.4h-0.4v-1.8h1.8v-0.4H24v0.4h1.9V110.4z M22.2,107.3
					c-0.1,0.4-0.1,0.7-0.3,1c0,0-0.2-0.1-0.2-0.1c0.1-0.3,0.2-0.6,0.3-0.9L22.2,107.3z M23.1,107.3c0.1,0.3,0.2,0.7,0.3,0.9
					l-0.2,0.1c0-0.3-0.1-0.6-0.2-0.9L23.1,107.3z M23.8,106c-0.2,0.3-0.4,0.5-0.5,0.7l-0.3-0.1c0.1-0.2,0.3-0.5,0.4-0.7L23.8,106z
					 M24.7,106.7c0.1,0.3,0.3,0.6,0.5,0.9c0.2-0.2,0.4-0.5,0.5-0.9H24.7z"/>
			</g>
		</g>
		<circle fill="#EA5284" cx="42.2" cy="108.6" r="3.1"/>
		<g>
			<g>
				<path fill="#0C56AB" d="M49.6,109.7h1v0.4h-1v1.1h-0.4v-1.1h-1v-0.4h1v-0.5h-0.8v-2h0.8v-0.5h-1v-0.4h1v-0.6h0.4v0.6h1v0.4h-1
					v0.5h0.8v2h-0.8V109.7z M48.8,108.1H50v-0.5h-1.3V108.1z M48.8,108.9H50v-0.5h-1.3V108.9z M53.6,107.4h-3v-0.4h0.9
					c0-0.1,0-0.3,0.1-0.5h-0.7v-0.4h0.7c0-0.2,0-0.3,0-0.5l0.4,0c0,0.1,0,0.3,0,0.5h1.2v0.8h0.5V107.4z M53.6,110.6h-1.1v0.6h-0.4
					v-0.6h-1.2c0.1-0.3,0.2-0.6,0.2-0.9h-0.4v-0.4h1.4v-0.3H51v-1.2h2.3v1.2h-0.8v0.3h0.9v0.4h-0.9v0.6h1.1V110.6z M51.4,108.6h1.4
					V108h-1.4V108.6z M52.1,110.2v-0.6h-0.6c0,0.2-0.1,0.4-0.1,0.6H52.1z M51.9,106.6c0,0.2,0,0.3-0.1,0.5h0.9v-0.5H51.9z"/>
				<path fill="#0C56AB" d="M59.4,106v5.2h-0.4V111h-4.1v0.2h-0.4V106H59.4z M58.9,110.6v-4.2h-4.1v4.2h1.1c0-0.1-0.1-0.2-0.1-0.3
					c0.1,0,0.2-0.1,0.2-0.4v-0.2c-0.3,0.1-0.5,0.2-0.8,0.3c0-0.1-0.1-0.2-0.2-0.3c0.5-0.1,1.1-0.3,1.5-0.6h-1v-0.9h2.6v0.9H57
					c-0.2,0.2-0.4,0.3-0.7,0.4v0.6l0.8-0.2c0,0.1,0,0.2,0,0.3c-1,0.3-1.2,0.3-1.3,0.4H58.9z M58.6,107.8v0.3h-3.5v-0.3H58.6z
					 M58.4,107.6h-3v-0.9h3V107.6z M56.3,106.9h-0.6v0.4h0.6V106.9z M57.8,108.9v-0.4h-1.9v0.4H57.8z M57.1,106.9h-0.6v0.4h0.6
					V106.9z M58.5,109.3c-0.2,0.2-0.4,0.3-0.7,0.4c0.3,0.2,0.5,0.3,0.7,0.5l-0.2,0.3c-0.3-0.2-0.9-0.7-1.4-1l0.2-0.2
					c0.2,0.1,0.3,0.2,0.5,0.3c0.2-0.1,0.5-0.3,0.7-0.4L58.5,109.3z M58,106.9h-0.6v0.4H58V106.9z"/>
			</g>
		</g>
		<g>
			<path fill="#58595B" d="M0.7,1.5C0.9,1.2,1.2,1,1.7,1c0.5,0,0.8,0.2,1,0.5C2.9,1.9,3,2.3,3,2.8C3,3.2,2.9,3.7,2.7,4
				c-0.2,0.3-0.6,0.5-1,0.5c-0.5,0-0.8-0.2-1-0.5C0.4,3.7,0.4,3.2,0.4,2.8C0.4,2.3,0.4,1.9,0.7,1.5z M1.2,3.9C1.3,4,1.5,4.1,1.7,4.1
				c0.2,0,0.4-0.1,0.5-0.2c0.2-0.2,0.3-0.6,0.3-1.1c0-0.5-0.1-0.9-0.3-1.1C2.1,1.5,1.9,1.5,1.7,1.5c-0.2,0-0.4,0.1-0.5,0.2
				C1,1.9,0.9,2.2,0.9,2.8C0.9,3.3,1,3.6,1.2,3.9z"/>
			<path fill="#58595B" d="M4.3,1c0.4,0,0.8,0.4,0.8,0.8c0,0.5-0.4,0.8-0.8,0.8c-0.4,0-0.8-0.4-0.8-0.8C3.5,1.4,3.9,1,4.3,1z
				 M3.9,4.4l2.4-3.4h0.5L4.4,4.4H3.9z M4.3,2.3c0.2,0,0.4-0.2,0.4-0.4c0-0.2-0.2-0.4-0.4-0.4c-0.2,0-0.4,0.2-0.4,0.4
				C3.9,2.1,4.1,2.3,4.3,2.3z M6.4,2.8c0.4,0,0.8,0.4,0.8,0.8c0,0.5-0.4,0.8-0.8,0.8S5.5,4.1,5.5,3.7C5.5,3.2,5.9,2.8,6.4,2.8z
				 M6.4,4.1c0.2,0,0.4-0.2,0.4-0.4c0-0.2-0.2-0.4-0.4-0.4C6.1,3.3,6,3.4,6,3.7C6,3.9,6.1,4.1,6.4,4.1z"/>
		</g>
		<g>
			<path fill="#58595B" d="M0.8,24.7c0,0.4,0.3,0.7,0.8,0.7c0.4,0,0.7-0.3,0.7-0.7c0-0.5-0.3-0.7-0.7-0.7c-0.2,0-0.5,0.1-0.6,0.2
				c-0.2-0.1-0.3-0.1-0.5-0.2l0.4-1.7h1.8v0.5H1.2l-0.2,1c0.2-0.2,0.4-0.3,0.7-0.3c0.7,0,1.1,0.4,1.1,1.1c0,0.6-0.5,1.1-1.2,1.1
				c-0.7,0-1.2-0.5-1.2-1L0.8,24.7z"/>
			<path fill="#58595B" d="M4,22.4c0.4,0,0.8,0.4,0.8,0.8C4.8,23.7,4.5,24,4,24c-0.4,0-0.8-0.4-0.8-0.8C3.2,22.8,3.6,22.4,4,22.4z
				 M3.6,25.8L6,22.4h0.5l-2.4,3.4H3.6z M4,23.6c0.2,0,0.4-0.2,0.4-0.4c0-0.2-0.2-0.4-0.4-0.4c-0.2,0-0.4,0.2-0.4,0.4
				C3.6,23.5,3.8,23.6,4,23.6z M6.1,24.2c0.4,0,0.8,0.4,0.8,0.8c0,0.5-0.4,0.8-0.8,0.8S5.2,25.5,5.2,25C5.2,24.6,5.6,24.2,6.1,24.2z
				 M6.1,25.4c0.2,0,0.4-0.2,0.4-0.4c0-0.2-0.2-0.4-0.4-0.4c-0.2,0-0.4,0.2-0.4,0.4C5.7,25.3,5.8,25.4,6.1,25.4z"/>
		</g>
		<g>
			<path fill="#58595B" d="M1,47.2v-2.4H0.2v-0.4c0.5,0,0.8-0.3,0.9-0.6h0.4v3.4H1z"/>
			<path fill="#58595B" d="M2.5,44.3c0.2-0.3,0.6-0.5,1-0.5c0.5,0,0.8,0.2,1,0.5c0.2,0.3,0.3,0.8,0.3,1.2c0,0.5-0.1,0.9-0.3,1.2
				c-0.2,0.3-0.6,0.5-1,0.5c-0.5,0-0.8-0.2-1-0.5c-0.2-0.3-0.3-0.8-0.3-1.2C2.2,45,2.3,44.6,2.5,44.3z M3,46.6
				c0.1,0.1,0.3,0.2,0.5,0.2c0.2,0,0.4-0.1,0.5-0.2c0.2-0.2,0.3-0.6,0.3-1.1c0-0.5-0.1-0.9-0.3-1.1c-0.1-0.1-0.3-0.2-0.5-0.2
				c-0.2,0-0.4,0.1-0.5,0.2c-0.2,0.2-0.3,0.6-0.3,1.1C2.7,46,2.8,46.4,3,46.6z"/>
			<path fill="#58595B" d="M6.2,43.8c0.4,0,0.8,0.4,0.8,0.8c0,0.5-0.4,0.8-0.8,0.8c-0.4,0-0.8-0.4-0.8-0.8
				C5.3,44.1,5.7,43.8,6.2,43.8z M5.7,47.2l2.4-3.4h0.5l-2.4,3.4H5.7z M6.2,45c0.2,0,0.4-0.2,0.4-0.4c0-0.2-0.2-0.4-0.4-0.4
				c-0.2,0-0.4,0.2-0.4,0.4C5.8,44.8,5.9,45,6.2,45z M8.2,45.6c0.4,0,0.8,0.4,0.8,0.8c0,0.5-0.4,0.8-0.8,0.8s-0.8-0.4-0.8-0.8
				C7.4,45.9,7.8,45.6,8.2,45.6z M8.2,46.8c0.2,0,0.4-0.2,0.4-0.4c0-0.2-0.2-0.4-0.4-0.4c-0.2,0-0.4,0.2-0.4,0.4
				C7.8,46.6,8,46.8,8.2,46.8z"/>
		</g>
		<g>
			<path fill="#58595B" d="M1,68.5v-2.4H0.2v-0.4c0.5,0,0.8-0.3,0.9-0.6h0.4v3.4H1z"/>
			<path fill="#58595B" d="M2.6,67.5c0,0.4,0.3,0.7,0.8,0.7c0.4,0,0.7-0.3,0.7-0.7c0-0.5-0.3-0.7-0.7-0.7c-0.2,0-0.5,0.1-0.6,0.2
				c-0.2-0.1-0.3-0.1-0.5-0.2l0.4-1.7h1.8v0.5H3l-0.2,1c0.2-0.2,0.4-0.3,0.7-0.3c0.7,0,1.1,0.4,1.1,1.1c0,0.6-0.5,1.1-1.2,1.1
				c-0.7,0-1.2-0.5-1.2-1L2.6,67.5z"/>
			<path fill="#58595B" d="M5.8,65.1c0.4,0,0.8,0.4,0.8,0.8c0,0.5-0.4,0.8-0.8,0.8c-0.4,0-0.8-0.4-0.8-0.8C5,65.5,5.4,65.1,5.8,65.1
				z M5.4,68.5l2.4-3.4h0.5l-2.4,3.4H5.4z M5.8,66.3c0.2,0,0.4-0.2,0.4-0.4c0-0.2-0.2-0.4-0.4-0.4c-0.2,0-0.4,0.2-0.4,0.4
				C5.4,66.2,5.6,66.3,5.8,66.3z M7.9,66.9c0.4,0,0.8,0.4,0.8,0.8c0,0.5-0.4,0.8-0.8,0.8s-0.8-0.4-0.8-0.8
				C7.1,67.3,7.5,66.9,7.9,66.9z M7.9,68.2c0.2,0,0.4-0.2,0.4-0.4c0-0.2-0.2-0.4-0.4-0.4c-0.2,0-0.4,0.2-0.4,0.4
				C7.5,68,7.7,68.2,7.9,68.2z"/>
		</g>
		<g>
			<path fill="#58595B" d="M0.3,87.7c0,0,0-0.1,0-0.1c0-0.6,0.4-1.1,1.2-1.1c0.7,0,1.1,0.5,1.1,1c0,0.4-0.2,0.8-0.6,1l-0.7,0.4
				c-0.2,0.1-0.4,0.3-0.4,0.5h1.7v0.5H0.3c0-0.6,0.2-1,0.8-1.3l0.6-0.4C2,88,2.1,87.7,2.1,87.5c0-0.3-0.2-0.6-0.6-0.6
				c-0.4,0-0.7,0.3-0.7,0.7c0,0,0,0.1,0,0.2L0.3,87.7z"/>
			<path fill="#58595B" d="M3.4,87c0.2-0.3,0.6-0.5,1-0.5c0.5,0,0.8,0.2,1,0.5c0.2,0.3,0.3,0.8,0.3,1.2c0,0.5-0.1,0.9-0.3,1.2
				c-0.2,0.3-0.6,0.5-1,0.5c-0.5,0-0.8-0.2-1-0.5c-0.2-0.3-0.3-0.8-0.3-1.2C3.1,87.7,3.2,87.3,3.4,87z M3.9,89.3
				c0.1,0.1,0.3,0.2,0.5,0.2c0.2,0,0.4-0.1,0.5-0.2c0.2-0.2,0.3-0.6,0.3-1.1c0-0.5-0.1-0.9-0.3-1.1c-0.1-0.1-0.3-0.2-0.5-0.2
				c-0.2,0-0.4,0.1-0.5,0.2c-0.2,0.2-0.3,0.6-0.3,1.1C3.6,88.7,3.7,89.1,3.9,89.3z"/>
			<path fill="#58595B" d="M7.1,86.5c0.4,0,0.8,0.4,0.8,0.8c0,0.5-0.4,0.8-0.8,0.8c-0.4,0-0.8-0.4-0.8-0.8
				C6.2,86.8,6.6,86.5,7.1,86.5z M6.6,89.9l2.4-3.4h0.5l-2.4,3.4H6.6z M7.1,87.7c0.2,0,0.4-0.2,0.4-0.4c0-0.2-0.2-0.4-0.4-0.4
				c-0.2,0-0.4,0.2-0.4,0.4C6.7,87.5,6.8,87.7,7.1,87.7z M9.1,88.3c0.4,0,0.8,0.4,0.8,0.8c0,0.5-0.4,0.8-0.8,0.8s-0.8-0.4-0.8-0.8
				C8.3,88.6,8.7,88.3,9.1,88.3z M9.1,89.5c0.2,0,0.4-0.2,0.4-0.4c0-0.2-0.2-0.4-0.4-0.4c-0.2,0-0.4,0.2-0.4,0.4
				C8.7,89.3,8.9,89.5,9.1,89.5z"/>
		</g>
		
			<line fill="none" stroke="#414042" stroke-width="5.943695e-002" stroke-miterlimit="10" x1="117.6" y1="90" x2="117.6" y2="87.2"/>
		<line fill="none" stroke="#414042" stroke-width="5.943695e-002" stroke-miterlimit="10" x1="90.2" y1="90" x2="90.2" y2="87.2"/>
		<line fill="none" stroke="#414042" stroke-width="5.943695e-002" stroke-miterlimit="10" x1="62.8" y1="90" x2="62.8" y2="87.2"/>
		<line fill="none" stroke="#414042" stroke-width="5.943695e-002" stroke-miterlimit="10" x1="35.4" y1="90" x2="35.4" y2="87.2"/>
		<line fill="none" stroke="#414042" stroke-width="5.943695e-002" stroke-miterlimit="10" x1="145" y1="90" x2="145" y2="87.2"/>
		<g>
			<path fill="#58595B" d="M30.7,94.1c0,0,0-0.1,0-0.1c0-0.5,0.4-0.9,1-0.9c0.6,0,0.9,0.4,0.9,0.9c0,0.4-0.2,0.7-0.5,0.9l-0.6,0.4
				c-0.2,0.1-0.3,0.2-0.3,0.4h1.4V96h-2c0-0.5,0.2-0.8,0.7-1.1l0.5-0.3c0.3-0.2,0.4-0.4,0.4-0.6c0-0.3-0.2-0.5-0.5-0.5
				c-0.4,0-0.5,0.3-0.5,0.6c0,0,0,0.1,0,0.1L30.7,94.1z"/>
			<path fill="#58595B" d="M33.3,93.6c0.2-0.3,0.5-0.5,0.9-0.5s0.7,0.2,0.9,0.5c0.2,0.3,0.3,0.6,0.3,1c0,0.4-0.1,0.7-0.3,1
				c-0.2,0.3-0.5,0.5-0.9,0.5s-0.7-0.2-0.9-0.5c-0.2-0.3-0.3-0.6-0.3-1C33,94.2,33.1,93.8,33.3,93.6z M33.7,95.5
				c0.1,0.1,0.2,0.2,0.4,0.2s0.3-0.1,0.4-0.2c0.2-0.2,0.2-0.5,0.2-0.9c0-0.4-0.1-0.7-0.2-0.9c-0.1-0.1-0.2-0.2-0.4-0.2
				s-0.3,0.1-0.4,0.2c-0.2,0.2-0.2,0.5-0.2,0.9C33.4,95,33.5,95.3,33.7,95.5z"/>
			<path fill="#58595B" d="M36.2,96v-2h-0.7v-0.3c0.4,0,0.7-0.2,0.7-0.5h0.4V96H36.2z"/>
			<path fill="#58595B" d="M37.2,94.1c0,0,0-0.1,0-0.1c0-0.5,0.4-0.9,1-0.9c0.6,0,0.9,0.4,0.9,0.9c0,0.4-0.2,0.7-0.5,0.9L38,95.2
				c-0.2,0.1-0.3,0.2-0.3,0.4h1.4V96h-2c0-0.5,0.2-0.8,0.7-1.1l0.5-0.3c0.3-0.2,0.4-0.4,0.4-0.6c0-0.3-0.2-0.5-0.5-0.5
				c-0.4,0-0.5,0.3-0.5,0.6c0,0,0,0.1,0,0.1L37.2,94.1z"/>
		</g>
		<g>
			<path fill="#58595B" d="M58.1,94.1c0,0,0-0.1,0-0.1c0-0.5,0.4-0.9,1-0.9c0.6,0,0.9,0.4,0.9,0.9c0,0.4-0.2,0.7-0.5,0.9l-0.6,0.4
				c-0.2,0.1-0.3,0.2-0.3,0.4H60V96h-2c0-0.5,0.2-0.8,0.7-1.1l0.5-0.3c0.3-0.2,0.4-0.4,0.4-0.6c0-0.3-0.2-0.5-0.5-0.5
				c-0.4,0-0.5,0.3-0.5,0.6c0,0,0,0.1,0,0.1L58.1,94.1z"/>
			<path fill="#58595B" d="M60.6,93.6c0.2-0.3,0.5-0.5,0.9-0.5c0.4,0,0.7,0.2,0.9,0.5c0.2,0.3,0.3,0.6,0.3,1c0,0.4-0.1,0.7-0.3,1
				c-0.2,0.3-0.5,0.5-0.9,0.5c-0.4,0-0.7-0.2-0.9-0.5c-0.2-0.3-0.3-0.6-0.3-1C60.4,94.2,60.4,93.8,60.6,93.6z M61,95.5
				c0.1,0.1,0.2,0.2,0.4,0.2s0.3-0.1,0.4-0.2c0.2-0.2,0.2-0.5,0.2-0.9c0-0.4-0.1-0.7-0.2-0.9c-0.1-0.1-0.2-0.2-0.4-0.2
				s-0.3,0.1-0.4,0.2c-0.2,0.2-0.2,0.5-0.2,0.9C60.8,95,60.9,95.3,61,95.5z"/>
			<path fill="#58595B" d="M63.6,96v-2h-0.7v-0.3c0.4,0,0.7-0.2,0.7-0.5H64V96H63.6z"/>
			<path fill="#58595B" d="M65.1,94.3l0.8-0.8h-1.3v-0.4h1.9v0.4l-0.8,0.7c0.4,0,0.9,0.3,0.9,0.9c0,0.5-0.4,0.9-1,0.9
				c-0.7,0-1-0.4-1-0.9l0.4-0.1c0,0.4,0.3,0.6,0.6,0.6c0.4,0,0.6-0.2,0.6-0.5c0-0.4-0.3-0.5-0.6-0.5c-0.1,0-0.2,0-0.2,0L65.1,94.3z"
				/>
		</g>
		<g>
			<path fill="#58595B" d="M85.5,94.1c0,0,0-0.1,0-0.1c0-0.5,0.4-0.9,1-0.9c0.6,0,0.9,0.4,0.9,0.9c0,0.4-0.2,0.7-0.5,0.9l-0.6,0.4
				c-0.2,0.1-0.3,0.2-0.3,0.4h1.4V96h-2c0-0.5,0.2-0.8,0.7-1.1l0.5-0.3c0.3-0.2,0.4-0.4,0.4-0.6c0-0.3-0.2-0.5-0.5-0.5
				c-0.4,0-0.5,0.3-0.5,0.6c0,0,0,0.1,0,0.1L85.5,94.1z"/>
			<path fill="#58595B" d="M88.1,93.6c0.2-0.3,0.5-0.5,0.9-0.5c0.4,0,0.7,0.2,0.9,0.5c0.2,0.3,0.3,0.6,0.3,1c0,0.4-0.1,0.7-0.3,1
				C89.6,95.9,89.4,96,89,96c-0.4,0-0.7-0.2-0.9-0.5c-0.2-0.3-0.3-0.6-0.3-1C87.8,94.2,87.9,93.8,88.1,93.6z M88.5,95.5
				c0.1,0.1,0.2,0.2,0.4,0.2c0.2,0,0.3-0.1,0.4-0.2c0.2-0.2,0.2-0.5,0.2-0.9c0-0.4-0.1-0.7-0.2-0.9c-0.1-0.1-0.2-0.2-0.4-0.2
				c-0.2,0-0.3,0.1-0.4,0.2c-0.2,0.2-0.2,0.5-0.2,0.9C88.3,95,88.3,95.3,88.5,95.5z"/>
			<path fill="#58595B" d="M91.1,96v-2h-0.7v-0.3c0.4,0,0.7-0.2,0.7-0.5h0.4V96H91.1z"/>
			<path fill="#58595B" d="M91.9,94.9l1.2-1.7h0.6V95h0.5v0.4h-0.5V96h-0.4v-0.6h-1.4V94.9z M93.3,93.6l-1,1.4h1V93.6z"/>
		</g>
		<g>
			<path fill="#58595B" d="M113.2,94.1c0,0,0-0.1,0-0.1c0-0.5,0.4-0.9,1-0.9c0.6,0,0.9,0.4,0.9,0.9c0,0.4-0.2,0.7-0.5,0.9l-0.6,0.4
				c-0.2,0.1-0.3,0.2-0.3,0.4h1.4V96h-2c0-0.5,0.2-0.8,0.7-1.1l0.5-0.3c0.3-0.2,0.4-0.4,0.4-0.6c0-0.3-0.2-0.5-0.5-0.5
				c-0.4,0-0.5,0.3-0.5,0.6c0,0,0,0.1,0,0.1L113.2,94.1z"/>
			<path fill="#58595B" d="M115.7,93.6c0.2-0.3,0.5-0.5,0.9-0.5c0.4,0,0.7,0.2,0.9,0.5c0.2,0.3,0.3,0.6,0.3,1c0,0.4-0.1,0.7-0.3,1
				c-0.2,0.3-0.5,0.5-0.9,0.5c-0.4,0-0.7-0.2-0.9-0.5c-0.2-0.3-0.3-0.6-0.3-1C115.5,94.2,115.6,93.8,115.7,93.6z M116.2,95.5
				c0.1,0.1,0.2,0.2,0.4,0.2c0.2,0,0.3-0.1,0.4-0.2c0.2-0.2,0.2-0.5,0.2-0.9c0-0.4-0.1-0.7-0.2-0.9c-0.1-0.1-0.2-0.2-0.4-0.2
				c-0.2,0-0.3,0.1-0.4,0.2c-0.2,0.2-0.2,0.5-0.2,0.9C115.9,95,116,95.3,116.2,95.5z"/>
			<path fill="#58595B" d="M118.7,96v-2H118v-0.3c0.4,0,0.7-0.2,0.7-0.5h0.4V96H118.7z"/>
			<path fill="#58595B" d="M120,95.1c0,0.3,0.3,0.6,0.6,0.6c0.3,0,0.6-0.2,0.6-0.6c0-0.4-0.3-0.6-0.6-0.6c-0.2,0-0.4,0.1-0.5,0.2
				c-0.1-0.1-0.3-0.1-0.4-0.2l0.4-1.4h1.5v0.4h-1.2l-0.2,0.8c0.1-0.1,0.4-0.2,0.6-0.2c0.6,0,1,0.4,1,0.9c0,0.5-0.4,1-1,1
				c-0.6,0-1-0.4-1-0.8L120,95.1z"/>
		</g>
		<g>
			<path fill="#58595B" d="M140.6,94.1c0,0,0-0.1,0-0.1c0-0.5,0.4-0.9,1-0.9c0.6,0,0.9,0.4,0.9,0.9c0,0.4-0.2,0.7-0.5,0.9l-0.6,0.4
				c-0.2,0.1-0.3,0.2-0.3,0.4h1.4V96h-2c0-0.5,0.2-0.8,0.7-1.1l0.5-0.3c0.3-0.2,0.4-0.4,0.4-0.6c0-0.3-0.2-0.5-0.5-0.5
				c-0.4,0-0.5,0.3-0.5,0.6c0,0,0,0.1,0,0.1L140.6,94.1z"/>
			<path fill="#58595B" d="M143.2,93.6c0.2-0.3,0.5-0.5,0.9-0.5c0.4,0,0.7,0.2,0.9,0.5c0.2,0.3,0.3,0.6,0.3,1c0,0.4-0.1,0.7-0.3,1
				c-0.2,0.3-0.5,0.5-0.9,0.5c-0.4,0-0.7-0.2-0.9-0.5c-0.2-0.3-0.3-0.6-0.3-1C142.9,94.2,143,93.8,143.2,93.6z M143.6,95.5
				c0.1,0.1,0.2,0.2,0.4,0.2c0.2,0,0.3-0.1,0.4-0.2c0.2-0.2,0.2-0.5,0.2-0.9c0-0.4-0.1-0.7-0.2-0.9c-0.1-0.1-0.2-0.2-0.4-0.2
				c-0.2,0-0.3,0.1-0.4,0.2c-0.2,0.2-0.2,0.5-0.2,0.9C143.4,95,143.4,95.3,143.6,95.5z"/>
			<path fill="#58595B" d="M146.2,96v-2h-0.7v-0.3c0.4,0,0.7-0.2,0.7-0.5h0.4V96H146.2z"/>
			<path fill="#58595B" d="M149.1,93.6c-0.1-0.1-0.3-0.1-0.5-0.1c-0.6,0-1,0.4-1,1c0.1-0.2,0.4-0.4,0.7-0.4c0.6,0,1,0.3,1,1
				c0,0.6-0.5,1-1,1c-0.5,0-1.1-0.4-1.1-1.3c0-1,0.6-1.6,1.4-1.6c0.3,0,0.5,0.1,0.6,0.2L149.1,93.6z M148.2,95.7
				c0.3,0,0.6-0.2,0.6-0.6c0-0.4-0.3-0.6-0.6-0.6c-0.3,0-0.6,0.2-0.6,0.6C147.6,95.5,147.9,95.7,148.2,95.7z"/>
		</g>
	</g>
</g>
<g>
	<g>
		<path fill="#999999" d="M2,119.5H0.3v-0.2H2V119.5z M2.4,122.6c-0.5,0.3-1.2,0.5-1.8,0.7c0-0.1-0.2-0.2-0.2-0.2
			c0.6-0.1,1.3-0.4,1.8-0.6L2.4,122.6z M1.8,118.6H0.5v-0.2h1.4V118.6z M1.1,120h3.8v2.4H1.1V120z M1.4,120.8h3.3v-0.5H1.4V120.8z
			 M1.4,121.5h3.3V121H1.4V121.5z M1.4,122.2h3.3v-0.5H1.4V122.2z M3,118.6c-0.1,0.3-0.3,0.5-0.5,0.7c0,0-0.2-0.1-0.2-0.2
			c0.3-0.3,0.6-0.7,0.7-1.2l0.3,0.1c0,0.1-0.1,0.3-0.2,0.4h2.2l0,0l0.2,0.1c-0.2,0.3-0.3,0.6-0.5,0.8l-0.2-0.1
			c0.1-0.2,0.2-0.4,0.3-0.6H4v0c0,0.1,0,0.2,0,0.3c0.3,0.4,1,0.7,1.8,0.8c-0.1,0.1-0.1,0.2-0.2,0.2c-0.7-0.1-1.3-0.4-1.7-0.8
			c-0.2,0.3-0.6,0.6-1.7,0.8c0-0.1-0.1-0.2-0.2-0.2c1.6-0.3,1.7-0.7,1.7-1.1v0H3z M3.8,122.5c0.7,0.2,1.4,0.4,1.8,0.6l-0.3,0.2
			c-0.4-0.2-1.1-0.4-1.8-0.6L3.8,122.5z"/>
		<path fill="#999999" d="M7.1,120.7c-0.1,0.7-0.4,1.5-0.7,1.9c0-0.1-0.1-0.2-0.2-0.3c0.2-0.4,0.5-1.1,0.6-1.7L7.1,120.7z
			 M7.6,120.2v3.1H7.3v-3.1h-1v-0.3h1v-2h0.3v2h1v0.3H7.6z M6.8,119.7c0-0.3-0.2-0.9-0.4-1.3l0.2-0.1c0.2,0.4,0.3,0.9,0.4,1.3
			L6.8,119.7z M7.9,120.6c0.1,0.2,0.5,1,0.6,1.3l-0.2,0.2c-0.1-0.3-0.5-1.1-0.6-1.4L7.9,120.6z M8.6,118.4c-0.1,0.4-0.3,1-0.5,1.3
			l-0.2-0.1c0.1-0.3,0.3-0.9,0.4-1.3L8.6,118.4z M10.9,121.6v1.7h-0.3v-1.7l-2,0.4l-0.1-0.3l2-0.4v-3.5h0.3v3.4l0.8-0.1l0,0.3
			L10.9,121.6z M9.8,120.8c-0.2-0.2-0.6-0.5-1-0.7l0.1-0.2c0.4,0.2,0.8,0.5,1,0.7L9.8,120.8z M10.1,119.4c-0.2-0.2-0.6-0.6-1-0.8
			l0.2-0.2c0.4,0.2,0.8,0.5,0.9,0.7L10.1,119.4z"/>
		<path fill="#999999" d="M15.1,120.6c0.5,1,1.6,1.9,2.6,2.2c-0.1,0.1-0.2,0.2-0.2,0.3c-0.9-0.4-1.8-1.1-2.4-2v2.3h-0.3v-2.3
			c-0.6,0.8-1.5,1.6-2.4,2c0-0.1-0.1-0.2-0.2-0.2c1-0.4,2-1.3,2.6-2.2v-1.5h-2.4v-0.3h2.4v-0.9h0.3v0.9h2.5v0.3h-2.5V120.6z
			 M13.8,119.3c-0.1,0.3-0.1,0.5-0.2,0.8c0.3,0.2,0.6,0.6,0.7,0.7l-0.2,0.2c-0.1-0.2-0.4-0.5-0.7-0.7c-0.2,0.4-0.5,0.8-0.8,1
			c0-0.1-0.2-0.1-0.2-0.2c0.6-0.4,0.9-1.1,1.1-1.9L13.8,119.3z M16.7,119.3c-0.1,0.3-0.1,0.5-0.2,0.7c0.4,0.3,0.9,0.8,1.1,1
			l-0.2,0.2c-0.2-0.3-0.7-0.6-1-1c-0.2,0.3-0.4,0.6-0.6,0.8c0,0-0.2-0.1-0.2-0.2c0.5-0.4,0.7-1,0.9-1.7L16.7,119.3z"/>
		<path fill="#999999" d="M19.3,120.5c-0.2-0.2-0.7-0.5-1-0.7l0.2-0.2c0.3,0.2,0.8,0.4,1,0.6L19.3,120.5z M19.6,121.3
			c-0.3,0.6-0.6,1.4-0.9,1.9l-0.3-0.2c0.3-0.5,0.7-1.3,0.9-1.9L19.6,121.3z M19.6,118.9c-0.2-0.2-0.7-0.5-1-0.7l0.2-0.2
			c0.3,0.2,0.8,0.5,1,0.7L19.6,118.9z M20.3,119.8c0,1-0.1,2.5-0.8,3.5c0,0-0.2-0.1-0.2-0.1c0.7-1,0.7-2.3,0.7-3.3v-1.6h3.6v0.3
			h-3.3V119.8z M21.3,121.7c-0.2,0.5-0.5,0.9-0.8,1.2c0,0-0.2-0.1-0.2-0.2c0.3-0.3,0.6-0.7,0.8-1.1L21.3,121.7z M22.2,121.3v1.7
			c0,0.2,0,0.3-0.2,0.3c-0.1,0-0.4,0-0.8,0c0-0.1-0.1-0.2-0.1-0.3c0.3,0,0.6,0,0.7,0c0.1,0,0.1,0,0.1-0.1v-1.7h-1.2v-2h1
			c0.1-0.2,0.1-0.5,0.2-0.7l0.3,0.1c-0.1,0.2-0.1,0.4-0.2,0.6h1.4v2H22.2z M21,120.2h2.1v-0.6H21V120.2z M21,121h2.1v-0.6H21V121z
			 M23,121.6c0.3,0.4,0.6,0.9,0.7,1.2l-0.3,0.1c-0.2-0.3-0.5-0.8-0.7-1.2L23,121.6z"/>
		<path fill="#999999" d="M25.1,119.2c0-0.2,0.2-0.4,0.4-0.4c0.2,0,0.4,0.1,0.4,0.4c0,0.2-0.2,0.4-0.4,0.4
			C25.3,119.6,25.1,119.4,25.1,119.2z M25.1,122.2c0-0.2,0.2-0.4,0.4-0.4c0.2,0,0.4,0.1,0.4,0.4c0,0.2-0.2,0.4-0.4,0.4
			C25.3,122.5,25.1,122.4,25.1,122.2z"/>
		<path fill="#999999" d="M29.4,120.3c-0.1,2-0.1,2.7-0.2,2.9c-0.1,0.1-0.2,0.1-0.3,0.2c-0.1,0-0.4,0-0.7,0c0-0.1,0-0.2-0.1-0.3
			c0.3,0,0.5,0,0.6,0c0.1,0,0.1,0,0.2-0.1c0.1-0.1,0.2-0.8,0.2-2.6h-0.9c-0.1,1.2-0.2,2.3-0.8,2.9c0-0.1-0.2-0.1-0.2-0.2
			c0.6-0.8,0.7-2.4,0.7-4h-0.7v-0.3h2.3v0.3h-1.4c0,0.3,0,0.6,0,0.9h1.1V120.3z M28.5,118.8c-0.1-0.2-0.2-0.6-0.3-0.8l0.2-0.1
			c0.1,0.2,0.3,0.6,0.3,0.8L28.5,118.8z M30.3,119.1c-0.2,0.4-0.4,0.7-0.6,1c0,0-0.2-0.1-0.2-0.2c0.4-0.5,0.7-1.2,0.9-2l0.3,0.1
			c-0.1,0.3-0.2,0.6-0.3,0.8h2.3v0.3H30.3z M32.1,123.1c0.3,0,0.3-0.1,0.3-0.7c0.1,0.1,0.2,0.1,0.3,0.1c0,0.7-0.1,0.9-0.6,0.9h-1.3
			c-0.5,0-0.7-0.1-0.7-0.5v-1.7l-0.4,0.2l-0.1-0.2l0.6-0.3v-1h0.3v0.9l0.7-0.3v-1h0.3v0.9l0.8-0.4l0.1-0.1l0.2,0.1l0,0.1
			c0,0.7,0,1.5-0.1,2.1l-0.2-0.1c0-0.4,0.1-1.2,0.1-1.8l-0.8,0.4v1.9h-0.3v-1.7l-0.7,0.3v1.8c0,0.2,0.1,0.3,0.4,0.3H32.1z"/>
		<path fill="#999999" d="M34,122.1c-0.1,0.4-0.2,0.9-0.3,1.2c-0.1,0-0.2-0.1-0.2-0.1c0.2-0.3,0.3-0.7,0.3-1.1L34,122.1z
			 M35.2,120.8c0.2,0.3,0.4,0.8,0.5,1.1l-0.2,0.1c0-0.1-0.1-0.2-0.1-0.4c-1.6,0.2-1.7,0.2-1.9,0.2c0-0.1-0.1-0.2-0.1-0.3
			c0.1,0,0.3-0.1,0.5-0.3c0.1-0.1,0.4-0.3,0.7-0.7c-0.8,0.1-1,0.1-1,0.1c0-0.1-0.1-0.2-0.1-0.3c0.1,0,0.2-0.1,0.3-0.2
			c0.1-0.1,0.5-0.5,0.8-0.9l0.3,0.1c-0.3,0.3-0.5,0.7-0.8,0.9l0.9-0.1c0.1-0.2,0.3-0.3,0.4-0.5l0.2,0.1c-0.5,0.5-1,1.1-1.5,1.5
			l1.3-0.1c-0.1-0.2-0.2-0.3-0.3-0.5L35.2,120.8z M38.3,119.4h-4.6v-1.2h4.6V119.4z M35.1,118.4H34v0.7h1.1V118.4z M34.6,122
			c0.1,0.3,0.2,0.8,0.2,1.1l-0.2,0c0-0.3-0.1-0.7-0.2-1.1L34.6,122z M35.2,121.9c0.2,0.3,0.4,0.7,0.4,1l-0.2,0.1
			c-0.1-0.3-0.2-0.7-0.4-1L35.2,121.9z M36.6,118.4h-1.2v0.7h1.2V118.4z M38.7,123.1h-2.4v0.3H36v-2.6c-0.1,0.2-0.2,0.3-0.4,0.5
			c-0.1,0-0.2-0.1-0.2-0.2c0.4-0.4,0.8-1,1-1.6l0.3,0.1c-0.1,0.3-0.2,0.5-0.4,0.7h1.1c-0.1-0.2-0.2-0.5-0.3-0.7l0.2-0.1
			c0.1,0.2,0.3,0.5,0.4,0.8h0.9v0.3h-1v0.6h0.9v0.2h-0.9v0.6h0.9v0.2h-0.9v0.6h1.1V123.1z M37.3,120.5h-1v0.6h1V120.5z M37.3,121.4
			h-1v0.6h1V121.4z M36.3,122.9h1v-0.6h-1V122.9z M38,118.4h-1.2v0.7H38V118.4z"/>
		<path fill="#999999" d="M40.9,119.3c-0.2,0.3-0.3,0.6-0.5,0.8v3.2h-0.3v-2.9c-0.2,0.3-0.5,0.6-0.7,0.8c0-0.1-0.1-0.2-0.2-0.2
			c0.5-0.5,1.1-1.2,1.4-1.9L40.9,119.3z M40.8,118c-0.4,0.5-0.9,1-1.4,1.4c0-0.1-0.1-0.2-0.2-0.2c0.4-0.3,1-0.9,1.3-1.3L40.8,118z
			 M40.7,123c0.3-0.3,0.5-0.8,0.6-1.1l0.2,0.1c-0.1,0.4-0.3,0.9-0.6,1.2L40.7,123z M44.7,121.1v0.3h-3.8v-0.3H44.7z M42.5,119.2
			c0-0.1,0.1-0.3,0.1-0.5h-1.6v-0.3h1.7c0-0.2,0.1-0.4,0.1-0.6l0.3,0c0,0.2-0.1,0.3-0.1,0.5h1.8v0.3h-1.8c0,0.2-0.1,0.4-0.1,0.5h1.7
			v1.4h-3.2v-1.4H42.5z M42.2,119.5h-0.7v1h0.7V119.5z M43.3,123c0.2,0,0.2-0.1,0.3-0.6c0.1,0,0.2,0.1,0.3,0.1
			c0,0.6-0.1,0.8-0.5,0.8h-1c-0.4,0-0.6-0.1-0.6-0.4v-1h0.3v1c0,0.1,0,0.2,0.3,0.2H43.3z M42.6,121.5c0.2,0.2,0.4,0.6,0.5,0.8
			l-0.2,0.1c-0.1-0.2-0.3-0.5-0.5-0.8L42.6,121.5z M43.2,119.5h-0.8v1h0.8V119.5z M43.4,120.4h0.8v-1h-0.8V120.4z M44.1,121.8
			c0.2,0.4,0.5,0.9,0.6,1.2l-0.2,0.1c-0.1-0.3-0.4-0.8-0.6-1.2L44.1,121.8z"/>
		<path fill="#999999" d="M45.9,121.5c0.5-0.2,0.7-0.5,0.7-1c0,0-0.1,0-0.1,0c-0.2,0-0.4-0.1-0.4-0.4s0.2-0.4,0.4-0.4
			c0.3,0,0.4,0.2,0.4,0.6c0,0.6-0.4,1.1-0.9,1.3L45.9,121.5z"/>
		<path fill="#999999" d="M48.8,121.8c-0.1,0.5-0.2,1.1-0.3,1.4c-0.1,0-0.2-0.1-0.2-0.1c0.1-0.4,0.2-0.9,0.3-1.4L48.8,121.8z
			 M50.1,121.4c0-0.1,0-0.2-0.1-0.3c-1.4,0.2-1.6,0.3-1.7,0.3c0-0.1-0.1-0.2-0.1-0.3c0.1,0,0.3-0.2,0.4-0.4c0.1-0.1,0.3-0.4,0.6-0.8
			c-0.8,0.1-0.9,0.1-1,0.1c0-0.1-0.1-0.2-0.1-0.3c0.1,0,0.2-0.2,0.3-0.3c0.1-0.2,0.6-0.9,0.9-1.5l0.3,0.1c-0.3,0.6-0.7,1.2-1.1,1.7
			l0.8-0.1c0.2-0.3,0.3-0.6,0.5-0.8l0.3,0.1c-0.4,0.7-0.9,1.5-1.4,2.1l1.2-0.2c-0.1-0.2-0.2-0.5-0.3-0.6l0.2-0.1
			c0.2,0.4,0.4,0.9,0.4,1.2L50.1,121.4z M49.4,121.7c0.1,0.4,0.2,0.9,0.2,1.3l-0.2,0.1c0-0.3-0.1-0.9-0.2-1.3L49.4,121.7z
			 M50.2,122.8c-0.1-0.3-0.2-0.8-0.3-1.1l0.2-0.1c0.1,0.4,0.3,0.8,0.4,1.1L50.2,122.8z M53.3,123c0.1,0,0.2-0.1,0.2-0.8
			c0.1,0.1,0.2,0.1,0.3,0.1c0,0.7-0.1,0.9-0.4,0.9h-0.6c-0.3,0-0.4-0.1-0.4-0.4v-2.3l-0.7,0.1c0,1.5-0.2,2.3-1.3,2.8
			c0-0.1-0.1-0.2-0.2-0.2c1-0.4,1.2-1.1,1.2-2.5c-0.5,0.1-0.6,0.1-0.7,0.1c0-0.1-0.1-0.2-0.1-0.3c0.1,0,0.2-0.2,0.4-0.5
			c0.1-0.1,0.4-0.5,0.6-1h-1v-0.3h1.1c0.1-0.3,0.3-0.5,0.4-0.8l0.3,0.1c-0.1,0.2-0.2,0.5-0.3,0.7h1.6v0.3h-1.8
			c-0.3,0.5-0.6,1-0.9,1.4l2.1-0.2c-0.1-0.3-0.3-0.5-0.5-0.8l0.2-0.1c0.3,0.4,0.7,1.1,0.9,1.4l-0.3,0.1c-0.1-0.1-0.1-0.3-0.2-0.4
			l-0.6,0.1v2.3c0,0.1,0,0.2,0.2,0.2H53.3z"/>
		<path fill="#999999" d="M56.9,119.2h-2.4V119h2.4V119.2z M54.7,119.7h1.9v0.2h-1.9V119.7z M56.6,120.8h-1.9v-0.3h1.9V120.8z
			 M56.6,123H55v0.3h-0.3v-2h1.9V123z M55,121.5v1.2h1.3v-1.2H55z M55.6,118.8c-0.1-0.2-0.3-0.5-0.5-0.8l0.2-0.1
			c0.2,0.2,0.4,0.5,0.5,0.8L55.6,118.8z M59.7,120.3h-1.3v3h-0.3v-3h-1.3v-0.3h1.3v-2h0.3v2h1.3V120.3z"/>
		<path fill="#999999" d="M61.1,122.9v0.4h-0.3V121c-0.1,0.2-0.2,0.3-0.4,0.4c0,0-0.1-0.1-0.2-0.2c0.4-0.4,0.7-0.9,1-1.4l0.3,0.1
			c-0.1,0.2-0.2,0.4-0.3,0.6h1c-0.1-0.2-0.2-0.4-0.3-0.6l0.2-0.1c0.1,0.2,0.3,0.4,0.4,0.6l-0.1,0h1v0.2h-1v0.5h0.9v0.2h-0.9v0.5h0.9
			v0.2h-0.9v0.5h1v0.3H61.1z M65.3,120.2c-0.2,0.7-0.5,1.4-0.9,1.9c0.2,0.6,0.5,0.9,0.8,0.9c0.2,0,0.2-0.3,0.3-1
			c0.1,0.1,0.2,0.1,0.2,0.1c-0.1,0.9-0.2,1.2-0.5,1.2c-0.4,0-0.7-0.3-0.9-0.9c-0.3,0.4-0.6,0.7-1,1c-0.1-0.1-0.1-0.2-0.2-0.2
			c0.4-0.3,0.8-0.6,1.1-1.1c-0.2-0.6-0.3-1.4-0.4-2.4h-3.4v-0.3h1.5v-0.6h-1.2v-0.3h1.2v-0.6h0.3v0.6h1.2v0.3h-1.2v0.6h1.6
			c0-0.5,0-1,0-1.5h0.3c0,0.5,0,1,0,1.5h1.7v0.3H64c0.1,0.9,0.2,1.6,0.3,2.1c0.3-0.5,0.6-1.1,0.7-1.7L65.3,120.2z M62.1,120.7h-1
			v0.5h1V120.7z M62.1,121.4h-1v0.5h1V121.4z M62.1,122.1h-1v0.5h1V122.1z M65.3,119.1c-0.2-0.3-0.6-0.6-0.9-0.9l0.2-0.1
			c0.3,0.2,0.7,0.6,0.9,0.9L65.3,119.1z"/>
		<path fill="#999999" d="M71.6,122.8v0.3h-5.3v-0.3h2.5v-1.3h-2v-0.3h2v-0.9h0.3v0.9h2v0.3h-2v1.3H71.6z M71.1,120.5
			c-0.1-0.1-0.2-0.3-0.4-0.5c-3.4,0.2-3.7,0.2-3.8,0.3c0-0.1-0.1-0.2-0.1-0.3c0.1,0,0.2-0.1,0.4-0.3c0.2-0.1,0.6-0.6,1-1.2h-1.7
			v-0.3h5v0.3h-2.8c-0.4,0.5-0.9,1-1.3,1.4l3.1-0.1c-0.3-0.2-0.6-0.5-0.9-0.7l0.2-0.1c0.6,0.4,1.2,1,1.5,1.4L71.1,120.5z"/>
		<path fill="#999999" d="M72.3,122.7c1.5-1.3,2.1-2.2,2.1-3c0-0.5-0.3-1-0.9-1c-0.4,0-0.7,0.2-1,0.5l-0.2-0.2
			c0.3-0.4,0.7-0.6,1.2-0.6c0.8,0,1.2,0.5,1.2,1.3c0,0.9-0.7,1.8-1.9,2.9c0.2,0,0.5,0,0.7,0h1.4v0.3h-2.6V122.7z"/>
		<path fill="#999999" d="M75.5,120.7c0-1.5,0.5-2.2,1.3-2.2c0.8,0,1.3,0.7,1.3,2.2c0,1.5-0.5,2.3-1.3,2.3
			C76,123,75.5,122.3,75.5,120.7z M77.8,120.7c0-1.3-0.4-2-0.9-2c-0.6,0-0.9,0.7-0.9,2c0,1.3,0.4,2,0.9,2
			C77.4,122.7,77.8,122,77.8,120.7z"/>
		<path fill="#999999" d="M79,122.6h1v-3.6h-0.8v-0.2c0.4-0.1,0.6-0.2,0.8-0.3h0.3v4.1h0.9v0.3H79V122.6z"/>
		<path fill="#999999" d="M81.9,120.7c0-1.5,0.5-2.2,1.3-2.2c0.8,0,1.3,0.7,1.3,2.2c0,1.5-0.5,2.3-1.3,2.3
			C82.4,123,81.9,122.3,81.9,120.7z M84.2,120.7c0-1.3-0.4-2-0.9-2c-0.6,0-0.9,0.7-0.9,2c0,1.3,0.4,2,0.9,2
			C83.8,122.7,84.2,122,84.2,120.7z"/>
		<path fill="#999999" d="M90.5,121.9h-2.2v1.4H88v-1.4h-2.8v-0.3h1V120H88v-1h-1.6c-0.3,0.5-0.6,0.9-1,1.2c-0.1,0-0.2-0.1-0.3-0.2
			c0.6-0.5,1.1-1.3,1.4-2.1l0.3,0.1c-0.1,0.2-0.2,0.5-0.3,0.7h3.7v0.3h-2v1h1.9v0.3h-1.9v1.4h2.2V121.9z M88,121.6v-1.4h-1.5v1.4H88
			z"/>
		<path fill="#999999" d="M91.4,122.6h1v-3.6h-0.8v-0.2c0.4-0.1,0.6-0.2,0.8-0.3h0.3v4.1h0.9v0.3h-2.3V122.6z"/>
		<path fill="#999999" d="M94.4,120.7c0-1.5,0.5-2.2,1.3-2.2c0.8,0,1.3,0.7,1.3,2.2c0,1.5-0.5,2.3-1.3,2.3
			C94.9,123,94.4,122.3,94.4,120.7z M96.6,120.7c0-1.3-0.4-2-0.9-2c-0.6,0-0.9,0.7-0.9,2c0,1.3,0.4,2,0.9,2
			C96.2,122.7,96.6,122,96.6,120.7z"/>
		<path fill="#999999" d="M102.1,122.9c0,0.3-0.1,0.4-0.3,0.4c-0.2,0.1-0.6,0.1-1.2,0.1c0-0.1-0.1-0.2-0.1-0.3c0.5,0,1,0,1.2,0
			c0.1,0,0.2,0,0.2-0.2v-1.4h-3.1c-0.1,0.7-0.4,1.4-1,1.9c0-0.1-0.1-0.2-0.2-0.2c1-0.9,1.1-2.1,1.1-3.1v-1.8h3.5V122.9z
			 M101.8,121.2V120h-2.9v0c0,0.4,0,0.7-0.1,1.1H101.8z M98.9,118.5v1.2h2.9v-1.2H98.9z"/>
		<path fill="#999999" d="M103.5,122.7c1.5-1.3,2.1-2.2,2.1-3c0-0.5-0.3-1-0.9-1c-0.4,0-0.7,0.2-1,0.5l-0.2-0.2
			c0.3-0.4,0.7-0.6,1.2-0.6c0.8,0,1.2,0.5,1.2,1.3c0,0.9-0.7,1.8-1.9,2.9c0.2,0,0.5,0,0.7,0h1.4v0.3h-2.6V122.7z"/>
		<path fill="#999999" d="M106.8,120.7c0-1.5,0.5-2.2,1.3-2.2c0.8,0,1.3,0.7,1.3,2.2c0,1.5-0.5,2.3-1.3,2.3
			C107.3,123,106.8,122.3,106.8,120.7z M109,120.7c0-1.3-0.4-2-0.9-2c-0.6,0-0.9,0.7-0.9,2c0,1.3,0.4,2,0.9,2
			C108.6,122.7,109,122,109,120.7z"/>
		<path fill="#999999" d="M114.6,118.4v4.9h-0.3v-0.4h-3.2v0.4h-0.3v-4.9H114.6z M111.1,118.7v1.8h3.2v-1.8H111.1z M114.3,122.6
			v-1.9h-3.2v1.9H114.3z"/>
	</g>
</g>
<g>
</g>
<g>
</g>
<g>
</g>
<g>
</g>
<g>
</g>
<g>
</g>
<g>
</g>
<g>
</g>
<g>
</g>
<g>
</g>
<g>
</g>
<g>
</g>
<g>
</g>
<g>
</g>
<g>
</g>
</svg>
