<?xml version="1.0" encoding="utf-8"?>
<!-- Generator: Adobe Illustrator 18.0.0, SVG Export Plug-In . SVG Version: 6.00 Build 0)  -->
<!DOCTYPE svg PUBLIC "-//W3C//DTD SVG 1.1//EN" "http://www.w3.org/Graphics/SVG/1.1/DTD/svg11.dtd">
<svg version="1.1" id="Layer_1" xmlns="http://www.w3.org/2000/svg" xmlns:xlink="http://www.w3.org/1999/xlink" x="0px" y="0px"
	 viewBox="0 0 219.3 203.9" enable-background="new 0 0 219.3 203.9" xml:space="preserve">
<g>
	<g>
		<g>
			<g>
				<path fill="#0C56AB" d="M24.8,5.4c-0.6,5.9-2.4,9.8-5.1,11.8c-0.3-0.4-0.8-1-1.2-1.2c1.4-0.9,2.4-2.4,3.2-4.2
					c-0.4-0.6-1.1-1.3-1.7-1.9c-0.2,0.5-0.5,0.9-0.8,1.3c-0.2-0.3-0.7-1-1-1.3c1.2-1.6,2-4.1,2.4-6.8h-1.9V1.6H25v1.5h-2.8
					c-0.1,0.7-0.3,1.4-0.5,2.1h1.8l0.3,0L24.8,5.4z M21.4,6.7C21.2,7.4,21,8,20.7,8.6c0.6,0.5,1.2,1.1,1.7,1.6
					c0.3-1,0.6-2.2,0.7-3.5H21.4z M34.9,15.4v1.4H24v-1.4h1.7v-10h2.4c0.1-0.4,0.2-0.8,0.3-1.3H25V2.7h3.5c0.1-0.7,0.1-1.3,0.2-1.9
					l1.9,0.1c-0.1,0.6-0.2,1.2-0.3,1.8h4.2v1.4h-4.5c-0.1,0.5-0.2,0.9-0.3,1.3h3.9v10H34.9z M27.3,6.7v1.3h4.6V6.7H27.3z M31.9,9.1
					h-4.6v1.3h4.6V9.1z M27.3,11.6v1.3h4.6v-1.3H27.3z M27.3,15.4h4.6v-1.3h-4.6V15.4z"/>
				<path fill="#0C56AB" d="M41.9,6.1h3.5v1.5h-3.5v0.6c0.9,0.8,2.8,2.6,3.3,3.1l-1,1.4c-0.5-0.6-1.5-1.7-2.4-2.6v7.2h-1.7v-7.1
					c-0.9,1.9-2,3.7-3.1,4.8c-0.2-0.5-0.6-1.2-0.9-1.6c1.4-1.3,2.8-3.6,3.7-5.7h-3.3V6.1h3.6V3.4c-1.1,0.2-2.2,0.4-3.2,0.5
					c-0.1-0.4-0.3-0.9-0.5-1.3c2.6-0.4,5.6-1,7.3-1.8L45,2.1c-0.9,0.4-2,0.7-3.1,0.9V6.1z M48.3,12.8h-1.7V2.9h1.7V12.8z M52.1,1
					v14.1c0,1.1-0.3,1.5-0.9,1.8c-0.6,0.3-1.7,0.3-3.3,0.3c-0.1-0.5-0.3-1.3-0.6-1.7c1.2,0.1,2.3,0.1,2.7,0.1c0.3,0,0.5-0.1,0.5-0.5
					V1H52.1z"/>
				<path fill="#0C56AB" d="M70.7,13.7h-7.2v3.6h-1.8v-3.6h-7.2v-1.5h7.2v-1.3h1.8v1.3h7.2V13.7z M59.4,9c-1.3,0.7-2.8,1.5-3.9,2
					l-0.8-1.4c1.1-0.4,2.8-1.2,4.4-1.9L59.4,9z M65.5,11.1c-0.1-0.3-0.3-0.6-0.4-0.9c-4.5,0.4-5.2,0.5-5.6,0.7
					c-0.1-0.3-0.3-1-0.5-1.4c0.4-0.1,0.9-0.4,1.5-0.9c0.3-0.2,1-0.8,1.7-1.6c-1.7,0.1-2.1,0.2-2.4,0.3c-0.1-0.3-0.3-1-0.5-1.4
					c0.3-0.1,0.5-0.3,0.8-0.6c0.2-0.2,0.7-0.8,1.2-1.6H55V2.3h7c-0.2-0.4-0.5-0.9-0.7-1.2L63,0.7c0.4,0.5,0.8,1.2,1,1.6h6.5v1.5
					h-7.5c-0.5,0.7-1,1.4-1.5,1.9l2-0.1c0.4-0.5,0.8-1,1.2-1.5l1.3,0.8c-1.3,1.6-2.8,3-4.3,4.2L64.3,9c-0.2-0.4-0.5-0.7-0.7-1
					l1.2-0.5c0.8,1,1.7,2.2,2,3.1L65.5,11.1z M57.8,7.4c-0.6-0.6-1.7-1.5-2.7-2.1l1.1-0.9c0.9,0.6,2.1,1.4,2.7,2L57.8,7.4z
					 M69.3,11.2c-0.8-0.7-2.3-1.8-3.5-2.5l1.2-0.9c1.2,0.7,2.8,1.7,3.6,2.4L69.3,11.2z M69.8,5.2C69,6,68,6.8,67.2,7.4L66,6.6
					c0.8-0.6,1.8-1.5,2.4-2.3L69.8,5.2z"/>
				<path fill="#0C56AB" d="M84.7,10c1.2,0.9,2.9,1.5,4.4,1.9c-0.3,0.3-0.7,0.8-0.9,1.2c-2-0.6-4-1.7-5.4-3.1h-3.2
					c-0.4,0.3-0.8,0.6-1.2,0.8c1.6-0.1,3.4-0.2,4.4-0.4l1,0.8c-0.6,0.1-1.3,0.2-2,0.3v0.8h3.8v1h-3.8v0.7h5.6v1h-5.6v0.7
					c0,0.8-0.2,1.1-0.9,1.3c-0.7,0.2-1.8,0.2-3.5,0.2c-0.1-0.4-0.3-0.8-0.5-1.2c1.2,0.1,2.6,0.1,2.9,0c0.3,0,0.5-0.1,0.5-0.4v-0.7
					h-6.7v-1h6.7v-0.7h-4.4v-1h4.4v-0.7c-0.6,0.1-1.3,0.1-1.9,0.1c0-0.2-0.1-0.5-0.2-0.7c-1.5,0.9-3.3,1.6-5.2,2.1
					c-0.1-0.3-0.5-1-0.7-1.3c1.8-0.4,3.6-1,5-1.8h-4.7V8.7h6.5c0.4-0.4,0.8-0.8,1-1.3l1.4,0.4c-0.2,0.3-0.4,0.6-0.6,0.9h7.7V10H84.7
					z M75.3,5.6c-0.6,0.9-1.3,1.7-2,2.3c-0.1-0.4-0.4-1-0.6-1.4c0.8-0.6,1.8-1.7,2.4-2.8h-2.1V2.5h2.2V0.8h1.4v1.7h1.8v0.9
					c0.4-0.3,0.9-0.5,1.3-0.8c-0.5-0.3-0.9-0.6-1.3-0.8L79.3,1c0.4,0.2,0.9,0.5,1.4,0.8c0.3-0.3,0.6-0.6,0.8-1l1.2,0.4
					c-0.3,0.4-0.7,0.8-1.1,1.2C82,2.8,82.4,3,82.7,3.3V2.5h2V0.8h1.4v1.7h2.3v1.3h-2.3v0.3c0.6,0.4,2.3,1.8,2.7,2.2l-0.9,1
					c-0.3-0.4-1.1-1.2-1.8-1.9v2.8h-1.4V5.7c-0.4,0.6-0.8,1.2-1.3,1.6c-0.2-0.3-0.7-0.8-1-1c0.8-0.5,1.6-1.5,2.1-2.5h-1.8V3.5
					l-0.8,0.7c-0.3-0.3-0.7-0.6-1.2-1c-0.6,0.5-1.1,0.9-1.7,1.2c-0.2-0.2-0.5-0.5-0.7-0.7h-1.6v0.4c0.6,0.4,1.8,1.3,2.2,1.5l-0.9,1
					c-0.3-0.3-0.8-0.8-1.3-1.2v2.7h-1.4V5.6z M82.7,4.8C82.4,5.2,82,5.6,81.6,6c0.5,0.4,1,0.8,1.3,1.1L82,7.9
					c-0.3-0.3-0.8-0.7-1.3-1.2c-0.6,0.5-1.3,1-1.9,1.3c-0.2-0.2-0.7-0.7-1-0.9c0.7-0.3,1.4-0.8,2-1.2c-0.4-0.3-0.8-0.6-1.2-0.9
					l0.9-0.7c0.4,0.3,0.8,0.6,1.3,0.8c0.3-0.3,0.6-0.6,0.9-1L82.7,4.8z"/>
				<path fill="#0C56AB" d="M106.8,9.5H103v7.8h-1.7V9.5h-5.1c-0.1,2.9-1,5.8-4.6,7.8c-0.2-0.4-0.8-1-1.2-1.3
					c3.1-1.7,3.9-4.1,4.1-6.5h-3.9V7.9h4V4.3c-1.1,0.3-2.2,0.6-3.2,0.8c-0.1-0.4-0.4-1-0.6-1.4C93.6,3,96.6,2,98.4,1l1.2,1.4
					c-1,0.5-2.2,1-3.4,1.4v4.1h5.1V1.1h1.7v6.8h3.8V9.5z"/>
				<path fill="#0C56AB" d="M121.4,10c0,0.4-0.1,0.8-0.2,1.2h7.2v1.4h-7.6c-0.8,2.3-2.8,3.9-7.5,4.6c-0.1-0.5-0.5-1.1-0.8-1.5
					c3.9-0.5,5.7-1.5,6.5-3.1h-5.7v-1.4h6.2c0.1-0.4,0.1-0.8,0.2-1.2h-6.8V8.5h7V7.3h-5.4V5.8h5.4V4.6h-6.4V3.1h3.6
					c-0.3-0.6-0.8-1.3-1.2-1.9l1.5-0.6c0.6,0.6,1.2,1.5,1.5,2.2l-0.6,0.3h4.4c0.5-0.7,1.1-1.7,1.4-2.4l1.8,0.5
					c-0.4,0.7-0.9,1.4-1.3,2h3.7v1.5h-6.5v1.2h5.6v1.4h-5.6v1.3h7.3V10H121.4z M128,17.4c-1.6-1-4.8-2.5-7.2-3.5l0.7-1.3
					c2.4,0.8,5.6,2.3,7.3,3.3L128,17.4z"/>
				<path fill="#0C56AB" d="M135.9,1.2c-0.5,1.2-1,2.4-1.7,3.5v12.5h-1.6V7.3c-0.5,0.7-1.1,1.4-1.6,1.9c-0.1-0.4-0.6-1.3-0.9-1.7
					c1.7-1.6,3.3-4.2,4.3-6.8L135.9,1.2z M140.5,15c-1,0.9-2.8,1.8-4.2,2.3c-0.3-0.3-0.9-0.9-1.3-1.2c1.4-0.4,3-1.1,3.9-1.8
					L140.5,15z M140.3,2.8h-4.2V1.7h4.2V0.8h1.7v0.9h4.4v1.1H142v0.8h3.9v1.1H142v0.8h5v1.1h-11.6V5.4h5V4.6h-3.8V3.6h3.8V2.8z
					 M136.6,14.1V7.3h9.1v6.8H136.6z M138.3,9.3h5.9V8.4h-5.9V9.3z M138.3,11.2h5.9v-0.9h-5.9V11.2z M138.3,13h5.9v-0.9h-5.9V13z
					 M143.6,14.2c1.2,0.7,2.6,1.6,3.4,2.3l-1.5,0.9c-0.7-0.7-2.2-1.7-3.4-2.5L143.6,14.2z"/>
				<path fill="#0C56AB" d="M162.3,9.7c-0.9,1.8-2.2,3.3-3.8,4.4c1.8,0.7,4,1.2,6.3,1.5c-0.4,0.4-0.8,1.1-1,1.6
					c-2.7-0.4-5-1.1-7-2.1c-2.1,1-4.6,1.7-7.1,2.1c-0.2-0.4-0.6-1.2-1-1.5c2.4-0.3,4.6-0.8,6.5-1.6c-1.3-0.9-2.4-2-3.3-3.3l0.3-0.1
					h-0.8V9.1h9.5l0.3-0.1L162.3,9.7z M150.6,9.6H149V5.9h2.7c-0.2-0.6-0.6-1.5-1-2.1l1.5-0.4c0.5,0.7,1,1.6,1.2,2.3l-1,0.3h3.9
					c-0.1-0.7-0.4-1.7-0.8-2.5l1.5-0.3c0.4,0.8,0.8,1.8,0.9,2.5l-1.5,0.4h3.6c0.5-0.8,1.1-2,1.4-2.9l1.7,0.5c-0.5,0.8-1,1.7-1.5,2.4
					h2.8v3.7h-1.6V7.4h-12.2V9.6z M163.6,2c-3.8,0.8-9.3,1.2-14,1.4c0-0.4-0.2-1.1-0.4-1.4c4.6-0.2,10.1-0.6,13.2-1.3L163.6,2z
					 M153.6,10.6c0.8,1,1.9,1.9,3.2,2.6c1.2-0.7,2.2-1.6,3-2.6H153.6z"/>
				<path fill="#0C56AB" d="M183.1,7.8h-1.5v7.6c0,0.8-0.1,1.3-0.6,1.5c-0.5,0.3-1.3,0.3-2.3,0.3c0-0.4-0.2-1-0.4-1.5
					c-2.6,0.2-5.4,0.4-7.4,0.6l-0.2-1.4c0.9,0,2-0.1,3.2-0.2v-1.2h-2.7v-1.2h2.7v-1h-2.7V6.3h2.7v-1h-3V5.1
					c-0.3,0.6-0.7,1.3-1.1,1.9v10.2h-1.5v-8c-0.4,0.6-0.9,1.1-1.3,1.5c-0.2-0.4-0.7-1.2-0.9-1.5c1.3-1.2,2.7-3.1,3.5-4.9l1.4,0.5v-1
					h3V2.7c-0.9,0.1-1.8,0.1-2.6,0.2c-0.1-0.3-0.2-0.8-0.4-1.2c2.2-0.1,4.8-0.4,6.4-0.8l0.8,1.2c-0.8,0.2-1.8,0.4-2.9,0.5v1.3h3.2
					v1.3h-3.2v1h2.7v5.2h-2.7v1h2.8v1.2h-2.8v1.1c1-0.1,2-0.1,3-0.2v1.1c0.7,0,1.3,0,1.5,0c0.2,0,0.3-0.1,0.3-0.3V7.8h-1.7V6.3h4.7
					V7.8z M170.8,1.3c-0.9,1.5-2.3,3.2-3.6,4.2c-0.2-0.3-0.6-1-0.9-1.3c1.1-0.9,2.4-2.3,3-3.5L170.8,1.3z M172.4,8.3h1.5v-1h-1.5
					V8.3z M173.9,10.4V9.3h-1.5v1.1H173.9z M175.3,7.3v1h1.5v-1H175.3z M176.8,9.3h-1.5v1.1h1.5V9.3z M182.7,3.3h-4.1V1.8h4.1V3.3z"
					/>
				<path fill="#0C56AB" d="M193.5,13.6h7.5v1.1h-7.5v1c0,0.8-0.2,1.1-0.8,1.4c-0.6,0.2-1.5,0.2-3,0.2c-0.1-0.4-0.3-0.9-0.5-1.3
					c1,0,2,0,2.3,0c0.3,0,0.4-0.1,0.4-0.3v-1h-7.5v-1.1h7.5v-0.8H186v-1.1h5.9V11c-2.1,0.1-4.3,0.1-6.3,0c0-0.3-0.1-0.7-0.3-1
					c4.6,0.1,10.2-0.1,13.1-0.5l1.1,0.9c-1.6,0.2-3.7,0.4-5.9,0.5v0.8h5.6v1.1h-5.6V13.6z M188,7.5h-3.5V6.6h3.5V6.1h-2.6V3h2.6V2.5
					h-3.1V1.6h3.1V0.8h1.3v0.8h3.3v0.9h-3.3V3h2.8v1.1c1.5-0.5,1.7-1.1,1.7-1.8v-1h4.8V3c0,0.4,0,0.5,0.3,0.5h1c0.2,0,0.7,0,0.9-0.1
					c0,0.4,0.1,0.9,0.1,1.2c-0.2,0.1-0.6,0.1-1,0.1h-1.2c-1.3,0-1.5-0.5-1.5-1.8V2.5h-2c0,1.1-0.5,2.1-2.5,2.8
					c-0.1-0.2-0.4-0.5-0.6-0.7v1.6h-2.8v0.5h3.4v0.9h-3.4v1.1h1.5V7.7h1.2v1.8h-6.7V7.7h1.2v0.9h1.4V7.5z M186.6,4.3h1.5V3.7h-1.5
					V4.3z M188,5.4V4.9h-1.5v0.5H188z M189.3,3.7v0.5h1.6V3.7H189.3z M190.9,4.9h-1.6v0.5h1.6V4.9z M199.7,5.4c-0.5,1.1-1.1,2-2,2.6
					c1,0.4,2.2,0.6,3.5,0.8c-0.3,0.3-0.7,0.8-0.8,1.2c-1.5-0.2-2.8-0.6-3.9-1.2c-1,0.5-2.3,0.8-3.5,1c-0.1-0.3-0.4-0.8-0.6-1.1
					c1-0.1,2-0.3,2.9-0.6c-0.6-0.5-1.1-0.9-1.5-1.5l0.9-0.3h-1.1V5.1h5.2l0.3-0.1L199.7,5.4z M195,6.2c0.4,0.4,0.9,0.8,1.4,1.2
					c0.5-0.3,1-0.7,1.4-1.2H195z"/>
			</g>
		</g>
		<g>
			<g>
				<g>
					<defs>
						<circle id="SVGID_1_" cx="113.1" cy="78.8" r="35.9"/>
					</defs>
					<clipPath id="SVGID_2_">
						<use xlink:href="#SVGID_1_"  overflow="visible"/>
					</clipPath>
					<circle clip-path="url(#SVGID_2_)" fill="#FFFFFF" cx="113.3" cy="79.8" r="38.5"/>
					<g id="_x38_raAOr_12_" clip-path="url(#SVGID_2_)">
						<g>
							<path fill="#2368B5" d="M211.4,42.9c0,1.8,0,3.5,0,5.3c-26.9,0-53.7,0-80.6,0c0,1.8,0,3.5,0,5.2c0,0.1,0.4,0.4,0.6,0.4
								c2.2,0,4.4,0,6.6,0c12.2,0,24.4,0,36.7,0c11,0,21.9,0,32.9,0c1.3,0,2.5,0,3.9,0c0,1.8,0,3.5,0,5.3c-26.8,0-53.6,0-80.5,0
								c0,0.3,0,0.5,0,0.8c0,1.3,0,2.7,0,4c0,0.7,0.1,0.9,0.8,0.9c3.1,0,6.1,0,9.2,0c23.2,0,46.4,0,69.6,0c0.3,0,0.6,0,1,0
								c0,1.7,0,3.4,0,5.1c-26.8,0-53.6,0-80.5,0c0,1.9,0,3.7,0,5.6c26.8,0,53.6,0,80.5,0c0,1.8,0,3.6,0,5.4c-44.7,0-89.4,0-134.2,0
								c0-12.7,0-25.3,0-38C121.9,42.9,166.7,42.9,211.4,42.9z M124.5,46c1.1,0.6,0.9,1.4,0.6,2.3c0.9-0.9,1.7-0.9,2.5,0
								c-0.6-1-0.2-1.7,0.6-2.3c-1.1,0.1-1.7-0.2-1.9-1.3C126.1,45.7,125.6,46.2,124.5,46z M95.1,48.4c-0.3,0.6-0.5,1-0.7,1.2
								c-0.3,0.2-0.7,0.1-1.3,0.2c1.1,0.6,1.1,1.4,0.7,2.3c0.9-0.9,1.7-0.9,2.6,0c-0.6-1-0.2-1.7,0.6-2.3
								C96,49.8,95.2,49.8,95.1,48.4z M85.9,48.4c-0.2,1.1-0.7,1.5-1.8,1.4c0.9,0.6,1,1.4,0.4,2.4c0.6-0.4,1-0.8,1.4-0.8
								c0.4,0,0.8,0.4,1.2,0.7c-0.5-1,0-1.6,0.8-2.2C86.5,49.7,86.5,49.7,85.9,48.4z M89.3,55.9c0.9-0.9,1.7-0.9,2.6,0
								c-0.7-1-0.1-1.7,0.6-2.3c-1.1,0.2-1.7-0.2-1.9-1.2c-0.2,1-0.8,1.4-1.9,1.3C89.8,54.2,89.7,55,89.3,55.9z M79.7,53.5
								c0.8,1,0.8,1,0.6,2.4c0.4-0.3,0.8-0.6,1.2-0.8c0.4,0.3,0.8,0.5,1.2,0.8c-0.5-1,0-1.7,0.8-2.3c-1,0.2-1.7-0.1-1.9-1.3
								C81.3,53.3,80.9,53.8,79.7,53.5z M111.1,49.9c1.1,0.5,0.8,1.3,0.6,2.3c0.8-1.1,1.6-0.9,2.5-0.1c-0.8-1.1-0.1-1.7,0.6-2.3
								c-1.1,0.2-1.7-0.2-1.8-1.3C112.4,49.7,112.4,49.7,111.1,49.9z M121.9,56.2c-0.2,0.4-0.3,0.8-0.6,1c-0.3,0.2-0.7,0.1-1.3,0.2
								c1,0.6,1.1,1.3,0.6,2.2c0.5-0.2,0.9-0.7,1.2-0.7c0.4,0,0.8,0.4,1.3,0.7c-0.1-0.5-0.3-0.9-0.2-1.3c0.1-0.4,0.6-0.6,1-1.1
								c-0.6,0-1,0.1-1.3,0C122.3,57.1,122.2,56.7,121.9,56.2z M84.3,57.4c0.9,0.6,0.9,1.3,0.5,2.2c0.9-0.7,1.6-0.9,2.5,0
								c-0.7-1,0-1.6,0.6-2.2c-1,0.1-1.7-0.1-1.9-1.3C85.8,57.1,85.4,57.6,84.3,57.4z M93.2,72.6c0.9,0.6,0.9,1.4,0.4,2.3
								c0.6-0.3,1-0.8,1.4-0.8c0.4,0,0.8,0.4,1.2,0.7c-0.5-1-0.1-1.6,0.7-2.3c-1,0.2-1.7-0.1-1.9-1.3C94.7,72.3,94.3,72.8,93.2,72.6
								z M123.8,49.8c-1,0.1-1.8-0.1-2-1.3c-0.2,1-0.8,1.4-1.8,1.3c1,0.6,0.9,1.4,0.6,2.3c0.8-1,1.6-0.8,2.5,0
								C122.6,51.1,123,50.4,123.8,49.8z M119.4,61.2c-1,0.2-1.7-0.2-1.9-1.3c-0.3,0.9-0.8,1.5-1.9,1.3c1,0.6,0.9,1.4,0.6,2.3
								c0.8-0.9,1.6-0.8,2.5-0.1C118.2,62.4,118.5,61.8,119.4,61.2z M90.6,60c-0.3,0.9-0.8,1.5-1.8,1.2c0.8,0.6,1,1.3,0.6,2.2
								c0.8-0.8,1.6-0.9,2.6-0.1c-0.7-1,0-1.6,0.6-2.2C91.4,61.4,90.8,61.1,90.6,60z M90.5,44.8c-0.2,0.4-0.3,0.8-0.6,1
								C89.7,46,89.2,46,88.6,46c1.1,0.6,1,1.4,0.8,2.2c0.4-0.3,0.8-0.5,1.2-0.8c0.4,0.3,0.8,0.5,1.2,0.8c-0.3-0.9-0.2-1.7,0.8-2.2
								C91.2,45.9,91.2,45.9,90.5,44.8z M116.2,71.1c0.9-0.8,1.7-0.9,2.5,0c-0.6-1-0.2-1.7,0.7-2.3c-1.1,0.2-1.7-0.1-1.8-1.4
								c-0.3,0.6-0.4,1-0.7,1.2c-0.3,0.2-0.7,0.1-1.3,0.2C116.5,69.5,116.6,70.2,116.2,71.1z M97.7,76.5c1,0.6,0.9,1.4,0.6,2.3
								c0.9-0.9,1.7-0.8,2.6,0c-0.7-1-0.2-1.7,0.6-2.3c-1,0.1-1.8-0.1-1.9-1.3C99.3,76.1,98.8,76.7,97.7,76.5z M104.1,63.8
								c-0.3,0.9-0.8,1.5-1.9,1.2c0.9,0.6,1,1.3,0.6,2.2c0.8-0.7,1.6-0.9,2.5,0c-0.7-1,0-1.6,0.6-2.2
								C105,65.1,104.2,65.1,104.1,63.8z M128.3,53.6c-1,0.1-1.7-0.1-1.9-1.3c-0.2,1-0.8,1.4-1.8,1.2c0.4,0.5,0.7,0.7,0.8,1.1
								c0.1,0.4-0.2,0.8-0.3,1.2c0.9-0.7,1.7-0.9,2.6,0.1C127.2,54.9,127.4,54.2,128.3,53.6z M105.3,59.6c-0.7-1,0-1.6,0.7-2.2
								c-0.6,0-1.1,0.1-1.4-0.1c-0.3-0.2-0.4-0.7-0.7-1.3c-0.1,1.2-0.7,1.6-1.7,1.4c0.8,0.6,1,1.3,0.5,2.2
								C103.6,59,104.4,58.7,105.3,59.6z M100.8,71.1c-0.7-1.1-0.1-1.7,0.6-2.3c-1,0.2-1.7-0.1-1.9-1.2c-0.2,1-0.8,1.4-1.8,1.3
								c1,0.6,0.9,1.4,0.6,2.2C99.1,70.3,99.9,70.1,100.8,71.1z M80.4,63.4c0.8-0.7,1.6-0.8,2.5,0c-0.6-1,0-1.6,0.7-2.2
								c-1,0.2-1.7-0.1-2-1.3c-0.1,1.1-0.8,1.4-1.8,1.3C80.6,61.9,80.9,62.5,80.4,63.4z M98.4,63.4c0.4-0.2,0.8-0.6,1.1-0.6
								c0.4,0,0.8,0.3,1.5,0.7c-0.9-1.1-0.2-1.6,0.5-2.2c-1,0.1-1.7-0.1-1.9-1.2c-0.3,1-0.8,1.4-1.8,1.3
								C98.6,61.9,98.8,62.5,98.4,63.4z M97.7,53.5c0.4,0.5,0.7,0.8,0.8,1.1c0.1,0.3-0.1,0.7-0.2,1.2c0.5-0.3,0.9-0.6,1.3-0.6
								c0.4,0,0.8,0.4,1.2,0.6c-0.6-1,0.1-1.5,0.9-2.1c-0.6,0-1.1,0.1-1.4-0.1c-0.3-0.2-0.4-0.7-0.7-1.1
								C99.3,53.2,98.9,53.9,97.7,53.5z M81.7,75.2c-0.3,0.9-0.8,1.4-1.8,1.2c0.8,0.6,1,1.3,0.5,2.2c0.8-0.7,1.6-0.9,2.5,0
								c-0.6-1,0-1.6,0.6-2.2C82.6,76.6,81.8,76.4,81.7,75.2z M120.1,65c0.9,0.6,0.9,1.4,0.6,2.3c0.9-1,1.7-0.8,2.5,0
								c-0.6-1-0.1-1.7,0.6-2.3c-1,0.2-1.7-0.1-1.9-1.2C121.6,64.7,121.1,65.2,120.1,65z M102.7,52.1c0.9-0.9,1.7-0.8,2.6,0
								c-0.6-1-0.2-1.7,0.6-2.3c-1,0.1-1.7-0.1-1.9-1.3c-0.3,1-0.8,1.4-1.8,1.3C103,50.5,103.2,51.2,102.7,52.1z M121.9,71.3
								c-0.2,1-0.7,1.6-1.9,1.2c0.4,0.5,0.8,0.8,0.9,1.1c0.1,0.4-0.1,0.8-0.3,1.4c0.9-1,1.7-0.9,2.6-0.2c-0.6-1-0.2-1.6,0.8-2.2
								c-0.6,0-1.1,0.1-1.4-0.1C122.2,72.3,122.1,71.8,121.9,71.3z M102.8,74.9c0.4-0.2,0.8-0.6,1.2-0.6c0.4,0,0.8,0.4,1.2,0.7
								c-0.5-1,0-1.6,0.8-2.2c-0.6,0-1.1,0-1.4-0.2c-0.3-0.2-0.4-0.7-0.5-1c-0.2,1-0.9,1.3-1.8,1.2C103.1,73.3,103.1,74,102.8,74.9z
								 M84.7,67.3c0.6-0.3,1-0.7,1.4-0.7c0.4,0,0.8,0.3,1.1,0.5c-0.5-1,0.2-1.5,0.8-2.1c-1.1,0.2-1.7-0.2-1.9-1.2
								c-0.2,1-0.8,1.4-1.9,1.3C85.2,65.6,85.2,66.4,84.7,67.3z M108.5,44.7c-0.3,0.9-0.7,1.6-1.8,1.3c0.9,0.6,1,1.4,0.6,2.2
								c0.4-0.3,0.8-0.5,1.2-0.8c0.4,0.3,0.8,0.5,1.2,0.8c-0.5-1-0.1-1.6,0.8-2.2C109.4,46.1,108.7,45.9,108.5,44.7z M110.5,53.7
								c0,0-0.1-0.1-0.1-0.1c-0.4,0-0.9,0.1-1.2-0.1c-0.3-0.2-0.4-0.7-0.6-1c-0.2,1-0.9,1.3-1.8,1.2c0.8,0.6,1,1.3,0.6,2.2
								c0.8-0.9,1.6-0.9,2.5-0.1C109.2,54.7,109.8,54.2,110.5,53.7z M97.8,46c0.9,0.6,0.9,1.4,0.5,2.3c0.9-0.9,1.7-0.8,2.5,0
								c-0.6-1-0.2-1.7,0.6-2.3c-1,0.2-1.7-0.1-1.9-1.2C99.3,45.8,98.8,46.2,97.8,46z M124.6,76.4c0.9,0.6,0.9,1.4,0.6,2.3
								c0.8-1,1.6-0.9,2.5,0c-0.6-1-0.2-1.7,0.7-2.3c-1,0.1-1.8-0.1-1.9-1.3C126.1,76.1,125.7,76.7,124.6,76.4z M80.3,48.3
								c0.9-0.9,1.7-0.8,2.5,0c-0.6-1-0.2-1.7,0.7-2.3c-1,0.1-1.8-0.1-1.9-1.4c-0.3,0.6-0.4,1-0.7,1.2c-0.3,0.2-0.7,0.1-1.3,0.2
								C80.7,46.6,80.8,47.4,80.3,48.3z M96.9,57.4c-1,0.1-1.7-0.1-1.9-1.3c-0.3,0.9-0.8,1.5-1.8,1.3c0.8,0.6,1,1.3,0.5,2.2
								c0.9-0.6,1.6-0.9,2.5,0C95.7,58.6,96.2,58,96.9,57.4z M93.2,65c0.9,0.6,1,1.3,0.4,2.3c0.6-0.3,1-0.7,1.4-0.7
								c0.4,0,0.8,0.3,1.3,0.6c-0.1-0.4-0.3-0.9-0.2-1.2c0.1-0.3,0.6-0.6,0.9-0.8c0-0.1,0-0.2,0-0.3c-1.1,0.4-1.7,0-1.9-1.1
								C94.8,64.8,94.3,65.2,93.2,65z M118.8,78.9c-0.1-0.7-0.4-1.1-0.3-1.4c0.1-0.3,0.6-0.6,1-0.8c-0.1-0.1-0.1-0.1-0.2-0.2
								c-0.4,0-0.9,0.1-1.2-0.1c-0.3-0.2-0.4-0.7-0.7-1.2c-0.2,1.1-0.7,1.5-1.8,1.4c0.9,0.6,1,1.3,0.6,2.2
								C117.1,77.8,117.9,78,118.8,78.9z M125.1,63.5c0.9-1.1,1.7-0.8,2.5,0.1c-0.1-0.6-0.4-1.1-0.3-1.4c0.1-0.4,0.5-0.6,0.8-0.9
								c0-0.1,0-0.1,0-0.2c-1.1,0.3-1.6,0-1.8-1.1c-0.3,0.9-0.8,1.5-1.8,1.3C125.5,61.8,125.5,62.6,125.1,63.5z M115.6,46
								c0.9,0.6,0.9,1.4,0.5,2.3c0.9-0.9,1.7-0.8,2.6,0c-0.7-1-0.2-1.7,0.6-2.3c-1,0.2-1.7-0.1-1.9-1.3
								C117.1,45.6,116.7,46.3,115.6,46z M116.1,56c0.5-0.3,0.9-0.8,1.3-0.8c0.4,0,0.8,0.4,1.2,0.6c0.1,0,0.1,0,0.2,0
								c-0.8-1-0.2-1.6,0.5-2.2c-1,0.2-1.7-0.1-1.9-1.3c-0.3,0.9-0.7,1.5-1.9,1.2c0.4,0.5,0.8,0.8,0.9,1.1
								C116.5,55,116.3,55.5,116.1,56z M108.5,67.5c-0.3,0.9-0.7,1.5-1.8,1.3c0.9,0.6,1,1.4,0.5,2.3c0.9-0.8,1.7-0.9,2.5,0
								c-0.5-1-0.2-1.7,0.7-2.3C109.4,69,108.7,68.7,108.5,67.5z M111.2,72.6c0.9,0.6,1,1.4,0.5,2.3c0.9-0.9,1.7-0.9,2.6,0
								c-0.6-1-0.2-1.7,0.6-2.3c-1.1,0.2-1.7-0.2-1.9-1.3C112.7,72.3,112.2,72.8,111.2,72.6z M115,57.4c-0.7,0-1.2,0.1-1.5-0.1
								c-0.3-0.2-0.4-0.7-0.6-1.1c-0.2,0.5-0.3,0.9-0.6,1.1c-0.3,0.2-0.7,0.1-1.3,0.2c1,0.6,1.1,1.3,0.7,2.2
								c0.8-0.8,1.6-0.8,2.5-0.1C113.6,58.5,114.2,58,115,57.4z M110.4,61.2c-1,0.1-1.7-0.1-1.8-1.4c-0.3,0.6-0.4,1-0.7,1.2
								c-0.3,0.2-0.7,0.1-1.3,0.2c1,0.6,1.1,1.3,0.7,2.2c0.8-0.8,1.6-0.8,2.5-0.1C109.1,62.3,109.8,61.8,110.4,61.2z M124.6,68.8
								c0.9,0.6,0.9,1.4,0.4,2.3c0.6-0.3,1-0.7,1.4-0.7c0.4,0,0.8,0.4,1.2,0.7c-0.5-1-0.1-1.6,0.7-2.3c-1.1,0.3-1.7-0.2-1.9-1.2
								C126.1,68.4,125.7,69.1,124.6,68.8z M111.7,67.3c0.8-0.7,1.6-1,2.5-0.1c-0.7-1,0-1.6,0.6-2.2c-1,0.1-1.7-0.1-1.9-1.2
								c-0.3,1-0.8,1.5-1.8,1.2C111.9,66,111.9,66,111.7,67.3z M109.8,78.7c-0.5-1-0.2-1.7,0.7-2.3c-1,0.1-1.7-0.1-1.8-1.3
								c-0.8,1.1-0.8,1.1-2,1.4c1.1,0.5,1,1.3,0.7,2.2C108.1,77.9,108.9,77.8,109.8,78.7z M89.3,78.7c0.9-0.8,1.7-0.8,2.5,0
								c-0.1-0.5-0.3-1-0.1-1.3c0.1-0.3,0.5-0.5,0.8-0.8c-1,0-1.7-0.2-1.9-1.4c-0.3,0.9-0.7,1.5-1.8,1.3
								C89.5,77.1,89.8,77.7,89.3,78.7z M83.4,68.8c-0.4,0-0.9,0.1-1.2-0.1c-0.3-0.2-0.4-0.7-0.7-1.2c-0.2,1.1-0.7,1.5-1.7,1.4
								c0.9,0.6,0.9,1.3,0.6,2.2c0.8-0.8,1.6-0.8,2.5-0.1C82.3,70,82.8,69.4,83.4,68.8z M92.5,68.8c-1.1,0.2-1.7-0.2-1.9-1.3
								c-0.3,0.9-0.7,1.5-1.9,1.2c0.4,0.5,0.8,0.8,0.9,1.1c0.1,0.3-0.1,0.7-0.2,1.1c0.8-0.7,1.6-0.7,2.5,0
								C91.3,69.9,91.7,69.4,92.5,68.8z M88,72.7c-1,0.1-1.7-0.2-1.9-1.3c-0.2,1.1-0.8,1.4-1.8,1.3c0.9,0.6,1,1.3,0.6,2.2
								c0.8-0.8,1.6-0.8,2.5-0.1C86.7,73.8,87.2,73.2,88,72.7z"/>
							<path fill="#2368B5" d="M211.4,108.3c0,1.8,0,3.5,0,5.3c-44.7,0-89.5,0-134.2,0c0-1.8,0-3.5,0-5.3
								C121.9,108.3,166.7,108.3,211.4,108.3z"/>
							<path fill="#2368B5" d="M77.2,102.6c0-1.8,0-3.5,0-5.2c44.7,0,89.5,0,134.3,0c0,0.8,0,1.7,0,2.6c0,0.9,0,1.7,0,2.7
								C166.7,102.6,122,102.6,77.2,102.6z"/>
							<path fill="#2368B5" d="M77.2,91.6c0-1.7,0-3.4,0-5.2c44.7,0,89.5,0,134.3,0c0,1.7,0,3.4,0,5.2
								C166.7,91.6,122,91.6,77.2,91.6z"/>
						</g>
					</g>
				</g>
				<g>
					<path fill="#0C56AB" d="M113.1,42.9C133,42.9,149,59,149,78.8s-16.1,35.9-35.9,35.9c-19.8,0-35.9-16.1-35.9-35.9
						S93.3,42.9,113.1,42.9 M113.1,40c-21.4,0-38.8,17.4-38.8,38.8c0,21.4,17.4,38.8,38.8,38.8c21.4,0,38.8-17.4,38.8-38.8
						C152,57.4,134.5,40,113.1,40L113.1,40z"/>
				</g>
			</g>
			<polygon fill="#2368B5" points="165.3,97.5 159.8,81.3 159.2,88.8 129.5,54 114.6,67.4 93.4,44.7 64.5,73.8 64.5,78.7 93.3,49.9 
				114.4,72.5 129.5,58.9 156.6,91.3 147.8,91.2 			"/>
			<g>
				<path fill="#2368B5" d="M156.3,155.2l-86.3,0l0-54.9l86.3,0L156.3,155.2z M73.5,151.6l79.2,0l0-47.8l-79.2,0L73.5,151.6z"/>
				<g>
					<rect x="71.7" y="102" fill="#FFFFFF" width="82.8" height="51.4"/>
				</g>
				<g>
					<defs>
						<rect id="SVGID_3_" x="75.7" y="106.3" width="74.6" height="42.9"/>
					</defs>
					<clipPath id="SVGID_4_">
						<use xlink:href="#SVGID_3_"  overflow="visible"/>
					</clipPath>
					<rect x="75.8" y="106.2" clip-path="url(#SVGID_4_)" fill="#FFFFFF" width="74.6" height="42.9"/>
					<circle clip-path="url(#SVGID_4_)" fill="#2368B5" cx="75.8" cy="106.2" r="5.2"/>
					<circle clip-path="url(#SVGID_4_)" fill="#2368B5" cx="150.3" cy="106.2" r="5.2"/>
					<circle clip-path="url(#SVGID_4_)" fill="#2368B5" cx="75.8" cy="149.1" r="5.2"/>
					<circle clip-path="url(#SVGID_4_)" fill="#2368B5" cx="150.3" cy="149.2" r="5.2"/>
					<use xlink:href="#SVGID_3_"  overflow="visible" fill="none" stroke="#0C56AB" stroke-width="4" stroke-miterlimit="10"/>
				</g>
				<g>
					<circle fill="#2368B5" cx="143.8" cy="128.8" r="2"/>
					<circle fill="#2368B5" cx="82.4" cy="128.8" r="2"/>
				</g>
				<g>
					<polygon fill="#2368B5" points="145.6,166 142.9,163.3 139.3,164.8 141.7,152 148,153.1 					"/>
					<polygon fill="#2368B5" points="149.2,166 151.9,163.3 155.5,164.8 153.1,152 146.8,153.1 					"/>
					<circle fill="#2368B5" cx="147.2" cy="148.1" r="7.6"/>
					<polygon fill="#FFFFFF" points="147.3,144.1 149.2,142 149.4,144.8 152.2,144.2 150.7,146.6 153.3,147.7 150.7,148.9 
						152.2,151.3 149.4,150.7 149.2,153.5 147.3,151.4 145.4,153.5 145.2,150.7 142.4,151.3 143.8,148.9 141.2,147.7 143.8,146.6 
						142.4,144.2 145.2,144.8 145.4,142 					"/>
				</g>
				
					<line fill="none" stroke="#0C56AB" stroke-linecap="round" stroke-miterlimit="10" x1="88.9" y1="110.1" x2="137.3" y2="110.1"/>
				
					<line fill="none" stroke="#0C56AB" stroke-linecap="round" stroke-miterlimit="10" x1="88.9" y1="113.8" x2="137.3" y2="113.8"/>
				
					<line fill="none" stroke="#0C56AB" stroke-linecap="round" stroke-miterlimit="10" x1="88.9" y1="117.6" x2="137.3" y2="117.6"/>
				<line fill="none" stroke="#0C56AB" stroke-linecap="round" stroke-miterlimit="10" x1="99" y1="121.3" x2="137.3" y2="121.3"/>
				<line fill="none" stroke="#0C56AB" stroke-linecap="round" stroke-miterlimit="10" x1="99" y1="125.1" x2="137.3" y2="125.1"/>
				<line fill="none" stroke="#0C56AB" stroke-linecap="round" stroke-miterlimit="10" x1="99" y1="128.9" x2="137.3" y2="128.9"/>
				<line fill="none" stroke="#0C56AB" stroke-linecap="round" stroke-miterlimit="10" x1="99" y1="132.6" x2="137.3" y2="132.6"/>
				<line fill="none" stroke="#0C56AB" stroke-linecap="round" stroke-miterlimit="10" x1="99" y1="136.4" x2="137.3" y2="136.4"/>
				
					<line fill="none" stroke="#0C56AB" stroke-linecap="round" stroke-miterlimit="10" x1="88.9" y1="140.2" x2="137.3" y2="140.2"/>
				
					<line fill="none" stroke="#0C56AB" stroke-linecap="round" stroke-miterlimit="10" x1="88.9" y1="143.9" x2="137.3" y2="143.9"/>
			</g>
		</g>
	</g>
	<g>
		<g>
			<path fill="#0C56AB" d="M30.3,165.6c-2.7,2.2-11.6,10.3-13.1,26.7h-6.1c1.4-17.8,12.5-26.7,12.5-26.7H6.5v-5.2h23.8V165.6z"/>
		</g>
	</g>
</g>
<g>
</g>
<g>
</g>
<g>
</g>
<g>
</g>
<g>
</g>
<g>
</g>
<g>
</g>
<g>
</g>
<g>
</g>
<g>
</g>
<g>
</g>
<g>
</g>
<g>
</g>
<g>
</g>
<g>
</g>
</svg>
