<?xml version="1.0" encoding="utf-8"?>
<!-- Generator: Adobe Illustrator 18.0.0, SVG Export Plug-In . SVG Version: 6.00 Build 0)  -->
<!DOCTYPE svg PUBLIC "-//W3C//DTD SVG 1.1//EN" "http://www.w3.org/Graphics/SVG/1.1/DTD/svg11.dtd">
<svg version="1.1" id="Layer_1" xmlns="http://www.w3.org/2000/svg" xmlns:xlink="http://www.w3.org/1999/xlink" x="0px" y="0px"
	 viewBox="0 0 1303 517.9" enable-background="new 0 0 1303 517.9" xml:space="preserve">
<g>
	<g>
		<g>
			<polygon fill="#1B75BC" points="410,277.9 236,277.9 236.8,158.9 410.8,158.9 			"/>
			<polygon fill="#1B3E61" points="236.8,194.3 410.8,174.9 410.8,174.9 236.8,173.8 			"/>
			<rect x="232.1" y="165.8" fill="#1B75BC" width="183.4" height="9.1"/>
		</g>
		<g>
			<rect x="270.1" y="207.9" fill="#FFFFFF" width="105.4" height="39.6"/>
			<g>
				<path d="M292.7,241.3v-26.4h16.5v4.8h-11.4v6h10.3v4.6h-10.3v6.1h11.4v4.8H292.7z"/>
				<path d="M326.8,219.8v21.5h-5.2v-21.5h-8.3v-4.9h21.9v4.9H326.8z"/>
				<path d="M339.7,241.3v-26.4h16.7v4.9h-11.6v6.5h10.3v4.7h-10.2v10.3H339.7z"/>
			</g>
		</g>
	</g>
	<g>
		<g>
			<polygon fill="#AED581" points="619.2,277.9 445.2,277.9 446,158.9 620,158.9 			"/>
			<polygon fill="#5A6C45" points="446,194.3 620,174.9 620,174.9 446,173.8 			"/>
			<rect x="441.3" y="165.8" fill="#AED581" width="183.4" height="9.1"/>
		</g>
		<g>
			<rect x="479.3" y="207.9" fill="#FFFFFF" width="105.4" height="39.6"/>
			<g>
				<path d="M501.9,241.3v-26.4h16.5v4.8H507v6h10.3v4.6H507v6.1h11.4v4.8H501.9z"/>
				<path d="M536,219.8v21.5h-5.2v-21.5h-8.3v-4.9h21.9v4.9H536z"/>
				<path d="M548.9,241.3v-26.4h16.7v4.9h-11.6v6.5h10.3v4.7h-10.2v10.3H548.9z"/>
			</g>
		</g>
	</g>
	<g>
		<g>
			<polygon fill="#FFDA6E" points="828.4,277.9 654.4,277.9 655.2,158.9 829.2,158.9 			"/>
			<polygon fill="#7D6E3D" points="655.2,194.3 829.2,174.9 829.2,174.9 655.2,173.8 			"/>
			<rect x="650.5" y="165.8" fill="#FFDA6E" width="183.4" height="9.1"/>
		</g>
		<g>
			<rect x="688.5" y="207.9" fill="#FFFFFF" width="105.4" height="39.6"/>
			<g>
				<path d="M711.1,241.3v-26.4h16.5v4.8h-11.4v6h10.3v4.6h-10.3v6.1h11.4v4.8H711.1z"/>
				<path d="M745.2,219.8v21.5H740v-21.5h-8.3v-4.9h21.9v4.9H745.2z"/>
				<path d="M758.1,241.3v-26.4h16.7v4.9h-11.6v6.5h10.3v4.7h-10.2v10.3H758.1z"/>
			</g>
		</g>
	</g>
	<g>
		<g>
			<polygon fill="#9C8FC4" points="1037.6,277.9 863.6,277.9 864.4,158.9 1038.4,158.9 			"/>
			<polygon fill="#4E4A65" points="864.4,194.3 1038.4,174.9 1038.4,174.9 864.4,173.8 			"/>
			<rect x="859.7" y="165.8" fill="#9C8FC4" width="183.4" height="9.1"/>
		</g>
		<g>
			<rect x="897.7" y="207.9" fill="#FFFFFF" width="105.4" height="39.6"/>
			<g>
				<path d="M920.3,241.3v-26.4h16.5v4.8h-11.4v6h10.3v4.6h-10.3v6.1h11.4v4.8H920.3z"/>
				<path d="M954.4,219.8v21.5h-5.2v-21.5h-8.3v-4.9h21.9v4.9H954.4z"/>
				<path d="M967.3,241.3v-26.4H984v4.9h-11.6v6.5h10.3v4.7h-10.2v10.3H967.3z"/>
			</g>
		</g>
	</g>
	<rect x="0" y="283.7" fill="#F1F2F2" width="1303" height="199.1"/>
	<rect x="15.4" y="275.2" fill="#E6E7E8" width="1267.9" height="15.4"/>
	<circle fill="#E6E7E8" cx="1170.5" cy="190.4" r="8.1"/>
	<g>
		<ellipse opacity="0.3" fill="#808285" cx="1056.3" cy="509.5" rx="111.8" ry="8.4"/>
		<g>
			<polygon fill="#E6E7E8" points="1038.8,8.1 1036.1,21.5 1047.3,70.3 1060.6,60.4 1069.3,71.8 1110.8,50.4 1075.3,8.1 			"/>
			<path fill="#032360" d="M1089.1,23.4c0.1-6.9-4.7-21.8-21.6-23.2c-16.9-1.4-29.2,6.7-35.6,4.1c0,0,5.3,8,19.6,7.2
				c14.3-0.8,27.4,10.7,26.6,12.3L1089.1,23.4z"/>
			<polygon fill="#E6E7E8" points="1039.2,33 1037.1,48.1 1044.5,47.2 			"/>
			<path fill="#E6E7E8" d="M1077.6,24.6c1-3.1,5-3.9,6.8-1.5c1.8,2.4,2.4,8.4-0.1,8.7c-2.5,0.3-3.9-0.9-3.9-0.9"/>
		</g>
		<path fill="#032360" d="M1115.9,46.3c-29,4.4-49.7,25-49.7,25s-7.6,163.3-22.9,193.9l148.7-13.4
			C1192,251.7,1175.5,64.8,1115.9,46.3z"/>
		<path fill="#032360" d="M1068.8,69.3c-19.6,17.5-19.6,42.9-40,60.4c-19.3,16.6,13.4-43.1,13.4-43.1l-8.4-3.2c0,0-46.1,37.4-47,85
			c-0.9,47.6,87.8,6.4,87.8,6.4L1068.8,69.3z"/>
		<polygon fill="#E6E7E8" points="1042.2,86.6 1051,81.4 1057,67.4 1053.9,67.6 1048.8,73.6 1041.4,66 1044.5,62.7 1048.7,63.6 
			1049,71 1051.2,69.4 1051.5,63.1 1045.6,60 1043.2,59.9 1039.1,64.1 1037.1,64.5 1031.8,68.9 1030.9,77.7 1033.8,83.4 		"/>
		<polygon fill="#E6E7E8" points="1041.7,64.7 1046.2,64.9 1047.7,67.3 1046.2,72 1044.8,71.2 1045.5,68.4 1043.4,66.6 1041,67 
			1039.9,65.5 		"/>
		<path fill="#032360" d="M1189.1,248.9c-5.3,76.5-42.4,157.6-49,243.2h-27.8c0,0-17.2-120.9-29.2-185.1s-22.5-65.8-22.5-65.8
			l66.3-30.6L1189.1,248.9z"/>
		<path fill="#032360" d="M1059,233.6l-15.9,256.5h21.2c0,0,39.8-141.7,67.6-169.3l-10.6-130L1059,233.6z"/>
		<path fill="#231F20" d="M1112.3,492.1l-28.2,15.1c0,0-17.2,5.4-5.7,5.4c11.5,0,62.7,0,62.7,0l-1-20.5H1112.3z"/>
		<path fill="#231F20" d="M1064.3,490.1v16.3c0,0-50.1,0-58.3,0c-8.2,0,0.7-4.3,6.1-4.7c5.4-0.4,31-11.7,31-11.7"/>
	</g>
	<g>
		<path fill="#FFDA6E" d="M221.6,132.6L221.6,132.6L221.6,132.6c-1.4,5-1.3,10.2,0.2,15.2l0,0l0,0c-5-1.4-10.2-1.3-15.2,0.2v0v0
			c1.4-5,1.3-10.2-0.2-15.2l0,0h0C211.4,134.1,216.7,134.1,221.6,132.6z"/>
		
			<rect x="213.9" y="123" transform="matrix(0.6986 -0.7155 0.7155 0.6986 -35.7918 195.4797)" fill="#FFDA6E" width="0.5" height="34.5"/>
		
			<rect x="196.9" y="140" transform="matrix(0.6986 -0.7155 0.7155 0.6986 -35.7918 195.4797)" fill="#FFDA6E" width="34.5" height="0.5"/>
	</g>
	<g>
		<path fill="#FFDA6E" d="M870.7,129.8L870.7,129.8L870.7,129.8c-5.1,0.8-9.9,3-13.7,6.4l0,0l0,0c-0.8-5.1-3-9.9-6.4-13.7v0l0,0
			c5.1-0.8,9.9-3,13.7-6.4v0v0C865,121.2,867.3,126,870.7,129.8z"/>
		
			<rect x="860.3" y="108.9" transform="matrix(0.9397 0.3419 -0.3419 0.9397 95.003 -286.6385)" fill="#FFDA6E" width="0.5" height="34.5"/>
		
			<rect x="843.3" y="125.9" transform="matrix(0.9397 0.3419 -0.3419 0.9397 95.003 -286.6385)" fill="#FFDA6E" width="34.5" height="0.5"/>
	</g>
	<g>
		<path fill="#FFDA6E" d="M628.8,118.2L628.8,118.2L628.8,118.2c-1.4,3.1-1.9,6.5-1.5,9.9l0,0l0,0c-3.1-1.4-6.5-1.9-9.9-1.5h0v0
			c1.4-3.1,1.9-6.5,1.5-9.9v0v0C622,118.1,625.4,118.6,628.8,118.2z"/>
		
			<rect x="622.9" y="111" transform="matrix(0.8027 -0.5963 0.5963 0.8027 49.9313 395.7066)" fill="#FFDA6E" width="0.3" height="22.8"/>
		
			<rect x="611.7" y="122.2" transform="matrix(0.8027 -0.5963 0.5963 0.8027 49.9313 395.7066)" fill="#FFDA6E" width="22.8" height="0.3"/>
	</g>
	<g>
		<path fill="#FFDA6E" d="M1010.5,88.1L1010.5,88.1L1010.5,88.1c-1.4,3.1-1.9,6.5-1.5,9.9l0,0l0,0c-3.1-1.4-6.5-1.9-9.9-1.5h0v0
			c1.4-3.1,1.9-6.5,1.5-9.9l0,0l0,0C1003.7,88,1007.2,88.5,1010.5,88.1z"/>
		
			<rect x="1004.7" y="80.9" transform="matrix(0.8027 -0.5963 0.5963 0.8027 143.191 617.4279)" fill="#FFDA6E" width="0.3" height="22.8"/>
		
			<rect x="993.5" y="92.1" transform="matrix(0.8027 -0.5963 0.5963 0.8027 143.191 617.4279)" fill="#FFDA6E" width="22.8" height="0.3"/>
	</g>
	<g>
		<path fill="#FFDA6E" d="M412.8,109.1L412.8,109.1L412.8,109.1c-1.4,3.1-1.9,6.5-1.5,9.9v0l0,0c-3.1-1.4-6.5-1.9-9.9-1.5l0,0v0
			c1.4-3.1,1.9-6.5,1.5-9.9v0l0,0C405.9,109.1,409.4,109.6,412.8,109.1z"/>
		
			<rect x="406.9" y="101.9" transform="matrix(0.8027 -0.5963 0.5963 0.8027 12.7183 265.1026)" fill="#FFDA6E" width="0.3" height="22.8"/>
		
			<rect x="395.7" y="113.2" transform="matrix(0.8027 -0.5963 0.5963 0.8027 12.7183 265.1026)" fill="#FFDA6E" width="22.8" height="0.3"/>
	</g>
	<g>
		<path fill="#FFDA6E" d="M779,105.6L779,105.6L779,105.6c-1.4,3.1-1.9,6.5-1.5,9.9l0,0l0,0c-3.1-1.4-6.5-1.9-9.9-1.5l0,0v0
			c1.4-3.1,1.9-6.5,1.5-9.9v0l0,0C772.2,105.5,775.6,106,779,105.6z"/>
		
			<rect x="773.2" y="98.4" transform="matrix(0.8027 -0.5963 0.5963 0.8027 87.0788 482.8177)" fill="#FFDA6E" width="0.3" height="22.8"/>
		
			<rect x="761.9" y="109.6" transform="matrix(0.8027 -0.5963 0.5963 0.8027 87.0788 482.8177)" fill="#FFDA6E" width="22.8" height="0.3"/>
	</g>
	<g>
		<path fill="#FFDA6E" d="M947.4,82.2L947.4,82.2L947.4,82.2c-1.4,3.1-1.9,6.5-1.5,9.9l0,0l0,0c-3.1-1.4-6.5-1.9-9.9-1.5l0,0l0,0
			c1.4-3.1,1.9-6.5,1.5-9.9l0,0l0,0C940.6,82.2,944,82.7,947.4,82.2z"/>
		
			<rect x="941.6" y="75.1" transform="matrix(0.8027 -0.5963 0.5963 0.8027 134.2051 578.6309)" fill="#FFDA6E" width="0.3" height="22.8"/>
		
			<rect x="930.3" y="86.3" transform="matrix(0.8027 -0.5963 0.5963 0.8027 134.2051 578.6309)" fill="#FFDA6E" width="22.8" height="0.3"/>
	</g>
</g>
<g>
</g>
<g>
</g>
<g>
</g>
<g>
</g>
<g>
</g>
<g>
</g>
<g>
</g>
<g>
</g>
<g>
</g>
<g>
</g>
<g>
</g>
<g>
</g>
<g>
</g>
<g>
</g>
<g>
</g>
</svg>
