<?xml version="1.0" encoding="utf-8"?>
<!-- Generator: Adobe Illustrator 18.0.0, SVG Export Plug-In . SVG Version: 6.00 Build 0)  -->
<!DOCTYPE svg PUBLIC "-//W3C//DTD SVG 1.1//EN" "http://www.w3.org/Graphics/SVG/1.1/DTD/svg11.dtd">
<svg version="1.1" id="Layer_1" xmlns="http://www.w3.org/2000/svg" xmlns:xlink="http://www.w3.org/1999/xlink" x="0px" y="0px"
	 viewBox="0 0 195.8 155" enable-background="new 0 0 195.8 155" xml:space="preserve">
<g>
	<g>
		<rect x="12" y="0.1" fill="none" width="43.8" height="16.7"/>
		<path fill="#0C56AB" d="M12.8,8.5c0-0.2-0.1-0.5-0.1-0.8c0-2.1,1.6-4,4.4-4c2.7,0,4.4,1.8,4.4,3.9c0,1.6-0.9,2.8-2.3,3.7l-2.3,1.4
			c-0.5,0.3-0.9,0.6-1,1.1h5.8V16h-8.9c0-2.1,0.7-3.9,2.8-5.2l2-1.2c1-0.6,1.4-1.2,1.4-2.1c0-0.9-0.6-1.7-1.8-1.7
			c-1.3,0-1.9,0.9-1.9,2c0,0.2,0,0.5,0.1,0.7L12.8,8.5z"/>
		<path fill="#0C56AB" d="M23.9,5.7c0.8-1.2,2.1-2,4-2c1.9,0,3.2,0.8,4,2c0.8,1.2,1.1,2.8,1.1,4.3s-0.3,3.1-1.1,4.3
			c-0.8,1.2-2.1,2-4,2c-1.9,0-3.2-0.8-4-2c-0.8-1.2-1.1-2.8-1.1-4.3S23.1,6.9,23.9,5.7z M26.1,13c0.4,0.6,0.9,1,1.8,1
			c0.9,0,1.4-0.4,1.8-1c0.5-0.7,0.7-1.8,0.7-3.1s-0.2-2.3-0.7-3.1c-0.4-0.6-0.9-1-1.8-1c-0.9,0-1.5,0.4-1.8,1
			c-0.5,0.7-0.7,1.8-0.7,3.1S25.6,12.3,26.1,13z"/>
		<path fill="#0C56AB" d="M37,16V7.9h-2.9V6.2c1.8,0,3-1,3.2-2.3h2.2V16H37z"/>
		<path fill="#0C56AB" d="M50.4,6.1c-0.9,0.8-4.3,3.9-4.8,9.9h-2.7c0.5-6.5,4.5-9.9,4.5-9.9h-6.2V3.9h9.2V6.1z"/>
	</g>
	<path fill="#7F58A5" d="M114.3,24.5H41.8c-0.1,0-0.2-0.1-0.2-0.2s0.1-0.2,0.2-0.2h72.5c0.1,0,0.2,0.1,0.2,0.2
		S114.4,24.5,114.3,24.5z"/>
	<g>
		<path fill="#7F58A5" d="M193.9,44.1h-18.2c-1.4,0-2.5-1.1-2.5-2.5c0-1.4,1.1-2.5,2.5-2.5h14.7c2.8,0,5.1-2.3,5.1-5.1
			s-2.3-5.1-5.1-5.1H94.8c-0.1,0-0.2-0.1-0.2-0.2s0.1-0.2,0.2-0.2h95.7c3,0,5.4,2.4,5.4,5.4s-2.4,5.4-5.4,5.4h-14.7
			c-1.2,0-2.2,1-2.2,2.2c0,1.2,1,2.2,2.2,2.2h18.2c0.1,0,0.2,0.1,0.2,0.2C194.1,44.1,194,44.1,193.9,44.1z"/>
		<path fill="#7F58A5" d="M44.3,155C44.2,155,44.2,155,44.3,155c-0.1,0-0.1-0.1-0.2-0.1l-3.3-11H9.2c-4.9,0-9-4-9-9v-17.1
			c0-0.1,0.1-0.2,0.2-0.2s0.2,0.1,0.2,0.2v17.1c0,4.8,3.9,8.6,8.6,8.6H41c0.1,0,0.1,0,0.2,0.1l3.2,10.8l8.5-10.9
			c0,0,0.1-0.1,0.1-0.1h40.6c2.8,0,5.1-2.3,5.1-5.1c0-3,2.4-5.4,5.4-5.4h28.1c0.1,0,0.2,0.1,0.2,0.2s-0.1,0.2-0.2,0.2h-28.1
			c-2.8,0-5.1,2.3-5.1,5.1c0,3-2.4,5.4-5.4,5.4H53.1l-8.7,11.1C44.3,154.9,44.3,155,44.3,155z"/>
	</g>
	<path fill="#7F58A5" d="M0.2,92.2c-0.1,0-0.2-0.1-0.2-0.2V36.5c0-0.1,0.1-0.2,0.2-0.2s0.2,0.1,0.2,0.2v55.6
		C0.3,92.2,0.2,92.2,0.2,92.2z"/>
	<path fill="#7F58A5" d="M4.4,53.4c-0.1,0-0.2-0.1-0.2-0.2V33.6c0-5.5,4.4-9.9,9.9-9.9h9v-4c0-0.1,0.1-0.2,0.2-0.2h29.8
		c5.3,0,9.6-4.3,9.6-9.6s-4.3-9.6-9.6-9.6H43c-0.1,0-0.2-0.1-0.2-0.2s0.1-0.2,0.2-0.2h10.2c5.4,0,9.9,4.4,9.9,9.9s-4.4,9.9-9.9,9.9
		H23.5v4c0,0.1-0.1,0.2-0.2,0.2h-9.2c-5.3,0-9.6,4.3-9.6,9.6v19.6C4.6,53.4,4.5,53.4,4.4,53.4z"/>
	<path fill="#7F58A5" d="M17.1,19.8h-6.2C5.5,19.8,1,15.3,1,9.9S5.5,0,10.9,0H29c0.1,0,0.2,0.1,0.2,0.2S29.1,0.3,29,0.3H10.9
		c-5.3,0-9.6,4.3-9.6,9.6s4.3,9.6,9.6,9.6h6.2c0.1,0,0.2,0.1,0.2,0.2S17.2,19.8,17.1,19.8z"/>
</g>
<g>
</g>
<g>
</g>
<g>
</g>
<g>
</g>
<g>
</g>
<g>
</g>
<g>
</g>
<g>
</g>
<g>
</g>
<g>
</g>
<g>
</g>
<g>
</g>
<g>
</g>
<g>
</g>
<g>
</g>
</svg>
