<?xml version="1.0" encoding="utf-8"?>
<!-- Generator: Adobe Illustrator 18.0.0, SVG Export Plug-In . SVG Version: 6.00 Build 0)  -->
<!DOCTYPE svg PUBLIC "-//W3C//DTD SVG 1.1//EN" "http://www.w3.org/Graphics/SVG/1.1/DTD/svg11.dtd">
<svg version="1.1" id="Layer_1" xmlns="http://www.w3.org/2000/svg" xmlns:xlink="http://www.w3.org/1999/xlink" x="0px" y="0px"
	 viewBox="0 0 1286.7 4850.9" enable-background="new 0 0 1286.7 4850.9" xml:space="preserve">
<g>
	<path fill="none" stroke="#0074B7" stroke-width="7" stroke-miterlimit="10" d="M65.2,3610.2c0,65,0,365.4,0,378.4
		c0,43.7,21.2,56.3,60,56.3c33.8,0,67,0,67,0"/>
	<circle fill="#E6E7E8" cx="189.2" cy="4045" r="8.1"/>
	<path fill="none" stroke="#0074B7" stroke-width="7" stroke-miterlimit="10" d="M485.5,3220.4c0,0,378.7,0,450,0
		c34.3,0,49.7,15.9,49.7,49.7c0,33.8,0,157.4,0,157.4"/>
	<circle fill="#E6E7E8" cx="485.5" cy="3220.4" r="8.1"/>
	<path fill="none" stroke="#0074B7" stroke-width="7" stroke-miterlimit="10" d="M475.6,4046.3c0,0,426.7,0,498,0
		c34.3,0,49.7,15.9,49.7,49.7c0,33.8,0,589.9,0,589.9c0,64.3-30.6,71.1-69.4,71.1c-36.4,0-362.7,0-362.7,0c-77.5,0,24.9,0-24.4,0
		c-49.3,0-66.7,13.9-66.7,83.8"/>
	<circle fill="#E6E7E8" cx="473.7" cy="4046.3" r="8.1"/>
	<path fill="none" stroke="#0074B7" stroke-width="7" stroke-miterlimit="10" d="M5.7,3019.2c0,65,0,131.9,0,144.9
		c0,43.7,21.2,56.3,60,56.3"/>
	<path fill="none" stroke="#0074B7" stroke-width="7" stroke-miterlimit="10" d="M168.7,927.6c0,0,15.1,0-39.4,0
		s-74.7,33.5-74.7,73.4c0,39.9,0,553.5,0,553.5"/>
	<path fill="none" stroke="#0074B7" stroke-width="7" stroke-miterlimit="10" d="M479.5,92.1L874,91.4c20.8,0,37.6,16.8,37.7,37.5v0
		c0,20.8,16.9,37.6,37.7,37.5l79.1-0.1c20.8,0,37.6,16.8,37.7,37.5l1.1,608.1c0.1,62.1-50.1,112.6-112.3,112.7l-467.7,0.5"/>
	<path fill="none" stroke="#0074B7" stroke-width="7" stroke-miterlimit="10" d="M621.7,1682.6c63.9,0,235,0,327.8,0
		s243.4,0,243.4,0"/>
	<path fill="none" stroke="#0074B7" stroke-width="7" stroke-miterlimit="10" d="M325.4,92.5l-97.7,0.2c-24.3,0-43.7-16.2-43.7-55.1
		l-0.5-28.6"/>
	<circle fill="#032360" cx="322" cy="92" r="8.1"/>
	<circle fill="#032360" cx="484.1" cy="92" r="8.1"/>
	<circle fill="#032360" cx="1066.7" cy="355.2" r="8.1"/>
	<circle fill="#032360" cx="55" cy="1255.1" r="8.1"/>
	<circle fill="#032360" cx="55" cy="1556.9" r="8.1"/>
	<circle fill="#032360" cx="621.7" cy="1682.6" r="8.1"/>
	<path fill="none" stroke="#0074B7" stroke-width="7" stroke-miterlimit="10" d="M614.1,2371.7c63.9,0,336.3,0,429.1,0
		s243.4,0,243.4,0"/>
	<circle fill="#032360" cx="614.1" cy="2371.7" r="8.1"/>
	<path fill="none" stroke="#0074B7" stroke-width="7" stroke-miterlimit="10" d="M83.2,2371.7c0,0,41.2,0-30,0
		c-34.3,0-49.7,15.9-49.7,49.7c0,33.8,0,102.7,0,102.7"/>
	<circle fill="#032360" cx="95.4" cy="2371.7" r="8.1"/>
	<circle fill="#E6E7E8" cx="66.3" cy="3220.5" r="8.1"/>
	<circle fill="#032360" cx="486.5" cy="926.8" r="8.1"/>
	<circle fill="#032360" cx="177.1" cy="926.8" r="8.1"/>
	<circle fill="#032360" cx="184.3" cy="8.1" r="8.1"/>
	<circle fill="#F7A823" cx="500.7" cy="4842.8" r="8.1"/>
</g>
<g>
</g>
<g>
</g>
<g>
</g>
<g>
</g>
<g>
</g>
<g>
</g>
<g>
</g>
<g>
</g>
<g>
</g>
<g>
</g>
<g>
</g>
<g>
</g>
<g>
</g>
<g>
</g>
<g>
</g>
</svg>
