<?xml version="1.0" encoding="utf-8"?>
<!-- Generator: Adobe Illustrator 18.0.0, SVG Export Plug-In . SVG Version: 6.00 Build 0)  -->
<!DOCTYPE svg PUBLIC "-//W3C//DTD SVG 1.1//EN" "http://www.w3.org/Graphics/SVG/1.1/DTD/svg11.dtd">
<svg version="1.1" id="Layer_1" xmlns="http://www.w3.org/2000/svg" xmlns:xlink="http://www.w3.org/1999/xlink" x="0px" y="0px"
	 viewBox="0 0 1203.7 3163.5" enable-background="new 0 0 1203.7 3163.5" xml:space="preserve">
<g>
	<circle fill="#2368B5" cx="459" cy="310.1" r="1.4"/>
	<g>
		<circle fill="#2368B5" cx="1098.6" cy="25.1" r="1.4"/>
		<circle fill="#2368B5" cx="1156.2" cy="117.3" r="1.4"/>
		<circle fill="#2368B5" cx="1180.6" cy="33.6" r="3.7"/>
		<circle fill="#2368B5" cx="1202.3" cy="94.1" r="1.4"/>
		<circle fill="#2368B5" cx="1099.6" cy="80.9" r="1.4"/>
	</g>
	<circle fill="#2368B5" cx="351.6" cy="681.6" r="1.4"/>
	<g>
		<circle fill="#2368B5" cx="1177.2" cy="1632.6" r="3.7"/>
		<circle fill="#2368B5" cx="246.7" cy="2356.2" r="1.4"/>
		<circle fill="#2368B5" cx="1173" cy="1579.1" r="1.2"/>
		<circle fill="#2368B5" cx="1144" cy="1657" r="1.2"/>
		<circle fill="#2368B5" cx="713.3" cy="1563.8" r="1.4"/>
		<circle fill="#2368B5" cx="449.5" cy="1914.5" r="1.4"/>
		<circle fill="#2368B5" cx="619.2" cy="1614.1" r="1.4"/>
		<circle fill="#2368B5" cx="607.7" cy="1635.6" r="1.4"/>
		<circle fill="#2368B5" cx="655.4" cy="1608.3" r="5.6"/>
		<circle fill="#2368B5" cx="736.8" cy="1618.4" r="5.6"/>
		<circle fill="#2368B5" cx="1126.8" cy="1580" r="1.2"/>
		<circle fill="#2368B5" cx="1172.7" cy="1678.4" r="5.6"/>
		<circle fill="#2368B5" cx="175.7" cy="2330.7" r="1.4"/>
		<circle fill="#2368B5" cx="149.8" cy="2364.5" r="3.7"/>
		<circle fill="#2368B5" cx="149.5" cy="2470" r="2.2"/>
		<circle fill="#2368B5" cx="205.5" cy="2420.6" r="5.6"/>
		<circle fill="#2368B5" cx="141.6" cy="2406.4" r="5.6"/>
		<circle fill="#2368B5" cx="137.5" cy="2405.5" r="1.4"/>
		<circle fill="#2368B5" cx="252" cy="2465.7" r="1.4"/>
		<circle fill="#2368B5" cx="100.4" cy="2400.9" r="1.4"/>
		<circle fill="#2368B5" cx="85.6" cy="2365.7" r="1.4"/>
	</g>
	<g>
		<circle fill="#2368B5" cx="67.4" cy="2797.7" r="3.7"/>
		<circle fill="#2368B5" cx="101.4" cy="2989.8" r="2.2"/>
		<circle fill="#2368B5" cx="514.4" cy="2412.7" r="2.2"/>
		<circle fill="#2368B5" cx="34.5" cy="3022.8" r="5.6"/>
		<circle fill="#2368B5" cx="96.2" cy="3055.1" r="1.4"/>
		<circle fill="#2368B5" cx="1.4" cy="2967.1" r="1.4"/>
		<circle fill="#2368B5" cx="130.8" cy="3069.3" r="1.4"/>
		<circle fill="#2368B5" cx="698.4" cy="2438.2" r="1.4"/>
		<circle fill="#2368B5" cx="274.9" cy="3062.7" r="1.4"/>
		<circle fill="#2368B5" cx="135.9" cy="3107.1" r="1.4"/>
		<circle fill="#2368B5" cx="746.5" cy="2367.5" r="1.4"/>
		<circle fill="#2368B5" cx="387.2" cy="3098.7" r="1.4"/>
		<circle fill="#2368B5" cx="280.5" cy="3100.4" r="1.4"/>
		<circle fill="#2368B5" cx="197.6" cy="3082.7" r="1.4"/>
		<circle fill="#2368B5" cx="260.5" cy="3114.3" r="1.4"/>
		<circle fill="#2368B5" cx="315.4" cy="3111.7" r="5.6"/>
		<circle fill="#2368B5" cx="383.2" cy="3157.9" r="5.6"/>
		<circle fill="#2368B5" cx="950.4" cy="2834.7" r="1.4"/>
		<circle fill="#2368B5" cx="1016.3" cy="2859.3" r="1.4"/>
		<circle fill="#2368B5" cx="1132.5" cy="2805.4" r="1.4"/>
		<circle fill="#2368B5" cx="1011.6" cy="2846.2" r="3.7"/>
		<circle fill="#2368B5" cx="1041.7" cy="2839" r="1.4"/>
		<circle fill="#2368B5" cx="959.7" cy="2822.8" r="1.4"/>
	</g>
	<g>
		<path fill="#FFFFFF" d="M442.3,152.5L442.3,152.5L442.3,152.5c-3.3,1.8-6,4.5-7.9,7.9l0,0l0,0c-1.8-3.3-4.5-6-7.9-7.9l0,0l0,0
			c3.3-1.8,6-4.5,7.9-7.9l0,0l0,0C436.3,148,439,150.7,442.3,152.5z"/>
		<line fill="none" stroke="#FFFFFF" stroke-width="0.25" stroke-miterlimit="10" x1="434.5" y1="139.9" x2="434.5" y2="165.2"/>
		<line fill="none" stroke="#FFFFFF" stroke-width="0.25" stroke-miterlimit="10" x1="447.1" y1="152.5" x2="421.8" y2="152.5"/>
	</g>
	<g>
		<path fill="#2368B5" d="M721.2,1693.3L721.2,1693.3L721.2,1693.3c-3.8,0-7.5,1.1-10.7,3.2l0,0l0,0c0-3.8-1.1-7.5-3.2-10.7l0,0l0,0
			c3.8,0,7.5-1.1,10.7-3.2l0,0l0,0C718.1,1686.5,719.2,1690.2,721.2,1693.3z"/>
		
			<rect x="714.2" y="1676.9" transform="matrix(0.88 0.4749 -0.4749 0.88 888.0925 -136.5424)" fill="#2368B5" width="0.3" height="25.3"/>
		
			<rect x="701.7" y="1689.5" transform="matrix(0.8798 0.4753 -0.4753 0.8798 888.9083 -136.4648)" fill="#2368B5" width="25.3" height="0.3"/>
	</g>
	<g>
		<path fill="#2368B5" d="M1153.7,2414.9L1153.7,2414.9L1153.7,2414.9c-3,2.3-5.3,5.4-6.6,8.9l0,0l0,0c-2.3-3-5.4-5.3-8.9-6.6l0,0
			l0,0c3-2.3,5.3-5.4,6.6-8.9l0,0l0,0C1147,2411.3,1150.1,2413.6,1153.7,2414.9z"/>
		
			<rect x="1133.3" y="2415.9" transform="matrix(0.1477 0.989 -0.989 0.1477 3366.2061 925.8271)" fill="#2368B5" width="25.3" height="0.3"/>
		
			<rect x="1145.8" y="2403.4" transform="matrix(0.148 0.989 -0.989 0.148 3365.8315 925.2704)" fill="#2368B5" width="0.3" height="25.3"/>
	</g>
	<g>
		<path fill="#2368B5" d="M614.7,2441.3L614.7,2441.3L614.7,2441.3c-3,2.3-5.3,5.4-6.6,8.9l0,0l0,0c-2.3-3-5.4-5.3-8.9-6.6l0,0l0,0
			c3-2.3,5.3-5.4,6.6-8.9l0,0l0,0C608.1,2437.7,611.2,2440,614.7,2441.3z"/>
		
			<rect x="594.3" y="2442.3" transform="matrix(0.1477 0.989 -0.989 0.1477 2932.9548 1481.3547)" fill="#2368B5" width="25.3" height="0.3"/>
		
			<rect x="606.8" y="2429.8" transform="matrix(0.148 0.989 -0.989 0.148 2932.7197 1480.7844)" fill="#2368B5" width="0.3" height="25.3"/>
	</g>
	<g>
		<path fill="#2368B5" d="M947,1771L947,1771L947,1771c-3.8,0-7.5,1.1-10.7,3.2l0,0l0,0c0-3.8-1.1-7.5-3.2-10.7l0,0l0,0
			c3.8,0,7.5-1.1,10.7-3.2l0,0l0,0C943.9,1764.1,945,1767.8,947,1771z"/>
		
			<rect x="940" y="1754.6" transform="matrix(0.88 0.4749 -0.4749 0.88 952.0521 -234.466)" fill="#2368B5" width="0.3" height="25.3"/>
		
			<rect x="927.5" y="1767.1" transform="matrix(0.8798 0.4753 -0.4753 0.8798 952.9432 -234.4607)" fill="#2368B5" width="25.3" height="0.3"/>
	</g>
	<g>
		<path fill="#2368B5" d="M153.4,2169.7L153.4,2169.7L153.4,2169.7c-3.8,0.2-7.4,1.4-10.5,3.6l0,0l0,0c-0.2-3.8-1.4-7.4-3.6-10.5
			l0,0l0,0c3.8-0.2,7.4-1.4,10.5-3.6l0,0l0,0C150,2163,151.2,2166.6,153.4,2169.7z"/>
		
			<rect x="146.2" y="2153.6" transform="matrix(0.896 0.444 -0.444 0.896 977.0608 160.2783)" fill="#2368B5" width="0.3" height="25.3"/>
		
			<rect x="133.7" y="2166.1" transform="matrix(0.897 0.4421 -0.4421 0.897 972.7081 158.4812)" fill="#2368B5" width="25.3" height="0.3"/>
	</g>
	<g>
		<path fill="#2368B5" d="M214.1,2308.1L214.1,2308.1L214.1,2308.1c-3.8,0.2-7.4,1.4-10.5,3.6l0,0l0,0c-0.2-3.8-1.4-7.4-3.6-10.5
			l0,0l0,0c3.8-0.2,7.4-1.4,10.5-3.6l0,0l0,0C210.7,2301.3,211.9,2305,214.1,2308.1z"/>
		
			<rect x="206.9" y="2292" transform="matrix(0.896 0.444 -0.444 0.896 1044.817 147.7184)" fill="#2368B5" width="0.3" height="25.3"/>
		
			<rect x="194.4" y="2304.5" transform="matrix(0.897 0.4421 -0.4421 0.897 1040.1367 145.9063)" fill="#2368B5" width="25.3" height="0.3"/>
	</g>
	<g>
		<path fill="#2368B5" d="M509.7,2777.3L509.7,2777.3L509.7,2777.3c-3.8,0.2-7.4,1.4-10.5,3.6l0,0l0,0c-0.2-3.8-1.4-7.4-3.6-10.5
			l0,0l0,0c3.8-0.2,7.4-1.4,10.5-3.6l0,0l0,0C506.3,2770.6,507.6,2774.2,509.7,2777.3z"/>
		
			<rect x="502.6" y="2761.2" transform="matrix(0.8959 0.4443 -0.4443 0.8959 1284.8859 65.511)" fill="#2368B5" width="0.3" height="25.3"/>
		
			<rect x="490" y="2773.7" transform="matrix(0.897 0.442 -0.442 0.897 1277.9111 63.5062)" fill="#2368B5" width="25.3" height="0.3"/>
	</g>
	<g>
		<circle fill="#2368B5" cx="1050.9" cy="604.9" r="1.4"/>
		<circle fill="#2368B5" cx="1112.2" cy="616.4" r="3.7"/>
		<circle fill="#2368B5" cx="1147.5" cy="545.7" r="5.6"/>
		<circle fill="#2368B5" cx="1155" cy="614.9" r="1.4"/>
		<g>
			<path fill="#2368B5" d="M1078.5,485.2L1078.5,485.2L1078.5,485.2c-3.3,1.8-6,4.5-7.9,7.9l0,0l0,0c-1.8-3.3-4.5-6-7.9-7.9l0,0l0,0
				c3.3-1.8,6-4.5,7.9-7.9l0,0l0,0C1072.5,480.7,1075.2,483.4,1078.5,485.2z"/>
			<rect x="1070.5" y="472.6" fill="#2368B5" width="0.3" height="25.3"/>
			<rect x="1058" y="485.1" fill="#2368B5" width="25.3" height="0.3"/>
		</g>
		<g>
			<path fill="#2368B5" d="M792.8,616L792.8,616L792.8,616c-3.3,1.8-6,4.5-7.9,7.9l0,0l0,0c-1.8-3.3-4.5-6-7.9-7.9l0,0l0,0
				c3.3-1.8,6-4.5,7.9-7.9l0,0l0,0C786.8,611.5,789.5,614.2,792.8,616z"/>
			<rect x="784.8" y="603.4" fill="#2368B5" width="0.3" height="25.3"/>
			<rect x="772.3" y="615.9" fill="#2368B5" width="25.3" height="0.3"/>
		</g>
	</g>
	<radialGradient id="SVGID_1_" cx="196.5818" cy="2726.9106" r="64.8046" gradientUnits="userSpaceOnUse">
		<stop  offset="0" style="stop-color:#231F20;stop-opacity:0"/>
		<stop  offset="1" style="stop-color:#FFFFFF"/>
	</radialGradient>
	<circle opacity="0.15" fill="url(#SVGID_1_)" cx="154.2" cy="2692.8" r="21.7"/>
	<line fill="none" stroke="#414042" stroke-width="0.1702" stroke-miterlimit="10" x1="872.7" y1="1029" x2="883.4" y2="1029"/>
	<g>
		<circle fill="#2368B5" cx="64.7" cy="660.8" r="5.6"/>
		<circle fill="#2368B5" cx="274.5" cy="603.7" r="1.4"/>
		<circle fill="#2368B5" cx="75.5" cy="710.7" r="1.4"/>
		<circle fill="#2368B5" cx="88.5" cy="686.1" r="1.4"/>
		<circle fill="#2368B5" cx="122.8" cy="702.3" r="5.6"/>
		<circle fill="#2368B5" cx="278.2" cy="753.3" r="2.2"/>
		<circle fill="#2368B5" cx="286.9" cy="679.1" r="5.6"/>
		<circle fill="#2368B5" cx="229.9" cy="711.3" r="5.6"/>
		<circle fill="#2368B5" cx="226.3" cy="713.4" r="1.4"/>
		<circle fill="#2368B5" cx="195.6" cy="734.7" r="1.4"/>
		<circle fill="#2368B5" cx="161" cy="718.5" r="1.4"/>
		<g>
			<path fill="#2368B5" d="M315.9,557.2L315.9,557.2L315.9,557.2c-3.3,1.8-6,4.5-7.9,7.9l0,0l0,0c-1.8-3.3-4.5-6-7.9-7.9l0,0l0,0
				c3.3-1.8,6-4.5,7.9-7.9l0,0l0,0C309.8,552.7,312.6,555.4,315.9,557.2z"/>
			<rect x="307.9" y="544.5" fill="#2368B5" width="0.3" height="25.3"/>
			<rect x="295.4" y="557.1" fill="#2368B5" width="25.3" height="0.3"/>
		</g>
		<path fill="none" stroke="#262262" stroke-miterlimit="10" stroke-dasharray="12" d="M138.3,359.7
			C9.5,499,139.6,698.5,283.9,698.5"/>
	</g>
	<g>
		<line fill="none" stroke="#262262" stroke-miterlimit="10" stroke-dasharray="12" x1="672.8" y1="695" x2="806.5" y2="695"/>
	</g>
	<path fill="none" stroke="#2B3990" stroke-miterlimit="10" stroke-dasharray="12" d="M1030,691.5c57.4,0,141.8,33.5,141.8,135.4
		c0,78.1-78.1,119.5-105.2,119.5"/>
	<circle fill="#007A6D" cx="88.9" cy="56.6" r="20.7"/>
	<g>
		<circle fill="#2368B5" cx="156.2" cy="1508.9" r="1.4"/>
		<circle fill="#2368B5" cx="265" cy="1514" r="1.4"/>
		<circle fill="#2368B5" cx="79" cy="1596.4" r="1.4"/>
		<circle fill="#2368B5" cx="195.2" cy="1542.5" r="1.4"/>
		<circle fill="#2368B5" cx="82.7" cy="1515.7" r="3.7"/>
		<circle fill="#2368B5" cx="125.5" cy="1514.2" r="1.4"/>
		<circle fill="#2368B5" cx="133" cy="1550.9" r="1.4"/>
		<circle fill="#2368B5" cx="104.4" cy="1576.2" r="1.4"/>
		<circle fill="#2368B5" cx="198.5" cy="1584.9" r="3.7"/>
		<circle fill="#2368B5" cx="268.8" cy="1663.6" r="2.2"/>
		<circle fill="#2368B5" cx="277.4" cy="1589.4" r="5.6"/>
		<circle fill="#2368B5" cx="220.4" cy="1621.6" r="5.6"/>
		<circle fill="#2368B5" cx="216.8" cy="1623.7" r="1.4"/>
		<circle fill="#2368B5" cx="342.1" cy="1591.9" r="1.4"/>
		<circle fill="#2368B5" cx="186.1" cy="1645" r="1.4"/>
		<circle fill="#2368B5" cx="151.6" cy="1628.8" r="1.4"/>
		<circle fill="#2368B5" cx="134.1" cy="1547.1" r="1.4"/>
		<circle fill="#2368B5" cx="99" cy="1608.1" r="1.4"/>
		<circle fill="#C12B5D" cx="88.9" cy="1608.3" r="20.7"/>
	</g>
	<circle fill="#F6A822" cx="88.9" cy="2445.9" r="20.7"/>
	<path fill="none" stroke="#262262" stroke-miterlimit="10" stroke-dasharray="12" d="M508.9,947.7c-56.1,0-87.7,0-143.8,0
		s-80.8,107.2,37.9,107.2c161.6,0,254.4,0,254.4,0"/>
	<path fill="none" stroke="#032360" stroke-miterlimit="10" stroke-dasharray="12" d="M1164.8,1225.7c0,22.8-33.1,69.8-81.5,69.8
		c-47,0-100.1,0-100.1,0"/>
	<line fill="none" stroke="#032360" stroke-miterlimit="10" stroke-dasharray="12" x1="490.4" y1="1831.1" x2="768.6" y2="1831.1"/>
	<path fill="none" stroke="#032360" stroke-miterlimit="10" stroke-dasharray="12" d="M937.2,1826.9h97.5c57.8,0,94.7,42,94.7,96
		v78.2"/>
	<g>
		<g>
			<path fill="#BCBEC0" d="M486.4,3078.6l-7.4,0c-2.5,0-4.9,0-7.4,0.1c-2.5,0.1-4.9,0.2-7.4,0.3l-7.4,0.4c2.4-0.5,4.9-0.8,7.4-1.1
				c2.5-0.3,4.9-0.4,7.4-0.5c2.5-0.1,5-0.1,7.4,0.1C481.5,3078.1,484,3078.3,486.4,3078.6z"/>
		</g>
		
			<linearGradient id="SVGID_2_" gradientUnits="userSpaceOnUse" x1="3219.0286" y1="3244.259" x2="3219.0286" y2="3277.7932" gradientTransform="matrix(0.9996 -2.720000e-002 -2.720000e-002 -0.9996 -2657.7776 6418.4028)">
			<stop  offset="0" style="stop-color:#FFF33B;stop-opacity:0"/>
			<stop  offset="1.385293e-002" style="stop-color:#FEEF3B;stop-opacity:2.072120e-002"/>
			<stop  offset="0.1383" style="stop-color:#FACD3D;stop-opacity:0.2069"/>
			<stop  offset="0.2654" style="stop-color:#F7B23E;stop-opacity:0.397"/>
			<stop  offset="0.3946" style="stop-color:#F59F3E;stop-opacity:0.5902"/>
			<stop  offset="0.5273" style="stop-color:#F3943F;stop-opacity:0.7887"/>
			<stop  offset="0.6685" style="stop-color:#F3903F"/>
			<stop  offset="0.8876" style="stop-color:#ED683C"/>
			<stop  offset="1" style="stop-color:#E93E3A"/>
		</linearGradient>
		<path fill="url(#SVGID_2_)" d="M460.3,3079.5c-1.9-4-0.5-10.4,1.7-12.6l1.4,2.8c0.1-4,1.4-7.9,3.9-11.6l1.1,3.9
			c0.3-2.5,2.5-4.5,2.8-10.3c0.2,6.3,3.7,8.3,4.5,11.4l1.2-3.9c1.6,3.8,2.6,7.5,2.6,10.9l1.4-5.8c2.3,5.8,2.8,12.4,2,14.6l-9.4,10.7
			L460.3,3079.5z"/>
		<path fill="#E6E7E8" d="M500.2,3080.2l-11,0.3c-0.2-0.6-0.4-1.3-0.6-1.9l-2.2,0.1l0-1.2c-4.4-0.7-25.3-0.1-29.6,0.8l0,1.2
			l-2.2,0.1c-0.2,0.6-0.3,1.3-0.5,1.9l-11,0.3l10.1,20.6c1.5,14.7,6.6,29.1,11.7,37.3l16.6-0.5c4.7-8.5,9-23.1,9.6-37.9
			L500.2,3080.2z"/>
		
			<linearGradient id="SVGID_3_" gradientUnits="userSpaceOnUse" x1="3203.7551" y1="3223.7231" x2="3219.9543" y2="3223.7231" gradientTransform="matrix(0.9996 -2.720000e-002 -2.720000e-002 -0.9996 -2657.7776 6418.4028)">
			<stop  offset="0" style="stop-color:#FFFFFF"/>
			<stop  offset="1" style="stop-color:#231F20"/>
		</linearGradient>
		<path opacity="0.6" fill="url(#SVGID_3_)" d="M473.3,3139.6l-1.7-62.3l-14.8,1l0,1.2l-2.2,0.1l-0.5,1.9l-0.9,20.9
			c0,0,2.4,23,11.7,37.3L473.3,3139.6z"/>
		<path fill="#A7A9AC" d="M472.3,3106c-5.3,0.1-9.4,4.7-9.3,10.1c0.1,5.5,4.5,9.8,9.8,9.6"/>
		<path fill="#BCBEC0" d="M472.8,3125.7c5.3-0.1,9.4-4.7,9.3-10.1c-0.1-5.5-4.5-9.8-9.8-9.6"/>
		<polygon fill="#BCBEC0" points="453.3,3102.3 454.1,3081.4 443.2,3081.7 		"/>
		<polygon fill="#BCBEC0" points="491.2,3101.3 500.2,3080.2 489.2,3080.5 		"/>
		<path fill="#414042" d="M465,3139.7l7,9.2c0.8,1,2.3,1,3.1-0.1l6.5-9.6L465,3139.7z"/>
		<path fill="#BCBEC0" d="M475.2,3088.4c-0.2-7.1-3.7-12.8-3.7-12.8s-3.2,5.9-3,13c0.2,7.1,1.9,12.9,3.7,12.8
			C474,3101.4,475.4,3095.6,475.2,3088.4z"/>
	</g>
	<path fill="none" stroke="#262262" stroke-miterlimit="10" stroke-dasharray="12" d="M771.7,1298.5c-51.7,0-89.8,33.5-89.8,72.9
		c0,35.1,30.4,79.2,86,79.2"/>
	<path fill="none" stroke="#032360" stroke-miterlimit="10" stroke-dasharray="12" d="M1101.2,1440.9c98.1,0,132,208.5-76.2,208.4
		c-98.3,0-766.1,0.6-766.1,0.6"/>
	<g>
		<circle fill="#2368B5" cx="195.6" cy="1.4" r="1.4"/>
		<circle fill="#2368B5" cx="217.7" cy="32.4" r="1.4"/>
		<circle fill="#2368B5" cx="206.3" cy="53.9" r="1.4"/>
		<circle fill="#2368B5" cx="254" cy="26.5" r="5.6"/>
		<circle fill="#2368B5" cx="335.4" cy="36.6" r="5.6"/>
		<g>
			<g>
				<path fill="#BCBEC0" d="M407.9,36.9c1.6,3.5,3,7,4.2,10.7c1.2,3.6,2.2,7.3,3,11.1c-0.9-3.7-1.9-7.4-3.2-11
					C410.7,44,409.3,40.4,407.9,36.9z"/>
			</g>
			
				<linearGradient id="SVGID_4_" gradientUnits="userSpaceOnUse" x1="1231.5336" y1="1188.618" x2="1231.5336" y2="1214.5293" gradientTransform="matrix(-0.315 -0.9491 0.9491 -0.315 -335.1632 1593.2994)">
				<stop  offset="0" style="stop-color:#FFF33B;stop-opacity:0"/>
				<stop  offset="1.385293e-002" style="stop-color:#FEEF3B;stop-opacity:2.072120e-002"/>
				<stop  offset="0.1383" style="stop-color:#FACD3D;stop-opacity:0.2069"/>
				<stop  offset="0.2654" style="stop-color:#F7B23E;stop-opacity:0.397"/>
				<stop  offset="0.3946" style="stop-color:#F59F3E;stop-opacity:0.5902"/>
				<stop  offset="0.5273" style="stop-color:#F3943F;stop-opacity:0.7887"/>
				<stop  offset="0.6685" style="stop-color:#F3903F"/>
				<stop  offset="0.8876" style="stop-color:#ED683C"/>
				<stop  offset="1" style="stop-color:#E93E3A"/>
			</linearGradient>
			<path fill="url(#SVGID_4_)" d="M414.1,56.1c3.4,0.4,7.7-2.4,8.7-4.6l-2.4-0.3c2.9-1.2,5.4-3.1,7.4-5.9l-3.1,0.2
				c1.7-0.9,2.6-3,6.7-4.8c-4.6,1.5-7-0.5-9.5-0.3l2.6-1.9c-3.2-0.2-6.1,0.1-8.6,0.9l3.8-2.5c-4.8-0.2-9.7,1.3-11.2,2.4l-5.3,9.7
				L414.1,56.1z"/>
			<path fill="#E6E7E8" d="M403.1,27.3l2.7,8c0.5,0,1-0.1,1.5-0.1l0.5,1.6l0.9-0.3c1.6,3,6.7,18.3,7.2,21.7l-0.9,0.3l0.5,1.6
				c-0.4,0.3-0.8,0.6-1.3,0.8l2.7,8l-17.6-1.9c-11.1,2.8-22.9,2.9-30.2,1.3l-4-12.2c4.9-5.6,14.4-12.6,25-17L403.1,27.3z"/>
			
				<linearGradient id="SVGID_5_" gradientUnits="userSpaceOnUse" x1="1219.7339" y1="1172.7504" x2="1232.2509" y2="1172.7504" gradientTransform="matrix(-0.315 -0.9491 0.9491 -0.315 -335.1632 1593.2994)">
				<stop  offset="0" style="stop-color:#FFFFFF"/>
				<stop  offset="1" style="stop-color:#231F20"/>
			</linearGradient>
			<path opacity="0.6" fill="url(#SVGID_5_)" d="M367.1,62.5l45.7-15.2l3.2,11l-0.9,0.3l0.5,1.6l-1.3,0.8l-15,6.1
				c0,0-17.4,4.3-30.2,1.3L367.1,62.5z"/>
			<path fill="#A7A9AC" d="M391.8,54.4c1.3,3.9-0.9,8.1-4.9,9.4c-4,1.3-8.3-0.7-9.6-4.6"/>
			<path fill="#BCBEC0" d="M377.2,59.2c-1.3-3.9,0.9-8.1,4.9-9.4c4-1.3,8.3,0.7,9.6,4.6"/>
			<polygon fill="#BCBEC0" points="399.4,67.2 414.3,61.1 417,69.1 			"/>
			<polygon fill="#BCBEC0" points="390.1,39.4 403.1,27.3 405.8,35.4 			"/>
			<path fill="#414042" d="M369.2,68.6l-8.5-2.7c-1-0.3-1.3-1.4-0.7-2.3l5.2-7.2L369.2,68.6z"/>
			<path fill="#BCBEC0" d="M403.7,47.7C409,45.9,414,47,414,47s-3.4,3.9-8.7,5.6c-5.2,1.7-9.8,2-10.3,0.7
				C394.6,51.9,398.5,49.4,403.7,47.7z"/>
		</g>
		<path fill="none" stroke="#032360" stroke-miterlimit="10" stroke-dasharray="12" d="M441.7,38.8c19.1-3.2,87.5-21.5,128-8.7
			s100.2,7.2,128-10.3"/>
	</g>
	<path fill="none" stroke="#032360" stroke-miterlimit="10" stroke-dasharray="12" d="M631.3,2219.6v-21.8
		c0-32.3,26.2-58.6,58.6-58.6h274.5"/>
	<path fill="none" stroke="#032360" stroke-miterlimit="10" stroke-dasharray="12" d="M174.6,2573.4L174.6,2573.4
		c0,24.4,19.8,44.2,44.2,44.2h199.7"/>
	<path fill="none" stroke="#032360" stroke-miterlimit="10" stroke-dasharray="12" d="M631.9,2303.5v41.9
		c0,35.3-28.6,63.9-63.9,63.9H191.8c-7.4,0-13.3,6-13.3,13.3l0,0"/>
	<line fill="none" stroke="#032360" stroke-miterlimit="10" stroke-dasharray="12" x1="465" y1="2991.3" x2="465" y2="3028.2"/>
	<line fill="none" stroke="#032360" stroke-miterlimit="10" stroke-dasharray="12" x1="465" y1="2649.6" x2="465" y2="2905"/>
	<g>
		<circle fill="#2368B5" cx="722" cy="812" r="2.2"/>
		<circle fill="#2368B5" cx="741.3" cy="843.8" r="1.4"/>
		<circle fill="#2368B5" cx="764.8" cy="816.8" r="1.4"/>
		<circle fill="#2368B5" cx="813.9" cy="806.3" r="1.4"/>
		<circle fill="#2368B5" cx="769.4" cy="844.3" r="5.6"/>
		<circle fill="#007A6D" cx="757.4" cy="814.2" r="20.7"/>
	</g>
</g>
<g>
</g>
<g>
</g>
<g>
</g>
<g>
</g>
<g>
</g>
<g>
</g>
<g>
</g>
<g>
</g>
<g>
</g>
<g>
</g>
<g>
</g>
<g>
</g>
<g>
</g>
<g>
</g>
<g>
</g>
</svg>
