<?xml version="1.0" encoding="utf-8"?>
<!-- Generator: Adobe Illustrator 18.0.0, SVG Export Plug-In . SVG Version: 6.00 Build 0)  -->
<!DOCTYPE svg PUBLIC "-//W3C//DTD SVG 1.1//EN" "http://www.w3.org/Graphics/SVG/1.1/DTD/svg11.dtd">
<svg version="1.1" id="Layer_1" xmlns="http://www.w3.org/2000/svg" xmlns:xlink="http://www.w3.org/1999/xlink" x="0px" y="0px"
	 viewBox="0 0 762.2 436" enable-background="new 0 0 762.2 436" xml:space="preserve">
<g>
	<g>
		<g>
			<path fill="#A7A9AC" d="M23.9,413.5h-4v-0.8h4V413.5z M25.1,420.7c-1.1,0.7-2.9,1.3-4.3,1.7c-0.2-0.2-0.5-0.6-0.8-0.8
				c1.4-0.3,3.1-0.8,4.1-1.3L25.1,420.7z M23.6,411.3h-3.3v-0.8h3.3V411.3z M21.8,414.6h9.1v5.6h-9.1V414.6z M22.8,416.2h7v-1h-7
				V416.2z M22.8,417.8h7v-1h-7V417.8z M22.8,419.5h7v-1h-7V419.5z M26.1,411.4c-0.3,0.5-0.7,1-1.1,1.4c-0.2-0.2-0.6-0.4-0.8-0.5
				c0.7-0.7,1.3-1.6,1.6-2.7l0.9,0.2c-0.1,0.3-0.2,0.5-0.3,0.8h4.7l0.2,0l0.7,0.2c-0.4,0.7-0.8,1.5-1.2,2l-0.8-0.3
				c0.2-0.3,0.5-0.7,0.7-1.1h-2.2v0.2c0,0.1,0,0.3,0,0.5c0.7,0.8,2.3,1.4,4.1,1.5c-0.2,0.2-0.5,0.6-0.6,0.8
				c-1.6-0.2-2.9-0.8-3.8-1.6c-0.5,0.7-1.6,1.3-4,1.7c-0.1-0.2-0.4-0.6-0.6-0.8c3.6-0.5,4-1.4,4-2.2v-0.1H26.1z M28.2,420.3
				c1.5,0.5,3.1,1.1,4.1,1.5l-0.9,0.6c-0.9-0.4-2.4-1-3.9-1.6L28.2,420.3z"/>
			<path fill="#A7A9AC" d="M36.2,416.3c-0.3,1.6-0.9,3.5-1.6,4.5c-0.1-0.4-0.4-0.8-0.5-1.1c0.6-0.8,1.2-2.4,1.4-3.6L36.2,416.3z
				 M37.5,415.3v7.1h-1v-7.1h-2.2v-1h2.2v-4.7h1v4.7h2.3v1H37.5z M35.1,413.8c-0.1-0.8-0.4-2.1-0.8-3.1l0.8-0.2
				c0.4,1,0.7,2.2,0.8,3.1L35.1,413.8z M38.1,416.1c0.3,0.4,1.3,2.3,1.5,2.8l-0.7,0.8c-0.3-0.8-1-2.5-1.3-3.2L38.1,416.1z
				 M39.8,410.7c-0.3,1.1-0.8,2.4-1.1,3.1l-0.7-0.2c0.3-0.8,0.7-2.2,0.9-3.1L39.8,410.7z M45.2,418.5v3.9h-1v-3.8l-4.3,0.8l-0.2-1
				l4.5-0.8v-8h1v7.9l1.7-0.3l0.2,1L45.2,418.5z M42.4,416.5c-0.5-0.5-1.5-1.2-2.3-1.7l0.5-0.7c0.8,0.4,1.8,1.1,2.3,1.6L42.4,416.5z
				 M43,413.1c-0.4-0.5-1.4-1.3-2.2-1.8l0.5-0.7c0.8,0.5,1.8,1.2,2.2,1.7L43,413.1z"/>
			<path fill="#A7A9AC" d="M55.4,415.9c1.2,2.1,3.6,4.1,6,5c-0.3,0.2-0.6,0.6-0.8,0.9c-1.9-0.9-3.8-2.4-5.2-4.2v4.8h-1.1v-4.8
				c-1.4,1.8-3.3,3.3-5.1,4.2c-0.2-0.3-0.5-0.7-0.7-0.9c2.3-0.9,4.6-2.9,5.9-4.9v-3.4H49v-1h5.4v-1.9h1.1v1.9H61v1h-5.6V415.9z
				 M52.4,413.1c-0.1,0.6-0.3,1.1-0.5,1.7c0.6,0.5,1.2,1.1,1.6,1.5l-0.7,0.7c-0.3-0.3-0.8-0.9-1.3-1.4c-0.5,0.9-1.1,1.6-1.8,2.2
				c-0.2-0.2-0.6-0.5-0.8-0.7c1.3-1,2.1-2.5,2.5-4.3L52.4,413.1z M59,413.1c-0.1,0.6-0.3,1.1-0.5,1.7c0.9,0.7,2,1.6,2.5,2.2
				l-0.7,0.7c-0.5-0.5-1.4-1.3-2.2-2c-0.4,0.6-0.8,1.2-1.2,1.7c-0.2-0.2-0.6-0.4-0.9-0.6c1-0.9,1.7-2.2,2-3.8L59,413.1z"/>
			<path fill="#A7A9AC" d="M65.2,415.7c-0.5-0.4-1.6-1.1-2.4-1.5l0.6-0.7c0.8,0.4,1.8,1,2.4,1.4L65.2,415.7z M66.1,417.7
				c-0.6,1.5-1.4,3.2-2,4.5l-0.9-0.6c0.6-1.1,1.5-2.9,2.1-4.5L66.1,417.7z M65.8,412.1c-0.5-0.4-1.6-1.1-2.3-1.6l0.6-0.7
				c0.8,0.4,1.8,1.1,2.3,1.5L65.8,412.1z M68,414.1c0,2.4-0.2,5.9-1.9,8.2c-0.2-0.2-0.6-0.4-0.9-0.5c1.6-2.2,1.7-5.4,1.7-7.7v-3.8
				h8.5v1H68V414.1z M70.3,418.7c-0.5,1-1.2,2.1-1.8,2.9c-0.2-0.2-0.6-0.4-0.8-0.5c0.6-0.7,1.3-1.7,1.7-2.6L70.3,418.7z M72.3,417.7
				v3.7c0,0.5-0.1,0.8-0.5,0.9c-0.4,0.2-1,0.2-1.9,0.1c0-0.3-0.2-0.6-0.3-0.9c0.7,0,1.3,0,1.4,0c0.2,0,0.2-0.1,0.2-0.2v-3.6h-2.5
				v-4.8h2.1c0.2-0.4,0.3-1,0.4-1.4l1.2,0.2c-0.2,0.4-0.4,0.8-0.6,1.2H75v4.8H72.3z M69.8,414.9H74v-1.2h-4.3V414.9z M69.8,416.9H74
				v-1.2h-4.3V416.9z M74.2,418.3c0.5,0.9,1.2,2,1.6,2.7l-1,0.4c-0.3-0.7-1-1.9-1.5-2.7L74.2,418.3z"/>
			<path fill="#A7A9AC" d="M79.1,412.7c0-0.6,0.5-1.1,1.1-1.1c0.6,0,1.1,0.4,1.1,1.1s-0.5,1.1-1.1,1.1
				C79.6,413.7,79.1,413.3,79.1,412.7z M79.1,419.5c0-0.6,0.5-1.1,1.1-1.1c0.6,0,1.1,0.4,1.1,1.1c0,0.6-0.5,1-1.1,1
				C79.6,420.6,79.1,420.2,79.1,419.5z"/>
			<path fill="#A7A9AC" d="M87.5,412.2h-3.1v-1.1h7.5v1.1h-3.1v9.2h-1.3V412.2z"/>
			<path fill="#A7A9AC" d="M94,410.2h1.3v3.1l0,1.6c0.7-0.7,1.5-1.3,2.5-1.3c1.6,0,2.3,1,2.3,3v4.8h-1.3v-4.7c0-1.4-0.4-2-1.4-2
				c-0.8,0-1.3,0.4-2.1,1.2v5.5H94V410.2z"/>
			<path fill="#A7A9AC" d="M102.3,417.5c0-2.5,1.7-4,3.5-4c1.9,0,3.5,1.5,3.5,4c0,2.5-1.7,4-3.5,4
				C103.9,421.5,102.3,420.1,102.3,417.5z M108,417.5c0-1.8-0.9-2.9-2.2-2.9c-1.3,0-2.2,1.2-2.2,2.9c0,1.8,0.9,2.9,2.2,2.9
				C107.1,420.4,108,419.3,108,417.5z"/>
			<path fill="#A7A9AC" d="M111.7,413.7h1.1l0.1,1.1h0c0.7-0.7,1.5-1.3,2.4-1.3c1.2,0,1.8,0.6,2.1,1.5c0.8-0.9,1.6-1.5,2.5-1.5
				c1.6,0,2.3,1,2.3,3v4.8h-1.3v-4.7c0-1.4-0.4-2-1.4-2c-0.6,0-1.2,0.4-1.9,1.2v5.5h-1.3v-4.7c0-1.4-0.4-2-1.4-2
				c-0.6,0-1.2,0.4-1.9,1.2v5.5h-1.3V413.7z"/>
			<path fill="#A7A9AC" d="M124.1,420.5l0.6-0.8c0.7,0.5,1.3,0.9,2.3,0.9c1,0,1.5-0.5,1.5-1.2c0-0.8-0.9-1.1-1.7-1.4
				c-1.1-0.4-2.3-0.9-2.3-2.2c0-1.2,1-2.2,2.6-2.2c0.9,0,1.8,0.4,2.4,0.9l-0.6,0.8c-0.5-0.4-1.1-0.7-1.8-0.7c-1,0-1.4,0.5-1.4,1.1
				c0,0.7,0.8,1,1.7,1.3c1.1,0.4,2.3,0.9,2.3,2.3c0,1.2-1,2.3-2.8,2.3C125.9,421.5,124.9,421.1,124.1,420.5z"/>
			<path fill="#A7A9AC" d="M131.3,417.5c0-2.5,1.7-4,3.5-4c1.9,0,3.5,1.5,3.5,4c0,2.5-1.7,4-3.5,4
				C133,421.5,131.3,420.1,131.3,417.5z M137.1,417.5c0-1.8-0.9-2.9-2.2-2.9c-1.3,0-2.2,1.2-2.2,2.9c0,1.8,0.9,2.9,2.2,2.9
				C136.2,420.4,137.1,419.3,137.1,417.5z"/>
			<path fill="#A7A9AC" d="M140.7,413.7h1.1l0.1,1.1h0c0.7-0.7,1.5-1.3,2.5-1.3c1.6,0,2.3,1,2.3,3v4.8h-1.3v-4.7c0-1.4-0.4-2-1.4-2
				c-0.8,0-1.3,0.4-2.1,1.2v5.5h-1.3V413.7z"/>
			<path fill="#A7A9AC" d="M153.2,411.1h2.6c3.2,0,4.8,1.8,4.8,5.1c0,3.3-1.7,5.2-4.8,5.2h-2.6V411.1z M155.7,420.3
				c2.4,0,3.6-1.5,3.6-4.1c0-2.6-1.2-4-3.6-4h-1.2v8.2H155.7z"/>
			<path fill="#A7A9AC" d="M162.6,419.4c0-1.7,1.4-2.5,4.7-2.8c0-1-0.3-1.9-1.6-1.9c-0.9,0-1.7,0.4-2.3,0.8l-0.5-0.9
				c0.7-0.4,1.8-1,3-1c1.8,0,2.6,1.2,2.6,3.1v4.7h-1.1l-0.1-0.9h0c-0.7,0.6-1.6,1.1-2.5,1.1C163.6,421.5,162.6,420.7,162.6,419.4z
				 M167.3,419.5v-2.1c-2.6,0.3-3.4,0.9-3.4,1.9c0,0.9,0.6,1.2,1.3,1.2C165.9,420.5,166.5,420.1,167.3,419.5z"/>
			<path fill="#A7A9AC" d="M171.3,419v-4.2h-1.1v-1l1.2-0.1l0.2-2.1h1.1v2.1h2.1v1h-2.1v4.2c0,0.9,0.3,1.5,1.2,1.5
				c0.3,0,0.6-0.1,0.9-0.2l0.3,1c-0.4,0.1-0.9,0.3-1.4,0.3C171.9,421.5,171.3,420.5,171.3,419z"/>
			<path fill="#A7A9AC" d="M175.9,419.4c0-1.7,1.4-2.5,4.7-2.8c0-1-0.3-1.9-1.6-1.9c-0.9,0-1.7,0.4-2.3,0.8l-0.5-0.9
				c0.7-0.4,1.8-1,3-1c1.8,0,2.6,1.2,2.6,3.1v4.7h-1.1l-0.1-0.9h0c-0.7,0.6-1.6,1.1-2.5,1.1C176.9,421.5,175.9,420.7,175.9,419.4z
				 M180.6,419.5v-2.1c-2.6,0.3-3.4,0.9-3.4,1.9c0,0.9,0.6,1.2,1.3,1.2C179.3,420.5,179.9,420.1,180.6,419.5z"/>
			<path fill="#A7A9AC" d="M183.8,420.5l0.6-0.8c0.7,0.5,1.3,0.9,2.3,0.9c1,0,1.5-0.5,1.5-1.2c0-0.8-0.9-1.1-1.7-1.4
				c-1.1-0.4-2.3-0.9-2.3-2.2c0-1.2,1-2.2,2.6-2.2c0.9,0,1.8,0.4,2.4,0.9l-0.6,0.8c-0.5-0.4-1.1-0.7-1.8-0.7c-1,0-1.4,0.5-1.4,1.1
				c0,0.7,0.8,1,1.7,1.3c1.1,0.4,2.3,0.9,2.3,2.3c0,1.2-1,2.3-2.8,2.3C185.6,421.5,184.5,421.1,183.8,420.5z"/>
			<path fill="#A7A9AC" d="M191.5,419v-4.2h-1.1v-1l1.2-0.1l0.2-2.1h1.1v2.1h2.1v1h-2.1v4.2c0,0.9,0.3,1.5,1.2,1.5
				c0.3,0,0.6-0.1,0.9-0.2l0.3,1c-0.4,0.1-0.9,0.3-1.4,0.3C192,421.5,191.5,420.5,191.5,419z"/>
			<path fill="#A7A9AC" d="M196.9,413.7h1.1l0.1,1.4h0c0.5-1,1.3-1.6,2.2-1.6c0.3,0,0.6,0,0.8,0.2l-0.2,1.1
				c-0.3-0.1-0.4-0.1-0.7-0.1c-0.6,0-1.4,0.4-1.9,1.8v4.9h-1.3V413.7z"/>
			<path fill="#A7A9AC" d="M201.9,417.5c0-2.5,1.7-4,3.4-4c1.9,0,3,1.4,3,3.6c0,0.3,0,0.5-0.1,0.7h-5.1c0.1,1.6,1.1,2.7,2.5,2.7
				c0.7,0,1.3-0.2,1.9-0.6l0.5,0.8c-0.7,0.4-1.5,0.8-2.5,0.8C203.6,421.5,201.9,420,201.9,417.5z M207.3,416.9
				c0-1.5-0.7-2.4-1.9-2.4c-1.1,0-2,0.9-2.2,2.4H207.3z"/>
			<path fill="#A7A9AC" d="M209.9,419.4c0-1.7,1.4-2.5,4.7-2.8c0-1-0.3-1.9-1.6-1.9c-0.9,0-1.7,0.4-2.3,0.8l-0.5-0.9
				c0.7-0.4,1.8-1,3-1c1.8,0,2.6,1.2,2.6,3.1v4.7h-1.1l-0.1-0.9h0c-0.7,0.6-1.6,1.1-2.5,1.1C210.9,421.5,209.9,420.7,209.9,419.4z
				 M214.6,419.5v-2.1c-2.6,0.3-3.4,0.9-3.4,1.9c0,0.9,0.6,1.2,1.3,1.2C213.2,420.5,213.8,420.1,214.6,419.5z"/>
			<path fill="#A7A9AC" d="M218.6,413.7h1.1l0.1,1.1h0c0.7-0.7,1.5-1.3,2.4-1.3c1.2,0,1.8,0.6,2.1,1.5c0.8-0.9,1.6-1.5,2.5-1.5
				c1.6,0,2.3,1,2.3,3v4.8h-1.3v-4.7c0-1.4-0.4-2-1.4-2c-0.6,0-1.2,0.4-1.9,1.2v5.5h-1.3v-4.7c0-1.4-0.4-2-1.4-2
				c-0.6,0-1.2,0.4-1.9,1.2v5.5h-1.3V413.7z"/>
			<path fill="#A7A9AC" d="M234.2,413.9c1.2,0,2.1,1,2.1,2.1c0,1.2-1,2.1-2.1,2.1c-1.2,0-2.1-1-2.1-2.1
				C232.1,414.8,233,413.9,234.2,413.9z M234.2,417.4c0.8,0,1.4-0.6,1.4-1.4c0-0.8-0.6-1.4-1.4-1.4c-0.8,0-1.4,0.6-1.4,1.4
				C232.8,416.8,233.4,417.4,234.2,417.4z"/>
			<path fill="#A7A9AC" d="M242.7,413.5h-4v-0.8h4V413.5z M243.8,420.7c-1.1,0.7-2.9,1.3-4.3,1.7c-0.2-0.2-0.5-0.6-0.8-0.8
				c1.4-0.3,3.1-0.8,4.1-1.3L243.8,420.7z M242.4,411.3H239v-0.8h3.3V411.3z M240.6,414.6h9.1v5.6h-9.1V414.6z M241.6,416.2h7v-1h-7
				V416.2z M241.6,417.8h7v-1h-7V417.8z M241.6,419.5h7v-1h-7V419.5z M244.9,411.4c-0.3,0.5-0.7,1-1.1,1.4c-0.2-0.2-0.6-0.4-0.8-0.5
				c0.7-0.7,1.3-1.6,1.6-2.7l0.9,0.2c-0.1,0.3-0.2,0.5-0.3,0.8h4.7l0.2,0l0.7,0.2c-0.4,0.7-0.8,1.5-1.2,2l-0.8-0.3
				c0.2-0.3,0.5-0.7,0.7-1.1h-2.2v0.2c0,0.1,0,0.3,0,0.5c0.7,0.8,2.3,1.4,4.1,1.5c-0.2,0.2-0.5,0.6-0.6,0.8
				c-1.6-0.2-2.9-0.8-3.8-1.6c-0.5,0.7-1.6,1.3-4,1.7c-0.1-0.2-0.4-0.6-0.6-0.8c3.6-0.5,4-1.4,4-2.2v-0.1H244.9z M247,420.3
				c1.5,0.5,3.1,1.1,4.1,1.5l-0.9,0.6c-0.9-0.4-2.4-1-3.9-1.6L247,420.3z"/>
			<path fill="#A7A9AC" d="M255,416.3c-0.3,1.6-0.9,3.5-1.6,4.5c-0.1-0.4-0.4-0.8-0.5-1.1c0.6-0.8,1.2-2.4,1.4-3.6L255,416.3z
				 M256.3,415.3v7.1h-1v-7.1h-2.2v-1h2.2v-4.7h1v4.7h2.3v1H256.3z M253.9,413.8c-0.1-0.8-0.4-2.1-0.8-3.1l0.8-0.2
				c0.4,1,0.7,2.2,0.8,3.1L253.9,413.8z M256.9,416.1c0.3,0.4,1.3,2.3,1.5,2.8l-0.7,0.8c-0.3-0.8-1-2.5-1.3-3.2L256.9,416.1z
				 M258.6,410.7c-0.3,1.1-0.8,2.4-1.1,3.1l-0.7-0.2c0.3-0.8,0.7-2.2,0.9-3.1L258.6,410.7z M264,418.5v3.9h-1v-3.8l-4.3,0.8l-0.2-1
				l4.5-0.8v-8h1v7.9l1.7-0.3l0.2,1L264,418.5z M261.2,416.5c-0.5-0.5-1.5-1.2-2.3-1.7l0.5-0.7c0.8,0.4,1.8,1.1,2.3,1.6L261.2,416.5
				z M261.8,413.1c-0.4-0.5-1.4-1.3-2.2-1.8l0.5-0.7c0.8,0.5,1.8,1.2,2.2,1.7L261.8,413.1z"/>
			<path fill="#A7A9AC" d="M271.8,419.7h-3v1.1h-1v-10.3h4V419.7z M268.8,411.5v3.1h2v-3.1H268.8z M270.8,418.7v-3.2h-2v3.2H270.8z
				 M276.6,412.2v1.8h3.1v0.9h-1.2v1.5h1.6v0.9h-1.6v3.8c0,0.6-0.2,0.9-0.6,1.1c-0.4,0.2-1.1,0.2-2.3,0.2c0-0.3-0.2-0.7-0.3-1
				c0.9,0,1.6,0,1.9,0s0.3-0.1,0.3-0.3v-3.7h-5.3v-0.9h5.3V415h-4.7V414h2.9v-1.8H272v-0.9h3.5v-1.7h1v1.7h3.5v0.9H276.6z
				 M273.8,417.9c0.7,0.7,1.4,1.7,1.8,2.4l-0.9,0.6c-0.3-0.7-1.1-1.7-1.8-2.5L273.8,417.9z"/>
			<path fill="#A7A9AC" d="M283.4,415v7.4h-1v-12.2h5.1v4.8H283.4z M283.4,411v1.2h3V411H283.4z M286.4,414.2V413h-3v1.2H286.4z
				 M286.4,421.1v0.7h-0.9V416h5.2v5.1H286.4z M286.4,416.8v1.3h3.3v-1.3H286.4z M289.7,420.3v-1.4h-3.3v1.4H289.7z M293.8,421
				c0,0.7-0.2,1-0.6,1.2c-0.4,0.2-1.2,0.2-2.4,0.2c0-0.3-0.2-0.8-0.4-1.1c0.9,0,1.7,0,2,0c0.2,0,0.3-0.1,0.3-0.3v-6h-4.1v-4.8h5.2
				V421z M289.7,411v1.2h3.1V411H289.7z M292.8,414.2V413h-3.1v1.2H292.8z"/>
			<path fill="#A7A9AC" d="M307.3,411.5v10.8h-1.1v-0.7h-7.5v0.8h-1v-10.9h3.5c0.2-0.6,0.4-1.4,0.5-1.9l1.2,0.2
				c-0.2,0.6-0.5,1.2-0.7,1.8H307.3z M298.8,412.5v2.1h7.5v-2.1H298.8z M298.8,415.6v2h7.5v-2H298.8z M306.2,420.7v-2.1h-7.5v2.1
				H306.2z"/>
			<path fill="#A7A9AC" d="M310.4,420.6c3.2-2.8,4.7-4.9,4.7-6.6c0-1.2-0.6-2-1.9-2c-0.8,0-1.6,0.5-2.1,1.2l-0.7-0.7
				c0.8-0.9,1.7-1.5,3-1.5c1.8,0,3,1.2,3,3c0,2-1.6,4.1-4,6.4c0.5,0,1.2-0.1,1.7-0.1h2.8v1.1h-6.5V420.6z"/>
			<path fill="#A7A9AC" d="M318.6,416.2c0-3.6,1.2-5.3,3.2-5.3c1.9,0,3.2,1.7,3.2,5.3c0,3.6-1.2,5.4-3.2,5.4
				C319.8,421.5,318.6,419.7,318.6,416.2z M323.7,416.2c0-3-0.8-4.3-1.9-4.3c-1.2,0-2,1.3-2,4.3c0,3,0.8,4.3,2,4.3
				C322.9,420.5,323.7,419.2,323.7,416.2z"/>
			<path fill="#A7A9AC" d="M327.2,420.3h2.3v-7.7h-1.8v-0.8c0.9-0.2,1.6-0.4,2.1-0.7h1v9.2h2.1v1.1h-5.6V420.3z"/>
			<path fill="#A7A9AC" d="M335.3,420.3h2.3v-7.7h-1.8v-0.8c0.9-0.2,1.6-0.4,2.1-0.7h1v9.2h2.1v1.1h-5.6V420.3z"/>
			<path fill="#A7A9AC" d="M355.5,419.2h-5.1v3.2h-1.1v-3.2h-6.5v-1h2.3v-3.8h4.2v-2.1H346c-0.6,1.1-1.4,2-2.1,2.8
				c-0.2-0.2-0.6-0.5-0.9-0.7c1.3-1.1,2.5-3,3.2-4.8l1,0.3c-0.2,0.5-0.4,1-0.6,1.5h8.3v1h-4.4v2.1h4.1v1h-4.1v2.8h5.1V419.2z
				 M349.4,418.2v-2.8h-3.1v2.8H349.4z"/>
			<path fill="#A7A9AC" d="M357.8,420.3h2.3v-7.7h-1.8v-0.8c0.9-0.2,1.6-0.4,2.1-0.7h1v9.2h2.1v1.1h-5.6V420.3z"/>
			<path fill="#A7A9AC" d="M376.2,420.9c0,0.7-0.2,1.1-0.7,1.3c-0.5,0.2-1.5,0.2-3,0.2c-0.1-0.3-0.3-0.8-0.4-1.1c1.2,0,2.3,0,2.6,0
				c0.3,0,0.4-0.1,0.4-0.4v-2.8h-6.7c-0.4,1.6-1.1,3.2-2.4,4.4c-0.1-0.2-0.6-0.6-0.8-0.8c2.2-2,2.5-4.8,2.5-7v-4.3h8.5V420.9z
				 M375.1,417v-2.4h-6.4c0,0.7,0,1.5-0.2,2.4H375.1z M368.7,411.4v2.3h6.4v-2.3H368.7z"/>
			<path fill="#A7A9AC" d="M380.3,420.3h2.3v-7.7h-1.8v-0.8c0.9-0.2,1.6-0.4,2.1-0.7h1v9.2h2.1v1.1h-5.6V420.3z"/>
			<path fill="#A7A9AC" d="M387.6,420.2l0.6-0.8c0.6,0.6,1.3,1.1,2.5,1.1c1.2,0,2.2-0.9,2.2-2.4c0-1.5-0.8-2.3-2.1-2.3
				c-0.7,0-1.1,0.2-1.7,0.6l-0.7-0.4l0.3-4.8h5v1.1h-3.9l-0.3,3c0.4-0.3,0.9-0.4,1.5-0.4c1.7,0,3.1,1,3.1,3.3c0,2.3-1.6,3.5-3.4,3.5
				C389.2,421.5,388.3,420.8,387.6,420.2z"/>
			<path fill="#A7A9AC" d="M406.9,410.6v11.6h-1.1v-0.9h-6.9v0.9h-1.1v-11.7H406.9z M398.9,411.6v3.8h6.9v-3.8H398.9z M405.8,420.3
				v-3.9h-6.9v3.9H405.8z"/>
			<path fill="#A7A9AC" d="M422.9,420.9v1h-12.4v-1h5.6v-2.6h-4.4v-1h4.4v-1.8h1.1v1.8h4.6v1h-4.6v2.6H422.9z M421.5,415.9
				c-0.2-0.3-0.5-0.6-0.9-1c-7.6,0.4-8.3,0.4-8.8,0.6c-0.1-0.2-0.2-0.8-0.3-1c0.3,0,0.6-0.3,1-0.6c0.3-0.3,1.3-1.3,2.1-2.4h-3.7v-1
				h11.7v1h-6.6c-0.8,1.1-1.7,2.1-2.6,2.9l6.5-0.3c-0.6-0.5-1.2-1-1.7-1.5l0.8-0.5c1.3,0.9,2.8,2.3,3.6,3.2L421.5,415.9z"/>
			<path fill="#A7A9AC" d="M424.6,420.6c3.2-2.8,4.7-4.9,4.7-6.6c0-1.2-0.6-2-1.9-2c-0.8,0-1.6,0.5-2.1,1.2l-0.7-0.7
				c0.8-0.9,1.7-1.5,3-1.5c1.8,0,3,1.2,3,3c0,2-1.6,4.1-4,6.4c0.5,0,1.2-0.1,1.7-0.1h2.8v1.1h-6.5V420.6z"/>
			<path fill="#A7A9AC" d="M432.8,416.2c0-3.6,1.2-5.3,3.2-5.3c1.9,0,3.2,1.7,3.2,5.3c0,3.6-1.2,5.4-3.2,5.4
				C434,421.5,432.8,419.7,432.8,416.2z M438,416.2c0-3-0.8-4.3-1.9-4.3c-1.2,0-2,1.3-2,4.3c0,3,0.8,4.3,2,4.3
				C437.2,420.5,438,419.2,438,416.2z"/>
			<path fill="#A7A9AC" d="M441.5,420.3h2.3v-7.7h-1.8v-0.8c0.9-0.2,1.6-0.4,2.1-0.7h1v9.2h2.1v1.1h-5.6V420.3z"/>
			<path fill="#A7A9AC" d="M454,412.2h-5v-1.1h6.4v0.8c-2.4,3.1-2.9,5.5-3,9.5h-1.3C451.3,417.4,452,415,454,412.2z"/>
			<path fill="#A7A9AC" d="M469.8,419.2h-5.1v3.2h-1.1v-3.2h-6.5v-1h2.3v-3.8h4.2v-2.1h-3.4c-0.6,1.1-1.4,2-2.1,2.8
				c-0.2-0.2-0.6-0.5-0.9-0.7c1.3-1.1,2.5-3,3.2-4.8l1.1,0.3c-0.2,0.5-0.4,1-0.6,1.5h8.3v1h-4.4v2.1h4.1v1h-4.1v2.8h5.1V419.2z
				 M463.7,418.2v-2.8h-3.1v2.8H463.7z"/>
			<path fill="#A7A9AC" d="M476.5,412.2h-5v-1.1h6.4v0.8c-2.4,3.1-2.9,5.5-3,9.5h-1.3C473.8,417.4,474.5,415,476.5,412.2z"/>
			<path fill="#A7A9AC" d="M490.4,420.9c0,0.7-0.2,1.1-0.7,1.3c-0.5,0.2-1.5,0.2-3,0.2c-0.1-0.3-0.3-0.8-0.4-1.1c1.2,0,2.3,0,2.6,0
				c0.3,0,0.4-0.1,0.4-0.4v-2.8h-6.7c-0.4,1.6-1.1,3.2-2.4,4.4c-0.1-0.2-0.6-0.6-0.8-0.8c2.2-2,2.5-4.8,2.5-7v-4.3h8.5V420.9z
				 M489.3,417v-2.4h-6.4c0,0.7,0,1.5-0.2,2.4H489.3z M482.9,411.4v2.3h6.4v-2.3H482.9z"/>
			<path fill="#A7A9AC" d="M494.5,420.3h2.3v-7.7H495v-0.8c0.9-0.2,1.6-0.4,2.1-0.7h1v9.2h2.1v1.1h-5.6V420.3z"/>
			<path fill="#A7A9AC" d="M501.8,420.2l0.6-0.8c0.6,0.6,1.3,1.1,2.5,1.1c1.2,0,2.2-0.9,2.2-2.4c0-1.5-0.8-2.3-2.1-2.3
				c-0.7,0-1.1,0.2-1.7,0.6l-0.7-0.4l0.3-4.8h5v1.1h-3.9l-0.3,3c0.4-0.3,0.9-0.4,1.5-0.4c1.7,0,3.1,1,3.1,3.3c0,2.3-1.6,3.5-3.4,3.5
				C503.5,421.5,502.5,420.8,501.8,420.2z"/>
			<path fill="#A7A9AC" d="M521.1,410.6v11.6H520v-0.9h-6.9v0.9h-1.1v-11.7H521.1z M513.1,411.6v3.8h6.9v-3.8H513.1z M520,420.3
				v-3.9h-6.9v3.9H520z"/>
			<path fill="#A7A9AC" d="M527.4,413.9c1.2,0,2.1,1,2.1,2.1c0,1.2-1,2.1-2.1,2.1c-1.2,0-2.1-1-2.1-2.1
				C525.3,414.8,526.3,413.9,527.4,413.9z M527.4,417.4c0.8,0,1.4-0.6,1.4-1.4c0-0.8-0.6-1.4-1.4-1.4c-0.8,0-1.4,0.6-1.4,1.4
				C526,416.8,526.7,417.4,527.4,417.4z"/>
		</g>
	</g>
	<g>
		<path fill="none" stroke="#D9D9D9" stroke-width="0.72" stroke-linejoin="round" stroke-miterlimit="10" d="M24.2,27.7h731.2
			 M24.2,83.9h731.2 M24.2,140h731.2 M24.2,196.4h731.2 M24.2,252.6h731.2"/>
		
			<line fill="none" stroke="#7F7F7F" stroke-width="0.72" stroke-linejoin="round" stroke-miterlimit="10" x1="24.2" y1="308.8" x2="755.4" y2="308.8"/>
		<g>
			
				<line fill="none" stroke="#7F7F7F" stroke-width="0.72" stroke-linejoin="round" stroke-miterlimit="10" x1="579.4" y1="314.3" x2="579.4" y2="309.8"/>
			
				<line fill="none" stroke="#7F7F7F" stroke-width="0.72" stroke-linejoin="round" stroke-miterlimit="10" x1="523.9" y1="314.3" x2="523.9" y2="309.8"/>
			
				<line fill="none" stroke="#7F7F7F" stroke-width="0.72" stroke-linejoin="round" stroke-miterlimit="10" x1="468.4" y1="314.3" x2="468.4" y2="309.8"/>
			
				<line fill="none" stroke="#7F7F7F" stroke-width="0.72" stroke-linejoin="round" stroke-miterlimit="10" x1="746" y1="314.3" x2="746" y2="309.8"/>
			
				<line fill="none" stroke="#7F7F7F" stroke-width="0.72" stroke-linejoin="round" stroke-miterlimit="10" x1="413" y1="314.3" x2="413" y2="309.8"/>
			
				<line fill="none" stroke="#7F7F7F" stroke-width="0.72" stroke-linejoin="round" stroke-miterlimit="10" x1="690.6" y1="314.3" x2="690.6" y2="309.8"/>
			
				<line fill="none" stroke="#7F7F7F" stroke-width="0.72" stroke-linejoin="round" stroke-miterlimit="10" x1="635.1" y1="314.3" x2="635.1" y2="309.8"/>
			
				<line fill="none" stroke="#7F7F7F" stroke-width="0.72" stroke-linejoin="round" stroke-miterlimit="10" x1="24.2" y1="314.3" x2="24.2" y2="309.8"/>
			
				<line fill="none" stroke="#7F7F7F" stroke-width="0.72" stroke-linejoin="round" stroke-miterlimit="10" x1="135.1" y1="314.3" x2="135.1" y2="309.8"/>
			
				<line fill="none" stroke="#7F7F7F" stroke-width="0.72" stroke-linejoin="round" stroke-miterlimit="10" x1="79.6" y1="314.3" x2="79.6" y2="309.8"/>
			
				<line fill="none" stroke="#7F7F7F" stroke-width="0.72" stroke-linejoin="round" stroke-miterlimit="10" x1="190.6" y1="314.3" x2="190.6" y2="309.8"/>
			
				<line fill="none" stroke="#7F7F7F" stroke-width="0.72" stroke-linejoin="round" stroke-miterlimit="10" x1="357.2" y1="314.3" x2="357.2" y2="309.8"/>
			
				<line fill="none" stroke="#7F7F7F" stroke-width="0.72" stroke-linejoin="round" stroke-miterlimit="10" x1="301.8" y1="314.3" x2="301.8" y2="309.8"/>
			
				<line fill="none" stroke="#7F7F7F" stroke-width="0.72" stroke-linejoin="round" stroke-miterlimit="10" x1="246.3" y1="314.3" x2="246.3" y2="309.8"/>
		</g>
		
			<polyline fill="none" stroke="#002A5E" stroke-width="1.44" stroke-linecap="round" stroke-linejoin="round" stroke-miterlimit="10" points="
			28.7,61.4 38,48 47.1,54.7 56.4,52.3 65.8,74.9 75.1,103 84.2,127.7 93.5,132.2 102.8,150.2 111.9,179.5 121.2,174 130.6,159.4 
			139.9,135.6 149,148.1 158.3,150.2 167.6,177.4 176.7,185 186,180.7 195.4,179.5 204.7,181.7 213.8,184.1 223.1,188.6 
			232.4,179.5 241.5,171.6 250.8,156 260.2,163.7 269.5,179.5 278.6,175 287.9,166.1 297.2,154.8 306.3,134.6 315.6,123.4 
			325,115.4 334.3,118.8 343.4,121 352.7,116.6 362,107.5 371.1,103 380.4,105.4 389.8,95.3 399.1,100.8 408.2,108.7 417.5,97.4 
			426.8,112.1 435.9,117.6 445.2,116.6 454.6,127.7 463.9,124.3 473,110.9 482.3,103 491.6,95.3 500.7,96.2 510,99.6 519.4,92.9 
			528.7,96.2 537.8,91.7 547.1,99.6 556.4,96.2 565.5,92.9 574.8,91.7 584.2,99.6 593.5,106.3 602.6,105.4 611.9,106.3 621.2,105.4 
			630.3,105.4 639.6,104.2 649,107.5 658.3,110.9 667.4,103 676.7,96.2 686,90.7 695.1,90.7 704.4,72.7 713.8,68.2 723.1,63.6 
			732.2,63.6 741.5,69.4 750.8,76.1 		"/>
		
			<polyline fill="none" stroke="#0C56AB" stroke-width="1.44" stroke-linecap="round" stroke-linejoin="round" stroke-miterlimit="10" points="
			28.7,13 38,17.5 47.1,23.3 56.4,36.7 65.8,60.2 75.1,69.4 84.2,112.1 93.5,125.5 102.8,134.6 111.9,136.8 121.2,146.9 
			130.6,125.5 139.9,96.2 149,104.2 158.3,122.2 167.6,134.6 176.7,148.1 186,161.5 195.4,168.2 204.7,174 213.8,149 223.1,166.1 
			232.4,149 241.5,136.8 250.8,90.7 260.2,103 269.5,133.4 278.6,149 287.9,138 297.2,135.6 306.3,116.6 315.6,100.8 325,104.2 
			334.3,104.2 343.4,79.4 352.7,84 362,78.2 371.1,68.2 380.4,91.7 389.8,71.5 399.1,77.3 408.2,95.3 417.5,76.1 426.8,98.6 
			435.9,94.1 445.2,96.2 454.6,121 463.9,117.6 473,100.8 482.3,97.4 491.6,79.4 500.7,94.1 510,110.9 519.4,98.6 528.7,98.6 
			537.8,84 547.1,94.1 556.4,92.9 565.5,81.6 574.8,78.2 584.2,89.5 593.5,94.1 602.6,95.3 611.9,99.6 621.2,89.5 630.3,90.7 
			639.6,80.6 649,103 658.3,108.7 667.4,82.8 676.7,84 686,81.6 695.1,86.2 704.4,71.5 713.8,60.2 723.1,64.8 732.2,56.9 
			741.5,68.2 750.8,87.4 		"/>
		
			<polyline fill="none" stroke="#73B564" stroke-width="1.44" stroke-linecap="round" stroke-linejoin="round" stroke-miterlimit="10" points="
			28.7,55.7 38,38.9 47.1,37.9 56.4,0.7 65.8,24.2 75.1,85 84.2,104.2 93.5,98.6 102.8,138 111.9,189.6 121.2,153.6 130.6,140.2 
			139.9,126.7 149,138 158.3,154.8 167.6,186.2 176.7,200.9 186,170.6 195.4,163.7 204.7,162.7 213.8,216.7 223.1,213.4 
			232.4,204.2 241.5,200.9 250.8,222.2 260.2,217.7 269.5,231.4 278.6,204.2 287.9,200.9 297.2,169.4 306.3,150.2 315.6,153.6 
			325,134.6 334.3,134.6 343.4,162.7 352.7,170.6 362,152.6 371.1,163.7 380.4,120 389.8,133.4 399.1,148.1 408.2,161.5 
			417.5,146.9 426.8,145.7 435.9,158.2 445.2,160.3 454.6,163.7 463.9,143.5 473,148.1 482.3,115.4 491.6,123.4 500.7,133.4 
			510,117.6 519.4,103 528.7,123.4 537.8,138 547.1,118.8 556.4,110.9 565.5,128.9 574.8,139 584.2,138 593.5,148.1 602.6,140.2 
			611.9,138 621.2,130.1 630.3,144.7 639.6,139 649,118.8 658.3,109.7 667.4,122.2 676.7,124.3 686,105.4 695.1,94.1 704.4,73.7 
			713.8,63.6 723.1,66 732.2,62.6 741.5,66 750.8,77.3 		"/>
		
			<polyline fill="none" stroke="#7F58A5" stroke-width="1.44" stroke-linecap="round" stroke-linejoin="round" stroke-miterlimit="10" points="
			28.7,140.2 38,121 47.1,141.4 56.4,131 65.8,136.8 75.1,149 84.2,184.1 93.5,196.3 102.8,208.8 111.9,233.5 121.2,272.9 
			130.6,229 139.9,185 149,220.1 158.3,185 167.6,230.2 176.7,239 186,230.2 195.4,217.7 204.7,214.3 213.8,239 223.1,235.7 
			232.4,214.3 241.5,208.8 250.8,179.5 260.2,193 269.5,198.7 278.6,207.6 287.9,171.6 297.2,161.5 306.3,156 315.6,131 325,144.7 
			334.3,139 343.4,131 352.7,96.2 362,86.2 371.1,97.4 380.4,92.9 389.8,69.4 399.1,77.3 408.2,81.6 417.5,76.1 426.8,62.6 
			435.9,80.6 445.2,78.2 454.6,97.4 463.9,91.7 473,62.6 482.3,72.7 491.6,62.6 500.7,37.9 510,46.8 519.4,74.9 528.7,46.8 
			537.8,41.3 547.1,88.3 556.4,84 565.5,70.3 574.8,81.6 584.2,80.6 593.5,89.5 602.6,82.8 611.9,81.6 621.2,86.2 630.3,76.1 
			639.6,98.6 649,86.2 658.3,94.1 667.4,90.7 676.7,81.6 686,78.2 695.1,87.4 704.4,61.4 713.8,63.6 723.1,58.1 732.2,59.3 
			741.5,53.5 750.8,64.8 		"/>
		<g>
			<g>
				<path fill="#231F20" d="M2.5,306.7l2.7-2.4H0.7v-1.6h6.8v1.5l-2.7,2.3c1.5,0,2.9,1.1,2.9,3c0,1.7-1.3,3.2-3.7,3.2
					c-2.3,0-3.6-1.5-3.7-3.1l1.8-0.4c0,1.1,0.9,1.9,2,1.9c1.2,0,1.9-0.8,1.9-1.7c0-1.1-0.9-1.6-1.7-1.6c-0.5,0-0.8,0.1-0.9,0.2
					L2.5,306.7z"/>
				<path fill="#231F20" d="M10.9,309.3c0.1,1,0.8,1.8,2,1.8c1,0,1.9-0.7,1.9-1.8c0-1.2-0.9-1.8-1.9-1.8c-0.7,0-1.3,0.3-1.6,0.7
					l-1.7-0.6l1.2-5h5.4v1.6H12l-0.6,2.5c0.4-0.4,1.2-0.7,1.9-0.7c2,0,3.4,1.2,3.4,3.3c0,1.8-1.4,3.4-3.7,3.4c-2.1,0-3.6-1.4-3.7-3
					L10.9,309.3z"/>
			</g>
		</g>
		<g>
			<g>
				<path fill="#231F20" d="M0.5,252.1l4.2-5.7H7v6.1h1.7v1.6H7v2.2H5.2v-2.2H0.5V252.1z M5.2,248.3l-3.1,4.2h3.1V248.3z"/>
				<path fill="#231F20" d="M10.8,247.8c0.6-1,1.7-1.6,3.1-1.6s2.5,0.7,3.1,1.6c0.7,1,0.9,2.2,0.9,3.5s-0.2,2.5-0.9,3.5
					c-0.6,1-1.7,1.6-3.1,1.6s-2.5-0.7-3.1-1.6c-0.7-1-0.9-2.2-0.9-3.5S10.2,248.8,10.8,247.8z M12.5,254.1c0.3,0.4,0.8,0.7,1.5,0.7
					s1.2-0.3,1.5-0.7c0.5-0.6,0.7-1.6,0.7-2.8c0-1.2-0.2-2.2-0.7-2.8c-0.3-0.4-0.8-0.7-1.5-0.7s-1.2,0.3-1.5,0.7
					c-0.5,0.6-0.7,1.6-0.7,2.8C11.8,252.6,12,253.5,12.5,254.1z"/>
			</g>
		</g>
		<g>
			<g>
				<path fill="#231F20" d="M0.5,195.9l4.2-5.7H7v6.1h1.7v1.6H7v2.2H5.2v-2.2H0.5V195.9z M5.2,192l-3.1,4.2h3.1V192z"/>
				<path fill="#231F20" d="M11.5,196.8c0.1,1,0.8,1.8,2,1.8c1,0,1.9-0.7,1.9-1.8c0-1.2-0.9-1.8-1.9-1.8c-0.7,0-1.3,0.3-1.6,0.7
					l-1.7-0.6l1.2-5h5.4v1.6h-4.2l-0.6,2.5c0.4-0.4,1.2-0.7,1.9-0.7c2,0,3.4,1.2,3.4,3.3c0,1.8-1.4,3.4-3.7,3.4
					c-2.1,0-3.6-1.4-3.7-3L11.5,196.8z"/>
			</g>
		</g>
		<g>
			<g>
				<path fill="#231F20" d="M2.2,140.6c0.1,1,0.8,1.8,2,1.8c1,0,1.9-0.7,1.9-1.8c0-1.2-0.9-1.8-1.9-1.8c-0.7,0-1.3,0.3-1.6,0.7
					l-1.7-0.6l1.2-5h5.4v1.6H3.2L2.6,138c0.4-0.4,1.2-0.7,1.9-0.7c2,0,3.4,1.2,3.4,3.3c0,1.9-1.4,3.4-3.7,3.4c-2.1,0-3.6-1.4-3.7-3
					L2.2,140.6z"/>
				<path fill="#231F20" d="M10.3,135.3c0.6-1,1.7-1.6,3.1-1.6s2.5,0.7,3.1,1.6c0.7,1,0.9,2.2,0.9,3.5c0,1.3-0.2,2.5-0.9,3.5
					c-0.6,1-1.7,1.6-3.1,1.6s-2.5-0.7-3.1-1.6c-0.7-1-0.9-2.2-0.9-3.5C9.4,137.5,9.6,136.3,10.3,135.3z M11.9,141.6
					c0.3,0.4,0.8,0.7,1.5,0.7s1.2-0.3,1.5-0.7c0.5-0.6,0.7-1.6,0.7-2.8c0-1.2-0.2-2.2-0.7-2.8c-0.3-0.4-0.8-0.7-1.5-0.7
					s-1.2,0.3-1.5,0.7c-0.5,0.6-0.7,1.6-0.7,2.8C11.2,140,11.4,141,11.9,141.6z"/>
			</g>
		</g>
		<g>
			<g>
				<path fill="#231F20" d="M2.2,84.3c0.1,1,0.8,1.8,2,1.8c1,0,1.9-0.7,1.9-1.8c0-1.2-0.9-1.8-1.9-1.8c-0.7,0-1.3,0.3-1.6,0.7
					l-1.7-0.6l1.2-5h5.4v1.6H3.2l-0.6,2.5C3.1,81.3,3.8,81,4.5,81c2,0,3.4,1.2,3.4,3.3c0,1.9-1.4,3.4-3.7,3.4c-2.1,0-3.6-1.4-3.7-3
					L2.2,84.3z"/>
				<path fill="#231F20" d="M10.9,84.3c0.1,1,0.8,1.8,2,1.8c1,0,1.9-0.7,1.9-1.8c0-1.2-0.9-1.8-1.9-1.8c-0.7,0-1.3,0.3-1.6,0.7
					l-1.7-0.6l1.2-5h5.4v1.6H12l-0.6,2.5c0.4-0.4,1.2-0.7,1.9-0.7c2,0,3.4,1.2,3.4,3.3c0,1.9-1.4,3.4-3.7,3.4c-2.1,0-3.6-1.4-3.7-3
					L10.9,84.3z"/>
			</g>
		</g>
		<g>
			<g>
				<path fill="#231F20" d="M7.6,23.1c-0.4-0.2-0.9-0.4-1.7-0.4c-1.9,0-3.2,1.2-3.4,3.1C3,25.1,4,24.7,5,24.7c2,0,3.3,1.3,3.3,3.3
					c0,2-1.7,3.4-3.7,3.4c-2.5,0-3.9-2-3.9-4.6c0-3.6,2.2-5.7,5.3-5.7c0.9,0,1.7,0.2,2.1,0.5L7.6,23.1z M4.6,29.9
					c1,0,1.9-0.7,1.9-1.8c0-1.2-0.9-1.8-1.9-1.8S2.7,26.9,2.7,28C2.7,29.1,3.6,29.9,4.6,29.9z"/>
				<path fill="#231F20" d="M10.8,22.7c0.6-1,1.7-1.6,3.1-1.6s2.5,0.7,3.1,1.6c0.7,1,0.9,2.2,0.9,3.5s-0.2,2.5-0.9,3.5
					c-0.6,1-1.7,1.6-3.1,1.6s-2.5-0.7-3.1-1.6c-0.7-1-0.9-2.2-0.9-3.5S10.1,23.7,10.8,22.7z M12.4,29.1c0.3,0.4,0.8,0.7,1.5,0.7
					s1.2-0.3,1.5-0.7c0.5-0.6,0.7-1.6,0.7-2.8c0-1.2-0.2-2.2-0.7-2.8c-0.3-0.4-0.8-0.7-1.5-0.7s-1.2,0.3-1.5,0.7
					c-0.5,0.6-0.7,1.6-0.7,2.8C11.7,27.5,11.9,28.5,12.4,29.1z"/>
			</g>
		</g>
		<g>
			<g>
				<path fill="#231F20" d="M12.4,324.9c0-0.1,0-0.4,0-0.6c0-1.7,1.3-3.2,3.5-3.2c2.2,0,3.5,1.4,3.5,3.1c0,1.3-0.7,2.3-1.9,3
					l-1.9,1.2c-0.5,0.3-0.9,0.6-1,1.1h4.9v1.6h-7.1c0-1.7,0.6-3,2.3-4.1l1.6-1c0.9-0.5,1.3-1.1,1.3-1.9c0-0.8-0.5-1.5-1.7-1.5
					c-1.2,0-1.7,0.8-1.7,1.8c0,0.2,0,0.3,0,0.5L12.4,324.9z"/>
				<path fill="#231F20" d="M21.8,322.7c0.6-1,1.7-1.6,3.1-1.6s2.5,0.7,3.1,1.6c0.7,1,0.9,2.2,0.9,3.5s-0.2,2.5-0.9,3.5
					c-0.6,1-1.7,1.6-3.1,1.6s-2.5-0.7-3.1-1.6c-0.7-1-0.9-2.2-0.9-3.5S21.2,323.7,21.8,322.7z M23.5,329.1c0.3,0.4,0.8,0.7,1.5,0.7
					s1.2-0.3,1.5-0.7c0.5-0.6,0.7-1.6,0.7-2.8c0-1.2-0.2-2.2-0.7-2.8c-0.3-0.4-0.8-0.7-1.5-0.7s-1.2,0.3-1.5,0.7
					c-0.5,0.6-0.7,1.6-0.7,2.8C22.8,327.5,23,328.5,23.5,329.1z"/>
				<path fill="#231F20" d="M32.7,331.2v-6.7h-2.4v-1.2c1.4,0,2.4-0.8,2.6-1.9h1.6v9.8H32.7z"/>
				<path fill="#231F20" d="M38.8,331.2v-6.7h-2.4v-1.2c1.4,0,2.4-0.8,2.6-1.9h1.6v9.8H38.8z"/>
			</g>
		</g>
		<g>
			<g>
				<path fill="#231F20" d="M65.3,324.9c0-0.1,0-0.4,0-0.6c0-1.7,1.3-3.2,3.5-3.2c2.2,0,3.5,1.4,3.5,3.1c0,1.3-0.7,2.3-1.9,3
					l-1.9,1.2c-0.5,0.3-0.9,0.6-1,1.1h4.9v1.6h-7.1c0-1.7,0.6-3,2.3-4.1l1.6-1c0.9-0.5,1.3-1.1,1.3-1.9c0-0.8-0.5-1.5-1.7-1.5
					c-1.2,0-1.7,0.8-1.7,1.8c0,0.2,0,0.3,0,0.5L65.3,324.9z"/>
				<path fill="#231F20" d="M74.7,322.7c0.6-1,1.7-1.6,3.1-1.6s2.5,0.7,3.1,1.6c0.7,1,0.9,2.2,0.9,3.5s-0.2,2.5-0.9,3.5
					c-0.6,1-1.7,1.6-3.1,1.6s-2.5-0.7-3.1-1.6c-0.7-1-0.9-2.2-0.9-3.5S74,323.7,74.7,322.7z M76.3,329.1c0.3,0.4,0.8,0.7,1.5,0.7
					s1.2-0.3,1.5-0.7c0.5-0.6,0.7-1.6,0.7-2.8c0-1.2-0.2-2.2-0.7-2.8c-0.3-0.4-0.8-0.7-1.5-0.7s-1.2,0.3-1.5,0.7
					c-0.5,0.6-0.7,1.6-0.7,2.8C75.6,327.5,75.9,328.5,76.3,329.1z"/>
				<path fill="#231F20" d="M85.6,331.2v-6.7h-2.4v-1.2c1.4,0,2.4-0.8,2.6-1.9h1.6v9.8H85.6z"/>
				<path fill="#231F20" d="M91.7,331.2v-6.7h-2.4v-1.2c1.4,0,2.4-0.8,2.6-1.9h1.6v9.8H91.7z"/>
			</g>
		</g>
		<g>
			<g>
				<path fill="#231F20" d="M15,351.7h-1.6l5.3-10.9h1.6L15,351.7z"/>
				<path fill="#231F20" d="M26.3,343.2c0.6-1,1.7-1.6,3.1-1.6s2.5,0.7,3.1,1.6c0.7,1,0.9,2.2,0.9,3.5s-0.2,2.5-0.9,3.5
					c-0.6,1-1.7,1.6-3.1,1.6s-2.5-0.7-3.1-1.6c-0.7-1-0.9-2.2-0.9-3.5S25.7,344.2,26.3,343.2z M28,349.5c0.3,0.4,0.8,0.7,1.5,0.7
					s1.2-0.3,1.5-0.7c0.5-0.6,0.7-1.6,0.7-2.8s-0.2-2.2-0.7-2.8c-0.3-0.4-0.8-0.7-1.5-0.7s-1.2,0.3-1.5,0.7
					c-0.5,0.6-0.7,1.6-0.7,2.8S27.5,348.9,28,349.5z"/>
				<path fill="#231F20" d="M37.2,351.6v-6.7h-2.4v-1.2c1.4,0,2.4-0.8,2.6-1.9H39v9.8H37.2z"/>
			</g>
		</g>
		<g>
			<g>
				<path fill="#231F20" d="M66.9,351.7h-1.6l5.3-10.9h1.6L66.9,351.7z"/>
				<path fill="#231F20" d="M78.3,343.2c0.6-1,1.7-1.6,3.1-1.6s2.5,0.7,3.1,1.6c0.7,1,0.9,2.2,0.9,3.5s-0.2,2.5-0.9,3.5
					c-0.6,1-1.7,1.6-3.1,1.6s-2.5-0.7-3.1-1.6c-0.7-1-0.9-2.2-0.9-3.5S77.6,344.2,78.3,343.2z M79.9,349.5c0.3,0.4,0.8,0.7,1.5,0.7
					s1.2-0.3,1.5-0.7c0.5-0.6,0.7-1.6,0.7-2.8s-0.2-2.2-0.7-2.8c-0.3-0.4-0.8-0.7-1.5-0.7s-1.2,0.3-1.5,0.7
					c-0.5,0.6-0.7,1.6-0.7,2.8S79.4,348.9,79.9,349.5z"/>
				<path fill="#231F20" d="M93.9,343.4c-0.8,0.7-3.6,3.2-4,8.2H88c0.4-5.5,3.9-8.2,3.9-8.2h-5.3v-1.6h7.3V343.4z"/>
			</g>
		</g>
		<g>
			<g>
				<path fill="#231F20" d="M122,351.7h-1.6l5.3-10.9h1.6L122,351.7z"/>
				<path fill="#231F20" d="M133.4,343.2c0.6-1,1.7-1.6,3.1-1.6s2.5,0.7,3.1,1.6c0.7,1,0.9,2.2,0.9,3.5s-0.2,2.5-0.9,3.5
					c-0.6,1-1.7,1.6-3.1,1.6s-2.5-0.7-3.1-1.6c-0.7-1-0.9-2.2-0.9-3.5S132.7,344.2,133.4,343.2z M135,349.5c0.3,0.4,0.8,0.7,1.5,0.7
					s1.2-0.3,1.5-0.7c0.5-0.6,0.7-1.6,0.7-2.8s-0.2-2.2-0.7-2.8c-0.3-0.4-0.8-0.7-1.5-0.7s-1.2,0.3-1.5,0.7
					c-0.5,0.6-0.7,1.6-0.7,2.8S134.5,348.9,135,349.5z"/>
				<path fill="#231F20" d="M144.3,351.6v-6.7h-2.4v-1.2c1.4,0,2.4-0.8,2.6-1.9h1.6v9.8H144.3z"/>
			</g>
		</g>
		<g>
			<g>
				<path fill="#231F20" d="M176.5,351.7h-1.6l5.3-10.9h1.6L176.5,351.7z"/>
				<path fill="#231F20" d="M187.9,343.2c0.6-1,1.7-1.6,3.1-1.6s2.5,0.7,3.1,1.6c0.7,1,0.9,2.2,0.9,3.5s-0.2,2.5-0.9,3.5
					c-0.6,1-1.7,1.6-3.1,1.6s-2.5-0.7-3.1-1.6c-0.7-1-0.9-2.2-0.9-3.5S187.2,344.2,187.9,343.2z M189.5,349.5
					c0.3,0.4,0.8,0.7,1.5,0.7s1.2-0.3,1.5-0.7c0.5-0.6,0.7-1.6,0.7-2.8s-0.2-2.2-0.7-2.8c-0.3-0.4-0.8-0.7-1.5-0.7s-1.2,0.3-1.5,0.7
					c-0.5,0.6-0.7,1.6-0.7,2.8S189,348.9,189.5,349.5z"/>
				<path fill="#231F20" d="M203.5,343.4c-0.8,0.7-3.6,3.2-4,8.2h-1.9c0.4-5.5,3.9-8.2,3.9-8.2h-5.3v-1.6h7.3V343.4z"/>
			</g>
		</g>
		<g>
			<g>
				<path fill="#231F20" d="M233,351.7h-1.6l5.3-10.9h1.6L233,351.7z"/>
				<path fill="#231F20" d="M244.3,343.2c0.6-1,1.7-1.6,3.1-1.6s2.5,0.7,3.1,1.6c0.7,1,0.9,2.2,0.9,3.5s-0.2,2.5-0.9,3.5
					c-0.6,1-1.7,1.6-3.1,1.6s-2.5-0.7-3.1-1.6c-0.7-1-0.9-2.2-0.9-3.5S243.7,344.2,244.3,343.2z M246,349.5c0.3,0.4,0.8,0.7,1.5,0.7
					s1.2-0.3,1.5-0.7c0.5-0.6,0.7-1.6,0.7-2.8s-0.2-2.2-0.7-2.8c-0.3-0.4-0.8-0.7-1.5-0.7s-1.2,0.3-1.5,0.7
					c-0.5,0.6-0.7,1.6-0.7,2.8S245.5,348.9,246,349.5z"/>
				<path fill="#231F20" d="M255.2,351.6v-6.7h-2.4v-1.2c1.4,0,2.4-0.8,2.6-1.9h1.6v9.8H255.2z"/>
			</g>
		</g>
		<g>
			<g>
				<path fill="#231F20" d="M287.6,351.7H286l5.3-10.9h1.6L287.6,351.7z"/>
				<path fill="#231F20" d="M299,343.2c0.6-1,1.7-1.6,3.1-1.6c1.5,0,2.5,0.7,3.1,1.6c0.7,1,0.9,2.2,0.9,3.5s-0.2,2.5-0.9,3.5
					c-0.6,1-1.7,1.6-3.1,1.6c-1.5,0-2.5-0.7-3.1-1.6c-0.7-1-0.9-2.2-0.9-3.5S298.3,344.2,299,343.2z M300.6,349.5
					c0.3,0.4,0.8,0.7,1.5,0.7s1.2-0.3,1.5-0.7c0.5-0.6,0.7-1.6,0.7-2.8s-0.2-2.2-0.7-2.8c-0.3-0.4-0.8-0.7-1.5-0.7s-1.2,0.3-1.5,0.7
					c-0.5,0.6-0.7,1.6-0.7,2.8S300.1,348.9,300.6,349.5z"/>
				<path fill="#231F20" d="M314.6,343.4c-0.8,0.7-3.6,3.2-4,8.2h-1.9c0.4-5.5,3.9-8.2,3.9-8.2h-5.3v-1.6h7.3V343.4z"/>
			</g>
		</g>
		<g>
			<g>
				<path fill="#231F20" d="M344.4,351.7h-1.6l5.3-10.9h1.6L344.4,351.7z"/>
				<path fill="#231F20" d="M355.8,343.2c0.6-1,1.7-1.6,3.1-1.6c1.5,0,2.5,0.7,3.1,1.6c0.7,1,0.9,2.2,0.9,3.5s-0.2,2.5-0.9,3.5
					c-0.6,1-1.7,1.6-3.1,1.6c-1.5,0-2.5-0.7-3.1-1.6c-0.7-1-0.9-2.2-0.9-3.5S355.1,344.2,355.8,343.2z M357.4,349.5
					c0.3,0.4,0.8,0.7,1.5,0.7s1.2-0.3,1.5-0.7c0.5-0.6,0.7-1.6,0.7-2.8s-0.2-2.2-0.7-2.8c-0.3-0.4-0.8-0.7-1.5-0.7s-1.2,0.3-1.5,0.7
					c-0.5,0.6-0.7,1.6-0.7,2.8S356.9,348.9,357.4,349.5z"/>
				<path fill="#231F20" d="M366.7,351.6v-6.7h-2.4v-1.2c1.4,0,2.4-0.8,2.6-1.9h1.6v9.8H366.7z"/>
			</g>
		</g>
		<g>
			<g>
				<path fill="#231F20" d="M401.2,351.7h-1.6l5.3-10.9h1.6L401.2,351.7z"/>
				<path fill="#231F20" d="M412.6,343.2c0.6-1,1.7-1.6,3.1-1.6c1.5,0,2.5,0.7,3.1,1.6c0.7,1,0.9,2.2,0.9,3.5s-0.2,2.5-0.9,3.5
					c-0.6,1-1.7,1.6-3.1,1.6c-1.5,0-2.5-0.7-3.1-1.6c-0.7-1-0.9-2.2-0.9-3.5S411.9,344.2,412.6,343.2z M414.2,349.5
					c0.3,0.4,0.8,0.7,1.5,0.7s1.2-0.3,1.5-0.7c0.5-0.6,0.7-1.6,0.7-2.8s-0.2-2.2-0.7-2.8c-0.3-0.4-0.8-0.7-1.5-0.7s-1.2,0.3-1.5,0.7
					c-0.5,0.6-0.7,1.6-0.7,2.8S413.8,348.9,414.2,349.5z"/>
				<path fill="#231F20" d="M428.2,343.4c-0.8,0.7-3.6,3.2-4,8.2h-1.9c0.4-5.5,3.9-8.2,3.9-8.2h-5.3v-1.6h7.3V343.4z"/>
			</g>
		</g>
		<g>
			<g>
				<path fill="#231F20" d="M457.5,351.7h-1.6l5.3-10.9h1.6L457.5,351.7z"/>
				<path fill="#231F20" d="M468.9,343.2c0.6-1,1.7-1.6,3.1-1.6c1.5,0,2.5,0.7,3.1,1.6c0.7,1,0.9,2.2,0.9,3.5s-0.2,2.5-0.9,3.5
					c-0.6,1-1.7,1.6-3.1,1.6c-1.5,0-2.5-0.7-3.1-1.6c-0.7-1-0.9-2.2-0.9-3.5S468.2,344.2,468.9,343.2z M470.5,349.5
					c0.3,0.4,0.8,0.7,1.5,0.7s1.2-0.3,1.5-0.7c0.5-0.6,0.7-1.6,0.7-2.8s-0.2-2.2-0.7-2.8c-0.3-0.4-0.8-0.7-1.5-0.7s-1.2,0.3-1.5,0.7
					c-0.5,0.6-0.7,1.6-0.7,2.8S470,348.9,470.5,349.5z"/>
				<path fill="#231F20" d="M479.8,351.6v-6.7h-2.4v-1.2c1.4,0,2.4-0.8,2.6-1.9h1.6v9.8H479.8z"/>
			</g>
		</g>
		<g>
			<g>
				<path fill="#231F20" d="M510.9,351.7h-1.6l5.3-10.9h1.6L510.9,351.7z"/>
				<path fill="#231F20" d="M522.3,343.2c0.6-1,1.7-1.6,3.1-1.6c1.5,0,2.5,0.7,3.1,1.6c0.7,1,0.9,2.2,0.9,3.5s-0.2,2.5-0.9,3.5
					c-0.6,1-1.7,1.6-3.1,1.6c-1.5,0-2.5-0.7-3.1-1.6c-0.7-1-0.9-2.2-0.9-3.5S521.6,344.2,522.3,343.2z M523.9,349.5
					c0.3,0.4,0.8,0.7,1.5,0.7s1.2-0.3,1.5-0.7c0.5-0.6,0.7-1.6,0.7-2.8s-0.2-2.2-0.7-2.8c-0.3-0.4-0.8-0.7-1.5-0.7s-1.2,0.3-1.5,0.7
					c-0.5,0.6-0.7,1.6-0.7,2.8S523.5,348.9,523.9,349.5z"/>
				<path fill="#231F20" d="M537.9,343.4c-0.8,0.7-3.6,3.2-4,8.2H532c0.4-5.5,3.9-8.2,3.9-8.2h-5.3v-1.6h7.3V343.4z"/>
			</g>
		</g>
		<g>
			<g>
				<path fill="#231F20" d="M567.7,351.7h-1.6l5.3-10.9h1.6L567.7,351.7z"/>
				<path fill="#231F20" d="M579.1,343.2c0.6-1,1.7-1.6,3.1-1.6s2.5,0.7,3.1,1.6c0.7,1,0.9,2.2,0.9,3.5s-0.2,2.5-0.9,3.5
					c-0.6,1-1.7,1.6-3.1,1.6s-2.5-0.7-3.1-1.6c-0.7-1-0.9-2.2-0.9-3.5S578.4,344.2,579.1,343.2z M580.7,349.5
					c0.3,0.4,0.8,0.7,1.5,0.7s1.2-0.3,1.5-0.7c0.5-0.6,0.7-1.6,0.7-2.8s-0.2-2.2-0.7-2.8c-0.3-0.4-0.8-0.7-1.5-0.7s-1.2,0.3-1.5,0.7
					c-0.5,0.6-0.7,1.6-0.7,2.8S580.3,348.9,580.7,349.5z"/>
				<path fill="#231F20" d="M590,351.6v-6.7h-2.4v-1.2c1.4,0,2.4-0.8,2.6-1.9h1.6v9.8H590z"/>
			</g>
		</g>
		<g>
			<g>
				<path fill="#231F20" d="M622.5,351.7h-1.6l5.3-10.9h1.6L622.5,351.7z"/>
				<path fill="#231F20" d="M633.9,343.2c0.6-1,1.7-1.6,3.1-1.6s2.5,0.7,3.1,1.6c0.7,1,0.9,2.2,0.9,3.5s-0.2,2.5-0.9,3.5
					c-0.6,1-1.7,1.6-3.1,1.6s-2.5-0.7-3.1-1.6c-0.7-1-0.9-2.2-0.9-3.5S633.2,344.2,633.9,343.2z M635.5,349.5
					c0.3,0.4,0.8,0.7,1.5,0.7s1.2-0.3,1.5-0.7c0.5-0.6,0.7-1.6,0.7-2.8s-0.2-2.2-0.7-2.8c-0.3-0.4-0.8-0.7-1.5-0.7s-1.2,0.3-1.5,0.7
					c-0.5,0.6-0.7,1.6-0.7,2.8S635,348.9,635.5,349.5z"/>
				<path fill="#231F20" d="M649.5,343.4c-0.8,0.7-3.6,3.2-4,8.2h-1.9c0.4-5.5,3.9-8.2,3.9-8.2h-5.3v-1.6h7.3V343.4z"/>
			</g>
		</g>
		<g>
			<g>
				<path fill="#231F20" d="M679.3,351.7h-1.6l5.3-10.9h1.6L679.3,351.7z"/>
				<path fill="#231F20" d="M690.6,343.2c0.6-1,1.7-1.6,3.1-1.6c1.5,0,2.5,0.7,3.1,1.6c0.7,1,0.9,2.2,0.9,3.5s-0.2,2.5-0.9,3.5
					c-0.6,1-1.7,1.6-3.1,1.6c-1.5,0-2.5-0.7-3.1-1.6c-0.7-1-0.9-2.2-0.9-3.5S690,344.2,690.6,343.2z M692.3,349.5
					c0.3,0.4,0.8,0.7,1.5,0.7s1.2-0.3,1.5-0.7c0.5-0.6,0.7-1.6,0.7-2.8s-0.2-2.2-0.7-2.8c-0.3-0.4-0.8-0.7-1.5-0.7s-1.2,0.3-1.5,0.7
					c-0.5,0.6-0.7,1.6-0.7,2.8S691.8,348.9,692.3,349.5z"/>
				<path fill="#231F20" d="M701.5,351.6v-6.7h-2.4v-1.2c1.4,0,2.4-0.8,2.6-1.9h1.6v9.8H701.5z"/>
			</g>
		</g>
		<g>
			<g>
				<path fill="#231F20" d="M733.1,351.7h-1.6l5.3-10.9h1.6L733.1,351.7z"/>
				<path fill="#231F20" d="M744.5,343.2c0.6-1,1.7-1.6,3.1-1.6c1.5,0,2.5,0.7,3.1,1.6c0.7,1,0.9,2.2,0.9,3.5s-0.2,2.5-0.9,3.5
					c-0.6,1-1.7,1.6-3.1,1.6c-1.5,0-2.5-0.7-3.1-1.6c-0.7-1-0.9-2.2-0.9-3.5S743.8,344.2,744.5,343.2z M746.1,349.5
					c0.3,0.4,0.8,0.7,1.5,0.7s1.2-0.3,1.5-0.7c0.5-0.6,0.7-1.6,0.7-2.8s-0.2-2.2-0.7-2.8c-0.3-0.4-0.8-0.7-1.5-0.7s-1.2,0.3-1.5,0.7
					c-0.5,0.6-0.7,1.6-0.7,2.8S745.6,348.9,746.1,349.5z"/>
				<path fill="#231F20" d="M760.1,343.4c-0.8,0.7-3.6,3.2-4,8.2h-1.9c0.4-5.5,3.9-8.2,3.9-8.2h-5.3v-1.6h7.3V343.4z"/>
			</g>
		</g>
		<g>
			<g>
				<path fill="#231F20" d="M118.1,324.9c0-0.1,0-0.4,0-0.6c0-1.7,1.3-3.2,3.5-3.2c2.2,0,3.5,1.4,3.5,3.1c0,1.3-0.7,2.3-1.9,3
					l-1.9,1.2c-0.5,0.3-0.9,0.6-1,1.1h4.9v1.6H118c0-1.7,0.6-3,2.3-4.1l1.6-1c0.9-0.5,1.3-1.1,1.3-1.9c0-0.8-0.5-1.5-1.7-1.5
					c-1.2,0-1.7,0.8-1.7,1.8c0,0.2,0,0.3,0,0.5L118.1,324.9z"/>
				<path fill="#231F20" d="M127.6,322.7c0.6-1,1.7-1.6,3.1-1.6s2.5,0.7,3.1,1.6c0.7,1,0.9,2.2,0.9,3.5s-0.2,2.5-0.9,3.5
					c-0.6,1-1.7,1.6-3.1,1.6s-2.5-0.7-3.1-1.6c-0.7-1-0.9-2.2-0.9-3.5S126.9,323.7,127.6,322.7z M129.2,329.1
					c0.3,0.4,0.8,0.7,1.5,0.7s1.2-0.3,1.5-0.7c0.5-0.6,0.7-1.6,0.7-2.8c0-1.2-0.2-2.2-0.7-2.8c-0.3-0.4-0.8-0.7-1.5-0.7
					s-1.2,0.3-1.5,0.7c-0.5,0.6-0.7,1.6-0.7,2.8C128.5,327.5,128.7,328.5,129.2,329.1z"/>
				<path fill="#231F20" d="M138.5,331.2v-6.7h-2.4v-1.2c1.4,0,2.4-0.8,2.6-1.9h1.6v9.8H138.5z"/>
				<path fill="#231F20" d="M142.5,324.9c0-0.1,0-0.4,0-0.6c0-1.7,1.3-3.2,3.5-3.2c2.2,0,3.5,1.4,3.5,3.1c0,1.3-0.7,2.3-1.9,3
					l-1.9,1.2c-0.5,0.3-0.9,0.6-1,1.1h4.9v1.6h-7.1c0-1.7,0.6-3,2.3-4.1l1.6-1c0.9-0.5,1.3-1.1,1.3-1.9c0-0.8-0.5-1.5-1.7-1.5
					c-1.2,0-1.7,0.8-1.7,1.8c0,0.2,0,0.3,0,0.5L142.5,324.9z"/>
			</g>
		</g>
		<g>
			<g>
				<path fill="#231F20" d="M173.6,324.9c0-0.1,0-0.4,0-0.6c0-1.7,1.3-3.2,3.5-3.2c2.2,0,3.5,1.4,3.5,3.1c0,1.3-0.7,2.3-1.9,3
					l-1.9,1.2c-0.5,0.3-0.9,0.6-1,1.1h4.9v1.6h-7.1c0-1.7,0.6-3,2.3-4.1l1.6-1c0.9-0.5,1.3-1.1,1.3-1.9c0-0.8-0.5-1.5-1.7-1.5
					c-1.2,0-1.7,0.8-1.7,1.8c0,0.2,0,0.3,0,0.5L173.6,324.9z"/>
				<path fill="#231F20" d="M183,322.7c0.6-1,1.7-1.6,3.1-1.6s2.5,0.7,3.1,1.6c0.7,1,0.9,2.2,0.9,3.5s-0.2,2.5-0.9,3.5
					c-0.6,1-1.7,1.6-3.1,1.6s-2.5-0.7-3.1-1.6c-0.7-1-0.9-2.2-0.9-3.5S182.4,323.7,183,322.7z M184.7,329.1c0.3,0.4,0.8,0.7,1.5,0.7
					s1.2-0.3,1.5-0.7c0.5-0.6,0.7-1.6,0.7-2.8c0-1.2-0.2-2.2-0.7-2.8c-0.3-0.4-0.8-0.7-1.5-0.7s-1.2,0.3-1.5,0.7
					c-0.5,0.6-0.7,1.6-0.7,2.8C184,327.5,184.2,328.5,184.7,329.1z"/>
				<path fill="#231F20" d="M193.9,331.2v-6.7h-2.4v-1.2c1.4,0,2.4-0.8,2.6-1.9h1.6v9.8H193.9z"/>
				<path fill="#231F20" d="M198,324.9c0-0.1,0-0.4,0-0.6c0-1.7,1.3-3.2,3.5-3.2c2.2,0,3.5,1.4,3.5,3.1c0,1.3-0.7,2.3-1.9,3
					l-1.9,1.2c-0.5,0.3-0.9,0.6-1,1.1h4.9v1.6h-7.1c0-1.7,0.6-3,2.3-4.1l1.6-1c0.9-0.5,1.3-1.1,1.3-1.9c0-0.8-0.5-1.5-1.7-1.5
					c-1.2,0-1.7,0.8-1.7,1.8c0,0.2,0,0.3,0,0.5L198,324.9z"/>
			</g>
		</g>
		<g>
			<g>
				<path fill="#231F20" d="M229,324.9c0-0.1,0-0.4,0-0.6c0-1.7,1.3-3.2,3.5-3.2c2.2,0,3.5,1.4,3.5,3.1c0,1.3-0.7,2.3-1.9,3
					l-1.9,1.2c-0.5,0.3-0.9,0.6-1,1.1h4.9v1.6h-7.1c0-1.7,0.6-3,2.3-4.1l1.6-1c0.9-0.5,1.3-1.1,1.3-1.9c0-0.8-0.5-1.5-1.7-1.5
					c-1.2,0-1.7,0.8-1.7,1.8c0,0.2,0,0.3,0,0.5L229,324.9z"/>
				<path fill="#231F20" d="M238.5,322.7c0.6-1,1.7-1.6,3.1-1.6s2.5,0.7,3.1,1.6c0.7,1,0.9,2.2,0.9,3.5s-0.2,2.5-0.9,3.5
					c-0.6,1-1.7,1.6-3.1,1.6s-2.5-0.7-3.1-1.6c-0.7-1-0.9-2.2-0.9-3.5S237.8,323.7,238.5,322.7z M240.1,329.1
					c0.3,0.4,0.8,0.7,1.5,0.7s1.2-0.3,1.5-0.7c0.5-0.6,0.7-1.6,0.7-2.8c0-1.2-0.2-2.2-0.7-2.8c-0.3-0.4-0.8-0.7-1.5-0.7
					s-1.2,0.3-1.5,0.7c-0.5,0.6-0.7,1.6-0.7,2.8C239.4,327.5,239.6,328.5,240.1,329.1z"/>
				<path fill="#231F20" d="M249.4,331.2v-6.7H247v-1.2c1.4,0,2.4-0.8,2.6-1.9h1.6v9.8H249.4z"/>
				<path fill="#231F20" d="M255.2,325.4l2.7-2.4h-4.5v-1.6h6.8v1.5l-2.7,2.3c1.5,0,2.9,1.1,2.9,3c0,1.7-1.3,3.2-3.7,3.2
					c-2.3,0-3.6-1.5-3.7-3.1l1.8-0.4c0,1.1,0.9,1.9,2,1.9c1.2,0,1.9-0.8,1.9-1.7c0-1.1-0.9-1.6-1.7-1.6c-0.5,0-0.8,0.1-0.9,0.2
					L255.2,325.4z"/>
			</g>
		</g>
		<g>
			<g>
				<path fill="#231F20" d="M284.6,324.9c0-0.1,0-0.4,0-0.6c0-1.7,1.3-3.2,3.5-3.2c2.2,0,3.5,1.4,3.5,3.1c0,1.3-0.7,2.3-1.9,3
					l-1.9,1.2c-0.5,0.3-0.9,0.6-1,1.1h4.9v1.6h-7.1c0-1.7,0.6-3,2.3-4.1l1.6-1c0.9-0.5,1.3-1.1,1.3-1.9c0-0.8-0.5-1.5-1.7-1.5
					c-1.2,0-1.7,0.8-1.7,1.8c0,0.2,0,0.3,0,0.5L284.6,324.9z"/>
				<path fill="#231F20" d="M294.1,322.7c0.6-1,1.7-1.6,3.1-1.6s2.5,0.7,3.1,1.6c0.7,1,0.9,2.2,0.9,3.5s-0.2,2.5-0.9,3.5
					c-0.6,1-1.7,1.6-3.1,1.6s-2.5-0.7-3.1-1.6c-0.7-1-0.9-2.2-0.9-3.5S293.4,323.7,294.1,322.7z M295.7,329.1
					c0.3,0.4,0.8,0.7,1.5,0.7s1.2-0.3,1.5-0.7c0.5-0.6,0.7-1.6,0.7-2.8c0-1.2-0.2-2.2-0.7-2.8c-0.3-0.4-0.8-0.7-1.5-0.7
					s-1.2,0.3-1.5,0.7c-0.5,0.6-0.7,1.6-0.7,2.8C295,327.5,295.2,328.5,295.7,329.1z"/>
				<path fill="#231F20" d="M305,331.2v-6.7h-2.4v-1.2c1.4,0,2.4-0.8,2.6-1.9h1.6v9.8H305z"/>
				<path fill="#231F20" d="M310.8,325.4l2.7-2.4h-4.5v-1.6h6.8v1.5l-2.7,2.3c1.5,0,2.9,1.1,2.9,3c0,1.7-1.3,3.2-3.7,3.2
					c-2.3,0-3.6-1.5-3.7-3.1l1.8-0.4c0,1.1,0.9,1.9,2,1.9c1.2,0,1.9-0.8,1.9-1.7c0-1.1-0.9-1.6-1.7-1.6c-0.5,0-0.8,0.1-0.9,0.2
					L310.8,325.4z"/>
			</g>
		</g>
		<g>
			<g>
				<path fill="#231F20" d="M340.2,324.9c0-0.1,0-0.4,0-0.6c0-1.7,1.3-3.2,3.5-3.2c2.2,0,3.5,1.4,3.5,3.1c0,1.3-0.7,2.3-1.9,3
					l-1.9,1.2c-0.5,0.3-0.9,0.6-1,1.1h4.9v1.6h-7.1c0-1.7,0.6-3,2.3-4.1l1.6-1c0.9-0.5,1.3-1.1,1.3-1.9c0-0.8-0.5-1.5-1.7-1.5
					c-1.2,0-1.7,0.8-1.7,1.8c0,0.2,0,0.3,0,0.5L340.2,324.9z"/>
				<path fill="#231F20" d="M349.7,322.7c0.6-1,1.7-1.6,3.1-1.6c1.5,0,2.5,0.7,3.1,1.6c0.7,1,0.9,2.2,0.9,3.5s-0.2,2.5-0.9,3.5
					c-0.6,1-1.7,1.6-3.1,1.6c-1.5,0-2.5-0.7-3.1-1.6c-0.7-1-0.9-2.2-0.9-3.5S349,323.7,349.7,322.7z M351.3,329.1
					c0.3,0.4,0.8,0.7,1.5,0.7s1.2-0.3,1.5-0.7c0.5-0.6,0.7-1.6,0.7-2.8c0-1.2-0.2-2.2-0.7-2.8c-0.3-0.4-0.8-0.7-1.5-0.7
					s-1.2,0.3-1.5,0.7c-0.5,0.6-0.7,1.6-0.7,2.8C350.6,327.5,350.8,328.5,351.3,329.1z"/>
				<path fill="#231F20" d="M360.6,331.2v-6.7h-2.4v-1.2c1.4,0,2.4-0.8,2.6-1.9h1.6v9.8H360.6z"/>
				<path fill="#231F20" d="M364.3,327.1l4.2-5.7h2.3v6.1h1.7v1.6h-1.7v2.2h-1.8V329h-4.7V327.1z M369.1,323.2l-3.1,4.2h3.1V323.2z"
					/>
			</g>
		</g>
		<g>
			<g>
				<path fill="#231F20" d="M396.3,324.9c0-0.1,0-0.4,0-0.6c0-1.7,1.3-3.2,3.5-3.2c2.2,0,3.5,1.4,3.5,3.1c0,1.3-0.7,2.3-1.9,3
					l-1.9,1.2c-0.5,0.3-0.9,0.6-1,1.1h4.9v1.6h-7.1c0-1.7,0.6-3,2.3-4.1l1.6-1c0.9-0.5,1.3-1.1,1.3-1.9c0-0.8-0.5-1.5-1.7-1.5
					c-1.2,0-1.7,0.8-1.7,1.8c0,0.2,0,0.3,0,0.5L396.3,324.9z"/>
				<path fill="#231F20" d="M405.7,322.7c0.6-1,1.7-1.6,3.1-1.6c1.5,0,2.5,0.7,3.1,1.6c0.7,1,0.9,2.2,0.9,3.5s-0.2,2.5-0.9,3.5
					c-0.6,1-1.7,1.6-3.1,1.6c-1.5,0-2.5-0.7-3.1-1.6c-0.7-1-0.9-2.2-0.9-3.5S405.1,323.7,405.7,322.7z M407.4,329.1
					c0.3,0.4,0.8,0.7,1.5,0.7s1.2-0.3,1.5-0.7c0.5-0.6,0.7-1.6,0.7-2.8c0-1.2-0.2-2.2-0.7-2.8c-0.3-0.4-0.8-0.7-1.5-0.7
					s-1.2,0.3-1.5,0.7c-0.5,0.6-0.7,1.6-0.7,2.8C406.7,327.5,406.9,328.5,407.4,329.1z"/>
				<path fill="#231F20" d="M416.6,331.2v-6.7h-2.4v-1.2c1.4,0,2.4-0.8,2.6-1.9h1.6v9.8H416.6z"/>
				<path fill="#231F20" d="M420.4,327.1l4.2-5.7h2.3v6.1h1.7v1.6h-1.7v2.2h-1.8V329h-4.7V327.1z M425.1,323.2l-3.1,4.2h3.1V323.2z"
					/>
			</g>
		</g>
		<g>
			<g>
				<path fill="#231F20" d="M452.4,324.9c0-0.1,0-0.4,0-0.6c0-1.7,1.3-3.2,3.5-3.2c2.2,0,3.5,1.4,3.5,3.1c0,1.3-0.7,2.3-1.9,3
					l-1.9,1.2c-0.5,0.3-0.9,0.6-1,1.1h4.9v1.6h-7.1c0-1.7,0.6-3,2.3-4.1l1.6-1c0.9-0.5,1.3-1.1,1.3-1.9c0-0.8-0.5-1.5-1.7-1.5
					c-1.2,0-1.7,0.8-1.7,1.8c0,0.2,0,0.3,0,0.5L452.4,324.9z"/>
				<path fill="#231F20" d="M461.8,322.7c0.6-1,1.7-1.6,3.1-1.6c1.5,0,2.5,0.7,3.1,1.6c0.7,1,0.9,2.2,0.9,3.5s-0.2,2.5-0.9,3.5
					c-0.6,1-1.7,1.6-3.1,1.6c-1.5,0-2.5-0.7-3.1-1.6c-0.7-1-0.9-2.2-0.9-3.5S461.1,323.7,461.8,322.7z M463.4,329.1
					c0.3,0.4,0.8,0.7,1.5,0.7s1.2-0.3,1.5-0.7c0.5-0.6,0.7-1.6,0.7-2.8c0-1.2-0.2-2.2-0.7-2.8c-0.3-0.4-0.8-0.7-1.5-0.7
					s-1.2,0.3-1.5,0.7c-0.5,0.6-0.7,1.6-0.7,2.8C462.7,327.5,463,328.5,463.4,329.1z"/>
				<path fill="#231F20" d="M472.7,331.2v-6.7h-2.4v-1.2c1.4,0,2.4-0.8,2.6-1.9h1.6v9.8H472.7z"/>
				<path fill="#231F20" d="M478.2,328c0.1,1,0.8,1.8,2,1.8c1,0,1.9-0.7,1.9-1.8c0-1.2-0.9-1.8-1.9-1.8c-0.7,0-1.3,0.3-1.6,0.7
					l-1.7-0.6l1.2-5h5.4v1.6h-4.2l-0.6,2.5c0.4-0.4,1.2-0.7,1.9-0.7c2,0,3.4,1.2,3.4,3.3c0,1.9-1.4,3.4-3.7,3.4
					c-2.1,0-3.6-1.4-3.7-3L478.2,328z"/>
			</g>
		</g>
		<g>
			<g>
				<path fill="#231F20" d="M507.9,324.9c0-0.1,0-0.4,0-0.6c0-1.7,1.3-3.2,3.5-3.2c2.2,0,3.5,1.4,3.5,3.1c0,1.3-0.7,2.3-1.9,3
					l-1.9,1.2c-0.5,0.3-0.9,0.6-1,1.1h4.9v1.6h-7.1c0-1.7,0.6-3,2.3-4.1l1.6-1c0.9-0.5,1.3-1.1,1.3-1.9c0-0.8-0.5-1.5-1.7-1.5
					c-1.2,0-1.7,0.8-1.7,1.8c0,0.2,0,0.3,0,0.5L507.9,324.9z"/>
				<path fill="#231F20" d="M517.4,322.7c0.6-1,1.7-1.6,3.1-1.6c1.5,0,2.5,0.7,3.1,1.6c0.7,1,0.9,2.2,0.9,3.5s-0.2,2.5-0.9,3.5
					c-0.6,1-1.7,1.6-3.1,1.6c-1.5,0-2.5-0.7-3.1-1.6c-0.7-1-0.9-2.2-0.9-3.5S516.7,323.7,517.4,322.7z M519,329.1
					c0.3,0.4,0.8,0.7,1.5,0.7s1.2-0.3,1.5-0.7c0.5-0.6,0.7-1.6,0.7-2.8c0-1.2-0.2-2.2-0.7-2.8c-0.3-0.4-0.8-0.7-1.5-0.7
					s-1.2,0.3-1.5,0.7c-0.5,0.6-0.7,1.6-0.7,2.8C518.3,327.5,518.6,328.5,519,329.1z"/>
				<path fill="#231F20" d="M528.3,331.2v-6.7h-2.4v-1.2c1.4,0,2.4-0.8,2.6-1.9h1.6v9.8H528.3z"/>
				<path fill="#231F20" d="M533.8,328c0.1,1,0.8,1.8,2,1.8c1,0,1.9-0.7,1.9-1.8c0-1.2-0.9-1.8-1.9-1.8c-0.7,0-1.3,0.3-1.6,0.7
					l-1.7-0.6l1.2-5h5.4v1.6h-4.2l-0.6,2.5c0.4-0.4,1.2-0.7,1.9-0.7c2,0,3.4,1.2,3.4,3.3c0,1.9-1.4,3.4-3.7,3.4
					c-2.1,0-3.6-1.4-3.7-3L533.8,328z"/>
			</g>
		</g>
		<g>
			<g>
				<path fill="#231F20" d="M563.5,324.9c0-0.1,0-0.4,0-0.6c0-1.7,1.3-3.2,3.5-3.2c2.2,0,3.5,1.4,3.5,3.1c0,1.3-0.7,2.3-1.9,3
					l-1.9,1.2c-0.5,0.3-0.9,0.6-1,1.1h4.9v1.6h-7.1c0-1.7,0.6-3,2.3-4.1l1.6-1c0.9-0.5,1.3-1.1,1.3-1.9c0-0.8-0.5-1.5-1.7-1.5
					c-1.2,0-1.7,0.8-1.7,1.8c0,0.2,0,0.3,0,0.5L563.5,324.9z"/>
				<path fill="#231F20" d="M573,322.7c0.6-1,1.7-1.6,3.1-1.6c1.5,0,2.5,0.7,3.1,1.6c0.7,1,0.9,2.2,0.9,3.5s-0.2,2.5-0.9,3.5
					c-0.6,1-1.7,1.6-3.1,1.6c-1.5,0-2.5-0.7-3.1-1.6c-0.7-1-0.9-2.2-0.9-3.5S572.3,323.7,573,322.7z M574.6,329.1
					c0.3,0.4,0.8,0.7,1.5,0.7s1.2-0.3,1.5-0.7c0.5-0.6,0.7-1.6,0.7-2.8c0-1.2-0.2-2.2-0.7-2.8c-0.3-0.4-0.8-0.7-1.5-0.7
					s-1.2,0.3-1.5,0.7c-0.5,0.6-0.7,1.6-0.7,2.8C573.9,327.5,574.1,328.5,574.6,329.1z"/>
				<path fill="#231F20" d="M583.9,331.2v-6.7h-2.4v-1.2c1.4,0,2.4-0.8,2.6-1.9h1.6v9.8H583.9z"/>
				<path fill="#231F20" d="M594.8,323.1c-0.4-0.2-0.9-0.4-1.7-0.4c-1.9,0-3.2,1.2-3.4,3.1c0.5-0.8,1.5-1.2,2.5-1.2
					c2,0,3.3,1.3,3.3,3.3c0,2-1.7,3.4-3.7,3.4c-2.5,0-3.9-2-3.9-4.6c0-3.6,2.2-5.7,5.3-5.7c0.9,0,1.7,0.2,2.1,0.5L594.8,323.1z
					 M591.9,329.9c1,0,1.9-0.7,1.9-1.8c0-1.2-0.9-1.8-1.9-1.8s-1.9,0.7-1.9,1.8C590,329.2,590.9,329.9,591.9,329.9z"/>
			</g>
		</g>
		<g>
			<g>
				<path fill="#231F20" d="M619.6,324.9c0-0.1,0-0.4,0-0.6c0-1.7,1.3-3.2,3.5-3.2c2.2,0,3.5,1.4,3.5,3.1c0,1.3-0.7,2.3-1.9,3
					l-1.9,1.2c-0.5,0.3-0.9,0.6-1,1.1h4.9v1.6h-7.1c0-1.7,0.6-3,2.3-4.1l1.6-1c0.9-0.5,1.3-1.1,1.3-1.9c0-0.8-0.5-1.5-1.7-1.5
					c-1.2,0-1.7,0.8-1.7,1.8c0,0.2,0,0.3,0,0.5L619.6,324.9z"/>
				<path fill="#231F20" d="M629.1,322.7c0.6-1,1.7-1.6,3.1-1.6c1.5,0,2.5,0.7,3.1,1.6c0.7,1,0.9,2.2,0.9,3.5s-0.2,2.5-0.9,3.5
					c-0.6,1-1.7,1.6-3.1,1.6c-1.5,0-2.5-0.7-3.1-1.6c-0.7-1-0.9-2.2-0.9-3.5S628.4,323.7,629.1,322.7z M630.7,329.1
					c0.3,0.4,0.8,0.7,1.5,0.7s1.2-0.3,1.5-0.7c0.5-0.6,0.7-1.6,0.7-2.8c0-1.2-0.2-2.2-0.7-2.8c-0.3-0.4-0.8-0.7-1.5-0.7
					s-1.2,0.3-1.5,0.7c-0.5,0.6-0.7,1.6-0.7,2.8C630,327.5,630.2,328.5,630.7,329.1z"/>
				<path fill="#231F20" d="M640,331.2v-6.7h-2.4v-1.2c1.4,0,2.4-0.8,2.6-1.9h1.6v9.8H640z"/>
				<path fill="#231F20" d="M650.9,323.1c-0.4-0.2-0.9-0.4-1.7-0.4c-1.9,0-3.2,1.2-3.4,3.1c0.5-0.8,1.5-1.2,2.5-1.2
					c2,0,3.3,1.3,3.3,3.3c0,2-1.7,3.4-3.7,3.4c-2.5,0-3.9-2-3.9-4.6c0-3.6,2.2-5.7,5.3-5.7c0.9,0,1.7,0.2,2.1,0.5L650.9,323.1z
					 M648,329.9c1,0,1.9-0.7,1.9-1.8c0-1.2-0.9-1.8-1.9-1.8s-1.9,0.7-1.9,1.8C646.1,329.2,647,329.9,648,329.9z"/>
			</g>
		</g>
		<g>
			<g>
				<path fill="#231F20" d="M675.7,324.9c0-0.1,0-0.4,0-0.6c0-1.7,1.3-3.2,3.5-3.2c2.2,0,3.5,1.4,3.5,3.1c0,1.3-0.7,2.3-1.9,3
					l-1.9,1.2c-0.5,0.3-0.9,0.6-1,1.1h4.9v1.6h-7.1c0-1.7,0.6-3,2.3-4.1l1.6-1c0.9-0.5,1.3-1.1,1.3-1.9c0-0.8-0.5-1.5-1.7-1.5
					c-1.2,0-1.7,0.8-1.7,1.8c0,0.2,0,0.3,0,0.5L675.7,324.9z"/>
				<path fill="#231F20" d="M685.2,322.7c0.6-1,1.7-1.6,3.1-1.6c1.5,0,2.5,0.7,3.1,1.6c0.7,1,0.9,2.2,0.9,3.5s-0.2,2.5-0.9,3.5
					c-0.6,1-1.7,1.6-3.1,1.6c-1.5,0-2.5-0.7-3.1-1.6c-0.7-1-0.9-2.2-0.9-3.5S684.5,323.7,685.2,322.7z M686.8,329.1
					c0.3,0.4,0.8,0.7,1.5,0.7s1.2-0.3,1.5-0.7c0.5-0.6,0.7-1.6,0.7-2.8c0-1.2-0.2-2.2-0.7-2.8c-0.3-0.4-0.8-0.7-1.5-0.7
					s-1.2,0.3-1.5,0.7c-0.5,0.6-0.7,1.6-0.7,2.8C686.1,327.5,686.3,328.5,686.8,329.1z"/>
				<path fill="#231F20" d="M696.1,331.2v-6.7h-2.4v-1.2c1.4,0,2.4-0.8,2.6-1.9h1.6v9.8H696.1z"/>
				<path fill="#231F20" d="M706.9,323c-0.8,0.7-3.6,3.2-4,8.2H701c0.4-5.5,3.9-8.2,3.9-8.2h-5.3v-1.6h7.3V323z"/>
			</g>
		</g>
		<g>
			<g>
				<path fill="#231F20" d="M730.5,324.9c0-0.1,0-0.4,0-0.6c0-1.7,1.3-3.2,3.5-3.2c2.2,0,3.5,1.4,3.5,3.1c0,1.3-0.7,2.3-1.9,3
					l-1.9,1.2c-0.5,0.3-0.9,0.6-1,1.1h4.9v1.6h-7.1c0-1.7,0.6-3,2.3-4.1l1.6-1c0.9-0.5,1.3-1.1,1.3-1.9c0-0.8-0.5-1.5-1.7-1.5
					c-1.2,0-1.7,0.8-1.7,1.8c0,0.2,0,0.3,0,0.5L730.5,324.9z"/>
				<path fill="#231F20" d="M740,322.7c0.6-1,1.7-1.6,3.1-1.6c1.5,0,2.5,0.7,3.1,1.6c0.7,1,0.9,2.2,0.9,3.5s-0.2,2.5-0.9,3.5
					c-0.6,1-1.7,1.6-3.1,1.6c-1.5,0-2.5-0.7-3.1-1.6c-0.7-1-0.9-2.2-0.9-3.5S739.3,323.7,740,322.7z M741.6,329.1
					c0.3,0.4,0.8,0.7,1.5,0.7s1.2-0.3,1.5-0.7c0.5-0.6,0.7-1.6,0.7-2.8c0-1.2-0.2-2.2-0.7-2.8c-0.3-0.4-0.8-0.7-1.5-0.7
					s-1.2,0.3-1.5,0.7c-0.5,0.6-0.7,1.6-0.7,2.8C740.9,327.5,741.1,328.5,741.6,329.1z"/>
				<path fill="#231F20" d="M750.9,331.2v-6.7h-2.4v-1.2c1.4,0,2.4-0.8,2.6-1.9h1.6v9.8H750.9z"/>
				<path fill="#231F20" d="M761.7,323c-0.8,0.7-3.6,3.2-4,8.2h-1.9c0.4-5.5,3.9-8.2,3.9-8.2h-5.3v-1.6h7.3V323z"/>
			</g>
		</g>
		<g>
			<g>
				<path fill="#231F20" d="M61.8,380.5c0,0.4,0,0.7,0,1.1c0.5,2.8,1.2,4.4,2.8,5.9c-0.3,0.2-0.5,0.5-0.7,0.8
					c-1.2-1.2-1.9-2.5-2.4-4.2c-0.4,1.4-1,3-2.3,4.2c-0.2-0.3-0.5-0.6-0.7-0.8l0,0c-0.3,0-0.7,0-1.1,0h-3.1c-1.5,0-2-0.5-2-2.1v-8.4
					h-0.5v-0.9h6.8v0.9h-5.4v8.4c0,0.8,0.3,1.1,1,1.1h3.2c0.4,0,1,0,1.3-0.1c0,0.2,0.1,0.5,0.1,0.7c2-2.2,2.1-4.9,2.1-6.8v-0.9h1
					V380.5z M53.7,382.2h2.1v3.5h-2.1V382.2z M57.7,381.2h-3.6v-3.2h3.6V381.2z M54.3,385h0.9v-2.2h-0.9V385z M56.9,378.7h-2v1.8h2
					V378.7z M58.5,385.7h-2.2v-3.5h2.2V385.7z M57.8,382.9h-1v2.1h1V382.9z M60.3,378.7c-0.3,1.1-0.7,2.1-1.2,2.8
					c-0.2-0.2-0.6-0.5-0.8-0.6c0.9-1.3,1.5-3.3,1.8-5.5l1,0.2c-0.1,0.7-0.2,1.4-0.4,2.1h3.3l0.2-0.1l0.7,0.2c-0.3,1.3-0.6,2.7-1,3.6
					l-0.8-0.3c0.2-0.7,0.5-1.7,0.7-2.6H60.3z"/>
				<path fill="#231F20" d="M68.5,381.6c-0.5-0.4-1.6-1-2.4-1.4l0.6-0.8c0.8,0.4,1.8,0.9,2.4,1.3L68.5,381.6z M66.4,387.6
					c0.6-1.1,1.4-2.9,1.9-4.5l0.8,0.6c-0.5,1.5-1.2,3.2-1.8,4.5L66.4,387.6z M69,377.9c-0.5-0.5-1.5-1.1-2.3-1.5l0.6-0.7
					c0.8,0.4,1.8,1,2.3,1.5L69,377.9z M71.3,375.8h1v4.9c0,2.7-0.2,5.5-2,7.7c-0.2-0.2-0.6-0.5-0.9-0.6c1.7-2,1.9-4.5,1.9-7V375.8z
					 M70.4,383.2c-0.1-0.9-0.5-2.3-1-3.3l0.8-0.3c0.4,1.1,0.9,2.4,1,3.3L70.4,383.2z M73.1,379.6c0.4,1,0.8,2.3,1,3.1l-0.8,0.3
					c-0.1-0.8-0.5-2.1-0.9-3.1L73.1,379.6z M78.4,375.8v12.5h-1v-5.6l-0.7,0.3c-0.2-0.8-0.8-2.1-1.3-3.1v8.1h-1v-12h1v3.7l0.6-0.3
					c0.6,1,1.2,2.2,1.4,3.1v-6.8H78.4z"/>
				<path fill="#231F20" d="M90.8,386.7c0.8,0,1.8-0.1,2.3-0.2c0,0.3,0.1,0.8,0.2,1c-0.4,0.1-1.4,0.1-2.5,0.1h-6.2
					c-2.2,0-3.2-0.7-3.2-2.7v-7.9h-0.6v-0.9h11.8v0.9H82.4v7.9c0,1.2,0.5,1.7,2.1,1.7H90.8z M83.5,382h3.7v3.6h-3.7V382z
					 M84.4,384.9h1.9v-2.1h-1.9V384.9z M90.3,381.1h-5.2V378h5.2V381.1z M89.2,378.7H86v1.6h3.2V378.7z M91.9,385.6h-3.8V382h3.8
					V385.6z M91,382.8h-2v2.1h2V382.8z"/>
			</g>
			<circle fill="#002A5E" cx="29.9" cy="382.4" r="10.3"/>
		</g>
		<g>
			<g>
				<path fill="#231F20" d="M190.9,378.9c-0.3,0.6-0.7,1.3-1.2,1.9v7.5h-1v-6.2c-0.5,0.6-1,1.2-1.4,1.6c-0.1-0.2-0.4-0.7-0.6-0.9
					c1.2-1.1,2.4-2.7,3.3-4.3L190.9,378.9z M190.6,375.9c-0.9,1.2-2.2,2.6-3.3,3.5c-0.1-0.2-0.4-0.6-0.5-0.8c1-0.8,2.3-2.1,2.9-3.1
					L190.6,375.9z M190.1,387.4c0.6-0.7,1-1.8,1.3-2.6l0.8,0.3c-0.3,0.9-0.7,2-1.3,2.7L190.1,387.4z M199.7,383.8h-9v-0.9h9V383.8z
					 M194.3,378.5c0.1-0.3,0.1-0.6,0.2-1h-3.6v-0.9h3.8c0.1-0.4,0.1-0.8,0.1-1.2l1.1,0.1c-0.1,0.4-0.1,0.8-0.2,1.1h4v0.9h-4.1
					c-0.1,0.4-0.1,0.7-0.2,1h3.8v3.5h-7.7v-3.5H194.3z M193.7,379.3h-1.4v1.9h1.4V379.3z M196.2,387.3c0.5,0,0.5-0.2,0.6-1.3
					c0.2,0.2,0.6,0.3,0.8,0.3c-0.1,1.5-0.4,1.8-1.3,1.8h-2.1c-1.2,0-1.5-0.3-1.5-1.2v-2.1h0.9v2.1c0,0.3,0.1,0.4,0.6,0.4H196.2z
					 M195.2,385.9c-0.2-0.5-0.6-1.2-1-1.8l0.8-0.3c0.4,0.5,0.8,1.3,1,1.7L195.2,385.9z M195.9,379.3h-1.5v1.9h1.5V379.3z
					 M196.7,381.2h1.5v-1.9h-1.5V381.2z M198.3,384.6c0.6,0.8,1.2,2,1.4,2.7l-0.8,0.4c-0.2-0.7-0.8-1.9-1.4-2.7L198.3,384.6z"/>
				<path fill="#231F20" d="M213.5,376.1v12.2h-1v-0.6h-9.7v0.6h-1v-12.2H213.5z M212.5,386.8v-9.7h-9.7v9.7H212.5z M207.7,384.6
					c-1.5,0.3-3,0.6-4.1,0.8l-0.1-0.8c1.1-0.2,2.6-0.5,4.2-0.7L207.7,384.6z M211.2,380.5c-0.4,1.3-0.9,2.5-1.6,3.4
					c0.3,0.7,0.7,1.2,1.1,1.3c0.2,0.1,0.3-0.5,0.4-1.4c0.2,0.2,0.5,0.4,0.7,0.5c-0.2,1.5-0.7,2.1-1.4,1.8c-0.6-0.1-1.1-0.6-1.5-1.4
					c-0.5,0.6-1.2,1.2-1.9,1.6c-0.1-0.2-0.4-0.5-0.6-0.7c0.8-0.5,1.5-1.1,2.1-1.8c-0.4-1.1-0.6-2.6-0.8-4.2h-4.3v-0.8h4.2
					c0-0.5-0.1-1-0.1-1.5h0.9c0,0.5,0.1,1,0.1,1.5h3.1v0.8h-3c0.1,1.2,0.3,2.3,0.5,3.2c0.5-0.8,0.8-1.6,1-2.6L211.2,380.5z
					 M207.2,380.6v2.7h-3.1v-2.7H207.2z M206.5,381.3h-1.6v1.4h1.6V381.3z M210.9,378.8c-0.3-0.3-1-0.7-1.5-1l0.5-0.5
					c0.5,0.3,1.2,0.6,1.5,1L210.9,378.8z"/>
			</g>
			<circle fill="#0C56AB" cx="165" cy="382.4" r="10.3"/>
		</g>
		<g>
			<g>
				<path fill="#231F20" d="M310.2,381.7c-0.6-0.5-1.7-1.1-2.6-1.5l0.6-0.8c0.9,0.4,2,1,2.6,1.4L310.2,381.7z M308,387.4
					c0.7-1.1,1.9-2.9,2.7-4.5l0.8,0.7c-0.7,1.5-1.7,3.2-2.5,4.5L308,387.4z M308.9,375.6c0.9,0.4,2.1,1,2.7,1.5l-0.6,0.9
					c-0.6-0.5-1.7-1.2-2.6-1.6L308.9,375.6z M319.2,388.3c-0.1-0.4-0.4-0.9-0.6-1.4c-5.2,0.6-5.8,0.7-6.2,0.9
					c-0.1-0.2-0.2-0.8-0.4-1c0.3-0.1,0.5-0.4,0.9-0.9c0.3-0.4,1.2-1.9,1.9-3.5h-3.1v-1h3.6v-2.5h-3v-1h3v-2.4h1v2.4h3.1v1h-3.1v2.5
					h3.7v1h-4c-0.7,1.5-1.6,3-2.5,4.2l4.4-0.5c-0.4-0.6-0.8-1.3-1.3-1.8l0.8-0.4c1,1.2,2,2.9,2.5,4L319.2,388.3z"/>
				<path fill="#231F20" d="M334.2,376.1v12.2h-1v-0.6h-9.7v0.6h-1v-12.2H334.2z M333.2,386.8v-9.7h-9.7v9.7H333.2z M328.4,384.6
					c-1.5,0.3-3,0.6-4.1,0.8l-0.1-0.8c1.1-0.2,2.6-0.5,4.2-0.7L328.4,384.6z M331.9,380.5c-0.4,1.3-0.9,2.5-1.6,3.4
					c0.3,0.7,0.7,1.2,1.1,1.3c0.2,0.1,0.3-0.5,0.4-1.4c0.2,0.2,0.5,0.4,0.7,0.5c-0.2,1.5-0.7,2.1-1.4,1.8c-0.6-0.1-1.1-0.6-1.5-1.4
					c-0.5,0.6-1.2,1.2-1.9,1.6c-0.1-0.2-0.4-0.5-0.6-0.7c0.8-0.5,1.5-1.1,2.1-1.8c-0.4-1.1-0.6-2.6-0.8-4.2h-4.3v-0.8h4.2
					c0-0.5-0.1-1-0.1-1.5h0.9c0,0.5,0.1,1,0.1,1.5h3.1v0.8h-3c0.1,1.2,0.3,2.3,0.5,3.2c0.5-0.8,0.8-1.6,1-2.6L331.9,380.5z
					 M327.9,380.6v2.7h-3.1v-2.7H327.9z M327.1,381.3h-1.6v1.4h1.6V381.3z M331.6,378.8c-0.3-0.3-1-0.7-1.5-1l0.5-0.5
					c0.5,0.3,1.2,0.6,1.5,1L331.6,378.8z"/>
			</g>
			<circle fill="#73B564" cx="285.7" cy="382.4" r="10.3"/>
		</g>
		<g>
			<g>
				<path fill="#231F20" d="M436.6,377.4v2h3.5v8.8h-1v-0.8h-8.8v0.9h-1v-8.8h3.4v-2h-4.1v-1h12.3v1H436.6z M439.1,386.4V384h-0.2
					H437c-1.2,0-1.4-0.3-1.4-1.4v-2.2h-2c-0.1,1.5-0.6,3.1-2.7,4.2c-0.1-0.2-0.4-0.6-0.6-0.7v2.6H439.1z M430.3,380.4v3.4
					c1.9-0.9,2.3-2.2,2.3-3.4H430.3z M435.6,377.4h-2v2h2V377.4z M436.6,380.4v2.2c0,0.4,0.1,0.4,0.5,0.4h1.7c0.1,0,0.2,0,0.3,0
					v-2.6H436.6z"/>
				<path fill="#231F20" d="M447,386.1c-1.5,0.4-3,0.8-4.2,1.1l-0.2-1c0.5-0.1,1.1-0.3,1.8-0.4v-3.8h-1.4v-1h1.4v-3.5h-1.6v-1h4.3v1
					h-1.7v3.5h1.4v1h-1.4v3.6l1.5-0.4L447,386.1z M449.8,381.5c0,2.8-0.4,5.2-3,6.9c-0.1-0.2-0.5-0.6-0.6-0.7
					c2.4-1.4,2.7-3.5,2.7-5.9l-0.6,0.3c-0.3-0.8-0.9-2-1.4-2.9l0.8-0.3c0.4,0.7,0.9,1.5,1.2,2.2v-5.5h0.9V381.5z M455.5,386.9v1
					h-5.9v-1h2.6v-4.3h-1.7v-1h1.7v-4.1h-1.9v-1h4.9v1h-2v4.1h1.8v1h-1.8v4.3H455.5z"/>
				<path fill="#231F20" d="M469.6,382h-3.1v4.9c0,0.7-0.2,1-0.6,1.2c-0.5,0.2-1.2,0.2-2.4,0.2c-0.1-0.3-0.2-0.8-0.4-1.1
					c0.9,0,1.8,0,2,0c0.2,0,0.3-0.1,0.3-0.3v-4.8c-1.8,2.3-4.8,4.4-7.5,5.5c-0.2-0.3-0.5-0.7-0.7-0.9c2.5-0.9,5.3-2.8,7-4.7h-5.7
					c0.4-1.3,0.8-3.2,1.1-4.8h-1.4v-1h10.8v1h-2.5v3.8h3.1V382z M460.7,377.2c-0.3,1.2-0.6,2.7-0.9,3.8h5.5v-3.8H460.7z"/>
			</g>
			<circle fill="#7F58A5" cx="406.4" cy="382.4" r="10.3"/>
		</g>
		<g>
			<g>
				<path fill="#231F20" d="M574.9,384.7c-0.5,0.6-1.1,1.2-1.9,1.7c0.5,0.6,1.2,0.9,1.8,0.9c0.4,0,0.5-0.3,0.6-1.3
					c0.2,0.2,0.5,0.3,0.8,0.4c-0.2,1.5-0.5,1.9-1.4,1.9c-1,0-1.9-0.5-2.6-1.4c-1,0.5-2.1,1-3.1,1.3c-0.1-0.2-0.4-0.6-0.5-0.8
					c1.1-0.3,2.2-0.7,3.2-1.2c-0.4-0.6-0.6-1.3-0.9-2h-3.3v0.9l2.5-0.2v0.7c-0.8,0.1-1.7,0.2-2.5,0.2v1.3c0,0.5-0.1,0.8-0.5,0.9
					c-0.4,0.1-1.1,0.1-2.1,0.1c-0.1-0.2-0.2-0.6-0.3-0.8c0.8,0,1.5,0,1.7,0c0.2,0,0.3,0,0.3-0.2V386l-2.9,0.3l-0.1-0.8
					c0.8-0.1,1.9-0.1,3-0.2v-1h-3v-0.8h3v-1c-0.9,0.1-1.8,0.2-2.6,0.2c0-0.2-0.1-0.5-0.2-0.7c1.9-0.1,4.2-0.4,5.5-0.7l0.6,0.7
					c-0.6,0.2-1.4,0.3-2.3,0.4v1.1h3.1c-0.1-0.6-0.2-1.3-0.3-2.1h1c0,0.7,0.1,1.4,0.3,2.1h4.4v0.8h-4.2c0.2,0.6,0.4,1.1,0.7,1.5
					c0.6-0.4,1.1-0.8,1.5-1.3L574.9,384.7z M576,381.2h-12.4v-0.8h5.7v-0.9h-4.3v-0.8h4.3v-0.9h-5.1V377h2.9
					c-0.2-0.4-0.5-0.8-0.8-1.2l0.9-0.3c0.4,0.4,0.8,1,1,1.4l-0.1,0h3.4c0.3-0.4,0.6-1.1,0.8-1.5l1.1,0.3c-0.3,0.4-0.6,0.9-0.8,1.2
					h2.9v0.8h-5.1v0.9h4.4v0.8h-4.4v0.9h5.7V381.2z M574.6,383.3c-0.5-0.4-1.4-1-2.2-1.3l0.6-0.6c0.8,0.3,1.8,0.8,2.3,1.2
					L574.6,383.3z"/>
				<path fill="#231F20" d="M585.1,380.6c1,3.1,2.8,5.6,5.5,6.8c-0.3,0.2-0.6,0.7-0.8,1c-2.7-1.3-4.5-3.8-5.6-7
					c-0.7,2.7-2.2,5.4-5.6,7c-0.2-0.3-0.5-0.6-0.8-0.9c3.5-1.5,4.9-4.2,5.5-6.9h-5.2v-1.1h5.4c0.2-1.5,0.2-2.9,0.2-4h1.1
					c0,1.1,0,2.5-0.2,4h5.8v1.1H585.1z"/>
				<path fill="#231F20" d="M596.4,379.7h2.9v1h-2.9v0.4c0.7,0.6,2.3,2.3,2.7,2.7l-0.6,0.9c-0.4-0.5-1.4-1.6-2.1-2.3v6.1h-1v-6
					c-0.7,1.6-1.7,3.2-2.7,4.1c-0.1-0.3-0.4-0.7-0.6-1c1.1-1.1,2.3-3,3-4.7h-2.7v-1h3v-2.4c-0.9,0.2-1.8,0.3-2.7,0.5
					c0-0.3-0.2-0.6-0.3-0.8c2.1-0.3,4.5-0.8,5.8-1.4l0.8,0.8c-0.7,0.3-1.6,0.5-2.5,0.7V379.7z M601.4,384.9h-1v-7.7h1V384.9z
					 M604.4,375.6v11.2c0,0.7-0.2,1-0.6,1.2c-0.5,0.2-1.2,0.2-2.5,0.2c-0.1-0.3-0.2-0.8-0.4-1.1c1,0,1.9,0,2.1,0
					c0.3,0,0.4-0.1,0.4-0.4v-11.2H604.4z"/>
			</g>
			<circle fill="#C12B5D" cx="541.5" cy="382.4" r="10.3"/>
		</g>
		
			<polyline fill="none" stroke="#C12B5D" stroke-width="1.4966" stroke-linecap="round" stroke-linejoin="round" stroke-miterlimit="10" points="
			28.6,107.6 38,69.5 47,81.7 56.4,89.6 65.7,129 75,158.3 84.1,150.3 93.4,162.8 102.8,166.2 111.8,217.8 121.2,198.8 130.5,205.5 
			139.8,188.7 148.9,199.8 158.2,189.7 167.6,222.3 176.7,213.5 186,215.6 195.3,216.8 204.6,213.5 213.7,198.8 223.1,189.7 
			232.4,203.1 241.5,188.7 250.8,192.1 260.1,205.5 269.5,197.6 278.5,178.4 287.9,178.4 297.2,174.1 306.3,143.6 315.6,136.9 
			324.9,108.8 334.3,125.6 343.3,153.7 352.7,140.3 362,125.6 371.1,102.1 380.4,127.8 389.7,111 399.1,109.8 408.1,93 417.5,105.5 
			426.8,141.5 435.9,145.8 445.2,135.7 454.5,126.8 463.9,147 472.9,126.8 482.3,129 491.6,113.4 500.7,96.3 510,98.7 519.3,95.4 
			528.7,100.9 537.7,84.1 547.1,102.1 556.4,96.3 565.5,91.8 574.8,72.8 584.1,97.5 593.5,98.7 602.6,113.4 611.9,105.5 
			621.2,131.1 630.3,111 639.6,115.5 649,118.9 658.3,127.8 667.4,127.8 676.7,102.1 686,107.6 695.1,108.8 704.4,86.3 713.8,93 
			723.1,63.7 732.2,81.7 741.5,89.6 750.8,70.4 		"/>
	</g>
	<polygon fill="#F7A823" points="404.1,216.8 405.2,221.1 712.6,142.8 712.5,147.8 726.4,136.8 709.1,134 711.5,138.4 	"/>
</g>
<g>
</g>
<g>
</g>
<g>
</g>
<g>
</g>
<g>
</g>
<g>
</g>
<g>
</g>
<g>
</g>
<g>
</g>
<g>
</g>
<g>
</g>
<g>
</g>
<g>
</g>
<g>
</g>
<g>
</g>
</svg>
