<?xml version="1.0" encoding="utf-8"?>
<!-- Generator: Adobe Illustrator 18.0.0, SVG Export Plug-In . SVG Version: 6.00 Build 0)  -->
<!DOCTYPE svg PUBLIC "-//W3C//DTD SVG 1.1//EN" "http://www.w3.org/Graphics/SVG/1.1/DTD/svg11.dtd">
<svg version="1.1" id="Layer_1" xmlns="http://www.w3.org/2000/svg" xmlns:xlink="http://www.w3.org/1999/xlink" x="0px" y="0px"
	 viewBox="0 0 72.6 75.5" enable-background="new 0 0 72.6 75.5" xml:space="preserve">
<g>
	<g>
		<g>
			<g>
				<polygon fill="#2368B5" points="34.2,19.1 33.3,18.1 41.5,10.7 46.1,15.4 53.5,7.5 58.7,12.2 71.4,0.4 72.2,1.3 58.7,13.9 
					53.5,9.2 46.1,17.2 41.5,12.5 				"/>
				<polygon fill="#2368B5" points="72.6,5.7 71.4,5.7 71.4,1.3 65.7,1.3 65.7,0 72.6,0 				"/>
			</g>
			<defs>
				<filter id="Adobe_OpacityMaskFilter" filterUnits="userSpaceOnUse" x="33.9" y="1.4" width="36.2" height="37.1">
					<feColorMatrix  type="matrix" values="1 0 0 0 0  0 1 0 0 0  0 0 1 0 0  0 0 0 1 0"/>
				</filter>
			</defs>
			<mask maskUnits="userSpaceOnUse" x="33.9" y="1.4" width="36.2" height="37.1" id="SVGID_1_">
				<g filter="url(#Adobe_OpacityMaskFilter)">
					<g>
						<path fill="#FFFFFF" d="M53.1,18.3c5.4,0,10.4,2.1,14.2,5.9c2,2,3.5,4.3,4.5,6.9V4.7L58.9,16.6l-5.4-4.8l-7.1,7.6
							C48.6,18.7,50.8,18.3,53.1,18.3z"/>
						<path fill="#FFFFFF" d="M33.1,38.3c0-5.4,2.1-10.4,5.8-14.2c1.9-2,4.2-3.4,6.7-4.4l-4.6-4.6l-7.3,6.6l-1.5,16.8h0.8
							C33.1,38.5,33.1,38.4,33.1,38.3z"/>
					</g>
				</g>
			</mask>
			<g mask="url(#SVGID_1_)">
				<rect x="33.9" y="8" fill="#2368B5" width="8.4" height="30.5"/>
				<rect x="43.7" y="8" fill="#2368B5" width="8.4" height="30.5"/>
				<rect x="53.5" y="8" fill="#2368B5" width="8.4" height="30.5"/>
				<rect x="63.3" y="1.4" fill="#2368B5" width="6.8" height="37.1"/>
			</g>
			<path fill="#2368B5" d="M53,56.9c-10.3,0-18.6-8.3-18.6-18.6c0-10.3,8.3-18.6,18.6-18.6c10.3,0,18.6,8.3,18.6,18.7
				C71.7,48.6,63.4,56.9,53,56.9z M59.3,39.6c-4.3,0-8.3,0-12.4,0c0.3,2,0.7,3.9,1,5.7c0,0.2,0.4,0.4,0.6,0.4c3.1,0,6.2,0,9.3,0
				c0.2,0,0.6-0.3,0.6-0.5C58.6,43.4,58.9,41.6,59.3,39.6z M59.3,36.8c-0.3-1.9-0.5-3.6-0.8-5.4c0-0.2-0.4-0.6-0.7-0.6
				c-3.2,0-6.3,0-9.5,0c-0.2,0-0.6,0.2-0.6,0.3c-0.3,1.8-0.6,3.7-0.9,5.6C51,36.8,55.1,36.8,59.3,36.8z M44.3,39.6
				c-2.5,0-4.9,0-7.4,0c0.1,2.1,0.7,4,1.6,5.7c0.1,0.2,0.3,0.3,0.5,0.3c2.1,0,4.1,0,6.2,0C44.9,43.7,44.6,41.7,44.3,39.6z
				 M61.8,39.6c-0.3,2-0.6,4-0.8,6.1c2.1,0,4.1,0,6.2,0c0.1,0,0.4-0.1,0.4-0.2c0.9-1.8,1.5-3.8,1.6-5.9
				C66.7,39.6,64.2,39.6,61.8,39.6z M44.3,36.8c0.3-2,0.5-3.9,0.8-6c-2,0-4.1,0-6.1,0c-0.2,0-0.4,0.2-0.5,0.3
				c-0.9,1.8-1.4,3.6-1.6,5.6C39.5,36.8,41.9,36.8,44.3,36.8z M69.2,36.8c-0.2-2-0.7-3.9-1.6-5.6c-0.1-0.2-0.3-0.4-0.5-0.4
				c-2,0-4,0-6,0c0.3,2.1,0.5,4,0.8,6C64.2,36.8,66.7,36.8,69.2,36.8z M57.7,28.1c-0.7-1.6-1.5-3.1-2-4.6c-0.4-1.2-1.2-1.4-2.4-1.4
				c-1.4,0-2.4,0.3-3,1.8c-0.5,1.4-1.2,2.8-1.9,4.3C51.6,28.1,54.5,28.1,57.7,28.1z M57.5,48.5c-3.1,0-5.9,0-8.8,0
				c0.6,1.4,1.1,2.6,1.7,3.8c1,2.2,1.4,2.4,3.9,2.1c0.1,0,0.2,0,0.3,0c0.1-0.1,0.3-0.2,0.4-0.3C55.8,52.3,56.6,50.5,57.5,48.5z
				 M40.5,48.5c2.1,2.5,4.5,4.2,7.5,5.2c-0.6-1.7-1.2-3.2-1.8-4.7c-0.1-0.2-0.3-0.4-0.5-0.4C44.1,48.5,42.4,48.5,40.5,48.5z
				 M58.1,53.7c3-1.1,5.4-2.7,7.5-5.2c-1.9,0-3.5,0-5.1,0c-0.2,0-0.4,0.2-0.5,0.4C59.4,50.4,58.8,52,58.1,53.7z M40.5,28.1
				c1.8,0,3.4,0,4.9,0c0.2,0,0.5-0.2,0.6-0.3c0.6-1.5,1.2-3.1,1.8-4.8C44.9,24,42.6,25.7,40.5,28.1z M58.3,23
				c0.6,1.6,1.2,3.1,1.8,4.6c0.1,0.2,0.3,0.5,0.4,0.5c1.6,0,3.3,0,5.1,0C63.6,25.7,61.3,24,58.3,23z"/>
		</g>
	</g>
	<g>
		<g>
			<path fill="#0C56AB" d="M2.5,72.3v-6.1H0.4V65c1.3,0,2.2-0.7,2.4-1.7h1.4v8.9H2.5z"/>
		</g>
	</g>
</g>
<g>
</g>
<g>
</g>
<g>
</g>
<g>
</g>
<g>
</g>
<g>
</g>
<g>
</g>
<g>
</g>
<g>
</g>
<g>
</g>
<g>
</g>
<g>
</g>
<g>
</g>
<g>
</g>
<g>
</g>
</svg>
