<?xml version="1.0" encoding="utf-8"?>
<!-- Generator: Adobe Illustrator 18.0.0, SVG Export Plug-In . SVG Version: 6.00 Build 0)  -->
<!DOCTYPE svg PUBLIC "-//W3C//DTD SVG 1.1//EN" "http://www.w3.org/Graphics/SVG/1.1/DTD/svg11.dtd">
<svg version="1.1" id="Layer_1" xmlns="http://www.w3.org/2000/svg" xmlns:xlink="http://www.w3.org/1999/xlink" x="0px" y="0px"
	 viewBox="0 0 66.6 68.6" enable-background="new 0 0 66.6 68.6" xml:space="preserve">
<g>
	<g>
		<path fill="#2368B5" d="M54.4,51.1c-0.6-1.1-1.8-1.8-3.1-1.8c-0.6,0-1.2,0.2-1.8,0.5l-10.5,5.9c-0.1,0.1-0.2,0.2-0.3,0.4
			c-0.2,0.7-0.6,1.8-1.6,2.5c-1.1,0.8-2.6,1-4.5,0.5c0,0,0,0,0,0l-6-1.9c-0.4-0.1-0.6-0.5-0.5-0.9c0.1-0.3,0.4-0.5,0.7-0.5
			c0.1,0,0.1,0,0.2,0l6,1.9c0,0,0,0,0,0c1.4,0.4,2.5,0.3,3.3-0.3c1-0.7,1.1-1.9,1.2-2.1c0,0,0,0,0,0c0,0,0,0,0,0l0,0l0,0
			c0.1-1.5-0.9-2.9-2.3-3.3l0,0c0,0-4.5-1.5-7.3-2.3c-0.3-0.1-1.2-0.3-2.4-0.3c-1.8,0-4.4,0.4-6.9,2.4L8.2,60.2
			C8,60.4,7.9,60.7,8.1,61l5.6,7.4c0.1,0.1,0.2,0.2,0.4,0.2c0,0,0.1,0,0.1,0c0.1,0,0.2,0,0.3-0.1l7.3-5.6c0.2-0.1,0.4-0.2,0.6-0.1
			l11.7,2.8c0.9,0.2,1.8,0.1,2.6-0.4L53.1,56C54.8,55,55.4,52.8,54.4,51.1z"/>
		<g>
			<g>
				<circle fill="#2368B5" cx="53.9" cy="32.4" r="12.8"/>
			</g>
			<path fill="#FFFFFF" d="M47.2,33.3c-0.7,0-1.3,0-2,0c-0.4,0-0.5-0.1-0.5-0.5c0-0.2,0-0.3,0-0.5c0-0.3,0.1-0.4,0.4-0.4
				c0.5,0,1.1,0,1.6,0c0,0,0.1,0,0.1,0c-0.1-0.4-0.2-0.9-0.3-1.3c-0.4,0-0.9,0-1.3,0c-0.4,0-0.5-0.1-0.5-0.5c0-0.2,0-0.3,0-0.5
				c0-0.3,0.1-0.4,0.4-0.4c0.3,0,0.7,0,1,0c-0.2-0.6-0.3-1.2-0.5-1.8c-0.1-0.5-0.3-1.1-0.4-1.6c-0.1-0.3,0-0.5,0.4-0.5
				c0.4,0,0.9,0,1.3,0c0.2,0,0.3,0.1,0.4,0.3c0.3,1.2,0.6,2.3,0.9,3.5c0,0.1,0,0.1,0.1,0.2c0.1,0,0.1,0,0.2,0c1.1,0,2.2,0,3.3,0
				c0.1,0,0.2,0,0.2-0.2c0.3-1.1,0.6-2.3,0.9-3.4c0.1-0.4,0.1-0.4,0.5-0.4c0.3,0,0.7,0,1,0c0.3,0,0.4,0.1,0.5,0.3
				c0.3,1.1,0.6,2.2,0.9,3.4c0,0.2,0.1,0.2,0.3,0.2c1.1,0,2.2,0,3.3,0c0.1,0,0.2,0,0.2,0c0.1-0.5,0.3-1.1,0.4-1.6
				c0.2-0.7,0.4-1.4,0.5-2.1c0.1-0.3,0.1-0.3,0.4-0.3c0.4,0,0.9,0,1.3,0c0.3,0,0.4,0.2,0.4,0.5c-0.3,1.1-0.6,2.2-0.9,3.3
				c0,0.1,0,0.1-0.1,0.2c0.3,0,0.7,0,1,0c0.4,0,0.5,0.1,0.5,0.5c0,0.1,0,0.3,0,0.4c0,0.3-0.1,0.4-0.4,0.4c-0.4,0-0.9,0-1.3,0
				c-0.1,0-0.2,0-0.2,0.2c-0.1,0.4-0.2,0.8-0.3,1.2c0.2,0,0.4,0,0.5,0c0.4,0,0.8,0,1.2,0c0.3,0,0.4,0.1,0.4,0.4c0,0.2,0,0.4,0,0.5
				c0,0.3-0.1,0.4-0.4,0.4c-0.6,0-1.3,0-1.9,0c-0.2,0-0.2,0-0.3,0.2c-0.5,2-1,4-1.6,5.9c-0.1,0.4-0.1,0.4-0.6,0.4
				c-0.4,0-0.9,0-1.3,0c-0.3,0-0.4-0.1-0.4-0.3c-0.5-2-1.1-4.1-1.6-6.1c0,0,0-0.1,0-0.2c-0.1,0-0.1,0-0.2,0c-0.6,0-1.2,0-1.7,0
				c-0.2,0-0.2,0-0.3,0.2c-0.4,1.6-0.9,3.2-1.3,4.8c-0.1,0.4-0.2,0.9-0.4,1.3c-0.1,0.3-0.1,0.3-0.4,0.3c-0.5,0-0.9,0-1.4,0
				c-0.4,0-0.4,0-0.5-0.4c-0.5-2-1-4-1.6-6C47.3,33.4,47.2,33.4,47.2,33.3z M56.6,32c0.8,0,1.6,0,2.4,0c0.1-0.4,0.2-0.9,0.3-1.3
				c-1,0-2,0-3.1,0C56.4,31.1,56.5,31.5,56.6,32z M51.3,32c0.1-0.4,0.2-0.9,0.4-1.3c-1,0-2,0-3,0c0.1,0.4,0.2,0.9,0.3,1.3
				C49.7,32,50.5,32,51.3,32z M57.8,36.4c0.3-1.1,0.5-2.1,0.8-3.1c-0.6,0-1.1,0-1.7,0C57.3,34.3,57.6,35.4,57.8,36.4z M50.9,33.3
				c-0.6,0-1.1,0-1.6,0c0.3,1,0.5,2,0.8,3c0,0,0,0,0,0C50.3,35.3,50.6,34.3,50.9,33.3z M53.2,32c0.5,0,0.9,0,1.4,0
				c-0.1-0.4-0.2-0.9-0.4-1.3c-0.2,0-0.5,0-0.7,0C53.5,31.1,53.4,31.5,53.2,32z"/>
		</g>
		<g>
			<path fill="#2368B5" d="M13,47.4c0,0,1.8-8.8,16.3-8.8v-7.9C29.4,30.7,13,32.2,13,47.4z"/>
			<path fill="#2368B5" d="M37.1,34c-0.3-0.1-8.5,8.9-8.5,8.9V26.6L37.1,34z"/>
		</g>
	</g>
	<g>
		<circle fill="#F6A822" cx="13.3" cy="13.3" r="13.3"/>
		<g>
			<path fill="#032360" d="M6.1,21V10.9H2.5V9c2.1,0,3.6-1.2,3.9-2.8h2.4V21H6.1z"/>
			<path fill="#032360" d="M13.1,8.3c1-1.4,2.5-2.4,4.7-2.4c2.2,0,3.8,1,4.7,2.4c1,1.5,1.3,3.4,1.3,5.3s-0.3,3.8-1.3,5.3
				c-1,1.4-2.5,2.4-4.7,2.4c-2.2,0-3.8-1-4.7-2.4c-1-1.5-1.3-3.4-1.3-5.3S12.1,9.8,13.1,8.3z M15.5,17.9c0.5,0.7,1.2,1.1,2.3,1.1
				c1.1,0,1.8-0.4,2.3-1.1c0.7-0.9,1-2.4,1-4.2s-0.3-3.3-1-4.2c-0.5-0.7-1.2-1.1-2.3-1.1c-1.1,0-1.8,0.4-2.3,1.1
				c-0.7,0.9-1.1,2.4-1.1,4.2S14.8,16.9,15.5,17.9z"/>
		</g>
	</g>
</g>
<g>
</g>
<g>
</g>
<g>
</g>
<g>
</g>
<g>
</g>
<g>
</g>
<g>
</g>
<g>
</g>
<g>
</g>
<g>
</g>
<g>
</g>
<g>
</g>
<g>
</g>
<g>
</g>
<g>
</g>
</svg>
