<?xml version="1.0" encoding="utf-8"?>
<!-- Generator: Adobe Illustrator 18.0.0, SVG Export Plug-In . SVG Version: 6.00 Build 0)  -->
<!DOCTYPE svg PUBLIC "-//W3C//DTD SVG 1.1//EN" "http://www.w3.org/Graphics/SVG/1.1/DTD/svg11.dtd">
<svg version="1.1" id="Layer_1" xmlns="http://www.w3.org/2000/svg" xmlns:xlink="http://www.w3.org/1999/xlink" x="0px" y="0px"
	 viewBox="0 0 353.7 473.7" enable-background="new 0 0 353.7 473.7" xml:space="preserve">
<g>
	<g>
		<path fill="#2368B5" d="M239.6,0c-18.8,0-36.5,4.5-52.1,12.6c0.5,0.1,0.9,0.3,1.3,0.5c1.1,0.6,3,1.7,4.4,2.4
			c2.4,1.3,2.5,1.3,4.1,0.6c1.4-0.6,2.2-0.7,4.2-0.3c2,0.4,2.8,0.3,3.9-0.3c1.1-0.6,1.3-0.9,0.9-1.4c-0.8-1,2.1-1.4,5.7-0.7
			c1.6,0.3,3.7,0.6,4.6,0.7c0.9,0.1,2.7,0.6,3.9,1.1c1.9,0.9,3.4,1.1,8.9,1.2c5.3,0.1,7,0.4,8.3,1c1.3,0.7,2.8,0.9,7.7,0.9
			c4.5,0,6.6,0.3,7.9,0.8c2.2,0.9,3,0.6,1.9-0.7c-0.9-1-0.8-1,2.4-0.6c5.5,0.5,12.1,1.7,14.3,2.6c1.2,0.4,3.4,1,4.9,1.2
			c1.5,0.2,3.8,0.8,5,1.5c1.2,0.6,1.9,0.9,2.5,0.9c0.3,0,0.7-0.1,1.1-0.2c1.6-0.6,2.7-0.2,5.1,2l1.5,1.3l-1.2,0.3
			c-1.2,0.3-4.2-0.5-5.3-1.3c-0.3-0.3-0.8-0.3-1-0.2c0,0-0.1,0-0.2,0c-0.4,0-1.3-0.2-2.2-0.5c-2.6-0.9-3.8-0.6-2.6,0.8
			c0.8,0.9,0.8,0.9-0.8,0.8c-2.9-0.2-2.1,0.7,2.2,2.3c2.3,0.9,4.3,1.7,4.5,1.9c0.4,0.4-1,1-2.1,0.8c-1.2-0.2-4,1-4,1.8
			c0,0.2-0.4,0.9-1,1.4c-0.9,0.9-1.1,0.9-2.3,0.2c-1.2-0.6-1.5-0.6-2.6,0c-0.7,0.4-1.9,0.8-2.7,1c-0.8,0.2-1.7,0.6-2,0.8
			c-0.9,0.8,0.7,3.1,3.1,4.2c1.3,0.6,2.2,1.4,2.5,2.2c0.2,0.7,0.7,1.8,1.1,2.5c0.6,1.1,0.6,1.3,0,1.5c-0.5,0.2-0.6,0.6-0.4,1.1
			c0.2,0.4,0.4,1.3,0.4,2c0.1,0.6,0.3,1.5,0.5,2c0.2,0.6,0,0.9-0.7,1.1c-0.8,0.3-1.4-0.1-2.7-1.5c-0.9-1-2.5-2.5-3.5-3.2
			c-1-0.7-2.7-2.5-3.9-4.1c-2-2.7-2.1-2.8-1.4-4.1c0.4-0.7,0.7-1.8,0.7-2.4c0-0.6,0.3-1.6,0.7-2.2c0.7-1.2,0.4-2.2-1-3.9
			c-1-1.1-2.7-0.3-2.2,1.1c0.4,1.2-0.8,1.6-2.2,0.7c-0.6-0.4-2-0.9-3.1-1c-1.9-0.3-2-0.2-2.5,1c-0.3,0.7-0.4,1.9-0.3,2.6
			c0.2,1.1,0.1,1.3-1.1,1.5c-0.7,0.2-2,0-3.1-0.5c-1.2-0.5-2.2-0.6-3-0.4c-0.7,0.2-3,0.4-5.1,0.4c-3.3,0-4,0.2-5,1.1
			c-0.6,0.6-1.4,2.1-1.7,3.3c-0.3,1.2-0.8,2.7-1.2,3.2c-0.6,1-0.6,1.1,1.3,2c2,1,4.2,1.3,5.8,0.7c1.3-0.4,5.2,2.6,6.4,5
			c0.5,1,1.3,2,1.8,2.3c1.9,1,2.3,7.8,0.7,12.2c-1.1,3-2.4,4-4.2,3.4c-0.7-0.3-1.3-0.5-1.4-0.5c-0.1,0-0.6,0.9-1.2,1.9
			c-0.7,1.4-0.9,2.1-0.5,2.5c0.7,0.8,0.2,1.9-1.2,2.5c-0.6,0.3-1.2,0.7-1.2,1c0,0.3,1.5,1.5,3.3,2.7c2.3,1.6,3.5,2.8,4.1,4
			c0.4,1,0.7,1.8,0.6,1.9c-0.1,0.1-1.1,0.6-2.1,1.2l-1.9,1l-1.2-2.7c-1.3-3-2.4-4.2-4.4-4.7c-1-0.3-1.3-0.6-1.3-1.5
			c0-0.7-0.5-1.4-1.5-2c-1.5-0.9-1.5-0.9-3.1,0.1c-1.6,1-1.6,1-2.1,0.1c-0.3-0.5-0.5-1.3-0.5-1.6c0-0.4-0.4-0.9-0.9-1.2
			c-0.7-0.4-1.2-0.2-2.5,1.3c-0.9,1-2,2-2.5,2.3c-0.8,0.4-0.8,0.6-0.3,1.3c0.3,0.4,1.5,1.3,2.7,1.9c1.8,1,2.1,1,2.7,0.4
			c0.6-0.6,1-0.6,2.7-0.1l2.1,0.6l-1.2,0.8c-2.1,1.4-2.8,2.2-3.1,3.5c-0.3,1.1-0.1,1.4,0.8,1.8c0.6,0.3,1.6,1.4,2.1,2.6
			c0.5,1.1,1.6,2.4,2.4,2.9c1.7,1,2.2,2.1,1.2,2.6c-0.9,0.5-0.5,1.3,0.7,1.3c1.5,0,1.5,0.9,0.1,5.9c-1.7,6.1-3.3,8.1-7.3,9.6
			c-1.6,0.6-3.5,1.1-4.3,1.1c-1.8,0.1-3.2,0.9-4.4,2.4l-1,1.2l-0.4-1.2c-0.6-1.5-1.9-1.9-3.9-1.1c-1.8,0.8-2.9,2-3.4,3.5
			c-0.4,1.4,1.1,3.8,3.6,5.8c2,1.6,4.3,5.6,4.8,8.6c0.5,2.6-0.4,4.2-2.6,5.2c-1,0.5-2,1.2-2.1,1.7c-0.4,1.1-2.4,2.5-2.8,1.8
			c-0.2-0.3-0.2-0.9,0-1.3c0.2-0.5,0.1-1.2,0-1.6c-0.2-0.6-0.5-0.7-1.2-0.3c-0.8,0.4-1.1,0.3-1.7-0.6c-1.5-2.2-6-5.8-7.2-5.8
			c-0.4,0-0.6,0.5-0.5,1.6c0.1,0.9-0.1,2.7-0.4,3.9c-0.1,0.6-0.2,1.1-0.3,1.5c-0.1,0.9,0.1,1.3,0.7,2.1c0.5,0.7,1.1,1.9,1.3,2.5
			c0.1,0.3,0.3,0.6,0.6,1c0.6,0.7,1.5,1.6,2.4,2.4c2.6,2.1,2.9,2.5,4,5.9c0.6,2,1.2,3.9,1.2,4.1c0,0.8-1,0.5-3-1
			c-2.1-1.5-3.5-3.9-4.6-8.2c-0.4-1.4-0.8-2.2-1.6-3c-0.3-0.3-0.6-0.5-1-0.8c-1.9-1.4-1.9-1.5-1.8-3.8c0-0.5,0.1-1,0.1-1.6
			c0.1-0.9,0.2-1.9,0.3-2.5c0.2-1.3,0-2.3-0.9-4.2c-0.7-1.4-1.4-3.5-1.7-4.7c-0.7-2.7-1.6-3.2-3.2-1.6c-0.7,0.6-1.4,1.2-1.5,1.2
			c-0.7,0-1.8-1.6-1.5-2.4c0.4-1.4-2.3-6.3-3.9-7c-0.9-0.4-1.7-1.3-2.2-2.4c-0.9-2.1-2-2.9-3-2.3c-0.4,0.2-1.9,0.6-3.4,0.9
			c-2.7,0.6-3.7,1.4-3.3,2.8c0.1,0.5-0.3,1-1.5,1.6c-0.9,0.4-1.9,1.3-2.2,2c-0.3,0.6-0.9,1.3-1.4,1.5c-0.5,0.2-1.3,0.9-1.7,1.6
			c-0.4,0.7-1.7,2-2.9,2.9c-1.6,1.2-2.1,1.9-2,2.8c0.5,5-0.2,9.2-2,11.7c-1.7,2.4-1.8,2.5-3.2,1.9c-0.8-0.4-1.3-1.1-1.5-2.1
			c-0.2-0.9-1.1-3.3-2.1-5.5c-6-12.9-6.9-15.4-6.4-17.7c0.4-1.6-0.5-4-1.3-3.7c-0.3,0.1-0.6,0.5-0.6,0.9c0,2.1-2.4,2.5-4.3,0.6
			l-1.3-1.2l1.1-0.4c1.2-0.4,1.1-1.7-0.1-1.4c-0.4,0.1-1.4-0.4-2.2-1.1c-0.8-0.7-1.6-1.2-1.8-1.2c-0.2,0-0.5-0.4-0.7-0.9
			c-0.4-1.4-2.9-2.5-4.2-2c-0.7,0.3-4.3,0.4-7.7,0.3c-0.1,1.9-0.1,3.7-0.1,5.6c0,58.3,43.7,106.4,100.1,113.3c0-0.2-0.1-0.5-0.1-0.7
			c-0.4-2-0.4-3.9,0-6.9c0.3-2.3,0.4-4.6,0.2-5.2c-0.1-0.6,0.1-1.9,0.5-3c0.7-1.9,0.9-2.1,6-4.2c2.9-1.2,5.8-2.2,6.5-2.2
			c1.9,0,4.4-1.9,5.7-4.4c0.8-1.5,1.4-2.1,1.9-2c1.4,0.5,1.6,0.4,1.5-0.6c-0.1-0.7,0.2-1.1,0.8-1.3c0.5-0.2,1.4-1,2-1.9
			c0.6-0.9,1.9-1.9,2.9-2.4c1.7-0.7,1.9-0.7,2.8,0.2c1.7,1.6,2.9,2,3.5,1.3c0.3-0.3,0.4-0.8,0.2-0.9c-0.5-0.5,1.9-3.6,3.1-3.9
			c0.6-0.2,2-0.7,3-1.2c1.5-0.8,2.1-0.8,3.8-0.4c3.7,1,3.8,1.2,2.4,3.2c-1.8,2.7-1.3,3.7,3,6.7c2,1.4,3.9,2.5,4.2,2.4
			c0.3-0.1,1.3-1.2,2.1-2.4c1.2-1.6,1.7-2.8,1.8-4.8c0.3-2.8,1.6-6.6,2.3-6.6c0.2,0,0.7,1.1,1.1,2.5c0.4,1.4,1.3,3,1.9,3.6
			c1.5,1.4,2.3,5.2,1.7,7.5c-0.4,1.5-0.4,1.8,1.1,3.3c0.9,0.9,2.3,3.1,3.1,4.9c0.6,1.4,1.6,3.2,2.5,4.5c0.7-0.4,1.4-0.8,2.1-1.3
			c-0.3,0-0.5,0-0.7-0.2c-1.1-0.7-0.3-1.2,1.4-1c0.5,0.1,0.8,0.1,0.9,0.2c31.8-20.3,52.8-55.8,52.8-96.3C353.7,51.1,302.6,0,239.6,0
			z M291.7,163.5c0.3,0,0.6,0.3,0.6,0.6c0,0.3-0.1,0.6-0.3,0.6c-0.1,0-0.4-0.3-0.6-0.6C291.3,163.7,291.4,163.5,291.7,163.5z
			 M286.9,147.6c0.1,0,0.4,0.3,0.6,0.6c0.2,0.3,0.1,0.6-0.3,0.6c-0.3,0-0.6-0.3-0.6-0.6C286.6,147.8,286.8,147.6,286.9,147.6z
			 M270.6,145.7c0.3-0.2,0.5-0.1,0.5,0.2c0,0.3-0.2,0.6-0.5,0.8c-0.3,0.2-0.5,0.1-0.5-0.2C270.2,146.2,270.4,145.8,270.6,145.7z
			 M260.5,67.2c0.9,0.7,2.7,1.6,4,1.9c2.6,0.8,3.3,1.4,1.9,1.8c-0.5,0.2-0.9,0.6-0.9,1c0,0.5-0.3,0.6-1.3,0.4
			c-2.5-0.6-3.2-0.5-3,0.7c0.2,1.4-0.1,1.3-1.3-0.3c-0.9-1.2-0.9-1.4-0.2-2.3c0.6-0.9,0.6-1.2,0-2.4
			C258.6,65.9,258.7,65.8,260.5,67.2z M250.2,53.4c-1.9-2.2-2.9-3.6-2.6-3.7c0.3-0.1,1,0.4,1.6,1.1c1.3,1.7,2.9,3.2,5.4,5.1
			c2.1,1.5,3.1,3,1.8,2.4c-1.5-0.6-1.2,0.8,0.8,3.1c1.2,1.3,2.1,2.5,2.1,2.6c0,0.6-1.8,0.1-2.5-0.6c-0.4-0.4-1.4-2.1-2.1-3.6
			C254,58.2,251.9,55.3,250.2,53.4z M252.9,91.2c1.3,0.8,1.9,2.5,1.5,3.8c-0.4,0.9-1.1,1-1.1,0.1c0-0.4-0.5-1.3-1.1-2
			C250.6,91.2,251.1,90,252.9,91.2z M253,137.7c1.1,1.6-0.3,1.5-1.6-0.1c-0.5-0.7-0.9-1.3-0.8-1.4C251,135.8,252.3,136.6,253,137.7z
			 M250.4,138.8c0.5,0,1.1,1.9,0.8,2.3c-0.1,0.1-0.4-0.2-0.5-0.7c-0.2-0.5-0.4-1-0.5-1.2C250,139,250.1,138.8,250.4,138.8z
			 M252,143.8c0.7-0.6,1.3-1.6,1.3-2c0-1.2,1.8,2.8,2.2,4.9c0.3,1.6,0.3,1.7-0.5,1.1c-1.1-0.9-2.1,0-1.3,1.1
			c0.4,0.4,0.4,0.7,0.1,0.7c-0.3,0-0.8,0.1-1.2,0.3c-0.5,0.2-1-0.3-1.7-1.9c-0.9-2.1-1-2.2-2.4-1.9c-1.4,0.3-1.4,0.3-0.9-0.7
			c0.4-0.8,0.8-1,1.8-0.7C250.4,144.9,251,144.7,252,143.8z M247,138.8c-0.5,0.9-0.7,1-1.1,0.5c-0.7-0.8,0-1.9,1-1.7
			C247.4,137.7,247.5,137.9,247,138.8z M247.5,140.9c0.3-0.6,0.5-0.6,0.9,0c0.4,0.5,0.4,0.9-0.1,1.5c-0.6,0.8-0.6,0.8-0.9,0
			C247.3,142,247.3,141.3,247.5,140.9z M244.5,125c0.7,1.5,0.7,1.8,0,3.3c-0.7,1.7-0.7,1.8,0.6,3.1c0.9,0.9,1.6,1.3,2.3,1.1
			c0.6-0.2,1.3,0,1.6,0.5c0.8,1,0.5,1.7-0.6,1.1c-0.5-0.3-1.4-0.4-2-0.2c-0.9,0.2-1.5-0.1-3.2-1.9c-2.4-2.5-2.9-3.5-2.2-4.8
			c0.3-0.5,0.5-1.6,0.5-2.3C241.5,122.3,243.2,122.4,244.5,125z M244.7,136.3c-0.1,0.2-0.6-0.1-1-0.5c-0.4-0.4-0.8-1-0.8-1.3
			c0-0.3,0.5-0.1,1,0.5C244.5,135.5,244.9,136.1,244.7,136.3z M239,110.6c1.1-1.9,1.8-2.1,2.2-0.7c0.4,1.5-0.7,5.1-1.4,4.7
			c-0.3-0.2-0.8-0.8-1.1-1.4C238.3,112.2,238.3,111.8,239,110.6z M239.4,141c1.7-1.9,2.1-2.1,2.1-1.4c0,0.5-0.7,1.7-1.6,2.7
			c-1.5,1.6-2.6,2.2-2.6,1.4C237.3,143.5,238.2,142.2,239.4,141z M218.6,122.8c-1.2-1.2,0-2.7,2.3-2.7c1,0,1,0,0.1,1.5
			C220,123.3,219.4,123.6,218.6,122.8z M212.1,173.9c-1.7-1-4.8-4.8-5.9-7.2c-0.5-1.3-1.8-3.4-2.8-4.7c-1-1.3-2.1-3-2.5-3.8
			c-0.4-0.8-1.6-2.2-2.7-3.3c-2.3-2.2-3.7-4.5-2.7-4.5c1.2,0,4.4,1.8,5.8,3.2c3.8,3.9,4.5,4.6,6.3,5.7c1.7,1.1,2.5,2.1,2.6,3.5
			c0,0.3,0.5,1,1.1,1.6c0.6,0.6,1.7,1.9,2.4,2.7c0.8,0.8,1.5,2.1,1.7,2.9C216,172.8,214,175,212.1,173.9z M233.2,180.3
			c-0.1,0.2-0.5,0.4-0.8,0.3c-0.3,0-1.9-0.3-3.6-0.5c-1.7-0.2-4-0.7-5.3-1.1c-1.2-0.4-2.6-0.6-3.2-0.4c-1.1,0.3-5.6-1-5.6-1.7
			c0-1.5,4.2-1.6,6.4-0.2c0.8,0.5,1.5,0.6,3.3,0.2c2-0.4,2.4-0.4,3.5,0.5c0.7,0.5,1.5,1,1.8,1C230.7,178.3,233.5,179.9,233.2,180.3z
			 M239.5,181.1c-0.3,0-1,0.1-1.6,0.2c-0.5,0.1-1.2,0.1-1.5,0c-0.3-0.1-0.5-0.4-0.3-0.7c0.4-0.6,3.4-0.5,3.7,0
			C240,180.9,239.9,181.1,239.5,181.1z M239.6,158.6l0.9,1.3l-1.2,0.8c-0.6,0.4-1.2,1-1.2,1.3c0,1.1-3,7.3-3.8,7.8
			c-0.5,0.3-1.1,0.3-2-0.2c-0.7-0.4-1.7-0.6-2.1-0.4c-1.2,0.4-5.8-0.6-6.3-1.3c-0.4-0.6-1.4-4-2-6.4c-0.2-0.7,0-1.5,0.4-2.1
			c0.5-0.7,0.8-0.8,1.7-0.3c0.9,0.5,1.1,0.4,1.6-0.7c0.3-0.7,1.3-1.6,2.3-2.1c1-0.5,2-1.5,2.3-2.3c0.4-1,1.1-1.6,2.2-1.9
			c0.9-0.3,2.1-1.3,2.8-2.1c0.7-0.9,1.5-1.6,1.8-1.6c0.3,0,1.2,0.7,2.1,1.5l1.5,1.5l-1.2,1.6C238,154.8,238.1,156.4,239.6,158.6z
			 M243.4,183.6c-0.1,0.1-0.7-0.1-1.4-0.4c-0.7-0.4-0.9-0.6-0.5-0.7C242.3,182.5,243.7,183.3,243.4,183.6z M245.7,181.3
			c-1.2,0.2-1.9,0.1-2.2-0.4c-0.9-1,0.1-1.3,2.3-0.7C248,180.8,248,180.9,245.7,181.3z M248.5,164.9c-1.6,0.9-2,1.9-1.1,3.5
			c0.4,0.7,0.7,1.9,0.7,2.6c0,1.1-0.1,1.2-0.9,0.7c-0.5-0.3-1.3-1.3-1.7-2.2c-0.7-1.7-0.7-1.7-1.6-0.8c-0.8,0.8-0.9,1.2-0.4,2.7
			c0.4,1.4,0.4,2.1-0.1,2.4c-0.8,0.5-1.2,0.1-1.6,0.1h0c-0.2-1-0.2-1.1,0-1.6c0.2-0.5,0-1.5-0.4-2.1c-0.7-1-0.6-1.3,0.1-2.3
			c0.4-0.6,0.9-2.3,1.1-3.7c0.2-1.7,0.7-2.9,1.5-3.7c1-1,1.3-1.1,3.6-0.6c2,0.4,2.8,0.3,3.8-0.2c1.8-0.9,1.9-0.9,1.3,0.4
			c-0.6,1.4-1.8,2-3.1,1.7c-0.2-0.1-0.5-0.2-0.7-0.3c-2.9-1.5-6.7,0.7-4.7,2.7c0.7,0.7,1.2,0.8,2.5,0.4c1-0.3,1.8-0.4,2.2-0.4
			C249.4,164.2,249.3,164.5,248.5,164.9z M255.6,181.1c-0.7,0-2.2,0.7-3.4,1.5c-2.8,1.8-3.5,1.8-2.2,0.1c1.3-1.9,3.4-2.7,5.4-2.1
			C256.7,181,256.7,181,255.6,181.1z M258.1,162.3c-0.4-0.4-0.4-0.8-0.1-1.4c0.3-0.5,0.4-1.1,0.2-1.3c-0.4-0.7,0.6-2.4,1.5-2.4
			c0.7,0,0.7,0.1,0,0.9c-0.6,0.7-0.7,1.1-0.3,2.1C260.1,162.1,259.3,163.5,258.1,162.3z M262.4,169.4c-1,0.4-1.5,0.4-2.7,0.1
			c-1-0.3-1.1-1.1-0.2-1.1c0.4,0,1.3,0.1,2.2,0.3C263.1,169,263.2,169.1,262.4,169.4z M261.4,90.8l-0.4,1l-0.8-0.8
			c-0.5-0.5-1.3-0.8-2.4-0.8c0.3,0.3,0.1,1.1-0.4,1.6c-0.8,0.8-1.2,0.7-1.5-0.2c-0.2-0.5,0-1,0.5-1.3c-0.4,0.1-0.9,0.1-1.4,0.2
			c-1.2,0.2-2,0.2-2.6,0c-0.4-0.2-0.6-0.3-0.3-0.3c0.3,0,1.2-0.4,2-0.8c1-0.5,1.7-0.7,2.5-0.6c0.8,0.1,1.7-0.1,3.7-1
			c3.7-1.8,4.1-2.3,2.5-4.3c-1.5-1.8-1.1-2.4,1.1-1.6c1.6,0.6,3,2.3,2.6,3c-0.2,0.3,0.1,1.1,0.5,1.8c0.6,1,0.7,1.5,0.3,2
			c-0.6,0.7-2.3,1.2-4.2,1.2C262.1,89.9,261.8,90.1,261.4,90.8z M295,181.6c-1.3-2-3.8-3.5-5-3.1c-0.5,0.2-1.4,1-1.9,1.9
			c-0.9,1.5-1.1,1.6-2.7,1.3c-1-0.2-2.3-0.8-3-1.5c-0.9-0.8-1.5-1.1-2.2-0.9c-0.5,0.2-1.3,0.1-1.7-0.1c-0.6-0.4-0.6-0.5,0.4-1.2
			c1.2-0.8,1.2-0.8,0.4-2.5c-0.6-1.3-1.5-2.1-4.4-3.5c-2-1-4.3-1.8-5-1.8c-1.7,0-2.5-1.6-1.2-2.6c0.8-0.6,0.7-0.7-1.4-1.7
			c-2.2-1.1-2.2-1.1-1.2-1.7c0.6-0.3,1.5-0.6,2.1-0.6c1.1,0,2.5,1.6,2.5,2.9c0,0.4,0.4,1.3,1,2.1c1,1.3,1,1.3,1.8,0.4
			c0.4-0.5,1.7-1.5,2.9-2.2l2.2-1.2l3,1.4c1.7,0.7,4,1.7,5.2,2.1c1.2,0.4,3.6,1.7,5.4,2.9c3.3,2.2,4.8,4,4,5.1
			c-0.7,0.8,2,4.6,4.7,6.6c3,2.3,3,2.5-0.4,1.5C297.5,184.2,296.1,183.4,295,181.6z M302.6,193.1c-0.3,0-0.6-0.1-0.6-0.3
			c0-0.1,0.3-0.4,0.6-0.6c0.3-0.2,0.6-0.1,0.6,0.3C303.1,192.8,302.9,193.1,302.6,193.1z M303.5,175.2c-1.8,1.4-1.7,1.3-3.3,0.5
			l-1.2-0.6l1.8-0.3c1-0.2,2.5-1,3.4-1.7c1-0.8,1.6-1.1,1.6-0.8C305.8,173.2,305.3,174,303.5,175.2z M307.2,171.8
			c-0.1,0.3-0.5,0-1-0.7c-0.4-0.7-1.4-1.6-2.2-2c-0.8-0.4-1.3-0.9-1.2-1C303.4,167.4,307.5,170.7,307.2,171.8z M311.1,177.6
			c-0.2,0.1-0.7,0-0.9-0.3c-0.3-0.3-0.6-1.2-0.8-2c-0.3-1.3-0.2-1.3,0.3-0.5c0.3,0.5,0.9,1.3,1.2,1.7
			C311.3,176.9,311.4,177.4,311.1,177.6z M312.8,176.9c0.3,0,0.8,0.4,1.3,0.9c0.5,0.5,0.6,0.9,0.4,0.9c-0.3,0-0.9-0.4-1.3-0.9
			C312.7,177.3,312.5,176.9,312.8,176.9z M314.9,181.6c-0.2,0-0.6-0.4-1-0.9c-0.3-0.5-0.4-0.9-0.1-0.9c0.3,0,0.7,0.4,1,0.9
			C315,181.2,315.1,181.6,314.9,181.6z M317.6,180c0.6,0.6,0.9,1.2,0.6,1.2c-0.3,0-0.9-0.4-1.3-0.9
			C315.6,178.8,316.3,178.6,317.6,180z M318.1,183.2c-0.6-0.8-0.5-0.9,0.7-0.4c0.4,0.2,0.7,0.5,0.7,0.7
			C319.5,184.2,318.7,184,318.1,183.2z M335,163c0.3-0.2,0.5-0.1,0.5,0.2c0,0.3-0.2,0.5-0.5,0.5c-0.3,0-0.5-0.1-0.5-0.2
			S334.7,163.2,335,163z M321.7,185.6c-0.1,0.1-0.5-0.1-0.8-0.5c-0.4-0.4-0.4-0.7-0.1-0.7C321.4,184.4,322,185.3,321.7,185.6z
			 M320.8,183.2c-0.1,0.3-0.3,0.1-0.5-0.4c-0.2-0.5-0.3-1.2-0.3-1.6c0-0.5,0.2-0.4,0.5,0.4C320.7,182.2,320.8,182.9,320.8,183.2z"/>
		<path fill="#73B564" d="M302.6,192.2c-0.3,0.2-0.6,0.5-0.6,0.6c0,0.1,0.3,0.3,0.6,0.3c0.3,0,0.6-0.3,0.6-0.6
			C303.1,192.1,302.9,192,302.6,192.2z"/>
		<path fill="#73B564" d="M298.5,211.2c0.2,0.1,0.5,0.2,0.7,0.2c0.5-0.3,1.1-0.7,1.6-1c-0.2-0.1-0.5-0.1-0.9-0.2
			C298.2,210,297.4,210.5,298.5,211.2z"/>
		<path fill="#73B564" d="M292.1,164.6c0.1,0,0.3-0.3,0.3-0.6c0-0.3-0.3-0.6-0.6-0.6c-0.3,0-0.4,0.3-0.2,0.6
			C291.7,164.4,291.9,164.6,292.1,164.6z"/>
		<path fill="#73B564" d="M287.2,148.7c0.3,0,0.4-0.3,0.3-0.6c-0.2-0.3-0.5-0.6-0.6-0.6c-0.1,0-0.3,0.3-0.3,0.6
			C286.6,148.4,286.9,148.7,287.2,148.7z"/>
		<path fill="#73B564" d="M335,163.7c0.3,0,0.5-0.2,0.5-0.5c0-0.3-0.2-0.4-0.5-0.2c-0.3,0.2-0.5,0.4-0.5,0.5S334.7,163.7,335,163.7z
			"/>
		<path fill="#73B564" d="M320.9,185.1c0.3,0.4,0.7,0.6,0.8,0.5c0.3-0.3-0.3-1.2-0.9-1.2C320.5,184.4,320.5,184.7,320.9,185.1z"/>
		<path fill="#73B564" d="M320,181.2c0,0.4,0.1,1.2,0.3,1.6c0.2,0.5,0.4,0.6,0.5,0.4c0.1-0.3,0-1-0.3-1.6
			C320.2,180.8,320,180.7,320,181.2z"/>
		<path fill="#73B564" d="M318.7,182.8c-1.2-0.4-1.3-0.3-0.7,0.4c0.6,0.8,1.4,0.9,1.4,0.3C319.5,183.3,319.1,183,318.7,182.8z"/>
		<path fill="#73B564" d="M317.6,180c-1.3-1.4-2-1.2-0.7,0.2c0.5,0.5,1.1,0.9,1.3,0.9C318.5,181.1,318.2,180.6,317.6,180z"/>
		<path fill="#73B564" d="M313.8,179.7c-0.3,0-0.2,0.4,0.1,0.9c0.3,0.5,0.7,0.9,1,0.9c0.2,0,0.1-0.4-0.1-0.9
			C314.5,180.1,314.1,179.7,313.8,179.7z"/>
		<path fill="#73B564" d="M314.1,177.8c-0.5-0.5-1.1-0.9-1.3-0.9c-0.3,0-0.1,0.4,0.4,0.9c0.5,0.5,1.1,0.9,1.3,0.9
			C314.7,178.8,314.5,178.4,314.1,177.8z"/>
		<path fill="#73B564" d="M309.6,174.8c-0.5-0.8-0.5-0.8-0.3,0.5c0.2,0.8,0.5,1.7,0.8,2c0.3,0.3,0.7,0.5,0.9,0.3
			c0.3-0.2,0.2-0.6-0.2-1.1C310.5,176.1,310,175.3,309.6,174.8z"/>
		<path fill="#73B564" d="M302.7,168.1c-0.1,0.1,0.4,0.6,1.2,1c0.8,0.4,1.8,1.3,2.2,2c0.5,0.7,0.9,1,1,0.7
			C307.5,170.7,303.4,167.4,302.7,168.1z"/>
		<path fill="#73B564" d="M304.3,173c-0.9,0.8-2.4,1.5-3.4,1.7l-1.8,0.3l1.2,0.6c1.5,0.9,1.4,0.9,3.3-0.5c1.8-1.3,2.3-2,2.3-3
			C305.8,171.9,305.2,172.2,304.3,173z"/>
		<path fill="#73B564" d="M300.8,183.7c-2.8-2.1-5.4-5.8-4.7-6.6c0.8-1-0.6-2.9-4-5.1c-1.8-1.2-4.2-2.5-5.4-2.9
			c-1.2-0.4-3.6-1.4-5.2-2.1l-3-1.4l-2.2,1.2c-1.2,0.7-2.5,1.7-2.9,2.2c-0.7,0.9-0.8,0.9-1.8-0.4c-0.6-0.7-1-1.6-1-2.1
			c0-1.3-1.4-2.9-2.5-2.9c-0.6,0-1.5,0.3-2.1,0.6c-1,0.6-1,0.6,1.2,1.7c2,1,2.1,1.1,1.4,1.7c-1.3,1-0.6,2.6,1.2,2.6
			c0.8,0,3,0.8,5,1.8c2.9,1.5,3.8,2.2,4.4,3.5c0.8,1.7,0.8,1.7-0.4,2.5c-1,0.7-1.1,0.8-0.4,1.2c0.4,0.2,1.2,0.3,1.7,0.1
			c0.7-0.2,1.3,0,2.2,0.9c0.7,0.6,2,1.3,3,1.5c1.7,0.3,1.8,0.2,2.7-1.3c0.5-0.9,1.4-1.8,1.9-1.9c1.3-0.4,3.7,1.1,5,3.1
			c1.2,1.7,2.5,2.6,5.5,3.5C303.8,186.2,303.8,186,300.8,183.7z"/>
		<path fill="#73B564" d="M291.5,203.2c-1.5-1.5-1.6-1.8-1.1-3.3c0.7-2.3-0.2-6.1-1.7-7.5c-0.6-0.6-1.5-2.2-1.9-3.6
			c-0.4-1.4-0.9-2.5-1.1-2.5c-0.7,0-2,3.8-2.3,6.6c-0.2,1.9-0.6,3.1-1.8,4.8c-0.9,1.2-1.8,2.3-2.1,2.4c-0.3,0.1-2.2-1-4.2-2.4
			c-4.3-3-4.8-4.1-3-6.7c1.4-2.1,1.3-2.2-2.4-3.2c-1.7-0.5-2.2-0.4-3.8,0.4c-1,0.5-2.3,1-3,1.2c-1.2,0.3-3.7,3.4-3.1,3.9
			c0.2,0.2,0.1,0.6-0.2,0.9c-0.6,0.7-1.8,0.2-3.5-1.3c-0.9-0.8-1.1-0.9-2.8-0.2c-1,0.4-2.3,1.4-2.9,2.4c-0.6,0.9-1.5,1.7-2,1.9
			c-0.6,0.2-0.8,0.7-0.8,1.3c0.1,1-0.2,1.1-1.5,0.6c-0.5-0.2-1.1,0.4-1.9,2c-1.3,2.5-3.7,4.4-5.7,4.4c-0.7,0-3.6,1-6.5,2.2
			c-5,2.1-5.2,2.3-6,4.2c-0.4,1.1-0.6,2.5-0.5,3c0.1,0.6,0,2.9-0.2,5.2c-0.4,3.1-0.4,4.9,0,6.9c0.1,0.3,0.1,0.5,0.1,0.7
			c4.6,0.6,9.2,0.9,14,0.9c21,0,40.6-5.7,57.5-15.6c-0.9-1.4-1.9-3.2-2.5-4.5C293.8,206.3,292.4,204.1,291.5,203.2z"/>
		<path fill="#73B564" d="M284.8,25.8c0.2-0.1,0.7-0.1,1,0.2c1.1,0.8,4.1,1.6,5.3,1.3l1.2-0.3l-1.5-1.3c-2.5-2.1-3.5-2.5-5.1-2
			c-0.4,0.1-0.7,0.2-1.1,0.2l0.1,1.9C284.7,25.9,284.8,25.9,284.8,25.8z"/>
		<path fill="#73B564" d="M133.3,108.2c1.3-0.6,3.7,0.6,4.2,2c0.2,0.5,0.5,0.9,0.7,0.9c0.2,0,1,0.5,1.8,1.2c0.8,0.7,1.8,1.1,2.2,1.1
			c1.2-0.2,1.3,1,0.1,1.4l-1.1,0.4l1.3,1.2c1.9,1.9,4.3,1.6,4.3-0.6c0-0.4,0.3-0.7,0.6-0.9c0.8-0.3,1.6,2.1,1.3,3.7
			c-0.5,2.3,0.4,4.8,6.4,17.7c1,2.1,1.9,4.6,2.1,5.5c0.2,1.1,0.7,1.8,1.5,2.1c1.4,0.6,1.5,0.6,3.2-1.9c1.7-2.5,2.4-6.7,2-11.7
			c-0.1-0.9,0.4-1.5,2-2.8c1.2-0.9,2.5-2.2,2.9-2.9c0.4-0.7,1.2-1.4,1.7-1.6c0.5-0.2,1.1-0.8,1.4-1.5c0.3-0.6,1.3-1.5,2.2-2
			c1.1-0.5,1.6-1,1.5-1.6c-0.4-1.4,0.6-2.2,3.3-2.8c1.5-0.3,3-0.7,3.4-0.9c1.1-0.6,2.1,0.2,3,2.3c0.5,1.2,1.3,2.1,2.2,2.4
			c1.6,0.7,4.4,5.6,3.9,7c-0.2,0.8,0.8,2.4,1.5,2.4c0.2,0,0.9-0.5,1.5-1.2c1.7-1.6,2.6-1.1,3.2,1.6c0.3,1.2,1.1,3.3,1.7,4.7
			c0.9,1.9,1.1,2.9,0.9,4.2c-0.1,0.6-0.2,1.5-0.3,2.5l1.6,0.2c0-0.4,0.1-0.8,0.3-1.5c0.3-1.3,0.5-3,0.4-3.9
			c-0.1-1.1,0.1-1.6,0.5-1.6c1.2,0,5.7,3.6,7.2,5.8c0.6,0.9,0.9,1,1.7,0.6c0.7-0.4,1-0.3,1.2,0.3c0.2,0.4,0.2,1.2,0,1.6
			c-0.2,0.5-0.2,1.1,0,1.3c0.4,0.6,2.5-0.7,2.8-1.8c0.1-0.5,1.1-1.2,2.1-1.7c2.2-1,3-2.7,2.6-5.2c-0.5-2.9-2.8-7-4.8-8.6
			c-2.5-2-4-4.4-3.6-5.8c0.5-1.5,1.6-2.7,3.4-3.5c1.9-0.8,3.3-0.4,3.9,1.1l0.4,1.2l1-1.2c1.2-1.5,2.6-2.3,4.4-2.4
			c0.8,0,2.7-0.5,4.3-1.1c4-1.5,5.6-3.5,7.3-9.6c1.4-5,1.4-5.9-0.1-5.9c-1.2,0-1.7-0.8-0.7-1.3c1-0.5,0.5-1.6-1.2-2.6
			c-0.8-0.5-1.9-1.8-2.4-2.9c-0.5-1.1-1.5-2.3-2.1-2.6c-0.9-0.4-1.1-0.7-0.8-1.8c0.3-1.3,1-2,3.1-3.5l1.2-0.8l-2.1-0.6
			c-1.7-0.5-2.2-0.4-2.7,0.1c-0.6,0.6-0.9,0.5-2.7-0.4c-1.1-0.6-2.3-1.5-2.7-1.9c-0.5-0.6-0.5-0.8,0.3-1.3c0.5-0.3,1.6-1.3,2.5-2.3
			c1.3-1.4,1.8-1.7,2.5-1.3c0.5,0.3,0.9,0.8,0.9,1.2c0,0.4,0.2,1.1,0.5,1.6c0.5,0.9,0.5,0.9,2.1-0.1c1.6-1,1.6-1,3.1-0.1
			c1,0.6,1.5,1.3,1.5,2c0,0.8,0.3,1.2,1.3,1.5c2,0.5,3.1,1.7,4.4,4.7L244,89l1.9-1c1.1-0.5,2-1.1,2.1-1.2c0.1-0.1-0.2-1-0.6-1.9
			c-0.6-1.3-1.8-2.5-4.1-4c-1.8-1.2-3.3-2.5-3.3-2.7c0-0.2,0.5-0.7,1.2-1c1.4-0.6,1.9-1.7,1.2-2.5c-0.4-0.4-0.2-1.1,0.5-2.5
			c0.5-1.1,1.1-1.9,1.2-1.9c0.1,0,0.7,0.2,1.4,0.5c1.8,0.7,3.1-0.3,4.2-3.4c1.6-4.4,1.2-11.1-0.7-12.2c-0.5-0.3-1.3-1.3-1.8-2.3
			c-1.2-2.4-5.1-5.4-6.4-5c-1.7,0.6-3.8,0.3-5.8-0.7c-1.8-0.9-1.9-1-1.3-2c0.4-0.6,0.9-2,1.2-3.2c0.3-1.2,1.1-2.7,1.7-3.3
			c1-1,1.7-1.1,5-1.1c2.1,0,4.4-0.2,5.1-0.4c0.8-0.2,1.9-0.1,3,0.4c1.1,0.4,2.3,0.6,3.1,0.5c1.1-0.2,1.3-0.5,1.1-1.5
			c-0.1-0.7,0-1.9,0.3-2.6c0.5-1.3,0.6-1.3,2.5-1c1.1,0.2,2.5,0.6,3.1,1c1.4,0.9,2.6,0.5,2.2-0.7c-0.4-1.3,1.3-2.2,2.2-1.1
			c1.4,1.7,1.7,2.6,1,3.9c-0.4,0.6-0.7,1.7-0.7,2.2c0,0.6-0.3,1.7-0.7,2.4c-0.7,1.3-0.6,1.4,1.4,4.1c1.2,1.5,2.9,3.4,3.9,4.1
			c1,0.7,2.5,2.1,3.5,3.2c1.4,1.5,1.9,1.8,2.7,1.5c0.7-0.2,0.9-0.5,0.7-1.1c-0.2-0.4-0.4-1.3-0.5-2c-0.1-0.6-0.3-1.5-0.4-2
			c-0.2-0.5-0.1-0.9,0.4-1.1c0.7-0.3,0.7-0.4,0-1.5c-0.4-0.7-0.9-1.8-1.1-2.5c-0.3-0.8-1.2-1.6-2.5-2.2c-2.3-1.1-4-3.4-3.1-4.2
			c0.3-0.3,1.2-0.6,2-0.8c0.8-0.2,2-0.6,2.7-1c1.1-0.6,1.5-0.5,2.6,0c1.2,0.6,1.4,0.6,2.3-0.2c0.5-0.5,1-1.1,1-1.4
			c0-0.7,2.9-2,4-1.8c1.1,0.2,2.5-0.3,2.1-0.8c-0.1-0.1-2.1-1-4.5-1.9c-4.3-1.7-5.1-2.5-2.2-2.3c1.6,0.1,1.6,0.1,0.8-0.8
			c-1.2-1.3,0-1.7,2.6-0.8c0.9,0.3,1.8,0.5,2.2,0.5l-0.1-1.9c-0.7,0-1.3-0.2-2.5-0.9c-1.2-0.6-3.5-1.3-5-1.5
			c-1.5-0.2-3.8-0.7-4.9-1.2c-2.2-0.9-8.8-2.1-14.3-2.6c-3.3-0.3-3.3-0.3-2.4,0.6c1.2,1.3,0.3,1.7-1.9,0.7c-1.3-0.6-3.4-0.8-7.9-0.8
			c-4.9,0-6.4-0.2-7.7-0.9c-1.3-0.7-3-0.9-8.3-1c-5.6-0.2-7-0.4-8.9-1.2c-1.3-0.6-3-1.1-3.9-1.1c-0.9-0.1-3-0.4-4.6-0.7
			c-3.6-0.6-6.5-0.3-5.7,0.7c0.4,0.5,0.3,0.8-0.9,1.4c-1.1,0.6-1.9,0.6-3.9,0.3c-2-0.4-2.8-0.3-4.2,0.3c-1.7,0.7-1.8,0.7-4.1-0.6
			c-1.3-0.7-3.3-1.8-4.4-2.4c-0.4-0.2-0.8-0.4-1.3-0.5c-35.2,18.1-59.8,54.1-61.8,95.9C129,108.6,132.7,108.5,133.3,108.2z"/>
		<path fill="#73B564" d="M270.6,146.6c0.3-0.2,0.5-0.5,0.5-0.8c0-0.3-0.2-0.3-0.5-0.2c-0.3,0.2-0.5,0.5-0.5,0.8
			C270.2,146.7,270.4,146.8,270.6,146.6z"/>
		<path fill="#73B564" d="M267.1,86.7c-0.4-0.7-0.7-1.5-0.5-1.8c0.4-0.7-1-2.4-2.6-3c-2.1-0.8-2.6-0.2-1.1,1.6
			c1.5,1.9,1.2,2.5-2.5,4.3c-1.9,0.9-2.8,1.2-3.7,1c-0.8-0.1-1.5,0-2.5,0.6c-0.8,0.4-1.7,0.8-2,0.8c-0.3,0-0.2,0.1,0.3,0.3
			c0.6,0.2,1.4,0.2,2.6,0c0.5-0.1,1-0.2,1.4-0.2c0.3-0.2,0.6-0.3,1-0.3c0.2,0,0.3,0.1,0.4,0.2c1.1,0,1.8,0.3,2.4,0.8l0.8,0.8l0.4-1
			c0.4-0.8,0.7-1,1.7-1c1.9,0,3.6-0.5,4.2-1.2C267.7,88.2,267.7,87.8,267.1,86.7z"/>
		<path fill="#73B564" d="M259.6,68c0.6,1.2,0.6,1.5,0,2.4c-0.6,0.9-0.6,1.1,0.2,2.3c1.2,1.6,1.5,1.7,1.3,0.3
			c-0.2-1.1,0.5-1.3,3-0.7c1,0.3,1.3,0.2,1.3-0.4c0-0.4,0.4-0.8,0.9-1c1.4-0.4,0.7-1.1-1.9-1.8c-1.3-0.4-3.1-1.3-4-1.9
			C258.7,65.8,258.6,65.9,259.6,68z"/>
		<path fill="#73B564" d="M261.7,168.8c-0.9-0.2-1.9-0.3-2.2-0.3c-0.9,0-0.8,0.8,0.2,1.1c1.2,0.3,1.7,0.3,2.7-0.1
			C263.2,169.1,263.1,169,261.7,168.8z"/>
		<path fill="#73B564" d="M259.3,160.1c-0.4-1-0.3-1.4,0.3-2.1c0.7-0.8,0.7-0.9,0-0.9c-0.9,0-1.9,1.7-1.5,2.4
			c0.2,0.2,0.1,0.8-0.2,1.3c-0.3,0.6-0.3,1,0.1,1.4C259.3,163.5,260.1,162.1,259.3,160.1z"/>
		<path fill="#73B564" d="M256.9,63.4c0.6,0.7,2.5,1.2,2.5,0.6c0-0.1-1-1.3-2.1-2.6c-2-2.3-2.4-3.7-0.8-3.1c1.3,0.5,0.3-0.9-1.8-2.4
			c-2.5-1.8-4.1-3.3-5.4-5.1c-0.5-0.7-1.2-1.2-1.6-1.1c-0.4,0.1,0.6,1.5,2.6,3.7c1.7,1.9,3.8,4.8,4.6,6.3
			C255.5,61.3,256.5,62.9,256.9,63.4z"/>
		<path fill="#73B564" d="M255.9,91.6c0.4,0.9,0.7,1,1.5,0.2c0.5-0.5,0.7-1.3,0.4-1.6c-0.4,0-0.9,0-1.4,0.1
			C255.9,90.6,255.7,91.1,255.9,91.6z"/>
		<path fill="#73B564" d="M256.4,90.3c0.5-0.1,1-0.1,1.4-0.1c-0.1-0.1-0.2-0.2-0.4-0.2C257,90,256.6,90.1,256.4,90.3z"/>
		<path fill="#73B564" d="M249.9,182.6c-1.2,1.7-0.5,1.7,2.2-0.1c1.2-0.8,2.8-1.4,3.4-1.5c1.1,0,1.1-0.1-0.3-0.5
			C253.3,179.9,251.3,180.7,249.9,182.6z"/>
		<path fill="#73B564" d="M247.6,145.4c-0.5,1-0.5,1,0.9,0.7c1.4-0.3,1.5-0.2,2.4,1.9c0.7,1.6,1.1,2.1,1.7,1.9
			c0.4-0.2,1-0.3,1.2-0.3c0.3,0,0.2-0.3-0.1-0.7c-0.9-1.1,0.2-2,1.3-1.1c0.7,0.6,0.8,0.5,0.5-1.1c-0.4-2.1-2.1-6.1-2.2-4.9
			c0,0.5-0.6,1.4-1.3,2c-1,0.9-1.6,1.1-2.6,0.9C248.4,144.5,248,144.7,247.6,145.4z"/>
		<path fill="#73B564" d="M252.1,93c0.6,0.7,1.1,1.7,1.1,2c0,0.9,0.8,0.9,1.1-0.1c0.5-1.2-0.2-2.9-1.5-3.8
			C251.1,90,250.6,91.2,252.1,93z"/>
		<path fill="#73B564" d="M253,137.7c-0.7-1.1-2-1.9-2.4-1.5c-0.1,0.1,0.3,0.7,0.8,1.4C252.7,139.3,254.1,139.4,253,137.7z"/>
		<path fill="#73B564" d="M248.9,164.2c-0.4,0-1.2,0.1-2.2,0.4c-1.4,0.4-1.8,0.3-2.5-0.4c-2-2,1.8-4.2,4.7-2.7
			c0.3,0.1,0.5,0.2,0.7,0.3c1.3,0.4,2.5-0.3,3.1-1.7c0.6-1.3,0.5-1.4-1.3-0.4c-1.1,0.6-1.9,0.6-3.8,0.2c-2.3-0.4-2.6-0.4-3.6,0.6
			c-0.7,0.7-1.2,1.9-1.5,3.7c-0.2,1.4-0.7,3.1-1.1,3.7c-0.7,1-0.7,1.2-0.1,2.2c0.4,0.6,0.6,1.7,0.4,2.2c-0.2,0.5-0.2,0.6,0,1.6h0
			c0.4,0,0.7,0.4,1.6-0.1c0.5-0.3,0.5-0.9,0.1-2.3c-0.4-1.6-0.4-2,0.4-2.8c0.9-0.9,0.9-0.9,1.6,0.8c0.4,1,1.1,1.9,1.7,2.2
			c0.8,0.4,0.9,0.4,0.9-0.7c0-0.7-0.3-1.8-0.7-2.6c-0.8-1.6-0.5-2.6,1.1-3.5C249.3,164.5,249.4,164.2,248.9,164.2z"/>
		<path fill="#73B564" d="M250.6,140.4c0.2,0.5,0.4,0.8,0.5,0.7c0.4-0.4-0.3-2.3-0.8-2.3c-0.3,0-0.4,0.2-0.3,0.4
			C250.2,139.4,250.4,140,250.6,140.4z"/>
		<path fill="#73B564" d="M243.2,132c1.7,1.8,2.3,2.1,3.2,1.9c0.6-0.2,1.5-0.1,2,0.2c1.1,0.6,1.4-0.1,0.6-1.1
			c-0.4-0.4-1-0.6-1.6-0.5c-0.7,0.2-1.4-0.1-2.3-1.1c-1.3-1.3-1.3-1.4-0.6-3.1c0.7-1.6,0.7-1.9,0-3.3c-1.3-2.6-3-2.7-3-0.2
			c0,0.8-0.2,1.8-0.5,2.3C240.3,128.5,240.8,129.5,243.2,132z"/>
		<path fill="#73B564" d="M248.4,142.4c0.5-0.6,0.5-1,0.1-1.5c-0.5-0.6-0.6-0.5-0.9,0c-0.2,0.4-0.3,1.1-0.1,1.5
			C247.7,143.2,247.8,143.2,248.4,142.4z"/>
		<path fill="#73B564" d="M246.8,137.5c-1-0.2-1.6,0.9-1,1.7c0.4,0.5,0.6,0.4,1.1-0.5C247.5,137.9,247.4,137.7,246.8,137.5z"/>
		<path fill="#73B564" d="M245.8,180.2c-2.2-0.6-3.2-0.3-2.3,0.7c0.4,0.5,1.1,0.6,2.2,0.4C248,180.9,248,180.8,245.8,180.2z"/>
		<path fill="#73B564" d="M242.9,134.5c0,0.3,0.3,0.9,0.8,1.3c0.4,0.4,0.9,0.6,1,0.5c0.2-0.1-0.2-0.7-0.8-1.3
			C243.4,134.4,242.9,134.2,242.9,134.5z"/>
		<path fill="#73B564" d="M241.5,182.6c-0.4,0-0.2,0.3,0.5,0.7c0.6,0.4,1.3,0.5,1.4,0.4C243.7,183.3,242.3,182.5,241.5,182.6z"/>
		<path fill="#73B564" d="M239.9,142.3c0.9-1,1.6-2.2,1.6-2.7c0-0.8-0.4-0.5-2.1,1.4c-1.2,1.3-2.1,2.5-2.1,2.7
			C237.3,144.5,238.4,143.9,239.9,142.3z"/>
		<path fill="#73B564" d="M239.8,114.5c0.7,0.4,1.8-3.2,1.4-4.7c-0.4-1.4-1.1-1.2-2.2,0.7c-0.7,1.2-0.8,1.7-0.3,2.5
			C239,113.7,239.5,114.3,239.8,114.5z"/>
		<path fill="#73B564" d="M240.6,151.3l-1.5-1.5c-0.8-0.9-1.8-1.5-2.1-1.5c-0.3,0-1.1,0.7-1.8,1.6c-0.7,0.9-2,1.8-2.8,2.1
			c-1.1,0.4-1.8,1-2.2,1.9c-0.3,0.8-1.3,1.8-2.3,2.3c-0.9,0.5-2,1.4-2.3,2.1c-0.5,1.1-0.7,1.2-1.6,0.7c-0.9-0.5-1.1-0.4-1.7,0.3
			c-0.4,0.5-0.5,1.4-0.4,2.1c0.6,2.4,1.7,5.9,2,6.4c0.5,0.7,5.1,1.6,6.3,1.3c0.4-0.2,1.4,0,2.1,0.4c0.9,0.5,1.5,0.5,2,0.2
			c0.8-0.5,3.8-6.7,3.8-7.8c0-0.3,0.5-0.9,1.2-1.3l1.2-0.8l-0.9-1.3c-1.5-2.2-1.6-3.8-0.3-5.6L240.6,151.3z"/>
		<path fill="#73B564" d="M236.1,180.6c-0.1,0.2,0,0.5,0.3,0.7c0.3,0.1,1,0.2,1.5,0c0.5-0.1,1.2-0.2,1.6-0.2c0.3,0,0.5-0.2,0.3-0.5
			C239.5,180.1,236.5,180,236.1,180.6z"/>
		<path fill="#73B564" d="M229.7,178.3c-0.3,0-1.1-0.4-1.8-1c-1.2-0.9-1.6-0.9-3.5-0.5c-1.8,0.4-2.4,0.4-3.3-0.2
			c-2.2-1.4-6.4-1.3-6.4,0.2c0,0.7,4.6,2,5.6,1.7c0.5-0.2,2,0,3.2,0.4c1.2,0.4,3.6,0.9,5.3,1.1c1.7,0.2,3.3,0.4,3.6,0.5
			c0.3,0,0.7-0.1,0.8-0.3C233.5,179.9,230.7,178.3,229.7,178.3z"/>
		<path fill="#73B564" d="M220.9,120.1c-2.3,0-3.5,1.5-2.3,2.7c0.8,0.8,1.4,0.5,2.4-1.2C221.9,120.1,221.9,120.1,220.9,120.1z"/>
		<path fill="#73B564" d="M215.4,170.3c-0.2-0.8-0.9-2.1-1.7-2.9c-0.8-0.8-1.9-2.1-2.4-2.7c-0.6-0.6-1.1-1.4-1.1-1.6
			c-0.1-1.4-0.9-2.5-2.6-3.5c-1.8-1.1-2.5-1.8-6.3-5.7c-1.4-1.4-4.5-3.2-5.8-3.2c-1,0,0.4,2.3,2.7,4.5c1.1,1,2.3,2.5,2.7,3.3
			c0.4,0.8,1.5,2.5,2.5,3.8c1,1.3,2.2,3.4,2.8,4.7c1,2.4,4.1,6.2,5.9,7.2C214,175,216,172.8,215.4,170.3z"/>
		<path fill="#73B564" d="M204.3,149.4c1.1,4.2,2.5,6.7,4.6,8.2c2.1,1.5,3,1.8,3,1c0-0.2-0.5-2.1-1.2-4.1c-1.1-3.5-1.4-3.9-4-5.9
			c-1-0.8-1.9-1.7-2.4-2.4l-1.6,0.3C203.5,147.2,203.9,148,204.3,149.4z"/>
		<path fill="#73B564" d="M200,141.9c-0.2,2.3-0.1,2.4,1.8,3.8c0.4,0.3,0.7,0.5,1,0.8l1.6-0.3c-0.4-0.4-0.6-0.8-0.6-1
			c-0.2-0.6-0.7-1.8-1.3-2.5c-0.6-0.8-0.8-1.3-0.7-2.1l-1.6-0.2C200,140.9,200,141.4,200,141.9z"/>
	</g>
	<g>
		<g>
			<path fill="#2368B5" d="M47.5,358.7c0,0,110.5,9.4,175.6-31l-8.4-18.2c-23.4,19.3-129.4,34.7-146,19.7"/>
			<polygon fill="#FFEBCA" points="223.1,327.7 247.9,314.7 241.5,298 214.7,309.5 			"/>
		</g>
		<g>
			<g>
				<path fill="#FFEBCA" d="M19.2,213.4l62.3-29.8l46.1,136.9l-91.5,14.2C36.1,334.6,18.5,210.4,19.2,213.4z"/>
				<polygon fill="#1B75BC" points="87.5,234.1 98.7,279.2 117.2,268.4 				"/>
				<path fill="#6D6E71" d="M81.5,183.6l12.9-16.2c0,0-63.6,3.9-75.8,19c-14.7,18.2,5,62.2,5,62.2S21,235.3,27,233.3
					c3.3-1.1,7.2,4.8,7.2,4.8l2.4-31.8L81.5,183.6z"/>
				
					<ellipse transform="matrix(-0.8917 0.4526 -0.4526 -0.8917 227.1904 413.9176)" fill="#6D6E71" cx="64.1" cy="234.1" rx="4.8" ry="6.9"/>
				
					<ellipse transform="matrix(-0.8917 0.4525 -0.4525 -0.8917 276.6062 385.165)" fill="#6D6E71" cx="92.2" cy="225.7" rx="4.8" ry="6.9"/>
			</g>
			<g>
				<path fill="#1B75BC" d="M245.3,291h4.1c3.6,0,6.5-2.9,6.5-6.5v-74h-17.1v74C238.8,288.1,241.8,291,245.3,291z"/>
				<path fill="#1B75BC" d="M162.4,129.7c0,47.8,38.7,86.5,86.5,86.5c47.8,0,86.5-38.7,86.5-86.5S296.8,43.2,249,43.2
					C201.2,43.2,162.4,81.9,162.4,129.7z M181.4,129.7c0-37.3,30.3-67.6,67.6-67.6c37.3,0,67.6,30.3,67.6,67.6
					c0,37.3-30.3,67.6-67.6,67.6C211.6,197.4,181.4,167.1,181.4,129.7z"/>
				<circle opacity="0.4" fill="#FFFFFF" cx="249" cy="129.7" r="67.6"/>
				<rect x="236.6" y="211.8" fill="#1B75BC" width="22.4" height="9.4"/>
				<path opacity="0.4" fill="#FFFFFF" d="M217.7,69.8l76.1,110.6c-11.9,10.6-27.6,17-44.8,17c-37.3,0-67.6-30.3-67.6-67.6
					C181.4,103.7,196.1,81.1,217.7,69.8z"/>
			</g>
			<path fill="#2368B5" d="M0.1,464.5c-0.9-47.4,5.6-76.8,10.7-95.2c7-25.1,23.7-44.7,23.7-44.7l107.1-10.2
				c-2.7,51.3,4,113,21.3,159.2C130.3,448.6,49,449.1,0.1,464.5z"/>
			<path fill="#E6E7E8" d="M71,327.9c0,0,24.6,77.9,25.6,73.7c1.1-4.3,9.6-76.3,9.6-76.3L71,327.9z"/>
			<g>
				<path fill="#2368B5" d="M32.5,404.4c0,0,139.2-60.3,205.8-133.2l-16.8-19.7c-28.9,20.5-148.3,88.3-174.1,75.6"/>
				<polygon fill="#FFEBCA" points="238.2,271.3 264.5,246.4 250.7,228 221.5,251.6 				"/>
			</g>
		</g>
	</g>
	<g>
		<path fill="#032360" d="M51.2,411.9c1.5-2.7,3.3-5.2,5.2-7.6c2-2.4,4-4.6,6.2-6.8c4.4-4.3,9.2-8.2,14.1-11.9
			c9.9-7.3,20.5-13.7,31.1-19.8c10.7-6.1,21.5-11.9,32-18.3l15.5-9.9l15.6-9.8c-10.2,6.9-20.4,13.7-30.7,20.4
			c-5.2,3.3-10.6,6.3-15.9,9.4l-16,9.1c-10.7,6.1-21.2,12.5-31.1,19.6c-5,3.6-9.8,7.4-14.3,11.6c-2.2,2.1-4.4,4.3-6.4,6.6
			C54.6,406.8,52.8,409.2,51.2,411.9z"/>
	</g>
	<g>
		<path fill="#032360" d="M141.2,347l0.8,10.6c0.3,3.5,0.5,7.1,0.8,10.6c0.6,7.1,1.2,14.1,1.9,21.2c0.7,7.1,1.5,14.1,2.5,21.1
			l0.8,5.3l0.9,5.2c0.3,1.7,0.6,3.5,0.9,5.2l1.1,5.2c-1.9-6.8-3.2-13.8-4.4-20.8c-1.1-7-1.9-14.1-2.7-21.1
			c-0.7-7.1-1.3-14.1-1.7-21.2C141.6,361.2,141.3,354.1,141.2,347z"/>
	</g>
	<g>
		<path fill="#032360" d="M98.5,317.4c-2.5,1.1-5.2,1.9-7.8,2.7c-2.7,0.7-5.4,1.3-8.1,1.7c-5.4,0.9-10.9,1.3-16.4,1.9
			c-5.5,0.5-10.9,1.2-16.1,2.8c-5.2,1.6-10.1,4.3-14,8.2c1.8-2.1,3.9-3.9,6.3-5.4c2.3-1.5,4.9-2.6,7.5-3.5
			c5.3-1.8,10.8-2.5,16.2-3.1c5.5-0.5,10.9-0.9,16.4-1.6C87.9,320.3,93.3,319.2,98.5,317.4z"/>
	</g>
</g>
<g>
</g>
<g>
</g>
<g>
</g>
<g>
</g>
<g>
</g>
<g>
</g>
<g>
</g>
<g>
</g>
<g>
</g>
<g>
</g>
<g>
</g>
<g>
</g>
<g>
</g>
<g>
</g>
<g>
</g>
</svg>
