<?xml version="1.0" encoding="utf-8"?>
<!-- Generator: Adobe Illustrator 18.0.0, SVG Export Plug-In . SVG Version: 6.00 Build 0)  -->
<!DOCTYPE svg PUBLIC "-//W3C//DTD SVG 1.1//EN" "http://www.w3.org/Graphics/SVG/1.1/DTD/svg11.dtd">
<svg version="1.1" id="Layer_1" xmlns="http://www.w3.org/2000/svg" xmlns:xlink="http://www.w3.org/1999/xlink" x="0px" y="0px"
	 viewBox="0 0 77.6 120.2" enable-background="new 0 0 77.6 120.2" xml:space="preserve">
<g>
	<path fill="#573392" d="M52.5,96.3H25.1c-3.4,0-6.1-2.8-6.1-6.1s2.8-6.1,6.1-6.1h27.4c3.4,0,6.1,2.8,6.1,6.1S55.9,96.3,52.5,96.3z
		 M25.1,86.1c-2.3,0-4.1,1.9-4.1,4.1c0,2.3,1.9,4.1,4.1,4.1h27.4c2.3,0,4.1-1.9,4.1-4.1c0-2.3-1.9-4.1-4.1-4.1H25.1z"/>
	<path fill="#573392" d="M49.8,107.1h-22c-3.1,0-5.7-2.6-5.7-5.7v-0.9c0-3.1,2.6-5.7,5.7-5.7h22c3.1,0,5.7,2.6,5.7,5.7v0.9
		C55.5,104.5,53,107.1,49.8,107.1z M27.8,96.8c-2,0-3.7,1.7-3.7,3.7v0.9c0,2,1.7,3.7,3.7,3.7h22c2,0,3.7-1.7,3.7-3.7v-0.9
		c0-2-1.7-3.7-3.7-3.7H27.8z"/>
	<path fill="#573392" d="M38.8,120.2c-7.4,0-13.4-6-13.4-13.4h2c0,6.3,5.1,11.4,11.4,11.4s11.4-5.1,11.4-11.4h2
		C52.2,114.2,46.2,120.2,38.8,120.2z"/>
	<g>
		<path fill="#573392" d="M46,30.2c-1.9-1.8-3.6-2.8-5.9-2.8c-2.8,0-4.3,1.3-4.3,3.8c0,5.8,14.1,5,14.1,15.5c0,5.1-2.9,8.8-8.3,9.8
			l0,5.4l-4.6,0l0-5.2c-3.2-0.4-6.8-1.9-9.2-4.1l3.1-4.6c2.5,2,5,3.2,7.7,3.2c3.3,0,4.8-1.4,4.8-4.1c0-6.3-14.1-5.9-14.1-15.6
			c0-5.1,3.1-8.6,8-9.5l0-5.4l4.6,0l0,5.3c3.4,0.5,5.7,2.2,7.7,4.3L46,30.2z"/>
	</g>
	<path fill="#573392" d="M53.2,86.1H24.3l-0.2-0.8c0-0.1-2.1-9.9-9.6-16.2l-2.1-1.8h0.1C4.5,60,0,49.7,0,38.8C0,17.4,17.4,0,38.8,0
		s38.8,17.4,38.8,38.8c0,12.2-5.6,23.4-15.3,30.9c-4.1,3.9-8.9,15.7-8.9,15.8L53.2,86.1z M25.9,84.1h25.9c1.1-2.6,5.3-12.2,9.2-15.9
		l0.1-0.1c9.2-7,14.5-17.7,14.5-29.3C75.6,18.5,59.1,2,38.8,2S2,18.5,2,38.8C2,50,7,60.5,15.8,67.6l2.2,1.8h-0.3
		C23.1,74.9,25.3,81.7,25.9,84.1z"/>
</g>
<g>
</g>
<g>
</g>
<g>
</g>
<g>
</g>
<g>
</g>
<g>
</g>
<g>
</g>
<g>
</g>
<g>
</g>
<g>
</g>
<g>
</g>
<g>
</g>
<g>
</g>
<g>
</g>
<g>
</g>
</svg>
