<?xml version="1.0" encoding="utf-8"?>
<!-- Generator: Adobe Illustrator 18.0.0, SVG Export Plug-In . SVG Version: 6.00 Build 0)  -->
<!DOCTYPE svg PUBLIC "-//W3C//DTD SVG 1.1//EN" "http://www.w3.org/Graphics/SVG/1.1/DTD/svg11.dtd">
<svg version="1.1" id="Layer_1" xmlns="http://www.w3.org/2000/svg" xmlns:xlink="http://www.w3.org/1999/xlink" x="0px" y="0px"
	 viewBox="0 0 94.7 139.4" enable-background="new 0 0 94.7 139.4" xml:space="preserve">
<g>
	<path fill="#939598" d="M60.7,104.6l0.7-21.8c0,0,1.1-0.5,2.8,0l0,0.4"/>
	<path fill="#A7A9AC" d="M61.4,82.8c0.7,0.2,2.4,0.5,3.1,0.3l-2.9,19.2l-0.8-0.4L61.4,82.8z"/>
	<path fill="#939598" d="M57.8,102.4l-6.4-20.9c0,0,0.9-0.8,2.6-0.9l0.1,0.4"/>
	<path fill="#D1D3D4" d="M51.5,81.5c0.7,0,2.4-0.3,3-0.7l3.5,19.1L57,99.7L51.5,81.5z"/>
	<path fill="#6D6E71" d="M58.8,104l-2.2-14.2c0,0,0.8-0.6,2.2-0.4l0,0.3"/>
	<path fill="#A7A9AC" d="M56.6,89.9c0.6,0.1,2,0,2.5-0.2l0.6,15.9l-0.8-0.2L56.6,89.9z"/>
	<path fill="#6D6E71" d="M61.2,104.4l4.1-13.7c0,0-0.8-0.7-2.2-0.7l-0.1,0.3"/>
	<path fill="#D1D3D4" d="M65.3,90.7c-0.6,0-2-0.3-2.5-0.5l-2.7,15.6l0.8-0.1L65.3,90.7z"/>
	<path fill="#939598" d="M58.9,106.4l0.7-21.8c0,0,1.1-0.5,2.8,0l0,0.4"/>
	<path fill="#D1D3D4" d="M59.6,84.6c0.7,0.2,2.4,0.5,3.1,0.3l-2.9,19.2l-0.8-0.4L59.6,84.6z"/>
	<path fill="#2368B5" d="M60.5,97.6c-2.8,0-5,0.3-5,0.6l1.6,8.1c0,0.3,1.5,0.6,3.4,0.6c1.9,0,3.4-0.3,3.4-0.6l1.6-8.1
		C65.5,97.9,63.2,97.6,60.5,97.6"/>
	<path fill="#231F20" d="M67.7,96.9c-2.1,0-3.8,1.2-3.8,2.7c0,1.5,1.7,2.7,3.8,2.7c2.1,0,3.8-1.2,3.8-2.7
		C71.5,98.1,69.8,96.9,67.7,96.9 M67.7,102.1c-1.9,0-3.4-1.1-3.4-2.4c0-1.3,1.5-2.4,3.4-2.4c1.9,0,3.4,1.1,3.4,2.4
		C71,101,69.5,102.1,67.7,102.1"/>
	<path fill="#58595B" d="M67.7,97c2.1,0,3.7,1.2,3.8,2.7c0,0,0,0,0-0.1c0-1.5-1.7-2.7-3.8-2.7c-2.1,0-3.8,1.2-3.8,2.7c0,0,0,0,0,0.1
		C64,98.2,65.6,97,67.7,97"/>
	<path fill="#58595B" d="M67.7,102.2c1.9,0,3.4-1.1,3.4-2.4c0,0,0,0,0-0.1c0,1.3-1.5,2.4-3.3,2.4c-1.8,0-3.3-1.1-3.3-2.4
		c0,0,0,0,0,0.1C64.3,101.1,65.8,102.2,67.7,102.2"/>
	<polygon fill="#58595B" points="61,106.2 61.7,99 73.2,99 73.2,106.2 	"/>
	<path fill="#231F20" d="M61.7,99c0,0.8,0.3,3.6,0.3,3.6h7.6c0,0-7.2-0.2-7.3-0.2C62.3,102.3,61.7,99,61.7,99"/>
	<path fill="#58595B" d="M68.2,103h-1.5c-0.2,0-0.4-0.2-0.4-0.4s0.2-0.4,0.4-0.4h1.5c0.2,0,0.4,0.2,0.4,0.4S68.4,103,68.2,103"/>
	<path fill="#231F20" d="M68.3,102.9h-1.5c-0.2,0-0.4-0.2-0.4-0.4c0-0.1,0.1-0.2,0.1-0.3c-0.1,0.1-0.2,0.2-0.2,0.4
		c0,0.2,0.2,0.4,0.4,0.4L68.3,102.9c0,0.1,0.1,0,0.2,0C68.4,102.9,68.4,102.9,68.3,102.9"/>
	<path fill="#231F20" d="M61.7,101.7l-0.5,4.7c0,0,0.2,0,0.2-0.2C61.5,106,61.7,101.7,61.7,101.7"/>
	<polygon fill="#231F20" points="62,102.6 62.1,106.5 62.5,106.4 62.1,102.4 	"/>
	<polygon fill="#231F20" points="36,71.7 36.9,72.3 36.7,72.8 36.5,72.7 35.3,74.9 35.6,72.9 35.5,72.7 	"/>
	<polygon fill="#2368B5" points="30.9,63.9 35.6,72.6 36.2,72.3 33,63.3 	"/>
	
		<rect x="32.4" y="71.3" transform="matrix(-0.9798 -0.2 0.2 -0.9798 47.2962 184.7101)" fill="#C49A6C" width="1.1" height="37.4"/>
	<g>
		<g>
			<defs>
				<rect id="SVGID_1_" x="29.2" y="71.6" width="8" height="36.8"/>
			</defs>
			<clipPath id="SVGID_2_">
				<use xlink:href="#SVGID_1_"  overflow="visible"/>
			</clipPath>
			<polyline clip-path="url(#SVGID_2_)" fill="#808285" points="36.7,71.6 29.2,108.3 29.8,108.4 37.3,71.8 			"/>
		</g>
	</g>
	<g opacity="0.7">
		<g>
			<defs>
				<rect id="SVGID_3_" x="35.9" y="71.7" width="5.2" height="37.3"/>
			</defs>
			<clipPath id="SVGID_4_">
				<use xlink:href="#SVGID_3_"  overflow="visible"/>
			</clipPath>
			
				<rect x="38" y="71.6" transform="matrix(-0.9938 -0.1114 0.1114 -0.9938 66.8264 184.4115)" clip-path="url(#SVGID_4_)" fill="#C49A6C" width="1.1" height="37.4"/>
			<g clip-path="url(#SVGID_4_)">
				<g>
					<defs>
						<rect id="SVGID_5_" x="36.6" y="71.8" width="4.6" height="37.2"/>
					</defs>
					<clipPath id="SVGID_6_">
						<use xlink:href="#SVGID_5_"  overflow="visible"/>
					</clipPath>
					<polyline clip-path="url(#SVGID_6_)" fill="#808285" points="40.8,71.8 36.6,108.9 37,109 41.2,71.8 					"/>
				</g>
			</g>
		</g>
	</g>
	<g opacity="0.7">
		<g>
			<defs>
				<rect id="SVGID_7_" x="47.3" y="71.8" width="5.2" height="37.3"/>
			</defs>
			<clipPath id="SVGID_8_">
				<use xlink:href="#SVGID_7_"  overflow="visible"/>
			</clipPath>
			
				<rect x="49.4" y="71.7" transform="matrix(0.9938 -0.1111 0.1111 0.9938 -9.7332 6.1058)" clip-path="url(#SVGID_8_)" fill="#C49A6C" width="1.1" height="37.4"/>
			<g clip-path="url(#SVGID_8_)">
				<g>
					<defs>
						<rect id="SVGID_9_" x="47.3" y="71.8" width="4.6" height="37.2"/>
					</defs>
					<clipPath id="SVGID_10_">
						<use xlink:href="#SVGID_9_"  overflow="visible"/>
					</clipPath>
					<polyline clip-path="url(#SVGID_10_)" fill="#808285" points="47.7,71.8 51.9,109 51.5,109.1 47.3,71.9 					"/>
				</g>
			</g>
		</g>
	</g>
	<rect x="54.8" y="71.3" transform="matrix(0.9798 -0.2 0.2 0.9798 -16.8747 12.8928)" fill="#C49A6C" width="1.1" height="37.4"/>
	<g>
		<g>
			<defs>
				<rect id="SVGID_11_" x="51.1" y="71.7" width="7.9" height="36.8"/>
			</defs>
			<clipPath id="SVGID_12_">
				<use xlink:href="#SVGID_11_"  overflow="visible"/>
			</clipPath>
			<polyline clip-path="url(#SVGID_12_)" fill="#808285" points="51.5,71.7 59,108.3 58.6,108.4 51.1,71.8 			"/>
		</g>
	</g>
	<g>
		<g>
			<defs>
				<rect id="SVGID_13_" x="51.1" y="71.9" width="1.2" height="0.9"/>
			</defs>
			<clipPath id="SVGID_14_">
				<use xlink:href="#SVGID_13_"  overflow="visible"/>
			</clipPath>
			<polygon clip-path="url(#SVGID_14_)" fill="#A7A9AC" points="51.1,72 52.3,71.9 52.4,72.5 51.3,72.9 			"/>
		</g>
	</g>
	<g>
		<g>
			<defs>
				<rect id="SVGID_15_" x="35.9" y="71.8" width="1.3" height="1"/>
			</defs>
			<clipPath id="SVGID_16_">
				<use xlink:href="#SVGID_15_"  overflow="visible"/>
			</clipPath>
			<polygon clip-path="url(#SVGID_16_)" fill="#A7A9AC" points="36.1,71.8 37.2,72.1 37,72.8 35.9,72.8 			"/>
		</g>
	</g>
	<g>
		<g>
			<defs>
				<rect id="SVGID_17_" x="40" y="72.1" width="1.1" height="1.9"/>
			</defs>
			<clipPath id="SVGID_18_">
				<use xlink:href="#SVGID_17_"  overflow="visible"/>
			</clipPath>
			<polygon clip-path="url(#SVGID_18_)" fill="#A7A9AC" points="40,72.3 40.9,74.1 41.2,72.1 40.1,72.1 			"/>
		</g>
	</g>
	<g>
		<g>
			<defs>
				<rect id="SVGID_19_" x="47.3" y="72" width="1.2" height="1.2"/>
			</defs>
			<clipPath id="SVGID_20_">
				<use xlink:href="#SVGID_19_"  overflow="visible"/>
			</clipPath>
			<polygon clip-path="url(#SVGID_20_)" fill="#A7A9AC" points="47.3,72.2 48.6,73.2 48.4,72 			"/>
		</g>
	</g>
	<path fill="#C49A6C" d="M44.5,69.5c-5.7,0-10.3,0.5-10.3,1v0.9c0,0.6,4.6,1,10.3,1s10.3-0.5,10.3-1v-0.9
		C54.7,69.9,50.1,69.5,44.5,69.5"/>
	<path fill="#A97C50" d="M54.7,70.5c0,0.6-4.6,1-10.3,1c-5.7,0-10.3-0.5-10.3-1c0-0.6,4.6-1,10.3-1C50.1,69.5,54.7,69.9,54.7,70.5"
		/>
	<g>
		<g>
			<defs>
				<rect id="SVGID_21_" x="42.4" y="70.4" width="10.4" height="0.7"/>
			</defs>
			<clipPath id="SVGID_22_">
				<use xlink:href="#SVGID_21_"  overflow="visible"/>
			</clipPath>
			<path clip-path="url(#SVGID_22_)" fill="#808285" d="M52.8,70.7c0-0.2-3.9-0.3-6.2-0.3c-2.3,0-4.2,0.2-4.2,0.3
				c0,0.2,1.9,0.3,4.2,0.3C48.9,71.1,52.8,70.9,52.8,70.7"/>
		</g>
	</g>
	<path fill="#FFEBCA" d="M58.6,28.6l-6.1-4.3l-9,14.1L54,43.8C54,43.8,58.7,28.3,58.6,28.6"/>
	<polygon fill="#1B75BC" points="51,29.6 49,34.2 47.2,32.7 	"/>
	<path fill="#6D6E71" d="M52.5,24.4l-1.1-1.9c0,0,6.7,1.5,7.7,3.4c1.2,2.2-1.6,6.5-1.6,6.5s0.5-1.4-0.1-1.7
		c-0.3-0.2-0.8,0.4-0.8,0.4l0.3-3.4L52.5,24.4z"/>
	<path fill="#6D6E71" d="M53.9,30.4c-0.2,0.3-0.6,0.5-0.9,0.3c-0.2-0.2-0.2-0.6,0-0.9c0.2-0.3,0.6-0.5,0.9-0.3
		C54.1,29.6,54.1,30,53.9,30.4"/>
	<path fill="#F1F2F2" d="M53.6,29.8c-0.1,0.1-0.2,0.1-0.3,0c-0.1-0.1,0-0.2,0.1-0.3c0.1-0.1,0.2-0.1,0.3,0
		C53.7,29.6,53.7,29.7,53.6,29.8"/>
	<path fill="#6D6E71" d="M51,29c-0.2,0.3-0.6,0.5-0.9,0.3c-0.2-0.2-0.2-0.6,0-0.9c0.2-0.3,0.6-0.5,0.9-0.3
		C51.3,28.2,51.3,28.6,51,29"/>
	<path fill="#F1F2F2" d="M50.7,28.4c-0.1,0.1-0.2,0.1-0.3,0c-0.1-0.1,0-0.2,0.1-0.3c0.1-0.1,0.2-0.1,0.3,0
		C50.8,28.2,50.8,28.3,50.7,28.4"/>
	<polygon fill="#2368B5" points="54,43.8 54.1,60.9 54.8,64.2 36.6,63.8 43.5,38.4 	"/>
	<path fill="#2368B5" d="M43.5,38.4c-3.6-1.3-7.8-8.1-7.3-12.6l-2.8-1.6c0,0-2.1,5.3-0.1,10.7c1.9,5,7.2,11.2,11.2,12.5l2.3-4.2
		L43.5,38.4z"/>
	<path fill="#414042" d="M52.4,28.3l-14.3-6.7L10.4,3.8c-0.1-0.1-0.3-0.2-0.4-0.3C8.3,2.7,6,4.2,4.8,6.8C3.6,9.3,4,12,5.7,12.8
		c0.2,0.1,45.8,17.7,45.8,17.7c0.6,0.2,1.3-0.1,1.6-0.7C53.2,29.2,53,28.5,52.4,28.3"/>
	<g>
		<g>
			<defs>
				<rect id="SVGID_23_" x="4.2" y="3.3" width="48.9" height="27"/>
			</defs>
			<clipPath id="SVGID_24_">
				<use xlink:href="#SVGID_23_"  overflow="visible"/>
			</clipPath>
			<path clip-path="url(#SVGID_24_)" fill="#A7A9AC" d="M52.4,28.3l-14.3-6.7L10.4,3.8c-0.1-0.1-0.3-0.2-0.4-0.3
				C8.3,2.7,6,4.2,4.8,6.8C4.5,7.6,4.2,8.4,4.2,9.2c1.2-2.1,3.1-3.3,4.6-2.6C9,6.6,9.1,6.7,9.2,6.8l28.3,16.8l14.5,6.2
				c0.3,0.1,0.5,0.3,0.6,0.5c0.2-0.1,0.3-0.3,0.4-0.5C53.2,29.2,53,28.5,52.4,28.3"/>
		</g>
	</g>
	<g>
		<g>
			<defs>
				<rect id="SVGID_25_" x="4.3" y="3.5" width="6.9" height="9"/>
			</defs>
			<clipPath id="SVGID_26_">
				<use xlink:href="#SVGID_25_"  overflow="visible"/>
			</clipPath>
			<g clip-path="url(#SVGID_26_)">
				<defs>
					<path id="SVGID_27_" d="M10,3.7c1.4,0.8,1.6,3.3,0.4,5.7c-1.2,2.4-3.4,3.7-4.8,2.9c-1.4-0.8-1.6-3.3-0.4-5.7
						C6.4,4.3,8.6,3,10,3.7"/>
				</defs>
				<clipPath id="SVGID_28_">
					<use xlink:href="#SVGID_27_"  overflow="visible"/>
				</clipPath>
				
					<linearGradient id="SVGID_29_" gradientUnits="userSpaceOnUse" x1="-345.1983" y1="-706.8946" x2="-344.8978" y2="-706.8946" gradientTransform="matrix(13.3659 6.3959 6.3959 -13.3659 9141.373 -7233.1128)">
					<stop  offset="0" style="stop-color:#FFFFFF"/>
					<stop  offset="1" style="stop-color:#231F20"/>
				</linearGradient>
				<polygon clip-path="url(#SVGID_28_)" fill="url(#SVGID_29_)" points="5.4,0 15.6,4.9 10.2,16.1 0,11.2 				"/>
			</g>
		</g>
	</g>
	<path fill="#231F20" d="M5.4,6.9C6.6,4.5,8.8,3.2,10.2,4c0.1,0.1,0.2,0.1,0.3,0.2C10.4,4,10.2,3.9,10,3.7C8.6,3,6.4,4.3,5.2,6.7
		c-1.1,2.2-1.1,4.5,0,5.4C4.3,11,4.3,8.9,5.4,6.9"/>
	<g opacity="0.36">
		<g>
			<defs>
				<rect id="SVGID_30_" x="4.3" y="3.5" width="6.9" height="9"/>
			</defs>
			<clipPath id="SVGID_31_">
				<use xlink:href="#SVGID_30_"  overflow="visible"/>
			</clipPath>
			<path clip-path="url(#SVGID_31_)" fill="#FFFFFF" d="M10,3.7c1.4,0.8,1.6,3.3,0.4,5.7c-1.2,2.4-3.4,3.7-4.8,2.9
				c-1.4-0.8-1.6-3.3-0.4-5.7C6.4,4.3,8.6,3,10,3.7"/>
		</g>
	</g>
	<g opacity="0.2">
		<g>
			<defs>
				<rect id="SVGID_32_" x="4.5" y="3.6" width="5.8" height="8.2"/>
			</defs>
			<clipPath id="SVGID_33_">
				<use xlink:href="#SVGID_32_"  overflow="visible"/>
			</clipPath>
			<path clip-path="url(#SVGID_33_)" fill="#FFFFFF" d="M9.7,3.7C8.9,3.4,7,3.9,5.7,6.1c-1.4,2.2-1.3,4.2-0.9,5.4
				c0.5,1.1,2.5-0.8,3.7-2.6C8.9,8.2,11.4,4.4,9.7,3.7"/>
		</g>
	</g>
	<g opacity="0.4">
		<g>
			<defs>
				<rect id="SVGID_34_" x="9.7" y="4.6" width="0.9" height="1.2"/>
			</defs>
			<clipPath id="SVGID_35_">
				<use xlink:href="#SVGID_34_"  overflow="visible"/>
			</clipPath>
			<path clip-path="url(#SVGID_35_)" fill="#FFFFFF" d="M9.7,5.1c-0.1,0.3,0,0.6,0.2,0.7c0.2,0.1,0.5-0.1,0.6-0.4
				c0.1-0.3,0-0.6-0.2-0.7C10.1,4.6,9.9,4.8,9.7,5.1"/>
		</g>
	</g>
	<polygon fill="#FFEBCA" points="33.4,24.3 35.1,19.2 38.5,21.1 36.2,25.9 	"/>
	<path fill="#2368B5" d="M53.9,63.2c-0.5,2.4-4.1,8.1-9.1,7.8c-5-0.2-9.9-4.7-13.4-4.6c-1.6,0,0.7,5.2,3.8,9.5L34,76.5
		c0,0-12.1-11.9-6.4-16.8C30.5,57.3,39,62,39,62L53.9,63.2z"/>
	<path fill="#C49A6C" d="M54.2,84.9c0,0.2-0.2,0.4-0.4,0.4H34.6c-0.2,0-0.4-0.2-0.4-0.4c0-0.3,0.2-0.5,0.5-0.5h19
		C53.9,84.4,54.2,84.6,54.2,84.9"/>
	<g>
		<g>
			<defs>
				<rect id="SVGID_36_" x="34.2" y="84.4" width="19.9" height="0.5"/>
			</defs>
			<clipPath id="SVGID_37_">
				<use xlink:href="#SVGID_36_"  overflow="visible"/>
			</clipPath>
			<path clip-path="url(#SVGID_37_)" fill="#808285" d="M54.2,84.9H34.2c0-0.3,0.2-0.5,0.5-0.5h19C53.9,84.4,54.2,84.6,54.2,84.9"/>
		</g>
	</g>
	<path fill="#917961" d="M49,86.7h-9.6c-0.1,0-0.3-0.1-0.3-0.3v-0.2c0-0.2,0.2-0.3,0.3-0.3h9.4c0.2,0,0.3,0.2,0.3,0.3v0.2
		C49.2,86.6,49.1,86.7,49,86.7"/>
	<g>
		<g>
			<defs>
				<rect id="SVGID_38_" x="39.1" y="85.9" width="10.1" height="0.5"/>
			</defs>
			<clipPath id="SVGID_39_">
				<use xlink:href="#SVGID_38_"  overflow="visible"/>
			</clipPath>
			<path clip-path="url(#SVGID_39_)" fill="#808285" d="M49.2,86.4H39.1v-0.1c0-0.2,0.2-0.3,0.3-0.3h9.4c0.2,0,0.3,0.2,0.3,0.3V86.4
				z"/>
		</g>
	</g>
	<path fill="#032360" d="M41.5,45.8c0.6,0.3,1.1,0.7,1.7,0.9c0.6,0.3,1.2,0.6,1.8,0.8c0.6,0.3,1.2,0.5,1.8,0.9
		c0.1,0.1,0.3,0.2,0.4,0.3c0.1,0.1,0.3,0.2,0.4,0.3c0.2,0.2,0.4,0.5,0.6,0.8c-0.2-0.3-0.4-0.5-0.7-0.7c-0.1-0.1-0.3-0.2-0.4-0.3
		c-0.1-0.1-0.3-0.2-0.4-0.2c-0.6-0.3-1.2-0.6-1.8-0.8c-0.6-0.3-1.2-0.6-1.8-0.9C42.6,46.7,42,46.3,41.5,45.8"/>
	<path fill="#032360" d="M37.3,61.1c0.1,0,0.3,0.1,0.4,0.1c0.1,0.1,0.2,0.2,0.4,0.3c0.2,0.2,0.5,0.4,0.7,0.5c0.5,0.4,0.9,0.7,1.4,1
		c1,0.6,2.1,1,3.2,1c1.1,0,2.3-0.2,3.5-0.3c1.2-0.1,2.3-0.1,3.5,0.1c-0.6,0-1.2,0-1.7,0c-0.6,0-1.2,0.1-1.7,0.1l-1.7,0.2
		c-0.6,0.1-1.2,0.1-1.8,0.2c-1.2,0-2.4-0.4-3.3-1.1c-0.5-0.3-0.9-0.7-1.4-1.1c-0.2-0.2-0.4-0.4-0.6-0.6c-0.1-0.1-0.2-0.2-0.3-0.3
		C37.6,61.2,37.4,61.1,37.3,61.1"/>
	<polygon fill="#231F20" points="35.1,75.8 35.7,77.1 35.2,77.5 35.1,77.3 32.8,79.1 33.9,76.9 34,76.5 	"/>
	<path fill="#4C4446" d="M79.1,106.1H8.2l-7.6,7.6l-0.3,5.5l13.5,6.8l8.1,9.4l6.8-0.8l6,2.3h9.4l9.6,2.6c0,0,25.8-9.9,26.6-9.9
		s7,3.6,7.8,3.6c0.8,0,6.5-4.7,6.5-4.7L79.1,106.1z"/>
	<path d="M22,135.3l6.8-0.8l6,2.3h9.4l9.6,2.6c0,0,25.8-9.9,26.6-9.9c0.8,0,7,3.6,7.8,3.6c0.8,0,6.5-4.7,6.5-4.7l-15.6-22.4
		l-22.2,0.1l-14.7,2.2l3.6,4.4l-2.2,6.1l-5.5,0.6l-1.9,3.8l-0.1,5l-8.3-1l-4-4.5l-23.4-3.6l13.5,6.8L22,135.3z"/>
</g>
<g>
</g>
<g>
</g>
<g>
</g>
<g>
</g>
<g>
</g>
<g>
</g>
<g>
</g>
<g>
</g>
<g>
</g>
<g>
</g>
<g>
</g>
<g>
</g>
<g>
</g>
<g>
</g>
<g>
</g>
</svg>
