<?xml version="1.0" encoding="utf-8"?>
<!-- Generator: Adobe Illustrator 18.0.0, SVG Export Plug-In . SVG Version: 6.00 Build 0)  -->
<!DOCTYPE svg PUBLIC "-//W3C//DTD SVG 1.1//EN" "http://www.w3.org/Graphics/SVG/1.1/DTD/svg11.dtd">
<svg version="1.1" id="Layer_1" xmlns="http://www.w3.org/2000/svg" xmlns:xlink="http://www.w3.org/1999/xlink" x="0px" y="0px"
	 viewBox="0 0 318.3 122.1" enable-background="new 0 0 318.3 122.1" xml:space="preserve">
<g>
	<path fill="#7F58A5" d="M262.2,0.3h-0.8c-0.1,0-0.2-0.1-0.2-0.2s0.1-0.2,0.2-0.2h0.8c0.1,0,0.2,0.1,0.2,0.2S262.3,0.3,262.2,0.3z
		 M260.1,0.3h-1.3c-0.1,0-0.2-0.1-0.2-0.2s0.1-0.2,0.2-0.2h1.3c0.1,0,0.2,0.1,0.2,0.2S260.2,0.3,260.1,0.3z M257.6,0.3h-1.3
		c-0.1,0-0.2-0.1-0.2-0.2s0.1-0.2,0.2-0.2h1.3c0.1,0,0.2,0.1,0.2,0.2S257.7,0.3,257.6,0.3z M255,0.3h-1.3c-0.1,0-0.2-0.1-0.2-0.2
		s0.1-0.2,0.2-0.2h1.3c0.1,0,0.2,0.1,0.2,0.2S255.1,0.3,255,0.3z M252.5,0.3h-1.3c-0.1,0-0.2-0.1-0.2-0.2s0.1-0.2,0.2-0.2h1.3
		c0.1,0,0.2,0.1,0.2,0.2S252.6,0.3,252.5,0.3z M249.9,0.3h-1.3c-0.1,0-0.2-0.1-0.2-0.2s0.1-0.2,0.2-0.2h1.3c0.1,0,0.2,0.1,0.2,0.2
		S250,0.3,249.9,0.3z M247.4,0.3h-1.3c-0.1,0-0.2-0.1-0.2-0.2s0.1-0.2,0.2-0.2h1.3c0.1,0,0.2,0.1,0.2,0.2S247.5,0.3,247.4,0.3z
		 M244.9,0.3h-1.3c-0.1,0-0.2-0.1-0.2-0.2s0.1-0.2,0.2-0.2h1.3c0.1,0,0.2,0.1,0.2,0.2S245,0.3,244.9,0.3z M242.3,0.3h-1.3
		c-0.1,0-0.2-0.1-0.2-0.2S241,0,241.1,0h1.3c0.1,0,0.2,0.1,0.2,0.2S242.4,0.3,242.3,0.3z M239.8,0.3h-1.3c-0.1,0-0.2-0.1-0.2-0.2
		s0.1-0.2,0.2-0.2h1.3c0.1,0,0.2,0.1,0.2,0.2S239.9,0.3,239.8,0.3z M237.2,0.3H236c-0.1,0-0.2-0.1-0.2-0.2S235.9,0,236,0h1.3
		c0.1,0,0.2,0.1,0.2,0.2S237.3,0.3,237.2,0.3z M234.7,0.3h-1.3c-0.1,0-0.2-0.1-0.2-0.2s0.1-0.2,0.2-0.2h1.3c0.1,0,0.2,0.1,0.2,0.2
		S234.8,0.3,234.7,0.3z M232.2,0.3h-1.3c-0.1,0-0.2-0.1-0.2-0.2s0.1-0.2,0.2-0.2h1.3c0.1,0,0.2,0.1,0.2,0.2S232.3,0.3,232.2,0.3z
		 M229.6,0.3h-1.3c-0.1,0-0.2-0.1-0.2-0.2s0.1-0.2,0.2-0.2h1.3c0.1,0,0.2,0.1,0.2,0.2S229.7,0.3,229.6,0.3z"/>
	<path fill="#7F58A5" d="M226.5,9.4h-0.9c-0.1,0-0.2-0.1-0.2-0.2s0.1-0.2,0.2-0.2h0.9c0.1,0,0.2,0.1,0.2,0.2S226.6,9.4,226.5,9.4z
		 M224.2,9.4h-1.4c-0.1,0-0.2-0.1-0.2-0.2s0.1-0.2,0.2-0.2h1.4c0.1,0,0.2,0.1,0.2,0.2S224.3,9.4,224.2,9.4z M221.4,9.4H220
		c-0.1,0-0.2-0.1-0.2-0.2s0.1-0.2,0.2-0.2h1.4c0.1,0,0.2,0.1,0.2,0.2S221.5,9.4,221.4,9.4z M218.6,9.4h-1.4c-0.1,0-0.2-0.1-0.2-0.2
		s0.1-0.2,0.2-0.2h1.4c0.1,0,0.2,0.1,0.2,0.2S218.7,9.4,218.6,9.4z M215.7,9.4h-1.4c-0.1,0-0.2-0.1-0.2-0.2s0.1-0.2,0.2-0.2h1.4
		c0.1,0,0.2,0.1,0.2,0.2S215.8,9.4,215.7,9.4z M212.9,9.4h-1.4c-0.1,0-0.2-0.1-0.2-0.2s0.1-0.2,0.2-0.2h1.4c0.1,0,0.2,0.1,0.2,0.2
		S213,9.4,212.9,9.4z M210.1,9.4h-1.4c-0.1,0-0.2-0.1-0.2-0.2s0.1-0.2,0.2-0.2h1.4c0.1,0,0.2,0.1,0.2,0.2S210.2,9.4,210.1,9.4z
		 M207.3,9.4h-1.4c-0.1,0-0.2-0.1-0.2-0.2s0.1-0.2,0.2-0.2h1.4c0.1,0,0.2,0.1,0.2,0.2S207.4,9.4,207.3,9.4z M204.5,9.4h-1.4
		c-0.1,0-0.2-0.1-0.2-0.2s0.1-0.2,0.2-0.2h1.4c0.1,0,0.2,0.1,0.2,0.2S204.6,9.4,204.5,9.4z M201.6,9.4h-1.4c-0.1,0-0.2-0.1-0.2-0.2
		s0.1-0.2,0.2-0.2h1.4c0.1,0,0.2,0.1,0.2,0.2S201.7,9.4,201.6,9.4z M198.8,9.4h-1.4c-0.1,0-0.2-0.1-0.2-0.2s0.1-0.2,0.2-0.2h1.4
		c0.1,0,0.2,0.1,0.2,0.2S198.9,9.4,198.8,9.4z M196,9.4h-1.4c-0.1,0-0.2-0.1-0.2-0.2s0.1-0.2,0.2-0.2h1.4c0.1,0,0.2,0.1,0.2,0.2
		S196.1,9.4,196,9.4z M193.2,9.4h-1.4c-0.1,0-0.2-0.1-0.2-0.2s0.1-0.2,0.2-0.2h1.4c0.1,0,0.2,0.1,0.2,0.2S193.3,9.4,193.2,9.4z
		 M190.4,9.4H189c-0.1,0-0.2-0.1-0.2-0.2s0.1-0.2,0.2-0.2h1.4c0.1,0,0.2,0.1,0.2,0.2S190.5,9.4,190.4,9.4z"/>
	<path fill="#7F58A5" d="M27.8,47.1H15.4c-4.1,0-8-1.6-10.9-4.5C1.6,39.7,0,35.8,0,31.7L0,8.9c0-0.1,0.1-0.2,0.2-0.2l0,0
		c0.1,0,0.2,0.1,0.2,0.2l0,22.8c0,4,1.6,7.8,4.4,10.6s6.6,4.4,10.6,4.4h12.4c0.1,0,0.2,0.1,0.2,0.2S27.9,47.1,27.8,47.1z"/>
	<g>
		<defs>
			<polygon id="SVGID_1_" points="26.8,63.3 26.8,88.6 130.9,72 130.9,12.1 26.8,12.1 			"/>
		</defs>
		<clipPath id="SVGID_2_">
			<use xlink:href="#SVGID_1_"  overflow="visible"/>
		</clipPath>
		<g clip-path="url(#SVGID_2_)">
			<g>
				<g>
					<polygon fill="#D1D3D4" points="63.9,71 63.9,38.8 78.3,34.1 78.3,34 89.9,40.9 89.9,71 					"/>
				</g>
				<g>
					<g>
						<rect x="65.7" y="40.1" fill="#939598" width="0.6" height="6.5"/>
						<rect x="67.4" y="39.6" fill="#939598" width="0.6" height="6.5"/>
						<rect x="69.2" y="39" fill="#939598" width="0.6" height="6.5"/>
						<rect x="70.9" y="38.5" fill="#939598" width="0.6" height="6.5"/>
						<rect x="72.7" y="37.9" fill="#939598" width="0.6" height="6.5"/>
						<rect x="74.4" y="37.3" fill="#939598" width="0.6" height="6.5"/>
						<rect x="76.2" y="36.8" fill="#939598" width="0.6" height="6.5"/>
					</g>
					<g>
						<rect x="65.7" y="48.2" fill="#939598" width="0.6" height="6.5"/>
						<rect x="67.4" y="47.7" fill="#939598" width="0.6" height="6.5"/>
						<rect x="69.2" y="47.1" fill="#939598" width="0.6" height="6.5"/>
						<rect x="70.9" y="46.6" fill="#939598" width="0.6" height="6.5"/>
						<rect x="72.7" y="46" fill="#939598" width="0.6" height="6.5"/>
						<rect x="74.4" y="45.4" fill="#939598" width="0.6" height="6.5"/>
						<rect x="76.2" y="44.9" fill="#939598" width="0.6" height="6.5"/>
					</g>
					<g>
						<rect x="65.7" y="56.3" fill="#939598" width="0.6" height="6.5"/>
						<rect x="67.4" y="55.8" fill="#939598" width="0.6" height="6.5"/>
						<rect x="69.2" y="55.2" fill="#939598" width="0.6" height="6.5"/>
						<rect x="70.9" y="54.7" fill="#939598" width="0.6" height="6.5"/>
						<rect x="72.7" y="54.1" fill="#939598" width="0.6" height="6.5"/>
						<rect x="74.4" y="53.5" fill="#939598" width="0.6" height="6.5"/>
						<rect x="76.2" y="53" fill="#939598" width="0.6" height="6.5"/>
					</g>
					<g>
						<rect x="65.7" y="64.5" fill="#939598" width="0.6" height="6.5"/>
						<rect x="67.4" y="63.9" fill="#939598" width="0.6" height="6.5"/>
						<rect x="69.2" y="63.3" fill="#939598" width="0.6" height="6.5"/>
						<rect x="70.9" y="62.8" fill="#939598" width="0.6" height="6.5"/>
						<rect x="72.7" y="62.2" fill="#939598" width="0.6" height="6.5"/>
						<rect x="74.4" y="61.7" fill="#939598" width="0.6" height="6.5"/>
						<rect x="76.2" y="61.1" fill="#939598" width="0.6" height="6.5"/>
					</g>
					<g>
						<rect x="65.7" y="72.6" fill="#939598" width="0.6" height="6.5"/>
						<rect x="67.4" y="72" fill="#939598" width="0.6" height="6.5"/>
						<rect x="69.2" y="71.4" fill="#939598" width="0.6" height="6.5"/>
						<rect x="70.9" y="70.9" fill="#939598" width="0.6" height="6.5"/>
						<rect x="72.7" y="70.3" fill="#939598" width="0.6" height="6.5"/>
						<rect x="74.4" y="69.8" fill="#939598" width="0.6" height="6.5"/>
						<rect x="76.2" y="69.2" fill="#939598" width="0.6" height="6.5"/>
					</g>
				</g>
				<g>
					<polygon fill="#E6E7E8" points="82,76.4 89.9,74.6 89.9,40.9 78.3,34 78.3,77.7 					"/>
				</g>
				<g>
					<rect x="79.6" y="37.3" fill="#939598" width="0.2" height="33"/>
					<rect x="81.1" y="38" fill="#939598" width="0.2" height="33"/>
					<rect x="82.6" y="38.8" fill="#939598" width="0.2" height="33"/>
					<rect x="84.1" y="39.5" fill="#939598" width="0.2" height="33"/>
					<rect x="85.5" y="40.3" fill="#939598" width="0.2" height="33"/>
					<rect x="87" y="41.1" fill="#939598" width="0.2" height="33"/>
					<rect x="88.5" y="41.8" fill="#939598" width="0.2" height="33"/>
				</g>
			</g>
			<g>
				<g>
					<polygon fill="#D1D3D4" points="80.6,63.2 80.6,31 95,26.3 95,26.2 106.6,33 106.6,63.2 					"/>
				</g>
				<g>
					<g>
						<rect x="82.4" y="32.3" fill="#939598" width="0.6" height="6.5"/>
						<rect x="84.2" y="31.8" fill="#939598" width="0.6" height="6.5"/>
						<rect x="85.9" y="31.2" fill="#939598" width="0.6" height="6.5"/>
						<rect x="87.7" y="30.6" fill="#939598" width="0.6" height="6.5"/>
						<rect x="89.4" y="30.1" fill="#939598" width="0.6" height="6.5"/>
						<rect x="91.2" y="29.5" fill="#939598" width="0.6" height="6.5"/>
						<rect x="92.9" y="29" fill="#939598" width="0.6" height="6.5"/>
					</g>
					<g>
						<rect x="82.4" y="40.4" fill="#939598" width="0.6" height="6.5"/>
						<rect x="84.2" y="39.9" fill="#939598" width="0.6" height="6.5"/>
						<rect x="85.9" y="39.3" fill="#939598" width="0.6" height="6.5"/>
						<rect x="87.7" y="38.8" fill="#939598" width="0.6" height="6.5"/>
						<rect x="89.4" y="38.2" fill="#939598" width="0.6" height="6.5"/>
						<rect x="91.2" y="37.6" fill="#939598" width="0.6" height="6.5"/>
						<rect x="92.9" y="37.1" fill="#939598" width="0.6" height="6.5"/>
					</g>
					<g>
						<rect x="82.4" y="48.5" fill="#939598" width="0.6" height="6.5"/>
						<rect x="84.2" y="48" fill="#939598" width="0.6" height="6.5"/>
						<rect x="85.9" y="47.4" fill="#939598" width="0.6" height="6.5"/>
						<rect x="87.7" y="46.9" fill="#939598" width="0.6" height="6.5"/>
						<rect x="89.4" y="46.3" fill="#939598" width="0.6" height="6.5"/>
						<rect x="91.2" y="45.7" fill="#939598" width="0.6" height="6.5"/>
						<rect x="92.9" y="45.2" fill="#939598" width="0.6" height="6.5"/>
					</g>
					<g>
						<rect x="82.4" y="56.6" fill="#939598" width="0.6" height="6.5"/>
						<rect x="84.2" y="56.1" fill="#939598" width="0.6" height="6.5"/>
						<rect x="85.9" y="55.5" fill="#939598" width="0.6" height="6.5"/>
						<rect x="87.7" y="55" fill="#939598" width="0.6" height="6.5"/>
						<rect x="89.4" y="54.4" fill="#939598" width="0.6" height="6.5"/>
						<rect x="91.2" y="53.8" fill="#939598" width="0.6" height="6.5"/>
						<rect x="92.9" y="53.3" fill="#939598" width="0.6" height="6.5"/>
					</g>
					<g>
						<rect x="82.4" y="64.7" fill="#939598" width="0.6" height="6.5"/>
						<rect x="84.2" y="64.2" fill="#939598" width="0.6" height="6.5"/>
						<rect x="85.9" y="63.6" fill="#939598" width="0.6" height="6.5"/>
						<rect x="87.7" y="63.1" fill="#939598" width="0.6" height="6.5"/>
						<rect x="89.4" y="62.5" fill="#939598" width="0.6" height="6.5"/>
						<rect x="91.2" y="61.9" fill="#939598" width="0.6" height="6.5"/>
						<rect x="92.9" y="61.4" fill="#939598" width="0.6" height="6.5"/>
					</g>
				</g>
				<g>
					<polygon fill="#E6E7E8" points="98.7,68.6 106.6,66.7 106.6,33 95,26.2 95,69.9 					"/>
				</g>
				<g>
					<rect x="96.4" y="29.5" fill="#939598" width="0.2" height="33"/>
					<rect x="97.8" y="30.2" fill="#939598" width="0.2" height="33"/>
					<rect x="99.3" y="31" fill="#939598" width="0.2" height="33"/>
					<rect x="100.8" y="31.7" fill="#939598" width="0.2" height="33"/>
					<rect x="102.3" y="32.5" fill="#939598" width="0.2" height="33"/>
					<rect x="103.8" y="33.2" fill="#939598" width="0.2" height="33"/>
					<rect x="105.2" y="34" fill="#939598" width="0.2" height="33"/>
				</g>
			</g>
			<g>
				<g>
					<polygon fill="#E6E7E8" points="33.2,90.1 33.2,65.3 45.8,52.2 45.8,90.1 					"/>
				</g>
				<g>
					<rect x="33.9" y="64.3" fill="#939598" width="0.4" height="26.3"/>
					<rect x="35.7" y="62.4" fill="#939598" width="0.4" height="28.6"/>
					<rect x="37.5" y="60.6" fill="#939598" width="0.4" height="30.8"/>
					<rect x="39.3" y="58.7" fill="#939598" width="0.4" height="33.1"/>
					<rect x="41.1" y="56.8" fill="#939598" width="0.4" height="35.3"/>
					<rect x="42.9" y="54.9" fill="#939598" width="0.4" height="37.6"/>
					<rect x="44.7" y="53" fill="#939598" width="0.4" height="39.8"/>
				</g>
			</g>
			<g>
				<g>
					<polygon fill="#D1D3D4" points="105.7,90.1 105.7,50.9 111.8,46.3 111.8,31.3 117.5,31.3 117.5,17.9 122.9,17.9 122.9,90.1 
											"/>
				</g>
				<g>
					<rect x="106.3" y="51.4" fill="#939598" width="0.6" height="8.2"/>
					<rect x="108" y="50.2" fill="#939598" width="0.6" height="8.2"/>
					<rect x="109.6" y="49" fill="#939598" width="0.6" height="8.2"/>
					<rect x="111.3" y="47.9" fill="#939598" width="0.6" height="8.2"/>
				</g>
				<g>
					<rect x="112.5" y="32.7" fill="#939598" width="0.6" height="8.7"/>
					<rect x="114" y="32.7" fill="#939598" width="0.6" height="8.7"/>
					<rect x="115.5" y="32.7" fill="#939598" width="0.6" height="8.7"/>
					<rect x="116.9" y="32.7" fill="#939598" width="0.6" height="8.7"/>
				</g>
				<g>
					<rect x="118.5" y="19.1" fill="#939598" width="0.6" height="22.3"/>
					<rect x="120.1" y="19.1" fill="#939598" width="0.6" height="22.3"/>
					<rect x="121.7" y="19.1" fill="#939598" width="0.6" height="22.3"/>
				</g>
				<g>
					<rect x="118.5" y="42.7" fill="#939598" width="0.6" height="47.7"/>
					<rect x="120.1" y="42.7" fill="#939598" width="0.6" height="47.7"/>
					<rect x="121.7" y="42.7" fill="#939598" width="0.6" height="47.7"/>
				</g>
				<g>
					<rect x="112.5" y="42.5" fill="#939598" width="0.6" height="8.7"/>
					<rect x="114" y="42.5" fill="#939598" width="0.6" height="8.7"/>
					<rect x="115.5" y="42.5" fill="#939598" width="0.6" height="8.7"/>
					<rect x="116.9" y="42.5" fill="#939598" width="0.6" height="8.7"/>
				</g>
				<g>
					<rect x="112.5" y="52.4" fill="#939598" width="0.6" height="8.7"/>
					<rect x="114" y="52.4" fill="#939598" width="0.6" height="8.7"/>
					<rect x="115.5" y="52.4" fill="#939598" width="0.6" height="8.7"/>
					<rect x="116.9" y="52.4" fill="#939598" width="0.6" height="8.7"/>
				</g>
				<g>
					<rect x="112.5" y="62.2" fill="#939598" width="0.6" height="8.7"/>
					<rect x="114" y="62.2" fill="#939598" width="0.6" height="8.7"/>
					<rect x="115.5" y="62.2" fill="#939598" width="0.6" height="8.7"/>
					<rect x="116.9" y="62.2" fill="#939598" width="0.6" height="8.7"/>
				</g>
				<g>
					<rect x="112.5" y="72.1" fill="#939598" width="0.6" height="8.7"/>
					<rect x="114" y="72.1" fill="#939598" width="0.6" height="8.7"/>
					<rect x="115.5" y="72.1" fill="#939598" width="0.6" height="8.7"/>
					<rect x="116.9" y="72.1" fill="#939598" width="0.6" height="8.7"/>
				</g>
				<g>
					<rect x="112.5" y="81.9" fill="#939598" width="0.6" height="8.7"/>
					<rect x="114" y="81.9" fill="#939598" width="0.6" height="8.7"/>
					<rect x="115.5" y="81.9" fill="#939598" width="0.6" height="8.7"/>
					<rect x="116.9" y="81.9" fill="#939598" width="0.6" height="8.7"/>
				</g>
			</g>
			<g>
				<g>
					<polygon fill="#D1D3D4" points="41.2,90.1 41.2,68.7 50.8,65.5 50.8,46.1 58.6,50.7 58.6,90.1 					"/>
				</g>
				<g>
					<g>
						<rect x="42.4" y="69.6" fill="#939598" width="0.4" height="4.4"/>
						<rect x="43.6" y="69.2" fill="#939598" width="0.4" height="4.4"/>
						<rect x="44.8" y="68.8" fill="#939598" width="0.4" height="4.4"/>
						<rect x="45.9" y="68.5" fill="#939598" width="0.4" height="4.4"/>
						<rect x="47.1" y="68.1" fill="#939598" width="0.4" height="4.4"/>
						<rect x="48.3" y="67.7" fill="#939598" width="0.4" height="4.4"/>
						<rect x="49.4" y="67.3" fill="#939598" width="0.4" height="4.4"/>
					</g>
					<g>
						<rect x="42.4" y="75" fill="#939598" width="0.4" height="4.4"/>
						<rect x="43.6" y="74.6" fill="#939598" width="0.4" height="4.4"/>
						<rect x="44.8" y="74.2" fill="#939598" width="0.4" height="4.4"/>
						<rect x="45.9" y="73.9" fill="#939598" width="0.4" height="4.4"/>
						<rect x="47.1" y="73.5" fill="#939598" width="0.4" height="4.4"/>
						<rect x="48.3" y="73.1" fill="#939598" width="0.4" height="4.4"/>
						<rect x="49.4" y="72.7" fill="#939598" width="0.4" height="4.4"/>
					</g>
					<g>
						<rect x="42.4" y="80.4" fill="#939598" width="0.4" height="4.4"/>
						<rect x="43.6" y="80" fill="#939598" width="0.4" height="4.4"/>
						<rect x="44.8" y="79.6" fill="#939598" width="0.4" height="4.4"/>
						<rect x="45.9" y="79.3" fill="#939598" width="0.4" height="4.4"/>
						<rect x="47.1" y="78.9" fill="#939598" width="0.4" height="4.4"/>
						<rect x="48.3" y="78.5" fill="#939598" width="0.4" height="4.4"/>
						<rect x="49.4" y="78.1" fill="#939598" width="0.4" height="4.4"/>
					</g>
					<g>
						<rect x="42.4" y="85.8" fill="#939598" width="0.4" height="4.4"/>
						<rect x="43.6" y="85.4" fill="#939598" width="0.4" height="4.4"/>
						<rect x="44.8" y="85" fill="#939598" width="0.4" height="4.4"/>
						<rect x="45.9" y="84.7" fill="#939598" width="0.4" height="4.4"/>
						<rect x="47.1" y="84.3" fill="#939598" width="0.4" height="4.4"/>
						<rect x="48.3" y="83.9" fill="#939598" width="0.4" height="4.4"/>
						<rect x="49.4" y="83.6" fill="#939598" width="0.4" height="4.4"/>
					</g>
					<g>
						<rect x="42.4" y="91.2" fill="#939598" width="0.4" height="4.4"/>
						<rect x="43.6" y="90.8" fill="#939598" width="0.4" height="4.4"/>
						<rect x="44.8" y="90.5" fill="#939598" width="0.4" height="4.4"/>
						<rect x="45.9" y="90.1" fill="#939598" width="0.4" height="4.4"/>
						<rect x="47.1" y="89.7" fill="#939598" width="0.4" height="4.4"/>
						<rect x="48.3" y="89.3" fill="#939598" width="0.4" height="4.4"/>
						<rect x="49.4" y="89" fill="#939598" width="0.4" height="4.4"/>
					</g>
				</g>
				<g>
					<polygon fill="#E6E7E8" points="53.3,93.8 58.6,92.5 58.6,50.7 50.8,46.1 50.8,94.6 					"/>
				</g>
				<g>
					<rect x="51.7" y="48.3" fill="#939598" width="0.2" height="41.4"/>
					<rect x="52.7" y="48.8" fill="#939598" width="0.2" height="41.4"/>
					<rect x="53.7" y="49.3" fill="#939598" width="0.2" height="41.4"/>
					<rect x="54.6" y="49.8" fill="#939598" width="0.2" height="41.4"/>
					<rect x="55.6" y="50.3" fill="#939598" width="0.2" height="41.4"/>
					<rect x="56.6" y="50.8" fill="#939598" width="0.2" height="41.4"/>
					<rect x="57.6" y="51.3" fill="#939598" width="0.2" height="41.4"/>
				</g>
			</g>
			<g>
				<g>
					<polygon fill="#E6E7E8" points="56.8,63.1 71.5,54.4 113.7,54.4 113.7,90.1 56.8,90.1 					"/>
				</g>
				<g>
					<polygon fill="#D1D3D4" points="71.5,54.4 71.5,93.6 56.8,90.1 56.8,63.1 					"/>
				</g>
				<g>
					<g>
						<rect x="58" y="63.7" fill="#939598" width="0.6" height="2.8"/>
						<rect x="59.9" y="62.6" fill="#939598" width="0.6" height="2.8"/>
						<rect x="61.9" y="61.4" fill="#939598" width="0.6" height="2.8"/>
						<rect x="63.8" y="60.3" fill="#939598" width="0.6" height="2.8"/>
						<rect x="65.7" y="59.2" fill="#939598" width="0.6" height="2.8"/>
						<rect x="67.7" y="58.1" fill="#939598" width="0.6" height="2.8"/>
						<rect x="69.6" y="56.9" fill="#939598" width="0.6" height="2.8"/>
					</g>
					<g>
						<rect x="72.5" y="56.7" fill="#939598" width="0.6" height="2.8"/>
						<rect x="75.4" y="56.7" fill="#939598" width="0.6" height="2.8"/>
						<rect x="78.4" y="56.7" fill="#939598" width="0.6" height="2.8"/>
						<rect x="81.3" y="56.7" fill="#939598" width="0.6" height="2.8"/>
						<rect x="84.3" y="56.7" fill="#939598" width="0.6" height="2.8"/>
						<rect x="87.2" y="56.7" fill="#939598" width="0.6" height="2.8"/>
						<rect x="90.2" y="56.7" fill="#939598" width="0.6" height="2.8"/>
						<rect x="93.1" y="56.7" fill="#939598" width="0.6" height="2.8"/>
						<rect x="96.1" y="56.7" fill="#939598" width="0.6" height="2.8"/>
						<rect x="99" y="56.7" fill="#939598" width="0.6" height="2.8"/>
						<rect x="102" y="56.7" fill="#939598" width="0.6" height="2.8"/>
						<rect x="104.9" y="56.7" fill="#939598" width="0.6" height="2.8"/>
						<rect x="107.9" y="56.7" fill="#939598" width="0.6" height="2.8"/>
						<rect x="110.8" y="56.7" fill="#939598" width="0.6" height="2.8"/>
					</g>
					<g>
						<rect x="72.5" y="62.5" fill="#939598" width="0.6" height="2.8"/>
						<rect x="75.4" y="62.5" fill="#939598" width="0.6" height="2.8"/>
						<rect x="78.4" y="62.5" fill="#939598" width="0.6" height="2.8"/>
						<rect x="81.3" y="62.5" fill="#939598" width="0.6" height="2.8"/>
						<rect x="84.3" y="62.5" fill="#939598" width="0.6" height="2.8"/>
						<rect x="87.2" y="62.5" fill="#939598" width="0.6" height="2.8"/>
						<rect x="90.2" y="62.5" fill="#939598" width="0.6" height="2.8"/>
						<rect x="93.1" y="62.5" fill="#939598" width="0.6" height="2.8"/>
						<rect x="96.1" y="62.5" fill="#939598" width="0.6" height="2.8"/>
						<rect x="99" y="62.5" fill="#939598" width="0.6" height="2.8"/>
						<rect x="102" y="62.5" fill="#939598" width="0.6" height="2.8"/>
						<rect x="104.9" y="62.5" fill="#939598" width="0.6" height="2.8"/>
						<rect x="107.9" y="62.5" fill="#939598" width="0.6" height="2.8"/>
						<rect x="110.8" y="62.5" fill="#939598" width="0.6" height="2.8"/>
					</g>
					<g>
						<rect x="72.5" y="68.3" fill="#939598" width="0.6" height="2.8"/>
						<rect x="75.4" y="68.3" fill="#939598" width="0.6" height="2.8"/>
						<rect x="78.4" y="68.3" fill="#939598" width="0.6" height="2.8"/>
						<rect x="81.3" y="68.3" fill="#939598" width="0.6" height="2.8"/>
						<rect x="84.3" y="68.3" fill="#939598" width="0.6" height="2.8"/>
						<rect x="87.2" y="68.3" fill="#939598" width="0.6" height="2.8"/>
						<rect x="90.2" y="68.3" fill="#939598" width="0.6" height="2.8"/>
						<rect x="93.1" y="68.3" fill="#939598" width="0.6" height="2.8"/>
						<rect x="96.1" y="68.3" fill="#939598" width="0.6" height="2.8"/>
						<rect x="99" y="68.3" fill="#939598" width="0.6" height="2.8"/>
						<rect x="102" y="68.3" fill="#939598" width="0.6" height="2.8"/>
						<rect x="104.9" y="68.3" fill="#939598" width="0.6" height="2.8"/>
						<rect x="107.9" y="68.3" fill="#939598" width="0.6" height="2.8"/>
						<rect x="110.8" y="68.3" fill="#939598" width="0.6" height="2.8"/>
					</g>
					<g>
						<rect x="72.5" y="74.2" fill="#939598" width="0.6" height="2.8"/>
						<rect x="75.4" y="74.2" fill="#939598" width="0.6" height="2.8"/>
						<rect x="78.4" y="74.2" fill="#939598" width="0.6" height="2.8"/>
						<rect x="81.3" y="74.2" fill="#939598" width="0.6" height="2.8"/>
						<rect x="84.3" y="74.2" fill="#939598" width="0.6" height="2.8"/>
						<rect x="87.2" y="74.2" fill="#939598" width="0.6" height="2.8"/>
						<rect x="90.2" y="74.2" fill="#939598" width="0.6" height="2.8"/>
						<rect x="93.1" y="74.2" fill="#939598" width="0.6" height="2.8"/>
						<rect x="96.1" y="74.2" fill="#939598" width="0.6" height="2.8"/>
						<rect x="99" y="74.2" fill="#939598" width="0.6" height="2.8"/>
						<rect x="102" y="74.2" fill="#939598" width="0.6" height="2.8"/>
						<rect x="104.9" y="74.2" fill="#939598" width="0.6" height="2.8"/>
						<rect x="107.9" y="74.2" fill="#939598" width="0.6" height="2.8"/>
						<rect x="110.8" y="74.2" fill="#939598" width="0.6" height="2.8"/>
					</g>
					<g>
						<rect x="72.5" y="80" fill="#939598" width="0.6" height="2.8"/>
						<rect x="75.4" y="80" fill="#939598" width="0.6" height="2.8"/>
						<rect x="78.4" y="80" fill="#939598" width="0.6" height="2.8"/>
						<rect x="81.3" y="80" fill="#939598" width="0.6" height="2.8"/>
						<rect x="84.3" y="80" fill="#939598" width="0.6" height="2.8"/>
						<rect x="87.2" y="80" fill="#939598" width="0.6" height="2.8"/>
						<rect x="90.2" y="80" fill="#939598" width="0.6" height="2.8"/>
						<rect x="93.1" y="80" fill="#939598" width="0.6" height="2.8"/>
						<rect x="96.1" y="80" fill="#939598" width="0.6" height="2.8"/>
						<rect x="99" y="80" fill="#939598" width="0.6" height="2.8"/>
						<rect x="102" y="80" fill="#939598" width="0.6" height="2.8"/>
						<rect x="104.9" y="80" fill="#939598" width="0.6" height="2.8"/>
						<rect x="107.9" y="80" fill="#939598" width="0.6" height="2.8"/>
						<rect x="110.8" y="80" fill="#939598" width="0.6" height="2.8"/>
					</g>
					<g>
						<rect x="72.5" y="85.8" fill="#939598" width="0.6" height="2.8"/>
						<rect x="75.4" y="85.8" fill="#939598" width="0.6" height="2.8"/>
						<rect x="78.4" y="85.8" fill="#939598" width="0.6" height="2.8"/>
						<rect x="81.3" y="85.8" fill="#939598" width="0.6" height="2.8"/>
						<rect x="84.3" y="85.8" fill="#939598" width="0.6" height="2.8"/>
						<rect x="87.2" y="85.8" fill="#939598" width="0.6" height="2.8"/>
						<rect x="90.2" y="85.8" fill="#939598" width="0.6" height="2.8"/>
						<rect x="93.1" y="85.8" fill="#939598" width="0.6" height="2.8"/>
						<rect x="96.1" y="85.8" fill="#939598" width="0.6" height="2.8"/>
						<rect x="99" y="85.8" fill="#939598" width="0.6" height="2.8"/>
						<rect x="102" y="85.8" fill="#939598" width="0.6" height="2.8"/>
						<rect x="104.9" y="85.8" fill="#939598" width="0.6" height="2.8"/>
						<rect x="107.9" y="85.8" fill="#939598" width="0.6" height="2.8"/>
						<rect x="110.8" y="85.8" fill="#939598" width="0.6" height="2.8"/>
					</g>
					<g>
						<rect x="58" y="69.5" fill="#939598" width="0.6" height="2.8"/>
						<rect x="59.9" y="68.3" fill="#939598" width="0.6" height="2.8"/>
						<rect x="61.9" y="67.2" fill="#939598" width="0.6" height="2.8"/>
						<rect x="63.8" y="66.1" fill="#939598" width="0.6" height="2.8"/>
						<rect x="65.7" y="65" fill="#939598" width="0.6" height="2.8"/>
						<rect x="67.7" y="63.8" fill="#939598" width="0.6" height="2.8"/>
						<rect x="69.6" y="62.7" fill="#939598" width="0.6" height="2.8"/>
					</g>
					<g>
						<rect x="58" y="75.2" fill="#939598" width="0.6" height="2.8"/>
						<rect x="59.9" y="74.1" fill="#939598" width="0.6" height="2.8"/>
						<rect x="61.9" y="73" fill="#939598" width="0.6" height="2.8"/>
						<rect x="63.8" y="71.9" fill="#939598" width="0.6" height="2.8"/>
						<rect x="65.7" y="70.7" fill="#939598" width="0.6" height="2.8"/>
						<rect x="67.7" y="69.6" fill="#939598" width="0.6" height="2.8"/>
						<rect x="69.6" y="68.5" fill="#939598" width="0.6" height="2.8"/>
					</g>
					<g>
						<rect x="58" y="81" fill="#939598" width="0.6" height="2.8"/>
						<rect x="59.9" y="79.9" fill="#939598" width="0.6" height="2.8"/>
						<rect x="61.9" y="78.8" fill="#939598" width="0.6" height="2.8"/>
						<rect x="63.8" y="77.6" fill="#939598" width="0.6" height="2.8"/>
						<rect x="65.7" y="76.5" fill="#939598" width="0.6" height="2.8"/>
						<rect x="67.7" y="75.4" fill="#939598" width="0.6" height="2.8"/>
						<rect x="69.6" y="74.3" fill="#939598" width="0.6" height="2.8"/>
					</g>
					<g>
						<rect x="58" y="86.8" fill="#939598" width="0.6" height="2.8"/>
						<rect x="59.9" y="85.7" fill="#939598" width="0.6" height="2.8"/>
						<rect x="61.9" y="84.5" fill="#939598" width="0.6" height="2.8"/>
						<rect x="63.8" y="83.4" fill="#939598" width="0.6" height="2.8"/>
						<rect x="65.7" y="82.3" fill="#939598" width="0.6" height="2.8"/>
						<rect x="67.7" y="81.2" fill="#939598" width="0.6" height="2.8"/>
						<rect x="69.6" y="80" fill="#939598" width="0.6" height="2.8"/>
					</g>
					<g>
						<rect x="58" y="92.6" fill="#939598" width="0.6" height="2.8"/>
						<rect x="59.9" y="91.4" fill="#939598" width="0.6" height="2.8"/>
						<rect x="61.9" y="90.3" fill="#939598" width="0.6" height="2.8"/>
						<rect x="63.8" y="89.2" fill="#939598" width="0.6" height="2.8"/>
						<rect x="65.7" y="88.1" fill="#939598" width="0.6" height="2.8"/>
						<rect x="67.7" y="86.9" fill="#939598" width="0.6" height="2.8"/>
						<rect x="69.6" y="85.8" fill="#939598" width="0.6" height="2.8"/>
					</g>
				</g>
			</g>
		</g>
	</g>
	<path fill="#7F58A5" d="M36.2,87.2c-0.1,0-0.2-0.1-0.2-0.2c0-0.1,0.1-0.2,0.2-0.2l93-14.6c2.3-0.4,4-2.4,4-4.7
		c0-0.1,0.1-0.2,0.2-0.2s0.2,0.1,0.2,0.2c0,2.6-1.8,4.7-4.4,5.1L36.2,87.2C36.2,87.2,36.2,87.2,36.2,87.2z"/>
	<path fill="#7F58A5" d="M46.1,96c-0.1,0-0.2-0.1-0.2-0.2c0-0.1,0.1-0.2,0.2-0.2L83,89.5c0.1,0,0.2,0.1,0.2,0.2
		c0,0.1-0.1,0.2-0.2,0.2L46.1,96C46.1,96,46.1,96,46.1,96z"/>
	<path fill="#7F58A5" d="M81.6,94.9c-0.1,0-0.2-0.1-0.2-0.2c0-0.1,0.1-0.2,0.2-0.2l20.7-3.3c0.1,0,0.2,0.1,0.2,0.2
		c0,0.1-0.1,0.2-0.2,0.2L81.6,94.9C81.7,94.9,81.7,94.9,81.6,94.9z"/>
	<path fill="#7F58A5" d="M98.7,96.8c-0.1,0-0.2-0.1-0.2-0.2c0-0.1,0.1-0.2,0.2-0.2l20.7-3.3c0.1,0,0.2,0.1,0.2,0.2
		c0,0.1-0.1,0.2-0.2,0.2L98.7,96.8C98.7,96.8,98.7,96.8,98.7,96.8z"/>
	<g>
		<path fill="#7F58A5" d="M99,86.8c-0.1,0-0.2-0.1-0.2-0.2c0-0.1,0.1-0.2,0.2-0.2l33.4-5.3c0.1,0,0.2,0.1,0.2,0.2
			c0,0.1-0.1,0.2-0.2,0.2L99,86.8C99.1,86.8,99.1,86.8,99,86.8z"/>
		<path fill="#7F58A5" d="M130,83.8c-0.1,0-0.1,0-0.1-0.1c-0.1-0.1-0.1-0.2,0-0.3l2.5-2.1l-3.2-0.7c-0.1,0-0.2-0.1-0.1-0.2
			c0-0.1,0.1-0.2,0.2-0.1l3.6,0.8c0.1,0,0.1,0.1,0.1,0.1c0,0.1,0,0.1-0.1,0.2l-2.8,2.4C130,83.8,130,83.8,130,83.8z"/>
	</g>
	<g>
		<path fill="#7F58A5" d="M307.9,69.4c-0.7-0.6-1.2-1-2.1-1c-1,0-1.5,0.4-1.5,1.3c0,2,4.9,1.7,4.9,5.4c0,1.8-1,3.1-2.9,3.4l0,1.9
			l-1.6,0l0-1.8c-1.1-0.1-2.4-0.7-3.2-1.4l1.1-1.6c0.9,0.7,1.7,1.1,2.7,1.1c1.1,0,1.7-0.5,1.7-1.4c0-2.2-4.9-2-4.9-5.4
			c0-1.8,1.1-3,2.8-3.3l0-1.9l1.6,0l0,1.9c1.2,0.2,2,0.8,2.7,1.5L307.9,69.4z"/>
	</g>
	<g>
		<path fill="#7F58A5" d="M296.9,58.2c-0.7-0.6-1.2-1-2.1-1c-1,0-1.5,0.4-1.5,1.3c0,2,4.9,1.7,4.9,5.4c0,1.8-1,3.1-2.9,3.4l0,1.9
			l-1.6,0l0-1.8c-1.1-0.1-2.4-0.7-3.2-1.4l1.1-1.6c0.9,0.7,1.7,1.1,2.7,1.1c1.1,0,1.7-0.5,1.7-1.4c0-2.2-4.9-2-4.9-5.4
			c0-1.8,1.1-3,2.8-3.3l0-1.9l1.6,0l0,1.9c1.2,0.2,2,0.8,2.7,1.5L296.9,58.2z"/>
	</g>
	<g>
		<path fill="#7F58A5" d="M287.1,99.8c7.3-0.3,11.9-6,11.9-11.5h-5.6c0,0-2.8,11.5-6.8,11.5"/>
		<polygon fill="#7F58A5" points="289.1,90.5 296.7,79.2 302.2,91.3 295.6,88.8 		"/>
	</g>
	<path fill="#7F58A5" d="M30.1,58.3c-0.1,0-0.2-0.1-0.2-0.2V37.3c0-0.1,0.1-0.2,0.2-0.2h16.9c0.1,0,0.2,0.1,0.2,0.2
		c0,0.1-0.1,0.2-0.2,0.2H30.3v20.6C30.3,58.3,30.2,58.3,30.1,58.3z"/>
	<path fill="#7F58A5" d="M318.1,31.3c-0.1,0-0.2-0.1-0.2-0.2v-1.2c0-0.1,0.1-0.2,0.2-0.2c0.1,0,0.2,0.1,0.2,0.2v1.2
		C318.3,31.2,318.2,31.3,318.1,31.3z M318.1,28.7c-0.1,0-0.2-0.1-0.2-0.2v-1.4c0-0.1,0.1-0.2,0.2-0.2c0.1,0,0.2,0.1,0.2,0.2v1.4
		C318.3,28.6,318.2,28.7,318.1,28.7z M318.1,25.9c-0.1,0-0.2-0.1-0.2-0.2v-1.2c0-0.1,0-0.2,0-0.2c0-0.1,0.1-0.2,0.2-0.2
		c0.1,0,0.2,0.1,0.2,0.2c0,0.1,0,0.2,0,0.2v1.2C318.3,25.8,318.2,25.9,318.1,25.9z M317.8,23.1c-0.1,0-0.1,0-0.2-0.1
		c-0.1-0.4-0.3-0.8-0.6-1.2c-0.1-0.1,0-0.2,0-0.2c0.1-0.1,0.2,0,0.2,0c0.3,0.4,0.5,0.8,0.6,1.3C318,23,318,23.1,317.8,23.1
		C317.9,23.1,317.9,23.1,317.8,23.1z M316.3,20.8c0,0-0.1,0-0.1,0c-0.3-0.3-0.7-0.5-1.1-0.7c-0.1,0-0.1-0.1-0.1-0.2
		c0-0.1,0.1-0.1,0.2-0.1c0.4,0.2,0.9,0.5,1.2,0.8c0.1,0.1,0.1,0.2,0,0.2C316.4,20.8,316.3,20.8,316.3,20.8z M313.7,19.7
		C313.7,19.7,313.7,19.7,313.7,19.7c-0.3,0-0.5-0.1-0.8-0.1h-0.7c-0.1,0-0.2-0.1-0.2-0.2s0.1-0.2,0.2-0.2h0.7c0.3,0,0.5,0,0.8,0.1
		c0.1,0,0.2,0.1,0.1,0.2C313.9,19.6,313.8,19.7,313.7,19.7z M307.3,19.6c-0.2,0-0.5,0-0.7-0.1c-0.1,0-0.1-0.1-0.1-0.2
		c0-0.1,0.1-0.1,0.2-0.1c0.2,0.1,0.4,0.1,0.6,0.1c0,0,0,0,0,0h0.8c0.1,0,0.2,0.1,0.2,0.2s-0.1,0.2-0.2,0.2H307.3
		C307.4,19.6,307.4,19.6,307.3,19.6z M310.9,19.6h-1.4c-0.1,0-0.2-0.1-0.2-0.2s0.1-0.2,0.2-0.2h1.4c0.1,0,0.2,0.1,0.2,0.2
		S311,19.6,310.9,19.6z M305.5,18.8c0,0-0.1,0-0.1-0.1c-0.3-0.4-0.5-0.9-0.6-1.4c0-0.1,0.1-0.2,0.2-0.2c0.1,0,0.2,0.1,0.2,0.2
		c0,0.4,0.2,0.8,0.5,1.2c0.1,0.1,0.1,0.2,0,0.2C305.6,18.8,305.6,18.8,305.5,18.8z M304.7,16.1c-0.1,0-0.1,0-0.2-0.1
		c-0.2-0.4-0.5-0.7-0.9-0.9c-0.1,0-0.1-0.2-0.1-0.2c0-0.1,0.2-0.1,0.2-0.1c0.5,0.2,0.8,0.6,1.1,1.1C304.9,16,304.9,16.1,304.7,16.1
		C304.8,16.1,304.7,16.1,304.7,16.1z M302.4,14.9h-1.4c-0.1,0-0.2-0.1-0.2-0.2s0.1-0.2,0.2-0.2h1.4c0.1,0,0.2,0.1,0.2,0.2
		S302.5,14.9,302.4,14.9z M299.5,14.9h-1.4c-0.1,0-0.2-0.1-0.2-0.2s0.1-0.2,0.2-0.2h1.4c0.1,0,0.2,0.1,0.2,0.2
		S299.6,14.9,299.5,14.9z M296.7,14.9h-1.4c-0.1,0-0.2-0.1-0.2-0.2s0.1-0.2,0.2-0.2h1.4c0.1,0,0.2,0.1,0.2,0.2
		S296.8,14.9,296.7,14.9z M293.9,14.9h-1.4c-0.1,0-0.2-0.1-0.2-0.2s0.1-0.2,0.2-0.2h1.4c0.1,0,0.2,0.1,0.2,0.2S294,14.9,293.9,14.9z
		 M291.1,14.9h-1.4c-0.1,0-0.2-0.1-0.2-0.2s0.1-0.2,0.2-0.2h1.4c0.1,0,0.2,0.1,0.2,0.2S291.2,14.9,291.1,14.9z M288.3,14.9h-1.4
		c-0.1,0-0.2-0.1-0.2-0.2s0.1-0.2,0.2-0.2h1.4c0.1,0,0.2,0.1,0.2,0.2S288.4,14.9,288.3,14.9z M285.4,14.9H284
		c-0.1,0-0.2-0.1-0.2-0.2s0.1-0.2,0.2-0.2h1.4c0.1,0,0.2,0.1,0.2,0.2S285.5,14.9,285.4,14.9z M282.6,14.9h-1.4
		c-0.1,0-0.2-0.1-0.2-0.2s0.1-0.2,0.2-0.2h1.4c0.1,0,0.2,0.1,0.2,0.2S282.7,14.9,282.6,14.9z M279.8,14.9h-1.4
		c-0.1,0-0.2-0.1-0.2-0.2s0.1-0.2,0.2-0.2h1.4c0.1,0,0.2,0.1,0.2,0.2S279.9,14.9,279.8,14.9z M277,14.9h-1.4c-0.1,0-0.2-0.1-0.2-0.2
		s0.1-0.2,0.2-0.2h1.4c0.1,0,0.2,0.1,0.2,0.2S277.1,14.9,277,14.9z M274.2,14.9h-1.4c-0.1,0-0.2-0.1-0.2-0.2s0.1-0.2,0.2-0.2h1.4
		c0.1,0,0.2,0.1,0.2,0.2S274.3,14.9,274.2,14.9z M271.4,14.9h-1.4c-0.1,0-0.2-0.1-0.2-0.2s0.1-0.2,0.2-0.2h1.4
		c0.1,0,0.2,0.1,0.2,0.2S271.5,14.9,271.4,14.9z M268.5,14.9h-1.4c-0.1,0-0.2-0.1-0.2-0.2s0.1-0.2,0.2-0.2h1.4
		c0.1,0,0.2,0.1,0.2,0.2S268.6,14.9,268.5,14.9z M265.7,14.9h-1.4c-0.1,0-0.2-0.1-0.2-0.2s0.1-0.2,0.2-0.2h1.4
		c0.1,0,0.2,0.1,0.2,0.2S265.8,14.9,265.7,14.9z M262.9,14.9h-1.4c-0.1,0-0.2-0.1-0.2-0.2s0.1-0.2,0.2-0.2h1.4
		c0.1,0,0.2,0.1,0.2,0.2S263,14.9,262.9,14.9z M260.1,14.9h-1.4c-0.1,0-0.2-0.1-0.2-0.2s0.1-0.2,0.2-0.2h1.4c0.1,0,0.2,0.1,0.2,0.2
		S260.2,14.9,260.1,14.9z M257.3,14.9h-1.4c-0.1,0-0.2-0.1-0.2-0.2s0.1-0.2,0.2-0.2h1.4c0.1,0,0.2,0.1,0.2,0.2
		S257.4,14.9,257.3,14.9z M254.4,14.9H253c-0.1,0-0.2-0.1-0.2-0.2s0.1-0.2,0.2-0.2h1.4c0.1,0,0.2,0.1,0.2,0.2S254.5,14.9,254.4,14.9
		z M251.6,14.9h-1.4c-0.1,0-0.2-0.1-0.2-0.2s0.1-0.2,0.2-0.2h1.4c0.1,0,0.2,0.1,0.2,0.2S251.7,14.9,251.6,14.9z M248.8,14.9h-1.4
		c-0.1,0-0.2-0.1-0.2-0.2s0.1-0.2,0.2-0.2h1.4c0.1,0,0.2,0.1,0.2,0.2S248.9,14.9,248.8,14.9z M246,14.9h-1.4c-0.1,0-0.2-0.1-0.2-0.2
		s0.1-0.2,0.2-0.2h1.4c0.1,0,0.2,0.1,0.2,0.2S246.1,14.9,246,14.9z M243.2,14.9h-1.4c-0.1,0-0.2-0.1-0.2-0.2s0.1-0.2,0.2-0.2h1.4
		c0.1,0,0.2,0.1,0.2,0.2S243.3,14.9,243.2,14.9z M240.4,14.9h-1.4c-0.1,0-0.2-0.1-0.2-0.2s0.1-0.2,0.2-0.2h1.4
		c0.1,0,0.2,0.1,0.2,0.2S240.4,14.9,240.4,14.9z M237.5,14.9h-1.4c-0.1,0-0.2-0.1-0.2-0.2s0.1-0.2,0.2-0.2h1.4
		c0.1,0,0.2,0.1,0.2,0.2S237.6,14.9,237.5,14.9z"/>
	<path fill="#7F58A5" d="M147.9,25.5h-3.2c-0.1,0-0.2-0.1-0.2-0.2s0.1-0.2,0.2-0.2h3.1v-2.6c0-2.1,1.7-3.9,3.9-3.9H180
		c0.1,0,0.2,0.1,0.2,0.2S180.1,19,180,19h-28.4c-1.9,0-3.5,1.6-3.5,3.5v2.8C148.1,25.4,148,25.5,147.9,25.5z"/>
	<path fill="#7F58A5" d="M280.6,64.8h4.1c0.1,0,0.2,0.1,0.2,0.2s-0.1,0.2-0.2,0.2h-3.9v3.3c0,2.7-2.2,4.9-4.9,4.9h-35.9
		c-0.1,0-0.2-0.1-0.2-0.2s0.1-0.2,0.2-0.2h35.9c2.4,0,4.4-2,4.4-4.4V65C280.4,64.9,280.5,64.8,280.6,64.8z"/>
	<path fill="#7F58A5" d="M133.4,64.3c-0.1,0-0.2-0.1-0.2-0.2V42.4c0-0.1,0-0.1,0.1-0.2l9-6.5h-8.5c-0.1,0-0.2-0.1-0.2-0.2
		c0-2.3-1.8-4.1-4.1-4.1h-0.6c-0.1,0-0.2-0.1-0.2-0.2c0-0.1,0.1-0.2,0.2-0.2h0.6c2.4,0,4.4,1.9,4.5,4.3h8.9c0.1,0,0.2,0.1,0.2,0.1
		c0,0.1,0,0.2-0.1,0.2l-9.4,6.8v21.6C133.6,64.2,133.5,64.3,133.4,64.3z"/>
	<g>
		<g>
			<path fill="#7F58A5" d="M184.2,122.1h-43.6c-0.1,0-0.1,0-0.2-0.1c0-0.1-0.1-0.1,0-0.2l6.8-25.5c0-0.1,0.1-0.2,0.2-0.2h31.4
				c0.1,0,0.2,0.1,0.2,0.2l5.4,25.5c0,0.1,0,0.1,0,0.2C184.3,122.1,184.2,122.1,184.2,122.1z M140.8,121.6h43l-5.3-25h-31
				L140.8,121.6z"/>
			<path fill="#7F58A5" d="M170.8,103.8c-0.1,0-0.2-0.1-0.2-0.2v-9.9c0-4.4-3.6-7.9-7.9-7.9c-4.4,0-7.9,3.6-7.9,7.9v9.9
				c0,0.1-0.1,0.2-0.2,0.2s-0.2-0.1-0.2-0.2v-9.9c0-4.6,3.8-8.4,8.4-8.4c4.6,0,8.4,3.8,8.4,8.4v9.9
				C171,103.7,170.9,103.8,170.8,103.8z"/>
			<path fill="#7F58A5" d="M154.5,105.1c-0.8,0-1.5-0.7-1.5-1.5c0-0.8,0.7-1.5,1.5-1.5c0.8,0,1.5,0.7,1.5,1.5
				C156,104.5,155.3,105.1,154.5,105.1z M154.5,102.5c-0.6,0-1.1,0.5-1.1,1.1c0,0.6,0.5,1.1,1.1,1.1c0.6,0,1.1-0.5,1.1-1.1
				C155.6,103,155.1,102.5,154.5,102.5z"/>
			<path fill="#7F58A5" d="M170.8,105.1c-0.8,0-1.5-0.7-1.5-1.5c0-0.8,0.7-1.5,1.5-1.5c0.8,0,1.5,0.7,1.5,1.5
				C172.3,104.5,171.6,105.1,170.8,105.1z M170.8,102.5c-0.6,0-1.1,0.5-1.1,1.1c0,0.6,0.5,1.1,1.1,1.1c0.6,0,1.1-0.5,1.1-1.1
				C171.9,103,171.4,102.5,170.8,102.5z"/>
			<path fill="#7F58A5" d="M209.2,122.1h-25c-0.1,0-0.2-0.1-0.2-0.2c0-0.1,0.1-0.2,0.2-0.2H209V101h-29.2c-0.1,0-0.2-0.1-0.2-0.2
				s0.1-0.2,0.2-0.2h29.4c0.1,0,0.2,0.1,0.2,0.2v21.1C209.4,122,209.3,122.1,209.2,122.1z"/>
			<path fill="#7F58A5" d="M209.2,122.1c-0.1,0-0.2-0.1-0.2-0.1c-0.1-0.1,0-0.3,0.1-0.3l11.1-5v-19l-11,3.3c-0.1,0-0.2,0-0.3-0.2
				c0-0.1,0-0.2,0.2-0.3l11.3-3.4c0.1,0,0.1,0,0.2,0c0.1,0,0.1,0.1,0.1,0.2v19.4c0,0.1-0.1,0.2-0.1,0.2L209.2,122.1
				C209.3,122.1,209.2,122.1,209.2,122.1z"/>
			<path fill="#7F58A5" d="M220.5,97.6h-41.4c-0.1,0-0.2-0.1-0.2-0.2c0-0.1,0.1-0.2,0.2-0.2h41.4c0.1,0,0.2,0.1,0.2,0.2
				C220.7,97.5,220.6,97.6,220.5,97.6z"/>
			<path fill="#7F58A5" d="M197.6,122.1c-0.1,0-0.2-0.1-0.2-0.2v-21.1c0-0.1,0-0.2,0.1-0.2l5.6-3.4c0.1-0.1,0.2,0,0.3,0.1
				c0.1,0.1,0,0.2-0.1,0.3l-5.5,3.4v21C197.8,122,197.7,122.1,197.6,122.1z"/>
			<path fill="#7F58A5" d="M183.9,122.1c-0.1,0-0.2-0.1-0.2-0.2v-21.1c0-0.1,0-0.2,0.1-0.2l6.1-3.4c0.1-0.1,0.3,0,0.3,0.1
				c0.1,0.1,0,0.3-0.1,0.3l-6,3.4v20.9C184.2,122,184.1,122.1,183.9,122.1z"/>
			<path fill="#7F58A5" d="M194.2,105.6c-0.1,0-0.1,0-0.2-0.1c-1.1-1.1-2.7-4-2.2-5.5c0.2-0.5,0.5-0.8,1.1-0.8
				c0.4-0.1,0.7,0.1,1,0.3c1.2,1.2,0.6,5.7,0.5,5.8C194.4,105.5,194.3,105.6,194.2,105.6C194.2,105.6,194.2,105.6,194.2,105.6z
				 M193.1,99.7c0,0-0.1,0-0.1,0c-0.4,0-0.6,0.2-0.7,0.5c-0.4,1.1,0.7,3.4,1.8,4.6c0.2-1.5,0.3-4.2-0.5-5
				C193.4,99.7,193.3,99.7,193.1,99.7z"/>
			<g>
				
					<rect x="192.3" y="107.3" transform="matrix(0.866 0.5 -0.5 0.866 81.2224 -84.0732)" fill="#F7A823" width="10.3" height="4.4"/>
				<path fill="#7F58A5" d="M200.9,114.2c0,0-0.1,0-0.1,0l-8.9-5.2c-0.1,0-0.1-0.1-0.1-0.1c0-0.1,0-0.1,0-0.2l2.2-3.8
					c0.1-0.1,0.2-0.1,0.3-0.1l8.9,5.2c0.1,0,0.1,0.1,0.1,0.1c0,0.1,0,0.1,0,0.2l-2.2,3.8C201,114.2,200.9,114.2,200.9,114.2z
					 M192.2,108.8l8.5,4.9l2-3.4l-8.5-4.9L192.2,108.8z"/>
			</g>
		</g>
		<g>
			<path fill="#7F58A5" d="M239,116.7h-18.5c-0.1,0-0.2-0.1-0.2-0.2s0.1-0.2,0.2-0.2h18.4c0.2-0.2,0.6-0.7,0.6-1.4
				c0-0.8-0.4-1.6-1.3-2.4c-2.6-2.4-10-3.5-10.1-3.5c-0.1,0-0.2-0.1-0.2-0.2V94.1h-11.2v3.2c0,0.1-0.1,0.2-0.2,0.2s-0.2-0.1-0.2-0.2
				v-3.5c0-0.1,0.1-0.2,0.2-0.2h11.6c0.1,0,0.2,0.1,0.2,0.2v14.6c1.2,0.2,7.7,1.3,10.1,3.6c1,0.9,1.4,1.8,1.4,2.7
				c0,1.1-0.8,1.8-0.8,1.8C239.1,116.7,239.1,116.7,239,116.7z"/>
			<path fill="#7F58A5" d="M239.5,115.6h-18.9c-0.1,0-0.2-0.1-0.2-0.2c0-0.1,0.1-0.2,0.2-0.2h18.9c0.1,0,0.2,0.1,0.2,0.2
				C239.8,115.5,239.7,115.6,239.5,115.6z"/>
		</g>
		<g>
			<path fill="#7F58A5" d="M247.8,116.7h-18.5c-0.1,0-0.2-0.1-0.2-0.2s0.1-0.2,0.2-0.2h18.4c0.2-0.2,0.6-0.7,0.6-1.4
				c0-0.8-0.4-1.6-1.3-2.4c-2.6-2.4-10-3.5-10.1-3.5c-0.1,0-0.2-0.1-0.2-0.2V94.1h-8.6c-0.1,0-0.2-0.1-0.2-0.2
				c0-0.1,0.1-0.2,0.2-0.2h8.8c0.1,0,0.2,0.1,0.2,0.2v14.6c1.2,0.2,7.7,1.3,10.1,3.6c1,0.9,1.4,1.8,1.4,2.7c0,1.1-0.8,1.8-0.8,1.8
				C247.9,116.7,247.9,116.7,247.8,116.7z"/>
			<path fill="#7F58A5" d="M248.3,115.6h-18.9c-0.1,0-0.2-0.1-0.2-0.2c0-0.1,0.1-0.2,0.2-0.2h18.9c0.1,0,0.2,0.1,0.2,0.2
				C248.6,115.5,248.5,115.6,248.3,115.6z"/>
		</g>
		<path fill="#7F58A5" d="M228.2,98.7h-2c-0.1,0-0.2-0.1-0.2-0.2v-1.2c0-0.1,0.1-0.2,0.2-0.2h2c0.1,0,0.2,0.1,0.2,0.2v1.2
			C228.4,98.6,228.3,98.7,228.2,98.7z M226.4,98.2h1.6v-0.8h-1.6V98.2z"/>
		<path fill="#7F58A5" d="M228.2,100.9h-2c-0.1,0-0.2-0.1-0.2-0.2v-1.2c0-0.1,0.1-0.2,0.2-0.2h2c0.1,0,0.2,0.1,0.2,0.2v1.2
			C228.4,100.8,228.3,100.9,228.2,100.9z M226.4,100.4h1.6v-0.8h-1.6V100.4z"/>
		<path fill="#7F58A5" d="M228.2,103.1h-2c-0.1,0-0.2-0.1-0.2-0.2v-1.2c0-0.1,0.1-0.2,0.2-0.2h2c0.1,0,0.2,0.1,0.2,0.2v1.2
			C228.4,103,228.3,103.1,228.2,103.1z M226.4,102.7h1.6v-0.8h-1.6V102.7z"/>
		<path fill="#7F58A5" d="M228.2,105.4h-2c-0.1,0-0.2-0.1-0.2-0.2v-1.2c0-0.1,0.1-0.2,0.2-0.2h2c0.1,0,0.2,0.1,0.2,0.2v1.2
			C228.4,105.3,228.3,105.4,228.2,105.4z M226.4,104.9h1.6v-0.8h-1.6V104.9z"/>
		<path fill="#7F58A5" d="M237,98.7h-2c-0.1,0-0.2-0.1-0.2-0.2v-1.2c0-0.1,0.1-0.2,0.2-0.2h2c0.1,0,0.2,0.1,0.2,0.2v1.2
			C237.2,98.6,237.1,98.7,237,98.7z M235.2,98.2h1.6v-0.8h-1.6V98.2z"/>
		<path fill="#7F58A5" d="M237,100.9h-2c-0.1,0-0.2-0.1-0.2-0.2v-1.2c0-0.1,0.1-0.2,0.2-0.2h2c0.1,0,0.2,0.1,0.2,0.2v1.2
			C237.2,100.8,237.1,100.9,237,100.9z M235.2,100.4h1.6v-0.8h-1.6V100.4z"/>
		<path fill="#7F58A5" d="M237,103.1h-2c-0.1,0-0.2-0.1-0.2-0.2v-1.2c0-0.1,0.1-0.2,0.2-0.2h2c0.1,0,0.2,0.1,0.2,0.2v1.2
			C237.2,103,237.1,103.1,237,103.1z M235.2,102.7h1.6v-0.8h-1.6V102.7z"/>
		<path fill="#7F58A5" d="M237,105.4h-2c-0.1,0-0.2-0.1-0.2-0.2v-1.2c0-0.1,0.1-0.2,0.2-0.2h2c0.1,0,0.2,0.1,0.2,0.2v1.2
			C237.2,105.3,237.1,105.4,237,105.4z M235.2,104.9h1.6v-0.8h-1.6V104.9z"/>
	</g>
</g>
<g>
</g>
<g>
</g>
<g>
</g>
<g>
</g>
<g>
</g>
<g>
</g>
<g>
</g>
<g>
</g>
<g>
</g>
<g>
</g>
<g>
</g>
<g>
</g>
<g>
</g>
<g>
</g>
<g>
</g>
</svg>
