<?xml version="1.0" encoding="utf-8"?>
<!-- Generator: Adobe Illustrator 18.0.0, SVG Export Plug-In . SVG Version: 6.00 Build 0)  -->
<!DOCTYPE svg PUBLIC "-//W3C//DTD SVG 1.1//EN" "http://www.w3.org/Graphics/SVG/1.1/DTD/svg11.dtd">
<svg version="1.1" id="Layer_1" xmlns="http://www.w3.org/2000/svg" xmlns:xlink="http://www.w3.org/1999/xlink" x="0px" y="0px"
	 viewBox="0 0 316.7 118.2" enable-background="new 0 0 316.7 118.2" xml:space="preserve">
<g>
	<path fill="#7F58A5" d="M61.8,69.3c-6.4,0-12.5-2-17.6-5.9c-5-3.7-8.7-9-10.5-14.9l0.3-0.1c1.8,5.8,5.5,11,10.4,14.7
		C49.5,67,55.5,69,61.8,69C77.9,69,91,55.9,91,39.9c0-1.5-0.1-3-0.3-4.5l0-0.2H104l-12-4.9l0.1-0.3l13.5,5.5H91
		c0.2,1.4,0.3,2.9,0.3,4.4C91.3,56.1,78.1,69.3,61.8,69.3z"/>
	<path fill="#7F58A5" d="M32.7,36.4H10.9c-2.9,0-5.6-1.1-7.7-3.2C1.1,31.2,0,28.4,0,25.5L0.1,0.2C0.1,0.1,0.2,0,0.3,0c0,0,0,0,0,0
		c0.1,0,0.2,0.1,0.2,0.2L0.3,25.5c0,2.8,1.1,5.5,3.1,7.5s4.7,3.1,7.5,3.1h21.7c1.8-14.8,14.3-25.9,29.3-25.9
		c9.7,0,18.8,4.8,24.3,12.8c0,0.1,0,0.2,0,0.2c-0.1,0-0.2,0-0.2,0c-5.4-7.9-14.4-12.7-24-12.7c-14.8,0-27.2,11.1-29,25.7
		C32.9,36.4,32.8,36.4,32.7,36.4z"/>
	<path fill="#7F58A5" d="M316.5,24.7c-0.1,0-0.2-0.1-0.2-0.2v-1.1c0-0.1,0.1-0.2,0.2-0.2s0.2,0.1,0.2,0.2v1.1
		C316.7,24.6,316.6,24.7,316.5,24.7z M316.5,22.2c-0.1,0-0.2-0.1-0.2-0.2v-1.3c0-0.1,0.1-0.2,0.2-0.2s0.2,0.1,0.2,0.2V22
		C316.7,22.1,316.6,22.2,316.5,22.2z M316.5,19.5c-0.1,0-0.2-0.1-0.2-0.2v-1.1c0-0.1,0-0.1,0-0.2c0-0.1,0.1-0.2,0.2-0.2
		c0.1,0,0.2,0.1,0.2,0.2c0,0.1,0,0.2,0,0.2v1.1C316.7,19.5,316.6,19.5,316.5,19.5z M316.3,16.9c-0.1,0-0.1,0-0.2-0.1
		c-0.1-0.4-0.3-0.8-0.6-1.2c-0.1-0.1,0-0.2,0-0.2c0.1-0.1,0.2,0,0.2,0c0.3,0.4,0.5,0.8,0.6,1.2C316.4,16.7,316.4,16.8,316.3,16.9
		C316.3,16.9,316.3,16.9,316.3,16.9z M314.8,14.7c0,0-0.1,0-0.1,0c-0.3-0.3-0.7-0.5-1.1-0.7c-0.1,0-0.1-0.1-0.1-0.2
		c0-0.1,0.1-0.1,0.2-0.1c0.4,0.2,0.8,0.4,1.2,0.7c0.1,0.1,0.1,0.2,0,0.2C314.9,14.7,314.8,14.7,314.8,14.7z M312.4,13.6
		C312.3,13.6,312.3,13.6,312.4,13.6c-0.3,0-0.5-0.1-0.7-0.1H311c-0.1,0-0.2-0.1-0.2-0.2c0-0.1,0.1-0.2,0.2-0.2h0.6
		c0.2,0,0.5,0,0.7,0.1c0.1,0,0.2,0.1,0.1,0.2C312.5,13.5,312.4,13.6,312.4,13.6z M306.3,13.6c-0.2,0-0.4,0-0.7-0.1
		c-0.1,0-0.1-0.1-0.1-0.2c0-0.1,0.1-0.1,0.2-0.1c0.2,0.1,0.4,0.1,0.6,0.1c0,0,0,0,0,0h0.7c0.1,0,0.2,0.1,0.2,0.2
		c0,0.1-0.1,0.2-0.2,0.2H306.3C306.3,13.6,306.3,13.6,306.3,13.6z M309.7,13.6h-1.3c-0.1,0-0.2-0.1-0.2-0.2c0-0.1,0.1-0.2,0.2-0.2
		h1.3c0.1,0,0.2,0.1,0.2,0.2C309.8,13.5,309.8,13.6,309.7,13.6z M304.6,12.8c0,0-0.1,0-0.1-0.1c-0.3-0.4-0.5-0.8-0.6-1.3
		c0-0.1,0.1-0.2,0.1-0.2c0.1,0,0.2,0.1,0.2,0.1c0,0.4,0.2,0.8,0.5,1.1c0.1,0.1,0.1,0.2,0,0.2C304.6,12.7,304.6,12.8,304.6,12.8z
		 M303.8,10.2c-0.1,0-0.1,0-0.1-0.1c-0.2-0.4-0.5-0.7-0.9-0.9c-0.1,0-0.1-0.1-0.1-0.2c0-0.1,0.1-0.1,0.2-0.1c0.4,0.2,0.8,0.6,1,1
		C304,10.1,303.9,10.2,303.8,10.2C303.8,10.2,303.8,10.2,303.8,10.2z M301.5,9.1h-1.3c-0.1,0-0.2-0.1-0.2-0.2c0-0.1,0.1-0.2,0.2-0.2
		h1.3c0.1,0,0.2,0.1,0.2,0.2C301.7,9,301.6,9.1,301.5,9.1z M298.8,9.1h-1.3c-0.1,0-0.2-0.1-0.2-0.2c0-0.1,0.1-0.2,0.2-0.2h1.3
		c0.1,0,0.2,0.1,0.2,0.2C299,9,298.9,9.1,298.8,9.1z M296.2,9.1h-1.3c-0.1,0-0.2-0.1-0.2-0.2c0-0.1,0.1-0.2,0.2-0.2h1.3
		c0.1,0,0.2,0.1,0.2,0.2C296.3,9,296.3,9.1,296.2,9.1z M293.5,9.1h-1.3c-0.1,0-0.2-0.1-0.2-0.2c0-0.1,0.1-0.2,0.2-0.2h1.3
		c0.1,0,0.2,0.1,0.2,0.2C293.7,9,293.6,9.1,293.5,9.1z M290.8,9.1h-1.3c-0.1,0-0.2-0.1-0.2-0.2c0-0.1,0.1-0.2,0.2-0.2h1.3
		c0.1,0,0.2,0.1,0.2,0.2C291,9,290.9,9.1,290.8,9.1z M288.1,9.1h-1.3c-0.1,0-0.2-0.1-0.2-0.2c0-0.1,0.1-0.2,0.2-0.2h1.3
		c0.1,0,0.2,0.1,0.2,0.2C288.3,9,288.2,9.1,288.1,9.1z M285.4,9.1h-1.3c-0.1,0-0.2-0.1-0.2-0.2c0-0.1,0.1-0.2,0.2-0.2h1.3
		c0.1,0,0.2,0.1,0.2,0.2C285.6,9,285.5,9.1,285.4,9.1z M282.8,9.1h-1.3c-0.1,0-0.2-0.1-0.2-0.2c0-0.1,0.1-0.2,0.2-0.2h1.3
		c0.1,0,0.2,0.1,0.2,0.2C282.9,9,282.9,9.1,282.8,9.1z M280.1,9.1h-1.3c-0.1,0-0.2-0.1-0.2-0.2c0-0.1,0.1-0.2,0.2-0.2h1.3
		c0.1,0,0.2,0.1,0.2,0.2C280.3,9,280.2,9.1,280.1,9.1z M277.4,9.1h-1.3c-0.1,0-0.2-0.1-0.2-0.2c0-0.1,0.1-0.2,0.2-0.2h1.3
		c0.1,0,0.2,0.1,0.2,0.2C277.6,9,277.5,9.1,277.4,9.1z M274.7,9.1h-1.3c-0.1,0-0.2-0.1-0.2-0.2c0-0.1,0.1-0.2,0.2-0.2h1.3
		c0.1,0,0.2,0.1,0.2,0.2C274.9,9,274.8,9.1,274.7,9.1z M272,9.1h-1.3c-0.1,0-0.2-0.1-0.2-0.2c0-0.1,0.1-0.2,0.2-0.2h1.3
		c0.1,0,0.2,0.1,0.2,0.2C272.2,9,272.1,9.1,272,9.1z M269.4,9.1H268c-0.1,0-0.2-0.1-0.2-0.2c0-0.1,0.1-0.2,0.2-0.2h1.3
		c0.1,0,0.2,0.1,0.2,0.2C269.5,9,269.5,9.1,269.4,9.1z M266.7,9.1h-1.3c-0.1,0-0.2-0.1-0.2-0.2c0-0.1,0.1-0.2,0.2-0.2h1.3
		c0.1,0,0.2,0.1,0.2,0.2C266.9,9,266.8,9.1,266.7,9.1z M264,9.1h-1.3c-0.1,0-0.2-0.1-0.2-0.2c0-0.1,0.1-0.2,0.2-0.2h1.3
		c0.1,0,0.2,0.1,0.2,0.2C264.2,9,264.1,9.1,264,9.1z M261.3,9.1H260c-0.1,0-0.2-0.1-0.2-0.2c0-0.1,0.1-0.2,0.2-0.2h1.3
		c0.1,0,0.2,0.1,0.2,0.2C261.5,9,261.4,9.1,261.3,9.1z M258.6,9.1h-1.3c-0.1,0-0.2-0.1-0.2-0.2c0-0.1,0.1-0.2,0.2-0.2h1.3
		c0.1,0,0.2,0.1,0.2,0.2C258.8,9,258.7,9.1,258.6,9.1z M256,9.1h-1.3c-0.1,0-0.2-0.1-0.2-0.2c0-0.1,0.1-0.2,0.2-0.2h1.3
		c0.1,0,0.2,0.1,0.2,0.2C256.1,9,256.1,9.1,256,9.1z M253.3,9.1h-1.3c-0.1,0-0.2-0.1-0.2-0.2c0-0.1,0.1-0.2,0.2-0.2h1.3
		c0.1,0,0.2,0.1,0.2,0.2C253.4,9,253.4,9.1,253.3,9.1z M250.6,9.1h-1.3c-0.1,0-0.2-0.1-0.2-0.2c0-0.1,0.1-0.2,0.2-0.2h1.3
		c0.1,0,0.2,0.1,0.2,0.2C250.8,9,250.7,9.1,250.6,9.1z M247.9,9.1h-1.3c-0.1,0-0.2-0.1-0.2-0.2c0-0.1,0.1-0.2,0.2-0.2h1.3
		c0.1,0,0.2,0.1,0.2,0.2C248.1,9,248,9.1,247.9,9.1z M245.2,9.1h-1.3c-0.1,0-0.2-0.1-0.2-0.2c0-0.1,0.1-0.2,0.2-0.2h1.3
		c0.1,0,0.2,0.1,0.2,0.2C245.4,9,245.3,9.1,245.2,9.1z M242.6,9.1h-1.3c-0.1,0-0.2-0.1-0.2-0.2c0-0.1,0.1-0.2,0.2-0.2h1.3
		c0.1,0,0.2,0.1,0.2,0.2C242.7,9,242.7,9.1,242.6,9.1z M239.9,9.1h-1.3c-0.1,0-0.2-0.1-0.2-0.2c0-0.1,0.1-0.2,0.2-0.2h1.3
		c0.1,0,0.2,0.1,0.2,0.2C240,9,240,9.1,239.9,9.1z"/>
	<path fill="#7F58A5" d="M109.9,18.3h-4.7c-0.1,0-0.3-0.1-0.3-0.3s0.1-0.3,0.3-0.3h4.5V14c0-3.1,2.5-5.6,5.6-5.6H216
		c0.1,0,0.3,0.1,0.3,0.3c0,0.1-0.1,0.3-0.3,0.3H115.3c-2.8,0-5.1,2.3-5.1,5.1v4C110.2,18.1,110.1,18.3,109.9,18.3z"/>
	<path fill="#7F58A5" d="M105.9,97.8c0.1,0,0.2,0.1,0.2,0.2v1.4c0,0.1-0.1,0.2-0.2,0.2c-0.1,0-0.2-0.1-0.2-0.2V98
		C105.7,97.9,105.8,97.8,105.9,97.8z M105.9,100.9c0.1,0,0.2,0.1,0.2,0.2v1.7c0,0.1-0.1,0.2-0.2,0.2c-0.1,0-0.2-0.1-0.2-0.2v-1.7
		C105.7,101,105.8,100.9,105.9,100.9z M105.9,104.3c0.1,0,0.2,0.1,0.2,0.2v1.4c0,0.1,0,0.2,0,0.3c0,0.1-0.1,0.2-0.2,0.2
		c-0.1,0-0.2-0.1-0.2-0.2c0-0.1,0-0.2,0-0.3v-1.4C105.7,104.4,105.8,104.3,105.9,104.3z M106.2,107.7c0.1,0,0.2,0.1,0.2,0.1
		c0.2,0.5,0.4,1,0.7,1.5c0.1,0.1,0,0.2-0.1,0.3c-0.1,0.1-0.2,0-0.3-0.1c-0.3-0.5-0.6-1-0.8-1.6C106,107.9,106,107.8,106.2,107.7
		C106.2,107.7,106.2,107.7,106.2,107.7z M108.1,110.5c0,0,0.1,0,0.1,0.1c0.4,0.4,0.9,0.7,1.4,0.9c0.1,0,0.2,0.2,0.1,0.3
		c0,0.1-0.2,0.2-0.3,0.1c-0.5-0.2-1-0.6-1.5-0.9c-0.1-0.1-0.1-0.2,0-0.3C108,110.6,108.1,110.5,108.1,110.5z M111.2,111.9
		C111.2,111.9,111.2,111.9,111.2,111.9c0.3,0,0.6,0.1,0.9,0.1h0.8c0.1,0,0.2,0.1,0.2,0.2c0,0.1-0.1,0.2-0.2,0.2h-0.8
		c-0.3,0-0.6,0-0.9-0.1c-0.1,0-0.2-0.1-0.2-0.2C111,112,111.1,111.9,111.2,111.9z M119,112c0.3,0,0.6,0,0.8,0.1
		c0.1,0,0.2,0.2,0.1,0.3c0,0.1-0.2,0.2-0.3,0.1c-0.2-0.1-0.5-0.1-0.7-0.1c0,0,0,0,0,0h-0.9c-0.1,0-0.2-0.1-0.2-0.2
		c0-0.1,0.1-0.2,0.2-0.2H119C119,112,119,112,119,112z M114.6,112h1.7c0.1,0,0.2,0.1,0.2,0.2c0,0.1-0.1,0.2-0.2,0.2h-1.7
		c-0.1,0-0.2-0.1-0.2-0.2C114.4,112.1,114.5,112,114.6,112z M121.2,113c0.1,0,0.1,0,0.2,0.1c0.4,0.5,0.6,1.1,0.7,1.7
		c0,0.1-0.1,0.2-0.2,0.2c-0.1,0-0.2-0.1-0.2-0.2c-0.1-0.5-0.3-1-0.6-1.4c-0.1-0.1-0.1-0.2,0-0.3C121.1,113,121.1,113,121.2,113z
		 M122.2,116.2c0.1,0,0.2,0,0.2,0.1c0.3,0.5,0.6,0.9,1.1,1.1c0.1,0.1,0.1,0.2,0.1,0.3c-0.1,0.1-0.2,0.1-0.3,0.1
		c-0.5-0.3-1-0.7-1.3-1.3c-0.1-0.1,0-0.2,0.1-0.3C122.1,116.2,122.2,116.2,122.2,116.2z M125,117.7h1.7c0.1,0,0.2,0.1,0.2,0.2
		c0,0.1-0.1,0.2-0.2,0.2H125c-0.1,0-0.2-0.1-0.2-0.2C124.8,117.8,124.9,117.7,125,117.7z M128.5,117.7h1.7c0.1,0,0.2,0.1,0.2,0.2
		c0,0.1-0.1,0.2-0.2,0.2h-1.7c-0.1,0-0.2-0.1-0.2-0.2C128.3,117.8,128.3,117.7,128.5,117.7z M131.9,117.7h1.7c0.1,0,0.2,0.1,0.2,0.2
		c0,0.1-0.1,0.2-0.2,0.2h-1.7c-0.1,0-0.2-0.1-0.2-0.2C131.7,117.8,131.8,117.7,131.9,117.7z M135.3,117.7h1.7c0.1,0,0.2,0.1,0.2,0.2
		c0,0.1-0.1,0.2-0.2,0.2h-1.7c-0.1,0-0.2-0.1-0.2-0.2C135.1,117.8,135.2,117.7,135.3,117.7z M138.7,117.7h1.7c0.1,0,0.2,0.1,0.2,0.2
		c0,0.1-0.1,0.2-0.2,0.2h-1.7c-0.1,0-0.2-0.1-0.2-0.2C138.5,117.8,138.6,117.7,138.7,117.7z M142.2,117.7h1.7c0.1,0,0.2,0.1,0.2,0.2
		c0,0.1-0.1,0.2-0.2,0.2h-1.7c-0.1,0-0.2-0.1-0.2-0.2C142,117.8,142,117.7,142.2,117.7z M145.6,117.7h1.7c0.1,0,0.2,0.1,0.2,0.2
		c0,0.1-0.1,0.2-0.2,0.2h-1.7c-0.1,0-0.2-0.1-0.2-0.2C145.4,117.8,145.5,117.7,145.6,117.7z M149,117.7h1.7c0.1,0,0.2,0.1,0.2,0.2
		c0,0.1-0.1,0.2-0.2,0.2H149c-0.1,0-0.2-0.1-0.2-0.2C148.8,117.8,148.9,117.7,149,117.7z M152.4,117.7h1.7c0.1,0,0.2,0.1,0.2,0.2
		c0,0.1-0.1,0.2-0.2,0.2h-1.7c-0.1,0-0.2-0.1-0.2-0.2C152.2,117.8,152.3,117.7,152.4,117.7z M155.9,117.7h1.7c0.1,0,0.2,0.1,0.2,0.2
		c0,0.1-0.1,0.2-0.2,0.2h-1.7c-0.1,0-0.2-0.1-0.2-0.2C155.7,117.8,155.7,117.7,155.9,117.7z M159.3,117.7h1.7c0.1,0,0.2,0.1,0.2,0.2
		c0,0.1-0.1,0.2-0.2,0.2h-1.7c-0.1,0-0.2-0.1-0.2-0.2C159.1,117.8,159.2,117.7,159.3,117.7z M162.7,117.7h1.7c0.1,0,0.2,0.1,0.2,0.2
		c0,0.1-0.1,0.2-0.2,0.2h-1.7c-0.1,0-0.2-0.1-0.2-0.2C162.5,117.8,162.6,117.7,162.7,117.7z M166.1,117.7h1.7c0.1,0,0.2,0.1,0.2,0.2
		c0,0.1-0.1,0.2-0.2,0.2h-1.7c-0.1,0-0.2-0.1-0.2-0.2C165.9,117.8,166,117.7,166.1,117.7z M169.6,117.7h1.7c0.1,0,0.2,0.1,0.2,0.2
		c0,0.1-0.1,0.2-0.2,0.2h-1.7c-0.1,0-0.2-0.1-0.2-0.2C169.4,117.8,169.4,117.7,169.6,117.7z M173,117.7h1.7c0.1,0,0.2,0.1,0.2,0.2
		c0,0.1-0.1,0.2-0.2,0.2H173c-0.1,0-0.2-0.1-0.2-0.2C172.8,117.8,172.9,117.7,173,117.7z M176.4,117.7h1.7c0.1,0,0.2,0.1,0.2,0.2
		c0,0.1-0.1,0.2-0.2,0.2h-1.7c-0.1,0-0.2-0.1-0.2-0.2C176.2,117.8,176.3,117.7,176.4,117.7z M179.8,117.7h1.7c0.1,0,0.2,0.1,0.2,0.2
		c0,0.1-0.1,0.2-0.2,0.2h-1.7c-0.1,0-0.2-0.1-0.2-0.2C179.6,117.8,179.7,117.7,179.8,117.7z M183.3,117.7h1.7c0.1,0,0.2,0.1,0.2,0.2
		c0,0.1-0.1,0.2-0.2,0.2h-1.7c-0.1,0-0.2-0.1-0.2-0.2C183.1,117.8,183.1,117.7,183.3,117.7z M186.7,117.7h1.7c0.1,0,0.2,0.1,0.2,0.2
		c0,0.1-0.1,0.2-0.2,0.2h-1.7c-0.1,0-0.2-0.1-0.2-0.2C186.5,117.8,186.6,117.7,186.7,117.7z M190.1,117.7h1.7c0.1,0,0.2,0.1,0.2,0.2
		c0,0.1-0.1,0.2-0.2,0.2h-1.7c-0.1,0-0.2-0.1-0.2-0.2C189.9,117.8,190,117.7,190.1,117.7z M193.5,117.7h1.7c0.1,0,0.2,0.1,0.2,0.2
		c0,0.1-0.1,0.2-0.2,0.2h-1.7c-0.1,0-0.2-0.1-0.2-0.2C193.3,117.8,193.4,117.7,193.5,117.7z M197,117.7h1.7c0.1,0,0.2,0.1,0.2,0.2
		c0,0.1-0.1,0.2-0.2,0.2H197c-0.1,0-0.2-0.1-0.2-0.2C196.8,117.8,196.8,117.7,197,117.7z M200.4,117.7h1.7c0.1,0,0.2,0.1,0.2,0.2
		c0,0.1-0.1,0.2-0.2,0.2h-1.7c-0.1,0-0.2-0.1-0.2-0.2C200.2,117.8,200.3,117.7,200.4,117.7z M203.8,117.7h1.7c0.1,0,0.2,0.1,0.2,0.2
		c0,0.1-0.1,0.2-0.2,0.2h-1.7c-0.1,0-0.2-0.1-0.2-0.2C203.6,117.8,203.7,117.7,203.8,117.7z"/>
	<path fill="#7F58A5" d="M310.7,91.1h3.9c0.1,0,0.2,0.1,0.2,0.2c0,0.1-0.1,0.2-0.2,0.2h-3.7v3.1c0,2.6-2.1,4.7-4.7,4.7h-34.5
		c-0.1,0-0.2-0.1-0.2-0.2c0-0.1,0.1-0.2,0.2-0.2h34.5c2.3,0,4.3-1.9,4.3-4.3v-3.4C310.5,91.2,310.6,91.1,310.7,91.1z"/>
	<g>
		<path fill="#7F58A5" d="M26,55c0.8-1.6,1.6-3.1,2.5-4.7c0.8-1.5,1.7-3.1,2.5-4.6c0.8-1.5,1.7-3.1,2.6-4.6c0.9-1.5,1.7-3.1,2.6-4.6
			l0.3-0.5l0.6,0.1l3.9,0.6c1.3,0.2,2.6,0.4,3.9,0.7l3.9,0.7c1.3,0.2,2.6,0.4,3.9,0.7l-0.1,0l4.8,0.4c1.6,0.1,3.2,0.2,4.8,0.4
			l-0.8,0.2l5.5-4.2c0.9-0.7,1.8-1.4,2.8-2.1l2.8-2.1l0.3-0.2l0.3,0l3.1,0.1c1,0,2.1,0.1,3.1,0.1l3.1,0.1l3.1,0.1L85,31.9l3-3.1
			c1-1,2-2.1,3-3.1c1-1,2-2,3.1-3.1c1-1,2.1-2,3.1-3c-0.9,1.1-1.8,2.2-2.7,3.3c-0.9,1.1-1.8,2.2-2.8,3.3c-0.9,1.1-1.9,2.2-2.8,3.3
			l-2.8,3.3l-0.2,0.2l-0.4,0l-3.1,0l-3.1,0c-1,0-2.1,0-3.1,0l-3.1,0l0.6-0.2L71,35.2c-0.9,0.7-1.8,1.4-2.7,2.1l-5.5,4.2l-0.3,0.3
			l-0.4,0c-1.6-0.1-3.2-0.3-4.8-0.4l-4.8-0.4l-0.1,0l0,0c-1.3-0.2-2.6-0.5-3.9-0.8l-3.9-0.8c-1.3-0.3-2.6-0.5-3.9-0.8l-3.9-0.8
			l0.9-0.4c-0.9,1.5-1.9,3-2.8,4.4c-1,1.5-1.9,2.9-2.9,4.4c-1,1.5-1.9,2.9-2.9,4.4C28,52.1,27,53.6,26,55z"/>
		<polygon fill="#7F58A5" points="92.9,20.6 98.3,18.4 96.8,23.6 95.8,21.2 		"/>
	</g>
	<g>
		<defs>
			<circle id="SVGID_1_" cx="61.8" cy="39.7" r="29.3"/>
		</defs>
		<clipPath id="SVGID_2_">
			<use xlink:href="#SVGID_1_"  overflow="visible"/>
		</clipPath>
		<g clip-path="url(#SVGID_2_)">
			<path fill="#002A5E" d="M55.5,37.6L43,43.5L35,64l27.4,8.5l25.7-7c0,0-9.7-24.2-10-24.3c-0.3-0.1-9.4-2.9-9.4-2.9L55.5,37.6z"/>
			<polygon fill="#BCBEC0" points="58.9,44 60.1,40.6 64.3,40.3 65,47.2 63,62.2 59.1,47.2 			"/>
			<polygon fill="#A7A9AC" points="60.7,44.8 59.6,49.2 63,62.2 64.8,49.2 63.5,44.9 			"/>
			<path fill="#808285" d="M60.3,43.1l4-0.3v2.8c0,0.6-0.5,1.1-1.1,1.1h-2.1c-0.6,0-1.1-0.5-1.1-1.1L60.3,43.1z"/>
			<polygon fill="#D1D3D4" points="55.4,35 54.7,38.9 59.5,46.8 61.7,43 			"/>
			<polygon fill="#D1D3D4" points="68.7,35 69.5,38.8 64.6,46.7 62.4,43 			"/>
			<path fill="#D1D3D4" d="M56.5,25.8c-0.4-0.2-2.5-1.2-2.5-1.2L53,27l1.1,5.5l2.4-1.1V25.8z"/>
			<path fill="#D1D3D4" d="M68.2,26.2c0.4-0.2,2.5-1.2,2.5-1.2l1,2.4l-1.1,5.5l-2.4-1.1V26.2z"/>
			<polygon fill="#E6E7E8" points="62.8,18.6 56,18.6 54.3,33.4 59.2,40.9 65.6,40.9 70.2,34.3 68.5,18.2 			"/>
			<polygon fill="#939598" points="62.1,23.9 62.1,34.8 59.5,33.3 			"/>
			<path fill="#002A5E" d="M54.9,29.4L56,25l0-4.2c0,0,1.9,1.8,6.4,1.2s6-1.6,6-1.6l0.7,5.5l1.3,1.8l1.2-2.4c0,0,0.6-7.8-1.9-9.2
				s-7.5-1.7-10.8-0.7c-3.4,1-5.5,1.4-6.4,1.3c0,0,2.5,2.5,2.1,3.8C53.6,24.2,54.9,29.4,54.9,29.4z"/>
			<path fill="#2B3990" d="M70.8,40.4l0.5,2.5l0.5,2.5l0,0.1l-0.1,0l-3,1.4l0-0.2c0.8,1.1,1.7,2.2,2.5,3.3l0.1,0.1l0,0.1
				c-0.7,1.6-1.4,3.1-2.1,4.7l-2.1,4.7L65,64.2c-0.7,1.6-1.4,3.1-2.1,4.6c0.7-1.6,1.3-3.1,2-4.7l2-4.7l2.1-4.7
				c0.7-1.6,1.4-3.1,2.1-4.7l0,0.1c-0.8-1.1-1.7-2.2-2.5-3.3l-0.1-0.1l0.1-0.1l3-1.3l-0.1,0.1L71.2,43L70.8,40.4z"/>
			<path fill="#2B3990" d="M53.2,40.7c-0.3,1.9-0.5,3.7-0.8,5.6l-0.1-0.1c1.2,0.1,2.3,0.2,3.5,0.3l0.1,0l0,0.1l-0.4,3.1
				c-0.1,1-0.3,2.1-0.4,3.1l0-0.1c1.1,1.9,2.2,3.8,3.3,5.7c1.1,1.9,2.2,3.8,3.3,5.7c-1.2-1.8-2.3-3.7-3.5-5.6
				c-1.1-1.9-2.3-3.7-3.4-5.6l0,0l0-0.1c0.1-1,0.3-2.1,0.4-3.1l0.4-3.1l0.1,0.2c-1.2-0.1-2.3-0.2-3.5-0.3l-0.1,0l0-0.1
				C52.5,44.5,52.8,42.6,53.2,40.7z"/>
		</g>
	</g>
</g>
<g>
</g>
<g>
</g>
<g>
</g>
<g>
</g>
<g>
</g>
<g>
</g>
<g>
</g>
<g>
</g>
<g>
</g>
<g>
</g>
<g>
</g>
<g>
</g>
<g>
</g>
<g>
</g>
<g>
</g>
</svg>
