<svg xmlns="http://www.w3.org/2000/svg" viewBox="0 0 1448 800"><defs><style>.a{fill:#fff;opacity:0.1;}.b{fill:#9c8fc4;}.c{fill:none;}</style></defs><title>q-bg-2</title><path class="a" d="M1454.9,435.69c-58.58-38.17-148.83-32.72-191.58,6.82s-42.75,107.69-144.09,115.87S1010,548.83,934,589.73,794.65,577.46,693.31,647,573,796.93,573,796.93h874Z"/><circle class="b" cx="1105.12" cy="84.23" r="1.41"/><circle class="b" cx="1078.1" cy="122.52" r="1.41"/><circle class="b" cx="1194.45" cy="103.18" r="1.41"/><circle class="b" cx="1100.28" cy="153.52" r="1.41"/><circle class="b" cx="1088.83" cy="175" r="1.41"/><circle class="b" cx="1136.51" cy="147.65" r="5.57"/><circle class="b" cx="1217.96" cy="157.75" r="5.57"/><circle class="b" cx="188.67" cy="685.7" r="1.41"/><circle class="b" cx="161.64" cy="723.99" r="1.41"/><circle class="b" cx="236.82" cy="615.01" r="1.41"/><circle class="b" cx="278" cy="704.65" r="1.41"/><circle class="b" cx="183.82" cy="754.99" r="1.41"/><circle class="b" cx="172.38" cy="776.47" r="1.41"/><circle class="b" cx="220.05" cy="749.12" r="5.57"/><circle class="b" cx="301.51" cy="759.22" r="5.57"/><rect class="c" x="-0.19" y="-2.01" width="1448.37" height="804.03"/></svg>