<?xml version="1.0" encoding="utf-8"?>
<!-- Generator: Adobe Illustrator 18.0.0, SVG Export Plug-In . SVG Version: 6.00 Build 0)  -->
<!DOCTYPE svg PUBLIC "-//W3C//DTD SVG 1.1//EN" "http://www.w3.org/Graphics/SVG/1.1/DTD/svg11.dtd">
<svg version="1.1" id="Layer_1" xmlns="http://www.w3.org/2000/svg" xmlns:xlink="http://www.w3.org/1999/xlink" x="0px" y="0px"
	 viewBox="0 0 184.2 129.2" enable-background="new 0 0 184.2 129.2" xml:space="preserve">
<g>
	<g>
		<g>
			<line fill="none" stroke="#A7A9AC" stroke-width="0.3021" stroke-miterlimit="10" x1="16.3" y1="3" x2="184.2" y2="3"/>
			<line fill="none" stroke="#A7A9AC" stroke-width="0.3021" stroke-miterlimit="10" x1="16.3" y1="24.3" x2="184.2" y2="24.3"/>
			<line fill="none" stroke="#A7A9AC" stroke-width="0.3021" stroke-miterlimit="10" x1="16.3" y1="45.6" x2="184.2" y2="45.6"/>
			<line fill="none" stroke="#A7A9AC" stroke-width="0.3021" stroke-miterlimit="10" x1="16.3" y1="66.9" x2="184.2" y2="66.9"/>
			<line fill="none" stroke="#A7A9AC" stroke-width="0.3021" stroke-miterlimit="10" x1="16.3" y1="88.3" x2="184.2" y2="88.3"/>
		</g>
		<path fill="none" stroke="#EA5284" stroke-width="0.3435" stroke-linejoin="bevel" stroke-miterlimit="10" d="M31.7,3.7l5.3-1.3
			L40,18.7l2.2-5.2l3.5,18.7l3.5-16.7L50.5,40l5.3-15.4L58,10.9L60.9,5l3.6,4.3L68,6.6v11.5L72.4,5l8.8,0.7l1.8,6.2L86,8.6v18.4
			l4.8-5.6L89.9,44l6.1-10.2l1.3,14.8l2.2-20.3l13.1,42.9l4.4-22.6l7.4,30.8l5.7-30.2l3.9,14.1l4.8-27.2c0,0,7.4,39,8.3,36.7
			c0.9-2.3,7.4-25.9,7.4-25.9l3.9,5.6l3.1-7.9l2.6,13.4l4.4-9.2l3.1,7.9l2.2-9.8"/>
		<path fill="none" stroke="#0C56AB" stroke-width="0.3435" stroke-linejoin="bevel" stroke-miterlimit="10" d="M33.9,5l7-2l0.4,3.3
			c0,0,5.7-3.3,7-2.9c1.3,0.3,1.3,0.3,1.3,0.3l10.1-1h8.8l5.7,16.4l7.9-3.9c0,0,7-6.6,8.3-5.6C91.7,10.5,97,20,97,20l6.6-5.6
			c0,0,6.1,1.6,7,2.6c0.9,1,0.4,14.8,0.4,14.8l3.5-10.2l7.4,20.7c0,0,5.3-10.5,6.6-9.5c1.3,1,7.4,13.1,7.4,13.1l5.7-0.7l5.3,13.8
			l3.1-5.9l7.4,4.3l7.4-9.8l1.3-10.8l3.5,5.6l3.1-4.6"/>
		<circle fill="#2368B5" cx="3.1" cy="108.6" r="3.1"/>
		<g>
			<g>
				<path fill="#0C56AB" d="M12,105.8c0,0.2,0,0.5,0,0.9c0.1,0.7,0.4,3.2,2.6,4.2c-0.1,0.1-0.3,0.3-0.3,0.4
					c-1.5-0.7-2.1-2.2-2.4-3.3c-0.3,1.2-0.9,2.5-2.4,3.3c-0.1-0.1-0.2-0.3-0.4-0.3c2.5-1.3,2.5-4.2,2.5-5.1H12z"/>
				<path fill="#0C56AB" d="M18.4,109.1c0.3,1,0.9,1.6,1.4,1.6c0.2,0,0.2-0.2,0.3-0.9c0.1,0.1,0.3,0.2,0.4,0.2
					c-0.1,0.9-0.3,1.1-0.7,1.1c-0.8,0-1.5-0.8-1.8-2h-1.8v1.5l1.4-0.3c0,0.1,0,0.3,0,0.4c-1.6,0.4-1.9,0.5-2,0.6
					c0-0.1-0.1-0.3-0.2-0.4c0.1-0.1,0.3-0.2,0.3-0.4v-4.4h4.2v1.7h-1.8c0,0.3,0.1,0.6,0.1,0.9h2.1v0.4H18.4z M16.1,106.5v0.9h3.3
					v-0.9H16.1z M17.8,108.7c-0.1-0.3-0.1-0.6-0.1-0.9h-1.6v0.9H17.8z"/>
				<path fill="#0C56AB" d="M26.1,106.7c-0.1,0.5-0.4,0.8-0.7,1.2c0.3,0.3,0.7,0.5,1.1,0.6c-0.1,0.1-0.2,0.2-0.2,0.3
					c-0.4-0.2-0.8-0.4-1.1-0.7c-0.3,0.2-0.7,0.4-1.1,0.6c0-0.1-0.2-0.3-0.2-0.3c0.4-0.1,0.7-0.3,1-0.5c-0.2-0.2-0.4-0.5-0.5-0.8
					c-0.1,0.1-0.2,0.3-0.3,0.4c-0.1-0.1-0.2-0.2-0.3-0.3v1.5h-0.4V107h-0.7v1.7h-0.3V107h-0.7v1.8h-0.3v-2.1h1v-1h0.4v1h1v0.4
					c0.4-0.3,0.7-0.8,0.8-1.3l0.4,0.1c-0.1,0.2-0.1,0.4-0.2,0.5h1.6v0.4H26.1z M21.7,106.7c-0.1-0.2-0.2-0.5-0.4-0.7l0.3-0.1
					c0.2,0.2,0.3,0.5,0.4,0.7L21.7,106.7z M25.9,110.4c0,0.2-0.1,0.3-0.2,0.4c-0.2,0.1-0.5,0.1-1,0.1c0-0.1-0.1-0.3-0.1-0.4
					c0.4,0,0.7,0,0.8,0c0.1,0,0.1,0,0.1-0.1v-0.9H24v1.7h-0.4v-1.7h-1.4v1.4h-0.4v-1.8h1.8v-0.4H24v0.4h1.9V110.4z M22.2,107.3
					c-0.1,0.4-0.1,0.7-0.3,1c0,0-0.2-0.1-0.2-0.1c0.1-0.3,0.2-0.6,0.3-0.9L22.2,107.3z M23.1,107.3c0.1,0.3,0.2,0.7,0.3,0.9
					l-0.2,0.1c0-0.3-0.1-0.6-0.2-0.9L23.1,107.3z M23.8,106c-0.2,0.3-0.4,0.5-0.5,0.7l-0.3-0.1c0.1-0.2,0.3-0.5,0.4-0.7L23.8,106z
					 M24.7,106.7c0.1,0.3,0.3,0.6,0.5,0.9c0.2-0.2,0.4-0.5,0.5-0.9H24.7z"/>
			</g>
		</g>
		<circle fill="#EA5284" cx="42.2" cy="108.6" r="3.1"/>
		<g>
			<g>
				<path fill="#0C56AB" d="M49.6,109.7h1v0.4h-1v1.1h-0.4v-1.1h-1v-0.4h1v-0.5h-0.8v-2h0.8v-0.5h-1v-0.4h1v-0.6h0.4v0.6h1v0.4h-1
					v0.5h0.8v2h-0.8V109.7z M48.8,108.1H50v-0.5h-1.3V108.1z M48.8,108.9H50v-0.5h-1.3V108.9z M53.6,107.4h-3v-0.4h0.9
					c0-0.1,0-0.3,0.1-0.5h-0.7v-0.4h0.7c0-0.2,0-0.3,0-0.5l0.4,0c0,0.1,0,0.3,0,0.5h1.2v0.8h0.5V107.4z M53.6,110.6h-1.1v0.6h-0.4
					v-0.6h-1.2c0.1-0.3,0.2-0.6,0.2-0.9h-0.4v-0.4h1.4v-0.3H51v-1.2h2.3v1.2h-0.8v0.3h0.9v0.4h-0.9v0.6h1.1V110.6z M51.4,108.6h1.4
					V108h-1.4V108.6z M52.1,110.2v-0.6h-0.6c0,0.2-0.1,0.4-0.1,0.6H52.1z M51.9,106.6c0,0.2,0,0.3-0.1,0.5h0.9v-0.5H51.9z"/>
				<path fill="#0C56AB" d="M59.4,106v5.2h-0.4V111h-4.1v0.2h-0.4V106H59.4z M58.9,110.6v-4.2h-4.1v4.2h1.1c0-0.1-0.1-0.2-0.1-0.3
					c0.1,0,0.2-0.1,0.2-0.4v-0.2c-0.3,0.1-0.5,0.2-0.8,0.3c0-0.1-0.1-0.2-0.2-0.3c0.5-0.1,1.1-0.3,1.5-0.6h-1v-0.9h2.6v0.9H57
					c-0.2,0.2-0.4,0.3-0.7,0.4v0.6l0.8-0.2c0,0.1,0,0.2,0,0.3c-1,0.3-1.2,0.3-1.3,0.4H58.9z M58.6,107.8v0.3h-3.5v-0.3H58.6z
					 M58.4,107.6h-3v-0.9h3V107.6z M56.3,106.9h-0.6v0.4h0.6V106.9z M57.8,108.9v-0.4h-1.9v0.4H57.8z M57.1,106.9h-0.6v0.4h0.6
					V106.9z M58.5,109.3c-0.2,0.2-0.4,0.3-0.7,0.4c0.3,0.2,0.5,0.3,0.7,0.5l-0.2,0.3c-0.3-0.2-0.9-0.7-1.4-1l0.2-0.2
					c0.2,0.1,0.3,0.2,0.5,0.3c0.2-0.1,0.5-0.3,0.7-0.4L58.5,109.3z M58,106.9h-0.6v0.4H58V106.9z"/>
			</g>
		</g>
		<g>
			<path fill="#58595B" d="M0.7,1.5C0.9,1.2,1.2,1,1.7,1c0.5,0,0.8,0.2,1,0.5C2.9,1.9,3,2.3,3,2.8C3,3.2,2.9,3.7,2.7,4
				c-0.2,0.3-0.6,0.5-1,0.5c-0.5,0-0.8-0.2-1-0.5C0.4,3.7,0.4,3.2,0.4,2.8C0.4,2.3,0.4,1.9,0.7,1.5z M1.2,3.9C1.3,4,1.5,4.1,1.7,4.1
				c0.2,0,0.4-0.1,0.5-0.2c0.2-0.2,0.3-0.6,0.3-1.1c0-0.5-0.1-0.9-0.3-1.1C2.1,1.5,1.9,1.5,1.7,1.5c-0.2,0-0.4,0.1-0.5,0.2
				C1,1.9,0.9,2.2,0.9,2.8C0.9,3.3,1,3.6,1.2,3.9z"/>
			<path fill="#58595B" d="M4.3,1c0.4,0,0.8,0.4,0.8,0.8c0,0.5-0.4,0.8-0.8,0.8c-0.4,0-0.8-0.4-0.8-0.8C3.5,1.4,3.9,1,4.3,1z
				 M3.9,4.4l2.4-3.4h0.5L4.4,4.4H3.9z M4.3,2.3c0.2,0,0.4-0.2,0.4-0.4c0-0.2-0.2-0.4-0.4-0.4c-0.2,0-0.4,0.2-0.4,0.4
				C3.9,2.1,4.1,2.3,4.3,2.3z M6.4,2.8c0.4,0,0.8,0.4,0.8,0.8c0,0.5-0.4,0.8-0.8,0.8S5.5,4.1,5.5,3.7C5.5,3.2,5.9,2.8,6.4,2.8z
				 M6.4,4.1c0.2,0,0.4-0.2,0.4-0.4c0-0.2-0.2-0.4-0.4-0.4C6.1,3.3,6,3.4,6,3.7C6,3.9,6.1,4.1,6.4,4.1z"/>
		</g>
		<g>
			<path fill="#58595B" d="M0.8,24.7c0,0.4,0.3,0.7,0.8,0.7c0.4,0,0.7-0.3,0.7-0.7c0-0.5-0.3-0.7-0.7-0.7c-0.2,0-0.5,0.1-0.6,0.2
				c-0.2-0.1-0.3-0.1-0.5-0.2l0.4-1.7h1.8v0.5H1.2l-0.2,1c0.2-0.2,0.4-0.3,0.7-0.3c0.7,0,1.1,0.4,1.1,1.1c0,0.6-0.5,1.1-1.2,1.1
				c-0.7,0-1.2-0.5-1.2-1L0.8,24.7z"/>
			<path fill="#58595B" d="M4,22.4c0.4,0,0.8,0.4,0.8,0.8C4.8,23.7,4.5,24,4,24c-0.4,0-0.8-0.4-0.8-0.8C3.2,22.8,3.6,22.4,4,22.4z
				 M3.6,25.8L6,22.4h0.5l-2.4,3.4H3.6z M4,23.6c0.2,0,0.4-0.2,0.4-0.4c0-0.2-0.2-0.4-0.4-0.4c-0.2,0-0.4,0.2-0.4,0.4
				C3.6,23.5,3.8,23.6,4,23.6z M6.1,24.2c0.4,0,0.8,0.4,0.8,0.8c0,0.5-0.4,0.8-0.8,0.8S5.2,25.5,5.2,25C5.2,24.6,5.6,24.2,6.1,24.2z
				 M6.1,25.4c0.2,0,0.4-0.2,0.4-0.4c0-0.2-0.2-0.4-0.4-0.4c-0.2,0-0.4,0.2-0.4,0.4C5.7,25.3,5.8,25.4,6.1,25.4z"/>
		</g>
		<g>
			<path fill="#58595B" d="M1,47.2v-2.4H0.2v-0.4c0.5,0,0.8-0.3,0.9-0.6h0.4v3.4H1z"/>
			<path fill="#58595B" d="M2.5,44.3c0.2-0.3,0.6-0.5,1-0.5c0.5,0,0.8,0.2,1,0.5c0.2,0.3,0.3,0.8,0.3,1.2c0,0.5-0.1,0.9-0.3,1.2
				c-0.2,0.3-0.6,0.5-1,0.5c-0.5,0-0.8-0.2-1-0.5c-0.2-0.3-0.3-0.8-0.3-1.2C2.2,45,2.3,44.6,2.5,44.3z M3,46.6
				c0.1,0.1,0.3,0.2,0.5,0.2c0.2,0,0.4-0.1,0.5-0.2c0.2-0.2,0.3-0.6,0.3-1.1c0-0.5-0.1-0.9-0.3-1.1c-0.1-0.1-0.3-0.2-0.5-0.2
				c-0.2,0-0.4,0.1-0.5,0.2c-0.2,0.2-0.3,0.6-0.3,1.1C2.7,46,2.8,46.4,3,46.6z"/>
			<path fill="#58595B" d="M6.2,43.8c0.4,0,0.8,0.4,0.8,0.8c0,0.5-0.4,0.8-0.8,0.8c-0.4,0-0.8-0.4-0.8-0.8
				C5.3,44.1,5.7,43.8,6.2,43.8z M5.7,47.2l2.4-3.4h0.5l-2.4,3.4H5.7z M6.2,45c0.2,0,0.4-0.2,0.4-0.4c0-0.2-0.2-0.4-0.4-0.4
				c-0.2,0-0.4,0.2-0.4,0.4C5.8,44.8,5.9,45,6.2,45z M8.2,45.6c0.4,0,0.8,0.4,0.8,0.8c0,0.5-0.4,0.8-0.8,0.8s-0.8-0.4-0.8-0.8
				C7.4,45.9,7.8,45.6,8.2,45.6z M8.2,46.8c0.2,0,0.4-0.2,0.4-0.4c0-0.2-0.2-0.4-0.4-0.4c-0.2,0-0.4,0.2-0.4,0.4
				C7.8,46.6,8,46.8,8.2,46.8z"/>
		</g>
		<g>
			<path fill="#58595B" d="M1,68.5v-2.4H0.2v-0.4c0.5,0,0.8-0.3,0.9-0.6h0.4v3.4H1z"/>
			<path fill="#58595B" d="M2.6,67.5c0,0.4,0.3,0.7,0.8,0.7c0.4,0,0.7-0.3,0.7-0.7c0-0.5-0.3-0.7-0.7-0.7c-0.2,0-0.5,0.1-0.6,0.2
				c-0.2-0.1-0.3-0.1-0.5-0.2l0.4-1.7h1.8v0.5H3l-0.2,1c0.2-0.2,0.4-0.3,0.7-0.3c0.7,0,1.1,0.4,1.1,1.1c0,0.6-0.5,1.1-1.2,1.1
				c-0.7,0-1.2-0.5-1.2-1L2.6,67.5z"/>
			<path fill="#58595B" d="M5.8,65.1c0.4,0,0.8,0.4,0.8,0.8c0,0.5-0.4,0.8-0.8,0.8c-0.4,0-0.8-0.4-0.8-0.8C5,65.5,5.4,65.1,5.8,65.1
				z M5.4,68.5l2.4-3.4h0.5l-2.4,3.4H5.4z M5.8,66.3c0.2,0,0.4-0.2,0.4-0.4c0-0.2-0.2-0.4-0.4-0.4c-0.2,0-0.4,0.2-0.4,0.4
				C5.4,66.2,5.6,66.3,5.8,66.3z M7.9,66.9c0.4,0,0.8,0.4,0.8,0.8c0,0.5-0.4,0.8-0.8,0.8s-0.8-0.4-0.8-0.8
				C7.1,67.3,7.5,66.9,7.9,66.9z M7.9,68.2c0.2,0,0.4-0.2,0.4-0.4c0-0.2-0.2-0.4-0.4-0.4c-0.2,0-0.4,0.2-0.4,0.4
				C7.5,68,7.7,68.2,7.9,68.2z"/>
		</g>
		<g>
			<path fill="#58595B" d="M0.3,87.7c0,0,0-0.1,0-0.1c0-0.6,0.4-1.1,1.2-1.1c0.7,0,1.1,0.5,1.1,1c0,0.4-0.2,0.8-0.6,1l-0.7,0.4
				c-0.2,0.1-0.4,0.3-0.4,0.5h1.7v0.5H0.3c0-0.6,0.2-1,0.8-1.3l0.6-0.4C2,88,2.1,87.7,2.1,87.5c0-0.3-0.2-0.6-0.6-0.6
				c-0.4,0-0.7,0.3-0.7,0.7c0,0,0,0.1,0,0.2L0.3,87.7z"/>
			<path fill="#58595B" d="M3.4,87c0.2-0.3,0.6-0.5,1-0.5c0.5,0,0.8,0.2,1,0.5c0.2,0.3,0.3,0.8,0.3,1.2c0,0.5-0.1,0.9-0.3,1.2
				c-0.2,0.3-0.6,0.5-1,0.5c-0.5,0-0.8-0.2-1-0.5c-0.2-0.3-0.3-0.8-0.3-1.2C3.1,87.7,3.2,87.3,3.4,87z M3.9,89.3
				c0.1,0.1,0.3,0.2,0.5,0.2c0.2,0,0.4-0.1,0.5-0.2c0.2-0.2,0.3-0.6,0.3-1.1c0-0.5-0.1-0.9-0.3-1.1c-0.1-0.1-0.3-0.2-0.5-0.2
				c-0.2,0-0.4,0.1-0.5,0.2c-0.2,0.2-0.3,0.6-0.3,1.1C3.6,88.7,3.7,89.1,3.9,89.3z"/>
			<path fill="#58595B" d="M7.1,86.5c0.4,0,0.8,0.4,0.8,0.8c0,0.5-0.4,0.8-0.8,0.8c-0.4,0-0.8-0.4-0.8-0.8
				C6.2,86.8,6.6,86.5,7.1,86.5z M6.6,89.9l2.4-3.4h0.5l-2.4,3.4H6.6z M7.1,87.7c0.2,0,0.4-0.2,0.4-0.4c0-0.2-0.2-0.4-0.4-0.4
				c-0.2,0-0.4,0.2-0.4,0.4C6.7,87.5,6.8,87.7,7.1,87.7z M9.1,88.3c0.4,0,0.8,0.4,0.8,0.8c0,0.5-0.4,0.8-0.8,0.8s-0.8-0.4-0.8-0.8
				C8.3,88.6,8.7,88.3,9.1,88.3z M9.1,89.5c0.2,0,0.4-0.2,0.4-0.4c0-0.2-0.2-0.4-0.4-0.4c-0.2,0-0.4,0.2-0.4,0.4
				C8.7,89.3,8.9,89.5,9.1,89.5z"/>
		</g>
		
			<line fill="none" stroke="#414042" stroke-width="5.943695e-002" stroke-miterlimit="10" x1="117.6" y1="90" x2="117.6" y2="87.2"/>
		<line fill="none" stroke="#414042" stroke-width="5.943695e-002" stroke-miterlimit="10" x1="90.2" y1="90" x2="90.2" y2="87.2"/>
		<line fill="none" stroke="#414042" stroke-width="5.943695e-002" stroke-miterlimit="10" x1="62.8" y1="90" x2="62.8" y2="87.2"/>
		<line fill="none" stroke="#414042" stroke-width="5.943695e-002" stroke-miterlimit="10" x1="35.4" y1="90" x2="35.4" y2="87.2"/>
		<line fill="none" stroke="#414042" stroke-width="5.943695e-002" stroke-miterlimit="10" x1="145" y1="90" x2="145" y2="87.2"/>
		<g>
			<path fill="#58595B" d="M30.7,94.1c0,0,0-0.1,0-0.1c0-0.5,0.4-0.9,1-0.9c0.6,0,0.9,0.4,0.9,0.9c0,0.4-0.2,0.7-0.5,0.9l-0.6,0.4
				c-0.2,0.1-0.3,0.2-0.3,0.4h1.4V96h-2c0-0.5,0.2-0.8,0.7-1.1l0.5-0.3c0.3-0.2,0.4-0.4,0.4-0.6c0-0.3-0.2-0.5-0.5-0.5
				c-0.4,0-0.5,0.3-0.5,0.6c0,0,0,0.1,0,0.1L30.7,94.1z"/>
			<path fill="#58595B" d="M33.3,93.6c0.2-0.3,0.5-0.5,0.9-0.5s0.7,0.2,0.9,0.5c0.2,0.3,0.3,0.6,0.3,1c0,0.4-0.1,0.7-0.3,1
				c-0.2,0.3-0.5,0.5-0.9,0.5s-0.7-0.2-0.9-0.5c-0.2-0.3-0.3-0.6-0.3-1C33,94.2,33.1,93.8,33.3,93.6z M33.7,95.5
				c0.1,0.1,0.2,0.2,0.4,0.2s0.3-0.1,0.4-0.2c0.2-0.2,0.2-0.5,0.2-0.9c0-0.4-0.1-0.7-0.2-0.9c-0.1-0.1-0.2-0.2-0.4-0.2
				s-0.3,0.1-0.4,0.2c-0.2,0.2-0.2,0.5-0.2,0.9C33.4,95,33.5,95.3,33.7,95.5z"/>
			<path fill="#58595B" d="M36.2,96v-2h-0.7v-0.3c0.4,0,0.7-0.2,0.7-0.5h0.4V96H36.2z"/>
			<path fill="#58595B" d="M37.2,94.1c0,0,0-0.1,0-0.1c0-0.5,0.4-0.9,1-0.9c0.6,0,0.9,0.4,0.9,0.9c0,0.4-0.2,0.7-0.5,0.9L38,95.2
				c-0.2,0.1-0.3,0.2-0.3,0.4h1.4V96h-2c0-0.5,0.2-0.8,0.7-1.1l0.5-0.3c0.3-0.2,0.4-0.4,0.4-0.6c0-0.3-0.2-0.5-0.5-0.5
				c-0.4,0-0.5,0.3-0.5,0.6c0,0,0,0.1,0,0.1L37.2,94.1z"/>
		</g>
		<g>
			<path fill="#58595B" d="M58.1,94.1c0,0,0-0.1,0-0.1c0-0.5,0.4-0.9,1-0.9c0.6,0,0.9,0.4,0.9,0.9c0,0.4-0.2,0.7-0.5,0.9l-0.6,0.4
				c-0.2,0.1-0.3,0.2-0.3,0.4H60V96h-2c0-0.5,0.2-0.8,0.7-1.1l0.5-0.3c0.3-0.2,0.4-0.4,0.4-0.6c0-0.3-0.2-0.5-0.5-0.5
				c-0.4,0-0.5,0.3-0.5,0.6c0,0,0,0.1,0,0.1L58.1,94.1z"/>
			<path fill="#58595B" d="M60.6,93.6c0.2-0.3,0.5-0.5,0.9-0.5c0.4,0,0.7,0.2,0.9,0.5c0.2,0.3,0.3,0.6,0.3,1c0,0.4-0.1,0.7-0.3,1
				c-0.2,0.3-0.5,0.5-0.9,0.5c-0.4,0-0.7-0.2-0.9-0.5c-0.2-0.3-0.3-0.6-0.3-1C60.4,94.2,60.4,93.8,60.6,93.6z M61,95.5
				c0.1,0.1,0.2,0.2,0.4,0.2s0.3-0.1,0.4-0.2c0.2-0.2,0.2-0.5,0.2-0.9c0-0.4-0.1-0.7-0.2-0.9c-0.1-0.1-0.2-0.2-0.4-0.2
				s-0.3,0.1-0.4,0.2c-0.2,0.2-0.2,0.5-0.2,0.9C60.8,95,60.9,95.3,61,95.5z"/>
			<path fill="#58595B" d="M63.6,96v-2h-0.7v-0.3c0.4,0,0.7-0.2,0.7-0.5H64V96H63.6z"/>
			<path fill="#58595B" d="M65.1,94.3l0.8-0.8h-1.3v-0.4h1.9v0.4l-0.8,0.7c0.4,0,0.9,0.3,0.9,0.9c0,0.5-0.4,0.9-1,0.9
				c-0.7,0-1-0.4-1-0.9l0.4-0.1c0,0.4,0.3,0.6,0.6,0.6c0.4,0,0.6-0.2,0.6-0.5c0-0.4-0.3-0.5-0.6-0.5c-0.1,0-0.2,0-0.2,0L65.1,94.3z"
				/>
		</g>
		<g>
			<path fill="#58595B" d="M85.5,94.1c0,0,0-0.1,0-0.1c0-0.5,0.4-0.9,1-0.9c0.6,0,0.9,0.4,0.9,0.9c0,0.4-0.2,0.7-0.5,0.9l-0.6,0.4
				c-0.2,0.1-0.3,0.2-0.3,0.4h1.4V96h-2c0-0.5,0.2-0.8,0.7-1.1l0.5-0.3c0.3-0.2,0.4-0.4,0.4-0.6c0-0.3-0.2-0.5-0.5-0.5
				c-0.4,0-0.5,0.3-0.5,0.6c0,0,0,0.1,0,0.1L85.5,94.1z"/>
			<path fill="#58595B" d="M88.1,93.6c0.2-0.3,0.5-0.5,0.9-0.5c0.4,0,0.7,0.2,0.9,0.5c0.2,0.3,0.3,0.6,0.3,1c0,0.4-0.1,0.7-0.3,1
				C89.6,95.9,89.4,96,89,96c-0.4,0-0.7-0.2-0.9-0.5c-0.2-0.3-0.3-0.6-0.3-1C87.8,94.2,87.9,93.8,88.1,93.6z M88.5,95.5
				c0.1,0.1,0.2,0.2,0.4,0.2c0.2,0,0.3-0.1,0.4-0.2c0.2-0.2,0.2-0.5,0.2-0.9c0-0.4-0.1-0.7-0.2-0.9c-0.1-0.1-0.2-0.2-0.4-0.2
				c-0.2,0-0.3,0.1-0.4,0.2c-0.2,0.2-0.2,0.5-0.2,0.9C88.3,95,88.3,95.3,88.5,95.5z"/>
			<path fill="#58595B" d="M91.1,96v-2h-0.7v-0.3c0.4,0,0.7-0.2,0.7-0.5h0.4V96H91.1z"/>
			<path fill="#58595B" d="M91.9,94.9l1.2-1.7h0.6V95h0.5v0.4h-0.5V96h-0.4v-0.6h-1.4V94.9z M93.3,93.6l-1,1.4h1V93.6z"/>
		</g>
		<g>
			<path fill="#58595B" d="M113.2,94.1c0,0,0-0.1,0-0.1c0-0.5,0.4-0.9,1-0.9c0.6,0,0.9,0.4,0.9,0.9c0,0.4-0.2,0.7-0.5,0.9l-0.6,0.4
				c-0.2,0.1-0.3,0.2-0.3,0.4h1.4V96h-2c0-0.5,0.2-0.8,0.7-1.1l0.5-0.3c0.3-0.2,0.4-0.4,0.4-0.6c0-0.3-0.2-0.5-0.5-0.5
				c-0.4,0-0.5,0.3-0.5,0.6c0,0,0,0.1,0,0.1L113.2,94.1z"/>
			<path fill="#58595B" d="M115.7,93.6c0.2-0.3,0.5-0.5,0.9-0.5c0.4,0,0.7,0.2,0.9,0.5c0.2,0.3,0.3,0.6,0.3,1c0,0.4-0.1,0.7-0.3,1
				c-0.2,0.3-0.5,0.5-0.9,0.5c-0.4,0-0.7-0.2-0.9-0.5c-0.2-0.3-0.3-0.6-0.3-1C115.5,94.2,115.6,93.8,115.7,93.6z M116.2,95.5
				c0.1,0.1,0.2,0.2,0.4,0.2c0.2,0,0.3-0.1,0.4-0.2c0.2-0.2,0.2-0.5,0.2-0.9c0-0.4-0.1-0.7-0.2-0.9c-0.1-0.1-0.2-0.2-0.4-0.2
				c-0.2,0-0.3,0.1-0.4,0.2c-0.2,0.2-0.2,0.5-0.2,0.9C115.9,95,116,95.3,116.2,95.5z"/>
			<path fill="#58595B" d="M118.7,96v-2H118v-0.3c0.4,0,0.7-0.2,0.7-0.5h0.4V96H118.7z"/>
			<path fill="#58595B" d="M120,95.1c0,0.3,0.3,0.6,0.6,0.6c0.3,0,0.6-0.2,0.6-0.6c0-0.4-0.3-0.6-0.6-0.6c-0.2,0-0.4,0.1-0.5,0.2
				c-0.1-0.1-0.3-0.1-0.4-0.2l0.4-1.4h1.5v0.4h-1.2l-0.2,0.8c0.1-0.1,0.4-0.2,0.6-0.2c0.6,0,1,0.4,1,0.9c0,0.5-0.4,1-1,1
				c-0.6,0-1-0.4-1-0.8L120,95.1z"/>
		</g>
		<g>
			<path fill="#58595B" d="M140.6,94.1c0,0,0-0.1,0-0.1c0-0.5,0.4-0.9,1-0.9c0.6,0,0.9,0.4,0.9,0.9c0,0.4-0.2,0.7-0.5,0.9l-0.6,0.4
				c-0.2,0.1-0.3,0.2-0.3,0.4h1.4V96h-2c0-0.5,0.2-0.8,0.7-1.1l0.5-0.3c0.3-0.2,0.4-0.4,0.4-0.6c0-0.3-0.2-0.5-0.5-0.5
				c-0.4,0-0.5,0.3-0.5,0.6c0,0,0,0.1,0,0.1L140.6,94.1z"/>
			<path fill="#58595B" d="M143.2,93.6c0.2-0.3,0.5-0.5,0.9-0.5c0.4,0,0.7,0.2,0.9,0.5c0.2,0.3,0.3,0.6,0.3,1c0,0.4-0.1,0.7-0.3,1
				c-0.2,0.3-0.5,0.5-0.9,0.5c-0.4,0-0.7-0.2-0.9-0.5c-0.2-0.3-0.3-0.6-0.3-1C142.9,94.2,143,93.8,143.2,93.6z M143.6,95.5
				c0.1,0.1,0.2,0.2,0.4,0.2c0.2,0,0.3-0.1,0.4-0.2c0.2-0.2,0.2-0.5,0.2-0.9c0-0.4-0.1-0.7-0.2-0.9c-0.1-0.1-0.2-0.2-0.4-0.2
				c-0.2,0-0.3,0.1-0.4,0.2c-0.2,0.2-0.2,0.5-0.2,0.9C143.4,95,143.4,95.3,143.6,95.5z"/>
			<path fill="#58595B" d="M146.2,96v-2h-0.7v-0.3c0.4,0,0.7-0.2,0.7-0.5h0.4V96H146.2z"/>
			<path fill="#58595B" d="M149.1,93.6c-0.1-0.1-0.3-0.1-0.5-0.1c-0.6,0-1,0.4-1,1c0.1-0.2,0.4-0.4,0.7-0.4c0.6,0,1,0.3,1,1
				c0,0.6-0.5,1-1,1c-0.5,0-1.1-0.4-1.1-1.3c0-1,0.6-1.6,1.4-1.6c0.3,0,0.5,0.1,0.6,0.2L149.1,93.6z M148.2,95.7
				c0.3,0,0.6-0.2,0.6-0.6c0-0.4-0.3-0.6-0.6-0.6c-0.3,0-0.6,0.2-0.6,0.6C147.6,95.5,147.9,95.7,148.2,95.7z"/>
		</g>
	</g>
</g>
<g>
	<g>
		<path fill="#999999" d="M2,119.5H0.3v-0.3H2V119.5z M2.5,122.6c-0.5,0.3-1.2,0.6-1.8,0.7c-0.1-0.1-0.2-0.2-0.3-0.3
			c0.6-0.1,1.3-0.3,1.8-0.6L2.5,122.6z M1.9,118.6H0.4v-0.3h1.4V118.6z M5,122.4H1.1V120H5V122.4z M4.6,120.3H1.5v0.4h3.1V120.3z
			 M4.6,121H1.5v0.4h3.1V121z M4.6,121.7H1.5v0.5h3.1V121.7z M4,118.7c0,0.1,0,0.1,0,0.2c0.3,0.4,1,0.6,1.8,0.7
			c-0.1,0.1-0.2,0.2-0.2,0.3c-0.7-0.1-1.3-0.3-1.6-0.7c-0.2,0.3-0.7,0.6-1.7,0.8c0-0.1-0.1-0.2-0.2-0.3c1.6-0.2,1.7-0.7,1.7-1v-0.1
			H3c-0.1,0.2-0.3,0.4-0.5,0.6c-0.1-0.1-0.2-0.2-0.3-0.2c0.3-0.3,0.6-0.7,0.7-1.2l0.4,0.1c0,0.1-0.1,0.2-0.1,0.3h2.1l0.1,0l0.3,0.1
			c-0.2,0.3-0.3,0.6-0.5,0.9l-0.3-0.1c0.1-0.1,0.2-0.3,0.3-0.5L4,118.7L4,118.7z M3.9,122.5c0.6,0.2,1.3,0.4,1.8,0.6l-0.4,0.2
			c-0.4-0.2-1-0.4-1.7-0.7L3.9,122.5z"/>
		<path fill="#999999" d="M7.1,120.8c-0.1,0.7-0.4,1.5-0.7,1.9c0-0.1-0.1-0.3-0.2-0.4c0.2-0.3,0.5-1,0.6-1.6L7.1,120.8z M7.7,120.3
			v3.1H7.3v-3.1h-1v-0.4h1v-2h0.4v2h1v0.4H7.7z M6.7,119.7c0-0.4-0.2-0.9-0.3-1.3l0.3-0.1c0.2,0.4,0.3,0.9,0.4,1.3L6.7,119.7z
			 M7.9,120.7c0.1,0.2,0.5,1,0.6,1.2l-0.3,0.3c-0.1-0.3-0.4-1.1-0.6-1.3L7.9,120.7z M8.6,118.4c-0.1,0.4-0.3,1-0.5,1.3l-0.3-0.1
			c0.1-0.3,0.3-0.9,0.4-1.3L8.6,118.4z M11,121.7v1.7h-0.4v-1.6l-1.9,0.3l-0.1-0.4l2-0.4v-3.4H11v3.4l0.7-0.1l0.1,0.4L11,121.7z
			 M9.8,120.8c-0.2-0.2-0.6-0.5-1-0.7l0.2-0.3c0.4,0.2,0.8,0.5,1,0.7L9.8,120.8z M10.1,119.4c-0.2-0.2-0.6-0.6-0.9-0.8l0.2-0.3
			c0.4,0.2,0.8,0.5,0.9,0.7L10.1,119.4z"/>
		<path fill="#999999" d="M15.2,120.6c0.5,0.9,1.6,1.8,2.6,2.2c-0.1,0.1-0.2,0.2-0.3,0.4c-0.8-0.4-1.7-1.1-2.3-1.9v2.1h-0.4v-2.1
			c-0.6,0.8-1.4,1.5-2.2,1.8c-0.1-0.1-0.2-0.2-0.3-0.3c1-0.4,2-1.2,2.5-2.1v-1.5h-2.3v-0.4h2.3v-0.8h0.4v0.8h2.4v0.4h-2.4V120.6z
			 M13.9,119.4c-0.1,0.3-0.1,0.5-0.2,0.7c0.3,0.2,0.6,0.5,0.7,0.7l-0.3,0.3c-0.1-0.2-0.4-0.4-0.6-0.6c-0.2,0.4-0.5,0.7-0.8,1
			c-0.1-0.1-0.2-0.2-0.3-0.3c0.5-0.4,0.9-1.1,1.1-1.8L13.9,119.4z M16.7,119.4c-0.1,0.3-0.1,0.5-0.2,0.7c0.4,0.3,0.9,0.7,1.1,0.9
			l-0.3,0.3c-0.2-0.2-0.6-0.6-1-0.9c-0.1,0.3-0.3,0.5-0.5,0.8c-0.1-0.1-0.2-0.2-0.3-0.2c0.4-0.4,0.7-1,0.9-1.6L16.7,119.4z"/>
		<path fill="#999999" d="M19.3,120.5c-0.2-0.2-0.7-0.5-1-0.6l0.2-0.3c0.3,0.2,0.8,0.4,1,0.6L19.3,120.5z M19.6,121.4
			c-0.3,0.6-0.6,1.4-0.9,1.9l-0.3-0.2c0.3-0.5,0.6-1.3,0.9-1.9L19.6,121.4z M19.5,118.9c-0.2-0.2-0.7-0.5-1-0.7l0.2-0.3
			c0.3,0.2,0.8,0.5,1,0.6L19.5,118.9z M20.4,119.8c0,1-0.1,2.5-0.8,3.5c-0.1-0.1-0.2-0.2-0.3-0.2c0.7-1,0.8-2.3,0.8-3.3v-1.6h3.6
			v0.4h-3.3V119.8z M21.4,121.8c-0.2,0.4-0.5,0.9-0.8,1.2c-0.1-0.1-0.2-0.2-0.3-0.2c0.3-0.3,0.6-0.7,0.7-1.1L21.4,121.8z
			 M22.3,121.3v1.6c0,0.2,0,0.3-0.2,0.4c-0.2,0.1-0.4,0.1-0.8,0.1c0-0.1-0.1-0.2-0.1-0.3c0.3,0,0.6,0,0.6,0c0.1,0,0.1,0,0.1-0.1
			v-1.6h-1.1v-2h0.9c0.1-0.2,0.1-0.4,0.2-0.6l0.4,0.1c-0.1,0.2-0.2,0.4-0.2,0.5h1.3v2H22.3z M21.2,120.2h1.9v-0.6h-1.9V120.2z
			 M21.2,121h1.9v-0.6h-1.9V121z M23.1,121.6c0.2,0.4,0.6,0.9,0.7,1.1l-0.4,0.2c-0.1-0.3-0.4-0.8-0.7-1.2L23.1,121.6z"/>
		<path fill="#999999" d="M25.1,119.2c0-0.3,0.2-0.4,0.4-0.4c0.2,0,0.4,0.2,0.4,0.4c0,0.3-0.2,0.4-0.4,0.4
			C25.3,119.6,25.1,119.5,25.1,119.2z M25.1,122.2c0-0.3,0.2-0.4,0.4-0.4c0.2,0,0.4,0.2,0.4,0.4s-0.2,0.4-0.4,0.4
			C25.3,122.6,25.1,122.4,25.1,122.2z"/>
		<path fill="#999999" d="M29.4,120.1c0,0,0,0.1,0,0.2c0,2-0.1,2.7-0.2,2.9c-0.1,0.1-0.2,0.2-0.3,0.2c-0.1,0-0.4,0-0.6,0
			c0-0.1,0-0.3-0.1-0.4c0.3,0,0.5,0,0.6,0c0.1,0,0.1,0,0.2-0.1c0.1-0.1,0.1-0.7,0.2-2.4h-0.8c-0.1,1.2-0.3,2.2-0.8,2.9
			c-0.1-0.1-0.2-0.2-0.3-0.3c0.6-0.8,0.7-2.4,0.7-3.8h-0.7v-0.4h2.4v0.4h-1.3c0,0.3,0,0.6,0,0.9H29.4z M28.5,118.8
			c-0.1-0.2-0.2-0.6-0.3-0.8l0.3-0.1c0.1,0.2,0.3,0.6,0.3,0.8L28.5,118.8z M30.4,119.1c-0.2,0.4-0.4,0.7-0.6,1
			c-0.1-0.1-0.2-0.2-0.3-0.3c0.4-0.5,0.7-1.2,0.9-1.9l0.4,0.1c-0.1,0.3-0.1,0.5-0.2,0.8h2.2v0.4H30.4z M32.1,123
			c0.3,0,0.3-0.1,0.3-0.7c0.1,0.1,0.2,0.1,0.3,0.1c0,0.7-0.2,0.9-0.7,0.9h-1.2c-0.6,0-0.7-0.1-0.7-0.6v-1.5l-0.4,0.2l-0.1-0.3
			l0.5-0.3v-1h0.4v0.8l0.6-0.3v-1h0.3v0.8l0.7-0.3l0.1-0.1l0.3,0.1l0,0.1c0,0.7,0,1.5-0.1,2.1l-0.3-0.1c0-0.4,0.1-1.1,0.1-1.7
			l-0.7,0.3v1.8h-0.3v-1.6l-0.6,0.3v1.7c0,0.2,0.1,0.3,0.4,0.3H32.1z"/>
		<path fill="#999999" d="M34,122.1c-0.1,0.4-0.2,0.9-0.3,1.2c-0.1,0-0.2-0.1-0.3-0.1c0.2-0.3,0.3-0.7,0.3-1.1L34,122.1z
			 M35.3,120.8c0.2,0.3,0.4,0.8,0.5,1l-0.3,0.1c0-0.1-0.1-0.2-0.1-0.3c-1.5,0.2-1.7,0.2-1.8,0.2c0-0.1-0.1-0.2-0.1-0.3
			c0.1,0,0.3-0.1,0.5-0.3c0.1-0.1,0.4-0.3,0.6-0.6c-0.7,0.1-0.9,0.1-1,0.1c0-0.1-0.1-0.2-0.1-0.3c0.1,0,0.2-0.1,0.3-0.2
			c0.1-0.1,0.5-0.5,0.7-0.9h-0.8v-1.3h4.7v1.3h-3.8l0.3,0.1c-0.2,0.3-0.5,0.6-0.8,0.9l0.7,0c0.1-0.2,0.3-0.3,0.4-0.5l0.3,0.2
			c-0.4,0.5-0.9,1-1.4,1.4l1.1-0.1c-0.1-0.2-0.1-0.3-0.2-0.5L35.3,120.8z M34.1,119.1h1v-0.6h-1V119.1z M34.6,122.1
			c0.1,0.3,0.2,0.8,0.2,1l-0.3,0.1c0-0.3-0.1-0.7-0.2-1L34.6,122.1z M35.3,122c0.2,0.3,0.4,0.7,0.4,1l-0.3,0.1
			c-0.1-0.3-0.2-0.7-0.4-1L35.3,122z M35.4,119.1h1.1v-0.6h-1.1V119.1z M38.7,123.1h-2.3v0.2H36v-2.5c-0.1,0.1-0.2,0.2-0.3,0.3
			c-0.1-0.1-0.2-0.2-0.3-0.2c0.4-0.4,0.8-0.9,1-1.5l0.4,0.1c-0.1,0.2-0.2,0.5-0.3,0.7h1c-0.1-0.2-0.2-0.4-0.3-0.6l0.3-0.1
			c0.1,0.2,0.3,0.5,0.3,0.7h0.9v0.3h-0.9v0.5h0.8v0.3h-0.8v0.5h0.8v0.3h-0.8v0.5h1V123.1z M37.3,120.6h-0.9v0.5h0.9V120.6z
			 M37.3,121.4h-0.9v0.5h0.9V121.4z M36.4,122.8h0.9v-0.5h-0.9V122.8z M36.9,119.1h1.1v-0.6h-1.1V119.1z"/>
		<path fill="#999999" d="M41,119.3c-0.1,0.3-0.3,0.6-0.5,0.8v3.2h-0.4v-2.7c-0.2,0.3-0.4,0.5-0.6,0.7c0-0.1-0.2-0.3-0.2-0.4
			c0.5-0.5,1.1-1.2,1.4-1.8L41,119.3z M40.9,118.1c-0.4,0.5-0.9,1.1-1.4,1.5c0-0.1-0.1-0.2-0.2-0.3c0.4-0.3,1-0.9,1.3-1.3
			L40.9,118.1z M40.7,123c0.2-0.3,0.4-0.8,0.5-1.1l0.3,0.1c-0.1,0.4-0.3,0.9-0.6,1.2L40.7,123z M44.7,121.1v0.3h-3.8v-0.3H44.7z
			 M42.5,119.2c0-0.1,0.1-0.3,0.1-0.5H41v-0.3h1.6c0-0.2,0-0.4,0.1-0.5l0.4,0c0,0.2,0,0.3-0.1,0.5h1.7v0.3h-1.8
			c0,0.2-0.1,0.3-0.1,0.5h1.6v1.5h-3.3v-1.5H42.5z M42.2,119.5h-0.6v0.9h0.6V119.5z M43.3,123c0.2,0,0.2-0.1,0.3-0.6
			c0.1,0.1,0.2,0.1,0.3,0.1c0,0.6-0.2,0.8-0.5,0.8h-0.9c-0.5,0-0.6-0.1-0.6-0.5v-0.9h0.4v0.9c0,0.1,0,0.2,0.3,0.2H43.3z M42.9,122.4
			c-0.1-0.2-0.3-0.5-0.4-0.8l0.3-0.1c0.2,0.2,0.4,0.6,0.5,0.7L42.9,122.4z M43.2,119.5h-0.7v0.9h0.7V119.5z M43.5,120.4h0.7v-0.9
			h-0.7V120.4z M44.1,121.8c0.2,0.4,0.5,0.8,0.6,1.1l-0.3,0.1c-0.1-0.3-0.4-0.8-0.6-1.2L44.1,121.8z"/>
		<path fill="#999999" d="M45.9,121.5c0.5-0.2,0.7-0.5,0.8-0.9c0,0-0.1,0-0.1,0c-0.2,0-0.4-0.1-0.4-0.4c0-0.3,0.2-0.4,0.4-0.4
			c0.3,0,0.5,0.3,0.5,0.7c0,0.6-0.4,1.1-1,1.3L45.9,121.5z"/>
		<path fill="#999999" d="M50.1,121.4c0-0.1,0-0.2-0.1-0.3c-1.3,0.2-1.5,0.3-1.6,0.3c0-0.1-0.1-0.3-0.1-0.4c0.1,0,0.3-0.2,0.4-0.4
			c0.1-0.1,0.3-0.4,0.5-0.7c-0.7,0.1-0.8,0.1-0.9,0.1c0-0.1-0.1-0.3-0.1-0.4c0.1,0,0.2-0.1,0.3-0.3s0.6-0.9,0.8-1.5l0.4,0.2
			c-0.3,0.6-0.6,1.2-1,1.6l0.7-0.1c0.2-0.3,0.3-0.6,0.5-0.9l0.3,0.2c-0.4,0.7-0.9,1.4-1.4,2l1-0.2c-0.1-0.2-0.2-0.4-0.2-0.6l0.3-0.1
			c0.2,0.4,0.4,0.9,0.4,1.2L50.1,121.4z M48.9,121.8c-0.1,0.5-0.2,1.1-0.3,1.4c-0.1,0-0.2-0.1-0.3-0.1c0.1-0.4,0.2-0.9,0.3-1.4
			L48.9,121.8z M49.5,121.7c0.1,0.4,0.1,0.9,0.2,1.3l-0.3,0.1c0-0.3-0.1-0.9-0.2-1.3L49.5,121.7z M50.1,122.8
			c-0.1-0.3-0.2-0.8-0.3-1.1l0.3-0.1c0.1,0.3,0.3,0.8,0.3,1.1L50.1,122.8z M53.2,122.9c0.1,0,0.2-0.1,0.2-0.8
			c0.1,0.1,0.2,0.1,0.3,0.2c0,0.8-0.1,1-0.5,1h-0.5c-0.4,0-0.5-0.1-0.5-0.5v-2.2l-0.6,0.1c0,1.4-0.2,2.3-1.3,2.7
			c0-0.1-0.2-0.2-0.2-0.3c1-0.4,1.1-1.1,1.2-2.4c-0.4,0.1-0.5,0.1-0.6,0.1c0-0.1-0.1-0.3-0.1-0.4c0.1,0,0.3-0.2,0.4-0.4
			c0.1-0.1,0.3-0.5,0.5-0.9h-0.9v-0.4h1.1c0.1-0.2,0.2-0.5,0.3-0.8l0.4,0.1c-0.1,0.2-0.2,0.4-0.3,0.6h1.6v0.4h-1.8
			c-0.3,0.5-0.5,0.9-0.8,1.3l1.9-0.2c-0.1-0.2-0.3-0.5-0.4-0.7l0.3-0.1c0.3,0.4,0.7,1.1,0.8,1.4l-0.4,0.2c-0.1-0.1-0.1-0.3-0.2-0.4
			l-0.5,0.1v2.2c0,0.1,0,0.2,0.2,0.2H53.2z"/>
		<path fill="#999999" d="M56.9,119.3h-2.5v-0.3h2.5V119.3z M54.7,119.7h1.9v0.3h-1.9V119.7z M56.6,120.8h-1.9v-0.3h1.9V120.8z
			 M56.6,123h-1.5v0.3h-0.4v-2h1.9V123z M55.1,121.6v1h1.2v-1H55.1z M55.6,118.8c-0.1-0.2-0.3-0.6-0.4-0.8l0.3-0.2
			c0.2,0.2,0.4,0.6,0.5,0.8L55.6,118.8z M59.7,120.4h-1.2v3H58v-3h-1.2V120H58v-2h0.4v2h1.2V120.4z"/>
		<path fill="#999999" d="M65.4,120.2c-0.2,0.7-0.5,1.3-0.9,1.9c0.2,0.5,0.4,0.8,0.7,0.8c0.2,0,0.2-0.3,0.3-1
			c0.1,0.1,0.2,0.2,0.3,0.2c-0.1,0.9-0.2,1.2-0.6,1.2c-0.4,0-0.7-0.3-0.9-0.8c-0.3,0.3-0.6,0.6-0.9,0.9c-0.1-0.1-0.2-0.2-0.3-0.3
			c0.1-0.1,0.2-0.1,0.3-0.2h-2.1v0.3h-0.4v-2.2c-0.1,0.1-0.2,0.2-0.3,0.3c-0.1-0.1-0.2-0.2-0.3-0.2c0.4-0.3,0.7-0.9,0.9-1.4l0.3,0.1
			c-0.1,0.2-0.2,0.4-0.3,0.5h0.9c-0.1-0.2-0.2-0.4-0.3-0.5l0.3-0.1c0.1,0.2,0.3,0.4,0.4,0.6l0,0h0.8v0.3h-0.9v0.4h0.8v0.3h-0.8v0.4
			h0.8v0.3h-0.8v0.4h0.9v0.3c0.3-0.2,0.5-0.5,0.7-0.8c-0.2-0.6-0.3-1.4-0.4-2.4h-3.3v-0.3h1.4v-0.6h-1.1v-0.3h1.1v-0.6h0.4v0.6h1.1
			v0.3h-1.1v0.6h1.5c0-0.5,0-1,0-1.5H64c0,0.5,0,1,0,1.5h1.6v0.3h-1.6c0.1,0.8,0.2,1.4,0.3,1.9c0.3-0.5,0.5-1,0.7-1.6L65.4,120.2z
			 M62.1,120.7h-0.9v0.4h0.9V120.7z M62.1,121.4h-0.9v0.4h0.9V121.4z M61.2,122.6h0.9v-0.4h-0.9V122.6z M65.2,119.1
			c-0.2-0.2-0.6-0.6-0.9-0.9l0.3-0.2c0.3,0.2,0.7,0.6,0.9,0.9L65.2,119.1z"/>
		<path fill="#999999" d="M71.7,122.8v0.4h-5.3v-0.4h2.4v-1.2h-1.9v-0.4h1.9v-0.8h0.4v0.8h2v0.4h-2v1.2H71.7z M71.1,120.6
			c-0.1-0.1-0.2-0.3-0.4-0.4c-3.3,0.2-3.6,0.2-3.8,0.2c0-0.1-0.1-0.3-0.1-0.4c0.1,0,0.3-0.1,0.4-0.3c0.1-0.1,0.6-0.6,0.9-1.1h-1.6
			v-0.4h5v0.4h-2.8c-0.4,0.5-0.8,0.9-1.2,1.3l2.9-0.1c-0.3-0.2-0.5-0.5-0.8-0.7l0.3-0.2c0.5,0.4,1.2,1,1.5,1.4L71.1,120.6z"/>
		<path fill="#999999" d="M72.3,122.6c1.4-1.2,2-2.1,2-2.9c0-0.5-0.3-0.9-0.8-0.9c-0.4,0-0.7,0.2-0.9,0.5l-0.3-0.3
			c0.4-0.4,0.7-0.6,1.3-0.6c0.8,0,1.3,0.5,1.3,1.3c0,0.9-0.7,1.8-1.8,2.8c0.2,0,0.5,0,0.7,0H75v0.4h-2.7V122.6z"/>
		<path fill="#999999" d="M75.6,120.7c0-1.5,0.5-2.3,1.3-2.3c0.8,0,1.3,0.7,1.3,2.3c0,1.5-0.5,2.3-1.3,2.3
			C76.1,123,75.6,122.2,75.6,120.7z M77.8,120.7c0-1.3-0.3-1.9-0.9-1.9c-0.5,0-0.9,0.6-0.9,1.9c0,1.3,0.4,1.9,0.9,1.9
			C77.5,122.6,77.8,122,77.8,120.7z"/>
		<path fill="#999999" d="M79.1,122.5h1v-3.4h-0.8v-0.3c0.4-0.1,0.7-0.2,0.9-0.3h0.4v4h0.9v0.4h-2.4V122.5z"/>
		<path fill="#999999" d="M82.2,120.7c0-1.5,0.5-2.3,1.3-2.3c0.8,0,1.3,0.7,1.3,2.3c0,1.5-0.5,2.3-1.3,2.3
			C82.7,123,82.2,122.2,82.2,120.7z M84.4,120.7c0-1.3-0.3-1.9-0.9-1.9c-0.5,0-0.9,0.6-0.9,1.9c0,1.3,0.4,1.9,0.9,1.9
			C84,122.6,84.4,122,84.4,120.7z"/>
		<path fill="#999999" d="M90.9,122h-2.2v1.4h-0.4V122h-2.8v-0.4h1V120h1.8v-1h-1.5c-0.3,0.5-0.6,0.9-0.9,1.2
			c-0.1-0.1-0.2-0.2-0.3-0.3c0.6-0.5,1.1-1.3,1.4-2.1l0.4,0.1c-0.1,0.2-0.2,0.4-0.3,0.7h3.6v0.4h-1.9v1h1.8v0.4h-1.8v1.2h2.2V122z
			 M88.3,121.6v-1.2h-1.4v1.2H88.3z"/>
		<path fill="#999999" d="M91.7,122.5h1v-3.4h-0.8v-0.3c0.4-0.1,0.7-0.2,0.9-0.3h0.4v4h0.9v0.4h-2.4V122.5z"/>
		<path fill="#999999" d="M94.8,120.7c0-1.5,0.5-2.3,1.3-2.3c0.8,0,1.3,0.7,1.3,2.3c0,1.5-0.5,2.3-1.3,2.3
			C95.3,123,94.8,122.2,94.8,120.7z M97,120.7c0-1.3-0.3-1.9-0.9-1.9c-0.5,0-0.9,0.6-0.9,1.9c0,1.3,0.4,1.9,0.9,1.9
			C96.6,122.6,97,122,97,120.7z"/>
		<path fill="#999999" d="M102.7,122.8c0,0.3-0.1,0.4-0.3,0.5c-0.2,0.1-0.6,0.1-1.3,0.1c0-0.1-0.1-0.3-0.2-0.4c0.5,0,1,0,1.1,0
			c0.1,0,0.2,0,0.2-0.2v-1.3h-2.9c-0.1,0.7-0.4,1.4-1,1.9c-0.1-0.1-0.2-0.2-0.3-0.3c1-0.9,1.1-2.1,1.1-3.1v-1.8h3.6V122.8z
			 M102.2,121.1v-1.1h-2.8c0,0.3,0,0.7-0.1,1.1H102.2z M99.4,118.6v1h2.8v-1H99.4z"/>
		<path fill="#999999" d="M104,122.6c1.4-1.2,2-2.1,2-2.9c0-0.5-0.3-0.9-0.8-0.9c-0.4,0-0.7,0.2-0.9,0.5l-0.3-0.3
			c0.4-0.4,0.7-0.6,1.3-0.6c0.8,0,1.3,0.5,1.3,1.3c0,0.9-0.7,1.8-1.8,2.8c0.2,0,0.5,0,0.7,0h1.3v0.4H104V122.6z"/>
		<path fill="#999999" d="M107.4,120.7c0-1.5,0.5-2.3,1.3-2.3c0.8,0,1.3,0.7,1.3,2.3c0,1.5-0.5,2.3-1.3,2.3
			C107.9,123,107.4,122.2,107.4,120.7z M109.6,120.7c0-1.3-0.3-1.9-0.9-1.9c-0.5,0-0.9,0.6-0.9,1.9c0,1.3,0.4,1.9,0.9,1.9
			C109.2,122.6,109.6,122,109.6,120.7z"/>
		<path fill="#999999" d="M115.3,118.3v4.9h-0.4v-0.4h-3v0.4h-0.4v-5H115.3z M111.9,118.7v1.7h3v-1.7H111.9z M114.9,122.5v-1.7h-3
			v1.7H114.9z"/>
	</g>
</g>
<g>
</g>
<g>
</g>
<g>
</g>
<g>
</g>
<g>
</g>
<g>
</g>
<g>
</g>
<g>
</g>
<g>
</g>
<g>
</g>
<g>
</g>
<g>
</g>
<g>
</g>
<g>
</g>
<g>
</g>
</svg>
