<?xml version="1.0" encoding="utf-8"?>
<!-- Generator: Adobe Illustrator 18.0.0, SVG Export Plug-In . SVG Version: 6.00 Build 0)  -->
<!DOCTYPE svg PUBLIC "-//W3C//DTD SVG 1.1//EN" "http://www.w3.org/Graphics/SVG/1.1/DTD/svg11.dtd">
<svg version="1.1" id="Layer_1" xmlns="http://www.w3.org/2000/svg" xmlns:xlink="http://www.w3.org/1999/xlink" x="0px" y="0px"
	 viewBox="0 0 69.8 70.4" enable-background="new 0 0 69.8 70.4" xml:space="preserve">
<g>
	<g>
		<rect x="0" y="68.6" fill="#573392" width="68.7" height="1.8"/>
		<polygon fill="#573392" points="61.6,69.5 59.8,69.5 59.8,48.2 21.3,48.2 21.3,43.7 8.8,43.7 8.8,69.5 7.1,69.5 7.1,41.9 
			23.1,41.9 23.1,46.5 61.6,46.5 		"/>
		<rect x="11.1" y="45.9" fill="#573392" width="1.8" height="2"/>
		<g>
			<rect x="11.1" y="51.2" fill="#573392" width="1.8" height="2"/>
			<rect x="16" y="51.2" fill="#573392" width="1.8" height="2"/>
			<rect x="21" y="51.2" fill="#573392" width="1.8" height="2"/>
			<rect x="25.9" y="51.2" fill="#573392" width="1.8" height="2"/>
			<rect x="30.9" y="51.2" fill="#573392" width="1.8" height="2"/>
			<rect x="35.8" y="51.2" fill="#573392" width="1.8" height="2"/>
			<rect x="40.8" y="51.2" fill="#573392" width="1.8" height="2"/>
			<rect x="45.7" y="51.2" fill="#573392" width="1.8" height="2"/>
			<rect x="50.7" y="51.2" fill="#573392" width="1.8" height="2"/>
			<rect x="55.6" y="51.2" fill="#573392" width="1.8" height="2"/>
		</g>
		<g>
			<rect x="11.1" y="55.4" fill="#573392" width="1.8" height="2"/>
			<rect x="16" y="55.4" fill="#573392" width="1.8" height="2"/>
			<rect x="21" y="55.4" fill="#573392" width="1.8" height="2"/>
			<rect x="25.9" y="55.4" fill="#573392" width="1.8" height="2"/>
			<rect x="30.9" y="55.4" fill="#573392" width="1.8" height="2"/>
			<rect x="35.8" y="55.4" fill="#573392" width="1.8" height="2"/>
			<rect x="40.8" y="55.4" fill="#573392" width="1.8" height="2"/>
			<rect x="45.7" y="55.4" fill="#573392" width="1.8" height="2"/>
			<rect x="50.7" y="55.4" fill="#573392" width="1.8" height="2"/>
			<rect x="55.6" y="55.4" fill="#573392" width="1.8" height="2"/>
		</g>
		<g>
			<rect x="11.1" y="59.6" fill="#573392" width="1.8" height="2"/>
			<rect x="16" y="59.6" fill="#573392" width="1.8" height="2"/>
			<rect x="21" y="59.6" fill="#573392" width="1.8" height="2"/>
			<rect x="25.9" y="59.6" fill="#573392" width="1.8" height="2"/>
			<rect x="30.9" y="59.6" fill="#573392" width="1.8" height="2"/>
			<rect x="35.8" y="59.6" fill="#573392" width="1.8" height="2"/>
			<rect x="40.8" y="59.6" fill="#573392" width="1.8" height="2"/>
			<rect x="45.7" y="59.6" fill="#573392" width="1.8" height="2"/>
			<rect x="50.7" y="59.6" fill="#573392" width="1.8" height="2"/>
			<rect x="55.6" y="59.6" fill="#573392" width="1.8" height="2"/>
		</g>
		<rect x="15.8" y="45.9" fill="#573392" width="1.8" height="2"/>
		<rect x="13.4" y="31.6" fill="#573392" width="1.8" height="11"/>
		<polyline fill="#573392" points="14.1,32.6 23.4,35.2 14.7,38.3 		"/>
	</g>
	<g>
		
			<rect x="34.2" y="39.1" transform="matrix(0.8925 0.4511 -0.4511 0.8925 21.5107 -11.2603)" fill="#573392" width="0.4" height="0.9"/>
		<path fill="#573392" d="M35.6,37.6l-0.4-0.2l0.8-1.6l0.4,0.2L35.6,37.6z M37.2,34.4l-0.4-0.2l0.8-1.6l0.4,0.2L37.2,34.4z
			 M38.8,31.2L38.4,31l0.8-1.6l0.4,0.2L38.8,31.2z M40.4,28L40,27.8l0.8-1.6l0.4,0.2L40.4,28z M42,24.8l-0.4-0.2l0.8-1.6l0.4,0.2
			L42,24.8z"/>
		
			<rect x="43.4" y="20.7" transform="matrix(0.8925 0.4511 -0.4511 0.8925 14.234 -17.404)" fill="#573392" width="0.4" height="0.9"/>
	</g>
	<path fill="#573392" d="M38.8,41.7l-0.1-0.4l1.7-0.5l0.1,0.4L38.8,41.7z M42.1,40.6L42,40.2l1.7-0.5l0.1,0.4L42.1,40.6z M45.5,39.6
		l-0.1-0.4l1.7-0.5l0.1,0.4L45.5,39.6z M48.8,38.6l-0.1-0.4l1.7-0.5l0.1,0.4L48.8,38.6z M52.2,37.5l-0.1-0.4l1.7-0.5l0.1,0.4
		L52.2,37.5z M55.5,36.5l-0.1-0.4l1.7-0.5l0.1,0.4L55.5,36.5z M58.9,35.5L58.8,35l1.7-0.5l0.1,0.4L58.9,35.5z"/>
	<path fill="#573392" d="M31.4,37.9l-0.6-1.7l0.4-0.1l0.6,1.7L31.4,37.9z M30.2,34.6L29.6,33l0.4-0.1l0.6,1.7L30.2,34.6z M29.1,31.3
		l-0.6-1.7l0.4-0.1l0.6,1.7L29.1,31.3z M27.9,28l-0.6-1.7l0.4-0.1l0.6,1.7L27.9,28z M26.7,24.7L26.2,23l0.4-0.1l0.6,1.7L26.7,24.7z
		 M25.6,21.4L25,19.7l0.4-0.1l0.6,1.7L25.6,21.4z M24.4,18.1l-0.6-1.7l0.4-0.1l0.6,1.7L24.4,18.1z"/>
	<g>
		<path fill="#573392" d="M24.5,3.6c-0.5-0.5-1-0.7-1.6-0.7c-0.7,0-1.1,0.3-1.2,1c0,1.5,3.8,1.3,3.7,4.1c0,1.4-0.8,2.4-2.2,2.6
			l0,1.4l-1.2,0l0-1.4c-0.8-0.1-1.8-0.5-2.5-1.1l0.8-1.2c0.7,0.5,1.3,0.9,2,0.9c0.9,0,1.3-0.4,1.3-1.1C23.8,6.4,20,6.6,20,4
			c0-1.4,0.8-2.3,2.1-2.5l0-1.4l1.2,0l0,1.4c0.9,0.1,1.5,0.6,2.1,1.1L24.5,3.6z"/>
	</g>
	<g>
		<path fill="#573392" d="M49.3,8.8c-0.5-0.5-1-0.7-1.6-0.7c-0.7,0-1.1,0.3-1.2,1c0,1.5,3.8,1.3,3.7,4.1c0,1.4-0.8,2.4-2.2,2.6
			l0,1.4l-1.2,0l0-1.4c-0.8-0.1-1.8-0.5-2.5-1.1l0.8-1.2c0.7,0.5,1.3,0.9,2,0.9c0.9,0,1.3-0.4,1.3-1.1c0-1.7-3.8-1.6-3.7-4.2
			c0-1.4,0.8-2.3,2.1-2.5l0-1.4l1.2,0l0,1.4c0.9,0.1,1.5,0.6,2.1,1.1L49.3,8.8z"/>
	</g>
	<g>
		<path fill="#573392" d="M68.8,30.2c-0.5-0.5-1-0.7-1.6-0.7c-0.7,0-1.1,0.3-1.2,1c0,1.5,3.8,1.3,3.7,4.1c0,1.4-0.8,2.4-2.2,2.6
			l0,1.4l-1.2,0l0-1.4c-0.8-0.1-1.8-0.5-2.5-1.1l0.8-1.2c0.7,0.5,1.3,0.9,2,0.9c0.9,0,1.3-0.4,1.3-1.1c0-1.7-3.8-1.6-3.7-4.2
			c0-1.4,0.8-2.3,2.1-2.5l0-1.4l1.2,0l0,1.4c0.9,0.1,1.5,0.6,2.1,1.1L68.8,30.2z"/>
	</g>
	<polygon fill="#573392" points="23.1,17.8 22.7,17.7 23.1,14.3 25.9,16.4 25.7,16.7 23.5,15.1 	"/>
	<polygon fill="#573392" points="44.3,22.5 44.2,19.8 41.8,21.2 41.6,20.8 44.6,19.1 44.7,22.5 	"/>
	<polygon fill="#573392" points="60.4,36.5 60,36.2 61.9,34.3 59.3,33.5 59.4,33.1 62.7,34 	"/>
</g>
<g>
</g>
<g>
</g>
<g>
</g>
<g>
</g>
<g>
</g>
<g>
</g>
<g>
</g>
<g>
</g>
<g>
</g>
<g>
</g>
<g>
</g>
<g>
</g>
<g>
</g>
<g>
</g>
<g>
</g>
</svg>
