<?xml version="1.0" encoding="utf-8"?>
<!-- Generator: Adobe Illustrator 18.0.0, SVG Export Plug-In . SVG Version: 6.00 Build 0)  -->
<!DOCTYPE svg PUBLIC "-//W3C//DTD SVG 1.1//EN" "http://www.w3.org/Graphics/SVG/1.1/DTD/svg11.dtd">
<svg version="1.1" id="Layer_1" xmlns="http://www.w3.org/2000/svg" xmlns:xlink="http://www.w3.org/1999/xlink" x="0px" y="0px"
	 viewBox="0 0 1116.2 808.9" enable-background="new 0 0 1116.2 808.9" xml:space="preserve">
<g>
	<g>
		<path fill="#2368B5" d="M699.4,181.3L699.4,181.3L699.4,181.3c-3.3,1.8-6,4.5-7.9,7.9l0,0l0,0c-1.8-3.3-4.5-6-7.9-7.9l0,0l0,0
			c3.3-1.8,6-4.5,7.9-7.9v0v0C693.3,176.7,696.1,179.5,699.4,181.3z"/>
		<rect x="691.4" y="168.6" fill="#2368B5" width="0.3" height="25.3"/>
		<rect x="678.9" y="181.1" fill="#2368B5" width="25.3" height="0.3"/>
	</g>
	<g>
		<path fill="#2368B5" d="M879.7,234L879.7,234L879.7,234c-2.4,1.3-4.4,3.3-5.7,5.7l0,0l0,0c-1.3-2.4-3.3-4.4-5.7-5.7l0,0l0,0
			c2.4-1.3,4.4-3.3,5.7-5.7l0,0l0,0C875.3,230.8,877.3,232.7,879.7,234z"/>
		<rect x="873.9" y="224.9" fill="#2368B5" width="0.3" height="18.3"/>
		<rect x="864.9" y="233.9" fill="#2368B5" width="18.3" height="0.3"/>
	</g>
	<g>
		<path fill="#2368B5" d="M847.3,383L847.3,383L847.3,383c-2.4,1.3-4.4,3.3-5.7,5.7l0,0l0,0c-1.3-2.4-3.3-4.4-5.7-5.7l0,0l0,0
			c2.4-1.3,4.4-3.3,5.7-5.7l0,0l0,0C842.9,379.7,844.9,381.7,847.3,383z"/>
		<rect x="841.5" y="373.8" fill="#2368B5" width="0.3" height="18.3"/>
		<rect x="832.4" y="382.9" fill="#2368B5" width="18.3" height="0.3"/>
	</g>
	<g>
		<path fill="#2368B5" d="M68.6,289.5L68.6,289.5L68.6,289.5c-1.9,1.1-3.5,2.6-4.6,4.6l0,0h0c-1.1-1.9-2.6-3.5-4.6-4.6h0h0
			c1.9-1.1,3.5-2.6,4.6-4.6h0l0,0C65.1,286.8,66.7,288.4,68.6,289.5z"/>
		<rect x="63.9" y="282.1" fill="#2368B5" width="0.3" height="14.7"/>
		<rect x="56.7" y="289.3" fill="#2368B5" width="14.7" height="0.3"/>
	</g>
	<g>
		<path fill="#FFFFFF" d="M417.9,558.3L417.9,558.3L417.9,558.3c-1.9,1.1-3.5,2.6-4.6,4.6l0,0l0,0c-1.1-1.9-2.6-3.5-4.6-4.6l0,0l0,0
			c1.9-1.1,3.5-2.6,4.6-4.6l0,0l0,0C414.4,555.6,416,557.2,417.9,558.3z"/>
		<line fill="none" stroke="#FFFFFF" stroke-width="0.25" stroke-miterlimit="10" x1="413.3" y1="550.9" x2="413.3" y2="565.6"/>
		<line fill="none" stroke="#FFFFFF" stroke-width="0.25" stroke-miterlimit="10" x1="420.7" y1="558.3" x2="406" y2="558.3"/>
	</g>
	<g>
		<circle fill="#9C8FC4" cx="932" cy="87.6" r="3.7"/>
		<circle fill="#9C8FC4" cx="1030.9" cy="124.1" r="2.2"/>
		<circle fill="#9C8FC4" cx="1003.8" cy="54.6" r="5.6"/>
		<circle fill="#9C8FC4" cx="966.3" cy="113.2" r="1.4"/>
		<circle fill="#9C8FC4" cx="1062.1" cy="26.4" r="1.4"/>
		<circle fill="#9C8FC4" cx="949.2" cy="146.5" r="1.4"/>
		<circle fill="#9C8FC4" cx="911.1" cy="148.3" r="1.4"/>
		<circle fill="#9C8FC4" cx="857.3" cy="84.4" r="1.4"/>
		<circle fill="#9C8FC4" cx="855" cy="154.7" r="1.4"/>
	</g>
	<circle fill="#2368B5" cx="21.4" cy="59.8" r="21.4"/>
	<circle fill="#2368B5" cx="667.5" cy="783.4" r="11.6"/>
	<radialGradient id="SVGID_1_" cx="255.5918" cy="44.7343" r="51.872" gradientUnits="userSpaceOnUse">
		<stop  offset="0" style="stop-color:#231F20;stop-opacity:0"/>
		<stop  offset="1" style="stop-color:#FFFFFF"/>
	</radialGradient>
	<circle opacity="0.2" fill="url(#SVGID_1_)" cx="221.7" cy="17.4" r="17.4"/>
	<circle fill="#007A6D" cx="472.6" cy="325.1" r="55"/>
	<g>
		<path fill="none" stroke="#032360" stroke-miterlimit="10" d="M179.2,336.6c-3.8-7-2.6-49.7,2.2-62.9"/>
		<path fill="none" stroke="#032360" stroke-miterlimit="10" d="M387.3,602.3c-49.8-15.1-94-43-128.7-80"/>
		<path fill="none" stroke="#032360" stroke-miterlimit="10" d="M684.4,524.1c-33,34.6-74.4,61.2-121,76.4"/>
		<path fill="none" stroke="#032360" stroke-miterlimit="10" d="M765.3,312.5c0.1,3.1,0.1,6.2,0.1,9.3c0,23.3-2.7,46-7.9,67.7"/>
		<path fill="none" stroke="#032360" stroke-miterlimit="10" d="M586.4,51.7c51.5,21.8,95.5,57.9,127,103.3"/>
		<path fill="none" stroke="#032360" stroke-miterlimit="10" d="M263.3,116.4c39.6-40.3,90.8-69.2,148.2-81.4"/>
	</g>
	<circle fill="none" stroke="#032360" stroke-miterlimit="10" cx="472.6" cy="325.1" r="115.8"/>
	<g>
		<g>
			<g>
				<path fill="#BCBEC0" d="M767.6,779.6c1-2.4,1.9-4.7,2.8-7.1c0.9-2.4,1.8-4.7,2.7-7.1c1.7-4.8,3.4-9.6,4.9-14.4
					c1.6-4.8,3-9.7,4.3-14.6c0.7-2.4,1.3-4.9,1.9-7.4c0.6-2.5,1.2-4.9,1.8-7.4c-0.5,2.5-1,5-1.6,7.4c-0.6,2.5-1.2,4.9-1.8,7.4
					c-1.3,4.9-2.7,9.8-4.2,14.6c-1.6,4.8-3.2,9.6-5,14.4c-0.9,2.4-1.8,4.7-2.8,7.1C769.6,774.9,768.6,777.3,767.6,779.6z"/>
			</g>
			
				<linearGradient id="SVGID_2_" gradientUnits="userSpaceOnUse" x1="255.7071" y1="-806.5135" x2="255.7071" y2="-737.704" gradientTransform="matrix(-0.3026 0.9531 0.9531 0.3026 1605.7139 745.1785)">
				<stop  offset="0" style="stop-color:#FFF33B;stop-opacity:0"/>
				<stop  offset="1.385293e-002" style="stop-color:#FEEF3B;stop-opacity:2.072120e-002"/>
				<stop  offset="0.1383" style="stop-color:#FACD3D;stop-opacity:0.2069"/>
				<stop  offset="0.2654" style="stop-color:#F7B23E;stop-opacity:0.397"/>
				<stop  offset="0.3946" style="stop-color:#F59F3E;stop-opacity:0.5902"/>
				<stop  offset="0.5273" style="stop-color:#F3943F;stop-opacity:0.7887"/>
				<stop  offset="0.6685" style="stop-color:#F3903F"/>
				<stop  offset="0.8876" style="stop-color:#ED683C"/>
				<stop  offset="1" style="stop-color:#E93E3A"/>
			</linearGradient>
			<path fill="url(#SVGID_2_)" d="M783.6,728.3c9-1.1,20.5,6.1,23.2,11.9l-6.4,0.8c7.7,3,14.4,8.1,19.9,15.3l-8.3-0.4
				c4.6,2.3,7.1,7.8,18.1,12.4c-12.4-3.8-18.5,1.6-25.1,1l6.8,5c-8.5,0.6-16.2,0-22.9-2.2l10.3,6.6c-12.7,0.6-25.9-3-29.7-5.9
				l-14.5-25.5L783.6,728.3z"/>
			<path fill="#E6E7E8" d="M755.4,805.2l6.8-21.5c1.3,0.1,2.7,0.2,4,0.2l1.4-4.4l2.4,0.8c4.2-8,17.2-48.9,18.4-57.9l-2.4-0.8
				l1.4-4.4c-1.1-0.7-2.3-1.5-3.4-2.2l6.8-21.5l-46.8,5.7c-29.5-7.1-60.9-6.9-80.2-2.5l-10.3,32.5c13.3,14.7,38.7,33,67,44.2
				L755.4,805.2z"/>
			
				<linearGradient id="SVGID_3_" gradientUnits="userSpaceOnUse" x1="224.3695" y1="-848.6514" x2="257.607" y2="-848.6514" gradientTransform="matrix(-0.3026 0.9531 0.9531 0.3026 1605.7139 745.1785)">
				<stop  offset="0" style="stop-color:#FFFFFF"/>
				<stop  offset="1" style="stop-color:#231F20"/>
			</linearGradient>
			<path opacity="0.6" fill="url(#SVGID_3_)" d="M658.4,713l122,38.7l8-29.3l-2.4-0.8l1.4-4.4l-3.4-2.2l-40-15.7
				c0,0-46.2-10.9-80.2-2.5L658.4,713z"/>
			<path fill="#A7A9AC" d="M724.3,733.7c3.3-10.3-2.7-21.4-13.4-24.8c-10.7-3.4-22,2.2-25.3,12.5"/>
			<path fill="#BCBEC0" d="M685.6,721.4c-3.3,10.3,2.7,21.4,13.4,24.8c10.7,3.4,22-2.2,25.3-12.5"/>
			<polygon fill="#BCBEC0" points="744,699.4 784,715.1 790.8,693.7 			"/>
			<polygon fill="#BCBEC0" points="720.5,773.6 755.4,805.2 762.2,783.8 			"/>
			<path fill="#414042" d="M663.8,696.8l-22.5,7.4c-2.5,0.8-3.5,3.9-1.9,6l14.1,19.1L663.8,696.8z"/>
			<path fill="#BCBEC0" d="M756.3,751.2c14,4.4,27.4,1.4,27.4,1.4s-9.2-10.2-23.2-14.7c-14-4.4-26.2-5.1-27.4-1.4
				C731.9,740.2,742.3,746.7,756.3,751.2z"/>
		</g>
		<g>
			<g>
				<path fill="#FFEBCA" d="M778,635.9l-12.2-10.6L741.5,657l23,10.6C764.5,667.5,778.3,635.3,778,635.9z"/>
				<polygon fill="#1B75BC" points="761.2,636.3 755.9,645.8 752.4,642.2 				"/>
				<path fill="#6D6E71" d="M765.8,625.3l-1.9-4.5c0,0,14.1,4.9,15.9,9c2.2,5-5,13.7-5,13.7s1.4-2.8,0.2-3.6
					c-0.7-0.5-1.9,0.6-1.9,0.6l1.4-7.3L765.8,625.3z"/>
				
					<ellipse transform="matrix(0.7382 0.6746 -0.6746 0.7382 630.9263 -350.108)" fill="#6D6E71" cx="766.5" cy="637.8" rx="1.1" ry="1.6"/>
				
					<ellipse transform="matrix(0.7382 0.6746 -0.6746 0.7382 626.9191 -347.1392)" fill="#6D6E71" cx="760.7" cy="634.1" rx="1.1" ry="1.6"/>
			</g>
			<polygon fill="#1B75BC" points="743.2,654.8 720.1,692.5 762.1,703.3 767,661.8 			"/>
			<path fill="#1B75BC" d="M743.2,654.8c-18,0.6-24.6,9.5-25.4,16.9c-0.7,6.9,8.4,12.3,13.4,13.5l1.2-1.7c0,0-12.4-4-9.8-10.3
				c2.9-7.1,13.5-6.6,13.5-6.6L743.2,654.8z"/>
			<path fill="#1B75BC" d="M767,661.8c12.9,12.6,11.6,23.7,7.2,29.6c-4.1,5.6-14.5,3.4-19,0.9l0.3-2.1c0,0,11.8,5.5,14.2-0.9
				c2.7-7.1-5.4-14-5.4-14L767,661.8z"/>
			<polygon fill="#58595B" points="738.9,671.3 747.6,676.5 756.3,675 750.9,693.2 742.5,693.9 733.8,687.6 			"/>
			<polyline fill="#FFEBCA" points="733.4,683.5 738.7,685.3 737.5,687.1 730.5,685 			"/>
			<polygon fill="#FFEBCA" points="754.7,690.3 749.7,688.3 749.2,689.5 756.1,692.6 			"/>
			<path fill="#808285" d="M747.6,676.5c-0.3-0.4-7.4-6.7-7.4-6.7l-0.4,2.1L747.6,676.5z"/>
			<polygon fill="#939598" points="747.6,676.5 742.9,667.9 741.6,671 			"/>
			<path fill="#1B75BC" d="M720.1,692.5c-7,5.3-11,12-10.4,17.3s5.7,14.7,5.7,14.7s6.2-1.5,5.7-2.1s-4.1-15.9,0.2-18.9
				c4.4-3,11.9-4.4,20.4-1.1c8.5,3.3,8.6,10.2,6.9,14.7c-1.8,4.6-5.2,8.9-5.2,8.9l4.7,1.9c0,0,14.2-11.8,14.5-17.7
				c0.2-5.9-0.6-6.8-0.6-6.8L720.1,692.5z"/>
			<polygon fill="#231F20" points="715.4,724.5 712.7,732.8 721.4,725.5 721.2,722.4 			"/>
			<polygon fill="#231F20" points="743.5,726 745.3,734.8 748.2,727.9 			"/>
			<polyline fill="#939598" points="747.6,676.5 752.8,670.2 751,674.8 			"/>
			<polygon fill="#808285" points="755,675.2 756,672.5 747.6,676.5 			"/>
			<polygon fill="#414042" points="747.6,676.5 742.5,693.9 736.3,689.4 			"/>
			<g>
				<path fill="#939598" d="M747.6,676.5c-0.8,2.9-1.7,5.8-2.5,8.7c-0.9,2.9-1.8,5.8-2.7,8.6c0.8-2.9,1.7-5.8,2.5-8.7
					C745.7,682.2,746.6,679.3,747.6,676.5z"/>
			</g>
			<polygon fill="#73B564" points="743.8,670.3 744.4,668.9 744.8,669.5 744,670.5 			"/>
			<polygon fill="#F7A823" points="744.1,671.3 744.7,669.9 745.1,670.5 744.3,671.5 			"/>
			<polygon fill="#2368B5" points="744.6,672.2 745.3,670.9 745.6,671.5 744.8,672.4 			"/>
			<polygon fill="#F7A823" points="751.4,672.2 751.4,671 751,671.5 751.1,672.6 			"/>
		</g>
	</g>
	<path fill="none" stroke="#032360" stroke-miterlimit="10" stroke-dasharray="12" d="M1116,286.5c-39.2,18.4-88.6,37.6-130.9,76.8
		c-83.7,77.4-58.3,156-20.3,183.9c38,27.9,58.3-43.1,17.7-60.8c-40.6-17.7-76,58.3-43.1,106.5c33,48.2,106.5,101.4,91.3,180
		s-162.2,2.5-162.2,2.5"/>
	<circle fill="#007A6D" cx="431.7" cy="219.2" r="21.7"/>
</g>
<g>
</g>
<g>
</g>
<g>
</g>
<g>
</g>
<g>
</g>
<g>
</g>
<g>
</g>
<g>
</g>
<g>
</g>
<g>
</g>
<g>
</g>
<g>
</g>
<g>
</g>
<g>
</g>
<g>
</g>
</svg>
