<?xml version="1.0" encoding="utf-8"?>
<!-- Generator: Adobe Illustrator 18.0.0, SVG Export Plug-In . SVG Version: 6.00 Build 0)  -->
<!DOCTYPE svg PUBLIC "-//W3C//DTD SVG 1.1//EN" "http://www.w3.org/Graphics/SVG/1.1/DTD/svg11.dtd">
<svg version="1.1" id="Layer_1" xmlns="http://www.w3.org/2000/svg" xmlns:xlink="http://www.w3.org/1999/xlink" x="0px" y="0px"
	 viewBox="0 0 841.9 428.6" enable-background="new 0 0 841.9 428.6" xml:space="preserve">
<g>
	<g>
		<g>
			<path fill="#231F20" d="M54.4,355.8c0,0.4,0,0.7,0,1.1c0.5,2.8,1.2,4.4,2.8,5.9c-0.3,0.2-0.5,0.5-0.7,0.8
				c-1.2-1.2-1.9-2.5-2.4-4.2c-0.4,1.4-1,3-2.3,4.2c-0.2-0.3-0.5-0.6-0.7-0.8l0,0c-0.3,0-0.7,0-1.1,0h-3.1c-1.5,0-2-0.5-2-2.1v-8.4
				h-0.5v-0.9h6.8v0.9h-5.4v8.4c0,0.8,0.3,1.1,1,1.1h3.2c0.4,0,1,0,1.3-0.1c0,0.2,0.1,0.5,0.1,0.7c2-2.2,2.1-4.9,2.1-6.8v-0.9h1
				V355.8z M46.3,357.5h2.1v3.5h-2.1V357.5z M50.4,356.5h-3.6v-3.2h3.6V356.5z M46.9,360.3h0.9v-2.2h-0.9V360.3z M49.5,354.1h-2v1.8
				h2V354.1z M51.1,361h-2.2v-3.5h2.2V361z M50.4,358.2h-1v2.1h1V358.2z M52.9,354c-0.3,1.1-0.7,2.1-1.2,2.8
				c-0.2-0.2-0.6-0.5-0.8-0.6c0.9-1.3,1.5-3.3,1.8-5.5l1,0.2c-0.1,0.7-0.2,1.4-0.4,2.1h3.3l0.2-0.1l0.7,0.2c-0.3,1.3-0.6,2.7-1,3.6
				l-0.8-0.3c0.2-0.7,0.5-1.7,0.7-2.6H52.9z"/>
			<path fill="#231F20" d="M69.9,362.4c0.6,0,0.6-0.4,0.7-2.5c0.2,0.2,0.7,0.4,1,0.5c-0.1,2.4-0.4,3.1-1.6,3.1h-2
				c-1.3,0-1.6-0.4-1.6-1.6v-5h-2.6c-0.3,3-0.9,5.5-4.2,6.8c-0.1-0.3-0.4-0.6-0.7-0.8c3-1.1,3.5-3.3,3.7-6H59v-1h12.3v1h-4v5
				c0,0.5,0.1,0.6,0.7,0.6H69.9z M70.2,352.9h-9.9v-1h9.9V352.9z"/>
			<path fill="#231F20" d="M83.4,362c0.8,0,1.8-0.1,2.3-0.2c0,0.3,0.1,0.8,0.2,1c-0.4,0.1-1.4,0.1-2.5,0.1h-6.2
				c-2.2,0-3.2-0.7-3.2-2.7v-7.9h-0.6v-0.9h11.8v0.9H75v7.9c0,1.2,0.5,1.7,2.1,1.7H83.4z M76.2,357.3h3.7v3.6h-3.7V357.3z M77,360.2
				h1.9v-2.1H77V360.2z M82.9,356.4h-5.2v-3.1h5.2V356.4z M81.9,354h-3.2v1.6h3.2V354z M84.5,360.9h-3.8v-3.6h3.8V360.9z
				 M83.6,358.1h-2v2.1h2V358.1z"/>
		</g>
		<circle fill="#7F58A5" cx="22.5" cy="357.7" r="10.3"/>
	</g>
	<g>
		<g>
			<path fill="#231F20" d="M177.2,356.9v0.9h-5.9c0,0.4-0.1,0.7-0.2,1.1h5.8v0.9h-6.1c-0.7,1.9-2.2,3.1-5.9,3.8
				c-0.1-0.3-0.4-0.7-0.5-0.9c3.2-0.5,4.6-1.4,5.3-2.8H165v-0.9h5c0.1-0.3,0.1-0.7,0.2-1.1h-5.5v-0.9h5.6v-1.2H166v-0.9h4.4v-1.1
				h-5.1v-0.9h3c-0.2-0.5-0.7-1.1-1.1-1.6l0.9-0.4c0.5,0.5,1,1.3,1.2,1.8l-0.5,0.2h3.7c0.4-0.6,0.9-1.4,1.2-2l1.1,0.3
				c-0.3,0.6-0.8,1.2-1.1,1.7h3v0.9h-5.2v1.1h4.5v0.9h-4.5v1.2H177.2z M171.4,360c1.9,0.7,4.5,1.9,5.7,2.8l-0.5,0.9
				c-1.2-0.9-3.8-2.1-5.7-2.9L171.4,360z"/>
			<path fill="#231F20" d="M191.1,351.4v12.2h-1V363h-9.7v0.6h-1v-12.2H191.1z M190.1,362.1v-9.7h-9.7v9.7H190.1z M185.3,359.9
				c-1.5,0.3-3,0.6-4.1,0.8l-0.1-0.8c1.1-0.2,2.6-0.5,4.2-0.7L185.3,359.9z M188.8,355.8c-0.4,1.3-0.9,2.5-1.6,3.4
				c0.3,0.7,0.7,1.2,1.1,1.3c0.2,0.1,0.3-0.5,0.4-1.4c0.2,0.2,0.5,0.4,0.7,0.5c-0.2,1.5-0.7,2.1-1.4,1.8c-0.6-0.1-1.1-0.6-1.5-1.4
				c-0.5,0.6-1.2,1.2-1.9,1.6c-0.1-0.2-0.4-0.5-0.6-0.7c0.8-0.5,1.5-1.1,2.1-1.8c-0.4-1.1-0.6-2.6-0.8-4.2h-4.3v-0.8h4.2
				c0-0.5-0.1-1-0.1-1.5h0.9c0,0.5,0.1,1,0.1,1.5h3.1v0.8h-3c0.1,1.2,0.3,2.3,0.5,3.2c0.5-0.8,0.8-1.6,1-2.6L188.8,355.8z
				 M184.8,355.9v2.7h-3.1v-2.7H184.8z M184.1,356.6h-1.6v1.4h1.6V356.6z M188.6,354.1c-0.3-0.3-1-0.7-1.5-1l0.5-0.5
				c0.5,0.3,1.2,0.6,1.5,1L188.6,354.1z"/>
		</g>
		<circle fill="#87CF65" cx="142.6" cy="357.7" r="10.3"/>
	</g>
	<g>
		<g>
			<g>
				<path fill="#231F20" d="M286,362.1v1h-12.5v-1h4.2v-2.5h-3.2v-4.7h3.2v-2.2h-3.8v-1h11.8v1h-3.9v2.2h3.2v4.7h-0.5v0h-2.7v2.5
					H286z M278.6,358.6v3.4h2.1v-3.4h3.2v-2.9h-3.2v-3.1h-2.1v3.1h-3.2v2.9H278.6z"/>
				<path fill="#231F20" d="M295.1,355.6c1,3.3,2.8,5.9,5.6,7.1c-0.3,0.2-0.6,0.7-0.8,1c-2.8-1.4-4.6-4-5.7-7.4
					c-0.3,1.4-0.8,2.9-1.7,4.1l0.4-0.3c1,0.8,2.2,1.9,2.7,2.7l-0.9,0.7c-0.5-0.7-1.6-1.9-2.6-2.7c-0.9,1.1-2.1,2.1-3.7,2.8
					c-0.2-0.3-0.5-0.6-0.8-0.9c3.7-1.6,5.1-4.4,5.6-7.2H288v-1.1h5.4c0.2-1.4,0.1-2.6,0.2-3.7h1.1c0,1.1,0,2.4-0.2,3.7h5.8v1.1
					H295.1z"/>
				<path fill="#231F20" d="M302.8,358.2c0-2.8,0.8-5,2.1-7.1l0.8,0.4c-1.2,2-1.8,4.4-1.8,6.8c0,2.4,0.6,4.8,1.8,6.8l-0.8,0.4
					C303.6,363.2,302.8,360.9,302.8,358.2z"/>
				<path fill="#231F20" d="M311.7,351.7c-0.5,1.2-1,2.5-1.5,3.6c1.1,1.2,1.4,2.2,1.4,3c0,0.8-0.2,1.4-0.6,1.6
					c-0.2,0.1-0.5,0.2-0.8,0.3c-0.3,0-0.7,0-1,0c0-0.3-0.1-0.7-0.2-0.9c0.3,0,0.6,0,0.9,0c0.2,0,0.4,0,0.5-0.1
					c0.2-0.2,0.3-0.5,0.3-1c0-0.8-0.3-1.7-1.4-2.8c0.4-1,0.9-2.2,1.2-3.2h-1.8v11.3h-0.9v-12.2h3.1l0.2-0.1L311.7,351.7z
					 M314.2,359.7c-0.5,1.1-1.3,2.3-2.1,3.1c-0.2-0.2-0.5-0.4-0.8-0.6c0.7-0.7,1.5-1.8,1.9-2.8L314.2,359.7z M316.8,351
					c-0.1,0.2-0.2,0.4-0.3,0.5c1.2,1.5,2.5,2.4,3.8,3.1c-0.2,0.2-0.6,0.5-0.7,0.8c-1.3-0.8-2.4-1.7-3.6-3.2c-1,1.3-2.4,2.5-3.8,3.3
					c-0.2-0.2-0.4-0.5-0.7-0.7c1.8-0.9,3.5-2.5,4.4-4.2L316.8,351z M316.5,358.7v3.8c0,0.6-0.1,0.9-0.5,1c-0.4,0.2-1.1,0.2-2.1,0.2
					c-0.1-0.3-0.2-0.7-0.4-1c0.8,0,1.5,0,1.7,0c0.2,0,0.3-0.1,0.3-0.3v-3.8h-3.7v-1h3.7V356h-2.4v-0.9h5.5v0.9h-2.1v1.7h3.4v1H316.5
					z M318.1,359.3c0.8,0.9,1.6,2.1,2.1,2.9l-0.8,0.5c-0.4-0.8-1.3-2-2-2.9L318.1,359.3z"/>
				<path fill="#231F20" d="M332.7,351.7v11.7h-1.1v-0.9h-7v0.9h-1.1v-11.7H332.7z M324.6,352.8v3.8h7v-3.8H324.6z M331.6,361.5
					v-3.9h-7v3.9H331.6z"/>
				<path fill="#231F20" d="M344.2,354.8c1,2.4,2.8,4.6,4.7,5.7c-0.3,0.2-0.6,0.6-0.8,0.9c-2.1-1.3-3.9-3.8-5-6.6H343v5.2h3.3v1H343
					v2.6h-1.1V361h-3.3v-1h3.3v-5.2h-0.2c-1.1,2.7-2.9,5.2-4.9,6.6c-0.2-0.3-0.5-0.6-0.7-0.8c1.9-1.1,3.6-3.4,4.6-5.8h-4.2v-1h5.5
					v-2.9h1.1v2.9h5.6v1H344.2z"/>
				<path fill="#231F20" d="M356.5,352.9l0.7,0.2c-0.7,5.5-2.9,8.8-5.9,10.5c-0.2-0.3-0.6-0.7-0.9-0.9c1.6-0.8,3-2.2,4-4
					c-0.5-0.7-1.4-1.6-2.3-2.4c-0.3,0.5-0.6,0.9-0.9,1.3c-0.2-0.2-0.6-0.5-0.9-0.7c1.3-1.4,2.2-3.8,2.7-6.2l1,0.2
					c-0.2,0.7-0.3,1.3-0.5,2h2.6L356.5,352.9z M353.3,353.9c-0.2,0.6-0.4,1.1-0.7,1.6c0.8,0.7,1.7,1.5,2.3,2.2
					c0.5-1.1,0.8-2.3,1-3.8H353.3z M359.9,355c1.2,1,2.7,2.3,3.5,3.2l-0.8,0.7c-0.6-0.8-1.9-2-3-2.9v7.6h-1.1v-12.8h1.1v4.5
					L359.9,355z"/>
				<path fill="#231F20" d="M364.9,364.9c1.2-2,1.8-4.4,1.8-6.8c0-2.4-0.6-4.8-1.8-6.8l0.8-0.4c1.3,2.1,2.1,4.4,2.1,7.1
					c0,2.8-0.8,5-2.1,7.1L364.9,364.9z"/>
			</g>
			<circle fill="#002A5E" cx="251.4" cy="357.7" r="10.3"/>
		</g>
	</g>
	<g>
		<rect x="0" y="0" fill="none" width="281.9" height="29.7"/>
		<path fill="#0C56AB" d="M4.3,7.3c-0.3,1.3-0.8,2.6-1.4,3.6c0.3,0.2,0.6,0.4,1.1,0.7c1,0.6,2.2,0.7,3.9,0.7c1.8,0,4-0.1,5.6-0.3
			c-0.1,0.3-0.3,0.8-0.3,1.1c-1,0.1-3.7,0.2-5.3,0.2c-1.8,0-3-0.2-4.1-0.8c-0.6-0.3-1.1-0.8-1.4-0.8c-0.3,0-0.8,0.9-1.2,1.8l-0.7-1
			c0.5-0.7,1-1.3,1.4-1.6C2.4,10.2,2.8,9,3.1,8H1.3c0.4-0.8,0.9-2,1.2-3.1H0.6V4h3.2C3.4,5,3,6.1,2.6,7.1h1.1l0.2,0L4.3,7.3z
			 M2.3,3.3C2.1,2.7,1.8,1.8,1.6,1.1l0.9-0.3C2.8,1.5,3.1,2.4,3.3,3L2.3,3.3z M5.9,5.9c-0.1,1.7-0.3,3.8-1,5.3
			c-0.2-0.2-0.6-0.4-0.8-0.5c0.8-1.8,0.9-4.2,0.9-6V1.2h7.6v9.1c0,0.6-0.1,0.8-0.5,1c-0.4,0.2-1,0.2-2,0.2c0-0.3-0.2-0.6-0.3-0.9
			c0.7,0,1.3,0,1.5,0c0.2,0,0.3-0.1,0.3-0.3V5.9H5.9z M5.9,2v1.1h2.4V2H5.9z M5.9,5.2h2.4V3.9H5.9v0.8V5.2z M10.5,6.8v3.2H6.8V6.8
			H10.5z M9.7,7.5H7.6v1.8h2.2V7.5z M11.6,2H9.1v1.1h2.4V2z M11.6,5.2V3.9H9.1v1.2H11.6z"/>
		<path fill="#0C56AB" d="M21.8,10h-6.8V9.1h1.4V3.4h-1.2V2.4h1.2V0.8h1v1.7h2.5V0.8h1v1.7h1v0.9h-1v5.7h1V10z M17.9,10.6
			c-0.5,1.1-1.3,2.1-2.1,2.8c-0.2-0.2-0.6-0.5-0.8-0.6c0.8-0.6,1.5-1.6,1.9-2.5L17.9,10.6z M17.2,3.4v1.2h2.5V3.4H17.2z M17.2,6.8
			h2.5V5.5h-2.5V6.8z M17.2,9.1h2.5V7.7h-2.5V9.1z M19.7,10.3c0.6,0.6,1.2,1.5,1.5,2.1l-0.8,0.5c-0.3-0.6-0.9-1.5-1.4-2.1L19.7,10.3
			z M27.3,12.1c0,0.6-0.2,0.9-0.5,1.1c-0.4,0.2-1.1,0.2-2.1,0.2c0-0.3-0.2-0.7-0.3-1c0.7,0,1.4,0,1.6,0c0.2,0,0.3-0.1,0.3-0.3V8.7
			h-3c-0.1,1.7-0.5,3.4-1.3,4.8c-0.2-0.2-0.6-0.5-0.8-0.6c1.2-1.8,1.3-4.5,1.3-6.5V1.3h4.8V12.1z M26.3,7.7V5.4h-2.9v0.9
			c0,0.4,0,0.9,0,1.4H26.3z M23.4,2.2v2.2h2.9V2.2H23.4z"/>
		<path fill="#0C56AB" d="M34.1,3.8h-4.7V3h4.7V3.8z M29.8,6.6h3.8v0.8h-3.8V6.6z M33.6,12.6h-2.9v0.6h-0.9V8.5h3.8V12.6z M33.6,5.6
			h-3.8V4.8h3.8V5.6z M30.7,9.4v2.3h2.1V9.4H30.7z M31.8,2.9c-0.2-0.5-0.6-1.3-1-1.9l0.8-0.4c0.4,0.6,0.8,1.3,1,1.8L31.8,2.9z
			 M41.7,12.1c0,0.5-0.1,0.8-0.5,1s-0.9,0.2-1.9,0.2c0-0.2-0.2-0.6-0.3-0.9c0.7,0,1.3,0,1.5,0c0.2,0,0.3-0.1,0.3-0.3V6.8h-5.1
			c0,2.1-0.2,4.8-1.3,6.6c-0.2-0.2-0.5-0.4-0.7-0.5c1-1.8,1.1-4.5,1.1-6.4V1.2h6.8V12.1z M35.7,2.2v1.5h2.1V2.2H35.7z M35.7,5.9h2.1
			V4.5h-2.1V5.9z M37.1,11v0.6h-0.8V7.7h3.7V11H37.1z M37.1,8.5v1.7h2.2V8.5H37.1z M40.8,2.2h-2.1v1.5h2.1V2.2z M40.8,5.9V4.5h-2.1
			v1.4H40.8z"/>
		<path fill="#0C56AB" d="M46.7,6.1c-0.7,0.7-1.6,1.4-2.4,1.8c-0.1-0.2-0.4-0.5-0.6-0.7c1-0.3,2-1.1,2.7-1.8h-2V3h2.4V2.3h-2.8V1.5
			h2.8V0.6h0.9v0.9h2.6v0.8h-2.6V3h2.3v2.4h-2.3v0.5L48,5.4c0.7,0.3,1.5,0.8,1.9,1.2l-0.5,0.6C49,6.9,48.2,6.4,47.6,6v1.8h-0.9V6.1z
			 M50.6,12.1h5.8V13H43.8v-0.9h2.3V9.8h1v2.3h2.5V9.1h-4.8V8.2h10.8v0.9h-4.9v1.1h4V11h-4V12.1z M45.2,4.7h1.5v-1h-1.5V4.7z
			 M47.6,3.7v1H49v-1H47.6z M55.4,3c-0.3,1.1-0.8,2-1.5,2.8c0.7,0.6,1.5,1.1,2.5,1.4C56.3,7.4,56,7.8,55.9,8c-1-0.4-1.9-0.9-2.5-1.6
			c-0.8,0.7-1.7,1.1-2.7,1.5c-0.1-0.2-0.4-0.6-0.6-0.7c1.1-0.4,2-0.8,2.7-1.5c-0.5-0.6-0.9-1.2-1.2-1.9c-0.3,0.4-0.5,0.7-0.8,1
			c-0.1-0.2-0.5-0.5-0.7-0.7c0.9-0.8,1.6-2.1,2-3.5l1,0.2c-0.1,0.5-0.3,0.9-0.5,1.3h3.9V3H55.4z M53.3,5.2c0.5-0.6,0.9-1.3,1.1-2.1
			L52,3C52.3,3.8,52.7,4.5,53.3,5.2z"/>
		<path fill="#0C56AB" d="M62.1,3.8c-0.4,0.7-0.8,1.3-1.2,1.9v7.7h-1V6.9c-0.4,0.5-0.9,0.9-1.3,1.3C58.5,8,58.2,7.5,58,7.3
			c1.2-1,2.5-2.4,3.2-3.9L62.1,3.8z M61.8,1c-0.8,1.2-2,2.5-3.1,3.3c-0.1-0.2-0.4-0.6-0.6-0.8c1-0.7,2.2-1.9,2.7-2.9L61.8,1z
			 M69.6,8c-0.6,1.3-1.5,2.4-2.7,3.3c1.1,0.5,2.4,1,3.7,1.2c-0.2,0.2-0.5,0.6-0.6,0.9c-1.5-0.3-2.8-0.8-4-1.5
			c-1.3,0.7-2.7,1.2-4.1,1.6c-0.1-0.3-0.3-0.7-0.5-0.9c1.3-0.2,2.6-0.7,3.7-1.2c-0.6-0.4-1.1-0.9-1.6-1.4c-0.4,0.3-0.7,0.6-1.1,0.9
			c-0.1-0.2-0.5-0.6-0.7-0.8c0.4-0.3,0.8-0.6,1.2-0.9c-0.3-0.3-0.5-0.7-0.7-1.1l0.9-0.3c0.1,0.3,0.3,0.5,0.4,0.7
			c0.5-0.5,1-1.1,1.3-1.8c-2,0.1-2.4,0.2-2.6,0.3c0-0.2-0.2-0.7-0.3-1c0.4-0.1,0.9-0.3,1.6-0.7c0.3-0.2,1-0.6,1.8-1.1
			c-2.1,0.1-2.5,0.2-2.7,0.3c0-0.2-0.2-0.7-0.3-1c0.3,0,0.6-0.2,0.9-0.5c0.4-0.3,1.6-1.3,2.5-2.3l1,0.4c-0.8,0.9-1.8,1.7-2.7,2.3
			l2.5-0.1c0.6-0.5,1.3-1,1.8-1.5l1,0.5c-1.7,1.4-3.4,2.5-5.1,3.4l4.4-0.2c-0.3-0.4-0.6-0.8-1-1.2l0.8-0.4c0.8,0.9,1.8,2.2,2.3,3
			l-0.9,0.5c-0.2-0.3-0.4-0.7-0.7-1.1L66,6.6c-0.2,0.4-0.4,0.8-0.7,1.1h3.4l0.2,0L69.6,8z M64.7,8.6c-0.2,0.2-0.3,0.4-0.5,0.6
			c0.5,0.6,1.1,1.1,1.8,1.5c0.9-0.6,1.6-1.3,2.1-2.1H64.7z"/>
		<path fill="#0C56AB" d="M79.3,1c1.3,1.9,3.7,3.8,5.9,4.7c-0.2,0.2-0.6,0.6-0.7,0.9c-2.1-1-4.3-2.8-5.8-4.7
			c-1.4,1.8-3.8,3.7-5.8,4.8c-0.1-0.3-0.4-0.6-0.6-0.8c1.7-0.8,3.8-2.4,5.2-3.9H75V1H79.3z M79.2,12.1h5.5v1H72.9v-1h5.3V9.7h-3.9
			V8.8h3.9V6.7h-3.3V5.7h7.8v0.9h-3.4v2.1h4v0.9h-4V12.1z"/>
		<path fill="#0C56AB" d="M91.3,10.5c-1.6,0.5-3.2,1-4.5,1.4l-0.2-1c0.5-0.1,1.1-0.3,1.8-0.5V6.5h-1.6v-1h1.6v-3h-1.7v-1h4.3v1h-1.6
			v3h1.4v1h-1.4v3.6l1.7-0.5L91.3,10.5z M99.3,5.3c-0.7,1-1.7,2.2-2.4,3c0.6,1.4,1.5,2.4,2.9,3.3c-0.2,0.2-0.5,0.5-0.7,0.8
			c-1.6-1.2-2.6-2.5-3.2-4.2v3.9c0,0.6-0.2,0.9-0.5,1.1c-0.4,0.2-1,0.2-2.1,0.2c-0.1-0.3-0.2-0.7-0.4-1c0.8,0,1.5,0,1.7,0
			c0.2,0,0.3-0.1,0.3-0.3V8.8c-1.1,1.2-2.3,2.3-3.3,3.2l-0.6-0.9c1-0.8,2.5-2.2,3.9-3.5V4h-3.4V3h3.4V0.6h1V3h3.7v1h-3.7v0.5
			c0.2,1.1,0.4,2.1,0.7,2.9c0.7-0.8,1.4-1.8,1.9-2.6L99.3,5.3z M92.4,4.9c0.6,0.8,1.3,1.9,1.5,2.6l-0.9,0.4
			c-0.3-0.7-0.9-1.8-1.5-2.6L92.4,4.9z M98.1,2.9c-0.3-0.5-1-1.1-1.7-1.5l0.6-0.5c0.6,0.4,1.3,1,1.7,1.5L98.1,2.9z"/>
		<path fill="#0C56AB" d="M111.9,2.5c-0.8,1.3-2,2.4-3.4,3.3c1.6,0.9,3.5,1.6,5.5,1.9c-0.2,0.2-0.5,0.7-0.7,1c-2-0.5-4-1.3-5.8-2.3
			c-1.9,1.1-4.1,1.9-6.1,2.4c-0.1-0.3-0.3-0.7-0.5-0.9c1.8-0.4,3.9-1.1,5.7-2c-0.9-0.6-1.7-1.3-2.3-2c-0.7,0.7-1.5,1.3-2.2,1.7
			c-0.2-0.2-0.6-0.6-0.8-0.8c1.8-1,3.4-2.5,4.4-4.2l1,0.3c-0.3,0.4-0.5,0.8-0.8,1.2h5.2l0.2-0.1L111.9,2.5z M103.3,8.4h8.2v5h-1.1
			v-0.6h-6.1v0.6h-1V8.4z M104.4,9.4v2.5h6.1V9.4H104.4z M105,3.1c0.7,0.8,1.6,1.5,2.6,2.1c1.1-0.7,2-1.4,2.7-2.3h-5.2L105,3.1z"/>
		<path fill="#0C56AB" d="M118.2,8.9c0.5-0.2,1-0.4,1.5-0.7l0.2,0.9c-1.5,0.7-3,1.4-4.3,1.9l-0.4-1c0.5-0.2,1.2-0.5,1.9-0.8V4.9
			h-1.7v-1h1.7V0.8h1v3.2h1.5v1h-1.5V8.9z M126.3,12.1c0.8,0,1-0.4,1-2c0.3,0.2,0.6,0.3,0.9,0.4c-0.2,1.9-0.5,2.5-1.9,2.5h-3.4
			c-1.6,0-2.1-0.4-2.1-1.9V6.8l-1.1,0.5l-0.4-0.9l1.5-0.6V1.9h1v3.4l1.9-0.8V0.6h1v3.5l2.1-0.9l0.8,0.3l-0.1,0.2
			c-0.1,2-0.4,4.6-0.7,6.1L126,9.5c0.2-1.3,0.4-3.3,0.5-5.1l-1.8,0.8v5.1h-1V5.6l-1.9,0.8v4.8c0,0.8,0.2,0.9,1.1,0.9H126.3z"/>
		<path fill="#0C56AB" d="M139.9,11.8c0.8,0,1.8-0.1,2.3-0.2c0,0.3,0.1,0.8,0.2,1c-0.4,0.1-1.4,0.1-2.5,0.1h-6.2
			c-2.1,0-3.2-0.7-3.2-2.7V2.2H130V1.2h11.7v0.9h-10.1v7.9c0,1.2,0.5,1.7,2,1.7H139.9z M132.7,7.1h3.6v3.6h-3.6V7.1z M133.6,10h1.9
			V7.9h-1.9V10z M139.4,6.2h-5.2V3.1h5.2V6.2z M138.4,3.8h-3.2v1.6h3.2V3.8z M141.1,10.7h-3.8V7.1h3.8V10.7z M140.1,7.9h-1.9V10h1.9
			V7.9z"/>
		<path fill="#0C56AB" d="M152.3,4.6c1,2.4,2.8,4.6,4.7,5.7c-0.3,0.2-0.6,0.6-0.8,0.9c-2.1-1.3-3.9-3.8-4.9-6.6H151v5.2h3.3v1H151
			v2.6H150v-2.6h-3.2v-1h3.2V4.6h-0.2c-1.1,2.7-2.9,5.2-4.9,6.6c-0.2-0.3-0.5-0.6-0.7-0.8c1.8-1.1,3.6-3.4,4.6-5.8h-4.2v-1h5.5V0.6
			h1.1v2.9h5.5v1H152.3z"/>
		<path fill="#0C56AB" d="M171.2,12V13h-12.6V12h1.8V7.7h9.1V12H171.2z M170.9,4.3h-12.1V3.3h3.6c-0.3-0.7-0.9-1.6-1.4-2.3l0.9-0.4
			c0.6,0.7,1.2,1.7,1.5,2.3l-0.7,0.4h4.5L166.4,3c0.5-0.7,1.1-1.7,1.5-2.4l1,0.3c-0.5,0.8-1.1,1.8-1.6,2.4h3.7V4.3z M163.4,5.4
			c-1,0.8-2.7,1.9-3.9,2.5c-0.2-0.3-0.4-0.6-0.6-0.8c1.2-0.5,3-1.4,3.9-2.2L163.4,5.4z M161.3,12h1.8V8.6h-1.8V12z M164,8.6V12h1.8
			V8.6H164z M170.4,7.6c-1-0.5-2.8-1.4-4.2-1.9l0.5-0.7c1.4,0.5,3.3,1.3,4.3,1.8L170.4,7.6z M166.7,8.6V12h1.8V8.6H166.7z"/>
		<path fill="#0C56AB" d="M178.9,10.5c0,0.3,0.1,0.7,0.1,1c-4,1.1-4.5,1.2-4.9,1.5c-0.1-0.3-0.3-0.7-0.5-0.9
			c0.2-0.2,0.5-0.5,0.5-1.1V0.6h1.1v4.3h3.6v1h-3.6v5.5L178.9,10.5z M183.8,12.1c0.7,0,0.7-0.5,0.8-2.5c0.3,0.2,0.7,0.4,1,0.4
			c-0.1,2.3-0.4,3.1-1.7,3.1h-2.4c-1.4,0-1.7-0.4-1.7-1.9V0.6h1.1v4.3h3.8v1h-3.8v5.2c0,0.8,0.1,0.9,0.8,0.9H183.8z"/>
	</g>
	<g>
		<path fill="none" stroke="#D9D9D9" stroke-width="0.72" stroke-linejoin="round" stroke-miterlimit="10" d="M26,42.1h644.9
			 M26,68.5h644.9 M26,94.9h644.9 M26,121.6h644.9 M26,148h644.9 M26,174.4h644.9 M26,200.8h644.9 M26,227.2h644.9 M26,253.6h644.9
			 M26,280.3h644.9"/>
		
			<line fill="none" stroke="#7F7F7F" stroke-width="0.72" stroke-linejoin="round" stroke-miterlimit="10" x1="26" y1="306.7" x2="670.9" y2="306.7"/>
		<path fill="none" stroke="#7F7F7F" stroke-width="0.72" stroke-linejoin="round" stroke-miterlimit="10" d="M656,306.7v4.1
			 M619,306.7v4.1 M582,306.7v4.1 M545,306.7v4.1 M507.9,306.7v4.1 M470.6,306.7v4.1 M433.6,306.7v4.1 M396.6,306.7v4.1
			 M359.6,306.7v4.1 M322.5,306.7v4.1 M285.5,306.7v4.1 M248.5,306.7v4.1 M211.4,306.7v4.1 M174.1,306.7v4.1 M137.1,306.7v4.1
			 M100.1,306.7v4.1 M63.1,306.7v4.1 M26,306.7v4.1"/>
		
			<polyline fill="none" stroke="#7F58A5" stroke-width="1.44" stroke-linecap="round" stroke-linejoin="round" stroke-miterlimit="10" points="
			31.9,281.7 33.4,282.5 34.7,279.4 36.5,274.7 37.8,273.2 39.6,276.3 40.9,274.2 42.5,275 44.3,276.8 45.6,275.3 47.1,274.5 
			48.7,274 50.2,273.7 52,270.6 53.3,269.1 54.9,268.3 56.5,270.1 58,272.7 59.6,273.2 61.1,279.2 62.7,274.2 64.2,274.7 
			65.8,274.2 67.3,275.5 68.9,275.3 70.4,272.2 72,273.7 73.3,268.5 75.1,267 76.6,262.8 77.9,260.2 79.8,257.1 81.3,253.8 
			82.9,248.1 84.4,240.1 85.7,234.4 87.5,224.3 89.1,222.4 90.4,210.8 91.9,202.5 93.5,188.3 95,205.4 96.6,204.1 98.1,198.1 
			99.7,181.3 101.2,191.1 102.8,191.9 104.4,186.2 105.9,184.6 107.5,185.4 109,188.8 110.6,184.4 112.1,182.3 113.4,189.8 
			115.2,187 116.8,182.8 118.3,180.5 119.9,185.9 121.4,211.6 123,216.5 124.6,214.7 125.8,225 127.4,215.2 129.2,213.6 
			130.5,214.2 132.1,217.8 133.6,217.3 135.2,219.1 137,222.4 138.3,217.3 139.8,207.9 141.4,207.2 142.9,206.4 144.5,209.2 
			146,210.8 147.6,211.3 149.2,208.2 150.7,212.6 152.3,208.7 153.8,199.1 155.4,200.9 156.9,196.3 158.5,204.6 160,197.1 
			161.6,184.9 163.1,187.7 164.4,192.9 166,186.7 167.5,189.3 169.4,186.7 170.6,184.4 172.2,177.9 174,198.4 175.3,216.7 
			176.9,207.2 178.4,210.5 180,213.4 181.8,213.4 183.1,205.6 184.6,216.7 186.2,217.3 187.7,216.2 189.3,226.3 190.8,223.7 
			192.4,223.7 194,221.1 195.5,224.3 197.1,225.5 198.6,219.3 200.2,220.1 201.7,219.6 203.3,223.7 204.8,223.5 206.1,219.6 
			207.9,221.1 209.5,227.1 211,228.1 212.6,233.1 214.2,239.8 215.7,241.9 217.3,243.2 218.6,241.3 220.1,238.2 221.7,235.9 
			223.2,235.4 224.8,236.2 226.3,240.6 227.9,240.1 229.4,231 231,232 232.5,229.4 234.1,233.8 235.6,227.4 237.2,224.3 
			238.8,227.1 240.3,227.1 241.6,222.4 243.4,227.6 245,231 246.3,226.1 248.1,225.3 249.6,230.2 251.2,228.1 252.7,233.1 
			254,233.3 255.8,234.6 257.1,233.1 258.7,231.2 260.2,228.4 261.8,228.1 263.4,228.4 264.9,223.5 266.5,230.2 268,230 269.6,232 
			271.1,232.8 272.7,230.2 274.2,228.1 275.8,227.1 277.3,227.4 278.9,226.6 280.4,225.5 281.7,225 283.5,228.4 285.1,227.9 
			286.7,226.3 288.2,225.8 289.8,221.4 291.3,219.9 292.9,219.1 294.2,218.8 296,215.5 297.3,218 298.8,214.7 300.4,208.5 
			301.9,203.8 303.5,212.9 305,203 306.6,210.3 308.1,209.5 309.7,206.1 311.3,200.9 312.8,190.6 314.4,178.2 315.9,174.8 
			317.5,167.8 319,168.1 320.6,164.4 322.1,188 323.7,194.7 325.2,185.7 326.8,177.6 328.3,170.7 329.9,172.2 331.2,180 333,181.5 
			334.3,178.7 336.1,185.9 337.4,183.3 339,183.3 340.8,181 		"/>
		
			<polyline fill="none" stroke="#7F58A5" stroke-width="1.44" stroke-linecap="round" stroke-linejoin="round" stroke-miterlimit="10" points="
			340.8,181 342.1,183.1 343.6,179.5 345.2,175.1 346.7,155.1 348.5,166.3 349.8,151.7 351.4,153.6 352.9,163.1 354.5,165.2 
			356.1,161.1 357.6,166.5 359.2,170.4 360.7,179.7 362.3,183.6 363.8,189.6 365.4,180.8 366.9,180.2 368.5,194.7 370,205.9 
			371.6,197.6 373.1,207.2 374.4,213.1 376.3,213.4 377.8,217.8 379.1,233.3 380.9,229.4 382.5,224.3 384,222.4 385.6,228.4 
			386.9,229.2 388.4,223.7 390,225.3 391.5,225.8 393.1,229.4 394.6,241.9 396.2,242.1 397.7,256.9 399.3,248.6 400.9,243.7 
			402.4,247.6 404,249.6 405.5,253.3 407.1,255.6 408.6,245.2 410.2,239 411.7,239.3 413.3,237.7 414.6,238.5 416.4,237.5 
			417.9,231.5 419.2,227.4 421.1,219.9 422.6,218 423.9,216.5 425.7,221.4 427,223.7 428.6,224 430.1,222.7 431.7,227.1 
			433.5,228.1 434.8,224.3 436.3,219.6 437.9,212.1 439.4,206.6 441,209.8 442.5,205.1 444.1,209 445.7,214.9 447.2,215.7 
			448.8,214.9 450.3,210 451.9,209.8 453.4,207.4 455,213.4 456.5,212.1 458.1,208.5 459.6,199.7 460.9,198.1 462.7,192.9 
			464,188.3 465.8,195.3 467.1,197.3 468.7,197.3 470.5,194 471.8,192.7 473.4,188.5 474.9,183.6 476.5,179.7 478.3,179.7 
			479.6,180.8 481.1,176.6 482.7,168.8 484.2,168.3 485.8,171.2 487.3,176.3 488.9,180.5 490.4,175.1 492,169.4 493.6,175.8 
			495.1,180.2 496.7,198.9 498.2,198.4 499.8,197.8 501.3,195.8 502.9,198.1 504.4,213.1 506,219.1 507.3,225 509.1,242.9 
			510.6,264.7 511.9,270.1 513.8,264.7 515.3,274 516.6,281 518.2,277.3 519.7,270.1 521.3,263.6 522.8,265.7 524.4,259.7 
			525.9,255.1 527.5,250.1 529,253.3 530.6,251.2 532.1,250.9 533.7,256.6 535,259.5 536.8,254.8 538.4,258.2 539.9,269.1 
			541.5,270.1 543,262.3 544.6,266.7 546.1,258.2 547.4,254.3 549.2,262.8 550.8,257.1 552.3,253 553.6,251.2 555.2,250.9 
			556.7,245.5 558.3,250.9 559.8,252 561.4,257.4 563,266.7 564.5,275.3 566.1,268.8 567.6,273.5 569.2,276 570.7,272.7 
			572.3,269.1 573.8,269.6 575.4,273.2 576.9,281.7 578.5,277.9 580,278.4 581.6,275.3 582.9,273.5 584.7,271.9 586.3,270.3 
			587.8,268.3 589.4,264.1 590.7,267 592.2,268.5 593.8,264.9 595.3,265.2 596.9,268.8 598.4,263.9 600,264.9 601.5,259.2 
			603.1,255.1 604.6,254.3 606.2,252.7 607.8,255.8 609.3,250.4 610.9,250.1 612.4,249.6 614,249.9 615.5,250.7 617.1,255.3 
			618.6,255.6 620.2,258.7 621.7,261 623.3,258.2 624.8,261.5 626.4,261.5 627.7,256.6 629.5,257.9 630.8,255.6 632.6,257.1 
			633.9,258.7 635.5,256.4 637.3,261.3 638.6,264.7 640.4,259.2 641.7,260.8 643.2,262.1 645,266.7 646.3,268.3 647.9,262.8 
			649.4,262.1 		"/>
		
			<polyline fill="none" stroke="#7F58A5" stroke-width="1.44" stroke-linecap="round" stroke-linejoin="round" stroke-miterlimit="10" points="
			649.4,262.1 651,263.1 652.6,267.2 654.1,263.4 655.7,262.8 657.2,261.8 658.8,262.8 660.3,265.4 661.9,261 663.4,259.5 
			665,258.7 666.5,254.3 668.1,250.7 669.6,246.3 671.2,247 672.7,243.4 674.3,242.6 		"/>
		
			<polyline fill="none" stroke="#87CF65" stroke-width="1.44" stroke-linecap="round" stroke-linejoin="round" stroke-miterlimit="10" points="
			31.9,263.1 33.4,261.3 34.7,260.2 36.5,259 37.8,253.8 39.6,255.6 40.9,253.8 42.5,256.1 44.3,256.4 45.6,255.6 47.1,256.9 
			48.7,256.4 50.2,257.9 52,259.5 53.3,263.1 54.9,262.8 56.5,262.8 58,267.5 59.6,266.7 61.1,267.8 62.7,261.3 64.2,262.1 
			65.8,262.3 67.3,263.6 68.9,262.3 70.4,257.7 72,257.4 73.3,258.2 75.1,258.7 76.6,255.1 77.9,254.6 79.8,255.6 81.3,257.1 
			82.9,260.5 84.4,257.9 85.7,253.3 87.5,249.9 89.1,249.6 90.4,244.5 91.9,240.1 93.5,241.9 95,238.2 96.6,237.2 98.1,242.9 
			99.7,237.2 101.2,246 102.8,242.1 104.4,240.8 105.9,243.7 107.5,232.5 109,229.4 110.6,227.9 112.1,230 113.4,230.2 115.2,225.5 
			116.8,221.9 118.3,218 119.9,221.4 121.4,245.2 123,253 124.6,248.1 125.8,245 127.4,242.1 129.2,245.5 130.5,245.2 132.1,245.5 
			133.6,242.1 135.2,243.2 137,246.8 138.3,243.9 139.8,243.2 141.4,245.5 142.9,244.5 144.5,239.3 146,242.6 147.6,241.3 
			149.2,237.2 150.7,234.1 152.3,235.4 153.8,227.6 155.4,226.8 156.9,227.9 158.5,230.7 160,229.2 161.6,227.9 163.1,235.6 
			164.4,234.9 166,233.1 167.5,235.9 169.4,227.4 170.6,228.1 172.2,229.2 174,239.3 175.3,244.5 176.9,245.2 178.4,239.5 
			180,237.7 181.8,233.6 183.1,227.1 184.6,224.5 186.2,225 187.7,221.4 189.3,226.8 190.8,222.2 192.4,219.9 194,221.9 
			195.5,220.6 197.1,225.3 198.6,213.4 200.2,215.7 201.7,214.9 203.3,217.8 204.8,215.5 206.1,214.9 207.9,217.5 209.5,213.1 
			211,216 212.6,215.2 214.2,214.7 215.7,211 217.3,210 218.6,210 220.1,209.5 221.7,207.4 223.2,211.3 224.8,208.7 226.3,208.7 
			227.9,210 229.4,206.1 231,207.4 232.5,205.9 234.1,208.5 235.6,207.4 237.2,204.3 238.8,207.9 240.3,214.2 241.6,213.4 
			243.4,212.9 245,216.7 246.3,213.6 248.1,209.5 249.6,213.1 251.2,211.3 252.7,216.2 254,215.2 255.8,212.9 257.1,209 
			258.7,206.4 260.2,203.8 261.8,199.9 263.4,197.3 264.9,193.7 266.5,194.2 268,189.3 269.6,190.9 271.1,186.2 272.7,185.2 
			274.2,181.8 275.8,181 277.3,180.8 278.9,179.5 280.4,176.6 281.7,177.6 283.5,186.2 285.1,183.6 286.7,176.1 288.2,174.3 
			289.8,164.2 291.3,168.3 292.9,160 294.2,160.8 296,169.6 297.3,161.8 298.8,152.3 300.4,146.3 301.9,132.8 303.5,144.2 
			305,135.4 306.6,143.2 308.1,136.5 309.7,134.1 311.3,133.6 312.8,120.9 314.4,111.6 315.9,111.1 317.5,118.1 319,110.3 
			320.6,115.2 322.1,148.9 323.7,138 325.2,123.8 326.8,112.1 328.3,99.2 329.9,91.4 331.2,101 333,93.2 334.3,84.4 336.1,92.2 
			337.4,81.8 339,91.7 340.8,95.6 		"/>
		
			<polyline fill="none" stroke="#87CF65" stroke-width="1.44" stroke-linecap="round" stroke-linejoin="round" stroke-miterlimit="10" points="
			340.8,95.6 342.1,103.6 343.6,90.6 345.2,86.2 346.7,71.7 348.5,85.5 349.8,88.8 351.4,68.6 352.9,84.2 354.5,95.6 356.1,87.3 
			357.6,94.3 359.2,78.7 360.7,93.5 362.3,100 363.8,124.8 365.4,124.3 366.9,118.3 368.5,141.1 370,156.2 371.6,142.9 373.1,143.2 
			374.4,148.6 376.3,152.5 377.8,165 379.1,180.2 380.9,177.6 382.5,166.8 384,165.7 385.6,169.4 386.9,173.8 388.4,168.1 
			390,178.2 391.5,180.2 393.1,192.4 394.6,203.5 396.2,203.3 397.7,217.3 399.3,208.7 400.9,202.2 402.4,210.3 404,214.4 
			405.5,217 407.1,216.2 408.6,207.7 410.2,201.5 411.7,200.4 413.3,198.4 414.6,196.5 416.4,198.9 417.9,191.9 419.2,191.1 
			421.1,185.7 422.6,183.6 423.9,182.6 425.7,185.4 427,189 428.6,188.3 430.1,186.7 431.7,192.9 433.5,193.7 434.8,192.7 
			436.3,191.6 437.9,187.2 439.4,182.8 441,187.5 442.5,185.7 444.1,189.3 445.7,192.9 447.2,189.3 448.8,189.6 450.3,184.9 
			451.9,187.5 453.4,187.5 455,190.6 456.5,186.4 458.1,187.5 459.6,184.1 460.9,185.4 462.7,184.4 464,183.9 465.8,189.6 
			467.1,190.3 468.7,191.4 470.5,189.6 471.8,187.2 473.4,183.6 474.9,181.5 476.5,181 478.3,179.2 479.6,183.1 481.1,182.8 
			482.7,177.9 484.2,173.8 485.8,177.6 487.3,183.6 488.9,182.8 490.4,178.4 492,176.6 493.6,184.4 495.1,186.4 496.7,196.5 
			498.2,201.5 499.8,203.3 501.3,197.8 502.9,196.3 504.4,208.2 506,210.3 507.3,209.8 509.1,222.2 510.6,241.9 511.9,249.6 
			513.8,248.9 515.3,256.1 516.6,264.4 518.2,259 519.7,252 521.3,248.1 522.8,248.3 524.4,242.4 525.9,239.5 527.5,235.9 
			529,238.2 530.6,233.1 532.1,230.7 533.7,234.4 535,231.5 536.8,225.5 538.4,224.3 539.9,233.6 541.5,239 543,232.8 544.6,237.7 
			546.1,229.4 547.4,225.8 549.2,226.1 550.8,219.9 552.3,217.8 553.6,214.4 555.2,214.9 556.7,212.1 558.3,214.4 559.8,217.3 
			561.4,220.4 563,227.6 564.5,236.4 566.1,226.3 567.6,227.6 569.2,227.9 570.7,223.5 572.3,219.6 573.8,217.3 575.4,218.8 
			576.9,227.1 578.5,224 580,223.5 581.6,221.9 582.9,220.1 584.7,222.7 586.3,223 587.8,223 589.4,217.5 590.7,217 592.2,213.4 
			593.8,212.1 595.3,210.5 596.9,213.1 598.4,207.7 600,212.1 601.5,208.7 603.1,204.1 604.6,201.7 606.2,199.1 607.8,204.1 
			609.3,199.1 610.9,199.1 612.4,199.7 614,197.6 615.5,195.3 617.1,198.4 618.6,193.7 620.2,197.1 621.7,195 623.3,192.4 
			624.8,194 626.4,198.4 627.7,191.9 629.5,194.2 630.8,194 632.6,192.9 633.9,196.5 635.5,194.7 637.3,204.1 638.6,208.2 
			640.4,199.1 641.7,199.7 643.2,202.5 645,210.3 646.3,211 647.9,203.3 649.4,203 		"/>
		
			<polyline fill="none" stroke="#87CF65" stroke-width="1.44" stroke-linecap="round" stroke-linejoin="round" stroke-miterlimit="10" points="
			649.4,203 651,201.2 652.6,201.5 654.1,197.1 655.7,197.6 657.2,197.8 658.8,200.9 660.3,196.8 661.9,194.7 663.4,192.1 
			665,187.5 666.5,188 668.1,187 669.6,185.7 671.2,185.2 672.7,182.8 674.3,182.8 		"/>
		
			<polyline fill="none" stroke="#002A5E" stroke-width="1.44" stroke-linecap="round" stroke-linejoin="round" stroke-miterlimit="10" points="
			31.9,235.9 33.4,226.6 34.7,216.2 36.5,217 37.8,213.4 39.6,225.3 40.9,225 42.5,222.7 44.3,232 45.6,246 47.1,242.1 48.7,242.6 
			50.2,240.3 52,229.7 53.3,234.1 54.9,237.7 56.5,238.2 58,247.6 59.6,252.2 61.1,256.6 62.7,251.4 64.2,249.6 65.8,250.4 
			67.3,248.1 68.9,245.2 70.4,237.5 72,239.8 73.3,239.8 75.1,237.2 76.6,233.1 77.9,237.7 79.8,236.4 81.3,240.1 82.9,242.6 
			84.4,237.2 85.7,236.9 87.5,240.1 89.1,243.9 90.4,244.5 91.9,248.9 93.5,245.5 95,246 96.6,243.4 98.1,241.3 99.7,235.1 
			101.2,233.6 102.8,219.3 104.4,221.1 105.9,215.7 107.5,212.1 109,198.1 110.6,202.2 112.1,199.7 113.4,187.2 115.2,179.2 
			116.8,165.2 118.3,161.1 119.9,140.9 121.4,210.8 123,214.9 124.6,213.4 125.8,203.8 127.4,199.7 129.2,197.3 130.5,190.6 
			132.1,188 133.6,182.3 135.2,168.3 137,160 138.3,156.4 139.8,174.3 141.4,163.4 142.9,176.1 144.5,160.6 146,154.3 147.6,146.6 
			149.2,139.3 150.7,128.7 152.3,149.7 153.8,138.8 155.4,139.8 156.9,132.8 158.5,143.2 160,152.3 161.6,145 163.1,129.2 
			164.4,136.5 166,148.6 167.5,167.8 169.4,171.9 170.6,183.9 172.2,178.2 174,202.5 175.3,217.8 176.9,210.5 178.4,208.7 
			180,206.6 181.8,212.6 183.1,197.1 184.6,198.1 186.2,193.2 187.7,195.8 189.3,197.8 190.8,194.7 192.4,200.7 194,199.9 
			195.5,202.5 197.1,202.8 198.6,199.9 200.2,184.6 201.7,187.7 203.3,181.5 204.8,183.1 206.1,186.4 207.9,185.7 209.5,195 
			211,197.3 212.6,198.4 214.2,193.4 215.7,194.5 217.3,198.9 218.6,198.6 220.1,188.8 221.7,191.4 223.2,185.2 224.8,182.6 
			226.3,188.5 227.9,187 229.4,179.7 231,176.9 232.5,158.2 234.1,151.2 235.6,109 237.2,116 238.8,127.7 240.3,151 241.6,144.5 
			243.4,141.1 245,147.6 246.3,139.6 248.1,126.9 249.6,127.9 251.2,129.7 252.7,146.3 254,151.2 255.8,170.4 257.1,163.4 
			258.7,162.6 260.2,168.3 261.8,158.2 263.4,162.9 264.9,162.4 266.5,170.9 268,170.7 269.6,174.8 271.1,181 272.7,177.1 
			274.2,170.1 275.8,169.9 277.3,169.9 278.9,161.1 280.4,165.2 281.7,167.3 283.5,179.5 285.1,176.6 286.7,175.8 288.2,178.7 
			289.8,173 291.3,175.6 292.9,174 294.2,173.2 296,180.5 297.3,182 298.8,176.3 300.4,171.2 301.9,169.9 303.5,191.9 305,196.5 
			306.6,226.3 308.1,232.5 309.7,236.4 311.3,245 312.8,227.9 314.4,229.4 315.9,237.5 317.5,249.9 319,258.7 320.6,260.2 
			322.1,270.9 323.7,265.2 325.2,254.8 326.8,249.1 328.3,249.4 329.9,251.4 331.2,252.7 333,245 334.3,232.3 336.1,230.5 
			337.4,213.4 339,218 340.8,214.9 		"/>
		
			<polyline fill="none" stroke="#002A5E" stroke-width="1.44" stroke-linecap="round" stroke-linejoin="round" stroke-miterlimit="10" points="
			340.8,214.9 342.1,224.5 343.6,221.1 345.2,211 346.7,199.1 348.5,200.2 349.8,200.7 351.4,199.1 352.9,213.4 354.5,219.3 
			356.1,214.2 357.6,217.8 359.2,217.8 360.7,230.7 362.3,239.3 363.8,243.2 365.4,243.2 366.9,234.1 368.5,240.1 370,250.1 
			371.6,249.4 373.1,249.6 374.4,251.4 376.3,256.4 377.8,259 379.1,268.8 380.9,267 382.5,259.5 384,256.1 385.6,255.6 
			386.9,255.1 388.4,250.7 390,250.1 391.5,252.2 393.1,254.6 394.6,258.2 396.2,259.2 397.7,266.7 399.3,264.1 400.9,261.3 
			402.4,264.9 404,264.1 405.5,266.7 407.1,269.8 408.6,268.5 410.2,262.8 411.7,259 413.3,254.6 414.6,248.6 416.4,247.6 
			417.9,240.8 419.2,241.9 421.1,236.4 422.6,232.5 423.9,228.9 425.7,231.8 427,236.9 428.6,240.8 430.1,241.6 431.7,243.4 
			433.5,240.6 434.8,237.5 436.3,236.9 437.9,228.9 439.4,225.8 441,226.6 442.5,221.7 444.1,227.4 445.7,229.2 447.2,227.4 
			448.8,225.5 450.3,220.4 451.9,223.2 453.4,218.6 455,226.6 456.5,220.1 458.1,214.9 459.6,207.7 460.9,206.9 462.7,205.1 
			464,198.9 465.8,209.8 467.1,210.8 468.7,210.8 470.5,207.4 471.8,204.3 473.4,200.2 474.9,192.4 476.5,187.2 478.3,188.5 
			479.6,191.4 481.1,189 482.7,182.6 484.2,176.3 485.8,171.2 487.3,162.4 488.9,166.5 490.4,148.6 492,126.1 493.6,144 
			495.1,144.8 496.7,173.8 498.2,167.8 499.8,180.2 501.3,170.4 502.9,178.9 504.4,199.1 506,200.4 507.3,211 509.1,231.5 
			510.6,257.7 511.9,262.1 513.8,256.6 515.3,261.8 516.6,266.7 518.2,260.5 519.7,249.6 521.3,234.4 522.8,234.9 524.4,224.8 
			525.9,228.1 527.5,220.4 529,221.4 530.6,218.6 532.1,215.2 533.7,221.7 535,221.4 536.8,215.2 538.4,213.9 539.9,224.3 
			541.5,222.2 543,217.3 544.6,219.1 546.1,207.9 547.4,205.9 549.2,209.5 550.8,204.3 552.3,208.5 553.6,212.9 555.2,207.2 
			556.7,204.1 558.3,207.4 559.8,211.3 561.4,211 563,223.7 564.5,238.5 566.1,229.7 567.6,239.3 569.2,240.3 570.7,231.5 
			572.3,226.6 573.8,230.7 575.4,231.8 576.9,242.9 578.5,240.6 580,239.5 581.6,240.6 582.9,235.1 584.7,235.9 586.3,234.4 
			587.8,232.5 589.4,230.7 590.7,232.5 592.2,235.1 593.8,233.3 595.3,235.9 596.9,242.9 598.4,242.9 600,246.8 601.5,242.9 
			603.1,239.5 604.6,241.1 606.2,242.4 607.8,247.3 609.3,245 610.9,243.9 612.4,243.9 614,240.8 615.5,239.5 617.1,237.7 
			618.6,237.7 620.2,242.9 621.7,241.9 623.3,242.1 624.8,245.2 626.4,242.9 627.7,242.1 629.5,243.2 630.8,238.5 632.6,241.3 
			633.9,245.2 635.5,249.6 637.3,257.9 638.6,259.7 640.4,255.1 641.7,257.9 643.2,258.4 645,263.9 646.3,265.4 647.9,258.7 
			649.4,259 		"/>
		
			<polyline fill="none" stroke="#002A5E" stroke-width="1.44" stroke-linecap="round" stroke-linejoin="round" stroke-miterlimit="10" points="
			649.4,259 651,260.2 652.6,259 654.1,255.6 655.7,253.8 657.2,253.8 658.8,254.8 660.3,257.4 661.9,258.7 663.4,254.8 665,252.7 
			666.5,250.4 668.1,248.9 669.6,246.5 671.2,246.5 672.7,242.9 674.3,242.4 		"/>
		<g>
			<g>
				<path fill="#231F20" d="M8.7,307.9c0.1,0.9,0.7,1.6,1.7,1.6c0.9,0,1.6-0.6,1.6-1.5c0-1-0.8-1.6-1.6-1.6c-0.6,0-1.1,0.2-1.4,0.6
					l-1.5-0.5l1-4.2h4.6v1.4H9.6l-0.5,2.1c0.4-0.4,1-0.6,1.6-0.6c1.7,0,2.9,1,2.9,2.8c0,1.6-1.2,2.9-3.2,2.9c-1.8,0-3.1-1.2-3.2-2.5
					L8.7,307.9z"/>
			</g>
		</g>
		<g>
			<g>
				<path fill="#231F20" d="M2.4,284.2v-5.8h-2v-1.1c1.2,0,2-0.7,2.2-1.6h1.3v8.4H2.4z"/>
				<path fill="#231F20" d="M6.6,277c0.5-0.8,1.4-1.4,2.7-1.4c1.3,0,2.1,0.6,2.7,1.4c0.6,0.9,0.8,1.9,0.8,3s-0.2,2.2-0.8,3
					c-0.5,0.8-1.4,1.4-2.7,1.4c-1.3,0-2.1-0.6-2.7-1.4c-0.6-0.9-0.8-1.9-0.8-3S6.1,277.8,6.6,277z M8,282.4c0.3,0.4,0.7,0.6,1.3,0.6
					s1-0.2,1.3-0.6c0.4-0.5,0.6-1.3,0.6-2.4s-0.2-1.9-0.6-2.4c-0.3-0.4-0.7-0.6-1.3-0.6s-1,0.2-1.3,0.6c-0.4,0.5-0.6,1.3-0.6,2.4
					S7.6,281.9,8,282.4z"/>
			</g>
		</g>
		<g>
			<g>
				<path fill="#231F20" d="M2.4,257.7v-5.8h-2v-1.1c1.2,0,2-0.7,2.2-1.6h1.3v8.4H2.4z"/>
				<path fill="#231F20" d="M7.1,255c0.1,0.9,0.7,1.6,1.7,1.6c0.9,0,1.6-0.6,1.6-1.5c0-1-0.8-1.6-1.6-1.6c-0.6,0-1.1,0.2-1.4,0.6
					l-1.5-0.5l1-4.2h4.6v1.4H8l-0.5,2.1c0.4-0.4,1-0.6,1.6-0.6c1.7,0,2.9,1,2.9,2.8c0,1.6-1.2,2.9-3.2,2.9c-1.8,0-3.1-1.2-3.2-2.5
					L7.1,255z"/>
			</g>
		</g>
		<g>
			<g>
				<path fill="#231F20" d="M0.5,225.9c0-0.1,0-0.3,0-0.5c0-1.5,1.1-2.8,3-2.8c1.9,0,3,1.2,3,2.6c0,1.1-0.6,2-1.6,2.6l-1.6,1
					c-0.4,0.2-0.7,0.5-0.9,1h4.2v1.4H0.4c0-1.4,0.5-2.6,2-3.5l1.4-0.9c0.8-0.5,1.1-1,1.1-1.6c0-0.7-0.5-1.3-1.4-1.3
					c-1,0-1.5,0.7-1.5,1.6c0,0.1,0,0.3,0,0.4L0.5,225.9z"/>
				<path fill="#231F20" d="M8.6,224c0.5-0.8,1.4-1.4,2.7-1.4c1.3,0,2.1,0.6,2.7,1.4c0.6,0.9,0.8,1.9,0.8,3s-0.2,2.2-0.8,3
					c-0.5,0.8-1.4,1.4-2.7,1.4c-1.3,0-2.1-0.6-2.7-1.4c-0.6-0.9-0.8-1.9-0.8-3S8,224.9,8.6,224z M10,229.4c0.3,0.4,0.7,0.6,1.3,0.6
					s1-0.2,1.3-0.6c0.4-0.5,0.6-1.3,0.6-2.4s-0.2-1.9-0.6-2.4c-0.3-0.4-0.7-0.6-1.3-0.6s-1,0.2-1.3,0.6c-0.4,0.5-0.6,1.3-0.6,2.4
					S9.6,228.9,10,229.4z"/>
			</g>
		</g>
		<g>
			<g>
				<path fill="#231F20" d="M0.5,199.4c0-0.1,0-0.3,0-0.5c0-1.5,1.1-2.8,3-2.8c1.9,0,3,1.2,3,2.6c0,1.1-0.6,2-1.6,2.6l-1.6,1
					c-0.4,0.2-0.7,0.5-0.9,1h4.2v1.4H0.4c0-1.4,0.5-2.6,2-3.5l1.4-0.9c0.8-0.5,1.1-1,1.1-1.6c0-0.7-0.5-1.3-1.4-1.3
					c-1,0-1.5,0.7-1.5,1.6c0,0.1,0,0.3,0,0.4L0.5,199.4z"/>
				<path fill="#231F20" d="M9.2,202.1c0.1,0.9,0.7,1.6,1.7,1.6c0.9,0,1.6-0.6,1.6-1.5c0-1-0.8-1.6-1.6-1.6c-0.6,0-1.1,0.2-1.4,0.6
					L8,200.6l1-4.2h4.6v1.4H10l-0.5,2.1c0.4-0.4,1-0.6,1.6-0.6c1.7,0,2.9,1,2.9,2.8c0,1.6-1.2,2.9-3.2,2.9c-1.8,0-3.1-1.2-3.2-2.5
					L9.2,202.1z"/>
			</g>
		</g>
		<g>
			<g>
				<path fill="#231F20" d="M2.1,173.3l2.3-2.1H0.6v-1.4h5.8v1.3l-2.3,2c1.3,0,2.5,0.9,2.5,2.6c0,1.4-1.2,2.7-3.1,2.7
					c-1.9,0-3.1-1.3-3.2-2.7l1.5-0.3c0,1,0.7,1.6,1.7,1.6c1,0,1.6-0.7,1.6-1.4c0-1-0.8-1.4-1.5-1.4c-0.4,0-0.7,0.1-0.8,0.1
					L2.1,173.3z"/>
				<path fill="#231F20" d="M8.8,171.1c0.5-0.8,1.4-1.4,2.7-1.4c1.3,0,2.1,0.6,2.7,1.4c0.6,0.9,0.8,1.9,0.8,3s-0.2,2.2-0.8,3
					c-0.5,0.8-1.4,1.4-2.7,1.4c-1.3,0-2.1-0.6-2.7-1.4c-0.6-0.9-0.8-1.9-0.8-3S8.2,171.9,8.8,171.1z M10.2,176.5
					c0.3,0.4,0.7,0.6,1.3,0.6s1-0.2,1.3-0.6c0.4-0.5,0.6-1.3,0.6-2.4s-0.2-1.9-0.6-2.4c-0.3-0.4-0.7-0.6-1.3-0.6s-1,0.2-1.3,0.6
					c-0.4,0.5-0.6,1.3-0.6,2.4S9.8,176,10.2,176.5z"/>
			</g>
		</g>
		<g>
			<g>
				<path fill="#231F20" d="M2.1,146.9l2.3-2.1H0.6v-1.4h5.8v1.3l-2.3,2c1.3,0,2.5,0.9,2.5,2.6c0,1.4-1.2,2.7-3.1,2.7
					c-1.9,0-3.1-1.3-3.2-2.7l1.5-0.3c0,1,0.7,1.6,1.7,1.6c1,0,1.6-0.7,1.6-1.4c0-1-0.8-1.4-1.5-1.4c-0.4,0-0.7,0.1-0.8,0.1
					L2.1,146.9z"/>
				<path fill="#231F20" d="M9.3,149.1c0.1,0.9,0.7,1.6,1.7,1.6c0.9,0,1.6-0.6,1.6-1.5c0-1-0.8-1.6-1.6-1.6c-0.6,0-1.1,0.2-1.4,0.6
					l-1.5-0.5l1-4.2h4.6v1.4h-3.5l-0.5,2.1c0.4-0.4,1-0.6,1.6-0.6c1.7,0,2.9,1,2.9,2.8c0,1.6-1.2,2.9-3.2,2.9
					c-1.8,0-3.1-1.2-3.2-2.5L9.3,149.1z"/>
			</g>
		</g>
		<g>
			<g>
				<path fill="#231F20" d="M0.4,121.8l3.6-4.9h2v5.2h1.4v1.4H6v1.8H4.5v-1.8h-4V121.8z M4.5,118.5l-2.6,3.6h2.6V118.5z"/>
				<path fill="#231F20" d="M9.3,118.1c0.5-0.8,1.4-1.4,2.7-1.4c1.3,0,2.1,0.6,2.7,1.4c0.6,0.9,0.8,1.9,0.8,3s-0.2,2.2-0.8,3
					c-0.5,0.8-1.4,1.4-2.7,1.4c-1.3,0-2.1-0.6-2.7-1.4c-0.6-0.9-0.8-1.9-0.8-3S8.7,119,9.3,118.1z M10.6,123.5
					c0.3,0.4,0.7,0.6,1.3,0.6s1-0.2,1.3-0.6c0.4-0.5,0.6-1.3,0.6-2.4s-0.2-1.9-0.6-2.4c-0.3-0.4-0.7-0.6-1.3-0.6s-1,0.2-1.3,0.6
					c-0.4,0.5-0.6,1.3-0.6,2.4S10.2,123,10.6,123.5z"/>
			</g>
		</g>
		<g>
			<g>
				<path fill="#231F20" d="M0.4,95.3L4,90.5h2v5.2h1.4V97H6v1.8H4.5V97h-4V95.3z M4.5,92l-2.6,3.6h2.6V92z"/>
				<path fill="#231F20" d="M9.8,96.2c0.1,0.9,0.7,1.6,1.7,1.6c0.9,0,1.6-0.6,1.6-1.5c0-1-0.8-1.6-1.6-1.6c-0.6,0-1.1,0.2-1.4,0.6
					l-1.5-0.5l1-4.2h4.6v1.4h-3.5L10.2,94c0.4-0.4,1-0.6,1.6-0.6c1.7,0,2.9,1,2.9,2.8c0,1.6-1.2,2.9-3.2,2.9c-1.8,0-3.1-1.2-3.2-2.5
					L9.8,96.2z"/>
			</g>
		</g>
		<g>
			<g>
				<path fill="#231F20" d="M1.9,69.7c0.1,0.9,0.7,1.6,1.7,1.6c0.9,0,1.6-0.6,1.6-1.5c0-1-0.8-1.6-1.6-1.6c-0.6,0-1.1,0.2-1.4,0.6
					l-1.5-0.5l1-4.2h4.6v1.4H2.8l-0.5,2.1c0.4-0.4,1-0.6,1.6-0.6c1.7,0,2.9,1,2.9,2.8c0,1.6-1.2,2.9-3.2,2.9c-1.8,0-3.1-1.2-3.2-2.5
					L1.9,69.7z"/>
				<path fill="#231F20" d="M8.8,65.2c0.5-0.8,1.4-1.4,2.7-1.4c1.3,0,2.1,0.6,2.7,1.4c0.6,0.9,0.8,1.9,0.8,3s-0.2,2.2-0.8,3
					c-0.5,0.8-1.4,1.4-2.7,1.4c-1.3,0-2.1-0.6-2.7-1.4c-0.6-0.9-0.8-1.9-0.8-3S8.2,66,8.8,65.2z M10.2,70.6c0.3,0.4,0.7,0.6,1.3,0.6
					s1-0.2,1.3-0.6c0.4-0.5,0.6-1.3,0.6-2.4s-0.2-1.9-0.6-2.4c-0.3-0.4-0.7-0.6-1.3-0.6s-1,0.2-1.3,0.6c-0.4,0.5-0.6,1.3-0.6,2.4
					S9.8,70.1,10.2,70.6z"/>
			</g>
		</g>
		<g>
			<g>
				<path fill="#231F20" d="M1.9,43.3c0.1,0.9,0.7,1.6,1.7,1.6c0.9,0,1.6-0.6,1.6-1.5c0-1-0.8-1.6-1.6-1.6c-0.6,0-1.1,0.2-1.4,0.6
					l-1.5-0.5l1-4.2h4.6v1.4H2.8L2.3,41c0.4-0.4,1-0.6,1.6-0.6c1.7,0,2.9,1,2.9,2.8c0,1.6-1.2,2.9-3.2,2.9c-1.8,0-3.1-1.2-3.2-2.5
					L1.9,43.3z"/>
				<path fill="#231F20" d="M9.3,43.3c0.1,0.9,0.7,1.6,1.7,1.6c0.9,0,1.6-0.6,1.6-1.5c0-1-0.8-1.6-1.6-1.6c-0.6,0-1.1,0.2-1.4,0.6
					l-1.5-0.5l1-4.2h4.6v1.4h-3.5L9.7,41c0.4-0.4,1-0.6,1.6-0.6c1.7,0,2.9,1,2.9,2.8c0,1.6-1.2,2.9-3.2,2.9c-1.8,0-3.1-1.2-3.2-2.5
					L9.3,43.3z"/>
			</g>
		</g>
		<g>
			<g>
				<path fill="#231F20" d="M14.6,328v-5.8h-2v-1.1c1.2,0,2-0.7,2.2-1.6h1.3v8.4H14.6z"/>
				<path fill="#231F20" d="M18.5,326.5c0.3,0.2,0.9,0.4,1.5,0.4c1.8,0,2.7-1.1,2.8-2.6c-0.3,0.5-1,1-2,1c-1.5,0-2.9-1-2.9-2.8
					c0-1.7,1.4-2.9,3.2-2.9c1.7,0,3.3,1.2,3.3,3.9c0,3-1.5,4.9-4.3,4.9c-0.7,0-1.5-0.2-1.9-0.5L18.5,326.5z M21,320.7
					c-0.9,0-1.6,0.6-1.6,1.6c0,1,0.7,1.6,1.6,1.6c0.8,0,1.6-0.6,1.6-1.6C22.6,321.4,21.8,320.7,21,320.7z"/>
				<path fill="#231F20" d="M25.7,325.8c0-1,0.7-1.7,1.6-2.1c-0.8-0.3-1.4-1.1-1.4-1.9c0-1.4,1.2-2.4,2.9-2.4s2.9,1,2.9,2.4
					c0,0.8-0.6,1.6-1.4,1.9c0.9,0.3,1.6,1.1,1.6,2.1c0,1.4-1.2,2.4-3.1,2.4C26.9,328.2,25.7,327.2,25.7,325.8z M30.4,325.6
					c0-0.7-0.6-1.3-1.6-1.3c-1,0-1.6,0.6-1.6,1.3s0.6,1.3,1.6,1.3C29.9,326.9,30.4,326.3,30.4,325.6z M30.2,321.9
					c0-0.6-0.5-1.2-1.4-1.2s-1.4,0.6-1.4,1.2c0,0.7,0.5,1.2,1.4,1.2C29.7,323.1,30.2,322.6,30.2,321.9z"/>
				<path fill="#231F20" d="M33.4,322.7c0-0.1,0-0.3,0-0.5c0-1.5,1.1-2.8,3-2.8c1.9,0,3,1.2,3,2.6c0,1.1-0.6,2-1.6,2.6l-1.6,1
					c-0.4,0.2-0.7,0.5-0.9,1h4.2v1.4h-6.1c0-1.4,0.5-2.6,2-3.5l1.4-0.9c0.8-0.5,1.1-1,1.1-1.6c0-0.7-0.5-1.3-1.4-1.3
					c-1,0-1.5,0.7-1.5,1.6c0,0.1,0,0.3,0,0.4L33.4,322.7z"/>
			</g>
		</g>
		<g>
			<g>
				<path fill="#231F20" d="M51.7,328v-5.8h-2v-1.1c1.2,0,2-0.7,2.2-1.6h1.3v8.4H51.7z"/>
				<path fill="#231F20" d="M55.6,326.5c0.3,0.2,0.9,0.4,1.5,0.4c1.8,0,2.7-1.1,2.8-2.6c-0.3,0.5-1,1-2,1c-1.5,0-2.9-1-2.9-2.8
					c0-1.7,1.4-2.9,3.2-2.9c1.7,0,3.3,1.2,3.3,3.9c0,3-1.5,4.9-4.3,4.9c-0.7,0-1.5-0.2-1.9-0.5L55.6,326.5z M58.1,320.7
					c-0.9,0-1.6,0.6-1.6,1.6c0,1,0.7,1.6,1.6,1.6c0.8,0,1.6-0.6,1.6-1.6C59.7,321.4,59,320.7,58.1,320.7z"/>
				<path fill="#231F20" d="M62.8,325.8c0-1,0.7-1.7,1.6-2.1c-0.8-0.3-1.4-1.1-1.4-1.9c0-1.4,1.2-2.4,2.9-2.4s2.9,1,2.9,2.4
					c0,0.8-0.6,1.6-1.4,1.9c0.9,0.3,1.6,1.1,1.6,2.1c0,1.4-1.2,2.4-3.1,2.4C64,328.2,62.8,327.2,62.8,325.8z M67.5,325.6
					c0-0.7-0.6-1.3-1.6-1.3c-1,0-1.6,0.6-1.6,1.3s0.6,1.3,1.6,1.3C67,326.9,67.5,326.3,67.5,325.6z M67.3,321.9
					c0-0.6-0.5-1.2-1.4-1.2s-1.4,0.6-1.4,1.2c0,0.7,0.5,1.2,1.4,1.2C66.8,323.1,67.3,322.6,67.3,321.9z"/>
				<path fill="#231F20" d="M70.3,324.5l3.6-4.9h2v5.2h1.4v1.4h-1.4v1.8h-1.5v-1.8h-4V324.5z M74.4,321.2l-2.6,3.6h2.6V321.2z"/>
			</g>
		</g>
		<g>
			<g>
				<path fill="#231F20" d="M88.7,328v-5.8h-2v-1.1c1.2,0,2-0.7,2.2-1.6h1.3v8.4H88.7z"/>
				<path fill="#231F20" d="M92.7,326.5c0.3,0.2,0.9,0.4,1.5,0.4c1.8,0,2.7-1.1,2.8-2.6c-0.3,0.5-1,1-2,1c-1.5,0-2.9-1-2.9-2.8
					c0-1.7,1.4-2.9,3.2-2.9c1.7,0,3.3,1.2,3.3,3.9c0,3-1.5,4.9-4.3,4.9c-0.7,0-1.5-0.2-1.9-0.5L92.7,326.5z M95.1,320.7
					c-0.9,0-1.6,0.6-1.6,1.6c0,1,0.7,1.6,1.6,1.6c0.8,0,1.6-0.6,1.6-1.6C96.7,321.4,96,320.7,95.1,320.7z"/>
				<path fill="#231F20" d="M99.9,325.8c0-1,0.7-1.7,1.6-2.1c-0.8-0.3-1.4-1.1-1.4-1.9c0-1.4,1.2-2.4,2.9-2.4s2.9,1,2.9,2.4
					c0,0.8-0.6,1.6-1.4,1.9c0.9,0.3,1.6,1.1,1.6,2.1c0,1.4-1.2,2.4-3.1,2.4C101.1,328.2,99.9,327.2,99.9,325.8z M104.6,325.6
					c0-0.7-0.6-1.3-1.6-1.3c-1,0-1.6,0.6-1.6,1.3s0.6,1.3,1.6,1.3C104,326.9,104.6,326.3,104.6,325.6z M104.4,321.9
					c0-0.6-0.5-1.2-1.4-1.2s-1.4,0.6-1.4,1.2c0,0.7,0.5,1.2,1.4,1.2C103.8,323.1,104.4,322.6,104.4,321.9z"/>
				<path fill="#231F20" d="M113.3,321.1c-0.3-0.2-0.8-0.3-1.4-0.3c-1.6,0-2.7,1-2.9,2.7c0.4-0.7,1.2-1,2.1-1c1.7,0,2.9,1.1,2.9,2.8
					c0,1.7-1.4,2.9-3.2,2.9c-2.1,0-3.4-1.7-3.4-3.9c0-3,1.9-4.9,4.5-4.9c0.8,0,1.4,0.2,1.8,0.4L113.3,321.1z M110.8,326.9
					c0.9,0,1.6-0.6,1.6-1.6c0-1-0.8-1.6-1.6-1.6s-1.6,0.6-1.6,1.6C109.2,326.3,110,326.9,110.8,326.9z"/>
			</g>
		</g>
		<g>
			<g>
				<path fill="#231F20" d="M125.8,328v-5.8h-2v-1.1c1.2,0,2-0.7,2.2-1.6h1.3v8.4H125.8z"/>
				<path fill="#231F20" d="M129.8,326.5c0.3,0.2,0.9,0.4,1.5,0.4c1.8,0,2.7-1.1,2.8-2.6c-0.3,0.5-1,1-2,1c-1.5,0-2.9-1-2.9-2.8
					c0-1.7,1.4-2.9,3.2-2.9c1.7,0,3.3,1.2,3.3,3.9c0,3-1.5,4.9-4.3,4.9c-0.7,0-1.5-0.2-1.9-0.5L129.8,326.5z M132.2,320.7
					c-0.9,0-1.6,0.6-1.6,1.6c0,1,0.7,1.6,1.6,1.6c0.8,0,1.6-0.6,1.6-1.6C133.8,321.4,133.1,320.7,132.2,320.7z"/>
				<path fill="#231F20" d="M137,325.8c0-1,0.7-1.7,1.6-2.1c-0.8-0.3-1.4-1.1-1.4-1.9c0-1.4,1.2-2.4,2.9-2.4s2.9,1,2.9,2.4
					c0,0.8-0.6,1.6-1.4,1.9c0.9,0.3,1.6,1.1,1.6,2.1c0,1.4-1.2,2.4-3.1,2.4C138.2,328.2,137,327.2,137,325.8z M141.7,325.6
					c0-0.7-0.6-1.3-1.6-1.3c-1,0-1.6,0.6-1.6,1.3s0.6,1.3,1.6,1.3C141.1,326.9,141.7,326.3,141.7,325.6z M141.5,321.9
					c0-0.6-0.5-1.2-1.4-1.2s-1.4,0.6-1.4,1.2c0,0.7,0.5,1.2,1.4,1.2C140.9,323.1,141.5,322.6,141.5,321.9z"/>
				<path fill="#231F20" d="M144.6,325.8c0-1,0.7-1.7,1.6-2.1c-0.8-0.3-1.4-1.1-1.4-1.9c0-1.4,1.2-2.4,2.9-2.4s2.9,1,2.9,2.4
					c0,0.8-0.6,1.6-1.4,1.9c0.9,0.3,1.6,1.1,1.6,2.1c0,1.4-1.2,2.4-3.1,2.4C145.8,328.2,144.6,327.2,144.6,325.8z M149.3,325.6
					c0-0.7-0.6-1.3-1.6-1.3c-1,0-1.6,0.6-1.6,1.3s0.6,1.3,1.6,1.3C148.7,326.9,149.3,326.3,149.3,325.6z M149.1,321.9
					c0-0.6-0.5-1.2-1.4-1.2s-1.4,0.6-1.4,1.2c0,0.7,0.5,1.2,1.4,1.2C148.6,323.1,149.1,322.6,149.1,321.9z"/>
			</g>
		</g>
		<g>
			<g>
				<path fill="#231F20" d="M162.9,328v-5.8h-2v-1.1c1.2,0,2-0.7,2.2-1.6h1.3v8.4H162.9z"/>
				<path fill="#231F20" d="M166.8,326.5c0.3,0.2,0.9,0.4,1.5,0.4c1.8,0,2.7-1.1,2.8-2.6c-0.3,0.5-1,1-2,1c-1.5,0-2.9-1-2.9-2.8
					c0-1.7,1.4-2.9,3.2-2.9c1.7,0,3.3,1.2,3.3,3.9c0,3-1.5,4.9-4.3,4.9c-0.7,0-1.5-0.2-1.9-0.5L166.8,326.5z M169.3,320.7
					c-0.9,0-1.6,0.6-1.6,1.6c0,1,0.7,1.6,1.6,1.6c0.8,0,1.6-0.6,1.6-1.6C170.9,321.4,170.1,320.7,169.3,320.7z"/>
				<path fill="#231F20" d="M174.7,326.5c0.3,0.2,0.9,0.4,1.5,0.4c1.8,0,2.7-1.1,2.8-2.6c-0.3,0.5-1,1-2,1c-1.5,0-2.9-1-2.9-2.8
					c0-1.7,1.4-2.9,3.2-2.9c1.7,0,3.3,1.2,3.3,3.9c0,3-1.5,4.9-4.3,4.9c-0.7,0-1.5-0.2-1.9-0.5L174.7,326.5z M177.2,320.7
					c-0.9,0-1.6,0.6-1.6,1.6c0,1,0.7,1.6,1.6,1.6c0.8,0,1.6-0.6,1.6-1.6C178.8,321.4,178,320.7,177.2,320.7z"/>
				<path fill="#231F20" d="M182.7,320.8c0.5-0.8,1.4-1.4,2.7-1.4c1.3,0,2.1,0.6,2.7,1.4c0.6,0.9,0.8,1.9,0.8,3s-0.2,2.2-0.8,3
					c-0.5,0.8-1.4,1.4-2.7,1.4c-1.3,0-2.1-0.6-2.7-1.4c-0.6-0.9-0.8-1.9-0.8-3S182.1,321.7,182.7,320.8z M184.1,326.2
					c0.3,0.4,0.7,0.6,1.3,0.6s1-0.2,1.3-0.6c0.4-0.5,0.6-1.3,0.6-2.4s-0.2-1.9-0.6-2.4c-0.3-0.4-0.7-0.6-1.3-0.6s-1,0.2-1.3,0.6
					c-0.4,0.5-0.6,1.3-0.6,2.4S183.7,325.7,184.1,326.2z"/>
			</g>
		</g>
		<g>
			<g>
				<path fill="#231F20" d="M200,328v-5.8h-2v-1.1c1.2,0,2-0.7,2.2-1.6h1.3v8.4H200z"/>
				<path fill="#231F20" d="M203.9,326.5c0.3,0.2,0.9,0.4,1.5,0.4c1.8,0,2.7-1.1,2.8-2.6c-0.3,0.5-1,1-2,1c-1.5,0-2.9-1-2.9-2.8
					c0-1.7,1.4-2.9,3.2-2.9c1.7,0,3.3,1.2,3.3,3.9c0,3-1.5,4.9-4.3,4.9c-0.7,0-1.5-0.2-1.9-0.5L203.9,326.5z M206.4,320.7
					c-0.9,0-1.6,0.6-1.6,1.6c0,1,0.7,1.6,1.6,1.6c0.8,0,1.6-0.6,1.6-1.6C208,321.4,207.2,320.7,206.4,320.7z"/>
				<path fill="#231F20" d="M211.8,326.5c0.3,0.2,0.9,0.4,1.5,0.4c1.8,0,2.7-1.1,2.8-2.6c-0.3,0.5-1,1-2,1c-1.5,0-2.9-1-2.9-2.8
					c0-1.7,1.4-2.9,3.2-2.9c1.7,0,3.3,1.2,3.3,3.9c0,3-1.5,4.9-4.3,4.9c-0.7,0-1.5-0.2-1.9-0.5L211.8,326.5z M214.2,320.7
					c-0.9,0-1.6,0.6-1.6,1.6c0,1,0.7,1.6,1.6,1.6c0.8,0,1.6-0.6,1.6-1.6C215.9,321.4,215.1,320.7,214.2,320.7z"/>
				<path fill="#231F20" d="M219,322.7c0-0.1,0-0.3,0-0.5c0-1.5,1.1-2.8,3-2.8c1.9,0,3,1.2,3,2.6c0,1.1-0.6,2-1.6,2.6l-1.6,1
					c-0.4,0.2-0.7,0.5-0.9,1h4.2v1.4h-6.1c0-1.4,0.5-2.6,2-3.5l1.4-0.9c0.8-0.5,1.1-1,1.1-1.6c0-0.7-0.5-1.3-1.4-1.3
					c-1,0-1.5,0.7-1.5,1.6c0,0.1,0,0.3,0,0.4L219,322.7z"/>
			</g>
		</g>
		<g>
			<g>
				<path fill="#231F20" d="M237,328v-5.8h-2v-1.1c1.2,0,2-0.7,2.2-1.6h1.3v8.4H237z"/>
				<path fill="#231F20" d="M241,326.5c0.3,0.2,0.9,0.4,1.5,0.4c1.8,0,2.7-1.1,2.8-2.6c-0.3,0.5-1,1-2,1c-1.5,0-2.9-1-2.9-2.8
					c0-1.7,1.4-2.9,3.2-2.9c1.7,0,3.3,1.2,3.3,3.9c0,3-1.5,4.9-4.3,4.9c-0.7,0-1.5-0.2-1.9-0.5L241,326.5z M243.4,320.7
					c-0.9,0-1.6,0.6-1.6,1.6c0,1,0.7,1.6,1.6,1.6c0.8,0,1.6-0.6,1.6-1.6C245,321.4,244.3,320.7,243.4,320.7z"/>
				<path fill="#231F20" d="M248.8,326.5c0.3,0.2,0.9,0.4,1.5,0.4c1.8,0,2.7-1.1,2.8-2.6c-0.3,0.5-1,1-2,1c-1.5,0-2.9-1-2.9-2.8
					c0-1.7,1.4-2.9,3.2-2.9c1.7,0,3.3,1.2,3.3,3.9c0,3-1.5,4.9-4.3,4.9c-0.7,0-1.5-0.2-1.9-0.5L248.8,326.5z M251.3,320.7
					c-0.9,0-1.6,0.6-1.6,1.6c0,1,0.7,1.6,1.6,1.6c0.8,0,1.6-0.6,1.6-1.6C252.9,321.4,252.1,320.7,251.3,320.7z"/>
				<path fill="#231F20" d="M256,324.5l3.6-4.9h2v5.2h1.4v1.4h-1.4v1.8H260v-1.8h-4V324.5z M260,321.2l-2.6,3.6h2.6V321.2z"/>
			</g>
		</g>
		<g>
			<g>
				<path fill="#231F20" d="M274.1,328v-5.8h-2v-1.1c1.2,0,2-0.7,2.2-1.6h1.3v8.4H274.1z"/>
				<path fill="#231F20" d="M278.1,326.5c0.3,0.2,0.9,0.4,1.5,0.4c1.8,0,2.7-1.1,2.8-2.6c-0.3,0.5-1,1-2,1c-1.5,0-2.9-1-2.9-2.8
					c0-1.7,1.4-2.9,3.2-2.9c1.7,0,3.3,1.2,3.3,3.9c0,3-1.5,4.9-4.3,4.9c-0.7,0-1.5-0.2-1.9-0.5L278.1,326.5z M280.5,320.7
					c-0.9,0-1.6,0.6-1.6,1.6c0,1,0.7,1.6,1.6,1.6c0.8,0,1.6-0.6,1.6-1.6C282.2,321.4,281.4,320.7,280.5,320.7z"/>
				<path fill="#231F20" d="M285.9,326.5c0.3,0.2,0.9,0.4,1.5,0.4c1.8,0,2.7-1.1,2.8-2.6c-0.3,0.5-1,1-2,1c-1.5,0-2.9-1-2.9-2.8
					c0-1.7,1.4-2.9,3.2-2.9c1.7,0,3.3,1.2,3.3,3.9c0,3-1.5,4.9-4.3,4.9c-0.7,0-1.5-0.2-1.9-0.5L285.9,326.5z M288.4,320.7
					c-0.9,0-1.6,0.6-1.6,1.6c0,1,0.7,1.6,1.6,1.6c0.8,0,1.6-0.6,1.6-1.6C290,321.4,289.2,320.7,288.4,320.7z"/>
				<path fill="#231F20" d="M299.1,321.1c-0.3-0.2-0.8-0.3-1.4-0.3c-1.6,0-2.7,1-2.9,2.7c0.4-0.7,1.2-1,2.1-1c1.7,0,2.9,1.1,2.9,2.8
					c0,1.7-1.4,2.9-3.2,2.9c-2.1,0-3.4-1.7-3.4-3.9c0-3,1.9-4.9,4.5-4.9c0.8,0,1.4,0.2,1.8,0.4L299.1,321.1z M296.6,326.9
					c0.9,0,1.6-0.6,1.6-1.6c0-1-0.8-1.6-1.6-1.6s-1.6,0.6-1.6,1.6C294.9,326.3,295.7,326.9,296.6,326.9z"/>
			</g>
		</g>
		<g>
			<g>
				<path fill="#231F20" d="M311.2,328v-5.8h-2v-1.1c1.2,0,2-0.7,2.2-1.6h1.3v8.4H311.2z"/>
				<path fill="#231F20" d="M315.1,326.5c0.3,0.2,0.9,0.4,1.5,0.4c1.8,0,2.7-1.1,2.8-2.6c-0.3,0.5-1,1-2,1c-1.5,0-2.9-1-2.9-2.8
					c0-1.7,1.4-2.9,3.2-2.9c1.7,0,3.3,1.2,3.3,3.9c0,3-1.5,4.9-4.3,4.9c-0.7,0-1.5-0.2-1.9-0.5L315.1,326.5z M317.6,320.7
					c-0.9,0-1.6,0.6-1.6,1.6c0,1,0.7,1.6,1.6,1.6c0.8,0,1.6-0.6,1.6-1.6C319.2,321.4,318.4,320.7,317.6,320.7z"/>
				<path fill="#231F20" d="M323,326.5c0.3,0.2,0.9,0.4,1.5,0.4c1.8,0,2.7-1.1,2.8-2.6c-0.3,0.5-1,1-2,1c-1.5,0-2.9-1-2.9-2.8
					c0-1.7,1.4-2.9,3.2-2.9c1.7,0,3.3,1.2,3.3,3.9c0,3-1.5,4.9-4.3,4.9c-0.7,0-1.5-0.2-1.9-0.5L323,326.5z M325.5,320.7
					c-0.9,0-1.6,0.6-1.6,1.6c0,1,0.7,1.6,1.6,1.6c0.8,0,1.6-0.6,1.6-1.6C327.1,321.4,326.3,320.7,325.5,320.7z"/>
				<path fill="#231F20" d="M330.2,325.8c0-1,0.7-1.7,1.6-2.1c-0.8-0.3-1.4-1.1-1.4-1.9c0-1.4,1.2-2.4,2.9-2.4c1.7,0,2.9,1,2.9,2.4
					c0,0.8-0.6,1.6-1.4,1.9c0.9,0.3,1.6,1.1,1.6,2.1c0,1.4-1.2,2.4-3.1,2.4C331.4,328.2,330.2,327.2,330.2,325.8z M334.9,325.6
					c0-0.7-0.6-1.3-1.6-1.3c-1,0-1.6,0.6-1.6,1.3s0.6,1.3,1.6,1.3C334.3,326.9,334.9,326.3,334.9,325.6z M334.7,321.9
					c0-0.6-0.5-1.2-1.4-1.2c-0.9,0-1.4,0.6-1.4,1.2c0,0.7,0.5,1.2,1.4,1.2C334.1,323.1,334.7,322.6,334.7,321.9z"/>
			</g>
		</g>
		<g>
			<g>
				<path fill="#231F20" d="M346.4,322.7c0-0.1,0-0.3,0-0.5c0-1.5,1.1-2.8,3-2.8c1.9,0,3,1.2,3,2.6c0,1.1-0.6,2-1.6,2.6l-1.6,1
					c-0.4,0.2-0.7,0.5-0.9,1h4.2v1.4h-6.1c0-1.4,0.5-2.6,2-3.5l1.4-0.9c0.8-0.5,1.1-1,1.1-1.6c0-0.7-0.5-1.3-1.4-1.3
					c-1,0-1.5,0.7-1.5,1.6c0,0.1,0,0.3,0,0.4L346.4,322.7z"/>
				<path fill="#231F20" d="M354.5,320.8c0.5-0.8,1.4-1.4,2.7-1.4c1.3,0,2.1,0.6,2.7,1.4c0.6,0.9,0.8,1.9,0.8,3s-0.2,2.2-0.8,3
					c-0.5,0.8-1.4,1.4-2.7,1.4c-1.3,0-2.1-0.6-2.7-1.4c-0.6-0.9-0.8-1.9-0.8-3S353.9,321.7,354.5,320.8z M355.8,326.2
					c0.3,0.4,0.7,0.6,1.3,0.6c0.6,0,1-0.2,1.3-0.6c0.4-0.5,0.6-1.3,0.6-2.4s-0.2-1.9-0.6-2.4c-0.3-0.4-0.7-0.6-1.3-0.6
					c-0.6,0-1,0.2-1.3,0.6c-0.4,0.5-0.6,1.3-0.6,2.4S355.4,325.7,355.8,326.2z"/>
				<path fill="#231F20" d="M362.8,320.8c0.5-0.8,1.4-1.4,2.7-1.4c1.3,0,2.1,0.6,2.7,1.4c0.6,0.9,0.8,1.9,0.8,3s-0.2,2.2-0.8,3
					c-0.5,0.8-1.4,1.4-2.7,1.4c-1.3,0-2.1-0.6-2.7-1.4c-0.6-0.9-0.8-1.9-0.8-3S362.2,321.7,362.8,320.8z M364.1,326.2
					c0.3,0.4,0.7,0.6,1.3,0.6c0.6,0,1-0.2,1.3-0.6c0.4-0.5,0.6-1.3,0.6-2.4s-0.2-1.9-0.6-2.4c-0.3-0.4-0.7-0.6-1.3-0.6
					c-0.6,0-1,0.2-1.3,0.6c-0.4,0.5-0.6,1.3-0.6,2.4S363.7,325.7,364.1,326.2z"/>
				<path fill="#231F20" d="M371.1,320.8c0.5-0.8,1.4-1.4,2.7-1.4c1.3,0,2.1,0.6,2.7,1.4c0.6,0.9,0.8,1.9,0.8,3s-0.2,2.2-0.8,3
					c-0.5,0.8-1.4,1.4-2.7,1.4c-1.3,0-2.1-0.6-2.7-1.4c-0.6-0.9-0.8-1.9-0.8-3S370.5,321.7,371.1,320.8z M372.4,326.2
					c0.3,0.4,0.7,0.6,1.3,0.6c0.6,0,1-0.2,1.3-0.6c0.4-0.5,0.6-1.3,0.6-2.4s-0.2-1.9-0.6-2.4c-0.3-0.4-0.7-0.6-1.3-0.6
					c-0.6,0-1,0.2-1.3,0.6c-0.4,0.5-0.6,1.3-0.6,2.4S372,325.7,372.4,326.2z"/>
			</g>
		</g>
		<g>
			<g>
				<path fill="#231F20" d="M383.5,322.7c0-0.1,0-0.3,0-0.5c0-1.5,1.1-2.8,3-2.8c1.9,0,3,1.2,3,2.6c0,1.1-0.6,2-1.6,2.6l-1.6,1
					c-0.4,0.2-0.7,0.5-0.9,1h4.2v1.4h-6.1c0-1.4,0.5-2.6,2-3.5l1.4-0.9c0.8-0.5,1.1-1,1.1-1.6c0-0.7-0.5-1.3-1.4-1.3
					c-1,0-1.5,0.7-1.5,1.6c0,0.1,0,0.3,0,0.4L383.5,322.7z"/>
				<path fill="#231F20" d="M391.5,320.8c0.5-0.8,1.4-1.4,2.7-1.4c1.3,0,2.1,0.6,2.7,1.4c0.6,0.9,0.8,1.9,0.8,3s-0.2,2.2-0.8,3
					c-0.5,0.8-1.4,1.4-2.7,1.4c-1.3,0-2.1-0.6-2.7-1.4c-0.6-0.9-0.8-1.9-0.8-3S391,321.7,391.5,320.8z M392.9,326.2
					c0.3,0.4,0.7,0.6,1.3,0.6c0.6,0,1-0.2,1.3-0.6c0.4-0.5,0.6-1.3,0.6-2.4s-0.2-1.9-0.6-2.4c-0.3-0.4-0.7-0.6-1.3-0.6
					c-0.6,0-1,0.2-1.3,0.6c-0.4,0.5-0.6,1.3-0.6,2.4S392.5,325.7,392.9,326.2z"/>
				<path fill="#231F20" d="M399.8,320.8c0.5-0.8,1.4-1.4,2.7-1.4c1.3,0,2.1,0.6,2.7,1.4c0.6,0.9,0.8,1.9,0.8,3s-0.2,2.2-0.8,3
					c-0.5,0.8-1.4,1.4-2.7,1.4c-1.3,0-2.1-0.6-2.7-1.4c-0.6-0.9-0.8-1.9-0.8-3S399.2,321.7,399.8,320.8z M401.2,326.2
					c0.3,0.4,0.7,0.6,1.3,0.6c0.6,0,1-0.2,1.3-0.6c0.4-0.5,0.6-1.3,0.6-2.4s-0.2-1.9-0.6-2.4c-0.3-0.4-0.7-0.6-1.3-0.6
					c-0.6,0-1,0.2-1.3,0.6c-0.4,0.5-0.6,1.3-0.6,2.4S400.8,325.7,401.2,326.2z"/>
				<path fill="#231F20" d="M407.3,322.7c0-0.1,0-0.3,0-0.5c0-1.5,1.1-2.8,3-2.8c1.9,0,3,1.2,3,2.6c0,1.1-0.6,2-1.6,2.6l-1.6,1
					c-0.4,0.2-0.7,0.5-0.9,1h4.2v1.4h-6.1c0-1.4,0.5-2.6,2-3.5l1.4-0.9c0.8-0.5,1.1-1,1.1-1.6c0-0.7-0.5-1.3-1.4-1.3
					c-1,0-1.5,0.7-1.5,1.6c0,0.1,0,0.3,0,0.4L407.3,322.7z"/>
			</g>
		</g>
		<g>
			<g>
				<path fill="#231F20" d="M420.6,322.7c0-0.1,0-0.3,0-0.5c0-1.5,1.1-2.8,3-2.8c1.9,0,3,1.2,3,2.6c0,1.1-0.6,2-1.6,2.6l-1.6,1
					c-0.4,0.2-0.7,0.5-0.9,1h4.2v1.4h-6.1c0-1.4,0.5-2.6,2-3.5l1.4-0.9c0.8-0.5,1.1-1,1.1-1.6c0-0.7-0.5-1.3-1.4-1.3
					c-1,0-1.5,0.7-1.5,1.6c0,0.1,0,0.3,0,0.4L420.6,322.7z"/>
				<path fill="#231F20" d="M428.6,320.8c0.5-0.8,1.4-1.4,2.7-1.4c1.3,0,2.1,0.6,2.7,1.4c0.6,0.9,0.8,1.9,0.8,3s-0.2,2.2-0.8,3
					c-0.5,0.8-1.4,1.4-2.7,1.4c-1.3,0-2.1-0.6-2.7-1.4c-0.6-0.9-0.8-1.9-0.8-3S428.1,321.7,428.6,320.8z M430,326.2
					c0.3,0.4,0.7,0.6,1.3,0.6c0.6,0,1-0.2,1.3-0.6c0.4-0.5,0.6-1.3,0.6-2.4s-0.2-1.9-0.6-2.4c-0.3-0.4-0.7-0.6-1.3-0.6
					c-0.6,0-1,0.2-1.3,0.6c-0.4,0.5-0.6,1.3-0.6,2.4S429.6,325.7,430,326.2z"/>
				<path fill="#231F20" d="M436.9,320.8c0.5-0.8,1.4-1.4,2.7-1.4c1.3,0,2.1,0.6,2.7,1.4c0.6,0.9,0.8,1.9,0.8,3s-0.2,2.2-0.8,3
					c-0.5,0.8-1.4,1.4-2.7,1.4c-1.3,0-2.1-0.6-2.7-1.4c-0.6-0.9-0.8-1.9-0.8-3S436.4,321.7,436.9,320.8z M438.3,326.2
					c0.3,0.4,0.7,0.6,1.3,0.6c0.6,0,1-0.2,1.3-0.6c0.4-0.5,0.6-1.3,0.6-2.4s-0.2-1.9-0.6-2.4c-0.3-0.4-0.7-0.6-1.3-0.6
					c-0.6,0-1,0.2-1.3,0.6c-0.4,0.5-0.6,1.3-0.6,2.4S437.9,325.7,438.3,326.2z"/>
				<path fill="#231F20" d="M444.4,324.5l3.6-4.9h2v5.2h1.4v1.4h-1.4v1.8h-1.5v-1.8h-4V324.5z M448.4,321.2l-2.6,3.6h2.6V321.2z"/>
			</g>
		</g>
		<g>
			<g>
				<path fill="#231F20" d="M457.6,322.7c0-0.1,0-0.3,0-0.5c0-1.5,1.1-2.8,3-2.8c1.9,0,3,1.2,3,2.6c0,1.1-0.6,2-1.6,2.6l-1.6,1
					c-0.4,0.2-0.7,0.5-0.9,1h4.2v1.4h-6.1c0-1.4,0.5-2.6,2-3.5l1.4-0.9c0.8-0.5,1.1-1,1.1-1.6c0-0.7-0.5-1.3-1.4-1.3
					c-1,0-1.5,0.7-1.5,1.6c0,0.1,0,0.3,0,0.4L457.6,322.7z"/>
				<path fill="#231F20" d="M465.7,320.8c0.5-0.8,1.4-1.4,2.7-1.4c1.3,0,2.1,0.6,2.7,1.4c0.6,0.9,0.8,1.9,0.8,3s-0.2,2.2-0.8,3
					c-0.5,0.8-1.4,1.4-2.7,1.4c-1.3,0-2.1-0.6-2.7-1.4c-0.6-0.9-0.8-1.9-0.8-3S465.1,321.7,465.7,320.8z M467,326.2
					c0.3,0.4,0.7,0.6,1.3,0.6c0.6,0,1-0.2,1.3-0.6c0.4-0.5,0.6-1.3,0.6-2.4s-0.2-1.9-0.6-2.4c-0.3-0.4-0.7-0.6-1.3-0.6
					c-0.6,0-1,0.2-1.3,0.6c-0.4,0.5-0.6,1.3-0.6,2.4S466.6,325.7,467,326.2z"/>
				<path fill="#231F20" d="M474,320.8c0.5-0.8,1.4-1.4,2.7-1.4c1.3,0,2.1,0.6,2.7,1.4c0.6,0.9,0.8,1.9,0.8,3s-0.2,2.2-0.8,3
					c-0.5,0.8-1.4,1.4-2.7,1.4c-1.3,0-2.1-0.6-2.7-1.4c-0.6-0.9-0.8-1.9-0.8-3S473.4,321.7,474,320.8z M475.3,326.2
					c0.3,0.4,0.7,0.6,1.3,0.6c0.6,0,1-0.2,1.3-0.6c0.4-0.5,0.6-1.3,0.6-2.4s-0.2-1.9-0.6-2.4c-0.3-0.4-0.7-0.6-1.3-0.6
					c-0.6,0-1,0.2-1.3,0.6c-0.4,0.5-0.6,1.3-0.6,2.4S474.9,325.7,475.3,326.2z"/>
				<path fill="#231F20" d="M487.4,321.1c-0.3-0.2-0.8-0.3-1.4-0.3c-1.6,0-2.7,1-2.9,2.7c0.4-0.7,1.2-1,2.1-1c1.7,0,2.8,1.1,2.8,2.8
					c0,1.7-1.4,2.9-3.2,2.9c-2.1,0-3.4-1.7-3.4-3.9c0-3,1.9-4.9,4.5-4.9c0.8,0,1.4,0.2,1.8,0.4L487.4,321.1z M484.9,326.9
					c0.9,0,1.6-0.6,1.6-1.6c0-1-0.8-1.6-1.6-1.6s-1.6,0.6-1.6,1.6C483.2,326.3,484,326.9,484.9,326.9z"/>
			</g>
		</g>
		<g>
			<g>
				<path fill="#231F20" d="M494.7,322.7c0-0.1,0-0.3,0-0.5c0-1.5,1.1-2.8,3-2.8c1.9,0,3,1.2,3,2.6c0,1.1-0.6,2-1.6,2.6l-1.6,1
					c-0.4,0.2-0.7,0.5-0.9,1h4.2v1.4h-6.1c0-1.4,0.5-2.6,2-3.5l1.4-0.9c0.8-0.5,1.1-1,1.1-1.6c0-0.7-0.5-1.3-1.4-1.3
					c-1,0-1.5,0.7-1.5,1.6c0,0.1,0,0.3,0,0.4L494.7,322.7z"/>
				<path fill="#231F20" d="M502.8,320.8c0.5-0.8,1.4-1.4,2.7-1.4c1.3,0,2.1,0.6,2.7,1.4c0.6,0.9,0.8,1.9,0.8,3s-0.2,2.2-0.8,3
					c-0.5,0.8-1.4,1.4-2.7,1.4c-1.3,0-2.1-0.6-2.7-1.4c-0.6-0.9-0.8-1.9-0.8-3S502.2,321.7,502.8,320.8z M504.1,326.2
					c0.3,0.4,0.7,0.6,1.3,0.6c0.6,0,1-0.2,1.3-0.6c0.4-0.5,0.6-1.3,0.6-2.4s-0.2-1.9-0.6-2.4c-0.3-0.4-0.7-0.6-1.3-0.6
					c-0.6,0-1,0.2-1.3,0.6c-0.4,0.5-0.6,1.3-0.6,2.4S503.7,325.7,504.1,326.2z"/>
				<path fill="#231F20" d="M511.1,320.8c0.5-0.8,1.4-1.4,2.7-1.4c1.3,0,2.1,0.6,2.7,1.4c0.6,0.9,0.8,1.9,0.8,3s-0.2,2.2-0.8,3
					c-0.5,0.8-1.4,1.4-2.7,1.4c-1.3,0-2.1-0.6-2.7-1.4c-0.6-0.9-0.8-1.9-0.8-3S510.5,321.7,511.1,320.8z M512.4,326.2
					c0.3,0.4,0.7,0.6,1.3,0.6c0.6,0,1-0.2,1.3-0.6c0.4-0.5,0.6-1.3,0.6-2.4s-0.2-1.9-0.6-2.4c-0.3-0.4-0.7-0.6-1.3-0.6
					c-0.6,0-1,0.2-1.3,0.6c-0.4,0.5-0.6,1.3-0.6,2.4S512,325.7,512.4,326.2z"/>
				<path fill="#231F20" d="M518.5,325.8c0-1,0.7-1.7,1.6-2.1c-0.8-0.3-1.4-1.1-1.4-1.9c0-1.4,1.2-2.4,2.9-2.4c1.7,0,2.9,1,2.9,2.4
					c0,0.8-0.6,1.6-1.4,1.9c0.9,0.3,1.6,1.1,1.6,2.1c0,1.4-1.2,2.4-3.1,2.4C519.7,328.2,518.5,327.2,518.5,325.8z M523.2,325.6
					c0-0.7-0.6-1.3-1.6-1.3c-1,0-1.6,0.6-1.6,1.3s0.6,1.3,1.6,1.3C522.7,326.9,523.2,326.3,523.2,325.6z M523,321.9
					c0-0.6-0.5-1.2-1.4-1.2c-0.9,0-1.4,0.6-1.4,1.2c0,0.7,0.5,1.2,1.4,1.2C522.5,323.1,523,322.6,523,321.9z"/>
			</g>
		</g>
		<g>
			<g>
				<path fill="#231F20" d="M531.8,322.7c0-0.1,0-0.3,0-0.5c0-1.5,1.1-2.8,3-2.8c1.9,0,3,1.2,3,2.6c0,1.1-0.6,2-1.6,2.6l-1.6,1
					c-0.4,0.2-0.7,0.5-0.9,1h4.2v1.4h-6.1c0-1.4,0.5-2.6,2-3.5l1.4-0.9c0.8-0.5,1.1-1,1.1-1.6c0-0.7-0.5-1.3-1.4-1.3
					c-1,0-1.5,0.7-1.5,1.6c0,0.1,0,0.3,0,0.4L531.8,322.7z"/>
				<path fill="#231F20" d="M539.8,320.8c0.5-0.8,1.4-1.4,2.7-1.4c1.3,0,2.1,0.6,2.7,1.4c0.6,0.9,0.8,1.9,0.8,3s-0.2,2.2-0.8,3
					c-0.5,0.8-1.4,1.4-2.7,1.4c-1.3,0-2.1-0.6-2.7-1.4c-0.6-0.9-0.8-1.9-0.8-3S539.3,321.7,539.8,320.8z M541.2,326.2
					c0.3,0.4,0.7,0.6,1.3,0.6c0.6,0,1-0.2,1.3-0.6c0.4-0.5,0.6-1.3,0.6-2.4s-0.2-1.9-0.6-2.4c-0.3-0.4-0.7-0.6-1.3-0.6
					c-0.6,0-1,0.2-1.3,0.6c-0.4,0.5-0.6,1.3-0.6,2.4S540.8,325.7,541.2,326.2z"/>
				<path fill="#231F20" d="M549.1,328v-5.8h-2v-1.1c1.2,0,2-0.7,2.2-1.6h1.3v8.4H549.1z"/>
				<path fill="#231F20" d="M553.4,320.8c0.5-0.8,1.4-1.4,2.7-1.4c1.3,0,2.1,0.6,2.7,1.4c0.6,0.9,0.8,1.9,0.8,3s-0.2,2.2-0.8,3
					c-0.5,0.8-1.4,1.4-2.7,1.4c-1.3,0-2.1-0.6-2.7-1.4c-0.6-0.9-0.8-1.9-0.8-3S552.8,321.7,553.4,320.8z M554.7,326.2
					c0.3,0.4,0.7,0.6,1.3,0.6c0.6,0,1-0.2,1.3-0.6c0.4-0.5,0.6-1.3,0.6-2.4s-0.2-1.9-0.6-2.4c-0.3-0.4-0.7-0.6-1.3-0.6
					c-0.6,0-1,0.2-1.3,0.6c-0.4,0.5-0.6,1.3-0.6,2.4S554.3,325.7,554.7,326.2z"/>
			</g>
		</g>
		<g>
			<g>
				<path fill="#231F20" d="M568.8,322.7c0-0.1,0-0.3,0-0.5c0-1.5,1.1-2.8,3-2.8c1.9,0,3,1.2,3,2.6c0,1.1-0.6,2-1.6,2.6l-1.6,1
					c-0.4,0.2-0.7,0.5-0.9,1h4.2v1.4h-6.1c0-1.4,0.5-2.6,2-3.5l1.4-0.9c0.8-0.5,1.1-1,1.1-1.6c0-0.7-0.5-1.3-1.4-1.3
					c-1,0-1.5,0.7-1.5,1.6c0,0.1,0,0.3,0,0.4L568.8,322.7z"/>
				<path fill="#231F20" d="M576.9,320.8c0.5-0.8,1.4-1.4,2.7-1.4c1.3,0,2.1,0.6,2.7,1.4c0.6,0.9,0.8,1.9,0.8,3s-0.2,2.2-0.8,3
					c-0.5,0.8-1.4,1.4-2.7,1.4c-1.3,0-2.1-0.6-2.7-1.4c-0.6-0.9-0.8-1.9-0.8-3S576.3,321.7,576.9,320.8z M578.3,326.2
					c0.3,0.4,0.7,0.6,1.3,0.6c0.6,0,1-0.2,1.3-0.6c0.4-0.5,0.6-1.3,0.6-2.4s-0.2-1.9-0.6-2.4c-0.3-0.4-0.7-0.6-1.3-0.6
					c-0.6,0-1,0.2-1.3,0.6c-0.4,0.5-0.6,1.3-0.6,2.4S577.9,325.7,578.3,326.2z"/>
				<path fill="#231F20" d="M586.2,328v-5.8h-2v-1.1c1.2,0,2-0.7,2.2-1.6h1.3v8.4H586.2z"/>
				<path fill="#231F20" d="M589.7,322.7c0-0.1,0-0.3,0-0.5c0-1.5,1.1-2.8,3-2.8c1.9,0,3,1.2,3,2.6c0,1.1-0.6,2-1.6,2.6l-1.6,1
					c-0.4,0.2-0.7,0.5-0.9,1h4.2v1.4h-6.1c0-1.4,0.5-2.6,2-3.5l1.4-0.9c0.8-0.5,1.1-1,1.1-1.6c0-0.7-0.5-1.3-1.4-1.3
					c-1,0-1.5,0.7-1.5,1.6c0,0.1,0,0.3,0,0.4L589.7,322.7z"/>
			</g>
		</g>
		<g>
			<g>
				<path fill="#231F20" d="M605.9,322.7c0-0.1,0-0.3,0-0.5c0-1.5,1.1-2.8,3-2.8c1.9,0,3,1.2,3,2.6c0,1.1-0.6,2-1.6,2.6l-1.6,1
					c-0.4,0.2-0.7,0.5-0.9,1h4.2v1.4h-6.1c0-1.4,0.5-2.6,2-3.5l1.4-0.9c0.8-0.5,1.1-1,1.1-1.6c0-0.7-0.5-1.3-1.4-1.3
					c-1,0-1.5,0.7-1.5,1.6c0,0.1,0,0.3,0,0.4L605.9,322.7z"/>
				<path fill="#231F20" d="M614,320.8c0.5-0.8,1.4-1.4,2.7-1.4c1.3,0,2.1,0.6,2.7,1.4c0.6,0.9,0.8,1.9,0.8,3s-0.2,2.2-0.8,3
					c-0.5,0.8-1.4,1.4-2.7,1.4c-1.3,0-2.1-0.6-2.7-1.4c-0.6-0.9-0.8-1.9-0.8-3S613.4,321.7,614,320.8z M615.3,326.2
					c0.3,0.4,0.7,0.6,1.3,0.6c0.6,0,1-0.2,1.3-0.6c0.4-0.5,0.6-1.3,0.6-2.4s-0.2-1.9-0.6-2.4c-0.3-0.4-0.7-0.6-1.3-0.6
					c-0.6,0-1,0.2-1.3,0.6c-0.4,0.5-0.6,1.3-0.6,2.4S614.9,325.7,615.3,326.2z"/>
				<path fill="#231F20" d="M623.3,328v-5.8h-2v-1.1c1.2,0,2-0.7,2.2-1.6h1.3v8.4H623.3z"/>
				<path fill="#231F20" d="M626.5,324.5l3.6-4.9h2v5.2h1.4v1.4H632v1.8h-1.5v-1.8h-4V324.5z M630.5,321.2l-2.6,3.6h2.6V321.2z"/>
			</g>
		</g>
		<g>
			<g>
				<path fill="#231F20" d="M643,322.7c0-0.1,0-0.3,0-0.5c0-1.5,1.1-2.8,3-2.8c1.9,0,3,1.2,3,2.6c0,1.1-0.6,2-1.6,2.6l-1.6,1
					c-0.4,0.2-0.7,0.5-0.9,1h4.2v1.4h-6.1c0-1.4,0.5-2.6,2-3.5l1.4-0.9c0.8-0.5,1.1-1,1.1-1.6c0-0.7-0.5-1.3-1.4-1.3
					c-1,0-1.5,0.7-1.5,1.6c0,0.1,0,0.3,0,0.4L643,322.7z"/>
				<path fill="#231F20" d="M651.1,320.8c0.5-0.8,1.4-1.4,2.7-1.4c1.3,0,2.1,0.6,2.7,1.4c0.6,0.9,0.8,1.9,0.8,3s-0.2,2.2-0.8,3
					c-0.5,0.8-1.4,1.4-2.7,1.4c-1.3,0-2.1-0.6-2.7-1.4c-0.6-0.9-0.8-1.9-0.8-3S650.5,321.7,651.1,320.8z M652.4,326.2
					c0.3,0.4,0.7,0.6,1.3,0.6c0.6,0,1-0.2,1.3-0.6c0.4-0.5,0.6-1.3,0.6-2.4s-0.2-1.9-0.6-2.4c-0.3-0.4-0.7-0.6-1.3-0.6
					c-0.6,0-1,0.2-1.3,0.6c-0.4,0.5-0.6,1.3-0.6,2.4S652,325.7,652.4,326.2z"/>
				<path fill="#231F20" d="M660.4,328v-5.8h-2v-1.1c1.2,0,2-0.7,2.2-1.6h1.3v8.4H660.4z"/>
				<path fill="#231F20" d="M669.7,321.1c-0.3-0.2-0.8-0.3-1.4-0.3c-1.6,0-2.7,1-2.9,2.7c0.4-0.7,1.2-1,2.1-1c1.7,0,2.8,1.1,2.8,2.8
					c0,1.7-1.4,2.9-3.2,2.9c-2.1,0-3.4-1.7-3.4-3.9c0-3,1.9-4.9,4.5-4.9c0.8,0,1.4,0.2,1.8,0.4L669.7,321.1z M667.2,326.9
					c0.9,0,1.6-0.6,1.6-1.6c0-1-0.8-1.6-1.6-1.6s-1.6,0.6-1.6,1.6C665.6,326.3,666.4,326.9,667.2,326.9z"/>
			</g>
		</g>
		
			<line fill="none" stroke="#EA5284" stroke-width="1.5" stroke-linejoin="round" stroke-miterlimit="10" stroke-dasharray="6,4.5" x1="23.2" y1="228.3" x2="670.9" y2="228.3"/>
		<g>
			<path fill="#EA5284" d="M693.3,222.1c0,0.4,0,0.8,0,1.2c0.7,3.7,1.7,6,3.8,7.9c-0.5,0.4-1.1,1.2-1.4,1.8c-1.5-1.5-2.5-3-3.2-5
				c-0.6,1.8-1.5,3.6-3,5c-0.2-0.3-0.6-0.8-0.9-1.2c-0.5,0.1-1.3,0.1-2,0.1h-3.7c-2.5,0-3.4-1-3.4-3.7v-10.7h-0.6v-1.9h9.7v1.9h-7.1
				v10.8c0,1.2,0.3,1.7,1.2,1.7h3.9c0.7,0,1.5-0.1,1.9-0.2l0.1,0.7c2.3-2.7,2.6-6.2,2.6-8.4v-1.5h2.1V222.1z M681.9,223.9h3v4.9h-3
				V223.9z M687.5,223h-4.9v-4.4h4.9V223z M683,227.5h0.8v-2.2H683V227.5z M685.7,219.9h-1.5v1.7h1.5V219.9z M688.5,228.9h-3.1V224
				h3.1V228.9z M687.4,225.3h-0.9v2.2h0.9V225.3z M691.2,219.6c-0.4,1.4-1,2.7-1.7,3.7c-0.4-0.3-1.3-1-1.8-1.2
				c1.3-1.7,2-4.5,2.4-7.4l2.1,0.3c-0.1,0.9-0.3,1.7-0.5,2.5h3.6l0.3-0.1l1.5,0.4c-0.4,1.9-1,4.1-1.6,5.5l-1.7-0.6
				c0.3-0.8,0.6-2.1,0.9-3.2H691.2z"/>
			<path fill="#EA5284" d="M713.9,230.4c0.6,0,0.8-0.5,0.9-3.3c0.5,0.4,1.5,0.8,2.1,1c-0.2,3.5-0.8,4.5-2.8,4.5h-2.3
				c-2.2,0-2.8-0.7-2.8-3v-5.9H706c-0.3,4-1.2,7.4-5.9,9.2c-0.3-0.6-0.9-1.4-1.4-1.9c4-1.5,4.6-4.1,4.8-7.4h-4.4v-2.3h17.3v2.3h-5.1
				v5.9c0,0.7,0.1,0.9,0.8,0.9H713.9z M714.7,218.4h-13.8v-2.2h13.8V218.4z"/>
			<path fill="#EA5284" d="M732.7,230.1c1.2,0,2.8-0.1,3.6-0.3c0.1,0.6,0.2,1.6,0.3,2.2c-0.7,0.2-2.5,0.2-4,0.2h-7.7
				c-3.4,0-5-1-5-4.6v-10.1h-0.8v-2h16.5v2h-13.5v10.3c0,1.7,0.6,2.3,2.6,2.3H732.7z M723,223.9h5.4v5.2H723V223.9z M724.9,227.5
				h1.5v-2.1h-1.5V227.5z M732.7,223H725v-4.6h7.6V223z M730.4,219.9h-3.2v1.6h3.2V219.9z M734.7,229.1h-5.5v-5.2h5.5V229.1z
				 M732.7,225.4h-1.6v2.1h1.6V225.4z"/>
			<path fill="#EA5284" d="M756.4,226.5h-7.6v6.4h-2.4v-6.4h-7.6v-2.4h7.6v-5.9h-6.5V216h15.5v2.3h-6.5v5.9h7.6V226.5z M743.2,218.9
				c0.6,1.2,1.3,2.9,1.6,4l-2.3,0.7c-0.2-1-0.8-2.7-1.4-4L743.2,218.9z M750.4,222.9c0.6-1.1,1.3-2.8,1.7-4.1l2.5,0.6
				c-0.7,1.5-1.5,3.1-2.1,4.1L750.4,222.9z"/>
			<path fill="#EA5284" d="M764.6,225l0.5,2c-2,1-4.2,2-5.9,2.9l-0.9-2.3c0.7-0.2,1.5-0.6,2.4-0.9v-5.2h-2v-2.2h2V215h2.2v4.2h1.8
				v2.2h-1.8v4.3L764.6,225z M776.3,218.8c-0.2,8.8-0.4,11.9-1.2,12.9c-0.6,0.8-1.1,1-2,1.1c-0.8,0.1-2,0.1-3.2,0
				c0-0.6-0.4-1.6-0.8-2.3c1.4,0.1,2.6,0.1,3.1,0.1c0.4,0,0.6-0.1,0.8-0.3c0.6-0.6,0.8-3.7,1-10.7h-5.7c-0.5,1.1-1.1,2.1-1.7,3
				c-0.4-0.3-1.4-1-1.9-1.2c1.4-1.6,2.6-4.2,3.3-6.7l2.1,0.5c-0.2,0.8-0.5,1.6-0.8,2.4h7V218.8z M767,226h5.9v2H767V226z
				 M772.5,222.2v2h-4.5v-2H772.5z"/>
			<path fill="#EA5284" d="M780.7,219.4c0-1.1,0.8-1.8,1.8-1.8c1,0,1.8,0.8,1.8,1.8c0,1-0.8,1.8-1.8,1.8
				C781.5,221.2,780.7,220.4,780.7,219.4z M780.7,228.7c0-1.1,0.8-1.8,1.8-1.8c1,0,1.8,0.8,1.8,1.8c0,1-0.8,1.8-1.8,1.8
				C781.5,230.5,780.7,229.7,780.7,228.7z"/>
			<path fill="#EA5284" d="M789.5,228.9h3.1v-9.1H790v-1.8c1.4-0.3,2.4-0.6,3.3-1.2h2.1v12.1h2.7v2.3h-8.6V228.9z"/>
			<path fill="#EA5284" d="M802.3,228.2c0.5,0.6,1.4,1,2.3,1c1.6,0,3-1.2,3.1-4.8c-0.7,1-2,1.6-3,1.6c-2.4,0-4.1-1.5-4.1-4.5
				c0-3,2.1-4.8,4.5-4.8c2.7,0,5.2,2.1,5.2,7.1c0,5.4-2.7,7.8-5.5,7.8c-1.8,0-3.1-0.8-3.9-1.6L802.3,228.2z M807.6,222.3
				c-0.3-2.6-1.2-3.6-2.5-3.6c-1.1,0-1.9,0.9-1.9,2.6c0,1.7,0.8,2.5,2,2.5C806,223.9,806.9,223.4,807.6,222.3z"/>
			<path fill="#EA5284" d="M813.1,229.6c0-1,0.8-1.9,1.8-1.9c1,0,1.8,0.8,1.8,1.9s-0.8,1.9-1.8,1.9
				C813.9,231.5,813.1,230.7,813.1,229.6z"/>
			<path fill="#EA5284" d="M821.1,228.2c0.5,0.6,1.4,1,2.3,1c1.6,0,3-1.2,3.1-4.8c-0.7,1-2,1.6-3,1.6c-2.4,0-4.1-1.5-4.1-4.5
				c0-3,2.1-4.8,4.5-4.8c2.7,0,5.2,2.1,5.2,7.1c0,5.4-2.7,7.8-5.5,7.8c-1.8,0-3.1-0.8-3.9-1.6L821.1,228.2z M826.4,222.3
				c-0.3-2.6-1.2-3.6-2.5-3.6c-1.1,0-1.9,0.9-1.9,2.6c0,1.7,0.8,2.5,2,2.5C824.8,223.9,825.7,223.4,826.4,222.3z"/>
			<path fill="#EA5284" d="M834.2,225.6l-3.2-5.2h3.1l1.1,1.9c0.3,0.6,0.6,1.2,1,1.8h0.1c0.3-0.6,0.5-1.2,0.8-1.8l0.9-1.9h3
				l-3.2,5.5l3.4,5.3H838l-1.2-2c-0.3-0.6-0.7-1.3-1-1.9h-0.1c-0.3,0.6-0.6,1.3-0.9,1.9l-1,2h-3L834.2,225.6z"/>
		</g>
		<g>
			<path fill="#7F58A5" d="M686.3,253.4c-2.5,0.7-5.1,1.4-7.1,2l-0.6-2.2c0.8-0.2,1.8-0.4,2.8-0.7l0.1-3.9l-2.2,0l0-2.1l2.2,0
				l0.1-3.4l-2.3,0l0-2.1l6.8,0.1l0,2.1l-2.3,0l-0.1,3.4l2.1,0l0,2.1l-2.1,0l0,3.3l2.3-0.6L686.3,253.4z M694.8,256.3
				c0.3,0,0.4-0.3,0.5-2.2c0.4,0.4,1.3,0.7,1.9,0.9c-0.2,2.7-0.8,3.4-2.2,3.3l-1.4,0c-1.8,0-2.2-0.7-2.2-2.6l0.1-3.9l-1.2,0
				c-0.4,3.2-1.3,5.4-5.5,6.6c-0.2-0.6-0.8-1.5-1.3-2c3.6-0.8,4.3-2.4,4.5-4.7l-1.4,0l0.2-10.9l9.5,0.1l-0.2,10.9l-2.4,0l-0.1,3.8
				c0,0.6,0,0.6,0.4,0.6L694.8,256.3z M688.8,249.9l5.1,0.1l0-1.2l-5.1-0.1L688.8,249.9z M688.9,246.9l5.1,0.1l0-1.2l-5.1-0.1
				L688.9,246.9z M688.9,244l5.1,0.1l0-1.2l-5.1-0.1L688.9,244z"/>
			<path fill="#7F58A5" d="M705,241.1c-0.5,1.4-1.2,2.8-1.9,4.2l-0.2,13.1l-2.1,0l0.1-9.7c-0.4,0.4-0.7,0.9-1.1,1.3
				c-0.2-0.6-0.8-1.8-1.2-2.4c1.7-1.7,3.3-4.5,4.3-7.2L705,241.1z M716.8,256.4l0,1.9l-13.1-0.2l0-1.9l1.7,0l0.2-10.8l3.4,0
				c0.1-0.4,0.2-0.9,0.3-1.3l-4.4-0.1l0-2l4.7,0.1c0.1-0.6,0.1-1.2,0.2-1.7l2.4,0.1c-0.1,0.5-0.2,1.1-0.3,1.6l4.8,0.1l0,2l-5.2-0.1
				c-0.1,0.5-0.2,0.9-0.3,1.3l4.5,0.1l-0.2,10.8L716.8,256.4z M707.5,256.2l5.7,0.1l0-1.1l-5.7-0.1L707.5,256.2z M707.5,252.5l0,1.1
				l5.7,0.1l0-1.1L707.5,252.5z M713.3,249.9l-5.7-0.1l0,1.1l5.7,0.1L713.3,249.9z M707.6,247.2l0,1.1l5.7,0.1l0-1.1L707.6,247.2z"
				/>
			<path fill="#7F58A5" d="M721,254.5c0-1.1,0.8-1.8,1.9-1.8c1,0,1.8,0.8,1.8,1.9c0,1-0.8,1.8-1.9,1.8
				C721.8,256.3,721,255.5,721,254.5z M721.2,245.2c0-1.1,0.8-1.8,1.9-1.8c1,0,1.8,0.8,1.8,1.9c0,1-0.8,1.8-1.9,1.8
				C722,247.1,721.2,246.3,721.2,245.2z"/>
			<path fill="#7F58A5" d="M729.8,254.9l3.1,0l0.1-9.1l-2.6,0l0-1.8c1.4-0.3,2.4-0.6,3.4-1.2l2.1,0l-0.2,12.1l2.7,0l0,2.3l-8.6-0.1
				L729.8,254.9z"/>
			<path fill="#7F58A5" d="M747.7,245.5l-6.5-0.1l0-2.4l9.6,0.1l0,1.7c-3.4,4-3.9,7-4.2,12.6l-2.9,0
				C744.1,252.4,744.9,249.2,747.7,245.5z"/>
			<path fill="#7F58A5" d="M753.4,256c0-1,0.8-1.9,1.8-1.8c1,0,1.8,0.8,1.8,1.9s-0.8,1.9-1.8,1.8C754.2,257.8,753.4,257,753.4,256z"
				/>
			<path fill="#7F58A5" d="M760.5,255.3l3.1,0l0.1-9.1l-2.6,0l0-1.8c1.4-0.3,2.4-0.6,3.4-1.2l2.1,0l-0.2,12.1l2.7,0l0,2.3l-8.6-0.1
				L760.5,255.3z"/>
			<path fill="#7F58A5" d="M774.6,252.2l-3.1-5.3l3.1,0l1.1,2c0.3,0.6,0.6,1.2,0.9,1.8l0.1,0c0.3-0.6,0.6-1.2,0.8-1.8l0.9-1.9l3,0
				l-3.3,5.5l3.3,5.4l-3.1,0l-1.2-2c-0.3-0.6-0.7-1.3-1-1.9l-0.1,0c-0.3,0.6-0.6,1.3-0.9,1.9l-1,2l-3,0L774.6,252.2z"/>
		</g>
		<path fill="#EA5284" d="M672.3,277.7c-29.3-7.3-47.3-37-40-66.4c7.3-29.3,37-47.3,66.4-40c14.2,3.5,26.2,12.4,33.8,24.9l-0.9,0.6
			c-7.4-12.3-19.2-21-33.1-24.4c-28.8-7.1-57.9,10.5-65.1,39.2s10.5,57.9,39.2,65c16,4,32.7,0.4,45.8-9.7l0.7,0.9
			C705.7,278.1,688.7,281.7,672.3,277.7z"/>
	</g>
</g>
<g>
	<path fill="#A7A9AC" d="M16.9,387h-4v-0.8h4V387z M18,394.2c-1.1,0.7-2.9,1.3-4.3,1.7c-0.2-0.2-0.5-0.6-0.8-0.8
		c1.4-0.3,3.1-0.8,4.1-1.3L18,394.2z M16.6,384.8h-3.3V384h3.3V384.8z M14.7,388.1h9.1v5.6h-9.1V388.1z M15.7,389.8h7v-1h-7V389.8z
		 M15.7,391.4h7v-1h-7V391.4z M15.7,393h7v-1h-7V393z M19.1,384.9c-0.3,0.5-0.7,1-1.1,1.4c-0.2-0.2-0.6-0.4-0.8-0.5
		c0.7-0.7,1.3-1.6,1.6-2.7l0.9,0.2c-0.1,0.3-0.2,0.5-0.3,0.8h4.7l0.2,0l0.7,0.2c-0.4,0.7-0.8,1.5-1.2,2l-0.8-0.3
		c0.2-0.3,0.5-0.7,0.7-1.1h-2.2v0.2c0,0.1,0,0.3,0,0.5c0.7,0.8,2.3,1.4,4.1,1.5c-0.2,0.2-0.5,0.6-0.6,0.8c-1.6-0.2-2.9-0.8-3.8-1.6
		c-0.5,0.7-1.6,1.3-4,1.7c-0.1-0.2-0.4-0.6-0.6-0.8c3.6-0.5,4-1.4,4-2.2v-0.1H19.1z M21.2,393.8c1.5,0.5,3.1,1.1,4.1,1.5l-0.9,0.6
		c-0.9-0.4-2.4-1-3.9-1.6L21.2,393.8z"/>
	<path fill="#A7A9AC" d="M29.2,389.9c-0.3,1.6-0.9,3.5-1.6,4.5c-0.1-0.4-0.4-0.8-0.5-1.1c0.6-0.8,1.2-2.4,1.4-3.6L29.2,389.9z
		 M30.4,388.8v7.1h-1v-7.1h-2.2v-1h2.2v-4.7h1v4.7h2.3v1H30.4z M28.1,387.4c-0.1-0.8-0.4-2.1-0.8-3.1l0.8-0.2c0.4,1,0.7,2.2,0.8,3.1
		L28.1,387.4z M31.1,389.7c0.3,0.4,1.3,2.3,1.5,2.8l-0.7,0.8c-0.3-0.8-1-2.5-1.3-3.2L31.1,389.7z M32.7,384.2
		c-0.3,1.1-0.8,2.4-1.1,3.1l-0.7-0.2c0.3-0.8,0.7-2.2,0.9-3.1L32.7,384.2z M38.2,392v3.9h-1v-3.8l-4.3,0.8l-0.2-1l4.5-0.8v-8h1v7.9
		l1.7-0.3l0.2,1L38.2,392z M35.3,390.1c-0.5-0.5-1.5-1.2-2.3-1.7l0.5-0.7c0.8,0.4,1.8,1.1,2.3,1.6L35.3,390.1z M35.9,386.7
		c-0.4-0.5-1.4-1.3-2.2-1.8l0.5-0.7c0.8,0.5,1.8,1.2,2.2,1.7L35.9,386.7z"/>
	<path fill="#A7A9AC" d="M48.4,389.5c1.2,2.1,3.6,4.1,6,5c-0.3,0.2-0.6,0.6-0.8,0.9c-1.9-0.9-3.8-2.4-5.2-4.2v4.8h-1.1v-4.8
		c-1.4,1.8-3.3,3.3-5.1,4.2c-0.2-0.3-0.5-0.7-0.7-0.9c2.3-0.9,4.6-2.9,5.9-4.9v-3.4h-5.4v-1h5.4v-1.9h1.1v1.9h5.6v1h-5.6V389.5z
		 M45.4,386.6c-0.1,0.6-0.3,1.1-0.5,1.7c0.6,0.5,1.2,1.1,1.6,1.5l-0.7,0.7c-0.3-0.3-0.8-0.9-1.3-1.4c-0.5,0.9-1.1,1.6-1.8,2.2
		c-0.2-0.2-0.6-0.5-0.8-0.7c1.3-1,2.1-2.5,2.5-4.3L45.4,386.6z M52,386.6c-0.1,0.6-0.3,1.1-0.5,1.7c0.9,0.7,2,1.6,2.5,2.2l-0.7,0.7
		c-0.5-0.5-1.4-1.3-2.2-2c-0.4,0.6-0.8,1.2-1.2,1.7c-0.2-0.2-0.6-0.4-0.9-0.6c1-0.9,1.7-2.2,2-3.8L52,386.6z"/>
	<path fill="#A7A9AC" d="M58.1,389.3c-0.5-0.4-1.6-1.1-2.4-1.5l0.6-0.7c0.8,0.4,1.8,1,2.4,1.4L58.1,389.3z M59,391.3
		c-0.6,1.5-1.4,3.2-2,4.5l-0.9-0.6c0.6-1.1,1.5-2.9,2.1-4.5L59,391.3z M58.8,385.6c-0.5-0.4-1.6-1.1-2.3-1.6l0.6-0.7
		c0.8,0.4,1.8,1.1,2.3,1.5L58.8,385.6z M61,387.7c0,2.4-0.2,5.9-1.9,8.2c-0.2-0.2-0.6-0.4-0.9-0.5c1.6-2.2,1.7-5.4,1.7-7.7v-3.8h8.5
		v1H61V387.7z M63.2,392.3c-0.5,1-1.2,2.1-1.8,2.9c-0.2-0.2-0.6-0.4-0.8-0.5c0.6-0.7,1.3-1.7,1.7-2.6L63.2,392.3z M65.3,391.2v3.7
		c0,0.5-0.1,0.8-0.5,0.9c-0.4,0.2-1,0.2-1.9,0.1c0-0.3-0.2-0.6-0.3-0.9c0.7,0,1.3,0,1.4,0c0.2,0,0.2-0.1,0.2-0.2v-3.6h-2.5v-4.8h2.1
		c0.2-0.4,0.3-1,0.4-1.4l1.2,0.2c-0.2,0.4-0.4,0.8-0.6,1.2H68v4.8H65.3z M62.7,388.4H67v-1.2h-4.3V388.4z M62.7,390.4H67v-1.2h-4.3
		V390.4z M67.1,391.9c0.5,0.9,1.2,2,1.6,2.7l-1,0.4c-0.3-0.7-1-1.9-1.5-2.7L67.1,391.9z"/>
	<path fill="#A7A9AC" d="M72,386.2c0-0.6,0.5-1.1,1.1-1.1c0.6,0,1.1,0.4,1.1,1.1s-0.5,1.1-1.1,1.1C72.5,387.3,72,386.9,72,386.2z
		 M72,393.1c0-0.6,0.5-1.1,1.1-1.1c0.6,0,1.1,0.4,1.1,1.1c0,0.6-0.5,1-1.1,1C72.5,394.1,72,393.7,72,393.1z"/>
	<path fill="#A7A9AC" d="M80.5,385.7h-3.1v-1.1h7.5v1.1h-3.1v9.2h-1.3V385.7z"/>
	<path fill="#A7A9AC" d="M86.9,383.7h1.3v3.1l0,1.6c0.7-0.7,1.5-1.3,2.5-1.3c1.6,0,2.3,1,2.3,3v4.8h-1.3v-4.7c0-1.4-0.4-2-1.4-2
		c-0.8,0-1.3,0.4-2.1,1.2v5.5h-1.3V383.7z"/>
	<path fill="#A7A9AC" d="M95.2,391.1c0-2.5,1.7-4,3.5-4c1.9,0,3.5,1.5,3.5,4c0,2.5-1.7,4-3.5,4C96.9,395.1,95.2,393.6,95.2,391.1z
		 M101,391.1c0-1.8-0.9-2.9-2.2-2.9c-1.3,0-2.2,1.2-2.2,2.9s0.9,2.9,2.2,2.9C100.1,394,101,392.8,101,391.1z"/>
	<path fill="#A7A9AC" d="M104.6,387.3h1.1l0.1,1.1h0c0.7-0.7,1.5-1.3,2.4-1.3c1.2,0,1.8,0.6,2.1,1.5c0.8-0.9,1.6-1.5,2.5-1.5
		c1.6,0,2.3,1,2.3,3v4.8h-1.3v-4.7c0-1.4-0.4-2-1.4-2c-0.6,0-1.2,0.4-1.9,1.2v5.5h-1.3v-4.7c0-1.4-0.4-2-1.4-2
		c-0.6,0-1.2,0.4-1.9,1.2v5.5h-1.3V387.3z"/>
	<path fill="#A7A9AC" d="M117.1,394l0.6-0.8c0.7,0.5,1.3,0.9,2.3,0.9c1,0,1.5-0.5,1.5-1.2c0-0.8-0.9-1.1-1.7-1.4
		c-1.1-0.4-2.3-0.9-2.3-2.2c0-1.2,1-2.2,2.6-2.2c0.9,0,1.8,0.4,2.4,0.9l-0.6,0.8c-0.5-0.4-1.1-0.7-1.8-0.7c-1,0-1.4,0.5-1.4,1.1
		c0,0.7,0.8,1,1.7,1.3c1.1,0.4,2.3,0.9,2.3,2.3c0,1.2-1,2.3-2.8,2.3C118.9,395.1,117.8,394.6,117.1,394z"/>
	<path fill="#A7A9AC" d="M124.3,391.1c0-2.5,1.7-4,3.5-4c1.9,0,3.5,1.5,3.5,4c0,2.5-1.7,4-3.5,4
		C125.9,395.1,124.3,393.6,124.3,391.1z M130,391.1c0-1.8-0.9-2.9-2.2-2.9c-1.3,0-2.2,1.2-2.2,2.9s0.9,2.9,2.2,2.9
		C129.1,394,130,392.8,130,391.1z"/>
	<path fill="#A7A9AC" d="M133.7,387.3h1.1l0.1,1.1h0c0.7-0.7,1.5-1.3,2.5-1.3c1.6,0,2.3,1,2.3,3v4.8h-1.3v-4.7c0-1.4-0.4-2-1.4-2
		c-0.8,0-1.3,0.4-2.1,1.2v5.5h-1.3V387.3z"/>
	<path fill="#A7A9AC" d="M146.2,384.6h2.6c3.2,0,4.8,1.8,4.8,5.1c0,3.3-1.7,5.2-4.8,5.2h-2.6V384.6z M148.6,393.8
		c2.4,0,3.6-1.5,3.6-4.1c0-2.6-1.2-4-3.6-4h-1.2v8.2H148.6z"/>
	<path fill="#A7A9AC" d="M155.6,392.9c0-1.7,1.4-2.5,4.7-2.8c0-1-0.3-1.9-1.6-1.9c-0.9,0-1.7,0.4-2.3,0.8l-0.5-0.9
		c0.7-0.4,1.8-1,3-1c1.8,0,2.6,1.2,2.6,3.1v4.7h-1.1l-0.1-0.9h0c-0.7,0.6-1.6,1.1-2.5,1.1C156.5,395.1,155.6,394.3,155.6,392.9z
		 M160.2,393v-2.1c-2.6,0.3-3.4,0.9-3.4,1.9c0,0.9,0.6,1.2,1.3,1.2C158.9,394,159.5,393.7,160.2,393z"/>
	<path fill="#A7A9AC" d="M164.3,392.5v-4.2h-1.1v-1l1.2-0.1l0.2-2.1h1.1v2.1h2.1v1h-2.1v4.2c0,0.9,0.3,1.5,1.2,1.5
		c0.3,0,0.6-0.1,0.9-0.2l0.3,1c-0.4,0.1-0.9,0.3-1.4,0.3C164.8,395.1,164.3,394.1,164.3,392.5z"/>
	<path fill="#A7A9AC" d="M168.9,392.9c0-1.7,1.4-2.5,4.7-2.8c0-1-0.3-1.9-1.6-1.9c-0.9,0-1.7,0.4-2.3,0.8l-0.5-0.9
		c0.7-0.4,1.8-1,3-1c1.8,0,2.6,1.2,2.6,3.1v4.7h-1.1l-0.1-0.9h0c-0.7,0.6-1.6,1.1-2.5,1.1C169.8,395.1,168.9,394.3,168.9,392.9z
		 M173.6,393v-2.1c-2.6,0.3-3.4,0.9-3.4,1.9c0,0.9,0.6,1.2,1.3,1.2C172.2,394,172.8,393.7,173.6,393z"/>
	<path fill="#A7A9AC" d="M176.8,394l0.6-0.8c0.7,0.5,1.3,0.9,2.3,0.9c1,0,1.5-0.5,1.5-1.2c0-0.8-0.9-1.1-1.7-1.4
		c-1.1-0.4-2.3-0.9-2.3-2.2c0-1.2,1-2.2,2.6-2.2c0.9,0,1.8,0.4,2.4,0.9l-0.6,0.8c-0.5-0.4-1.1-0.7-1.8-0.7c-1,0-1.4,0.5-1.4,1.1
		c0,0.7,0.8,1,1.7,1.3c1.1,0.4,2.3,0.9,2.3,2.3c0,1.2-1,2.3-2.8,2.3C178.5,395.1,177.5,394.6,176.8,394z"/>
	<path fill="#A7A9AC" d="M184.4,392.5v-4.2h-1.1v-1l1.2-0.1l0.2-2.1h1.1v2.1h2.1v1h-2.1v4.2c0,0.9,0.3,1.5,1.2,1.5
		c0.3,0,0.6-0.1,0.9-0.2l0.3,1c-0.4,0.1-0.9,0.3-1.4,0.3C185,395.1,184.4,394.1,184.4,392.5z"/>
	<path fill="#A7A9AC" d="M189.8,387.3h1.1l0.1,1.4h0c0.5-1,1.3-1.6,2.2-1.6c0.3,0,0.6,0,0.8,0.2l-0.2,1.1c-0.3-0.1-0.4-0.1-0.7-0.1
		c-0.6,0-1.4,0.4-1.9,1.8v4.9h-1.3V387.3z"/>
	<path fill="#A7A9AC" d="M194.9,391.1c0-2.5,1.7-4,3.4-4c1.9,0,3,1.4,3,3.6c0,0.3,0,0.5-0.1,0.7h-5.1c0.1,1.6,1.1,2.7,2.5,2.7
		c0.7,0,1.3-0.2,1.9-0.6l0.5,0.8c-0.7,0.4-1.5,0.8-2.5,0.8C196.5,395.1,194.9,393.6,194.9,391.1z M200.2,390.5
		c0-1.5-0.7-2.4-1.9-2.4c-1.1,0-2,0.9-2.2,2.4H200.2z"/>
	<path fill="#A7A9AC" d="M202.9,392.9c0-1.7,1.4-2.5,4.7-2.8c0-1-0.3-1.9-1.6-1.9c-0.9,0-1.7,0.4-2.3,0.8l-0.5-0.9
		c0.7-0.4,1.8-1,3-1c1.8,0,2.6,1.2,2.6,3.1v4.7h-1.1l-0.1-0.9h0c-0.7,0.6-1.6,1.1-2.5,1.1C203.8,395.1,202.9,394.3,202.9,392.9z
		 M207.5,393v-2.1c-2.6,0.3-3.4,0.9-3.4,1.9c0,0.9,0.6,1.2,1.3,1.2C206.2,394,206.8,393.7,207.5,393z"/>
	<path fill="#A7A9AC" d="M211.6,387.3h1.1l0.1,1.1h0c0.7-0.7,1.5-1.3,2.4-1.3c1.2,0,1.8,0.6,2.1,1.5c0.8-0.9,1.6-1.5,2.5-1.5
		c1.6,0,2.3,1,2.3,3v4.8h-1.3v-4.7c0-1.4-0.4-2-1.4-2c-0.6,0-1.2,0.4-1.9,1.2v5.5h-1.3v-4.7c0-1.4-0.4-2-1.4-2
		c-0.6,0-1.2,0.4-1.9,1.2v5.5h-1.3V387.3z"/>
	<path fill="#A7A9AC" d="M225.7,391.5c1.1-0.4,1.7-1.1,1.8-2.1c-0.1,0-0.2,0-0.2,0c-0.6,0-1.1-0.3-1.1-1c0-0.7,0.5-1,1.1-1
		c0.8,0,1.2,0.6,1.2,1.6c0,1.5-1,2.7-2.4,3.2L225.7,391.5z"/>
	<path fill="#A7A9AC" d="M235.7,387h-4v-0.8h4V387z M236.8,394.2c-1.1,0.7-2.9,1.3-4.3,1.7c-0.2-0.2-0.5-0.6-0.8-0.8
		c1.4-0.3,3.1-0.8,4.1-1.3L236.8,394.2z M235.3,384.8H232V384h3.3V384.8z M233.5,388.1h9.1v5.6h-9.1V388.1z M234.5,389.8h7v-1h-7
		V389.8z M234.5,391.4h7v-1h-7V391.4z M234.5,393h7v-1h-7V393z M237.9,384.9c-0.3,0.5-0.7,1-1.1,1.4c-0.2-0.2-0.6-0.4-0.8-0.5
		c0.7-0.7,1.3-1.6,1.6-2.7l0.9,0.2c-0.1,0.3-0.2,0.5-0.3,0.8h4.7l0.2,0l0.7,0.2c-0.4,0.7-0.8,1.5-1.2,2l-0.8-0.3
		c0.2-0.3,0.5-0.7,0.7-1.1h-2.2v0.2c0,0.1,0,0.3,0,0.5c0.7,0.8,2.3,1.4,4.1,1.5c-0.2,0.2-0.5,0.6-0.6,0.8c-1.6-0.2-2.9-0.8-3.8-1.6
		c-0.5,0.7-1.6,1.3-4,1.7c-0.1-0.2-0.4-0.6-0.6-0.8c3.6-0.5,4-1.4,4-2.2v-0.1H237.9z M240,393.8c1.5,0.5,3.1,1.1,4.1,1.5l-0.9,0.6
		c-0.9-0.4-2.4-1-3.9-1.6L240,393.8z"/>
	<path fill="#A7A9AC" d="M248,389.9c-0.3,1.6-0.9,3.5-1.6,4.5c-0.1-0.4-0.4-0.8-0.5-1.1c0.6-0.8,1.2-2.4,1.4-3.6L248,389.9z
		 M249.2,388.8v7.1h-1v-7.1H246v-1h2.2v-4.7h1v4.7h2.3v1H249.2z M246.9,387.4c-0.1-0.8-0.4-2.1-0.8-3.1l0.8-0.2
		c0.4,1,0.7,2.2,0.8,3.1L246.9,387.4z M249.9,389.7c0.3,0.4,1.3,2.3,1.5,2.8l-0.7,0.8c-0.3-0.8-1-2.5-1.3-3.2L249.9,389.7z
		 M251.5,384.2c-0.3,1.1-0.8,2.4-1.1,3.1l-0.7-0.2c0.3-0.8,0.7-2.2,0.9-3.1L251.5,384.2z M257,392v3.9h-1v-3.8l-4.3,0.8l-0.2-1
		l4.5-0.8v-8h1v7.9l1.7-0.3l0.2,1L257,392z M254.1,390.1c-0.5-0.5-1.5-1.2-2.3-1.7l0.5-0.7c0.8,0.4,1.8,1.1,2.3,1.6L254.1,390.1z
		 M254.7,386.7c-0.4-0.5-1.4-1.3-2.2-1.8l0.5-0.7c0.8,0.5,1.8,1.2,2.2,1.7L254.7,386.7z"/>
	<path fill="#A7A9AC" d="M272.2,388.6c-0.5,1.6-1.2,3.2-2.1,4.5c0.4,1.1,0.9,1.7,1.5,1.7c0.4,0,0.5-0.6,0.6-2.2
		c0.2,0.2,0.6,0.4,0.8,0.5c-0.2,2.1-0.5,2.7-1.5,2.7c-0.9,0-1.6-0.6-2.1-1.8c-0.6,0.7-1.3,1.4-2.1,1.9c-0.2-0.2-0.5-0.5-0.7-0.7
		c0.2-0.1,0.3-0.2,0.4-0.3h-4.6v0.7h-0.9v-5c-0.2,0.3-0.4,0.5-0.6,0.7c-0.2-0.2-0.5-0.4-0.7-0.6c0.9-0.8,1.7-2,2.2-3.2l0.9,0.2
		c-0.2,0.4-0.4,0.8-0.6,1.2h1.9c-0.2-0.4-0.4-0.8-0.6-1.1l0.8-0.3c0.3,0.4,0.7,1,0.8,1.4h1.8v0.8h-2.1v0.9h1.8v0.7h-1.8v1h1.8v0.7
		h-1.8v1h2v0.6c0.6-0.5,1.1-1.1,1.6-1.7c-0.4-1.4-0.7-3.3-0.9-5.5h-7.7v-0.9h3.2v-1.2H261v-0.9h2.6v-1.3h1v1.3h2.5v0.9h-2.5v1.2h3.5
		c-0.1-1.1-0.1-2.2-0.1-3.4h1c0,1.2,0,2.3,0.1,3.4h3.8v0.9h-3.7c0.1,1.7,0.4,3.2,0.6,4.4c0.6-1.1,1.1-2.3,1.5-3.5L272.2,388.6z
		 M264.5,389.9h-2v0.9h2V389.9z M264.5,391.5h-2v1h2V391.5z M262.5,394.1h2v-1h-2V394.1z M271.8,386c-0.4-0.6-1.3-1.5-2-2l0.7-0.5
		c0.8,0.6,1.6,1.4,2.1,2L271.8,386z"/>
	<path fill="#A7A9AC" d="M287.2,394.4v1h-12.4v-1h5.6v-2.6H276v-1h4.4v-1.8h1.1v1.8h4.6v1h-4.6v2.6H287.2z M285.8,389.4
		c-0.2-0.3-0.5-0.6-0.9-1c-7.6,0.4-8.3,0.4-8.8,0.6c-0.1-0.2-0.2-0.8-0.3-1c0.3,0,0.6-0.3,1-0.6c0.4-0.3,1.3-1.3,2.1-2.4h-3.7v-1
		h11.7v1h-6.6c-0.8,1.1-1.7,2.1-2.6,2.9l6.5-0.3c-0.6-0.5-1.2-1-1.7-1.5l0.8-0.5c1.3,0.9,2.8,2.3,3.6,3.2L285.8,389.4z"/>
	<path fill="#A7A9AC" d="M289,394.1c3.2-2.8,4.7-4.9,4.7-6.6c0-1.2-0.6-2-1.9-2c-0.8,0-1.6,0.5-2.1,1.2l-0.7-0.7
		c0.8-0.9,1.7-1.5,3-1.5c1.8,0,3,1.2,3,3c0,2-1.6,4.1-4,6.4c0.5,0,1.2-0.1,1.7-0.1h2.8v1.1H289V394.1z"/>
	<path fill="#A7A9AC" d="M297.2,389.7c0-3.6,1.2-5.3,3.2-5.3c1.9,0,3.2,1.7,3.2,5.3c0,3.6-1.2,5.4-3.2,5.4
		C298.4,395.1,297.2,393.3,297.2,389.7z M302.3,389.7c0-3-0.8-4.3-1.9-4.3c-1.2,0-2,1.3-2,4.3c0,3,0.8,4.3,2,4.3
		C301.5,394,302.3,392.7,302.3,389.7z"/>
	<path fill="#A7A9AC" d="M305.8,393.8h2.3v-7.7h-1.8v-0.8c0.9-0.2,1.6-0.4,2.1-0.7h1v9.2h2.1v1.1h-5.6V393.8z"/>
	<path fill="#A7A9AC" d="M318.4,385.7h-5v-1.1h6.4v0.8c-2.4,3.1-2.9,5.5-3,9.5h-1.3C315.7,391,316.4,388.5,318.4,385.7z"/>
	<path fill="#A7A9AC" d="M334.1,392.8h-5.1v3.2H328v-3.2h-6.5v-1h2.3V388h4.2v-2.1h-3.4c-0.6,1.1-1.4,2-2.1,2.8
		c-0.2-0.2-0.6-0.5-0.9-0.7c1.3-1.1,2.5-3,3.2-4.8l1.1,0.3c-0.2,0.5-0.4,1-0.6,1.5h8.3v1h-4.4v2.1h4.1v1h-4.1v2.8h5.1V392.8z
		 M328,391.8V389h-3.1v2.8H328z"/>
	<path fill="#A7A9AC" d="M335.8,392.3c0-1.4,1-2.3,1.9-2.8v-0.1c-0.8-0.5-1.4-1.3-1.4-2.4c0-1.6,1.2-2.6,2.8-2.6
		c1.8,0,2.8,1.1,2.8,2.7c0,1.1-0.8,2-1.4,2.5v0.1c0.9,0.5,1.7,1.3,1.7,2.7c0,1.5-1.3,2.7-3.2,2.7
		C337.2,395.1,335.8,393.9,335.8,392.3z M341.1,392.4c0-1.4-1.3-1.9-2.7-2.5c-0.8,0.5-1.4,1.3-1.4,2.3c0,1.1,0.9,1.9,2.1,1.9
		C340.3,394.1,341.1,393.4,341.1,392.4z M340.9,387.2c0-1-0.6-1.8-1.8-1.8c-0.9,0-1.6,0.7-1.6,1.7c0,1.2,1.1,1.8,2.3,2.2
		C340.5,388.7,340.9,388,340.9,387.2z"/>
	<path fill="#A7A9AC" d="M354.8,394.4c0,0.7-0.2,1.1-0.7,1.3c-0.5,0.2-1.5,0.2-3,0.2c-0.1-0.3-0.3-0.8-0.4-1.1c1.2,0,2.3,0,2.6,0
		c0.3,0,0.4-0.1,0.4-0.4v-2.8H347c-0.4,1.6-1.1,3.2-2.4,4.4c-0.1-0.2-0.6-0.6-0.8-0.8c2.2-2,2.5-4.8,2.5-7v-4.3h8.5V394.4z
		 M353.7,390.6v-2.4h-6.4c0,0.7,0,1.5-0.2,2.4H353.7z M347.3,384.9v2.3h6.4v-2.3H347.3z"/>
	<path fill="#A7A9AC" d="M358.1,393.7l0.6-0.8c0.6,0.6,1.4,1.2,2.5,1.2c1.2,0,2.1-0.7,2.1-1.9c0-1.2-0.8-2.1-3.2-2.1v-1
		c2.1,0,2.8-0.9,2.8-2c0-1-0.7-1.6-1.7-1.7c-0.8,0-1.6,0.4-2.1,1l-0.7-0.8c0.8-0.7,1.7-1.2,2.9-1.2c1.7,0,3,0.9,3,2.6
		c0,1.2-0.7,2.1-1.8,2.5v0.1c1.2,0.3,2.2,1.2,2.2,2.6c0,1.8-1.5,2.9-3.3,2.9C359.7,395.1,358.7,394.4,358.1,393.7z"/>
	<path fill="#A7A9AC" d="M367,393.8h2.3v-7.7h-1.8v-0.8c0.9-0.2,1.6-0.4,2.1-0.7h1v9.2h2.1v1.1H367V393.8z"/>
	<path fill="#A7A9AC" d="M385.5,384.1v11.6h-1.1v-0.9h-6.9v0.9h-1.1v-11.7H385.5z M377.5,385.2v3.8h6.9v-3.8H377.5z M384.4,393.9
		V390h-6.9v3.9H384.4z"/>
	<path fill="#A7A9AC" d="M391.8,387.5c1.2,0,2.1,1,2.1,2.1s-1,2.1-2.1,2.1c-1.2,0-2.1-1-2.1-2.1S390.6,387.5,391.8,387.5z
		 M391.8,391c0.8,0,1.4-0.6,1.4-1.4c0-0.8-0.6-1.4-1.4-1.4c-0.8,0-1.4,0.6-1.4,1.4C390.4,390.4,391,391,391.8,391z"/>
	<path fill="#A7A9AC" d="M25.4,413.3v1H12.9v-1h5.2v-10.9h1.1v4.3h5.2v1h-5.2v5.5H25.4z"/>
	<path fill="#A7A9AC" d="M30.9,408.8c-0.3,1.3-0.8,2.7-1.4,3.7c0.2,0.2,0.5,0.4,1,0.7c1,0.6,2.2,0.7,3.9,0.7c1.8,0,4-0.1,5.6-0.3
		c-0.1,0.3-0.3,0.8-0.3,1.1c-1,0.1-3.7,0.2-5.3,0.2c-1.8,0-3-0.2-4.1-0.8c-0.6-0.3-1.1-0.8-1.4-0.8c-0.3,0-0.8,0.9-1.2,1.8l-0.7-1
		c0.6-0.8,1.1-1.5,1.6-1.7c0.4-0.8,0.8-1.8,1.1-2.8h-1.9c0.4-0.8,0.9-2,1.2-3.1h-1.8v-0.9h3.1c-0.4,1-0.8,2.2-1.2,3.1h1.2l0.2,0
		L30.9,408.8z M28.8,404.9c-0.2-0.6-0.5-1.5-0.7-2.3l0.9-0.3c0.3,0.7,0.6,1.6,0.8,2.2L28.8,404.9z M33.6,408.1c0,1.4-0.4,3.2-2,4.4
		c-0.2-0.2-0.5-0.5-0.7-0.6c1.5-1.1,1.8-2.7,1.8-3.8v-1h0.9V408.1z M34.7,405.8h-3.7v-1h3.7v-2.5h1v2.5h3.9v1h-3.9v7.1h-1V405.8z
		 M38.5,404.6c-0.4-0.5-1.2-1.2-1.8-1.7l0.7-0.5c0.6,0.5,1.4,1.2,1.8,1.7L38.5,404.6z M39.1,411.1c0.2,0,0.4,0,0.6-0.1
		c0,0.2,0.1,0.6,0.1,0.8c-0.2,0.1-0.4,0.1-0.7,0.1h-1c-0.9,0-1.1-0.3-1.1-1.4V407h0.9v3.6c0,0.4,0,0.5,0.2,0.5H39.1z"/>
	<path fill="#A7A9AC" d="M52.3,404.1c-0.8,1.3-2,2.4-3.4,3.3c1.6,0.9,3.5,1.6,5.5,1.9c-0.2,0.2-0.5,0.7-0.7,1c-2-0.5-4-1.3-5.8-2.3
		c-1.9,1.1-4.1,1.9-6.1,2.4c-0.1-0.3-0.3-0.7-0.5-0.9c1.8-0.4,3.9-1.1,5.7-2c-0.9-0.6-1.7-1.3-2.3-2c-0.7,0.7-1.5,1.3-2.2,1.7
		c-0.2-0.2-0.6-0.6-0.8-0.8c1.8-1,3.4-2.5,4.4-4.2l1,0.3c-0.3,0.4-0.5,0.8-0.8,1.2h5.2l0.2-0.1L52.3,404.1z M43.7,410H52v5h-1.1
		v-0.6h-6.1v0.6h-1V410z M44.8,410.9v2.5h6.1v-2.5H44.8z M45.4,404.7c0.7,0.8,1.6,1.5,2.6,2.1c1.1-0.7,2-1.4,2.7-2.3h-5.2
		L45.4,404.7z"/>
	<path fill="#A7A9AC" d="M58.7,410.4c0.5-0.2,1-0.4,1.5-0.7l0.2,0.9c-1.5,0.7-3,1.4-4.3,1.9l-0.4-1c0.5-0.2,1.2-0.5,1.9-0.8v-4.3H56
		v-1h1.7v-3.2h1v3.2h1.5v1h-1.5V410.4z M66.7,413.7c0.8,0,1-0.4,1.1-2c0.3,0.2,0.6,0.3,0.9,0.4c-0.2,1.9-0.5,2.5-1.9,2.5h-3.4
		c-1.6,0-2.1-0.4-2.1-1.9v-4.4l-1.1,0.5l-0.4-0.9l1.5-0.6v-3.8h1v3.4l1.9-0.8v-3.9h1v3.5l2.1-0.9L68,405l-0.1,0.2
		c-0.1,2-0.4,4.6-0.7,6.1l-0.9-0.3c0.2-1.3,0.4-3.3,0.5-5.1l-1.8,0.8v5.1h-1v-4.7l-1.9,0.8v4.8c0,0.8,0.2,0.9,1.1,0.9H66.7z"/>
	<path fill="#A7A9AC" d="M80.4,413.3c0.8,0,1.8-0.1,2.3-0.2c0,0.3,0.1,0.8,0.2,1c-0.4,0.1-1.4,0.1-2.5,0.1h-6.2
		c-2.1,0-3.2-0.7-3.2-2.7v-7.8h-0.6v-0.9h11.7v0.9H72v7.9c0,1.2,0.5,1.7,2,1.7H80.4z M73.1,408.7h3.6v3.6h-3.6V408.7z M74,411.5h1.9
		v-2.1H74V411.5z M79.9,407.8h-5.2v-3.1h5.2V407.8z M78.8,405.4h-3.2v1.6h3.2V405.4z M81.5,412.3h-3.8v-3.6h3.8V412.3z M80.6,409.5
		h-1.9v2.1h1.9V409.5z"/>
	<path fill="#A7A9AC" d="M88.6,402.5c-0.4,1-0.9,2.1-1.4,3v9.4h-1v-7.9c-0.4,0.6-0.9,1.2-1.4,1.7c-0.1-0.2-0.4-0.8-0.6-1
		c1.4-1.3,2.7-3.4,3.5-5.6L88.6,402.5z M97.3,413.9v0.8h-9v-0.8h4v-1.1h-3.2v-0.8h3.2v-1h-3.4v-0.8h3.4v-0.8h-3.2v-2.8h3.2V406h-2
		v-1.7h-1.9v-0.8h1.9v-1.3h1v1.3h3v-1.3h1v1.3h1.9v0.8h-1.9v1.7h-2v0.7h3.3v2.8h-3.3v0.8h3.5v0.8h-3.5v1h3.2v0.8h-3.2v1.1H97.3z
		 M92.3,408.7v-1.3h-2.3v1.3H92.3z M91.3,405.2h3v-1h-3V405.2z M93.3,407.4v1.3h2.3v-1.3H93.3z"/>
	<path fill="#A7A9AC" d="M111.3,410.1c-0.3,2.9-0.5,4-1,4.5c-0.2,0.3-0.5,0.3-0.9,0.4c-0.4,0-1,0-1.7,0c0-0.3-0.1-0.7-0.3-0.9
		c0.7,0.1,1.3,0.1,1.6,0.1c0.2,0,0.4,0,0.5-0.1c0.3-0.3,0.5-1.2,0.7-3.3h-8.4c-0.7,0.6-1.6,1.2-2.5,1.7c-0.1-0.3-0.4-0.7-0.6-0.9
		c2.6-1.3,4.5-3.4,5.9-5.8h-5v-0.9h2.8c-0.2-0.6-0.6-1.4-1.1-2l0.9-0.4c0.5,0.6,1,1.5,1.1,2l-0.8,0.3h2.5c0.4-0.8,0.7-1.6,1-2.5
		l1,0.3c-0.3,0.7-0.6,1.5-0.9,2.2h2.9c-0.1,0.8-0.3,1.8-0.5,2.5h1.6c-0.1,0.8-0.3,1.8-0.4,2.5h1.4L111.3,410.1z M99.5,414.3
		c0.9-0.6,1.4-1.8,1.6-2.9l0.9,0.3c-0.3,1.2-0.8,2.4-1.7,3.1L99.5,414.3z M104.3,408c-0.4,0.6-0.9,1.1-1.4,1.6h6.1
		c0.1-0.5,0.2-1.1,0.3-1.6H104.3z M103.7,411.7c0.3,0.8,0.4,1.9,0.4,2.5l-0.9,0.1c0-0.7-0.1-1.7-0.3-2.6L103.7,411.7z M105.9,405.5
		c-0.3,0.5-0.6,1.1-1,1.6h2.9c0.1-0.5,0.2-1,0.3-1.6H105.9z M105.8,411.5c0.4,0.7,0.7,1.6,0.8,2.3l-0.9,0.2
		c-0.1-0.6-0.4-1.6-0.7-2.3L105.8,411.5z M108.1,413.3c-0.2-0.5-0.6-1.3-1-1.9l0.7-0.3c0.4,0.6,0.9,1.3,1.1,1.8L108.1,413.3z"/>
	<path fill="#A7A9AC" d="M114.9,406.7v8.3h-1v-12.2h5.1v4H114.9z M114.9,403.5v0.9h3.1v-0.9H114.9z M118,405.9V405h-3.1v0.9H118z
		 M120,413.6v1.2h-0.9v-1.2h-3.2v-0.7h3.2v-0.6h-2.5v-2.9h6v2.9H120v0.6h3.2v0.7H120z M116.3,407.2h2.9v1.8h-2.9V407.2z M117,408.4
		h1.4v-0.7H117V408.4z M117.5,410.6h1.7V410h-1.7V410.6z M119.1,411.8v-0.6h-1.7v0.6H119.1z M122.9,409h-3v-1.9h3V409z M121.7,410
		H120v0.6h1.7V410z M121.7,411.1H120v0.6h1.7V411.1z M125.5,413.8c0,0.5-0.1,0.8-0.5,1c-0.3,0.1-0.9,0.2-1.8,0.2
		c0-0.3-0.2-0.7-0.3-1c0.6,0,1.2,0,1.3,0c0.2,0,0.2-0.1,0.2-0.3v-7.1h-4.2v-3.9h5.2V413.8z M122.2,407.7h-1.5v0.8h1.5V407.7z
		 M121.2,403.5v0.9h3.2v-0.9H121.2z M124.5,405.9V405h-3.2v0.9H124.5z"/>
	<path fill="#A7A9AC" d="M131.4,408.8c-0.3,1.3-0.8,2.7-1.4,3.7c0.2,0.2,0.5,0.4,1,0.7c1,0.6,2.2,0.7,3.9,0.7c1.8,0,4-0.1,5.6-0.3
		c-0.1,0.3-0.3,0.8-0.3,1.1c-1,0.1-3.7,0.2-5.3,0.2c-1.8,0-3-0.2-4.1-0.8c-0.6-0.3-1.1-0.8-1.4-0.8c-0.3,0-0.8,0.9-1.2,1.8l-0.7-1
		c0.6-0.8,1.1-1.5,1.6-1.7c0.4-0.8,0.8-1.8,1.1-2.8h-1.9c0.4-0.8,0.9-2,1.2-3.1h-1.8v-0.9h3.1c-0.4,1-0.8,2.2-1.2,3.1h1.2l0.2,0
		L131.4,408.8z M129.3,404.9c-0.2-0.6-0.5-1.5-0.7-2.3l0.9-0.3c0.3,0.7,0.6,1.6,0.8,2.2L129.3,404.9z M134,408.1
		c0,1.4-0.4,3.2-2,4.4c-0.2-0.2-0.5-0.5-0.7-0.6c1.5-1.1,1.8-2.7,1.8-3.8v-1h0.9V408.1z M135.2,405.8h-3.7v-1h3.7v-2.5h1v2.5h3.9v1
		h-3.9v7.1h-1V405.8z M138.9,404.6c-0.4-0.5-1.2-1.2-1.8-1.7l0.7-0.5c0.6,0.5,1.4,1.2,1.8,1.7L138.9,404.6z M139.6,411.1
		c0.2,0,0.4,0,0.6-0.1c0,0.2,0.1,0.6,0.1,0.8c-0.2,0.1-0.4,0.1-0.7,0.1h-1c-0.9,0-1.1-0.3-1.1-1.4V407h0.9v3.6c0,0.4,0,0.5,0.2,0.5
		H139.6z"/>
	<path fill="#A7A9AC" d="M141.8,408.4c0.3-0.9,0.6-2.5,0.7-3.6l0.8,0.1c-0.1,1.1-0.3,2.7-0.7,3.7L141.8,408.4z M143.9,402.2h1v12.8
		h-1V402.2z M145.7,404.2c0.3,0.7,0.7,1.5,0.9,2.1l-0.7,0.4c-0.2-0.6-0.5-1.5-0.9-2.2L145.7,404.2z M154.7,406.7v0.8h-8.5v-0.8h3.7
		v-1h-2.9V405h2.9v-0.9h-3.3v-0.8h3.3v-1.1h1v1.1h3.4v0.8h-3.4v0.9h3v0.8h-3v1H154.7z M153.8,413.8c0,0.5-0.1,0.8-0.5,0.9
		c-0.4,0.2-1,0.2-2,0.2c0-0.3-0.2-0.6-0.3-0.9c0.7,0,1.4,0,1.6,0c0.2,0,0.3-0.1,0.3-0.2v-1.1h-4.9c-0.1,0.8-0.4,1.7-0.9,2.4
		c-0.2-0.2-0.5-0.6-0.8-0.7c0.8-1.1,0.9-2.5,0.9-3.6v-2.6h6.7V413.8z M152.8,412v-1.1h-4.7c0,0.3,0,0.7,0,1.1H152.8z M148.1,409.1
		v1.1h4.7v-1.1H148.1z"/>
	<path fill="#A7A9AC" d="M162.5,409.5c-2.2,0.2-4.4,0.4-6,0.5l-0.1-0.8c0.8,0,1.7-0.1,2.7-0.2V408H157v-0.7h2.1v-0.8h1v0.8h2.2v0.7
		h-2.2v0.9l2.4-0.2L162.5,409.5z M159,405.2c-0.2,1.1-1.1,1.7-2.2,2c-0.1-0.2-0.3-0.5-0.4-0.7c0.9-0.2,1.6-0.6,1.8-1.3h-1.8v-0.7
		h2.6v-0.8H157V403h2.1v-0.8h1v0.8h2.1v0.7h-2.1v0.8h2.7v0.7h-1.8v0.5c0,0.3,0,0.4,0.2,0.4h0.7c0.2,0,0.5,0,0.6-0.1
		c0,0.2,0,0.4,0.1,0.6c-0.1,0.1-0.4,0.1-0.6,0.1H161c-0.7,0-0.9-0.3-0.9-1.1v-0.5H159z M167.9,410.9c0,0,0,0.3-0.1,0.4
		c-0.2,2-0.4,2.9-0.8,3.3c-0.3,0.3-0.5,0.3-1,0.4c-0.4,0-1.2,0-2,0c0-0.3-0.1-0.7-0.3-1c0.8,0.1,1.6,0.1,1.9,0.1
		c0.3,0,0.4,0,0.5-0.1c0.2-0.2,0.4-0.8,0.6-2.3h-4c-0.7,1.8-2.1,2.8-5.7,3.3c-0.1-0.2-0.3-0.6-0.5-0.9c3.1-0.4,4.5-1.2,5.1-2.5h-4.3
		v-0.8h4.6c0.1-0.3,0.1-0.5,0.2-0.9h1.1c0,0.3-0.1,0.6-0.2,0.9H167.9z M167.8,403.8c0,3.1,0,5.4,0.6,5.4c0.2,0,0.2-0.7,0.3-1.7
		c0.2,0.2,0.4,0.4,0.6,0.6c-0.1,1.5-0.3,2.1-1,2.1c-1.3,0-1.4-2.2-1.4-5.4h-1.4c-0.1,0.8-0.2,1.4-0.3,2.1c0.6,0.4,1.1,0.7,1.5,1
		l-0.5,0.8c-0.3-0.2-0.8-0.6-1.2-0.9c-0.4,1-1,1.7-1.8,2.3c-0.1-0.2-0.4-0.5-0.6-0.7c0.8-0.5,1.4-1.2,1.7-2.1
		c-0.4-0.3-0.9-0.6-1.3-0.8l0.5-0.7c0.3,0.2,0.7,0.4,1.1,0.6c0.1-0.5,0.2-1,0.2-1.6h-1.5v-0.9h1.5c0-0.5,0-1.1,0-1.7h0.9
		c0,0.6,0,1.2-0.1,1.7H167.8z"/>
	<path fill="#A7A9AC" d="M177.5,403.9c-0.2,0.7-0.4,1.4-0.6,2h5.7v7.7c0,0.6-0.1,0.9-0.5,1.1c-0.4,0.2-1.1,0.2-2.1,0.2
		c-0.1-0.3-0.2-0.7-0.4-1c0.8,0,1.5,0,1.7,0c0.2,0,0.3-0.1,0.3-0.3V407h-2.4v7.5h-1V407h-2.3v7.5h-1V407h-2.2v8h-1.1v-9h4.2
		c0.2-0.6,0.4-1.4,0.5-2h-5.4v-1h12.5v1H177.5z"/>
	<path fill="#A7A9AC" d="M189.2,409c-0.5,0.2-1,0.4-1.5,0.6v4.2c0,0.6-0.1,0.9-0.5,1c-0.3,0.2-0.9,0.2-1.7,0.2c0-0.3-0.2-0.7-0.3-1
		c0.6,0,1.2,0,1.3,0c0.2,0,0.2,0,0.2-0.3V410l-1.7,0.6l-0.3-1c0.5-0.2,1.2-0.4,1.9-0.7v-3H185v-1h1.8v-2.8h1v2.8h1.4v1h-1.4v2.6
		l1.3-0.5L189.2,409z M191.4,402.3h1v6.1c0,2.8-0.4,5-3.3,6.5c-0.2-0.2-0.5-0.6-0.7-0.8c2.1-1.1,2.8-2.5,3-4.3
		c-0.8,0.6-1.6,1.2-2.2,1.7l-0.6-0.9c0.7-0.4,1.8-1.2,2.9-1.9v-0.4V402.3z M190.5,407.3c-0.2-0.8-0.8-2-1.4-3l0.8-0.4
		c0.6,0.9,1.2,2.1,1.5,2.9L190.5,407.3z M196.5,413.9c0.3,0,0.4-0.4,0.4-2c0.2,0.2,0.6,0.4,0.9,0.4c-0.1,1.9-0.4,2.5-1.3,2.5h-1.5
		c-1,0-1.3-0.3-1.3-1.6v-10.9h1v6.2l0.3-0.3c1,0.8,2.2,1.9,2.7,2.6l-0.7,0.7c-0.5-0.6-1.4-1.6-2.3-2.4v4c0,0.6,0.1,0.7,0.4,0.7
		H196.5z M197.6,404.2c-0.6,1-1.3,2.2-1.8,3l-0.7-0.4c0.5-0.8,1.2-2.2,1.6-3.1L197.6,404.2z"/>
	<path fill="#A7A9AC" d="M202.7,408.9c-0.2,1.2-0.6,2.5-1.1,3.5c0.3,0.2,0.6,0.4,1.2,0.8c1,0.6,2.3,0.7,3.9,0.7
		c1.8,0,4.1-0.1,5.6-0.3c-0.1,0.3-0.3,0.8-0.3,1.1c-1.1,0.1-3.7,0.2-5.4,0.2c-1.8,0-3.1-0.2-4.1-0.8c-0.6-0.3-1.1-0.8-1.4-0.8
		c-0.3,0-0.8,0.9-1.2,1.8l-0.7-0.9c0.4-0.5,0.8-1,1.1-1.3l0,0c0.6-0.8,1-2,1.3-3.1h-1.8c0.4-0.8,0.9-2,1.2-3.1h-1.6v-0.9h2.9
		c-0.4,1-0.8,2.2-1.2,3.2h0.8l0.2,0L202.7,408.9z M201.1,404.9c-0.2-0.6-0.6-1.6-0.9-2.4l0.9-0.3c0.3,0.7,0.7,1.7,0.9,2.3
		L201.1,404.9z M212,411h-9.1v-0.8h2.4v-1.3h-1.9v-0.8h1.9v-1h1v1h2.3v-1h1v1h1.9v0.8h-1.9v1.3h2.5V411z M206.9,405.7
		c-0.1,0.2-0.2,0.6-0.2,0.8c-2.8,0.5-3.2,0.6-3.4,0.7c-0.1-0.2-0.3-0.6-0.4-0.8c0.2-0.1,0.4-0.3,0.4-0.8v-2.9h3.7v2.4h-2.9v1.1
		L206.9,405.7z M206.7,411.4c-0.8,0.7-1.9,1.4-2.9,1.9c-0.2-0.2-0.5-0.5-0.8-0.6c1-0.4,2.1-1,2.7-1.6L206.7,411.4z M204.2,403.4v0.9
		h2v-0.9H204.2z M206.2,410.2h2.3v-1.3h-2.3V410.2z M208.9,406.9c-1,0-1.2-0.3-1.2-1.3v-2.8h3.8v2.4h-2.9v0.5c0,0.4,0.1,0.5,0.4,0.5
		h1.8c0.3,0,0.7,0,0.9-0.1c0,0.2,0.1,0.5,0.1,0.7c-0.2,0.1-0.6,0.1-0.9,0.1H208.9z M210.8,413.3c-0.6-0.5-1.7-1.2-2.7-1.7l0.7-0.5
		c1.1,0.5,2.3,1.2,2.9,1.7L210.8,413.3z M208.6,403.4v0.9h2v-0.9H208.6z"/>
	<path fill="#A7A9AC" d="M215.1,410.5c1.1-0.4,1.7-1.1,1.8-2.1c-0.1,0-0.2,0-0.2,0c-0.6,0-1.1-0.3-1.1-1c0-0.7,0.5-1,1.1-1
		c0.8,0,1.2,0.6,1.2,1.6c0,1.5-1,2.7-2.4,3.2L215.1,410.5z"/>
	<path fill="#A7A9AC" d="M229,404.2c-0.3,0.5-0.6,1-1,1.5v9.2h-1.1v-7.8c-1.4,1.6-3.1,3.1-5.1,4.1c-0.2-0.3-0.5-0.7-0.7-0.9
		c2.8-1.4,5.2-3.7,6.5-6.1h-6.2v-1h12v1H229z M229,406.5c1.6,1,3.8,2.6,4.8,3.7L233,411c-1-1.1-3.1-2.7-4.7-3.8L229,406.5z"/>
	<path fill="#A7A9AC" d="M248.1,403.3v0.9h-10.8v3.3v0.1c1-0.9,1.9-2.1,2.5-3.3l0.9,0.3c-0.3,0.5-0.6,1-0.9,1.5v4.8h-0.9v-3.6
		c-0.3,0.4-0.7,0.8-1,1.1c-0.1-0.1-0.3-0.4-0.5-0.5c0,2.1-0.2,5.1-1.3,7.2c-0.2-0.2-0.6-0.5-0.8-0.6c1-2,1.1-4.9,1.1-6.9v-4.2h5.6
		c-0.2-0.3-0.4-0.7-0.7-1l0.9-0.3c0.3,0.4,0.6,0.9,0.8,1.4H248.1z M237.3,414.1c0.8-0.6,1.3-1.6,1.6-2.5l0.8,0.3
		c-0.3,1-0.8,2-1.6,2.7L237.3,414.1z M241.2,407.2c-0.3,0.3-0.5,0.6-0.8,0.8c-0.2-0.1-0.5-0.4-0.7-0.6c0.9-0.8,1.7-2,2.2-3.2
		l0.9,0.2c-0.2,0.3-0.3,0.7-0.5,1h2.1c-0.2-0.3-0.5-0.7-0.7-1l0.7-0.3c0.4,0.4,0.7,0.8,0.9,1.2l-0.3,0.2h2.6v0.7h-2.4v0.8h2v0.6h-2
		v0.8h2.1v0.6h-2.1v0.8h2.6v0.7h-5.7v0.4h-0.9V407.2z M244.2,414c0.5,0,0.6-0.1,0.6-1.2c0.2,0.2,0.6,0.3,0.9,0.3
		c-0.1,1.4-0.4,1.7-1.4,1.7h-2.2c-1.2,0-1.6-0.3-1.6-1.2v-2h1v1.9c0,0.3,0.1,0.4,0.7,0.4H244.2z M244,412.7
		c-0.5-0.4-1.5-1.1-2.3-1.5l0.6-0.6c0.8,0.4,1.8,1,2.3,1.4L244,412.7z M244.3,406.2h-2.2v0.8h2.2V406.2z M244.3,407.5h-2.2v0.8h2.2
		V407.5z M244.3,408.9h-2.2v0.8h2.2V408.9z M246,411.5c0.8,0.8,1.7,1.9,2,2.7l-0.8,0.4c-0.3-0.8-1.2-1.9-2-2.7L246,411.5z"/>
	<path fill="#A7A9AC" d="M253.9,411.2c-0.3-0.4-0.8-1.2-1.2-1.9v5.6h-1v-5.4c-0.5,0.7-1.1,1.2-1.6,1.7c-0.1-0.3-0.3-0.8-0.5-0.9
		c1.3-1.1,2.6-2.9,3.4-4.7h-3.3v-1h3.8l0.2,0l0.5,0.4c-0.4,1.1-0.9,2.1-1.5,3.1v0.1c0.1,0.1,0.3,0.3,0.4,0.5c0.4-0.4,0.8-1,1.1-1.4
		l0.6,0.6c-0.4,0.4-0.9,1-1.3,1.3c0.4,0.5,0.8,1.1,1,1.3L253.9,411.2z M252.2,404.6c-0.2-0.5-0.7-1.4-1.1-2l0.8-0.4
		c0.4,0.6,0.9,1.4,1.1,1.9L252.2,404.6z M261.8,407.8c-0.4,1.9-1.2,3.3-2.3,4.5c0.9,0.8,1.9,1.3,3.1,1.7c-0.2,0.2-0.5,0.6-0.6,0.9
		c-1.2-0.4-2.3-1.1-3.1-1.9c-0.9,0.8-2,1.5-3.1,1.9c-0.1-0.3-0.4-0.6-0.6-0.8c1.1-0.4,2.1-1,3-1.8c-0.9-1-1.6-2.3-2-3.8H256
		c-0.1,2-0.4,4.6-1.8,6.3c-0.1-0.2-0.5-0.5-0.7-0.7c1.5-1.8,1.6-4.4,1.6-6.3v-3.6h3v-2h1v2h2.5l0.2,0l0.7,0.2
		c-0.3,1-0.6,2.1-0.9,2.8l-0.9-0.2c0.2-0.4,0.4-1.1,0.5-1.8H259v2.4h2l0.2,0L261.8,407.8z M256,405.2v2.4h2v-2.4H256z M257,408.6
		c0.4,1.2,1,2.2,1.8,3.1c0.8-0.9,1.4-1.9,1.8-3.1H257z"/>
	<path fill="#A7A9AC" d="M268.8,410.7c-0.3-0.4-0.9-1.1-1.4-1.7v6h-1v-5.7c-0.6,0.6-1.3,1.2-1.9,1.6c-0.1-0.3-0.3-0.8-0.5-1
		c1.5-0.9,3.2-2.6,4.1-4.3h-3.7v-1h4.2l0.2,0l0.5,0.4c-0.4,1-1,2-1.7,3c0.5,0.5,1.6,1.6,1.9,1.9L268.8,410.7z M267,404.5
		c-0.2-0.5-0.8-1.3-1.3-1.8l0.8-0.5c0.5,0.5,1.1,1.2,1.3,1.8L267,404.5z M275.7,414c0.3,0,0.3-0.2,0.4-1.7c0.2,0.2,0.6,0.3,0.9,0.4
		c-0.1,1.8-0.4,2.3-1.2,2.3h-1.2c-1,0-1.2-0.3-1.2-1.3v-3.3h-1.2c-0.2,2.3-0.9,3.8-3.3,4.7c-0.1-0.2-0.4-0.6-0.6-0.8
		c2.2-0.7,2.7-2,2.9-3.9h-1.3v-7.6h6.1v7.6h-1.7v3.3c0,0.3,0,0.4,0.3,0.4H275.7z M271,405h4.1v-1.4H271V405z M271,407.3h4.1v-1.4
		H271V407.3z M271,409.5h4.1v-1.4H271V409.5z"/>
	<path fill="#A7A9AC" d="M290.8,410.1c-0.3,2.9-0.5,4-1,4.5c-0.2,0.3-0.5,0.3-0.9,0.4c-0.4,0-1,0-1.7,0c0-0.3-0.1-0.7-0.3-0.9
		c0.7,0.1,1.3,0.1,1.6,0.1c0.2,0,0.4,0,0.5-0.1c0.3-0.3,0.5-1.2,0.7-3.3h-8.4c-0.7,0.6-1.6,1.2-2.5,1.7c-0.1-0.3-0.4-0.7-0.6-0.9
		c2.6-1.3,4.5-3.4,5.9-5.8h-5v-0.9h2.8c-0.2-0.6-0.6-1.4-1.1-2l0.9-0.4c0.5,0.6,1,1.5,1.1,2l-0.8,0.3h2.5c0.4-0.8,0.7-1.6,1-2.5
		l1,0.3c-0.3,0.7-0.6,1.5-0.9,2.2h2.9c-0.1,0.8-0.3,1.8-0.5,2.5h1.6c-0.1,0.8-0.3,1.8-0.4,2.5h1.4L290.8,410.1z M279,414.3
		c0.9-0.6,1.4-1.8,1.6-2.9l0.9,0.3c-0.3,1.2-0.8,2.4-1.7,3.1L279,414.3z M283.8,408c-0.4,0.6-0.9,1.1-1.4,1.6h6.1
		c0.1-0.5,0.2-1.1,0.3-1.6H283.8z M283.3,411.7c0.3,0.8,0.4,1.9,0.4,2.5l-0.9,0.1c0-0.7-0.1-1.7-0.3-2.6L283.3,411.7z M285.4,405.5
		c-0.3,0.5-0.6,1.1-1,1.6h2.9c0.1-0.5,0.2-1,0.3-1.6H285.4z M285.4,411.5c0.4,0.7,0.7,1.6,0.8,2.3l-0.9,0.2
		c-0.1-0.6-0.4-1.6-0.7-2.3L285.4,411.5z M287.7,413.3c-0.2-0.5-0.6-1.3-1-1.9l0.7-0.3c0.4,0.6,0.9,1.3,1.1,1.8L287.7,413.3z"/>
	<path fill="#A7A9AC" d="M298,413.3c-1.1,0.7-2.9,1.3-4.3,1.7c-0.2-0.2-0.5-0.6-0.8-0.8c1.5-0.3,3.2-0.8,4.2-1.4L298,413.3z
		 M304.6,402.8v3.1h-10.8v-3.1H304.6z M303.8,406.7v6h-9.1v-6H303.8z M294.8,405.1h2.3v-1.5h-2.3V405.1z M295.7,408.5h7v-1h-7V408.5
		z M295.7,410.2h7v-1h-7V410.2z M295.7,412h7v-1.1h-7V412z M298,405.1h2.3v-1.5H298V405.1z M301.1,412.9c1.6,0.5,3.3,1.1,4.4,1.6
		l-1.1,0.6c-0.9-0.4-2.5-1.1-4.1-1.6L301.1,412.9z M301.2,405.1h2.4v-1.5h-2.4V405.1z"/>
	<path fill="#A7A9AC" d="M312.4,413.8c-1.2,0.5-3,1-4.4,1.2c-0.2-0.2-0.5-0.6-0.8-0.7c1.5-0.2,3.2-0.5,4.2-0.9L312.4,413.8z
		 M313,403.7h-5.4v-0.8h5.4v-0.7h1v0.7h5.5v0.8H314v0.7h4.7v0.7h-10.1v-0.7h4.4V403.7z M318.9,407.8h-10.6v-2.2h10.6V407.8z
		 M309.1,413.2v-4.8h9v4.8H309.1z M311.5,406.2h-2.3v0.9h2.3V406.2z M310.1,409.8h7V409h-7V409.8z M310.1,411.2h7v-0.8h-7V411.2z
		 M310.1,412.5h7v-0.8h-7V412.5z M314.7,406.2h-2.3v0.9h2.3V406.2z M315.5,413.4c1.6,0.3,3.3,0.8,4.3,1.1l-1.2,0.5
		c-0.9-0.3-2.4-0.8-4-1.1L315.5,413.4z M317.9,406.2h-2.4v0.9h2.4V406.2z"/>
	<path fill="#A7A9AC" d="M325.6,407.1c-0.2,2-0.6,3.6-1.2,4.9c1.4,1.4,3.3,1.7,5.7,1.7c0.5,0,3.6,0,4.3,0c-0.2,0.2-0.3,0.7-0.4,1
		H330c-2.6,0-4.6-0.4-6.1-1.8c-0.5,0.9-1.1,1.5-1.7,2c-0.2-0.2-0.5-0.6-0.8-0.7c0.7-0.5,1.3-1.2,1.8-2.1c-0.5-0.7-0.9-1.6-1.3-2.7
		l0.8-0.3c0.2,0.8,0.5,1.5,0.9,2.1c0.4-0.9,0.7-2,0.8-3.3h-2.3c0.6-1,1.4-2.5,2-3.9h-2.5V403h3.9c-0.6,1.2-1.3,2.7-1.9,3.9h1l0.2,0
		L325.6,407.1z M329.1,404.2h-2.7v-0.8h2.7v-1.1h1v1.1h3v1.8h1v0.9h-1v1.9h-3v1h3.3v0.8h-3.3v1.1h3.8v0.9h-3.8v1.4h-1v-1.4h-3.5
		v-0.9h3.5v-1.1h-2.9V409h2.9v-1h-2.8v-0.8h2.8v-1h-3.6v-0.9h3.6V404.2z M330.1,404.2v1h2.1v-1H330.1z M332.2,406.1h-2.1v1h2.1
		V406.1z"/>
	<path fill="#A7A9AC" d="M335.8,404.5h4.4v0.9h-4.4V404.5z M339.9,414.2h-2.8v0.7h-0.8v-4.7h3.6V414.2z M336.3,406.4h3.6v0.8h-3.6
		V406.4z M336.3,408.2h3.6v0.8h-3.6V408.2z M337.1,411v2.4h2V411H337.1z M337.9,404.4c-0.1-0.5-0.4-1.3-0.7-1.9l0.8-0.3
		c0.3,0.6,0.6,1.3,0.7,1.8L337.9,404.4z M347.9,411.5c-0.4,0.6-0.8,1.2-1.4,1.7c0.3,0.7,0.7,1,1.1,1c0.2,0,0.4-0.3,0.4-1.2
		c0.2,0.2,0.4,0.3,0.7,0.4c-0.2,1.3-0.5,1.7-1.2,1.7c-0.7,0-1.3-0.4-1.7-1.3c-0.5,0.4-1.1,0.8-1.8,1c-0.1-0.2-0.4-0.4-0.5-0.6
		c0.7-0.3,1.4-0.7,2-1.2c-0.2-0.6-0.4-1.3-0.5-2.2h-1.9v1l1.5-0.2l0,0.8l-1.5,0.2v1.4c0,0.5-0.1,0.7-0.5,0.8
		c-0.3,0.1-0.9,0.1-1.7,0.1c0-0.2-0.2-0.5-0.3-0.8c0.6,0,1.1,0,1.3,0c0.2,0,0.2-0.1,0.2-0.2v-1.3l-1.9,0.3l-0.1-0.8
		c0.6-0.1,1.3-0.2,2-0.3v-1.1h-2v-0.8h2v-1c-0.5,0.1-1,0.1-1.5,0.2c0-0.2-0.1-0.5-0.2-0.7c1.2-0.1,2.7-0.4,3.5-0.7l0.6,0.7
		c-0.4,0.1-0.9,0.2-1.4,0.3v1.1h1.8c-0.1-0.6-0.1-1.3-0.1-2h0.9c0,0.7,0.1,1.4,0.1,2h2.7v0.8h-2.6c0.1,0.6,0.2,1.1,0.3,1.6
		c0.4-0.4,0.7-0.8,0.9-1.2L347.9,411.5z M348.5,407.7h-8.2v-0.8h3.6v-1h-2.6v-0.7h2.6v-0.9h-3.1v-0.8h1.7c-0.2-0.4-0.5-0.8-0.7-1.1
		l0.7-0.3c0.3,0.4,0.7,1,0.9,1.3l-0.1,0h2.2c0.3-0.4,0.6-1,0.8-1.4l0.9,0.3c-0.3,0.4-0.5,0.8-0.8,1.1h1.8v0.8h-3.3v0.9h2.9v0.7h-2.9
		v1h3.6V407.7z M346.9,408c0.6,0.4,1.2,0.9,1.5,1.3l-0.6,0.5c-0.3-0.4-1-1-1.5-1.4L346.9,408z"/>
	<path fill="#A7A9AC" d="M353.1,406.5c1.2,0,2.1,1,2.1,2.1s-1,2.1-2.1,2.1c-1.2,0-2.1-1-2.1-2.1S352,406.5,353.1,406.5z M353.1,410
		c0.8,0,1.4-0.6,1.4-1.4c0-0.8-0.6-1.4-1.4-1.4c-0.8,0-1.4,0.6-1.4,1.4C351.7,409.4,352.3,410,353.1,410z"/>
</g>
<g>
</g>
<g>
</g>
<g>
</g>
<g>
</g>
<g>
</g>
<g>
</g>
<g>
</g>
<g>
</g>
<g>
</g>
<g>
</g>
<g>
</g>
<g>
</g>
<g>
</g>
<g>
</g>
<g>
</g>
</svg>
