<?xml version="1.0" encoding="utf-8"?>
<!-- Generator: Adobe Illustrator 18.0.0, SVG Export Plug-In . SVG Version: 6.00 Build 0)  -->
<!DOCTYPE svg PUBLIC "-//W3C//DTD SVG 1.1//EN" "http://www.w3.org/Graphics/SVG/1.1/DTD/svg11.dtd">
<svg version="1.1" id="Layer_1" xmlns="http://www.w3.org/2000/svg" xmlns:xlink="http://www.w3.org/1999/xlink" x="0px" y="0px"
	 viewBox="0 0 48.9 433.9" enable-background="new 0 0 48.9 433.9" xml:space="preserve">
<g>
	<rect x="8.7" y="0" fill="#7F58A5" width="0.3" height="204"/>
	<rect x="18.2" y="287.6" fill="#7F58A5" width="0.3" height="12.3"/>
	<path fill="#7F58A5" d="M27.8,290.4h-1V290h1c0.1,0,0.2,0,0.3,0l0,0.3C28,290.4,27.9,290.4,27.8,290.4z M25.6,290.4h-1.3V290h1.3
		V290.4z M23.1,290.4h-1.3V290h1.3V290.4z M20.5,290.4h-1.3V290h1.3V290.4z M18,290.4h-1.3V290H18V290.4z M15.4,290.4h-1.3V290h1.3
		V290.4z M12.9,290.4h-1.3V290h1.3V290.4z M10.3,290.4H9.1V290h1.3V290.4z M7.8,290.4H7.3c-0.3,0-0.5,0-0.8-0.1l0.1-0.3
		c0.2,0,0.5,0.1,0.7,0.1h0.5V290.4z M29.4,290l-0.1-0.3c0.4-0.2,0.7-0.4,1-0.7l0.2,0.2C30.2,289.6,29.8,289.8,29.4,290z M5.3,289.9
		c-0.4-0.2-0.8-0.4-1.1-0.7l0.2-0.2c0.3,0.3,0.7,0.5,1,0.7L5.3,289.9z M3.3,288.3c-0.3-0.4-0.5-0.8-0.6-1.2L3,287
		c0.1,0.4,0.3,0.8,0.6,1.1L3.3,288.3z M31.3,288.2l-0.3-0.1c0.2-0.4,0.3-0.8,0.3-1.2l0.3,0C31.6,287.4,31.5,287.8,31.3,288.2z
		 M2.4,285.8c0-0.1,0-0.2,0-0.4v-0.9h0.3v0.9c0,0.1,0,0.2,0,0.3L2.4,285.8z M31.8,285.7l-0.3-0.1c0.1-0.4,0.3-0.8,0.5-1.2l0.3,0.2
		C32,284.9,31.9,285.3,31.8,285.7z M33.1,283.7l-0.2-0.3c0.4-0.3,0.7-0.5,1.2-0.6l0.1,0.3C33.8,283.3,33.4,283.5,33.1,283.7z
		 M2.7,283.3H2.4V282h0.3V283.3z M35.9,283C35.9,283,35.9,283,35.9,283h-0.6v-0.3h0.6c0.2,0,0.4,0,0.7-0.1l0.1,0.3
		C36.4,283,36.2,283,35.9,283z M37.9,282.5l-0.2-0.3c0.4-0.2,0.7-0.5,0.9-0.8l0.2,0.2C38.6,281.9,38.3,282.2,37.9,282.5z
		 M39.5,280.5l-0.3-0.1c0.1-0.4,0.2-0.8,0.2-1.2l0.3,0C39.8,279.6,39.7,280,39.5,280.5z M39.8,277.9h-0.3v-1.3h0.3V277.9z
		 M39.8,275.4h-0.3v-1.3h0.3V275.4z M39.8,272.8h-0.3v-1.3h0.3V272.8z M39.8,270.3h-0.3V269h0.3V270.3z M39.8,267.7h-0.3v-1.3h0.3
		V267.7z M39.8,265.2h-0.3v-1.3h0.3V265.2z M39.8,262.6h-0.3v-1.3h0.3V262.6z M39.8,260.1h-0.3v-1.3h0.3V260.1z M39.8,257.6h-0.3
		v-1.3h0.3V257.6z M39.8,255h-0.3v-1.3h0.3V255z M39.8,252.5h-0.3v-1.3h0.3V252.5z M39.8,249.9h-0.3v-1.3h0.3V249.9z M39.8,247.4
		h-0.3v-1.3h0.3V247.4z M39.8,244.9h-0.3v-0.8c0-0.2,0-0.3,0-0.5l0.3-0.1c0,0.2,0,0.4,0,0.5V244.9z M39,242.5
		c-0.2-0.3-0.5-0.6-0.9-0.8l0.2-0.3c0.4,0.2,0.7,0.5,1,0.9L39,242.5z M37,241.3c-0.1,0-0.2,0-0.3,0c-0.3,0-0.6,0-1-0.1l0.1-0.3
		c0.3,0.1,0.6,0.1,0.9,0.1c0.1,0,0.2,0,0.4,0L37,241.3z M34.5,240.5c-0.3-0.3-0.6-0.7-0.8-1.1l0.3-0.1c0.2,0.4,0.4,0.7,0.7,1
		L34.5,240.5z M33.8,238.1h-0.3v-1.3h0.3V238.1z M33.4,235.6c-0.1-0.4-0.3-0.8-0.5-1.1l0.3-0.2c0.3,0.4,0.5,0.8,0.6,1.2L33.4,235.6z
		 M32,233.7c-0.4-0.2-0.7-0.3-1.1-0.3l0-0.3c0.5,0,0.9,0.1,1.3,0.4L32,233.7z M29.6,233.4h-1.3v-0.3h1.3V233.4z M27.1,233.4h-1.3
		v-0.3h1.3V233.4z M24.5,233.4h-1.3v-0.3h1.3V233.4z M22,233.4h-1.3v-0.3H22V233.4z M19.4,233.4h-1.3v-0.3h1.3V233.4z M16.9,233.4
		h-1.3v-0.3h1.3V233.4z M14.6,233.2h-0.3v-1.3h0.3V233.2z M14.6,230.7h-0.3v-1.3h0.3V230.7z M14.6,228.1h-0.3v-1.3h0.3V228.1z
		 M14.6,225.6h-0.3v-1.3h0.3V225.6z M14.6,223h-0.3v-1.3h0.3V223z M14.6,220.5h-0.3v-1.3h0.3V220.5z M14.6,218h-0.3v-1.3h0.3V218z
		 M14.6,215.4h-0.3v-1.3h0.3V215.4z M14.6,212.9h-0.3v-1.3h0.3V212.9z M14.6,210.3h-0.3v-1.3h0.3V210.3z M14.6,207.8h-0.3v-1.3h0.3
		V207.8z M14.6,205.3h-0.3V204h0.3V205.3z M14.6,202.7h-0.3v-1.3h0.3V202.7z M14.6,200.2h-0.3v-1.3h0.3V200.2z M14.6,197.6h-0.3
		v-1.3h0.3V197.6z M14.6,195.1h-0.3v-1.3h0.3V195.1z M14.6,192.6h-0.3v-1.3h0.3V192.6z M14.6,190h-0.3v-1.3h0.3V190z M14.6,187.5
		h-0.3v-1.3h0.3V187.5z M14.6,184.9h-0.3v-1.3h0.3V184.9z M14.6,182.4h-0.3v-1.3h0.3V182.4z M14.6,179.9h-0.3v-1.3h0.3V179.9z"/>
	<g>
		<path fill="#7F58A5" d="M13.2,266.3C13.2,266.3,13.2,266.3,13.2,266.3L9,263.7c-0.1,0-0.1-0.1-0.1-0.2l1.7-2.9
			c-0.2-0.2-0.2-0.5-0.3-0.8c-0.1-0.4-0.1-1.2,0.3-1.5c0.3-0.2,0.7-0.1,1,0.1l-0.2-3.1c0,0,0-0.1,0-0.1c0,0,0.1-0.1,0.1-0.1l4.5-0.1
			c0.1,0,0.1,0,0.2,0.1l1.7,4c0,0,0,0.1,0,0.1c0,0-0.1,0.1-0.1,0.1l-1,0.1l0.4,1.4c0,0.1,0,0.2-0.1,0.2l-0.2,0.1l0.3,0.3
			c0,0,0,0.1,0,0.1c0,0,0,0.1-0.1,0.1l-0.6,0.5l0,1.6c0,0.1-0.1,0.1-0.1,0.2l-2.7,0.5l-0.5,1.6C13.4,266.3,13.3,266.3,13.2,266.3
			C13.3,266.3,13.2,266.3,13.2,266.3z M9.3,263.5l3.8,2.4l0.4-1.5c0-0.1,0.1-0.1,0.1-0.1l2.7-0.5l0-1.6c0-0.1,0-0.1,0.1-0.1l0.6-0.4
			l-0.4-0.4c0,0-0.1-0.1,0-0.1c0-0.1,0-0.1,0.1-0.1l0.3-0.1l-0.5-1.4c0,0,0-0.1,0-0.1c0,0,0.1-0.1,0.1-0.1l0.9-0.1l-1.6-3.8
			l-4.3,0.1l0.2,3.2c0,0.1,0,0.1-0.1,0.2c-0.1,0-0.1,0-0.2,0c-0.1-0.1-0.6-0.4-0.9-0.3c-0.1,0.1-0.2,0.6-0.2,1.2
			c0.1,0.4,0.2,0.6,0.2,0.6c0,0,0.1,0.1,0.1,0.1c0,0,0,0.1,0,0.1L9.3,263.5z"/>
		<path fill="#7F58A5" d="M10.4,261.3c-1.2-0.7-1.5-3.5-1.5-4.3c0.1-1.7,0.7-2.9,1.9-3.4c1.3-0.6,3.5-0.1,4.7,0.1
			c0.2,0.1,0.4,0.1,0.6,0.1c0.8,0.1,1.7-0.1,1.7-0.1c0.1,0,0.1,0,0.2,0c0,0,0.1,0.1,0,0.2c-0.2,0.7-1.6,1.4-1.7,1.5l-0.1-0.3
			c0.3-0.2,1.1-0.6,1.4-1c-0.4,0.1-1,0.1-1.5,0c-0.1,0-0.3-0.1-0.6-0.1c-1.1-0.2-3.3-0.7-4.5-0.2c-1.3,0.6-1.6,2-1.7,3.1
			c0,0.7,0.3,3.4,1.3,4L10.4,261.3z"/>
		<path fill="#7F58A5" d="M9.1,263.6c-1.6,1.2-3.8,5.6-3.7,13.8c0,3.9,0.5,8.7,0.5,8.7h12.2c0,0-0.1-3.6-0.2-8.7s-4.4-12-4.4-12
			l-0.3,0.9L9.1,263.6z"/>
		<path fill="#7F58A5" d="M11.3,264.8c2.9,2.6,9.4,8.3,11.4,5.9s-4-10.4-4-10.4l2.1-0.8c0,0,7.4,8.8,8.3,11.8c1,3-0.8,7.8-7.3,6.1
			c-4.5-1.2-9.9-3.7-9.9-3.7L11.3,264.8z"/>
		<g>
			<g>
				
					<ellipse transform="matrix(0.9543 -0.2989 0.2989 0.9543 -76.3383 16.7403)" fill="#7F58A5" cx="16.6" cy="257.9" rx="0.4" ry="0.9"/>
				
					<ellipse transform="matrix(0.9972 -7.491062e-002 7.491062e-002 0.9972 -19.1176 2.402)" fill="#7F58A5" cx="22.5" cy="256" rx="0.4" ry="0.9"/>
				<polygon fill="#7F58A5" points="16.3,257.1 22.4,255.2 22.5,256.9 16.8,258.8 				"/>
			</g>
			<g>
				
					<ellipse transform="matrix(0.9972 -7.491062e-002 7.491062e-002 0.9972 -19.1407 2.3201)" fill="#7F58A5" cx="21.4" cy="256.3" rx="0.6" ry="1.5"/>
				
					<ellipse transform="matrix(0.9972 -7.491062e-002 7.491062e-002 0.9972 -19.0547 2.5786)" fill="#7F58A5" cx="24.8" cy="255.3" rx="0.6" ry="1.5"/>
				<polygon fill="#7F58A5" points="21.2,254.9 24.7,253.8 25,256.8 21.5,257.8 				"/>
			</g>
			<g>
				
					<ellipse transform="matrix(0.9972 -7.491062e-002 7.491062e-002 0.9972 -19.0753 2.4874)" fill="#7F58A5" cx="23.6" cy="255.5" rx="0.9" ry="2.3"/>
				
					<ellipse transform="matrix(0.9972 -7.491062e-002 7.491062e-002 0.9972 -18.8377 3.2079)" fill="#7F58A5" cx="33.3" cy="252.7" rx="0.9" ry="2.3"/>
				<polygon fill="#7F58A5" points="23.4,253.2 33.2,250.4 33.5,255 23.8,257.8 				"/>
			</g>
		</g>
		<g>
			<path fill="#FFFFFF" d="M18.8,260.4l-1.1-1.1l-0.2-0.8l0.6-0.2l-0.1-1.4l-0.8-1l0.5-0.3l0.6,0.2l1.1-0.2l1.9,1.6
				c0,0-0.2,2.5-0.5,2.5C20.6,259.6,18.8,260.4,18.8,260.4z"/>
			<path fill="#7F58A5" d="M18.7,260.6l-1.2-1.2l-0.2-1l0.6-0.3l-0.1-1.2l-0.9-1.1l0.7-0.5l0.6,0.2l1.1-0.2l2.1,1.8l0,0.1
				c-0.2,2.6-0.5,2.6-0.6,2.6C20.7,259.8,19.7,260.2,18.7,260.6L18.7,260.6z M17.8,259.2l1,0.9c0.5-0.2,1.6-0.7,2-0.7
				c0.1-0.2,0.3-1.3,0.4-2.3l-1.8-1.5l-1,0.2l-0.5-0.2l-0.3,0.2l0.7,0.9l0.1,1.6l-0.6,0.2L17.8,259.2z"/>
		</g>
		<path fill="#7F58A5" d="M16,257.4l-1,0.8l0.9,0.2c0.1-0.2,0.2-0.6,0-0.8"/>
	</g>
	<path fill="#7F58A5" d="M2.7,275.5H2.4v-34.9c0-1.9,1.6-3.5,3.5-3.5h12.5v0.3H5.9c-1.7,0-3.2,1.4-3.2,3.2V275.5z"/>
	<g>
		<circle fill="#7F58A5" cx="5" cy="252.5" r="0.5"/>
		<circle fill="#7F58A5" cx="9.5" cy="250" r="0.5"/>
		<circle fill="#7F58A5" cx="11.5" cy="250.8" r="0.5"/>
		<circle fill="#7F58A5" cx="17.4" cy="246.5" r="0.5"/>
		<circle fill="#7F58A5" cx="19.4" cy="248.6" r="0.5"/>
		<circle fill="#7F58A5" cx="24.8" cy="245.4" r="0.5"/>
		<circle fill="#7F58A5" cx="27.4" cy="248.1" r="0.5"/>
		<path fill="#7F58A5" d="M5,252.7l-0.1-0.3l4.5-2.4c0,0,0.1,0,0.1,0l1.8,0.7l5.8-4.3c0.1,0,0.2,0,0.2,0l2.1,2.2l5.2-3.3
			c0.1,0,0.1,0,0.2,0l2.6,2.6l4.9-4.4l-2.2,0.1l0-0.3l2.6-0.1c0.1,0,0.1,0,0.2,0.1c0,0.1,0,0.1,0,0.2l-5.4,4.8
			c-0.1,0.1-0.2,0.1-0.2,0l-2.6-2.7l-5.2,3.3c-0.1,0-0.1,0-0.2,0l-2.1-2.2l-5.8,4.3c0,0-0.1,0-0.1,0l-1.8-0.7L5,252.7z"/>
		
			<rect x="32.6" y="243.3" transform="matrix(0.9974 7.228834e-002 -7.228834e-002 0.9974 17.7435 -1.7273)" fill="#7F58A5" width="0.3" height="1.9"/>
	</g>
	<g>
		<g>
			<path fill="#7F58A5" d="M34.1,341.7c-0.6-0.6-1.1-0.9-1.9-0.9c-0.9,0-1.4,0.4-1.4,1.2c0,1.8,4.4,1.6,4.4,4.9
				c0,1.6-0.9,2.8-2.6,3.1l0,1.7l-1.5,0l0-1.6c-1-0.1-2.1-0.6-2.9-1.3l1-1.4c0.8,0.6,1.6,1,2.4,1c1,0,1.5-0.4,1.5-1.3
				c0-2-4.4-1.8-4.4-4.9c0-1.6,1-2.7,2.5-3l0-1.7l1.5,0l0,1.7c1.1,0.2,1.8,0.7,2.4,1.4L34.1,341.7z"/>
		</g>
		<g>
			<path fill="#7F58A5" d="M17.1,371.3c-2.7,0-3.3-8.1-3.3-8.1H9.5C9.5,363.3,10.2,371.3,17.1,371.3S28.2,366,28.2,361h-5.1
				C23.2,361,20.7,371.3,17.1,371.3z"/>
			<polygon fill="#7F58A5" points="19.3,362.9 26.2,352.8 31.2,363.7 25.2,361.4 			"/>
		</g>
		<polygon fill="#7F58A5" points="0.3,366.7 0,366.7 0,357.9 0,357.8 8.9,347.5 9.2,347.6 9.2,357.3 8.8,357.3 8.8,348 0.3,357.9 		
			"/>
		<polygon fill="#7F58A5" points="12.1,358.7 3.8,358.7 3.8,358.4 11.7,358.4 11.7,343.6 16.6,343.6 16.6,335.7 26.7,335.7 
			26.7,351 26.4,351 26.4,336 16.9,336 16.9,343.9 12.1,343.9 		"/>
		<polygon fill="#7F58A5" points="14.2,361.8 13.9,361.8 13.9,359.5 16.6,359.5 16.6,349.8 25.1,349.8 25.1,350.1 16.9,350.1 
			16.9,359.8 14.2,359.8 		"/>
		<polygon fill="#7F58A5" points="19.8,350 19.5,350 19.5,347.3 24.9,347.3 24.9,347.6 19.8,347.6 		"/>
		<rect x="21.7" y="343.1" fill="#7F58A5" width="0.3" height="4.4"/>
		<polygon fill="#7F58A5" points="26.7,335.8 26.4,335.8 26.4,333.7 19.3,333.7 19.3,335.7 18.9,335.7 18.9,333.3 26.7,333.3 		"/>
		<polygon fill="#7F58A5" points="26.7,333.5 26.4,333.5 26.4,331.3 21.8,331.3 21.8,333.3 21.5,333.3 21.5,331 26.7,331 		"/>
		<rect x="25.2" y="325.6" fill="#7F58A5" width="0.3" height="5.6"/>
		<rect x="18.3" y="337.1" fill="#7F58A5" width="0.3" height="4"/>
		<rect x="13.1" y="344.5" fill="#7F58A5" width="0.3" height="13"/>
		<rect x="14.6" y="344.5" fill="#7F58A5" width="0.3" height="13"/>
		<rect x="19.9" y="337.1" fill="#7F58A5" width="0.3" height="4"/>
		<rect x="21.5" y="337.1" fill="#7F58A5" width="0.3" height="4"/>
		<rect x="23.2" y="337.1" fill="#7F58A5" width="0.3" height="4"/>
		<rect x="24.8" y="337.1" fill="#7F58A5" width="0.3" height="4"/>
		<rect x="17.9" y="350.8" fill="#7F58A5" width="0.3" height="8.4"/>
		<rect x="19.3" y="350.8" fill="#7F58A5" width="0.3" height="8.4"/>
		<rect x="20.7" y="350.8" fill="#7F58A5" width="0.3" height="8.4"/>
		<rect x="22" y="350.8" fill="#7F58A5" width="0.3" height="7"/>
		<rect x="23.1" y="350.8" fill="#7F58A5" width="0.3" height="5.4"/>
		<g>
			<rect x="7.5" y="351.9" fill="#7F58A5" width="0.3" height="5"/>
			<rect x="6" y="353.3" fill="#7F58A5" width="0.3" height="4"/>
			<rect x="4.5" y="354.8" fill="#7F58A5" width="0.3" height="3.1"/>
			<rect x="2.9" y="356.2" fill="#7F58A5" width="0.3" height="10.5"/>
			<rect x="1.4" y="357.7" fill="#7F58A5" width="0.3" height="9"/>
		</g>
		<rect x="4.4" y="359.6" fill="#7F58A5" width="0.3" height="7.1"/>
		<rect x="5.9" y="359.6" fill="#7F58A5" width="0.3" height="7.1"/>
		<rect x="7.5" y="359.6" fill="#7F58A5" width="0.3" height="7.1"/>
		<rect x="9" y="347.4" fill="#7F58A5" width="2.9" height="0.3"/>
		<rect x="10.1" y="349" fill="#7F58A5" width="0.3" height="2.1"/>
		<rect x="10.1" y="352.1" fill="#7F58A5" width="0.3" height="2.1"/>
		<rect x="10.1" y="355.1" fill="#7F58A5" width="0.3" height="2.1"/>
		<rect x="9.1" y="359.7" fill="#7F58A5" width="2.8" height="0.3"/>
		<rect x="9.1" y="360.8" fill="#7F58A5" width="2.8" height="0.3"/>
		<rect x="9.1" y="362" fill="#7F58A5" width="2.8" height="0.3"/>
		<rect x="24.4" y="350.8" fill="#7F58A5" width="0.3" height="3.1"/>
	</g>
	<path fill="#7F58A5" d="M26.7,378.9h-1.3v-0.3h1.3V378.9z M24.1,378.9h-1.3v-0.3h1.3V378.9z M21.6,378.9h-1.3v-0.3h1.3V378.9z
		 M19.1,378.9h-1.3v-0.3h1.3V378.9z M16.5,378.9h-1.3v-0.3h1.3V378.9z M14,378.9h-1.3v-0.3H14V378.9z M11.4,378.9h-1.3v-0.3h1.3
		V378.9z M8.9,378.9H7.6v-0.3h1.3V378.9z M28,378.9l0-0.3c0.4,0,0.8-0.1,1.2-0.2l0.1,0.3C28.8,378.8,28.4,378.9,28,378.9z
		 M6.3,378.8c-0.4-0.1-0.8-0.2-1.2-0.4l0.1-0.3c0.4,0.2,0.8,0.3,1.2,0.4L6.3,378.8z M30.4,378l-0.2-0.2c0.3-0.3,0.6-0.6,0.8-0.9
		l0.3,0.2C31,377.3,30.7,377.7,30.4,378z M4,377.7c-0.3-0.3-0.6-0.6-0.8-1l0.3-0.2c0.2,0.3,0.5,0.7,0.8,0.9L4,377.7z M31.6,375.7
		l-0.3-0.1c0-0.2,0-0.4,0-0.6c0-0.2,0-0.5,0.1-0.7l0.3,0.1c0,0.2-0.1,0.4-0.1,0.6C31.7,375.3,31.7,375.5,31.6,375.7z M2.6,375.5
		c-0.1-0.4-0.2-0.9-0.2-1.3l0.3,0c0,0.4,0.1,0.8,0.2,1.2L2.6,375.5z M32.2,373.3l-0.3-0.2c0.2-0.4,0.5-0.7,0.8-1l0.2,0.2
		C32.6,372.6,32.4,373,32.2,373.3z M2.7,372.9H2.4v-1.3h0.3V372.9z M34,371.8l-0.1-0.3c0.4-0.2,0.9-0.2,1.3-0.2l0,0.3
		C34.8,371.6,34.4,371.6,34,371.8z M36.5,371.5l0-0.3c0.4-0.1,0.8-0.2,1.2-0.4l0.1,0.3C37.3,371.3,36.9,371.4,36.5,371.5z
		 M2.7,370.4H2.4v-0.6h0.3V370.4z M38.8,370.3l-0.2-0.2c0.3-0.3,0.5-0.6,0.7-1l0.3,0.1C39.3,369.6,39.1,370,38.8,370.3z M39.8,367.9
		l-0.3,0c0-0.1,0-0.1,0-0.2v-1h0.3v1C39.8,367.8,39.8,367.8,39.8,367.9z M39.8,365.4h-0.3v-1.3h0.3V365.4z M39.8,362.8h-0.3v-1.3
		h0.3V362.8z M39.8,360.3h-0.3V359h0.3V360.3z M39.8,357.7h-0.3v-1.3h0.3V357.7z M39.8,355.2h-0.3v-1.3h0.3V355.2z M39.8,352.7h-0.3
		v-1.3h0.3V352.7z M39.8,350.1h-0.3v-1.3h0.3V350.1z M39.8,347.6h-0.3v-1.3h0.3V347.6z M39.8,345h-0.3v-1.3h0.3V345z M39.8,342.5
		h-0.3v-1.3h0.3V342.5z M39.8,340h-0.3v-1.3h0.3V340z M39.8,337.4h-0.3v-1.3h0.3V337.4z M39.8,334.9h-0.3v-1.3h0.3V334.9z
		 M39.5,332.4c0-0.4-0.2-0.8-0.4-1.1l0.3-0.2c0.2,0.4,0.4,0.8,0.4,1.3L39.5,332.4z M38.3,330.4c-0.3-0.2-0.7-0.4-1.1-0.5l0.1-0.3
		c0.4,0.1,0.9,0.3,1.2,0.5L38.3,330.4z M35.9,329.8c-0.4-0.1-0.8-0.3-1.2-0.6l0.2-0.2c0.3,0.3,0.7,0.4,1.1,0.5L35.9,329.8z
		 M33.9,328.1c-0.2-0.4-0.3-0.8-0.3-1.3l0.3,0c0,0.4,0.1,0.8,0.3,1.2L33.9,328.1z M33.8,325.6h-0.3v-0.8c0-0.2,0-0.3,0-0.5l0.3-0.1
		c0,0.2,0,0.3,0,0.5V325.6z M33,323.2c-0.2-0.3-0.5-0.6-0.9-0.8l0.2-0.3c0.4,0.2,0.7,0.6,1,0.9L33,323.2z M31,322
		c-0.1,0-0.2,0-0.4,0h-0.9v-0.3h0.9c0.1,0,0.3,0,0.4,0L31,322z M28.5,322h-1.3v-0.3h1.3V322z M26,322h-1.3v-0.3H26V322z M23.4,322
		h-1.3v-0.3h1.3V322z M20.9,322h-1.3v-0.3h1.3V322z M18.4,322h-1.3v-0.3h1.3V322z M15.8,322c-0.1,0-0.2-0.1-0.2-0.2v-1.3H16v1.3
		h-0.2L15.8,322z M16,319.3h-0.3V318H16V319.3z M16,316.8h-0.3v-1.3H16V316.8z M16,314.2h-0.3v-1.3H16V314.2z M16,311.7h-0.3v-1.3
		H16V311.7z M16,309.1h-0.3v-1.3H16V309.1z M16,306.6h-0.3v-1.3H16V306.6z M16,304.1h-0.3v-1.3H16V304.1z M16,301.5h-0.3v-1.3H16
		V301.5z M16,299h-0.3v-1.3H16V299z M16,296.4h-0.3v-1.3H16V296.4z M16,293.9h-0.3v-1.3H16V293.9z M16,291.4h-0.3v-1.3H16V291.4z"/>
	<path fill="#7F58A5" d="M2.7,349H2.4v-20.1c0-1.9,1.6-3.5,3.5-3.5h12.5v0.3H5.9c-1.7,0-3.2,1.4-3.2,3.2V349z"/>
	<path fill="#7F58A5" d="M10.7,240.9c-0.1,0-0.2-0.1-0.2-0.2v-20.3c0-0.1,0.1-0.2,0.2-0.2c0.1,0,0.2,0.1,0.2,0.2v20.3
		C10.8,240.8,10.8,240.9,10.7,240.9z"/>
	<path fill="#7F58A5" d="M21,217.5c-0.1,0-0.2-0.1-0.2-0.2V197c0-0.1,0.1-0.2,0.2-0.2s0.2,0.1,0.2,0.2v20.3
		C21.1,217.4,21,217.5,21,217.5z"/>
	<rect x="10.2" y="307.3" fill="#7F58A5" width="0.3" height="25"/>
	<rect x="20.6" y="381.4" fill="#7F58A5" width="0.3" height="39"/>
	<path fill="#7F58A5" d="M42,430.2H21.1c-2.6,0-4.7-2.1-4.7-4.7v-46.6h0.3v46.6c0,2.4,2,4.4,4.4,4.4H42V430.2z"/>
	<path fill="#7F58A5" d="M48.9,433.9H18.2c-3.5,0-6.3-2.8-6.3-6.3v-42.5h0.3v42.5c0,3.3,2.7,6,6,6h30.8V433.9z"/>
</g>
<g>
</g>
<g>
</g>
<g>
</g>
<g>
</g>
<g>
</g>
<g>
</g>
<g>
</g>
<g>
</g>
<g>
</g>
<g>
</g>
<g>
</g>
<g>
</g>
<g>
</g>
<g>
</g>
<g>
</g>
</svg>
