<?xml version="1.0" encoding="utf-8"?>
<!-- Generator: Adobe Illustrator 18.0.0, SVG Export Plug-In . SVG Version: 6.00 Build 0)  -->
<!DOCTYPE svg PUBLIC "-//W3C//DTD SVG 1.1//EN" "http://www.w3.org/Graphics/SVG/1.1/DTD/svg11.dtd">
<svg version="1.1" id="Layer_1" xmlns="http://www.w3.org/2000/svg" xmlns:xlink="http://www.w3.org/1999/xlink" x="0px" y="0px"
	 viewBox="0 0 42.8 109.8" enable-background="new 0 0 42.8 109.8" xml:space="preserve">
<g>
	<g>
		<path fill="#573392" d="M35.2,48.2c-3.7-3.4-7-5.3-11.6-5.3c-5.3,0-8.3,2.5-8.3,7.5c0,11.2,27.5,9.5,27.5,29.8
			c0,9.9-5.5,17.2-15.9,19.2v10.5h-9V99.7C11.8,98.9,4.8,96.1,0,91.8l5.9-9c5,3.9,9.8,6.2,14.9,6.2c6.3,0,9.2-2.8,9.2-8
			C30,68.8,2.5,69.9,2.5,51c0-9.9,5.9-16.7,15.4-18.5V14.3h9v18c6.5,0.9,11.1,4.2,15,8.2L35.2,48.2z"/>
	</g>
	<polygon fill="#573392" points="9.5,20.3 36.5,20.3 23,0 	"/>
</g>
<g>
</g>
<g>
</g>
<g>
</g>
<g>
</g>
<g>
</g>
<g>
</g>
<g>
</g>
<g>
</g>
<g>
</g>
<g>
</g>
<g>
</g>
<g>
</g>
<g>
</g>
<g>
</g>
<g>
</g>
</svg>
