<?xml version="1.0" encoding="utf-8"?>
<!-- Generator: Adobe Illustrator 18.0.0, SVG Export Plug-In . SVG Version: 6.00 Build 0)  -->
<!DOCTYPE svg PUBLIC "-//W3C//DTD SVG 1.1//EN" "http://www.w3.org/Graphics/SVG/1.1/DTD/svg11.dtd">
<svg version="1.1" id="Layer_1" xmlns="http://www.w3.org/2000/svg" xmlns:xlink="http://www.w3.org/1999/xlink" x="0px" y="0px"
	 viewBox="0 0 87.3 64.4" enable-background="new 0 0 87.3 64.4" xml:space="preserve">
<g>
	<g>
		<g>
			<defs>
				<circle id="SVGID_1_" cx="43.6" cy="33" r="13.4"/>
			</defs>
			<clipPath id="SVGID_2_">
				<use xlink:href="#SVGID_1_"  overflow="visible"/>
			</clipPath>
			<g id="CiTCLM_2_" clip-path="url(#SVGID_2_)">
				<rect x="30" y="19.5" fill="#040404" width="26.9" height="9"/>
				<rect x="30" y="28.5" fill="#D40404" width="26.9" height="9"/>
				<rect x="30" y="37.4" fill="#FFCE00" width="26.9" height="9"/>
			</g>
		</g>
		<g>
			<g>
				<path fill="#FFFFFF" d="M68.5,37.2c-10.1,0-18.4-8.3-18.4-18.4S58.4,0.4,68.5,0.4s18.4,8.3,18.4,18.4S78.6,37.2,68.5,37.2z"/>
				<path fill="#0C56AB" d="M68.5,0.8c9.9,0,18,8.1,18,18c0,9.9-8.1,18-18,18c-9.9,0-18-8.1-18-18C50.5,8.9,58.6,0.8,68.5,0.8
					 M68.5,0C58.1,0,49.7,8.4,49.7,18.8s8.4,18.8,18.8,18.8s18.8-8.4,18.8-18.8S78.9,0,68.5,0L68.5,0z"/>
			</g>
			<g>
				<path fill="#2368B5" d="M61.1,2.4c0.1,0,0.3-0.1,0.4-0.2C61.3,2.3,61.2,2.4,61.1,2.4z"/>
				<path fill="#2368B5" d="M75.8,2.4c-0.2-0.1-0.3-0.2-0.5-0.2C75.4,2.3,75.6,2.4,75.8,2.4z"/>
				<path fill="#2368B5" d="M86.5,18.8c0-0.6,0-0.9-0.1-1.8c-3,0-6,0-9.1,0c0-0.9,0-1.7,0-2.6c3.1,0,5.7,0,8.6,0
					c-0.2-0.9-0.5-1.7-0.9-2.6c-0.9,0-1.8,0-2.7,0c-1.5,0-3.1,0-4.6,0c-0.3,0-0.4-0.1-0.4-0.4c0-0.7,0-1.3,0-1.9c0-0.1,0-0.3,0-0.3
					c2.1,0,4.1,0,6.2,0c-0.6-0.9-1.3-2.2-2.1-2.6c-0.2,0-0.3,0-0.5,0c-1.1,0-2.2-0.1-3.3-0.1c-0.1,0-0.3-0.2-0.3-0.3
					c0-0.9,0-1.8,0-2.7c0.2,0,0.4,0,0.6,0c-0.6-0.4-1.3-0.7-1.9-1c-0.3,0.3-0.5,0.6-0.2,1.1c-0.4-0.4-0.8-0.5-1.3,0
					c0.1-0.5,0.2-0.9-0.3-1.1c0.4,0.1,0.7-0.1,0.8-0.3c-2-0.8-4.2-1.2-6.5-1.2c-2.4,0-4.6,0.5-6.7,1.3c0.2,0.3,0.5,0.3,0.8,0.3
					C62.2,2.7,62,3,62.3,3.6c-0.4-0.4-0.8-0.5-1.3,0c0.2-0.4,0.2-0.8-0.2-1.1c-3.4,1.6-6.2,4.1-8,7.3c0.2,0.2,0.4,0.2,0.8,0.2
					c-0.3,0.3-0.7,0.6-0.3,1.1c-0.4-0.3-0.7-0.4-1-0.2c-1.2,2.4-1.8,5.1-1.8,7.9c0,0.4,0,0.7,0,1.1c12,0,23.9,0,35.9,0
					C86.5,19.6,86.5,19.1,86.5,18.8z M52.7,13.2c0.1,0.3,0.2,0.5,0.3,0.6c0.2,0.1,0.4,0,0.6,0.1c-0.3,0.3-0.6,0.6-0.3,1.1
					c-0.5-0.4-0.8-0.3-1.3,0c0.2-0.4,0.2-0.8-0.3-1.1C52.3,13.9,52.6,13.7,52.7,13.2z M53.4,18.7c-0.5-0.4-0.9-0.3-1.3,0
					c0.2-0.4,0.1-0.8-0.3-1.1c0.5,0.1,0.8-0.2,0.9-0.6c0.1,0.6,0.5,0.7,0.9,0.6C53.3,18,53,18.2,53.4,18.7z M72.9,3.7
					c0.1,0.6,0.5,0.7,1,0.6c-0.4,0.3-0.6,0.6-0.3,1.1c-0.4-0.4-0.8-0.5-1.3,0C72.4,5,72.5,4.6,72,4.3C72.5,4.4,72.8,4.2,72.9,3.7z
					 M72.6,8c0.1-0.1,0.2-0.3,0.3-0.5C73,7.7,73.1,8,73.2,8.1c0.1,0.1,0.4,0,0.7,0c-0.2,0.2-0.4,0.4-0.5,0.5
					c-0.1,0.2,0.1,0.4,0.1,0.6c-0.2-0.1-0.4-0.4-0.7-0.4c-0.2,0-0.4,0.2-0.6,0.3c0.2-0.4,0.2-0.8-0.3-1.1C72.2,8.1,72.5,8.1,72.6,8z
					 M73.5,13.1c-0.4-0.4-0.8-0.5-1.3,0c0.2-0.5,0.2-0.8-0.3-1.1c0.5,0.1,0.8-0.2,0.9-0.6c0.1,0.6,0.4,0.7,1,0.6
					C73.5,12.2,73.2,12.5,73.5,13.1z M70.6,1.8c0.1,0.6,0.4,0.7,0.9,0.6c-0.4,0.3-0.6,0.6-0.3,1.1c-0.5-0.4-0.9-0.4-1.3,0
					c0.2-0.5,0.2-0.8-0.3-1.1C70.3,2.5,70.5,2.2,70.6,1.8z M70.7,5.6c0.1,0.6,0.4,0.7,0.9,0.6c-0.3,0.3-0.7,0.6-0.3,1.1
					c0,0-0.1,0-0.1,0C71,7.2,70.8,7,70.6,7c-0.2,0-0.4,0.2-0.7,0.4c0.1-0.3,0.2-0.5,0.2-0.7c0-0.2-0.2-0.3-0.4-0.6
					C70.3,6.3,70.5,6,70.7,5.6z M71.3,11.1c-0.4-0.4-0.8-0.4-1.3,0c0.2-0.5,0.2-0.9-0.3-1.1c0.5,0.1,0.8-0.2,0.9-0.6
					c0.1,0.6,0.4,0.7,1,0.6C71.2,10.3,71,10.6,71.3,11.1z M68.4,3.6c0.1,0.6,0.4,0.7,0.9,0.6c-0.3,0.3-0.7,0.6-0.3,1.1
					c-0.5-0.4-0.9-0.5-1.3,0C67.9,5,68,4.6,67.5,4.3C68.1,4.2,68.1,4.2,68.4,3.6z M66.2,1.7c0.1,0.6,0.4,0.7,1,0.6
					c-0.4,0.3-0.6,0.6-0.4,1.1c-0.2-0.1-0.4-0.3-0.6-0.4c-0.2,0.1-0.4,0.3-0.6,0.4c0.2-0.4,0.1-0.8-0.3-1.1
					C65.9,2.5,66,2.2,66.2,1.7z M57.2,5.6c0.1,0.5,0.4,0.7,1,0.6c-0.4,0.3-0.6,0.6-0.3,1.2c-0.4-0.5-0.9-0.4-1.3,0
					c0.2-0.5,0.2-0.9-0.3-1.1C56.8,6.3,57.1,6.1,57.2,5.6z M57.9,11.1c-0.5-0.4-0.9-0.4-1.3,0c0.2-0.5,0.1-0.8-0.3-1.1
					c0.5,0.1,0.8-0.1,0.9-0.6c0.1,0.6,0.4,0.7,0.9,0.6C57.9,10.3,57.5,10.6,57.9,11.1z M55.5,13c-0.2-0.1-0.4-0.3-0.6-0.3
					c-0.2,0-0.4,0.2-0.7,0.4c0.3-0.5,0.3-0.8-0.2-1.1c0.5,0.1,0.8-0.1,0.9-0.6c0.1,0.5,0.4,0.7,1,0.6C55.6,12.2,55.2,12.5,55.5,13z
					 M55.6,16.8c-0.4-0.4-0.8-0.3-1.3,0c0.2-0.4,0.2-0.8-0.3-1.1c0.5,0,0.8-0.1,0.9-0.7c0.1,0.6,0.4,0.7,1,0.7
					C55.5,16,55.3,16.3,55.6,16.8z M55.6,9.2c-0.4-0.4-0.8-0.3-1.3,0c0.2-0.4,0.2-0.8-0.3-1.1c0.5,0.1,0.7-0.2,0.9-0.6
					c0.1,0.6,0.4,0.7,1,0.6C55.6,8.4,55.3,8.7,55.6,9.2z M57.8,18.7c-0.4-0.4-0.8-0.4-1.2,0c0.3-0.5,0.1-0.8-0.3-1.1
					c0.6,0.1,0.8-0.2,0.9-0.6c0.1,0.6,0.4,0.7,0.9,0.7c-0.1,0.1-0.3,0.2-0.4,0.4C57.7,18.3,57.8,18.5,57.8,18.7z M57.9,14.9
					c-0.4-0.4-0.8-0.3-1.3,0c0-0.2,0.2-0.4,0.1-0.6c0-0.2-0.2-0.3-0.4-0.5c0.6,0.2,0.8-0.1,1-0.6c0.1,0.6,0.4,0.7,1,0.6
					C57.8,14.1,57.5,14.4,57.9,14.9z M59.1,4.2c0.1-0.1,0.2-0.3,0.4-0.6c0,0.7,0.4,0.7,0.9,0.7c-0.4,0.3-0.6,0.6-0.3,1.2
					c-0.4-0.4-0.9-0.5-1.3,0C59,5,59,4.6,58.4,4.3C58.7,4.3,59,4.3,59.1,4.2z M59.4,7.5c0.1,0.6,0.4,0.7,0.9,0.6
					c-0.4,0.3-0.6,0.6-0.3,1.1c-0.4-0.4-0.8-0.3-1.3,0c0.3-0.5,0.1-0.8-0.3-1.1C59.1,8.2,59.3,7.9,59.4,7.5z M60,16.8
					c-0.2-0.1-0.4-0.3-0.6-0.3c-0.2,0-0.4,0.2-0.7,0.4c0.2-0.5,0.2-0.9-0.2-1.2c0.5,0.1,0.8-0.2,0.9-0.6c0.1,0.6,0.4,0.7,1,0.6
					C60,16,59.8,16.4,60,16.8z M60,12.4c-0.1,0.2,0,0.4,0.1,0.6c-0.2-0.1-0.4-0.3-0.6-0.3c-0.2,0-0.4,0.2-0.7,0.4
					c0.3-0.5,0.2-0.8-0.2-1.1c0.5,0.1,0.8-0.1,0.9-0.6c0.1,0.5,0.4,0.7,1,0.6c0,0,0,0.1,0,0.1C60.2,12.1,60,12.2,60,12.4z
					 M62.4,18.8c-0.5-0.4-0.9-0.4-1.3,0c0.2-0.5,0.2-0.9-0.3-1.2c0.6,0.1,0.8-0.2,0.9-0.6c0.1,0.6,0.5,0.7,1,0.6
					C62.3,18,62,18.3,62.4,18.8z M62.4,11.1c-0.3-0.2-0.5-0.3-0.7-0.3c-0.2,0-0.4,0.2-0.6,0.3c0.2-0.4,0.1-0.8-0.3-1.1
					c0.5,0.1,0.8-0.1,0.9-0.6c0.1,0.6,0.4,0.7,1,0.6C62.3,10.3,62,10.6,62.4,11.1z M61.7,13.2c0.1,0.6,0.4,0.7,1,0.6
					c-0.3,0.3-0.7,0.6-0.3,1.2c-0.5-0.5-0.8-0.4-1.3,0c0.2-0.4,0.2-0.8-0.3-1.1C61.3,13.9,61.6,13.7,61.7,13.2z M62.3,7.3
					C62.1,7.2,61.9,7,61.7,7c-0.2,0-0.4,0.2-0.6,0.3c0.1-0.2,0.2-0.4,0.1-0.6c0-0.2-0.2-0.3-0.4-0.6c0.6,0.2,0.8-0.1,0.9-0.6
					C61.8,5.8,61.9,6,62,6.1c0.2,0.1,0.4,0,0.7,0.1C62.3,6.5,62,6.8,62.3,7.3z M63.9,3.7c0.1,0.6,0.5,0.7,1,0.6
					c-0.4,0.3-0.6,0.6-0.3,1.1c-0.5-0.4-0.9-0.5-1.3,0C63.5,5,63.4,4.6,63,4.3C63.5,4.4,63.8,4.2,63.9,3.7z M64.6,13
					c-0.5-0.4-0.8-0.3-1.3,0c0.2-0.5,0.1-0.8-0.3-1.1c0.5,0.1,0.8-0.2,0.9-0.6c0.1,0.6,0.5,0.6,0.9,0.6C64.6,12.2,64.2,12.5,64.6,13
					z M64.5,16.9c-0.2-0.1-0.4-0.3-0.6-0.3c-0.2,0-0.4,0.2-0.6,0.3c0.1-0.4,0.1-0.8-0.3-1.1c0.5,0,0.8-0.1,0.9-0.6
					c0.1,0.2,0.1,0.4,0.3,0.5c0.2,0.1,0.4,0.1,0.7,0.1C64.5,16,64.3,16.4,64.5,16.9z M64.6,9.2c-0.5-0.5-0.9-0.3-1.3,0
					c0.2-0.4,0.2-0.8-0.3-1.1c0.5,0.1,0.8-0.1,0.9-0.7C64,7.7,64.1,8,64.2,8c0.2,0.1,0.4,0,0.7,0.1C64.6,8.4,64.2,8.7,64.6,9.2z
					 M66.8,15c-0.4-0.5-0.8-0.4-1.3,0c0.2-0.5,0.2-0.8-0.3-1.1c0.5,0.1,0.8-0.2,0.9-0.6c0.1,0.6,0.4,0.7,1,0.6
					C66.7,14.1,66.6,14.5,66.8,15z M66.8,11.1c-0.4-0.3-0.8-0.4-1.2,0c0.2-0.5,0.1-0.8-0.4-1.1c0.3,0,0.5,0,0.7-0.1
					c0.1-0.1,0.2-0.3,0.3-0.6c0,0.7,0.4,0.8,0.9,0.7C66.8,10.3,66.5,10.6,66.8,11.1z M66.8,18.8c-0.4-0.5-0.8-0.4-1.2,0
					c0.2-0.5,0.2-0.9-0.3-1.1c0.6-0.1,0.6-0.1,1-0.7c0,0.6,0.4,0.7,0.9,0.6C66.7,17.9,66.6,18.3,66.8,18.8z M66.8,7.3
					c-0.5-0.4-0.9-0.4-1.3,0.1c0.2-0.5,0.1-0.8-0.3-1.1c0.5,0,0.8-0.1,0.9-0.6c0.1,0.2,0.1,0.4,0.3,0.5c0.2,0.1,0.4,0,0.6,0.1
					c0,0,0,0,0.1,0.1C66.8,6.5,66.5,6.8,66.8,7.3z M69.1,16.9c-0.4-0.4-0.8-0.4-1.3,0c0.2-0.5,0.2-0.8-0.3-1.1
					c0.5,0.1,0.8-0.1,0.9-0.6c0.1,0.5,0.4,0.7,1,0.6C69,16,68.8,16.4,69.1,16.9z M69.1,13c-0.5-0.4-0.8-0.3-1.3,0
					c0.1-0.6,0.1-0.6-0.3-1.2c0.5,0.1,0.8-0.1,0.9-0.6c0.1,0.6,0.5,0.7,1,0.6C69,12.2,68.7,12.5,69.1,13z M69.1,9.2
					c-0.4-0.4-0.8-0.4-1.3,0c0.2-0.5,0.1-0.8-0.4-1.1c0.3,0,0.5,0,0.7-0.1c0.1-0.1,0.2-0.3,0.3-0.6c0.1,0.2,0.1,0.5,0.3,0.6
					c0.2,0.1,0.4,0,0.7,0.1C69,8.4,68.7,8.7,69.1,9.2z M70.4,13.7c0.1-0.1,0.2-0.3,0.3-0.6c0.1,0.6,0.4,0.8,0.9,0.7
					c-0.4,0.3-0.6,0.6-0.3,1.2c-0.4-0.5-0.8-0.4-1.3,0c0.2-0.5,0.2-0.8-0.3-1.1C70,13.8,70.2,13.8,70.4,13.7z M71.3,18.9
					c-0.4-0.5-0.8-0.6-1.3-0.1c0.2-0.5,0.2-0.8-0.3-1.1c0.5,0.1,0.8-0.1,0.9-0.7c0.1,0.3,0.2,0.5,0.3,0.6c0.2,0.1,0.4,0,0.6,0.1
					c0,0,0.1,0.1,0.1,0.1c-0.2,0.1-0.4,0.2-0.5,0.4C71.1,18.3,71.3,18.6,71.3,18.9z M73.5,16.9c-0.4-0.4-0.8-0.4-1.3,0.1
					c0.1-0.3,0.2-0.5,0.1-0.7c0-0.2-0.2-0.3-0.4-0.5c0.6,0.2,0.8-0.1,0.9-0.6c0.1,0.3,0.2,0.5,0.3,0.6c0.2,0.1,0.4,0,0.7,0.1
					C73.5,16,73.3,16.4,73.5,16.9z M75.7,14.9c-0.2-0.1-0.4-0.3-0.6-0.3c-0.2,0-0.4,0.2-0.7,0.4c0.3-0.5,0.2-0.8-0.2-1.2
					c0.6,0.1,0.7-0.2,0.9-0.6c0.1,0.5,0.4,0.8,1,0.6C75.7,14.1,75.5,14.4,75.7,14.9z M75.1,5.6c0.1,0.6,0.4,0.7,1,0.6
					c-0.5,0.3-0.6,0.6-0.3,1.1c-0.4-0.5-0.9-0.4-1.3,0c0.1-0.2,0.2-0.4,0.1-0.6c0-0.2-0.2-0.3-0.4-0.5C74.8,6.3,75,6.1,75.1,5.6z
					 M75.2,9.4c0.1,0.5,0.4,0.7,0.9,0.6c0,0,0,0.1,0,0.1c-0.1,0.2-0.4,0.3-0.4,0.5c-0.1,0.2,0.1,0.4,0.1,0.7c-0.4-0.5-0.8-0.6-1.3,0
					c0.2-0.5,0.2-0.9-0.3-1.2C74.8,10.1,75,9.9,75.2,9.4z M75.8,18.8c-0.4-0.4-0.8-0.5-1.3,0c0.2-0.5,0.2-0.8-0.3-1.2
					c0.6,0.1,0.8-0.2,0.9-0.6c0.1,0.6,0.4,0.7,0.9,0.6C75.7,17.9,75.5,18.3,75.8,18.8z"/>
				<path fill="#2368B5" d="M78.7,33.6c-6.8,0-13.7,0-20.5,0c1.7,1.3,3.7,2.2,5.8,2.6c3,0,6,0,8.9,0C75.1,35.8,77,34.9,78.7,33.6z"
					/>
				<path fill="#2368B5" d="M83.9,27.9c-10.3,0-20.5,0-30.8,0c0.6,1.3,1.2,2.2,1.9,2.6c9,0,18,0,26.9,0
					C82.7,30.1,83.3,29.2,83.9,27.9z"/>
				<path fill="#2368B5" d="M86.1,22.7c-11.7,0-23.4,0-35.1,0c0.2,0.9,0.5,1.7,0.8,2.6c11.2,0,22.4,0,33.6,0
					C85.6,24.4,85.9,23.5,86.1,22.7z"/>
			</g>
		</g>
	</g>
	<g>
		<g>
			<g>
				<path fill="#0C56AB" d="M0.6,58.6c0-1,0.7-1.9,1.7-2.2c-0.9-0.3-1.5-1.2-1.5-2.1c0-1.5,1.3-2.6,3.2-2.6s3.2,1.1,3.2,2.6
					c0,0.9-0.6,1.8-1.5,2.1c1,0.3,1.7,1.2,1.7,2.2c0,1.5-1.3,2.6-3.4,2.6C1.9,61.2,0.6,60.1,0.6,58.6z M5.7,58.4
					C5.7,57.7,5.1,57,4,57c-1.1,0-1.7,0.7-1.7,1.4s0.6,1.4,1.7,1.4C5.1,59.8,5.7,59.2,5.7,58.4z M5.5,54.4c0-0.7-0.6-1.3-1.5-1.3
					s-1.5,0.6-1.5,1.3c0,0.8,0.6,1.3,1.5,1.3C4.9,55.7,5.5,55.1,5.5,54.4z"/>
			</g>
		</g>
	</g>
</g>
<g>
</g>
<g>
</g>
<g>
</g>
<g>
</g>
<g>
</g>
<g>
</g>
<g>
</g>
<g>
</g>
<g>
</g>
<g>
</g>
<g>
</g>
<g>
</g>
<g>
</g>
<g>
</g>
<g>
</g>
</svg>
