<?xml version="1.0" encoding="utf-8"?>
<!-- Generator: Adobe Illustrator 18.0.0, SVG Export Plug-In . SVG Version: 6.00 Build 0)  -->
<!DOCTYPE svg PUBLIC "-//W3C//DTD SVG 1.1//EN" "http://www.w3.org/Graphics/SVG/1.1/DTD/svg11.dtd">
<svg version="1.1" id="Layer_1" xmlns="http://www.w3.org/2000/svg" xmlns:xlink="http://www.w3.org/1999/xlink" x="0px" y="0px"
	 viewBox="0 0 438.9 326.2" enable-background="new 0 0 438.9 326.2" xml:space="preserve">
<g>
	<path fill="#F1F2F2" d="M15.5,7.6H350v232.1H0c0,0,12.6-5.8,15.5-27.1S15.5,7.6,15.5,7.6z"/>
	<rect x="3" y="13" fill="#A7A9AC" width="355.4" height="3.1"/>
	<rect x="3" y="0" fill="#E6E7E8" width="355.4" height="13.1"/>
	<g>
		<g>
			<polygon fill="#E6E7E8" points="321.3,207.3 317.9,212.5 314.6,235 321.9,233 323.7,239.2 344.8,237 336.7,213.3 			"/>
			<path fill="#032360" d="M340,222.1c1.2-2.9,1.6-10-5.3-13.4c-6.9-3.4-13.4-1.9-15.7-4.1c0,0,0.9,4.3,7.1,6.3c6.2,2,9.8,9,9.2,9.6
				L340,222.1z"/>
			<polygon fill="#E6E7E8" points="317.4,217.9 314,224 317.3,224.8 			"/>
			<path fill="#E6E7E8" d="M335,220.7c0.9-1.1,2.8-0.8,3.1,0.5c0.4,1.3-0.4,3.9-1.5,3.6c-1.1-0.3-1.5-1-1.5-1"/>
		</g>
		<path fill="#032360" d="M343.4,230.7c5.6,20,20.1,50,8.9,91.5l-51.8-1c12-24,18.5-49.5,17.2-80.7L343.4,230.7z"/>
		<path fill="#032360" d="M338.1,234.7c-22.1,10.4-55.3,8.1-72.7-13.7l-7.4,4.6c0,0,19.8,22.5,33.8,28.4c14.9,6.3,44,15.2,55.1,4.5
			L338.1,234.7z"/>
		<g>
			<path fill="#E6E7E8" d="M249.2,215.8c2,2.1,8.8,9.8,8.8,9.8l0.6-10.6l-3.7-3.7l-7.7-7.7l-1,1.4l6.3,6.5c0,0-2-0.5-2-0.1
				s-0.2,1.5-0.2,1.5l-1.2,0.1l-0.5,1.4c0,0-0.5,0.7-0.1,0.8c0.4,0.1,9.3,10.4,9.3,10.4l0.6-10.6l-4.5-3.4"/>
			<polygon fill="#E6E7E8" points="265.4,221 258.7,215 251.4,216.2 258,225.6 			"/>
			<path fill="#E6E7E8" d="M263.8,219.6c-0.2-0.1-1.8-5.8-1.8-5.8l-1.9,0l-0.3,2.8L263.8,219.6z"/>
			<polygon fill="#E6E7E8" points="260.1,213.8 260.1,210.8 261.6,211.1 262,213.8 261.2,214.5 			"/>
		</g>
		<polygon fill="#A97C50" points="394.6,300.1 328.8,300.1 272.6,319.6 394.4,319.6 		"/>
		<polygon fill="#594A42" points="272.6,319.6 272.6,326.2 394.6,326.2 394.4,319.6 		"/>
		<defs>
			<filter id="Adobe_OpacityMaskFilter" filterUnits="userSpaceOnUse" x="17.7" y="142.3" width="304.8" height="160.9">
				<feColorMatrix  type="matrix" values="1 0 0 0 0  0 1 0 0 0  0 0 1 0 0  0 0 0 1 0"/>
			</filter>
		</defs>
		<mask maskUnits="userSpaceOnUse" x="17.7" y="142.3" width="304.8" height="160.9" id="SVGID_1_">
			<g filter="url(#Adobe_OpacityMaskFilter)">
				<linearGradient id="SVGID_2_" gradientUnits="userSpaceOnUse" x1="316.7119" y1="291.2648" x2="214.13" y2="245.4449">
					<stop  offset="0" style="stop-color:#FFFFFF"/>
					<stop  offset="0.1124" style="stop-color:#FAFAFA"/>
					<stop  offset="0.2456" style="stop-color:#ECECEC"/>
					<stop  offset="0.3893" style="stop-color:#D5D4D4"/>
					<stop  offset="0.5405" style="stop-color:#B4B2B3"/>
					<stop  offset="0.6976" style="stop-color:#8A8788"/>
					<stop  offset="0.857" style="stop-color:#575455"/>
					<stop  offset="1" style="stop-color:#231F20"/>
				</linearGradient>
				<path fill="url(#SVGID_2_)" d="M16.1,282l302.5,21.3c0,0,4.8-4.1,3.8-4.1s-58.8-156.6-58.8-156.6L16.1,282z"/>
			</g>
		</mask>
		<linearGradient id="SVGID_3_" gradientUnits="userSpaceOnUse" x1="17.7413" y1="222.7969" x2="322.5016" y2="222.7969">
			<stop  offset="0" style="stop-color:#FFF33B;stop-opacity:0.1"/>
			<stop  offset="0.1556" style="stop-color:#FFF32D;stop-opacity:0.3001"/>
			<stop  offset="0.6107" style="stop-color:#FFF207;stop-opacity:0.8856"/>
			<stop  offset="1" style="stop-color:#FFF200"/>
		</linearGradient>
		<path opacity="0.5" mask="url(#SVGID_1_)" fill="url(#SVGID_3_)" d="M17.7,281.4l300.8,21.9c0,0,4.8-4.1,3.8-4.1
			s-58.8-156.8-58.8-156.8L17.7,281.4z"/>
		<g>
			<rect x="325.7" y="304.6" fill="#A7A9AC" width="0.8" height="4.6"/>
			<g>
				<path fill="#D1D3D4" d="M330.6,295l-11.2,3.7l-0.8,4.6c-0.2,1.4,0.7,2.7,2.1,2.9l28,4.7l11.2-3.7l1.2-7.2L330.6,295z"/>
				<polygon fill="#808285" points="349.9,303.8 319.4,298.6 330.6,295 361.1,300.1 				"/>
				
					<rect x="336.5" y="304.4" transform="matrix(0.9861 0.1663 -0.1663 0.9861 55.4612 -52.5723)" fill="#808285" width="10.3" height="0.8"/>
				
					<rect x="336.2" y="305.8" transform="matrix(0.9861 0.1663 -0.1663 0.9861 55.6805 -52.5161)" fill="#808285" width="10.3" height="0.8"/>
				
					<rect x="336" y="307.1" transform="matrix(0.9861 0.1663 -0.1663 0.9861 55.8998 -52.46)" fill="#808285" width="10.3" height="0.8"/>
				<polygon fill="#A7A9AC" points="349.9,303.8 348.7,310.9 359.9,307.3 361.1,300.1 				"/>
				<g>
					<polygon fill="#808285" points="358.5,303.5 358,306.4 359.8,305.8 360.3,302.8 					"/>
					<polygon fill="#808285" points="359.8,305.8 359.1,305.1 359.4,303.2 360.3,302.8 					"/>
					<polygon fill="#A7A9AC" points="359.1,305.1 358.1,305.4 358,306.4 359.8,305.8 					"/>
				</g>
			</g>
			<g>
				<polygon fill="#594A42" points="353.5,306.9 352.3,307.5 352.3,308.4 355.8,308.4 357,307.7 357,306.9 				"/>
				<polygon fill="#808285" points="355.8,307.5 352.3,307.5 353.5,306.9 357,306.9 				"/>
				<polygon fill="#A7A9AC" points="355.8,307.5 355.8,308.4 357,307.7 357,306.9 				"/>
			</g>
			<path fill="none" stroke="#594A42" stroke-width="0.7062" stroke-linecap="round" stroke-miterlimit="10" d="M356.4,307.6
				c0,0,2.1,0,7,0c5,0,2.8,1.4,1.7,2s-2,1.8,4,1.8c5.9,0,69.4,0,69.4,0"/>
		</g>
	</g>
</g>
<g>
</g>
<g>
</g>
<g>
</g>
<g>
</g>
<g>
</g>
<g>
</g>
<g>
</g>
<g>
</g>
<g>
</g>
<g>
</g>
<g>
</g>
<g>
</g>
<g>
</g>
<g>
</g>
<g>
</g>
</svg>
