<?xml version="1.0" encoding="utf-8"?>
<!-- Generator: Adobe Illustrator 18.0.0, SVG Export Plug-In . SVG Version: 6.00 Build 0)  -->
<!DOCTYPE svg PUBLIC "-//W3C//DTD SVG 1.1//EN" "http://www.w3.org/Graphics/SVG/1.1/DTD/svg11.dtd">
<svg version="1.1" id="Layer_1" xmlns="http://www.w3.org/2000/svg" xmlns:xlink="http://www.w3.org/1999/xlink" x="0px" y="0px"
	 viewBox="0 0 40.5 372.3" enable-background="new 0 0 40.5 372.3" xml:space="preserve">
<g>
	<path fill="#7F58A5" d="M16.9,323.4c0-0.1,0.1-0.2,0.2-0.2s0.2,0.1,0.2,0.2 M17.1,322.3c-0.1,0-0.2-0.1-0.2-0.2v-1.3
		c0-0.1,0.1-0.2,0.2-0.2s0.2,0.1,0.2,0.2v1.3C17.2,322.2,17.2,322.3,17.1,322.3z M17.1,319.8c-0.1,0-0.2-0.1-0.2-0.2v-1.3
		c0-0.1,0.1-0.2,0.2-0.2s0.2,0.1,0.2,0.2v1.3C17.2,319.7,17.2,319.8,17.1,319.8z M17.1,317.2c-0.1,0-0.2-0.1-0.2-0.2v-1.3
		c0-0.1,0.1-0.2,0.2-0.2s0.2,0.1,0.2,0.2v1.3C17.2,317.2,17.2,317.2,17.1,317.2z M17.1,314.7c-0.1,0-0.2-0.1-0.2-0.2v-1.3
		c0-0.1,0.1-0.2,0.2-0.2s0.2,0.1,0.2,0.2v1.3C17.2,314.6,17.2,314.7,17.1,314.7z M17.1,312.2c-0.1,0-0.2-0.1-0.2-0.2v-1.3
		c0-0.1,0.1-0.2,0.2-0.2s0.2,0.1,0.2,0.2v1.3C17.2,312.1,17.2,312.2,17.1,312.2z M17.1,309.6c-0.1,0-0.2-0.1-0.2-0.2v-1.3
		c0-0.1,0.1-0.2,0.2-0.2s0.2,0.1,0.2,0.2v1.3C17.2,309.5,17.2,309.6,17.1,309.6z M17.1,307.1c-0.1,0-0.2-0.1-0.2-0.2v-1.3
		c0-0.1,0.1-0.2,0.2-0.2s0.2,0.1,0.2,0.2v1.3C17.2,307,17.2,307.1,17.1,307.1z M17.1,304.5c-0.1,0-0.2-0.1-0.2-0.2v-1.3
		c0-0.1,0.1-0.2,0.2-0.2s0.2,0.1,0.2,0.2v1.3C17.2,304.5,17.2,304.5,17.1,304.5z M17.1,302c-0.1,0-0.2-0.1-0.2-0.2v-1.3
		c0-0.1,0.1-0.2,0.2-0.2s0.2,0.1,0.2,0.2v1.3C17.2,301.9,17.2,302,17.1,302z M17.1,299.4c-0.1,0-0.2-0.1-0.2-0.2V298
		c0-0.1,0.1-0.2,0.2-0.2s0.2,0.1,0.2,0.2v1.3C17.2,299.4,17.2,299.4,17.1,299.4z M17.1,296.9c-0.1,0-0.2-0.1-0.2-0.2v-24.5
		c0-0.1,0.1-0.2,0.2-0.2s0.2,0.1,0.2,0.2v24.5C17.2,296.8,17.2,296.9,17.1,296.9z M17.1,271.1c-0.1,0-0.2-0.1-0.2-0.2v-1.3
		c0-0.1,0.1-0.2,0.2-0.2s0.2,0.1,0.2,0.2v1.3C17.2,271,17.2,271.1,17.1,271.1z M17.1,268.6c-0.1,0-0.2-0.1-0.2-0.2v-1.3
		c0-0.1,0.1-0.2,0.2-0.2s0.2,0.1,0.2,0.2v1.3C17.2,268.5,17.2,268.6,17.1,268.6z"/>
	<path fill="#7F58A5" d="M13.2,372.3c-0.1,0-0.2-0.1-0.2-0.2V254.3c0-0.1,0.1-0.2,0.2-0.2s0.2,0.1,0.2,0.2v117.8
		C13.3,372.3,13.2,372.3,13.2,372.3z"/>
	<g>
		<g>
			<path fill="#7F58A5" d="M34.1,106.8c-0.6-0.6-1.1-0.9-1.9-0.9c-0.9,0-1.4,0.4-1.4,1.2c0,1.8,4.4,1.6,4.4,4.9
				c0,1.6-0.9,2.8-2.6,3.1l0,1.7l-1.5,0l0-1.6c-1-0.1-2.1-0.6-2.9-1.3l1-1.4c0.8,0.6,1.6,1,2.4,1c1,0,1.5-0.4,1.5-1.3
				c0-2-4.4-1.8-4.4-4.9c0-1.6,1-2.7,2.5-3l0-1.7l1.5,0l0,1.7c1.1,0.2,1.8,0.7,2.4,1.4L34.1,106.8z"/>
		</g>
		<g>
			<path fill="#7F58A5" d="M17.1,136.5c-2.7,0-3.3-8.1-3.3-8.1H9.5C9.5,128.4,10.2,136.5,17.1,136.5s11.2-5.3,11.2-10.3h-5.1
				C23.2,126.1,20.7,136.5,17.1,136.5z"/>
			<polygon fill="#7F58A5" points="19.3,128.1 26.2,117.9 31.2,128.9 25.2,126.6 			"/>
		</g>
		<polygon fill="#7F58A5" points="0.3,131.9 0,131.9 0,123 0,122.9 8.9,112.6 9.2,112.7 9.2,122.5 8.8,122.5 8.8,113.1 0.3,123.1 		
			"/>
		<polygon fill="#7F58A5" points="12.1,123.9 3.8,123.9 3.8,123.6 11.7,123.6 11.7,108.8 16.6,108.8 16.6,100.8 26.7,100.8 
			26.7,116.2 26.4,116.2 26.4,101.1 16.9,101.1 16.9,109.1 12.1,109.1 		"/>
		<polygon fill="#7F58A5" points="14.2,127 13.9,127 13.9,124.6 16.6,124.6 16.6,115 25.1,115 25.1,115.3 16.9,115.3 16.9,125 
			14.2,125 		"/>
		<polygon fill="#7F58A5" points="19.8,115.1 19.5,115.1 19.5,112.5 24.9,112.5 24.9,112.8 19.8,112.8 		"/>
		<rect x="21.7" y="108.2" fill="#7F58A5" width="0.3" height="4.4"/>
		<polygon fill="#7F58A5" points="26.7,101 26.4,101 26.4,98.8 19.3,98.8 19.3,100.8 18.9,100.8 18.9,98.5 26.7,98.5 		"/>
		<polygon fill="#7F58A5" points="26.7,98.6 26.4,98.6 26.4,96.5 21.8,96.5 21.8,98.5 21.5,98.5 21.5,96.2 26.7,96.2 		"/>
		<rect x="25.2" y="90.7" fill="#7F58A5" width="0.3" height="5.6"/>
		<rect x="18.3" y="102.3" fill="#7F58A5" width="0.3" height="4"/>
		<rect x="13.1" y="109.7" fill="#7F58A5" width="0.3" height="13"/>
		<rect x="14.6" y="109.7" fill="#7F58A5" width="0.3" height="13"/>
		<rect x="19.9" y="102.3" fill="#7F58A5" width="0.3" height="4"/>
		<rect x="21.5" y="102.3" fill="#7F58A5" width="0.3" height="4"/>
		<rect x="23.2" y="102.3" fill="#7F58A5" width="0.3" height="4"/>
		<rect x="24.8" y="102.3" fill="#7F58A5" width="0.3" height="4"/>
		<rect x="17.9" y="116" fill="#7F58A5" width="0.3" height="8.4"/>
		<rect x="19.3" y="116" fill="#7F58A5" width="0.3" height="8.4"/>
		<rect x="20.7" y="116" fill="#7F58A5" width="0.3" height="8.4"/>
		<rect x="22" y="116" fill="#7F58A5" width="0.3" height="7"/>
		<rect x="23.1" y="116" fill="#7F58A5" width="0.3" height="5.4"/>
		<g>
			<rect x="7.5" y="117" fill="#7F58A5" width="0.3" height="5"/>
			<rect x="6" y="118.5" fill="#7F58A5" width="0.3" height="4"/>
			<rect x="4.5" y="119.9" fill="#7F58A5" width="0.3" height="3.1"/>
			<rect x="2.9" y="121.4" fill="#7F58A5" width="0.3" height="10.5"/>
			<rect x="1.4" y="122.8" fill="#7F58A5" width="0.3" height="9"/>
		</g>
		<rect x="4.4" y="124.7" fill="#7F58A5" width="0.3" height="7.1"/>
		<rect x="5.9" y="124.7" fill="#7F58A5" width="0.3" height="7.1"/>
		<rect x="7.5" y="124.7" fill="#7F58A5" width="0.3" height="7.1"/>
		<rect x="9" y="112.6" fill="#7F58A5" width="2.9" height="0.3"/>
		<rect x="10.1" y="114.2" fill="#7F58A5" width="0.3" height="2.1"/>
		<rect x="10.1" y="117.2" fill="#7F58A5" width="0.3" height="2.1"/>
		<rect x="10.1" y="120.2" fill="#7F58A5" width="0.3" height="2.1"/>
		<rect x="9.1" y="124.8" fill="#7F58A5" width="2.8" height="0.3"/>
		<rect x="9.1" y="126" fill="#7F58A5" width="2.8" height="0.3"/>
		<rect x="9.1" y="127.1" fill="#7F58A5" width="2.8" height="0.3"/>
		<rect x="24.4" y="116" fill="#7F58A5" width="0.3" height="3.1"/>
	</g>
	<path fill="#7F58A5" d="M28.5,143.6h-1v-0.3h1c0.1,0,0.2,0,0.3,0l0,0.3C28.7,143.6,28.6,143.6,28.5,143.6z M26.3,143.6H25v-0.3h1.3
		V143.6z M23.7,143.6h-1.3v-0.3h1.3V143.6z M21.2,143.6h-1.3v-0.3h1.3V143.6z M18.6,143.6h-1.3v-0.3h1.3V143.6z M16.1,143.6h-1.3
		v-0.3h1.3V143.6z M13.6,143.6h-1.3v-0.3h1.3V143.6z M11,143.6H9.7v-0.3H11V143.6z M8.5,143.6H8c-0.3,0-0.5,0-0.8-0.1l0.1-0.3
		c0.3,0,0.5,0.1,0.8,0.1h0.5V143.6z M30.1,143.3L30,143c0.4-0.2,0.7-0.4,1-0.7l0.2,0.2C30.9,142.9,30.5,143.1,30.1,143.3z
		 M5.9,143.2c-0.4-0.2-0.8-0.4-1.1-0.7l0.2-0.2c0.3,0.3,0.7,0.5,1,0.7L5.9,143.2z M32,141.5l-0.3-0.1c0.2-0.4,0.3-0.8,0.4-1.2l0.3,0
		C32.3,140.7,32.2,141.1,32,141.5z M4,141.5c-0.2-0.4-0.4-0.8-0.6-1.2l0.3-0.1c0.1,0.4,0.3,0.8,0.6,1.1L4,141.5z M3.1,139
		c0-0.1,0-0.2,0-0.3v-1h0.3v1c0,0.1,0,0.2,0,0.3L3.1,139z M32.5,139l-0.3-0.1c0.1-0.4,0.3-0.8,0.5-1.2l0.3,0.2
		C32.7,138.2,32.6,138.6,32.5,139z M33.7,137l-0.2-0.3c0.4-0.3,0.7-0.5,1.2-0.6l0.1,0.3C34.4,136.6,34.1,136.7,33.7,137z M3.4,136.5
		H3.1v-1.3h0.3V136.5z M36.6,136.2H36v-0.3h0.6c0.2,0,0.4,0,0.6-0.1l0.1,0.3C37.1,136.2,36.9,136.2,36.6,136.2z M38.5,135.7
		l-0.2-0.3c0.4-0.2,0.7-0.5,0.9-0.8l0.2,0.2C39.3,135.2,38.9,135.5,38.5,135.7z M40.2,133.8l-0.3-0.1c0.1-0.4,0.2-0.8,0.2-1.2l0.3,0
		C40.5,132.9,40.4,133.3,40.2,133.8z M40.5,131.2h-0.3v-1.3h0.3V131.2z M40.5,128.7h-0.3v-1.3h0.3V128.7z M40.5,126.1h-0.3v-1.3h0.3
		V126.1z M40.5,123.6h-0.3v-1.3h0.3V123.6z M40.5,121h-0.3v-1.3h0.3V121z M40.5,118.5h-0.3v-1.3h0.3V118.5z M40.5,115.9h-0.3v-1.3
		h0.3V115.9z M40.5,113.4h-0.3v-1.3h0.3V113.4z M40.5,110.9h-0.3v-1.3h0.3V110.9z M40.5,108.3h-0.3v-1.3h0.3V108.3z M40.5,105.8
		h-0.3v-1.3h0.3V105.8z M40.5,103.2h-0.3V102h0.3V103.2z M40.5,100.7h-0.3v-1.3h0.3V100.7z M40.5,98.2h-0.3v-0.8c0-0.2,0-0.3,0-0.5
		l0.3-0.1c0,0.2,0,0.3,0,0.5V98.2z M39.7,95.8c-0.2-0.3-0.5-0.6-0.9-0.8l0.2-0.3c0.4,0.2,0.7,0.6,1,0.9L39.7,95.8z M37.7,94.6
		c-0.1,0-0.3,0-0.4,0c-0.3,0-0.6,0-0.9-0.1l0.1-0.3c0.3,0.1,0.5,0.1,0.8,0.1c0,0,0,0,0,0c0.1,0,0.3,0,0.4,0L37.7,94.6z M35.3,93.8
		c-0.3-0.3-0.6-0.7-0.8-1.1l0.3-0.1c0.2,0.4,0.4,0.7,0.7,1L35.3,93.8z M34.5,91.4h-0.3v-1.3h0.3V91.4z M34.1,88.9
		c-0.1-0.4-0.3-0.8-0.5-1.1l0.3-0.2c0.3,0.4,0.5,0.8,0.6,1.2L34.1,88.9z M32.7,87c-0.4-0.2-0.7-0.3-1.1-0.3l0-0.3
		c0.5,0,0.9,0.2,1.3,0.4L32.7,87z M30.3,86.7h-1.3v-0.3h1.3V86.7z M27.8,86.7h-1.3v-0.3h1.3V86.7z M25.3,86.7H24v-0.3h1.3V86.7z
		 M22.7,86.7h-1.3v-0.3h1.3V86.7z M20.2,86.7h-1.3v-0.3h1.3V86.7z M17.6,86.7h-1.1c-0.1,0-0.2-0.1-0.2-0.2v-0.1h0.2v0h1.1V86.7z
		 M16.7,85.1h-0.3v-1.3h0.3V85.1z M16.7,82.6h-0.3v-1.3h0.3V82.6z M16.7,80h-0.3v-1.3h0.3V80z M16.7,77.5h-0.3v-1.3h0.3V77.5z
		 M16.7,75h-0.3v-1.3h0.3V75z M16.7,72.4h-0.3v-1.3h0.3V72.4z M16.7,69.9h-0.3v-1.3h0.3V69.9z M16.7,67.3h-0.3v-1.3h0.3V67.3z
		 M16.7,64.8h-0.3v-1.3h0.3V64.8z M16.7,62.3h-0.3V61h0.3V62.3z M16.7,59.7h-0.3v-1.3h0.3V59.7z M16.7,57.2h-0.3v-1.3h0.3V57.2z
		 M16.7,54.6h-0.3v-1.3h0.3V54.6z M16.7,52.1h-0.3v-1.3h0.3V52.1z M16.7,49.6h-0.3v-1.3h0.3V49.6z M16.7,47h-0.3v-1.3h0.3V47z
		 M16.7,44.5h-0.3v-1.3h0.3V44.5z M16.7,41.9h-0.3v-1.3h0.3V41.9z M16.7,39.4h-0.3v-1.3h0.3V39.4z M16.7,36.8h-0.3v-1.3h0.3V36.8z
		 M16.7,34.3h-0.3V33h0.3V34.3z M16.7,31.8h-0.3v-1.3h0.3V31.8z M16.7,29.2h-0.3V28h0.3V29.2z M16.7,26.7h-0.3v-1.3h0.3V26.7z
		 M16.7,24.1h-0.3v-1.3h0.3V24.1z M16.7,21.6h-0.3v-1.3h0.3V21.6z M16.7,19.1h-0.3v-1.3h0.3V19.1z M16.7,16.5h-0.3v-1.3h0.3V16.5z
		 M16.7,14h-0.3v-1.3h0.3V14z M16.7,11.4h-0.3v-1.3h0.3V11.4z M16.7,8.9h-0.3V7.6h0.3V8.9z M16.7,6.4h-0.3V5.1h0.3V6.4z M16.7,3.8
		h-0.3V2.5h0.3V3.8z M16.7,1.3h-0.3V0h0.3V1.3z"/>
	<path fill="#7F58A5" d="M25,221.5H6.4c-2.7,0-4.9-2.2-4.9-4.9v-13.8h0.3v13.8c0,2.5,2.1,4.6,4.6,4.6H25V221.5z"/>
	<path fill="#7F58A5" d="M2.7,114.1H2.4V94c0-1.9,1.6-3.5,3.5-3.5h12.5v0.3H5.9c-1.7,0-3.2,1.4-3.2,3.2V114.1z"/>
	<g>
		<g>
			<path fill="#7F58A5" d="M17,210c0,0-0.1,0-0.1,0l-3.5-3.4l0.2-0.2l3.5,3.4c5.3-0.6,12.1-8.5,15-15.3c1.7-4,1.9-7.2,0.6-8.9
				c-1.8-1.3-4.9-1-8.9,0.8c-6.7,3.1-14.4,10.2-14.9,15.5l3.5,3.4l-0.2,0.2l-3.6-3.5c0,0-0.1-0.1,0-0.1c0.2-2.5,2-5.6,5.1-8.8
				c2.9-2.9,6.5-5.5,10-7.1c4.1-1.9,7.4-2.2,9.3-0.8c0,0,0,0,0,0c1.4,1.8,1.3,5.1-0.5,9.3c-1.5,3.5-4,7.2-6.8,10.2
				C22.6,207.9,19.6,209.8,17,210C17,210,17,210,17,210z"/>
			<path fill="#7F58A5" d="M8.6,201.9c-2.9-3.8-8.1-2.7-8.1-2.7c-0.1,0-0.2,0-0.2-0.1c0-0.1,0-0.2,0.1-0.2l13.5-6l0.1,0.3l-12.5,5.6
				c1.7-0.1,5.1,0.1,7.4,2.9L8.6,201.9z"/>
			<path fill="#7F58A5" d="M20,218.2C20,218.2,20,218.2,20,218.2c-0.1,0-0.2-0.1-0.2-0.2c0-0.1,1-5.2-2.9-8l0.2-0.3
				c2.9,2.1,3.2,5.5,3.1,7.3l5.2-12.6l0.3,0.1l-5.6,13.6C20.1,218.1,20.1,218.2,20,218.2z"/>
			<path fill="#7F58A5" d="M27.5,193.5c-0.7,0-1.3-0.3-1.9-0.8c-0.5-0.5-0.8-1.2-0.8-1.9c0-0.7,0.3-1.4,0.8-1.9
				c1-1.1,2.7-1.1,3.8-0.1c1.1,1,1.1,2.7,0.1,3.8v0C28.9,193.2,28.2,193.5,27.5,193.5z M27.5,188.4c-0.6,0-1.2,0.2-1.7,0.7
				c-0.4,0.5-0.7,1.1-0.7,1.7c0,0.6,0.3,1.2,0.7,1.7c0.9,0.9,2.4,0.9,3.3-0.1v0c0.9-0.9,0.9-2.4-0.1-3.3
				C28.7,188.6,28.1,188.4,27.5,188.4z"/>
			
				<rect x="14.4" y="206.9" transform="matrix(0.7178 0.6962 -0.6962 0.7178 149.066 46.338)" fill="#7F58A5" width="6" height="0.3"/>
			
				<rect x="8.5" y="201.2" transform="matrix(0.7178 0.6962 -0.6962 0.7178 143.4473 48.8179)" fill="#7F58A5" width="6" height="0.3"/>
			<path fill="#7F58A5" d="M10.9,208.1c0,0-0.1,0-0.1,0c0,0-0.1-0.1,0-0.2c0,0,1.2-2.9,3.7-5.5s5.3-3.9,5.4-3.9c0.1,0,0.1,0,0.2,0
				c0,0,0.1,0.1,0,0.2c0,0-1.2,2.9-3.7,5.5C13.8,206.7,10.9,208,10.9,208.1C10.9,208.1,10.9,208.1,10.9,208.1z M19.5,199
				c-0.9,0.4-3,1.7-4.9,3.6c-1.9,1.9-3,4.1-3.5,5c0.9-0.4,3-1.7,4.9-3.6C17.9,202,19.1,199.9,19.5,199z"/>
			<path fill="#7F58A5" d="M3,216.8c0,0-0.1,0-0.1,0c-0.1,0-0.1-0.1,0-0.2l3.5-8.1l-1,0.8c-0.1,0-0.1,0-0.2,0c-0.1,0-0.1-0.1,0-0.2
				l2.8-6.1l0.3,0.1l-2.5,5.5l1-0.8c0.1,0,0.1,0,0.2,0c0.1,0,0.1,0.1,0,0.2l-3.6,8.2l7.6-4.9c0.1,0,0.1,0,0.2,0c0.1,0,0.1,0.1,0,0.2
				l-0.8,1.9l5.1-2.4l0.1,0.3l-5.5,2.6c-0.1,0-0.1,0-0.2,0c0,0-0.1-0.1,0-0.2l0.8-1.8L3,216.8C3,216.7,3,216.8,3,216.8z"/>
			
				<rect x="7.4" y="201.2" transform="matrix(0.7071 0.7071 -0.7071 0.7071 147.6261 54.9106)" fill="#7F58A5" width="0.3" height="8.9"/>
			
				<rect x="11" y="199" transform="matrix(0.7071 0.7071 -0.7071 0.7071 147.1642 51.7466)" fill="#7F58A5" width="0.3" height="8.9"/>
			
				<rect x="15.8" y="202.3" transform="matrix(0.7071 0.7071 -0.7071 0.7071 150.858 49.2474)" fill="#7F58A5" width="0.3" height="8.9"/>
			
				<rect x="13" y="207" transform="matrix(0.7071 0.7071 -0.7071 0.7071 153.4038 52.653)" fill="#7F58A5" width="0.3" height="8.9"/>
			<g>
				<polygon fill="#7F58A5" points="8.3,194.6 8.3,191.5 5.7,191.5 5.7,195.8 				"/>
				<polygon fill="#7F58A5" points="11.7,193 11.7,188.6 9,188.6 9,194.3 				"/>
				<polygon fill="#7F58A5" points="15,190.8 15,185.9 12.4,185.9 12.4,192.8 13.6,192.4 				"/>
				<polygon fill="#7F58A5" points="18.4,188.2 18.4,183.5 15.7,183.5 15.7,190.3 				"/>
				<polygon fill="#7F58A5" points="21.7,186.1 21.7,179.5 19.1,179.5 19.1,187.7 				"/>
				<polygon fill="#7F58A5" points="25.1,184.7 25.1,174.9 22.4,174.9 22.4,185.9 				"/>
				<polyline fill="#7F58A5" points="24.8,171 14.2,181.8 13.3,180.9 5.1,189.1 5.1,186.8 13.4,178.8 14.6,180 24.6,170.9 				"/>
				<polygon fill="#7F58A5" points="24.6,172.6 25.8,169.8 22.9,171.1 24.6,170.9 				"/>
			</g>
		</g>
		<path fill="#7F58A5" d="M17,264.9h-0.3v-0.2H17V264.9z M17,263.4h-0.3v-1.3H17V263.4z M17,260.9h-0.3v-1.3H17V260.9z M17,258.3
			h-0.3V257H17V258.3z M17,255.8h-0.3v-1.3H17V255.8z M17,253.2h-0.3V252H17V253.2z M17,250.7h-0.3v-1.3H17V250.7z M17,248.1h-0.3
			v-1.3H17V248.1z M17,245.6h-0.3v-1.3H17V245.6z M17,243.1h-0.3v-1.3H17V243.1z M17,240.5h-0.3v-1.3H17V240.5z M17,238h-0.3v-1.3
			H17V238z M17,235.4h-0.3v-1.3H17V235.4z M17,232.9h-0.3v-1.3H17V232.9z M17,230.4h-0.3v-1.3H17V230.4z M17,227.8h-0.3v-1.3H17
			V227.8z M17,225.3h-0.3V224H17V225.3z M26.5,223.6h-1.3v-0.3h1.3V223.6z M23.9,223.6h-1.3v-0.3h1.3V223.6z M21.4,223.6h-1.3v-0.3
			h1.3V223.6z M18.9,223.6h-1.3v-0.3h1.3V223.6z M27.8,223.5l-0.1-0.3c0.4-0.1,0.8-0.2,1.1-0.5L29,223
			C28.6,223.3,28.2,223.4,27.8,223.5z M30,222.2l-0.2-0.2c0.3-0.3,0.5-0.7,0.6-1.1l0.3,0.1C30.5,221.4,30.3,221.8,30,222.2z
			 M30.8,219.7l-0.3,0c0-0.4,0.1-0.9,0.2-1.3l0.3,0.1C30.9,218.9,30.8,219.3,30.8,219.7z M31.7,217.5l-0.2-0.2
			c0.3-0.3,0.6-0.6,1-0.8l0.2,0.3C32.2,216.9,31.9,217.2,31.7,217.5z M33.7,216.3l-0.1-0.3c0.2,0,0.5-0.1,0.7-0.1H35v0.3h-0.6
			C34.2,216.2,33.9,216.2,33.7,216.3z M36.3,216l-0.1-0.3c0.4-0.1,0.7-0.3,1.1-0.6l0.2,0.3C37.1,215.7,36.7,215.9,36.3,216z
			 M38.3,214.5l-0.3-0.2c0.2-0.3,0.4-0.7,0.5-1.1l0.3,0.1C38.7,213.7,38.6,214.1,38.3,214.5z M38.9,211.9h-0.3v-1.3h0.3V211.9z
			 M38.9,209.4h-0.3v-1.3h0.3V209.4z M38.9,206.9h-0.3v-1.3h0.3V206.9z M38.9,204.3h-0.3V203h0.3V204.3z M38.9,201.8h-0.3v-1.3h0.3
			V201.8z M38.9,199.2h-0.3V198h0.3V199.2z M38.9,196.7h-0.3v-1.3h0.3V196.7z M38.9,194.2h-0.3v-1.3h0.3V194.2z M38.9,191.6h-0.3
			v-1.3h0.3V191.6z M38.9,189.1h-0.3v-1.3h0.3V189.1z M38.9,186.5h-0.3v-1.3h0.3V186.5z M38.9,184h-0.3v-1.3h0.3V184z M38.9,181.4
			h-0.3v-1.3h0.3V181.4z M38.9,178.9h-0.3v-1.3h0.3V178.9z M38.5,176.4c-0.1-0.4-0.3-0.7-0.6-1l0.2-0.2c0.3,0.3,0.5,0.7,0.7,1.1
			L38.5,176.4z M36.9,174.7c-0.3-0.1-0.7-0.2-1.1-0.2c0,0-0.1,0-0.1,0l0-0.3c0,0,0.1,0,0.1,0c0.4,0,0.8,0.1,1.2,0.2L36.9,174.7z
			 M34.4,174.2c-0.4-0.2-0.8-0.5-1-0.8l0.2-0.2c0.3,0.3,0.6,0.6,0.9,0.8L34.4,174.2z M32.8,172.2c-0.1-0.3-0.1-0.5-0.1-0.8v-0.5H33
			v0.5c0,0.2,0,0.5,0.1,0.7L32.8,172.2z M33,169.6h-0.3v-0.1c0-0.4-0.1-0.7-0.2-1.1l0.3-0.1c0.2,0.4,0.2,0.8,0.2,1.2V169.6z
			 M31.8,167.4c-0.3-0.3-0.6-0.5-1-0.6l0.1-0.3c0.4,0.1,0.8,0.4,1.1,0.7L31.8,167.4z M29.6,166.7h-1.3v-0.3h1.3V166.7z M27,166.7
			h-1.3v-0.3H27V166.7z M24.5,166.7h-1.3v-0.3h1.3V166.7z M21.9,166.7h-1.3v-0.3h1.3V166.7z M19.4,166.7h-1.3v-0.3h1.3V166.7z
			 M16.8,166.7h-1.3v-0.3h1.3V166.7z M15.1,165.9h-0.3v-1.3h0.3V165.9z M15.1,163.3h-0.3v-1.3h0.3V163.3z M15.1,160.8h-0.3v-1.3h0.3
			V160.8z M15.1,158.2h-0.3V157h0.3V158.2z M15.1,155.7h-0.3v-1.3h0.3V155.7z M15.1,153.2h-0.3v-1.3h0.3V153.2z"/>
		<path fill="#7F58A5" d="M1.9,193.3H1.5v-20.1c0-1.9,1.6-3.5,3.5-3.5h12.5v0.3H5c-1.7,0-3.2,1.4-3.2,3.2V193.3z"/>
	</g>
	<rect x="11" y="87.5" fill="#7F58A5" width="0.3" height="13.3"/>
	<path fill="#7F58A5" d="M8.2,370.4c-0.1,0-0.2-0.1-0.2-0.2V369c0-0.1,0.1-0.2,0.2-0.2s0.2,0.1,0.2,0.2v1.3
		C8.3,370.4,8.2,370.4,8.2,370.4z M8.2,367.9c-0.1,0-0.2-0.1-0.2-0.2v-1.3c0-0.1,0.1-0.2,0.2-0.2s0.2,0.1,0.2,0.2v1.3
		C8.3,367.8,8.2,367.9,8.2,367.9z M8.2,365.4c-0.1,0-0.2-0.1-0.2-0.2v-1.3c0-0.1,0.1-0.2,0.2-0.2s0.2,0.1,0.2,0.2v1.3
		C8.3,365.3,8.2,365.4,8.2,365.4z M8.2,362.8c-0.1,0-0.2-0.1-0.2-0.2v-1.3c0-0.1,0.1-0.2,0.2-0.2s0.2,0.1,0.2,0.2v1.3
		C8.3,362.7,8.2,362.8,8.2,362.8z M8.2,360.3c-0.1,0-0.2-0.1-0.2-0.2v-1.3c0-0.1,0.1-0.2,0.2-0.2s0.2,0.1,0.2,0.2v1.3
		C8.3,360.2,8.2,360.3,8.2,360.3z M8.2,357.7c-0.1,0-0.2-0.1-0.2-0.2v-1.3c0-0.1,0.1-0.2,0.2-0.2s0.2,0.1,0.2,0.2v1.3
		C8.3,357.7,8.2,357.7,8.2,357.7z M8.2,355.2c-0.1,0-0.2-0.1-0.2-0.2v-1.3c0-0.1,0.1-0.2,0.2-0.2s0.2,0.1,0.2,0.2v1.3
		C8.3,355.1,8.2,355.2,8.2,355.2z M8.2,352.6c-0.1,0-0.2-0.1-0.2-0.2v-1.3c0-0.1,0.1-0.2,0.2-0.2s0.2,0.1,0.2,0.2v1.3
		C8.3,352.6,8.2,352.6,8.2,352.6z M8.2,350.1c-0.1,0-0.2-0.1-0.2-0.2v-1.3c0-0.1,0.1-0.2,0.2-0.2s0.2,0.1,0.2,0.2v1.3
		C8.3,350,8.2,350.1,8.2,350.1z M8.2,347.6c-0.1,0-0.2-0.1-0.2-0.2v-1.3c0-0.1,0.1-0.2,0.2-0.2s0.2,0.1,0.2,0.2v1.3
		C8.3,347.5,8.2,347.6,8.2,347.6z M8.2,345C8.1,345,8,345,8,344.9v-1.3c0-0.1,0.1-0.2,0.2-0.2s0.2,0.1,0.2,0.2v1.3
		C8.3,345,8.2,345,8.2,345z M8.2,342.5c-0.1,0-0.2-0.1-0.2-0.2v-1.3c0-0.1,0.1-0.2,0.2-0.2s0.2,0.1,0.2,0.2v1.3
		C8.3,342.4,8.2,342.5,8.2,342.5z M8.2,339.9c-0.1,0-0.2-0.1-0.2-0.2v-1.3c0-0.1,0.1-0.2,0.2-0.2s0.2,0.1,0.2,0.2v1.3
		C8.3,339.9,8.2,339.9,8.2,339.9z M8.2,337.4c-0.1,0-0.2-0.1-0.2-0.2V336c0-0.1,0.1-0.2,0.2-0.2s0.2,0.1,0.2,0.2v1.3
		C8.3,337.3,8.2,337.4,8.2,337.4z M8.2,334.9c-0.1,0-0.2-0.1-0.2-0.2v-1.3c0-0.1,0.1-0.2,0.2-0.2s0.2,0.1,0.2,0.2v1.3
		C8.3,334.8,8.2,334.9,8.2,334.9z M8.2,332.3c-0.1,0-0.2-0.1-0.2-0.2v-1.3c0-0.1,0.1-0.2,0.2-0.2s0.2,0.1,0.2,0.2v1.3
		C8.3,332.2,8.2,332.3,8.2,332.3z M8.2,329.8c-0.1,0-0.2-0.1-0.2-0.2v-1.3c0-0.1,0.1-0.2,0.2-0.2s0.2,0.1,0.2,0.2v1.3
		C8.3,329.7,8.2,329.8,8.2,329.8z M8.2,327.2c-0.1,0-0.2-0.1-0.2-0.2v-1.3c0-0.1,0.1-0.2,0.2-0.2s0.2,0.1,0.2,0.2v1.3
		C8.3,327.2,8.2,327.2,8.2,327.2z M8.2,324.7c-0.1,0-0.2-0.1-0.2-0.2v-1.3c0-0.1,0.1-0.2,0.2-0.2s0.2,0.1,0.2,0.2v1.3
		C8.3,324.6,8.2,324.7,8.2,324.7z M8.2,322.2c-0.1,0-0.2-0.1-0.2-0.2v-1.3c0-0.1,0.1-0.2,0.2-0.2s0.2,0.1,0.2,0.2v1.3
		C8.3,322.1,8.2,322.2,8.2,322.2z M8.2,319.6c-0.1,0-0.2-0.1-0.2-0.2v-1.3c0-0.1,0.1-0.2,0.2-0.2s0.2,0.1,0.2,0.2v1.3
		C8.3,319.5,8.2,319.6,8.2,319.6z M8.2,317.1c-0.1,0-0.2-0.1-0.2-0.2v-1.3c0-0.1,0.1-0.2,0.2-0.2s0.2,0.1,0.2,0.2v1.3
		C8.3,317,8.2,317.1,8.2,317.1z M8.2,314.5c-0.1,0-0.2-0.1-0.2-0.2v-1.3c0-0.1,0.1-0.2,0.2-0.2s0.2,0.1,0.2,0.2v1.3
		C8.3,314.5,8.2,314.5,8.2,314.5z M8.2,312c-0.1,0-0.2-0.1-0.2-0.2v-1.3c0-0.1,0.1-0.2,0.2-0.2s0.2,0.1,0.2,0.2v1.3
		C8.3,311.9,8.2,312,8.2,312z M8.2,309.4c-0.1,0-0.2-0.1-0.2-0.2V308c0-0.1,0.1-0.2,0.2-0.2s0.2,0.1,0.2,0.2v1.3
		C8.3,309.4,8.2,309.4,8.2,309.4z M8.2,306.9c-0.1,0-0.2-0.1-0.2-0.2v-1.3c0-0.1,0.1-0.2,0.2-0.2s0.2,0.1,0.2,0.2v1.3
		C8.3,306.8,8.2,306.9,8.2,306.9z M8.2,304.4c-0.1,0-0.2-0.1-0.2-0.2v-1.3c0-0.1,0.1-0.2,0.2-0.2s0.2,0.1,0.2,0.2v1.3
		C8.3,304.3,8.2,304.4,8.2,304.4z M8.2,301.8c-0.1,0-0.2-0.1-0.2-0.2v-1.3c0-0.1,0.1-0.2,0.2-0.2s0.2,0.1,0.2,0.2v1.3
		C8.3,301.8,8.2,301.8,8.2,301.8z M8.2,299.3c-0.1,0-0.2-0.1-0.2-0.2v-1.3c0-0.1,0.1-0.2,0.2-0.2s0.2,0.1,0.2,0.2v1.3
		C8.3,299.2,8.2,299.3,8.2,299.3z M8.2,296.7c-0.1,0-0.2-0.1-0.2-0.2v-1.3c0-0.1,0.1-0.2,0.2-0.2s0.2,0.1,0.2,0.2v1.3
		C8.3,296.7,8.2,296.7,8.2,296.7z M8.2,294.2c-0.1,0-0.2-0.1-0.2-0.2v-1.3c0-0.1,0.1-0.2,0.2-0.2s0.2,0.1,0.2,0.2v1.3
		C8.3,294.1,8.2,294.2,8.2,294.2z M8.2,291.7c-0.1,0-0.2-0.1-0.2-0.2v-1.3c0-0.1,0.1-0.2,0.2-0.2s0.2,0.1,0.2,0.2v1.3
		C8.3,291.6,8.2,291.7,8.2,291.7z M8.2,289.1C8.1,289.1,8,289,8,289v-1.3c0-0.1,0.1-0.2,0.2-0.2s0.2,0.1,0.2,0.2v1.3
		C8.3,289,8.2,289.1,8.2,289.1z M8.2,286.6c-0.1,0-0.2-0.1-0.2-0.2v-1.3c0-0.1,0.1-0.2,0.2-0.2s0.2,0.1,0.2,0.2v1.3
		C8.3,286.5,8.2,286.6,8.2,286.6z M8.2,284C8.1,284,8,284,8,283.9v-1.3c0-0.1,0.1-0.2,0.2-0.2s0.2,0.1,0.2,0.2v1.3
		C8.3,284,8.2,284,8.2,284z M8.2,281.5c-0.1,0-0.2-0.1-0.2-0.2v-1.3c0-0.1,0.1-0.2,0.2-0.2s0.2,0.1,0.2,0.2v1.3
		C8.3,281.4,8.2,281.5,8.2,281.5z M8.2,279c-0.1,0-0.2-0.1-0.2-0.2v-1.3c0-0.1,0.1-0.2,0.2-0.2s0.2,0.1,0.2,0.2v1.3
		C8.3,278.9,8.2,279,8.2,279z M8.2,276.4c-0.1,0-0.2-0.1-0.2-0.2V275c0-0.1,0.1-0.2,0.2-0.2s0.2,0.1,0.2,0.2v1.3
		C8.3,276.3,8.2,276.4,8.2,276.4z M8.2,273.9c-0.1,0-0.2-0.1-0.2-0.2v-1.3c0-0.1,0.1-0.2,0.2-0.2s0.2,0.1,0.2,0.2v1.3
		C8.3,273.8,8.2,273.9,8.2,273.9z M8.2,271.3c-0.1,0-0.2-0.1-0.2-0.2v-1.3c0-0.1,0.1-0.2,0.2-0.2s0.2,0.1,0.2,0.2v1.3
		C8.3,271.3,8.2,271.3,8.2,271.3z M8.2,268.8c-0.1,0-0.2-0.1-0.2-0.2v-1.3c0-0.1,0.1-0.2,0.2-0.2s0.2,0.1,0.2,0.2v1.3
		C8.3,268.7,8.2,268.8,8.2,268.8z M8.2,266.3c-0.1,0-0.2-0.1-0.2-0.2v-1.3c0-0.1,0.1-0.2,0.2-0.2s0.2,0.1,0.2,0.2v1.3
		C8.3,266.2,8.2,266.3,8.2,266.3z M8.2,263.7c-0.1,0-0.2-0.1-0.2-0.2v-1.3c0-0.1,0.1-0.2,0.2-0.2s0.2,0.1,0.2,0.2v1.3
		C8.3,263.6,8.2,263.7,8.2,263.7z M8.2,261.2c-0.1,0-0.2-0.1-0.2-0.2v-1.3c0-0.1,0.1-0.2,0.2-0.2s0.2,0.1,0.2,0.2v1.3
		C8.3,261.1,8.2,261.2,8.2,261.2z M8.2,258.6c-0.1,0-0.2-0.1-0.2-0.2v-1.3c0-0.1,0.1-0.2,0.2-0.2s0.2,0.1,0.2,0.2v1.3
		C8.3,258.6,8.2,258.6,8.2,258.6z M8.2,256.1c-0.1,0-0.2-0.1-0.2-0.2v-1.3c0-0.1,0.1-0.2,0.2-0.2s0.2,0.1,0.2,0.2v1.3
		C8.3,256,8.2,256.1,8.2,256.1z M8.2,253.5c-0.1,0-0.2-0.1-0.2-0.2v-1.3c0-0.1,0.1-0.2,0.2-0.2s0.2,0.1,0.2,0.2v1.3
		C8.3,253.5,8.2,253.5,8.2,253.5z M8.2,251c-0.1,0-0.2-0.1-0.2-0.2v-1.3c0-0.1,0.1-0.2,0.2-0.2s0.2,0.1,0.2,0.2v1.3
		C8.3,250.9,8.2,251,8.2,251z M8.2,248.5c-0.1,0-0.2-0.1-0.2-0.2V247c0-0.1,0.1-0.2,0.2-0.2s0.2,0.1,0.2,0.2v1.3
		C8.3,248.4,8.2,248.5,8.2,248.5z M8.2,245.9c-0.1,0-0.2-0.1-0.2-0.2v-1.3c0-0.1,0.1-0.2,0.2-0.2s0.2,0.1,0.2,0.2v1.3
		C8.3,245.9,8.2,245.9,8.2,245.9z M8.2,243.4c-0.1,0-0.2-0.1-0.2-0.2V242c0-0.1,0.1-0.2,0.2-0.2s0.2,0.1,0.2,0.2v1.3
		C8.3,243.3,8.2,243.4,8.2,243.4z M8.2,240.8c-0.1,0-0.2-0.1-0.2-0.2v-1.3c0-0.1,0.1-0.2,0.2-0.2s0.2,0.1,0.2,0.2v1.3
		C8.3,240.8,8.2,240.8,8.2,240.8z M8.2,238.3c-0.1,0-0.2-0.1-0.2-0.2v-1.3c0-0.1,0.1-0.2,0.2-0.2s0.2,0.1,0.2,0.2v1.3
		C8.3,238.2,8.2,238.3,8.2,238.3z M8.2,235.8c-0.1,0-0.2-0.1-0.2-0.2v-1.3c0-0.1,0.1-0.2,0.2-0.2s0.2,0.1,0.2,0.2v1.3
		C8.3,235.7,8.2,235.8,8.2,235.8z M8.2,233.2c-0.1,0-0.2-0.1-0.2-0.2v-1.3c0-0.1,0.1-0.2,0.2-0.2s0.2,0.1,0.2,0.2v1.3
		C8.3,233.1,8.2,233.2,8.2,233.2z M8.2,230.7c-0.1,0-0.2-0.1-0.2-0.2v-1.3c0-0.1,0.1-0.2,0.2-0.2s0.2,0.1,0.2,0.2v1.3
		C8.3,230.6,8.2,230.7,8.2,230.7z M8.2,228.1c-0.1,0-0.2-0.1-0.2-0.2v-1.3c0-0.1,0.1-0.2,0.2-0.2s0.2,0.1,0.2,0.2v1.3
		C8.3,228.1,8.2,228.1,8.2,228.1z M8.2,225.6c-0.1,0-0.2-0.1-0.2-0.2v-1.3c0-0.1,0.1-0.2,0.2-0.2s0.2,0.1,0.2,0.2v1.3
		C8.3,225.5,8.2,225.6,8.2,225.6z"/>
</g>
<g>
</g>
<g>
</g>
<g>
</g>
<g>
</g>
<g>
</g>
<g>
</g>
<g>
</g>
<g>
</g>
<g>
</g>
<g>
</g>
<g>
</g>
<g>
</g>
<g>
</g>
<g>
</g>
<g>
</g>
</svg>
