<?xml version="1.0" encoding="utf-8"?>
<!-- Generator: Adobe Illustrator 18.0.0, SVG Export Plug-In . SVG Version: 6.00 Build 0)  -->
<!DOCTYPE svg PUBLIC "-//W3C//DTD SVG 1.1//EN" "http://www.w3.org/Graphics/SVG/1.1/DTD/svg11.dtd">
<svg version="1.1" id="Layer_1" xmlns="http://www.w3.org/2000/svg" xmlns:xlink="http://www.w3.org/1999/xlink" x="0px" y="0px"
	 viewBox="0 0 34 52.7" enable-background="new 0 0 34 52.7" xml:space="preserve">
<g>
	<path fill="#573392" d="M23,42.2H11c-1.5,0-2.7-1.2-2.7-2.7c0-1.5,1.2-2.7,2.7-2.7h12c1.5,0,2.7,1.2,2.7,2.7
		C25.7,41,24.5,42.2,23,42.2z M11,37.7c-1,0-1.8,0.8-1.8,1.8c0,1,0.8,1.8,1.8,1.8h12c1,0,1.8-0.8,1.8-1.8c0-1-0.8-1.8-1.8-1.8H11z"
		/>
	<path fill="#573392" d="M21.8,46.9h-9.6c-1.4,0-2.5-1.1-2.5-2.5V44c0-1.4,1.1-2.5,2.5-2.5h9.6c1.4,0,2.5,1.1,2.5,2.5v0.4
		C24.3,45.8,23.2,46.9,21.8,46.9z M12.2,42.4c-0.9,0-1.6,0.7-1.6,1.6v0.4c0,0.9,0.7,1.6,1.6,1.6h9.6c0.9,0,1.6-0.7,1.6-1.6V44
		c0-0.9-0.7-1.6-1.6-1.6H12.2z"/>
	<path fill="#573392" d="M17,52.7c-3.2,0-5.9-2.6-5.9-5.9H12c0,2.8,2.2,5,5,5s5-2.2,5-5h0.9C22.9,50,20.2,52.7,17,52.7z"/>
	<g>
		<path fill="#573392" d="M20.1,13.2c-0.8-0.8-1.6-1.2-2.6-1.2c-1.2,0-1.9,0.6-1.9,1.7c0,2.5,6.2,2.2,6.2,6.8c0,2.2-1.3,3.9-3.6,4.3
			l0,2.4l-2,0l0-2.3c-1.4-0.2-3-0.8-4-1.8l1.3-2c1.1,0.9,2.2,1.4,3.4,1.4c1.4,0,2.1-0.6,2.1-1.8c0-2.8-6.2-2.6-6.2-6.8
			c0-2.2,1.4-3.8,3.5-4.1l0-2.4l2,0l0,2.3c1.5,0.2,2.5,1,3.4,1.9L20.1,13.2z"/>
	</g>
	<path fill="#573392" d="M23.3,37.7H10.6l-0.1-0.3c0,0-0.9-4.3-4.2-7.1l-0.9-0.8h0C2,26.3,0,21.8,0,17C0,7.6,7.6,0,17,0
		s17,7.6,17,17c0,5.3-2.4,10.3-6.7,13.5c-1.8,1.7-3.9,6.9-3.9,6.9L23.3,37.7z M11.3,36.8h11.4c0.5-1.1,2.3-5.4,4-7l0,0
		c4-3.1,6.4-7.8,6.4-12.8c0-8.9-7.2-16.1-16.1-16.1S0.9,8.1,0.9,17c0,4.9,2.2,9.5,6.1,12.6l1,0.8H7.8C10.1,32.8,11.1,35.8,11.3,36.8
		z"/>
</g>
<g>
</g>
<g>
</g>
<g>
</g>
<g>
</g>
<g>
</g>
<g>
</g>
<g>
</g>
<g>
</g>
<g>
</g>
<g>
</g>
<g>
</g>
<g>
</g>
<g>
</g>
<g>
</g>
<g>
</g>
</svg>
