<?xml version="1.0" encoding="utf-8"?>
<!-- Generator: Adobe Illustrator 18.0.0, SVG Export Plug-In . SVG Version: 6.00 Build 0)  -->
<!DOCTYPE svg PUBLIC "-//W3C//DTD SVG 1.1//EN" "http://www.w3.org/Graphics/SVG/1.1/DTD/svg11.dtd">
<svg version="1.1" id="Layer_1" xmlns="http://www.w3.org/2000/svg" xmlns:xlink="http://www.w3.org/1999/xlink" x="0px" y="0px"
	 viewBox="0 0 69.7 70.4" enable-background="new 0 0 69.7 70.4" xml:space="preserve">
<g>
	<g>
		<g>
			<g>
				<g>
					<defs>
						<circle id="SVGID_1_" cx="21.5" cy="55.5" r="13.8"/>
					</defs>
					<clipPath id="SVGID_2_">
						<use xlink:href="#SVGID_1_"  overflow="visible"/>
					</clipPath>
					<circle clip-path="url(#SVGID_2_)" fill="#FFFFFF" cx="21.5" cy="55.5" r="14.2"/>
					<path clip-path="url(#SVGID_2_)" fill="#2368B5" d="M22.2,41.6c0.4,0.1,0.9,0.1,1.3,0.2c2.8,0.4,5.3,1.6,7.4,3.5
						c2.2,2,3.6,4.5,4.2,7.4c0.2,0.9,0.2,1.8,0.4,2.8c-9.3,0-18.6,0-27.9,0c0-0.6,0.1-1.2,0.1-1.8c0.4-3.1,1.7-5.7,3.9-7.9
						c2.1-2.1,4.6-3.4,7.5-4c0.5-0.1,1-0.1,1.5-0.2c0.1,0,0.2,0,0.2-0.1C21.2,41.6,21.7,41.6,22.2,41.6z M19.3,44.8
						c-1.6-0.4-3.5,0.4-4.4,1.9c-1,1.6-0.8,3.6,0.4,5c1.1,1.3,2.9,1.7,4,1.3c-2-0.6-3.2-1.9-3.2-4C16,46.8,17.2,45.4,19.3,44.8z
						 M19.1,48.6c0.3,0.2,0.5,0.4,0.8,0.6c-0.1-0.3-0.1-0.5-0.2-0.7c-0.1-0.2-0.1-0.3,0.1-0.4c0.2-0.1,0.3-0.2,0.5-0.4
						c0,0,0,0,0-0.1c-0.2,0-0.4,0-0.6,0c-0.2,0-0.3,0-0.3-0.2c0-0.2-0.1-0.4-0.2-0.7C19,47,19,47.2,18.9,47.4
						c-0.1,0.2-0.2,0.3-0.4,0.3c-0.2,0-0.4,0-0.6,0c0.1,0.2,0.2,0.2,0.4,0.3c0.4,0.3,0.4,0.2,0.2,0.6c0,0.1-0.1,0.3-0.1,0.4
						c0,0,0,0,0.1,0C18.7,49,18.9,48.8,19.1,48.6z M22.7,47.7C22.7,47.7,22.6,47.7,22.7,47.7c0.2,0.2,0.4,0.3,0.5,0.5
						c0.1,0.1,0.1,0.2,0.1,0.3c-0.1,0.2-0.1,0.5-0.2,0.8c0.3-0.2,0.5-0.3,0.6-0.5c0.1-0.1,0.2-0.1,0.3,0c0.2,0.1,0.4,0.3,0.6,0.4
						c0-0.3-0.1-0.5-0.2-0.7c-0.1-0.1,0-0.2,0.1-0.3c0.2-0.1,0.4-0.3,0.5-0.4c-0.2-0.1-0.5-0.1-0.7-0.1c-0.1,0-0.2,0-0.3-0.2
						c-0.1-0.2-0.1-0.4-0.2-0.7c-0.1,0.3-0.2,0.5-0.2,0.7c0,0.1-0.1,0.2-0.3,0.2C23.1,47.7,22.9,47.7,22.7,47.7z M21.5,45
						C21.5,45,21.5,45,21.5,45c-0.1,0.2-0.2,0.4-0.3,0.6c0,0.2-0.2,0.3-0.4,0.3c-0.2,0-0.4,0-0.6,0c0.2,0.2,0.3,0.3,0.5,0.4
						c0.2,0.1,0.2,0.2,0.1,0.4c-0.1,0.2-0.1,0.4-0.2,0.7c0.2-0.1,0.3-0.2,0.4-0.3c0.5-0.3,0.3-0.3,0.8,0c0.1,0.1,0.2,0.2,0.3,0.2
						c0-0.2,0-0.4-0.1-0.5c-0.1-0.3-0.1-0.5,0.2-0.6c0.2-0.1,0.3-0.2,0.4-0.3c-0.2-0.1-0.5-0.1-0.7,0c-0.2,0-0.3,0-0.3-0.2
						C21.7,45.4,21.6,45.2,21.5,45z M18.8,50.4C18.8,50.4,18.8,50.5,18.8,50.4c0.1,0.2,0.2,0.2,0.3,0.3c0.4,0.3,0.4,0.3,0.2,0.7
						c0,0.1-0.1,0.3-0.1,0.4c0,0,0,0,0,0c0.2-0.2,0.5-0.3,0.7-0.5c0.2,0.2,0.5,0.3,0.7,0.5c0-0.3-0.1-0.5-0.1-0.7
						c-0.1-0.2,0-0.3,0.1-0.3c0.2-0.1,0.4-0.3,0.5-0.4c0,0,0,0,0-0.1c-0.2,0-0.4,0-0.6,0c-0.2,0-0.3,0-0.3-0.2
						c-0.1-0.2-0.1-0.4-0.2-0.7c-0.1,0.2-0.2,0.4-0.2,0.6c-0.1,0.3-0.2,0.4-0.5,0.4C19.2,50.4,19,50.4,18.8,50.4z M23,49.6
						C22.9,49.6,22.9,49.6,23,49.6c-0.1,0.2-0.2,0.4-0.3,0.6c0,0.2-0.2,0.3-0.3,0.2c-0.2,0-0.4,0-0.6,0c0.2,0.2,0.3,0.3,0.5,0.4
						c0.2,0.1,0.2,0.2,0.1,0.4c-0.1,0.2-0.1,0.4-0.2,0.6c0,0,0,0,0.1,0c0.2-0.2,0.5-0.3,0.7-0.5c0.3,0.2,0.5,0.3,0.8,0.6
						c-0.1-0.3-0.1-0.5-0.2-0.6c-0.1-0.2-0.1-0.3,0.1-0.5c0.2-0.1,0.3-0.2,0.5-0.3c0,0,0,0,0-0.1c-0.1,0-0.3,0-0.4,0
						c-0.6,0-0.4,0.1-0.6-0.4C23.1,49.8,23,49.7,23,49.6z"/>
				</g>
				<g>
					<g>
						<path fill="#0C56AB" d="M21.5,41.7c7.6,0,13.8,6.2,13.8,13.8c0,7.6-6.2,13.8-13.8,13.8c-7.6,0-13.8-6.2-13.8-13.8
							C7.7,47.8,13.9,41.7,21.5,41.7 M21.5,40.5c-8.2,0-15,6.7-15,15s6.7,15,15,15s15-6.7,15-15S29.8,40.5,21.5,40.5L21.5,40.5z"/>
					</g>
				</g>
			</g>
			<g>
				<defs>
					<circle id="SVGID_3_" cx="47" cy="41.6" r="22.8"/>
				</defs>
				<use xlink:href="#SVGID_3_"  overflow="visible" fill="#2368B5"/>
				<clipPath id="SVGID_4_">
					<use xlink:href="#SVGID_3_"  overflow="visible"/>
				</clipPath>
				<circle clip-path="url(#SVGID_4_)" fill="#FFFFFF" cx="47" cy="41.6" r="21.1"/>
				<path clip-path="url(#SVGID_4_)" fill="#2368B5" d="M67.8,46.3H26.1c-0.3-1.5-0.5-3-0.5-4.5H47h21.3
					C68.3,43.3,68.1,44.8,67.8,46.3 M30.4,55.3c-1.1-1.4-2.1-2.9-2.8-4.5h38.7c-0.8,1.6-1.7,3.1-2.8,4.5H30.4 M47,32.8h19.3
					c0.7,1.4,1.2,2.9,1.5,4.5H47L47,32.8 M44.5,33.8l-1.3-0.4l0.7,1.3l-1-1L43,35l-0.5-1.4L42,35l0.1-1.4l-1,1l0.7-1.3l-1.3,0.4
					l1.2-0.8l-1.4-0.2l1.4-0.2l-1.2-0.8l1.3,0.4L41.1,31l1,1L42,30.5l0.5,1.4l0.5-1.4L42.8,32l1-1l-0.7,1.2l1.3-0.4l-1.2,0.8
					l1.4,0.2L43.3,33L44.5,33.8 M37.9,37c0.9,0,1.7-0.3,2.3-0.7c-0.9,1.1-2.3,1.8-3.9,1.8c-2.8,0-5.1-2.3-5.1-5.2
					c0-2.9,2.3-5.2,5.1-5.2c1.5,0,2.9,0.7,3.9,1.8c-0.7-0.5-1.5-0.7-2.3-0.7c-2.3,0-4.1,1.9-4.1,4.2C33.8,35.1,35.6,37,37.9,37
					 M63.5,28.3H47v-4.5h11.5C60.3,25,62,26.5,63.5,28.3 M35.5,59.8h22.9c-3.3,2.1-7.2,3.4-11.5,3.4S38.8,61.9,35.5,59.8"/>
				<circle clip-path="url(#SVGID_4_)" fill="none" cx="47" cy="41.6" r="21.5"/>
			</g>
		</g>
	</g>
	<g>
		<circle fill="#F6A822" cx="13.3" cy="13.3" r="13.3"/>
		<g>
			<path fill="#032360" d="M9,17.9c0.6,0.4,1.7,0.7,2.7,0.7c3.1,0,4.8-1.9,4.9-4.7c-0.5,1-1.9,1.7-3.6,1.7c-2.7,0-5.1-1.8-5.1-5
				c0-3.1,2.5-5.2,5.6-5.2c3.1,0,5.9,2.2,5.9,6.9c0,5.4-2.6,8.6-7.6,8.6c-1.2,0-2.7-0.3-3.4-0.8L9,17.9z M13.3,7.8
				c-1.5,0-2.8,1.1-2.8,2.7c0,1.7,1.3,2.8,2.8,2.8c1.5,0,2.8-1.1,2.8-2.8C16.2,8.9,14.8,7.8,13.3,7.8z"/>
		</g>
	</g>
</g>
<g>
</g>
<g>
</g>
<g>
</g>
<g>
</g>
<g>
</g>
<g>
</g>
<g>
</g>
<g>
</g>
<g>
</g>
<g>
</g>
<g>
</g>
<g>
</g>
<g>
</g>
<g>
</g>
<g>
</g>
</svg>
