<?xml version="1.0" encoding="utf-8"?>
<!-- Generator: Adobe Illustrator 18.0.0, SVG Export Plug-In . SVG Version: 6.00 Build 0)  -->
<!DOCTYPE svg PUBLIC "-//W3C//DTD SVG 1.1//EN" "http://www.w3.org/Graphics/SVG/1.1/DTD/svg11.dtd">
<svg version="1.1" id="Layer_1" xmlns="http://www.w3.org/2000/svg" xmlns:xlink="http://www.w3.org/1999/xlink" x="0px" y="0px"
	 viewBox="0 0 18.8 48.1" enable-background="new 0 0 18.8 48.1" xml:space="preserve">
<g>
	<g>
		<path fill="#573392" d="M15.4,21.1c-1.6-1.5-3.1-2.3-5.1-2.3c-2.3,0-3.6,1.1-3.6,3.3c0,4.9,12.1,4.2,12.1,13c0,4.3-2.4,7.5-7,8.4
			v4.6H7.9v-4.4c-2.7-0.3-5.8-1.5-7.9-3.5l2.6-3.9C4.8,38,6.9,39,9.1,39c2.8,0,4-1.2,4-3.5c0-5.4-12.1-4.9-12.1-13.2
			c0-4.3,2.6-7.3,6.7-8.1v-8h3.9v7.9c2.9,0.4,4.9,1.8,6.6,3.6L15.4,21.1z"/>
	</g>
	<polygon fill="#573392" points="4.2,8.9 16,8.9 10.1,0 	"/>
</g>
<g>
</g>
<g>
</g>
<g>
</g>
<g>
</g>
<g>
</g>
<g>
</g>
<g>
</g>
<g>
</g>
<g>
</g>
<g>
</g>
<g>
</g>
<g>
</g>
<g>
</g>
<g>
</g>
<g>
</g>
</svg>
