<?xml version="1.0" encoding="utf-8"?>
<!-- Generator: Adobe Illustrator 18.0.0, SVG Export Plug-In . SVG Version: 6.00 Build 0)  -->
<!DOCTYPE svg PUBLIC "-//W3C//DTD SVG 1.1//EN" "http://www.w3.org/Graphics/SVG/1.1/DTD/svg11.dtd">
<svg version="1.1" id="Layer_1" xmlns="http://www.w3.org/2000/svg" xmlns:xlink="http://www.w3.org/1999/xlink" x="0px" y="0px"
	 viewBox="0 0 404.1 111.4" enable-background="new 0 0 404.1 111.4" xml:space="preserve">
<g opacity="0.3">
	<g opacity="0.3">
		<g>
			<path fill="#D1D3D4" d="M404.1,25.9c-15.4-9-39-7.7-50.3,1.6C342.6,36.9,342.6,53,316,54.9s-28.7-2.3-48.6,7.4
				s-36.5-2.9-63.1,13.6s-31.6,35.5-31.6,35.5H402L404.1,25.9z"/>
		</g>
	</g>
	<g opacity="0.3">
		<g>
			<path fill="#D1D3D4" d="M0,8.8C17.1-4.1,43.4-2.3,55.8,11.1s12.5,36.4,42,39.2c29.5,2.8,31.8-3.2,54,10.6s40.6-4.2,70.1,19.4
				s35.1,31.1,35.1,31.1H2.3L0,8.8z"/>
		</g>
	</g>
</g>
<g>
</g>
<g>
</g>
<g>
</g>
<g>
</g>
<g>
</g>
<g>
</g>
<g>
</g>
<g>
</g>
<g>
</g>
<g>
</g>
<g>
</g>
<g>
</g>
<g>
</g>
<g>
</g>
<g>
</g>
</svg>
