<?xml version="1.0" encoding="utf-8"?>
<!-- Generator: Adobe Illustrator 18.0.0, SVG Export Plug-In . SVG Version: 6.00 Build 0)  -->
<!DOCTYPE svg PUBLIC "-//W3C//DTD SVG 1.1//EN" "http://www.w3.org/Graphics/SVG/1.1/DTD/svg11.dtd">
<svg version="1.1" id="Layer_1" xmlns="http://www.w3.org/2000/svg" xmlns:xlink="http://www.w3.org/1999/xlink" x="0px" y="0px"
	 viewBox="0 0 873.4 626.1" enable-background="new 0 0 873.4 626.1" xml:space="preserve">
<g opacity="0.3">
	<g>
		<defs>
			<rect id="SVGID_1_" x="0" y="238.5" width="760.3" height="387.7"/>
		</defs>
		<clipPath id="SVGID_2_">
			<use xlink:href="#SVGID_1_"  overflow="visible"/>
		</clipPath>
		<path clip-path="url(#SVGID_2_)" fill="#D1D3D4" d="M0,264.4c50.5-38.2,128.3-32.8,165.2,6.8c36.9,39.6,36.9,107.8,124.2,116
			c87.4,8.2,94.2-9.6,159.7,31.4c65.5,40.9,120.1-12.3,207.5,57.3c87.4,69.6,103.7,150.1,103.7,150.1H6.8L0,264.4z"/>
	</g>
</g>
<g opacity="0.3">
	<g>
		<defs>
			<rect id="SVGID_3_" x="198.4" y="0" width="675.1" height="498.1"/>
		</defs>
		<clipPath id="SVGID_4_">
			<use xlink:href="#SVGID_3_"  overflow="visible"/>
		</clipPath>
		<path clip-path="url(#SVGID_4_)" fill="#D1D3D4" d="M203.5,0c41.7,2.5,82.2,55.2,85.9,74.9c3.7,19.6,6.1,67.5,55.2,77.3
			c49.1,9.8,72.4-16,109.2,25.8c36.8,41.7,54,97,114.1,103.1c60.1,6.1,111.7,1.2,146.1,51.6c34.4,50.3,58.9,106.8,104.3,110.5
			c45.4,3.7,55.1,55.1,55.1,55.1H198.4L203.5,0z"/>
	</g>
</g>
<g>
</g>
<g>
</g>
<g>
</g>
<g>
</g>
<g>
</g>
<g>
</g>
<g>
</g>
<g>
</g>
<g>
</g>
<g>
</g>
<g>
</g>
<g>
</g>
<g>
</g>
<g>
</g>
<g>
</g>
</svg>
