<?xml version="1.0" encoding="utf-8"?>
<!-- Generator: Adobe Illustrator 18.0.0, SVG Export Plug-In . SVG Version: 6.00 Build 0)  -->
<!DOCTYPE svg PUBLIC "-//W3C//DTD SVG 1.1//EN" "http://www.w3.org/Graphics/SVG/1.1/DTD/svg11.dtd">
<svg version="1.1" id="Layer_1" xmlns="http://www.w3.org/2000/svg" xmlns:xlink="http://www.w3.org/1999/xlink" x="0px" y="0px"
	 viewBox="0 0 316.3 198" enable-background="new 0 0 316.3 198" xml:space="preserve">
<g>
	<line fill="none" stroke="#414042" stroke-width="0.1702" stroke-miterlimit="10" x1="34.1" y1="115.4" x2="44.8" y2="115.4"/>
	<line fill="none" stroke="#414042" stroke-width="0.1702" stroke-miterlimit="10" x1="34.1" y1="89" x2="44.8" y2="89"/>
	<line fill="none" stroke="#414042" stroke-width="0.1702" stroke-miterlimit="10" x1="34.1" y1="62.7" x2="44.8" y2="62.7"/>
	<line fill="none" stroke="#414042" stroke-width="0.1702" stroke-miterlimit="10" x1="34.1" y1="36.4" x2="44.8" y2="36.4"/>
	<line fill="none" stroke="#414042" stroke-width="0.1702" stroke-miterlimit="10" x1="34.1" y1="141.7" x2="44.8" y2="141.7"/>
	<line fill="none" stroke="#414042" stroke-width="0.1702" stroke-miterlimit="10" x1="34.1" y1="168" x2="44.8" y2="168"/>
	<line fill="none" stroke="#414042" stroke-width="0.3101" stroke-miterlimit="10" x1="37.1" y1="0" x2="37.1" y2="177"/>
	<g>
		<path fill="#414042" d="M3.3,13.5V8H1.4V7.2c1.1,0,1.8-0.6,2-1.5h1v7.8H3.3z"/>
		<path fill="#414042" d="M5.9,8.4c0-0.1,0-0.2,0-0.3c0-1.3,1-2.5,2.7-2.5c1.7,0,2.6,1.1,2.6,2.4c0,1-0.6,1.8-1.5,2.4l-1.5,1
			c-0.4,0.3-0.8,0.6-0.9,1.1h4v1.1H5.8c0-1.3,0.5-2.2,1.8-3.1L9,9.6c0.7-0.5,1.1-1,1.1-1.6c0-0.7-0.5-1.4-1.5-1.4
			c-1,0-1.5,0.7-1.5,1.6c0,0.1,0,0.2,0,0.3L5.9,8.4z"/>
		<path fill="#414042" d="M13,6.8c0.5-0.8,1.3-1.2,2.4-1.2s1.9,0.5,2.4,1.2c0.5,0.8,0.7,1.8,0.7,2.8s-0.2,2.1-0.7,2.8
			c-0.5,0.8-1.3,1.2-2.4,1.2s-1.9-0.5-2.4-1.2c-0.5-0.8-0.7-1.8-0.7-2.8S12.5,7.6,13,6.8z M14.2,12.1c0.3,0.3,0.7,0.5,1.2,0.5
			s0.9-0.2,1.2-0.5c0.5-0.5,0.7-1.3,0.7-2.5s-0.2-2-0.7-2.5c-0.3-0.3-0.7-0.5-1.2-0.5s-0.9,0.2-1.2,0.5c-0.5,0.5-0.7,1.3-0.7,2.5
			S13.7,11.6,14.2,12.1z"/>
		<path fill="#414042" d="M21.5,5.6c1,0,1.9,0.8,1.9,1.9c0,1.1-0.9,1.9-1.9,1.9c-1,0-1.9-0.8-1.9-1.9C19.5,6.5,20.4,5.6,21.5,5.6z
			 M20.5,13.5l5.6-7.8h1.1l-5.6,7.8H20.5z M21.5,8.5c0.5,0,0.9-0.4,0.9-0.9c0-0.5-0.4-0.9-0.9-0.9c-0.5,0-0.9,0.4-0.9,0.9
			C20.5,8.1,20.9,8.5,21.5,8.5z M26.2,9.8c1,0,1.9,0.8,1.9,1.9c0,1.1-0.9,1.9-1.9,1.9s-1.9-0.8-1.9-1.9C24.3,10.6,25.2,9.8,26.2,9.8
			z M26.2,12.6c0.5,0,0.9-0.4,0.9-0.9c0-0.5-0.4-0.9-0.9-0.9c-0.5,0-0.9,0.4-0.9,0.9C25.3,12.3,25.7,12.6,26.2,12.6z"/>
	</g>
	<g>
		<path fill="#414042" d="M3.3,38.9v-5.5H1.4v-0.8c1.1,0,1.8-0.6,2-1.5h1v7.8H3.3z"/>
		<path fill="#414042" d="M7.5,38.9v-5.5H5.6v-0.8c1.1,0,1.8-0.6,2-1.5h1v7.8H7.5z"/>
		<path fill="#414042" d="M10.9,32.2c0.5-0.8,1.3-1.2,2.4-1.2s1.9,0.5,2.4,1.2c0.5,0.8,0.7,1.8,0.7,2.8s-0.2,2.1-0.7,2.8
			c-0.5,0.8-1.3,1.2-2.4,1.2s-1.9-0.5-2.4-1.2c-0.5-0.8-0.7-1.8-0.7-2.8S10.4,33,10.9,32.2z M12.1,37.6c0.3,0.3,0.7,0.5,1.2,0.5
			s0.9-0.2,1.2-0.5c0.5-0.5,0.7-1.3,0.7-2.5s-0.2-2-0.7-2.5c-0.3-0.3-0.7-0.5-1.2-0.5s-0.9,0.2-1.2,0.5c-0.5,0.5-0.7,1.3-0.7,2.5
			S11.6,37.1,12.1,37.6z"/>
		<path fill="#414042" d="M19.3,31.1c1,0,1.9,0.8,1.9,1.9c0,1.1-0.9,1.9-1.9,1.9c-1,0-1.9-0.8-1.9-1.9
			C17.4,31.9,18.3,31.1,19.3,31.1z M18.4,38.9l5.6-7.8h1.1l-5.6,7.8H18.4z M19.3,33.9c0.5,0,0.9-0.4,0.9-0.9c0-0.5-0.4-0.9-0.9-0.9
			c-0.5,0-0.9,0.4-0.9,0.9C18.4,33.5,18.8,33.9,19.3,33.9z M24.1,35.2c1,0,1.9,0.8,1.9,1.9c0,1.1-0.9,1.9-1.9,1.9s-1.9-0.8-1.9-1.9
			C22.2,36.1,23.1,35.2,24.1,35.2z M24.1,38.1c0.5,0,0.9-0.4,0.9-0.9c0-0.5-0.4-0.9-0.9-0.9c-0.5,0-0.9,0.4-0.9,0.9
			C23.2,37.7,23.6,38.1,24.1,38.1z"/>
	</g>
	<g>
		<path fill="#414042" d="M3.3,66v-5.5H1.4v-0.8c1.1,0,1.8-0.6,2-1.5h1V66H3.3z"/>
		<path fill="#414042" d="M6.7,59.3c0.5-0.8,1.3-1.2,2.4-1.2s1.9,0.5,2.4,1.2c0.5,0.8,0.7,1.8,0.7,2.8s-0.2,2.1-0.7,2.8
			c-0.5,0.8-1.3,1.2-2.4,1.2s-1.9-0.5-2.4-1.2C6.2,64.2,6,63.2,6,62.1S6.2,60.1,6.7,59.3z M7.8,64.7c0.3,0.3,0.7,0.5,1.2,0.5
			s0.9-0.2,1.2-0.5c0.5-0.5,0.7-1.3,0.7-2.5s-0.2-2-0.7-2.5c-0.3-0.3-0.7-0.5-1.2-0.5s-0.9,0.2-1.2,0.5c-0.5,0.5-0.7,1.3-0.7,2.5
			S7.4,64.2,7.8,64.7z"/>
		<path fill="#414042" d="M14,59.3c0.5-0.8,1.3-1.2,2.4-1.2s1.9,0.5,2.4,1.2c0.5,0.8,0.7,1.8,0.7,2.8s-0.2,2.1-0.7,2.8
			c-0.5,0.8-1.3,1.2-2.4,1.2s-1.9-0.5-2.4-1.2c-0.5-0.8-0.7-1.8-0.7-2.8S13.5,60.1,14,59.3z M15.2,64.7c0.3,0.3,0.7,0.5,1.2,0.5
			s0.9-0.2,1.2-0.5c0.5-0.5,0.7-1.3,0.7-2.5s-0.2-2-0.7-2.5c-0.3-0.3-0.7-0.5-1.2-0.5s-0.9,0.2-1.2,0.5c-0.5,0.5-0.7,1.3-0.7,2.5
			S14.7,64.2,15.2,64.7z"/>
		<path fill="#414042" d="M22.4,58.2c1,0,1.9,0.8,1.9,1.9c0,1.1-0.9,1.9-1.9,1.9c-1,0-1.9-0.8-1.9-1.9C20.5,59,21.4,58.2,22.4,58.2z
			 M21.5,66l5.6-7.8h1.1L22.6,66H21.5z M22.4,61c0.5,0,0.9-0.4,0.9-0.9c0-0.5-0.4-0.9-0.9-0.9c-0.5,0-0.9,0.4-0.9,0.9
			C21.5,60.6,21.9,61,22.4,61z M27.2,62.3c1,0,1.9,0.8,1.9,1.9c0,1.1-0.9,1.9-1.9,1.9s-1.9-0.8-1.9-1.9
			C25.2,63.2,26.1,62.3,27.2,62.3z M27.2,65.2c0.5,0,0.9-0.4,0.9-0.9c0-0.5-0.4-0.9-0.9-0.9c-0.5,0-0.9,0.4-0.9,0.9
			C26.2,64.8,26.7,65.2,27.2,65.2z"/>
	</g>
	<g>
		<path fill="#414042" d="M1.1,90.2c0.3,0.2,0.9,0.4,1.4,0.4c1.9,0,2.7-1.2,2.7-2.8c-0.3,0.5-1,1-2,1c-1.3,0-2.7-0.9-2.7-2.6
			c0-1.6,1.3-2.7,2.9-2.7c1.5,0,3,1.1,3,3.6c0,2.9-1.3,4.6-3.9,4.6c-0.6,0-1.4-0.2-1.8-0.5L1.1,90.2z M3.3,84.5
			c-0.9,0-1.7,0.6-1.7,1.6c0,1.1,0.8,1.6,1.7,1.6c0.9,0,1.7-0.6,1.7-1.6C5,85.2,4.2,84.5,3.3,84.5z"/>
		<path fill="#414042" d="M8.2,84.7c0.5-0.8,1.3-1.2,2.4-1.2s1.9,0.5,2.4,1.2c0.5,0.8,0.7,1.8,0.7,2.8c0,1.1-0.2,2.1-0.7,2.8
			c-0.5,0.8-1.3,1.2-2.4,1.2s-1.9-0.5-2.4-1.2c-0.5-0.8-0.7-1.8-0.7-2.8C7.5,86.5,7.7,85.5,8.2,84.7z M9.4,90.1
			c0.3,0.3,0.7,0.5,1.2,0.5s0.9-0.2,1.2-0.5c0.5-0.5,0.7-1.3,0.7-2.5s-0.2-2-0.7-2.5c-0.3-0.3-0.7-0.5-1.2-0.5S9.7,84.7,9.4,85
			c-0.5,0.5-0.7,1.3-0.7,2.5S8.9,89.6,9.4,90.1z"/>
		<path fill="#414042" d="M16.6,83.6c1,0,1.9,0.8,1.9,1.9c0,1.1-0.9,1.9-1.9,1.9c-1,0-1.9-0.8-1.9-1.9
			C14.7,84.4,15.6,83.6,16.6,83.6z M15.7,91.4l5.6-7.8h1.1l-5.6,7.8H15.7z M16.6,86.4c0.5,0,0.9-0.4,0.9-0.9c0-0.5-0.4-0.9-0.9-0.9
			c-0.5,0-0.9,0.4-0.9,0.9C15.7,86,16.1,86.4,16.6,86.4z M21.4,87.8c1,0,1.9,0.8,1.9,1.9c0,1.1-0.9,1.9-1.9,1.9s-1.9-0.8-1.9-1.9
			C19.4,88.6,20.3,87.8,21.4,87.8z M21.4,90.6c0.5,0,0.9-0.4,0.9-0.9c0-0.5-0.4-0.9-0.9-0.9c-0.5,0-0.9,0.4-0.9,0.9
			C20.4,90.2,20.9,90.6,21.4,90.6z"/>
	</g>
	<g>
		<path fill="#414042" d="M0.5,115.4c0-0.9,0.6-1.6,1.5-1.9c-0.7-0.3-1.3-1-1.3-1.8c0-1.3,1.1-2.2,2.6-2.2s2.6,0.9,2.6,2.2
			c0,0.8-0.6,1.6-1.3,1.8c0.8,0.3,1.5,1,1.5,1.9c0,1.2-1,2.2-2.8,2.2S0.5,116.6,0.5,115.4z M5,115.3c0-0.7-0.6-1.3-1.6-1.3
			s-1.6,0.6-1.6,1.3c0,0.7,0.6,1.3,1.6,1.3C4.4,116.6,5,116,5,115.3z M4.8,111.7c0-0.7-0.6-1.2-1.4-1.2c-0.9,0-1.4,0.6-1.4,1.2
			c0,0.8,0.6,1.3,1.4,1.3C4.2,113,4.8,112.5,4.8,111.7z"/>
		<path fill="#414042" d="M8,110.7c0.5-0.8,1.3-1.2,2.4-1.2s1.9,0.5,2.4,1.2c0.5,0.8,0.7,1.8,0.7,2.8s-0.2,2.1-0.7,2.8
			c-0.5,0.8-1.3,1.2-2.4,1.2s-1.9-0.5-2.4-1.2c-0.5-0.8-0.7-1.8-0.7-2.8S7.4,111.5,8,110.7z M9.1,116.1c0.3,0.3,0.7,0.5,1.2,0.5
			s0.9-0.2,1.2-0.5c0.5-0.5,0.7-1.3,0.7-2.5s-0.2-2-0.7-2.5c-0.3-0.3-0.7-0.5-1.2-0.5s-0.9,0.2-1.2,0.5c-0.5,0.5-0.7,1.3-0.7,2.5
			S8.6,115.6,9.1,116.1z"/>
		<path fill="#414042" d="M16.4,109.6c1,0,1.9,0.8,1.9,1.9c0,1.1-0.9,1.9-1.9,1.9c-1,0-1.9-0.8-1.9-1.9
			C14.4,110.4,15.3,109.6,16.4,109.6z M15.4,117.4l5.6-7.8h1.1l-5.6,7.8H15.4z M16.4,112.4c0.5,0,0.9-0.4,0.9-0.9
			c0-0.5-0.4-0.9-0.9-0.9c-0.5,0-0.9,0.4-0.9,0.9C15.4,112,15.9,112.4,16.4,112.4z M21.1,113.7c1,0,1.9,0.8,1.9,1.9
			c0,1.1-0.9,1.9-1.9,1.9s-1.9-0.8-1.9-1.9C19.2,114.6,20.1,113.7,21.1,113.7z M21.1,116.6c0.5,0,0.9-0.4,0.9-0.9
			c0-0.5-0.4-0.9-0.9-0.9c-0.5,0-0.9,0.4-0.9,0.9C20.2,116.2,20.6,116.6,21.1,116.6z"/>
	</g>
	<g>
		<path fill="#414042" d="M5.7,138.4C5,139,2.8,141,2.4,145.1H1.2c0.3-4.5,3.2-6.7,3.2-6.7H0.1v-1.1h5.7V138.4z"/>
		<path fill="#414042" d="M6.8,138.4c0.5-0.8,1.3-1.2,2.4-1.2s1.9,0.5,2.4,1.2c0.5,0.8,0.7,1.8,0.7,2.8s-0.2,2.1-0.7,2.8
			c-0.5,0.8-1.3,1.2-2.4,1.2s-1.9-0.5-2.4-1.2c-0.5-0.8-0.7-1.8-0.7-2.8S6.3,139.1,6.8,138.4z M7.9,143.7c0.3,0.3,0.7,0.5,1.2,0.5
			s0.9-0.2,1.2-0.5c0.5-0.5,0.7-1.3,0.7-2.5s-0.2-2-0.7-2.5c-0.3-0.3-0.7-0.5-1.2-0.5s-0.9,0.2-1.2,0.5c-0.5,0.5-0.7,1.3-0.7,2.5
			S7.5,143.2,7.9,143.7z"/>
		<path fill="#414042" d="M15.2,137.2c1,0,1.9,0.8,1.9,1.9c0,1.1-0.9,1.9-1.9,1.9c-1,0-1.9-0.8-1.9-1.9
			C13.3,138,14.2,137.2,15.2,137.2z M14.2,145.1l5.6-7.8h1.1l-5.6,7.8H14.2z M15.2,140c0.5,0,0.9-0.4,0.9-0.9c0-0.5-0.4-0.9-0.9-0.9
			c-0.5,0-0.9,0.4-0.9,0.9C14.3,139.7,14.7,140,15.2,140z M20,141.4c1,0,1.9,0.8,1.9,1.9c0,1.1-0.9,1.9-1.9,1.9s-1.9-0.8-1.9-1.9
			C18,142.2,18.9,141.4,20,141.4z M20,144.2c0.5,0,0.9-0.4,0.9-0.9c0-0.5-0.4-0.9-0.9-0.9c-0.5,0-0.9,0.4-0.9,0.9
			C19,143.8,19.4,144.2,20,144.2z"/>
	</g>
	<g>
		<path fill="#414042" d="M5.9,164.5c-0.3-0.2-0.8-0.3-1.4-0.3c-1.6,0-2.6,1.2-2.7,2.8c0.3-0.5,1-1,2.1-1c1.5,0,2.7,1,2.7,2.7
			c0,1.7-1.4,2.7-2.9,2.7c-1.5,0-3-1-3-3.6c0-2.9,1.7-4.5,4-4.5c0.7,0,1.3,0.2,1.7,0.4L5.9,164.5z M3.7,170.2c0.9,0,1.7-0.6,1.7-1.6
			c0-1-0.8-1.6-1.7-1.6S2,167.5,2,168.6C2,169.6,2.8,170.2,3.7,170.2z"/>
		<path fill="#414042" d="M8.3,164.3c0.5-0.8,1.3-1.2,2.4-1.2s1.9,0.5,2.4,1.2c0.5,0.8,0.7,1.8,0.7,2.8s-0.2,2.1-0.7,2.8
			c-0.5,0.8-1.3,1.2-2.4,1.2s-1.9-0.5-2.4-1.2c-0.5-0.8-0.7-1.8-0.7-2.8S7.7,165.1,8.3,164.3z M9.4,169.7c0.3,0.3,0.7,0.5,1.2,0.5
			s0.9-0.2,1.2-0.5c0.5-0.5,0.7-1.3,0.7-2.5s-0.2-2-0.7-2.5c-0.3-0.3-0.7-0.5-1.2-0.5s-0.9,0.2-1.2,0.5c-0.5,0.5-0.7,1.3-0.7,2.5
			S8.9,169.2,9.4,169.7z"/>
		<path fill="#414042" d="M16.7,163.2c1,0,1.9,0.8,1.9,1.9c0,1.1-0.9,1.9-1.9,1.9c-1,0-1.9-0.8-1.9-1.9
			C14.7,164,15.6,163.2,16.7,163.2z M15.7,171.1l5.6-7.8h1.1l-5.6,7.8H15.7z M16.7,166c0.5,0,0.9-0.4,0.9-0.9c0-0.5-0.4-0.9-0.9-0.9
			c-0.5,0-0.9,0.4-0.9,0.9C15.7,165.6,16.2,166,16.7,166z M21.4,167.4c1,0,1.9,0.8,1.9,1.9c0,1.1-0.9,1.9-1.9,1.9s-1.9-0.8-1.9-1.9
			C19.5,168.2,20.4,167.4,21.4,167.4z M21.4,170.2c0.5,0,0.9-0.4,0.9-0.9c0-0.5-0.4-0.9-0.9-0.9c-0.5,0-0.9,0.4-0.9,0.9
			C20.5,169.8,20.9,170.2,21.4,170.2z"/>
	</g>
	<path fill="none" stroke="#0C56AB" stroke-width="0.8428" stroke-linejoin="bevel" stroke-miterlimit="10" d="M64.6,117l2.9-13.3
		L69,86.1l6.1,31.5l0.4,18.2c1.4-1.7,4.3-21.6,4.3-21.6l6.5,43.7l2.5-32.6c0,0,1.4,52,1.8,50.3c0.4-1.7,1.8-45.9,1.8-45.9l2.2,18.8
		l2.9-124.9c0,0,4,117.8,4,116.1c0-1.7,5.1-19.3,5.1-19.3l0.7,42.6l3.3-7.2l4.3,28.7l5.8-19.9l2.9,14.9l3.3-16l3.3,6.6l6.1-44.8
		l3.6,17.1l2.9-10c0,0,2.2,14.9,1.8,13.3c-0.4-1.7,6.5-58.6,6.5-58.6l4.3,12.2L166.9,33c0,0,6.5,90.1,6.9,88.5
		c0.4-1.7,4.7-40.9,4.7-40.9l2.9,44.8l3.3-50.3l2.5,13.8l1.8-12.7l9.4,27.6l7.2-11.1l9.4,44.8l10.1-18.8l7.6,19.3l2.5-9.4
		c0,0,4.3,13.8,4.7,12.2c0.4-1.7,5.4-22.7,5.4-22.7"/>
	
		<line fill="none" stroke="#F7A823" stroke-width="0.8428" stroke-linejoin="bevel" stroke-miterlimit="10" x1="65.7" y1="89.4" x2="245.7" y2="89.4"/>
	
		<line fill="none" stroke="#9C8FC4" stroke-width="0.8428" stroke-linejoin="bevel" stroke-miterlimit="10" x1="65.7" y1="120.9" x2="245.7" y2="120.9"/>
	
		<line fill="none" stroke="#73B564" stroke-width="0.8428" stroke-linejoin="bevel" stroke-miterlimit="10" x1="65.7" y1="152.4" x2="245.7" y2="152.4"/>
	<g>
		<path fill="#58595B" d="M267.5,91.5l-2,0l0-0.7l2,0l0-2.2l0.7,0l0,2.2l2,0l0,0.7l-2,0l0,2.2l-0.7,0L267.5,91.5z"/>
		<path fill="#58595B" d="M271.6,94.1l1.6,0l0-5.5l-1.3,0l0-0.6c0.6-0.1,1.1-0.3,1.5-0.5l0.7,0l0,6.6l1.5,0l0,0.8l-4,0L271.6,94.1z"
			/>
		<path fill="#58595B" d="M279.3,86.7c-0.2,0.7-0.5,1.3-0.8,1.9l0.1,7l-0.7,0l0-5.7c-0.3,0.5-0.6,0.9-1,1.3
			c-0.1-0.2-0.3-0.6-0.4-0.7c0.9-1,1.7-2.5,2.2-4L279.3,86.7z M285.4,87l0.1,8.4l-0.7,0l0-0.5l-4.4,0l0,0.6l-0.7,0l-0.1-8.5
			L285.4,87z M284.8,94.2l0-6.6l-4.4,0l0,6.6L284.8,94.2z M282.9,89.7l0,1.1l1.1,0l0,2.7l-2.8,0l0-2.7l1.1,0l0-1.1l-1.5,0l0-0.6
			l1.5,0l0-1.1l0.6,0l0,1.1l1.5,0l0,0.6L282.9,89.7z M283.4,91.3l-1.7,0l0,1.5l1.7,0L283.4,91.3z"/>
		<path fill="#58595B" d="M289.6,91.8c-0.1-0.3-0.5-0.9-0.7-1.4l0,5.1l-0.7,0l0-5c-0.3,1.2-0.8,2.3-1.2,3c-0.1-0.2-0.3-0.5-0.4-0.7
			c0.6-0.8,1.2-2.4,1.5-3.7l-1.3,0l0-0.7l1.4,0l0-1.9l0.7,0l0,1.9l1.1,0l0,0.7l-1.1,0l0,0.5c0.3,0.3,1,1.5,1.2,1.8L289.6,91.8z
			 M291.7,93.3c-0.4,0.7-0.9,1.4-1.4,1.8c-0.1-0.1-0.4-0.3-0.6-0.4c0.5-0.4,1.1-1,1.4-1.6L291.7,93.3z M291.7,87.4l-1.7,0l0-0.6
			l5.6,0l0,0.6l-1.8,0l0,0.7l1.6,0l0,2.3l-5.2,0l0-2.3l1.5,0L291.7,87.4z M293.1,92.8l0,2.6l-0.7,0l0-2.6l-2.4,0l0-0.6l5.6,0l0,0.6
			L293.1,92.8z M290.7,91.5l0-0.6l4.3,0l0,0.6L290.7,91.5z M290.9,89.8l0.9,0l0-1.2l-0.9,0L290.9,89.8z M293.2,87.4l-0.9,0l0,0.7
			l0.9,0L293.2,87.4z M292.3,89.8l0.9,0l0-1.2l-0.9,0L292.3,89.8z M293.8,88.6l0,1.2l1,0l0-1.2L293.8,88.6z M294.4,93.1
			c0.5,0.5,1.1,1.2,1.4,1.6l-0.6,0.4c-0.3-0.5-0.8-1.2-1.3-1.7L294.4,93.1z"/>
		<path fill="#58595B" d="M298.3,89.3c-0.4-0.2-1.1-0.5-1.6-0.7L297,88c0.6,0.1,1.3,0.4,1.6,0.6L298.3,89.3z M305.7,93.4l-4.1,0l0,2
			l-0.7,0l0-2l-4,0l0-0.7l4,0l0-0.7l0.7,0l0,0.7l4.1,0L305.7,93.4z M296.9,91.7c0.5-0.5,1.3-1.3,1.9-2.1l0.4,0.5
			c-0.6,0.7-1.2,1.5-1.8,2.1L296.9,91.7z M299,87.7c-0.4-0.2-1-0.6-1.6-0.8l0.4-0.5c0.6,0.2,1.3,0.5,1.6,0.7L299,87.7z M299.8,88.6
			c-0.2,0.2-0.4,0.4-0.6,0.6c-0.1-0.1-0.4-0.4-0.6-0.5c0.8-0.6,1.5-1.6,2-2.5l0.7,0.2c-0.1,0.3-0.3,0.6-0.5,0.9l1.6,0
			c-0.1-0.3-0.3-0.5-0.4-0.8l0.7-0.2c0.2,0.3,0.4,0.7,0.5,1l2,0l0,0.6l-2.2,0l0,0.8l1.9,0l0,0.5l-1.9,0l0,0.7l1.9,0l0,0.5l-1.9,0
			l0,0.8l2.4,0l0,0.6l-4.9,0l0,0.4l-0.7,0L299.8,88.6z M302.3,87.9l-1.8,0l0,0.7l1.8,0L302.3,87.9z M302.3,89.2l-1.8,0l0,0.7l1.8,0
			L302.3,89.2z M302.3,90.4l-1.8,0l0,0.8l1.8,0L302.3,90.4z"/>
		<path fill="#58595B" d="M315.6,90.5l0,0.7l-6,0c-0.4,1.8-1.2,3.2-2.3,4.1c-0.1-0.1-0.4-0.4-0.6-0.5c1.1-0.8,1.8-2,2.2-3.6l-2,0
			l0-0.7l4,0l0-0.9l-3.1,0l0-0.6l3.1,0l0-0.9l-3.6,0l0-0.7l2,0c-0.2-0.3-0.4-0.7-0.7-1l0.6-0.3c0.3,0.4,0.7,0.9,0.8,1.2l-0.2,0.1
			l2.6,0l-0.1,0c0.2-0.4,0.6-0.9,0.7-1.3l0.8,0.2c-0.2,0.4-0.5,0.8-0.7,1.1l2.1,0l0,0.7l-3.7,0l0,0.9l3.2,0l0,0.6l-3.2,0l0,0.9
			L315.6,90.5z M312.4,94.4l3,0l0,0.7l-6.8,0.1l0-0.7l3,0l0-1.8l-2,0l0-0.7l5.1,0l0,0.7l-2.4,0L312.4,94.4z"/>
	</g>
	<g>
		<path fill="#58595B" d="M274.6,119.9l-4.1,0l0,3.5l-0.8,0l0-3.5l-4,0l0-0.7l4,0l0-3.5l-3.5,0l0-0.7l7.8-0.1l0,0.7l-3.5,0l0,3.5
			l4.1,0L274.6,119.9z M267.5,116.3c0.4,0.7,0.8,1.7,1,2.2l-0.7,0.2c-0.1-0.6-0.5-1.6-0.9-2.3L267.5,116.3z M271.6,118.5
			c0.4-0.6,0.8-1.6,1.1-2.4l0.8,0.2c-0.4,0.8-0.8,1.8-1.2,2.4L271.6,118.5z"/>
		<path fill="#58595B" d="M278.7,119.7l0.2,0.7c-1,0.5-2.2,1-3,1.4l-0.3-0.7c0.4-0.1,0.8-0.3,1.4-0.6l0-3.1l-1.2,0l0-0.7l1.2,0
			l0-2.3l0.7,0l0,2.3l1.1,0l0,0.7l-1.1,0l0,2.8L278.7,119.7z M284.5,115.8c0,0,0,0.3,0,0.4c-0.1,4.7-0.2,6.2-0.6,6.7
			c-0.2,0.3-0.5,0.4-0.8,0.4c-0.3,0-0.9,0-1.5,0c0-0.2-0.1-0.5-0.3-0.7c0.6,0.1,1.2,0.1,1.4,0.1c0.2,0,0.3,0,0.4-0.2
			c0.3-0.3,0.4-2,0.5-6l-3.4,0c-0.3,0.6-0.6,1.2-1,1.6c-0.1-0.1-0.4-0.3-0.6-0.4c0.7-0.9,1.3-2.2,1.7-3.5l0.7,0.2
			c-0.1,0.5-0.3,1-0.5,1.4L284.5,115.8z M280,120.2l3.2,0l0,0.7l-3.2,0L280,120.2z M282.9,118.1l0,0.7l-2.5,0l0-0.7L282.9,118.1z"/>
		<path fill="#58595B" d="M288.4,114.4c-0.3,0.8-0.6,1.6-1,2.3l0.1,6.6l-0.7,0l0-5.5c-0.3,0.4-0.6,0.8-0.8,1.1
			c-0.1-0.2-0.3-0.5-0.4-0.7c0.9-1,1.8-2.5,2.3-4L288.4,114.4z M294.7,122.4l0,0.6L288,123l0-0.6l1,0l0-5.6l1.7,0
			c0.1-0.3,0.1-0.6,0.2-0.9l-2.4,0l0-0.6l2.5,0c0-0.4,0.1-0.7,0.1-1l0.8,0c-0.1,0.3-0.1,0.6-0.2,1l2.7,0l0,0.6l-2.8,0
			c-0.1,0.3-0.1,0.7-0.2,0.9l2.4,0l0,5.6L294.7,122.4z M289.6,117.4l0,0.8l3.5,0l0-0.8L289.6,117.4z M293.1,118.7l-3.5,0l0,0.8
			l3.5,0L293.1,118.7z M289.6,121l3.5,0l0-0.9l-3.5,0L289.6,121z M289.7,122.4l3.5,0l0-0.8l-3.5,0L289.7,122.4z"/>
	</g>
	<g>
		<path fill="#58595B" d="M265.6,152.2l2.6,0l0,0.7l-2.6,0L265.6,152.2z"/>
		<path fill="#58595B" d="M269.5,154.5l1.6,0l0-5.5l-1.3,0l0-0.6c0.6-0.1,1.1-0.3,1.5-0.5l0.7,0l0,6.6l1.5,0l0,0.8l-4,0L269.5,154.5
			z"/>
		<path fill="#58595B" d="M277.2,147.1c-0.2,0.7-0.5,1.3-0.8,1.9l0.1,7l-0.7,0l0-5.7c-0.3,0.5-0.6,0.9-1,1.3
			c-0.1-0.2-0.3-0.6-0.4-0.7c0.9-1,1.7-2.5,2.2-4L277.2,147.1z M283.3,147.4l0.1,8.4l-0.7,0l0-0.5l-4.4,0l0,0.6l-0.7,0l-0.1-8.5
			L283.3,147.4z M282.7,154.7l0-6.6l-4.4,0l0,6.6L282.7,154.7z M280.8,150.1l0,1.1l1.1,0l0,2.7l-2.8,0l0-2.7l1.1,0l0-1.1l-1.5,0
			l0-0.6l1.5,0l0-1.1l0.6,0l0,1.1l1.5,0l0,0.6L280.8,150.1z M281.3,151.8l-1.7,0l0,1.5l1.7,0L281.3,151.8z"/>
		<path fill="#58595B" d="M287.6,152.2c-0.1-0.3-0.5-0.9-0.7-1.4l0,5.1l-0.7,0l0-5c-0.3,1.2-0.8,2.3-1.2,3c-0.1-0.2-0.3-0.5-0.4-0.7
			c0.6-0.8,1.2-2.4,1.5-3.7l-1.3,0l0-0.7l1.4,0l0-1.9l0.7,0l0,1.9l1.1,0l0,0.7l-1.1,0l0,0.5c0.3,0.3,1,1.5,1.2,1.8L287.6,152.2z
			 M289.6,153.8c-0.4,0.7-0.9,1.4-1.4,1.8c-0.1-0.1-0.4-0.3-0.6-0.4c0.5-0.4,1.1-1,1.4-1.6L289.6,153.8z M289.7,147.9l-1.7,0l0-0.6
			l5.6,0l0,0.6l-1.8,0l0,0.7l1.6,0l0,2.3l-5.2,0l0-2.3l1.5,0L289.7,147.9z M291,153.3l0,2.6l-0.7,0l0-2.6l-2.4,0l0-0.6l5.6,0l0,0.6
			L291,153.3z M288.6,152l0-0.6l4.3,0l0,0.6L288.6,152z M288.8,150.3l0.9,0l0-1.2l-0.9,0L288.8,150.3z M291.1,147.8l-0.9,0l0,0.7
			l0.9,0L291.1,147.8z M290.2,150.3l0.9,0l0-1.2l-0.9,0L290.2,150.3z M291.7,149.1l0,1.2l1,0l0-1.2L291.7,149.1z M292.3,153.6
			c0.5,0.5,1.1,1.2,1.4,1.6l-0.6,0.4c-0.3-0.5-0.8-1.2-1.3-1.7L292.3,153.6z"/>
		<path fill="#58595B" d="M296.2,149.7c-0.4-0.2-1.1-0.5-1.6-0.7l0.4-0.5c0.6,0.1,1.3,0.4,1.6,0.6L296.2,149.7z M303.6,153.9l-4.1,0
			l0,2l-0.7,0l0-2l-4,0l0-0.7l4,0l0-0.7l0.7,0l0,0.7l4.1,0L303.6,153.9z M294.9,152.2c0.5-0.5,1.3-1.3,1.9-2.1l0.4,0.5
			c-0.6,0.7-1.2,1.5-1.8,2.1L294.9,152.2z M296.9,148.1c-0.4-0.2-1-0.6-1.6-0.8l0.4-0.5c0.6,0.2,1.3,0.5,1.6,0.7L296.9,148.1z
			 M297.7,149.1c-0.2,0.2-0.4,0.4-0.6,0.6c-0.1-0.1-0.4-0.4-0.6-0.5c0.8-0.6,1.5-1.6,2-2.5l0.7,0.2c-0.1,0.3-0.3,0.6-0.5,0.9l1.6,0
			c-0.1-0.3-0.3-0.5-0.4-0.8l0.7-0.2c0.2,0.3,0.4,0.7,0.5,1l2,0l0,0.6l-2.2,0l0,0.7l1.9,0l0,0.5l-1.9,0l0,0.7l1.9,0l0,0.5l-1.9,0
			l0,0.8l2.4,0l0,0.6l-4.9,0l0,0.4l-0.7,0L297.7,149.1z M300.2,148.4l-1.8,0l0,0.7l1.8,0L300.2,148.4z M300.2,149.6l-1.8,0l0,0.7
			l1.8,0L300.2,149.6z M300.3,150.8l-1.8,0l0,0.8l1.8,0L300.3,150.8z"/>
		<path fill="#58595B" d="M313.5,151l0,0.7l-6,0c-0.4,1.8-1.2,3.2-2.3,4.1c-0.1-0.1-0.4-0.4-0.6-0.5c1.1-0.8,1.8-2,2.2-3.6l-2,0
			l0-0.7l4,0l0-0.9l-3.1,0l0-0.6l3.1,0l0-0.9l-3.6,0l0-0.7l2,0c-0.2-0.3-0.4-0.7-0.7-1l0.6-0.3c0.3,0.4,0.7,0.9,0.8,1.2l-0.2,0.1
			l2.6,0l-0.1,0c0.2-0.4,0.6-0.9,0.7-1.3l0.8,0.2c-0.2,0.4-0.5,0.8-0.7,1.1l2.1,0l0,0.7l-3.7,0l0,0.9l3.2,0l0,0.6l-3.2,0l0,0.9
			L313.5,151z M310.3,154.8l3,0l0,0.7l-6.8,0.1l0-0.7l3,0l0-1.7l-2,0l0-0.7l5.1,0l0,0.7l-2.4,0L310.3,154.8z"/>
	</g>
	<g>
		<path fill="#414042" d="M61.2,197.9v-4.1h-1.4v-0.6c0.8,0,1.4-0.5,1.5-1.1H62v5.8H61.2z"/>
		<path fill="#414042" d="M63.5,196.9c0.3,0.2,0.7,0.3,1.1,0.3c1.4,0,2-0.9,2-2.1c-0.2,0.4-0.7,0.7-1.5,0.7c-1,0-2-0.7-2-2
			c0-1.2,1-2,2.2-2c1.1,0,2.3,0.8,2.3,2.7c0,2.1-1,3.4-2.9,3.4c-0.5,0-1.1-0.1-1.4-0.3L63.5,196.9z M65.2,192.7
			c-0.6,0-1.3,0.5-1.3,1.2c0,0.8,0.6,1.2,1.3,1.2c0.6,0,1.3-0.5,1.3-1.2C66.5,193.1,65.9,192.7,65.2,192.7z"/>
		<path fill="#414042" d="M68.7,196.9c0.3,0.2,0.7,0.3,1.1,0.3c1.4,0,2-0.9,2-2.1c-0.2,0.4-0.7,0.7-1.5,0.7c-1,0-2-0.7-2-2
			c0-1.2,1-2,2.2-2c1.1,0,2.3,0.8,2.3,2.7c0,2.1-1,3.4-2.9,3.4c-0.5,0-1.1-0.1-1.4-0.3L68.7,196.9z M70.5,192.7
			c-0.6,0-1.3,0.5-1.3,1.2c0,0.8,0.6,1.2,1.3,1.2c0.6,0,1.3-0.5,1.3-1.2C71.7,193.1,71.1,192.7,70.5,192.7z"/>
		<path fill="#414042" d="M77.6,192.9c-0.2-0.1-0.6-0.3-1-0.3c-1.2,0-2,0.9-2.1,2.1c0.2-0.4,0.8-0.8,1.5-0.8c1.2,0,2,0.7,2,2
			c0,1.3-1,2-2.2,2c-1.1,0-2.3-0.8-2.3-2.7c0-2.2,1.3-3.4,3-3.4c0.5,0,1,0.1,1.3,0.3L77.6,192.9z M75.9,197.2c0.7,0,1.3-0.5,1.3-1.2
			c0-0.8-0.6-1.2-1.3-1.2c-0.7,0-1.3,0.5-1.3,1.2C74.6,196.8,75.2,197.2,75.9,197.2z"/>
	</g>
	<g>
		<path fill="#414042" d="M90.8,194c0-0.1,0-0.2,0-0.2c0-1,0.7-1.9,2-1.9c1.3,0,2,0.8,2,1.8c0,0.8-0.4,1.4-1.1,1.8l-1.2,0.7
			c-0.3,0.2-0.6,0.5-0.7,0.8h3v0.8h-4.1c0-1,0.4-1.7,1.4-2.3l1-0.6c0.5-0.4,0.8-0.8,0.8-1.2c0-0.5-0.4-1-1.1-1
			c-0.8,0-1.1,0.5-1.1,1.2c0,0.1,0,0.2,0,0.3L90.8,194z"/>
		<path fill="#414042" d="M96.2,192.8c0.4-0.6,1-0.9,1.8-0.9c0.8,0,1.4,0.4,1.8,0.9c0.4,0.6,0.5,1.3,0.5,2.1c0,0.8-0.1,1.5-0.5,2.1
			c-0.4,0.6-1,0.9-1.8,0.9c-0.8,0-1.4-0.4-1.8-0.9c-0.4-0.6-0.5-1.3-0.5-2.1C95.7,194.1,95.8,193.4,96.2,192.8z M97,196.8
			c0.2,0.2,0.5,0.4,0.9,0.4c0.4,0,0.7-0.1,0.9-0.4c0.4-0.4,0.5-1,0.5-1.9s-0.2-1.5-0.5-1.9c-0.2-0.2-0.5-0.4-0.9-0.4
			c-0.4,0-0.7,0.1-0.9,0.4c-0.4,0.4-0.5,1-0.5,1.9S96.7,196.5,97,196.8z"/>
		<path fill="#414042" d="M101.7,192.8c0.4-0.6,1-0.9,1.8-0.9s1.4,0.4,1.8,0.9c0.4,0.6,0.5,1.3,0.5,2.1c0,0.8-0.1,1.5-0.5,2.1
			c-0.4,0.6-1,0.9-1.8,0.9s-1.4-0.4-1.8-0.9c-0.4-0.6-0.5-1.3-0.5-2.1C101.1,194.1,101.3,193.4,101.7,192.8z M102.5,196.8
			c0.2,0.2,0.5,0.4,0.9,0.4c0.4,0,0.7-0.1,0.9-0.4c0.4-0.4,0.5-1,0.5-1.9s-0.2-1.5-0.5-1.9c-0.2-0.2-0.5-0.4-0.9-0.4
			c-0.4,0-0.7,0.1-0.9,0.4c-0.4,0.4-0.5,1-0.5,1.9S102.2,196.5,102.5,196.8z"/>
		<path fill="#414042" d="M107.1,192.8c0.4-0.6,1-0.9,1.8-0.9c0.8,0,1.4,0.4,1.8,0.9c0.4,0.6,0.5,1.3,0.5,2.1c0,0.8-0.1,1.5-0.5,2.1
			c-0.4,0.6-1,0.9-1.8,0.9c-0.8,0-1.4-0.4-1.8-0.9c-0.4-0.6-0.5-1.3-0.5-2.1C106.6,194.1,106.8,193.4,107.1,192.8z M108,196.8
			c0.2,0.2,0.5,0.4,0.9,0.4c0.4,0,0.7-0.1,0.9-0.4c0.4-0.4,0.5-1,0.5-1.9s-0.2-1.5-0.5-1.9c-0.2-0.2-0.5-0.4-0.9-0.4
			c-0.4,0-0.7,0.1-0.9,0.4c-0.4,0.4-0.5,1-0.5,1.9S107.7,196.5,108,196.8z"/>
	</g>
	<g>
		<path fill="#414042" d="M124.1,194c0-0.1,0-0.2,0-0.2c0-1,0.7-1.9,2-1.9c1.3,0,2,0.8,2,1.8c0,0.8-0.4,1.4-1.1,1.8l-1.2,0.7
			c-0.3,0.2-0.6,0.5-0.7,0.8h3v0.8H124c0-1,0.4-1.7,1.4-2.3l1-0.6c0.5-0.4,0.8-0.8,0.8-1.2c0-0.5-0.4-1-1.1-1
			c-0.8,0-1.1,0.5-1.1,1.2c0,0.1,0,0.2,0,0.3L124.1,194z"/>
		<path fill="#414042" d="M129.4,192.8c0.4-0.6,1-0.9,1.8-0.9c0.8,0,1.4,0.4,1.8,0.9c0.4,0.6,0.5,1.3,0.5,2.1c0,0.8-0.1,1.5-0.5,2.1
			c-0.4,0.6-1,0.9-1.8,0.9c-0.8,0-1.4-0.4-1.8-0.9c-0.4-0.6-0.5-1.3-0.5-2.1C128.9,194.1,129,193.4,129.4,192.8z M130.3,196.8
			c0.2,0.2,0.5,0.4,0.9,0.4c0.4,0,0.7-0.1,0.9-0.4c0.4-0.4,0.5-1,0.5-1.9s-0.2-1.5-0.5-1.9c-0.2-0.2-0.5-0.4-0.9-0.4
			c-0.4,0-0.7,0.1-0.9,0.4c-0.4,0.4-0.5,1-0.5,1.9S129.9,196.5,130.3,196.8z"/>
		<path fill="#414042" d="M134.9,192.8c0.4-0.6,1-0.9,1.8-0.9c0.8,0,1.4,0.4,1.8,0.9c0.4,0.6,0.5,1.3,0.5,2.1c0,0.8-0.1,1.5-0.5,2.1
			c-0.4,0.6-1,0.9-1.8,0.9c-0.8,0-1.4-0.4-1.8-0.9c-0.4-0.6-0.5-1.3-0.5-2.1C134.4,194.1,134.5,193.4,134.9,192.8z M135.8,196.8
			c0.2,0.2,0.5,0.4,0.9,0.4c0.4,0,0.7-0.1,0.9-0.4c0.4-0.4,0.5-1,0.5-1.9s-0.2-1.5-0.5-1.9c-0.2-0.2-0.5-0.4-0.9-0.4
			c-0.4,0-0.7,0.1-0.9,0.4c-0.4,0.4-0.5,1-0.5,1.9S135.4,196.5,135.8,196.8z"/>
		<path fill="#414042" d="M139.8,195.5l2.5-3.5h1.2v3.7h1v0.8h-1v1.3h-0.9v-1.3h-2.9V195.5z M142.6,192.9l-2.1,2.9h2.1V192.9z"/>
	</g>
	<g>
		<path fill="#414042" d="M157.3,194c0-0.1,0-0.2,0-0.2c0-1,0.7-1.9,2-1.9c1.3,0,2,0.8,2,1.8c0,0.8-0.4,1.4-1.1,1.8l-1.2,0.7
			c-0.3,0.2-0.6,0.5-0.7,0.8h3v0.8h-4.1c0-1,0.4-1.7,1.4-2.3l1-0.6c0.5-0.4,0.8-0.8,0.8-1.2c0-0.5-0.4-1-1.1-1
			c-0.8,0-1.1,0.5-1.1,1.2c0,0.1,0,0.2,0,0.3L157.3,194z"/>
		<path fill="#414042" d="M162.6,192.8c0.4-0.6,1-0.9,1.8-0.9c0.8,0,1.4,0.4,1.8,0.9c0.4,0.6,0.5,1.3,0.5,2.1c0,0.8-0.1,1.5-0.5,2.1
			c-0.4,0.6-1,0.9-1.8,0.9c-0.8,0-1.4-0.4-1.8-0.9c-0.4-0.6-0.5-1.3-0.5-2.1C162.1,194.1,162.2,193.4,162.6,192.8z M163.5,196.8
			c0.2,0.2,0.5,0.4,0.9,0.4c0.4,0,0.7-0.1,0.9-0.4c0.4-0.4,0.5-1,0.5-1.9s-0.2-1.5-0.5-1.9c-0.2-0.2-0.5-0.4-0.9-0.4
			c-0.4,0-0.7,0.1-0.9,0.4c-0.4,0.4-0.5,1-0.5,1.9S163.1,196.5,163.5,196.8z"/>
		<path fill="#414042" d="M168.1,192.8c0.4-0.6,1-0.9,1.8-0.9c0.8,0,1.4,0.4,1.8,0.9c0.4,0.6,0.5,1.3,0.5,2.1c0,0.8-0.1,1.5-0.5,2.1
			c-0.4,0.6-1,0.9-1.8,0.9c-0.8,0-1.4-0.4-1.8-0.9c-0.4-0.6-0.5-1.3-0.5-2.1C167.6,194.1,167.7,193.4,168.1,192.8z M169,196.8
			c0.2,0.2,0.5,0.4,0.9,0.4c0.4,0,0.7-0.1,0.9-0.4c0.4-0.4,0.5-1,0.5-1.9s-0.2-1.5-0.5-1.9c-0.2-0.2-0.5-0.4-0.9-0.4
			c-0.4,0-0.7,0.1-0.9,0.4c-0.4,0.4-0.5,1-0.5,1.9S168.6,196.5,169,196.8z"/>
		<path fill="#414042" d="M173,196.3c0-0.7,0.5-1.2,1.1-1.4c-0.5-0.2-1-0.7-1-1.4c0-1,0.8-1.6,2-1.6c1.1,0,2,0.7,2,1.6
			c0,0.6-0.4,1.2-1,1.4c0.6,0.2,1.1,0.7,1.1,1.4c0,0.9-0.8,1.7-2.1,1.7C173.8,198,173,197.3,173,196.3z M176.4,196.3
			c0-0.6-0.5-1-1.2-1s-1.2,0.4-1.2,1c0,0.5,0.4,1,1.2,1C175.9,197.2,176.4,196.8,176.4,196.3z M176.2,193.6c0-0.5-0.4-0.9-1.1-0.9
			c-0.7,0-1.1,0.4-1.1,0.9c0,0.6,0.5,0.9,1.1,1C175.8,194.5,176.2,194.1,176.2,193.6z"/>
	</g>
	<g>
		<path fill="#414042" d="M190.1,194c0-0.1,0-0.2,0-0.2c0-1,0.7-1.9,2-1.9c1.3,0,2,0.8,2,1.8c0,0.8-0.4,1.4-1.1,1.8l-1.2,0.7
			c-0.3,0.2-0.6,0.5-0.7,0.8h3v0.8H190c0-1,0.4-1.7,1.4-2.3l1-0.6c0.5-0.4,0.8-0.8,0.8-1.2c0-0.5-0.4-1-1.1-1
			c-0.8,0-1.1,0.5-1.1,1.2c0,0.1,0,0.2,0,0.3L190.1,194z"/>
		<path fill="#414042" d="M195.4,192.8c0.4-0.6,1-0.9,1.8-0.9c0.8,0,1.4,0.4,1.8,0.9c0.4,0.6,0.5,1.3,0.5,2.1c0,0.8-0.1,1.5-0.5,2.1
			c-0.4,0.6-1,0.9-1.8,0.9c-0.8,0-1.4-0.4-1.8-0.9c-0.4-0.6-0.5-1.3-0.5-2.1C194.9,194.1,195,193.4,195.4,192.8z M196.3,196.8
			c0.2,0.2,0.5,0.4,0.9,0.4c0.4,0,0.7-0.1,0.9-0.4c0.4-0.4,0.5-1,0.5-1.9s-0.2-1.5-0.5-1.9c-0.2-0.2-0.5-0.4-0.9-0.4
			c-0.4,0-0.7,0.1-0.9,0.4c-0.4,0.4-0.5,1-0.5,1.9S195.9,196.5,196.3,196.8z"/>
		<path fill="#414042" d="M201.6,197.9v-4.1h-1.4v-0.6c0.8,0,1.4-0.5,1.5-1.1h0.8v5.8H201.6z"/>
		<path fill="#414042" d="M203.5,194c0-0.1,0-0.2,0-0.2c0-1,0.7-1.9,2-1.9c1.3,0,2,0.8,2,1.8c0,0.8-0.4,1.4-1.1,1.8l-1.2,0.7
			c-0.3,0.2-0.6,0.5-0.7,0.8h3v0.8h-4.1c0-1,0.4-1.7,1.4-2.3l1-0.6c0.5-0.4,0.8-0.8,0.8-1.2c0-0.5-0.4-1-1.1-1
			c-0.8,0-1.1,0.5-1.1,1.2c0,0.1,0,0.2,0,0.3L203.5,194z"/>
	</g>
	<g>
		<path fill="#414042" d="M220.4,194c0-0.1,0-0.2,0-0.2c0-1,0.7-1.9,2-1.9c1.3,0,2,0.8,2,1.8c0,0.8-0.4,1.4-1.1,1.8l-1.2,0.7
			c-0.3,0.2-0.6,0.5-0.7,0.8h3v0.8h-4.1c0-1,0.4-1.7,1.4-2.3l1-0.6c0.5-0.4,0.8-0.8,0.8-1.2c0-0.5-0.4-1-1.1-1
			c-0.8,0-1.1,0.5-1.1,1.2c0,0.1,0,0.2,0,0.3L220.4,194z"/>
		<path fill="#414042" d="M225.7,192.8c0.4-0.6,1-0.9,1.8-0.9c0.8,0,1.4,0.4,1.8,0.9c0.4,0.6,0.5,1.3,0.5,2.1c0,0.8-0.1,1.5-0.5,2.1
			c-0.4,0.6-1,0.9-1.8,0.9c-0.8,0-1.4-0.4-1.8-0.9c-0.4-0.6-0.5-1.3-0.5-2.1C225.2,194.1,225.3,193.4,225.7,192.8z M226.6,196.8
			c0.2,0.2,0.5,0.4,0.9,0.4c0.4,0,0.7-0.1,0.9-0.4c0.4-0.4,0.5-1,0.5-1.9s-0.2-1.5-0.5-1.9c-0.2-0.2-0.5-0.4-0.9-0.4
			c-0.4,0-0.7,0.1-0.9,0.4c-0.4,0.4-0.5,1-0.5,1.9S226.2,196.5,226.6,196.8z"/>
		<path fill="#414042" d="M231.8,197.9v-4.1h-1.4v-0.6c0.8,0,1.4-0.5,1.5-1.1h0.8v5.8H231.8z"/>
		<path fill="#414042" d="M237.9,192.9c-0.2-0.1-0.6-0.3-1-0.3c-1.2,0-2,0.9-2.1,2.1c0.2-0.4,0.8-0.8,1.5-0.8c1.2,0,2,0.7,2,2
			c0,1.3-1,2-2.2,2c-1.1,0-2.3-0.8-2.3-2.7c0-2.2,1.3-3.4,3-3.4c0.5,0,1,0.1,1.3,0.3L237.9,192.9z M236.2,197.2
			c0.7,0,1.3-0.5,1.3-1.2c0-0.8-0.6-1.2-1.3-1.2c-0.7,0-1.3,0.5-1.3,1.2C234.9,196.8,235.5,197.2,236.2,197.2z"/>
	</g>
	<line fill="none" stroke="#414042" stroke-width="0.1702" stroke-miterlimit="10" x1="65.2" y1="188" x2="65.2" y2="181.7"/>
	<line fill="none" stroke="#414042" stroke-width="0.1702" stroke-miterlimit="10" x1="177" y1="188" x2="177" y2="181.7"/>
	<line fill="none" stroke="#414042" stroke-width="0.1702" stroke-miterlimit="10" x1="149" y1="188" x2="149" y2="181.7"/>
	<line fill="none" stroke="#414042" stroke-width="0.1702" stroke-miterlimit="10" x1="121.1" y1="188" x2="121.1" y2="181.7"/>
	<line fill="none" stroke="#414042" stroke-width="0.1702" stroke-miterlimit="10" x1="93.1" y1="188" x2="93.1" y2="181.7"/>
	<line fill="none" stroke="#414042" stroke-width="0.1702" stroke-miterlimit="10" x1="204.9" y1="188" x2="204.9" y2="181.7"/>
	<line fill="none" stroke="#414042" stroke-width="0.1702" stroke-miterlimit="10" x1="232.8" y1="188" x2="232.8" y2="181.7"/>
	<line fill="none" stroke="#414042" stroke-width="0.3101" stroke-miterlimit="10" x1="52.8" y1="185" x2="242.7" y2="185"/>
</g>
<g>
</g>
<g>
</g>
<g>
</g>
<g>
</g>
<g>
</g>
<g>
</g>
<g>
</g>
<g>
</g>
<g>
</g>
<g>
</g>
<g>
</g>
<g>
</g>
<g>
</g>
<g>
</g>
<g>
</g>
</svg>
