<?xml version="1.0" encoding="utf-8"?>
<!-- Generator: Adobe Illustrator 18.0.0, SVG Export Plug-In . SVG Version: 6.00 Build 0)  -->
<!DOCTYPE svg PUBLIC "-//W3C//DTD SVG 1.1//EN" "http://www.w3.org/Graphics/SVG/1.1/DTD/svg11.dtd">
<svg version="1.1" id="Layer_1" xmlns="http://www.w3.org/2000/svg" xmlns:xlink="http://www.w3.org/1999/xlink" x="0px" y="0px"
	 viewBox="0 0 424.6 274.6" enable-background="new 0 0 424.6 274.6" xml:space="preserve">
<g>
	<g>
		<g>
			<line fill="none" stroke="#A7A9AC" stroke-width="0.8649" stroke-miterlimit="10" x1="37.6" y1="6.9" x2="424.6" y2="6.9"/>
			<line fill="none" stroke="#A7A9AC" stroke-width="0.8649" stroke-miterlimit="10" x1="37.6" y1="56.1" x2="424.6" y2="56.1"/>
			<line fill="none" stroke="#A7A9AC" stroke-width="0.8649" stroke-miterlimit="10" x1="37.6" y1="105.2" x2="424.6" y2="105.2"/>
			<line fill="none" stroke="#A7A9AC" stroke-width="0.8649" stroke-miterlimit="10" x1="37.6" y1="154.3" x2="424.6" y2="154.3"/>
			<line fill="none" stroke="#A7A9AC" stroke-width="0.8649" stroke-miterlimit="10" x1="37.6" y1="203.5" x2="424.6" y2="203.5"/>
		</g>
		<path fill="none" stroke="#EA5284" stroke-width="0.9834" stroke-linejoin="bevel" stroke-miterlimit="10" d="M73,8.4l12.1-3
			l7.1,37.8l5.1-12.1l8.1,43.1l8.1-38.5l3,56.7l12.1-35.5l5.1-31.7l6.7-13.6l8.4,9.8l8.1-6v26.5L167,11.5l20.2,1.5l4,14.4l7.1-7.6
			v42.3l11.1-12.8l-2,52.1L221.5,78l3,34l5.1-46.9l30.3,99L270,112l17.2,71l13.1-69.5l9.1,32.5l11.1-62.7c0,0,17.2,89.9,19.2,84.6
			c2-5.3,17.2-59.7,17.2-59.7L366,121l7.1-18.1l6.1,31l10.1-21.2l7.1,18.1l5.1-22.7"/>
		<path fill="none" stroke="#0C56AB" stroke-width="0.9834" stroke-linejoin="bevel" stroke-miterlimit="10" d="M78.1,11.5l16.2-4.5
			l1,7.6c0,0,13.1-7.6,16.2-6.8c3,0.8,3,0.8,3,0.8l23.2-2.3h20.2L171,44l18.2-9.1c0,0,16.2-15.1,19.2-12.8
			c3,2.3,15.2,24.2,15.2,24.2l15.2-12.8c0,0,14.1,3.8,16.2,6c2,2.3,1,34,1,34L264,50l17.2,47.6c0,0,12.1-24.2,15.2-21.9
			c3,2.3,17.2,30.2,17.2,30.2l13.1-1.5l12.1,31.7l7.1-13.6l17.2,9.8l17.2-22.7l3-24.9l8.1,12.8l7.1-10.6"/>
		<circle fill="#2368B5" cx="7.1" cy="250.4" r="7.1"/>
		<g>
			<g>
				<path fill="#0C56AB" d="M25.6,245.1c0,0.4,0,0.9-0.1,1.4c0.1,1.2,0.8,5.4,4.3,6.9c-0.2,0.2-0.4,0.4-0.5,0.6
					c-2.5-1.2-3.6-3.6-4-5.5c-0.5,2-1.5,4.2-4,5.5c-0.1-0.2-0.4-0.4-0.6-0.6c4.1-2.1,4.1-7,4.1-8.5H25.6z"/>
				<path fill="#0C56AB" d="M36.3,250.7c0.5,1.6,1.4,2.7,2.3,2.7c0.3,0,0.4-0.4,0.5-1.5c0.2,0.1,0.5,0.3,0.7,0.3
					c-0.1,1.5-0.4,1.8-1.1,1.8c-1.3,0-2.5-1.4-3.1-3.4h-3v2.5l2.4-0.6c0,0.2,0,0.5,0.1,0.7c-2.7,0.7-3.1,0.8-3.3,1
					c-0.1-0.2-0.2-0.5-0.3-0.7c0.2-0.1,0.4-0.3,0.4-0.7v-7.3h7.1v2.9h-2.9c0,0.5,0.1,1,0.2,1.5h3.4v0.7H36.3z M32.5,246.3v1.5h5.6
					v-1.5H32.5z M35.3,250c-0.1-0.5-0.2-1-0.2-1.5h-2.6v1.5H35.3z"/>
				<path fill="#0C56AB" d="M49.1,246.7c-0.2,0.8-0.6,1.4-1.1,1.9c0.5,0.5,1.1,0.8,1.8,1c-0.1,0.1-0.3,0.4-0.4,0.5
					c-0.7-0.3-1.3-0.6-1.8-1.1c-0.5,0.4-1.1,0.7-1.8,1c-0.1-0.1-0.3-0.4-0.4-0.6c0.7-0.2,1.2-0.5,1.7-0.9c-0.3-0.4-0.6-0.9-0.8-1.4
					c-0.2,0.2-0.4,0.4-0.6,0.6c-0.1-0.1-0.3-0.3-0.5-0.5v2.6h-0.6v-2.7h-1.2v2.8h-0.5v-2.8h-1.2v2.9h-0.6v-3.4h1.7v-1.6h0.7v1.6h1.7
					v0.6c0.6-0.5,1.1-1.3,1.4-2.2l0.6,0.1c-0.1,0.3-0.2,0.6-0.3,0.9h2.7v0.6H49.1z M41.8,246.7c-0.1-0.3-0.4-0.8-0.7-1.1l0.5-0.2
					c0.3,0.3,0.6,0.8,0.7,1.1L41.8,246.7z M48.8,252.9c0,0.4-0.1,0.6-0.4,0.7c-0.3,0.1-0.8,0.1-1.7,0.1c0-0.2-0.1-0.4-0.3-0.6
					c0.6,0,1.2,0,1.4,0c0.2,0,0.2-0.1,0.2-0.2v-1.5h-2.5v2.9h-0.7v-2.9h-2.3v2.4h-0.7v-3h3v-0.6h0.7v0.6h3.2V252.9z M42.6,247.7
					c-0.1,0.6-0.3,1.2-0.5,1.6c-0.1,0-0.3-0.2-0.4-0.2c0.2-0.4,0.3-1,0.4-1.5L42.6,247.7z M44.1,247.6c0.2,0.5,0.4,1.1,0.4,1.6
					l-0.4,0.1c0-0.4-0.2-1.1-0.4-1.6L44.1,247.6z M45.3,245.5c-0.3,0.4-0.6,0.9-0.9,1.2l-0.5-0.2c0.2-0.3,0.5-0.9,0.7-1.2
					L45.3,245.5z M46.7,246.7c0.2,0.5,0.5,1,0.8,1.5c0.4-0.4,0.6-0.9,0.8-1.5H46.7z"/>
			</g>
		</g>
		<circle fill="#EA5284" cx="70.7" cy="250.4" r="7.1"/>
		<g>
			<g>
				<path fill="#0C56AB" d="M86.8,251.7h1.7v0.7h-1.7v1.8H86v-1.8h-1.7v-0.7H86v-0.8h-1.3v-3.3H86v-0.8h-1.6v-0.7H86v-1.1h0.7v1.1
					h1.6v0.7h-1.6v0.8h1.4v3.3h-1.4V251.7z M85.3,249h2.1v-0.8h-2.1V249z M85.3,250.3h2.1v-0.8h-2.1V250.3z M93.4,247.9h-5v-0.6h1.5
					c0-0.2,0.1-0.5,0.1-0.8h-1.1v-0.6H90c0-0.3,0.1-0.6,0.1-0.8l0.7,0c0,0.2,0,0.5-0.1,0.8h1.9v1.4h0.8V247.9z M93.4,253.1h-1.8v1.1
					h-0.7v-1.1h-2c0.1-0.4,0.3-1,0.4-1.5h-0.7V251h2.3v-0.6h-1.9v-2h3.8v2h-1.2v0.6h1.5v0.6h-1.5v1h1.8V253.1z M89.8,249.9h2.4v-1
					h-2.4V249.9z M90.9,252.5v-1H90c-0.1,0.3-0.1,0.7-0.2,1H90.9z M90.7,246.5c0,0.3-0.1,0.6-0.1,0.8H92v-0.8H90.7z"/>
				<path fill="#0C56AB" d="M103,245.5v8.7h-0.7v-0.4h-6.9v0.4h-0.7v-8.7H103z M102.3,253.2v-7.1h-6.9v7.1h1.8
					c0-0.1-0.1-0.3-0.2-0.4c0.2-0.1,0.4-0.2,0.4-0.6v-0.4c-0.4,0.2-0.9,0.3-1.3,0.4c-0.1-0.1-0.2-0.3-0.3-0.4c0.9-0.2,1.9-0.5,2.5-1
					h-1.7v-1.4h4.4v1.4h-2c-0.3,0.3-0.7,0.5-1.1,0.7v0.9l1.4-0.4c0,0.1,0,0.3,0.1,0.4c-1.7,0.5-2,0.6-2.2,0.7H102.3z M101.7,248.5
					v0.5h-5.8v-0.5H101.7z M101.4,248.1h-4.9v-1.6h4.9V248.1z M97.8,247h-0.9v0.7h0.9V247z M100.5,250.4v-0.6h-3.2v0.6H100.5z
					 M99.3,247h-1v0.7h1V247z M101.6,251.1c-0.3,0.3-0.7,0.5-1.1,0.7c0.5,0.3,0.9,0.6,1.2,0.8l-0.4,0.4c-0.5-0.4-1.6-1.1-2.4-1.6
					l0.3-0.3c0.3,0.1,0.5,0.3,0.8,0.5c0.4-0.2,0.8-0.5,1.1-0.7L101.6,251.1z M100.8,247h-1v0.7h1V247z"/>
			</g>
		</g>
		<g>
			<path fill="#58595B" d="M1.5,3.5C2,2.8,2.8,2.3,3.9,2.3s1.9,0.5,2.4,1.2C6.8,4.3,7,5.3,7,6.4S6.8,8.4,6.3,9.2
				C5.8,9.9,5,10.4,3.9,10.4S2,9.9,1.5,9.2C1,8.4,0.8,7.4,0.8,6.4S1,4.3,1.5,3.5z M2.7,8.9C3,9.2,3.3,9.4,3.9,9.4s0.9-0.2,1.2-0.5
				c0.5-0.5,0.7-1.3,0.7-2.5s-0.2-2-0.7-2.5C4.8,3.5,4.4,3.3,3.9,3.3S3,3.5,2.7,3.8C2.2,4.3,2,5.2,2,6.4S2.2,8.4,2.7,8.9z"/>
			<path fill="#58595B" d="M9.9,2.4c1,0,1.9,0.8,1.9,1.9c0,1.1-0.9,1.9-1.9,1.9C8.9,6.2,8,5.3,8,4.3C8,3.2,8.9,2.4,9.9,2.4z M9,10.3
				l5.6-7.8h1.1l-5.6,7.8H9z M9.9,5.2c0.5,0,0.9-0.4,0.9-0.9c0-0.5-0.4-0.9-0.9-0.9C9.4,3.3,9,3.7,9,4.3C9,4.8,9.4,5.2,9.9,5.2z
				 M14.7,6.6c1,0,1.9,0.8,1.9,1.9c0,1.1-0.9,1.9-1.9,1.9s-1.9-0.8-1.9-1.9C12.7,7.4,13.6,6.6,14.7,6.6z M14.7,9.4
				c0.5,0,0.9-0.4,0.9-0.9c0-0.5-0.4-0.9-0.9-0.9c-0.5,0-0.9,0.4-0.9,0.9C13.7,9,14.2,9.4,14.7,9.4z"/>
		</g>
		<g>
			<path fill="#58595B" d="M1.8,57.1c0.1,1,0.8,1.6,1.8,1.6c0.9,0,1.7-0.6,1.7-1.6c0-1.1-0.8-1.6-1.7-1.6c-0.6,0-1.1,0.2-1.4,0.6
				c-0.4-0.2-0.8-0.3-1.2-0.5l1-3.9H6v1.1H2.7L2.1,55c0.3-0.4,1-0.6,1.6-0.6c1.5,0,2.6,1,2.6,2.6c0,1.5-1.1,2.7-2.9,2.7
				c-1.7,0-2.8-1.1-2.9-2.3L1.8,57.1z"/>
			<path fill="#58595B" d="M9.2,51.6c1,0,1.9,0.8,1.9,1.9c0,1.1-0.9,1.9-1.9,1.9c-1,0-1.9-0.8-1.9-1.9C7.3,52.5,8.2,51.6,9.2,51.6z
				 M8.3,59.5l5.6-7.8H15l-5.6,7.8H8.3z M9.2,54.5c0.5,0,0.9-0.4,0.9-0.9c0-0.5-0.4-0.9-0.9-0.9c-0.5,0-0.9,0.4-0.9,0.9
				C8.3,54.1,8.7,54.5,9.2,54.5z M14,55.8c1,0,1.9,0.8,1.9,1.9c0,1.1-0.9,1.9-1.9,1.9s-1.9-0.8-1.9-1.9C12.1,56.6,13,55.8,14,55.8z
				 M14,58.6c0.5,0,0.9-0.4,0.9-0.9c0-0.5-0.4-0.9-0.9-0.9c-0.5,0-0.9,0.4-0.9,0.9C13.1,58.3,13.5,58.6,14,58.6z"/>
		</g>
		<g>
			<path fill="#58595B" d="M2.4,108.7v-5.5H0.5v-0.8c1.1,0,1.8-0.6,2-1.5h1v7.8H2.4z"/>
			<path fill="#58595B" d="M5.8,102c0.5-0.8,1.3-1.2,2.4-1.2s1.9,0.5,2.4,1.2c0.5,0.8,0.7,1.8,0.7,2.8s-0.2,2.1-0.7,2.8
				c-0.5,0.8-1.3,1.2-2.4,1.2s-1.9-0.5-2.4-1.2c-0.5-0.8-0.7-1.8-0.7-2.8S5.3,102.8,5.8,102z M7,107.4c0.3,0.3,0.7,0.5,1.2,0.5
				s0.9-0.2,1.2-0.5c0.5-0.5,0.7-1.3,0.7-2.5s-0.2-2-0.7-2.5c-0.3-0.3-0.7-0.5-1.2-0.5S7.3,102,7,102.3c-0.5,0.5-0.7,1.3-0.7,2.5
				S6.5,106.9,7,107.4z"/>
			<path fill="#58595B" d="M14.2,100.9c1,0,1.9,0.8,1.9,1.9c0,1.1-0.9,1.9-1.9,1.9c-1,0-1.9-0.8-1.9-1.9
				C12.3,101.7,13.2,100.9,14.2,100.9z M13.3,108.7l5.6-7.8h1.1l-5.6,7.8H13.3z M14.2,103.7c0.5,0,0.9-0.4,0.9-0.9
				c0-0.5-0.4-0.9-0.9-0.9c-0.5,0-0.9,0.4-0.9,0.9C13.3,103.3,13.7,103.7,14.2,103.7z M19,105.1c1,0,1.9,0.8,1.9,1.9
				c0,1.1-0.9,1.9-1.9,1.9S17,108,17,106.9C17,105.9,17.9,105.1,19,105.1z M19,107.9c0.5,0,0.9-0.4,0.9-0.9c0-0.5-0.4-0.9-0.9-0.9
				c-0.5,0-0.9,0.4-0.9,0.9C18,107.5,18.4,107.9,19,107.9z"/>
		</g>
		<g>
			<path fill="#58595B" d="M2.4,158v-5.5H0.5v-0.8c1.1,0,1.8-0.6,2-1.5h1v7.8H2.4z"/>
			<path fill="#58595B" d="M6,155.5c0.1,1,0.8,1.6,1.8,1.6c0.9,0,1.7-0.6,1.7-1.6c0-1.1-0.8-1.6-1.7-1.6c-0.6,0-1.1,0.2-1.4,0.6
				c-0.4-0.2-0.8-0.3-1.2-0.5l1-3.9h4.1v1.1H7l-0.6,2.2c0.3-0.4,1-0.6,1.6-0.6c1.5,0,2.6,1,2.6,2.6c0,1.5-1.1,2.7-2.9,2.7
				c-1.7,0-2.8-1.1-2.9-2.3L6,155.5z"/>
			<path fill="#58595B" d="M13.5,150.1c1,0,1.9,0.8,1.9,1.9c0,1.1-0.9,1.9-1.9,1.9c-1,0-1.9-0.8-1.9-1.9
				C11.6,151,12.5,150.1,13.5,150.1z M12.5,158l5.6-7.8h1.1l-5.6,7.8H12.5z M13.5,153c0.5,0,0.9-0.4,0.9-0.9c0-0.5-0.4-0.9-0.9-0.9
				c-0.5,0-0.9,0.4-0.9,0.9C12.6,152.6,13,153,13.5,153z M18.2,154.3c1,0,1.9,0.8,1.9,1.9c0,1.1-0.9,1.9-1.9,1.9s-1.9-0.8-1.9-1.9
				C16.3,155.1,17.2,154.3,18.2,154.3z M18.2,157.1c0.5,0,0.9-0.4,0.9-0.9c0-0.5-0.4-0.9-0.9-0.9c-0.5,0-0.9,0.4-0.9,0.9
				C17.3,156.7,17.7,157.1,18.2,157.1z"/>
		</g>
		<g>
			<path fill="#58595B" d="M0.7,202.1c0-0.1,0-0.2,0-0.3c0-1.3,1-2.5,2.7-2.5c1.7,0,2.6,1.1,2.6,2.4c0,1-0.6,1.8-1.5,2.4l-1.5,1
				c-0.4,0.3-0.8,0.6-0.9,1.1h4v1.1H0.6c0-1.3,0.5-2.2,1.8-3.1l1.3-0.8c0.7-0.5,1.1-1,1.1-1.6c0-0.7-0.5-1.4-1.5-1.4
				c-1,0-1.5,0.7-1.5,1.6c0,0.1,0,0.2,0,0.3L0.7,202.1z"/>
			<path fill="#58595B" d="M7.9,200.5c0.5-0.8,1.3-1.2,2.4-1.2s1.9,0.5,2.4,1.2c0.5,0.8,0.7,1.8,0.7,2.8c0,1.1-0.2,2.1-0.7,2.8
				c-0.5,0.8-1.3,1.2-2.4,1.2s-1.9-0.5-2.4-1.2c-0.5-0.8-0.7-1.8-0.7-2.8C7.2,202.3,7.3,201.3,7.9,200.5z M9,205.9
				c0.3,0.3,0.7,0.5,1.2,0.5s0.9-0.2,1.2-0.5c0.5-0.5,0.7-1.3,0.7-2.5s-0.2-2-0.7-2.5c-0.3-0.3-0.7-0.5-1.2-0.5s-0.9,0.2-1.2,0.5
				c-0.5,0.5-0.7,1.3-0.7,2.5S8.5,205.4,9,205.9z"/>
			<path fill="#58595B" d="M16.3,199.4c1,0,1.9,0.8,1.9,1.9c0,1.1-0.9,1.9-1.9,1.9c-1,0-1.9-0.8-1.9-1.9
				C14.3,200.2,15.2,199.4,16.3,199.4z M15.3,207.2l5.6-7.8H22l-5.6,7.8H15.3z M16.3,202.2c0.5,0,0.9-0.4,0.9-0.9
				c0-0.5-0.4-0.9-0.9-0.9c-0.5,0-0.9,0.4-0.9,0.9C15.3,201.8,15.8,202.2,16.3,202.2z M21,203.6c1,0,1.9,0.8,1.9,1.9
				c0,1.1-0.9,1.9-1.9,1.9s-1.9-0.8-1.9-1.9C19.1,204.4,20,203.6,21,203.6z M21,206.4c0.5,0,0.9-0.4,0.9-0.9c0-0.5-0.4-0.9-0.9-0.9
				c-0.5,0-0.9,0.4-0.9,0.9C20.1,206,20.5,206.4,21,206.4z"/>
		</g>
		<line fill="none" stroke="#414042" stroke-width="0.1702" stroke-miterlimit="10" x1="271.1" y1="207.4" x2="271.1" y2="201.1"/>
		<line fill="none" stroke="#414042" stroke-width="0.1702" stroke-miterlimit="10" x1="207.9" y1="207.4" x2="207.9" y2="201.1"/>
		<line fill="none" stroke="#414042" stroke-width="0.1702" stroke-miterlimit="10" x1="144.8" y1="207.4" x2="144.8" y2="201.1"/>
		<line fill="none" stroke="#414042" stroke-width="0.1702" stroke-miterlimit="10" x1="81.6" y1="207.4" x2="81.6" y2="201.1"/>
		<line fill="none" stroke="#414042" stroke-width="0.1702" stroke-miterlimit="10" x1="334.3" y1="207.4" x2="334.3" y2="201.1"/>
		<g>
			<path fill="#58595B" d="M70.7,217c0-0.1,0-0.2,0-0.3c0-1.1,0.8-2.1,2.2-2.1c1.4,0,2.2,0.9,2.2,2c0,0.8-0.5,1.5-1.2,2l-1.3,0.8
				c-0.4,0.2-0.7,0.5-0.8,0.9h3.3v0.9h-4.5c0-1.1,0.4-1.9,1.5-2.6l1.1-0.7c0.6-0.4,0.9-0.8,0.9-1.3c0-0.6-0.4-1.1-1.2-1.1
				c-0.8,0-1.2,0.6-1.2,1.3c0,0.1,0,0.2,0,0.3L70.7,217z"/>
			<path fill="#58595B" d="M76.7,215.7c0.4-0.6,1.1-1,2-1s1.6,0.4,2,1c0.4,0.6,0.6,1.5,0.6,2.3c0,0.9-0.1,1.7-0.6,2.3
				c-0.4,0.6-1.1,1-2,1s-1.6-0.4-2-1c-0.4-0.6-0.6-1.5-0.6-2.3C76.1,217.2,76.3,216.4,76.7,215.7z M77.6,220.2
				c0.3,0.3,0.6,0.4,1,0.4s0.8-0.2,1-0.4c0.4-0.4,0.6-1.1,0.6-2.1c0-1-0.2-1.7-0.6-2.1c-0.3-0.3-0.6-0.4-1-0.4s-0.8,0.2-1,0.4
				c-0.4,0.4-0.6,1.1-0.6,2.1C77.1,219.1,77.3,219.8,77.6,220.2z"/>
			<path fill="#58595B" d="M83.5,221.3v-4.6h-1.6V216c0.9,0,1.5-0.5,1.7-1.2h0.9v6.5H83.5z"/>
			<path fill="#58595B" d="M85.7,217c0-0.1,0-0.2,0-0.3c0-1.1,0.8-2.1,2.2-2.1c1.4,0,2.2,0.9,2.2,2c0,0.8-0.5,1.5-1.2,2l-1.3,0.8
				c-0.4,0.2-0.7,0.5-0.8,0.9h3.3v0.9h-4.5c0-1.1,0.4-1.9,1.5-2.6l1.1-0.7c0.6-0.4,0.9-0.8,0.9-1.3c0-0.6-0.4-1.1-1.2-1.1
				c-0.8,0-1.2,0.6-1.2,1.3c0,0.1,0,0.2,0,0.3L85.7,217z"/>
		</g>
		<g>
			<path fill="#58595B" d="M133.9,217c0-0.1,0-0.2,0-0.3c0-1.1,0.8-2.1,2.2-2.1c1.4,0,2.2,0.9,2.2,2c0,0.8-0.5,1.5-1.2,2l-1.3,0.8
				c-0.4,0.2-0.7,0.5-0.8,0.9h3.3v0.9h-4.5c0-1.1,0.4-1.9,1.5-2.6l1.1-0.7c0.6-0.4,0.9-0.8,0.9-1.3c0-0.6-0.4-1.1-1.2-1.1
				c-0.8,0-1.2,0.6-1.2,1.3c0,0.1,0,0.2,0,0.3L133.9,217z"/>
			<path fill="#58595B" d="M139.8,215.7c0.4-0.6,1.1-1,2-1c0.9,0,1.6,0.4,2,1c0.4,0.6,0.6,1.5,0.6,2.3c0,0.9-0.1,1.7-0.6,2.3
				c-0.4,0.6-1.1,1-2,1c-0.9,0-1.6-0.4-2-1c-0.4-0.6-0.6-1.5-0.6-2.3C139.2,217.2,139.4,216.4,139.8,215.7z M140.8,220.2
				c0.3,0.3,0.6,0.4,1,0.4c0.5,0,0.8-0.2,1-0.4c0.4-0.4,0.6-1.1,0.6-2.1c0-1-0.2-1.7-0.6-2.1c-0.3-0.3-0.6-0.4-1-0.4
				c-0.5,0-0.8,0.2-1,0.4c-0.4,0.4-0.6,1.1-0.6,2.1C140.2,219.1,140.4,219.8,140.8,220.2z"/>
			<path fill="#58595B" d="M146.6,221.3v-4.6h-1.6V216c0.9,0,1.5-0.5,1.7-1.2h0.9v6.5H146.6z"/>
			<path fill="#58595B" d="M150.1,217.5l1.9-1.8h-3.1v-0.9h4.4v0.9l-1.8,1.7c1,0,2,0.6,2,2c0,1.1-0.8,2.1-2.3,2.1
				c-1.5,0-2.3-1-2.4-2l1-0.2c0,0.9,0.7,1.4,1.4,1.4c0.9,0,1.4-0.5,1.4-1.2c0-0.8-0.7-1.2-1.3-1.2c-0.2,0-0.4,0-0.6,0.1L150.1,217.5
				z"/>
		</g>
		<g>
			<path fill="#58595B" d="M197.2,217c0-0.1,0-0.2,0-0.3c0-1.1,0.8-2.1,2.2-2.1c1.4,0,2.2,0.9,2.2,2c0,0.8-0.5,1.5-1.2,2l-1.3,0.8
				c-0.4,0.2-0.7,0.5-0.8,0.9h3.3v0.9h-4.5c0-1.1,0.4-1.9,1.5-2.6l1.1-0.7c0.6-0.4,0.9-0.8,0.9-1.3c0-0.6-0.4-1.1-1.2-1.1
				c-0.8,0-1.2,0.6-1.2,1.3c0,0.1,0,0.2,0,0.3L197.2,217z"/>
			<path fill="#58595B" d="M203.1,215.7c0.4-0.6,1.1-1,2-1c0.9,0,1.6,0.4,2,1c0.4,0.6,0.6,1.5,0.6,2.3c0,0.9-0.1,1.7-0.6,2.3
				c-0.4,0.6-1.1,1-2,1c-0.9,0-1.6-0.4-2-1c-0.4-0.6-0.6-1.5-0.6-2.3C202.5,217.2,202.7,216.4,203.1,215.7z M204.1,220.2
				c0.3,0.3,0.6,0.4,1,0.4c0.5,0,0.8-0.2,1-0.4c0.4-0.4,0.6-1.1,0.6-2.1c0-1-0.2-1.7-0.6-2.1c-0.3-0.3-0.6-0.4-1-0.4
				c-0.5,0-0.8,0.2-1,0.4c-0.4,0.4-0.6,1.1-0.6,2.1C203.5,219.1,203.7,219.8,204.1,220.2z"/>
			<path fill="#58595B" d="M209.9,221.3v-4.6h-1.6V216c0.9,0,1.5-0.5,1.7-1.2h0.9v6.5H209.9z"/>
			<path fill="#58595B" d="M212,218.7l2.8-3.9h1.3v4.1h1.1v0.9h-1.1v1.5h-0.9v-1.5H212V218.7z M215.2,215.8l-2.3,3.2h2.3V215.8z"/>
		</g>
		<g>
			<path fill="#58595B" d="M260.9,217c0-0.1,0-0.2,0-0.3c0-1.1,0.8-2.1,2.2-2.1c1.4,0,2.2,0.9,2.2,2c0,0.8-0.5,1.5-1.2,2l-1.3,0.8
				c-0.4,0.2-0.7,0.5-0.8,0.9h3.3v0.9h-4.5c0-1.1,0.4-1.9,1.5-2.6l1.1-0.7c0.6-0.4,0.9-0.8,0.9-1.3c0-0.6-0.4-1.1-1.2-1.1
				c-0.8,0-1.2,0.6-1.2,1.3c0,0.1,0,0.2,0,0.3L260.9,217z"/>
			<path fill="#58595B" d="M266.9,215.7c0.4-0.6,1.1-1,2-1s1.6,0.4,2,1c0.4,0.6,0.6,1.5,0.6,2.3c0,0.9-0.1,1.7-0.6,2.3
				c-0.4,0.6-1.1,1-2,1s-1.6-0.4-2-1c-0.4-0.6-0.6-1.5-0.6-2.3C266.3,217.2,266.4,216.4,266.9,215.7z M267.8,220.2
				c0.3,0.3,0.6,0.4,1,0.4s0.8-0.2,1-0.4c0.4-0.4,0.6-1.1,0.6-2.1c0-1-0.2-1.7-0.6-2.1c-0.3-0.3-0.6-0.4-1-0.4s-0.8,0.2-1,0.4
				c-0.4,0.4-0.6,1.1-0.6,2.1C267.3,219.1,267.4,219.8,267.8,220.2z"/>
			<path fill="#58595B" d="M273.7,221.3v-4.6h-1.6V216c0.9,0,1.5-0.5,1.7-1.2h0.9v6.5H273.7z"/>
			<path fill="#58595B" d="M276.7,219.3c0.1,0.8,0.6,1.3,1.5,1.3c0.8,0,1.4-0.5,1.4-1.3c0-0.9-0.6-1.3-1.4-1.3
				c-0.5,0-0.9,0.2-1.2,0.5c-0.3-0.1-0.6-0.3-1-0.4l0.8-3.2h3.4v0.9h-2.8l-0.5,1.9c0.3-0.3,0.8-0.5,1.3-0.5c1.3,0,2.2,0.8,2.2,2.1
				c0,1.2-0.9,2.2-2.4,2.2c-1.4,0-2.3-0.9-2.4-1.9L276.7,219.3z"/>
		</g>
		<g>
			<path fill="#58595B" d="M324.2,217c0-0.1,0-0.2,0-0.3c0-1.1,0.8-2.1,2.2-2.1c1.4,0,2.2,0.9,2.2,2c0,0.8-0.5,1.5-1.2,2l-1.3,0.8
				c-0.4,0.2-0.7,0.5-0.8,0.9h3.3v0.9h-4.5c0-1.1,0.4-1.9,1.5-2.6l1.1-0.7c0.6-0.4,0.9-0.8,0.9-1.3c0-0.6-0.4-1.1-1.2-1.1
				c-0.8,0-1.2,0.6-1.2,1.3c0,0.1,0,0.2,0,0.3L324.2,217z"/>
			<path fill="#58595B" d="M330.2,215.7c0.4-0.6,1.1-1,2-1c0.9,0,1.6,0.4,2,1c0.4,0.6,0.6,1.5,0.6,2.3c0,0.9-0.1,1.7-0.6,2.3
				c-0.4,0.6-1.1,1-2,1c-0.9,0-1.6-0.4-2-1c-0.4-0.6-0.6-1.5-0.6-2.3C329.6,217.2,329.7,216.4,330.2,215.7z M331.1,220.2
				c0.3,0.3,0.6,0.4,1,0.4c0.5,0,0.8-0.2,1-0.4c0.4-0.4,0.6-1.1,0.6-2.1c0-1-0.2-1.7-0.6-2.1c-0.3-0.3-0.6-0.4-1-0.4
				c-0.5,0-0.8,0.2-1,0.4c-0.4,0.4-0.6,1.1-0.6,2.1C330.6,219.1,330.7,219.8,331.1,220.2z"/>
			<path fill="#58595B" d="M337,221.3v-4.6h-1.6V216c0.9,0,1.5-0.5,1.7-1.2h0.9v6.5H337z"/>
			<path fill="#58595B" d="M343.7,215.8c-0.2-0.1-0.7-0.3-1.2-0.3c-1.3,0-2.2,1-2.3,2.3c0.3-0.4,0.8-0.8,1.7-0.8
				c1.3,0,2.2,0.8,2.2,2.2c0,1.4-1.1,2.2-2.4,2.2c-1.2,0-2.5-0.9-2.5-3c0-2.4,1.4-3.8,3.3-3.8c0.6,0,1.1,0.1,1.4,0.4L343.7,215.8z
				 M341.8,220.6c0.8,0,1.4-0.5,1.4-1.4c0-0.9-0.6-1.4-1.4-1.4c-0.7,0-1.4,0.5-1.4,1.4C340.4,220.1,341.1,220.6,341.8,220.6z"/>
		</g>
		<g>
			<rect x="207.6" y="246.2" fill="none" width="158.1" height="28.4"/>
			<path fill="#58595B" d="M210.2,248.8H208v-0.4h2.3V248.8z M210.8,252.9c-0.6,0.4-1.6,0.7-2.4,1c-0.1-0.1-0.3-0.3-0.4-0.4
				c0.8-0.2,1.8-0.5,2.4-0.8L210.8,252.9z M210,247.5h-1.9v-0.4h1.9V247.5z M214.2,252.6H209v-3.2h5.1V252.6z M213.6,249.8h-4.1v0.6
				h4.1V249.8z M213.6,250.7h-4.1v0.6h4.1V250.7z M213.6,251.7h-4.1v0.6h4.1V251.7z M212.9,247.7c0,0.1,0,0.2,0,0.3
				c0.4,0.5,1.3,0.8,2.3,0.9c-0.1,0.1-0.2,0.3-0.3,0.4c-0.9-0.1-1.7-0.5-2.2-1c-0.3,0.4-0.9,0.8-2.3,1c-0.1-0.1-0.2-0.3-0.3-0.4
				c2.1-0.3,2.3-0.9,2.3-1.3v-0.1h-0.9c-0.2,0.3-0.4,0.6-0.6,0.8c-0.1-0.1-0.3-0.2-0.4-0.3c0.4-0.4,0.7-1,0.9-1.5l0.5,0.1
				c-0.1,0.2-0.1,0.3-0.2,0.5h2.8l0.1,0l0.4,0.1c-0.2,0.4-0.5,0.9-0.7,1.1l-0.4-0.2c0.1-0.2,0.3-0.4,0.4-0.7L212.9,247.7
				L212.9,247.7z M212.7,252.7c0.9,0.3,1.8,0.6,2.4,0.8l-0.5,0.3c-0.5-0.2-1.4-0.6-2.3-0.9L212.7,252.7z"/>
			<path fill="#58595B" d="M217.1,250.4c-0.2,0.9-0.5,2-0.9,2.6c-0.1-0.2-0.2-0.4-0.3-0.6c0.3-0.5,0.7-1.4,0.8-2.1L217.1,250.4z
				 M217.8,249.8v4.1h-0.5v-4.1H216v-0.5h1.3v-2.7h0.5v2.7h1.3v0.5H217.8z M216.5,249c0-0.5-0.2-1.2-0.5-1.8l0.4-0.1
				c0.2,0.5,0.4,1.3,0.5,1.7L216.5,249z M218.1,250.3c0.2,0.2,0.7,1.3,0.8,1.6l-0.4,0.4c-0.1-0.4-0.6-1.5-0.8-1.8L218.1,250.3z
				 M219.1,247.2c-0.2,0.6-0.4,1.3-0.7,1.8l-0.4-0.1c0.2-0.5,0.4-1.3,0.6-1.8L219.1,247.2z M222.2,251.6v2.3h-0.5v-2.2l-2.5,0.5
				l-0.1-0.5l2.6-0.5v-4.6h0.5v4.5l1-0.2l0.1,0.5L222.2,251.6z M220.6,250.5c-0.3-0.3-0.9-0.7-1.3-1l0.2-0.4
				c0.5,0.2,1.1,0.6,1.3,0.9L220.6,250.5z M221,248.6c-0.3-0.3-0.8-0.7-1.3-1l0.3-0.4c0.5,0.3,1,0.7,1.3,1L221,248.6z"/>
			<path fill="#58595B" d="M227.8,250.2c0.7,1.2,2.1,2.4,3.4,2.9c-0.1,0.1-0.3,0.3-0.4,0.5c-1.1-0.5-2.2-1.4-3-2.5v2.9h-0.5V251
				c-0.8,1.1-1.9,2-3,2.5c-0.1-0.1-0.2-0.3-0.4-0.4c1.3-0.5,2.6-1.7,3.4-2.8v-2h-3.1v-0.5h3.1v-1.1h0.5v1.1h3.2v0.5h-3.2V250.2z
				 M226.1,248.6c-0.1,0.3-0.2,0.7-0.3,1c0.3,0.3,0.7,0.7,0.9,0.9l-0.4,0.4c-0.2-0.2-0.5-0.5-0.8-0.8c-0.3,0.5-0.6,0.9-1,1.3
				c-0.1-0.1-0.3-0.3-0.4-0.3c0.7-0.5,1.2-1.4,1.5-2.5L226.1,248.6z M229.9,248.6c-0.1,0.3-0.2,0.7-0.3,1c0.5,0.4,1.1,0.9,1.5,1.3
				l-0.4,0.4c-0.3-0.3-0.8-0.8-1.3-1.2c-0.2,0.4-0.4,0.7-0.7,1c-0.1-0.1-0.3-0.2-0.4-0.3c0.6-0.5,1-1.3,1.1-2.2L229.9,248.6z"/>
			<path fill="#58595B" d="M233.2,250.1c-0.3-0.2-0.9-0.6-1.4-0.9l0.3-0.4c0.4,0.2,1.1,0.6,1.4,0.8L233.2,250.1z M233.7,251.2
				c-0.3,0.8-0.8,1.8-1.2,2.6l-0.5-0.3c0.4-0.6,0.9-1.7,1.2-2.6L233.7,251.2z M233.6,248c-0.3-0.2-0.9-0.6-1.3-0.9l0.3-0.4
				c0.4,0.2,1,0.6,1.3,0.9L233.6,248z M234.8,249.2c0,1.4-0.1,3.3-1.1,4.7c-0.1-0.1-0.3-0.2-0.4-0.3c0.9-1.3,1-3.1,1-4.4V247h4.8
				v0.5h-4.3V249.2z M236.1,251.8c-0.3,0.6-0.7,1.2-1,1.6c-0.1-0.1-0.3-0.2-0.4-0.3c0.4-0.4,0.8-1,1-1.5L236.1,251.8z M237.3,251.2
				v2.2c0,0.3-0.1,0.4-0.3,0.5c-0.2,0.1-0.6,0.1-1.1,0.1c0-0.1-0.1-0.3-0.2-0.5c0.4,0,0.8,0,0.8,0c0.1,0,0.1,0,0.1-0.1v-2.1h-1.5
				v-2.7h1.2c0.1-0.3,0.2-0.6,0.2-0.8l0.6,0.1c-0.1,0.2-0.2,0.5-0.3,0.7h1.8v2.7H237.3z M235.8,249.6h2.5v-0.7h-2.5V249.6z
				 M235.8,250.8h2.5V250h-2.5V250.8z M238.3,251.6c0.3,0.5,0.7,1.1,0.9,1.5l-0.5,0.2c-0.2-0.4-0.6-1.1-0.9-1.6L238.3,251.6z"/>
			<path fill="#58595B" d="M241,248.3c0-0.4,0.3-0.6,0.6-0.6s0.6,0.2,0.6,0.6c0,0.3-0.3,0.6-0.6,0.6S241,248.7,241,248.3z
				 M241,252.3c0-0.4,0.3-0.6,0.6-0.6s0.6,0.2,0.6,0.6s-0.3,0.6-0.6,0.6S241,252.6,241,252.3z"/>
			<path fill="#58595B" d="M246.8,249.6c0,0,0,0.2,0,0.2c-0.1,2.7-0.1,3.6-0.3,3.8c-0.1,0.2-0.3,0.2-0.5,0.2c-0.2,0-0.5,0-0.9,0
				c0-0.2-0.1-0.4-0.1-0.5c0.3,0,0.6,0,0.8,0c0.1,0,0.2,0,0.2-0.1c0.1-0.2,0.2-1,0.2-3.3h-1c-0.1,1.5-0.3,2.9-1,3.8
				c-0.1-0.1-0.3-0.3-0.4-0.3c0.8-1.1,0.9-3.1,1-5.1h-0.9v-0.5h3.1v0.5h-1.8c0,0.4,0,0.8,0,1.1H246.8z M245.5,247.8
				c-0.1-0.3-0.3-0.7-0.4-1.1l0.4-0.1c0.2,0.3,0.4,0.8,0.4,1L245.5,247.8z M248,248.2c-0.2,0.5-0.5,1-0.8,1.3
				c-0.1-0.1-0.3-0.3-0.4-0.4c0.6-0.6,1-1.6,1.2-2.6l0.5,0.1c-0.1,0.4-0.2,0.7-0.3,1h2.9v0.5H248z M250.3,253.4
				c0.4,0,0.4-0.2,0.5-0.9c0.1,0.1,0.3,0.2,0.5,0.2c-0.1,0.9-0.2,1.2-0.9,1.2h-1.7c-0.8,0-1-0.2-1-0.8v-2l-0.5,0.2l-0.2-0.4l0.7-0.3
				v-1.3h0.5v1l0.8-0.4v-1.3h0.5v1.1l0.9-0.4l0.1-0.1l0.4,0.1l0,0.1c0,0.9-0.1,2-0.2,2.7l-0.4-0.1c0.1-0.6,0.1-1.4,0.1-2.2l-0.9,0.4
				v2.4H249v-2.2l-0.8,0.4v2.3c0,0.3,0.1,0.4,0.5,0.4H250.3z"/>
			<path fill="#58595B" d="M252.9,252.2c-0.1,0.6-0.2,1.2-0.4,1.6c-0.1,0-0.3-0.1-0.4-0.1c0.2-0.4,0.3-1,0.4-1.5L252.9,252.2z
				 M254.6,250.5c0.3,0.4,0.5,1,0.6,1.4l-0.4,0.2c0-0.1-0.1-0.3-0.1-0.4c-2,0.2-2.3,0.3-2.4,0.3c0-0.1-0.1-0.3-0.2-0.4
				c0.2,0,0.4-0.2,0.6-0.4c0.2-0.1,0.5-0.4,0.9-0.8c-1,0.1-1.2,0.1-1.3,0.2c0-0.1-0.1-0.3-0.2-0.4c0.1,0,0.2-0.1,0.4-0.2
				c0.2-0.1,0.7-0.7,1-1.2h-1.1v-1.7h6.2v1.7h-5.1l0.4,0.2c-0.3,0.4-0.7,0.9-1,1.2l1-0.1c0.2-0.2,0.4-0.4,0.5-0.6l0.4,0.2
				c-0.6,0.7-1.2,1.3-1.9,1.9l1.5-0.1c-0.1-0.2-0.2-0.4-0.3-0.6L254.6,250.5z M253,248.2h1.4v-0.8H253V248.2z M253.7,252.1
				c0.2,0.4,0.3,1,0.3,1.4l-0.4,0.1c0-0.4-0.1-1-0.2-1.4L253.7,252.1z M254.6,252c0.2,0.4,0.5,0.9,0.6,1.3l-0.4,0.1
				c-0.1-0.3-0.3-0.9-0.5-1.3L254.6,252z M254.8,248.2h1.4v-0.8h-1.4V248.2z M259.2,253.6h-3.1v0.3h-0.5v-3.4
				c-0.1,0.2-0.3,0.3-0.4,0.5c-0.1-0.1-0.3-0.2-0.4-0.3c0.5-0.5,1-1.3,1.3-2l0.5,0.1c-0.1,0.3-0.3,0.6-0.4,0.9h1.3
				c-0.1-0.3-0.2-0.6-0.4-0.8l0.4-0.1c0.2,0.3,0.4,0.7,0.5,1h1.1v0.4h-1.3v0.7h1.1v0.4h-1.1v0.7h1.1v0.4h-1.1v0.7h1.4V253.6z
				 M257.3,250.1h-1.2v0.7h1.2V250.1z M257.3,251.3h-1.2v0.7h1.2V251.3z M256.1,253.1h1.2v-0.7h-1.2V253.1z M256.7,248.2h1.4v-0.8
				h-1.4V248.2z"/>
			<path fill="#58595B" d="M262.2,248.5c-0.2,0.4-0.4,0.7-0.7,1.1v4.3H261v-3.6c-0.3,0.4-0.6,0.7-0.9,1c-0.1-0.1-0.2-0.4-0.3-0.5
				c0.7-0.6,1.4-1.5,1.9-2.4L262.2,248.5z M262,246.8c-0.5,0.7-1.2,1.4-1.9,2c-0.1-0.1-0.2-0.3-0.3-0.4c0.6-0.5,1.3-1.2,1.7-1.7
				L262,246.8z M261.8,253.4c0.3-0.4,0.6-1,0.7-1.5l0.4,0.2c-0.2,0.5-0.4,1.1-0.7,1.6L261.8,253.4z M267.2,250.8v0.4h-5.1v-0.4
				H267.2z M264.2,248.3c0-0.2,0.1-0.4,0.1-0.6h-2.1v-0.4h2.2c0-0.2,0.1-0.5,0.1-0.7l0.6,0c0,0.2-0.1,0.4-0.1,0.7h2.3v0.4h-2.4
				c0,0.2-0.1,0.4-0.1,0.6h2.2v2h-4.3v-2H264.2z M263.8,248.7H263v1.1h0.8V248.7z M265.3,253.4c0.3,0,0.3-0.1,0.3-0.8
				c0.1,0.1,0.3,0.1,0.4,0.2c-0.1,0.8-0.2,1-0.7,1h-1.2c-0.6,0-0.8-0.1-0.8-0.6v-1.2h0.5v1.2c0,0.2,0.1,0.2,0.4,0.2H265.3z
				 M264.7,252.5c-0.1-0.3-0.4-0.7-0.6-1l0.4-0.1c0.2,0.3,0.5,0.7,0.6,1L264.7,252.5z M265.1,248.7h-0.9v1.1h0.9V248.7z
				 M265.5,249.9h0.9v-1.1h-0.9V249.9z M266.4,251.8c0.3,0.5,0.7,1.1,0.8,1.5l-0.4,0.2c-0.1-0.4-0.5-1.1-0.8-1.6L266.4,251.8z"/>
			<path fill="#58595B" d="M268.7,251.4c0.6-0.3,1-0.6,1-1.2c0,0-0.1,0-0.2,0c-0.3,0-0.6-0.2-0.6-0.5c0-0.4,0.3-0.5,0.6-0.5
				c0.4,0,0.6,0.3,0.6,0.9c0,0.9-0.5,1.5-1.3,1.8L268.7,251.4z"/>
			<path fill="#58595B" d="M274.3,251.3c0-0.1-0.1-0.3-0.1-0.4c-1.8,0.3-2,0.4-2.2,0.4c0-0.1-0.1-0.4-0.2-0.5c0.2,0,0.3-0.2,0.6-0.5
				c0.1-0.1,0.4-0.5,0.7-0.9c-0.9,0.1-1.1,0.1-1.2,0.2c0-0.1-0.1-0.4-0.2-0.5c0.1,0,0.3-0.2,0.4-0.4c0.2-0.2,0.8-1.2,1.1-2l0.5,0.2
				c-0.4,0.8-0.8,1.6-1.3,2.2l0.9-0.1c0.2-0.4,0.4-0.8,0.6-1.1l0.5,0.3c-0.5,1-1.2,1.9-1.9,2.7l1.4-0.2c-0.1-0.3-0.2-0.6-0.3-0.8
				l0.4-0.1c0.2,0.5,0.5,1.2,0.6,1.6L274.3,251.3z M272.7,251.8c-0.1,0.7-0.2,1.4-0.4,1.9c-0.1-0.1-0.3-0.1-0.4-0.2
				c0.2-0.5,0.3-1.2,0.4-1.8L272.7,251.8z M273.5,251.7c0.1,0.5,0.2,1.2,0.2,1.7l-0.4,0.1c0-0.5-0.1-1.2-0.2-1.7L273.5,251.7z
				 M274.4,253.1c-0.1-0.4-0.3-1-0.4-1.5l0.4-0.1c0.2,0.5,0.4,1.1,0.5,1.5L274.4,253.1z M278.5,253.3c0.2,0,0.2-0.1,0.2-1
				c0.1,0.1,0.3,0.2,0.5,0.2c0,1-0.2,1.3-0.6,1.3h-0.7c-0.5,0-0.7-0.2-0.7-0.7v-2.9l-0.8,0.1c-0.1,1.9-0.3,3-1.7,3.7
				c-0.1-0.1-0.2-0.3-0.3-0.4c1.3-0.5,1.5-1.5,1.5-3.2c-0.6,0.1-0.7,0.1-0.8,0.2c0-0.1-0.1-0.4-0.2-0.5c0.2,0,0.3-0.3,0.6-0.6
				c0.1-0.2,0.4-0.6,0.7-1.2h-1.2v-0.5h1.5c0.2-0.3,0.3-0.7,0.4-1l0.6,0.2c-0.1,0.3-0.3,0.6-0.4,0.8h2.1v0.5h-2.4
				c-0.3,0.6-0.7,1.2-1.1,1.7l2.5-0.3c-0.2-0.3-0.4-0.6-0.6-0.9l0.4-0.2c0.4,0.6,0.9,1.4,1.1,1.9l-0.5,0.2c-0.1-0.2-0.2-0.4-0.3-0.6
				l-0.7,0.1v2.9c0,0.2,0,0.2,0.2,0.2H278.5z"/>
			<path fill="#58595B" d="M283.4,248.4h-3.3V248h3.3V248.4z M280.4,249h2.6v0.4h-2.6V249z M283,250.5h-2.6V250h2.6V250.5z
				 M283,253.4h-2v0.4h-0.5v-2.7h2.5V253.4z M281,251.5v1.4h1.6v-1.4H281z M281.6,247.8c-0.1-0.3-0.4-0.7-0.6-1.1l0.4-0.2
				c0.2,0.3,0.5,0.7,0.6,1L281.6,247.8z M287.2,249.9h-1.7v4H285v-4h-1.6v-0.5h1.6v-2.6h0.5v2.6h1.7V249.9z"/>
			<path fill="#58595B" d="M294.7,249.7c-0.3,0.9-0.7,1.8-1.2,2.6c0.2,0.7,0.5,1,0.9,1c0.2,0,0.3-0.4,0.3-1.3
				c0.1,0.1,0.3,0.2,0.4,0.3c-0.1,1.2-0.3,1.6-0.8,1.6c-0.5,0-0.9-0.4-1.2-1.1c-0.4,0.4-0.8,0.8-1.2,1.2c-0.1-0.1-0.2-0.3-0.4-0.4
				c0.1-0.1,0.2-0.2,0.3-0.2h-2.8v0.4h-0.5v-2.9c-0.1,0.2-0.3,0.3-0.4,0.4c-0.1-0.1-0.3-0.2-0.4-0.3c0.5-0.5,1-1.2,1.3-1.9l0.5,0.1
				c-0.1,0.2-0.2,0.5-0.3,0.7h1.2c-0.1-0.2-0.2-0.5-0.4-0.7l0.4-0.2c0.2,0.2,0.4,0.6,0.5,0.8l0,0h1.1v0.4h-1.2v0.6h1.1v0.4h-1.1v0.6
				h1.1v0.4h-1.1v0.6h1.2v0.4c0.4-0.3,0.7-0.6,1-1c-0.3-0.8-0.4-1.9-0.5-3.2H288v-0.5h1.9v-0.7h-1.5v-0.5h1.5v-0.8h0.5v0.8h1.5v0.5
				h-1.5v0.7h2c0-0.6-0.1-1.3-0.1-2h0.5c0,0.7,0,1.3,0,2h2.2v0.5H293c0.1,1,0.2,1.9,0.4,2.6c0.4-0.6,0.7-1.3,0.9-2.1L294.7,249.7z
				 M290.3,250.4h-1.2v0.6h1.2V250.4z M290.3,251.3h-1.2v0.6h1.2V251.3z M289.2,252.8h1.2v-0.6h-1.2V252.8z M294.5,248.2
				c-0.2-0.3-0.7-0.8-1.2-1.2l0.4-0.3c0.4,0.3,1,0.8,1.2,1.1L294.5,248.2z"/>
			<path fill="#58595B" d="M303.1,253.1v0.5H296v-0.5h3.3v-1.5h-2.6V251h2.6V250h0.5v1.1h2.6v0.5h-2.6v1.5H303.1z M302.3,250.1
				c-0.1-0.2-0.3-0.4-0.5-0.6c-4.4,0.2-4.8,0.2-5.1,0.3c0-0.1-0.1-0.4-0.2-0.5c0.2,0,0.3-0.2,0.6-0.4c0.2-0.2,0.8-0.8,1.3-1.4h-2.2
				v-0.5h6.7v0.5h-3.8c-0.5,0.6-1,1.3-1.6,1.7l3.8-0.2c-0.3-0.3-0.7-0.6-1-0.9l0.4-0.3c0.7,0.5,1.6,1.3,2,1.8L302.3,250.1z"/>
			<path fill="#58595B" d="M303.9,252.9c1.9-1.6,2.7-2.8,2.7-3.8c0-0.7-0.4-1.2-1.1-1.2c-0.5,0-0.9,0.3-1.2,0.7l-0.4-0.4
				c0.5-0.5,1-0.9,1.7-0.9c1,0,1.7,0.7,1.7,1.7c0,1.2-0.9,2.4-2.4,3.7c0.3,0,0.7,0,1,0h1.7v0.6h-3.6V252.9z"/>
			<path fill="#58595B" d="M308.3,250.3c0-2,0.7-3,1.8-3c1.1,0,1.8,1,1.8,3c0,2-0.7,3.1-1.8,3.1C309,253.4,308.3,252.4,308.3,250.3z
				 M311.3,250.3c0-1.7-0.5-2.5-1.2-2.5c-0.7,0-1.2,0.8-1.2,2.5c0,1.7,0.5,2.5,1.2,2.5C310.8,252.9,311.3,252.1,311.3,250.3z"/>
			<path fill="#58595B" d="M313,252.7h1.3v-4.5h-1v-0.4c0.5-0.1,0.9-0.2,1.2-0.4h0.5v5.3h1.2v0.5H313V252.7z"/>
			<path fill="#58595B" d="M317.1,250.3c0-2,0.7-3,1.8-3c1.1,0,1.8,1,1.8,3c0,2-0.7,3.1-1.8,3.1
				C317.8,253.4,317.1,252.4,317.1,250.3z M320.1,250.3c0-1.7-0.5-2.5-1.2-2.5c-0.7,0-1.2,0.8-1.2,2.5c0,1.7,0.5,2.5,1.2,2.5
				C319.6,252.9,320.1,252.1,320.1,250.3z"/>
			<path fill="#58595B" d="M328.7,252h-2.9v1.9h-0.5V252h-3.7v-0.5h1.3v-2.2h2.4v-1.3h-2c-0.4,0.6-0.8,1.2-1.2,1.6
				c-0.1-0.1-0.3-0.3-0.5-0.3c0.8-0.7,1.4-1.7,1.8-2.8l0.5,0.1c-0.1,0.3-0.2,0.6-0.4,0.9h4.8v0.5h-2.6v1.3h2.4v0.5h-2.4v1.7h2.9V252
				z M325.2,251.5v-1.7h-1.9v1.7H325.2z"/>
			<path fill="#58595B" d="M329.8,252.7h1.3v-4.5h-1v-0.4c0.5-0.1,0.9-0.2,1.2-0.4h0.5v5.3h1.2v0.5h-3.2V252.7z"/>
			<path fill="#58595B" d="M333.9,250.3c0-2,0.7-3,1.8-3c1.1,0,1.8,1,1.8,3c0,2-0.7,3.1-1.8,3.1
				C334.6,253.4,333.9,252.4,333.9,250.3z M336.9,250.3c0-1.7-0.5-2.5-1.2-2.5c-0.7,0-1.2,0.8-1.2,2.5c0,1.7,0.5,2.5,1.2,2.5
				C336.4,252.9,336.9,252.1,336.9,250.3z"/>
			<path fill="#58595B" d="M344.4,253.1c0,0.4-0.1,0.6-0.4,0.7c-0.3,0.1-0.8,0.1-1.7,0.1c0-0.2-0.1-0.4-0.2-0.6c0.7,0,1.3,0,1.5,0
				c0.2,0,0.2-0.1,0.2-0.2v-1.7H340c-0.2,0.9-0.6,1.8-1.4,2.5c-0.1-0.1-0.3-0.3-0.4-0.4c1.3-1.2,1.4-2.8,1.4-4.1V247h4.8V253.1z
				 M343.9,250.9v-1.4h-3.7c0,0.4,0,0.9-0.1,1.4H343.9z M340.1,247.6v1.4h3.7v-1.4H340.1z"/>
			<path fill="#58595B" d="M346.3,252.9c1.9-1.6,2.7-2.8,2.7-3.8c0-0.7-0.4-1.2-1.1-1.2c-0.5,0-0.9,0.3-1.2,0.7l-0.4-0.4
				c0.5-0.5,1-0.9,1.7-0.9c1,0,1.7,0.7,1.7,1.7c0,1.2-0.9,2.4-2.4,3.7c0.3,0,0.7,0,1,0h1.7v0.6h-3.6V252.9z"/>
			<path fill="#58595B" d="M350.7,250.3c0-2,0.7-3,1.8-3c1.1,0,1.8,1,1.8,3c0,2-0.7,3.1-1.8,3.1
				C351.4,253.4,350.7,252.4,350.7,250.3z M353.6,250.3c0-1.7-0.5-2.5-1.2-2.5c-0.7,0-1.2,0.8-1.2,2.5c0,1.7,0.5,2.5,1.2,2.5
				C353.2,252.9,353.6,252.1,353.6,250.3z"/>
			<path fill="#58595B" d="M361.3,247.2v6.6h-0.6v-0.5h-4.1v0.5h-0.5v-6.6H361.3z M356.7,247.7v2.2h4.1v-2.2H356.7z M360.7,252.7
				v-2.3h-4.1v2.3H360.7z"/>
		</g>
	</g>
</g>
<g>
</g>
<g>
</g>
<g>
</g>
<g>
</g>
<g>
</g>
<g>
</g>
<g>
</g>
<g>
</g>
<g>
</g>
<g>
</g>
<g>
</g>
<g>
</g>
<g>
</g>
<g>
</g>
<g>
</g>
</svg>
