<?xml version="1.0" encoding="utf-8"?>
<!-- Generator: Adobe Illustrator 18.0.0, SVG Export Plug-In . SVG Version: 6.00 Build 0)  -->
<!DOCTYPE svg PUBLIC "-//W3C//DTD SVG 1.1//EN" "http://www.w3.org/Graphics/SVG/1.1/DTD/svg11.dtd">
<svg version="1.1" id="Layer_1" xmlns="http://www.w3.org/2000/svg" xmlns:xlink="http://www.w3.org/1999/xlink" x="0px" y="0px"
	 viewBox="0 0 70.8 68.5" enable-background="new 0 0 70.8 68.5" xml:space="preserve">
<g>
	<g>
		<polygon fill="#2368B5" points="15.2,44.1 11,14.4 8.2,28.2 7,28 11.2,6.9 14.9,32.5 16,18.9 19.3,27.2 25.8,0 28.9,32.2 
			33.1,16.9 34.8,25.7 38.3,6 43.7,35 49.9,16.3 51.3,25.2 59,12.6 64.7,29.4 63.5,29.8 58.7,15.6 50.6,28.8 49.5,21.7 43.4,40.1 
			38.3,13.1 34.8,32.8 32.9,22.6 28.3,39.2 25.3,7.7 19.6,31.3 16.8,24.4 		"/>
		<g>
			<path fill="#2368B5" d="M2.4,26.1H1.9c-0.4,0-0.6-0.3-0.6-0.6c0-0.4,0.3-0.6,0.6-0.6h0.4c0.4,0,0.6,0.3,0.6,0.6
				C3,25.8,2.7,26.1,2.4,26.1z"/>
			<path fill="#2368B5" d="M65.4,26.1h-0.9c-0.4,0-0.6-0.3-0.6-0.6c0-0.4,0.3-0.6,0.6-0.6h0.9c0.4,0,0.6,0.3,0.6,0.6
				C66,25.8,65.7,26.1,65.4,26.1z M60.1,26.1h-0.9c-0.4,0-0.6-0.3-0.6-0.6c0-0.4,0.3-0.6,0.6-0.6h0.9c0.4,0,0.6,0.3,0.6,0.6
				C60.8,25.8,60.5,26.1,60.1,26.1z M54.9,26.1H54c-0.4,0-0.6-0.3-0.6-0.6c0-0.4,0.3-0.6,0.6-0.6h0.9c0.4,0,0.6,0.3,0.6,0.6
				C55.5,25.8,55.2,26.1,54.9,26.1z M49.6,26.1h-0.9c-0.4,0-0.6-0.3-0.6-0.6c0-0.4,0.3-0.6,0.6-0.6h0.9c0.4,0,0.6,0.3,0.6,0.6
				C50.3,25.8,50,26.1,49.6,26.1z M44.4,26.1h-0.9c-0.4,0-0.6-0.3-0.6-0.6c0-0.4,0.3-0.6,0.6-0.6h0.9c0.4,0,0.6,0.3,0.6,0.6
				C45,25.8,44.7,26.1,44.4,26.1z M39.1,26.1h-0.9c-0.4,0-0.6-0.3-0.6-0.6c0-0.4,0.3-0.6,0.6-0.6h0.9c0.4,0,0.6,0.3,0.6,0.6
				C39.8,25.8,39.5,26.1,39.1,26.1z M33.9,26.1H33c-0.4,0-0.6-0.3-0.6-0.6c0-0.4,0.3-0.6,0.6-0.6h0.9c0.4,0,0.6,0.3,0.6,0.6
				C34.5,25.8,34.2,26.1,33.9,26.1z M28.6,26.1h-0.9c-0.4,0-0.6-0.3-0.6-0.6c0-0.4,0.3-0.6,0.6-0.6h0.9c0.4,0,0.6,0.3,0.6,0.6
				C29.3,25.8,29,26.1,28.6,26.1z M23.4,26.1h-0.9c-0.4,0-0.6-0.3-0.6-0.6c0-0.4,0.3-0.6,0.6-0.6h0.9c0.4,0,0.6,0.3,0.6,0.6
				C24,25.8,23.7,26.1,23.4,26.1z M18.1,26.1h-0.9c-0.4,0-0.6-0.3-0.6-0.6c0-0.4,0.3-0.6,0.6-0.6h0.9c0.4,0,0.6,0.3,0.6,0.6
				C18.8,25.8,18.5,26.1,18.1,26.1z M12.9,26.1H12c-0.4,0-0.6-0.3-0.6-0.6c0-0.4,0.3-0.6,0.6-0.6h0.9c0.4,0,0.6,0.3,0.6,0.6
				C13.5,25.8,13.2,26.1,12.9,26.1z M7.6,26.1H6.7c-0.4,0-0.6-0.3-0.6-0.6c0-0.4,0.3-0.6,0.6-0.6h0.9c0.4,0,0.6,0.3,0.6,0.6
				C8.2,25.8,8,26.1,7.6,26.1z"/>
			<path fill="#2368B5" d="M70.2,26.1h-0.4c-0.4,0-0.6-0.3-0.6-0.6c0-0.4,0.3-0.6,0.6-0.6h0.4c0.4,0,0.6,0.3,0.6,0.6
				C70.8,25.8,70.5,26.1,70.2,26.1z"/>
		</g>
	</g>
	<g>
		<g>
			<g>
				<path fill="#0C56AB" d="M2.3,59.8l2.5-2.3H0.7v-1.5H7v1.4l-2.5,2.2c1.4,0,2.7,1,2.7,2.8c0,1.6-1.3,3-3.4,3
					c-2.1,0-3.4-1.4-3.5-2.9L2,62.2c0,1.1,0.8,1.8,1.8,1.8c1.1,0,1.7-0.7,1.7-1.5c0-1.1-0.8-1.5-1.6-1.5c-0.4,0-0.7,0.1-0.9,0.2
					L2.3,59.8z"/>
			</g>
		</g>
	</g>
</g>
<g>
</g>
<g>
</g>
<g>
</g>
<g>
</g>
<g>
</g>
<g>
</g>
<g>
</g>
<g>
</g>
<g>
</g>
<g>
</g>
<g>
</g>
<g>
</g>
<g>
</g>
<g>
</g>
<g>
</g>
</svg>
