<?xml version="1.0" encoding="utf-8"?>
<!-- Generator: Adobe Illustrator 18.0.0, SVG Export Plug-In . SVG Version: 6.00 Build 0)  -->
<!DOCTYPE svg PUBLIC "-//W3C//DTD SVG 1.1//EN" "http://www.w3.org/Graphics/SVG/1.1/DTD/svg11.dtd">
<svg version="1.1" id="Layer_1" xmlns="http://www.w3.org/2000/svg" xmlns:xlink="http://www.w3.org/1999/xlink" x="0px" y="0px"
	 viewBox="0 0 344.5 294.6" enable-background="new 0 0 344.5 294.6" xml:space="preserve">
<g>
	<g>
		<path fill="#0074B7" d="M155,28.4h-22.9c-2.5,0-4.5-2-4.5-4.5V13.3c0-2.5,2-4.5,4.5-4.5H155c2.5,0,4.5,2,4.5,4.5v10.6
			C159.6,26.4,157.5,28.4,155,28.4z"/>
		<path fill="#0074B7" d="M70.3,100.3H47.4c-2.5,0-4.5-2-4.5-4.5V85.1c0-2.5,2-4.5,4.5-4.5h22.9c2.5,0,4.5,2,4.5,4.5v10.6
			C74.9,98.3,72.8,100.3,70.3,100.3z"/>
		<path fill="#0074B7" d="M90.6,168.7H62.1c-2.7,0-5-2.2-5-5V154c0-2.7,2.2-5,5-5h28.4c2.7,0,5,2.2,5,5v9.7
			C95.6,166.5,93.3,168.7,90.6,168.7z"/>
		<path fill="#0074B7" d="M80.4,133.3H41.8c-3.1,0-5.7-2.6-5.7-5.7v-8.4c0-3.1,2.6-5.7,5.7-5.7h38.6c3.1,0,5.7,2.6,5.7,5.7v8.4
			C86.1,130.7,83.5,133.3,80.4,133.3z"/>
		<path fill="#0074B7" d="M110.7,42.7H87.8c-2.5,0-4.5-2-4.5-4.5V27.5c0-2.5,2-4.5,4.5-4.5h22.9c2.5,0,4.5,2,4.5,4.5v10.6
			C115.3,40.6,113.2,42.7,110.7,42.7z"/>
		<path fill="#0074B7" d="M98,71.7H62.6c-3,0-5.5-2.5-5.5-5.5v-8.8c0-3,2.5-5.5,5.5-5.5H98c3,0,5.5,2.5,5.5,5.5v8.8
			C103.5,69.3,101,71.7,98,71.7z"/>
		<g>
			<path fill="#FFFFFF" d="M137.4,16.4h1.9v0.7h-1.9v0.3c0.5,0.4,1.5,1.5,1.8,1.8l-0.4,0.6c-0.3-0.4-0.9-1-1.4-1.6v4.1h-0.7v-4.1
				c-0.5,1.1-1.2,2.1-1.8,2.8c-0.1-0.2-0.3-0.5-0.4-0.7c0.8-0.7,1.6-2,2-3.2h-1.8v-0.7h2v-1.6c-0.6,0.1-1.2,0.2-1.8,0.3
				c0-0.2-0.1-0.4-0.2-0.6c1.4-0.2,3-0.5,3.9-0.9l0.5,0.5c-0.5,0.2-1.1,0.3-1.7,0.5V16.4z M140.8,19.9h-0.7v-5.2h0.7V19.9z
				 M142.8,13.7v7.5c0,0.5-0.1,0.7-0.4,0.8c-0.3,0.1-0.8,0.1-1.7,0.1c0-0.2-0.2-0.5-0.3-0.7c0.7,0,1.2,0,1.4,0
				c0.2,0,0.2-0.1,0.2-0.2v-7.5H142.8z"/>
			<path fill="#FFFFFF" d="M152.6,20.3h-3.8v2H148v-2h-3.8v-0.7h3.8v-0.8h0.7v0.8h3.8V20.3z M146.7,17.8c-0.7,0.4-1.5,0.8-2.1,1.1
				l-0.4-0.6c0.6-0.2,1.5-0.7,2.3-1.1L146.7,17.8z M149.9,19c0-0.2-0.1-0.3-0.3-0.5c-2.5,0.2-2.8,0.3-3,0.4c0-0.1-0.1-0.4-0.2-0.6
				c0.2,0,0.5-0.2,0.8-0.5c0.2-0.2,0.6-0.5,1-1c-1.1,0.1-1.3,0.1-1.4,0.2c0-0.1-0.1-0.4-0.2-0.6c0.1,0,0.3-0.1,0.4-0.3
				c0.1-0.1,0.4-0.5,0.7-1h-3.4v-0.6h3.8c-0.1-0.2-0.3-0.5-0.4-0.7l0.7-0.2c0.2,0.3,0.4,0.7,0.6,0.9h3.5v0.6h-4
				c-0.3,0.4-0.6,0.8-0.9,1.2l1.2-0.1c0.2-0.2,0.4-0.5,0.6-0.8l0.6,0.3c-0.7,0.9-1.6,1.7-2.4,2.4l1.7-0.1c-0.2-0.2-0.3-0.4-0.5-0.6
				l0.5-0.2c0.4,0.5,0.9,1.1,1.1,1.6L149.9,19z M145,15.5c0.5,0.3,1.1,0.7,1.4,1.1l-0.5,0.4c-0.3-0.3-0.9-0.8-1.4-1.1L145,15.5z
				 M151.9,19c-0.4-0.4-1.2-0.9-1.9-1.3l0.5-0.4c0.6,0.4,1.5,0.9,1.9,1.3L151.9,19z M152,15.8c-0.4,0.4-1,0.9-1.4,1.2l-0.5-0.3
				c0.4-0.3,1-0.8,1.3-1.2L152,15.8z"/>
		</g>
		<g>
			<path fill="#FFFFFF" d="M98.9,34.2h-1v1.7h-0.7v-0.4H95v0.7c0,0.4-0.1,0.6-0.4,0.7c-0.3,0.1-0.8,0.1-1.6,0.1
				c0-0.2-0.2-0.4-0.2-0.6c0.6,0,1.1,0,1.3,0c0.2,0,0.2-0.1,0.2-0.2v-0.7h-3.1v-0.5h3.1v-0.7h-3.9v-0.6h3.9V33h-3v-0.5h3v-0.7h-2.7
				v-1.7h2.7v-0.5h-3.7V29h3.7v-0.8H95V29h3.8v0.6H95v0.5h2.8v1.7H95v0.7h3v1.2h1V34.2z M94.3,31.3v-0.7h-2v0.7H94.3z M95,30.6v0.7
				h2.1v-0.7H95z M95,33.6h2.3V33H95V33.6z M97.3,34.2H95v0.7h2.3V34.2z"/>
			<path fill="#FFFFFF" d="M102.6,28.5c-0.3,0.7-0.6,1.4-0.9,2v6.3H101v-5.3c-0.3,0.4-0.6,0.8-0.9,1.1c-0.1-0.2-0.3-0.5-0.4-0.7
				c0.9-0.9,1.7-2.3,2.2-3.8L102.6,28.5z M108.4,33.6h-2.6v3.3h-0.7v-3.3h-2.7v-0.7h2.7v-2.1h-1.5c-0.2,0.5-0.4,1-0.7,1.4
				c-0.1-0.1-0.4-0.3-0.6-0.4c0.6-0.8,0.9-2,1.2-3.2l0.7,0.1c-0.1,0.4-0.2,0.9-0.3,1.3h1.3v-1.8h0.7v1.8h2.2v0.7h-2.2v2.1h2.6V33.6z
				"/>
		</g>
		<g>
			<path fill="#FFFFFF" d="M63.3,58c-0.2,0.6-0.5,1.3-0.8,1.9v6.6h-0.7V61c-0.3,0.5-0.6,0.9-0.9,1.2c-0.1-0.2-0.3-0.5-0.4-0.7
				c0.9-0.9,1.6-2.3,2.1-3.8L63.3,58z M69.2,59.3v0.6h-6v-0.6H69.2z M63.7,63.4h4.8v3h-0.6v-0.3h-3.5v0.4h-0.6V63.4z M68.4,61.3
				h-4.6v-0.6h4.6V61.3z M63.9,62h4.6v0.6h-4.6V62z M64.4,64v1.5h3.5V64H64.4z M66,59.3c-0.1-0.3-0.4-0.9-0.7-1.3l0.6-0.2
				c0.3,0.4,0.6,0.9,0.7,1.2L66,59.3z"/>
			<path fill="#FFFFFF" d="M78.1,65.5c0,0.5-0.1,0.7-0.4,0.8c-0.3,0.1-0.9,0.1-1.8,0.1c0-0.2-0.1-0.5-0.2-0.7c0.7,0,1.3,0,1.5,0
				c0.2,0,0.3-0.1,0.3-0.2v-1.9h-2.5v2.8h-0.7v-2.8h-2.4c-0.1,1.1-0.5,2.1-1.2,2.9c-0.1-0.1-0.4-0.4-0.5-0.5c1-1.2,1.1-2.8,1.1-4.2
				v-3.4h6.9V65.5z M74.1,62.9v-1.6h-2.3v0.6c0,0.3,0,0.7,0,1H74.1z M71.9,59.1v1.5h2.3v-1.5H71.9z M77.4,59.1h-2.5v1.5h2.5V59.1z
				 M77.4,62.9v-1.6h-2.5v1.6H77.4z"/>
			<path fill="#FFFFFF" d="M83,60h-3.4v-0.6H83V60z M80,60.6h2.7v0.6H80V60.6z M80,61.9h2.7v0.6H80V61.9z M82.7,65.9h-2.1v0.4H80
				v-3.2h2.6V65.9z M80.6,63.7v1.6h1.5v-1.6H80.6z M81.3,59.3c-0.1-0.3-0.4-0.9-0.7-1.3l0.5-0.3c0.3,0.4,0.5,0.9,0.7,1.2L81.3,59.3z
				 M88.2,63H86v3.4h-0.7V63H83v-0.7h2.3V59h-1.9v-0.7h4.7V59h-2v3.4h2.2V63z M84.2,59.5c0.2,0.7,0.5,1.7,0.5,2.3L84.1,62
				c0-0.6-0.2-1.6-0.5-2.3L84.2,59.5z M86.6,61.8c0.2-0.6,0.5-1.7,0.6-2.4l0.7,0.2c-0.2,0.8-0.5,1.8-0.7,2.4L86.6,61.8z"/>
			<path fill="#FFFFFF" d="M90.5,59.1c-0.3,0.4-0.6,0.8-0.9,1.1c-0.1-0.1-0.3-0.4-0.5-0.5c0.6-0.5,1.1-1.2,1.5-2l0.6,0.2
				c-0.1,0.2-0.2,0.4-0.3,0.6h2.4v0.6h-1.8c0.3,0.3,0.7,0.6,0.9,0.9L92,60.3c-0.2-0.3-0.6-0.7-1-1l0.3-0.3H90.5z M95.6,63.5h1.9v0.6
				h-1.9v1.6c0,0.4-0.1,0.6-0.4,0.7c-0.3,0.1-0.9,0.1-1.7,0.1c0-0.2-0.1-0.4-0.2-0.6c0.6,0,1.2,0,1.4,0c0.2,0,0.2-0.1,0.2-0.2v-1.6
				h-5.7v-0.6h5.7v-0.7h0.7V63.5z M97.7,58.5v0.6h-2.1c0.3,0.3,0.7,0.7,0.9,0.9L96,60.4c-0.2-0.3-0.6-0.7-0.9-1l0.4-0.3h-0.9
				c-0.2,0.4-0.5,0.8-0.8,1.1l-0.1-0.1v0.4h3.5v0.6h-3.5V62h2.9v0.6H90V62h3v-0.8h-3.4v-0.6H93V60h0.5c-0.1-0.1-0.2-0.2-0.3-0.2
				c0.5-0.5,0.9-1.3,1.2-2.1l0.7,0.2c-0.1,0.2-0.1,0.4-0.2,0.6H97.7z M91.3,64.2c0.5,0.4,1.2,1,1.6,1.4L92.4,66
				c-0.3-0.4-1-1-1.6-1.4L91.3,64.2z"/>
		</g>
		<g>
			<path fill="#FFFFFF" d="M52.3,91.4c-0.2,0.8-0.5,1.8-0.8,2.4c0.2,0.1,0.4,0.3,0.8,0.5c0.7,0.4,1.5,0.5,2.6,0.5
				c1.2,0,2.7-0.1,3.8-0.2c-0.1,0.2-0.2,0.5-0.2,0.7c-0.7,0-2.5,0.1-3.6,0.1c-1.2,0-2.1-0.1-2.8-0.5c-0.4-0.2-0.7-0.5-0.9-0.5
				c-0.2,0-0.5,0.6-0.8,1.2l-0.5-0.6c0.3-0.5,0.7-0.9,0.9-1.1c0.3-0.5,0.5-1.3,0.7-2h-1.2c0.3-0.6,0.6-1.4,0.8-2.1h-1v-0.6h2
				c-0.2,0.7-0.5,1.5-0.8,2.1h0.6l0.1,0L52.3,91.4z M51,88.6c-0.1-0.4-0.3-1-0.5-1.5l0.6-0.2c0.2,0.5,0.4,1.1,0.5,1.5L51,88.6z
				 M58.5,89.1h-6.2v-0.5h1.8c0.1-0.2,0.2-0.5,0.2-0.7h-1.4v-0.5h1.6c0.1-0.2,0.1-0.4,0.2-0.6l0.7,0.1l-0.2,0.5h2.3v1.2h1V89.1z
				 M55.3,94.5v-0.9h-2.7c0.2-0.4,0.3-0.8,0.4-1.3h-0.6v-0.5h2.9v-0.5H53v-1.7h4.6v1.7H56v0.5h2.3v0.5H56v0.8h2.5v0.5H56v0.9H55.3z
				 M55.3,93.1v-0.8h-1.6c-0.1,0.3-0.2,0.5-0.3,0.8H55.3z M53.7,90.8H57V90h-3.3V90.8z M55,87.9c-0.1,0.2-0.2,0.5-0.2,0.7h2.1v-0.7
				H55z"/>
			<path fill="#FFFFFF" d="M60.7,93c-0.2,0.8-0.4,1.7-0.6,2.3c-0.1-0.1-0.4-0.2-0.6-0.2c0.3-0.6,0.5-1.4,0.6-2.2L60.7,93z
				 M62.8,92.4c0-0.2-0.1-0.3-0.1-0.5c-2.4,0.4-2.8,0.4-3,0.6c0-0.1-0.2-0.5-0.2-0.7c0.2,0,0.4-0.3,0.8-0.6c0.2-0.2,0.5-0.6,1-1.1
				c-1.2,0.1-1.4,0.2-1.6,0.3c0-0.1-0.1-0.5-0.2-0.6c0.2,0,0.4-0.2,0.6-0.5c0.2-0.3,1-1.3,1.5-2.4l0.7,0.3c-0.5,0.9-1.1,1.8-1.7,2.5
				l1.2-0.1c0.3-0.4,0.5-0.8,0.7-1.1l0.6,0.4c-0.7,1-1.5,2.1-2.3,2.9l1.8-0.3c-0.1-0.3-0.2-0.6-0.3-0.9l0.6-0.1
				c0.3,0.6,0.6,1.4,0.7,1.9L62.8,92.4z M61.7,92.8c0.1,0.7,0.3,1.5,0.3,2.1L61.5,95c0-0.6-0.2-1.4-0.3-2.1L61.7,92.8z M62.9,92.6
				c0.2,0.6,0.5,1.3,0.6,1.8l-0.6,0.2c-0.1-0.5-0.3-1.2-0.6-1.8L62.9,92.6z M67.7,89c-0.1,4.2-0.2,5.6-0.6,6.1
				c-0.2,0.3-0.4,0.3-0.8,0.4c-0.3,0-0.9,0-1.4,0c0-0.2-0.1-0.5-0.2-0.7c0.6,0,1.1,0,1.4,0c0.2,0,0.3,0,0.4-0.1
				c0.3-0.3,0.4-1.7,0.5-5.4h-2.7c-0.2,0.5-0.5,1-0.8,1.4c-0.1-0.1-0.4-0.3-0.6-0.4c0.7-0.8,1.2-2.1,1.5-3.4l0.7,0.1
				c-0.1,0.5-0.3,1.1-0.5,1.6h3.2V89z M65.7,92.9c-0.3-0.6-1-1.5-1.6-2.1l0.5-0.4c0.6,0.6,1.4,1.5,1.7,2L65.7,92.9z"/>
		</g>
		<g>
			<path fill="#FFFFFF" d="M51.1,120.1c0,3.5,0,7.4,0.6,7.4c0.1,0,0.2-0.6,0.2-1.4c0.1,0.2,0.3,0.4,0.4,0.5
				c-0.1,1.2-0.2,1.7-0.7,1.7c-1.1,0-1.1-3.3-1.2-7.5h-5.1v2.4c0,1.5-0.2,3.7-1.2,5.1c-0.1-0.1-0.4-0.3-0.6-0.4
				c1-1.3,1.1-3.3,1.1-4.7v-3H51.1z M49.3,125.7c0.5,0.6,1,1.5,1.1,2.1l-0.6,0.2c-0.1-0.2-0.2-0.5-0.3-0.7c-1.6,0.1-3.2,0.2-4.3,0.3
				l0-0.6c0.6,0,1.4-0.1,2.2-0.1v-1.3h-1.6v-2.6h1.6V122h-1.8v-0.6h4.2v0.6h-1.8v0.9h1.7v2.6h-1.7v1.3l1.2-0.1
				c-0.2-0.3-0.3-0.6-0.5-0.8L49.3,125.7z M47.5,124.9v-1.4h-1.1v1.4H47.5z M48.1,123.5v1.4h1.1v-1.4H48.1z"/>
			<path fill="#FFFFFF" d="M55.9,120.3c-0.3,0.8-0.6,1.7-0.9,2.5c0.6,0.8,0.8,1.5,0.8,2c0,0.5-0.1,0.9-0.3,1.1
				c-0.1,0.1-0.3,0.2-0.5,0.2c-0.2,0-0.4,0-0.6,0c0-0.2-0.1-0.4-0.2-0.6c0.2,0,0.4,0,0.5,0c0.1,0,0.2,0,0.3-0.1
				c0.1-0.1,0.2-0.4,0.2-0.7c0-0.5-0.2-1.2-0.8-1.9c0.3-0.7,0.5-1.5,0.7-2.1H54v7.6h-0.6V120h2l0.1,0L55.9,120.3z M57.6,125.6
				c-0.1,0.2-0.2,0.5-0.3,0.7c0.4,0.2,0.8,0.6,1.1,0.8l-0.4,0.5c-0.2-0.2-0.6-0.5-1-0.8c-0.4,0.6-0.9,1.1-1.4,1.5
				c-0.1-0.1-0.3-0.3-0.5-0.5c0.9-0.5,1.5-1.3,1.8-2.3L57.6,125.6z M57.1,121.8c-0.3,0.2-0.7,0.5-1,0.7c-0.1-0.1-0.3-0.4-0.5-0.5
				c1.1-0.6,2.2-1.5,2.7-2.4l0.7,0.2c-0.1,0.1-0.1,0.2-0.2,0.3c0.7,0.7,1.9,1.3,2.9,1.6c-0.1,0.2-0.3,0.5-0.3,0.6
				c-1-0.4-2.1-1.1-2.9-1.8C58.1,121,57.6,121.4,57.1,121.8l2.8,0v0.6h-2.8V121.8z M56.1,123h2.1v2.3h-2.1V123z M56.7,124.8h1v-1.2
				h-1V124.8z M60.2,125.6c-0.1,0.3-0.1,0.6-0.2,0.8c0.6,0.4,1.3,0.9,1.6,1.3l-0.4,0.5c-0.3-0.3-0.9-0.8-1.5-1.2
				c-0.3,0.5-0.7,1-1.1,1.3c-0.1-0.1-0.3-0.4-0.5-0.5c0.8-0.5,1.3-1.3,1.5-2.3L60.2,125.6z M58.8,123H61v2.3h-2.2V123z M59.4,124.8
				h1.1v-1.2h-1.1V124.8z"/>
			<path fill="#FFFFFF" d="M64,124c-0.3-0.3-1-0.9-1.5-1.2l0.4-0.4c0.5,0.3,1.2,0.8,1.5,1.2L64,124z M62.7,127.7
				c0.3-0.7,0.8-2,1.1-3l0.5,0.3c-0.3,1-0.7,2.2-1,3L62.7,127.7z M64.2,121.5c-0.3-0.4-0.9-0.9-1.5-1.3l0.5-0.4
				c0.5,0.4,1.2,0.9,1.5,1.2L64.2,121.5z M71.1,127.3v0.6h-6.7v-0.6h0.9v-2.7h5v2.7H71.1z M67.2,122.9c-0.5,0.6-1.4,1.3-2.2,1.7
				c-0.1-0.2-0.3-0.4-0.4-0.5c0.7-0.3,1.7-0.9,2.1-1.4L67.2,122.9z M64.7,121.7h6.2v0.6h-6.2V121.7z M66.4,121.5
				c-0.2-0.4-0.6-1.1-0.9-1.6l0.6-0.3c0.3,0.5,0.7,1.1,0.9,1.6L66.4,121.5z M65.9,127.3h0.9v-2.1h-0.9V127.3z M67.3,125.1v2.1h0.9
				v-2.1H67.3z M68.6,122.6c0.8,0.4,1.8,1,2.3,1.4l-0.4,0.5c-0.5-0.4-1.5-1.1-2.3-1.5L68.6,122.6z M70,120c-0.3,0.5-0.7,1.2-1,1.5
				l-0.5-0.2c0.3-0.4,0.7-1.1,0.9-1.6L70,120z M68.8,125.1v2.1h0.9v-2.1H68.8z"/>
			<path fill="#FFFFFF" d="M71.9,120.1h3.5v0.6h-1.1v1.2h0.9v6.3h-0.5v-0.5h-2.2v0.7h-0.5v-6.4H73v-1.2h-1.1V120.1z M74.8,127v-2.5
				h0h-0.4c-0.4,0-0.5-0.1-0.5-0.5v-1.5h-0.4v0.8c0,0.6-0.1,1.3-0.6,1.8c0-0.1-0.1-0.2-0.2-0.2v2.2H74.8z M72.6,122.4v2.3
				c0.4-0.5,0.5-1,0.5-1.5v-0.8H72.6z M73,125.5h1.5v0.5H73V125.5z M73.9,120.6h-0.4v1.2h0.4V120.6z M74.8,122.4h-0.5v1.5
				c0,0.1,0,0.1,0.1,0.1h0.3c0,0,0.1,0,0.1,0V122.4z M76.5,119.8h0.6v3.8c0,1.8-0.1,3.4-1.1,4.7c-0.1-0.1-0.3-0.3-0.5-0.4
				c0.7-0.9,1-2.1,1-3.4l-0.5,0.2c-0.1-0.6-0.3-1.5-0.5-2.1l0.4-0.2c0.2,0.7,0.5,1.5,0.5,2.1c0-0.3,0-0.6,0-0.9V119.8z M80.2,119.8
				v8.5h-0.6v-3.8l-0.4,0.2c-0.1-0.5-0.4-1.3-0.6-2v5.4H78v-3.6l-0.4,0.2c-0.1-0.6-0.3-1.4-0.5-2.1l0.4-0.2c0.2,0.6,0.4,1.4,0.5,2
				V120h0.6v2.5l0.3-0.2c0.3,0.5,0.5,1.2,0.7,1.8v-4.2H80.2z"/>
		</g>
		<g>
			<path fill="#FFFFFF" d="M64,157.7c-0.4-0.3-1.1-0.8-1.7-1l0.4-0.5c0.6,0.3,1.4,0.7,1.7,1L64,157.7z M64.8,158.9
				c-0.5,1-1.2,2.2-1.7,3l-0.6-0.5c0.5-0.7,1.2-2,1.8-3L64.8,158.9z M64.3,155.3c-0.3-0.4-1-0.9-1.6-1.2l0.4-0.5
				c0.6,0.3,1.3,0.8,1.6,1.2L64.3,155.3z M65.7,157.9h0.6v1c0,1-0.2,2.3-1.4,3.2c-0.1-0.2-0.3-0.4-0.5-0.5c1.1-0.8,1.2-1.9,1.2-2.7
				V157.9z M65,156.9c0.2,0,0.4-0.3,0.7-0.6c0.2-0.2,0.4-0.5,0.8-1h-1.6v-0.6h2c0.3-0.4,0.5-0.8,0.7-1.2l0.7,0.3
				c-0.2,0.3-0.4,0.6-0.6,0.9h3.1v0.6h-3.5c-0.4,0.5-0.8,1-1.2,1.5l3.2-0.2c-0.2-0.3-0.5-0.6-0.7-0.8l0.5-0.3c0.6,0.6,1.3,1.5,1.7,2
				l-0.6,0.4c-0.1-0.2-0.3-0.4-0.5-0.7c-3.8,0.3-4.3,0.3-4.5,0.4C65.2,157.4,65,157.1,65,156.9z M67.3,158H68v3.7h-0.6V158z
				 M70.4,161.3c0.1,0,0.3,0,0.4,0c0,0.2,0,0.4,0,0.5c-0.1,0-0.3,0-0.5,0h-0.6c-0.6,0-0.7-0.2-0.7-0.9v-3.1h0.7v3.1
				c0,0.3,0,0.4,0.2,0.4H70.4z"/>
			<path fill="#FFFFFF" d="M80.2,155.6c0,0,0,0.3,0,0.4c-0.1,4-0.2,5.3-0.5,5.7c-0.2,0.2-0.3,0.3-0.6,0.3c-0.3,0-0.7,0-1.1,0
				c0-0.2-0.1-0.5-0.2-0.7c0.5,0,0.9,0,1.1,0c0.2,0,0.2,0,0.3-0.2c0.2-0.3,0.3-1.5,0.4-5h-1.4c-0.1,2.5-0.5,4.6-2.2,5.8
				c-0.1-0.2-0.3-0.4-0.5-0.5c0.2-0.1,0.3-0.2,0.4-0.3c-1.4,0.2-2.9,0.3-4,0.4l-0.1-0.6c0.6,0,1.3-0.1,2.1-0.2v-0.8H72v-0.5h1.8V159
				H72v-2.8h1.8v-0.6h-2v-0.5h2v-0.6c-0.6,0-1.2,0.1-1.8,0.1c0-0.2-0.1-0.4-0.2-0.5c1.4-0.1,3.1-0.2,4.1-0.5l0.3,0.5
				c-0.5,0.1-1.2,0.2-1.8,0.3v0.7h2v0.5h-2v0.6h1.8v2.8h-1.8v0.6h1.9v0.5h-1.9v0.7c0.6-0.1,1.3-0.1,1.9-0.2v0
				c0.8-1.1,1.1-2.6,1.2-4.4h-1.1v-0.7h1.1c0-0.7,0-1.4,0-2.1h0.7c0,0.7,0,1.4,0,2.1H80.2z M72.6,157.4h1.2v-0.7h-1.2V157.4z
				 M73.8,158.5v-0.7h-1.2v0.7H73.8z M74.4,156.7v0.7h1.2v-0.7H74.4z M75.7,157.8h-1.2v0.7h1.2V157.8z"/>
			<path fill="#FFFFFF" d="M81.1,157.7c0.3-0.6,0.4-1.7,0.5-2.4l0.5,0.1c0,0.8-0.2,1.8-0.5,2.5L81.1,157.7z M82.4,153.5h0.7v8.6
				h-0.7V153.5z M83.7,155c0.3,0.5,0.6,1.2,0.7,1.6l-0.5,0.3c-0.1-0.4-0.4-1.1-0.7-1.6L83.7,155z M89.7,161.1v0.7h-5.8v-0.7h2.7
				v-2.4h-2v-0.7h2v-2h-1.4c-0.2,0.6-0.4,1.1-0.7,1.5c-0.1-0.1-0.5-0.2-0.6-0.3c0.5-0.8,0.9-2.1,1.1-3.4l0.7,0.1
				c-0.1,0.5-0.2,1-0.3,1.4h1.2v-2h0.7v2h2.1v0.7h-2.1v2h1.9v0.7h-1.9v2.4H89.7z"/>
		</g>
	</g>
	<g>
		<defs>
			<path id="SVGID_1_" d="M344.5,173.9C203.7,175.1,92,192.9,0,222L0,0h344.5L344.5,173.9z"/>
		</defs>
		<clipPath id="SVGID_2_">
			<use xlink:href="#SVGID_1_"  overflow="visible"/>
		</clipPath>
		<g clip-path="url(#SVGID_2_)">
			<path fill="#032360" d="M225,67.5c0,0,5.7,53.1-6.8,65.3c-12.4,12.2-40.8-5-40.8-5l-9.7,3c12.5,19,36.1,29.8,50.3,28
				c28-3.5,43.3-38.6,44.6-64.2L225,67.5z"/>
			<g>
				<path fill="#E6E7E8" d="M177.4,127.8l-4-11.1c0,0-17.3,4.5-17,5.1c0.3,0.6,11.3,8.9,11.3,8.9L177.4,127.8z"/>
				<polygon fill="#E6E7E8" points="173.4,116.8 172.8,112.9 173.6,109.3 171.9,109.1 169.9,112.3 169.9,114.5 154.2,116.7 
					156.4,121.9 169.1,123.8 				"/>
				<polygon fill="#E6E7E8" points="169.9,114.5 163.7,109.2 162.1,102.1 159.4,102.3 160.5,109.4 164.3,115.6 				"/>
				<polygon fill="#E6E7E8" points="164.3,115.6 158.6,108.6 158.2,100.5 156,100.2 155.3,108.8 161.1,117.4 				"/>
				<polygon fill="#E6E7E8" points="154.2,116.7 150.9,112.6 152.9,106.7 154.5,108.5 153.4,112.6 157.5,116.6 				"/>
				<polygon fill="#E6E7E8" points="157.3,117.4 153,110.9 154.3,104.7 156.6,106 155.5,111.3 161.3,115.8 				"/>
			</g>
			<g>
				<rect x="109.6" y="114.8" fill="#032360" width="73.4" height="4.7"/>
				<rect x="113.7" y="111.2" fill="#032360" width="65.1" height="4.7"/>
				<g>
					
						<rect x="113.8" y="53.7" transform="matrix(0.9765 -0.2156 0.2156 0.9765 -8.3945 32.8302)" fill="#032360" width="65.1" height="2.4"/>
					<rect x="144.7" y="50.9" fill="#032360" width="3.2" height="61.3"/>
					<circle fill="#032360" cx="114.6" cy="62" r="3"/>
					<circle fill="#032360" cx="177.8" cy="47.9" r="3"/>
					<path fill="#032360" d="M122.7,85.7h-16.1l8-24.7L122.7,85.7z M107.5,85h14.4l-7.3-22L107.5,85z"/>
					<path fill="#032360" d="M186,71.4h-16.1l8-24.7L186,71.4z M170.7,70.8h14.4l-7.3-22L170.7,70.8z"/>
					<path fill="#032360" d="M125.7,85.1c0,5.9-4.8,10.8-10.8,10.8s-10.8-4.8-10.8-10.8H125.7z"/>
					<path fill="#032360" d="M188.4,71.1c0,5.9-4.8,10.8-10.8,10.8c-5.9,0-10.8-4.8-10.8-10.8H188.4z"/>
					<rect x="114.2" y="62" fill="#032360" width="0.6" height="26"/>
					<rect x="177.5" y="49.8" fill="#032360" width="0.6" height="26"/>
					<circle fill="#032360" cx="146.3" cy="54.9" r="6.4"/>
				</g>
			</g>
			<g>
				<polygon fill="#E6E7E8" points="196.4,26.4 194.6,35.6 202.2,68.8 211.3,62.1 217.2,69.9 245.6,55.2 221.3,26.4 				"/>
				<path fill="#032360" d="M230.8,36.8c0.1-4.7-3.2-14.9-14.7-15.8s-19.9,4.6-24.3,2.8c0,0,3.6,5.5,13.4,4.9
					c9.7-0.6,18.7,7.3,18.2,8.4L230.8,36.8z"/>
				<polygon fill="#E6E7E8" points="196.7,43.4 195.3,53.7 200.3,53.1 				"/>
				<path fill="#E6E7E8" d="M222.9,37.6c0.7-2.1,3.4-2.7,4.7-1c1.2,1.6,1.6,5.7-0.1,5.9c-1.7,0.2-2.7-0.6-2.7-0.6"/>
			</g>
			<path fill="#032360" d="M249,52.4c-19.8,3-39.3,21.9-39.3,21.9s9,134.1-1.4,154.9l108-14.5C316.3,214.7,289.7,65.1,249,52.4z"/>
			<path fill="#032360" d="M209.7,74.3c0,0-1.3,62.5-17.6,74.9s-46.7-11.8-46.7-11.8l-11.7,2c11.7,23.9,37.5,40,54.2,40
				c33.1,0.1,56.1-38.4,61.4-68L209.7,74.3z"/>
			<path fill="#032360" d="M297.6,214.2l-45.7,78.9c0,0-26.5-0.5-27-2.1c-0.5-1.6-7.9-67.5-7.9-67.5L297.6,214.2z"/>
			<path fill="#032360" d="M304.3,212.1c-0.5,14.5,10.4,82.5,10.4,82.5l-45.2-4.2l-44.6-76.8L304.3,212.1z"/>
			<g>
				<path fill="#E6E7E8" d="M145.5,137.3l-3-13.5c0,0-20.7,2.7-20.5,3.5c0.3,0.8,11.8,12,11.8,12L145.5,137.3z"/>
				<polygon fill="#E6E7E8" points="142.5,123.9 145.8,120.9 146.5,116.8 144.6,116.2 142.2,119.4 138.8,120.8 120.2,121 
					122.1,127.3 136.5,131.5 				"/>
				<polygon fill="#E6E7E8" points="138.8,120.8 132.3,113.7 131.5,105.2 128.5,105 128.6,113.4 132.2,121.1 				"/>
				<polygon fill="#E6E7E8" points="132.2,121.1 126.5,112.3 127.3,102.7 124.7,102.1 122.6,111.9 128.1,122.7 				"/>
				<polygon fill="#E6E7E8" points="120.2,121 117,115.7 120.2,109.2 121.8,111.4 119.9,116.1 124.1,121.3 				"/>
				<polygon fill="#E6E7E8" points="123.8,122.2 119.6,114.1 122.2,107.1 124.6,108.9 122.5,114.9 128.6,121 				"/>
			</g>
			<g>
				<path fill="#0C56AB" d="M164.2,148.6c0,0,0.8,0.3,2.2,0.7c1.4,0.5,3.4,1.1,5.8,1.8c2.4,0.6,5.3,1.2,8.4,1.3
					c3.1,0.1,6.4-0.6,9.2-2.3c1.4-0.8,2.7-1.9,3.8-3c1.1-1.1,2.1-2.4,2.9-3.7c0.8-1.3,1.6-2.6,2.2-3.9c0.6-1.3,1.1-2.5,1.6-3.7
					c0.4-1.2,0.9-2.2,1.2-3.2c0.3-1,0.6-1.8,0.8-2.5c0.4-1.4,0.7-2.2,0.7-2.2s-0.2,0.8-0.5,2.3c-0.1,0.7-0.4,1.6-0.6,2.6
					c-0.2,1-0.6,2.1-1,3.3c-0.4,1.2-0.9,2.5-1.5,3.8c-0.6,1.3-1.3,2.7-2.1,4.1c-0.9,1.3-1.8,2.7-3,3.9c-1.2,1.2-2.5,2.4-4,3.2
					c-1.5,0.9-3.1,1.5-4.8,1.9c-1.7,0.4-3.3,0.5-4.9,0.5c-3.2-0.1-6.1-0.9-8.5-1.6c-2.4-0.8-4.4-1.6-5.7-2.1
					C165,149,164.2,148.6,164.2,148.6z"/>
			</g>
			<g>
				<path fill="#0C56AB" d="M208.3,174.4c0,0,0.8-0.5,2.3-1.5c0.7-0.5,1.5-1.1,2.5-1.8c0.9-0.7,2-1.6,3.1-2.5c1.1-1,2.3-2,3.4-3.2
					c1.2-1.1,2.4-2.4,3.6-3.7c1.2-1.3,2.5-2.7,3.7-4.2c0.6-0.7,1.2-1.5,1.8-2.2c0.6-0.8,1.2-1.5,1.7-2.3c0.6-0.8,1.2-1.5,1.7-2.3
					c0.5-0.8,1.1-1.6,1.6-2.3c1-1.6,2.1-3.1,3-4.7c0.5-0.8,0.9-1.6,1.4-2.3c0.4-0.8,0.8-1.5,1.2-2.2c0.8-1.5,1.5-2.9,2.1-4.2
					c0.7-1.3,1.1-2.5,1.6-3.6c0.2-0.5,0.5-1.1,0.7-1.5c0.2-0.5,0.3-0.9,0.5-1.3c0.6-1.6,1-2.5,1-2.5s-0.1,1-0.4,2.7
					c-0.1,0.4-0.2,0.9-0.2,1.4c-0.1,0.5-0.3,1.1-0.4,1.6c-0.3,1.2-0.6,2.5-1.1,3.9c-0.5,1.4-1,3-1.7,4.5c-0.3,0.8-0.7,1.6-1,2.4
					c-0.4,0.8-0.8,1.6-1.3,2.4c-0.4,0.8-0.9,1.7-1.4,2.5c-0.5,0.8-1,1.7-1.5,2.5c-0.5,0.8-1.1,1.6-1.7,2.5c-0.5,0.8-1.1,1.6-1.7,2.4
					c-0.6,0.8-1.2,1.6-1.8,2.4c-0.6,0.8-1.3,1.5-1.9,2.3c-0.6,0.8-1.3,1.5-2,2.1c-0.7,0.7-1.3,1.4-2,2c-1.4,1.3-2.7,2.5-4,3.6
					c-1.3,1.1-2.7,2-3.9,2.9c-1.2,0.8-2.4,1.5-3.5,2.1c-1.1,0.6-2,1-2.8,1.4C209.3,174.1,208.3,174.4,208.3,174.4z"/>
			</g>
			<g>
				<path fill="#0C56AB" d="M290,228.8c0,0,0,0.3-0.1,0.8c0,0.6-0.2,1.3-0.4,2.4c-0.2,1-0.6,2.2-1.1,3.6c-0.5,1.4-1.1,2.9-1.8,4.5
					c-0.7,1.6-1.6,3.4-2.5,5.1c-1,1.8-2,3.7-3.1,5.6c-1.1,1.9-2.3,3.9-3.6,5.8c-1.3,1.9-2.6,3.9-3.9,5.8c-1.3,1.9-2.7,3.8-4,5.7
					c-1.3,1.9-2.7,3.7-4,5.5c-2.6,3.5-5,6.8-7.1,9.6c-1,1.4-2,2.7-2.8,3.9c-0.8,1.2-1.5,2.2-2.1,3.1c-0.5,0.9-1,1.6-1.2,2
					c-0.3,0.5-0.4,0.8-0.4,0.8s0.1-0.3,0.2-0.8c0.1-0.3,0.2-0.6,0.3-1c0.1-0.4,0.3-0.8,0.5-1.3c0.4-1,0.9-2.1,1.6-3.4
					c0.7-1.3,1.4-2.7,2.3-4.2c0.9-1.5,1.9-3.2,3-4.9c1.1-1.7,2.2-3.5,3.4-5.3c1.2-1.8,2.5-3.7,3.8-5.6c1.3-1.9,2.6-3.8,3.9-5.8
					c1.3-1.9,2.6-3.9,3.9-5.8c1.3-1.9,2.5-3.8,3.8-5.6c1.2-1.8,2.4-3.6,3.4-5.3c1.1-1.7,2.1-3.3,2.9-4.8c0.9-1.5,1.6-2.9,2.3-4.2
					c0.6-1.3,1.2-2.4,1.5-3.3c0.4-0.9,0.7-1.7,0.8-2.2C289.9,229.1,290,228.8,290,228.8z"/>
			</g>
		</g>
	</g>
</g>
<g>
</g>
<g>
</g>
<g>
</g>
<g>
</g>
<g>
</g>
<g>
</g>
<g>
</g>
<g>
</g>
<g>
</g>
<g>
</g>
<g>
</g>
<g>
</g>
<g>
</g>
<g>
</g>
<g>
</g>
</svg>
