<?xml version="1.0" encoding="utf-8"?>
<!-- Generator: Adobe Illustrator 18.0.0, SVG Export Plug-In . SVG Version: 6.00 Build 0)  -->
<!DOCTYPE svg PUBLIC "-//W3C//DTD SVG 1.1//EN" "http://www.w3.org/Graphics/SVG/1.1/DTD/svg11.dtd">
<svg version="1.1" id="Layer_1" xmlns="http://www.w3.org/2000/svg" xmlns:xlink="http://www.w3.org/1999/xlink" x="0px" y="0px"
	 viewBox="0 0 1100 4906.4" enable-background="new 0 0 1100 4906.4" xml:space="preserve">
<g>
	<g>
		<g>
			<path fill="#7F3F98" d="M97,1325.6v4.7H60.7v-4.7h15.4v-7.8H64.6v-4.7h11.5v-7H62.4v-4.7h16.2c-1.7-1.7-4.1-3.5-6.1-4.9l4-2.8
				c2.6,1.7,6.1,4.3,7.8,6.1l-2.1,1.6H95v4.7H81.4v7h11.6v4.7H81.4v7.8H97z"/>
			<path fill="#7F3F98" d="M96.8,1351.6c0,0,0,1.6,0,2.1c-0.4,16.5-0.7,22.3-2,24.1c-0.9,1.3-1.9,1.8-3.3,2c-1.3,0.2-3.1,0.2-5,0.2
				c0-1.3-0.6-3.2-1.4-4.5c1.8,0.2,3.4,0.2,4.2,0.2c0.6,0,1-0.1,1.4-0.7c0.9-1.1,1.3-6.1,1.5-19h-3.6c-0.5,11.1-2.3,19.4-9.2,24.8
				c-0.6-1.1-1.9-2.5-3-3.4c-5.7,0.6-11.5,1.2-15.8,1.6l-0.6-4.1c2.2-0.2,5.1-0.4,8.2-0.6v-2.4H61v-3.4h7.1v-1.5h-7v-12.6h7v-1.6h-8
				v-3.5h8v-1.5c-2.4,0.2-4.7,0.3-7,0.4c-0.1-1-0.6-2.5-1-3.4c6-0.3,13-1.1,17.5-2.1l2.2,3.6c-2.2,0.5-4.7,0.9-7.4,1.2v1.9h7.7v2.2
				H84c0-2.6,0-5.4,0-8.4h4.6c0,3,0,5.8-0.1,8.4H96.8z M64.9,1359.3h3.2v-1.8h-3.2V1359.3z M68.1,1364v-1.9h-3.2v1.9H68.1z
				 M72.4,1374c2.3-0.2,4.7-0.4,7.1-0.6c3.1-4.4,4.1-10.1,4.4-17.4h-3.7v-3.2h-7.7v1.6h7.2v12.6h-7.2v1.5H80v3.4h-7.5V1374z
				 M75.7,1359.3v-1.8h-3.2v1.8H75.7z M72.4,1362.1v1.9h3.2v-1.9H72.4z"/>
			<path fill="#7F3F98" d="M85.9,1402.6c0.9,11.8,3.3,21.2,6.3,21.2c0.9,0,1.3-2.1,1.5-7.3c1.1,1.1,2.9,2.3,4.2,2.8
				c-0.7,7.7-2.4,9.5-6.2,9.5c-6.9,0-10-12-10.9-26.3H60.7v-4.7h19.9c-0.1-2.2-0.1-4.5-0.1-6.7h5.2c0,2.2,0,4.5,0,6.7h6.4
				c-1.1-1.4-3.1-3-4.7-4.3l3.2-2.6c1.8,1.3,4.2,3.2,5.3,4.5l-2.8,2.4h3.8v4.7H85.9z M73.1,1420.8c2.5-0.4,5.1-0.9,7.5-1.4l0.4,4.3
				c-6.6,1.5-13.8,3-19,4.1l-1.3-4.9c2.1-0.3,4.7-0.7,7.7-1.2v-9.8h-6.1v-4.7h17.4v4.7h-6.5V1420.8z"/>
			<path fill="#7F3F98" d="M69.7,1462.4v9.6c0,2.3-0.4,3.5-1.8,4.2c-1.3,0.8-3.3,0.9-6.1,0.9c-0.2-1.3-0.8-3.2-1.4-4.4
				c1.6,0,3.3,0,3.8,0c0.6,0,0.8-0.2,0.8-0.8v-8.4l-4.1,1.1l-1.3-4.6c1.5-0.3,3.4-0.7,5.3-1.2v-7.1h-4.8v-4.5H65v-7.7h4.7v7.7H74
				v4.5h-4.3v6l3-0.7l0.6,4.4L69.7,1462.4z M95.3,1458.2c-1.5,4.9-3.8,8.8-6.9,11.7c2.7,1.4,5.9,2.4,9.4,3.1c-1,1.1-2.3,3.1-3,4.5
				c-4-1-7.5-2.4-10.5-4.4c-3.2,1.9-6.9,3.4-11,4.3c-0.5-1.3-1.5-3.3-2.4-4.4c3.4-0.6,6.6-1.7,9.4-3.1c-2.2-2.2-4.1-4.8-5.6-7.8
				l1.5-0.5h-2.3v-4.5h17.6l0.9-0.2L95.3,1458.2z M75.1,1456.6c-0.6-0.9-2.3-2.8-3.2-3.4c4.8-2.2,5.4-5.1,5.4-7.9v-4.3h14.3v8.8
				c0,1.2,0,1.7,0.6,1.7h2.2c0.7,0,1.7-0.1,2.3-0.3c0.1,1.2,0.2,2.9,0.4,4c-0.6,0.2-1.6,0.3-2.6,0.3h-2.7c-4,0-4.8-1.7-4.8-5.8v-4.3
				l-5.2,0C81.8,1449.5,80.6,1453.9,75.1,1456.6z M79.3,1461.6c1.2,2.1,2.9,4.1,5,5.7c1.9-1.5,3.5-3.5,4.7-5.7H79.3z"/>
			<path fill="#7F3F98" d="M85.6,1495.4c2.2,2.1,6.5,3.2,12,3.4c-1,0.9-2.1,2.7-2.7,3.8c-4.5-0.6-8.1-1.9-10.6-4.1
				c-1.5,1.8-4.9,3.4-11.7,4.1c-0.3-0.8-1-1.8-1.6-2.6H60.2v-3.7h12.2v2.5c7.7-0.8,8.8-2.6,8.8-4.1v-0.6h-2.4
				c-0.9,1.3-1.8,2.6-2.8,3.5c-0.8-0.7-2.6-1.9-3.6-2.5c2.1-1.8,3.8-4.5,4.7-7.2l4.2,0.9c-0.2,0.6-0.4,1.2-0.7,1.8h11.5l0.7-0.2
				l3.3,1c-1.1,2.2-2.4,4.8-3.7,6.4l-3.7-1.4c0.4-0.6,1-1.5,1.4-2.3h-4.5v0.8V1495.4z M86.7,1519.3c3.7,1.4,7.7,3,10.1,4.2l-4.3,2.6
				c-2.3-1.3-6.5-3.3-10.5-4.8l2.5-2H73l3.5,1.6c-3.3,2.1-8.5,4.1-12.6,5.3c-0.8-0.9-2.5-2.7-3.6-3.5c3.9-0.7,8.2-1.9,11.1-3.4h-5.8
				v-16.4h27.1v16.4H86.7z M71.5,1493.7H61.2v-3.5h10.4V1493.7z M70.2,1507.4h17.5v-1.7H70.2V1507.4z M70.2,1511.9h17.5v-1.7H70.2
				V1511.9z M70.2,1516.4h17.5v-1.8H70.2V1516.4z"/>
		</g>
	</g>
	<g>
		<path fill="#7F58A5" d="M104.2,876.9c-2-3.2-3.1-7-3.1-10.8c0-11.3,9.2-20.4,20.4-20.4h47.3v1h-47.3c-10.7,0-19.4,8.7-19.4,19.4
			c0,3.7,1,7.2,2.9,10.3L104.2,876.9z"/>
		<path fill="#7F58A5" d="M197.1,886.5h-68.5v-1h68.5c10.7,0,19.4-8.7,19.4-19.4s-8.7-19.4-19.4-19.4h-9v-1h9
			c11.3,0,20.4,9.2,20.4,20.4S208.3,886.5,197.1,886.5z"/>
		<g>
			<g>
				<path fill="#9C8FC4" d="M129.5,863.6c-0.1-0.2-0.1-0.8-0.1-1.2c0-3.1,2.3-5.9,6.4-5.9c3.9,0,6.3,2.6,6.3,5.6
					c0,2.3-1.2,4.1-3.4,5.4l-3.4,2.1c-0.7,0.4-1.2,0.9-1.5,1.6h8.4v3.2h-13c0-3.1,1-5.6,4.1-7.5l2.9-1.7c1.5-0.9,2.1-1.8,2.1-3
					c0-1.3-0.9-2.4-2.6-2.4c-1.9,0-2.8,1.3-2.8,2.9c0,0.3,0.1,0.7,0.1,1L129.5,863.6z"/>
				<path fill="#9C8FC4" d="M145.7,859.4c1.2-1.7,3-2.9,5.8-2.9s4.6,1.2,5.8,2.9c1.2,1.8,1.6,4,1.6,6.2c0,2.2-0.4,4.4-1.6,6.2
					c-1.1,1.7-3,2.9-5.8,2.9s-4.6-1.2-5.8-2.9c-1.2-1.8-1.5-4-1.5-6.2C144.1,863.4,144.5,861.2,145.7,859.4z M148.8,870.1
					c0.5,0.9,1.4,1.4,2.6,1.4c1.3,0,2.1-0.6,2.6-1.4c0.7-1.1,1-2.6,1-4.5c0-1.8-0.3-3.4-1-4.5c-0.5-0.9-1.3-1.4-2.6-1.4
					c-1.3,0-2.1,0.6-2.6,1.4c-0.7,1.1-0.9,2.6-0.9,4.5C147.9,867.5,148.1,869.1,148.8,870.1z"/>
				<path fill="#9C8FC4" d="M162.5,859.4c1.2-1.7,3-2.9,5.8-2.9c2.7,0,4.6,1.2,5.7,2.9c1.2,1.8,1.6,4,1.6,6.2c0,2.2-0.4,4.4-1.6,6.2
					c-1.1,1.7-3,2.9-5.7,2.9c-2.7,0-4.6-1.2-5.8-2.9c-1.2-1.8-1.5-4-1.5-6.2C160.9,863.4,161.3,861.2,162.5,859.4z M165.6,870.1
					c0.5,0.9,1.4,1.4,2.6,1.4c1.3,0,2.1-0.6,2.6-1.4c0.7-1.1,1-2.6,1-4.5c0-1.8-0.3-3.4-1-4.5c-0.5-0.9-1.3-1.4-2.6-1.4
					c-1.3,0-2.1,0.6-2.6,1.4c-0.7,1.1-0.9,2.6-0.9,4.5C164.7,867.5,164.9,869.1,165.6,870.1z"/>
				<path fill="#9C8FC4" d="M190.1,860c-1.3,1.1-6.2,5.6-7,14.4h-3.9c0.7-9.4,6.6-14.3,6.6-14.3h-9v-3.2h13.3V860z"/>
			</g>
		</g>
	</g>
	<g>
		<path fill="#7F58A5" d="M343.6,880.5c-3.9-3.9-6-9-6-14.4c0-8,4.7-15.3,11.9-18.6l0.4,0.9c-6.9,3.2-11.3,10.1-11.3,17.7
			c0,5.2,2,10.1,5.7,13.7L343.6,880.5z"/>
		<path fill="#7F58A5" d="M433.5,886.5h-80.1v-1h80.1c10.7,0,19.4-8.7,19.4-19.4s-8.7-19.4-19.4-19.4h-60.7v-1h60.7
			c11.3,0,20.4,9.2,20.4,20.4S444.8,886.5,433.5,886.5z"/>
		<g>
			<path fill="#7F58A5" d="M366,863.8c-0.1-0.2-0.1-0.8-0.1-1.2c0-3.1,2.3-5.9,6.4-5.9c3.9,0,6.3,2.6,6.3,5.6c0,2.3-1.2,4.1-3.4,5.4
				l-3.4,2.1c-0.7,0.4-1.2,0.9-1.5,1.6h8.4v3.2h-13c0-3.1,1-5.6,4.1-7.5l2.9-1.7c1.5-0.9,2.1-1.8,2.1-3c0-1.3-0.9-2.4-2.6-2.4
				c-1.9,0-2.8,1.3-2.8,2.9c0,0.3,0.1,0.7,0.1,1L366,863.8z"/>
			<path fill="#7F58A5" d="M382.1,859.7c1.2-1.7,3-2.9,5.8-2.9c2.7,0,4.6,1.2,5.7,2.9c1.2,1.8,1.6,4,1.6,6.2c0,2.2-0.4,4.4-1.6,6.2
				c-1.1,1.7-3,2.9-5.7,2.9c-2.7,0-4.6-1.2-5.8-2.9c-1.2-1.8-1.5-4-1.5-6.2C380.6,863.6,381,861.5,382.1,859.7z M385.3,870.3
				c0.5,0.9,1.4,1.4,2.6,1.4c1.3,0,2.1-0.6,2.6-1.4c0.7-1.1,1-2.6,1-4.5c0-1.8-0.3-3.4-1-4.5c-0.5-0.9-1.3-1.4-2.6-1.4
				c-1.3,0-2.1,0.6-2.6,1.4c-0.7,1.1-0.9,2.6-0.9,4.5C384.3,867.7,384.6,869.3,385.3,870.3z"/>
			<path fill="#7F58A5" d="M398.9,859.7c1.2-1.7,3-2.9,5.8-2.9c2.7,0,4.6,1.2,5.7,2.9c1.2,1.8,1.6,4,1.6,6.2c0,2.2-0.4,4.4-1.6,6.2
				c-1.1,1.7-3,2.9-5.7,2.9c-2.7,0-4.6-1.2-5.8-2.9c-1.2-1.8-1.5-4-1.5-6.2C397.4,863.6,397.8,861.5,398.9,859.7z M402.1,870.3
				c0.5,0.9,1.4,1.4,2.6,1.4c1.3,0,2.1-0.6,2.6-1.4c0.7-1.1,1-2.6,1-4.5c0-1.8-0.3-3.4-1-4.5c-0.5-0.9-1.3-1.4-2.6-1.4
				c-1.3,0-2.1,0.6-2.6,1.4c-0.7,1.1-0.9,2.6-0.9,4.5C401.1,867.7,401.4,869.3,402.1,870.3z"/>
			<path fill="#7F58A5" d="M414.1,869.9c0-1.9,1.2-3.6,3.1-4.3c-1.8-0.6-2.8-2.3-2.8-3.9c0-2.9,2.6-5,6.3-5s6.3,2.1,6.3,5
				c0,1.5-1,3.3-2.7,3.9c1.8,0.7,3.1,2.4,3.1,4.3c0,3-2.6,5.1-6.6,5.1C416.7,875,414.1,872.9,414.1,869.9z M423.6,869.5
				c0-1.3-1-2.5-3-2.5c-2,0-2.9,1.2-2.9,2.5c0,1.2,1,2.4,2.9,2.4C422.6,872,423.6,870.8,423.6,869.5z M423.3,862
				c0-1.2-0.9-2.2-2.6-2.2c-1.6,0-2.6,1.1-2.6,2.2c0,1.2,0.9,2.3,2.6,2.3C422.3,864.3,423.3,863.2,423.3,862z"/>
		</g>
	</g>
	<g>
		<path fill="#7F58A5" d="M602.6,886.5h-8.2c-11.3,0-20.4-9.2-20.4-20.4s9.2-20.4,20.4-20.4h37.8v1h-37.8
			c-10.7,0-19.4,8.7-19.4,19.4s8.7,19.4,19.4,19.4h8.2V886.5z"/>
		<path fill="#7F58A5" d="M670,886.5h-29v-1h29c10.7,0,19.4-8.7,19.4-19.4s-8.7-19.4-19.4-19.4h-12.5v-1H670
			c11.3,0,20.4,9.2,20.4,20.4S681.3,886.5,670,886.5z"/>
		<g>
			<path fill="#7F58A5" d="M602.4,863c-0.1-0.2-0.1-0.8-0.1-1.2c0-3.1,2.3-5.9,6.4-5.9c3.9,0,6.3,2.6,6.3,5.6c0,2.3-1.2,4.1-3.4,5.4
				l-3.4,2.1c-0.7,0.4-1.2,0.9-1.5,1.6h8.4v3.2h-13c0-3.1,1-5.6,4.1-7.5l2.9-1.7c1.5-0.9,2.1-1.8,2.1-3c0-1.3-0.9-2.4-2.6-2.4
				c-1.9,0-2.8,1.3-2.8,2.9c0,0.3,0.1,0.7,0.1,1L602.4,863z"/>
			<path fill="#7F58A5" d="M618.6,858.9c1.2-1.7,3-2.9,5.8-2.9c2.7,0,4.6,1.2,5.7,2.9c1.2,1.8,1.6,4,1.6,6.2c0,2.2-0.4,4.4-1.6,6.2
				c-1.1,1.7-3,2.9-5.7,2.9c-2.7,0-4.6-1.2-5.8-2.9c-1.2-1.8-1.5-4-1.5-6.2C617.1,862.9,617.4,860.7,618.6,858.9z M621.7,869.6
				c0.5,0.9,1.4,1.4,2.6,1.4c1.3,0,2.1-0.6,2.6-1.4c0.7-1.1,1-2.6,1-4.5c0-1.8-0.3-3.4-1-4.5c-0.5-0.9-1.3-1.4-2.6-1.4
				c-1.3,0-2.1,0.6-2.6,1.4c-0.7,1.1-0.9,2.6-0.9,4.5C620.8,866.9,621.1,868.5,621.7,869.6z"/>
			<path fill="#7F58A5" d="M635.4,858.9c1.2-1.7,3-2.9,5.8-2.9s4.6,1.2,5.8,2.9c1.2,1.8,1.6,4,1.6,6.2c0,2.2-0.4,4.4-1.6,6.2
				c-1.1,1.7-3,2.9-5.8,2.9s-4.6-1.2-5.8-2.9c-1.2-1.8-1.5-4-1.5-6.2C633.9,862.9,634.2,860.7,635.4,858.9z M638.5,869.6
				c0.5,0.9,1.4,1.4,2.6,1.4c1.3,0,2.1-0.6,2.6-1.4c0.7-1.1,1-2.6,1-4.5c0-1.8-0.3-3.4-1-4.5c-0.5-0.9-1.3-1.4-2.6-1.4
				c-1.3,0-2.1,0.6-2.6,1.4c-0.7,1.1-0.9,2.6-0.9,4.5C637.6,866.9,637.9,868.5,638.5,869.6z"/>
			<path fill="#7F58A5" d="M652,870.3c0.6,0.4,1.9,0.8,3.1,0.8c3.2,0,5.3-1.8,5.6-5c-0.7,1.1-2.2,1.9-4,1.9c-3.3,0-6-2.3-6-5.9
				c0-3.6,2.8-6.2,6.7-6.2c3.8,0,7,2.7,7,8.3c0,6.3-3.2,10-9.2,10c-1.5,0-3.1-0.4-4-1L652,870.3z M657.1,859.1c-1.6,0-3,1.2-3,2.9
				c0,1.8,1.3,2.9,3,2.9s3-1.2,3-2.9S658.8,859.1,657.1,859.1z"/>
		</g>
	</g>
	<g>
		<path fill="#7F58A5" d="M906.5,886.5v-1c10.7,0,19.4-8.7,19.4-19.4s-8.7-19.4-19.4-19.4h-59.3v-1h59.3c11.3,0,20.4,9.2,20.4,20.4
			S917.7,886.5,906.5,886.5z"/>
		<path fill="#7F58A5" d="M890,886.5H831c-11.3,0-20.4-9.2-20.4-20.4s9.2-20.4,20.4-20.4v1c-10.7,0-19.4,8.7-19.4,19.4
			s8.7,19.4,19.4,19.4H890V886.5z"/>
		<g>
			<path fill="#573392" d="M838.9,865.8c-0.1-0.2-0.1-0.8-0.1-1.2c0-3.1,2.3-5.9,6.4-5.9c3.9,0,6.3,2.6,6.3,5.6
				c0,2.3-1.2,4.1-3.4,5.4l-3.4,2.1c-0.7,0.4-1.2,0.9-1.5,1.6h8.4v3.2h-13c0-3.1,1-5.6,4.1-7.5l2.9-1.7c1.5-0.9,2.1-1.8,2.1-3
				c0-1.3-0.9-2.4-2.6-2.4c-1.9,0-2.8,1.3-2.8,2.9c0,0.3,0.1,0.7,0.1,1L838.9,865.8z"/>
			<path fill="#573392" d="M855.1,861.7c1.2-1.7,3-2.9,5.8-2.9c2.7,0,4.6,1.2,5.7,2.9c1.2,1.8,1.6,4,1.6,6.2c0,2.2-0.4,4.4-1.6,6.2
				c-1.1,1.7-3,2.9-5.7,2.9c-2.7,0-4.6-1.2-5.8-2.9c-1.2-1.8-1.5-4-1.5-6.2C853.5,865.7,853.9,863.5,855.1,861.7z M858.2,872.3
				c0.5,0.9,1.4,1.4,2.6,1.4c1.3,0,2.1-0.6,2.6-1.4c0.7-1.1,1-2.6,1-4.5c0-1.8-0.3-3.4-1-4.5c-0.5-0.9-1.3-1.4-2.6-1.4
				c-1.3,0-2.1,0.6-2.6,1.4c-0.7,1.1-0.9,2.6-0.9,4.5C857.3,869.7,857.5,871.3,858.2,872.3z"/>
			<path fill="#573392" d="M874,876.6v-11.7h-4.2v-2.5c2.6,0,4.3-1.5,4.7-3.3h3.2v17.5H874z"/>
			<path fill="#573392" d="M893.5,862.6c-0.8-0.3-1.8-0.6-2.9-0.6c-3,0-5.4,1.7-5.8,5c0.6-1,2.1-1.9,4.2-1.9c3.6,0,6,2.3,6,5.9
				c0,3.6-2.9,6.2-6.8,6.2c-3.8,0-7.1-2.8-7.1-8c0-6.3,3.9-10.3,9.7-10.3c1.6,0,2.9,0.4,3.7,0.8L893.5,862.6z M888.2,873.9
				c1.7,0,3.1-1.1,3.1-2.9c0-1.8-1.4-2.9-3.1-2.9c-1.7,0-3.1,1.1-3.1,2.9C885.1,872.8,886.6,873.9,888.2,873.9z"/>
		</g>
	</g>
	<g>
		<path fill="#7F58A5" d="M179.7,1H0.5C0.2,1,0,0.8,0,0.5S0.2,0,0.5,0h179.2c0.3,0,0.5,0.2,0.5,0.5S180,1,179.7,1z"/>
		<path fill="#7F58A5" d="M645.7,109.6c-0.3,0-0.5-0.2-0.5-0.5c0-14.5,11.8-26.3,26.3-26.3h9.7c22.5,0,40.9-18.3,40.9-40.9
			S703.7,1,681.2,1H431.3c-0.3,0-0.5-0.2-0.5-0.5S431,0,431.3,0h249.9C704.3,0,723,18.8,723,41.9s-18.8,41.9-41.9,41.9h-9.7
			c-14,0-25.3,11.4-25.3,25.3C646.2,109.3,645.9,109.6,645.7,109.6z"/>
		<path fill="#7F58A5" d="M420.4,218.4H160.8c-0.3,0-0.5-0.2-0.5-0.5s0.2-0.5,0.5-0.5h259.7c14,0,25.5-11.4,25.5-25.5v-5
			c0-0.3,0.2-0.5,0.5-0.5h40.7c0.3,0,0.5,0.2,0.5,0.5s-0.2,0.5-0.5,0.5h-40.2v4.5C446.9,206.5,435.1,218.4,420.4,218.4z"/>
		<path fill="#7F58A5" d="M101.6,866.5H77.3c-7.5,0-13.6-6.1-13.6-13.6V687.3c0-0.3,0.2-0.5,0.5-0.5s0.5,0.2,0.5,0.5V853
			c0,6.9,5.6,12.6,12.6,12.6h24.3c0.3,0,0.5,0.2,0.5,0.5S101.9,866.5,101.6,866.5z"/>
		<path fill="#7F58A5" d="M58.8,652.1c-0.3,0-0.5-0.2-0.5-0.5v-346c0-0.3,0.2-0.5,0.5-0.5s0.5,0.2,0.5,0.5v346
			C59.3,651.9,59,652.1,58.8,652.1z"/>
		<path fill="#7F58A5" d="M58.7,289.8C58.7,289.8,58.7,289.8,58.7,289.8c-0.3,0-0.5-0.2-0.5-0.5c0-24.4-7-36.7-21-36.7H2.1
			c-0.3,0-0.5-0.2-0.5-0.5s0.2-0.5,0.5-0.5h35.2c13,0,20.3,10.2,21.7,30.3c0.5-3.3,1.3-7.3,2.6-11.3c3.9-12.4,10.7-19,19.5-19h150.4
			c18.7,0,34-15.2,34-34c0-0.3,0.2-0.5,0.5-0.5s0.5,0.2,0.5,0.5c0,19.3-15.7,35-35,35H81c-8.4,0-14.7,6.1-18.5,18.3
			c-2.9,9.1-3.3,18.4-3.3,18.5C59.2,289.6,59,289.8,58.7,289.8z"/>
		<path fill="#7F58A5" d="M390,82.4H72.9c-0.3,0-0.5-0.2-0.5-0.5s0.2-0.5,0.5-0.5H390c0.3,0,0.5,0.2,0.5,0.5S390.2,82.4,390,82.4z"
			/>
		<path fill="#7F58A5" d="M96.1,849.2c-8.2,0-12.9-0.6-15.2-4c-2.2-3.2-2.2-8.5-2.2-18.2l0-1.2V477c0-0.3,0.2-0.5,0.5-0.5
			s0.5,0.2,0.5,0.5l0,350c0,9.2,0,14.7,2,17.7c1.8,2.7,5.5,3.6,14.4,3.6c0.3,0,0.5,0.2,0.5,0.5S96.4,849.2,96.1,849.2z"/>
		<path fill="#7F58A5" d="M79.2,421.5c-0.3,0-0.5-0.2-0.5-0.5V299.8c0-13.8,11.2-25,25-25H178c0.3,0,0.5,0.2,0.5,0.5
			s-0.2,0.5-0.5,0.5h-74.2c-13.2,0-24,10.8-24,24V421C79.7,421.3,79.5,421.5,79.2,421.5z"/>
		<rect x="44.5" y="349.3" fill="#7F58A5" width="1" height="475"/>
	</g>
	<path fill="#7F58A5" d="M338.1,866.5H224.9c-0.3,0-0.5-0.2-0.5-0.5s0.2-0.5,0.5-0.5h113.2c0.3,0,0.5,0.2,0.5,0.5
		S338.4,866.5,338.1,866.5z"/>
	<path fill="#7F58A5" d="M574.6,866.5h-40.4c-0.3,0-0.5-0.2-0.5-0.5s0.2-0.5,0.5-0.5h40.4c0.3,0,0.5,0.2,0.5,0.5
		S574.8,866.5,574.6,866.5z"/>
	<path fill="#7F58A5" d="M515.8,866.5h-62.3c-0.3,0-0.5-0.2-0.5-0.5s0.2-0.5,0.5-0.5h62.3c0.3,0,0.5,0.2,0.5,0.5
		S516.1,866.5,515.8,866.5z"/>
	<path fill="#7F58A5" d="M811,866.5H689.9c-0.3,0-0.5-0.2-0.5-0.5s0.2-0.5,0.5-0.5H811c0.3,0,0.5,0.2,0.5,0.5S811.3,866.5,811,866.5
		z"/>
	<path fill="#7F58A5" d="M1028.6,1008.3H372.1c-0.3,0-0.5-0.2-0.5-0.5s0.2-0.5,0.5-0.5h656.5c38.8,0,70.4-31.6,70.4-70.4
		c0-41.4-34.9-70.4-84.9-70.4h-87.6c-0.3,0-0.5-0.2-0.5-0.5s0.2-0.5,0.5-0.5h87.6c50.6,0,85.9,29.3,85.9,71.4
		C1100,976.3,1067.9,1008.3,1028.6,1008.3z"/>
	<path fill="#7F58A5" d="M339.7,874.9h-90.5c-0.3,0-0.5-0.2-0.5-0.5s0.2-0.5,0.5-0.5h90.5c0.3,0,0.5,0.2,0.5,0.5
		S340,874.9,339.7,874.9z"/>
	<path fill="#7F58A5" d="M530.2,876.8H472c-0.3,0-0.5-0.2-0.5-0.5s0.2-0.5,0.5-0.5h58.2c0.3,0,0.5,0.2,0.5,0.5
		S530.5,876.8,530.2,876.8z"/>
	<path fill="#7F58A5" d="M568.3,843.1h-1.7c-0.3,0-0.5-0.2-0.5-0.5s0.2-0.5,0.5-0.5h1.7c0.3,0,0.5,0.2,0.5,0.5
		S568.5,843.1,568.3,843.1z M562.5,843.1h-4c-0.3,0-0.5-0.2-0.5-0.5s0.2-0.5,0.5-0.5h4c0.3,0,0.5,0.2,0.5,0.5
		S562.8,843.1,562.5,843.1z M554.5,843.1h-4c-0.3,0-0.5-0.2-0.5-0.5s0.2-0.5,0.5-0.5h4c0.3,0,0.5,0.2,0.5,0.5
		S554.8,843.1,554.5,843.1z M546.5,843.1h-4c-0.3,0-0.5-0.2-0.5-0.5s0.2-0.5,0.5-0.5h4c0.3,0,0.5,0.2,0.5,0.5
		S546.8,843.1,546.5,843.1z M538.5,843.1h-4c-0.3,0-0.5-0.2-0.5-0.5s0.2-0.5,0.5-0.5h4c0.3,0,0.5,0.2,0.5,0.5
		S538.8,843.1,538.5,843.1z M530.5,843.1h-4c-0.3,0-0.5-0.2-0.5-0.5s0.2-0.5,0.5-0.5h4c0.3,0,0.5,0.2,0.5,0.5
		S530.8,843.1,530.5,843.1z M522.5,843.1h-4c-0.3,0-0.5-0.2-0.5-0.5s0.2-0.5,0.5-0.5h4c0.3,0,0.5,0.2,0.5,0.5
		S522.8,843.1,522.5,843.1z M514.5,843.1h-4c-0.3,0-0.5-0.2-0.5-0.5s0.2-0.5,0.5-0.5h4c0.3,0,0.5,0.2,0.5,0.5
		S514.8,843.1,514.5,843.1z M506.5,843.1h-4c-0.3,0-0.5-0.2-0.5-0.5s0.2-0.5,0.5-0.5h4c0.3,0,0.5,0.2,0.5,0.5
		S506.8,843.1,506.5,843.1z M498.5,843.1h-4c-0.3,0-0.5-0.2-0.5-0.5s0.2-0.5,0.5-0.5h4c0.3,0,0.5,0.2,0.5,0.5
		S498.8,843.1,498.5,843.1z M490.5,843.1h-4c-0.3,0-0.5-0.2-0.5-0.5s0.2-0.5,0.5-0.5h4c0.3,0,0.5,0.2,0.5,0.5
		S490.8,843.1,490.5,843.1z M482.5,843.1h-4c-0.3,0-0.5-0.2-0.5-0.5s0.2-0.5,0.5-0.5h4c0.3,0,0.5,0.2,0.5,0.5
		S482.8,843.1,482.5,843.1z M474.5,843.1h-4c-0.3,0-0.5-0.2-0.5-0.5s0.2-0.5,0.5-0.5h4c0.3,0,0.5,0.2,0.5,0.5
		S474.8,843.1,474.5,843.1z"/>
	<path fill="#7F58A5" d="M753.5,1022.3h-97.7c-0.3,0-0.5-0.2-0.5-0.5s0.2-0.5,0.5-0.5h97.7c0.3,0,0.5,0.2,0.5,0.5
		S753.8,1022.3,753.5,1022.3z"/>
	<path fill="#7F58A5" d="M620.8,997.9h-2.5c-0.3,0-0.5-0.2-0.5-0.5s0.2-0.5,0.5-0.5h2.5c0.3,0,0.5,0.2,0.5,0.5
		S621.1,997.9,620.8,997.9z M614.3,997.9h-4c-0.3,0-0.5-0.2-0.5-0.5s0.2-0.5,0.5-0.5h4c0.3,0,0.5,0.2,0.5,0.5
		S614.6,997.9,614.3,997.9z M606.3,997.9h-4c-0.3,0-0.5-0.2-0.5-0.5s0.2-0.5,0.5-0.5h4c0.3,0,0.5,0.2,0.5,0.5
		S606.6,997.9,606.3,997.9z M598.3,997.9h-4c-0.3,0-0.5-0.2-0.5-0.5s0.2-0.5,0.5-0.5h4c0.3,0,0.5,0.2,0.5,0.5
		S598.6,997.9,598.3,997.9z M590.3,997.9h-4c-0.3,0-0.5-0.2-0.5-0.5s0.2-0.5,0.5-0.5h4c0.3,0,0.5,0.2,0.5,0.5
		S590.6,997.9,590.3,997.9z M582.3,997.9h-4c-0.3,0-0.5-0.2-0.5-0.5s0.2-0.5,0.5-0.5h4c0.3,0,0.5,0.2,0.5,0.5
		S582.6,997.9,582.3,997.9z M574.3,997.9h-4c-0.3,0-0.5-0.2-0.5-0.5s0.2-0.5,0.5-0.5h4c0.3,0,0.5,0.2,0.5,0.5
		S574.6,997.9,574.3,997.9z M566.3,997.9h-4c-0.3,0-0.5-0.2-0.5-0.5s0.2-0.5,0.5-0.5h4c0.3,0,0.5,0.2,0.5,0.5
		S566.6,997.9,566.3,997.9z M558.3,997.9h-4c-0.3,0-0.5-0.2-0.5-0.5s0.2-0.5,0.5-0.5h4c0.3,0,0.5,0.2,0.5,0.5
		S558.6,997.9,558.3,997.9z M550.3,997.9h-4c-0.3,0-0.5-0.2-0.5-0.5s0.2-0.5,0.5-0.5h4c0.3,0,0.5,0.2,0.5,0.5
		S550.6,997.9,550.3,997.9z M542.3,997.9h-4c-0.3,0-0.5-0.2-0.5-0.5s0.2-0.5,0.5-0.5h4c0.3,0,0.5,0.2,0.5,0.5
		S542.6,997.9,542.3,997.9z M534.3,997.9h-4c-0.3,0-0.5-0.2-0.5-0.5s0.2-0.5,0.5-0.5h4c0.3,0,0.5,0.2,0.5,0.5
		S534.6,997.9,534.3,997.9z M526.3,997.9h-4c-0.3,0-0.5-0.2-0.5-0.5s0.2-0.5,0.5-0.5h4c0.3,0,0.5,0.2,0.5,0.5
		S526.6,997.9,526.3,997.9z M518.3,997.9h-4c-0.3,0-0.5-0.2-0.5-0.5s0.2-0.5,0.5-0.5h4c0.3,0,0.5,0.2,0.5,0.5
		S518.6,997.9,518.3,997.9z M510.3,997.9h-4c-0.3,0-0.5-0.2-0.5-0.5s0.2-0.5,0.5-0.5h4c0.3,0,0.5,0.2,0.5,0.5
		S510.6,997.9,510.3,997.9z M502.3,997.9h-4c-0.3,0-0.5-0.2-0.5-0.5s0.2-0.5,0.5-0.5h4c0.3,0,0.5,0.2,0.5,0.5
		S502.6,997.9,502.3,997.9z M494.3,997.9h-4c-0.3,0-0.5-0.2-0.5-0.5s0.2-0.5,0.5-0.5h4c0.3,0,0.5,0.2,0.5,0.5
		S494.6,997.9,494.3,997.9z M486.3,997.9h-4c-0.3,0-0.5-0.2-0.5-0.5s0.2-0.5,0.5-0.5h4c0.3,0,0.5,0.2,0.5,0.5
		S486.6,997.9,486.3,997.9z M478.3,997.9h-4c-0.3,0-0.5-0.2-0.5-0.5s0.2-0.5,0.5-0.5h4c0.3,0,0.5,0.2,0.5,0.5
		S478.6,997.9,478.3,997.9z M470.3,997.9h-4c-0.3,0-0.5-0.2-0.5-0.5s0.2-0.5,0.5-0.5h4c0.3,0,0.5,0.2,0.5,0.5
		S470.6,997.9,470.3,997.9z M462.3,997.9h-4c-0.3,0-0.5-0.2-0.5-0.5s0.2-0.5,0.5-0.5h4c0.3,0,0.5,0.2,0.5,0.5
		S462.6,997.9,462.3,997.9z M454.3,997.9h-4c-0.3,0-0.5-0.2-0.5-0.5s0.2-0.5,0.5-0.5h4c0.3,0,0.5,0.2,0.5,0.5
		S454.6,997.9,454.3,997.9z M446.3,997.9h-4c-0.3,0-0.5-0.2-0.5-0.5s0.2-0.5,0.5-0.5h4c0.3,0,0.5,0.2,0.5,0.5
		S446.6,997.9,446.3,997.9z M438.3,997.9h-4c-0.3,0-0.5-0.2-0.5-0.5s0.2-0.5,0.5-0.5h4c0.3,0,0.5,0.2,0.5,0.5
		S438.6,997.9,438.3,997.9z M430.3,997.9h-4c-0.3,0-0.5-0.2-0.5-0.5s0.2-0.5,0.5-0.5h4c0.3,0,0.5,0.2,0.5,0.5
		S430.6,997.9,430.3,997.9z"/>
	<path fill="#7F58A5" d="M972.1,877.1h-63c-0.3,0-0.5-0.2-0.5-0.5s0.2-0.5,0.5-0.5h63c0.3,0,0.5,0.2,0.5,0.5
		S972.4,877.1,972.1,877.1z"/>
	<g>
		<g>
			<path fill="#9C8FC4" d="M240.3,916.3v2.5h7.7v2.6h-3.8l2.4,0.9c-0.8,1.3-1.8,2.8-2.5,3.8h5.2v2.6h-20.8v-2.6h4.7
				c-0.4-1.1-1.2-2.7-2-3.9l1.9-0.8h-3.5v-2.6h7.6v-2.5h-4.9v-1.2c-1,0.5-2,0.9-3.1,1.3c-0.4-0.8-1.2-1.9-1.9-2.6
				c4.5-1.3,8.8-3.7,11.1-7.3l2.7,1.2c-0.2,0.3-0.4,0.6-0.7,1c2.4,2.1,6.2,4.1,9.8,5.1c-0.6,0.6-1.5,1.8-2,2.5
				c-1.1-0.4-2.2-0.9-3.3-1.4v1.4H240.3z M233.6,921.4c0.8,1.2,1.8,2.8,2.1,3.8l-2,0.9h3.5v-4.7H233.6z M243,913.7
				c-1.5-0.9-2.9-2-4.2-3.1c-1.2,1.2-2.5,2.2-3.9,3.1H243z M240.3,921.4v4.7h3l-1.6-0.7c0.7-1.1,1.6-2.8,2.1-4H240.3z"/>
			<path fill="#9C8FC4" d="M256.6,907.7h11.9v2.4h-11.9V907.7z M268,926.4c0,1-0.1,1.6-0.8,2c-0.6,0.4-1.5,0.4-2.6,0.4
				c-0.1-0.6-0.3-1.5-0.6-2.1c0.6,0,1.3,0,1.5,0c0.2,0,0.3-0.1,0.3-0.3v-7.3h-6.6v10.1H257V917h11V926.4z M267.4,916.2h-9.6V911h9.6
				V916.2z M260.8,922.6c-0.2-0.7-0.6-1.8-1.1-2.5l1.5-0.5c0.5,0.8,1,1.8,1.2,2.5L260.8,922.6z M263.4,924.3v4h-2v-4h-1.7v-1.7h2.7
				c0.5-1,1-2.3,1.3-3.2l1.7,0.7c-0.5,0.8-0.9,1.8-1.3,2.5h1.1v1.7H263.4z M264.8,912.9h-4.7v1.4h4.7V912.9z M276.8,929.2
				c-0.1-0.5-0.2-1.2-0.3-1.9c-2.6,0.5-5.2,1-7.3,1.4l-0.6-2.6c1-0.1,2.2-0.3,3.6-0.5v-4.4h-3.2v-9.9h3.2v-4.2h2.5v4.2h3.3v9.9h-3.3
				v4l1.3-0.2c-0.2-0.8-0.4-1.7-0.7-2.4l1.9-0.4c0.7,2.1,1.4,4.9,1.7,6.5L276.8,929.2z M270.9,918.7h1.5v-5h-1.5V918.7z
				 M275.8,913.7h-1.4v5h1.4V913.7z"/>
			<path fill="#9C8FC4" d="M289.2,918.5c-0.8-0.8-2.5-1.9-3.9-2.6l1.5-1.9c1.3,0.6,3.1,1.7,4,2.4L289.2,918.5z M285.9,927.3
				c1-1.8,2.3-4.9,3.3-7.7l2.2,1.6c-0.9,2.5-2,5.3-3,7.7L285.9,927.3z M290.8,911.8c-0.9-0.8-2.7-2-4.1-2.7l1.6-1.9
				c1.4,0.6,3.3,1.7,4.2,2.5L290.8,911.8z M305.8,920.6c-0.1,1-0.1,1.8-0.2,2.5h1.5v2.4h-1.8c-0.2,1.2-0.4,1.8-0.7,2.2
				c-0.6,0.7-1.2,1-1.9,1.1c-0.7,0.1-1.9,0.1-3,0c0-0.7-0.3-1.7-0.7-2.3c1.1,0.1,2,0.1,2.5,0.1c0.4,0,0.6-0.1,0.9-0.4
				c0.1-0.1,0.2-0.4,0.3-0.7h-9.9c0.3-1.4,0.6-3.1,0.8-5h-2.1V918h2.5c0.2-1.3,0.3-2.6,0.4-3.8c-0.3,0.4-0.6,0.8-0.9,1.2
				c-0.6-0.4-1.8-1.2-2.4-1.6c1.6-1.7,3-4.5,3.8-7.1l2.8,0.7c-0.2,0.6-0.4,1.2-0.6,1.7H307v2.5h-11.4c-0.3,0.6-0.6,1.1-0.9,1.6h11.4
				c0,0,0,0.8,0,1.2c0,1.3-0.1,2.4-0.2,3.5h1.7v2.6H305.8z M296.1,920.6c-0.1,0.9-0.2,1.7-0.4,2.5h3.6c-0.6-0.6-1.4-1.4-2.1-2
				l0.9-0.6H296.1z M296.7,915.8c-0.1,0.8-0.2,1.5-0.3,2.3h3.2c-0.5-0.6-1.2-1.2-1.8-1.8l0.8-0.5H296.7z M303,923.2
				c0.1-0.7,0.2-1.5,0.2-2.5h-3.9c0.8,0.6,1.7,1.4,2.1,2l-0.8,0.5H303z M299.9,915.8c0.7,0.6,1.4,1.3,1.8,1.8L301,918h2.3
				c0-0.7,0.1-1.5,0.1-2.3H299.9z"/>
			<path fill="#9C8FC4" d="M316.9,922.6v1.9h-2.1v-15.3h5.7v13.4H316.9z M316.9,911.8v8.3h1.5v-8.3H316.9z M333.2,921.3v-0.7h-2.9
				v-4.5h1.7v2.8h1.2V916h2.2v13h-2.2v-3.4h-1.2v3.4h-1.7V924h2.9v-0.8h-3.8v6h-2.2v-6h-3.7c0,0.3-0.1,0.5-0.1,0.8h3v5.1h-1.7v-3.4
				H323c-0.5,1.3-1.2,2.6-2.3,3.6c-0.4-0.4-1.2-1-1.7-1.2c2.3-2,2.6-5,2.6-7.2v-4.7h2.1v2.8h1v-2.8h1.7v4.5h-2.7v0.2v0.5h3.6v-5.8
				h-5.7v-1.7h5.4v-1h-6.2v-1.7h6.2v-0.8h-5.4v-1.7h5.4v-1.8h2.6v1.8h5.4v2.3h1.4v2H335v2.6h-5.6v5.8H333.2z M329.6,911.1h2.9v-0.8
				h-2.9V911.1z M329.6,913.7h2.9v-1h-2.9V913.7z"/>
		</g>
	</g>
	<polygon fill="#7F58A5" points="199.3,920.3 169.2,920.3 169.2,886 170.2,886 170.2,919.3 199.3,919.3 	"/>
	<polygon fill="#7F58A5" points="397.1,920.3 356.9,920.3 356.9,919.3 396.1,919.3 396.1,886 397.1,886 	"/>
	<g>
		<g>
			<path fill="#7F58A5" d="M461.8,927.1c1.1-1.6,2.3-3.8,2.9-5.7l2.5,1c-0.7,1.9-1.8,4.4-2.8,6L461.8,927.1z M462.1,917.5
				c1-0.1,2.2-0.3,3.5-0.6V910h-3v-2.4h8.5v2.4h-2.7v6.4l2.7-0.5l0.1,1.5c1.2-0.8,2-1.8,2.4-2.7c-0.9-0.6-1.8-1.1-2.7-1.6l1.2-1.8
				c0.6,0.3,1.3,0.7,2,1.1c0-0.3,0-0.6,0-0.9v-1.7h-2.2v-2.4h9.6v9.2c0,0.5,0,0.8,0.1,0.8c0,0.1,0.1,0.1,0.2,0.1h0.3
				c0.1,0,0.2,0,0.3-0.1c0,0,0.1-0.2,0.2-0.6c0-0.4,0-1.2,0.1-2.2c0.5,0.4,1.4,0.9,2.1,1.1c0,1-0.2,2.2-0.3,2.7
				c-0.2,0.5-0.4,0.8-0.8,1.1c-0.3,0.2-0.9,0.3-1.3,0.3h-1.2c-0.5,0-1.2-0.2-1.6-0.6c-0.4-0.4-0.6-0.9-0.6-2.6v-0.7l-1.1,1.7
				c-0.5-0.4-1.2-0.9-2-1.4c-0.6,1.2-1.5,2.3-2.9,3.2c1.3,1.2,3,2.7,3.9,3.7l-2,1.9c-0.9-1.1-2.7-2.9-4-4.1l1.6-1.4
				c-0.3-0.4-0.9-0.9-1.4-1.2c-3,0.7-6.1,1.3-8.5,1.9L462.1,917.5z M476.1,926.4c1.1,0,1.3-0.3,1.5-2.3c0.6,0.4,1.8,0.8,2.6,1
				c-0.4,3.1-1.2,3.9-3.8,3.9h-4.5c-3.4,0-4.2-0.8-4.2-3.4v-4.2h2.8v4.2c0,0.8,0.2,0.9,1.7,0.9H476.1z M477,911.6
				c0,0.7,0,1.5-0.2,2.3c0.9,0.5,1.7,1,2.3,1.5v-5.5H477V911.6z M481.2,920.9c1.2,1.9,2.8,4.4,3.6,6l-2.6,1.5
				c-0.7-1.6-2.2-4.2-3.4-6.2L481.2,920.9z"/>
			<path fill="#7F58A5" d="M493.3,911.5c0,2-0.2,4.9-0.7,6.7l-1.9-0.7c0.5-1.6,0.7-4.3,0.8-6.2L493.3,911.5z M509.1,917.1
				c1,0,2.6-0.1,3.3-0.2c0.1,0.8,0.1,1.6,0.2,2.2c-0.6,0.2-2,0.2-3.2,0.2h-5.8c-2.9,0-3.6-0.9-3.6-3.1v-0.9h-1.4v-0.5l-1.2,0.5
				c-0.2-0.9-0.5-2.3-0.9-3.5v17.4h-2.7v-22.4h2.7v4.3l1.5-0.5c0.2,0.8,0.5,1.7,0.8,2.5h5.8c-0.2-0.4-0.4-0.8-0.6-1.2l2.5-0.7
				c0.3,0.6,0.7,1.3,1,1.9h5.6v2.2h-10.4v1c0,0.6,0.2,0.8,1.1,0.8H509.1z M499.9,920.3h2.5v2.3c0,2.3-0.3,4.9-3.1,6.8
				c-0.5-0.6-1.4-1.4-2.1-1.8c2.4-1.4,2.7-3.4,2.7-5.1V920.3z M501.3,910.6h-3.1v-2.2h3.1v-1.6h2.6v1.6h1.5v2.2h-1.5v1.2h-2.6V910.6
				z M504,920.3h2.5v7.9H504V920.3z M507.4,910.6H506v-2.2h1.4v-1.6h2.6v1.6h3.2v2.2h-3.2v1.2h-2.6V910.6z M512,926.9
				c0.3,0,0.9,0,1.2-0.1c0,0.6,0.1,1.4,0.2,2c-0.3,0.1-0.9,0.2-1.3,0.2h-1.3c-2.1,0-2.5-0.9-2.5-3v-5.7h2.5v5.7c0,0.7,0,1,0.4,1H512
				z"/>
			<path fill="#7F58A5" d="M525.4,924.5c-0.8,1.8-2.3,3.6-3.6,4.8c-0.5-0.5-1.6-1.3-2.3-1.7c1.2-0.9,2.5-2.4,3.2-3.9L525.4,924.5z
				 M531.5,923.5h-11.8V921h2.2v-8.9H520v-2.5h1.9v-2.5h2.6v2.5h3v-2.5h2.6v2.5h1.6v2.5H530v8.9h1.5V923.5z M524.4,912.1v1.4h3v-1.4
				H524.4z M524.4,917.2h3v-1.5h-3V917.2z M524.4,921h3v-1.6h-3V921z M541.4,926c0,1.4-0.3,2.2-1.1,2.6c-0.8,0.5-2.1,0.5-3.8,0.5
				c-0.1-0.7-0.5-2-0.8-2.7c1,0.1,2.2,0,2.5,0c0.4,0,0.5-0.1,0.5-0.5v-4.7H535c-0.3,2.8-0.9,5.8-2.2,8c-0.5-0.5-1.6-1.4-2.3-1.6
				c0.1-0.1,0.2-0.3,0.2-0.4l-2,1.1c-0.5-0.9-1.6-2.5-2.6-3.6l2.2-1.2c0.9,1,2,2.3,2.6,3.3c1.4-3,1.5-7.1,1.5-10.2v-8.8h8.9V926z
				 M538.6,918.7v-3h-3.5v0.9c0,0.6,0,1.3,0,2.1H538.6z M535.1,910.4v2.8h3.5v-2.8H535.1z"/>
		</g>
	</g>
	<polygon fill="#7F58A5" points="426.3,920.3 396.2,920.3 396.2,886 397.2,886 397.2,919.3 426.3,919.3 	"/>
	<polygon fill="#7F58A5" points="624.1,920.3 583.9,920.3 583.9,919.3 623.1,919.3 623.1,886 624.1,886 	"/>
	<g>
		<g>
			<path fill="#7F58A5" d="M697.4,913h-8.6v-2.3h3.9c-0.4-0.9-1-2.1-1.5-3l2.1-0.9c0.6,1,1.4,2.4,1.7,3.2l-1.4,0.7h3.7V913z
				 M710.5,926.2c0,1.2-0.2,1.9-0.9,2.3c-0.7,0.4-1.8,0.5-3.3,0.5c-0.1-0.7-0.4-1.8-0.7-2.4c1,0,1.9,0,2.3,0c0.3,0,0.4-0.1,0.4-0.4
				v-8.2h-7.5c0,3.6-0.4,8.3-2.2,11.3c-0.4-0.4-1.4-1.2-1.9-1.4h-4.4v0.9h-2.3v-8.2h7v6.7c1.4-3,1.6-7.1,1.6-10.3v-9.4h12.1V926.2z
				 M689.9,917.3h6.8v2.2h-6.8V917.3z M696.7,916.2h-6.8v-2.2h6.8V916.2z M694.5,922.9h-2.4v2.7h2.4V922.9z M700.6,910.1v1.7h2.6
				v-1.7H700.6z M700.6,915.7h2.6v-1.6h-2.6V915.7z M703.2,925v1.1h-1.9V919h6.1v6H703.2z M703.2,921v2h2v-2H703.2z M708.1,910.1
				h-2.6v1.7h2.6V910.1z M708.1,915.7v-1.6h-2.6v1.6H708.1z"/>
			<path fill="#7F58A5" d="M738.1,911.5c-0.5,1.5-1.1,2.8-2,3.9c1.1,0.8,2.4,1.4,4,1.8c-0.5,0.5-1.2,1.6-1.6,2.2
				c-1.6-0.6-3-1.3-4.2-2.3c-1.2,1-2.6,1.7-4.2,2.3c-0.2-0.5-1.1-1.6-1.6-2c1.6-0.5,3-1.1,4.1-1.9c-0.5-0.7-1-1.4-1.4-2.1
				c-0.3,0.4-0.7,0.8-1,1.1c-0.3-0.4-0.9-1.1-1.5-1.6v2.4h-2.3c0.8,0.5,1.7,1.1,2.2,1.5l-1.2,1.6c-0.6-0.6-1.6-1.3-2.6-1.9v2.4h-2.5
				V917c-1,1-2.2,1.8-3.3,2.4c-0.4-0.6-1.1-1.4-1.6-1.8c1.4-0.5,2.8-1.4,3.9-2.3h-2.8v-4.6h3.8v-0.8h-4.4v-2h4.4v-1.2h2.5v1.2h4.2v2
				H725v0.8h3.8v1.4c1.4-1.3,2.4-3.3,3-5.3l2.5,0.6c-0.2,0.6-0.4,1.2-0.6,1.8h6v2.3H738.1z M730.2,926.3h9.6v2.4H718v-2.4h3.6v-3.6
				h2.7v3.6h3.2v-4.5h-8v-2.3h18.9v2.3h-8.1v1.2h6.2v2.1h-6.2V926.3z M720.9,913.6h1.6v-1.2h-1.6V913.6z M725,912.4v1.2h1.5v-1.2
				H725z M725.7,915.3H725v0.8L725.7,915.3z M732.8,911.5c0.4,0.8,0.9,1.5,1.6,2.3c0.5-0.7,0.8-1.4,1.1-2.3H732.8z"/>
			<path fill="#7F58A5" d="M752.1,924.5c-0.8,1.8-2.3,3.6-3.6,4.8c-0.5-0.5-1.6-1.3-2.3-1.7c1.2-0.9,2.5-2.4,3.2-3.9L752.1,924.5z
				 M758.3,923.5h-11.8V921h2.2v-8.9h-1.9v-2.5h1.9v-2.5h2.6v2.5h3v-2.5h2.6v2.5h1.6v2.5h-1.6v8.9h1.5V923.5z M751.2,912.1v1.4h3
				v-1.4H751.2z M751.2,917.2h3v-1.5h-3V917.2z M751.2,921h3v-1.6h-3V921z M768.1,926c0,1.4-0.3,2.2-1.1,2.6s-2.1,0.5-3.8,0.5
				c-0.1-0.7-0.5-2-0.8-2.7c1,0.1,2.2,0,2.5,0c0.4,0,0.5-0.1,0.5-0.5v-4.7h-3.6c-0.3,2.8-0.9,5.8-2.2,8c-0.5-0.5-1.6-1.4-2.3-1.6
				c0.1-0.1,0.2-0.3,0.2-0.4l-2,1.1c-0.5-0.9-1.6-2.5-2.6-3.6l2.2-1.2c0.9,1,2,2.3,2.6,3.3c1.4-3,1.5-7.1,1.5-10.2v-8.8h8.9V926z
				 M765.4,918.7v-3h-3.5v0.9c0,0.6,0,1.3,0,2.1H765.4z M761.9,910.4v2.8h3.5v-2.8H761.9z"/>
		</g>
	</g>
	<polygon fill="#7F58A5" points="653.1,920.3 622.9,920.3 622.9,886 623.9,886 623.9,919.3 653.1,919.3 	"/>
	<polygon fill="#7F58A5" points="850.9,920.3 810.7,920.3 810.7,919.3 849.9,919.3 849.9,886 850.9,886 	"/>
	<path fill="#7F58A5" d="M831.7,997.9H689.9c-0.3,0-0.5-0.2-0.5-0.5s0.2-0.5,0.5-0.5h141.7c0.3,0,0.5,0.2,0.5,0.5
		S832,997.9,831.7,997.9z"/>
	<path fill="#7F58A5" d="M1012.9,997.9h-4c-0.3,0-0.5-0.2-0.5-0.5s0.2-0.5,0.5-0.5h4c0.3,0,0.5,0.2,0.5,0.5
		S1013.1,997.9,1012.9,997.9z M1004.9,997.9h-4c-0.3,0-0.5-0.2-0.5-0.5s0.2-0.5,0.5-0.5h4c0.3,0,0.5,0.2,0.5,0.5
		S1005.1,997.9,1004.9,997.9z M996.9,997.9h-4c-0.3,0-0.5-0.2-0.5-0.5s0.2-0.5,0.5-0.5h4c0.3,0,0.5,0.2,0.5,0.5
		S997.1,997.9,996.9,997.9z M988.9,997.9h-4c-0.3,0-0.5-0.2-0.5-0.5s0.2-0.5,0.5-0.5h4c0.3,0,0.5,0.2,0.5,0.5
		S989.1,997.9,988.9,997.9z M980.9,997.9h-4c-0.3,0-0.5-0.2-0.5-0.5s0.2-0.5,0.5-0.5h4c0.3,0,0.5,0.2,0.5,0.5
		S981.1,997.9,980.9,997.9z M972.9,997.9h-4c-0.3,0-0.5-0.2-0.5-0.5s0.2-0.5,0.5-0.5h4c0.3,0,0.5,0.2,0.5,0.5
		S973.1,997.9,972.9,997.9z M964.9,997.9h-4c-0.3,0-0.5-0.2-0.5-0.5s0.2-0.5,0.5-0.5h4c0.3,0,0.5,0.2,0.5,0.5
		S965.1,997.9,964.9,997.9z M956.9,997.9h-4c-0.3,0-0.5-0.2-0.5-0.5s0.2-0.5,0.5-0.5h4c0.3,0,0.5,0.2,0.5,0.5
		S957.1,997.9,956.9,997.9z M948.9,997.9h-4c-0.3,0-0.5-0.2-0.5-0.5s0.2-0.5,0.5-0.5h4c0.3,0,0.5,0.2,0.5,0.5
		S949.1,997.9,948.9,997.9z M940.9,997.9h-4c-0.3,0-0.5-0.2-0.5-0.5s0.2-0.5,0.5-0.5h4c0.3,0,0.5,0.2,0.5,0.5
		S941.1,997.9,940.9,997.9z M932.9,997.9h-4c-0.3,0-0.5-0.2-0.5-0.5s0.2-0.5,0.5-0.5h4c0.3,0,0.5,0.2,0.5,0.5
		S933.1,997.9,932.9,997.9z M924.9,997.9h-4c-0.3,0-0.5-0.2-0.5-0.5s0.2-0.5,0.5-0.5h4c0.3,0,0.5,0.2,0.5,0.5
		S925.1,997.9,924.9,997.9z M916.9,997.9h-4c-0.3,0-0.5-0.2-0.5-0.5s0.2-0.5,0.5-0.5h4c0.3,0,0.5,0.2,0.5,0.5
		S917.1,997.9,916.9,997.9z M908.9,997.9h-4c-0.3,0-0.5-0.2-0.5-0.5s0.2-0.5,0.5-0.5h4c0.3,0,0.5,0.2,0.5,0.5
		S909.1,997.9,908.9,997.9z M900.9,997.9h-4c-0.3,0-0.5-0.2-0.5-0.5s0.2-0.5,0.5-0.5h4c0.3,0,0.5,0.2,0.5,0.5
		S901.1,997.9,900.9,997.9z M892.9,997.9h-4c-0.3,0-0.5-0.2-0.5-0.5s0.2-0.5,0.5-0.5h4c0.3,0,0.5,0.2,0.5,0.5
		S893.1,997.9,892.9,997.9z M884.9,997.9h-4c-0.3,0-0.5-0.2-0.5-0.5s0.2-0.5,0.5-0.5h4c0.3,0,0.5,0.2,0.5,0.5
		S885.1,997.9,884.9,997.9z M876.9,997.9h-1.3c-0.3,0-0.5-0.2-0.5-0.5s0.2-0.5,0.5-0.5h1.3c0.3,0,0.5,0.2,0.5,0.5
		S877.1,997.9,876.9,997.9z"/>
	<path fill="#7F58A5" d="M1031.3,997.9h-8c-0.3,0-0.5-0.2-0.5-0.5s0.2-0.5,0.5-0.5h8c5.1,0,10.3-0.7,15.2-2c0.3-0.1,0.5,0.1,0.6,0.4
		c0.1,0.3-0.1,0.5-0.4,0.6C1041.7,997.2,1036.5,997.9,1031.3,997.9z"/>
	<path fill="#7F58A5" d="M1064.8,987.4c-0.2,0-0.3-0.1-0.4-0.2c-0.2-0.2-0.1-0.5,0.1-0.7c15.6-10.9,24.9-28.7,24.9-47.7
		c0-19.3-9.6-37.4-25.6-48.2c-0.2-0.2-0.3-0.5-0.1-0.7c0.2-0.2,0.5-0.3,0.7-0.1c16.3,11,26.1,29.4,26.1,49
		c0,19.3-9.5,37.4-25.3,48.5C1065,987.3,1064.9,987.4,1064.8,987.4z"/>
	<path fill="#7F58A5" d="M1031.3,880.6h-29.5c-0.3,0-0.5-0.2-0.5-0.5s0.2-0.5,0.5-0.5h29.5c0.3,0,0.5,0.2,0.5,0.5
		S1031.5,880.6,1031.3,880.6z"/>
	<path fill="#7F58A5" d="M64.3,1063.9c-0.3,0-0.5-0.2-0.5-0.5v-23.3c0-18.1,14.7-32.8,32.8-32.8H178c0.3,0,0.5,0.2,0.5,0.5
		s-0.2,0.5-0.5,0.5H96.6c-17.6,0-31.8,14.3-31.8,31.8v23.3C64.8,1063.7,64.5,1063.9,64.3,1063.9z"/>
	<path fill="#7F58A5" d="M76.5,1250.4c-0.3,0-0.5-0.2-0.5-0.5v-4c0-0.3,0.2-0.5,0.5-0.5s0.5,0.2,0.5,0.5v4
		C77,1250.1,76.8,1250.4,76.5,1250.4z M76.5,1242.4c-0.3,0-0.5-0.2-0.5-0.5v-4c0-0.3,0.2-0.5,0.5-0.5s0.5,0.2,0.5,0.5v4
		C77,1242.1,76.8,1242.4,76.5,1242.4z M76.5,1234.4c-0.3,0-0.5-0.2-0.5-0.5v-4c0-0.3,0.2-0.5,0.5-0.5s0.5,0.2,0.5,0.5v4
		C77,1234.1,76.8,1234.4,76.5,1234.4z M76.5,1226.4c-0.3,0-0.5-0.2-0.5-0.5v-4c0-0.3,0.2-0.5,0.5-0.5s0.5,0.2,0.5,0.5v4
		C77,1226.1,76.8,1226.4,76.5,1226.4z M76.5,1218.4c-0.3,0-0.5-0.2-0.5-0.5v-4c0-0.3,0.2-0.5,0.5-0.5s0.5,0.2,0.5,0.5v4
		C77,1218.1,76.8,1218.4,76.5,1218.4z M76.5,1210.4c-0.3,0-0.5-0.2-0.5-0.5v-4c0-0.3,0.2-0.5,0.5-0.5s0.5,0.2,0.5,0.5v4
		C77,1210.1,76.8,1210.4,76.5,1210.4z M76.5,1202.4c-0.3,0-0.5-0.2-0.5-0.5v-4c0-0.3,0.2-0.5,0.5-0.5s0.5,0.2,0.5,0.5v4
		C77,1202.1,76.8,1202.4,76.5,1202.4z M76.5,1194.4c-0.3,0-0.5-0.2-0.5-0.5v-4c0-0.3,0.2-0.5,0.5-0.5s0.5,0.2,0.5,0.5v4
		C77,1194.1,76.8,1194.4,76.5,1194.4z M76.5,1186.4c-0.3,0-0.5-0.2-0.5-0.5v-4c0-0.3,0.2-0.5,0.5-0.5s0.5,0.2,0.5,0.5v4
		C77,1186.1,76.8,1186.4,76.5,1186.4z M76.5,1178.4c-0.3,0-0.5-0.2-0.5-0.5v-4c0-0.3,0.2-0.5,0.5-0.5s0.5,0.2,0.5,0.5v4
		C77,1178.1,76.8,1178.4,76.5,1178.4z M76.5,1170.4c-0.3,0-0.5-0.2-0.5-0.5v-4c0-0.3,0.2-0.5,0.5-0.5s0.5,0.2,0.5,0.5v4
		C77,1170.1,76.8,1170.4,76.5,1170.4z M76.5,1162.4c-0.3,0-0.5-0.2-0.5-0.5v-4c0-0.3,0.2-0.5,0.5-0.5s0.5,0.2,0.5,0.5v4
		C77,1162.1,76.8,1162.4,76.5,1162.4z M76.5,1154.4c-0.3,0-0.5-0.2-0.5-0.5v-4c0-0.3,0.2-0.5,0.5-0.5s0.5,0.2,0.5,0.5v4
		C77,1154.1,76.8,1154.4,76.5,1154.4z M76.5,1146.4c-0.3,0-0.5-0.2-0.5-0.5v-4c0-0.3,0.2-0.5,0.5-0.5s0.5,0.2,0.5,0.5v4
		C77,1146.1,76.8,1146.4,76.5,1146.4z M76.5,1138.4c-0.3,0-0.5-0.2-0.5-0.5v-4c0-0.3,0.2-0.5,0.5-0.5s0.5,0.2,0.5,0.5v4
		C77,1138.1,76.8,1138.4,76.5,1138.4z M76.5,1130.4c-0.3,0-0.5-0.2-0.5-0.5v-4c0-0.3,0.2-0.5,0.5-0.5s0.5,0.2,0.5,0.5v4
		C77,1130.1,76.8,1130.4,76.5,1130.4z M76.5,1122.4c-0.3,0-0.5-0.2-0.5-0.5v-4c0-0.3,0.2-0.5,0.5-0.5s0.5,0.2,0.5,0.5v4
		C77,1122.1,76.8,1122.4,76.5,1122.4z M76.5,1114.4c-0.3,0-0.5-0.2-0.5-0.5v-4c0-0.3,0.2-0.5,0.5-0.5s0.5,0.2,0.5,0.5v4
		C77,1114.1,76.8,1114.4,76.5,1114.4z M76.5,1106.4c-0.3,0-0.5-0.2-0.5-0.5v-4c0-0.3,0.2-0.5,0.5-0.5s0.5,0.2,0.5,0.5v4
		C77,1106.1,76.8,1106.4,76.5,1106.4z M76.5,1098.4c-0.3,0-0.5-0.2-0.5-0.5v-4c0-0.3,0.2-0.5,0.5-0.5s0.5,0.2,0.5,0.5v4
		C77,1098.1,76.8,1098.4,76.5,1098.4z M76.5,1090.4c-0.3,0-0.5-0.2-0.5-0.5v-4c0-0.3,0.2-0.5,0.5-0.5s0.5,0.2,0.5,0.5v4
		C77,1090.1,76.8,1090.4,76.5,1090.4z M76.5,1082.4c-0.3,0-0.5-0.2-0.5-0.5v-4c0-0.3,0.2-0.5,0.5-0.5s0.5,0.2,0.5,0.5v4
		C77,1082.1,76.8,1082.4,76.5,1082.4z M76.5,1074.4c-0.3,0-0.5-0.2-0.5-0.5v-4c0-0.3,0.2-0.5,0.5-0.5s0.5,0.2,0.5,0.5v4
		C77,1074.1,76.8,1074.4,76.5,1074.4z M76.5,1066.4c-0.3,0-0.5-0.2-0.5-0.5v-4c0-0.3,0.2-0.5,0.5-0.5s0.5,0.2,0.5,0.5v4
		C77,1066.1,76.8,1066.4,76.5,1066.4z M76.5,1058.4c-0.3,0-0.5-0.2-0.5-0.5v-4c0-0.3,0.2-0.5,0.5-0.5s0.5,0.2,0.5,0.5v4
		C77,1058.1,76.8,1058.4,76.5,1058.4z M76.5,1050.4c-0.3,0-0.5-0.2-0.5-0.5v-2.7c0-0.5,0-0.9,0-1.3c0-0.3,0.2-0.5,0.5-0.5
		c0.3,0,0.5,0.2,0.5,0.5c0,0.4,0,0.9,0,1.3v2.7C77,1050.1,76.8,1050.4,76.5,1050.4z M77,1042.4c0,0-0.1,0-0.1,0
		c-0.3-0.1-0.4-0.3-0.4-0.6c0.3-1.3,0.7-2.6,1.2-3.9c0.1-0.3,0.4-0.4,0.6-0.3c0.3,0.1,0.4,0.4,0.3,0.6c-0.5,1.2-0.8,2.5-1.1,3.8
		C77.5,1042.2,77.3,1042.4,77,1042.4z M79.9,1035c-0.1,0-0.2,0-0.3-0.1c-0.2-0.1-0.3-0.4-0.2-0.7c0.7-1.2,1.5-2.3,2.3-3.3
		c0.2-0.2,0.5-0.2,0.7-0.1c0.2,0.2,0.2,0.5,0.1,0.7c-0.8,1-1.6,2.1-2.2,3.2C80.2,1034.9,80.1,1035,79.9,1035z M84.9,1028.8
		c-0.1,0-0.3-0.1-0.4-0.2c-0.2-0.2-0.2-0.5,0-0.7c1-0.9,2.1-1.7,3.2-2.5c0.2-0.2,0.5-0.1,0.7,0.1c0.1,0.2,0.1,0.5-0.1,0.7
		c-1.1,0.7-2.1,1.5-3.1,2.4C85.2,1028.8,85,1028.8,84.9,1028.8z M91.6,1024.5c-0.2,0-0.4-0.1-0.5-0.3c-0.1-0.3,0-0.5,0.3-0.7
		c1.2-0.5,2.5-1,3.8-1.3c0.3-0.1,0.5,0.1,0.6,0.4c0.1,0.3-0.1,0.5-0.4,0.6c-1.3,0.3-2.5,0.8-3.7,1.3
		C91.7,1024.5,91.7,1024.5,91.6,1024.5z M99.3,1022.5c-0.3,0-0.5-0.2-0.5-0.5c0-0.3,0.2-0.5,0.4-0.5c0.8-0.1,1.7-0.1,2.5-0.1h1.5
		c0.3,0,0.5,0.2,0.5,0.5s-0.2,0.5-0.5,0.5h-1.5C101,1022.3,100.2,1022.4,99.3,1022.5C99.4,1022.5,99.3,1022.5,99.3,1022.5z
		 M159.3,1022.3h-4c-0.3,0-0.5-0.2-0.5-0.5s0.2-0.5,0.5-0.5h4c0.3,0,0.5,0.2,0.5,0.5S159.6,1022.3,159.3,1022.3z M151.3,1022.3h-4
		c-0.3,0-0.5-0.2-0.5-0.5s0.2-0.5,0.5-0.5h4c0.3,0,0.5,0.2,0.5,0.5S151.6,1022.3,151.3,1022.3z M143.3,1022.3h-4
		c-0.3,0-0.5-0.2-0.5-0.5s0.2-0.5,0.5-0.5h4c0.3,0,0.5,0.2,0.5,0.5S143.6,1022.3,143.3,1022.3z M135.3,1022.3h-4
		c-0.3,0-0.5-0.2-0.5-0.5s0.2-0.5,0.5-0.5h4c0.3,0,0.5,0.2,0.5,0.5S135.6,1022.3,135.3,1022.3z M127.3,1022.3h-4
		c-0.3,0-0.5-0.2-0.5-0.5s0.2-0.5,0.5-0.5h4c0.3,0,0.5,0.2,0.5,0.5S127.6,1022.3,127.3,1022.3z M119.3,1022.3h-4
		c-0.3,0-0.5-0.2-0.5-0.5s0.2-0.5,0.5-0.5h4c0.3,0,0.5,0.2,0.5,0.5S119.6,1022.3,119.3,1022.3z M111.3,1022.3h-4
		c-0.3,0-0.5-0.2-0.5-0.5s0.2-0.5,0.5-0.5h4c0.3,0,0.5,0.2,0.5,0.5S111.6,1022.3,111.3,1022.3z"/>
	<path fill="#7F58A5" d="M87.7,1207.5c-0.3,0-0.5-0.2-0.5-0.5v-149.6c0-0.3,0.2-0.5,0.5-0.5s0.5,0.2,0.5,0.5V1207
		C88.2,1207.3,88,1207.5,87.7,1207.5z"/>
	<path fill="#7F58A5" d="M87.7,1636.3c-0.3,0-0.5-0.2-0.5-0.5v-88.1c0-0.3,0.2-0.5,0.5-0.5s0.5,0.2,0.5,0.5v88.1
		C88.2,1636.1,88,1636.3,87.7,1636.3z"/>
	<path fill="#7F58A5" d="M64.3,1286.6c-0.3,0-0.5-0.2-0.5-0.5v-202.4c0-0.3,0.2-0.5,0.5-0.5s0.5,0.2,0.5,0.5v202.4
		C64.8,1286.4,64.5,1286.6,64.3,1286.6z"/>
	<path fill="#7F58A5" d="M174.7,1273.1c-0.3,0-0.5-0.2-0.5-0.5v-174.9c0-0.3,0.2-0.5,0.5-0.5s0.5,0.2,0.5,0.5v174.9
		C175.2,1272.9,174.9,1273.1,174.7,1273.1z"/>
	<g>
		<path fill="#7F58A5" d="M64.3,2681c-0.3,0-0.5-0.2-0.5-0.5v-4c0-0.3,0.2-0.5,0.5-0.5s0.5,0.2,0.5,0.5v4
			C64.8,2680.8,64.5,2681,64.3,2681z M64.3,2673c-0.3,0-0.5-0.2-0.5-0.5v-4c0-0.3,0.2-0.5,0.5-0.5s0.5,0.2,0.5,0.5v4
			C64.8,2672.8,64.5,2673,64.3,2673z M64.3,2665c-0.3,0-0.5-0.2-0.5-0.5v-4c0-0.3,0.2-0.5,0.5-0.5s0.5,0.2,0.5,0.5v4
			C64.8,2664.8,64.5,2665,64.3,2665z M64.3,2657c-0.3,0-0.5-0.2-0.5-0.5v-4c0-0.3,0.2-0.5,0.5-0.5s0.5,0.2,0.5,0.5v4
			C64.8,2656.8,64.5,2657,64.3,2657z M64.3,2649c-0.3,0-0.5-0.2-0.5-0.5v-4c0-0.3,0.2-0.5,0.5-0.5s0.5,0.2,0.5,0.5v4
			C64.8,2648.8,64.5,2649,64.3,2649z M64.3,2641c-0.3,0-0.5-0.2-0.5-0.5v-4c0-0.3,0.2-0.5,0.5-0.5s0.5,0.2,0.5,0.5v4
			C64.8,2640.8,64.5,2641,64.3,2641z M64.3,2633c-0.3,0-0.5-0.2-0.5-0.5v-4c0-0.3,0.2-0.5,0.5-0.5s0.5,0.2,0.5,0.5v4
			C64.8,2632.8,64.5,2633,64.3,2633z M64.3,2625c-0.3,0-0.5-0.2-0.5-0.5v-4c0-0.3,0.2-0.5,0.5-0.5s0.5,0.2,0.5,0.5v4
			C64.8,2624.8,64.5,2625,64.3,2625z M64.3,2617c-0.3,0-0.5-0.2-0.5-0.5v-4c0-0.3,0.2-0.5,0.5-0.5s0.5,0.2,0.5,0.5v4
			C64.8,2616.8,64.5,2617,64.3,2617z M64.3,2609c-0.3,0-0.5-0.2-0.5-0.5v-4c0-0.3,0.2-0.5,0.5-0.5s0.5,0.2,0.5,0.5v4
			C64.8,2608.8,64.5,2609,64.3,2609z M64.3,2601c-0.3,0-0.5-0.2-0.5-0.5v-4c0-0.3,0.2-0.5,0.5-0.5s0.5,0.2,0.5,0.5v4
			C64.8,2600.8,64.5,2601,64.3,2601z M64.3,2593c-0.3,0-0.5-0.2-0.5-0.5v-4c0-0.3,0.2-0.5,0.5-0.5s0.5,0.2,0.5,0.5v4
			C64.8,2592.8,64.5,2593,64.3,2593z M64.3,2585c-0.3,0-0.5-0.2-0.5-0.5v-4c0-0.3,0.2-0.5,0.5-0.5s0.5,0.2,0.5,0.5v4
			C64.8,2584.8,64.5,2585,64.3,2585z M64.3,2577c-0.3,0-0.5-0.2-0.5-0.5v-4c0-0.3,0.2-0.5,0.5-0.5s0.5,0.2,0.5,0.5v4
			C64.8,2576.8,64.5,2577,64.3,2577z M64.3,2569c-0.3,0-0.5-0.2-0.5-0.5v-4c0-0.3,0.2-0.5,0.5-0.5s0.5,0.2,0.5,0.5v4
			C64.8,2568.8,64.5,2569,64.3,2569z M64.3,2561c-0.3,0-0.5-0.2-0.5-0.5v-4c0-0.3,0.2-0.5,0.5-0.5s0.5,0.2,0.5,0.5v4
			C64.8,2560.8,64.5,2561,64.3,2561z M64.3,2553c-0.3,0-0.5-0.2-0.5-0.5v-4c0-0.3,0.2-0.5,0.5-0.5s0.5,0.2,0.5,0.5v4
			C64.8,2552.8,64.5,2553,64.3,2553z M64.3,2545c-0.3,0-0.5-0.2-0.5-0.5v-4c0-0.3,0.2-0.5,0.5-0.5s0.5,0.2,0.5,0.5v4
			C64.8,2544.8,64.5,2545,64.3,2545z M64.3,2537c-0.3,0-0.5-0.2-0.5-0.5v-4c0-0.3,0.2-0.5,0.5-0.5s0.5,0.2,0.5,0.5v4
			C64.8,2536.8,64.5,2537,64.3,2537z M64.3,2529c-0.3,0-0.5-0.2-0.5-0.5v-4c0-0.3,0.2-0.5,0.5-0.5s0.5,0.2,0.5,0.5v4
			C64.8,2528.8,64.5,2529,64.3,2529z M64.3,2521c-0.3,0-0.5-0.2-0.5-0.5v-4c0-0.3,0.2-0.5,0.5-0.5s0.5,0.2,0.5,0.5v4
			C64.8,2520.8,64.5,2521,64.3,2521z M64.3,2513c-0.3,0-0.5-0.2-0.5-0.5v-4c0-0.3,0.2-0.5,0.5-0.5s0.5,0.2,0.5,0.5v4
			C64.8,2512.8,64.5,2513,64.3,2513z M64.3,2505c-0.3,0-0.5-0.2-0.5-0.5v-4c0-0.3,0.2-0.5,0.5-0.5s0.5,0.2,0.5,0.5v4
			C64.8,2504.8,64.5,2505,64.3,2505z M64.3,2497c-0.3,0-0.5-0.2-0.5-0.5v-4c0-0.3,0.2-0.5,0.5-0.5s0.5,0.2,0.5,0.5v4
			C64.8,2496.8,64.5,2497,64.3,2497z M64.3,2489c-0.3,0-0.5-0.2-0.5-0.5v-4c0-0.3,0.2-0.5,0.5-0.5s0.5,0.2,0.5,0.5v4
			C64.8,2488.8,64.5,2489,64.3,2489z M64.3,2481c-0.3,0-0.5-0.2-0.5-0.5v-4c0-0.3,0.2-0.5,0.5-0.5s0.5,0.2,0.5,0.5v4
			C64.8,2480.8,64.5,2481,64.3,2481z M64.3,2473c-0.3,0-0.5-0.2-0.5-0.5v-4c0-0.3,0.2-0.5,0.5-0.5s0.5,0.2,0.5,0.5v4
			C64.8,2472.8,64.5,2473,64.3,2473z M64.3,2465c-0.3,0-0.5-0.2-0.5-0.5v-4c0-0.3,0.2-0.5,0.5-0.5s0.5,0.2,0.5,0.5v4
			C64.8,2464.8,64.5,2465,64.3,2465z M64.3,2457c-0.3,0-0.5-0.2-0.5-0.5v-4c0-0.3,0.2-0.5,0.5-0.5s0.5,0.2,0.5,0.5v4
			C64.8,2456.8,64.5,2457,64.3,2457z M64.3,2449c-0.3,0-0.5-0.2-0.5-0.5v-4c0-0.3,0.2-0.5,0.5-0.5s0.5,0.2,0.5,0.5v4
			C64.8,2448.8,64.5,2449,64.3,2449z M64.3,2441c-0.3,0-0.5-0.2-0.5-0.5v-4c0-0.3,0.2-0.5,0.5-0.5s0.5,0.2,0.5,0.5v4
			C64.8,2440.8,64.5,2441,64.3,2441z M64.3,2433c-0.3,0-0.5-0.2-0.5-0.5v-4c0-0.3,0.2-0.5,0.5-0.5s0.5,0.2,0.5,0.5v4
			C64.8,2432.8,64.5,2433,64.3,2433z M64.3,2425c-0.3,0-0.5-0.2-0.5-0.5v-4c0-0.3,0.2-0.5,0.5-0.5s0.5,0.2,0.5,0.5v4
			C64.8,2424.8,64.5,2425,64.3,2425z M64.3,2417c-0.3,0-0.5-0.2-0.5-0.5v-4c0-0.3,0.2-0.5,0.5-0.5s0.5,0.2,0.5,0.5v4
			C64.8,2416.8,64.5,2417,64.3,2417z M64.3,2409c-0.3,0-0.5-0.2-0.5-0.5v-4c0-0.3,0.2-0.5,0.5-0.5s0.5,0.2,0.5,0.5v4
			C64.8,2408.8,64.5,2409,64.3,2409z M64.3,2401c-0.3,0-0.5-0.2-0.5-0.5v-4c0-0.3,0.2-0.5,0.5-0.5s0.5,0.2,0.5,0.5v4
			C64.8,2400.8,64.5,2401,64.3,2401z M64.3,2393c-0.3,0-0.5-0.2-0.5-0.5v-4c0-0.3,0.2-0.5,0.5-0.5s0.5,0.2,0.5,0.5v4
			C64.8,2392.8,64.5,2393,64.3,2393z M64.3,2385c-0.3,0-0.5-0.2-0.5-0.5v-4c0-0.3,0.2-0.5,0.5-0.5s0.5,0.2,0.5,0.5v4
			C64.8,2384.8,64.5,2385,64.3,2385z M64.3,2377c-0.3,0-0.5-0.2-0.5-0.5v-4c0-0.3,0.2-0.5,0.5-0.5s0.5,0.2,0.5,0.5v4
			C64.8,2376.8,64.5,2377,64.3,2377z M64.3,2369c-0.3,0-0.5-0.2-0.5-0.5v-4c0-0.3,0.2-0.5,0.5-0.5s0.5,0.2,0.5,0.5v4
			C64.8,2368.8,64.5,2369,64.3,2369z M64.3,2361c-0.3,0-0.5-0.2-0.5-0.5v-4c0-0.3,0.2-0.5,0.5-0.5s0.5,0.2,0.5,0.5v4
			C64.8,2360.8,64.5,2361,64.3,2361z M64.3,2353c-0.3,0-0.5-0.2-0.5-0.5v-4c0-0.3,0.2-0.5,0.5-0.5s0.5,0.2,0.5,0.5v4
			C64.8,2352.8,64.5,2353,64.3,2353z M64.3,2345c-0.3,0-0.5-0.2-0.5-0.5v-4c0-0.3,0.2-0.5,0.5-0.5s0.5,0.2,0.5,0.5v4
			C64.8,2344.8,64.5,2345,64.3,2345z M64.3,2337c-0.3,0-0.5-0.2-0.5-0.5v-4c0-0.3,0.2-0.5,0.5-0.5s0.5,0.2,0.5,0.5v4
			C64.8,2336.8,64.5,2337,64.3,2337z M64.3,2329c-0.3,0-0.5-0.2-0.5-0.5v-4c0-0.3,0.2-0.5,0.5-0.5s0.5,0.2,0.5,0.5v4
			C64.8,2328.8,64.5,2329,64.3,2329z M64.3,2321c-0.3,0-0.5-0.2-0.5-0.5v-4c0-0.3,0.2-0.5,0.5-0.5s0.5,0.2,0.5,0.5v4
			C64.8,2320.8,64.5,2321,64.3,2321z M64.3,2313c-0.3,0-0.5-0.2-0.5-0.5v-4c0-0.3,0.2-0.5,0.5-0.5s0.5,0.2,0.5,0.5v4
			C64.8,2312.8,64.5,2313,64.3,2313z M64.3,2305c-0.3,0-0.5-0.2-0.5-0.5v-4c0-0.3,0.2-0.5,0.5-0.5s0.5,0.2,0.5,0.5v4
			C64.8,2304.8,64.5,2305,64.3,2305z M64.3,2297c-0.3,0-0.5-0.2-0.5-0.5v-4c0-0.3,0.2-0.5,0.5-0.5s0.5,0.2,0.5,0.5v4
			C64.8,2296.8,64.5,2297,64.3,2297z M64.3,2289c-0.3,0-0.5-0.2-0.5-0.5v-4c0-0.3,0.2-0.5,0.5-0.5s0.5,0.2,0.5,0.5v4
			C64.8,2288.8,64.5,2289,64.3,2289z M64.3,2281c-0.3,0-0.5-0.2-0.5-0.5v-4c0-0.3,0.2-0.5,0.5-0.5s0.5,0.2,0.5,0.5v4
			C64.8,2280.8,64.5,2281,64.3,2281z M64.3,2273c-0.3,0-0.5-0.2-0.5-0.5v-4c0-0.3,0.2-0.5,0.5-0.5s0.5,0.2,0.5,0.5v4
			C64.8,2272.8,64.5,2273,64.3,2273z M64.3,2265c-0.3,0-0.5-0.2-0.5-0.5v-4c0-0.3,0.2-0.5,0.5-0.5s0.5,0.2,0.5,0.5v4
			C64.8,2264.8,64.5,2265,64.3,2265z M64.3,2257c-0.3,0-0.5-0.2-0.5-0.5v-4c0-0.3,0.2-0.5,0.5-0.5s0.5,0.2,0.5,0.5v4
			C64.8,2256.8,64.5,2257,64.3,2257z M64.3,2249c-0.3,0-0.5-0.2-0.5-0.5v-4c0-0.3,0.2-0.5,0.5-0.5s0.5,0.2,0.5,0.5v4
			C64.8,2248.8,64.5,2249,64.3,2249z M64.3,2241c-0.3,0-0.5-0.2-0.5-0.5v-4c0-0.3,0.2-0.5,0.5-0.5s0.5,0.2,0.5,0.5v4
			C64.8,2240.8,64.5,2241,64.3,2241z M64.3,2233c-0.3,0-0.5-0.2-0.5-0.5v-4c0-0.3,0.2-0.5,0.5-0.5s0.5,0.2,0.5,0.5v4
			C64.8,2232.8,64.5,2233,64.3,2233z M64.3,2225c-0.3,0-0.5-0.2-0.5-0.5v-4c0-0.3,0.2-0.5,0.5-0.5s0.5,0.2,0.5,0.5v4
			C64.8,2224.8,64.5,2225,64.3,2225z M64.3,2217c-0.3,0-0.5-0.2-0.5-0.5v-4c0-0.3,0.2-0.5,0.5-0.5s0.5,0.2,0.5,0.5v4
			C64.8,2216.8,64.5,2217,64.3,2217z M64.3,2209c-0.3,0-0.5-0.2-0.5-0.5v-4c0-0.3,0.2-0.5,0.5-0.5s0.5,0.2,0.5,0.5v4
			C64.8,2208.8,64.5,2209,64.3,2209z M64.3,2201c-0.3,0-0.5-0.2-0.5-0.5v-4c0-0.3,0.2-0.5,0.5-0.5s0.5,0.2,0.5,0.5v4
			C64.8,2200.8,64.5,2201,64.3,2201z M64.3,2193c-0.3,0-0.5-0.2-0.5-0.5v-4c0-0.3,0.2-0.5,0.5-0.5s0.5,0.2,0.5,0.5v4
			C64.8,2192.8,64.5,2193,64.3,2193z M64.3,2185c-0.3,0-0.5-0.2-0.5-0.5v-4c0-0.3,0.2-0.5,0.5-0.5s0.5,0.2,0.5,0.5v4
			C64.8,2184.8,64.5,2185,64.3,2185z M64.3,2177c-0.3,0-0.5-0.2-0.5-0.5v-4c0-0.3,0.2-0.5,0.5-0.5s0.5,0.2,0.5,0.5v4
			C64.8,2176.8,64.5,2177,64.3,2177z M64.3,2169c-0.3,0-0.5-0.2-0.5-0.5v-4c0-0.3,0.2-0.5,0.5-0.5s0.5,0.2,0.5,0.5v4
			C64.8,2168.8,64.5,2169,64.3,2169z M64.3,2161c-0.3,0-0.5-0.2-0.5-0.5v-4c0-0.3,0.2-0.5,0.5-0.5s0.5,0.2,0.5,0.5v4
			C64.8,2160.8,64.5,2161,64.3,2161z M64.3,2153c-0.3,0-0.5-0.2-0.5-0.5v-4c0-0.3,0.2-0.5,0.5-0.5s0.5,0.2,0.5,0.5v4
			C64.8,2152.8,64.5,2153,64.3,2153z M64.3,2145c-0.3,0-0.5-0.2-0.5-0.5v-4c0-0.3,0.2-0.5,0.5-0.5s0.5,0.2,0.5,0.5v4
			C64.8,2144.8,64.5,2145,64.3,2145z M64.3,2137c-0.3,0-0.5-0.2-0.5-0.5v-4c0-0.3,0.2-0.5,0.5-0.5s0.5,0.2,0.5,0.5v4
			C64.8,2136.8,64.5,2137,64.3,2137z M64.3,2129c-0.3,0-0.5-0.2-0.5-0.5v-4c0-0.3,0.2-0.5,0.5-0.5s0.5,0.2,0.5,0.5v4
			C64.8,2128.8,64.5,2129,64.3,2129z M64.3,2121c-0.3,0-0.5-0.2-0.5-0.5v-4c0-0.3,0.2-0.5,0.5-0.5s0.5,0.2,0.5,0.5v4
			C64.8,2120.8,64.5,2121,64.3,2121z M64.3,2113c-0.3,0-0.5-0.2-0.5-0.5v-4c0-0.3,0.2-0.5,0.5-0.5s0.5,0.2,0.5,0.5v4
			C64.8,2112.8,64.5,2113,64.3,2113z M64.3,2105c-0.3,0-0.5-0.2-0.5-0.5v-4c0-0.3,0.2-0.5,0.5-0.5s0.5,0.2,0.5,0.5v4
			C64.8,2104.8,64.5,2105,64.3,2105z M64.3,2097c-0.3,0-0.5-0.2-0.5-0.5v-4c0-0.3,0.2-0.5,0.5-0.5s0.5,0.2,0.5,0.5v4
			C64.8,2096.8,64.5,2097,64.3,2097z M64.3,2089c-0.3,0-0.5-0.2-0.5-0.5v-4c0-0.3,0.2-0.5,0.5-0.5s0.5,0.2,0.5,0.5v4
			C64.8,2088.8,64.5,2089,64.3,2089z M64.3,2081c-0.3,0-0.5-0.2-0.5-0.5v-4c0-0.3,0.2-0.5,0.5-0.5s0.5,0.2,0.5,0.5v4
			C64.8,2080.8,64.5,2081,64.3,2081z M64.3,2073c-0.3,0-0.5-0.2-0.5-0.5v-4c0-0.3,0.2-0.5,0.5-0.5s0.5,0.2,0.5,0.5v4
			C64.8,2072.8,64.5,2073,64.3,2073z M64.3,2065c-0.3,0-0.5-0.2-0.5-0.5v-4c0-0.3,0.2-0.5,0.5-0.5s0.5,0.2,0.5,0.5v4
			C64.8,2064.8,64.5,2065,64.3,2065z M64.3,2057c-0.3,0-0.5-0.2-0.5-0.5v-4c0-0.3,0.2-0.5,0.5-0.5s0.5,0.2,0.5,0.5v4
			C64.8,2056.8,64.5,2057,64.3,2057z M64.3,2049c-0.3,0-0.5-0.2-0.5-0.5v-4c0-0.3,0.2-0.5,0.5-0.5s0.5,0.2,0.5,0.5v4
			C64.8,2048.8,64.5,2049,64.3,2049z M64.3,2041c-0.3,0-0.5-0.2-0.5-0.5v-4c0-0.3,0.2-0.5,0.5-0.5s0.5,0.2,0.5,0.5v4
			C64.8,2040.8,64.5,2041,64.3,2041z"/>
		<path fill="#7F58A5" d="M64.3,1967.1c-0.3,0-0.5-0.2-0.5-0.5v-1.1c0-0.3,0.2-0.5,0.5-0.5s0.5,0.2,0.5,0.5v1.1
			C64.8,1966.8,64.5,1967.1,64.3,1967.1z M64.3,1961.9c-0.3,0-0.5-0.2-0.5-0.5v-4c0-0.3,0.2-0.5,0.5-0.5s0.5,0.2,0.5,0.5v4
			C64.8,1961.7,64.5,1961.9,64.3,1961.9z M64.3,1953.9c-0.3,0-0.5-0.2-0.5-0.5v-4c0-0.3,0.2-0.5,0.5-0.5s0.5,0.2,0.5,0.5v4
			C64.8,1953.7,64.5,1953.9,64.3,1953.9z M64.3,1945.9c-0.3,0-0.5-0.2-0.5-0.5v-4c0-0.3,0.2-0.5,0.5-0.5s0.5,0.2,0.5,0.5v4
			C64.8,1945.7,64.5,1945.9,64.3,1945.9z M64.3,1937.9c-0.3,0-0.5-0.2-0.5-0.5v-4c0-0.3,0.2-0.5,0.5-0.5s0.5,0.2,0.5,0.5v4
			C64.8,1937.7,64.5,1937.9,64.3,1937.9z M64.3,1929.9c-0.3,0-0.5-0.2-0.5-0.5v-4c0-0.3,0.2-0.5,0.5-0.5s0.5,0.2,0.5,0.5v4
			C64.8,1929.7,64.5,1929.9,64.3,1929.9z M64.3,1921.9c-0.3,0-0.5-0.2-0.5-0.5v-4c0-0.3,0.2-0.5,0.5-0.5s0.5,0.2,0.5,0.5v4
			C64.8,1921.7,64.5,1921.9,64.3,1921.9z M64.3,1913.9c-0.3,0-0.5-0.2-0.5-0.5v-4c0-0.3,0.2-0.5,0.5-0.5s0.5,0.2,0.5,0.5v4
			C64.8,1913.7,64.5,1913.9,64.3,1913.9z M64.3,1905.9c-0.3,0-0.5-0.2-0.5-0.5v-4c0-0.3,0.2-0.5,0.5-0.5s0.5,0.2,0.5,0.5v4
			C64.8,1905.7,64.5,1905.9,64.3,1905.9z M64.3,1897.9c-0.3,0-0.5-0.2-0.5-0.5v-4c0-0.3,0.2-0.5,0.5-0.5s0.5,0.2,0.5,0.5v4
			C64.8,1897.7,64.5,1897.9,64.3,1897.9z M64.3,1889.9c-0.3,0-0.5-0.2-0.5-0.5v-4c0-0.3,0.2-0.5,0.5-0.5s0.5,0.2,0.5,0.5v4
			C64.8,1889.7,64.5,1889.9,64.3,1889.9z M64.3,1881.9c-0.3,0-0.5-0.2-0.5-0.5v-4c0-0.3,0.2-0.5,0.5-0.5s0.5,0.2,0.5,0.5v4
			C64.8,1881.7,64.5,1881.9,64.3,1881.9z M64.3,1873.9c-0.3,0-0.5-0.2-0.5-0.5v-4c0-0.3,0.2-0.5,0.5-0.5s0.5,0.2,0.5,0.5v4
			C64.8,1873.7,64.5,1873.9,64.3,1873.9z M64.3,1865.9c-0.3,0-0.5-0.2-0.5-0.5v-4c0-0.3,0.2-0.5,0.5-0.5s0.5,0.2,0.5,0.5v4
			C64.8,1865.7,64.5,1865.9,64.3,1865.9z M64.3,1857.9c-0.3,0-0.5-0.2-0.5-0.5v-4c0-0.3,0.2-0.5,0.5-0.5s0.5,0.2,0.5,0.5v4
			C64.8,1857.7,64.5,1857.9,64.3,1857.9z M64.3,1849.9c-0.3,0-0.5-0.2-0.5-0.5v-4c0-0.3,0.2-0.5,0.5-0.5s0.5,0.2,0.5,0.5v4
			C64.8,1849.7,64.5,1849.9,64.3,1849.9z M64.3,1841.9c-0.3,0-0.5-0.2-0.5-0.5v-4c0-0.3,0.2-0.5,0.5-0.5s0.5,0.2,0.5,0.5v4
			C64.8,1841.7,64.5,1841.9,64.3,1841.9z M64.3,1833.9c-0.3,0-0.5-0.2-0.5-0.5v-4c0-0.3,0.2-0.5,0.5-0.5s0.5,0.2,0.5,0.5v4
			C64.8,1833.7,64.5,1833.9,64.3,1833.9z M64.3,1825.9c-0.3,0-0.5-0.2-0.5-0.5v-4c0-0.3,0.2-0.5,0.5-0.5s0.5,0.2,0.5,0.5v4
			C64.8,1825.7,64.5,1825.9,64.3,1825.9z M64.3,1817.9c-0.3,0-0.5-0.2-0.5-0.5v-4c0-0.3,0.2-0.5,0.5-0.5s0.5,0.2,0.5,0.5v4
			C64.8,1817.7,64.5,1817.9,64.3,1817.9z M64.3,1809.9c-0.3,0-0.5-0.2-0.5-0.5v-4c0-0.3,0.2-0.5,0.5-0.5s0.5,0.2,0.5,0.5v4
			C64.8,1809.7,64.5,1809.9,64.3,1809.9z M64.3,1801.9c-0.3,0-0.5-0.2-0.5-0.5v-4c0-0.3,0.2-0.5,0.5-0.5s0.5,0.2,0.5,0.5v4
			C64.8,1801.7,64.5,1801.9,64.3,1801.9z M64.3,1793.9c-0.3,0-0.5-0.2-0.5-0.5v-4c0-0.3,0.2-0.5,0.5-0.5s0.5,0.2,0.5,0.5v4
			C64.8,1793.7,64.5,1793.9,64.3,1793.9z M64.3,1785.9c-0.3,0-0.5-0.2-0.5-0.5v-4c0-0.3,0.2-0.5,0.5-0.5s0.5,0.2,0.5,0.5v4
			C64.8,1785.7,64.5,1785.9,64.3,1785.9z M64.3,1777.9c-0.3,0-0.5-0.2-0.5-0.5v-4c0-0.3,0.2-0.5,0.5-0.5s0.5,0.2,0.5,0.5v4
			C64.8,1777.7,64.5,1777.9,64.3,1777.9z M64.3,1769.9c-0.3,0-0.5-0.2-0.5-0.5v-4c0-0.3,0.2-0.5,0.5-0.5s0.5,0.2,0.5,0.5v4
			C64.8,1769.7,64.5,1769.9,64.3,1769.9z M64.3,1761.9c-0.3,0-0.5-0.2-0.5-0.5v-4c0-0.3,0.2-0.5,0.5-0.5s0.5,0.2,0.5,0.5v4
			C64.8,1761.7,64.5,1761.9,64.3,1761.9z M64.3,1753.9c-0.3,0-0.5-0.2-0.5-0.5v-4c0-0.3,0.2-0.5,0.5-0.5s0.5,0.2,0.5,0.5v4
			C64.8,1753.7,64.5,1753.9,64.3,1753.9z M64.3,1745.9c-0.3,0-0.5-0.2-0.5-0.5v-4c0-0.3,0.2-0.5,0.5-0.5s0.5,0.2,0.5,0.5v4
			C64.8,1745.7,64.5,1745.9,64.3,1745.9z M64.3,1737.9c-0.3,0-0.5-0.2-0.5-0.5v-4c0-0.3,0.2-0.5,0.5-0.5s0.5,0.2,0.5,0.5v4
			C64.8,1737.7,64.5,1737.9,64.3,1737.9z M64.3,1729.9c-0.3,0-0.5-0.2-0.5-0.5v-4c0-0.3,0.2-0.5,0.5-0.5s0.5,0.2,0.5,0.5v4
			C64.8,1729.7,64.5,1729.9,64.3,1729.9z M64.3,1721.9c-0.3,0-0.5-0.2-0.5-0.5v-4c0-0.3,0.2-0.5,0.5-0.5s0.5,0.2,0.5,0.5v4
			C64.8,1721.7,64.5,1721.9,64.3,1721.9z M64.3,1713.9c-0.3,0-0.5-0.2-0.5-0.5v-4c0-0.3,0.2-0.5,0.5-0.5s0.5,0.2,0.5,0.5v4
			C64.8,1713.7,64.5,1713.9,64.3,1713.9z M64.3,1705.9c-0.3,0-0.5-0.2-0.5-0.5v-4c0-0.3,0.2-0.5,0.5-0.5s0.5,0.2,0.5,0.5v4
			C64.8,1705.7,64.5,1705.9,64.3,1705.9z M64.3,1697.9c-0.3,0-0.5-0.2-0.5-0.5v-4c0-0.3,0.2-0.5,0.5-0.5s0.5,0.2,0.5,0.5v4
			C64.8,1697.7,64.5,1697.9,64.3,1697.9z M64.3,1689.9c-0.3,0-0.5-0.2-0.5-0.5v-4c0-0.3,0.2-0.5,0.5-0.5s0.5,0.2,0.5,0.5v4
			C64.8,1689.7,64.5,1689.9,64.3,1689.9z M64.3,1681.9c-0.3,0-0.5-0.2-0.5-0.5v-4c0-0.3,0.2-0.5,0.5-0.5s0.5,0.2,0.5,0.5v4
			C64.8,1681.7,64.5,1681.9,64.3,1681.9z M64.3,1673.9c-0.3,0-0.5-0.2-0.5-0.5v-4c0-0.3,0.2-0.5,0.5-0.5s0.5,0.2,0.5,0.5v4
			C64.8,1673.7,64.5,1673.9,64.3,1673.9z M64.3,1665.9c-0.3,0-0.5-0.2-0.5-0.5v-4c0-0.3,0.2-0.5,0.5-0.5s0.5,0.2,0.5,0.5v4
			C64.8,1665.7,64.5,1665.9,64.3,1665.9z M64.3,1657.9c-0.3,0-0.5-0.2-0.5-0.5v-4c0-0.3,0.2-0.5,0.5-0.5s0.5,0.2,0.5,0.5v4
			C64.8,1657.7,64.5,1657.9,64.3,1657.9z M64.3,1649.9c-0.3,0-0.5-0.2-0.5-0.5v-4c0-0.3,0.2-0.5,0.5-0.5s0.5,0.2,0.5,0.5v4
			C64.8,1649.7,64.5,1649.9,64.3,1649.9z M64.3,1641.9c-0.3,0-0.5-0.2-0.5-0.5v-4c0-0.3,0.2-0.5,0.5-0.5s0.5,0.2,0.5,0.5v4
			C64.8,1641.7,64.5,1641.9,64.3,1641.9z M64.3,1633.9c-0.3,0-0.5-0.2-0.5-0.5v-4c0-0.3,0.2-0.5,0.5-0.5s0.5,0.2,0.5,0.5v4
			C64.8,1633.7,64.5,1633.9,64.3,1633.9z M64.3,1625.9c-0.3,0-0.5-0.2-0.5-0.5v-4c0-0.3,0.2-0.5,0.5-0.5s0.5,0.2,0.5,0.5v4
			C64.8,1625.7,64.5,1625.9,64.3,1625.9z M64.3,1617.9c-0.3,0-0.5-0.2-0.5-0.5v-4c0-0.3,0.2-0.5,0.5-0.5s0.5,0.2,0.5,0.5v4
			C64.8,1617.7,64.5,1617.9,64.3,1617.9z M64.3,1609.9c-0.3,0-0.5-0.2-0.5-0.5v-4c0-0.3,0.2-0.5,0.5-0.5s0.5,0.2,0.5,0.5v4
			C64.8,1609.7,64.5,1609.9,64.3,1609.9z M64.3,1601.9c-0.3,0-0.5-0.2-0.5-0.5v-4c0-0.3,0.2-0.5,0.5-0.5s0.5,0.2,0.5,0.5v4
			C64.8,1601.7,64.5,1601.9,64.3,1601.9z M64.3,1593.9c-0.3,0-0.5-0.2-0.5-0.5v-4c0-0.3,0.2-0.5,0.5-0.5s0.5,0.2,0.5,0.5v4
			C64.8,1593.7,64.5,1593.9,64.3,1593.9z M64.3,1585.9c-0.3,0-0.5-0.2-0.5-0.5v-4c0-0.3,0.2-0.5,0.5-0.5s0.5,0.2,0.5,0.5v4
			C64.8,1585.7,64.5,1585.9,64.3,1585.9z M64.3,1577.9c-0.3,0-0.5-0.2-0.5-0.5v-4c0-0.3,0.2-0.5,0.5-0.5s0.5,0.2,0.5,0.5v4
			C64.8,1577.7,64.5,1577.9,64.3,1577.9z M64.3,1569.9c-0.3,0-0.5-0.2-0.5-0.5v-4c0-0.3,0.2-0.5,0.5-0.5s0.5,0.2,0.5,0.5v4
			C64.8,1569.7,64.5,1569.9,64.3,1569.9z M64.3,1561.9c-0.3,0-0.5-0.2-0.5-0.5v-4c0-0.3,0.2-0.5,0.5-0.5s0.5,0.2,0.5,0.5v4
			C64.8,1561.7,64.5,1561.9,64.3,1561.9z M64.3,1553.9c-0.3,0-0.5-0.2-0.5-0.5v-4c0-0.3,0.2-0.5,0.5-0.5s0.5,0.2,0.5,0.5v4
			C64.8,1553.7,64.5,1553.9,64.3,1553.9z"/>
		<path fill="#7F58A5" d="M76.5,1855.9c-0.3,0-0.5-0.2-0.5-0.5v-297.8c0-0.3,0.2-0.5,0.5-0.5s0.5,0.2,0.5,0.5v297.8
			C77,1855.7,76.7,1855.9,76.5,1855.9z"/>
		<path fill="#7F58A5" d="M54.8,2149.4c-0.3,0-0.5-0.2-0.5-0.5v-158.6c0-0.3,0.2-0.5,0.5-0.5s0.5,0.2,0.5,0.5v158.6
			C55.3,2149.1,55,2149.4,54.8,2149.4z"/>
	</g>
	<g>
		<g>
			<path fill="#7F58A5" d="M113.4,2776.3c-1.9-1.8-3.5-2.8-5.9-2.8c-2.7,0-4.3,1.3-4.3,3.8c0,5.7,14,5,13.9,15.3
				c0,5-2.9,8.8-8.2,9.7l0,5.4l-4.6,0l0-5.2c-3.1-0.4-6.7-1.9-9.1-4.1l3-4.5c2.5,2,5,3.2,7.6,3.2c3.2,0,4.7-1.4,4.7-4
				c0-6.2-14-5.8-13.9-15.4c0-5,3.1-8.5,7.9-9.4l0-5.4l4.6,0l0,5.3c3.3,0.5,5.7,2.2,7.6,4.3L113.4,2776.3z"/>
		</g>
		<g>
			<path fill="#7F58A5" d="M59.6,2869.7c-8.6,0-10.5-25.4-10.5-25.4H35.8C35.8,2844.3,38.1,2869.7,59.6,2869.7s35.2-16.7,35.2-32.6
				H78.9C78.9,2837.1,71.1,2869.7,59.6,2869.7z"/>
			<polygon fill="#7F58A5" points="66.7,2843.2 88.4,2811.2 104,2845.7 85.2,2838.5 			"/>
		</g>
		<polygon fill="#7F58A5" points="6.9,2855.1 5.9,2855.1 5.9,2827.2 6,2826.9 33.9,2794.5 34.8,2794.8 34.8,2825.5 33.8,2825.5 
			33.8,2796.2 6.9,2827.4 		"/>
		<polygon fill="#7F58A5" points="43.9,2830 18,2830 18,2829 42.9,2829 42.9,2782.4 58.2,2782.4 58.2,2757.4 89.9,2757.4 
			89.9,2805.7 88.9,2805.7 88.9,2758.4 59.2,2758.4 59.2,2783.4 43.9,2783.4 		"/>
		<polygon fill="#7F58A5" points="50.6,2839.7 49.6,2839.7 49.6,2832.4 58.1,2832.4 58.1,2801.9 85,2801.9 85,2802.9 59.1,2802.9 
			59.1,2833.4 50.6,2833.4 		"/>
		<polygon fill="#7F58A5" points="68.2,2802.4 67.2,2802.4 67.2,2794 84.4,2794 84.4,2795 68.2,2795 		"/>
		<rect x="74.2" y="2780.7" fill="#7F58A5" width="1" height="13.9"/>
		<polygon fill="#7F58A5" points="89.9,2757.9 88.9,2757.9 88.9,2751 66.5,2751 66.5,2757.3 65.5,2757.3 65.5,2750 89.9,2750 		"/>
		<polygon fill="#7F58A5" points="89.9,2750.5 88.9,2750.5 88.9,2743.7 74.5,2743.7 74.5,2750 73.5,2750 73.5,2742.7 89.9,2742.7 		
			"/>
		<rect x="85.2" y="2725.5" fill="#7F58A5" width="1" height="17.7"/>
		<rect x="63.4" y="2761.9" fill="#7F58A5" width="1" height="12.5"/>
		<rect x="47.1" y="2785.3" fill="#7F58A5" width="1" height="41"/>
		<rect x="52" y="2785.3" fill="#7F58A5" width="1" height="41"/>
		<rect x="68.6" y="2761.9" fill="#7F58A5" width="1" height="12.5"/>
		<rect x="73.8" y="2761.9" fill="#7F58A5" width="1" height="12.5"/>
		<rect x="78.9" y="2761.9" fill="#7F58A5" width="1" height="12.5"/>
		<rect x="84.1" y="2761.9" fill="#7F58A5" width="1" height="12.5"/>
		<rect x="62.3" y="2805.1" fill="#7F58A5" width="1" height="26.4"/>
		<rect x="66.6" y="2805.1" fill="#7F58A5" width="1" height="26.4"/>
		<rect x="71" y="2805.1" fill="#7F58A5" width="1" height="26.4"/>
		<rect x="75.1" y="2805.1" fill="#7F58A5" width="1" height="22"/>
		<rect x="78.6" y="2805.1" fill="#7F58A5" width="1" height="16.8"/>
		<g>
			<rect x="29.5" y="2808.4" fill="#7F58A5" width="1" height="15.8"/>
			<rect x="24.7" y="2813" fill="#7F58A5" width="1" height="12.7"/>
			<rect x="20" y="2817.5" fill="#7F58A5" width="1" height="9.6"/>
			<rect x="15.2" y="2822.1" fill="#7F58A5" width="1" height="33"/>
			<rect x="10.4" y="2826.6" fill="#7F58A5" width="1" height="28.5"/>
		</g>
		<rect x="19.7" y="2832.6" fill="#7F58A5" width="1" height="22.3"/>
		<rect x="24.6" y="2832.6" fill="#7F58A5" width="1" height="22.3"/>
		<rect x="29.5" y="2832.6" fill="#7F58A5" width="1" height="22.3"/>
		<rect x="34.3" y="2794.3" fill="#7F58A5" width="9" height="1"/>
		<rect x="37.6" y="2799.4" fill="#7F58A5" width="1" height="6.5"/>
		<rect x="37.6" y="2808.9" fill="#7F58A5" width="1" height="6.5"/>
		<rect x="37.6" y="2818.5" fill="#7F58A5" width="1" height="6.5"/>
		<rect x="34.4" y="2833" fill="#7F58A5" width="9" height="1"/>
		<rect x="34.4" y="2836.6" fill="#7F58A5" width="9" height="1"/>
		<rect x="34.4" y="2840.2" fill="#7F58A5" width="9" height="1"/>
		<rect x="82.7" y="2805.1" fill="#7F58A5" width="1" height="9.7"/>
	</g>
	<path fill="#7F58A5" d="M93.5,2893.6h-3.2v-1h3.2c0.3,0,0.5,0,0.8,0l0.1,1C94.1,2893.5,93.8,2893.6,93.5,2893.6z M86.4,2893.6h-4
		v-1h4V2893.6z M78.4,2893.6h-4v-1h4V2893.6z M70.4,2893.6h-4v-1h4V2893.6z M62.4,2893.6h-4v-1h4V2893.6z M54.4,2893.6h-4v-1h4
		V2893.6z M46.4,2893.6h-4v-1h4V2893.6z M38.4,2893.6h-4v-1h4V2893.6z M30.4,2893.6h-1.5c-0.9,0-1.7-0.1-2.6-0.2l0.2-1
		c0.8,0.1,1.6,0.2,2.4,0.2h1.5V2893.6z M98.4,2892.5l-0.4-0.9c1.2-0.5,2.2-1.2,3.2-2.1l0.7,0.7C100.9,2891.2,99.7,2892,98.4,2892.5z
		 M22.4,2892.1c-1.2-0.6-2.4-1.3-3.5-2.2l0.6-0.8c1,0.8,2.1,1.5,3.2,2.1L22.4,2892.1z M104.4,2886.9l-0.9-0.5
		c0.6-1.1,0.9-2.4,1.1-3.6l1,0.1C105.4,2884.3,105,2885.6,104.4,2886.9z M16.1,2886.8c-0.8-1.1-1.4-2.4-1.9-3.7l0.9-0.3
		c0.4,1.2,1,2.4,1.7,3.4L16.1,2886.8z M13.5,2879.1c0-0.3,0-0.7,0-1v-3h1v3c0,0.3,0,0.6,0,0.9L13.5,2879.1z M105.9,2879l-1-0.2
		c0.3-1.4,0.8-2.7,1.6-3.8l0.8,0.5C106.7,2876.6,106.2,2877.7,105.9,2879z M110,2872.6l-0.6-0.8c1.1-0.9,2.3-1.5,3.7-2l0.3,0.9
		C112.1,2871.3,111,2871.9,110,2872.6z M14.5,2871.1h-1v-4h1V2871.1z M119,2870.3h-1.9v-1h1.9c0.7,0,1.3-0.1,2-0.2l0.2,1
		C120.5,2870.2,119.8,2870.3,119,2870.3z M125.1,2868.7l-0.5-0.9c1.1-0.6,2.1-1.5,2.9-2.4l0.8,0.6
		C127.4,2867.1,126.3,2868,125.1,2868.7z M130.4,2862.5l-0.9-0.4c0.5-1.2,0.7-2.5,0.7-3.7l1,0
		C131.1,2859.8,130.9,2861.2,130.4,2862.5z M131.2,2854.4h-1v-4h1V2854.4z M131.2,2846.4h-1v-4h1V2846.4z M131.2,2838.4h-1v-4h1
		V2838.4z M131.2,2830.4h-1v-4h1V2830.4z M131.2,2822.4h-1v-4h1V2822.4z M131.2,2814.4h-1v-4h1V2814.4z M131.2,2806.4h-1v-4h1
		V2806.4z M131.2,2798.4h-1v-4h1V2798.4z M131.2,2790.4h-1v-4h1V2790.4z M131.2,2782.4h-1v-4h1V2782.4z M131.2,2774.4h-1v-4h1
		V2774.4z M131.2,2766.4h-1v-4h1V2766.4z M131.2,2758.4h-1v-4h1V2758.4z M131.2,2750.4h-1v-2.5c0-0.5,0-1-0.1-1.4l1-0.2
		c0.1,0.5,0.1,1.1,0.1,1.6V2750.4z M128.7,2743c-0.7-1-1.6-2-2.7-2.6l0.5-0.8c1.2,0.7,2.2,1.7,3,2.9L128.7,2743z M122.4,2739.1
		c-0.4-0.1-0.8,0-1.2-0.1c-1,0-1.9-0.1-2.9-0.4l0.3-1c0.8,0.3,1.7,0.4,2.6,0.4c0,0,0,0,0,0c0.4,0,0.9,0,1.3,0.1L122.4,2739.1z
		 M114.8,2736.6c-1.1-0.9-1.9-2.1-2.5-3.4l0.9-0.4c0.5,1.1,1.3,2.2,2.2,3L114.8,2736.6z M112.4,2729.1h-1v-4h1V2729.1z
		 M111.2,2721.2c-0.3-1.2-0.8-2.4-1.6-3.4l0.8-0.6c0.9,1.1,1.4,2.4,1.7,3.8L111.2,2721.2z M106.8,2715.4c-1.1-0.6-2.3-1-3.6-1.1
		l0.1-1c1.4,0.1,2.8,0.5,4,1.2L106.8,2715.4z M99.2,2714.3h-4v-1h4V2714.3z M91.2,2714.3h-4v-1h4V2714.3z M83.2,2714.3h-4v-1h4
		V2714.3z M75.2,2714.3h-4v-1h4V2714.3z M67.2,2714.3h-4v-1h4V2714.3z M59.2,2714.3h-3.6c-0.3,0-0.5-0.2-0.5-0.5v-0.4h0.5v-0.1h3.6
		V2714.3z M56.2,2709.3h-1v-4h1V2709.3z M56.2,2701.3h-1v-4h1V2701.3z M56.2,2693.3h-1v-4h1V2693.3z M56.2,2685.3h-1v-4h1V2685.3z
		 M56.2,2677.3h-1v-4h1V2677.3z M56.2,2669.3h-1v-4h1V2669.3z M56.2,2661.3h-1v-4h1V2661.3z M56.2,2653.3h-1v-4h1V2653.3z
		 M56.2,2645.3h-1v-4h1V2645.3z M56.2,2637.3h-1v-4h1V2637.3z M56.2,2629.3h-1v-4h1V2629.3z M56.2,2621.3h-1v-4h1V2621.3z
		 M56.2,2613.3h-1v-4h1V2613.3z M56.2,2605.3h-1v-4h1V2605.3z M56.2,2597.3h-1v-4h1V2597.3z M56.2,2589.3h-1v-4h1V2589.3z
		 M56.2,2581.3h-1v-4h1V2581.3z M56.2,2573.3h-1v-4h1V2573.3z M56.2,2565.3h-1v-4h1V2565.3z M56.2,2557.3h-1v-4h1V2557.3z
		 M56.2,2549.3h-1v-4h1V2549.3z M56.2,2541.3h-1v-4h1V2541.3z M56.2,2533.3h-1v-4h1V2533.3z M56.2,2525.3h-1v-4h1V2525.3z
		 M56.2,2517.3h-1v-4h1V2517.3z M56.2,2509.3h-1v-4h1V2509.3z M56.2,2501.3h-1v-4h1V2501.3z M56.2,2493.3h-1v-4h1V2493.3z
		 M56.2,2485.3h-1v-4h1V2485.3z M56.2,2477.3h-1v-4h1V2477.3z M56.2,2469.3h-1v-4h1V2469.3z M56.2,2461.3h-1v-4h1V2461.3z
		 M56.2,2453.3h-1v-4h1V2453.3z M56.2,2445.3h-1v-4h1V2445.3z"/>
	<path fill="#7F58A5" d="M87.4,3113.4H28.9c-8.5,0-15.4-6.9-15.4-15.4v-43.4h1v43.4c0,8,6.5,14.4,14.4,14.4h58.5V3113.4z"/>
	<rect x="54.3" y="2243.7" fill="#7F58A5" width="1" height="182"/>
	<path fill="#7F58A5" d="M14.5,2799.3h-1V2736c0-6,4.9-11,11-11h39.4v1H24.4c-5.5,0-10,4.5-10,10V2799.3z"/>
	<g>
		<g>
			<path fill="#7F58A5" d="M62.2,3077.2c-0.1,0-0.3,0-0.3-0.1l-11-10.7l0.7-0.7l10.9,10.5c16.6-1.8,38.2-26.8,47.3-48.2
				c5.4-12.7,6-22.7,1.7-28.1c-5.6-4.1-15.5-3.2-28.1,2.6c-21.2,9.8-45.5,32.1-46.8,48.8l11,10.7l-0.7,0.7l-11.2-10.9
				c-0.1-0.1-0.2-0.2-0.2-0.4c0.5-7.9,6.2-17.7,16-27.6c9-9.1,20.5-17.2,31.4-22.3c12.9-6,23.3-6.8,29.1-2.5c0,0,0.1,0.1,0.1,0.1
				c4.6,5.7,4,16.1-1.6,29.2c-4.7,11.1-12.5,22.8-21.3,32.1C79.8,3070.4,70.2,3076.4,62.2,3077.2
				C62.2,3077.2,62.2,3077.2,62.2,3077.2z"/>
			<path fill="#7F58A5" d="M35.7,3051.6c-9.2-11.9-25.4-8.5-25.5-8.4c-0.2,0.1-0.5-0.1-0.6-0.3c-0.1-0.2,0-0.5,0.3-0.6l42.4-19
				l0.4,0.9l-39.3,17.6c5.4-0.4,16.2,0.2,23.2,9.2L35.7,3051.6z"/>
			<path fill="#7F58A5" d="M71.6,3102.9c0,0-0.1,0-0.1,0c-0.2-0.1-0.4-0.3-0.3-0.6c0-0.2,3-16.4-9.2-25.3l0.6-0.8
				c9.2,6.7,10.1,17.4,9.9,22.9l16.4-39.8l0.9,0.4L72,3102.6C72,3102.8,71.8,3102.9,71.6,3102.9z"/>
			<path fill="#7F58A5" d="M95.1,3025.1c-2.1,0-4.2-0.8-5.9-2.4c-1.6-1.6-2.5-3.7-2.6-5.9c0-2.3,0.8-4.4,2.4-6
				c3.2-3.3,8.6-3.4,11.9-0.2c3.3,3.2,3.4,8.6,0.2,11.9v0C99.5,3024.2,97.3,3025.1,95.1,3025.1z M95.1,3009.2
				c-1.9,0-3.9,0.8-5.3,2.3c-1.4,1.4-2.1,3.3-2.1,5.3c0,2,0.8,3.8,2.3,5.2c2.9,2.9,7.7,2.8,10.5-0.2v0c2.9-2.9,2.8-7.7-0.2-10.5
				C98.8,3009.9,96.9,3009.2,95.1,3009.2z"/>
			
				<rect x="53.8" y="3067.4" transform="matrix(0.7178 0.6962 -0.6962 0.7178 2153.8533 821.6724)" fill="#7F58A5" width="19" height="1"/>
			
				<rect x="35.4" y="3049.5" transform="matrix(0.7178 0.6962 -0.6962 0.7178 2136.1675 829.4837)" fill="#7F58A5" width="18.8" height="1"/>
			<path fill="#7F58A5" d="M42.8,3071.1c-0.1,0-0.3,0-0.3-0.1c-0.1-0.1-0.2-0.4-0.1-0.6c0-0.1,3.9-9.2,11.7-17.2
				s16.8-12.1,16.9-12.2c0.2-0.1,0.4,0,0.6,0.1c0.1,0.1,0.2,0.4,0.1,0.6c0,0.1-3.9,9.2-11.7,17.2c-7.8,8-16.8,12.1-16.9,12.2
				C42.9,3071,42.8,3071.1,42.8,3071.1z M70,3042.5c-2.7,1.4-9.4,5.2-15.3,11.4c-5.9,6.1-9.6,12.9-10.9,15.7
				c2.7-1.4,9.4-5.2,15.3-11.4C65.1,3052,68.7,3045.2,70,3042.5z"/>
			<path fill="#7F58A5" d="M17.9,3098.4c-0.1,0-0.2,0-0.3-0.1c-0.2-0.1-0.2-0.4-0.1-0.6l11.1-25.5l-3.3,2.6c-0.2,0.1-0.4,0.1-0.6,0
				s-0.2-0.4-0.1-0.6l8.8-19.4l0.9,0.4l-7.9,17.4l3.2-2.6c0.2-0.1,0.4-0.1,0.6,0c0.2,0.1,0.2,0.4,0.2,0.6l-11.3,25.9l23.8-15.4
				c0.2-0.1,0.4-0.1,0.6,0c0.2,0.1,0.2,0.4,0.1,0.6l-2.5,5.9l16.1-7.7l0.4,0.9l-17.3,8.2c-0.2,0.1-0.4,0.1-0.6-0.1
				c-0.2-0.1-0.2-0.4-0.1-0.6l2.4-5.6l-23.8,15.4C18.1,3098.4,18,3098.4,17.9,3098.4z"/>
			
				<rect x="31.8" y="3049.4" transform="matrix(0.7071 0.7071 -0.7071 0.7071 2175.6687 874.4276)" fill="#7F58A5" width="1" height="28.2"/>
			
				<rect x="43.1" y="3042.7" transform="matrix(0.7071 0.7071 -0.7071 0.7071 2174.2146 864.4662)" fill="#7F58A5" width="1" height="28.2"/>
			
				<rect x="58.4" y="3052.8" transform="matrix(0.7071 0.7071 -0.7071 0.7071 2185.8438 856.5979)" fill="#7F58A5" width="1" height="28.2"/>
			
				<rect x="49.5" y="3067.8" transform="matrix(0.7071 0.7071 -0.7071 0.7071 2193.8589 867.3199)" fill="#7F58A5" width="1" height="28.2"/>
			<g>
				<polygon fill="#7F58A5" points="34.9,3028.6 34.9,3018.9 26.4,3018.9 26.4,3032.5 				"/>
				<polygon fill="#7F58A5" points="45.4,3023.6 45.4,3009.7 37,3009.7 37,3027.7 				"/>
				<polygon fill="#7F58A5" points="56,3016.8 56,3001.4 47.5,3001.4 47.5,3022.9 51.4,3021.9 				"/>
				<polygon fill="#7F58A5" points="66.5,3008.6 66.5,2993.7 58.1,2993.7 58.1,3015.1 				"/>
				<polygon fill="#7F58A5" points="77.1,3001.8 77.1,2981.1 68.6,2981.1 68.6,3007.1 				"/>
				<polygon fill="#7F58A5" points="87.6,2997.5 87.6,2966.8 79.2,2966.8 79.2,3001.2 				"/>
				<polyline fill="#7F58A5" points="86.6,2954.3 53.2,2988.5 50.4,2985.6 24.5,3011.5 24.5,3004.1 50.7,2978.9 54.5,2982.6 
					86.1,2953.9 				"/>
				<polygon fill="#7F58A5" points="86.2,2959.4 89.7,2950.7 80.8,2954.8 86.2,2954.2 				"/>
			</g>
		</g>
		<path fill="#7F58A5" d="M62.2,3250h-1v-0.7h1V3250z M62.2,3245.3h-1v-4h1V3245.3z M62.2,3237.3h-1v-4h1V3237.3z M62.2,3229.3h-1
			v-4h1V3229.3z M62.2,3221.3h-1v-4h1V3221.3z M62.2,3213.3h-1v-4h1V3213.3z M62.2,3205.3h-1v-4h1V3205.3z M62.2,3197.3h-1v-4h1
			V3197.3z M62.2,3189.3h-1v-4h1V3189.3z M62.2,3181.3h-1v-4h1V3181.3z M62.2,3173.3h-1v-4h1V3173.3z M62.2,3165.3h-1v-4h1V3165.3z
			 M62.2,3157.3h-1v-4h1V3157.3z M62.2,3149.3h-1v-4h1V3149.3z M62.2,3141.3h-1v-4h1V3141.3z M62.2,3133.3h-1v-4h1V3133.3z
			 M62.2,3125.3h-1v-4h1V3125.3z M92,3120h-4v-1h4V3120z M84,3120h-4v-1h4V3120z M76,3120h-4v-1h4V3120z M68,3120h-4v-1h4V3120z
			 M96.1,3119.7l-0.2-1c1.3-0.3,2.4-0.7,3.5-1.4l0.5,0.8C98.7,3118.9,97.4,3119.5,96.1,3119.7z M103,3115.4l-0.8-0.6
			c0.8-1,1.4-2.1,1.8-3.3l0.9,0.3C104.6,3113.1,103.9,3114.4,103,3115.4z M105.7,3107.7l-1,0c0-1.4,0.3-2.8,0.8-4.1l0.9,0.4
			C105.9,3105.2,105.7,3106.4,105.7,3107.7z M108.3,3100.7l-0.8-0.6c0.9-1.1,2-2,3.2-2.7l0.5,0.9
			C110.1,3098.9,109.1,3099.7,108.3,3100.7z M114.8,3096.9l-0.2-1c0.7-0.1,1.4-0.2,2.2-0.2h1.9v1h-1.9
			C116.1,3096.8,115.5,3096.8,114.8,3096.9z M122.8,3096.2l-0.3-1c1.2-0.4,2.3-1,3.4-1.8l0.6,0.8
			C125.3,3095.1,124.1,3095.7,122.8,3096.2z M129.3,3091.2l-0.8-0.5c0.7-1.1,1.2-2.3,1.5-3.5l1,0.2
			C130.6,3088.7,130,3090,129.3,3091.2z M131.2,3083.3h-1v-4h1V3083.3z M131.2,3075.3h-1v-4h1V3075.3z M131.2,3067.3h-1v-4h1V3067.3
			z M131.2,3059.3h-1v-4h1V3059.3z M131.2,3051.3h-1v-4h1V3051.3z M131.2,3043.3h-1v-4h1V3043.3z M131.2,3035.3h-1v-4h1V3035.3z
			 M131.2,3027.3h-1v-4h1V3027.3z M131.2,3019.3h-1v-4h1V3019.3z M131.2,3011.3h-1v-4h1V3011.3z M131.2,3003.3h-1v-4h1V3003.3z
			 M131.2,2995.3h-1v-4h1V2995.3z M131.2,2987.3h-1v-4h1V2987.3z M131.2,2979.3h-1v-4h1V2979.3z M129.7,2971.5
			c-0.4-1.2-1.1-2.3-1.9-3.2l0.7-0.7c1,1,1.7,2.2,2.2,3.6L129.7,2971.5z M124.6,2966.1c-1.1-0.4-2.2-0.7-3.3-0.7c-0.1,0-0.3,0-0.4,0
			l0-1c0.1,0,0.2,0,0.4,0c1.3,0,2.5,0.2,3.7,0.7L124.6,2966.1z M116.9,2964.4c-1.2-0.6-2.4-1.5-3.3-2.6l0.8-0.6
			c0.8,1,1.8,1.8,2.9,2.4L116.9,2964.4z M111.7,2958.1c-0.2-0.8-0.3-1.6-0.3-2.5v-1.6h1v1.6c0,0.7,0.1,1.5,0.3,2.2L111.7,2958.1z
			 M112.4,2950h-1v-0.4c0-1.2-0.2-2.3-0.7-3.4l0.9-0.4c0.5,1.2,0.7,2.4,0.7,3.7V2950z M108.6,2943.2c-0.9-0.9-2-1.5-3.2-1.9l0.3-0.9
			c1.3,0.5,2.5,1.2,3.6,2.2L108.6,2943.2z M101.6,2940.7h-4v-1h4V2940.7z M93.6,2940.7h-4v-1h4V2940.7z M85.6,2940.7h-4v-1h4V2940.7
			z M77.6,2940.7h-4v-1h4V2940.7z M69.6,2940.7h-4v-1h4V2940.7z M61.6,2940.7h-4v-1h4V2940.7z M56.2,2938.2h-1v-4h1V2938.2z
			 M56.2,2930.2h-1v-4h1V2930.2z M56.2,2922.2h-1v-4h1V2922.2z M56.2,2914.2h-1v-4h1V2914.2z M56.2,2906.2h-1v-4h1V2906.2z
			 M56.2,2898.2h-1v-4h1V2898.2z"/>
		<path fill="#7F58A5" d="M14.5,3024.5h-1v-63.3c0-6,4.9-11,11-11h39.4v1H24.4c-5.5,0-10,4.5-10,10V3024.5z"/>
	</g>
	<rect x="44.9" y="3626.9" fill="#7F58A5" width="1" height="38.8"/>
	<rect x="63.3" y="3586.7" fill="#7F58A5" width="1" height="38.8"/>
	<rect x="30.7" y="2660.6" fill="#7F58A5" width="1" height="78.7"/>
	<rect x="77" y="2654.3" fill="#7F58A5" width="1" height="78.7"/>
	<rect x="40.7" y="2715.4" fill="#7F58A5" width="1" height="41.7"/>
	<rect x="116.7" y="3078.3" fill="#7F58A5" width="1" height="41.7"/>
	<rect x="40.4" y="3129.5" fill="#7F58A5" width="1" height="134.3"/>
	<g>
		<g>
			<path fill="#7F58A5" d="M62.2,3780.4c-0.1,0-0.3,0-0.3-0.1l-11-10.7l0.7-0.7l10.9,10.5c16.6-1.8,38.2-26.8,47.3-48.2
				c5.4-12.7,6-22.7,1.7-28.1c-5.6-4.1-15.6-3.2-28.1,2.6c-21.2,9.8-45.5,32.1-46.8,48.8l11,10.7l-0.7,0.7l-11.2-10.9
				c-0.1-0.1-0.2-0.2-0.2-0.4c0.5-7.9,6.2-17.7,16-27.6c9-9.1,20.5-17.2,31.4-22.3c12.9-6,23.3-6.8,29.2-2.5c0,0,0.1,0.1,0.1,0.1
				c4.6,5.7,4,16.1-1.6,29.2c-4.7,11.1-12.5,22.8-21.3,32.1C79.8,3773.7,70.2,3779.6,62.2,3780.4
				C62.2,3780.4,62.2,3780.4,62.2,3780.4z"/>
			<path fill="#7F58A5" d="M35.7,3754.9c-9.2-11.9-25.4-8.5-25.5-8.4c-0.2,0.1-0.5-0.1-0.6-0.3c-0.1-0.2,0-0.5,0.3-0.6l42.4-19
				l0.4,0.9l-39.3,17.6c5.4-0.4,16.2,0.2,23.2,9.2L35.7,3754.9z"/>
			<path fill="#7F58A5" d="M71.6,3806.2c0,0-0.1,0-0.1,0c-0.2-0.1-0.4-0.3-0.3-0.6c0-0.2,3-16.4-9.2-25.3l0.6-0.8
				c9.2,6.7,10.1,17.4,9.9,22.9l16.4-39.8l0.9,0.4L72,3805.9C72,3806.1,71.8,3806.2,71.6,3806.2z"/>
			<circle fill="#7F58A5" cx="95.1" cy="3719.9" r="7.9"/>
			
				<rect x="53.8" y="3770.7" transform="matrix(0.7178 0.6962 -0.6962 0.7178 2643.4895 1020.125)" fill="#7F58A5" width="19" height="1"/>
			
				<rect x="35.4" y="3752.7" transform="matrix(0.7178 0.6962 -0.6962 0.7178 2625.7031 1027.8412)" fill="#7F58A5" width="18.8" height="1"/>
			<path fill="#7F58A5" d="M42.8,3774.3c-0.1,0-0.3,0-0.3-0.1c-0.1-0.1-0.2-0.4-0.1-0.6c0-0.1,3.9-9.2,11.7-17.2
				s16.8-12.1,16.9-12.2c0.2-0.1,0.4,0,0.6,0.1c0.1,0.1,0.2,0.4,0.1,0.6c0,0.1-3.9,9.2-11.7,17.2c-7.8,8-16.8,12.1-16.9,12.2
				C42.9,3774.3,42.8,3774.3,42.8,3774.3z M70,3745.7c-2.7,1.4-9.4,5.2-15.3,11.4c-5.9,6.1-9.6,12.9-10.9,15.7
				c2.7-1.4,9.4-5.2,15.3-11.4C65.1,3755.2,68.7,3748.5,70,3745.7z"/>
			<path fill="#7F58A5" d="M17.9,3801.7c-0.1,0-0.2,0-0.3-0.1c-0.2-0.1-0.2-0.4-0.1-0.6l11.1-25.5l-3.3,2.6c-0.2,0.1-0.4,0.1-0.6,0
				s-0.2-0.4-0.1-0.6l8.8-19.4l0.9,0.4l-7.9,17.4l3.2-2.6c0.2-0.1,0.4-0.1,0.6,0c0.2,0.1,0.2,0.4,0.2,0.6l-11.3,25.9l23.8-15.4
				c0.2-0.1,0.4-0.1,0.6,0c0.2,0.1,0.2,0.4,0.1,0.6l-2.5,5.9l16.1-7.7l0.4,0.9l-17.3,8.2c-0.2,0.1-0.4,0.1-0.6-0.1
				c-0.2-0.1-0.2-0.4-0.1-0.6l2.4-5.6l-23.8,15.4C18.1,3801.6,18,3801.7,17.9,3801.7z"/>
			
				<rect x="31.8" y="3752.7" transform="matrix(0.7071 0.7071 -0.7071 0.7071 2672.947 1080.407)" fill="#7F58A5" width="1" height="28.2"/>
			
				<rect x="43.1" y="3745.9" transform="matrix(0.7071 0.7071 -0.7071 0.7071 2671.4934 1070.4458)" fill="#7F58A5" width="1" height="28.2"/>
			
				<rect x="58.4" y="3756" transform="matrix(0.7071 0.7071 -0.7071 0.7071 2683.1226 1062.5775)" fill="#7F58A5" width="1" height="28.2"/>
			
				<rect x="49.5" y="3771.1" transform="matrix(0.7071 0.7071 -0.7071 0.7071 2691.1372 1073.2994)" fill="#7F58A5" width="1" height="28.2"/>
			<g>
				<polygon fill="#7F58A5" points="34.9,3731.8 34.9,3722.2 26.4,3722.2 26.4,3735.7 				"/>
				<polygon fill="#7F58A5" points="45.4,3726.9 45.4,3712.9 37,3712.9 37,3731 				"/>
				<polygon fill="#7F58A5" points="56,3720 56,3704.7 47.5,3704.7 47.5,3726.2 51.4,3725.1 				"/>
				<polygon fill="#7F58A5" points="66.5,3711.8 66.5,3697 58.1,3697 58.1,3718.3 				"/>
				<polygon fill="#7F58A5" points="77.1,3705 77.1,3684.4 68.6,3684.4 68.6,3710.3 				"/>
				<polygon fill="#7F58A5" points="87.6,3700.7 87.6,3670.1 79.2,3670.1 79.2,3704.4 				"/>
				<polyline fill="#7F58A5" points="86.6,3657.6 53.2,3691.7 50.4,3688.9 24.5,3714.7 24.5,3707.4 50.7,3682.2 54.5,3685.8 
					86.1,3657.2 				"/>
				<polygon fill="#7F58A5" points="86.2,3662.6 89.7,3654 80.8,3658.1 86.2,3657.4 				"/>
			</g>
		</g>
		<path fill="#7F58A5" d="M62.2,4093.2h-1v-4h1V4093.2z M62.2,4085.2h-1v-4h1V4085.2z M62.2,4077.2h-1v-4h1V4077.2z M62.2,4069.2h-1
			v-4h1V4069.2z M62.2,4061.2h-1v-4h1V4061.2z M62.2,4053.2h-1v-4h1V4053.2z M62.2,4045.2h-1v-4h1V4045.2z M62.2,4037.2h-1v-4h1
			V4037.2z M62.2,4029.2h-1v-4h1V4029.2z M62.2,4021.2h-1v-4h1V4021.2z M62.2,4013.2h-1v-4h1V4013.2z M62.2,4005.2h-1v-4h1V4005.2z
			 M62.2,3997.2h-1v-4h1V3997.2z M62.2,3989.2h-1v-4h1V3989.2z M62.2,3981.2h-1v-4h1V3981.2z M62.2,3973.2h-1v-4h1V3973.2z
			 M62.2,3965.2h-1v-4h1V3965.2z M62.2,3957.2h-1v-4h1V3957.2z M62.2,3949.2h-1v-4h1V3949.2z M62.2,3941.2h-1v-4h1V3941.2z
			 M62.2,3933.2h-1v-4h1V3933.2z M62.2,3925.2h-1v-4h1V3925.2z M62.2,3917.2h-1v-4h1V3917.2z M62.2,3909.2h-1v-4h1V3909.2z
			 M62.2,3901.2h-1v-4h1V3901.2z M62.2,3893.2h-1v-4h1V3893.2z M62.2,3885.2h-1v-4h1V3885.2z M62.2,3877.2h-1v-4h1V3877.2z
			 M62.2,3869.2h-1v-4h1V3869.2z M62.2,3861.2h-1v-4h1V3861.2z M62.2,3853.2h-1v-4h1V3853.2z M62.2,3845.2h-1v-4h1V3845.2z
			 M62.2,3837.2h-1v-4h1V3837.2z M62.2,3829.2h-1v-4h1V3829.2z M91.3,3823.3h-4v-1h4V3823.3z M83.3,3823.3h-4v-1h4V3823.3z
			 M75.3,3823.3h-4v-1h4V3823.3z M67.3,3823.3h-4v-1h4V3823.3z M95.4,3823.1l-0.2-1c1.3-0.2,2.5-0.6,3.6-1.2l0.5,0.9
			C98.1,3822.5,96.8,3822.9,95.4,3823.1z M102.6,3819.2l-0.7-0.7c0.9-1,1.5-2,2-3.2l0.9,0.4C104.3,3817,103.5,3818.2,102.6,3819.2z
			 M105.7,3811.6l-1,0c0-0.1,0-0.3,0-0.4c0-1.2,0.2-2.5,0.6-3.6l1,0.3c-0.3,1.1-0.5,2.2-0.5,3.3
			C105.7,3811.3,105.7,3811.5,105.7,3811.6z M107.9,3804.4l-0.8-0.6c0.8-1.1,1.9-2.1,3-2.8l0.5,0.8
			C109.6,3802.5,108.7,3803.4,107.9,3804.4z M114.2,3800.3l-0.2-1c0.9-0.2,1.9-0.3,2.8-0.3h1.3v1h-1.3
			C115.9,3800,115,3800.1,114.2,3800.3z M122.1,3799.6l-0.3-1c1.2-0.3,2.4-0.9,3.5-1.6l0.6,0.8
			C124.8,3798.7,123.5,3799.3,122.1,3799.6z M128.9,3795l-0.8-0.6c0.8-1,1.3-2.2,1.7-3.4l1,0.3
			C130.3,3792.6,129.7,3793.8,128.9,3795z M131.2,3787.2h-1v-4h1V3787.2z M131.2,3779.2h-1v-4h1V3779.2z M131.2,3771.2h-1v-4h1
			V3771.2z M131.2,3763.2h-1v-4h1V3763.2z M131.2,3755.2h-1v-4h1V3755.2z M131.2,3747.2h-1v-4h1V3747.2z M131.2,3739.2h-1v-4h1
			V3739.2z M131.2,3731.2h-1v-4h1V3731.2z M131.2,3723.2h-1v-4h1V3723.2z M131.2,3715.2h-1v-4h1V3715.2z M131.2,3707.2h-1v-4h1
			V3707.2z M131.2,3699.2h-1v-4h1V3699.2z M131.2,3691.2h-1v-4h1V3691.2z M131.2,3683.2h-1v-4h1V3683.2z M129.9,3675.3
			c-0.3-1.2-0.9-2.4-1.7-3.3l0.8-0.6c0.9,1.1,1.6,2.3,1.9,3.7L129.9,3675.3z M125.2,3669.6c-1.1-0.6-2.4-0.9-3.6-0.9l0-1
			c1.4,0,2.8,0.4,4.1,1L125.2,3669.6z M117.5,3668c-1.3-0.5-2.5-1.4-3.4-2.4l0.7-0.7c0.9,0.9,1.9,1.7,3.1,2.2L117.5,3668z
			 M111.9,3662c-0.3-1-0.5-2-0.5-3.1v-1h1v1c0,1,0.2,1.9,0.4,2.8L111.9,3662z M112.4,3653.9h-1v-1c0-1-0.2-1.9-0.4-2.8l0.9-0.3
			c0.3,1,0.5,2,0.5,3.1V3653.9z M109.1,3646.8c-0.9-0.9-1.9-1.7-3.1-2.2l0.4-0.9c1.3,0.5,2.5,1.4,3.4,2.4L109.1,3646.8z M102.3,3644
			h-4v-1h4V3644z M94.3,3644h-4v-1h4V3644z M86.3,3644h-4v-1h4V3644z M78.3,3644h-4v-1h4V3644z M70.3,3644h-4v-1h4V3644z M62.3,3644
			h-4v-1h4V3644z M56.2,3642.1h-1v-4h1V3642.1z M56.2,3634.1h-1v-4h1V3634.1z M56.2,3626.1h-1v-4h1V3626.1z M56.2,3618.1h-1v-4h1
			V3618.1z M56.2,3610.1h-1v-4h1V3610.1z M56.2,3602.1h-1v-4h1V3602.1z M56.2,3594.1h-1v-4h1V3594.1z"/>
		<path fill="#7F58A5" d="M14.5,3727.7h-1v-63.3c0-6,4.9-11,11-11h39.4v1H24.4c-5.5,0-10,4.5-10,10V3727.7z"/>
		<path fill="#7F58A5" d="M87.4,3816.6H28.9c-8.5,0-15.4-6.9-15.4-15.4v-43.4h1v43.4c0,8,6.5,14.4,14.4,14.4h58.5V3816.6z"/>
	</g>
	<path fill="#7F58A5" d="M89.6,3595.3h-4v-1h4V3595.3z M81.6,3595.3h-4v-1h4V3595.3z M73.6,3595.3h-4v-1h4V3595.3z M65.6,3595.3h-4
		v-1h4V3595.3z M57.6,3595.3h-4v-1h4V3595.3z M49.6,3595.3h-4v-1h4V3595.3z M41.6,3595.3h-4v-1h4V3595.3z M33.6,3595.3h-4v-1h4
		V3595.3z M93.6,3595.3l0-1c1.3,0,2.5-0.2,3.7-0.7l0.3,0.9C96.4,3595.1,95,3595.3,93.6,3595.3z M25.5,3595c-1.3-0.3-2.6-0.8-3.9-1.4
		l0.5-0.9c1.1,0.6,2.4,1.1,3.6,1.3L25.5,3595z M101.3,3592.5l-0.6-0.8c1-0.8,1.8-1.8,2.5-2.9l0.9,0.5
		C103.3,3590.6,102.4,3591.6,101.3,3592.5z M18.3,3591.1c-1-0.9-1.9-2-2.6-3.2l0.9-0.5c0.7,1.1,1.5,2.1,2.4,3L18.3,3591.1z
		 M105.5,3585.5l-1-0.2c0.1-0.7,0.2-1.4,0.2-2.1c0-0.6,0-1.3,0.1-1.9l1,0.2c-0.1,0.6-0.1,1.1-0.1,1.7
		C105.7,3584,105.6,3584.7,105.5,3585.5z M14.1,3584.2c-0.4-1.3-0.6-2.7-0.6-4.1l1,0c0,1.3,0.2,2.6,0.6,3.8L14.1,3584.2z
		 M107,3577.9l-0.9-0.5c0.7-1.2,1.5-2.3,2.6-3.3l0.7,0.7C108.4,3575.8,107.6,3576.8,107,3577.9z M14.5,3576.1h-1v-4h1V3576.1z
		 M112.6,3572.9l-0.4-0.9c1.3-0.5,2.7-0.8,4.1-0.9l0,1C115.1,3572.1,113.8,3572.4,112.6,3572.9z M120.4,3572l-0.1-1
		c1.3-0.1,2.5-0.5,3.7-1.1l0.4,0.9C123.1,3571.5,121.8,3571.9,120.4,3572z M127.7,3568.4l-0.7-0.7c0.9-0.9,1.6-2,2.2-3.1l0.9,0.4
		C129.5,3566.3,128.7,3567.4,127.7,3568.4z M14.5,3568.1h-1v-1.5h1V3568.1z M131.1,3561l-1-0.1c0-0.3,0-0.6,0-0.9v-3h1v3
		C131.2,3560.3,131.2,3560.6,131.1,3561z M131.2,3552.9h-1v-4h1V3552.9z M131.2,3544.9h-1v-4h1V3544.9z M131.2,3536.9h-1v-4h1
		V3536.9z M131.2,3528.9h-1v-4h1V3528.9z M131.2,3520.9h-1v-4h1V3520.9z M131.2,3512.9h-1v-4h1V3512.9z M131.2,3504.9h-1v-4h1
		V3504.9z M131.2,3496.9h-1v-4h1V3496.9z M131.2,3488.9h-1v-4h1V3488.9z M131.2,3480.9h-1v-4h1V3480.9z M131.2,3472.9h-1v-4h1
		V3472.9z M131.2,3464.9h-1v-4h1V3464.9z M131.2,3456.9h-1v-4h1V3456.9z M130.1,3449c-0.1-1.3-0.5-2.5-1.1-3.6l0.9-0.5
		c0.7,1.2,1.1,2.6,1.2,4L130.1,3449z M126.6,3442.6c-1-0.8-2.2-1.3-3.4-1.6l0.2-1c1.4,0.3,2.7,0.9,3.8,1.7L126.6,3442.6z
		 M119.2,3440.6c-1.4-0.3-2.7-0.9-3.8-1.7l0.6-0.8c1,0.8,2.2,1.3,3.4,1.6L119.2,3440.6z M112.6,3435.7c-0.7-1.2-1.1-2.6-1.2-4l1-0.1
		c0.1,1.3,0.5,2.5,1.1,3.6L112.6,3435.7z M112.4,3427.7h-1v-2.7c0-0.4,0-0.8-0.1-1.2l1-0.1c0.1,0.4,0.1,0.9,0.1,1.3V3427.7z
		 M110.1,3420.2c-0.7-1.1-1.6-2-2.6-2.7l0.6-0.8c1.2,0.8,2.2,1.8,2.9,3L110.1,3420.2z M103.9,3416.2c-0.5-0.1-0.9-0.1-1.4-0.1H100
		v-1h2.5c0.5,0,1,0,1.5,0.1L103.9,3416.2z M96,3416.1h-4v-1h4V3416.1z M88,3416.1h-4v-1h4V3416.1z M80,3416.1h-4v-1h4V3416.1z
		 M72,3416.1h-4v-1h4V3416.1z M64,3416.1h-4v-1h4V3416.1z M56,3416.1h-4v-1h4V3416.1z M51.8,3412.3h-1v-4h1V3412.3z M51.8,3404.3h-1
		v-4h1V3404.3z M51.8,3396.3h-1v-4h1V3396.3z M51.8,3388.3h-1v-4h1V3388.3z M51.8,3380.3h-1v-4h1V3380.3z M51.8,3372.3h-1v-4h1
		V3372.3z M51.8,3364.3h-1v-4h1V3364.3z M51.8,3356.3h-1v-4h1V3356.3z M51.8,3348.3h-1v-4h1V3348.3z M51.8,3340.3h-1v-4h1V3340.3z
		 M51.8,3332.3h-1v-4h1V3332.3z M51.8,3324.3h-1v-4h1V3324.3z M51.8,3316.3h-1v-4h1V3316.3z M51.8,3308.3h-1v-4h1V3308.3z
		 M51.8,3300.3h-1v-4h1V3300.3z M51.8,3292.3h-1v-4h1V3292.3z M51.8,3284.3h-1v-4h1V3284.3z M51.8,3276.3h-1v-4h1V3276.3z
		 M51.8,3268.3h-1v-4h1V3268.3z M51.8,3260.3h-1v-4h1V3260.3z M51.8,3252.3h-1v-4h1V3252.3z M51.8,3244.3h-1v-4h1V3244.3z
		 M51.8,3236.3h-1v-4h1V3236.3z M51.8,3228.3h-1v-4h1V3228.3z M51.8,3220.3h-1v-4h1V3220.3z M51.8,3212.3h-1v-4h1V3212.3z"/>
	<g>
		<path fill="#7F58A5" d="M47.6,3519.7c-0.1,0-0.2,0-0.3-0.1l-13-8.3c-0.2-0.1-0.3-0.4-0.2-0.7l5.3-9c-0.5-0.6-0.8-1.6-0.9-2.5
			c-0.2-1.3-0.2-3.9,0.9-4.7c1-0.6,2.2-0.2,3,0.3l-0.7-9.6c0-0.1,0-0.3,0.1-0.4c0.1-0.1,0.2-0.2,0.4-0.2l14.2-0.4
			c0.2,0,0.4,0.1,0.5,0.3l5.3,12.7c0.1,0.1,0.1,0.3,0,0.4c-0.1,0.1-0.2,0.2-0.4,0.3l-3,0.5l1.4,4.4c0.1,0.2,0,0.5-0.3,0.6l-0.6,0.3
			l1,1c0.1,0.1,0.2,0.2,0.1,0.4c0,0.1-0.1,0.3-0.2,0.4l-2,1.5l0,5.1c0,0.2-0.2,0.4-0.4,0.5l-8.5,1.7l-1.5,5.1c0,0.2-0.2,0.3-0.3,0.3
			C47.7,3519.7,47.6,3519.7,47.6,3519.7z M35.2,3510.8l12,7.6l1.4-4.7c0.1-0.2,0.2-0.3,0.4-0.3l8.4-1.7l0-4.9c0-0.2,0.1-0.3,0.2-0.4
			l1.7-1.3l-1.1-1.1c-0.1-0.1-0.2-0.3-0.1-0.4s0.1-0.3,0.3-0.4l0.9-0.4l-1.4-4.5c0-0.1,0-0.3,0.1-0.4c0.1-0.1,0.2-0.2,0.3-0.2l3-0.5
			l-5-11.8l-13.4,0.3l0.7,10.1c0,0.2-0.1,0.4-0.3,0.5c-0.2,0.1-0.4,0.1-0.5-0.1c-0.5-0.4-2-1.3-2.7-0.8c-0.4,0.3-0.7,1.9-0.5,3.7
			c0.2,1.4,0.5,1.9,0.7,2c0.1,0,0.3,0.2,0.3,0.3c0.1,0.1,0,0.3,0,0.4L35.2,3510.8z"/>
		<path fill="#7F58A5" d="M38.5,3503.7c-3.7-2.2-4.8-11-4.7-13.4c0.3-5.4,2.3-9.1,5.9-10.8c4.1-1.9,11-0.4,14.7,0.4
			c0.8,0.2,1.4,0.3,1.8,0.4c2.4,0.4,5.4-0.3,5.4-0.3c0.2,0,0.4,0,0.5,0.1c0.1,0.1,0.2,0.3,0.1,0.5c-0.6,2.2-5,4.4-5.5,4.7l-0.4-0.9
			c1-0.5,3.4-1.9,4.5-3.2c-1.2,0.2-3.1,0.4-4.8,0.1c-0.4-0.1-1.1-0.2-1.9-0.4c-3.6-0.8-10.3-2.2-14.1-0.5c-4.1,1.8-5.1,6.4-5.3,9.9
			c-0.1,2.3,1,10.6,4.2,12.5L38.5,3503.7z"/>
		<path fill="#7F58A5" d="M34.7,3511c-5.1,3.9-11.8,17.6-11.7,43.3c0.1,12.4,1.6,27.4,1.6,27.4H63c0,0-0.3-11.3-0.7-27.3
			c-0.4-16-13.8-37.9-13.8-37.9l-0.9,2.8L34.7,3511z"/>
		<path fill="#7F58A5" d="M41.5,3514.9c9.2,8.2,29.7,26.1,36,18.6c6.4-7.4-12.6-32.6-12.6-32.6l6.5-2.4c0,0,23.2,27.6,26.2,37.1
			c3,9.5-2.6,24.6-23.1,19.3c-14-3.6-31.3-11.6-31.3-11.6L41.5,3514.9z"/>
		<g>
			<g>
				
					<ellipse transform="matrix(0.9543 -0.2989 0.2989 0.9543 -1041.4344 177.0315)" fill="#7F58A5" cx="58" cy="3493.3" rx="1.2" ry="2.8"/>
				
					<ellipse transform="matrix(0.9972 -7.491062e-002 7.491062e-002 0.9972 -261.0197 15.5387)" fill="#7F58A5" cx="76.6" cy="3487.3" rx="1.2" ry="2.8"/>
				<polygon fill="#7F58A5" points="57.2,3490.6 76.4,3484.5 76.8,3490.1 58.9,3495.9 				"/>
			</g>
			<g>
				
					<ellipse transform="matrix(0.9972 -7.491062e-002 7.491062e-002 0.9972 -261.0927 15.2807)" fill="#7F58A5" cx="73.2" cy="3488.1" rx="1.9" ry="4.6"/>
				
					<ellipse transform="matrix(0.9972 -7.491062e-002 7.491062e-002 0.9972 -260.8219 16.0946)" fill="#7F58A5" cx="84.1" cy="3484.9" rx="1.9" ry="4.6"/>
				<polygon fill="#7F58A5" points="72.8,3483.5 83.8,3480.3 84.5,3489.5 73.5,3492.7 				"/>
			</g>
			<g>
				
					<ellipse transform="matrix(0.9972 -7.491062e-002 7.491062e-002 0.9972 -260.8865 15.8076)" fill="#7F58A5" cx="80.3" cy="3485.6" rx="2.9" ry="7.2"/>
				
					<ellipse transform="matrix(0.9972 -7.491062e-002 7.491062e-002 0.9972 -260.1387 18.0759)" fill="#7F58A5" cx="110.9" cy="3476.8" rx="2.9" ry="7.2"/>
				<polygon fill="#7F58A5" points="79.7,3478.5 110.4,3469.6 111.4,3484 80.8,3492.8 				"/>
			</g>
		</g>
		<g>
			<path fill="#FFFFFF" d="M65,3500.9l-3.4-3.3l-0.5-2.6l1.9-0.8l-0.3-4.4l-2.6-3.3l1.6-1.1l1.8,0.7l3.3-0.6l6.1,5.2
				c0,0-0.7,7.8-1.5,7.8C70.7,3498.5,65,3500.9,65,3500.9z"/>
			<path fill="#7F58A5" d="M64.9,3501.5l-3.7-3.7l-0.6-3.2l1.9-0.8l-0.3-3.9l-2.8-3.6l2.3-1.5l1.9,0.7l3.4-0.6l6.5,5.5l0,0.3
				c-0.8,8.2-1.5,8.2-2,8.3c-0.5,0-3.6,1.2-6.3,2.4L64.9,3501.5z M62,3497.4l3,3c1.5-0.6,5.1-2.1,6.2-2.3c0.4-0.7,0.9-4.1,1.2-7.1
				l-5.7-4.9l-3.2,0.6l-1.7-0.6l-1,0.6l2.4,3l0.4,4.9l-1.8,0.8L62,3497.4z M71.4,3498L71.4,3498L71.4,3498z M71.4,3498
				C71.4,3498,71.4,3498,71.4,3498C71.4,3498,71.4,3498,71.4,3498z"/>
		</g>
		<path fill="#7F58A5" d="M56.3,3491.4l-3.1,2.4l2.8,0.6c0.4-0.7,0.5-1.8-0.1-2.4"/>
	</g>
	<path fill="#7F58A5" d="M14.5,3548.6h-1v-109.9c0-6,4.9-11,11-11h39.4v1H24.4c-5.5,0-10,4.5-10,10V3548.6z"/>
	<g>
		<circle fill="#7F58A5" cx="21.5" cy="3476.2" r="1.6"/>
		<circle fill="#7F58A5" cx="35.9" cy="3468.3" r="1.6"/>
		<circle fill="#7F58A5" cx="42.1" cy="3470.7" r="1.6"/>
		<circle fill="#7F58A5" cx="60.7" cy="3457.3" r="1.6"/>
		<circle fill="#7F58A5" cx="67" cy="3463.8" r="1.6"/>
		<circle fill="#7F58A5" cx="84.1" cy="3453.8" r="1.6"/>
		<circle fill="#7F58A5" cx="92.2" cy="3462.1" r="1.6"/>
		<path fill="#7F58A5" d="M21.8,3476.6l-0.5-0.9l14.3-7.6c0.1-0.1,0.3-0.1,0.4,0l5.7,2.1l18.3-13.7c0.2-0.2,0.5-0.1,0.7,0.1l6.5,7
			l16.3-10.4c0.2-0.1,0.5-0.1,0.6,0.1l8.3,8.3l15.5-13.9l-6.8,0.4l-0.1-1l8.2-0.4c0.2,0,0.4,0.1,0.5,0.3c0.1,0.2,0,0.4-0.1,0.6
			l-16.9,15.1c-0.2,0.2-0.5,0.2-0.7,0l-8.3-8.4l-16.3,10.4c-0.2,0.1-0.5,0.1-0.6-0.1l-6.5-7l-18.1,13.6c-0.1,0.1-0.3,0.1-0.5,0.1
			l-5.8-2.1L21.8,3476.6z"/>
		
			<rect x="108.5" y="3447.2" transform="matrix(0.9975 7.034440e-002 -7.034440e-002 0.9975 242.9729 0.8814)" fill="#7F58A5" width="1" height="6.1"/>
	</g>
	<path fill="#7F58A5" d="M41,3443c-0.3,0-0.5-0.2-0.5-0.5v-105.4c0-0.3,0.2-0.5,0.5-0.5s0.5,0.2,0.5,0.5v105.4
		C41.5,3442.8,41.3,3443,41,3443z"/>
	<rect x="73.8" y="3831.6" fill="#7F58A5" width="1" height="35.7"/>
	<rect x="46.2" y="3856.8" fill="#7F58A5" width="1" height="90.1"/>
	<rect x="61.1" y="4439.9" fill="#7F58A5" width="1" height="38.8"/>
	<path fill="#7F58A5" d="M91.4,4448.5h-3v-1h3c0.3,0,0.6,0,0.9,0l0.1,1C92,4448.5,91.7,4448.5,91.4,4448.5z M84.3,4448.5h-4v-1h4
		V4448.5z M76.3,4448.5h-4v-1h4V4448.5z M68.3,4448.5h-4v-1h4V4448.5z M60.3,4448.5h-4v-1h4V4448.5z M52.3,4448.5h-4v-1h4V4448.5z
		 M44.3,4448.5h-4v-1h4V4448.5z M36.3,4448.5h-4v-1h4V4448.5z M28.3,4448.5h-1.6c-0.8,0-1.7-0.1-2.5-0.2l0.2-1
		c0.8,0.1,1.5,0.2,2.3,0.2h1.6V4448.5z M96.4,4447.4l-0.4-0.9c1.2-0.5,2.2-1.3,3.1-2.1l0.7,0.7C98.8,4446,97.7,4446.8,96.4,4447.4z
		 M20.3,4447.1c-1.3-0.6-2.4-1.3-3.5-2.2l0.6-0.8c1,0.8,2.1,1.5,3.3,2.1L20.3,4447.1z M14,4441.9c-0.8-1.1-1.4-2.4-1.9-3.7l0.9-0.3
		c0.4,1.2,1,2.4,1.8,3.4L14,4441.9z M102.3,4441.7l-0.9-0.4c0.6-1.1,0.9-2.4,1.1-3.7l1,0.1C103.3,4439.1,102.9,4440.5,102.3,4441.7z
		 M11.3,4434.2c0-0.4,0-0.7,0-1.1v-2.9h1v2.9c0,0.4,0,0.7,0,1L11.3,4434.2z M103.8,4433.8l-1-0.2c0.3-1.4,0.9-2.6,1.6-3.8l0.8,0.5
		C104.6,4431.4,104.1,4432.6,103.8,4433.8z M107.9,4427.5l-0.6-0.8c1.1-0.9,2.4-1.5,3.7-1.9l0.3,1
		C110,4426.1,108.9,4426.7,107.9,4427.5z M12.3,4426.1h-1v-4h1V4426.1z M116.9,4425.2C116.9,4425.2,116.9,4425.2,116.9,4425.2H115
		v-1h1.8c0.7,0,1.4-0.1,2.1-0.2l0.2,1C118.4,4425.2,117.6,4425.2,116.9,4425.2z M123,4423.6l-0.5-0.9c1.1-0.6,2.1-1.5,2.9-2.5
		l0.8,0.6C125.3,4422,124.2,4422.9,123,4423.6z M128.3,4417.3l-0.9-0.3c0.4-1.2,0.7-2.5,0.7-3.7l1,0
		C129,4414.6,128.7,4416,128.3,4417.3z M129,4409.2h-1v-4h1V4409.2z M129,4401.2h-1v-4h1V4401.2z M129,4393.2h-1v-4h1V4393.2z
		 M129,4385.2h-1v-4h1V4385.2z M129,4377.2h-1v-4h1V4377.2z M129,4369.2h-1v-4h1V4369.2z M129,4361.2h-1v-4h1V4361.2z M129,4353.2
		h-1v-4h1V4353.2z M129,4345.2h-1v-4h1V4345.2z M129,4337.2h-1v-4h1V4337.2z M129,4329.2h-1v-4h1V4329.2z M129,4321.2h-1v-4h1
		V4321.2z M129,4313.2h-1v-4h1V4313.2z M129,4305.2h-1v-2.4c0-0.5,0-1-0.1-1.5l1-0.2c0.1,0.6,0.1,1.1,0.1,1.7V4305.2z M126.5,4297.8
		c-0.7-1-1.7-1.9-2.7-2.6l0.5-0.9c1.2,0.7,2.2,1.7,3,2.9L126.5,4297.8z M120.2,4294c-0.3,0-0.7-0.1-1.1-0.1c-1,0-2-0.2-3-0.5l0.3-1
		c0.9,0.3,1.8,0.4,2.7,0.4c0.4,0,0.8,0,1.2,0.1L120.2,4294z M112.5,4291.4c-1-0.9-1.9-2.1-2.4-3.4l0.9-0.4c0.5,1.2,1.3,2.2,2.2,3
		L112.5,4291.4z M110.3,4283.9h-1v-4h1V4283.9z M109,4276.1c-0.3-1.2-0.8-2.4-1.6-3.4l0.8-0.6c0.9,1.1,1.5,2.4,1.8,3.8L109,4276.1z
		 M104.5,4270.2c-1.1-0.6-2.3-0.9-3.6-1l0.1-1c1.4,0.1,2.8,0.5,4,1.1L104.5,4270.2z M97,4269.2h-4v-1h4V4269.2z M89,4269.2h-4v-1h4
		V4269.2z M81,4269.2h-4v-1h4V4269.2z M73,4269.2h-4v-1h4V4269.2z M65,4269.2h-4v-1h4V4269.2z M57,4269.2h-4v-1h4V4269.2z
		 M49.6,4268.6h-1v-4h1V4268.6z M49.6,4260.6h-1v-4h1V4260.6z M49.6,4252.6h-1v-4h1V4252.6z M49.6,4244.6h-1v-4h1V4244.6z
		 M49.6,4236.6h-1v-4h1V4236.6z M49.6,4228.6h-1v-4h1V4228.6z M49.6,4220.6h-1v-4h1V4220.6z M49.6,4212.6h-1v-4h1V4212.6z
		 M49.6,4204.6h-1v-4h1V4204.6z M49.6,4196.6h-1v-4h1V4196.6z M49.6,4188.6h-1v-4h1V4188.6z M49.6,4180.6h-1v-4h1V4180.6z
		 M49.6,4172.6h-1v-4h1V4172.6z M49.6,4164.6h-1v-4h1V4164.6z M49.6,4156.6h-1v-4h1V4156.6z M49.6,4148.6h-1v-4h1V4148.6z
		 M49.6,4140.6h-1v-4h1V4140.6z M49.6,4132.6h-1v-4h1V4132.6z M49.6,4124.6h-1v-4h1V4124.6z M49.6,4116.6h-1v-4h1V4116.6z
		 M49.6,4108.6h-1v-4h1V4108.6z M49.6,4100.6h-1v-4h1V4100.6z M49.6,4092.6h-1v-4h1V4092.6z M49.6,4084.6h-1v-4h1V4084.6z
		 M49.6,4076.6h-1v-4h1V4076.6z M49.6,4068.6h-1v-4h1V4068.6z M49.6,4060.6h-1v-4h1V4060.6z M49.6,4052.6h-1v-4h1V4052.6z
		 M49.6,4044.6h-1v-4h1V4044.6z M49.6,4036.6h-1v-4h1V4036.6z M49.6,4028.6h-1v-4h1V4028.6z M49.6,4020.6h-1v-4h1V4020.6z
		 M49.6,4012.6h-1v-4h1V4012.6z M49.6,4004.6h-1v-4h1V4004.6z M49.6,3996.6h-1v-4h1V3996.6z"/>
	<g>
		<path fill="#7F58A5" d="M45.4,4372.9c-0.1,0-0.2,0-0.3-0.1l-13-8.3c-0.2-0.1-0.3-0.4-0.2-0.7l5.3-9c-0.5-0.6-0.8-1.6-0.9-2.5
			c-0.2-1.3-0.2-3.9,0.9-4.7c1-0.6,2.2-0.2,3,0.3l-0.7-9.6c0-0.1,0-0.3,0.1-0.4c0.1-0.1,0.2-0.2,0.4-0.2l14.2-0.4
			c0.2,0,0.4,0.1,0.5,0.3l5.3,12.7c0.1,0.1,0.1,0.3,0,0.4c-0.1,0.1-0.2,0.2-0.4,0.3l-3,0.5l1.4,4.4c0.1,0.2,0,0.5-0.3,0.6l-0.6,0.3
			l1,1c0.1,0.1,0.2,0.2,0.1,0.4c0,0.1-0.1,0.3-0.2,0.4l-2,1.5l0,5.1c0,0.2-0.2,0.4-0.4,0.5l-8.5,1.7l-1.5,5.1c0,0.2-0.2,0.3-0.3,0.3
			C45.5,4372.9,45.5,4372.9,45.4,4372.9z M33.1,4363.9l12,7.6l1.4-4.7c0.1-0.2,0.2-0.3,0.4-0.3l8.4-1.7l0-4.9c0-0.2,0.1-0.3,0.2-0.4
			l1.7-1.3l-1.1-1.1c-0.1-0.1-0.2-0.3-0.1-0.4s0.1-0.3,0.3-0.4l0.9-0.4l-1.4-4.5c0-0.1,0-0.3,0.1-0.4c0.1-0.1,0.2-0.2,0.3-0.2l3-0.5
			l-5-11.8l-13.4,0.3l0.7,10.1c0,0.2-0.1,0.4-0.3,0.5c-0.2,0.1-0.4,0.1-0.5-0.1c-0.5-0.4-2-1.3-2.7-0.8c-0.4,0.3-0.7,1.9-0.5,3.7
			c0.2,1.4,0.5,1.9,0.7,2c0.1,0,0.3,0.2,0.3,0.3c0.1,0.1,0,0.3,0,0.4L33.1,4363.9z"/>
		<path fill="#7F58A5" d="M36.4,4356.8c-3.7-2.2-4.8-11-4.7-13.4c0.3-5.4,2.3-9.1,5.9-10.8c4.1-1.9,11-0.4,14.7,0.4
			c0.8,0.2,1.4,0.3,1.8,0.4c2.4,0.4,5.4-0.3,5.4-0.3c0.2,0,0.4,0,0.5,0.1c0.1,0.1,0.2,0.3,0.1,0.5c-0.6,2.2-5,4.4-5.5,4.7l-0.4-0.9
			c1-0.5,3.4-1.9,4.5-3.2c-1.2,0.2-3.1,0.4-4.8,0.1c-0.4-0.1-1.1-0.2-1.9-0.4c-3.6-0.8-10.3-2.2-14.1-0.5c-4.1,1.8-5.1,6.4-5.3,9.9
			c-0.1,2.3,1,10.6,4.2,12.5L36.4,4356.8z"/>
		<path fill="#7F58A5" d="M32.6,4364.1c-5.1,3.9-11.8,17.6-11.7,43.3c0.1,12.4,1.6,27.4,1.6,27.4h38.3c0,0-0.3-11.3-0.7-27.3
			c-0.4-16-13.8-37.9-13.8-37.9l-0.9,2.8L32.6,4364.1z"/>
		<path fill="#7F58A5" d="M39.4,4368c9.2,8.2,29.7,26.1,36,18.6c6.4-7.4-12.6-32.6-12.6-32.6l6.5-2.4c0,0,23.2,27.6,26.2,37.1
			s-2.6,24.6-23.1,19.3c-14-3.6-31.3-11.6-31.3-11.6L39.4,4368z"/>
		<g>
			<g>
				
					<ellipse transform="matrix(0.9543 -0.2989 0.2989 0.9543 -1296.5294 215.3831)" fill="#7F58A5" cx="55.9" cy="4346.4" rx="1.2" ry="2.8"/>
				
					<ellipse transform="matrix(0.9972 -7.491062e-002 7.491062e-002 0.9972 -324.9359 17.7737)" fill="#7F58A5" cx="74.5" cy="4340.4" rx="1.2" ry="2.8"/>
				<polygon fill="#7F58A5" points="55,4343.7 74.3,4337.6 74.7,4343.3 56.7,4349.1 				"/>
			</g>
			<g>
				
					<ellipse transform="matrix(0.9972 -7.491062e-002 7.491062e-002 0.9972 -325.0089 17.5156)" fill="#7F58A5" cx="71" cy="4341.3" rx="1.9" ry="4.6"/>
				
					<ellipse transform="matrix(0.9972 -7.491062e-002 7.491062e-002 0.9972 -324.7381 18.3295)" fill="#7F58A5" cx="82" cy="4338.1" rx="1.9" ry="4.6"/>
				<polygon fill="#7F58A5" points="70.6,4336.7 81.6,4333.5 82.3,4342.7 71.3,4345.9 				"/>
			</g>
			<g>
				
					<ellipse transform="matrix(0.9972 -7.491062e-002 7.491062e-002 0.9972 -324.8027 18.0425)" fill="#7F58A5" cx="78.1" cy="4338.8" rx="2.9" ry="7.2"/>
				
					<ellipse transform="matrix(0.9972 -7.491062e-002 7.491062e-002 0.9972 -324.0549 20.3108)" fill="#7F58A5" cx="108.7" cy="4330" rx="2.9" ry="7.2"/>
				<polygon fill="#7F58A5" points="77.6,4331.6 108.2,4322.8 109.3,4337.1 78.7,4346 				"/>
			</g>
		</g>
		<g>
			<path fill="#FFFFFF" d="M62.8,4354.1l-3.4-3.3l-0.5-2.6l1.9-0.8l-0.3-4.4l-2.6-3.3l1.6-1.1l1.8,0.7l3.3-0.6l6.1,5.2
				c0,0-0.7,7.8-1.5,7.8C68.5,4351.7,62.8,4354.1,62.8,4354.1z"/>
			<path fill="#7F58A5" d="M62.7,4354.7l-3.7-3.7l-0.6-3.2l1.9-0.8l-0.3-3.9l-2.8-3.6l2.3-1.5l1.9,0.7l3.4-0.6l6.5,5.5l0,0.3
				c-0.8,8.2-1.5,8.2-2,8.3c-0.5,0-3.6,1.2-6.3,2.4L62.7,4354.7z M59.9,4350.5l3,3c1.5-0.6,5.1-2.1,6.2-2.3c0.4-0.7,0.9-4.1,1.2-7.1
				l-5.7-4.9l-3.2,0.6l-1.7-0.6l-1,0.6l2.4,3l0.4,4.9l-1.8,0.8L59.9,4350.5z"/>
		</g>
		<path fill="#7F58A5" d="M54.1,4344.6L51,4347l2.8,0.6c0.4-0.7,0.5-1.8-0.1-2.4"/>
	</g>
	<path fill="#7F58A5" d="M12.3,4401.8h-1v-109.9c0-6,4.9-11,11-11h39.4v1H22.2c-5.5,0-10,4.5-10,10V4401.8z"/>
	<g>
		<circle fill="#7F58A5" cx="19.4" cy="4329.3" r="1.6"/>
		<circle fill="#7F58A5" cx="33.7" cy="4321.5" r="1.6"/>
		<circle fill="#7F58A5" cx="39.9" cy="4323.9" r="1.6"/>
		<circle fill="#7F58A5" cx="58.6" cy="4310.5" r="1.6"/>
		<circle fill="#7F58A5" cx="64.8" cy="4317" r="1.6"/>
		<circle fill="#7F58A5" cx="81.9" cy="4307" r="1.6"/>
		<circle fill="#7F58A5" cx="90.1" cy="4315.3" r="1.6"/>
		<path fill="#7F58A5" d="M19.6,4329.8l-0.5-0.9l14.3-7.6c0.1-0.1,0.3-0.1,0.4,0l5.7,2.1l18.3-13.7c0.2-0.2,0.5-0.1,0.7,0.1l6.5,7
			l16.3-10.4c0.2-0.1,0.5-0.1,0.6,0.1l8.3,8.3l15.5-13.9l-6.8,0.4l-0.1-1l8.2-0.4c0.2,0,0.4,0.1,0.5,0.3c0.1,0.2,0,0.4-0.1,0.6
			l-16.9,15.1c-0.2,0.2-0.5,0.2-0.7,0l-8.3-8.4l-16.3,10.4c-0.2,0.1-0.5,0.1-0.6-0.1l-6.5-7L40,4324.3c-0.1,0.1-0.3,0.1-0.5,0.1
			l-5.8-2.1L19.6,4329.8z"/>
		
			<rect x="106.3" y="4300.3" transform="matrix(0.9974 7.228834e-002 -7.228834e-002 0.9974 311.3624 3.5377)" fill="#7F58A5" width="1" height="6.1"/>
	</g>
	<g>
		<g>
			<path fill="#7F58A5" d="M111.2,4610c-1.9-1.8-3.5-2.8-5.9-2.8c-2.7,0-4.3,1.3-4.3,3.8c0,5.7,14,5,13.9,15.3c0,5-2.9,8.8-8.2,9.7
				l0,5.4l-4.6,0l0-5.2c-3.1-0.4-6.7-1.9-9.1-4.1l3-4.5c2.5,2,5,3.2,7.6,3.2c3.2,0,4.7-1.4,4.7-4c0-6.2-14-5.8-13.9-15.4
				c0-5,3.1-8.5,7.9-9.4l0-5.4l4.6,0l0,5.3c3.3,0.5,5.7,2.2,7.6,4.3L111.2,4610z"/>
		</g>
		<g>
			<path fill="#7F58A5" d="M57.4,4703.4c-8.6,0-10.5-25.4-10.5-25.4H33.6C33.6,4678,36,4703.4,57.4,4703.4s35.2-16.7,35.2-32.6H76.7
				C76.7,4670.9,68.9,4703.4,57.4,4703.4z"/>
			<polygon fill="#7F58A5" points="64.6,4677 86.3,4644.9 101.9,4679.5 83.1,4672.2 			"/>
		</g>
		<polygon fill="#7F58A5" points="4.7,4688.8 3.7,4688.8 3.7,4661 3.9,4660.7 31.7,4628.3 32.6,4628.6 32.6,4659.3 31.6,4659.3 
			31.6,4629.9 4.7,4661.2 		"/>
		<polygon fill="#7F58A5" points="41.7,4663.8 15.8,4663.8 15.8,4662.8 40.7,4662.8 40.7,4616.1 56,4616.1 56,4591.1 87.7,4591.1 
			87.7,4639.5 86.7,4639.5 86.7,4592.1 57,4592.1 57,4617.1 41.7,4617.1 		"/>
		<polygon fill="#7F58A5" points="48.4,4673.5 47.4,4673.5 47.4,4666.2 55.9,4666.2 55.9,4635.7 82.9,4635.7 82.9,4636.7 
			56.9,4636.7 56.9,4667.2 48.4,4667.2 		"/>
		<polygon fill="#7F58A5" points="66,4636.2 65,4636.2 65,4627.8 82.2,4627.8 82.2,4628.8 66,4628.8 		"/>
		<rect x="72.1" y="4614.4" fill="#7F58A5" width="1" height="13.9"/>
		<polygon fill="#7F58A5" points="87.7,4591.6 86.7,4591.6 86.7,4584.8 64.4,4584.8 64.4,4591.1 63.4,4591.1 63.4,4583.8 
			87.7,4583.8 		"/>
		<polygon fill="#7F58A5" points="87.7,4584.3 86.7,4584.3 86.7,4577.4 72.3,4577.4 72.3,4583.7 71.3,4583.7 71.3,4576.4 
			87.7,4576.4 		"/>
		<rect x="83" y="4559.3" fill="#7F58A5" width="1" height="17.7"/>
		<rect x="61.3" y="4595.7" fill="#7F58A5" width="1" height="12.5"/>
		<rect x="45" y="4619.1" fill="#7F58A5" width="1" height="41"/>
		<rect x="49.9" y="4619.1" fill="#7F58A5" width="1" height="41"/>
		<rect x="66.4" y="4595.7" fill="#7F58A5" width="1" height="12.5"/>
		<rect x="71.6" y="4595.7" fill="#7F58A5" width="1" height="12.5"/>
		<rect x="76.8" y="4595.7" fill="#7F58A5" width="1" height="12.5"/>
		<rect x="81.9" y="4595.7" fill="#7F58A5" width="1" height="12.5"/>
		<rect x="60.1" y="4638.9" fill="#7F58A5" width="1" height="26.4"/>
		<rect x="64.5" y="4638.9" fill="#7F58A5" width="1" height="26.4"/>
		<rect x="68.8" y="4638.9" fill="#7F58A5" width="1" height="26.4"/>
		<rect x="72.9" y="4638.9" fill="#7F58A5" width="1" height="22"/>
		<rect x="76.4" y="4638.9" fill="#7F58A5" width="1" height="16.8"/>
		<g>
			<rect x="27.3" y="4642.2" fill="#7F58A5" width="1" height="15.8"/>
			<rect x="22.5" y="4646.7" fill="#7F58A5" width="1" height="12.7"/>
			<rect x="17.8" y="4651.3" fill="#7F58A5" width="1" height="9.6"/>
			<rect x="13" y="4655.8" fill="#7F58A5" width="1" height="33"/>
			<rect x="8.3" y="4660.4" fill="#7F58A5" width="1" height="28.5"/>
		</g>
		<rect x="17.5" y="4666.3" fill="#7F58A5" width="1" height="22.3"/>
		<rect x="22.4" y="4666.3" fill="#7F58A5" width="1" height="22.3"/>
		<rect x="27.3" y="4666.3" fill="#7F58A5" width="1" height="22.3"/>
		<rect x="32.1" y="4628.1" fill="#7F58A5" width="9" height="1"/>
		<rect x="35.4" y="4633.2" fill="#7F58A5" width="1" height="6.5"/>
		<rect x="35.4" y="4642.7" fill="#7F58A5" width="1" height="6.5"/>
		<rect x="35.4" y="4652.2" fill="#7F58A5" width="1" height="6.5"/>
		<rect x="32.3" y="4666.8" fill="#7F58A5" width="9" height="1"/>
		<rect x="32.3" y="4670.4" fill="#7F58A5" width="9" height="1"/>
		<rect x="32.3" y="4673.9" fill="#7F58A5" width="9" height="1"/>
		<rect x="80.5" y="4638.9" fill="#7F58A5" width="1" height="9.7"/>
	</g>
	<path fill="#7F58A5" d="M87.7,4727.3h-4v-1h4V4727.3z M79.7,4727.3h-4v-1h4V4727.3z M71.7,4727.3h-4v-1h4V4727.3z M63.7,4727.3h-4
		v-1h4V4727.3z M55.7,4727.3h-4v-1h4V4727.3z M47.7,4727.3h-4v-1h4V4727.3z M39.7,4727.3h-4v-1h4V4727.3z M31.7,4727.3h-4v-1h4
		V4727.3z M91.8,4727.3l0-1c1.3,0,2.5-0.3,3.7-0.8l0.4,0.9C94.5,4727,93.2,4727.3,91.8,4727.3z M23.7,4727c-1.4-0.3-2.7-0.7-3.9-1.3
		l0.5-0.9c1.2,0.6,2.4,1,3.6,1.3L23.7,4727z M99.4,4724.3l-0.7-0.8c1-0.8,1.8-1.8,2.4-3l0.9,0.5
		C101.3,4722.3,100.4,4723.4,99.4,4724.3z M16.4,4723.3c-1-0.9-1.9-2-2.7-3.1l0.8-0.5c0.7,1.1,1.5,2.1,2.5,2.9L16.4,4723.3z
		 M103.3,4717.2l-1-0.2c0.1-0.6,0.1-1.2,0.1-1.8c0-0.7,0.1-1.5,0.2-2.2l1,0.2c-0.1,0.7-0.2,1.3-0.2,2
		C103.5,4715.9,103.4,4716.5,103.3,4717.2z M12,4716.4c-0.4-1.3-0.6-2.7-0.7-4.1l1,0c0,1.3,0.3,2.6,0.6,3.8L12,4716.4z M105,4709.6
		l-0.9-0.5c0.7-1.2,1.6-2.3,2.7-3.2l0.6,0.8C106.5,4707.5,105.6,4708.5,105,4709.6z M12.3,4708.4h-1v-4h1V4708.4z M110.7,4704.8
		l-0.4-0.9c1.3-0.5,2.7-0.7,4.1-0.8l0,1C113.2,4704.1,111.9,4704.3,110.7,4704.8z M118.5,4704l-0.1-1c1.3-0.2,2.5-0.6,3.6-1.2
		l0.5,0.9C121.2,4703.3,119.9,4703.8,118.5,4704z M12.3,4700.4h-1v-1.8h1V4700.4z M125.8,4700.2l-0.7-0.7c0.9-0.9,1.6-2,2.1-3.2
		l0.9,0.4C127.5,4698,126.7,4699.2,125.8,4700.2z M129,4692.7l-1-0.1c0-0.2,0-0.4,0-0.7v-3.3h1v3.3
		C129,4692.2,129,4692.4,129,4692.7z M129,4684.6h-1v-4h1V4684.6z M129,4676.6h-1v-4h1V4676.6z M129,4668.6h-1v-4h1V4668.6z
		 M129,4660.6h-1v-4h1V4660.6z M129,4652.6h-1v-4h1V4652.6z M129,4644.6h-1v-4h1V4644.6z M129,4636.6h-1v-4h1V4636.6z M129,4628.6
		h-1v-4h1V4628.6z M129,4620.6h-1v-4h1V4620.6z M129,4612.6h-1v-4h1V4612.6z M129,4604.6h-1v-4h1V4604.6z M129,4596.6h-1v-4h1
		V4596.6z M129,4588.6h-1v-4h1V4588.6z M128,4580.7c-0.1-1.3-0.5-2.5-1.2-3.6l0.9-0.5c0.7,1.2,1.2,2.6,1.3,4L128,4580.7z
		 M124.2,4574.4c-1-0.7-2.2-1.2-3.5-1.4l0.2-1c1.4,0.3,2.7,0.8,3.9,1.6L124.2,4574.4z M116.7,4572.5c-1.4-0.3-2.6-1-3.7-1.9l0.6-0.8
		c1,0.8,2.1,1.4,3.4,1.7L116.7,4572.5z M110.3,4567.4c-0.6-1.3-1-2.6-1.1-4l1,0c0.1,1.3,0.4,2.5,1,3.6L110.3,4567.4z M110.3,4559.3
		h-1v-2.4c0-0.5,0-1-0.1-1.5l1-0.2c0.1,0.5,0.1,1.1,0.1,1.6V4559.3z M107.7,4551.9c-0.7-1-1.6-1.9-2.7-2.6l0.5-0.9
		c1.2,0.7,2.2,1.7,3,2.9L107.7,4551.9z M101.5,4548.1c-0.4,0-0.7-0.1-1.1-0.1h-2.8v-1h2.8c0.4,0,0.8,0,1.2,0.1L101.5,4548.1z
		 M93.5,4548h-4v-1h4V4548z M85.5,4548h-4v-1h4V4548z M77.5,4548h-4v-1h4V4548z M69.5,4548h-4v-1h4V4548z M61.5,4548h-4v-1h4V4548z
		 M53.5,4548c-0.3,0-0.6-0.2-0.6-0.5v-3.9h1v3.9h-0.5L53.5,4548z M54,4539.6h-1v-4h1V4539.6z M54,4531.6h-1v-4h1V4531.6z M54,4523.6
		h-1v-4h1V4523.6z M54,4515.6h-1v-4h1V4515.6z M54,4507.6h-1v-4h1V4507.6z M54,4499.6h-1v-4h1V4499.6z M54,4491.6h-1v-4h1V4491.6z
		 M54,4483.6h-1v-4h1V4483.6z M54,4475.6h-1v-4h1V4475.6z M54,4467.6h-1v-4h1V4467.6z M54,4459.6h-1v-4h1V4459.6z M54,4451.6h-1v-4
		h1V4451.6z"/>
	<path fill="#7F58A5" d="M12.3,4633.1h-1v-63.3c0-6,4.9-11,11-11h39.4v1H22.2c-5.5,0-10,4.5-10,10V4633.1z"/>
	<path fill="#7F58A5" d="M37.4,4292.8c-0.3,0-0.5-0.2-0.5-0.5v-63.8c0-0.3,0.2-0.5,0.5-0.5s0.5,0.2,0.5,0.5v63.8
		C37.9,4292.6,37.6,4292.8,37.4,4292.8z"/>
	<path fill="#7F58A5" d="M62.1,4244.1c-0.3,0-0.5-0.2-0.5-0.5v-63.8c0-0.3,0.2-0.5,0.5-0.5s0.5,0.2,0.5,0.5v63.8
		C62.6,4243.9,62.4,4244.1,62.1,4244.1z"/>
	<rect x="35.9" y="4501.8" fill="#7F58A5" width="1" height="78.6"/>
	<rect x="68.7" y="4735.2" fill="#7F58A5" width="1" height="78.6"/>
	<path fill="#7F58A5" d="M136,4844.4H70.3c-8.1,0-14.8-6.6-14.8-14.8v-102.4h1v102.4c0,7.6,6.2,13.8,13.8,13.8H136V4844.4z"/>
	<path fill="#7F58A5" d="M247.5,4856.2H60.9c-10.9,0-19.8-8.9-19.8-19.8v-89.5h1v89.5c0,10.4,8.5,18.8,18.8,18.8h186.6V4856.2z"/>
	<rect x="78.3" y="4874.8" fill="#7F58A5" width="125.9" height="1"/>
	<rect x="125.2" y="4905.4" fill="#7F58A5" width="125.9" height="1"/>
	<rect x="781.8" y="4895.7" fill="#7F58A5" width="236.5" height="1"/>
	<rect x="398.2" y="4828.8" fill="#7F58A5" width="491.1" height="1"/>
	<rect x="128.3" y="4806.1" fill="#7F58A5" width="491.1" height="1"/>
</g>
<g>
</g>
<g>
</g>
<g>
</g>
<g>
</g>
<g>
</g>
<g>
</g>
<g>
</g>
<g>
</g>
<g>
</g>
<g>
</g>
<g>
</g>
<g>
</g>
<g>
</g>
<g>
</g>
<g>
</g>
</svg>
