<?xml version="1.0" encoding="utf-8"?>
<!-- Generator: Adobe Illustrator 18.0.0, SVG Export Plug-In . SVG Version: 6.00 Build 0)  -->
<!DOCTYPE svg PUBLIC "-//W3C//DTD SVG 1.1//EN" "http://www.w3.org/Graphics/SVG/1.1/DTD/svg11.dtd">
<svg version="1.1" id="Layer_1" xmlns="http://www.w3.org/2000/svg" xmlns:xlink="http://www.w3.org/1999/xlink" x="0px" y="0px"
	 viewBox="0 0 128.1 157.2" enable-background="new 0 0 128.1 157.2" xml:space="preserve">
<g>
	<g>
		<path fill="#0C56AB" d="M44.1,27.9C54.8,35.6,65.8,39,76.9,38.1v8.7c-11.7-2.3-22.7,0.5-32.8,8.7V27.9z"/>
		<polygon fill="#0C56AB" points="76.2,33.3 76.2,52.7 88.9,41.7 		"/>
		<g>
			<g>
				<circle fill="#F7A823" stroke="#594A42" stroke-width="0.2662" stroke-miterlimit="10" cx="16.4" cy="16.4" r="16.3"/>
			</g>
			<g>
				<circle fill="#754C29" cx="16.4" cy="16.4" r="15.2"/>
			</g>
			<g>
				<path fill="#F7A823" d="M16.7,3.3c0.9,0,1.6,0.7,1.6,1.6v0.4c1.6,0.2,3.1,0.7,4.4,1.5c0.6,0.3,1.1,0.9,1.1,1.8
					c0,1.1-0.9,2-2.1,2c-0.4,0-0.7-0.1-1.1-0.3c-0.8-0.5-1.7-0.8-2.5-1l0,4.6c4.6,1.2,6.6,3.1,6.6,6.5c0,3.4-2.6,5.6-6.4,6V28
					c0,0.9-0.7,1.6-1.6,1.6c-0.9,0-1.6-0.7-1.6-1.6v-1.6c-2.1-0.3-4.2-1-6-2.1c-0.6-0.4-1-1-1-1.8c0-1.2,0.9-2.1,2.1-2.1
					c0.4,0,0.8,0.2,1.2,0.4c1.3,0.8,2.5,1.4,3.9,1.7l0-4.8c-4.4-1.2-6.5-2.8-6.5-6.4c0-3.3,2.5-5.6,6.3-6l0-0.4
					C15.1,4,15.8,3.3,16.7,3.3z M15.3,13.1l0-4.1c-1.5,0.2-2.1,0.9-2.1,1.9C13.2,11.8,13.6,12.5,15.3,13.1z M18.1,18.4l0,4.2
					c1.4-0.2,2.1-0.9,2.1-2C20.3,19.6,19.7,18.9,18.1,18.4z"/>
			</g>
		</g>
		<g>
			<g>
				<circle fill="#F7A823" stroke="#594A42" stroke-width="0.2662" stroke-miterlimit="10" cx="16.4" cy="57.9" r="16.3"/>
			</g>
			<g>
				<circle fill="#754C29" cx="16.4" cy="57.9" r="15.2"/>
			</g>
			<g>
				<path fill="#F7A823" d="M16.7,44.7c0.9,0,1.6,0.7,1.6,1.6v0.4c1.6,0.2,3.1,0.7,4.4,1.5c0.6,0.3,1.1,0.9,1.1,1.8
					c0,1.1-0.9,2-2.1,2c-0.4,0-0.7-0.1-1.1-0.3c-0.8-0.5-1.7-0.8-2.5-1l0,4.6c4.6,1.2,6.6,3.1,6.6,6.5c0,3.4-2.6,5.6-6.4,6v1.6
					c0,0.9-0.7,1.6-1.6,1.6c-0.9,0-1.6-0.7-1.6-1.6v-1.6c-2.1-0.3-4.2-1-6-2.1c-0.6-0.4-1-1-1-1.8c0-1.2,0.9-2.1,2.1-2.1
					c0.4,0,0.8,0.2,1.2,0.4c1.3,0.8,2.5,1.4,3.9,1.7l0-4.8c-4.4-1.2-6.5-2.8-6.5-6.4c0-3.3,2.5-5.6,6.3-6l0-0.4
					C15.1,45.4,15.8,44.7,16.7,44.7z M15.3,54.5l0-4.1c-1.5,0.2-2.1,0.9-2.1,1.9C13.2,53.3,13.6,53.9,15.3,54.5z M18.1,59.8l0,4.2
					c1.4-0.2,2.1-0.9,2.1-2C20.3,61.1,19.7,60.4,18.1,59.8z"/>
			</g>
		</g>
		<g>
			<g>
				<circle fill="#F7A823" stroke="#594A42" stroke-width="0.2662" stroke-miterlimit="10" cx="111.7" cy="41.6" r="16.3"/>
			</g>
			<g>
				<circle fill="#754C29" cx="111.7" cy="41.6" r="15.2"/>
			</g>
			<g>
				<path fill="#F7A823" d="M112,28.5c0.9,0,1.6,0.7,1.6,1.6v0.4c1.6,0.2,3.1,0.7,4.4,1.5c0.6,0.3,1.1,0.9,1.1,1.8
					c0,1.1-0.9,2-2.1,2c-0.4,0-0.7-0.1-1.1-0.3c-0.8-0.5-1.7-0.8-2.5-1v4.6c4.6,1.2,6.6,3.1,6.6,6.5c0,3.4-2.6,5.6-6.4,6v1.6
					c0,0.9-0.7,1.6-1.6,1.6c-0.9,0-1.6-0.7-1.6-1.6v-1.6c-2.1-0.3-4.2-1-6-2.1c-0.6-0.4-1-1-1-1.8c0-1.2,0.9-2.1,2.1-2.1
					c0.4,0,0.8,0.2,1.2,0.4c1.3,0.8,2.5,1.4,3.9,1.7v-4.8c-4.4-1.2-6.5-2.8-6.5-6.4c0-3.3,2.5-5.6,6.3-6V30
					C110.4,29.2,111.1,28.5,112,28.5z M110.6,38.3l0-4.1c-1.5,0.2-2.1,0.9-2.1,1.9C108.5,37,108.9,37.7,110.6,38.3z M113.4,43.6v4.2
					c1.4-0.2,2.1-0.9,2.1-2C115.6,44.8,115.1,44.1,113.4,43.6z"/>
			</g>
		</g>
	</g>
	<g>
		<g>
			<polygon fill="#0C56AB" points="14.3,102.2 112.9,102.2 64.5,71.1 			"/>
			<rect x="21.8" y="104.3" fill="#0C56AB" width="8.5" height="39.5"/>
			<rect x="40.5" y="104.3" fill="#0C56AB" width="8.5" height="39.5"/>
			<rect x="80.2" y="104.3" fill="#0C56AB" width="8.5" height="39.5"/>
			<rect x="98.8" y="104.3" fill="#0C56AB" width="8.5" height="39.5"/>
			<polygon fill="#0C56AB" points="111.4,150.4 111.4,147.9 15.8,147.9 15.8,150.4 11.8,150.4 11.8,157.2 115.5,157.2 115.5,150.4 
							"/>
			<g>
				<path fill="#0C56AB" d="M65.3,106.6c1.1,0,2,0.9,2,2v0.5c2.1,0.3,3.9,0.9,5.6,1.8c0.7,0.4,1.4,1.2,1.4,2.3
					c0,1.5-1.2,2.6-2.6,2.6c-0.5,0-0.9-0.1-1.3-0.3c-1.1-0.6-2.2-1-3.2-1.3v5.9c5.8,1.6,8.4,4,8.4,8.3c0,4.3-3.3,7.1-8.2,7.6v2
					c0,1.1-0.9,2-2,2c-1.1,0-2-0.9-2-2v-2.1c-2.7-0.3-5.3-1.3-7.6-2.7c-0.8-0.5-1.3-1.3-1.3-2.3c0-1.5,1.2-2.6,2.7-2.6
					c0.5,0,1,0.2,1.5,0.5c1.6,1,3.2,1.8,4.9,2.2v-6.1c-5.5-1.5-8.3-3.6-8.3-8.2c0-4.2,3.2-7.1,8.1-7.6v-0.5
					C63.3,107.4,64.2,106.6,65.3,106.6z M63.5,119v-5.2c-1.8,0.3-2.7,1.2-2.7,2.4C60.9,117.4,61.4,118.3,63.5,119z M67.2,125.8v5.3
					c1.8-0.3,2.7-1.1,2.7-2.5C69.9,127.3,69.2,126.5,67.2,125.8z"/>
			</g>
		</g>
	</g>
</g>
<g>
</g>
<g>
</g>
<g>
</g>
<g>
</g>
<g>
</g>
<g>
</g>
<g>
</g>
<g>
</g>
<g>
</g>
<g>
</g>
<g>
</g>
<g>
</g>
<g>
</g>
<g>
</g>
<g>
</g>
</svg>
