<?xml version="1.0" encoding="utf-8"?>
<!-- Generator: Adobe Illustrator 18.0.0, SVG Export Plug-In . SVG Version: 6.00 Build 0)  -->
<!DOCTYPE svg PUBLIC "-//W3C//DTD SVG 1.1//EN" "http://www.w3.org/Graphics/SVG/1.1/DTD/svg11.dtd">
<svg version="1.1" id="Layer_1" xmlns="http://www.w3.org/2000/svg" xmlns:xlink="http://www.w3.org/1999/xlink" x="0px" y="0px"
	 viewBox="0 0 1457.2 764.2" enable-background="new 0 0 1457.2 764.2" xml:space="preserve">
<g>
	<g>
		<g>
			<path fill="#0C56AB" d="M0,100.2c25.5-20.4,54.3-36.5,84.6-48.8L96,46.9l11.6-4c1.9-0.7,3.8-1.4,5.8-2l5.9-1.8
				c3.9-1.2,7.8-2.4,11.7-3.5l11.9-3.1c2-0.5,3.9-1.1,5.9-1.5l6-1.3l12-2.6l12.1-2.2c8-1.6,16.1-2.6,24.2-3.7c4-0.6,8.1-1,12.2-1.4
				l12.2-1.3c4.1-0.3,8.1-0.6,12.2-0.9l6.1-0.4c2-0.1,4.1-0.3,6.1-0.4l12.2-0.4c4.1-0.1,8.2-0.4,12.2-0.3
				c32.7-0.4,65.4,1.6,97.8,5.4l12.2,1.6c4,0.6,8.1,1,12.1,1.7c8.1,1.3,16.1,2.5,24.2,3.9l24.1,4.6c8,1.6,16,3.5,23.9,5.2
				c31.8,7.3,63.3,16.2,94.4,26.2c31.1,10.2,61.7,21.7,91.9,33.9c30.2,12.5,59.9,26.2,89.5,40c29.7,13.7,59.5,26.9,89.6,39.6
				c30.1,12.7,60.4,24.8,91.1,36c15.3,5.6,30.7,11,46.2,16.2c15.5,5.1,31.1,10,46.8,14.5c31.4,9,63.2,16.7,95.3,22.2
				c32.2,5.4,64.8,8.6,97.5,7.7c16.3-0.4,32.6-1.8,48.7-4.6l6-1.1l6-1.2l3-0.6l3-0.7l5.9-1.4l5.9-1.6l2.9-0.8l2.9-0.9l5.8-1.8l5.8-2
				l2.9-1l2.9-1.1l5.7-2.2c3.7-1.6,7.5-3.1,11.2-4.9c7.4-3.4,14.6-7.3,21.7-11.4l5.2-3.2c1.8-1,3.4-2.2,5.1-3.3
				c3.5-2.2,6.7-4.6,10.1-6.9c1.7-1.2,3.3-2.4,4.9-3.7l2.4-1.8l2.4-1.9l4.8-3.8l4.7-4l2.3-2l2.3-2.1l4.5-4.1
				c2.9-2.8,5.9-5.6,8.8-8.6c5.8-5.8,11.2-11.9,16.6-18c10.6-12.4,20.5-25.4,29.7-38.9c-9.2,13.5-19.1,26.5-29.6,39
				c-5.4,6.1-10.8,12.3-16.6,18c-2.8,3-5.8,5.7-8.7,8.6l-4.5,4.1l-2.3,2.1l-2.3,2l-4.7,4l-4.8,3.8l-2.4,1.9l-2.4,1.8
				c-1.6,1.2-3.3,2.5-4.9,3.7c-3.4,2.3-6.6,4.8-10.1,6.9c-1.7,1.1-3.4,2.3-5.1,3.3l-5.2,3.2c-7.1,4.1-14.2,8-21.7,11.5
				c-3.7,1.8-7.5,3.3-11.2,5l-5.7,2.2l-2.9,1.1l-2.9,1l-5.8,2l-5.8,1.8l-2.9,0.9l-3,0.8l-5.9,1.6l-6,1.4l-3,0.7l-3,0.6l-6,1.2
				l-6,1.1c-16.1,2.8-32.4,4.2-48.8,4.7c-32.7,0.9-65.4-2.3-97.6-7.7c-32.2-5.4-64-13.1-95.4-22.1c-15.7-4.5-31.3-9.4-46.8-14.5
				c-15.5-5.2-30.9-10.5-46.3-16.1c-61.4-22.5-121.5-48.2-180.8-75.5c-29.6-13.8-59.2-27.5-89.4-40.1c-30.2-12.3-60.8-23.8-91.8-34
				c-31.1-10-62.5-18.9-94.3-26.3c-8-1.7-15.9-3.6-23.9-5.2l-24.1-4.6c-8-1.4-16.1-2.6-24.2-3.9c-4-0.7-8.1-1.1-12.1-1.7L374,22
				c-32.4-3.9-65.1-5.8-97.7-5.5c-4.1-0.1-8.2,0.2-12.2,0.3l-12.2,0.4c-2,0-4.1,0.2-6.1,0.4l-6.1,0.4c-4.1,0.3-8.1,0.5-12.2,0.9
				l-12.2,1.3c-4.1,0.4-8.1,0.8-12.2,1.4c-8.1,1.2-16.2,2.1-24.2,3.7l-12.1,2.2l-12,2.6l-6,1.3c-2,0.5-4,1-5.9,1.5l-11.9,3.1
				c-3.9,1.1-7.8,2.3-11.7,3.5l-5.9,1.8c-2,0.6-3.9,1.3-5.8,2l-11.6,4l-11.4,4.5C54.4,63.8,25.6,79.9,0,100.2z"/>
		</g>
		<g>
			<path fill="#0C56AB" d="M0.1,128.1c12.4-10.6,25.6-20.2,39.4-29l10.4-6.4l10.7-5.9c3.5-2,7.2-3.8,10.9-5.6
				c3.7-1.8,7.3-3.7,11-5.3l11.2-5c3.7-1.6,7.6-3,11.4-4.6l5.7-2.3c1.9-0.7,3.8-1.4,5.8-2l11.6-4c15.6-4.9,31.2-9.4,47.2-12.8l6-1.3
				c2-0.4,4-0.9,6-1.2l12-2.2l6-1.1l6.1-0.9l12.1-1.7c1-0.1,2-0.3,3-0.4l3-0.3l6.1-0.6l12.2-1.2l12.2-0.8l6.1-0.4
				c2-0.1,4.1-0.3,6.1-0.3c32.6-1.4,65.3-0.4,97.8,2.7l12.2,1.3l6.1,0.7l3,0.3c1,0.1,2,0.3,3,0.4l24.2,3.4l24.1,4.2
				c2,0.3,4,0.7,6,1.2l6,1.2l12,2.5c31.9,6.9,63.4,15.4,94.5,25.2c31.1,9.9,61.7,21.4,91.9,33.6c30.1,12.5,59.7,26.3,89.3,40.1
				c59.2,27.4,119,53.6,179.9,76.7c30.5,11.6,61.3,22.4,92.4,31.9c15.6,4.8,31.3,9.3,47.1,13.3c15.8,4,31.7,7.7,47.7,10.8
				c32,6.2,64.5,10.2,97.1,10.4c32.6,0.2,65.3-3.6,96.5-13.3c7.8-2.5,15.5-5.1,23-8.3l2.8-1.2l2.8-1.2l5.6-2.5l5.5-2.7
				c0.9-0.5,1.8-0.9,2.7-1.4l2.7-1.4c7.2-3.7,14.2-8,21.1-12.4c3.4-2.3,6.8-4.5,10.1-6.9c3.3-2.3,6.6-4.8,9.8-7.3
				c6.4-5,12.7-10.3,18.7-15.8c6.1-5.5,11.8-11.2,17.5-17.1c11.2-11.8,21.8-24.3,31.7-37.2c-9.9,13-20.4,25.5-31.6,37.3
				c-5.7,5.9-11.4,11.7-17.5,17.1c-6,5.5-12.2,10.8-18.6,15.8c-3.2,2.5-6.5,5-9.8,7.3c-3.3,2.4-6.7,4.7-10.1,6.9
				c-6.9,4.4-13.8,8.7-21.1,12.4l-2.7,1.4c-0.9,0.5-1.8,0.9-2.7,1.4l-5.5,2.7l-5.6,2.5l-2.8,1.3l-2.8,1.2c-7.5,3.2-15.2,5.9-23,8.4
				c-31.2,9.7-64,13.6-96.6,13.4c-32.7-0.2-65.2-4.2-97.2-10.3c-16-3.1-31.9-6.7-47.7-10.7c-15.8-4-31.5-8.5-47.1-13.2
				c-31.2-9.5-62-20.3-92.5-31.9c-61-23.1-120.9-49.2-180.1-76.6c-29.5-13.9-59.1-27.7-89.2-40.2C622.5,98,592,86.6,560.9,76.7
				c-31.1-9.8-62.6-18.4-94.4-25.3l-12-2.5l-6-1.2c-2-0.4-4-0.8-6-1.2l-24.1-4.2l-24.2-3.4c-1-0.1-2-0.3-3-0.4l-3-0.3l-6.1-0.7
				l-12.2-1.3c-32.4-3.1-65.1-4.2-97.7-2.8c-32.6,1.3-65,5.5-96.9,12.4c-16,3.3-31.7,7.8-47.2,12.7l-11.6,4c-1.9,0.7-3.9,1.3-5.8,2
				l-5.7,2.2c-3.8,1.5-7.6,2.9-11.4,4.5l-11.2,4.9c-3.8,1.6-7.4,3.5-11,5.3c-3.6,1.8-7.3,3.5-10.9,5.6L50,92.9l-10.4,6.4
				C25.7,108,12.5,117.5,0.1,128.1z"/>
		</g>
		<g>
			<path fill="#0C56AB" d="M0.2,156.1c12-11,24.8-21.1,38.2-30.4l10.2-6.8c3.4-2.2,7-4.2,10.4-6.4c1.8-1,3.5-2.2,5.2-3.1l5.4-2.9
				l5.4-2.9c1.8-1,3.6-2,5.4-2.9l11-5.4l2.7-1.4l2.8-1.2l5.6-2.5c7.4-3.4,15-6.3,22.6-9.3c1-0.4,1.9-0.8,2.9-1.1l2.9-1l5.8-2l5.8-2
				l2.9-1l2.9-0.9c7.8-2.3,15.6-4.9,23.5-6.8c31.5-8.3,63.8-13.6,96.4-16.2c32.5-2.5,65.2-2.4,97.7-0.1l12.2,1l6.1,0.5
				c2,0.2,4.1,0.3,6.1,0.6l24.3,2.9l24.2,3.8c2,0.3,4,0.7,6,1.1l6,1.1l12,2.3c32,6.4,63.6,14.7,94.7,24.2l23.3,7.6
				c3.9,1.2,7.7,2.6,11.6,4l11.5,4.1l11.5,4.1l11.4,4.5l11.4,4.5l5.7,2.2l2.8,1.1l2.8,1.2l22.5,9.6l5.6,2.4c1.9,0.8,3.7,1.7,5.6,2.5
				l11.1,5.1c7.4,3.4,14.8,6.7,22.2,10.3l22.1,10.4c59.1,27.6,118.6,54.1,179.3,78c7.6,3,15.2,5.9,22.8,8.8
				c7.6,2.8,15.3,5.7,22.9,8.5c15.3,5.6,30.7,10.9,46.2,15.9c31,10.1,62.4,19,94.2,25.9c31.8,6.9,64.2,11.8,96.7,13
				c16.3,0.6,32.6,0.2,48.8-1.3c16.2-1.6,32.3-4.4,48-8.6c31.5-8.3,61.3-22.6,88-41.4c13.3-9.4,25.9-19.8,37.7-31
				c11.8-11.2,23-23.1,33.6-35.5c-10.5,12.4-21.7,24.4-33.5,35.6c-11.8,11.3-24.4,21.7-37.6,31.2c-26.6,18.8-56.4,33.3-88,41.7
				c-2,0.6-3.9,1-5.9,1.5c-2,0.5-4,1-6,1.4c-4,0.8-8,1.7-12,2.4c-8,1.5-16.1,2.5-24.2,3.4c-16.2,1.5-32.6,1.9-48.9,1.4
				c-32.6-1.2-65-6.1-96.9-12.9c-31.9-6.9-63.3-15.8-94.3-25.8c-15.5-5-30.9-10.3-46.3-15.9c-7.7-2.7-15.3-5.6-22.9-8.5
				c-7.6-2.9-15.2-5.8-22.8-8.8c-60.7-23.8-120.3-50.3-179.4-77.8l-22.1-10.4c-7.4-3.5-14.8-6.8-22.2-10.3l-11.1-5.1
				c-1.9-0.8-3.7-1.7-5.6-2.5l-5.6-2.4l-22.5-9.6l-2.8-1.2l-2.8-1.1l-5.7-2.2l-11.4-4.5l-11.4-4.5l-11.5-4.1l-11.5-4.1
				c-3.8-1.4-7.7-2.8-11.5-4l-23.2-7.6c-31.1-9.6-62.7-17.9-94.6-24.3l-12-2.3l-6-1.1c-2-0.4-4-0.8-6-1.1l-24.1-3.8L390,52.5
				c-2-0.3-4.1-0.4-6.1-0.6l-6.1-0.5l-12.2-1c-32.5-2.3-65.2-2.5-97.7,0c-32.5,2.5-64.8,7.8-96.3,16.1c-7.9,1.9-15.7,4.4-23.5,6.7
				l-2.9,0.9l-2.9,1l-5.8,2l-5.8,2l-2.9,1c-1,0.3-1.9,0.7-2.9,1.1c-7.6,3-15.2,5.8-22.6,9.3L97,92.8l-2.8,1.2l-2.7,1.3l-11,5.4
				c-1.8,0.9-3.6,1.9-5.4,2.8l-5.4,2.9l-5.4,2.9c-1.8,1-3.5,2.1-5.3,3.1c-3.5,2.1-7,4.2-10.4,6.3l-10.2,6.8
				C25.1,135,12.2,145.1,0.2,156.1z"/>
		</g>
		<g>
			<path fill="#0C56AB" d="M0.3,184c11.6-11.4,24.1-22,37.1-31.8l9.9-7.2c1.6-1.2,3.4-2.3,5.1-3.4l5.1-3.4l5.1-3.4l5.2-3.2
				c3.5-2.1,7-4.2,10.5-6.3c7.2-3.9,14.2-8,21.6-11.4l5.5-2.7c1.8-0.9,3.6-1.8,5.5-2.6l11.2-4.9c3.7-1.7,7.5-3.2,11.3-4.7
				c3.8-1.5,7.6-3,11.4-4.4l11.6-4l5.8-2l5.9-1.8c31.2-9.6,63.3-16.2,95.7-19.9c32.4-3.7,65.1-4.5,97.7-3c8.1,0.5,16.3,1,24.4,1.6
				l24.3,2.4l24.2,3.3l3,0.4l3,0.5l6,1.1l12.1,2.1c32.1,6,63.8,13.9,95,23.3l23.3,7.4c3.9,1.2,7.7,2.6,11.6,4l11.5,4.1
				c3.8,1.4,7.7,2.7,11.5,4.1l11.4,4.4l11.4,4.4c3.8,1.5,7.6,2.9,11.3,4.6l22.5,9.6l5.6,2.4l5.6,2.6l11.1,5.1
				c14.9,6.7,29.5,13.9,44.3,20.8c29.5,13.9,59.1,27.6,88.9,40.9c14.9,6.7,29.8,13.2,44.8,19.6c15,6.4,30,12.7,45.1,18.9
				c30.2,12.3,60.7,23.9,91.5,34.6c30.8,10.6,62,20.1,93.7,27.8c31.7,7.6,63.9,13.3,96.4,15.5c16.3,1.1,32.6,1.3,48.8,0.2l6.1-0.4
				l6.1-0.6c4.1-0.3,8.1-0.9,12.1-1.4c8.1-1.2,16.1-2.5,24-4.4c15.9-3.5,31.5-8.6,46.5-14.8c7.5-3.2,14.9-6.6,22.1-10.5
				c3.6-1.8,7.1-3.9,10.7-5.9c1.8-1,3.5-2.1,5.2-3.1c1.7-1.1,3.5-2.1,5.2-3.2c27.5-17.5,52.1-39.4,74.4-63.1
				c-22.3,23.8-46.8,45.7-74.3,63.3c-1.7,1.1-3.5,2.2-5.2,3.2c-1.7,1.1-3.5,2.2-5.2,3.2c-3.6,2-7.1,4.1-10.7,5.9
				c-7.2,3.9-14.6,7.3-22.1,10.6c-15,6.3-30.6,11.4-46.5,15c-7.9,1.9-16,3.2-24.1,4.4c-4,0.5-8.1,1.1-12.2,1.4l-6.1,0.6l-6.1,0.4
				c-16.3,1.1-32.6,0.9-48.9-0.2c-32.6-2.1-64.8-7.8-96.5-15.4c-31.7-7.6-62.9-17.2-93.8-27.7c-30.8-10.6-61.3-22.2-91.6-34.5
				c-15.1-6.1-30.1-12.4-45.2-18.8c-15-6.4-29.9-12.9-44.8-19.6c-29.8-13.3-59.4-26.9-88.9-40.8c-14.8-6.9-29.4-14.1-44.3-20.8
				l-11.1-5.1l-5.5-2.6l-5.6-2.4l-22.5-9.6c-3.7-1.7-7.5-3.1-11.3-4.6l-11.4-4.5l-11.4-4.5c-3.8-1.4-7.7-2.7-11.5-4.1l-11.5-4.1
				c-3.8-1.3-7.7-2.8-11.6-4l-23.3-7.4c-31.2-9.4-62.9-17.4-94.9-23.3l-12-2.1l-6-1.1l-3-0.5l-3-0.4l-24.2-3.3l-24.3-2.5
				c-8.1-0.6-16.3-1.1-24.4-1.6c-32.6-1.5-65.2-0.8-97.6,2.9c-32.4,3.7-64.4,10.2-95.6,19.8l-5.9,1.8l-5.8,2l-11.6,4
				c-3.8,1.4-7.6,2.9-11.4,4.4c-3.8,1.5-7.6,2.9-11.3,4.6l-11.2,4.9c-1.9,0.8-3.7,1.7-5.5,2.6l-5.5,2.7c-7.4,3.4-14.4,7.5-21.6,11.4
				c-3.5,2-7,4.2-10.5,6.2l-5.2,3.1l-5.1,3.4l-5.1,3.4c-1.7,1.1-3.4,2.2-5.1,3.4l-9.9,7.2C24.4,162.1,11.9,172.6,0.3,184z"/>
		</g>
		<g>
			<path fill="#0C56AB" d="M0.4,212c11.3-11.8,23.4-22.8,36-33.2l9.6-7.5l2.4-1.9l2.5-1.8l5-3.6c6.5-4.9,13.5-9.2,20.3-13.7
				c3.5-2.1,7-4.2,10.5-6.3l5.3-3.1l5.4-2.9l10.8-5.8l11-5.4l5.5-2.7c1.9-0.8,3.7-1.7,5.6-2.5l11.2-4.9c3.8-1.6,7.6-3,11.4-4.5
				c3.8-1.5,7.6-3.1,11.5-4.3c30.8-10.9,62.7-18.7,95-23.6l3-0.5l3-0.4l6.1-0.7l12.2-1.5c8.1-0.8,16.3-1.3,24.4-2l24.5-0.9
				c8.2,0,16.3,0,24.5,0.1c32.7,0.7,65.3,4.1,97.5,9.5c32.2,5.5,64,13.1,95.4,22.3l23.4,7.3c1,0.3,2,0.6,2.9,0.9l2.9,1l5.8,2l11.6,4
				l5.8,2c1.9,0.7,3.9,1.3,5.8,2.1l11.4,4.4l11.4,4.4l5.7,2.2c1.9,0.8,3.8,1.6,5.6,2.4l22.5,9.6c3.8,1.5,7.5,3.3,11.2,5l11.1,5.2
				c14.9,6.8,29.5,14,44.3,20.9c29.5,14,59,27.9,88.8,41.4c29.7,13.6,59.6,26.7,89.6,39.4c15,6.3,30.2,12.5,45.3,18.5
				c15.2,6,30.4,11.8,45.8,17.4c30.7,11.2,61.7,21.3,93.3,29.7c31.5,8.4,63.6,14.9,96.1,18.1c16.2,1.6,32.6,2.2,48.9,1.7
				c2,0,4.1-0.1,6.1-0.2l6.1-0.3l6.1-0.5c2-0.2,4.1-0.3,6.1-0.6l6.1-0.7c2-0.2,4-0.6,6.1-0.8c4-0.5,8.1-1.3,12.1-2
				c8-1.6,16-3.3,23.8-5.5c3.9-1,7.8-2.3,11.7-3.5c2-0.6,3.9-1.3,5.8-2c1.9-0.7,3.9-1.3,5.8-2.1c15.3-5.8,30.1-12.7,44.2-20.9
				l5.3-3.1l5.2-3.2l2.6-1.6l2.6-1.7l5.1-3.4c1.7-1.1,3.3-2.3,5-3.5c1.7-1.2,3.4-2.3,5-3.6c3.3-2.4,6.6-4.8,9.8-7.4
				c12.9-10,25.1-20.8,36.9-32.2c-11.7,11.4-24,22.2-36.8,32.3c-3.2,2.6-6.5,5-9.7,7.4c-1.6,1.2-3.3,2.4-5,3.6
				c-1.7,1.2-3.3,2.4-5,3.5l-5.1,3.4l-2.5,1.7l-2.6,1.6l-5.2,3.2l-5.3,3.1c-14.1,8.3-28.9,15.3-44.2,21.1c-1.9,0.8-3.8,1.4-5.8,2.1
				c-1.9,0.7-3.8,1.4-5.8,2c-3.9,1.2-7.8,2.5-11.7,3.5c-7.9,2.3-15.8,4-23.9,5.6c-4,0.7-8,1.5-12.1,2c-2,0.3-4,0.6-6.1,0.8l-6.1,0.7
				c-2,0.3-4.1,0.4-6.1,0.6l-6.1,0.5l-6.1,0.3c-2,0.1-4.1,0.2-6.1,0.2c-16.3,0.5-32.7-0.1-49-1.7c-32.5-3.1-64.7-9.7-96.2-18
				c-31.6-8.4-62.7-18.5-93.4-29.6c-15.3-5.6-30.6-11.4-45.8-17.4c-15.2-6-30.3-12.2-45.4-18.5c-30.1-12.7-60-25.8-89.7-39.4
				c-29.7-13.5-59.3-27.3-88.8-41.3c-14.8-7-29.4-14.2-44.3-21l-11.1-5.2c-3.7-1.7-7.4-3.5-11.2-5l-22.5-9.6
				c-1.9-0.8-3.7-1.6-5.6-2.4l-5.7-2.2l-11.4-4.4l-11.4-4.4c-1.9-0.8-3.8-1.4-5.8-2.1l-5.8-2l-11.5-4.1l-5.8-2l-2.9-1
				c-1-0.3-1.9-0.6-2.9-0.9l-23.4-7.3c-31.3-9.2-63.1-16.9-95.2-22.4c-32.2-5.5-64.7-8.9-97.3-9.6l-24.5-0.1L308,79.7
				c-8.1,0.7-16.3,1.2-24.4,2l-12.1,1.5l-6.1,0.7l-3,0.4l-3,0.5c-32.3,4.8-64.1,12.6-94.9,23.5c-3.9,1.2-7.7,2.8-11.5,4.3
				c-3.8,1.5-7.6,2.9-11.4,4.5l-11.2,4.9c-1.9,0.8-3.7,1.6-5.6,2.5l-5.5,2.7l-11,5.4l-10.8,5.8l-5.4,2.9l-5.3,3.1
				c-3.5,2.1-7,4.1-10.5,6.3c-6.8,4.5-13.8,8.8-20.3,13.6l-5,3.6l-2.5,1.8l-2.4,1.9l-9.7,7.5C23.8,189.2,11.7,200.2,0.4,212z"/>
		</g>
		<g>
			<path fill="#0C56AB" d="M0.5,239.9c11-12.2,22.7-23.6,34.9-34.5c6.3-5.2,12.4-10.6,19-15.5l4.9-3.8l2.4-1.9l2.5-1.8l10-7.1
				c13.6-9.1,27.4-17.9,41.9-25.5c7.1-4,14.6-7.5,21.9-11.1l2.8-1.3l2.8-1.2l5.6-2.4l5.6-2.4c1.9-0.8,3.7-1.7,5.7-2.4
				c30.4-12.2,62-21.3,94.2-27.4c32.2-6,64.9-9,97.7-9.1c32.7-0.1,65.5,2.6,97.8,7.6c32.4,5,64.3,12.3,95.8,21.4l23.5,7.2
				c2,0.6,3.9,1.3,5.8,1.9l5.8,2l11.6,4l5.8,2l2.9,1l2.9,1.1l11.5,4.4l11.5,4.4c1.9,0.7,3.8,1.4,5.7,2.2l5.6,2.4l22.6,9.6
				c1.9,0.8,3.7,1.6,5.6,2.5l5.6,2.6l11.1,5.2l11.1,5.2l11.1,5.3l22.1,10.6c59,28.3,118.2,56.3,178.1,82.5c15,6.6,30,13,45.2,19.2
				c15.1,6.3,30.3,12.4,45.6,18.2c30.5,11.7,61.4,22.6,92.9,31.7c31.4,9.1,63.4,16.5,95.8,20.5c16.2,2,32.6,3.2,48.9,3.2
				c4.1,0,8.2,0,12.3-0.2l6.1-0.2l6.1-0.4l3.1-0.2l3.1-0.3l6.1-0.6c2-0.2,4.1-0.5,6.1-0.8c2-0.3,4.1-0.5,6.1-0.8
				c16.2-2.5,32.1-6.2,47.7-11.3c7.8-2.5,15.4-5.5,23-8.6l5.6-2.5l2.8-1.2l2.8-1.3l5.5-2.7l5.4-2.8c14.5-7.5,28.4-16.2,41.7-25.7
				c13.3-9.5,26.1-19.7,38.4-30.6c-12.2,10.9-25,21.2-38.3,30.7c-13.3,9.5-27.2,18.3-41.7,25.8l-5.4,2.8l-5.5,2.7l-2.8,1.3l-2.8,1.3
				l-5.6,2.5c-7.6,3.1-15.2,6.2-23,8.7c-15.5,5.2-31.5,9-47.7,11.5c-2,0.4-4,0.6-6.1,0.9c-2,0.3-4.1,0.5-6.1,0.8l-6.1,0.6l-3.1,0.3
				l-3.1,0.2l-6.1,0.4l-6.1,0.2c-4.1,0.2-8.2,0.2-12.3,0.2c-16.4,0-32.7-1.2-49-3.2c-32.5-4-64.5-11.4-96-20.4
				c-31.5-9.1-62.4-19.9-92.9-31.6c-15.3-5.8-30.5-11.9-45.6-18.2c-15.1-6.3-30.2-12.6-45.2-19.2c-60-26.2-119.2-54.1-178.2-82.4
				l-22.1-10.6l-11.1-5.3l-11.1-5.2l-11.1-5.2l-5.6-2.6c-1.8-0.9-3.7-1.7-5.6-2.5l-22.6-9.6l-5.6-2.4c-1.9-0.8-3.8-1.5-5.7-2.2
				l-11.4-4.4l-11.4-4.4l-2.9-1.1l-2.9-1l-5.8-2l-11.6-4l-5.8-2c-1.9-0.7-3.8-1.4-5.8-1.9l-23.5-7.2c-31.4-9.1-63.4-16.4-95.7-21.4
				c-32.3-5-65-7.7-97.7-7.6c-32.7,0.1-65.4,3-97.6,9c-32.1,6-63.7,15.1-94.1,27.2c-1.9,0.7-3.8,1.6-5.7,2.4l-5.6,2.4l-5.6,2.4
				l-2.8,1.2l-2.8,1.3c-7.4,3.6-14.8,7-21.9,11c-14.5,7.5-28.4,16.3-42,25.4l-10,7.1l-2.5,1.8l-2.4,1.9l-4.9,3.7
				c-6.6,4.9-12.7,10.3-19,15.5C23.2,216.4,11.4,227.8,0.5,239.9z"/>
		</g>
		<g>
			<path fill="#0C56AB" d="M0.6,267.9c10.6-12.5,22-24.4,33.9-35.7l9.1-8.3c1.5-1.4,3-2.8,4.6-4.1l4.7-3.9l4.7-3.9
				c1.6-1.3,3.1-2.7,4.8-3.9l9.8-7.5c3.2-2.6,6.6-4.8,10-7.2l5-3.5c1.7-1.2,3.3-2.4,5.1-3.5c6.9-4.4,13.7-9,20.9-13.1l5.3-3.1
				c1.8-1,3.5-2.1,5.3-3.1l10.9-5.8c1.8-1,3.6-2,5.4-2.9l5.5-2.7l11.1-5.3c29.9-13.6,61.2-23.9,93.3-31.2
				c32-7.2,64.8-11.3,97.6-12.3c32.8-1,65.7,1,98.3,5.5c32.5,4.5,64.7,11.5,96.3,20.4l23.6,7c7.8,2.6,15.5,5.3,23.3,7.9
				c7.8,2.5,15.4,5.6,23.1,8.5c7.7,3,15.4,5.8,22.9,9.1l22.7,9.6c7.5,3.4,14.9,6.9,22.3,10.4l11.1,5.2l11.1,5.4l22.2,10.7
				c59.1,28.6,118.2,57.2,177.9,84.3c29.9,13.5,60,26.7,90.4,39c30.4,12.3,61.2,23.8,92.5,33.7c31.3,9.8,63.2,18,95.6,23
				c16.2,2.5,32.6,4,49,4.6c4.1,0.2,8.2,0.1,12.3,0.2c2.1,0,4.1-0.1,6.1-0.1c2-0.1,4.1-0.1,6.1-0.2l6.1-0.3l3.1-0.2l3.1-0.3l6.1-0.5
				l6.1-0.7c16.3-1.8,32.4-5.2,48.2-9.7c2-0.5,3.9-1.2,5.9-1.8c2-0.6,3.9-1.2,5.9-1.9l5.8-2l2.9-1l2.9-1.1l5.7-2.2
				c1.9-0.8,3.8-1.6,5.7-2.4c3.8-1.5,7.5-3.3,11.2-5c29.7-14,57.2-32.4,82.6-53.1c-25.4,20.7-52.9,39.2-82.5,53.3
				c-3.7,1.7-7.4,3.5-11.2,5.1c-1.9,0.8-3.8,1.6-5.7,2.4l-5.7,2.2l-2.9,1.1l-2.9,1l-5.8,2.1c-1.9,0.7-3.9,1.3-5.9,1.9
				c-2,0.6-3.9,1.3-5.9,1.8c-15.8,4.6-31.9,7.9-48.2,9.8l-6.1,0.7l-6.1,0.5l-3.1,0.3l-3.1,0.2l-6.2,0.3c-2.1,0.1-4.1,0.1-6.2,0.2
				c-2.1,0-4.1,0.1-6.2,0.1c-4.1,0-8.2,0-12.3-0.2c-16.4-0.5-32.8-2.1-49-4.6c-32.5-4.9-64.4-13.1-95.7-22.9
				c-31.3-9.8-62.1-21.3-92.6-33.6c-30.4-12.3-60.5-25.4-90.4-39c-59.8-27.1-118.9-55.6-178-84.2l-22.1-10.8l-11.1-5.4l-11.1-5.2
				c-7.4-3.5-14.8-7-22.3-10.4l-22.6-9.7c-7.5-3.3-15.2-6.2-22.9-9.1c-7.7-2.9-15.3-6-23.1-8.5c-7.8-2.6-15.5-5.3-23.3-7.9
				l-23.6-7.1c-31.6-8.9-63.7-15.9-96.2-20.4c-32.5-4.5-65.3-6.5-98.1-5.5c-32.8,1-65.5,5-97.5,12.2c-32,7.2-63.3,17.6-93.2,31.1
				l-11.1,5.3l-5.6,2.7c-1.8,0.9-3.6,1.9-5.4,2.9l-10.9,5.8c-1.8,0.9-3.6,2-5.3,3l-5.3,3.1c-7.2,4-14,8.6-20.9,13
				c-1.7,1.1-3.4,2.3-5.1,3.4l-5,3.5c-3.3,2.4-6.8,4.6-10,7.2l-9.8,7.5c-1.7,1.2-3.2,2.6-4.8,3.9L53,216l-4.7,3.9
				c-1.6,1.3-3.1,2.7-4.6,4.1l-9.2,8.2C22.6,243.6,11.2,255.4,0.6,267.9z"/>
		</g>
		<g>
			<path fill="#0C56AB" d="M0.6,295.8C11,283,21.9,270.7,33.5,259c2.9-2.9,5.9-5.7,8.9-8.6l4.4-4.3l4.6-4.1c3.1-2.7,6.1-5.5,9.2-8.2
				l9.5-7.9c1.6-1.3,3.2-2.6,4.8-3.9l4.9-3.7c3.3-2.5,6.5-5,9.9-7.5l10.1-7.1l5.1-3.5l5.2-3.3l10.4-6.7c3.5-2.1,7.1-4.2,10.7-6.2
				c7-4.3,14.4-7.9,21.7-11.8c58.8-29.9,124-46.8,189.8-50.6c32.9-1.9,66-0.7,98.7,3.3c32.7,4,65.1,10.7,96.9,19.4l23.7,6.9
				l23.4,7.9l5.9,2c1.9,0.7,3.9,1.5,5.8,2.2l11.6,4.4l11.6,4.4c1.9,0.7,3.8,1.5,5.7,2.3l5.7,2.4c7.6,3.2,15.2,6.4,22.7,9.7
				l22.4,10.5c7.5,3.5,14.9,7.1,22.3,10.7l22.2,10.9c59.2,29,118.2,58.3,177.8,86.3c29.8,14,59.8,27.7,90.1,40.7
				c30.3,12.9,60.9,25.1,92.1,35.7c31.2,10.6,62.9,19.6,95.4,25.4c16.2,2.9,32.6,5,49,6c16.4,1,32.9,0.8,49.3-0.5
				c16.4-1.5,32.7-4.1,48.7-8.1c16-4.1,31.6-9.4,46.8-15.8c30.3-13,58.6-30.3,85-50c-26.3,19.8-54.6,37.1-84.9,50.2
				c-15.2,6.5-30.8,11.8-46.8,15.9c-16,4.1-32.3,6.8-48.7,8.2c-16.4,1.4-33,1.5-49.4,0.6c-16.5-1-32.8-3.1-49.1-6
				c-32.5-5.8-64.3-14.8-95.5-25.4c-31.2-10.6-61.9-22.8-92.2-35.7c-30.3-12.9-60.3-26.6-90.1-40.6c-59.6-28-118.7-57.2-177.9-86.2
				l-22.2-10.9c-7.4-3.6-14.8-7.3-22.2-10.7L654,187.3c-7.5-3.3-15.1-6.5-22.7-9.7l-5.7-2.4c-1.9-0.8-3.8-1.6-5.7-2.3l-11.5-4.4
				l-11.5-4.4c-1.9-0.7-3.8-1.5-5.8-2.2l-5.9-2l-23.4-7.9l-23.7-6.9c-31.7-8.7-64.1-15.4-96.7-19.4c-32.7-4-65.7-5.3-98.6-3.4
				c-65.7,3.8-130.8,20.6-189.6,50.4c-7.3,3.9-14.7,7.5-21.7,11.8c-3.6,2.1-7.1,4.1-10.7,6.2l-10.4,6.6l-5.2,3.3l-5.1,3.5L89.9,211
				c-3.3,2.4-6.6,5-9.9,7.4l-4.9,3.7c-1.6,1.3-3.2,2.6-4.8,3.9l-9.5,7.8c-3.1,2.7-6.2,5.5-9.2,8.2l-4.6,4.1l-4.5,4.3
				c-3,2.9-6,5.7-8.9,8.6C22,270.7,11,283,0.6,295.8z"/>
		</g>
		<g>
			<path fill="#0C56AB" d="M0.7,323.8c39.9-52.8,90.7-97.4,148.5-129.9c28.9-16.3,59.5-29.3,91.2-39c31.7-9.7,64.4-15.9,97.4-18.8
				c33-2.9,66.3-2.4,99.2,1c16.5,1.7,32.9,4.1,49.1,7.2c16.3,3.1,32.4,6.9,48.4,11.2c16,4.3,31.8,9.2,47.5,14.7
				c15.6,5.5,31.1,11.3,46.4,17.8c30.6,12.7,60.1,27.8,89.8,42.4c59.3,29.4,118.3,59.4,177.8,88.5c29.7,14.5,59.6,28.8,89.8,42.4
				c30.2,13.6,60.7,26.5,91.8,37.8c31.1,11.3,62.8,21.2,95.2,27.9c16.2,3.4,32.6,5.8,49.1,7.3c8.2,0.8,16.5,1.1,24.8,1.4
				c2.1,0,4.1,0,6.2,0c2.1,0,4.1,0,6.2,0c4.1-0.1,8.3-0.2,12.4-0.5l6.2-0.4l6.2-0.5l3.1-0.3l3.1-0.4l6.2-0.7
				c2.1-0.3,4.1-0.6,6.1-0.9c2-0.3,4.1-0.6,6.1-1c4.1-0.8,8.1-1.5,12.2-2.4c16.2-3.5,32.1-8.2,47.5-14.2
				c30.9-11.9,60-28.2,87.2-46.9c-27.2,18.9-56.2,35.2-87.1,47.2c-15.4,6-31.3,10.8-47.5,14.4c-4,1-8.1,1.6-12.2,2.4
				c-2,0.4-4.1,0.7-6.1,1c-2,0.3-4.1,0.7-6.1,0.9l-6.2,0.8l-3.1,0.4l-3.1,0.3l-6.2,0.6l-6.2,0.4c-4.1,0.3-8.3,0.4-12.4,0.5
				c-2.1,0.1-4.1,0-6.2,0c-2.1,0-4.1,0-6.2,0c-8.3-0.2-16.6-0.6-24.8-1.3c-16.5-1.4-32.9-3.9-49.1-7.2
				c-32.5-6.7-64.2-16.5-95.3-27.8c-31.1-11.4-61.6-24.2-91.8-37.8c-30.2-13.6-60.1-27.8-89.8-42.3c-59.5-29.1-118.5-59-177.9-88.4
				c-29.7-14.6-59.1-29.8-89.7-42.5c-15.2-6.5-30.7-12.3-46.3-17.8c-15.6-5.5-31.4-10.4-47.4-14.7c-16-4.3-32.1-8.1-48.3-11.2
				c-16.3-3.1-32.6-5.5-49.1-7.2c-32.9-3.4-66.1-3.9-99.1-1.1c-32.9,2.9-65.6,9-97.3,18.7c-31.6,9.7-62.2,22.7-91.1,38.9
				C91.7,226.6,40.8,271.1,0.7,323.8z"/>
		</g>
		<g>
			<path fill="#0C56AB" d="M0.8,351.7c38.8-54.1,88-100.8,144.7-135.8c56.6-35.1,121-57.6,187.2-65.2c33.1-3.9,66.5-4.2,99.7-1.3
				c16.6,1.4,33.1,3.6,49.5,6.5c16.4,2.9,32.6,6.6,48.7,10.8c32.2,8.5,63.7,19.5,94.4,32.4l2.9,1.2l2.9,1.3l5.7,2.5
				c3.8,1.7,7.6,3.3,11.4,5.1l11.3,5.2l11.2,5.5c14.9,7.3,29.8,14.8,44.7,22.2c59.5,29.9,118.5,60.7,177.8,90.9
				c29.7,15.1,59.4,30,89.5,44.2c30.1,14.3,60.4,27.9,91.4,40c31,12.1,62.6,22.8,95,30.2c16.2,3.7,32.6,6.7,49.1,8.6
				c16.5,1.9,33.2,2.6,49.8,2.2c33.2-0.9,66.3-6.9,97.7-17.9c31.5-10.9,61.3-26.2,89.3-44.1c-28,18-57.8,33.3-89.2,44.3
				c-31.4,11.1-64.5,17.2-97.8,18.2c-16.6,0.4-33.3-0.3-49.9-2.2c-16.5-1.9-33-4.8-49.2-8.6c-32.5-7.5-64.1-18.1-95.1-30.2
				c-31-12.1-61.4-25.7-91.5-39.9c-30.1-14.2-59.9-29.1-89.5-44.2c-59.3-30.1-118.4-60.9-177.9-90.8c-29.8-14.9-59.3-30.2-90-43
				c-30.7-12.9-62.1-24-94.3-32.5c-16.1-4.3-32.3-7.9-48.7-10.9c-16.4-2.9-32.9-5.1-49.4-6.5c-33.1-2.9-66.5-2.6-99.6,1.2
				c-66.1,7.5-130.4,30-187,64.9C89,251.2,39.7,297.7,0.8,351.7z"/>
		</g>
		<g>
			<path fill="#0C56AB" d="M0.9,379.7c37.7-55.3,85.3-104,141-141.5c27.8-18.6,57.6-34.5,88.8-46.6c31.2-12.2,63.8-20.9,96.9-25.8
				c33.1-4.9,66.8-6,100.2-3.7c16.7,1.1,33.4,3.1,49.9,5.8c16.5,2.7,32.9,6.3,49.1,10.4l6.1,1.6c2,0.5,4,1.1,6.1,1.7l6,1.7l3,0.9
				l3,0.9l12,3.7l11.9,4c15.8,5.5,31.5,11.4,46.9,17.9c15.4,6.6,30.7,13.5,45.6,21c15,7.5,29.9,15,44.8,22.7
				c59.6,30.5,118.5,62.3,177.7,93.7c29.6,15.7,59.2,31.2,89.2,46.2c30,14.9,60.2,29.3,91.1,42.2c30.9,12.8,62.5,24.2,94.9,32.5
				c16.2,4.2,32.6,7.4,49.2,9.7c16.6,2.3,33.3,3.6,50,3.5c16.7,0,33.5-1.3,50-3.8c16.5-2.6,32.9-6.4,48.8-11.4c16-5,31.6-11,46.8-18
				c15.2-7,30-14.8,44.4-23.3c-14.4,8.5-29.2,16.4-44.4,23.5c-15.2,7-30.8,13.1-46.8,18.1c-16,5-32.3,8.9-48.8,11.5
				c-16.6,2.6-33.3,3.9-50,4c-16.8,0.1-33.5-1.2-50.1-3.4c-16.6-2.3-33.1-5.5-49.3-9.7c-32.5-8.3-64.1-19.6-95-32.5
				c-30.9-12.9-61.2-27.2-91.2-42.1c-30-14.9-59.6-30.5-89.2-46.1c-59.2-31.3-118.1-63.1-177.7-93.5c-14.9-7.6-29.8-15.2-44.8-22.7
				c-15-7.5-30.2-14.4-45.6-21c-15.4-6.5-31.1-12.5-46.9-17.9l-11.9-4l-12-3.7l-3-0.9l-3-0.9l-6-1.7c-2-0.6-4-1.2-6-1.7l-6.1-1.6
				c-16.2-4.2-32.6-7.7-49.1-10.5c-16.5-2.7-33.1-4.7-49.8-5.8c-33.4-2.3-67-1.2-100.1,3.6c-33.1,4.8-65.6,13.5-96.8,25.6
				c-31.2,12.1-60.9,27.9-88.7,46.5C86.5,275.9,38.7,324.5,0.9,379.7z"/>
		</g>
		<g>
			<path fill="#0C56AB" d="M1,407.6c18.3-28.3,39-55,61.9-79.8c22.9-24.7,48.1-47.4,75.3-67.2c13.6-10,27.8-19.2,42.3-27.6
				c14.6-8.4,29.6-16.1,45.1-22.9c30.9-13.5,63.4-23.5,96.6-29.4c33.2-5.9,67.1-7.9,100.8-6.3c16.8,0.8,33.6,2.6,50.3,5.1
				c16.7,2.6,33.2,6,49.6,10c16.4,4.1,32.5,8.8,48.5,14.3c16,5.5,31.7,11.5,47.2,18.1c15.5,6.6,30.8,13.8,45.9,21.3
				c15,7.6,30.1,15.3,45,23.1c59.8,31.1,118.7,63.9,177.7,96.5c29.5,16.3,59.1,32.5,88.9,48.2c29.8,15.6,60,30.8,90.8,44.4
				c30.8,13.6,62.3,25.8,94.8,34.8c16.2,4.5,32.7,8.2,49.3,10.9c16.6,2.7,33.4,4.3,50.3,4.7c33.7,0.9,67.4-3.6,99.9-12.6
				c32.5-9,63.6-22.6,93.1-38.7c-29.5,16.2-60.6,29.9-93.1,39c-32.5,9.1-66.2,13.7-100,12.8c-16.9-0.4-33.7-2-50.3-4.6
				c-16.6-2.7-33.1-6.4-49.4-10.9c-32.5-9-64.1-21.2-94.9-34.8c-30.8-13.6-61-28.7-90.9-44.3c-29.9-15.6-59.4-31.8-88.9-48.1
				c-59-32.6-118-65.2-177.8-96.3c-14.9-7.8-29.9-15.5-45-23.1c-15.1-7.5-30.3-14.7-45.8-21.3c-15.5-6.5-31.2-12.6-47.2-18.1
				c-15.9-5.4-32.1-10.2-48.4-14.3c-16.3-4.1-32.8-7.5-49.5-10.1c-16.6-2.5-33.4-4.3-50.2-5.1c-33.6-1.7-67.5,0.3-100.6,6.2
				c-33.2,5.9-65.6,15.8-96.5,29.3c-15.5,6.7-30.5,14.4-45.1,22.8c-14.6,8.4-28.7,17.6-42.3,27.5c-27.3,19.8-52.5,42.4-75.4,67
				C40.1,352.7,19.4,379.4,1,407.6z"/>
		</g>
		<g>
			<path fill="#0C56AB" d="M1.1,435.6c8.9-14.4,18.3-28.6,28.4-42.2c10-13.7,20.6-27,31.8-39.8c11.1-12.8,22.9-25.1,35.1-36.9
				c12.2-11.8,25-23,38.4-33.5c26.6-21.1,55.5-39.4,86-54.2c30.6-14.8,62.9-26,96.1-33.1c33.2-7.1,67.3-10,101.3-9
				c17,0.5,33.9,2,50.8,4.3c16.8,2.4,33.5,5.6,50,9.6c16.5,4,32.8,8.8,48.9,14.2c16.1,5.5,31.9,11.6,47.6,18.3
				c31.3,13.3,61.3,29.3,91.3,45.1c60,31.8,118.9,65.6,177.7,99.5c29.4,16.9,58.9,33.8,88.6,50.2c29.7,16.4,59.8,32.2,90.5,46.6
				c30.7,14.4,62.2,27.3,94.7,37.1c32.5,9.8,66,16.3,99.9,18c33.9,1.6,68-1.9,100.9-10.1c33-8.2,64.7-20.9,94.9-36.3
				c-30.2,15.5-61.9,28.2-94.9,36.5c-32.9,8.3-67.1,11.8-101,10.3c-34-1.6-67.6-8.1-100.1-17.9c-32.5-9.8-64-22.7-94.8-37.1
				c-30.8-14.4-60.8-30.2-90.6-46.6c-29.8-16.4-59.2-33.3-88.6-50.2c-58.9-33.8-117.8-67.6-177.8-99.3c-30-15.8-60-31.8-91.2-45.1
				c-15.6-6.6-31.4-12.8-47.5-18.3c-16.1-5.4-32.4-10.2-48.8-14.2c-16.5-4-33.1-7.3-49.9-9.7c-16.8-2.4-33.7-3.8-50.7-4.4
				c-33.9-1-67.9,1.8-101.1,8.9c-33.2,7.1-65.5,18.2-96,33c-30.5,14.8-59.3,33.1-86,54.1c-13.3,10.5-26.2,21.6-38.4,33.4
				c-12.3,11.7-24,24-35.2,36.8c-11.2,12.8-21.8,26-31.9,39.7C19.5,407,10.1,421.2,1.1,435.6z"/>
		</g>
		<g>
			<path fill="#0C56AB" d="M1.2,463.5c8.7-14.7,17.8-29.2,27.6-43.2c4.8-7,9.9-13.9,15-20.8c5.2-6.8,10.4-13.6,15.9-20.2
				c5.4-6.6,11-13.1,16.7-19.5c5.7-6.4,11.5-12.7,17.5-18.8c11.9-12.3,24.4-24,37.4-35.1c13-11.1,26.6-21.5,40.7-31.3
				c14.1-9.7,28.7-18.6,43.8-26.7c30.2-16.2,62.3-28.6,95.6-36.9c33.2-8.3,67.5-12.2,101.8-11.8c17.1,0.2,34.2,1.4,51.2,3.5
				c17,2.2,33.8,5.3,50.5,9.2c16.7,3.9,33.1,8.7,49.4,14.1c16.2,5.5,32.2,11.7,47.9,18.4c15.8,6.7,31.1,14.2,46.4,22
				c15.2,7.8,30.3,15.8,45.4,23.9c15.1,8.1,30,16.4,44.9,24.8c14.9,8.4,29.7,16.9,44.5,25.5c29.6,17.2,58.9,34.8,88.3,52.4
				c29.3,17.6,58.7,35.2,88.3,52.4c29.6,17.1,59.5,33.8,90.2,48.9c30.7,15.1,62.1,28.8,94.7,39.3c32.5,10.5,66.2,17.9,100.3,20.2
				c17.1,1.2,34.2,1.2,51.2-0.1c17.1-1.3,34-3.8,50.7-7.5c33.4-7.4,65.7-19.2,96.6-33.8c-30.9,14.7-63.2,26.6-96.6,34.1
				c-16.7,3.7-33.7,6.4-50.7,7.6c-17.1,1.3-34.2,1.4-51.3,0.2c-34.2-2.2-67.9-9.6-100.4-20.1c-32.6-10.5-64.1-24.2-94.8-39.3
				c-30.7-15.1-60.6-31.8-90.3-48.8c-29.6-17.1-59-34.7-88.3-52.3c-29.3-17.6-58.7-35.1-88.3-52.3c-14.8-8.6-29.6-17.1-44.5-25.5
				c-14.9-8.4-29.9-16.6-44.9-24.8c-15.1-8.1-30.2-16.1-45.4-23.9c-15.2-7.8-30.6-15.3-46.3-22c-15.7-6.7-31.6-13-47.8-18.5
				c-16.2-5.4-32.6-10.2-49.3-14.1c-16.6-3.9-33.5-7.1-50.4-9.3c-17-2.2-34-3.4-51.1-3.6c-34.2-0.4-68.4,3.5-101.6,11.7
				c-33.2,8.2-65.3,20.6-95.5,36.7c-15.1,8-29.7,16.9-43.8,26.6c-14.1,9.7-27.6,20.1-40.7,31.2c-13.1,11-25.5,22.8-37.5,35
				c-6,6.1-11.8,12.4-17.5,18.7c-5.7,6.4-11.3,12.8-16.7,19.5c-5.5,6.6-10.7,13.3-15.9,20.1c-5.1,6.8-10.2,13.7-15.1,20.8
				C19.1,434.4,9.9,448.8,1.2,463.5z"/>
		</g>
		<g>
			<path fill="#0C56AB" d="M1.3,491.5c16.8-30.1,35.8-59.1,56.9-86.4c21.1-27.3,44.3-53,69.8-76.3c12.7-11.6,26-22.7,39.9-33
				c13.8-10.3,28.2-19.9,43.1-28.6c14.9-8.7,30.3-16.6,46.2-23.4c15.8-6.9,32.2-12.6,48.8-17.4c33.2-9.4,67.7-14.4,102.2-14.8
				c34.5-0.4,69.1,3.7,102.7,11.5c16.8,3.9,33.4,8.6,49.8,14.1c16.4,5.5,32.4,11.8,48.3,18.7l5.9,2.6c2,0.9,4,1.7,5.9,2.7l11.7,5.5
				c3.9,1.9,7.7,3.9,11.6,5.8l5.8,2.9l5.7,3c15.3,7.9,30.6,16,45.7,24.3c60.5,33.2,119.4,69.3,177.9,105.9
				c29.3,18.3,58.5,36.7,87.9,54.6c29.5,17.9,59.3,35.3,89.9,51.2c30.6,15.9,62,30.3,94.6,41.7c32.5,11.4,66.4,19.3,100.7,22.4
				c34.3,3.3,69.1,1.3,103-5.3c33.9-6.5,66.8-17.6,98.3-31.5c-31.5,14-64.4,25.2-98.3,31.8c-33.9,6.7-68.7,8.7-103.1,5.5
				c-34.4-3.1-68.3-11-100.9-22.4c-32.6-11.3-64.1-25.7-94.7-41.6c-30.6-15.9-60.5-33.3-90-51.2c-29.5-17.9-58.7-36.2-88-54.5
				c-29.3-18.3-58.6-36.5-88.2-54.2c-29.6-17.7-59.5-35-89.7-51.6c-15.1-8.3-30.3-16.4-45.7-24.3l-5.7-3l-5.8-2.9
				c-3.9-1.9-7.7-3.9-11.6-5.8l-11.7-5.5c-1.9-0.9-3.9-1.8-5.9-2.7l-5.9-2.6c-15.8-6.9-31.8-13.3-48.2-18.7
				c-16.3-5.5-32.9-10.2-49.7-14.1c-33.6-7.8-68-11.9-102.5-11.6c-34.5,0.3-68.9,5.3-102.1,14.7c-16.6,4.7-32.9,10.5-48.7,17.3
				c-15.8,6.8-31.2,14.7-46.1,23.4c-29.8,17.3-57.4,38.3-82.9,61.5c-25.4,23.3-48.8,48.9-69.9,76.1C37.2,432.5,18.2,461.4,1.3,491.5
				z"/>
		</g>
		<g>
			<path fill="#0C56AB" d="M1.4,519.4c16.4-30.7,34.8-60.3,55.3-88.5c10.3-14.1,21-27.7,32.4-41c11.3-13.2,23.2-26,35.6-38.2
				c12.4-12.2,25.4-23.8,39-34.7c13.6-10.9,27.7-21.2,42.4-30.5c29.4-18.7,61-34,94.2-44.6c33.2-10.7,67.8-16.7,102.6-17.8
				c34.8-1.2,69.8,2.5,103.7,10.1c34,7.6,67.1,18.9,99,33c8,3.4,15.8,7.3,23.7,11c7.8,3.9,15.6,7.8,23.3,11.9
				c7.7,4,15.4,8.2,23.1,12.3c7.6,4.2,15.3,8.3,22.9,12.6c60.8,34,119.5,71.5,177.8,109.6c29.2,19,58.2,38.2,87.6,56.8
				c29.4,18.6,59.1,36.8,89.6,53.5c30.5,16.7,62,31.8,94.6,43.8c32.6,12,66.6,20.7,101.2,24.5c34.6,3.8,69.7,2.7,104-3.2
				c34.3-5.8,67.8-16.1,100-29.4c-32.1,13.3-65.6,23.7-99.9,29.6c-34.3,5.9-69.4,7.2-104.1,3.4c-34.6-3.8-68.6-12.5-101.3-24.5
				c-32.7-12-64.2-27.1-94.8-43.7c-30.6-16.7-60.3-34.8-89.7-53.4c-29.4-18.6-58.5-37.8-87.7-56.8c-58.3-38-117.1-75.4-177.8-109.4
				c-7.6-4.3-15.2-8.4-22.8-12.6c-7.7-4.1-15.3-8.3-23-12.3c-7.7-4.1-15.5-8-23.2-11.9c-7.9-3.7-15.7-7.6-23.7-11
				c-31.8-14.1-64.9-25.4-98.8-33c-33.9-7.6-68.8-11.3-103.5-10.2c-34.8,1.1-69.3,7.1-102.5,17.7c-33.2,10.6-64.7,25.9-94.1,44.5
				c-14.7,9.3-28.8,19.6-42.3,30.4c-13.6,10.9-26.6,22.5-39,34.6c-12.4,12.2-24.3,24.9-35.7,38.1c-11.3,13.2-22.1,26.9-32.4,40.9
				C36.3,459.2,17.8,488.8,1.4,519.4z"/>
		</g>
		<g>
			<path fill="#0C56AB" d="M1.5,547.4c16-31.3,33.9-61.6,53.8-90.5c20-28.9,42-56.5,66.2-81.9c24.2-25.4,50.9-48.7,79.8-68.7
				c28.9-20,60.2-36.6,93.3-48.5c33.1-11.9,67.9-19,103-20.9c35.1-2,70.5,1.3,104.8,8.7c17.2,3.7,34.1,8.4,50.8,14
				c4.1,1.4,8.3,2.8,12.5,4.3l12.3,4.6l12.2,5l3.1,1.2l3,1.3l6,2.7l6,2.7l6,2.8l6,2.8c2,0.9,4,1.9,5.9,2.9l11.8,6l11.7,6.1
				c15.5,8.3,30.9,16.7,46.1,25.5c30.5,17.5,60.4,35.9,89.9,55c29.5,19,58.7,38.7,87.7,58.5c29,19.8,58,39.7,87.2,59.1
				c29.3,19.4,58.9,38.3,89.4,55.7c30.5,17.4,62,33.2,94.7,45.9c16.4,6.3,33.1,11.9,50,16.3c17,4.5,34.2,7.9,51.6,10.1
				c34.8,4.5,70.3,4.1,105-1c34.8-5.1,68.8-14.8,101.5-27.3c-32.8,12.6-66.7,22.4-101.5,27.6c-34.7,5.2-70.2,5.8-105.1,1.3
				c-34.9-4.4-69.1-13.7-101.8-26.4c-32.8-12.7-64.3-28.5-94.8-45.9c-30.5-17.4-60.2-36.3-89.5-55.7C931,481.2,902,461.3,873,441.5
				c-29-19.8-58.2-39.4-87.7-58.4c-29.5-19-59.5-37.4-89.9-54.9c-15.2-8.8-30.6-17.2-46.1-25.5l-11.7-6.1l-11.7-6
				c-1.9-1-3.9-2-5.9-2.9L614,285l-5.9-2.8l-6-2.7l-6-2.7l-3-1.3l-3-1.2l-12.2-5l-12.3-4.6c-4.1-1.5-8.3-2.9-12.4-4.3
				c-16.6-5.6-33.6-10.3-50.7-14c-34.3-7.4-69.6-10.7-104.6-8.7c-35,1.9-69.8,9-102.8,20.8c-33,11.9-64.3,28.4-93.2,48.4
				c-28.9,20-55.5,43.2-79.7,68.5c-24.3,25.3-46.4,52.8-66.4,81.7C35.5,485.9,17.5,516.1,1.5,547.4z"/>
		</g>
		<g>
			<path fill="#0C56AB" d="M1.6,575.3c7.8-15.9,16-31.7,24.7-47.1c8.7-15.4,18-30.6,27.6-45.5c19.5-29.6,40.8-58.1,64.5-84.5
				c11.8-13.2,24.3-25.9,37.3-38c13-12.1,26.6-23.5,40.9-34.1c14.2-10.6,29-20.5,44.5-29.2c15.4-8.8,31.4-16.6,47.9-23.2
				c32.9-13.3,67.9-21.5,103.3-24.3c35.4-2.8,71.2-0.1,105.9,7.1c17.4,3.6,34.5,8.3,51.4,13.9c16.8,5.6,33.4,12.1,49.6,19.4
				c16.2,7.3,32,15.3,47.6,23.8c15.6,8.4,31.1,17.1,46.4,26.1c61.2,36,119.7,76.3,177.4,117.5c28.9,20.6,57.7,41.3,86.8,61.5
				c29.2,20.2,58.7,39.9,89.2,58c30.5,18.1,62,34.6,94.8,47.9c32.8,13.3,67.1,23.3,102.2,28.4c35.1,5.2,70.9,5.4,106,0.9
				c35.2-4.4,69.7-13.4,103.1-25.4c-33.4,12-67.9,21.1-103.1,25.6c-35.2,4.6-71,4.4-106.1-0.7c-35.1-5.1-69.5-15-102.4-28.3
				c-32.9-13.3-64.5-29.8-95-47.9c-30.5-18.1-60.1-37.8-89.2-58c-29.2-20.2-58-40.9-86.9-61.4c-57.8-41.1-116.3-81.4-177.5-117.3
				c-15.3-9-30.7-17.7-46.3-26.1c-15.6-8.5-31.4-16.5-47.5-23.8c-16.1-7.3-32.6-13.8-49.5-19.4c-16.8-5.6-33.9-10.3-51.3-13.9
				c-34.7-7.2-70.4-10-105.7-7.2c-35.3,2.8-70.2,10.9-103.1,24.1c-16.5,6.6-32.4,14.3-47.8,23.1c-15.4,8.7-30.2,18.6-44.4,29.2
				c-14.2,10.6-27.8,22-40.8,34c-13,12.1-25.4,24.7-37.3,37.9c-23.8,26.3-45.2,54.7-64.7,84.3c-9.7,14.8-19,30-27.7,45.4
				C17.6,543.7,9.4,559.4,1.6,575.3z"/>
		</g>
		<g>
			<path fill="#0C56AB" d="M1.7,603.3c7.6-16.2,15.6-32.3,24.1-48c8.5-15.8,17.5-31.3,26.9-46.5c18.9-30.4,39.8-59.7,62.9-87.1
				c11.6-13.7,23.7-26.9,36.4-39.5l2.4-2.4l2.4-2.3l4.9-4.6c3.3-3.1,6.6-6.1,9.9-9.1c3.4-2.9,6.7-5.9,10.1-8.8l5.2-4.3l2.6-2.2
				l2.6-2.1c14-11.2,28.6-21.7,43.8-31.1c15.2-9.5,31.1-17.9,47.5-25.1c16.4-7.2,33.3-13.3,50.6-18c17.3-4.6,35-7.9,52.9-9.7
				c35.7-3.7,71.9-1.5,107.1,5.5c17.6,3.5,34.9,8.2,51.9,13.9c4.2,1.4,8.5,2.8,12.7,4.4l6.3,2.3c2.1,0.8,4.2,1.5,6.3,2.4l12.5,5.1
				l12.3,5.4c16.3,7.4,32.2,15.7,48,24.3c15.7,8.6,31.2,17.6,46.6,26.8c30.7,18.5,60.6,38.3,90,58.7c29.4,20.5,58.3,41.6,87.1,63
				c28.8,21.3,57.4,42.9,86.5,63.9c29,21,58.5,41.4,89,60.2c30.5,18.8,62,36,95,49.9c33,13.9,67.4,24.5,102.8,30.3
				c35.3,5.8,71.5,6.6,107.1,2.8c35.6-3.8,70.7-12.2,104.7-23.5c-33.9,11.4-69,19.9-104.6,23.8c-35.6,3.9-71.8,3.1-107.2-2.6
				c-35.4-5.7-69.9-16.3-102.9-30.2c-33-13.9-64.6-31.1-95.1-49.9c-30.5-18.8-60-39.2-89.1-60.2c-29.1-21-57.7-42.5-86.5-63.8
				c-28.8-21.3-57.7-42.5-87.1-62.9c-29.4-20.4-59.4-40.1-90-58.6c-15.3-9.2-30.8-18.2-46.5-26.9c-15.7-8.6-31.6-16.9-47.9-24.3
				l-12.3-5.4l-12.4-5.1c-2.1-0.9-4.2-1.6-6.3-2.4l-6.3-2.3c-4.2-1.6-8.4-3-12.7-4.4c-17-5.7-34.3-10.4-51.8-13.9
				c-35.1-7.1-71.2-9.2-106.8-5.6c-17.8,1.8-35.5,5-52.8,9.7c-17.3,4.6-34.2,10.7-50.6,17.9c-16.4,7.2-32.2,15.6-47.4,25.1
				c-15.2,9.4-29.8,19.9-43.8,31.1l-2.6,2.1l-2.6,2.1l-5.2,4.3c-3.4,2.9-6.8,5.9-10.1,8.8c-3.3,3-6.6,6-9.9,9.1l-4.9,4.6l-2.4,2.3
				l-2.4,2.4c-12.7,12.6-24.9,25.8-36.4,39.5c-23.1,27.3-44,56.6-63,86.9c-9.5,15.2-18.5,30.7-27,46.4C17.3,571,9.3,587.1,1.7,603.3
				z"/>
		</g>
		<g>
			<path fill="#0C56AB" d="M1.7,631.2c7.4-16.5,15.2-32.9,23.5-49c8.3-16.1,17-32,26.2-47.6c18.4-31.2,38.7-61.2,61.2-89.6
				c22.6-28.3,47.4-54.9,74.8-78.6c13.7-11.8,28.1-22.9,43.2-33c15-10.1,30.7-19.3,47-27.1c16.3-7.9,33.2-14.6,50.5-19.9
				c17.3-5.3,35.1-9.1,53.1-11.4c36-4.6,72.6-3,108.2,3.8c35.6,6.8,70.1,18.7,103.1,33.7c16.4,7.6,32.5,16.1,48.3,24.9
				c15.8,8.8,31.4,18.1,46.8,27.6c30.8,19.1,60.7,39.6,90,60.8c29.3,21.2,58.1,43.2,86.7,65.4c28.6,22.2,57.1,44.5,86.1,66.2
				c28.9,21.7,58.3,42.9,88.8,62.4c30.5,19.5,62.1,37.3,95.2,51.9c33.1,14.5,67.8,25.7,103.4,32c35.6,6.4,72.1,7.8,108.1,4.7
				c36.1-3.1,71.6-11,106.2-21.7c-34.5,10.8-70.1,18.7-106.2,21.9c-36.1,3.2-72.6,1.9-108.2-4.5c-35.7-6.3-70.4-17.4-103.6-31.9
				c-33.2-14.5-64.9-32.4-95.4-51.8c-30.5-19.5-59.9-40.7-88.9-62.4c-29-21.7-57.5-44.1-86.1-66.2c-28.6-22.1-57.4-44.1-86.8-65.3
				c-29.4-21.2-59.2-41.6-90-60.7c-15.4-9.5-30.9-18.8-46.7-27.6c-15.8-8.8-31.8-17.3-48.2-24.9c-32.9-15.1-67.3-26.9-102.8-33.8
				c-35.5-6.9-72.1-8.5-107.9-3.9c-17.9,2.3-35.7,6-53,11.3c-17.3,5.3-34.2,11.9-50.5,19.8c-16.3,7.8-32,17-47,27.1
				c-15,10.1-29.4,21.1-43.1,32.9c-27.4,23.6-52.2,50.2-74.8,78.5c-22.5,28.3-42.9,58.3-61.4,89.5c-9.2,15.6-18,31.4-26.3,47.5
				C17,598.4,9.2,614.7,1.7,631.2z"/>
		</g>
		<g>
			<path fill="#0C56AB" d="M1.8,659.2c7.2-16.8,14.8-33.5,22.9-49.9c8.1-16.4,16.6-32.6,25.5-48.6c17.9-31.9,37.7-62.8,59.7-92.1
				c22-29.3,46.3-56.8,73.1-81.7c13.4-12.4,27.6-24.1,42.4-34.8c14.8-10.7,30.3-20.5,46.5-29.1c16.2-8.6,33-15.9,50.4-21.8
				c17.3-5.9,35.2-10.4,53.3-13.1c18.1-2.8,36.5-4,54.8-3.6c18.3,0.4,36.6,2.3,54.6,5.6c36.1,6.6,71,18.6,104.2,34l12.4,6
				c4.1,2,8.1,4.2,12.2,6.3c4.1,2.1,8.1,4.3,12.1,6.5c4,2.2,8,4.4,12,6.7c15.9,9,31.6,18.5,47,28.4
				c61.7,39.5,119.4,84.8,176.3,130.8c28.5,23,56.8,46.1,85.6,68.7c28.8,22.5,58.2,44.4,88.7,64.6c30.5,20.2,62.2,38.6,95.5,53.8
				c33.3,15.1,68.2,26.9,104.1,33.7c35.9,7,72.7,9,109.2,6.4l6.8-0.5c2.3-0.2,4.6-0.3,6.8-0.6l13.6-1.6l13.6-2
				c4.5-0.7,9-1.6,13.5-2.4c18-3.4,35.8-7.8,53.3-12.9c-17.6,5.1-35.3,9.5-53.3,13c-4.5,0.8-9,1.7-13.5,2.4l-13.6,2l-13.6,1.6
				c-2.3,0.3-4.6,0.4-6.8,0.6l-6.8,0.6c-36.5,2.7-73.4,0.7-109.3-6.2c-36-6.9-70.9-18.6-104.3-33.7c-33.4-15.1-65.1-33.6-95.6-53.7
				c-30.5-20.2-59.9-42.1-88.8-64.6c-28.9-22.5-57.2-45.6-85.7-68.6c-56.9-45.9-114.6-91.2-176.3-130.6c-15.4-9.9-31-19.4-46.9-28.4
				c-4-2.3-8-4.5-12-6.7c-4-2.2-8-4.4-12.1-6.5c-4.1-2.1-8.1-4.3-12.2-6.3l-12.3-6c-33.2-15.4-68-27.4-103.9-34
				c-35.9-6.6-73-7.6-109.1-2.1c-18.1,2.7-35.9,7.2-53.2,13c-17.3,5.9-34.1,13.2-50.3,21.7c-16.1,8.6-31.6,18.4-46.5,29.1
				c-14.8,10.7-29,22.3-42.4,34.8c-26.9,24.8-51.2,52.3-73.2,81.6c-22,29.2-41.9,60-59.8,91.9c-9,15.9-17.5,32.1-25.6,48.5
				C16.7,625.7,9.1,642.4,1.8,659.2z"/>
		</g>
		<g>
			<path fill="#0C56AB" d="M1.9,687.1c14-34.2,29.7-67.8,47.1-100.4c17.4-32.6,36.7-64.3,58.1-94.5c10.7-15.1,22-29.8,33.9-44
				c11.9-14.2,24.4-27.8,37.6-40.8c13.2-13,27-25.3,41.7-36.7c14.6-11.4,30-21.8,46-31.1l3-1.8l3.1-1.7l6.1-3.3
				c2-1.1,4.1-2.1,6.2-3.1c2.1-1,4.1-2.1,6.2-3.1c8.4-3.9,16.9-7.6,25.6-10.8c17.3-6.5,35.2-11.6,53.4-14.9
				c18.2-3.3,36.8-4.9,55.3-4.8c18.5,0,37,1.8,55.3,4.9c36.5,6.3,71.8,18.5,105.3,34.2l12.5,6.1l12.3,6.4c2.1,1.1,4.1,2.2,6.1,3.3
				l6.1,3.4c4.1,2.2,8.1,4.6,12.1,6.9c16,9.3,31.7,19.1,47.2,29.2c30.9,20.4,60.7,42.4,89.8,65.2c29.1,22.9,57.5,46.5,85.9,70.3
				c28.3,23.8,56.5,47.8,85.3,71c28.7,23.3,58,45.9,88.6,66.8c30.5,20.8,62.4,39.9,95.8,55.6c33.5,15.7,68.6,28,104.8,35.4
				c36.2,7.5,73.4,10.1,110.3,8.1c37-1.9,73.5-8.6,109.2-18.3c-35.7,9.7-72.2,16.6-109.2,18.5c-36.9,2.1-74.2-0.4-110.4-7.9
				c-36.3-7.4-71.5-19.7-105-35.4c-33.5-15.7-65.4-34.8-96-55.6c-30.6-20.9-59.9-43.5-88.7-66.7c-28.8-23.3-57-47.2-85.3-71
				c-28.3-23.8-56.8-47.4-85.9-70.3c-29.1-22.8-58.9-44.7-89.8-65.1c-15.4-10.2-31.1-20-47.1-29.3c-4-2.3-8-4.7-12-6.9l-6.1-3.4
				c-2-1.1-4-2.3-6.1-3.3l-12.3-6.4l-12.5-6.1c-33.4-15.7-68.7-27.9-105.1-34.3c-18.2-3.2-36.7-4.9-55.1-5
				c-18.5-0.1-36.9,1.5-55.1,4.8c-18.2,3.3-36,8.3-53.3,14.8c-8.7,3.2-17.1,6.9-25.5,10.8c-2.1,1-4.1,2.1-6.2,3.1
				c-2.1,1-4.2,2-6.2,3.1l-6.1,3.3l-3,1.7l-3,1.7c-16,9.2-31.3,19.6-45.9,31c-14.6,11.3-28.4,23.6-41.6,36.6
				c-13.2,13-25.7,26.6-37.6,40.7c-11.9,14.2-23.2,28.8-33.9,43.9c-21.5,30.1-40.8,61.7-58.3,94.3C31.8,619.4,16.1,652.9,1.9,687.1z
				"/>
		</g>
	</g>
	<g>
		<g>
			<polygon fill="#E6E7E8" points="823.4,75.3 819.5,65.7 823.5,58.3 831.2,69 			"/>
			<path fill="#E6E7E8" d="M822.5,73c0-0.2-5.6-4.2-5.6-4.2l0.8-2.1l3.1,0.8L822.5,73z"/>
			<polygon fill="#E6E7E8" points="817.7,66.8 814.4,65.7 814.1,67.4 816.9,68.9 818,68.3 			"/>
			<path fill="#E6E7E8" d="M819.5,65.7l-3-4.2c0,0,0.4-2.1,0.7-1.9s4.1,4.6,4.1,4.6L819.5,65.7z"/>
			<polygon fill="#E6E7E8" points="817.2,59.6 812.9,58 812.6,60.3 816.5,61.5 818,62 			"/>
			<path fill="#E6E7E8" d="M819.5,62.4c-0.3-0.5-1.8-4.1-1.8-4.1l-4.8-3L814,54l5.1,3l3,6l-0.2,1.5L819.5,62.4z"/>
			<polygon fill="#E6E7E8" points="815.9,55.1 817.2,54 820.9,56.3 823.4,60.8 822.1,63 818.6,57.8 			"/>
			<path fill="#E6E7E8" d="M818.7,55.3l1-0.8c0,0,3,1.3,3,1.6c0.1,0.3,0.8,2.2,0.8,2.2l-0.2,4l-2.2-4.4L818.7,55.3z"/>
		</g>
		<path fill="#032360" d="M910.6,124.7c0,0-56-22.2-79.6-55.4l-9.1,3.1c0,0,16.3,38.3,48.4,58c32.1,19.7,40.4,20,40.4,20
			L910.6,124.7z"/>
		<g>
			<polygon fill="#E6E7E8" points="908.2,67.8 901.9,75.7 892.7,111.5 904.8,109.5 906.6,119.9 941.1,119.9 932.1,80.2 			"/>
			<path fill="#032360" d="M936,94.9c2.4-4.5,4.3-15.9-6.3-22.5S908.3,67,905,63.1c0,0,0.8,7.1,10.4,11.3
				c9.6,4.3,14.3,16.3,13.3,17.1L936,94.9z"/>
			<polygon fill="#E6E7E8" points="900,84.3 893.6,93.5 898.8,95.4 			"/>
			<path fill="#E6E7E8" d="M928.1,91.8c1.7-1.7,4.6-0.9,5,1.3c0.4,2.2-1.3,6.3-3,5.6c-1.7-0.6-2.2-1.9-2.2-1.9"/>
		</g>
		<path fill="#032360" d="M939.9,109.5c27.4,23.1,52.8,111.1-31.5,139.5L829.2,208c39.9-2.2,73.8-43.9,67.4-87.2L939.9,109.5z"/>
		<path fill="#231F20" d="M781.7,288l0.1,6.6l-24.3,5.1c0,0,3-7.9,7.9-9.1c4.9-1.2,4.9-1.2,4.9-1.2l0,0l0.8,2.6l7.1-3.7L781.7,288z"
			/>
		<path fill="#032360" d="M912.8,118.6c-37.6,12.9-90.9,3.6-115.3-34.7l-12.7,6.2c0,0,28.2,39.8,49.8,51.8
			c23,12.8,68.6,32.2,88.4,16.7L912.8,118.6z"/>
		<path fill="#032360" d="M913.3,240.3c-20.5,13-45.7,18.1-73.3,15.5c-27.6-2.7-54.2,54.1-54.2,54.1l-9.1-4.7
			c0,0,13.4-38.8,33.8-62.7s69.5-35.9,69.5-35.9L913.3,240.3z"/>
		<path fill="#032360" d="M849,210c-17.7,1-70.5,8.1-75,38.3c-4.5,30.2-3.2,39.6-3.2,39.6l10.5-2.9c0,0,0.6-33.6,12.4-37.2
			s102.2-12.4,102.2-12.4L849,210z"/>
		<g>
			<path fill="#0C56AB" d="M922.9,158.6c-3.5,2.1-7.3,3.9-11.4,4.9c-4,1.1-8.2,1.4-12.4,1.3c-4.2-0.2-8.3-0.9-12.3-1.9
				c-4-1-7.9-2.5-11.7-4c2,0.6,3.9,1.3,5.9,1.8c1,0.3,2,0.6,3,0.8l3,0.7c4,0.9,8,1.5,12.1,1.6c4.1,0.2,8.2-0.2,12.1-1.1
				c1-0.2,2-0.5,3-0.8c1-0.3,2-0.6,2.9-1C919.2,160.4,921.1,159.5,922.9,158.6z"/>
		</g>
		<g>
			<path fill="#0C56AB" d="M835.5,223.4l-4.2,2.8c-1.4,0.9-2.8,1.8-4.2,2.8c-2.8,1.9-5.5,3.8-8.1,5.9c-2.6,2.1-5,4.4-7.3,6.8
				l-1.7,1.9l-1.6,1.9l-1.6,1.9c-0.5,0.7-1.1,1.3-1.6,1.9c1.8-2.8,3.8-5.6,6-8.1c2.2-2.6,4.6-4.9,7.3-7.1c2.6-2.1,5.4-4,8.3-5.7
				C829.5,226.5,832.5,224.9,835.5,223.4z"/>
		</g>
		<path fill="#231F20" d="M785,311.4l-3.7,6l-25.1-9.4c0,0,7.3-5.4,12.4-3.8s5.2,1.7,5.2,1.7l0,0l-0.8,2.8l8.6,0.7L785,311.4z"/>
		<g>
			
				<rect x="736.3" y="15.4" transform="matrix(0.992 0.1262 -0.1262 0.992 12.3622 -99.0031)" fill="#FFFFFF" width="102.5" height="65.3"/>
			<g>
				<path fill="#0C56AB" d="M743.2,12.3l96.2,12.2l-7.5,59.2l-96.2-12.2L743.2,12.3 M740.8,9.2L732.6,74l101.7,12.9l8.2-64.8
					L740.8,9.2L740.8,9.2z"/>
			</g>
			<g>
				<g>
					<circle fill="#0C56AB" cx="787.4" cy="49.3" r="24.6"/>
					<circle fill="none" stroke="#FFFFFF" stroke-width="1.284" stroke-miterlimit="10" cx="787.4" cy="49.3" r="21.2"/>
					<g>
						<path fill="#FFFFFF" d="M774.6,45.7c0-0.4,0.4-0.6,0.8-0.6l2.2,0.3c0.7,0.1,1.2,0.4,1.5,0.8c0.2,0.3,0.3,0.7,0.3,1.1l0,0
							c-0.1,0.7-0.5,1-1,1.2c0.7,0.4,1.1,0.8,1,1.7l0,0c-0.1,1.1-1.1,1.6-2.5,1.4l-2.3-0.3c-0.4,0-0.6-0.4-0.6-0.8L774.6,45.7z
							 M777,50.4c0.6,0.1,1-0.1,1-0.5l0,0c0.1-0.4-0.2-0.7-0.9-0.8l-1.6-0.2l-0.2,1.4L777,50.4z M776.9,47.9c0.6,0.1,1-0.1,1.1-0.5
							l0,0c0.1-0.4-0.2-0.7-0.8-0.7l-1.3-0.2l-0.2,1.3L776.9,47.9z"/>
						<path fill="#FFFFFF" d="M780.4,48.9L780.4,48.9c0.2-1.8,1.8-3,3.7-2.8c1.9,0.2,3.1,1.8,2.9,3.6l0,0c-0.2,1.8-1.8,3-3.7,2.8
							C781.3,52.3,780.1,50.7,780.4,48.9z M785.5,49.6L785.5,49.6c0.1-1.1-0.5-2.1-1.6-2.2s-2,0.6-2.1,1.7l0,0
							c-0.1,1.1,0.5,2,1.6,2.2C784.5,51.4,785.4,50.6,785.5,49.6z"/>
						<path fill="#FFFFFF" d="M788.4,47.4c0-0.4,0.4-0.6,0.8-0.6l0.1,0c0.3,0,0.5,0.2,0.7,0.5l2.2,3.8l0.4-3.2
							c0-0.4,0.4-0.6,0.8-0.6c0.4,0,0.6,0.4,0.6,0.8l-0.6,4.9c0,0.4-0.4,0.6-0.8,0.6l0,0c-0.3,0-0.5-0.2-0.7-0.5l-2.3-3.9l-0.4,3.3
							c0,0.4-0.4,0.6-0.8,0.6c-0.4,0-0.6-0.4-0.6-0.8L788.4,47.4z"/>
						<path fill="#FFFFFF" d="M795.4,48.4c0-0.4,0.4-0.6,0.8-0.6l1.7,0.2c1.9,0.2,3.1,1.8,2.9,3.5l0,0c-0.2,1.7-1.7,2.9-3.7,2.7
							l-1.7-0.2c-0.4,0-0.6-0.4-0.6-0.8L795.4,48.4z M797.3,52.9c1.1,0.1,2-0.5,2.1-1.6l0,0c0.1-1.1-0.5-2-1.6-2.1l-1.1-0.1
							l-0.5,3.7L797.3,52.9z"/>
					</g>
				</g>
				<circle fill="#0C56AB" cx="751" cy="43.6" r="2.8"/>
				<circle fill="#0C56AB" cx="824.1" cy="52.9" r="2.8"/>
			</g>
		</g>
		<g>
			<polygon fill="#E6E7E8" points="797.5,83.9 787.7,73.1 775.7,73.8 784.8,90.1 			"/>
			<path fill="#E6E7E8" d="M795.2,81.3c-0.3-0.2-2-9.7-2-9.7l-3.1-0.3l-0.9,4.4L795.2,81.3z"/>
			<polygon fill="#E6E7E8" points="790.1,71.3 790.8,66.5 793.1,67.2 793.3,71.6 791.9,72.7 			"/>
			<path fill="#E6E7E8" d="M787.7,73.1l-3.6-6.5c0,0-2.9-0.7-2.9-0.2c0.1,0.5,3.5,8.1,3.5,8.1L787.7,73.1z"/>
			<polygon fill="#E6E7E8" points="781.2,66.4 781.8,59.9 784.9,61 784.1,66.6 783.8,68.9 			"/>
			<path fill="#E6E7E8" d="M783.4,71.1c-0.5-0.7-4.1-4.9-4.1-4.9l-1-8l-2.4,0.6l0.7,8.4l5.9,7.5l2.1,0.7L783.4,71.1z"/>
			<polygon fill="#E6E7E8" points="776.2,61.9 774,63 774.7,69.1 779,75 782.5,74.7 778,67 			"/>
			<path fill="#E6E7E8" d="M774.8,65.7l-1.7,0.8c0,0-0.2,4.6,0.2,4.9c0.4,0.3,2.4,2.4,2.4,2.4l5.3,2.2l-4.3-5.5L774.8,65.7z"/>
		</g>
	</g>
	<polyline fill="none" stroke="#0C56AB" stroke-width="6" stroke-miterlimit="10" points="83.9,287 258.3,116.5 460.5,328.6 
		601.2,207.7 823.2,376.2 1094.8,55.1 1338.6,320.7 	"/>
	<g>
		
			<rect x="182.2" y="50.3" transform="matrix(0.9814 -0.192 0.192 0.9814 -10.0754 43.4213)" fill="#FFFFFF" width="73.6" height="46.9"/>
		<g>
			<path fill="#0C56AB" d="M249.1,46l8.2,42.1L189,101.4l-8.2-42.1L249.1,46 M250.7,43.6l-72.3,14.1l9,46l72.3-14.1L250.7,43.6
				L250.7,43.6z"/>
		</g>
		<g>
			<g>
				<circle fill="#0C56AB" cx="219.2" cy="74.6" r="17.7"/>
				<circle fill="none" stroke="#FFFFFF" stroke-width="0.9219" stroke-miterlimit="10" cx="219.2" cy="74.6" r="15.3"/>
				<g>
					<path fill="#FFFFFF" d="M209.6,75c-0.1-0.3,0.1-0.5,0.4-0.6l1.6-0.3c0.5-0.1,0.9,0,1.2,0.2c0.2,0.2,0.4,0.4,0.4,0.7l0,0
						c0.1,0.5-0.1,0.8-0.4,1.1c0.5,0.1,0.9,0.3,1,0.9l0,0c0.2,0.8-0.4,1.3-1.4,1.5l-1.6,0.3c-0.3,0.1-0.5-0.1-0.6-0.4L209.6,75z
						 M211.7,75.9c0.4-0.1,0.7-0.3,0.6-0.6l0,0c-0.1-0.3-0.3-0.4-0.7-0.3l-1,0.2l0.2,0.9L211.7,75.9z M212.3,77.6
						c0.4-0.1,0.7-0.3,0.6-0.6l0,0c-0.1-0.3-0.3-0.4-0.8-0.3l-1.1,0.2l0.2,1L212.3,77.6z"/>
					<path fill="#FFFFFF" d="M214.3,75.8L214.3,75.8c-0.2-1.3,0.5-2.5,1.9-2.7c1.4-0.3,2.5,0.6,2.8,1.8l0,0c0.2,1.2-0.5,2.5-1.9,2.7
						C215.7,77.9,214.6,77.1,214.3,75.8z M218,75.1L218,75.1c-0.2-0.8-0.8-1.3-1.6-1.1s-1.2,0.9-1,1.6l0,0c0.1,0.8,0.8,1.3,1.6,1.1
						S218.1,75.9,218,75.1z"/>
					<path fill="#FFFFFF" d="M219.5,73c-0.1-0.3,0.1-0.5,0.4-0.6l0.1,0c0.2,0,0.4,0,0.6,0.2l2.3,2.1l-0.4-2.3
						c-0.1-0.3,0.1-0.5,0.4-0.6c0.3-0.1,0.5,0.1,0.6,0.4l0.7,3.5c0.1,0.3-0.1,0.5-0.4,0.6l0,0c-0.2,0-0.4,0-0.6-0.2l-2.4-2.2
						l0.5,2.4c0.1,0.3-0.1,0.5-0.4,0.6c-0.3,0.1-0.5-0.1-0.6-0.4L219.5,73z"/>
					<path fill="#FFFFFF" d="M224.5,72.1c-0.1-0.3,0.1-0.5,0.4-0.6l1.2-0.2c1.4-0.3,2.5,0.5,2.8,1.7l0,0c0.2,1.2-0.5,2.4-1.9,2.7
						l-1.2,0.2c-0.3,0.1-0.5-0.1-0.6-0.4L224.5,72.1z M226.8,74.8c0.8-0.2,1.2-0.8,1.1-1.6l0,0c-0.2-0.8-0.8-1.2-1.6-1.1l-0.7,0.1
						l0.5,2.6L226.8,74.8z"/>
				</g>
			</g>
			<circle fill="#0C56AB" cx="193.1" cy="78.9" r="2"/>
			<circle fill="#0C56AB" cx="245.1" cy="68.7" r="2"/>
		</g>
	</g>
	<g>
		
			<rect x="364.7" y="29.9" transform="matrix(0.9193 0.3935 -0.3935 0.9193 56.3407 -156.773)" fill="#FFFFFF" width="91.5" height="58.2"/>
		<g>
			<path fill="#0C56AB" d="M381.2,17.5l79.5,34l-21,49l-79.5-34L381.2,17.5 M379.9,14.2L357,67.8l84.1,36L464,50.2L379.9,14.2
				L379.9,14.2z"/>
		</g>
		<g>
			<g>
				<circle fill="#0C56AB" cx="410" cy="60" r="22"/>
				<circle fill="none" stroke="#FFFFFF" stroke-width="1.1452" stroke-miterlimit="10" cx="410" cy="60" r="19"/>
				<g>
					<path fill="#FFFFFF" d="M399.8,53.7c0.1-0.3,0.5-0.5,0.8-0.3l1.8,0.8c0.6,0.2,1,0.6,1.1,1c0.1,0.3,0.1,0.7,0,1l0,0
						c-0.2,0.6-0.7,0.8-1.1,0.8c0.5,0.5,0.7,1,0.4,1.7l0,0c-0.4,0.9-1.4,1.1-2.5,0.6l-1.9-0.8c-0.3-0.1-0.5-0.5-0.3-0.8L399.8,53.7z
						 M400.7,58.3c0.5,0.2,0.9,0.2,1-0.2l0,0c0.1-0.3,0-0.7-0.6-0.9l-1.3-0.6l-0.5,1.1L400.7,58.3z M401.3,56.2
						c0.5,0.2,0.9,0.2,1-0.2l0,0c0.1-0.3,0-0.6-0.5-0.8l-1.1-0.5l-0.5,1.1L401.3,56.2z"/>
					<path fill="#FFFFFF" d="M404,57.9L404,57.9c0.6-1.5,2.3-2.2,3.9-1.5c1.6,0.7,2.2,2.3,1.6,3.8l0,0c-0.6,1.5-2.3,2.2-3.9,1.5
						C404,61,403.4,59.4,404,57.9z M408.3,59.7L408.3,59.7c0.4-0.9,0.1-1.9-0.9-2.3s-1.8,0.1-2.2,0.9l0,0c-0.4,0.9,0,1.9,0.9,2.3
						S407.9,60.6,408.3,59.7z"/>
					<path fill="#FFFFFF" d="M411.3,58.6c0.1-0.3,0.5-0.5,0.8-0.3l0.1,0.1c0.3,0.1,0.4,0.3,0.4,0.6l0.9,3.8l1.1-2.6
						c0.1-0.3,0.5-0.4,0.8-0.3c0.3,0.1,0.4,0.5,0.3,0.8l-1.7,4.1c-0.1,0.3-0.5,0.5-0.8,0.3l0,0c-0.3-0.1-0.4-0.3-0.4-0.6l-1-3.9
						l-1.2,2.7c-0.1,0.3-0.5,0.4-0.8,0.3c-0.3-0.1-0.4-0.5-0.3-0.8L411.3,58.6z"/>
					<path fill="#FFFFFF" d="M417.1,61.1c0.1-0.3,0.5-0.5,0.8-0.3l1.4,0.6c1.6,0.7,2.2,2.3,1.6,3.7l0,0c-0.6,1.4-2.2,2.1-3.8,1.4
						l-1.4-0.6c-0.3-0.1-0.5-0.5-0.3-0.8L417.1,61.1z M417.6,65.5c0.9,0.4,1.8,0,2.2-0.9l0,0c0.4-0.9,0-1.8-0.9-2.2l-0.9-0.4
						l-1.3,3.1L417.6,65.5z"/>
				</g>
			</g>
			<circle fill="#0C56AB" cx="380.2" cy="46.2" r="2.5"/>
			<circle fill="#0C56AB" cx="440.6" cy="72.1" r="2.5"/>
		</g>
	</g>
	<g>
		
			<rect x="1187.8" y="19.6" transform="matrix(0.8519 -0.5237 0.5237 0.8519 157.1359 653.1918)" fill="#F1F2F2" width="91.5" height="58.2"/>
		<g>
			<path fill="#0C56AB" d="M1256.4,3.4l27.9,45.4l-73.7,45.3l-27.9-45.4L1256.4,3.4 M1257.2,0l-77.9,47.9l30.5,49.6l77.9-47.9
				L1257.2,0L1257.2,0z"/>
		</g>
		<g>
			<g>
				<circle fill="#0C56AB" cx="1234.1" cy="49.7" r="22"/>
				<circle fill="none" stroke="#FFFFFF" stroke-width="1.1452" stroke-miterlimit="10" cx="1234.1" cy="49.7" r="19"/>
				<g>
					<path fill="#FFFFFF" d="M1223.1,54.4c-0.2-0.3-0.1-0.7,0.2-0.8l1.7-1c0.5-0.3,1.1-0.4,1.5-0.3c0.3,0.1,0.6,0.3,0.8,0.6l0,0
						c0.3,0.5,0.2,1,0,1.4c0.7-0.1,1.2,0,1.6,0.6l0,0c0.5,0.9,0.1,1.7-1,2.4l-1.7,1.1c-0.3,0.2-0.7,0.1-0.8-0.2L1223.1,54.4z
						 M1226,54.6c0.5-0.3,0.7-0.6,0.4-1l0,0c-0.2-0.3-0.5-0.3-1-0.1l-1,0.6l0.6,1L1226,54.6z M1227.4,56.3c0.5-0.3,0.6-0.6,0.4-1
						l0,0c-0.2-0.3-0.6-0.4-1.1,0l-1.2,0.7l0.6,1L1227.4,56.3z"/>
					<path fill="#FFFFFF" d="M1229,53.4L1229,53.4c-0.8-1.4-0.5-3.1,1-4s3.2-0.5,4,0.9l0,0c0.8,1.3,0.4,3.1-1,4
						C1231.5,55.2,1229.8,54.7,1229,53.4z M1232.9,50.9L1232.9,50.9c-0.5-0.8-1.5-1.1-2.4-0.6c-0.8,0.5-1,1.5-0.5,2.3l0,0
						c0.5,0.8,1.5,1.1,2.3,0.6C1233.2,52.8,1233.4,51.8,1232.9,50.9z"/>
					<path fill="#FFFFFF" d="M1233.8,47.8c-0.2-0.3-0.1-0.7,0.2-0.8l0.1-0.1c0.3-0.2,0.5-0.1,0.7,0l3.6,1.4l-1.5-2.4
						c-0.2-0.3-0.1-0.7,0.2-0.8c0.3-0.2,0.7-0.1,0.8,0.2l2.3,3.8c0.2,0.3,0.1,0.7-0.2,0.8l0,0c-0.3,0.2-0.5,0.1-0.7,0l-3.8-1.5
						l1.6,2.5c0.2,0.3,0.1,0.7-0.2,0.8c-0.3,0.2-0.7,0.1-0.8-0.2L1233.8,47.8z"/>
					<path fill="#FFFFFF" d="M1239.1,44.6c-0.2-0.3-0.1-0.7,0.2-0.8l1.3-0.8c1.5-0.9,3.1-0.5,4,0.8l0,0c0.8,1.3,0.4,3-1.1,3.9
						l-1.3,0.8c-0.3,0.2-0.7,0.1-0.8-0.2L1239.1,44.6z M1243,46.7c0.9-0.5,1.1-1.5,0.6-2.3l0,0c-0.5-0.8-1.5-1.1-2.3-0.5l-0.8,0.5
						l1.8,2.9L1243,46.7z"/>
				</g>
			</g>
			<circle fill="#0C56AB" cx="1205.6" cy="66.1" r="2.5"/>
			<circle fill="#0C56AB" cx="1261.6" cy="31.6" r="2.5"/>
		</g>
	</g>
	<g>
		
			<rect x="435.4" y="169" transform="matrix(0.9744 -0.2247 0.2247 0.9744 -31.5263 111.738)" fill="#F1F2F2" width="79.7" height="50.7"/>
		<g>
			<path fill="#0C56AB" d="M506.7,163.3l10.4,45.2l-73.4,16.9l-10.4-45.2L506.7,163.3 M508.3,160.7l-77.7,17.9l11.4,49.5l77.7-17.9
				L508.3,160.7L508.3,160.7z"/>
		</g>
		<g>
			<g>
				<circle fill="#0C56AB" cx="475.4" cy="195.3" r="19.1"/>
				<circle fill="none" stroke="#FFFFFF" stroke-width="0.9981" stroke-miterlimit="10" cx="475.4" cy="195.3" r="16.5"/>
				<g>
					<path fill="#FFFFFF" d="M465,196.1c-0.1-0.3,0.1-0.6,0.4-0.6l1.7-0.4c0.5-0.1,1-0.1,1.3,0.1c0.3,0.2,0.4,0.4,0.5,0.7l0,0
						c0.1,0.5-0.1,0.9-0.4,1.2c0.6,0.1,1,0.3,1.2,1l0,0c0.2,0.9-0.4,1.5-1.5,1.7l-1.7,0.4c-0.3,0.1-0.6-0.1-0.6-0.4L465,196.1z
						 M467.3,197c0.5-0.1,0.7-0.3,0.6-0.7l0,0c-0.1-0.3-0.4-0.4-0.8-0.3l-1,0.2l0.2,1L467.3,197z M468,198.9
						c0.5-0.1,0.7-0.3,0.6-0.7l0,0c-0.1-0.3-0.4-0.5-0.9-0.3l-1.2,0.3l0.2,1L468,198.9z"/>
					<path fill="#FFFFFF" d="M470.1,196.9L470.1,196.9c-0.3-1.4,0.5-2.7,2-3c1.5-0.3,2.8,0.5,3.1,1.9l0,0c0.3,1.3-0.5,2.7-2,3
						S470.4,198.2,470.1,196.9z M474,196L474,196c-0.2-0.8-0.9-1.4-1.8-1.2c-0.8,0.2-1.3,1-1.1,1.8l0,0c0.2,0.8,0.9,1.3,1.8,1.2
						C473.8,197.6,474.2,196.8,474,196z"/>
					<path fill="#FFFFFF" d="M475.6,193.6c-0.1-0.3,0.1-0.6,0.4-0.6l0.1,0c0.3-0.1,0.4,0,0.6,0.2l2.6,2.2l-0.6-2.4
						c-0.1-0.3,0.1-0.6,0.4-0.6s0.6,0.1,0.6,0.4l0.9,3.8c0.1,0.3-0.1,0.6-0.4,0.6l0,0c-0.3,0.1-0.4,0-0.6-0.2l-2.7-2.2l0.6,2.5
						c0.1,0.3-0.1,0.6-0.4,0.6s-0.6-0.1-0.6-0.4L475.6,193.6z"/>
					<path fill="#FFFFFF" d="M480.9,192.4c-0.1-0.3,0.1-0.6,0.4-0.6l1.3-0.3c1.5-0.3,2.7,0.4,3.1,1.8l0,0c0.3,1.3-0.5,2.6-2,2.9
						l-1.3,0.3c-0.3,0.1-0.6-0.1-0.6-0.4L480.9,192.4z M483.5,195.3c0.9-0.2,1.3-0.9,1.1-1.7l0,0c-0.2-0.8-0.9-1.3-1.8-1.1l-0.8,0.2
						l0.7,2.8L483.5,195.3z"/>
				</g>
			</g>
			<circle fill="#0C56AB" cx="447.3" cy="201" r="2.2"/>
			<circle fill="#0C56AB" cx="503.2" cy="188.1" r="2.2"/>
		</g>
	</g>
</g>
<g>
</g>
<g>
</g>
<g>
</g>
<g>
</g>
<g>
</g>
<g>
</g>
<g>
</g>
<g>
</g>
<g>
</g>
<g>
</g>
<g>
</g>
<g>
</g>
<g>
</g>
<g>
</g>
<g>
</g>
</svg>
