<?xml version="1.0" encoding="utf-8"?>
<!-- Generator: Adobe Illustrator 18.0.0, SVG Export Plug-In . SVG Version: 6.00 Build 0)  -->
<!DOCTYPE svg PUBLIC "-//W3C//DTD SVG 1.1//EN" "http://www.w3.org/Graphics/SVG/1.1/DTD/svg11.dtd">
<svg version="1.1" id="Layer_1" xmlns="http://www.w3.org/2000/svg" xmlns:xlink="http://www.w3.org/1999/xlink" x="0px" y="0px"
	 viewBox="0 0 315.2 464.1" enable-background="new 0 0 315.2 464.1" xml:space="preserve">
<path fill="#939598" d="M201.9,348.3l2.4-72.7c0,0,3.8-1.6,9.2,0.1l-0.1,1.4"/>
<path fill="#A7A9AC" d="M204.3,275.6c2.2,0.8,7.9,1.6,10.2,1.1l-9.5,63.8l-2.8-1.5L204.3,275.6z"/>
<path fill="#939598" d="M192.5,340.7l-21.2-69.6c0,0,3.1-2.8,8.7-2.9l0.4,1.3"/>
<path fill="#D1D3D4" d="M171.3,271.1c2.3,0,8-1.1,10-2.3l11.5,63.4l-3.1-0.5L171.3,271.1z"/>
<path fill="#6D6E71" d="M195.8,346.2l-7.4-47.1c0,0,2.8-1.9,7.4-1.3l0.1,1.1"/>
<path fill="#A7A9AC" d="M188.4,299.1c1.9,0.3,6.6,0.1,8.3-0.7l2,52.8l-2.5-0.8L188.4,299.1z"/>
<path fill="#6D6E71" d="M203.7,347.5l13.7-45.7c0,0-2.5-2.2-7.2-2.3l-0.3,1.1"/>
<path fill="#D1D3D4" d="M217.4,301.8c-1.9,0-6.6-0.8-8.2-1.8l-9.1,52l2.6-0.4L217.4,301.8z"/>
<path fill="#939598" d="M196,354.3l2.4-72.7c0,0,3.8-1.6,9.2,0.1l-0.1,1.4"/>
<path fill="#D1D3D4" d="M198.3,281.6c2.2,0.8,7.9,1.6,10.2,1.1l-9.5,63.8l-2.8-1.5L198.3,281.6z"/>
<path fill="#2368B5" d="M201.3,325c-9.2,0-16.6,0.9-16.6,1.9L190,354c0,1,5.1,1.9,11.4,1.9c6.3,0,11.4-0.9,11.4-1.9l5.3-27.1
	C218,325.8,210.5,325,201.3,325"/>
<path fill="#231F20" d="M225.3,322.5c-7,0-12.6,4.1-12.6,9.1c0,5.1,5.6,9.1,12.6,9.1c7,0,12.6-4.1,12.6-9.1
	C237.9,326.6,232.3,322.5,225.3,322.5 M225.3,339.7c-6.2,0-11.2-3.6-11.2-8.1c0-4.5,5-8.1,11.2-8.1s11.2,3.6,11.2,8.1
	C236.5,336.1,231.5,339.7,225.3,339.7"/>
<path fill="#58595B" d="M225.3,322.9c6.9,0,12.4,4,12.6,8.9c0-0.1,0-0.1,0-0.2c0-5.1-5.6-9.1-12.6-9.1c-7,0-12.6,4.1-12.6,9.1
	c0,0.1,0,0.1,0,0.2C212.9,326.9,218.5,322.9,225.3,322.9"/>
<path fill="#58595B" d="M225.3,340.2c6.2,0,11.2-3.6,11.2-8.1c0-0.1,0-0.1,0-0.2c-0.2,4.4-5.1,7.9-11.1,7.9c-6.1,0-11-3.5-11.1-7.9
	c0,0.1,0,0.1,0,0.2C214.2,336.5,219.2,340.2,225.3,340.2"/>
<polygon fill="#58595B" points="203.1,353.3 205.5,329.6 243.7,329.6 243.7,353.4 "/>
<path fill="#231F20" d="M205.5,329.6c0,2.7,1,12,1,12h25.1c0,0-24.1-0.5-24.2-0.8C207.3,340.5,205.5,329.6,205.5,329.6"/>
<path fill="#58595B" d="M227.1,342.7h-5c-0.7,0-1.3-0.6-1.3-1.3c0-0.7,0.6-1.3,1.3-1.3h5c0.7,0,1.3,0.6,1.3,1.3
	C228.4,342.1,227.8,342.7,227.1,342.7"/>
<path fill="#231F20" d="M227.4,342.5h-5c-0.7,0-1.3-0.6-1.3-1.3c0-0.4,0.2-0.8,0.5-1c-0.4,0.2-0.7,0.7-0.7,1.2
	c0,0.7,0.6,1.3,1.3,1.3h5c0.3,0,0.6-0.1,0.9-0.3C227.8,342.5,227.6,342.5,227.4,342.5"/>
<path fill="#231F20" d="M205.4,338.4l-1.6,15.5c0,0,0.6-0.1,0.7-0.6C204.8,352.7,205.4,338.4,205.4,338.4"/>
<polygon fill="#231F20" points="206.5,341.6 206.8,354.6 208.1,354 206.9,340.8 "/>
<polygon fill="#231F20" points="119.7,238.6 122.8,240.8 122.1,242.2 121.6,242.1 117.6,249.3 118.4,242.8 118,241.9 "/>
<polygon fill="#2368B5" points="102.7,212.8 118.3,241.6 120.5,240.5 109.7,210.8 "/>
<rect x="108" y="237.2" transform="matrix(-0.9798 -0.2 0.2 -0.9798 157.4248 614.8056)" fill="#C49A6C" width="3.6" height="124.5"/>
<g>
	<g>
		<defs>
			<rect id="SVGID_1_" x="97.3" y="238.5" width="26.7" height="122.4"/>
		</defs>
		<clipPath id="SVGID_2_">
			<use xlink:href="#SVGID_1_"  overflow="visible"/>
		</clipPath>
		<polyline clip-path="url(#SVGID_2_)" fill="#808285" points="122.2,238.5 97.3,360.5 99.1,360.9 124,238.8 		"/>
	</g>
</g>
<g opacity="0.7">
	<g>
		<defs>
			<rect id="SVGID_3_" x="119.6" y="238.6" width="17.5" height="124.2"/>
		</defs>
		<clipPath id="SVGID_4_">
			<use xlink:href="#SVGID_3_"  overflow="visible"/>
		</clipPath>
		
			<rect x="126.6" y="238.4" transform="matrix(-0.9938 -0.1114 0.1114 -0.9938 222.4309 613.8113)" clip-path="url(#SVGID_4_)" fill="#C49A6C" width="3.6" height="124.5"/>
		<g clip-path="url(#SVGID_4_)">
			<g>
				<defs>
					<rect id="SVGID_5_" x="121.8" y="238.9" width="15.2" height="124"/>
				</defs>
				<clipPath id="SVGID_6_">
					<use xlink:href="#SVGID_5_"  overflow="visible"/>
				</clipPath>
				<polyline clip-path="url(#SVGID_6_)" fill="#808285" points="135.7,238.9 121.8,362.6 123.2,362.8 137.1,239.1 				"/>
			</g>
		</g>
	</g>
</g>
<g opacity="0.7">
	<g>
		<defs>
			<rect id="SVGID_7_" x="157.5" y="238.9" width="17.5" height="124.2"/>
		</defs>
		<clipPath id="SVGID_8_">
			<use xlink:href="#SVGID_7_"  overflow="visible"/>
		</clipPath>
		
			<rect x="164.4" y="238.7" transform="matrix(0.9938 -0.1111 0.1111 0.9938 -32.3968 20.3229)" clip-path="url(#SVGID_8_)" fill="#C49A6C" width="3.6" height="124.5"/>
		<g clip-path="url(#SVGID_8_)">
			<g>
				<defs>
					<rect id="SVGID_9_" x="157.5" y="239.1" width="15.3" height="124"/>
				</defs>
				<clipPath id="SVGID_10_">
					<use xlink:href="#SVGID_9_"  overflow="visible"/>
				</clipPath>
				<polyline clip-path="url(#SVGID_10_)" fill="#808285" points="158.9,239.1 172.7,362.9 171.3,363.1 157.5,239.3 				"/>
			</g>
		</g>
	</g>
</g>
<rect x="182.5" y="237.2" transform="matrix(0.9798 -0.2 0.2 0.9798 -56.1672 42.9135)" fill="#C49A6C" width="3.6" height="124.5"/>
<g>
	<g>
		<defs>
			<rect id="SVGID_11_" x="170.1" y="238.5" width="26.2" height="122.4"/>
		</defs>
		<clipPath id="SVGID_12_">
			<use xlink:href="#SVGID_11_"  overflow="visible"/>
		</clipPath>
		<polyline clip-path="url(#SVGID_12_)" fill="#808285" points="171.5,238.5 196.4,360.5 195,360.9 170.1,238.9 		"/>
	</g>
</g>
<g>
	<g>
		<defs>
			<rect id="SVGID_13_" x="170.2" y="239.5" width="4.1" height="3.1"/>
		</defs>
		<clipPath id="SVGID_14_">
			<use xlink:href="#SVGID_13_"  overflow="visible"/>
		</clipPath>
		<polygon clip-path="url(#SVGID_14_)" fill="#A7A9AC" points="170.2,239.6 173.9,239.5 174.3,241.4 170.9,242.5 		"/>
	</g>
</g>
<g>
	<g>
		<defs>
			<rect id="SVGID_15_" x="119.6" y="239" width="4.2" height="3.2"/>
		</defs>
		<clipPath id="SVGID_16_">
			<use xlink:href="#SVGID_15_"  overflow="visible"/>
		</clipPath>
		<polygon clip-path="url(#SVGID_16_)" fill="#A7A9AC" points="120.2,239 123.8,239.9 123.3,242.2 119.6,242.2 		"/>
	</g>
</g>
<g>
	<g>
		<defs>
			<rect id="SVGID_17_" x="133.2" y="240.1" width="3.7" height="6.5"/>
		</defs>
		<clipPath id="SVGID_18_">
			<use xlink:href="#SVGID_17_"  overflow="visible"/>
		</clipPath>
		<polygon clip-path="url(#SVGID_18_)" fill="#A7A9AC" points="133.2,240.8 136.2,246.6 137,240.1 133.4,240.1 		"/>
	</g>
</g>
<g>
	<g>
		<defs>
			<rect id="SVGID_19_" x="157.5" y="239.5" width="4.1" height="4.1"/>
		</defs>
		<clipPath id="SVGID_20_">
			<use xlink:href="#SVGID_19_"  overflow="visible"/>
		</clipPath>
		<polygon clip-path="url(#SVGID_20_)" fill="#A7A9AC" points="157.5,240.5 161.6,243.6 161.2,239.5 		"/>
	</g>
</g>
<path fill="#C49A6C" d="M148,231.2c-18.9,0-34.2,1.6-34.2,3.5v2.9c0,1.9,15.3,3.5,34.2,3.5s34.2-1.6,34.2-3.5v-2.9
	C182.1,232.8,166.9,231.2,148,231.2"/>
<path fill="#A97C50" d="M182.1,234.7c0,1.9-15.3,3.5-34.2,3.5c-18.9,0-34.2-1.6-34.2-3.5c0-1.9,15.3-3.5,34.2-3.5
	C166.9,231.2,182.1,232.8,182.1,234.7"/>
<g>
	<g>
		<defs>
			<rect id="SVGID_21_" x="141.3" y="234.4" width="34.5" height="2.3"/>
		</defs>
		<clipPath id="SVGID_22_">
			<use xlink:href="#SVGID_21_"  overflow="visible"/>
		</clipPath>
		<path clip-path="url(#SVGID_22_)" fill="#808285" d="M175.7,235.4c0-0.6-12.9-1-20.6-1c-7.7,0-13.9,0.5-13.9,1.1
			c0,0.6,6.2,1.1,13.9,1.1C162.9,236.7,175.7,236.1,175.7,235.4"/>
	</g>
</g>
<path fill="#FFEBCA" d="M195,95.3l-20.3-14.2L144.8,128l34.8,17.7C179.6,145.6,195.5,94.3,195,95.3"/>
<polygon fill="#1B75BC" points="169.6,98.6 163,113.9 157.1,109 "/>
<path fill="#6D6E71" d="M174.7,81.1l-3.6-6.5c0,0,22.3,5.1,25.7,11.2c4.1,7.3-5.4,21.7-5.4,21.7s1.7-4.5-0.3-5.6
	c-1.1-0.6-2.8,1.3-2.8,1.3l1-11.4L174.7,81.1z"/>
<path fill="#6D6E71" d="M179.3,101c-0.8,1.1-2.1,1.5-2.9,1c-0.8-0.6-0.7-1.9,0.1-3c0.8-1.1,2.1-1.5,2.9-1
	C180.2,98.6,180.1,99.9,179.3,101"/>
<path fill="#F1F2F2" d="M178.5,99.2c-0.3,0.3-0.7,0.3-0.9,0.1c-0.2-0.2-0.1-0.6,0.2-0.9c0.3-0.3,0.7-0.3,0.9-0.1
	C178.8,98.6,178.8,98.9,178.5,99.2"/>
<path fill="#6D6E71" d="M169.8,96.4c-0.8,1.1-2.1,1.5-2.9,1c-0.8-0.6-0.7-1.9,0.1-3c0.8-1.1,2.1-1.5,2.9-1
	C170.7,93.9,170.7,95.3,169.8,96.4"/>
<path fill="#F1F2F2" d="M168.8,94.6c-0.3,0.3-0.7,0.3-0.9,0.1c-0.2-0.2-0.1-0.6,0.2-0.9c0.3-0.3,0.7-0.3,0.9-0.1
	C169.2,93.9,169.1,94.3,168.8,94.6"/>
<polygon fill="#2368B5" points="179.6,145.6 180.1,202.6 182.6,213.7 121.7,212.3 144.8,128 "/>
<path fill="#2368B5" d="M144.8,128c-11.9-4.4-26.1-26.8-24.3-41.9l-9.4-5.3c0,0-7.1,17.7-0.5,35.6c6.2,16.7,23.9,37.2,37.3,41.7
	l7.7-13.9L144.8,128z"/>
<path fill="#414042" d="M174.4,94.1l-47.5-22.2L34.7,12.6c-0.4-0.3-0.9-0.7-1.4-0.9C27.7,9.1,20.1,14,16.1,22.5
	c-4,8.5-2.7,17.5,2.8,20.1c0.5,0.2,152.4,58.9,152.4,58.9c2.1,0.8,4.4-0.2,5.2-2.3C177.2,97.2,176.3,95,174.4,94.1"/>
<g>
	<g>
		<defs>
			<rect id="SVGID_23_" x="13.9" y="11" width="162.9" height="89.9"/>
		</defs>
		<clipPath id="SVGID_24_">
			<use xlink:href="#SVGID_23_"  overflow="visible"/>
		</clipPath>
		<path clip-path="url(#SVGID_24_)" fill="#A7A9AC" d="M174.4,94.1l-47.5-22.2L34.7,12.6c-0.4-0.3-0.9-0.7-1.4-0.9
			C27.7,9.1,20.1,14,16.1,22.5c-1.2,2.7-2,5.4-2.2,8c3.9-7,10.4-10.8,15.4-8.7c0.5,0.2,1,0.5,1.5,0.9l94.2,56l48.2,20.5
			c0.9,0.4,1.5,1,1.9,1.7c0.6-0.4,1-1,1.3-1.7C177.2,97.2,176.3,95,174.4,94.1"/>
	</g>
</g>
<g>
	<g>
		<defs>
			<rect id="SVGID_25_" x="14.4" y="11.8" width="22.9" height="30"/>
		</defs>
		<clipPath id="SVGID_26_">
			<use xlink:href="#SVGID_25_"  overflow="visible"/>
		</clipPath>
		<g clip-path="url(#SVGID_26_)">
			<defs>
				<path id="SVGID_27_" d="M33.3,12.5c4.8,2.5,5.4,10.9,1.3,18.8c-4.1,7.9-11.3,12.3-16.1,9.8c-4.8-2.5-5.4-10.9-1.3-18.8
					C21.3,14.3,28.5,10,33.3,12.5"/>
			</defs>
			<clipPath id="SVGID_28_">
				<use xlink:href="#SVGID_27_"  overflow="visible"/>
			</clipPath>
			
				<linearGradient id="SVGID_29_" gradientUnits="userSpaceOnUse" x1="-598.2388" y1="490.0722" x2="-597.2388" y2="490.0722" gradientTransform="matrix(13.3659 6.3959 6.3959 -13.3659 4882.3857 10400.8818)">
				<stop  offset="0" style="stop-color:#FFFFFF"/>
				<stop  offset="1" style="stop-color:#231F20"/>
			</linearGradient>
			<polygon clip-path="url(#SVGID_28_)" fill="url(#SVGID_29_)" points="17.8,0 51.8,16.2 33.9,53.5 0,37.3 			"/>
		</g>
	</g>
</g>
<path fill="#231F20" d="M17.9,23C22,15.1,29.2,10.7,34,13.2c0.4,0.2,0.8,0.5,1.1,0.8c-0.5-0.6-1.1-1.1-1.9-1.5
	c-4.8-2.5-12,1.9-16.1,9.8c-3.7,7.2-3.6,14.9,0.2,18C14.3,36.8,14.4,29.7,17.9,23"/>
<g opacity="0.36">
	<g>
		<defs>
			<rect id="SVGID_30_" x="14.4" y="11.8" width="22.9" height="30"/>
		</defs>
		<clipPath id="SVGID_31_">
			<use xlink:href="#SVGID_30_"  overflow="visible"/>
		</clipPath>
		<path clip-path="url(#SVGID_31_)" fill="#FFFFFF" d="M33.3,12.5c4.8,2.5,5.4,10.9,1.3,18.8c-4.1,7.9-11.3,12.3-16.1,9.8
			c-4.8-2.5-5.4-10.9-1.3-18.8C21.3,14.3,28.5,10,33.3,12.5"/>
	</g>
</g>
<g opacity="0.2">
	<g>
		<defs>
			<rect id="SVGID_32_" x="14.9" y="12.1" width="19.3" height="27.2"/>
		</defs>
		<clipPath id="SVGID_33_">
			<use xlink:href="#SVGID_32_"  overflow="visible"/>
		</clipPath>
		<path clip-path="url(#SVGID_33_)" fill="#FFFFFF" d="M32.2,12.4c-2.6-1-8.7,0.5-13.3,7.9c-4.6,7.4-4.4,14.1-2.9,17.9
			c1.5,3.8,8.2-2.8,12.2-8.7C29.6,27.3,38,14.7,32.2,12.4"/>
	</g>
</g>
<g opacity="0.4">
	<g>
		<defs>
			<rect id="SVGID_34_" x="32.3" y="15.4" width="3.1" height="3.8"/>
		</defs>
		<clipPath id="SVGID_35_">
			<use xlink:href="#SVGID_34_"  overflow="visible"/>
		</clipPath>
		<path clip-path="url(#SVGID_35_)" fill="#FFFFFF" d="M32.5,16.9c-0.4,1,0,2.1,0.8,2.3c0.8,0.3,1.7-0.3,2-1.4c0.4-1,0-2.1-0.8-2.3
			C33.7,15.2,32.8,15.9,32.5,16.9"/>
	</g>
</g>
<polygon fill="#FFEBCA" points="111.1,80.8 116.9,63.8 128.2,70.3 120.5,86.1 "/>
<path fill="#2368B5" d="M179.5,210.3c-1.6,8.1-13.8,26.8-30.3,26.1s-33-15.7-44.7-15.4c-5.4,0.1,2.5,17.4,12.7,31.6l-4.2,2.2
	c0,0-40.2-39.7-21.2-55.8c9.7-8.2,38.1,7.2,38.1,7.2L179.5,210.3z"/>
<path fill="#C49A6C" d="M180.3,282.6c0,0.7-0.5,1.2-1.2,1.2h-63.9c-0.7,0-1.2-0.5-1.2-1.2c0-0.9,0.7-1.6,1.6-1.6h63.2
	C179.6,281,180.3,281.7,180.3,282.6"/>
<g>
	<g>
		<defs>
			<rect id="SVGID_36_" x="113.9" y="281" width="66.3" height="1.6"/>
		</defs>
		<clipPath id="SVGID_37_">
			<use xlink:href="#SVGID_36_"  overflow="visible"/>
		</clipPath>
		<path clip-path="url(#SVGID_37_)" fill="#808285" d="M180.3,282.6h-66.3c0-0.9,0.7-1.6,1.6-1.6h63.2
			C179.6,281,180.3,281.7,180.3,282.6"/>
	</g>
</g>
<path fill="#917961" d="M163,288.7h-31.9c-0.5,0-0.9-0.4-0.9-0.9V287c0-0.6,0.5-1.1,1.1-1.1h31.3c0.6,0,1.1,0.5,1.1,1.1v0.8
	C163.9,288.3,163.5,288.7,163,288.7"/>
<g>
	<g>
		<defs>
			<rect id="SVGID_38_" x="130.3" y="285.9" width="33.6" height="1.6"/>
		</defs>
		<clipPath id="SVGID_39_">
			<use xlink:href="#SVGID_38_"  overflow="visible"/>
		</clipPath>
		<path clip-path="url(#SVGID_39_)" fill="#808285" d="M163.9,287.5h-33.6V287c0-0.6,0.5-1.1,1.1-1.1h31.3c0.6,0,1.1,0.5,1.1,1.1
			V287.5z"/>
	</g>
</g>
<path fill="#032360" d="M138.2,152.5c1.9,1.2,3.8,2.2,5.7,3.2c2,0.9,3.9,1.8,5.9,2.7c2,0.9,4,1.8,5.9,3c0.5,0.3,0.9,0.6,1.4,0.9
	c0.4,0.4,0.9,0.7,1.3,1.1c0.8,0.8,1.5,1.7,1.9,2.7c-0.6-0.9-1.3-1.7-2.2-2.4c-0.4-0.4-0.9-0.6-1.3-0.9c-0.5-0.3-0.9-0.5-1.4-0.8
	c-1.9-1-3.9-1.9-5.9-2.8c-2-0.9-4-1.8-5.9-3C141.7,155.3,139.8,154,138.2,152.5"/>
<path fill="#032360" d="M124.1,203.4c0.5-0.1,1,0.2,1.4,0.4c0.4,0.3,0.8,0.5,1.2,0.8c0.8,0.6,1.5,1.2,2.3,1.8c1.5,1.2,3,2.4,4.7,3.4
	c3.2,2,6.9,3.4,10.7,3.3c3.8-0.1,7.7-0.7,11.6-0.9c3.9-0.2,7.8-0.4,11.6,0.3c-1.9-0.1-3.9-0.1-5.8,0c-1.9,0.1-3.9,0.3-5.8,0.5
	l-5.8,0.7c-1.9,0.2-3.9,0.5-5.8,0.5c-4,0-7.9-1.5-11.1-3.7c-1.6-1.1-3.1-2.4-4.6-3.7c-0.7-0.7-1.4-1.3-2.1-2
	c-0.4-0.3-0.7-0.6-1.1-0.9C125.1,203.7,124.6,203.4,124.1,203.4"/>
<polygon fill="#231F20" points="117,252.4 118.9,256.7 117.2,257.8 116.8,257.4 109.1,263.3 112.8,256 113,254.8 "/>
<path fill="#4C4446" d="M263.2,353.2H27.4L2.3,378.3l-0.9,18.2l45.1,22.5l26.9,31.2l22.5-2.6l19.9,7.8h31.2l32.1,8.7
	c0,0,85.8-32.9,88.4-32.9c2.6,0,23.4,12.1,26,12.1c2.6,0,21.7-15.6,21.7-15.6L263.2,353.2z"/>
<path d="M73.4,450.3l22.5-2.6l19.9,7.8h31.2l32.1,8.7c0,0,85.8-32.9,88.4-32.9c2.6,0,23.4,12.1,26,12.1c2.6,0,21.7-15.6,21.7-15.6
	l-52-74.6l-74,0.3l-48.9,7.3l12.1,14.6l-7.3,20.2l-18.2,2l-6.5,12.5l-0.4,16.6l-27.5-3.2l-13.3-15l-77.8-12l45.1,22.5L73.4,450.3z"
	/>
<g>
</g>
<g>
</g>
<g>
</g>
<g>
</g>
<g>
</g>
<g>
</g>
<g>
</g>
<g>
</g>
<g>
</g>
<g>
</g>
<g>
</g>
<g>
</g>
<g>
</g>
<g>
</g>
<g>
</g>
</svg>
