<?xml version="1.0" encoding="utf-8"?>
<!-- Generator: Adobe Illustrator 18.0.0, SVG Export Plug-In . SVG Version: 6.00 Build 0)  -->
<!DOCTYPE svg PUBLIC "-//W3C//DTD SVG 1.1//EN" "http://www.w3.org/Graphics/SVG/1.1/DTD/svg11.dtd">
<svg version="1.1" id="Layer_1" xmlns="http://www.w3.org/2000/svg" xmlns:xlink="http://www.w3.org/1999/xlink" x="0px" y="0px"
	 viewBox="0 0 96.6 94.5" enable-background="new 0 0 96.6 94.5" xml:space="preserve">
<g>
	<g>
		<polyline fill="none" stroke="#0C56AB" stroke-width="2" stroke-miterlimit="10" points="8.9,23 13.7,9.1 19.2,31.2 21,17.9 
			25.3,23.9 33.8,3.6 38,29.1 44.1,16.3 46.5,23.9 51.4,8.1 58.7,30.6 67.2,15.7 69,22.1 79.9,11.8 87.2,24.2 		"/>
		<g>
			<g>
				
					<line fill="none" stroke="#0C56AB" stroke-width="2" stroke-linecap="round" stroke-linejoin="round" x1="1" y1="20.9" x2="2.3" y2="20.9"/>
				
					<line fill="none" stroke="#0C56AB" stroke-width="2" stroke-linecap="round" stroke-linejoin="round" stroke-dasharray="2.63,13.1502" x1="15.4" y1="20.9" x2="87.8" y2="20.9"/>
				
					<line fill="none" stroke="#0C56AB" stroke-width="2" stroke-linecap="round" stroke-linejoin="round" x1="94.3" y1="20.9" x2="95.6" y2="20.9"/>
			</g>
		</g>
	</g>
	<g>
		<path fill="#0C56AB" d="M81.8,85.5l-71.4,0l0-45.5l71.4,0L81.8,85.5z M13.4,82.6l65.5,0l0-39.5l-65.5,0L13.4,82.6z"/>
		<g>
			<rect x="11.9" y="41.6" fill="#FFFFFF" width="68.5" height="42.5"/>
		</g>
		<g>
			<defs>
				<rect id="SVGID_1_" x="15.2" y="45.1" width="61.7" height="35.5"/>
			</defs>
			<clipPath id="SVGID_2_">
				<use xlink:href="#SVGID_1_"  overflow="visible"/>
			</clipPath>
			<rect x="15.3" y="45.1" clip-path="url(#SVGID_2_)" fill="#FFFFFF" width="61.7" height="35.5"/>
			<circle clip-path="url(#SVGID_2_)" fill="#0C56AB" cx="15.3" cy="45" r="4.3"/>
			<circle clip-path="url(#SVGID_2_)" fill="#0C56AB" cx="76.9" cy="45.1" r="4.3"/>
			<circle clip-path="url(#SVGID_2_)" fill="#0C56AB" cx="15.2" cy="80.6" r="4.3"/>
			<circle clip-path="url(#SVGID_2_)" fill="#0C56AB" cx="76.9" cy="80.6" r="4.3"/>
			<use xlink:href="#SVGID_1_"  overflow="visible" fill="none" stroke="#0C56AB" stroke-width="2" stroke-miterlimit="10"/>
		</g>
		<g>
			<circle fill="#0C56AB" cx="71.5" cy="63.7" r="1.6"/>
			<circle fill="#0C56AB" cx="20.7" cy="63.7" r="1.6"/>
		</g>
		<g>
			<polygon fill="#0C56AB" points="73,94.5 70.8,92.3 67.8,93.5 69.8,82.9 74.9,83.9 			"/>
			<polygon fill="#0C56AB" points="76,94.5 78.2,92.3 81.1,93.5 79.2,82.9 74,83.9 			"/>
			<circle fill="#0C56AB" cx="74.3" cy="79.7" r="6.3"/>
			<polygon fill="#FFFFFF" points="74.4,76.4 75.9,74.7 76.1,77 78.4,76.5 77.2,78.5 79.4,79.4 77.2,80.3 78.4,82.4 76.1,81.8 
				75.9,84.2 74.4,82.4 72.8,84.2 72.6,81.8 70.3,82.4 71.5,80.3 69.4,79.4 71.5,78.5 70.3,76.5 72.6,77 72.8,74.7 			"/>
		</g>
		
			<line fill="none" stroke="#0C56AB" stroke-width="0.9817" stroke-linecap="round" stroke-miterlimit="10" x1="26.1" y1="48.2" x2="66.2" y2="48.2"/>
		
			<line fill="none" stroke="#0C56AB" stroke-width="0.9817" stroke-linecap="round" stroke-miterlimit="10" x1="26.1" y1="51.4" x2="66.2" y2="51.4"/>
		
			<line fill="none" stroke="#0C56AB" stroke-width="0.9817" stroke-linecap="round" stroke-miterlimit="10" x1="26.1" y1="54.5" x2="66.2" y2="54.5"/>
		
			<line fill="none" stroke="#0C56AB" stroke-width="0.9817" stroke-linecap="round" stroke-miterlimit="10" x1="34.4" y1="57.6" x2="66.2" y2="57.6"/>
		
			<line fill="none" stroke="#0C56AB" stroke-width="0.9817" stroke-linecap="round" stroke-miterlimit="10" x1="34.4" y1="60.7" x2="66.2" y2="60.7"/>
		
			<line fill="none" stroke="#0C56AB" stroke-width="0.9817" stroke-linecap="round" stroke-miterlimit="10" x1="34.4" y1="63.8" x2="66.2" y2="63.8"/>
		
			<line fill="none" stroke="#0C56AB" stroke-width="0.9817" stroke-linecap="round" stroke-miterlimit="10" x1="34.4" y1="66.9" x2="66.2" y2="66.9"/>
		
			<line fill="none" stroke="#0C56AB" stroke-width="0.9817" stroke-linecap="round" stroke-miterlimit="10" x1="34.4" y1="70" x2="66.2" y2="70"/>
		
			<line fill="none" stroke="#0C56AB" stroke-width="0.9817" stroke-linecap="round" stroke-miterlimit="10" x1="26.1" y1="73.1" x2="66.2" y2="73.1"/>
		
			<line fill="none" stroke="#0C56AB" stroke-width="0.9817" stroke-linecap="round" stroke-miterlimit="10" x1="26.1" y1="76.3" x2="66.2" y2="76.3"/>
	</g>
</g>
<g>
</g>
<g>
</g>
<g>
</g>
<g>
</g>
<g>
</g>
<g>
</g>
<g>
</g>
<g>
</g>
<g>
</g>
<g>
</g>
<g>
</g>
<g>
</g>
<g>
</g>
<g>
</g>
<g>
</g>
</svg>
