<?xml version="1.0" encoding="utf-8"?>
<!-- Generator: Adobe Illustrator 18.0.0, SVG Export Plug-In . SVG Version: 6.00 Build 0)  -->
<!DOCTYPE svg PUBLIC "-//W3C//DTD SVG 1.1//EN" "http://www.w3.org/Graphics/SVG/1.1/DTD/svg11.dtd">
<svg version="1.1" id="Layer_1" xmlns="http://www.w3.org/2000/svg" xmlns:xlink="http://www.w3.org/1999/xlink" x="0px" y="0px"
	 viewBox="0 0 132 19.7" enable-background="new 0 0 132 19.7" xml:space="preserve">
<g>
	<rect x="0" y="0" fill="none" width="132" height="19.3"/>
	<path fill="#999999" d="M1.3,1.2H0.2V1.1h1.1V1.2z M1.6,3.3C1.3,3.5,0.8,3.7,0.4,3.8c0,0-0.1-0.1-0.1-0.2c0.4-0.1,0.9-0.2,1.2-0.4
		L1.6,3.3z M1.2,0.6H0.3V0.5h0.9V0.6z M0.7,1.6h2.5v1.6H0.7V1.6z M0.9,2.1h2.2V1.7H0.9V2.1z M0.9,2.6h2.2V2.2H0.9V2.6z M0.9,3h2.2
		V2.7H0.9V3z M2,0.6C1.9,0.8,1.8,1,1.7,1.1c0,0-0.1-0.1-0.2-0.1C1.7,0.8,1.9,0.5,2,0.2l0.2,0c0,0.1-0.1,0.2-0.1,0.3h1.5l0,0l0.1,0
		C3.6,0.7,3.5,0.9,3.4,1.1L3.2,1c0.1-0.1,0.2-0.2,0.2-0.4H2.7v0c0,0.1,0,0.1,0,0.2c0.2,0.3,0.7,0.4,1.2,0.5c0,0-0.1,0.1-0.1,0.2
		C3.2,1.4,2.8,1.3,2.6,1C2.5,1.2,2.2,1.4,1.4,1.5c0,0-0.1-0.1-0.1-0.2c1.1-0.2,1.2-0.5,1.2-0.7v0H2z M2.6,3.3C3,3.4,3.5,3.5,3.8,3.7
		L3.6,3.8C3.3,3.7,2.9,3.5,2.4,3.4L2.6,3.3z"/>
	<path fill="#999999" d="M4.7,2C4.6,2.5,4.5,3,4.3,3.3c0-0.1-0.1-0.1-0.1-0.2C4.3,2.9,4.5,2.4,4.6,2L4.7,2z M5.1,1.7v2.1H4.9V1.7
		H4.2V1.5h0.7V0.2h0.2v1.3h0.7v0.2H5.1z M4.5,1.4c0-0.2-0.1-0.6-0.2-0.9l0.2,0c0.1,0.3,0.2,0.6,0.3,0.9L4.5,1.4z M5.3,2
		c0.1,0.1,0.4,0.7,0.4,0.8L5.5,3C5.5,2.8,5.2,2.2,5.2,2.1L5.3,2z M5.7,0.5C5.6,0.8,5.5,1.2,5.4,1.4l-0.1,0c0.1-0.2,0.2-0.6,0.3-0.9
		L5.7,0.5z M7.3,2.7v1.2H7.1V2.7L5.8,2.9l0-0.2l1.4-0.2V0.2h0.2v2.3l0.5-0.1l0,0.2L7.3,2.7z M6.5,2.1C6.4,2,6.1,1.8,5.9,1.7L6,1.5
		C6.2,1.6,6.5,1.8,6.6,2L6.5,2.1z M6.7,1.2C6.6,1,6.3,0.8,6.1,0.6l0.1-0.1C6.4,0.7,6.7,0.9,6.8,1L6.7,1.2z"/>
	<path fill="#999999" d="M10.1,2c0.4,0.6,1.1,1.2,1.7,1.5c-0.1,0-0.1,0.1-0.1,0.2c-0.6-0.3-1.2-0.8-1.6-1.3v1.5H9.9V2.3
		c-0.4,0.6-1,1.1-1.6,1.3c0,0-0.1-0.1-0.1-0.2C8.8,3.2,9.5,2.6,9.9,2V1H8.3V0.8h1.6V0.2h0.2v0.6h1.6V1h-1.6V2z M9.2,1.1
		c0,0.2-0.1,0.3-0.2,0.5C9.2,1.8,9.4,2,9.6,2.1L9.4,2.3C9.3,2.1,9.1,2,9,1.8C8.8,2.1,8.7,2.3,8.4,2.5c0,0-0.1-0.1-0.2-0.1
		C8.7,2.1,8.9,1.6,9,1.1L9.2,1.1z M11.1,1.1c0,0.2-0.1,0.3-0.1,0.5c0.3,0.2,0.6,0.5,0.8,0.7l-0.1,0.1c-0.2-0.2-0.4-0.4-0.7-0.6
		c-0.1,0.2-0.2,0.4-0.4,0.6c0,0-0.1-0.1-0.2-0.1c0.3-0.3,0.5-0.7,0.6-1.1L11.1,1.1z"/>
	<path fill="#999999" d="M12.9,1.9c-0.2-0.1-0.5-0.3-0.7-0.4l0.1-0.1c0.2,0.1,0.5,0.3,0.7,0.4L12.9,1.9z M13.1,2.5
		c-0.2,0.4-0.4,0.9-0.6,1.3l-0.2-0.1c0.2-0.3,0.4-0.8,0.6-1.3L13.1,2.5z M13.1,0.8c-0.2-0.1-0.4-0.3-0.7-0.5l0.1-0.1
		c0.2,0.1,0.5,0.3,0.7,0.4L13.1,0.8z M13.6,1.5c0,0.7-0.1,1.6-0.5,2.3c0,0-0.1-0.1-0.2-0.1c0.5-0.7,0.5-1.6,0.5-2.2V0.4h2.4v0.2
		h-2.2V1.5z M14.2,2.7c-0.1,0.3-0.3,0.6-0.5,0.8c0,0-0.1-0.1-0.2-0.1C13.7,3.3,13.9,3,14,2.7L14.2,2.7z M14.8,2.4v1.2
		c0,0.1,0,0.2-0.1,0.2c-0.1,0-0.3,0-0.5,0c0,0,0-0.1-0.1-0.2c0.2,0,0.4,0,0.4,0c0.1,0,0.1,0,0.1-0.1V2.4h-0.8V1.1h0.6
		c0-0.1,0.1-0.3,0.1-0.4l0.2,0.1c0,0.1-0.1,0.3-0.1,0.4h0.9v1.3H14.8z M14,1.7h1.4V1.3H14V1.7z M14,2.3h1.4V1.8H14V2.3z M15.3,2.7
		c0.2,0.2,0.4,0.6,0.5,0.8l-0.2,0.1c-0.1-0.2-0.3-0.5-0.5-0.8L15.3,2.7z"/>
	<path fill="#999999" d="M16.7,1c0-0.2,0.1-0.3,0.3-0.3s0.3,0.1,0.3,0.3c0,0.2-0.1,0.3-0.3,0.3S16.7,1.2,16.7,1z M16.7,3
		c0-0.2,0.1-0.3,0.3-0.3s0.3,0.1,0.3,0.3c0,0.2-0.1,0.3-0.3,0.3S16.7,3.2,16.7,3z"/>
	<path fill="#999999" d="M19.6,1.8c0,1.4-0.1,1.8-0.2,1.9c-0.1,0.1-0.1,0.1-0.2,0.1c-0.1,0-0.3,0-0.4,0c0-0.1,0-0.1-0.1-0.2
		c0.2,0,0.4,0,0.4,0c0.1,0,0.1,0,0.1,0c0.1-0.1,0.1-0.5,0.1-1.7h-0.6c0,0.8-0.2,1.5-0.5,2c0,0-0.1-0.1-0.2-0.1
		c0.4-0.6,0.5-1.6,0.5-2.6h-0.5V0.9h1.6V1h-0.9c0,0.2,0,0.4,0,0.6h0.8V1.8z M19,0.8c0-0.1-0.1-0.4-0.2-0.5L19,0.2
		c0.1,0.2,0.2,0.4,0.2,0.5L19,0.8z M20.2,1c-0.1,0.3-0.2,0.5-0.4,0.7c0,0-0.1-0.1-0.2-0.1c0.3-0.3,0.5-0.8,0.6-1.3l0.2,0
		c0,0.2-0.1,0.4-0.2,0.6h1.5V1H20.2z M21.4,3.6c0.2,0,0.2-0.1,0.2-0.5c0,0,0.1,0.1,0.2,0.1c0,0.5-0.1,0.6-0.4,0.6h-0.9
		c-0.4,0-0.4-0.1-0.4-0.4V2.3l-0.3,0.1l-0.1-0.2l0.4-0.2V1.5h0.2V2l0.5-0.2V1.1h0.2v0.6l0.5-0.2l0.1-0.1l0.1,0l0,0
		c0,0.4,0,1-0.1,1.4l-0.2,0c0-0.3,0-0.8,0-1.2l-0.5,0.3v1.2h-0.2V2l-0.5,0.2v1.2c0,0.1,0,0.2,0.3,0.2H21.4z"/>
	<path fill="#999999" d="M22.7,3c0,0.3-0.1,0.6-0.2,0.8c0,0-0.1,0-0.2,0c0.1-0.2,0.2-0.5,0.2-0.8L22.7,3z M23.5,2.1
		c0.1,0.2,0.3,0.5,0.3,0.7l-0.1,0.1c0-0.1,0-0.2-0.1-0.2c-1,0.1-1.2,0.1-1.2,0.2c0,0,0-0.1-0.1-0.2c0.1,0,0.2-0.1,0.3-0.2
		c0.1-0.1,0.3-0.2,0.5-0.4c-0.5,0-0.6,0.1-0.7,0.1c0,0,0-0.1-0.1-0.2c0.1,0,0.1-0.1,0.2-0.1c0.1-0.1,0.3-0.3,0.5-0.6l0.2,0.1
		c-0.2,0.2-0.4,0.4-0.5,0.6l0.6,0c0.1-0.1,0.2-0.2,0.3-0.3l0.2,0.1c-0.3,0.4-0.6,0.7-1,1l0.9-0.1c-0.1-0.1-0.1-0.2-0.2-0.3L23.5,2.1
		z M25.5,1.2h-3.1V0.4h3.1V1.2z M23.4,0.5h-0.8V1h0.8V0.5z M23.1,2.9c0.1,0.2,0.1,0.5,0.1,0.7l-0.2,0C23,3.5,23,3.2,22.9,3L23.1,2.9
		z M23.5,2.9c0.1,0.2,0.2,0.5,0.3,0.6l-0.2,0c0-0.2-0.2-0.5-0.3-0.7L23.5,2.9z M24.4,0.5h-0.8V1h0.8V0.5z M25.8,3.6h-1.6v0.2H24V2.1
		c-0.1,0.1-0.2,0.2-0.2,0.3c0,0-0.1-0.1-0.2-0.1c0.3-0.3,0.5-0.7,0.7-1l0.2,0c-0.1,0.2-0.1,0.3-0.2,0.5H25c-0.1-0.1-0.1-0.3-0.2-0.5
		l0.2,0c0.1,0.2,0.2,0.4,0.2,0.5h0.6v0.2h-0.7v0.4h0.6v0.2h-0.6v0.4h0.6v0.2h-0.6v0.4h0.7V3.6z M24.9,1.9h-0.7v0.4h0.7V1.9z
		 M24.9,2.5h-0.7v0.4h0.7V2.5z M24.2,3.5h0.7V3.1h-0.7V3.5z M25.4,0.5h-0.8V1h0.8V0.5z"/>
	<path fill="#999999" d="M27.3,1.1c-0.1,0.2-0.2,0.4-0.4,0.6v2.1h-0.2V1.9c-0.2,0.2-0.3,0.4-0.5,0.5c0,0-0.1-0.1-0.1-0.2
		c0.3-0.3,0.7-0.8,1-1.2L27.3,1.1z M27.2,0.3C27,0.6,26.6,1,26.3,1.2c0,0-0.1-0.1-0.1-0.1c0.3-0.2,0.7-0.6,0.9-0.9L27.2,0.3z
		 M27.1,3.6c0.2-0.2,0.3-0.5,0.4-0.7l0.2,0.1c-0.1,0.2-0.2,0.6-0.4,0.8L27.1,3.6z M29.8,2.3v0.2h-2.6V2.3H29.8z M28.3,1.1
		c0-0.1,0-0.2,0.1-0.3h-1.1V0.5h1.1c0-0.1,0-0.3,0-0.4l0.2,0c0,0.1,0,0.2-0.1,0.4h1.2v0.2h-1.2c0,0.1,0,0.2-0.1,0.3h1.1v1h-2.1v-1
		H28.3z M28.1,1.2h-0.5v0.6h0.5V1.2z M28.9,3.6c0.1,0,0.2,0,0.2-0.4c0,0,0.1,0.1,0.2,0.1c0,0.4-0.1,0.5-0.3,0.5h-0.6
		c-0.3,0-0.4-0.1-0.4-0.3V2.8h0.2v0.7c0,0.1,0,0.1,0.2,0.1H28.9z M28.4,2.5c0.1,0.2,0.3,0.4,0.3,0.5l-0.2,0.1
		c-0.1-0.1-0.2-0.4-0.3-0.5L28.4,2.5z M28.8,1.2h-0.5v0.6h0.5V1.2z M28.9,1.8h0.5V1.2h-0.5V1.8z M29.4,2.8c0.1,0.2,0.3,0.6,0.4,0.8
		l-0.2,0.1c-0.1-0.2-0.2-0.5-0.4-0.8L29.4,2.8z"/>
	<path fill="#999999" d="M30.6,2.6c0.3-0.1,0.5-0.3,0.5-0.7c0,0-0.1,0-0.1,0c-0.1,0-0.2-0.1-0.2-0.2c0-0.2,0.1-0.2,0.2-0.2
		c0.2,0,0.3,0.2,0.3,0.4c0,0.4-0.3,0.7-0.6,0.9L30.6,2.6z"/>
	<path fill="#999999" d="M32.8,3.5v0.2h-0.2V2.2c-0.1,0.1-0.2,0.2-0.2,0.3c0,0-0.1-0.1-0.1-0.1c0.3-0.2,0.5-0.6,0.6-0.9l0.2,0
		c-0.1,0.1-0.1,0.3-0.2,0.4h0.7c0-0.1-0.1-0.3-0.2-0.4l0.1-0.1c0.1,0.1,0.2,0.3,0.2,0.4l-0.1,0h0.7V2h-0.7v0.3h0.6v0.2h-0.6v0.3h0.6
		V3h-0.6v0.3h0.7v0.2H32.8z M35.6,1.7C35.4,2.2,35.2,2.6,35,3c0.1,0.4,0.3,0.6,0.5,0.6c0.1,0,0.2-0.2,0.2-0.7c0,0,0.1,0.1,0.2,0.1
		c0,0.6-0.1,0.8-0.4,0.8c-0.3,0-0.5-0.2-0.6-0.6c-0.2,0.2-0.4,0.5-0.7,0.6c0,0-0.1-0.1-0.1-0.1c0.3-0.2,0.5-0.4,0.7-0.7
		c-0.1-0.4-0.2-1-0.3-1.6h-2.3V1.2h1V0.8h-0.8V0.6h0.8V0.2h0.2v0.4h0.8v0.2h-0.8v0.4h1.1c0-0.3,0-0.7,0-1h0.2c0,0.4,0,0.7,0,1h1.1
		v0.2h-1.1c0,0.6,0.1,1,0.2,1.4c0.2-0.3,0.4-0.7,0.5-1.1L35.6,1.7z M33.4,2h-0.7v0.3h0.7V2z M33.4,2.5h-0.7v0.3h0.7V2.5z M33.4,3
		h-0.7v0.3h0.7V3z M35.5,1c-0.1-0.2-0.4-0.4-0.6-0.6L35,0.3c0.2,0.2,0.5,0.4,0.6,0.6L35.5,1z"/>
	<path fill="#999999" d="M39.8,3.5v0.2h-3.5V3.5h1.7V2.6h-1.3V2.4h1.3V1.8h0.2v0.6h1.4v0.2h-1.4v0.8H39.8z M39.4,1.9
		c-0.1-0.1-0.2-0.2-0.3-0.3c-2.2,0.1-2.4,0.1-2.6,0.2c0,0,0-0.1-0.1-0.2c0.1,0,0.2-0.1,0.3-0.2c0.1-0.1,0.4-0.4,0.7-0.8h-1.2V0.4
		h3.3v0.2h-1.9c-0.3,0.4-0.6,0.7-0.9,0.9L39,1.5c-0.2-0.2-0.4-0.3-0.6-0.5l0.2-0.1c0.4,0.3,0.8,0.6,1,0.9L39.4,1.9z"/>
	<path fill="#999999" d="M40.2,3.4c1-0.9,1.4-1.5,1.4-2c0-0.4-0.2-0.6-0.6-0.6c-0.3,0-0.5,0.2-0.6,0.4L40.2,1
		c0.2-0.2,0.5-0.4,0.8-0.4c0.5,0,0.8,0.3,0.8,0.8c0,0.6-0.5,1.2-1.2,1.9c0.2,0,0.3,0,0.5,0h0.9v0.2h-1.8V3.4z"/>
	<path fill="#999999" d="M42.4,2.1c0-1,0.3-1.5,0.9-1.5c0.5,0,0.9,0.5,0.9,1.5c0,1-0.3,1.5-0.9,1.5C42.7,3.6,42.4,3.1,42.4,2.1z
		 M43.8,2.1c0-0.9-0.2-1.3-0.6-1.3c-0.4,0-0.6,0.4-0.6,1.3c0,0.9,0.2,1.3,0.6,1.3C43.6,3.4,43.8,2.9,43.8,2.1z"/>
	<path fill="#999999" d="M44.6,3.3h0.7V0.9h-0.5V0.8c0.2,0,0.4-0.1,0.6-0.2h0.2v2.7h0.6v0.2h-1.5V3.3z"/>
	<path fill="#999999" d="M48.1,0.8h-1.5V0.6h1.8v0.1c-0.7,0.9-0.8,1.6-0.9,2.8h-0.3C47.3,2.4,47.5,1.6,48.1,0.8z"/>
	<path fill="#999999" d="M52.3,2.9h-1.5v1h-0.2v-1h-1.9V2.7h0.7V1.6h1.2V0.9h-1c-0.2,0.3-0.4,0.6-0.6,0.8c0,0-0.1-0.1-0.2-0.1
		c0.4-0.3,0.7-0.9,0.9-1.4l0.2,0c-0.1,0.2-0.1,0.3-0.2,0.5h2.5v0.2h-1.3v0.7h1.2v0.2h-1.2v0.9h1.5V2.9z M50.7,2.7V1.8h-1v0.9H50.7z"
		/>
	<path fill="#999999" d="M52.7,2.8c0-0.4,0.3-0.7,0.6-0.8v0c-0.2-0.1-0.4-0.4-0.4-0.7c0-0.4,0.3-0.7,0.8-0.7c0.5,0,0.8,0.3,0.8,0.8
		c0,0.3-0.2,0.6-0.4,0.7v0c0.2,0.1,0.5,0.4,0.5,0.8c0,0.4-0.4,0.7-0.9,0.7C53.1,3.6,52.7,3.2,52.7,2.8z M54.3,2.8
		c0-0.4-0.4-0.6-0.8-0.8C53.2,2.2,53,2.5,53,2.8c0,0.3,0.3,0.6,0.7,0.6C54,3.4,54.3,3.1,54.3,2.8z M54.2,1.3c0-0.3-0.2-0.6-0.6-0.6
		c-0.3,0-0.5,0.2-0.5,0.5c0,0.4,0.4,0.6,0.7,0.7C54.1,1.8,54.2,1.6,54.2,1.3z"/>
	<path fill="#999999" d="M57.9,3.5c0,0.2-0.1,0.2-0.2,0.3c-0.1,0-0.4,0-0.8,0c0-0.1,0-0.1-0.1-0.2c0.4,0,0.7,0,0.8,0
		c0.1,0,0.1,0,0.1-0.1V2.5h-2.1C55.6,3,55.4,3.5,55,3.8c0,0-0.1-0.1-0.1-0.1c0.7-0.6,0.7-1.4,0.7-2.1V0.4h2.4V3.5z M57.7,2.4V1.6h-2
		v0c0,0.2,0,0.5-0.1,0.8H57.7z M55.8,0.6v0.8h2V0.6H55.8z"/>
	<path fill="#999999" d="M58.8,3.2L59,3c0.2,0.2,0.4,0.4,0.8,0.4c0.4,0,0.6-0.2,0.6-0.6c0-0.4-0.3-0.7-1-0.7V1.9
		c0.6,0,0.9-0.3,0.9-0.6c0-0.3-0.2-0.5-0.6-0.5c-0.3,0-0.5,0.1-0.6,0.3l-0.1-0.2c0.2-0.2,0.4-0.3,0.8-0.3c0.4,0,0.8,0.3,0.8,0.7
		c0,0.4-0.2,0.6-0.5,0.7v0c0.4,0.1,0.6,0.3,0.6,0.8c0,0.5-0.4,0.8-0.9,0.8C59.3,3.6,59,3.4,58.8,3.2z"/>
	<path fill="#999999" d="M61.2,3.3h0.7V0.9h-0.5V0.8c0.2,0,0.4-0.1,0.6-0.2h0.2v2.7h0.6v0.2h-1.5V3.3z"/>
	<path fill="#999999" d="M66.2,0.5v3.3h-0.2V3.5h-2.1v0.3h-0.2V0.5H66.2z M63.9,0.7v1.2h2.1V0.7H63.9z M66.1,3.3V2.1h-2.1v1.2H66.1z
		"/>
	<path fill="#999999" d="M68,1.4c0.3,0,0.6,0.3,0.6,0.6c0,0.3-0.3,0.6-0.6,0.6c-0.3,0-0.6-0.3-0.6-0.6C67.4,1.7,67.7,1.4,68,1.4z
		 M68,2.4c0.2,0,0.4-0.2,0.4-0.4c0-0.2-0.2-0.4-0.4-0.4c-0.2,0-0.4,0.2-0.4,0.4C67.6,2.2,67.8,2.4,68,2.4z"/>
	<path fill="#999999" d="M71.3,1.3C71.6,2,72.2,2.7,72.8,3c0,0-0.1,0.1-0.1,0.2c-0.6-0.4-1.2-1.1-1.5-1.9h-0.1v1.6h1V3h-1v0.8h-0.2
		V3h-1V2.8h1V1.3h-0.1c-0.3,0.8-0.9,1.5-1.5,1.9c0,0-0.1-0.1-0.1-0.2c0.6-0.3,1.1-1,1.4-1.7h-1.3V1.1h1.6V0.2h0.2v0.9h1.6v0.2H71.3z
		"/>
	<path fill="#999999" d="M76.8,3.5v0.2h-3.6V3.5h0.6V2.2h2.5v1.3H76.8z M76.7,1.2h-3.4V1h3.4V1.2z M74.5,1.5
		c-0.3,0.2-0.7,0.5-1.1,0.7c0,0-0.1-0.1-0.1-0.1c0.3-0.1,0.8-0.4,1.1-0.7L74.5,1.5z M73.9,3.5h0.6V2.4h-0.6V3.5z M74.3,1
		c-0.1-0.2-0.3-0.5-0.4-0.7l0.2-0.1c0.2,0.2,0.4,0.5,0.4,0.7L74.3,1z M74.7,2.4v1.1h0.6V2.4H74.7z M76.6,2.1
		c-0.3-0.2-0.8-0.4-1.2-0.6l0.1-0.1c0.4,0.1,0.9,0.4,1.2,0.5L76.6,2.1z M76.1,0.3c-0.1,0.2-0.3,0.5-0.5,0.7l-0.2-0.1
		c0.1-0.2,0.3-0.5,0.4-0.7L76.1,0.3z M75.5,2.4v1.1h0.6V2.4H75.5z"/>
	<path fill="#999999" d="M78.9,3.1c0,0.1,0,0.1,0,0.2c-1.2,0.3-1.3,0.4-1.4,0.4c0,0-0.1-0.1-0.1-0.2c0.1,0,0.1-0.1,0.1-0.3v-3h0.2
		v1.3h1.1v0.2h-1.1v1.7L78.9,3.1z M80.4,3.5c0.2,0,0.2-0.1,0.3-0.7c0.1,0,0.1,0.1,0.2,0.1c0,0.6-0.1,0.8-0.4,0.8h-0.7
		c-0.3,0-0.4-0.1-0.4-0.4V0.2h0.2v1.3h1.1v0.2h-1.1v1.6c0,0.2,0,0.3,0.3,0.3H80.4z"/>
	<path fill="#999999" d="M81.3,3.6c0.2-0.2,0.4-0.5,0.5-0.7L81.9,3c-0.1,0.2-0.3,0.5-0.5,0.7L81.3,3.6z M84.7,1.2v0.2h-3.4V1.2h1
		c0-0.1-0.1-0.3-0.2-0.4l0.2,0c0.1,0.1,0.2,0.3,0.2,0.4l-0.1,0h1.1c0.1-0.1,0.2-0.3,0.2-0.5h-2.2V0.5H83c-0.1-0.1-0.1-0.2-0.2-0.3
		L83,0.2c0.1,0.1,0.2,0.3,0.2,0.4h1.3v0.2h-0.8l0.2,0c-0.1,0.1-0.1,0.3-0.2,0.4H84.7z M84.2,2.7h-2.5V1.6h2.5V2.7z M84,1.7h-2.1v0.3
		H84V1.7z M84,2.2h-2.1v0.3H84V2.2z M83.4,3.6c0.2,0,0.2,0,0.2-0.4c0,0,0.1,0.1,0.2,0.1c0,0.4-0.1,0.5-0.4,0.5h-0.8
		c-0.3,0-0.4,0-0.4-0.3V2.9h0.2v0.6c0,0.1,0,0.1,0.3,0.1H83.4z M82.8,2.7C83,2.8,83.3,3,83.4,3.2l-0.1,0.1c-0.1-0.1-0.4-0.3-0.6-0.5
		L82.8,2.7z M84.1,2.9c0.2,0.2,0.4,0.5,0.5,0.7l-0.2,0.1c-0.1-0.2-0.3-0.5-0.5-0.7L84.1,2.9z"/>
	<path fill="#999999" d="M86.5,2.1L86,2.3v1.3c0,0.1,0,0.2-0.1,0.2c-0.1,0-0.2,0-0.5,0c0,0,0-0.1-0.1-0.2c0.2,0,0.4,0,0.4,0
		c0.1,0,0.1,0,0.1-0.1V2.3c-0.2,0.1-0.4,0.1-0.6,0.2l-0.1-0.2c0.2-0.1,0.4-0.1,0.7-0.2V1.2h-0.6V1h0.6V0.2H86V1h0.5v0.2H86v0.9
		C86.1,2,86.3,2,86.5,1.9L86.5,2.1z M86.8,2.1h1.8v1.7h-0.2V3.6h-1.5v0.2h-0.2V2.1z M87.2,1.7c-0.3,0-0.4-0.1-0.4-0.4V0.2H87v0.5
		h1.7v0.2H87v0.4c0,0.2,0,0.2,0.2,0.2h1.1c0.1,0,0.3,0,0.4,0c0,0.1,0,0.1,0,0.2c-0.1,0-0.2,0-0.4,0H87.2z M86.9,2.3v0.5h1.5V2.3
		H86.9z M88.4,3.4V2.9h-1.5v0.5H88.4z"/>
	<path fill="#999999" d="M90.5,3.5c0,0.1,0,0.2-0.1,0.2c-0.1,0-0.2,0-0.5,0c0,0,0-0.1-0.1-0.2c0.2,0,0.4,0,0.4,0
		c0.1,0,0.1,0,0.1-0.1V2.3c-0.2,0.1-0.4,0.2-0.6,0.3l-0.1-0.2c0.2-0.1,0.4-0.2,0.7-0.3V0.5h-0.7v1.2c0,0.6,0,1.5-0.3,2.1
		c0,0-0.1-0.1-0.2-0.1c0.3-0.6,0.3-1.4,0.3-2V0.3h1V3.5z M90.2,1.7c-0.1-0.1-0.3-0.4-0.5-0.5l0.1-0.1c0.2,0.2,0.4,0.4,0.5,0.5
		L90.2,1.7z M92.6,2c-0.2,0.5-0.4,0.9-0.8,1.2c0.3,0.2,0.6,0.4,0.9,0.5c0,0-0.1,0.1-0.1,0.2c-0.4-0.1-0.7-0.3-0.9-0.5
		c-0.3,0.2-0.7,0.4-1,0.5c0-0.1-0.1-0.1-0.1-0.2c0.3-0.1,0.7-0.3,1-0.5c-0.3-0.3-0.5-0.6-0.6-1h-0.2V2h1.7l0,0L92.6,2z M91.3,0.8
		c0,0.3-0.1,0.8-0.6,1c0,0-0.1-0.1-0.1-0.1c0.4-0.3,0.5-0.6,0.5-0.9V0.3h1.1v1c0,0.1,0,0.1,0.1,0.1h0.3c0,0,0.1,0,0.2,0
		c0,0,0,0.1,0,0.2c0,0-0.1,0-0.2,0h-0.3c-0.2,0-0.2-0.1-0.2-0.3V0.5h-0.8V0.8z M91.1,2.2c0.1,0.3,0.3,0.7,0.6,0.9
		c0.3-0.2,0.5-0.5,0.7-0.9H91.1z"/>
	<path fill="#999999" d="M94.1,0.3c-0.1,0.3-0.2,0.5-0.3,0.8v2.8h-0.2V1.4c-0.1,0.2-0.3,0.5-0.5,0.7c0,0-0.1-0.1-0.1-0.2
		c0.4-0.4,0.7-1,0.9-1.7L94.1,0.3z M95.2,3.4c-0.2,0.2-0.6,0.3-1,0.4c0,0-0.1-0.1-0.1-0.1c0.3-0.1,0.7-0.2,0.9-0.4L95.2,3.4z
		 M95,0.6h-0.8V0.4h2.6v0.2h-0.9v0.3h0.7v0.7h-2.3V0.8H95V0.6z M94.4,3.2V1.8h2.2v1.4H94.4z M94.5,1.4H95V1h-0.5V1.4z M94.6,2.2h1.8
		V2h-1.8V2.2z M94.6,2.7h1.8V2.4h-1.8V2.7z M94.6,3.1h1.8V2.8h-1.8V3.1z M95.7,0.6h-0.5v0.3h0.5V0.6z M95.2,1.4h0.5V1h-0.5V1.4z
		 M95.9,3.3c0.3,0.1,0.7,0.3,1,0.4l-0.2,0.1c-0.2-0.1-0.6-0.3-0.9-0.4L95.9,3.3z M95.9,1v0.4h0.5V1H95.9z"/>
	<path fill="#999999" d="M98.1,1.1h0.6v0.2h-0.6v0.4c0.1,0.1,0.5,0.6,0.6,0.7l-0.1,0.2c-0.1-0.1-0.3-0.4-0.5-0.6v1.9h-0.2V1.7
		c-0.2,0.5-0.4,1-0.7,1.3c0,0-0.1-0.1-0.1-0.2c0.3-0.3,0.6-1,0.8-1.6h-0.7V1.1h0.7V0.2h0.2V1.1z M100.6,0.4v3.3h-0.2V3.5h-1.4v0.2
		h-0.2V0.4H100.6z M99.1,0.6v0.8h1.4V0.6H99.1z M99.1,2.4h1.4V1.6h-1.4V2.4z M100.5,3.4V2.6h-1.4v0.8H100.5z"/>
	<path fill="#999999" d="M103.2,1.2h-2V1.1h0.7V0.2h0.2v0.9h0.4V0.2h0.2v0.9h0.7V1.2z M103.2,3.1l0,0.2c-0.7,0.1-1.5,0.2-2,0.3
		l0-0.2c0.2,0,0.6-0.1,0.9-0.1V2.7h-0.7V2.6h0.7V2.1h-0.8V1.9h1.1c0.1-0.2,0.2-0.4,0.3-0.6l0.2,0.1c-0.1,0.2-0.2,0.4-0.3,0.5h0.5
		v0.2h-0.8v0.5h0.7v0.2h-0.7v0.6L103.2,3.1z M101.6,1c-0.1-0.2-0.2-0.4-0.4-0.6l0.1-0.1c0.2,0.2,0.3,0.4,0.4,0.6L101.6,1z
		 M101.9,1.8c-0.1-0.1-0.2-0.3-0.3-0.5l0.1-0.1c0.1,0.1,0.3,0.3,0.3,0.5L101.9,1.8z M103.2,0.4c-0.1,0.2-0.3,0.4-0.4,0.6l-0.1-0.1
		c0.1-0.2,0.3-0.4,0.4-0.6L103.2,0.4z M104.8,1.5h-0.4v2.1c0,0.2,0,0.2-0.1,0.2c-0.1,0-0.3,0-0.6,0c0,0,0-0.1-0.1-0.2
		c0.3,0,0.5,0,0.5,0c0.1,0,0.1,0,0.1-0.1V1.5h-1V1.3h1V0.2h0.2v1.1h0.4V1.5z M103.7,2.8c0-0.2-0.2-0.6-0.4-0.9l0.2-0.1
		c0.2,0.3,0.3,0.7,0.4,0.9L103.7,2.8z"/>
	<path fill="#999999" d="M106.6,1.7C106.6,1.7,106.6,1.8,106.6,1.7c-0.1,1.4-0.1,1.8-0.2,2c-0.1,0.1-0.1,0.1-0.2,0.1
		c-0.1,0-0.2,0-0.3,0c0-0.1,0-0.1,0-0.2c0.1,0,0.3,0,0.3,0c0.1,0,0.1,0,0.1,0c0.1-0.1,0.1-0.5,0.2-1.7h-0.6c0,0.8-0.2,1.5-0.5,1.9
		c0,0-0.1-0.1-0.2-0.1c0.4-0.5,0.5-1.5,0.5-2.6h-0.5V0.9h1.6v0.2h-0.9c0,0.2,0,0.4,0,0.6H106.6z M106,0.8c-0.1-0.2-0.2-0.4-0.4-0.6
		l0.2-0.1c0.1,0.2,0.3,0.4,0.4,0.6L106,0.8z M107.9,0.2c0,0.1,0,0.1-0.1,0.2c0.2,0.5,0.6,1,1,1.2c-0.1,0-0.1,0.1-0.2,0.2
		c-0.4-0.2-0.7-0.7-1-1.1c-0.2,0.5-0.5,0.9-0.9,1.2c0-0.1-0.1-0.1-0.1-0.2c0.5-0.3,0.8-0.8,1-1.4L107.9,0.2z M107.2,2.9
		c0.4,0.2,0.8,0.4,1.1,0.6l-0.1,0.2c-0.2-0.2-0.7-0.5-1.1-0.7L107.2,2.9z M107.5,1.7c0.2,0.2,0.5,0.4,0.7,0.5L108,2.4
		c-0.2-0.1-0.5-0.4-0.7-0.5L107.5,1.7z"/>
	<path fill="#999999" d="M110.1,1.2c-0.2,0.5-0.5,1-0.9,1.2c0,0-0.1-0.1-0.1-0.1c0.6-0.3,0.8-0.9,1-1.7h-0.8V0.4h2.6
		c-0.1,0.2-0.1,0.5-0.2,0.7h0.8c0,0,0,0.1,0,0.1c-0.1,0.6-0.1,0.9-0.2,1c-0.1,0.1-0.1,0.1-0.2,0.1c-0.1,0-0.3,0-0.5,0
		c0-0.1,0-0.1-0.1-0.2c0.2,0,0.4,0,0.5,0c0.1,0,0.1,0,0.1,0c0.1-0.1,0.1-0.3,0.2-0.8h-0.9c0.1-0.2,0.1-0.5,0.2-0.7h-1.4
		c0,0.1-0.1,0.3-0.1,0.4h1l0,0l0.1,0c-0.1,0.3-0.2,0.5-0.4,0.7c0.2,0.1,0.3,0.2,0.5,0.4l-0.1,0.1c-0.1-0.1-0.3-0.2-0.4-0.4
		c-0.2,0.2-0.5,0.3-0.7,0.4c0,0-0.1-0.1-0.1-0.1c0.3-0.1,0.5-0.2,0.7-0.4c-0.2-0.1-0.4-0.2-0.5-0.3l0.1-0.1c0.2,0.1,0.4,0.2,0.5,0.3
		c0.1-0.1,0.2-0.3,0.3-0.5H110.1z M112.8,3.5v0.2h-3.6V3.5h0.5v-1h2.7v1H112.8z M109.8,3.5h0.6V2.7h-0.6V3.5z M110.6,2.7v0.9h0.6
		V2.7H110.6z M111.5,2.7v0.9h0.7V2.7H111.5z"/>
	<path fill="#999999" d="M114.6,1c-0.1-0.1-0.4-0.3-0.6-0.5c-0.2,0.3-0.5,0.5-0.7,0.7c0,0-0.1-0.1-0.1-0.2c0.3-0.2,0.7-0.5,0.8-0.9
		l0.2,0.1c0,0-0.1,0.1-0.1,0.1c0.2,0.1,0.5,0.3,0.6,0.5L114.6,1z M114.2,2.8c0.2,0.3,0.3,0.6,0.4,0.8l-0.2,0.1
		c0-0.1-0.1-0.2-0.2-0.4c-0.9,0.4-1,0.4-1,0.5c0,0,0-0.1-0.1-0.2c0.1,0,0.2-0.1,0.2-0.2v-2h1.1v1.3h-0.9v0.8l0.7-0.3
		c-0.1-0.1-0.1-0.2-0.2-0.3L114.2,2.8z M113.6,1.6v0.4h0.7V1.6H113.6z M114.3,2.5V2.1h-0.7v0.4H114.3z M113.7,1.1V0.9h0.7v0.2H113.7
		z M115.2,2.6c-0.1,0.3-0.3,0.7-0.5,0.9c0,0-0.1-0.1-0.2-0.1c0.2-0.2,0.4-0.6,0.5-0.9L115.2,2.6z M115.9,0.2c0,0.1-0.1,0.1-0.1,0.2
		c0.3,0.4,0.6,0.6,1,0.8c0,0-0.1,0.1-0.1,0.1c-0.4-0.2-0.7-0.5-1-0.8c-0.3,0.3-0.6,0.6-1,0.8c0,0-0.1-0.1-0.1-0.1
		c0.5-0.2,0.9-0.6,1.1-1L115.9,0.2z M115.8,2.3v1.3c0,0.1,0,0.2-0.1,0.2c-0.1,0-0.2,0-0.5,0c0,0,0-0.1-0.1-0.2c0.2,0,0.4,0,0.4,0
		c0.1,0,0.1,0,0.1-0.1V2.3h-0.9V2.1h0.9V1.5H115V1.4h1.5v0.2h-0.7v0.6h1v0.2H115.8z M116.3,2.5c0.2,0.3,0.4,0.7,0.5,0.9l-0.2,0.1
		c-0.1-0.2-0.3-0.6-0.5-0.9L116.3,2.5z"/>
	<path fill="#999999" d="M120.4,1.1c-0.5,0.7-1.4,1.6-2.2,2.1c0,0,0.1,0.1,0.2,0.1c0.3,0.2,0.6,0.2,1,0.2c0.5,0,1.1,0,1.5-0.1
		c0,0.1-0.1,0.2-0.1,0.2c-0.3,0-1,0-1.4,0c-0.5,0-0.8,0-1.1-0.2c-0.2-0.1-0.3-0.2-0.4-0.2c-0.1,0-0.3,0.2-0.5,0.5l-0.1-0.2
		c0.3-0.3,0.5-0.5,0.7-0.5c0,0,0,0,0.1,0c0.8-0.4,1.6-1.2,2.1-1.9h-2.6V1h2.8l0,0L120.4,1.1z M119.1,0.9c-0.1-0.2-0.3-0.5-0.4-0.7
		l0.2-0.1c0.2,0.2,0.3,0.5,0.4,0.7L119.1,0.9z"/>
	<path fill="#999999" d="M122.9,3.1c0,0.1,0,0.1,0,0.2c-1.2,0.3-1.3,0.4-1.4,0.4c0,0-0.1-0.1-0.1-0.2c0.1,0,0.1-0.1,0.1-0.3v-3h0.2
		v1.3h1.1v0.2h-1.1v1.7L122.9,3.1z M124.4,3.5c0.2,0,0.2-0.1,0.3-0.7c0.1,0,0.1,0.1,0.2,0.1c0,0.6-0.1,0.8-0.4,0.8h-0.7
		c-0.3,0-0.4-0.1-0.4-0.4V0.2h0.2v1.3h1.1v0.2h-1.1v1.6c0,0.2,0,0.3,0.3,0.3H124.4z"/>
	<path fill="#999999" d="M126.1,0.2c-0.1,0.3-0.2,0.5-0.3,0.8v2.8h-0.2V1.4c-0.1,0.2-0.2,0.4-0.4,0.5c0,0-0.1-0.1-0.1-0.2
		c0.3-0.4,0.6-1,0.8-1.6L126.1,0.2z M126.2,0.4h1.3v0.2h-0.7c0,0.2-0.1,0.5-0.1,0.7h0.7l0,0l0.1,0c-0.1,1.4-0.6,2.1-1.3,2.5
		c0,0-0.1-0.1-0.1-0.1c0.4-0.2,0.7-0.5,0.9-0.9c-0.1-0.2-0.4-0.4-0.6-0.6c-0.1,0.1-0.1,0.2-0.2,0.3c0,0-0.1-0.1-0.1-0.1
		c0.3-0.4,0.5-1,0.6-1.7h-0.5V0.4z M126.6,1.5c-0.1,0.2-0.1,0.4-0.2,0.5c0.2,0.2,0.5,0.4,0.6,0.5c0.1-0.3,0.2-0.6,0.2-1H126.6z
		 M127.9,2.9h-0.2V0.7h0.2V2.9z M128.6,0.2v3.3c0,0.2,0,0.2-0.1,0.2c-0.1,0-0.3,0-0.6,0c0-0.1,0-0.1-0.1-0.2c0.2,0,0.5,0,0.5,0
		c0.1,0,0.1,0,0.1-0.1V0.2H128.6z"/>
	<path fill="#999999" d="M129.6,3.7c0.3-0.2,0.5-0.4,0.5-0.7c0,0-0.1,0-0.1,0c-0.1,0-0.2-0.1-0.2-0.2c0-0.2,0.1-0.2,0.2-0.2
		c0.2,0,0.3,0.2,0.3,0.4c0,0.4-0.3,0.8-0.6,0.9L129.6,3.7z M129.7,1c0-0.2,0.1-0.3,0.3-0.3s0.3,0.1,0.3,0.3c0,0.2-0.1,0.3-0.3,0.3
		S129.7,1.2,129.7,1z"/>
	<path fill="#999999" d="M1.2,8.4v1.4H1.1V8.4H0.2V8.2h0.8V7.7H0.2V7.5h1.1C1.4,7.3,1.5,7,1.6,6.8l0.2,0C1.7,7.1,1.6,7.4,1.5,7.5
		h0.6v0.2H1.2v0.5H2v0.2H1.2z M0.8,8.7C0.7,9,0.5,9.3,0.4,9.5c0,0-0.1-0.1-0.1-0.1c0.2-0.2,0.3-0.5,0.4-0.7L0.8,8.7z M2,6.8H0.3V6.6
		h0.9C1.1,6.5,1,6.3,0.9,6.2l0.2-0.1c0.1,0.1,0.2,0.3,0.2,0.4H2V6.8z M0.7,7.5c0-0.2-0.1-0.4-0.2-0.6l0.2,0C0.8,7,0.9,7.3,0.9,7.5
		L0.7,7.5z M1.6,8.6C1.8,8.8,1.9,9.1,2,9.3L1.8,9.4C1.8,9.2,1.6,8.9,1.5,8.7L1.6,8.6z M3.8,7.7H3.3v2.1H3.1V7.7H2.5v0.2
		c0,0.6-0.1,1.3-0.4,1.9c0,0-0.1-0.1-0.1-0.1c0.4-0.5,0.4-1.2,0.4-1.7V6.6c0.5-0.1,1-0.2,1.3-0.3l0.2,0.1C3.4,6.5,2.9,6.6,2.5,6.7
		v0.8h1.3V7.7z"/>
	<path fill="#999999" d="M7.8,8.7v0.2H4.2V8.7h0.3L4.5,6.5C4.7,6.4,5,6.3,5.2,6.3l0.1,0.2C5.1,6.5,4.9,6.6,4.7,6.6l0,0.5h0.5v0.2
		H4.7l0,0.6h0.5v0.2H4.7l0,0.6h0.6V6.4h1.3v2.3h0.6c0-0.2,0-0.4,0-0.6H6.8V7.9h0.5c0-0.2,0-0.4,0-0.6H6.8V7.2h0.5c0-0.2,0-0.4,0-0.6
		H6.8V6.4h0.7c0,0.7,0,1.7-0.1,2.3H7.8z M5.6,9.1C5.2,9.3,4.8,9.6,4.4,9.8c0,0-0.1-0.1-0.1-0.1C4.6,9.5,5.1,9.2,5.4,9L5.6,9.1z
		 M5.5,8.7h1V6.6h-1V8.7z M6.4,6.9V7H5.6V6.9H6.4z M5.7,7.4h0.6v0.9H5.7V7.4z M5.8,8.1h0.4V7.5H5.8V8.1z M6.5,9
		C7,9.2,7.4,9.4,7.7,9.6L7.6,9.8C7.3,9.6,6.9,9.3,6.4,9.1L6.5,9z"/>
	<path fill="#999999" d="M10.1,7v0.6h1.3V9c0,0.1,0,0.2-0.1,0.2c-0.1,0-0.3,0-0.7,0c0-0.1,0-0.1-0.1-0.2c0.3,0,0.6,0,0.6,0
		c0.1,0,0.1,0,0.1-0.1V7.8h-1.1v2H9.9v-2H8.8v1.5H8.6V7.6h1.2V7H8.2V6.8H10C9.9,6.6,9.8,6.4,9.7,6.2l0.2-0.1
		c0.1,0.2,0.3,0.4,0.3,0.6l-0.1,0h1.7V7H10.1z"/>
	<path fill="#999999" d="M13.4,8.5C13,8.7,12.6,8.9,12.2,9l-0.1-0.2c0.2-0.1,0.4-0.2,0.6-0.3V7.2h-0.5V7.1h0.5V6.2h0.2v0.9h0.5v0.2
		h-0.5v1.3l0.5-0.2L13.4,8.5z M14.1,8c-0.1,0.1-0.1,0.2-0.2,0.3h1.8c0,0,0,0.1,0,0.1c-0.1,0.9-0.1,1.2-0.2,1.3
		c-0.1,0.1-0.1,0.1-0.2,0.1c-0.1,0-0.2,0-0.4,0c0,0,0-0.1,0-0.2c0.2,0,0.3,0,0.4,0c0.1,0,0.1,0,0.1,0c0.1-0.1,0.1-0.4,0.2-1.1h-0.4
		c-0.2,0.5-0.5,1-0.8,1.3c0,0-0.1-0.1-0.1-0.1c0.3-0.2,0.6-0.7,0.8-1.2h-0.5c-0.2,0.4-0.6,0.9-1,1.1c0,0-0.1-0.1-0.1-0.1
		c0.4-0.2,0.7-0.6,1-1h-0.5c-0.2,0.2-0.4,0.4-0.6,0.5c0,0-0.1-0.1-0.1-0.1c0.3-0.2,0.6-0.5,0.8-0.9h-0.6V7.8h2.5V8H14.1z M15.5,7.6
		h-1.8V6.3h1.8V7.6z M15.3,6.5h-1.4v0.4h1.4V6.5z M15.3,7h-1.4v0.4h1.4V7z"/>
	<path fill="#999999" d="M17.1,7.1h0.6v0.2h-0.6v0.4c0.1,0.1,0.5,0.6,0.6,0.7l-0.1,0.2c-0.1-0.1-0.3-0.4-0.5-0.6v1.9h-0.2V7.7
		c-0.2,0.5-0.4,1-0.7,1.3c0,0-0.1-0.1-0.1-0.2c0.3-0.3,0.6-1,0.8-1.6h-0.7V7.1h0.7V6.2h0.2V7.1z M19.7,6.4v3.3h-0.2V9.5h-1.4v0.2
		h-0.2V6.4H19.7z M18.1,6.6v0.8h1.4V6.6H18.1z M18.1,8.4h1.4V7.6h-1.4V8.4z M19.5,9.4V8.6h-1.4v0.8H19.5z"/>
	<path fill="#999999" d="M22.2,7.2h-2V7.1h0.7V6.2H21v0.9h0.4V6.2h0.2v0.9h0.7V7.2z M22.2,9.1l0,0.2c-0.7,0.1-1.5,0.2-2,0.3l0-0.2
		c0.2,0,0.6-0.1,0.9-0.1V8.7h-0.7V8.6h0.7V8.1h-0.8V7.9h1.1c0.1-0.2,0.2-0.4,0.3-0.6l0.2,0.1c-0.1,0.2-0.2,0.4-0.3,0.5h0.5v0.2h-0.8
		v0.5H22v0.2h-0.7v0.6L22.2,9.1z M20.7,7c-0.1-0.2-0.2-0.4-0.4-0.6l0.1-0.1c0.2,0.2,0.3,0.4,0.4,0.6L20.7,7z M20.9,7.8
		c-0.1-0.1-0.2-0.3-0.3-0.5l0.1-0.1C20.9,7.4,21,7.6,21,7.8L20.9,7.8z M22.2,6.4c-0.1,0.2-0.3,0.4-0.4,0.6l-0.1-0.1
		c0.1-0.2,0.3-0.4,0.4-0.6L22.2,6.4z M23.8,7.5h-0.4v2.1c0,0.2,0,0.2-0.1,0.2c-0.1,0-0.3,0-0.6,0c0,0,0-0.1-0.1-0.2
		c0.3,0,0.5,0,0.5,0c0.1,0,0.1,0,0.1-0.1V7.5h-1V7.3h1V6.2h0.2v1.1h0.4V7.5z M22.7,8.8c0-0.2-0.2-0.6-0.4-0.9l0.2-0.1
		c0.2,0.3,0.3,0.7,0.4,0.9L22.7,8.8z"/>
	<path fill="#999999" d="M25.6,7.7C25.6,7.7,25.6,7.8,25.6,7.7c-0.1,1.4-0.1,1.8-0.2,2c-0.1,0.1-0.1,0.1-0.2,0.1c-0.1,0-0.2,0-0.3,0
		c0-0.1,0-0.1,0-0.2c0.1,0,0.3,0,0.3,0c0.1,0,0.1,0,0.1,0c0.1-0.1,0.1-0.5,0.2-1.7h-0.6c0,0.8-0.2,1.5-0.5,1.9c0,0-0.1-0.1-0.2-0.1
		c0.4-0.5,0.5-1.5,0.5-2.6h-0.5V6.9h1.6v0.2h-0.9c0,0.2,0,0.4,0,0.6H25.6z M25.1,6.8c-0.1-0.2-0.2-0.4-0.4-0.6l0.2-0.1
		c0.1,0.2,0.3,0.4,0.4,0.6L25.1,6.8z M26.9,6.2c0,0.1,0,0.1-0.1,0.2c0.2,0.5,0.6,1,1,1.2c-0.1,0-0.1,0.1-0.2,0.2
		c-0.4-0.2-0.7-0.7-1-1.1c-0.2,0.5-0.5,0.9-0.9,1.2c0-0.1-0.1-0.1-0.1-0.2c0.5-0.3,0.8-0.8,1-1.4L26.9,6.2z M26.2,8.9
		c0.4,0.2,0.8,0.4,1.1,0.6l-0.1,0.2C27,9.5,26.5,9.2,26.1,9L26.2,8.9z M26.5,7.7c0.2,0.2,0.5,0.4,0.7,0.5L27,8.4
		c-0.2-0.1-0.5-0.4-0.7-0.5L26.5,7.7z"/>
	<path fill="#999999" d="M31,9.5c0.5,0,0.5-0.2,0.6-0.8c0.1,0,0.1,0.1,0.2,0.1c-0.1,0.7-0.2,0.9-0.8,0.9h-1.6
		c-0.6,0-0.8-0.1-0.8-0.5V7.1h0.2v0.7h2.3V6.6h-2.7V6.5h2.9v1.8h-0.2V8h-2.3v1.2c0,0.3,0.1,0.3,0.5,0.3H31z"/>
	<path fill="#999999" d="M32.6,7.7v2.1h-0.2V6.4h1.4v1.3H32.6z M32.6,6.5v0.4h1V6.5H32.6z M33.6,7.5V7.1h-1v0.4H33.6z M34.5,8.8v0.9
		h-0.2V8.8h-0.7c0,0.3-0.1,0.7-0.6,1c0,0-0.1-0.1-0.1-0.1c0.4-0.2,0.5-0.6,0.5-0.9h-0.6V8.6h0.6V8.1H33V7.9h2v0.2h-0.5v0.5h0.6v0.2
		H34.5z M34.3,8.6V8.1h-0.7v0.5H34.3z M35.6,9.5c0,0.1,0,0.2-0.1,0.3c-0.1,0-0.3,0-0.6,0c0-0.1,0-0.1-0.1-0.2c0.2,0,0.5,0,0.5,0
		c0.1,0,0.1,0,0.1-0.1V7.7h-1.3V6.4h1.4V9.5z M34.4,6.5v0.4h1.1V6.5H34.4z M35.4,7.5V7.1h-1.1v0.4H35.4z"/>
	<path fill="#999999" d="M37.6,8.7C37.6,8.7,37.6,8.8,37.6,8.7c-0.1,0.7-0.1,0.9-0.2,1c-0.1,0.1-0.1,0.1-0.2,0.1c-0.1,0-0.3,0-0.5,0
		c0-0.1,0-0.1-0.1-0.2c0.2,0,0.5,0,0.5,0c0.1,0,0.1,0,0.1,0c0.1-0.1,0.1-0.2,0.2-0.7h-1c0-0.2,0.1-0.6,0.1-0.8h0.8V7.6h-0.7v0
		c-0.2,0.1-0.3,0.2-0.5,0.2c0,0-0.1-0.1-0.1-0.1c0.3-0.1,0.6-0.2,0.8-0.4c-0.1-0.1-0.3-0.3-0.5-0.4l0.1-0.1c0.2,0.1,0.4,0.3,0.5,0.4
		c0.2-0.2,0.3-0.3,0.5-0.5h-1V6.4h1.1l0,0l0.1,0.1c-0.2,0.4-0.5,0.7-0.9,1h0.7v0.8h-0.9c0,0.2,0,0.3-0.1,0.5H37.6z M39.7,6.7
		c-0.2,0.2-0.4,0.4-0.6,0.5c0.2,0.1,0.5,0.3,0.7,0.3c0,0-0.1,0.1-0.1,0.2c-0.2-0.1-0.4-0.2-0.6-0.3V8c0,0.1,0,0.1,0.1,0.1h0.4
		c0,0,0.1,0,0.2,0c0,0,0,0.1,0,0.1c0,0-0.1,0-0.2,0h-0.4c-0.2,0-0.2-0.1-0.2-0.3V7.6h-0.7v0.2c0,0.2-0.1,0.5-0.4,0.7
		c0,0-0.1-0.1-0.1-0.1c0.3-0.2,0.4-0.4,0.4-0.6V7.4H39v0h0.1c-0.5-0.3-0.8-0.7-1.1-1.1l0.2-0.1c0.1,0.2,0.2,0.4,0.4,0.5
		c0.2-0.1,0.4-0.4,0.6-0.5l0.1,0.1c-0.2,0.2-0.4,0.4-0.6,0.5c0.1,0.1,0.2,0.2,0.3,0.3c0.2-0.1,0.5-0.3,0.6-0.5L39.7,6.7z M39.4,8.6
		c-0.1,0.3-0.3,0.5-0.6,0.7c0.2,0.1,0.4,0.3,0.6,0.4l-0.1,0.1c-0.2-0.1-0.4-0.3-0.6-0.4c-0.3,0.2-0.6,0.3-0.9,0.4
		c0,0-0.1-0.1-0.1-0.1c0.3-0.1,0.6-0.2,0.9-0.4c-0.2-0.1-0.5-0.3-0.7-0.4L38,8.8c0.2,0.1,0.5,0.3,0.7,0.4c0.2-0.1,0.4-0.3,0.5-0.5
		h-1.3V8.5h1.4l0,0L39.4,8.6z"/>
	<path fill="#999999" d="M43.6,6.4v3.4h-0.2V9.6h-2.9v0.2h-0.2V6.4H43.6z M43.5,9.4V6.6h-2.9v2.9H43.5z M42,8.7
		c-0.4,0.1-0.9,0.2-1.2,0.3l0-0.2c0.3-0.1,0.8-0.2,1.2-0.2L42,8.7z M43,7.6c-0.1,0.4-0.3,0.7-0.5,1C42.6,8.9,42.8,9,43,9.1
		c0.1,0,0.1-0.2,0.1-0.4c0,0,0.1,0.1,0.1,0.1c0,0.4-0.1,0.6-0.3,0.5c-0.2,0-0.4-0.2-0.5-0.5C42.2,9,42,9.2,41.8,9.3
		c0,0-0.1-0.1-0.1-0.1C42,9,42.2,8.8,42.3,8.6c-0.1-0.3-0.2-0.8-0.2-1.3h-1.3V7.2h1.3c0-0.2,0-0.3,0-0.5h0.2c0,0.2,0,0.3,0,0.5h0.9
		v0.2h-0.9c0,0.4,0.1,0.8,0.2,1.1c0.2-0.2,0.3-0.5,0.4-0.9L43,7.6z M41.9,7.6v0.8H41V7.6H41.9z M41.7,7.8h-0.6v0.5h0.6V7.8z M43,7.1
		c-0.1-0.1-0.3-0.2-0.5-0.3l0.1-0.1c0.2,0.1,0.4,0.2,0.5,0.3L43,7.1z"/>
	<path fill="#999999" d="M47.4,7.7c-0.2,0.2-0.4,0.3-0.7,0.5c0.2,0.6,0.6,1.1,1.2,1.3c0,0-0.1,0.1-0.1,0.2c-0.5-0.2-1-0.7-1.2-1.3
		c-0.1,0.1-0.2,0.1-0.2,0.1c0.2,0.5,0.1,1.1-0.2,1.2c-0.1,0.1-0.2,0.1-0.4,0.1c-0.1,0-0.2,0-0.3,0c0-0.1,0-0.1-0.1-0.2
		c0.1,0,0.3,0,0.4,0c0.1,0,0.2,0,0.3-0.1c0.2-0.1,0.2-0.5,0.2-0.9c-0.4,0.4-1.2,0.7-1.8,0.9c0-0.1-0.1-0.1-0.1-0.2
		c0.6-0.2,1.4-0.5,1.8-0.9c0-0.1-0.1-0.2-0.1-0.4c-0.4,0.3-1,0.6-1.5,0.7c0,0-0.1-0.1-0.1-0.2c0.5-0.1,1.2-0.4,1.5-0.7
		c-0.1-0.1-0.1-0.2-0.2-0.3c-0.4,0.2-0.8,0.4-1.2,0.5c0,0-0.1-0.1-0.1-0.2c0.5-0.1,1.1-0.4,1.5-0.7h-1V7.2h2.3v0.2h-1.1
		c-0.1,0.1-0.2,0.2-0.3,0.2c0.2,0.2,0.4,0.4,0.4,0.7c0.3-0.2,0.7-0.5,1-0.7L47.4,7.7z M44.6,7.3h-0.2V6.6h1.5c0-0.1-0.1-0.2-0.2-0.3
		l0.2-0.1c0.1,0.1,0.2,0.3,0.2,0.4h1.5v0.8h-0.2V6.7h-2.9V7.3z"/>
	<path fill="#999999" d="M51.4,7.1c-0.5,0.7-1.4,1.6-2.2,2.1c0,0,0.1,0.1,0.2,0.1c0.3,0.2,0.6,0.2,1,0.2c0.5,0,1.1,0,1.5-0.1
		c0,0.1-0.1,0.2-0.1,0.2c-0.3,0-1,0-1.4,0c-0.5,0-0.8,0-1.1-0.2c-0.2-0.1-0.3-0.2-0.4-0.2c-0.1,0-0.3,0.2-0.5,0.5l-0.1-0.2
		C48.5,9.3,48.7,9,48.9,9c0,0,0,0,0.1,0c0.8-0.4,1.6-1.2,2.1-1.9h-2.6V7h2.8l0,0L51.4,7.1z M50.1,6.9c-0.1-0.2-0.3-0.5-0.4-0.7
		l0.2-0.1c0.2,0.2,0.3,0.5,0.4,0.7L50.1,6.9z"/>
	<path fill="#999999" d="M54.4,7.3C54.7,8,55.2,8.7,55.8,9c0,0-0.1,0.1-0.1,0.2c-0.6-0.4-1.2-1.1-1.5-1.9h-0.1v1.6h1V9h-1v0.8h-0.2
		V9h-1V8.8h1V7.3h-0.1c-0.3,0.8-0.9,1.5-1.5,1.9c0,0-0.1-0.1-0.1-0.2c0.6-0.3,1.1-1,1.4-1.7h-1.3V7.1h1.6V6.2h0.2v0.9h1.6v0.2H54.4z
		"/>
	<path fill="#999999" d="M59.8,9.5v0.2h-3.6V9.5h0.6V8.2h2.5v1.3H59.8z M59.7,7.2h-3.4V7h3.4V7.2z M57.5,7.5
		c-0.3,0.2-0.7,0.5-1.1,0.7c0,0-0.1-0.1-0.1-0.1c0.3-0.1,0.8-0.4,1.1-0.7L57.5,7.5z M56.9,9.5h0.6V8.4h-0.6V9.5z M57.4,7
		c-0.1-0.2-0.3-0.5-0.4-0.7l0.2-0.1c0.2,0.2,0.4,0.5,0.4,0.7L57.4,7z M57.7,8.4v1.1h0.6V8.4H57.7z M59.6,8.1
		c-0.3-0.2-0.8-0.4-1.2-0.6l0.1-0.1c0.4,0.1,0.9,0.4,1.2,0.5L59.6,8.1z M59.1,6.3C59,6.5,58.8,6.8,58.6,7l-0.2-0.1
		c0.1-0.2,0.3-0.5,0.4-0.7L59.1,6.3z M58.5,8.4v1.1h0.6V8.4H58.5z"/>
	<path fill="#999999" d="M61.9,9.1c0,0.1,0,0.1,0,0.2c-1.2,0.3-1.3,0.4-1.4,0.4c0,0-0.1-0.1-0.1-0.2c0.1,0,0.1-0.1,0.1-0.3v-3h0.2
		v1.3h1.1v0.2h-1.1v1.7L61.9,9.1z M63.4,9.5c0.2,0,0.2-0.1,0.3-0.7c0.1,0,0.1,0.1,0.2,0.1c0,0.6-0.1,0.8-0.4,0.8h-0.7
		c-0.3,0-0.4-0.1-0.4-0.4V6.2h0.2v1.3h1.1v0.2h-1.1v1.6c0,0.2,0,0.3,0.3,0.3H63.4z"/>
	<path fill="#999999" d="M65.6,8.1c-0.2,0.1-0.4,0.1-0.6,0.2v1.2c0,0.1,0,0.2-0.1,0.2c-0.1,0-0.2,0-0.5,0c0,0,0-0.1-0.1-0.2
		c0.2,0,0.4,0,0.4,0c0.1,0,0.1,0,0.1-0.1V8.4c-0.2,0.1-0.4,0.1-0.6,0.2l-0.1-0.2c0.2-0.1,0.4-0.1,0.7-0.2V7.2h-0.6V7h0.6V6.2H65V7
		h0.6v0.2H65v0.9C65.2,8,65.4,8,65.6,7.9L65.6,8.1z M67.8,7.7h-0.7v2.1h-0.2V7.7H66v0.1c0,0.7-0.1,1.4-0.5,2c0,0-0.1-0.1-0.2-0.1
		c0.4-0.5,0.5-1.2,0.5-1.8V6.5c0.6-0.1,1.3-0.2,1.7-0.3l0.1,0.2c-0.4,0.1-1.1,0.2-1.6,0.3v0.8h1.8V7.7z"/>
	<path fill="#999999" d="M69.2,6.3c-0.1,0.3-0.2,0.5-0.3,0.8v2.8h-0.2V7.4c-0.1,0.2-0.3,0.5-0.5,0.7c0,0-0.1-0.1-0.1-0.2
		c0.4-0.4,0.7-1,0.9-1.7L69.2,6.3z M70.2,9.4c-0.2,0.2-0.6,0.3-1,0.4c0,0-0.1-0.1-0.1-0.1c0.3-0.1,0.7-0.2,0.9-0.4L70.2,9.4z
		 M70,6.6h-0.8V6.4h2.6v0.2h-0.9v0.3h0.7v0.7h-2.3V6.8H70V6.6z M69.4,9.2V7.8h2.2v1.4H69.4z M69.5,7.4H70V7h-0.5V7.4z M69.6,8.2h1.8
		V8h-1.8V8.2z M69.6,8.7h1.8V8.4h-1.8V8.7z M69.6,9.1h1.8V8.8h-1.8V9.1z M70.7,6.6h-0.5v0.3h0.5V6.6z M70.2,7.4h0.5V7h-0.5V7.4z
		 M70.9,9.3c0.3,0.1,0.7,0.3,1,0.4l-0.2,0.1c-0.2-0.1-0.6-0.3-0.9-0.4L70.9,9.3z M70.9,7v0.4h0.5V7H70.9z"/>
	<path fill="#999999" d="M74.1,9.1c-0.6,0.1-1.3,0.3-1.7,0.4l0-0.2c0.4-0.1,1.1-0.2,1.8-0.4L74.1,9.1z M75.5,7.4
		c-0.2,0.5-0.4,1-0.7,1.4c0.2,0.5,0.4,0.8,0.6,0.8c0.1,0,0.2-0.2,0.2-0.8c0,0,0.1,0.1,0.2,0.1c0,0.7-0.1,0.9-0.4,0.9
		c-0.3,0-0.6-0.3-0.8-0.8c-0.3,0.3-0.6,0.6-1,0.8c0,0-0.1-0.1-0.1-0.2c0.4-0.2,0.8-0.5,1.1-0.8c-0.1-0.5-0.2-1.1-0.3-1.8h-2V6.9h2
		c0-0.2,0-0.4,0-0.7h0.2c0,0.2,0,0.5,0,0.7h1.2V7h-1.2c0,0.6,0.1,1.1,0.2,1.6c0.3-0.3,0.5-0.8,0.6-1.2L75.5,7.4z M73.9,7.5v1.2h-1.3
		V7.5H73.9z M73.7,7.6h-0.9v0.8h0.9V7.6z M75.5,6.8c-0.2-0.1-0.5-0.3-0.7-0.5l0.1-0.1c0.3,0.1,0.6,0.3,0.7,0.4L75.5,6.8z"/>
	<path fill="#999999" d="M76.3,7.3c0.2,0.1,0.5,0.4,0.6,0.5L76.8,8c-0.1-0.1-0.4-0.4-0.6-0.5L76.3,7.3z M76.3,9.6
		c0.1-0.3,0.3-0.9,0.5-1.3l0.1,0.1c-0.1,0.4-0.3,0.9-0.5,1.3L76.3,9.6z M76.5,6.3c0.2,0.2,0.5,0.4,0.6,0.5L77,6.9
		c-0.1-0.2-0.4-0.4-0.6-0.6L76.5,6.3z M79.8,9.5v0.2H77V9.5h0.4V8.3h2.1v1.2H79.8z M78.1,7.5c-0.2,0.3-0.6,0.6-0.9,0.7
		c0,0-0.1-0.1-0.1-0.1C77.4,8,77.8,7.7,78,7.4L78.1,7.5z M79.7,7.3h-2.6V7.1h2.6V7.3z M77.9,7c-0.1-0.2-0.2-0.5-0.4-0.7l0.2-0.1
		c0.1,0.2,0.3,0.5,0.4,0.7L77.9,7z M77.6,9.5H78v-1h-0.5V9.5z M78.2,8.5v1h0.5v-1H78.2z M79.6,8.2C79.4,8,79,7.8,78.7,7.6l0.1-0.1
		c0.3,0.2,0.7,0.5,0.9,0.6L79.6,8.2z M79.3,6.3C79.2,6.5,79,6.8,78.9,7l-0.2-0.1c0.1-0.2,0.3-0.5,0.4-0.7L79.3,6.3z M78.8,8.5v1h0.5
		v-1H78.8z"/>
	<path fill="#999999" d="M81.2,6.3c-0.1,0.3-0.2,0.5-0.3,0.8v2.8h-0.2V7.4c-0.1,0.2-0.3,0.5-0.5,0.7c0,0-0.1-0.1-0.1-0.2
		c0.4-0.4,0.7-1,0.9-1.7L81.2,6.3z M82.2,9.4c-0.2,0.2-0.6,0.3-1,0.4c0,0-0.1-0.1-0.1-0.1c0.3-0.1,0.7-0.2,0.9-0.4L82.2,9.4z
		 M82,6.6h-0.8V6.4h2.6v0.2h-0.9v0.3h0.7v0.7h-2.3V6.8H82V6.6z M81.4,9.2V7.8h2.2v1.4H81.4z M81.5,7.4H82V7h-0.5V7.4z M81.6,8.2h1.8
		V8h-1.8V8.2z M81.6,8.7h1.8V8.4h-1.8V8.7z M81.6,9.1h1.8V8.8h-1.8V9.1z M82.7,6.6h-0.5v0.3h0.5V6.6z M82.2,7.4h0.5V7h-0.5V7.4z
		 M82.9,9.3c0.3,0.1,0.7,0.3,1,0.4l-0.2,0.1c-0.2-0.1-0.6-0.3-0.9-0.4L82.9,9.3z M82.9,7v0.4h0.5V7H82.9z"/>
	<path fill="#999999" d="M87.4,7.1c-0.5,0.7-1.4,1.6-2.2,2.1c0,0,0.1,0.1,0.2,0.1c0.3,0.2,0.6,0.2,1,0.2c0.5,0,1.1,0,1.5-0.1
		c0,0.1-0.1,0.2-0.1,0.2c-0.3,0-1,0-1.4,0c-0.5,0-0.8,0-1.1-0.2c-0.2-0.1-0.3-0.2-0.4-0.2c-0.1,0-0.3,0.2-0.5,0.5l-0.1-0.2
		C84.5,9.3,84.7,9,84.9,9c0,0,0,0,0.1,0c0.8-0.4,1.6-1.2,2.1-1.9h-2.6V7h2.8l0,0L87.4,7.1z M86.1,6.9c-0.1-0.2-0.3-0.5-0.4-0.7
		l0.2-0.1c0.2,0.2,0.3,0.5,0.4,0.7L86.1,6.9z"/>
	<path fill="#999999" d="M89.4,8.5c-0.1-0.1-0.2-0.4-0.3-0.6v1.9h-0.2v-2c-0.2,0.5-0.4,0.9-0.6,1.2c0-0.1-0.1-0.1-0.1-0.2
		c0.2-0.3,0.5-0.9,0.7-1.4h-0.6V7.3h0.7V6.6c-0.2,0-0.4,0.1-0.5,0.1c0,0,0-0.1-0.1-0.2c0.4-0.1,0.9-0.2,1.1-0.3l0.1,0.2
		c-0.1,0.1-0.3,0.1-0.4,0.2v0.8h0.5v0.2h-0.5v0.1c0.1,0.1,0.4,0.5,0.5,0.6L89.4,8.5z M91.8,9.5v0.2h-2.3V9.5h1.1V8.9h-0.8V8.7h0.8
		V8.1c-0.2,0-0.5,0.1-0.7,0.1c0,0,0-0.1-0.1-0.2c0.5,0,1.2-0.1,1.6-0.2L91.5,8c-0.2,0.1-0.5,0.1-0.8,0.2v0.6h0.9v0.2h-0.9v0.6H91.8z
		 M91.6,7.6h-1.8V6.4h1.8V7.6z M91.4,6.6H90v0.9h1.4V6.6z"/>
	<path fill="#999999" d="M92.7,7.7c0,0.6,0,1.5-0.4,2.1c0,0-0.1-0.1-0.2-0.1c0.3-0.6,0.4-1.4,0.4-2V6.6h1.6
		c-0.1-0.1-0.1-0.3-0.2-0.4l0.2-0.1c0.1,0.1,0.2,0.3,0.2,0.4h1.4v0.2h-3V7.7z M95.4,8.5c-0.2,0.3-0.5,0.6-0.9,0.8
		c0.4,0.2,0.8,0.3,1.3,0.3c0,0-0.1,0.1-0.1,0.2c-0.5-0.1-1-0.2-1.4-0.4c-0.4,0.2-1,0.3-1.5,0.4c0,0-0.1-0.1-0.1-0.2
		c0.5,0,0.9-0.1,1.4-0.3c-0.3-0.2-0.6-0.4-0.7-0.6l0.1-0.1h-0.6V8.5h2.3l0,0L95.4,8.5z M93.5,8.2V7.5h-0.7V7.3h0.7V6.9h0.2v0.4h1.1
		V6.9H95v0.4h0.7v0.2H95v0.7H93.5z M93.5,8.6c0.2,0.2,0.4,0.5,0.8,0.6c0.3-0.2,0.6-0.3,0.8-0.6H93.5z M93.7,7.5V8h1.1V7.5H93.7z"/>
	<path fill="#999999" d="M97,7.4c0.3,0,0.6,0.3,0.6,0.6c0,0.3-0.3,0.6-0.6,0.6c-0.3,0-0.6-0.3-0.6-0.6C96.4,7.7,96.7,7.4,97,7.4z
		 M97,8.4c0.2,0,0.4-0.2,0.4-0.4c0-0.2-0.2-0.4-0.4-0.4c-0.2,0-0.4,0.2-0.4,0.4C96.6,8.2,96.8,8.4,97,8.4z"/>
	<path fill="#999999" d="M101.7,6.6v0.2h-3.5V6.6h1.7c0-0.1-0.1-0.3-0.1-0.4l0.2,0c0.1,0.1,0.1,0.3,0.2,0.4H101.7z M101.6,9.6
		c0,0.1,0,0.2-0.1,0.2c-0.1,0-0.2,0-0.5,0c0,0,0-0.1-0.1-0.2c0.2,0,0.3,0,0.4,0c0,0,0.1,0,0.1-0.1V8.3h-2.8v1.5h-0.2V8.1h3.2V9.6z
		 M101.1,7.1v0.8h-2.2V7.1H101.1z M100.9,7.2h-1.8v0.4h1.8V7.2z M100.8,9.3h-1.5v0.2h-0.2v-1h1.7V9.3z M99.3,8.7v0.5h1.3V8.7H99.3z"
		/>
	<path fill="#999999" d="M103.6,7.7C103.6,7.7,103.6,7.8,103.6,7.7c-0.1,1.4-0.1,1.8-0.2,2c-0.1,0.1-0.1,0.1-0.2,0.1
		c-0.1,0-0.2,0-0.3,0c0-0.1,0-0.1,0-0.2c0.1,0,0.3,0,0.3,0c0.1,0,0.1,0,0.1,0c0.1-0.1,0.1-0.5,0.2-1.7h-0.6c0,0.8-0.2,1.5-0.5,1.9
		c0,0-0.1-0.1-0.2-0.1c0.4-0.5,0.5-1.5,0.5-2.6h-0.5V6.9h1.6v0.2h-0.9c0,0.2,0,0.4,0,0.6H103.6z M103.1,6.8
		c-0.1-0.2-0.2-0.4-0.4-0.6l0.2-0.1c0.1,0.2,0.3,0.4,0.4,0.6L103.1,6.8z M104.9,6.2c0,0.1,0,0.1-0.1,0.2c0.2,0.5,0.6,1,1,1.2
		c-0.1,0-0.1,0.1-0.2,0.2c-0.4-0.2-0.7-0.7-1-1.1c-0.2,0.5-0.5,0.9-0.9,1.2c0-0.1-0.1-0.1-0.1-0.2c0.5-0.3,0.8-0.8,1-1.4L104.9,6.2z
		 M104.2,8.9c0.4,0.2,0.8,0.4,1.1,0.6l-0.1,0.2c-0.2-0.2-0.7-0.5-1.1-0.7L104.2,8.9z M104.5,7.7c0.2,0.2,0.5,0.4,0.7,0.5L105,8.4
		c-0.2-0.1-0.5-0.4-0.7-0.5L104.5,7.7z"/>
	<path fill="#999999" d="M106.4,9.3h0.7V6.9h-0.5V6.8c0.2,0,0.4-0.1,0.6-0.2h0.2v2.7h0.6v0.2h-1.5V9.3z"/>
	<path fill="#999999" d="M108.4,8.1c0-1,0.3-1.5,0.9-1.5c0.5,0,0.9,0.5,0.9,1.5c0,1-0.3,1.5-0.9,1.5C108.7,9.6,108.4,9.1,108.4,8.1z
		 M109.8,8.1c0-0.9-0.2-1.3-0.6-1.3c-0.4,0-0.6,0.4-0.6,1.3c0,0.9,0.2,1.3,0.6,1.3C109.6,9.4,109.8,8.9,109.8,8.1z"/>
	<path fill="#999999" d="M110.5,8.1c0-1,0.3-1.5,0.9-1.5c0.5,0,0.9,0.5,0.9,1.5c0,1-0.3,1.5-0.9,1.5C110.8,9.6,110.5,9.1,110.5,8.1z
		 M112,8.1c0-0.9-0.2-1.3-0.6-1.3c-0.4,0-0.6,0.4-0.6,1.3c0,0.9,0.2,1.3,0.6,1.3C111.7,9.4,112,8.9,112,8.1z"/>
	<path fill="#999999" d="M112.6,7.5c0-0.6,0.2-0.9,0.6-0.9c0.4,0,0.6,0.3,0.6,0.9c0,0.6-0.2,0.9-0.6,0.9
		C112.8,8.4,112.6,8.1,112.6,7.5z M113.7,7.5c0-0.5-0.2-0.7-0.4-0.7s-0.4,0.3-0.4,0.7c0,0.5,0.2,0.8,0.4,0.8S113.7,7.9,113.7,7.5z
		 M114.9,6.6h0.2l-1.6,3h-0.2L114.9,6.6z M114.6,8.7c0-0.6,0.2-0.9,0.6-0.9c0.4,0,0.6,0.3,0.6,0.9c0,0.6-0.2,0.9-0.6,0.9
		C114.8,9.6,114.6,9.2,114.6,8.7z M115.6,8.7c0-0.5-0.2-0.8-0.4-0.8c-0.3,0-0.4,0.3-0.4,0.8c0,0.5,0.2,0.8,0.4,0.8
		C115.5,9.4,115.6,9.1,115.6,8.7z"/>
	<path fill="#999999" d="M117.5,6.3c-0.1,0.3-0.3,0.6-0.5,0.8v2.7h-0.2V7.4c-0.2,0.3-0.4,0.5-0.6,0.7c0,0-0.1-0.1-0.1-0.2
		c0.5-0.4,0.9-1,1.2-1.7L117.5,6.3z M118.5,7.6c0.2,1.2,0.4,2,0.9,2c0.1,0,0.2-0.2,0.2-0.7c0,0,0.1,0.1,0.2,0.1
		c-0.1,0.6-0.2,0.9-0.4,0.9c-0.7,0-1-0.9-1.1-2.2l-1.1,0.1l0-0.2l1.1-0.1c0-0.4-0.1-0.8-0.1-1.2h0.2c0,0.4,0,0.8,0.1,1.2l1.2-0.1
		l0,0.2L118.5,7.6z M119.6,7.1c-0.1-0.2-0.4-0.5-0.7-0.7l0.1-0.1c0.3,0.2,0.6,0.5,0.7,0.6L119.6,7.1z"/>
	<path fill="#999999" d="M123.6,8.3c-0.2,0.2-0.5,0.4-0.8,0.6c0.3,0.3,0.6,0.5,1.1,0.6c0,0-0.1,0.1-0.1,0.2
		c-0.8-0.3-1.4-0.9-1.7-1.7h0c-0.2,0.2-0.4,0.4-0.7,0.6v1l1-0.3c0,0.1,0,0.1,0,0.2c-1.1,0.4-1.2,0.4-1.3,0.5c0-0.1-0.1-0.1-0.1-0.2
		c0,0,0.1-0.1,0.1-0.2V8.6c-0.3,0.2-0.5,0.3-0.8,0.4c0,0-0.1-0.1-0.1-0.2c0.5-0.2,1.1-0.5,1.5-0.9h-1.4V7.8h1.6V7.3h-1.3V7.2h1.3
		V6.8h-1.5V6.6h1.5V6.2h0.2v0.4h1.5v0.2h-1.5v0.4h1.3v0.2h-1.3v0.4h1.6v0.2h-1.5c0.1,0.3,0.3,0.6,0.5,0.8c0.3-0.2,0.6-0.4,0.7-0.6
		L123.6,8.3z"/>
	<path fill="#999999" d="M125.3,8.4v1.4h-0.2V8.4h-0.8V8.2h0.8V7.7h-0.8V7.5h1.1c0.1-0.2,0.2-0.5,0.2-0.7l0.2,0
		c-0.1,0.2-0.2,0.5-0.2,0.7h0.6v0.2h-0.8v0.5h0.8v0.2H125.3z M124.8,8.7c-0.1,0.3-0.3,0.6-0.4,0.8c0,0-0.1-0.1-0.1-0.1
		c0.2-0.2,0.3-0.5,0.4-0.7L124.8,8.7z M126,6.8h-1.7V6.6h0.9c-0.1-0.1-0.1-0.3-0.2-0.4l0.2-0.1c0.1,0.1,0.2,0.3,0.2,0.4h0.7V6.8z
		 M124.7,7.5c0-0.2-0.1-0.4-0.2-0.6l0.2,0c0.1,0.2,0.2,0.4,0.2,0.6L124.7,7.5z M125.6,8.6c0.1,0.2,0.3,0.5,0.3,0.7l-0.1,0.1
		c-0.1-0.2-0.2-0.5-0.3-0.7L125.6,8.6z M127.8,7.7h-0.5v2.1h-0.2V7.7h-0.7v0.2c0,0.6-0.1,1.3-0.4,1.9c0,0-0.1-0.1-0.1-0.1
		c0.4-0.5,0.4-1.2,0.4-1.7V6.6c0.5-0.1,1-0.2,1.3-0.3l0.2,0.1c-0.3,0.1-0.8,0.2-1.3,0.3v0.8h1.3V7.7z"/>
	<path fill="#999999" d="M3.8,14.7v0.2H0.2v-0.2h0.3l-0.1-2.2c0.2-0.1,0.5-0.2,0.7-0.2l0.1,0.2c-0.2,0.1-0.4,0.1-0.6,0.2l0,0.5h0.5
		v0.2H0.7l0,0.6h0.5v0.2H0.7l0,0.6h0.6v-2.3h1.3v2.3h0.6c0-0.2,0-0.4,0-0.6H2.8v-0.2h0.5c0-0.2,0-0.4,0-0.6H2.8v-0.2h0.5
		c0-0.2,0-0.4,0-0.6H2.8v-0.2h0.7c0,0.7,0,1.7-0.1,2.3H3.8z M1.6,15.1c-0.3,0.3-0.8,0.5-1.2,0.7c0,0-0.1-0.1-0.1-0.1
		c0.4-0.2,0.9-0.4,1.1-0.7L1.6,15.1z M1.5,14.7h1v-2.1h-1V14.7z M2.4,12.9V13H1.6v-0.2H2.4z M1.7,13.4h0.6v0.9H1.7V13.4z M1.8,14.1
		h0.4v-0.6H1.8V14.1z M2.5,15c0.4,0.2,0.9,0.5,1.2,0.7l-0.1,0.1c-0.3-0.2-0.7-0.5-1.2-0.7L2.5,15z"/>
	<path fill="#999999" d="M6.1,13v0.6h1.3V15c0,0.1,0,0.2-0.1,0.2c-0.1,0-0.3,0-0.7,0c0-0.1,0-0.1-0.1-0.2c0.3,0,0.6,0,0.6,0
		c0.1,0,0.1,0,0.1-0.1v-1.3H6.1v2H5.9v-2H4.8v1.5H4.6v-1.7h1.2V13H4.2v-0.2H6c-0.1-0.2-0.2-0.4-0.3-0.6l0.2-0.1
		c0.1,0.2,0.3,0.4,0.3,0.6l-0.1,0h1.7V13H6.1z"/>
	<path fill="#999999" d="M9.4,14.5C9,14.7,8.6,14.9,8.2,15l-0.1-0.2c0.2-0.1,0.4-0.2,0.6-0.3v-1.3H8.2v-0.2h0.5v-0.9h0.2v0.9h0.5
		v0.2H8.9v1.3l0.5-0.2L9.4,14.5z M10.1,14c-0.1,0.1-0.1,0.2-0.2,0.3h1.8c0,0,0,0.1,0,0.1c-0.1,0.9-0.1,1.2-0.2,1.3
		c-0.1,0.1-0.1,0.1-0.2,0.1c-0.1,0-0.2,0-0.4,0c0,0,0-0.1,0-0.2c0.2,0,0.3,0,0.4,0c0.1,0,0.1,0,0.1,0c0.1-0.1,0.1-0.4,0.2-1.1h-0.4
		c-0.2,0.5-0.5,1-0.8,1.3c0,0-0.1-0.1-0.1-0.1c0.3-0.2,0.6-0.7,0.8-1.2h-0.5c-0.2,0.4-0.6,0.9-1,1.1c0,0-0.1-0.1-0.1-0.1
		c0.4-0.2,0.7-0.6,1-1H9.8c-0.2,0.2-0.4,0.4-0.6,0.5c0,0-0.1-0.1-0.1-0.1c0.3-0.2,0.6-0.5,0.8-0.9H9.3v-0.2h2.5V14H10.1z M11.5,13.6
		H9.7v-1.3h1.8V13.6z M11.3,12.5H9.9v0.4h1.4V12.5z M11.3,13H9.9v0.4h1.4V13z"/>
	<path fill="#999999" d="M13.4,14.2c-0.2,0.1-0.3,0.1-0.5,0.1v1.2c0,0.1,0,0.2-0.1,0.2c-0.1,0-0.2,0-0.5,0c0,0,0-0.1-0.1-0.2
		c0.2,0,0.4,0,0.4,0c0.1,0,0.1,0,0.1-0.1v-1.2c-0.2,0.1-0.4,0.1-0.6,0.2l-0.1-0.2c0.2,0,0.4-0.1,0.6-0.2v-1h-0.6V13h0.6v-0.8H13V13
		h0.5v0.2H13v0.9l0.4-0.1L13.4,14.2z M15.5,14c-0.2,0.5-0.5,0.8-0.8,1.1c0.3,0.2,0.7,0.4,1.1,0.5c0,0-0.1,0.1-0.1,0.2
		c-0.4-0.1-0.8-0.3-1.2-0.5c-0.4,0.3-0.8,0.4-1.2,0.5c0-0.1-0.1-0.1-0.1-0.2c0.4-0.1,0.8-0.3,1.2-0.5c-0.3-0.3-0.6-0.6-0.7-1h-0.1
		V14h1.8l0,0L15.5,14z M14.1,12.8c0,0.3-0.1,0.8-0.6,1.1c0,0-0.1-0.1-0.1-0.1c0.4-0.3,0.5-0.6,0.5-0.9v-0.4h1.2v1
		c0,0.1,0,0.1,0.1,0.1h0.4c0,0,0.1,0,0.2,0c0,0,0,0.1,0,0.2c0,0-0.1,0-0.2,0h-0.4c-0.2,0-0.3-0.1-0.3-0.3v-0.8h-0.8V12.8z
		 M13.8,14.2c0.2,0.3,0.4,0.6,0.7,0.9c0.3-0.2,0.6-0.5,0.7-0.9H13.8z"/>
	<path fill="#999999" d="M17.3,13.2h-1.1v-0.2h1.1V13.2z M17.6,15.3c-0.3,0.2-0.8,0.4-1.2,0.5c0,0-0.1-0.1-0.1-0.2
		c0.4-0.1,0.9-0.2,1.2-0.4L17.6,15.3z M17.2,12.6h-0.9v-0.2h0.9V12.6z M16.7,13.6h2.5v1.6h-2.5V13.6z M16.9,14.1h2.2v-0.3h-2.2V14.1
		z M16.9,14.6h2.2v-0.3h-2.2V14.6z M16.9,15h2.2v-0.3h-2.2V15z M18,12.6c-0.1,0.2-0.2,0.3-0.3,0.4c0,0-0.1-0.1-0.2-0.1
		c0.2-0.2,0.4-0.5,0.5-0.8l0.2,0c0,0.1-0.1,0.2-0.1,0.3h1.5l0,0l0.1,0c-0.1,0.2-0.2,0.4-0.3,0.5L19.2,13c0.1-0.1,0.2-0.2,0.2-0.4
		h-0.8v0c0,0.1,0,0.1,0,0.2c0.2,0.3,0.7,0.4,1.2,0.5c0,0-0.1,0.1-0.1,0.2c-0.5-0.1-0.9-0.3-1.1-0.5c-0.1,0.2-0.4,0.4-1.2,0.5
		c0,0-0.1-0.1-0.1-0.2c1.1-0.2,1.2-0.5,1.2-0.7v0H18z M18.6,15.3c0.4,0.1,0.9,0.3,1.2,0.4l-0.2,0.1c-0.3-0.1-0.7-0.3-1.2-0.4
		L18.6,15.3z"/>
	<path fill="#999999" d="M20.2,12.9h1.4V13h-1.4V12.9z M21.5,15.6h-0.9v0.2h-0.2v-1.3h1.1V15.6z M21.5,13.4v0.2h-1.1v-0.2H21.5z
		 M20.4,13.9h1.1v0.2h-1.1V13.9z M20.5,14.6v0.8h0.8v-0.8H20.5z M20.9,12.8c-0.1-0.1-0.2-0.4-0.3-0.5l0.1-0.1
		c0.1,0.2,0.2,0.4,0.3,0.5L20.9,12.8z M23.8,14.3h-1v1.5h-0.2v-1.5h-1v-0.2h1v-1.5h-0.9v-0.2h1.9v0.2h-0.9v1.5h1V14.3z M22.1,12.9
		c0.1,0.3,0.2,0.7,0.2,1l-0.2,0.1c0-0.3-0.1-0.7-0.2-1L22.1,12.9z M23.2,13.9c0.1-0.3,0.2-0.7,0.3-1l0.2,0.1c-0.1,0.3-0.2,0.8-0.3,1
		L23.2,13.9z"/>
	<path fill="#999999" d="M25.2,12.3c-0.1,0.3-0.2,0.5-0.3,0.8v2.8h-0.2v-2.4c-0.1,0.2-0.3,0.5-0.5,0.7c0,0-0.1-0.1-0.1-0.2
		c0.4-0.4,0.7-1,0.9-1.7L25.2,12.3z M26.2,15.4c-0.2,0.2-0.6,0.3-1,0.4c0,0-0.1-0.1-0.1-0.1c0.3-0.1,0.7-0.2,0.9-0.4L26.2,15.4z
		 M26,12.6h-0.8v-0.2h2.6v0.2h-0.9v0.3h0.7v0.7h-2.3v-0.7H26V12.6z M25.4,15.2v-1.4h2.2v1.4H25.4z M25.5,13.4H26V13h-0.5V13.4z
		 M25.6,14.2h1.8V14h-1.8V14.2z M25.6,14.7h1.8v-0.3h-1.8V14.7z M25.6,15.1h1.8v-0.3h-1.8V15.1z M26.7,12.6h-0.5v0.3h0.5V12.6z
		 M26.2,13.4h0.5V13h-0.5V13.4z M26.9,15.3c0.3,0.1,0.7,0.3,1,0.4l-0.2,0.1c-0.2-0.1-0.6-0.3-0.9-0.4L26.9,15.3z M26.9,13v0.4h0.5
		V13H26.9z"/>
	<path fill="#999999" d="M29.1,15.1v0.7h-0.2v-0.7h-0.7v-0.2h0.7v-0.4h-0.6v-1.4h0.6v-0.4h-0.7v-0.2h0.7v-0.5h0.2v0.5h0.7v0.2h-0.7
		v0.4h0.6v1.4h-0.6v0.4h0.7v0.2H29.1z M28.5,13.8h0.4v-0.5h-0.4V13.8z M28.5,14.4h0.4v-0.5h-0.4V14.4z M29.5,13.3h-0.4v0.5h0.4V13.3
		z M29.5,13.9h-0.4v0.5h0.4V13.9z M31.3,13.9c-0.1,0.4-0.2,0.7-0.4,1c0.3,0.4,0.6,0.6,1,0.8c0,0-0.1,0.1-0.1,0.2
		c-0.4-0.2-0.7-0.5-1-0.8c-0.3,0.3-0.6,0.6-1,0.8c0,0-0.1-0.1-0.1-0.1c0.4-0.2,0.8-0.5,1-0.8c-0.2-0.3-0.3-0.6-0.5-1l0.2,0
		c0.1,0.3,0.2,0.6,0.4,0.8c0.2-0.3,0.3-0.5,0.4-0.9L31.3,13.9z M30.5,13.2c-0.2,0.3-0.4,0.7-0.6,0.9c0,0-0.1-0.1-0.2-0.1
		c0.2-0.2,0.4-0.5,0.6-0.8L30.5,13.2z M31.8,13h-1.9v-0.2h1.9V13z M30.8,12.7c-0.1-0.1-0.2-0.3-0.3-0.5l0.2-0.1
		c0.1,0.1,0.2,0.3,0.3,0.5L30.8,12.7z M31.2,13.1c0.2,0.3,0.5,0.6,0.6,0.8L31.7,14c-0.1-0.2-0.4-0.6-0.6-0.8L31.2,13.1z"/>
	<path fill="#999999" d="M33.9,15c0,0.1,0,0.1,0,0.2c-1.2,0.2-1.3,0.3-1.4,0.3c0,0,0-0.1-0.1-0.2c0.1,0,0.2-0.1,0.2-0.2v-0.9
		c0.4-0.1,0.9-0.2,1.2-0.3l0.1,0.1c-0.3,0.1-0.7,0.2-1.1,0.3v0.9L33.9,15z M35.4,13.7h-2.7v-1.4h2.7V13.7z M35.2,12.5h-2.3v0.4h2.3
		V12.5z M35.2,13.1h-2.3v0.4h2.3V13.1z M35.5,15.2c0,0.1,0,0.2-0.1,0.2c-0.1,0-0.3,0-0.6,0c0-0.1,0-0.1-0.1-0.2c0.3,0,0.5,0,0.5,0
		c0.1,0,0.1,0,0.1-0.1v-1h-1.1v1.6h-0.2V14h1.5V15.2z"/>
	<path fill="#999999" d="M39.8,13.3v0.2h-3.5v-0.2h1.7v-0.3h-1.1v-0.7h1.1v-0.2h0.2v0.2h1.2v0.7h-1.2v0.3H39.8z M37.6,15.4
		c-0.3,0.2-0.8,0.3-1.2,0.4c0,0-0.1-0.1-0.1-0.2c0.4-0.1,0.9-0.2,1.2-0.4L37.6,15.4z M39.3,15.2h-2.5v-1.5h2.5V15.2z M39.1,13.9
		h-2.2v0.3h2.2V13.9z M39.1,14.3h-2.2v0.3h2.2V14.3z M39.1,14.8h-2.2v0.3h2.2V14.8z M37.9,12.9v-0.4H37v0.4H37.9z M38.1,12.6v0.4h1
		v-0.4H38.1z M38.5,15.3c0.5,0.1,0.9,0.3,1.2,0.4l-0.2,0.1c-0.3-0.1-0.7-0.3-1.2-0.4L38.5,15.3z"/>
	<path fill="#999999" d="M40.6,14.6c0.3-0.1,0.5-0.3,0.5-0.7c0,0-0.1,0-0.1,0c-0.1,0-0.2-0.1-0.2-0.2c0-0.2,0.1-0.2,0.2-0.2
		c0.2,0,0.3,0.2,0.3,0.4c0,0.4-0.3,0.7-0.6,0.9L40.6,14.6z"/>
	<path fill="#999999" d="M45.3,13.5c-0.2,0.6-0.5,1.1-1,1.5c0.4,0.3,0.8,0.5,1.4,0.6c-0.1,0-0.1,0.1-0.1,0.2c-0.5-0.1-1-0.4-1.4-0.7
		c-0.4,0.3-0.8,0.5-1.3,0.6c0,0-0.1-0.1-0.1-0.2c0.4-0.1,0.9-0.3,1.3-0.6c-0.4-0.4-0.7-0.8-0.9-1.4h-0.3c0,0.7-0.1,1.5-0.5,2.2
		c0,0-0.1-0.1-0.2-0.1c0.4-0.6,0.5-1.5,0.5-2.2v-1.1h2.9v0.2h-2.7v0.8h2.3l0,0L45.3,13.5z M43.4,13.6c0.2,0.5,0.4,0.9,0.8,1.3
		c0.4-0.3,0.7-0.7,0.9-1.3H43.4z"/>
	<path fill="#999999" d="M49.4,13.1c-0.5,0.7-1.4,1.6-2.2,2.1c0,0,0.1,0.1,0.2,0.1c0.3,0.2,0.6,0.2,1,0.2c0.5,0,1.1,0,1.5-0.1
		c0,0.1-0.1,0.2-0.1,0.2c-0.3,0-1,0-1.4,0c-0.5,0-0.8,0-1.1-0.2c-0.2-0.1-0.3-0.2-0.4-0.2c-0.1,0-0.3,0.2-0.5,0.5l-0.1-0.2
		c0.3-0.3,0.5-0.5,0.7-0.5c0,0,0,0,0.1,0c0.8-0.4,1.6-1.2,2.1-1.9h-2.6V13h2.8l0,0L49.4,13.1z M48.1,12.9c-0.1-0.2-0.3-0.5-0.4-0.7
		l0.2-0.1c0.2,0.2,0.3,0.5,0.4,0.7L48.1,12.9z"/>
	<path fill="#999999" d="M50.9,15c-0.1,0.3-0.4,0.6-0.6,0.8c0,0-0.1-0.1-0.2-0.1c0.2-0.2,0.4-0.4,0.5-0.7L50.9,15z M51.9,12.3v2.5
		h-1.5v-2.5H51.9z M50.6,13.1h1.1v-0.6h-1.1V13.1z M50.6,13.9h1.1v-0.6h-1.1V13.9z M50.6,14.6h1.1V14h-1.1V14.6z M51.6,15
		c0.2,0.2,0.4,0.5,0.5,0.7l-0.2,0.1c-0.1-0.2-0.3-0.5-0.5-0.7L51.6,15z M52.6,12.7v2.2h-0.2v-2.2H52.6z M53.6,12.3v3.3
		c0,0.2-0.1,0.2-0.2,0.3c-0.1,0-0.3,0-0.7,0c0,0,0-0.1-0.1-0.2c0.3,0,0.5,0,0.6,0c0.1,0,0.1,0,0.1-0.1v-3.3H53.6z"/>
	<path fill="#999999" d="M55.5,12.3c-0.1,0.3-0.3,0.6-0.5,0.8v2.7h-0.2v-2.4c-0.2,0.3-0.4,0.5-0.6,0.7c0,0-0.1-0.1-0.1-0.2
		c0.5-0.4,0.9-1,1.2-1.7L55.5,12.3z M56.5,13.6c0.2,1.2,0.4,2,0.9,2c0.1,0,0.2-0.2,0.2-0.7c0,0,0.1,0.1,0.2,0.1
		c-0.1,0.6-0.2,0.9-0.4,0.9c-0.7,0-1-0.9-1.1-2.2l-1.1,0.1l0-0.2l1.1-0.1c0-0.4-0.1-0.8-0.1-1.2h0.2c0,0.4,0,0.8,0.1,1.2l1.2-0.1
		l0,0.2L56.5,13.6z M57.6,13.1c-0.1-0.2-0.4-0.5-0.7-0.7l0.1-0.1c0.3,0.2,0.6,0.5,0.7,0.6L57.6,13.1z"/>
	<path fill="#999999" d="M61.6,14.3c-0.2,0.2-0.5,0.4-0.8,0.6c0.3,0.3,0.6,0.5,1.1,0.6c0,0-0.1,0.1-0.1,0.2
		c-0.8-0.3-1.4-0.9-1.7-1.7h0c-0.2,0.2-0.4,0.4-0.7,0.6v1l1-0.3c0,0.1,0,0.1,0,0.2c-1.1,0.4-1.2,0.4-1.3,0.5c0-0.1-0.1-0.1-0.1-0.2
		c0,0,0.1-0.1,0.1-0.2v-0.8c-0.3,0.2-0.5,0.3-0.8,0.4c0,0-0.1-0.1-0.1-0.2c0.5-0.2,1.1-0.5,1.5-0.9h-1.4v-0.2h1.6v-0.4h-1.3v-0.2
		h1.3v-0.4h-1.5v-0.2h1.5v-0.4h0.2v0.4h1.5v0.2h-1.5v0.4h1.3v0.2h-1.3v0.4h1.6v0.2h-1.5c0.1,0.3,0.3,0.6,0.5,0.8
		c0.3-0.2,0.6-0.4,0.7-0.6L61.6,14.3z"/>
	<path fill="#999999" d="M65,15.5c0.5,0,0.5-0.2,0.6-0.8c0.1,0,0.1,0.1,0.2,0.1c-0.1,0.7-0.2,0.9-0.8,0.9h-1.6
		c-0.6,0-0.8-0.1-0.8-0.5v-2.1h0.2v0.7h2.3v-1.2h-2.7v-0.2h2.9v1.8h-0.2V14h-2.3v1.2c0,0.3,0.1,0.3,0.5,0.3H65z"/>
	<path fill="#999999" d="M66.6,13.7v2.1h-0.2v-3.4h1.4v1.3H66.6z M66.6,12.5v0.4h1v-0.4H66.6z M67.6,13.5v-0.4h-1v0.4H67.6z
		 M68.5,14.8v0.9h-0.2v-0.9h-0.7c0,0.3-0.1,0.7-0.6,1c0,0-0.1-0.1-0.1-0.1c0.4-0.2,0.5-0.6,0.5-0.9h-0.6v-0.2h0.6v-0.5H67v-0.2h2
		v0.2h-0.5v0.5h0.6v0.2H68.5z M68.3,14.6v-0.5h-0.7v0.5H68.3z M69.6,15.5c0,0.1,0,0.2-0.1,0.3c-0.1,0-0.3,0-0.6,0
		c0-0.1,0-0.1-0.1-0.2c0.2,0,0.5,0,0.5,0c0.1,0,0.1,0,0.1-0.1v-1.9h-1.3v-1.3h1.4V15.5z M68.4,12.5v0.4h1.1v-0.4H68.4z M69.4,13.5
		v-0.4h-1.1v0.4H69.4z"/>
	<path fill="#999999" d="M71.6,14.7C71.6,14.7,71.6,14.8,71.6,14.7c-0.1,0.7-0.1,0.9-0.2,1c-0.1,0.1-0.1,0.1-0.2,0.1
		c-0.1,0-0.3,0-0.5,0c0-0.1,0-0.1-0.1-0.2c0.2,0,0.5,0,0.5,0c0.1,0,0.1,0,0.1,0c0.1-0.1,0.1-0.2,0.2-0.7h-1c0-0.2,0.1-0.6,0.1-0.8
		h0.8v-0.5h-0.7v0c-0.2,0.1-0.3,0.2-0.5,0.2c0,0-0.1-0.1-0.1-0.1c0.3-0.1,0.6-0.2,0.8-0.4c-0.1-0.1-0.3-0.3-0.5-0.4l0.1-0.1
		c0.2,0.1,0.4,0.3,0.5,0.4c0.2-0.2,0.3-0.3,0.5-0.5h-1v-0.2h1.1l0,0l0.1,0.1c-0.2,0.4-0.5,0.7-0.9,1h0.7v0.8h-0.9
		c0,0.2,0,0.3-0.1,0.5H71.6z M73.7,12.7c-0.2,0.2-0.4,0.4-0.6,0.5c0.2,0.1,0.5,0.3,0.7,0.3c0,0-0.1,0.1-0.1,0.2
		c-0.2-0.1-0.4-0.2-0.6-0.3V14c0,0.1,0,0.1,0.1,0.1h0.4c0,0,0.1,0,0.2,0c0,0,0,0.1,0,0.1c0,0-0.1,0-0.2,0h-0.4
		c-0.2,0-0.2-0.1-0.2-0.3v-0.5h-0.7v0.2c0,0.2-0.1,0.5-0.4,0.7c0,0-0.1-0.1-0.1-0.1c0.3-0.2,0.4-0.4,0.4-0.6v-0.3H73v0h0.1
		c-0.5-0.3-0.8-0.7-1.1-1.1l0.2-0.1c0.1,0.2,0.2,0.4,0.4,0.5c0.2-0.1,0.4-0.4,0.6-0.5l0.1,0.1c-0.2,0.2-0.4,0.4-0.6,0.5
		c0.1,0.1,0.2,0.2,0.3,0.3c0.2-0.1,0.5-0.3,0.6-0.5L73.7,12.7z M73.4,14.6c-0.1,0.3-0.3,0.5-0.6,0.7c0.2,0.1,0.4,0.3,0.6,0.4
		l-0.1,0.1c-0.2-0.1-0.4-0.3-0.6-0.4c-0.3,0.2-0.6,0.3-0.9,0.4c0,0-0.1-0.1-0.1-0.1c0.3-0.1,0.6-0.2,0.9-0.4
		c-0.2-0.1-0.5-0.3-0.7-0.4l0.1-0.1c0.2,0.1,0.5,0.3,0.7,0.4c0.2-0.1,0.4-0.3,0.5-0.5h-1.3v-0.2h1.4l0,0L73.4,14.6z"/>
	<path fill="#999999" d="M77.6,12.4v3.4h-0.2v-0.2h-2.9v0.2h-0.2v-3.4H77.6z M77.5,15.4v-2.9h-2.9v2.9H77.5z M76,14.7
		c-0.4,0.1-0.9,0.2-1.2,0.3l0-0.2c0.3-0.1,0.8-0.2,1.2-0.2L76,14.7z M77,13.6c-0.1,0.4-0.3,0.7-0.5,1c0.1,0.3,0.2,0.4,0.4,0.5
		c0.1,0,0.1-0.2,0.1-0.4c0,0,0.1,0.1,0.1,0.1c0,0.4-0.1,0.6-0.3,0.5c-0.2,0-0.4-0.2-0.5-0.5c-0.2,0.2-0.4,0.4-0.6,0.5
		c0,0-0.1-0.1-0.1-0.1c0.3-0.2,0.5-0.3,0.6-0.6c-0.1-0.3-0.2-0.8-0.2-1.3h-1.3v-0.2h1.3c0-0.2,0-0.3,0-0.5h0.2c0,0.2,0,0.3,0,0.5
		h0.9v0.2h-0.9c0,0.4,0.1,0.8,0.2,1.1c0.2-0.2,0.3-0.5,0.4-0.9L77,13.6z M75.9,13.6v0.8H75v-0.8H75.9z M75.7,13.8h-0.6v0.5h0.6V13.8
		z M77,13.1c-0.1-0.1-0.3-0.2-0.5-0.3l0.1-0.1c0.2,0.1,0.4,0.2,0.5,0.3L77,13.1z"/>
	<path fill="#999999" d="M81.4,13.7c-0.2,0.2-0.4,0.3-0.7,0.5c0.2,0.6,0.6,1.1,1.2,1.3c0,0-0.1,0.1-0.1,0.2c-0.5-0.2-1-0.7-1.2-1.3
		c-0.1,0.1-0.2,0.1-0.2,0.1c0.2,0.5,0.1,1.1-0.2,1.2c-0.1,0.1-0.2,0.1-0.4,0.1c-0.1,0-0.2,0-0.3,0c0-0.1,0-0.1-0.1-0.2
		c0.1,0,0.3,0,0.4,0c0.1,0,0.2,0,0.3-0.1c0.2-0.1,0.2-0.5,0.2-0.9c-0.4,0.4-1.2,0.7-1.8,0.9c0-0.1-0.1-0.1-0.1-0.2
		c0.6-0.2,1.4-0.5,1.8-0.9c0-0.1-0.1-0.2-0.1-0.4c-0.4,0.3-1,0.6-1.5,0.7c0,0-0.1-0.1-0.1-0.2c0.5-0.1,1.2-0.4,1.5-0.7
		c-0.1-0.1-0.1-0.2-0.2-0.3c-0.4,0.2-0.8,0.4-1.2,0.5c0,0-0.1-0.1-0.1-0.2c0.5-0.1,1.1-0.4,1.5-0.7h-1v-0.2h2.3v0.2h-1.1
		c-0.1,0.1-0.2,0.2-0.3,0.2c0.2,0.2,0.4,0.4,0.4,0.7c0.3-0.2,0.7-0.5,1-0.7L81.4,13.7z M78.6,13.3h-0.2v-0.8h1.5
		c0-0.1-0.1-0.2-0.2-0.3l0.2-0.1c0.1,0.1,0.2,0.3,0.2,0.4h1.5v0.8h-0.2v-0.6h-2.9V13.3z"/>
	<path fill="#999999" d="M83.4,14.2c-0.2,0.1-0.3,0.1-0.5,0.1v1.2c0,0.1,0,0.2-0.1,0.2c-0.1,0-0.2,0-0.5,0c0,0,0-0.1-0.1-0.2
		c0.2,0,0.4,0,0.4,0c0.1,0,0.1,0,0.1-0.1v-1.2c-0.2,0.1-0.4,0.1-0.6,0.2l-0.1-0.2c0.2,0,0.4-0.1,0.6-0.2v-1h-0.6V13h0.6v-0.8H83V13
		h0.5v0.2H83v0.9l0.4-0.1L83.4,14.2z M85.5,14c-0.2,0.5-0.5,0.8-0.8,1.1c0.3,0.2,0.7,0.4,1.1,0.5c0,0-0.1,0.1-0.1,0.2
		c-0.4-0.1-0.8-0.3-1.2-0.5c-0.4,0.3-0.8,0.4-1.2,0.5c0-0.1-0.1-0.1-0.1-0.2c0.4-0.1,0.8-0.3,1.2-0.5c-0.3-0.3-0.6-0.6-0.7-1h-0.1
		V14h1.8l0,0L85.5,14z M84.1,12.8c0,0.3-0.1,0.8-0.6,1.1c0,0-0.1-0.1-0.1-0.1c0.4-0.3,0.5-0.6,0.5-0.9v-0.4h1.2v1
		c0,0.1,0,0.1,0.1,0.1h0.4c0,0,0.1,0,0.2,0c0,0,0,0.1,0,0.2c0,0-0.1,0-0.2,0h-0.4c-0.2,0-0.3-0.1-0.3-0.3v-0.8h-0.8V12.8z
		 M83.8,14.2c0.2,0.3,0.4,0.6,0.7,0.9c0.3-0.2,0.6-0.5,0.7-0.9H83.8z"/>
	<path fill="#999999" d="M87.3,13.2h-1.1v-0.2h1.1V13.2z M87.6,15.3c-0.3,0.2-0.8,0.4-1.2,0.5c0,0-0.1-0.1-0.1-0.2
		c0.4-0.1,0.9-0.2,1.2-0.4L87.6,15.3z M87.2,12.6h-0.9v-0.2h0.9V12.6z M86.7,13.6h2.5v1.6h-2.5V13.6z M86.9,14.1h2.2v-0.3h-2.2V14.1
		z M86.9,14.6h2.2v-0.3h-2.2V14.6z M86.9,15h2.2v-0.3h-2.2V15z M88,12.6c-0.1,0.2-0.2,0.3-0.3,0.4c0,0-0.1-0.1-0.2-0.1
		c0.2-0.2,0.4-0.5,0.5-0.8l0.2,0c0,0.1-0.1,0.2-0.1,0.3h1.5l0,0l0.1,0c-0.1,0.2-0.2,0.4-0.3,0.5L89.2,13c0.1-0.1,0.2-0.2,0.2-0.4
		h-0.8v0c0,0.1,0,0.1,0,0.2c0.2,0.3,0.7,0.4,1.2,0.5c0,0-0.1,0.1-0.1,0.2c-0.5-0.1-0.9-0.3-1.1-0.5c-0.1,0.2-0.4,0.4-1.2,0.5
		c0,0-0.1-0.1-0.1-0.2c1.1-0.2,1.2-0.5,1.2-0.7v0H88z M88.6,15.3c0.4,0.1,0.9,0.3,1.2,0.4l-0.2,0.1c-0.3-0.1-0.7-0.3-1.2-0.4
		L88.6,15.3z"/>
	<path fill="#999999" d="M90.2,12.9h1.4V13h-1.4V12.9z M91.5,15.6h-0.9v0.2h-0.2v-1.3h1.1V15.6z M91.5,13.4v0.2h-1.1v-0.2H91.5z
		 M90.4,13.9h1.1v0.2h-1.1V13.9z M90.5,14.6v0.8h0.8v-0.8H90.5z M90.9,12.8c-0.1-0.1-0.2-0.4-0.3-0.5l0.1-0.1
		c0.1,0.2,0.2,0.4,0.3,0.5L90.9,12.8z M93.8,14.3h-1v1.5h-0.2v-1.5h-1v-0.2h1v-1.5h-0.9v-0.2h1.9v0.2h-0.9v1.5h1V14.3z M92.1,12.9
		c0.1,0.3,0.2,0.7,0.2,1l-0.2,0.1c0-0.3-0.1-0.7-0.2-1L92.1,12.9z M93.2,13.9c0.1-0.3,0.2-0.7,0.3-1l0.2,0.1c-0.1,0.3-0.2,0.8-0.3,1
		L93.2,13.9z"/>
	<path fill="#999999" d="M95.2,12.3c-0.1,0.3-0.2,0.5-0.3,0.8v2.8h-0.2v-2.4c-0.1,0.2-0.3,0.5-0.5,0.7c0,0-0.1-0.1-0.1-0.2
		c0.4-0.4,0.7-1,0.9-1.7L95.2,12.3z M96.2,15.4c-0.2,0.2-0.6,0.3-1,0.4c0,0-0.1-0.1-0.1-0.1c0.3-0.1,0.7-0.2,0.9-0.4L96.2,15.4z
		 M96,12.6h-0.8v-0.2h2.6v0.2h-0.9v0.3h0.7v0.7h-2.3v-0.7H96V12.6z M95.4,15.2v-1.4h2.2v1.4H95.4z M95.5,13.4H96V13h-0.5V13.4z
		 M95.6,14.2h1.8V14h-1.8V14.2z M95.6,14.7h1.8v-0.3h-1.8V14.7z M95.6,15.1h1.8v-0.3h-1.8V15.1z M96.7,12.6h-0.5v0.3h0.5V12.6z
		 M96.2,13.4h0.5V13h-0.5V13.4z M96.9,15.3c0.3,0.1,0.7,0.3,1,0.4l-0.2,0.1c-0.2-0.1-0.6-0.3-0.9-0.4L96.9,15.3z M96.9,13v0.4h0.5
		V13H96.9z"/>
	<path fill="#999999" d="M99.1,15.1v0.7h-0.2v-0.7h-0.7v-0.2h0.7v-0.4h-0.6v-1.4h0.6v-0.4h-0.7v-0.2h0.7v-0.5h0.2v0.5h0.7v0.2h-0.7
		v0.4h0.6v1.4h-0.6v0.4h0.7v0.2H99.1z M98.5,13.8h0.4v-0.5h-0.4V13.8z M98.5,14.4h0.4v-0.5h-0.4V14.4z M99.5,13.3h-0.4v0.5h0.4V13.3
		z M99.5,13.9h-0.4v0.5h0.4V13.9z M101.3,13.9c-0.1,0.4-0.2,0.7-0.4,1c0.3,0.4,0.6,0.6,1,0.8c0,0-0.1,0.1-0.1,0.2
		c-0.4-0.2-0.7-0.5-1-0.8c-0.3,0.3-0.6,0.6-1,0.8c0,0-0.1-0.1-0.1-0.1c0.4-0.2,0.8-0.5,1-0.8c-0.2-0.3-0.3-0.6-0.5-1l0.2,0
		c0.1,0.3,0.2,0.6,0.4,0.8c0.2-0.3,0.3-0.5,0.4-0.9L101.3,13.9z M100.5,13.2c-0.2,0.3-0.4,0.7-0.6,0.9c0,0-0.1-0.1-0.2-0.1
		c0.2-0.2,0.4-0.5,0.6-0.8L100.5,13.2z M101.8,13h-1.9v-0.2h1.9V13z M100.8,12.7c-0.1-0.1-0.2-0.3-0.3-0.5l0.2-0.1
		c0.1,0.1,0.2,0.3,0.3,0.5L100.8,12.7z M101.2,13.1c0.2,0.3,0.5,0.6,0.6,0.8l-0.2,0.1c-0.1-0.2-0.4-0.6-0.6-0.8L101.2,13.1z"/>
	<path fill="#999999" d="M103.9,15c0,0.1,0,0.1,0,0.2c-1.2,0.2-1.3,0.3-1.4,0.3c0,0,0-0.1-0.1-0.2c0.1,0,0.2-0.1,0.2-0.2v-0.9
		c0.4-0.1,0.9-0.2,1.2-0.3l0.1,0.1c-0.3,0.1-0.7,0.2-1.1,0.3v0.9L103.9,15z M105.4,13.7h-2.7v-1.4h2.7V13.7z M105.2,12.5h-2.3v0.4
		h2.3V12.5z M105.2,13.1h-2.3v0.4h2.3V13.1z M105.5,15.2c0,0.1,0,0.2-0.1,0.2c-0.1,0-0.3,0-0.6,0c0-0.1,0-0.1-0.1-0.2
		c0.3,0,0.5,0,0.5,0c0.1,0,0.1,0,0.1-0.1v-1h-1.1v1.6h-0.2V14h1.5V15.2z"/>
	<path fill="#999999" d="M109.8,13.3v0.2h-3.5v-0.2h1.7v-0.3h-1.1v-0.7h1.1v-0.2h0.2v0.2h1.2v0.7h-1.2v0.3H109.8z M107.6,15.4
		c-0.3,0.2-0.8,0.3-1.2,0.4c0,0-0.1-0.1-0.1-0.2c0.4-0.1,0.9-0.2,1.2-0.4L107.6,15.4z M109.3,15.2h-2.5v-1.5h2.5V15.2z M109.1,13.9
		h-2.2v0.3h2.2V13.9z M109.1,14.3h-2.2v0.3h2.2V14.3z M109.1,14.8h-2.2v0.3h2.2V14.8z M107.9,12.9v-0.4H107v0.4H107.9z M108.1,12.6
		v0.4h1v-0.4H108.1z M108.5,15.3c0.5,0.1,0.9,0.3,1.2,0.4l-0.2,0.1c-0.3-0.1-0.7-0.3-1.2-0.4L108.5,15.3z"/>
	<path fill="#999999" d="M111,13.4c0.3,0,0.6,0.3,0.6,0.6c0,0.3-0.3,0.6-0.6,0.6c-0.3,0-0.6-0.3-0.6-0.6
		C110.4,13.7,110.7,13.4,111,13.4z M111,14.4c0.2,0,0.4-0.2,0.4-0.4c0-0.2-0.2-0.4-0.4-0.4c-0.2,0-0.4,0.2-0.4,0.4
		C110.6,14.2,110.8,14.4,111,14.4z"/>
</g>
<g>
</g>
<g>
</g>
<g>
</g>
<g>
</g>
<g>
</g>
<g>
</g>
<g>
</g>
<g>
</g>
<g>
</g>
<g>
</g>
<g>
</g>
<g>
</g>
<g>
</g>
<g>
</g>
<g>
</g>
</svg>
