<?xml version="1.0" encoding="utf-8"?>
<!-- Generator: Adobe Illustrator 18.0.0, SVG Export Plug-In . SVG Version: 6.00 Build 0)  -->
<!DOCTYPE svg PUBLIC "-//W3C//DTD SVG 1.1//EN" "http://www.w3.org/Graphics/SVG/1.1/DTD/svg11.dtd">
<svg version="1.1" id="Layer_1" xmlns="http://www.w3.org/2000/svg" xmlns:xlink="http://www.w3.org/1999/xlink" x="0px" y="0px"
	 viewBox="0 0 90.3 178.3" enable-background="new 0 0 90.3 178.3" xml:space="preserve">
<g>
	<g>
		<circle fill="#007A6D" cx="29.1" cy="29.1" r="29.1"/>
		<g>
			<path fill="#FFFFFF" d="M18.1,24.8c0-0.5-0.2-1.2-0.2-1.9c0-5.6,4.2-10.7,11.6-10.7c7.2,0,11.5,4.7,11.5,10.3
				c0,4.2-2.4,7.7-6.3,10.1l-6.3,3.9c-1.6,1-2.9,2.1-3.3,3.7h16.1v5.3H17.7c0.1-5.6,2.1-10,7.7-13.5l5.4-3.4
				c2.9-1.8,4.2-3.8,4.2-6.1c0-2.7-1.8-5.1-5.5-5.1c-3.8,0-5.7,2.7-5.7,6c0,0.5,0.1,1.1,0.2,1.7L18.1,24.8z"/>
		</g>
	</g>
	<g>
		<g>
			<g>
				<g>
					<polygon fill="#2368B5" points="6.3,95.7 4.5,93.6 22.3,77.4 32.4,87.6 48.4,70.3 59.9,80.7 87.5,54.9 89.4,56.9 60,84.4 
						48.6,74.2 32.5,91.5 22.2,81.2 					"/>
					<polygon fill="#2368B5" points="90.3,66.5 87.5,66.5 87.5,56.8 75.2,56.8 75.2,54 90.3,54 					"/>
				</g>
				<defs>
					<filter id="Adobe_OpacityMaskFilter" filterUnits="userSpaceOnUse" x="5.7" y="57" width="79.1" height="81.1">
						<feColorMatrix  type="matrix" values="1 0 0 0 0  0 1 0 0 0  0 0 1 0 0  0 0 0 1 0"/>
					</filter>
				</defs>
				<mask maskUnits="userSpaceOnUse" x="5.7" y="57" width="79.1" height="81.1" id="SVGID_1_">
					<g filter="url(#Adobe_OpacityMaskFilter)">
						<g>
							<path fill="#FFFFFF" d="M47.6,94c11.7,0,22.7,4.5,30.9,12.8c4.3,4.3,7.6,9.5,9.8,15V64.3l-27.9,26L48.6,79.8L33.2,96.4
								C37.7,94.8,42.6,94,47.6,94z"/>
							<path fill="#FFFFFF" d="M3.9,137.6c0-11.7,4.5-22.7,12.8-30.9c4.3-4.3,9.2-7.5,14.7-9.7l-10-10L5.5,101.5l-3.2,36.8H4
								C3.9,138.1,3.9,137.9,3.9,137.6z"/>
						</g>
					</g>
				</mask>
				<g mask="url(#SVGID_1_)">
					<rect x="5.7" y="71.5" fill="#2368B5" width="18.3" height="66.6"/>
					<rect x="27.1" y="71.5" fill="#2368B5" width="18.3" height="66.6"/>
					<rect x="48.6" y="71.5" fill="#2368B5" width="18.3" height="66.6"/>
					<rect x="70" y="57" fill="#2368B5" width="14.8" height="81.1"/>
				</g>
				<path fill="#2368B5" d="M47.5,178.3c-22.4,0-40.5-18.2-40.6-40.6c0-22.5,18.1-40.7,40.7-40.7c22.5,0,40.7,18.2,40.7,40.7
					C88.2,160.2,70.1,178.3,47.5,178.3z M61.1,140.5c-9.3,0-18,0-27.2,0c0.8,4.3,1.4,8.4,2.2,12.5c0.1,0.4,0.8,0.8,1.2,0.8
					c6.8,0.1,13.5,0.1,20.3,0c0.5,0,1.2-0.6,1.3-1C59.7,148.8,60.4,144.8,61.1,140.5z M61.1,134.3c-0.6-4.1-1.1-7.9-1.8-11.7
					c-0.1-0.5-1-1.2-1.5-1.3c-6.9-0.1-13.8-0.1-20.7,0c-0.5,0-1.3,0.4-1.3,0.7c-0.7,4-1.3,8.1-1.9,12.3
					C43.1,134.3,51.9,134.3,61.1,134.3z M28.5,140.5c-5.4,0-10.7,0-16.1,0c0.3,4.5,1.5,8.6,3.4,12.5c0.2,0.3,0.7,0.8,1,0.8
					c4.5,0.1,9,0,13.5,0C29.7,149.3,29.1,145,28.5,140.5z M66.6,140.5c-0.6,4.4-1.2,8.8-1.8,13.4c4.5,0,9,0,13.4,0
					c0.3,0,0.8-0.2,0.9-0.5c2-4,3.3-8.2,3.5-12.8C77.2,140.5,71.9,140.5,66.6,140.5z M28.5,134.3c0.6-4.4,1.1-8.6,1.7-13
					c-4.4,0-8.9,0-13.3,0c-0.3,0-0.8,0.4-1,0.7c-1.9,3.8-3.1,7.9-3.4,12.3C17.9,134.3,23.1,134.3,28.5,134.3z M82.7,134.4
					c-0.4-4.4-1.5-8.4-3.4-12.2c-0.2-0.4-0.8-0.8-1.2-0.8c-4.4-0.1-8.7,0-13.2,0c0.6,4.5,1.1,8.7,1.7,13.1
					C71.9,134.4,77.2,134.4,82.7,134.4z M57.6,115.3c-1.6-3.6-3.2-6.7-4.5-10c-1-2.5-2.7-3.1-5.1-3.1c-3.1-0.1-5.3,0.6-6.5,3.9
					c-1.1,3.1-2.6,6-4.1,9.3C44.3,115.3,50.6,115.3,57.6,115.3z M57.2,160c-6.7,0-12.8,0-19.2,0c1.3,3,2.4,5.7,3.6,8.3
					c2.3,4.9,3.1,5.3,8.4,4.5c0.2,0,0.4,0,0.6-0.1c0.3-0.2,0.8-0.4,0.9-0.7C53.4,168.2,55.3,164.2,57.2,160z M20.1,159.8
					c4.7,5.5,9.9,9.1,16.4,11.3c-1.4-3.6-2.7-7-4-10.3c-0.2-0.4-0.7-0.9-1-1C27.9,159.8,24.2,159.8,20.1,159.8z M58.6,171.2
					c6.5-2.3,11.9-5.8,16.4-11.4c-4.1,0-7.6,0-11.2,0c-0.4,0-0.9,0.5-1.1,0.8C61.3,164.1,60,167.5,58.6,171.2z M20.1,115.4
					c4,0,7.4,0,10.8,0c0.4,0,1.1-0.3,1.2-0.7c1.3-3.4,2.6-6.8,4-10.4C29.7,106.4,24.6,110.1,20.1,115.4z M59.1,104.2
					c1.4,3.6,2.6,6.8,3.8,10c0.2,0.4,0.6,1,0.9,1c3.6,0.1,7.1,0,11.2,0C70.5,110.1,65.5,106.4,59.1,104.2z"/>
			</g>
		</g>
	</g>
</g>
<g>
</g>
<g>
</g>
<g>
</g>
<g>
</g>
<g>
</g>
<g>
</g>
<g>
</g>
<g>
</g>
<g>
</g>
<g>
</g>
<g>
</g>
<g>
</g>
<g>
</g>
<g>
</g>
<g>
</g>
</svg>
