<?xml version="1.0" encoding="utf-8"?>
<!-- Generator: Adobe Illustrator 18.0.0, SVG Export Plug-In . SVG Version: 6.00 Build 0)  -->
<!DOCTYPE svg PUBLIC "-//W3C//DTD SVG 1.1//EN" "http://www.w3.org/Graphics/SVG/1.1/DTD/svg11.dtd">
<svg version="1.1" id="Layer_1" xmlns="http://www.w3.org/2000/svg" xmlns:xlink="http://www.w3.org/1999/xlink" x="0px" y="0px"
	 viewBox="0 0 61.4 88.2" enable-background="new 0 0 61.4 88.2" xml:space="preserve">
<g>
	<g>
		<circle fill="#007A6D" cx="12.9" cy="12.9" r="12.9"/>
		<g>
			<path fill="#FFFFFF" d="M16.6,7.2c-0.5-0.3-1.3-0.6-2.5-0.6c-2.7,0-4.7,1.8-4.9,4.6c0.8-1.2,2.1-1.7,3.7-1.7
				c2.9,0,4.9,1.9,4.9,4.9c0,3-2.4,5-5.5,5c-3.7,0-5.8-3-5.8-6.7c0-5.2,3.3-8.4,7.7-8.4c1.3,0,2.4,0.3,3.1,0.7L16.6,7.2z M12.3,17.1
				c1.5,0,2.8-1,2.8-2.7c0-1.7-1.3-2.7-2.8-2.7s-2.8,1-2.8,2.7C9.5,16.1,10.8,17.1,12.3,17.1z"/>
		</g>
	</g>
	<g>
		<g>
			<g>
				<defs>
					<circle id="SVGID_1_" cx="23" cy="75.6" r="11.5"/>
				</defs>
				<clipPath id="SVGID_2_">
					<use xlink:href="#SVGID_1_"  overflow="visible"/>
				</clipPath>
				<circle clip-path="url(#SVGID_2_)" fill="#FFFFFF" cx="23.1" cy="76" r="12.3"/>
				<g id="_x38_raAOr_1_" clip-path="url(#SVGID_2_)">
					<g>
						<path fill="#2368B5" d="M54.4,64.2c0,0.6,0,1.1,0,1.7c-8.6,0-17.1,0-25.7,0c0,0.6,0,1.1,0,1.7c0,0,0.1,0.1,0.2,0.1
							c0.7,0,1.4,0,2.1,0c3.9,0,7.8,0,11.7,0c3.5,0,7,0,10.5,0c0.4,0,0.8,0,1.2,0c0,0.6,0,1.1,0,1.7c-8.6,0-17.1,0-25.7,0
							c0,0.1,0,0.2,0,0.2c0,0.4,0,0.9,0,1.3c0,0.2,0,0.3,0.3,0.3c1,0,2,0,2.9,0c7.4,0,14.8,0,22.2,0c0.1,0,0.2,0,0.3,0
							c0,0.5,0,1.1,0,1.6c-8.6,0-17.1,0-25.7,0c0,0.6,0,1.2,0,1.8c8.6,0,17.1,0,25.7,0c0,0.6,0,1.1,0,1.7c-14.3,0-28.5,0-42.8,0
							c0-4,0-8.1,0-12.1C25.9,64.2,40.1,64.2,54.4,64.2z M26.7,65.2c0.3,0.2,0.3,0.4,0.2,0.7c0.3-0.3,0.5-0.3,0.8,0
							c-0.2-0.3-0.1-0.5,0.2-0.7c-0.3,0-0.6,0-0.6-0.4C27.2,65.1,27,65.2,26.7,65.2z M17.3,66c-0.1,0.2-0.1,0.3-0.2,0.4
							c-0.1,0.1-0.2,0-0.4,0.1c0.3,0.2,0.3,0.4,0.2,0.7c0.3-0.3,0.5-0.3,0.8,0c-0.2-0.3-0.1-0.5,0.2-0.7
							C17.6,66.4,17.3,66.4,17.3,66z M14.4,66c-0.1,0.4-0.2,0.5-0.6,0.4c0.3,0.2,0.3,0.4,0.1,0.8c0.2-0.1,0.3-0.3,0.4-0.3
							c0.1,0,0.3,0.1,0.4,0.2c-0.2-0.3,0-0.5,0.2-0.7C14.6,66.3,14.6,66.3,14.4,66z M15.5,68.3c0.3-0.3,0.5-0.3,0.8,0
							c-0.2-0.3,0-0.5,0.2-0.7c-0.3,0.1-0.5-0.1-0.6-0.4c-0.1,0.3-0.3,0.4-0.6,0.4C15.6,67.8,15.6,68,15.5,68.3z M12.4,67.6
							c0.2,0.3,0.2,0.3,0.2,0.8c0.1-0.1,0.3-0.2,0.4-0.3c0.1,0.1,0.3,0.2,0.4,0.3c-0.2-0.3,0-0.5,0.2-0.7c-0.3,0-0.6,0-0.6-0.4
							C12.9,67.5,12.8,67.7,12.4,67.6z M22.4,66.4c0.3,0.2,0.3,0.4,0.2,0.7c0.3-0.3,0.5-0.3,0.8,0c-0.2-0.3,0-0.5,0.2-0.7
							c-0.3,0.1-0.5-0.1-0.6-0.4C22.8,66.4,22.8,66.4,22.4,66.4z M25.8,68.4c-0.1,0.1-0.1,0.3-0.2,0.3c-0.1,0.1-0.2,0-0.4,0.1
							c0.3,0.2,0.3,0.4,0.2,0.7c0.2-0.1,0.3-0.2,0.4-0.2c0.1,0,0.3,0.1,0.4,0.2c0-0.2-0.1-0.3-0.1-0.4c0-0.1,0.2-0.2,0.3-0.3
							c-0.2,0-0.3,0-0.4,0C26,68.7,25.9,68.6,25.8,68.4z M13.8,68.8c0.3,0.2,0.3,0.4,0.2,0.7c0.3-0.2,0.5-0.3,0.8,0
							c-0.2-0.3,0-0.5,0.2-0.7c-0.3,0-0.5,0-0.6-0.4C14.3,68.7,14.2,68.9,13.8,68.8z M16.7,73.7c0.3,0.2,0.3,0.4,0.1,0.7
							c0.2-0.1,0.3-0.2,0.4-0.2c0.1,0,0.2,0.1,0.4,0.2c-0.2-0.3,0-0.5,0.2-0.7c-0.3,0-0.6,0-0.6-0.4C17.2,73.6,17,73.7,16.7,73.7z
							 M26.5,66.4c-0.3,0-0.6,0-0.6-0.4c-0.1,0.3-0.2,0.5-0.6,0.4c0.3,0.2,0.3,0.4,0.2,0.7c0.3-0.3,0.5-0.2,0.8,0
							C26.1,66.8,26.2,66.6,26.5,66.4z M25,70c-0.3,0-0.5-0.1-0.6-0.4c-0.1,0.3-0.2,0.5-0.6,0.4c0.3,0.2,0.3,0.4,0.2,0.7
							c0.3-0.3,0.5-0.3,0.8,0C24.6,70.4,24.8,70.2,25,70z M15.9,69.6c-0.1,0.3-0.2,0.5-0.6,0.4c0.3,0.2,0.3,0.4,0.2,0.7
							c0.3-0.2,0.5-0.3,0.8,0c-0.2-0.3,0-0.5,0.2-0.7C16.1,70.1,15.9,70,15.9,69.6z M15.8,64.8c-0.1,0.1-0.1,0.3-0.2,0.3
							c-0.1,0.1-0.2,0-0.4,0.1c0.3,0.2,0.3,0.4,0.2,0.7c0.1-0.1,0.2-0.2,0.4-0.2c0.1,0.1,0.2,0.2,0.4,0.2c-0.1-0.3-0.1-0.5,0.3-0.7
							C16,65.1,16,65.1,15.8,64.8z M24,73.2c0.3-0.3,0.5-0.3,0.8,0c-0.2-0.3,0-0.5,0.2-0.7c-0.3,0.1-0.5,0-0.6-0.4
							c-0.1,0.2-0.1,0.3-0.2,0.4c-0.1,0.1-0.2,0-0.4,0.1C24.1,72.7,24.2,72.9,24,73.2z M18.1,74.9c0.3,0.2,0.3,0.4,0.2,0.7
							c0.3-0.3,0.5-0.3,0.8,0c-0.2-0.3-0.1-0.5,0.2-0.7c-0.3,0-0.6,0-0.6-0.4C18.6,74.8,18.5,75,18.1,74.9z M20.2,70.9
							c-0.1,0.3-0.2,0.5-0.6,0.4c0.3,0.2,0.3,0.4,0.2,0.7c0.3-0.2,0.5-0.3,0.8,0c-0.2-0.3,0-0.5,0.2-0.7
							C20.5,71.3,20.2,71.3,20.2,70.9z M27.9,67.6c-0.3,0-0.5,0-0.6-0.4c-0.1,0.3-0.2,0.5-0.6,0.4c0.1,0.1,0.2,0.2,0.3,0.3
							c0,0.1-0.1,0.3-0.1,0.4c0.3-0.2,0.5-0.3,0.8,0C27.5,68,27.6,67.8,27.9,67.6z M20.5,69.5c-0.2-0.3,0-0.5,0.2-0.7
							c-0.2,0-0.4,0-0.4,0c-0.1-0.1-0.1-0.2-0.2-0.4c0,0.4-0.2,0.5-0.5,0.5c0.3,0.2,0.3,0.4,0.2,0.7C20,69.3,20.2,69.2,20.5,69.5z
							 M19.1,73.2c-0.2-0.3,0-0.5,0.2-0.7c-0.3,0.1-0.5,0-0.6-0.4c-0.1,0.3-0.3,0.4-0.6,0.4c0.3,0.2,0.3,0.4,0.2,0.7
							C18.6,72.9,18.8,72.9,19.1,73.2z M12.6,70.7c0.3-0.2,0.5-0.3,0.8,0c-0.2-0.3,0-0.5,0.2-0.7c-0.3,0.1-0.5,0-0.6-0.4
							c0,0.4-0.3,0.4-0.6,0.4C12.7,70.2,12.8,70.4,12.6,70.7z M18.3,70.7c0.1-0.1,0.2-0.2,0.4-0.2c0.1,0,0.3,0.1,0.5,0.2
							c-0.3-0.3-0.1-0.5,0.2-0.7c-0.3,0-0.6,0-0.6-0.4c-0.1,0.3-0.3,0.5-0.6,0.4C18.4,70.2,18.5,70.5,18.3,70.7z M18.1,67.6
							c0.1,0.2,0.2,0.2,0.3,0.4c0,0.1,0,0.2-0.1,0.4c0.2-0.1,0.3-0.2,0.4-0.2c0.1,0,0.3,0.1,0.4,0.2c-0.2-0.3,0-0.5,0.3-0.7
							c-0.2,0-0.4,0-0.5,0c-0.1-0.1-0.1-0.2-0.2-0.4C18.6,67.5,18.5,67.7,18.1,67.6z M13,74.5c-0.1,0.3-0.3,0.5-0.6,0.4
							c0.3,0.2,0.3,0.4,0.2,0.7c0.3-0.2,0.5-0.3,0.8,0c-0.2-0.3,0-0.5,0.2-0.7C13.3,74.9,13.1,74.9,13,74.5z M25.3,71.3
							c0.3,0.2,0.3,0.4,0.2,0.7c0.3-0.3,0.5-0.3,0.8,0c-0.2-0.3,0-0.5,0.2-0.7c-0.3,0.1-0.6,0-0.6-0.4
							C25.8,71.2,25.6,71.3,25.3,71.3z M19.7,67.1c0.3-0.3,0.5-0.3,0.8,0c-0.2-0.3-0.1-0.5,0.2-0.7c-0.3,0-0.6,0-0.6-0.4
							c-0.1,0.3-0.3,0.5-0.6,0.4C19.8,66.6,19.9,66.8,19.7,67.1z M25.8,73.3c-0.1,0.3-0.2,0.5-0.6,0.4c0.1,0.2,0.3,0.2,0.3,0.3
							c0,0.1,0,0.2-0.1,0.5c0.3-0.3,0.5-0.3,0.8,0c-0.2-0.3-0.1-0.5,0.2-0.7c-0.2,0-0.4,0-0.5,0C25.9,73.6,25.9,73.4,25.8,73.3z
							 M19.8,74.4c0.1-0.1,0.3-0.2,0.4-0.2c0.1,0,0.2,0.1,0.4,0.2c-0.2-0.3,0-0.5,0.3-0.7c-0.2,0-0.4,0-0.5,0
							c-0.1-0.1-0.1-0.2-0.2-0.3c-0.1,0.3-0.3,0.4-0.6,0.4C19.9,73.9,19.9,74.1,19.8,74.4z M14,72c0.2-0.1,0.3-0.2,0.4-0.2
							c0.1,0,0.2,0.1,0.4,0.2c-0.2-0.3,0.1-0.5,0.2-0.7c-0.3,0.1-0.5-0.1-0.6-0.4c-0.1,0.3-0.3,0.4-0.6,0.4
							C14.1,71.4,14.1,71.7,14,72z M21.6,64.8c-0.1,0.3-0.2,0.5-0.6,0.4c0.3,0.2,0.3,0.4,0.2,0.7c0.1-0.1,0.2-0.2,0.4-0.2
							c0.1,0.1,0.2,0.2,0.4,0.2c-0.2-0.3,0-0.5,0.2-0.7C21.9,65.2,21.6,65.1,21.6,64.8z M22.2,67.6C22.2,67.6,22.2,67.6,22.2,67.6
							c-0.2,0-0.3,0-0.4-0.1c-0.1-0.1-0.1-0.2-0.2-0.3c-0.1,0.3-0.3,0.4-0.6,0.4c0.3,0.2,0.3,0.4,0.2,0.7c0.3-0.3,0.5-0.3,0.8,0
							C21.8,68,22,67.8,22.2,67.6z M18.1,65.2c0.3,0.2,0.3,0.4,0.2,0.7c0.3-0.3,0.5-0.3,0.8,0c-0.2-0.3-0.1-0.5,0.2-0.7
							c-0.3,0.1-0.5,0-0.6-0.4C18.6,65.1,18.5,65.2,18.1,65.2z M26.7,74.9c0.3,0.2,0.3,0.4,0.2,0.7c0.3-0.3,0.5-0.3,0.8,0
							c-0.2-0.3-0.1-0.5,0.2-0.7c-0.3,0-0.6,0-0.6-0.4C27.2,74.8,27.1,75,26.7,74.9z M12.6,65.9c0.3-0.3,0.5-0.3,0.8,0
							c-0.2-0.3-0.1-0.5,0.2-0.7c-0.3,0-0.6,0-0.6-0.4c-0.1,0.2-0.1,0.3-0.2,0.4c-0.1,0.1-0.2,0-0.4,0.1
							C12.7,65.4,12.7,65.6,12.6,65.9z M17.9,68.8c-0.3,0-0.5,0-0.6-0.4c-0.1,0.3-0.2,0.5-0.6,0.4c0.3,0.2,0.3,0.4,0.2,0.7
							c0.3-0.2,0.5-0.3,0.8,0C17.5,69.2,17.6,69,17.9,68.8z M16.7,71.3c0.3,0.2,0.3,0.4,0.1,0.7c0.2-0.1,0.3-0.2,0.4-0.2
							c0.1,0,0.3,0.1,0.4,0.2c0-0.1-0.1-0.3-0.1-0.4c0-0.1,0.2-0.2,0.3-0.3c0,0,0-0.1,0-0.1c-0.3,0.1-0.5,0-0.6-0.4
							C17.2,71.2,17,71.3,16.7,71.3z M24.8,75.7c0-0.2-0.1-0.4-0.1-0.5c0-0.1,0.2-0.2,0.3-0.3c0,0,0,0-0.1-0.1c-0.1,0-0.3,0-0.4,0
							c-0.1-0.1-0.1-0.2-0.2-0.4c-0.1,0.3-0.2,0.5-0.6,0.4c0.3,0.2,0.3,0.4,0.2,0.7C24.3,75.3,24.6,75.4,24.8,75.7z M26.9,70.8
							c0.3-0.3,0.5-0.3,0.8,0c0-0.2-0.1-0.3-0.1-0.5c0-0.1,0.2-0.2,0.3-0.3c0,0,0,0,0-0.1c-0.3,0.1-0.5,0-0.6-0.4
							c-0.1,0.3-0.2,0.5-0.6,0.4C27,70.2,27,70.5,26.9,70.8z M23.8,65.2c0.3,0.2,0.3,0.4,0.2,0.7c0.3-0.3,0.5-0.3,0.8,0
							c-0.2-0.3-0.1-0.5,0.2-0.7c-0.3,0.1-0.5,0-0.6-0.4C24.3,65.1,24.2,65.3,23.8,65.2z M24,68.4c0.2-0.1,0.3-0.2,0.4-0.2
							c0.1,0,0.3,0.1,0.4,0.2c0,0,0,0,0.1,0c-0.3-0.3-0.1-0.5,0.2-0.7c-0.3,0.1-0.6,0-0.6-0.4c-0.1,0.3-0.2,0.5-0.6,0.4
							c0.1,0.2,0.3,0.2,0.3,0.4C24.1,68.1,24,68.2,24,68.4z M21.6,72c-0.1,0.3-0.2,0.5-0.6,0.4c0.3,0.2,0.3,0.4,0.2,0.7
							c0.3-0.3,0.5-0.3,0.8,0c-0.2-0.3-0.1-0.5,0.2-0.7C21.9,72.5,21.6,72.4,21.6,72z M22.4,73.7c0.3,0.2,0.3,0.4,0.2,0.7
							c0.3-0.3,0.5-0.3,0.8,0c-0.2-0.3-0.1-0.5,0.2-0.7c-0.3,0.1-0.5-0.1-0.6-0.4C22.9,73.6,22.7,73.7,22.4,73.7z M23.7,68.8
							c-0.2,0-0.4,0-0.5,0c-0.1-0.1-0.1-0.2-0.2-0.4c-0.1,0.1-0.1,0.3-0.2,0.4c-0.1,0.1-0.2,0-0.4,0.1c0.3,0.2,0.4,0.4,0.2,0.7
							c0.3-0.3,0.5-0.3,0.8,0C23.2,69.2,23.4,69,23.7,68.8z M22.2,70c-0.3,0-0.6,0-0.6-0.4c-0.1,0.2-0.1,0.3-0.2,0.4
							C21.3,70,21.2,70,21,70c0.3,0.2,0.3,0.4,0.2,0.7c0.3-0.3,0.5-0.3,0.8,0C21.8,70.4,22,70.2,22.2,70z M26.7,72.5
							c0.3,0.2,0.3,0.4,0.1,0.7c0.2-0.1,0.3-0.2,0.4-0.2c0.1,0,0.2,0.1,0.4,0.2c-0.2-0.3,0-0.5,0.2-0.7c-0.4,0.1-0.5-0.1-0.6-0.4
							C27.2,72.3,27.1,72.5,26.7,72.5z M22.6,72c0.3-0.2,0.5-0.3,0.8,0c-0.2-0.3,0-0.5,0.2-0.7c-0.3,0-0.6,0-0.6-0.4
							c-0.1,0.3-0.2,0.5-0.6,0.4C22.7,71.6,22.7,71.6,22.6,72z M22,75.6c-0.2-0.3-0.1-0.5,0.2-0.7c-0.3,0-0.6,0-0.6-0.4
							c-0.2,0.4-0.2,0.4-0.6,0.4c0.4,0.2,0.3,0.4,0.2,0.7C21.5,75.3,21.7,75.3,22,75.6z M15.5,75.6c0.3-0.2,0.5-0.2,0.8,0
							c0-0.2-0.1-0.3,0-0.4c0-0.1,0.2-0.2,0.3-0.3c-0.3,0-0.5-0.1-0.6-0.4c-0.1,0.3-0.2,0.5-0.6,0.4C15.5,75.1,15.6,75.3,15.5,75.6z
							 M13.6,72.5c-0.1,0-0.3,0-0.4,0c-0.1-0.1-0.1-0.2-0.2-0.4c-0.1,0.3-0.2,0.5-0.6,0.4c0.3,0.2,0.3,0.4,0.2,0.7
							c0.3-0.2,0.5-0.3,0.8,0C13.2,72.8,13.4,72.6,13.6,72.5z M16.5,72.5c-0.3,0.1-0.6-0.1-0.6-0.4c-0.1,0.3-0.2,0.5-0.6,0.4
							c0.1,0.2,0.3,0.2,0.3,0.3c0,0.1,0,0.2-0.1,0.4c0.3-0.2,0.5-0.2,0.8,0C16.1,72.8,16.2,72.6,16.5,72.5z M15,73.7
							c-0.3,0-0.5-0.1-0.6-0.4c-0.1,0.4-0.3,0.5-0.6,0.4c0.3,0.2,0.3,0.4,0.2,0.7c0.3-0.2,0.5-0.3,0.8,0C14.6,74,14.8,73.9,15,73.7z
							"/>
						<path fill="#2368B5" d="M54.4,85c0,0.6,0,1.1,0,1.7c-14.3,0-28.5,0-42.8,0c0-0.6,0-1.1,0-1.7C25.9,85,40.1,85,54.4,85z"/>
						<path fill="#2368B5" d="M11.6,83.2c0-0.6,0-1.1,0-1.7c14.3,0,28.5,0,42.8,0c0,0.3,0,0.5,0,0.8c0,0.3,0,0.6,0,0.9
							C40.1,83.2,25.9,83.2,11.6,83.2z"/>
						<path fill="#2368B5" d="M11.6,79.7c0-0.6,0-1.1,0-1.7c14.3,0,28.5,0,42.8,0c0,0.5,0,1.1,0,1.7C40.1,79.7,25.9,79.7,11.6,79.7z
							"/>
					</g>
				</g>
			</g>
			<g>
				<path fill="#0C56AB" d="M23,64.2c6.3,0,11.5,5.1,11.5,11.5c0,6.3-5.1,11.5-11.5,11.5c-6.3,0-11.5-5.1-11.5-11.5
					C11.6,69.3,16.7,64.2,23,64.2 M23,63.2c-6.9,0-12.4,5.6-12.4,12.4S16.2,88.1,23,88.1c6.9,0,12.4-5.6,12.4-12.4
					S29.9,63.2,23,63.2L23,63.2z"/>
			</g>
		</g>
		<g>
			<g>
				<g>
					<path fill="#0C56AB" d="M40.9,37c10.4,0,18.8,8.4,18.8,18.8s-8.4,18.8-18.8,18.8c-10.4,0-18.8-8.4-18.8-18.8S30.5,37,40.9,37
						 M40.9,35.3c-11.3,0-20.5,9.2-20.5,20.5s9.2,20.5,20.5,20.5s20.5-9.2,20.5-20.5S52.2,35.3,40.9,35.3L40.9,35.3z"/>
				</g>
			</g>
			<circle fill="none" stroke="#FFFFFF" stroke-width="0.992" stroke-miterlimit="10" cx="40.9" cy="55.8" r="18.8"/>
			<g>
				<defs>
					<circle id="SVGID_3_" cx="40.9" cy="55.8" r="18.7"/>
				</defs>
				<clipPath id="SVGID_4_">
					<use xlink:href="#SVGID_3_"  overflow="visible"/>
				</clipPath>
				<circle clip-path="url(#SVGID_4_)" fill="#FFFFFF" cx="40.9" cy="55.8" r="19.4"/>
				<g id="yq35wh_1_" clip-path="url(#SVGID_4_)">
					<g>
						<path fill="#2368B5" d="M27.6,51.1c0.1-0.5,0.2-1,0.2-1.4c0-0.1,0-0.3-0.1-0.4c-0.4-0.3-0.7-0.7-1.1-1c0,0,0-0.1,0-0.1
							c0.3,0,0.6-0.1,0.9-0.1c0.1,0,0.2,0,0.2,0c0.4,0,0.5-0.2,0.6-0.5c0.1-0.4,0.3-0.7,0.5-1.1c0.2,0.5,0.4,0.9,0.6,1.3
							c0.1,0.1,0.1,0.2,0.3,0.2c0.5,0.1,0.9,0.1,1.4,0.2c-0.2,0.3-0.4,0.5-0.7,0.7c-0.4,0.3-0.5,0.7-0.3,1.1c0.1,0.3,0.1,0.6,0.2,1
							c-0.3-0.2-0.7-0.3-1-0.5c-0.3-0.2-0.6-0.2-1,0C28.3,50.8,28,50.9,27.6,51.1z"/>
						<path fill="#2368B5" d="M47.8,64.4c0.2,0.5,0.4,0.9,0.6,1.3c0.1,0.2,0.2,0.2,0.3,0.2c0.4,0.1,0.9,0.1,1.3,0.2c0,0,0,0,0.1,0
							c-0.1,0.1-0.3,0.3-0.4,0.4c-0.2,0.2-0.3,0.3-0.5,0.5c-0.3,0.2-0.3,0.5-0.2,0.8c0.1,0.4,0.1,0.8,0.2,1.2
							c-0.4-0.2-0.8-0.4-1.2-0.7c-0.2-0.1-0.3-0.1-0.5,0c-0.4,0.2-0.8,0.4-1.2,0.7c0.1-0.4,0.1-0.8,0.2-1.2c0.1-0.3,0-0.5-0.2-0.8
							c-0.3-0.3-0.6-0.6-0.9-0.8c0,0,0,0,0-0.1c0.3,0,0.7-0.1,1-0.1c0.5,0,0.7-0.2,0.9-0.6C47.5,65.1,47.7,64.8,47.8,64.4z"/>
						<path fill="#2368B5" d="M52.8,46.5c0.2,0.5,0.4,0.9,0.6,1.3c0.1,0.1,0.1,0.2,0.3,0.2c0.5,0.1,0.9,0.1,1.4,0.2
							c-0.1,0.1-0.1,0.1-0.2,0.2c-0.3,0.3-0.6,0.6-0.9,0.9c-0.1,0.1-0.1,0.2-0.1,0.3c0.1,0.5,0.2,0.9,0.2,1.4C54.1,51,54,51,54,51
							c-0.4-0.2-0.7-0.4-1.1-0.6c-0.1-0.1-0.2-0.1-0.4,0c-0.4,0.2-0.8,0.5-1.3,0.7c0.1-0.4,0.1-0.9,0.2-1.3c0.1-0.3,0-0.5-0.2-0.7
							c-0.3-0.3-0.6-0.6-0.9-0.9c0.5-0.1,0.9-0.1,1.3-0.2c0.2,0,0.3-0.1,0.4-0.3C52.3,47.3,52.6,46.9,52.8,46.5z"/>
						<path fill="#2368B5" d="M36.3,66.2c-0.4,0.3-0.7,0.7-1.1,1c-0.1,0.1-0.1,0.2-0.1,0.3c0.1,0.4,0.1,0.8,0.2,1.2
							c0,0.1,0,0.1,0,0.2c-0.4-0.2-0.8-0.4-1.2-0.7c-0.2-0.1-0.3-0.1-0.4,0c-0.4,0.2-0.8,0.4-1.2,0.7c0.1-0.4,0.1-0.8,0.2-1.2
							c0.1-0.3,0-0.6-0.2-0.8c-0.3-0.3-0.5-0.6-0.8-0.9c0.3,0,0.5-0.1,0.7-0.1c0.2,0,0.5-0.1,0.7-0.1c0.1,0,0.2-0.1,0.2-0.2
							c0.2-0.4,0.4-0.9,0.6-1.4c0.2,0.4,0.4,0.8,0.5,1.2c0.1,0.2,0.2,0.4,0.5,0.4C35.5,66,35.9,66.1,36.3,66.2
							C36.3,66.2,36.3,66.2,36.3,66.2z"/>
						<path fill="#2368B5" d="M26,58.1c0.1-0.5,0.2-1,0.3-1.5c0-0.1,0-0.2-0.1-0.3c-0.3-0.3-0.6-0.6-0.9-0.9c0,0-0.1-0.1-0.1-0.1
							c0.5-0.1,1-0.2,1.4-0.3c0.1,0,0.2-0.1,0.2-0.2c0.2-0.4,0.4-0.9,0.6-1.4c0.1,0.2,0.2,0.3,0.2,0.5c0.1,0.1,0.1,0.2,0.2,0.3
							c0.1,0.2,0.2,0.5,0.4,0.7c0.2,0.1,0.5,0.1,0.8,0.2c0.3,0,0.5,0.1,0.8,0.1c0,0.1-0.1,0.1-0.1,0.1c-0.3,0.3-0.6,0.6-0.9,0.9
							c-0.1,0.1-0.1,0.2-0.1,0.3c0.1,0.5,0.1,0.9,0.2,1.5c-0.3-0.2-0.7-0.3-1-0.6c-0.3-0.2-0.6-0.2-0.9,0
							C26.7,57.8,26.4,57.9,26,58.1z"/>
						<path fill="#2368B5" d="M53,58.1c0.1-0.5,0.1-1,0.2-1.5c0-0.1,0-0.2-0.1-0.3c-0.3-0.3-0.6-0.7-1-1c0.4-0.1,0.7-0.2,1-0.2
							c0.5,0,0.8-0.2,0.9-0.7c0.1-0.3,0.3-0.6,0.4-0.9c0,0,0,0,0,0c0.1,0.3,0.3,0.6,0.4,0.9c0.2,0.5,0.4,0.7,1,0.7
							c0.3,0,0.6,0.1,0.9,0.2c-0.1,0.1-0.1,0.1-0.1,0.2c-0.3,0.3-0.6,0.6-0.9,0.9c-0.1,0.1-0.1,0.2-0.1,0.3c0.1,0.5,0.2,0.9,0.2,1.4
							c0,0,0,0,0,0c-0.1-0.1-0.3-0.1-0.4-0.2c-0.3-0.1-0.5-0.3-0.8-0.5c-0.1-0.1-0.2-0.1-0.3,0C53.8,57.7,53.4,57.9,53,58.1z"/>
						<path fill="#2368B5" d="M45.5,43.6c0.5-0.1,1-0.2,1.4-0.3c0.1,0,0.2-0.1,0.3-0.2c0.2-0.4,0.4-0.8,0.6-1.2
							c0.2,0.4,0.4,0.8,0.6,1.3c0.1,0.1,0.1,0.2,0.3,0.2c0.5,0.1,0.9,0.2,1.4,0.3c0,0.1-0.1,0.1-0.1,0.1c-0.3,0.3-0.6,0.6-0.9,0.9
							C49,44.7,49,44.8,49,44.9c0.1,0.5,0.1,1,0.2,1.5c-0.1,0-0.1,0-0.2-0.1c-0.4-0.2-0.7-0.4-1.1-0.6c-0.1-0.1-0.2-0.1-0.3,0
							c-0.3,0.2-0.7,0.4-1,0.6c-0.1,0-0.1,0.1-0.2,0.1c0.1-0.3,0.1-0.6,0.1-0.9c0-0.1,0-0.1,0-0.2c0.2-0.4,0-0.6-0.3-0.9
							C46,44.2,45.8,43.9,45.5,43.6z"/>
						<path fill="#2368B5" d="M35.4,46.4c-0.4-0.2-0.8-0.4-1.1-0.6c-0.2-0.1-0.4-0.1-0.6,0c-0.3,0.2-0.7,0.4-1.1,0.6
							c0.1-0.4,0.1-0.8,0.1-1.2c0.1-0.3,0-0.6-0.3-0.8c-0.3-0.2-0.5-0.5-0.8-0.8c0.5-0.1,1-0.2,1.4-0.3c0.1,0,0.2-0.1,0.3-0.2
							c0.2-0.4,0.4-0.8,0.6-1.3c0.2,0.3,0.3,0.6,0.4,0.9c0.2,0.5,0.5,0.7,0.9,0.7c0.3,0,0.6,0.1,1,0.2c-0.3,0.2-0.5,0.5-0.7,0.7
							c-0.4,0.3-0.5,0.7-0.4,1.2C35.3,45.7,35.3,46.1,35.4,46.4z"/>
						<path fill="#2368B5" d="M26.7,61.5c0.5-0.1,1-0.2,1.5-0.3c0.1,0,0.2-0.1,0.2-0.2c0.2-0.4,0.4-0.7,0.5-1.1
							c0-0.1,0.1-0.1,0.1-0.2c0.2,0.4,0.4,0.9,0.6,1.3c0.1,0.1,0.1,0.2,0.2,0.2c0.5,0.1,0.9,0.2,1.4,0.3c-0.1,0.1-0.3,0.3-0.4,0.4
							c0,0,0,0,0,0c-0.2,0.3-0.6,0.5-0.7,0.8c-0.1,0.3,0.1,0.7,0.1,1c0,0.2,0.1,0.4,0.1,0.6c-0.5-0.2-0.9-0.5-1.3-0.7
							c-0.1-0.1-0.2-0.1-0.3,0c-0.3,0.2-0.7,0.4-1,0.6c-0.1,0-0.1,0.1-0.2,0.1c0.1-0.4,0.1-0.8,0.2-1.2c0.1-0.3,0-0.6-0.2-0.8
							C27.3,62.1,27,61.8,26.7,61.5z"/>
						<path fill="#2368B5" d="M51.3,64.3c0.1-0.5,0.2-1,0.2-1.5c0-0.1,0-0.2-0.1-0.3c-0.3-0.3-0.7-0.7-1-1c0,0,0,0,0-0.1
							c0.3,0,0.5-0.1,0.8-0.1c0.2,0,0.4-0.1,0.7-0.1c0.1,0,0.2-0.1,0.2-0.2c0.2-0.4,0.4-0.8,0.6-1.3c0.1,0.3,0.3,0.6,0.4,0.9
							c0.2,0.4,0.4,0.7,0.9,0.7c0.3,0,0.6,0.1,0.9,0.2c0,0,0,0,0,0c-0.1,0.1-0.2,0.2-0.3,0.3c-0.2,0.2-0.5,0.5-0.7,0.7
							c-0.1,0.1-0.1,0.2-0.1,0.4c0.1,0.4,0.1,0.8,0.2,1.2c0,0.1,0,0.1,0,0.2c-0.4-0.2-0.8-0.4-1.2-0.7c-0.1-0.1-0.3-0.1-0.4,0
							C52.1,63.8,51.7,64.1,51.3,64.3z"/>
						<path fill="#2368B5" d="M43.2,69.1c-0.3,0.3-0.6,0.6-0.9,0.9c-0.2,0.2-0.2,0.3-0.2,0.6c0.1,0.4,0.1,0.8,0.2,1.3
							c-0.3-0.2-0.7-0.3-0.9-0.5c-0.3-0.2-0.6-0.2-0.9,0c-0.3,0.2-0.6,0.3-0.9,0.5c0-0.4,0.1-0.7,0.1-1c0.1-0.4,0-0.8-0.3-1
							c-0.3-0.2-0.5-0.4-0.7-0.7c0,0,0,0,0-0.1c0.4-0.1,0.9-0.1,1.3-0.2c0.2,0,0.3-0.1,0.4-0.3c0.2-0.4,0.4-0.8,0.6-1.3
							c0,0.1,0.1,0.1,0.1,0.2c0.2,0.4,0.4,0.7,0.5,1.1c0.1,0.2,0.2,0.2,0.3,0.2C42.3,69,42.7,69,43.2,69.1z"/>
						<path fill="#2368B5" d="M39.5,44.2c0.1-0.5,0.1-1,0.2-1.4c0-0.2,0-0.3-0.1-0.4c-0.3-0.3-0.6-0.6-1-0.9c0,0,0,0,0-0.1
							c0.2,0,0.3-0.1,0.5-0.1c0.3,0,0.6-0.1,1-0.1c0.1,0,0.2-0.1,0.2-0.2c0.2-0.4,0.4-0.9,0.6-1.3c0,0.1,0.1,0.1,0.1,0.2
							c0.2,0.4,0.4,0.8,0.6,1.2c0,0.1,0.1,0.1,0.2,0.1c0.5,0.1,1,0.1,1.5,0.2c-0.3,0.4-0.7,0.7-1,1c-0.1,0.1-0.1,0.2-0.1,0.4
							c0.1,0.5,0.1,0.9,0.2,1.4c-0.1-0.1-0.3-0.1-0.4-0.2c-0.3-0.2-0.6-0.3-0.9-0.5c-0.1-0.1-0.2-0.1-0.3,0
							C40.3,43.8,39.9,44,39.5,44.2z"/>
					</g>
				</g>
			</g>
		</g>
	</g>
</g>
<g>
</g>
<g>
</g>
<g>
</g>
<g>
</g>
<g>
</g>
<g>
</g>
<g>
</g>
<g>
</g>
<g>
</g>
<g>
</g>
<g>
</g>
<g>
</g>
<g>
</g>
<g>
</g>
<g>
</g>
</svg>
