<?xml version="1.0" encoding="utf-8"?>
<!-- Generator: Adobe Illustrator 18.0.0, SVG Export Plug-In . SVG Version: 6.00 Build 0)  -->
<!DOCTYPE svg PUBLIC "-//W3C//DTD SVG 1.1//EN" "http://www.w3.org/Graphics/SVG/1.1/DTD/svg11.dtd">
<svg version="1.1" id="Layer_1" xmlns="http://www.w3.org/2000/svg" xmlns:xlink="http://www.w3.org/1999/xlink" x="0px" y="0px"
	 viewBox="0 0 107.1 102.4" enable-background="new 0 0 107.1 102.4" xml:space="preserve">
<g>
	<g>
		<polygon fill="#BCBEC0" points="33.7,68.2 27.8,76.2 20.4,79.7 18.7,81.7 15.8,79.7 18,74 23.4,70.8 26,61.9 31,57.6 		"/>
		<path fill="#2B3990" d="M20.9,77.7c-0.8,0-1.6-0.1-2.3-0.3l0.2-0.1c-0.1,0.4-0.2,0.9-0.2,1.3c0,0.2-0.1,0.4-0.2,0.6
			c-0.1,0.2-0.1,0.4-0.2,0.6c0-0.2,0-0.4,0-0.7c0-0.2,0-0.4,0.1-0.7c0.1-0.4,0.1-0.9,0.2-1.3l0-0.2l0.2,0
			C19.4,77.3,20.1,77.4,20.9,77.7z"/>
		<g>
			<g>
				<circle fill="#F7A823" cx="11.4" cy="91.8" r="10.4"/>
				<path fill="#58595B" d="M11.4,102.4c-5.8,0-10.6-4.7-10.6-10.6c0-5.8,4.7-10.6,10.6-10.6S22,86,22,91.8
					C22,97.6,17.3,102.4,11.4,102.4z M11.4,81.5c-5.7,0-10.3,4.6-10.3,10.3c0,5.7,4.6,10.3,10.3,10.3s10.3-4.6,10.3-10.3
					C21.7,86.1,17.1,81.5,11.4,81.5z"/>
			</g>
			<g>
				<circle fill="#414042" cx="11.4" cy="91.8" r="9.1"/>
				<path fill="#6D6E71" d="M11.4,101c-5.1,0-9.2-4.1-9.2-9.2c0-5.1,4.1-9.2,9.2-9.2s9.2,4.1,9.2,9.2C20.7,96.9,16.5,101,11.4,101z
					 M11.4,82.9c-4.9,0-8.9,4-8.9,8.9c0,4.9,4,8.9,8.9,8.9s8.9-4,8.9-8.9C20.3,86.9,16.3,82.9,11.4,82.9z"/>
			</g>
			<path fill="#58595B" d="M11.4,101.7c-5.5,0-9.9-4.5-9.9-9.9c0-5.5,4.5-9.9,9.9-9.9s9.9,4.5,9.9,9.9
				C21.4,97.3,16.9,101.7,11.4,101.7z M11.4,82c-5.4,0-9.8,4.4-9.8,9.8c0,5.4,4.4,9.8,9.8,9.8s9.8-4.4,9.8-9.8
				C21.2,86.4,16.8,82,11.4,82z"/>
			<g>
				<path fill="#F7A823" d="M13.8,88.8c-0.6-0.6-1.2-0.9-2-0.9c-0.9,0-1.4,0.4-1.4,1.3c0,1.9,4.7,1.6,4.7,5.1c0,1.7-0.9,2.9-2.7,3.3
					v1.8h-1.5v-1.7c-1-0.1-2.2-0.6-3.1-1.3l1-1.5c0.8,0.7,1.7,1,2.5,1c1.1,0,1.6-0.5,1.6-1.4c0-2.1-4.7-1.9-4.7-5.1
					c0-1.7,1-2.8,2.6-3.1v-1.8h1.5v1.8c1.1,0.2,1.9,0.7,2.6,1.4L13.8,88.8z"/>
			</g>
		</g>
		<g>
			<polygon fill="#BCBEC0" points="42.2,38.1 15.2,39.2 26,61.9 51,51.6 			"/>
			<polygon fill="#BCBEC0" points="26,61.9 17.8,66.9 6.2,51.1 15.2,39.2 23.3,44.3 			"/>
			<polygon fill="#BCBEC0" points="42.5,54.9 33.7,68.2 26,61.9 29.9,52.7 			"/>
			<polygon fill="#BCBEC0" points="17.8,66.9 10.2,73.1 9,77.8 13.7,79.3 15.6,82.7 10.7,86.7 2.6,80.4 1.7,74.4 7.7,63.8 
				15.5,60.3 19.9,61.9 			"/>
			<polygon fill="#BCBEC0" points="6.2,51.1 0,64.5 4.2,71.8 14.1,65.1 18.7,56.5 			"/>
			<path fill="#2B3990" d="M11.1,54.2c-1,1.1-2.1,2.1-3.1,3.1c-1,1-2.1,2-3.2,3.1l0,0c-0.3,0.5-0.6,1-0.9,1.5L3,63.3
				c-0.6,1-1.2,1.9-1.9,2.9c0.5-1,1.1-2,1.7-3l0.9-1.5c0.3-0.5,0.6-1,0.9-1.5l0,0l0,0c1.1-1,2.1-2,3.2-3C8.9,56.2,10,55.2,11.1,54.2
				z"/>
			<path fill="#2B3990" d="M13.9,57.5c-1,1.1-2,2.2-3,3.2c-1,1.1-2,2.1-3,3.2l0,0c-0.3,0.6-0.7,1.1-1,1.7l-1,1.7
				c-0.7,1.1-1.4,2.2-2.1,3.3c0.6-1.1,1.3-2.3,1.9-3.4l1-1.7c0.3-0.6,0.7-1.1,1-1.7l0,0l0,0c1-1,2-2.1,3.1-3.1
				C11.8,59.6,12.8,58.5,13.9,57.5z"/>
			<path fill="#2B3990" d="M4.6,54.8c0.3-0.4,0.5-0.7,0.8-1.1c0.3-0.3,0.6-0.7,0.9-1c0.6-0.7,1.2-1.3,1.8-2l0,0l0,0
				c0.8-0.2,1.6-0.4,2.4-0.6c-0.8,0.3-1.5,0.6-2.3,0.9l0.1,0c-0.6,0.7-1.2,1.3-1.8,2c-0.3,0.3-0.6,0.6-0.9,1
				C5.3,54.2,5,54.5,4.6,54.8z"/>
			<path fill="#2B3990" d="M16.7,43.6c0.1,0.3,0.2,0.6,0.2,0.8c0.1,0.3,0.2,0.6,0.2,0.8l0.4,1.7l-0.1-0.1c0.8,0.4,1.6,0.8,2.3,1.2
				l0.1,0l0,0.1c0.3,0.9,0.6,1.8,0.9,2.8l0-0.1l1.2,1c0.4,0.3,0.8,0.7,1.2,1c-0.4-0.3-0.8-0.6-1.3-0.9L20.7,51l0,0l0,0
				c-0.3-0.9-0.6-1.8-1-2.7l0.1,0.1c-0.8-0.4-1.5-0.8-2.3-1.2l-0.1,0l0-0.1L17,45.3c-0.1-0.3-0.1-0.6-0.2-0.9
				C16.8,44.2,16.8,43.9,16.7,43.6z"/>
		</g>
		<path fill="#2B3990" d="M7,82.7c0.7-0.3,1.3-0.5,2-0.7l0.1,0l0.1,0.1c0.4,0.4,0.9,0.8,1.3,1.2c0.4,0.4,0.8,0.9,1.2,1.3
			c-0.5-0.3-0.9-0.7-1.4-1.1c-0.4-0.4-0.9-0.8-1.3-1.2l0.1,0C8.4,82.5,7.7,82.7,7,82.7z"/>
	</g>
	<polygon fill="#573392" points="107.1,42.9 56.9,61.1 39.7,35.1 104.5,0 	"/>
	<path fill="#7F58A5" d="M104.5,0c0,0-55.2,32.3-55.2,33.3s7.6,27.8,7.6,27.8l-17.2-26L104.5,0z"/>
</g>
<g>
</g>
<g>
</g>
<g>
</g>
<g>
</g>
<g>
</g>
<g>
</g>
<g>
</g>
<g>
</g>
<g>
</g>
<g>
</g>
<g>
</g>
<g>
</g>
<g>
</g>
<g>
</g>
<g>
</g>
</svg>
