<?xml version="1.0" encoding="utf-8"?>
<!-- Generator: Adobe Illustrator 18.0.0, SVG Export Plug-In . SVG Version: 6.00 Build 0)  -->
<!DOCTYPE svg PUBLIC "-//W3C//DTD SVG 1.1//EN" "http://www.w3.org/Graphics/SVG/1.1/DTD/svg11.dtd">
<svg version="1.1" id="Layer_1" xmlns="http://www.w3.org/2000/svg" xmlns:xlink="http://www.w3.org/1999/xlink" x="0px" y="0px"
	 viewBox="0 0 402.8 336.6" enable-background="new 0 0 402.8 336.6" xml:space="preserve">
<g>
	<linearGradient id="SVGID_1_" gradientUnits="userSpaceOnUse" x1="201.3955" y1="74.0977" x2="201.3955" y2="7.5404">
		<stop  offset="0" style="stop-color:#E6E7E8;stop-opacity:0.1"/>
		<stop  offset="0.6107" style="stop-color:#E6E7E8;stop-opacity:0.8856"/>
		<stop  offset="0.6907" style="stop-color:#ECEAB3;stop-opacity:0.9091"/>
		<stop  offset="0.843" style="stop-color:#F6EE54;stop-opacity:0.9539"/>
		<stop  offset="0.9495" style="stop-color:#FCF117;stop-opacity:0.9851"/>
		<stop  offset="1" style="stop-color:#FFF200"/>
	</linearGradient>
	<path opacity="0.3" fill="url(#SVGID_1_)" d="M402.8,82.8C350,33.2,277.9,2.7,198.4,2.7C121.9,2.7,52.2,30.9,0,77.2v259.4h398.8
		L402.8,82.8z"/>
	<g>
		<path fill="#0C56AB" d="M35.4,51.4c3-2.1,5.9-4.4,9-6.4l4.6-3c1.5-1,3.1-2,4.7-2.9c6.3-3.8,12.8-7.4,19.4-10.7
			c13.3-6.5,27.1-11.9,41.3-16.1c14.2-4.3,28.7-7.3,43.4-9.4c14.7-2,29.5-2.9,44.3-2.8c14.8,0.2,29.6,1.3,44.2,3.6
			C260.9,6,275.3,9.4,289.4,14c14.1,4.5,27.8,10.2,40.9,17.1c1.7,0.8,3.3,1.7,4.9,2.6l4.8,2.7c1.6,0.9,3.2,1.9,4.7,2.9l4.7,2.9
			c1.6,0.9,3.1,2.1,4.6,3.1l4.6,3.1c3,2.2,5.9,4.5,8.8,6.7c-3.1-2.1-6.1-4.2-9.1-6.2c-3.1-1.9-6.2-4-9.4-5.8l-4.8-2.7
			c-1.6-0.9-3.2-1.8-4.8-2.7l-4.9-2.5c-1.6-0.8-3.3-1.7-4.9-2.4c-13.2-6.4-26.9-11.6-40.9-15.9c-14-4.2-28.3-7.4-42.8-9.6
			C231.2,5.2,216.6,4.1,202,4c-14.6-0.2-29.3,0.7-43.8,2.5c-14.5,1.8-28.9,4.7-43,8.6c-14.1,3.9-27.9,8.9-41.3,14.9
			c-6.7,3-13.3,6.3-19.7,9.8c-1.6,0.8-3.2,1.8-4.8,2.7l-4.7,2.8C41.6,47.4,38.5,49.4,35.4,51.4z"/>
	</g>
</g>
<g>
</g>
<g>
</g>
<g>
</g>
<g>
</g>
<g>
</g>
<g>
</g>
<g>
</g>
<g>
</g>
<g>
</g>
<g>
</g>
<g>
</g>
<g>
</g>
<g>
</g>
<g>
</g>
<g>
</g>
</svg>
