<?xml version="1.0" encoding="utf-8"?>
<!-- Generator: Adobe Illustrator 18.0.0, SVG Export Plug-In . SVG Version: 6.00 Build 0)  -->
<!DOCTYPE svg PUBLIC "-//W3C//DTD SVG 1.1//EN" "http://www.w3.org/Graphics/SVG/1.1/DTD/svg11.dtd">
<svg version="1.1" id="Layer_1" xmlns="http://www.w3.org/2000/svg" xmlns:xlink="http://www.w3.org/1999/xlink" x="0px" y="0px"
	 viewBox="0 0 274.7 362.4" enable-background="new 0 0 274.7 362.4" xml:space="preserve">
<g>
	<path fill="#7F58A5" d="M57.1,0.3H0.2C0.1,0.3,0,0.2,0,0.2S0.1,0,0.2,0h56.9c0.1,0,0.2,0.1,0.2,0.2S57.2,0.3,57.1,0.3z"/>
	<path fill="#7F58A5" d="M250.1,34.8c-0.1,0-0.2-0.1-0.2-0.2c0-4.6,3.8-8.4,8.4-8.4h3.1c7.2,0,13-5.8,13-13s-5.8-13-13-13H182
		c-0.1,0-0.2-0.1-0.2-0.2S181.9,0,182,0h79.4c7.3,0,13.3,6,13.3,13.3s-6,13.3-13.3,13.3h-3.1c-4.4,0-8.1,3.6-8.1,8.1
		C250.3,34.7,250.2,34.8,250.1,34.8z"/>
	<path fill="#7F58A5" d="M246.1,117H73.6c-0.1,0-0.2-0.1-0.2-0.2s0.1-0.2,0.2-0.2h172.5c4.5,0,8.1-3.6,8.1-8.1V107
		c0-0.1,0.1-0.2,0.2-0.2h12.9c0.1,0,0.2,0.1,0.2,0.2c0,0.1-0.1,0.2-0.2,0.2h-12.8v1.4C254.5,113.2,250.8,117,246.1,117z"/>
	<path fill="#7F58A5" d="M32.3,362.4h-7.7c-2.4,0-4.3-1.9-4.3-4.3v-52.6c0-0.1,0.1-0.2,0.2-0.2s0.2,0.1,0.2,0.2v52.6
		c0,2.2,1.8,4,4,4h7.7c0.1,0,0.2,0.1,0.2,0.2C32.4,362.3,32.4,362.4,32.3,362.4z"/>
	<path fill="#7F58A5" d="M18.7,294.3c-0.1,0-0.2-0.1-0.2-0.2V144.7c0-0.1,0.1-0.2,0.2-0.2c0.1,0,0.2,0.1,0.2,0.2v149.5
		C18.8,294.2,18.8,294.3,18.7,294.3z"/>
	<path fill="#7F58A5" d="M18.7,139.7C18.7,139.7,18.7,139.7,18.7,139.7c-0.1,0-0.2-0.1-0.2-0.2c0-7.7-2.2-11.7-6.7-11.7H0.7
		c-0.1,0-0.2-0.1-0.2-0.2s0.1-0.2,0.2-0.2h11.2c4.1,0,6.5,3.2,6.9,9.6c0.2-1,0.4-2.3,0.8-3.6c1.3-3.9,3.4-6,6.2-6h47.8
		c5.9,0,10.8-4.8,10.8-10.8c0-0.1,0.1-0.2,0.2-0.2c0.1,0,0.2,0.1,0.2,0.2c0,6.1-5,11.1-11.1,11.1H25.7c-2.7,0-4.7,2-5.9,5.8
		c-0.9,2.9-1,5.8-1,5.9C18.8,139.6,18.7,139.7,18.7,139.7z"/>
	<path fill="#7F58A5" d="M123.9,31H23.1c-0.1,0-0.2-0.1-0.2-0.2s0.1-0.2,0.2-0.2h100.7c0.1,0,0.2,0.1,0.2,0.2S123.9,31,123.9,31z"/>
	<path fill="#7F58A5" d="M30.5,356.9c-2.6,0-4.1-0.2-4.8-1.3c-0.7-1-0.7-2.7-0.7-5.8l0-0.4V238.7c0-0.1,0.1-0.2,0.2-0.2
		c0.1,0,0.2,0.1,0.2,0.2l0,111.2c0,2.9,0,4.7,0.6,5.6c0.6,0.9,1.7,1.1,4.6,1.1c0.1,0,0.2,0.1,0.2,0.2
		C30.7,356.8,30.6,356.9,30.5,356.9z"/>
	<path fill="#7F58A5" d="M25.2,181.5c-0.1,0-0.2-0.1-0.2-0.2v-38.5c0-4.4,3.6-7.9,7.9-7.9h23.6c0.1,0,0.2,0.1,0.2,0.2
		s-0.1,0.2-0.2,0.2H33c-4.2,0-7.6,3.4-7.6,7.6v38.5C25.3,181.4,25.3,181.5,25.2,181.5z"/>
	<rect x="14.1" y="158.5" fill="#7F58A5" width="0.3" height="190.4"/>
</g>
<g>
</g>
<g>
</g>
<g>
</g>
<g>
</g>
<g>
</g>
<g>
</g>
<g>
</g>
<g>
</g>
<g>
</g>
<g>
</g>
<g>
</g>
<g>
</g>
<g>
</g>
<g>
</g>
<g>
</g>
</svg>
