<?xml version="1.0" encoding="utf-8"?>
<!-- Generator: Adobe Illustrator 18.0.0, SVG Export Plug-In . SVG Version: 6.00 Build 0)  -->
<!DOCTYPE svg PUBLIC "-//W3C//DTD SVG 1.1//EN" "http://www.w3.org/Graphics/SVG/1.1/DTD/svg11.dtd">
<svg version="1.1" id="Layer_1" xmlns="http://www.w3.org/2000/svg" xmlns:xlink="http://www.w3.org/1999/xlink" x="0px" y="0px"
	 viewBox="0 0 287.2 164.3" enable-background="new 0 0 287.2 164.3" xml:space="preserve">
<g>
	<g>
		<g>
			<path fill="#A7A9AC" d="M9,155.8H7.5v-0.3H9V155.8z M9.4,158.5c-0.4,0.3-1.1,0.5-1.6,0.6c-0.1-0.1-0.2-0.2-0.3-0.3
				c0.5-0.1,1.2-0.3,1.5-0.5L9.4,158.5z M8.9,155H7.6v-0.3h1.3V155z M8.2,156.2h3.4v2.1H8.2V156.2z M8.6,156.8h2.6v-0.4H8.6V156.8z
				 M8.6,157.5h2.6v-0.4H8.6V157.5z M8.6,158.1h2.6v-0.4H8.6V158.1z M9.9,155c-0.1,0.2-0.3,0.4-0.4,0.5c-0.1-0.1-0.2-0.2-0.3-0.2
				c0.3-0.2,0.5-0.6,0.6-1l0.4,0.1c0,0.1-0.1,0.2-0.1,0.3h1.8l0.1,0l0.3,0.1c-0.1,0.3-0.3,0.6-0.4,0.8l-0.3-0.1
				c0.1-0.1,0.2-0.3,0.2-0.4h-0.8v0.1c0,0.1,0,0.1,0,0.2c0.3,0.3,0.9,0.5,1.5,0.6c-0.1,0.1-0.2,0.2-0.2,0.3
				c-0.6-0.1-1.1-0.3-1.4-0.6c-0.2,0.3-0.6,0.5-1.5,0.6c0-0.1-0.1-0.2-0.2-0.3c1.4-0.2,1.5-0.5,1.5-0.8V155H9.9z M10.6,158.4
				c0.6,0.2,1.2,0.4,1.6,0.6l-0.3,0.2c-0.3-0.2-0.9-0.4-1.5-0.6L10.6,158.4z"/>
			<path fill="#A7A9AC" d="M13.7,156.9c-0.1,0.6-0.3,1.3-0.6,1.7c0-0.1-0.1-0.3-0.2-0.4c0.2-0.3,0.4-0.9,0.5-1.4L13.7,156.9z
				 M14.1,156.5v2.7h-0.4v-2.7h-0.8v-0.4h0.8v-1.8h0.4v1.8H15v0.4H14.1z M13.2,155.9c0-0.3-0.2-0.8-0.3-1.2l0.3-0.1
				c0.2,0.4,0.3,0.8,0.3,1.2L13.2,155.9z M14.4,156.8c0.1,0.2,0.5,0.9,0.6,1.1l-0.3,0.3c-0.1-0.3-0.4-1-0.5-1.2L14.4,156.8z
				 M15,154.8c-0.1,0.4-0.3,0.9-0.4,1.2l-0.3-0.1c0.1-0.3,0.3-0.8,0.4-1.2L15,154.8z M17,157.7v1.5h-0.4v-1.4l-1.6,0.3l-0.1-0.4
				l1.7-0.3v-3H17v3l0.6-0.1l0.1,0.4L17,157.7z M16,157c-0.2-0.2-0.6-0.5-0.9-0.6l0.2-0.3c0.3,0.2,0.7,0.4,0.9,0.6L16,157z
				 M16.2,155.7c-0.2-0.2-0.5-0.5-0.8-0.7l0.2-0.3c0.3,0.2,0.7,0.4,0.8,0.6L16.2,155.7z"/>
			<path fill="#A7A9AC" d="M20.9,156.7c0.5,0.8,1.4,1.5,2.2,1.9c-0.1,0.1-0.2,0.2-0.3,0.3c-0.7-0.3-1.4-0.9-2-1.6v1.8h-0.4v-1.8
				c-0.5,0.7-1.2,1.2-1.9,1.6c-0.1-0.1-0.2-0.2-0.3-0.3c0.9-0.3,1.7-1.1,2.2-1.8v-1.3h-2v-0.4h2v-0.7h0.4v0.7H23v0.4h-2.1V156.7z
				 M19.8,155.7c-0.1,0.2-0.1,0.4-0.2,0.6c0.2,0.2,0.5,0.4,0.6,0.6l-0.3,0.3c-0.1-0.1-0.3-0.3-0.5-0.5c-0.2,0.3-0.4,0.6-0.7,0.8
				c-0.1-0.1-0.2-0.2-0.3-0.3c0.5-0.4,0.8-0.9,1-1.6L19.8,155.7z M22.2,155.7c0,0.2-0.1,0.4-0.2,0.6c0.3,0.3,0.7,0.6,1,0.8l-0.3,0.3
				c-0.2-0.2-0.5-0.5-0.8-0.8c-0.1,0.2-0.3,0.5-0.5,0.6c-0.1-0.1-0.2-0.2-0.3-0.2c0.4-0.3,0.6-0.8,0.7-1.4L22.2,155.7z"/>
			<path fill="#A7A9AC" d="M24.6,156.7c-0.2-0.2-0.6-0.4-0.9-0.6l0.2-0.3c0.3,0.2,0.7,0.4,0.9,0.5L24.6,156.7z M24.9,157.4
				c-0.2,0.6-0.5,1.2-0.8,1.7l-0.3-0.2c0.2-0.4,0.6-1.1,0.8-1.7L24.9,157.4z M24.8,155.3c-0.2-0.2-0.6-0.4-0.9-0.6l0.2-0.3
				c0.3,0.2,0.7,0.4,0.9,0.6L24.8,155.3z M25.6,156.1c0,0.9-0.1,2.2-0.7,3.1c-0.1-0.1-0.2-0.2-0.3-0.2c0.6-0.8,0.6-2,0.6-2.9v-1.4
				h3.2v0.4h-2.8V156.1z M26.5,157.8c-0.2,0.4-0.4,0.8-0.7,1.1c-0.1-0.1-0.2-0.1-0.3-0.2c0.2-0.3,0.5-0.6,0.6-1L26.5,157.8z
				 M27.3,157.4v1.4c0,0.2,0,0.3-0.2,0.4c-0.1,0.1-0.4,0.1-0.7,0.1c0-0.1-0.1-0.2-0.1-0.3c0.3,0,0.5,0,0.5,0c0.1,0,0.1,0,0.1-0.1
				v-1.4h-0.9v-1.8h0.8c0.1-0.2,0.1-0.4,0.2-0.5l0.4,0.1c-0.1,0.2-0.1,0.3-0.2,0.4h1.2v1.8H27.3z M26.3,156.3h1.6v-0.5h-1.6V156.3z
				 M26.3,157.1h1.6v-0.5h-1.6V157.1z M28,157.6c0.2,0.3,0.5,0.8,0.6,1l-0.4,0.2c-0.1-0.3-0.4-0.7-0.6-1L28,157.6z"/>
			<path fill="#A7A9AC" d="M29.8,155.5c0-0.2,0.2-0.4,0.4-0.4c0.2,0,0.4,0.2,0.4,0.4c0,0.2-0.2,0.4-0.4,0.4
				C30,155.9,29.8,155.7,29.8,155.5z M29.8,158.1c0-0.2,0.2-0.4,0.4-0.4c0.2,0,0.4,0.2,0.4,0.4c0,0.2-0.2,0.4-0.4,0.4
				C30,158.5,29.8,158.3,29.8,158.1z"/>
			<path fill="#A7A9AC" d="M33,155.3h-1.2v-0.4h2.8v0.4h-1.2v3.5H33V155.3z"/>
			<path fill="#A7A9AC" d="M35.4,154.6h0.5v1.2l0,0.6c0.3-0.3,0.6-0.5,1-0.5c0.6,0,0.9,0.4,0.9,1.1v1.8h-0.5V157
				c0-0.5-0.2-0.8-0.5-0.8c-0.3,0-0.5,0.1-0.8,0.4v2.1h-0.5V154.6z"/>
			<path fill="#A7A9AC" d="M38.5,157.3c0-1,0.6-1.5,1.3-1.5s1.3,0.6,1.3,1.5c0,1-0.6,1.5-1.3,1.5S38.5,158.3,38.5,157.3z
				 M40.7,157.3c0-0.7-0.3-1.1-0.8-1.1c-0.5,0-0.8,0.4-0.8,1.1s0.3,1.1,0.8,1.1C40.4,158.4,40.7,158,40.7,157.3z"/>
			<path fill="#A7A9AC" d="M42.1,155.9h0.4l0,0.4h0c0.2-0.3,0.5-0.5,0.9-0.5c0.4,0,0.7,0.2,0.8,0.5c0.3-0.3,0.6-0.5,0.9-0.5
				c0.6,0,0.9,0.4,0.9,1.1v1.8h-0.5V157c0-0.5-0.2-0.8-0.5-0.8c-0.2,0-0.5,0.1-0.7,0.4v2.1h-0.5V157c0-0.5-0.2-0.8-0.5-0.8
				c-0.2,0-0.5,0.1-0.7,0.4v2.1h-0.5V155.9z"/>
			<path fill="#A7A9AC" d="M46.8,158.4l0.2-0.3c0.2,0.2,0.5,0.3,0.9,0.3c0.4,0,0.6-0.2,0.6-0.4c0-0.3-0.3-0.4-0.7-0.5
				c-0.4-0.1-0.9-0.3-0.9-0.8c0-0.5,0.4-0.8,1-0.8c0.4,0,0.7,0.1,0.9,0.3l-0.2,0.3c-0.2-0.1-0.4-0.3-0.7-0.3c-0.4,0-0.5,0.2-0.5,0.4
				c0,0.3,0.3,0.4,0.6,0.5c0.4,0.2,0.9,0.3,0.9,0.9c0,0.5-0.4,0.8-1,0.8C47.4,158.8,47.1,158.7,46.8,158.4z"/>
			<path fill="#A7A9AC" d="M49.5,157.3c0-1,0.6-1.5,1.3-1.5s1.3,0.6,1.3,1.5c0,1-0.6,1.5-1.3,1.5S49.5,158.3,49.5,157.3z
				 M51.6,157.3c0-0.7-0.3-1.1-0.8-1.1c-0.5,0-0.8,0.4-0.8,1.1s0.3,1.1,0.8,1.1C51.3,158.4,51.6,158,51.6,157.3z"/>
			<path fill="#A7A9AC" d="M53,155.9h0.4l0,0.4h0c0.3-0.3,0.6-0.5,1-0.5c0.6,0,0.9,0.4,0.9,1.1v1.8h-0.5V157c0-0.5-0.2-0.8-0.5-0.8
				c-0.3,0-0.5,0.1-0.8,0.4v2.1H53V155.9z"/>
			<path fill="#A7A9AC" d="M57.7,154.9h1c1.2,0,1.8,0.7,1.8,1.9c0,1.2-0.6,1.9-1.8,1.9h-1V154.9z M58.7,158.4c0.9,0,1.4-0.6,1.4-1.5
				c0-1-0.4-1.5-1.4-1.5h-0.4v3.1H58.7z"/>
			<path fill="#A7A9AC" d="M61.3,158c0-0.6,0.5-0.9,1.8-1.1c0-0.4-0.1-0.7-0.6-0.7c-0.3,0-0.6,0.2-0.9,0.3l-0.2-0.3
				c0.3-0.2,0.7-0.4,1.1-0.4c0.7,0,1,0.5,1,1.2v1.8h-0.4l0-0.3h0c-0.3,0.2-0.6,0.4-1,0.4C61.6,158.8,61.3,158.5,61.3,158z M63,158.1
				v-0.8c-1,0.1-1.3,0.4-1.3,0.7c0,0.3,0.2,0.5,0.5,0.5C62.5,158.5,62.8,158.3,63,158.1z"/>
			<path fill="#A7A9AC" d="M64.6,157.9v-1.6h-0.4v-0.4l0.4,0l0.1-0.8H65v0.8h0.8v0.4H65v1.6c0,0.4,0.1,0.6,0.4,0.6
				c0.1,0,0.2,0,0.3-0.1l0.1,0.4c-0.2,0.1-0.4,0.1-0.5,0.1C64.8,158.8,64.6,158.5,64.6,157.9z"/>
			<path fill="#A7A9AC" d="M66.3,158c0-0.6,0.5-0.9,1.8-1.1c0-0.4-0.1-0.7-0.6-0.7c-0.3,0-0.6,0.2-0.9,0.3l-0.2-0.3
				c0.3-0.2,0.7-0.4,1.1-0.4c0.7,0,1,0.5,1,1.2v1.8h-0.4l0-0.3h0c-0.3,0.2-0.6,0.4-1,0.4C66.7,158.8,66.3,158.5,66.3,158z
				 M68.1,158.1v-0.8c-1,0.1-1.3,0.4-1.3,0.7c0,0.3,0.2,0.5,0.5,0.5C67.6,158.5,67.8,158.3,68.1,158.1z"/>
			<path fill="#A7A9AC" d="M69.3,158.4l0.2-0.3c0.2,0.2,0.5,0.3,0.9,0.3c0.4,0,0.6-0.2,0.6-0.4c0-0.3-0.3-0.4-0.7-0.5
				c-0.4-0.1-0.9-0.3-0.9-0.8c0-0.5,0.4-0.8,1-0.8c0.4,0,0.7,0.1,0.9,0.3l-0.2,0.3c-0.2-0.1-0.4-0.3-0.7-0.3c-0.4,0-0.5,0.2-0.5,0.4
				c0,0.3,0.3,0.4,0.6,0.5c0.4,0.2,0.9,0.3,0.9,0.9c0,0.5-0.4,0.8-1,0.8C69.9,158.8,69.5,158.7,69.3,158.4z"/>
			<path fill="#A7A9AC" d="M72.2,157.9v-1.6h-0.4v-0.4l0.4,0l0.1-0.8h0.4v0.8h0.8v0.4h-0.8v1.6c0,0.4,0.1,0.6,0.4,0.6
				c0.1,0,0.2,0,0.3-0.1l0.1,0.4c-0.2,0.1-0.4,0.1-0.5,0.1C72.4,158.8,72.2,158.5,72.2,157.9z"/>
			<path fill="#A7A9AC" d="M74.2,155.9h0.4l0,0.5h0c0.2-0.4,0.5-0.6,0.8-0.6c0.1,0,0.2,0,0.3,0.1l-0.1,0.4c-0.1,0-0.2,0-0.3,0
				c-0.2,0-0.5,0.2-0.7,0.7v1.8h-0.5V155.9z"/>
			<path fill="#A7A9AC" d="M76.1,157.3c0-0.9,0.6-1.5,1.3-1.5c0.7,0,1.1,0.5,1.1,1.3c0,0.1,0,0.2,0,0.3h-1.9c0,0.6,0.4,1,1,1
				c0.3,0,0.5-0.1,0.7-0.2l0.2,0.3c-0.3,0.2-0.6,0.3-1,0.3C76.7,158.8,76.1,158.3,76.1,157.3z M78.1,157.1c0-0.6-0.3-0.9-0.7-0.9
				c-0.4,0-0.8,0.3-0.8,0.9H78.1z"/>
			<path fill="#A7A9AC" d="M79.1,158c0-0.6,0.5-0.9,1.8-1.1c0-0.4-0.1-0.7-0.6-0.7c-0.3,0-0.6,0.2-0.9,0.3l-0.2-0.3
				c0.3-0.2,0.7-0.4,1.1-0.4c0.7,0,1,0.5,1,1.2v1.8h-0.4l0-0.3h0c-0.3,0.2-0.6,0.4-1,0.4C79.5,158.8,79.1,158.5,79.1,158z
				 M80.9,158.1v-0.8c-1,0.1-1.3,0.4-1.3,0.7c0,0.3,0.2,0.5,0.5,0.5C80.4,158.5,80.6,158.3,80.9,158.1z"/>
			<path fill="#A7A9AC" d="M82.4,155.9h0.4l0,0.4h0c0.2-0.3,0.5-0.5,0.9-0.5c0.4,0,0.7,0.2,0.8,0.5c0.3-0.3,0.6-0.5,0.9-0.5
				c0.6,0,0.9,0.4,0.9,1.1v1.8h-0.5V157c0-0.5-0.2-0.8-0.5-0.8c-0.2,0-0.5,0.1-0.7,0.4v2.1h-0.5V157c0-0.5-0.2-0.8-0.5-0.8
				c-0.2,0-0.5,0.1-0.7,0.4v2.1h-0.5V155.9z"/>
			<path fill="#A7A9AC" d="M88.3,156c0.4,0,0.8,0.4,0.8,0.8s-0.4,0.8-0.8,0.8c-0.4,0-0.8-0.4-0.8-0.8S87.8,156,88.3,156z
				 M88.3,157.3c0.3,0,0.5-0.2,0.5-0.5s-0.2-0.5-0.5-0.5c-0.3,0-0.5,0.2-0.5,0.5S88,157.3,88.3,157.3z"/>
			<path fill="#A7A9AC" d="M91.5,155.8H90v-0.3h1.5V155.8z M91.9,158.5c-0.4,0.3-1.1,0.5-1.6,0.6c-0.1-0.1-0.2-0.2-0.3-0.3
				c0.5-0.1,1.2-0.3,1.5-0.5L91.9,158.5z M91.3,155h-1.3v-0.3h1.3V155z M90.7,156.2h3.4v2.1h-3.4V156.2z M91,156.8h2.6v-0.4H91
				V156.8z M91,157.5h2.6v-0.4H91V157.5z M91,158.1h2.6v-0.4H91V158.1z M92.3,155c-0.1,0.2-0.3,0.4-0.4,0.5
				c-0.1-0.1-0.2-0.2-0.3-0.2c0.3-0.2,0.5-0.6,0.6-1l0.4,0.1c0,0.1-0.1,0.2-0.1,0.3h1.8l0.1,0l0.3,0.1c-0.1,0.3-0.3,0.6-0.4,0.8
				l-0.3-0.1c0.1-0.1,0.2-0.3,0.2-0.4h-0.8v0.1c0,0.1,0,0.1,0,0.2c0.3,0.3,0.9,0.5,1.5,0.6c-0.1,0.1-0.2,0.2-0.2,0.3
				c-0.6-0.1-1.1-0.3-1.4-0.6c-0.2,0.3-0.6,0.5-1.5,0.6c0-0.1-0.1-0.2-0.2-0.3c1.4-0.2,1.5-0.5,1.5-0.8V155H92.3z M93.1,158.4
				c0.6,0.2,1.2,0.4,1.6,0.6l-0.3,0.2c-0.3-0.2-0.9-0.4-1.5-0.6L93.1,158.4z"/>
			<path fill="#A7A9AC" d="M96.1,156.9c-0.1,0.6-0.3,1.3-0.6,1.7c0-0.1-0.1-0.3-0.2-0.4c0.2-0.3,0.4-0.9,0.5-1.4L96.1,156.9z
				 M96.6,156.5v2.7h-0.4v-2.7h-0.8v-0.4h0.8v-1.8h0.4v1.8h0.9v0.4H96.6z M95.7,155.9c0-0.3-0.2-0.8-0.3-1.2l0.3-0.1
				c0.2,0.4,0.3,0.8,0.3,1.2L95.7,155.9z M96.8,156.8c0.1,0.2,0.5,0.9,0.6,1.1l-0.3,0.3c-0.1-0.3-0.4-1-0.5-1.2L96.8,156.8z
				 M97.4,154.8c-0.1,0.4-0.3,0.9-0.4,1.2l-0.3-0.1c0.1-0.3,0.3-0.8,0.4-1.2L97.4,154.8z M99.5,157.7v1.5h-0.4v-1.4l-1.6,0.3
				l-0.1-0.4l1.7-0.3v-3h0.4v3l0.6-0.1l0.1,0.4L99.5,157.7z M98.4,157c-0.2-0.2-0.6-0.5-0.9-0.6l0.2-0.3c0.3,0.2,0.7,0.4,0.9,0.6
				L98.4,157z M98.7,155.7c-0.2-0.2-0.5-0.5-0.8-0.7l0.2-0.3c0.3,0.2,0.7,0.4,0.8,0.6L98.7,155.7z"/>
			<path fill="#A7A9AC" d="M102.4,158.2h-1.1v0.4h-0.4v-3.9h1.5V158.2z M101.3,155.1v1.2h0.8v-1.2H101.3z M102.1,157.8v-1.2h-0.8
				v1.2H102.1z M104.2,155.3v0.7h1.2v0.3h-0.5v0.6h0.6v0.3h-0.6v1.4c0,0.2-0.1,0.3-0.2,0.4c-0.2,0.1-0.4,0.1-0.9,0.1
				c0-0.1-0.1-0.3-0.1-0.4c0.3,0,0.6,0,0.7,0c0.1,0,0.1,0,0.1-0.1v-1.4h-2v-0.3h2v-0.6h-1.8V156h1.1v-0.7h-1.3V155h1.3v-0.6h0.4v0.6
				h1.3v0.4H104.2z M103.2,157.5c0.2,0.3,0.5,0.7,0.7,0.9l-0.3,0.2c-0.1-0.3-0.4-0.6-0.7-0.9L103.2,157.5z"/>
			<path fill="#A7A9AC" d="M106.8,156.4v2.8h-0.4v-4.6h1.9v1.8H106.8z M106.8,154.9v0.4h1.1v-0.4H106.8z M107.9,156.1v-0.5h-1.1v0.5
				H107.9z M107.9,158.7v0.3h-0.4v-2.2h2v1.9H107.9z M107.9,157.1v0.5h1.2v-0.5H107.9z M109.2,158.4v-0.5h-1.2v0.5H109.2z
				 M110.7,158.7c0,0.2-0.1,0.4-0.2,0.4c-0.2,0.1-0.4,0.1-0.9,0.1c0-0.1-0.1-0.3-0.1-0.4c0.3,0,0.6,0,0.7,0c0.1,0,0.1,0,0.1-0.1
				v-2.3h-1.6v-1.8h2V158.7z M109.2,154.9v0.4h1.2v-0.4H109.2z M110.3,156.1v-0.5h-1.2v0.5H110.3z"/>
			<path fill="#A7A9AC" d="M115.8,155.1v4.1h-0.4v-0.3h-2.8v0.3h-0.4v-4.1h1.3c0.1-0.2,0.2-0.5,0.2-0.7l0.4,0.1
				c-0.1,0.2-0.2,0.5-0.3,0.7H115.8z M112.6,155.4v0.8h2.8v-0.8H112.6z M112.6,156.6v0.8h2.8v-0.8H112.6z M115.4,158.5v-0.8h-2.8
				v0.8H115.4z"/>
			<path fill="#A7A9AC" d="M117,158.5c1.2-1.1,1.8-1.8,1.8-2.5c0-0.4-0.2-0.8-0.7-0.8c-0.3,0-0.6,0.2-0.8,0.4l-0.3-0.3
				c0.3-0.3,0.6-0.6,1.1-0.6c0.7,0,1.1,0.5,1.1,1.1c0,0.8-0.6,1.6-1.5,2.4c0.2,0,0.4,0,0.6,0h1.1v0.4H117V158.5z"/>
			<path fill="#A7A9AC" d="M120,156.8c0-1.3,0.5-2,1.2-2c0.7,0,1.2,0.7,1.2,2c0,1.3-0.5,2-1.2,2C120.5,158.8,120,158.2,120,156.8z
				 M122,156.8c0-1.1-0.3-1.6-0.7-1.6c-0.4,0-0.7,0.5-0.7,1.6c0,1.1,0.3,1.6,0.7,1.6C121.7,158.5,122,158,122,156.8z"/>
			<path fill="#A7A9AC" d="M123.3,158.4h0.9v-2.9h-0.7v-0.3c0.3-0.1,0.6-0.2,0.8-0.3h0.4v3.5h0.8v0.4h-2.1V158.4z"/>
			<path fill="#A7A9AC" d="M126.4,158.4h0.9v-2.9h-0.7v-0.3c0.3-0.1,0.6-0.2,0.8-0.3h0.4v3.5h0.8v0.4h-2.1V158.4z"/>
			<path fill="#A7A9AC" d="M134,158h-1.9v1.2h-0.4V158h-2.4v-0.4h0.9v-1.4h1.6v-0.8h-1.3c-0.2,0.4-0.5,0.8-0.8,1
				c-0.1-0.1-0.2-0.2-0.3-0.2c0.5-0.4,0.9-1.1,1.2-1.8l0.4,0.1c-0.1,0.2-0.2,0.4-0.2,0.6h3.1v0.4h-1.7v0.8h1.5v0.4h-1.5v1h1.9V158z
				 M131.7,157.6v-1h-1.2v1H131.7z"/>
			<path fill="#A7A9AC" d="M134.8,158.4h0.9v-2.9H135v-0.3c0.3-0.1,0.6-0.2,0.8-0.3h0.4v3.5h0.8v0.4h-2.1V158.4z"/>
			<path fill="#A7A9AC" d="M141.8,158.6c0,0.3-0.1,0.4-0.3,0.5c-0.2,0.1-0.5,0.1-1.1,0.1c0-0.1-0.1-0.3-0.2-0.4c0.4,0,0.9,0,1,0
				c0.1,0,0.2,0,0.2-0.2v-1.1h-2.5c-0.1,0.6-0.4,1.2-0.9,1.6c-0.1-0.1-0.2-0.2-0.3-0.3c0.8-0.7,0.9-1.8,0.9-2.7v-1.6h3.2V158.6z
				 M141.3,157.2v-0.9h-2.4c0,0.3,0,0.6-0.1,0.9H141.3z M138.9,155v0.9h2.4V155H138.9z"/>
			<path fill="#A7A9AC" d="M143.3,158.4h0.9v-2.9h-0.7v-0.3c0.3-0.1,0.6-0.2,0.8-0.3h0.4v3.5h0.8v0.4h-2.1V158.4z"/>
			<path fill="#A7A9AC" d="M146,158.3l0.2-0.3c0.2,0.2,0.5,0.4,1,0.4c0.5,0,0.8-0.3,0.8-0.9c0-0.6-0.3-0.9-0.8-0.9
				c-0.3,0-0.4,0.1-0.6,0.2l-0.3-0.2l0.1-1.8h1.9v0.4h-1.5l-0.1,1.1c0.2-0.1,0.3-0.2,0.6-0.2c0.6,0,1.2,0.4,1.2,1.2
				s-0.6,1.3-1.3,1.3C146.7,158.8,146.3,158.6,146,158.3z"/>
			<path fill="#A7A9AC" d="M153.3,154.7v4.4h-0.4v-0.3h-2.6v0.3h-0.4v-4.4H153.3z M150.3,155.1v1.4h2.6v-1.4H150.3z M152.9,158.4
				v-1.5h-2.6v1.5H152.9z"/>
			<path fill="#A7A9AC" d="M159.4,158.6v0.4h-4.7v-0.4h2.1v-1h-1.7v-0.4h1.7v-0.7h0.4v0.7h1.7v0.4h-1.7v1H159.4z M158.8,156.7
				c-0.1-0.1-0.2-0.2-0.3-0.4c-2.8,0.1-3.1,0.1-3.3,0.2c0-0.1-0.1-0.3-0.1-0.4c0.1,0,0.2-0.1,0.4-0.2c0.1-0.1,0.5-0.5,0.8-0.9h-1.4
				v-0.4h4.4v0.4h-2.5c-0.3,0.4-0.6,0.8-1,1.1l2.4-0.1c-0.2-0.2-0.4-0.4-0.7-0.6l0.3-0.2c0.5,0.4,1.1,0.9,1.3,1.2L158.8,156.7z"/>
			<path fill="#A7A9AC" d="M160,158.5c1.2-1.1,1.8-1.8,1.8-2.5c0-0.4-0.2-0.8-0.7-0.8c-0.3,0-0.6,0.2-0.8,0.4l-0.3-0.3
				c0.3-0.3,0.6-0.6,1.1-0.6c0.7,0,1.1,0.5,1.1,1.1c0,0.8-0.6,1.6-1.5,2.4c0.2,0,0.4,0,0.6,0h1.1v0.4H160V158.5z"/>
			<path fill="#A7A9AC" d="M163.1,156.8c0-1.3,0.5-2,1.2-2c0.7,0,1.2,0.7,1.2,2c0,1.3-0.5,2-1.2,2
				C163.6,158.8,163.1,158.2,163.1,156.8z M165,156.8c0-1.1-0.3-1.6-0.7-1.6c-0.4,0-0.7,0.5-0.7,1.6c0,1.1,0.3,1.6,0.7,1.6
				C164.7,158.5,165,158,165,156.8z"/>
			<path fill="#A7A9AC" d="M166.4,158.4h0.9v-2.9h-0.7v-0.3c0.3-0.1,0.6-0.2,0.8-0.3h0.4v3.5h0.8v0.4h-2.1V158.4z"/>
			<path fill="#A7A9AC" d="M171.1,155.3h-1.9v-0.4h2.4v0.3c-0.9,1.2-1.1,2.1-1.1,3.6H170C170.1,157.3,170.3,156.4,171.1,155.3z"/>
			<path fill="#A7A9AC" d="M177,158h-1.9v1.2h-0.4V158h-2.4v-0.4h0.9v-1.4h1.6v-0.8h-1.3c-0.2,0.4-0.5,0.8-0.8,1
				c-0.1-0.1-0.2-0.2-0.3-0.2c0.5-0.4,0.9-1.1,1.2-1.8l0.4,0.1c-0.1,0.2-0.2,0.4-0.2,0.6h3.1v0.4h-1.7v0.8h1.5v0.4h-1.5v1h1.9V158z
				 M174.7,157.6v-1h-1.2v1H174.7z"/>
			<path fill="#A7A9AC" d="M179.6,155.3h-1.9v-0.4h2.4v0.3c-0.9,1.2-1.1,2.1-1.1,3.6h-0.5C178.5,157.3,178.8,156.4,179.6,155.3z"/>
			<path fill="#A7A9AC" d="M184.8,158.6c0,0.3-0.1,0.4-0.3,0.5c-0.2,0.1-0.5,0.1-1.1,0.1c0-0.1-0.1-0.3-0.2-0.4c0.4,0,0.9,0,1,0
				c0.1,0,0.2,0,0.2-0.2v-1.1h-2.5c-0.1,0.6-0.4,1.2-0.9,1.6c-0.1-0.1-0.2-0.2-0.3-0.3c0.8-0.7,0.9-1.8,0.9-2.7v-1.6h3.2V158.6z
				 M184.4,157.2v-0.9H182c0,0.3,0,0.6-0.1,0.9H184.4z M182,155v0.9h2.4V155H182z"/>
			<path fill="#A7A9AC" d="M186.4,158.4h0.9v-2.9h-0.7v-0.3c0.3-0.1,0.6-0.2,0.8-0.3h0.4v3.5h0.8v0.4h-2.1V158.4z"/>
			<path fill="#A7A9AC" d="M189.1,158.3l0.2-0.3c0.2,0.2,0.5,0.4,1,0.4c0.5,0,0.8-0.3,0.8-0.9c0-0.6-0.3-0.9-0.8-0.9
				c-0.3,0-0.4,0.1-0.6,0.2l-0.3-0.2l0.1-1.8h1.9v0.4h-1.5l-0.1,1.1c0.2-0.1,0.3-0.2,0.6-0.2c0.6,0,1.2,0.4,1.2,1.2
				s-0.6,1.3-1.3,1.3C189.7,158.8,189.4,158.6,189.1,158.3z"/>
			<path fill="#A7A9AC" d="M196.4,154.7v4.4H196v-0.3h-2.6v0.3H193v-4.4H196.4z M193.4,155.1v1.4h2.6v-1.4H193.4z M196,158.4v-1.5
				h-2.6v1.5H196z"/>
			<path fill="#A7A9AC" d="M198.8,156c0.4,0,0.8,0.4,0.8,0.8s-0.4,0.8-0.8,0.8c-0.4,0-0.8-0.4-0.8-0.8S198.3,156,198.8,156z
				 M198.8,157.3c0.3,0,0.5-0.2,0.5-0.5s-0.2-0.5-0.5-0.5c-0.3,0-0.5,0.2-0.5,0.5S198.5,157.3,198.8,157.3z"/>
		</g>
	</g>
	<g>
		<path fill="none" stroke="#D9D9D9" stroke-width="0.2713" stroke-linejoin="round" stroke-miterlimit="10" d="M9.1,10.4h275.5
			 M9.1,31.6h275.5 M9.1,52.8h275.5 M9.1,74h275.5 M9.1,95.2h275.5"/>
		
			<line fill="none" stroke="#7F7F7F" stroke-width="0.2713" stroke-linejoin="round" stroke-miterlimit="10" x1="9.1" y1="116.4" x2="284.7" y2="116.4"/>
		<g>
			
				<line fill="none" stroke="#7F7F7F" stroke-width="0.2713" stroke-linejoin="round" stroke-miterlimit="10" x1="218.3" y1="118.5" x2="218.3" y2="116.8"/>
			
				<line fill="none" stroke="#7F7F7F" stroke-width="0.2713" stroke-linejoin="round" stroke-miterlimit="10" x1="197.4" y1="118.5" x2="197.4" y2="116.8"/>
			
				<line fill="none" stroke="#7F7F7F" stroke-width="0.2713" stroke-linejoin="round" stroke-miterlimit="10" x1="176.5" y1="118.5" x2="176.5" y2="116.8"/>
			
				<line fill="none" stroke="#7F7F7F" stroke-width="0.2713" stroke-linejoin="round" stroke-miterlimit="10" x1="281.1" y1="118.5" x2="281.1" y2="116.8"/>
			
				<line fill="none" stroke="#7F7F7F" stroke-width="0.2713" stroke-linejoin="round" stroke-miterlimit="10" x1="155.6" y1="118.5" x2="155.6" y2="116.8"/>
			
				<line fill="none" stroke="#7F7F7F" stroke-width="0.2713" stroke-linejoin="round" stroke-miterlimit="10" x1="260.2" y1="118.5" x2="260.2" y2="116.8"/>
			
				<line fill="none" stroke="#7F7F7F" stroke-width="0.2713" stroke-linejoin="round" stroke-miterlimit="10" x1="239.3" y1="118.5" x2="239.3" y2="116.8"/>
			
				<line fill="none" stroke="#7F7F7F" stroke-width="0.2713" stroke-linejoin="round" stroke-miterlimit="10" x1="9.1" y1="118.5" x2="9.1" y2="116.8"/>
			
				<line fill="none" stroke="#7F7F7F" stroke-width="0.2713" stroke-linejoin="round" stroke-miterlimit="10" x1="50.9" y1="118.5" x2="50.9" y2="116.8"/>
			
				<line fill="none" stroke="#7F7F7F" stroke-width="0.2713" stroke-linejoin="round" stroke-miterlimit="10" x1="30" y1="118.5" x2="30" y2="116.8"/>
			
				<line fill="none" stroke="#7F7F7F" stroke-width="0.2713" stroke-linejoin="round" stroke-miterlimit="10" x1="71.8" y1="118.5" x2="71.8" y2="116.8"/>
			
				<line fill="none" stroke="#7F7F7F" stroke-width="0.2713" stroke-linejoin="round" stroke-miterlimit="10" x1="134.6" y1="118.5" x2="134.6" y2="116.8"/>
			
				<line fill="none" stroke="#7F7F7F" stroke-width="0.2713" stroke-linejoin="round" stroke-miterlimit="10" x1="113.7" y1="118.5" x2="113.7" y2="116.8"/>
			
				<line fill="none" stroke="#7F7F7F" stroke-width="0.2713" stroke-linejoin="round" stroke-miterlimit="10" x1="92.8" y1="118.5" x2="92.8" y2="116.8"/>
		</g>
		
			<polyline fill="none" stroke="#002A5E" stroke-width="0.5426" stroke-linecap="round" stroke-linejoin="round" stroke-miterlimit="10" points="
			10.8,23.2 14.3,18.1 17.8,20.6 21.3,19.7 24.8,28.2 28.3,38.8 31.7,48.1 35.2,49.8 38.8,56.6 42.2,67.6 45.7,65.6 49.2,60.1 
			52.7,51.1 56.1,55.8 59.7,56.6 63.2,66.8 66.6,69.7 70.1,68.1 73.6,67.6 77.1,68.5 80.6,69.4 84.1,71.1 87.6,67.6 91,64.7 
			94.5,58.8 98,61.7 101.6,67.6 105,65.9 108.5,62.6 112,58.3 115.4,50.7 118.9,46.5 122.5,43.5 126,44.8 129.4,45.6 132.9,44 
			136.4,40.5 139.8,38.8 143.4,39.7 146.9,35.9 150.4,38 153.8,41 157.3,36.7 160.8,42.2 164.3,44.3 167.8,44 171.3,48.1 
			174.8,46.8 178.2,41.8 181.8,38.8 185.3,35.9 188.7,36.3 192.2,37.5 195.7,35 199.2,36.3 202.7,34.5 206.2,37.5 209.7,36.3 
			213.1,35 216.6,34.5 220.1,37.5 223.7,40.1 227.1,39.7 230.6,40.1 234.1,39.7 237.5,39.7 241,39.3 244.6,40.5 248.1,41.8 
			251.5,38.8 255,36.3 258.5,34.2 261.9,34.2 265.5,27.4 269,25.7 272.5,24 275.9,24 279.4,26.1 282.9,28.7 		"/>
		
			<polyline fill="none" stroke="#0C56AB" stroke-width="0.5426" stroke-linecap="round" stroke-linejoin="round" stroke-miterlimit="10" points="
			10.8,4.9 14.3,6.6 17.8,8.8 21.3,13.8 24.8,22.7 28.3,26.1 31.7,42.2 35.2,47.3 38.8,50.7 42.2,51.6 45.7,55.3 49.2,47.3 
			52.7,36.3 56.1,39.3 59.7,46 63.2,50.7 66.6,55.8 70.1,60.9 73.6,63.4 77.1,65.6 80.6,56.2 84.1,62.6 87.6,56.2 91,51.6 
			94.5,34.2 98,38.8 101.6,50.3 105,56.2 108.5,52 112,51.1 115.4,44 118.9,38 122.5,39.3 126,39.3 129.4,29.9 132.9,31.7 
			136.4,29.5 139.8,25.7 143.4,34.5 146.9,27 150.4,29.1 153.8,35.9 157.3,28.7 160.8,37.2 164.3,35.5 167.8,36.3 171.3,45.6 
			174.8,44.3 178.2,38 181.8,36.7 185.3,29.9 188.7,35.5 192.2,41.8 195.7,37.2 199.2,37.2 202.7,31.7 206.2,35.5 209.7,35 
			213.1,30.7 216.6,29.5 220.1,33.7 223.7,35.5 227.1,35.9 230.6,37.5 234.1,33.7 237.5,34.2 241,30.4 244.6,38.8 248.1,41 
			251.5,31.2 255,31.7 258.5,30.7 261.9,32.5 265.5,27 269,22.7 272.5,24.4 275.9,21.4 279.4,25.7 282.9,32.9 		"/>
		
			<polyline fill="none" stroke="#73B564" stroke-width="0.5426" stroke-linecap="round" stroke-linejoin="round" stroke-miterlimit="10" points="
			10.8,21 14.3,14.7 17.8,14.3 21.3,0.3 24.8,9.1 28.3,32 31.7,39.3 35.2,37.2 38.8,52 42.2,71.4 45.7,57.9 49.2,52.8 52.7,47.8 
			56.1,52 59.7,58.3 63.2,70.2 66.6,75.7 70.1,64.3 73.6,61.7 77.1,61.3 80.6,81.7 84.1,80.4 87.6,77 91,75.7 94.5,83.7 98,82 
			101.6,87.2 105,77 108.5,75.7 112,63.9 115.4,56.6 118.9,57.9 122.5,50.7 126,50.7 129.4,61.3 132.9,64.3 136.4,57.5 139.8,61.7 
			143.4,45.2 146.9,50.3 150.4,55.8 153.8,60.9 157.3,55.3 160.8,54.9 164.3,59.6 167.8,60.4 171.3,61.7 174.8,54.1 178.2,55.8 
			181.8,43.5 185.3,46.5 188.7,50.3 192.2,44.3 195.7,38.8 199.2,46.5 202.7,52 206.2,44.8 209.7,41.8 213.1,48.6 216.6,52.4 
			220.1,52 223.7,55.8 227.1,52.8 230.6,52 234.1,49 237.5,54.5 241,52.4 244.6,44.8 248.1,41.3 251.5,46 255,46.8 258.5,39.7 
			261.9,35.5 265.5,27.8 269,24 272.5,24.9 275.9,23.6 279.4,24.9 282.9,29.1 		"/>
		
			<polyline fill="none" stroke="#7F58A5" stroke-width="0.5426" stroke-linecap="round" stroke-linejoin="round" stroke-miterlimit="10" points="
			10.8,52.8 14.3,45.6 17.8,53.3 21.3,49.4 24.8,51.6 28.3,56.2 31.7,69.4 35.2,74 38.8,78.7 42.2,88 45.7,102.8 49.2,86.3 
			52.7,69.7 56.1,82.9 59.7,69.7 63.2,86.7 66.6,90.1 70.1,86.7 73.6,82 77.1,80.8 80.6,90.1 84.1,88.8 87.6,80.8 91,78.7 
			94.5,67.6 98,72.7 101.6,74.9 105,78.2 108.5,64.7 112,60.9 115.4,58.8 118.9,49.4 122.5,54.5 126,52.4 129.4,49.4 132.9,36.3 
			136.4,32.5 139.8,36.7 143.4,35 146.9,26.1 150.4,29.1 153.8,30.7 157.3,28.7 160.8,23.6 164.3,30.4 167.8,29.5 171.3,36.7 
			174.8,34.5 178.2,23.6 181.8,27.4 185.3,23.6 188.7,14.3 192.2,17.6 195.7,28.2 199.2,17.6 202.7,15.6 206.2,33.3 209.7,31.7 
			213.1,26.5 216.6,30.7 220.1,30.4 223.7,33.7 227.1,31.2 230.6,30.7 234.1,32.5 237.5,28.7 241,37.2 244.6,32.5 248.1,35.5 
			251.5,34.2 255,30.7 258.5,29.5 261.9,32.9 265.5,23.2 269,24 272.5,21.9 275.9,22.3 279.4,20.2 282.9,24.4 		"/>
		<g>
			<g>
				<path fill="#231F20" d="M0.9,115.6l1-0.9H0.3v-0.6h2.6v0.6l-1,0.9c0.6,0,1.1,0.4,1.1,1.1c0,0.6-0.5,1.2-1.4,1.2
					c-0.9,0-1.4-0.6-1.4-1.2l0.7-0.1c0,0.4,0.3,0.7,0.7,0.7c0.5,0,0.7-0.3,0.7-0.6c0-0.4-0.3-0.6-0.7-0.6c-0.2,0-0.3,0-0.3,0.1
					L0.9,115.6z"/>
				<path fill="#231F20" d="M4.1,116.6c0,0.4,0.3,0.7,0.7,0.7c0.4,0,0.7-0.3,0.7-0.7c0-0.5-0.3-0.7-0.7-0.7c-0.3,0-0.5,0.1-0.6,0.3
					l-0.6-0.2l0.5-1.9h2v0.6H4.5l-0.2,0.9c0.2-0.2,0.4-0.3,0.7-0.3c0.7,0,1.3,0.5,1.3,1.2c0,0.7-0.5,1.3-1.4,1.3
					c-0.8,0-1.4-0.5-1.4-1.1L4.1,116.6z"/>
			</g>
		</g>
		<g>
			<g>
				<path fill="#231F20" d="M0.2,95l1.6-2.2h0.9v2.3h0.6v0.6H2.6v0.8H2v-0.8H0.2V95z M2,93.5l-1.2,1.6H2V93.5z"/>
				<path fill="#231F20" d="M4.1,93.4c0.2-0.4,0.6-0.6,1.2-0.6s0.9,0.2,1.2,0.6c0.3,0.4,0.3,0.8,0.3,1.3c0,0.5-0.1,1-0.3,1.3
					c-0.2,0.4-0.6,0.6-1.2,0.6S4.3,96.4,4.1,96c-0.3-0.4-0.3-0.8-0.3-1.3C3.8,94.2,3.8,93.8,4.1,93.4z M4.7,95.8
					C4.8,95.9,5,96,5.3,96s0.4-0.1,0.6-0.3c0.2-0.2,0.3-0.6,0.3-1.1c0-0.5-0.1-0.8-0.3-1.1c-0.1-0.2-0.3-0.3-0.6-0.3
					s-0.4,0.1-0.6,0.3c-0.2,0.2-0.3,0.6-0.3,1.1C4.4,95.2,4.5,95.5,4.7,95.8z"/>
			</g>
		</g>
		<g>
			<g>
				<path fill="#231F20" d="M0.2,73.8l1.6-2.2h0.9v2.3h0.6v0.6H2.6v0.8H2v-0.8H0.2V73.8z M2,72.3l-1.2,1.6H2V72.3z"/>
				<path fill="#231F20" d="M4.3,74.2c0,0.4,0.3,0.7,0.7,0.7c0.4,0,0.7-0.3,0.7-0.7c0-0.5-0.3-0.7-0.7-0.7c-0.3,0-0.5,0.1-0.6,0.3
					l-0.6-0.2l0.5-1.9h2v0.6H4.7l-0.2,0.9c0.2-0.2,0.4-0.3,0.7-0.3c0.7,0,1.3,0.5,1.3,1.2c0,0.7-0.5,1.3-1.4,1.3
					c-0.8,0-1.4-0.5-1.4-1.1L4.3,74.2z"/>
			</g>
		</g>
		<g>
			<g>
				<path fill="#231F20" d="M0.8,53c0,0.4,0.3,0.7,0.7,0.7c0.4,0,0.7-0.3,0.7-0.7c0-0.5-0.3-0.7-0.7-0.7c-0.3,0-0.5,0.1-0.6,0.3
					l-0.6-0.2l0.5-1.9h2V51H1.2L1,52c0.2-0.2,0.4-0.3,0.7-0.3C2.4,51.7,3,52.2,3,53c0,0.7-0.5,1.3-1.4,1.3c-0.8,0-1.4-0.5-1.4-1.1
					L0.8,53z"/>
				<path fill="#231F20" d="M3.9,51c0.2-0.4,0.6-0.6,1.2-0.6S6,50.6,6.2,51c0.3,0.4,0.3,0.8,0.3,1.3c0,0.5-0.1,1-0.3,1.3
					C6,54,5.6,54.2,5.1,54.2S4.1,54,3.9,53.6c-0.3-0.4-0.3-0.8-0.3-1.3C3.5,51.8,3.6,51.3,3.9,51z M4.5,53.4
					c0.1,0.2,0.3,0.3,0.6,0.3s0.4-0.1,0.6-0.3c0.2-0.2,0.3-0.6,0.3-1.1c0-0.5-0.1-0.8-0.3-1.1C5.5,51.1,5.3,51,5.1,51
					s-0.4,0.1-0.6,0.3c-0.2,0.2-0.3,0.6-0.3,1.1C4.2,52.8,4.3,53.1,4.5,53.4z"/>
			</g>
		</g>
		<g>
			<g>
				<path fill="#231F20" d="M0.8,31.8c0,0.4,0.3,0.7,0.7,0.7c0.4,0,0.7-0.3,0.7-0.7c0-0.5-0.3-0.7-0.7-0.7c-0.3,0-0.5,0.1-0.6,0.3
					l-0.6-0.2l0.5-1.9h2v0.6H1.2L1,30.8c0.2-0.2,0.4-0.3,0.7-0.3C2.4,30.5,3,31,3,31.8C3,32.5,2.4,33,1.6,33c-0.8,0-1.4-0.5-1.4-1.1
					L0.8,31.8z"/>
				<path fill="#231F20" d="M4.1,31.8c0,0.4,0.3,0.7,0.7,0.7c0.4,0,0.7-0.3,0.7-0.7c0-0.5-0.3-0.7-0.7-0.7c-0.3,0-0.5,0.1-0.6,0.3
					l-0.6-0.2l0.5-1.9h2v0.6H4.5l-0.2,0.9c0.2-0.2,0.4-0.3,0.7-0.3c0.7,0,1.3,0.5,1.3,1.2c0,0.7-0.5,1.3-1.4,1.3
					c-0.8,0-1.4-0.5-1.4-1.1L4.1,31.8z"/>
			</g>
		</g>
		<g>
			<g>
				<path fill="#231F20" d="M2.8,8.7C2.7,8.6,2.5,8.6,2.2,8.6C1.5,8.6,1,9,0.9,9.7c0.2-0.3,0.5-0.4,0.9-0.4c0.7,0,1.3,0.5,1.3,1.3
					c0,0.8-0.6,1.3-1.4,1.3c-0.9,0-1.5-0.8-1.5-1.7c0-1.3,0.8-2.2,2-2.2C2.6,8,2.9,8,3,8.1L2.8,8.7z M1.7,11.3
					c0.4,0,0.7-0.3,0.7-0.7c0-0.4-0.3-0.7-0.7-0.7S1,10.1,1,10.6C1,11,1.4,11.3,1.7,11.3z"/>
				<path fill="#231F20" d="M4.1,8.6C4.3,8.2,4.7,8,5.2,8s0.9,0.2,1.2,0.6c0.3,0.4,0.3,0.8,0.3,1.3c0,0.5-0.1,1-0.3,1.3
					c-0.2,0.4-0.6,0.6-1.2,0.6s-0.9-0.2-1.2-0.6c-0.3-0.4-0.3-0.8-0.3-1.3C3.7,9.4,3.8,8.9,4.1,8.6z M4.7,11
					c0.1,0.2,0.3,0.3,0.6,0.3s0.4-0.1,0.6-0.3c0.2-0.2,0.3-0.6,0.3-1.1c0-0.5-0.1-0.8-0.3-1.1C5.7,8.7,5.5,8.6,5.2,8.6
					S4.8,8.7,4.7,8.8C4.5,9.1,4.4,9.4,4.4,9.9C4.4,10.4,4.5,10.7,4.7,11z"/>
			</g>
		</g>
		<g>
			<g>
				<path fill="#231F20" d="M4.7,122.4c0-0.1,0-0.1,0-0.2c0-0.6,0.5-1.2,1.3-1.2c0.8,0,1.3,0.5,1.3,1.2c0,0.5-0.3,0.9-0.7,1.1
					l-0.7,0.4c-0.2,0.1-0.3,0.2-0.4,0.4h1.8v0.6H4.6c0-0.6,0.2-1.1,0.9-1.5l0.6-0.4c0.3-0.2,0.5-0.4,0.5-0.7c0-0.3-0.2-0.6-0.6-0.6
					c-0.4,0-0.6,0.3-0.6,0.7c0,0.1,0,0.1,0,0.2L4.7,122.4z"/>
				<path fill="#231F20" d="M8.2,121.6c0.2-0.4,0.6-0.6,1.2-0.6s0.9,0.2,1.2,0.6c0.3,0.4,0.3,0.8,0.3,1.3c0,0.5-0.1,1-0.3,1.3
					c-0.2,0.4-0.6,0.6-1.2,0.6s-0.9-0.2-1.2-0.6c-0.3-0.4-0.3-0.8-0.3-1.3C7.9,122.5,8,122,8.2,121.6z M8.8,124
					c0.1,0.2,0.3,0.3,0.6,0.3s0.4-0.1,0.6-0.3c0.2-0.2,0.3-0.6,0.3-1.1c0-0.5-0.1-0.8-0.3-1.1c-0.1-0.2-0.3-0.3-0.6-0.3
					s-0.4,0.1-0.6,0.3c-0.2,0.2-0.3,0.6-0.3,1.1C8.6,123.4,8.7,123.8,8.8,124z"/>
				<path fill="#231F20" d="M12.3,124.8v-2.5h-0.9v-0.5c0.5,0,0.9-0.3,1-0.7H13v3.7H12.3z"/>
				<path fill="#231F20" d="M14.6,124.8v-2.5h-0.9v-0.5c0.5,0,0.9-0.3,1-0.7h0.6v3.7H14.6z"/>
			</g>
		</g>
		<g>
			<g>
				<path fill="#231F20" d="M24.6,122.4c0-0.1,0-0.1,0-0.2c0-0.6,0.5-1.2,1.3-1.2c0.8,0,1.3,0.5,1.3,1.2c0,0.5-0.3,0.9-0.7,1.1
					l-0.7,0.4c-0.2,0.1-0.3,0.2-0.4,0.4h1.8v0.6h-2.7c0-0.6,0.2-1.1,0.9-1.5l0.6-0.4c0.3-0.2,0.5-0.4,0.5-0.7c0-0.3-0.2-0.6-0.6-0.6
					c-0.4,0-0.6,0.3-0.6,0.7c0,0.1,0,0.1,0,0.2L24.6,122.4z"/>
				<path fill="#231F20" d="M28.2,121.6c0.2-0.4,0.6-0.6,1.2-0.6s0.9,0.2,1.2,0.6c0.3,0.4,0.3,0.8,0.3,1.3c0,0.5-0.1,1-0.3,1.3
					c-0.2,0.4-0.6,0.6-1.2,0.6s-0.9-0.2-1.2-0.6c-0.3-0.4-0.3-0.8-0.3-1.3C27.8,122.5,27.9,122,28.2,121.6z M28.8,124
					c0.1,0.2,0.3,0.3,0.6,0.3s0.4-0.1,0.6-0.3c0.2-0.2,0.3-0.6,0.3-1.1c0-0.5-0.1-0.8-0.3-1.1c-0.1-0.2-0.3-0.3-0.6-0.3
					s-0.4,0.1-0.6,0.3c-0.2,0.2-0.3,0.6-0.3,1.1C28.5,123.4,28.6,123.8,28.8,124z"/>
				<path fill="#231F20" d="M32.3,124.8v-2.5h-0.9v-0.5c0.5,0,0.9-0.3,1-0.7h0.6v3.7H32.3z"/>
				<path fill="#231F20" d="M34.5,124.8v-2.5h-0.9v-0.5c0.5,0,0.9-0.3,1-0.7h0.6v3.7H34.5z"/>
			</g>
		</g>
		<g>
			<g>
				<path fill="#231F20" d="M5.6,132.5H5l2-4.1h0.6L5.6,132.5z"/>
				<path fill="#231F20" d="M9.9,129.3c0.2-0.4,0.6-0.6,1.2-0.6s0.9,0.2,1.2,0.6c0.3,0.4,0.3,0.8,0.3,1.3c0,0.5-0.1,1-0.3,1.3
					c-0.2,0.4-0.6,0.6-1.2,0.6s-0.9-0.2-1.2-0.6c-0.3-0.4-0.3-0.8-0.3-1.3C9.6,130.2,9.7,129.7,9.9,129.3z M10.5,131.7
					c0.1,0.2,0.3,0.3,0.6,0.3s0.4-0.1,0.6-0.3c0.2-0.2,0.3-0.6,0.3-1.1c0-0.5-0.1-0.8-0.3-1.1c-0.1-0.2-0.3-0.3-0.6-0.3
					s-0.4,0.1-0.6,0.3c-0.2,0.2-0.3,0.6-0.3,1.1C10.3,131.1,10.4,131.5,10.5,131.7z"/>
				<path fill="#231F20" d="M14,132.5V130h-0.9v-0.5c0.5,0,0.9-0.3,1-0.7h0.6v3.7H14z"/>
			</g>
		</g>
		<g>
			<g>
				<path fill="#231F20" d="M25.2,132.5h-0.6l2-4.1h0.6L25.2,132.5z"/>
				<path fill="#231F20" d="M29.5,129.3c0.2-0.4,0.6-0.6,1.2-0.6s0.9,0.2,1.2,0.6c0.3,0.4,0.3,0.8,0.3,1.3c0,0.5-0.1,1-0.3,1.3
					c-0.2,0.4-0.6,0.6-1.2,0.6s-0.9-0.2-1.2-0.6c-0.3-0.4-0.3-0.8-0.3-1.3C29.2,130.2,29.2,129.7,29.5,129.3z M30.1,131.7
					c0.1,0.2,0.3,0.3,0.6,0.3s0.4-0.1,0.6-0.3c0.2-0.2,0.3-0.6,0.3-1.1c0-0.5-0.1-0.8-0.3-1.1c-0.1-0.2-0.3-0.3-0.6-0.3
					s-0.4,0.1-0.6,0.3c-0.2,0.2-0.3,0.6-0.3,1.1C29.8,131.1,29.9,131.5,30.1,131.7z"/>
				<path fill="#231F20" d="M35.4,129.4c-0.3,0.3-1.4,1.2-1.5,3.1h-0.7c0.2-2.1,1.5-3.1,1.5-3.1h-2v-0.6h2.8V129.4z"/>
			</g>
		</g>
		<g>
			<g>
				<path fill="#231F20" d="M46,132.5h-0.6l2-4.1H48L46,132.5z"/>
				<path fill="#231F20" d="M50.3,129.3c0.2-0.4,0.6-0.6,1.2-0.6s0.9,0.2,1.2,0.6c0.3,0.4,0.3,0.8,0.3,1.3c0,0.5-0.1,1-0.3,1.3
					c-0.2,0.4-0.6,0.6-1.2,0.6s-0.9-0.2-1.2-0.6c-0.3-0.4-0.3-0.8-0.3-1.3C49.9,130.2,50,129.7,50.3,129.3z M50.9,131.7
					c0.1,0.2,0.3,0.3,0.6,0.3s0.4-0.1,0.6-0.3c0.2-0.2,0.3-0.6,0.3-1.1c0-0.5-0.1-0.8-0.3-1.1c-0.1-0.2-0.3-0.3-0.6-0.3
					s-0.4,0.1-0.6,0.3c-0.2,0.2-0.3,0.6-0.3,1.1C50.6,131.1,50.7,131.5,50.9,131.7z"/>
				<path fill="#231F20" d="M54.4,132.5V130h-0.9v-0.5c0.5,0,0.9-0.3,1-0.7H55v3.7H54.4z"/>
			</g>
		</g>
		<g>
			<g>
				<path fill="#231F20" d="M66.5,132.5h-0.6l2-4.1h0.6L66.5,132.5z"/>
				<path fill="#231F20" d="M70.8,129.3c0.2-0.4,0.6-0.6,1.2-0.6s0.9,0.2,1.2,0.6c0.3,0.4,0.3,0.8,0.3,1.3c0,0.5-0.1,1-0.3,1.3
					c-0.2,0.4-0.6,0.6-1.2,0.6s-0.9-0.2-1.2-0.6c-0.3-0.4-0.3-0.8-0.3-1.3C70.5,130.2,70.5,129.7,70.8,129.3z M71.4,131.7
					c0.1,0.2,0.3,0.3,0.6,0.3s0.4-0.1,0.6-0.3c0.2-0.2,0.3-0.6,0.3-1.1c0-0.5-0.1-0.8-0.3-1.1c-0.1-0.2-0.3-0.3-0.6-0.3
					s-0.4,0.1-0.6,0.3c-0.2,0.2-0.3,0.6-0.3,1.1C71.1,131.1,71.2,131.5,71.4,131.7z"/>
				<path fill="#231F20" d="M76.7,129.4c-0.3,0.3-1.4,1.2-1.5,3.1h-0.7c0.2-2.1,1.5-3.1,1.5-3.1h-2v-0.6h2.8V129.4z"/>
			</g>
		</g>
		<g>
			<g>
				<path fill="#231F20" d="M87.8,132.5h-0.6l2-4.1h0.6L87.8,132.5z"/>
				<path fill="#231F20" d="M92.1,129.3c0.2-0.4,0.6-0.6,1.2-0.6s0.9,0.2,1.2,0.6c0.3,0.4,0.3,0.8,0.3,1.3c0,0.5-0.1,1-0.3,1.3
					c-0.2,0.4-0.6,0.6-1.2,0.6s-0.9-0.2-1.2-0.6c-0.3-0.4-0.3-0.8-0.3-1.3C91.7,130.2,91.8,129.7,92.1,129.3z M92.7,131.7
					c0.1,0.2,0.3,0.3,0.6,0.3s0.4-0.1,0.6-0.3c0.2-0.2,0.3-0.6,0.3-1.1c0-0.5-0.1-0.8-0.3-1.1c-0.1-0.2-0.3-0.3-0.6-0.3
					s-0.4,0.1-0.6,0.3c-0.2,0.2-0.3,0.6-0.3,1.1C92.4,131.1,92.5,131.5,92.7,131.7z"/>
				<path fill="#231F20" d="M96.2,132.5V130h-0.9v-0.5c0.5,0,0.9-0.3,1-0.7h0.6v3.7H96.2z"/>
			</g>
		</g>
		<g>
			<g>
				<path fill="#231F20" d="M108.4,132.5h-0.6l2-4.1h0.6L108.4,132.5z"/>
				<path fill="#231F20" d="M112.7,129.3c0.2-0.4,0.6-0.6,1.2-0.6s0.9,0.2,1.2,0.6c0.3,0.4,0.3,0.8,0.3,1.3c0,0.5-0.1,1-0.3,1.3
					c-0.2,0.4-0.6,0.6-1.2,0.6s-0.9-0.2-1.2-0.6c-0.3-0.4-0.3-0.8-0.3-1.3C112.3,130.2,112.4,129.7,112.7,129.3z M113.3,131.7
					c0.1,0.2,0.3,0.3,0.6,0.3s0.4-0.1,0.6-0.3c0.2-0.2,0.3-0.6,0.3-1.1c0-0.5-0.1-0.8-0.3-1.1c-0.1-0.2-0.3-0.3-0.6-0.3
					s-0.4,0.1-0.6,0.3c-0.2,0.2-0.3,0.6-0.3,1.1C113,131.1,113.1,131.5,113.3,131.7z"/>
				<path fill="#231F20" d="M118.6,129.4c-0.3,0.3-1.4,1.2-1.5,3.1h-0.7c0.2-2.1,1.5-3.1,1.5-3.1h-2v-0.6h2.8V129.4z"/>
			</g>
		</g>
		<g>
			<g>
				<path fill="#231F20" d="M129.8,132.5h-0.6l2-4.1h0.6L129.8,132.5z"/>
				<path fill="#231F20" d="M134.1,129.3c0.2-0.4,0.6-0.6,1.2-0.6c0.6,0,0.9,0.2,1.2,0.6c0.3,0.4,0.3,0.8,0.3,1.3
					c0,0.5-0.1,1-0.3,1.3c-0.2,0.4-0.6,0.6-1.2,0.6c-0.6,0-0.9-0.2-1.2-0.6c-0.3-0.4-0.3-0.8-0.3-1.3
					C133.7,130.2,133.8,129.7,134.1,129.3z M134.7,131.7c0.1,0.2,0.3,0.3,0.6,0.3c0.3,0,0.4-0.1,0.6-0.3c0.2-0.2,0.3-0.6,0.3-1.1
					c0-0.5-0.1-0.8-0.3-1.1c-0.1-0.2-0.3-0.3-0.6-0.3c-0.3,0-0.4,0.1-0.6,0.3c-0.2,0.2-0.3,0.6-0.3,1.1
					C134.4,131.1,134.5,131.5,134.7,131.7z"/>
				<path fill="#231F20" d="M138.2,132.5V130h-0.9v-0.5c0.5,0,0.9-0.3,1-0.7h0.6v3.7H138.2z"/>
			</g>
		</g>
		<g>
			<g>
				<path fill="#231F20" d="M151.2,132.5h-0.6l2-4.1h0.6L151.2,132.5z"/>
				<path fill="#231F20" d="M155.5,129.3c0.2-0.4,0.6-0.6,1.2-0.6c0.6,0,0.9,0.2,1.2,0.6c0.3,0.4,0.3,0.8,0.3,1.3
					c0,0.5-0.1,1-0.3,1.3c-0.2,0.4-0.6,0.6-1.2,0.6c-0.6,0-0.9-0.2-1.2-0.6c-0.3-0.4-0.3-0.8-0.3-1.3
					C155.2,130.2,155.2,129.7,155.5,129.3z M156.1,131.7c0.1,0.2,0.3,0.3,0.6,0.3c0.3,0,0.4-0.1,0.6-0.3c0.2-0.2,0.3-0.6,0.3-1.1
					c0-0.5-0.1-0.8-0.3-1.1c-0.1-0.2-0.3-0.3-0.6-0.3c-0.3,0-0.4,0.1-0.6,0.3c-0.2,0.2-0.3,0.6-0.3,1.1
					C155.8,131.1,155.9,131.5,156.1,131.7z"/>
				<path fill="#231F20" d="M161.4,129.4c-0.3,0.3-1.4,1.2-1.5,3.1h-0.7c0.2-2.1,1.5-3.1,1.5-3.1h-2v-0.6h2.8V129.4z"/>
			</g>
		</g>
		<g>
			<g>
				<path fill="#231F20" d="M172.4,132.5h-0.6l2-4.1h0.6L172.4,132.5z"/>
				<path fill="#231F20" d="M176.7,129.3c0.2-0.4,0.6-0.6,1.2-0.6c0.6,0,0.9,0.2,1.2,0.6c0.3,0.4,0.3,0.8,0.3,1.3
					c0,0.5-0.1,1-0.3,1.3c-0.2,0.4-0.6,0.6-1.2,0.6c-0.6,0-0.9-0.2-1.2-0.6c-0.3-0.4-0.3-0.8-0.3-1.3
					C176.4,130.2,176.4,129.7,176.7,129.3z M177.3,131.7c0.1,0.2,0.3,0.3,0.6,0.3c0.3,0,0.4-0.1,0.6-0.3c0.2-0.2,0.3-0.6,0.3-1.1
					c0-0.5-0.1-0.8-0.3-1.1c-0.1-0.2-0.3-0.3-0.6-0.3c-0.3,0-0.4,0.1-0.6,0.3c-0.2,0.2-0.3,0.6-0.3,1.1
					C177,131.1,177.1,131.5,177.3,131.7z"/>
				<path fill="#231F20" d="M180.8,132.5V130h-0.9v-0.5c0.5,0,0.9-0.3,1-0.7h0.6v3.7H180.8z"/>
			</g>
		</g>
		<g>
			<g>
				<path fill="#231F20" d="M192.5,132.5h-0.6l2-4.1h0.6L192.5,132.5z"/>
				<path fill="#231F20" d="M196.8,129.3c0.2-0.4,0.6-0.6,1.2-0.6c0.6,0,0.9,0.2,1.2,0.6c0.3,0.4,0.3,0.8,0.3,1.3
					c0,0.5-0.1,1-0.3,1.3c-0.2,0.4-0.6,0.6-1.2,0.6c-0.6,0-0.9-0.2-1.2-0.6c-0.3-0.4-0.3-0.8-0.3-1.3
					C196.5,130.2,196.6,129.7,196.8,129.3z M197.4,131.7c0.1,0.2,0.3,0.3,0.6,0.3c0.3,0,0.4-0.1,0.6-0.3c0.2-0.2,0.3-0.6,0.3-1.1
					c0-0.5-0.1-0.8-0.3-1.1c-0.1-0.2-0.3-0.3-0.6-0.3c-0.3,0-0.4,0.1-0.6,0.3c-0.2,0.2-0.3,0.6-0.3,1.1
					C197.2,131.1,197.3,131.5,197.4,131.7z"/>
				<path fill="#231F20" d="M202.7,129.4c-0.3,0.3-1.4,1.2-1.5,3.1h-0.7c0.2-2.1,1.5-3.1,1.5-3.1h-2v-0.6h2.8V129.4z"/>
			</g>
		</g>
		<g>
			<g>
				<path fill="#231F20" d="M213.9,132.5h-0.6l2-4.1h0.6L213.9,132.5z"/>
				<path fill="#231F20" d="M218.2,129.3c0.2-0.4,0.6-0.6,1.2-0.6c0.6,0,0.9,0.2,1.2,0.6c0.3,0.4,0.3,0.8,0.3,1.3
					c0,0.5-0.1,1-0.3,1.3c-0.2,0.4-0.6,0.6-1.2,0.6c-0.6,0-0.9-0.2-1.2-0.6c-0.3-0.4-0.3-0.8-0.3-1.3
					C217.9,130.2,218,129.7,218.2,129.3z M218.8,131.7c0.1,0.2,0.3,0.3,0.6,0.3c0.3,0,0.4-0.1,0.6-0.3c0.2-0.2,0.3-0.6,0.3-1.1
					c0-0.5-0.1-0.8-0.3-1.1c-0.1-0.2-0.3-0.3-0.6-0.3c-0.3,0-0.4,0.1-0.6,0.3c-0.2,0.2-0.3,0.6-0.3,1.1
					C218.6,131.1,218.7,131.5,218.8,131.7z"/>
				<path fill="#231F20" d="M222.3,132.5V130h-0.9v-0.5c0.5,0,0.9-0.3,1-0.7h0.6v3.7H222.3z"/>
			</g>
		</g>
		<g>
			<g>
				<path fill="#231F20" d="M234.6,132.5H234l2-4.1h0.6L234.6,132.5z"/>
				<path fill="#231F20" d="M238.9,129.3c0.2-0.4,0.6-0.6,1.2-0.6c0.6,0,0.9,0.2,1.2,0.6c0.3,0.4,0.3,0.8,0.3,1.3
					c0,0.5-0.1,1-0.3,1.3c-0.2,0.4-0.6,0.6-1.2,0.6c-0.6,0-0.9-0.2-1.2-0.6c-0.3-0.4-0.3-0.8-0.3-1.3
					C238.5,130.2,238.6,129.7,238.9,129.3z M239.5,131.7c0.1,0.2,0.3,0.3,0.6,0.3c0.3,0,0.4-0.1,0.6-0.3c0.2-0.2,0.3-0.6,0.3-1.1
					c0-0.5-0.1-0.8-0.3-1.1c-0.1-0.2-0.3-0.3-0.6-0.3c-0.3,0-0.4,0.1-0.6,0.3c-0.2,0.2-0.3,0.6-0.3,1.1
					C239.2,131.1,239.3,131.5,239.5,131.7z"/>
				<path fill="#231F20" d="M244.8,129.4c-0.3,0.3-1.4,1.2-1.5,3.1h-0.7c0.2-2.1,1.5-3.1,1.5-3.1h-2v-0.6h2.8V129.4z"/>
			</g>
		</g>
		<g>
			<g>
				<path fill="#231F20" d="M256,132.5h-0.6l2-4.1h0.6L256,132.5z"/>
				<path fill="#231F20" d="M260.3,129.3c0.2-0.4,0.6-0.6,1.2-0.6c0.6,0,0.9,0.2,1.2,0.6c0.3,0.4,0.3,0.8,0.3,1.3
					c0,0.5-0.1,1-0.3,1.3c-0.2,0.4-0.6,0.6-1.2,0.6c-0.6,0-0.9-0.2-1.2-0.6c-0.3-0.4-0.3-0.8-0.3-1.3
					C259.9,130.2,260,129.7,260.3,129.3z M260.9,131.7c0.1,0.2,0.3,0.3,0.6,0.3c0.3,0,0.4-0.1,0.6-0.3c0.2-0.2,0.3-0.6,0.3-1.1
					c0-0.5-0.1-0.8-0.3-1.1c-0.1-0.2-0.3-0.3-0.6-0.3c-0.3,0-0.4,0.1-0.6,0.3c-0.2,0.2-0.3,0.6-0.3,1.1
					C260.6,131.1,260.7,131.5,260.9,131.7z"/>
				<path fill="#231F20" d="M264.4,132.5V130h-0.9v-0.5c0.5,0,0.9-0.3,1-0.7h0.6v3.7H264.4z"/>
			</g>
		</g>
		<g>
			<g>
				<path fill="#231F20" d="M276.3,132.5h-0.6l2-4.1h0.6L276.3,132.5z"/>
				<path fill="#231F20" d="M280.6,129.3c0.2-0.4,0.6-0.6,1.2-0.6c0.6,0,0.9,0.2,1.2,0.6c0.3,0.4,0.3,0.8,0.3,1.3
					c0,0.5-0.1,1-0.3,1.3c-0.2,0.4-0.6,0.6-1.2,0.6c-0.6,0-0.9-0.2-1.2-0.6c-0.3-0.4-0.3-0.8-0.3-1.3
					C280.2,130.2,280.3,129.7,280.6,129.3z M281.2,131.7c0.1,0.2,0.3,0.3,0.6,0.3c0.3,0,0.4-0.1,0.6-0.3c0.2-0.2,0.3-0.6,0.3-1.1
					c0-0.5-0.1-0.8-0.3-1.1c-0.1-0.2-0.3-0.3-0.6-0.3c-0.3,0-0.4,0.1-0.6,0.3c-0.2,0.2-0.3,0.6-0.3,1.1
					C280.9,131.1,281,131.5,281.2,131.7z"/>
				<path fill="#231F20" d="M286.4,129.4c-0.3,0.3-1.4,1.2-1.5,3.1h-0.7c0.2-2.1,1.5-3.1,1.5-3.1h-2v-0.6h2.8V129.4z"/>
			</g>
		</g>
		<g>
			<g>
				<path fill="#231F20" d="M44.5,122.4c0-0.1,0-0.1,0-0.2c0-0.6,0.5-1.2,1.3-1.2c0.8,0,1.3,0.5,1.3,1.2c0,0.5-0.3,0.9-0.7,1.1
					l-0.7,0.4c-0.2,0.1-0.3,0.2-0.4,0.4h1.8v0.6h-2.7c0-0.6,0.2-1.1,0.9-1.5l0.6-0.4c0.3-0.2,0.5-0.4,0.5-0.7c0-0.3-0.2-0.6-0.6-0.6
					c-0.4,0-0.6,0.3-0.6,0.7c0,0.1,0,0.1,0,0.2L44.5,122.4z"/>
				<path fill="#231F20" d="M48.1,121.6c0.2-0.4,0.6-0.6,1.2-0.6s0.9,0.2,1.2,0.6c0.3,0.4,0.3,0.8,0.3,1.3c0,0.5-0.1,1-0.3,1.3
					c-0.2,0.4-0.6,0.6-1.2,0.6s-0.9-0.2-1.2-0.6c-0.3-0.4-0.3-0.8-0.3-1.3C47.7,122.5,47.8,122,48.1,121.6z M48.7,124
					c0.1,0.2,0.3,0.3,0.6,0.3s0.4-0.1,0.6-0.3c0.2-0.2,0.3-0.6,0.3-1.1c0-0.5-0.1-0.8-0.3-1.1c-0.1-0.2-0.3-0.3-0.6-0.3
					s-0.4,0.1-0.6,0.3c-0.2,0.2-0.3,0.6-0.3,1.1C48.4,123.4,48.5,123.8,48.7,124z"/>
				<path fill="#231F20" d="M52.2,124.8v-2.5h-0.9v-0.5c0.5,0,0.9-0.3,1-0.7h0.6v3.7H52.2z"/>
				<path fill="#231F20" d="M53.7,122.4c0-0.1,0-0.1,0-0.2c0-0.6,0.5-1.2,1.3-1.2c0.8,0,1.3,0.5,1.3,1.2c0,0.5-0.3,0.9-0.7,1.1
					l-0.7,0.4c-0.2,0.1-0.3,0.2-0.4,0.4h1.8v0.6h-2.7c0-0.6,0.2-1.1,0.9-1.5l0.6-0.4c0.3-0.2,0.5-0.4,0.5-0.7c0-0.3-0.2-0.6-0.6-0.6
					c-0.4,0-0.6,0.3-0.6,0.7c0,0.1,0,0.1,0,0.2L53.7,122.4z"/>
			</g>
		</g>
		<g>
			<g>
				<path fill="#231F20" d="M65.4,122.4c0-0.1,0-0.1,0-0.2c0-0.6,0.5-1.2,1.3-1.2c0.8,0,1.3,0.5,1.3,1.2c0,0.5-0.3,0.9-0.7,1.1
					l-0.7,0.4c-0.2,0.1-0.3,0.2-0.4,0.4H68v0.6h-2.7c0-0.6,0.2-1.1,0.9-1.5l0.6-0.4c0.3-0.2,0.5-0.4,0.5-0.7c0-0.3-0.2-0.6-0.6-0.6
					c-0.4,0-0.6,0.3-0.6,0.7c0,0.1,0,0.1,0,0.2L65.4,122.4z"/>
				<path fill="#231F20" d="M69,121.6c0.2-0.4,0.6-0.6,1.2-0.6s0.9,0.2,1.2,0.6c0.3,0.4,0.3,0.8,0.3,1.3c0,0.5-0.1,1-0.3,1.3
					c-0.2,0.4-0.6,0.6-1.2,0.6s-0.9-0.2-1.2-0.6c-0.3-0.4-0.3-0.8-0.3-1.3C68.6,122.5,68.7,122,69,121.6z M69.6,124
					c0.1,0.2,0.3,0.3,0.6,0.3s0.4-0.1,0.6-0.3c0.2-0.2,0.3-0.6,0.3-1.1c0-0.5-0.1-0.8-0.3-1.1c-0.1-0.2-0.3-0.3-0.6-0.3
					s-0.4,0.1-0.6,0.3c-0.2,0.2-0.3,0.6-0.3,1.1C69.3,123.4,69.4,123.8,69.6,124z"/>
				<path fill="#231F20" d="M73.1,124.8v-2.5h-0.9v-0.5c0.5,0,0.9-0.3,1-0.7h0.6v3.7H73.1z"/>
				<path fill="#231F20" d="M74.6,122.4c0-0.1,0-0.1,0-0.2c0-0.6,0.5-1.2,1.3-1.2c0.8,0,1.3,0.5,1.3,1.2c0,0.5-0.3,0.9-0.7,1.1
					l-0.7,0.4c-0.2,0.1-0.3,0.2-0.4,0.4h1.8v0.6h-2.7c0-0.6,0.2-1.1,0.9-1.5l0.6-0.4c0.3-0.2,0.5-0.4,0.5-0.7c0-0.3-0.2-0.6-0.6-0.6
					c-0.4,0-0.6,0.3-0.6,0.7c0,0.1,0,0.1,0,0.2L74.6,122.4z"/>
			</g>
		</g>
		<g>
			<g>
				<path fill="#231F20" d="M86.3,122.4c0-0.1,0-0.1,0-0.2c0-0.6,0.5-1.2,1.3-1.2c0.8,0,1.3,0.5,1.3,1.2c0,0.5-0.3,0.9-0.7,1.1
					l-0.7,0.4c-0.2,0.1-0.3,0.2-0.4,0.4h1.8v0.6h-2.7c0-0.6,0.2-1.1,0.9-1.5l0.6-0.4c0.3-0.2,0.5-0.4,0.5-0.7c0-0.3-0.2-0.6-0.6-0.6
					c-0.4,0-0.6,0.3-0.6,0.7c0,0.1,0,0.1,0,0.2L86.3,122.4z"/>
				<path fill="#231F20" d="M89.9,121.6c0.2-0.4,0.6-0.6,1.2-0.6s0.9,0.2,1.2,0.6c0.3,0.4,0.3,0.8,0.3,1.3c0,0.5-0.1,1-0.3,1.3
					c-0.2,0.4-0.6,0.6-1.2,0.6s-0.9-0.2-1.2-0.6c-0.3-0.4-0.3-0.8-0.3-1.3C89.5,122.5,89.6,122,89.9,121.6z M90.5,124
					c0.1,0.2,0.3,0.3,0.6,0.3s0.4-0.1,0.6-0.3c0.2-0.2,0.3-0.6,0.3-1.1c0-0.5-0.1-0.8-0.3-1.1c-0.1-0.2-0.3-0.3-0.6-0.3
					s-0.4,0.1-0.6,0.3c-0.2,0.2-0.3,0.6-0.3,1.1C90.2,123.4,90.3,123.8,90.5,124z"/>
				<path fill="#231F20" d="M94,124.8v-2.5h-0.9v-0.5c0.5,0,0.9-0.3,1-0.7h0.6v3.7H94z"/>
				<path fill="#231F20" d="M96.2,122.6l1-0.9h-1.7v-0.6h2.6v0.6l-1,0.9c0.6,0,1.1,0.4,1.1,1.1c0,0.6-0.5,1.2-1.4,1.2
					c-0.9,0-1.4-0.6-1.4-1.2l0.7-0.1c0,0.4,0.3,0.7,0.7,0.7c0.5,0,0.7-0.3,0.7-0.6c0-0.4-0.3-0.6-0.7-0.6c-0.2,0-0.3,0-0.3,0.1
					L96.2,122.6z"/>
			</g>
		</g>
		<g>
			<g>
				<path fill="#231F20" d="M107.3,122.4c0-0.1,0-0.1,0-0.2c0-0.6,0.5-1.2,1.3-1.2c0.8,0,1.3,0.5,1.3,1.2c0,0.5-0.3,0.9-0.7,1.1
					l-0.7,0.4c-0.2,0.1-0.3,0.2-0.4,0.4h1.8v0.6h-2.7c0-0.6,0.2-1.1,0.9-1.5l0.6-0.4c0.3-0.2,0.5-0.4,0.5-0.7c0-0.3-0.2-0.6-0.6-0.6
					c-0.4,0-0.6,0.3-0.6,0.7c0,0.1,0,0.1,0,0.2L107.3,122.4z"/>
				<path fill="#231F20" d="M110.8,121.6c0.2-0.4,0.6-0.6,1.2-0.6s0.9,0.2,1.2,0.6c0.3,0.4,0.3,0.8,0.3,1.3c0,0.5-0.1,1-0.3,1.3
					c-0.2,0.4-0.6,0.6-1.2,0.6s-0.9-0.2-1.2-0.6c-0.3-0.4-0.3-0.8-0.3-1.3C110.5,122.5,110.6,122,110.8,121.6z M111.4,124
					c0.1,0.2,0.3,0.3,0.6,0.3s0.4-0.1,0.6-0.3c0.2-0.2,0.3-0.6,0.3-1.1c0-0.5-0.1-0.8-0.3-1.1c-0.1-0.2-0.3-0.3-0.6-0.3
					s-0.4,0.1-0.6,0.3c-0.2,0.2-0.3,0.6-0.3,1.1C111.2,123.4,111.3,123.8,111.4,124z"/>
				<path fill="#231F20" d="M114.9,124.8v-2.5H114v-0.5c0.5,0,0.9-0.3,1-0.7h0.6v3.7H114.9z"/>
				<path fill="#231F20" d="M117.1,122.6l1-0.9h-1.7v-0.6h2.6v0.6l-1,0.9c0.6,0,1.1,0.4,1.1,1.1c0,0.6-0.5,1.2-1.4,1.2
					c-0.9,0-1.4-0.6-1.4-1.2l0.7-0.1c0,0.4,0.3,0.7,0.7,0.7c0.5,0,0.7-0.3,0.7-0.6c0-0.4-0.3-0.6-0.7-0.6c-0.2,0-0.3,0-0.3,0.1
					L117.1,122.6z"/>
			</g>
		</g>
		<g>
			<g>
				<path fill="#231F20" d="M128.2,122.4c0-0.1,0-0.1,0-0.2c0-0.6,0.5-1.2,1.3-1.2c0.8,0,1.3,0.5,1.3,1.2c0,0.5-0.3,0.9-0.7,1.1
					l-0.7,0.4c-0.2,0.1-0.3,0.2-0.4,0.4h1.8v0.6h-2.7c0-0.6,0.2-1.1,0.9-1.5l0.6-0.4c0.3-0.2,0.5-0.4,0.5-0.7c0-0.3-0.2-0.6-0.6-0.6
					c-0.4,0-0.6,0.3-0.6,0.7c0,0.1,0,0.1,0,0.2L128.2,122.4z"/>
				<path fill="#231F20" d="M131.8,121.6c0.2-0.4,0.6-0.6,1.2-0.6c0.6,0,0.9,0.2,1.2,0.6c0.3,0.4,0.3,0.8,0.3,1.3
					c0,0.5-0.1,1-0.3,1.3c-0.2,0.4-0.6,0.6-1.2,0.6c-0.6,0-0.9-0.2-1.2-0.6c-0.3-0.4-0.3-0.8-0.3-1.3
					C131.4,122.5,131.5,122,131.8,121.6z M132.4,124c0.1,0.2,0.3,0.3,0.6,0.3c0.3,0,0.4-0.1,0.6-0.3c0.2-0.2,0.3-0.6,0.3-1.1
					c0-0.5-0.1-0.8-0.3-1.1c-0.1-0.2-0.3-0.3-0.6-0.3c-0.3,0-0.4,0.1-0.6,0.3c-0.2,0.2-0.3,0.6-0.3,1.1
					C132.1,123.4,132.2,123.8,132.4,124z"/>
				<path fill="#231F20" d="M135.9,124.8v-2.5H135v-0.5c0.5,0,0.9-0.3,1-0.7h0.6v3.7H135.9z"/>
				<path fill="#231F20" d="M137.3,123.2l1.6-2.2h0.9v2.3h0.6v0.6h-0.6v0.8h-0.7V124h-1.8V123.2z M139.1,121.8l-1.2,1.6h1.2V121.8z"
					/>
			</g>
		</g>
		<g>
			<g>
				<path fill="#231F20" d="M149.3,122.4c0-0.1,0-0.1,0-0.2c0-0.6,0.5-1.2,1.3-1.2c0.8,0,1.3,0.5,1.3,1.2c0,0.5-0.3,0.9-0.7,1.1
					l-0.7,0.4c-0.2,0.1-0.3,0.2-0.4,0.4h1.8v0.6h-2.7c0-0.6,0.2-1.1,0.9-1.5l0.6-0.4c0.3-0.2,0.5-0.4,0.5-0.7c0-0.3-0.2-0.6-0.6-0.6
					c-0.4,0-0.6,0.3-0.6,0.7c0,0.1,0,0.1,0,0.2L149.3,122.4z"/>
				<path fill="#231F20" d="M152.9,121.6c0.2-0.4,0.6-0.6,1.2-0.6c0.6,0,0.9,0.2,1.2,0.6c0.3,0.4,0.3,0.8,0.3,1.3
					c0,0.5-0.1,1-0.3,1.3c-0.2,0.4-0.6,0.6-1.2,0.6c-0.6,0-0.9-0.2-1.2-0.6c-0.3-0.4-0.3-0.8-0.3-1.3
					C152.6,122.5,152.6,122,152.9,121.6z M153.5,124c0.1,0.2,0.3,0.3,0.6,0.3c0.3,0,0.4-0.1,0.6-0.3c0.2-0.2,0.3-0.6,0.3-1.1
					c0-0.5-0.1-0.8-0.3-1.1c-0.1-0.2-0.3-0.3-0.6-0.3c-0.3,0-0.4,0.1-0.6,0.3c-0.2,0.2-0.3,0.6-0.3,1.1
					C153.2,123.4,153.3,123.8,153.5,124z"/>
				<path fill="#231F20" d="M157,124.8v-2.5h-0.9v-0.5c0.5,0,0.9-0.3,1-0.7h0.6v3.7H157z"/>
				<path fill="#231F20" d="M158.4,123.2l1.6-2.2h0.9v2.3h0.6v0.6h-0.6v0.8h-0.7V124h-1.8V123.2z M160.2,121.8l-1.2,1.6h1.2V121.8z"
					/>
			</g>
		</g>
		<g>
			<g>
				<path fill="#231F20" d="M170.5,122.4c0-0.1,0-0.1,0-0.2c0-0.6,0.5-1.2,1.3-1.2c0.8,0,1.3,0.5,1.3,1.2c0,0.5-0.3,0.9-0.7,1.1
					l-0.7,0.4c-0.2,0.1-0.3,0.2-0.4,0.4h1.8v0.6h-2.7c0-0.6,0.2-1.1,0.9-1.5l0.6-0.4c0.3-0.2,0.5-0.4,0.5-0.7c0-0.3-0.2-0.6-0.6-0.6
					c-0.4,0-0.6,0.3-0.6,0.7c0,0.1,0,0.1,0,0.2L170.5,122.4z"/>
				<path fill="#231F20" d="M174,121.6c0.2-0.4,0.6-0.6,1.2-0.6c0.6,0,0.9,0.2,1.2,0.6c0.3,0.4,0.3,0.8,0.3,1.3c0,0.5-0.1,1-0.3,1.3
					c-0.2,0.4-0.6,0.6-1.2,0.6c-0.6,0-0.9-0.2-1.2-0.6c-0.3-0.4-0.3-0.8-0.3-1.3C173.7,122.5,173.8,122,174,121.6z M174.6,124
					c0.1,0.2,0.3,0.3,0.6,0.3c0.3,0,0.4-0.1,0.6-0.3c0.2-0.2,0.3-0.6,0.3-1.1c0-0.5-0.1-0.8-0.3-1.1c-0.1-0.2-0.3-0.3-0.6-0.3
					c-0.3,0-0.4,0.1-0.6,0.3c-0.2,0.2-0.3,0.6-0.3,1.1C174.4,123.4,174.5,123.8,174.6,124z"/>
				<path fill="#231F20" d="M178.1,124.8v-2.5h-0.9v-0.5c0.5,0,0.9-0.3,1-0.7h0.6v3.7H178.1z"/>
				<path fill="#231F20" d="M180.2,123.6c0,0.4,0.3,0.7,0.7,0.7c0.4,0,0.7-0.3,0.7-0.7c0-0.5-0.3-0.7-0.7-0.7
					c-0.3,0-0.5,0.1-0.6,0.3l-0.6-0.2l0.5-1.9h2v0.6h-1.6l-0.2,0.9c0.2-0.2,0.4-0.3,0.7-0.3c0.7,0,1.3,0.5,1.3,1.2
					c0,0.7-0.5,1.3-1.4,1.3c-0.8,0-1.4-0.5-1.4-1.1L180.2,123.6z"/>
			</g>
		</g>
		<g>
			<g>
				<path fill="#231F20" d="M191.4,122.4c0-0.1,0-0.1,0-0.2c0-0.6,0.5-1.2,1.3-1.2c0.8,0,1.3,0.5,1.3,1.2c0,0.5-0.3,0.9-0.7,1.1
					l-0.7,0.4c-0.2,0.1-0.3,0.2-0.4,0.4h1.8v0.6h-2.7c0-0.6,0.2-1.1,0.9-1.5l0.6-0.4c0.3-0.2,0.5-0.4,0.5-0.7c0-0.3-0.2-0.6-0.6-0.6
					c-0.4,0-0.6,0.3-0.6,0.7c0,0.1,0,0.1,0,0.2L191.4,122.4z"/>
				<path fill="#231F20" d="M195,121.6c0.2-0.4,0.6-0.6,1.2-0.6c0.6,0,0.9,0.2,1.2,0.6c0.3,0.4,0.3,0.8,0.3,1.3c0,0.5-0.1,1-0.3,1.3
					c-0.2,0.4-0.6,0.6-1.2,0.6c-0.6,0-0.9-0.2-1.2-0.6c-0.3-0.4-0.3-0.8-0.3-1.3C194.6,122.5,194.7,122,195,121.6z M195.6,124
					c0.1,0.2,0.3,0.3,0.6,0.3c0.3,0,0.4-0.1,0.6-0.3c0.2-0.2,0.3-0.6,0.3-1.1c0-0.5-0.1-0.8-0.3-1.1c-0.1-0.2-0.3-0.3-0.6-0.3
					c-0.3,0-0.4,0.1-0.6,0.3c-0.2,0.2-0.3,0.6-0.3,1.1C195.3,123.4,195.4,123.8,195.6,124z"/>
				<path fill="#231F20" d="M199.1,124.8v-2.5h-0.9v-0.5c0.5,0,0.9-0.3,1-0.7h0.6v3.7H199.1z"/>
				<path fill="#231F20" d="M201.2,123.6c0,0.4,0.3,0.7,0.7,0.7c0.4,0,0.7-0.3,0.7-0.7c0-0.5-0.3-0.7-0.7-0.7
					c-0.3,0-0.5,0.1-0.6,0.3l-0.6-0.2l0.5-1.9h2v0.6h-1.6l-0.2,0.9c0.2-0.2,0.4-0.3,0.7-0.3c0.7,0,1.3,0.5,1.3,1.2
					c0,0.7-0.5,1.3-1.4,1.3c-0.8,0-1.4-0.5-1.4-1.1L201.2,123.6z"/>
			</g>
		</g>
		<g>
			<g>
				<path fill="#231F20" d="M212.4,122.4c0-0.1,0-0.1,0-0.2c0-0.6,0.5-1.2,1.3-1.2c0.8,0,1.3,0.5,1.3,1.2c0,0.5-0.3,0.9-0.7,1.1
					l-0.7,0.4c-0.2,0.1-0.3,0.2-0.4,0.4h1.8v0.6h-2.7c0-0.6,0.2-1.1,0.9-1.5l0.6-0.4c0.3-0.2,0.5-0.4,0.5-0.7c0-0.3-0.2-0.6-0.6-0.6
					c-0.4,0-0.6,0.3-0.6,0.7c0,0.1,0,0.1,0,0.2L212.4,122.4z"/>
				<path fill="#231F20" d="M215.9,121.6c0.2-0.4,0.6-0.6,1.2-0.6c0.6,0,0.9,0.2,1.2,0.6c0.3,0.4,0.3,0.8,0.3,1.3
					c0,0.5-0.1,1-0.3,1.3c-0.2,0.4-0.6,0.6-1.2,0.6c-0.6,0-0.9-0.2-1.2-0.6c-0.3-0.4-0.3-0.8-0.3-1.3
					C215.6,122.5,215.7,122,215.9,121.6z M216.5,124c0.1,0.2,0.3,0.3,0.6,0.3c0.3,0,0.4-0.1,0.6-0.3c0.2-0.2,0.3-0.6,0.3-1.1
					c0-0.5-0.1-0.8-0.3-1.1c-0.1-0.2-0.3-0.3-0.6-0.3c-0.3,0-0.4,0.1-0.6,0.3c-0.2,0.2-0.3,0.6-0.3,1.1
					C216.3,123.4,216.4,123.8,216.5,124z"/>
				<path fill="#231F20" d="M220,124.8v-2.5h-0.9v-0.5c0.5,0,0.9-0.3,1-0.7h0.6v3.7H220z"/>
				<path fill="#231F20" d="M224.2,121.8c-0.1-0.1-0.3-0.1-0.6-0.1c-0.7,0-1.2,0.5-1.3,1.2c0.2-0.3,0.5-0.4,0.9-0.4
					c0.7,0,1.3,0.5,1.3,1.3c0,0.8-0.6,1.3-1.4,1.3c-0.9,0-1.5-0.8-1.5-1.7c0-1.3,0.8-2.2,2-2.2c0.3,0,0.6,0.1,0.8,0.2L224.2,121.8z
					 M223.1,124.3c0.4,0,0.7-0.3,0.7-0.7c0-0.4-0.3-0.7-0.7-0.7c-0.4,0-0.7,0.3-0.7,0.7C222.3,124,222.7,124.3,223.1,124.3z"/>
			</g>
		</g>
		<g>
			<g>
				<path fill="#231F20" d="M233.5,122.4c0-0.1,0-0.1,0-0.2c0-0.6,0.5-1.2,1.3-1.2c0.8,0,1.3,0.5,1.3,1.2c0,0.5-0.3,0.9-0.7,1.1
					l-0.7,0.4c-0.2,0.1-0.3,0.2-0.4,0.4h1.8v0.6h-2.7c0-0.6,0.2-1.1,0.9-1.5l0.6-0.4c0.3-0.2,0.5-0.4,0.5-0.7c0-0.3-0.2-0.6-0.6-0.6
					c-0.4,0-0.6,0.3-0.6,0.7c0,0.1,0,0.1,0,0.2L233.5,122.4z"/>
				<path fill="#231F20" d="M237.1,121.6c0.2-0.4,0.6-0.6,1.2-0.6c0.6,0,0.9,0.2,1.2,0.6c0.3,0.4,0.3,0.8,0.3,1.3
					c0,0.5-0.1,1-0.3,1.3c-0.2,0.4-0.6,0.6-1.2,0.6c-0.6,0-0.9-0.2-1.2-0.6c-0.3-0.4-0.3-0.8-0.3-1.3
					C236.7,122.5,236.8,122,237.1,121.6z M237.7,124c0.1,0.2,0.3,0.3,0.6,0.3c0.3,0,0.4-0.1,0.6-0.3c0.2-0.2,0.3-0.6,0.3-1.1
					c0-0.5-0.1-0.8-0.3-1.1c-0.1-0.2-0.3-0.3-0.6-0.3c-0.3,0-0.4,0.1-0.6,0.3c-0.2,0.2-0.3,0.6-0.3,1.1
					C237.4,123.4,237.5,123.8,237.7,124z"/>
				<path fill="#231F20" d="M241.2,124.8v-2.5h-0.9v-0.5c0.5,0,0.9-0.3,1-0.7h0.6v3.7H241.2z"/>
				<path fill="#231F20" d="M245.3,121.8c-0.1-0.1-0.3-0.1-0.6-0.1c-0.7,0-1.2,0.5-1.3,1.2c0.2-0.3,0.5-0.4,0.9-0.4
					c0.7,0,1.3,0.5,1.3,1.3c0,0.8-0.6,1.3-1.4,1.3c-0.9,0-1.5-0.8-1.5-1.7c0-1.3,0.8-2.2,2-2.2c0.3,0,0.6,0.1,0.8,0.2L245.3,121.8z
					 M244.2,124.3c0.4,0,0.7-0.3,0.7-0.7c0-0.4-0.3-0.7-0.7-0.7c-0.4,0-0.7,0.3-0.7,0.7C243.5,124,243.8,124.3,244.2,124.3z"/>
			</g>
		</g>
		<g>
			<g>
				<path fill="#231F20" d="M254.6,122.4c0-0.1,0-0.1,0-0.2c0-0.6,0.5-1.2,1.3-1.2c0.8,0,1.3,0.5,1.3,1.2c0,0.5-0.3,0.9-0.7,1.1
					l-0.7,0.4c-0.2,0.1-0.3,0.2-0.4,0.4h1.8v0.6h-2.7c0-0.6,0.2-1.1,0.9-1.5l0.6-0.4c0.3-0.2,0.5-0.4,0.5-0.7c0-0.3-0.2-0.6-0.6-0.6
					c-0.4,0-0.6,0.3-0.6,0.7c0,0.1,0,0.1,0,0.2L254.6,122.4z"/>
				<path fill="#231F20" d="M258.2,121.6c0.2-0.4,0.6-0.6,1.2-0.6c0.6,0,0.9,0.2,1.2,0.6c0.3,0.4,0.3,0.8,0.3,1.3
					c0,0.5-0.1,1-0.3,1.3c-0.2,0.4-0.6,0.6-1.2,0.6c-0.6,0-0.9-0.2-1.2-0.6c-0.3-0.4-0.3-0.8-0.3-1.3
					C257.9,122.5,258,122,258.2,121.6z M258.8,124c0.1,0.2,0.3,0.3,0.6,0.3c0.3,0,0.4-0.1,0.6-0.3c0.2-0.2,0.3-0.6,0.3-1.1
					c0-0.5-0.1-0.8-0.3-1.1c-0.1-0.2-0.3-0.3-0.6-0.3c-0.3,0-0.4,0.1-0.6,0.3c-0.2,0.2-0.3,0.6-0.3,1.1
					C258.6,123.4,258.6,123.8,258.8,124z"/>
				<path fill="#231F20" d="M262.3,124.8v-2.5h-0.9v-0.5c0.5,0,0.9-0.3,1-0.7h0.6v3.7H262.3z"/>
				<path fill="#231F20" d="M266.4,121.7c-0.3,0.3-1.4,1.2-1.5,3.1h-0.7c0.2-2.1,1.5-3.1,1.5-3.1h-2v-0.6h2.8V121.7z"/>
			</g>
		</g>
		<g>
			<g>
				<path fill="#231F20" d="M275.3,122.4c0-0.1,0-0.1,0-0.2c0-0.6,0.5-1.2,1.3-1.2c0.8,0,1.3,0.5,1.3,1.2c0,0.5-0.3,0.9-0.7,1.1
					l-0.7,0.4c-0.2,0.1-0.3,0.2-0.4,0.4h1.8v0.6h-2.7c0-0.6,0.2-1.1,0.9-1.5l0.6-0.4c0.3-0.2,0.5-0.4,0.5-0.7c0-0.3-0.2-0.6-0.6-0.6
					c-0.4,0-0.6,0.3-0.6,0.7c0,0.1,0,0.1,0,0.2L275.3,122.4z"/>
				<path fill="#231F20" d="M278.9,121.6c0.2-0.4,0.6-0.6,1.2-0.6c0.6,0,0.9,0.2,1.2,0.6c0.3,0.4,0.3,0.8,0.3,1.3
					c0,0.5-0.1,1-0.3,1.3c-0.2,0.4-0.6,0.6-1.2,0.6c-0.6,0-0.9-0.2-1.2-0.6c-0.3-0.4-0.3-0.8-0.3-1.3
					C278.5,122.5,278.6,122,278.9,121.6z M279.5,124c0.1,0.2,0.3,0.3,0.6,0.3c0.3,0,0.4-0.1,0.6-0.3c0.2-0.2,0.3-0.6,0.3-1.1
					c0-0.5-0.1-0.8-0.3-1.1c-0.1-0.2-0.3-0.3-0.6-0.3c-0.3,0-0.4,0.1-0.6,0.3c-0.2,0.2-0.3,0.6-0.3,1.1
					C279.2,123.4,279.3,123.8,279.5,124z"/>
				<path fill="#231F20" d="M283,124.8v-2.5h-0.9v-0.5c0.5,0,0.9-0.3,1-0.7h0.6v3.7H283z"/>
				<path fill="#231F20" d="M287,121.7c-0.3,0.3-1.4,1.2-1.5,3.1h-0.7c0.2-2.1,1.5-3.1,1.5-3.1h-2v-0.6h2.8V121.7z"/>
			</g>
		</g>
		<g>
			<g>
				<path fill="#231F20" d="M23.3,143.4c0,0.1,0,0.3,0,0.4c0.2,1,0.4,1.7,1,2.2c-0.1,0.1-0.2,0.2-0.2,0.3c-0.5-0.5-0.7-0.9-0.9-1.6
					c-0.1,0.5-0.4,1.1-0.9,1.6c-0.1-0.1-0.2-0.2-0.3-0.3l0,0c-0.1,0-0.3,0-0.4,0h-1.1c-0.6,0-0.8-0.2-0.8-0.8v-3.2h-0.2v-0.3h2.6
					v0.3h-2v3.2c0,0.3,0.1,0.4,0.4,0.4h1.2c0.1,0,0.4,0,0.5,0c0,0.1,0,0.2,0,0.3c0.7-0.8,0.8-1.8,0.8-2.6V143h0.4V143.4z M20.2,144
					H21v1.3h-0.8V144z M21.8,143.7h-1.4v-1.2h1.4V143.7z M20.4,145.1h0.4v-0.8h-0.4V145.1z M21.4,142.7h-0.7v0.7h0.7V142.7z
					 M22,145.3h-0.8V144H22V145.3z M21.8,144.3h-0.4v0.8h0.4V144.3z M22.7,142.7c-0.1,0.4-0.3,0.8-0.5,1.1c-0.1-0.1-0.2-0.2-0.3-0.2
					c0.3-0.5,0.6-1.3,0.7-2.1l0.4,0.1c0,0.3-0.1,0.5-0.2,0.8h1.2l0.1,0l0.2,0.1c-0.1,0.5-0.2,1-0.4,1.4l-0.3-0.1
					c0.1-0.2,0.2-0.6,0.3-1H22.7z"/>
				<path fill="#231F20" d="M25.8,143.8c-0.2-0.2-0.6-0.4-0.9-0.5l0.2-0.3c0.3,0.1,0.7,0.4,0.9,0.5L25.8,143.8z M25,146.1
					c0.2-0.4,0.5-1.1,0.7-1.7l0.3,0.2c-0.2,0.6-0.5,1.2-0.7,1.7L25,146.1z M26,142.4c-0.2-0.2-0.6-0.4-0.8-0.6l0.2-0.3
					c0.3,0.2,0.7,0.4,0.9,0.5L26,142.4z M26.9,141.6h0.4v1.8c0,1-0.1,2.1-0.8,2.9c-0.1-0.1-0.2-0.2-0.3-0.2c0.6-0.8,0.7-1.7,0.7-2.6
					V141.6z M26.5,144.4c0-0.3-0.2-0.9-0.4-1.3l0.3-0.1c0.2,0.4,0.3,0.9,0.4,1.2L26.5,144.4z M27.5,143.1c0.2,0.4,0.3,0.8,0.4,1.2
					l-0.3,0.1c0-0.3-0.2-0.8-0.3-1.2L27.5,143.1z M29.5,141.6v4.7h-0.4v-2.1l-0.3,0.1c-0.1-0.3-0.3-0.8-0.5-1.2v3H28v-4.5h0.4v1.4
					l0.2-0.1c0.2,0.4,0.4,0.8,0.5,1.2v-2.6H29.5z"/>
				<path fill="#231F20" d="M34.2,145.7c0.3,0,0.7,0,0.9-0.1c0,0.1,0,0.3,0.1,0.4c-0.1,0-0.5,0-0.9,0h-2.3c-0.8,0-1.2-0.3-1.2-1v-3
					h-0.2v-0.4h4.4v0.4h-3.8v3c0,0.5,0.2,0.6,0.8,0.6H34.2z M31.5,144h1.4v1.4h-1.4V144z M31.8,145h0.7v-0.8h-0.7V145z M34,143.6h-2
					v-1.2h2V143.6z M33.6,142.7h-1.2v0.6h1.2V142.7z M34.6,145.3h-1.4V144h1.4V145.3z M34.3,144.3h-0.7v0.8h0.7V144.3z"/>
			</g>
			<circle fill="#002A5E" cx="11.3" cy="144.1" r="3.9"/>
		</g>
		<g>
			<g>
				<path fill="#231F20" d="M71.9,142.8c-0.1,0.2-0.3,0.5-0.4,0.7v2.8h-0.4V144c-0.2,0.2-0.4,0.4-0.5,0.6c0-0.1-0.2-0.3-0.2-0.3
					c0.4-0.4,0.9-1,1.2-1.6L71.9,142.8z M71.8,141.7c-0.3,0.5-0.8,1-1.3,1.3c0-0.1-0.1-0.2-0.2-0.3c0.4-0.3,0.9-0.8,1.1-1.2
					L71.8,141.7z M71.7,146c0.2-0.2,0.4-0.7,0.5-1l0.3,0.1c-0.1,0.3-0.3,0.8-0.5,1L71.7,146z M75.2,144.6h-3.4v-0.3h3.4V144.6z
					 M73.2,142.6c0-0.1,0-0.2,0.1-0.4h-1.4v-0.3h1.4c0-0.2,0-0.3,0-0.5l0.4,0c0,0.1,0,0.3-0.1,0.4h1.5v0.3h-1.5
					c0,0.1-0.1,0.3-0.1,0.4H75v1.3h-2.9v-1.3H73.2z M73,142.9h-0.5v0.7H73V142.9z M73.9,146c0.2,0,0.2-0.1,0.2-0.5
					c0.1,0.1,0.2,0.1,0.3,0.1c0,0.6-0.1,0.7-0.5,0.7h-0.8c-0.4,0-0.6-0.1-0.6-0.4V145H73v0.8c0,0.1,0,0.1,0.2,0.1H73.9z M73.6,145.4
					c-0.1-0.2-0.2-0.5-0.4-0.7l0.3-0.1c0.1,0.2,0.3,0.5,0.4,0.7L73.6,145.4z M73.8,142.9h-0.6v0.7h0.6V142.9z M74.1,143.7h0.6v-0.7
					h-0.6V143.7z M74.7,144.9c0.2,0.3,0.4,0.7,0.5,1l-0.3,0.1c-0.1-0.3-0.3-0.7-0.5-1L74.7,144.9z"/>
				<path fill="#231F20" d="M80.5,141.7v4.6h-0.4v-0.2h-3.6v0.2h-0.4v-4.6H80.5z M80.1,145.7v-3.6h-3.6v3.6H80.1z M78.3,144.9
					c-0.6,0.1-1.1,0.2-1.5,0.3l-0.1-0.3c0.4-0.1,1-0.2,1.6-0.3L78.3,144.9z M79.6,143.4c-0.1,0.5-0.3,0.9-0.6,1.3
					c0.1,0.3,0.3,0.5,0.4,0.5c0.1,0,0.1-0.2,0.2-0.5c0.1,0.1,0.2,0.1,0.3,0.2c-0.1,0.6-0.2,0.8-0.5,0.7c-0.2,0-0.4-0.2-0.6-0.5
					c-0.2,0.2-0.4,0.4-0.7,0.6c0-0.1-0.2-0.2-0.2-0.2c0.3-0.2,0.6-0.4,0.8-0.7c-0.1-0.4-0.2-1-0.3-1.6h-1.6v-0.3h1.6
					c0-0.2,0-0.4,0-0.6h0.3c0,0.2,0,0.4,0,0.6h1.2v0.3h-1.1c0,0.5,0.1,0.9,0.2,1.2c0.2-0.3,0.3-0.6,0.4-1L79.6,143.4z M78.1,143.4v1
					h-1.2v-1H78.1z M77.8,143.7h-0.6v0.5h0.6V143.7z M79.5,142.7c-0.1-0.1-0.4-0.3-0.6-0.4l0.2-0.2c0.2,0.1,0.5,0.2,0.6,0.4
					L79.5,142.7z"/>
			</g>
			<circle fill="#0C56AB" cx="62.2" cy="144.1" r="3.9"/>
		</g>
		<g>
			<g>
				<path fill="#231F20" d="M116.9,143.8c-0.2-0.2-0.6-0.4-1-0.6l0.2-0.3c0.3,0.1,0.8,0.4,1,0.5L116.9,143.8z M116.1,146
					c0.3-0.4,0.7-1.1,1-1.7l0.3,0.3c-0.3,0.6-0.6,1.2-1,1.7L116.1,146z M116.4,141.6c0.3,0.1,0.8,0.4,1,0.5l-0.2,0.3
					c-0.2-0.2-0.6-0.4-1-0.6L116.4,141.6z M120.3,146.3c-0.1-0.1-0.1-0.3-0.2-0.5c-2,0.2-2.2,0.3-2.3,0.3c0-0.1-0.1-0.3-0.1-0.4
					c0.1,0,0.2-0.2,0.3-0.3c0.1-0.2,0.5-0.7,0.7-1.3h-1.2v-0.4h1.4v-0.9h-1.1v-0.4h1.1v-0.9h0.4v0.9h1.2v0.4h-1.2v0.9h1.4v0.4h-1.5
					c-0.3,0.6-0.6,1.1-0.9,1.6l1.7-0.2c-0.1-0.2-0.3-0.5-0.5-0.7l0.3-0.1c0.4,0.5,0.8,1.1,0.9,1.5L120.3,146.3z"/>
				<path fill="#231F20" d="M125.9,141.7v4.6h-0.4v-0.2h-3.6v0.2h-0.4v-4.6H125.9z M125.6,145.7v-3.6h-3.6v3.6H125.6z M123.8,144.9
					c-0.5,0.1-1.1,0.2-1.5,0.3l-0.1-0.3c0.4-0.1,1-0.2,1.6-0.3L123.8,144.9z M125.1,143.4c-0.1,0.5-0.3,0.9-0.6,1.3
					c0.1,0.3,0.3,0.5,0.4,0.5c0.1,0,0.1-0.2,0.2-0.5c0.1,0.1,0.2,0.1,0.3,0.2c-0.1,0.6-0.2,0.8-0.5,0.7c-0.2,0-0.4-0.2-0.6-0.5
					c-0.2,0.2-0.4,0.4-0.7,0.6c0-0.1-0.2-0.2-0.2-0.2c0.3-0.2,0.6-0.4,0.8-0.7c-0.1-0.4-0.2-1-0.3-1.6h-1.6v-0.3h1.6
					c0-0.2,0-0.4,0-0.6h0.3c0,0.2,0,0.4,0,0.6h1.2v0.3h-1.1c0,0.5,0.1,0.9,0.2,1.2c0.2-0.3,0.3-0.6,0.4-1L125.1,143.4z M123.6,143.4
					v1h-1.2v-1H123.6z M123.3,143.7h-0.6v0.5h0.6V143.7z M125,142.7c-0.1-0.1-0.4-0.3-0.6-0.4l0.2-0.2c0.2,0.1,0.5,0.2,0.6,0.4
					L125,142.7z"/>
			</g>
			<circle fill="#73B564" cx="107.7" cy="144.1" r="3.9"/>
		</g>
		<g>
			<g>
				<path fill="#231F20" d="M164.5,142.2v0.8h1.3v3.3h-0.4V146h-3.3v0.3h-0.4V143h1.3v-0.8h-1.6v-0.4h4.6v0.4H164.5z M165.5,145.6
					v-0.9h-0.1h-0.7c-0.4,0-0.5-0.1-0.5-0.5v-0.8h-0.8c0,0.6-0.2,1.2-1,1.6c0-0.1-0.2-0.2-0.2-0.3v1H165.5z M162.1,143.4v1.3
					c0.7-0.3,0.9-0.8,0.9-1.3H162.1z M164.2,142.2h-0.8v0.8h0.8V142.2z M164.5,143.4v0.8c0,0.1,0,0.2,0.2,0.2h0.6c0.1,0,0.1,0,0.1,0
					v-1H164.5z"/>
				<path fill="#231F20" d="M168.4,145.5c-0.6,0.2-1.1,0.3-1.6,0.4l-0.1-0.4c0.2,0,0.4-0.1,0.7-0.1v-1.4h-0.5v-0.4h0.5v-1.3h-0.6
					v-0.4h1.6v0.4h-0.7v1.3h0.5v0.4h-0.5v1.3l0.6-0.1L168.4,145.5z M169.5,143.7c0,1.1-0.1,2-1.1,2.6c0-0.1-0.2-0.2-0.2-0.3
					c0.9-0.5,1-1.3,1-2.2l-0.2,0.1c-0.1-0.3-0.3-0.8-0.5-1.1l0.3-0.1c0.2,0.3,0.3,0.6,0.5,0.8v-2.1h0.4V143.7z M171.6,145.8v0.4
					h-2.2v-0.4h1v-1.6h-0.6v-0.4h0.6v-1.6h-0.7v-0.4h1.8v0.4h-0.8v1.6h0.7v0.4h-0.7v1.6H171.6z"/>
				<path fill="#231F20" d="M177,144h-1.2v1.8c0,0.3-0.1,0.4-0.2,0.4c-0.2,0.1-0.4,0.1-0.9,0.1c0-0.1-0.1-0.3-0.2-0.4
					c0.3,0,0.7,0,0.8,0c0.1,0,0.1,0,0.1-0.1V144c-0.7,0.9-1.8,1.7-2.8,2.1c-0.1-0.1-0.2-0.3-0.3-0.3c0.9-0.3,2-1,2.6-1.8h-2.2
					c0.1-0.5,0.3-1.2,0.4-1.8h-0.5v-0.4h4.1v0.4h-0.9v1.4h1.2V144z M173.6,142.2c-0.1,0.5-0.2,1-0.3,1.4h2.1v-1.4H173.6z"/>
			</g>
			<circle fill="#7F58A5" cx="153.1" cy="144.1" r="3.9"/>
		</g>
		<g>
			<g>
				<path fill="#231F20" d="M216.6,145c-0.2,0.2-0.4,0.5-0.7,0.6c0.2,0.2,0.4,0.3,0.7,0.3c0.1,0,0.2-0.1,0.2-0.5
					c0.1,0.1,0.2,0.1,0.3,0.2c-0.1,0.6-0.2,0.7-0.5,0.7c-0.4,0-0.7-0.2-1-0.5c-0.4,0.2-0.8,0.4-1.2,0.5c0-0.1-0.1-0.2-0.2-0.3
					c0.4-0.1,0.8-0.3,1.2-0.5c-0.1-0.2-0.2-0.5-0.3-0.8h-1.2v0.4l0.9-0.1v0.3c-0.3,0-0.6,0.1-0.9,0.1v0.5c0,0.2-0.1,0.3-0.2,0.3
					c-0.2,0.1-0.4,0.1-0.8,0.1c0-0.1-0.1-0.2-0.1-0.3c0.3,0,0.6,0,0.6,0c0.1,0,0.1,0,0.1-0.1v-0.5l-1.1,0.1l0-0.3
					c0.3,0,0.7,0,1.1-0.1v-0.4h-1.1v-0.3h1.1v-0.4c-0.3,0-0.7,0.1-1,0.1c0-0.1-0.1-0.2-0.1-0.3c0.7,0,1.6-0.1,2.1-0.3l0.2,0.2
					c-0.2,0.1-0.5,0.1-0.9,0.1v0.4h1.2c-0.1-0.2-0.1-0.5-0.1-0.8h0.4c0,0.3,0,0.5,0.1,0.8h1.7v0.3h-1.6c0.1,0.2,0.2,0.4,0.3,0.6
					c0.2-0.1,0.4-0.3,0.6-0.5L216.6,145z M217,143.6h-4.7v-0.3h2.1V143h-1.6v-0.3h1.6v-0.3h-1.9v-0.3h1.1c-0.1-0.1-0.2-0.3-0.3-0.4
					l0.3-0.1c0.2,0.2,0.3,0.4,0.4,0.5l0,0h1.3c0.1-0.2,0.2-0.4,0.3-0.6l0.4,0.1c-0.1,0.2-0.2,0.3-0.3,0.5h1.1v0.3h-1.9v0.3h1.6v0.3
					h-1.6v0.3h2.1V143.6z M216.5,144.4c-0.2-0.2-0.5-0.4-0.8-0.5l0.2-0.2c0.3,0.1,0.7,0.3,0.9,0.5L216.5,144.4z"/>
				<path fill="#231F20" d="M220.5,143.4c0.4,1.2,1.1,2.1,2.1,2.5c-0.1,0.1-0.2,0.3-0.3,0.4c-1-0.5-1.7-1.4-2.1-2.6
					c-0.3,1-0.8,2-2.1,2.6c-0.1-0.1-0.2-0.2-0.3-0.3c1.3-0.6,1.8-1.6,2.1-2.6h-2V143h2c0.1-0.6,0.1-1.1,0.1-1.5h0.4
					c0,0.4,0,0.9-0.1,1.5h2.2v0.4H220.5z"/>
				<path fill="#231F20" d="M224.7,143.1h1.1v0.4h-1.1v0.1c0.3,0.2,0.9,0.8,1,1l-0.2,0.3c-0.2-0.2-0.5-0.6-0.8-0.9v2.3h-0.4v-2.3
					c-0.3,0.6-0.6,1.2-1,1.6c0-0.1-0.1-0.3-0.2-0.4c0.4-0.4,0.9-1.1,1.1-1.8h-1v-0.4h1.1v-0.9c-0.3,0.1-0.7,0.1-1,0.2
					c0-0.1-0.1-0.2-0.1-0.3c0.8-0.1,1.7-0.3,2.2-0.5l0.3,0.3c-0.3,0.1-0.6,0.2-0.9,0.3V143.1z M226.6,145h-0.4v-2.9h0.4V145z
					 M227.7,141.6v4.2c0,0.3-0.1,0.4-0.2,0.4c-0.2,0.1-0.5,0.1-0.9,0.1c0-0.1-0.1-0.3-0.1-0.4c0.4,0,0.7,0,0.8,0
					c0.1,0,0.1,0,0.1-0.1v-4.2H227.7z"/>
			</g>
			<circle fill="#C12B5D" cx="204.1" cy="144.1" r="3.9"/>
		</g>
		
			<polyline fill="none" stroke="#C12B5D" stroke-width="0.564" stroke-linecap="round" stroke-linejoin="round" stroke-miterlimit="10" points="
			10.8,40.6 14.3,26.2 17.7,30.8 21.2,33.8 24.8,48.6 28.3,59.6 31.7,56.7 35.2,61.4 38.7,62.6 42.1,82.1 45.7,74.9 49.2,77.5 
			52.7,71.1 56.1,75.3 59.6,71.5 63.2,83.8 66.6,80.4 70.1,81.3 73.6,81.7 77.1,80.4 80.5,74.9 84.1,71.5 87.6,76.6 91,71.1 
			94.5,72.4 98,77.5 101.5,74.5 105,67.2 108.5,67.2 112,65.6 115.4,54.1 118.9,51.6 122.4,41 126,47.3 129.4,57.9 132.9,52.9 
			136.4,47.3 139.8,38.5 143.3,48.2 146.9,41.8 150.4,41.4 153.8,35 157.3,39.7 160.8,53.3 164.3,54.9 167.8,51.1 171.3,47.8 
			174.8,55.4 178.2,47.8 181.7,48.6 185.3,42.7 188.7,36.3 192.2,37.2 195.7,35.9 199.2,38 202.6,31.7 206.2,38.5 209.7,36.3 
			213.1,34.6 216.6,27.4 220.1,36.8 223.6,37.2 227.1,42.7 230.6,39.7 234.1,49.4 237.5,41.8 241,43.5 244.6,44.8 248.1,48.2 
			251.5,48.2 255,38.5 258.5,40.6 261.9,41 265.5,32.5 269,35 272.5,24 275.9,30.8 279.4,33.8 282.9,26.5 		"/>
	</g>
	<polygon fill="#F7A823" points="152.7,85 153.2,86.6 275,55.6 274.9,57.6 280.4,53.2 273.6,52.1 274.5,53.9 	"/>
</g>
<g>
</g>
<g>
</g>
<g>
</g>
<g>
</g>
<g>
</g>
<g>
</g>
<g>
</g>
<g>
</g>
<g>
</g>
<g>
</g>
<g>
</g>
<g>
</g>
<g>
</g>
<g>
</g>
<g>
</g>
</svg>
