<?xml version="1.0" encoding="utf-8"?>
<!-- Generator: Adobe Illustrator 18.0.0, SVG Export Plug-In . SVG Version: 6.00 Build 0)  -->
<!DOCTYPE svg PUBLIC "-//W3C//DTD SVG 1.1//EN" "http://www.w3.org/Graphics/SVG/1.1/DTD/svg11.dtd">
<svg version="1.1" id="Layer_1" xmlns="http://www.w3.org/2000/svg" xmlns:xlink="http://www.w3.org/1999/xlink" x="0px" y="0px"
	 viewBox="0 0 562.9 286.2" enable-background="new 0 0 562.9 286.2" xml:space="preserve">
<g>
	<g>
		<path fill="none" stroke="#007A6D" stroke-width="0.3127" stroke-miterlimit="10" d="M562.8,210.2c-193,148-358.5-13.2-553.7,72.2
			"/>
		<path fill="none" stroke="#057D70" stroke-width="0.3081" stroke-miterlimit="10" d="M561.9,207.3
			C370.5,354.5,202.3,194.5,9,279.9"/>
		<path fill="none" stroke="#0A7F73" stroke-width="0.3035" stroke-miterlimit="10" d="M561,204.3
			C371.2,350.9,200.2,192.1,8.8,277.4"/>
		<path fill="none" stroke="#0F8276" stroke-width="0.2989" stroke-miterlimit="10" d="M560.1,201.4
			c-188.3,145.8-362-11.7-551.6,73.6"/>
		<path fill="none" stroke="#148478" stroke-width="0.2943" stroke-miterlimit="10" d="M559.3,198.5
			c-186.7,145.1-363.1-11.3-550.9,74"/>
		<path fill="none" stroke="#19877B" stroke-width="0.2897" stroke-miterlimit="10" d="M558.4,195.5
			C373.3,339.9,194.1,184.7,8.2,270"/>
		<path fill="none" stroke="#1E8A7E" stroke-width="0.2851" stroke-miterlimit="10" d="M557.5,192.6
			C374,336.2,192.1,182.3,8.1,267.5"/>
		<path fill="none" stroke="#238C81" stroke-width="0.2805" stroke-miterlimit="10" d="M556.6,189.6C374.7,332.5,190,179.8,7.9,265"
			/>
		<path fill="none" stroke="#288F84" stroke-width="0.2759" stroke-miterlimit="10" d="M555.8,186.7
			C375.4,328.9,188,177.4,7.7,262.5"/>
		<path fill="none" stroke="#2D9187" stroke-width="0.2713" stroke-miterlimit="10" d="M554.9,183.8C376.1,325.2,186,174.9,7.5,260"
			/>
		<path fill="none" stroke="#32948A" stroke-width="0.2667" stroke-miterlimit="10" d="M554,180.8
			c-177.2,140.7-370.1-8.3-546.7,76.7"/>
		<path fill="none" stroke="#37978C" stroke-width="0.2621" stroke-miterlimit="10" d="M553.1,177.9c-175.6,140-371.2-7.8-546,77.1"
			/>
		<path fill="none" stroke="#3C998F" stroke-width="0.2575" stroke-miterlimit="10" d="M552.2,175C378.2,314.2,179.9,167.6,7,252.5"
			/>
		<path fill="none" stroke="#419C92" stroke-width="0.2529" stroke-miterlimit="10" d="M551.4,172c-172.5,138.6-373.5-6.9-544.6,78"
			/>
		<path fill="none" stroke="#469F95" stroke-width="0.2483" stroke-miterlimit="10" d="M550.5,169.1
			c-170.9,137.8-374.7-6.4-543.9,78.5"/>
		<path fill="none" stroke="#4BA198" stroke-width="0.2437" stroke-miterlimit="10" d="M549.6,166.1
			c-169.3,137.1-375.9-5.9-543.2,78.9"/>
		<path fill="none" stroke="#50A49B" stroke-width="0.2391" stroke-miterlimit="10" d="M548.7,163.2
			c-167.7,136.4-377-5.4-542.5,79.4"/>
		<path fill="none" stroke="#55A69E" stroke-width="0.2345" stroke-miterlimit="10" d="M547.8,160.3
			c-166.2,135.7-378.2-4.9-541.8,79.8"/>
		<path fill="none" stroke="#5AA9A1" stroke-width="0.2299" stroke-miterlimit="10" d="M547,157.3
			c-164.6,134.9-379.3-4.4-541.1,80.3"/>
		<path fill="none" stroke="#5FACA3" stroke-width="0.2253" stroke-miterlimit="10" d="M546.1,154.4
			c-163,134.2-380.5-3.9-540.3,80.7"/>
		<path fill="none" stroke="#64AEA6" stroke-width="0.2207" stroke-miterlimit="10" d="M545.2,151.5
			C383.8,284.9,163.6,148,5.6,232.6"/>
		<path fill="none" stroke="#69B1A9" stroke-width="0.2161" stroke-miterlimit="10" d="M544.3,148.5
			c-159.9,132.8-382.8-3-538.9,81.6"/>
		<path fill="none" stroke="#6EB3AC" stroke-width="0.2115" stroke-miterlimit="10" d="M543.5,145.6c-158.3,132-384-2.5-538.2,82"/>
		<path fill="none" stroke="#73B6AF" stroke-width="0.2069" stroke-miterlimit="10" d="M542.6,142.6
			c-156.7,131.3-385.1-2-537.5,82.5"/>
		<path fill="none" stroke="#78B9B2" stroke-width="0.2023" stroke-miterlimit="10" d="M541.7,139.7
			c-155.1,130.6-386.3-1.5-536.8,82.9"/>
		<path fill="none" stroke="#7DBBB5" stroke-width="0.1977" stroke-miterlimit="10" d="M540.8,136.8
			c-153.5,129.9-387.4-1-536.1,83.4"/>
		<path fill="none" stroke="#82BEB7" stroke-width="0.1931" stroke-miterlimit="10" d="M539.9,133.8C388,263,151.3,133.3,4.5,217.7"
			/>
		<path fill="none" stroke="#87C0BA" stroke-width="0.1885" stroke-miterlimit="10" d="M539.1,130.9
			c-150.4,128.4-389.7,0-534.7,84.3"/>
		<path fill="none" stroke="#8CC3BD" stroke-width="0.1839" stroke-miterlimit="10" d="M538.2,128c-148.8,127.7-390.9,0.4-534,84.7"
			/>
		<path fill="none" stroke="#91C6C0" stroke-width="0.1793" stroke-miterlimit="10" d="M537.3,125C390.1,252,145.2,125.9,4,210.2"/>
		<path fill="none" stroke="#96C8C3" stroke-width="0.1747" stroke-miterlimit="10" d="M536.4,122.1
			c-145.7,126.2-393.2,1.4-532.6,85.6"/>
		<path fill="none" stroke="#9BCBC6" stroke-width="0.1702" stroke-miterlimit="10" d="M535.5,119.1
			C391.5,244.7,141.2,121,3.6,205.2"/>
		<path fill="none" stroke="#A0CDC9" stroke-width="0.1656" stroke-miterlimit="10" d="M534.7,116.2
			C392.2,241,139.1,118.6,3.4,202.7"/>
		<path fill="none" stroke="#A5D0CB" stroke-width="0.161" stroke-miterlimit="10" d="M533.8,113.3c-140.9,124.1-396.7,2.9-530.5,87
			"/>
		<path fill="none" stroke="#AAD3CE" stroke-width="0.1564" stroke-miterlimit="10" d="M532.9,110.3
			c-139.3,123.3-397.9,3.4-529.8,87.4"/>
		<path fill="none" stroke="#AFD5D1" stroke-width="0.1518" stroke-miterlimit="10" d="M532,107.4C394.3,230,133,111.2,2.9,195.2"/>
		<path fill="none" stroke="#B4D8D4" stroke-width="0.1472" stroke-miterlimit="10" d="M531.1,104.5C395,226.3,131,108.8,2.7,192.7"
			/>
		<path fill="none" stroke="#B9DAD7" stroke-width="0.1426" stroke-miterlimit="10" d="M530.3,101.5
			c-134.6,121.2-401.3,4.8-527.7,88.7"/>
		<path fill="none" stroke="#BEDDDA" stroke-width="0.138" stroke-miterlimit="10" d="M529.4,98.6c-133,120.4-402.5,5.3-527,89.2"/>
		<path fill="none" stroke="#C3E0DD" stroke-width="0.1334" stroke-miterlimit="10" d="M528.5,95.6
			c-131.5,119.7-403.6,5.8-526.3,89.6"/>
		<path fill="none" stroke="#C8E2E0" stroke-width="0.1288" stroke-miterlimit="10" d="M527.6,92.7C397.8,211.7,122.8,99,2,182.8"/>
		<path fill="none" stroke="#CDE5E2" stroke-width="0.1242" stroke-miterlimit="10" d="M526.8,89.8C398.5,208,120.8,96.5,1.8,180.3"
			/>
		<path fill="none" stroke="#D2E8E5" stroke-width="0.1196" stroke-miterlimit="10" d="M525.9,86.8c-126.7,117.5-407.1,7.3-524.2,91
			"/>
		<path fill="none" stroke="#D7EAE8" stroke-width="0.115" stroke-miterlimit="10" d="M525,83.9C399.9,200.7,116.7,91.6,1.5,175.3"
			/>
		<path fill="none" stroke="#DCEDEB" stroke-width="0.1104" stroke-miterlimit="10" d="M524.1,81C400.6,197,114.7,89.2,1.3,172.8"/>
		<path fill="none" stroke="#E1EFEE" stroke-width="0.1058" stroke-miterlimit="10" d="M523.2,78c-122,115.4-410.6,8.7-522.1,92.3"
			/>
		<path fill="none" stroke="#E6F2F1" stroke-width="0.1012" stroke-miterlimit="10" d="M522.4,75.1C402,189.7,110.6,84.3,0.9,167.8"
			/>
		<path fill="none" stroke="#EBF5F4" stroke-width="9.657183e-002" stroke-miterlimit="10" d="M521.5,72.1
			C402.7,186.1,108.6,81.8,0.7,165.3"/>
		<path fill="none" stroke="#F0F7F6" stroke-width="9.197317e-002" stroke-miterlimit="10" d="M520.6,69.2
			c-117.3,113.2-414.1,10.2-520,93.7"/>
		<path fill="none" stroke="#F5FAF9" stroke-width="8.737452e-002" stroke-miterlimit="10" d="M519.7,66.3
			C404.1,178.7,104.5,76.9,0.4,160.4"/>
		<path fill="none" stroke="#FAFCFC" stroke-width="8.277585e-002" stroke-miterlimit="10" d="M518.8,63.3
			C404.7,175.1,102.5,74.5,0.2,157.9"/>
		<path fill="none" stroke="#FFFFFF" stroke-width="7.817720e-002" stroke-miterlimit="10" d="M518,60.4
			C405.4,171.4,100.4,72,0,155.4"/>
	</g>
	<g>
		<path fill="#007A6D" d="M198.3,134.3c-4.8,0-8.7-3.1-8.7-7.9c0-2.6,1-4.7,2.5-6.8l5.3-8h6.3l-5.4,7.6l-0.1,0.2
			c0.4-0.2,1.1-0.3,1.6-0.3c3.9,0,7.3,2.9,7.3,7.2C207,131.3,203.1,134.3,198.3,134.3z M198.3,122.9c-2.1,0-3.5,1.4-3.5,3.5
			c0,1.9,1.4,3.5,3.5,3.5c2.1,0,3.5-1.4,3.5-3.5C201.8,124.3,200.4,122.9,198.3,122.9z"/>
		<path fill="#007A6D" d="M218.3,134.3c-4,0-7.7-1.8-8.9-5.9l4.9-1.3c0.4,1.5,1.8,2.8,3.8,2.8c1.5,0,3.2-0.8,3.2-2.8
			c0-2.3-2.3-2.9-4.5-2.9h-1.4v-3.8h1.5c2,0,3.9-0.5,3.9-2.6c0-1.6-1.3-2.4-2.8-2.4c-1.5,0-2.7,1-3,2.5l-4.9-1.1
			c1.1-3.7,4.6-5.6,8.3-5.6c3.9,0,7.8,2,7.8,6.3c0,2.4-1.6,4.3-3.7,4.8v0.1c2.5,0.6,4.3,2.7,4.3,5.1
			C226.6,132.1,222.4,134.3,218.3,134.3z"/>
		<path fill="#007A6D" d="M235.5,123c-3.3,0-5.9-2.7-5.9-5.9c0-3.3,2.7-5.9,5.9-5.9s5.9,2.6,5.9,5.9
			C241.4,120.3,238.7,123,235.5,123z M235.5,114.6c-1.3,0-2.4,1.1-2.4,2.4s1.1,2.4,2.4,2.4s2.4-1.1,2.4-2.4S236.8,114.6,235.5,114.6
			z M237.9,134.7l-2.8-1.4l12.9-22.8l2.9,1.4L237.9,134.7z M250.5,134c-3.3,0-5.9-2.6-5.9-5.9c0-3.3,2.7-5.9,5.9-5.9
			s5.9,2.6,5.9,5.9C256.4,131.4,253.7,134,250.5,134z M250.5,125.7c-1.3,0-2.4,1.1-2.4,2.4c0,1.3,1.1,2.4,2.4,2.4
			c1.3,0,2.4-1.1,2.4-2.4C252.9,126.8,251.8,125.7,250.5,125.7z"/>
	</g>
	<g>
		<path fill="#0074B7" d="M330.3,126.6c-2.8,0-5.3-1.2-6.1-4l3.3-0.9c0.3,1,1.2,1.9,2.6,1.9c1,0,2.2-0.5,2.2-1.9c0-1.5-1.6-2-3.1-2
			h-1V117h1c1.3,0,2.7-0.3,2.7-1.8c0-1.1-0.9-1.7-1.9-1.7c-1,0-1.8,0.7-2.1,1.7l-3.3-0.8c0.7-2.5,3.1-3.9,5.6-3.9
			c2.7,0,5.3,1.4,5.3,4.3c0,1.7-1.1,2.9-2.5,3.3v0.1c1.7,0.4,2.9,1.8,2.9,3.5C336,125.1,333,126.6,330.3,126.6z"/>
		<path fill="#0074B7" d="M343.9,126.2h-4.2l6.1-12.1h-7.2V111h11v2.9L343.9,126.2z"/>
		<path fill="#0074B7" d="M355.8,118.8c-2.2,0-4.1-1.8-4.1-4c0-2.3,1.8-4,4.1-4c2.2,0,4.1,1.8,4.1,4
			C359.9,117,358.1,118.8,355.8,118.8z M355.8,113.1c-0.9,0-1.7,0.7-1.7,1.7s0.7,1.6,1.7,1.6c0.9,0,1.7-0.7,1.7-1.6
			S356.7,113.1,355.8,113.1z M357.5,126.9l-1.9-0.9l8.8-15.6l2,1L357.5,126.9z M366.1,126.4c-2.2,0-4.1-1.8-4.1-4c0-2.2,1.8-4,4.1-4
			c2.2,0,4.1,1.8,4.1,4C370.1,124.6,368.3,126.4,366.1,126.4z M366.1,120.7c-0.9,0-1.7,0.7-1.7,1.7s0.7,1.6,1.7,1.6
			c0.9,0,1.7-0.7,1.7-1.6S367,120.7,366.1,120.7z"/>
	</g>
	<g>
		<path fill="#0074B7" d="M325.2,193.3v-54.1c29.7,0,54.1,24.4,54.1,54.1c0,10.7-3.2,21.2-9.2,30.1L325.2,193.3z"/>
		<g>
			<path fill="#E6E7E8" d="M372.6,219.5l-2.1,0.5l-2.9-1.9l-5,0.2l6.9,4.6h1.1C371.2,221.8,371.9,220.7,372.6,219.5z"/>
			<path fill="#E6E7E8" d="M325.2,193.3l11.2,7.5l0.6-0.8l0,1.2l9.5,6.3l2.1-8.1l-9.8-2.2l-2.3-10.3c0,0-9.2-7.4-10.4-9.1l-0.8,0.3
				V193.3z"/>
			<polygon fill="#D1D3D4" points="325.2,178.1 326,177.9 325.2,176.1 			"/>
			<polygon fill="#D1D3D4" points="360.1,216.7 348.5,199.4 346.4,207.5 			"/>
			<polygon fill="#D1D3D4" points="336.4,200.8 337,201.2 337,200 			"/>
			<path fill="#D1D3D4" d="M352.2,179.6l0.4,0.3c2.9-3.3,5.6-5.9,7.7-7.5c-1.7,0.6-5.1,3.5-8.6,7.5l0.2,0.1L352.2,179.6z"/>
			<path fill="#D1D3D4" d="M351,181l-0.8,0.9l-0.2-0.1c-3.3,4-5.5,7.6-5.8,9.4c1.2-2.2,3.3-5.2,6-8.5l-0.4-0.3L351,181z"/>
			<polygon fill="#D1D3D4" points="352.2,180.6 352.5,180.9 353,180.2 352.6,179.9 352.2,179.6 351.8,180.1 351.8,180.1 351,181 
				349.8,182.4 350.2,182.8 350.6,183.1 351.1,182.5 350.8,182.2 			"/>
			<polygon fill="#D1D3D4" points="351,181 351.8,180.1 351.8,180.1 351.6,179.9 351,179.4 349.4,181.3 350.1,181.8 350.2,182 			
				"/>
			
				<rect x="356.8" y="179.5" transform="matrix(0.6494 -0.7605 0.7605 0.6494 -16.5349 337.3535)" fill="#D1D3D4" width="1.5" height="14.3"/>
			<polygon fill="#D1D3D4" points="352.8,181.2 352.5,180.9 352.2,180.6 350.8,182.2 351.1,182.5 351.5,182.8 351.7,182.5 
				352.6,181.4 			"/>
			<polygon fill="#D1D3D4" points="368.8,197.4 369.9,196 363.6,190.6 363.5,190.7 362.5,191.8 362.4,191.9 			"/>
			<path fill="#D1D3D4" d="M362.3,181.6c0.5-0.3,1-0.3,1.5-0.2l-0.9-0.6L362.3,181.6z"/>
			<path fill="#D1D3D4" d="M364.1,181c-0.3-0.5-0.3-1-0.2-1.5l-0.6,0.9L364.1,181z"/>
			<path fill="#D1D3D4" d="M361.7,179.9c0.3,0.5,0.3,1,0.2,1.5l0.6-0.9L361.7,179.9z"/>
			<path fill="#D1D3D4" d="M363.5,179.3c-0.5,0.3-1,0.3-1.5,0.2l0.9,0.6L363.5,179.3z"/>
			<polygon fill="#D1D3D4" points="362.6,180.5 361.9,181.3 361,182.6 361.4,182.9 362.3,181.6 362.9,180.8 			"/>
			<polygon fill="#D1D3D4" points="362.9,180.1 363.2,180.4 363.9,179.5 364.8,178.3 364.4,178 363.5,179.3 			"/>
			<polygon fill="#D1D3D4" points="362.9,180.1 362,179.5 360.7,178.5 360.5,178.9 361.7,179.9 362.6,180.5 362.9,180.8 
				363.8,181.4 365.1,182.4 365.3,182 364.1,181 363.2,180.4 			"/>
			<path fill="#D1D3D4" d="M338.7,179.7c0.5,0,1,0.1,1.4,0.4l-0.5-0.9L338.7,179.7z"/>
			<path fill="#D1D3D4" d="M339,177.9c0,0.5-0.1,1-0.4,1.4l0.9-0.5L339,177.9z"/>
			<path fill="#D1D3D4" d="M340.8,178.1c-0.5,0-1-0.1-1.4-0.4l0.5,0.9L340.8,178.1z"/>
			<path fill="#D1D3D4" d="M340.1,179l0.5,0.9c0-0.5,0.1-1,0.4-1.4L340.1,179z"/>
			<polygon fill="#D1D3D4" points="339.9,178.6 339.4,177.6 338.6,176.2 338.2,176.5 339,177.9 339.5,178.8 			"/>
			<polygon fill="#D1D3D4" points="339.7,179.2 340.2,180.1 340.9,181.5 341.3,181.3 340.6,179.9 340.1,179 			"/>
			<polygon fill="#D1D3D4" points="340.1,179 341,178.5 342.4,177.7 342.2,177.3 340.8,178.1 339.9,178.6 339.5,178.8 338.5,179.3 
				337.1,180 337.3,180.4 338.7,179.7 339.7,179.2 			"/>
		</g>
	</g>
	<g>
		<path fill="#007A6D" d="M174.6,150.9l81.3,56.7C237.4,234.1,207,250,174.6,250c-54.4,0-99.1-44.7-99.1-99.1s44.7-99.1,99.1-99.1
			V150.9z"/>
		<g>
			<path fill="#E6E7E8" d="M113.1,205.8l-3.5,17.3l1.6,3.7c4.9,4.1,10.2,7.8,15.9,10.9l10.6-1.9l17.1,7.6l13.9-19.4l0.3,23.7
				l13.3,2.1c6.8-0.5,13.5-1.8,20-3.6l-4.2,0.2l-9.4,1l-0.3-6.3l-10.3,0.4l4.6-18l-11.9-2.6l-2.8-12.5c0,0-11.2-9-12.6-11l-11.8,4
				L133,224l-1.5-24.1l-9.1-7.2l5.1-9.7l-21.5-29.2l1,50.1L113.1,205.8z"/>
			<polygon fill="#D1D3D4" points="122.4,192.7 131.5,199.9 133,224 143.6,201.1 155.4,197.1 142.1,167.5 106.1,153.8 127.5,183 			
				"/>
			<polygon fill="#D1D3D4" points="188.3,240.9 188.6,247.2 198,246.2 182.6,223.3 178,241.3 			"/>
			<polygon fill="#D1D3D4" points="168.7,224 154.7,243.4 169,247.6 			"/>
			<path fill="#BCBEC0" d="M93.3,207.3l12.7-53.4l-27.4,21.7C81.7,187,86.7,197.7,93.3,207.3z"/>
			<path fill="#D1D3D4" d="M154.7,243.4l-17.1-7.6l-10.6,1.9c14.1,7.8,30.4,12.3,47.5,12.3c2.6,0,5.1-0.1,7.6-0.3l-13.3-2.1
				L154.7,243.4z"/>
			<path fill="#E6E7E8" d="M111.2,226.8l-1.6-3.7l3.5-17.3l-6.1-1.8l-1-50.1l-12.7,53.4C98.4,214.5,104.4,221.1,111.2,226.8z"/>
			<path opacity="0.38" fill="#D1D3D4" d="M111.2,226.8l-1.6-3.7l3.5-17.3l-6.1-1.8l-1-50.1l-12.7,53.4
				C98.4,214.5,104.4,221.1,111.2,226.8z"/>
			<path fill="#D1D3D4" d="M184.7,202.1l-0.2-0.2c-4,4.8-6.7,9.3-7.1,11.4c1.5-2.7,4-6.3,7.2-10.2l-0.5-0.4L184.7,202.1z"/>
			<path fill="#D1D3D4" d="M187.1,199.2l0.5,0.4c3.5-3.9,6.8-7.2,9.3-9.1c-2.1,0.7-6.2,4.3-10.5,9.1l0.2,0.2L187.1,199.2z"/>
			<polygon fill="#D1D3D4" points="187.1,200.5 187.4,200.7 188.1,200 187.6,199.6 187.1,199.2 186.6,199.8 186.6,199.8 
				184.7,202.1 184.7,202.1 184.2,202.6 184.7,203.1 185.1,203.4 185.8,202.7 185.4,202.4 			"/>
			<polygon fill="#D1D3D4" points="184.7,202.1 186.6,199.8 186.6,199.8 186.4,199.6 185.7,199 183.8,201.3 184.5,201.9 
				184.7,202.1 			"/>
			
				<rect x="192.7" y="199.1" transform="matrix(0.6493 -0.7605 0.7605 0.6493 -90.064 220.0854)" fill="#D1D3D4" width="1.8" height="17.3"/>
			<polygon fill="#D1D3D4" points="187.9,201.1 187.4,200.7 187.1,200.5 185.4,202.4 185.8,202.7 186.2,203.1 186.5,202.8 
				187.6,201.4 			"/>
			<polygon fill="#D1D3D4" points="207.2,220.7 208.6,219.1 200.9,212.5 200.8,212.6 199.6,214 199.5,214.1 			"/>
			<path fill="#D1D3D4" d="M200.8,198.8c-0.6,0.3-1.2,0.4-1.8,0.3l1,0.8L200.8,198.8z"/>
			<path fill="#D1D3D4" d="M199.4,201.7c0.6-0.3,1.2-0.4,1.8-0.3l-1-0.8L199.4,201.7z"/>
			<path fill="#D1D3D4" d="M198.7,199.5c0.3,0.6,0.4,1.2,0.3,1.8l0.8-1L198.7,199.5z"/>
			<path fill="#D1D3D4" d="M201.2,199.1l-0.8,1l1,0.8C201.2,200.4,201.1,199.8,201.2,199.1z"/>
			<polygon fill="#D1D3D4" points="199.7,200.3 198.9,201.3 197.8,202.9 198.2,203.2 199.4,201.7 200.1,200.6 			"/>
			<polygon fill="#D1D3D4" points="200.5,200.2 201.2,199.1 202.4,197.6 201.9,197.3 200.8,198.8 200,199.9 			"/>
			<polygon fill="#D1D3D4" points="200,199.9 199,199.1 197.4,197.9 197.1,198.4 198.7,199.5 199.7,200.3 200.1,200.6 201.2,201.4 
				202.7,202.5 203,202.1 201.5,201 200.5,200.2 			"/>
			<path fill="#D1D3D4" d="M173.3,197.4c-0.6,0-1.2-0.1-1.7-0.5l0.6,1.1L173.3,197.4z"/>
			<path fill="#D1D3D4" d="M171.1,197.1c0,0.6-0.1,1.2-0.5,1.7l1.1-0.6L171.1,197.1z"/>
			<path fill="#D1D3D4" d="M170.8,199.3c0.6,0,1.2,0.1,1.7,0.5l-0.6-1.1L170.8,199.3z"/>
			<path fill="#D1D3D4" d="M172.4,198.5l0.6,1.1c0-0.6,0.1-1.2,0.5-1.7L172.4,198.5z"/>
			<polygon fill="#D1D3D4" points="172.2,198 171.6,196.8 170.7,195.1 170.2,195.4 171.1,197.1 171.7,198.2 			"/>
			<polygon fill="#D1D3D4" points="171.9,198.7 172.5,199.9 173.4,201.6 173.9,201.3 173,199.6 172.4,198.5 			"/>
			<polygon fill="#D1D3D4" points="172.4,198.5 173.6,197.9 175.3,197 175,196.5 173.3,197.4 172.2,198 171.7,198.2 170.5,198.8 
				168.8,199.7 169.1,200.2 170.8,199.3 171.9,198.7 			"/>
		</g>
	</g>
	<g>
		<g>
			<path fill="#0074B7" d="M79.6,25.3c0.7,1.6,2,2.8,3.9,3.3c-0.3,0.3-0.6,0.8-0.8,1.1c-1.9-0.6-3.1-1.8-3.9-3.4
				c-0.5,1.3-1.7,2.6-3.9,3.4c-0.2-0.3-0.5-0.8-0.8-1c2.3-0.8,3.3-2.1,3.7-3.4h-3.3v-1.2h3.6c0-0.3,0-0.5,0-0.8v-1h-3.3v-1.2h7.9
				v1.2h-3.4v1c0,0.2,0,0.5,0,0.7h3.8v1.2H79.6z"/>
			<path fill="#0074B7" d="M92.4,27.1c-0.3-0.7-0.8-1.8-1.3-2.7c-0.3,1.1-1,2.1-2.3,3c-0.2-0.2-0.6-0.6-0.9-0.8
				c1.4-0.9,2-2.1,2.2-3.1h-1.1v-0.7c-0.7,2.3-2.1,3.7-3.8,4.5c-0.2-0.3-0.6-0.7-0.8-0.9c1.2-0.5,2.2-1.2,2.8-2.3
				c-0.3-0.3-0.8-0.7-1.3-1c-0.4,0.5-0.8,0.9-1.3,1.3c-0.1-0.3-0.3-0.8-0.5-1.1c0.9-0.7,1.7-1.9,2-3l1.1,0.3
				c-0.1,0.2-0.2,0.4-0.3,0.6h1.4l0.2,0l0.7,0.3c-0.1,0.3-0.1,0.6-0.2,0.9h1.2c0-0.2,0-0.3,0-0.5v-1.3h1.1v1.3c0,0.2,0,0.3,0,0.5h2
				v1.1h-1.6c0.7,1,1.4,2.3,1.7,3.1L92.4,27.1z M84.1,29.3c0.4-0.5,0.9-1.3,1.2-1.9l1.1,0.3c-0.3,0.7-0.8,1.6-1.2,2.1L84.1,29.3z
				 M86.5,24.6l-1.9,0.7l-0.2-0.9c0.5-0.1,1.2-0.3,2-0.5L86.5,24.6z M86.3,22.3c0.4,0.3,0.9,0.5,1.3,0.8c0.1-0.3,0.3-0.7,0.3-1h-1.5
				L86.3,22.3z M88.2,27.6c0.1,0.6,0.3,1.4,0.3,1.9l-1.2,0.2c0-0.5-0.1-1.3-0.2-1.9L88.2,27.6z M90.2,27.5c0.3,0.6,0.5,1.4,0.6,1.9
				l-1.2,0.2c-0.1-0.5-0.3-1.3-0.5-1.9L90.2,27.5z M92.2,27.3c0.5,0.6,1,1.4,1.3,2l-1.1,0.5c-0.2-0.5-0.7-1.4-1.2-2.1L92.2,27.3z
				 M92.3,22.3c-0.2-0.4-0.5-0.9-0.9-1.3l0.9-0.5c0.4,0.4,0.8,0.9,0.9,1.3L92.3,22.3z"/>
			<path fill="#0074B7" d="M100.5,22.2c0.5,0.5,1.6,0.8,2.9,0.8c-0.2,0.2-0.5,0.7-0.7,0.9c-1.1-0.1-2-0.5-2.6-1
				c-0.4,0.4-1.2,0.8-2.9,1c-0.1-0.2-0.2-0.4-0.4-0.7h-2.6v-0.9h3V23c1.9-0.2,2.2-0.6,2.2-1v-0.1h-0.6c-0.2,0.3-0.4,0.6-0.7,0.9
				c-0.2-0.2-0.6-0.5-0.9-0.6c0.5-0.4,0.9-1.1,1.2-1.8l1,0.2c0,0.2-0.1,0.3-0.2,0.4h2.8l0.2,0l0.8,0.2c-0.3,0.5-0.6,1.2-0.9,1.6
				l-0.9-0.3c0.1-0.2,0.2-0.4,0.4-0.6h-1.1v0.2V22.2z M100.7,28c0.9,0.3,1.9,0.7,2.5,1l-1.1,0.6c-0.6-0.3-1.6-0.8-2.6-1.2l0.6-0.5
				h-2.8l0.9,0.4c-0.8,0.5-2.1,1-3.1,1.3c-0.2-0.2-0.6-0.7-0.9-0.9c1-0.2,2-0.5,2.7-0.8h-1.4V24h6.7V28H100.7z M97,21.8h-2.6v-0.9
				H97V21.8z M96.7,25.1h4.3v-0.4h-4.3V25.1z M96.7,26.2h4.3v-0.4h-4.3V26.2z M96.7,27.3h4.3v-0.5h-4.3V27.3z"/>
			<path fill="#0074B7" d="M105.7,25c-0.3-0.3-1.1-0.7-1.6-1l0.7-0.8c0.5,0.3,1.3,0.7,1.7,0.9L105.7,25z M106.6,26.4
				c-0.4,1.1-0.8,2.2-1.3,3.2l-1.1-0.6c0.4-0.8,1-2,1.4-3.2L106.6,26.4z M106.2,22.4c-0.4-0.3-1.1-0.8-1.6-1.1l0.7-0.9
				c0.5,0.3,1.3,0.7,1.7,1L106.2,22.4z M111.3,26.4v2.2c0,0.5-0.1,0.8-0.4,0.9c-0.3,0.2-0.8,0.2-1.4,0.2c-0.1-0.3-0.2-0.7-0.3-1
				c0.4,0,0.7,0,0.9,0c0.1,0,0.1,0,0.1-0.1v-2.1h-1.6v-3.6h1.3c0.1-0.3,0.2-0.6,0.2-0.8h-1.9v1.7c0,1.8-0.2,4.4-1.4,6.1
				c-0.2-0.2-0.7-0.5-1-0.6c1.1-1.5,1.2-3.8,1.2-5.4v-2.8h6.2V22h-2.9l1.1,0.2c-0.1,0.2-0.3,0.4-0.4,0.7h1.9v3.6H111.3z M109.8,27.1
				c-0.3,0.7-0.8,1.5-1.1,2.1c-0.2-0.2-0.7-0.5-0.9-0.6c0.4-0.5,0.8-1.2,1-1.8L109.8,27.1z M109.7,24.2h2.3v-0.5h-2.3V24.2z
				 M109.7,25.6h2.3V25h-2.3V25.6z M112.6,26.7c0.3,0.6,0.8,1.4,1,1.9l-1.1,0.5c-0.2-0.5-0.6-1.4-0.9-2L112.6,26.7z"/>
			<path fill="#0074B7" d="M119.4,25v1.1h2.6v1h-2.6v1.2h3.7v1.1h-8.5v-1.1h3.6v-1.2h-2.6v-1h2.6V25H116v-0.8
				c-0.4,0.3-0.9,0.5-1.3,0.8c-0.2-0.3-0.5-0.7-0.7-1c1.1-0.5,2.4-1.3,3.3-2.2H116v-1.1h3.4c0.9,1.3,2.5,2.5,4.2,3.2
				c-0.3,0.3-0.6,0.7-0.8,1.1c-0.4-0.2-0.9-0.5-1.3-0.7V25H119.4z M121.2,24c-0.9-0.6-1.7-1.4-2.4-2.2c-0.6,0.8-1.5,1.5-2.4,2.2
				H121.2z"/>
			<path fill="#0074B7" d="M133.4,24c-0.5,0.7-1.1,1.4-1.6,1.9c0.4,0.9,1,1.5,1.9,2.1c-0.3,0.2-0.6,0.6-0.7,0.9
				c-0.8-0.6-1.4-1.3-1.9-2.2v1.6c0,0.6-0.1,0.9-0.5,1.1c-0.3,0.2-0.8,0.3-1.6,0.3c0-0.3-0.2-0.8-0.4-1.1c0.5,0,0.9,0,1.1,0
				c0.1,0,0.2,0,0.2-0.2v-1.6c-0.7,0.7-1.4,1.4-2,1.9l-0.5-0.8c-1,0.3-2.1,0.7-3,0.9l-0.3-1.1c0.4-0.1,0.7-0.2,1.2-0.3v-2.4h-1v-1.1
				h1v-1.8h-1V21h3.2v1.1h-1v1.8h0.9v1.1h-0.9V27l1-0.3l0.1,0.7c0.6-0.5,1.5-1.2,2.4-1.9v-2.4h-2.3V22h2.3v-1.6h1.1V22h1.4
				c-0.3-0.3-0.7-0.7-1-0.9l0.6-0.6c0.4,0.3,0.9,0.7,1.2,1l-0.6,0.5h0.9v1.1H131v0.4c0.1,0.5,0.2,1,0.4,1.5c0.4-0.5,0.8-1,1-1.5
				L133.4,24z M128.5,23.5c0.4,0.5,0.8,1.3,1,1.8l-1,0.5c-0.1-0.5-0.5-1.2-0.9-1.8L128.5,23.5z"/>
			<path fill="#0074B7" d="M137.5,20.8c-0.3,0.6-0.6,1.3-0.9,1.9v7h-1.1v-5.3c-0.3,0.4-0.6,0.7-0.8,1c-0.1-0.3-0.4-0.9-0.6-1.2
				c1-0.9,1.9-2.3,2.4-3.8L137.5,20.8z M140.7,23.5v1.7h2.2v4.6h-1.2v-0.6h-3v0.6h-1.2v-4.6h2v-4.7h1.2v1.9h2.6v1.1H140.7z
				 M141.7,26.2h-3V28h3V26.2z"/>
			<path fill="#0074B7" d="M148.6,27.4c0,0.3,0.1,0.8,0.1,1.1c-2.8,0.7-3.2,0.8-3.6,1c-0.1-0.3-0.4-0.8-0.5-1
				c0.2-0.1,0.5-0.4,0.5-0.9v-7.2h1.2v2.9h2.2v1.2h-2.2v3.4L148.6,27.4z M151.9,28.4c0.4,0,0.4-0.4,0.5-1.7c0.3,0.2,0.8,0.4,1.1,0.5
				c-0.1,1.7-0.4,2.3-1.5,2.3h-1.4c-1.2,0-1.5-0.4-1.5-1.8v-7.3h1.2v3h2.4v1.2h-2.4v3.2c0,0.6,0.1,0.6,0.4,0.6H151.9z"/>
		</g>
	</g>
	<g>
		<g>
			<path fill="#939598" d="M96.4,272.1h-1.7v-0.4h1.7V272.1z M96.9,275.2c-0.5,0.3-1.2,0.6-1.8,0.7c-0.1-0.1-0.2-0.3-0.3-0.3
				c0.6-0.1,1.3-0.3,1.8-0.6L96.9,275.2z M96.3,271.1h-1.4v-0.3h1.4V271.1z M95.5,272.6h3.9v2.4h-3.9V272.6z M95.9,273.3h3v-0.4h-3
				V273.3z M95.9,274h3v-0.4h-3V274z M95.9,274.7h3v-0.4h-3V274.7z M97.3,271.2c-0.1,0.2-0.3,0.4-0.4,0.6c-0.1-0.1-0.2-0.2-0.3-0.2
				c0.3-0.3,0.6-0.7,0.7-1.1l0.4,0.1c0,0.1-0.1,0.2-0.1,0.3h2l0.1,0l0.3,0.1c-0.1,0.3-0.3,0.7-0.5,0.9l-0.4-0.1
				c0.1-0.1,0.2-0.3,0.3-0.5h-1v0.1c0,0.1,0,0.1,0,0.2c0.3,0.4,1,0.6,1.8,0.7c-0.1,0.1-0.2,0.2-0.3,0.4c-0.7-0.1-1.3-0.3-1.6-0.7
				c-0.2,0.3-0.7,0.6-1.7,0.7c0-0.1-0.2-0.3-0.2-0.3c1.6-0.2,1.7-0.6,1.7-0.9v-0.1H97.3z M98.2,275c0.6,0.2,1.3,0.5,1.8,0.6
				l-0.4,0.3c-0.4-0.2-1-0.4-1.7-0.7L98.2,275z"/>
			<path fill="#939598" d="M101.7,273.3c-0.1,0.7-0.4,1.5-0.7,1.9c0-0.1-0.1-0.4-0.2-0.5c0.3-0.3,0.5-1,0.6-1.5L101.7,273.3z
				 M102.2,272.9v3.1h-0.4v-3.1h-1v-0.4h1v-2h0.4v2h1v0.4H102.2z M101.2,272.2c0-0.4-0.2-0.9-0.3-1.3l0.3-0.1c0.2,0.4,0.3,1,0.4,1.3
				L101.2,272.2z M102.5,273.2c0.1,0.2,0.5,1,0.6,1.2l-0.3,0.3c-0.1-0.3-0.4-1.1-0.6-1.3L102.5,273.2z M103.2,270.9
				c-0.1,0.5-0.3,1-0.5,1.3l-0.3-0.1c0.1-0.4,0.3-0.9,0.4-1.3L103.2,270.9z M105.5,274.2v1.7h-0.4v-1.6l-1.9,0.3l-0.1-0.4l1.9-0.3
				v-3.4h0.4v3.4l0.7-0.1l0.1,0.4L105.5,274.2z M104.3,273.4c-0.2-0.2-0.6-0.5-1-0.7l0.2-0.3c0.4,0.2,0.8,0.5,1,0.7L104.3,273.4z
				 M104.6,271.9c-0.2-0.2-0.6-0.6-0.9-0.8l0.2-0.3c0.3,0.2,0.7,0.5,0.9,0.7L104.6,271.9z"/>
			<path fill="#939598" d="M109.9,273.1c0.5,0.9,1.5,1.7,2.6,2.1c-0.1,0.1-0.3,0.3-0.3,0.4c-0.8-0.4-1.6-1-2.2-1.8v2.1h-0.5v-2.1
				c-0.6,0.8-1.4,1.4-2.2,1.8c-0.1-0.1-0.2-0.3-0.3-0.4c1-0.4,2-1.2,2.5-2.1v-1.5h-2.3v-0.4h2.3v-0.8h0.5v0.8h2.4v0.4h-2.4V273.1z
				 M108.6,271.9c-0.1,0.3-0.1,0.5-0.2,0.7c0.3,0.2,0.5,0.5,0.7,0.7l-0.3,0.3c-0.1-0.1-0.3-0.4-0.6-0.6c-0.2,0.4-0.5,0.7-0.8,0.9
				c-0.1-0.1-0.3-0.2-0.4-0.3c0.5-0.4,0.9-1,1.1-1.8L108.6,271.9z M111.4,271.9c0,0.3-0.1,0.5-0.2,0.7c0.4,0.3,0.8,0.7,1.1,0.9
				l-0.3,0.3c-0.2-0.2-0.6-0.6-0.9-0.9c-0.1,0.3-0.3,0.5-0.5,0.7c-0.1-0.1-0.3-0.2-0.4-0.2c0.4-0.4,0.7-1,0.9-1.6L111.4,271.9z"/>
			<path fill="#939598" d="M114.1,273.1c-0.2-0.2-0.7-0.5-1-0.6l0.3-0.3c0.3,0.2,0.8,0.4,1,0.6L114.1,273.1z M114.5,273.9
				c-0.2,0.6-0.6,1.4-0.9,1.9l-0.4-0.2c0.3-0.5,0.6-1.2,0.9-1.9L114.5,273.9z M114.4,271.5c-0.2-0.2-0.7-0.5-1-0.7l0.3-0.3
				c0.3,0.2,0.8,0.5,1,0.6L114.4,271.5z M115.3,272.4c0,1-0.1,2.5-0.8,3.5c-0.1-0.1-0.3-0.2-0.4-0.2c0.7-1,0.7-2.3,0.7-3.3v-1.6h3.6
				v0.4h-3.2V272.4z M116.3,274.3c-0.2,0.4-0.5,0.9-0.8,1.2c-0.1-0.1-0.3-0.2-0.4-0.2c0.3-0.3,0.5-0.7,0.7-1.1L116.3,274.3z
				 M117.1,273.9v1.6c0,0.2,0,0.3-0.2,0.4c-0.2,0.1-0.4,0.1-0.8,0.1c0-0.1-0.1-0.3-0.1-0.4c0.3,0,0.6,0,0.6,0c0.1,0,0.1,0,0.1-0.1
				v-1.6h-1.1v-2.1h0.9c0.1-0.2,0.1-0.4,0.2-0.6l0.5,0.1c-0.1,0.2-0.2,0.3-0.2,0.5h1.3v2.1H117.1z M116,272.7h1.8v-0.5H116V272.7z
				 M116,273.5h1.8V273H116V273.5z M117.9,274.2c0.2,0.4,0.5,0.9,0.7,1.1l-0.4,0.2c-0.1-0.3-0.4-0.8-0.7-1.2L117.9,274.2z"/>
			<path fill="#939598" d="M120.9,272.7c0-0.3,0.2-0.4,0.4-0.4s0.4,0.2,0.4,0.4c0,0.2-0.2,0.4-0.4,0.4S120.9,272.9,120.9,272.7z
				 M120.9,275.1c0-0.2,0.2-0.4,0.4-0.4s0.4,0.2,0.4,0.4s-0.2,0.4-0.4,0.4S120.9,275.4,120.9,275.1z"/>
			<path fill="#939598" d="M124.4,271.1h0.6v1.8h2.1v-1.8h0.6v4.4H127v-2.1h-2.1v2.1h-0.6V271.1z"/>
			<path fill="#939598" d="M128.7,274.6c0-0.7,0.6-1.1,2-1.2c0-0.4-0.1-0.8-0.7-0.8c-0.4,0-0.7,0.2-1,0.3l-0.2-0.4
				c0.3-0.2,0.8-0.4,1.3-0.4c0.8,0,1.1,0.5,1.1,1.3v2h-0.4l0-0.4h0c-0.3,0.3-0.7,0.5-1.1,0.5C129.1,275.5,128.7,275.2,128.7,274.6z
				 M130.7,274.7v-0.9c-1.1,0.1-1.5,0.4-1.5,0.8c0,0.4,0.3,0.5,0.6,0.5C130.1,275.1,130.3,274.9,130.7,274.7z"/>
			<path fill="#939598" d="M131.9,272.2h0.6l0.6,1.9c0.1,0.3,0.2,0.7,0.3,1h0c0.1-0.3,0.2-0.6,0.3-1l0.6-1.9h0.5l-1.2,3.3h-0.6
				L131.9,272.2z"/>
			<path fill="#939598" d="M135.4,273.8c0-1.1,0.7-1.7,1.5-1.7c0.8,0,1.3,0.6,1.3,1.5c0,0.1,0,0.2,0,0.3h-2.2c0,0.7,0.5,1.1,1.1,1.1
				c0.3,0,0.6-0.1,0.8-0.3l0.2,0.4c-0.3,0.2-0.6,0.3-1.1,0.3C136.1,275.5,135.4,274.9,135.4,273.8z M137.7,273.6c0-0.7-0.3-1-0.8-1
				c-0.5,0-0.9,0.4-0.9,1H137.7z"/>
			<path fill="#939598" d="M139.1,272.2h0.4l0,0.6h0c0.2-0.4,0.6-0.7,0.9-0.7c0.1,0,0.2,0,0.3,0.1l-0.1,0.5c-0.1,0-0.2-0.1-0.3-0.1
				c-0.3,0-0.6,0.2-0.8,0.8v2.1h-0.5V272.2z"/>
			<path fill="#939598" d="M141,276.3c0.4-0.2,0.6-0.4,0.6-0.8c0,0,0,0-0.1,0c-0.2,0-0.4-0.1-0.4-0.4c0-0.2,0.2-0.4,0.4-0.4
				c0.3,0,0.5,0.2,0.5,0.6c0,0.6-0.3,1-0.9,1.3L141,276.3z"/>
			<path fill="#939598" d="M146.4,272.7c0,0,0,0.1,0,0.2c0,2-0.1,2.7-0.2,2.9c-0.1,0.1-0.2,0.2-0.3,0.2c-0.1,0-0.4,0-0.6,0
				c0-0.1,0-0.3-0.1-0.4c0.2,0,0.5,0,0.6,0c0.1,0,0.1,0,0.2-0.1c0.1-0.1,0.1-0.7,0.2-2.4h-0.7c-0.1,1.1-0.3,2.2-0.8,2.9
				c-0.1-0.1-0.2-0.2-0.3-0.3c0.6-0.8,0.7-2.3,0.7-3.8h-0.7v-0.4h2.4v0.4h-1.3c0,0.3,0,0.6,0,0.8H146.4z M145.4,271.4
				c-0.1-0.2-0.2-0.6-0.3-0.8l0.4-0.1c0.1,0.2,0.3,0.6,0.3,0.8L145.4,271.4z M147.4,271.7c-0.2,0.4-0.4,0.7-0.6,1
				c-0.1-0.1-0.2-0.2-0.3-0.3c0.4-0.5,0.7-1.2,0.9-1.9l0.4,0.1c-0.1,0.3-0.1,0.5-0.2,0.8h2.1v0.4H147.4z M149,275.5
				c0.3,0,0.3-0.1,0.3-0.7c0.1,0.1,0.3,0.1,0.4,0.2c-0.1,0.7-0.2,0.9-0.7,0.9h-1.2c-0.6,0-0.8-0.1-0.8-0.7v-1.5l-0.4,0.2l-0.2-0.4
				l0.5-0.2v-0.9h0.4v0.7l0.6-0.3v-0.9h0.4v0.8l0.7-0.3l0.1-0.1l0.3,0.1l0,0.1c0,0.7,0,1.5-0.1,2.1l-0.3-0.1c0-0.4,0.1-1,0.1-1.6
				l-0.6,0.3v1.8H148v-1.6l-0.6,0.3v1.7c0,0.2,0.1,0.3,0.4,0.3H149z"/>
			<path fill="#939598" d="M151.2,274.7c-0.1,0.4-0.2,0.9-0.3,1.1c-0.1,0-0.3-0.1-0.4-0.1c0.2-0.3,0.3-0.7,0.3-1.1L151.2,274.7z
				 M152.5,273.4c0.2,0.3,0.4,0.8,0.4,1l-0.3,0.1c0-0.1-0.1-0.2-0.1-0.3c-1.5,0.1-1.7,0.2-1.8,0.2c0-0.1-0.1-0.2-0.1-0.3
				c0.1,0,0.3-0.1,0.5-0.3c0.1-0.1,0.3-0.3,0.6-0.6c-0.7,0.1-0.8,0.1-0.9,0.1c0-0.1-0.1-0.2-0.1-0.3c0.1,0,0.2-0.1,0.3-0.2
				c0.1-0.1,0.5-0.5,0.7-0.9h-0.8v-1.3h4.7v1.3h-3.8l0.3,0.1c-0.2,0.3-0.5,0.6-0.7,0.9l0.7,0c0.1-0.2,0.3-0.3,0.4-0.5l0.4,0.2
				c-0.4,0.5-0.9,1-1.4,1.4l1.1-0.1c-0.1-0.2-0.1-0.3-0.2-0.4L152.5,273.4z M151.2,271.6h1V271h-1V271.6z M151.8,274.6
				c0.1,0.3,0.2,0.8,0.2,1l-0.4,0.1c0-0.3-0.1-0.7-0.2-1L151.8,274.6z M152.5,274.5c0.2,0.3,0.3,0.7,0.4,0.9l-0.3,0.1
				c-0.1-0.3-0.2-0.7-0.4-0.9L152.5,274.5z M155.8,275.7h-2.3v0.2h-0.4v-2.5c-0.1,0.1-0.2,0.2-0.3,0.3c-0.1-0.1-0.2-0.2-0.3-0.3
				c0.4-0.4,0.7-0.9,1-1.5l0.4,0.1c-0.1,0.2-0.2,0.5-0.3,0.7h0.9c-0.1-0.2-0.2-0.4-0.3-0.6l0.4-0.1c0.1,0.2,0.3,0.5,0.3,0.7h0.8v0.4
				h-0.9v0.5h0.8v0.3h-0.8v0.5h0.8v0.3h-0.8v0.5h1V275.7z M152.6,271.6h1V271h-1V271.6z M154.4,273.1h-0.9v0.5h0.9V273.1z
				 M154.4,274h-0.9v0.5h0.9V274z M153.6,275.3h0.9v-0.5h-0.9V275.3z M154,271.6h1V271h-1V271.6z"/>
			<path fill="#939598" d="M158.3,271.9c-0.1,0.3-0.3,0.6-0.5,0.8v3.2h-0.4v-2.6c-0.2,0.3-0.4,0.5-0.6,0.7c0-0.1-0.2-0.3-0.3-0.4
				c0.5-0.5,1-1.2,1.4-1.8L158.3,271.9z M158.2,270.6c-0.4,0.5-0.9,1.1-1.4,1.5c0-0.1-0.1-0.3-0.2-0.4c0.4-0.3,1-0.9,1.2-1.3
				L158.2,270.6z M158,275.5c0.2-0.3,0.4-0.7,0.5-1.1l0.3,0.1c-0.1,0.4-0.3,0.9-0.5,1.2L158,275.5z M162,274h-3.8v-0.4h3.8V274z
				 M159.7,271.7c0-0.1,0-0.3,0.1-0.4h-1.6v-0.4h1.6c0-0.2,0-0.4,0.1-0.5l0.5,0c0,0.2,0,0.3-0.1,0.5h1.7v0.4h-1.8
				c0,0.2-0.1,0.3-0.1,0.4h1.6v1.5h-3.3v-1.5H159.7z M159.5,272.1h-0.6v0.8h0.6V272.1z M160.5,275.5c0.2,0,0.2-0.1,0.2-0.6
				c0.1,0.1,0.2,0.1,0.4,0.1c0,0.6-0.2,0.8-0.6,0.8h-0.9c-0.5,0-0.6-0.1-0.6-0.5v-0.9h0.4v0.9c0,0.1,0,0.2,0.3,0.2H160.5z
				 M160.1,274.9c-0.1-0.2-0.3-0.5-0.4-0.8l0.3-0.1c0.2,0.2,0.3,0.6,0.4,0.7L160.1,274.9z M160.4,272.1h-0.6v0.8h0.6V272.1z
				 M160.8,272.9h0.6v-0.8h-0.6V272.9z M161.4,274.3c0.2,0.4,0.5,0.8,0.6,1.1l-0.4,0.2c-0.1-0.3-0.4-0.8-0.6-1.2L161.4,274.3z"/>
			<path fill="#939598" d="M164,273.7v1.7c0,0.3-0.1,0.4-0.2,0.4c-0.1,0.1-0.4,0.1-0.8,0.1c0-0.1-0.1-0.3-0.1-0.4c0.3,0,0.5,0,0.6,0
				c0.1,0,0.1,0,0.1-0.1v-1.5l-0.8,0.2l-0.1-0.4c0.2-0.1,0.6-0.1,0.9-0.2v-1.3h-0.8v-0.4h0.8v-1.2h0.4v1.2h0.7v0.4H164v1.2l0.6-0.2
				l0.1,0.4L164,273.7z M167.7,273.2c-0.2,0.7-0.7,1.3-1.2,1.7c0.4,0.3,1,0.5,1.6,0.6c-0.1,0.1-0.2,0.3-0.3,0.4
				c-0.6-0.2-1.2-0.4-1.7-0.8c-0.5,0.4-1.1,0.6-1.8,0.8c0-0.1-0.1-0.3-0.2-0.4c0.6-0.1,1.1-0.3,1.6-0.6c-0.4-0.4-0.7-0.8-1-1.4
				l0.1,0h-0.2v-0.4h2.7l0.1,0L167.7,273.2z M165.7,271.3c0,0.5-0.2,1.2-0.9,1.6c-0.1-0.1-0.2-0.3-0.3-0.3c0.7-0.4,0.8-0.9,0.8-1.3
				v-0.7h1.9v1.4c0,0.2,0,0.2,0.1,0.2h0.5c0.1,0,0.2,0,0.3,0c0,0.1,0,0.3,0,0.4c-0.1,0-0.2,0-0.3,0h-0.5c-0.4,0-0.5-0.2-0.5-0.6v-1
				h-1V271.3z M165.3,273.5c0.2,0.4,0.5,0.8,0.9,1.1c0.4-0.3,0.7-0.7,0.9-1.1H165.3z"/>
			<path fill="#939598" d="M170.6,272.1h-1.7v-0.4h1.7V272.1z M171.1,275.2c-0.5,0.3-1.2,0.6-1.8,0.7c-0.1-0.1-0.2-0.3-0.3-0.3
				c0.6-0.1,1.3-0.3,1.8-0.6L171.1,275.2z M170.5,271.1H169v-0.3h1.4V271.1z M169.7,272.6h3.9v2.4h-3.9V272.6z M170.1,273.3h3v-0.4
				h-3V273.3z M170.1,274h3v-0.4h-3V274z M170.1,274.7h3v-0.4h-3V274.7z M171.5,271.2c-0.1,0.2-0.3,0.4-0.4,0.6
				c-0.1-0.1-0.2-0.2-0.3-0.2c0.3-0.3,0.6-0.7,0.7-1.1l0.4,0.1c0,0.1-0.1,0.2-0.1,0.3h2l0.1,0l0.3,0.1c-0.1,0.3-0.3,0.7-0.5,0.9
				l-0.4-0.1c0.1-0.1,0.2-0.3,0.3-0.5h-1v0.1c0,0.1,0,0.1,0,0.2c0.3,0.4,1,0.6,1.8,0.7c-0.1,0.1-0.2,0.2-0.3,0.4
				c-0.7-0.1-1.3-0.3-1.6-0.7c-0.2,0.3-0.7,0.6-1.7,0.7c0-0.1-0.2-0.3-0.2-0.3c1.6-0.2,1.7-0.6,1.7-0.9v-0.1H171.5z M172.4,275
				c0.6,0.2,1.3,0.5,1.8,0.6l-0.4,0.3c-0.4-0.2-1-0.4-1.7-0.7L172.4,275z"/>
			<path fill="#939598" d="M176.2,272.3c0.5,0,0.9,0.4,0.9,0.9s-0.4,0.9-0.9,0.9c-0.5,0-0.9-0.4-0.9-0.9S175.7,272.3,176.2,272.3z
				 M176.2,273.8c0.3,0,0.6-0.3,0.6-0.6s-0.3-0.6-0.6-0.6c-0.3,0-0.6,0.3-0.6,0.6S175.9,273.8,176.2,273.8z"/>
			<path fill="#939598" d="M179.9,272.1h-1.7v-0.4h1.7V272.1z M180.4,275.2c-0.5,0.3-1.2,0.6-1.8,0.7c-0.1-0.1-0.2-0.3-0.3-0.3
				c0.6-0.1,1.3-0.3,1.8-0.6L180.4,275.2z M179.8,271.1h-1.4v-0.3h1.4V271.1z M179,272.6h3.9v2.4H179V272.6z M179.4,273.3h3v-0.4h-3
				V273.3z M179.4,274h3v-0.4h-3V274z M179.4,274.7h3v-0.4h-3V274.7z M180.8,271.2c-0.1,0.2-0.3,0.4-0.4,0.6
				c-0.1-0.1-0.2-0.2-0.3-0.2c0.3-0.3,0.6-0.7,0.7-1.1l0.4,0.1c0,0.1-0.1,0.2-0.1,0.3h2l0.1,0l0.3,0.1c-0.1,0.3-0.3,0.7-0.5,0.9
				l-0.4-0.1c0.1-0.1,0.2-0.3,0.3-0.5h-1v0.1c0,0.1,0,0.1,0,0.2c0.3,0.4,1,0.6,1.8,0.7c-0.1,0.1-0.2,0.2-0.3,0.4
				c-0.7-0.1-1.3-0.3-1.6-0.7c-0.2,0.3-0.7,0.6-1.7,0.7c0-0.1-0.2-0.3-0.2-0.3c1.6-0.2,1.7-0.6,1.7-0.9v-0.1H180.8z M181.7,275
				c0.6,0.2,1.3,0.5,1.8,0.6l-0.4,0.3c-0.4-0.2-1-0.4-1.7-0.7L181.7,275z"/>
			<path fill="#939598" d="M185.2,273.3c-0.1,0.7-0.4,1.5-0.7,1.9c0-0.1-0.1-0.4-0.2-0.5c0.3-0.3,0.5-1,0.6-1.5L185.2,273.3z
				 M185.7,272.9v3.1h-0.4v-3.1h-1v-0.4h1v-2h0.4v2h1v0.4H185.7z M184.7,272.2c0-0.4-0.2-0.9-0.3-1.3l0.3-0.1c0.2,0.4,0.3,1,0.4,1.3
				L184.7,272.2z M186,273.2c0.1,0.2,0.5,1,0.6,1.2l-0.3,0.3c-0.1-0.3-0.4-1.1-0.6-1.3L186,273.2z M186.7,270.9
				c-0.1,0.5-0.3,1-0.5,1.3l-0.3-0.1c0.1-0.4,0.3-0.9,0.4-1.3L186.7,270.9z M189,274.2v1.7h-0.4v-1.6l-1.9,0.3l-0.1-0.4l1.9-0.3
				v-3.4h0.4v3.4l0.7-0.1l0.1,0.4L189,274.2z M187.8,273.4c-0.2-0.2-0.6-0.5-1-0.7l0.2-0.3c0.4,0.2,0.8,0.5,1,0.7L187.8,273.4z
				 M188.1,271.9c-0.2-0.2-0.6-0.6-0.9-0.8l0.2-0.3c0.3,0.2,0.7,0.5,0.9,0.7L188.1,271.9z"/>
			<path fill="#939598" d="M192.4,274.7h-1.3v0.5h-0.4v-4.4h1.7V274.7z M191.1,271.2v1.3h0.9v-1.3H191.1z M191.9,274.3V273h-0.9v1.4
				H191.9z M194.4,271.6v0.8h1.3v0.4h-0.5v0.7h0.7v0.4h-0.7v1.6c0,0.3-0.1,0.4-0.2,0.5c-0.2,0.1-0.5,0.1-1,0.1
				c0-0.1-0.1-0.3-0.1-0.4c0.4,0,0.7,0,0.8,0c0.1,0,0.1,0,0.1-0.1v-1.6h-2.3v-0.4h2.3v-0.7h-2v-0.4h1.2v-0.8h-1.5v-0.4h1.5v-0.7h0.4
				v0.7h1.5v0.4H194.4z M193.2,274c0.3,0.3,0.6,0.7,0.8,1l-0.4,0.2c-0.1-0.3-0.5-0.7-0.8-1L193.2,274z"/>
			<path fill="#939598" d="M197.3,272.7v3.2h-0.4v-5.2h2.2v2H197.3z M197.3,271v0.5h1.3V271H197.3z M198.6,272.4v-0.5h-1.3v0.5
				H198.6z M198.6,275.4v0.3h-0.4v-2.5h2.2v2.2H198.6z M198.6,273.5v0.6h1.4v-0.6H198.6z M200,275v-0.6h-1.4v0.6H200z M201.8,275.3
				c0,0.3-0.1,0.4-0.3,0.5c-0.2,0.1-0.5,0.1-1,0.1c0-0.1-0.1-0.3-0.2-0.5c0.4,0,0.7,0,0.8,0c0.1,0,0.1,0,0.1-0.1v-2.6h-1.8v-2.1h2.2
				V275.3z M200,271v0.5h1.3V271H200z M201.4,272.4v-0.5H200v0.5H201.4z"/>
			<path fill="#939598" d="M208,273.8c-0.1,1.2-0.2,1.7-0.4,1.9c-0.1,0.1-0.2,0.1-0.4,0.2c-0.1,0-0.4,0-0.7,0c0-0.1,0-0.3-0.1-0.4
				c0.3,0,0.6,0,0.7,0c0.1,0,0.2,0,0.2-0.1c0.1-0.1,0.2-0.5,0.3-1.4H204c-0.3,0.3-0.7,0.5-1,0.7c-0.1-0.1-0.2-0.3-0.2-0.4
				c1.1-0.6,1.9-1.5,2.5-2.5h-2.1v-0.4h1.2c-0.1-0.2-0.3-0.6-0.5-0.9l0.4-0.2c0.2,0.3,0.4,0.6,0.5,0.9l-0.3,0.1h1.1
				c0.2-0.3,0.3-0.7,0.4-1l0.4,0.1c-0.1,0.3-0.2,0.6-0.4,0.9h1.2c-0.1,0.4-0.1,0.8-0.2,1.1h0.7c-0.1,0.3-0.1,0.8-0.2,1.1h0.6
				L208,273.8z M203,275.6c0.4-0.3,0.6-0.8,0.7-1.2l0.4,0.1c-0.1,0.5-0.3,1-0.7,1.3L203,275.6z M205,272.9c-0.2,0.2-0.4,0.5-0.6,0.7
				h2.6c0-0.2,0.1-0.5,0.1-0.7H205z M204.8,274.5c0.1,0.3,0.2,0.8,0.2,1.1l-0.4,0.1c0-0.3,0-0.7-0.1-1.1L204.8,274.5z M205.7,271.9
				c-0.1,0.2-0.3,0.5-0.4,0.7h1.2c0.1-0.2,0.1-0.4,0.1-0.7H205.7z M205.7,274.4c0.2,0.3,0.3,0.7,0.3,1l-0.4,0.1c0-0.3-0.2-0.7-0.3-1
				L205.7,274.4z M206.7,275.2c-0.1-0.2-0.3-0.6-0.4-0.8l0.3-0.1c0.2,0.2,0.4,0.6,0.5,0.8L206.7,275.2z"/>
			<path fill="#939598" d="M208.9,275.1c1.4-1.2,2-2.1,2-2.8c0-0.5-0.3-0.9-0.8-0.9c-0.4,0-0.7,0.2-0.9,0.5l-0.3-0.3
				c0.4-0.4,0.7-0.6,1.3-0.6c0.8,0,1.3,0.5,1.3,1.3c0,0.9-0.7,1.8-1.7,2.7c0.2,0,0.5,0,0.7,0h1.2v0.5h-2.8V275.1z"/>
			<path fill="#939598" d="M212.4,273.2c0-1.5,0.5-2.3,1.4-2.3c0.8,0,1.4,0.7,1.4,2.3c0,1.5-0.5,2.3-1.4,2.3
				C212.9,275.5,212.4,274.8,212.4,273.2z M214.6,273.2c0-1.3-0.3-1.8-0.8-1.8c-0.5,0-0.8,0.5-0.8,1.8c0,1.3,0.3,1.9,0.8,1.9
				C214.3,275.1,214.6,274.5,214.6,273.2z"/>
			<path fill="#939598" d="M216.1,275h1v-3.3h-0.8v-0.3c0.4-0.1,0.7-0.2,0.9-0.3h0.4v3.9h0.9v0.5h-2.4V275z"/>
			<path fill="#939598" d="M219.2,275l0.3-0.4c0.3,0.3,0.6,0.5,1.1,0.5c0.5,0,0.9-0.4,0.9-1c0-0.6-0.4-1-0.9-1
				c-0.3,0-0.5,0.1-0.7,0.3l-0.3-0.2l0.1-2.1h2.1v0.5h-1.7l-0.1,1.3c0.2-0.1,0.4-0.2,0.7-0.2c0.7,0,1.3,0.4,1.3,1.4
				c0,1-0.7,1.5-1.4,1.5C219.9,275.5,219.5,275.2,219.2,275z"/>
			<path fill="#939598" d="M228.2,274.5h-2.2v1.4h-0.4v-1.4h-2.8v-0.4h1v-1.6h1.8v-0.9h-1.5c-0.3,0.5-0.6,0.9-0.9,1.2
				c-0.1-0.1-0.3-0.2-0.4-0.3c0.6-0.5,1.1-1.3,1.3-2.1l0.5,0.1c-0.1,0.2-0.2,0.4-0.3,0.6h3.6v0.4h-1.9v0.9h1.8v0.4h-1.8v1.2h2.2
				V274.5z M225.6,274.1v-1.2h-1.3v1.2H225.6z"/>
			<path fill="#939598" d="M229.2,275h1v-3.3h-0.8v-0.3c0.4-0.1,0.7-0.2,0.9-0.3h0.4v3.9h0.9v0.5h-2.4V275z"/>
			<path fill="#939598" d="M237.1,275.3c0,0.3-0.1,0.5-0.3,0.5c-0.2,0.1-0.6,0.1-1.3,0.1c0-0.1-0.1-0.3-0.2-0.5c0.5,0,1,0,1.1,0
				c0.1,0,0.2,0,0.2-0.2v-1.2h-2.9c-0.1,0.7-0.4,1.4-1,1.9c-0.1-0.1-0.2-0.3-0.3-0.3c1-0.8,1-2.1,1-3v-1.8h3.7V275.3z M236.6,273.6
				v-1h-2.7c0,0.3,0,0.7-0.1,1H236.6z M233.9,271.2v1h2.7v-1H233.9z"/>
			<path fill="#939598" d="M239.8,272.3c0.5,0,0.9,0.4,0.9,0.9s-0.4,0.9-0.9,0.9c-0.5,0-0.9-0.4-0.9-0.9S239.3,272.3,239.8,272.3z
				 M239.8,273.8c0.3,0,0.6-0.3,0.6-0.6s-0.3-0.6-0.6-0.6c-0.3,0-0.6,0.3-0.6,0.6S239.5,273.8,239.8,273.8z"/>
		</g>
	</g>
	<g>
		<polygon fill="#58595B" points="323.3,29.2 283.3,29.2 283.3,15.6 323.3,15.6 329.1,22.7 		"/>
		<g>
			<path fill="#FFFFFF" d="M296.9,22.1c-0.3,0.9-0.7,1.7-1.2,2.4c0.3,0.7,0.6,1.1,0.9,1.1c0.2,0,0.3-0.4,0.3-1.3
				c0.1,0.1,0.3,0.2,0.4,0.3c-0.1,1.2-0.3,1.5-0.8,1.5c-0.5,0-1-0.4-1.3-1.1c-0.4,0.5-0.9,0.8-1.4,1.2c-0.1-0.1-0.3-0.3-0.4-0.4
				c0.6-0.3,1.2-0.8,1.6-1.3c-0.3-0.8-0.4-1.8-0.5-2.9h-2.4v0.9h1.8v0.2c0,1.6-0.1,2.2-0.2,2.3c-0.1,0.1-0.2,0.2-0.4,0.2
				c-0.2,0-0.5,0-0.8,0c0-0.2-0.1-0.4-0.1-0.5c0.3,0,0.6,0,0.7,0c0.1,0,0.2,0,0.2-0.1c0.1-0.1,0.1-0.5,0.2-1.8h-1.3v0.1
				c0,1-0.1,2.4-0.7,3.3c-0.1-0.1-0.3-0.3-0.4-0.3c0.6-0.9,0.6-2.1,0.6-3v-2h2.9c0-0.4,0-0.8,0-1.2h0.5c0,0.4,0,0.8,0,1.2h2.3v0.5
				h-2.2c0.1,0.9,0.2,1.8,0.4,2.4c0.4-0.6,0.7-1.2,0.9-1.9L296.9,22.1z M295.7,19.8c0.4,0.2,1,0.6,1.3,0.8l-0.3,0.4
				c-0.3-0.2-0.8-0.6-1.2-0.8L295.7,19.8z"/>
			<path fill="#FFFFFF" d="M301.4,23.6c-0.4,0-0.8,0.1-1.2,0.1v0.5c0,0.2,0,0.3-0.2,0.4c-0.2,0.1-0.5,0.1-0.9,0.1
				c0-0.1-0.1-0.3-0.1-0.4c0.3,0,0.6,0,0.7,0c0.1,0,0.1,0,0.1-0.1v-0.4c-0.5,0-1,0.1-1.4,0.1l0-0.4c0.4,0,0.9,0,1.4-0.1v-0.4
				c0.2-0.1,0.4-0.1,0.6-0.2h-1.8v-0.4h2.4l0.1,0l0.3,0.2c-0.3,0.2-0.7,0.4-1.1,0.5v0.2c0.4,0,0.8,0,1.2-0.1L301.4,23.6z
				 M301.5,20.7h-3.2v-0.4h1.5c-0.1-0.1-0.1-0.3-0.2-0.4l0.4-0.1c0.1,0.2,0.2,0.4,0.3,0.6h1.2V20.7z M298.3,25.9
				c0.3-0.3,0.6-0.7,0.8-1.2l0.5,0.1c-0.2,0.4-0.5,1-0.8,1.3L298.3,25.9z M298.7,22.1V21h2.5v1.1H298.7z M299.1,21.8h1.6v-0.5h-1.6
				V21.8z M300.8,24.9c0.1,0.4,0.2,0.9,0.2,1.2l-0.5,0.1c0-0.3-0.1-0.8-0.1-1.2L300.8,24.9z M303.9,20.8c0,2.1,0,3.3,0.3,3.3
				c0.1,0,0.1-0.4,0.1-0.9c0.1,0.1,0.2,0.2,0.3,0.3c0,0.8-0.1,1.1-0.5,1.1c-0.7,0-0.7-1.1-0.7-3.3h-0.7v0c0,0.4,0,0.8-0.1,1.3
				c0.3,0.2,0.5,0.5,0.7,0.7l-0.3,0.4c-0.1-0.2-0.3-0.4-0.6-0.6c-0.2,0.6-0.6,1.1-1.2,1.6c-0.1-0.1-0.2-0.2-0.3-0.3
				c0.7-0.5,1-1,1.2-1.6c-0.2-0.2-0.5-0.4-0.7-0.5l0.3-0.3c0.2,0.1,0.4,0.2,0.6,0.4c0.1-0.3,0.1-0.6,0.1-0.9v0h-0.7v-0.4h0.7v-1.1
				h0.5v1.1H303.9z M302.2,24.8c0.2,0.4,0.4,0.9,0.4,1.2l-0.5,0.1c-0.1-0.3-0.2-0.8-0.4-1.2L302.2,24.8z M303.6,24.7
				c0.3,0.4,0.6,0.9,0.8,1.2l-0.5,0.2c-0.1-0.3-0.5-0.9-0.7-1.3L303.6,24.7z"/>
			<path fill="#FFFFFF" d="M311.4,20.1v6.1h-0.5v-0.3h-4.8v0.3h-0.5v-6.1H311.4z M310.9,25.4v-4.8h-4.8v4.8H310.9z M308.6,24.3
				c-0.7,0.1-1.5,0.3-2,0.4l-0.1-0.4c0.5-0.1,1.3-0.2,2.1-0.4L308.6,24.3z M310.3,22.3c-0.2,0.7-0.4,1.2-0.8,1.7
				c0.1,0.4,0.3,0.6,0.6,0.6c0.1,0,0.2-0.3,0.2-0.7c0.1,0.1,0.2,0.2,0.3,0.2c-0.1,0.8-0.3,1-0.7,0.9c-0.3-0.1-0.5-0.3-0.7-0.7
				c-0.3,0.3-0.6,0.6-0.9,0.8c-0.1-0.1-0.2-0.3-0.3-0.3c0.4-0.2,0.8-0.5,1.1-0.9c-0.2-0.6-0.3-1.3-0.4-2.1h-2.1v-0.4h2.1
				c0-0.2,0-0.5-0.1-0.7h0.4c0,0.3,0,0.5,0,0.7h1.5v0.4h-1.5c0.1,0.6,0.1,1.2,0.3,1.6c0.2-0.4,0.4-0.8,0.5-1.3L310.3,22.3z
				 M308.3,22.3v1.4h-1.5v-1.4H308.3z M307.9,22.6h-0.8v0.7h0.8V22.6z M310.2,21.4c-0.2-0.2-0.5-0.4-0.8-0.5l0.2-0.3
				c0.3,0.1,0.6,0.3,0.8,0.5L310.2,21.4z"/>
			<path fill="#FFFFFF" d="M318.2,22.6c-0.3,0.3-0.7,0.5-1.1,0.8c0.3,0.9,1,1.7,1.9,2.1c-0.1,0.1-0.3,0.3-0.3,0.4
				c-0.9-0.4-1.6-1.2-1.9-2.2c-0.1,0.1-0.2,0.1-0.3,0.2c0.2,0.9,0.1,1.8-0.3,2.1c-0.2,0.2-0.4,0.2-0.7,0.2c-0.2,0-0.4,0-0.6,0
				c0-0.1-0.1-0.3-0.1-0.5c0.3,0,0.5,0,0.6,0c0.2,0,0.3,0,0.4-0.1c0.2-0.2,0.3-0.6,0.3-1.2c-0.8,0.6-2,1.2-3,1.5
				c-0.1-0.1-0.2-0.3-0.3-0.4c1.1-0.3,2.5-0.9,3.2-1.5c0-0.2-0.1-0.3-0.2-0.5c-0.7,0.5-1.8,1-2.6,1.2c-0.1-0.1-0.2-0.3-0.3-0.4
				c0.9-0.2,2-0.7,2.7-1.2c-0.1-0.1-0.2-0.3-0.3-0.4c-0.6,0.4-1.3,0.6-2,0.8c0-0.1-0.2-0.3-0.3-0.4c0.9-0.2,1.8-0.6,2.5-1h-1.6v-0.5
				h4V22H316c-0.2,0.1-0.3,0.3-0.5,0.4c0.3,0.3,0.6,0.7,0.7,1.1c0.5-0.3,1.1-0.8,1.5-1.2L318.2,22.6z M313.3,21.8h-0.5v-1.4h2.6
				c-0.1-0.2-0.2-0.4-0.3-0.5l0.5-0.2c0.1,0.2,0.3,0.5,0.3,0.7h2.6v1.4h-0.5v-1h-4.8V21.8z"/>
		</g>
	</g>
	<g>
		<polygon fill="#007A6D" points="282.9,49.2 245.4,49.2 238.1,43.2 245.4,35.6 282.9,35.6 		"/>
		<g>
			<path fill="#FFFFFF" d="M250.3,43.8c-0.2,0.5-0.5,1-0.7,1.4c-0.1-0.1-0.3-0.2-0.4-0.3c0.3-0.3,0.5-0.8,0.7-1.3L250.3,43.8z
				 M251.1,43.3v2.4h-0.5v-2.4h-1.4v-0.4h1.4v-0.7h-1.4v-0.4h1.9c0.1-0.3,0.3-0.8,0.4-1.1l0.5,0.1c-0.1,0.3-0.3,0.7-0.4,1h0.9v0.4
				h-1.3v0.7h1.3v0.4H251.1z M252.4,40.5h-3.1v-0.4h1.4c-0.1-0.2-0.2-0.4-0.3-0.6l0.5-0.1c0.1,0.2,0.3,0.5,0.4,0.8h1.1V40.5z
				 M250,41.6c0-0.3-0.1-0.7-0.3-1l0.4-0.1c0.1,0.3,0.3,0.7,0.3,1L250,41.6z M251.8,43.6c0.2,0.3,0.5,0.8,0.6,1.1l-0.4,0.2
				c-0.1-0.3-0.4-0.8-0.6-1.1L251.8,43.6z M255.5,42.2h-0.8v3.5h-0.5v-3.5h-1v0.2c0,1-0.1,2.4-0.7,3.3c-0.1-0.1-0.3-0.3-0.4-0.3
				c0.6-0.8,0.6-2,0.6-3V40c0.8-0.1,1.7-0.3,2.2-0.5l0.4,0.4c-0.6,0.2-1.4,0.4-2.1,0.5v1.3h2.2V42.2z"/>
			<path fill="#FFFFFF" d="M262.7,43.6v0.5h-6.3v-0.5h0.6l-0.1-3.7c0.4-0.1,0.9-0.3,1.2-0.4l0.2,0.4c-0.3,0.1-0.7,0.2-1,0.3l0,0.8
				h0.8v0.4h-0.8l0,0.9h0.8v0.4h-0.8l0,0.9h0.9v-3.9h2.4v3.9h0.9c0-0.3,0-0.5,0-0.8h-0.8v-0.4h0.8c0-0.3,0-0.6,0-0.9h-0.8V41h0.8
				c0-0.3,0-0.6,0-0.9h-0.8v-0.4h1.3c0,1.2-0.1,2.9-0.1,3.9H262.7z M258.8,44.5c-0.6,0.4-1.4,0.9-2.1,1.2c-0.1-0.1-0.2-0.3-0.3-0.4
				c0.7-0.3,1.5-0.7,1.9-1.1L258.8,44.5z M258.7,43.6h1.6v-3.5h-1.6V43.6z M260.1,40.6v0.4h-1.2v-0.4H260.1z M259,41.4h1.1V43H259
				V41.4z M259.3,42.7h0.5v-0.9h-0.5V42.7z M260.5,44.1c0.7,0.4,1.5,0.8,2,1.1l-0.3,0.4c-0.5-0.3-1.2-0.8-2-1.2L260.5,44.1z"/>
			<path fill="#FFFFFF" d="M266.9,40.9v0.9h2.3v2.5c0,0.3-0.1,0.5-0.3,0.5c-0.2,0.1-0.6,0.1-1.2,0.1c0-0.2-0.1-0.4-0.2-0.5
				c0.5,0,0.9,0,1,0c0.1,0,0.2,0,0.2-0.1v-1.9h-1.7v3.4h-0.5v-3.4h-1.6v2.6h-0.5v-3.1h2.2v-0.9h-2.8v-0.5h3
				c-0.1-0.3-0.3-0.6-0.5-0.9l0.5-0.2c0.2,0.3,0.4,0.8,0.5,1l-0.1,0h2.8v0.5H266.9z"/>
			<path fill="#FFFFFF" d="M272.9,43.4c-0.7,0.4-1.5,0.7-2.1,1l-0.2-0.5c0.3-0.1,0.6-0.3,1-0.4v-2.2h-0.8v-0.5h0.8v-1.5h0.5v1.5h0.8
				v0.5h-0.8v2l0.7-0.3L272.9,43.4z M274.2,42.6c-0.1,0.2-0.2,0.3-0.3,0.5h3c0,0,0,0.1,0,0.2c-0.1,1.4-0.2,2-0.4,2.2
				c-0.1,0.1-0.2,0.2-0.4,0.2c-0.2,0-0.4,0-0.7,0c0-0.1,0-0.3-0.1-0.4c0.3,0,0.5,0,0.6,0c0.1,0,0.2,0,0.2-0.1
				c0.1-0.1,0.2-0.6,0.3-1.7h-0.5c-0.3,0.8-0.8,1.7-1.4,2.2c-0.1-0.1-0.2-0.2-0.4-0.3c0.6-0.4,1.1-1.1,1.4-1.9h-0.7
				c-0.4,0.7-1.1,1.5-1.7,1.9c-0.1-0.1-0.2-0.2-0.3-0.3c0.6-0.3,1.2-0.9,1.6-1.6h-0.7c-0.3,0.3-0.6,0.6-0.9,0.8
				c-0.1-0.1-0.3-0.3-0.4-0.3c0.6-0.3,1.1-0.8,1.4-1.4h-1v-0.4h4.4v0.4H274.2z M276.6,41.8h-3.2v-2.3h3.2V41.8z M276.1,39.9h-2.2
				v0.6h2.2V39.9z M276.1,40.8h-2.2v0.6h2.2V40.8z"/>
		</g>
	</g>
	
		<line fill="none" stroke="#007A6D" stroke-width="1.8763" stroke-linecap="round" stroke-linejoin="round" stroke-miterlimit="10" x1="283.4" y1="0.9" x2="283.4" y2="285.2"/>
	<g>
		<g>
			<path fill="#007A6D" d="M309.5,236.5c-0.5-14.5-12.6-25.8-27-25.3c-14.5,0.5-25.8,12.6-25.3,27c0.5,14.5,12.6,25.8,27,25.3
				C298.7,263.1,310,251,309.5,236.5z M284.1,260.1c-12.5,0.4-23-9.4-23.4-22s9.4-23,22-23.4c12.5-0.4,23,9.4,23.4,22
				C306.5,249.2,296.6,259.7,284.1,260.1z"/>
			<circle fill="#FFFFFF" cx="283.4" cy="237.4" r="22.7"/>
			<polygon fill="#FFFFFF" points="285.6,260 283.4,262.9 281,260 283.1,258 			"/>
		</g>
		<g>
			<path fill="#73B564" d="M267.6,227.4l-0.3-0.1l0.3-0.1c0.4-0.2,0.6-0.4,0.8-0.8l0.1-0.3l0.1,0.3c0.2,0.4,0.4,0.6,0.8,0.8l0.3,0.1
				l-0.3,0.1c-0.4,0.2-0.6,0.4-0.8,0.8l-0.1,0.3l-0.1-0.3C268.3,227.8,268,227.5,267.6,227.4z"/>
			<line fill="none" stroke="#73B564" stroke-width="0.3127" stroke-miterlimit="10" x1="268.6" y1="229.2" x2="268.5" y2="225.2"/>
			<line fill="none" stroke="#73B564" stroke-width="0.3127" stroke-miterlimit="10" x1="266.6" y1="227.3" x2="270.5" y2="227.2"/>
		</g>
		<g>
			<path fill="#73B564" d="M299.3,237.8L299,238l0.1-0.3c0.1-0.3,0.1-0.7,0-1l-0.1-0.3l0.3,0.1c0.3,0.1,0.7,0.1,1,0l0.3-0.1
				l-0.1,0.3c-0.1,0.3-0.1,0.7,0,1l0.1,0.3l-0.3-0.1C299.9,237.7,299.6,237.7,299.3,237.8z"/>
			<line fill="none" stroke="#73B564" stroke-width="0.3127" stroke-miterlimit="10" x1="301" y1="238.3" x2="298.4" y2="236"/>
			<line fill="none" stroke="#73B564" stroke-width="0.3127" stroke-miterlimit="10" x1="298.5" y1="238.4" x2="300.9" y2="235.9"/>
		</g>
		<g>
			<g>
				
					<polygon fill="none" stroke="#007A6D" stroke-width="0.9381" stroke-linecap="round" stroke-linejoin="round" stroke-miterlimit="10" points="
					284.4,230.6 270,234.1 269.8,247.1 276.7,253.6 286.3,254.5 295.2,248.5 296,240.9 291.6,233 				"/>
				
					<polyline fill="none" stroke="#007A6D" stroke-width="0.9381" stroke-linecap="round" stroke-linejoin="round" stroke-miterlimit="10" points="
					270,234.1 280.1,240.1 281.8,248 290.2,246.4 295.2,248.5 				"/>
				
					<line fill="none" stroke="#007A6D" stroke-width="0.9381" stroke-linecap="round" stroke-linejoin="round" stroke-miterlimit="10" x1="280.1" y1="240.1" x2="269.8" y2="247.1"/>
				
					<line fill="none" stroke="#007A6D" stroke-width="0.9381" stroke-linecap="round" stroke-linejoin="round" stroke-miterlimit="10" x1="281.8" y1="248" x2="286.3" y2="254.5"/>
				
					<line fill="none" stroke="#007A6D" stroke-width="0.9381" stroke-linecap="round" stroke-linejoin="round" stroke-miterlimit="10" x1="276.7" y1="253.6" x2="281.1" y2="244.2"/>
			</g>
			
				<line fill="none" stroke="#007A6D" stroke-width="0.9381" stroke-linecap="round" stroke-linejoin="round" stroke-miterlimit="10" x1="283.7" y1="222" x2="283.7" y2="226.5"/>
			
				<line fill="none" stroke="#007A6D" stroke-width="0.9381" stroke-linecap="round" stroke-linejoin="round" stroke-miterlimit="10" x1="289.3" y1="223.1" x2="287.5" y2="227.2"/>
			
				<line fill="none" stroke="#007A6D" stroke-width="0.9381" stroke-linecap="round" stroke-linejoin="round" stroke-miterlimit="10" x1="277.2" y1="223.7" x2="279.3" y2="227.6"/>
		</g>
	</g>
</g>
<g>
</g>
<g>
</g>
<g>
</g>
<g>
</g>
<g>
</g>
<g>
</g>
<g>
</g>
<g>
</g>
<g>
</g>
<g>
</g>
<g>
</g>
<g>
</g>
<g>
</g>
<g>
</g>
<g>
</g>
</svg>
