<?xml version="1.0" encoding="utf-8"?>
<!-- Generator: Adobe Illustrator 18.0.0, SVG Export Plug-In . SVG Version: 6.00 Build 0)  -->
<!DOCTYPE svg PUBLIC "-//W3C//DTD SVG 1.1//EN" "http://www.w3.org/Graphics/SVG/1.1/DTD/svg11.dtd">
<svg version="1.1" id="Layer_1" xmlns="http://www.w3.org/2000/svg" xmlns:xlink="http://www.w3.org/1999/xlink" x="0px" y="0px"
	 viewBox="0 0 760.5 650.4" enable-background="new 0 0 760.5 650.4" xml:space="preserve">
<g>
	<g>
		<path fill="#0074B7" d="M342.2,62.7h-50.6c-5.5,0-10-4.5-10-10V29.3c0-5.5,4.5-10,10-10h50.6c5.5,0,10,4.5,10,10v23.4
			C352.3,58.2,347.8,62.7,342.2,62.7z"/>
		<path fill="#0074B7" d="M155.3,221.4h-50.6c-5.5,0-10-4.5-10-10V188c0-5.5,4.5-10,10-10h50.6c5.5,0,10,4.5,10,10v23.4
			C165.3,216.9,160.8,221.4,155.3,221.4z"/>
		<path fill="#0074B7" d="M200,372.5h-62.8c-6,0-11-4.9-11-11V340c0-6,4.9-11,11-11H200c6,0,11,4.9,11,11v21.5
			C211,367.5,206,372.5,200,372.5z"/>
		<path fill="#0074B7" d="M177.5,294.2H92.3c-6.9,0-12.5-5.6-12.5-12.5v-18.4c0-6.9,5.6-12.5,12.5-12.5h85.1
			c6.9,0,12.5,5.6,12.5,12.5v18.4C190,288.6,184.3,294.2,177.5,294.2z"/>
		<path fill="#0074B7" d="M244.4,94.2h-50.6c-5.5,0-10-4.5-10-10V60.8c0-5.5,4.5-10,10-10h50.6c5.5,0,10,4.5,10,10v23.4
			C254.4,89.7,249.9,94.2,244.4,94.2z"/>
		<path fill="#0074B7" d="M216.4,158.4h-78.2c-6.6,0-12.1-5.4-12.1-12.1V127c0-6.6,5.4-12.1,12.1-12.1h78.2
			c6.6,0,12.1,5.4,12.1,12.1v19.4C228.4,152.9,223,158.4,216.4,158.4z"/>
		<g>
			<path fill="#FFFFFF" d="M303.3,36.3h4.3v1.4h-4.3v0.6c1,0.9,3.4,3.3,4,4l-0.9,1.3c-0.6-0.8-2-2.3-3.1-3.5v9h-1.5v-9
				c-1.1,2.4-2.5,4.7-3.9,6.1c-0.2-0.4-0.6-1.1-0.9-1.5c1.7-1.6,3.5-4.4,4.5-7h-4.1v-1.4h4.4v-3.6c-1.4,0.3-2.7,0.5-4,0.7
				c-0.1-0.4-0.3-0.9-0.5-1.2c3.1-0.5,6.7-1.2,8.6-2l1.1,1.2c-1,0.4-2.3,0.8-3.7,1.1V36.3z M310.8,44h-1.5V32.5h1.5V44z M315.2,30.3
				v16.7c0,1.1-0.3,1.5-0.9,1.8c-0.7,0.3-1.8,0.3-3.7,0.3c-0.1-0.4-0.3-1.2-0.6-1.6c1.4,0,2.8,0,3.2,0c0.4,0,0.5-0.1,0.5-0.5V30.3
				H315.2z"/>
			<path fill="#FFFFFF" d="M336.9,44.7h-8.5v4.4h-1.6v-4.4h-8.5v-1.4h8.5v-1.7h1.6v1.7h8.5V44.7z M323.8,39.3
				c-1.6,0.9-3.3,1.8-4.7,2.4l-0.8-1.3c1.3-0.5,3.2-1.4,5.1-2.3L323.8,39.3z M330.9,41.8c-0.1-0.3-0.3-0.7-0.6-1.1
				c-5.4,0.5-6.2,0.6-6.6,0.8c-0.1-0.3-0.3-1-0.5-1.4c0.5-0.1,1-0.5,1.7-1c0.4-0.3,1.3-1.1,2.3-2.2c-2.4,0.2-2.9,0.3-3.2,0.4
				c-0.1-0.3-0.3-1-0.4-1.3c0.3,0,0.6-0.3,0.9-0.7c0.3-0.3,1-1.1,1.6-2.1h-7.6v-1.4h8.5c-0.3-0.5-0.6-1.1-1-1.6l1.5-0.4
				c0.5,0.6,1,1.4,1.2,2h7.8v1.4h-8.8c-0.6,0.9-1.3,1.8-2,2.5l2.7-0.2c0.5-0.5,1-1.1,1.4-1.7l1.3,0.7c-1.6,1.9-3.5,3.8-5.3,5.2
				l3.7-0.3c-0.3-0.5-0.7-0.9-1-1.3l1.1-0.5c0.9,1.1,2,2.5,2.4,3.5L330.9,41.8z M320,34.2c1.1,0.7,2.5,1.7,3.2,2.4l-1.1,0.9
				c-0.6-0.7-2-1.8-3.1-2.4L320,34.2z M335.3,41.9c-0.9-0.8-2.6-2.1-4.1-2.9l1.1-0.8c1.4,0.8,3.2,2,4.1,2.8L335.3,41.9z M335.7,34.9
				c-0.9,1-2.2,2-3.1,2.6l-1.1-0.7c0.9-0.7,2.2-1.8,2.9-2.7L335.7,34.9z"/>
		</g>
		<g>
			<path fill="#FFFFFF" d="M218.4,75.5h-2.2v3.7h-1.5v-0.9h-5v1.4c0,1-0.3,1.3-0.9,1.5c-0.6,0.2-1.7,0.3-3.5,0.3
				c-0.1-0.4-0.3-1-0.5-1.3c1.3,0,2.5,0,2.9,0c0.4,0,0.5-0.1,0.5-0.5v-1.4h-6.7v-1.2h6.7v-1.6h-8.5v-1.2h8.5v-1.5h-6.6v-1.1h6.6
				v-1.5h-6v-3.7h6v-1.2H200V64h8.1v-1.7h1.5V64h8.3v1.3h-8.3v1.2h6.2v3.7h-6.2v1.5h6.6v2.6h2.2V75.5z M208.1,69.1v-1.5h-4.5v1.5
				H208.1z M209.7,67.6v1.5h4.7v-1.5H209.7z M209.7,74.3h5v-1.5h-5V74.3z M214.7,75.5h-5v1.6h5V75.5z"/>
			<path fill="#FFFFFF" d="M226.5,62.9c-0.6,1.5-1.3,3.1-2.1,4.5v14H223V69.8c-0.6,0.9-1.3,1.7-1.9,2.4c-0.1-0.4-0.6-1.2-0.9-1.5
				c1.9-2,3.8-5.1,4.9-8.3L226.5,62.9z M239.2,74.2h-5.7v7.2H232v-7.2h-6v-1.5h6v-4.6h-3.3c-0.4,1.2-0.9,2.3-1.5,3.2
				c-0.3-0.2-0.9-0.6-1.3-0.8c1.2-1.7,2.1-4.4,2.6-7.1l1.5,0.3c-0.2,1-0.4,2-0.7,2.9h2.8v-4h1.5v4h4.8v1.5h-4.8v4.6h5.7V74.2z"/>
		</g>
		<g>
			<path fill="#FFFFFF" d="M139.8,128.1c-0.5,1.4-1.1,2.8-1.8,4.1v14.5h-1.4v-12c-0.6,1-1.3,1.9-2,2.7c-0.1-0.3-0.6-1.1-0.9-1.4
				c1.9-2,3.6-5.1,4.7-8.3L139.8,128.1z M152.7,131v1.3h-13.2V131H152.7z M140.7,139.9h10.6v6.6h-1.4v-0.8h-7.8v0.8h-1.4V139.9z
				 M151.1,135.3H141V134h10.1V135.3z M141,136.9h10.1v1.3H141V136.9z M142.1,141.2v3.3h7.8v-3.3H142.1z M145.8,130.9
				c-0.3-0.7-0.9-1.9-1.4-2.8l1.3-0.5c0.6,0.9,1.2,2,1.5,2.7L145.8,130.9z"/>
			<path fill="#FFFFFF" d="M172.3,144.5c0,1-0.3,1.5-0.9,1.7c-0.7,0.3-1.9,0.3-3.9,0.3c-0.1-0.4-0.3-1.1-0.5-1.5
				c1.5,0.1,2.9,0,3.3,0c0.4,0,0.6-0.1,0.6-0.5v-4.2h-5.6v6.2h-1.5v-6.2h-5.2c-0.3,2.3-1,4.7-2.6,6.5c-0.2-0.3-0.9-0.8-1.2-1
				c2.3-2.6,2.5-6.3,2.5-9.2V129h15.2V144.5z M163.7,138.8v-3.5h-5v1.2c0,0.7,0,1.5-0.1,2.2H163.7z M158.7,130.5v3.3h5v-3.3H158.7z
				 M170.8,130.5h-5.6v3.3h5.6V130.5z M170.8,138.8v-3.5h-5.6v3.5H170.8z"/>
			<path fill="#FFFFFF" d="M183.3,132.4h-7.5v-1.3h7.5V132.4z M176.6,133.8h5.9v1.2h-5.9V133.8z M176.6,136.6h5.9v1.2h-5.9V136.6z
				 M182.5,145.4h-4.6v1h-1.3v-7h5.8V145.4z M177.9,140.6v3.4h3.3v-3.4H177.9z M179.5,130.9c-0.3-0.8-0.9-1.9-1.4-2.8l1.1-0.6
				c0.6,0.9,1.2,2,1.5,2.7L179.5,130.9z M194.8,139.1h-4.9v7.5h-1.5v-7.5h-5.1v-1.5h5.1v-7.5h-4.3v-1.5h10.3v1.5h-4.5v7.5h4.9V139.1
				z M185.8,131.3c0.5,1.6,1,3.7,1.1,5.1l-1.3,0.3c-0.1-1.4-0.5-3.5-1.1-5.1L185.8,131.3z M191.2,136.4c0.5-1.4,1.1-3.7,1.4-5.2
				l1.5,0.4c-0.5,1.8-1.1,3.9-1.7,5.2L191.2,136.4z"/>
			<path fill="#FFFFFF" d="M199.8,130.4c-0.6,1-1.3,1.8-2.1,2.5c-0.2-0.3-0.8-0.8-1.1-1c1.3-1.1,2.5-2.8,3.2-4.4l1.4,0.4
				c-0.2,0.4-0.4,0.8-0.6,1.3h5.4v1.4h-3.9c0.7,0.6,1.6,1.4,2,1.9l-1,0.9c-0.5-0.6-1.4-1.5-2.2-2.2l0.8-0.6H199.8z M211.1,140.2h4.2
				v1.3h-4.2v3.5c0,0.9-0.2,1.3-0.9,1.4c-0.7,0.2-1.9,0.2-3.7,0.2c0-0.4-0.2-0.9-0.4-1.3c1.4,0.1,2.7,0.1,3,0c0.4,0,0.5-0.1,0.5-0.4
				v-3.5h-12.6v-1.3h12.6v-1.5h1.6V140.2z M215.6,129.1v1.4H211c0.7,0.6,1.5,1.5,1.9,2l-1.1,0.9c-0.4-0.6-1.3-1.6-2-2.2l0.9-0.7h-2
				c-0.5,1-1.1,1.8-1.8,2.5l-0.2-0.2v1h7.6v1.4h-7.6v1.9h6.5v1.3h-14.6V137h6.5v-1.9h-7.6v-1.4h7.6v-1.3h1.2
				c-0.2-0.2-0.4-0.3-0.6-0.4c1.1-1.1,2.1-2.8,2.6-4.6l1.4,0.3c-0.1,0.5-0.3,0.9-0.5,1.3H215.6z M201.5,141.7
				c1.2,0.9,2.8,2.2,3.6,3.1l-1.1,0.9c-0.8-0.8-2.3-2.2-3.5-3.2L201.5,141.7z"/>
		</g>
		<g>
			<path fill="#FFFFFF" d="M115.4,201.7c-0.4,1.8-1,3.9-1.7,5.4c0.4,0.2,0.9,0.6,1.7,1.1c1.5,0.9,3.4,1,5.8,1c2.7,0,6.1-0.2,8.4-0.4
				c-0.2,0.4-0.4,1.2-0.5,1.6c-1.6,0.1-5.5,0.2-8,0.2c-2.7,0-4.6-0.2-6.1-1.2c-0.8-0.5-1.6-1.2-2.1-1.2c-0.5,0-1.2,1.3-1.8,2.6
				l-1.1-1.4c0.7-1,1.4-1.9,2.1-2.3c0.6-1.2,1.2-2.8,1.5-4.3h-2.7c0.6-1.2,1.3-3,1.8-4.7h-2.3v-1.4h4.3c-0.5,1.5-1.2,3.3-1.8,4.7
				h1.4l0.3-0.1L115.4,201.7z M112.6,195.6c-0.3-0.9-0.8-2.3-1.1-3.4l1.4-0.4c0.4,1.1,0.9,2.5,1.2,3.4L112.6,195.6z M129.1,196.7
				h-13.6v-1.1h3.9c0.2-0.5,0.4-1,0.5-1.5h-3.1V193h3.5c0.1-0.5,0.3-0.9,0.4-1.3l1.5,0.2l-0.3,1.1h5.1v2.7h2.2V196.7z M122.2,208.5
				v-2h-6c0.3-0.8,0.7-1.8,1-2.8h-1.3v-1.1h6.3v-1.2h-5.1v-3.7h10.3v3.7h-3.7v1.2h5.1v1.1h-5.1v1.7h5.6v1.1h-5.6v2H122.2z
				 M122.2,205.4v-1.7h-3.6c-0.2,0.6-0.4,1.1-0.6,1.7H122.2z M118.5,200.5h7.3v-1.7h-7.3V200.5z M121.4,194.1
				c-0.2,0.5-0.4,1.1-0.5,1.5h4.6v-1.5H121.4z"/>
			<path fill="#FFFFFF" d="M134,205.3c-0.4,1.8-0.9,3.7-1.4,5c-0.3-0.2-1-0.4-1.3-0.5c0.6-1.3,1-3.2,1.4-4.8L134,205.3z M138.6,204
				c-0.1-0.3-0.1-0.7-0.3-1.1c-5.4,0.8-6.1,1-6.5,1.2c-0.1-0.3-0.3-1.1-0.5-1.5c0.5-0.1,1-0.6,1.7-1.3c0.4-0.4,1.2-1.3,2.1-2.5
				c-2.6,0.3-3.1,0.4-3.4,0.6c-0.1-0.3-0.3-1-0.5-1.4c0.4-0.1,0.8-0.5,1.3-1.1c0.5-0.6,2.2-3,3.3-5.3l1.4,0.6
				c-1.1,2-2.4,3.9-3.7,5.5l2.7-0.3c0.6-0.8,1.2-1.7,1.7-2.5l1.3,0.8c-1.5,2.3-3.4,4.6-5.2,6.4l3.9-0.6c-0.2-0.6-0.5-1.3-0.7-1.9
				l1.2-0.3c0.6,1.4,1.2,3.2,1.4,4.2L138.6,204z M136.3,204.9c0.3,1.5,0.6,3.3,0.7,4.6l-1.3,0.3c-0.1-1.2-0.4-3.2-0.6-4.6
				L136.3,204.9z M138.8,204.4c0.5,1.3,1.1,2.9,1.4,4l-1.2,0.4c-0.2-1.1-0.8-2.8-1.3-4L138.8,204.4z M149.6,196.4
				c-0.3,9.3-0.5,12.4-1.3,13.4c-0.5,0.6-0.9,0.8-1.7,0.9c-0.7,0.1-1.9,0-3.1,0c0-0.5-0.2-1.1-0.5-1.5c1.3,0.1,2.5,0.1,3,0.1
				c0.4,0,0.6,0,0.8-0.3c0.6-0.7,0.9-3.8,1.1-11.8h-6c-0.5,1.1-1.1,2.2-1.7,3c-0.3-0.3-0.9-0.7-1.3-0.9c1.5-1.8,2.6-4.6,3.3-7.5
				l1.5,0.3c-0.3,1.2-0.7,2.4-1.1,3.6h7V196.4z M144.9,205.2c-0.6-1.3-2.2-3.2-3.6-4.6l1.1-0.8c1.4,1.3,3,3.2,3.7,4.5L144.9,205.2z"
				/>
		</g>
		<g>
			<path fill="#FFFFFF" d="M112.7,265.2c0,7.8,0,16.3,1.2,16.3c0.3,0,0.4-1.4,0.4-3.2c0.3,0.4,0.6,0.9,0.9,1.1
				c-0.1,2.7-0.5,3.7-1.5,3.7c-2.5,0-2.5-7.4-2.6-16.5H100v5.3c0,3.4-0.4,8.1-2.7,11.3c-0.3-0.3-0.9-0.7-1.2-0.9
				c2.2-3,2.5-7.2,2.5-10.4v-6.7H112.7z M108.9,277.5c1.1,1.4,2.1,3.3,2.5,4.6l-1.3,0.5c-0.1-0.5-0.4-1-0.6-1.6
				c-3.5,0.3-7,0.5-9.5,0.7l-0.1-1.4c1.3-0.1,3-0.2,4.9-0.3V277h-3.6v-5.7h3.6v-2h-3.9v-1.3h9.3v1.3h-4.1v2h3.7v5.7h-3.7v2.8
				l2.7-0.2c-0.4-0.6-0.7-1.2-1.1-1.8L108.9,277.5z M104.8,275.8v-3.2h-2.4v3.2H104.8z M106.1,272.6v3.2h2.4v-3.2H106.1z"/>
			<path fill="#FFFFFF" d="M123.4,265.5c-0.6,1.7-1.3,3.8-2,5.4c1.4,1.7,1.8,3.2,1.8,4.5c0,1.1-0.2,2-0.8,2.4
				c-0.3,0.2-0.6,0.3-1,0.4c-0.4,0-0.9,0-1.3,0c0-0.4-0.1-1-0.4-1.4c0.5,0,0.8,0,1.2,0c0.2,0,0.5-0.1,0.6-0.2
				c0.3-0.2,0.4-0.8,0.4-1.4c0-1.1-0.4-2.6-1.7-4.2c0.6-1.5,1.1-3.3,1.5-4.7h-2.5v16.8h-1.3v-18.2h4.4l0.2-0.1L123.4,265.5z
				 M127.1,277.3c-0.2,0.5-0.4,1.1-0.6,1.5c0.9,0.5,1.9,1.3,2.3,1.8l-0.8,1c-0.4-0.5-1.3-1.2-2.1-1.8c-0.8,1.4-1.9,2.5-3.1,3.3
				c-0.2-0.3-0.7-0.8-1.1-1c1.9-1.1,3.3-2.9,4-5.2L127.1,277.3z M126.1,268.8c-0.7,0.5-1.5,1-2.2,1.5c-0.2-0.3-0.7-0.8-1-1
				c2.5-1.3,4.8-3.4,5.9-5.3l1.5,0.5c-0.1,0.2-0.3,0.5-0.5,0.7c1.6,1.5,4.2,2.9,6.3,3.6c-0.3,0.4-0.6,1-0.7,1.4
				c-2.1-0.9-4.7-2.5-6.4-4C128.2,267.1,127.2,268,126.1,268.8l6.2,0v1.3h-6.2V268.8z M123.9,271.5h4.7v5h-4.7V271.5z M125.1,275.4
				h2.2v-2.7h-2.2V275.4z M132.9,277.2c-0.1,0.6-0.3,1.3-0.5,1.8c1.3,0.8,2.8,2,3.6,2.8l-0.9,1c-0.7-0.7-2-1.8-3.2-2.7
				c-0.6,1.2-1.5,2.2-2.5,3c-0.2-0.3-0.7-0.8-1-1c1.7-1.1,2.8-2.9,3.3-5.1L132.9,277.2z M129.9,271.5h4.8v5h-4.8V271.5z
				 M131.1,275.4h2.3v-2.7h-2.3V275.4z"/>
			<path fill="#FFFFFF" d="M141.2,273.7c-0.7-0.8-2.1-2-3.3-2.7l1-1c1.2,0.8,2.7,1.8,3.4,2.6L141.2,273.7z M138.4,281.8
				c0.7-1.6,1.7-4.3,2.4-6.7l1.1,0.7c-0.6,2.2-1.5,4.8-2.3,6.7L138.4,281.8z M141.8,268.3c-0.7-0.8-2.1-2-3.3-2.9l1-0.9
				c1.1,0.8,2.6,2,3.3,2.8L141.8,268.3z M157,281v1.4h-14.8V281h2v-6.1h11.1v6.1H157z M148.4,271.4c-1.1,1.3-3.2,2.8-4.8,3.7
				c-0.2-0.4-0.6-0.9-1-1.2c1.6-0.6,3.7-2,4.7-3.2L148.4,271.4z M142.8,268.6h13.7v1.4h-13.7V268.6z M146.7,268.2
				c-0.4-0.9-1.3-2.4-2-3.5l1.3-0.6c0.8,1.1,1.6,2.5,2.1,3.4L146.7,268.2z M145.4,281h2v-4.7h-2V281z M148.6,276.2v4.7h2.1v-4.7
				H148.6z M151.4,270.6c1.7,0.9,3.9,2.3,5.1,3.2l-0.8,1.1c-1.1-0.9-3.3-2.4-5.1-3.3L151.4,270.6z M154.6,264.8
				c-0.7,1.2-1.5,2.5-2.2,3.4l-1.2-0.5c0.6-0.9,1.5-2.4,1.9-3.5L154.6,264.8z M151.8,276.2v4.7h2.1v-4.7H151.8z"/>
			<path fill="#FFFFFF" d="M158.8,265h7.8v1.3h-2.3v2.7h2v13.8h-1.2v-1.2h-4.8v1.5h-1.1V269h2v-2.7h-2.3V265z M165.1,280.4v-5.6h0
				h-0.9c-0.8,0-1.1-0.2-1.1-1.2v-3.4h-1v1.7c0,1.2-0.3,2.9-1.4,4c-0.1-0.1-0.3-0.3-0.5-0.5v4.8H165.1z M160.3,270.2v5
				c0.9-1,1-2.3,1-3.3v-1.7H160.3z M161.1,277h3.3v1.2h-3.3V277z M163.2,266.3h-1v2.7h1V266.3z M165.1,270.2H164v3.3
				c0,0.3,0,0.3,0.3,0.3h0.6c0.1,0,0.1,0,0.2,0V270.2z M168.9,264.5h1.3v8.3c0,3.9-0.3,7.5-2.5,10.4c-0.3-0.3-0.8-0.7-1.1-0.9
				c1.7-2.1,2.1-4.6,2.3-7.4l-1,0.4c-0.1-1.3-0.6-3.2-1.1-4.7l1-0.4c0.5,1.4,1,3.3,1.2,4.6c0-0.6,0-1.3,0-2V264.5z M177.1,264.5
				v18.7h-1.3v-8.4l-0.8,0.4c-0.2-1.2-0.8-3-1.4-4.4v12h-1.2v-7.9l-0.9,0.4c-0.1-1.3-0.6-3.2-1.1-4.7l0.9-0.4c0.5,1.4,1,3.1,1.2,4.3
				v-9.7h1.2v5.5l0.8-0.4c0.6,1.2,1.1,2.7,1.4,3.9v-9.4H177.1z"/>
		</g>
		<g>
			<path fill="#FFFFFF" d="M141.2,348.1c-0.8-0.7-2.4-1.7-3.8-2.3l0.8-1.2c1.3,0.6,3,1.5,3.8,2.2L141.2,348.1z M143.1,350.9
				c-1.1,2.2-2.6,4.8-3.8,6.7l-1.3-1c1.1-1.6,2.7-4.3,3.9-6.7L143.1,350.9z M141.9,342.8c-0.7-0.8-2.2-1.9-3.5-2.7l0.9-1.1
				c1.3,0.7,2.8,1.8,3.5,2.5L141.9,342.8z M145,348.6h1.4v2.2c0,2.3-0.3,5-3,7c-0.2-0.3-0.8-0.8-1.1-1c2.4-1.8,2.7-4.1,2.7-6V348.6z
				 M143.4,346.4c0.4-0.1,0.9-0.6,1.5-1.3c0.3-0.4,1-1.2,1.7-2.2h-3.6v-1.4h4.5c0.6-0.8,1.1-1.8,1.6-2.7l1.5,0.6
				c-0.4,0.7-0.8,1.4-1.3,2h6.7v1.4h-7.7c-0.9,1.2-1.7,2.3-2.6,3.3l7.1-0.4c-0.5-0.6-1-1.3-1.5-1.8l1.2-0.7c1.2,1.4,2.9,3.3,3.7,4.5
				l-1.3,0.8c-0.3-0.4-0.7-1-1.1-1.5c-8.4,0.6-9.4,0.6-10,0.9C143.8,347.6,143.6,346.8,143.4,346.4z M148.7,348.7h1.4v8.2h-1.4
				V348.7z M155.4,356.2c0.3,0,0.7,0,0.9-0.1c0,0.4,0.1,0.9,0.1,1.2c-0.2,0.1-0.6,0.1-1,0.1H154c-1.4,0-1.7-0.5-1.7-2v-6.8h1.4v6.8
				c0,0.6,0.1,0.8,0.3,0.8H155.4z"/>
			<path fill="#FFFFFF" d="M176.9,343.6c0,0,0,0.6,0,0.8c-0.2,8.8-0.4,11.7-1.1,12.5c-0.4,0.5-0.8,0.7-1.4,0.8
				c-0.6,0.1-1.6,0.1-2.5,0c0-0.4-0.2-1.1-0.4-1.5c1,0.1,1.9,0.1,2.3,0.1c0.4,0,0.5-0.1,0.8-0.3c0.5-0.6,0.7-3.4,0.9-10.9h-3
				c-0.3,5.6-1.2,10.1-4.9,12.9c-0.2-0.3-0.8-0.9-1.1-1.1c0.3-0.2,0.6-0.5,0.9-0.7c-3.2,0.4-6.4,0.7-8.8,1l-0.2-1.4
				c1.3-0.1,2.8-0.3,4.5-0.4v-1.8h-3.9v-1.2h3.9V351H159v-6.2h3.9v-1.3h-4.5v-1.2h4.5v-1.4c-1.3,0.1-2.7,0.2-3.9,0.2
				c-0.1-0.3-0.2-0.8-0.4-1.1c3.1-0.2,6.9-0.5,9-1l0.8,1.2c-1.1,0.3-2.5,0.4-4.1,0.6v1.5h4.4v1.2h-4.4v1.3h4.1v6.2h-4.1v1.3h4.1v1.2
				h-4.1v1.7c1.4-0.1,2.8-0.3,4.2-0.4v0.1c1.8-2.5,2.4-5.8,2.5-9.8h-2.4v-1.5h2.5c0-1.5,0-3,0-4.6h1.5c0,1.6,0,3.1,0,4.6H176.9z
				 M160.3,347.4h2.6v-1.5h-2.6V347.4z M162.9,350v-1.5h-2.6v1.5H162.9z M164.3,345.9v1.5h2.7v-1.5H164.3z M167,348.4h-2.7v1.5h2.7
				V348.4z"/>
			<path fill="#FFFFFF" d="M178.9,348.1c0.6-1.4,0.9-3.7,1.1-5.3l1.2,0.2c-0.1,1.7-0.5,4.1-1,5.6L178.9,348.1z M182,338.8h1.5v19.1
				H182V338.8z M184.7,342.1c0.6,1.1,1.3,2.6,1.5,3.5l-1.2,0.6c-0.2-0.9-0.9-2.4-1.4-3.6L184.7,342.1z M198,355.6v1.5h-12.7v-1.5h6
				v-5.2h-4.4V349h4.4v-4.3h-3c-0.4,1.3-0.9,2.3-1.5,3.2c-0.3-0.2-1-0.5-1.4-0.7c1.2-1.8,2-4.6,2.5-7.5l1.5,0.3
				c-0.2,1.1-0.5,2.2-0.8,3.2h2.6v-4.3h1.5v4.3h4.7v1.5h-4.7v4.3h4.3v1.4h-4.3v5.2H198z"/>
		</g>
	</g>
	<g>
		<defs>
			<path id="SVGID_1_" d="M760.5,383.9c-310.9,2.6-557.4,42-760.5,106.2L0,0h760.5V383.9z"/>
		</defs>
		<clipPath id="SVGID_2_">
			<use xlink:href="#SVGID_1_"  overflow="visible"/>
		</clipPath>
		<g clip-path="url(#SVGID_2_)">
			<path fill="#032360" d="M496.6,149c0,0,12.5,117.2-15,144.2c-27.5,27-90.1-11-90.1-11l-21.3,6.6c27.5,42,79.8,65.8,111,61.9
				c61.9-7.8,95.6-85.2,98.5-141.8L496.6,149z"/>
			<g>
				<path fill="#E6E7E8" d="M391.6,282.2l-8.8-24.5c0,0-38.2,9.9-37.5,11.4c0.7,1.4,24.9,19.7,24.9,19.7L391.6,282.2z"/>
				<polygon fill="#E6E7E8" points="382.8,257.8 381.5,249.2 383.3,241.4 379.5,240.9 375.1,247.9 375,252.8 340.4,257.6 
					345.4,269.1 373.4,273.4 				"/>
				<polygon fill="#E6E7E8" points="375,252.8 361.3,241.2 357.8,225.4 352,225.8 354.3,241.4 362.8,255.1 				"/>
				<polygon fill="#E6E7E8" points="362.8,255.1 350.1,239.8 349.3,221.8 344.3,221.2 342.8,240.2 355.6,259.1 				"/>
				<polygon fill="#E6E7E8" points="340.4,257.6 333.1,248.5 337.6,235.6 341.1,239.4 338.7,248.7 347.7,257.3 				"/>
				<polygon fill="#E6E7E8" points="347.4,259.1 337.7,244.9 340.7,231.2 345.7,234 343.3,245.7 356.1,255.6 				"/>
			</g>
			<g>
				<rect x="241.9" y="253.4" fill="#032360" width="162.1" height="10.5"/>
				<rect x="251.1" y="245.6" fill="#032360" width="143.7" height="10.5"/>
				<g>
					
						<rect x="251.1" y="118.6" transform="matrix(0.9765 -0.2156 0.2156 0.9765 -18.5314 72.4751)" fill="#032360" width="143.7" height="5.2"/>
					<rect x="319.4" y="112.5" fill="#032360" width="7.1" height="135.4"/>
					<circle fill="#032360" cx="252.9" cy="136.8" r="6.7"/>
					<circle fill="#032360" cx="392.5" cy="105.8" r="6.7"/>
					<path fill="#032360" d="M271,189.1h-35.6l17.6-54.6L271,189.1z M237.3,187.7H269l-16.1-48.6L237.3,187.7z"/>
					<path fill="#032360" d="M410.5,157.7h-35.6l17.6-54.6L410.5,157.7z M376.8,156.3h31.7l-16.1-48.6L376.8,156.3z"/>
					<path fill="#032360" d="M277.6,188c0,13.1-10.6,23.8-23.8,23.8c-13.1,0-23.8-10.6-23.8-23.8H277.6z"/>
					<path fill="#032360" d="M415.8,157c0,13.1-10.6,23.8-23.8,23.8s-23.8-10.6-23.8-23.8H415.8z"/>
					<rect x="252.2" y="136.8" fill="#032360" width="1.4" height="57.4"/>
					<rect x="391.8" y="109.9" fill="#032360" width="1.4" height="57.4"/>
					<circle fill="#032360" cx="323" cy="121.2" r="14"/>
				</g>
			</g>
			<g>
				<polygon fill="#E6E7E8" points="433.6,58.2 429.5,78.5 446.4,152 466.5,137 479.6,154.2 542.1,121.9 488.6,58.3 				"/>
				<path fill="#032360" d="M509.4,81.3c0.1-10.4-7.1-32.8-32.5-35c-25.4-2.2-43.9,10.1-53.6,6.2c0,0,8,12.1,29.5,10.8
					c21.5-1.2,41.2,16.1,40.1,18.5L509.4,81.3z"/>
				<polygon fill="#E6E7E8" points="434.3,95.8 431.1,118.6 442.3,117.1 				"/>
				<path fill="#E6E7E8" d="M492.1,83.1c1.5-4.6,7.5-5.9,10.3-2.2c2.8,3.6,3.6,12.6-0.2,13.1s-5.9-1.4-5.9-1.4"/>
			</g>
			<path fill="#032360" d="M549.8,115.8c-43.7,6.6-86.8,48.3-86.8,48.3s19.9,296-3.1,342L698.2,474
				C698.2,474,639.4,143.6,549.8,115.8z"/>
			<path fill="#032360" d="M463,164.1c0,0-2.9,137.9-38.8,165.3c-35.9,27.3-103-26.1-103-26.1l-25.8,4.5
				c25.8,52.8,82.9,88.3,119.7,88.4c73,0.2,123.8-84.8,135.5-150L463,164.1z"/>
			<path fill="#032360" d="M657,472.8L556.1,647c0,0-58.4-1.1-59.6-4.6c-1.1-3.4-17.5-149-17.5-149L657,472.8z"/>
			<path fill="#032360" d="M671.9,468.2c-1.1,32.1,22.9,182.2,22.9,182.2l-99.7-9.2l-98.6-169.6L671.9,468.2z"/>
			<g>
				<path fill="#E6E7E8" d="M321.2,303.2l-6.5-29.7c0,0-45.8,5.9-45.2,7.6c0.6,1.8,26,26.5,26,26.5L321.2,303.2z"/>
				<polygon fill="#E6E7E8" points="314.7,273.5 321.9,266.9 323.5,257.8 319.1,256.6 313.8,263.5 306.3,266.6 265.4,267.1 
					269.5,281.1 301.4,290.2 				"/>
				<polygon fill="#E6E7E8" points="306.3,266.6 292.1,251 290.3,232.1 283.6,231.8 283.9,250.3 291.8,267.4 				"/>
				<polygon fill="#E6E7E8" points="291.8,267.4 279.3,247.8 281.1,226.8 275.4,225.4 270.7,247.1 282.9,271 				"/>
				<polygon fill="#E6E7E8" points="265.4,267.1 258.3,255.3 265.4,241 269,246 264.7,256.4 273.9,267.8 				"/>
				<polygon fill="#E6E7E8" points="273.3,269.8 264.1,251.9 269.7,236.4 275,240.3 270.5,253.6 283.9,267 				"/>
			</g>
			<g>
				<path fill="#0C56AB" d="M362.6,328.1c4.6,1.7,9.3,3.4,14,4.8c4.7,1.5,9.5,2.7,14.4,3.4c4.9,0.7,9.8,1,14.6,0.3
					c4.8-0.7,9.6-2.2,13.7-4.7c4.2-2.5,7.9-5.8,11-9.6c3.1-3.8,5.7-8,7.9-12.4c0.6-1.1,1.1-2.2,1.6-3.3l0.8-1.7l0.7-1.7l1.4-3.4
					l1.2-3.5c0.9-2.3,1.5-4.7,2.3-7c0.7-2.4,1.3-4.8,2-7.1c-2.1,9.6-4.9,19.2-9.2,28.1c-2.1,4.5-4.8,8.7-7.9,12.6
					c-3.1,3.9-6.8,7.3-11.1,9.9c-4.3,2.6-9.2,4.1-14.1,4.8c-5,0.7-10,0.4-14.9-0.4C381,335.4,371.7,331.8,362.6,328.1z"/>
			</g>
			<g>
				<path fill="#0C56AB" d="M459.9,385c10.2-5.4,19.2-12.6,27.6-20.5c0.5-0.5,1.1-1,1.6-1.5l1.5-1.5l3-3.1c0.5-0.5,1-1,1.5-1.5
					l1.4-1.6l2.9-3.2c3.8-4.3,7.4-8.7,10.8-13.3c1.8-2.2,3.4-4.6,5-7c0.8-1.2,1.7-2.3,2.4-3.5l2.3-3.6l2.3-3.6
					c0.7-1.2,1.4-2.5,2.1-3.7c1.4-2.5,2.9-5,4.1-7.5c5.3-10.2,9.7-20.8,12.9-31.9c-2,11.4-5.8,22.5-10.8,33
					c-0.6,1.3-1.2,2.7-1.9,3.9l-2.1,3.8c-0.7,1.3-1.4,2.6-2.1,3.8l-2.3,3.7l-2.3,3.7c-0.8,1.2-1.6,2.4-2.4,3.6
					c-1.6,2.4-3.2,4.8-5,7.1c-7,9.3-14.8,18-23.6,25.6l-3.3,2.8c-0.6,0.5-1.1,1-1.7,1.4l-1.7,1.3l-3.5,2.6c-0.6,0.4-1.2,0.9-1.8,1.3
					l-1.8,1.2c-1.2,0.8-2.4,1.6-3.7,2.4l-3.8,2.1l-1.9,1c-0.7,0.3-1.3,0.6-2,0.9L459.9,385z"/>
			</g>
			<g>
				<path fill="#0C56AB" d="M640.2,505.2c-0.5,3.4-1.3,6.8-2.4,10.1c-0.3,0.8-0.5,1.7-0.9,2.5l-0.9,2.4c-0.6,1.6-1.3,3.2-2,4.8
					c-2.8,6.3-6.1,12.5-9.5,18.5c-6.9,12-14.5,23.6-22.3,35c-3.9,5.7-7.9,11.3-11.9,17l-12,16.8c-4,5.6-8,11.2-11.8,16.9
					c-1.9,2.9-3.9,5.7-5.6,8.7c-0.9,1.5-1.7,3-2.6,4.5l-1.2,2.3l-1,2.4c1-3.3,2.6-6.4,4.1-9.5c1.6-3.1,3.3-6.1,5.1-9.1
					c3.6-5.9,7.3-11.7,11.2-17.5c3.8-5.8,7.7-11.4,11.6-17.1l11.7-17c3.9-5.7,7.8-11.4,11.6-17.1c3.8-5.7,7.5-11.5,11.2-17.4
					c3.6-5.9,7.1-11.8,10.2-17.9C635.9,518.2,638.7,511.9,640.2,505.2z"/>
			</g>
		</g>
	</g>
</g>
<g>
</g>
<g>
</g>
<g>
</g>
<g>
</g>
<g>
</g>
<g>
</g>
<g>
</g>
<g>
</g>
<g>
</g>
<g>
</g>
<g>
</g>
<g>
</g>
<g>
</g>
<g>
</g>
<g>
</g>
</svg>
