<?xml version="1.0" encoding="utf-8"?>
<!-- Generator: Adobe Illustrator 18.0.0, SVG Export Plug-In . SVG Version: 6.00 Build 0)  -->
<!DOCTYPE svg PUBLIC "-//W3C//DTD SVG 1.1//EN" "http://www.w3.org/Graphics/SVG/1.1/DTD/svg11.dtd">
<svg version="1.1" id="Layer_1" xmlns="http://www.w3.org/2000/svg" xmlns:xlink="http://www.w3.org/1999/xlink" x="0px" y="0px"
	 viewBox="0 0 203.1 154.5" enable-background="new 0 0 203.1 154.5" xml:space="preserve">
<g>
	<g>
		<g>
			<path fill="#0C56AB" d="M4.3,136.9c1.2,0.8,3.6,1.5,5.7,1.5c6.7,0,10.3-4,10.6-10c-1.2,2.1-4,3.7-7.8,3.7c-5.7,0-11-3.9-11-10.7
				c0-6.6,5.3-11.1,12-11.1c6.6,0,12.6,4.7,12.6,14.9c0,11.5-5.5,18.4-16.3,18.4c-2.6,0-5.7-0.7-7.4-1.8L4.3,136.9z M13.7,115.2
				c-3.2,0-6.1,2.3-6.1,5.9c0,3.7,2.8,5.9,6.1,5.9c3.2,0,6.1-2.3,6.1-5.9C19.8,117.6,16.9,115.2,13.7,115.2z"/>
		</g>
	</g>
	<g>
		<g>
			<g>
				<g>
					<defs>
						<circle id="SVGID_1_" cx="94" cy="82.9" r="31.3"/>
					</defs>
					<clipPath id="SVGID_2_">
						<use xlink:href="#SVGID_1_"  overflow="visible"/>
					</clipPath>
					<circle clip-path="url(#SVGID_2_)" fill="#FFFFFF" cx="94" cy="82.9" r="32.1"/>
					<path clip-path="url(#SVGID_2_)" fill="#2368B5" d="M95.5,51.6c1,0.1,1.9,0.2,2.9,0.4c6.4,0.9,12,3.6,16.8,8
						c5,4.6,8.2,10.2,9.5,16.8c0.4,2.1,0.6,4.2,0.8,6.3c-21.2,0-42.1,0-63.2,0c0.1-1.4,0.2-2.7,0.3-4.1C63.6,72,66.5,66,71.4,61
						c4.7-4.8,10.4-7.8,17-9c1.1-0.2,2.2-0.3,3.3-0.4c0.2,0,0.4-0.1,0.5-0.1C93.4,51.6,94.4,51.6,95.5,51.6z M88.9,58.6
						c-3.7-1-8,0.9-10,4.3c-2.2,3.6-1.9,8.3,0.9,11.4c2.5,2.9,6.6,3.8,9.1,3c-4.4-1.5-7.1-4.4-7.2-9.2
						C81.6,63.3,84.3,60.2,88.9,58.6z M88.6,67.5c0.6,0.4,1.1,0.8,1.8,1.3c-0.2-0.6-0.3-1.1-0.5-1.5c-0.2-0.4-0.1-0.8,0.3-1
						c0.4-0.2,0.7-0.5,1.1-0.8c0-0.1,0-0.1-0.1-0.2c-0.5,0-0.9,0-1.4,0c-0.4,0-0.7-0.1-0.8-0.6c-0.1-0.5-0.3-0.9-0.5-1.5
						c-0.2,0.6-0.4,1-0.5,1.4c-0.1,0.5-0.4,0.8-0.9,0.7c-0.4,0-0.9,0-1.3,0c0.2,0.4,0.5,0.6,0.8,0.8c0.9,0.7,0.8,0.4,0.5,1.5
						c-0.1,0.3-0.2,0.7-0.3,1c0,0,0.1,0,0.1,0.1C87.5,68.2,88,67.8,88.6,67.5z M96.6,65.3c0,0.1,0,0.1-0.1,0.2
						c0.4,0.3,0.9,0.6,1.3,0.9c0.1,0.1,0.2,0.4,0.2,0.6c-0.1,0.5-0.3,1-0.5,1.7c0.6-0.4,1-0.7,1.5-1c0.3-0.2,0.4-0.2,0.7,0
						c0.4,0.3,0.8,0.6,1.3,0.9c0-0.6-0.2-1.1-0.3-1.5c-0.1-0.3-0.1-0.5,0.2-0.7c0.4-0.3,0.8-0.6,1.2-0.9c-0.6-0.1-1.1-0.2-1.6-0.1
						c-0.3,0-0.5-0.1-0.6-0.4c-0.1-0.5-0.3-1-0.6-1.7c-0.2,0.7-0.4,1.2-0.5,1.7c-0.1,0.3-0.3,0.5-0.6,0.4
						C97.6,65.3,97.1,65.3,96.6,65.3z M94,59.3c-0.1,0-0.1,0-0.2,0c-0.1,0.4-0.3,0.9-0.4,1.3c-0.1,0.5-0.4,0.6-0.8,0.6
						c-0.5,0-0.9,0-1.4,0c0.4,0.5,0.7,0.8,1.2,1c0.4,0.2,0.4,0.5,0.3,0.9c-0.2,0.5-0.3,0.9-0.5,1.6c0.4-0.3,0.7-0.5,0.9-0.6
						c1.1-0.8,0.7-0.8,1.7,0c0.3,0.2,0.5,0.4,0.8,0.6c0-0.4-0.1-0.8-0.2-1.2c-0.3-0.6-0.2-1.1,0.4-1.4c0.3-0.2,0.6-0.5,0.9-0.7
						c-0.6-0.1-1.1-0.1-1.5-0.1c-0.4,0-0.6-0.1-0.7-0.5C94.3,60.2,94.1,59.8,94,59.3z M87.9,71.5c0,0.1,0,0.1,0,0.2
						c0.3,0.2,0.5,0.4,0.8,0.6c0.8,0.6,0.8,0.6,0.5,1.6c-0.1,0.3-0.2,0.7-0.3,1c0,0,0.1,0,0.1,0.1c0.5-0.4,1.1-0.8,1.6-1.2
						c0.6,0.4,1.1,0.8,1.6,1.1c0-0.6-0.2-1-0.3-1.5c-0.1-0.3-0.1-0.6,0.2-0.8c0.4-0.3,0.8-0.6,1.2-0.9c0-0.1,0-0.1-0.1-0.2
						c-0.5,0-1,0-1.4,0c-0.4,0-0.6-0.1-0.7-0.5c-0.1-0.5-0.3-1-0.5-1.6c-0.2,0.5-0.3,0.9-0.4,1.3c-0.1,0.7-0.4,0.9-1.1,0.8
						C88.7,71.4,88.3,71.5,87.9,71.5z M97.3,69.5c0,0-0.1,0-0.1,0c-0.2,0.5-0.3,0.9-0.4,1.4c-0.1,0.4-0.4,0.6-0.8,0.6
						c-0.5,0-0.9,0-1.4,0c0.4,0.4,0.7,0.8,1.1,1c0.4,0.2,0.4,0.5,0.3,0.9c-0.2,0.4-0.3,0.9-0.4,1.4c0,0,0.1,0,0.1,0.1
						c0.5-0.4,1.1-0.8,1.6-1.1c0.6,0.4,1.1,0.8,1.8,1.3c-0.2-0.6-0.3-1-0.5-1.5c-0.2-0.5-0.1-0.8,0.3-1.1c0.4-0.2,0.7-0.5,1.1-0.8
						c0,0,0-0.1,0-0.1c-0.3,0-0.6,0-0.9,0c-1.3,0-1,0.2-1.4-1C97.5,70.2,97.4,69.8,97.3,69.5z"/>
				</g>
				<g>
					<g>
						<path fill="#0C56AB" d="M94,51.6c17.3,0,31.3,14,31.3,31.3c0,17.3-14,31.3-31.3,31.3c-17.3,0-31.3-14-31.3-31.3
							C62.7,65.6,76.7,51.6,94,51.6 M94,48.9c-18.8,0-34,15.3-34,34s15.3,34,34,34c18.8,0,34-15.3,34-34S112.7,48.9,94,48.9L94,48.9
							z"/>
					</g>
				</g>
			</g>
			<g>
				<defs>
					<circle id="SVGID_3_" cx="151.6" cy="51.5" r="51.5"/>
				</defs>
				<use xlink:href="#SVGID_3_"  overflow="visible" fill="#2368B5"/>
				<clipPath id="SVGID_4_">
					<use xlink:href="#SVGID_3_"  overflow="visible"/>
				</clipPath>
				<circle clip-path="url(#SVGID_4_)" fill="#FFFFFF" cx="151.6" cy="51.5" r="47.8"/>
				<path clip-path="url(#SVGID_4_)" fill="#2368B5" d="M198.8,62.1h-94.4c-0.7-3.3-1.1-6.7-1.1-10.2h48.3h48.3
					C199.9,55.4,199.5,58.8,198.8,62.1 M114.2,82.4c-2.5-3.1-4.7-6.5-6.4-10.2h87.6c-1.7,3.7-3.9,7.1-6.4,10.2H114.2 M151.6,31.6
					h43.8c1.5,3.2,2.7,6.6,3.4,10.2h-47.2V31.6 M146,33.8l-3.1-1l1.6,2.8l-2.3-2.3l0.3,3.3l-1.1-3.1l-1.1,3.1l0.3-3.3l-2.3,2.3
					l1.6-2.8l-3.1,1l2.7-1.8l-3.2-0.4l3.2-0.4l-2.7-1.8l3.1,1l-1.6-2.8l2.3,2.3l-0.3-3.3l1.1,3.1l1.1-3.1l-0.3,3.3l2.3-2.3l-1.6,2.8
					l3.1-1l-2.7,1.8l3.2,0.4l-3.2,0.4L146,33.8 M131,41c2,0,3.8-0.6,5.3-1.7c-2.1,2.5-5.3,4.1-8.7,4.1c-6.4,0-11.6-5.3-11.6-11.9
					c0-6.6,5.2-11.9,11.6-11.9c3.5,0,6.6,1.6,8.7,4.1c-1.5-1.1-3.3-1.7-5.3-1.7c-5.1,0-9.3,4.3-9.3,9.5C121.7,36.8,125.9,41,131,41
					 M189,21.4h-37.4V11.2h25.9C181.9,14,185.7,17.4,189,21.4 M125.6,92.6h51.9c-7.5,4.8-16.4,7.6-25.9,7.6
					C142,100.2,133.1,97.4,125.6,92.6"/>
				<circle clip-path="url(#SVGID_4_)" fill="none" cx="151.6" cy="51.5" r="48.6"/>
			</g>
		</g>
	</g>
</g>
<g>
</g>
<g>
</g>
<g>
</g>
<g>
</g>
<g>
</g>
<g>
</g>
<g>
</g>
<g>
</g>
<g>
</g>
<g>
</g>
<g>
</g>
<g>
</g>
<g>
</g>
<g>
</g>
<g>
</g>
</svg>
