<?xml version="1.0" encoding="utf-8"?>
<!-- Generator: Adobe Illustrator 18.0.0, SVG Export Plug-In . SVG Version: 6.00 Build 0)  -->
<!DOCTYPE svg PUBLIC "-//W3C//DTD SVG 1.1//EN" "http://www.w3.org/Graphics/SVG/1.1/DTD/svg11.dtd">
<svg version="1.1" id="Layer_1" xmlns="http://www.w3.org/2000/svg" xmlns:xlink="http://www.w3.org/1999/xlink" x="0px" y="0px"
	 viewBox="0 0 35.4 65.8" enable-background="new 0 0 35.4 65.8" xml:space="preserve">
<g>
	<g>
		<circle fill="#0C56AB" cx="17.7" cy="47.3" r="13.6"/>
		<g>
			<path fill="#FFFFFF" d="M7.2,46.2c0-0.1-0.1-0.3-0.1-0.5c0-1.2,0.9-2.3,2.5-2.3c1.5,0,2.5,1,2.5,2.2c0,0.9-0.5,1.6-1.3,2.1
				l-1.3,0.8c-0.3,0.2-0.5,0.4-0.6,0.6h3.3v1.3H7.1c0-1.2,0.4-2.2,1.6-2.9l1.1-0.7c0.6-0.3,0.8-0.7,0.8-1.2c0-0.5-0.3-0.9-1-0.9
				c-0.7,0-1.1,0.5-1.1,1.1c0,0.1,0,0.3,0.1,0.4L7.2,46.2z"/>
			<path fill="#FFFFFF" d="M13.6,44.5c0.5-0.7,1.2-1.2,2.3-1.2s1.8,0.5,2.3,1.2c0.5,0.7,0.6,1.6,0.6,2.5c0,0.9-0.1,1.7-0.6,2.4
				c-0.4,0.7-1.2,1.2-2.3,1.2s-1.8-0.5-2.3-1.2C13.1,48.7,13,47.9,13,47C13,46.1,13.1,45.3,13.6,44.5z M14.8,48.7
				c0.2,0.3,0.5,0.6,1,0.6c0.5,0,0.8-0.2,1-0.6c0.3-0.4,0.4-1,0.4-1.7c0-0.7-0.1-1.3-0.4-1.8c-0.2-0.3-0.5-0.6-1-0.6
				c-0.5,0-0.8,0.2-1,0.6c-0.3,0.4-0.4,1-0.4,1.8C14.4,47.7,14.5,48.3,14.8,48.7z"/>
			<path fill="#FFFFFF" d="M21,50.4v-4.6h-1.7v-1c1,0,1.7-0.6,1.8-1.3h1.3v6.9H21z"/>
			<path fill="#FFFFFF" d="M23.8,48.6c0-0.7,0.5-1.4,1.2-1.7c-0.7-0.3-1.1-0.9-1.1-1.5c0-1.2,1-2,2.5-2s2.5,0.8,2.5,2
				c0,0.6-0.4,1.3-1.1,1.5c0.7,0.3,1.2,0.9,1.2,1.7c0,1.2-1,2-2.6,2S23.8,49.8,23.8,48.6z M27.5,48.4c0-0.5-0.4-1-1.2-1
				s-1.2,0.5-1.2,1c0,0.5,0.4,1,1.2,1C27.1,49.4,27.5,48.9,27.5,48.4z M27.4,45.5c0-0.5-0.4-0.9-1-0.9c-0.6,0-1,0.4-1,0.9
				c0,0.5,0.4,0.9,1,0.9C27,46.4,27.4,46,27.4,45.5z"/>
		</g>
		<polygon fill="#0C56AB" points="13.2,58.8 22.2,58.8 17.7,65.8 		"/>
	</g>
	<g>
		<g>
			<polygon fill="#0C56AB" points="0.9,10.6 34.6,10.6 18,0 			"/>
			<rect x="3.4" y="11.3" fill="#0C56AB" width="2.9" height="13.5"/>
			<rect x="9.8" y="11.3" fill="#0C56AB" width="2.9" height="13.5"/>
			<rect x="23.4" y="11.3" fill="#0C56AB" width="2.9" height="13.5"/>
			<rect x="29.7" y="11.3" fill="#0C56AB" width="2.9" height="13.5"/>
			<polygon fill="#0C56AB" points="34,27.1 34,26.2 1.4,26.2 1.4,27.1 0,27.1 0,29.4 35.4,29.4 35.4,27.1 			"/>
			<g>
				<path fill="#0C56AB" d="M18.3,12.1c0.4,0,0.7,0.3,0.7,0.7V13c0.7,0.1,1.3,0.3,1.9,0.6c0.2,0.1,0.5,0.4,0.5,0.8
					c0,0.5-0.4,0.9-0.9,0.9c-0.2,0-0.3,0-0.5-0.1c-0.4-0.2-0.7-0.4-1.1-0.4v2c2,0.5,2.9,1.4,2.9,2.8c0,1.5-1.1,2.4-2.8,2.6v0.7
					c0,0.4-0.3,0.7-0.7,0.7c-0.4,0-0.7-0.3-0.7-0.7v-0.7c-0.9-0.1-1.8-0.4-2.6-0.9c-0.3-0.2-0.4-0.4-0.4-0.8c0-0.5,0.4-0.9,0.9-0.9
					c0.2,0,0.4,0.1,0.5,0.2c0.6,0.4,1.1,0.6,1.7,0.7v-2.1c-1.9-0.5-2.8-1.2-2.8-2.8c0-1.4,1.1-2.4,2.8-2.6v-0.2
					C17.6,12.4,17.9,12.1,18.3,12.1z M17.7,16.4v-1.8c-0.6,0.1-0.9,0.4-0.9,0.8C16.8,15.8,17,16.1,17.7,16.4z M18.9,18.7v1.8
					c0.6-0.1,0.9-0.4,0.9-0.9C19.9,19.2,19.6,18.9,18.9,18.7z"/>
			</g>
		</g>
	</g>
</g>
<g>
</g>
<g>
</g>
<g>
</g>
<g>
</g>
<g>
</g>
<g>
</g>
<g>
</g>
<g>
</g>
<g>
</g>
<g>
</g>
<g>
</g>
<g>
</g>
<g>
</g>
<g>
</g>
<g>
</g>
</svg>
