<?xml version="1.0" encoding="utf-8"?>
<!-- Generator: Adobe Illustrator 18.0.0, SVG Export Plug-In . SVG Version: 6.00 Build 0)  -->
<!DOCTYPE svg PUBLIC "-//W3C//DTD SVG 1.1//EN" "http://www.w3.org/Graphics/SVG/1.1/DTD/svg11.dtd">
<svg version="1.1" id="Layer_1" xmlns="http://www.w3.org/2000/svg" xmlns:xlink="http://www.w3.org/1999/xlink" x="0px" y="0px"
	 viewBox="0 0 1888 328.6" enable-background="new 0 0 1888 328.6" xml:space="preserve">
<g>
	<circle fill="#C42A5E" cx="30" cy="30" r="30"/>
	<g>
		<g>
			<path fill="#FFFFFF" d="M17.7,36.6c0-3.8,2.6-7,6.2-8.2c-3.2-1.2-5.4-4.4-5.4-7.7c0-5.6,4.9-9.5,11.7-9.5s11.7,3.9,11.7,9.5
				c0,3.3-2.2,6.5-5.4,7.7c3.5,1.2,6.2,4.4,6.2,8.2c0,5.6-4.8,9.8-12.5,9.8C22.4,46.4,17.7,42.2,17.7,36.6z M36.4,36
				c0-2.7-2.2-5.2-6.3-5.2c-4,0-6.3,2.4-6.3,5.2s2.2,5.1,6.3,5.1C34.2,41.1,36.4,38.7,36.4,36z M35.7,21.1c0-2.5-2.1-4.8-5.5-4.8
				s-5.5,2.2-5.5,4.8c0,2.8,2.2,4.9,5.5,4.9C33.5,25.9,35.7,23.9,35.7,21.1z"/>
		</g>
		<g>
			<g id="CiTCLM_1_">
				<g>
					<defs>
						<circle id="SVGID_1_" cx="62.7" cy="133.8" r="35.2"/>
					</defs>
					<clipPath id="SVGID_2_">
						<use xlink:href="#SVGID_1_"  overflow="visible"/>
					</clipPath>
					<g id="CiTCLM_8_" clip-path="url(#SVGID_2_)">
						<rect x="27.1" y="98.7" fill="#040404" width="70.3" height="23.4"/>
						<rect x="27.1" y="122.1" fill="#D40404" width="70.3" height="23.4"/>
						<rect x="27.1" y="145.5" fill="#FFCE00" width="70.3" height="23.4"/>
					</g>
				</g>
			</g>
			<g>
				<g>
					<defs>
						<circle id="SVGID_3_" cx="127.8" cy="96.6" r="47.2"/>
					</defs>
					<clipPath id="SVGID_4_">
						<use xlink:href="#SVGID_3_"  overflow="visible"/>
					</clipPath>
					<circle clip-path="url(#SVGID_4_)" fill="#FFFFFF" cx="128" cy="97.9" r="50.6"/>
					<g id="_x38_raAOr_3_" clip-path="url(#SVGID_4_)">
						<g>
							<path fill="#2368B5" d="M256.9,49.4c0,2.3,0,4.6,0,7c-35.3,0-70.5,0-105.9,0c0,2.4,0,4.6,0,6.9c0,0.2,0.5,0.5,0.7,0.5
								c2.9,0,5.8,0,8.6,0c16,0,32.1,0,48.1,0c14.4,0,28.8,0,43.2,0c1.7,0,3.3,0,5.1,0c0,2.4,0,4.6,0,7c-35.2,0-70.5,0-105.8,0
								c0,0.4,0,0.7,0,1c0,1.8,0,3.5,0,5.3c0,0.9,0.2,1.2,1.1,1.2c4-0.1,8.1,0,12.1,0c30.4,0,60.9,0,91.3,0c0.4,0,0.9,0,1.3,0
								c0,2.3,0,4.4,0,6.7c-35.2,0-70.4,0-105.8,0c0,2.5,0,4.9,0,7.4c35.2,0,70.5,0,105.8,0c0,2.4,0,4.7,0,7.1
								c-58.7,0-117.5,0-176.3,0c0-16.7,0-33.3,0-50C139.4,49.4,198.1,49.4,256.9,49.4z M142.8,53.5c1.4,0.7,1.2,1.8,0.8,3
								c1.1-1.2,2.2-1.1,3.3,0c-0.7-1.3-0.3-2.2,0.8-3c-1.4,0.2-2.3-0.2-2.5-1.7C144.9,53.1,144.2,53.7,142.8,53.5z M104.2,56.7
								c-0.4,0.8-0.6,1.4-1,1.6c-0.4,0.2-1,0.1-1.8,0.2c1.4,0.8,1.4,1.8,0.9,3c1.1-1.2,2.2-1.2,3.4,0c-0.8-1.3-0.2-2.2,0.8-3
								C105.3,58.5,104.2,58.5,104.2,56.7z M92,56.7c-0.2,1.5-1,1.9-2.3,1.8c1.2,0.8,1.3,1.8,0.5,3.2c0.8-0.5,1.3-1.1,1.8-1.1
								c0.5,0,1.1,0.6,1.6,0.9c-0.7-1.3-0.1-2.1,1-2.9C92.8,58.3,92.8,58.3,92,56.7z M96.5,66.5c1.1-1.2,2.2-1.2,3.4,0
								c-0.9-1.4-0.1-2.2,0.8-3c-1.4,0.2-2.2-0.2-2.5-1.6c-0.3,1.3-1.1,1.8-2.4,1.7C97.2,64.3,97,65.3,96.5,66.5z M83.9,63.4
								c1,1.4,1,1.4,0.8,3.2c0.6-0.4,1.1-0.7,1.6-1.1c0.5,0.4,1,0.7,1.5,1c-0.7-1.3,0-2.2,1-3c-1.4,0.2-2.3-0.1-2.5-1.7
								C86,63.1,85.4,63.7,83.9,63.4z M125.2,58.6c1.4,0.7,1.1,1.8,0.8,3c1.1-1.4,2.1-1.2,3.3-0.1c-1-1.4-0.1-2.2,0.8-3
								c-1.4,0.3-2.2-0.2-2.4-1.7C126.8,58.4,126.8,58.4,125.2,58.6z M139.3,66.9c-0.3,0.5-0.4,1.1-0.8,1.3c-0.4,0.3-1,0.2-1.7,0.3
								c1.3,0.8,1.4,1.8,0.8,2.9c0.6-0.3,1.1-0.9,1.6-0.9c0.5,0,1.1,0.6,1.7,0.9c-0.1-0.6-0.4-1.2-0.3-1.7c0.2-0.5,0.7-0.8,1.3-1.4
								c-0.7,0-1.3,0.2-1.7,0C139.8,68.1,139.7,67.5,139.3,66.9z M89.9,68.5c1.2,0.8,1.2,1.7,0.7,2.9c1.1-0.9,2.2-1.1,3.3,0
								c-0.9-1.3,0-2.1,0.8-2.9c-1.4,0.2-2.3-0.2-2.5-1.7C91.9,68,91.3,68.8,89.9,68.5z M101.7,88.4c1.2,0.8,1.2,1.8,0.6,3.1
								c0.8-0.5,1.3-1,1.8-1c0.5,0,1,0.6,1.5,0.9c-0.6-1.3-0.1-2.2,1-3c-1.4,0.2-2.3-0.2-2.5-1.7C103.7,88,103,88.7,101.7,88.4z
								 M141.8,58.5c-1.3,0.1-2.3-0.1-2.6-1.7c-0.3,1.3-1,1.9-2.4,1.7c1.3,0.8,1.2,1.8,0.8,3c1.1-1.3,2.2-1,3.3,0
								C140.3,60.2,140.7,59.3,141.8,58.5z M136,73.5c-1.4,0.2-2.2-0.2-2.5-1.7c-0.4,1.2-1,1.9-2.4,1.7c1.4,0.8,1.2,1.8,0.8,3
								c1.1-1.2,2.1-1.1,3.3-0.1C134.4,75.1,134.9,74.3,136,73.5z M98.2,71.8c-0.4,1.2-1,1.9-2.4,1.6c1.1,0.8,1.3,1.7,0.7,2.9
								c1.1-1,2.2-1.1,3.4-0.1c-0.9-1.3,0-2.1,0.8-2.9C99.3,73.7,98.4,73.4,98.2,71.8z M98.2,51.9c-0.3,0.5-0.4,1.1-0.8,1.3
								c-0.4,0.3-1,0.2-1.8,0.3c1.4,0.8,1.3,1.8,1,2.9c0.5-0.3,1-0.7,1.5-1c0.5,0.3,1,0.7,1.5,1c-0.4-1.2-0.3-2.2,1.1-2.9
								C99,53.3,99,53.3,98.2,51.9z M131.8,86.5c1.1-1.1,2.2-1.2,3.3,0c-0.7-1.3-0.2-2.2,0.9-3c-1.4,0.3-2.2-0.2-2.4-1.8
								c-0.4,0.7-0.5,1.3-0.9,1.6c-0.4,0.3-1,0.2-1.7,0.2C132.2,84.3,132.4,85.3,131.8,86.5z M107.6,93.5c1.3,0.8,1.2,1.8,0.8,3
								c1.1-1.2,2.2-1.1,3.4,0c-0.9-1.4-0.2-2.2,0.8-3c-1.3,0.1-2.3-0.1-2.5-1.7C109.6,93.1,109,93.9,107.6,93.5z M115.9,76.9
								c-0.4,1.2-1,1.9-2.5,1.6c1.1,0.8,1.3,1.7,0.7,2.9c1.1-1,2.2-1.1,3.3-0.1c-0.9-1.4-0.1-2.1,0.8-2.8
								C117.1,78.6,116,78.5,115.9,76.9z M147.7,63.5c-1.4,0.2-2.3-0.2-2.5-1.7c-0.3,1.3-1,1.9-2.4,1.6c0.5,0.6,1,1,1,1.4
								c0.1,0.5-0.2,1-0.4,1.6c1.1-0.9,2.2-1.2,3.4,0.1C146.2,65.2,146.5,64.3,147.7,63.5z M117.5,71.3c-0.9-1.4,0-2.1,1-2.8
								c-0.8-0.1-1.4,0.1-1.8-0.2c-0.4-0.2-0.5-0.9-0.9-1.7c-0.1,1.6-0.9,2.1-2.3,1.9c1.1,0.8,1.3,1.7,0.7,2.9
								C115.3,70.6,116.3,70.2,117.5,71.3z M111.7,86.5c-1-1.4-0.1-2.2,0.8-3c-1.4,0.3-2.2-0.2-2.5-1.6c-0.3,1.4-1.1,1.8-2.4,1.7
								c1.3,0.8,1.2,1.8,0.8,3C109.4,85.4,110.5,85.2,111.7,86.5z M84.8,76.4c1.1-0.9,2.1-1,3.3,0c-0.9-1.3,0-2.1,0.9-2.9
								c-1.4,0.3-2.2-0.2-2.6-1.6c-0.2,1.5-1.1,1.8-2.3,1.7C85.1,74.3,85.4,75.2,84.8,76.4z M108.5,76.4c0.5-0.3,1-0.8,1.5-0.8
								c0.5,0,1.1,0.5,1.9,0.9c-1.1-1.4-0.2-2.1,0.6-2.9c-1.3,0.2-2.3-0.1-2.5-1.6c-0.3,1.3-1,1.9-2.4,1.7
								C108.7,74.3,109,75.2,108.5,76.4z M107.6,63.4c0.5,0.6,1,1,1.1,1.5c0.1,0.4-0.2,1-0.3,1.6c0.6-0.4,1.1-0.8,1.6-0.9
								c0.5,0,1.1,0.5,1.6,0.7c-0.8-1.3,0.1-2,1.2-2.8c-0.8,0-1.5,0.1-1.9-0.1c-0.4-0.2-0.5-0.9-0.9-1.5
								C109.6,63,109.1,63.8,107.6,63.4z M86.5,91.9c-0.4,1.2-1,1.9-2.4,1.6c1.1,0.8,1.3,1.7,0.7,2.9c1.1-0.9,2.2-1.2,3.3,0
								c-0.8-1.3-0.1-2.1,0.8-2.9C87.7,93.6,86.7,93.5,86.5,91.9z M136.9,78.5c1.2,0.8,1.2,1.8,0.7,3c1.1-1.3,2.2-1.1,3.3,0
								c-0.9-1.4-0.2-2.2,0.8-3c-1.4,0.2-2.3-0.1-2.5-1.6C139,78.1,138.3,78.7,136.9,78.5z M114.1,61.5c1.2-1.2,2.2-1.1,3.4,0
								c-0.8-1.3-0.3-2.2,0.8-3c-1.3,0.1-2.3-0.2-2.5-1.7c-0.3,1.3-1,1.9-2.4,1.7C114.5,59.4,114.7,60.3,114.1,61.5z M139.3,86.7
								c-0.3,1.3-0.9,2-2.5,1.6c0.6,0.7,1.1,1,1.2,1.4c0.1,0.5-0.2,1-0.3,1.9c1.2-1.3,2.3-1.2,3.4-0.2c-0.8-1.3-0.2-2.2,1-2.9
								c-0.8,0-1.5,0.1-1.9-0.2C139.8,88.1,139.6,87.4,139.3,86.7z M114.3,91.4c0.5-0.3,1.1-0.8,1.6-0.8c0.5,0,1,0.6,1.5,0.9
								c-0.7-1.3,0-2.1,1.1-2.9c-0.8-0.1-1.5,0.1-1.9-0.2c-0.4-0.2-0.5-0.9-0.7-1.4c-0.3,1.3-1.1,1.7-2.4,1.6
								C114.7,89.3,114.7,90.3,114.3,91.4z M90.5,81.5c0.8-0.4,1.3-0.9,1.8-0.9c0.5,0,1,0.4,1.5,0.7c-0.7-1.3,0.2-1.9,1-2.7
								c-1.4,0.3-2.2-0.3-2.5-1.6c-0.3,1.3-1.1,1.8-2.4,1.7C91.1,79.3,91.1,80.3,90.5,81.5z M121.8,51.8c-0.4,1.1-0.9,2-2.4,1.7
								c1.2,0.8,1.3,1.8,0.8,2.9c0.5-0.3,1-0.7,1.5-1c0.5,0.3,1,0.7,1.5,1c-0.6-1.3-0.1-2.1,1-2.9C122.9,53.6,122,53.3,121.8,51.8z
								 M124.3,63.6c-0.1-0.1-0.1-0.1-0.2-0.2c-0.5,0-1.2,0.1-1.6-0.1c-0.4-0.2-0.5-0.9-0.8-1.4c-0.3,1.3-1.2,1.6-2.4,1.6
								c1.1,0.8,1.3,1.7,0.7,2.9c1.1-1.2,2.1-1.1,3.3-0.1C122.6,64.9,123.4,64.2,124.3,63.6z M107.6,53.5c1.2,0.8,1.2,1.8,0.7,3
								c1.1-1.2,2.2-1.1,3.3,0c-0.8-1.3-0.3-2.2,0.8-3c-1.3,0.2-2.3-0.1-2.5-1.6C109.6,53.2,109,53.8,107.6,53.5z M142.9,93.5
								c1.2,0.8,1.2,1.8,0.8,3c1.1-1.3,2.2-1.1,3.3-0.1c-0.8-1.4-0.2-2.2,0.9-3c-1.3,0.1-2.3-0.1-2.5-1.7
								C144.9,93,144.3,93.8,142.9,93.5z M84.7,56.5c1.1-1.2,2.2-1.1,3.3,0c-0.7-1.3-0.3-2.2,0.9-3c-1.3,0.1-2.3-0.2-2.5-1.8
								c-0.4,0.7-0.5,1.3-0.9,1.6c-0.4,0.3-1,0.2-1.7,0.3C85.2,54.3,85.3,55.3,84.7,56.5z M106.5,68.5c-1.3,0.1-2.2-0.2-2.5-1.7
								c-0.4,1.2-1,1.9-2.4,1.7c1.1,0.8,1.4,1.7,0.7,2.9c1.1-0.9,2.2-1.2,3.3,0C104.9,70,105.5,69.2,106.5,68.5z M101.7,78.5
								c1.1,0.8,1.3,1.7,0.5,3c0.8-0.5,1.3-1,1.8-1c0.5,0,1.1,0.5,1.7,0.7c-0.1-0.6-0.4-1.1-0.2-1.5c0.2-0.4,0.8-0.7,1.2-1.1
								c0-0.1,0-0.2,0-0.3c-1.4,0.5-2.2,0-2.5-1.5C103.7,78.1,103,78.7,101.7,78.5z M135.2,96.7c-0.2-0.9-0.5-1.5-0.3-1.9
								c0.2-0.5,0.8-0.7,1.3-1.1c-0.1-0.1-0.2-0.2-0.2-0.3c-0.5,0-1.2,0.1-1.6-0.2c-0.4-0.2-0.5-0.9-0.9-1.6c-0.2,1.4-0.9,2-2.3,1.8
								c1.2,0.8,1.3,1.7,0.8,3C133,95.2,134.1,95.5,135.2,96.7z M143.6,76.5c1.1-1.4,2.2-1.1,3.3,0.1c-0.2-0.8-0.5-1.4-0.3-1.9
								c0.1-0.5,0.7-0.8,1.1-1.2c0-0.1,0-0.2,0-0.2c-1.4,0.5-2.2-0.1-2.4-1.5c-0.4,1.2-1,1.9-2.4,1.7
								C144.1,74.3,144.1,75.3,143.6,76.5z M131.1,53.5c1.2,0.8,1.2,1.8,0.7,3c1.1-1.2,2.2-1.1,3.4,0c-0.9-1.4-0.2-2.2,0.8-3
								c-1.4,0.2-2.3-0.2-2.5-1.7C133,53,132.5,53.9,131.1,53.5z M131.7,66.6c0.7-0.4,1.2-1,1.7-1c0.5,0,1.1,0.5,1.6,0.8
								c0.1,0,0.2,0,0.3,0c-1.1-1.3-0.2-2.1,0.7-2.9c-1.4,0.2-2.3-0.1-2.5-1.7c-0.4,1.2-1,2-2.5,1.5c0.5,0.6,1,1,1.1,1.5
								C132.3,65.4,131.9,65.9,131.7,66.6z M121.8,81.8c-0.4,1.2-1,2-2.4,1.7c1.1,0.8,1.3,1.8,0.7,3c1.1-1.1,2.2-1.2,3.3,0
								c-0.7-1.3-0.2-2.2,0.9-3C122.9,83.6,122,83.3,121.8,81.8z M125.2,88.4c1.1,0.8,1.3,1.8,0.7,3c1.1-1.2,2.2-1.2,3.4,0
								c-0.7-1.3-0.3-2.2,0.8-3c-1.4,0.2-2.2-0.3-2.5-1.7C127.3,88.1,126.6,88.6,125.2,88.4z M130.3,68.5c-0.9-0.1-1.5,0.1-1.9-0.2
								c-0.4-0.2-0.5-0.9-0.8-1.5c-0.3,0.6-0.4,1.2-0.8,1.5c-0.4,0.3-1,0.2-1.8,0.2c1.3,0.8,1.5,1.7,0.9,2.9
								c1.1-1.1,2.2-1.1,3.3-0.1C128.4,69.9,129.2,69.2,130.3,68.5z M124.3,73.5c-1.3,0.1-2.3-0.1-2.4-1.8c-0.4,0.7-0.5,1.4-0.9,1.6
								c-0.4,0.3-1,0.2-1.8,0.2c1.3,0.8,1.4,1.7,0.9,2.9c1.1-1.1,2.1-1,3.3-0.1C122.6,74.9,123.4,74.2,124.3,73.5z M142.9,83.4
								c1.2,0.8,1.2,1.8,0.5,3c0.8-0.4,1.3-1,1.8-1c0.5,0,1,0.6,1.5,0.9c-0.7-1.3-0.1-2.1,1-3c-1.5,0.3-2.2-0.2-2.5-1.6
								C144.9,82.9,144.4,83.8,142.9,83.4z M126,81.4c1-1,2.1-1.3,3.3-0.1c-0.9-1.4,0-2.1,0.9-2.9c-1.3,0.2-2.3-0.1-2.5-1.6
								c-0.4,1.3-1,1.9-2.4,1.6C126.2,79.8,126.2,79.8,126,81.4z M123.4,96.5c-0.7-1.3-0.2-2.2,0.9-3c-1.3,0.2-2.3-0.2-2.4-1.7
								c-1,1.5-1,1.5-2.6,1.8c1.4,0.7,1.3,1.7,0.9,2.9C121.3,95.3,122.3,95.2,123.4,96.5z M96.5,96.4c1.1-1,2.2-1,3.3,0
								c-0.1-0.7-0.3-1.3-0.2-1.7c0.2-0.4,0.7-0.7,1.1-1.1c-1.3,0.1-2.2-0.3-2.4-1.8c-0.4,1.2-1,2-2.4,1.7
								C96.8,94.3,97.2,95.2,96.5,96.4z M88.8,83.5c-0.5,0-1.2,0.1-1.6-0.1c-0.4-0.2-0.5-0.9-0.9-1.6c-0.3,1.4-1,2-2.3,1.8
								c1.2,0.8,1.2,1.7,0.7,2.9c1.1-1,2.1-1.1,3.3-0.1C87.3,85,87.9,84.2,88.8,83.5z M100.7,83.4c-1.4,0.2-2.3-0.2-2.5-1.7
								c-0.4,1.2-1,2-2.5,1.5c0.5,0.6,1,1,1.2,1.4c0.1,0.4-0.2,1-0.3,1.5c1.1-0.9,2.2-1,3.3,0C99.1,84.9,99.7,84.2,100.7,83.4z
								 M94.8,88.5c-1.4,0.2-2.2-0.2-2.5-1.7c-0.2,1.4-1,1.9-2.4,1.7c1.1,0.8,1.3,1.7,0.7,2.9c1.1-1,2.2-1,3.3-0.1
								C93.2,90,93.8,89.2,94.8,88.5z"/>
							<path fill="#2368B5" d="M256.9,135.3c0,2.3,0,4.6,0,6.9c-58.8,0-117.5,0-176.3,0c0-2.3,0-4.6,0-6.9
								C139.4,135.3,198.1,135.3,256.9,135.3z"/>
							<path fill="#2368B5" d="M80.6,127.8c0-2.3,0-4.6,0-6.9c58.8,0,117.5,0,176.4,0c0,1.1,0,2.2,0,3.4c0,1.1,0,2.3,0,3.5
								C198.2,127.8,139.5,127.8,80.6,127.8z"/>
							<path fill="#2368B5" d="M80.6,113.4c0-2.3,0-4.5,0-6.8c58.8,0,117.5,0,176.3,0c0,2.2,0,4.5,0,6.8
								C198.1,113.4,139.4,113.4,80.6,113.4z"/>
						</g>
					</g>
				</g>
				<g>
					<path fill="#0C56AB" d="M127.8,49.4c26,0,47.2,21.1,47.2,47.2s-21.1,47.2-47.2,47.2s-47.2-21.1-47.2-47.2
						S101.8,49.4,127.8,49.4 M127.8,46.4c-27.6,0-50.1,22.5-50.1,50.1s22.5,50.1,50.1,50.1s50.1-22.5,50.1-50.1
						S155.5,46.4,127.8,46.4L127.8,46.4z"/>
				</g>
			</g>
		</g>
	</g>
</g>
<g id="_x2E_png" opacity="0.3">
	<g>
		<g>
			<path fill="#D1D3D4" d="M1888,48.2c-45.5-29.6-115.5-25.4-148.7,5.3s-33.2,83.6-111.9,89.9c-78.7,6.3-84.8-7.4-143.8,24.3
				c-59,31.7-108.2-9.5-186.8,44.4c-78.7,54-93.4,116.4-93.4,116.4h678.5L1888,48.2z"/>
		</g>
	</g>
</g>
<g>
</g>
<g>
</g>
<g>
</g>
<g>
</g>
<g>
</g>
<g>
</g>
<g>
</g>
<g>
</g>
<g>
</g>
<g>
</g>
<g>
</g>
<g>
</g>
<g>
</g>
<g>
</g>
<g>
</g>
</svg>
