<?xml version="1.0" encoding="utf-8"?>
<!-- Generator: Adobe Illustrator 18.0.0, SVG Export Plug-In . SVG Version: 6.00 Build 0)  -->
<!DOCTYPE svg PUBLIC "-//W3C//DTD SVG 1.1//EN" "http://www.w3.org/Graphics/SVG/1.1/DTD/svg11.dtd">
<svg version="1.1" id="Layer_1" xmlns="http://www.w3.org/2000/svg" xmlns:xlink="http://www.w3.org/1999/xlink" x="0px" y="0px"
	 viewBox="0 0 745.9 213.1" enable-background="new 0 0 745.9 213.1" xml:space="preserve">
<g>
	<path fill="#7F58A5" d="M112.9,202.7c-20.2,0-39.4-6.4-55.5-18.4c-15.6-11.7-27.3-28.3-33.1-46.8l1-0.3C31,155.5,42.6,172,58,183.5
		c16,11.9,34.9,18.2,54.9,18.2c50.6,0,91.8-41.2,91.8-91.8c0-4.7-0.4-9.5-1.1-14.2l-0.1-0.6h42l-37.8-15.4l0.4-0.9l42.6,17.3h-46
		c0.7,4.5,1,9.1,1,13.7C205.7,161.1,164.1,202.7,112.9,202.7z"/>
	<path fill="#7F58A5" d="M745.4,47.6c-0.3,0-0.5-0.2-0.5-0.5v-3.3c0-0.3,0.2-0.5,0.5-0.5s0.5,0.2,0.5,0.5v3.3
		C745.9,47.3,745.7,47.6,745.4,47.6z M745.4,40.3c-0.3,0-0.5-0.2-0.5-0.5v-4c0-0.3,0.2-0.5,0.5-0.5s0.5,0.2,0.5,0.5v4
		C745.9,40,745.7,40.3,745.4,40.3z M745.4,32.3c-0.3,0-0.5-0.2-0.5-0.5v-3.3c0-0.2,0-0.4,0-0.7c0-0.3,0.2-0.5,0.5-0.5
		c0.3,0,0.5,0.2,0.5,0.5c0,0.2,0,0.5,0,0.7v3.3C745.9,32,745.7,32.3,745.4,32.3z M744.7,24.4c-0.2,0-0.4-0.1-0.5-0.3
		c-0.4-1.2-1-2.4-1.7-3.4c-0.2-0.2-0.1-0.5,0.1-0.7c0.2-0.2,0.5-0.1,0.7,0.1c0.8,1.1,1.4,2.4,1.8,3.7c0.1,0.3-0.1,0.5-0.3,0.6
		C744.8,24.3,744.7,24.4,744.7,24.4z M740.2,17.8c-0.1,0-0.2,0-0.3-0.1c-1-0.8-2.1-1.5-3.3-2c-0.3-0.1-0.4-0.4-0.3-0.7
		c0.1-0.3,0.4-0.4,0.7-0.3c1.3,0.6,2.4,1.3,3.5,2.2c0.2,0.2,0.2,0.5,0.1,0.7C740.5,17.8,740.4,17.8,740.2,17.8z M733,14.6
		C733,14.6,733,14.6,733,14.6c-0.8-0.1-1.4-0.2-2.1-0.2h-1.9c-0.3,0-0.5-0.2-0.5-0.5s0.2-0.5,0.5-0.5h1.9c0.7,0,1.5,0.1,2.2,0.2
		c0.3,0,0.5,0.3,0.4,0.6C733.5,14.4,733.3,14.6,733,14.6z M714.9,14.4c-0.7,0-1.3-0.1-2-0.3c-0.3-0.1-0.4-0.4-0.3-0.6
		c0.1-0.3,0.4-0.4,0.6-0.3c0.5,0.2,1.1,0.2,1.7,0.2c0,0,0,0,0,0h2.2c0.3,0,0.5,0.2,0.5,0.5s-0.2,0.5-0.5,0.5H714.9
		C714.9,14.4,714.9,14.4,714.9,14.4z M725.1,14.4h-4c-0.3,0-0.5-0.2-0.5-0.5s0.2-0.5,0.5-0.5h4c0.3,0,0.5,0.2,0.5,0.5
		S725.3,14.4,725.1,14.4z M709.8,12c-0.1,0-0.3-0.1-0.4-0.2c-0.9-1.1-1.5-2.5-1.7-3.9c0-0.3,0.2-0.5,0.4-0.5c0.3,0,0.5,0.2,0.5,0.4
		c0.1,1.2,0.6,2.4,1.4,3.4c0.2,0.2,0.2,0.5-0.1,0.7C710,12,709.9,12,709.8,12z M707.4,4.5c-0.2,0-0.4-0.1-0.4-0.3
		c-0.6-1.1-1.5-2-2.6-2.6c-0.2-0.1-0.3-0.4-0.2-0.7c0.1-0.2,0.4-0.3,0.7-0.2c1.3,0.7,2.3,1.7,3,3c0.1,0.2,0,0.5-0.2,0.7
		C707.6,4.5,707.5,4.5,707.4,4.5z M700.7,1h-4c-0.3,0-0.5-0.2-0.5-0.5s0.2-0.5,0.5-0.5h4c0.3,0,0.5,0.2,0.5,0.5S701,1,700.7,1z
		 M692.7,1h-4c-0.3,0-0.5-0.2-0.5-0.5s0.2-0.5,0.5-0.5h4c0.3,0,0.5,0.2,0.5,0.5S693,1,692.7,1z M684.7,1h-4c-0.3,0-0.5-0.2-0.5-0.5
		s0.2-0.5,0.5-0.5h4c0.3,0,0.5,0.2,0.5,0.5S685,1,684.7,1z M676.7,1h-4c-0.3,0-0.5-0.2-0.5-0.5s0.2-0.5,0.5-0.5h4
		c0.3,0,0.5,0.2,0.5,0.5S677,1,676.7,1z M668.7,1h-4c-0.3,0-0.5-0.2-0.5-0.5s0.2-0.5,0.5-0.5h4c0.3,0,0.5,0.2,0.5,0.5S669,1,668.7,1
		z M660.7,1h-4c-0.3,0-0.5-0.2-0.5-0.5s0.2-0.5,0.5-0.5h4c0.3,0,0.5,0.2,0.5,0.5S661,1,660.7,1z M652.7,1h-4c-0.3,0-0.5-0.2-0.5-0.5
		s0.2-0.5,0.5-0.5h4c0.3,0,0.5,0.2,0.5,0.5S653,1,652.7,1z M644.7,1h-4c-0.3,0-0.5-0.2-0.5-0.5s0.2-0.5,0.5-0.5h4
		c0.3,0,0.5,0.2,0.5,0.5S645,1,644.7,1z M636.7,1h-4c-0.3,0-0.5-0.2-0.5-0.5s0.2-0.5,0.5-0.5h4c0.3,0,0.5,0.2,0.5,0.5S637,1,636.7,1
		z M628.7,1h-4c-0.3,0-0.5-0.2-0.5-0.5s0.2-0.5,0.5-0.5h4c0.3,0,0.5,0.2,0.5,0.5S629,1,628.7,1z M620.7,1h-4c-0.3,0-0.5-0.2-0.5-0.5
		s0.2-0.5,0.5-0.5h4c0.3,0,0.5,0.2,0.5,0.5S621,1,620.7,1z M612.7,1h-4c-0.3,0-0.5-0.2-0.5-0.5s0.2-0.5,0.5-0.5h4
		c0.3,0,0.5,0.2,0.5,0.5S613,1,612.7,1z M604.7,1h-4c-0.3,0-0.5-0.2-0.5-0.5s0.2-0.5,0.5-0.5h4c0.3,0,0.5,0.2,0.5,0.5S605,1,604.7,1
		z M596.7,1h-4c-0.3,0-0.5-0.2-0.5-0.5s0.2-0.5,0.5-0.5h4c0.3,0,0.5,0.2,0.5,0.5S597,1,596.7,1z M588.7,1h-4c-0.3,0-0.5-0.2-0.5-0.5
		s0.2-0.5,0.5-0.5h4c0.3,0,0.5,0.2,0.5,0.5S589,1,588.7,1z M580.7,1h-4c-0.3,0-0.5-0.2-0.5-0.5s0.2-0.5,0.5-0.5h4
		c0.3,0,0.5,0.2,0.5,0.5S581,1,580.7,1z M572.7,1h-4c-0.3,0-0.5-0.2-0.5-0.5s0.2-0.5,0.5-0.5h4c0.3,0,0.5,0.2,0.5,0.5S573,1,572.7,1
		z M564.7,1h-4c-0.3,0-0.5-0.2-0.5-0.5s0.2-0.5,0.5-0.5h4c0.3,0,0.5,0.2,0.5,0.5S565,1,564.7,1z M556.7,1h-4c-0.3,0-0.5-0.2-0.5-0.5
		s0.2-0.5,0.5-0.5h4c0.3,0,0.5,0.2,0.5,0.5S557,1,556.7,1z M548.7,1h-4c-0.3,0-0.5-0.2-0.5-0.5s0.2-0.5,0.5-0.5h4
		c0.3,0,0.5,0.2,0.5,0.5S549,1,548.7,1z M540.7,1h-4c-0.3,0-0.5-0.2-0.5-0.5s0.2-0.5,0.5-0.5h4c0.3,0,0.5,0.2,0.5,0.5S541,1,540.7,1
		z M532.7,1h-4c-0.3,0-0.5-0.2-0.5-0.5s0.2-0.5,0.5-0.5h4c0.3,0,0.5,0.2,0.5,0.5S533,1,532.7,1z M524.7,1h-4c-0.3,0-0.5-0.2-0.5-0.5
		s0.2-0.5,0.5-0.5h4c0.3,0,0.5,0.2,0.5,0.5S525,1,524.7,1z M516.7,1h-4c-0.3,0-0.5-0.2-0.5-0.5s0.2-0.5,0.5-0.5h4
		c0.3,0,0.5,0.2,0.5,0.5S517,1,516.7,1z"/>
	<path fill="#7F58A5" d="M274.3,19.3h-9.2c-0.3,0-0.5-0.2-0.5-0.5s0.2-0.5,0.5-0.5h8.7v-7.4c0-6,4.9-10.9,10.9-10.9h80.7
		c0.3,0,0.5,0.2,0.5,0.5S365.7,1,365.4,1h-80.7c-5.5,0-9.9,4.5-9.9,9.9v7.9C274.8,19.1,274.6,19.3,274.3,19.3z"/>
	<path fill="#7F58A5" d="M265.1,151.1c0.3,0,0.5,0.2,0.5,0.5v3.3c0,0.3-0.2,0.5-0.5,0.5s-0.5-0.2-0.5-0.5v-3.3
		C264.6,151.3,264.9,151.1,265.1,151.1z M265.1,158.4c0.3,0,0.5,0.2,0.5,0.5v4c0,0.3-0.2,0.5-0.5,0.5s-0.5-0.2-0.5-0.5v-4
		C264.6,158.6,264.9,158.4,265.1,158.4z M265.1,166.4c0.3,0,0.5,0.2,0.5,0.5v3.3c0,0.2,0,0.4,0,0.7c0,0.3-0.2,0.5-0.5,0.5
		c-0.3,0-0.5-0.2-0.5-0.5c0-0.2,0-0.5,0-0.7v-3.3C264.6,166.6,264.9,166.4,265.1,166.4z M265.9,174.3c0.2,0,0.4,0.1,0.5,0.3
		c0.4,1.2,1,2.4,1.7,3.4c0.2,0.2,0.1,0.5-0.1,0.7c-0.2,0.2-0.5,0.1-0.7-0.1c-0.8-1.1-1.4-2.4-1.8-3.7c-0.1-0.3,0.1-0.5,0.3-0.6
		C265.8,174.3,265.8,174.3,265.9,174.3z M270.3,180.9c0.1,0,0.2,0,0.3,0.1c1,0.8,2.1,1.5,3.3,2c0.3,0.1,0.4,0.4,0.3,0.7
		c-0.1,0.3-0.4,0.4-0.7,0.3c-1.3-0.6-2.4-1.3-3.5-2.2c-0.2-0.2-0.2-0.5-0.1-0.7C270,180.9,270.2,180.9,270.3,180.9z M277.5,184.1
		C277.5,184.1,277.6,184.1,277.5,184.1c0.8,0.1,1.4,0.2,2.1,0.2h1.9c0.3,0,0.5,0.2,0.5,0.5s-0.2,0.5-0.5,0.5h-1.9
		c-0.7,0-1.5-0.1-2.2-0.2c-0.3,0-0.5-0.3-0.4-0.6C277.1,184.3,277.3,184.1,277.5,184.1z M295.7,184.3c0.7,0,1.3,0.1,2,0.3
		c0.3,0.1,0.4,0.4,0.3,0.6c-0.1,0.3-0.4,0.4-0.6,0.3c-0.5-0.2-1.1-0.2-1.7-0.2c0,0,0,0,0,0h-2.2c-0.3,0-0.5-0.2-0.5-0.5
		s0.2-0.5,0.5-0.5H295.7C295.7,184.3,295.7,184.3,295.7,184.3z M285.5,184.3h4c0.3,0,0.5,0.2,0.5,0.5s-0.2,0.5-0.5,0.5h-4
		c-0.3,0-0.5-0.2-0.5-0.5S285.2,184.3,285.5,184.3z M300.8,186.6c0.1,0,0.3,0.1,0.4,0.2c0.9,1.1,1.5,2.5,1.7,3.9
		c0,0.3-0.2,0.5-0.4,0.5c-0.3,0-0.5-0.2-0.5-0.4c-0.1-1.2-0.6-2.4-1.4-3.4c-0.2-0.2-0.2-0.5,0.1-0.7
		C300.6,186.7,300.7,186.6,300.8,186.6z M303.2,194.1c0.2,0,0.4,0.1,0.4,0.3c0.6,1.1,1.5,2,2.6,2.6c0.2,0.1,0.3,0.4,0.2,0.7
		c-0.1,0.2-0.4,0.3-0.7,0.2c-1.3-0.7-2.3-1.7-3-3c-0.1-0.2,0-0.5,0.2-0.7C303,194.2,303.1,194.1,303.2,194.1z M309.8,197.7h4
		c0.3,0,0.5,0.2,0.5,0.5s-0.2,0.5-0.5,0.5h-4c-0.3,0-0.5-0.2-0.5-0.5S309.6,197.7,309.8,197.7z M317.8,197.7h4
		c0.3,0,0.5,0.2,0.5,0.5s-0.2,0.5-0.5,0.5h-4c-0.3,0-0.5-0.2-0.5-0.5S317.6,197.7,317.8,197.7z M325.8,197.7h4
		c0.3,0,0.5,0.2,0.5,0.5s-0.2,0.5-0.5,0.5h-4c-0.3,0-0.5-0.2-0.5-0.5S325.6,197.7,325.8,197.7z M333.8,197.7h4
		c0.3,0,0.5,0.2,0.5,0.5s-0.2,0.5-0.5,0.5h-4c-0.3,0-0.5-0.2-0.5-0.5S333.6,197.7,333.8,197.7z M341.8,197.7h4
		c0.3,0,0.5,0.2,0.5,0.5s-0.2,0.5-0.5,0.5h-4c-0.3,0-0.5-0.2-0.5-0.5S341.6,197.7,341.8,197.7z M349.8,197.7h4
		c0.3,0,0.5,0.2,0.5,0.5s-0.2,0.5-0.5,0.5h-4c-0.3,0-0.5-0.2-0.5-0.5S349.6,197.7,349.8,197.7z M357.8,197.7h4
		c0.3,0,0.5,0.2,0.5,0.5s-0.2,0.5-0.5,0.5h-4c-0.3,0-0.5-0.2-0.5-0.5S357.6,197.7,357.8,197.7z M365.8,197.7h4
		c0.3,0,0.5,0.2,0.5,0.5s-0.2,0.5-0.5,0.5h-4c-0.3,0-0.5-0.2-0.5-0.5S365.6,197.7,365.8,197.7z M373.8,197.7h4
		c0.3,0,0.5,0.2,0.5,0.5s-0.2,0.5-0.5,0.5h-4c-0.3,0-0.5-0.2-0.5-0.5S373.6,197.7,373.8,197.7z M381.8,197.7h4
		c0.3,0,0.5,0.2,0.5,0.5s-0.2,0.5-0.5,0.5h-4c-0.3,0-0.5-0.2-0.5-0.5S381.6,197.7,381.8,197.7z M389.8,197.7h4
		c0.3,0,0.5,0.2,0.5,0.5s-0.2,0.5-0.5,0.5h-4c-0.3,0-0.5-0.2-0.5-0.5S389.6,197.7,389.8,197.7z M397.8,197.7h4
		c0.3,0,0.5,0.2,0.5,0.5s-0.2,0.5-0.5,0.5h-4c-0.3,0-0.5-0.2-0.5-0.5S397.6,197.7,397.8,197.7z M405.8,197.7h4
		c0.3,0,0.5,0.2,0.5,0.5s-0.2,0.5-0.5,0.5h-4c-0.3,0-0.5-0.2-0.5-0.5S405.6,197.7,405.8,197.7z M413.8,197.7h4
		c0.3,0,0.5,0.2,0.5,0.5s-0.2,0.5-0.5,0.5h-4c-0.3,0-0.5-0.2-0.5-0.5S413.6,197.7,413.8,197.7z M421.8,197.7h4
		c0.3,0,0.5,0.2,0.5,0.5s-0.2,0.5-0.5,0.5h-4c-0.3,0-0.5-0.2-0.5-0.5S421.6,197.7,421.8,197.7z M429.8,197.7h4
		c0.3,0,0.5,0.2,0.5,0.5s-0.2,0.5-0.5,0.5h-4c-0.3,0-0.5-0.2-0.5-0.5S429.6,197.7,429.8,197.7z M437.8,197.7h4
		c0.3,0,0.5,0.2,0.5,0.5s-0.2,0.5-0.5,0.5h-4c-0.3,0-0.5-0.2-0.5-0.5S437.6,197.7,437.8,197.7z M445.8,197.7h4
		c0.3,0,0.5,0.2,0.5,0.5s-0.2,0.5-0.5,0.5h-4c-0.3,0-0.5-0.2-0.5-0.5S445.6,197.7,445.8,197.7z M453.8,197.7h4
		c0.3,0,0.5,0.2,0.5,0.5s-0.2,0.5-0.5,0.5h-4c-0.3,0-0.5-0.2-0.5-0.5S453.6,197.7,453.8,197.7z M461.8,197.7h4
		c0.3,0,0.5,0.2,0.5,0.5s-0.2,0.5-0.5,0.5h-4c-0.3,0-0.5-0.2-0.5-0.5S461.6,197.7,461.8,197.7z M469.8,197.7h4
		c0.3,0,0.5,0.2,0.5,0.5s-0.2,0.5-0.5,0.5h-4c-0.3,0-0.5-0.2-0.5-0.5S469.6,197.7,469.8,197.7z M477.8,197.7h4
		c0.3,0,0.5,0.2,0.5,0.5s-0.2,0.5-0.5,0.5h-4c-0.3,0-0.5-0.2-0.5-0.5S477.6,197.7,477.8,197.7z M485.8,197.7h4
		c0.3,0,0.5,0.2,0.5,0.5s-0.2,0.5-0.5,0.5h-4c-0.3,0-0.5-0.2-0.5-0.5S485.6,197.7,485.8,197.7z M493.8,197.7h4
		c0.3,0,0.5,0.2,0.5,0.5s-0.2,0.5-0.5,0.5h-4c-0.3,0-0.5-0.2-0.5-0.5S493.6,197.7,493.8,197.7z"/>
	<path fill="#7F58A5" d="M736.2,179.4h9.2c0.3,0,0.5,0.2,0.5,0.5s-0.2,0.5-0.5,0.5h-8.7v7.4c0,6-4.9,10.9-10.9,10.9h-80.7
		c-0.3,0-0.5-0.2-0.5-0.5s0.2-0.5,0.5-0.5h80.7c5.5,0,9.9-4.5,9.9-9.9v-7.9C735.7,179.6,736,179.4,736.2,179.4z"/>
	<g>
		<path fill="#7F58A5" d="M0,157.6c2.6-4.9,5.2-9.8,7.8-14.6c2.6-4.9,5.3-9.7,8-14.5c2.7-4.8,5.4-9.6,8.1-14.5
			c2.7-4.8,5.5-9.6,8.2-14.4L33,98l1.8,0.3l12.4,2c4.1,0.7,8.2,1.4,12.4,2.1l12.4,2.1c4.1,0.7,8.2,1.4,12.3,2.2l-0.3,0l15.2,1.2
			c5.1,0.4,10.1,0.8,15.2,1.2l-2.4,0.7l17.3-13.2c2.9-2.2,5.8-4.4,8.7-6.6l8.7-6.5l0.9-0.7l1,0l9.7,0.2c3.2,0.1,6.5,0.2,9.7,0.3
			l9.7,0.3l9.7,0.3l-1.7,0.8l9.5-9.7c3.2-3.3,6.4-6.5,9.6-9.7c3.2-3.2,6.4-6.4,9.6-9.6c3.2-3.2,6.5-6.4,9.7-9.5
			c-2.8,3.5-5.7,7.1-8.6,10.5c-2.9,3.5-5.8,7-8.7,10.4c-2.9,3.5-5.8,6.9-8.8,10.4l-8.9,10.3l-0.6,0.7l-1.1,0l-9.8,0.1l-9.8,0.1
			c-3.3,0-6.5,0.1-9.8,0.1l-9.8,0l1.9-0.6l-8.5,6.8c-2.8,2.3-5.7,4.5-8.6,6.7l-17.2,13.4l-1,0.8l-1.4-0.1
			c-5.1-0.4-10.1-0.8-15.2-1.3l-15.2-1.3l-0.2,0l-0.2,0c-4.1-0.8-8.2-1.5-12.3-2.4l-12.3-2.4c-4.1-0.8-8.2-1.6-12.3-2.5l-12.3-2.5
			l2.7-1.2c-3,4.7-5.9,9.3-9,13.9c-3,4.6-6,9.3-9.1,13.9c-3.1,4.6-6.1,9.2-9.2,13.8C6.3,148.5,3.2,153,0,157.6z"/>
		<polygon fill="#7F58A5" points="210.6,49.4 227.6,42.3 222.9,58.8 219.9,51.1 		"/>
	</g>
	<g>
		<defs>
			<circle id="SVGID_1_" cx="112.9" cy="109.9" r="92.3"/>
		</defs>
		<clipPath id="SVGID_2_">
			<use xlink:href="#SVGID_1_"  overflow="visible"/>
		</clipPath>
		<g clip-path="url(#SVGID_2_)">
			<path fill="#002A5E" d="M92.9,103.4l-39.2,18.7l-25,64.4l86.4,26.5l80.9-22.4c0,0-30.6-76.1-31.6-76.4c-1-0.3-29.8-9.1-29.8-9.1
				L92.9,103.4z"/>
			<polygon fill="#BCBEC0" points="103.6,123.6 107.3,112.8 120.7,112 123,133.4 116.8,180.9 104.4,133.5 			"/>
			<polygon fill="#A7A9AC" points="109.3,126 105.8,139.9 116.8,180.9 122.3,139.9 118.3,126.4 			"/>
			<path fill="#808285" d="M108,120.8l12.7-1.1l0,8.8c0,1.8-1.5,3.3-3.3,3.3l-6.5,0c-1.9,0-3.4-1.6-3.3-3.5L108,120.8z"/>
			<polygon fill="#D1D3D4" points="92.5,95.3 90.4,107.4 105.8,132.2 112.5,120.4 			"/>
			<polygon fill="#D1D3D4" points="134.7,95.1 137.1,107.1 121.8,131.9 114.8,120.4 			"/>
			<path fill="#D1D3D4" d="M96,66.4c-1.1-0.8-8-3.8-8-3.8l-3,7.6l3.5,17.4l7.6-3.4L96,66.4z"/>
			<path fill="#D1D3D4" d="M132.9,67.3c1.1-0.8,8-3.8,8-3.8l3.1,7.6l-3.4,17.5l-7.6-3.4L132.9,67.3z"/>
			<polygon fill="#E6E7E8" points="115.7,43.4 94.5,43.5 89.3,90.2 104.6,113.8 124.7,113.7 139.4,92.8 133.6,42.1 			"/>
			<polygon fill="#939598" points="113.5,60.4 113.6,94.5 105.6,90 			"/>
			<path fill="#002A5E" d="M91,77.6l3.6-13.8l-0.1-13.2c0,0,6.1,5.6,20.1,3.6c14-1.9,18.9-5,18.9-5l2.3,17.4l4.2,5.7l3.8-7.6
				c0,0,1.8-24.7-6.1-28.8c-8-4.2-23.5-5.2-34.1-2.2C93,36.8,86.2,38.3,83.5,38c0,0,7.9,8,6.7,12C86.8,61.1,91,77.6,91,77.6z"/>
			<path fill="#2B3990" d="M141,112.2l1.6,7.9l1.6,8l0,0.2l-0.2,0.1l-9.4,4.4l0.2-0.6c2.7,3.4,5.3,6.9,7.9,10.4l0.2,0.2l-0.1,0.2
				c-2.2,4.9-4.3,9.9-6.4,14.8l-6.5,14.7l-6.6,14.7c-2.2,4.9-4.5,9.8-6.7,14.6c2-5,4.1-9.9,6.2-14.9l6.3-14.8l6.4-14.8
				c2.1-4.9,4.3-9.8,6.5-14.7l0.1,0.5c-2.6-3.5-5.2-6.9-7.8-10.4l-0.3-0.4l0.4-0.2l9.5-4.2l-0.2,0.3l-1.4-8L141,112.2z"/>
			<path fill="#2B3990" d="M85.7,113.3c-0.8,5.9-1.7,11.8-2.6,17.6l-0.3-0.4c3.7,0.3,7.4,0.5,11.1,0.8l0.5,0l-0.1,0.5l-1.2,9.8
				c-0.4,3.3-0.8,6.5-1.3,9.8l-0.1-0.3c3.5,5.9,7.1,11.8,10.5,17.8c3.5,5.9,6.9,11.9,10.3,17.9c-3.7-5.8-7.3-11.7-10.9-17.5
				c-3.6-5.9-7.2-11.8-10.7-17.7l-0.1-0.1l0-0.2c0.4-3.3,0.9-6.5,1.3-9.8l1.3-9.8l0.4,0.5c-3.7-0.3-7.4-0.7-11.1-1.1l-0.4,0l0.1-0.3
				C83.5,125,84.5,119.2,85.7,113.3z"/>
		</g>
	</g>
</g>
<g>
</g>
<g>
</g>
<g>
</g>
<g>
</g>
<g>
</g>
<g>
</g>
<g>
</g>
<g>
</g>
<g>
</g>
<g>
</g>
<g>
</g>
<g>
</g>
<g>
</g>
<g>
</g>
<g>
</g>
</svg>
