<?xml version="1.0" encoding="utf-8"?>
<!-- Generator: Adobe Illustrator 18.0.0, SVG Export Plug-In . SVG Version: 6.00 Build 0)  -->
<!DOCTYPE svg PUBLIC "-//W3C//DTD SVG 1.1//EN" "http://www.w3.org/Graphics/SVG/1.1/DTD/svg11.dtd">
<svg version="1.1" id="Layer_1" xmlns="http://www.w3.org/2000/svg" xmlns:xlink="http://www.w3.org/1999/xlink" x="0px" y="0px"
	 viewBox="0 0 354.4 821" enable-background="new 0 0 354.4 821" xml:space="preserve">
<path fill="#7F58A5" d="M109,702H74.7c-8,0-14.6-6.5-14.6-14.6V679H40.1c-0.3,0-0.5-0.2-0.5-0.5s0.2-0.5,0.5-0.5h20.6
	c0.3,0,0.5,0.2,0.5,0.5v8.8c0,7.5,6.1,13.6,13.6,13.6H109c0.3,0,0.5,0.2,0.5,0.5S109.2,702,109,702z"/>
<path fill="#7F58A5" d="M286.7,702H157c-0.3,0-0.5-0.2-0.5-0.5s0.2-0.5,0.5-0.5h129.6c5,0,9-4,9-9c0-5.5,4.5-10,10-10h36.9
	c6,0,11-4.9,11-11c0-6-4.9-11-11-11h-52.7c-5.5,0-10-4.5-10-10c0-5-4-9-9-9h-39.5c-0.3,0-0.5-0.2-0.5-0.5s0.2-0.5,0.5-0.5h39.5
	c5.5,0,10,4.5,10,10c0,5,4,9,9,9h52.7c6.6,0,12,5.4,12,12c0,6.6-5.4,12-12,12h-36.9c-5,0-9,4-9,9C296.6,697.5,292.2,702,286.7,702z"
	/>
<path fill="#7F58A5" d="M44.5,667.6H12.7c-0.3,0-0.5-0.2-0.5-0.5V0.5c0-0.3,0.2-0.5,0.5-0.5c0.3,0,0.5,0.2,0.5,0.5v666.1H44v-7.3
	c0-10.6,8.6-19.2,19.2-19.2h126.2c0.3,0,0.5,0.2,0.5,0.5s-0.2,0.5-0.5,0.5H63.2c-10,0-18.2,8.2-18.2,18.2v7.8
	C45,667.4,44.8,667.6,44.5,667.6z"/>
<path fill="#7F58A5" d="M204.2,713.5H97.6c-0.3,0-0.5-0.2-0.5-0.5s0.2-0.5,0.5-0.5h106.6c0.3,0,0.5,0.2,0.5,0.5
	S204.5,713.5,204.2,713.5z"/>
<path fill="#7F58A5" d="M103.1,821H34.3c-9.2,0-17.8-3.6-24.2-10c-6.5-6.5-10-15.1-10-24.2L0.3,173c0-0.3,0.2-0.5,0.5-0.5
	c0,0,0,0,0,0c0.3,0,0.5,0.2,0.5,0.5L1,786.7c0,8.9,3.5,17.3,9.7,23.5s14.6,9.8,23.5,9.8h68.3c5.7-46.5,45.2-81.4,92.1-81.4
	c30.6,0,59.2,15.1,76.5,40.3c0.2,0.2,0.1,0.5-0.1,0.7c-0.2,0.2-0.5,0.1-0.7-0.1c-17.2-25-45.5-39.9-75.7-39.9
	c-46.6,0-85.8,34.8-91.2,81C103.5,820.8,103.3,821,103.1,821z"/>
<g>
</g>
<g>
</g>
<g>
</g>
<g>
</g>
<g>
</g>
<g>
</g>
<g>
</g>
<g>
</g>
<g>
</g>
<g>
</g>
<g>
</g>
<g>
</g>
<g>
</g>
<g>
</g>
<g>
</g>
</svg>
