<?xml version="1.0" encoding="utf-8"?>
<!-- Generator: Adobe Illustrator 18.0.0, SVG Export Plug-In . SVG Version: 6.00 Build 0)  -->
<!DOCTYPE svg PUBLIC "-//W3C//DTD SVG 1.1//EN" "http://www.w3.org/Graphics/SVG/1.1/DTD/svg11.dtd">
<svg version="1.1" id="Layer_1" xmlns="http://www.w3.org/2000/svg" xmlns:xlink="http://www.w3.org/1999/xlink" x="0px" y="0px"
	 viewBox="0 0 385.8 194.6" enable-background="new 0 0 385.8 194.6" xml:space="preserve">
<g>
	<path fill="#7F58A5" d="M285.5,194.6H163c-0.3,0-0.5-0.2-0.5-0.5s0.2-0.5,0.5-0.5h122.5c0.3,0,0.5,0.2,0.5,0.5
		S285.8,194.6,285.5,194.6z"/>
	<g>
		<g>
			<g>
				<path fill="#0C56AB" d="M293.8,75.9c-0.1-0.3-0.2-0.9-0.2-1.5c0-3.7,2.8-7.1,7.7-7.1c4.7,0,7.6,3.1,7.6,6.8
					c0,2.7-1.5,4.9-4.1,6.5l-4.1,2.5c-0.8,0.5-1.5,1.1-1.8,1.9h10.1V89h-15.6c0-3.7,1.2-6.7,5-9l3.5-2.1c1.8-1.1,2.5-2.2,2.5-3.6
					c0-1.5-1.1-2.9-3.2-2.9c-2.2,0-3.4,1.5-3.4,3.5c0,0.4,0.1,0.8,0.2,1.2L293.8,75.9z"/>
				<path fill="#0C56AB" d="M313.3,70.9c1.4-2.1,3.7-3.5,7-3.5c3.3,0,5.6,1.5,6.9,3.5c1.4,2.2,1.9,4.8,1.9,7.5s-0.5,5.3-1.9,7.5
					c-1.4,2.1-3.6,3.5-6.9,3.5c-3.3,0-5.6-1.5-7-3.5c-1.4-2.2-1.9-4.8-1.9-7.5S311.9,73.1,313.3,70.9z M317.1,83.8
					c0.7,1,1.7,1.7,3.2,1.7c1.6,0,2.5-0.7,3.2-1.7c0.8-1.3,1.2-3.2,1.2-5.4c0-2.2-0.3-4.1-1.2-5.4c-0.7-1-1.6-1.7-3.2-1.7
					c-1.5,0-2.5,0.7-3.2,1.7c-0.8,1.3-1.1,3.2-1.1,5.4C315.9,80.6,316.2,82.5,317.1,83.8z"/>
				<path fill="#0C56AB" d="M336.1,89V74.8H331v-3c3.1,0,5.2-1.8,5.7-4h3.9V89H336.1z"/>
				<path fill="#0C56AB" d="M344.5,83.3c0-2.3,1.5-4.3,3.7-5.1c-2.1-0.8-3.3-2.8-3.3-4.7c0-3.5,3.2-6.1,7.5-6.1s7.5,2.5,7.5,6.1
					c0,1.9-1.2,3.9-3.3,4.7c2.2,0.8,3.7,2.9,3.7,5.1c0,3.6-3.2,6.2-8,6.2S344.5,86.9,344.5,83.3z M356,82.8c0-1.5-1.2-3-3.6-3
					s-3.5,1.5-3.5,3c0,1.5,1.2,2.9,3.5,2.9C354.8,85.7,356,84.3,356,82.8z M355.6,73.7c0-1.4-1.1-2.7-3.1-2.7c-2,0-3.1,1.3-3.1,2.7
					c0,1.5,1.1,2.7,3.1,2.8C354.4,76.5,355.6,75.2,355.6,73.7z"/>
			</g>
		</g>
		<g>
			<g>
				<rect x="30.8" y="57" transform="matrix(0.1435 0.9897 -0.9897 0.1435 84.2401 18.6661)" fill="#7F58A5" width="1" height="2"/>
				<path fill="#7F58A5" d="M36.4,57.8l-0.1-1l4-0.6l0.1,1L36.4,57.8z M44.4,56.6l-0.1-1l4-0.6l0.1,1L44.4,56.6z M52.5,55.4l-0.1-1
					l4-0.6l0.1,1L52.5,55.4z M60.5,54.3l-0.1-1l4-0.6l0.1,1L60.5,54.3z M68.5,53.1l-0.1-1l4-0.6l0.1,1L68.5,53.1z M76.5,52l-0.1-1
					l3.1-0.5l0.7-0.3l0.4,0.9l-0.9,0.4L76.5,52z M84.3,49.4l-0.4-0.9l3.7-1.7l0.4,0.9L84.3,49.4z M91.6,45.9L91.2,45l3.7-1.7
					l0.4,0.9L91.6,45.9z M99,42.5l-0.4-0.9l3.7-1.7l0.4,0.9L99,42.5z M106.3,39.1l-0.4-0.9l3.7-1.7l0.4,0.9L106.3,39.1z M113.6,35.6
					l-0.4-0.9l3.7-1.7l0.4,0.9L113.6,35.6z M121,32.2l-0.4-0.9l3.7-1.7l0.4,0.9L121,32.2z M162.9,31.4l-3.9-0.9l0.2-1l3.9,0.9
					L162.9,31.4z M166.9,29.8l-0.5-0.9l3.5-2l0.5,0.9L166.9,29.8z M155,29.6l-3.9-0.9l0.2-1l3.9,0.9L155,29.6z M128.3,28.7l-0.4-0.9
					l3.7-1.7L132,27L128.3,28.7z M147.1,27.7l-3.9-0.9l0.2-1l3.9,0.9L147.1,27.7z M139.2,25.9l-3.3-0.8l-0.3,0.2l-0.4-0.9l0.6-0.3
					l3.6,0.8L139.2,25.9z M173.9,25.8l-0.5-0.9l3.5-2l0.5,0.9L173.9,25.8z M180.9,21.7l-0.5-0.9l3.5-2l0.5,0.9L180.9,21.7z
					 M188,17.7l-0.5-0.9l3.5-2l0.5,0.9L188,17.7z M195,13.6l-0.5-0.9l3.5-2l0.5,0.9L195,13.6z M202,9.6l-0.5-0.9l3.5-2l0.5,0.9
					L202,9.6z M209,5.5l-0.5-0.9l3.2-1.9l0.6,0l0,1l-0.3,0L209,5.5z M216.4,3.6l0-1l4-0.2l0,1L216.4,3.6z M224.5,3.2l0-1l4-0.2l0,1
					L224.5,3.2z M232.6,2.9l0-1l4-0.2l0,1L232.6,2.9z M240.7,2.5l0-1l4-0.2l0,1L240.7,2.5z M248.8,2.1l0-1l4-0.2l0,1L248.8,2.1z"/>
				
					<rect x="257.4" y="0.2" transform="matrix(4.691507e-002 0.9989 -0.9989 4.691507e-002 246.9907 -256.4668)" fill="#7F58A5" width="1" height="2"/>
			</g>
			<polygon fill="#7F58A5" points="85,75.9 84.9,75.9 29.1,70.5 29.2,69.5 84.9,74.9 115.5,67.3 115.6,67.3 142.9,69.5 174.3,45.4 
				209.6,45.8 260.2,7.6 260.8,8.4 210,46.8 174.6,46.5 143.2,70.6 115.6,68.3 			"/>
			<circle fill="#7F58A5" cx="84.9" cy="75.4" r="3.3"/>
			<circle fill="#7F58A5" cx="80.4" cy="50.7" r="3.3"/>
			<circle fill="#7F58A5" cx="136.5" cy="25" r="3.3"/>
			<circle fill="#7F58A5" cx="163.2" cy="30.4" r="3.3"/>
			<circle fill="#7F58A5" cx="211.9" cy="3.3" r="3.3"/>
			<circle fill="#7F58A5" cx="116.1" cy="67.8" r="3.3"/>
			<circle fill="#7F58A5" cx="143.1" cy="70" r="3.3"/>
			<circle fill="#7F58A5" cx="174.4" cy="46.1" r="3.3"/>
			<circle fill="#7F58A5" cx="209.8" cy="46.3" r="3.3"/>
			<polygon fill="#7F58A5" points="261.1,16.9 260.1,16.9 260.1,8.3 250.1,8.3 250.1,7.3 261.1,7.3 			"/>
		</g>
		<rect x="27.4" y="86.3" fill="#7F58A5" width="239.3" height="1"/>
		<polygon fill="#7F58A5" points="263.9,92.6 263.9,81.1 270.2,86.8 		"/>
		<path fill="#7F58A5" d="M347.3,142.3c-0.3,0-0.5-0.2-0.5-0.5v-37.1c0-0.3,0.2-0.5,0.5-0.5s0.5,0.2,0.5,0.5v37.1
			C347.8,142,347.6,142.3,347.3,142.3z"/>
		<path fill="#7F58A5" d="M314.7,178.3c-0.3,0-0.5-0.2-0.5-0.5v-3.5c0-9.3,7.5-16.8,16.8-16.8c8.7,0,15.8-7.1,15.8-15.8
			c0-0.3,0.2-0.5,0.5-0.5s0.5,0.2,0.5,0.5c0,9.3-7.5,16.8-16.8,16.8c-8.7,0-15.8,7.1-15.8,15.8v3.5
			C315.2,178.1,315,178.3,314.7,178.3z"/>
		<path fill="#7F58A5" d="M298.5,194.6h-12.9c-0.3,0-0.5-0.2-0.5-0.5s0.2-0.5,0.5-0.5h12.9c8.7,0,15.8-7.1,15.8-15.8
			c0-0.3,0.2-0.5,0.5-0.5s0.5,0.2,0.5,0.5C315.2,187.1,307.7,194.6,298.5,194.6z"/>
		<path fill="#7F58A5" d="M279.9,180.6h-238c-0.3,0-0.5-0.2-0.5-0.5s0.2-0.5,0.5-0.5h238c0.3,0,0.5,0.2,0.5,0.5
			S280.2,180.6,279.9,180.6z"/>
		<path fill="#7F58A5" d="M8.7,158.5c-0.1,0-0.3,0-0.4-0.1C3,153,0,145.8,0,138.2V97.6c0-0.3,0.2-0.5,0.5-0.5S1,97.4,1,97.6v40.5
			c0,7.4,2.9,14.3,8.1,19.5c0.2,0.2,0.2,0.5,0,0.7C9,158.5,8.8,158.5,8.7,158.5z"/>
		<path fill="#7F58A5" d="M0.5,84.1c-0.3,0-0.5-0.2-0.5-0.5V4.7c0-0.3,0.2-0.5,0.5-0.5h159.7c0.3,0,0.5,0.2,0.5,0.5
			s-0.2,0.5-0.5,0.5H1v78.3C1,83.8,0.8,84.1,0.5,84.1z"/>
		<path fill="#7F58A5" d="M347.5,50.3c-0.3,0-0.5-0.2-0.5-0.5V33.5c0-15.6-12.7-28.3-28.3-28.3h-37.4c-0.3,0-0.5-0.2-0.5-0.5
			s0.2-0.5,0.5-0.5h37.4c16.2,0,29.3,13.1,29.3,29.3v16.3C348,50,347.8,50.3,347.5,50.3z"/>
	</g>
</g>
<g>
</g>
<g>
</g>
<g>
</g>
<g>
</g>
<g>
</g>
<g>
</g>
<g>
</g>
<g>
</g>
<g>
</g>
<g>
</g>
<g>
</g>
<g>
</g>
<g>
</g>
<g>
</g>
<g>
</g>
</svg>
