<?xml version="1.0" encoding="utf-8"?>
<!-- Generator: Adobe Illustrator 18.0.0, SVG Export Plug-In . SVG Version: 6.00 Build 0)  -->
<!DOCTYPE svg PUBLIC "-//W3C//DTD SVG 1.1//EN" "http://www.w3.org/Graphics/SVG/1.1/DTD/svg11.dtd">
<svg version="1.1" id="Layer_1" xmlns="http://www.w3.org/2000/svg" xmlns:xlink="http://www.w3.org/1999/xlink" x="0px" y="0px"
	 viewBox="0 0 349.6 293.1" enable-background="new 0 0 349.6 293.1" xml:space="preserve">
<g>
	<g>
		<path fill="#F1F2F2" d="M163.4,72.2c29.1,29.6,71.5,28.5,95.1,7.4c0,0,24,54.9,5.8,85.8c-38.9-11.1-70.9,4.5-82.5,24.3L123.1,61.9
			L163.4,72.2z"/>
		<path fill="#F1F2F2" d="M317.6,168.7l-1.9,0.8c-27.2,12.1-59-0.1-71.2-27.2l0,0c-12.1-27.2,0.1-59,27.2-71.2l1.9-0.8
			c27.2-12.1,59,0.1,71.2,27.2l0,0C357,124.7,344.8,156.5,317.6,168.7z"/>
		<path fill="#F1F2F2" d="M136.7,231l-0.6,0.3c-48.8,21.8-105.9-0.1-127.7-48.9l0,0C-13.3,133.7,8.5,76.5,57.3,54.7l0.6-0.3
			c48.8-21.8,105.9,0.1,127.7,48.9l0,0C207.3,152.1,185.5,209.3,136.7,231z"/>
		<g>
			<path fill="#FFFFFF" d="M240.2,120.1c-6.2-0.3-32,2.1-41.5,5.5c-9.5,3.4-3.8,7.2,5.6,6C213.6,130.5,246.2,120.4,240.2,120.1z"/>
			
				<ellipse transform="matrix(0.9781 -0.2082 0.2082 0.9781 -18.8232 47.5835)" fill="#FFFFFF" cx="216.6" cy="113.2" rx="25.8" ry="1.3"/>
			
				<ellipse transform="matrix(0.9401 -0.341 0.341 0.9401 -36.4222 84.4231)" fill="#FFFFFF" cx="221.9" cy="145.8" rx="17.4" ry="0.6"/>
			
				<ellipse transform="matrix(0.9816 -0.1909 0.1909 0.9816 -22.307 44.2377)" fill="#FFFFFF" cx="218.5" cy="137.9" rx="25.8" ry="3.1"/>
			<path fill="#FFFFFF" d="M229.3,99.5c-29.4-0.4-41.5,4.5-37.6,6c3.9,1.5,36,0.5,42.4-2.3C240.4,100.5,229.3,99.5,229.3,99.5z"/>
			<path fill="#FFFFFF" d="M234.7,147c-27.9,9.3-37.8,17.9-33.6,18c4.2,0.1,34.2-11.3,39.3-16C245.5,144.3,234.7,147,234.7,147z"/>
		</g>
	</g>
	<g>
		<path fill="#939598" d="M103.5,198L103.5,198c-5.6,0-10.1-4.5-10.1-10.1v0c0-5.6,4.5-10.1,10.1-10.1h0c5.6,0,10.1,4.5,10.1,10.1v0
			C113.6,193.5,109.1,198,103.5,198z"/>
		<g>
			<path fill="#939598" d="M118.9,190.4c0.3,1,0.9,1.6,1.4,1.6c0.2,0,0.2-0.2,0.3-0.9c0.1,0.1,0.3,0.2,0.4,0.2
				c-0.1,0.9-0.3,1.1-0.7,1.1c-0.8,0-1.5-0.8-1.8-2h-1.8v1.5l1.4-0.3c0,0.1,0,0.3,0,0.4c-1.6,0.4-1.9,0.5-2,0.6
				c0-0.1-0.1-0.3-0.2-0.4c0.1-0.1,0.3-0.2,0.3-0.4v-4.4h4.2v1.7h-1.8c0,0.3,0.1,0.6,0.1,0.9h2.1v0.4H118.9z M116.7,187.8v0.9h3.3
				v-0.9H116.7z M118.4,190c-0.1-0.3-0.1-0.6-0.1-0.9h-1.6v0.9H118.4z"/>
			<path fill="#939598" d="M126.9,191.9v0.4h-5.3v-0.4h2.4v-1.5h-1.8V190h1.8v-1.3h-1.4c-0.2,0.4-0.4,0.7-0.6,1
				c-0.1-0.1-0.3-0.2-0.4-0.3c0.5-0.5,0.9-1.4,1.1-2.2l0.4,0.1c-0.1,0.3-0.2,0.7-0.3,1h1.2v-1.2h0.5v1.2h2.1v0.4h-2.1v1.3h1.9v0.4
				h-1.9v1.5H126.9z"/>
			<path fill="#939598" d="M128.6,189c-0.1,0.7-0.4,1.5-0.7,2l-0.4-0.2c0.3-0.5,0.6-1.3,0.7-2L128.6,189z M131.1,192.1
				c0.3,0,0.4-0.2,0.4-1.1c0.1,0.1,0.3,0.2,0.4,0.2c-0.1,1.1-0.2,1.4-0.9,1.4H130c-0.6,0-0.8-0.2-0.8-0.8v-0.3
				c-0.4,0.3-0.9,0.6-1.3,0.8c-0.1-0.1-0.2-0.3-0.3-0.3c0.6-0.3,1.1-0.6,1.6-1v-2.4h0.5v2c1-0.9,1.9-2,2.4-3.1l0.4,0.2
				c-0.7,1.3-1.6,2.5-2.9,3.5v0.7c0,0.3,0.1,0.3,0.4,0.3H131.1z M130.6,188.6c-0.3-0.3-1-0.8-1.5-1.1l0.3-0.3
				c0.5,0.3,1.2,0.8,1.5,1.1L130.6,188.6z M132.1,189.1c0.4,0.6,0.8,1.4,1,1.9l-0.4,0.2c-0.2-0.5-0.6-1.3-1-1.9L132.1,189.1z"/>
			<path fill="#939598" d="M136.5,190.3c0,0.1-0.1,0.3-0.2,0.4h2.2v1.4c0,0.2,0,0.3-0.2,0.4c-0.1,0.1-0.4,0.1-0.7,0.1
				c0-0.1-0.1-0.3-0.1-0.4c0.2,0,0.4,0,0.5,0s0.1,0,0.1-0.1v-1h-0.9v1.4h-0.4v-1.4h-0.9v1.4h-0.4v-1.4h-0.9v1.4h-0.4v-1.8h1.7
				c0-0.1,0.1-0.3,0.1-0.4h-2.3V190h5.2v0.4H136.5z M134.2,189.4h-0.4v-1.3h2.3v-0.4h-2v-0.3h4.5v0.3h-2.1v0.4h2.3v1.3h-0.4v-0.9
				h-1.9v1.3H136v-1.3h-1.9V189.4z M134.3,189.5c0.4,0,0.9-0.1,1.4-0.2l0,0.3c-0.5,0.1-0.9,0.2-1.3,0.3L134.3,189.5z M134.6,188.6
				c0.4,0.1,0.9,0.2,1.2,0.3l-0.1,0.3c-0.3-0.1-0.8-0.3-1.2-0.3L134.6,188.6z M138.1,189.9c-0.3-0.1-0.9-0.3-1.4-0.3l0.1-0.3
				c0.5,0,1.1,0.2,1.4,0.3L138.1,189.9z M138.1,188.8c-0.3,0.1-0.8,0.3-1.2,0.3l-0.2-0.2c0.3-0.1,0.8-0.3,1.1-0.4L138.1,188.8z"/>
			<path fill="#939598" d="M139.8,190h2.1v2.6h-0.4v-0.3h-1.3v0.3h-0.4V190z M140.2,190.4v1.4h1.3v-1.4H140.2z M143.9,189.3h-3.3v-2
				h3.3V189.3z M143.5,187.8h-2.4v1.1h2.4V187.8z M144.8,190v2.6h-0.4v-0.3H143v0.3h-0.4V190H144.8z M144.4,191.8v-1.4H143v1.4
				H144.4z"/>
		</g>
	</g>
	<g>
		<path fill="#939598" d="M46,206.7L46,206.7c-4.4,0-7.9-3.6-7.9-7.9v0c0-4.4,3.6-7.9,7.9-7.9h0c4.4,0,7.9,3.6,7.9,7.9v0
			C54,203.2,50.4,206.7,46,206.7z"/>
		<g>
			<path fill="#939598" d="M56.8,198.7c-0.1,0.5-0.3,1.1-0.5,1.5c0.1,0.1,0.3,0.2,0.5,0.3c0.4,0.3,1,0.3,1.7,0.3
				c0.8,0,1.7-0.1,2.4-0.1c-0.1,0.1-0.1,0.3-0.1,0.5c-0.4,0-1.6,0.1-2.3,0.1c-0.8,0-1.3-0.1-1.8-0.3c-0.2-0.1-0.5-0.3-0.6-0.3
				c-0.1,0-0.3,0.4-0.5,0.8l-0.3-0.4c0.2-0.3,0.4-0.5,0.6-0.7c0.2-0.3,0.3-0.8,0.4-1.2h-0.8c0.2-0.4,0.4-0.9,0.5-1.3h-0.7v-0.4h1.2
				c-0.1,0.4-0.3,0.9-0.5,1.3h0.4l0.1,0L56.8,198.7z M56,196.9c-0.1-0.3-0.2-0.7-0.3-1l0.4-0.1c0.1,0.3,0.2,0.7,0.3,1L56,196.9z
				 M57.7,200.4h-0.4v-3.1H59c-0.4-0.2-0.8-0.4-1.1-0.5l0.3-0.2c0.3,0.1,0.6,0.2,0.8,0.3c0.3-0.1,0.6-0.3,0.8-0.5h-2.5v-0.4h2.9
				l0.1,0l0.3,0.2c-0.3,0.3-0.8,0.6-1.2,0.8c0.2,0.1,0.3,0.2,0.5,0.2h0.8v2.6c0,0.2,0,0.3-0.2,0.4c-0.2,0.1-0.4,0.1-0.8,0.1
				c0-0.1-0.1-0.3-0.1-0.4c0.3,0,0.5,0,0.6,0c0.1,0,0.1,0,0.1-0.1v-0.5h-1v1h-0.4v-1h-1V200.4z M57.7,197.7v0.5h1v-0.5H57.7z
				 M58.7,199.1v-0.5h-1v0.5H58.7z M60.1,197.7h-1v0.5h1V197.7z M60.1,199.1v-0.5h-1v0.5H60.1z"/>
			<path fill="#939598" d="M63.5,197.2h-2.2v-0.4h2.2V197.2z M63.3,200.9H62v0.3h-0.4v-2h1.7V200.9z M61.6,198v-0.4h1.7v0.4H61.6z
				 M61.6,198.4h1.7v0.4h-1.7V198.4z M62,199.6v1h1v-1H62z M62.4,196.8c-0.1-0.2-0.3-0.6-0.4-0.8l0.3-0.2c0.2,0.2,0.3,0.6,0.4,0.8
				L62.4,196.8z M66.2,196.2c0,2.4,0,4.5,0.3,4.6c0,0,0.1-0.4,0.1-0.8c0.1,0.1,0.2,0.3,0.3,0.3c-0.1,0.8-0.3,1-0.5,0.9
				c-0.6-0.2-0.6-2.1-0.6-4.6h-1v1.8h0.8v0.4h-0.8v2.5h-0.4v-2.5h-0.8v-0.4h0.8v-1.8h-0.7v-0.4H66.2z"/>
			<path fill="#939598" d="M69.5,200.8c0,0.2,0,0.4-0.2,0.4c-0.1,0.1-0.4,0.1-0.8,0.1c0-0.1-0.1-0.3-0.1-0.4c0.3,0,0.5,0,0.6,0
				c0.1,0,0.1,0,0.1-0.1v-1.5h-0.9c-0.1,0.7-0.2,1.5-0.4,2c-0.1-0.1-0.3-0.2-0.4-0.2c0.4-0.8,0.4-2,0.4-2.9V196h1.7V200.8z
				 M69.1,198.9v-1h-0.9v0.3c0,0.2,0,0.4,0,0.7H69.1z M68.2,196.5v1h0.9v-1H68.2z M72.7,198.2c-0.2,0.8-0.4,1.5-0.8,2
				c0.3,0.3,0.6,0.6,1,0.8c-0.1,0.1-0.2,0.2-0.3,0.3c-0.4-0.2-0.7-0.5-1-0.8c-0.3,0.3-0.6,0.6-0.9,0.8c-0.1-0.1-0.2-0.3-0.3-0.3
				c0.3-0.2,0.6-0.4,0.9-0.8c-0.3-0.5-0.6-1.1-0.8-1.7h-0.1v2.8H70v-5.2h2.5v1.2c0,0.2-0.1,0.3-0.2,0.4c-0.2,0.1-0.5,0.1-0.9,0.1
				c0-0.1-0.1-0.3-0.1-0.4c0.4,0,0.7,0,0.8,0c0.1,0,0.1,0,0.1-0.1v-0.7h-1.7v1.6h1.9l0.1,0L72.7,198.2z M71,198.5
				c0.2,0.5,0.4,0.9,0.7,1.3c0.3-0.4,0.5-0.8,0.6-1.3H71z"/>
			<path fill="#939598" d="M75.1,199.3c0.1-0.2,0.2-0.6,0.3-1h-0.6v2.5c0,0.2,0,0.3-0.2,0.4c-0.2,0.1-0.4,0.1-0.7,0.1
				c0-0.1-0.1-0.3-0.1-0.4c0.3,0,0.5,0,0.6,0c0.1,0,0.1,0,0.1-0.1v-1.9c-0.2,0.6-0.5,1.1-0.9,1.5c0-0.1-0.2-0.3-0.2-0.4
				c0.4-0.4,0.7-1,1-1.6h-0.9v-0.4H75c-0.3-0.3-0.9-0.6-1.3-0.8l0.3-0.3c0.2,0.1,0.4,0.2,0.6,0.3c0.2-0.2,0.4-0.4,0.6-0.6h-1.7v-0.4
				h2l0.1,0l0.3,0.2c-0.2,0.4-0.6,0.7-1,1c0.2,0.1,0.4,0.2,0.5,0.4l-0.2,0.3h0.4l0.1,0l0.3,0.1c0,0.1-0.1,0.2-0.1,0.3
				c0.4-0.1,0.8-0.3,1.1-0.5c-0.2-0.2-0.5-0.5-0.6-0.7c-0.1,0.2-0.3,0.3-0.4,0.4c-0.1-0.1-0.3-0.2-0.4-0.3c0.5-0.3,0.9-0.9,1.1-1.5
				l0.4,0.1c-0.1,0.2-0.2,0.3-0.3,0.5h2v0.4h-0.5c-0.2,0.4-0.4,0.7-0.7,1c0.4,0.2,0.8,0.4,1.3,0.5c-0.1,0.1-0.2,0.3-0.3,0.4
				c-0.5-0.1-1-0.4-1.4-0.6c-0.4,0.3-0.8,0.5-1.3,0.6c0-0.1-0.1-0.1-0.2-0.2c-0.1,0.3-0.2,0.7-0.4,0.9L75.1,199.3z M78.6,199.2
				c0,0,0,0.1,0,0.2c-0.1,1.1-0.2,1.6-0.4,1.7c-0.1,0.1-0.2,0.1-0.4,0.2c-0.1,0-0.4,0-0.7,0c0-0.1-0.1-0.3-0.1-0.4
				c0.3,0,0.5,0,0.6,0c0.1,0,0.1,0,0.2-0.1c0.1-0.1,0.2-0.4,0.3-1.3h-1c-0.2,0.8-0.6,1.4-1.6,1.8c-0.1-0.1-0.2-0.3-0.3-0.3
				c0.8-0.3,1.2-0.8,1.4-1.4h-0.9v-0.4h1c0-0.2,0.1-0.4,0.1-0.6h0.4c0,0.2,0,0.4-0.1,0.6H78.6z M76.6,196.8c0.2,0.3,0.4,0.6,0.7,0.8
				c0.2-0.2,0.4-0.5,0.6-0.8H76.6z"/>
		</g>
	</g>
	<g>
		<path fill="#73B564" d="M86.2,169.9L86.2,169.9c-5.8,0-10.6-4.7-10.6-10.6v0c0-5.8,4.7-10.6,10.6-10.6h0c5.8,0,10.6,4.7,10.6,10.6
			v0C96.8,165.2,92,169.9,86.2,169.9z"/>
		<g>
			<path fill="#FFFFFF" d="M82.9,161.1c0,0.2,0,0.3-0.2,0.4c-0.1,0.1-0.4,0.1-0.8,0.1c0-0.1-0.1-0.3-0.1-0.4c0.3,0,0.5,0,0.6,0
				c0.1,0,0.1,0,0.1-0.1v-0.9c-0.4,0.2-0.8,0.5-1.1,0.7l-0.2-0.4c-0.1,0.4-0.2,0.8-0.4,1.1c-0.1-0.1-0.2-0.3-0.3-0.3
				c0.3-0.5,0.4-1.1,0.4-1.6v-1.5h2.1V161.1z M82.5,156.5c0.3,0.4,0.6,1,0.8,1.3l-0.4,0.2c0-0.1-0.1-0.3-0.2-0.4
				c-1.6,0.1-1.8,0.2-2,0.2c0-0.1-0.1-0.3-0.1-0.4c0.1,0,0.2-0.1,0.3-0.2c0.1-0.1,0.5-0.6,0.8-1.1l0.4,0.1c-0.3,0.4-0.5,0.8-0.8,1.1
				l1.2-0.1c-0.1-0.2-0.2-0.4-0.4-0.6L82.5,156.5z M81.3,159.7c0,0.2,0,0.5,0,0.8c0.3-0.1,0.8-0.4,1.3-0.6v-1.2h-1.2V159.7z
				 M81.5,159c0.3,0.2,0.7,0.5,1,0.6l-0.2,0.2c-0.2-0.2-0.6-0.4-0.9-0.6L81.5,159z M84.1,158.7c-0.5,0-0.7-0.2-0.7-0.7v-1.9h0.4v0.8
				h1.6v0.4h-1.6v0.7c0,0.2,0,0.3,0.2,0.3h1.1c0.1,0,0.4,0,0.5,0c0,0.1,0,0.3,0,0.4c-0.1,0-0.3,0-0.5,0H84.1z M85.2,161.1
				c0.3,0,0.3-0.1,0.3-0.8c0.1,0.1,0.3,0.1,0.4,0.2c-0.1,0.8-0.2,1-0.7,1h-1.1c-0.6,0-0.7-0.1-0.7-0.6v-2h0.4v0.7h1.7v0.4h-1.7v0.9
				c0,0.2,0.1,0.2,0.3,0.2H85.2z"/>
			<path fill="#FFFFFF" d="M87.4,158.7c-0.2-0.2-0.7-0.5-1-0.6l0.3-0.3c0.3,0.2,0.8,0.4,1,0.6L87.4,158.7z M87.8,159.6
				c-0.2,0.6-0.6,1.4-0.9,1.9l-0.4-0.2c0.3-0.5,0.6-1.2,0.9-1.9L87.8,159.6z M87.7,157.2c-0.2-0.2-0.7-0.5-1-0.7l0.3-0.3
				c0.3,0.2,0.8,0.5,1,0.6L87.7,157.2z M88.6,158c0,1-0.1,2.5-0.8,3.5c-0.1-0.1-0.3-0.2-0.4-0.2c0.7-1,0.7-2.3,0.7-3.3v-1.6h3.6v0.4
				h-3.2V158z M89.6,160c-0.2,0.4-0.5,0.9-0.8,1.2c-0.1-0.1-0.3-0.2-0.4-0.2c0.3-0.3,0.5-0.7,0.7-1.1L89.6,160z M90.5,159.6v1.6
				c0,0.2,0,0.3-0.2,0.4c-0.2,0.1-0.4,0.1-0.8,0.1c0-0.1-0.1-0.3-0.1-0.4c0.3,0,0.6,0,0.6,0c0.1,0,0.1,0,0.1-0.1v-1.6H89v-2.1h0.9
				c0.1-0.2,0.1-0.4,0.2-0.6l0.5,0.1c-0.1,0.2-0.2,0.3-0.2,0.5h1.3v2.1H90.5z M89.4,158.4h1.8v-0.5h-1.8V158.4z M89.4,159.2h1.8
				v-0.5h-1.8V159.2z M91.3,159.8c0.2,0.4,0.5,0.9,0.7,1.1l-0.4,0.2c-0.1-0.3-0.4-0.8-0.7-1.2L91.3,159.8z"/>
		</g>
	</g>
	<g>
		<path fill="#73B564" d="M80.1,192.1L80.1,192.1c-4.6,0-8.4-3.8-8.4-8.4v0c0-4.6,3.8-8.4,8.4-8.4h0c4.6,0,8.4,3.8,8.4,8.4v0
			C88.5,188.3,84.8,192.1,80.1,192.1z"/>
		<g>
			<path fill="#FFFFFF" d="M79.8,185.2v0.4h-5.3v-0.4h2.4v-3.4h-2.1v-0.5h4.7v0.5h-2.2v3.4H79.8z"/>
			<path fill="#FFFFFF" d="M82.6,185.1c-0.4,0.3-1.2,0.6-1.8,0.8c-0.1-0.1-0.2-0.3-0.3-0.3c0.6-0.1,1.4-0.3,1.8-0.6L82.6,185.1z
				 M85.7,184.3v0.4h-2.4v1.4h-0.4v-1.4h-2.4v-0.4h2.4v-0.4h-1.8v-0.3h1.8v-0.4h-2.1v-0.4h1.3c-0.1-0.2-0.2-0.4-0.3-0.6l0.3-0.1
				h-1.5v-0.4h1c-0.1-0.2-0.3-0.6-0.5-0.9l0.4-0.1c0.2,0.3,0.4,0.6,0.5,0.9l-0.3,0.1h0.7v-1.1h0.4v1.1h0.7v-1.1h0.4v1.1h0.7
				l-0.2-0.1c0.2-0.2,0.4-0.6,0.5-0.9l0.5,0.1c-0.2,0.3-0.4,0.6-0.5,0.9h0.9v0.4h-1.6l0.4,0.1c-0.1,0.2-0.3,0.4-0.4,0.6h1.4v0.4
				h-2.2v0.4h1.9v0.3h-1.9v0.4H85.7z M82.2,182.1c0.1,0.2,0.3,0.4,0.3,0.6l-0.2,0.1h1.7l-0.2-0.1c0.1-0.2,0.3-0.4,0.4-0.6H82.2z
				 M84,185c0.6,0.2,1.3,0.5,1.7,0.7l-0.3,0.3c-0.4-0.2-1.2-0.5-1.7-0.7L84,185z"/>
		</g>
	</g>
	<g>
		<path fill="#73B564" d="M56.5,176.2L56.5,176.2c-6.2,0-11.2-5-11.2-11.2v0c0-6.2,5-11.2,11.2-11.2h0c6.2,0,11.2,5,11.2,11.2v0
			C67.7,171.2,62.7,176.2,56.5,176.2z"/>
		<g>
			<path fill="#FFFFFF" d="M53.1,162.6h-4.4v1.3c0,1-0.1,2.4-0.6,3.3c-0.1-0.1-0.3-0.2-0.4-0.2c0.5-0.9,0.6-2.2,0.6-3.1v-1.7h4.8
				V162.6z M50.2,165.8c-0.3,0.4-0.7,0.9-1.1,1.3c-0.1-0.1-0.3-0.2-0.4-0.3c0.4-0.3,0.7-0.7,1-1.2L50.2,165.8z M51.2,165.4v1.5
				c0,0.2,0,0.3-0.2,0.4c-0.2,0.1-0.5,0.1-0.9,0.1c0-0.1-0.1-0.3-0.1-0.4c0.3,0,0.7,0,0.7,0c0.1,0,0.1,0,0.1-0.1v-1.5h-1.5v-2.2h1.2
				c0.1-0.2,0.2-0.4,0.2-0.6l0.5,0.1c-0.1,0.2-0.2,0.3-0.3,0.5h1.7v2.2H51.2z M49.7,164.1h2.5v-0.6h-2.5V164.1z M49.7,165h2.5v-0.6
				h-2.5V165z M52,165.7c0.4,0.4,0.8,0.9,1.1,1.2l-0.4,0.2c-0.2-0.3-0.7-0.9-1.1-1.2L52,165.7z"/>
			<path fill="#FFFFFF" d="M55.3,165.2v2.2h-0.4v-2.1c-0.4,0.1-0.7,0.2-1,0.3l-0.1-0.4c0.3-0.1,0.7-0.2,1.1-0.3v-1.3h-0.5
				c-0.1,0.3-0.2,0.6-0.3,0.9c-0.1-0.1-0.2-0.2-0.3-0.2c0.2-0.5,0.3-1.3,0.4-2l0.4,0.1c0,0.3-0.1,0.5-0.1,0.8h0.5v-1.2h0.4v1.2h0.6
				v0.4h-0.6v1.2l0.7-0.2l0.1,0.4L55.3,165.2z M59.2,162.9c0,0,0,0.2,0,0.2c-0.1,2.7-0.3,3.6-0.5,3.9c-0.1,0.2-0.2,0.2-0.4,0.2
				c-0.2,0-0.4,0-0.7,0c0-0.1,0-0.3-0.1-0.4c0.3,0,0.5,0,0.6,0c0.1,0,0.2,0,0.2-0.1c0.2-0.2,0.3-1.1,0.4-3.5h-0.3
				c-0.3,1.6-1,3.2-2,4c-0.1-0.1-0.2-0.2-0.4-0.3c1-0.7,1.6-2.2,1.9-3.7h-0.5c-0.3,1-0.8,2.1-1.5,2.7c-0.1-0.1-0.2-0.2-0.4-0.3
				c0.6-0.5,1.2-1.5,1.4-2.5h-0.5c-0.2,0.4-0.4,0.8-0.7,1.1c-0.1-0.1-0.3-0.2-0.3-0.3c0.5-0.5,0.9-1.4,1-2.3l0.4,0.1
				c-0.1,0.3-0.2,0.6-0.3,0.9h1.9v0L59.2,162.9z"/>
			<path fill="#FFFFFF" d="M60.7,164.7c-0.1,0.7-0.4,1.5-0.7,1.9c0-0.1-0.1-0.4-0.2-0.5c0.3-0.3,0.5-1,0.6-1.5L60.7,164.7z
				 M61.2,164.3v3.1h-0.4v-3.1h-1v-0.4h1v-2h0.4v2h1v0.4H61.2z M60.2,163.6c0-0.4-0.2-0.9-0.3-1.3l0.3-0.1c0.2,0.4,0.3,1,0.4,1.3
				L60.2,163.6z M61.5,164.6c0.1,0.2,0.5,1,0.6,1.2l-0.3,0.3c-0.1-0.3-0.4-1.1-0.6-1.3L61.5,164.6z M62.2,162.3
				c-0.1,0.4-0.3,1-0.5,1.3l-0.3-0.1c0.1-0.4,0.3-0.9,0.4-1.3L62.2,162.3z M64.5,165.6v1.7h-0.4v-1.6l-1.9,0.3l-0.1-0.4l1.9-0.3
				v-3.4h0.4v3.4l0.7-0.1l0.1,0.4L64.5,165.6z M63.3,164.8c-0.2-0.2-0.6-0.5-1-0.7l0.2-0.3c0.4,0.2,0.8,0.5,1,0.7L63.3,164.8z
				 M63.5,163.4c-0.2-0.2-0.6-0.6-0.9-0.8l0.2-0.3c0.3,0.2,0.7,0.5,0.9,0.7L63.5,163.4z"/>
		</g>
	</g>
	<g>
		<path fill="#939598" d="M83.8,212.2L83.8,212.2c-2.5,0-4.5-2-4.5-4.5v0c0-2.5,2-4.5,4.5-4.5h0c2.5,0,4.5,2,4.5,4.5v0
			C88.3,210.2,86.3,212.2,83.8,212.2z"/>
		<g>
			<path fill="#939598" d="M92.5,208.8c0,0.2-0.1,0.3-0.1,0.5h2.1c0,0,0,0.1,0,0.2c-0.1,0.8-0.2,1.2-0.3,1.3
				c-0.1,0.1-0.2,0.1-0.4,0.1c-0.1,0-0.4,0-0.8,0c0-0.1-0.1-0.3-0.1-0.4c0.3,0,0.6,0,0.7,0c0.1,0,0.2,0,0.2,0
				c0.1-0.1,0.2-0.3,0.2-0.9h-1.7c-0.2,0.6-0.7,1-1.6,1.3c0-0.1-0.2-0.3-0.2-0.3c1.2-0.3,1.5-0.9,1.6-1.8h-1.3
				c-0.1,0.7-0.3,1.6-0.7,2.2c-0.1-0.1-0.2-0.3-0.3-0.3c0.6-0.8,0.7-2,0.7-2.9v-1.9h0c1.3-0.1,2.9-0.2,3.8-0.4l0.3,0.3
				c-1,0.2-2.4,0.4-3.7,0.4v0.3h3.9v1.3h-3.9c0,0.2,0,0.4,0,0.6h1.9c-0.1-0.1-0.2-0.3-0.3-0.4l0.4-0.1c0.1,0.2,0.3,0.4,0.3,0.6h1.9
				v0.4H92.5z M90.8,206.9v0.6h3.5v-0.6H90.8z"/>
			<path fill="#939598" d="M96.9,208.9c0.2-0.1,0.4-0.2,0.7-0.3l0.1,0.4c-0.6,0.3-1.3,0.6-1.8,0.8l-0.2-0.4c0.2-0.1,0.5-0.2,0.8-0.3
				v-1.8h-0.7v-0.4h0.7v-1.4h0.4v1.4h0.6v0.4h-0.6V208.9z M100.4,210.3c0.3,0,0.4-0.2,0.4-0.9c0.1,0.1,0.3,0.1,0.4,0.2
				c-0.1,0.8-0.2,1.1-0.8,1.1h-1.5c-0.7,0-0.9-0.2-0.9-0.8v-1.9l-0.5,0.2l-0.2-0.4l0.6-0.3V206h0.4v1.4l0.8-0.3v-1.7h0.4v1.5
				l0.9-0.4l0.3,0.1l0,0.1c-0.1,0.8-0.2,1.9-0.3,2.6l-0.4-0.1c0.1-0.5,0.2-1.4,0.2-2.2l-0.8,0.3v2.2h-0.4v-2l-0.8,0.3v2.1
				c0,0.3,0.1,0.4,0.5,0.4H100.4z"/>
			<path fill="#939598" d="M102.6,207.8v0.9c0,0.7-0.1,1.6-0.6,2.2c-0.1-0.1-0.2-0.2-0.3-0.3c0.5-0.6,0.5-1.3,0.5-1.9v-1.3h0.8
				c-0.1-0.1-0.2-0.2-0.2-0.2c0.5-0.1,1-0.2,1.5-0.4c-0.5-0.1-0.9-0.3-1.3-0.3l0.3-0.2h-1V206h2.2c-0.1-0.1-0.2-0.3-0.3-0.4l0.3-0.2
				c0.2,0.2,0.3,0.4,0.5,0.6h2v0.4H106l0.2,0.1c-0.3,0.1-0.6,0.3-0.9,0.4c0.4,0.1,0.8,0.3,1.1,0.4l-0.2,0.2h0.9v0.4H102.6z
				 M107.2,210.3v0.4h-4.4v-0.4h2v-0.6h-1.4v-0.4h1.4v-0.5h-1.3c-0.2,0.3-0.4,0.5-0.6,0.7c0-0.1-0.2-0.3-0.2-0.4
				c0.3-0.3,0.6-0.8,0.8-1.3l0.4,0.1c-0.1,0.1-0.1,0.3-0.2,0.4h1v-0.5h0.4v0.5h1.6v0.4h-1.6v0.5h1.5v0.4h-1.5v0.6H107.2z
				 M106.1,207.5c-0.3-0.1-0.8-0.3-1.3-0.4c-0.5,0.2-1.1,0.3-1.6,0.4H106.1z M103.3,206.3c0.5,0.1,1,0.3,1.5,0.4
				c0.4-0.1,0.7-0.3,1-0.4H103.3z"/>
		</g>
	</g>
	<g>
		<path fill="#939598" d="M116.4,205.9L116.4,205.9c-2.2,0-4-1.8-4-4l0,0c0-2.2,1.8-4,4-4h0c2.2,0,4,1.8,4,4l0,0
			C120.4,204.1,118.6,205.9,116.4,205.9z"/>
		<g>
			<path fill="#939598" d="M123.8,199.1c-0.4,1-1.1,1.9-1.8,2.5c-0.1-0.1-0.3-0.3-0.4-0.4c0.7-0.6,1.3-1.4,1.7-2.3L123.8,199.1z
				 M125.5,201.9c0.5,0.6,1.1,1.5,1.3,2l-0.4,0.2c-0.1-0.2-0.2-0.4-0.3-0.6c-3.1,0.2-3.4,0.2-3.7,0.3c0-0.1-0.1-0.3-0.2-0.5
				c0.2,0,0.3-0.2,0.6-0.5c0.2-0.3,1-1.3,1.5-2.4l0.5,0.2c-0.5,0.9-1.1,1.9-1.8,2.6l2.8-0.2c-0.2-0.4-0.5-0.8-0.7-1.1L125.5,201.9z
				 M125.6,198.9c0.3,0.9,0.9,1.8,1.6,2.3c-0.1,0.1-0.3,0.3-0.3,0.4c-0.7-0.5-1.3-1.4-1.6-2.3h-1.1v-0.4H125.6z"/>
			<path fill="#939598" d="M132.7,203.6c0,0.3-0.1,0.4-0.3,0.5c-0.2,0.1-0.6,0.1-1.1,0.1c0-0.1-0.1-0.3-0.1-0.4c0.4,0,0.8,0,0.9,0
				c0.1,0,0.2,0,0.2-0.2v-1.2h-1.6v1.8h-0.4v-1.8h-1.5c-0.1,0.7-0.3,1.3-0.7,1.9c-0.1-0.1-0.2-0.2-0.3-0.3c0.7-0.7,0.7-1.8,0.7-2.6
				v-2.2h4.4V203.6z M130.2,202v-1h-1.4v0.4c0,0.2,0,0.4,0,0.6H130.2z M128.8,199.6v1h1.4v-1H128.8z M132.2,199.6h-1.6v1h1.6V199.6z
				 M132.2,202v-1h-1.6v1H132.2z"/>
			<path fill="#939598" d="M139.1,202.5h-0.6v1.1H138v-0.3h-1.4v0.4c0,0.3-0.1,0.4-0.3,0.4c-0.2,0.1-0.5,0.1-1,0.1
				c0-0.1-0.1-0.3-0.2-0.4c0.4,0,0.7,0,0.8,0c0.1,0,0.1,0,0.1-0.1v-0.4h-1.9V203h1.9v-0.4h-2.5v-0.4h2.5v-0.4h-1.9v-0.3h1.9V201
				h-1.7v-1.1h1.7v-0.3h-2.3v-0.4h2.3v-0.5h0.4v0.5h2.4v0.4h-2.4v0.3h1.8v1.1h-1.8v0.4h1.9v0.7h0.6V202.5z M136.1,200.7v-0.4h-1.3
				v0.4H136.1z M136.6,200.3v0.4h1.3v-0.4H136.6z M136.6,202.2h1.4v-0.4h-1.4V202.2z M138,202.5h-1.4v0.4h1.4V202.5z"/>
			<path fill="#939598" d="M141.9,203.3c-0.4,0.3-1.2,0.6-1.8,0.8c-0.1-0.1-0.2-0.3-0.3-0.3c0.6-0.1,1.4-0.3,1.8-0.6L141.9,203.3z
				 M145,202.4v0.4h-2.4v1.4h-0.4v-1.4h-2.4v-0.4h2.4V202h-1.8v-0.3h1.8v-0.4H140v-0.4h1.3c-0.1-0.2-0.2-0.4-0.3-0.6l0.3-0.1h-1.5
				v-0.4h1c-0.1-0.2-0.3-0.6-0.5-0.9l0.4-0.1c0.2,0.3,0.4,0.6,0.5,0.9l-0.3,0.1h0.7v-1.1h0.4v1.1h0.7v-1.1h0.4v1.1h0.7l-0.2-0.1
				c0.2-0.2,0.4-0.6,0.5-0.9l0.5,0.1c-0.2,0.3-0.4,0.6-0.5,0.9h0.9v0.4h-1.6l0.4,0.1c-0.1,0.2-0.3,0.4-0.4,0.6h1.4v0.4h-2.2v0.4h1.9
				v0.3h-1.9v0.4H145z M141.5,200.2c0.1,0.2,0.3,0.4,0.3,0.6l-0.2,0.1h1.7l-0.2-0.1c0.1-0.2,0.3-0.4,0.4-0.6H141.5z M143.2,203.1
				c0.6,0.2,1.3,0.5,1.7,0.7l-0.3,0.3c-0.4-0.2-1.2-0.5-1.7-0.7L143.2,203.1z"/>
		</g>
	</g>
	<g>
		<path fill="#939598" d="M109.6,220.6L109.6,220.6c-1.2,0-2.1-1-2.1-2.1v0c0-1.2,1-2.1,2.1-2.1h0c1.2,0,2.1,1,2.1,2.1v0
			C111.8,219.6,110.8,220.6,109.6,220.6z"/>
		<g>
			<path fill="#939598" d="M115.3,215.1c-0.1,0.4-0.3,0.8-0.4,1.2v4.1h-0.4v-3.4c-0.1,0.2-0.3,0.5-0.4,0.7c0-0.1-0.1-0.3-0.2-0.5
				c0.5-0.6,0.9-1.4,1.1-2.3L115.3,215.1z M116.6,217.2c-0.1,0.9-0.2,1.5-0.4,2.1c0.6,0.6,1.3,0.7,2.2,0.7c0.2,0,0.8,0,1,0
				c-0.1,0.1-0.1,0.3-0.1,0.4h-0.9c-0.9,0-1.7-0.1-2.3-0.7c-0.2,0.4-0.4,0.6-0.7,0.8c-0.1-0.1-0.2-0.2-0.3-0.3
				c0.3-0.2,0.5-0.5,0.7-0.9c-0.2-0.3-0.4-0.7-0.5-1.1l0.3-0.1c0.1,0.3,0.2,0.6,0.4,0.9c0.1-0.4,0.2-0.9,0.3-1.4h-0.9
				c0.2-0.5,0.5-1.1,0.7-1.7h-0.7v-0.4h1.2c-0.2,0.5-0.5,1.2-0.7,1.7h0.5l0,0L116.6,217.2z M117.6,216.6h-1.1v-0.3h1.1v-0.5h-0.8
				v-0.3h0.8V215h0.4v0.5h0.9v0.8h0.4v0.3h-0.4v0.8H118v0.4h1v0.4h-1v0.5h1.2v0.4H118v0.7h-0.4v-0.7h-1v-0.4h1v-0.5h-0.9v-0.4h0.9
				v-0.4h-0.8v-0.3h0.8V216.6z M118,216.3h0.6v-0.5H118V216.3z M118.6,216.6H118v0.5h0.6V216.6z"/>
			<path fill="#939598" d="M123.2,218.9c0.1,0.1,0.3,0.1,0.4,0.2c0.3-0.2,0.7-0.5,1-0.7l0.3,0.3c-0.3,0.2-0.6,0.5-1,0.6
				c0.5,0.2,0.9,0.4,1.2,0.6l-0.2,0.3c-0.4-0.2-1.2-0.6-1.8-0.9v0.6c0,0.3-0.1,0.4-0.3,0.5c-0.2,0.1-0.5,0.1-1,0.1
				c0-0.1-0.1-0.3-0.1-0.4c0.4,0,0.7,0,0.8,0c0.1,0,0.1,0,0.1-0.1v-0.6c-0.6,0.3-1.3,0.6-1.8,0.8l-0.2-0.4c0.5-0.2,1.2-0.5,2-0.8
				v-0.7h-1.6v-0.3h1.6v-0.5h-1.8v-0.3h1.8v-0.5h-1.5v-0.3h1.5v-0.5h-2v1.4c0,0.9-0.1,2.3-0.6,3.2c-0.1-0.1-0.3-0.2-0.4-0.2
				c0.5-0.9,0.5-2.1,0.5-3v-1.8h2.4c-0.1-0.1-0.2-0.3-0.3-0.5l0.4-0.1c0.1,0.2,0.3,0.4,0.4,0.6h2.1v0.4h-2.1v0.5h1.6v0.8h0.6v0.4
				h-0.6v0.8h-1.6V218.9z M121.3,218.3c0.3,0.2,0.7,0.4,0.9,0.6l-0.3,0.3c-0.2-0.2-0.6-0.5-0.9-0.6L121.3,218.3z M123.2,217.1h1.2
				v-0.5h-1.2V217.1z M123.2,217.9h1.2v-0.5h-1.2V217.9z"/>
			<path fill="#939598" d="M128,216.3h-2.1V216h2.1V216.3z M127.8,220.1h-1.3v0.3h-0.4v-2h1.7V220.1z M127.8,217.1h-1.7v-0.4h1.7
				V217.1z M126.1,217.5h1.7v0.4h-1.7V217.5z M126.5,218.7v1h0.9v-1H126.5z M127,215.9c-0.1-0.2-0.3-0.6-0.4-0.8l0.3-0.2
				c0.2,0.2,0.4,0.6,0.5,0.8L127,215.9z M128.4,217.1c-0.1,0.1-0.2,0.3-0.3,0.4c0-0.1-0.2-0.2-0.2-0.3c0.3-0.3,0.6-0.8,0.8-1.3
				l0.3,0.1v-0.3h-1v-0.4h1V215h0.4v1H129c0,0.1-0.1,0.3-0.2,0.4h0.8c0-0.1-0.1-0.3-0.1-0.4l0.4-0.1c0.1,0.2,0.1,0.3,0.2,0.5h1.1
				v0.3H130v0.3h1v0.3h-1v0.3h1v0.3h-1v0.3h1.3v0.3h-2.5v0.1h-0.4V217.1z M131,218.8c-0.2,0.4-0.5,0.7-0.9,0.9
				c0.4,0.1,0.9,0.3,1.3,0.3c-0.1,0.1-0.2,0.3-0.3,0.4c-0.5-0.1-1-0.3-1.5-0.5c-0.5,0.2-1.1,0.4-1.6,0.5c0-0.1-0.1-0.3-0.2-0.4
				c0.5-0.1,1-0.2,1.4-0.3c-0.3-0.2-0.5-0.4-0.7-0.6l0.2-0.1h-0.7v-0.3h2.6l0.1,0L131,218.8z M129.6,216.7h-0.8v0.3h0.8V216.7z
				 M129.6,217.3h-0.8v0.3h0.8V217.3z M129.6,217.8h-0.8v0.3h0.8V217.8z M129,219c0.2,0.2,0.4,0.4,0.7,0.5c0.3-0.1,0.5-0.3,0.7-0.5
				H129z M130.4,216H130v-1h0.4v0.4h0.9v0.4h-0.9V216z"/>
			<path fill="#939598" d="M133.8,219.2c-0.6,0.2-1.3,0.5-1.9,0.6l-0.1-0.4c0.2-0.1,0.5-0.1,0.8-0.3v-1.6H132v-0.4h0.7v-1.3h-0.7
				v-0.4h1.9v0.4h-0.7v1.3h0.6v0.4h-0.6v1.5l0.7-0.2L133.8,219.2z M137.4,219.8v0.4h-3.9v-0.4h1.8V219H134v-0.4h1.4v-0.7h-1.3v-2.7
				h3v2.7h-1.3v0.7h1.4v0.4h-1.4v0.8H137.4z M134.5,216.4h0.9v-0.8h-0.9V216.4z M134.5,217.5h0.9v-0.8h-0.9V217.5z M136.7,215.6
				h-0.9v0.8h0.9V215.6z M136.7,216.7h-0.9v0.8h0.9V216.7z"/>
		</g>
	</g>
	<g>
		<path fill="#007A6D" d="M127.8,107.7L127.8,107.7c-8.9,0-16-7.2-16-16v0c0-8.9,7.2-16,16-16h0c8.9,0,16,7.2,16,16v0
			C143.9,100.5,136.7,107.7,127.8,107.7z"/>
		<g>
			<g>
				<path fill="#FFFFFF" d="M120.9,88.2h0.4V91c0,0.8-0.2,2.1-1.7,2.7c-0.1-0.1-0.2-0.2-0.3-0.3c0.7-0.3,1.1-0.8,1.3-1.3
					c-0.5,0.1-1.1,0.2-1.5,0.3l-0.1-0.4c0.4-0.1,1.1-0.2,1.7-0.3c0.1-0.2,0.1-0.5,0.1-0.6v-0.2h-1.5v-0.4h1.5v-0.9h-1.6v-0.4h1.6
					V88.2z M124.6,92.2h-1.8v1.5h-0.4v-5.4h0.4v0.9h1.7v0.4h-1.7v0.9h1.6v0.4h-1.6v0.9h1.8V92.2z"/>
				<path fill="#FFFFFF" d="M128.5,91.6c0.3,1,0.9,1.6,1.4,1.6c0.2,0,0.2-0.2,0.3-0.9c0.1,0.1,0.3,0.2,0.4,0.2
					c-0.1,0.9-0.3,1.1-0.7,1.1c-0.8,0-1.5-0.8-1.8-2h-1.8v1.5l1.4-0.3c0,0.1,0,0.3,0,0.4c-1.6,0.4-1.9,0.5-2,0.6
					c0-0.1-0.1-0.3-0.2-0.4c0.1-0.1,0.3-0.2,0.3-0.4v-4.4h4.2v1.7h-1.8c0,0.3,0.1,0.6,0.1,0.9h2.1v0.4H128.5z M126.2,88.9v0.9h3.3
					v-0.9H126.2z M127.9,91.1c-0.1-0.3-0.1-0.6-0.1-0.9h-1.6v0.9H127.9z"/>
				<path fill="#FFFFFF" d="M136.5,93.1v0.4h-5.3v-0.4h2.4v-1.5h-1.8v-0.4h1.8v-1.3h-1.4c-0.2,0.4-0.4,0.7-0.6,1
					c-0.1-0.1-0.3-0.2-0.4-0.3c0.5-0.5,0.9-1.4,1.1-2.2l0.4,0.1c-0.1,0.3-0.2,0.7-0.3,1h1.2v-1.2h0.5v1.2h2.1v0.4h-2.1v1.3h1.9v0.4
					h-1.9v1.5H136.5z"/>
				<path fill="#FFFFFF" d="M120.2,96.6c-0.1,0.7-0.4,1.5-0.7,2l-0.4-0.2c0.3-0.5,0.6-1.3,0.7-2L120.2,96.6z M122.7,99.7
					c0.3,0,0.4-0.2,0.4-1.1c0.1,0.1,0.3,0.2,0.4,0.2c-0.1,1.1-0.2,1.4-0.9,1.4h-1.2c-0.6,0-0.8-0.2-0.8-0.8V99
					c-0.4,0.3-0.9,0.6-1.3,0.8c-0.1-0.1-0.2-0.3-0.3-0.3c0.6-0.3,1.1-0.6,1.6-1v-2.4h0.5v2c1-0.9,1.9-2,2.4-3.1l0.4,0.2
					c-0.7,1.3-1.6,2.5-2.9,3.5v0.7c0,0.3,0.1,0.3,0.4,0.3H122.7z M122.2,96.2c-0.3-0.3-1-0.8-1.5-1.1l0.3-0.3
					c0.5,0.3,1.2,0.8,1.5,1.1L122.2,96.2z M123.7,96.7c0.4,0.6,0.8,1.4,1,1.9l-0.4,0.2c-0.2-0.5-0.6-1.3-1-1.9L123.7,96.7z"/>
				<path fill="#FFFFFF" d="M128,97.9c0,0.1-0.1,0.3-0.2,0.4h2.2v1.4c0,0.2,0,0.3-0.2,0.4c-0.1,0.1-0.4,0.1-0.7,0.1
					c0-0.1-0.1-0.3-0.1-0.4c0.2,0,0.4,0,0.5,0s0.1,0,0.1-0.1v-1h-0.9v1.4h-0.4v-1.4h-0.9v1.4H127v-1.4h-0.9v1.4h-0.4v-1.8h1.7
					c0-0.1,0.1-0.3,0.1-0.4h-2.3v-0.4h5.2v0.4H128z M125.7,97h-0.4v-1.3h2.3v-0.4h-2v-0.3h4.5v0.3H128v0.4h2.3V97h-0.4v-0.9H128v1.3
					h-0.4v-1.3h-1.9V97z M125.8,97.1c0.4,0,0.9-0.1,1.4-0.2l0,0.3c-0.5,0.1-0.9,0.2-1.3,0.3L125.8,97.1z M126.1,96.2
					c0.4,0.1,0.9,0.2,1.2,0.3l-0.1,0.3c-0.3-0.1-0.8-0.3-1.2-0.3L126.1,96.2z M129.7,97.4c-0.3-0.1-0.9-0.3-1.4-0.3l0.1-0.3
					c0.5,0,1.1,0.2,1.4,0.3L129.7,97.4z M129.7,96.4c-0.3,0.1-0.8,0.3-1.2,0.3l-0.2-0.2c0.3-0.1,0.8-0.3,1.1-0.4L129.7,96.4z"/>
				<path fill="#FFFFFF" d="M131.4,97.5h2.1v2.6H133v-0.3h-1.3v0.3h-0.4V97.5z M131.8,98v1.4h1.3V98H131.8z M135.5,96.9h-3.3v-2h3.3
					V96.9z M135,95.3h-2.4v1.1h2.4V95.3z M136.4,97.5v2.6h-0.4v-0.3h-1.4v0.3h-0.4v-2.6H136.4z M135.9,99.4V98h-1.4v1.4H135.9z"/>
			</g>
			<g>
				<path fill="#FFFFFF" d="M122.2,84.1v-2.3l-0.6,0.4l-0.4-0.5l1-0.7h0.7v3.1H122.2z"/>
				<path fill="#FFFFFF" d="M125.2,84.2c-0.9,0-1.2-0.8-1.2-1.6c0-0.9,0.3-1.6,1.2-1.6c0.9,0,1.2,0.7,1.2,1.6
					C126.4,83.4,126.1,84.2,125.2,84.2z M125.2,81.5c-0.4,0-0.5,0.6-0.5,1c0,0.4,0.1,1,0.5,1c0.4,0,0.5-0.6,0.5-1
					C125.6,82.2,125.6,81.5,125.2,81.5z"/>
				<path fill="#FFFFFF" d="M127.3,84.1c-0.2,0-0.4-0.2-0.4-0.4c0-0.2,0.2-0.4,0.4-0.4c0.2,0,0.4,0.2,0.4,0.4
					C127.7,84,127.5,84.1,127.3,84.1z"/>
				<path fill="#FFFFFF" d="M129.3,84.2c-0.6,0-1.1-0.2-1.2-0.8l0.7-0.2c0.1,0.2,0.2,0.4,0.5,0.4c0.2,0,0.4-0.1,0.4-0.4
					c0-0.3-0.3-0.4-0.6-0.4h-0.2v-0.5h0.2c0.3,0,0.5-0.1,0.5-0.4c0-0.2-0.2-0.3-0.4-0.3c-0.2,0-0.4,0.1-0.4,0.3l-0.7-0.2
					c0.1-0.5,0.6-0.8,1.2-0.8c0.5,0,1.1,0.3,1.1,0.9c0,0.3-0.2,0.6-0.5,0.7v0c0.3,0.1,0.6,0.4,0.6,0.7
					C130.5,83.9,129.9,84.2,129.3,84.2z"/>
				<path fill="#FFFFFF" d="M131.7,82.6c-0.5,0-0.8-0.4-0.8-0.8c0-0.5,0.4-0.8,0.8-0.8c0.5,0,0.8,0.4,0.8,0.8
					C132.5,82.2,132.2,82.6,131.7,82.6z M131.7,81.4c-0.2,0-0.3,0.2-0.3,0.3s0.2,0.3,0.3,0.3c0.2,0,0.3-0.1,0.3-0.3
					S131.9,81.4,131.7,81.4z M132,84.2l-0.4-0.2l1.8-3.2l0.4,0.2L132,84.2z M133.8,84.1c-0.5,0-0.8-0.4-0.8-0.8s0.4-0.8,0.8-0.8
					c0.5,0,0.8,0.4,0.8,0.8S134.2,84.1,133.8,84.1z M133.8,83c-0.2,0-0.3,0.2-0.3,0.3s0.2,0.3,0.3,0.3c0.2,0,0.3-0.1,0.3-0.3
					S134,83,133.8,83z"/>
			</g>
		</g>
	</g>
	<g>
		<path fill="#007A6D" d="M64.7,148.1L64.7,148.1c-23.7,0-43-19.2-43-43v0c0-23.7,19.2-43,43-43h0c23.7,0,43,19.2,43,43v0
			C107.7,128.9,88.5,148.1,64.7,148.1z"/>
		<g>
			<g>
				<path fill="#FFFFFF" d="M51.4,111h-2.3v-0.5h2.3V111z M52,115.1c-0.6,0.4-1.6,0.8-2.4,1c-0.1-0.1-0.3-0.3-0.4-0.4
					c0.8-0.2,1.8-0.5,2.3-0.8L52,115.1z M51.2,109.8h-1.9v-0.5h1.9V109.8z M50.2,111.6h5.2v3.2h-5.2V111.6z M50.7,112.6h4V112h-4
					V112.6z M50.7,113.5h4V113h-4V113.5z M50.7,114.5h4v-0.6h-4V114.5z M52.7,109.8c-0.2,0.3-0.4,0.6-0.6,0.8
					c-0.1-0.1-0.3-0.2-0.4-0.3c0.4-0.4,0.7-0.9,0.9-1.5l0.5,0.1c0,0.2-0.1,0.3-0.2,0.4h2.7l0.1,0l0.4,0.1c-0.2,0.4-0.5,0.9-0.7,1.2
					l-0.5-0.2c0.1-0.2,0.3-0.4,0.4-0.6H54v0.1c0,0.1,0,0.2,0,0.3c0.4,0.5,1.3,0.8,2.3,0.9c-0.1,0.1-0.3,0.3-0.3,0.5
					c-0.9-0.1-1.7-0.4-2.2-0.9c-0.3,0.4-0.9,0.8-2.3,1c-0.1-0.1-0.2-0.3-0.3-0.4c2.1-0.3,2.3-0.8,2.3-1.2v-0.1H52.7z M53.9,114.9
					c0.9,0.3,1.8,0.6,2.4,0.9l-0.5,0.3c-0.5-0.3-1.4-0.6-2.2-0.9L53.9,114.9z"/>
				<path fill="#FFFFFF" d="M60,110.7h-2.9v-0.5H60V110.7z M59.7,115.6h-1.8v0.4h-0.5v-2.7h2.3V115.6z M57.4,111.7v-0.5h2.2v0.5
					H57.4z M57.4,112.3h2.3v0.5h-2.3V112.3z M57.9,113.8v1.3h1.3v-1.3H57.9z M58.5,110.1c-0.1-0.3-0.4-0.7-0.6-1.1l0.4-0.2
					c0.2,0.3,0.5,0.8,0.6,1L58.5,110.1z M63.5,109.3c0,3.2-0.1,6,0.4,6.1c0,0,0.1-0.5,0.1-1.1c0.1,0.2,0.3,0.4,0.3,0.4
					c-0.1,1.1-0.3,1.4-0.7,1.2c-0.8-0.2-0.8-2.9-0.8-6.1h-1.3v2.4h1.1v0.6h-1.1v3.4h-0.6v-3.4H60v-0.6h1.1v-2.4h-1v-0.6H63.5z"/>
				<path fill="#FFFFFF" d="M67.8,113.6c-0.1-0.3-0.5-0.8-0.7-1.2v3.7h-0.6v-3.5c-0.3,0.8-0.7,1.6-1.2,2.1c-0.1-0.2-0.2-0.4-0.3-0.5
					c0.5-0.6,1.1-1.6,1.4-2.5h-1.3v-0.6h1.3v-1.2c-0.4,0.1-0.7,0.1-1.1,0.2c0-0.1-0.1-0.3-0.2-0.5c0.9-0.1,1.9-0.4,2.5-0.6l0.4,0.5
					c-0.3,0.1-0.7,0.2-1,0.3v1.3h1.2v0.6H67v0.1c0.2,0.3,0.9,1.2,1.1,1.4L67.8,113.6z M71.4,114v2.1h-0.6v-2l-2.6,0.4l-0.1-0.6
					l2.7-0.4v-4.7h0.6v4.6l0.9-0.1l0.1,0.5L71.4,114z M69.8,113c-0.3-0.4-0.9-0.8-1.4-1.2l0.4-0.4c0.5,0.3,1.1,0.8,1.4,1.1L69.8,113
					z M70,110.9c-0.2-0.3-0.8-0.8-1.3-1.1l0.4-0.3c0.5,0.3,1,0.8,1.3,1.1L70,110.9z"/>
				<path fill="#FFFFFF" d="M75.7,112.9c-0.3,0.1-0.6,0.2-1,0.3v2.3c0,0.3-0.1,0.5-0.3,0.6c-0.2,0.1-0.5,0.1-1.1,0.1
					c0-0.2-0.1-0.4-0.2-0.5c0.4,0,0.7,0,0.8,0c0.1,0,0.2,0,0.2-0.2v-2.1l-1,0.3L73,113c0.3-0.1,0.7-0.2,1.1-0.3V111h-1v-0.6h1v-1.6
					h0.6v1.6h0.9v0.6h-0.9v1.6c0.3-0.1,0.6-0.2,0.9-0.3L75.7,112.9z M80,112c-0.3,1.1-0.9,2-1.6,2.6c0.6,0.5,1.3,0.8,2.1,1
					c-0.1,0.1-0.3,0.4-0.4,0.5c-0.8-0.3-1.5-0.6-2.1-1.2c-0.7,0.5-1.5,0.9-2.3,1.1c-0.1-0.2-0.2-0.4-0.3-0.5c0.8-0.2,1.5-0.5,2.2-1
					c-0.6-0.6-1-1.3-1.3-2.2l0,0h-0.3v-0.6h1.7v-1.2h-1.9v-0.6h1.9v-1.3h0.6v1.3h1.9v0.6h-1.9v1.2h1.3l0.1,0L80,112z M76.7,112.4
					c0.3,0.7,0.7,1.3,1.2,1.8c0.6-0.5,1-1.1,1.3-1.8H76.7z"/>
			</g>
			<g>
				<path fill="#FFFFFF" d="M54.9,104v-0.9l1.8-1.6c0.2-0.2,0.4-0.4,0.4-0.7c0-0.3-0.2-0.5-0.6-0.5c-0.4,0-0.6,0.3-0.6,0.7l-1-0.1
					c0.1-0.9,0.8-1.5,1.7-1.5c0.8,0,1.6,0.4,1.6,1.4c0,0.6-0.4,1-0.8,1.4l-1,0.9h1.8v0.9H54.9z"/>
				<path fill="#FFFFFF" d="M60.5,104h-1.2l1.8-3.6H59v-0.9h3.3v0.9L60.5,104z"/>
				<path fill="#FFFFFF" d="M63.6,104.1c-0.4,0-0.6-0.3-0.6-0.6c0-0.3,0.3-0.6,0.6-0.6c0.3,0,0.6,0.3,0.6,0.6
					C64.3,103.8,64,104.1,63.6,104.1z"/>
				<path fill="#FFFFFF" d="M66.6,104.2c-1,0-1.8-0.6-1.8-1.6c0-0.5,0.2-0.9,0.5-1.4l1.1-1.6h1.3l-1.1,1.5l0,0
					c0.1,0,0.2-0.1,0.3-0.1c0.8,0,1.5,0.6,1.5,1.5C68.4,103.5,67.6,104.2,66.6,104.2z M66.6,101.8c-0.4,0-0.7,0.3-0.7,0.7
					c0,0.4,0.3,0.7,0.7,0.7c0.4,0,0.7-0.3,0.7-0.7C67.3,102.1,67,101.8,66.6,101.8z"/>
				<path fill="#FFFFFF" d="M70.1,101.9c-0.7,0-1.2-0.5-1.2-1.2c0-0.7,0.5-1.2,1.2-1.2s1.2,0.5,1.2,1.2
					C71.3,101.3,70.7,101.9,70.1,101.9z M70.1,100.2c-0.3,0-0.5,0.2-0.5,0.5c0,0.3,0.2,0.5,0.5,0.5c0.3,0,0.5-0.2,0.5-0.5
					C70.6,100.4,70.4,100.2,70.1,100.2z M70.6,104.2L70,104l2.6-4.6l0.6,0.3L70.6,104.2z M73.1,104.1c-0.7,0-1.2-0.5-1.2-1.2
					c0-0.7,0.5-1.2,1.2-1.2s1.2,0.5,1.2,1.2C74.3,103.6,73.8,104.1,73.1,104.1z M73.1,102.4c-0.3,0-0.5,0.2-0.5,0.5
					c0,0.3,0.2,0.5,0.5,0.5c0.3,0,0.5-0.2,0.5-0.5C73.6,102.6,73.4,102.4,73.1,102.4z"/>
			</g>
		</g>
	</g>
	<g>
		<path fill="#007A6D" d="M135.8,183.3L135.8,183.3c-20.1,0-36.4-16.3-36.4-36.4v0c0-20.1,16.3-36.4,36.4-36.4h0
			c20.1,0,36.4,16.3,36.4,36.4v0C172.3,167,156,183.3,135.8,183.3z"/>
		<g>
			<g>
				<path fill="#FFFFFF" d="M132.1,151.1v1.1h2.8v0.5h-2.8v2h3.2v0.6h-6.9v-0.6h3.1v-2h-2.7v-0.5h2.7v-1.1h-1.7v-0.4
					c-0.4,0.2-0.8,0.4-1.3,0.6c-0.1-0.2-0.2-0.4-0.4-0.5c1.5-0.5,3-1.4,3.7-2.6l0.5,0.3c-0.1,0.1-0.1,0.2-0.2,0.3
					c0.8,0.8,2.2,1.7,3.4,2.1c-0.1,0.1-0.3,0.4-0.4,0.5c-0.4-0.2-0.9-0.4-1.3-0.6v0.5H132.1z M129.9,152.9c0.3,0.4,0.6,1,0.8,1.4
					l-0.5,0.2c-0.1-0.4-0.4-1-0.7-1.4L129.9,152.9z M133.8,150.5c-0.7-0.4-1.4-1-1.9-1.5c-0.5,0.6-1.2,1.1-1.9,1.5H133.8z
					 M132.8,154.4c0.3-0.4,0.6-1,0.8-1.5l0.6,0.2c-0.3,0.5-0.7,1.1-0.9,1.4L132.8,154.4z"/>
				<path fill="#FFFFFF" d="M136.3,148.5h3.8v0.5h-3.8V148.5z M139.9,154.8c0,0.3,0,0.4-0.2,0.5c-0.2,0.1-0.4,0.1-0.9,0.1
					c0-0.1-0.1-0.3-0.2-0.5c0.3,0,0.6,0,0.6,0c0.1,0,0.1,0,0.1-0.1V152h-2.5v3.4h-0.5v-3.9h3.5V154.8z M139.6,151.1h-3v-1.6h3V151.1
					z M138.4,153.7v1.6h-0.5v-1.6h-0.8v-0.4h1.1c0.2-0.3,0.4-0.8,0.5-1.1l0.4,0.2c-0.2,0.3-0.4,0.7-0.5,1h0.6v0.4H138.4z
					 M139.1,149.9h-1.9v0.8h1.9V149.9z M137.6,152.2c0.2,0.3,0.4,0.7,0.5,0.9l-0.4,0.1c-0.1-0.2-0.3-0.6-0.4-0.9L137.6,152.2z
					 M143.1,155.4c0-0.2-0.1-0.4-0.1-0.7c-0.9,0.2-1.9,0.3-2.6,0.5l-0.1-0.6c0.4,0,0.8-0.1,1.3-0.2v-1.8h-1.2v-3h1.2v-1.5h0.5v1.5
					h1.2v3H142v1.7l0.8-0.1c-0.1-0.3-0.2-0.7-0.4-1l0.4-0.1c0.3,0.7,0.6,1.6,0.7,2.1L143.1,155.4z M140.7,152.2h0.8v-2h-0.8V152.2z
					 M142.7,150.2H142v2h0.7V150.2z"/>
			</g>
			<g>
				<path fill="#FFFFFF" d="M126.1,144.1v-0.9l1.8-1.6c0.2-0.2,0.4-0.4,0.4-0.7c0-0.3-0.2-0.6-0.6-0.6c-0.4,0-0.6,0.3-0.6,0.7
					l-1-0.1c0.1-0.9,0.9-1.5,1.8-1.5c0.8,0,1.7,0.4,1.7,1.4c0,0.7-0.4,1-0.8,1.4l-1.1,0.9h1.9v0.9H126.1z"/>
				<path fill="#FFFFFF" d="M131.9,144.2c-0.8,0-1.6-0.4-1.8-1.2l1-0.3c0.1,0.3,0.4,0.6,0.8,0.6c0.3,0,0.7-0.2,0.7-0.6
					c0-0.5-0.5-0.6-0.9-0.6h-0.3v-0.8h0.3c0.4,0,0.8-0.1,0.8-0.5c0-0.3-0.3-0.5-0.6-0.5c-0.3,0-0.6,0.2-0.6,0.5l-1-0.2
					c0.2-0.8,0.9-1.2,1.7-1.2c0.8,0,1.6,0.4,1.6,1.3c0,0.5-0.3,0.9-0.8,1v0c0.5,0.1,0.9,0.6,0.9,1.1
					C133.6,143.8,132.7,144.2,131.9,144.2z"/>
				<path fill="#FFFFFF" d="M135,144.2c-0.4,0-0.7-0.3-0.7-0.6c0-0.4,0.3-0.6,0.7-0.6c0.4,0,0.6,0.3,0.6,0.6
					C135.6,143.9,135.3,144.2,135,144.2z"/>
				<path fill="#FFFFFF" d="M139.3,143.2v0.9h-1v-0.9h-2.2v-0.9l1.9-2.8h1.3v2.8h0.6v0.9H139.3z M138.3,140.6L138.3,140.6l-1.1,1.7
					h1.1V140.6z"/>
				<path fill="#FFFFFF" d="M141.5,141.9c-0.7,0-1.2-0.6-1.2-1.2c0-0.7,0.6-1.2,1.2-1.2c0.7,0,1.2,0.5,1.2,1.2
					C142.8,141.3,142.2,141.9,141.5,141.9z M141.5,140.2c-0.3,0-0.5,0.2-0.5,0.5s0.2,0.5,0.5,0.5s0.5-0.2,0.5-0.5
					S141.8,140.2,141.5,140.2z M142,144.3l-0.6-0.3l2.7-4.7l0.6,0.3L142,144.3z M144.7,144.2c-0.7,0-1.2-0.5-1.2-1.2
					c0-0.7,0.6-1.2,1.2-1.2c0.7,0,1.2,0.5,1.2,1.2C145.9,143.6,145.3,144.2,144.7,144.2z M144.7,142.5c-0.3,0-0.5,0.2-0.5,0.5
					s0.2,0.5,0.5,0.5c0.3,0,0.5-0.2,0.5-0.5S144.9,142.5,144.7,142.5z"/>
			</g>
		</g>
	</g>
	<path fill="#0074B7" d="M305.1,105L305.1,105c-2.8,0-5.2-2.3-5.2-5.2v0c0-2.8,2.3-5.2,5.2-5.2l0,0c2.8,0,5.2,2.3,5.2,5.2v0
		C310.3,102.7,308,105,305.1,105z"/>
	<g>
		<path fill="#0074B7" d="M314.2,99.6h0.3v1.9c0,0.6-0.2,1.4-1.1,1.8c-0.1-0.1-0.1-0.2-0.2-0.2c0.5-0.2,0.8-0.5,0.9-0.9
			c-0.4,0.1-0.7,0.1-1,0.2L313,102c0.3,0,0.7-0.1,1.1-0.2c0-0.2,0-0.3,0-0.4v-0.1h-1V101h1v-0.6h-1.1v-0.3h1.1V99.6z M316.6,102.2
			h-1.2v1h-0.3v-3.6h0.3v0.6h1.1v0.3h-1.1v0.6h1.1v0.3h-1.1v0.6h1.2V102.2z"/>
		<path fill="#0074B7" d="M319.2,101.8c0.2,0.6,0.6,1.1,0.9,1.1c0.1,0,0.2-0.2,0.2-0.6c0.1,0.1,0.2,0.1,0.3,0.1
			c0,0.6-0.2,0.7-0.5,0.7c-0.5,0-1-0.6-1.2-1.4h-1.2v1l1-0.2c0,0.1,0,0.2,0,0.3c-1.1,0.3-1.2,0.3-1.3,0.4c0-0.1-0.1-0.2-0.1-0.3
			c0.1,0,0.2-0.1,0.2-0.3v-2.9h2.8v1.2H319c0,0.2,0,0.4,0.1,0.6h1.4v0.3H319.2z M317.7,100v0.6h2.2V100H317.7z M318.8,101.5
			c0-0.2-0.1-0.4-0.1-0.6h-1.1v0.6H318.8z"/>
		<path fill="#0074B7" d="M324.5,102.8v0.3H321v-0.3h1.6v-1h-1.2v-0.3h1.2v-0.9h-0.9c-0.1,0.3-0.3,0.5-0.4,0.7
			c-0.1,0-0.2-0.1-0.3-0.2c0.3-0.4,0.6-0.9,0.7-1.5l0.3,0.1c-0.1,0.2-0.1,0.4-0.2,0.6h0.8v-0.8h0.3v0.8h1.4v0.3h-1.4v0.9h1.3v0.3
			h-1.3v1H324.5z"/>
		<path fill="#0074B7" d="M325.6,100.8c-0.1,0.4-0.2,1-0.5,1.4l-0.3-0.1c0.2-0.3,0.4-0.9,0.5-1.3L325.6,100.8z M327.3,102.9
			c0.2,0,0.3-0.1,0.3-0.8c0.1,0.1,0.2,0.1,0.3,0.1c0,0.7-0.1,0.9-0.6,0.9h-0.8c-0.4,0-0.6-0.1-0.6-0.5v-0.2
			c-0.3,0.2-0.6,0.4-0.9,0.5c0-0.1-0.1-0.2-0.2-0.2c0.4-0.2,0.8-0.4,1.1-0.6v-1.6h0.3v1.3c0.7-0.6,1.2-1.3,1.6-2l0.3,0.1
			c-0.5,0.9-1.1,1.7-1.9,2.3v0.4c0,0.2,0,0.2,0.3,0.2H327.3z M327,100.5c-0.2-0.2-0.7-0.5-1-0.8l0.2-0.2c0.3,0.2,0.8,0.5,1,0.7
			L327,100.5z M328,100.9c0.3,0.4,0.5,0.9,0.7,1.3l-0.3,0.1c-0.1-0.4-0.4-0.9-0.6-1.3L328,100.9z"/>
		<path fill="#0074B7" d="M330.9,101.7c0,0.1-0.1,0.2-0.1,0.3h1.5v0.9c0,0.1,0,0.2-0.1,0.2c-0.1,0-0.2,0-0.5,0
			c0-0.1-0.1-0.2-0.1-0.2c0.2,0,0.3,0,0.3,0s0.1,0,0.1-0.1v-0.7h-0.6v0.9h-0.3v-0.9h-0.6v0.9h-0.3v-0.9h-0.6v1h-0.3V102h1.2
			c0-0.1,0.1-0.2,0.1-0.3H329v-0.2h3.5v0.2H330.9z M329.4,101.1h-0.3v-0.9h1.5v-0.3h-1.4v-0.2h3v0.2h-1.4v0.3h1.6v0.9h-0.3v-0.6
			h-1.3v0.9h-0.3v-0.9h-1.2V101.1z M329.4,101.1c0.2,0,0.6-0.1,0.9-0.1l0,0.2c-0.3,0.1-0.6,0.1-0.9,0.2L329.4,101.1z M329.6,100.5
			c0.3,0,0.6,0.1,0.8,0.2l-0.1,0.2c-0.2-0.1-0.5-0.2-0.8-0.2L329.6,100.5z M332,101.4c-0.2-0.1-0.6-0.2-0.9-0.2l0.1-0.2
			c0.3,0,0.7,0.1,0.9,0.2L332,101.4z M332,100.7c-0.2,0.1-0.6,0.2-0.8,0.2l-0.1-0.2c0.2,0,0.6-0.2,0.8-0.2L332,100.7z"/>
		<path fill="#0074B7" d="M333.1,101.4h1.4v1.7h-0.3V103h-0.8v0.2h-0.3V101.4z M333.4,101.7v0.9h0.8v-0.9H333.4z M335.9,101h-2.2
			v-1.3h2.2V101z M335.6,100H334v0.8h1.6V100z M336.4,101.4v1.7h-0.3V103h-0.9v0.2h-0.3v-1.7H336.4z M336.1,102.7v-0.9h-0.9v0.9
			H336.1z"/>
	</g>
	<path fill="#A7A9AC" d="M333.6,135.7L333.6,135.7c-2.3,0-4.1-1.8-4.1-4.1l0,0c0-2.3,1.8-4.1,4.1-4.1l0,0c2.3,0,4.1,1.8,4.1,4.1l0,0
		C337.7,133.9,335.9,135.7,333.6,135.7z"/>
	<g>
		<path fill="#A7A9AC" d="M332,139.9c0.2,0.6,0.6,1.1,0.9,1.1c0.1,0,0.2-0.2,0.2-0.6c0.1,0.1,0.2,0.1,0.3,0.1c0,0.6-0.2,0.7-0.5,0.7
			c-0.5,0-1-0.6-1.2-1.4h-1.2v1l1-0.2c0,0.1,0,0.2,0,0.3c-1.1,0.3-1.2,0.3-1.3,0.4c0-0.1-0.1-0.2-0.1-0.3c0.1,0,0.2-0.1,0.2-0.3
			v-2.9h2.8v1.2h-1.2c0,0.2,0,0.4,0.1,0.6h1.4v0.3H332z M330.5,138.2v0.6h2.2v-0.6H330.5z M331.6,139.6c0-0.2-0.1-0.4-0.1-0.6h-1.1
			v0.6H331.6z"/>
		<path fill="#A7A9AC" d="M337.4,140.9v0.3h-3.5v-0.3h1.6v-1h-1.2v-0.3h1.2v-0.9h-0.9c-0.1,0.3-0.3,0.5-0.4,0.7
			c-0.1,0-0.2-0.1-0.3-0.2c0.3-0.4,0.6-0.9,0.7-1.5l0.3,0.1c-0.1,0.2-0.1,0.4-0.2,0.6h0.8v-0.8h0.3v0.8h1.4v0.3h-1.4v0.9h1.3v0.3
			h-1.3v1H337.4z"/>
		<path fill="#A7A9AC" d="M328.5,143.9c-0.1,0.4-0.2,1-0.5,1.4l-0.3-0.1c0.2-0.3,0.4-0.9,0.5-1.3L328.5,143.9z M330.2,146
			c0.2,0,0.3-0.1,0.3-0.8c0.1,0.1,0.2,0.1,0.3,0.1c0,0.7-0.1,0.9-0.6,0.9h-0.8c-0.4,0-0.6-0.1-0.6-0.5v-0.2
			c-0.3,0.2-0.6,0.4-0.9,0.5c0-0.1-0.1-0.2-0.2-0.2c0.4-0.2,0.8-0.4,1.1-0.6v-1.6h0.3v1.3c0.7-0.6,1.2-1.3,1.6-2l0.3,0.1
			c-0.5,0.9-1.1,1.7-1.9,2.3v0.4c0,0.2,0,0.2,0.3,0.2H330.2z M329.8,143.7c-0.2-0.2-0.7-0.5-1-0.8l0.2-0.2c0.3,0.2,0.8,0.5,1,0.7
			L329.8,143.7z M330.8,144c0.3,0.4,0.5,0.9,0.7,1.3l-0.3,0.1c-0.1-0.4-0.4-0.9-0.6-1.3L330.8,144z"/>
		<path fill="#A7A9AC" d="M333.7,144.8c0,0.1-0.1,0.2-0.1,0.3h1.5v0.9c0,0.1,0,0.2-0.1,0.2c-0.1,0-0.2,0-0.5,0
			c0-0.1-0.1-0.2-0.1-0.2c0.2,0,0.3,0,0.3,0s0.1,0,0.1-0.1v-0.7h-0.6v0.9h-0.3v-0.9h-0.6v0.9H333v-0.9h-0.6v1h-0.3v-1.2h1.2
			c0-0.1,0.1-0.2,0.1-0.3h-1.5v-0.2h3.5v0.2H333.7z M332.2,144.2h-0.3v-0.9h1.5v-0.3h-1.4v-0.2h3v0.2h-1.4v0.3h1.6v0.9H335v-0.6
			h-1.3v0.9h-0.3v-0.9h-1.2V144.2z M332.3,144.3c0.2,0,0.6-0.1,0.9-0.1l0,0.2c-0.3,0.1-0.6,0.1-0.9,0.2L332.3,144.3z M332.4,143.7
			c0.3,0,0.6,0.1,0.8,0.2l-0.1,0.2c-0.2-0.1-0.5-0.2-0.8-0.2L332.4,143.7z M334.8,144.5c-0.2-0.1-0.6-0.2-0.9-0.2l0.1-0.2
			c0.3,0,0.7,0.1,0.9,0.2L334.8,144.5z M334.8,143.8c-0.2,0.1-0.6,0.2-0.8,0.2l-0.1-0.2c0.2,0,0.6-0.2,0.8-0.2L334.8,143.8z"/>
		<path fill="#A7A9AC" d="M335.9,144.6h1.4v1.7h-0.3v-0.2h-0.8v0.2h-0.3V144.6z M336.2,144.9v0.9h0.8v-0.9H336.2z M338.7,144.2h-2.2
			v-1.3h2.2V144.2z M338.4,143.1h-1.6v0.8h1.6V143.1z M339.3,144.6v1.7H339v-0.2h-0.9v0.2h-0.3v-1.7H339.3z M339,145.8v-0.9h-0.9
			v0.9H339z"/>
	</g>
	<path fill="#A7A9AC" d="M316.5,160.5L316.5,160.5c-5.7,0-10.4-4.7-10.4-10.4v0c0-5.7,4.7-10.4,10.4-10.4l0,0
		c5.7,0,10.4,4.7,10.4,10.4v0C326.9,155.8,322.3,160.5,316.5,160.5z"/>
	<g>
		<path fill="#FFFFFF" d="M309.7,149.9c-0.1,0.4-0.2,0.7-0.3,1c0.1,0,0.2,0.1,0.3,0.2c0.3,0.2,0.6,0.2,1.1,0.2c0.5,0,1.2,0,1.6-0.1
			c0,0.1-0.1,0.2-0.1,0.3c-0.3,0-1.1,0-1.5,0c-0.5,0-0.9,0-1.2-0.2c-0.2-0.1-0.3-0.2-0.4-0.2c-0.1,0-0.2,0.3-0.3,0.5l-0.2-0.3
			c0.1-0.2,0.3-0.4,0.4-0.4c0.1-0.2,0.2-0.5,0.3-0.8h-0.5c0.1-0.2,0.2-0.6,0.3-0.9h-0.4v-0.3h0.8c-0.1,0.3-0.2,0.6-0.3,0.9h0.3l0,0
			L309.7,149.9z M309.1,148.7c0-0.2-0.1-0.4-0.2-0.7l0.3-0.1c0.1,0.2,0.2,0.5,0.2,0.6L309.1,148.7z M310.3,151H310V149h1.1
			c-0.2-0.1-0.5-0.2-0.8-0.3l0.2-0.2c0.2,0.1,0.4,0.1,0.6,0.2c0.2-0.1,0.4-0.2,0.5-0.3H310v-0.2h2l0.1,0l0.2,0.1
			c-0.2,0.2-0.5,0.4-0.8,0.5c0.1,0.1,0.2,0.1,0.3,0.2h0.5v1.8c0,0.1,0,0.2-0.1,0.3c-0.1,0-0.3,0-0.5,0c0-0.1,0-0.2-0.1-0.2
			c0.2,0,0.4,0,0.4,0c0.1,0,0.1,0,0.1-0.1v-0.4h-0.7v0.7h-0.3v-0.7h-0.7V151z M310.3,149.2v0.4h0.7v-0.4H310.3z M310.9,150.1v-0.4
			h-0.7v0.4H310.9z M311.9,149.2h-0.7v0.4h0.7V149.2z M311.9,150.1v-0.4h-0.7v0.4H311.9z"/>
		<path fill="#FFFFFF" d="M314.2,148.9h-1.4v-0.2h1.4V148.9z M314,151.4h-0.9v0.2h-0.2v-1.3h1.1V151.4z M312.9,149.4v-0.2h1.1v0.2
			H312.9z M312.9,149.7h1.1v0.2h-1.1V149.7z M313.1,150.5v0.7h0.6v-0.7H313.1z M313.4,148.6c-0.1-0.1-0.2-0.4-0.3-0.5l0.2-0.1
			c0.1,0.2,0.2,0.4,0.3,0.5L313.4,148.6z M315.9,148.2c0,1.6,0,3,0.2,3.1c0,0,0.1-0.2,0.1-0.5c0,0.1,0.1,0.2,0.2,0.2
			c0,0.6-0.2,0.7-0.4,0.6c-0.4-0.1-0.4-1.4-0.4-3.1H315v1.2h0.5v0.3H315v1.7h-0.3v-1.7h-0.5v-0.3h0.5v-1.2h-0.5v-0.3H315.9z"/>
		<path fill="#FFFFFF" d="M318.1,151.3c0,0.2,0,0.2-0.1,0.3c-0.1,0.1-0.3,0.1-0.5,0.1c0-0.1,0-0.2-0.1-0.3c0.2,0,0.4,0,0.4,0
			c0.1,0,0.1,0,0.1-0.1v-1h-0.6c0,0.5-0.1,1-0.3,1.3c-0.1,0-0.2-0.1-0.2-0.1c0.3-0.6,0.3-1.4,0.3-1.9v-1.4h1.2V151.3z M317.8,150
			v-0.7h-0.6v0.2c0,0.1,0,0.3,0,0.5H317.8z M317.2,148.4v0.7h0.6v-0.7H317.2z M320.3,149.5c-0.1,0.5-0.3,1-0.5,1.3
			c0.2,0.2,0.4,0.4,0.7,0.5c-0.1,0.1-0.1,0.2-0.2,0.2c-0.2-0.1-0.5-0.3-0.6-0.5c-0.2,0.2-0.4,0.4-0.6,0.5c0-0.1-0.1-0.2-0.2-0.2
			c0.2-0.1,0.4-0.3,0.6-0.5c-0.2-0.3-0.4-0.7-0.5-1.1h-0.1v1.9h-0.3v-3.5h1.7v0.8c0,0.2,0,0.2-0.2,0.3c-0.1,0-0.3,0-0.6,0
			c0-0.1-0.1-0.2-0.1-0.3c0.2,0,0.5,0,0.5,0c0.1,0,0.1,0,0.1-0.1v-0.5h-1.1v1.1h1.3l0.1,0L320.3,149.5z M319.1,149.8
			c0.1,0.3,0.3,0.6,0.4,0.9c0.2-0.3,0.3-0.6,0.4-0.9H319.1z"/>
		<path fill="#FFFFFF" d="M321.9,150.3c0.1-0.2,0.2-0.4,0.2-0.6h-0.4v1.6c0,0.2,0,0.2-0.1,0.3c-0.1,0-0.3,0-0.5,0
			c0-0.1-0.1-0.2-0.1-0.3c0.2,0,0.3,0,0.4,0c0,0,0.1,0,0.1-0.1V150c-0.2,0.4-0.4,0.8-0.6,1c0-0.1-0.1-0.2-0.2-0.3
			c0.2-0.2,0.5-0.7,0.6-1.1h-0.6v-0.3h1.1c-0.2-0.2-0.6-0.4-0.9-0.5l0.2-0.2c0.1,0.1,0.3,0.1,0.4,0.2c0.1-0.1,0.3-0.3,0.4-0.4h-1.1
			v-0.3h1.3l0.1,0l0.2,0.1c-0.2,0.2-0.4,0.5-0.7,0.7c0.1,0.1,0.3,0.2,0.3,0.2l-0.2,0.2h0.3l0,0l0.2,0.1c0,0.1,0,0.1-0.1,0.2
			c0.3-0.1,0.5-0.2,0.7-0.3c-0.2-0.1-0.3-0.3-0.4-0.5c-0.1,0.1-0.2,0.2-0.3,0.3c-0.1,0-0.2-0.1-0.2-0.2c0.3-0.2,0.6-0.6,0.8-1
			l0.3,0.1c-0.1,0.1-0.1,0.2-0.2,0.3h1.3v0.3H324c-0.1,0.3-0.3,0.5-0.5,0.7c0.3,0.2,0.5,0.3,0.9,0.3c-0.1,0.1-0.1,0.2-0.2,0.3
			c-0.3-0.1-0.6-0.2-0.9-0.4c-0.3,0.2-0.5,0.3-0.9,0.4c0,0-0.1-0.1-0.1-0.2c-0.1,0.2-0.1,0.5-0.2,0.6L321.9,150.3z M324.2,150.2
			c0,0,0,0.1,0,0.1c-0.1,0.7-0.1,1-0.3,1.2c-0.1,0.1-0.1,0.1-0.2,0.1c-0.1,0-0.3,0-0.4,0c0-0.1,0-0.2-0.1-0.3c0.2,0,0.3,0,0.4,0
			c0.1,0,0.1,0,0.1,0c0.1-0.1,0.1-0.3,0.2-0.8h-0.7c-0.1,0.5-0.4,0.9-1.1,1.2c0-0.1-0.1-0.2-0.2-0.2c0.6-0.2,0.8-0.5,0.9-0.9h-0.6
			v-0.2h0.7c0-0.1,0-0.3,0.1-0.4h0.3c0,0.1,0,0.3-0.1,0.4H324.2z M322.8,148.6c0.1,0.2,0.3,0.4,0.5,0.5c0.2-0.1,0.3-0.3,0.4-0.5
			H322.8z"/>
	</g>
	<path fill="#A7A9AC" d="M290.8,170L290.8,170c-6.6,0-12-5.4-12-12v0c0-6.6,5.4-12,12-12l0,0c6.6,0,12,5.4,12,12v0
		C302.8,164.6,297.4,170,290.8,170z"/>
	<g>
		<path fill="#FFFFFF" d="M288.5,159.3c-0.4,0.2-0.9,0.4-1.3,0.6c0-0.1-0.1-0.2-0.2-0.2c0.4-0.1,1-0.4,1.3-0.5L288.5,159.3z
			 M290.6,159H287v-0.3h0.7V157h-0.6v-0.3h0.6v-0.5h0.3v0.5h1.5v-0.5h0.3v0.5h0.6v0.3h-0.6v1.8h0.7V159z M288.1,157v0.4h1.5V157
			H288.1z M288.1,158.1h1.5v-0.4h-1.5V158.1z M288.1,158.7h1.5v-0.4h-1.5V158.7z M289.3,159.1c0.5,0.2,1,0.4,1.3,0.6l-0.3,0.2
			c-0.3-0.2-0.8-0.4-1.2-0.6L289.3,159.1z"/>
		<path fill="#FFFFFF" d="M292.2,156.3c-0.1,0.3-0.3,0.6-0.4,0.9v2.7h-0.3v-2.2c-0.1,0.2-0.3,0.3-0.4,0.5c0-0.1-0.1-0.2-0.2-0.3
			c0.4-0.4,0.8-1,1-1.6L292.2,156.3z M294.1,159.6c0.2,0,0.3-0.1,0.3-0.6c0.1,0,0.2,0.1,0.3,0.1c-0.1,0.6-0.1,0.7-0.6,0.7H293
			c-0.5,0-0.6-0.1-0.6-0.6V158l-0.4,0.2l-0.1-0.3l0.5-0.2v-1h0.3v0.9l0.6-0.2v-1.1h0.3v1l0.7-0.3l0.1,0l0.2,0.1l0,0.1
			c0,0.6-0.1,1.3-0.1,1.8l-0.2-0.1c0-0.4,0.1-1,0.1-1.5l-0.6,0.2v1.5h-0.3v-1.4l-0.6,0.2v1.4c0,0.2,0.1,0.3,0.3,0.3H294.1z"/>
	</g>
	<path fill="#0074B7" d="M294.6,144.5L294.6,144.5c-10.9,0-19.7-8.8-19.7-19.7v0c0-10.9,8.8-19.7,19.7-19.7h0
		c10.9,0,19.7,8.8,19.7,19.7v0C314.3,135.7,305.5,144.5,294.6,144.5z"/>
	<g>
		<path fill="#FFFFFF" d="M292.8,124.1v0.5h1.4v0.3h-1.4v1h1.6v0.3h-3.4v-0.3h1.6v-1h-1.4v-0.3h1.4v-0.5h-0.9v-0.2
			c-0.2,0.1-0.4,0.2-0.6,0.3c0-0.1-0.1-0.2-0.2-0.3c0.7-0.2,1.5-0.7,1.9-1.3l0.3,0.1c0,0-0.1,0.1-0.1,0.1c0.4,0.4,1.1,0.8,1.7,1
			c-0.1,0.1-0.2,0.2-0.2,0.3c-0.2-0.1-0.4-0.2-0.6-0.3v0.2H292.8z M291.7,125c0.2,0.2,0.3,0.5,0.4,0.7l-0.3,0.1
			c-0.1-0.2-0.2-0.5-0.4-0.7L291.7,125z M293.6,123.9c-0.4-0.2-0.7-0.5-1-0.8c-0.3,0.3-0.6,0.5-0.9,0.8H293.6z M293.1,125.8
			c0.1-0.2,0.3-0.5,0.4-0.7l0.3,0.1c-0.1,0.3-0.3,0.5-0.5,0.7L293.1,125.8z"/>
		<path fill="#FFFFFF" d="M294.9,122.8h1.9v0.3h-1.9V122.8z M296.7,126c0,0.1,0,0.2-0.1,0.2c-0.1,0-0.2,0-0.4,0c0-0.1,0-0.2-0.1-0.2
			c0.1,0,0.3,0,0.3,0c0,0,0.1,0,0.1-0.1v-1.4h-1.3v1.7h-0.2v-1.9h1.8V126z M296.6,124.1h-1.5v-0.8h1.5V124.1z M295.9,125.4v0.8h-0.2
			v-0.8h-0.4v-0.2h0.5c0.1-0.2,0.2-0.4,0.3-0.6l0.2,0.1c-0.1,0.2-0.2,0.3-0.3,0.5h0.3v0.2H295.9z M296.3,123.6h-1v0.4h1V123.6z
			 M295.5,124.7c0.1,0.1,0.2,0.3,0.2,0.5l-0.2,0.1c0-0.1-0.1-0.3-0.2-0.5L295.5,124.7z M298.3,126.3c0-0.1,0-0.2-0.1-0.3
			c-0.5,0.1-0.9,0.2-1.3,0.2l-0.1-0.3c0.2,0,0.4-0.1,0.7-0.1V125h-0.6v-1.5h0.6v-0.8h0.3v0.8h0.6v1.5h-0.6v0.9l0.4-0.1
			c-0.1-0.2-0.1-0.4-0.2-0.5l0.2-0.1c0.1,0.3,0.3,0.8,0.3,1.1L298.3,126.3z M297.1,124.7h0.4v-1h-0.4V124.7z M298.1,123.7h-0.4v1
			h0.4V123.7z"/>
	</g>
	<path fill="#0074B7" d="M326.9,128.2L326.9,128.2c-6.3,0-11.4-5.1-11.4-11.4v0c0-6.3,5.1-11.4,11.4-11.4h0
		c6.3,0,11.4,5.1,11.4,11.4v0C338.3,123.1,333.2,128.2,326.9,128.2z"/>
	<g>
		<path fill="#FFFFFF" d="M320.3,115.9h-1.1v-0.2h1.1V115.9z M320.6,118c-0.3,0.2-0.8,0.4-1.2,0.5c-0.1-0.1-0.2-0.2-0.2-0.2
			c0.4-0.1,0.9-0.2,1.2-0.4L320.6,118z M320.2,115.3h-1v-0.2h1V115.3z M319.7,116.2h2.6v1.6h-2.6V116.2z M320,116.7h2v-0.3h-2V116.7
			z M320,117.2h2v-0.3h-2V117.2z M320,117.6h2v-0.3h-2V117.6z M320.9,115.3c-0.1,0.2-0.2,0.3-0.3,0.4c0,0-0.2-0.1-0.2-0.2
			c0.2-0.2,0.4-0.5,0.5-0.8l0.3,0.1c0,0.1-0.1,0.1-0.1,0.2h1.3l0,0l0.2,0.1c-0.1,0.2-0.2,0.4-0.3,0.6l-0.2-0.1
			c0.1-0.1,0.1-0.2,0.2-0.3h-0.6v0.1c0,0,0,0.1,0,0.1c0.2,0.2,0.6,0.4,1.2,0.4c-0.1,0.1-0.1,0.2-0.2,0.2c-0.5-0.1-0.8-0.2-1.1-0.5
			c-0.1,0.2-0.4,0.4-1.2,0.5c0-0.1-0.1-0.2-0.2-0.2c1-0.1,1.1-0.4,1.1-0.6v0H320.9z M321.5,117.9c0.4,0.1,0.9,0.3,1.2,0.4l-0.3,0.2
			c-0.3-0.1-0.7-0.3-1.1-0.4L321.5,117.9z"/>
		<path fill="#FFFFFF" d="M324.6,115.7h-1.4v-0.2h1.4V115.7z M324.4,118.2h-0.9v0.2h-0.2v-1.3h1.1V118.2z M323.3,116.3V116h1.1v0.2
			H323.3z M323.3,116.5h1.1v0.2h-1.1V116.5z M323.5,117.3v0.7h0.6v-0.7H323.5z M323.8,115.5c-0.1-0.1-0.2-0.4-0.3-0.5l0.2-0.1
			c0.1,0.2,0.2,0.4,0.3,0.5L323.8,115.5z M326.4,115c0,1.6,0,3,0.2,3.1c0,0,0.1-0.2,0.1-0.5c0,0.1,0.1,0.2,0.2,0.2
			c0,0.6-0.2,0.7-0.4,0.6c-0.4-0.1-0.4-1.4-0.4-3.1h-0.7v1.2h0.5v0.3h-0.5v1.7h-0.3v-1.7h-0.5v-0.3h0.5v-1.2h-0.5V115H326.4z"/>
		<path fill="#FFFFFF" d="M328.5,117.2c-0.1-0.1-0.2-0.4-0.4-0.6v1.9h-0.3v-1.8c-0.2,0.4-0.4,0.8-0.6,1c0-0.1-0.1-0.2-0.1-0.3
			c0.3-0.3,0.5-0.8,0.7-1.3h-0.6v-0.3h0.7v-0.6c-0.2,0-0.4,0.1-0.5,0.1c0-0.1-0.1-0.2-0.1-0.2c0.4-0.1,1-0.2,1.3-0.3l0.2,0.2
			c-0.1,0.1-0.3,0.1-0.5,0.2v0.7h0.6v0.3h-0.6v0.1c0.1,0.1,0.5,0.6,0.6,0.7L328.5,117.2z M330.3,117.4v1H330v-1l-1.3,0.2l0-0.3
			l1.4-0.2v-2.4h0.3v2.3l0.5-0.1l0,0.3L330.3,117.4z M329.5,116.9c-0.1-0.2-0.5-0.4-0.7-0.6l0.2-0.2c0.3,0.2,0.6,0.4,0.7,0.6
			L329.5,116.9z M329.6,115.8c-0.1-0.2-0.4-0.4-0.6-0.6l0.2-0.2c0.2,0.2,0.5,0.4,0.7,0.5L329.6,115.8z"/>
		<path fill="#FFFFFF" d="M332.4,116.8c-0.2,0-0.3,0.1-0.5,0.1v1.1c0,0.2,0,0.2-0.1,0.3c-0.1,0-0.3,0.1-0.5,0.1
			c0-0.1-0.1-0.2-0.1-0.3c0.2,0,0.4,0,0.4,0c0.1,0,0.1,0,0.1-0.1v-1l-0.5,0.1l-0.1-0.3c0.2,0,0.4-0.1,0.6-0.1v-0.9h-0.5v-0.3h0.5
			v-0.8h0.3v0.8h0.4v0.3H332v0.8c0.1,0,0.3-0.1,0.4-0.1L332.4,116.8z M334.6,116.4c-0.2,0.5-0.5,1-0.8,1.3c0.3,0.2,0.6,0.4,1,0.5
			c-0.1,0.1-0.1,0.2-0.2,0.3c-0.4-0.1-0.8-0.3-1.1-0.6c-0.3,0.3-0.7,0.4-1.1,0.6c0-0.1-0.1-0.2-0.2-0.3c0.4-0.1,0.8-0.3,1.1-0.5
			c-0.3-0.3-0.5-0.7-0.7-1.1l0,0h-0.1v-0.3h0.9v-0.6h-0.9v-0.3h0.9v-0.6h0.3v0.6h1v0.3h-1v0.6h0.6l0,0L334.6,116.4z M332.9,116.6
			c0.1,0.3,0.3,0.7,0.6,0.9c0.3-0.2,0.5-0.6,0.6-0.9H332.9z"/>
	</g>
	<path fill="#A7A9AC" d="M269.9,137.8L269.9,137.8c-1,0-1.8-0.8-1.8-1.8l0,0c0-1,0.8-1.8,1.8-1.8l0,0c1,0,1.8,0.8,1.8,1.8l0,0
		C271.7,137,270.9,137.8,269.9,137.8z"/>
	<g>
		<path fill="#A7A9AC" d="M266,141.8c0,0.1,0,0.2-0.1,0.3h1.4c0,0,0,0.1,0,0.1c-0.1,0.6-0.1,0.8-0.2,0.9c-0.1,0.1-0.1,0.1-0.3,0.1
			c-0.1,0-0.3,0-0.5,0c0-0.1,0-0.2-0.1-0.3c0.2,0,0.4,0,0.5,0c0.1,0,0.1,0,0.1,0c0.1-0.1,0.1-0.2,0.1-0.6h-1.2
			c-0.2,0.4-0.5,0.7-1.1,0.9c0-0.1-0.1-0.2-0.2-0.2c0.8-0.2,1-0.6,1.1-1.2h-0.9c0,0.5-0.2,1-0.5,1.4c0-0.1-0.2-0.2-0.2-0.2
			c0.4-0.6,0.4-1.3,0.4-1.9v-1.2h0c0.9-0.1,2-0.2,2.5-0.3l0.2,0.2c-0.7,0.1-1.6,0.2-2.5,0.3v0.2h2.6v0.9h-2.6c0,0.1,0,0.2,0,0.4h1.3
			c0-0.1-0.1-0.2-0.2-0.3l0.3-0.1c0.1,0.1,0.2,0.3,0.2,0.4h1.3v0.2H266z M264.8,140.5v0.4h2.3v-0.4H264.8z"/>
		<path fill="#A7A9AC" d="M268.9,141.9c0.1-0.1,0.3-0.1,0.4-0.2l0.1,0.3c-0.4,0.2-0.9,0.4-1.2,0.6l-0.1-0.3c0.2-0.1,0.3-0.1,0.6-0.2
			v-1.2h-0.5v-0.3h0.5v-0.9h0.3v0.9h0.4v0.3h-0.4V141.9z M271.2,142.8c0.2,0,0.3-0.1,0.3-0.6c0.1,0.1,0.2,0.1,0.3,0.1
			c0,0.5-0.1,0.7-0.6,0.7h-1c-0.5,0-0.6-0.1-0.6-0.5v-1.3l-0.3,0.1l-0.1-0.3l0.4-0.2v-1.1h0.3v1l0.5-0.2v-1.1h0.3v1l0.6-0.3l0.2,0.1
			l0,0c0,0.6-0.1,1.3-0.2,1.8l-0.2-0.1c0.1-0.4,0.1-1,0.2-1.5l-0.5,0.2v1.5h-0.3V141l-0.5,0.2v1.4c0,0.2,0.1,0.3,0.3,0.3H271.2z"/>
		<path fill="#A7A9AC" d="M272.7,141.2v0.6c0,0.5-0.1,1.1-0.4,1.5c0-0.1-0.2-0.2-0.2-0.2c0.3-0.4,0.4-0.9,0.4-1.3v-0.8h0.5
			c0-0.1-0.1-0.1-0.1-0.1c0.3-0.1,0.7-0.1,1-0.2c-0.3-0.1-0.6-0.2-0.9-0.2l0.2-0.1h-0.6v-0.2h1.5c-0.1-0.1-0.1-0.2-0.2-0.3l0.2-0.1
			c0.1,0.1,0.2,0.3,0.3,0.4h1.3v0.2H275l0.2,0.1c-0.2,0.1-0.4,0.2-0.6,0.3c0.3,0.1,0.6,0.2,0.8,0.2l-0.2,0.1h0.6v0.2H272.7z
			 M275.8,142.8v0.2h-3v-0.2h1.3v-0.4h-0.9v-0.2h0.9v-0.4h-0.8c-0.1,0.2-0.2,0.4-0.4,0.5c0-0.1-0.1-0.2-0.2-0.2
			c0.2-0.2,0.4-0.5,0.5-0.8l0.3,0.1c0,0.1-0.1,0.2-0.1,0.3h0.7v-0.3h0.3v0.3h1.1v0.2h-1.1v0.4h1v0.2h-1v0.4H275.8z M275,140.9
			c-0.2-0.1-0.5-0.2-0.8-0.3c-0.4,0.1-0.7,0.2-1.1,0.3H275z M273.2,140.1c0.3,0.1,0.7,0.2,1,0.3c0.3-0.1,0.5-0.2,0.7-0.3H273.2z"/>
	</g>
	<path fill="#A7A9AC" d="M263.5,124.9L263.5,124.9c-1.7,0-3.2-1.4-3.2-3.2v0c0-1.7,1.4-3.2,3.2-3.2l0,0c1.7,0,3.2,1.4,3.2,3.2v0
		C266.6,123.5,265.2,124.9,263.5,124.9z"/>
	<g>
		<path fill="#A7A9AC" d="M257.7,126.6c-0.3,0.7-0.7,1.3-1.2,1.7c-0.1-0.1-0.2-0.2-0.3-0.2c0.4-0.4,0.9-1,1.1-1.6L257.7,126.6z
			 M258.8,128.5c0.3,0.4,0.7,1,0.9,1.3l-0.3,0.2c-0.1-0.1-0.1-0.2-0.2-0.4c-2.1,0.1-2.3,0.2-2.4,0.2c0-0.1-0.1-0.2-0.1-0.3
			c0.1,0,0.2-0.2,0.4-0.3c0.2-0.2,0.7-0.9,1-1.6l0.3,0.1c-0.3,0.6-0.8,1.2-1.2,1.7l1.8-0.1c-0.2-0.2-0.3-0.5-0.5-0.7L258.8,128.5z
			 M258.9,126.5c0.2,0.6,0.6,1.2,1.1,1.5c-0.1,0.1-0.2,0.2-0.2,0.3c-0.5-0.3-0.8-0.9-1.1-1.5h-0.7v-0.3H258.9z"/>
		<path fill="#A7A9AC" d="M263.6,129.7c0,0.2-0.1,0.3-0.2,0.3c-0.1,0-0.4,0.1-0.7,0c0-0.1-0.1-0.2-0.1-0.3c0.3,0,0.6,0,0.6,0
			c0.1,0,0.1,0,0.1-0.1v-0.8h-1.1v1.2H262v-1.2h-1c-0.1,0.4-0.2,0.9-0.5,1.2c0-0.1-0.2-0.2-0.2-0.2c0.4-0.5,0.5-1.2,0.5-1.8v-1.4
			h2.9V129.7z M262,128.6v-0.7h-1v0.2c0,0.1,0,0.3,0,0.4H262z M261,127v0.6h1V127H261z M263.3,127h-1.1v0.6h1.1V127z M263.3,128.6
			v-0.7h-1.1v0.7H263.3z"/>
		<path fill="#A7A9AC" d="M267.9,128.9h-0.4v0.7h-0.3v-0.2h-1v0.3c0,0.2-0.1,0.3-0.2,0.3c-0.1,0-0.3,0-0.7,0c0-0.1-0.1-0.2-0.1-0.3
			c0.2,0,0.5,0,0.5,0c0.1,0,0.1,0,0.1-0.1v-0.3h-1.3v-0.2h1.3v-0.3h-1.6v-0.2h1.6v-0.3h-1.3v-0.2h1.3v-0.3h-1.1v-0.7h1.1V127h-1.6
			v-0.2h1.6v-0.3h0.3v0.3h1.6v0.2h-1.6v0.2h1.2v0.7h-1.2v0.3h1.3v0.5h0.4V128.9z M265.9,127.7v-0.3h-0.9v0.3H265.9z M266.2,127.4
			v0.3h0.9v-0.3H266.2z M266.2,128.7h1v-0.3h-1V128.7z M267.2,128.9h-1v0.3h1V128.9z"/>
		<path fill="#A7A9AC" d="M269.7,129.4c-0.3,0.2-0.8,0.4-1.2,0.5c0-0.1-0.1-0.2-0.2-0.2c0.4-0.1,0.9-0.2,1.2-0.4L269.7,129.4z
			 M271.8,128.9v0.3h-1.6v0.9h-0.3v-0.9h-1.6v-0.3h1.6v-0.3h-1.2v-0.2h1.2v-0.3h-1.4v-0.2h0.9c0-0.1-0.1-0.3-0.2-0.4l0.2-0.1h-1
			v-0.2h0.6c-0.1-0.2-0.2-0.4-0.3-0.6l0.3-0.1c0.1,0.2,0.3,0.4,0.3,0.6l-0.2,0.1h0.5v-0.7h0.3v0.7h0.5v-0.7h0.3v0.7h0.5l-0.2-0.1
			c0.1-0.2,0.2-0.4,0.3-0.6l0.3,0.1c-0.1,0.2-0.2,0.4-0.3,0.6h0.6v0.2h-1l0.3,0.1c-0.1,0.1-0.2,0.3-0.3,0.4h0.9v0.2h-1.4v0.3h1.3
			v0.2h-1.3v0.3H271.8z M269.5,127.4c0.1,0.1,0.2,0.3,0.2,0.4l-0.2,0h1.1l-0.1,0c0.1-0.1,0.2-0.3,0.2-0.4H269.5z M270.7,129.3
			c0.4,0.1,0.9,0.3,1.2,0.4l-0.2,0.2c-0.3-0.1-0.8-0.3-1.2-0.5L270.7,129.3z"/>
	</g>
	<path fill="#A7A9AC" d="M268.2,151.7L268.2,151.7c-0.9,0-1.6-0.7-1.6-1.6l0,0c0-0.9,0.7-1.6,1.6-1.6l0,0c0.9,0,1.6,0.7,1.6,1.6l0,0
		C269.7,151,269,151.7,268.2,151.7z"/>
	<g>
		<path fill="#A7A9AC" d="M261.3,154.7c-0.1,0.3-0.2,0.5-0.3,0.8v2.8h-0.3V156c-0.1,0.2-0.2,0.3-0.3,0.4c0-0.1-0.1-0.2-0.1-0.3
			c0.3-0.4,0.6-0.9,0.7-1.5L261.3,154.7z M262.1,156.1c-0.1,0.6-0.1,1-0.3,1.4c0.4,0.4,0.9,0.5,1.5,0.5c0.1,0,0.5,0,0.7,0
			c0,0.1-0.1,0.2-0.1,0.3h-0.6c-0.6,0-1.1-0.1-1.6-0.5c-0.1,0.2-0.3,0.4-0.5,0.6c0-0.1-0.1-0.2-0.2-0.2c0.2-0.1,0.4-0.3,0.5-0.6
			c-0.1-0.2-0.3-0.4-0.4-0.7l0.2-0.1c0.1,0.2,0.1,0.4,0.2,0.6c0.1-0.3,0.2-0.6,0.2-0.9h-0.6c0.1-0.3,0.3-0.7,0.5-1.1h-0.4v-0.3h0.8
			c-0.1,0.4-0.3,0.8-0.5,1.2h0.3l0,0L262.1,156.1z M262.8,155.7h-0.7v-0.2h0.7v-0.3h-0.5V155h0.5v-0.3h0.3v0.3h0.6v0.5h0.3v0.2h-0.3
			v0.5h-0.6v0.3h0.7v0.2h-0.7v0.3h0.8v0.2h-0.8v0.5h-0.3v-0.5h-0.7v-0.2h0.7v-0.3h-0.6v-0.2h0.6v-0.3h-0.5V156h0.5V155.7z
			 M263.1,155.5h0.4v-0.3h-0.4V155.5z M263.4,155.7h-0.4v0.3h0.4V155.7z"/>
		<path fill="#A7A9AC" d="M266.5,157.3c0.1,0,0.2,0.1,0.3,0.1c0.2-0.1,0.5-0.3,0.7-0.5l0.2,0.2c-0.2,0.2-0.4,0.3-0.6,0.4
			c0.3,0.1,0.6,0.3,0.8,0.4l-0.1,0.2c-0.3-0.2-0.8-0.4-1.2-0.6v0.4c0,0.2,0,0.3-0.2,0.3c-0.1,0-0.3,0-0.7,0c0-0.1-0.1-0.2-0.1-0.3
			c0.2,0,0.5,0,0.6,0c0.1,0,0.1,0,0.1-0.1v-0.4c-0.4,0.2-0.9,0.4-1.2,0.5l-0.1-0.2c0.3-0.1,0.8-0.3,1.3-0.5v-0.4h-1.1v-0.2h1.1v-0.3
			H265v-0.2h1.2v-0.3h-1v-0.2h1v-0.3h-1.3v0.9c0,0.6-0.1,1.5-0.4,2.1c-0.1-0.1-0.2-0.1-0.2-0.2c0.3-0.6,0.3-1.4,0.3-2V155h1.6
			c-0.1-0.1-0.1-0.2-0.2-0.3l0.3-0.1c0.1,0.1,0.2,0.3,0.2,0.4h1.4v0.3h-1.4v0.3h1.1v0.5h0.4v0.3h-0.4v0.5h-1.1V157.3z M265.3,156.9
			c0.2,0.1,0.5,0.3,0.6,0.4l-0.2,0.2c-0.1-0.1-0.4-0.3-0.6-0.4L265.3,156.9z M266.5,156.1h0.8v-0.3h-0.8V156.1z M266.5,156.6h0.8
			v-0.3h-0.8V156.6z"/>
		<path fill="#A7A9AC" d="M269.7,155.6h-1.4v-0.2h1.4V155.6z M269.6,158h-0.9v0.2h-0.3v-1.3h1.1V158z M269.6,156.1h-1.1v-0.2h1.1
			V156.1z M268.5,156.4h1.1v0.2h-1.1V156.4z M268.7,157.1v0.7h0.6v-0.7H268.7z M269.1,155.3c-0.1-0.1-0.2-0.4-0.3-0.5l0.2-0.1
			c0.1,0.2,0.2,0.4,0.3,0.5L269.1,155.3z M270,156.1c-0.1,0.1-0.1,0.2-0.2,0.2c0,0-0.1-0.2-0.2-0.2c0.2-0.2,0.4-0.5,0.5-0.8l0.2,0.1
			v-0.2h-0.6v-0.2h0.6v-0.2h0.3v0.7h-0.3c0,0.1-0.1,0.2-0.1,0.3h0.5c0-0.1-0.1-0.2-0.1-0.3l0.3-0.1c0,0.1,0.1,0.2,0.1,0.3h0.7v0.2
			h-0.8v0.2h0.7v0.2h-0.7v0.2h0.7v0.2h-0.7v0.2h0.9v0.2h-1.7v0.1H270V156.1z M271.8,157.2c-0.1,0.3-0.4,0.5-0.6,0.6
			c0.3,0.1,0.6,0.2,0.9,0.2c-0.1,0.1-0.1,0.2-0.2,0.2c-0.4-0.1-0.7-0.2-1-0.3c-0.3,0.2-0.7,0.3-1.1,0.3c0-0.1-0.1-0.2-0.1-0.2
			c0.3,0,0.7-0.1,0.9-0.2c-0.2-0.1-0.3-0.3-0.5-0.4l0.1,0h-0.4v-0.2h1.7l0,0L271.8,157.2z M270.8,155.8h-0.5v0.2h0.5V155.8z
			 M270.8,156.2h-0.5v0.2h0.5V156.2z M270.8,156.6h-0.5v0.2h0.5V156.6z M270.4,157.3c0.1,0.1,0.3,0.3,0.5,0.4
			c0.2-0.1,0.4-0.2,0.5-0.4H270.4z M271.3,155.3h-0.3v-0.7h0.3v0.2h0.6v0.2h-0.6V155.3z"/>
		<path fill="#A7A9AC" d="M273.6,157.5c-0.4,0.1-0.9,0.3-1.2,0.4l-0.1-0.3c0.1,0,0.3-0.1,0.5-0.2v-1.1h-0.5V156h0.5v-0.9h-0.5v-0.3
			h1.2v0.3h-0.5v0.9h0.4v0.3h-0.4v1l0.4-0.1L273.6,157.5z M276,157.9v0.3h-2.6v-0.3h1.2v-0.5h-0.9v-0.3h0.9v-0.5h-0.9v-1.8h2v1.8
			h-0.9v0.5h0.9v0.3h-0.9v0.5H276z M274.1,155.6h0.6v-0.5h-0.6V155.6z M274.1,156.3h0.6v-0.5h-0.6V156.3z M275.5,155.1h-0.6v0.5h0.6
			V155.1z M275.5,155.8h-0.6v0.5h0.6V155.8z"/>
	</g>
	<path fill="#002A5E" d="M271.2,111.5L271.2,111.5c-8.9,0-16.1-7.2-16.1-16.1v0c0-8.9,7.2-16.1,16.1-16.1h0
		c8.9,0,16.1,7.2,16.1,16.1v0C287.2,104.3,280,111.5,271.2,111.5z"/>
	<g>
		<path fill="#FFFFFF" d="M268.9,96.9H266v0.9c0,0.6-0.1,1.6-0.4,2.2c-0.1,0-0.2-0.1-0.3-0.1c0.3-0.6,0.4-1.5,0.4-2.1v-1.1h3.2V96.9
			z M266.9,99c-0.2,0.3-0.5,0.6-0.7,0.8c-0.1,0-0.2-0.1-0.3-0.2c0.2-0.2,0.5-0.5,0.7-0.8L266.9,99z M267.6,98.7v1
			c0,0.2,0,0.2-0.2,0.3c-0.1,0-0.3,0-0.6,0c0-0.1-0.1-0.2-0.1-0.3c0.2,0,0.4,0,0.5,0c0.1,0,0.1,0,0.1-0.1v-1h-1v-1.4h0.8
			c0.1-0.1,0.1-0.3,0.2-0.4l0.3,0.1c-0.1,0.1-0.1,0.2-0.2,0.3h1.2v1.4H267.6z M266.6,97.9h1.7v-0.4h-1.7V97.9z M266.6,98.5h1.7v-0.4
			h-1.7V98.5z M268.2,98.9c0.2,0.2,0.6,0.6,0.7,0.8l-0.2,0.2c-0.1-0.2-0.5-0.6-0.7-0.8L268.2,98.9z"/>
		<path fill="#FFFFFF" d="M270.3,98.6v1.5H270v-1.4c-0.2,0.1-0.5,0.1-0.7,0.2l-0.1-0.3c0.2-0.1,0.5-0.1,0.7-0.2v-0.9h-0.4
			c0,0.2-0.1,0.4-0.2,0.6c-0.1,0-0.2-0.1-0.2-0.1c0.2-0.3,0.2-0.8,0.3-1.3l0.3,0c0,0.2,0,0.4-0.1,0.5h0.3v-0.8h0.3v0.8h0.4v0.3h-0.4
			v0.8l0.5-0.1l0,0.3L270.3,98.6z M272.9,97.1c0,0,0,0.1,0,0.1c-0.1,1.8-0.2,2.4-0.3,2.6c-0.1,0.1-0.2,0.1-0.3,0.2
			c-0.1,0-0.3,0-0.5,0c0-0.1,0-0.2-0.1-0.3c0.2,0,0.3,0,0.4,0c0.1,0,0.1,0,0.1-0.1c0.1-0.1,0.2-0.7,0.3-2.3h-0.2
			c-0.2,1-0.6,2.1-1.3,2.6c-0.1-0.1-0.2-0.1-0.2-0.2c0.7-0.5,1.1-1.5,1.3-2.5h-0.3c-0.2,0.7-0.5,1.4-1,1.8c-0.1-0.1-0.2-0.1-0.2-0.2
			c0.4-0.3,0.8-1,1-1.6h-0.3c-0.1,0.3-0.3,0.6-0.5,0.8c0,0-0.2-0.1-0.2-0.2c0.3-0.4,0.6-0.9,0.7-1.5l0.3,0.1c0,0.2-0.1,0.4-0.2,0.6
			h1.3v0L272.9,97.1z"/>
		<path fill="#FFFFFF" d="M273.9,98.3c-0.1,0.4-0.3,1-0.5,1.3c0-0.1-0.1-0.2-0.2-0.3c0.2-0.2,0.3-0.7,0.4-1L273.9,98.3z M274.3,98v2
			H274v-2h-0.6v-0.3h0.6v-1.3h0.3v1.3h0.7V98H274.3z M273.6,97.6c0-0.2-0.1-0.6-0.2-0.9l0.2-0.1c0.1,0.3,0.2,0.6,0.2,0.9L273.6,97.6
			z M274.5,98.2c0.1,0.1,0.4,0.7,0.4,0.8l-0.2,0.2c-0.1-0.2-0.3-0.7-0.4-0.9L274.5,98.2z M274.9,96.7c-0.1,0.3-0.2,0.7-0.3,0.9
			l-0.2-0.1c0.1-0.2,0.2-0.6,0.3-0.9L274.9,96.7z M276.5,98.9v1.1h-0.3V99l-1.2,0.2l0-0.3l1.3-0.2v-2.3h0.3v2.2l0.5-0.1l0,0.3
			L276.5,98.9z M275.7,98.4c-0.1-0.1-0.4-0.3-0.7-0.5l0.1-0.2c0.2,0.1,0.5,0.3,0.7,0.4L275.7,98.4z M275.8,97.4
			c-0.1-0.2-0.4-0.4-0.6-0.5l0.2-0.2c0.2,0.1,0.5,0.3,0.6,0.5L275.8,97.4z"/>
	</g>
	<g>
		<path fill="#FFFFFF" d="M266,94.1v-2.1l-0.5,0.4l-0.3-0.5l0.9-0.7h0.6v2.8H266z"/>
		<path fill="#FFFFFF" d="M268.7,94.2c-0.5,0-0.9-0.3-1.1-0.7l0.6-0.2c0.1,0.2,0.2,0.3,0.5,0.3c0.2,0,0.4-0.1,0.4-0.4
			c0-0.3-0.3-0.4-0.6-0.4c-0.2,0-0.5,0.1-0.7,0.1l0.1-1.6h1.7v0.6h-1.1l0,0.4c0.1,0,0.2,0,0.3,0c0.6,0,1,0.3,1,0.9
			C269.8,93.9,269.2,94.2,268.7,94.2z"/>
		<path fill="#FFFFFF" d="M270.6,94.2c-0.2,0-0.4-0.2-0.4-0.4c0-0.2,0.2-0.4,0.4-0.4c0.2,0,0.4,0.2,0.4,0.4S270.8,94.2,270.6,94.2z"
			/>
		<path fill="#FFFFFF" d="M272.5,94.2c-0.5,0-1-0.2-1.1-0.8l0.6-0.2c0.1,0.2,0.2,0.4,0.5,0.4c0.2,0,0.4-0.1,0.4-0.4
			c0-0.3-0.3-0.4-0.6-0.4h-0.2v-0.5h0.2c0.3,0,0.5-0.1,0.5-0.3c0-0.2-0.2-0.3-0.4-0.3c-0.2,0-0.3,0.1-0.4,0.3l-0.6-0.1
			c0.1-0.5,0.6-0.7,1.1-0.7c0.5,0,1,0.3,1,0.8c0,0.3-0.2,0.5-0.5,0.6v0c0.3,0.1,0.5,0.3,0.5,0.7C273.6,93.9,273,94.2,272.5,94.2z"/>
		<path fill="#FFFFFF" d="M274.7,92.8c-0.4,0-0.8-0.3-0.8-0.8c0-0.4,0.3-0.8,0.8-0.8c0.4,0,0.8,0.3,0.8,0.8
			C275.4,92.4,275.1,92.8,274.7,92.8z M274.7,91.7c-0.2,0-0.3,0.1-0.3,0.3s0.1,0.3,0.3,0.3c0.2,0,0.3-0.1,0.3-0.3
			S274.9,91.7,274.7,91.7z M275,94.3l-0.4-0.2l1.7-2.9l0.4,0.2L275,94.3z M276.6,94.2c-0.4,0-0.8-0.3-0.8-0.8c0-0.4,0.3-0.8,0.8-0.8
			c0.4,0,0.8,0.3,0.8,0.8C277.4,93.8,277,94.2,276.6,94.2z M276.6,93.1c-0.2,0-0.3,0.1-0.3,0.3s0.1,0.3,0.3,0.3
			c0.2,0,0.3-0.1,0.3-0.3S276.8,93.1,276.6,93.1z"/>
	</g>
	<path fill="#002A5E" d="M296.7,93.6L296.7,93.6c-6.1,0-11-4.9-11-11v0c0-6.1,4.9-11,11-11l0,0c6.1,0,11,4.9,11,11v0
		C307.7,88.6,302.8,93.6,296.7,93.6z"/>
	<g>
		<path fill="#FFFFFF" d="M294.5,87.3c0,0.2,0,0.2-0.1,0.3c-0.1,0-0.3,0-0.5,0c0-0.1-0.1-0.2-0.1-0.2c0.2,0,0.4,0,0.4,0
			c0.1,0,0.1,0,0.1-0.1v-0.6c-0.3,0.2-0.5,0.3-0.8,0.4l-0.1-0.2c0,0.3-0.1,0.5-0.3,0.7c0-0.1-0.1-0.2-0.2-0.2
			c0.2-0.3,0.3-0.7,0.3-1.1v-1h1.4V87.3z M294.3,84.3c0.2,0.3,0.4,0.6,0.5,0.9l-0.3,0.1c0-0.1-0.1-0.2-0.1-0.3
			c-1.1,0.1-1.2,0.1-1.3,0.1c0-0.1-0.1-0.2-0.1-0.3c0.1,0,0.1-0.1,0.2-0.2c0.1-0.1,0.3-0.4,0.5-0.7l0.3,0.1
			c-0.2,0.3-0.4,0.5-0.6,0.7l0.8-0.1c-0.1-0.1-0.2-0.3-0.2-0.4L294.3,84.3z M293.4,86.4c0,0.2,0,0.3,0,0.5c0.2-0.1,0.5-0.3,0.9-0.4
			v-0.8h-0.8V86.4z M293.6,85.9c0.2,0.1,0.5,0.3,0.6,0.4l-0.2,0.2c-0.1-0.1-0.4-0.3-0.6-0.4L293.6,85.9z M295.3,85.7
			c-0.4,0-0.4-0.1-0.4-0.5V84h0.3v0.6h1.1v0.3h-1.1v0.5c0,0.1,0,0.2,0.2,0.2h0.7c0.1,0,0.3,0,0.3,0c0,0.1,0,0.2,0,0.3
			c-0.1,0-0.2,0-0.4,0H295.3z M296.1,87.4c0.2,0,0.2-0.1,0.2-0.5c0.1,0,0.2,0.1,0.3,0.1c0,0.5-0.1,0.7-0.5,0.7h-0.7
			c-0.4,0-0.5-0.1-0.5-0.4v-1.3h0.3v0.5h1.1v0.3h-1.1v0.6c0,0.1,0,0.2,0.2,0.2H296.1z"/>
		<path fill="#FFFFFF" d="M297.5,85.8c-0.2-0.1-0.4-0.3-0.7-0.4l0.2-0.2c0.2,0.1,0.5,0.3,0.7,0.4L297.5,85.8z M297.8,86.3
			c-0.2,0.4-0.4,0.9-0.6,1.3l-0.3-0.2c0.2-0.3,0.4-0.8,0.6-1.3L297.8,86.3z M297.7,84.7c-0.2-0.1-0.4-0.3-0.7-0.5l0.2-0.2
			c0.2,0.1,0.5,0.3,0.7,0.4L297.7,84.7z M298.3,85.3c0,0.7-0.1,1.7-0.5,2.4c0-0.1-0.2-0.1-0.2-0.2c0.5-0.6,0.5-1.5,0.5-2.2v-1.1h2.4
			v0.3h-2.1V85.3z M299,86.6c-0.1,0.3-0.3,0.6-0.5,0.8c-0.1,0-0.2-0.1-0.2-0.2c0.2-0.2,0.4-0.5,0.5-0.7L299,86.6z M299.6,86.3v1
			c0,0.1,0,0.2-0.1,0.3c-0.1,0-0.3,0-0.5,0c0-0.1,0-0.2-0.1-0.3c0.2,0,0.4,0,0.4,0c0.1,0,0.1,0,0.1-0.1v-1h-0.7v-1.4h0.6
			c0-0.1,0.1-0.3,0.1-0.4l0.3,0.1c-0.1,0.1-0.1,0.2-0.2,0.3h0.9v1.4H299.6z M298.8,85.5h1.2v-0.3h-1.2V85.5z M298.8,86.1h1.2v-0.4
			h-1.2V86.1z M300.1,86.5c0.2,0.2,0.4,0.6,0.5,0.8l-0.3,0.1c-0.1-0.2-0.3-0.5-0.4-0.8L300.1,86.5z"/>
	</g>
	<g>
		<path fill="#FFFFFF" d="M291.5,82.5v-2.1l-0.5,0.4l-0.3-0.5l0.9-0.7h0.6v2.8H291.5z"/>
		<path fill="#FFFFFF" d="M294.3,82.6c-0.8,0-1.1-0.7-1.1-1.5c0-0.8,0.3-1.5,1.1-1.5c0.8,0,1.1,0.7,1.1,1.5
			C295.4,81.9,295.1,82.6,294.3,82.6z M294.3,80.2c-0.4,0-0.4,0.6-0.4,0.9c0,0.4,0.1,0.9,0.4,0.9c0.4,0,0.4-0.6,0.4-0.9
			C294.7,80.8,294.6,80.2,294.3,80.2z"/>
		<path fill="#FFFFFF" d="M296.2,82.6c-0.2,0-0.4-0.2-0.4-0.4c0-0.2,0.2-0.4,0.4-0.4c0.2,0,0.4,0.2,0.4,0.4S296.4,82.6,296.2,82.6z"
			/>
		<path fill="#FFFFFF" d="M298,82.6c-0.5,0-0.9-0.3-1.1-0.7l0.6-0.2c0.1,0.2,0.2,0.3,0.5,0.3c0.2,0,0.4-0.1,0.4-0.4
			c0-0.3-0.3-0.4-0.6-0.4c-0.2,0-0.5,0.1-0.7,0.1l0.1-1.6h1.7v0.6h-1.1l0,0.4c0.1,0,0.2,0,0.3,0c0.6,0,1,0.3,1,0.9
			C299.1,82.3,298.5,82.6,298,82.6z"/>
		<path fill="#FFFFFF" d="M300.2,81.2c-0.4,0-0.8-0.3-0.8-0.8c0-0.4,0.3-0.8,0.8-0.8c0.4,0,0.8,0.3,0.8,0.8
			C301,80.8,300.6,81.2,300.2,81.2z M300.2,80.1c-0.2,0-0.3,0.1-0.3,0.3s0.1,0.3,0.3,0.3c0.2,0,0.3-0.1,0.3-0.3
			S300.4,80.1,300.2,80.1z M300.5,82.7l-0.4-0.2l1.7-2.9l0.4,0.2L300.5,82.7z M302.1,82.6c-0.4,0-0.8-0.3-0.8-0.8
			c0-0.4,0.3-0.8,0.8-0.8c0.4,0,0.8,0.3,0.8,0.8C302.9,82.3,302.5,82.6,302.1,82.6z M302.1,81.5c-0.2,0-0.3,0.1-0.3,0.3
			s0.1,0.3,0.3,0.3c0.2,0,0.3-0.1,0.3-0.3S302.3,81.5,302.1,81.5z"/>
	</g>
	<path fill="#002A5E" d="M320.1,96.2L320.1,96.2c-4.9,0-8.8-4-8.8-8.8v0c0-4.9,4-8.8,8.8-8.8h0c4.9,0,8.8,4,8.8,8.8v0
		C328.9,92.2,325,96.2,320.1,96.2z"/>
	<g>
		<path fill="#FFFFFF" d="M319.9,90.3v0.3h-3.6v-0.3h1.6V88h-1.4v-0.3h3.2V88h-1.4v2.3H319.9z"/>
		<path fill="#FFFFFF" d="M321.8,90.3c-0.3,0.2-0.8,0.4-1.2,0.5c0-0.1-0.1-0.2-0.2-0.2c0.4-0.1,0.9-0.2,1.2-0.4L321.8,90.3z
			 M323.9,89.7V90h-1.6v0.9H322V90h-1.6v-0.3h1.6v-0.3h-1.2v-0.2h1.2v-0.3h-1.4v-0.2h0.9c0-0.1-0.1-0.3-0.2-0.4l0.2-0.1h-1V88h0.6
			c-0.1-0.2-0.2-0.4-0.3-0.6l0.3-0.1c0.1,0.2,0.3,0.4,0.3,0.6l-0.2,0.1h0.5v-0.7h0.3V88h0.5v-0.7h0.3V88h0.5l-0.2-0.1
			c0.1-0.2,0.2-0.4,0.3-0.6l0.3,0.1c-0.1,0.2-0.2,0.4-0.3,0.6h0.6v0.2h-1l0.3,0.1c-0.1,0.1-0.2,0.3-0.3,0.4h0.9v0.2h-1.4v0.3h1.3
			v0.2h-1.3v0.3H323.9z M321.5,88.2c0.1,0.1,0.2,0.3,0.2,0.4l-0.2,0h1.1l-0.1,0c0.1-0.1,0.2-0.3,0.2-0.4H321.5z M322.7,90.2
			c0.4,0.1,0.9,0.3,1.2,0.4l-0.2,0.2c-0.3-0.1-0.8-0.3-1.2-0.5L322.7,90.2z"/>
	</g>
	<g>
		<path fill="#FFFFFF" d="M316.4,86.4c-0.6,0-1.1-0.3-1.1-0.9c0-0.3,0.2-0.6,0.5-0.7v0c-0.2-0.1-0.4-0.3-0.4-0.6
			c0-0.5,0.5-0.8,1-0.8c0.5,0,1,0.3,1,0.8c0,0.3-0.2,0.5-0.4,0.6v0c0.3,0.1,0.5,0.3,0.5,0.7C317.5,86.1,317,86.4,316.4,86.4z
			 M316.4,85.1c-0.2,0-0.4,0.2-0.4,0.4c0,0.2,0.2,0.4,0.4,0.4c0.2,0,0.4-0.1,0.4-0.4C316.8,85.2,316.6,85.1,316.4,85.1z M316.4,83.9
			c-0.2,0-0.3,0.1-0.3,0.3c0,0.2,0.1,0.3,0.3,0.3c0.2,0,0.3-0.2,0.3-0.3C316.7,84,316.6,83.9,316.4,83.9z"/>
		<path fill="#FFFFFF" d="M318.3,86.3c-0.2,0-0.4-0.2-0.4-0.4c0-0.2,0.2-0.4,0.4-0.4c0.2,0,0.4,0.2,0.4,0.4S318.5,86.3,318.3,86.3z"
			/>
		<path fill="#FFFFFF" d="M321,85.7v0.6h-0.6v-0.6H319v-0.6l1.2-1.7h0.8v1.7h0.4v0.5H321z M320.3,84.1L320.3,84.1l-0.7,1h0.7V84.1z"
			/>
		<path fill="#FFFFFF" d="M322.4,84.9c-0.4,0-0.8-0.3-0.8-0.8c0-0.4,0.3-0.8,0.8-0.8c0.4,0,0.8,0.3,0.8,0.8
			C323.1,84.6,322.8,84.9,322.4,84.9z M322.4,83.8c-0.2,0-0.3,0.1-0.3,0.3s0.1,0.3,0.3,0.3c0.2,0,0.3-0.1,0.3-0.3
			S322.5,83.8,322.4,83.8z M322.7,86.4l-0.4-0.2l1.7-2.9l0.4,0.2L322.7,86.4z M324.3,86.3c-0.4,0-0.8-0.3-0.8-0.8
			c0-0.4,0.3-0.8,0.8-0.8c0.4,0,0.8,0.3,0.8,0.8C325,86,324.7,86.3,324.3,86.3z M324.3,85.3c-0.2,0-0.3,0.1-0.3,0.3s0.1,0.3,0.3,0.3
			c0.2,0,0.3-0.1,0.3-0.3S324.4,85.3,324.3,85.3z"/>
	</g>
	<g>
		<polygon fill="#58595B" points="246.8,35.7 216,35.7 216,22 246.8,22 252.6,29.2 		"/>
		<g>
			<path fill="#FFFFFF" d="M228.2,32.1h-4.3v-0.7l2.8-2.8c0.4-0.4,0.8-0.9,0.8-1.5c0-0.8-0.6-1.3-1.3-1.3s-1.2,0.5-1.4,1.2l-0.7-0.1
				c0.2-1,1-1.6,2.1-1.6c1.1,0,2,0.6,2,1.9c0,0.9-0.5,1.4-1.1,2l-2.4,2.4h3.6V32.1z"/>
			<path fill="#FFFFFF" d="M233.9,28.8c0,1.7-0.5,3.5-2.2,3.5c-1.7,0-2.2-1.8-2.2-3.5c0-1.7,0.5-3.5,2.2-3.5
				C233.4,25.2,233.9,27,233.9,28.8z M230.2,28.8c0,1.3,0.3,2.9,1.5,2.9c1.2,0,1.5-1.6,1.5-2.9c0-1.3-0.3-3-1.5-3
				C230.5,25.8,230.2,27.4,230.2,28.8z"/>
			<path fill="#FFFFFF" d="M239.4,28.8c0,1.7-0.5,3.5-2.2,3.5c-1.7,0-2.2-1.8-2.2-3.5c0-1.7,0.5-3.5,2.2-3.5
				C238.9,25.2,239.4,27,239.4,28.8z M235.7,28.8c0,1.3,0.3,2.9,1.5,2.9c1.2,0,1.5-1.6,1.5-2.9c0-1.3-0.3-3-1.5-3
				C236,25.8,235.7,27.4,235.7,28.8z"/>
			<path fill="#FFFFFF" d="M244.7,26l-2.7,6.1h-0.8L244,26h-3.3v-0.6h4V26z"/>
		</g>
	</g>
	
		<line fill="none" stroke="#007A6D" stroke-width="1.8763" stroke-linecap="round" stroke-linejoin="round" stroke-miterlimit="10" x1="216.4" y1="0.9" x2="216.4" y2="239.3"/>
	
		<line fill="none" stroke="#007A6D" stroke-width="1.8763" stroke-linecap="round" stroke-linejoin="round" stroke-miterlimit="10" x1="216.4" y1="267.8" x2="216.4" y2="292.2"/>
	<g>
		<polygon fill="#007A6D" points="215.6,55.7 185.4,55.7 178.1,49.7 185.4,42.1 215.6,42.1 		"/>
		<g>
			<path fill="#FFFFFF" d="M192.9,51.7h-4.3V51l2.8-2.8c0.4-0.4,0.8-0.9,0.8-1.5c0-0.8-0.6-1.3-1.3-1.3s-1.2,0.5-1.4,1.2l-0.7-0.1
				c0.2-1,1-1.6,2.1-1.6c1.1,0,2,0.6,2,1.9c0,0.9-0.5,1.4-1.1,2l-2.4,2.4h3.6V51.7z"/>
			<path fill="#FFFFFF" d="M198.6,48.3c0,1.7-0.5,3.5-2.2,3.5c-1.7,0-2.2-1.8-2.2-3.5c0-1.7,0.5-3.5,2.2-3.5
				C198.1,44.8,198.6,46.6,198.6,48.3z M194.9,48.3c0,1.3,0.3,2.9,1.5,2.9c1.2,0,1.5-1.6,1.5-2.9c0-1.3-0.3-3-1.5-3
				C195.2,45.3,194.9,47,194.9,48.3z"/>
			<path fill="#FFFFFF" d="M202.6,51.7h-0.7v-5.9l-1.2,1l-0.4-0.5l1.7-1.4h0.6V51.7z"/>
			<path fill="#FFFFFF" d="M209.4,45.6l-2.7,6.1h-0.8l2.8-6.1h-3.3v-0.6h4V45.6z"/>
		</g>
	</g>
	<g>
		<circle fill="#0074B7" cx="234.1" cy="227.3" r="8.6"/>
		<g>
			<defs>
				<circle id="SVGID_1_" cx="234.1" cy="227.3" r="8.6"/>
			</defs>
			<clipPath id="SVGID_2_">
				<use xlink:href="#SVGID_1_"  overflow="visible"/>
			</clipPath>
			<g clip-path="url(#SVGID_2_)">
				<polyline fill="none" stroke="#FFFFFF" stroke-width="0.9381" stroke-miterlimit="10" points="227.5,233.4 227.6,231.6 
					235.1,229.7 235.1,233.2 242.7,231.3 				"/>
				<path fill="none" stroke="#FFFFFF" stroke-width="0.9381" stroke-miterlimit="10" d="M229,231.1l0.5-6.3c0.6-0.3,1.3-0.3,2.1,0
					l0,5.8"/>
				<path fill="none" stroke="#FFFFFF" stroke-width="0.9381" stroke-miterlimit="10" d="M236.8,232.4l0.5-6.3
					c0.6-0.3,1.3-0.3,2.1,0l0,5.8"/>
				
					<line fill="none" stroke="#FFFFFF" stroke-width="0.9381" stroke-miterlimit="10" x1="232.3" y1="231.9" x2="232.3" y2="233.4"/>
				
					<line fill="none" stroke="#FFFFFF" stroke-width="0.9381" stroke-miterlimit="10" x1="230.3" y1="231.9" x2="230.3" y2="233.4"/>
				<path fill="none" stroke="#FFFFFF" stroke-width="0.9381" stroke-miterlimit="10" d="M229.8,223.4c0-0.9,2.3-2.3,2.6-2.2
					c0.3,0.1,0.8-1.7,2.7-1.4"/>
				<path fill="none" stroke="#FFFFFF" stroke-width="0.9381" stroke-miterlimit="10" d="M238,224.7c0-0.9,2.3-2.3,2.6-2.2"/>
				<path fill="none" stroke="#FFFFFF" stroke-width="0.9381" stroke-miterlimit="10" d="M232.2,224"/>
			</g>
		</g>
	</g>
	<g>
		<circle fill="#0074B7" cx="237.9" cy="210.4" r="8.6"/>
		<g>
			
				<polygon fill="none" stroke="#FFFFFF" stroke-width="0.9381" stroke-linecap="square" stroke-linejoin="bevel" stroke-miterlimit="10" points="
				233.2,207.3 238.1,209.4 242.5,207.1 238,205.1 			"/>
			
				<path fill="none" stroke="#FFFFFF" stroke-width="0.9381" stroke-linecap="round" stroke-linejoin="bevel" stroke-miterlimit="10" d="
				M233.2,207.3v5.9l5.2,2.6l-0.2-6.4l4.4-2.2v5.6c0,0-3.9,2.9-4.2,3"/>
		</g>
	</g>
	<g>
		<circle fill="#0074B7" cx="250.5" cy="222" r="8.6"/>
		<polygon fill="#FFFFFF" points="252.4,215.5 246.7,222.3 250.6,222.3 247.3,228.5 254.3,220.9 250.5,220.9 		"/>
	</g>
	<g>
		<circle fill="#73B564" cx="166.5" cy="243.3" r="15.3"/>
		<g>
			<path fill="#FFFFFF" d="M169.4,238.9c-0.8-0.8-1.4-1.2-2.6-1.2c-1.3,0-2.2,0.8-2.2,2.1c0,3.1,6,2.3,6,6.9c0,2-1.3,3.4-3.3,3.7
				v2.2H166v-2.1c-1.4-0.1-2.7-0.8-3.7-1.6l0.8-1.2c0.9,0.8,2,1.4,3.3,1.4c1.6,0,2.4-0.9,2.4-2.2c0-3.5-6-2.7-6-6.9
				c0-1.9,1.3-3.3,3.1-3.6v-2.2h1.3v2.1c1.4,0.2,2.3,0.8,3,1.6L169.4,238.9z"/>
		</g>
	</g>
	<g>
		<circle fill="#73B564" cx="195.6" cy="233.6" r="15.3"/>
		<g>
			
				<polyline fill="none" stroke="#FFFFFF" stroke-width="0.9381" stroke-linecap="round" stroke-linejoin="round" stroke-miterlimit="10" points="
				193.3,245.3 193.3,234 189.7,228 			"/>
			
				<line fill="none" stroke="#FFFFFF" stroke-width="0.9381" stroke-linecap="round" stroke-linejoin="round" stroke-miterlimit="10" x1="196.3" y1="245.3" x2="196.3" y2="225.6"/>
			
				<polyline fill="none" stroke="#FFFFFF" stroke-width="0.9381" stroke-linecap="round" stroke-linejoin="round" stroke-miterlimit="10" points="
				199.6,245 199.6,239.2 201.9,234.9 			"/>
			
				<circle fill="none" stroke="#FFFFFF" stroke-width="0.9381" stroke-linecap="round" stroke-linejoin="round" stroke-miterlimit="10" cx="188.6" cy="226.3" r="1.9"/>
			
				<circle fill="none" stroke="#FFFFFF" stroke-width="0.9381" stroke-linecap="round" stroke-linejoin="round" stroke-miterlimit="10" cx="196.3" cy="223.8" r="1.8"/>
			
				<circle fill="none" stroke="#FFFFFF" stroke-width="0.9381" stroke-linecap="round" stroke-linejoin="round" stroke-miterlimit="10" cx="202.7" cy="233.4" r="1.8"/>
		</g>
	</g>
	<g>
		<circle fill="#73B564" cx="172.9" cy="213.5" r="15.3"/>
		<g>
			
				<polygon fill="none" stroke="#FFFFFF" stroke-width="0.9381" stroke-linecap="round" stroke-linejoin="round" stroke-miterlimit="10" points="
				163.3,207.3 169.5,204.6 177.1,204.6 182.4,207.5 181.9,212.1 173.2,222.4 163.7,211.8 			"/>
			
				<polyline fill="none" stroke="#FFFFFF" stroke-width="0.9381" stroke-linecap="round" stroke-linejoin="round" stroke-miterlimit="10" points="
				163.3,207.3 169.9,208.5 177.1,208.4 182.4,207.5 			"/>
			
				<polyline fill="none" stroke="#FFFFFF" stroke-width="0.9381" stroke-linecap="round" stroke-linejoin="round" stroke-miterlimit="10" points="
				163.7,211.8 170.9,212.3 176.4,212.3 181.9,212.1 			"/>
			
				<polyline fill="none" stroke="#FFFFFF" stroke-width="0.9381" stroke-linecap="round" stroke-linejoin="round" stroke-miterlimit="10" points="
				177.1,204.6 177.1,208.4 176.4,212.3 173.2,222.4 169.9,208.5 169.5,204.6 			"/>
		</g>
	</g>
	
		<line fill="none" stroke="#007A6D" stroke-width="3.1271" stroke-linecap="round" stroke-linejoin="round" stroke-miterlimit="10" x1="168.5" y1="260.5" x2="264.9" y2="228"/>
	<polygon fill="#007A6D" points="216.5,243.8 206.5,262 225.6,262 	"/>
</g>
<g>
	<path fill="#939598" d="M12.5,255.2h-1.7v-0.4h1.7V255.2z M13,258.3c-0.5,0.3-1.2,0.6-1.8,0.7c-0.1-0.1-0.2-0.3-0.3-0.3
		c0.6-0.1,1.3-0.3,1.8-0.6L13,258.3z M12.4,254.3h-1.4V254h1.4V254.3z M11.6,255.7h3.9v2.4h-3.9V255.7z M12,256.4h3V256h-3V256.4z
		 M12,257.1h3v-0.4h-3V257.1z M12,257.8h3v-0.4h-3V257.8z M13.4,254.3c-0.1,0.2-0.3,0.4-0.4,0.6c-0.1-0.1-0.2-0.2-0.3-0.2
		c0.3-0.3,0.6-0.7,0.7-1.1l0.4,0.1c0,0.1-0.1,0.2-0.1,0.3h2l0.1,0l0.3,0.1c-0.1,0.3-0.3,0.7-0.5,0.9l-0.4-0.1
		c0.1-0.1,0.2-0.3,0.3-0.5h-1v0.1c0,0.1,0,0.1,0,0.2c0.3,0.4,1,0.6,1.8,0.7c-0.1,0.1-0.2,0.2-0.3,0.4c-0.7-0.1-1.3-0.3-1.6-0.7
		c-0.2,0.3-0.7,0.6-1.7,0.7c0-0.1-0.2-0.3-0.2-0.3c1.6-0.2,1.7-0.6,1.7-0.9v-0.1H13.4z M14.3,258.2c0.6,0.2,1.3,0.5,1.8,0.6
		l-0.4,0.3c-0.4-0.2-1-0.4-1.7-0.7L14.3,258.2z"/>
	<path fill="#939598" d="M17.8,256.5c-0.1,0.7-0.4,1.5-0.7,1.9c0-0.1-0.1-0.4-0.2-0.5c0.3-0.3,0.5-1,0.6-1.5L17.8,256.5z M18.3,256
		v3.1h-0.4V256h-1v-0.4h1v-2h0.4v2h1v0.4H18.3z M17.3,255.4c0-0.4-0.2-0.9-0.3-1.3l0.3-0.1c0.2,0.4,0.3,1,0.4,1.3L17.3,255.4z
		 M18.6,256.4c0.1,0.2,0.5,1,0.6,1.2l-0.3,0.3c-0.1-0.3-0.4-1.1-0.6-1.3L18.6,256.4z M19.3,254.1c-0.1,0.4-0.3,1-0.5,1.3l-0.3-0.1
		c0.1-0.4,0.3-0.9,0.4-1.3L19.3,254.1z M21.6,257.4v1.7h-0.4v-1.6l-1.9,0.3l-0.1-0.4l1.9-0.3v-3.4h0.4v3.4l0.7-0.1l0.1,0.4
		L21.6,257.4z M20.4,256.5c-0.2-0.2-0.6-0.5-1-0.7l0.2-0.3c0.4,0.2,0.8,0.5,1,0.7L20.4,256.5z M20.7,255.1c-0.2-0.2-0.6-0.6-0.9-0.8
		l0.2-0.3c0.3,0.2,0.7,0.5,0.9,0.7L20.7,255.1z"/>
	<path fill="#939598" d="M26,256.3c0.5,0.9,1.5,1.7,2.6,2.1c-0.1,0.1-0.3,0.3-0.3,0.4c-0.8-0.4-1.6-1-2.2-1.8v2.1h-0.5V257
		c-0.6,0.8-1.4,1.4-2.2,1.8c-0.1-0.1-0.2-0.3-0.3-0.4c1-0.4,2-1.2,2.5-2.1v-1.5h-2.3v-0.4h2.3v-0.8H26v0.8h2.4v0.4H26V256.3z
		 M24.7,255.1c-0.1,0.3-0.1,0.5-0.2,0.7c0.3,0.2,0.5,0.5,0.7,0.7l-0.3,0.3c-0.1-0.1-0.3-0.4-0.6-0.6c-0.2,0.4-0.5,0.7-0.8,0.9
		c-0.1-0.1-0.3-0.2-0.4-0.3c0.5-0.4,0.9-1,1.1-1.8L24.7,255.1z M27.5,255.1c0,0.3-0.1,0.5-0.2,0.7c0.4,0.3,0.8,0.7,1.1,0.9l-0.3,0.3
		c-0.2-0.2-0.6-0.6-0.9-0.9c-0.1,0.3-0.3,0.5-0.5,0.7c-0.1-0.1-0.3-0.2-0.4-0.2c0.4-0.4,0.7-1,0.9-1.6L27.5,255.1z"/>
	<path fill="#939598" d="M30.2,256.2c-0.2-0.2-0.7-0.5-1-0.6l0.3-0.3c0.3,0.2,0.8,0.4,1,0.6L30.2,256.2z M30.6,257.1
		c-0.2,0.6-0.6,1.4-0.9,1.9l-0.4-0.2c0.3-0.5,0.6-1.2,0.9-1.9L30.6,257.1z M30.5,254.7c-0.2-0.2-0.7-0.5-1-0.7l0.3-0.3
		c0.3,0.2,0.8,0.5,1,0.6L30.5,254.7z M31.4,255.5c0,1-0.1,2.5-0.8,3.5c-0.1-0.1-0.3-0.2-0.4-0.2c0.7-1,0.7-2.3,0.7-3.3v-1.6h3.6v0.4
		h-3.2V255.5z M32.3,257.5c-0.2,0.4-0.5,0.9-0.8,1.2c-0.1-0.1-0.3-0.2-0.4-0.2c0.3-0.3,0.5-0.7,0.7-1.1L32.3,257.5z M33.2,257v1.6
		c0,0.2,0,0.3-0.2,0.4c-0.2,0.1-0.4,0.1-0.8,0.1c0-0.1-0.1-0.3-0.1-0.4c0.3,0,0.6,0,0.6,0c0.1,0,0.1,0,0.1-0.1V257h-1.1V255h0.9
		c0.1-0.2,0.1-0.4,0.2-0.6l0.5,0.1c-0.1,0.2-0.2,0.3-0.2,0.5h1.3v2.1H33.2z M32.1,255.8H34v-0.5h-1.8V255.8z M32.1,256.7H34v-0.5
		h-1.8V256.7z M34,257.3c0.2,0.4,0.5,0.9,0.7,1.1l-0.4,0.2c-0.1-0.3-0.4-0.8-0.7-1.2L34,257.3z"/>
	<path fill="#939598" d="M35.5,255.9c0-0.3,0.2-0.4,0.4-0.4s0.4,0.2,0.4,0.4c0,0.2-0.2,0.4-0.4,0.4S35.5,256.1,35.5,255.9z
		 M35.5,258.3c0-0.2,0.2-0.4,0.4-0.4s0.4,0.2,0.4,0.4c0,0.2-0.2,0.4-0.4,0.4S35.5,258.5,35.5,258.3z"/>
	<path fill="#939598" d="M39,254.2h2.5v0.5h-2v1.5h1.7v0.5h-1.7v2H39V254.2z"/>
	<path fill="#939598" d="M42,257.8c0-0.7,0.6-1.1,2-1.2c0-0.4-0.1-0.8-0.7-0.8c-0.4,0-0.7,0.2-1,0.3l-0.2-0.4
		c0.3-0.2,0.8-0.4,1.3-0.4c0.8,0,1.1,0.5,1.1,1.3v2h-0.4l0-0.4h0c-0.3,0.3-0.7,0.5-1.1,0.5C42.4,258.7,42,258.4,42,257.8z M44,257.8
		v-0.9c-1.1,0.1-1.5,0.4-1.5,0.8c0,0.4,0.3,0.5,0.6,0.5C43.4,258.3,43.7,258.1,44,257.8z"/>
	<path fill="#939598" d="M45.5,257c0-1.1,0.7-1.7,1.6-1.7c0.4,0,0.7,0.2,1,0.4l-0.3,0.4c-0.2-0.2-0.4-0.3-0.7-0.3
		c-0.6,0-1,0.5-1,1.3s0.4,1.2,1,1.2c0.3,0,0.6-0.1,0.8-0.3l0.2,0.4c-0.3,0.3-0.7,0.4-1,0.4C46.1,258.7,45.5,258.1,45.5,257z"/>
	<path fill="#939598" d="M48.9,257.6v-1.8h-0.5v-0.4l0.5,0l0.1-0.9h0.5v0.9h0.9v0.4h-0.9v1.8c0,0.4,0.1,0.6,0.5,0.6
		c0.1,0,0.3,0,0.4-0.1l0.1,0.4c-0.2,0.1-0.4,0.1-0.6,0.1C49.2,258.7,48.9,258.3,48.9,257.6z"/>
	<path fill="#939598" d="M50.8,258.2l0.3-0.4c0.3,0.2,0.6,0.4,1,0.4c0.4,0,0.6-0.2,0.6-0.5c0-0.3-0.4-0.5-0.7-0.6
		c-0.5-0.2-1-0.4-1-0.9c0-0.5,0.4-0.9,1.1-0.9c0.4,0,0.8,0.2,1,0.4l-0.3,0.4c-0.2-0.2-0.5-0.3-0.7-0.3c-0.4,0-0.6,0.2-0.6,0.5
		c0,0.3,0.4,0.4,0.7,0.6c0.5,0.2,1,0.4,1,1c0,0.5-0.4,1-1.2,1C51.6,258.7,51.1,258.5,50.8,258.2z"/>
	<path fill="#939598" d="M53.9,257c0-1.1,0.7-1.7,1.5-1.7c0.8,0,1.3,0.6,1.3,1.5c0,0.1,0,0.2,0,0.3h-2.2c0,0.7,0.5,1.1,1.1,1.1
		c0.3,0,0.6-0.1,0.8-0.3l0.2,0.4c-0.3,0.2-0.6,0.3-1.1,0.3C54.6,258.7,53.9,258.1,53.9,257z M56.2,256.7c0-0.7-0.3-1-0.8-1
		c-0.5,0-0.9,0.4-0.9,1H56.2z"/>
	<path fill="#939598" d="M57.7,257.6v-1.8h-0.5v-0.4l0.5,0l0.1-0.9h0.5v0.9h0.9v0.4h-0.9v1.8c0,0.4,0.1,0.6,0.5,0.6
		c0.1,0,0.3,0,0.4-0.1l0.1,0.4c-0.2,0.1-0.4,0.1-0.6,0.1C57.9,258.7,57.7,258.3,57.7,257.6z"/>
	<path fill="#939598" d="M60.9,255.4c0.5,0,0.9,0.4,0.9,0.9c0,0.5-0.4,0.9-0.9,0.9c-0.5,0-0.9-0.4-0.9-0.9
		C60,255.8,60.4,255.4,60.9,255.4z M60.9,256.9c0.3,0,0.6-0.3,0.6-0.6c0-0.3-0.3-0.6-0.6-0.6c-0.3,0-0.6,0.3-0.6,0.6
		C60.3,256.7,60.6,256.9,60.9,256.9z"/>
	<path fill="#939598" d="M64.6,255.2h-1.7v-0.4h1.7V255.2z M65.1,258.3c-0.5,0.3-1.2,0.6-1.8,0.7c-0.1-0.1-0.2-0.3-0.3-0.3
		c0.6-0.1,1.3-0.3,1.8-0.6L65.1,258.3z M64.4,254.3H63V254h1.4V254.3z M63.7,255.7h3.9v2.4h-3.9V255.7z M64.1,256.4h3V256h-3V256.4z
		 M64.1,257.1h3v-0.4h-3V257.1z M64.1,257.8h3v-0.4h-3V257.8z M65.5,254.3c-0.1,0.2-0.3,0.4-0.4,0.6c-0.1-0.1-0.2-0.2-0.3-0.2
		c0.3-0.3,0.6-0.7,0.7-1.1l0.4,0.1c0,0.1-0.1,0.2-0.1,0.3h2l0.1,0l0.3,0.1c-0.1,0.3-0.3,0.7-0.5,0.9l-0.4-0.1
		c0.1-0.1,0.2-0.3,0.3-0.5h-1v0.1c0,0.1,0,0.1,0,0.2c0.3,0.4,1,0.6,1.8,0.7c-0.1,0.1-0.2,0.2-0.3,0.4c-0.7-0.1-1.3-0.3-1.6-0.7
		c-0.2,0.3-0.7,0.6-1.7,0.7c0-0.1-0.2-0.3-0.2-0.3c1.6-0.2,1.7-0.6,1.7-0.9v-0.1H65.5z M66.4,258.2c0.6,0.2,1.3,0.5,1.8,0.6
		l-0.4,0.3c-0.4-0.2-1-0.4-1.7-0.7L66.4,258.2z"/>
	<path fill="#939598" d="M69.9,256.5c-0.1,0.7-0.4,1.5-0.7,1.9c0-0.1-0.1-0.4-0.2-0.5c0.3-0.3,0.5-1,0.6-1.5L69.9,256.5z M70.4,256
		v3.1H70V256h-1v-0.4h1v-2h0.4v2h1v0.4H70.4z M69.4,255.4c0-0.4-0.2-0.9-0.3-1.3l0.3-0.1c0.2,0.4,0.3,1,0.4,1.3L69.4,255.4z
		 M70.7,256.4c0.1,0.2,0.5,1,0.6,1.2l-0.3,0.3c-0.1-0.3-0.4-1.1-0.6-1.3L70.7,256.4z M71.4,254.1c-0.1,0.4-0.3,1-0.5,1.3l-0.3-0.1
		c0.1-0.4,0.3-0.9,0.4-1.3L71.4,254.1z M73.7,257.4v1.7h-0.4v-1.6l-1.9,0.3l-0.1-0.4l1.9-0.3v-3.4h0.4v3.4l0.7-0.1l0.1,0.4
		L73.7,257.4z M72.5,256.5c-0.2-0.2-0.6-0.5-1-0.7l0.2-0.3c0.4,0.2,0.8,0.5,1,0.7L72.5,256.5z M72.8,255.1c-0.2-0.2-0.6-0.6-0.9-0.8
		L72,254c0.3,0.2,0.7,0.5,0.9,0.7L72.8,255.1z"/>
	<path fill="#939598" d="M77,257.9h-1.3v0.5h-0.4V254H77V257.9z M75.8,254.4v1.3h0.9v-1.3H75.8z M76.6,257.5v-1.4h-0.9v1.4H76.6z
		 M79.1,254.7v0.8h1.3v0.4h-0.5v0.7h0.7v0.4h-0.7v1.6c0,0.3-0.1,0.4-0.2,0.4c-0.2,0.1-0.5,0.1-1,0.1c0-0.1-0.1-0.3-0.1-0.4
		c0.4,0,0.7,0,0.8,0c0.1,0,0.1,0,0.1-0.1v-1.6h-2.3v-0.4h2.3v-0.7h-2v-0.4h1.2v-0.8h-1.5v-0.4h1.5v-0.7h0.4v0.7h1.5v0.4H79.1z
		 M77.9,257.1c0.3,0.3,0.6,0.7,0.8,1l-0.4,0.2c-0.1-0.3-0.5-0.7-0.8-1L77.9,257.1z"/>
	<path fill="#939598" d="M82,255.9v3.2h-0.4v-5.2h2.2v2H82z M82,254.2v0.5h1.3v-0.5H82z M83.3,255.6V255H82v0.5H83.3z M83.3,258.5
		v0.3h-0.4v-2.5h2.2v2.2H83.3z M83.3,256.7v0.6h1.4v-0.6H83.3z M84.7,258.2v-0.6h-1.4v0.6H84.7z M86.5,258.5c0,0.3-0.1,0.4-0.3,0.5
		c-0.2,0.1-0.5,0.1-1,0.1c0-0.1-0.1-0.3-0.2-0.5c0.4,0,0.7,0,0.8,0c0.1,0,0.1,0,0.1-0.1v-2.6h-1.8v-2.1h2.2V258.5z M84.7,254.2v0.5
		H86v-0.5H84.7z M86,255.6V255h-1.3v0.5H86z"/>
	<path fill="#939598" d="M92.7,257c-0.1,1.2-0.2,1.7-0.4,1.9c-0.1,0.1-0.2,0.1-0.4,0.2c-0.1,0-0.4,0-0.7,0c0-0.1,0-0.3-0.1-0.4
		c0.3,0,0.6,0,0.7,0c0.1,0,0.2,0,0.2-0.1c0.1-0.1,0.2-0.5,0.3-1.4h-3.6c-0.3,0.3-0.7,0.5-1,0.7c-0.1-0.1-0.2-0.3-0.2-0.4
		c1.1-0.6,1.9-1.5,2.5-2.5h-2.1v-0.4H89c-0.1-0.2-0.3-0.6-0.5-0.9l0.4-0.1c0.2,0.3,0.4,0.6,0.5,0.9l-0.3,0.1h1.1
		c0.2-0.3,0.3-0.7,0.4-1l0.4,0.1c-0.1,0.3-0.2,0.6-0.4,0.9h1.2c-0.1,0.4-0.1,0.8-0.2,1.1h0.7c-0.1,0.3-0.1,0.8-0.2,1.1h0.6L92.7,257
		z M87.7,258.8c0.4-0.3,0.6-0.8,0.7-1.2l0.4,0.1c-0.1,0.5-0.3,1-0.7,1.3L87.7,258.8z M89.7,256.1c-0.2,0.2-0.4,0.5-0.6,0.7h2.6
		c0-0.2,0.1-0.4,0.1-0.7H89.7z M89.5,257.7c0.1,0.3,0.2,0.8,0.2,1.1l-0.4,0.1c0-0.3,0-0.7-0.1-1.1L89.5,257.7z M90.4,255
		c-0.1,0.2-0.3,0.5-0.4,0.7h1.2c0.1-0.2,0.1-0.4,0.1-0.7H90.4z M90.4,257.6c0.2,0.3,0.3,0.7,0.3,1l-0.4,0.1c0-0.3-0.2-0.7-0.3-1
		L90.4,257.6z M91.4,258.4c-0.1-0.2-0.3-0.6-0.4-0.8l0.3-0.1c0.2,0.2,0.4,0.6,0.5,0.8L91.4,258.4z"/>
	<path fill="#939598" d="M93.6,258.3c1.4-1.2,2-2.1,2-2.8c0-0.5-0.3-0.9-0.8-0.9c-0.4,0-0.7,0.2-0.9,0.5l-0.3-0.3
		c0.4-0.4,0.7-0.6,1.3-0.6c0.8,0,1.3,0.5,1.3,1.3c0,0.9-0.7,1.8-1.7,2.7c0.2,0,0.5,0,0.7,0h1.2v0.5h-2.8V258.3z"/>
	<path fill="#939598" d="M97.1,256.4c0-1.5,0.5-2.3,1.4-2.3c0.8,0,1.4,0.7,1.4,2.3c0,1.5-0.5,2.3-1.4,2.3
		C97.6,258.7,97.1,257.9,97.1,256.4z M99.3,256.4c0-1.3-0.3-1.8-0.8-1.8c-0.5,0-0.8,0.5-0.8,1.8c0,1.3,0.3,1.9,0.8,1.9
		C99,258.3,99.3,257.7,99.3,256.4z"/>
	<path fill="#939598" d="M100.8,258.2h1v-3.3H101v-0.3c0.4-0.1,0.7-0.2,0.9-0.3h0.4v3.9h0.9v0.5h-2.4V258.2z"/>
	<path fill="#939598" d="M106.2,254.7h-2.1v-0.5h2.8v0.3c-1,1.3-1.2,2.3-1.3,4.1h-0.6C105,256.9,105.3,255.9,106.2,254.7z"/>
	<path fill="#939598" d="M112.9,257.7h-2.2v1.4h-0.4v-1.4h-2.8v-0.4h1v-1.6h1.8v-0.9h-1.5c-0.3,0.5-0.6,0.9-0.9,1.2
		c-0.1-0.1-0.3-0.2-0.4-0.3c0.6-0.5,1.1-1.3,1.3-2.1l0.5,0.1c-0.1,0.2-0.2,0.4-0.3,0.6h3.6v0.4h-1.9v0.9h1.8v0.4h-1.8v1.2h2.2V257.7
		z M110.3,257.3v-1.2H109v1.2H110.3z"/>
	<path fill="#939598" d="M114,257.9c0.2,0.2,0.5,0.3,0.7,0.3c0.6,0,1.1-0.5,1.1-1.8c-0.3,0.3-0.6,0.5-1,0.5c-0.7,0-1.2-0.5-1.2-1.4
		c0-0.9,0.6-1.4,1.3-1.4c0.8,0,1.5,0.7,1.5,2.1c0,1.8-0.8,2.5-1.6,2.5c-0.5,0-0.8-0.2-1.1-0.4L114,257.9z M115.9,255.9
		c-0.1-0.9-0.4-1.4-1-1.4c-0.4,0-0.7,0.4-0.7,1c0,0.6,0.3,1,0.8,1C115.2,256.5,115.6,256.4,115.9,255.9z"/>
	<path fill="#939598" d="M121.8,258.4c0,0.3-0.1,0.5-0.3,0.5c-0.2,0.1-0.6,0.1-1.3,0.1c0-0.1-0.1-0.3-0.2-0.5c0.5,0,1,0,1.1,0
		c0.1,0,0.2,0,0.2-0.2v-1.2h-2.9c-0.1,0.7-0.4,1.4-1,1.9c-0.1-0.1-0.2-0.3-0.3-0.3c1-0.8,1-2.1,1-3v-1.8h3.7V258.4z M121.3,256.8v-1
		h-2.7c0,0.3,0,0.7-0.1,1H121.3z M118.6,254.3v1h2.7v-1H118.6z"/>
	<path fill="#939598" d="M124.5,255.4c0.5,0,0.9,0.4,0.9,0.9c0,0.5-0.4,0.9-0.9,0.9c-0.5,0-0.9-0.4-0.9-0.9
		C123.6,255.8,124,255.4,124.5,255.4z M124.5,256.9c0.3,0,0.6-0.3,0.6-0.6c0-0.3-0.3-0.6-0.6-0.6c-0.3,0-0.6,0.3-0.6,0.6
		C123.9,256.7,124.2,256.9,124.5,256.9z"/>
	<path fill="#939598" d="M11.5,261.5h1.9v0.4h-1.5v3.5h-0.4V261.5z"/>
	<path fill="#939598" d="M16.2,266.2c-0.5,0.3-1.3,0.7-2,0.9c-0.1-0.1-0.2-0.2-0.3-0.3c0.6-0.2,1.5-0.5,1.9-0.8L16.2,266.2z
		 M19.3,265.8H14v-0.4h1.1v-2.7h-0.9v-0.4h0.9v-0.7h0.4v0.7h2.2v-0.7h0.4v0.7h1v0.4h-1v2.7h1.1V265.8z M15.5,262.7v0.6h2.2v-0.6
		H15.5z M15.5,264.3h2.2v-0.6h-2.2V264.3z M15.5,265.4h2.2v-0.7h-2.2V265.4z M17.4,265.9c0.7,0.2,1.5,0.6,1.9,0.8l-0.4,0.3
		c-0.4-0.3-1.1-0.6-1.8-0.8L17.4,265.9z"/>
	<path fill="#939598" d="M25.2,262.4v1.2h-0.5v-0.8h-4v0.8h-0.4v-1.2h2.4c-0.1-0.2-0.2-0.5-0.3-0.7l0.4-0.1c0.2,0.3,0.3,0.6,0.4,0.8
		l-0.1,0H25.2z M24.1,266.5c0.5,0,0.5-0.1,0.6-0.9c0.1,0.1,0.3,0.2,0.4,0.2c-0.1,0.9-0.3,1.2-1,1.2h-1.9c-0.8,0-1.1-0.2-1.1-0.8
		v-2.7h0.5v1.4c0.9-0.3,1.9-0.6,2.5-0.9l0.4,0.3c-0.8,0.4-1.9,0.7-2.9,1v0.9c0,0.3,0.1,0.4,0.6,0.4H24.1z"/>
	<path fill="#939598" d="M27.9,267.1H26v-0.4h1.5v-3.5h0.4V267.1z"/>
	<path fill="#939598" d="M34.5,264.8c-0.3,0.3-0.8,0.6-1.2,0.8c0.4,0.4,0.9,0.7,1.5,0.9c-0.1,0.1-0.2,0.3-0.3,0.4
		c-1.2-0.4-2.1-1.3-2.5-2.6c-0.3,0.3-0.6,0.6-0.9,0.8v1.3l1.5-0.4c0,0.1,0,0.3,0.1,0.4c-1.7,0.5-1.9,0.6-2,0.7
		c0-0.1-0.1-0.3-0.2-0.4c0.1,0,0.2-0.2,0.2-0.4v-0.9c-0.3,0.2-0.7,0.4-1,0.5c-0.1-0.1-0.2-0.3-0.3-0.4c0.7-0.2,1.6-0.7,2.2-1.2h-2
		v-0.4h2.4v-0.5H30V263h1.8v-0.5h-2.1v-0.4h2.1v-0.5h0.4v0.5h2.2v0.4h-2.2v0.5h1.9v0.4h-1.9v0.5h2.4v0.4h-2.2
		c0.2,0.4,0.4,0.7,0.6,1.1c0.4-0.2,0.8-0.6,1-0.8L34.5,264.8z"/>
	<path fill="#939598" d="M37.1,264.7c-0.3,0.7-0.7,1.4-1.2,1.9c-0.1-0.1-0.3-0.2-0.4-0.3c0.5-0.4,0.9-1.1,1.1-1.8L37.1,264.7z
		 M38.4,263.9v3.2H38v-3.2h-2.4v-0.4h5.2v0.4H38.4z M40.3,262.5h-4.2V262h4.2V262.5z M39.8,264.5c0.4,0.6,0.9,1.3,1.1,1.8l-0.4,0.2
		c-0.2-0.5-0.6-1.3-1-1.8L39.8,264.5z"/>
	<path fill="#939598" d="M43.8,261.9c-0.4,1-1.1,1.9-1.8,2.5c-0.1-0.1-0.3-0.3-0.4-0.4c0.7-0.6,1.3-1.4,1.7-2.3L43.8,261.9z
		 M45.5,264.8c0.5,0.6,1.1,1.5,1.3,2l-0.4,0.2c-0.1-0.2-0.2-0.4-0.3-0.6c-3.1,0.2-3.4,0.2-3.7,0.3c0-0.1-0.1-0.3-0.2-0.5
		c0.2,0,0.3-0.2,0.6-0.5c0.2-0.3,1-1.3,1.5-2.4l0.5,0.2c-0.5,0.9-1.1,1.9-1.8,2.6l2.8-0.2c-0.2-0.4-0.5-0.8-0.7-1.1L45.5,264.8z
		 M45.6,261.7c0.3,0.9,0.9,1.8,1.6,2.3c-0.1,0.1-0.3,0.3-0.3,0.4c-0.7-0.5-1.3-1.4-1.6-2.3h-1.1v-0.4H45.6z"/>
	<path fill="#939598" d="M52.8,266.4c0,0.3-0.1,0.5-0.3,0.5c-0.2,0.1-0.6,0.1-1.1,0.1c0-0.1-0.1-0.4-0.2-0.5c0.4,0,0.8,0,0.9,0
		c0.1,0,0.1,0,0.1-0.1v-4h-4.3V262h4.8V266.4z M51.7,263.4h-3.6V263h3.6V263.4z M48.9,266v0.4h-0.4v-2.3h2.8v1.9H48.9z M48.9,264.5
		v1.1h1.9v-1.1H48.9z"/>
	<path fill="#939598" d="M58.1,266.5c0.7,0,0.8-0.2,0.8-1.2c0.1,0.1,0.3,0.2,0.4,0.2c-0.1,1.1-0.3,1.4-1.3,1.4h-2.2
		c-1,0-1.3-0.2-1.3-0.9v-3H55v1h3.1v-1.6h-3.9V262h4.4v2.7h-0.5v-0.3H55v1.6c0,0.4,0.1,0.5,0.8,0.5H58.1z"/>
	<path fill="#939598" d="M61.9,265.2c0-0.1,0-0.2-0.1-0.3c-1.3,0.2-1.5,0.2-1.6,0.3c0-0.1-0.1-0.3-0.1-0.4c0.1,0,0.3-0.2,0.4-0.4
		c0.1-0.1,0.3-0.4,0.5-0.7c-0.6,0.1-0.7,0.1-0.8,0.1c0-0.1-0.1-0.3-0.1-0.4c0.1,0,0.2-0.1,0.3-0.3c0.1-0.2,0.5-0.9,0.8-1.5l0.4,0.2
		c-0.3,0.6-0.6,1.1-0.9,1.6l0.6,0c0.1-0.3,0.3-0.5,0.4-0.8l0.4,0.2c-0.4,0.7-0.9,1.4-1.3,1.9l0.9-0.1c-0.1-0.2-0.1-0.4-0.2-0.6
		l0.3-0.1c0.2,0.4,0.3,0.9,0.4,1.2L61.9,265.2z M60.7,265.5c-0.1,0.5-0.2,1.1-0.3,1.5c-0.1,0-0.3-0.1-0.4-0.1
		c0.1-0.4,0.2-0.9,0.3-1.4L60.7,265.5z M61.3,265.4c0.1,0.4,0.2,0.9,0.2,1.3l-0.4,0.1c0-0.3-0.1-0.9-0.1-1.3L61.3,265.4z
		 M61.9,265.3c0.1,0.3,0.3,0.7,0.3,1l-0.3,0.1c-0.1-0.3-0.2-0.7-0.3-1L61.9,265.3z M65.5,266.5v0.4h-3.4v-0.4h1.5v-1.1h-1.2V265h2.8
		v0.4h-1.2v1.1H65.5z M63,264.8c-0.1-0.3-0.4-0.8-0.7-1.2c0.2-0.4,0.5-0.8,0.6-1.1l0.4,0.1c-0.2,0.3-0.4,0.7-0.6,1
		c0.3,0.3,0.5,0.8,0.7,1L63,264.8z M65.5,262.3h-3.2v-0.4h3.2V262.3z M64.3,262.6c-0.2,0.3-0.4,0.7-0.6,1c0.3,0.3,0.5,0.8,0.7,1
		l-0.4,0.2c-0.1-0.3-0.4-0.8-0.7-1.2c0.2-0.4,0.5-0.8,0.6-1.1L64.3,262.6z M65.1,264.8c-0.1-0.3-0.5-0.8-0.8-1.2
		c0.3-0.4,0.5-0.8,0.7-1.1l0.4,0.1c-0.2,0.3-0.4,0.7-0.6,1c0.3,0.3,0.6,0.7,0.7,1L65.1,264.8z"/>
	<path fill="#939598" d="M69.6,262.5c-0.1,0.2-0.3,0.4-0.4,0.7v3.9h-0.5v-3.3c-0.6,0.7-1.3,1.3-2.2,1.7c-0.1-0.1-0.2-0.3-0.3-0.4
		c1.2-0.6,2.2-1.6,2.8-2.6h-2.7V262h5.1v0.4H69.6z M69.7,263.5c0.7,0.4,1.6,1.1,2,1.6l-0.4,0.3c-0.4-0.5-1.3-1.2-2-1.6L69.7,263.5z"
		/>
	<path fill="#939598" d="M74.5,262.8c-0.2,0.5-0.5,0.9-0.8,1.4v2.9h-0.4v-2.4c-0.2,0.2-0.4,0.4-0.7,0.6c0-0.1-0.2-0.3-0.2-0.4
		c0.7-0.5,1.3-1.3,1.7-2.1h-1.5v-0.4h1.7c0.1-0.3,0.2-0.5,0.3-0.8l0.5,0.1c-0.1,0.2-0.1,0.4-0.2,0.7h3.1v0.4H74.5z M77.8,265.4h-1.6
		v1.1c0,0.3-0.1,0.4-0.3,0.5c-0.2,0.1-0.5,0.1-1,0.1c0-0.1-0.1-0.3-0.1-0.4c0.4,0,0.8,0,0.9,0c0.1,0,0.1,0,0.1-0.1v-1.1h-1.7V265
		h1.7v-0.5c0.3-0.2,0.6-0.4,0.9-0.6h-2v-0.4h2.4l0.1,0l0.3,0.2c-0.3,0.4-0.8,0.7-1.2,1v0.3h1.6V265.4z"/>
	<path fill="#939598" d="M83.9,262.5v0.4h-3.3c-0.2,0.4-0.4,0.8-0.7,1.2v2.9h-0.4v-2.4c-0.2,0.2-0.4,0.4-0.7,0.6
		c0-0.1-0.2-0.3-0.2-0.4c0.7-0.5,1.2-1.2,1.6-2h-1.4v-0.4h1.6c0.1-0.3,0.2-0.6,0.3-0.9l0.5,0.1c-0.1,0.3-0.2,0.5-0.3,0.8H83.9z
		 M82.3,266.5h1.6v0.4h-3.6v-0.4h1.6v-1.7h-1.3v-0.4h1.3v-1.1h0.4v1.1h1.3v0.4h-1.3V266.5z"/>
	<path fill="#939598" d="M85.3,265.2c0.5-0.2,0.7-0.5,0.8-0.9c0,0-0.1,0-0.1,0c-0.2,0-0.4-0.1-0.4-0.4s0.2-0.4,0.5-0.4
		c0.3,0,0.5,0.3,0.5,0.7c0,0.6-0.4,1.1-1,1.4L85.3,265.2z"/>
	<path fill="#939598" d="M90.6,266.1c-0.9,0.2-1.9,0.4-2.6,0.6l-0.1-0.4c0.6-0.1,1.7-0.3,2.6-0.5L90.6,266.1z M92.9,263.5
		c-0.3,0.8-0.6,1.5-1.1,2.1c0.2,0.6,0.5,1,0.8,1c0.2,0,0.2-0.3,0.3-1.1c0.1,0.1,0.3,0.2,0.4,0.3c-0.1,1-0.2,1.3-0.7,1.3
		c-0.4,0-0.8-0.4-1.1-1c-0.4,0.4-0.8,0.7-1.3,1c-0.1-0.1-0.2-0.3-0.3-0.3c0.6-0.3,1-0.7,1.4-1.2c-0.2-0.7-0.3-1.6-0.4-2.6H88v-0.4
		h2.9c0-0.3,0-0.6,0-0.9h0.5c0,0.3,0,0.6,0,0.9h1.8v0.4h-1.8c0.1,0.8,0.2,1.5,0.3,2.1c0.3-0.5,0.6-1,0.8-1.7L92.9,263.5z
		 M90.4,263.5v1.8h-2.1v-1.8H90.4z M90,263.9h-1.2v1H90V263.9z M92.7,262.5c-0.2-0.2-0.6-0.5-1-0.7l0.3-0.3c0.4,0.2,0.8,0.4,1,0.6
		L92.7,262.5z"/>
	<path fill="#939598" d="M97,266.5c0.2,0,0.5,0,0.7,0c0.2,0,1.5,0,1.8,0c-0.1,0.1-0.1,0.3-0.2,0.4h-1.6c-1.2,0-2-0.2-2.5-1
		c-0.2,0.5-0.5,0.8-0.9,1.1c-0.1-0.1-0.2-0.2-0.3-0.3c0.6-0.4,1-1.1,1.2-1.9l0.4,0.1c0,0.2-0.1,0.4-0.2,0.6c0.2,0.5,0.6,0.8,1.1,1
		v-1.8h-2.5v-0.4h5.3v0.4H97v0.7h2v0.4h-2V266.5z M98.7,263.8h-4v-2h4V263.8z M98.3,262.2h-3.1v0.5h3.1V262.2z M98.3,263h-3.1v0.5
		h3.1V263z"/>
	<path fill="#939598" d="M104.3,266.5c0.7,0,0.8-0.2,0.8-1.2c0.1,0.1,0.3,0.2,0.4,0.2c-0.1,1.1-0.3,1.4-1.3,1.4H102
		c-1,0-1.3-0.2-1.3-0.9v-3h0.4v1h3.1v-1.6h-3.9V262h4.4v2.7h-0.5v-0.3h-3.1v1.6c0,0.4,0.1,0.5,0.8,0.5H104.3z"/>
	<path fill="#939598" d="M108,262.9c-0.1,0.3-0.3,0.5-0.5,0.8v3.4h-0.4v-2.9c-0.2,0.2-0.4,0.5-0.7,0.6c0-0.1-0.2-0.3-0.3-0.4
		c0.5-0.4,1.1-1,1.5-1.7L108,262.9z M107.9,261.7c-0.4,0.5-0.9,1.1-1.4,1.4c-0.1-0.1-0.2-0.2-0.3-0.3c0.5-0.3,1-0.8,1.3-1.2
		L107.9,261.7z M110.1,266.6c0.2,0,0.3,0,0.5,0h1.1c-0.1,0.1-0.1,0.3-0.1,0.4h-1c-0.9,0-1.5-0.2-1.9-1.1c-0.1,0.5-0.4,0.8-0.7,1.2
		c-0.1-0.1-0.2-0.2-0.3-0.3c0.6-0.5,0.8-1.3,0.9-2.4l0.4,0c0,0.3-0.1,0.6-0.1,0.9c0.2,0.6,0.5,1,0.8,1.2v-2.5h0.1
		c-0.1-0.1-0.2-0.2-0.3-0.2c0.6-0.4,0.9-1.2,1.1-2.1l0.4,0.1c-0.1,0.4-0.1,0.7-0.2,1c0.4,0.3,0.8,0.8,1,1l-0.3,0.3
		c-0.2-0.3-0.6-0.6-0.9-1c-0.2,0.4-0.4,0.7-0.7,0.9h0.2v1h1.3v0.4h-1.3V266.6z M109.6,263.5c-0.1-0.2-0.4-0.4-0.6-0.6
		c-0.2,0.4-0.5,0.8-0.8,1.1c-0.1-0.1-0.2-0.2-0.3-0.3c0.6-0.5,0.9-1.3,1.1-2.2l0.4,0.1c-0.1,0.3-0.2,0.6-0.3,0.9
		c0.2,0.2,0.5,0.4,0.7,0.6L109.6,263.5z"/>
	<path fill="#939598" d="M114.5,264.6l-0.7,0.2v1.7c0,0.3-0.1,0.4-0.2,0.4c-0.1,0.1-0.4,0.1-0.8,0.1c0-0.1-0.1-0.3-0.1-0.4
		c0.3,0,0.5,0,0.6,0c0.1,0,0.1,0,0.1-0.1V265c-0.3,0.1-0.6,0.2-0.8,0.2l-0.1-0.4c0.3-0.1,0.6-0.2,0.9-0.3v-1.3h-0.9v-0.4h0.9v-1.2
		h0.4v1.2h0.7v0.4h-0.7v1.1c0.2-0.1,0.5-0.1,0.7-0.2L114.5,264.6z M115.6,263.9c-0.6,0-0.8-0.2-0.8-0.7v-1.6h0.4v0.7h2.4v0.4h-2.4
		v0.5c0,0.2,0.1,0.3,0.3,0.3h1.6c0.2,0,0.5,0,0.7,0c0,0.1,0,0.3,0.1,0.4c-0.1,0-0.4,0-0.7,0H115.6z M114.8,264.5h2.8v2.6h-0.4v-0.3
		h-1.9v0.3h-0.4V264.5z M115.2,264.8v0.6h1.9v-0.6H115.2z M117.2,266.4v-0.6h-1.9v0.6H117.2z"/>
	<path fill="#939598" d="M121.3,265.5c-0.1,0.3-0.2,0.5-0.5,0.8c0.3,0.1,0.5,0.2,0.7,0.4l-0.3,0.3c-0.2-0.1-0.4-0.3-0.7-0.4
		c-0.4,0.2-0.9,0.4-1.7,0.5c0-0.1-0.1-0.2-0.2-0.3c0.6-0.1,1.1-0.2,1.4-0.4c-0.3-0.1-0.6-0.2-0.9-0.3c0.1-0.1,0.2-0.3,0.3-0.4
		l-0.7,0l0-0.3c0.3,0,0.6,0,1,0c0.1-0.2,0.2-0.3,0.3-0.5h-1v-1h1.1v-0.2h-1V263h-0.4v-0.3h0.4V262h1v-0.4h0.4v0.4h1v0.6h0.4v0.3
		h-0.4v0.6h-1v0.2h1.2v1h-1.3c-0.1,0.1-0.2,0.3-0.3,0.4c0.3,0,0.6,0,0.9,0v-0.1V265h0.4v0.2v0l0.3,0l0,0.3L121.3,265.5z
		 M119.3,264.5h0.7v-0.4h-0.7V264.5z M119.4,262.3v0.3h0.6v-0.3H119.4z M120,263.3v-0.4h-0.6v0.4H120z M119.8,265.6
		c-0.1,0.1-0.1,0.2-0.2,0.3c0.2,0.1,0.5,0.2,0.7,0.3c0.3-0.2,0.4-0.4,0.5-0.6L119.8,265.6z M120.4,262.3v0.3h0.6v-0.3H120.4z
		 M121,263.3v-0.4h-0.6v0.4H121z M120.4,264.2v0.4h0.8v-0.4H120.4z M123.6,263.1c-0.1,0.9-0.3,1.7-0.5,2.3c0.3,0.5,0.6,1,1,1.2
		c-0.1,0.1-0.2,0.2-0.3,0.3c-0.4-0.3-0.7-0.7-0.9-1.1c-0.3,0.5-0.6,0.9-1.1,1.2c0-0.1-0.2-0.3-0.2-0.3c0.5-0.3,0.9-0.8,1.1-1.3
		c-0.2-0.5-0.3-1-0.4-1.6c-0.1,0.2-0.2,0.5-0.3,0.7c-0.1-0.1-0.2-0.2-0.3-0.3c0.4-0.6,0.6-1.6,0.8-2.6l0.4,0.1c0,0.3-0.1,0.7-0.2,1
		h1.5v0.4H123.6z M122.5,263.1c0.1,0.6,0.2,1.2,0.4,1.8c0.2-0.5,0.3-1.1,0.3-1.8H122.5z"/>
	<path fill="#939598" d="M129.9,262.7v2.8h-0.5v-0.3h-1.7v1.9h-0.5v-1.9h-1.7v0.4h-0.4v-2.8h2.2v-1.1h0.5v1.1H129.9z M127.2,264.7
		v-1.6h-1.7v1.6H127.2z M129.4,264.7v-1.6h-1.7v1.6H129.4z"/>
	<path fill="#939598" d="M132.7,265.1c-0.1-0.2-0.3-0.5-0.5-0.8v2.7h-0.4v-2.7c-0.2,0.6-0.5,1.2-0.8,1.6c0-0.1-0.2-0.3-0.2-0.4
		c0.3-0.4,0.7-1.2,0.9-1.9h-0.8v-0.4h0.9v-1c-0.2,0-0.5,0.1-0.7,0.1c0-0.1-0.1-0.2-0.1-0.3c0.6-0.1,1.3-0.3,1.7-0.5l0.3,0.4
		c-0.2,0.1-0.4,0.2-0.7,0.2v1.1h0.7v0.4h-0.7v0.1c0.2,0.2,0.6,0.8,0.7,0.9L132.7,265.1z M136.3,264.4c-0.5,1.6-1.9,2.3-3.3,2.7
		c0-0.1-0.1-0.3-0.2-0.4c0.7-0.1,1.3-0.4,1.9-0.7c-0.2-0.2-0.5-0.5-0.8-0.7c-0.2,0.1-0.4,0.2-0.6,0.3c-0.1-0.1-0.2-0.2-0.3-0.3
		c0.9-0.4,1.5-1,1.8-1.6l0.5,0.1c-0.1,0.1-0.2,0.3-0.3,0.5h1l0.1,0L136.3,264.4z M136,262.3c-0.5,1.1-1.7,1.8-2.9,2.1
		c0-0.1-0.2-0.3-0.2-0.3c0.5-0.1,0.9-0.3,1.3-0.5c-0.2-0.2-0.4-0.4-0.7-0.6c-0.1,0.1-0.3,0.2-0.4,0.2c-0.1-0.1-0.2-0.2-0.3-0.3
		c0.7-0.4,1.3-0.9,1.5-1.3l0.5,0.1c-0.1,0.2-0.2,0.3-0.4,0.5h1.1l0.1,0L136,262.3z M134.2,262.5c-0.1,0.1-0.1,0.1-0.2,0.2
		c0.2,0.2,0.5,0.4,0.7,0.6c0.3-0.2,0.6-0.5,0.8-0.8H134.2z M134.6,264.7c-0.1,0.1-0.3,0.3-0.4,0.4c0.3,0.2,0.6,0.5,0.8,0.7
		c0.3-0.3,0.6-0.6,0.8-1H134.6z"/>
	<path fill="#939598" d="M139,262c-0.2,0.5-0.4,1.1-0.6,1.6c0.5,0.5,0.6,0.9,0.6,1.3c0,0.3-0.1,0.6-0.2,0.7
		c-0.1,0.1-0.2,0.1-0.3,0.1c-0.1,0-0.3,0-0.4,0c0-0.1,0-0.3-0.1-0.4c0.1,0,0.3,0,0.4,0c0.1,0,0.1,0,0.2-0.1c0.1-0.1,0.1-0.2,0.1-0.4
		c0-0.3-0.1-0.7-0.6-1.2c0.2-0.4,0.4-0.9,0.5-1.3h-0.8v4.8h-0.4v-5.2h1.3l0.1,0L139,262z M140,265.4c-0.2,0.5-0.6,1-0.9,1.3
		c-0.1-0.1-0.2-0.2-0.3-0.2c0.3-0.3,0.6-0.8,0.8-1.2L140,265.4z M141.1,261.7c0,0.1-0.1,0.1-0.1,0.2c0.5,0.6,1.1,1,1.6,1.3
		c-0.1,0.1-0.2,0.2-0.3,0.3c-0.5-0.3-1-0.7-1.6-1.4c-0.4,0.6-1,1.1-1.6,1.4c-0.1-0.1-0.2-0.2-0.3-0.3c0.7-0.4,1.5-1.1,1.9-1.8
		L141.1,261.7z M141,265v1.6c0,0.3-0.1,0.4-0.2,0.4c-0.2,0.1-0.5,0.1-0.9,0.1c0-0.1-0.1-0.3-0.2-0.4c0.3,0,0.6,0,0.7,0
		c0.1,0,0.1,0,0.1-0.1V265H139v-0.4h1.6v-0.7h-1v-0.4h2.4v0.4H141v0.7h1.5v0.4H141z M141.7,265.2c0.3,0.4,0.7,0.9,0.9,1.2l-0.4,0.2
		c-0.2-0.3-0.5-0.9-0.9-1.2L141.7,265.2z"/>
	<path fill="#939598" d="M144.4,263.4c0.5,0,0.9,0.4,0.9,0.9c0,0.5-0.4,0.9-0.9,0.9c-0.5,0-0.9-0.4-0.9-0.9
		C143.5,263.8,143.9,263.4,144.4,263.4z M144.4,264.9c0.3,0,0.6-0.3,0.6-0.6c0-0.3-0.3-0.6-0.6-0.6c-0.3,0-0.6,0.3-0.6,0.6
		C143.8,264.7,144.1,264.9,144.4,264.9z"/>
</g>
<g>
	<path fill="#0074B7" d="M11.4,8.1H13l1.3,3.5c0.2,0.5,0.3,0.9,0.4,1.4h0c0.2-0.5,0.3-1,0.4-1.4l1.2-3.5h1.6v7.4h-1.3v-3.1
		c0-0.7,0.1-1.7,0.2-2.4h0l-0.6,1.7l-1.1,3.1h-0.8l-1.1-3.1L12.6,10h0c0.1,0.7,0.2,1.7,0.2,2.4v3.1h-1.3V8.1z"/>
	<path fill="#0074B7" d="M19.4,14.6l0.8-1c0.5,0.5,1.2,0.8,1.9,0.8c0.8,0,1.2-0.3,1.2-0.8c0-0.5-0.4-0.7-1.1-1l-1-0.4
		c-0.8-0.3-1.5-0.9-1.5-2c0-1.2,1.1-2.1,2.6-2.1c0.9,0,1.7,0.3,2.3,0.9l-0.7,0.9c-0.5-0.4-1-0.6-1.6-0.6c-0.6,0-1.1,0.3-1.1,0.8
		c0,0.5,0.5,0.7,1.2,1l1,0.4c0.9,0.4,1.5,0.9,1.5,2c0,1.2-1,2.2-2.7,2.2C21.1,15.7,20.2,15.3,19.4,14.6z"/>
	<path fill="#0074B7" d="M25.8,11.8c0-2.4,1.6-3.9,3.4-3.9c0.9,0,1.7,0.4,2.2,0.9l-0.8,0.9c-0.4-0.4-0.8-0.6-1.4-0.6
		c-1.1,0-2,1-2,2.5c0,1.6,0.8,2.6,1.9,2.6c0.6,0,1.1-0.3,1.5-0.7l0.8,0.9c-0.6,0.7-1.4,1.1-2.4,1.1C27.3,15.7,25.8,14.3,25.8,11.8z"
		/>
	<path fill="#0074B7" d="M32.7,8.1h1.5v7.4h-1.5V8.1z"/>
	<path fill="#0074B7" d="M39.5,13.6c-0.2,0.7-0.7,1.5-1,2c-0.2-0.1-0.6-0.4-0.8-0.5c0.3-0.5,0.7-1.1,0.9-1.8L39.5,13.6z M40.9,13
		v3.3h-1.1V13h-1.9v-1h1.9v-0.8h-1.9v-1h1c-0.1-0.3-0.2-0.7-0.3-1L39.3,9H38V8h1.7c-0.1-0.3-0.2-0.5-0.3-0.8L40.6,7
		C40.7,7.3,40.9,7.7,41,8h1.4v1h-1.2L42,9.2c-0.1,0.4-0.3,0.8-0.4,1.1h1v1h-1.7V12h1.5v1H40.9z M39.4,9c0.1,0.3,0.3,0.8,0.3,1
		L39,10.2h1.4c0.1-0.4,0.3-0.9,0.4-1.2H39.4z M47,11.4h-0.9v4.9h-1.2v-4.9H44v0.1c0,1.5-0.1,3.5-1,4.8c-0.2-0.2-0.7-0.6-0.9-0.7
		c0.2-0.3,0.3-0.6,0.4-1l-0.7,0.4c-0.2-0.4-0.5-1-0.8-1.5l0.8-0.4c0.3,0.4,0.6,0.9,0.7,1.3c0.3-1,0.3-2,0.3-3V8
		c1.1-0.2,2.3-0.5,3-0.8L46.9,8C46,8.3,45,8.6,44,8.8v1.6h3V11.4z"/>
	<path fill="#0074B7" d="M56.9,14.1h-2.8c1,0.4,2,1,2.6,1.4l-0.8,0.9c-0.6-0.4-1.7-1.1-2.7-1.6l0.6-0.7h-3l0.9,0.7
		c-0.9,0.6-2.1,1.2-3.1,1.6c-0.2-0.2-0.5-0.6-0.7-0.9c0.9-0.3,2.1-0.9,2.7-1.4h-2.7V13h0.7l-0.1-5.2c0.6-0.2,1.2-0.4,1.7-0.6l0.5,1
		V7.5h3.6V13h1c0-0.3,0-0.6,0-0.9h-0.8v-0.9h0.9c0-0.3,0-0.6,0-0.9h-0.8V9.3h0.8c0-0.3,0-0.6,0-0.9h-0.9v-1h1.9c0,1.7-0.1,4-0.2,5.5
		h0.7V14.1z M49.6,13h1V8.1c-0.4,0.1-0.8,0.2-1.1,0.3l0,0.9h0.9v0.9h-0.8l0,0.8h0.8v0.9h-0.8L49.6,13z M51.4,8.4V13h1.9V8.4H51.4z
		 M53.1,9.6h-1.5V8.9h1.5L53.1,9.6z M51.7,10.1h1.4v2.2h-1.4V10.1z M52.2,11.7h0.4v-0.9h-0.4V11.7z"/>
	<path fill="#0074B7" d="M63,9.6v1.1h3.2V14c0,0.6-0.1,0.9-0.5,1.1c-0.4,0.2-1,0.2-1.8,0.2c0-0.3-0.2-0.8-0.4-1.2c0.5,0,1.1,0,1.2,0
		c0.2,0,0.2,0,0.2-0.2v-2.2h-2v4.5h-1.2v-4.5h-1.8v3.5h-1.2v-4.7h3V9.6h-3.9V8.4h4c-0.1-0.4-0.3-0.8-0.5-1.1l1.2-0.4
		c0.3,0.5,0.6,1.1,0.7,1.5H67v1.2H63z"/>
	<path fill="#0074B7" d="M73.1,12.1c-0.1,0.2-0.2,0.3-0.3,0.5h4.1c0,0,0,0.3,0,0.4c-0.2,2-0.3,2.8-0.6,3c-0.2,0.2-0.4,0.3-0.7,0.3
		c-0.2,0-0.6,0-1,0c0-0.3-0.1-0.7-0.3-0.9c0.3,0,0.6,0,0.7,0c0.1,0,0.2,0,0.3-0.1c0.1-0.1,0.3-0.7,0.4-1.9h-0.4
		c-0.4,1.1-1.2,2.3-2,3c-0.2-0.2-0.5-0.5-0.8-0.7c0.8-0.5,1.4-1.4,1.9-2.3h-0.6c-0.5,1-1.5,2-2.3,2.5c-0.2-0.2-0.5-0.5-0.7-0.7
		c0.7-0.4,1.5-1.1,2-1.8h-0.6c-0.4,0.4-0.8,0.7-1.2,1c-0.2-0.2-0.5-0.5-0.8-0.7c-0.7,0.3-1.4,0.7-2,1l-0.4-1.2
		c0.3-0.1,0.8-0.3,1.2-0.5v-2.8h-1V9.1h1v-2H70v2h1v1.1h-1v2.4l0.8-0.3l0.2,0.8c0.4-0.3,0.7-0.7,0.9-1h-1.1v-1H77v1H73.1z
		 M76.4,10.7h-4.7V7.3h4.7V10.7z M75.3,8.1h-2.6v0.5h2.6V8.1z M75.3,9.4h-2.6v0.5h2.6V9.4z"/>
	<path fill="#0074B7" d="M81.4,12.4l-1.1,0.3v2.4c0,0.6-0.1,0.9-0.4,1.1c-0.3,0.2-0.8,0.2-1.5,0.2c0-0.3-0.2-0.8-0.4-1.1
		c0.4,0,0.8,0,0.9,0c0.1,0,0.2-0.1,0.2-0.2V13c-0.4,0.1-0.8,0.2-1.1,0.3l-0.3-1.2c0.4-0.1,0.9-0.2,1.4-0.3v-1.7h-1.2V8.9H79V7.1h1.2
		v1.9h1v1.1h-1v1.4c0.3-0.1,0.7-0.2,1-0.3L81.4,12.4z M83.3,11.2c-1.3,0-1.7-0.4-1.7-1.6V7h1.2v1.1h3.9v1h-3.9v0.5
		c0,0.4,0.1,0.5,0.5,0.5h2.3c0.4,0,1,0,1.3-0.1c0,0.3,0.1,0.7,0.1,1c-0.2,0.1-0.8,0.1-1.3,0.1H83.3z M81.7,11.8h4.9v4.5h-1.2V16
		h-2.5v0.4h-1.1V11.8z M82.8,12.8v0.6h2.5v-0.6H82.8z M85.4,15v-0.7h-2.5V15H85.4z"/>
	<path fill="#0074B7" d="M96.4,9.9c-0.2,1.5-0.4,2.7-0.9,3.8c0.4,0.8,0.9,1.4,1.6,1.8c-0.2,0.2-0.5,0.5-0.7,0.8
		c-0.6-0.4-1.1-0.9-1.4-1.6c-0.4,0.7-1,1.3-1.8,1.8c-0.1-0.2-0.3-0.5-0.4-0.7l-0.6,0.5c-0.3-0.2-0.8-0.5-1.3-0.7
		c-0.7,0.3-1.6,0.6-2.8,0.7c-0.1-0.2-0.3-0.6-0.4-0.8c0.9-0.1,1.6-0.3,2.1-0.4c-0.4-0.2-0.9-0.3-1.3-0.5c0.1-0.2,0.3-0.4,0.4-0.6
		l-0.9,0.1l-0.1-0.8c0.4,0,1,0,1.5-0.1c0.1-0.2,0.3-0.4,0.4-0.6h-1.5v-1.8H90v-0.3h-1.5v-1h-0.8V8.7h0.8v-1H90V7h0.9v0.6h1.6v1h0.7
		v0.8h-0.7v1h-1.6v0.3h1.8v0.7c0.7-1.1,1-2.8,1.2-4.5l1,0.1c-0.1,0.6-0.1,1.1-0.3,1.7H97v1H96.4z M89.2,11.9H90v-0.4h-0.8V11.9z
		 M89.5,8.4v0.3H90V8.4H89.5z M90,9.8V9.4h-0.5v0.4H90z M89.8,14.3c0.3,0.1,0.7,0.2,1,0.4c0.4-0.2,0.6-0.5,0.7-0.7L89.9,14
		L89.8,14.3z M92.5,13.9c-0.1,0.4-0.3,0.8-0.8,1.2c0.4,0.2,0.7,0.3,1,0.5c0.8-0.5,1.4-1.1,1.8-1.9c-0.2-0.6-0.4-1.3-0.6-2
		c-0.1,0.3-0.2,0.5-0.4,0.7c-0.1-0.2-0.5-0.6-0.7-0.7v1h-2c-0.1,0.2-0.2,0.4-0.3,0.6l1.2-0.1v-0.4h0.9v0.3l0.3,0l0,0.7L92.5,13.9z
		 M90.9,8.4v0.3h0.6V8.4H90.9z M91.5,9.8V9.4h-0.6v0.4H91.5z M90.9,11.6v0.4h0.8v-0.4H90.9z M94.5,9.9c0.1,0.8,0.3,1.7,0.5,2.4
		c0.2-0.7,0.3-1.5,0.4-2.4H94.5z"/>
	<path fill="#0074B7" d="M97.9,12.2h4.5v0.9h-4.5V12.2z"/>
	<path fill="#0074B7" d="M114.8,15.2v1h-7.3v-1h3v-0.6h-2.1v-0.7c-0.2,0.2-0.4,0.4-0.6,0.6c-0.1-0.2-0.3-0.7-0.5-1
		c-0.1,1-0.4,2.2-1.1,3c-0.2-0.2-0.7-0.6-0.9-0.8c0.8-1,0.9-2.4,0.9-3.4v-1.8h1.3c-0.2-0.2-0.4-0.3-0.5-0.5c0.7-0.1,1.5-0.3,2.3-0.4
		c-0.6-0.2-1.3-0.3-1.9-0.4l0.6-0.4h-1.7V7.8h3.5c-0.1-0.2-0.3-0.4-0.4-0.5l0.8-0.4c0.2,0.3,0.5,0.6,0.7,0.9h3.5v0.9h-1.4l0.5,0.3
		c-0.4,0.2-0.8,0.3-1.2,0.5c0.6,0.2,1.1,0.3,1.6,0.5l-0.6,0.5h1.5v0.9h-7.3v0.8c0,0.3,0,0.7,0,1c0.5-0.5,0.9-1.1,1.1-1.8l1,0.3
		c0,0.1-0.1,0.3-0.2,0.4h1.2v-0.6h1.2v0.6h2.5v0.9h-2.5v0.5h2.2v0.9h-2.2v0.6H114.8z M110.5,13.7v-0.5h-1.6
		c-0.1,0.2-0.2,0.4-0.3,0.5H110.5z M112.5,10.5c-0.5-0.2-1.1-0.3-1.7-0.5c-0.7,0.2-1.4,0.4-2.1,0.5H112.5z M108.9,8.8
		c0.6,0.1,1.3,0.3,1.9,0.4c0.5-0.1,0.9-0.3,1.3-0.4H108.9z"/>
	<path fill="#0074B7" d="M119.3,14.8c-0.7,0.6-1.9,1.1-2.9,1.3c-0.1-0.3-0.5-0.6-0.7-0.9c1-0.1,2.2-0.5,2.8-0.8L119.3,14.8z
		 M124.6,13.1v1h-3.9v2.3h-1.2v-2.3h-3.8v-1h3.8v-0.4h-2.9v-0.9h2.9v-0.5h-3.4v-0.9h1.8c-0.1-0.2-0.2-0.5-0.4-0.7l0.7-0.1h-2.5V8.7
		h1.4c-0.1-0.4-0.4-0.9-0.6-1.2l1-0.3c0.3,0.4,0.6,1,0.8,1.4l-0.5,0.2h0.9V7h1.1v1.6h0.7V7h1.1v1.6h0.9l-0.4-0.1
		c0.2-0.4,0.5-1,0.6-1.4l1.2,0.3c-0.3,0.5-0.5,0.9-0.8,1.3h1.3v0.9h-2.6l0.9,0.2c-0.2,0.2-0.4,0.5-0.6,0.6h1.9v0.9h-3.5v0.5h3v0.9
		h-3v0.4H124.6z M118.8,9.6c0.2,0.3,0.3,0.5,0.4,0.7l-0.5,0.1h2.7l-0.4-0.1c0.2-0.2,0.4-0.5,0.5-0.8H118.8z M121.9,14.4
		c0.8,0.3,2,0.8,2.6,1.1l-0.8,0.6c-0.6-0.3-1.7-0.9-2.6-1.2L121.9,14.4z"/>
	<path fill="#0074B7" d="M128.2,12.7c-0.1-0.2-0.3-0.5-0.4-0.9v4.6h-1v-4.2c-0.3,0.9-0.6,1.7-0.9,2.3c-0.1-0.4-0.3-0.9-0.5-1.2
		c0.5-0.8,1-2.2,1.3-3.3h-1.1V8.9h1.2V7h1v1.9h0.9V10h-0.9v0.4c0.2,0.3,0.9,1.2,1.1,1.4L128.2,12.7z M132.4,15.2h2.3v0.8h-4.4v0.3
		h-1v-2.9c-0.1,0.1-0.3,0.2-0.4,0.4c-0.1-0.2-0.4-0.8-0.5-1c0.5-0.4,1-1.1,1.4-1.7H129v-2h2.5v2h-1.1l0.4,0.1
		c-0.1,0.2-0.2,0.3-0.3,0.5h0.9c0-0.1-0.1-0.3-0.1-0.4l1-0.3h-0.4v-2h2.5v2h-2.1c0.1,0.2,0.2,0.4,0.2,0.6h2v0.7h-2v0.4h1.7v0.8h-1.7
		v0.4h1.7v0.8h-1.7V15.2z M130.3,8.6h-1.6V7.7h1.6V7h1V9h-1V8.6z M129.8,10.4h0.7V9.9h-0.7V10.4z M131.4,12.9v-0.4h-1.1v0.4H131.4z
		 M131.4,13.7h-1.1v0.4h1.1V13.7z M130.3,15.2h1.1v-0.4h-1.1V15.2z M134.8,7.7v0.9H133v0.4h-1V7h1v0.7H134.8z M132.7,10.4h0.8V9.9
		h-0.8V10.4z"/>
	<path fill="#0074B7" d="M144.7,15.2v0.9h-9.1v-0.9h3.9v-0.5h-3.1v-0.9h3.1v-0.4h-2.8v-3.2h2.8V9.7h-3.8V8.8h3.8V8.4
		c-1,0-1.9,0.1-2.8,0.1c0-0.3-0.1-0.7-0.2-0.9c2.3,0,5-0.2,6.7-0.5l0.5,0.9c-0.9,0.1-1.9,0.3-3,0.3v0.5h3.9v0.9h-3.9v0.4h3v3.2h-3
		v0.4h3.3v0.9h-3.3v0.5H144.7z M137.8,11.4h1.7v-0.4h-1.7V11.4z M139.5,12.5v-0.4h-1.7v0.4H139.5z M140.7,10.9v0.4h1.7v-0.4H140.7z
		 M142.4,12.1h-1.7v0.4h1.7V12.1z"/>
</g>
<g>
</g>
<g>
</g>
<g>
</g>
<g>
</g>
<g>
</g>
<g>
</g>
<g>
</g>
<g>
</g>
<g>
</g>
<g>
</g>
<g>
</g>
<g>
</g>
<g>
</g>
<g>
</g>
<g>
</g>
</svg>
