<?xml version="1.0" encoding="utf-8"?>
<!-- Generator: Adobe Illustrator 18.0.0, SVG Export Plug-In . SVG Version: 6.00 Build 0)  -->
<!DOCTYPE svg PUBLIC "-//W3C//DTD SVG 1.1//EN" "http://www.w3.org/Graphics/SVG/1.1/DTD/svg11.dtd">
<svg version="1.1" id="Layer_1" xmlns="http://www.w3.org/2000/svg" xmlns:xlink="http://www.w3.org/1999/xlink" x="0px" y="0px"
	 viewBox="0 0 524 528.3" enable-background="new 0 0 524 528.3" xml:space="preserve">
<g>
	<g>
		
			<line fill="none" stroke="#0074B7" stroke-width="6" stroke-linecap="round" stroke-linejoin="round" stroke-miterlimit="10" x1="17.5" y1="26.4" x2="153.9" y2="26.4"/>
		
			<line fill="none" stroke="#0074B7" stroke-width="6" stroke-linecap="round" stroke-linejoin="round" stroke-miterlimit="10" x1="66.6" y1="44.6" x2="203" y2="44.6"/>
		
			<line fill="none" stroke="#0074B7" stroke-width="6" stroke-linecap="round" stroke-linejoin="round" stroke-miterlimit="10" x1="3" y1="66.4" x2="139.3" y2="66.4"/>
		
			<line fill="none" stroke="#0074B7" stroke-width="6" stroke-linecap="round" stroke-linejoin="round" stroke-miterlimit="10" x1="73.9" y1="91.8" x2="210.2" y2="91.8"/>
	</g>
	<g>
		
			<line fill="none" stroke="#0074B7" stroke-width="6" stroke-linecap="round" stroke-linejoin="round" stroke-miterlimit="10" x1="17.5" y1="206.3" x2="153.9" y2="206.3"/>
		
			<line fill="none" stroke="#0074B7" stroke-width="6" stroke-linecap="round" stroke-linejoin="round" stroke-miterlimit="10" x1="66.6" y1="224.5" x2="203" y2="224.5"/>
		
			<line fill="none" stroke="#0074B7" stroke-width="6" stroke-linecap="round" stroke-linejoin="round" stroke-miterlimit="10" x1="3" y1="246.3" x2="139.3" y2="246.3"/>
		
			<line fill="none" stroke="#0074B7" stroke-width="6" stroke-linecap="round" stroke-linejoin="round" stroke-miterlimit="10" x1="73.9" y1="271.8" x2="210.2" y2="271.8"/>
	</g>
	<g>
		<polygon fill="#007A6D" points="108.8,180.9 46.2,180.9 32.5,169.6 46.2,155.2 108.8,155.2 		"/>
		<g>
			<path fill="#FFFFFF" d="M60.7,173.3h-8.2v-1.4l5.2-5.3c0.8-0.8,1.5-1.7,1.5-2.9c0-1.5-1.2-2.4-2.5-2.4s-2.4,1-2.6,2.3l-1.3-0.3
				c0.4-1.8,1.9-3.1,3.9-3.1c2.1,0,3.8,1.2,3.8,3.5c0,1.6-1,2.7-2.1,3.9l-4.6,4.6h6.8V173.3z"/>
			<path fill="#FFFFFF" d="M71.5,166.9c0,3.3-1,6.7-4.2,6.7c-3.2,0-4.2-3.4-4.2-6.7c0-3.3,1-6.7,4.2-6.7
				C70.5,160.2,71.5,163.6,71.5,166.9z M64.5,166.9c0,2.5,0.6,5.6,2.9,5.6c2.2,0,2.9-3,2.9-5.6c0-2.5-0.6-5.6-2.9-5.6
				C65.1,161.3,64.5,164.4,64.5,166.9z"/>
			<path fill="#FFFFFF" d="M79,173.3h-1.3v-11.1l-2.3,2l-0.8-0.9l3.2-2.7H79V173.3z"/>
			<path fill="#FFFFFF" d="M91.9,161.7l-5.1,11.6h-1.5l5.3-11.6h-6.2v-1.2h7.6V161.7z"/>
		</g>
	</g>
	<g>
		<polygon fill="#58595B" points="173.6,143 105.7,143 105.7,117.2 173.6,117.2 184.5,130.7 		"/>
		<g>
			<path fill="#FFFFFF" d="M133,136.3h-8.2v-1.4l5.2-5.3c0.8-0.8,1.5-1.7,1.5-2.9c0-1.5-1.2-2.4-2.5-2.4s-2.4,1-2.6,2.3l-1.3-0.3
				c0.4-1.8,1.9-3.1,3.9-3.1c2.1,0,3.8,1.2,3.8,3.5c0,1.6-1,2.7-2.1,3.9l-4.6,4.6h6.8V136.3z"/>
			<path fill="#FFFFFF" d="M143.7,129.9c0,3.3-1,6.7-4.2,6.7c-3.2,0-4.2-3.4-4.2-6.7c0-3.3,1-6.7,4.2-6.7
				C142.7,123.2,143.7,126.6,143.7,129.9z M136.7,129.9c0,2.5,0.6,5.6,2.9,5.6c2.2,0,2.9-3,2.9-5.6c0-2.5-0.6-5.6-2.9-5.6
				C137.3,124.3,136.7,127.4,136.7,129.9z"/>
			<path fill="#FFFFFF" d="M154.2,129.9c0,3.3-1,6.7-4.2,6.7c-3.2,0-4.2-3.4-4.2-6.7c0-3.3,1-6.7,4.2-6.7
				C153.2,123.2,154.2,126.6,154.2,129.9z M147.1,129.9c0,2.5,0.6,5.6,2.9,5.6c2.2,0,2.9-3,2.9-5.6c0-2.5-0.6-5.6-2.9-5.6
				C147.7,124.3,147.1,127.4,147.1,129.9z"/>
			<path fill="#FFFFFF" d="M164.2,124.7l-5.1,11.6h-1.5l5.3-11.6h-6.2v-1.2h7.6V124.7z"/>
		</g>
	</g>
	<path fill="#F1F2F2" d="M409.2,307.1l1.5-63.3c34.1,0.8,61.8,29.1,61.8,63.3c0,34.7-28.6,63.3-63.3,63.3
		c-33.7,0-61.7-26.9-63.2-60.5L409.2,307.1z"/>
	<path fill="#002A5E" d="M409.2,307.1l-132.6,7.6c-0.1-2.5-0.2-5.1-0.2-7.6c0-65.2,48.1-121.3,112.5-131.2L409.2,307.1z"/>
	<path fill="#0074B7" d="M409.2,307.1l-20.3-131.2c6.7-1,13.5-1.6,20.3-1.6c1,0,2,0,3.1,0L409.2,307.1z"/>
	<g>
		<g>
			<g>
				<path fill="#231F20" d="M308,499.3h-5.1v-1.1h5.1V499.3z M309.4,508.6c-1.4,0.9-3.7,1.7-5.5,2.2c-0.2-0.3-0.7-0.8-1-1
					c1.8-0.4,4-1,5.3-1.7L309.4,508.6z M307.5,496.5h-4.3v-1h4.3V496.5z M305.2,500.8h11.6v7.2h-11.6V500.8z M306.5,502.9h9v-1.2h-9
					V502.9z M306.5,505h9v-1.2h-9V505z M306.5,507.1h9v-1.3h-9V507.1z M310.8,496.7c-0.4,0.7-0.9,1.3-1.4,1.8
					c-0.2-0.2-0.7-0.5-1-0.7c0.9-0.8,1.7-2.1,2.1-3.4l1.2,0.3c-0.1,0.3-0.3,0.7-0.4,1h6l0.2-0.1l0.9,0.3c-0.5,0.9-1,2-1.5,2.6
					l-1.1-0.4c0.3-0.4,0.6-0.9,0.8-1.4h-2.9v0.2c0,0.2,0,0.4-0.1,0.6c1,1.1,2.9,1.8,5.3,2c-0.3,0.3-0.6,0.7-0.8,1.1
					c-2.1-0.3-3.8-1-4.9-2.1c-0.6,0.9-2,1.7-5.2,2.2c-0.1-0.3-0.5-0.8-0.7-1c4.7-0.6,5.1-1.9,5.1-2.8v-0.2H310.8z M313.5,508.1
					c1.9,0.6,4,1.4,5.3,1.9l-1.2,0.8c-1.2-0.6-3.1-1.3-5-2L313.5,508.1z"/>
				<path fill="#231F20" d="M327.3,498.6h-6.5v-1.1h6.5V498.6z M326.6,509.8h-4v0.8h-1.1v-6h5.1V509.8z M321.5,500.9v-1.1h5.1v1.1
					H321.5z M321.5,502.2h5.1v1.1h-5.1V502.2z M322.6,505.7v3h2.9v-3H322.6z M324,497.3c-0.3-0.6-0.8-1.7-1.3-2.4l1-0.5
					c0.5,0.7,1,1.7,1.3,2.3L324,497.3z M335.3,495.4c-0.1,7.3-0.1,13.5,0.9,13.8c0.1,0,0.2-1.1,0.3-2.4c0.2,0.3,0.6,0.8,0.8,1
					c-0.2,2.5-0.8,3.1-1.6,2.8c-1.8-0.5-1.7-6.4-1.7-13.8h-3v5.3h2.4v1.2H331v7.6h-1.3v-7.6h-2.4V502h2.4v-5.3h-2.2v-1.3H335.3z"/>
				<path fill="#231F20" d="M344.8,505.2c-0.3-0.6-1.1-1.8-1.7-2.7v8.3h-1.3v-8c-0.7,1.8-1.7,3.6-2.6,4.7c-0.1-0.4-0.5-0.9-0.7-1.2
					c1.1-1.3,2.4-3.6,3.1-5.7h-2.8v-1.3h3v-2.7c-0.8,0.2-1.7,0.3-2.5,0.4c-0.1-0.3-0.3-0.8-0.4-1c2-0.3,4.4-0.8,5.7-1.4l0.8,1.1
					c-0.7,0.3-1.5,0.5-2.4,0.7v3h2.6v1.3h-2.6v0.3c0.6,0.6,2.1,2.6,2.5,3.1L344.8,505.2z M352.9,506.1v4.7h-1.3v-4.5l-5.9,1
					l-0.2-1.3l6.1-1v-10.7h1.3v10.4l2.1-0.3l0.2,1.2L352.9,506.1z M349.4,503.7c-0.6-0.8-2-1.9-3.2-2.6l0.8-0.8
					c1.2,0.7,2.6,1.8,3.2,2.5L349.4,503.7z M349.8,499c-0.6-0.8-1.8-1.8-2.9-2.6l0.8-0.8c1.1,0.7,2.3,1.7,2.9,2.5L349.8,499z"/>
				<path fill="#231F20" d="M362.6,503.5c-0.7,0.2-1.5,0.4-2.2,0.6v5.1c0,0.8-0.2,1.1-0.7,1.3c-0.5,0.2-1.2,0.3-2.4,0.2
					c-0.1-0.3-0.3-0.9-0.4-1.2c0.9,0,1.6,0,1.9,0c0.3,0,0.4-0.1,0.4-0.3v-4.7l-2.2,0.6l-0.4-1.3c0.7-0.2,1.6-0.4,2.5-0.6v-3.9h-2.3
					V498h2.3v-3.6h1.3v3.6h2v1.3h-2v3.6c0.6-0.2,1.3-0.4,2-0.6L362.6,503.5z M372.2,501.5c-0.8,2.5-2,4.4-3.7,5.9
					c1.3,1.1,2.8,1.8,4.6,2.3c-0.3,0.3-0.7,0.8-0.9,1.2c-1.9-0.6-3.5-1.4-4.8-2.6c-1.5,1.2-3.3,2-5.1,2.6c-0.1-0.4-0.5-0.9-0.7-1.2
					c1.7-0.5,3.4-1.2,4.9-2.3c-1.3-1.3-2.3-3-3-4.9l0.1,0h-0.6v-1.2h3.9v-2.7h-4.2v-1.2h4.2v-2.8h1.3v2.8h4.3v1.2h-4.3v2.7h2.9
					l0.2-0.1L372.2,501.5z M364.9,502.4c0.6,1.6,1.5,3,2.6,4.1c1.2-1.1,2.3-2.5,2.9-4.1H364.9z"/>
			</g>
		</g>
		<g>
			<g>
				<path fill="#231F20" d="M420.1,501v2.4h6.3v1.2h-6.3v4.4h7.1v1.2h-15.5v-1.2h7v-4.4h-6.2v-1.2h6.2V501h-3.9v-1
					c-0.9,0.5-1.9,1-2.9,1.3c-0.2-0.4-0.6-0.9-0.9-1.2c3.3-1.1,6.7-3.2,8.4-5.9l1.2,0.6c-0.1,0.2-0.3,0.4-0.5,0.6
					c1.8,1.9,5,3.8,7.7,4.6c-0.3,0.3-0.7,0.8-0.9,1.2c-0.9-0.4-1.9-0.8-2.9-1.4v1.1H420.1z M415.2,505.1c0.7,1,1.4,2.4,1.7,3.2
					l-1.2,0.5c-0.3-0.8-1-2.3-1.7-3.3L415.2,505.1z M423.9,499.8c-1.6-1-3.2-2.2-4.4-3.4c-1.2,1.3-2.6,2.4-4.2,3.4H423.9z
					 M421.7,508.4c0.6-0.9,1.4-2.3,1.9-3.3l1.3,0.5c-0.6,1.1-1.5,2.4-2.1,3.3L421.7,508.4z"/>
				<path fill="#231F20" d="M429.5,495.2h8.4v1.2h-8.4V495.2z M437.7,509.4c0,0.6-0.1,0.9-0.5,1.1c-0.4,0.2-1,0.2-1.9,0.2
					c0-0.3-0.2-0.7-0.3-1c0.7,0,1.3,0,1.4,0c0.2,0,0.2-0.1,0.2-0.3v-6.3h-5.7v7.7h-1.1V502h7.9V509.4z M437.1,501h-6.7v-3.6h6.7V501
					z M434.2,506.9v3.5h-1v-3.5h-1.9v-0.9h2.4c0.4-0.8,1-1.8,1.2-2.6l0.9,0.4c-0.4,0.7-0.8,1.5-1.2,2.2h1.3v0.9H434.2z M435.9,498.4
					h-4.3v1.7h4.3V498.4z M432.4,503.5c0.4,0.7,0.9,1.5,1,2.1l-0.8,0.3c-0.2-0.6-0.6-1.5-1-2.1L432.4,503.5z M444.7,510.9
					c-0.1-0.4-0.2-0.9-0.3-1.5c-2.1,0.4-4.2,0.8-5.9,1.1l-0.3-1.2c0.8-0.1,1.9-0.3,3-0.5v-4h-2.7V498h2.7v-3.4h1.2v3.4h2.6v6.8h-2.6
					v3.9l1.7-0.3c-0.2-0.8-0.5-1.6-0.8-2.3l1-0.3c0.7,1.5,1.3,3.6,1.5,4.8L444.7,510.9z M439.5,503.6h1.7v-4.4h-1.7V503.6z
					 M444,499.1h-1.7v4.4h1.7V499.1z"/>
			</g>
		</g>
		<circle fill="#0074B7" cx="291" cy="502.4" r="6.3"/>
		<circle fill="#002A5E" cx="399.5" cy="502.4" r="6.3"/>
		<g>
			<g>
				<path fill="#231F20" d="M495.7,508.2c-1.6,1-4,2-6,2.7c-0.2-0.3-0.6-0.7-0.9-1c1.9-0.6,4.4-1.6,5.7-2.5L495.7,508.2z M504.9,507
					H489v-1.2h3.3v-8h-2.8v-1.3h2.8v-2.1h1.3v2.1h6.7v-2.1h1.3v2.1h2.9v1.3h-2.9v8h3.3V507z M493.6,497.8v1.8h6.7v-1.8H493.6z
					 M493.6,502.6h6.7v-1.9h-6.7V502.6z M493.6,505.8h6.7v-2h-6.7V505.8z M499.2,507.4c2.1,0.7,4.4,1.7,5.8,2.5l-1.2,0.9
					c-1.3-0.8-3.4-1.7-5.5-2.5L499.2,507.4z"/>
				<path fill="#231F20" d="M512.1,494.9c-0.5,1.3-1.2,2.7-1.9,3.9v12h-1.3v-10.1c-0.6,0.8-1.2,1.5-1.8,2.2c-0.1-0.3-0.5-1-0.8-1.3
					c1.8-1.7,3.4-4.4,4.4-7.1L512.1,494.9z M520.7,509.5c1.1,0,1.3-0.5,1.4-2.6c0.3,0.2,0.8,0.4,1.2,0.5c-0.2,2.5-0.6,3.3-2.6,3.3
					H516c-2.1,0-2.8-0.5-2.8-2.5v-5.9l-1.8,0.7l-0.5-1.2l2.3-0.9v-4.7h1.3v4.2l2.6-1v-4.9h1.2v4.5l3-1.2l0.3-0.2l1,0.3l-0.1,0.3
					c-0.1,2.6-0.2,6-0.5,8.2l-1.1-0.3c0.2-1.7,0.3-4.4,0.3-6.8l-2.9,1.1v6.6h-1.2v-6.1l-2.6,1v6.4c0,1,0.3,1.3,1.5,1.3H520.7z"/>
			</g>
		</g>
		<circle fill="#F1F2F2" cx="478.5" cy="502.4" r="6.3"/>
	</g>
	<g>
		<g>
			<path fill="#0074B7" d="M387.3,148v-13.7l-3.5,2.7l-2.3-3.1l6.2-4.5h4.1V148H387.3z"/>
			<path fill="#0074B7" d="M400.9,148.2c-1.5,0-2.7-1.1-2.7-2.6c0-1.4,1.2-2.6,2.7-2.6c1.4,0,2.6,1.1,2.6,2.6
				C403.6,147.1,402.4,148.2,400.9,148.2z"/>
			<path fill="#0074B7" d="M406.7,148v-3.7l7.3-6.6c0.9-0.9,1.5-1.7,1.5-2.9c0-1.3-0.9-2.2-2.3-2.2c-1.5,0-2.5,1.2-2.6,2.8l-4.3-0.6
				c0.4-3.8,3.5-6,7.1-6c3.4,0,6.8,1.8,6.8,5.7c0,2.7-1.6,4.2-3.3,5.8l-4.3,3.9h7.6v3.9H406.7z"/>
			<path fill="#0074B7" d="M427.7,138.9c-2.8,0-5-2.2-5-5c0-2.8,2.2-5,5-5c2.8,0,5,2.2,5,5C432.7,136.7,430.5,138.9,427.7,138.9z
				 M427.7,131.9c-1.1,0-2.1,0.9-2.1,2.1c0,1.1,0.9,2,2.1,2c1.1,0,2.1-0.9,2.1-2C429.8,132.8,428.9,131.9,427.7,131.9z M429.8,148.9
				l-2.4-1.2l10.9-19.3l2.5,1.2L429.8,148.9z M440.4,148.3c-2.8,0-5-2.2-5-5c0-2.8,2.2-5,5-5c2.8,0,5,2.2,5,5
				C445.4,146.1,443.2,148.3,440.4,148.3z M440.4,141.2c-1.1,0-2.1,0.9-2.1,2.1s0.9,2,2.1,2c1.1,0,2.1-0.9,2.1-2
				S441.5,141.2,440.4,141.2z"/>
		</g>
	</g>
	<g>
		<g>
			<path fill="#FFFFFF" d="M306.8,292.4v-3.7l7.3-6.6c0.9-0.9,1.5-1.7,1.5-2.9c0-1.3-0.9-2.2-2.3-2.2c-1.5,0-2.5,1.2-2.6,2.8
				l-4.3-0.6c0.4-3.8,3.5-6,7.1-6c3.4,0,6.8,1.8,6.8,5.7c0,2.7-1.6,4.2-3.3,5.8l-4.3,3.9h7.6v3.9H306.8z"/>
			<path fill="#FFFFFF" d="M335.7,288.7v3.6h-4.1v-3.6h-8.8V285l7.6-11.3h5.3v11.5h2.6v3.6H335.7z M331.6,278.2L331.6,278.2
				l-4.5,6.9h4.5V278.2z"/>
			<path fill="#FFFFFF" d="M343.2,292.6c-1.5,0-2.7-1.1-2.7-2.6c0-1.4,1.2-2.6,2.7-2.6c1.4,0,2.6,1.1,2.6,2.6
				C345.8,291.5,344.6,292.6,343.2,292.6z"/>
			<path fill="#FFFFFF" d="M355.3,292.9c-3.4,0-6.2-1.8-7.1-4.8l4-1.2c0.4,1.3,1.6,2.2,3,2.2c1.5,0,2.8-0.9,2.8-2.7
				c0-2.2-2-2.9-3.8-2.9c-1.3,0-3.3,0.3-4.6,0.8l0.4-10.7h11.5v3.8H354l-0.2,3c0.6-0.1,1.3-0.2,1.9-0.2c3.8,0,6.8,2,6.8,5.9
				C362.5,290.7,358.9,292.9,355.3,292.9z"/>
			<path fill="#FFFFFF" d="M370,283.3c-2.8,0-5-2.2-5-5c0-2.8,2.2-5,5-5c2.8,0,5,2.2,5,5C375,281.1,372.7,283.3,370,283.3z
				 M370,276.3c-1.1,0-2.1,0.9-2.1,2.1c0,1.1,0.9,2,2.1,2c1.1,0,2.1-0.9,2.1-2C372,277.2,371.1,276.3,370,276.3z M372,293.3
				l-2.4-1.2l10.9-19.3l2.5,1.2L372,293.3z M382.7,292.7c-2.8,0-5-2.2-5-5c0-2.8,2.2-5,5-5c2.8,0,5,2.2,5,5
				C387.7,290.5,385.4,292.7,382.7,292.7z M382.7,285.6c-1.1,0-2.1,0.9-2.1,2.1s0.9,2,2.1,2c1.1,0,2.1-0.9,2.1-2
				S383.8,285.6,382.7,285.6z"/>
		</g>
	</g>
	<line fill="none" stroke="#0C56AB" stroke-miterlimit="10" x1="401.7" y1="177.3" x2="401.7" y2="156.4"/>
	
		<line fill="none" stroke="#007A6D" stroke-width="6" stroke-linecap="round" stroke-linejoin="round" stroke-miterlimit="10" x1="106.6" y1="3" x2="106.6" y2="487.5"/>
	<g>
		<g>
			<path fill="#007A6D" d="M190.2,381.2c-1.5-46.2-40.2-82.5-86.4-81c-46.2,1.5-82.5,40.2-81,86.4c1.5,46.2,40.2,82.5,86.4,81
				C155.4,466.2,191.7,427.5,190.2,381.2z M108.8,456.6c-40.1,1.3-73.7-30.2-75-70.3c-1.3-40.1,30.2-73.7,70.3-75
				c40.1-1.3,73.7,30.2,75,70.3C180.4,421.7,148.9,455.3,108.8,456.6z"/>
			<path fill="#FFFFFF" d="M108.8,456.6c-40.1,1.3-73.7-30.2-75-70.3c-1.3-40.1,30.2-73.7,70.3-75c40.1-1.3,73.7,30.2,75,70.3
				C180.4,421.7,148.9,455.3,108.8,456.6z"/>
			<polygon fill="#FFFFFF" points="113.4,456.4 106.5,465.4 98.8,456.3 105.7,449.8 			"/>
		</g>
		<g>
			<g id="iCGULN_2_">
				<g>
					<path fill="#007A6D" d="M116.1,423.8c-0.1,0-0.1,0-0.2,0c-0.4-0.9-0.7-1.8-1.1-2.8c-0.7,0.6-1.3-0.2-2-0.6
						c-1.3,1.1-3.4,0.5-3.9-1c-0.7-1.9-2.7-2.7-4.4-1.7c-1.4,0.8-2.9,1-4.5,0.5c-0.2,0.2-0.3,0.5-0.5,0.7c-1.3-0.3-1.4-0.2-1.3,1
						c0,0.3,0.1,0.6,0,0.8c-0.1,0.3-0.3,0.6-0.6,1.1c-0.6-1.5-0.6-1.5-2.1-1.1c-0.7-0.5-1.4-1-2.1-1.5c0-0.5,0.3-1.4,0.1-1.6
						c-0.9-0.6-0.9-1.5-1.2-2.6c-0.9,0.2-1.7,0.4-2.5,0.7c0.2-1.4,0.4-2.8,1.4-3.9c0.9-0.9,1-2,0.9-3.2c-0.2-1.3-1.4-1.9-1.9-2.9
						c0-0.1-0.2-0.1-0.4-0.2c-0.9-0.2-1.8-0.4-2.5-0.6c-0.4-0.9-0.6-1.6-0.9-2.2c-0.8,0.2-1.6,0.3-2.3,0.5c-0.6,0.1-1.2,0.2-1.6,0.5
						c-1.4,1-2.8,2.2-4.6,2.6c-0.3,0.1-0.6,0.2-0.8,0.1c-0.8-0.2-1.7-0.4-2.5-0.8c-0.8-0.3-1.4-0.1-1.9,0.6c-0.4,0.5-0.9,1-1.4,1.4
						c-0.1-0.1-0.2-0.1-0.3-0.2c0-0.5-0.1-1-0.2-1.5c-1.5,0.6-2.9,0.8-4.3,0.2c-0.2-0.1-0.5,0-0.7,0.1c-1.1,0.2-1.7-0.6-2.3-1.2
						c-0.3-0.3-0.6-0.5-1-0.6c-0.4-0.1-0.7-0.2-1.1-0.3c0-0.4-0.1-0.7-0.1-1.1c-0.5,0.1-0.9,0.3-1.2,0.4c-1.7-2.4-3.7-3.4-4.9-2.5
						c-0.9-0.6-1.9-1.2-2.8-1.7c-0.4-0.2-0.8-0.5-1.2-0.4c-1,0.1-1.1-0.6-1.2-1.2c-0.2-0.7-0.3-1.4-0.4-2.1c0-0.2,0.1-0.5,0.2-0.9
						c0.3,0.4,0.5,0.6,0.7,0.8c1.3-0.8,1.6-1.5,0.7-2c-0.9-0.5-0.8-1.2-0.8-2.1c0.9,0.1,1.2-0.5,1.5-1.2c0.4-0.8,1-1.5,1.5-2.4
						c-0.4-0.1-0.7,0-0.7-0.1c-1-1.6-2.2-1.3-3.6-0.6c-1,0.5-2,0.7-3,0.1c-0.5-0.3-1.1-0.4-1.6-0.7c-0.2-0.2-0.4-0.6-0.5-0.9
						c-0.1-0.3,0-0.8-0.2-0.9c-0.6-0.4-1.4-0.8-2.1-1.1c-0.2-0.1-0.4-0.2-0.8-0.3c0.5-0.2,0.7-0.3,1-0.5c-0.1-0.9-0.2-1.7-0.4-2.5
						c-0.1-0.3-0.5-0.7-0.7-0.7c-0.8,0.2-1.2-0.2-1.7-0.7c0-0.2,0-0.4,0-0.6c0.2-0.7,0.4-1.5,0.6-2.2c0.1-0.2,0.1-0.5,0.3-0.6
						c1.2-0.4,2.1-1.6,3.5-1.1c0.8,0.3,1.4,0,2-0.7c0.3-0.3,0.8-0.6,1.3-0.7c1-0.3,2.2-0.2,2.8-1.4c0.1-0.2,0.4-0.3,0.6-0.3
						c2.3-0.5,3.3-2.1,3.5-4.3c0-0.5,0.1-1.1,0-1.6c-0.3-1.2-0.6-2.5-1-3.8c1.5-0.4,3.1-0.7,4.8-1.2c-0.7-1.9,0.4-3.5,1-5.1
						c0.1-0.3,0.4-0.6,0.6-0.6c1.3,0.2,2.5,0.4,3.7,0.6c1.3,0.1,1.4-0.8,1.4-1.9c0-0.7,0.2-1.4,0.4-2.1c0-0.2,0.3-0.5,0.4-0.5
						c1.2,0.2,1.6-0.7,1.9-1.4c0.7-0.1,1.3-0.1,1.9-0.2c1.4,2.6,1.4,2.6,4.3,3.4c0.4,0.1,0.7,0.6,0.9,0.9c0.9,2.1,1.5,4.3,0.8,6.6
						c0.8,0.2,1.4,0.4,2.1,0.7c1.6,0.5,3.3,0.2,4.8,1.2c0.6,0.4,1.4,0.6,2,0.9c0.4,0.2,0.8,0.6,1.2,1c0.9,1.1,1.8,2.2,2.6,3.2
						c0.4,0.5,0.9,0.7,1.6,0.6c2.1-0.1,4.1-0.2,6.2-0.3c0.4,0,0.9,0.1,1.3,0.3c2.1,0.8,4.2,1.7,6.3,2.6c1.1,0.5,2.1,0.4,3.3-0.1
						c2.2-0.9,4.4-2.1,6.9-1.6c0.2,0,0.4-0.1,0.6-0.1c2.6-0.3,3.9-2.5,5.7-3.8c-0.3-0.7-0.9-1.4-0.7-1.8c0.8-1.9,0.8-2.6,2.9-1.6
						c0.1,0,0.2,0.1,0.3,0.1c0.6,0.3,1.1,0.2,1.6-0.2c0.6-0.6,1.3-1.4,2-1.6c1.7-0.4,2.6-1.7,3.7-2.7c0.3-0.3,0.8-0.5,1.3-0.6
						c1.5-0.2,3-0.3,4.5-0.4c-0.4-1.4-0.7-2.7-1.9-3.6c-0.5-0.4-0.8-0.5-1.3-0.1c-1.1,0.7-2.1,1.2-3.5,1c-1-0.2-1.4-0.6-1.4-1.4
						c0-1.8-0.1-3.5,1.1-5.1c0.5-0.7,0.9-1,1.6-0.5c1.4,0.9,2.7,0.8,4-0.3c0.1-0.1,0.2-0.1,0.3-0.2c0.3-0.4,0.6-0.8,0.8-1.2
						c0.7-1.6,0.7-3.6,2.3-4.8c0.9-0.6,0.8-1.4,0.6-2.3c-0.4,0-0.8-0.1-1.2-0.1c0.2-1,1.5-2.4,2.5-2.6c1.4-0.3,2.9-0.5,4.3-0.8
						c0.3,0,0.7,0,1,0c0.8,0.5,1.6,1.1,2.4,1.3c1.8,0.5,3,1.6,3.3,3.5c0.2,0.8,0.5,1.6,0.8,2.5c0.3,0.8,0.6,1.6,0.8,2.4
						c0.3,1,0.1,2.3,0.7,3c0.6,0.6,2,0.4,2.9,0.8c1.1,0.4,2.4,0.9,3.2,1.7c0.5,0.5,0.5,1.7,0.7,2.5c0.2,0.7,0.5,1.4,1.4,1.3
						c0.8-0.1,1.6-0.2,2.3-0.4c1.5-0.6,3-1.3,4.5-1.9c0,0.7,0,1.4,0,2.1c0,0.3-0.1,0.6-0.2,0.9c-0.3,0.7-0.7,1.3-1,2
						c-0.5,1.3-1,2.7-1.5,4c-0.7,1.7-0.8,1.7-2.5,1.1c-1.2-0.4-1.4,0.6-2,1c-0.5,0.3-0.3,0.7-0.2,1.2c0.5,1.5,0.6,3-0.7,4.2
						c-0.2,0.2-0.4,0.6-0.5,0.9c-0.3-0.3-0.6-0.5-0.9-0.8c-0.9,1.6-1.8,3-3.9,2.7c0,0.6,0,1.1,0,1.8c-0.8-0.1-1.5-0.3-2.3-0.3
						c-0.3,0-0.8,0-1,0.2c-0.9,0.6-1.7,1.3-2.5,2c-0.6,0.5-1.2,1.1-1.9,1.6c-0.3,0.2-0.6,0.6-1,0.6c-1.2,0.1-2.2,0.7-3.2,1.4
						c-0.9,0.6-1.8,1.1-2.7,1.7c1.1-1.2,1.1-1.3,0.1-2.2c0.3-0.5,0.7-0.9,1-1.4c1-1.3,1-1.3-0.1-2.8c-2,1-3.1,3-5,4.1
						c-0.1,0-0.1,0.2-0.2,0.2c-0.7,0.3-1.4,0.9-2.1,0.9c-0.8,0-1,0.4-1.2,0.9c-0.1,0.3-0.1,0.9,0.1,1.2c0.2,0.4,0.6,0.7,1,0.9
						c0.7,0.4,1.2,0.8,1.4,1.6c0.2,0.7,1,0.9,1.7,0.5c0.4-0.2,0.8-0.4,1.1-0.7c0.8-0.7,1.5-0.8,2.4-0.1c0.3,0.2,0.8,0.3,1.2,0.3
						c0.4,0.1,0.8,0.1,1.3,0.2c-0.2,0.5-0.4,0.9-0.6,1.3c-0.9-1.1-1.3,0.5-2.1,0.4c-1.1-0.2-1,1-1.5,1.5c-0.3,0-0.6-0.1-0.7-0.1
						c-0.8,1.1-1.6,2.2-2.4,3.3c0.4,0.2,0.6,0.4,0.9,0.6c1,0.4,1.5,1.1,1.8,2.1c0.5,1.8,1.3,3.4,2.7,4.7c0.1,0.1,0.1,0.2,0.2,0.4
						c-1-0.3-2-0.5-2.9-0.7c1.1,0.9,2.1,1.7,3.2,2.6c-1.2,0.7-2.2,1.2-3.2,1.8c0,0.1,0,0.2,0,0.3c1.3-0.7,2.1-0.1,2.8,0.4
						c0,0.5,0,0.8,0,1.1c0,0.2,0,0.5,0,0.6c-0.7,0.2-0.5,0.8-0.6,1.3c-0.1,0.8-0.7,1.1-1.2,1.6c-0.7,0.8-1.2,1.9-1.8,2.8
						c-0.1,0.2-0.3,0.5-0.3,0.5c-1.2-0.4-0.7,0.3-0.6,0.8c0,0.2-0.1,0.4-0.1,0.6c0,1-0.9,1.3-1.4,2c-0.4,0.7-0.7,1.5-1.7,1.6
						c-0.1,0-0.2,0.3-0.3,0.4c-0.3,0.4-0.4,0.8-0.8,1.1c-0.9,0.7-1.9,1.4-2.9,1.9c-0.5,0.3-1.2,0.6-1.8,0.5
						c-0.8-0.1-1.3,0.2-1.9,0.5c-0.7,0.4-1.4,0.7-1.9-0.3c0-0.1-0.2-0.1-0.3-0.1c0,0.3-0.1,0.6-0.1,0.9c-0.3-0.2-0.6-0.3-1-0.6
						c0.3,1.5-0.7,1.7-1.7,1.9c-1.1,0.2-2.1,0.5-3.1,0.7c-0.9,0.2-1.3,0.9-0.9,1.7C116.6,423.3,116.5,423.5,116.1,423.8z"/>
				</g>
			</g>
			<g>
				
					<path fill="none" stroke="#007A6D" stroke-width="3" stroke-linecap="round" stroke-linejoin="round" stroke-miterlimit="10" d="
					M153.5,383.8c0.4,2.4,0.6,4.9,0.6,7.5c0,24.1-19.5,43.7-43.7,43.7"/>
				
					<path fill="none" stroke="#007A6D" stroke-width="3" stroke-linecap="round" stroke-linejoin="round" stroke-miterlimit="10" d="
					M110.5,342.1c5,0,9.8,0.9,14.3,2.5"/>
				
					<polyline fill="none" stroke="#007A6D" stroke-width="3" stroke-linecap="round" stroke-linejoin="round" stroke-miterlimit="10" points="
					114.5,337.6 110,342.3 114.6,346.8 				"/>
			</g>
			<g>
				
					<path fill="none" stroke="#007A6D" stroke-width="3" stroke-linecap="round" stroke-linejoin="round" stroke-miterlimit="10" d="
					M76.4,351c7.5-6,16.9-9.6,27.3-9.6"/>
				
					<path fill="none" stroke="#007A6D" stroke-width="3" stroke-linecap="round" stroke-linejoin="round" stroke-miterlimit="10" d="
					M103.7,434.3c-5,0-9.7-1.1-14.3-2.5c-17.6-5.5-25.6-17.4-28.6-24.2"/>
				
					<polyline fill="none" stroke="#007A6D" stroke-width="3" stroke-linecap="round" stroke-linejoin="round" stroke-miterlimit="10" points="
					99.6,438.7 104.1,434.1 99.6,429.5 				"/>
			</g>
		</g>
	</g>
	<g>
		<defs>
			<path id="SVGID_1_" d="M409.2,307.1l1.5-63.3c34.1,0.8,61.8,29.1,61.8,63.3c0,34.7-28.6,63.3-63.3,63.3
				c-33.7,0-61.7-26.9-63.2-60.5L409.2,307.1z"/>
		</defs>
		<clipPath id="SVGID_2_">
			<use xlink:href="#SVGID_1_"  overflow="visible"/>
		</clipPath>
		<g clip-path="url(#SVGID_2_)">
			<g>
				<polygon fill="#BCBEC0" points="358.9,369.8 358.9,357.1 383.5,345.7 383.5,369.8 				"/>
				<g>
					<polygon fill="#BCBEC0" points="373.1,355.5 366.2,355.9 367.3,330.4 372,330.4 					"/>
					<ellipse fill="#D1D3D4" cx="369.6" cy="330.4" rx="2.3" ry="0.3"/>
				</g>
				<g>
					<polygon fill="#BCBEC0" points="382.3,354.5 375.5,355 376.5,329.5 381.2,329.5 					"/>
					<ellipse fill="#D1D3D4" cx="378.9" cy="329.5" rx="2.3" ry="0.3"/>
				</g>
				<g>
					<polygon fill="#BCBEC0" points="391.5,353.5 384.7,354 385.8,328.5 390.5,328.5 					"/>
					<ellipse fill="#D1D3D4" cx="388.1" cy="328.5" rx="2.3" ry="0.3"/>
				</g>
				<g>
					<polygon fill="#BCBEC0" points="400.8,352.5 393.9,353 395,327.5 399.7,327.5 					"/>
					<ellipse fill="#D1D3D4" cx="397.4" cy="327.5" rx="2.3" ry="0.3"/>
				</g>
				<polygon fill="#E6E7E8" points="383.5,345.7 413.6,347 413.6,369.8 383.5,369.8 				"/>
				<g>
					<rect x="385.8" y="347.5" fill="#A7A9AC" width="0.9" height="4.4"/>
					<rect x="389.9" y="347.7" fill="#A7A9AC" width="0.9" height="4.4"/>
					<rect x="394" y="347.9" fill="#A7A9AC" width="0.9" height="4.4"/>
					<rect x="398" y="348.1" fill="#A7A9AC" width="0.9" height="4.4"/>
					<rect x="402.1" y="348.3" fill="#A7A9AC" width="0.9" height="4.4"/>
					<rect x="406.2" y="348.5" fill="#A7A9AC" width="0.9" height="4.4"/>
					<rect x="410.3" y="348.6" fill="#A7A9AC" width="0.9" height="4.4"/>
				</g>
				<g>
					<rect x="385.8" y="353.2" fill="#A7A9AC" width="0.9" height="4.4"/>
					<rect x="389.9" y="353.4" fill="#A7A9AC" width="0.9" height="4.4"/>
					<rect x="394" y="353.6" fill="#A7A9AC" width="0.9" height="4.4"/>
					<rect x="398" y="353.7" fill="#A7A9AC" width="0.9" height="4.4"/>
					<rect x="402.1" y="353.9" fill="#A7A9AC" width="0.9" height="4.4"/>
					<rect x="406.2" y="354.1" fill="#A7A9AC" width="0.9" height="4.4"/>
					<rect x="410.3" y="354.3" fill="#A7A9AC" width="0.9" height="4.4"/>
				</g>
				<g>
					<rect x="385.8" y="358.9" fill="#A7A9AC" width="0.9" height="4.4"/>
					<rect x="389.9" y="359" fill="#A7A9AC" width="0.9" height="4.4"/>
					<rect x="394" y="359.2" fill="#A7A9AC" width="0.9" height="4.4"/>
					<rect x="398" y="359.4" fill="#A7A9AC" width="0.9" height="4.4"/>
					<rect x="402.1" y="359.6" fill="#A7A9AC" width="0.9" height="4.4"/>
					<rect x="406.2" y="359.8" fill="#A7A9AC" width="0.9" height="4.4"/>
					<rect x="410.3" y="360" fill="#A7A9AC" width="0.9" height="4.4"/>
				</g>
			</g>
			<g>
				<polygon fill="#BCBEC0" points="399.8,369.8 399.8,357.1 424.3,345.7 424.3,369.8 				"/>
				<g>
					<polygon fill="#BCBEC0" points="413.9,355.5 407,355.9 408.1,330.4 412.8,330.4 					"/>
					<ellipse fill="#D1D3D4" cx="410.4" cy="330.4" rx="2.3" ry="0.3"/>
				</g>
				<g>
					<polygon fill="#BCBEC0" points="423.1,354.5 416.3,355 417.4,329.5 422,329.5 					"/>
					<ellipse fill="#D1D3D4" cx="419.7" cy="329.5" rx="2.3" ry="0.3"/>
				</g>
				<g>
					<polygon fill="#BCBEC0" points="432.3,353.5 425.5,354 426.6,328.5 431.3,328.5 					"/>
					<ellipse fill="#D1D3D4" cx="428.9" cy="328.5" rx="2.3" ry="0.3"/>
				</g>
				<g>
					<polygon fill="#BCBEC0" points="441.6,352.5 434.7,353 435.8,327.5 440.5,327.5 					"/>
					<ellipse fill="#D1D3D4" cx="438.2" cy="327.5" rx="2.3" ry="0.3"/>
				</g>
				<polygon fill="#E6E7E8" points="424.3,345.7 454.4,347 454.4,369.8 424.3,369.8 				"/>
				<g>
					<rect x="426.6" y="347.5" fill="#A7A9AC" width="0.9" height="4.4"/>
					<rect x="430.7" y="347.7" fill="#A7A9AC" width="0.9" height="4.4"/>
					<rect x="434.8" y="347.9" fill="#A7A9AC" width="0.9" height="4.4"/>
					<rect x="438.8" y="348.1" fill="#A7A9AC" width="0.9" height="4.4"/>
					<rect x="442.9" y="348.3" fill="#A7A9AC" width="0.9" height="4.4"/>
					<rect x="447" y="348.5" fill="#A7A9AC" width="0.9" height="4.4"/>
					<rect x="451.1" y="348.6" fill="#A7A9AC" width="0.9" height="4.4"/>
				</g>
				<g>
					<rect x="426.6" y="353.2" fill="#A7A9AC" width="0.9" height="4.4"/>
					<rect x="430.7" y="353.4" fill="#A7A9AC" width="0.9" height="4.4"/>
					<rect x="434.8" y="353.6" fill="#A7A9AC" width="0.9" height="4.4"/>
					<rect x="438.8" y="353.7" fill="#A7A9AC" width="0.9" height="4.4"/>
					<rect x="442.9" y="353.9" fill="#A7A9AC" width="0.9" height="4.4"/>
					<rect x="447" y="354.1" fill="#A7A9AC" width="0.9" height="4.4"/>
					<rect x="451.1" y="354.3" fill="#A7A9AC" width="0.9" height="4.4"/>
				</g>
				<g>
					<rect x="426.6" y="358.9" fill="#A7A9AC" width="0.9" height="4.4"/>
					<rect x="430.7" y="359" fill="#A7A9AC" width="0.9" height="4.4"/>
					<rect x="434.8" y="359.2" fill="#A7A9AC" width="0.9" height="4.4"/>
					<rect x="438.8" y="359.4" fill="#A7A9AC" width="0.9" height="4.4"/>
					<rect x="442.9" y="359.6" fill="#A7A9AC" width="0.9" height="4.4"/>
					<rect x="447" y="359.8" fill="#A7A9AC" width="0.9" height="4.4"/>
					<rect x="451.1" y="360" fill="#A7A9AC" width="0.9" height="4.4"/>
				</g>
			</g>
			<path fill="#D1D3D4" d="M372.6,320.2c-0.1-0.1-0.1-0.3-0.2-0.4c-0.8-1.1-2.3-1.4-3.4-0.6c-1.1,0.8-1.4,2.3-0.6,3.4
				c0.1,0.2,0.3,0.3,0.4,0.5c-0.7,0.8-0.8,2-0.2,2.9c0,0,0,0,0,0c-0.6,0.4-0.8,1.3-0.4,2c0.4,0.6,1.3,0.8,2,0.4
				c0.4-0.3,0.6-0.7,0.6-1.2c0.5,0,0.9-0.2,1.3-0.4c0.6-0.4,0.9-1,1-1.7c0.5,0,1.1-0.1,1.5-0.4c1.1-0.8,1.4-2.3,0.6-3.4
				C374.6,320.3,373.5,319.9,372.6,320.2z"/>
			<path fill="#D1D3D4" d="M381.8,319.9c-0.1-0.1-0.1-0.3-0.2-0.4c-0.8-1.1-2.3-1.4-3.4-0.6c-1.1,0.8-1.4,2.3-0.6,3.4
				c0.1,0.2,0.3,0.3,0.4,0.5c-0.7,0.8-0.8,2-0.2,2.9c0,0,0,0,0,0c-0.6,0.4-0.8,1.3-0.4,2c0.4,0.6,1.3,0.8,2,0.4
				c0.4-0.3,0.6-0.7,0.6-1.2c0.5,0,0.9-0.2,1.3-0.4c0.6-0.4,0.9-1,1-1.7c0.5,0,1.1-0.1,1.5-0.4c1.1-0.8,1.4-2.3,0.6-3.4
				C383.8,320,382.8,319.7,381.8,319.9z"/>
			<path fill="#D1D3D4" d="M391.4,319c-0.1-0.1-0.1-0.3-0.2-0.4c-0.8-1.1-2.3-1.4-3.4-0.6c-1.1,0.8-1.4,2.3-0.6,3.4
				c0.1,0.2,0.3,0.3,0.4,0.5c-0.7,0.8-0.8,2-0.2,2.9c0,0,0,0,0,0c-0.6,0.4-0.8,1.3-0.4,2c0.4,0.6,1.3,0.8,2,0.4
				c0.4-0.3,0.6-0.7,0.6-1.2c0.5,0,0.9-0.2,1.3-0.4c0.6-0.4,0.9-1,1-1.7c0.5,0,1.1-0.1,1.5-0.4c1.1-0.8,1.4-2.3,0.6-3.4
				C393.4,319.1,392.4,318.8,391.4,319z"/>
			<path fill="#D1D3D4" d="M401,318.1c-0.1-0.1-0.1-0.3-0.2-0.4c-0.8-1.1-2.3-1.4-3.4-0.6c-1.1,0.8-1.4,2.3-0.6,3.4
				c0.1,0.2,0.3,0.3,0.4,0.5c-0.7,0.8-0.8,2-0.2,2.9c0,0,0,0,0,0c-0.6,0.4-0.8,1.3-0.4,2s1.3,0.8,2,0.4c0.4-0.3,0.6-0.7,0.6-1.2
				c0.5,0,0.9-0.2,1.3-0.4c0.6-0.4,0.9-1,1-1.7c0.5,0,1.1-0.1,1.5-0.4c1.1-0.8,1.4-2.3,0.6-3.4C403,318.2,402,317.8,401,318.1z"/>
			<path fill="#D1D3D4" d="M414.6,319.7c-0.1-0.1-0.1-0.3-0.2-0.4c-0.8-1.1-2.3-1.4-3.4-0.6c-1.1,0.8-1.4,2.3-0.6,3.4
				c0.1,0.2,0.3,0.3,0.4,0.5c-0.7,0.8-0.8,2-0.2,2.9c0,0,0,0,0,0c-0.6,0.4-0.8,1.3-0.4,2c0.4,0.6,1.3,0.8,2,0.4
				c0.4-0.3,0.6-0.7,0.6-1.2c0.5,0,0.9-0.2,1.3-0.4c0.6-0.4,0.9-1,1-1.7c0.5,0,1.1-0.1,1.5-0.4c1.1-0.8,1.4-2.3,0.6-3.4
				C416.6,319.8,415.6,319.4,414.6,319.7z"/>
			<path fill="#D1D3D4" d="M423.9,319.4c-0.1-0.1-0.1-0.3-0.2-0.4c-0.8-1.1-2.3-1.4-3.4-0.6c-1.1,0.8-1.4,2.3-0.6,3.4
				c0.1,0.2,0.3,0.3,0.4,0.5c-0.7,0.8-0.8,2-0.2,2.9c0,0,0,0,0,0c-0.6,0.4-0.8,1.3-0.4,2s1.3,0.8,2,0.4c0.4-0.3,0.6-0.7,0.6-1.2
				c0.5,0,0.9-0.2,1.3-0.4c0.6-0.4,0.9-1,1-1.7c0.5,0,1.1-0.1,1.5-0.4c1.1-0.8,1.4-2.3,0.6-3.4C425.9,319.5,424.8,319.2,423.9,319.4
				z"/>
			<path fill="#D1D3D4" d="M433.5,318.5c-0.1-0.1-0.1-0.3-0.2-0.4c-0.8-1.1-2.3-1.4-3.4-0.6c-1.1,0.8-1.4,2.3-0.6,3.4
				c0.1,0.2,0.3,0.3,0.4,0.5c-0.7,0.8-0.8,2-0.2,2.9c0,0,0,0,0,0c-0.6,0.4-0.8,1.3-0.4,2s1.3,0.8,2,0.4c0.4-0.3,0.6-0.7,0.6-1.2
				c0.5,0,0.9-0.2,1.3-0.4c0.6-0.4,0.9-1,1-1.7c0.5,0,1.1-0.1,1.5-0.4c1.1-0.8,1.4-2.3,0.6-3.4C435.5,318.6,434.4,318.3,433.5,318.5
				z"/>
			<path fill="#D1D3D4" d="M443.1,317.6c-0.1-0.1-0.1-0.3-0.2-0.4c-0.8-1.1-2.3-1.4-3.4-0.6c-1.1,0.8-1.4,2.3-0.6,3.4
				c0.1,0.2,0.3,0.3,0.4,0.5c-0.7,0.8-0.8,2-0.2,2.9c0,0,0,0,0,0c-0.6,0.4-0.8,1.3-0.4,2c0.4,0.6,1.3,0.8,2,0.4
				c0.4-0.3,0.6-0.7,0.6-1.2c0.5,0,0.9-0.2,1.3-0.4c0.6-0.4,0.9-1,1-1.7c0.5,0,1.1-0.1,1.5-0.4c1.1-0.8,1.4-2.3,0.6-3.4
				C445.1,317.7,444,317.3,443.1,317.6z"/>
		</g>
	</g>
	<g>
		<g>
			
				<polyline fill="none" stroke="#FFFFFF" stroke-width="4" stroke-linecap="round" stroke-linejoin="round" stroke-miterlimit="10" points="
				319.2,247.1 330.9,235.4 338.1,243.7 352,229.9 360.3,238.4 373.4,226.4 			"/>
			
				<polyline fill="none" stroke="#FFFFFF" stroke-width="4" stroke-linecap="round" stroke-linejoin="round" stroke-miterlimit="10" points="
				366.8,225 374.7,225 374.7,232.2 			"/>
		</g>
		<g>
			<g>
				<g>
					<path fill="#FFFFFF" d="M343.9,262.9c-0.6,0-1-0.4-1-1v-5c-3.5-0.6-7.2-2.3-9.8-4.7c-0.4-0.3-0.4-0.9-0.1-1.3l2.3-3.3
						c0.2-0.2,0.4-0.4,0.7-0.4c0,0,0.1,0,0.1,0c0.2,0,0.5,0.1,0.6,0.2c2.9,2.4,5.6,3.6,8.5,3.6c3.7,0,5.7-1.8,5.7-5.1
						c0-4-3.3-5.7-7.2-7.7c-4.4-2.2-9.4-4.8-9.4-11.4c0-5.4,3.4-9.5,8.7-10.7V211c0-0.6,0.4-1,1-1h3.5c0.6,0,1,0.4,1,1v5
						c3.9,0.7,6.3,2.7,8.1,4.6c0.4,0.4,0.4,1,0,1.4l-2.6,2.9c-0.2,0.2-0.4,0.3-0.7,0.3c0,0,0,0,0,0c-0.3,0-0.5-0.1-0.7-0.3
						c-2.1-2-3.7-3.1-6.5-3.1c-3.1,0-5,1.8-5,4.7c0,3.1,2.5,4.5,6.5,6.5c4.5,2.2,10.1,4.9,10.1,12.5c0,5.8-3.5,10-9.2,11.1v5.2
						c0,0.6-0.4,1-1,1H343.9z"/>
					<path fill="#002A5E" d="M347.4,211v5.9c3.8,0.4,6.3,2.2,8.4,4.5l-2.6,2.9c-2.2-2.1-4-3.3-7.2-3.3c-3.7,0-6,2.3-6,5.7
						c0,8.7,16.6,6.3,16.6,19c0,5.6-3.6,9.5-9.2,10.3v6h-3.5V256c-3.8-0.4-7.6-2.2-10.1-4.6l2.3-3.3c2.5,2.1,5.5,3.9,9.1,3.9
						c4.4,0,6.7-2.4,6.7-6.1c0-9.7-16.6-7.5-16.6-19.1c0-5.3,3.5-9.1,8.7-9.8v-6H347.4 M347.4,209h-3.5c-1.1,0-2,0.9-2,2v4.4
						c-5.2,1.5-8.7,5.9-8.7,11.4c0,7.3,5.5,10.1,10,12.3c4.1,2.1,6.7,3.5,6.7,6.8c0,2.8-1.5,4.1-4.7,4.1c-2.6,0-5.1-1.1-7.8-3.4
						c-0.4-0.3-0.8-0.5-1.3-0.5c-0.1,0-0.2,0-0.3,0c-0.6,0.1-1.1,0.4-1.4,0.8l-2.3,3.3c-0.6,0.8-0.4,1.9,0.3,2.6
						c2.6,2.4,6,4.1,9.5,4.8v4.2c0,1.1,0.9,2,2,2h3.5c1.1,0,2-0.9,2-2v-4.4c5.6-1.5,9.2-6,9.2-11.9c0-8.2-6.1-11.2-10.6-13.4
						c-3.8-1.9-6-3-6-5.6c0-2.4,1.5-3.7,4-3.7c2.5,0,3.9,0.9,5.8,2.8c0.4,0.4,0.9,0.6,1.4,0.6c0,0,0,0,0.1,0c0.5,0,1.1-0.3,1.4-0.7
						l2.6-2.9c0.7-0.8,0.7-2,0-2.7c-1.7-1.8-4.1-3.9-7.8-4.8V211C349.4,209.9,348.5,209,347.4,209L347.4,209z"/>
				</g>
			</g>
		</g>
	</g>
	<g>
		<path fill="none" stroke="#0074B7" stroke-width="3" stroke-linecap="round" stroke-linejoin="round" stroke-miterlimit="10" d="
			M430.5,111.6h-38.1c-4.4,0-8-3.6-8-8V64.2c0-4.4,3.6-8,8-8h38.1c4.4,0,8,3.6,8,8v39.4C438.5,108,434.9,111.6,430.5,111.6z"/>
		<g>
			<g>
				<g>
					<rect x="376.7" y="96.2" fill="#0074B7" width="7.3" height="2.6"/>
				</g>
				<g>
					<rect x="376.7" y="90.4" fill="#0074B7" width="7.3" height="2.6"/>
				</g>
				<g>
					<rect x="376.7" y="85.2" fill="#0074B7" width="7.3" height="2.6"/>
				</g>
				<g>
					<rect x="376.7" y="80" fill="#0074B7" width="7.3" height="2.6"/>
				</g>
				<g>
					<rect x="376.7" y="74.8" fill="#0074B7" width="7.3" height="2.6"/>
				</g>
				<g>
					<rect x="376.7" y="69.6" fill="#0074B7" width="7.3" height="2.6"/>
				</g>
			</g>
			<g>
				<g>
					<rect x="439.1" y="96.2" fill="#0074B7" width="7.3" height="2.6"/>
				</g>
				<g>
					<rect x="439.1" y="90.4" fill="#0074B7" width="7.3" height="2.6"/>
				</g>
				<g>
					<rect x="439.1" y="85.2" fill="#0074B7" width="7.3" height="2.6"/>
				</g>
				<g>
					<rect x="439.1" y="80" fill="#0074B7" width="7.3" height="2.6"/>
				</g>
				<g>
					<rect x="439.1" y="74.8" fill="#0074B7" width="7.3" height="2.6"/>
				</g>
				<g>
					<rect x="439.1" y="69.6" fill="#0074B7" width="7.3" height="2.6"/>
				</g>
			</g>
			<g>
				<g>
					<g>
						<polygon fill="#0074B7" points="400.8,108.1 400.8,75.1 389.7,57 392.6,55.2 404.2,74.1 404.2,108.1 						"/>
						<path fill="#FFFFFF" d="M392.5,55.7l11.3,18.5v33.5h-2.6V74.9l-10.9-17.9L392.5,55.7 M392.8,54.7l-0.6,0.4l-2.2,1.4l-0.6,0.4
							l0.4,0.6l10.8,17.7v32.6v0.8h0.8h2.6h0.8v-0.8V74.2V74l-0.1-0.2l-11.3-18.5L392.8,54.7L392.8,54.7z"/>
					</g>
					<g>
						<rect x="409.9" y="48.8" fill="#0074B7" width="3.4" height="59.3"/>
						<path fill="#FFFFFF" d="M413,49.2v58.6h-2.6V49.2H413 M413.7,48.4H413h-2.6h-0.8v0.8v58.6v0.8h0.8h2.6h0.8v-0.8V49.2V48.4
							L413.7,48.4z"/>
					</g>
					<g>
						<polygon fill="#0074B7" points="420,108.1 420,90 427.1,76.3 430.1,77.9 423.3,90.8 423.3,108.1 						"/>
						<path fill="#FFFFFF" d="M427.3,76.9l2.3,1.2L423,90.7v17h-2.6V90.1L427.3,76.9 M427,75.8l-0.3,0.7l-7,13.2l-0.1,0.2v0.2v17.7
							v0.8h0.8h2.6h0.8v-0.8V90.9l6.6-12.5l0.3-0.7l-0.7-0.3l-2.3-1.2L427,75.8L427,75.8z"/>
					</g>
					<g>
						<path fill="#0074B7" d="M388.3,58.8c-4.2,0-7.5-3.4-7.5-7.5s3.4-7.5,7.5-7.5s7.5,3.4,7.5,7.5S392.4,58.8,388.3,58.8z
							 M388.3,47.1c-2.3,0-4.1,1.9-4.1,4.1c0,2.3,1.9,4.1,4.1,4.1c2.3,0,4.1-1.9,4.1-4.1C392.4,49,390.6,47.1,388.3,47.1z"/>
						<path fill="#FFFFFF" d="M388.3,44.1c3.9,0,7.2,3.2,7.2,7.2s-3.2,7.2-7.2,7.2c-3.9,0-7.2-3.2-7.2-7.2S384.4,44.1,388.3,44.1
							 M388.3,55.8c2.5,0,4.5-2,4.5-4.5c0-2.5-2-4.5-4.5-4.5c-2.5,0-4.5,2-4.5,4.5C383.8,53.7,385.8,55.8,388.3,55.8 M388.3,43.3
							c-4.4,0-7.9,3.5-7.9,7.9c0,4.4,3.5,7.9,7.9,7.9c4.4,0,7.9-3.5,7.9-7.9C396.2,46.9,392.7,43.3,388.3,43.3L388.3,43.3z
							 M388.3,55c-2.1,0-3.8-1.7-3.8-3.8c0-2.1,1.7-3.8,3.8-3.8s3.8,1.7,3.8,3.8C392.1,53.3,390.4,55,388.3,55L388.3,55z"/>
					</g>
					<g>
						<path fill="#0074B7" d="M411.6,50.9c-3.9,0-7.1-3.2-7.1-7.1s3.2-7.1,7.1-7.1s7.1,3.2,7.1,7.1S415.6,50.9,411.6,50.9z
							 M411.6,40c-2.1,0-3.7,1.7-3.7,3.7s1.7,3.7,3.7,3.7c2.1,0,3.7-1.7,3.7-3.7S413.7,40,411.6,40z"/>
						<path fill="#FFFFFF" d="M411.6,37c3.7,0,6.8,3,6.8,6.8s-3,6.8-6.8,6.8c-3.7,0-6.8-3-6.8-6.8S407.9,37,411.6,37 M411.6,47.8
							c2.3,0,4.1-1.8,4.1-4.1s-1.8-4.1-4.1-4.1c-2.3,0-4.1,1.8-4.1,4.1S409.4,47.8,411.6,47.8 M411.6,36.2c-4.1,0-7.5,3.4-7.5,7.5
							c0,4.1,3.4,7.5,7.5,7.5s7.5-3.4,7.5-7.5C419.1,39.6,415.8,36.2,411.6,36.2L411.6,36.2z M411.6,47.1c-1.9,0-3.4-1.5-3.4-3.4
							s1.5-3.4,3.4-3.4s3.4,1.5,3.4,3.4S413.5,47.1,411.6,47.1L411.6,47.1z"/>
					</g>
					<g>
						<path fill="#0074B7" d="M430.8,80c-3.9,0-7.1-3.2-7.1-7.1s3.2-7.1,7.1-7.1s7.1,3.2,7.1,7.1S434.7,80,430.8,80z M430.8,69.2
							c-2,0-3.7,1.7-3.7,3.7c0,2,1.7,3.7,3.7,3.7c2,0,3.7-1.7,3.7-3.7C434.5,70.9,432.9,69.2,430.8,69.2z"/>
						<path fill="#FFFFFF" d="M430.8,66.2c3.7,0,6.7,3,6.7,6.7c0,3.7-3,6.7-6.7,6.7c-3.7,0-6.7-3-6.7-6.7
							C424.1,69.2,427.1,66.2,430.8,66.2 M430.8,77c2.3,0,4.1-1.8,4.1-4.1c0-2.3-1.8-4.1-4.1-4.1s-4.1,1.8-4.1,4.1
							C426.7,75.2,428.6,77,430.8,77 M430.8,65.4c-4.1,0-7.5,3.3-7.5,7.5c0,4.1,3.4,7.5,7.5,7.5c4.1,0,7.5-3.4,7.5-7.5
							C438.3,68.8,434.9,65.4,430.8,65.4L430.8,65.4z M430.8,76.2c-1.8,0-3.3-1.5-3.3-3.3c0-1.8,1.5-3.3,3.3-3.3
							c1.8,0,3.3,1.5,3.3,3.3C434.2,74.8,432.7,76.2,430.8,76.2L430.8,76.2z"/>
					</g>
				</g>
			</g>
			<rect x="389.6" y="92.3" fill="#0074B7" width="6.1" height="8.2"/>
			<rect x="391.3" y="75.5" fill="#0074B7" width="2.6" height="6.1"/>
			<rect x="429.2" y="94.4" fill="#0074B7" width="2.6" height="6.1"/>
			<rect x="417.9" y="69.3" fill="#0074B7" width="2.6" height="6.1"/>
			<circle fill="#0074B7" cx="430.4" cy="88.9" r="1.6"/>
			<circle fill="#0074B7" cx="392.7" cy="86.3" r="1.6"/>
			<circle fill="#0074B7" cx="403.8" cy="63.2" r="1.6"/>
			<circle fill="#0074B7" cx="419.2" cy="63.2" r="1.6"/>
		</g>
	</g>
</g>
<g>
</g>
<g>
</g>
<g>
</g>
<g>
</g>
<g>
</g>
<g>
</g>
<g>
</g>
<g>
</g>
<g>
</g>
<g>
</g>
<g>
</g>
<g>
</g>
<g>
</g>
<g>
</g>
<g>
</g>
</svg>
