<?xml version="1.0" encoding="utf-8"?>
<!-- Generator: Adobe Illustrator 18.0.0, SVG Export Plug-In . SVG Version: 6.00 Build 0)  -->
<!DOCTYPE svg PUBLIC "-//W3C//DTD SVG 1.1//EN" "http://www.w3.org/Graphics/SVG/1.1/DTD/svg11.dtd">
<svg version="1.1" id="Layer_1" xmlns="http://www.w3.org/2000/svg" xmlns:xlink="http://www.w3.org/1999/xlink" x="0px" y="0px"
	 viewBox="0 0 83.3 39.4" enable-background="new 0 0 83.3 39.4" xml:space="preserve">
<g>
	<g>
		
			<rect x="0.6" y="25.1" transform="matrix(0.1444 0.9895 -0.9895 0.1444 25.9453 20.9718)" fill="#573392" width="0.4" height="0.9"/>
		<path fill="#573392" d="M3,25.4L2.9,25l1.7-0.2l0.1,0.4L3,25.4z M6.3,24.9l-0.1-0.4l1.7-0.2L8,24.7L6.3,24.9z M9.6,24.4L9.6,24
			l1.7-0.2l0.1,0.4L9.6,24.4z M13,24l-0.1-0.4l1.7-0.2l0.1,0.4L13,24z M16.3,23.5L16.2,23l0.4-0.1l0.7-0.8l0.3,0.3l-0.8,1L16.3,23.5
			z M18.8,21.2l-0.3-0.3l1.1-1.3l0.3,0.3L18.8,21.2z M21,18.6l-0.3-0.3l1.1-1.3l0.3,0.3L21,18.6z M23.2,16.1l-0.3-0.3l1.1-1.3
			l0.3,0.3L23.2,16.1z M25.4,13.6l-0.3-0.3l1.1-1.3l0.3,0.3L25.4,13.6z M27.6,11l-0.3-0.3l1.1-1.3l0.3,0.3L27.6,11z"/>
		<polygon fill="#573392" points="30.6,8.5 30.2,8 29.8,8.5 29.5,8.2 30.2,7.3 30.9,8.2 		"/>
		<path fill="#573392" d="M43.5,24.6l-1.1-1.3l0.3-0.3l1.1,1.3L43.5,24.6z M41.4,21.9l-1.1-1.3l0.3-0.3l1.1,1.3L41.4,21.9z
			 M39.2,19.2l-1.1-1.3l0.3-0.3l1.1,1.3L39.2,19.2z M37.1,16.6L36,15.2l0.3-0.3l1.1,1.3L37.1,16.6z M34.9,13.9l-1.1-1.3l0.3-0.3
			l1.1,1.3L34.9,13.9z M32.7,11.2l-1.1-1.3L32,9.6l1.1,1.3L32.7,11.2z"/>
		<polygon fill="#573392" points="45.4,26.9 44.6,25.9 45,25.7 45.3,26.1 45.5,25.6 45.9,25.8 		"/>
		<path fill="#573392" d="M46.7,24.2L46.3,24l0.8-1.6l0.4,0.2L46.7,24.2z M48.2,21l-0.4-0.2l0.8-1.6l0.4,0.2L48.2,21z M49.7,17.9
			l-0.4-0.2l0.8-1.6l0.4,0.2L49.7,17.9z M51.3,14.7l-0.4-0.2l0.8-1.6l0.4,0.2L51.3,14.7z M52.8,11.5l-0.4-0.2l0.8-1.6l0.4,0.2
			L52.8,11.5z M54.3,8.3l-0.4-0.2l0.8-1.6l0.4,0.2L54.3,8.3z M55.9,5.2L55.5,5l0.8-1.6l0.4,0.2L55.9,5.2z"/>
		<polygon fill="#573392" points="57.4,2 57,1.8 57.5,0.7 58.4,1.6 58.1,1.9 57.7,1.5 		"/>
		<path fill="#573392" d="M81.1,24.9l-1.3-1.3l0.3-0.3l1.3,1.3L81.1,24.9z M78.6,22.3L77.3,21l0.3-0.3l1.3,1.3L78.6,22.3z M76,19.7
			l-1.3-1.3l0.3-0.3l1.3,1.3L76,19.7z M73.4,17.2l-1.3-1.3l0.3-0.3l1.3,1.3L73.4,17.2z M70.9,14.6l-1.3-1.3l0.3-0.3l1.3,1.3
			L70.9,14.6z M68.3,12.1L67,10.8l0.3-0.3l1.3,1.3L68.3,12.1z M65.7,9.5l-1.3-1.3l0.3-0.3l1.3,1.3L65.7,9.5z M63.2,7l-1.3-1.3
			l0.3-0.3l1.3,1.3L63.2,7z M60.6,4.4l-1.3-1.3l0.3-0.3l1.3,1.3L60.6,4.4z"/>
		
			<rect x="82.4" y="26.1" transform="matrix(0.7086 0.7056 -0.7056 0.7086 42.6997 -50.8137)" fill="#573392" width="0.9" height="0.4"/>
	</g>
	<polygon fill="#573392" points="29.7,38.7 18.4,31.5 0,29.7 0,29.3 18.6,31 18.6,31.1 29.5,38 40.9,13.3 50.8,15.9 59.8,21.4 
		76.5,8.8 76.8,9.1 59.9,21.9 50.6,16.3 41.1,13.8 	"/>
	<circle fill="#573392" cx="18.5" cy="31.3" r="1.1"/>
	<circle fill="#573392" cx="17" cy="23.1" r="1.1"/>
	<circle fill="#573392" cx="30.4" cy="7.8" r="1.1"/>
	<circle fill="#573392" cx="45.2" cy="26.3" r="1.1"/>
	<circle fill="#573392" cx="57.6" cy="1.1" r="1.1"/>
	<circle fill="#573392" cx="29.7" cy="38.3" r="1.1"/>
	<circle fill="#573392" cx="41" cy="13.5" r="1.1"/>
	<circle fill="#573392" cx="50.6" cy="16.1" r="1.1"/>
	<circle fill="#573392" cx="59.9" cy="21.6" r="1.1"/>
	<polygon fill="#573392" points="76.9,11.9 76.5,11.9 76.5,9.1 73.2,9.1 73.2,8.7 76.9,8.7 	"/>
</g>
<g>
</g>
<g>
</g>
<g>
</g>
<g>
</g>
<g>
</g>
<g>
</g>
<g>
</g>
<g>
</g>
<g>
</g>
<g>
</g>
<g>
</g>
<g>
</g>
<g>
</g>
<g>
</g>
<g>
</g>
</svg>
