<?xml version="1.0" encoding="utf-8"?>
<!-- Generator: Adobe Illustrator 18.0.0, SVG Export Plug-In . SVG Version: 6.00 Build 0)  -->
<!DOCTYPE svg PUBLIC "-//W3C//DTD SVG 1.1//EN" "http://www.w3.org/Graphics/SVG/1.1/DTD/svg11.dtd">
<svg version="1.1" id="Layer_1" xmlns="http://www.w3.org/2000/svg" xmlns:xlink="http://www.w3.org/1999/xlink" x="0px" y="0px"
	 viewBox="0 0 67.6 85.9" enable-background="new 0 0 67.6 85.9" xml:space="preserve">
<g>
	<g>
		<polygon fill="#0C56AB" points="54.7,31.5 60.6,31.4 43.3,10.5 33.4,19.5 19.6,4.5 0.5,23.9 0.5,19.9 19.7,0.4 33.6,15.4 
			43.4,6.6 62.6,29.3 63,23.8 67.2,36.1 		"/>
		<path fill="#0C56AB" d="M19.7,0.7l13.9,15.1l9.8-8.9l19.5,23l0.4-4.9l3.6,10.7l-10.7-4l5-0.1L43.3,10.1l-9.9,9l-13.8-15L0.7,23.3
			V20L19.7,0.7 M19.7,0l-0.4,0.4l-19,19.3l-0.1,0.1V20v3.3v1.2l0.9-0.9L19.6,4.9l13.5,14.6l0.3,0.4l0.4-0.3l9.5-8.6l16.8,20.3
			l-4,0.1l-2.6,0l2.5,0.9l10.7,4l1,0.4l-0.3-1l-3.6-10.7l-0.8-2.3L62.7,25l-0.3,3.7L43.7,6.6l-0.3-0.4L43,6.5l-9.4,8.6L20,0.4
			L19.7,0L19.7,0z"/>
	</g>
	<g>
		<g>
			<g>
				<path fill="#FBB040" d="M30.2,40.5h-16c-0.2,0-0.3-0.1-0.3-0.3v-2.7c0-0.2,0.1-0.3,0.3-0.3h16c0.2,0,0.3,0.1,0.3,0.3v2.7
					C30.5,40.4,30.4,40.5,30.2,40.5z"/>
				<rect x="14.7" y="37.1" fill="#F1F2F2" width="0.2" height="3.4"/>
				<rect x="16.3" y="37.1" fill="#F1F2F2" width="0.2" height="3.4"/>
				<rect x="18" y="37.1" fill="#F1F2F2" width="0.2" height="3.4"/>
				<rect x="19.6" y="37.1" fill="#F1F2F2" width="0.2" height="3.4"/>
				<rect x="21.2" y="37.1" fill="#F1F2F2" width="0.2" height="3.4"/>
				<rect x="22.9" y="37.1" fill="#F1F2F2" width="0.2" height="3.4"/>
				<rect x="24.5" y="37.1" fill="#F1F2F2" width="0.2" height="3.4"/>
				<rect x="26.2" y="37.1" fill="#F1F2F2" width="0.2" height="3.4"/>
				<rect x="27.8" y="37.1" fill="#F1F2F2" width="0.2" height="3.4"/>
				<rect x="29.4" y="37.1" fill="#F1F2F2" width="0.2" height="3.4"/>
			</g>
			<g>
				<path fill="#FBB040" d="M30.2,36.7h-16c-0.2,0-0.3-0.1-0.3-0.3v-2.7c0-0.2,0.1-0.3,0.3-0.3h16c0.2,0,0.3,0.1,0.3,0.3v2.7
					C30.5,36.5,30.4,36.7,30.2,36.7z"/>
				<rect x="14.7" y="33.3" fill="#F1F2F2" width="0.2" height="3.4"/>
				<rect x="16.3" y="33.3" fill="#F1F2F2" width="0.2" height="3.4"/>
				<rect x="18" y="33.3" fill="#F1F2F2" width="0.2" height="3.4"/>
				<rect x="19.6" y="33.3" fill="#F1F2F2" width="0.2" height="3.4"/>
				<rect x="21.2" y="33.3" fill="#F1F2F2" width="0.2" height="3.4"/>
				<rect x="22.9" y="33.3" fill="#F1F2F2" width="0.2" height="3.4"/>
				<rect x="24.5" y="33.3" fill="#F1F2F2" width="0.2" height="3.4"/>
				<rect x="26.2" y="33.3" fill="#F1F2F2" width="0.2" height="3.4"/>
				<rect x="27.8" y="33.3" fill="#F1F2F2" width="0.2" height="3.4"/>
				<rect x="29.4" y="33.3" fill="#F1F2F2" width="0.2" height="3.4"/>
			</g>
			<g>
				<path fill="#FBB040" d="M30.2,32.8h-16c-0.2,0-0.3-0.1-0.3-0.3v-2.7c0-0.2,0.1-0.3,0.3-0.3h16c0.2,0,0.3,0.1,0.3,0.3v2.7
					C30.5,32.7,30.4,32.8,30.2,32.8z"/>
				<rect x="14.7" y="29.4" fill="#F1F2F2" width="0.2" height="3.4"/>
				<rect x="16.3" y="29.4" fill="#F1F2F2" width="0.2" height="3.4"/>
				<rect x="18" y="29.4" fill="#F1F2F2" width="0.2" height="3.4"/>
				<rect x="19.6" y="29.4" fill="#F1F2F2" width="0.2" height="3.4"/>
				<rect x="21.2" y="29.4" fill="#F1F2F2" width="0.2" height="3.4"/>
				<rect x="22.9" y="29.4" fill="#F1F2F2" width="0.2" height="3.4"/>
				<rect x="24.5" y="29.4" fill="#F1F2F2" width="0.2" height="3.4"/>
				<rect x="26.2" y="29.4" fill="#F1F2F2" width="0.2" height="3.4"/>
				<rect x="27.8" y="29.4" fill="#F1F2F2" width="0.2" height="3.4"/>
				<rect x="29.4" y="29.4" fill="#F1F2F2" width="0.2" height="3.4"/>
			</g>
			<g>
				<path fill="#FBB040" d="M30.2,29h-16c-0.2,0-0.3-0.1-0.3-0.3v-2.7c0-0.2,0.1-0.3,0.3-0.3h16c0.2,0,0.3,0.1,0.3,0.3v2.7
					C30.5,28.8,30.4,29,30.2,29z"/>
				<rect x="14.7" y="25.6" fill="#F1F2F2" width="0.2" height="3.4"/>
				<rect x="16.3" y="25.6" fill="#F1F2F2" width="0.2" height="3.4"/>
				<rect x="18" y="25.6" fill="#F1F2F2" width="0.2" height="3.4"/>
				<rect x="19.6" y="25.6" fill="#F1F2F2" width="0.2" height="3.4"/>
				<rect x="21.2" y="25.6" fill="#F1F2F2" width="0.2" height="3.4"/>
				<rect x="22.9" y="25.6" fill="#F1F2F2" width="0.2" height="3.4"/>
				<rect x="24.5" y="25.6" fill="#F1F2F2" width="0.2" height="3.4"/>
				<rect x="26.2" y="25.6" fill="#F1F2F2" width="0.2" height="3.4"/>
				<rect x="27.8" y="25.6" fill="#F1F2F2" width="0.2" height="3.4"/>
				<rect x="29.4" y="25.6" fill="#F1F2F2" width="0.2" height="3.4"/>
			</g>
			<g>
				<path fill="#FBB040" d="M30.3,23.6l-16,1.5c-0.2,0-0.3-0.1-0.3-0.3l-0.3-2.7c0-0.2,0.1-0.3,0.3-0.3l16-1.5
					c0.2,0,0.3,0.1,0.3,0.3l0.3,2.7C30.6,23.4,30.5,23.6,30.3,23.6z"/>
				
					<rect x="14.7" y="21.7" transform="matrix(0.9955 -9.505927e-002 9.505927e-002 0.9955 -2.1568 1.5177)" fill="#F1F2F2" width="0.2" height="3.4"/>
				
					<rect x="16.4" y="21.6" transform="matrix(0.9955 -9.505927e-002 9.505927e-002 0.9955 -2.1346 1.672)" fill="#F1F2F2" width="0.2" height="3.4"/>
				
					<rect x="18" y="21.4" transform="matrix(0.9955 -9.505927e-002 9.505927e-002 0.9955 -2.1125 1.8262)" fill="#F1F2F2" width="0.2" height="3.4"/>
				
					<rect x="19.6" y="21.2" transform="matrix(0.9955 -9.505927e-002 9.505927e-002 0.9955 -2.0903 1.9805)" fill="#F1F2F2" width="0.2" height="3.4"/>
				
					<rect x="21.2" y="21.1" transform="matrix(0.9955 -9.505927e-002 9.505927e-002 0.9955 -2.0681 2.1347)" fill="#F1F2F2" width="0.2" height="3.4"/>
				
					<rect x="22.9" y="20.9" transform="matrix(0.9955 -9.505927e-002 9.505927e-002 0.9955 -2.0459 2.289)" fill="#F1F2F2" width="0.2" height="3.4"/>
				
					<rect x="24.5" y="20.8" transform="matrix(0.9955 -9.505927e-002 9.505927e-002 0.9955 -2.0237 2.4432)" fill="#F1F2F2" width="0.2" height="3.4"/>
				
					<rect x="26.1" y="20.6" transform="matrix(0.9955 -9.505927e-002 9.505927e-002 0.9955 -2.0016 2.5975)" fill="#F1F2F2" width="0.2" height="3.4"/>
				
					<rect x="27.8" y="20.5" transform="matrix(0.9955 -9.505927e-002 9.505927e-002 0.9955 -1.9794 2.7517)" fill="#F1F2F2" width="0.2" height="3.4"/>
				
					<rect x="29.4" y="20.3" transform="matrix(0.9955 -9.505927e-002 9.505927e-002 0.9955 -1.9572 2.906)" fill="#F1F2F2" width="0.2" height="3.4"/>
			</g>
		</g>
		<g>
			<g>
				<path fill="#FBB040" d="M49.1,40.5H33c-0.2,0-0.3-0.1-0.3-0.3v-2.7c0-0.2,0.1-0.3,0.3-0.3h16c0.2,0,0.3,0.1,0.3,0.3v2.7
					C49.4,40.4,49.2,40.5,49.1,40.5z"/>
				<rect x="33.5" y="37.1" fill="#F1F2F2" width="0.2" height="3.4"/>
				<rect x="35.2" y="37.1" fill="#F1F2F2" width="0.2" height="3.4"/>
				<rect x="36.8" y="37.1" fill="#F1F2F2" width="0.2" height="3.4"/>
				<rect x="38.5" y="37.1" fill="#F1F2F2" width="0.2" height="3.4"/>
				<rect x="40.1" y="37.1" fill="#F1F2F2" width="0.2" height="3.4"/>
				<rect x="41.7" y="37.1" fill="#F1F2F2" width="0.2" height="3.4"/>
				<rect x="43.4" y="37.1" fill="#F1F2F2" width="0.2" height="3.4"/>
				<rect x="45" y="37.1" fill="#F1F2F2" width="0.2" height="3.4"/>
				<rect x="46.6" y="37.1" fill="#F1F2F2" width="0.2" height="3.4"/>
				<rect x="48.3" y="37.1" fill="#F1F2F2" width="0.2" height="3.4"/>
			</g>
			<g>
				<path fill="#FBB040" d="M49.1,36.7H33c-0.2,0-0.3-0.1-0.3-0.3v-2.7c0-0.2,0.1-0.3,0.3-0.3h16c0.2,0,0.3,0.1,0.3,0.3v2.7
					C49.4,36.5,49.2,36.7,49.1,36.7z"/>
				<rect x="33.5" y="33.3" fill="#F1F2F2" width="0.2" height="3.4"/>
				<rect x="35.2" y="33.3" fill="#F1F2F2" width="0.2" height="3.4"/>
				<rect x="36.8" y="33.3" fill="#F1F2F2" width="0.2" height="3.4"/>
				<rect x="38.5" y="33.3" fill="#F1F2F2" width="0.2" height="3.4"/>
				<rect x="40.1" y="33.3" fill="#F1F2F2" width="0.2" height="3.4"/>
				<rect x="41.7" y="33.3" fill="#F1F2F2" width="0.2" height="3.4"/>
				<rect x="43.4" y="33.3" fill="#F1F2F2" width="0.2" height="3.4"/>
				<rect x="45" y="33.3" fill="#F1F2F2" width="0.2" height="3.4"/>
				<rect x="46.6" y="33.3" fill="#F1F2F2" width="0.2" height="3.4"/>
				<rect x="48.3" y="33.3" fill="#F1F2F2" width="0.2" height="3.4"/>
			</g>
			<g>
				<path fill="#FBB040" d="M49.1,32.8H33c-0.2,0-0.3-0.1-0.3-0.3v-2.7c0-0.2,0.1-0.3,0.3-0.3h16c0.2,0,0.3,0.1,0.3,0.3v2.7
					C49.4,32.7,49.2,32.8,49.1,32.8z"/>
				<rect x="33.5" y="29.4" fill="#F1F2F2" width="0.2" height="3.4"/>
				<rect x="35.2" y="29.4" fill="#F1F2F2" width="0.2" height="3.4"/>
				<rect x="36.8" y="29.4" fill="#F1F2F2" width="0.2" height="3.4"/>
				<rect x="38.5" y="29.4" fill="#F1F2F2" width="0.2" height="3.4"/>
				<rect x="40.1" y="29.4" fill="#F1F2F2" width="0.2" height="3.4"/>
				<rect x="41.7" y="29.4" fill="#F1F2F2" width="0.2" height="3.4"/>
				<rect x="43.4" y="29.4" fill="#F1F2F2" width="0.2" height="3.4"/>
				<rect x="45" y="29.4" fill="#F1F2F2" width="0.2" height="3.4"/>
				<rect x="46.6" y="29.4" fill="#F1F2F2" width="0.2" height="3.4"/>
				<rect x="48.3" y="29.4" fill="#F1F2F2" width="0.2" height="3.4"/>
			</g>
			<g>
				<path fill="#FBB040" d="M49.1,29H33c-0.2,0-0.3-0.1-0.3-0.3v-2.7c0-0.2,0.1-0.3,0.3-0.3h16c0.2,0,0.3,0.1,0.3,0.3v2.7
					C49.4,28.8,49.2,29,49.1,29z"/>
				<rect x="33.5" y="25.6" fill="#F1F2F2" width="0.2" height="3.4"/>
				<rect x="35.2" y="25.6" fill="#F1F2F2" width="0.2" height="3.4"/>
				<rect x="36.8" y="25.6" fill="#F1F2F2" width="0.2" height="3.4"/>
				<rect x="38.5" y="25.6" fill="#F1F2F2" width="0.2" height="3.4"/>
				<rect x="40.1" y="25.6" fill="#F1F2F2" width="0.2" height="3.4"/>
				<rect x="41.7" y="25.6" fill="#F1F2F2" width="0.2" height="3.4"/>
				<rect x="43.4" y="25.6" fill="#F1F2F2" width="0.2" height="3.4"/>
				<rect x="45" y="25.6" fill="#F1F2F2" width="0.2" height="3.4"/>
				<rect x="46.6" y="25.6" fill="#F1F2F2" width="0.2" height="3.4"/>
				<rect x="48.3" y="25.6" fill="#F1F2F2" width="0.2" height="3.4"/>
			</g>
			<g>
				<path fill="#FBB040" d="M49.2,23.6l-16,1.5c-0.2,0-0.3-0.1-0.3-0.3l-0.3-2.7c0-0.2,0.1-0.3,0.3-0.3l16-1.5
					c0.2,0,0.3,0.1,0.3,0.3l0.3,2.7C49.5,23.4,49.4,23.6,49.2,23.6z"/>
				
					<rect x="33.6" y="21.7" transform="matrix(0.9955 -9.505927e-002 9.505927e-002 0.9955 -2.0715 3.3093)" fill="#F1F2F2" width="0.2" height="3.4"/>
				
					<rect x="35.2" y="21.6" transform="matrix(0.9955 -9.505927e-002 9.505927e-002 0.9955 -2.0493 3.4635)" fill="#F1F2F2" width="0.2" height="3.4"/>
				
					<rect x="36.8" y="21.4" transform="matrix(0.9955 -9.505927e-002 9.505927e-002 0.9955 -2.0271 3.6178)" fill="#F1F2F2" width="0.2" height="3.4"/>
				
					<rect x="38.5" y="21.2" transform="matrix(0.9955 -9.505927e-002 9.505927e-002 0.9955 -2.0049 3.772)" fill="#F1F2F2" width="0.2" height="3.4"/>
				
					<rect x="40.1" y="21.1" transform="matrix(0.9955 -9.505927e-002 9.505927e-002 0.9955 -1.9827 3.9263)" fill="#F1F2F2" width="0.2" height="3.4"/>
				
					<rect x="41.7" y="20.9" transform="matrix(0.9955 -9.505927e-002 9.505927e-002 0.9955 -1.9606 4.0805)" fill="#F1F2F2" width="0.2" height="3.4"/>
				
					<rect x="43.4" y="20.8" transform="matrix(0.9955 -9.505927e-002 9.505927e-002 0.9955 -1.9384 4.2348)" fill="#F1F2F2" width="0.2" height="3.4"/>
				
					<rect x="45" y="20.6" transform="matrix(0.9955 -9.505927e-002 9.505927e-002 0.9955 -1.9162 4.389)" fill="#F1F2F2" width="0.2" height="3.4"/>
				
					<rect x="46.6" y="20.5" transform="matrix(0.9955 -9.505927e-002 9.505927e-002 0.9955 -1.894 4.5433)" fill="#F1F2F2" width="0.2" height="3.4"/>
				
					<rect x="48.2" y="20.3" transform="matrix(0.9955 -9.505927e-002 9.505927e-002 0.9955 -1.8719 4.6975)" fill="#F1F2F2" width="0.2" height="3.4"/>
			</g>
		</g>
	</g>
	<g>
		<path fill="#0C56AB" d="M60,78.4l-60,0l0-38.2l60,0L60,78.4z M2.5,75.9l55,0l0-33.2l-55,0L2.5,75.9z"/>
		<g>
			<rect x="1.2" y="41.5" fill="#FFFFFF" width="57.5" height="35.7"/>
		</g>
		<g>
			<defs>
				<rect id="SVGID_1_" x="4" y="44.5" width="51.9" height="29.8"/>
			</defs>
			<clipPath id="SVGID_2_">
				<use xlink:href="#SVGID_1_"  overflow="visible"/>
			</clipPath>
			<rect x="4.1" y="44.4" clip-path="url(#SVGID_2_)" fill="#FFFFFF" width="51.9" height="29.8"/>
			<circle clip-path="url(#SVGID_2_)" fill="#0C56AB" cx="4.1" cy="44.4" r="3.6"/>
			<circle clip-path="url(#SVGID_2_)" fill="#0C56AB" cx="55.8" cy="44.4" r="3.6"/>
			<circle clip-path="url(#SVGID_2_)" fill="#0C56AB" cx="4.1" cy="74.3" r="3.6"/>
			<circle clip-path="url(#SVGID_2_)" fill="#0C56AB" cx="55.8" cy="74.3" r="3.6"/>
			<use xlink:href="#SVGID_1_"  overflow="visible" fill="none" stroke="#0C56AB" stroke-width="3.2984" stroke-miterlimit="10"/>
		</g>
		<g>
			<circle fill="#0C56AB" cx="51.3" cy="60.1" r="1.4"/>
			<circle fill="#0C56AB" cx="8.7" cy="60.1" r="1.4"/>
		</g>
		<g>
			<polygon fill="#0C56AB" points="52.6,85.9 50.7,84.1 48.2,85.1 49.9,76.2 54.2,77 			"/>
			<polygon fill="#0C56AB" points="55.1,85.9 56.9,84.1 59.4,85.1 57.8,76.2 53.4,77 			"/>
			<circle fill="#0C56AB" cx="53.6" cy="73.5" r="5.3"/>
			<polygon fill="#FFFFFF" points="53.7,70.8 55,69.3 55.2,71.2 57.1,70.8 56.1,72.5 57.9,73.3 56.1,74.1 57.1,75.8 55.2,75.3 
				55,77.3 53.7,75.8 52.4,77.3 52.3,75.3 50.3,75.8 51.3,74.1 49.5,73.3 51.3,72.5 50.3,70.8 52.3,71.2 52.4,69.3 			"/>
		</g>
		
			<line fill="none" stroke="#0C56AB" stroke-width="0.8246" stroke-linecap="round" stroke-miterlimit="10" x1="13.2" y1="47.1" x2="46.8" y2="47.1"/>
		
			<line fill="none" stroke="#0C56AB" stroke-width="0.8246" stroke-linecap="round" stroke-miterlimit="10" x1="13.2" y1="49.7" x2="46.8" y2="49.7"/>
		
			<line fill="none" stroke="#0C56AB" stroke-width="0.8246" stroke-linecap="round" stroke-miterlimit="10" x1="13.2" y1="52.3" x2="46.8" y2="52.3"/>
		
			<line fill="none" stroke="#0C56AB" stroke-width="0.8246" stroke-linecap="round" stroke-miterlimit="10" x1="20.2" y1="54.9" x2="46.8" y2="54.9"/>
		
			<line fill="none" stroke="#0C56AB" stroke-width="0.8246" stroke-linecap="round" stroke-miterlimit="10" x1="20.2" y1="57.6" x2="46.8" y2="57.6"/>
		
			<line fill="none" stroke="#0C56AB" stroke-width="0.8246" stroke-linecap="round" stroke-miterlimit="10" x1="20.2" y1="60.2" x2="46.8" y2="60.2"/>
		
			<line fill="none" stroke="#0C56AB" stroke-width="0.8246" stroke-linecap="round" stroke-miterlimit="10" x1="20.2" y1="62.8" x2="46.8" y2="62.8"/>
		
			<line fill="none" stroke="#0C56AB" stroke-width="0.8246" stroke-linecap="round" stroke-miterlimit="10" x1="20.2" y1="65.4" x2="46.8" y2="65.4"/>
		
			<line fill="none" stroke="#0C56AB" stroke-width="0.8246" stroke-linecap="round" stroke-miterlimit="10" x1="13.2" y1="68" x2="46.8" y2="68"/>
		
			<line fill="none" stroke="#0C56AB" stroke-width="0.8246" stroke-linecap="round" stroke-miterlimit="10" x1="13.2" y1="70.6" x2="46.8" y2="70.6"/>
	</g>
</g>
<g>
</g>
<g>
</g>
<g>
</g>
<g>
</g>
<g>
</g>
<g>
</g>
<g>
</g>
<g>
</g>
<g>
</g>
<g>
</g>
<g>
</g>
<g>
</g>
<g>
</g>
<g>
</g>
<g>
</g>
</svg>
