<?xml version="1.0" encoding="utf-8"?>
<!-- Generator: Adobe Illustrator 18.0.0, SVG Export Plug-In . SVG Version: 6.00 Build 0)  -->
<!DOCTYPE svg PUBLIC "-//W3C//DTD SVG 1.1//EN" "http://www.w3.org/Graphics/SVG/1.1/DTD/svg11.dtd">
<svg version="1.1" id="Layer_1" xmlns="http://www.w3.org/2000/svg" xmlns:xlink="http://www.w3.org/1999/xlink" x="0px" y="0px"
	 viewBox="0 0 192.3 148.2" enable-background="new 0 0 192.3 148.2" xml:space="preserve">
<g>
	<g>
		<g>
			<defs>
				<circle id="SVGID_1_" cx="91.1" cy="76.6" r="30.8"/>
			</defs>
			<clipPath id="SVGID_2_">
				<use xlink:href="#SVGID_1_"  overflow="visible"/>
			</clipPath>
			<g id="CiTCLM_8_" clip-path="url(#SVGID_2_)">
				<rect x="60" y="45.8" fill="#040404" width="61.5" height="20.5"/>
				<rect x="60" y="66.3" fill="#D40404" width="61.5" height="20.5"/>
				<rect x="60" y="86.8" fill="#FFCE00" width="61.5" height="20.5"/>
			</g>
		</g>
		<g>
			<g>
				<path fill="#FFFFFF" d="M148.1,86.8c-23.5,0-42.7-19.1-42.7-42.7c0-23.5,19.1-42.7,42.7-42.7c23.5,0,42.7,19.1,42.7,42.7
					C190.8,67.7,171.6,86.8,148.1,86.8z"/>
				<path fill="#0C56AB" d="M148.1,3c22.7,0,41.2,18.4,41.2,41.2c0,22.7-18.4,41.2-41.2,41.2c-22.7,0-41.2-18.4-41.2-41.2
					C106.9,21.4,125.4,3,148.1,3 M148.1,0c-24.3,0-44.2,19.8-44.2,44.2c0,24.3,19.8,44.2,44.2,44.2s44.2-19.8,44.2-44.2
					C192.3,19.8,172.5,0,148.1,0L148.1,0z"/>
			</g>
			<g>
				<path fill="#2368B5" d="M131.2,6.6c0.3,0,0.6-0.2,0.8-0.4C131.7,6.4,131.4,6.5,131.2,6.6z"/>
				<path fill="#2368B5" d="M164.9,6.6c-0.4-0.2-0.8-0.4-1.2-0.5C164,6.4,164.4,6.6,164.9,6.6z"/>
				<path fill="#2368B5" d="M189.3,44.1c0-1.3-0.1-2.1-0.2-4.1c-6.9,0-13.7,0-20.7,0c0-2,0-4,0-6c7,0,13.1,0,19.6,0
					c-0.5-2-1.2-4-2-6c-2,0-4.1,0-6.1,0c-3.5,0-7,0.1-10.5,0.1c-0.8,0-1-0.2-1-1c0.1-1.5,0-2.9,0-4.5c0-0.3,0-0.7,0-0.7
					c4.7,0,9.4,0,14.1,0c-1.4-2-3.1-5-4.9-6c-0.4,0-0.7,0-1.1,0c-2.5,0-5-0.2-7.5-0.2c-0.2,0-0.6-0.4-0.7-0.6c0-2,0-4.2,0-6.2
					c0.4,0,0.8,0,1.3,0c-1.4-1-2.9-1.6-4.4-2.3c-0.8,0.7-1.1,1.4-0.5,2.5c-1-1-1.9-1-2.9,0c0.3-1,0.5-2-0.7-2.6
					c0.9,0.1,1.5-0.1,1.9-0.8C158.4,4,153.4,3,148.1,3c-5.4,0-10.6,1.1-15.3,3c0.4,0.7,1,0.8,1.9,0.7c-1,0.7-1.4,1.5-0.7,2.6
					c-1-1-1.9-1.1-2.9,0c0.4-1,0.4-1.8-0.3-2.4c-7.7,3.6-14.1,9.5-18.3,16.8c0.4,0.4,1,0.5,1.7,0.4c-0.7,0.7-1.5,1.4-0.7,2.5
					c-0.8-0.8-1.6-0.8-2.4-0.4c-2.6,5.4-4.1,11.7-4.1,18.2c0,0.8,0,1.6,0.1,2.6c27.4,0,54.8,0,82.2,0
					C189.2,45.9,189.3,44.9,189.3,44.1z M111.9,31.2c0.3,0.6,0.4,1.2,0.8,1.4c0.4,0.2,0.9,0.1,1.4,0.1c-0.8,0.7-1.3,1.3-0.6,2.4
					c-1-0.8-1.9-0.8-2.9,0.1c0.4-1,0.5-1.8-0.6-2.5C111.1,32.9,111.7,32.4,111.9,31.2z M113.4,44c-1-1-1.9-0.7-2.9,0
					c0.5-1,0.3-1.8-0.6-2.5c1.2,0.2,1.8-0.4,2.1-1.4c0.2,1.4,1,1.5,2.2,1.4C113.4,42.2,112.7,42.8,113.4,44z M158.1,9.5
					c0.2,1.4,1.1,1.6,2.2,1.5c-1,0.7-1.4,1.4-0.8,2.6c-1-0.8-1.9-1.1-2.9,0c0.3-1,0.5-2-0.7-2.6C157.3,11.1,157.9,10.6,158.1,9.5z
					 M157.5,19.5c0.3-0.2,0.4-0.8,0.7-1.2c0.3,0.5,0.5,1,0.8,1.2c0.3,0.2,0.9,0,1.5,0c-0.5,0.5-1,0.8-1.1,1.2
					c-0.1,0.4,0.1,0.9,0.3,1.5c-0.5-0.3-1-0.8-1.5-0.8c-0.4,0-0.9,0.5-1.4,0.8c0.5-1,0.4-1.8-0.7-2.5
					C156.6,19.6,157.2,19.7,157.5,19.5z M159.6,31c-1-0.9-1.9-1.1-2.9,0c0.4-1.1,0.4-1.9-0.6-2.6c1.2,0.2,1.8-0.4,2.1-1.5
					c0.2,1.3,1,1.6,2.2,1.4C159.5,29.1,158.9,29.8,159.6,31z M153,5.1c0.2,1.3,1,1.6,2.2,1.5c-0.9,0.7-1.5,1.4-0.7,2.6
					c-1-0.9-2-1-2.9,0c0.5-1,0.4-1.9-0.6-2.6C152.2,6.9,152.7,6.2,153,5.1z M153.1,13.9c0.2,1.3,1,1.6,2.2,1.4
					c-0.8,0.7-1.5,1.4-0.6,2.5c-0.1,0-0.2,0-0.2,0c-0.5-0.3-0.9-0.7-1.4-0.7c-0.5,0-0.9,0.5-1.5,0.9c0.2-0.6,0.5-1.1,0.4-1.5
					c-0.1-0.4-0.5-0.7-1-1.3C152.2,15.6,152.7,14.9,153.1,13.9z M154.5,26.6c-1-0.9-1.9-1-2.9,0.1c0.4-1.1,0.5-2-0.7-2.6
					c1.3,0.2,1.8-0.4,2.1-1.5c0.2,1.3,1,1.6,2.2,1.5C154.3,24.7,153.9,25.4,154.5,26.6z M147.9,9.4c0.2,1.3,0.9,1.7,2.1,1.5
					c-0.8,0.7-1.6,1.4-0.7,2.6c-1.1-0.9-2-1.2-2.9,0.1c0.3-1.1,0.6-2-0.7-2.6C147.2,10.8,147.2,10.8,147.9,9.4z M142.8,5.1
					c0.2,1.3,1,1.6,2.2,1.5c-1,0.7-1.4,1.4-0.9,2.5c-0.4-0.3-0.9-0.6-1.3-0.9c-0.5,0.3-0.9,0.6-1.3,0.9c0.4-1,0.3-1.8-0.7-2.5
					C142.1,6.9,142.5,6.1,142.8,5.1z M122.3,13.8c0.3,1.2,1,1.6,2.2,1.4c-0.8,0.7-1.5,1.4-0.7,2.6c-1-1-2-1-2.9,0
					c0.4-1,0.6-1.9-0.7-2.6C121.3,15.4,122,15,122.3,13.8z M123.7,26.5c-1-0.9-2-0.8-2.9,0.1c0.5-1,0.3-1.9-0.6-2.6
					c1.2,0.3,1.8-0.3,2.1-1.4c0.2,1.3,1,1.6,2.1,1.4C123.7,24.7,122.9,25.3,123.7,26.5z M118.4,30.8c-0.4-0.2-0.9-0.6-1.3-0.6
					c-0.5,0-0.9,0.4-1.6,0.8c0.6-1.1,0.6-1.9-0.6-2.6c1.2,0.1,1.9-0.3,2.1-1.5c0.3,1.2,0.9,1.7,2.2,1.4
					C118.6,29.1,117.8,29.7,118.4,30.8z M118.5,39.5c-1-0.8-1.9-0.8-2.9,0.1c0.5-1,0.4-1.8-0.6-2.5c1.2,0.1,1.9-0.3,2.1-1.5
					c0.2,1.3,1,1.7,2.2,1.5C118.4,37.8,117.9,38.4,118.5,39.5z M118.5,22.2c-1-0.9-1.9-0.8-2.9,0c0.4-1,0.4-1.8-0.6-2.5
					c1.2,0.2,1.7-0.4,2.1-1.5c0.2,1.3,1,1.6,2.2,1.5C118.5,20.3,117.8,21,118.5,22.2z M123.7,44c-0.9-0.9-1.9-0.9-2.8,0
					c0.6-1.1,0.2-1.8-0.6-2.5c1.3,0.3,1.7-0.4,2.1-1.5c0.2,1.3,1,1.6,2.1,1.6c-0.3,0.3-0.8,0.6-0.9,0.9
					C123.4,42.9,123.6,43.4,123.7,44z M123.7,35.2c-1-0.9-1.9-0.8-2.9,0c0.1-0.4,0.4-0.9,0.3-1.3c-0.1-0.4-0.5-0.7-1-1.3
					c1.3,0.4,1.8-0.3,2.2-1.3c0.2,1.3,1,1.7,2.2,1.5C123.6,33.4,123,34,123.7,35.2z M126.6,10.8c0.3-0.2,0.5-0.7,0.9-1.4
					c0.1,1.6,1,1.6,2.1,1.6c-0.9,0.7-1.4,1.5-0.7,2.7c-1-1-2-1.1-3,0c0.4-1.1,0.4-1.9-0.8-2.6C125.8,10.9,126.3,11,126.6,10.8z
					 M127.4,18.2c0.2,1.3,1,1.6,2.2,1.5c-0.9,0.6-1.4,1.3-0.7,2.5c-1-1-1.9-0.7-2.9,0c0.6-1,0.3-1.8-0.6-2.5
					C126.5,19.9,127,19.3,127.4,18.2z M128.7,39.6c-0.4-0.3-0.9-0.8-1.3-0.8c-0.5,0-0.9,0.5-1.6,0.9c0.6-1.1,0.5-2-0.5-2.7
					c1.2,0.2,1.8-0.4,2.1-1.5c0.2,1.3,1,1.6,2.2,1.4C128.6,37.7,128.2,38.5,128.7,39.6z M128.6,29.5c-0.1,0.4,0.1,0.9,0.2,1.4
					c-0.5-0.3-1-0.7-1.4-0.7c-0.4,0-0.9,0.5-1.6,0.8c0.7-1.1,0.6-1.9-0.4-2.6c1.2,0.2,1.8-0.3,2.1-1.4c0.3,1.2,1,1.7,2.2,1.3
					c0,0.1,0,0.2,0,0.3C129.2,28.8,128.7,29.1,128.6,29.5z M134.1,44.1c-1-1-2-1-2.9,0c0.4-1.1,0.5-2-0.7-2.6
					c1.3,0.3,1.8-0.4,2.2-1.4c0.2,1.4,1,1.5,2.2,1.4C133.9,42.2,133.3,42.9,134.1,44.1z M134.2,26.6c-0.8-0.4-1.2-0.8-1.7-0.8
					c-0.4,0-0.9,0.5-1.3,0.7c0.5-1,0.2-1.8-0.7-2.5c1.2,0.2,1.8-0.3,2.1-1.5c0.2,1.4,1,1.6,2.2,1.4C134,24.7,133.2,25.3,134.2,26.6z
					 M132.5,31.3c0.3,1.3,1,1.6,2.2,1.4c-0.8,0.7-1.6,1.4-0.7,2.7c-1-1.1-1.9-0.9-2.9,0c0.4-1,0.4-1.9-0.7-2.6
					C131.6,32.9,132.3,32.5,132.5,31.3z M133.9,17.7c-0.5-0.2-0.9-0.6-1.4-0.6c-0.4,0-0.9,0.4-1.4,0.7c0.1-0.5,0.4-1,0.3-1.4
					c-0.1-0.4-0.5-0.7-0.9-1.3c1.3,0.4,1.8-0.3,2.1-1.3c0.3,0.5,0.4,1.1,0.8,1.3c0.4,0.2,0.9,0.1,1.6,0.1
					C134,16,133.2,16.6,133.9,17.7z M137.6,9.5c0.2,1.3,1.1,1.5,2.2,1.5c-1,0.7-1.4,1.5-0.7,2.6c-1-1-1.9-1.1-3,0
					c0.5-1.1,0.4-1.9-0.6-2.6C136.7,11.2,137.3,10.6,137.6,9.5z M139.1,30.9c-1-0.9-1.9-0.8-2.9,0.1c0.5-1,0.3-1.8-0.6-2.5
					c1.3,0.3,1.8-0.4,2.1-1.4c0.1,1.4,1.1,1.5,2.2,1.4C139.1,29.1,138.4,29.7,139.1,30.9z M139,39.7c-0.4-0.3-0.9-0.8-1.3-0.8
					c-0.5,0-0.9,0.5-1.4,0.7c0.3-1,0.3-1.8-0.7-2.5c1.1,0.1,1.9-0.2,2.1-1.4c0.2,0.4,0.3,1,0.6,1.2c0.4,0.2,0.9,0.1,1.6,0.2
					C139,37.8,138.4,38.5,139,39.7z M139.1,22.2c-1.1-1-1.9-0.7-2.9,0c0.5-1,0.4-1.8-0.6-2.5c1.2,0.1,1.9-0.3,2-1.7
					c0.4,0.7,0.5,1.3,0.8,1.5c0.3,0.2,0.9,0.1,1.6,0.2C139.1,20.4,138.3,21,139.1,22.2z M144.2,35.3c-1-1.1-1.9-1-2.9,0
					c0.5-1.1,0.4-1.9-0.6-2.6c1.3,0.3,1.7-0.4,2.1-1.5c0.2,1.3,1,1.6,2.2,1.5C144.1,33.4,143.7,34.2,144.2,35.3z M144.3,26.4
					c-1-0.8-1.9-0.8-2.8,0.1c0.4-1,0.3-1.9-0.8-2.5c0.7-0.1,1.2,0,1.5-0.2c0.3-0.2,0.4-0.8,0.8-1.4c0.1,1.5,1,1.7,2.1,1.6
					C144.3,24.7,143.5,25.3,144.3,26.4z M144.3,44.1c-1-1.1-1.9-1-2.9,0c0.4-1,0.5-2-0.8-2.5c1.4-0.3,1.4-0.3,2.3-1.6
					c0.1,1.3,0.9,1.6,2.1,1.5C144.1,42.2,143.7,42.9,144.3,44.1z M144.3,17.7c-1-0.9-1.9-0.9-2.9,0.1c0.5-1.1,0.3-1.9-0.6-2.6
					c1.1,0.1,1.8-0.2,2.1-1.4c0.2,0.4,0.3,1,0.7,1.2c0.4,0.2,0.9,0.1,1.4,0.1c0,0,0.1,0.1,0.1,0.1C144.2,15.9,143.6,16.6,144.3,17.7
					z M149.4,39.7c-1-1-1.9-1-2.9,0c0.5-1.1,0.4-1.9-0.6-2.6c1.2,0.2,1.8-0.3,2.1-1.5c0.3,1.2,1,1.7,2.2,1.5
					C149.2,37.8,148.8,38.5,149.4,39.7z M149.4,30.9c-1-1-1.9-0.7-2.9,0.1c0.2-1.4,0.2-1.4-0.7-2.7c1.2,0.3,1.8-0.3,2.1-1.4
					c0.2,1.3,1,1.6,2.2,1.4C149.4,29.1,148.6,29.7,149.4,30.9z M149.4,22.1c-1-0.8-1.9-0.8-2.9,0.1c0.5-1,0.3-1.9-0.8-2.5
					c0.7-0.1,1.2,0,1.5-0.2c0.3-0.2,0.4-0.8,0.7-1.3c0.2,0.5,0.3,1.1,0.7,1.3c0.4,0.2,0.9,0.1,1.7,0.2
					C149.3,20.3,148.6,20.9,149.4,22.1z M152.4,32.6c0.3-0.2,0.4-0.8,0.8-1.4c0.2,1.4,0.9,1.8,2.1,1.6c-0.9,0.7-1.4,1.5-0.8,2.6
					c-1-1.1-1.9-0.9-2.9,0c0.5-1.1,0.4-1.9-0.7-2.6C151.5,32.7,152.1,32.8,152.4,32.6z M154.6,44.3c-1-1.1-1.9-1.3-2.9-0.2
					c0.4-1.1,0.4-1.9-0.7-2.6c1.2,0.2,1.8-0.3,2-1.6c0.3,0.6,0.4,1.2,0.8,1.4c0.4,0.2,0.9,0.1,1.4,0.1c0.1,0.1,0.1,0.1,0.2,0.2
					c-0.4,0.3-0.9,0.5-1.1,0.9C154.1,43,154.4,43.6,154.6,44.3z M159.7,39.7c-1-0.9-1.9-1-3,0.2c0.2-0.7,0.4-1.2,0.3-1.6
					c-0.1-0.4-0.5-0.7-1-1.3c1.4,0.4,1.9-0.3,2.1-1.4c0.3,0.6,0.4,1.2,0.8,1.4c0.4,0.2,0.9,0.1,1.7,0.1
					C159.4,37.8,159,38.5,159.7,39.7z M164.7,35.3c-0.4-0.3-0.9-0.8-1.3-0.8c-0.5,0-0.9,0.5-1.6,0.8c0.6-1.1,0.5-1.9-0.5-2.7
					c1.3,0.3,1.7-0.4,2.1-1.5c0.2,1.2,0.9,1.7,2.2,1.4C164.6,33.4,164.1,34.2,164.7,35.3z M163.3,13.8c0.2,1.3,1,1.6,2.2,1.5
					c-1.1,0.7-1.3,1.5-0.7,2.6c-1-1.1-2-0.9-3-0.1c0.1-0.5,0.4-0.9,0.3-1.4c-0.1-0.4-0.5-0.7-0.9-1.2
					C162.4,15.5,163.1,15,163.3,13.8z M163.3,22.6c0.2,1.2,0.9,1.7,2.1,1.3c0,0.1,0,0.1,0,0.2c-0.3,0.3-0.8,0.6-1,1.1
					c-0.1,0.4,0.1,0.9,0.3,1.6c-1-1-1.9-1.3-2.9-0.1c0.4-1.1,0.4-2-0.6-2.7C162.5,24.2,163,23.6,163.3,22.6z M164.8,44.1
					c-1-1-1.9-1-2.9,0c0.4-1.1,0.3-1.9-0.7-2.7c1.3,0.3,1.7-0.4,2.1-1.5c0.2,1.4,1,1.6,2.2,1.5C164.6,42.2,164.1,42.9,164.8,44.1z"
					/>
				<path fill="#2368B5" d="M171.6,77.9c-15.6,0-31.3,0-46.9,0c4,3,8.4,5,13.2,6c6.8,0,13.7,0,20.5,0
					C163.1,82.9,167.6,80.9,171.6,77.9z"/>
				<path fill="#2368B5" d="M183.4,64.9c-23.5,0-47,0-70.5,0c1.3,3,2.8,5,4.4,6c20.6,0,41.1,0,61.7,0
					C180.6,69.9,182.1,67.9,183.4,64.9z"/>
				<path fill="#2368B5" d="M188.3,52.9c-26.8,0-53.6,0-80.5,0c0.4,2,1,4,1.8,6c25.7,0,51.3,0,76.9,0
					C187.3,56.9,187.9,54.9,188.3,52.9z"/>
			</g>
		</g>
	</g>
	<g>
		<g>
			<path fill="#0C56AB" d="M2.1,128c0-3.6,2.5-6.6,5.9-7.8c-3-1.1-5.2-4.1-5.2-7.3c0-5.3,4.7-9,11-9c6.4,0,11.1,3.7,11.1,9
				c0,3.1-2.1,6.1-5.2,7.3c3.3,1.2,5.9,4.2,5.9,7.8c0,5.3-4.5,9.2-11.8,9.2C6.6,137.3,2.1,133.3,2.1,128z M19.8,127.4
				c0-2.6-2.1-4.9-6-4.9c-3.8,0-5.9,2.3-5.9,4.9s2.1,4.9,5.9,4.9C17.7,132.3,19.8,130,19.8,127.4z M19.1,113.3c0-2.4-2-4.5-5.3-4.5
				c-3.2,0-5.2,2.1-5.2,4.5c0,2.7,2.1,4.6,5.2,4.7C17,117.9,19.1,116,19.1,113.3z"/>
		</g>
	</g>
</g>
<g>
</g>
<g>
</g>
<g>
</g>
<g>
</g>
<g>
</g>
<g>
</g>
<g>
</g>
<g>
</g>
<g>
</g>
<g>
</g>
<g>
</g>
<g>
</g>
<g>
</g>
<g>
</g>
<g>
</g>
</svg>
