<?xml version="1.0" encoding="utf-8"?>
<!-- Generator: Adobe Illustrator 18.0.0, SVG Export Plug-In . SVG Version: 6.00 Build 0)  -->
<!DOCTYPE svg PUBLIC "-//W3C//DTD SVG 1.1//EN" "http://www.w3.org/Graphics/SVG/1.1/DTD/svg11.dtd">
<svg version="1.1" id="Layer_1" xmlns="http://www.w3.org/2000/svg" xmlns:xlink="http://www.w3.org/1999/xlink" x="0px" y="0px"
	 viewBox="0 0 104.8 133.1" enable-background="new 0 0 104.8 133.1" xml:space="preserve">
<g>
	<g>
		<polygon fill="#0C56AB" points="84,48.9 93.4,48.7 66.9,16.7 51.6,30.6 30.3,7.5 0.6,37.5 0.6,31 30.4,0.7 51.9,24 67,10.3 
			96.6,45.4 97.3,36.5 104,56.3 		"/>
		<path fill="#0C56AB" d="M30.4,1.4l21.5,23.3L67,11L97,46.6l0.6-7.6l5.5,16.5l-16.5-6.2l7.8-0.1L66.9,16L51.6,29.9L30.3,6.8
			L1.1,36.3v-5.1L30.4,1.4 M30.4,0l-0.7,0.7L0.4,30.5l-0.3,0.3v0.4v5.1v2.4L1.8,37L30.3,8.2l20.6,22.4l0.7,0.7l0.7-0.7l14.5-13.2
			l25.5,30.8l-5.7,0.1l-5.3,0.1l4.9,1.8l16.5,6.2l2,0.7l-0.7-2l-5.5-16.5L97,34l-0.4,4.9l-0.4,5.2L67.7,10.4l-0.7-0.8l-0.8,0.7
			L51.9,23.3L31.1,0.8L30.4,0L30.4,0z"/>
	</g>
	<g>
		<g>
			<g>
				<path fill="#FBB040" d="M46.7,62.9H21.9c-0.3,0-0.5-0.2-0.5-0.5v-4.2c0-0.3,0.2-0.5,0.5-0.5h24.8c0.3,0,0.5,0.2,0.5,0.5v4.2
					C47.2,62.7,47,62.9,46.7,62.9z"/>
				<rect x="22.7" y="57.7" fill="#F1F2F2" width="0.4" height="5.2"/>
				<rect x="25.2" y="57.7" fill="#F1F2F2" width="0.4" height="5.2"/>
				<rect x="27.8" y="57.7" fill="#F1F2F2" width="0.4" height="5.2"/>
				<rect x="30.3" y="57.7" fill="#F1F2F2" width="0.4" height="5.2"/>
				<rect x="32.8" y="57.7" fill="#F1F2F2" width="0.4" height="5.2"/>
				<rect x="35.4" y="57.7" fill="#F1F2F2" width="0.4" height="5.2"/>
				<rect x="37.9" y="57.7" fill="#F1F2F2" width="0.4" height="5.2"/>
				<rect x="40.4" y="57.7" fill="#F1F2F2" width="0.4" height="5.2"/>
				<rect x="43" y="57.7" fill="#F1F2F2" width="0.4" height="5.2"/>
				<rect x="45.5" y="57.7" fill="#F1F2F2" width="0.4" height="5.2"/>
			</g>
			<g>
				<path fill="#FBB040" d="M46.7,57H21.9c-0.3,0-0.5-0.2-0.5-0.5v-4.2c0-0.3,0.2-0.5,0.5-0.5h24.8c0.3,0,0.5,0.2,0.5,0.5v4.2
					C47.2,56.7,47,57,46.7,57z"/>
				<rect x="22.7" y="51.8" fill="#F1F2F2" width="0.4" height="5.2"/>
				<rect x="25.2" y="51.8" fill="#F1F2F2" width="0.4" height="5.2"/>
				<rect x="27.8" y="51.8" fill="#F1F2F2" width="0.4" height="5.2"/>
				<rect x="30.3" y="51.8" fill="#F1F2F2" width="0.4" height="5.2"/>
				<rect x="32.8" y="51.8" fill="#F1F2F2" width="0.4" height="5.2"/>
				<rect x="35.4" y="51.8" fill="#F1F2F2" width="0.4" height="5.2"/>
				<rect x="37.9" y="51.8" fill="#F1F2F2" width="0.4" height="5.2"/>
				<rect x="40.4" y="51.8" fill="#F1F2F2" width="0.4" height="5.2"/>
				<rect x="43" y="51.8" fill="#F1F2F2" width="0.4" height="5.2"/>
				<rect x="45.5" y="51.8" fill="#F1F2F2" width="0.4" height="5.2"/>
			</g>
			<g>
				<path fill="#FBB040" d="M46.7,51H21.9c-0.3,0-0.5-0.2-0.5-0.5v-4.2c0-0.3,0.2-0.5,0.5-0.5h24.8c0.3,0,0.5,0.2,0.5,0.5v4.2
					C47.2,50.8,47,51,46.7,51z"/>
				<rect x="22.7" y="45.8" fill="#F1F2F2" width="0.4" height="5.2"/>
				<rect x="25.2" y="45.8" fill="#F1F2F2" width="0.4" height="5.2"/>
				<rect x="27.8" y="45.8" fill="#F1F2F2" width="0.4" height="5.2"/>
				<rect x="30.3" y="45.8" fill="#F1F2F2" width="0.4" height="5.2"/>
				<rect x="32.8" y="45.8" fill="#F1F2F2" width="0.4" height="5.2"/>
				<rect x="35.4" y="45.8" fill="#F1F2F2" width="0.4" height="5.2"/>
				<rect x="37.9" y="45.8" fill="#F1F2F2" width="0.4" height="5.2"/>
				<rect x="40.4" y="45.8" fill="#F1F2F2" width="0.4" height="5.2"/>
				<rect x="43" y="45.8" fill="#F1F2F2" width="0.4" height="5.2"/>
				<rect x="45.5" y="45.8" fill="#F1F2F2" width="0.4" height="5.2"/>
			</g>
			<g>
				<path fill="#FBB040" d="M46.7,45.1H21.9c-0.3,0-0.5-0.2-0.5-0.5v-4.2c0-0.3,0.2-0.5,0.5-0.5h24.8c0.3,0,0.5,0.2,0.5,0.5v4.2
					C47.2,44.9,47,45.1,46.7,45.1z"/>
				<rect x="22.7" y="39.9" fill="#F1F2F2" width="0.4" height="5.2"/>
				<rect x="25.2" y="39.9" fill="#F1F2F2" width="0.4" height="5.2"/>
				<rect x="27.8" y="39.9" fill="#F1F2F2" width="0.4" height="5.2"/>
				<rect x="30.3" y="39.9" fill="#F1F2F2" width="0.4" height="5.2"/>
				<rect x="32.8" y="39.9" fill="#F1F2F2" width="0.4" height="5.2"/>
				<rect x="35.4" y="39.9" fill="#F1F2F2" width="0.4" height="5.2"/>
				<rect x="37.9" y="39.9" fill="#F1F2F2" width="0.4" height="5.2"/>
				<rect x="40.4" y="39.9" fill="#F1F2F2" width="0.4" height="5.2"/>
				<rect x="43" y="39.9" fill="#F1F2F2" width="0.4" height="5.2"/>
				<rect x="45.5" y="39.9" fill="#F1F2F2" width="0.4" height="5.2"/>
			</g>
			<g>
				<path fill="#FBB040" d="M46.9,36.8l-24.7,2.4c-0.3,0-0.5-0.2-0.5-0.4l-0.4-4.2c0-0.3,0.2-0.5,0.4-0.5l24.7-2.4
					c0.3,0,0.5,0.2,0.5,0.4l0.4,4.2C47.3,36.5,47.1,36.8,46.9,36.8z"/>
				
					<rect x="22.8" y="33.9" transform="matrix(0.9955 -9.505927e-002 9.505927e-002 0.9955 -3.3642 2.3468)" fill="#F1F2F2" width="0.4" height="5.2"/>
				
					<rect x="25.3" y="33.6" transform="matrix(0.9955 -9.505927e-002 9.505927e-002 0.9955 -3.3299 2.5852)" fill="#F1F2F2" width="0.4" height="5.2"/>
				
					<rect x="27.8" y="33.4" transform="matrix(0.9955 -9.505927e-002 9.505927e-002 0.9955 -3.2957 2.8235)" fill="#F1F2F2" width="0.4" height="5.2"/>
				
					<rect x="30.3" y="33.2" transform="matrix(0.9955 -9.505927e-002 9.505927e-002 0.9955 -3.2614 3.0619)" fill="#F1F2F2" width="0.4" height="5.2"/>
				
					<rect x="32.8" y="32.9" transform="matrix(0.9955 -9.505927e-002 9.505927e-002 0.9955 -3.2271 3.3002)" fill="#F1F2F2" width="0.4" height="5.2"/>
				
					<rect x="35.4" y="32.7" transform="matrix(0.9955 -9.505927e-002 9.505927e-002 0.9955 -3.1929 3.5386)" fill="#F1F2F2" width="0.4" height="5.2"/>
				
					<rect x="37.9" y="32.4" transform="matrix(0.9955 -9.505927e-002 9.505927e-002 0.9955 -3.1586 3.777)" fill="#F1F2F2" width="0.4" height="5.2"/>
				
					<rect x="40.4" y="32.2" transform="matrix(0.9955 -9.505927e-002 9.505927e-002 0.9955 -3.1243 4.0153)" fill="#F1F2F2" width="0.4" height="5.2"/>
				
					<rect x="42.9" y="32" transform="matrix(0.9955 -9.505927e-002 9.505927e-002 0.9955 -3.09 4.2537)" fill="#F1F2F2" width="0.4" height="5.2"/>
				
					<rect x="45.4" y="31.7" transform="matrix(0.9955 -9.505927e-002 9.505927e-002 0.9955 -3.0558 4.4921)" fill="#F1F2F2" width="0.4" height="5.2"/>
			</g>
		</g>
		<g>
			<g>
				<path fill="#FBB040" d="M75.8,62.9H51c-0.3,0-0.5-0.2-0.5-0.5v-4.2c0-0.3,0.2-0.5,0.5-0.5h24.8c0.3,0,0.5,0.2,0.5,0.5v4.2
					C76.3,62.7,76.1,62.9,75.8,62.9z"/>
				<rect x="51.8" y="57.7" fill="#F1F2F2" width="0.4" height="5.2"/>
				<rect x="54.4" y="57.7" fill="#F1F2F2" width="0.4" height="5.2"/>
				<rect x="56.9" y="57.7" fill="#F1F2F2" width="0.4" height="5.2"/>
				<rect x="59.4" y="57.7" fill="#F1F2F2" width="0.4" height="5.2"/>
				<rect x="62" y="57.7" fill="#F1F2F2" width="0.4" height="5.2"/>
				<rect x="64.5" y="57.7" fill="#F1F2F2" width="0.4" height="5.2"/>
				<rect x="67" y="57.7" fill="#F1F2F2" width="0.4" height="5.2"/>
				<rect x="69.5" y="57.7" fill="#F1F2F2" width="0.4" height="5.2"/>
				<rect x="72.1" y="57.7" fill="#F1F2F2" width="0.4" height="5.2"/>
				<rect x="74.6" y="57.7" fill="#F1F2F2" width="0.4" height="5.2"/>
			</g>
			<g>
				<path fill="#FBB040" d="M75.8,57H51c-0.3,0-0.5-0.2-0.5-0.5v-4.2c0-0.3,0.2-0.5,0.5-0.5h24.8c0.3,0,0.5,0.2,0.5,0.5v4.2
					C76.3,56.7,76.1,57,75.8,57z"/>
				<rect x="51.8" y="51.8" fill="#F1F2F2" width="0.4" height="5.2"/>
				<rect x="54.4" y="51.8" fill="#F1F2F2" width="0.4" height="5.2"/>
				<rect x="56.9" y="51.8" fill="#F1F2F2" width="0.4" height="5.2"/>
				<rect x="59.4" y="51.8" fill="#F1F2F2" width="0.4" height="5.2"/>
				<rect x="62" y="51.8" fill="#F1F2F2" width="0.4" height="5.2"/>
				<rect x="64.5" y="51.8" fill="#F1F2F2" width="0.4" height="5.2"/>
				<rect x="67" y="51.8" fill="#F1F2F2" width="0.4" height="5.2"/>
				<rect x="69.5" y="51.8" fill="#F1F2F2" width="0.4" height="5.2"/>
				<rect x="72.1" y="51.8" fill="#F1F2F2" width="0.4" height="5.2"/>
				<rect x="74.6" y="51.8" fill="#F1F2F2" width="0.4" height="5.2"/>
			</g>
			<g>
				<path fill="#FBB040" d="M75.8,51H51c-0.3,0-0.5-0.2-0.5-0.5v-4.2c0-0.3,0.2-0.5,0.5-0.5h24.8c0.3,0,0.5,0.2,0.5,0.5v4.2
					C76.3,50.8,76.1,51,75.8,51z"/>
				<rect x="51.8" y="45.8" fill="#F1F2F2" width="0.4" height="5.2"/>
				<rect x="54.4" y="45.8" fill="#F1F2F2" width="0.4" height="5.2"/>
				<rect x="56.9" y="45.8" fill="#F1F2F2" width="0.4" height="5.2"/>
				<rect x="59.4" y="45.8" fill="#F1F2F2" width="0.4" height="5.2"/>
				<rect x="62" y="45.8" fill="#F1F2F2" width="0.4" height="5.2"/>
				<rect x="64.5" y="45.8" fill="#F1F2F2" width="0.4" height="5.2"/>
				<rect x="67" y="45.8" fill="#F1F2F2" width="0.4" height="5.2"/>
				<rect x="69.5" y="45.8" fill="#F1F2F2" width="0.4" height="5.2"/>
				<rect x="72.1" y="45.8" fill="#F1F2F2" width="0.4" height="5.2"/>
				<rect x="74.6" y="45.8" fill="#F1F2F2" width="0.4" height="5.2"/>
			</g>
			<g>
				<path fill="#FBB040" d="M75.8,45.1H51c-0.3,0-0.5-0.2-0.5-0.5v-4.2c0-0.3,0.2-0.5,0.5-0.5h24.8c0.3,0,0.5,0.2,0.5,0.5v4.2
					C76.3,44.9,76.1,45.1,75.8,45.1z"/>
				<rect x="51.8" y="39.9" fill="#F1F2F2" width="0.4" height="5.2"/>
				<rect x="54.4" y="39.9" fill="#F1F2F2" width="0.4" height="5.2"/>
				<rect x="56.9" y="39.9" fill="#F1F2F2" width="0.4" height="5.2"/>
				<rect x="59.4" y="39.9" fill="#F1F2F2" width="0.4" height="5.2"/>
				<rect x="62" y="39.9" fill="#F1F2F2" width="0.4" height="5.2"/>
				<rect x="64.5" y="39.9" fill="#F1F2F2" width="0.4" height="5.2"/>
				<rect x="67" y="39.9" fill="#F1F2F2" width="0.4" height="5.2"/>
				<rect x="69.5" y="39.9" fill="#F1F2F2" width="0.4" height="5.2"/>
				<rect x="72.1" y="39.9" fill="#F1F2F2" width="0.4" height="5.2"/>
				<rect x="74.6" y="39.9" fill="#F1F2F2" width="0.4" height="5.2"/>
			</g>
			<g>
				<path fill="#FBB040" d="M76,36.8l-24.7,2.4c-0.3,0-0.5-0.2-0.5-0.4l-0.4-4.2c0-0.3,0.2-0.5,0.4-0.5l24.7-2.4
					c0.3,0,0.5,0.2,0.5,0.4l0.4,4.2C76.5,36.5,76.3,36.8,76,36.8z"/>
				
					<rect x="51.9" y="33.9" transform="matrix(0.9955 -9.505927e-002 9.505927e-002 0.9955 -3.2323 5.1153)" fill="#F1F2F2" width="0.4" height="5.2"/>
				
					<rect x="54.4" y="33.6" transform="matrix(0.9955 -9.505927e-002 9.505927e-002 0.9955 -3.1981 5.3536)" fill="#F1F2F2" width="0.4" height="5.2"/>
				
					<rect x="56.9" y="33.4" transform="matrix(0.9955 -9.505927e-002 9.505927e-002 0.9955 -3.1638 5.592)" fill="#F1F2F2" width="0.4" height="5.2"/>
				
					<rect x="59.4" y="33.2" transform="matrix(0.9955 -9.505927e-002 9.505927e-002 0.9955 -3.1295 5.8304)" fill="#F1F2F2" width="0.4" height="5.2"/>
				
					<rect x="62" y="32.9" transform="matrix(0.9955 -9.505927e-002 9.505927e-002 0.9955 -3.0952 6.0687)" fill="#F1F2F2" width="0.4" height="5.2"/>
				
					<rect x="64.5" y="32.7" transform="matrix(0.9955 -9.505927e-002 9.505927e-002 0.9955 -3.061 6.3071)" fill="#F1F2F2" width="0.4" height="5.2"/>
				
					<rect x="67" y="32.4" transform="matrix(0.9955 -9.505927e-002 9.505927e-002 0.9955 -3.0267 6.5455)" fill="#F1F2F2" width="0.4" height="5.2"/>
				
					<rect x="69.5" y="32.2" transform="matrix(0.9955 -9.505927e-002 9.505927e-002 0.9955 -2.9924 6.7838)" fill="#F1F2F2" width="0.4" height="5.2"/>
				
					<rect x="72" y="32" transform="matrix(0.9955 -9.505927e-002 9.505927e-002 0.9955 -2.9581 7.0222)" fill="#F1F2F2" width="0.4" height="5.2"/>
				
					<rect x="74.6" y="31.7" transform="matrix(0.9955 -9.505927e-002 9.505927e-002 0.9955 -2.9239 7.2605)" fill="#F1F2F2" width="0.4" height="5.2"/>
			</g>
		</g>
	</g>
	<g>
		<path fill="#0C56AB" d="M92.7,121.5l-92.7,0l0-59l92.7,0L92.7,121.5z M3.8,117.7l85,0l0-51.3l-85,0L3.8,117.7z"/>
		<g>
			<rect x="1.9" y="64.4" fill="#FFFFFF" width="88.9" height="55.2"/>
		</g>
		<g>
			<defs>
				<rect id="SVGID_1_" x="6.2" y="69.1" width="80.1" height="46.1"/>
			</defs>
			<clipPath id="SVGID_2_">
				<use xlink:href="#SVGID_1_"  overflow="visible"/>
			</clipPath>
			<rect x="6.3" y="69" clip-path="url(#SVGID_2_)" fill="#FFFFFF" width="80.1" height="46.1"/>
			<circle clip-path="url(#SVGID_2_)" fill="#0C56AB" cx="6.3" cy="69" r="5.6"/>
			<circle clip-path="url(#SVGID_2_)" fill="#0C56AB" cx="86.3" cy="69" r="5.6"/>
			<circle clip-path="url(#SVGID_2_)" fill="#0C56AB" cx="6.3" cy="115.1" r="5.6"/>
			<circle clip-path="url(#SVGID_2_)" fill="#0C56AB" cx="86.3" cy="115.1" r="5.6"/>
			<use xlink:href="#SVGID_1_"  overflow="visible" fill="none" stroke="#0C56AB" stroke-width="2.3089" stroke-miterlimit="10"/>
		</g>
		<g>
			<circle fill="#0C56AB" cx="79.3" cy="93.2" r="2.1"/>
			<circle fill="#0C56AB" cx="13.4" cy="93.2" r="2.1"/>
		</g>
		<g>
			<polygon fill="#0C56AB" points="81.2,133.1 78.4,130.3 74.5,131.9 77.1,118.1 83.8,119.4 			"/>
			<polygon fill="#0C56AB" points="85.1,133.1 88,130.3 91.8,131.9 89.3,118.1 82.6,119.4 			"/>
			<circle fill="#0C56AB" cx="82.9" cy="113.9" r="8.1"/>
			<polygon fill="#FFFFFF" points="83,109.7 85.1,107.4 85.3,110.4 88.3,109.8 86.8,112.4 89.5,113.6 86.8,114.8 88.3,117.4 
				85.3,116.7 85.1,119.8 83,117.5 81,119.8 80.8,116.7 77.8,117.4 79.3,114.8 76.5,113.6 79.3,112.4 77.8,109.8 80.8,110.4 
				81,107.4 			"/>
		</g>
		
			<line fill="none" stroke="#0C56AB" stroke-width="0.5772" stroke-linecap="round" stroke-miterlimit="10" x1="20.4" y1="73.1" x2="72.4" y2="73.1"/>
		
			<line fill="none" stroke="#0C56AB" stroke-width="0.5772" stroke-linecap="round" stroke-miterlimit="10" x1="20.4" y1="77.2" x2="72.4" y2="77.2"/>
		
			<line fill="none" stroke="#0C56AB" stroke-width="0.5772" stroke-linecap="round" stroke-miterlimit="10" x1="20.4" y1="81.2" x2="72.4" y2="81.2"/>
		
			<line fill="none" stroke="#0C56AB" stroke-width="0.5772" stroke-linecap="round" stroke-miterlimit="10" x1="31.2" y1="85.2" x2="72.4" y2="85.2"/>
		
			<line fill="none" stroke="#0C56AB" stroke-width="0.5772" stroke-linecap="round" stroke-miterlimit="10" x1="31.2" y1="89.3" x2="72.4" y2="89.3"/>
		
			<line fill="none" stroke="#0C56AB" stroke-width="0.5772" stroke-linecap="round" stroke-miterlimit="10" x1="31.2" y1="93.3" x2="72.4" y2="93.3"/>
		
			<line fill="none" stroke="#0C56AB" stroke-width="0.5772" stroke-linecap="round" stroke-miterlimit="10" x1="31.2" y1="97.4" x2="72.4" y2="97.4"/>
		
			<line fill="none" stroke="#0C56AB" stroke-width="0.5772" stroke-linecap="round" stroke-miterlimit="10" x1="31.2" y1="101.4" x2="72.4" y2="101.4"/>
		
			<line fill="none" stroke="#0C56AB" stroke-width="0.5772" stroke-linecap="round" stroke-miterlimit="10" x1="20.4" y1="105.4" x2="72.4" y2="105.4"/>
		
			<line fill="none" stroke="#0C56AB" stroke-width="0.5772" stroke-linecap="round" stroke-miterlimit="10" x1="20.4" y1="109.5" x2="72.4" y2="109.5"/>
	</g>
</g>
<g>
</g>
<g>
</g>
<g>
</g>
<g>
</g>
<g>
</g>
<g>
</g>
<g>
</g>
<g>
</g>
<g>
</g>
<g>
</g>
<g>
</g>
<g>
</g>
<g>
</g>
<g>
</g>
<g>
</g>
</svg>
