<?xml version="1.0" encoding="utf-8"?>
<!-- Generator: Adobe Illustrator 18.0.0, SVG Export Plug-In . SVG Version: 6.00 Build 0)  -->
<!DOCTYPE svg PUBLIC "-//W3C//DTD SVG 1.1//EN" "http://www.w3.org/Graphics/SVG/1.1/DTD/svg11.dtd">
<svg version="1.1" id="Layer_1" xmlns="http://www.w3.org/2000/svg" xmlns:xlink="http://www.w3.org/1999/xlink" x="0px" y="0px"
	 viewBox="0 0 38.6 244.9" enable-background="new 0 0 38.6 244.9" xml:space="preserve">
<g>
	<rect x="11.2" y="137.5" fill="#7F58A5" width="0.3" height="12.3"/>
	<rect x="17.1" y="124.7" fill="#7F58A5" width="0.3" height="12.3"/>
	<rect x="7.3" y="0" fill="#7F58A5" width="0.5" height="40.8"/>
	<rect x="9.3" y="55.6" fill="#7F58A5" width="0.5" height="23.3"/>
	<g>
		<g>
			<path fill="#7F58A5" d="M16.7,186.2c0,0-0.1,0-0.1,0l-3.5-3.4l0.2-0.2l3.5,3.4c5.3-0.6,12.1-8.5,15-15.3c1.7-4,1.9-7.2,0.6-8.9
				c-1.8-1.3-4.9-1-8.9,0.8C16.7,165.6,9,172.7,8.6,178l3.5,3.4l-0.2,0.2l-3.6-3.5c0,0-0.1-0.1,0-0.1c0.2-2.5,2-5.6,5.1-8.8
				c2.9-2.9,6.5-5.5,10-7.1c4.1-1.9,7.4-2.2,9.3-0.8c0,0,0,0,0,0c1.4,1.8,1.3,5.1-0.5,9.3c-1.5,3.5-4,7.2-6.8,10.2
				C22.3,184.1,19.3,186,16.7,186.2C16.7,186.2,16.7,186.2,16.7,186.2z"/>
			<path fill="#7F58A5" d="M8.3,178.1c-2.9-3.8-8.1-2.7-8.1-2.7c-0.1,0-0.2,0-0.2-0.1c0-0.1,0-0.2,0.1-0.2l13.5-6l0.1,0.3L1.2,175
				c1.7-0.1,5.1,0.1,7.4,2.9L8.3,178.1z"/>
			<path fill="#7F58A5" d="M19.7,194.4C19.7,194.4,19.7,194.4,19.7,194.4c-0.1,0-0.2-0.1-0.2-0.2c0-0.1,1-5.2-2.9-8l0.2-0.3
				c2.9,2.1,3.2,5.5,3.1,7.3l5.2-12.6l0.3,0.1l-5.6,13.6C19.8,194.4,19.8,194.4,19.7,194.4z"/>
			<circle fill="#7F58A5" cx="27.2" cy="167" r="2.5"/>
			
				<rect x="14.1" y="183.1" transform="matrix(0.7178 0.6962 -0.6962 0.7178 132.4351 39.8345)" fill="#7F58A5" width="6" height="0.3"/>
			
				<rect x="8.2" y="177.4" transform="matrix(0.7178 0.6962 -0.6962 0.7178 126.8112 42.3101)" fill="#7F58A5" width="6" height="0.3"/>
			<path fill="#7F58A5" d="M10.6,184.3c0,0-0.1,0-0.1,0c0,0-0.1-0.1,0-0.2c0,0,1.2-2.9,3.7-5.5c2.5-2.6,5.3-3.9,5.4-3.9
				c0.1,0,0.1,0,0.2,0c0,0,0.1,0.1,0,0.2c0,0-1.2,2.9-3.7,5.5C13.5,183,10.7,184.3,10.6,184.3C10.6,184.3,10.6,184.3,10.6,184.3z
				 M19.2,175.2c-0.9,0.4-3,1.7-4.9,3.6c-1.9,1.9-3,4.1-3.5,5c0.9-0.4,3-1.7,4.9-3.6C17.6,178.2,18.8,176.1,19.2,175.2z"/>
			<path fill="#7F58A5" d="M2.7,193c0,0-0.1,0-0.1,0c-0.1,0-0.1-0.1,0-0.2l3.5-8.1l-1,0.8c-0.1,0-0.1,0-0.2,0s-0.1-0.1,0-0.2
				l2.8-6.1l0.3,0.1l-2.5,5.5l1-0.8c0.1,0,0.1,0,0.2,0c0.1,0,0.1,0.1,0,0.2L3,192.4l7.6-4.9c0.1,0,0.1,0,0.2,0c0.1,0,0.1,0.1,0,0.2
				l-0.8,1.9l5.1-2.4l0.1,0.3L9.8,190c-0.1,0-0.1,0-0.2,0c0,0-0.1-0.1,0-0.2l0.8-1.8L2.7,193C2.7,193,2.7,193,2.7,193z"/>
			
				<rect x="7.1" y="177.4" transform="matrix(0.7071 0.7071 -0.7071 0.7071 130.7335 48.1558)" fill="#7F58A5" width="0.3" height="8.9"/>
			
				<rect x="10.7" y="175.3" transform="matrix(0.7071 0.7071 -0.7071 0.7071 130.2718 44.9919)" fill="#7F58A5" width="0.3" height="8.9"/>
			
				<rect x="15.5" y="178.5" transform="matrix(0.7071 0.7071 -0.7071 0.7071 133.9655 42.4927)" fill="#7F58A5" width="0.3" height="8.9"/>
			
				<rect x="12.7" y="183.3" transform="matrix(0.7071 0.7071 -0.7071 0.7071 136.5112 45.8982)" fill="#7F58A5" width="0.3" height="8.9"/>
			<g>
				<polygon fill="#7F58A5" points="8,170.8 8,167.7 5.4,167.7 5.4,172 				"/>
				<polygon fill="#7F58A5" points="11.4,169.2 11.4,164.8 8.7,164.8 8.7,170.5 				"/>
				<polygon fill="#7F58A5" points="14.8,167 14.8,162.2 12.1,162.2 12.1,169 13.3,168.7 				"/>
				<polygon fill="#7F58A5" points="18.1,164.5 18.1,159.7 15.4,159.7 15.4,166.5 				"/>
				<polygon fill="#7F58A5" points="21.5,162.3 21.5,155.7 18.8,155.7 18.8,164 				"/>
				<polygon fill="#7F58A5" points="24.8,160.9 24.8,151.2 22.1,151.2 22.1,162.1 				"/>
				<polyline fill="#7F58A5" points="24.5,147.2 13.9,158.1 13,157.2 4.8,165.4 4.8,163 13.1,155 14.3,156.2 24.3,147.1 				"/>
				<polygon fill="#7F58A5" points="24.4,148.8 25.5,146.1 22.6,147.4 24.3,147.2 				"/>
			</g>
		</g>
		<path fill="#7F58A5" d="M16.7,244.9h-0.3v-1.3h0.3V244.9z M16.7,242.4h-0.3v-1.3h0.3V242.4z M16.7,239.8h-0.3v-1.3h0.3V239.8z
			 M16.7,237.3h-0.3V236h0.3V237.3z M16.7,234.7h-0.3v-1.3h0.3V234.7z M16.7,232.2h-0.3v-1.3h0.3V232.2z M16.7,229.7h-0.3v-1.3h0.3
			V229.7z M16.7,227.1h-0.3v-1.3h0.3V227.1z M16.7,224.6h-0.3v-1.3h0.3V224.6z M16.7,222h-0.3v-1.3h0.3V222z M16.7,219.5h-0.3v-1.3
			h0.3V219.5z M16.7,217h-0.3v-1.3h0.3V217z M16.7,214.4h-0.3v-1.3h0.3V214.4z M16.7,211.9h-0.3v-1.3h0.3V211.9z M16.7,209.3h-0.3
			v-1.3h0.3V209.3z M16.7,206.8h-0.3v-1.3h0.3V206.8z M16.7,204.3h-0.3V203h0.3V204.3z M16.7,201.7h-0.3v-1.3h0.3V201.7z M26,199.8
			h-1.3v-0.3H26V199.8z M23.4,199.8h-1.3v-0.3h1.3V199.8z M20.9,199.8h-1.3v-0.3h1.3V199.8z M18.4,199.8h-1.3v-0.3h1.3V199.8z
			 M27.3,199.8l0-0.3c0.4-0.1,0.8-0.2,1.1-0.4l0.2,0.3C28.1,199.6,27.7,199.7,27.3,199.8z M29.6,198.6l-0.2-0.2
			c0.3-0.3,0.5-0.7,0.6-1l0.3,0.1C30.1,197.8,29.9,198.2,29.6,198.6z M30.5,196.1l-0.3,0c0,0,0-0.1,0-0.1c0-0.4,0.1-0.8,0.2-1.2
			l0.3,0.1c-0.1,0.3-0.2,0.7-0.2,1.1C30.5,196,30.5,196.1,30.5,196.1z M31.3,193.9l-0.3-0.2c0.3-0.4,0.6-0.7,1-0.9l0.2,0.3
			C31.8,193.3,31.5,193.5,31.3,193.9z M33.2,192.6l-0.1-0.3c0.3-0.1,0.6-0.1,0.9-0.1h0.4v0.3h-0.4C33.8,192.5,33.5,192.5,33.2,192.6
			z M35.8,192.3l-0.1-0.3c0.4-0.1,0.8-0.3,1.1-0.5l0.2,0.3C36.6,192,36.2,192.2,35.8,192.3z M37.9,190.9l-0.3-0.2
			c0.2-0.3,0.4-0.7,0.5-1.1l0.3,0.1C38.4,190.1,38.2,190.5,37.9,190.9z M38.6,188.4h-0.3v-1.3h0.3V188.4z M38.6,185.8h-0.3v-1.3h0.3
			V185.8z M38.6,183.3h-0.3V182h0.3V183.3z M38.6,180.7h-0.3v-1.3h0.3V180.7z M38.6,178.2h-0.3v-1.3h0.3V178.2z M38.6,175.7h-0.3
			v-1.3h0.3V175.7z M38.6,173.1h-0.3v-1.3h0.3V173.1z M38.6,170.6h-0.3v-1.3h0.3V170.6z M38.6,168h-0.3v-1.3h0.3V168z M38.6,165.5
			h-0.3v-1.3h0.3V165.5z M38.6,163h-0.3v-1.3h0.3V163z M38.6,160.4h-0.3v-1.3h0.3V160.4z M38.6,157.9h-0.3v-1.3h0.3V157.9z
			 M38.6,155.3h-0.3v-1.3h0.3V155.3z M38.2,152.8c-0.1-0.4-0.3-0.7-0.5-1.1l0.2-0.2c0.3,0.3,0.5,0.7,0.6,1.2L38.2,152.8z M36.7,151
			c-0.4-0.2-0.8-0.3-1.2-0.3l0-0.3c0.5,0,0.9,0.1,1.3,0.3L36.7,151z M34.3,150.5c-0.4-0.2-0.8-0.4-1.1-0.8l0.2-0.2
			c0.3,0.3,0.6,0.5,1,0.7L34.3,150.5z M32.5,148.6c-0.1-0.3-0.2-0.6-0.2-1v-0.3h0.3v0.3c0,0.3,0,0.6,0.1,0.9L32.5,148.6z M32.7,146
			h-0.3v-0.3c0-0.3,0-0.6-0.1-0.9l0.3-0.1c0.1,0.3,0.2,0.6,0.2,1V146z M31.6,143.8c-0.3-0.3-0.6-0.5-1-0.7l0.1-0.3
			c0.4,0.2,0.8,0.4,1.1,0.8L31.6,143.8z M29.5,142.9h-1.3v-0.3h1.3V142.9z M26.9,142.9h-1.3v-0.3h1.3V142.9z M24.4,142.9h-1.3v-0.3
			h1.3V142.9z M21.8,142.9h-1.3v-0.3h1.3V142.9z M19.3,142.9H18v-0.3h1.3V142.9z M16.8,142.9h-1.3v-0.3h1.3V142.9z M14.8,142.3h-0.3
			V141h0.3V142.3z M14.8,139.8h-0.3v-1.3h0.3V139.8z M14.8,137.2h-0.3v-1.3h0.3V137.2z M14.8,134.7h-0.3v-1.3h0.3V134.7z
			 M14.8,132.1h-0.3v-1.3h0.3V132.1z M14.8,129.6h-0.3v-1.3h0.3V129.6z M14.8,127.1h-0.3v-1.3h0.3V127.1z"/>
		<path fill="#7F58A5" d="M1.6,169.5H1.2v-20.1c0-1.9,1.6-3.5,3.5-3.5h12.5v0.3H4.7c-1.7,0-3.2,1.4-3.2,3.2V169.5z"/>
		<path fill="#7F58A5" d="M24.7,197.7H6.2c-2.7,0-4.9-2.2-4.9-4.9V179h0.3v13.8c0,2.5,2.1,4.6,4.6,4.6h18.6V197.7z"/>
	</g>
	<path fill="#7F58A5" d="M25.4,127.4h-1.3v-0.3h1.3V127.4z M22.9,127.4h-1.3v-0.3h1.3V127.4z M20.4,127.4h-1.3v-0.3h1.3V127.4z
		 M17.8,127.4h-1.3v-0.3h1.3V127.4z M15.3,127.4H14v-0.3h1.3V127.4z M12.7,127.4h-1.3v-0.3h1.3V127.4z M10.2,127.4H8.9v-0.3h1.3
		V127.4z M7.7,127.4H6.4v-0.3h1.3V127.4z M26.7,127.4l0-0.3c0.4,0,0.8-0.1,1.2-0.2l0.1,0.3C27.6,127.4,27.2,127.4,26.7,127.4z
		 M5.1,127.3c-0.4-0.1-0.8-0.2-1.2-0.5l0.1-0.3c0.4,0.2,0.7,0.3,1.1,0.4L5.1,127.3z M29.1,126.6l-0.2-0.2c0.3-0.3,0.6-0.6,0.8-0.9
		l0.3,0.2C29.8,125.9,29.5,126.3,29.1,126.6z M2.8,126.1c-0.3-0.3-0.6-0.6-0.8-1l0.3-0.2c0.2,0.3,0.5,0.7,0.8,0.9L2.8,126.1z
		 M30.5,124.3l-0.3-0.1c0-0.2,0.1-0.4,0.1-0.7c0-0.2,0-0.4,0-0.6l0.3,0c0,0.2,0,0.4,0,0.5C30.5,123.8,30.5,124.1,30.5,124.3z
		 M1.4,123.9c-0.1-0.4-0.2-0.9-0.2-1.3l0.3,0c0,0.4,0.1,0.8,0.2,1.2L1.4,123.9z M31,121.9l-0.3-0.2c0.2-0.4,0.5-0.7,0.8-1l0.2,0.2
		C31.4,121.2,31.2,121.5,31,121.9z M1.6,121.3H1.2v-1.3h0.3V121.3z M32.7,120.3l-0.1-0.3c0.4-0.2,0.8-0.3,1.3-0.3l0,0.3
		C33.5,120.1,33.1,120.2,32.7,120.3z M35.2,120l0-0.3c0.4,0,0.8-0.2,1.2-0.3l0.1,0.3C36.1,119.9,35.7,120,35.2,120z M37.5,118.9
		l-0.2-0.2c0.3-0.3,0.5-0.6,0.7-1l0.3,0.1C38.1,118.2,37.9,118.6,37.5,118.9z M1.6,118.8H1.2v-0.5h0.3V118.8z M38.6,116.5l-0.3,0
		c0-0.1,0-0.2,0-0.3v-1h0.3v1C38.6,116.3,38.6,116.4,38.6,116.5z M38.6,114h-0.3v-1.3h0.3V114z M38.6,111.4h-0.3v-1.3h0.3V111.4z
		 M38.6,108.9h-0.3v-1.3h0.3V108.9z M38.6,106.4h-0.3v-1.3h0.3V106.4z M38.6,103.8h-0.3v-1.3h0.3V103.8z M38.6,101.3h-0.3V100h0.3
		V101.3z M38.6,98.7h-0.3v-1.3h0.3V98.7z M38.6,96.2h-0.3v-1.3h0.3V96.2z M38.6,93.7h-0.3v-1.3h0.3V93.7z M38.6,91.1h-0.3v-1.3h0.3
		V91.1z M38.6,88.6h-0.3v-1.3h0.3V88.6z M38.6,86h-0.3v-1.3h0.3V86z M38.6,83.5h-0.3v-1.3h0.3V83.5z M38.3,81c0-0.4-0.1-0.8-0.3-1.1
		l0.3-0.2c0.2,0.4,0.3,0.8,0.4,1.3L38.3,81z M37.2,78.9c-0.3-0.2-0.7-0.4-1.1-0.5l0.1-0.3c0.4,0.1,0.8,0.3,1.2,0.5L37.2,78.9z
		 M34.8,78.3c-0.4-0.1-0.8-0.3-1.2-0.5l0.2-0.3c0.3,0.2,0.7,0.4,1.1,0.5L34.8,78.3z M32.8,76.7c-0.2-0.4-0.3-0.8-0.4-1.3l0.3,0
		c0,0.4,0.1,0.8,0.3,1.1L32.8,76.7z M32.7,74.2h-0.3v-0.9c0-0.1,0-0.3,0-0.4l0.3,0c0,0.1,0,0.3,0,0.4V74.2z M31.9,71.8
		c-0.2-0.3-0.5-0.6-0.8-0.9l0.2-0.3c0.4,0.2,0.7,0.6,0.9,0.9L31.9,71.8z M30,70.5c-0.1,0-0.3,0-0.4,0h-0.8v-0.3h0.8
		c0.2,0,0.3,0,0.5,0L30,70.5z M27.5,70.5h-1.3v-0.3h1.3V70.5z M24.9,70.5h-1.3v-0.3h1.3V70.5z M22.4,70.5h-1.3v-0.3h1.3V70.5z
		 M19.8,70.5h-1.3v-0.3h1.3V70.5z M17.3,70.5H16v-0.3h1.3V70.5z M14.8,70.5h-1.3v-0.3h1.3V70.5z M13.4,69.3h-0.3V68h0.3V69.3z
		 M13.4,66.8h-0.3v-1.3h0.3V66.8z M13.4,64.2h-0.3v-1.3h0.3V64.2z M13.4,61.7h-0.3v-1.3h0.3V61.7z M13.4,59.1h-0.3v-1.3h0.3V59.1z
		 M13.4,56.6h-0.3v-1.3h0.3V56.6z M13.4,54.1h-0.3v-1.3h0.3V54.1z M13.4,51.5h-0.3v-1.3h0.3V51.5z M13.4,49h-0.3v-1.3h0.3V49z
		 M13.4,46.4h-0.3v-1.3h0.3V46.4z M13.4,43.9h-0.3v-1.3h0.3V43.9z M13.4,41.4h-0.3v-1.3h0.3V41.4z M13.4,38.8h-0.3v-1.3h0.3V38.8z
		 M13.4,36.3h-0.3V35h0.3V36.3z M13.4,33.7h-0.3v-1.3h0.3V33.7z M13.4,31.2h-0.3v-1.3h0.3V31.2z M13.4,28.6h-0.3v-1.3h0.3V28.6z
		 M13.4,26.1h-0.3v-1.3h0.3V26.1z M13.4,23.6h-0.3v-1.3h0.3V23.6z M13.4,21h-0.3v-1.3h0.3V21z M13.4,18.5h-0.3v-1.3h0.3V18.5z
		 M13.4,15.9h-0.3v-1.3h0.3V15.9z M13.4,13.4h-0.3v-1.3h0.3V13.4z M13.4,10.9h-0.3V9.6h0.3V10.9z M13.4,8.3h-0.3V7h0.3V8.3z
		 M13.4,5.8h-0.3V4.5h0.3V5.8z"/>
	<g>
		<path fill="#7F58A5" d="M12.1,103.4C12.1,103.4,12,103.4,12.1,103.4l-4.2-2.6c-0.1,0-0.1-0.1-0.1-0.2l1.7-2.9
			c-0.2-0.2-0.2-0.5-0.3-0.8c-0.1-0.4-0.1-1.2,0.3-1.5c0.3-0.2,0.7-0.1,1,0.1l-0.2-3.1c0,0,0-0.1,0-0.1c0,0,0.1-0.1,0.1-0.1l4.5-0.1
			c0.1,0,0.1,0,0.2,0.1l1.7,4c0,0,0,0.1,0,0.1c0,0-0.1,0.1-0.1,0.1l-1,0.1l0.4,1.4c0,0.1,0,0.2-0.1,0.2l-0.2,0.1l0.3,0.3
			c0,0,0,0.1,0,0.1c0,0,0,0.1-0.1,0.1l-0.6,0.5l0,1.6c0,0.1-0.1,0.1-0.1,0.2l-2.7,0.5l-0.5,1.6C12.2,103.4,12.2,103.4,12.1,103.4
			C12.1,103.4,12.1,103.4,12.1,103.4z M8.2,100.6L12,103l0.4-1.5c0-0.1,0.1-0.1,0.1-0.1l2.7-0.5l0-1.6c0-0.1,0-0.1,0.1-0.1l0.6-0.4
			l-0.4-0.4c0,0-0.1-0.1,0-0.1s0-0.1,0.1-0.1l0.3-0.1l-0.5-1.4c0,0,0-0.1,0-0.1c0,0,0.1-0.1,0.1-0.1l0.9-0.1l-1.6-3.8l-4.3,0.1
			l0.2,3.2c0,0.1,0,0.1-0.1,0.2c-0.1,0-0.1,0-0.2,0c-0.1-0.1-0.6-0.4-0.9-0.3c-0.1,0.1-0.2,0.6-0.2,1.2c0.1,0.4,0.2,0.6,0.2,0.6
			c0,0,0.1,0.1,0.1,0.1c0,0,0,0.1,0,0.1L8.2,100.6z"/>
		<path fill="#7F58A5" d="M9.2,98.3c-1.2-0.7-1.5-3.5-1.5-4.3c0.1-1.7,0.7-2.9,1.9-3.4c1.3-0.6,3.5-0.1,4.7,0.1
			c0.2,0.1,0.4,0.1,0.6,0.1c0.8,0.1,1.7-0.1,1.7-0.1c0.1,0,0.1,0,0.2,0c0,0,0.1,0.1,0,0.2c-0.2,0.7-1.6,1.4-1.7,1.5l-0.1-0.3
			c0.3-0.2,1.1-0.6,1.4-1c-0.4,0.1-1,0.1-1.5,0c-0.1,0-0.3-0.1-0.6-0.1c-1.1-0.2-3.3-0.7-4.5-0.2c-1.3,0.6-1.6,2-1.7,3.1
			c0,0.7,0.3,3.4,1.3,4L9.2,98.3z"/>
		<path fill="#7F58A5" d="M8,100.7c-1.6,1.2-3.8,5.6-3.7,13.8c0,3.9,0.5,8.7,0.5,8.7H17c0,0-0.1-3.6-0.2-8.7s-4.4-12-4.4-12
			l-0.3,0.9L8,100.7z"/>
		<path fill="#7F58A5" d="M10.2,101.9c2.9,2.6,9.4,8.3,11.4,5.9s-4-10.4-4-10.4l2.1-0.8c0,0,7.4,8.8,8.3,11.8s-0.8,7.8-7.3,6.1
			c-4.5-1.2-9.9-3.7-9.9-3.7L10.2,101.9z"/>
		<g>
			<g>
				
					<ellipse transform="matrix(0.9543 -0.2989 0.2989 0.9543 -27.696 8.9504)" fill="#7F58A5" cx="15.4" cy="95" rx="0.4" ry="0.9"/>
				
					<ellipse transform="matrix(0.9972 -7.491062e-002 7.491062e-002 0.9972 -6.9163 1.8584)" fill="#7F58A5" cx="21.3" cy="93.1" rx="0.4" ry="0.9"/>
				<polygon fill="#7F58A5" points="15.1,94.2 21.2,92.2 21.4,94 15.7,95.9 				"/>
			</g>
			<g>
				
					<ellipse transform="matrix(0.9972 -7.491062e-002 7.491062e-002 0.9972 -6.9395 1.7764)" fill="#7F58A5" cx="20.2" cy="93.4" rx="0.6" ry="1.5"/>
				
					<ellipse transform="matrix(0.9972 -7.491062e-002 7.491062e-002 0.9972 -6.8535 2.035)" fill="#7F58A5" cx="23.7" cy="92.4" rx="0.6" ry="1.5"/>
				<polygon fill="#7F58A5" points="20.1,91.9 23.6,90.9 23.8,93.8 20.3,94.9 				"/>
			</g>
			<g>
				
					<ellipse transform="matrix(0.9972 -7.491062e-002 7.491062e-002 0.9972 -6.874 1.9438)" fill="#7F58A5" cx="22.5" cy="92.6" rx="0.9" ry="2.3"/>
				
					<ellipse transform="matrix(0.9972 -7.491062e-002 7.491062e-002 0.9972 -6.6365 2.6643)" fill="#7F58A5" cx="32.2" cy="89.8" rx="0.9" ry="2.3"/>
				<polygon fill="#7F58A5" points="22.3,90.3 32,87.5 32.4,92.1 22.6,94.9 				"/>
			</g>
		</g>
		<g>
			<path fill="#FFFFFF" d="M17.6,97.5l-1.1-1.1l-0.2-0.8l0.6-0.2l-0.1-1.4l-0.8-1l0.5-0.3l0.6,0.2l1.1-0.2l1.9,1.6
				c0,0-0.2,2.5-0.5,2.5S17.6,97.5,17.6,97.5z"/>
			<path fill="#7F58A5" d="M17.6,97.6l-1.2-1.2l-0.2-1l0.6-0.3L16.7,94l-0.9-1.1l0.7-0.5l0.6,0.2l1.1-0.2l2.1,1.8l0,0.1
				c-0.2,2.6-0.5,2.6-0.6,2.6C19.5,96.9,18.5,97.2,17.6,97.6L17.6,97.6z M16.7,96.3l1,0.9c0.5-0.2,1.6-0.7,2-0.7
				c0.1-0.2,0.3-1.3,0.4-2.3l-1.8-1.5l-1,0.2l-0.5-0.2l-0.3,0.2l0.7,0.9l0.1,1.6l-0.6,0.2L16.7,96.3z M19.7,96.5L19.7,96.5
				L19.7,96.5z M19.7,96.5C19.7,96.5,19.7,96.5,19.7,96.5C19.7,96.5,19.7,96.5,19.7,96.5z"/>
		</g>
		<path fill="#7F58A5" d="M14.9,94.4l-1,0.8l0.9,0.2c0.1-0.2,0.2-0.6,0-0.8"/>
	</g>
	<path fill="#7F58A5" d="M1.6,112.6H1.2V77.7c0-1.9,1.6-3.5,3.5-3.5h12.5v0.3H4.7c-1.7,0-3.2,1.4-3.2,3.2V112.6z"/>
	<g>
		<circle fill="#7F58A5" cx="3.8" cy="89.6" r="0.5"/>
		<circle fill="#7F58A5" cx="8.4" cy="87.1" r="0.5"/>
		<circle fill="#7F58A5" cx="10.3" cy="87.9" r="0.5"/>
		<circle fill="#7F58A5" cx="16.3" cy="83.6" r="0.5"/>
		<circle fill="#7F58A5" cx="18.2" cy="85.7" r="0.5"/>
		<circle fill="#7F58A5" cx="23.7" cy="82.5" r="0.5"/>
		<circle fill="#7F58A5" cx="26.3" cy="85.1" r="0.5"/>
		<path fill="#7F58A5" d="M3.9,89.7l-0.1-0.3l4.5-2.4c0,0,0.1,0,0.1,0l1.8,0.7l5.8-4.3c0.1,0,0.2,0,0.2,0l2.1,2.2l5.2-3.3
			c0.1,0,0.1,0,0.2,0l2.6,2.6l4.9-4.4l-2.2,0.1l0-0.3l2.6-0.1c0.1,0,0.1,0,0.2,0.1c0,0.1,0,0.1,0,0.2l-5.4,4.8
			c-0.1,0.1-0.2,0.1-0.2,0l-2.6-2.7l-5.2,3.3c-0.1,0-0.1,0-0.2,0l-2.1-2.2L10.4,88c0,0-0.1,0-0.1,0l-1.8-0.7L3.9,89.7z"/>
		
			<rect x="31.4" y="80.4" transform="matrix(0.9975 7.034440e-002 -7.034440e-002 0.9975 5.8008 -2.0206)" fill="#7F58A5" width="0.3" height="1.9"/>
	</g>
</g>
<g>
</g>
<g>
</g>
<g>
</g>
<g>
</g>
<g>
</g>
<g>
</g>
<g>
</g>
<g>
</g>
<g>
</g>
<g>
</g>
<g>
</g>
<g>
</g>
<g>
</g>
<g>
</g>
<g>
</g>
</svg>
