<?xml version="1.0" encoding="utf-8"?>
<!-- Generator: Adobe Illustrator 18.0.0, SVG Export Plug-In . SVG Version: 6.00 Build 0)  -->
<!DOCTYPE svg PUBLIC "-//W3C//DTD SVG 1.1//EN" "http://www.w3.org/Graphics/SVG/1.1/DTD/svg11.dtd">
<svg version="1.1" id="Layer_1" xmlns="http://www.w3.org/2000/svg" xmlns:xlink="http://www.w3.org/1999/xlink" x="0px" y="0px"
	 viewBox="0 0 525.8 342.1" enable-background="new 0 0 525.8 342.1" xml:space="preserve">
<g>
	<g>
		<path fill="#7F58A5" d="M356.7,76.6H128.4c-0.3,0-0.5-0.2-0.5-0.5s0.2-0.5,0.5-0.5h228.3c0.3,0,0.5,0.2,0.5,0.5
			S357,76.6,356.7,76.6z"/>
		<path fill="#7F58A5" d="M467.4,123.9h-57.2c-4.3,0-7.8-3.5-7.8-7.8c0-4.3,3.5-7.8,7.8-7.8h46.2c8.8,0,15.9-7.1,15.9-15.9
			s-7.1-15.9-15.9-15.9h-42c-0.3,0-0.5-0.2-0.5-0.5s0.2-0.5,0.5-0.5h42c9.3,0,16.9,7.6,16.9,16.9s-7.6,16.9-16.9,16.9h-46.2
			c-3.7,0-6.8,3-6.8,6.8c0,3.7,3,6.8,6.8,6.8h57.2c0.3,0,0.5,0.2,0.5,0.5S467.7,123.9,467.4,123.9z"/>
		<path fill="#7F58A5" d="M501.9,197.5c-0.2,0-0.4-0.1-0.5-0.3c-0.1-0.3,0-0.5,0.3-0.7c14-5.9,23.1-19.6,23.1-34.8
			c0-20.8-16.9-37.8-37.8-37.8c-0.3,0-0.5-0.2-0.5-0.5s0.2-0.5,0.5-0.5c21.4,0,38.8,17.4,38.8,38.8c0,15.6-9.3,29.6-23.7,35.7
			C502,197.5,502,197.5,501.9,197.5z"/>
		<path fill="#7F58A5" d="M473.3,273.8h-18.1c-0.3,0-0.5-0.2-0.5-0.5s0.2-0.5,0.5-0.5h18.1c11.2,0,20.3-9.1,20.3-20.3v-34.6
			c0-0.3,0.2-0.5,0.5-0.5s0.5,0.2,0.5,0.5v34.6C494.6,264.2,485.1,273.8,473.3,273.8z"/>
		<path fill="#7F58A5" d="M148.5,342.1C148.5,342.1,148.5,342.1,148.5,342.1c-0.3,0-0.4-0.2-0.5-0.4L137.8,307H38.3
			c-15.6,0-28.2-12.7-28.2-28.2v-53.7c0-0.3,0.2-0.5,0.5-0.5s0.5,0.2,0.5,0.5v53.7c0,15,12.2,27.2,27.2,27.2h99.9
			c0.2,0,0.4,0.1,0.5,0.4l10.1,34.1l26.9-34.3c0.1-0.1,0.2-0.2,0.4-0.2h127.7c8.9,0,16.1-7.2,16.1-16.1c0-9.4,7.7-17.1,17.1-17.1h49
			c0.3,0,0.5,0.2,0.5,0.5s-0.2,0.5-0.5,0.5h-49c-8.9,0-16.1,7.2-16.1,16.1c0,9.4-7.7,17.1-17.1,17.1H176.2l-27.3,34.9
			C148.8,342,148.7,342.1,148.5,342.1z"/>
		<path fill="#7F58A5" d="M10.6,167.7c-0.3,0-0.5-0.2-0.5-0.5v-61.8c0-17.2,14-31.2,31.2-31.2h28.4V61.7c0-0.3,0.2-0.5,0.5-0.5H164
			c16.6,0,30.1-13.5,30.1-30.1S180.6,1,164,1h-32c-0.3,0-0.5-0.2-0.5-0.5s0.2-0.5,0.5-0.5h32c17.2,0,31.1,14,31.1,31.1
			s-14,31.1-31.1,31.1H70.6v12.5c0,0.3-0.2,0.5-0.5,0.5H41.2c-16.6,0-30.2,13.5-30.2,30.2v61.8C11.1,167.5,10.8,167.7,10.6,167.7z"
			/>
		<path fill="#7F58A5" d="M50.6,62.2H31.1C14,62.2,0,48.3,0,31.1S14,0,31.1,0H88c0.3,0,0.5,0.2,0.5,0.5S88.3,1,88,1H31.1
			C14.5,1,1,14.5,1,31.1s13.5,30.1,30.1,30.1h19.5c0.3,0,0.5,0.2,0.5,0.5S50.9,62.2,50.6,62.2z"/>
	</g>
	<g>
		<rect x="34.4" y="0.3" fill="none" width="138" height="52.5"/>
		<path fill="#0C56AB" d="M36.9,26.8c-0.1-0.5-0.3-1.7-0.3-2.6c0-6.7,5-12.7,13.9-12.7c8.5,0,13.7,5.6,13.7,12.2
			c0,4.9-2.7,8.9-7.4,11.8L49.5,40c-1.5,0.9-2.7,2-3.3,3.5h18.2v7H36.3c0.1-6.7,2.2-12.1,9-16.2l6.3-3.7c3.2-1.9,4.5-3.9,4.5-6.6
			c0-2.8-1.9-5.2-5.7-5.2c-4,0-6,2.8-6,6.3c0,0.7,0.1,1.5,0.3,2.1L36.9,26.8z"/>
		<path fill="#0C56AB" d="M72,17.9c2.5-3.7,6.6-6.4,12.5-6.4c5.9,0,10,2.6,12.5,6.4c2.6,3.9,3.4,8.7,3.4,13.5S99.6,41,97,44.9
			c-2.5,3.7-6.6,6.4-12.5,6.4c-5.9,0-10-2.6-12.5-6.4c-2.6-3.9-3.3-8.7-3.3-13.5S69.4,21.8,72,17.9z M78.8,41.1
			c1.2,1.9,3,3.1,5.7,3.1c2.8,0,4.5-1.2,5.7-3.1c1.5-2.3,2.1-5.7,2.1-9.7s-0.6-7.4-2.1-9.7c-1.2-1.9-2.9-3.1-5.7-3.1
			c-2.8,0-4.6,1.2-5.7,3.1c-1.5,2.3-2.1,5.7-2.1,9.7S77.3,38.8,78.8,41.1z"/>
		<path fill="#0C56AB" d="M113.1,50.4V25H104v-5.4c5.6-0.1,9.4-3.2,10.2-7.1h7v38H113.1z"/>
		<path fill="#0C56AB" d="M155.3,19.1c-2.9,2.5-13.5,12.1-15.2,31.3h-8.4c1.6-20.4,14.3-31,14.3-31h-19.6v-7h28.9V19.1z"/>
	</g>
</g>
<g>
</g>
<g>
</g>
<g>
</g>
<g>
</g>
<g>
</g>
<g>
</g>
<g>
</g>
<g>
</g>
<g>
</g>
<g>
</g>
<g>
</g>
<g>
</g>
<g>
</g>
<g>
</g>
<g>
</g>
</svg>
