<?xml version="1.0" encoding="utf-8"?>
<!-- Generator: Adobe Illustrator 18.0.0, SVG Export Plug-In . SVG Version: 6.00 Build 0)  -->
<!DOCTYPE svg PUBLIC "-//W3C//DTD SVG 1.1//EN" "http://www.w3.org/Graphics/SVG/1.1/DTD/svg11.dtd">
<svg version="1.1" id="Layer_1" xmlns="http://www.w3.org/2000/svg" xmlns:xlink="http://www.w3.org/1999/xlink" x="0px" y="0px"
	 viewBox="0 0 1182.1 742.8" enable-background="new 0 0 1182.1 742.8" xml:space="preserve">
<circle fill="#C12B5D" cx="557" cy="586.5" r="26.8"/>
<circle fill="#007A6D" cx="394.1" cy="669.1" r="26.5"/>
<circle fill="#007A6D" cx="789.2" cy="631.6" r="26.5"/>
<circle fill="#007A6D" cx="739.4" cy="256.7" r="25.6"/>
<circle fill="#F6A822" cx="519.3" cy="324.4" r="30"/>
<circle fill="#F6A822" cx="325.1" cy="417.7" r="30"/>
<circle fill="#007A6D" cx="246.4" cy="284.4" r="30"/>
<circle fill="#2368B5" cx="537.4" cy="455.6" r="28.9"/>
<path fill="none" stroke="#032360" stroke-width="0.75" stroke-miterlimit="10" d="M162,509.5c-7-17.3-10.7-35.4-10.7-53.9
	c0-36.1,14.1-70.3,39.2-100.8"/>
<path fill="none" stroke="#032360" stroke-width="0.75" stroke-miterlimit="10" d="M363.8,660.5c-48.3-14.5-90.8-34.8-124.9-59.4"/>
<path fill="none" stroke="#032360" stroke-width="0.75" stroke-miterlimit="10" d="M761.1,642.5c-63.1,26.7-140.3,42.4-223.7,42.4
	c-39.8,0-78.2-3.6-114.3-10.2"/>
<path fill="none" stroke="#032360" stroke-width="0.75" stroke-miterlimit="10" d="M895.1,542c-19.1,27.9-47.2,53-82.1,74.1"/>
<path fill="none" stroke="#032360" stroke-width="0.75" stroke-miterlimit="10" d="M841.1,314c45.1,34.1,74.3,76,80.9,121.8"/>
<path fill="none" stroke="#032360" stroke-width="0.75" stroke-miterlimit="10" d="M763.6,269.7c6.6,2.8,13,5.8,19.3,8.9"/>
<path fill="none" stroke="#032360" stroke-width="0.75" stroke-miterlimit="10" d="M277,286.2c68.6-37.3,160-60,260.3-60
	c62.8,0,122,8.9,174.4,24.7"/>
<path fill="none" stroke="#032360" stroke-width="0.75" stroke-miterlimit="10" d="M526.8,587.1c-87.3-2.4-161.4-34.8-193.8-80.3"/>
<path fill="none" stroke="#032360" stroke-width="0.75" stroke-miterlimit="10" d="M749.1,494.7c-23.2,44.3-84.8,78.6-161.7,89.2"/>
<path fill="none" stroke="#032360" stroke-width="0.75" stroke-miterlimit="10" d="M547.7,324c72,2,135,24.3,173.1,57.6"/>
<path fill="none" stroke="#032360" stroke-width="0.75" stroke-miterlimit="10" d="M343.9,391.1c30-31.7,81.6-55.3,142.8-63.8"/>
<circle fill="#007A6D" cx="923.7" cy="465.7" r="25.6"/>
<g>
	<path fill="#FFFFFF" d="M913.6,460c0-0.4-0.1-1.1-0.1-1.6c0-5,3.7-9.4,10.2-9.4c6.3,0,10.1,4.1,10.1,9c0,3.7-2.1,6.8-5.5,8.9
		l-5.6,3.4c-1.4,0.8-2.5,1.9-2.9,3.3h14.2v4.7h-20.7c0.1-4.9,1.8-8.8,6.8-11.9l4.7-3c2.6-1.6,3.7-3.3,3.7-5.4c0-2.3-1.6-4.5-4.8-4.5
		c-3.4,0-5,2.3-5,5.3c0,0.4,0.1,1,0.1,1.5L913.6,460z"/>
</g>
<g>
	<path fill="#FFFFFF" d="M737.5,269v-19.6h-6.9v-3.6c4.1-0.1,6.9-2.4,7.6-5.4h4.6V269H737.5z"/>
</g>
<g>
	<path fill="#FFFFFF" d="M783.3,628.2l8.2-7.3H778v-4.8h20.6v4.6l-8.1,7.1c4.4,0.1,8.9,3.3,8.9,9c0,5.1-4.1,9.7-11.1,9.7
		c-6.9,0-11-4.4-11.3-9.4l5.4-1.1c0.1,3.4,2.6,5.8,5.9,5.8c3.6,0,5.6-2.3,5.6-5c0-3.4-2.7-4.9-5.3-4.9c-1.4,0-2.3,0.3-2.8,0.5
		L783.3,628.2z"/>
</g>
<g>
	<path fill="#FFFFFF" d="M380.9,671.1l12.7-17.3h7.1v18.4h5v4.9h-5v6.5h-5.4v-6.5h-14.3V671.1z M395.2,659.4l-9.4,12.8h9.4V659.4z"
		/>
</g>
<g>
	<path fill="#FFFFFF" d="M546.1,593.3c0-3.4,2.4-6.3,5.6-7.4c-2.9-1.1-4.9-3.9-4.9-6.9c0-5,4.4-8.5,10.4-8.5c6,0,10.5,3.5,10.5,8.5
		c0,2.9-2,5.8-4.9,6.9c3.2,1.1,5.6,3.9,5.6,7.4c0,5-4.3,8.7-11.2,8.7C550.4,602,546.1,598.3,546.1,593.3z M562.9,592.7
		c0-2.5-2-4.6-5.7-4.6c-3.6,0-5.6,2.2-5.6,4.6s2,4.6,5.6,4.6C560.9,597.3,562.9,595.2,562.9,592.7z M562.2,579.4
		c0-2.3-1.9-4.3-5-4.3c-3.1,0-4.9,2-4.9,4.3c0,2.5,1.9,4.4,4.9,4.4C560.2,583.7,562.2,581.9,562.2,579.4z"/>
</g>
<g>
	<path fill="#032360" d="M315.4,428.1c1.3,0.8,3.8,1.6,6,1.6c7.1,0,10.8-4.3,11.1-10.6c-1.2,2.2-4.2,3.9-8.2,3.9
		c-6.1,0-11.6-4.1-11.6-11.3c0-6.9,5.6-11.7,12.7-11.7c7,0,13.3,5,13.3,15.7c0,12.2-5.8,19.4-17.2,19.4c-2.7,0-6.1-0.8-7.8-1.9
		L315.4,428.1z M325.3,405.3c-3.4,0-6.4,2.4-6.4,6.2c0,3.9,3,6.3,6.4,6.3c3.4,0,6.4-2.4,6.4-6.3
		C331.7,407.8,328.6,405.3,325.3,405.3z"/>
</g>
<g>
	<path fill="#032360" d="M502.6,341v-23h-8.1v-4.3c4.8-0.1,8.1-2.8,8.9-6.3h5.4V341H502.6z"/>
	<path fill="#032360" d="M518.3,312.1c2.2-3.3,5.7-5.5,10.7-5.5s8.5,2.2,10.7,5.5c2.3,3.4,3,7.6,3,12.1s-0.7,8.7-3,12.1
		c-2.2,3.3-5.7,5.5-10.7,5.5s-8.6-2.2-10.7-5.5c-2.3-3.4-3-7.6-3-12.1S516,315.5,518.3,312.1z M523.8,333.8c1.1,1.5,2.7,2.5,5.2,2.5
		s4-1,5.2-2.5c1.6-2.1,2.3-5.3,2.3-9.6s-0.7-7.5-2.3-9.6c-1.2-1.5-2.7-2.5-5.2-2.5s-4,1-5.2,2.5c-1.7,2.1-2.4,5.3-2.4,9.6
		S522.2,331.7,523.8,333.8z"/>
</g>
<g>
	<circle fill="#007A6D" cx="180.5" cy="531.7" r="26.4"/>
	<g>
		<path fill="#FFFFFF" d="M174.2,536.8c0.2,3.2,2.6,5.5,6,5.5c3.1,0,5.6-2.1,5.6-5.4c0-3.7-2.7-5.5-5.7-5.5c-2.1,0-3.9,0.9-4.9,2.1
			l-5.2-1.9l3.7-14.9h16.2v4.8h-12.5l-1.8,7.5c1.3-1.3,3.6-2.1,5.7-2.1c5.9,0,10.1,3.7,10.1,9.9c0,5.6-4.3,10.2-11.1,10.2
			c-6.4,0-10.8-4.2-11.1-8.9L174.2,536.8z"/>
	</g>
</g>
<g>
	<path fill="#FFFFFF" d="M255.5,271c-1.2-0.7-3-1.3-5.8-1.3c-6.3,0-10.9,4.2-11.5,10.7c1.8-2.7,5-4,8.6-4c6.7,0,11.4,4.5,11.4,11.4
		c0,7-5.7,11.7-12.8,11.7c-8.6,0-13.4-7-13.4-15.6c0-12.2,7.6-19.6,18-19.6c3.1,0,5.7,0.7,7.2,1.7L255.5,271z M245.5,294.1
		c3.5,0,6.5-2.4,6.5-6.3c0-3.9-3-6.3-6.5-6.3s-6.5,2.3-6.5,6.3C239,291.7,242.1,294.1,245.5,294.1z"/>
</g>
<circle fill="#C12B5D" cx="743.6" cy="404.5" r="30"/>
<g>
	<path fill="#FFFFFF" d="M756.3,392c-2.8,2.3-12.3,10.8-13.8,28.2H736c1.5-18.8,13.2-28.2,13.2-28.2h-18v-5.4h25.1V392z"/>
</g>
<g>
	<path fill="#00AEEF" d="M1118.5,347.2L1118.5,347.2L1118.5,347.2c-2.4,1.3-4.4,3.3-5.7,5.7l0,0l0,0c-1.3-2.4-3.3-4.4-5.7-5.7l0,0
		l0,0c2.4-1.3,4.4-3.3,5.7-5.7l0,0l0,0C1114.1,343.9,1116.1,345.8,1118.5,347.2z"/>
	<line fill="none" stroke="#00AEEF" stroke-width="0.25" stroke-miterlimit="10" x1="1112.8" y1="338" x2="1112.8" y2="356.3"/>
	<line fill="none" stroke="#00AEEF" stroke-width="0.25" stroke-miterlimit="10" x1="1121.9" y1="347.2" x2="1103.6" y2="347.2"/>
</g>
<circle fill="#2368B5" cx="30.3" cy="75.4" r="30.3"/>
<circle fill="#2368B5" cx="204.7" cy="741.4" r="1.4"/>
<g>
	<path fill="#FFFFFF" d="M168.5,689.6L168.5,689.6L168.5,689.6c-2.4,1.3-4.4,3.3-5.7,5.7l0,0l0,0c-1.3-2.4-3.3-4.4-5.7-5.7l0,0l0,0
		c2.4-1.3,4.4-3.3,5.7-5.7l0,0l0,0C164.1,686.3,166.1,688.3,168.5,689.6z"/>
	<line fill="none" stroke="#FFFFFF" stroke-width="0.25" stroke-miterlimit="10" x1="162.8" y1="680.5" x2="162.8" y2="698.8"/>
	<line fill="none" stroke="#FFFFFF" stroke-width="0.25" stroke-miterlimit="10" x1="172" y1="689.6" x2="153.7" y2="689.6"/>
</g>
<g>
	<path fill="#FFFFFF" d="M116.9,424.9L116.9,424.9L116.9,424.9c-1.9,1.1-3.5,2.6-4.6,4.6l0,0l0,0c-1.1-1.9-2.6-3.5-4.6-4.6l0,0l0,0
		c1.9-1.1,3.5-2.6,4.6-4.6l0,0l0,0C113.4,422.3,115,423.9,116.9,424.9z"/>
	<line fill="none" stroke="#FFFFFF" stroke-width="0.25" stroke-miterlimit="10" x1="112.3" y1="417.6" x2="112.3" y2="432.3"/>
	<line fill="none" stroke="#FFFFFF" stroke-width="0.25" stroke-miterlimit="10" x1="119.7" y1="424.9" x2="105" y2="424.9"/>
</g>
<g>
	<circle fill="#9C8FC4" cx="168.1" cy="361.9" r="3.7"/>
	<circle fill="#9C8FC4" cx="163.5" cy="467.2" r="2.2"/>
	<circle fill="#9C8FC4" cx="221.5" cy="420.1" r="5.6"/>
	<circle fill="#9C8FC4" cx="154.2" cy="402.4" r="1.4"/>
	<circle fill="#9C8FC4" cx="266.1" cy="467.1" r="1.4"/>
	<circle fill="#9C8FC4" cx="117.3" cy="396.2" r="1.4"/>
	<circle fill="#9C8FC4" cx="103.9" cy="360.5" r="1.4"/>
	<circle fill="#9C8FC4" cx="148.4" cy="289.8" r="1.4"/>
	<circle fill="#9C8FC4" cx="80.7" cy="309" r="1.4"/>
</g>
<g>
	<g>
		<circle fill="#9C8FC4" cx="1050.6" cy="114.2" r="3.7"/>
		<circle fill="#9C8FC4" cx="1149.5" cy="150.7" r="2.2"/>
		<circle fill="#9C8FC4" cx="1122.3" cy="81.2" r="5.6"/>
		<circle fill="#9C8FC4" cx="1084.9" cy="139.9" r="1.4"/>
		<circle fill="#9C8FC4" cx="1180.7" cy="53.1" r="1.4"/>
		<circle fill="#9C8FC4" cx="1067.7" cy="173.1" r="1.4"/>
		<circle fill="#9C8FC4" cx="1029.6" cy="175" r="1.4"/>
		<circle fill="#9C8FC4" cx="975.9" cy="111" r="1.4"/>
		<circle fill="#9C8FC4" cx="973.5" cy="181.4" r="1.4"/>
	</g>
	<path fill="none" stroke="#032360" stroke-miterlimit="10" stroke-dasharray="12" d="M533.4,98.6c52.9-4.5,158.5-63.1,238.7-18.1
		c80.2,45,292.3-3.9,326.7-80.2"/>
</g>
<g>
</g>
<g>
</g>
<g>
</g>
<g>
</g>
<g>
</g>
<g>
</g>
<g>
</g>
<g>
</g>
<g>
</g>
<g>
</g>
<g>
</g>
<g>
</g>
<g>
</g>
<g>
</g>
<g>
</g>
</svg>
