<?xml version="1.0" encoding="utf-8"?>
<!-- Generator: Adobe Illustrator 18.0.0, SVG Export Plug-In . SVG Version: 6.00 Build 0)  -->
<!DOCTYPE svg PUBLIC "-//W3C//DTD SVG 1.1//EN" "http://www.w3.org/Graphics/SVG/1.1/DTD/svg11.dtd">
<svg version="1.1" id="Layer_1" xmlns="http://www.w3.org/2000/svg" xmlns:xlink="http://www.w3.org/1999/xlink" x="0px" y="0px"
	 viewBox="0 0 1030.5 532.8" enable-background="new 0 0 1030.5 532.8" xml:space="preserve">
<rect x="769.6" y="117.7" fill="#D1D3D4" width="1" height="53.6"/>
<g>
	<path fill="#573392" d="M137.1,452.9c-29.2,0-52.3-26.7-53.3-27.8c-0.5-0.6-0.5-1.4,0-2c1-1.1,24.1-27.8,53.3-27.8
		s52.3,26.7,53.3,27.8c0.5,0.6,0.5,1.4,0,2C189.4,426.2,166.3,452.9,137.1,452.9z M87,424.1c4.5,4.8,25.4,25.8,50.1,25.8
		c24.7,0,45.7-21,50.1-25.8c-4.5-4.8-25.4-25.8-50.1-25.8C112.4,398.3,91.5,419.3,87,424.1z"/>
	<path fill="#573392" d="M137.1,441.8c-9.8,0-17.7-7.9-17.7-17.7s7.9-17.7,17.7-17.7c9.8,0,17.7,7.9,17.7,17.7
		S146.9,441.8,137.1,441.8z M137.1,409.4c-8.1,0-14.7,6.6-14.7,14.7s6.6,14.7,14.7,14.7s14.7-6.6,14.7-14.7S145.2,409.4,137.1,409.4
		z"/>
	<path fill="#573392" d="M130.8,380.6c-0.8,0-1.5-0.7-1.5-1.5v-38.6c0-0.8,0.7-1.5,1.5-1.5s1.5,0.7,1.5,1.5v38.6
		C132.3,379.9,131.6,380.6,130.8,380.6z"/>
	<path fill="#573392" d="M156.4,384.4c-0.3,0-0.6-0.1-0.8-0.2c-0.7-0.5-0.9-1.4-0.4-2.1l21.1-32.3c0.5-0.7,1.4-0.9,2.1-0.4
		c0.7,0.5,0.9,1.4,0.4,2.1l-21.1,32.3C157.4,384.2,156.9,384.4,156.4,384.4z"/>
	<path fill="#573392" d="M109.4,389.6c-0.5,0-1-0.3-1.3-0.8L89,355.3c-0.4-0.7-0.2-1.6,0.6-2c0.7-0.4,1.6-0.2,2,0.6l19.1,33.6
		c0.4,0.7,0.2,1.6-0.6,2C109.9,389.5,109.6,389.6,109.4,389.6z"/>
	<path fill="#573392" d="M122.7,486.7c-0.3,0-0.6-0.1-0.9-0.3l-32.9-25.1l-32.9,23.5c-0.7,0.5-1.6,0.3-2.1-0.3
		c-0.5-0.7-0.3-1.6,0.3-2.1l33.8-24.1c0.5-0.4,1.3-0.4,1.8,0l32.9,25.1l31.3-21.9c0.5-0.3,1.2-0.4,1.7,0l17,10.9l74.4-70.3
		c0.6-0.6,1.6-0.5,2.1,0.1c0.6,0.6,0.5,1.6-0.1,2.1L174,475.4c-0.5,0.5-1.3,0.5-1.8,0.2l-17.2-11l-31.3,21.9
		C123.3,486.6,123,486.7,122.7,486.7z"/>
	<path fill="#573392" d="M249.2,424.7c-0.8,0-1.5-0.7-1.5-1.5v-19.8h-20.4c-0.8,0-1.5-0.7-1.5-1.5s0.7-1.5,1.5-1.5h21.9
		c0.8,0,1.5,0.7,1.5,1.5v21.3C250.7,424,250.1,424.7,249.2,424.7z"/>
</g>
<g>
	<path fill="#F7A823" d="M891.5,86h-5.1c-0.3,0-0.5-0.2-0.5-0.5v-5.4c-3.7-0.5-7.6-2.3-10.1-4.6c-0.2-0.2-0.2-0.4-0.1-0.6l3.4-5.1
		c0.1-0.1,0.2-0.2,0.3-0.2c0.1,0,0.3,0,0.4,0.1c3,2.3,5.6,3.4,8.3,3.4c3.3,0,4.8-1.3,4.8-4.1c0-2.8-2.9-4.3-6.3-6.1
		c-4.4-2.3-9.5-4.9-9.5-11.2c0-5.7,3.3-9.8,8.8-11V35c0-0.3,0.2-0.5,0.5-0.5h5.1c0.3,0,0.5,0.2,0.5,0.5v5.5c3.2,0.5,5.9,2.1,8.5,4.8
		c0.2,0.2,0.2,0.5,0,0.7l-3.8,4.4c-0.1,0.1-0.2,0.2-0.3,0.2c-0.1,0-0.3,0-0.4-0.1c-1.9-1.8-3.7-2.9-6.3-2.9c-2.8,0-4.3,1.3-4.3,3.8
		c0,2.4,2.7,3.8,5.9,5.3c4.4,2.1,9.9,4.8,9.9,11.8c0,5.9-3.4,10.2-9.2,11.4v5.6C892,85.8,891.8,86,891.5,86z M886.9,85h4.1v-5.5
		c0-0.2,0.2-0.4,0.4-0.5c5.6-1.1,8.7-4.9,8.7-10.5c0-6.4-5-8.8-9.3-10.9c-3.3-1.6-6.5-3.1-6.5-6.2c0-3.1,1.9-4.8,5.3-4.8
		c2.8,0,4.7,1.1,6.6,2.9l3.2-3.6c-2.5-2.5-5-3.8-8-4.3c-0.2,0-0.4-0.2-0.4-0.5v-5.4h-4.1v5.5c0,0.2-0.2,0.4-0.4,0.5
		c-5.3,1-8.4,4.8-8.4,10.1c0,5.7,4.5,8,8.9,10.3c3.5,1.8,6.9,3.5,6.9,7c0,2.3-1,5.1-5.8,5.1c-2.8,0-5.5-1.1-8.5-3.3l-2.8,4.3
		c2.5,2.1,6.2,3.7,9.7,4.1c0.3,0,0.4,0.2,0.4,0.5V85z"/>
</g>
<g>
	<path fill="#573392" d="M252.1,351.7c-2.1-2-4-3.1-6.7-3.1c-3.1,0-4.8,1.5-4.8,4.3c0,6.4,15.8,5.5,15.8,17.1c0,5.7-3.2,9.9-9.2,11
		v6h-5.1v-5.8c-3.5-0.4-7.5-2-10.3-4.5l3.4-5.1c2.9,2.2,5.6,3.5,8.6,3.5c3.6,0,5.3-1.6,5.3-4.6c0-7-15.8-6.4-15.8-17.3
		c0-5.7,3.4-9.6,8.8-10.6v-6h5.1v5.9c3.7,0.5,6.4,2.4,8.6,4.7L252.1,351.7z"/>
</g>
<g>
	<path fill="#F7A823" d="M931.8,51.4h-5.1c-0.3,0-0.5-0.2-0.5-0.5v-5.4c-3.7-0.5-7.6-2.3-10.1-4.6c-0.2-0.2-0.2-0.4-0.1-0.6l3.4-5.1
		c0.1-0.1,0.2-0.2,0.3-0.2c0.1,0,0.3,0,0.4,0.1c3,2.3,5.6,3.4,8.3,3.4c3.3,0,4.8-1.3,4.8-4.1c0-2.8-2.9-4.3-6.3-6.1
		c-4.4-2.3-9.5-4.9-9.5-11.2c0-5.7,3.3-9.8,8.8-11V0.5c0-0.3,0.2-0.5,0.5-0.5h5.1c0.3,0,0.5,0.2,0.5,0.5V6c3.2,0.5,5.9,2.1,8.5,4.8
		c0.2,0.2,0.2,0.5,0,0.7l-3.8,4.4c-0.1,0.1-0.2,0.2-0.3,0.2c-0.1,0-0.3,0-0.4-0.1c-1.9-1.8-3.7-2.9-6.3-2.9c-2.8,0-4.3,1.3-4.3,3.8
		c0,2.4,2.7,3.8,5.9,5.3c4.4,2.1,9.9,4.8,9.9,11.8c0,5.9-3.4,10.2-9.2,11.4v5.6C932.3,51.2,932,51.4,931.8,51.4z M927.1,50.4h4.1
		v-5.5c0-0.2,0.2-0.4,0.4-0.5c5.6-1.1,8.7-4.9,8.7-10.5c0-6.4-5-8.8-9.3-10.9c-3.3-1.6-6.5-3.1-6.5-6.2c0-3.1,1.9-4.8,5.3-4.8
		c2.8,0,4.7,1.1,6.6,2.9l3.2-3.6c-2.5-2.5-5-3.8-8-4.3c-0.2,0-0.4-0.2-0.4-0.5V1h-4.1v5.5c0,0.2-0.2,0.4-0.4,0.5
		c-5.3,1-8.4,4.8-8.4,10.1c0,5.7,4.5,8,8.9,10.3c3.5,1.8,6.9,3.5,6.9,7c0,2.3-1,5.1-5.8,5.1c-2.8,0-5.5-1.1-8.5-3.3l-2.8,4.3
		c2.5,2.1,6.2,3.7,9.7,4.1c0.3,0,0.4,0.2,0.4,0.5V50.4z"/>
</g>
<g>
	<defs>
		<polygon id="SVGID_1_" points="152.5,507.6 433.1,507.6 433.1,461.4 702.1,461.4 702.1,392 852.7,392 852.7,333.5 1018.7,278.2 
			1018.7,67.2 693.3,67.2 502.4,323.6 502.4,286.5 342,286.5 83,510 		"/>
	</defs>
	<clipPath id="SVGID_2_">
		<use xlink:href="#SVGID_1_"  overflow="visible"/>
	</clipPath>
	<linearGradient id="SVGID_3_" gradientUnits="userSpaceOnUse" x1="355.2685" y1="610.8608" x2="1102.616" y2="238.7248">
		<stop  offset="0" style="stop-color:#FFDA6E;stop-opacity:0"/>
		<stop  offset="4.096297e-003" style="stop-color:#FFDA6D;stop-opacity:6.636602e-003"/>
		<stop  offset="0.2175" style="stop-color:#FBC34C;stop-opacity:0.3523"/>
		<stop  offset="0.3947" style="stop-color:#F9B537;stop-opacity:0.6394"/>
		<stop  offset="0.5128" style="stop-color:#F8B030;stop-opacity:0.8309"/>
		<stop  offset="0.5144" style="stop-color:#F8B030;stop-opacity:0.8314"/>
		<stop  offset="0.727" style="stop-color:#F7AA26;stop-opacity:0.9052"/>
		<stop  offset="1" style="stop-color:#F7A823"/>
	</linearGradient>
	<polygon clip-path="url(#SVGID_2_)" fill="url(#SVGID_3_)" points="104.5,508.3 1020.6,90.7 1020.6,507 433.1,507.6 	"/>
	<g clip-path="url(#SVGID_2_)">
		<g>
			<polygon fill="#D1D3D4" points="831.7,344.4 831.7,194.9 898.6,172.9 898.6,172.5 952.7,204.3 952.7,344.4 			"/>
			<g>
				<g>
					<rect x="840.1" y="200.9" fill="#939598" width="3" height="30.4"/>
					<rect x="848.2" y="198.3" fill="#939598" width="3" height="30.4"/>
					<rect x="856.4" y="195.7" fill="#939598" width="3" height="30.4"/>
					<rect x="864.5" y="193.1" fill="#939598" width="3" height="30.4"/>
					<rect x="872.7" y="190.5" fill="#939598" width="3" height="30.4"/>
					<rect x="880.8" y="187.9" fill="#939598" width="3" height="30.4"/>
					<rect x="889" y="185.3" fill="#939598" width="3" height="30.4"/>
				</g>
				<g>
					<rect x="840.1" y="238.7" fill="#939598" width="3" height="30.4"/>
					<rect x="848.2" y="236.1" fill="#939598" width="3" height="30.4"/>
					<rect x="856.4" y="233.5" fill="#939598" width="3" height="30.4"/>
					<rect x="864.5" y="230.8" fill="#939598" width="3" height="30.4"/>
					<rect x="872.7" y="228.2" fill="#939598" width="3" height="30.4"/>
					<rect x="880.8" y="225.6" fill="#939598" width="3" height="30.4"/>
					<rect x="889" y="223" fill="#939598" width="3" height="30.4"/>
				</g>
				<g>
					<rect x="840.1" y="276.4" fill="#939598" width="3" height="30.4"/>
					<rect x="848.2" y="273.8" fill="#939598" width="3" height="30.4"/>
					<rect x="856.4" y="271.2" fill="#939598" width="3" height="30.4"/>
					<rect x="864.5" y="268.6" fill="#939598" width="3" height="30.4"/>
					<rect x="872.7" y="266" fill="#939598" width="3" height="30.4"/>
					<rect x="880.8" y="263.4" fill="#939598" width="3" height="30.4"/>
					<rect x="889" y="260.7" fill="#939598" width="3" height="30.4"/>
				</g>
				<g>
					<rect x="840.1" y="314.1" fill="#939598" width="3" height="30.4"/>
					<rect x="848.2" y="311.5" fill="#939598" width="3" height="30.4"/>
					<rect x="856.4" y="308.9" fill="#939598" width="3" height="30.4"/>
					<rect x="864.5" y="306.3" fill="#939598" width="3" height="30.4"/>
					<rect x="872.7" y="303.7" fill="#939598" width="3" height="30.4"/>
					<rect x="880.8" y="301.1" fill="#939598" width="3" height="30.4"/>
					<rect x="889" y="298.5" fill="#939598" width="3" height="30.4"/>
				</g>
				<g>
					<rect x="840.1" y="351.8" fill="#939598" width="3" height="30.4"/>
					<rect x="848.2" y="349.2" fill="#939598" width="3" height="30.4"/>
					<rect x="856.4" y="346.6" fill="#939598" width="3" height="30.4"/>
					<rect x="864.5" y="344" fill="#939598" width="3" height="30.4"/>
					<rect x="872.7" y="341.4" fill="#939598" width="3" height="30.4"/>
					<rect x="880.8" y="338.8" fill="#939598" width="3" height="30.4"/>
					<rect x="889" y="336.2" fill="#939598" width="3" height="30.4"/>
				</g>
			</g>
			<polygon fill="#E6E7E8" points="915.8,369.9 952.7,361.1 952.7,204.3 898.6,172.5 898.6,375.7 			"/>
			<g>
				<rect x="904.9" y="187.6" fill="#939598" width="1" height="153.7"/>
				<rect x="911.8" y="191.1" fill="#939598" width="1" height="153.7"/>
				<rect x="918.7" y="194.6" fill="#939598" width="1" height="153.7"/>
				<rect x="925.6" y="198.1" fill="#939598" width="1" height="153.7"/>
				<rect x="932.5" y="201.7" fill="#939598" width="1" height="153.7"/>
				<rect x="939.4" y="205.2" fill="#939598" width="1" height="153.7"/>
				<rect x="946.3" y="208.7" fill="#939598" width="1" height="153.7"/>
			</g>
		</g>
		<g>
			<polygon fill="#D1D3D4" points="909.6,308.1 909.6,158.5 976.5,136.5 976.5,136.1 1030.5,168 1030.5,308.1 			"/>
			<g>
				<g>
					<rect x="918" y="164.6" fill="#939598" width="3" height="30.4"/>
					<rect x="926.1" y="162" fill="#939598" width="3" height="30.4"/>
					<rect x="934.3" y="159.4" fill="#939598" width="3" height="30.4"/>
					<rect x="942.4" y="156.8" fill="#939598" width="3" height="30.4"/>
					<rect x="950.6" y="154.2" fill="#939598" width="3" height="30.4"/>
					<rect x="958.7" y="151.6" fill="#939598" width="3" height="30.4"/>
					<rect x="966.9" y="148.9" fill="#939598" width="3" height="30.4"/>
				</g>
				<g>
					<rect x="918" y="202.3" fill="#939598" width="3" height="30.4"/>
					<rect x="926.1" y="199.7" fill="#939598" width="3" height="30.4"/>
					<rect x="934.3" y="197.1" fill="#939598" width="3" height="30.4"/>
					<rect x="942.4" y="194.5" fill="#939598" width="3" height="30.4"/>
					<rect x="950.6" y="191.9" fill="#939598" width="3" height="30.4"/>
					<rect x="958.7" y="189.3" fill="#939598" width="3" height="30.4"/>
					<rect x="966.9" y="186.7" fill="#939598" width="3" height="30.4"/>
				</g>
				<g>
					<rect x="918" y="240" fill="#939598" width="3" height="30.4"/>
					<rect x="926.1" y="237.4" fill="#939598" width="3" height="30.4"/>
					<rect x="934.3" y="234.8" fill="#939598" width="3" height="30.4"/>
					<rect x="942.4" y="232.2" fill="#939598" width="3" height="30.4"/>
					<rect x="950.6" y="229.6" fill="#939598" width="3" height="30.4"/>
					<rect x="958.7" y="227" fill="#939598" width="3" height="30.4"/>
					<rect x="966.9" y="224.4" fill="#939598" width="3" height="30.4"/>
				</g>
				<g>
					<rect x="918" y="277.8" fill="#939598" width="3" height="30.4"/>
					<rect x="926.1" y="275.2" fill="#939598" width="3" height="30.4"/>
					<rect x="934.3" y="272.6" fill="#939598" width="3" height="30.4"/>
					<rect x="942.4" y="269.9" fill="#939598" width="3" height="30.4"/>
					<rect x="950.6" y="267.3" fill="#939598" width="3" height="30.4"/>
					<rect x="958.7" y="264.7" fill="#939598" width="3" height="30.4"/>
					<rect x="966.9" y="262.1" fill="#939598" width="3" height="30.4"/>
				</g>
				<g>
					<rect x="918" y="315.5" fill="#939598" width="3" height="30.4"/>
					<rect x="926.1" y="312.9" fill="#939598" width="3" height="30.4"/>
					<rect x="934.3" y="310.3" fill="#939598" width="3" height="30.4"/>
					<rect x="942.4" y="307.7" fill="#939598" width="3" height="30.4"/>
					<rect x="950.6" y="305.1" fill="#939598" width="3" height="30.4"/>
					<rect x="958.7" y="302.5" fill="#939598" width="3" height="30.4"/>
					<rect x="966.9" y="299.8" fill="#939598" width="3" height="30.4"/>
				</g>
			</g>
			<polygon fill="#E6E7E8" points="993.7,333.5 1030.5,324.8 1030.5,168 976.5,136.1 976.5,339.3 			"/>
			<g>
				<rect x="982.8" y="151.2" fill="#939598" width="1" height="153.7"/>
				<rect x="989.7" y="154.7" fill="#939598" width="1" height="153.7"/>
				<rect x="996.6" y="158.3" fill="#939598" width="1" height="153.7"/>
				<rect x="1003.5" y="161.8" fill="#939598" width="1" height="153.7"/>
				<rect x="1010.4" y="165.3" fill="#939598" width="1" height="153.7"/>
				<rect x="1017.3" y="168.9" fill="#939598" width="1" height="153.7"/>
				<rect x="1024.2" y="172.4" fill="#939598" width="1" height="153.7"/>
			</g>
		</g>
		<g>
			<polygon fill="#E6E7E8" points="739.3,322.6 782.6,297 907.2,297 907.2,402.5 739.3,402.5 			"/>
			<polygon fill="#D1D3D4" points="782.6,297 782.6,412.7 739.3,402.5 739.3,322.6 			"/>
			<g>
				<g>
					<rect x="742.3" y="324.5" fill="#939598" width="3" height="8.2"/>
					<rect x="748.1" y="321.2" fill="#939598" width="3" height="8.2"/>
					<rect x="753.8" y="317.9" fill="#939598" width="3" height="8.2"/>
					<rect x="759.5" y="314.5" fill="#939598" width="3" height="8.2"/>
					<rect x="765.2" y="311.2" fill="#939598" width="3" height="8.2"/>
					<rect x="770.9" y="307.9" fill="#939598" width="3" height="8.2"/>
					<rect x="776.6" y="304.6" fill="#939598" width="3" height="8.2"/>
				</g>
				<g>
					<rect x="785" y="303.8" fill="#939598" width="3" height="8.2"/>
					<rect x="793.8" y="303.8" fill="#939598" width="3" height="8.2"/>
					<rect x="802.5" y="303.8" fill="#939598" width="3" height="8.2"/>
					<rect x="811.2" y="303.8" fill="#939598" width="3" height="8.2"/>
					<rect x="819.9" y="303.8" fill="#939598" width="3" height="8.2"/>
					<rect x="828.6" y="303.8" fill="#939598" width="3" height="8.2"/>
					<rect x="837.3" y="303.8" fill="#939598" width="3" height="8.2"/>
					<rect x="846" y="303.8" fill="#939598" width="3" height="8.2"/>
					<rect x="854.7" y="303.8" fill="#939598" width="3" height="8.2"/>
					<rect x="863.4" y="303.8" fill="#939598" width="3" height="8.2"/>
					<rect x="872.1" y="303.8" fill="#939598" width="3" height="8.2"/>
					<rect x="880.8" y="303.8" fill="#939598" width="3" height="8.2"/>
					<rect x="889.5" y="303.8" fill="#939598" width="3" height="8.2"/>
					<rect x="898.2" y="303.8" fill="#939598" width="3" height="8.2"/>
				</g>
				<g>
					<rect x="785" y="321" fill="#939598" width="3" height="8.2"/>
					<rect x="793.8" y="321" fill="#939598" width="3" height="8.2"/>
					<rect x="802.5" y="321" fill="#939598" width="3" height="8.2"/>
					<rect x="811.2" y="321" fill="#939598" width="3" height="8.2"/>
					<rect x="819.9" y="321" fill="#939598" width="3" height="8.2"/>
					<rect x="828.6" y="321" fill="#939598" width="3" height="8.2"/>
					<rect x="837.3" y="321" fill="#939598" width="3" height="8.2"/>
					<rect x="846" y="321" fill="#939598" width="3" height="8.2"/>
					<rect x="854.7" y="321" fill="#939598" width="3" height="8.2"/>
					<rect x="863.4" y="321" fill="#939598" width="3" height="8.2"/>
					<rect x="872.1" y="321" fill="#939598" width="3" height="8.2"/>
					<rect x="880.8" y="321" fill="#939598" width="3" height="8.2"/>
					<rect x="889.5" y="321" fill="#939598" width="3" height="8.2"/>
					<rect x="898.2" y="321" fill="#939598" width="3" height="8.2"/>
				</g>
				<g>
					<rect x="785" y="338.2" fill="#939598" width="3" height="8.2"/>
					<rect x="793.8" y="338.2" fill="#939598" width="3" height="8.2"/>
					<rect x="802.5" y="338.2" fill="#939598" width="3" height="8.2"/>
					<rect x="811.2" y="338.2" fill="#939598" width="3" height="8.2"/>
					<rect x="819.9" y="338.2" fill="#939598" width="3" height="8.2"/>
					<rect x="828.6" y="338.2" fill="#939598" width="3" height="8.2"/>
					<rect x="837.3" y="338.2" fill="#939598" width="3" height="8.2"/>
					<rect x="846" y="338.2" fill="#939598" width="3" height="8.2"/>
					<rect x="854.7" y="338.2" fill="#939598" width="3" height="8.2"/>
					<rect x="863.4" y="338.2" fill="#939598" width="3" height="8.2"/>
					<rect x="872.1" y="338.2" fill="#939598" width="3" height="8.2"/>
					<rect x="880.8" y="338.2" fill="#939598" width="3" height="8.2"/>
					<rect x="889.5" y="338.2" fill="#939598" width="3" height="8.2"/>
					<rect x="898.2" y="338.2" fill="#939598" width="3" height="8.2"/>
				</g>
				<g>
					<rect x="785" y="355.4" fill="#939598" width="3" height="8.2"/>
					<rect x="793.8" y="355.4" fill="#939598" width="3" height="8.2"/>
					<rect x="802.5" y="355.4" fill="#939598" width="3" height="8.2"/>
					<rect x="811.2" y="355.4" fill="#939598" width="3" height="8.2"/>
					<rect x="819.9" y="355.4" fill="#939598" width="3" height="8.2"/>
					<rect x="828.6" y="355.4" fill="#939598" width="3" height="8.2"/>
					<rect x="837.3" y="355.4" fill="#939598" width="3" height="8.2"/>
					<rect x="846" y="355.4" fill="#939598" width="3" height="8.2"/>
					<rect x="854.7" y="355.4" fill="#939598" width="3" height="8.2"/>
					<rect x="863.4" y="355.4" fill="#939598" width="3" height="8.2"/>
					<rect x="872.1" y="355.4" fill="#939598" width="3" height="8.2"/>
					<rect x="880.8" y="355.4" fill="#939598" width="3" height="8.2"/>
					<rect x="889.5" y="355.4" fill="#939598" width="3" height="8.2"/>
					<rect x="898.2" y="355.4" fill="#939598" width="3" height="8.2"/>
				</g>
				<g>
					<rect x="785" y="372.6" fill="#939598" width="3" height="8.2"/>
					<rect x="793.8" y="372.6" fill="#939598" width="3" height="8.2"/>
					<rect x="802.5" y="372.6" fill="#939598" width="3" height="8.2"/>
					<rect x="811.2" y="372.6" fill="#939598" width="3" height="8.2"/>
					<rect x="819.9" y="372.6" fill="#939598" width="3" height="8.2"/>
					<rect x="828.6" y="372.6" fill="#939598" width="3" height="8.2"/>
					<rect x="837.3" y="372.6" fill="#939598" width="3" height="8.2"/>
					<rect x="846" y="372.6" fill="#939598" width="3" height="8.2"/>
					<rect x="854.7" y="372.6" fill="#939598" width="3" height="8.2"/>
					<rect x="863.4" y="372.6" fill="#939598" width="3" height="8.2"/>
					<rect x="872.1" y="372.6" fill="#939598" width="3" height="8.2"/>
					<rect x="880.8" y="372.6" fill="#939598" width="3" height="8.2"/>
					<rect x="889.5" y="372.6" fill="#939598" width="3" height="8.2"/>
					<rect x="898.2" y="372.6" fill="#939598" width="3" height="8.2"/>
				</g>
				<g>
					<rect x="785" y="389.8" fill="#939598" width="3" height="8.2"/>
					<rect x="793.8" y="389.8" fill="#939598" width="3" height="8.2"/>
					<rect x="802.5" y="389.8" fill="#939598" width="3" height="8.2"/>
					<rect x="811.2" y="389.8" fill="#939598" width="3" height="8.2"/>
					<rect x="819.9" y="389.8" fill="#939598" width="3" height="8.2"/>
					<rect x="828.6" y="389.8" fill="#939598" width="3" height="8.2"/>
					<rect x="837.3" y="389.8" fill="#939598" width="3" height="8.2"/>
					<rect x="846" y="389.8" fill="#939598" width="3" height="8.2"/>
					<rect x="854.7" y="389.8" fill="#939598" width="3" height="8.2"/>
					<rect x="863.4" y="389.8" fill="#939598" width="3" height="8.2"/>
					<rect x="872.1" y="389.8" fill="#939598" width="3" height="8.2"/>
					<rect x="880.8" y="389.8" fill="#939598" width="3" height="8.2"/>
					<rect x="889.5" y="389.8" fill="#939598" width="3" height="8.2"/>
					<rect x="898.2" y="389.8" fill="#939598" width="3" height="8.2"/>
				</g>
				<g>
					<rect x="742.3" y="341.5" fill="#939598" width="3" height="8.2"/>
					<rect x="748.1" y="338.2" fill="#939598" width="3" height="8.2"/>
					<rect x="753.8" y="334.9" fill="#939598" width="3" height="8.2"/>
					<rect x="759.5" y="331.6" fill="#939598" width="3" height="8.2"/>
					<rect x="765.2" y="328.3" fill="#939598" width="3" height="8.2"/>
					<rect x="770.9" y="324.9" fill="#939598" width="3" height="8.2"/>
					<rect x="776.6" y="321.6" fill="#939598" width="3" height="8.2"/>
				</g>
				<g>
					<rect x="742.3" y="358.6" fill="#939598" width="3" height="8.2"/>
					<rect x="748.1" y="355.3" fill="#939598" width="3" height="8.2"/>
					<rect x="753.8" y="351.9" fill="#939598" width="3" height="8.2"/>
					<rect x="759.5" y="348.6" fill="#939598" width="3" height="8.2"/>
					<rect x="765.2" y="345.3" fill="#939598" width="3" height="8.2"/>
					<rect x="770.9" y="342" fill="#939598" width="3" height="8.2"/>
					<rect x="776.6" y="338.7" fill="#939598" width="3" height="8.2"/>
				</g>
				<g>
					<rect x="742.3" y="375.6" fill="#939598" width="3" height="8.2"/>
					<rect x="748.1" y="372.3" fill="#939598" width="3" height="8.2"/>
					<rect x="753.8" y="369" fill="#939598" width="3" height="8.2"/>
					<rect x="759.5" y="365.7" fill="#939598" width="3" height="8.2"/>
					<rect x="765.2" y="362.3" fill="#939598" width="3" height="8.2"/>
					<rect x="770.9" y="359" fill="#939598" width="3" height="8.2"/>
					<rect x="776.6" y="355.7" fill="#939598" width="3" height="8.2"/>
				</g>
				<g>
					<rect x="742.3" y="392.7" fill="#939598" width="3" height="8.2"/>
					<rect x="748.1" y="389.4" fill="#939598" width="3" height="8.2"/>
					<rect x="753.8" y="386" fill="#939598" width="3" height="8.2"/>
					<rect x="759.5" y="382.7" fill="#939598" width="3" height="8.2"/>
					<rect x="765.2" y="379.4" fill="#939598" width="3" height="8.2"/>
					<rect x="770.9" y="376.1" fill="#939598" width="3" height="8.2"/>
					<rect x="776.6" y="372.7" fill="#939598" width="3" height="8.2"/>
				</g>
				<g>
					<rect x="742.3" y="409.7" fill="#939598" width="3" height="8.2"/>
					<rect x="748.1" y="406.4" fill="#939598" width="3" height="8.2"/>
					<rect x="753.8" y="403.1" fill="#939598" width="3" height="8.2"/>
					<rect x="759.5" y="399.8" fill="#939598" width="3" height="8.2"/>
					<rect x="765.2" y="396.4" fill="#939598" width="3" height="8.2"/>
					<rect x="770.9" y="393.1" fill="#939598" width="3" height="8.2"/>
					<rect x="776.6" y="389.8" fill="#939598" width="3" height="8.2"/>
				</g>
			</g>
		</g>
		<g>
			<polygon fill="#E6E7E8" points="364.7,507.6 364.7,392 423.5,331.3 423.5,507.6 			"/>
			<g>
				<rect x="368.1" y="387.5" fill="#939598" width="2" height="122.5"/>
				<rect x="376.4" y="378.7" fill="#939598" width="2" height="133"/>
				<rect x="384.7" y="369.9" fill="#939598" width="2" height="143.4"/>
				<rect x="393" y="361.1" fill="#939598" width="2" height="153.9"/>
				<rect x="401.4" y="352.3" fill="#939598" width="2" height="164.3"/>
				<rect x="409.7" y="343.5" fill="#939598" width="2" height="174.8"/>
				<rect x="418" y="334.7" fill="#939598" width="2" height="185.2"/>
			</g>
		</g>
		<g>
			<polygon fill="#D1D3D4" points="702.1,507.6 702.1,325 730.7,303.7 730.7,234 757,234 757,171.3 782.2,171.3 782.2,507.6 			"/>
			<g>
				<rect x="704.9" y="327.2" fill="#939598" width="3" height="38.3"/>
				<rect x="712.7" y="321.7" fill="#939598" width="3" height="38.3"/>
				<rect x="720.4" y="316.3" fill="#939598" width="3" height="38.3"/>
				<rect x="728.1" y="310.9" fill="#939598" width="3" height="38.3"/>
			</g>
			<g>
				<rect x="733.9" y="240.1" fill="#939598" width="3" height="40.6"/>
				<rect x="740.7" y="240.1" fill="#939598" width="3" height="40.6"/>
				<rect x="747.5" y="240.1" fill="#939598" width="3" height="40.6"/>
				<rect x="754.3" y="240.1" fill="#939598" width="3" height="40.6"/>
			</g>
			<g>
				<rect x="761.6" y="176.9" fill="#939598" width="3" height="103.9"/>
				<rect x="769.1" y="176.9" fill="#939598" width="3" height="103.9"/>
				<rect x="776.6" y="176.9" fill="#939598" width="3" height="103.9"/>
			</g>
			<g>
				<rect x="761.6" y="286.8" fill="#939598" width="3" height="221.8"/>
				<rect x="769.1" y="286.8" fill="#939598" width="3" height="221.8"/>
				<rect x="776.6" y="286.8" fill="#939598" width="3" height="221.8"/>
			</g>
			<g>
				<rect x="733.9" y="285.9" fill="#939598" width="3" height="40.6"/>
				<rect x="740.7" y="285.9" fill="#939598" width="3" height="40.6"/>
				<rect x="747.5" y="285.9" fill="#939598" width="3" height="40.6"/>
				<rect x="754.3" y="285.9" fill="#939598" width="3" height="40.6"/>
			</g>
			<g>
				<rect x="733.9" y="331.8" fill="#939598" width="3" height="40.6"/>
				<rect x="740.7" y="331.8" fill="#939598" width="3" height="40.6"/>
				<rect x="747.5" y="331.8" fill="#939598" width="3" height="40.6"/>
				<rect x="754.3" y="331.8" fill="#939598" width="3" height="40.6"/>
			</g>
			<g>
				<rect x="733.9" y="377.7" fill="#939598" width="3" height="40.6"/>
				<rect x="740.7" y="377.7" fill="#939598" width="3" height="40.6"/>
				<rect x="747.5" y="377.7" fill="#939598" width="3" height="40.6"/>
				<rect x="754.3" y="377.7" fill="#939598" width="3" height="40.6"/>
			</g>
			<g>
				<rect x="733.9" y="423.5" fill="#939598" width="3" height="40.6"/>
				<rect x="740.7" y="423.5" fill="#939598" width="3" height="40.6"/>
				<rect x="747.5" y="423.5" fill="#939598" width="3" height="40.6"/>
				<rect x="754.3" y="423.5" fill="#939598" width="3" height="40.6"/>
			</g>
			<g>
				<rect x="733.9" y="469.4" fill="#939598" width="3" height="40.6"/>
				<rect x="740.7" y="469.4" fill="#939598" width="3" height="40.6"/>
				<rect x="747.5" y="469.4" fill="#939598" width="3" height="40.6"/>
				<rect x="754.3" y="469.4" fill="#939598" width="3" height="40.6"/>
			</g>
		</g>
		<g>
			<polygon fill="#D1D3D4" points="402,507.6 402,407.9 446.6,393.2 446.6,302.7 482.7,323.9 482.7,507.6 			"/>
			<g>
				<g>
					<rect x="407.6" y="411.9" fill="#939598" width="2" height="20.3"/>
					<rect x="413" y="410.2" fill="#939598" width="2" height="20.3"/>
					<rect x="418.4" y="408.4" fill="#939598" width="2" height="20.3"/>
					<rect x="423.9" y="406.7" fill="#939598" width="2" height="20.3"/>
					<rect x="429.3" y="404.9" fill="#939598" width="2" height="20.3"/>
					<rect x="434.8" y="403.2" fill="#939598" width="2" height="20.3"/>
					<rect x="440.2" y="401.5" fill="#939598" width="2" height="20.3"/>
				</g>
				<g>
					<rect x="407.6" y="437.1" fill="#939598" width="2" height="20.3"/>
					<rect x="413" y="435.3" fill="#939598" width="2" height="20.3"/>
					<rect x="418.4" y="433.6" fill="#939598" width="2" height="20.3"/>
					<rect x="423.9" y="431.8" fill="#939598" width="2" height="20.3"/>
					<rect x="429.3" y="430.1" fill="#939598" width="2" height="20.3"/>
					<rect x="434.8" y="428.4" fill="#939598" width="2" height="20.3"/>
					<rect x="440.2" y="426.6" fill="#939598" width="2" height="20.3"/>
				</g>
				<g>
					<rect x="407.6" y="462.2" fill="#939598" width="2" height="20.3"/>
					<rect x="413" y="460.5" fill="#939598" width="2" height="20.3"/>
					<rect x="418.4" y="458.7" fill="#939598" width="2" height="20.3"/>
					<rect x="423.9" y="457" fill="#939598" width="2" height="20.3"/>
					<rect x="429.3" y="455.3" fill="#939598" width="2" height="20.3"/>
					<rect x="434.8" y="453.5" fill="#939598" width="2" height="20.3"/>
					<rect x="440.2" y="451.8" fill="#939598" width="2" height="20.3"/>
				</g>
				<g>
					<rect x="407.6" y="487.4" fill="#939598" width="2" height="20.3"/>
					<rect x="413" y="485.6" fill="#939598" width="2" height="20.3"/>
					<rect x="418.4" y="483.9" fill="#939598" width="2" height="20.3"/>
					<rect x="423.9" y="482.2" fill="#939598" width="2" height="20.3"/>
					<rect x="429.3" y="480.4" fill="#939598" width="2" height="20.3"/>
					<rect x="434.8" y="478.7" fill="#939598" width="2" height="20.3"/>
					<rect x="440.2" y="476.9" fill="#939598" width="2" height="20.3"/>
				</g>
				<g>
					<rect x="407.6" y="512.5" fill="#939598" width="2" height="20.3"/>
					<rect x="413" y="510.8" fill="#939598" width="2" height="20.3"/>
					<rect x="418.4" y="509.1" fill="#939598" width="2" height="20.3"/>
					<rect x="423.9" y="507.3" fill="#939598" width="2" height="20.3"/>
					<rect x="429.3" y="505.6" fill="#939598" width="2" height="20.3"/>
					<rect x="434.8" y="503.8" fill="#939598" width="2" height="20.3"/>
					<rect x="440.2" y="502.1" fill="#939598" width="2" height="20.3"/>
				</g>
			</g>
			<polygon fill="#E6E7E8" points="458.1,524.6 482.7,518.7 482.7,323.9 446.6,302.7 446.6,528.4 			"/>
			<g>
				<rect x="450.7" y="312.8" fill="#939598" width="1" height="192.7"/>
				<rect x="455.3" y="315.1" fill="#939598" width="1" height="192.7"/>
				<rect x="459.9" y="317.5" fill="#939598" width="1" height="192.7"/>
				<rect x="464.5" y="319.8" fill="#939598" width="1" height="192.7"/>
				<rect x="469.1" y="322.2" fill="#939598" width="1" height="192.7"/>
				<rect x="473.7" y="324.5" fill="#939598" width="1" height="192.7"/>
				<rect x="478.3" y="326.9" fill="#939598" width="1" height="192.7"/>
			</g>
		</g>
		<g>
			<polygon fill="#E6E7E8" points="474.5,381.6 542.7,341.1 739.3,341.1 739.3,507.6 474.5,507.6 			"/>
			<polygon fill="#D1D3D4" points="542.7,341.1 542.7,523.6 474.5,507.6 474.5,381.6 			"/>
			<g>
				<g>
					<rect x="480.1" y="384.5" fill="#939598" width="3" height="12.9"/>
					<rect x="489.1" y="379.3" fill="#939598" width="3" height="12.9"/>
					<rect x="498.1" y="374" fill="#939598" width="3" height="12.9"/>
					<rect x="507.1" y="368.8" fill="#939598" width="3" height="12.9"/>
					<rect x="516.1" y="363.6" fill="#939598" width="3" height="12.9"/>
					<rect x="525.1" y="358.3" fill="#939598" width="3" height="12.9"/>
					<rect x="534.1" y="353.1" fill="#939598" width="3" height="12.9"/>
				</g>
				<g>
					<rect x="547.5" y="351.9" fill="#939598" width="3" height="12.9"/>
					<rect x="561.2" y="351.9" fill="#939598" width="3" height="12.9"/>
					<rect x="575" y="351.9" fill="#939598" width="3" height="12.9"/>
					<rect x="588.7" y="351.9" fill="#939598" width="3" height="12.9"/>
					<rect x="602.4" y="351.9" fill="#939598" width="3" height="12.9"/>
					<rect x="616.1" y="351.9" fill="#939598" width="3" height="12.9"/>
					<rect x="629.9" y="351.9" fill="#939598" width="3" height="12.9"/>
					<rect x="643.6" y="351.9" fill="#939598" width="3" height="12.9"/>
					<rect x="657.3" y="351.9" fill="#939598" width="3" height="12.9"/>
					<rect x="671.1" y="351.9" fill="#939598" width="3" height="12.9"/>
					<rect x="684.8" y="351.9" fill="#939598" width="3" height="12.9"/>
					<rect x="698.5" y="351.9" fill="#939598" width="3" height="12.9"/>
					<rect x="712.3" y="351.9" fill="#939598" width="3" height="12.9"/>
					<rect x="726" y="351.9" fill="#939598" width="3" height="12.9"/>
				</g>
				<g>
					<rect x="547.5" y="379" fill="#939598" width="3" height="12.9"/>
					<rect x="561.2" y="379" fill="#939598" width="3" height="12.9"/>
					<rect x="575" y="379" fill="#939598" width="3" height="12.9"/>
					<rect x="588.7" y="379" fill="#939598" width="3" height="12.9"/>
					<rect x="602.4" y="379" fill="#939598" width="3" height="12.9"/>
					<rect x="616.1" y="379" fill="#939598" width="3" height="12.9"/>
					<rect x="629.9" y="379" fill="#939598" width="3" height="12.9"/>
					<rect x="643.6" y="379" fill="#939598" width="3" height="12.9"/>
					<rect x="657.3" y="379" fill="#939598" width="3" height="12.9"/>
					<rect x="671.1" y="379" fill="#939598" width="3" height="12.9"/>
					<rect x="684.8" y="379" fill="#939598" width="3" height="12.9"/>
					<rect x="698.5" y="379" fill="#939598" width="3" height="12.9"/>
					<rect x="712.3" y="379" fill="#939598" width="3" height="12.9"/>
					<rect x="726" y="379" fill="#939598" width="3" height="12.9"/>
				</g>
				<g>
					<rect x="547.5" y="406.1" fill="#939598" width="3" height="12.9"/>
					<rect x="561.2" y="406.1" fill="#939598" width="3" height="12.9"/>
					<rect x="575" y="406.1" fill="#939598" width="3" height="12.9"/>
					<rect x="588.7" y="406.1" fill="#939598" width="3" height="12.9"/>
					<rect x="602.4" y="406.1" fill="#939598" width="3" height="12.9"/>
					<rect x="616.1" y="406.1" fill="#939598" width="3" height="12.9"/>
					<rect x="629.9" y="406.1" fill="#939598" width="3" height="12.9"/>
					<rect x="643.6" y="406.1" fill="#939598" width="3" height="12.9"/>
					<rect x="657.3" y="406.1" fill="#939598" width="3" height="12.9"/>
					<rect x="671.1" y="406.1" fill="#939598" width="3" height="12.9"/>
					<rect x="684.8" y="406.1" fill="#939598" width="3" height="12.9"/>
					<rect x="698.5" y="406.1" fill="#939598" width="3" height="12.9"/>
					<rect x="712.3" y="406.1" fill="#939598" width="3" height="12.9"/>
					<rect x="726" y="406.1" fill="#939598" width="3" height="12.9"/>
				</g>
				<g>
					<rect x="547.5" y="433.2" fill="#939598" width="3" height="12.9"/>
					<rect x="561.2" y="433.2" fill="#939598" width="3" height="12.9"/>
					<rect x="575" y="433.2" fill="#939598" width="3" height="12.9"/>
					<rect x="588.7" y="433.2" fill="#939598" width="3" height="12.9"/>
					<rect x="602.4" y="433.2" fill="#939598" width="3" height="12.9"/>
					<rect x="616.1" y="433.2" fill="#939598" width="3" height="12.9"/>
					<rect x="629.9" y="433.2" fill="#939598" width="3" height="12.9"/>
					<rect x="643.6" y="433.2" fill="#939598" width="3" height="12.9"/>
					<rect x="657.3" y="433.2" fill="#939598" width="3" height="12.9"/>
					<rect x="671.1" y="433.2" fill="#939598" width="3" height="12.9"/>
					<rect x="684.8" y="433.2" fill="#939598" width="3" height="12.9"/>
					<rect x="698.5" y="433.2" fill="#939598" width="3" height="12.9"/>
					<rect x="712.3" y="433.2" fill="#939598" width="3" height="12.9"/>
					<rect x="726" y="433.2" fill="#939598" width="3" height="12.9"/>
				</g>
				<g>
					<rect x="547.5" y="460.3" fill="#939598" width="3" height="12.9"/>
					<rect x="561.2" y="460.3" fill="#939598" width="3" height="12.9"/>
					<rect x="575" y="460.3" fill="#939598" width="3" height="12.9"/>
					<rect x="588.7" y="460.3" fill="#939598" width="3" height="12.9"/>
					<rect x="602.4" y="460.3" fill="#939598" width="3" height="12.9"/>
					<rect x="616.1" y="460.3" fill="#939598" width="3" height="12.9"/>
					<rect x="629.9" y="460.3" fill="#939598" width="3" height="12.9"/>
					<rect x="643.6" y="460.3" fill="#939598" width="3" height="12.9"/>
					<rect x="657.3" y="460.3" fill="#939598" width="3" height="12.9"/>
					<rect x="671.1" y="460.3" fill="#939598" width="3" height="12.9"/>
					<rect x="684.8" y="460.3" fill="#939598" width="3" height="12.9"/>
					<rect x="698.5" y="460.3" fill="#939598" width="3" height="12.9"/>
					<rect x="712.3" y="460.3" fill="#939598" width="3" height="12.9"/>
					<rect x="726" y="460.3" fill="#939598" width="3" height="12.9"/>
				</g>
				<g>
					<rect x="547.5" y="487.4" fill="#939598" width="3" height="12.9"/>
					<rect x="561.2" y="487.4" fill="#939598" width="3" height="12.9"/>
					<rect x="575" y="487.4" fill="#939598" width="3" height="12.9"/>
					<rect x="588.7" y="487.4" fill="#939598" width="3" height="12.9"/>
					<rect x="602.4" y="487.4" fill="#939598" width="3" height="12.9"/>
					<rect x="616.1" y="487.4" fill="#939598" width="3" height="12.9"/>
					<rect x="629.9" y="487.4" fill="#939598" width="3" height="12.9"/>
					<rect x="643.6" y="487.4" fill="#939598" width="3" height="12.9"/>
					<rect x="657.3" y="487.4" fill="#939598" width="3" height="12.9"/>
					<rect x="671.1" y="487.4" fill="#939598" width="3" height="12.9"/>
					<rect x="684.8" y="487.4" fill="#939598" width="3" height="12.9"/>
					<rect x="698.5" y="487.4" fill="#939598" width="3" height="12.9"/>
					<rect x="712.3" y="487.4" fill="#939598" width="3" height="12.9"/>
					<rect x="726" y="487.4" fill="#939598" width="3" height="12.9"/>
				</g>
				<g>
					<rect x="480.1" y="411.4" fill="#939598" width="3" height="12.9"/>
					<rect x="489.1" y="406.2" fill="#939598" width="3" height="12.9"/>
					<rect x="498.1" y="400.9" fill="#939598" width="3" height="12.9"/>
					<rect x="507.1" y="395.7" fill="#939598" width="3" height="12.9"/>
					<rect x="516.1" y="390.4" fill="#939598" width="3" height="12.9"/>
					<rect x="525.1" y="385.2" fill="#939598" width="3" height="12.9"/>
					<rect x="534.1" y="380" fill="#939598" width="3" height="12.9"/>
				</g>
				<g>
					<rect x="480.1" y="438.3" fill="#939598" width="3" height="12.9"/>
					<rect x="489.1" y="433" fill="#939598" width="3" height="12.9"/>
					<rect x="498.1" y="427.8" fill="#939598" width="3" height="12.9"/>
					<rect x="507.1" y="422.6" fill="#939598" width="3" height="12.9"/>
					<rect x="516.1" y="417.3" fill="#939598" width="3" height="12.9"/>
					<rect x="525.1" y="412.1" fill="#939598" width="3" height="12.9"/>
					<rect x="534.1" y="406.8" fill="#939598" width="3" height="12.9"/>
				</g>
				<g>
					<rect x="480.1" y="465.2" fill="#939598" width="3" height="12.9"/>
					<rect x="489.1" y="459.9" fill="#939598" width="3" height="12.9"/>
					<rect x="498.1" y="454.7" fill="#939598" width="3" height="12.9"/>
					<rect x="507.1" y="449.4" fill="#939598" width="3" height="12.9"/>
					<rect x="516.1" y="444.2" fill="#939598" width="3" height="12.9"/>
					<rect x="525.1" y="439" fill="#939598" width="3" height="12.9"/>
					<rect x="534.1" y="433.7" fill="#939598" width="3" height="12.9"/>
				</g>
				<g>
					<rect x="480.1" y="492" fill="#939598" width="3" height="12.9"/>
					<rect x="489.1" y="486.8" fill="#939598" width="3" height="12.9"/>
					<rect x="498.1" y="481.6" fill="#939598" width="3" height="12.9"/>
					<rect x="507.1" y="476.3" fill="#939598" width="3" height="12.9"/>
					<rect x="516.1" y="471.1" fill="#939598" width="3" height="12.9"/>
					<rect x="525.1" y="465.8" fill="#939598" width="3" height="12.9"/>
					<rect x="534.1" y="460.6" fill="#939598" width="3" height="12.9"/>
				</g>
				<g>
					<rect x="480.1" y="518.9" fill="#939598" width="3" height="12.9"/>
					<rect x="489.1" y="513.7" fill="#939598" width="3" height="12.9"/>
					<rect x="498.1" y="508.4" fill="#939598" width="3" height="12.9"/>
					<rect x="507.1" y="503.2" fill="#939598" width="3" height="12.9"/>
					<rect x="516.1" y="498" fill="#939598" width="3" height="12.9"/>
					<rect x="525.1" y="492.7" fill="#939598" width="3" height="12.9"/>
					<rect x="534.1" y="487.5" fill="#939598" width="3" height="12.9"/>
				</g>
			</g>
		</g>
	</g>
</g>
<path fill="#573392" d="M950.3,297.7l-30.4-17.4c-3.1-1.8-7.1-0.7-8.9,2.4c-1.8,3.1-0.7,7.1,2.4,8.9l16.7,9.5l-79.5,26.2
	c-2.7,0.9-4.5,3.4-4.5,6.2v52H702.1c-3.6,0-6.5,2.9-6.5,6.5v62.8H433.1c-3.6,0-6.5,2.9-6.5,6.5v39.7H6.5c-3.6,0-6.5,2.9-6.5,6.5
	s2.9,6.5,6.5,6.5h426.6c3.6,0,6.5-2.9,6.5-6.5v-39.7h262.4c3.6,0,6.5-2.9,6.5-6.5v-62.8h144.1c3.6,0,6.5-2.9,6.5-6.5v-53.8
	l74.6-24.6l-10.6,18.5c-1.8,3.1-0.7,7.1,2.4,8.9c1,0.6,2.1,0.9,3.2,0.9c2.3,0,4.5-1.2,5.7-3.3l18.3-32.1
	C954.5,303.5,953.5,299.5,950.3,297.7z"/>
<g>
</g>
<g>
</g>
<g>
</g>
<g>
</g>
<g>
</g>
<g>
</g>
<g>
</g>
<g>
</g>
<g>
</g>
<g>
</g>
<g>
</g>
<g>
</g>
<g>
</g>
<g>
</g>
<g>
</g>
</svg>
