<?xml version="1.0" encoding="utf-8"?>
<!-- Generator: Adobe Illustrator 18.0.0, SVG Export Plug-In . SVG Version: 6.00 Build 0)  -->
<!DOCTYPE svg PUBLIC "-//W3C//DTD SVG 1.1//EN" "http://www.w3.org/Graphics/SVG/1.1/DTD/svg11.dtd">
<svg version="1.1" id="Layer_1" xmlns="http://www.w3.org/2000/svg" xmlns:xlink="http://www.w3.org/1999/xlink" x="0px" y="0px"
	 viewBox="0 0 1252.2 977.3" enable-background="new 0 0 1252.2 977.3" xml:space="preserve">
<g>
	<g>
		<path fill="#2368B5" d="M621.6,289.6L621.6,289.6L621.6,289.6c-2.4,1.3-4.4,3.3-5.7,5.7l0,0l0,0c-1.3-2.4-3.3-4.4-5.7-5.7l0,0l0,0
			c2.4-1.3,4.4-3.3,5.7-5.7l0,0l0,0C617.2,286.3,619.2,288.2,621.6,289.6z"/>
		<rect x="615.8" y="280.4" fill="#2368B5" width="0.3" height="18.3"/>
		<rect x="606.8" y="289.4" fill="#2368B5" width="18.3" height="0.3"/>
	</g>
	<g>
		<path fill="#2368B5" d="M934.6,362.6L934.6,362.6L934.6,362.6c-2.4,1.3-4.4,3.3-5.7,5.7v0v0c-1.3-2.4-3.3-4.4-5.7-5.7l0,0l0,0
			c2.4-1.3,4.4-3.3,5.7-5.7l0,0l0,0C930.2,359.3,932.2,361.3,934.6,362.6z"/>
		<rect x="928.8" y="353.5" fill="#2368B5" width="0.3" height="18.3"/>
		<rect x="919.8" y="362.5" fill="#2368B5" width="18.3" height="0.3"/>
	</g>
	<g>
		<path fill="#2368B5" d="M70.9,646.8L70.9,646.8L70.9,646.8c-3.3,1.8-6,4.5-7.9,7.9l0,0h0c-1.8-3.3-4.5-6-7.9-7.9h0h0
			c3.3-1.8,6-4.5,7.9-7.9h0l0,0C64.8,642.3,67.5,645,70.9,646.8z"/>
		<rect x="62.9" y="634.2" fill="#2368B5" width="0.3" height="25.3"/>
		<rect x="50.3" y="646.7" fill="#2368B5" width="25.3" height="0.3"/>
	</g>
	<g>
		<circle fill="#2368B5" cx="245.7" cy="97.9" r="2.2"/>
		<circle fill="#2368B5" cx="235.5" cy="68.3" r="2.8"/>
		<circle fill="#2368B5" cx="294.8" cy="120.9" r="2.8"/>
		<circle fill="#2368B5" cx="629.1" cy="808.7" r="2.8"/>
		<circle fill="#2368B5" cx="184.4" cy="85.6" r="4.4"/>
		<circle fill="#2368B5" cx="540.8" cy="813.5" r="5.6"/>
		<circle fill="#2368B5" cx="5.6" cy="606.1" r="5.6"/>
		<circle fill="#2368B5" cx="106.8" cy="72.1" r="1.4"/>
		<circle fill="#2368B5" cx="1077" cy="374" r="1.4"/>
		<circle fill="#2368B5" cx="975.6" cy="827.9" r="1.4"/>
		<circle fill="#2368B5" cx="1111" cy="461.5" r="1.4"/>
		<circle fill="#2368B5" cx="1250.8" cy="412.3" r="1.4"/>
		<circle fill="#2368B5" cx="154.9" cy="1.4" r="1.4"/>
		<circle fill="#2368B5" cx="163" cy="754.1" r="1.4"/>
		<circle fill="#2368B5" cx="276.1" cy="714.8" r="1.4"/>
		<circle fill="#2368B5" cx="184.8" cy="785.4" r="1.4"/>
		<circle fill="#2368B5" cx="740" cy="975.9" r="1.4"/>
		<circle fill="#2368B5" cx="333.8" cy="807" r="1.4"/>
		<circle fill="#2368B5" cx="449.9" cy="753.1" r="1.4"/>
		<circle fill="#2368B5" cx="159.2" cy="864.9" r="1.4"/>
		<circle fill="#2368B5" cx="220" cy="829.5" r="1.4"/>
		<circle fill="#2368B5" cx="1138.3" cy="385.4" r="3.7"/>
		<circle fill="#2368B5" cx="1173.6" cy="314.8" r="5.6"/>
		<circle fill="#2368B5" cx="247.9" cy="782.1" r="5.6"/>
		<circle fill="#2368B5" cx="447.1" cy="800.9" r="5.6"/>
		<circle fill="#2368B5" cx="323.6" cy="750.5" r="5.6"/>
		<circle fill="#2368B5" cx="1181.1" cy="384" r="1.4"/>
		<circle fill="#2368B5" cx="1188.6" cy="420.6" r="1.4"/>
		<circle fill="#2368B5" cx="1160" cy="445.9" r="1.4"/>
		<circle fill="#2368B5" cx="1078.1" cy="429.7" r="1.4"/>
		<circle fill="#2368B5" cx="623.3" cy="789.8" r="1.4"/>
		<circle fill="#2368B5" cx="653.6" cy="871.6" r="5.6"/>
		<circle fill="#2368B5" cx="293.4" cy="797" r="1.4"/>
	</g>
	<circle fill="#2368B5" cx="683.5" cy="280.2" r="21.7"/>
	<circle fill="#F6A822" cx="866.9" cy="586.4" r="55"/>
	<g>
		<path fill="none" stroke="#032360" stroke-miterlimit="10" d="M988.5,755c-33.4,23.5-74.2,37.2-118.1,37.2
			c-113.7,0-205.9-92.2-205.9-205.9c0-5.7,0.2-11.3,0.7-16.8"/>
		<path fill="none" stroke="#032360" stroke-miterlimit="10" d="M813.7,388.2c14.9-5,40.9-7.7,56.7-7.7
			c108.8,0,197.9,84.4,205.4,191.3"/>
	</g>
	<circle fill="#C42A5E" cx="350" cy="419.1" r="55"/>
	<g>
		<path fill="none" stroke="#032360" stroke-miterlimit="10" d="M545.4,354c6.8,20.5,10.5,42.4,10.5,65.1
			c0,113.7-92.2,205.9-205.9,205.9c-52.2,0-99.9-19.4-136.2-51.4"/>
		<path fill="none" stroke="#032360" stroke-miterlimit="10" d="M158.4,343.6c30.1-76.4,104.5-130.5,191.6-130.5
			c22.9,0,44.9,3.7,65.4,10.6"/>
	</g>
	<circle fill="none" stroke="#032360" stroke-miterlimit="10" cx="350" cy="419.1" r="90.1"/>
	<circle fill="none" stroke="#032360" stroke-miterlimit="10" cx="866.9" cy="586.4" r="88.4"/>
	<circle fill="#C42A5E" cx="405.2" cy="492.7" r="14.8"/>
	<circle fill="#F6A822" cx="894.1" cy="499.7" r="14.8"/>
</g>
<g>
</g>
<g>
</g>
<g>
</g>
<g>
</g>
<g>
</g>
<g>
</g>
<g>
</g>
<g>
</g>
<g>
</g>
<g>
</g>
<g>
</g>
<g>
</g>
<g>
</g>
<g>
</g>
<g>
</g>
</svg>
