<?xml version="1.0" encoding="utf-8"?>
<!-- Generator: Adobe Illustrator 18.0.0, SVG Export Plug-In . SVG Version: 6.00 Build 0)  -->
<!DOCTYPE svg PUBLIC "-//W3C//DTD SVG 1.1//EN" "http://www.w3.org/Graphics/SVG/1.1/DTD/svg11.dtd">
<svg version="1.1" id="Layer_1" xmlns="http://www.w3.org/2000/svg" xmlns:xlink="http://www.w3.org/1999/xlink" x="0px" y="0px"
	 viewBox="0 0 1321 402.5" enable-background="new 0 0 1321 402.5" xml:space="preserve">
<g opacity="0.3">
	<g opacity="0.3">
		<g>
			<path fill="#D1D3D4" d="M1321,94c-55.4-32.6-140.9-27.9-181.3,5.8c-40.5,33.8-40.5,92-136.4,99c-95.9,7-103.4-8.2-175.3,26.8
				s-131.9-10.5-227.8,48.9S486.3,402.5,486.3,402.5h827.2L1321,94z"/>
		</g>
	</g>
	<g opacity="0.3">
		<g>
			<path fill="#D1D3D4" d="M0,31.6C61.6-15,156.5-8.3,201.4,40s44.9,131.5,151.5,141.5c106.5,10,114.9-11.7,194.8,38.3
				s146.5-15,253,69.9s126.5,112.1,126.5,112.1H8.3L0,31.6z"/>
		</g>
	</g>
</g>
<g>
</g>
<g>
</g>
<g>
</g>
<g>
</g>
<g>
</g>
<g>
</g>
<g>
</g>
<g>
</g>
<g>
</g>
<g>
</g>
<g>
</g>
<g>
</g>
<g>
</g>
<g>
</g>
<g>
</g>
</svg>
