<?xml version="1.0" encoding="utf-8"?>
<!-- Generator: Adobe Illustrator 18.0.0, SVG Export Plug-In . SVG Version: 6.00 Build 0)  -->
<!DOCTYPE svg PUBLIC "-//W3C//DTD SVG 1.1//EN" "http://www.w3.org/Graphics/SVG/1.1/DTD/svg11.dtd">
<svg version="1.1" id="Layer_1" xmlns="http://www.w3.org/2000/svg" xmlns:xlink="http://www.w3.org/1999/xlink" x="0px" y="0px"
	 viewBox="0 0 853.4 360.4" enable-background="new 0 0 853.4 360.4" xml:space="preserve">
<g>
	<g>
		<path fill="#E6E7E8" d="M207.3,291.5v-148C109.5,150,34.5,160.8,0,173.8l0,148C34.5,308.9,109.5,298.1,207.3,291.5z"/>
		<path fill="#E6E7E8" d="M422.6,284.5v-148c-75,0.2-145.5,2.5-207.3,6.5v148C277.2,287,347.7,284.6,422.6,284.5z"/>
		<path fill="#E6E7E8" d="M638,290.4v-148c-62-3.8-132.3-5.9-206.9-5.9h-0.4v148h0.4C505.7,284.5,576,286.6,638,290.4z"/>
		<path fill="#E6E7E8" d="M853.4,318.8V178.1c-38.8-12-112.9-29.2-207.3-35.2v148C740.5,296.9,814.6,306.8,853.4,318.8z"/>
	</g>
	<g>
		<path fill="#032360" d="M374.6,50.9c-20.3,15.6-21.7,29.7-45.9,48.5c-35.9,27.8-89.5-2.7-89.5-2.7l-7.5,15.6
			c0,0,67.8,51.5,127.5,30.5s44.8-38,44.8-38L374.6,50.9z"/>
		<g>
			<polygon fill="#E6E7E8" points="240,97.3 224.4,85.9 216.1,105.7 237.1,119 			"/>
			<polygon fill="#E6E7E8" points="224.4,85.9 212.8,68.9 208,71.4 223.3,91.2 225.1,89.4 			"/>
			<path fill="#E6E7E8" d="M220.5,95.6c-0.9-0.3-11.1-8.5-11.1-8.5L200,71.4l4.6-2.5l8.1,15.9l10.6,6.3L220.5,95.6z"/>
			<path fill="#E6E7E8" d="M219.4,100.8c-0.4-0.7-11.5-8.6-11.5-8.6l-4.7-12.8l2.5-1.6l3.8,9.3l11.1,8.5L219.4,100.8z"/>
			<path fill="#E6E7E8" d="M216.1,105.7c-1.4-0.2-7.1-9.3-7.1-9.3l-1.6-6.8l2-2.4l3.7,9.6l6.3,4.1L216.1,105.7z"/>
			<polygon fill="#E6E7E8" points="240,97.3 232.1,82.3 228.2,85 229.6,91.5 			"/>
			<path fill="#E6E7E8" d="M232.1,82.3c0,0-4.2-6.2-4.7-6s-3.4,1.1-3.4,1.1l2.1,3.3l2.2,4.3l2.6,0.6L232.1,82.3z"/>
		</g>
		<g>
			<path fill="#BCBEC0" d="M135.9,71.4c-13.5,6.3-17.7,51.6-12,65.6c5.7,14.1,18.2,28.7,18.2,28.7l44.4-55.9l4-55L135.9,71.4z"/>
			<path fill="#F1F2F2" d="M135.9,71.4c16.8-0.6,40,48.6,64.1,80.8l29.2,46.4c0,0,17.7-24,34.9-38C250,118.3,210.7,58.4,190.6,54.8
				L135.9,71.4z"/>
			<polyline fill="none" stroke="#0C56AB" stroke-miterlimit="10" points="175.1,106.4 176.2,96 195.2,110.3 190.7,91.6 198.1,95.7 
				200.6,87.2 208,90.6 208.8,84.5 			"/>
			<line fill="none" stroke="#0C56AB" stroke-width="3" stroke-miterlimit="10" x1="191.7" y1="125.9" x2="215.5" y2="110.7"/>
			<line fill="none" stroke="#AED581" stroke-width="3" stroke-miterlimit="10" x1="194.2" y1="129.9" x2="227.9" y2="108.3"/>
			<line fill="none" stroke="#F79ABB" stroke-width="3" stroke-miterlimit="10" x1="196.8" y1="133.8" x2="226.2" y2="115.1"/>
			<line fill="none" stroke="#C12B5D" stroke-width="3" stroke-miterlimit="10" x1="199.3" y1="137.8" x2="217.8" y2="126.4"/>
			<line fill="none" stroke="#D1D3D4" stroke-width="0.75" stroke-miterlimit="10" x1="163.3" y1="87.2" x2="201.3" y2="66"/>
			<line fill="none" stroke="#D1D3D4" stroke-width="0.75" stroke-miterlimit="10" x1="164.9" y1="89.2" x2="202.9" y2="68"/>
			<line fill="none" stroke="#D1D3D4" stroke-width="0.75" stroke-miterlimit="10" x1="166.5" y1="91.2" x2="204.4" y2="70"/>
			<line fill="none" stroke="#D1D3D4" stroke-width="0.75" stroke-miterlimit="10" x1="168.1" y1="93.2" x2="206" y2="72"/>
			<line fill="none" stroke="#D1D3D4" stroke-width="0.75" stroke-miterlimit="10" x1="176.1" y1="107" x2="213.7" y2="84.2"/>
			<polyline fill="none" stroke="#0C56AB" stroke-miterlimit="10" points="165.8,93.8 165.5,74.5 176.4,86.8 176.6,78.7 181.4,81.4 
				180.7,65.4 194.6,75.7 192.4,66.9 199.5,73.2 			"/>
			<line fill="none" stroke="#D1D3D4" stroke-width="0.75" stroke-miterlimit="10" x1="187.2" y1="122.1" x2="204.2" y2="147.9"/>
			<line fill="none" stroke="#D1D3D4" stroke-width="0.75" stroke-miterlimit="10" x1="204.2" y1="147.9" x2="240.4" y2="122.1"/>
		</g>
		<g>
			<polygon fill="#E6E7E8" points="281.7,17 282.1,33.4 307.8,87.4 320.8,72.3 333.9,83.4 376.7,47.6 324.4,7.6 			"/>
			<path fill="#032360" d="M344.4,21.8c-1.7-8.1-11.2-24.2-31.2-21.5c-20,2.7-32.2,15.4-40.4,14.1c0,0,8.3,8,24.8,3.3
				c16.4-4.7,34.7,5.4,34.3,7.4L344.4,21.8z"/>
			<polygon fill="#E6E7E8" points="288.7,46 290.2,64.1 298.6,61.1 			"/>
			<path fill="#E6E7E8" d="M331.3,26.1c0.4-3.8,4.8-5.8,7.6-3.5c2.8,2.3,5,9.1,2.1,10.2c-2.8,1-4.8-0.1-4.8-0.1"/>
		</g>
		<path fill="#032360" d="M375,43.7c52.5,49.8,70,148.8,40.5,258.1L279,299.2c31.6-63.2,58.4-133.4,54.9-215.8L375,43.7z"/>
		<path fill="#032360" d="M373,55.7c-25.7,19.7-40.5,49.2-71.2,72.9c-45.5,35.2-113.3-3.4-113.3-3.4l-9.4,19.7
			c0,0,85.8,65.2,161.3,38.6s56.6-48.1,56.6-48.1L373,55.7z"/>
		<g>
			<ellipse fill="#032360" cx="335.8" cy="26.1" rx="6.1" ry="5.9"/>
			<ellipse fill="#0C56AB" cx="335.8" cy="26.1" rx="3.8" ry="3.7"/>
		</g>
		<path fill="none" stroke="#0C56AB" stroke-miterlimit="10" d="M335.1,29c0.7,5.8-6.5,29.8-18.4,33.8"/>
		<circle fill="#032360" cx="316.7" cy="62.8" r="3.3"/>
		<g>
			<polygon fill="#E6E7E8" points="188.5,125.2 177.1,109.5 163.1,125.8 179,144.9 			"/>
			<polygon fill="#E6E7E8" points="177.1,109.5 171.3,89.8 166,90.7 174.4,114.2 176.7,113.1 			"/>
			<path fill="#E6E7E8" d="M170.4,117.6c-0.8-0.6-8-11.6-8-11.6l-4.2-17.8l5.1-0.9l2.8,17.6l8.1,9.3L170.4,117.6z"/>
			<path fill="#E6E7E8" d="M167.8,122.2c-0.2-0.8-8.3-11.7-8.3-11.7l-0.6-13.6l2.8-0.8l0.8,10l8,11.6L167.8,122.2z"/>
			<path fill="#E6E7E8" d="M163.1,125.8c-1.2-0.7-3.9-11.1-3.9-11.1l0.6-7l2.7-1.7l0.6,10.2l4.7,5.9L163.1,125.8z"/>
			<polygon fill="#E6E7E8" points="188.5,125.2 185.6,108.5 181,109.8 180.3,116.5 			"/>
			<path fill="#E6E7E8" d="M185.6,108.5c0,0-2.1-7.2-2.7-7.2c-0.6,0-3.6,0-3.6,0l0.9,3.8l0.8,4.7l2.3,1.3L185.6,108.5z"/>
		</g>
		<g>
			<path fill="#0C56AB" d="M282,139.1c3-1.5,6-3.2,9-4.8c3-1.6,5.9-3.3,8.9-5c5.9-3.4,11.7-6.9,17.3-10.7
				c5.7-3.7,11.2-7.6,16.6-11.8l3.9-3.2l3.8-3.4c1.2-1.2,2.4-2.4,3.6-3.6c1.1-1.2,2.2-2.6,3.3-3.8c-3.9,5.6-9,10.3-14.2,14.6
				c-5.3,4.3-10.8,8.2-16.5,12c-5.7,3.7-11.5,7.2-17.5,10.5C294.2,133.2,288.2,136.3,282,139.1z"/>
		</g>
		<g>
			<path fill="#0C56AB" d="M320.9,188.3c3.9-0.6,7.7-1.7,11.4-3c3.7-1.3,7.4-2.7,11-4.3c7.2-3.1,14.3-6.5,21.4-10
				c7.1-3.4,14.2-6.8,21.5-9.8c3.7-1.5,7.4-2.8,11.2-3.9c1.9-0.5,3.8-0.9,5.8-1.1c2-0.2,4-0.2,5.9,0.3c-1.9-0.5-3.9-0.3-5.9-0.1
				c-1.9,0.3-3.8,0.8-5.7,1.3c-3.8,1.1-7.4,2.6-11,4.1c-7.2,3.1-14.3,6.5-21.4,10c-7.1,3.4-14.2,6.8-21.5,9.8
				C336.3,184.6,328.8,187.4,320.9,188.3z"/>
		</g>
	</g>
	<g>
		<path fill="#032360" d="M475.5,47.9c19,14.6,20.2,27.7,42.9,45.3c33.6,26,83.6-2.5,83.6-2.5l7,14.6c0,0-63.3,48.1-119.1,28.5
			S448,98.3,448,98.3L475.5,47.9z"/>
		<g>
			<polygon fill="#E6E7E8" points="601.1,91.3 615.8,80.6 623.5,99.2 603.8,111.6 			"/>
			<polygon fill="#E6E7E8" points="615.8,80.6 626.6,64.7 631,67.1 616.8,85.6 615.1,83.9 			"/>
			<path fill="#E6E7E8" d="M619.3,89.7c0.8-0.3,10.4-8,10.4-8l8.8-14.6l-4.3-2.3l-7.6,14.8l-9.9,5.9L619.3,89.7z"/>
			<path fill="#E6E7E8" d="M620.4,94.5c0.4-0.6,10.8-8,10.8-8l4.4-12l-2.3-1.5l-3.6,8.7l-10.4,8L620.4,94.5z"/>
			<path fill="#E6E7E8" d="M623.5,99.2c1.3-0.2,6.6-8.7,6.6-8.7l1.5-6.4l-1.9-2.3l-3.4,8.9l-5.9,3.9L623.5,99.2z"/>
			<polygon fill="#E6E7E8" points="601.1,91.3 608.5,77.3 612.1,79.8 610.9,85.9 			"/>
			<path fill="#E6E7E8" d="M608.5,77.3c0,0,3.9-5.8,4.4-5.6s3.2,1,3.2,1l-1.9,3.1l-2,4l-2.4,0.5L608.5,77.3z"/>
		</g>
		<g>
			<path fill="#BCBEC0" d="M698.4,67.1c12.7,5.8,16.5,48.2,11.2,61.3c-5.4,13.1-17,26.8-17,26.8L651.1,103l-3.8-51.4L698.4,67.1z"/>
			<path fill="#F1F2F2" d="M698.4,67.1c-15.7-0.6-37.4,45.4-59.9,75.4l-27.3,43.3c0,0-16.5-22.4-32.6-35.5
				c13.1-39.4,49.8-95.4,68.6-98.8L698.4,67.1z"/>
			<polyline fill="none" stroke="#0C56AB" stroke-miterlimit="10" points="661.8,99.8 660.7,90 642.9,103.5 647.2,86 640.3,89.8 
				638,81.9 631,85.1 630.3,79.3 			"/>
			<line fill="none" stroke="#0C56AB" stroke-width="3" stroke-miterlimit="10" x1="646.3" y1="118" x2="624.1" y2="103.8"/>
			<line fill="none" stroke="#AED581" stroke-width="3" stroke-miterlimit="10" x1="643.9" y1="121.7" x2="612.4" y2="101.6"/>
			<line fill="none" stroke="#F79ABB" stroke-width="3" stroke-miterlimit="10" x1="641.5" y1="125.4" x2="614.1" y2="107.9"/>
			<line fill="none" stroke="#C12B5D" stroke-width="3" stroke-miterlimit="10" x1="639.1" y1="129.1" x2="621.9" y2="118.5"/>
			<line fill="none" stroke="#D1D3D4" stroke-width="0.75" stroke-miterlimit="10" x1="672.7" y1="81.9" x2="637.3" y2="62.1"/>
			<line fill="none" stroke="#D1D3D4" stroke-width="0.75" stroke-miterlimit="10" x1="671.3" y1="83.8" x2="635.8" y2="64"/>
			<line fill="none" stroke="#D1D3D4" stroke-width="0.75" stroke-miterlimit="10" x1="669.8" y1="85.6" x2="634.4" y2="65.8"/>
			<line fill="none" stroke="#D1D3D4" stroke-width="0.75" stroke-miterlimit="10" x1="668.3" y1="87.5" x2="632.9" y2="67.7"/>
			<line fill="none" stroke="#D1D3D4" stroke-width="0.75" stroke-miterlimit="10" x1="660.9" y1="100.4" x2="625.8" y2="79.1"/>
			<polyline fill="none" stroke="#0C56AB" stroke-miterlimit="10" points="670.4,88 670.7,70.1 660.5,81.5 660.4,73.9 655.9,76.4 
				656.5,61.5 643.6,71.1 645.6,62.9 639,68.8 			"/>
			<line fill="none" stroke="#D1D3D4" stroke-width="0.75" stroke-miterlimit="10" x1="650.4" y1="114.4" x2="634.6" y2="138.5"/>
			<line fill="none" stroke="#D1D3D4" stroke-width="0.75" stroke-miterlimit="10" x1="634.6" y1="138.5" x2="600.7" y2="114.4"/>
		</g>
		<g>
			<polygon fill="#E6E7E8" points="562.2,16.3 561.8,31.6 537.8,82 525.7,67.9 513.4,78.3 473.4,44.8 522.3,7.5 			"/>
			<path fill="#032360" d="M503.6,20.8c1.6-7.6,10.5-22.6,29.2-20.1s30.1,14.4,37.8,13.2c0,0-7.8,7.4-23.1,3.1
				c-15.4-4.4-32.4,5-32,6.9L503.6,20.8z"/>
			<polygon fill="#E6E7E8" points="555.6,43.4 554.2,60.3 546.4,57.5 			"/>
			<path fill="#E6E7E8" d="M515.8,24.8c-0.4-3.6-4.5-5.5-7.1-3.3c-2.6,2.2-4.6,8.5-2,9.5s4.5-0.1,4.5-0.1"/>
		</g>
		<path fill="#032360" d="M475.1,41.2c-49,46.5-65.4,139-37.8,241.1l127.5-2.4c-29.5-59.1-54.5-124.6-51.3-201.6L475.1,41.2z"/>
		<path fill="#032360" d="M476.9,52.4c24,18.4,37.9,46,66.5,68.1c42.5,32.9,105.8-3.2,105.8-3.2l8.8,18.4c0,0-80.2,60.9-150.7,36.1
			S454.5,127,454.5,127L476.9,52.4z"/>
		<g>
			<ellipse fill="#032360" cx="511.7" cy="24.8" rx="5.7" ry="5.5"/>
			<ellipse fill="#0C56AB" cx="511.7" cy="24.8" rx="3.6" ry="3.4"/>
		</g>
		<path fill="none" stroke="#0C56AB" stroke-miterlimit="10" d="M512.3,27.5c-0.7,5.4,6.1,27.9,17.2,31.5"/>
		<circle fill="#032360" cx="529.5" cy="59.1" r="3.1"/>
		<g>
			<polygon fill="#E6E7E8" points="649.3,117.4 659.9,102.7 673,118 658.1,135.8 			"/>
			<polygon fill="#E6E7E8" points="659.9,102.7 665.3,84.3 670.3,85.2 662.4,107.1 660.3,106 			"/>
			<path fill="#E6E7E8" d="M666.1,110.3c0.7-0.5,7.4-10.8,7.4-10.8l3.9-16.6l-4.8-0.9L670,98.4l-7.6,8.7L666.1,110.3z"/>
			<path fill="#E6E7E8" d="M668.6,114.5c0.2-0.7,7.8-11,7.8-11l0.5-12.7l-2.7-0.7l-0.7,9.4l-7.4,10.8L668.6,114.5z"/>
			<path fill="#E6E7E8" d="M673,118c1.1-0.6,3.6-10.3,3.6-10.3l-0.5-6.5l-2.5-1.6L673,109l-4.4,5.5L673,118z"/>
			<polygon fill="#E6E7E8" points="649.3,117.4 652,101.8 656.2,103 656.9,109.2 			"/>
			<path fill="#E6E7E8" d="M652,101.8c0,0,1.9-6.7,2.5-6.7c0.5,0,3.4,0,3.4,0l-0.9,3.5l-0.7,4.4l-2.1,1.2L652,101.8z"/>
		</g>
		<g>
			<path fill="#0C56AB" d="M561.9,130.3c-5.8-2.6-11.5-5.5-17-8.6c-5.6-3.1-11-6.4-16.3-9.8c-5.3-3.5-10.5-7.2-15.4-11.2
				c-4.9-4.1-9.6-8.5-13.3-13.7c1.1,1.2,2.1,2.4,3.1,3.6c1.1,1.1,2.2,2.3,3.4,3.3l3.5,3.2l3.7,3c5,3.9,10.2,7.5,15.5,11
				c5.3,3.5,10.7,6.8,16.2,10c2.7,1.6,5.5,3.2,8.3,4.7C556.3,127.4,559.1,128.9,561.9,130.3z"/>
		</g>
		<g>
			<path fill="#0C56AB" d="M525.6,176.3c-7.3-0.9-14.3-3.5-21.2-6.2c-6.8-2.8-13.5-6-20.1-9.1c-6.6-3.2-13.2-6.4-20-9.3
				c-3.4-1.4-6.8-2.8-10.3-3.9c-1.8-0.5-3.5-1-5.3-1.2c-1.8-0.2-3.7-0.4-5.5,0.1c1.8-0.5,3.7-0.5,5.5-0.3c1.8,0.2,3.6,0.6,5.4,1
				c3.6,1,7,2.3,10.5,3.6c6.8,2.8,13.5,6,20.1,9.1c6.6,3.2,13.3,6.4,20,9.3c3.4,1.5,6.8,2.8,10.2,4
				C518.4,174.7,521.9,175.7,525.6,176.3z"/>
		</g>
	</g>
	<path fill="#573392" d="M207.3,205.4v148C109.5,346.8,34.5,336,0,323.1v-148C34.5,188,109.5,198.8,207.3,205.4z"/>
	<path fill="#573392" d="M422.6,212.4v148c-75-0.2-145.5-2.5-207.3-6.5v-148C277.2,209.9,347.7,212.2,422.6,212.4z"/>
	<path fill="#573392" d="M638,206.5v148c-62,3.8-132.3,5.9-206.9,5.9h-0.4v-148h0.4C505.7,212.4,576,210.3,638,206.5z"/>
	<path fill="#573392" d="M853.4,178.1v148c-38.8,12-112.9,21.9-207.3,27.9V206C740.5,199.9,814.6,190,853.4,178.1z"/>
	<g>
		<g>
			<g>
				<polygon fill="#FFFFFF" points="38.8,295.9 36.9,294.2 68.2,268.1 82.4,281.5 103.5,262.8 120.8,279.7 144.9,259 146.7,260.6 
					121,282.9 103.7,266 82.6,284.6 68.4,271.2 				"/>
				<polygon fill="#FFFFFF" points="147.7,266.8 145.2,266.5 145.2,260.2 138,259.3 138,257.1 147.7,258.3 				"/>
				<polygon fill="#FFFFFF" points="150.7,325.6 40.3,309.5 40.3,307.3 150.7,323.5 				"/>
				<polygon fill="#FFFFFF" points="45.2,308.9 42.7,308.5 42.7,290.1 45.2,290.4 				"/>
				<polygon fill="#FFFFFF" points="64.4,311.7 62,311.3 62,274.3 64.4,274.6 				"/>
				<polygon fill="#FFFFFF" points="83.7,314.5 81.2,314.1 81.2,282.2 83.7,282.5 				"/>
				<polygon fill="#FFFFFF" points="103,317.3 100.5,316.9 100.5,266 103,266.3 				"/>
				<polygon fill="#FFFFFF" points="122.2,320.1 119.8,319.8 119.8,279.7 122.2,280 				"/>
				<polygon fill="#FFFFFF" points="141.5,323.7 139.1,323.4 139.1,264.3 141.5,264.6 				"/>
			</g>
			<g>
				<g>
					<g>
						<path fill="#FFFFFF" d="M103.5,226.1c-1.9-1.8-3.6-2.8-6-3.1c-2.8-0.3-4.3,0.6-4.3,2.9c0,5.1,14.2,6,14.2,15.2
							c0,4.5-2.8,7.4-8.2,7.6v4.7l-4.6-0.6v-4.6c-3.2-0.7-6.8-2.4-9.2-4.7l3-3.6c2.6,2.1,5,3.4,7.7,3.7c3.3,0.4,4.8-0.7,4.8-3
							c0-5.5-14.2-6.8-14.2-15.3c0-4.4,3-7.1,7.9-7.4v-4.7l4.6,0.5v4.7c3.4,0.8,5.7,2.6,7.7,4.6L103.5,226.1z"/>
					</g>
				</g>
			</g>
		</g>
	</g>
	<g>
		<g>
			<path fill="#FFFFFF" d="M517.1,319.9l-38.1,1.9l9.6-18.1l21.3-0.9L517.1,319.9z M484.9,318.1l27.1-1.3l-4.4-10.5l-16.8,0.7
				L484.9,318.1z"/>
			<path fill="#FFFFFF" d="M536.7,296.5l-38.1,1.5l9.6-17.8l21.3-0.7L536.7,296.5z M504.5,294.3l27.1-1l-4.4-10.4l-16.8,0.5
				L504.5,294.3z"/>
			<path fill="#FFFFFF" d="M577.3,294.9l-38.1,1.5l9.6-17.5l21.3-0.7L577.3,294.9z M545,292.8l27.1-1l-4.4-10.2l-16.8,0.5L545,292.8
				z"/>
			<path fill="#FFFFFF" d="M556.6,273.4l-38.1,1.1l9.6-17.6l21.3-0.4L556.6,273.4z M524.3,271l27.1-0.7l-4.4-10.4l-16.8,0.4
				L524.3,271z"/>
			<path fill="#FFFFFF" d="M557.7,317.9l-38.1,1.9l9.6-17.8l21.3-0.9L557.7,317.9z M525.4,316.2l27.1-1.3l-4.4-10.3l-16.8,0.7
				L525.4,316.2z"/>
			<path fill="#FFFFFF" d="M598.3,315.9l-38.1,1.9l9.6-17.4l21.3-0.9L598.3,315.9z M566,314.2l27.1-1.3l-4.4-10.1l-16.8,0.7
				L566,314.2z"/>
		</g>
	</g>
	<g>
		<g>
			<g>
				<g>
					<defs>
						<polygon id="SVGID_1_" points="351,335.9 287.6,330.6 287.6,296 351,301.3 						"/>
					</defs>
					<clipPath id="SVGID_2_">
						<use xlink:href="#SVGID_1_"  overflow="visible"/>
					</clipPath>
				</g>
			</g>
		</g>
		<g>
			<g>
				<path fill="#FFFFFF" d="M304.6,288.1l-2.8,0.9l-1.2-2.9l-5.5,1.7l-7.9-18.3l5.5-1.7l-1.5-3.4l2.8-0.9l1.5,3.4
					c1.5-0.4,2.9-0.7,4-0.6c0.9,0,1.8,0.3,2.6,0.9c0.4,0.3,0.7,0.6,0.9,0.9c0.3,0.3,0.5,0.6,0.6,1c0.7,1.6,0.5,3.1-0.6,4.5
					c-0.1,0.2-0.3,0.3-0.4,0.5c-0.1,0.2-0.3,0.4-0.5,0.6c0.8,0,1.5,0,2.2,0.2c0.7,0.1,1.3,0.4,2,0.7c0.9,0.5,1.6,1.2,2.1,2.3
					c0.4,0.9,0.5,1.9,0.2,2.9c-0.2,1-0.8,1.8-1.6,2.6c-0.8,0.8-2.1,1.5-3.7,2L304.6,288.1z M293.9,270.6l-1.8,0.6l2,4.6l1.8-0.6
					L293.9,270.6z M295.2,278.6l2.3,5.3l1.8-0.6l-2.3-5.3L295.2,278.6z M298.6,274.1c1.3-0.6,1.9-1.1,1.9-1.6c0-0.5-0.1-1-0.4-1.6
					c-0.3-0.6-0.7-0.9-1.1-1.2c-0.4-0.2-1.2-0.2-2.3,0L298.6,274.1z M302.2,282.4c1.5-0.7,2.2-1.5,2.1-2.4c-0.1-0.9-0.4-1.7-1.1-2.4
					c-0.7-0.7-1.8-0.8-3.3-0.3L302.2,282.4z"/>
			</g>
			<g>
				<path fill="#FFFFFF" d="M335,286.6c0.7,0,1.6-0.2,2.5-0.6c0.9-0.4,1.6-0.9,1.8-1.5c0.2-0.3,0.3-0.8,0.3-1.2
					c0-0.3,0.1-0.7,0.1-1.2l-2.2-1.1l0.6-1.3l1.4,0.7c-0.1-0.9-0.1-1.6,0-2.2c0.1-0.6,0.2-1.2,0.5-1.8c0.5-1.2,1.5-2,3-2.4
					s3.2-0.2,5.2,0.8c1.6,0.8,2.9,1.9,3.7,3.3s0.8,3.1,0,5.1l-3.4-1.6c0.3-0.8,0.3-1.5,0.3-2.1c-0.1-0.9-0.8-1.5-1.8-2
					c-0.8-0.4-1.5-0.4-2.1-0.2c-0.7,0.2-1.1,0.6-1.4,1.2c-0.2,0.3-0.2,0.7-0.3,1.2c0,0.5,0,1.4,0.1,2.7l3.6,1.7l-0.6,1.3l-3.1-1.5
					c-0.1,0.3-0.2,0.6-0.3,0.8c-0.1,0.2-0.1,0.4-0.2,0.6c-0.3,0.7-0.9,1.3-1.7,1.7c-0.5,0.2-1.4,0.5-2.7,0.9
					c0.8,0.1,1.3,0.2,1.7,0.3c0.6,0.1,1.1,0.3,1.6,0.5c0.3,0.1,0.6,0.3,0.9,0.5s0.5,0.4,0.8,0.6l0.4,0.4c0.2,0.2,0.4,0.3,0.5,0.4
					c0.1,0.1,0.3,0.2,0.4,0.2c0.4,0.2,0.9,0.3,1.5,0.3c0.4,0,0.8,0,1.4,0l-0.1,3c-0.5,0.1-1.2,0-2.1-0.1s-1.6-0.3-2.3-0.7
					c-0.4-0.2-0.7-0.4-1.1-0.7c-0.4-0.3-0.7-0.6-1.2-1l-0.6-0.6c-0.3-0.2-0.5-0.4-0.7-0.6c-0.3-0.2-0.6-0.4-1-0.6
					c-0.4-0.2-0.8-0.3-1.3-0.4c-0.3,0-0.9-0.1-1.9-0.1L335,286.6z"/>
			</g>
			<g>
				<path fill="#FFFFFF" d="M309.1,265.5l1.4-2.2l3.2,1.3c0.1-0.4,0.2-0.8,0.4-1.3c0.1-0.4,0.3-0.7,0.5-1.1l-3.7-1.5l1.4-2.2
					l3.5,1.4c0.9-1.3,1.9-2.2,3.2-2.8c1.8-0.9,3.7-1,5.8-0.1c2.7,1.1,4.3,2.9,4.8,5.3c0.3,1.4,0.3,2.6-0.1,3.7l-3.3-1.4
					c0.1-0.9,0.1-1.7-0.1-2.2c-0.3-1-1.1-1.7-2.3-2.2c-1.2-0.5-2.4-0.3-3.5,0.4c-0.3,0.2-0.6,0.5-0.9,0.8l5.1,2.1l-1.4,2.2l-5.1-2.1
					c-0.2,0.4-0.3,0.7-0.5,1.2c-0.2,0.4-0.3,0.8-0.4,1.2l4.8,1.9l-1.4,2.2l-3.6-1.5c0,0.4,0.1,0.7,0.2,1c0.4,1.3,1.1,2.1,2.3,2.6
					c1.2,0.5,2.2,0.4,3.1-0.2c0.5-0.3,1-0.9,1.6-1.7l3.3,1.3c-1,1.8-2.3,3-3.9,3.8c-1.6,0.7-3.4,0.7-5.2-0.1
					c-2.3-0.9-3.8-2.5-4.5-4.6c-0.4-1.1-0.5-2.3-0.4-3.7L309.1,265.5z"/>
			</g>
			<g>
				<path fill="#FFFFFF" d="M290.4,244.4l-0.6-2.6l3.3-0.4l-1.3-2.4l-2.6,0.3l-0.6-2.6l1.8-0.2l-1.8-3.4l4.4-0.5l1.6,3.5l4.4-0.5
					l0-3.6l4.3-0.5l1.5,3.5l4.6-0.5l0.1-3.7l4.2-0.5l-0.3,3.7l1.8-0.2l0.6,2.6l-2.6,0.3l-0.2,2.6l3.3-0.4l0.6,2.6l-4.1,0.5l-0.6,7.9
					l-3.9,0.4l-3.2-7.5l-3,0.3l0,7.8l-3.8,0.4l-3.9-7.4L290.4,244.4z M296.9,240.9l2.2-0.3l0-2.6l-3.3,0.4L296.9,240.9z M299.2,246
					l0-2.6l-1.1,0.1L299.2,246z M302.1,240.3l1.9-0.2l-1.1-2.5l-0.8,0.1L302.1,240.3z M307,239.8l2.3-0.3l0-2.6l-3.4,0.4L307,239.8z
					 M309.2,244.8l0-2.6l-1.1,0.1L309.2,244.8z"/>
			</g>
			<g>
				<path fill="#FFFFFF" d="M352,242.6l-5.3,4l1.8,0.9l-0.7,1.6l-2.6-1.3l-2.5,1.9l3.5,1.7l-0.7,1.6l-4-1.9l-2.5,5.4l-3.7-1.8
					l2.5-5.4l-4-1.9l0.7-1.6l3.5,1.7l-0.2-3.2l-2.7-1.3l0.7-1.6l1.8,0.9l-0.5-6.8l4.3,2l0.1,8.8l6.4-5.6L352,242.6z"/>
			</g>
			<g>
				<path fill="#0C56AB" d="M356,341.1l-73.3-6.1l0-44.3l73.3,6.1L356,341.1z M285.8,332.3l67.2,5.6l0-38.6l-67.2-5.6L285.8,332.3z"
					/>
				<g>
					<polygon fill="#FFFFFF" points="354.5,339.5 284.2,333.7 284.3,292.2 354.5,298.1 					"/>
				</g>
				<g>
					<defs>
						<polygon id="SVGID_3_" points="351,335.9 287.6,330.6 287.6,296 351,301.3 						"/>
					</defs>
					<clipPath id="SVGID_4_">
						<use xlink:href="#SVGID_3_"  overflow="visible"/>
					</clipPath>
					<polygon clip-path="url(#SVGID_4_)" fill="#FFFFFF" points="351,335.8 287.7,330.5 287.7,295.9 351.1,301.2 					"/>
					<path clip-path="url(#SVGID_4_)" fill="#0C56AB" d="M292.2,296.3c0,2.3-2,4.1-4.5,3.9c-2.5-0.2-4.5-2.3-4.5-4.6
						c0-2.3,2-4.1,4.5-3.9C290.2,291.9,292.2,294,292.2,296.3z"/>
					<path clip-path="url(#SVGID_4_)" fill="#0C56AB" d="M355.4,301.5c0,2.3-2,4.1-4.5,3.9c-2.5-0.2-4.5-2.3-4.5-4.6
						c0-2.3,2-4.1,4.5-3.9S355.4,299.2,355.4,301.5z"/>
					<path clip-path="url(#SVGID_4_)" fill="#0C56AB" d="M292.2,330.9c0,2.3-2,4.1-4.5,3.9s-4.5-2.3-4.5-4.6c0-2.3,2-4.1,4.5-3.9
						C290.2,326.5,292.2,328.6,292.2,330.9z"/>
					<path clip-path="url(#SVGID_4_)" fill="#0C56AB" d="M355.4,336.2c0,2.3-2,4.1-4.5,3.9s-4.5-2.3-4.5-4.6c0-2.3,2-4.1,4.5-3.9
						S355.4,333.8,355.4,336.2z"/>
					<use xlink:href="#SVGID_3_"  overflow="visible" fill="none" stroke="#0C56AB" stroke-width="2.3089" stroke-miterlimit="10"/>
				</g>
				<g>
					<path fill="#0C56AB" d="M347.1,319c0,0.9-0.8,1.5-1.7,1.5s-1.7-0.9-1.7-1.7c0-0.9,0.8-1.5,1.7-1.5S347.1,318.2,347.1,319z"/>
					<path fill="#0C56AB" d="M295,314.7c0,0.9-0.8,1.5-1.7,1.5s-1.7-0.9-1.7-1.7c0-0.9,0.8-1.5,1.7-1.5
						C294.3,313.1,295,313.8,295,314.7z"/>
				</g>
				<g>
					<polygon fill="#0C56AB" points="346.9,349 344.7,346.7 341.6,347.7 343.6,337.5 348.9,338.8 					"/>
					<polygon fill="#0C56AB" points="350,349.3 352.3,347.4 355.3,348.8 353.3,338.3 348,338.8 					"/>
					<path fill="#0C56AB" d="M354.7,335.2c0,3.4-2.9,5.9-6.4,5.6s-6.4-3.3-6.4-6.7c0-3.4,2.9-5.9,6.4-5.6
						C351.8,328.9,354.7,331.9,354.7,335.2z"/>
					<polygon fill="#FFFFFF" points="348.4,331.5 350,329.9 350.2,332.2 352.5,331.9 351.3,333.8 353.5,334.9 351.3,335.6 
						352.5,337.7 350.2,337 350,339.2 348.4,337.4 346.8,339 346.6,336.7 344.2,337 345.4,335.1 343.2,334 345.4,333.3 344.2,331.2 
						346.6,331.9 346.8,329.7 					"/>
				</g>
				
					<line fill="none" stroke="#0C56AB" stroke-width="0.5772" stroke-linecap="round" stroke-miterlimit="10" x1="298.8" y1="300" x2="339.9" y2="303.4"/>
				
					<line fill="none" stroke="#0C56AB" stroke-width="0.5772" stroke-linecap="round" stroke-miterlimit="10" x1="298.8" y1="303" x2="339.9" y2="306.4"/>
				
					<line fill="none" stroke="#0C56AB" stroke-width="0.5772" stroke-linecap="round" stroke-miterlimit="10" x1="298.8" y1="306" x2="339.9" y2="309.4"/>
				
					<line fill="none" stroke="#0C56AB" stroke-width="0.5772" stroke-linecap="round" stroke-miterlimit="10" x1="307.4" y1="309.8" x2="339.9" y2="312.5"/>
				
					<line fill="none" stroke="#0C56AB" stroke-width="0.5772" stroke-linecap="round" stroke-miterlimit="10" x1="307.4" y1="312.8" x2="339.9" y2="315.5"/>
				
					<line fill="none" stroke="#0C56AB" stroke-width="0.5772" stroke-linecap="round" stroke-miterlimit="10" x1="307.4" y1="315.8" x2="339.9" y2="318.5"/>
				
					<line fill="none" stroke="#0C56AB" stroke-width="0.5772" stroke-linecap="round" stroke-miterlimit="10" x1="307.4" y1="318.9" x2="339.9" y2="321.6"/>
				
					<line fill="none" stroke="#0C56AB" stroke-width="0.5772" stroke-linecap="round" stroke-miterlimit="10" x1="307.4" y1="321.9" x2="339.9" y2="324.6"/>
				
					<line fill="none" stroke="#0C56AB" stroke-width="0.5772" stroke-linecap="round" stroke-miterlimit="10" x1="298.8" y1="324.2" x2="339.9" y2="327.6"/>
				
					<line fill="none" stroke="#0C56AB" stroke-width="0.5772" stroke-linecap="round" stroke-miterlimit="10" x1="298.8" y1="327.3" x2="339.9" y2="330.7"/>
			</g>
		</g>
		<g>
			<g>
				<g>
					<defs>
						<polygon id="SVGID_5_" points="351,335.9 287.6,330.6 287.6,296 351,301.3 						"/>
					</defs>
					<clipPath id="SVGID_6_">
						<use xlink:href="#SVGID_5_"  overflow="visible"/>
					</clipPath>
				</g>
			</g>
		</g>
	</g>
	<g>
		<g>
			<g>
				<defs>
					<polygon id="SVGID_7_" points="810.6,290.8 704.9,301 704.9,249 810.7,237.5 					"/>
				</defs>
				<clipPath id="SVGID_8_">
					<use xlink:href="#SVGID_7_"  overflow="visible"/>
				</clipPath>
			</g>
		</g>
		<g>
			<path fill="#0C56AB" d="M819.1,297.4L696.8,309l0-66.5l122.3-13.5L819.1,297.4z M701.8,304.1L814,293.4l0-59.5l-112.2,12.3
				L701.8,304.1z"/>
			<g>
				<polygon fill="#FFFFFF" points="816.5,295.4 699.3,306.6 699.3,244.4 816.6,231.4 				"/>
			</g>
			<g>
				<defs>
					<polygon id="SVGID_9_" points="810.6,290.8 704.9,301 704.9,249 810.7,237.5 					"/>
				</defs>
				<use xlink:href="#SVGID_9_"  overflow="visible" fill="#573392"/>
				<clipPath id="SVGID_10_">
					<use xlink:href="#SVGID_9_"  overflow="visible"/>
				</clipPath>
				<polygon clip-path="url(#SVGID_10_)" fill="#FFFFFF" stroke="#FFFFFF" stroke-miterlimit="10" points="810.8,290.7 705.1,300.9 
					705.1,248.8 810.8,237.3 				"/>
				<path clip-path="url(#SVGID_10_)" fill="#0C56AB" d="M712.5,248c0,3.5-3.3,6.7-7.4,7.2c-4.1,0.4-7.4-2-7.4-5.6s3.3-6.7,7.4-7.2
					C709.2,242,712.5,244.5,712.5,248z"/>
				<path clip-path="url(#SVGID_10_)" fill="#0C56AB" d="M818,236.5c0,3.6-3.3,6.9-7.4,7.3c-4.1,0.4-7.4-2.1-7.4-5.7
					c0-3.6,3.3-6.9,7.4-7.3S818,232.9,818,236.5z"/>
				<path clip-path="url(#SVGID_10_)" fill="#0C56AB" d="M712.5,300.2c0,3.5-3.3,6.7-7.4,7.1s-7.4-2.1-7.4-5.6s3.3-6.7,7.4-7.1
					C709.2,294.2,712.5,296.7,712.5,300.2z"/>
				<path clip-path="url(#SVGID_10_)" fill="#0C56AB" d="M818,290c0,3.6-3.3,6.9-7.4,7.2c-4.1,0.4-7.4-2.2-7.4-5.8s3.3-6.8,7.4-7.2
					C814.7,283.8,818,286.4,818,290z"/>
			</g>
			<g>
				<path fill="#0C56AB" d="M804.2,266c0,1.4-1.3,2.6-2.8,2.7c-1.5,0.2-2.8-0.8-2.8-2.2c0-1.4,1.3-2.6,2.8-2.7
					C802.9,263.7,804.2,264.7,804.2,266z"/>
				<path fill="#0C56AB" d="M717.3,274.9c0,1.3-1.3,2.5-2.8,2.7s-2.8-0.8-2.8-2.1c0-1.3,1.3-2.5,2.8-2.7
					C716,272.7,717.3,273.6,717.3,274.9z"/>
			</g>
			<g>
				<polygon fill="#0C56AB" points="803.9,312.2 800.1,309.3 795.1,311.6 798.4,295.4 807.3,296 				"/>
				<polygon fill="#0C56AB" points="809,311.8 812.8,308.2 817.9,309.5 814.5,293.9 805.7,296.2 				"/>
				<path fill="#0C56AB" d="M816.9,288.8c0,5.2-4.8,9.9-10.7,10.5c-5.9,0.6-10.7-3.2-10.7-8.4s4.8-9.9,10.7-10.5
					C812.1,279.8,816.9,283.6,816.9,288.8z"/>
				<polygon fill="#FFFFFF" points="806.3,284.9 809,282 809.3,285.5 813.3,284.3 811.2,287.5 814.9,288.6 811.2,290.3 813.3,293.2 
					809.3,292.8 809,296.3 806.3,293.9 803.7,296.8 803.3,293.3 799.4,294.5 801.4,291.3 797.8,290.2 801.4,288.5 799.4,285.7 
					803.3,286 803.7,282.5 				"/>
			</g>
			
				<line fill="none" stroke="#0C56AB" stroke-width="0.5772" stroke-linecap="round" stroke-miterlimit="10" x1="723.6" y1="251.5" x2="792.2" y2="244.1"/>
			
				<line fill="none" stroke="#0C56AB" stroke-width="0.5772" stroke-linecap="round" stroke-miterlimit="10" x1="723.6" y1="256.1" x2="792.2" y2="248.8"/>
			
				<line fill="none" stroke="#0C56AB" stroke-width="0.5772" stroke-linecap="round" stroke-miterlimit="10" x1="723.6" y1="260.7" x2="792.2" y2="253.4"/>
			
				<line fill="none" stroke="#0C56AB" stroke-width="0.5772" stroke-linecap="round" stroke-miterlimit="10" x1="737.9" y1="263.8" x2="792.2" y2="258.1"/>
			
				<line fill="none" stroke="#0C56AB" stroke-width="0.5772" stroke-linecap="round" stroke-miterlimit="10" x1="737.9" y1="268.4" x2="792.2" y2="262.7"/>
			
				<line fill="none" stroke="#0C56AB" stroke-width="0.5772" stroke-linecap="round" stroke-miterlimit="10" x1="737.9" y1="273" x2="792.2" y2="267.4"/>
			
				<line fill="none" stroke="#0C56AB" stroke-width="0.5772" stroke-linecap="round" stroke-miterlimit="10" x1="737.9" y1="277.6" x2="792.2" y2="272.1"/>
			
				<line fill="none" stroke="#0C56AB" stroke-width="0.5772" stroke-linecap="round" stroke-miterlimit="10" x1="737.9" y1="282.2" x2="792.2" y2="276.7"/>
			
				<line fill="none" stroke="#0C56AB" stroke-width="0.5772" stroke-linecap="round" stroke-miterlimit="10" x1="723.6" y1="288.2" x2="792.2" y2="281.4"/>
			
				<line fill="none" stroke="#0C56AB" stroke-width="0.5772" stroke-linecap="round" stroke-miterlimit="10" x1="723.6" y1="292.8" x2="792.2" y2="286"/>
		</g>
		<g>
			<g>
				<defs>
					<polygon id="SVGID_11_" points="810.6,290.8 704.9,301 704.9,249 810.7,237.5 					"/>
				</defs>
				<clipPath id="SVGID_12_">
					<use xlink:href="#SVGID_11_"  overflow="visible"/>
				</clipPath>
			</g>
		</g>
	</g>
</g>
<g>
</g>
<g>
</g>
<g>
</g>
<g>
</g>
<g>
</g>
<g>
</g>
<g>
</g>
<g>
</g>
<g>
</g>
<g>
</g>
<g>
</g>
<g>
</g>
<g>
</g>
<g>
</g>
<g>
</g>
</svg>
