<?xml version="1.0" encoding="utf-8"?>
<!-- Generator: Adobe Illustrator 18.0.0, SVG Export Plug-In . SVG Version: 6.00 Build 0)  -->
<!DOCTYPE svg PUBLIC "-//W3C//DTD SVG 1.1//EN" "http://www.w3.org/Graphics/SVG/1.1/DTD/svg11.dtd">
<svg version="1.1" id="Layer_1" xmlns="http://www.w3.org/2000/svg" xmlns:xlink="http://www.w3.org/1999/xlink" x="0px" y="0px"
	 viewBox="0 0 219.2 160.2" enable-background="new 0 0 219.2 160.2" xml:space="preserve">
<g>
	<g>
		<path fill="#2368B5" d="M187.9,80.4c-1.6-2.9-4.7-4.7-8-4.7c-1.6,0-3.1,0.4-4.5,1.2l-26.7,15c-0.3,0.2-0.6,0.5-0.7,0.9
			c-0.5,1.9-1.6,4.6-4.1,6.4c-2.9,2-6.7,2.5-11.4,1.3c0,0-0.1,0-0.1,0L117,95.8c-0.9-0.3-1.5-1.3-1.2-2.2c0.2-0.7,0.9-1.2,1.7-1.2
			c0.2,0,0.4,0,0.5,0.1l15.3,4.8c0,0,0,0,0.1,0c3.6,0.9,6.4,0.7,8.4-0.7c2.5-1.8,2.9-4.9,2.9-5.3c0,0,0,0,0,0c0,0,0,0,0,0l0,0l0,0
			c0.3-3.8-2.2-7.4-5.9-8.4l-0.1,0c-0.1,0-11.5-3.7-18.7-5.8c-0.8-0.2-3-0.8-6.2-0.8c-4.5,0-11.1,1.1-17.5,6.1l-26.6,21.5
			c-0.6,0.5-0.7,1.4-0.2,2l14.4,19c0.2,0.3,0.6,0.5,1,0.6c0.1,0,0.1,0,0.2,0c0.3,0,0.6-0.1,0.9-0.3l18.5-14.3c0.4-0.3,1-0.4,1.5-0.3
			l29.9,7.1c2.2,0.5,4.6,0.2,6.6-0.9l41.9-23.6C188.9,90.4,190.4,84.8,187.9,80.4z"/>
		<g>
			<g>
				<circle fill="#2368B5" cx="186.5" cy="32.6" r="32.6"/>
			</g>
			<path fill="#FFFFFF" d="M169.6,35c-1.7,0-3.4,0-5.1,0c-1,0-1.2-0.2-1.2-1.2c0-0.4,0-0.8,0-1.3c0-0.6,0.3-0.9,0.9-0.9
				c1.4,0,2.8,0,4.2,0c0.1,0,0.1,0,0.3,0c-0.3-1.1-0.6-2.2-0.9-3.3c-1.1,0-2.3,0-3.4,0c-1,0-1.2-0.2-1.2-1.2c0-0.4,0-0.8,0-1.2
				c0-0.7,0.3-1,1-1c0.9,0,1.8,0,2.7,0c-0.4-1.6-0.8-3.2-1.2-4.7c-0.4-1.4-0.7-2.7-1.1-4.1c-0.2-0.8,0.1-1.3,0.9-1.3
				c1.1,0,2.2,0,3.3,0c0.5,0,0.8,0.2,1,0.8c0.7,2.9,1.5,5.9,2.2,8.8c0,0.2,0.1,0.3,0.1,0.5c0.2,0,0.3,0,0.4,0c2.8,0,5.7,0,8.5,0
				c0.4,0,0.5-0.1,0.6-0.5c0.8-2.9,1.5-5.8,2.3-8.6c0.3-0.9,0.4-1,1.3-1c0.9,0,1.8,0,2.6,0c0.8,0,1,0.1,1.2,0.9
				c0.8,2.9,1.6,5.7,2.3,8.6c0.1,0.5,0.3,0.6,0.8,0.6c2.8,0,5.6,0,8.4,0c0.2,0,0.4,0,0.6,0c0.4-1.4,0.7-2.7,1.1-4.1
				c0.5-1.7,0.9-3.5,1.4-5.2c0.2-0.6,0.3-0.8,1-0.8c1.1,0,2.2,0,3.3,0c0.8,0,1.1,0.4,0.9,1.2c-0.7,2.8-1.5,5.6-2.2,8.3
				c0,0.2-0.1,0.3-0.1,0.5c0.8,0,1.7,0,2.5,0c1.1,0,1.3,0.2,1.3,1.3c0,0.4,0,0.7,0,1.1c0,0.7-0.3,1-1,1c-1.1,0-2.2,0-3.3,0
				c-0.3,0-0.5,0.1-0.5,0.4c-0.2,1-0.5,1.9-0.8,3c0.5,0,0.9,0,1.3,0c1.1,0,2.1,0,3.2,0c0.8,0,1.1,0.3,1.1,1c0,0.5,0,0.9,0,1.4
				c0,0.7-0.3,1-1,1c-1.6,0-3.3,0-4.9,0c-0.4,0-0.6,0.1-0.7,0.6c-1.3,5.1-2.7,10.1-4,15.2c-0.3,1-0.4,1.1-1.4,1.1
				c-1.1,0-2.3,0-3.4,0c-0.8,0-0.9-0.1-1.1-0.9c-1.4-5.2-2.8-10.4-4.2-15.6c0-0.1-0.1-0.2-0.1-0.4c-0.2,0-0.3,0-0.5,0
				c-1.5,0-2.9,0-4.4,0c-0.4,0-0.6,0.1-0.7,0.5c-1.1,4.1-2.2,8.1-3.3,12.2c-0.3,1.1-0.6,2.2-0.9,3.3c-0.2,0.6-0.4,0.8-1,0.8
				c-1.2,0-2.4,0-3.6,0c-0.9,0-1.1-0.1-1.3-1c-1.3-5.1-2.7-10.3-4-15.4C169.7,35.3,169.6,35.2,169.6,35z M193.6,31.6
				c2.1,0,4.1,0,6.1,0c0.3-1.1,0.6-2.2,0.8-3.3c-2.6,0-5.2,0-7.8,0C193,29.4,193.3,30.5,193.6,31.6z M179.9,31.6
				c0.3-1.1,0.6-2.2,0.9-3.3c-2.6,0-5.1,0-7.7,0c0.3,1.1,0.6,2.2,0.8,3.3C175.9,31.6,177.9,31.6,179.9,31.6z M196.7,43
				c0.7-2.8,1.4-5.4,2.1-8c-1.4,0-2.8,0-4.2,0C195.2,37.7,196,40.3,196.7,43z M178.9,35c-1.4,0-2.8,0-4.2,0c0.7,2.6,1.3,5.2,1.9,7.8
				c0,0,0.1,0,0.1,0C177.5,40.2,178.2,37.6,178.9,35z M184.9,31.6c1.2,0,2.4,0,3.6,0c-0.3-1.1-0.6-2.2-0.9-3.3c-0.6,0-1.2,0-1.8,0
				C185.5,29.4,185.2,30.5,184.9,31.6z"/>
		</g>
		<g>
			<path fill="#2368B5" d="M82.2,71c0,0,4.7-22.5,41.8-22.5V28.3C124,28.3,82.2,32.2,82.2,71z"/>
			<path fill="#2368B5" d="M143.8,36.8C143,36.5,122,59.4,122,59.4V17.8L143.8,36.8z"/>
		</g>
	</g>
	<g>
		<g>
			<path fill="#0C56AB" d="M9.1,148.5v-21.8H1.4v-4c4.6-0.1,7.7-2.7,8.4-6h5.1v31.8H9.1z"/>
			<path fill="#0C56AB" d="M23.9,121.2c2.1-3.1,5.4-5.2,10.2-5.2c4.8,0,8.1,2.1,10.1,5.2c2.2,3.2,2.8,7.2,2.8,11.4
				s-0.7,8.2-2.8,11.4c-2.1,3.1-5.4,5.2-10.1,5.2c-4.8,0-8.1-2.1-10.2-5.2c-2.2-3.2-2.8-7.2-2.8-11.4S21.7,124.4,23.9,121.2z
				 M29.2,141.7c1.1,1.4,2.6,2.4,4.9,2.4c2.3,0,3.8-0.9,4.9-2.4c1.5-2,2.2-5.1,2.2-9.1s-0.7-7.1-2.2-9.1c-1.1-1.4-2.6-2.4-4.9-2.4
				c-2.3,0-3.8,0.9-4.9,2.4c-1.6,2-2.3,5.1-2.3,9.1S27.6,139.8,29.2,141.7z"/>
		</g>
	</g>
</g>
<g>
</g>
<g>
</g>
<g>
</g>
<g>
</g>
<g>
</g>
<g>
</g>
<g>
</g>
<g>
</g>
<g>
</g>
<g>
</g>
<g>
</g>
<g>
</g>
<g>
</g>
<g>
</g>
<g>
</g>
</svg>
