<?xml version="1.0" encoding="utf-8"?>
<!-- Generator: Adobe Illustrator 18.0.0, SVG Export Plug-In . SVG Version: 6.00 Build 0)  -->
<!DOCTYPE svg PUBLIC "-//W3C//DTD SVG 1.1//EN" "http://www.w3.org/Graphics/SVG/1.1/DTD/svg11.dtd">
<svg version="1.1" id="Layer_1" xmlns="http://www.w3.org/2000/svg" xmlns:xlink="http://www.w3.org/1999/xlink" x="0px" y="0px"
	 viewBox="0 0 631 292.8" enable-background="new 0 0 631 292.8" xml:space="preserve">
<g>
	<path fill="#7F58A5" d="M56.1,128.7c-0.3,0-0.5-0.2-0.5-0.5V97.8H0.5c-0.3,0-0.5-0.2-0.5-0.5V47.9c0-0.3,0.2-0.5,0.5-0.5
		S1,47.6,1,47.9v48.9h55.1c0.3,0,0.5,0.2,0.5,0.5v30.9C56.6,128.5,56.4,128.7,56.1,128.7z"/>
	<path fill="#7F58A5" d="M137.9,221.3H82.1c-14.6,0-26.5-11.9-26.5-26.5v-31.9c0-0.3,0.2-0.5,0.5-0.5s0.5,0.2,0.5,0.5v31.9
		c0,14,11.4,25.5,25.5,25.5h55.8c0.3,0,0.5,0.2,0.5,0.5S138.2,221.3,137.9,221.3z"/>
	<path fill="#7F58A5" d="M488.5,292.8c-0.1,0-0.3-0.1-0.4-0.2l-62.9-71.3h-198c-0.3,0-0.5-0.2-0.5-0.5s0.2-0.5,0.5-0.5h198.2
		c0.1,0,0.3,0.1,0.4,0.2L488,291v-70.2c0-0.3,0.2-0.5,0.5-0.5h57.4c8.9,0,16.2-7.3,16.2-16.2c0-9.5,7.7-17.2,17.2-17.2h24.1
		c14.7,0,26.7-12,26.7-26.7s-12-26.7-26.7-26.7c-0.3,0-0.5-0.2-0.5-0.5s0.2-0.5,0.5-0.5c15.3,0,27.7,12.4,27.7,27.7
		c0,15.3-12.4,27.7-27.7,27.7h-24.1c-8.9,0-16.2,7.3-16.2,16.2c0,9.5-7.7,17.2-17.2,17.2H489v71c0,0.2-0.1,0.4-0.3,0.5
		C488.6,292.8,488.5,292.8,488.5,292.8z"/>
	<path fill="#7F58A5" d="M566.7,122.5c-0.3,0-0.5-0.2-0.5-0.5c0-5.9-4.8-10.6-10.6-10.6h-72.2c-0.3,0-0.5-0.2-0.5-0.5
		s0.2-0.5,0.5-0.5h72.2c6.4,0,11.6,5.2,11.6,11.6C567.2,122.3,567,122.5,566.7,122.5z"/>
	<path fill="#7F58A5" d="M459.5,111.4H418c-7.1,0-12.9-5.8-12.9-12.9S411,85.7,418,85.7c0.3,0,0.5,0.2,0.5,0.5s-0.2,0.5-0.5,0.5
		c-6.5,0-11.9,5.3-11.9,11.9s5.3,11.9,11.9,11.9h41.5c0.3,0,0.5,0.2,0.5,0.5S459.8,111.4,459.5,111.4z"/>
	<path fill="#7F58A5" d="M545.3,86.7h-71.1c-0.3,0-0.5-0.2-0.5-0.5s0.2-0.5,0.5-0.5h71.1c2.2,0,4.4-0.2,6.6-0.6
		c0.3,0,0.5,0.1,0.6,0.4s-0.1,0.5-0.4,0.6C549.8,86.5,547.5,86.7,545.3,86.7z"/>
	<path fill="#7F58A5" d="M551.9,86.1c-0.2,0-0.4-0.2-0.5-0.4c-0.1-0.3,0.1-0.5,0.4-0.6c16.7-3.1,28.8-17.7,28.8-34.7
		c0-19.5-15.8-35.3-35.3-35.3H289c-0.3,0-0.5-0.2-0.5-0.5s0.2-0.5,0.5-0.5h256.3c20,0,36.3,16.3,36.3,36.3
		C581.6,67.8,569.2,82.8,551.9,86.1C552,86.1,552,86.1,551.9,86.1z"/>
	<path fill="#7F58A5" d="M43.7,63.2c-0.3,0-0.5-0.2-0.5-0.5V45.9C43.2,28.3,57.5,14,75.1,14h126.2c0.3,0,0.5,0.2,0.5,0.5
		s-0.2,0.5-0.5,0.5H75.1c-17,0-30.8,13.8-30.8,30.8v16.8C44.2,63,44,63.2,43.7,63.2z"/>
	<path fill="#7F58A5" d="M519.6,96.8H418.9c-0.3,0-0.5-0.2-0.5-0.5s0.2-0.5,0.5-0.5h100.7c0.3,0,0.5,0.2,0.5,0.5
		S519.9,96.8,519.6,96.8z"/>
	<path fill="#7F58A5" d="M441.7,1h-3.9c-0.3,0-0.5-0.2-0.5-0.5s0.2-0.5,0.5-0.5h3.9c0.3,0,0.5,0.2,0.5,0.5S441.9,1,441.7,1z
		 M433.8,1h-4c-0.3,0-0.5-0.2-0.5-0.5s0.2-0.5,0.5-0.5h4c0.3,0,0.5,0.2,0.5,0.5S434.1,1,433.8,1z M425.8,1h-4
		c-0.3,0-0.5-0.2-0.5-0.5s0.2-0.5,0.5-0.5h4c0.3,0,0.5,0.2,0.5,0.5S426.1,1,425.8,1z M417.8,1h-4c-0.3,0-0.5-0.2-0.5-0.5
		s0.2-0.5,0.5-0.5h4c0.3,0,0.5,0.2,0.5,0.5S418.1,1,417.8,1z M409.8,1h-4c-0.3,0-0.5-0.2-0.5-0.5s0.2-0.5,0.5-0.5h4
		c0.3,0,0.5,0.2,0.5,0.5S410.1,1,409.8,1z M401.8,1h-4c-0.3,0-0.5-0.2-0.5-0.5s0.2-0.5,0.5-0.5h4c0.3,0,0.5,0.2,0.5,0.5
		S402.1,1,401.8,1z M393.8,1h-4c-0.3,0-0.5-0.2-0.5-0.5s0.2-0.5,0.5-0.5h4c0.3,0,0.5,0.2,0.5,0.5S394.1,1,393.8,1z M385.8,1h-4
		c-0.3,0-0.5-0.2-0.5-0.5s0.2-0.5,0.5-0.5h4c0.3,0,0.5,0.2,0.5,0.5S386.1,1,385.8,1z M377.8,1h-4c-0.3,0-0.5-0.2-0.5-0.5
		s0.2-0.5,0.5-0.5h4c0.3,0,0.5,0.2,0.5,0.5S378.1,1,377.8,1z M369.8,1h-4c-0.3,0-0.5-0.2-0.5-0.5s0.2-0.5,0.5-0.5h4
		c0.3,0,0.5,0.2,0.5,0.5S370.1,1,369.8,1z M361.8,1h-4c-0.3,0-0.5-0.2-0.5-0.5s0.2-0.5,0.5-0.5h4c0.3,0,0.5,0.2,0.5,0.5
		S362.1,1,361.8,1z M353.8,1h-4c-0.3,0-0.5-0.2-0.5-0.5s0.2-0.5,0.5-0.5h4c0.3,0,0.5,0.2,0.5,0.5S354.1,1,353.8,1z M345.8,1h-4
		c-0.3,0-0.5-0.2-0.5-0.5s0.2-0.5,0.5-0.5h4c0.3,0,0.5,0.2,0.5,0.5S346.1,1,345.8,1z M337.8,1h-4c-0.3,0-0.5-0.2-0.5-0.5
		s0.2-0.5,0.5-0.5h4c0.3,0,0.5,0.2,0.5,0.5S338.1,1,337.8,1z M329.8,1h-4c-0.3,0-0.5-0.2-0.5-0.5s0.2-0.5,0.5-0.5h4
		c0.3,0,0.5,0.2,0.5,0.5S330.1,1,329.8,1z M321.8,1h-4c-0.3,0-0.5-0.2-0.5-0.5s0.2-0.5,0.5-0.5h4c0.3,0,0.5,0.2,0.5,0.5
		S322.1,1,321.8,1z M313.8,1h-4c-0.3,0-0.5-0.2-0.5-0.5s0.2-0.5,0.5-0.5h4c0.3,0,0.5,0.2,0.5,0.5S314.1,1,313.8,1z M305.8,1h-4
		c-0.3,0-0.5-0.2-0.5-0.5s0.2-0.5,0.5-0.5h4c0.3,0,0.5,0.2,0.5,0.5S306.1,1,305.8,1z M297.8,1h-4c-0.3,0-0.5-0.2-0.5-0.5
		s0.2-0.5,0.5-0.5h4c0.3,0,0.5,0.2,0.5,0.5S298.1,1,297.8,1z M289.8,1h-4c-0.3,0-0.5-0.2-0.5-0.5s0.2-0.5,0.5-0.5h4
		c0.3,0,0.5,0.2,0.5,0.5S290.1,1,289.8,1z M281.8,1h-4c-0.3,0-0.5-0.2-0.5-0.5s0.2-0.5,0.5-0.5h4c0.3,0,0.5,0.2,0.5,0.5
		S282.1,1,281.8,1z M273.8,1h-4c-0.3,0-0.5-0.2-0.5-0.5s0.2-0.5,0.5-0.5h4c0.3,0,0.5,0.2,0.5,0.5S274.1,1,273.8,1z M265.8,1h-4
		c-0.3,0-0.5-0.2-0.5-0.5s0.2-0.5,0.5-0.5h4c0.3,0,0.5,0.2,0.5,0.5S266.1,1,265.8,1z M257.8,1h-4c-0.3,0-0.5-0.2-0.5-0.5
		s0.2-0.5,0.5-0.5h4c0.3,0,0.5,0.2,0.5,0.5S258.1,1,257.8,1z M249.8,1h-4c-0.3,0-0.5-0.2-0.5-0.5s0.2-0.5,0.5-0.5h4
		c0.3,0,0.5,0.2,0.5,0.5S250.1,1,249.8,1z M241.8,1h-4c-0.3,0-0.5-0.2-0.5-0.5s0.2-0.5,0.5-0.5h4c0.3,0,0.5,0.2,0.5,0.5
		S242.1,1,241.8,1z M233.8,1h-4c-0.3,0-0.5-0.2-0.5-0.5s0.2-0.5,0.5-0.5h4c0.3,0,0.5,0.2,0.5,0.5S234.1,1,233.8,1z M225.8,1h-4
		c-0.3,0-0.5-0.2-0.5-0.5s0.2-0.5,0.5-0.5h4c0.3,0,0.5,0.2,0.5,0.5S226.1,1,225.8,1z M217.8,1h-4c-0.3,0-0.5-0.2-0.5-0.5
		s0.2-0.5,0.5-0.5h4c0.3,0,0.5,0.2,0.5,0.5S218.1,1,217.8,1z M209.8,1h-4c-0.3,0-0.5-0.2-0.5-0.5s0.2-0.5,0.5-0.5h4
		c0.3,0,0.5,0.2,0.5,0.5S210.1,1,209.8,1z M201.8,1h-4c-0.3,0-0.5-0.2-0.5-0.5s0.2-0.5,0.5-0.5h4c0.3,0,0.5,0.2,0.5,0.5
		S202.1,1,201.8,1z M193.8,1h-4c-0.3,0-0.5-0.2-0.5-0.5s0.2-0.5,0.5-0.5h4c0.3,0,0.5,0.2,0.5,0.5S194.1,1,193.8,1z M185.8,1h-4
		c-0.3,0-0.5-0.2-0.5-0.5s0.2-0.5,0.5-0.5h4c0.3,0,0.5,0.2,0.5,0.5S186.1,1,185.8,1z M177.8,1h-4c-0.3,0-0.5-0.2-0.5-0.5
		s0.2-0.5,0.5-0.5h4c0.3,0,0.5,0.2,0.5,0.5S178.1,1,177.8,1z M169.8,1h-4c-0.3,0-0.5-0.2-0.5-0.5s0.2-0.5,0.5-0.5h4
		c0.3,0,0.5,0.2,0.5,0.5S170.1,1,169.8,1z M161.8,1h-4c-0.3,0-0.5-0.2-0.5-0.5s0.2-0.5,0.5-0.5h4c0.3,0,0.5,0.2,0.5,0.5
		S162.1,1,161.8,1z M153.8,1h-4c-0.3,0-0.5-0.2-0.5-0.5s0.2-0.5,0.5-0.5h4c0.3,0,0.5,0.2,0.5,0.5S154.1,1,153.8,1z M145.8,1h-4
		c-0.3,0-0.5-0.2-0.5-0.5s0.2-0.5,0.5-0.5h4c0.3,0,0.5,0.2,0.5,0.5S146.1,1,145.8,1z M137.8,1h-4c-0.3,0-0.5-0.2-0.5-0.5
		s0.2-0.5,0.5-0.5h4c0.3,0,0.5,0.2,0.5,0.5S138.1,1,137.8,1z M129.8,1h-4c-0.3,0-0.5-0.2-0.5-0.5s0.2-0.5,0.5-0.5h4
		c0.3,0,0.5,0.2,0.5,0.5S130.1,1,129.8,1z M121.8,1h-4c-0.3,0-0.5-0.2-0.5-0.5s0.2-0.5,0.5-0.5h4c0.3,0,0.5,0.2,0.5,0.5
		S122.1,1,121.8,1z M113.8,1h-4c-0.3,0-0.5-0.2-0.5-0.5s0.2-0.5,0.5-0.5h4c0.3,0,0.5,0.2,0.5,0.5S114.1,1,113.8,1z M105.8,1h-4
		c-0.3,0-0.5-0.2-0.5-0.5s0.2-0.5,0.5-0.5h4c0.3,0,0.5,0.2,0.5,0.5S106.1,1,105.8,1z M97.8,1h-4c-0.3,0-0.5-0.2-0.5-0.5
		S93.5,0,93.8,0h4c0.3,0,0.5,0.2,0.5,0.5S98.1,1,97.8,1z M89.8,1h-4c-0.3,0-0.5-0.2-0.5-0.5S85.5,0,85.8,0h4c0.3,0,0.5,0.2,0.5,0.5
		S90.1,1,89.8,1z M81.8,1h-4c-0.3,0-0.5-0.2-0.5-0.5S77.5,0,77.8,0h4c0.3,0,0.5,0.2,0.5,0.5S82.1,1,81.8,1z"/>
	<path fill="#7F58A5" d="M61.7,84.7H7.3c-0.3,0-0.5-0.2-0.5-0.5s0.2-0.5,0.5-0.5h54.4c0.3,0,0.5,0.2,0.5,0.5S61.9,84.7,61.7,84.7z"
		/>
</g>
<g>
</g>
<g>
</g>
<g>
</g>
<g>
</g>
<g>
</g>
<g>
</g>
<g>
</g>
<g>
</g>
<g>
</g>
<g>
</g>
<g>
</g>
<g>
</g>
<g>
</g>
<g>
</g>
<g>
</g>
</svg>
