<?xml version="1.0" encoding="utf-8"?>
<!-- Generator: Adobe Illustrator 18.0.0, SVG Export Plug-In . SVG Version: 6.00 Build 0)  -->
<!DOCTYPE svg PUBLIC "-//W3C//DTD SVG 1.1//EN" "http://www.w3.org/Graphics/SVG/1.1/DTD/svg11.dtd">
<svg version="1.1" id="Layer_1" xmlns="http://www.w3.org/2000/svg" xmlns:xlink="http://www.w3.org/1999/xlink" x="0px" y="0px"
	 viewBox="0 0 431.6 226.6" enable-background="new 0 0 431.6 226.6" xml:space="preserve">
<g>
	<circle fill="#2368B5" cx="47.7" cy="201.1" r="7.1"/>
	<g>
		<g>
			<path fill="#0C56AB" d="M61.2,204.4c0.6-0.5,1-1.4,1.1-2.3l0.7,0.2c-0.2,0.9-0.5,1.9-1.2,2.5L61.2,204.4z M70.1,201
				c0,0,0,0.2,0,0.3c-0.1,2.1-0.3,2.9-0.6,3.2c-0.2,0.2-0.4,0.3-0.6,0.3c-0.3,0-0.8,0-1.3,0c0-0.2-0.1-0.5-0.2-0.7
				c0.5,0.1,1,0.1,1.1,0.1c0.2,0,0.3,0,0.4-0.1c0.2-0.2,0.3-0.8,0.4-2.4h-6.8v-5.5h7v0.7h-3.2v1h2.9v0.6h-2.9v1h2.9v0.6h-2.9v1H70.1
				z M63.2,196.9v1h2.3v-1H63.2z M65.5,198.4h-2.3v1h2.3V198.4z M63.2,201h2.3v-1h-2.3V201z M64.4,202.3c0.2,0.6,0.3,1.4,0.3,2
				l-0.7,0.1c0-0.5-0.1-1.3-0.3-2L64.4,202.3z M66,202.2c0.3,0.5,0.5,1.3,0.6,1.7l-0.6,0.2c-0.1-0.5-0.3-1.2-0.6-1.8L66,202.2z
				 M67.9,203.6c-0.2-0.4-0.5-1-0.8-1.4l0.5-0.2c0.4,0.4,0.7,1,0.9,1.3L67.9,203.6z"/>
			<path fill="#0C56AB" d="M76.1,200.2c0.9,1.5,2.6,2.9,4.3,3.5c-0.2,0.2-0.4,0.5-0.5,0.7c-1.4-0.6-2.7-1.7-3.7-3v3.5h-0.8v-3.4
				c-1,1.3-2.3,2.3-3.7,3c-0.1-0.2-0.3-0.5-0.5-0.6c1.6-0.7,3.3-2,4.2-3.5v-2.4h-3.8v-0.7h3.8v-1.4h0.8v1.4h4v0.7h-4V200.2z
				 M74,198.2c-0.1,0.4-0.2,0.8-0.4,1.2c0.4,0.4,0.9,0.8,1.1,1.1l-0.5,0.5c-0.2-0.3-0.6-0.6-0.9-1c-0.3,0.6-0.8,1.2-1.3,1.6
				c-0.1-0.1-0.4-0.4-0.6-0.5c0.9-0.7,1.5-1.7,1.8-3L74,198.2z M78.7,198.2c-0.1,0.4-0.2,0.8-0.3,1.2c0.6,0.5,1.4,1.1,1.8,1.5
				l-0.5,0.5c-0.3-0.4-1-0.9-1.6-1.4c-0.3,0.5-0.5,0.9-0.9,1.2c-0.1-0.1-0.4-0.3-0.6-0.4c0.7-0.6,1.2-1.6,1.4-2.7L78.7,198.2z"/>
			<path fill="#0C56AB" d="M87.2,197.1v1.4h2.5v6.2H89v-0.6h-6.3v0.6h-0.7v-6.3h2.4v-1.4h-2.9v-0.7h8.7v0.7H87.2z M89,203.5v-1.7
				h-0.1h-1.3c-0.8,0-1-0.2-1-1v-1.6H85c0,1-0.4,2.2-1.9,2.9c-0.1-0.2-0.3-0.4-0.4-0.5v1.9H89z M82.7,199.2v2.4
				c1.3-0.7,1.6-1.6,1.7-2.4H82.7z M86.5,197.1H85v1.4h1.4V197.1z M87.2,199.2v1.6c0,0.3,0,0.3,0.4,0.3h1.2c0.1,0,0.2,0,0.2,0v-1.9
				H87.2z"/>
			<path fill="#0C56AB" d="M100.2,203.7v0.7h-8.9v-0.7h3v-1.8H92v-3.3h2.2V197h-2.7v-0.7h8.4v0.7h-2.8v1.5h2.3v3.3h-0.4v0h-1.9v1.8
				H100.2z M95,201.3v2.4h1.5v-2.4h2.3v-2h-2.3V197H95v2.2h-2.2v2H95z"/>
			<path fill="#0C56AB" d="M106.3,196c-0.1,0.1-0.1,0.1-0.2,0.2c1,1.1,2.7,2.2,4.2,2.7c-0.2,0.2-0.4,0.5-0.6,0.7
				c-1.3-0.6-3-1.7-4.1-2.9c-1.1,1.2-2.5,2.2-3.9,2.9c-0.1-0.2-0.3-0.4-0.5-0.6c1.7-0.7,3.4-2.1,4.4-3.4L106.3,196z M109.3,200.4
				c-0.8,0.8-1.9,2-2.9,3c0.4,0.3,0.8,0.6,1,0.9l-0.5,0.6c-0.6-0.7-2-1.7-3.1-2.4l0.5-0.5c0.5,0.3,1,0.6,1.5,1
				c0.7-0.7,1.5-1.5,2.1-2.1h-5.3v-0.7h6l0.1,0L109.3,200.4z M107.6,198.6v0.7h-3.7v-0.7H107.6z"/>
			<path fill="#0C56AB" d="M116.1,197.8v1.5h3.5v0.7h-7.5v-0.7h3.3v-1.5h-3.9v-0.7h3.9v-1.4h0.8v1.4h4v0.7H116.1z M112.6,201.1h6.4
				v3.8h-0.8v-0.5h-4.9v0.5h-0.7V201.1z M113.4,201.8v2h4.9v-2H113.4z"/>
			<path fill="#0C56AB" d="M65,208.1c-0.8,1.2-2.1,2.3-3.3,2.9c-0.1-0.2-0.4-0.4-0.6-0.6c1.3-0.6,2.5-1.5,3.1-2.6L65,208.1z M69,216
				c0.4,0,0.4-0.2,0.5-1.2c0.2,0.1,0.5,0.2,0.7,0.3c-0.1,1.3-0.3,1.6-1.1,1.6h-1.6c-0.9,0-1.2-0.2-1.2-1v-2.3h-1
				c-0.2,1.8-0.8,3-3.3,3.6c-0.1-0.2-0.2-0.5-0.4-0.6c2.2-0.5,2.7-1.4,2.9-2.9h-1.3v-3.2h5.3v3.2h-1.5v2.3c0,0.3,0.1,0.3,0.5,0.3H69
				z M63.9,212.7h3.7v-1.8h-3.7V212.7z M69.7,211.1c-0.6-0.8-2-2-3.2-2.9l0.6-0.4c1.1,0.8,2.6,2,3.3,2.8L69.7,211.1z"/>
			<path fill="#0C56AB" d="M80.2,212.1v0.7h-4.2c0,0.3-0.1,0.5-0.1,0.8h4.1v0.6h-4.3c-0.5,1.4-1.5,2.2-4.2,2.7
				c-0.1-0.2-0.2-0.5-0.4-0.7c2.3-0.3,3.3-1,3.7-2h-3.4v-0.6h3.6c0.1-0.2,0.1-0.5,0.1-0.8h-3.9v-0.7h4v-0.8h-3.1v-0.6h3.1v-0.8h-3.7
				v-0.7h2.1c-0.2-0.3-0.5-0.8-0.8-1.2l0.6-0.3c0.4,0.4,0.7,0.9,0.9,1.3l-0.4,0.2h2.6c0.3-0.4,0.6-1,0.9-1.4l0.8,0.2
				c-0.2,0.4-0.5,0.8-0.8,1.2h2.1v0.7h-3.7v0.8h3.2v0.6h-3.2v0.8H80.2z M76.2,214.3c1.4,0.5,3.2,1.4,4.1,2l-0.3,0.6
				c-0.9-0.6-2.7-1.5-4-2.1L76.2,214.3z"/>
			<path fill="#0C56AB" d="M89.1,216c0.4,0,0.5-0.3,0.5-1.8c0.2,0.1,0.5,0.3,0.7,0.3c-0.1,1.7-0.3,2.2-1.1,2.2h-1.4
				c-0.9,0-1.1-0.3-1.1-1.1V212h-1.9c-0.2,2.1-0.7,3.9-3,4.8c-0.1-0.2-0.3-0.4-0.5-0.6c2.1-0.8,2.5-2.4,2.6-4.2h-2.5v-0.7h8.7v0.7
				h-2.8v3.5c0,0.3,0.1,0.4,0.5,0.4H89.1z M89.3,209.2h-7v-0.7h7V209.2z"/>
			<path fill="#0C56AB" d="M96.6,208c-0.1,0.2-0.2,0.3-0.3,0.4c1.2,1.2,2.6,2.1,4.1,2.7c-0.2,0.2-0.4,0.4-0.5,0.7
				c-0.6-0.3-1.1-0.6-1.6-0.9v0.7h-5v-0.5c-0.5,0.3-1,0.6-1.5,0.8c-0.1-0.2-0.3-0.5-0.5-0.6c1.9-0.8,3.7-2.1,4.7-3.6L96.6,208z
				 M92.8,212.9h6.2v3.9h-0.8v-0.5h-4.6v0.6h-0.8V212.9z M93.5,213.5v2.1h4.6v-2.1H93.5z M98.3,211c-0.9-0.5-1.7-1.2-2.4-2
				c-0.7,0.7-1.4,1.4-2.3,2H98.3z"/>
			<path fill="#0C56AB" d="M104.4,214.8c-1.1,0.4-2.2,0.7-3.1,1l-0.2-0.8c0.4-0.1,0.8-0.3,1.3-0.4V212h-1.1v-0.7h1.1v-2.2h-1.2v-0.7
				h3.1v0.7h-1.1v2.2h1v0.7h-1v2.5l1.1-0.4L104.4,214.8z M110.4,215.8v0.7H104v-0.7h3v-1.4h-2.3v-0.7h2.3v-1.2h-2.1v-4.4h5.1v4.4
				h-2.2v1.2h2.3v0.7h-2.3v1.4H110.4z M105.5,210.1h1.5v-1.3h-1.5V210.1z M105.5,212h1.5v-1.3h-1.5V212z M109.2,208.8h-1.5v1.3h1.5
				V208.8z M109.2,210.7h-1.5v1.3h1.5V210.7z"/>
			<path fill="#0C56AB" d="M113.8,208c-0.2,0.7-0.5,1.3-0.8,1.9v6.9h-0.7v-5.6c-0.3,0.5-0.6,0.9-0.9,1.3c-0.1-0.2-0.3-0.6-0.4-0.8
				c0.9-1,1.6-2.5,2.1-4.1L113.8,208z M116.5,215.8c-0.6,0.4-1.6,0.8-2.5,1c-0.1-0.1-0.3-0.4-0.4-0.5c0.9-0.2,1.8-0.6,2.3-0.9
				L116.5,215.8z M115.8,208.8h-1.9v-0.6h6.4v0.6h-2.1v0.6h1.8v1.9h-5.8v-1.9h1.7V208.8z M114.3,215.4v-3.6h5.5v3.6H114.3z
				 M114.8,210.8h1.1v-1h-1.1V210.8z M115,212.8h4.1v-0.6H115V212.8z M115,213.9h4.1v-0.6H115V213.9z M115,214.9h4.1v-0.6H115V214.9
				z M117.6,208.8h-1.1v0.6h1.1V208.8z M116.5,210.8h1.1v-1h-1.1V210.8z M118,215.5c0.9,0.3,1.8,0.7,2.4,1l-0.6,0.4
				c-0.5-0.3-1.4-0.7-2.2-1L118,215.5z M118.2,209.9v1h1.1v-1H118.2z"/>
			<path fill="#0C56AB" d="M124.4,208c-0.3,0.7-0.6,1.4-1,2.1v6.7h-0.7v-5.6c-0.3,0.4-0.6,0.8-1,1.2c-0.1-0.2-0.3-0.6-0.4-0.7
				c1-1,1.9-2.4,2.5-4L124.4,208z M130.3,215.7v0.7h-6.2v-0.7h3.5c0.4-1.3,0.8-3.5,0.9-4.9l0.8,0.1c-0.3,1.5-0.7,3.5-1,4.8H130.3z
				 M129.9,210.2h-5.4v-0.7h5.4V210.2z M125.8,215.3c-0.1-1-0.4-2.9-0.7-4.3l0.7-0.2c0.3,1.4,0.6,3.2,0.7,4.2L125.8,215.3z
				 M126.9,209.4c-0.1-0.4-0.3-1.1-0.5-1.6l0.7-0.2c0.2,0.5,0.4,1.1,0.5,1.5L126.9,209.4z"/>
		</g>
	</g>
	<circle fill="#EA5284" cx="154.4" cy="201.1" r="7.1"/>
	<g>
		<g>
			<path fill="#0C56AB" d="M168,204.4c0.6-0.5,1-1.4,1.1-2.3l0.7,0.2c-0.2,0.9-0.5,1.9-1.2,2.5L168,204.4z M176.9,201
				c0,0,0,0.2,0,0.3c-0.1,2.1-0.3,2.9-0.6,3.2c-0.2,0.2-0.4,0.3-0.6,0.3c-0.3,0-0.8,0-1.3,0c0-0.2-0.1-0.5-0.2-0.7
				c0.5,0.1,1,0.1,1.1,0.1c0.2,0,0.3,0,0.4-0.1c0.2-0.2,0.3-0.8,0.4-2.4h-6.8v-5.5h7v0.7H173v1h2.9v0.6H173v1h2.9v0.6H173v1H176.9z
				 M170,196.9v1h2.3v-1H170z M172.3,198.4H170v1h2.3V198.4z M170,201h2.3v-1H170V201z M171.2,202.3c0.2,0.6,0.3,1.4,0.3,2l-0.7,0.1
				c0-0.5-0.1-1.3-0.3-2L171.2,202.3z M172.8,202.2c0.3,0.5,0.5,1.3,0.6,1.7l-0.6,0.2c-0.1-0.5-0.3-1.2-0.6-1.8L172.8,202.2z
				 M174.7,203.6c-0.2-0.4-0.5-1-0.8-1.4l0.5-0.2c0.4,0.4,0.7,1,0.9,1.3L174.7,203.6z"/>
			<path fill="#0C56AB" d="M182.9,200.2c0.9,1.5,2.6,2.9,4.3,3.5c-0.2,0.2-0.4,0.5-0.5,0.7c-1.4-0.6-2.7-1.7-3.7-3v3.5h-0.8v-3.4
				c-1,1.3-2.3,2.3-3.7,3c-0.1-0.2-0.3-0.5-0.5-0.6c1.6-0.7,3.3-2,4.2-3.5v-2.4h-3.8v-0.7h3.8v-1.4h0.8v1.4h4v0.7h-4V200.2z
				 M180.8,198.2c-0.1,0.4-0.2,0.8-0.4,1.2c0.4,0.4,0.9,0.8,1.1,1.1L181,201c-0.2-0.3-0.6-0.6-0.9-1c-0.3,0.6-0.8,1.2-1.3,1.6
				c-0.1-0.1-0.4-0.4-0.6-0.5c0.9-0.7,1.5-1.7,1.8-3L180.8,198.2z M185.5,198.2c-0.1,0.4-0.2,0.8-0.3,1.2c0.6,0.5,1.4,1.1,1.8,1.5
				l-0.5,0.5c-0.3-0.4-1-0.9-1.6-1.4c-0.3,0.5-0.5,0.9-0.9,1.2c-0.1-0.1-0.4-0.3-0.6-0.4c0.7-0.6,1.2-1.6,1.4-2.7L185.5,198.2z"/>
			<path fill="#0C56AB" d="M194,197.1v1.4h2.5v6.2h-0.7v-0.6h-6.3v0.6h-0.7v-6.3h2.4v-1.4h-2.9v-0.7h8.7v0.7H194z M195.7,203.5v-1.7
				h-0.1h-1.3c-0.8,0-1-0.2-1-1v-1.6h-1.4c0,1-0.4,2.2-1.9,2.9c-0.1-0.2-0.3-0.4-0.4-0.5v1.9H195.7z M189.5,199.2v2.4
				c1.3-0.7,1.6-1.6,1.7-2.4H189.5z M193.3,197.1h-1.4v1.4h1.4V197.1z M194,199.2v1.6c0,0.3,0,0.3,0.4,0.3h1.2c0.1,0,0.2,0,0.2,0
				v-1.9H194z"/>
			<path fill="#0C56AB" d="M207,203.7v0.7h-8.9v-0.7h3v-1.8h-2.2v-3.3h2.2V197h-2.7v-0.7h8.4v0.7H204v1.5h2.3v3.3h-0.4v0H204v1.8
				H207z M201.8,201.3v2.4h1.5v-2.4h2.3v-2h-2.3V197h-1.5v2.2h-2.2v2H201.8z"/>
			<path fill="#0C56AB" d="M213.1,196c-0.1,0.1-0.1,0.1-0.2,0.2c1,1.1,2.7,2.2,4.2,2.7c-0.2,0.2-0.4,0.5-0.6,0.7
				c-1.3-0.6-3-1.7-4.1-2.9c-1.1,1.2-2.5,2.2-3.9,2.9c-0.1-0.2-0.3-0.4-0.5-0.6c1.7-0.7,3.4-2.1,4.4-3.4L213.1,196z M216.1,200.4
				c-0.8,0.8-1.9,2-2.9,3c0.4,0.3,0.8,0.6,1,0.9l-0.5,0.6c-0.6-0.7-2-1.7-3.1-2.4l0.5-0.5c0.5,0.3,1,0.6,1.5,1
				c0.7-0.7,1.5-1.5,2.1-2.1h-5.3v-0.7h6l0.1,0L216.1,200.4z M214.4,198.6v0.7h-3.7v-0.7H214.4z"/>
			<path fill="#0C56AB" d="M222.9,197.8v1.5h3.5v0.7h-7.5v-0.7h3.3v-1.5h-3.9v-0.7h3.9v-1.4h0.8v1.4h4v0.7H222.9z M219.4,201.1h6.4
				v3.8h-0.8v-0.5h-4.9v0.5h-0.7V201.1z M220.2,201.8v2h4.9v-2H220.2z"/>
			<path fill="#0C56AB" d="M231.8,196.1c-0.8,1.2-2.1,2.3-3.3,2.9c-0.1-0.2-0.4-0.4-0.6-0.6c1.3-0.6,2.5-1.5,3.1-2.6L231.8,196.1z
				 M235.8,204c0.4,0,0.4-0.2,0.5-1.2c0.2,0.1,0.5,0.2,0.7,0.3c-0.1,1.3-0.3,1.6-1.1,1.6h-1.6c-0.9,0-1.2-0.2-1.2-1v-2.3h-1
				c-0.2,1.8-0.8,3-3.3,3.6c-0.1-0.2-0.2-0.5-0.4-0.6c2.2-0.5,2.7-1.4,2.9-2.9h-1.3v-3.2h5.3v3.2h-1.5v2.3c0,0.3,0.1,0.3,0.5,0.3
				H235.8z M230.7,200.7h3.7v-1.8h-3.7V200.7z M236.5,199.1c-0.6-0.8-2-2-3.2-2.9l0.6-0.4c1.1,0.8,2.6,2,3.3,2.8L236.5,199.1z"/>
			<path fill="#0C56AB" d="M247,200.1v0.7h-4.2c0,0.3-0.1,0.5-0.1,0.8h4.1v0.6h-4.3c-0.5,1.4-1.5,2.2-4.2,2.7
				c-0.1-0.2-0.2-0.5-0.4-0.7c2.3-0.3,3.3-1,3.7-2h-3.4v-0.6h3.6c0.1-0.2,0.1-0.5,0.1-0.8h-3.9v-0.7h4v-0.8h-3.1v-0.6h3.1v-0.8h-3.7
				v-0.7h2.1c-0.2-0.3-0.5-0.8-0.8-1.2l0.6-0.3c0.4,0.4,0.7,0.9,0.9,1.3l-0.4,0.2h2.6c0.3-0.4,0.6-1,0.9-1.4l0.8,0.2
				c-0.2,0.4-0.5,0.8-0.8,1.2h2.1v0.7h-3.7v0.8h3.2v0.6h-3.2v0.8H247z M242.9,202.3c1.4,0.5,3.2,1.4,4.1,2l-0.3,0.6
				c-0.9-0.6-2.7-1.5-4-2.1L242.9,202.3z"/>
			<path fill="#0C56AB" d="M255.9,204c0.4,0,0.5-0.3,0.5-1.8c0.2,0.1,0.5,0.3,0.7,0.3c-0.1,1.7-0.3,2.2-1.1,2.2h-1.4
				c-0.9,0-1.1-0.3-1.1-1.1V200h-1.9c-0.2,2.1-0.7,3.9-3,4.8c-0.1-0.2-0.3-0.4-0.5-0.6c2.1-0.8,2.5-2.4,2.6-4.2h-2.5v-0.7h8.7v0.7
				h-2.8v3.5c0,0.3,0.1,0.4,0.5,0.4H255.9z M256.1,197.2h-7v-0.7h7V197.2z"/>
			<path fill="#0C56AB" d="M171.4,213.4c0.5,0.8,1.1,1.9,1.4,2.5l-0.7,0.4c-0.1-0.3-0.3-0.6-0.5-1c-2.5,0.9-2.8,1-3.1,1.2
				c0-0.2-0.2-0.6-0.3-0.8c0.2-0.1,0.4-0.3,0.4-0.6v-6.9h3.8v4.7h-3.1v2.5l1.9-0.6c-0.2-0.4-0.4-0.7-0.6-1L171.4,213.4z
				 M169.4,208.9v1.3h2.3v-1.3H169.4z M171.8,212.3v-1.4h-2.3v1.4H171.8z M176.7,214c0,0.4-0.1,0.6-0.4,0.7
				c-0.3,0.1-0.7,0.1-1.4,0.1c0-0.2-0.1-0.5-0.2-0.7c0.5,0,1,0,1.1,0c0.1,0,0.2,0,0.2-0.2v-5h-1.8v7.8h-0.7v-8.5h3.3V214z"/>
			<path fill="#0C56AB" d="M182.9,214.4H178v-0.7h1v-4.1h-0.8V209h0.8v-1.2h0.7v1.2h1.8v-1.2h0.7v1.2h0.7v0.7h-0.7v4.1h0.7V214.4z
				 M180.1,214.8c-0.4,0.8-0.9,1.5-1.5,2c-0.1-0.1-0.4-0.3-0.6-0.4c0.5-0.5,1.1-1.1,1.4-1.8L180.1,214.8z M179.6,209.7v0.9h1.8v-0.9
				H179.6z M179.6,212.2h1.8v-1h-1.8V212.2z M179.6,213.8h1.8v-1h-1.8V213.8z M181.4,214.6c0.4,0.5,0.9,1.1,1,1.5l-0.6,0.3
				c-0.2-0.4-0.6-1-1-1.5L181.4,214.6z M186.8,215.9c0,0.4-0.1,0.7-0.4,0.8c-0.3,0.1-0.8,0.1-1.5,0.1c0-0.2-0.1-0.5-0.2-0.7
				c0.5,0,1,0,1.2,0c0.2,0,0.2,0,0.2-0.2v-2.4H184c-0.1,1.2-0.3,2.5-0.9,3.4c-0.1-0.1-0.4-0.4-0.6-0.4c0.8-1.3,0.9-3.2,0.9-4.6v-3.6
				h3.5V215.9z M186.1,212.8v-1.7h-2v0.7c0,0.3,0,0.6,0,1H186.1z M184.1,208.9v1.6h2v-1.6H184.1z"/>
			<path fill="#0C56AB" d="M197,215.8v0.6h-8.5v-8.4h8.3v0.6h-7.6v7.1H197z M189.7,210.8c0.5,0.2,1.1,0.6,1.4,0.8l-0.4,0.5
				c-0.3-0.3-0.9-0.7-1.4-0.9L189.7,210.8z M191.4,213.1c-0.4,0.7-0.8,1.6-1.2,2.2l-0.5-0.5c0.4-0.5,0.9-1.4,1.3-2.2L191.4,213.1z
				 M191.2,210.3c-0.3-0.3-0.8-0.7-1.3-0.9l0.4-0.4c0.5,0.2,1,0.6,1.3,0.9L191.2,210.3z M195,210.7v0.8h1.4v0.5H195v0.8h1.4v0.6H195
				v0.9h1.7v0.6h-3.9v0.4h-0.7v-3.9c-0.2,0.3-0.4,0.6-0.7,0.8c-0.1-0.1-0.3-0.4-0.5-0.5c0.7-0.7,1.4-1.8,1.8-2.9l0.6,0.2
				c-0.1,0.4-0.3,0.7-0.4,1.1h1.5c-0.1-0.3-0.3-0.6-0.4-0.9l0.6-0.2c0.2,0.3,0.4,0.8,0.6,1.1h1.4v0.6H195z M194.3,210.7h-1.5v0.8
				h1.5V210.7z M194.3,212.1h-1.5v0.8h1.5V212.1z M194.3,213.5h-1.5v0.9h1.5V213.5z"/>
			<path fill="#0C56AB" d="M207,214.7H203v2.1h-0.8v-2.1h-4.1v-0.7h4.1v-0.8h0.8v0.8h4.1V214.7z M200.8,212.1
				c-0.8,0.4-1.6,0.8-2.2,1.2l-0.4-0.6c0.6-0.3,1.5-0.7,2.4-1.1L200.8,212.1z M204.2,213.4c0-0.2-0.1-0.3-0.3-0.5
				c-2.6,0.3-2.9,0.3-3.1,0.4c0-0.1-0.1-0.5-0.2-0.6c0.2,0,0.5-0.2,0.8-0.5c0.2-0.2,0.6-0.5,1.1-1c-1.1,0.1-1.4,0.1-1.5,0.2
				c0-0.1-0.1-0.5-0.2-0.6c0.1,0,0.3-0.1,0.4-0.3c0.1-0.1,0.5-0.5,0.8-1h-3.6v-0.7h4.1c-0.1-0.3-0.3-0.5-0.5-0.8l0.7-0.2
				c0.2,0.3,0.5,0.7,0.6,1h3.7v0.7h-4.2c-0.3,0.4-0.6,0.9-0.9,1.2l1.3-0.1c0.2-0.3,0.5-0.5,0.7-0.8l0.6,0.3
				c-0.8,0.9-1.7,1.8-2.5,2.5l1.7-0.1c-0.2-0.2-0.3-0.4-0.5-0.6l0.5-0.2c0.5,0.5,0.9,1.2,1.1,1.7L204.2,213.4z M199,209.7
				c0.5,0.3,1.2,0.8,1.5,1.1l-0.5,0.4c-0.3-0.3-1-0.8-1.5-1.2L199,209.7z M206.3,213.4c-0.4-0.4-1.3-1-2-1.4l0.5-0.4
				c0.7,0.4,1.5,0.9,2,1.4L206.3,213.4z M206.5,210.1c-0.4,0.5-1,0.9-1.5,1.2l-0.5-0.3c0.4-0.3,1.1-0.9,1.4-1.3L206.5,210.1z"/>
		</g>
	</g>
	<g>
		<path fill="#58595B" d="M1.3,3.5c0.5-0.8,1.3-1.2,2.4-1.2s1.9,0.5,2.4,1.2c0.5,0.8,0.7,1.8,0.7,2.8S6.6,8.4,6.1,9.2
			c-0.5,0.8-1.3,1.2-2.4,1.2S1.8,9.9,1.3,9.2C0.8,8.4,0.6,7.4,0.6,6.4S0.8,4.3,1.3,3.5z M2.4,8.9c0.3,0.3,0.7,0.5,1.2,0.5
			s0.9-0.2,1.2-0.5c0.5-0.5,0.7-1.3,0.7-2.5s-0.2-2-0.7-2.5C4.6,3.5,4.2,3.3,3.7,3.3S2.7,3.5,2.4,3.8C2,4.3,1.8,5.2,1.8,6.4
			S2,8.4,2.4,8.9z"/>
		<path fill="#58595B" d="M8.6,8.6C9,8.6,9.4,9,9.4,9.5S9,10.3,8.6,10.3S7.7,10,7.7,9.5S8.1,8.6,8.6,8.6z"/>
		<path fill="#58595B" d="M12.4,5.7l2.3-2.1h-3.7V2.5h5.3v1.1L14,5.6c1.1,0,2.4,0.8,2.4,2.4c0,1.3-1,2.5-2.8,2.5
			c-1.8,0-2.8-1.2-2.9-2.4l1.2-0.3c0,1,0.8,1.7,1.7,1.7c1.1,0,1.6-0.7,1.6-1.4c0-1-0.8-1.5-1.6-1.5c-0.2,0-0.5,0-0.7,0.1L12.4,5.7z"
			/>
		<path fill="#58595B" d="M22.8,3.7c-0.3-0.2-0.8-0.3-1.4-0.3c-1.6,0-2.6,1.2-2.7,2.8c0.3-0.5,1-1,2.1-1c1.5,0,2.7,1,2.7,2.7
			c0,1.7-1.4,2.7-2.9,2.7c-1.5,0-3-1-3-3.6c0-2.9,1.7-4.5,4-4.5c0.7,0,1.3,0.2,1.7,0.4L22.8,3.7z M20.5,9.4c0.9,0,1.7-0.6,1.7-1.6
			c0-1-0.8-1.6-1.7-1.6s-1.7,0.6-1.7,1.6C18.9,8.8,19.7,9.4,20.5,9.4z"/>
	</g>
	<g>
		<path fill="#58595B" d="M1.3,28.4c0.5-0.8,1.3-1.2,2.4-1.2s1.9,0.5,2.4,1.2c0.5,0.8,0.7,1.8,0.7,2.8S6.6,33.2,6.1,34
			c-0.5,0.8-1.3,1.2-2.4,1.2S1.8,34.8,1.3,34c-0.5-0.8-0.7-1.8-0.7-2.8S0.8,29.1,1.3,28.4z M2.4,33.7c0.3,0.3,0.7,0.5,1.2,0.5
			s0.9-0.2,1.2-0.5c0.5-0.5,0.7-1.3,0.7-2.5s-0.2-2-0.7-2.5c-0.3-0.3-0.7-0.5-1.2-0.5s-0.9,0.2-1.2,0.5C2,29.2,1.8,30,1.8,31.2
			S2,33.2,2.4,33.7z"/>
		<path fill="#58595B" d="M8.6,33.5c0.5,0,0.8,0.4,0.8,0.8S9,35.1,8.6,35.1s-0.8-0.4-0.8-0.8S8.1,33.5,8.6,33.5z"/>
		<path fill="#58595B" d="M12.4,30.5l2.3-2.1h-3.7v-1.1h5.3v1.1L14,30.4c1.1,0,2.4,0.8,2.4,2.4c0,1.3-1,2.5-2.8,2.5
			c-1.8,0-2.8-1.2-2.9-2.4l1.2-0.3c0,1,0.8,1.7,1.7,1.7c1.1,0,1.6-0.7,1.6-1.4c0-1-0.8-1.5-1.6-1.5c-0.2,0-0.5,0-0.7,0.1L12.4,30.5z
			"/>
		<path fill="#58595B" d="M17.3,32l3.3-4.7h1.6v4.9h1.3v1.1h-1.3v1.8h-1.1v-1.8h-3.8V32z M21.1,28.4l-2.7,3.8h2.7V28.4z"/>
	</g>
	<g>
		<path fill="#58595B" d="M1.3,53.2c0.5-0.8,1.3-1.2,2.4-1.2s1.9,0.5,2.4,1.2c0.5,0.8,0.7,1.8,0.7,2.8S6.6,58,6.1,58.8
			c-0.5,0.8-1.3,1.2-2.4,1.2s-1.9-0.5-2.4-1.2C0.8,58,0.6,57.1,0.6,56S0.8,53.9,1.3,53.2z M2.4,58.5C2.7,58.8,3.1,59,3.7,59
			s0.9-0.2,1.2-0.5C5.4,58,5.6,57.2,5.6,56s-0.2-2-0.7-2.5C4.6,53.2,4.2,53,3.7,53s-0.9,0.2-1.2,0.5C2,54,1.8,54.8,1.8,56
			S2,58,2.4,58.5z"/>
		<path fill="#58595B" d="M8.6,58.3c0.5,0,0.8,0.4,0.8,0.8S9,59.9,8.6,59.9s-0.8-0.4-0.8-0.8S8.1,58.3,8.6,58.3z"/>
		<path fill="#58595B" d="M12.4,55.3l2.3-2.1h-3.7v-1.1h5.3v1.1L14,55.2c1.1,0,2.4,0.8,2.4,2.4c0,1.3-1,2.5-2.8,2.5
			c-1.8,0-2.8-1.2-2.9-2.4l1.2-0.3c0,1,0.8,1.7,1.7,1.7c1.1,0,1.6-0.7,1.6-1.4c0-1-0.8-1.5-1.6-1.5c-0.2,0-0.5,0-0.7,0.1L12.4,55.3z
			"/>
		<path fill="#58595B" d="M17.4,54.8c0-0.1,0-0.2,0-0.3c0-1.3,1-2.5,2.7-2.5c1.7,0,2.6,1.1,2.6,2.4c0,1-0.6,1.8-1.5,2.4l-1.5,1
			c-0.4,0.3-0.8,0.6-0.9,1.1h4v1.1h-5.4c0-1.3,0.5-2.2,1.8-3.1l1.3-0.8c0.7-0.5,1.1-1,1.1-1.6c0-0.7-0.5-1.4-1.5-1.4
			c-1,0-1.5,0.7-1.5,1.6c0,0.1,0,0.2,0,0.3L17.4,54.8z"/>
	</g>
	<g>
		<path fill="#58595B" d="M1.3,78c0.5-0.8,1.3-1.2,2.4-1.2s1.9,0.5,2.4,1.2c0.5,0.8,0.7,1.8,0.7,2.8s-0.2,2.1-0.7,2.8
			c-0.5,0.8-1.3,1.2-2.4,1.2s-1.9-0.5-2.4-1.2c-0.5-0.8-0.7-1.8-0.7-2.8S0.8,78.8,1.3,78z M2.4,83.3c0.3,0.3,0.7,0.5,1.2,0.5
			s0.9-0.2,1.2-0.5c0.5-0.5,0.7-1.3,0.7-2.5s-0.2-2-0.7-2.5c-0.3-0.3-0.7-0.5-1.2-0.5S2.7,78,2.4,78.3c-0.5,0.5-0.7,1.3-0.7,2.5
			S2,82.8,2.4,83.3z"/>
		<path fill="#58595B" d="M8.6,83.1c0.5,0,0.8,0.4,0.8,0.8S9,84.8,8.6,84.8s-0.8-0.4-0.8-0.8S8.1,83.1,8.6,83.1z"/>
		<path fill="#58595B" d="M12.4,80.1l2.3-2.1h-3.7v-1.1h5.3V78L14,80c1.1,0,2.4,0.8,2.4,2.4c0,1.3-1,2.5-2.8,2.5
			c-1.8,0-2.8-1.2-2.9-2.4l1.2-0.3c0,1,0.8,1.7,1.7,1.7c1.1,0,1.6-0.7,1.6-1.4c0-1-0.8-1.5-1.6-1.5c-0.2,0-0.5,0-0.7,0.1L12.4,80.1z
			"/>
		<path fill="#58595B" d="M18.2,78c0.5-0.8,1.3-1.2,2.4-1.2s1.9,0.5,2.4,1.2c0.5,0.8,0.7,1.8,0.7,2.8s-0.2,2.1-0.7,2.8
			c-0.5,0.8-1.3,1.2-2.4,1.2s-1.9-0.5-2.4-1.2c-0.5-0.8-0.7-1.8-0.7-2.8S17.7,78.8,18.2,78z M19.3,83.3c0.3,0.3,0.7,0.5,1.2,0.5
			s0.9-0.2,1.2-0.5c0.5-0.5,0.7-1.3,0.7-2.5s-0.2-2-0.7-2.5c-0.3-0.3-0.7-0.5-1.2-0.5s-0.9,0.2-1.2,0.5c-0.5,0.5-0.7,1.3-0.7,2.5
			S18.9,82.8,19.3,83.3z"/>
	</g>
	<g>
		<path fill="#58595B" d="M1.3,102.8c0.5-0.8,1.3-1.2,2.4-1.2s1.9,0.5,2.4,1.2c0.5,0.8,0.7,1.8,0.7,2.8s-0.2,2.1-0.7,2.8
			c-0.5,0.8-1.3,1.2-2.4,1.2s-1.9-0.5-2.4-1.2c-0.5-0.8-0.7-1.8-0.7-2.8S0.8,103.6,1.3,102.8z M2.4,108.1c0.3,0.3,0.7,0.5,1.2,0.5
			s0.9-0.2,1.2-0.5c0.5-0.5,0.7-1.3,0.7-2.5s-0.2-2-0.7-2.5c-0.3-0.3-0.7-0.5-1.2-0.5s-0.9,0.2-1.2,0.5c-0.5,0.5-0.7,1.3-0.7,2.5
			S2,107.6,2.4,108.1z"/>
		<path fill="#58595B" d="M8.6,107.9c0.5,0,0.8,0.4,0.8,0.8s-0.4,0.8-0.8,0.8s-0.8-0.4-0.8-0.8S8.1,107.9,8.6,107.9z"/>
		<path fill="#58595B" d="M10.8,104.4c0-0.1,0-0.2,0-0.3c0-1.3,1-2.5,2.7-2.5c1.7,0,2.6,1.1,2.6,2.4c0,1-0.6,1.8-1.5,2.4l-1.5,1
			c-0.4,0.3-0.8,0.6-0.9,1.1h4v1.1h-5.4c0-1.3,0.5-2.2,1.8-3.1l1.3-0.8c0.7-0.5,1.1-1,1.1-1.6c0-0.7-0.5-1.4-1.5-1.4
			c-1,0-1.5,0.7-1.5,1.6c0,0.1,0,0.2,0,0.3L10.8,104.4z"/>
		<path fill="#58595B" d="M17.1,107.5c0-0.9,0.6-1.6,1.5-1.9c-0.7-0.3-1.3-1-1.3-1.8c0-1.3,1.1-2.2,2.6-2.2s2.6,0.9,2.6,2.2
			c0,0.8-0.6,1.6-1.3,1.8c0.8,0.3,1.5,1,1.5,1.9c0,1.2-1,2.2-2.8,2.2S17.1,108.7,17.1,107.5z M21.6,107.4c0-0.7-0.6-1.3-1.6-1.3
			s-1.6,0.6-1.6,1.3c0,0.7,0.6,1.3,1.6,1.3C21,108.7,21.6,108.1,21.6,107.4z M21.4,103.8c0-0.7-0.6-1.2-1.4-1.2
			c-0.9,0-1.4,0.6-1.4,1.2c0,0.8,0.6,1.3,1.4,1.3C20.8,105,21.4,104.5,21.4,103.8z"/>
	</g>
	<g>
		<path fill="#58595B" d="M1.3,127.6c0.5-0.8,1.3-1.2,2.4-1.2s1.9,0.5,2.4,1.2c0.5,0.8,0.7,1.8,0.7,2.8s-0.2,2.1-0.7,2.8
			c-0.5,0.8-1.3,1.2-2.4,1.2s-1.9-0.5-2.4-1.2c-0.5-0.8-0.7-1.8-0.7-2.8S0.8,128.4,1.3,127.6z M2.4,132.9c0.3,0.3,0.7,0.5,1.2,0.5
			s0.9-0.2,1.2-0.5c0.5-0.5,0.7-1.3,0.7-2.5s-0.2-2-0.7-2.5c-0.3-0.3-0.7-0.5-1.2-0.5s-0.9,0.2-1.2,0.5c-0.5,0.5-0.7,1.3-0.7,2.5
			S2,132.5,2.4,132.9z"/>
		<path fill="#58595B" d="M8.6,132.7c0.5,0,0.8,0.4,0.8,0.8s-0.4,0.8-0.8,0.8s-0.8-0.4-0.8-0.8S8.1,132.7,8.6,132.7z"/>
		<path fill="#58595B" d="M10.8,129.2c0-0.1,0-0.2,0-0.3c0-1.3,1-2.5,2.7-2.5c1.7,0,2.6,1.1,2.6,2.4c0,1-0.6,1.8-1.5,2.4l-1.5,1
			c-0.4,0.3-0.8,0.6-0.9,1.1h4v1.1h-5.4c0-1.3,0.5-2.2,1.8-3.1l1.3-0.8c0.7-0.5,1.1-1,1.1-1.6c0-0.7-0.5-1.4-1.5-1.4
			c-1,0-1.5,0.7-1.5,1.6c0,0.1,0,0.2,0,0.3L10.8,129.2z"/>
		<path fill="#58595B" d="M22.5,127.8c-0.3-0.2-0.8-0.3-1.4-0.3c-1.6,0-2.6,1.2-2.7,2.8c0.3-0.5,1-1,2.1-1c1.5,0,2.7,1,2.7,2.7
			c0,1.7-1.4,2.7-2.9,2.7c-1.5,0-3-1-3-3.6c0-2.9,1.7-4.5,4-4.5c0.7,0,1.3,0.2,1.7,0.4L22.5,127.8z M20.2,133.5
			c0.9,0,1.7-0.6,1.7-1.6c0-1-0.8-1.6-1.7-1.6s-1.7,0.6-1.7,1.6C18.6,132.9,19.4,133.5,20.2,133.5z"/>
	</g>
	<g>
		<path fill="#58595B" d="M1.3,152.4c0.5-0.8,1.3-1.2,2.4-1.2s1.9,0.5,2.4,1.2c0.5,0.8,0.7,1.8,0.7,2.8s-0.2,2.1-0.7,2.8
			c-0.5,0.8-1.3,1.2-2.4,1.2s-1.9-0.5-2.4-1.2c-0.5-0.8-0.7-1.8-0.7-2.8S0.8,153.2,1.3,152.4z M2.4,157.8c0.3,0.3,0.7,0.5,1.2,0.5
			s0.9-0.2,1.2-0.5c0.5-0.5,0.7-1.3,0.7-2.5s-0.2-2-0.7-2.5c-0.3-0.3-0.7-0.5-1.2-0.5s-0.9,0.2-1.2,0.5c-0.5,0.5-0.7,1.3-0.7,2.5
			S2,157.3,2.4,157.8z"/>
		<path fill="#58595B" d="M8.6,157.5c0.5,0,0.8,0.4,0.8,0.8s-0.4,0.8-0.8,0.8s-0.8-0.4-0.8-0.8S8.1,157.5,8.6,157.5z"/>
		<path fill="#58595B" d="M10.8,154c0-0.1,0-0.2,0-0.3c0-1.3,1-2.5,2.7-2.5c1.7,0,2.6,1.1,2.6,2.4c0,1-0.6,1.8-1.5,2.4l-1.5,1
			c-0.4,0.3-0.8,0.6-0.9,1.1h4v1.1h-5.4c0-1.3,0.5-2.2,1.8-3.1l1.3-0.8c0.7-0.5,1.1-1,1.1-1.6c0-0.7-0.5-1.4-1.5-1.4
			c-1,0-1.5,0.7-1.5,1.6c0,0.1,0,0.2,0,0.3L10.8,154z"/>
		<path fill="#58595B" d="M16.8,156l3.3-4.7h1.6v4.9h1.3v1.1h-1.3v1.8h-1.1v-1.8h-3.8V156z M20.6,152.5l-2.7,3.8h2.7V152.5z"/>
	</g>
	<polyline fill="none" stroke="#EA5284" stroke-width="0.9213" stroke-linejoin="bevel" stroke-miterlimit="10" points="70.6,21.8 
		81.6,11.4 88.9,17.8 98.6,10.6 106,39.4 110.8,25 116.9,36.2 124.3,14.6 137.7,37.8 157.2,21 164.5,23.4 168.1,30.6 180.3,21 
		193.7,53.1 205.9,33.8 214.5,54.7 244.9,35.4 270.5,90.7 277.8,76.3 303.4,140.3 316.9,129.1 330.3,107.5 337.6,121.9 348.6,117.9 
		358.3,146.7 380.2,131.5 392.4,129.9 	"/>
	<path fill="none" stroke="#0C56AB" stroke-width="0.9213" stroke-linejoin="bevel" stroke-miterlimit="10" d="M75.5,45.8l40.2-26.4
		l46.3-3.2l40.2,6.4c0,0,17.1,14.4,21.9,15.2c4.9,0.8,29.3-0.8,35.4,0c6.1,0.8,26.8,15.2,26.8,15.2l18.3,31.2l23.2,13.6l29.3-17.6
		c0,0,24.4,14.4,26.8,16.8c2.4,2.4,13.4,17.6,13.4,17.6"/>
	<line fill="none" stroke="#58595B" stroke-width="0.8102" stroke-miterlimit="10" x1="40.1" y1="6.6" x2="426.6" y2="6.6"/>
	<line fill="none" stroke="#58595B" stroke-width="0.8102" stroke-miterlimit="10" x1="40.1" y1="31.4" x2="426.6" y2="31.4"/>
	<line fill="none" stroke="#58595B" stroke-width="0.8102" stroke-miterlimit="10" x1="40.1" y1="56.3" x2="426.6" y2="56.3"/>
	<line fill="none" stroke="#58595B" stroke-width="0.8102" stroke-miterlimit="10" x1="40.1" y1="81.1" x2="426.6" y2="81.1"/>
	<line fill="none" stroke="#58595B" stroke-width="0.8102" stroke-miterlimit="10" x1="40.1" y1="105.9" x2="426.6" y2="105.9"/>
	<line fill="none" stroke="#58595B" stroke-width="0.8102" stroke-miterlimit="10" x1="40.1" y1="130.7" x2="426.6" y2="130.7"/>
	<line fill="none" stroke="#58595B" stroke-width="0.8102" stroke-miterlimit="10" x1="40.1" y1="155.5" x2="426.6" y2="155.5"/>
	<line fill="none" stroke="#414042" stroke-width="0.1702" stroke-miterlimit="10" x1="59.2" y1="166.3" x2="59.2" y2="159.9"/>
	<line fill="none" stroke="#414042" stroke-width="0.1702" stroke-miterlimit="10" x1="285.1" y1="166.3" x2="285.1" y2="159.9"/>
	<line fill="none" stroke="#414042" stroke-width="0.1702" stroke-miterlimit="10" x1="228.6" y1="166.3" x2="228.6" y2="159.9"/>
	<line fill="none" stroke="#414042" stroke-width="0.1702" stroke-miterlimit="10" x1="172.2" y1="166.3" x2="172.2" y2="159.9"/>
	<line fill="none" stroke="#414042" stroke-width="0.1702" stroke-miterlimit="10" x1="115.7" y1="166.3" x2="115.7" y2="159.9"/>
	<line fill="none" stroke="#414042" stroke-width="0.1702" stroke-miterlimit="10" x1="341.6" y1="166.3" x2="341.6" y2="159.9"/>
	<line fill="none" stroke="#414042" stroke-width="0.1702" stroke-miterlimit="10" x1="398.1" y1="166.3" x2="398.1" y2="159.9"/>
	<g>
		<path fill="#58595B" d="M50.6,175.9c0-0.1,0-0.2,0-0.3c0-1.1,0.8-2.1,2.2-2.1c1.4,0,2.2,0.9,2.2,2c0,0.8-0.5,1.5-1.2,2l-1.3,0.8
			c-0.4,0.2-0.7,0.5-0.8,0.9h3.3v0.9h-4.5c0-1.1,0.4-1.9,1.5-2.6l1.1-0.7c0.6-0.4,0.9-0.8,0.9-1.3c0-0.6-0.4-1.1-1.2-1.1
			c-0.8,0-1.2,0.6-1.2,1.3c0,0.1,0,0.2,0,0.3L50.6,175.9z"/>
		<path fill="#58595B" d="M56.6,174.6c0.4-0.6,1.1-1,2-1c0.9,0,1.6,0.4,2,1c0.4,0.6,0.6,1.5,0.6,2.3c0,0.9-0.1,1.7-0.6,2.3
			c-0.4,0.6-1.1,1-2,1c-0.9,0-1.6-0.4-2-1c-0.4-0.6-0.6-1.5-0.6-2.3C56,176,56.1,175.2,56.6,174.6z M57.5,179c0.3,0.3,0.6,0.4,1,0.4
			c0.5,0,0.8-0.2,1-0.4c0.4-0.4,0.6-1.1,0.6-2.1s-0.2-1.7-0.6-2.1c-0.3-0.3-0.6-0.4-1-0.4c-0.5,0-0.8,0.2-1,0.4
			c-0.4,0.4-0.6,1.1-0.6,2.1S57.1,178.6,57.5,179z"/>
		<path fill="#58595B" d="M63.4,180.2v-4.6h-1.6v-0.7c0.9,0,1.5-0.5,1.7-1.2h0.9v6.5H63.4z"/>
		<path fill="#58595B" d="M66.9,180.2v-4.6h-1.6v-0.7c0.9,0,1.5-0.5,1.7-1.2h0.9v6.5H66.9z"/>
	</g>
	<g>
		<path fill="#58595B" d="M104.9,175.9c0-0.1,0-0.2,0-0.3c0-1.1,0.8-2.1,2.2-2.1c1.4,0,2.2,0.9,2.2,2c0,0.8-0.5,1.5-1.2,2l-1.3,0.8
			c-0.4,0.2-0.7,0.5-0.8,0.9h3.3v0.9h-4.5c0-1.1,0.4-1.9,1.5-2.6l1.1-0.7c0.6-0.4,0.9-0.8,0.9-1.3c0-0.6-0.4-1.1-1.2-1.1
			c-0.8,0-1.2,0.6-1.2,1.3c0,0.1,0,0.2,0,0.3L104.9,175.9z"/>
		<path fill="#58595B" d="M110.8,174.6c0.4-0.6,1.1-1,2-1c0.9,0,1.6,0.4,2,1c0.4,0.6,0.6,1.5,0.6,2.3c0,0.9-0.1,1.7-0.6,2.3
			c-0.4,0.6-1.1,1-2,1c-0.9,0-1.6-0.4-2-1c-0.4-0.6-0.6-1.5-0.6-2.3C110.2,176,110.4,175.2,110.8,174.6z M111.8,179
			c0.3,0.3,0.6,0.4,1,0.4c0.5,0,0.8-0.2,1-0.4c0.4-0.4,0.6-1.1,0.6-2.1s-0.2-1.7-0.6-2.1c-0.3-0.3-0.6-0.4-1-0.4
			c-0.5,0-0.8,0.2-1,0.4c-0.4,0.4-0.6,1.1-0.6,2.1S111.4,178.6,111.8,179z"/>
		<path fill="#58595B" d="M117.6,180.2v-4.6h-1.6v-0.7c0.9,0,1.5-0.5,1.7-1.2h0.9v6.5H117.6z"/>
		<path fill="#58595B" d="M119.8,175.9c0-0.1,0-0.2,0-0.3c0-1.1,0.8-2.1,2.2-2.1c1.4,0,2.2,0.9,2.2,2c0,0.8-0.5,1.5-1.2,2l-1.3,0.8
			c-0.4,0.2-0.7,0.5-0.8,0.9h3.3v0.9h-4.5c0-1.1,0.4-1.9,1.5-2.6l1.1-0.7c0.6-0.4,0.9-0.8,0.9-1.3c0-0.6-0.4-1.1-1.2-1.1
			c-0.8,0-1.2,0.6-1.2,1.3c0,0.1,0,0.2,0,0.3L119.8,175.9z"/>
	</g>
	<g>
		<path fill="#58595B" d="M161.3,175.9c0-0.1,0-0.2,0-0.3c0-1.1,0.8-2.1,2.2-2.1c1.4,0,2.2,0.9,2.2,2c0,0.8-0.5,1.5-1.2,2l-1.3,0.8
			c-0.4,0.2-0.7,0.5-0.8,0.9h3.3v0.9h-4.5c0-1.1,0.4-1.9,1.5-2.6l1.1-0.7c0.6-0.4,0.9-0.8,0.9-1.3c0-0.6-0.4-1.1-1.2-1.1
			c-0.8,0-1.2,0.6-1.2,1.3c0,0.1,0,0.2,0,0.3L161.3,175.9z"/>
		<path fill="#58595B" d="M167.2,174.6c0.4-0.6,1.1-1,2-1c0.9,0,1.6,0.4,2,1c0.4,0.6,0.6,1.5,0.6,2.3c0,0.9-0.1,1.7-0.6,2.3
			c-0.4,0.6-1.1,1-2,1c-0.9,0-1.6-0.4-2-1c-0.4-0.6-0.6-1.5-0.6-2.3C166.6,176,166.8,175.2,167.2,174.6z M168.2,179
			c0.3,0.3,0.6,0.4,1,0.4c0.5,0,0.8-0.2,1-0.4c0.4-0.4,0.6-1.1,0.6-2.1s-0.2-1.7-0.6-2.1c-0.3-0.3-0.6-0.4-1-0.4
			c-0.5,0-0.8,0.2-1,0.4c-0.4,0.4-0.6,1.1-0.6,2.1S167.8,178.6,168.2,179z"/>
		<path fill="#58595B" d="M174,180.2v-4.6h-1.6v-0.7c0.9,0,1.5-0.5,1.7-1.2h0.9v6.5H174z"/>
		<path fill="#58595B" d="M177.5,176.3l1.9-1.8h-3.1v-0.9h4.4v0.9l-1.8,1.7c1,0,2,0.6,2,2c0,1.1-0.8,2.1-2.3,2.1c-1.5,0-2.3-1-2.4-2
			l1-0.2c0,0.9,0.7,1.4,1.4,1.4c0.9,0,1.4-0.5,1.4-1.2c0-0.8-0.7-1.2-1.3-1.2c-0.2,0-0.4,0-0.6,0.1L177.5,176.3z"/>
	</g>
	<g>
		<path fill="#58595B" d="M217.9,175.9c0-0.1,0-0.2,0-0.3c0-1.1,0.8-2.1,2.2-2.1c1.4,0,2.2,0.9,2.2,2c0,0.8-0.5,1.5-1.2,2l-1.3,0.8
			c-0.4,0.2-0.7,0.5-0.8,0.9h3.3v0.9h-4.5c0-1.1,0.4-1.9,1.5-2.6l1.1-0.7c0.6-0.4,0.9-0.8,0.9-1.3c0-0.6-0.4-1.1-1.2-1.1
			c-0.8,0-1.2,0.6-1.2,1.3c0,0.1,0,0.2,0,0.3L217.9,175.9z"/>
		<path fill="#58595B" d="M223.8,174.6c0.4-0.6,1.1-1,2-1c0.9,0,1.6,0.4,2,1c0.4,0.6,0.6,1.5,0.6,2.3c0,0.9-0.1,1.7-0.6,2.3
			c-0.4,0.6-1.1,1-2,1c-0.9,0-1.6-0.4-2-1c-0.4-0.6-0.6-1.5-0.6-2.3C223.2,176,223.4,175.2,223.8,174.6z M224.8,179
			c0.3,0.3,0.6,0.4,1,0.4c0.5,0,0.8-0.2,1-0.4c0.4-0.4,0.6-1.1,0.6-2.1s-0.2-1.7-0.6-2.1c-0.3-0.3-0.6-0.4-1-0.4
			c-0.5,0-0.8,0.2-1,0.4c-0.4,0.4-0.6,1.1-0.6,2.1S224.4,178.6,224.8,179z"/>
		<path fill="#58595B" d="M230.6,180.2v-4.6h-1.6v-0.7c0.9,0,1.5-0.5,1.7-1.2h0.9v6.5H230.6z"/>
		<path fill="#58595B" d="M232.7,177.6l2.8-3.9h1.3v4.1h1.1v0.9h-1.1v1.5h-0.9v-1.5h-3.2V177.6z M235.9,174.6l-2.3,3.2h2.3V174.6z"
			/>
	</g>
	<g>
		<path fill="#58595B" d="M274.9,175.9c0-0.1,0-0.2,0-0.3c0-1.1,0.8-2.1,2.2-2.1c1.4,0,2.2,0.9,2.2,2c0,0.8-0.5,1.5-1.2,2l-1.3,0.8
			c-0.4,0.2-0.7,0.5-0.8,0.9h3.3v0.9h-4.5c0-1.1,0.4-1.9,1.5-2.6l1.1-0.7c0.6-0.4,0.9-0.8,0.9-1.3c0-0.6-0.4-1.1-1.2-1.1
			c-0.8,0-1.2,0.6-1.2,1.3c0,0.1,0,0.2,0,0.3L274.9,175.9z"/>
		<path fill="#58595B" d="M280.9,174.6c0.4-0.6,1.1-1,2-1s1.6,0.4,2,1c0.4,0.6,0.6,1.5,0.6,2.3c0,0.9-0.1,1.7-0.6,2.3
			c-0.4,0.6-1.1,1-2,1s-1.6-0.4-2-1c-0.4-0.6-0.6-1.5-0.6-2.3C280.3,176,280.4,175.2,280.9,174.6z M281.8,179c0.3,0.3,0.6,0.4,1,0.4
			c0.5,0,0.8-0.2,1-0.4c0.4-0.4,0.6-1.1,0.6-2.1s-0.2-1.7-0.6-2.1c-0.3-0.3-0.6-0.4-1-0.4c-0.5,0-0.8,0.2-1,0.4
			c-0.4,0.4-0.6,1.1-0.6,2.1S281.4,178.6,281.8,179z"/>
		<path fill="#58595B" d="M287.7,180.2v-4.6h-1.6v-0.7c0.9,0,1.5-0.5,1.7-1.2h0.9v6.5H287.7z"/>
		<path fill="#58595B" d="M290.7,178.1c0.1,0.8,0.6,1.3,1.5,1.3c0.8,0,1.4-0.5,1.4-1.3c0-0.9-0.6-1.3-1.4-1.3
			c-0.5,0-0.9,0.2-1.2,0.5c-0.3-0.1-0.6-0.3-1-0.4l0.8-3.2h3.4v0.9h-2.8l-0.5,1.9c0.3-0.3,0.8-0.5,1.3-0.5c1.3,0,2.2,0.8,2.2,2.1
			c0,1.2-0.9,2.2-2.4,2.2c-1.4,0-2.3-0.9-2.4-1.9L290.7,178.1z"/>
	</g>
	<g>
		<path fill="#58595B" d="M331.5,175.9c0-0.1,0-0.2,0-0.3c0-1.1,0.8-2.1,2.2-2.1c1.4,0,2.2,0.9,2.2,2c0,0.8-0.5,1.5-1.2,2l-1.3,0.8
			c-0.4,0.2-0.7,0.5-0.8,0.9h3.3v0.9h-4.5c0-1.1,0.4-1.9,1.5-2.6l1.1-0.7c0.6-0.4,0.9-0.8,0.9-1.3c0-0.6-0.4-1.1-1.2-1.1
			c-0.8,0-1.2,0.6-1.2,1.3c0,0.1,0,0.2,0,0.3L331.5,175.9z"/>
		<path fill="#58595B" d="M337.4,174.6c0.4-0.6,1.1-1,2-1c0.9,0,1.6,0.4,2,1c0.4,0.6,0.6,1.5,0.6,2.3c0,0.9-0.1,1.7-0.6,2.3
			c-0.4,0.6-1.1,1-2,1c-0.9,0-1.6-0.4-2-1c-0.4-0.6-0.6-1.5-0.6-2.3C336.9,176,337,175.2,337.4,174.6z M338.4,179
			c0.3,0.3,0.6,0.4,1,0.4c0.5,0,0.8-0.2,1-0.4c0.4-0.4,0.6-1.1,0.6-2.1s-0.2-1.7-0.6-2.1c-0.3-0.3-0.6-0.4-1-0.4
			c-0.5,0-0.8,0.2-1,0.4c-0.4,0.4-0.6,1.1-0.6,2.1S338,178.6,338.4,179z"/>
		<path fill="#58595B" d="M344.3,180.2v-4.6h-1.6v-0.7c0.9,0,1.5-0.5,1.7-1.2h0.9v6.5H344.3z"/>
		<path fill="#58595B" d="M351,174.7c-0.2-0.1-0.7-0.3-1.2-0.3c-1.3,0-2.2,1-2.3,2.3c0.3-0.4,0.8-0.8,1.7-0.8c1.3,0,2.2,0.8,2.2,2.2
			c0,1.4-1.1,2.2-2.4,2.2c-1.2,0-2.5-0.9-2.5-3c0-2.4,1.4-3.8,3.3-3.8c0.6,0,1.1,0.1,1.4,0.4L351,174.7z M349.1,179.5
			c0.8,0,1.4-0.5,1.4-1.4c0-0.9-0.6-1.4-1.4-1.4c-0.7,0-1.4,0.5-1.4,1.4C347.7,178.9,348.4,179.5,349.1,179.5z"/>
	</g>
	<g>
		<path fill="#58595B" d="M388.4,175.9c0-0.1,0-0.2,0-0.3c0-1.1,0.8-2.1,2.2-2.1c1.4,0,2.2,0.9,2.2,2c0,0.8-0.5,1.5-1.2,2l-1.3,0.8
			c-0.4,0.2-0.7,0.5-0.8,0.9h3.3v0.9h-4.5c0-1.1,0.4-1.9,1.5-2.6l1.1-0.7c0.6-0.4,0.9-0.8,0.9-1.3c0-0.6-0.4-1.1-1.2-1.1
			c-0.8,0-1.2,0.6-1.2,1.3c0,0.1,0,0.2,0,0.3L388.4,175.9z"/>
		<path fill="#58595B" d="M394.4,174.6c0.4-0.6,1.1-1,2-1c0.9,0,1.6,0.4,2,1c0.4,0.6,0.6,1.5,0.6,2.3c0,0.9-0.1,1.7-0.6,2.3
			c-0.4,0.6-1.1,1-2,1c-0.9,0-1.6-0.4-2-1c-0.4-0.6-0.6-1.5-0.6-2.3C393.8,176,394,175.2,394.4,174.6z M395.3,179
			c0.3,0.3,0.6,0.4,1,0.4c0.5,0,0.8-0.2,1-0.4c0.4-0.4,0.6-1.1,0.6-2.1s-0.2-1.7-0.6-2.1c-0.3-0.3-0.6-0.4-1-0.4
			c-0.5,0-0.8,0.2-1,0.4c-0.4,0.4-0.6,1.1-0.6,2.1S395,178.6,395.3,179z"/>
		<path fill="#58595B" d="M401.2,180.2v-4.6h-1.6v-0.7c0.9,0,1.5-0.5,1.7-1.2h0.9v6.5H401.2z"/>
		<path fill="#58595B" d="M407.8,174.6c-0.6,0.5-2.4,2.1-2.7,5.5h-1c0.3-3.8,2.7-5.6,2.7-5.6H403v-0.9h4.7V174.6z"/>
	</g>
	<g>
		<rect x="276.5" y="210.5" fill="none" width="155.1" height="10.3"/>
		<path fill="#58595B" d="M279.2,213h-2.2v-0.3h2.2V213z M279.7,217.1c-0.6,0.4-1.6,0.7-2.4,0.9c-0.1-0.1-0.2-0.2-0.3-0.3
			c0.8-0.2,1.8-0.5,2.4-0.8L279.7,217.1z M278.9,211.7h-1.8v-0.3h1.8V211.7z M278,213.7h5.1v3.2H278V213.7z M278.4,214.6h4.3V214
			h-4.3V214.6z M278.4,215.6h4.3v-0.7h-4.3V215.6z M278.4,216.6h4.3v-0.7h-4.3V216.6z M280.4,211.8c-0.2,0.3-0.4,0.6-0.6,0.9
			c-0.1-0.1-0.2-0.2-0.3-0.2c0.4-0.4,0.7-1,0.9-1.6l0.4,0.1c-0.1,0.2-0.1,0.3-0.2,0.5h3l0.1,0l0.3,0.1c-0.2,0.4-0.4,0.8-0.6,1.1
			l-0.3-0.1c0.1-0.2,0.3-0.5,0.4-0.7h-1.5v0.1c0,0.1,0,0.2,0,0.4c0.4,0.5,1.3,0.9,2.4,1c-0.1,0.1-0.2,0.2-0.2,0.3
			c-1-0.1-1.8-0.5-2.2-1c-0.2,0.4-0.8,0.8-2.3,1.1c0-0.1-0.1-0.2-0.2-0.3c2.1-0.3,2.3-1,2.3-1.5v-0.1H280.4z M281.6,217
			c0.9,0.2,1.8,0.6,2.4,0.8l-0.3,0.2c-0.5-0.2-1.4-0.6-2.3-0.8L281.6,217z"/>
		<path fill="#58595B" d="M285.9,214.6c-0.2,0.9-0.5,2-0.9,2.6c0-0.1-0.2-0.3-0.2-0.4c0.3-0.5,0.7-1.5,0.8-2.3L285.9,214.6z
			 M286.6,213.9v4.2h-0.4v-4.2h-1.3v-0.4h1.3v-2.7h0.4v2.7h1.4v0.4H286.6z M285.5,213.2c0-0.5-0.3-1.2-0.5-1.7l0.3-0.1
			c0.2,0.5,0.4,1.3,0.5,1.7L285.5,213.2z M287,214.5c0.2,0.2,0.7,1.4,0.8,1.7l-0.3,0.3c-0.1-0.4-0.6-1.5-0.8-1.8L287,214.5z
			 M287.9,211.5c-0.2,0.6-0.5,1.3-0.7,1.8l-0.3-0.1c0.2-0.5,0.5-1.2,0.6-1.8L287.9,211.5z M291.1,215.8v2.3h-0.4v-2.2l-2.6,0.5
			L288,216l2.7-0.5v-4.6h0.4v4.6l1-0.2l0.1,0.3L291.1,215.8z M289.6,214.7c-0.3-0.3-0.9-0.7-1.3-0.9l0.2-0.3
			c0.5,0.2,1.1,0.6,1.4,0.9L289.6,214.7z M290,212.8c-0.3-0.3-0.8-0.7-1.3-1l0.2-0.3c0.5,0.3,1,0.7,1.3,1L290,212.8z"/>
		<path fill="#58595B" d="M296.7,214.4c0.7,1.3,2.1,2.5,3.5,3c-0.1,0.1-0.2,0.2-0.3,0.3c-1.2-0.5-2.4-1.5-3.2-2.7v3h-0.4v-3
			c-0.8,1.1-2,2.1-3.2,2.6c-0.1-0.1-0.2-0.2-0.3-0.3c1.3-0.5,2.7-1.7,3.4-3v-2h-3.2V212h3.2v-1.2h0.4v1.2h3.3v0.4h-3.3V214.4z
			 M294.9,212.7c-0.1,0.4-0.2,0.7-0.3,1c0.4,0.3,0.8,0.7,1,1l-0.3,0.3c-0.2-0.2-0.5-0.6-0.9-0.9c-0.3,0.6-0.6,1-1.1,1.4
			c-0.1-0.1-0.2-0.2-0.3-0.2c0.7-0.6,1.2-1.4,1.5-2.5L294.9,212.7z M298.7,212.7c-0.1,0.4-0.2,0.7-0.3,1c0.5,0.4,1.2,1,1.5,1.3
			l-0.3,0.3c-0.3-0.3-0.9-0.9-1.4-1.3c-0.2,0.4-0.5,0.8-0.8,1.1c-0.1-0.1-0.2-0.2-0.3-0.2c0.6-0.5,1-1.3,1.2-2.3L298.7,212.7z"/>
		<path fill="#58595B" d="M302.2,214.2c-0.3-0.2-0.9-0.6-1.4-0.9l0.2-0.3c0.4,0.2,1.1,0.6,1.4,0.8L302.2,214.2z M302.6,215.4
			c-0.4,0.8-0.8,1.9-1.2,2.6l-0.3-0.2c0.4-0.6,0.9-1.7,1.3-2.6L302.6,215.4z M302.6,212.2c-0.3-0.3-0.9-0.7-1.3-0.9l0.2-0.3
			c0.4,0.3,1,0.7,1.4,0.9L302.6,212.2z M303.6,213.4c0,1.4-0.1,3.3-1.1,4.6c-0.1-0.1-0.2-0.2-0.3-0.2c0.9-1.3,1-3.1,1-4.4v-2.2h4.8
			v0.4h-4.4V213.4z M304.9,215.9c-0.3,0.6-0.7,1.2-1.1,1.6c-0.1,0-0.2-0.2-0.3-0.2c0.4-0.4,0.8-1,1-1.5L304.9,215.9z M306.1,215.3
			v2.3c0,0.2,0,0.3-0.2,0.4c-0.2,0.1-0.5,0.1-1.1,0.1c0-0.1-0.1-0.2-0.1-0.3c0.4,0,0.8,0,0.9,0c0.1,0,0.1,0,0.1-0.1v-2.3h-1.5v-2.7
			h1.3c0.1-0.3,0.2-0.6,0.2-0.9l0.4,0.1c-0.1,0.3-0.2,0.5-0.3,0.8h1.9v2.7H306.1z M304.5,213.8h2.8V213h-2.8V213.8z M304.5,215h2.8
			v-0.9h-2.8V215z M307.1,215.8c0.4,0.5,0.8,1.2,1,1.5l-0.4,0.2c-0.2-0.4-0.6-1.1-1-1.6L307.1,215.8z"/>
		<path fill="#58595B" d="M310,212.5c0-0.3,0.2-0.5,0.5-0.5s0.5,0.2,0.5,0.5c0,0.3-0.2,0.5-0.5,0.5S310,212.8,310,212.5z M310,216.5
			c0-0.3,0.2-0.5,0.5-0.5s0.5,0.2,0.5,0.5c0,0.3-0.2,0.5-0.5,0.5S310,216.8,310,216.5z"/>
		<path fill="#58595B" d="M320,217.4v0.3h-6.5v0h-0.2v-6.6h6.6v0.3h-6.2v5.9H320z M314,213.3c0.4,0.2,0.9,0.4,1.1,0.6l-0.2,0.3
			c-0.2-0.2-0.7-0.5-1.1-0.7L314,213.3z M315.4,215.1c-0.3,0.6-0.7,1.3-1,1.8l-0.3-0.2c0.3-0.4,0.7-1.2,1.1-1.8L315.4,215.1z
			 M315.3,212.8c-0.2-0.2-0.7-0.5-1.1-0.7l0.2-0.2c0.4,0.2,0.8,0.5,1.1,0.7L315.3,212.8z M318.3,213.1v0.8h1.2v0.3h-1.2v0.8h1.2v0.3
			h-1.2v0.9h1.5v0.3h-3.2v0.4h-0.4v-3.4c-0.2,0.3-0.4,0.6-0.7,0.8c-0.1-0.1-0.2-0.2-0.3-0.3c0.6-0.6,1.1-1.5,1.5-2.4l0.3,0.1
			c-0.1,0.3-0.3,0.6-0.4,0.9h1.5c-0.1-0.3-0.3-0.6-0.4-0.8l0.3-0.1c0.2,0.3,0.4,0.7,0.5,0.9h1.3v0.3H318.3z M317.9,213.1h-1.4v0.8
			h1.4V213.1z M317.9,214.3h-1.4v0.8h1.4V214.3z M317.9,215.4h-1.4v0.9h1.4V215.4z"/>
		<path fill="#58595B" d="M328,217.6v0.3h-7v-0.3h2.3c-0.1-0.3-0.3-0.6-0.5-0.9l0.2-0.1h-1v-1.4h5v1.4h-0.9l0.2,0.1
			c-0.2,0.3-0.4,0.6-0.6,0.9H328z M327.9,214.7h-6.8v-0.3h6.8V214.7z M327.5,213.9h-6.1V211h0.4v2.6h1.1v-0.5h-0.9v-0.3h0.9v-0.4
			h-0.7v-0.3h0.7v-0.4h-0.8v-0.3h0.8V211h0.3v0.4h0.8v0.3h-0.8v0.4h0.7v0.3h-0.7v0.4h0.9v0.3h-0.9v0.5h1.1v-2.8h0.4v2.8h1.1v-0.5
			h-0.9v-0.3h0.9v-0.4h-0.7v-0.3h0.7v-0.4H325v-0.3h0.8V211h0.3v0.4h0.8v0.3h-0.8v0.4h0.7v0.3h-0.7v0.4h0.9v0.3h-0.9v0.5h1.1V211
			h0.4V213.9z M322.4,216.3h4.2v-0.8h-4.2V216.3z M323.1,216.6c0.2,0.3,0.4,0.6,0.5,0.8l-0.2,0.1h2.2l-0.2-0.1
			c0.2-0.2,0.4-0.6,0.5-0.9H323.1z"/>
		<path fill="#58595B" d="M330.9,211c-0.1,0.1-0.1,0.2-0.2,0.3c0.5,0.4,1,0.8,1.3,1.1l-0.2,0.3c-0.3-0.3-0.8-0.8-1.3-1.1
			c-0.4,0.6-1,1.2-1.5,1.5c0-0.1-0.1-0.3-0.2-0.3c0.7-0.5,1.4-1.2,1.8-1.9L330.9,211z M331.9,216.8l0,0.3c-1,0.2-2.1,0.5-2.8,0.6
			l-0.1-0.4c0.4-0.1,0.8-0.2,1.4-0.3v-2.5H329v-0.4h1.3v-1.1h-0.9v-0.3h2.1v0.3h-0.9v1.1h1.2v0.4h-1.2v2.4L331.9,216.8z
			 M329.5,215.1c0.2,0.5,0.3,1.1,0.4,1.5l-0.3,0.1c0-0.4-0.2-1.1-0.4-1.6L329.5,215.1z M330.9,216.6c0.2-0.4,0.4-1.1,0.4-1.5
			l0.3,0.1c-0.2,0.5-0.4,1.1-0.5,1.5L330.9,216.6z M336,215.3c-0.4,0.4-1,0.7-1.4,1c0.4,0.6,0.9,1.1,1.5,1.4
			c-0.1,0.1-0.2,0.2-0.3,0.3c-1.1-0.6-1.9-1.9-2.3-3.4h-0.8v2.8l1.5-0.4c0,0.1,0,0.3,0,0.3c-1.7,0.5-2,0.6-2.1,0.7
			c0-0.1-0.1-0.3-0.2-0.3c0.1-0.1,0.3-0.2,0.3-0.5v-6.1h3.2v3.4h-1.7c0.1,0.5,0.3,0.9,0.5,1.3c0.4-0.3,1-0.7,1.3-1L336,215.3z
			 M332.8,211.6v1.2h2.5v-1.2H332.8z M332.8,214.3h2.5v-1.2h-2.5V214.3z"/>
		<path fill="#58595B" d="M339.4,212.7c-0.3,0.4-0.6,0.8-0.9,1.2v4.2h-0.4v-3.8c-0.4,0.4-0.7,0.7-1.1,1c-0.1-0.1-0.2-0.2-0.3-0.3
			c0.8-0.6,1.7-1.5,2.3-2.4L339.4,212.7z M339.1,211c-0.5,0.7-1.3,1.4-2,1.9c-0.1-0.1-0.2-0.2-0.2-0.3c0.7-0.5,1.4-1.2,1.9-1.8
			L339.1,211z M344.1,213.9h-1.3v3.6c0,0.3-0.1,0.4-0.3,0.5c-0.2,0.1-0.7,0.1-1.5,0.1c0-0.1-0.1-0.2-0.1-0.4c0.6,0,1.2,0,1.3,0
			c0.2,0,0.2,0,0.2-0.2v-3.6h-2.9v-0.4h4.5V213.9z M343.8,211.7h-3.9v-0.4h3.9V211.7z"/>
		<path fill="#58595B" d="M345.7,215.6c0.6-0.3,1-0.7,1-1.3c-0.1,0-0.1,0-0.2,0c-0.3,0-0.5-0.2-0.5-0.5c0-0.3,0.2-0.5,0.5-0.5
			c0.4,0,0.6,0.3,0.6,0.8c0,0.8-0.5,1.4-1.3,1.7L345.7,215.6z"/>
		<path fill="#58595B" d="M349.6,216c-0.1,0.7-0.3,1.4-0.4,1.9c-0.1,0-0.2-0.1-0.3-0.1c0.2-0.5,0.3-1.2,0.4-1.9L349.6,216z
			 M351.3,215.5c0-0.1-0.1-0.3-0.1-0.4c-1.9,0.3-2.1,0.4-2.2,0.4c0-0.1-0.1-0.3-0.1-0.4c0.2,0,0.3-0.2,0.6-0.5
			c0.1-0.2,0.5-0.6,0.8-1c-1,0.1-1.2,0.2-1.3,0.2c0-0.1-0.1-0.3-0.1-0.4c0.1,0,0.3-0.2,0.4-0.4c0.2-0.2,0.8-1.2,1.2-2.1l0.4,0.2
			c-0.4,0.8-0.9,1.7-1.4,2.3l1.1-0.1c0.2-0.4,0.5-0.7,0.7-1.1l0.4,0.2c-0.6,1-1.2,2-1.9,2.7l1.6-0.2c-0.1-0.3-0.2-0.6-0.3-0.9
			l0.3-0.1c0.2,0.5,0.5,1.2,0.6,1.6L351.3,215.5z M350.4,215.9c0.1,0.5,0.2,1.2,0.2,1.7l-0.3,0.1c0-0.5-0.1-1.2-0.2-1.7L350.4,215.9
			z M351.4,217.3c-0.1-0.4-0.3-1-0.5-1.5l0.3-0.1c0.2,0.5,0.4,1.1,0.5,1.5L351.4,217.3z M355.5,217.6c0.2,0,0.2-0.1,0.2-1
			c0.1,0.1,0.2,0.1,0.4,0.2c0,1-0.1,1.2-0.6,1.2h-0.8c-0.5,0-0.6-0.1-0.6-0.6v-3l-0.9,0.1c-0.1,2-0.3,3.1-1.8,3.7
			c0-0.1-0.2-0.2-0.3-0.3c1.4-0.5,1.6-1.5,1.6-3.3c-0.7,0.1-0.8,0.1-0.9,0.2c0-0.1-0.1-0.3-0.1-0.4c0.1,0,0.3-0.3,0.5-0.6
			c0.1-0.2,0.5-0.7,0.8-1.4h-1.3v-0.4h1.5c0.2-0.3,0.3-0.7,0.5-1l0.4,0.1c-0.1,0.3-0.3,0.6-0.4,0.9h2.2v0.4h-2.4
			c-0.4,0.7-0.8,1.3-1.2,1.9l2.8-0.3c-0.2-0.4-0.4-0.7-0.6-1l0.3-0.1c0.4,0.6,0.9,1.4,1.2,1.9l-0.4,0.2c-0.1-0.2-0.2-0.4-0.3-0.6
			l-0.8,0.1v3.1c0,0.2,0,0.2,0.2,0.2H355.5z"/>
		<path fill="#58595B" d="M360.3,212.6h-3.3v-0.3h3.3V212.6z M357.4,213.3h2.6v0.3h-2.6V213.3z M359.9,214.6h-2.5v-0.3h2.5V214.6z
			 M360,217.6h-2.1v0.4h-0.3v-2.7h2.5V217.6z M357.8,215.7v1.6h1.8v-1.6H357.8z M358.7,212c-0.1-0.3-0.4-0.7-0.6-1l0.3-0.2
			c0.2,0.3,0.5,0.7,0.6,1L358.7,212z M364.1,214.1h-1.7v4H362v-4h-1.7v-0.4h1.7V211h0.4v2.7h1.7V214.1z"/>
		<path fill="#58595B" d="M366,217.4v0.5h-0.4v-3c-0.2,0.2-0.3,0.4-0.5,0.6c-0.1-0.1-0.2-0.2-0.3-0.2c0.5-0.5,1-1.2,1.3-1.9l0.3,0.1
			c-0.1,0.3-0.2,0.5-0.4,0.8h1.4c-0.1-0.2-0.3-0.5-0.4-0.8l0.3-0.1c0.2,0.2,0.4,0.6,0.5,0.8l-0.1,0.1h1.3v0.3h-1.3v0.6h1.2v0.3h-1.2
			v0.7h1.2v0.3h-1.2v0.7h1.3v0.3H366z M371.6,213.9c-0.3,0.9-0.7,1.8-1.2,2.6c0.3,0.7,0.6,1.1,1,1.1c0.2,0,0.3-0.4,0.4-1.4
			c0.1,0.1,0.2,0.2,0.3,0.2c-0.1,1.2-0.2,1.6-0.7,1.6c-0.5,0-0.9-0.4-1.2-1.2c-0.4,0.5-0.8,0.9-1.3,1.3c-0.1-0.1-0.2-0.2-0.3-0.3
			c0.6-0.4,1-0.9,1.5-1.4c-0.3-0.8-0.4-1.9-0.5-3.2h-4.5v-0.4h1.9V212h-1.6v-0.3h1.6v-0.8h0.4v0.8h1.6v0.3h-1.6v0.8h2.2
			c0-0.6-0.1-1.3-0.1-2h0.4c0,0.7,0,1.4,0.1,2h2.2v0.4h-2.2c0.1,1.1,0.2,2.1,0.4,2.8c0.4-0.7,0.8-1.4,1-2.2L371.6,213.9z
			 M367.3,214.5H366v0.6h1.3V214.5z M367.3,215.5H366v0.7h1.3V215.5z M367.3,216.4H366v0.7h1.3V216.4z M371.5,212.4
			c-0.3-0.3-0.8-0.8-1.2-1.2l0.3-0.2c0.5,0.3,1,0.8,1.3,1.1L371.5,212.4z"/>
		<path fill="#58595B" d="M380,217.4v0.4H373v-0.4h3.3v-1.7h-2.6v-0.4h2.6v-1.2h0.4v1.2h2.7v0.4h-2.7v1.7H380z M379.3,214.3
			c-0.1-0.2-0.3-0.4-0.5-0.6c-4.5,0.2-4.9,0.2-5.1,0.3c0-0.1-0.1-0.3-0.1-0.4c0.2,0,0.3-0.2,0.6-0.4c0.2-0.2,0.9-0.9,1.4-1.6h-2.3
			v-0.4h6.6v0.4H376c-0.6,0.7-1.2,1.4-1.7,1.9l4.2-0.2c-0.4-0.3-0.8-0.7-1.1-1l0.3-0.2c0.7,0.5,1.6,1.3,2,1.8L379.3,214.3z"/>
		<path fill="#58595B" d="M380.9,217.2c2-1.7,2.8-2.9,2.8-4c0-0.7-0.4-1.3-1.2-1.3c-0.5,0-1,0.3-1.3,0.7l-0.3-0.3
			c0.4-0.5,0.9-0.8,1.6-0.8c1,0,1.6,0.7,1.6,1.7c0,1.2-0.9,2.4-2.5,3.9c0.3,0,0.7,0,1,0h1.8v0.4h-3.5V217.2z"/>
		<path fill="#58595B" d="M385.2,214.6c0-2,0.7-3,1.7-3c1.1,0,1.7,1,1.7,3c0,2-0.7,3-1.7,3C385.9,217.6,385.2,216.6,385.2,214.6z
			 M388.2,214.6c0-1.7-0.5-2.6-1.2-2.6c-0.8,0-1.3,0.9-1.3,2.6c0,1.8,0.5,2.6,1.3,2.6C387.7,217.2,388.2,216.3,388.2,214.6z"/>
		<path fill="#58595B" d="M389.8,217.1h1.3v-4.7h-1v-0.3c0.5-0.1,0.8-0.2,1.1-0.4h0.4v5.4h1.2v0.4h-3V217.1z"/>
		<path fill="#58595B" d="M396.7,212.1h-3v-0.4h3.5v0.3c-1.4,1.8-1.7,3.3-1.8,5.5H395C395.1,215.2,395.5,213.7,396.7,212.1z"/>
		<path fill="#58595B" d="M405.2,216.2h-3v1.9h-0.4v-1.9H398v-0.4h1.4v-2.2h2.4v-1.4h-2.1c-0.4,0.6-0.8,1.2-1.3,1.7
			c-0.1-0.1-0.2-0.2-0.3-0.2c0.8-0.7,1.5-1.7,1.9-2.8l0.4,0.1c-0.1,0.3-0.3,0.6-0.4,1h4.9v0.4h-2.7v1.4h2.5v0.4h-2.5v1.8h3V216.2z
			 M401.8,215.8V214h-2v1.8H401.8z"/>
		<path fill="#58595B" d="M406.3,217.1h1.3v-4.7h-1v-0.3c0.5-0.1,0.8-0.2,1.1-0.4h0.4v5.4h1.2v0.4h-3V217.1z"/>
		<path fill="#58595B" d="M410.3,214.6c0-2,0.7-3,1.7-3c1.1,0,1.7,1,1.7,3c0,2-0.7,3-1.7,3C411,217.6,410.3,216.6,410.3,214.6z
			 M413.3,214.6c0-1.7-0.5-2.6-1.2-2.6c-0.8,0-1.3,0.9-1.3,2.6c0,1.8,0.5,2.6,1.3,2.6C412.8,217.2,413.3,216.3,413.3,214.6z"/>
		<path fill="#58595B" d="M420.6,217.4c0,0.3-0.1,0.5-0.4,0.6c-0.3,0.1-0.8,0.1-1.7,0.1c0-0.1-0.1-0.3-0.2-0.4c0.7,0,1.4,0,1.5,0
			c0.2,0,0.2-0.1,0.2-0.2v-1.9h-4.1c-0.2,0.9-0.6,1.8-1.4,2.6c-0.1-0.1-0.2-0.2-0.3-0.3c1.3-1.2,1.5-2.9,1.5-4.2v-2.4h4.7V217.4z
			 M420.2,215.2v-1.6h-3.9v0c0,0.5,0,1-0.1,1.5H420.2z M416.3,211.7v1.6h3.9v-1.6H416.3z"/>
		<path fill="#58595B" d="M424.2,213.3c0.6,0,1.2,0.5,1.2,1.2s-0.5,1.2-1.2,1.2c-0.6,0-1.2-0.5-1.2-1.2S423.6,213.3,424.2,213.3z
			 M424.2,215.3c0.5,0,0.9-0.4,0.9-0.9c0-0.5-0.4-0.9-0.9-0.9c-0.5,0-0.9,0.4-0.9,0.9C423.3,215,423.7,215.3,424.2,215.3z"/>
	</g>
</g>
<g>
</g>
<g>
</g>
<g>
</g>
<g>
</g>
<g>
</g>
<g>
</g>
<g>
</g>
<g>
</g>
<g>
</g>
<g>
</g>
<g>
</g>
<g>
</g>
<g>
</g>
<g>
</g>
<g>
</g>
</svg>
