<?xml version="1.0" encoding="utf-8"?>
<!-- Generator: Adobe Illustrator 18.0.0, SVG Export Plug-In . SVG Version: 6.00 Build 0)  -->
<!DOCTYPE svg PUBLIC "-//W3C//DTD SVG 1.1//EN" "http://www.w3.org/Graphics/SVG/1.1/DTD/svg11.dtd">
<svg version="1.1" id="Layer_1" xmlns="http://www.w3.org/2000/svg" xmlns:xlink="http://www.w3.org/1999/xlink" x="0px" y="0px"
	 viewBox="0 0 291.3 178.1" enable-background="new 0 0 291.3 178.1" xml:space="preserve">
<g>
	<g>
		<g>
			<path fill="#A7A9AC" d="M13.1,169.6h-1.5v-0.3h1.5V169.6z M13.5,172.3c-0.4,0.3-1.1,0.5-1.6,0.6c-0.1-0.1-0.2-0.2-0.3-0.3
				c0.5-0.1,1.2-0.3,1.5-0.5L13.5,172.3z M13,168.7h-1.3v-0.3H13V168.7z M12.3,170h3.4v2.1h-3.4V170z M12.7,170.6h2.6v-0.4h-2.6
				V170.6z M12.7,171.2h2.6v-0.4h-2.6V171.2z M12.7,171.8h2.6v-0.4h-2.6V171.8z M13.9,168.8c-0.1,0.2-0.3,0.4-0.4,0.5
				c-0.1-0.1-0.2-0.2-0.3-0.2c0.3-0.2,0.5-0.6,0.6-1l0.4,0.1c0,0.1-0.1,0.2-0.1,0.3h1.8l0.1,0l0.3,0.1c-0.1,0.3-0.3,0.6-0.4,0.8
				l-0.3-0.1c0.1-0.1,0.2-0.3,0.2-0.4h-0.8v0.1c0,0.1,0,0.1,0,0.2c0.3,0.3,0.9,0.5,1.5,0.6c-0.1,0.1-0.2,0.2-0.2,0.3
				c-0.6-0.1-1.1-0.3-1.4-0.6c-0.2,0.3-0.6,0.5-1.5,0.6c0-0.1-0.1-0.2-0.2-0.3c1.4-0.2,1.5-0.5,1.5-0.8v-0.1H13.9z M14.7,172.1
				c0.6,0.2,1.2,0.4,1.6,0.6l-0.3,0.2c-0.3-0.2-0.9-0.4-1.5-0.6L14.7,172.1z"/>
			<path fill="#A7A9AC" d="M17.7,170.6c-0.1,0.6-0.3,1.3-0.6,1.7c0-0.1-0.1-0.3-0.2-0.4c0.2-0.3,0.4-0.9,0.5-1.4L17.7,170.6z
				 M18.2,170.2v2.7h-0.4v-2.7H17v-0.4h0.8v-1.8h0.4v1.8h0.9v0.4H18.2z M17.3,169.7c0-0.3-0.2-0.8-0.3-1.2l0.3-0.1
				c0.2,0.4,0.3,0.8,0.3,1.2L17.3,169.7z M18.4,170.6c0.1,0.2,0.5,0.9,0.6,1.1l-0.3,0.3c-0.1-0.3-0.4-1-0.5-1.2L18.4,170.6z
				 M19.1,168.5c-0.1,0.4-0.3,0.9-0.4,1.2l-0.3-0.1c0.1-0.3,0.3-0.8,0.4-1.2L19.1,168.5z M21.1,171.4v1.5h-0.4v-1.4l-1.6,0.3
				l-0.1-0.4l1.7-0.3v-3h0.4v3l0.6-0.1l0.1,0.4L21.1,171.4z M20,170.7c-0.2-0.2-0.6-0.5-0.9-0.6l0.2-0.3c0.3,0.2,0.7,0.4,0.9,0.6
				L20,170.7z M20.3,169.4c-0.2-0.2-0.5-0.5-0.8-0.7l0.2-0.3c0.3,0.2,0.7,0.4,0.8,0.6L20.3,169.4z"/>
			<path fill="#A7A9AC" d="M24.9,170.5c0.5,0.8,1.4,1.5,2.2,1.9c-0.1,0.1-0.2,0.2-0.3,0.3c-0.7-0.3-1.4-0.9-2-1.6v1.8h-0.4v-1.8
				c-0.5,0.7-1.2,1.2-1.9,1.6c-0.1-0.1-0.2-0.2-0.3-0.3c0.9-0.3,1.7-1.1,2.2-1.8v-1.3h-2v-0.4h2v-0.7h0.4v0.7H27v0.4h-2.1V170.5z
				 M23.8,169.4c-0.1,0.2-0.1,0.4-0.2,0.6c0.2,0.2,0.5,0.4,0.6,0.6l-0.3,0.3c-0.1-0.1-0.3-0.3-0.5-0.5c-0.2,0.3-0.4,0.6-0.7,0.8
				c-0.1-0.1-0.2-0.2-0.3-0.3c0.5-0.4,0.8-0.9,1-1.6L23.8,169.4z M26.3,169.4c0,0.2-0.1,0.4-0.2,0.6c0.3,0.3,0.7,0.6,1,0.8l-0.3,0.3
				c-0.2-0.2-0.5-0.5-0.8-0.8c-0.1,0.2-0.3,0.5-0.5,0.6c-0.1-0.1-0.2-0.2-0.3-0.2c0.4-0.3,0.6-0.8,0.7-1.4L26.3,169.4z"/>
			<path fill="#A7A9AC" d="M28.6,170.4c-0.2-0.2-0.6-0.4-0.9-0.6l0.2-0.3c0.3,0.2,0.7,0.4,0.9,0.5L28.6,170.4z M29,171.2
				c-0.2,0.6-0.5,1.2-0.8,1.7l-0.3-0.2c0.2-0.4,0.6-1.1,0.8-1.7L29,171.2z M28.9,169c-0.2-0.2-0.6-0.4-0.9-0.6l0.2-0.3
				c0.3,0.2,0.7,0.4,0.9,0.6L28.9,169z M29.7,169.8c0,0.9-0.1,2.2-0.7,3.1c-0.1-0.1-0.2-0.2-0.3-0.2c0.6-0.8,0.6-2,0.6-2.9v-1.4h3.2
				v0.4h-2.8V169.8z M30.5,171.5c-0.2,0.4-0.4,0.8-0.7,1.1c-0.1-0.1-0.2-0.1-0.3-0.2c0.2-0.3,0.5-0.6,0.6-1L30.5,171.5z M31.3,171.1
				v1.4c0,0.2,0,0.3-0.2,0.4c-0.1,0.1-0.4,0.1-0.7,0.1c0-0.1-0.1-0.2-0.1-0.3c0.3,0,0.5,0,0.5,0c0.1,0,0.1,0,0.1-0.1v-1.4H30v-1.8
				h0.8c0.1-0.2,0.1-0.4,0.2-0.5l0.4,0.1c-0.1,0.2-0.1,0.3-0.2,0.4h1.2v1.8H31.3z M30.4,170.1H32v-0.5h-1.6V170.1z M30.4,170.8H32
				v-0.5h-1.6V170.8z M32,171.4c0.2,0.3,0.5,0.8,0.6,1l-0.4,0.2c-0.1-0.3-0.4-0.7-0.6-1L32,171.4z"/>
			<path fill="#A7A9AC" d="M33.9,169.3c0-0.2,0.2-0.4,0.4-0.4c0.2,0,0.4,0.2,0.4,0.4c0,0.2-0.2,0.4-0.4,0.4
				C34,169.7,33.9,169.5,33.9,169.3z M33.9,171.8c0-0.2,0.2-0.4,0.4-0.4c0.2,0,0.4,0.2,0.4,0.4c0,0.2-0.2,0.4-0.4,0.4
				C34,172.2,33.9,172.1,33.9,171.8z"/>
			<path fill="#A7A9AC" d="M37,169.1h-1.2v-0.4h2.8v0.4h-1.2v3.5H37V169.1z"/>
			<path fill="#A7A9AC" d="M39.5,168.3H40v1.2l0,0.6c0.3-0.3,0.6-0.5,1-0.5c0.6,0,0.9,0.4,0.9,1.1v1.8h-0.5v-1.8
				c0-0.5-0.2-0.8-0.5-0.8c-0.3,0-0.5,0.1-0.8,0.4v2.1h-0.5V168.3z"/>
			<path fill="#A7A9AC" d="M42.6,171.1c0-1,0.6-1.5,1.3-1.5s1.3,0.6,1.3,1.5c0,1-0.6,1.5-1.3,1.5S42.6,172,42.6,171.1z M44.8,171.1
				c0-0.7-0.3-1.1-0.8-1.1c-0.5,0-0.8,0.4-0.8,1.1s0.3,1.1,0.8,1.1C44.4,172.2,44.8,171.8,44.8,171.1z"/>
			<path fill="#A7A9AC" d="M46.1,169.7h0.4l0,0.4h0c0.2-0.3,0.5-0.5,0.9-0.5c0.4,0,0.7,0.2,0.8,0.5c0.3-0.3,0.6-0.5,0.9-0.5
				c0.6,0,0.9,0.4,0.9,1.1v1.8h-0.5v-1.8c0-0.5-0.2-0.8-0.5-0.8c-0.2,0-0.5,0.1-0.7,0.4v2.1h-0.5v-1.8c0-0.5-0.2-0.8-0.5-0.8
				c-0.2,0-0.5,0.1-0.7,0.4v2.1h-0.5V169.7z"/>
			<path fill="#A7A9AC" d="M50.8,172.2l0.2-0.3c0.2,0.2,0.5,0.3,0.9,0.3c0.4,0,0.6-0.2,0.6-0.4c0-0.3-0.3-0.4-0.7-0.5
				c-0.4-0.1-0.9-0.3-0.9-0.8c0-0.5,0.4-0.8,1-0.8c0.4,0,0.7,0.1,0.9,0.3l-0.2,0.3c-0.2-0.1-0.4-0.3-0.7-0.3c-0.4,0-0.5,0.2-0.5,0.4
				c0,0.3,0.3,0.4,0.6,0.5c0.4,0.2,0.9,0.3,0.9,0.9c0,0.5-0.4,0.8-1,0.8C51.5,172.6,51.1,172.4,50.8,172.2z"/>
			<path fill="#A7A9AC" d="M53.6,171.1c0-1,0.6-1.5,1.3-1.5s1.3,0.6,1.3,1.5c0,1-0.6,1.5-1.3,1.5S53.6,172,53.6,171.1z M55.7,171.1
				c0-0.7-0.3-1.1-0.8-1.1c-0.5,0-0.8,0.4-0.8,1.1s0.3,1.1,0.8,1.1C55.4,172.2,55.7,171.8,55.7,171.1z"/>
			<path fill="#A7A9AC" d="M57.1,169.7h0.4l0,0.4h0c0.3-0.3,0.6-0.5,1-0.5c0.6,0,0.9,0.4,0.9,1.1v1.8h-0.5v-1.8
				c0-0.5-0.2-0.8-0.5-0.8c-0.3,0-0.5,0.1-0.8,0.4v2.1h-0.5V169.7z"/>
			<path fill="#A7A9AC" d="M61.8,168.7h1c1.2,0,1.8,0.7,1.8,1.9c0,1.2-0.6,1.9-1.8,1.9h-1V168.7z M62.7,172.1c0.9,0,1.4-0.6,1.4-1.5
				c0-1-0.4-1.5-1.4-1.5h-0.4v3.1H62.7z"/>
			<path fill="#A7A9AC" d="M65.3,171.8c0-0.6,0.5-0.9,1.8-1.1c0-0.4-0.1-0.7-0.6-0.7c-0.3,0-0.6,0.2-0.9,0.3l-0.2-0.3
				c0.3-0.2,0.7-0.4,1.1-0.4c0.7,0,1,0.5,1,1.2v1.8h-0.4l0-0.3h0c-0.3,0.2-0.6,0.4-1,0.4C65.7,172.6,65.3,172.3,65.3,171.8z
				 M67.1,171.8V171c-1,0.1-1.3,0.4-1.3,0.7c0,0.3,0.2,0.5,0.5,0.5C66.6,172.2,66.8,172.1,67.1,171.8z"/>
			<path fill="#A7A9AC" d="M68.6,171.6v-1.6h-0.4v-0.4l0.4,0l0.1-0.8h0.4v0.8h0.8v0.4h-0.8v1.6c0,0.4,0.1,0.6,0.4,0.6
				c0.1,0,0.2,0,0.3-0.1l0.1,0.4c-0.2,0.1-0.4,0.1-0.5,0.1C68.8,172.6,68.6,172.2,68.6,171.6z"/>
			<path fill="#A7A9AC" d="M70.4,171.8c0-0.6,0.5-0.9,1.8-1.1c0-0.4-0.1-0.7-0.6-0.7c-0.3,0-0.6,0.2-0.9,0.3l-0.2-0.3
				c0.3-0.2,0.7-0.4,1.1-0.4c0.7,0,1,0.5,1,1.2v1.8h-0.4l0-0.3h0c-0.3,0.2-0.6,0.4-1,0.4C70.7,172.6,70.4,172.3,70.4,171.8z
				 M72.1,171.8V171c-1,0.1-1.3,0.4-1.3,0.7c0,0.3,0.2,0.5,0.5,0.5C71.6,172.2,71.8,172.1,72.1,171.8z"/>
			<path fill="#A7A9AC" d="M73.3,172.2l0.2-0.3c0.2,0.2,0.5,0.3,0.9,0.3c0.4,0,0.6-0.2,0.6-0.4c0-0.3-0.3-0.4-0.7-0.5
				c-0.4-0.1-0.9-0.3-0.9-0.8c0-0.5,0.4-0.8,1-0.8c0.4,0,0.7,0.1,0.9,0.3l-0.2,0.3c-0.2-0.1-0.4-0.3-0.7-0.3c-0.4,0-0.5,0.2-0.5,0.4
				c0,0.3,0.3,0.4,0.6,0.5c0.4,0.2,0.9,0.3,0.9,0.9c0,0.5-0.4,0.8-1,0.8C74,172.6,73.6,172.4,73.3,172.2z"/>
			<path fill="#A7A9AC" d="M76.2,171.6v-1.6h-0.4v-0.4l0.4,0l0.1-0.8h0.4v0.8h0.8v0.4h-0.8v1.6c0,0.4,0.1,0.6,0.4,0.6
				c0.1,0,0.2,0,0.3-0.1l0.1,0.4c-0.2,0.1-0.4,0.1-0.5,0.1C76.4,172.6,76.2,172.2,76.2,171.6z"/>
			<path fill="#A7A9AC" d="M78.3,169.7h0.4l0,0.5h0c0.2-0.4,0.5-0.6,0.8-0.6c0.1,0,0.2,0,0.3,0.1l-0.1,0.4c-0.1,0-0.2,0-0.3,0
				c-0.2,0-0.5,0.2-0.7,0.7v1.8h-0.5V169.7z"/>
			<path fill="#A7A9AC" d="M80.2,171.1c0-0.9,0.6-1.5,1.3-1.5c0.7,0,1.1,0.5,1.1,1.3c0,0.1,0,0.2,0,0.3h-1.9c0,0.6,0.4,1,1,1
				c0.3,0,0.5-0.1,0.7-0.2l0.2,0.3c-0.3,0.2-0.6,0.3-1,0.3C80.8,172.6,80.2,172,80.2,171.1z M82.2,170.9c0-0.6-0.3-0.9-0.7-0.9
				c-0.4,0-0.8,0.3-0.8,0.9H82.2z"/>
			<path fill="#A7A9AC" d="M83.2,171.8c0-0.6,0.5-0.9,1.8-1.1c0-0.4-0.1-0.7-0.6-0.7c-0.3,0-0.6,0.2-0.9,0.3l-0.2-0.3
				c0.3-0.2,0.7-0.4,1.1-0.4c0.7,0,1,0.5,1,1.2v1.8H85l0-0.3h0c-0.3,0.2-0.6,0.4-1,0.4C83.5,172.6,83.2,172.3,83.2,171.8z
				 M84.9,171.8V171c-1,0.1-1.3,0.4-1.3,0.7c0,0.3,0.2,0.5,0.5,0.5C84.4,172.2,84.7,172.1,84.9,171.8z"/>
			<path fill="#A7A9AC" d="M86.5,169.7h0.4l0,0.4h0c0.2-0.3,0.5-0.5,0.9-0.5c0.4,0,0.7,0.2,0.8,0.5c0.3-0.3,0.6-0.5,0.9-0.5
				c0.6,0,0.9,0.4,0.9,1.1v1.8h-0.5v-1.8c0-0.5-0.2-0.8-0.5-0.8c-0.2,0-0.5,0.1-0.7,0.4v2.1h-0.5v-1.8c0-0.5-0.2-0.8-0.5-0.8
				c-0.2,0-0.5,0.1-0.7,0.4v2.1h-0.5V169.7z"/>
			<path fill="#A7A9AC" d="M92.3,169.7c0.4,0,0.8,0.4,0.8,0.8s-0.4,0.8-0.8,0.8c-0.4,0-0.8-0.4-0.8-0.8S91.9,169.7,92.3,169.7z
				 M92.3,171.1c0.3,0,0.5-0.2,0.5-0.5s-0.2-0.5-0.5-0.5c-0.3,0-0.5,0.2-0.5,0.5S92,171.1,92.3,171.1z"/>
			<path fill="#A7A9AC" d="M95.5,169.6H94v-0.3h1.5V169.6z M96,172.3c-0.4,0.3-1.1,0.5-1.6,0.6c-0.1-0.1-0.2-0.2-0.3-0.3
				c0.5-0.1,1.2-0.3,1.5-0.5L96,172.3z M95.4,168.7h-1.3v-0.3h1.3V168.7z M94.7,170h3.4v2.1h-3.4V170z M95.1,170.6h2.6v-0.4h-2.6
				V170.6z M95.1,171.2h2.6v-0.4h-2.6V171.2z M95.1,171.8h2.6v-0.4h-2.6V171.8z M96.4,168.8c-0.1,0.2-0.3,0.4-0.4,0.5
				c-0.1-0.1-0.2-0.2-0.3-0.2c0.3-0.2,0.5-0.6,0.6-1l0.4,0.1c0,0.1-0.1,0.2-0.1,0.3h1.8l0.1,0l0.3,0.1c-0.1,0.3-0.3,0.6-0.4,0.8
				l-0.3-0.1c0.1-0.1,0.2-0.3,0.2-0.4h-0.8v0.1c0,0.1,0,0.1,0,0.2c0.3,0.3,0.9,0.5,1.5,0.6c-0.1,0.1-0.2,0.2-0.2,0.3
				c-0.6-0.1-1.1-0.3-1.4-0.6c-0.2,0.3-0.6,0.5-1.5,0.6c0-0.1-0.1-0.2-0.2-0.3c1.4-0.2,1.5-0.5,1.5-0.8v-0.1H96.4z M97.2,172.1
				c0.6,0.2,1.2,0.4,1.6,0.6l-0.3,0.2c-0.3-0.2-0.9-0.4-1.5-0.6L97.2,172.1z"/>
			<path fill="#A7A9AC" d="M100.2,170.6c-0.1,0.6-0.3,1.3-0.6,1.7c0-0.1-0.1-0.3-0.2-0.4c0.2-0.3,0.4-0.9,0.5-1.4L100.2,170.6z
				 M100.6,170.2v2.7h-0.4v-2.7h-0.8v-0.4h0.8v-1.8h0.4v1.8h0.9v0.4H100.6z M99.8,169.7c0-0.3-0.2-0.8-0.3-1.2l0.3-0.1
				c0.2,0.4,0.3,0.8,0.3,1.2L99.8,169.7z M100.9,170.6c0.1,0.2,0.5,0.9,0.6,1.1l-0.3,0.3c-0.1-0.3-0.4-1-0.5-1.2L100.9,170.6z
				 M101.5,168.5c-0.1,0.4-0.3,0.9-0.4,1.2l-0.3-0.1c0.1-0.3,0.3-0.8,0.4-1.2L101.5,168.5z M103.6,171.4v1.5h-0.4v-1.4l-1.6,0.3
				l-0.1-0.4l1.7-0.3v-3h0.4v3l0.6-0.1l0.1,0.4L103.6,171.4z M102.5,170.7c-0.2-0.2-0.6-0.5-0.9-0.6l0.2-0.3
				c0.3,0.2,0.7,0.4,0.9,0.6L102.5,170.7z M102.7,169.4c-0.2-0.2-0.5-0.5-0.8-0.7l0.2-0.3c0.3,0.2,0.7,0.4,0.8,0.6L102.7,169.4z"/>
			<path fill="#A7A9AC" d="M106.5,171.9h-1.1v0.4H105v-3.9h1.5V171.9z M105.4,168.8v1.2h0.8v-1.2H105.4z M106.1,171.5v-1.2h-0.8v1.2
				H106.1z M108.3,169.1v0.7h1.2v0.3H109v0.6h0.6v0.3H109v1.4c0,0.2-0.1,0.3-0.2,0.4c-0.2,0.1-0.4,0.1-0.9,0.1
				c0-0.1-0.1-0.3-0.1-0.4c0.3,0,0.6,0,0.7,0c0.1,0,0.1,0,0.1-0.1v-1.4h-2v-0.3h2v-0.6h-1.8v-0.3h1.1v-0.7h-1.3v-0.4h1.3v-0.6h0.4
				v0.6h1.3v0.4H108.3z M107.2,171.2c0.2,0.3,0.5,0.7,0.7,0.9l-0.3,0.2c-0.1-0.3-0.4-0.6-0.7-0.9L107.2,171.2z"/>
			<path fill="#A7A9AC" d="M110.9,170.1v2.8h-0.4v-4.6h1.9v1.8H110.9z M110.9,168.6v0.4h1.1v-0.4H110.9z M112,169.8v-0.5h-1.1v0.5
				H112z M112,172.4v0.3h-0.4v-2.2h2v1.9H112z M112,170.8v0.5h1.2v-0.5H112z M113.2,172.1v-0.5H112v0.5H113.2z M114.8,172.4
				c0,0.2-0.1,0.4-0.2,0.4c-0.2,0.1-0.4,0.1-0.9,0.1c0-0.1-0.1-0.3-0.1-0.4c0.3,0,0.6,0,0.7,0c0.1,0,0.1,0,0.1-0.1v-2.3h-1.6v-1.8h2
				V172.4z M113.2,168.6v0.4h1.2v-0.4H113.2z M114.4,169.8v-0.5h-1.2v0.5H114.4z"/>
			<path fill="#A7A9AC" d="M119.9,168.8v4.1h-0.4v-0.3h-2.8v0.3h-0.4v-4.1h1.3c0.1-0.2,0.2-0.5,0.2-0.7l0.4,0.1
				c-0.1,0.2-0.2,0.5-0.3,0.7H119.9z M116.7,169.2v0.8h2.8v-0.8H116.7z M116.7,170.4v0.8h2.8v-0.8H116.7z M119.5,172.3v-0.8h-2.8
				v0.8H119.5z"/>
			<path fill="#A7A9AC" d="M121,172.2c1.2-1.1,1.8-1.8,1.8-2.5c0-0.4-0.2-0.8-0.7-0.8c-0.3,0-0.6,0.2-0.8,0.4l-0.3-0.3
				c0.3-0.3,0.6-0.6,1.1-0.6c0.7,0,1.1,0.5,1.1,1.1c0,0.8-0.6,1.6-1.5,2.4c0.2,0,0.4,0,0.6,0h1.1v0.4H121V172.2z"/>
			<path fill="#A7A9AC" d="M124.1,170.6c0-1.3,0.5-2,1.2-2c0.7,0,1.2,0.7,1.2,2c0,1.3-0.5,2-1.2,2
				C124.6,172.6,124.1,171.9,124.1,170.6z M126.1,170.6c0-1.1-0.3-1.6-0.7-1.6c-0.4,0-0.7,0.5-0.7,1.6c0,1.1,0.3,1.6,0.7,1.6
				C125.8,172.2,126.1,171.7,126.1,170.6z"/>
			<path fill="#A7A9AC" d="M127.4,172.1h0.9v-2.9h-0.7v-0.3c0.3-0.1,0.6-0.2,0.8-0.3h0.4v3.5h0.8v0.4h-2.1V172.1z"/>
			<path fill="#A7A9AC" d="M130.4,172.1h0.9v-2.9h-0.7v-0.3c0.3-0.1,0.6-0.2,0.8-0.3h0.4v3.5h0.8v0.4h-2.1V172.1z"/>
			<path fill="#A7A9AC" d="M138,171.7h-1.9v1.2h-0.4v-1.2h-2.4v-0.4h0.9v-1.4h1.6v-0.8h-1.3c-0.2,0.4-0.5,0.8-0.8,1
				c-0.1-0.1-0.2-0.2-0.3-0.2c0.5-0.4,0.9-1.1,1.2-1.8l0.4,0.1c-0.1,0.2-0.2,0.4-0.2,0.6h3.1v0.4h-1.7v0.8h1.5v0.4h-1.5v1h1.9V171.7
				z M135.7,171.3v-1h-1.2v1H135.7z"/>
			<path fill="#A7A9AC" d="M138.9,172.1h0.9v-2.9h-0.7v-0.3c0.3-0.1,0.6-0.2,0.8-0.3h0.4v3.5h0.8v0.4h-2.1V172.1z"/>
			<path fill="#A7A9AC" d="M145.8,172.4c0,0.3-0.1,0.4-0.3,0.5c-0.2,0.1-0.5,0.1-1.1,0.1c0-0.1-0.1-0.3-0.2-0.4c0.4,0,0.9,0,1,0
				c0.1,0,0.2,0,0.2-0.2v-1.1h-2.5c-0.1,0.6-0.4,1.2-0.9,1.6c-0.1-0.1-0.2-0.2-0.3-0.3c0.8-0.7,0.9-1.8,0.9-2.7v-1.6h3.2V172.4z
				 M145.4,170.9V170H143c0,0.3,0,0.6-0.1,0.9H145.4z M143,168.8v0.9h2.4v-0.9H143z"/>
			<path fill="#A7A9AC" d="M147.4,172.1h0.9v-2.9h-0.7v-0.3c0.3-0.1,0.6-0.2,0.8-0.3h0.4v3.5h0.8v0.4h-2.1V172.1z"/>
			<path fill="#A7A9AC" d="M150.1,172.1l0.2-0.3c0.2,0.2,0.5,0.4,1,0.4c0.5,0,0.8-0.3,0.8-0.9c0-0.6-0.3-0.9-0.8-0.9
				c-0.3,0-0.4,0.1-0.6,0.2l-0.3-0.2l0.1-1.8h1.9v0.4H151l-0.1,1.1c0.2-0.1,0.3-0.2,0.6-0.2c0.6,0,1.2,0.4,1.2,1.2s-0.6,1.3-1.3,1.3
				C150.7,172.6,150.4,172.3,150.1,172.1z"/>
			<path fill="#A7A9AC" d="M157.4,168.5v4.4H157v-0.3h-2.6v0.3H154v-4.4H157.4z M154.4,168.9v1.4h2.6v-1.4H154.4z M157,172.1v-1.5
				h-2.6v1.5H157z"/>
			<path fill="#A7A9AC" d="M163.4,172.4v0.4h-4.7v-0.4h2.1v-1h-1.7V171h1.7v-0.7h0.4v0.7h1.7v0.4h-1.7v1H163.4z M162.9,170.5
				c-0.1-0.1-0.2-0.2-0.3-0.4c-2.8,0.1-3.1,0.1-3.3,0.2c0-0.1-0.1-0.3-0.1-0.4c0.1,0,0.2-0.1,0.4-0.2c0.1-0.1,0.5-0.5,0.8-0.9h-1.4
				v-0.4h4.4v0.4h-2.5c-0.3,0.4-0.6,0.8-1,1.1l2.4-0.1c-0.2-0.2-0.4-0.4-0.7-0.6l0.3-0.2c0.5,0.4,1.1,0.9,1.3,1.2L162.9,170.5z"/>
			<path fill="#A7A9AC" d="M164.1,172.2c1.2-1.1,1.8-1.8,1.8-2.5c0-0.4-0.2-0.8-0.7-0.8c-0.3,0-0.6,0.2-0.8,0.4l-0.3-0.3
				c0.3-0.3,0.6-0.6,1.1-0.6c0.7,0,1.1,0.5,1.1,1.1c0,0.8-0.6,1.6-1.5,2.4c0.2,0,0.4,0,0.6,0h1.1v0.4h-2.4V172.2z"/>
			<path fill="#A7A9AC" d="M167.2,170.6c0-1.3,0.5-2,1.2-2c0.7,0,1.2,0.7,1.2,2c0,1.3-0.5,2-1.2,2
				C167.6,172.6,167.2,171.9,167.2,170.6z M169.1,170.6c0-1.1-0.3-1.6-0.7-1.6c-0.4,0-0.7,0.5-0.7,1.6c0,1.1,0.3,1.6,0.7,1.6
				C168.8,172.2,169.1,171.7,169.1,170.6z"/>
			<path fill="#A7A9AC" d="M170.4,172.1h0.9v-2.9h-0.7v-0.3c0.3-0.1,0.6-0.2,0.8-0.3h0.4v3.5h0.8v0.4h-2.1V172.1z"/>
			<path fill="#A7A9AC" d="M175.2,169.1h-1.9v-0.4h2.4v0.3c-0.9,1.2-1.1,2.1-1.1,3.6h-0.5C174.1,171.1,174.4,170.1,175.2,169.1z"/>
			<path fill="#A7A9AC" d="M181.1,171.7h-1.9v1.2h-0.4v-1.2h-2.4v-0.4h0.9v-1.4h1.6v-0.8h-1.3c-0.2,0.4-0.5,0.8-0.8,1
				c-0.1-0.1-0.2-0.2-0.3-0.2c0.5-0.4,0.9-1.1,1.2-1.8l0.4,0.1c-0.1,0.2-0.2,0.4-0.2,0.6h3.1v0.4h-1.7v0.8h1.5v0.4h-1.5v1h1.9V171.7
				z M178.8,171.3v-1h-1.2v1H178.8z"/>
			<path fill="#A7A9AC" d="M183.6,169.1h-1.9v-0.4h2.4v0.3c-0.9,1.2-1.1,2.1-1.1,3.6h-0.5C182.6,171.1,182.9,170.1,183.6,169.1z"/>
			<path fill="#A7A9AC" d="M188.9,172.4c0,0.3-0.1,0.4-0.3,0.5c-0.2,0.1-0.5,0.1-1.1,0.1c0-0.1-0.1-0.3-0.2-0.4c0.4,0,0.9,0,1,0
				c0.1,0,0.2,0,0.2-0.2v-1.1h-2.5c-0.1,0.6-0.4,1.2-0.9,1.6c-0.1-0.1-0.2-0.2-0.3-0.3c0.8-0.7,0.9-1.8,0.9-2.7v-1.6h3.2V172.4z
				 M188.5,170.9V170H186c0,0.3,0,0.6-0.1,0.9H188.5z M186,168.8v0.9h2.4v-0.9H186z"/>
			<path fill="#A7A9AC" d="M190.4,172.1h0.9v-2.9h-0.7v-0.3c0.3-0.1,0.6-0.2,0.8-0.3h0.4v3.5h0.8v0.4h-2.1V172.1z"/>
			<path fill="#A7A9AC" d="M193.2,172.1l0.2-0.3c0.2,0.2,0.5,0.4,1,0.4c0.5,0,0.8-0.3,0.8-0.9c0-0.6-0.3-0.9-0.8-0.9
				c-0.3,0-0.4,0.1-0.6,0.2l-0.3-0.2l0.1-1.8h1.9v0.4H194l-0.1,1.1c0.2-0.1,0.3-0.2,0.6-0.2c0.6,0,1.2,0.4,1.2,1.2s-0.6,1.3-1.3,1.3
				C193.8,172.6,193.4,172.3,193.2,172.1z"/>
			<path fill="#A7A9AC" d="M200.5,168.5v4.4H200v-0.3h-2.6v0.3H197v-4.4H200.5z M197.4,168.9v1.4h2.6v-1.4H197.4z M200,172.1v-1.5
				h-2.6v1.5H200z"/>
			<path fill="#A7A9AC" d="M202.8,169.7c0.4,0,0.8,0.4,0.8,0.8s-0.4,0.8-0.8,0.8c-0.4,0-0.8-0.4-0.8-0.8S202.4,169.7,202.8,169.7z
				 M202.8,171.1c0.3,0,0.5-0.2,0.5-0.5s-0.2-0.5-0.5-0.5c-0.3,0-0.5,0.2-0.5,0.5S202.5,171.1,202.8,171.1z"/>
		</g>
	</g>
	<g>
		<path fill="none" stroke="#D9D9D9" stroke-width="0.2713" stroke-linejoin="round" stroke-miterlimit="10" d="M13.2,24.2h275.5
			 M13.2,45.4h275.5 M13.2,66.5h275.5 M13.2,87.8h275.5 M13.2,108.9h275.5"/>
		
			<line fill="none" stroke="#7F7F7F" stroke-width="0.2713" stroke-linejoin="round" stroke-miterlimit="10" x1="13.2" y1="130.1" x2="288.7" y2="130.1"/>
		<g>
			
				<line fill="none" stroke="#7F7F7F" stroke-width="0.2713" stroke-linejoin="round" stroke-miterlimit="10" x1="222.4" y1="132.2" x2="222.4" y2="130.5"/>
			
				<line fill="none" stroke="#7F7F7F" stroke-width="0.2713" stroke-linejoin="round" stroke-miterlimit="10" x1="201.5" y1="132.2" x2="201.5" y2="130.5"/>
			
				<line fill="none" stroke="#7F7F7F" stroke-width="0.2713" stroke-linejoin="round" stroke-miterlimit="10" x1="180.6" y1="132.2" x2="180.6" y2="130.5"/>
			
				<line fill="none" stroke="#7F7F7F" stroke-width="0.2713" stroke-linejoin="round" stroke-miterlimit="10" x1="285.2" y1="132.2" x2="285.2" y2="130.5"/>
			
				<line fill="none" stroke="#7F7F7F" stroke-width="0.2713" stroke-linejoin="round" stroke-miterlimit="10" x1="159.7" y1="132.2" x2="159.7" y2="130.5"/>
			
				<line fill="none" stroke="#7F7F7F" stroke-width="0.2713" stroke-linejoin="round" stroke-miterlimit="10" x1="264.3" y1="132.2" x2="264.3" y2="130.5"/>
			
				<line fill="none" stroke="#7F7F7F" stroke-width="0.2713" stroke-linejoin="round" stroke-miterlimit="10" x1="243.4" y1="132.2" x2="243.4" y2="130.5"/>
			
				<line fill="none" stroke="#7F7F7F" stroke-width="0.2713" stroke-linejoin="round" stroke-miterlimit="10" x1="13.2" y1="132.2" x2="13.2" y2="130.5"/>
			
				<line fill="none" stroke="#7F7F7F" stroke-width="0.2713" stroke-linejoin="round" stroke-miterlimit="10" x1="55" y1="132.2" x2="55" y2="130.5"/>
			
				<line fill="none" stroke="#7F7F7F" stroke-width="0.2713" stroke-linejoin="round" stroke-miterlimit="10" x1="34.1" y1="132.2" x2="34.1" y2="130.5"/>
			
				<line fill="none" stroke="#7F7F7F" stroke-width="0.2713" stroke-linejoin="round" stroke-miterlimit="10" x1="75.9" y1="132.2" x2="75.9" y2="130.5"/>
			
				<line fill="none" stroke="#7F7F7F" stroke-width="0.2713" stroke-linejoin="round" stroke-miterlimit="10" x1="138.7" y1="132.2" x2="138.7" y2="130.5"/>
			
				<line fill="none" stroke="#7F7F7F" stroke-width="0.2713" stroke-linejoin="round" stroke-miterlimit="10" x1="117.8" y1="132.2" x2="117.8" y2="130.5"/>
			
				<line fill="none" stroke="#7F7F7F" stroke-width="0.2713" stroke-linejoin="round" stroke-miterlimit="10" x1="96.9" y1="132.2" x2="96.9" y2="130.5"/>
		</g>
		
			<polyline fill="none" stroke="#002A5E" stroke-width="0.5426" stroke-linecap="round" stroke-linejoin="round" stroke-miterlimit="10" points="
			14.9,36.9 18.4,31.8 21.8,34.4 25.3,33.5 28.9,42 32.4,52.6 35.8,61.9 39.3,63.6 42.8,70.4 46.2,81.4 49.8,79.3 53.3,73.8 
			56.8,64.9 60.2,69.6 63.7,70.4 67.2,80.6 70.7,83.5 74.2,81.9 77.7,81.4 81.2,82.2 84.6,83.1 88.1,84.8 91.7,81.4 95.1,78.4 
			98.6,72.5 102.1,75.4 105.6,81.4 109,79.7 112.6,76.3 116.1,72.1 119.5,64.5 123,60.2 126.5,57.3 130,58.5 133.5,59.3 137,57.7 
			140.5,54.3 143.9,52.6 147.4,53.5 150.9,49.7 154.5,51.7 157.9,54.7 161.4,50.5 164.9,56 168.3,58.1 171.8,57.7 175.4,61.9 
			178.9,60.6 182.3,55.5 185.8,52.6 189.3,49.7 192.8,50 196.3,51.3 199.8,48.8 203.3,50 206.7,48.3 210.2,51.3 213.8,50 
			217.2,48.8 220.7,48.3 224.2,51.3 227.7,53.8 231.1,53.5 234.7,53.8 238.2,53.5 241.6,53.5 245.1,53 248.6,54.3 252.1,55.5 
			255.6,52.6 259.1,50 262.6,47.9 266,47.9 269.5,41.2 273,39.4 276.6,37.7 280,37.7 283.5,39.9 287,42.4 		"/>
		
			<polyline fill="none" stroke="#0C56AB" stroke-width="0.5426" stroke-linecap="round" stroke-linejoin="round" stroke-miterlimit="10" points="
			14.9,18.6 18.4,20.4 21.8,22.5 25.3,27.6 28.9,36.5 32.4,39.9 35.8,56 39.3,61.1 42.8,64.5 46.2,65.3 49.8,69.1 53.3,61.1 
			56.8,50 60.2,53 63.7,59.8 67.2,64.5 70.7,69.6 74.2,74.6 77.7,77.2 81.2,79.3 84.6,69.9 88.1,76.3 91.7,69.9 95.1,65.3 
			98.6,47.9 102.1,52.6 105.6,64 109,69.9 112.6,65.8 116.1,64.9 119.5,57.7 123,51.7 126.5,53 130,53 133.5,43.7 137,45.4 
			140.5,43.2 143.9,39.4 147.4,48.3 150.9,40.7 154.5,42.9 157.9,49.7 161.4,42.4 164.9,50.9 168.3,49.2 171.8,50 175.4,59.3 
			178.9,58.1 182.3,51.7 185.8,50.5 189.3,43.7 192.8,49.2 196.3,55.5 199.8,50.9 203.3,50.9 206.7,45.4 210.2,49.2 213.8,48.8 
			217.2,44.5 220.7,43.2 224.2,47.5 227.7,49.2 231.1,49.7 234.7,51.3 238.2,47.5 241.6,47.9 245.1,44.1 248.6,52.6 252.1,54.7 
			255.6,45 259.1,45.4 262.6,44.5 266,46.2 269.5,40.7 273,36.5 276.6,38.2 280,35.2 283.5,39.4 287,46.7 		"/>
		
			<polyline fill="none" stroke="#73B564" stroke-width="0.5426" stroke-linecap="round" stroke-linejoin="round" stroke-miterlimit="10" points="
			14.9,34.7 18.4,28.4 21.8,28 25.3,14 28.9,22.9 32.4,45.8 35.8,53 39.3,50.9 42.8,65.8 46.2,85.2 49.8,71.6 53.3,66.6 56.8,61.5 
			60.2,65.8 63.7,72.1 67.2,83.9 70.7,89.5 74.2,78.1 77.7,75.4 81.2,75.1 84.6,95.4 88.1,94.2 91.7,90.7 95.1,89.5 98.6,97.5 
			102.1,95.8 105.6,100.9 109,90.7 112.6,89.5 116.1,77.6 119.5,70.4 123,71.6 126.5,64.5 130,64.5 133.5,75.1 137,78.1 140.5,71.3 
			143.9,75.4 147.4,59 150.9,64 154.5,69.6 157.9,74.6 161.4,69.1 164.9,68.7 168.3,73.4 171.8,74.2 175.4,75.4 178.9,67.8 
			182.3,69.6 185.8,57.3 189.3,60.2 192.8,64 196.3,58.1 199.8,52.6 203.3,60.2 206.7,65.8 210.2,58.5 213.8,55.5 217.2,62.3 
			220.7,66.1 224.2,65.8 227.7,69.6 231.1,66.6 234.7,65.8 238.2,62.8 241.6,68.3 245.1,66.1 248.6,58.5 252.1,55.1 255.6,59.8 
			259.1,60.6 262.6,53.5 266,49.2 269.5,41.5 273,37.7 276.6,38.6 280,37.4 283.5,38.6 287,42.9 		"/>
		
			<polyline fill="none" stroke="#7F58A5" stroke-width="0.5426" stroke-linecap="round" stroke-linejoin="round" stroke-miterlimit="10" points="
			14.9,66.6 18.4,59.3 21.8,67 25.3,63.1 28.9,65.3 32.4,69.9 35.8,83.1 39.3,87.7 42.8,92.4 46.2,101.8 49.8,116.6 53.3,100 
			56.8,83.5 60.2,96.7 63.7,83.5 67.2,100.5 70.7,103.8 74.2,100.5 77.7,95.8 81.2,94.5 84.6,103.8 88.1,102.6 91.7,94.5 95.1,92.4 
			98.6,81.4 102.1,86.5 105.6,88.6 109,92 112.6,78.4 116.1,74.6 119.5,72.5 123,63.1 126.5,68.3 130,66.1 133.5,63.1 137,50 
			140.5,46.2 143.9,50.5 147.4,48.8 150.9,39.9 154.5,42.9 157.9,44.5 161.4,42.4 164.9,37.4 168.3,44.1 171.8,43.2 175.4,50.5 
			178.9,48.3 182.3,37.4 185.8,41.2 189.3,37.4 192.8,28 196.3,31.4 199.8,42 203.3,31.4 206.7,29.3 210.2,47 213.8,45.4 
			217.2,40.3 220.7,44.5 224.2,44.1 227.7,47.5 231.1,45 234.7,44.5 238.2,46.2 241.6,42.4 245.1,50.9 248.6,46.2 252.1,49.2 
			255.6,47.9 259.1,44.5 262.6,43.2 266,46.7 269.5,36.9 273,37.7 276.6,35.6 280,36.1 283.5,33.9 287,38.2 		"/>
		<g>
			<g>
				<path fill="#231F20" d="M5,129.3l1-0.9H4.3v-0.6h2.6v0.6l-1,0.9c0.6,0,1.1,0.4,1.1,1.1c0,0.6-0.5,1.2-1.4,1.2
					c-0.9,0-1.4-0.6-1.4-1.2l0.7-0.1c0,0.4,0.3,0.7,0.7,0.7c0.5,0,0.7-0.3,0.7-0.6c0-0.4-0.3-0.6-0.7-0.6c-0.2,0-0.3,0-0.3,0.1
					L5,129.3z"/>
				<path fill="#231F20" d="M8.2,130.3c0,0.4,0.3,0.7,0.7,0.7c0.4,0,0.7-0.3,0.7-0.7c0-0.5-0.3-0.7-0.7-0.7c-0.3,0-0.5,0.1-0.6,0.3
					l-0.6-0.2l0.5-1.9h2v0.6H8.6l-0.2,0.9c0.2-0.2,0.4-0.3,0.7-0.3c0.7,0,1.3,0.5,1.3,1.2c0,0.7-0.5,1.3-1.4,1.3
					c-0.8,0-1.4-0.5-1.4-1.1L8.2,130.3z"/>
			</g>
		</g>
		<g>
			<g>
				<path fill="#231F20" d="M4.3,108.8l1.6-2.2h0.9v2.3h0.6v0.6H6.7v0.8H6v-0.8H4.3V108.8z M6,107.3l-1.2,1.6H6V107.3z"/>
				<path fill="#231F20" d="M8.2,107.1c0.2-0.4,0.6-0.6,1.2-0.6s0.9,0.2,1.2,0.6c0.3,0.4,0.3,0.8,0.3,1.3c0,0.5-0.1,1-0.3,1.3
					c-0.2,0.4-0.6,0.6-1.2,0.6s-0.9-0.2-1.2-0.6c-0.3-0.4-0.3-0.8-0.3-1.3C7.8,108,7.9,107.5,8.2,107.1z M8.8,109.5
					c0.1,0.2,0.3,0.3,0.6,0.3s0.4-0.1,0.6-0.3c0.2-0.2,0.3-0.6,0.3-1.1c0-0.5-0.1-0.8-0.3-1.1c-0.1-0.2-0.3-0.3-0.6-0.3
					s-0.4,0.1-0.6,0.3c-0.2,0.2-0.3,0.6-0.3,1.1C8.5,108.9,8.6,109.3,8.8,109.5z"/>
			</g>
		</g>
		<g>
			<g>
				<path fill="#231F20" d="M4.3,87.6l1.6-2.2h0.9v2.3h0.6v0.6H6.7v0.8H6v-0.8H4.3V87.6z M6,86.1l-1.2,1.6H6V86.1z"/>
				<path fill="#231F20" d="M8.4,87.9c0,0.4,0.3,0.7,0.7,0.7c0.4,0,0.7-0.3,0.7-0.7c0-0.5-0.3-0.7-0.7-0.7c-0.3,0-0.5,0.1-0.6,0.3
					l-0.6-0.2l0.5-1.9h2V86H8.8L8.6,87c0.2-0.2,0.4-0.3,0.7-0.3c0.7,0,1.3,0.5,1.3,1.2c0,0.7-0.5,1.3-1.4,1.3
					c-0.8,0-1.4-0.5-1.4-1.1L8.4,87.9z"/>
			</g>
		</g>
		<g>
			<g>
				<path fill="#231F20" d="M4.9,66.7c0,0.4,0.3,0.7,0.7,0.7c0.4,0,0.7-0.3,0.7-0.7c0-0.5-0.3-0.7-0.7-0.7c-0.3,0-0.5,0.1-0.6,0.3
					l-0.6-0.2l0.5-1.9h2v0.6H5.3l-0.2,0.9c0.2-0.2,0.4-0.3,0.7-0.3c0.7,0,1.3,0.5,1.3,1.2C7,67.4,6.5,68,5.6,68
					c-0.8,0-1.4-0.5-1.4-1.1L4.9,66.7z"/>
				<path fill="#231F20" d="M7.9,64.7c0.2-0.4,0.6-0.6,1.2-0.6s0.9,0.2,1.2,0.6c0.3,0.4,0.3,0.8,0.3,1.3c0,0.5-0.1,1-0.3,1.3
					C10.1,67.8,9.7,68,9.1,68s-0.9-0.2-1.2-0.6c-0.3-0.4-0.3-0.8-0.3-1.3C7.6,65.6,7.7,65.1,7.9,64.7z M8.5,67.1
					c0.1,0.2,0.3,0.3,0.6,0.3s0.4-0.1,0.6-0.3c0.2-0.2,0.3-0.6,0.3-1.1c0-0.5-0.1-0.8-0.3-1.1c-0.1-0.2-0.3-0.3-0.6-0.3
					S8.7,64.8,8.5,65c-0.2,0.2-0.3,0.6-0.3,1.1C8.3,66.5,8.4,66.9,8.5,67.1z"/>
			</g>
		</g>
		<g>
			<g>
				<path fill="#231F20" d="M4.9,45.5c0,0.4,0.3,0.7,0.7,0.7c0.4,0,0.7-0.3,0.7-0.7c0-0.5-0.3-0.7-0.7-0.7c-0.3,0-0.5,0.1-0.6,0.3
					l-0.6-0.2L4.8,43h2v0.6H5.3l-0.2,0.9c0.2-0.2,0.4-0.3,0.7-0.3c0.7,0,1.3,0.5,1.3,1.2c0,0.7-0.5,1.3-1.4,1.3
					c-0.8,0-1.4-0.5-1.4-1.1L4.9,45.5z"/>
				<path fill="#231F20" d="M8.2,45.5c0,0.4,0.3,0.7,0.7,0.7c0.4,0,0.7-0.3,0.7-0.7c0-0.5-0.3-0.7-0.7-0.7c-0.3,0-0.5,0.1-0.6,0.3
					l-0.6-0.2L8.1,43h2v0.6H8.6l-0.2,0.9c0.2-0.2,0.4-0.3,0.7-0.3c0.7,0,1.3,0.5,1.3,1.2c0,0.7-0.5,1.3-1.4,1.3
					c-0.8,0-1.4-0.5-1.4-1.1L8.2,45.5z"/>
			</g>
		</g>
		<g>
			<g>
				<path fill="#231F20" d="M6.9,22.5c-0.1-0.1-0.3-0.1-0.6-0.1c-0.7,0-1.2,0.5-1.3,1.2c0.2-0.3,0.5-0.4,0.9-0.4
					c0.7,0,1.3,0.5,1.3,1.3c0,0.8-0.6,1.3-1.4,1.3c-0.9,0-1.5-0.8-1.5-1.7c0-1.3,0.8-2.2,2-2.2c0.3,0,0.6,0.1,0.8,0.2L6.9,22.5z
					 M5.8,25c0.4,0,0.7-0.3,0.7-0.7c0-0.4-0.3-0.7-0.7-0.7s-0.7,0.3-0.7,0.7C5.1,24.7,5.4,25,5.8,25z"/>
				<path fill="#231F20" d="M8.1,22.3c0.2-0.4,0.6-0.6,1.2-0.6s0.9,0.2,1.2,0.6c0.3,0.4,0.3,0.8,0.3,1.3c0,0.5-0.1,1-0.3,1.3
					c-0.2,0.4-0.6,0.6-1.2,0.6S8.4,25.3,8.1,25c-0.3-0.4-0.3-0.8-0.3-1.3C7.8,23.2,7.9,22.7,8.1,22.3z M8.7,24.7
					C8.9,24.9,9,25,9.3,25s0.4-0.1,0.6-0.3c0.2-0.2,0.3-0.6,0.3-1.1c0-0.5-0.1-0.8-0.3-1.1c-0.1-0.2-0.3-0.3-0.6-0.3
					s-0.4,0.1-0.6,0.3c-0.2,0.2-0.3,0.6-0.3,1.1C8.5,24.1,8.6,24.5,8.7,24.7z"/>
			</g>
		</g>
		<g>
			<g>
				<path fill="#231F20" d="M8.7,136.2c0-0.1,0-0.1,0-0.2c0-0.6,0.5-1.2,1.3-1.2c0.8,0,1.3,0.5,1.3,1.2c0,0.5-0.3,0.9-0.7,1.1
					l-0.7,0.4c-0.2,0.1-0.3,0.2-0.4,0.4h1.8v0.6H8.7c0-0.6,0.2-1.1,0.9-1.5l0.6-0.4c0.3-0.2,0.5-0.4,0.5-0.7c0-0.3-0.2-0.6-0.6-0.6
					c-0.4,0-0.6,0.3-0.6,0.7c0,0.1,0,0.1,0,0.2L8.7,136.2z"/>
				<path fill="#231F20" d="M12.3,135.4c0.2-0.4,0.6-0.6,1.2-0.6s0.9,0.2,1.2,0.6c0.3,0.4,0.3,0.8,0.3,1.3c0,0.5-0.1,1-0.3,1.3
					c-0.2,0.4-0.6,0.6-1.2,0.6s-0.9-0.2-1.2-0.6c-0.3-0.4-0.3-0.8-0.3-1.3C12,136.2,12,135.8,12.3,135.4z M12.9,137.8
					c0.1,0.2,0.3,0.3,0.6,0.3s0.4-0.1,0.6-0.3c0.2-0.2,0.3-0.6,0.3-1.1c0-0.5-0.1-0.8-0.3-1.1c-0.1-0.2-0.3-0.3-0.6-0.3
					s-0.4,0.1-0.6,0.3c-0.2,0.2-0.3,0.6-0.3,1.1C12.6,137.2,12.7,137.5,12.9,137.8z"/>
				<path fill="#231F20" d="M16.4,138.6V136h-0.9v-0.5c0.5,0,0.9-0.3,1-0.7h0.6v3.7H16.4z"/>
				<path fill="#231F20" d="M18.7,138.6V136h-0.9v-0.5c0.5,0,0.9-0.3,1-0.7h0.6v3.7H18.7z"/>
			</g>
		</g>
		<g>
			<g>
				<path fill="#231F20" d="M28.7,136.2c0-0.1,0-0.1,0-0.2c0-0.6,0.5-1.2,1.3-1.2c0.8,0,1.3,0.5,1.3,1.2c0,0.5-0.3,0.9-0.7,1.1
					l-0.7,0.4c-0.2,0.1-0.3,0.2-0.4,0.4h1.8v0.6h-2.7c0-0.6,0.2-1.1,0.9-1.5l0.6-0.4c0.3-0.2,0.5-0.4,0.5-0.7c0-0.3-0.2-0.6-0.6-0.6
					c-0.4,0-0.6,0.3-0.6,0.7c0,0.1,0,0.1,0,0.2L28.7,136.2z"/>
				<path fill="#231F20" d="M32.2,135.4c0.2-0.4,0.6-0.6,1.2-0.6s0.9,0.2,1.2,0.6c0.3,0.4,0.3,0.8,0.3,1.3c0,0.5-0.1,1-0.3,1.3
					c-0.2,0.4-0.6,0.6-1.2,0.6s-0.9-0.2-1.2-0.6c-0.3-0.4-0.3-0.8-0.3-1.3C31.9,136.2,32,135.8,32.2,135.4z M32.8,137.8
					c0.1,0.2,0.3,0.3,0.6,0.3s0.4-0.1,0.6-0.3c0.2-0.2,0.3-0.6,0.3-1.1c0-0.5-0.1-0.8-0.3-1.1c-0.1-0.2-0.3-0.3-0.6-0.3
					s-0.4,0.1-0.6,0.3c-0.2,0.2-0.3,0.6-0.3,1.1C32.6,137.2,32.7,137.5,32.8,137.8z"/>
				<path fill="#231F20" d="M36.3,138.6V136h-0.9v-0.5c0.5,0,0.9-0.3,1-0.7H37v3.7H36.3z"/>
				<path fill="#231F20" d="M38.6,138.6V136h-0.9v-0.5c0.5,0,0.9-0.3,1-0.7h0.6v3.7H38.6z"/>
			</g>
		</g>
		<g>
			<g>
				<path fill="#231F20" d="M9.7,146.3H9.1l2-4.1h0.6L9.7,146.3z"/>
				<path fill="#231F20" d="M14,143.1c0.2-0.4,0.6-0.6,1.2-0.6s0.9,0.2,1.2,0.6c0.3,0.4,0.3,0.8,0.3,1.3c0,0.5-0.1,1-0.3,1.3
					c-0.2,0.4-0.6,0.6-1.2,0.6s-0.9-0.2-1.2-0.6c-0.3-0.4-0.3-0.8-0.3-1.3C13.7,143.9,13.7,143.5,14,143.1z M14.6,145.5
					c0.1,0.2,0.3,0.3,0.6,0.3s0.4-0.1,0.6-0.3c0.2-0.2,0.3-0.6,0.3-1.1c0-0.5-0.1-0.8-0.3-1.1c-0.1-0.2-0.3-0.3-0.6-0.3
					s-0.4,0.1-0.6,0.3c-0.2,0.2-0.3,0.6-0.3,1.1C14.3,144.9,14.4,145.2,14.6,145.5z"/>
				<path fill="#231F20" d="M18.1,146.3v-2.5h-0.9v-0.5c0.5,0,0.9-0.3,1-0.7h0.6v3.7H18.1z"/>
			</g>
		</g>
		<g>
			<g>
				<path fill="#231F20" d="M29.3,146.3h-0.6l2-4.1h0.6L29.3,146.3z"/>
				<path fill="#231F20" d="M33.6,143.1c0.2-0.4,0.6-0.6,1.2-0.6s0.9,0.2,1.2,0.6c0.3,0.4,0.3,0.8,0.3,1.3c0,0.5-0.1,1-0.3,1.3
					c-0.2,0.4-0.6,0.6-1.2,0.6s-0.9-0.2-1.2-0.6c-0.3-0.4-0.3-0.8-0.3-1.3C33.2,143.9,33.3,143.5,33.6,143.1z M34.2,145.5
					c0.1,0.2,0.3,0.3,0.6,0.3s0.4-0.1,0.6-0.3c0.2-0.2,0.3-0.6,0.3-1.1c0-0.5-0.1-0.8-0.3-1.1c-0.1-0.2-0.3-0.3-0.6-0.3
					s-0.4,0.1-0.6,0.3c-0.2,0.2-0.3,0.6-0.3,1.1C33.9,144.9,34,145.2,34.2,145.5z"/>
				<path fill="#231F20" d="M39.4,143.2c-0.3,0.3-1.4,1.2-1.5,3.1h-0.7c0.2-2.1,1.5-3.1,1.5-3.1h-2v-0.6h2.8V143.2z"/>
			</g>
		</g>
		<g>
			<g>
				<path fill="#231F20" d="M50,146.3h-0.6l2-4.1H52L50,146.3z"/>
				<path fill="#231F20" d="M54.3,143.1c0.2-0.4,0.6-0.6,1.2-0.6s0.9,0.2,1.2,0.6c0.3,0.4,0.3,0.8,0.3,1.3c0,0.5-0.1,1-0.3,1.3
					c-0.2,0.4-0.6,0.6-1.2,0.6s-0.9-0.2-1.2-0.6c-0.3-0.4-0.3-0.8-0.3-1.3C54,143.9,54.1,143.5,54.3,143.1z M54.9,145.5
					c0.1,0.2,0.3,0.3,0.6,0.3s0.4-0.1,0.6-0.3c0.2-0.2,0.3-0.6,0.3-1.1c0-0.5-0.1-0.8-0.3-1.1c-0.1-0.2-0.3-0.3-0.6-0.3
					s-0.4,0.1-0.6,0.3c-0.2,0.2-0.3,0.6-0.3,1.1C54.7,144.9,54.8,145.2,54.9,145.5z"/>
				<path fill="#231F20" d="M58.4,146.3v-2.5h-0.9v-0.5c0.5,0,0.9-0.3,1-0.7h0.6v3.7H58.4z"/>
			</g>
		</g>
		<g>
			<g>
				<path fill="#231F20" d="M70.6,146.3H70l2-4.1h0.6L70.6,146.3z"/>
				<path fill="#231F20" d="M74.9,143.1c0.2-0.4,0.6-0.6,1.2-0.6s0.9,0.2,1.2,0.6c0.3,0.4,0.3,0.8,0.3,1.3c0,0.5-0.1,1-0.3,1.3
					c-0.2,0.4-0.6,0.6-1.2,0.6s-0.9-0.2-1.2-0.6c-0.3-0.4-0.3-0.8-0.3-1.3C74.5,143.9,74.6,143.5,74.9,143.1z M75.5,145.5
					c0.1,0.2,0.3,0.3,0.6,0.3s0.4-0.1,0.6-0.3c0.2-0.2,0.3-0.6,0.3-1.1c0-0.5-0.1-0.8-0.3-1.1c-0.1-0.2-0.3-0.3-0.6-0.3
					s-0.4,0.1-0.6,0.3c-0.2,0.2-0.3,0.6-0.3,1.1C75.2,144.9,75.3,145.2,75.5,145.5z"/>
				<path fill="#231F20" d="M80.8,143.2c-0.3,0.3-1.4,1.2-1.5,3.1h-0.7c0.2-2.1,1.5-3.1,1.5-3.1h-2v-0.6h2.8V143.2z"/>
			</g>
		</g>
		<g>
			<g>
				<path fill="#231F20" d="M91.9,146.3h-0.6l2-4.1h0.6L91.9,146.3z"/>
				<path fill="#231F20" d="M96.1,143.1c0.2-0.4,0.6-0.6,1.2-0.6s0.9,0.2,1.2,0.6c0.3,0.4,0.3,0.8,0.3,1.3c0,0.5-0.1,1-0.3,1.3
					c-0.2,0.4-0.6,0.6-1.2,0.6s-0.9-0.2-1.2-0.6c-0.3-0.4-0.3-0.8-0.3-1.3C95.8,143.9,95.9,143.5,96.1,143.1z M96.8,145.5
					c0.1,0.2,0.3,0.3,0.6,0.3s0.4-0.1,0.6-0.3c0.2-0.2,0.3-0.6,0.3-1.1c0-0.5-0.1-0.8-0.3-1.1c-0.1-0.2-0.3-0.3-0.6-0.3
					s-0.4,0.1-0.6,0.3c-0.2,0.2-0.3,0.6-0.3,1.1C96.5,144.9,96.6,145.2,96.8,145.5z"/>
				<path fill="#231F20" d="M100.3,146.3v-2.5h-0.9v-0.5c0.5,0,0.9-0.3,1-0.7h0.6v3.7H100.3z"/>
			</g>
		</g>
		<g>
			<g>
				<path fill="#231F20" d="M112.5,146.3h-0.6l2-4.1h0.6L112.5,146.3z"/>
				<path fill="#231F20" d="M116.7,143.1c0.2-0.4,0.6-0.6,1.2-0.6s0.9,0.2,1.2,0.6c0.3,0.4,0.3,0.8,0.3,1.3c0,0.5-0.1,1-0.3,1.3
					c-0.2,0.4-0.6,0.6-1.2,0.6s-0.9-0.2-1.2-0.6c-0.3-0.4-0.3-0.8-0.3-1.3C116.4,143.9,116.5,143.5,116.7,143.1z M117.3,145.5
					c0.1,0.2,0.3,0.3,0.6,0.3s0.4-0.1,0.6-0.3c0.2-0.2,0.3-0.6,0.3-1.1c0-0.5-0.1-0.8-0.3-1.1c-0.1-0.2-0.3-0.3-0.6-0.3
					s-0.4,0.1-0.6,0.3c-0.2,0.2-0.3,0.6-0.3,1.1C117.1,144.9,117.2,145.2,117.3,145.5z"/>
				<path fill="#231F20" d="M122.6,143.2c-0.3,0.3-1.4,1.2-1.5,3.1h-0.7c0.2-2.1,1.5-3.1,1.5-3.1h-2v-0.6h2.8V143.2z"/>
			</g>
		</g>
		<g>
			<g>
				<path fill="#231F20" d="M133.9,146.3h-0.6l2-4.1h0.6L133.9,146.3z"/>
				<path fill="#231F20" d="M138.1,143.1c0.2-0.4,0.6-0.6,1.2-0.6c0.6,0,0.9,0.2,1.2,0.6c0.3,0.4,0.3,0.8,0.3,1.3
					c0,0.5-0.1,1-0.3,1.3c-0.2,0.4-0.6,0.6-1.2,0.6c-0.6,0-0.9-0.2-1.2-0.6c-0.3-0.4-0.3-0.8-0.3-1.3
					C137.8,143.9,137.9,143.5,138.1,143.1z M138.7,145.5c0.1,0.2,0.3,0.3,0.6,0.3c0.3,0,0.4-0.1,0.6-0.3c0.2-0.2,0.3-0.6,0.3-1.1
					c0-0.5-0.1-0.8-0.3-1.1c-0.1-0.2-0.3-0.3-0.6-0.3c-0.3,0-0.4,0.1-0.6,0.3c-0.2,0.2-0.3,0.6-0.3,1.1
					C138.5,144.9,138.6,145.2,138.7,145.5z"/>
				<path fill="#231F20" d="M142.2,146.3v-2.5h-0.9v-0.5c0.5,0,0.9-0.3,1-0.7h0.6v3.7H142.2z"/>
			</g>
		</g>
		<g>
			<g>
				<path fill="#231F20" d="M155.3,146.3h-0.6l2-4.1h0.6L155.3,146.3z"/>
				<path fill="#231F20" d="M159.6,143.1c0.2-0.4,0.6-0.6,1.2-0.6c0.6,0,0.9,0.2,1.2,0.6c0.3,0.4,0.3,0.8,0.3,1.3
					c0,0.5-0.1,1-0.3,1.3c-0.2,0.4-0.6,0.6-1.2,0.6c-0.6,0-0.9-0.2-1.2-0.6c-0.3-0.4-0.3-0.8-0.3-1.3
					C159.2,143.9,159.3,143.5,159.6,143.1z M160.2,145.5c0.1,0.2,0.3,0.3,0.6,0.3c0.3,0,0.4-0.1,0.6-0.3c0.2-0.2,0.3-0.6,0.3-1.1
					c0-0.5-0.1-0.8-0.3-1.1c-0.1-0.2-0.3-0.3-0.6-0.3c-0.3,0-0.4,0.1-0.6,0.3c-0.2,0.2-0.3,0.6-0.3,1.1
					C159.9,144.9,160,145.2,160.2,145.5z"/>
				<path fill="#231F20" d="M165.4,143.2c-0.3,0.3-1.4,1.2-1.5,3.1h-0.7c0.2-2.1,1.5-3.1,1.5-3.1h-2v-0.6h2.8V143.2z"/>
			</g>
		</g>
		<g>
			<g>
				<path fill="#231F20" d="M176.5,146.3h-0.6l2-4.1h0.6L176.5,146.3z"/>
				<path fill="#231F20" d="M180.8,143.1c0.2-0.4,0.6-0.6,1.2-0.6c0.6,0,0.9,0.2,1.2,0.6c0.3,0.4,0.3,0.8,0.3,1.3
					c0,0.5-0.1,1-0.3,1.3c-0.2,0.4-0.6,0.6-1.2,0.6c-0.6,0-0.9-0.2-1.2-0.6c-0.3-0.4-0.3-0.8-0.3-1.3
					C180.4,143.9,180.5,143.5,180.8,143.1z M181.4,145.5c0.1,0.2,0.3,0.3,0.6,0.3c0.3,0,0.4-0.1,0.6-0.3c0.2-0.2,0.3-0.6,0.3-1.1
					c0-0.5-0.1-0.8-0.3-1.1c-0.1-0.2-0.3-0.3-0.6-0.3c-0.3,0-0.4,0.1-0.6,0.3c-0.2,0.2-0.3,0.6-0.3,1.1
					C181.1,144.9,181.2,145.2,181.4,145.5z"/>
				<path fill="#231F20" d="M184.9,146.3v-2.5H184v-0.5c0.5,0,0.9-0.3,1-0.7h0.6v3.7H184.9z"/>
			</g>
		</g>
		<g>
			<g>
				<path fill="#231F20" d="M196.6,146.3H196l2-4.1h0.6L196.6,146.3z"/>
				<path fill="#231F20" d="M200.9,143.1c0.2-0.4,0.6-0.6,1.2-0.6c0.6,0,0.9,0.2,1.2,0.6c0.3,0.4,0.3,0.8,0.3,1.3
					c0,0.5-0.1,1-0.3,1.3c-0.2,0.4-0.6,0.6-1.2,0.6c-0.6,0-0.9-0.2-1.2-0.6c-0.3-0.4-0.3-0.8-0.3-1.3
					C200.6,143.9,200.6,143.5,200.9,143.1z M201.5,145.5c0.1,0.2,0.3,0.3,0.6,0.3c0.3,0,0.4-0.1,0.6-0.3c0.2-0.2,0.3-0.6,0.3-1.1
					c0-0.5-0.1-0.8-0.3-1.1c-0.1-0.2-0.3-0.3-0.6-0.3c-0.3,0-0.4,0.1-0.6,0.3c-0.2,0.2-0.3,0.6-0.3,1.1
					C201.2,144.9,201.3,145.2,201.5,145.5z"/>
				<path fill="#231F20" d="M206.8,143.2c-0.3,0.3-1.4,1.2-1.5,3.1h-0.7c0.2-2.1,1.5-3.1,1.5-3.1h-2v-0.6h2.8V143.2z"/>
			</g>
		</g>
		<g>
			<g>
				<path fill="#231F20" d="M218,146.3h-0.6l2-4.1h0.6L218,146.3z"/>
				<path fill="#231F20" d="M222.3,143.1c0.2-0.4,0.6-0.6,1.2-0.6c0.6,0,0.9,0.2,1.2,0.6c0.3,0.4,0.3,0.8,0.3,1.3
					c0,0.5-0.1,1-0.3,1.3c-0.2,0.4-0.6,0.6-1.2,0.6c-0.6,0-0.9-0.2-1.2-0.6c-0.3-0.4-0.3-0.8-0.3-1.3
					C222,143.9,222,143.5,222.3,143.1z M222.9,145.5c0.1,0.2,0.3,0.3,0.6,0.3c0.3,0,0.4-0.1,0.6-0.3c0.2-0.2,0.3-0.6,0.3-1.1
					c0-0.5-0.1-0.8-0.3-1.1c-0.1-0.2-0.3-0.3-0.6-0.3c-0.3,0-0.4,0.1-0.6,0.3c-0.2,0.2-0.3,0.6-0.3,1.1
					C222.6,144.9,222.7,145.2,222.9,145.5z"/>
				<path fill="#231F20" d="M226.4,146.3v-2.5h-0.9v-0.5c0.5,0,0.9-0.3,1-0.7h0.6v3.7H226.4z"/>
			</g>
		</g>
		<g>
			<g>
				<path fill="#231F20" d="M238.6,146.3H238l2-4.1h0.6L238.6,146.3z"/>
				<path fill="#231F20" d="M242.9,143.1c0.2-0.4,0.6-0.6,1.2-0.6c0.6,0,0.9,0.2,1.2,0.6c0.3,0.4,0.3,0.8,0.3,1.3
					c0,0.5-0.1,1-0.3,1.3c-0.2,0.4-0.6,0.6-1.2,0.6c-0.6,0-0.9-0.2-1.2-0.6c-0.3-0.4-0.3-0.8-0.3-1.3
					C242.6,143.9,242.7,143.5,242.9,143.1z M243.5,145.5c0.1,0.2,0.3,0.3,0.6,0.3c0.3,0,0.4-0.1,0.6-0.3c0.2-0.2,0.3-0.6,0.3-1.1
					c0-0.5-0.1-0.8-0.3-1.1c-0.1-0.2-0.3-0.3-0.6-0.3c-0.3,0-0.4,0.1-0.6,0.3c-0.2,0.2-0.3,0.6-0.3,1.1
					C243.3,144.9,243.4,145.2,243.5,145.5z"/>
				<path fill="#231F20" d="M248.8,143.2c-0.3,0.3-1.4,1.2-1.5,3.1h-0.7c0.2-2.1,1.5-3.1,1.5-3.1h-2v-0.6h2.8V143.2z"/>
			</g>
		</g>
		<g>
			<g>
				<path fill="#231F20" d="M260,146.3h-0.6l2-4.1h0.6L260,146.3z"/>
				<path fill="#231F20" d="M264.3,143.1c0.2-0.4,0.6-0.6,1.2-0.6c0.6,0,0.9,0.2,1.2,0.6c0.3,0.4,0.3,0.8,0.3,1.3
					c0,0.5-0.1,1-0.3,1.3c-0.2,0.4-0.6,0.6-1.2,0.6c-0.6,0-0.9-0.2-1.2-0.6c-0.3-0.4-0.3-0.8-0.3-1.3
					C264,143.9,264.1,143.5,264.3,143.1z M264.9,145.5c0.1,0.2,0.3,0.3,0.6,0.3c0.3,0,0.4-0.1,0.6-0.3c0.2-0.2,0.3-0.6,0.3-1.1
					c0-0.5-0.1-0.8-0.3-1.1c-0.1-0.2-0.3-0.3-0.6-0.3c-0.3,0-0.4,0.1-0.6,0.3c-0.2,0.2-0.3,0.6-0.3,1.1
					C264.7,144.9,264.8,145.2,264.9,145.5z"/>
				<path fill="#231F20" d="M268.4,146.3v-2.5h-0.9v-0.5c0.5,0,0.9-0.3,1-0.7h0.6v3.7H268.4z"/>
			</g>
		</g>
		<g>
			<g>
				<path fill="#231F20" d="M280.3,146.3h-0.6l2-4.1h0.6L280.3,146.3z"/>
				<path fill="#231F20" d="M284.6,143.1c0.2-0.4,0.6-0.6,1.2-0.6c0.6,0,0.9,0.2,1.2,0.6c0.3,0.4,0.3,0.8,0.3,1.3
					c0,0.5-0.1,1-0.3,1.3c-0.2,0.4-0.6,0.6-1.2,0.6c-0.6,0-0.9-0.2-1.2-0.6c-0.3-0.4-0.3-0.8-0.3-1.3
					C284.3,143.9,284.4,143.5,284.6,143.1z M285.2,145.5c0.1,0.2,0.3,0.3,0.6,0.3c0.3,0,0.4-0.1,0.6-0.3c0.2-0.2,0.3-0.6,0.3-1.1
					c0-0.5-0.1-0.8-0.3-1.1c-0.1-0.2-0.3-0.3-0.6-0.3c-0.3,0-0.4,0.1-0.6,0.3c-0.2,0.2-0.3,0.6-0.3,1.1
					C285,144.9,285.1,145.2,285.2,145.5z"/>
				<path fill="#231F20" d="M290.5,143.2c-0.3,0.3-1.4,1.2-1.5,3.1h-0.7c0.2-2.1,1.5-3.1,1.5-3.1h-2v-0.6h2.8V143.2z"/>
			</g>
		</g>
		<g>
			<g>
				<path fill="#231F20" d="M48.6,136.2c0-0.1,0-0.1,0-0.2c0-0.6,0.5-1.2,1.3-1.2c0.8,0,1.3,0.5,1.3,1.2c0,0.5-0.3,0.9-0.7,1.1
					l-0.7,0.4c-0.2,0.1-0.3,0.2-0.4,0.4h1.8v0.6h-2.7c0-0.6,0.2-1.1,0.9-1.5l0.6-0.4c0.3-0.2,0.5-0.4,0.5-0.7c0-0.3-0.2-0.6-0.6-0.6
					c-0.4,0-0.6,0.3-0.6,0.7c0,0.1,0,0.1,0,0.2L48.6,136.2z"/>
				<path fill="#231F20" d="M52.1,135.4c0.2-0.4,0.6-0.6,1.2-0.6s0.9,0.2,1.2,0.6c0.3,0.4,0.3,0.8,0.3,1.3c0,0.5-0.1,1-0.3,1.3
					c-0.2,0.4-0.6,0.6-1.2,0.6s-0.9-0.2-1.2-0.6c-0.3-0.4-0.3-0.8-0.3-1.3C51.8,136.2,51.9,135.8,52.1,135.4z M52.8,137.8
					c0.1,0.2,0.3,0.3,0.6,0.3s0.4-0.1,0.6-0.3c0.2-0.2,0.3-0.6,0.3-1.1c0-0.5-0.1-0.8-0.3-1.1c-0.1-0.2-0.3-0.3-0.6-0.3
					s-0.4,0.1-0.6,0.3c-0.2,0.2-0.3,0.6-0.3,1.1C52.5,137.2,52.6,137.5,52.8,137.8z"/>
				<path fill="#231F20" d="M56.2,138.6V136h-0.9v-0.5c0.5,0,0.9-0.3,1-0.7h0.6v3.7H56.2z"/>
				<path fill="#231F20" d="M57.8,136.2c0-0.1,0-0.1,0-0.2c0-0.6,0.5-1.2,1.3-1.2c0.8,0,1.3,0.5,1.3,1.2c0,0.5-0.3,0.9-0.7,1.1
					l-0.7,0.4c-0.2,0.1-0.3,0.2-0.4,0.4h1.8v0.6h-2.7c0-0.6,0.2-1.1,0.9-1.5l0.6-0.4c0.3-0.2,0.5-0.4,0.5-0.7c0-0.3-0.2-0.6-0.6-0.6
					c-0.4,0-0.6,0.3-0.6,0.7c0,0.1,0,0.1,0,0.2L57.8,136.2z"/>
			</g>
		</g>
		<g>
			<g>
				<path fill="#231F20" d="M69.5,136.2c0-0.1,0-0.1,0-0.2c0-0.6,0.5-1.2,1.3-1.2c0.8,0,1.3,0.5,1.3,1.2c0,0.5-0.3,0.9-0.7,1.1
					l-0.7,0.4c-0.2,0.1-0.3,0.2-0.4,0.4h1.8v0.6h-2.7c0-0.6,0.2-1.1,0.9-1.5l0.6-0.4c0.3-0.2,0.5-0.4,0.5-0.7c0-0.3-0.2-0.6-0.6-0.6
					c-0.4,0-0.6,0.3-0.6,0.7c0,0.1,0,0.1,0,0.2L69.5,136.2z"/>
				<path fill="#231F20" d="M73,135.4c0.2-0.4,0.6-0.6,1.2-0.6s0.9,0.2,1.2,0.6c0.3,0.4,0.3,0.8,0.3,1.3c0,0.5-0.1,1-0.3,1.3
					c-0.2,0.4-0.6,0.6-1.2,0.6s-0.9-0.2-1.2-0.6c-0.3-0.4-0.3-0.8-0.3-1.3C72.7,136.2,72.8,135.8,73,135.4z M73.7,137.8
					c0.1,0.2,0.3,0.3,0.6,0.3s0.4-0.1,0.6-0.3c0.2-0.2,0.3-0.6,0.3-1.1c0-0.5-0.1-0.8-0.3-1.1c-0.1-0.2-0.3-0.3-0.6-0.3
					s-0.4,0.1-0.6,0.3c-0.2,0.2-0.3,0.6-0.3,1.1C73.4,137.2,73.5,137.5,73.7,137.8z"/>
				<path fill="#231F20" d="M77.1,138.6V136h-0.9v-0.5c0.5,0,0.9-0.3,1-0.7h0.6v3.7H77.1z"/>
				<path fill="#231F20" d="M78.7,136.2c0-0.1,0-0.1,0-0.2c0-0.6,0.5-1.2,1.3-1.2c0.8,0,1.3,0.5,1.3,1.2c0,0.5-0.3,0.9-0.7,1.1
					l-0.7,0.4c-0.2,0.1-0.3,0.2-0.4,0.4h1.8v0.6h-2.7c0-0.6,0.2-1.1,0.9-1.5l0.6-0.4c0.3-0.2,0.5-0.4,0.5-0.7c0-0.3-0.2-0.6-0.6-0.6
					c-0.4,0-0.6,0.3-0.6,0.7c0,0.1,0,0.1,0,0.2L78.7,136.2z"/>
			</g>
		</g>
		<g>
			<g>
				<path fill="#231F20" d="M90.4,136.2c0-0.1,0-0.1,0-0.2c0-0.6,0.5-1.2,1.3-1.2c0.8,0,1.3,0.5,1.3,1.2c0,0.5-0.3,0.9-0.7,1.1
					l-0.7,0.4c-0.2,0.1-0.3,0.2-0.4,0.4H93v0.6h-2.7c0-0.6,0.2-1.1,0.9-1.5l0.6-0.4c0.3-0.2,0.5-0.4,0.5-0.7c0-0.3-0.2-0.6-0.6-0.6
					c-0.4,0-0.6,0.3-0.6,0.7c0,0.1,0,0.1,0,0.2L90.4,136.2z"/>
				<path fill="#231F20" d="M93.9,135.4c0.2-0.4,0.6-0.6,1.2-0.6s0.9,0.2,1.2,0.6c0.3,0.4,0.3,0.8,0.3,1.3c0,0.5-0.1,1-0.3,1.3
					c-0.2,0.4-0.6,0.6-1.2,0.6s-0.9-0.2-1.2-0.6c-0.3-0.4-0.3-0.8-0.3-1.3C93.6,136.2,93.7,135.8,93.9,135.4z M94.6,137.8
					c0.1,0.2,0.3,0.3,0.6,0.3s0.4-0.1,0.6-0.3c0.2-0.2,0.3-0.6,0.3-1.1c0-0.5-0.1-0.8-0.3-1.1c-0.1-0.2-0.3-0.3-0.6-0.3
					s-0.4,0.1-0.6,0.3c-0.2,0.2-0.3,0.6-0.3,1.1C94.3,137.2,94.4,137.5,94.6,137.8z"/>
				<path fill="#231F20" d="M98,138.6V136h-0.9v-0.5c0.5,0,0.9-0.3,1-0.7h0.6v3.7H98z"/>
				<path fill="#231F20" d="M100.2,136.4l1-0.9h-1.7v-0.6h2.6v0.6l-1,0.9c0.6,0,1.1,0.4,1.1,1.1c0,0.6-0.5,1.2-1.4,1.2
					c-0.9,0-1.4-0.6-1.4-1.2l0.7-0.1c0,0.4,0.3,0.7,0.7,0.7c0.5,0,0.7-0.3,0.7-0.6c0-0.4-0.3-0.6-0.7-0.6c-0.2,0-0.3,0-0.3,0.1
					L100.2,136.4z"/>
			</g>
		</g>
		<g>
			<g>
				<path fill="#231F20" d="M111.3,136.2c0-0.1,0-0.1,0-0.2c0-0.6,0.5-1.2,1.3-1.2c0.8,0,1.3,0.5,1.3,1.2c0,0.5-0.3,0.9-0.7,1.1
					l-0.7,0.4c-0.2,0.1-0.3,0.2-0.4,0.4h1.8v0.6h-2.7c0-0.6,0.2-1.1,0.9-1.5l0.6-0.4c0.3-0.2,0.5-0.4,0.5-0.7c0-0.3-0.2-0.6-0.6-0.6
					c-0.4,0-0.6,0.3-0.6,0.7c0,0.1,0,0.1,0,0.2L111.3,136.2z"/>
				<path fill="#231F20" d="M114.9,135.4c0.2-0.4,0.6-0.6,1.2-0.6s0.9,0.2,1.2,0.6c0.3,0.4,0.3,0.8,0.3,1.3c0,0.5-0.1,1-0.3,1.3
					c-0.2,0.4-0.6,0.6-1.2,0.6s-0.9-0.2-1.2-0.6c-0.3-0.4-0.3-0.8-0.3-1.3C114.6,136.2,114.6,135.8,114.9,135.4z M115.5,137.8
					c0.1,0.2,0.3,0.3,0.6,0.3s0.4-0.1,0.6-0.3c0.2-0.2,0.3-0.6,0.3-1.1c0-0.5-0.1-0.8-0.3-1.1c-0.1-0.2-0.3-0.3-0.6-0.3
					s-0.4,0.1-0.6,0.3c-0.2,0.2-0.3,0.6-0.3,1.1C115.2,137.2,115.3,137.5,115.5,137.8z"/>
				<path fill="#231F20" d="M119,138.6V136h-0.9v-0.5c0.5,0,0.9-0.3,1-0.7h0.6v3.7H119z"/>
				<path fill="#231F20" d="M121.2,136.4l1-0.9h-1.7v-0.6h2.6v0.6l-1,0.9c0.6,0,1.1,0.4,1.1,1.1c0,0.6-0.5,1.2-1.4,1.2
					c-0.9,0-1.4-0.6-1.4-1.2l0.7-0.1c0,0.4,0.3,0.7,0.7,0.7c0.5,0,0.7-0.3,0.7-0.6c0-0.4-0.3-0.6-0.7-0.6c-0.2,0-0.3,0-0.3,0.1
					L121.2,136.4z"/>
			</g>
		</g>
		<g>
			<g>
				<path fill="#231F20" d="M132.3,136.2c0-0.1,0-0.1,0-0.2c0-0.6,0.5-1.2,1.3-1.2c0.8,0,1.3,0.5,1.3,1.2c0,0.5-0.3,0.9-0.7,1.1
					l-0.7,0.4c-0.2,0.1-0.3,0.2-0.4,0.4h1.8v0.6h-2.7c0-0.6,0.2-1.1,0.9-1.5l0.6-0.4c0.3-0.2,0.5-0.4,0.5-0.7c0-0.3-0.2-0.6-0.6-0.6
					c-0.4,0-0.6,0.3-0.6,0.7c0,0.1,0,0.1,0,0.2L132.3,136.2z"/>
				<path fill="#231F20" d="M135.8,135.4c0.2-0.4,0.6-0.6,1.2-0.6c0.6,0,0.9,0.2,1.2,0.6c0.3,0.4,0.3,0.8,0.3,1.3
					c0,0.5-0.1,1-0.3,1.3c-0.2,0.4-0.6,0.6-1.2,0.6c-0.6,0-0.9-0.2-1.2-0.6c-0.3-0.4-0.3-0.8-0.3-1.3
					C135.5,136.2,135.6,135.8,135.8,135.4z M136.5,137.8c0.1,0.2,0.3,0.3,0.6,0.3c0.3,0,0.4-0.1,0.6-0.3c0.2-0.2,0.3-0.6,0.3-1.1
					c0-0.5-0.1-0.8-0.3-1.1c-0.1-0.2-0.3-0.3-0.6-0.3c-0.3,0-0.4,0.1-0.6,0.3c-0.2,0.2-0.3,0.6-0.3,1.1
					C136.2,137.2,136.3,137.5,136.5,137.8z"/>
				<path fill="#231F20" d="M139.9,138.6V136H139v-0.5c0.5,0,0.9-0.3,1-0.7h0.6v3.7H139.9z"/>
				<path fill="#231F20" d="M141.4,137l1.6-2.2h0.9v2.3h0.6v0.6h-0.6v0.8h-0.7v-0.8h-1.8V137z M143.1,135.5l-1.2,1.6h1.2V135.5z"/>
			</g>
		</g>
		<g>
			<g>
				<path fill="#231F20" d="M153.4,136.2c0-0.1,0-0.1,0-0.2c0-0.6,0.5-1.2,1.3-1.2c0.8,0,1.3,0.5,1.3,1.2c0,0.5-0.3,0.9-0.7,1.1
					l-0.7,0.4c-0.2,0.1-0.3,0.2-0.4,0.4h1.8v0.6h-2.7c0-0.6,0.2-1.1,0.9-1.5l0.6-0.4c0.3-0.2,0.5-0.4,0.5-0.7c0-0.3-0.2-0.6-0.6-0.6
					c-0.4,0-0.6,0.3-0.6,0.7c0,0.1,0,0.1,0,0.2L153.4,136.2z"/>
				<path fill="#231F20" d="M157,135.4c0.2-0.4,0.6-0.6,1.2-0.6c0.6,0,0.9,0.2,1.2,0.6c0.3,0.4,0.3,0.8,0.3,1.3c0,0.5-0.1,1-0.3,1.3
					c-0.2,0.4-0.6,0.6-1.2,0.6c-0.6,0-0.9-0.2-1.2-0.6c-0.3-0.4-0.3-0.8-0.3-1.3C156.6,136.2,156.7,135.8,157,135.4z M157.6,137.8
					c0.1,0.2,0.3,0.3,0.6,0.3c0.3,0,0.4-0.1,0.6-0.3c0.2-0.2,0.3-0.6,0.3-1.1c0-0.5-0.1-0.8-0.3-1.1c-0.1-0.2-0.3-0.3-0.6-0.3
					c-0.3,0-0.4,0.1-0.6,0.3c-0.2,0.2-0.3,0.6-0.3,1.1C157.3,137.2,157.4,137.5,157.6,137.8z"/>
				<path fill="#231F20" d="M161.1,138.6V136h-0.9v-0.5c0.5,0,0.9-0.3,1-0.7h0.6v3.7H161.1z"/>
				<path fill="#231F20" d="M162.5,137l1.6-2.2h0.9v2.3h0.6v0.6H165v0.8h-0.7v-0.8h-1.8V137z M164.3,135.5l-1.2,1.6h1.2V135.5z"/>
			</g>
		</g>
		<g>
			<g>
				<path fill="#231F20" d="M174.5,136.2c0-0.1,0-0.1,0-0.2c0-0.6,0.5-1.2,1.3-1.2c0.8,0,1.3,0.5,1.3,1.2c0,0.5-0.3,0.9-0.7,1.1
					l-0.7,0.4c-0.2,0.1-0.3,0.2-0.4,0.4h1.8v0.6h-2.7c0-0.6,0.2-1.1,0.9-1.5l0.6-0.4c0.3-0.2,0.5-0.4,0.5-0.7c0-0.3-0.2-0.6-0.6-0.6
					c-0.4,0-0.6,0.3-0.6,0.7c0,0.1,0,0.1,0,0.2L174.5,136.2z"/>
				<path fill="#231F20" d="M178.1,135.4c0.2-0.4,0.6-0.6,1.2-0.6c0.6,0,0.9,0.2,1.2,0.6c0.3,0.4,0.3,0.8,0.3,1.3
					c0,0.5-0.1,1-0.3,1.3c-0.2,0.4-0.6,0.6-1.2,0.6c-0.6,0-0.9-0.2-1.2-0.6c-0.3-0.4-0.3-0.8-0.3-1.3
					C177.8,136.2,177.8,135.8,178.1,135.4z M178.7,137.8c0.1,0.2,0.3,0.3,0.6,0.3c0.3,0,0.4-0.1,0.6-0.3c0.2-0.2,0.3-0.6,0.3-1.1
					c0-0.5-0.1-0.8-0.3-1.1c-0.1-0.2-0.3-0.3-0.6-0.3c-0.3,0-0.4,0.1-0.6,0.3c-0.2,0.2-0.3,0.6-0.3,1.1
					C178.4,137.2,178.5,137.5,178.7,137.8z"/>
				<path fill="#231F20" d="M182.2,138.6V136h-0.9v-0.5c0.5,0,0.9-0.3,1-0.7h0.6v3.7H182.2z"/>
				<path fill="#231F20" d="M184.3,137.4c0,0.4,0.3,0.7,0.7,0.7c0.4,0,0.7-0.3,0.7-0.7c0-0.5-0.3-0.7-0.7-0.7
					c-0.3,0-0.5,0.1-0.6,0.3l-0.6-0.2l0.5-1.9h2v0.6h-1.6l-0.2,0.9c0.2-0.2,0.4-0.3,0.7-0.3c0.7,0,1.3,0.5,1.3,1.2
					c0,0.7-0.5,1.3-1.4,1.3c-0.8,0-1.4-0.5-1.4-1.1L184.3,137.4z"/>
			</g>
		</g>
		<g>
			<g>
				<path fill="#231F20" d="M195.5,136.2c0-0.1,0-0.1,0-0.2c0-0.6,0.5-1.2,1.3-1.2c0.8,0,1.3,0.5,1.3,1.2c0,0.5-0.3,0.9-0.7,1.1
					l-0.7,0.4c-0.2,0.1-0.3,0.2-0.4,0.4h1.8v0.6h-2.7c0-0.6,0.2-1.1,0.9-1.5l0.6-0.4c0.3-0.2,0.5-0.4,0.5-0.7c0-0.3-0.2-0.6-0.6-0.6
					c-0.4,0-0.6,0.3-0.6,0.7c0,0.1,0,0.1,0,0.2L195.5,136.2z"/>
				<path fill="#231F20" d="M199,135.4c0.2-0.4,0.6-0.6,1.2-0.6c0.6,0,0.9,0.2,1.2,0.6c0.3,0.4,0.3,0.8,0.3,1.3c0,0.5-0.1,1-0.3,1.3
					c-0.2,0.4-0.6,0.6-1.2,0.6c-0.6,0-0.9-0.2-1.2-0.6c-0.3-0.4-0.3-0.8-0.3-1.3C198.7,136.2,198.8,135.8,199,135.4z M199.7,137.8
					c0.1,0.2,0.3,0.3,0.6,0.3c0.3,0,0.4-0.1,0.6-0.3c0.2-0.2,0.3-0.6,0.3-1.1c0-0.5-0.1-0.8-0.3-1.1c-0.1-0.2-0.3-0.3-0.6-0.3
					c-0.3,0-0.4,0.1-0.6,0.3c-0.2,0.2-0.3,0.6-0.3,1.1C199.4,137.2,199.5,137.5,199.7,137.8z"/>
				<path fill="#231F20" d="M203.1,138.6V136h-0.9v-0.5c0.5,0,0.9-0.3,1-0.7h0.6v3.7H203.1z"/>
				<path fill="#231F20" d="M205.2,137.4c0,0.4,0.3,0.7,0.7,0.7c0.4,0,0.7-0.3,0.7-0.7c0-0.5-0.3-0.7-0.7-0.7
					c-0.3,0-0.5,0.1-0.6,0.3l-0.6-0.2l0.5-1.9h2v0.6h-1.6l-0.2,0.9c0.2-0.2,0.4-0.3,0.7-0.3c0.7,0,1.3,0.5,1.3,1.2
					c0,0.7-0.5,1.3-1.4,1.3c-0.8,0-1.4-0.5-1.4-1.1L205.2,137.4z"/>
			</g>
		</g>
		<g>
			<g>
				<path fill="#231F20" d="M216.4,136.2c0-0.1,0-0.1,0-0.2c0-0.6,0.5-1.2,1.3-1.2c0.8,0,1.3,0.5,1.3,1.2c0,0.5-0.3,0.9-0.7,1.1
					l-0.7,0.4c-0.2,0.1-0.3,0.2-0.4,0.4h1.8v0.6h-2.7c0-0.6,0.2-1.1,0.9-1.5l0.6-0.4c0.3-0.2,0.5-0.4,0.5-0.7c0-0.3-0.2-0.6-0.6-0.6
					c-0.4,0-0.6,0.3-0.6,0.7c0,0.1,0,0.1,0,0.2L216.4,136.2z"/>
				<path fill="#231F20" d="M220,135.4c0.2-0.4,0.6-0.6,1.2-0.6c0.6,0,0.9,0.2,1.2,0.6c0.3,0.4,0.3,0.8,0.3,1.3c0,0.5-0.1,1-0.3,1.3
					c-0.2,0.4-0.6,0.6-1.2,0.6c-0.6,0-0.9-0.2-1.2-0.6c-0.3-0.4-0.3-0.8-0.3-1.3C219.7,136.2,219.7,135.8,220,135.4z M220.6,137.8
					c0.1,0.2,0.3,0.3,0.6,0.3c0.3,0,0.4-0.1,0.6-0.3c0.2-0.2,0.3-0.6,0.3-1.1c0-0.5-0.1-0.8-0.3-1.1c-0.1-0.2-0.3-0.3-0.6-0.3
					c-0.3,0-0.4,0.1-0.6,0.3c-0.2,0.2-0.3,0.6-0.3,1.1C220.3,137.2,220.4,137.5,220.6,137.8z"/>
				<path fill="#231F20" d="M224.1,138.6V136h-0.9v-0.5c0.5,0,0.9-0.3,1-0.7h0.6v3.7H224.1z"/>
				<path fill="#231F20" d="M228.2,135.5c-0.1-0.1-0.3-0.1-0.6-0.1c-0.7,0-1.2,0.5-1.3,1.2c0.2-0.3,0.5-0.4,0.9-0.4
					c0.7,0,1.3,0.5,1.3,1.3c0,0.8-0.6,1.3-1.4,1.3c-0.9,0-1.5-0.8-1.5-1.7c0-1.3,0.8-2.2,2-2.2c0.3,0,0.6,0.1,0.8,0.2L228.2,135.5z
					 M227.1,138.1c0.4,0,0.7-0.3,0.7-0.7c0-0.4-0.3-0.7-0.7-0.7c-0.4,0-0.7,0.3-0.7,0.7C226.4,137.8,226.7,138.1,227.1,138.1z"/>
			</g>
		</g>
		<g>
			<g>
				<path fill="#231F20" d="M237.6,136.2c0-0.1,0-0.1,0-0.2c0-0.6,0.5-1.2,1.3-1.2c0.8,0,1.3,0.5,1.3,1.2c0,0.5-0.3,0.9-0.7,1.1
					l-0.7,0.4c-0.2,0.1-0.3,0.2-0.4,0.4h1.8v0.6h-2.7c0-0.6,0.2-1.1,0.9-1.5l0.6-0.4c0.3-0.2,0.5-0.4,0.5-0.7c0-0.3-0.2-0.6-0.6-0.6
					c-0.4,0-0.6,0.3-0.6,0.7c0,0.1,0,0.1,0,0.2L237.6,136.2z"/>
				<path fill="#231F20" d="M241.1,135.4c0.2-0.4,0.6-0.6,1.2-0.6c0.6,0,0.9,0.2,1.2,0.6c0.3,0.4,0.3,0.8,0.3,1.3
					c0,0.5-0.1,1-0.3,1.3c-0.2,0.4-0.6,0.6-1.2,0.6c-0.6,0-0.9-0.2-1.2-0.6c-0.3-0.4-0.3-0.8-0.3-1.3
					C240.8,136.2,240.9,135.8,241.1,135.4z M241.7,137.8c0.1,0.2,0.3,0.3,0.6,0.3c0.3,0,0.4-0.1,0.6-0.3c0.2-0.2,0.3-0.6,0.3-1.1
					c0-0.5-0.1-0.8-0.3-1.1c-0.1-0.2-0.3-0.3-0.6-0.3c-0.3,0-0.4,0.1-0.6,0.3c-0.2,0.2-0.3,0.6-0.3,1.1
					C241.5,137.2,241.6,137.5,241.7,137.8z"/>
				<path fill="#231F20" d="M245.2,138.6V136h-0.9v-0.5c0.5,0,0.9-0.3,1-0.7h0.6v3.7H245.2z"/>
				<path fill="#231F20" d="M249.4,135.5c-0.1-0.1-0.3-0.1-0.6-0.1c-0.7,0-1.2,0.5-1.3,1.2c0.2-0.3,0.5-0.4,0.9-0.4
					c0.7,0,1.3,0.5,1.3,1.3c0,0.8-0.6,1.3-1.4,1.3c-0.9,0-1.5-0.8-1.5-1.7c0-1.3,0.8-2.2,2-2.2c0.3,0,0.6,0.1,0.8,0.2L249.4,135.5z
					 M248.3,138.1c0.4,0,0.7-0.3,0.7-0.7c0-0.4-0.3-0.7-0.7-0.7c-0.4,0-0.7,0.3-0.7,0.7C247.5,137.8,247.9,138.1,248.3,138.1z"/>
			</g>
		</g>
		<g>
			<g>
				<path fill="#231F20" d="M258.7,136.2c0-0.1,0-0.1,0-0.2c0-0.6,0.5-1.2,1.3-1.2c0.8,0,1.3,0.5,1.3,1.2c0,0.5-0.3,0.9-0.7,1.1
					l-0.7,0.4c-0.2,0.1-0.3,0.2-0.4,0.4h1.8v0.6h-2.7c0-0.6,0.2-1.1,0.9-1.5l0.6-0.4c0.3-0.2,0.5-0.4,0.5-0.7c0-0.3-0.2-0.6-0.6-0.6
					c-0.4,0-0.6,0.3-0.6,0.7c0,0.1,0,0.1,0,0.2L258.7,136.2z"/>
				<path fill="#231F20" d="M262.3,135.4c0.2-0.4,0.6-0.6,1.2-0.6c0.6,0,0.9,0.2,1.2,0.6c0.3,0.4,0.3,0.8,0.3,1.3
					c0,0.5-0.1,1-0.3,1.3c-0.2,0.4-0.6,0.6-1.2,0.6c-0.6,0-0.9-0.2-1.2-0.6c-0.3-0.4-0.3-0.8-0.3-1.3
					C261.9,136.2,262,135.8,262.3,135.4z M262.9,137.8c0.1,0.2,0.3,0.3,0.6,0.3c0.3,0,0.4-0.1,0.6-0.3c0.2-0.2,0.3-0.6,0.3-1.1
					c0-0.5-0.1-0.8-0.3-1.1c-0.1-0.2-0.3-0.3-0.6-0.3c-0.3,0-0.4,0.1-0.6,0.3c-0.2,0.2-0.3,0.6-0.3,1.1
					C262.6,137.2,262.7,137.5,262.9,137.8z"/>
				<path fill="#231F20" d="M266.4,138.6V136h-0.9v-0.5c0.5,0,0.9-0.3,1-0.7h0.6v3.7H266.4z"/>
				<path fill="#231F20" d="M270.5,135.5c-0.3,0.3-1.4,1.2-1.5,3.1h-0.7c0.2-2.1,1.5-3.1,1.5-3.1h-2v-0.6h2.8V135.5z"/>
			</g>
		</g>
		<g>
			<g>
				<path fill="#231F20" d="M279.4,136.2c0-0.1,0-0.1,0-0.2c0-0.6,0.5-1.2,1.3-1.2c0.8,0,1.3,0.5,1.3,1.2c0,0.5-0.3,0.9-0.7,1.1
					l-0.7,0.4c-0.2,0.1-0.3,0.2-0.4,0.4h1.8v0.6h-2.7c0-0.6,0.2-1.1,0.9-1.5l0.6-0.4c0.3-0.2,0.5-0.4,0.5-0.7c0-0.3-0.2-0.6-0.6-0.6
					c-0.4,0-0.6,0.3-0.6,0.7c0,0.1,0,0.1,0,0.2L279.4,136.2z"/>
				<path fill="#231F20" d="M282.9,135.4c0.2-0.4,0.6-0.6,1.2-0.6c0.6,0,0.9,0.2,1.2,0.6c0.3,0.4,0.3,0.8,0.3,1.3
					c0,0.5-0.1,1-0.3,1.3c-0.2,0.4-0.6,0.6-1.2,0.6c-0.6,0-0.9-0.2-1.2-0.6c-0.3-0.4-0.3-0.8-0.3-1.3
					C282.6,136.2,282.7,135.8,282.9,135.4z M283.5,137.8c0.1,0.2,0.3,0.3,0.6,0.3c0.3,0,0.4-0.1,0.6-0.3c0.2-0.2,0.3-0.6,0.3-1.1
					c0-0.5-0.1-0.8-0.3-1.1c-0.1-0.2-0.3-0.3-0.6-0.3c-0.3,0-0.4,0.1-0.6,0.3c-0.2,0.2-0.3,0.6-0.3,1.1
					C283.3,137.2,283.4,137.5,283.5,137.8z"/>
				<path fill="#231F20" d="M287,138.6V136h-0.9v-0.5c0.5,0,0.9-0.3,1-0.7h0.6v3.7H287z"/>
				<path fill="#231F20" d="M291.1,135.5c-0.3,0.3-1.4,1.2-1.5,3.1h-0.7c0.2-2.1,1.5-3.1,1.5-3.1h-2v-0.6h2.8V135.5z"/>
			</g>
		</g>
		<g>
			<g>
				<path fill="#231F20" d="M27.3,157.1c0,0.1,0,0.3,0,0.4c0.2,1,0.4,1.7,1,2.2c-0.1,0.1-0.2,0.2-0.2,0.3c-0.5-0.5-0.7-0.9-0.9-1.6
					c-0.1,0.5-0.4,1.1-0.9,1.6c-0.1-0.1-0.2-0.2-0.3-0.3l0,0c-0.1,0-0.3,0-0.4,0h-1.1c-0.6,0-0.8-0.2-0.8-0.8v-3.2h-0.2v-0.3h2.6
					v0.3h-2v3.2c0,0.3,0.1,0.4,0.4,0.4h1.2c0.1,0,0.4,0,0.5,0c0,0.1,0,0.2,0,0.3c0.7-0.8,0.8-1.8,0.8-2.6v-0.4h0.4V157.1z
					 M24.3,157.8h0.8v1.3h-0.8V157.8z M25.8,157.4h-1.4v-1.2h1.4V157.4z M24.5,158.8h0.4V158h-0.4V158.8z M25.5,156.5h-0.7v0.7h0.7
					V156.5z M26.1,159.1h-0.8v-1.3h0.8V159.1z M25.9,158h-0.4v0.8h0.4V158z M26.8,156.5c-0.1,0.4-0.3,0.8-0.5,1.1
					c-0.1-0.1-0.2-0.2-0.3-0.2c0.3-0.5,0.6-1.3,0.7-2.1l0.4,0.1c0,0.3-0.1,0.5-0.2,0.8h1.2l0.1,0l0.2,0.1c-0.1,0.5-0.2,1-0.4,1.4
					l-0.3-0.1c0.1-0.2,0.2-0.6,0.3-1H26.8z"/>
				<path fill="#231F20" d="M29.9,157.6c-0.2-0.2-0.6-0.4-0.9-0.5l0.2-0.3c0.3,0.1,0.7,0.4,0.9,0.5L29.9,157.6z M29.1,159.8
					c0.2-0.4,0.5-1.1,0.7-1.7l0.3,0.2c-0.2,0.6-0.5,1.2-0.7,1.7L29.1,159.8z M30.1,156.2c-0.2-0.2-0.6-0.4-0.8-0.6l0.2-0.3
					c0.3,0.2,0.7,0.4,0.9,0.5L30.1,156.2z M30.9,155.4h0.4v1.8c0,1-0.1,2.1-0.8,2.9c-0.1-0.1-0.2-0.2-0.3-0.2
					c0.6-0.8,0.7-1.7,0.7-2.6V155.4z M30.6,158.2c0-0.3-0.2-0.9-0.4-1.3l0.3-0.1c0.2,0.4,0.3,0.9,0.4,1.2L30.6,158.2z M31.6,156.8
					c0.2,0.4,0.3,0.8,0.4,1.2l-0.3,0.1c0-0.3-0.2-0.8-0.3-1.2L31.6,156.8z M33.6,155.4v4.7h-0.4V158l-0.3,0.1
					c-0.1-0.3-0.3-0.8-0.5-1.2v3h-0.4v-4.5h0.4v1.4l0.2-0.1c0.2,0.4,0.4,0.8,0.5,1.2v-2.6H33.6z"/>
				<path fill="#231F20" d="M38.3,159.5c0.3,0,0.7,0,0.9-0.1c0,0.1,0,0.3,0.1,0.4c-0.1,0-0.5,0-0.9,0h-2.3c-0.8,0-1.2-0.3-1.2-1v-3
					h-0.2v-0.4H39v0.4h-3.8v3c0,0.5,0.2,0.6,0.8,0.6H38.3z M35.5,157.7h1.4v1.4h-1.4V157.7z M35.9,158.8h0.7V158h-0.7V158.8z
					 M38.1,157.4h-2v-1.2h2V157.4z M37.7,156.5h-1.2v0.6h1.2V156.5z M38.7,159.1h-1.4v-1.4h1.4V159.1z M38.3,158h-0.7v0.8h0.7V158z"
					/>
			</g>
			<circle fill="#002A5E" cx="15.3" cy="157.9" r="3.9"/>
		</g>
		<g>
			<g>
				<path fill="#231F20" d="M76,156.5c-0.1,0.2-0.3,0.5-0.4,0.7v2.8h-0.4v-2.3c-0.2,0.2-0.4,0.4-0.5,0.6c0-0.1-0.2-0.3-0.2-0.3
					c0.4-0.4,0.9-1,1.2-1.6L76,156.5z M75.9,155.4c-0.3,0.5-0.8,1-1.3,1.3c0-0.1-0.1-0.2-0.2-0.3c0.4-0.3,0.9-0.8,1.1-1.2
					L75.9,155.4z M75.7,159.7c0.2-0.2,0.4-0.7,0.5-1l0.3,0.1c-0.1,0.3-0.3,0.8-0.5,1L75.7,159.7z M79.3,158.4h-3.4V158h3.4V158.4z
					 M77.3,156.4c0-0.1,0-0.2,0.1-0.4H76v-0.3h1.4c0-0.2,0-0.3,0-0.5l0.4,0c0,0.1,0,0.3-0.1,0.4h1.5v0.3h-1.5c0,0.1-0.1,0.3-0.1,0.4
					h1.4v1.3h-2.9v-1.3H77.3z M77.1,156.7h-0.5v0.7h0.5V156.7z M78,159.7c0.2,0,0.2-0.1,0.2-0.5c0.1,0.1,0.2,0.1,0.3,0.1
					c0,0.6-0.1,0.7-0.5,0.7h-0.8c-0.4,0-0.6-0.1-0.6-0.4v-0.8h0.4v0.8c0,0.1,0,0.1,0.2,0.1H78z M77.6,159.2
					c-0.1-0.2-0.2-0.5-0.4-0.7l0.3-0.1c0.1,0.2,0.3,0.5,0.4,0.7L77.6,159.2z M77.9,156.7h-0.6v0.7h0.6V156.7z M78.2,157.4h0.6v-0.7
					h-0.6V157.4z M78.8,158.7c0.2,0.3,0.4,0.7,0.5,1l-0.3,0.1c-0.1-0.3-0.3-0.7-0.5-1L78.8,158.7z"/>
				<path fill="#231F20" d="M84.5,155.5v4.6h-0.4v-0.2h-3.6v0.2h-0.4v-4.6H84.5z M84.1,159.5v-3.6h-3.6v3.6H84.1z M82.3,158.7
					c-0.6,0.1-1.1,0.2-1.5,0.3l-0.1-0.3c0.4-0.1,1-0.2,1.6-0.3L82.3,158.7z M83.7,157.2c-0.1,0.5-0.3,0.9-0.6,1.3
					c0.1,0.3,0.3,0.5,0.4,0.5c0.1,0,0.1-0.2,0.2-0.5c0.1,0.1,0.2,0.1,0.3,0.2c-0.1,0.6-0.2,0.8-0.5,0.7c-0.2,0-0.4-0.2-0.6-0.5
					c-0.2,0.2-0.4,0.4-0.7,0.6c0-0.1-0.2-0.2-0.2-0.2c0.3-0.2,0.6-0.4,0.8-0.7c-0.1-0.4-0.2-1-0.3-1.6h-1.6v-0.3h1.6
					c0-0.2,0-0.4,0-0.6h0.3c0,0.2,0,0.4,0,0.6h1.2v0.3h-1.1c0,0.5,0.1,0.9,0.2,1.2c0.2-0.3,0.3-0.6,0.4-1L83.7,157.2z M82.1,157.2v1
					H81v-1H82.1z M81.9,157.4h-0.6v0.5h0.6V157.4z M83.5,156.5c-0.1-0.1-0.4-0.3-0.6-0.4l0.2-0.2c0.2,0.1,0.5,0.2,0.6,0.4
					L83.5,156.5z"/>
			</g>
			<circle fill="#0C56AB" cx="66.2" cy="157.9" r="3.9"/>
		</g>
		<g>
			<g>
				<path fill="#231F20" d="M120.9,157.6c-0.2-0.2-0.6-0.4-1-0.6l0.2-0.3c0.3,0.1,0.8,0.4,1,0.5L120.9,157.6z M120.1,159.8
					c0.3-0.4,0.7-1.1,1-1.7l0.3,0.3c-0.3,0.6-0.6,1.2-1,1.7L120.1,159.8z M120.5,155.3c0.3,0.1,0.8,0.4,1,0.5l-0.2,0.3
					c-0.2-0.2-0.6-0.4-1-0.6L120.5,155.3z M124.3,160.1c-0.1-0.1-0.1-0.3-0.2-0.5c-2,0.2-2.2,0.3-2.3,0.3c0-0.1-0.1-0.3-0.1-0.4
					c0.1,0,0.2-0.2,0.3-0.3c0.1-0.2,0.5-0.7,0.7-1.3h-1.2v-0.4h1.4v-0.9h-1.1v-0.4h1.1v-0.9h0.4v0.9h1.2v0.4h-1.2v0.9h1.4v0.4h-1.5
					c-0.3,0.6-0.6,1.1-0.9,1.6l1.7-0.2c-0.1-0.2-0.3-0.5-0.5-0.7l0.3-0.1c0.4,0.5,0.8,1.1,0.9,1.5L124.3,160.1z"/>
				<path fill="#231F20" d="M130,155.5v4.6h-0.4v-0.2H126v0.2h-0.4v-4.6H130z M129.6,159.5v-3.6H126v3.6H129.6z M127.8,158.7
					c-0.5,0.1-1.1,0.2-1.5,0.3l-0.1-0.3c0.4-0.1,1-0.2,1.6-0.3L127.8,158.7z M129.1,157.2c-0.1,0.5-0.3,0.9-0.6,1.3
					c0.1,0.3,0.3,0.5,0.4,0.5c0.1,0,0.1-0.2,0.2-0.5c0.1,0.1,0.2,0.1,0.3,0.2c-0.1,0.6-0.2,0.8-0.5,0.7c-0.2,0-0.4-0.2-0.6-0.5
					c-0.2,0.2-0.4,0.4-0.7,0.6c0-0.1-0.2-0.2-0.2-0.2c0.3-0.2,0.6-0.4,0.8-0.7c-0.1-0.4-0.2-1-0.3-1.6h-1.6v-0.3h1.6
					c0-0.2,0-0.4,0-0.6h0.3c0,0.2,0,0.4,0,0.6h1.2v0.3h-1.1c0,0.5,0.1,0.9,0.2,1.2c0.2-0.3,0.3-0.6,0.4-1L129.1,157.2z M127.6,157.2
					v1h-1.2v-1H127.6z M127.3,157.4h-0.6v0.5h0.6V157.4z M129,156.5c-0.1-0.1-0.4-0.3-0.6-0.4l0.2-0.2c0.2,0.1,0.5,0.2,0.6,0.4
					L129,156.5z"/>
			</g>
			<circle fill="#73B564" cx="111.7" cy="157.9" r="3.9"/>
		</g>
		<g>
			<g>
				<path fill="#231F20" d="M168.6,156v0.8h1.3v3.3h-0.4v-0.3h-3.3v0.3h-0.4v-3.3h1.3V156h-1.6v-0.4h4.6v0.4H168.6z M169.5,159.4
					v-0.9h-0.1h-0.7c-0.4,0-0.5-0.1-0.5-0.5v-0.8h-0.8c0,0.6-0.2,1.2-1,1.6c0-0.1-0.2-0.2-0.2-0.3v1H169.5z M166.2,157.1v1.3
					c0.7-0.3,0.9-0.8,0.9-1.3H166.2z M168.2,156h-0.8v0.8h0.8V156z M168.6,157.1v0.8c0,0.1,0,0.2,0.2,0.2h0.6c0.1,0,0.1,0,0.1,0v-1
					H168.6z"/>
				<path fill="#231F20" d="M172.5,159.2c-0.6,0.2-1.1,0.3-1.6,0.4l-0.1-0.4c0.2,0,0.4-0.1,0.7-0.1v-1.4H171v-0.4h0.5V156h-0.6v-0.4
					h1.6v0.4h-0.7v1.3h0.5v0.4h-0.5v1.3l0.6-0.1L172.5,159.2z M173.6,157.5c0,1.1-0.1,2-1.1,2.6c0-0.1-0.2-0.2-0.2-0.3
					c0.9-0.5,1-1.3,1-2.2l-0.2,0.1c-0.1-0.3-0.3-0.8-0.5-1.1l0.3-0.1c0.2,0.3,0.3,0.6,0.5,0.8v-2.1h0.4V157.5z M175.7,159.5v0.4
					h-2.2v-0.4h1v-1.6h-0.6v-0.4h0.6V156h-0.7v-0.4h1.8v0.4h-0.8v1.6h0.7v0.4h-0.7v1.6H175.7z"/>
				<path fill="#231F20" d="M181,157.7h-1.2v1.8c0,0.3-0.1,0.4-0.2,0.4c-0.2,0.1-0.4,0.1-0.9,0.1c0-0.1-0.1-0.3-0.2-0.4
					c0.3,0,0.7,0,0.8,0c0.1,0,0.1,0,0.1-0.1v-1.8c-0.7,0.9-1.8,1.7-2.8,2.1c-0.1-0.1-0.2-0.3-0.3-0.3c0.9-0.3,2-1,2.6-1.8h-2.2
					c0.1-0.5,0.3-1.2,0.4-1.8h-0.5v-0.4h4.1v0.4h-0.9v1.4h1.2V157.7z M177.7,155.9c-0.1,0.5-0.2,1-0.3,1.4h2.1v-1.4H177.7z"/>
			</g>
			<circle fill="#7F58A5" cx="157.2" cy="157.9" r="3.9"/>
		</g>
		<g>
			<g>
				<path fill="#231F20" d="M220.7,158.7c-0.2,0.2-0.4,0.5-0.7,0.6c0.2,0.2,0.4,0.3,0.7,0.3c0.1,0,0.2-0.1,0.2-0.5
					c0.1,0.1,0.2,0.1,0.3,0.2c-0.1,0.6-0.2,0.7-0.5,0.7c-0.4,0-0.7-0.2-1-0.5c-0.4,0.2-0.8,0.4-1.2,0.5c0-0.1-0.1-0.2-0.2-0.3
					c0.4-0.1,0.8-0.3,1.2-0.5c-0.1-0.2-0.2-0.5-0.3-0.8h-1.2v0.4l0.9-0.1v0.3c-0.3,0-0.6,0.1-0.9,0.1v0.5c0,0.2-0.1,0.3-0.2,0.3
					c-0.2,0.1-0.4,0.1-0.8,0.1c0-0.1-0.1-0.2-0.1-0.3c0.3,0,0.6,0,0.6,0c0.1,0,0.1,0,0.1-0.1v-0.5l-1.1,0.1l0-0.3
					c0.3,0,0.7,0,1.1-0.1v-0.4h-1.1v-0.3h1.1v-0.4c-0.3,0-0.7,0.1-1,0.1c0-0.1-0.1-0.2-0.1-0.3c0.7,0,1.6-0.1,2.1-0.3l0.2,0.2
					c-0.2,0.1-0.5,0.1-0.9,0.1v0.4h1.2c-0.1-0.2-0.1-0.5-0.1-0.8h0.4c0,0.3,0,0.5,0.1,0.8h1.7v0.3h-1.6c0.1,0.2,0.2,0.4,0.3,0.6
					c0.2-0.1,0.4-0.3,0.6-0.5L220.7,158.7z M221.1,157.4h-4.7v-0.3h2.1v-0.3h-1.6v-0.3h1.6v-0.3h-1.9v-0.3h1.1
					c-0.1-0.1-0.2-0.3-0.3-0.4l0.3-0.1c0.2,0.2,0.3,0.4,0.4,0.5l0,0h1.3c0.1-0.2,0.2-0.4,0.3-0.6l0.4,0.1c-0.1,0.2-0.2,0.3-0.3,0.5
					h1.1v0.3H219v0.3h1.6v0.3H219v0.3h2.1V157.4z M220.6,158.2c-0.2-0.2-0.5-0.4-0.8-0.5l0.2-0.2c0.3,0.1,0.7,0.3,0.9,0.5
					L220.6,158.2z"/>
				<path fill="#231F20" d="M224.5,157.2c0.4,1.2,1.1,2.1,2.1,2.5c-0.1,0.1-0.2,0.3-0.3,0.4c-1-0.5-1.7-1.4-2.1-2.6
					c-0.3,1-0.8,2-2.1,2.6c-0.1-0.1-0.2-0.2-0.3-0.3c1.3-0.6,1.8-1.6,2.1-2.6h-2v-0.4h2c0.1-0.6,0.1-1.1,0.1-1.5h0.4
					c0,0.4,0,0.9-0.1,1.5h2.2v0.4H224.5z"/>
				<path fill="#231F20" d="M228.8,156.8h1.1v0.4h-1.1v0.1c0.3,0.2,0.9,0.8,1,1l-0.2,0.3c-0.2-0.2-0.5-0.6-0.8-0.9v2.3h-0.4v-2.3
					c-0.3,0.6-0.6,1.2-1,1.6c0-0.1-0.1-0.3-0.2-0.4c0.4-0.4,0.9-1.1,1.1-1.8h-1v-0.4h1.1v-0.9c-0.3,0.1-0.7,0.1-1,0.2
					c0-0.1-0.1-0.2-0.1-0.3c0.8-0.1,1.7-0.3,2.2-0.5l0.3,0.3c-0.3,0.1-0.6,0.2-0.9,0.3V156.8z M230.7,158.8h-0.4v-2.9h0.4V158.8z
					 M231.8,155.3v4.2c0,0.3-0.1,0.4-0.2,0.4c-0.2,0.1-0.5,0.1-0.9,0.1c0-0.1-0.1-0.3-0.1-0.4c0.4,0,0.7,0,0.8,0
					c0.1,0,0.1,0,0.1-0.1v-4.2H231.8z"/>
			</g>
			<circle fill="#C12B5D" cx="208.1" cy="157.9" r="3.9"/>
		</g>
		
			<polyline fill="none" stroke="#C12B5D" stroke-width="0.564" stroke-linecap="round" stroke-linejoin="round" stroke-miterlimit="10" points="
			14.9,54.3 18.4,39.9 21.8,44.5 25.3,47.5 28.8,62.4 32.3,73.4 35.8,70.4 39.3,75.1 42.8,76.4 46.2,95.8 49.7,88.7 53.2,91.2 
			56.8,84.9 60.2,89 63.7,85.2 67.2,97.5 70.6,94.2 74.2,95 77.7,95.5 81.2,94.2 84.6,88.7 88.1,85.2 91.6,90.3 95.1,84.9 
			98.6,86.1 102.1,91.2 105.6,88.2 109,81 112.5,81 116.1,79.4 119.5,67.9 123,65.3 126.5,54.8 130,61.1 133.4,71.7 137,66.6 
			140.5,61.1 143.9,52.2 147.4,61.9 150.9,55.6 154.4,55.1 157.9,48.8 161.4,53.5 164.9,67.1 168.3,68.7 171.8,64.9 175.4,61.5 
			178.9,69.1 182.3,61.5 185.8,62.4 189.3,56.5 192.7,50.1 196.3,51 199.8,49.7 203.3,51.8 206.7,45.4 210.2,52.2 213.7,50.1 
			217.2,48.3 220.7,41.2 224.2,50.5 227.7,51 231.1,56.5 234.6,53.5 238.2,63.2 241.6,55.6 245.1,57.3 248.6,58.6 252.1,61.9 
			255.6,61.9 259.1,52.2 262.6,54.3 266,54.8 269.5,46.3 273,48.8 276.6,37.8 280,44.5 283.5,47.5 287,40.3 		"/>
	</g>
	<polygon fill="#F7A823" points="156.8,98.7 157.2,100.4 279.1,69.4 279,71.4 284.5,67 277.7,65.9 278.6,67.6 	"/>
</g>
<g>
	<g>
		<path fill="#0C56AB" d="M4.6,2.4c0,0.2,0,0.3,0,0.5C4.7,4.1,5,4.8,5.7,5.4C5.6,5.5,5.5,5.6,5.4,5.7c-0.5-0.5-0.8-1.1-1-1.8
			C4.2,4.5,4,5.2,3.4,5.7C3.3,5.6,3.2,5.5,3.1,5.4l0,0c-0.1,0-0.3,0-0.5,0H1.3c-0.6,0-0.9-0.2-0.9-0.9V1H0.3V0.6h2.9V1H0.9v3.6
			C0.9,4.9,1,5,1.3,5h1.3c0.2,0,0.4,0,0.5,0c0,0.1,0,0.2,0,0.3c0.8-0.9,0.9-2.1,0.9-2.9V2h0.4V2.4z M1.1,3.1H2v1.5H1.1V3.1z
			 M2.8,2.7H1.3V1.4h1.5V2.7z M1.3,4.3h0.4V3.4H1.3V4.3z M2.5,1.7H1.6v0.8h0.8V1.7z M3.1,4.6H2.2V3.1h0.9V4.6z M2.9,3.4H2.4v0.9h0.4
			V3.4z M3.9,1.6C3.8,2.1,3.6,2.5,3.4,2.8C3.3,2.8,3.1,2.6,3,2.6C3.4,2,3.7,1.2,3.8,0.3l0.4,0.1c0,0.3-0.1,0.6-0.2,0.9h1.4l0.1,0
			l0.3,0.1C5.7,1.8,5.5,2.5,5.4,2.8L5,2.7C5.1,2.4,5.2,2,5.3,1.6H3.9z"/>
		<path fill="#0C56AB" d="M7.4,2.9c-0.2-0.2-0.7-0.4-1-0.6l0.3-0.3c0.3,0.2,0.8,0.4,1,0.6L7.4,2.9z M6.5,5.4C6.8,5,7.1,4.2,7.3,3.5
			l0.4,0.2C7.5,4.4,7.2,5.1,6.9,5.7L6.5,5.4z M7.6,1.3C7.4,1.1,7,0.8,6.7,0.6l0.3-0.3c0.3,0.2,0.8,0.4,1,0.6L7.6,1.3z M8.6,0.4H9
			v2.1c0,1.2-0.1,2.3-0.9,3.3C8.1,5.7,7.9,5.5,7.8,5.5c0.7-0.9,0.8-1.9,0.8-3V0.4z M8.2,3.6c0-0.4-0.2-1-0.4-1.4L8.1,2
			c0.2,0.4,0.4,1,0.4,1.4L8.2,3.6z M9.4,2c0.2,0.4,0.4,1,0.4,1.3L9.5,3.5C9.4,3.1,9.2,2.6,9.1,2.1L9.4,2z M11.6,0.4v5.3h-0.4V3.3
			l-0.3,0.1c-0.1-0.4-0.3-0.9-0.6-1.3v3.4H9.9V0.5h0.4v1.6L10.6,2c0.2,0.4,0.5,0.9,0.6,1.3V0.4H11.6z"/>
		<path fill="#0C56AB" d="M13.7,3.4v1.8c0,0.2-0.1,0.4-0.2,0.4c-0.1,0.1-0.4,0.1-0.7,0.1c0-0.1-0.1-0.3-0.1-0.4c0.3,0,0.5,0,0.6,0
			c0.1,0,0.1,0,0.1-0.1V3.5l-0.7,0.2l-0.1-0.4c0.2-0.1,0.5-0.2,0.8-0.2V1.9h-0.7V1.5h0.7V0.3h0.4v1.2h0.6v0.4h-0.6V3
			c0.2-0.1,0.4-0.1,0.6-0.2l0.1,0.4L13.7,3.4z M16.7,3.6C17,4.2,17.6,4.7,18.1,5c-0.1,0.1-0.2,0.2-0.3,0.3c-0.5-0.3-1.1-0.9-1.4-1.5
			v1.9H16V3.9c-0.4,0.6-1,1.2-1.6,1.5c-0.1-0.1-0.2-0.3-0.3-0.3c0.6-0.3,1.2-0.8,1.6-1.4h-1.2V3.2H16V2.5h0.4v0.7H18v0.4H16.7z
			 M17.8,0.7c-0.8,0.2-2.1,0.4-3.2,0.4c0-0.1-0.1-0.3-0.1-0.4c1-0.1,2.3-0.2,3-0.4L17.8,0.7z M15,2.6c-0.1-0.3-0.2-0.8-0.4-1.1
			l0.4-0.1c0.2,0.3,0.4,0.8,0.5,1.1L15,2.6z M16,2.4c0-0.3-0.1-0.8-0.3-1.1l0.4-0.1c0.2,0.4,0.3,0.8,0.3,1.1L16,2.4z M16.8,2.6
			c0.3-0.4,0.6-1,0.8-1.5L18,1.3c-0.2,0.5-0.6,1.1-0.8,1.5L16.8,2.6z"/>
		<path fill="#0C56AB" d="M19.7,4.5c-0.1,0.5-0.4,1-0.7,1.3c-0.1-0.1-0.2-0.2-0.3-0.2c0.3-0.3,0.5-0.7,0.6-1.1L19.7,4.5z M20.7,4.2
			H19V0.5h1.7V4.2z M20.2,0.9h-0.9v0.8h0.9V0.9z M20.2,2h-0.9v0.8h0.9V2z M20.2,3.1h-0.9v0.8h0.9V3.1z M20.3,4.4
			c0.2,0.3,0.4,0.7,0.5,0.9l-0.4,0.2c-0.1-0.3-0.3-0.7-0.5-0.9L20.3,4.4z M24.2,4.8h-0.4v0.5c0,0.2,0,0.3-0.2,0.4
			c-0.2,0.1-0.4,0.1-0.9,0.1c0-0.1-0.1-0.3-0.1-0.4c0.3,0,0.6,0,0.7,0c0.1,0,0.1,0,0.1-0.1V4.8h-1.9v1h-0.4v-1h-0.4V4.4h0.4V2.9h1.1
			V2.5h-1.5V2.2h0.9V1.8h-0.6V1.5h0.6V1.1h-0.7V0.8h0.7V0.3H22v0.5h0.9V0.3h0.4v0.5H24v0.3h-0.7v0.4h0.6v0.3h-0.6v0.4h0.9v0.3h-1.5
			v0.3h1.2v1.5h0.4V4.8z M21.5,3.2v0.4h0.7V3.2H21.5z M21.5,4.4h0.7V4h-0.7V4.4z M22,1.5h0.9V1.1H22V1.5z M22,2.2h0.9V1.8H22V2.2z
			 M22.7,3.2v0.4h0.8V3.2H22.7z M23.4,4.4V4h-0.8v0.5H23.4z"/>
		<path fill="#0C56AB" d="M26.7,3.9c0-0.1,0-0.2-0.1-0.3c-1.3,0.2-1.5,0.2-1.6,0.3c0-0.1-0.1-0.3-0.1-0.4c0.1,0,0.3-0.2,0.4-0.4
			c0.1-0.1,0.3-0.4,0.5-0.7c-0.6,0.1-0.7,0.1-0.8,0.1c0-0.1-0.1-0.3-0.1-0.4c0.1,0,0.2-0.1,0.3-0.3c0.1-0.2,0.5-0.9,0.8-1.5l0.4,0.2
			C26.1,1,25.8,1.6,25.4,2l0.6,0c0.1-0.3,0.3-0.5,0.4-0.8l0.4,0.2c-0.4,0.7-0.9,1.4-1.3,1.9l0.9-0.1c-0.1-0.2-0.1-0.4-0.2-0.6
			l0.3-0.1C26.8,2.9,27,3.4,27,3.8L26.7,3.9z M25.5,4.2c-0.1,0.5-0.2,1.1-0.3,1.5c-0.1,0-0.3-0.1-0.4-0.1c0.1-0.4,0.2-0.9,0.3-1.4
			L25.5,4.2z M26.1,4.1c0.1,0.4,0.1,0.9,0.2,1.3l-0.4,0.1c0-0.3-0.1-0.9-0.1-1.3L26.1,4.1z M26.6,3.9c0.1,0.3,0.3,0.7,0.3,1L26.6,5
			c-0.1-0.3-0.2-0.7-0.3-1L26.6,3.9z M30.3,5.2v0.4h-3.4V5.2h1.5V4.1h-1.2V3.6h2.8v0.4h-1.2v1.1H30.3z M27.7,3.4
			c-0.1-0.3-0.4-0.8-0.7-1.2c0.2-0.4,0.5-0.8,0.6-1.1L28,1.3c-0.2,0.3-0.4,0.7-0.6,1c0.3,0.3,0.5,0.8,0.7,1L27.7,3.4z M30.2,1h-3.2
			V0.6h3.2V1z M29.1,1.3c-0.2,0.3-0.4,0.7-0.6,1c0.3,0.3,0.5,0.8,0.7,1l-0.4,0.2c-0.1-0.3-0.4-0.8-0.7-1.2c0.2-0.4,0.5-0.8,0.6-1.1
			L29.1,1.3z M29.8,3.4c-0.1-0.3-0.5-0.8-0.8-1.2c0.3-0.4,0.5-0.8,0.7-1.1l0.4,0.1c-0.2,0.3-0.4,0.7-0.6,1c0.3,0.3,0.6,0.8,0.7,1
			L29.8,3.4z"/>
		<path fill="#0C56AB" d="M32.9,4.5c-0.6,0.2-1.3,0.4-1.9,0.6L31,4.7c0.2-0.1,0.5-0.2,0.8-0.3V2.8h-0.7V2.4h0.7V1.1H31V0.7h1.9v0.4
			h-0.7v1.3h0.6v0.4h-0.6v1.5l0.7-0.2L32.9,4.5z M36.5,5.1v0.4h-3.9V5.1h1.8V4.3h-1.4V3.9h1.4V3.2h-1.3V0.5h3v2.7h-1.3v0.7h1.4v0.4
			h-1.4v0.8H36.5z M33.6,1.7h0.9V0.9h-0.9V1.7z M33.6,2.8h0.9V2h-0.9V2.8z M35.8,0.9h-0.9v0.8h0.9V0.9z M35.8,2h-0.9v0.8h0.9V2z"/>
		<path fill="#0C56AB" d="M40.1,0.3c0,0.2,0,0.5,0,0.9c0.1,0.7,0.4,3.2,2.6,4.2c-0.1,0.1-0.3,0.3-0.3,0.4c-1.5-0.7-2.1-2.2-2.4-3.3
			c-0.3,1.2-0.9,2.5-2.4,3.3c-0.1-0.1-0.2-0.3-0.4-0.3c2.5-1.3,2.5-4.2,2.5-5.1H40.1z"/>
		<path fill="#0C56AB" d="M45.4,3.3l-0.7,0.2v1.7c0,0.3-0.1,0.4-0.2,0.5c-0.1,0.1-0.4,0.1-0.8,0.1c0-0.1-0.1-0.3-0.1-0.4
			c0.3,0,0.5,0,0.6,0c0.1,0,0.1,0,0.1-0.1V3.6c-0.3,0.1-0.6,0.2-0.8,0.2l-0.1-0.4c0.3-0.1,0.6-0.2,0.9-0.3V1.9h-0.9V1.5h0.9V0.3h0.4
			v1.2h0.7v0.4h-0.7V3c0.2-0.1,0.5-0.1,0.7-0.2L45.4,3.3z M46.5,2.6c-0.6,0-0.8-0.2-0.8-0.7V0.3h0.4V1h2.4v0.4h-2.4v0.5
			c0,0.2,0.1,0.3,0.3,0.3H48c0.2,0,0.5,0,0.7,0c0,0.1,0,0.3,0.1,0.4c-0.1,0-0.4,0-0.7,0H46.5z M45.7,3.1h2.8v2.6h-0.4V5.5h-1.9v0.3
			h-0.4V3.1z M46.1,3.5v0.6h1.9V3.5H46.1z M48.1,5.1V4.5h-1.9v0.6H48.1z"/>
		<path fill="#0C56AB" d="M52.1,4.2c-0.1,0.3-0.2,0.5-0.5,0.8c0.3,0.1,0.5,0.2,0.7,0.4L52,5.6c-0.2-0.1-0.4-0.3-0.7-0.4
			c-0.4,0.2-0.9,0.4-1.7,0.5c0-0.1-0.1-0.2-0.2-0.3C50,5.3,50.5,5.2,50.8,5c-0.3-0.1-0.6-0.2-0.9-0.3c0.1-0.1,0.2-0.3,0.3-0.4
			l-0.7,0l0-0.3c0.3,0,0.6,0,1,0c0.1-0.2,0.2-0.3,0.3-0.5h-1v-1h1.1V2.3h-1V1.6h-0.4V1.3h0.4V0.7h1V0.3h0.4v0.4h1v0.6h0.4v0.3h-0.4
			v0.6h-1v0.2h1.2v1h-1.3C51.1,3.7,51,3.8,50.9,4c0.3,0,0.6,0,0.9,0V3.8V3.6h0.4v0.2v0l0.3,0l0,0.3L52.1,4.2z M50.1,3.2h0.7V2.8
			h-0.7V3.2z M50.3,1v0.3h0.6V1H50.3z M50.9,2V1.6h-0.6V2H50.9z M50.7,4.3c-0.1,0.1-0.1,0.2-0.2,0.3c0.2,0.1,0.5,0.2,0.7,0.3
			c0.3-0.2,0.4-0.4,0.5-0.6L50.7,4.3z M51.2,1v0.3h0.6V1H51.2z M51.9,2V1.6h-0.6V2H51.9z M51.2,2.8v0.4H52V2.8H51.2z M54.5,1.8
			c-0.1,0.9-0.3,1.7-0.5,2.3c0.3,0.5,0.6,1,1,1.2c-0.1,0.1-0.2,0.2-0.3,0.3C54.3,5.4,54,5,53.8,4.5c-0.3,0.5-0.6,0.9-1.1,1.2
			c0-0.1-0.2-0.3-0.2-0.3c0.5-0.3,0.9-0.8,1.1-1.3c-0.2-0.5-0.3-1-0.4-1.6C53,2.8,52.9,3,52.8,3.2c-0.1-0.1-0.2-0.2-0.3-0.3
			c0.4-0.6,0.6-1.6,0.8-2.6l0.4,0.1c0,0.3-0.1,0.7-0.2,1h1.5v0.4H54.5z M53.3,1.8c0.1,0.6,0.2,1.2,0.4,1.8c0.2-0.5,0.3-1.1,0.3-1.8
			H53.3z"/>
	</g>
</g>
<g>
</g>
<g>
</g>
<g>
</g>
<g>
</g>
<g>
</g>
<g>
</g>
<g>
</g>
<g>
</g>
<g>
</g>
<g>
</g>
<g>
</g>
<g>
</g>
<g>
</g>
<g>
</g>
<g>
</g>
</svg>
