<?xml version="1.0" encoding="utf-8"?>
<!-- Generator: Adobe Illustrator 18.0.0, SVG Export Plug-In . SVG Version: 6.00 Build 0)  -->
<!DOCTYPE svg PUBLIC "-//W3C//DTD SVG 1.1//EN" "http://www.w3.org/Graphics/SVG/1.1/DTD/svg11.dtd">
<svg version="1.1" id="Layer_1" xmlns="http://www.w3.org/2000/svg" xmlns:xlink="http://www.w3.org/1999/xlink" x="0px" y="0px"
	 viewBox="0 0 75.5 66.5" enable-background="new 0 0 75.5 66.5" xml:space="preserve">
<g>
	<g>
		<path fill="#2368B5" d="M63.7,30.4c-0.6-1.1-1.8-1.8-3-1.8c-0.6,0-1.2,0.2-1.7,0.4l-10.1,5.7c-0.1,0.1-0.2,0.2-0.3,0.3
			c-0.2,0.7-0.6,1.7-1.6,2.4c-1.1,0.8-2.5,0.9-4.3,0.5c0,0,0,0,0,0l-5.8-1.8c-0.4-0.1-0.5-0.5-0.4-0.8c0.1-0.3,0.3-0.5,0.6-0.5
			c0.1,0,0.1,0,0.2,0l5.8,1.8c0,0,0,0,0,0c1.4,0.3,2.4,0.2,3.2-0.3c0.9-0.7,1.1-1.8,1.1-2c0,0,0,0,0,0l0,0l0,0l0,0
			c0.1-1.4-0.8-2.8-2.2-3.2l0,0c0,0-4.3-1.4-7.1-2.2c-0.3-0.1-1.1-0.3-2.3-0.3c-1.7,0-4.2,0.4-6.6,2.3l-10,8.1
			c-0.2,0.2-0.3,0.5-0.1,0.8l5.4,7.2c0.1,0.1,0.2,0.2,0.4,0.2c0,0,0,0,0.1,0c0.1,0,0.2,0,0.3-0.1l7-5.4c0.2-0.1,0.4-0.2,0.6-0.1
			L44,44.4c0.8,0.2,1.7,0.1,2.5-0.4l15.8-8.9C64,34.2,64.6,32.1,63.7,30.4z"/>
		<g>
			<g>
				<circle fill="#2368B5" cx="63.2" cy="12.3" r="12.3"/>
			</g>
			<path fill="#FFFFFF" d="M56.7,13.2c-0.6,0-1.3,0-1.9,0c-0.4,0-0.4-0.1-0.4-0.4c0-0.2,0-0.3,0-0.5c0-0.2,0.1-0.4,0.4-0.4
				c0.5,0,1.1,0,1.6,0c0,0,0.1,0,0.1,0c-0.1-0.4-0.2-0.8-0.3-1.3c-0.4,0-0.9,0-1.3,0c-0.4,0-0.5-0.1-0.5-0.5c0-0.1,0-0.3,0-0.4
				c0-0.3,0.1-0.4,0.4-0.4c0.3,0,0.7,0,1,0c-0.2-0.6-0.3-1.2-0.5-1.8c-0.1-0.5-0.3-1-0.4-1.6c-0.1-0.3,0-0.5,0.4-0.5
				c0.4,0,0.8,0,1.3,0c0.2,0,0.3,0.1,0.4,0.3c0.3,1.1,0.6,2.2,0.8,3.3c0,0.1,0,0.1,0.1,0.2c0.1,0,0.1,0,0.2,0c1.1,0,2.1,0,3.2,0
				c0.1,0,0.2,0,0.2-0.2c0.3-1.1,0.6-2.2,0.9-3.3c0.1-0.4,0.1-0.4,0.5-0.4c0.3,0,0.7,0,1,0c0.3,0,0.4,0.1,0.4,0.3
				c0.3,1.1,0.6,2.2,0.9,3.3c0,0.2,0.1,0.2,0.3,0.2c1.1,0,2.1,0,3.2,0c0.1,0,0.1,0,0.2,0c0.1-0.5,0.3-1,0.4-1.5
				c0.2-0.7,0.3-1.3,0.5-2c0.1-0.2,0.1-0.3,0.4-0.3c0.4,0,0.8,0,1.3,0c0.3,0,0.4,0.2,0.4,0.5c-0.3,1.1-0.6,2.1-0.8,3.1
				c0,0.1,0,0.1,0,0.2c0.3,0,0.6,0,0.9,0c0.4,0,0.5,0.1,0.5,0.5c0,0.1,0,0.3,0,0.4c0,0.3-0.1,0.4-0.4,0.4c-0.4,0-0.8,0-1.2,0
				c-0.1,0-0.2,0-0.2,0.2c-0.1,0.4-0.2,0.7-0.3,1.1c0.2,0,0.3,0,0.5,0c0.4,0,0.8,0,1.2,0c0.3,0,0.4,0.1,0.4,0.4c0,0.2,0,0.3,0,0.5
				c0,0.3-0.1,0.4-0.4,0.4c-0.6,0-1.2,0-1.9,0c-0.2,0-0.2,0-0.3,0.2c-0.5,1.9-1,3.8-1.5,5.7c-0.1,0.4-0.1,0.4-0.5,0.4
				c-0.4,0-0.9,0-1.3,0c-0.3,0-0.4-0.1-0.4-0.3c-0.5-2-1.1-3.9-1.6-5.9c0,0,0-0.1,0-0.2c-0.1,0-0.1,0-0.2,0c-0.6,0-1.1,0-1.7,0
				c-0.2,0-0.2,0-0.3,0.2c-0.4,1.5-0.8,3.1-1.2,4.6c-0.1,0.4-0.2,0.8-0.3,1.3c-0.1,0.2-0.1,0.3-0.4,0.3c-0.5,0-0.9,0-1.4,0
				c-0.4,0-0.4,0-0.5-0.4c-0.5-1.9-1-3.9-1.5-5.8C56.8,13.3,56.8,13.3,56.7,13.2z M65.8,11.9c0.8,0,1.5,0,2.3,0
				c0.1-0.4,0.2-0.8,0.3-1.3c-1,0-2,0-2.9,0C65.6,11.1,65.7,11.5,65.8,11.9z M60.6,11.9c0.1-0.4,0.2-0.8,0.3-1.3c-1,0-1.9,0-2.9,0
				c0.1,0.4,0.2,0.8,0.3,1.3C59.1,11.9,59.9,11.9,60.6,11.9z M67,16.3c0.3-1,0.5-2,0.8-3c-0.5,0-1.1,0-1.6,0
				C66.4,14.2,66.7,15.2,67,16.3z M60.3,13.2c-0.5,0-1.1,0-1.6,0c0.2,1,0.5,2,0.7,2.9c0,0,0,0,0,0C59.7,15.2,60,14.2,60.3,13.2z
				 M62.5,11.9c0.5,0,0.9,0,1.4,0c-0.1-0.4-0.2-0.8-0.3-1.3c-0.2,0-0.5,0-0.7,0C62.8,11.1,62.7,11.5,62.5,11.9z"/>
		</g>
		<g>
			<path fill="#2368B5" d="M23.7,26.8c0,0,1.8-8.5,15.8-8.5v-7.6C39.5,10.7,23.7,12.2,23.7,26.8z"/>
			<path fill="#2368B5" d="M47,13.9c-0.3-0.1-8.2,8.5-8.2,8.5V6.7L47,13.9z"/>
		</g>
	</g>
	<g>
		<g>
			<g>
				<path fill="#0C56AB" d="M2.6,63.1v-6.3H0.4v-1.2c1.3,0,2.2-0.8,2.4-1.7h1.5v9.1H2.6z"/>
				<path fill="#0C56AB" d="M6.9,55.3c0.6-0.9,1.5-1.5,2.9-1.5c1.4,0,2.3,0.6,2.9,1.5c0.6,0.9,0.8,2.1,0.8,3.3
					c0,1.2-0.2,2.4-0.8,3.3c-0.6,0.9-1.5,1.5-2.9,1.5c-1.4,0-2.3-0.6-2.9-1.5C6.2,60.9,6,59.8,6,58.6C6,57.4,6.2,56.2,6.9,55.3z
					 M8.4,61.2c0.3,0.4,0.7,0.7,1.4,0.7c0.7,0,1.1-0.3,1.4-0.7c0.4-0.6,0.6-1.5,0.6-2.6c0-1.2-0.2-2-0.6-2.6
					c-0.3-0.4-0.7-0.7-1.4-0.7c-0.7,0-1.1,0.3-1.4,0.7c-0.5,0.6-0.6,1.5-0.6,2.6C7.7,59.7,7.9,60.6,8.4,61.2z"/>
			</g>
		</g>
	</g>
</g>
<g>
</g>
<g>
</g>
<g>
</g>
<g>
</g>
<g>
</g>
<g>
</g>
<g>
</g>
<g>
</g>
<g>
</g>
<g>
</g>
<g>
</g>
<g>
</g>
<g>
</g>
<g>
</g>
<g>
</g>
</svg>
