<?xml version="1.0" encoding="utf-8"?>
<!-- Generator: Adobe Illustrator 18.0.0, SVG Export Plug-In . SVG Version: 6.00 Build 0)  -->
<!DOCTYPE svg PUBLIC "-//W3C//DTD SVG 1.1//EN" "http://www.w3.org/Graphics/SVG/1.1/DTD/svg11.dtd">
<svg version="1.1" id="Layer_1" xmlns="http://www.w3.org/2000/svg" xmlns:xlink="http://www.w3.org/1999/xlink" x="0px" y="0px"
	 viewBox="0 0 1322.4 651.7" enable-background="new 0 0 1322.4 651.7" xml:space="preserve">
<g>
	<path fill="#F1F2F2" d="M34.2,16.7h738.6V529H0c0,0,27.8-12.8,34.2-59.8S34.2,16.7,34.2,16.7z"/>
	<g>
		<g>
			<polygon fill="#E6E7E8" points="955.5,280.2 945,296.6 934.7,366.8 957.5,360.5 963,380 1028.9,373 1003.7,299.1 			"/>
			<path fill="#032360" d="M1014.1,326.3c3.7-9.1,4.9-31.2-16.6-41.8c-21.5-10.6-41.9-6.1-49.1-12.8c0,0,2.9,13.3,22.2,19.6
				c19.3,6.2,30.7,28.2,28.8,29.9L1014.1,326.3z"/>
			<polygon fill="#E6E7E8" points="943.2,313.4 932.7,332.3 943,334.8 			"/>
			<path fill="#E6E7E8" d="M998.3,322c2.9-3.5,8.6-2.6,9.8,1.5c1.2,4.1-1.1,12.3-4.6,11.4c-3.5-0.9-4.7-3.2-4.7-3.2"/>
		</g>
		<path fill="#032360" d="M1024.5,353.4c17.4,62.6,62.7,156.3,27.7,285.9l-161.8-3.1c37.5-75,57.8-154.6,53.7-252.3L1024.5,353.4z"
			/>
		<path fill="#032360" d="M1008.1,365.9c-69.2,32.4-172.9,25.4-227.4-42.8l-23,14.5c0,0,62,70.4,105.6,88.9
			c46.5,19.8,137.6,47.5,172.3,13.9L1008.1,365.9z"/>
		<g>
			<path fill="#E6E7E8" d="M730.2,306.8c6.3,6.6,27.5,30.8,27.5,30.8l2-33.2l-11.4-11.5l-24-24l-3,4.5l19.7,20.2
				c0,0-6.2-1.5-6.2-0.4s-0.7,4.7-0.7,4.7l-3.6,0.4l-1.5,4.4c0,0-1.5,2.2-0.4,2.6c1.1,0.4,29.2,32.4,29.2,32.4l2-33.2l-14-10.5"/>
			<polygon fill="#E6E7E8" points="780.7,323.1 759.7,304.4 737,308.1 757.7,337.6 			"/>
			<path fill="#E6E7E8" d="M775.8,318.5c-0.6-0.3-5.7-18.1-5.7-18.1l-6,0.1l-0.8,8.6L775.8,318.5z"/>
			<polygon fill="#E6E7E8" points="764.1,300.5 764.3,291.1 768.9,292 770.1,300.4 767.8,302.8 			"/>
		</g>
		<polygon fill="#A97C50" points="1184.7,570.4 979,570.4 803.2,631.4 1183.9,631.4 		"/>
		<polygon fill="#594A42" points="803.2,631.4 803.2,651.7 1184.7,651.7 1183.9,631.4 		"/>
		<defs>
			<filter id="Adobe_OpacityMaskFilter" filterUnits="userSpaceOnUse" x="6.7" y="77.1" width="952.6" height="503">
				<feColorMatrix  type="matrix" values="1 0 0 0 0  0 1 0 0 0  0 0 1 0 0  0 0 0 1 0"/>
			</filter>
		</defs>
		<mask maskUnits="userSpaceOnUse" x="6.7" y="77.1" width="952.6" height="503" id="SVGID_1_">
			<g filter="url(#Adobe_OpacityMaskFilter)">
				<linearGradient id="SVGID_2_" gradientUnits="userSpaceOnUse" x1="941.1703" y1="542.6733" x2="620.5205" y2="399.4496">
					<stop  offset="0" style="stop-color:#FFFFFF"/>
					<stop  offset="0.1124" style="stop-color:#FAFAFA"/>
					<stop  offset="0.2456" style="stop-color:#ECECEC"/>
					<stop  offset="0.3893" style="stop-color:#D5D4D4"/>
					<stop  offset="0.5405" style="stop-color:#B4B2B3"/>
					<stop  offset="0.6976" style="stop-color:#8A8788"/>
					<stop  offset="0.857" style="stop-color:#575455"/>
					<stop  offset="1" style="stop-color:#231F20"/>
				</linearGradient>
				<path fill="url(#SVGID_2_)" d="M1.5,513.6L947,580.2c0,0,15.1-12.8,11.8-12.8c-3.3,0-183.9-489.6-183.9-489.6L1.5,513.6z"/>
			</g>
		</mask>
		<linearGradient id="SVGID_3_" gradientUnits="userSpaceOnUse" x1="6.6501" y1="328.6568" x2="959.2676" y2="328.6568">
			<stop  offset="0" style="stop-color:#FFF33B;stop-opacity:0.1"/>
			<stop  offset="0.1556" style="stop-color:#FFF32D;stop-opacity:0.3001"/>
			<stop  offset="0.6107" style="stop-color:#FFF207;stop-opacity:0.8856"/>
			<stop  offset="1" style="stop-color:#FFF200"/>
		</linearGradient>
		<path opacity="0.5" mask="url(#SVGID_1_)" fill="url(#SVGID_3_)" d="M6.7,511.9L947,580.2c0,0,15.1-12.8,11.8-12.8
			c-3.3,0-183.9-490.3-183.9-490.3L6.7,511.9z"/>
		<g>
			<rect x="969.4" y="584.4" fill="#A7A9AC" width="2.5" height="14.3"/>
			<g>
				<path fill="#D1D3D4" d="M984.6,554.2l-35.2,11.4l-2.4,14.5c-0.7,4.3,2.2,8.5,6.5,9.2l87.6,14.8l35.2-11.4l3.8-22.4L984.6,554.2z
					"/>
				<polygon fill="#808285" points="1044.9,581.8 949.5,565.7 984.6,554.2 1080,570.3 				"/>
				
					<rect x="1002.9" y="583.8" transform="matrix(0.9861 0.1663 -0.1663 0.9861 111.5089 -161.3352)" fill="#808285" width="32.1" height="2.4"/>
				
					<rect x="1002.2" y="588" transform="matrix(0.9861 0.1663 -0.1663 0.9861 112.1944 -161.1597)" fill="#808285" width="32.1" height="2.4"/>
				
					<rect x="1001.5" y="592.2" transform="matrix(0.9861 0.1663 -0.1663 0.9861 112.8799 -160.9841)" fill="#808285" width="32.1" height="2.4"/>
				<polygon fill="#A7A9AC" points="1044.9,581.8 1041.1,604.1 1076.3,592.7 1080,570.3 				"/>
				<g>
					<polygon fill="#808285" points="1071.7,581 1070.2,589.9 1075.8,588.2 1077.4,578.6 					"/>
					<polygon fill="#808285" points="1075.8,588.2 1073.6,585.9 1074.6,579.8 1077.4,578.6 					"/>
					<polygon fill="#A7A9AC" points="1073.6,585.9 1070.7,586.9 1070.2,589.9 1075.8,588.2 					"/>
				</g>
			</g>
			<g>
				<polygon fill="#594A42" points="1056.1,591.6 1052.4,593.5 1052.4,596.1 1063.4,596.1 1067.1,594.1 1067.1,591.6 				"/>
				<polygon fill="#808285" points="1063.4,593.5 1052.4,593.5 1056.1,591.6 1067.1,591.6 				"/>
				<polygon fill="#A7A9AC" points="1063.4,593.5 1063.4,596.1 1067.1,594.1 1067.1,591.6 				"/>
			</g>
			<path fill="none" stroke="#594A42" stroke-linecap="round" stroke-miterlimit="10" d="M1065.2,593.8c0,0,6.4,0,22,0
				c15.6,0,8.9,4.3,5.2,6.3c-3.7,2-6.1,5.7,12.4,5.7s217,0,217,0"/>
		</g>
	</g>
	<rect x="6.7" y="28.7" fill="#A7A9AC" width="780.1" height="6.9"/>
	<rect x="6.7" y="0" fill="#E6E7E8" width="780.1" height="28.9"/>
</g>
<g>
</g>
<g>
</g>
<g>
</g>
<g>
</g>
<g>
</g>
<g>
</g>
<g>
</g>
<g>
</g>
<g>
</g>
<g>
</g>
<g>
</g>
<g>
</g>
<g>
</g>
<g>
</g>
<g>
</g>
</svg>
