<?xml version="1.0" encoding="utf-8"?>
<!-- Generator: Adobe Illustrator 18.0.0, SVG Export Plug-In . SVG Version: 6.00 Build 0)  -->
<!DOCTYPE svg PUBLIC "-//W3C//DTD SVG 1.1//EN" "http://www.w3.org/Graphics/SVG/1.1/DTD/svg11.dtd">
<svg version="1.1" id="Layer_1" xmlns="http://www.w3.org/2000/svg" xmlns:xlink="http://www.w3.org/1999/xlink" x="0px" y="0px"
	 viewBox="0 0 1131.1 695.9" enable-background="new 0 0 1131.1 695.9" xml:space="preserve">
<g>
	
		<line fill="none" stroke="#007A6D" stroke-width="6" stroke-linecap="round" stroke-linejoin="round" stroke-miterlimit="10" x1="686.7" y1="652.9" x2="686.7" y2="692.9"/>
	<g>
		<g>
			<path fill="#F1F2F2" d="M522.5,83.6c93.2,94.5,228.5,91.3,304.1,23.7c0,0,76.8,175.5,18.5,274.5
				c-124.3-35.6-226.8,14.5-263.7,77.8L393.8,50.6L522.5,83.6z"/>
			<path fill="#F1F2F2" d="M1015.8,392.2l-6,2.7c-86.9,38.8-188.8-0.2-227.6-87.1l0,0c-38.8-86.9,0.2-188.8,87.1-227.6l6-2.7
				c86.9-38.8,188.8,0.2,227.6,87.1l0,0C1141.6,251.4,1102.6,353.3,1015.8,392.2z"/>
			<path fill="#F1F2F2" d="M437.2,591.6l-1.8,0.8C279.4,662,96.6,592.1,27,436.2l0,0C-42.7,280.2,27.3,97.4,183.2,27.8L185,27
				c155.9-69.6,338.8,0.3,408.4,156.2l0,0C663,339.1,593.1,522,437.2,591.6z"/>
			<g>
				<path fill="#FFFFFF" d="M768.2,236.7c-20-0.9-102.4,6.6-132.7,17.6s-12.2,22.9,17.8,19.3C683.2,270.1,787.2,237.6,768.2,236.7z"
					/>
				
					<ellipse transform="matrix(0.9781 -0.2082 0.2082 0.9781 -29.5414 148.9395)" fill="#FFFFFF" cx="692.8" cy="214.8" rx="82.7" ry="4"/>
				
					<ellipse transform="matrix(0.9401 -0.341 0.341 0.9401 -66.2672 261.1493)" fill="#FFFFFF" cx="709.8" cy="319.1" rx="55.8" ry="2"/>
				
					<ellipse transform="matrix(0.9816 -0.1909 0.1909 0.9816 -43.2345 138.7599)" fill="#FFFFFF" cx="698.7" cy="293.8" rx="82.7" ry="9.8"/>
				<path fill="#FFFFFF" d="M733.3,171.1c-94.1-1.1-132.8,14.4-120.3,19.2c12.5,4.8,115.2,1.7,135.5-7.3
					C768.8,174.1,733.3,171.1,733.3,171.1z"/>
				<path fill="#FFFFFF" d="M750.7,322.8c-89.3,29.8-120.8,57.1-107.4,57.6c13.3,0.4,109.3-36.2,125.6-51.2
					C785.1,314.1,750.7,322.8,750.7,322.8z"/>
			</g>
		</g>
		<g>
			<g>
				<path fill="#939598" d="M333.2,481.6L333.2,481.6c-17,0-30.8-13.8-30.8-30.8v0c0-17,13.8-30.8,30.8-30.8h0
					c17,0,30.8,13.8,30.8,30.8v0C364,467.8,350.2,481.6,333.2,481.6z"/>
				<g>
					<g>
						<path fill="#FFFFFF" d="M328,441.4c0.7,2.1,1.9,3.5,3.1,3.5c0.4,0,0.5-0.5,0.6-1.9c0.2,0.2,0.6,0.4,0.9,0.5
							c-0.2,1.9-0.6,2.4-1.5,2.4c-1.8,0-3.3-1.8-4-4.5h-3.9v3.3l3.1-0.8c0,0.3,0.1,0.7,0.1,0.9c-3.6,1-4.1,1.1-4.4,1.3
							c-0.1-0.3-0.3-0.7-0.5-0.9c0.2-0.1,0.6-0.4,0.6-1v-9.5h9.3v3.8h-3.8c0,0.7,0.1,1.4,0.3,2h4.5v0.9H328z M323.1,435.6v2h7.3v-2
							H323.1z M326.8,440.5c-0.1-0.6-0.2-1.3-0.3-2h-3.5v2H326.8z"/>
						<path fill="#FFFFFF" d="M345.6,444.6v0.9h-11.6v-0.9h5.3v-3.3h-3.9v-0.9h3.9v-2.9h-3.1c-0.4,0.8-0.9,1.5-1.4,2.1
							c-0.2-0.2-0.6-0.4-0.9-0.6c1.1-1.2,1.9-3,2.4-4.8l1,0.2c-0.2,0.7-0.4,1.4-0.7,2.1h2.7V434h1v2.5h4.7v1h-4.7v2.9h4.2v0.9h-4.2
							v3.3H345.6z"/>
						<path fill="#FFFFFF" d="M316.4,457.9c-0.3,1.5-0.8,3.3-1.5,4.5l-0.9-0.4c0.7-1.1,1.2-2.9,1.5-4.3L316.4,457.9z M321.9,464.6
							c0.8,0,0.9-0.4,1-2.5c0.3,0.2,0.7,0.4,1,0.4c-0.1,2.3-0.5,3-1.9,3h-2.6c-1.4,0-1.8-0.4-1.8-1.7v-0.7c-0.9,0.6-1.9,1.2-2.9,1.7
							c-0.1-0.2-0.4-0.6-0.6-0.8c1.3-0.6,2.5-1.3,3.6-2.1v-5.1h1v4.3c2.3-1.9,4.1-4.3,5.3-6.7l1,0.4c-1.5,2.8-3.6,5.5-6.3,7.6v1.4
							c0,0.6,0.1,0.7,0.9,0.7H321.9z M320.8,456.9c-0.8-0.7-2.2-1.8-3.3-2.5l0.6-0.7c1.1,0.7,2.5,1.8,3.3,2.4L320.8,456.9z
							 M324,458.1c0.9,1.3,1.8,3,2.1,4.2l-0.9,0.4c-0.3-1.2-1.2-2.9-2.1-4.2L324,458.1z"/>
						<path fill="#FFFFFF" d="M333.5,460.8c-0.1,0.3-0.2,0.7-0.3,0.9h4.9v3c0,0.4-0.1,0.7-0.4,0.8c-0.3,0.2-0.8,0.2-1.5,0.2
							c-0.1-0.3-0.2-0.6-0.3-0.8c0.5,0,1,0,1.1,0c0.1,0,0.2-0.1,0.2-0.2v-2.2h-2v3h-0.9v-3h-2v3h-0.9v-3h-1.9v3.1h-0.9v-3.9h3.8
							c0.1-0.3,0.2-0.6,0.3-0.9h-5.1V460h11.4v0.8H333.5z M328.6,458.8h-0.9V456h5v-1h-4.4v-0.7h9.9v0.7h-4.5v1h5.1v2.8h-1v-2h-4.1
							v2.9h-0.9v-2.9h-4.1V458.8z M328.8,459c0.8-0.1,1.9-0.3,3.1-0.4l0,0.6c-1,0.2-2,0.4-2.9,0.6L328.8,459z M329.4,457
							c0.8,0.1,1.9,0.4,2.5,0.7l-0.3,0.6c-0.6-0.3-1.7-0.6-2.5-0.7L329.4,457z M337.2,459.8c-0.7-0.2-2-0.6-3.1-0.7l0.2-0.6
							c1,0.1,2.3,0.4,3,0.6L337.2,459.8z M337.2,457.5c-0.7,0.3-1.8,0.6-2.6,0.7l-0.3-0.5c0.7-0.2,1.8-0.6,2.5-0.8L337.2,457.5z"/>
						<path fill="#FFFFFF" d="M340.8,460h4.6v5.6h-1V465h-2.7v0.7h-0.9V460z M341.8,460.9v3.1h2.7v-3.1H341.8z M349.9,458.6h-7.1
							v-4.3h7.1V458.6z M348.9,455.2h-5.2v2.5h5.2V455.2z M351.8,460v5.6h-1V465h-3v0.7h-0.9V460H351.8z M350.8,464v-3.1h-3v3.1
							H350.8z"/>
					</g>
				</g>
			</g>
			<g>
				<path fill="#939598" d="M168.3,508L168.3,508c-13.4,0-24.2-10.8-24.2-24.2v0c0-13.4,10.8-24.2,24.2-24.2h0
					c13.4,0,24.2,10.8,24.2,24.2v0C192.5,497.2,181.6,508,168.3,508z"/>
				<g>
					<g>
						<path fill="#939598" d="M200.3,485.5c-0.2,1.1-0.6,2.4-1.1,3.3c0.3,0.1,0.6,0.4,1,0.7c0.9,0.6,2.1,0.6,3.6,0.6
							c1.7,0,3.7-0.1,5.2-0.3c-0.1,0.3-0.3,0.7-0.3,1c-1,0.1-3.4,0.1-4.9,0.1c-1.7,0-2.8-0.1-3.8-0.7c-0.5-0.3-1-0.8-1.3-0.8
							c-0.3,0-0.7,0.8-1.1,1.6l-0.7-0.9c0.5-0.6,0.9-1.2,1.3-1.4c0.4-0.7,0.7-1.8,0.9-2.7h-1.7c0.3-0.8,0.8-1.9,1.1-2.9h-1.4v-0.9
							h2.6c-0.3,0.9-0.7,2-1.1,2.9h0.9l0.2,0L200.3,485.5z M198.5,481.7c-0.1-0.6-0.4-1.4-0.7-2.1l0.9-0.2c0.2,0.7,0.5,1.5,0.7,2.1
							L198.5,481.7z M202.1,489.2h-0.9v-6.7h3.7c-0.8-0.4-1.7-0.8-2.5-1.1l0.6-0.5c0.6,0.2,1.2,0.4,1.8,0.7c0.6-0.3,1.3-0.7,1.8-1
							h-5.4v-0.8h6.3l0.2-0.1l0.6,0.5c-0.7,0.7-1.7,1.3-2.6,1.8c0.4,0.2,0.7,0.4,1,0.5h1.6v5.7c0,0.5-0.1,0.7-0.4,0.8
							c-0.3,0.1-0.9,0.2-1.7,0.2c0-0.2-0.1-0.6-0.3-0.8c0.6,0,1.2,0,1.3,0c0.2,0,0.2-0.1,0.2-0.2V487h-2.2v2.1h-0.9V487h-2.2V489.2z
							 M202.1,483.2v1.1h2.2v-1.1H202.1z M204.3,486.3v-1.2h-2.2v1.2H204.3z M207.4,483.2h-2.2v1.1h2.2V483.2z M207.4,486.3v-1.2
							h-2.2v1.2H207.4z"/>
						<path fill="#939598" d="M214.7,482.3h-4.6v-0.8h4.6V482.3z M214.3,490.3h-2.9v0.6h-0.8v-4.3h3.7V490.3z M210.6,483.9v-0.8h3.6
							v0.8H210.6z M210.6,484.8h3.7v0.8h-3.7V484.8z M211.4,487.4v2.1h2.1v-2.1H211.4z M212.4,481.3c-0.2-0.5-0.6-1.2-0.9-1.7
							l0.7-0.4c0.3,0.5,0.8,1.2,0.9,1.7L212.4,481.3z M220.5,480c-0.1,5.2-0.1,9.7,0.6,9.9c0.1,0,0.2-0.8,0.2-1.7
							c0.2,0.2,0.4,0.6,0.6,0.7c-0.1,1.8-0.6,2.2-1.1,2c-1.3-0.4-1.2-4.6-1.2-9.9h-2.1v3.8h1.7v0.9h-1.7v5.4h-0.9v-5.4h-1.7v-0.9
							h1.7v-3.8h-1.6V480H220.5z"/>
						<path fill="#939598" d="M227.5,489.9c0,0.5-0.1,0.8-0.4,1c-0.3,0.2-0.8,0.2-1.7,0.2c0-0.2-0.2-0.7-0.3-0.9c0.6,0,1.1,0,1.3,0
							c0.2,0,0.2-0.1,0.2-0.2v-3.2h-2c-0.1,1.5-0.4,3.1-1,4.4c-0.2-0.2-0.6-0.4-0.8-0.5c0.9-1.8,1-4.4,1-6.3v-4.6h3.7V489.9z
							 M226.6,485.8v-2.2h-2v0.7c0,0.4,0,0.9,0,1.5H226.6z M224.7,480.6v2.1h2v-2.1H224.7z M234.5,484.3c-0.3,1.8-1,3.2-1.8,4.4
							c0.6,0.7,1.3,1.3,2.2,1.7c-0.2,0.2-0.5,0.5-0.6,0.7c-0.8-0.4-1.5-1-2.1-1.7c-0.6,0.7-1.2,1.2-2,1.7c-0.1-0.2-0.4-0.5-0.6-0.7
							c0.7-0.4,1.4-0.9,2-1.6c-0.7-1-1.3-2.3-1.7-3.6h-0.3v6h-0.9v-11.3h5.5v2.5c0,0.5-0.1,0.7-0.5,0.9c-0.4,0.1-1.1,0.1-2,0.1
							c0-0.3-0.2-0.6-0.3-0.8c0.8,0,1.5,0,1.7,0c0.2,0,0.3-0.1,0.3-0.2v-1.6h-3.6v3.5h4.2l0.2,0L234.5,484.3z M230.7,485
							c0.3,1.1,0.8,2,1.4,2.9c0.6-0.8,1-1.8,1.3-2.9H230.7z"/>
						<path fill="#939598" d="M239.6,486.7c0.2-0.5,0.5-1.3,0.7-2.1h-1.2v5.3c0,0.5-0.1,0.7-0.4,0.9c-0.3,0.1-0.8,0.1-1.6,0.1
							c0-0.2-0.2-0.6-0.3-0.9c0.6,0,1.1,0,1.2,0c0.2,0,0.2-0.1,0.2-0.2v-4.1c-0.5,1.2-1.2,2.5-1.9,3.2c-0.1-0.3-0.3-0.6-0.5-0.9
							c0.8-0.8,1.6-2.1,2.1-3.5h-2v-0.8h3.5c-0.7-0.6-1.9-1.3-2.9-1.7l0.6-0.6c0.4,0.2,0.8,0.4,1.3,0.6c0.5-0.4,1-0.8,1.4-1.3h-3.7
							v-0.8h4.3l0.2,0l0.6,0.4c-0.5,0.8-1.3,1.6-2.1,2.2c0.4,0.3,0.8,0.5,1.1,0.8l-0.5,0.6h1l0.1-0.1l0.6,0.2
							c-0.1,0.2-0.1,0.5-0.2,0.7c0.9-0.2,1.7-0.6,2.3-1c-0.5-0.5-1-1-1.3-1.6c-0.3,0.3-0.6,0.7-0.9,0.9c-0.2-0.2-0.6-0.4-0.8-0.6
							c1-0.8,1.9-1.9,2.5-3.2l0.9,0.2c-0.2,0.4-0.4,0.8-0.6,1.1h4.3v0.8h-1c-0.4,0.9-0.9,1.6-1.6,2.2c0.8,0.5,1.8,0.9,2.8,1.1
							c-0.2,0.2-0.5,0.6-0.6,0.8c-1.1-0.3-2.1-0.8-2.9-1.4c-0.8,0.6-1.8,1-2.8,1.3c-0.1-0.1-0.2-0.3-0.3-0.5c-0.2,0.8-0.5,1.5-0.8,2
							L239.6,486.7z M247.2,486.5c0,0,0,0.3,0,0.4c-0.2,2.4-0.5,3.4-0.9,3.8c-0.2,0.2-0.5,0.3-0.8,0.3c-0.3,0-0.9,0-1.4,0
							c0-0.3-0.1-0.6-0.3-0.9c0.6,0.1,1.1,0.1,1.3,0.1c0.2,0,0.3,0,0.4-0.1c0.2-0.2,0.4-1,0.6-2.7H244c-0.5,1.6-1.4,3-3.4,3.8
							c-0.1-0.2-0.4-0.6-0.6-0.7c1.8-0.6,2.6-1.7,3-3h-2v-0.8h2.2c0.1-0.4,0.1-0.8,0.2-1.3h1c0,0.4-0.1,0.9-0.2,1.3H247.2z
							 M242.7,481.4c0.3,0.6,0.9,1.2,1.5,1.7c0.5-0.5,1-1,1.3-1.7H242.7z"/>
					</g>
				</g>
			</g>
			<g>
				<path fill="#73B564" d="M280.5,396L280.5,396c-17.8,0-32.3-14.4-32.3-32.3v0c0-17.8,14.4-32.3,32.3-32.3h0
					c17.8,0,32.3,14.4,32.3,32.3v0C312.7,381.6,298.3,396,280.5,396z"/>
				<g>
					<g>
						<path fill="#FFFFFF" d="M273.4,369.1c0,0.5-0.1,0.7-0.5,0.9c-0.3,0.1-0.9,0.2-1.7,0.2c-0.1-0.2-0.2-0.6-0.3-0.8
							c0.6,0,1.2,0,1.3,0c0.2,0,0.2-0.1,0.2-0.2v-2c-0.9,0.5-1.8,1-2.5,1.4l-0.3-0.8c-0.1,0.9-0.4,1.8-0.9,2.5
							c-0.1-0.2-0.5-0.6-0.7-0.7c0.7-1,0.8-2.4,0.8-3.5v-3.2h4.6V369.1z M272.6,359.1c0.6,0.9,1.4,2.1,1.7,2.9l-0.8,0.4
							c-0.1-0.3-0.2-0.6-0.4-0.9c-3.6,0.3-4,0.3-4.3,0.5c-0.1-0.2-0.2-0.7-0.3-0.9c0.2,0,0.4-0.2,0.7-0.5c0.2-0.3,1.1-1.3,1.7-2.4
							l1,0.3c-0.6,0.9-1.2,1.7-1.8,2.4l2.7-0.2c-0.3-0.4-0.5-0.9-0.8-1.3L272.6,359.1z M269.7,366c0,0.5,0,1.1-0.1,1.7
							c0.7-0.3,1.8-0.9,2.8-1.4v-2.7h-2.7V366z M270.4,364.4c0.7,0.4,1.6,1,2.1,1.4l-0.5,0.5c-0.5-0.4-1.4-1-2.1-1.4L270.4,364.4z
							 M276.1,363.8c-1.2,0-1.5-0.4-1.5-1.5v-4.1h1v1.8h3.5v0.9h-3.5v1.5c0,0.5,0.1,0.6,0.5,0.6h2.4c0.3,0,0.8,0,1.1-0.1
							c0,0.3,0.1,0.6,0.1,0.9c-0.2,0.1-0.7,0.1-1.2,0.1H276.1z M278.4,369.2c0.6,0,0.6-0.2,0.7-1.7c0.2,0.2,0.6,0.3,0.9,0.4
							c-0.1,1.7-0.4,2.2-1.5,2.2h-2.3c-1.3,0-1.6-0.3-1.6-1.4v-4.4h1v1.6h3.7v0.9h-3.7v2c0,0.4,0.1,0.5,0.7,0.5H278.4z"/>
						<path fill="#FFFFFF" d="M283.2,363.9c-0.5-0.4-1.5-1-2.2-1.4l0.6-0.7c0.7,0.4,1.7,0.9,2.2,1.3L283.2,363.9z M284.1,365.8
							c-0.5,1.4-1.3,3-1.9,4.2l-0.9-0.5c0.6-1,1.4-2.7,2-4.2L284.1,365.8z M283.8,360.5c-0.5-0.4-1.5-1-2.2-1.5l0.6-0.7
							c0.7,0.4,1.7,1,2.2,1.4L283.8,360.5z M285.9,362.4c0,2.3-0.2,5.5-1.8,7.7c-0.2-0.2-0.6-0.4-0.8-0.5c1.5-2.1,1.6-5.1,1.6-7.2
							v-3.6h8v0.9h-7V362.4z M288,366.7c-0.4,1-1.1,2-1.7,2.7c-0.2-0.1-0.6-0.4-0.8-0.5c0.6-0.6,1.2-1.6,1.6-2.4L288,366.7z
							 M289.9,365.7v3.4c0,0.5-0.1,0.7-0.4,0.9c-0.4,0.1-0.9,0.1-1.8,0.1c0-0.2-0.2-0.6-0.3-0.8c0.6,0,1.2,0,1.4,0
							c0.2,0,0.2-0.1,0.2-0.2v-3.4h-2.3v-4.5h2c0.1-0.4,0.3-1,0.4-1.3l1.1,0.2c-0.2,0.4-0.4,0.8-0.5,1.1h2.9v4.5H289.9z
							 M287.5,363.1h4V362h-4V363.1z M287.5,365h4v-1.2h-4V365z M291.6,366.3c0.5,0.8,1.2,1.9,1.5,2.5l-0.9,0.4
							c-0.3-0.7-0.9-1.7-1.4-2.6L291.6,366.3z"/>
					</g>
				</g>
			</g>
			<g>
				<path fill="#73B564" d="M262.1,463.5L262.1,463.5c-14.1,0-25.6-11.5-25.6-25.6v0c0-14.1,11.5-25.6,25.6-25.6h0
					c14.1,0,25.6,11.5,25.6,25.6v0C287.7,452,276.2,463.5,262.1,463.5z"/>
				<g>
					<g>
						<path fill="#FFFFFF" d="M261.4,442.9v1h-11.7v-1h5.3v-7.5h-4.6v-1h10.4v1H256v7.5H261.4z"/>
						<path fill="#FFFFFF" d="M267.5,442.7c-0.9,0.7-2.7,1.4-4,1.7c-0.1-0.2-0.4-0.6-0.6-0.7c1.4-0.2,3-0.7,3.9-1.3L267.5,442.7z
							 M274.3,440.9v0.8h-5.3v3.1h-1v-3.1h-5.2v-0.8h5.2v-1h-3.9v-0.7h3.9v-0.9h-4.6v-0.8h2.8c-0.1-0.4-0.4-0.9-0.7-1.3l0.7-0.2H263
							v-0.8h2.1c-0.2-0.5-0.6-1.3-1-1.9l0.8-0.3c0.5,0.6,0.9,1.4,1.1,1.9l-0.7,0.3h1.6v-2.3h0.9v2.3h1.6v-2.3h0.9v2.3h1.6l-0.5-0.2
							c0.4-0.5,0.8-1.4,1-2l1,0.3c-0.4,0.7-0.8,1.4-1.1,1.9h2v0.8h-3.4l0.9,0.2c-0.3,0.4-0.6,0.9-0.9,1.2h3v0.8h-4.8v0.9h4.1v0.7
							h-4.1v1H274.3z M266.6,436c0.3,0.4,0.6,0.9,0.7,1.3l-0.5,0.1h3.6l-0.5-0.1c0.3-0.4,0.6-0.9,0.8-1.3H266.6z M270.5,442.3
							c1.2,0.4,2.9,1,3.8,1.5l-0.6,0.6c-0.9-0.4-2.5-1.1-3.8-1.5L270.5,442.3z"/>
					</g>
				</g>
			</g>
			<g>
				<path fill="#73B564" d="M190.1,415.1L190.1,415.1c-18.9,0-34.2-15.3-34.2-34.2v0c0-18.9,15.3-34.2,34.2-34.2h0
					c18.9,0,34.2,15.3,34.2,34.2v0C224.3,399.8,209,415.1,190.1,415.1z"/>
				<g>
					<g>
						<path fill="#FFFFFF" d="M182.8,377.3h-9.6v2.8c0,2.1-0.2,5.2-1.4,7.3c-0.2-0.2-0.6-0.4-0.8-0.5c1.1-2,1.3-4.8,1.3-6.8v-3.7
							h10.6V377.3z M176.2,384.3c-0.7,0.9-1.6,2-2.3,2.8c-0.2-0.1-0.6-0.4-0.8-0.6c0.8-0.7,1.6-1.6,2.2-2.5L176.2,384.3z
							 M178.5,383.4v3.2c0,0.5-0.1,0.8-0.5,0.9c-0.4,0.2-1,0.2-2,0.2c0-0.3-0.2-0.6-0.3-0.9c0.8,0,1.4,0,1.6,0
							c0.2,0,0.3-0.1,0.3-0.2v-3.2h-3.2v-4.7h2.6c0.2-0.4,0.4-0.9,0.5-1.2l1.1,0.2c-0.2,0.4-0.4,0.7-0.6,1h3.8v4.7H178.5z
							 M175.3,380.7h5.4v-1.2h-5.4V380.7z M175.3,382.6h5.4v-1.2h-5.4V382.6z M180.4,384.1c0.8,0.8,1.8,1.9,2.3,2.6l-0.8,0.5
							c-0.5-0.7-1.5-1.9-2.3-2.7L180.4,384.1z"/>
						<path fill="#FFFFFF" d="M187.4,382.9v4.8h-0.9v-4.5c-0.8,0.2-1.5,0.5-2.2,0.7l-0.3-0.9c0.7-0.2,1.5-0.4,2.4-0.7v-2.9h-1.2
							c-0.2,0.7-0.3,1.4-0.6,1.9c-0.2-0.1-0.5-0.4-0.7-0.4c0.5-1.1,0.7-2.8,0.9-4.4l0.9,0.1c-0.1,0.6-0.2,1.2-0.2,1.8h1v-2.7h0.9
							v2.7h1.4v0.9h-1.4v2.7l1.5-0.5l0.1,0.9L187.4,382.9z M196,377.9c0,0,0,0.4,0,0.5c-0.3,5.9-0.6,8-1.1,8.6
							c-0.2,0.3-0.5,0.5-0.9,0.5c-0.4,0.1-0.9,0-1.5,0c0-0.3-0.1-0.7-0.3-1c0.6,0.1,1.1,0.1,1.4,0.1c0.2,0,0.3-0.1,0.5-0.2
							c0.4-0.5,0.7-2.4,1-7.6h-0.6c-0.7,3.4-2.1,6.9-4.3,8.7c-0.2-0.2-0.5-0.4-0.8-0.6c2.2-1.5,3.6-4.8,4.3-8.1h-1.1
							c-0.6,2.2-1.8,4.7-3.2,5.9c-0.2-0.2-0.5-0.4-0.8-0.6c1.4-1.1,2.6-3.3,3.2-5.4h-1.1c-0.4,1-0.9,1.8-1.5,2.5
							c-0.2-0.2-0.6-0.4-0.7-0.6c1.1-1.2,1.9-3.1,2.3-5l0.9,0.2c-0.2,0.7-0.4,1.4-0.6,2h4.2v0L196,377.9z"/>
						<path fill="#FFFFFF" d="M199.2,382c-0.3,1.5-0.8,3.3-1.5,4.2c-0.1-0.3-0.3-0.8-0.5-1.1c0.6-0.8,1.1-2.2,1.3-3.4L199.2,382z
							 M200.4,381v6.7h-0.9V381h-2.1v-0.9h2.1v-4.4h0.9v4.4h2.1v0.9H200.4z M198.2,379.6c-0.1-0.8-0.4-2-0.7-2.9l0.7-0.2
							c0.4,0.9,0.7,2.1,0.8,2.9L198.2,379.6z M201,381.7c0.2,0.4,1.2,2.2,1.4,2.6l-0.7,0.7c-0.2-0.7-1-2.4-1.2-3L201,381.7z
							 M202.5,376.7c-0.3,1-0.7,2.2-1.1,2.9l-0.6-0.2c0.3-0.8,0.7-2.1,0.9-2.9L202.5,376.7z M207.6,384v3.7h-0.9v-3.5l-4.1,0.7
							l-0.2-0.9l4.2-0.7v-7.5h0.9v7.4l1.5-0.3l0.1,0.9L207.6,384z M205,382.1c-0.4-0.5-1.4-1.1-2.2-1.6l0.5-0.7
							c0.8,0.4,1.7,1,2.2,1.5L205,382.1z M205.5,379c-0.4-0.5-1.3-1.2-2.1-1.7l0.5-0.7c0.7,0.4,1.6,1.1,2.1,1.6L205.5,379z"/>
					</g>
				</g>
			</g>
			<g>
				<path fill="#939598" d="M273.3,524.8L273.3,524.8c-7.6,0-13.8-6.2-13.8-13.8v0c0-7.6,6.2-13.8,13.8-13.8h0
					c7.6,0,13.8,6.2,13.8,13.8v0C287.1,518.7,280.9,524.8,273.3,524.8z"/>
				<g>
					<g>
						<path fill="#939598" d="M300.3,515.7c-0.1,0.4-0.1,0.7-0.2,1h4.6c0,0,0,0.3,0,0.4c-0.2,1.8-0.4,2.6-0.7,2.9
							c-0.2,0.2-0.5,0.3-0.9,0.3c-0.3,0-1,0-1.7,0c0-0.3-0.1-0.6-0.3-0.8c0.7,0.1,1.3,0.1,1.5,0.1c0.2,0,0.4,0,0.5-0.1
							c0.2-0.2,0.3-0.7,0.5-2h-3.8c-0.5,1.3-1.5,2.3-3.5,2.9c-0.1-0.2-0.3-0.6-0.5-0.8c2.5-0.7,3.2-2,3.5-3.9h-2.8
							c-0.2,1.6-0.6,3.4-1.6,4.7c-0.1-0.2-0.5-0.6-0.7-0.7c1.4-1.8,1.5-4.4,1.5-6.3v-4.1h0c2.9-0.2,6.4-0.5,8.4-1l0.8,0.7
							c-2.2,0.5-5.3,0.8-8.2,1v0.7h8.5v2.9h-8.5c0,0.4,0,0.8,0,1.2h4.2c-0.2-0.3-0.4-0.7-0.6-1l0.9-0.2c0.3,0.4,0.6,0.8,0.7,1.2h4.3
							v0.8H300.3z M296.5,511.5v1.3h7.6v-1.3H296.5z"/>
						<path fill="#939598" d="M309.9,516c0.5-0.2,1-0.4,1.4-0.6l0.2,0.9c-1.4,0.6-2.8,1.3-4,1.8l-0.4-1c0.5-0.2,1.1-0.4,1.8-0.7v-4
							h-1.6v-0.9h1.6v-3h0.9v3h1.4v0.9h-1.4V516z M317.5,519.1c0.8,0,0.9-0.4,1-1.9c0.2,0.2,0.6,0.3,0.9,0.4
							c-0.2,1.8-0.5,2.4-1.8,2.4h-3.2c-1.5,0-1.9-0.4-1.9-1.8v-4.1l-1,0.4l-0.4-0.9l1.4-0.6v-3.6h0.9v3.2l1.8-0.7v-3.6h0.9v3.3
							l2-0.8l0.7,0.3l-0.1,0.2c-0.1,1.9-0.4,4.3-0.7,5.7l-0.8-0.2c0.2-1.2,0.4-3.1,0.5-4.8l-1.7,0.7v4.8H315V513l-1.8,0.7v4.5
							c0,0.7,0.2,0.9,1,0.9H317.5z"/>
						<path fill="#939598" d="M322.4,513.6v2c0,1.5-0.2,3.5-1.4,4.8c-0.1-0.2-0.5-0.5-0.7-0.6c1.1-1.2,1.2-2.9,1.2-4.2v-2.8h1.7
							c-0.1-0.2-0.3-0.4-0.5-0.5c1-0.2,2.2-0.5,3.4-0.8c-1-0.3-2-0.6-3-0.8l0.6-0.5h-2.1v-0.8h4.8c-0.2-0.3-0.5-0.7-0.7-1l0.7-0.4
							c0.3,0.4,0.7,0.9,1,1.3h4.4v0.8h-2l0.5,0.3c-0.6,0.3-1.3,0.6-2,0.9c1,0.3,1.9,0.6,2.5,0.8l-0.5,0.5h1.9v0.8H322.4z
							 M332.4,519.1v0.8h-9.7v-0.8h4.3v-1.3h-3.1v-0.8h3.1v-1.2h-2.7c-0.4,0.6-0.8,1.2-1.2,1.6c-0.1-0.2-0.3-0.6-0.5-0.8
							c0.7-0.7,1.4-1.7,1.7-2.7l0.8,0.2c-0.1,0.3-0.2,0.6-0.4,0.9h2.3v-1.1h1v1.1h3.5v0.8h-3.5v1.2h3.2v0.8h-3.2v1.3H332.4z
							 M330,512.8c-0.8-0.3-1.7-0.6-2.8-0.9c-1.2,0.4-2.4,0.7-3.5,0.9H330z M323.9,510.3c1,0.2,2.2,0.6,3.3,0.9
							c0.8-0.3,1.6-0.6,2.2-0.9H323.9z"/>
					</g>
				</g>
			</g>
			<g>
				<path fill="#939598" d="M372.6,505.6L372.6,505.6c-6.8,0-12.3-5.5-12.3-12.3v0c0-6.8,5.5-12.3,12.3-12.3h0
					c6.8,0,12.3,5.5,12.3,12.3v0C384.9,500.1,379.4,505.6,372.6,505.6z"/>
				<g>
					<g>
						<path fill="#939598" d="M403.3,488.7c-0.9,2.2-2.4,4.2-3.8,5.6c-0.2-0.2-0.6-0.6-0.9-0.8c1.5-1.2,2.8-3.1,3.6-5.1L403.3,488.7
							z M406.9,495c1.1,1.4,2.3,3.2,2.9,4.4l-1,0.5c-0.2-0.4-0.4-0.8-0.7-1.3c-6.8,0.5-7.5,0.5-8,0.7c0-0.2-0.2-0.7-0.4-1
							c0.4-0.1,0.7-0.5,1.2-1.1c0.5-0.6,2.2-2.9,3.3-5.2l1.1,0.5c-1.1,2-2.5,4.1-3.8,5.6l6.1-0.3c-0.5-0.8-1.1-1.7-1.6-2.4
							L406.9,495z M407.2,488.4c0.6,2.1,1.9,4,3.5,5.1c-0.2,0.2-0.6,0.6-0.8,0.9c-1.5-1.1-2.7-3-3.5-5H404v-1H407.2z"/>
						<path fill="#939598" d="M422.7,498.7c0,0.6-0.2,0.9-0.6,1.1c-0.4,0.2-1.2,0.2-2.4,0.2c0-0.3-0.2-0.7-0.3-0.9c0.9,0,1.8,0,2,0
							c0.3,0,0.4-0.1,0.4-0.3V496h-3.5v3.9h-1V496H414c-0.2,1.5-0.6,3-1.6,4.1c-0.1-0.2-0.5-0.5-0.7-0.6c1.4-1.6,1.6-3.9,1.6-5.8
							V489h9.6V498.7z M417.3,495.1v-2.2h-3.1v0.8c0,0.4,0,0.9-0.1,1.4H417.3z M414.2,489.9v2.1h3.1v-2.1H414.2z M421.8,489.9h-3.5
							v2.1h3.5V489.9z M421.8,495.1v-2.2h-3.5v2.2H421.8z"/>
						<path fill="#939598" d="M436.8,496.3h-1.4v2.3h-1V498h-3.1v0.9c0,0.6-0.2,0.8-0.6,1c-0.4,0.1-1.1,0.2-2.2,0.2
							c-0.1-0.2-0.2-0.6-0.3-0.8c0.8,0,1.6,0,1.8,0c0.2,0,0.3-0.1,0.3-0.3V498h-4.2v-0.7h4.2v-1h-5.4v-0.8h5.4v-0.9h-4.1v-0.7h4.1
							V493h-3.8v-2.3h3.8v-0.8h-5.1v-0.8h5.1v-1h1v1h5.2v0.8h-5.2v0.8h3.9v2.3h-3.9v0.9h4.1v1.6h1.4V496.3z M430.3,492.3v-0.9h-2.8
							v0.9H430.3z M431.3,491.3v0.9h2.9v-0.9H431.3z M431.3,495.5h3.1v-0.9h-3.1V495.5z M434.4,496.3h-3.1v1h3.1V496.3z"/>
						<path fill="#939598" d="M442.8,497.9c-0.9,0.7-2.7,1.4-4,1.7c-0.1-0.2-0.4-0.6-0.6-0.7c1.4-0.2,3-0.7,3.9-1.3L442.8,497.9z
							 M449.7,496.1v0.8h-5.3v3.1h-1v-3.1h-5.2v-0.8h5.2v-1h-3.9v-0.7h3.9v-0.9h-4.6v-0.8h2.8c-0.1-0.4-0.4-0.9-0.7-1.3l0.7-0.2
							h-3.4v-0.8h2.1c-0.2-0.5-0.6-1.3-1-1.9l0.8-0.3c0.5,0.6,0.9,1.4,1.1,1.9l-0.7,0.3h1.6V488h0.9v2.3h1.6V488h0.9v2.3h1.6
							l-0.5-0.2c0.4-0.5,0.8-1.4,1-2l1,0.3c-0.4,0.7-0.8,1.4-1.1,1.9h2v0.8h-3.4l0.9,0.2c-0.3,0.4-0.6,0.9-0.9,1.2h3v0.8h-4.8v0.9
							h4.1v0.7h-4.1v1H449.7z M442,491.2c0.3,0.4,0.6,0.9,0.7,1.3l-0.5,0.1h3.6l-0.5-0.1c0.3-0.4,0.6-0.9,0.8-1.3H442z M445.9,497.5
							c1.2,0.4,2.9,1,3.8,1.5l-0.6,0.6c-0.9-0.4-2.5-1.1-3.8-1.5L445.9,497.5z"/>
					</g>
				</g>
			</g>
			<g>
				<path fill="#939598" d="M337.9,550.2L337.9,550.2c-3.6,0-6.5-2.9-6.5-6.5l0,0c0-3.6,2.9-6.5,6.5-6.5h0c3.6,0,6.5,2.9,6.5,6.5
					l0,0C344.4,547.3,341.5,550.2,337.9,550.2z"/>
				<g>
					<g>
						<path fill="#939598" d="M353,537.6c-0.2,0.9-0.6,1.8-0.9,2.6v9.1h-0.9v-7.3c-0.3,0.5-0.6,1-1,1.4c-0.1-0.2-0.3-0.7-0.5-1
							c1-1.2,1.9-3.1,2.4-5L353,537.6z M355.8,542.2c-0.2,1.9-0.5,3.4-1,4.5c1.2,1.3,3,1.6,4.8,1.6c0.4,0,1.7,0,2.2,0
							c-0.1,0.2-0.3,0.6-0.3,0.8h-2c-2,0-3.8-0.3-5.1-1.6c-0.4,0.8-1,1.4-1.6,1.8c-0.1-0.2-0.5-0.5-0.6-0.6c0.7-0.4,1.2-1.1,1.6-1.9
							c-0.5-0.6-0.9-1.4-1.2-2.4l0.7-0.3c0.2,0.7,0.5,1.4,0.8,1.9c0.3-0.8,0.5-1.9,0.7-3.1h-2c0.5-1,1.1-2.5,1.5-3.8h-1.4v-0.9h2.7
							c-0.4,1.2-1,2.7-1.5,3.8h1.1l0.1,0L355.8,542.2z M358.1,540.9h-2.3v-0.8h2.3v-1h-1.7v-0.7h1.7v-1.1h0.8v1.1h2v1.7h0.9v0.8
							h-0.9v1.8h-2v1h2.3v0.8h-2.3v1h2.7v0.8h-2.7v1.6h-0.8v-1.6h-2.3v-0.8h2.3v-1h-1.9v-0.8h1.9v-1h-1.7V542h1.7V540.9z
							 M358.9,540.2h1.2v-1h-1.2V540.2z M360.1,540.9h-1.2v1h1.2V540.9z"/>
						<path fill="#939598" d="M370.2,546c0.3,0.1,0.6,0.2,0.9,0.4c0.7-0.4,1.6-1.1,2.2-1.6l0.7,0.6c-0.6,0.5-1.4,1-2.1,1.4
							c1,0.4,2.1,0.9,2.7,1.3l-0.4,0.7c-0.9-0.5-2.6-1.3-4-1.9v1.4c0,0.6-0.2,0.8-0.6,1c-0.4,0.1-1.1,0.1-2.2,0.1
							c-0.1-0.3-0.2-0.6-0.3-0.8c0.8,0,1.6,0,1.8,0c0.2,0,0.3-0.1,0.3-0.3v-1.4c-1.4,0.6-2.8,1.2-3.9,1.7l-0.4-0.8
							c1.1-0.4,2.7-1,4.3-1.7v-1.5h-3.5v-0.7h3.5v-1.1h-4v-0.7h4v-1h-3.3v-0.7h3.3v-1H365v3c0,2-0.2,5-1.3,7
							c-0.2-0.2-0.6-0.4-0.8-0.5c1-1.9,1.1-4.6,1.1-6.5v-3.9h5.1c-0.2-0.3-0.4-0.7-0.6-1l0.9-0.3c0.3,0.4,0.6,0.9,0.8,1.3h4.5v0.9
							h-4.6v1h3.5v1.7h1.3v0.9h-1.3v1.7h-3.5V546z M366.2,544.7c0.6,0.4,1.5,1,1.9,1.3l-0.6,0.6c-0.4-0.4-1.2-1-1.9-1.4L366.2,544.7
							z M370.2,542.1h2.5v-1h-2.5V542.1z M370.2,543.9h2.5v-1.1h-2.5V543.9z"/>
						<path fill="#939598" d="M380.7,540.4h-4.6v-0.8h4.6V540.4z M380.3,548.5h-2.8v0.6h-0.8v-4.4h3.7V548.5z M380.3,542h-3.6v-0.8
							h3.6V542z M376.7,543h3.6v0.8h-3.6V543z M377.5,545.5v2.2h2v-2.2H377.5z M378.5,539.4c-0.2-0.5-0.6-1.2-0.9-1.7l0.7-0.4
							c0.4,0.5,0.8,1.2,1,1.7L378.5,539.4z M381.7,542c-0.2,0.3-0.4,0.6-0.7,0.8c-0.1-0.2-0.4-0.5-0.5-0.7c0.7-0.7,1.4-1.7,1.7-2.7
							l0.8,0.2v-0.7h-2.1v-0.8h2.1v-0.8h0.9v2.3H383c-0.1,0.3-0.2,0.6-0.4,0.9h1.7c-0.1-0.3-0.2-0.6-0.3-0.9l0.8-0.2
							c0.2,0.3,0.3,0.8,0.4,1.1h2.4v0.7h-2.6v0.7h2.2v0.6h-2.2v0.7h2.2v0.6h-2.2v0.7h2.8v0.6h-5.5v0.3h-0.8V542z M387.4,545.8
							c-0.5,0.8-1.2,1.5-2,2c0.9,0.3,1.9,0.6,2.9,0.7c-0.2,0.2-0.4,0.6-0.6,0.8c-1.2-0.2-2.3-0.6-3.3-1c-1.1,0.5-2.3,0.8-3.5,1
							c-0.1-0.2-0.3-0.6-0.4-0.8c1.1-0.1,2.1-0.4,3.1-0.7c-0.6-0.4-1.1-0.9-1.5-1.4l0.4-0.1H381v-0.7h5.7l0.2,0L387.4,545.8z
							 M384.3,541.2h-1.8v0.7h1.8V541.2z M384.3,542.4h-1.8v0.7h1.8V542.4z M384.3,543.6h-1.8v0.7h1.8V543.6z M382.9,546.2
							c0.4,0.4,0.9,0.8,1.5,1.2c0.6-0.3,1.2-0.7,1.6-1.2H382.9z M386,539.6h-0.9v-2.3h0.9v0.8h2v0.8h-2V539.6z"/>
						<path fill="#939598" d="M393.5,546.6c-1.4,0.5-2.9,1-4.1,1.4l-0.2-1c0.5-0.1,1.1-0.3,1.8-0.6v-3.5h-1.5V542h1.5v-2.8h-1.6
							v-0.9h4.1v0.9h-1.5v2.8h1.3v0.9h-1.3v3.2l1.4-0.5L393.5,546.6z M401.3,548v0.9h-8.5V548h4v-1.8h-3v-0.9h3v-1.5H394v-5.8h6.7
							v5.8h-2.9v1.5h3.1v0.9h-3.1v1.8H401.3z M394.9,540.4h2v-1.7h-2V540.4z M394.9,542.9h2v-1.7h-2V542.9z M399.8,538.8h-2v1.7h2
							V538.8z M399.8,541.2h-2v1.7h2V541.2z"/>
					</g>
				</g>
			</g>
			<g>
				<path fill="#007A6D" d="M407.4,206.4L407.4,206.4c-27,0-48.9-21.9-48.9-48.9v0c0-27,21.9-48.9,48.9-48.9h0
					c27,0,48.9,21.9,48.9,48.9v0C456.3,184.5,434.4,206.4,407.4,206.4z"/>
				<g>
					<g>
						<g>
							<path fill="#FFFFFF" d="M388.7,148.8h1.2v7.5c0,2.3-0.6,5.6-4.5,7.4c-0.2-0.3-0.6-0.7-0.9-0.9c2-0.8,3.1-2.2,3.6-3.6
								c-1.4,0.3-2.9,0.6-4,0.8l-0.3-1.2c1.2-0.2,2.9-0.5,4.6-0.7c0.1-0.7,0.2-1.3,0.2-1.7v-0.4h-4.1v-1.1h4.1v-2.5h-4.4v-1.1h4.4
								V148.8z M398.5,159.6h-4.9v3.9h-1.2v-14.8h1.2v2.4h4.7v1.1h-4.7v2.5h4.3v1.1h-4.3v2.6h4.9V159.6z"/>
							<path fill="#FFFFFF" d="M409.2,157.9c0.8,2.6,2.3,4.4,3.8,4.3c0.5,0,0.7-0.7,0.7-2.4c0.3,0.2,0.7,0.5,1.1,0.6
								c-0.2,2.4-0.7,3-1.9,3c-2.2,0-4.1-2.3-5-5.5H403v4.1l3.9-0.9c0,0.3,0.1,0.9,0.1,1.1c-4.4,1.2-5,1.3-5.4,1.6
								c-0.1-0.3-0.4-0.9-0.6-1.1c0.3-0.1,0.7-0.5,0.7-1.2v-11.8h11.5v4.7h-4.7c0,0.9,0.2,1.7,0.4,2.5h5.6v1.1H409.2z M403,150.7
								v2.4h9.1v-2.4H403z M407.6,156.7c-0.1-0.8-0.3-1.6-0.3-2.5H403v2.5H407.6z"/>
							<path fill="#FFFFFF" d="M430.9,161.9v1.2h-14.4v-1.2h6.6v-4.1h-4.8v-1.2h4.8V153h-3.8c-0.5,1-1.1,1.9-1.7,2.7
								c-0.2-0.2-0.8-0.6-1.1-0.7c1.3-1.4,2.4-3.7,3-6l1.2,0.3c-0.3,0.9-0.6,1.8-0.9,2.6h3.3v-3.1h1.2v3.1h5.8v1.2h-5.8v3.5h5.2v1.2
								h-5.2v4.1H430.9z"/>
							<path fill="#FFFFFF" d="M386.6,173.6c-0.4,1.8-1,4.1-1.9,5.5l-1.1-0.5c0.9-1.4,1.5-3.6,1.9-5.4L386.6,173.6z M393.5,181.9
								c0.9,0,1.1-0.5,1.2-3.1c0.3,0.2,0.8,0.4,1.2,0.5c-0.2,2.9-0.6,3.8-2.3,3.8h-3.3c-1.8,0-2.3-0.4-2.3-2.1v-0.8
								c-1.2,0.8-2.4,1.5-3.6,2.1c-0.2-0.3-0.5-0.7-0.8-0.9c1.6-0.7,3.1-1.6,4.4-2.6v-6.4h1.3v5.4c2.8-2.4,5.1-5.4,6.6-8.3l1.2,0.5
								c-1.8,3.5-4.4,6.8-7.8,9.4v1.8c0,0.8,0.2,0.9,1.1,0.9H393.5z M392.1,172.4c-0.9-0.8-2.7-2.2-4.1-3.1l0.8-0.9
								c1.4,0.9,3.1,2.2,4.1,3L392.1,172.4z M396.1,173.9c1.1,1.6,2.2,3.7,2.7,5.2l-1.1,0.6c-0.4-1.4-1.5-3.6-2.6-5.2L396.1,173.9z"
								/>
							<path fill="#FFFFFF" d="M407.9,177.2c-0.1,0.4-0.3,0.8-0.4,1.2h6.1v3.7c0,0.6-0.1,0.8-0.5,1c-0.4,0.2-1,0.2-1.9,0.2
								c-0.1-0.3-0.2-0.7-0.4-1c0.7,0,1.2,0,1.4,0c0.2,0,0.2-0.1,0.2-0.2v-2.7h-2.5v3.8h-1.1v-3.8h-2.5v3.8h-1.1v-3.8h-2.4v3.9h-1.2
								v-4.9h4.7c0.1-0.4,0.2-0.8,0.3-1.2h-6.3v-1h14.1v1H407.9z M401.7,174.7h-1.2v-3.5h6.2V170h-5.5v-0.9h12.3v0.9h-5.6v1.2h6.3
								v3.5h-1.2v-2.5h-5.1v3.5h-1.2v-3.5h-5.1V174.7z M402,174.9c1-0.1,2.4-0.3,3.9-0.5l0,0.8c-1.3,0.3-2.5,0.5-3.5,0.7L402,174.9z
								 M402.8,172.5c1,0.2,2.4,0.5,3.1,0.8l-0.3,0.7c-0.7-0.3-2.1-0.7-3.1-0.9L402.8,172.5z M412.4,175.9c-0.9-0.3-2.5-0.7-3.8-0.9
								l0.3-0.7c1.2,0.1,2.9,0.5,3.8,0.8L412.4,175.9z M412.4,173.1c-0.9,0.4-2.2,0.7-3.2,0.9l-0.4-0.6c0.9-0.2,2.3-0.7,3.1-1
								L412.4,173.1z"/>
							<path fill="#FFFFFF" d="M416.9,176.2h5.7v6.9h-1.2v-0.7h-3.4v0.9h-1.2V176.2z M418.1,177.4v3.9h3.4v-3.9H418.1z M428.1,174.5
								h-8.8v-5.4h8.8V174.5z M426.9,170.3h-6.5v3.1h6.5V170.3z M430.5,176.2v7h-1.2v-0.8h-3.7v0.9h-1.2v-7.1H430.5z M429.3,181.2
								v-3.9h-3.7v3.9H429.3z"/>
						</g>
					</g>
					<g>
						<g>
							<path fill="#FFFFFF" d="M390.2,134.5v-6.9l-1.8,1.4l-1.2-1.6l3.1-2.3h2v9.4H390.2z"/>
							<path fill="#FFFFFF" d="M399.3,134.8c-2.7,0-3.7-2.3-3.7-5c0-2.7,1-4.9,3.7-4.9c2.7,0,3.7,2.3,3.7,4.9
								C403,132.5,402,134.8,399.3,134.8z M399.3,126.8c-1.2,0-1.4,1.9-1.4,3c0,1.2,0.2,3.1,1.4,3.1c1.2,0,1.4-1.9,1.4-3.1
								C400.7,128.6,400.5,126.8,399.3,126.8z"/>
							<path fill="#FFFFFF" d="M405.6,134.7c-0.7,0-1.4-0.6-1.4-1.3c0-0.7,0.6-1.3,1.4-1.3c0.7,0,1.3,0.6,1.3,1.3
								S406.4,134.7,405.6,134.7z"/>
							<path fill="#FFFFFF" d="M411.8,134.8c-1.7,0-3.3-0.7-3.8-2.5l2.1-0.5c0.2,0.6,0.7,1.2,1.6,1.2c0.6,0,1.4-0.3,1.4-1.2
								c0-1-1-1.2-1.9-1.2h-0.6v-1.6h0.7c0.8,0,1.6-0.2,1.6-1.1c0-0.7-0.6-1-1.2-1c-0.6,0-1.1,0.4-1.3,1.1l-2.1-0.5
								c0.5-1.6,1.9-2.4,3.5-2.4c1.7,0,3.3,0.9,3.3,2.7c0,1-0.7,1.8-1.6,2v0c1.1,0.3,1.8,1.1,1.8,2.2
								C415.4,133.9,413.6,134.8,411.8,134.8z"/>
							<path fill="#FFFFFF" d="M419.1,130c-1.4,0-2.5-1.1-2.5-2.5c0-1.4,1.1-2.5,2.5-2.5c1.4,0,2.5,1.1,2.5,2.5
								C421.7,128.9,420.5,130,419.1,130z M419.1,126.4c-0.6,0-1,0.5-1,1s0.5,1,1,1s1-0.5,1-1S419.7,126.4,419.1,126.4z M420.2,135
								l-1.2-0.6l5.5-9.7l1.2,0.6L420.2,135z M425.5,134.7c-1.4,0-2.5-1.1-2.5-2.5c0-1.4,1.1-2.5,2.5-2.5c1.4,0,2.5,1.1,2.5,2.5
								C428.1,133.6,426.9,134.7,425.5,134.7z M425.5,131.1c-0.6,0-1,0.5-1,1s0.5,1,1,1c0.6,0,1-0.5,1-1S426.1,131.1,425.5,131.1z"
								/>
						</g>
					</g>
				</g>
			</g>
			<g>
				<path fill="#007A6D" d="M215.1,329.5L215.1,329.5c-72.3,0-130.9-58.6-130.9-130.9v0c0-72.3,58.6-130.9,130.9-130.9h0
					c72.3,0,130.9,58.6,130.9,130.9v0C346.1,270.9,287.4,329.5,215.1,329.5z"/>
				<g>
					<g>
						<g>
							<path fill="#FFFFFF" d="M175.7,216.9H169v-1.4h6.8V216.9z M177.6,229.2c-1.9,1.1-4.9,2.3-7.2,2.9c-0.3-0.4-0.9-1-1.3-1.3
								c2.4-0.5,5.3-1.4,6.9-2.3L177.6,229.2z M175.1,213.2h-5.7v-1.4h5.7V213.2z M172.1,218.8h15.3v9.5h-15.3V218.8z M173.8,221.6
								h11.9V220h-11.9V221.6z M173.8,224.3h11.9v-1.6h-11.9V224.3z M173.8,227.1h11.9v-1.7h-11.9V227.1z M179.5,213.4
								c-0.5,0.9-1.1,1.7-1.8,2.4c-0.3-0.3-0.9-0.7-1.3-0.9c1.2-1.1,2.2-2.8,2.7-4.5l1.6,0.4c-0.1,0.5-0.3,0.9-0.5,1.3h7.9l0.3-0.1
								l1.2,0.4c-0.6,1.2-1.4,2.6-2,3.4l-1.4-0.5c0.4-0.5,0.8-1.2,1.1-1.9h-3.8v0.3c0,0.2,0,0.5-0.1,0.8c1.3,1.4,3.8,2.3,6.9,2.6
								c-0.3,0.3-0.8,1-1,1.4c-2.7-0.4-5-1.3-6.4-2.8c-0.8,1.2-2.7,2.3-6.8,2.9c-0.2-0.4-0.6-1-0.9-1.3c6.1-0.8,6.7-2.4,6.7-3.7
								v-0.2H179.5z M183,228.4c2.5,0.8,5.3,1.8,7,2.6l-1.5,1c-1.5-0.8-4.1-1.8-6.6-2.6L183,228.4z"/>
							<path fill="#FFFFFF" d="M201.1,215.9h-8.5v-1.4h8.5V215.9z M200.3,230.6H195v1.1h-1.4v-8h6.7V230.6z M193.6,218.9v-1.4h6.7
								v1.4H193.6z M193.6,220.6h6.7v1.4h-6.7V220.6z M195,225.2v3.9h3.8v-3.9H195z M196.8,214.2c-0.3-0.9-1.1-2.2-1.7-3.2l1.3-0.7
								c0.6,1,1.4,2.2,1.7,3.1L196.8,214.2z M211.7,211.8c-0.1,9.6-0.2,17.8,1.1,18.1c0.1,0,0.3-1.5,0.4-3.2c0.3,0.5,0.8,1,1,1.3
								c-0.3,3.3-1,4.1-2.1,3.6c-2.3-0.7-2.3-8.5-2.2-18.2H206v7h3.1v1.6H206v10h-1.7v-10h-3.2v-1.6h3.2v-7h-2.9v-1.7H211.7z"/>
							<path fill="#FFFFFF" d="M224.1,224.6c-0.4-0.8-1.4-2.3-2.2-3.5v11h-1.7v-10.5c-1,2.4-2.2,4.7-3.4,6.2
								c-0.2-0.5-0.6-1.2-0.9-1.6c1.5-1.7,3.2-4.7,4.1-7.4h-3.7V217h4v-3.6c-1.1,0.2-2.2,0.4-3.2,0.5c-0.1-0.4-0.3-1-0.5-1.4
								c2.7-0.4,5.8-1.1,7.5-1.9l1.1,1.4c-0.9,0.4-2,0.7-3.1,0.9v4h3.5v1.7h-3.5v0.4c0.7,0.8,2.8,3.4,3.3,4.1L224.1,224.6z
								 M234.9,225.8v6.2h-1.7v-5.9l-7.7,1.3l-0.3-1.7l8-1.3v-14h1.7v13.7l2.8-0.4l0.3,1.6L234.9,225.8z M230.3,222.7
								c-0.9-1-2.7-2.5-4.2-3.5l1.1-1c1.5,0.9,3.4,2.3,4.2,3.3L230.3,222.7z M230.8,216.4c-0.7-1-2.4-2.4-3.8-3.4l1.1-1
								c1.4,0.9,3.1,2.3,3.9,3.2L230.8,216.4z"/>
							<path fill="#FFFFFF" d="M247.7,222.4c-0.9,0.3-1.9,0.6-2.8,0.9v6.7c0,1-0.3,1.5-0.9,1.8c-0.6,0.3-1.6,0.3-3.2,0.3
								c-0.1-0.5-0.3-1.1-0.6-1.6c1.1,0,2.2,0,2.4,0c0.4,0,0.5-0.1,0.5-0.5v-6.2l-2.8,0.8l-0.5-1.7c0.9-0.2,2.1-0.5,3.3-0.9v-5.2h-3
								v-1.7h3v-4.7h1.7v4.7h2.6v1.7h-2.6v4.7c0.9-0.2,1.8-0.5,2.6-0.8L247.7,222.4z M260.3,219.7c-1,3.2-2.7,5.8-4.8,7.8
								c1.7,1.4,3.7,2.4,6.1,3.1c-0.4,0.4-0.9,1-1.1,1.5c-2.5-0.8-4.6-1.9-6.3-3.4c-2,1.5-4.3,2.6-6.7,3.4c-0.2-0.5-0.6-1.2-0.9-1.6
								c2.3-0.6,4.5-1.6,6.4-3c-1.7-1.8-3-4-3.9-6.5l0.1,0h-0.8v-1.6h5.1v-3.5h-5.5v-1.6h5.5v-3.7h1.7v3.7h5.7v1.6h-5.7v3.5h3.8
								l0.3-0.1L260.3,219.7z M250.7,220.9c0.8,2.1,2,3.9,3.5,5.5c1.6-1.5,3-3.3,3.8-5.5H250.7z"/>
						</g>
					</g>
					<g>
						<g>
							<path fill="#FFFFFF" d="M185.2,195.3v-2.7l5.4-4.8c0.7-0.6,1.1-1.3,1.1-2.1c0-1-0.7-1.6-1.7-1.6c-1.1,0-1.8,0.9-1.9,2.1
								l-3.1-0.4c0.3-2.8,2.6-4.4,5.2-4.4c2.5,0,5,1.3,5,4.2c0,2-1.1,3.1-2.4,4.2l-3.2,2.8h5.6v2.8H185.2z"/>
							<path fill="#FFFFFF" d="M202.3,195.3h-3.8l5.6-10.9h-6.5v-2.8h10v2.6L202.3,195.3z"/>
							<path fill="#FFFFFF" d="M211.8,195.5c-1.1,0-2-0.8-2-1.9c0-1,0.9-1.9,2-1.9c1,0,1.9,0.8,1.9,1.9
								C213.8,194.6,212.9,195.5,211.8,195.5z"/>
							<path fill="#FFFFFF" d="M220.9,195.6c-3,0-5.4-1.9-5.4-4.9c0-1.6,0.6-2.9,1.5-4.2l3.3-4.9h3.9l-3.4,4.7l-0.1,0.1
								c0.3-0.1,0.7-0.2,1-0.2c2.4,0,4.5,1.8,4.5,4.5C226.4,193.8,223.9,195.6,220.9,195.6z M221,188.6c-1.3,0-2.2,0.9-2.2,2.2
								c0,1.2,0.9,2.2,2.2,2.2c1.3,0,2.2-0.9,2.2-2.2C223.1,189.5,222.2,188.6,221,188.6z"/>
							<path fill="#FFFFFF" d="M231.5,188.6c-2,0-3.7-1.6-3.7-3.7c0-2.1,1.6-3.7,3.7-3.7c2,0,3.7,1.6,3.7,3.7
								C235.2,187,233.5,188.6,231.5,188.6z M231.5,183.5c-0.8,0-1.5,0.7-1.5,1.5s0.7,1.5,1.5,1.5s1.5-0.7,1.5-1.5
								S232.3,183.5,231.5,183.5z M233,195.9l-1.7-0.9l8-14.2l1.8,0.9L233,195.9z M240.8,195.5c-2,0-3.7-1.6-3.7-3.7
								s1.6-3.7,3.7-3.7c2,0,3.7,1.6,3.7,3.7S242.8,195.5,240.8,195.5z M240.8,190.3c-0.8,0-1.5,0.7-1.5,1.5s0.7,1.5,1.5,1.5
								c0.8,0,1.5-0.7,1.5-1.5S241.6,190.3,240.8,190.3z"/>
						</g>
					</g>
				</g>
			</g>
			<g>
				<path fill="#007A6D" d="M431.7,444.9L431.7,444.9c-61.3,0-111-49.7-111-111v0c0-61.3,49.7-111,111-111h0
					c61.3,0,111,49.7,111,111v0C542.7,395.2,493,444.9,431.7,444.9z"/>
				<g>
					<g>
						<g>
							<path fill="#FFFFFF" d="M420.5,346.9v3.3h8.4v1.6h-8.4v5.9h9.5v1.7h-20.7v-1.7h9.4v-5.9h-8.3v-1.6h8.3v-3.3h-5.2v-1.3
								c-1.2,0.7-2.5,1.3-3.8,1.8c-0.3-0.5-0.7-1.2-1.2-1.6c4.5-1.5,8.9-4.3,11.2-7.9l1.6,0.8c-0.2,0.3-0.4,0.6-0.6,0.9
								c2.4,2.6,6.6,5.1,10.3,6.2c-0.4,0.4-1,1.1-1.3,1.6c-1.3-0.5-2.6-1.1-3.9-1.9v1.5H420.5z M413.9,352.4
								c0.9,1.4,1.9,3.2,2.3,4.3l-1.6,0.7c-0.3-1.1-1.3-3-2.2-4.4L413.9,352.4z M425.5,345.2c-2.2-1.3-4.3-2.9-5.9-4.5
								c-1.6,1.7-3.5,3.3-5.6,4.5H425.5z M422.7,356.8c0.8-1.2,1.9-3.1,2.5-4.4l1.7,0.7c-0.9,1.5-2,3.2-2.8,4.4L422.7,356.8z"/>
							<path fill="#FFFFFF" d="M433.1,339.1h11.3v1.6h-11.3V339.1z M444,358.1c0,0.8-0.1,1.2-0.7,1.4c-0.5,0.2-1.3,0.2-2.6,0.2
								c0-0.4-0.3-1-0.5-1.4c0.9,0,1.7,0,1.9,0c0.2,0,0.3-0.1,0.3-0.3v-8.4h-7.7V360h-1.4v-11.8H444V358.1z M443.3,346.9h-9v-4.9h9
								V346.9z M439.4,354.8v4.7h-1.4v-4.7h-2.5v-1.2h3.3c0.6-1,1.3-2.4,1.6-3.4l1.2,0.5c-0.5,1-1.1,2.1-1.6,2.9h1.7v1.2H439.4z
								 M441.6,343.4h-5.8v2.3h5.8V343.4z M437,350.2c0.6,0.9,1.2,2.1,1.4,2.8l-1.1,0.4c-0.2-0.7-0.8-2-1.4-2.8L437,350.2z
								 M453.5,360.1c-0.1-0.6-0.2-1.2-0.4-2c-2.8,0.5-5.7,1-7.9,1.4l-0.4-1.7c1.1-0.1,2.5-0.4,4-0.6v-5.4h-3.6v-9.1h3.6v-4.6h1.6
								v4.6h3.5v9.1h-3.5v5.2l2.3-0.4c-0.3-1-0.7-2.1-1.1-3.1l1.3-0.3c0.9,2.1,1.8,4.8,2,6.4L453.5,360.1z M446.6,350.3h2.3v-6h-2.3
								V350.3z M452.5,344.4h-2.2v6h2.2V344.4z"/>
						</g>
					</g>
					<g>
						<g>
							<path fill="#FFFFFF" d="M402,325.6v-2.8l5.4-4.9c0.7-0.7,1.1-1.3,1.1-2.2c0-1-0.7-1.7-1.7-1.7c-1.1,0-1.8,0.9-2,2.1l-3.2-0.4
								c0.3-2.8,2.6-4.5,5.3-4.5c2.6,0,5.1,1.4,5.1,4.3c0,2-1.2,3.2-2.4,4.3l-3.2,2.9h5.7v2.9H402z"/>
							<path fill="#FFFFFF" d="M419.6,326c-2.5,0-4.9-1.1-5.6-3.7l3.1-0.8c0.3,0.9,1.1,1.7,2.4,1.7c0.9,0,2-0.5,2-1.8
								c0-1.4-1.5-1.8-2.8-1.8h-0.9v-2.4h1c1.2,0,2.4-0.3,2.4-1.7c0-1-0.8-1.5-1.8-1.5c-0.9,0-1.7,0.6-1.9,1.6l-3.1-0.7
								c0.7-2.3,2.9-3.6,5.2-3.6c2.5,0,4.9,1.3,4.9,3.9c0,1.5-1,2.7-2.3,3v0.1c1.6,0.4,2.7,1.7,2.7,3.2
								C424.9,324.6,422.2,326,419.6,326z"/>
							<path fill="#FFFFFF" d="M429.1,325.8c-1.1,0-2-0.8-2-1.9c0-1.1,0.9-2,2-2c1.1,0,2,0.8,2,1.9S430.2,325.8,429.1,325.8z"/>
							<path fill="#FFFFFF" d="M442.2,322.9v2.7h-3.1v-2.7h-6.6v-2.8l5.7-8.5h4v8.6h1.9v2.7H442.2z M439.1,315L439.1,315l-3.4,5.2
								h3.4V315z"/>
							<path fill="#FFFFFF" d="M449.1,318.8c-2.1,0-3.8-1.7-3.8-3.7c0-2.1,1.7-3.7,3.8-3.7s3.8,1.6,3.8,3.7
								C452.9,317.2,451.2,318.8,449.1,318.8z M449.1,313.6c-0.8,0-1.5,0.7-1.5,1.5c0,0.8,0.7,1.5,1.5,1.5s1.5-0.7,1.5-1.5
								C450.7,314.3,450,313.6,449.1,313.6z M450.7,326.3l-1.8-0.9l8.2-14.4l1.8,0.9L450.7,326.3z M458.6,325.8
								c-2.1,0-3.8-1.7-3.8-3.7s1.7-3.7,3.8-3.7s3.8,1.7,3.8,3.7S460.7,325.8,458.6,325.8z M458.6,320.6c-0.8,0-1.5,0.7-1.5,1.5
								c0,0.8,0.7,1.5,1.5,1.5c0.8,0,1.5-0.7,1.5-1.5C460.2,321.2,459.5,320.6,458.6,320.6z"/>
						</g>
					</g>
				</g>
			</g>
		</g>
		<g>
			<g>
				<path fill="#0074B7" d="M975.8,188.5L975.8,188.5c-9.1,0-16.5-7.4-16.5-16.5v0c0-9.1,7.4-16.5,16.5-16.5h0
					c9.1,0,16.5,7.4,16.5,16.5v0C992.3,181.1,984.9,188.5,975.8,188.5z"/>
				<g>
					<g>
						<path fill="#FFFFFF" d="M969.2,165.5h0.4v2.7c0,0.8-0.2,2-1.6,2.6c-0.1-0.1-0.2-0.2-0.3-0.3c0.7-0.3,1.1-0.8,1.3-1.3
							c-0.5,0.1-1,0.2-1.4,0.3l-0.1-0.4c0.4-0.1,1-0.2,1.6-0.3c0.1-0.2,0.1-0.4,0.1-0.6V168h-1.5v-0.4h1.5v-0.9h-1.5v-0.4h1.5V165.5
							z M972.7,169.4H971v1.4h-0.4v-5.2h0.4v0.8h1.6v0.4H971v0.9h1.5v0.4H971v0.9h1.7V169.4z"/>
						<path fill="#FFFFFF" d="M976.5,168.7c0.3,0.9,0.8,1.5,1.3,1.5c0.2,0,0.2-0.2,0.3-0.8c0.1,0.1,0.3,0.2,0.4,0.2
							c-0.1,0.8-0.2,1.1-0.7,1.1c-0.8,0-1.4-0.8-1.8-2h-1.7v1.4l1.4-0.3c0,0.1,0,0.3,0,0.4c-1.6,0.4-1.8,0.5-1.9,0.6
							c0-0.1-0.1-0.3-0.2-0.4c0.1-0.1,0.3-0.2,0.3-0.4v-4.2h4.1v1.7h-1.7c0,0.3,0.1,0.6,0.1,0.9h2v0.4H976.5z M974.3,166.2v0.9h3.2
							v-0.9H974.3z M975.9,168.3c-0.1-0.3-0.1-0.6-0.1-0.9h-1.5v0.9H975.9z"/>
						<path fill="#FFFFFF" d="M984.1,170.1v0.4H979v-0.4h2.3v-1.5h-1.7v-0.4h1.7V167H980c-0.2,0.4-0.4,0.7-0.6,0.9
							c-0.1-0.1-0.3-0.2-0.4-0.3c0.5-0.5,0.8-1.3,1.1-2.1l0.4,0.1c-0.1,0.3-0.2,0.6-0.3,0.9h1.2v-1.1h0.4v1.1h2.1v0.4h-2.1v1.3h1.8
							v0.4h-1.8v1.5H984.1z"/>
						<path fill="#FFFFFF" d="M968.5,175.9c-0.1,0.6-0.3,1.5-0.7,2l-0.4-0.2c0.3-0.5,0.5-1.3,0.7-1.9L968.5,175.9z M970.9,178.9
							c0.3,0,0.4-0.2,0.4-1.1c0.1,0.1,0.3,0.2,0.4,0.2c-0.1,1-0.2,1.3-0.8,1.3h-1.2c-0.6,0-0.8-0.2-0.8-0.7v-0.3
							c-0.4,0.3-0.8,0.5-1.3,0.7c-0.1-0.1-0.2-0.3-0.3-0.3c0.6-0.3,1.1-0.6,1.6-0.9v-2.3h0.4v1.9c1-0.9,1.8-1.9,2.3-2.9l0.4,0.2
							c-0.7,1.2-1.6,2.4-2.7,3.3v0.6c0,0.3,0.1,0.3,0.4,0.3H970.9z M970.4,175.5c-0.3-0.3-1-0.8-1.4-1.1l0.3-0.3
							c0.5,0.3,1.1,0.8,1.4,1.1L970.4,175.5z M971.8,176c0.4,0.6,0.8,1.3,0.9,1.8l-0.4,0.2c-0.1-0.5-0.5-1.3-0.9-1.8L971.8,176z"/>
						<path fill="#FFFFFF" d="M976,177.2c0,0.1-0.1,0.3-0.1,0.4h2.2v1.3c0,0.2,0,0.3-0.2,0.4c-0.1,0.1-0.4,0.1-0.7,0.1
							c0-0.1-0.1-0.3-0.1-0.4c0.2,0,0.4,0,0.5,0s0.1,0,0.1-0.1V178h-0.9v1.3h-0.4V178h-0.9v1.3H975V178h-0.9v1.4h-0.4v-1.7h1.7
							c0-0.1,0.1-0.3,0.1-0.4h-2.2v-0.4h5v0.4H976z M973.8,176.3h-0.4v-1.2h2.2v-0.4h-2v-0.3h4.3v0.3h-2v0.4h2.2v1.2h-0.4v-0.9H976
							v1.3h-0.4v-1.3h-1.8V176.3z M973.9,176.4c0.4,0,0.8-0.1,1.4-0.2l0,0.3c-0.4,0.1-0.9,0.2-1.3,0.2L973.9,176.4z M974.2,175.5
							c0.4,0.1,0.8,0.2,1.1,0.3l-0.1,0.3c-0.3-0.1-0.7-0.3-1.1-0.3L974.2,175.5z M977.6,176.8c-0.3-0.1-0.9-0.2-1.3-0.3l0.1-0.3
							c0.4,0,1,0.2,1.3,0.3L977.6,176.8z M977.6,175.8c-0.3,0.1-0.8,0.3-1.1,0.3l-0.1-0.2c0.3-0.1,0.8-0.2,1.1-0.3L977.6,175.8z"/>
						<path fill="#FFFFFF" d="M979.2,176.9h2v2.5h-0.4v-0.3h-1.2v0.3h-0.4V176.9z M979.6,177.3v1.4h1.2v-1.4H979.6z M983.2,176.3
							H980v-1.9h3.1V176.3z M982.7,174.8h-2.3v1.1h2.3V174.8z M984,176.9v2.5h-0.4v-0.3h-1.3v0.3h-0.4v-2.5H984z M983.6,178.6v-1.4
							h-1.3v1.4H983.6z"/>
					</g>
				</g>
			</g>
			<g>
				<path fill="#A7A9AC" d="M1086.4,249.8L1086.4,249.8c-7.2,0-13.1-5.9-13.1-13.1v0c0-7.2,5.9-13.1,13.1-13.1l0,0
					c7.2,0,13.1,5.9,13.1,13.1v0C1099.5,243.9,1093.7,249.8,1086.4,249.8z"/>
				<g>
					<g>
						<path fill="#FFFFFF" d="M1084.2,233.3c0.3,0.9,0.8,1.5,1.3,1.5c0.2,0,0.2-0.2,0.3-0.8c0.1,0.1,0.3,0.2,0.4,0.2
							c-0.1,0.8-0.2,1.1-0.7,1.1c-0.8,0-1.4-0.8-1.8-2h-1.7v1.4l1.4-0.3c0,0.1,0,0.3,0,0.4c-1.6,0.4-1.8,0.5-1.9,0.6
							c0-0.1-0.1-0.3-0.2-0.4c0.1-0.1,0.3-0.2,0.3-0.4v-4.2h4.1v1.7h-1.7c0,0.3,0.1,0.6,0.1,0.9h2v0.4H1084.2z M1082,230.7v0.9h3.2
							v-0.9H1082z M1083.6,232.9c-0.1-0.3-0.1-0.6-0.1-0.9h-1.5v0.9H1083.6z"/>
						<path fill="#FFFFFF" d="M1091.9,234.7v0.4h-5.1v-0.4h2.3v-1.5h-1.7v-0.4h1.7v-1.3h-1.4c-0.2,0.4-0.4,0.7-0.6,0.9
							c-0.1-0.1-0.3-0.2-0.4-0.3c0.5-0.5,0.8-1.3,1.1-2.1l0.4,0.1c-0.1,0.3-0.2,0.6-0.3,0.9h1.2V230h0.4v1.1h2.1v0.4h-2.1v1.3h1.8
							v0.4h-1.8v1.5H1091.9z"/>
						<path fill="#FFFFFF" d="M1079.1,240.5c-0.1,0.6-0.3,1.5-0.7,2l-0.4-0.2c0.3-0.5,0.5-1.3,0.7-1.9L1079.1,240.5z M1081.5,243.4
							c0.3,0,0.4-0.2,0.4-1.1c0.1,0.1,0.3,0.2,0.4,0.2c-0.1,1-0.2,1.3-0.8,1.3h-1.2c-0.6,0-0.8-0.2-0.8-0.7v-0.3
							c-0.4,0.3-0.8,0.5-1.3,0.7c-0.1-0.1-0.2-0.3-0.3-0.3c0.6-0.3,1.1-0.6,1.6-0.9v-2.3h0.4v1.9c1-0.9,1.8-1.9,2.3-2.9l0.4,0.2
							c-0.7,1.2-1.6,2.4-2.7,3.3v0.6c0,0.3,0.1,0.3,0.4,0.3H1081.5z M1081,240.1c-0.3-0.3-1-0.8-1.4-1.1l0.3-0.3
							c0.5,0.3,1.1,0.8,1.4,1.1L1081,240.1z M1082.4,240.6c0.4,0.6,0.8,1.3,0.9,1.8l-0.4,0.2c-0.1-0.5-0.5-1.3-0.9-1.8L1082.4,240.6
							z"/>
						<path fill="#FFFFFF" d="M1086.6,241.8c0,0.1-0.1,0.3-0.1,0.4h2.2v1.3c0,0.2,0,0.3-0.2,0.4c-0.1,0.1-0.4,0.1-0.7,0.1
							c0-0.1-0.1-0.3-0.1-0.4c0.2,0,0.4,0,0.5,0s0.1,0,0.1-0.1v-0.9h-0.9v1.3h-0.4v-1.3h-0.9v1.3h-0.4v-1.3h-0.9v1.4h-0.4v-1.7h1.7
							c0-0.1,0.1-0.3,0.1-0.4h-2.2v-0.4h5v0.4H1086.6z M1084.4,240.9h-0.4v-1.2h2.2v-0.4h-2v-0.3h4.3v0.3h-2v0.4h2.2v1.2h-0.4V240
							h-1.8v1.3h-0.4V240h-1.8V240.9z M1084.5,241c0.4,0,0.8-0.1,1.4-0.2l0,0.3c-0.4,0.1-0.9,0.2-1.3,0.2L1084.5,241z M1084.8,240.1
							c0.4,0.1,0.8,0.2,1.1,0.3l-0.1,0.3c-0.3-0.1-0.7-0.3-1.1-0.3L1084.8,240.1z M1088.2,241.3c-0.3-0.1-0.9-0.2-1.3-0.3l0.1-0.3
							c0.4,0,1,0.2,1.3,0.3L1088.2,241.3z M1088.2,240.3c-0.3,0.1-0.8,0.3-1.1,0.3l-0.1-0.2c0.3-0.1,0.8-0.2,1.1-0.3L1088.2,240.3z"
							/>
						<path fill="#FFFFFF" d="M1089.8,241.4h2v2.5h-0.4v-0.3h-1.2v0.3h-0.4V241.4z M1090.2,241.8v1.4h1.2v-1.4H1090.2z
							 M1093.8,240.8h-3.1v-1.9h3.1V240.8z M1093.3,239.3h-2.3v1.1h2.3V239.3z M1094.6,241.4v2.5h-0.4v-0.3h-1.3v0.3h-0.4v-2.5
							H1094.6z M1094.2,243.2v-1.4h-1.3v1.4H1094.2z"/>
					</g>
				</g>
			</g>
			<g>
				<path fill="#A7A9AC" d="M1047.5,317.2L1047.5,317.2c-18.4,0-33.3-14.9-33.3-33.3v0c0-18.4,14.9-33.3,33.3-33.3l0,0
					c18.4,0,33.3,14.9,33.3,33.3v0C1080.8,302.3,1065.9,317.2,1047.5,317.2z"/>
				<g>
					<g>
						<path fill="#FFFFFF" d="M1037.7,285.8c-0.1,0.5-0.3,1.1-0.5,1.5c0.1,0.1,0.2,0.2,0.5,0.3c0.4,0.2,0.9,0.3,1.6,0.3
							c0.7,0,1.7-0.1,2.3-0.1c-0.1,0.1-0.1,0.3-0.1,0.4c-0.4,0-1.5,0.1-2.2,0.1c-0.8,0-1.3-0.1-1.7-0.3c-0.2-0.1-0.4-0.3-0.6-0.3
							c-0.1,0-0.3,0.4-0.5,0.7l-0.3-0.4c0.2-0.3,0.4-0.5,0.6-0.6c0.2-0.3,0.3-0.8,0.4-1.2h-0.7c0.2-0.3,0.3-0.8,0.5-1.3h-0.6v-0.4
							h1.2c-0.1,0.4-0.3,0.9-0.5,1.3h0.4l0.1,0L1037.7,285.8z M1036.9,284.1c-0.1-0.2-0.2-0.6-0.3-0.9l0.4-0.1
							c0.1,0.3,0.2,0.7,0.3,0.9L1036.9,284.1z M1038.5,287.4h-0.4v-3h1.6c-0.3-0.2-0.8-0.4-1.1-0.5l0.3-0.2c0.2,0.1,0.5,0.2,0.8,0.3
							c0.3-0.1,0.6-0.3,0.8-0.5h-2.4v-0.3h2.8l0.1,0l0.3,0.2c-0.3,0.3-0.7,0.6-1.2,0.8c0.2,0.1,0.3,0.2,0.4,0.2h0.7v2.5
							c0,0.2,0,0.3-0.2,0.4s-0.4,0.1-0.8,0.1c0-0.1-0.1-0.3-0.1-0.4c0.3,0,0.5,0,0.6,0c0.1,0,0.1,0,0.1-0.1v-0.5h-1v0.9h-0.4v-0.9
							h-1V287.4z M1038.5,284.8v0.5h1v-0.5H1038.5z M1039.5,286.1v-0.5h-1v0.5H1039.5z M1040.9,284.8h-1v0.5h1V284.8z M1040.9,286.1
							v-0.5h-1v0.5H1040.9z"/>
						<path fill="#FFFFFF" d="M1044.1,284.4h-2.1V284h2.1V284.4z M1043.9,287.9h-1.3v0.3h-0.3v-1.9h1.6V287.9z M1042.3,285.1v-0.3
							h1.6v0.3H1042.3z M1042.3,285.5h1.6v0.3h-1.6V285.5z M1042.6,286.6v0.9h0.9v-0.9H1042.6z M1043.1,283.9
							c-0.1-0.2-0.3-0.5-0.4-0.8l0.3-0.2c0.2,0.2,0.3,0.5,0.4,0.7L1043.1,283.9z M1046.7,283.3c0,2.3,0,4.3,0.3,4.4
							c0,0,0.1-0.4,0.1-0.8c0.1,0.1,0.2,0.3,0.2,0.3c-0.1,0.8-0.2,1-0.5,0.9c-0.6-0.2-0.5-2.1-0.5-4.4h-1v1.7h0.8v0.4h-0.8v2.4h-0.4
							v-2.4h-0.8v-0.4h0.8v-1.7h-0.7v-0.4H1046.7z"/>
						<path fill="#FFFFFF" d="M1049.8,287.8c0,0.2,0,0.4-0.2,0.4c-0.1,0.1-0.4,0.1-0.8,0.1c0-0.1-0.1-0.3-0.1-0.4c0.3,0,0.5,0,0.6,0
							c0.1,0,0.1,0,0.1-0.1v-1.4h-0.9c-0.1,0.7-0.2,1.4-0.4,1.9c-0.1-0.1-0.2-0.2-0.4-0.2c0.4-0.8,0.4-1.9,0.4-2.8v-2.1h1.7V287.8z
							 M1049.4,285.9v-1h-0.9v0.3c0,0.2,0,0.4,0,0.7H1049.4z M1048.5,283.6v0.9h0.9v-0.9H1048.5z M1052.9,285.3
							c-0.2,0.8-0.4,1.4-0.8,1.9c0.3,0.3,0.6,0.6,1,0.8c-0.1,0.1-0.2,0.2-0.3,0.3c-0.3-0.2-0.7-0.5-0.9-0.8
							c-0.3,0.3-0.6,0.6-0.9,0.7c-0.1-0.1-0.2-0.2-0.3-0.3c0.3-0.2,0.6-0.4,0.9-0.7c-0.3-0.5-0.6-1-0.8-1.6h-0.1v2.7h-0.4v-5h2.4
							v1.1c0,0.2-0.1,0.3-0.2,0.4c-0.2,0.1-0.5,0.1-0.9,0.1c0-0.1-0.1-0.3-0.1-0.4c0.4,0,0.6,0,0.7,0c0.1,0,0.1,0,0.1-0.1v-0.7h-1.6
							v1.5h1.9l0.1,0L1052.9,285.3z M1051.2,285.6c0.2,0.5,0.4,0.9,0.6,1.3c0.2-0.4,0.4-0.8,0.6-1.3H1051.2z"/>
						<path fill="#FFFFFF" d="M1055.2,286.3c0.1-0.2,0.2-0.6,0.3-0.9h-0.6v2.4c0,0.2,0,0.3-0.2,0.4c-0.1,0.1-0.4,0.1-0.7,0.1
							c0-0.1-0.1-0.3-0.1-0.4c0.2,0,0.5,0,0.5,0c0.1,0,0.1,0,0.1-0.1v-1.8c-0.2,0.6-0.5,1.1-0.8,1.4c0-0.1-0.1-0.3-0.2-0.4
							c0.4-0.3,0.7-1,0.9-1.5h-0.9V285h1.5c-0.3-0.3-0.8-0.6-1.3-0.8l0.3-0.3c0.2,0.1,0.4,0.2,0.6,0.3c0.2-0.2,0.4-0.4,0.6-0.6h-1.6
							v-0.4h1.9l0.1,0l0.3,0.2c-0.2,0.3-0.6,0.7-0.9,1c0.2,0.1,0.4,0.2,0.5,0.3l-0.2,0.2h0.4l0.1,0l0.3,0.1c0,0.1-0.1,0.2-0.1,0.3
							c0.4-0.1,0.7-0.3,1-0.4c-0.2-0.2-0.4-0.4-0.6-0.7c-0.1,0.1-0.3,0.3-0.4,0.4c-0.1-0.1-0.2-0.2-0.4-0.2c0.4-0.3,0.9-0.9,1.1-1.4
							l0.4,0.1c-0.1,0.2-0.2,0.3-0.3,0.5h1.9v0.4h-0.4c-0.2,0.4-0.4,0.7-0.7,1c0.4,0.2,0.8,0.4,1.2,0.5c-0.1,0.1-0.2,0.3-0.3,0.4
							c-0.5-0.1-0.9-0.3-1.3-0.6c-0.4,0.3-0.8,0.4-1.3,0.6c0-0.1-0.1-0.1-0.2-0.2c-0.1,0.3-0.2,0.7-0.3,0.9L1055.2,286.3z
							 M1058.6,286.2c0,0,0,0.1,0,0.2c-0.1,1.1-0.2,1.5-0.4,1.7c-0.1,0.1-0.2,0.1-0.4,0.1c-0.1,0-0.4,0-0.6,0c0-0.1-0.1-0.3-0.1-0.4
							c0.2,0,0.5,0,0.6,0c0.1,0,0.1,0,0.2-0.1c0.1-0.1,0.2-0.4,0.3-1.2h-1c-0.2,0.7-0.6,1.3-1.5,1.7c-0.1-0.1-0.2-0.3-0.3-0.3
							c0.8-0.3,1.2-0.8,1.3-1.4h-0.9v-0.4h1c0-0.2,0.1-0.4,0.1-0.6h0.4c0,0.2,0,0.4-0.1,0.6H1058.6z M1056.6,284
							c0.2,0.3,0.4,0.5,0.6,0.7c0.2-0.2,0.4-0.4,0.6-0.7H1056.6z"/>
					</g>
				</g>
			</g>
			<g>
				<path fill="#A7A9AC" d="M1000.2,385.6L1000.2,385.6c-21.2,0-38.3-17.2-38.3-38.3v0c0-21.2,17.2-38.3,38.3-38.3h0
					c21.2,0,38.3,17.2,38.3,38.3v0C1038.5,368.4,1021.3,385.6,1000.2,385.6z"/>
				<g>
					<g>
						<path fill="#FFFFFF" d="M996.9,351.9c-0.5,0.3-1.3,0.6-1.9,0.9c-0.1-0.1-0.2-0.2-0.3-0.3c0.6-0.2,1.4-0.5,1.8-0.8L996.9,351.9
							z M999.8,351.5h-5.1v-0.4h1.1v-2.6h-0.9v-0.4h0.9v-0.7h0.4v0.7h2.1v-0.7h0.4v0.7h0.9v0.4h-0.9v2.6h1.1V351.5z M996.2,348.6
							v0.6h2.1v-0.6H996.2z M996.2,350.2h2.1v-0.6h-2.1V350.2z M996.2,351.2h2.1v-0.6h-2.1V351.2z M998,351.7
							c0.7,0.2,1.4,0.6,1.8,0.8l-0.4,0.3c-0.4-0.2-1.1-0.6-1.8-0.8L998,351.7z"/>
						<path fill="#FFFFFF" d="M1002.1,347.7c-0.2,0.4-0.4,0.9-0.6,1.3v3.8h-0.4v-3.2c-0.2,0.3-0.4,0.5-0.6,0.7
							c0-0.1-0.2-0.3-0.2-0.4c0.6-0.6,1.1-1.4,1.4-2.3L1002.1,347.7z M1004.8,352.3c0.3,0,0.4-0.2,0.5-0.8c0.1,0.1,0.3,0.1,0.4,0.2
							c-0.1,0.8-0.2,1.1-0.8,1.1h-1.5c-0.7,0-0.9-0.2-0.9-0.8V350l-0.6,0.2l-0.2-0.4l0.7-0.3v-1.5h0.4v1.3l0.8-0.3v-1.6h0.4v1.4
							l1-0.4l0.1-0.1l0.3,0.1l0,0.1c0,0.8-0.1,1.9-0.2,2.6l-0.4-0.1c0.1-0.5,0.1-1.4,0.1-2.2l-0.9,0.4v2.1h-0.4v-2l-0.8,0.3v2
							c0,0.3,0.1,0.4,0.5,0.4H1004.8z"/>
					</g>
				</g>
			</g>
			<g>
				<path fill="#0074B7" d="M942.2,314.9L942.2,314.9c-34.7,0-62.9-28.2-62.9-62.9v0c0-34.7,28.2-62.9,62.9-62.9h0
					c34.7,0,62.9,28.2,62.9,62.9v0C1005.1,286.7,976.9,314.9,942.2,314.9z"/>
				<g>
					<g>
						<path fill="#FFFFFF" d="M938.1,251.6v1.2h3.1v0.6h-3.1v2.2h3.5v0.6h-7.7v-0.6h3.5v-2.2h-3.1v-0.6h3.1v-1.2h-1.9v-0.5
							c-0.5,0.3-0.9,0.5-1.4,0.7c-0.1-0.2-0.3-0.5-0.4-0.6c1.7-0.5,3.3-1.6,4.2-2.9l0.6,0.3c-0.1,0.1-0.1,0.2-0.2,0.3
							c0.9,0.9,2.5,1.9,3.8,2.3c-0.2,0.1-0.4,0.4-0.5,0.6c-0.5-0.2-1-0.4-1.4-0.7v0.6H938.1z M935.6,253.6c0.3,0.5,0.7,1.2,0.9,1.6
							l-0.6,0.2c-0.1-0.4-0.5-1.1-0.8-1.6L935.6,253.6z M939.9,250.9c-0.8-0.5-1.6-1.1-2.2-1.7c-0.6,0.6-1.3,1.2-2.1,1.7H939.9z
							 M938.9,255.2c0.3-0.4,0.7-1.1,0.9-1.6l0.6,0.2c-0.3,0.6-0.7,1.2-1.1,1.6L938.9,255.2z"/>
						<path fill="#FFFFFF" d="M942.7,248.7h4.2v0.6h-4.2V248.7z M946.8,255.7c0,0.3-0.1,0.4-0.3,0.5c-0.2,0.1-0.5,0.1-1,0.1
							c0-0.2-0.1-0.4-0.2-0.5c0.3,0,0.6,0,0.7,0c0.1,0,0.1,0,0.1-0.1v-3.1h-2.8v3.8h-0.5v-4.4h3.9V255.7z M946.5,251.6h-3.3v-1.8
							h3.3V251.6z M945.1,254.5v1.7h-0.5v-1.7h-0.9V254h1.2c0.2-0.4,0.5-0.9,0.6-1.3l0.4,0.2c-0.2,0.4-0.4,0.8-0.6,1.1h0.6v0.5
							H945.1z M945.9,250.2h-2.2v0.8h2.2V250.2z M944.2,252.8c0.2,0.3,0.4,0.8,0.5,1l-0.4,0.2c-0.1-0.3-0.3-0.7-0.5-1.1L944.2,252.8
							z M950.3,256.4c0-0.2-0.1-0.5-0.2-0.7c-1,0.2-2.1,0.4-2.9,0.5l-0.2-0.6c0.4-0.1,0.9-0.1,1.5-0.2v-2h-1.3V250h1.3v-1.7h0.6v1.7
							h1.3v3.4h-1.3v1.9l0.9-0.2c-0.1-0.4-0.3-0.8-0.4-1.1l0.5-0.1c0.3,0.8,0.7,1.8,0.7,2.4L950.3,256.4z M947.7,252.8h0.9v-2.2
							h-0.9V252.8z M949.9,250.6h-0.8v2.2h0.8V250.6z"/>
					</g>
				</g>
			</g>
			<g>
				<path fill="#0074B7" d="M1038.1,243.1L1038.1,243.1c-20.1,0-36.3-16.3-36.3-36.3v0c0-20.1,16.3-36.3,36.3-36.3l0,0
					c20.1,0,36.3,16.3,36.3,36.3v0C1074.4,226.9,1058.1,243.1,1038.1,243.1z"/>
				<g>
					<g>
						<path fill="#FFFFFF" d="M1028.5,207.8h-1.6v-0.3h1.6V207.8z M1029,210.8c-0.5,0.3-1.2,0.5-1.8,0.7c-0.1-0.1-0.2-0.2-0.3-0.3
							c0.6-0.1,1.3-0.3,1.7-0.6L1029,210.8z M1028.4,206.9h-1.4v-0.3h1.4V206.9z M1027.6,208.3h3.7v2.3h-3.7V208.3z M1028,208.9h2.9
							v-0.4h-2.9V208.9z M1028,209.6h2.9v-0.4h-2.9V209.6z M1028,210.3h2.9v-0.4h-2.9V210.3z M1029.4,207c-0.1,0.2-0.3,0.4-0.4,0.6
							c-0.1-0.1-0.2-0.2-0.3-0.2c0.3-0.3,0.5-0.7,0.7-1.1l0.4,0.1c0,0.1-0.1,0.2-0.1,0.3h1.9l0.1,0l0.3,0.1
							c-0.1,0.3-0.3,0.6-0.5,0.8l-0.3-0.1c0.1-0.1,0.2-0.3,0.3-0.5h-0.9v0.1c0,0.1,0,0.1,0,0.2c0.3,0.3,0.9,0.6,1.7,0.6
							c-0.1,0.1-0.2,0.2-0.2,0.3c-0.7-0.1-1.2-0.3-1.6-0.7c-0.2,0.3-0.6,0.5-1.7,0.7c0-0.1-0.2-0.2-0.2-0.3c1.5-0.2,1.6-0.6,1.6-0.9
							V207H1029.4z M1030.3,210.6c0.6,0.2,1.3,0.4,1.7,0.6l-0.4,0.2c-0.4-0.2-1-0.4-1.6-0.6L1030.3,210.6z"/>
						<path fill="#FFFFFF" d="M1034.7,207.6h-2.1v-0.4h2.1V207.6z M1034.5,211.1h-1.3v0.3h-0.3v-1.9h1.6V211.1z M1032.8,208.3V208
							h1.6v0.3H1032.8z M1032.8,208.7h1.6v0.3h-1.6V208.7z M1033.2,209.8v0.9h0.9v-0.9H1033.2z M1033.6,207.1
							c-0.1-0.2-0.3-0.5-0.4-0.8l0.3-0.2c0.2,0.2,0.3,0.5,0.4,0.7L1033.6,207.1z M1037.2,206.6c0,2.3,0,4.3,0.3,4.4
							c0,0,0.1-0.4,0.1-0.8c0.1,0.1,0.2,0.3,0.2,0.3c-0.1,0.8-0.2,1-0.5,0.9c-0.6-0.2-0.5-2.1-0.5-4.4h-1v1.7h0.8v0.4h-0.8v2.4h-0.4
							v-2.4h-0.8v-0.4h0.8V207h-0.7v-0.4H1037.2z"/>
						<path fill="#FFFFFF" d="M1040.3,209.7c-0.1-0.2-0.3-0.6-0.5-0.9v2.7h-0.4v-2.5c-0.2,0.6-0.5,1.1-0.8,1.5
							c0-0.1-0.1-0.3-0.2-0.4c0.4-0.4,0.8-1.1,1-1.8h-0.9v-0.4h1V207c-0.3,0.1-0.5,0.1-0.8,0.1c0-0.1-0.1-0.2-0.1-0.3
							c0.6-0.1,1.4-0.3,1.8-0.5l0.3,0.3c-0.2,0.1-0.5,0.2-0.8,0.2v1h0.8v0.4h-0.8v0.1c0.2,0.2,0.7,0.8,0.8,1L1040.3,209.7z
							 M1042.9,210v1.5h-0.4V210l-1.9,0.3l-0.1-0.4l1.9-0.3v-3.4h0.4v3.3l0.7-0.1l0.1,0.4L1042.9,210z M1041.7,209.2
							c-0.2-0.3-0.7-0.6-1-0.8l0.3-0.3c0.4,0.2,0.8,0.6,1,0.8L1041.7,209.2z M1041.9,207.7c-0.2-0.2-0.6-0.6-0.9-0.8l0.3-0.2
							c0.3,0.2,0.7,0.5,0.9,0.8L1041.9,207.7z"/>
						<path fill="#FFFFFF" d="M1046,209.1c-0.2,0.1-0.5,0.1-0.7,0.2v1.6c0,0.2-0.1,0.4-0.2,0.4c-0.1,0.1-0.4,0.1-0.8,0.1
							c0-0.1-0.1-0.3-0.1-0.4c0.3,0,0.5,0,0.6,0c0.1,0,0.1,0,0.1-0.1v-1.5l-0.7,0.2l-0.1-0.4c0.2-0.1,0.5-0.1,0.8-0.2v-1.3h-0.7
							v-0.4h0.7v-1.2h0.4v1.2h0.6v0.4h-0.6v1.1c0.2-0.1,0.4-0.1,0.6-0.2L1046,209.1z M1049,208.5c-0.2,0.8-0.7,1.4-1.2,1.9
							c0.4,0.3,0.9,0.6,1.5,0.7c-0.1,0.1-0.2,0.3-0.3,0.4c-0.6-0.2-1.1-0.5-1.5-0.8c-0.5,0.4-1,0.6-1.6,0.8c0-0.1-0.1-0.3-0.2-0.4
							c0.6-0.1,1.1-0.4,1.6-0.7c-0.4-0.4-0.7-1-0.9-1.6l0,0h-0.2v-0.4h1.2v-0.9h-1.3v-0.4h1.3v-0.9h0.4v0.9h1.4v0.4h-1.4v0.9h0.9
							l0.1,0L1049,208.5z M1046.7,208.8c0.2,0.5,0.5,1,0.8,1.3c0.4-0.4,0.7-0.8,0.9-1.3H1046.7z"/>
					</g>
				</g>
			</g>
			<g>
				<path fill="#A7A9AC" d="M930.4,347.6L930.4,347.6c-3.2,0-5.7-2.6-5.7-5.7l0,0c0-3.2,2.6-5.7,5.7-5.7l0,0c3.2,0,5.7,2.6,5.7,5.7
					l0,0C936.1,345,933.5,347.6,930.4,347.6z"/>
				<g>
					<g>
						<path fill="#A7A9AC" d="M941.7,342.1c0,0.2-0.1,0.3-0.1,0.4h2c0,0,0,0.1,0,0.2c-0.1,0.8-0.2,1.1-0.3,1.3
							c-0.1,0.1-0.2,0.1-0.4,0.1c-0.1,0-0.4,0-0.7,0c0-0.1-0.1-0.3-0.1-0.4c0.3,0,0.6,0,0.7,0c0.1,0,0.2,0,0.2,0
							c0.1-0.1,0.2-0.3,0.2-0.9h-1.7c-0.2,0.6-0.7,1-1.5,1.3c0-0.1-0.1-0.3-0.2-0.3c1.1-0.3,1.4-0.9,1.5-1.7H940
							c-0.1,0.7-0.3,1.5-0.7,2.1c-0.1-0.1-0.2-0.2-0.3-0.3c0.6-0.8,0.6-1.9,0.6-2.8v-1.8h0c1.3-0.1,2.8-0.2,3.7-0.4l0.3,0.3
							c-0.9,0.2-2.3,0.3-3.6,0.4v0.3h3.7v1.3h-3.7c0,0.2,0,0.4,0,0.5h1.8c-0.1-0.1-0.2-0.3-0.3-0.4l0.4-0.1c0.1,0.2,0.3,0.4,0.3,0.5
							h1.9v0.4H941.7z M940.1,340.2v0.6h3.3v-0.6H940.1z"/>
						<path fill="#A7A9AC" d="M945.9,342.2c0.2-0.1,0.4-0.2,0.6-0.3l0.1,0.4c-0.6,0.3-1.2,0.6-1.7,0.8l-0.2-0.4
							c0.2-0.1,0.5-0.2,0.8-0.3v-1.8h-0.7v-0.4h0.7v-1.3h0.4v1.3h0.6v0.4h-0.6V342.2z M949.2,343.6c0.3,0,0.4-0.2,0.4-0.8
							c0.1,0.1,0.3,0.1,0.4,0.2c-0.1,0.8-0.2,1-0.8,1h-1.4c-0.7,0-0.8-0.2-0.8-0.8v-1.8l-0.5,0.2l-0.2-0.4l0.6-0.3v-1.6h0.4v1.4
							l0.8-0.3v-1.6h0.4v1.4l0.9-0.4l0.3,0.1l0,0.1c-0.1,0.8-0.2,1.9-0.3,2.5l-0.4-0.1c0.1-0.5,0.2-1.4,0.2-2.1l-0.7,0.3v2.1h-0.4
							v-1.9l-0.8,0.3v2c0,0.3,0.1,0.4,0.4,0.4H949.2z"/>
						<path fill="#A7A9AC" d="M951.4,341.2v0.9c0,0.7-0.1,1.5-0.6,2.1c-0.1-0.1-0.2-0.2-0.3-0.3c0.5-0.5,0.5-1.3,0.5-1.9v-1.2h0.7
							c-0.1-0.1-0.1-0.2-0.2-0.2c0.5-0.1,1-0.2,1.5-0.3c-0.4-0.1-0.9-0.2-1.3-0.3l0.3-0.2H951v-0.4h2.1c-0.1-0.1-0.2-0.3-0.3-0.4
							l0.3-0.2c0.2,0.2,0.3,0.4,0.4,0.6h1.9v0.4h-0.9l0.2,0.1c-0.3,0.1-0.6,0.3-0.9,0.4c0.4,0.1,0.8,0.3,1.1,0.4l-0.2,0.2h0.8v0.4
							H951.4z M955.8,343.5v0.4h-4.3v-0.4h1.9V343h-1.3v-0.3h1.3v-0.5h-1.2c-0.2,0.3-0.4,0.5-0.5,0.7c0-0.1-0.1-0.3-0.2-0.4
							c0.3-0.3,0.6-0.7,0.8-1.2l0.4,0.1c-0.1,0.1-0.1,0.3-0.2,0.4h1v-0.5h0.4v0.5h1.5v0.4h-1.5v0.5h1.4v0.3h-1.4v0.6H955.8z
							 M954.7,340.8c-0.3-0.1-0.8-0.3-1.2-0.4c-0.5,0.2-1.1,0.3-1.6,0.4H954.7z M952.1,339.7c0.4,0.1,1,0.2,1.4,0.4
							c0.4-0.1,0.7-0.2,1-0.4H952.1z"/>
					</g>
				</g>
			</g>
			<g>
				<path fill="#A7A9AC" d="M872.5,325L872.5,325c-5.6,0-10.1-4.5-10.1-10.1l0,0c0-5.6,4.5-10.1,10.1-10.1l0,0
					c5.6,0,10.1,4.5,10.1,10.1l0,0C882.6,320.5,878.1,325,872.5,325z"/>
				<g>
					<g>
						<path fill="#A7A9AC" d="M887.3,312.5c-0.4,0.9-1,1.9-1.7,2.4c-0.1-0.1-0.3-0.3-0.4-0.3c0.6-0.5,1.2-1.4,1.6-2.2L887.3,312.5z
							 M888.9,315.2c0.5,0.6,1,1.4,1.3,1.9l-0.4,0.2c-0.1-0.2-0.2-0.3-0.3-0.6c-3,0.2-3.3,0.2-3.5,0.3c0-0.1-0.1-0.3-0.2-0.5
							c0.2,0,0.3-0.2,0.5-0.5c0.2-0.3,1-1.3,1.4-2.3l0.5,0.2c-0.5,0.9-1.1,1.8-1.7,2.5l2.7-0.1c-0.2-0.4-0.5-0.7-0.7-1L888.9,315.2z
							 M889,312.3c0.3,0.9,0.9,1.8,1.5,2.2c-0.1,0.1-0.3,0.3-0.3,0.4c-0.7-0.5-1.2-1.3-1.5-2.2h-1.1v-0.4H889z"/>
						<path fill="#A7A9AC" d="M895.8,316.8c0,0.3-0.1,0.4-0.3,0.5c-0.2,0.1-0.5,0.1-1.1,0.1c0-0.1-0.1-0.3-0.1-0.4
							c0.4,0,0.8,0,0.9,0c0.1,0,0.2,0,0.2-0.1v-1.2h-1.5v1.7h-0.4v-1.7H892c-0.1,0.6-0.3,1.3-0.7,1.8c-0.1-0.1-0.2-0.2-0.3-0.3
							c0.6-0.7,0.7-1.7,0.7-2.5v-2.1h4.2V316.8z M893.4,315.2v-1H892v0.3c0,0.2,0,0.4,0,0.6H893.4z M892,313v0.9h1.4V313H892z
							 M895.4,313h-1.5v0.9h1.5V313z M895.4,315.2v-1h-1.5v1H895.4z"/>
						<path fill="#A7A9AC" d="M901.9,315.8h-0.6v1h-0.4v-0.3h-1.4v0.4c0,0.3-0.1,0.4-0.3,0.4c-0.2,0.1-0.5,0.1-1,0.1
							c0-0.1-0.1-0.3-0.2-0.4c0.3,0,0.7,0,0.8,0c0.1,0,0.1,0,0.1-0.1v-0.4h-1.9v-0.3h1.9v-0.4h-2.4v-0.3h2.4V315h-1.8v-0.3h1.8v-0.4
							h-1.6v-1h1.6V313h-2.2v-0.4h2.2v-0.5h0.4v0.5h2.3v0.4h-2.3v0.3h1.7v1h-1.7v0.4h1.8v0.7h0.6V315.8z M899.1,314v-0.4h-1.2v0.4
							H899.1z M899.5,313.6v0.4h1.3v-0.4H899.5z M899.5,315.4h1.4V315h-1.4V315.4z M900.9,315.8h-1.4v0.4h1.4V315.8z"/>
						<path fill="#A7A9AC" d="M904.6,316.5c-0.4,0.3-1.2,0.6-1.8,0.7c-0.1-0.1-0.2-0.2-0.3-0.3c0.6-0.1,1.3-0.3,1.7-0.6L904.6,316.5
							z M907.6,315.7v0.4h-2.3v1.4h-0.4V316h-2.3v-0.4h2.3v-0.4h-1.7v-0.3h1.7v-0.4h-2v-0.3h1.2c-0.1-0.2-0.2-0.4-0.3-0.6l0.3-0.1
							h-1.5v-0.4h0.9c-0.1-0.2-0.3-0.6-0.5-0.8l0.4-0.1c0.2,0.3,0.4,0.6,0.5,0.8l-0.3,0.1h0.7v-1h0.4v1h0.7v-1h0.4v1h0.7l-0.2-0.1
							c0.2-0.2,0.3-0.6,0.4-0.9l0.4,0.1c-0.2,0.3-0.4,0.6-0.5,0.8h0.9v0.4h-1.5l0.4,0.1c-0.1,0.2-0.3,0.4-0.4,0.5h1.3v0.3h-2.1v0.4
							h1.8v0.3h-1.8v0.4H907.6z M904.2,313.5c0.1,0.2,0.3,0.4,0.3,0.6l-0.2,0.1h1.6l-0.2-0.1c0.1-0.2,0.3-0.4,0.3-0.6H904.2z
							 M905.9,316.3c0.5,0.2,1.3,0.5,1.7,0.6l-0.3,0.3c-0.4-0.2-1.1-0.5-1.7-0.7L905.9,316.3z"/>
					</g>
				</g>
			</g>
			<g>
				<path fill="#A7A9AC" d="M918.7,376.5L918.7,376.5c-2.8,0-5-2.3-5-5v0c0-2.8,2.3-5,5-5l0,0c2.8,0,5,2.3,5,5v0
					C923.8,374.3,921.5,376.5,918.7,376.5z"/>
				<g>
					<path fill="#A7A9AC" d="M927.2,368.7c-0.1,0.4-0.3,0.8-0.4,1.2v4h-0.4v-3.2c-0.1,0.2-0.3,0.4-0.4,0.6c0-0.1-0.1-0.3-0.2-0.4
						c0.4-0.5,0.8-1.4,1-2.2L927.2,368.7z M928.4,370.8c-0.1,0.8-0.2,1.5-0.4,2c0.5,0.6,1.3,0.7,2.1,0.7c0.2,0,0.8,0,1,0
						c-0.1,0.1-0.1,0.3-0.1,0.4H930c-0.9,0-1.7-0.1-2.2-0.7c-0.2,0.3-0.4,0.6-0.7,0.8c-0.1-0.1-0.2-0.2-0.3-0.3
						c0.3-0.2,0.5-0.5,0.7-0.8c-0.2-0.3-0.4-0.6-0.5-1.1l0.3-0.1c0.1,0.3,0.2,0.6,0.4,0.8c0.1-0.4,0.2-0.8,0.3-1.4h-0.9
						c0.2-0.4,0.5-1.1,0.7-1.6h-0.6V369h1.2c-0.2,0.5-0.5,1.2-0.7,1.7h0.5l0,0L928.4,370.8z M929.3,370.2h-1v-0.3h1v-0.4h-0.7v-0.3
						h0.7v-0.5h0.4v0.5h0.9v0.8h0.4v0.3h-0.4v0.8h-0.9v0.4h1v0.4h-1v0.4h1.2v0.4h-1.2v0.7h-0.4v-0.7h-1v-0.4h1v-0.4h-0.8v-0.4h0.8
						V371h-0.7v-0.3h0.7V370.2z M929.7,369.9h0.5v-0.4h-0.5V369.9z M930.3,370.2h-0.5v0.4h0.5V370.2z"/>
					<path fill="#A7A9AC" d="M934.7,372.4c0.1,0.1,0.3,0.1,0.4,0.2c0.3-0.2,0.7-0.5,1-0.7l0.3,0.2c-0.3,0.2-0.6,0.4-0.9,0.6
						c0.5,0.2,0.9,0.4,1.2,0.6l-0.2,0.3c-0.4-0.2-1.1-0.6-1.8-0.8v0.6c0,0.3-0.1,0.4-0.2,0.4c-0.2,0.1-0.5,0.1-1,0.1
						c0-0.1-0.1-0.3-0.1-0.4c0.4,0,0.7,0,0.8,0c0.1,0,0.1,0,0.1-0.1v-0.6c-0.6,0.3-1.2,0.5-1.7,0.7l-0.2-0.4
						c0.5-0.2,1.2-0.5,1.9-0.7v-0.6h-1.5v-0.3h1.5V371h-1.7v-0.3h1.7v-0.4h-1.5v-0.3h1.5v-0.4h-1.9v1.3c0,0.9-0.1,2.2-0.6,3.1
						c-0.1-0.1-0.3-0.2-0.3-0.2c0.4-0.8,0.5-2,0.5-2.8v-1.7h2.3c-0.1-0.1-0.2-0.3-0.3-0.4l0.4-0.1c0.1,0.2,0.3,0.4,0.3,0.6h2v0.4h-2
						v0.4h1.5v0.7h0.6v0.4h-0.6v0.8h-1.5V372.4z M932.9,371.8c0.3,0.2,0.7,0.4,0.8,0.6l-0.2,0.3c-0.2-0.2-0.5-0.4-0.8-0.6
						L932.9,371.8z M934.7,370.7h1.1v-0.4h-1.1V370.7z M934.7,371.5h1.1V371h-1.1V371.5z"/>
					<path fill="#A7A9AC" d="M939.3,369.9h-2v-0.4h2V369.9z M939.1,373.5h-1.2v0.3h-0.4v-1.9h1.6V373.5z M939.1,370.7h-1.6v-0.3h1.6
						V370.7z M937.5,371.1h1.6v0.3h-1.6V371.1z M937.9,372.2v0.9h0.9v-0.9H937.9z M938.3,369.5c-0.1-0.2-0.3-0.5-0.4-0.8l0.3-0.2
						c0.2,0.2,0.4,0.5,0.4,0.7L938.3,369.5z M939.7,370.7c-0.1,0.1-0.2,0.3-0.3,0.4c0-0.1-0.2-0.2-0.2-0.3c0.3-0.3,0.6-0.7,0.7-1.2
						l0.3,0.1v-0.3h-0.9V369h0.9v-0.4h0.4v1h-0.4c0,0.1-0.1,0.3-0.2,0.4h0.7c0-0.1-0.1-0.3-0.1-0.4l0.4-0.1c0.1,0.1,0.1,0.3,0.2,0.5
						h1.1v0.3h-1.1v0.3h1v0.3h-1v0.3h1v0.3h-1v0.3h1.2v0.3h-2.4v0.1h-0.4V370.7z M942.2,372.3c-0.2,0.4-0.5,0.7-0.9,0.9
						c0.4,0.1,0.8,0.3,1.3,0.3c-0.1,0.1-0.2,0.2-0.2,0.3c-0.5-0.1-1-0.2-1.4-0.4c-0.5,0.2-1,0.4-1.6,0.5c0-0.1-0.1-0.3-0.2-0.3
						c0.5-0.1,0.9-0.2,1.4-0.3c-0.3-0.2-0.5-0.4-0.7-0.6l0.2-0.1h-0.6v-0.3h2.5l0.1,0L942.2,372.3z M940.8,370.3h-0.8v0.3h0.8V370.3
						z M940.8,370.8h-0.8v0.3h0.8V370.8z M940.8,371.4h-0.8v0.3h0.8V371.4z M940.2,372.5c0.2,0.2,0.4,0.4,0.7,0.5
						c0.3-0.1,0.5-0.3,0.7-0.5H940.2z M941.6,369.6h-0.4v-1h0.4v0.4h0.9v0.3h-0.9V369.6z"/>
					<path fill="#A7A9AC" d="M944.9,372.7c-0.6,0.2-1.3,0.4-1.8,0.6l-0.1-0.4c0.2-0.1,0.5-0.1,0.8-0.2v-1.5h-0.7v-0.4h0.7v-1.2H943
						V369h1.8v0.4h-0.7v1.2h0.6v0.4h-0.6v1.4l0.6-0.2L944.9,372.7z M948.3,373.3v0.4h-3.7v-0.4h1.7v-0.8H945v-0.4h1.3v-0.7h-1.2
						v-2.6h2.9v2.6h-1.3v0.7h1.3v0.4h-1.3v0.8H948.3z M945.5,370h0.9v-0.7h-0.9V370z M945.5,371.1h0.9v-0.7h-0.9V371.1z
						 M947.6,369.2h-0.9v0.7h0.9V369.2z M947.6,370.3h-0.9v0.7h0.9V370.3z"/>
				</g>
			</g>
			<g>
				<path fill="#002A5E" d="M867.1,209.2L867.1,209.2c-28.4,0-51.4-23-51.4-51.4v0c0-28.4,23-51.4,51.4-51.4h0
					c28.4,0,51.4,23,51.4,51.4v0C918.5,186.2,895.5,209.2,867.1,209.2z"/>
				<g>
					<g>
						<g>
							<path fill="#FFFFFF" d="M860.7,163.6h-8.4v2.4c0,1.8-0.1,4.5-1.2,6.3c-0.2-0.1-0.5-0.3-0.7-0.4c1-1.7,1.1-4.2,1.1-5.9v-3.2
								h9.2V163.6z M855,169.7c-0.6,0.8-1.4,1.8-2,2.4c-0.2-0.1-0.5-0.4-0.7-0.5c0.7-0.6,1.4-1.4,1.9-2.2L855,169.7z M856.9,168.8
								v2.8c0,0.4-0.1,0.7-0.4,0.8c-0.3,0.1-0.9,0.1-1.8,0.1c0-0.2-0.2-0.5-0.3-0.8c0.7,0,1.2,0,1.4,0c0.2,0,0.2-0.1,0.2-0.2v-2.8
								h-2.8v-4.1h2.2c0.2-0.3,0.3-0.8,0.4-1l1,0.1c-0.2,0.3-0.3,0.6-0.5,0.9h3.3v4.1H856.9z M854.2,166.5h4.7v-1.1h-4.7V166.5z
								 M854.2,168.2h4.7v-1.1h-4.7V168.2z M858.6,169.4c0.7,0.7,1.6,1.7,2,2.3l-0.7,0.5c-0.4-0.6-1.3-1.6-2-2.4L858.6,169.4z"/>
							<path fill="#FFFFFF" d="M864.7,168.4v4.2h-0.8v-3.9c-0.7,0.2-1.3,0.4-1.9,0.6l-0.2-0.8c0.6-0.2,1.3-0.4,2.1-0.6v-2.5h-1
								c-0.1,0.6-0.3,1.2-0.5,1.7c-0.1-0.1-0.5-0.3-0.7-0.4c0.4-1,0.7-2.4,0.8-3.8l0.7,0.1c-0.1,0.5-0.1,1-0.2,1.5h0.9v-2.3h0.8v2.3
								h1.2v0.8h-1.2v2.3l1.3-0.4l0.1,0.8L864.7,168.4z M872.2,164.1c0,0,0,0.3,0,0.4c-0.3,5.2-0.5,6.9-1,7.5
								c-0.2,0.3-0.4,0.4-0.8,0.4c-0.3,0-0.8,0-1.3,0c0-0.3-0.1-0.6-0.2-0.8c0.5,0,1,0.1,1.2,0.1c0.2,0,0.3,0,0.4-0.2
								c0.4-0.4,0.6-2.1,0.8-6.6h-0.5c-0.6,3-1.8,6-3.7,7.5c-0.2-0.2-0.5-0.4-0.7-0.5c1.9-1.3,3.1-4.2,3.7-7h-0.9
								c-0.5,2-1.6,4.1-2.8,5.2c-0.2-0.2-0.4-0.4-0.7-0.5c1.2-0.9,2.2-2.9,2.8-4.7h-1c-0.4,0.8-0.8,1.6-1.3,2.2
								c-0.1-0.1-0.5-0.4-0.7-0.5c0.9-1,1.6-2.7,2-4.4l0.8,0.2c-0.1,0.6-0.3,1.2-0.5,1.8h3.7v0L872.2,164.1z"/>
							<path fill="#FFFFFF" d="M874.9,167.6c-0.2,1.3-0.7,2.9-1.3,3.7c-0.1-0.3-0.3-0.7-0.4-0.9c0.5-0.7,0.9-1.9,1.1-2.9
								L874.9,167.6z M876,166.7v5.8h-0.8v-5.8h-1.8v-0.8h1.8v-3.8h0.8v3.8h1.9v0.8H876z M874.1,165.5c-0.1-0.7-0.3-1.7-0.6-2.5
								l0.6-0.1c0.3,0.8,0.6,1.8,0.7,2.5L874.1,165.5z M876.5,167.4c0.2,0.3,1,1.9,1.2,2.3l-0.6,0.6c-0.2-0.6-0.8-2.1-1.1-2.6
								L876.5,167.4z M877.8,163c-0.3,0.9-0.6,1.9-0.9,2.6l-0.6-0.2c0.3-0.7,0.6-1.8,0.8-2.6L877.8,163z M882.3,169.3v3.2h-0.8v-3.1
								l-3.5,0.7l-0.1-0.8l3.7-0.7v-6.6h0.8v6.4l1.3-0.2l0.1,0.8L882.3,169.3z M880,167.8c-0.4-0.4-1.2-1-1.9-1.4l0.4-0.6
								c0.7,0.4,1.5,0.9,1.9,1.3L880,167.8z M880.5,165c-0.4-0.4-1.1-1-1.8-1.5l0.4-0.6c0.6,0.4,1.4,1,1.8,1.4L880.5,165z"/>
						</g>
					</g>
					<g>
						<g>
							<path fill="#FFFFFF" d="M852.1,156.4v-6l-1.5,1.2l-1-1.4l2.7-2h1.8v8.2H852.1z"/>
							<path fill="#FFFFFF" d="M859.9,156.6c-1.5,0-2.7-0.8-3.1-2.1l1.8-0.5c0.2,0.6,0.7,1,1.3,1c0.7,0,1.2-0.4,1.2-1.2
								c0-1-0.9-1.2-1.7-1.2c-0.6,0-1.4,0.2-2,0.4l0.2-4.7h5v1.7h-3.3l-0.1,1.3c0.2-0.1,0.6-0.1,0.8-0.1c1.6,0,3,0.9,3,2.6
								C863,155.7,861.5,156.6,859.9,156.6z"/>
							<path fill="#FFFFFF" d="M865.5,156.5c-0.6,0-1.2-0.5-1.2-1.1c0-0.6,0.5-1.1,1.2-1.1c0.6,0,1.2,0.5,1.2,1.1
								C866.7,156,866.2,156.5,865.5,156.5z"/>
							<path fill="#FFFFFF" d="M870.9,156.6c-1.5,0-2.8-0.6-3.3-2.2l1.8-0.5c0.2,0.5,0.6,1,1.4,1c0.6,0,1.2-0.3,1.2-1
								c0-0.8-0.9-1.1-1.7-1.1h-0.5v-1.4h0.6c0.7,0,1.4-0.2,1.4-1c0-0.6-0.5-0.9-1-0.9c-0.6,0-1,0.4-1.1,0.9l-1.8-0.4
								c0.4-1.4,1.7-2.1,3.1-2.1c1.4,0,2.9,0.7,2.9,2.3c0,0.9-0.6,1.6-1.4,1.8v0c0.9,0.2,1.6,1,1.6,1.9
								C874,155.8,872.4,156.6,870.9,156.6z"/>
							<path fill="#FFFFFF" d="M877.3,152.5c-1.2,0-2.2-1-2.2-2.2c0-1.2,1-2.2,2.2-2.2c1.2,0,2.2,1,2.2,2.2
								C879.5,151.5,878.5,152.5,877.3,152.5z M877.3,149.4c-0.5,0-0.9,0.4-0.9,0.9s0.4,0.9,0.9,0.9c0.5,0,0.9-0.4,0.9-0.9
								S877.8,149.4,877.3,149.4z M878.2,156.8l-1-0.5l4.8-8.4l1.1,0.5L878.2,156.8z M882.8,156.6c-1.2,0-2.2-1-2.2-2.2
								c0-1.2,1-2.2,2.2-2.2c1.2,0,2.2,1,2.2,2.2C885,155.6,884,156.6,882.8,156.6z M882.8,153.5c-0.5,0-0.9,0.4-0.9,0.9
								c0,0.5,0.4,0.9,0.9,0.9c0.5,0,0.9-0.4,0.9-0.9C883.7,153.9,883.3,153.5,882.8,153.5z"/>
						</g>
					</g>
				</g>
			</g>
			<g>
				<path fill="#002A5E" d="M948.7,152L948.7,152c-19.5,0-35.3-15.8-35.3-35.3v0c0-19.5,15.8-35.3,35.3-35.3h0
					c19.5,0,35.3,15.8,35.3,35.3v0C984.1,136.2,968.2,152,948.7,152z"/>
				<g>
					<g>
						<g>
							<path fill="#FFFFFF" d="M943.7,125.8c0,0.4-0.1,0.5-0.3,0.6c-0.2,0.1-0.6,0.1-1.2,0.1c0-0.2-0.1-0.4-0.2-0.6
								c0.4,0,0.8,0,0.9,0c0.1,0,0.2,0,0.2-0.2v-1.4c-0.6,0.4-1.2,0.7-1.8,1l-0.2-0.6c-0.1,0.6-0.3,1.3-0.7,1.7
								c-0.1-0.1-0.3-0.4-0.5-0.5c0.5-0.7,0.6-1.7,0.6-2.5v-2.3h3.2V125.8z M943.1,118.8c0.5,0.6,1,1.5,1.2,2.1l-0.6,0.3
								c-0.1-0.2-0.2-0.4-0.3-0.6c-2.5,0.2-2.8,0.2-3.1,0.3c0-0.1-0.1-0.5-0.2-0.6c0.1,0,0.3-0.2,0.5-0.4c0.2-0.2,0.8-0.9,1.2-1.7
								l0.7,0.2c-0.4,0.6-0.8,1.2-1.3,1.7l1.9-0.1c-0.2-0.3-0.4-0.6-0.6-0.9L943.1,118.8z M941.2,123.7c0,0.4,0,0.8-0.1,1.2
								c0.5-0.2,1.3-0.6,2-1V122h-1.9V123.7z M941.6,122.5c0.5,0.3,1.1,0.7,1.5,1l-0.4,0.4c-0.3-0.3-1-0.7-1.5-1L941.6,122.5z
								 M945.6,122.1c-0.8,0-1-0.3-1-1.1v-2.9h0.7v1.3h2.5v0.6h-2.5v1c0,0.3,0.1,0.4,0.4,0.4h1.7c0.2,0,0.6,0,0.8-0.1
								c0,0.2,0,0.4,0.1,0.6c-0.2,0-0.5,0.1-0.8,0.1H945.6z M947.3,125.9c0.4,0,0.5-0.2,0.5-1.2c0.2,0.1,0.4,0.2,0.6,0.3
								c-0.1,1.2-0.3,1.5-1.1,1.5h-1.6c-0.9,0-1.1-0.2-1.1-1v-3.1h0.7v1.1h2.6v0.6h-2.6v1.4c0,0.3,0.1,0.4,0.5,0.4H947.3z"/>
							<path fill="#FFFFFF" d="M950.7,122.2c-0.4-0.3-1-0.7-1.6-1l0.4-0.5c0.5,0.3,1.2,0.7,1.6,0.9L950.7,122.2z M951.3,123.5
								c-0.4,1-0.9,2.1-1.3,3l-0.6-0.4c0.4-0.7,1-1.9,1.4-3L951.3,123.5z M951.1,119.7c-0.4-0.3-1-0.7-1.5-1.1l0.4-0.5
								c0.5,0.3,1.2,0.7,1.5,1L951.1,119.7z M952.6,121.1c0,1.6-0.2,3.9-1.3,5.5c-0.1-0.1-0.4-0.3-0.6-0.4c1-1.5,1.1-3.6,1.1-5.1
								v-2.5h5.6v0.6h-5V121.1z M954,124.1c-0.3,0.7-0.8,1.4-1.2,1.9c-0.1-0.1-0.4-0.3-0.6-0.4c0.4-0.4,0.8-1.1,1.1-1.7L954,124.1z
								 M955.4,123.4v2.4c0,0.3-0.1,0.5-0.3,0.6c-0.3,0.1-0.6,0.1-1.3,0.1c0-0.2-0.1-0.4-0.2-0.6c0.4,0,0.9,0,1,0
								c0.1,0,0.2,0,0.2-0.1v-2.4h-1.7v-3.2h1.4c0.1-0.3,0.2-0.7,0.3-0.9l0.8,0.2c-0.1,0.3-0.3,0.5-0.4,0.8h2v3.2H955.4z
								 M953.7,121.6h2.8v-0.8h-2.8V121.6z M953.7,122.9h2.8v-0.8h-2.8V122.9z M956.6,123.9c0.4,0.6,0.8,1.3,1.1,1.8l-0.6,0.3
								c-0.2-0.5-0.7-1.2-1-1.8L956.6,123.9z"/>
						</g>
					</g>
					<g>
						<g>
							<path fill="#FFFFFF" d="M936.6,112.8V108l-1.2,1l-0.8-1.1l2.2-1.6h1.4v6.7H936.6z"/>
							<path fill="#FFFFFF" d="M943.1,113c-1.9,0-2.6-1.6-2.6-3.5c0-1.9,0.7-3.5,2.6-3.5c1.9,0,2.6,1.6,2.6,3.5
								C945.7,111.4,944.9,113,943.1,113z M943.1,107.3c-0.8,0-1,1.3-1,2.2c0,0.9,0.2,2.2,1,2.2c0.8,0,1-1.3,1-2.2
								C944,108.7,943.9,107.3,943.1,107.3z"/>
							<path fill="#FFFFFF" d="M947.5,112.9c-0.5,0-1-0.4-1-0.9c0-0.5,0.4-0.9,1-0.9c0.5,0,0.9,0.4,0.9,0.9S948,112.9,947.5,112.9z"
								/>
							<path fill="#FFFFFF" d="M951.8,113c-1.2,0-2.2-0.6-2.5-1.7l1.4-0.4c0.1,0.5,0.6,0.8,1.1,0.8c0.5,0,1-0.3,1-1
								c0-0.8-0.7-1-1.4-1c-0.5,0-1.2,0.1-1.6,0.3l0.2-3.8h4.1v1.4h-2.7l-0.1,1.1c0.2,0,0.5-0.1,0.7-0.1c1.3,0,2.4,0.7,2.4,2.1
								C954.4,112.3,953.1,113,951.8,113z"/>
							<path fill="#FFFFFF" d="M957,109.6c-1,0-1.8-0.8-1.8-1.8c0-1,0.8-1.8,1.8-1.8s1.8,0.8,1.8,1.8
								C958.8,108.8,958,109.6,957,109.6z M957,107.1c-0.4,0-0.7,0.3-0.7,0.7s0.3,0.7,0.7,0.7s0.7-0.3,0.7-0.7
								S957.4,107.1,957,107.1z M957.8,113.2l-0.8-0.4l3.9-6.9l0.9,0.4L957.8,113.2z M961.6,113c-1,0-1.8-0.8-1.8-1.8
								c0-1,0.8-1.8,1.8-1.8s1.8,0.8,1.8,1.8C963.3,112.2,962.5,113,961.6,113z M961.6,110.4c-0.4,0-0.7,0.3-0.7,0.7
								c0,0.4,0.3,0.7,0.7,0.7c0.4,0,0.7-0.3,0.7-0.7C962.3,110.8,961.9,110.4,961.6,110.4z"/>
						</g>
					</g>
				</g>
			</g>
			<g>
				<path fill="#002A5E" d="M1023.7,166.2L1023.7,166.2c-15.6,0-28.2-12.6-28.2-28.2v0c0-15.6,12.6-28.2,28.2-28.2h0
					c15.6,0,28.2,12.6,28.2,28.2v0C1051.9,153.6,1039.3,166.2,1023.7,166.2z"/>
				<g>
					<g>
						<g>
							<path fill="#FFFFFF" d="M1023.2,147.8v0.7h-8v-0.7h3.6v-5.1h-3.1V142h7.1v0.7h-3.2v5.1H1023.2z"/>
							<path fill="#FFFFFF" d="M1027.4,147.7c-0.6,0.5-1.8,0.9-2.7,1.2c-0.1-0.2-0.3-0.4-0.4-0.5c0.9-0.2,2.1-0.5,2.6-0.9
								L1027.4,147.7z M1032.1,146.5v0.6h-3.6v2.1h-0.7V147h-3.5v-0.6h3.5v-0.7h-2.7v-0.5h2.7v-0.6h-3.1v-0.5h1.9
								c-0.1-0.3-0.3-0.6-0.5-0.9l0.5-0.1h-2.3v-0.6h1.4c-0.1-0.4-0.4-0.9-0.7-1.3l0.6-0.2c0.3,0.4,0.6,1,0.8,1.3l-0.4,0.2h1.1V141
								h0.6v1.6h1.1V141h0.6v1.6h1.1l-0.4-0.1c0.3-0.4,0.5-1,0.7-1.4l0.7,0.2c-0.3,0.5-0.5,0.9-0.8,1.3h1.4v0.6h-2.3l0.6,0.2
								c-0.2,0.3-0.4,0.6-0.6,0.8h2v0.5h-3.2v0.6h2.8v0.5h-2.8v0.7H1032.1z M1026.8,143.1c0.2,0.3,0.4,0.6,0.5,0.9l-0.4,0.1h2.5
								l-0.3-0.1c0.2-0.3,0.4-0.6,0.5-0.9H1026.8z M1029.5,147.4c0.8,0.3,2,0.7,2.6,1l-0.4,0.4c-0.6-0.3-1.7-0.7-2.6-1.1
								L1029.5,147.4z"/>
						</g>
					</g>
					<g>
						<g>
							<path fill="#FFFFFF" d="M1015.3,137.3c-1.3,0-2.4-0.6-2.4-2c0-0.8,0.5-1.3,1.2-1.5v0c-0.6-0.2-1-0.7-1-1.4
								c0-1.2,1.1-1.8,2.2-1.8c1.2,0,2.2,0.6,2.2,1.8c0,0.7-0.4,1.2-1,1.4v0c0.6,0.2,1.2,0.8,1.2,1.5
								C1017.7,136.6,1016.5,137.3,1015.3,137.3z M1015.3,134.4c-0.5,0-0.9,0.4-0.9,0.9c0,0.5,0.4,0.9,0.9,0.9s0.9-0.3,0.9-0.9
								C1016.2,134.7,1015.8,134.4,1015.3,134.4z M1015.3,131.7c-0.5,0-0.8,0.3-0.8,0.7c0,0.4,0.3,0.8,0.8,0.8
								c0.4,0,0.8-0.4,0.8-0.8C1016.1,132,1015.7,131.7,1015.3,131.7z"/>
							<path fill="#FFFFFF" d="M1019.6,137.2c-0.5,0-0.9-0.4-0.9-0.9c0-0.5,0.4-0.9,0.9-0.9c0.5,0,0.9,0.4,0.9,0.9
								C1020.5,136.8,1020.1,137.2,1019.6,137.2z"/>
							<path fill="#FFFFFF" d="M1025.6,135.9v1.3h-1.4v-1.3h-3v-1.3l2.6-3.9h1.8v3.9h0.9v1.2H1025.6z M1024.2,132.2L1024.2,132.2
								l-1.5,2.4h1.5V132.2z"/>
							<path fill="#FFFFFF" d="M1028.8,134c-1,0-1.7-0.8-1.7-1.7c0-1,0.8-1.7,1.7-1.7c1,0,1.7,0.8,1.7,1.7
								C1030.5,133.2,1029.7,134,1028.8,134z M1028.8,131.6c-0.4,0-0.7,0.3-0.7,0.7s0.3,0.7,0.7,0.7c0.4,0,0.7-0.3,0.7-0.7
								S1029.2,131.6,1028.8,131.6z M1029.5,137.4l-0.8-0.4l3.7-6.6l0.8,0.4L1029.5,137.4z M1033.1,137.2c-1,0-1.7-0.8-1.7-1.7
								c0-1,0.8-1.7,1.7-1.7c1,0,1.7,0.8,1.7,1.7C1034.8,136.5,1034.1,137.2,1033.1,137.2z M1033.1,134.8c-0.4,0-0.7,0.3-0.7,0.7
								s0.3,0.7,0.7,0.7c0.4,0,0.7-0.3,0.7-0.7S1033.5,134.8,1033.1,134.8z"/>
						</g>
					</g>
				</g>
			</g>
		</g>
		<g>
			<polygon fill="#007A6D" points="688.9,421.5 609.5,421.5 595.8,410.2 609.5,395.8 688.9,395.8 			"/>
			<g>
				<path fill="#FFFFFF" d="M629.3,413.9h-8.2v-1.4l5.2-5.3c0.8-0.8,1.5-1.7,1.5-2.9c0-1.5-1.2-2.4-2.5-2.4s-2.4,1-2.6,2.3l-1.3-0.3
					c0.4-1.8,1.9-3.1,3.9-3.1c2.1,0,3.8,1.2,3.8,3.5c0,1.6-1,2.7-2.1,3.9l-4.6,4.6h6.8V413.9z"/>
				<path fill="#FFFFFF" d="M640.1,407.5c0,3.3-1,6.7-4.2,6.7c-3.2,0-4.2-3.4-4.2-6.7c0-3.3,1-6.7,4.2-6.7
					C639.1,400.8,640.1,404.2,640.1,407.5z M633,407.5c0,2.5,0.6,5.6,2.9,5.6c2.2,0,2.9-3,2.9-5.6c0-2.5-0.6-5.6-2.9-5.6
					C633.6,401.9,633,405,633,407.5z"/>
				<path fill="#FFFFFF" d="M647.6,413.9h-1.3v-11.1l-2.3,2l-0.8-0.9l3.2-2.7h1.2V413.9z"/>
				<path fill="#FFFFFF" d="M660.5,402.3l-5.1,11.6h-1.5l5.3-11.6H653v-1.2h7.6V402.3z"/>
			</g>
		</g>
		<g>
			<polygon fill="#58595B" points="744.1,383.6 685.7,383.6 685.7,357.8 744.1,357.8 755,371.3 			"/>
			<g>
				<path fill="#FFFFFF" d="M708.9,376.9h-8.2v-1.4l5.2-5.3c0.8-0.8,1.5-1.7,1.5-2.9c0-1.5-1.2-2.4-2.5-2.4s-2.4,1-2.6,2.3l-1.3-0.3
					c0.4-1.8,1.9-3.1,3.9-3.1c2.1,0,3.8,1.2,3.8,3.5c0,1.6-1,2.7-2.1,3.9l-4.6,4.6h6.8V376.9z"/>
				<path fill="#FFFFFF" d="M719.6,370.5c0,3.3-1,6.7-4.2,6.7c-3.2,0-4.2-3.4-4.2-6.7c0-3.3,1-6.7,4.2-6.7
					C718.6,363.8,719.6,367.2,719.6,370.5z M712.6,370.5c0,2.5,0.6,5.6,2.9,5.6c2.2,0,2.9-3,2.9-5.6c0-2.5-0.6-5.6-2.9-5.6
					C713.2,364.9,712.6,368,712.6,370.5z"/>
				<path fill="#FFFFFF" d="M730.1,370.5c0,3.3-1,6.7-4.2,6.7c-3.2,0-4.2-3.4-4.2-6.7c0-3.3,1-6.7,4.2-6.7
					C729.1,363.8,730.1,367.2,730.1,370.5z M723,370.5c0,2.5,0.6,5.6,2.9,5.6c2.2,0,2.9-3,2.9-5.6c0-2.5-0.6-5.6-2.9-5.6
					C723.6,364.9,723,368,723,370.5z"/>
				<path fill="#FFFFFF" d="M740.1,365.3l-5.1,11.6h-1.5l5.3-11.6h-6.2v-1.2h7.6V365.3z"/>
			</g>
		</g>
		
			<line fill="none" stroke="#007A6D" stroke-width="6" stroke-linecap="round" stroke-linejoin="round" stroke-miterlimit="10" x1="686.7" y1="52.5" x2="686.7" y2="528.6"/>
		<g>
			<circle fill="#0074B7" cx="742.4" cy="531.5" r="27.6"/>
			<g>
				<defs>
					<circle id="SVGID_1_" cx="742.4" cy="531.5" r="27.6"/>
				</defs>
				<clipPath id="SVGID_2_">
					<use xlink:href="#SVGID_1_"  overflow="visible"/>
				</clipPath>
				<g clip-path="url(#SVGID_2_)">
					<polyline fill="none" stroke="#FFFFFF" stroke-width="3" stroke-miterlimit="10" points="721.3,551.3 721.6,545.4 745.5,539.4 
						745.5,550.5 770,544.4 					"/>
					<path fill="none" stroke="#FFFFFF" stroke-width="3" stroke-miterlimit="10" d="M726,543.8l1.5-20.2c2-1,4.3-0.9,6.7,0l0,18.6"
						/>
					<path fill="none" stroke="#FFFFFF" stroke-width="3" stroke-miterlimit="10" d="M751.1,547.9l1.5-20.2c2-1,4.3-0.9,6.7,0
						l0,18.6"/>
					<line fill="none" stroke="#FFFFFF" stroke-width="3" stroke-miterlimit="10" x1="736.7" y1="546.5" x2="736.7" y2="551.1"/>
					<line fill="none" stroke="#FFFFFF" stroke-width="3" stroke-miterlimit="10" x1="730.2" y1="546.5" x2="730.2" y2="551.1"/>
					<path fill="none" stroke="#FFFFFF" stroke-width="3" stroke-miterlimit="10" d="M728.8,519.1c0-2.9,7.3-7.3,8.2-7
						c0.9,0.3,2.6-5.3,8.5-4.4"/>
					<path fill="none" stroke="#FFFFFF" stroke-width="3" stroke-miterlimit="10" d="M754.8,523.3c0-2.9,7.3-7.3,8.2-7"/>
					<path fill="none" stroke="#FFFFFF" stroke-width="3" stroke-miterlimit="10" d="M736.4,521.2"/>
				</g>
			</g>
		</g>
		<g>
			<circle fill="#0074B7" cx="754.4" cy="477.7" r="27.6"/>
			<g>
				
					<polygon fill="none" stroke="#FFFFFF" stroke-width="3" stroke-linecap="square" stroke-linejoin="bevel" stroke-miterlimit="10" points="
					739.3,467.7 755.3,474.3 769.4,467.1 755,460.7 				"/>
				
					<path fill="none" stroke="#FFFFFF" stroke-width="3" stroke-linecap="round" stroke-linejoin="bevel" stroke-miterlimit="10" d="
					M739.3,467.7v18.8l16.5,8.3l-0.6-20.5l14.1-7.2v18.1c0,0-12.5,9.4-13.5,9.6"/>
			</g>
		</g>
		<g>
			<circle fill="#0074B7" cx="794.9" cy="514.7" r="27.6"/>
			<polygon fill="#FFFFFF" points="800.8,494 782.8,515.6 795.3,515.6 784.5,535.4 807.1,511.3 794.8,511.3 			"/>
		</g>
		<g>
			<circle fill="#73B564" cx="525.9" cy="583.1" r="48.9"/>
			<g>
				<path fill="#FFFFFF" d="M535.2,569c-2.5-2.5-4.6-3.9-8.3-3.9c-4.2,0-6.9,2.6-6.9,6.6c0,10,19.2,7.2,19.2,22
					c0,6.5-4.1,11-10.6,11.9v6.9h-4.1v-6.8c-4.4-0.4-8.8-2.6-11.7-5.3l2.6-3.8c2.9,2.5,6.4,4.5,10.6,4.5c5.1,0,7.7-2.8,7.7-7.1
					c0-11.2-19.2-8.7-19.2-22.1c0-6.1,4.1-10.5,10-11.4v-6.9h4.1v6.8c4.4,0.5,7.2,2.6,9.7,5.2L535.2,569z"/>
			</g>
		</g>
		<g>
			<circle fill="#73B564" cx="620.5" cy="551.4" r="48.9"/>
			<g>
				
					<polyline fill="none" stroke="#FFFFFF" stroke-width="3" stroke-linecap="round" stroke-linejoin="round" stroke-miterlimit="10" points="
					613.2,588.5 613.2,552.5 601.5,533.3 				"/>
				
					<line fill="none" stroke="#FFFFFF" stroke-width="3" stroke-linecap="round" stroke-linejoin="round" stroke-miterlimit="10" x1="622.9" y1="588.5" x2="622.9" y2="525.7"/>
				
					<polyline fill="none" stroke="#FFFFFF" stroke-width="3" stroke-linecap="round" stroke-linejoin="round" stroke-miterlimit="10" points="
					633.4,587.7 633.4,569.2 640.6,555.5 				"/>
				
					<circle fill="none" stroke="#FFFFFF" stroke-width="3" stroke-linecap="round" stroke-linejoin="round" stroke-miterlimit="10" cx="598.3" cy="527.9" r="6.2"/>
				
					<circle fill="none" stroke="#FFFFFF" stroke-width="3" stroke-linecap="round" stroke-linejoin="round" stroke-miterlimit="10" cx="622.9" cy="519.9" r="5.7"/>
				
					<circle fill="none" stroke="#FFFFFF" stroke-width="3" stroke-linecap="round" stroke-linejoin="round" stroke-miterlimit="10" cx="643.1" cy="550.7" r="5.7"/>
			</g>
		</g>
		<g>
			<circle fill="#73B564" cx="546.9" cy="487.5" r="48.9"/>
			<g>
				
					<polygon fill="none" stroke="#FFFFFF" stroke-width="3" stroke-linecap="round" stroke-linejoin="round" stroke-miterlimit="10" points="
					516.4,467.7 536,459 560.5,459 577.4,468.4 575.7,483.2 548.1,516 517.7,482.2 				"/>
				
					<polyline fill="none" stroke="#FFFFFF" stroke-width="3" stroke-linecap="round" stroke-linejoin="round" stroke-miterlimit="10" points="
					516.4,467.7 537.4,471.8 560.5,471.5 577.4,468.4 				"/>
				
					<polyline fill="none" stroke="#FFFFFF" stroke-width="3" stroke-linecap="round" stroke-linejoin="round" stroke-miterlimit="10" points="
					517.7,482.2 540.5,483.9 558.1,483.9 575.7,483.2 				"/>
				
					<polyline fill="none" stroke="#FFFFFF" stroke-width="3" stroke-linecap="round" stroke-linejoin="round" stroke-miterlimit="10" points="
					560.5,459 560.5,471.5 558.1,483.9 548.1,516 537.4,471.8 536,459 				"/>
			</g>
		</g>
		
			<line fill="none" stroke="#007A6D" stroke-width="10" stroke-linecap="round" stroke-linejoin="round" stroke-miterlimit="10" x1="532.5" y1="637.8" x2="840.9" y2="533.9"/>
		<polygon fill="#007A6D" points="686,584.6 654.2,642.5 715.3,642.5 		"/>
		<g>
			<rect x="796.6" y="601.9" fill="none" width="334.4" height="36.2"/>
			<path fill="#939598" d="M800.7,605.8h-3.4V605h3.4V605.8z M801.6,611.9c-1,0.6-2.5,1.1-3.7,1.5c-0.2-0.2-0.5-0.5-0.7-0.7
				c1.2-0.3,2.7-0.7,3.5-1.2L801.6,611.9z M800.4,603.9h-2.9v-0.7h2.9V603.9z M798.8,606.7h7.8v4.8h-7.8V606.7z M799.7,608.1h6v-0.8
				h-6V608.1z M799.7,609.5h6v-0.8h-6V609.5z M799.7,610.9h6v-0.8h-6V610.9z M802.6,604c-0.3,0.5-0.6,0.9-0.9,1.2
				c-0.1-0.1-0.5-0.4-0.7-0.5c0.6-0.6,1.1-1.4,1.4-2.3l0.8,0.2c-0.1,0.2-0.2,0.4-0.3,0.7h4l0.1,0l0.6,0.2c-0.3,0.6-0.7,1.3-1,1.7
				l-0.7-0.3c0.2-0.3,0.4-0.6,0.6-0.9h-1.9v0.2c0,0.1,0,0.3,0,0.4c0.6,0.7,1.9,1.2,3.5,1.3c-0.2,0.2-0.4,0.5-0.5,0.7
				c-1.4-0.2-2.5-0.7-3.3-1.4c-0.4,0.6-1.3,1.1-3.5,1.5c-0.1-0.2-0.3-0.5-0.5-0.7c3.1-0.4,3.4-1.2,3.4-1.9V604H802.6z M804.4,611.6
				c1.3,0.4,2.7,0.9,3.5,1.3l-0.8,0.5c-0.8-0.4-2.1-0.9-3.4-1.3L804.4,611.6z"/>
			<path fill="#939598" d="M811.2,608.2c-0.3,1.3-0.8,3-1.4,3.9c-0.1-0.3-0.3-0.7-0.5-1c0.5-0.7,1-2,1.2-3.1L811.2,608.2z
				 M812.3,607.3v6.1h-0.8v-6.1h-1.9v-0.8h1.9v-4h0.8v4h2v0.8H812.3z M810.3,606c-0.1-0.7-0.3-1.8-0.7-2.7l0.6-0.2
				c0.3,0.8,0.6,1.9,0.7,2.6L810.3,606z M812.8,608c0.2,0.3,1.1,2,1.3,2.4l-0.6,0.7c-0.2-0.6-0.9-2.2-1.1-2.7L812.8,608z
				 M814.3,603.4c-0.3,0.9-0.7,2-1,2.7l-0.6-0.2c0.3-0.7,0.6-1.9,0.8-2.7L814.3,603.4z M818.9,610v3.4h-0.8v-3.2l-3.7,0.7l-0.1-0.8
				l3.9-0.7v-6.9h0.8v6.7l1.4-0.3l0.1,0.8L818.9,610z M816.5,608.4c-0.4-0.4-1.3-1-2-1.4l0.4-0.6c0.7,0.4,1.6,0.9,2,1.3L816.5,608.4
				z M817,605.5c-0.4-0.5-1.2-1.1-1.9-1.5l0.5-0.6c0.7,0.4,1.5,1,1.9,1.5L817,605.5z"/>
			<path fill="#939598" d="M827.7,607.8c1.1,1.8,3.1,3.5,5.1,4.3c-0.2,0.2-0.5,0.6-0.7,0.8c-1.7-0.7-3.3-2.1-4.5-3.6v4.1h-0.9v-4.1
				c-1.2,1.5-2.8,2.8-4.4,3.6c-0.1-0.2-0.4-0.6-0.6-0.7c1.9-0.8,3.9-2.4,5-4.2V605h-4.6v-0.9h4.6v-1.7h0.9v1.7h4.8v0.9h-4.8V607.8z
				 M825.1,605.4c-0.1,0.5-0.3,1-0.5,1.4c0.5,0.4,1.1,1,1.4,1.3l-0.6,0.6c-0.2-0.3-0.7-0.7-1.1-1.2c-0.4,0.8-0.9,1.4-1.5,1.9
				c-0.2-0.2-0.5-0.4-0.7-0.6c1.1-0.8,1.8-2.1,2.2-3.6L825.1,605.4z M830.7,605.4c-0.1,0.5-0.2,1-0.4,1.4c0.8,0.6,1.7,1.4,2.2,1.8
				l-0.6,0.6c-0.4-0.5-1.2-1.1-1.9-1.7c-0.3,0.6-0.6,1-1.1,1.4c-0.2-0.1-0.5-0.4-0.7-0.5c0.9-0.7,1.4-1.9,1.7-3.2L830.7,605.4z"/>
			<path fill="#939598" d="M836,607.7c-0.5-0.3-1.3-0.9-2-1.3l0.5-0.6c0.6,0.4,1.6,0.9,2,1.2L836,607.7z M836.8,609.4
				c-0.5,1.3-1.2,2.7-1.7,3.8l-0.8-0.5c0.5-0.9,1.3-2.5,1.8-3.8L836.8,609.4z M836.6,604.6c-0.5-0.4-1.3-0.9-2-1.4l0.5-0.6
				c0.6,0.4,1.5,0.9,2,1.3L836.6,604.6z M838.5,606.3c0,2.1-0.2,5-1.6,7.1c-0.1-0.2-0.5-0.4-0.7-0.5c1.4-1.9,1.5-4.6,1.5-6.6V603
				h7.3v0.8h-6.4V606.3z M840.4,610.2c-0.4,0.9-1,1.8-1.5,2.5c-0.2-0.1-0.5-0.3-0.7-0.5c0.6-0.6,1.1-1.4,1.4-2.2L840.4,610.2z
				 M842.2,609.4v3.1c0,0.4-0.1,0.7-0.4,0.8c-0.3,0.1-0.8,0.1-1.6,0.1c0-0.2-0.1-0.5-0.3-0.8c0.6,0,1.1,0,1.2,0c0.2,0,0.2,0,0.2-0.2
				v-3.1h-2.1v-4.1h1.8c0.1-0.4,0.3-0.9,0.3-1.2l1,0.2c-0.2,0.3-0.3,0.7-0.5,1h2.6v4.1H842.2z M840,607h3.6v-1H840V607z M840,608.7
				h3.6v-1.1H840V608.7z M843.7,609.9c0.5,0.7,1.1,1.7,1.4,2.3l-0.8,0.4c-0.3-0.6-0.9-1.6-1.3-2.4L843.7,609.9z"/>
			<path fill="#939598" d="M846.7,607c0-0.5,0.4-0.9,0.8-0.9s0.8,0.3,0.8,0.9c0,0.5-0.4,0.8-0.8,0.8S846.7,607.5,846.7,607z
				 M846.7,611.8c0-0.5,0.4-0.9,0.8-0.9s0.8,0.4,0.8,0.9c0,0.5-0.4,0.8-0.8,0.8S846.7,612.3,846.7,611.8z"/>
			<path fill="#939598" d="M853.7,603.7h5.1v0.9h-4v3h3.4v0.9h-3.4v3.9h-1.1V603.7z"/>
			<path fill="#939598" d="M859.6,610.8c0-1.4,1.2-2.1,4-2.4c0-0.8-0.3-1.6-1.3-1.6c-0.8,0-1.4,0.3-2,0.7l-0.4-0.8
				c0.6-0.4,1.5-0.9,2.6-0.9c1.6,0,2.3,1.1,2.3,2.7v4h-0.9l-0.1-0.8h0c-0.6,0.5-1.4,0.9-2.2,0.9C860.4,612.7,859.6,612,859.6,610.8z
				 M863.6,610.9v-1.8c-2.2,0.3-2.9,0.8-2.9,1.6c0,0.7,0.5,1,1.2,1C862.5,611.8,863,611.5,863.6,610.9z"/>
			<path fill="#939598" d="M866.6,609.2c0-2.2,1.5-3.4,3.1-3.4c0.9,0,1.4,0.4,1.9,0.8l-0.6,0.7c-0.4-0.3-0.8-0.6-1.3-0.6
				c-1.2,0-2,1-2,2.5s0.8,2.5,2,2.5c0.6,0,1.1-0.3,1.5-0.6l0.5,0.7c-0.6,0.5-1.3,0.8-2.1,0.8C867.9,612.7,866.6,611.4,866.6,609.2z"
				/>
			<path fill="#939598" d="M873.6,610.5v-3.6h-1V606l1-0.1l0.1-1.8h0.9v1.8h1.8v0.9h-1.8v3.6c0,0.8,0.3,1.3,1,1.3
				c0.2,0,0.5-0.1,0.7-0.2l0.2,0.8c-0.4,0.1-0.8,0.2-1.2,0.2C874,612.7,873.6,611.8,873.6,610.5z"/>
			<path fill="#939598" d="M877.3,611.8l0.5-0.7c0.6,0.5,1.2,0.8,1.9,0.8c0.9,0,1.3-0.5,1.3-1c0-0.7-0.8-1-1.5-1.2
				c-0.9-0.3-1.9-0.8-1.9-1.9c0-1,0.8-1.8,2.2-1.8c0.8,0,1.5,0.3,2,0.7l-0.5,0.7c-0.5-0.3-0.9-0.6-1.5-0.6c-0.8,0-1.2,0.4-1.2,0.9
				c0,0.6,0.7,0.9,1.4,1.1c0.9,0.4,2,0.7,2,2c0,1.1-0.8,1.9-2.4,1.9C878.8,612.7,878,612.3,877.3,611.8z"/>
			<path fill="#939598" d="M883.5,609.2c0-2.1,1.4-3.4,2.9-3.4c1.7,0,2.6,1.2,2.6,3.1c0,0.2,0,0.5,0,0.6h-4.4
				c0.1,1.4,0.9,2.3,2.2,2.3c0.6,0,1.2-0.2,1.6-0.5l0.4,0.7c-0.6,0.4-1.3,0.7-2.2,0.7C884.9,612.7,883.5,611.4,883.5,609.2z
				 M888.1,608.7c0-1.3-0.6-2-1.6-2c-0.9,0-1.7,0.7-1.9,2H888.1z"/>
			<path fill="#939598" d="M891,610.5v-3.6h-1V606l1-0.1l0.1-1.8h0.9v1.8h1.8v0.9h-1.8v3.6c0,0.8,0.3,1.3,1,1.3
				c0.2,0,0.5-0.1,0.7-0.2l0.2,0.8c-0.4,0.1-0.8,0.2-1.2,0.2C891.5,612.7,891,611.8,891,610.5z"/>
			<path fill="#939598" d="M897.6,606.1c1,0,1.8,0.8,1.8,1.8c0,1-0.8,1.8-1.8,1.8c-1,0-1.8-0.8-1.8-1.8
				C895.7,606.9,896.6,606.1,897.6,606.1z M897.6,609.2c0.7,0,1.2-0.5,1.2-1.2c0-0.7-0.5-1.2-1.2-1.2c-0.7,0-1.2,0.5-1.2,1.2
				C896.3,608.6,896.9,609.2,897.6,609.2z"/>
			<path fill="#939598" d="M904.9,605.8h-3.4V605h3.4V605.8z M905.8,611.9c-1,0.6-2.5,1.1-3.7,1.5c-0.2-0.2-0.5-0.5-0.7-0.7
				c1.2-0.3,2.7-0.7,3.5-1.2L905.8,611.9z M904.6,603.9h-2.9v-0.7h2.9V603.9z M903,606.7h7.8v4.8H903V606.7z M903.9,608.1h6v-0.8h-6
				V608.1z M903.9,609.5h6v-0.8h-6V609.5z M903.9,610.9h6v-0.8h-6V610.9z M906.8,604c-0.3,0.5-0.6,0.9-0.9,1.2
				c-0.1-0.1-0.5-0.4-0.7-0.5c0.6-0.6,1.1-1.4,1.4-2.3l0.8,0.2c-0.1,0.2-0.2,0.4-0.3,0.7h4l0.1,0l0.6,0.2c-0.3,0.6-0.7,1.3-1,1.7
				l-0.7-0.3c0.2-0.3,0.4-0.6,0.6-0.9h-1.9v0.2c0,0.1,0,0.3,0,0.4c0.6,0.7,1.9,1.2,3.5,1.3c-0.2,0.2-0.4,0.5-0.5,0.7
				c-1.4-0.2-2.5-0.7-3.3-1.4c-0.4,0.6-1.3,1.1-3.5,1.5c-0.1-0.2-0.3-0.5-0.5-0.7c3.1-0.4,3.4-1.2,3.4-1.9V604H906.8z M908.6,611.6
				c1.3,0.4,2.7,0.9,3.5,1.3l-0.8,0.5c-0.8-0.4-2.1-0.9-3.4-1.3L908.6,611.6z"/>
			<path fill="#939598" d="M915.4,608.2c-0.3,1.3-0.8,3-1.4,3.9c-0.1-0.3-0.3-0.7-0.5-1c0.5-0.7,1-2,1.2-3.1L915.4,608.2z
				 M916.5,607.3v6.1h-0.8v-6.1h-1.9v-0.8h1.9v-4h0.8v4h2v0.8H916.5z M914.5,606c-0.1-0.7-0.3-1.8-0.7-2.7l0.6-0.2
				c0.3,0.8,0.6,1.9,0.7,2.6L914.5,606z M917,608c0.2,0.3,1.1,2,1.3,2.4l-0.6,0.7c-0.2-0.6-0.9-2.2-1.1-2.7L917,608z M918.4,603.4
				c-0.3,0.9-0.7,2-1,2.7l-0.6-0.2c0.3-0.7,0.6-1.9,0.8-2.7L918.4,603.4z M923.1,610v3.4h-0.8v-3.2l-3.7,0.7l-0.1-0.8l3.9-0.7v-6.9
				h0.8v6.7l1.4-0.3l0.1,0.8L923.1,610z M920.7,608.4c-0.4-0.4-1.3-1-2-1.4l0.4-0.6c0.7,0.4,1.6,0.9,2,1.3L920.7,608.4z
				 M921.2,605.5c-0.4-0.5-1.2-1.1-1.9-1.5l0.5-0.6c0.7,0.4,1.5,1,1.9,1.5L921.2,605.5z"/>
			<path fill="#939598" d="M929.8,611.1h-2.6v1h-0.8v-8.8h3.4V611.1z M927.2,604.1v2.7h1.7v-2.7H927.2z M928.9,610.3v-2.8h-1.7v2.8
				H928.9z M933.9,604.7v1.5h2.6v0.8h-1v1.3h1.4v0.8h-1.4v3.2c0,0.5-0.1,0.8-0.5,0.9c-0.4,0.1-1,0.2-1.9,0.2c0-0.3-0.2-0.6-0.3-0.8
				c0.7,0,1.4,0,1.6,0c0.2,0,0.3-0.1,0.3-0.2v-3.2H930v-0.8h4.5V607h-4v-0.8h2.5v-1.5h-3v-0.8h3v-1.4h0.9v1.4h3v0.8H933.9z
				 M931.5,609.6c0.6,0.6,1.2,1.5,1.5,2l-0.8,0.5c-0.3-0.6-0.9-1.5-1.5-2.1L931.5,609.6z"/>
			<path fill="#939598" d="M939.7,607.1v6.4h-0.9V603h4.3v4.1H939.7z M939.7,603.7v1h2.6v-1H939.7z M942.3,606.4v-1.1h-2.6v1.1
				H942.3z M942.3,612.3v0.6h-0.8V608h4.4v4.3H942.3z M942.3,608.6v1.1h2.8v-1.1H942.3z M945.1,611.6v-1.2h-2.8v1.2H945.1z
				 M948.7,612.2c0,0.6-0.1,0.9-0.5,1c-0.4,0.1-1,0.2-2,0.2c0-0.3-0.2-0.7-0.3-0.9c0.7,0,1.5,0,1.7,0c0.2,0,0.3-0.1,0.3-0.3v-5.1
				h-3.5V603h4.4V612.2z M945.1,603.7v1h2.7v-1H945.1z M947.8,606.4v-1.1h-2.7v1.1H947.8z"/>
			<path fill="#939598" d="M961.1,609.3c-0.2,2.5-0.4,3.4-0.8,3.8c-0.2,0.2-0.4,0.3-0.8,0.3c-0.3,0-0.9,0-1.5,0
				c0-0.2-0.1-0.6-0.2-0.8c0.6,0.1,1.1,0.1,1.3,0.1c0.2,0,0.3,0,0.4-0.1c0.3-0.2,0.4-1,0.6-2.9h-7.2c-0.6,0.5-1.3,1-2.1,1.4
				c-0.1-0.2-0.3-0.6-0.5-0.7c2.2-1.2,3.9-3,5-5h-4.3v-0.8h2.4c-0.2-0.5-0.6-1.2-0.9-1.7l0.8-0.3c0.4,0.5,0.8,1.3,1,1.8l-0.7,0.3
				h2.1c0.3-0.7,0.6-1.4,0.9-2.1l0.9,0.3c-0.2,0.6-0.5,1.2-0.8,1.8h2.5c-0.1,0.7-0.3,1.5-0.4,2.2h1.4c-0.1,0.7-0.3,1.5-0.4,2.2h1.2
				L961.1,609.3z M951,612.8c0.7-0.6,1.2-1.5,1.4-2.5l0.8,0.2c-0.3,1-0.6,2.1-1.5,2.7L951,612.8z M955.2,607.5
				c-0.4,0.5-0.8,1-1.2,1.4h5.2c0.1-0.4,0.2-0.9,0.3-1.4H955.2z M954.7,610.6c0.2,0.7,0.3,1.6,0.3,2.2l-0.8,0.1
				c0-0.6-0.1-1.5-0.3-2.2L954.7,610.6z M956.5,605.4c-0.3,0.5-0.5,0.9-0.8,1.4h2.4c0.1-0.4,0.2-0.9,0.3-1.4H956.5z M956.5,610.4
				c0.3,0.6,0.6,1.4,0.7,1.9l-0.7,0.2c-0.1-0.5-0.3-1.3-0.6-2L956.5,610.4z M958.4,612c-0.2-0.5-0.5-1.1-0.9-1.6l0.6-0.2
				c0.4,0.5,0.8,1.2,0.9,1.6L958.4,612z"/>
			<path fill="#939598" d="M962.8,611.9c2.8-2.4,4-4.2,4-5.7c0-1-0.5-1.7-1.6-1.7c-0.7,0-1.3,0.4-1.8,1l-0.6-0.6
				c0.7-0.8,1.5-1.3,2.6-1.3c1.6,0,2.6,1,2.6,2.6c0,1.8-1.4,3.5-3.4,5.5c0.5,0,1-0.1,1.4-0.1h2.4v0.9h-5.5V611.9z"/>
			<path fill="#939598" d="M969.9,608.1c0-3.1,1.1-4.5,2.7-4.5c1.7,0,2.7,1.5,2.7,4.5c0,3.1-1.1,4.6-2.7,4.6
				C970.9,612.7,969.9,611.1,969.9,608.1z M974.3,608.1c0-2.6-0.7-3.6-1.7-3.6c-1,0-1.7,1.1-1.7,3.6c0,2.6,0.7,3.7,1.7,3.7
				C973.6,611.8,974.3,610.7,974.3,608.1z"/>
			<path fill="#939598" d="M977.3,611.6h2V605h-1.6v-0.7c0.8-0.1,1.3-0.3,1.8-0.6h0.8v7.9h1.8v0.9h-4.8V611.6z"/>
			<path fill="#939598" d="M988,604.6h-4.3v-0.9h5.5v0.7c-2.1,2.7-2.4,4.7-2.6,8.1h-1.1C985.7,609.2,986.3,607,988,604.6z"/>
			<path fill="#939598" d="M1001.6,610.7h-4.3v2.7h-0.9v-2.7h-5.5v-0.9h2v-3.2h3.6v-1.8h-2.9c-0.5,0.9-1.2,1.7-1.8,2.4
				c-0.2-0.1-0.5-0.4-0.8-0.6c1.1-1,2.1-2.5,2.7-4.1l0.9,0.2c-0.2,0.4-0.4,0.9-0.6,1.3h7.1v0.9h-3.8v1.8h3.5v0.8h-3.5v2.4h4.3V610.7
				z M996.3,609.8v-2.4h-2.7v2.4H996.3z"/>
			<path fill="#939598" d="M1003.8,611.1c0.4,0.4,0.9,0.7,1.5,0.7c1.1,0,2.1-0.9,2.2-3.7c-0.5,0.7-1.3,1.1-2,1.1
				c-1.5,0-2.4-0.9-2.4-2.8c0-1.7,1.2-2.9,2.5-2.9c1.7,0,3,1.4,3,4.2c0,3.6-1.5,4.9-3.2,4.9c-0.9,0-1.6-0.4-2.1-0.9L1003.8,611.1z
				 M1007.4,607.2c-0.1-1.8-0.8-2.8-1.9-2.8c-0.8,0-1.5,0.8-1.5,2c0,1.2,0.5,2,1.6,2C1006.2,608.3,1006.8,608,1007.4,607.2z"/>
			<path fill="#939598" d="M1019.2,612.1c0,0.6-0.2,0.9-0.6,1.1c-0.5,0.2-1.2,0.2-2.5,0.2c-0.1-0.3-0.2-0.7-0.4-0.9c1,0,2,0,2.2,0
				c0.3,0,0.4-0.1,0.4-0.4v-2.4h-5.8c-0.3,1.4-0.9,2.7-2.1,3.7c-0.1-0.2-0.5-0.5-0.7-0.6c1.9-1.7,2.1-4.1,2.1-6v-3.7h7.3V612.1z
				 M1018.3,608.8v-2h-5.5c0,0.6,0,1.3-0.1,2H1018.3z M1012.8,604v2h5.5v-2H1012.8z"/>
			<path fill="#939598" d="M1024.8,606.1c1,0,1.8,0.8,1.8,1.8c0,1-0.8,1.8-1.8,1.8c-1,0-1.8-0.8-1.8-1.8
				C1022.9,606.9,1023.8,606.1,1024.8,606.1z M1024.8,609.2c0.7,0,1.2-0.5,1.2-1.2c0-0.7-0.5-1.2-1.2-1.2c-0.7,0-1.2,0.5-1.2,1.2
				C1023.5,608.6,1024.1,609.2,1024.8,609.2z"/>
			<path fill="#939598" d="M1033,602.4h3.8v0.8h-2.9v6.9h-0.9V602.4z"/>
			<path fill="#939598" d="M1042.4,611.6c-1.1,0.7-2.7,1.3-4,1.8c-0.1-0.2-0.4-0.5-0.6-0.7c1.3-0.4,2.9-1.1,3.8-1.6L1042.4,611.6z
				 M1048.6,610.9H1038V610h2.2v-5.3h-1.9v-0.8h1.9v-1.4h0.9v1.4h4.4v-1.4h0.9v1.4h1.9v0.8h-1.9v5.3h2.2V610.9z M1041.1,604.7v1.2
				h4.4v-1.2H1041.1z M1041.1,608h4.4v-1.3h-4.4V608z M1041.1,610h4.4v-1.3h-4.4V610z M1044.8,611.1c1.4,0.5,2.9,1.2,3.9,1.7
				l-0.8,0.6c-0.9-0.5-2.3-1.2-3.7-1.7L1044.8,611.1z"/>
			<path fill="#939598" d="M1060.5,604.1v2.5h-0.9v-1.6h-8v1.6h-0.9v-2.5h4.7c-0.1-0.4-0.4-1-0.7-1.5l0.9-0.2
				c0.3,0.5,0.7,1.2,0.8,1.7l-0.2,0H1060.5z M1058.2,612.2c0.9,0,1.1-0.3,1.2-1.9c0.2,0.2,0.6,0.3,0.9,0.4c-0.2,1.9-0.5,2.4-2.1,2.4
				h-3.7c-1.7,0-2.2-0.3-2.2-1.6v-5.4h0.9v2.7c1.9-0.5,3.9-1.2,5-1.9l0.7,0.7c-1.5,0.8-3.8,1.4-5.8,2v1.9c0,0.6,0.2,0.7,1.3,0.7
				H1058.2z"/>
			<path fill="#939598" d="M1065.9,613.5h-3.8v-0.8h2.9v-6.9h0.9V613.5z"/>
			<path fill="#939598" d="M1079.1,608.9c-0.7,0.6-1.6,1.2-2.3,1.7c0.8,0.8,1.8,1.4,3,1.7c-0.2,0.2-0.5,0.5-0.6,0.8
				c-2.5-0.8-4.1-2.6-5-5.1c-0.5,0.6-1.2,1.1-1.9,1.6v2.7l2.9-0.9c0,0.2,0.1,0.6,0.1,0.8c-3.3,1.1-3.8,1.2-4,1.4
				c-0.1-0.2-0.2-0.6-0.4-0.8c0.2-0.1,0.5-0.3,0.5-0.8V610c-0.7,0.4-1.4,0.7-2.1,1c-0.1-0.2-0.4-0.5-0.6-0.7
				c1.5-0.5,3.2-1.4,4.3-2.4h-4v-0.8h4.7V606h-3.6v-0.7h3.6v-1h-4.2v-0.8h4.2v-1.1h0.9v1.1h4.4v0.8h-4.4v1h3.8v0.7h-3.8v1.1h4.7v0.8
				h-4.4c0.3,0.8,0.7,1.5,1.3,2.1c0.7-0.5,1.6-1.2,2.1-1.7L1079.1,608.9z"/>
			<path fill="#939598" d="M1084.2,608.6c-0.6,1.5-1.5,2.9-2.4,3.8c-0.2-0.2-0.6-0.4-0.8-0.5c0.9-0.9,1.8-2.2,2.3-3.5L1084.2,608.6z
				 M1086.9,607v6.3h-0.9V607h-4.7v-0.9h10.5v0.9H1086.9z M1090.7,604.2h-8.4v-0.9h8.4V604.2z M1089.7,608.3
				c0.9,1.1,1.8,2.6,2.2,3.6l-0.9,0.4c-0.3-1-1.2-2.5-2.1-3.7L1089.7,608.3z"/>
			<path fill="#939598" d="M1097.6,603.1c-0.9,2-2.2,3.9-3.5,5.1c-0.2-0.2-0.6-0.6-0.8-0.7c1.3-1.1,2.6-2.9,3.3-4.7L1097.6,603.1z
				 M1101,608.8c1,1.3,2.1,3,2.7,4l-0.9,0.5c-0.2-0.3-0.4-0.7-0.6-1.2c-6.2,0.4-6.9,0.5-7.3,0.6c0-0.2-0.2-0.7-0.3-0.9
				c0.3-0.1,0.7-0.5,1.1-1c0.5-0.6,2-2.7,3-4.7l1,0.4c-1,1.9-2.3,3.7-3.5,5.1l5.5-0.3c-0.5-0.7-1-1.5-1.5-2.2L1101,608.8z
				 M1101.2,602.8c0.6,1.9,1.8,3.7,3.2,4.6c-0.2,0.2-0.5,0.6-0.7,0.8c-1.4-1-2.5-2.7-3.2-4.5h-2.2v-0.9H1101.2z"/>
			<path fill="#939598" d="M1115.7,612.1c0,0.6-0.1,0.9-0.5,1.1c-0.4,0.2-1.2,0.2-2.2,0.2c0-0.3-0.2-0.7-0.3-1c0.8,0,1.7,0,1.9,0
				c0.2,0,0.3-0.1,0.3-0.3v-8h-8.6v-0.9h9.5V612.1z M1113.5,606.1h-7.2v-0.8h7.2V606.1z M1107.9,611.2v0.9h-0.9v-4.7h5.6v3.8H1107.9
				z M1107.9,608.2v2.2h3.8v-2.2H1107.9z"/>
			<path fill="#939598" d="M1126.2,612.2c1.3,0,1.5-0.4,1.7-2.3c0.2,0.2,0.6,0.3,0.9,0.4c-0.2,2.2-0.6,2.8-2.6,2.8h-4.5
				c-1.9,0-2.5-0.3-2.5-1.8v-6h0.9v2h6.3v-3.1h-7.8v-0.9h8.7v5.5h-0.9v-0.6h-6.3v3.2c0,0.8,0.3,0.9,1.6,0.9H1126.2z"/>
			<path fill="#939598" d="M800.7,623.7c0-0.2-0.1-0.4-0.1-0.6c-2.5,0.4-2.9,0.5-3.1,0.6c0-0.2-0.2-0.6-0.3-0.8
				c0.3-0.1,0.5-0.4,0.9-0.8c0.2-0.2,0.6-0.7,1-1.4c-1.2,0.1-1.5,0.2-1.7,0.3c0-0.2-0.2-0.6-0.3-0.8c0.2,0,0.4-0.3,0.7-0.7
				c0.3-0.3,1.1-1.7,1.6-3l0.8,0.3c-0.5,1.1-1.2,2.3-1.8,3.2l1.2-0.1c0.3-0.5,0.6-1.1,0.9-1.6l0.8,0.5c-0.8,1.4-1.7,2.8-2.7,3.9
				l1.9-0.3c-0.1-0.4-0.3-0.8-0.4-1.2l0.7-0.2c0.3,0.8,0.7,1.8,0.8,2.5L800.7,623.7z M798.4,624.3c-0.1,1-0.3,2.2-0.6,2.9
				c-0.2-0.1-0.5-0.2-0.7-0.3c0.3-0.7,0.5-1.8,0.6-2.8L798.4,624.3z M799.6,624.1c0.2,0.8,0.3,1.8,0.3,2.5l-0.7,0.1
				c0-0.7-0.2-1.7-0.3-2.5L799.6,624.1z M800.7,623.8c0.2,0.6,0.5,1.5,0.6,2l-0.7,0.2c-0.1-0.6-0.4-1.4-0.6-2L800.7,623.8z
				 M808,626.3v0.8h-6.8v-0.8h3V624h-2.4v-0.8h5.7v0.8h-2.4v2.3H808z M802.9,622.8c-0.3-0.6-0.8-1.5-1.4-2.4c0.5-0.7,1-1.6,1.3-2.2
				l0.8,0.2c-0.3,0.6-0.8,1.4-1.2,2c0.5,0.7,1.1,1.5,1.3,2.1L802.9,622.8z M807.9,617.9h-6.3v-0.8h6.3V617.9z M805.6,618.5
				c-0.3,0.6-0.8,1.4-1.2,2c0.5,0.7,1.1,1.5,1.4,2l-0.7,0.3c-0.3-0.6-0.9-1.5-1.5-2.4c0.5-0.7,1-1.6,1.3-2.2L805.6,618.5z
				 M807.1,622.8c-0.3-0.6-0.9-1.6-1.6-2.4c0.5-0.7,1.1-1.6,1.3-2.2l0.8,0.2c-0.3,0.6-0.8,1.4-1.2,2c0.6,0.7,1.2,1.5,1.4,2
				L807.1,622.8z"/>
			<path fill="#939598" d="M816.3,618.2c-0.3,0.4-0.6,0.9-0.9,1.3v7.9h-0.9v-6.7c-1.2,1.4-2.7,2.6-4.3,3.5c-0.1-0.2-0.4-0.6-0.6-0.8
				c2.4-1.2,4.4-3.2,5.6-5.2h-5.3v-0.9h10.2v0.9H816.3z M816.3,620.2c1.4,0.9,3.2,2.2,4.1,3.2l-0.7,0.7c-0.9-0.9-2.6-2.3-4-3.3
				L816.3,620.2z"/>
			<path fill="#939598" d="M826,618.9c-0.4,1-0.9,1.9-1.5,2.7v5.8h-0.9v-4.8c-0.4,0.5-0.9,0.9-1.4,1.2c-0.1-0.2-0.3-0.6-0.5-0.8
				c1.5-1,2.6-2.5,3.3-4.2h-3V618h3.3c0.2-0.5,0.4-1,0.5-1.6l0.9,0.2c-0.1,0.5-0.3,0.9-0.5,1.3h6.1v0.9H826z M832.7,624.1h-3.2v2.2
				c0,0.5-0.1,0.8-0.5,0.9c-0.4,0.1-1.1,0.1-2.1,0.1c0-0.3-0.2-0.6-0.3-0.9c0.8,0,1.5,0,1.7,0c0.2,0,0.3-0.1,0.3-0.2v-2.2h-3.3v-0.8
				h3.3v-1c0.6-0.3,1.2-0.8,1.8-1.3h-4.1v-0.8h4.9l0.2-0.1l0.6,0.5c-0.6,0.7-1.6,1.4-2.4,2v0.7h3.2V624.1z"/>
			<path fill="#939598" d="M844.8,618.3v0.9h-6.5c-0.4,0.9-0.9,1.7-1.5,2.4v5.8h-0.9v-4.7c-0.4,0.5-0.9,0.9-1.4,1.2
				c-0.1-0.2-0.3-0.6-0.5-0.8c1.4-1,2.4-2.4,3.2-3.9h-2.9v-0.9h3.3c0.3-0.6,0.5-1.2,0.6-1.9l0.9,0.2c-0.2,0.5-0.4,1.1-0.6,1.6H844.8
				z M841.6,626.3h3.2v0.8h-7.2v-0.8h3.2v-3.4H838v-0.8h2.7v-2.3h0.9v2.3h2.7v0.8h-2.7V626.3z"/>
			<path fill="#939598" d="M847.6,623.6c0.9-0.4,1.5-0.9,1.5-1.8c-0.1,0-0.1,0-0.2,0c-0.5,0-0.9-0.3-0.9-0.9s0.4-0.9,0.9-0.9
				c0.7,0,1,0.5,1,1.4c0,1.3-0.8,2.3-2.1,2.7L847.6,623.6z"/>
			<path fill="#939598" d="M858.3,625.5c-1.8,0.4-3.8,0.8-5.2,1.1l-0.2-0.9c1.3-0.3,3.3-0.7,5.3-1.1L858.3,625.5z M862.8,620.3
				c-0.5,1.6-1.2,3-2.1,4.2c0.4,1.2,1,2,1.6,2c0.3,0,0.5-0.6,0.6-2.2c0.2,0.2,0.5,0.4,0.8,0.5c-0.2,2.1-0.5,2.6-1.4,2.6
				c-0.9,0-1.6-0.8-2.2-2.1c-0.7,0.8-1.6,1.5-2.5,2.1c-0.1-0.2-0.5-0.5-0.7-0.7c1.1-0.6,2.1-1.4,2.9-2.4c-0.4-1.4-0.7-3.2-0.8-5.1
				H853v-0.9h5.8c0-0.6,0-1.2-0.1-1.9h0.9c0,0.6,0,1.3,0,1.9h3.6v0.9h-3.5c0.1,1.6,0.3,3,0.6,4.2c0.6-1,1.2-2.1,1.5-3.3L862.8,620.3
				z M857.8,620.3v3.6h-4.1v-3.6H857.8z M856.9,621.1h-2.4v2.1h2.4V621.1z M862.4,618.4c-0.4-0.4-1.3-1-2-1.3l0.5-0.6
				c0.7,0.3,1.6,0.8,2.1,1.2L862.4,618.4z"/>
			<path fill="#939598" d="M871,626.3c0.4,0,0.9,0.1,1.4,0.1c0.4,0,2.9,0,3.5,0c-0.1,0.2-0.3,0.6-0.3,0.9h-3.3c-2.4,0-3.9-0.4-4.9-2
				c-0.5,0.9-1.1,1.7-1.9,2.3c-0.1-0.2-0.5-0.5-0.7-0.6c1.2-0.8,2-2.1,2.3-3.9l0.9,0.1c-0.1,0.4-0.2,0.8-0.3,1.2
				c0.5,1.1,1.2,1.6,2.3,1.9v-3.6h-4.9v-0.8h10.5v0.8H871v1.3h4v0.8h-4V626.3z M874.4,620.9h-8v-4h8V620.9z M873.5,617.6h-6.2v1h6.2
				V617.6z M873.5,619.3h-6.2v1h6.2V619.3z"/>
			<path fill="#939598" d="M885.5,626.2c1.3,0,1.5-0.4,1.7-2.3c0.2,0.2,0.6,0.3,0.9,0.4c-0.2,2.2-0.6,2.8-2.6,2.8H881
				c-1.9,0-2.5-0.3-2.5-1.8v-6h0.9v2h6.3v-3.1h-7.8v-0.9h8.7v5.5h-0.9v-0.6h-6.3v3.2c0,0.8,0.3,0.9,1.6,0.9H885.5z"/>
			<path fill="#939598" d="M893.1,619.2c-0.3,0.5-0.6,1.1-1,1.6v6.7h-0.8v-5.7c-0.4,0.5-0.9,0.9-1.4,1.3c-0.1-0.2-0.4-0.6-0.5-0.8
				c1.1-0.8,2.2-2.1,2.9-3.3L893.1,619.2z M892.8,616.8c-0.7,1-1.8,2.1-2.8,2.8c-0.1-0.2-0.3-0.5-0.5-0.6c0.9-0.6,2-1.7,2.5-2.5
				L892.8,616.8z M897.3,626.4c0.3,0.1,0.7,0.1,1.1,0.1h2.2c-0.1,0.2-0.3,0.6-0.3,0.8h-2c-1.8,0-3-0.4-3.8-2.2
				c-0.3,0.9-0.8,1.7-1.4,2.3c-0.1-0.1-0.5-0.4-0.7-0.6c1.2-1,1.6-2.6,1.8-4.8l0.9,0.1c0,0.6-0.1,1.2-0.2,1.8c0.4,1.3,0.9,2,1.7,2.3
				v-5h0.2c-0.2-0.2-0.4-0.4-0.6-0.5c1.2-0.9,1.9-2.3,2.1-4.2l0.9,0.1c-0.1,0.7-0.3,1.4-0.5,2c0.8,0.7,1.7,1.5,2.1,2.1l-0.6,0.6
				c-0.4-0.5-1.1-1.3-1.8-1.9c-0.4,0.7-0.8,1.4-1.4,1.8h0.5v2h2.7v0.8h-2.7V626.4z M896.2,620.3c-0.3-0.3-0.7-0.8-1.2-1.2
				c-0.4,0.9-0.9,1.7-1.5,2.2c-0.1-0.2-0.5-0.5-0.7-0.6c1.1-1,1.8-2.5,2.2-4.3l0.9,0.1c-0.1,0.6-0.3,1.3-0.5,1.8
				c0.5,0.4,1,0.9,1.3,1.2L896.2,620.3z"/>
			<path fill="#939598" d="M906,622.4l-1.5,0.5v3.4c0,0.5-0.1,0.7-0.4,0.9c-0.3,0.1-0.8,0.2-1.6,0.2c0-0.2-0.2-0.6-0.3-0.8
				c0.5,0,1,0,1.2,0c0.2,0,0.2,0,0.2-0.2v-3.2c-0.6,0.2-1.1,0.3-1.6,0.5l-0.3-0.9c0.5-0.1,1.2-0.3,1.9-0.5v-2.5h-1.7v-0.9h1.7v-2.4
				h0.9v2.4h1.4v0.9h-1.4v2.3c0.5-0.1,0.9-0.3,1.4-0.4L906,622.4z M908.2,621.2c-1.2,0-1.5-0.4-1.5-1.4v-3.3h0.9v1.4h4.8v0.8h-4.8
				v1.1c0,0.4,0.1,0.6,0.7,0.6h3.1c0.4,0,1,0,1.3-0.1c0,0.2,0.1,0.6,0.1,0.8c-0.2,0.1-0.8,0.1-1.4,0.1H908.2z M906.6,622.2h5.6v5.2
				h-0.9v-0.5h-3.9v0.6h-0.9V622.2z M907.5,622.9v1.2h3.9v-1.2H907.5z M911.4,626.1v-1.3h-3.9v1.3H911.4z"/>
			<path fill="#939598" d="M919.5,624.3c-0.1,0.5-0.4,1.1-1,1.6c0.5,0.2,1,0.5,1.4,0.7l-0.6,0.5c-0.4-0.2-0.9-0.5-1.5-0.8
				c-0.8,0.4-1.8,0.8-3.4,1c-0.1-0.2-0.2-0.4-0.4-0.6c1.3-0.2,2.2-0.5,2.9-0.8c-0.6-0.3-1.2-0.5-1.8-0.7c0.2-0.2,0.4-0.5,0.6-0.8
				l-1.4,0.1l-0.1-0.7c0.5,0,1.2,0,1.9-0.1c0.2-0.3,0.4-0.6,0.5-0.9h-2v-2h2.3v-0.5h-1.9v-1.3h-0.8v-0.7h0.8v-1.2h1.9v-0.8h0.7v0.8
				h2v1.2h0.8v0.7h-0.8v1.3h-2v0.5h2.3v2h-2.5c-0.1,0.3-0.3,0.6-0.5,0.9c0.6,0,1.2-0.1,1.8-0.1v-0.1v-0.4h0.7v0.5v0.1l0.6,0l0,0.6
				L919.5,624.3z M915.5,622.3h1.5v-0.7h-1.5V622.3z M915.8,617.9v0.6h1.2v-0.6H915.8z M917,619.9v-0.7h-1.2v0.7H917z M916.6,624.5
				c-0.1,0.2-0.3,0.4-0.4,0.5c0.5,0.2,1,0.3,1.5,0.6c0.6-0.4,0.9-0.8,1-1.2L916.6,624.5z M917.7,617.9v0.6h1.2v-0.6H917.7z
				 M919,619.9v-0.7h-1.2v0.7H919z M917.7,621.6v0.7h1.5v-0.7H917.7z M924.2,619.6c-0.2,1.8-0.5,3.3-1.1,4.6c0.5,1.1,1.2,2,2,2.5
				c-0.2,0.2-0.4,0.4-0.5,0.6c-0.8-0.5-1.4-1.3-1.9-2.3c-0.5,1-1.2,1.8-2.2,2.5c-0.1-0.2-0.3-0.5-0.5-0.7c1-0.7,1.7-1.6,2.3-2.7
				c-0.4-0.9-0.7-2-0.9-3.2c-0.2,0.5-0.4,0.9-0.6,1.3c-0.1-0.1-0.4-0.4-0.6-0.5c0.8-1.3,1.3-3.2,1.5-5.2l0.8,0.1
				c-0.1,0.7-0.2,1.4-0.4,2.1h2.9v0.8H924.2z M921.9,619.6c0.2,1.3,0.4,2.5,0.8,3.5c0.3-1,0.6-2.2,0.7-3.5H921.9z"/>
			<path fill="#939598" d="M936.7,618.6v5.6h-0.9v-0.7h-3.4v3.9h-0.9v-3.9H928v0.7h-0.9v-5.7h4.3v-2.1h0.9v2.1H936.7z M931.4,622.6
				v-3.2H928v3.2H931.4z M935.8,622.6v-3.2h-3.4v3.2H935.8z"/>
			<path fill="#939598" d="M942.4,623.5c-0.2-0.4-0.6-1-0.9-1.6v5.5h-0.8v-5.3c-0.4,1.2-1,2.4-1.5,3.2c-0.1-0.2-0.3-0.6-0.5-0.8
				c0.7-0.9,1.4-2.4,1.8-3.8h-1.6v-0.8h1.8v-1.9c-0.5,0.1-1,0.2-1.4,0.3c0-0.2-0.1-0.5-0.3-0.7c1.2-0.2,2.6-0.6,3.4-0.9l0.6,0.7
				c-0.4,0.2-0.9,0.3-1.4,0.5v2.1h1.5v0.8h-1.5v0.3c0.3,0.3,1.2,1.5,1.5,1.8L942.4,623.5z M949.7,622.1c-1,3.1-3.7,4.7-6.6,5.3
				c-0.1-0.2-0.3-0.5-0.5-0.7c1.3-0.3,2.6-0.7,3.7-1.5c-0.4-0.4-1-1-1.6-1.4c-0.4,0.3-0.7,0.5-1.2,0.7c-0.1-0.2-0.4-0.5-0.6-0.6
				c1.8-0.8,3-2.1,3.6-3.1l0.9,0.2c-0.2,0.3-0.4,0.6-0.6,0.9h2.1l0.2,0L949.7,622.1z M949,617.9c-1,2.2-3.3,3.5-5.7,4.1
				c-0.1-0.2-0.3-0.5-0.5-0.7c0.9-0.2,1.9-0.5,2.7-1c-0.3-0.3-0.8-0.8-1.3-1.1c-0.3,0.2-0.5,0.3-0.8,0.5c-0.1-0.2-0.4-0.5-0.6-0.6
				c1.5-0.7,2.5-1.8,3.1-2.6l0.9,0.2c-0.2,0.3-0.5,0.7-0.7,1h2.3l0.2,0L949,617.9z M945.3,618.4c-0.1,0.1-0.3,0.3-0.5,0.4
				c0.5,0.3,1,0.8,1.4,1.1c0.6-0.4,1.2-0.9,1.5-1.5H945.3z M946.2,622.6c-0.3,0.3-0.6,0.5-0.9,0.8c0.6,0.4,1.2,0.9,1.6,1.3
				c0.7-0.6,1.2-1.3,1.6-2.1H946.2z"/>
			<path fill="#939598" d="M954.9,617.3c-0.4,1-0.9,2.2-1.3,3.1c0.9,1,1.2,1.8,1.2,2.6c0,0.7-0.1,1.2-0.5,1.4
				c-0.2,0.1-0.4,0.2-0.6,0.2c-0.3,0-0.6,0-0.9,0c0-0.2-0.1-0.6-0.2-0.8c0.3,0,0.5,0,0.7,0c0.2,0,0.3,0,0.4-0.1
				c0.2-0.1,0.3-0.4,0.3-0.8c0-0.6-0.2-1.5-1.2-2.4c0.4-0.9,0.7-1.9,1-2.7h-1.5v9.6h-0.8V617h2.7l0.1,0L954.9,617.3z M957,624.1
				c-0.5,0.9-1.1,2-1.8,2.6c-0.1-0.1-0.5-0.4-0.7-0.5c0.6-0.6,1.2-1.5,1.6-2.4L957,624.1z M959.2,616.7c-0.1,0.2-0.2,0.3-0.3,0.5
				c1,1.3,2.1,2.1,3.3,2.7c-0.2,0.2-0.5,0.5-0.6,0.7c-1.1-0.7-2.1-1.5-3.1-2.7c-0.9,1.1-2,2.2-3.2,2.8c-0.1-0.2-0.4-0.5-0.6-0.6
				c1.5-0.8,3-2.1,3.8-3.6L959.2,616.7z M959,623.2v3.2c0,0.5-0.1,0.7-0.5,0.9c-0.3,0.1-0.9,0.2-1.8,0.2c0-0.2-0.2-0.6-0.3-0.8
				c0.7,0,1.2,0,1.4,0c0.2,0,0.2-0.1,0.2-0.2v-3.2H955v-0.8h3.1v-1.5h-2v-0.8h4.7v0.8H959v1.5h2.9v0.8H959z M960.3,623.7
				c0.7,0.8,1.4,1.8,1.8,2.4l-0.7,0.4c-0.3-0.7-1.1-1.7-1.7-2.5L960.3,623.7z"/>
			<path fill="#939598" d="M965.9,620.1c1,0,1.8,0.8,1.8,1.8c0,1-0.8,1.8-1.8,1.8c-1,0-1.8-0.8-1.8-1.8
				C964,620.9,964.9,620.1,965.9,620.1z M965.9,623.2c0.7,0,1.2-0.5,1.2-1.2c0-0.7-0.5-1.2-1.2-1.2c-0.7,0-1.2,0.5-1.2,1.2
				C964.7,622.6,965.2,623.2,965.9,623.2z"/>
		</g>
	</g>
</g>
<g>
</g>
<g>
</g>
<g>
</g>
<g>
</g>
<g>
</g>
<g>
</g>
<g>
</g>
<g>
</g>
<g>
</g>
<g>
</g>
<g>
</g>
<g>
</g>
<g>
</g>
<g>
</g>
<g>
</g>
</svg>
