<?xml version="1.0" encoding="utf-8"?>
<!-- Generator: Adobe Illustrator 18.0.0, SVG Export Plug-In . SVG Version: 6.00 Build 0)  -->
<!DOCTYPE svg PUBLIC "-//W3C//DTD SVG 1.1//EN" "http://www.w3.org/Graphics/SVG/1.1/DTD/svg11.dtd">
<svg version="1.1" id="Layer_1" xmlns="http://www.w3.org/2000/svg" xmlns:xlink="http://www.w3.org/1999/xlink" x="0px" y="0px"
	 viewBox="0 0 139.3 199.7" enable-background="new 0 0 139.3 199.7" xml:space="preserve">
<g>
	<g>
		<circle fill="#007A6D" cx="29.1" cy="29.1" r="29.1"/>
		<g>
			<path fill="#FFFFFF" d="M37.5,16.3C36.3,15.7,34.6,15,32,15c-6.1,0-10.6,4.1-11.1,10.4c1.7-2.6,4.8-3.9,8.3-3.9
				c6.5,0,11.1,4.3,11.1,11c0,6.8-5.5,11.3-12.4,11.3c-8.3,0-13-6.8-13-15.1c0-11.8,7.4-19,17.5-19c3,0,5.5,0.7,6.9,1.6L37.5,16.3z
				 M27.8,38.8c3.4,0,6.3-2.3,6.3-6.1c0-3.8-2.9-6.1-6.3-6.1s-6.3,2.3-6.3,6.1C21.5,36.4,24.5,38.8,27.8,38.8z"/>
		</g>
	</g>
	<g>
		<g>
			<g>
				<defs>
					<circle id="SVGID_1_" cx="52.2" cy="171.2" r="25.9"/>
				</defs>
				<clipPath id="SVGID_2_">
					<use xlink:href="#SVGID_1_"  overflow="visible"/>
				</clipPath>
				<circle clip-path="url(#SVGID_2_)" fill="#FFFFFF" cx="52.3" cy="171.9" r="27.8"/>
				<g id="_x38_raAOr_7_" clip-path="url(#SVGID_2_)">
					<g>
						<path fill="#2368B5" d="M123.1,145.3c0,1.3,0,2.5,0,3.8c-19.4,0-38.8,0-58.2,0c0,1.3,0,2.5,0,3.8c0,0.1,0.3,0.3,0.4,0.3
							c1.6,0,3.2,0,4.7,0c8.8,0,17.6,0,26.5,0c7.9,0,15.8,0,23.7,0c0.9,0,1.8,0,2.8,0c0,1.3,0,2.6,0,3.9c-19.4,0-38.7,0-58.1,0
							c0,0.2,0,0.4,0,0.5c0,1,0,1.9,0,2.9c0,0.5,0.1,0.6,0.6,0.6c2.2,0,4.4,0,6.6,0c16.7,0,33.5,0,50.2,0c0.2,0,0.5,0,0.7,0
							c0,1.2,0,2.4,0,3.7c-19.4,0-38.7,0-58.1,0c0,1.4,0,2.7,0,4.1c19.4,0,38.7,0,58.1,0c0,1.3,0,2.6,0,3.9c-32.3,0-64.5,0-96.9,0
							c0-9.2,0-18.3,0-27.5C58.5,145.3,90.8,145.3,123.1,145.3z M60.4,147.5c0.8,0.4,0.7,1,0.5,1.7c0.6-0.7,1.2-0.6,1.8,0
							c-0.4-0.7-0.1-1.2,0.5-1.7c-0.8,0.1-1.2-0.1-1.4-0.9C61.6,147.3,61.2,147.7,60.4,147.5z M39.2,149.3c-0.2,0.4-0.3,0.7-0.5,0.9
							c-0.2,0.1-0.5,0.1-1,0.1c0.8,0.5,0.8,1,0.5,1.7c0.6-0.7,1.2-0.6,1.9,0c-0.4-0.7-0.1-1.2,0.4-1.7
							C39.8,150.3,39.2,150.3,39.2,149.3z M32.5,149.3c-0.1,0.8-0.5,1.1-1.3,1c0.7,0.5,0.7,1,0.3,1.7c0.4-0.3,0.7-0.6,1-0.6
							c0.3,0,0.6,0.3,0.9,0.5c-0.4-0.7,0-1.2,0.6-1.6C33,150.2,33,150.2,32.5,149.3z M35,154.7c0.6-0.7,1.2-0.7,1.9,0
							c-0.5-0.8-0.1-1.2,0.5-1.7c-0.8,0.1-1.2-0.1-1.4-0.9c-0.2,0.7-0.6,1-1.3,0.9C35.3,153.5,35.2,154,35,154.7z M28.1,153
							c0.6,0.8,0.6,0.8,0.4,1.7c0.3-0.2,0.6-0.4,0.9-0.6c0.3,0.2,0.6,0.4,0.8,0.6c-0.4-0.7,0-1.2,0.5-1.6c-0.8,0.1-1.2-0.1-1.4-0.9
							C29.2,152.8,28.9,153.2,28.1,153z M50.7,150.3c0.8,0.4,0.6,1,0.4,1.6c0.6-0.8,1.2-0.6,1.8-0.1c-0.6-0.8-0.1-1.2,0.4-1.7
							c-0.8,0.2-1.2-0.1-1.3-0.9C51.6,150.2,51.6,150.2,50.7,150.3z M58.5,154.9c-0.1,0.3-0.2,0.6-0.4,0.7c-0.2,0.1-0.5,0.1-0.9,0.1
							c0.7,0.4,0.8,1,0.5,1.6c0.3-0.2,0.6-0.5,0.9-0.5c0.3,0,0.6,0.3,0.9,0.5c-0.1-0.3-0.2-0.7-0.2-0.9c0.1-0.3,0.4-0.5,0.7-0.8
							c-0.4,0-0.7,0.1-0.9,0C58.8,155.6,58.7,155.2,58.5,154.9z M31.3,155.8c0.6,0.4,0.7,1,0.4,1.6c0.6-0.5,1.2-0.6,1.8,0
							c-0.5-0.7,0-1.1,0.5-1.6c-0.7,0.1-1.2-0.1-1.4-0.9C32.4,155.5,32.1,155.9,31.3,155.8z M37.8,166.7c0.6,0.4,0.7,1,0.3,1.7
							c0.4-0.3,0.7-0.6,1-0.6c0.3,0,0.6,0.3,0.8,0.5c-0.4-0.7-0.1-1.2,0.5-1.6c-0.8,0.1-1.2-0.1-1.4-0.9
							C38.9,166.5,38.6,166.9,37.8,166.7z M59.9,150.3c-0.7,0.1-1.3-0.1-1.4-0.9c-0.2,0.7-0.6,1-1.3,0.9c0.7,0.4,0.6,1,0.4,1.7
							c0.6-0.7,1.2-0.5,1.8,0C59,151.2,59.3,150.7,59.9,150.3z M56.7,158.5c-0.8,0.1-1.2-0.1-1.4-0.9c-0.2,0.7-0.6,1.1-1.3,0.9
							c0.8,0.4,0.7,1,0.4,1.7c0.6-0.7,1.2-0.6,1.8-0.1C55.8,159.4,56.1,159,56.7,158.5z M35.9,157.6c-0.2,0.7-0.5,1.1-1.3,0.9
							c0.6,0.4,0.7,1,0.4,1.6c0.6-0.5,1.2-0.6,1.8,0c-0.5-0.7,0-1.1,0.4-1.6C36.5,158.6,36,158.5,35.9,157.6z M35.9,146.7
							c-0.1,0.3-0.2,0.6-0.4,0.7c-0.2,0.1-0.5,0.1-1,0.1c0.8,0.4,0.7,1,0.6,1.6c0.3-0.2,0.6-0.4,0.8-0.6c0.3,0.2,0.6,0.4,0.8,0.6
							c-0.2-0.7-0.1-1.2,0.6-1.6C36.3,147.4,36.3,147.4,35.9,146.7z M54.4,165.7c0.6-0.6,1.2-0.7,1.8,0c-0.4-0.7-0.1-1.2,0.5-1.7
							c-0.8,0.1-1.2-0.1-1.3-1c-0.2,0.4-0.3,0.7-0.5,0.9c-0.2,0.1-0.5,0.1-1,0.1C54.6,164.5,54.7,165,54.4,165.7z M41,169.5
							c0.7,0.4,0.7,1,0.4,1.7c0.6-0.6,1.2-0.6,1.8,0c-0.5-0.8-0.1-1.2,0.4-1.6c-0.7,0.1-1.3,0-1.4-0.9
							C42.2,169.3,41.9,169.7,41,169.5z M45.6,160.4c-0.2,0.6-0.6,1.1-1.4,0.9c0.6,0.4,0.7,1,0.4,1.6c0.6-0.5,1.2-0.6,1.8,0
							c-0.5-0.7,0-1.1,0.5-1.6C46.3,161.3,45.7,161.3,45.6,160.4z M63.1,153c-0.8,0.1-1.2-0.1-1.4-0.9c-0.2,0.7-0.6,1-1.3,0.9
							c0.3,0.3,0.5,0.5,0.6,0.8c0,0.3-0.1,0.6-0.2,0.9c0.6-0.5,1.2-0.7,1.9,0.1C62.3,154,62.5,153.5,63.1,153z M46.5,157.3
							c-0.5-0.8,0-1.1,0.5-1.6c-0.4,0-0.8,0-1-0.1c-0.2-0.1-0.3-0.5-0.5-0.9c-0.1,0.9-0.5,1.1-1.2,1c0.6,0.4,0.7,0.9,0.4,1.6
							C45.3,156.9,45.8,156.7,46.5,157.3z M43.3,165.7c-0.5-0.8,0-1.2,0.5-1.7c-0.8,0.1-1.2-0.1-1.4-0.9c-0.2,0.7-0.6,1-1.3,0.9
							c0.7,0.4,0.7,1,0.4,1.6C42.1,165.1,42.6,165,43.3,165.7z M28.5,160.1c0.6-0.5,1.2-0.6,1.8,0c-0.5-0.7,0-1.1,0.5-1.6
							c-0.8,0.1-1.2-0.1-1.4-0.9c-0.1,0.8-0.6,1-1.3,0.9C28.7,159,28.9,159.5,28.5,160.1z M41.5,160.1c0.3-0.2,0.5-0.4,0.8-0.4
							c0.3,0,0.6,0.2,1.1,0.5c-0.6-0.8-0.1-1.2,0.3-1.6c-0.7,0.1-1.3,0-1.4-0.9c-0.2,0.7-0.6,1-1.3,0.9
							C41.7,159,41.8,159.5,41.5,160.1z M41,153c0.3,0.4,0.5,0.6,0.6,0.8c0.1,0.2-0.1,0.5-0.2,0.9c0.3-0.2,0.6-0.5,0.9-0.5
							c0.3,0,0.6,0.3,0.9,0.4c-0.4-0.7,0.1-1.1,0.6-1.5c-0.5,0-0.8,0.1-1-0.1c-0.2-0.1-0.3-0.5-0.5-0.8
							C42.2,152.8,41.9,153.2,41,153z M29.4,168.6c-0.2,0.7-0.6,1-1.3,0.9c0.6,0.4,0.7,0.9,0.4,1.6c0.6-0.5,1.2-0.7,1.8,0
							c-0.5-0.7,0-1.1,0.5-1.6C30.1,169.6,29.6,169.5,29.4,168.6z M57.2,161.3c0.7,0.4,0.6,1,0.4,1.6c0.6-0.7,1.2-0.6,1.8,0
							c-0.5-0.8-0.1-1.2,0.5-1.7c-0.8,0.1-1.2-0.1-1.4-0.9C58.3,161.1,57.9,161.4,57.2,161.3z M44.6,152c0.6-0.7,1.2-0.6,1.9,0
							c-0.4-0.7-0.2-1.2,0.4-1.6c-0.7,0-1.2-0.1-1.4-0.9c-0.2,0.7-0.6,1-1.3,0.9C44.9,150.8,45,151.3,44.6,152z M58.5,165.8
							c-0.2,0.7-0.5,1.1-1.4,0.9c0.3,0.4,0.6,0.5,0.6,0.8c0.1,0.3-0.1,0.6-0.2,1c0.7-0.7,1.2-0.7,1.9-0.1c-0.4-0.7-0.1-1.2,0.6-1.6
							c-0.5,0-0.8,0.1-1-0.1C58.7,166.5,58.7,166.2,58.5,165.8z M44.7,168.4c0.3-0.2,0.6-0.5,0.9-0.5c0.3,0,0.6,0.3,0.8,0.5
							c-0.4-0.7,0-1.2,0.6-1.6c-0.4,0-0.8,0-1-0.1c-0.2-0.1-0.3-0.5-0.4-0.7c-0.1,0.7-0.6,0.9-1.3,0.9C45,167.2,45,167.7,44.7,168.4
							z M31.6,162.9c0.4-0.2,0.7-0.5,1-0.5c0.3,0,0.6,0.2,0.8,0.4c-0.4-0.7,0.1-1.1,0.5-1.5c-0.8,0.2-1.2-0.1-1.4-0.9
							c-0.2,0.7-0.6,1-1.3,0.9C32,161.7,32,162.2,31.6,162.9z M48.9,146.6c-0.2,0.6-0.5,1.1-1.3,0.9c0.6,0.5,0.7,1,0.4,1.6
							c0.3-0.2,0.6-0.4,0.8-0.6c0.3,0.2,0.6,0.4,0.8,0.5c-0.3-0.7,0-1.2,0.6-1.6C49.5,147.6,49,147.4,48.9,146.6z M50.3,153.1
							C50.2,153,50.2,153,50.3,153.1c-0.4-0.1-0.8,0-1-0.2c-0.2-0.1-0.3-0.5-0.4-0.7c-0.2,0.7-0.7,0.9-1.3,0.9
							c0.6,0.4,0.7,0.9,0.4,1.6c0.6-0.6,1.2-0.6,1.8-0.1C49.3,153.8,49.7,153.4,50.3,153.1z M41.1,147.6c0.7,0.4,0.7,1,0.4,1.7
							c0.6-0.7,1.2-0.6,1.8,0c-0.4-0.7-0.2-1.2,0.4-1.7c-0.7,0.1-1.2-0.1-1.4-0.9C42.2,147.4,41.8,147.7,41.1,147.6z M60.4,169.5
							c0.6,0.5,0.7,1,0.4,1.7c0.6-0.7,1.2-0.6,1.8,0c-0.4-0.7-0.1-1.2,0.5-1.6c-0.7,0.1-1.3,0-1.4-0.9
							C61.5,169.3,61.2,169.7,60.4,169.5z M28.5,149.2c0.6-0.7,1.2-0.6,1.8,0c-0.4-0.7-0.1-1.2,0.5-1.6c-0.7,0.1-1.3-0.1-1.4-1
							c-0.2,0.4-0.3,0.7-0.5,0.9c-0.2,0.1-0.5,0.1-1,0.1C28.7,148,28.8,148.5,28.5,149.2z M40.5,155.8c-0.7,0.1-1.2-0.1-1.4-0.9
							c-0.2,0.7-0.6,1.1-1.3,0.9c0.6,0.4,0.8,0.9,0.4,1.6c0.6-0.5,1.2-0.6,1.8,0C39.6,156.6,39.9,156.2,40.5,155.8z M37.8,161.3
							c0.6,0.4,0.7,0.9,0.3,1.6c0.4-0.2,0.7-0.5,1-0.5c0.3,0,0.6,0.3,0.9,0.4c-0.1-0.3-0.2-0.6-0.1-0.9c0.1-0.2,0.4-0.4,0.6-0.6
							c0-0.1,0-0.1,0-0.2c-0.8,0.3-1.2,0-1.4-0.8C38.9,161.1,38.6,161.4,37.8,161.3z M56.2,171.3c-0.1-0.5-0.3-0.8-0.2-1
							c0.1-0.2,0.5-0.4,0.7-0.6c0,0-0.1-0.1-0.1-0.1c-0.3,0-0.7,0.1-0.9-0.1c-0.2-0.1-0.3-0.5-0.5-0.9c-0.1,0.8-0.5,1.1-1.3,1
							c0.7,0.4,0.7,1,0.4,1.6C55,170.5,55.6,170.6,56.2,171.3z M60.8,160.2c0.6-0.8,1.2-0.6,1.8,0c-0.1-0.5-0.3-0.8-0.2-1
							c0.1-0.3,0.4-0.4,0.6-0.7c0,0,0-0.1,0-0.1c-0.8,0.3-1.2,0-1.3-0.8c-0.2,0.7-0.6,1-1.3,0.9C61.1,159,61.1,159.5,60.8,160.2z
							 M54,147.6c0.6,0.4,0.7,1,0.4,1.6c0.6-0.7,1.2-0.6,1.9,0c-0.5-0.7-0.1-1.2,0.4-1.6c-0.8,0.1-1.2-0.1-1.4-0.9
							C55,147.3,54.8,147.7,54,147.6z M54.3,154.7c0.4-0.2,0.7-0.6,0.9-0.6c0.3,0,0.6,0.3,0.9,0.5c0,0,0.1,0,0.1,0
							c-0.6-0.7-0.1-1.1,0.4-1.6c-0.8,0.1-1.2-0.1-1.4-0.9c-0.2,0.7-0.5,1.1-1.4,0.8c0.3,0.4,0.6,0.6,0.6,0.8
							C54.6,154.1,54.4,154.4,54.3,154.7z M48.8,163.1c-0.2,0.6-0.5,1.1-1.3,0.9c0.6,0.5,0.7,1,0.4,1.6c0.6-0.6,1.2-0.7,1.8,0
							c-0.4-0.7-0.1-1.2,0.5-1.7C49.5,164.1,49,163.9,48.8,163.1z M50.7,166.7c0.6,0.5,0.7,1,0.4,1.6c0.6-0.6,1.2-0.6,1.9,0
							c-0.4-0.7-0.2-1.2,0.4-1.6c-0.8,0.1-1.2-0.2-1.4-0.9C51.9,166.6,51.5,166.9,50.7,166.7z M53.5,155.8c-0.5,0-0.8,0-1.1-0.1
							c-0.2-0.1-0.3-0.5-0.4-0.8c-0.2,0.3-0.2,0.7-0.4,0.8c-0.2,0.1-0.5,0.1-1,0.1c0.7,0.4,0.8,0.9,0.5,1.6c0.6-0.6,1.2-0.6,1.8-0.1
							C52.5,156.6,52.9,156.2,53.5,155.8z M50.2,158.5c-0.7,0.1-1.3-0.1-1.3-1c-0.2,0.4-0.3,0.7-0.5,0.9c-0.2,0.1-0.5,0.1-1,0.1
							c0.7,0.4,0.8,0.9,0.5,1.6c0.6-0.6,1.2-0.6,1.8-0.1C49.3,159.3,49.7,158.9,50.2,158.5z M60.5,164c0.6,0.4,0.7,1,0.3,1.7
							c0.4-0.2,0.7-0.5,1-0.5c0.3,0,0.6,0.3,0.8,0.5c-0.4-0.7-0.1-1.2,0.5-1.6c-0.8,0.2-1.2-0.1-1.4-0.9
							C61.5,163.7,61.3,164.2,60.5,164z M51.2,162.9c0.6-0.5,1.2-0.7,1.8-0.1c-0.5-0.8,0-1.1,0.5-1.6c-0.7,0.1-1.3-0.1-1.4-0.9
							c-0.2,0.7-0.6,1-1.3,0.9C51.3,162,51.3,162,51.2,162.9z M49.8,171.2c-0.4-0.7-0.1-1.2,0.5-1.6c-0.7,0.1-1.3-0.1-1.3-0.9
							c-0.6,0.8-0.6,0.8-1.4,1c0.8,0.4,0.7,0.9,0.5,1.6C48.6,170.5,49.1,170.5,49.8,171.2z M35,171.1c0.6-0.6,1.2-0.6,1.8,0
							c-0.1-0.4-0.2-0.7-0.1-0.9c0.1-0.2,0.4-0.4,0.6-0.6c-0.7,0-1.2-0.2-1.3-1c-0.2,0.7-0.5,1.1-1.3,0.9
							C35.1,170,35.4,170.4,35,171.1z M30.7,164c-0.3,0-0.7,0.1-0.9-0.1c-0.2-0.1-0.3-0.5-0.5-0.9c-0.1,0.8-0.5,1.1-1.3,1
							c0.7,0.4,0.6,0.9,0.4,1.6c0.6-0.6,1.2-0.6,1.8-0.1C29.9,164.8,30.3,164.4,30.7,164z M37.3,164c-0.8,0.1-1.3-0.1-1.4-0.9
							c-0.2,0.7-0.5,1.1-1.4,0.8c0.3,0.4,0.6,0.5,0.6,0.8c0.1,0.2-0.1,0.5-0.2,0.8c0.6-0.5,1.2-0.5,1.8,0
							C36.4,164.8,36.7,164.4,37.3,164z M34,166.8c-0.8,0.1-1.2-0.1-1.4-1c-0.1,0.8-0.6,1-1.3,1c0.6,0.4,0.7,0.9,0.4,1.6
							c0.6-0.6,1.2-0.6,1.8-0.1C33.1,167.6,33.5,167.2,34,166.8z"/>
						<path fill="#2368B5" d="M123.1,192.5c0,1.3,0,2.5,0,3.8c-32.3,0-64.6,0-96.9,0c0-1.3,0-2.5,0-3.8
							C58.5,192.5,90.8,192.5,123.1,192.5z"/>
						<path fill="#2368B5" d="M26.2,188.4c0-1.3,0-2.5,0-3.8c32.3,0,64.6,0,96.9,0c0,0.6,0,1.2,0,1.9c0,0.6,0,1.3,0,1.9
							C90.8,188.4,58.6,188.4,26.2,188.4z"/>
						<path fill="#2368B5" d="M26.2,180.4c0-1.3,0-2.5,0-3.7c32.3,0,64.6,0,96.9,0c0,1.2,0,2.5,0,3.7
							C90.8,180.4,58.6,180.4,26.2,180.4z"/>
					</g>
				</g>
			</g>
			<g>
				<path fill="#0C56AB" d="M52.2,145.3c14.3,0,25.9,11.6,25.9,25.9s-11.6,25.9-25.9,25.9s-25.9-11.6-25.9-25.9
					S37.8,145.3,52.2,145.3 M52.2,142.9c-15.6,0-28.3,12.7-28.3,28.3s12.7,28.3,28.3,28.3s28.3-12.7,28.3-28.3
					S67.8,142.9,52.2,142.9L52.2,142.9z"/>
			</g>
		</g>
		<g>
			<g>
				<g>
					<path fill="#0C56AB" d="M92.6,83.7c23.6,0,42.7,19.1,42.7,42.7c0,23.6-19.1,42.7-42.7,42.7s-42.7-19.1-42.7-42.7
						C49.9,102.8,69,83.7,92.6,83.7 M92.6,79.7c-25.7,0-46.7,20.9-46.7,46.7S66.8,173,92.6,173s46.7-20.9,46.7-46.7
						S118.3,79.7,92.6,79.7L92.6,79.7z"/>
				</g>
			</g>
			<circle fill="none" stroke="#FFFFFF" stroke-width="2.4128" stroke-miterlimit="10" cx="92.6" cy="126.4" r="42.7"/>
			<g>
				<defs>
					<circle id="SVGID_3_" cx="92.6" cy="126.4" r="42.3"/>
				</defs>
				<clipPath id="SVGID_4_">
					<use xlink:href="#SVGID_3_"  overflow="visible"/>
				</clipPath>
				<circle clip-path="url(#SVGID_4_)" fill="#FFFFFF" cx="92.6" cy="126.4" r="44"/>
				<g id="yq35wh_4_" clip-path="url(#SVGID_4_)">
					<g>
						<path fill="#2368B5" d="M62.6,115.6c0.2-1.2,0.4-2.2,0.6-3.3c0.1-0.3,0-0.6-0.2-0.8c-0.8-0.7-1.6-1.5-2.4-2.3
							c0-0.1,0.1-0.1,0.1-0.2c0.7-0.1,1.4-0.2,2.1-0.3c0.2,0,0.4-0.1,0.5-0.1c0.8,0.1,1.2-0.4,1.4-1.1c0.3-0.8,0.7-1.6,1.1-2.5
							c0.5,1.1,1,2,1.4,3c0.1,0.3,0.3,0.4,0.6,0.4c1.1,0.1,2.1,0.3,3.2,0.4c-0.5,0.6-1,1.2-1.5,1.6c-0.8,0.7-1.1,1.5-0.8,2.6
							c0.2,0.7,0.3,1.5,0.4,2.3c-0.8-0.4-1.5-0.7-2.2-1.2c-0.8-0.5-1.5-0.6-2.2,0C64.1,114.9,63.3,115.2,62.6,115.6z"/>
						<path fill="#2368B5" d="M108.2,145.9c0.5,1.1,1,2,1.4,3c0.1,0.3,0.4,0.5,0.7,0.5c1,0.1,1.9,0.3,2.9,0.4c0.1,0,0.1,0,0.2,0.1
							c-0.3,0.3-0.6,0.6-0.8,0.9c-0.3,0.4-0.6,0.8-1,1.1c-0.6,0.5-0.7,1.1-0.5,1.8c0.2,0.8,0.2,1.7,0.3,2.7c-0.9-0.5-1.8-1-2.7-1.5
							c-0.4-0.2-0.7-0.2-1,0c-0.8,0.5-1.7,1-2.7,1.5c0.2-1,0.2-1.9,0.5-2.7c0.2-0.7,0.1-1.2-0.5-1.7c-0.7-0.6-1.4-1.3-2-1.9
							c0-0.1,0.1-0.1,0.1-0.2c0.7-0.1,1.5-0.3,2.2-0.3c1,0,1.6-0.4,2-1.4C107.5,147.3,107.9,146.6,108.2,145.9z"/>
						<path fill="#2368B5" d="M119.4,105.2c0.5,1.1,1,2,1.4,3c0.1,0.3,0.3,0.4,0.6,0.5c1,0.1,2.1,0.3,3.2,0.4
							c-0.2,0.2-0.3,0.3-0.4,0.4c-0.7,0.7-1.3,1.4-2,2c-0.2,0.2-0.3,0.4-0.2,0.8c0.2,1.1,0.4,2.1,0.6,3.3c-0.2-0.1-0.3-0.1-0.4-0.2
							c-0.8-0.4-1.6-0.9-2.4-1.4c-0.3-0.2-0.5-0.2-0.9,0c-0.9,0.5-1.9,1-2.9,1.6c0.2-1,0.3-2,0.5-2.9c0.1-0.6,0-1.1-0.4-1.5
							c-0.7-0.6-1.3-1.4-2-2.1c1.1-0.1,2-0.3,3-0.4c0.5,0,0.8-0.2,0.9-0.7C118.5,107.1,118.9,106.2,119.4,105.2z"/>
						<path fill="#2368B5" d="M82.2,149.9c-0.8,0.8-1.6,1.5-2.4,2.3c-0.2,0.2-0.3,0.5-0.2,0.8c0.2,0.9,0.3,1.9,0.5,2.8
							c0,0.1,0,0.2,0,0.4c-0.9-0.5-1.8-1-2.7-1.5c-0.4-0.2-0.6-0.2-1,0c-0.9,0.5-1.7,1-2.7,1.5c0.1-0.9,0.2-1.8,0.3-2.6
							c0.2-0.7,0.1-1.3-0.6-1.8c-0.7-0.6-1.2-1.3-1.9-2c0.6-0.1,1.1-0.2,1.7-0.2c0.6-0.1,1.1-0.1,1.7-0.2c0.2,0,0.4-0.2,0.5-0.4
							c0.5-1,0.9-2,1.4-3.1c0.4,0.9,0.9,1.8,1.2,2.7c0.2,0.6,0.5,0.8,1.2,0.9c0.9,0.1,1.8,0.2,2.7,0.4
							C82.1,149.8,82.2,149.9,82.2,149.9z"/>
						<path fill="#2368B5" d="M58.9,131.5c0.2-1.2,0.4-2.3,0.6-3.4c0.1-0.3,0-0.5-0.2-0.7c-0.7-0.6-1.4-1.3-2.1-2
							c-0.1-0.1-0.2-0.2-0.3-0.3c1.1-0.2,2.2-0.4,3.3-0.6c0.2,0,0.4-0.2,0.5-0.4c0.5-1,0.9-2,1.5-3.1c0.2,0.4,0.4,0.8,0.5,1.1
							c0.1,0.2,0.2,0.5,0.3,0.7c0.3,0.5,0.4,1.2,0.8,1.5c0.4,0.3,1.1,0.3,1.7,0.4c0.6,0.1,1.2,0.2,1.8,0.3c-0.1,0.1-0.2,0.2-0.3,0.3
							c-0.7,0.7-1.3,1.3-2,2c-0.2,0.2-0.3,0.5-0.2,0.8c0.2,1.1,0.3,2.1,0.4,3.3c-0.8-0.4-1.5-0.8-2.2-1.2c-0.7-0.5-1.3-0.5-2.1,0
							C60.4,130.8,59.7,131.1,58.9,131.5z"/>
						<path fill="#2368B5" d="M119.9,131.5c0.1-1.2,0.3-2.2,0.4-3.3c0-0.3,0-0.5-0.2-0.7c-0.7-0.7-1.5-1.5-2.3-2.3
							c0.8-0.1,1.5-0.4,2.2-0.4c1.1,0,1.7-0.5,2-1.6c0.2-0.7,0.6-1.3,0.9-1.9c0,0,0,0,0.1-0.1c0.3,0.7,0.7,1.3,0.9,1.9
							c0.3,1.1,1,1.7,2.2,1.7c0.7,0,1.4,0.2,2.1,0.4c-0.1,0.1-0.2,0.3-0.3,0.4c-0.7,0.7-1.3,1.3-2,2c-0.2,0.2-0.3,0.4-0.2,0.8
							c0.2,1,0.4,2.1,0.6,3.1c0,0,0,0,0,0.1c-0.3-0.2-0.6-0.3-0.9-0.5c-0.6-0.3-1.2-0.7-1.8-1c-0.3-0.2-0.5-0.2-0.7,0
							C121.8,130.5,120.9,131,119.9,131.5z"/>
						<path fill="#2368B5" d="M103,98.7c1.1-0.2,2.2-0.4,3.2-0.6c0.3-0.1,0.5-0.2,0.7-0.5c0.4-0.9,0.9-1.8,1.4-2.8
							c0.5,1,1,1.9,1.4,2.9c0.1,0.3,0.3,0.4,0.6,0.5c1,0.2,2.1,0.4,3.2,0.6c-0.1,0.1-0.2,0.2-0.2,0.3c-0.7,0.7-1.3,1.4-2,2
							c-0.2,0.2-0.3,0.4-0.2,0.7c0.2,1.1,0.3,2.2,0.4,3.3c-0.1-0.1-0.3-0.1-0.3-0.1c-0.8-0.5-1.6-0.9-2.5-1.4
							c-0.3-0.2-0.5-0.2-0.7,0c-0.8,0.5-1.6,0.9-2.4,1.4c-0.1,0.1-0.2,0.1-0.4,0.2c0.1-0.8,0.2-1.4,0.3-2.1c0-0.2,0-0.3,0.1-0.4
							c0.3-0.9,0-1.5-0.7-2C104.2,99.9,103.6,99.3,103,98.7z"/>
						<path fill="#2368B5" d="M80.1,105c-0.9-0.5-1.7-0.9-2.5-1.5c-0.5-0.3-0.8-0.3-1.3,0c-0.8,0.5-1.6,0.9-2.5,1.4
							c0.1-0.9,0.2-1.8,0.3-2.6c0.2-0.8,0-1.4-0.6-1.9c-0.6-0.5-1.2-1.2-1.8-1.8c1.1-0.2,2.2-0.4,3.3-0.6c0.3,0,0.5-0.2,0.6-0.5
							c0.4-0.9,0.9-1.9,1.4-2.9c0.3,0.7,0.7,1.3,0.9,2c0.3,1,1,1.5,2.1,1.6c0.7,0,1.4,0.2,2.2,0.4c-0.6,0.6-1.1,1.1-1.6,1.5
							c-1,0.7-1.2,1.5-0.8,2.6C79.9,103.5,80,104.2,80.1,105z"/>
						<path fill="#2368B5" d="M60.5,139.2c1.2-0.2,2.3-0.4,3.3-0.6c0.2,0,0.4-0.2,0.5-0.4c0.4-0.8,0.8-1.6,1.2-2.4
							c0.1-0.1,0.1-0.3,0.2-0.5c0.5,1,1,1.9,1.4,2.9c0.1,0.3,0.3,0.4,0.6,0.4c1.1,0.2,2.1,0.4,3.3,0.6c-0.3,0.3-0.6,0.6-0.8,0.9
							c0,0,0,0-0.1,0.1c-0.5,0.6-1.3,1.1-1.5,1.7c-0.2,0.7,0.2,1.5,0.3,2.3c0.1,0.4,0.1,0.9,0.2,1.4c-1-0.6-2-1.1-3-1.6
							c-0.3-0.2-0.5-0.2-0.7,0c-0.8,0.5-1.6,0.9-2.3,1.3c-0.1,0.1-0.3,0.1-0.5,0.3c0.2-1,0.3-1.8,0.5-2.7c0.2-0.7,0.1-1.3-0.6-1.8
							C61.8,140.5,61.2,139.9,60.5,139.2z"/>
						<path fill="#2368B5" d="M116.1,145.5c0.2-1.2,0.4-2.3,0.6-3.4c0-0.2,0-0.5-0.2-0.6c-0.7-0.8-1.5-1.5-2.3-2.2
							c0,0,0-0.1,0.1-0.1c0.6-0.1,1.2-0.2,1.8-0.3c0.5-0.1,1-0.2,1.5-0.3c0.3,0,0.4-0.2,0.5-0.4c0.4-0.9,0.9-1.9,1.4-2.9
							c0.3,0.7,0.7,1.3,0.9,1.9c0.4,1,0.9,1.5,2.1,1.6c0.7,0,1.4,0.2,2.1,0.4c0,0,0,0,0.1,0.1c-0.2,0.2-0.4,0.4-0.6,0.6
							c-0.6,0.5-1.1,1.1-1.7,1.6c-0.3,0.2-0.3,0.5-0.2,0.8c0.2,0.9,0.3,1.9,0.5,2.8c0,0.1,0,0.2,0,0.4c-0.9-0.5-1.8-1-2.7-1.5
							c-0.3-0.2-0.6-0.2-1,0C118,144.5,117.1,145,116.1,145.5z"/>
						<path fill="#2368B5" d="M97.8,156.4c-0.7,0.7-1.3,1.4-2,2c-0.4,0.4-0.6,0.7-0.4,1.3c0.2,1,0.3,1.9,0.4,3
							c-0.8-0.4-1.5-0.7-2.1-1.2c-0.8-0.6-1.4-0.5-2.1,0c-0.6,0.5-1.3,0.8-2.1,1.2c0.1-0.8,0.1-1.6,0.3-2.4c0.2-1,0-1.7-0.8-2.3
							c-0.6-0.4-1.1-1-1.6-1.5c0,0,0-0.1,0.1-0.1c1-0.1,2-0.3,3-0.4c0.4,0,0.7-0.2,0.9-0.6c0.4-0.9,0.9-1.8,1.3-2.8
							c0.1,0.2,0.2,0.3,0.2,0.4c0.4,0.8,0.8,1.7,1.2,2.5c0.2,0.4,0.4,0.5,0.8,0.5C95.7,156.1,96.7,156.3,97.8,156.4z"/>
						<path fill="#2368B5" d="M89.4,100.1c0.1-1.1,0.3-2.2,0.4-3.2c0.1-0.3,0-0.6-0.3-0.8c-0.7-0.7-1.5-1.4-2.2-2.1
							c0,0,0-0.1,0.1-0.1c0.4-0.1,0.7-0.1,1.1-0.2c0.7-0.1,1.4-0.2,2.2-0.3c0.2,0,0.4-0.2,0.5-0.4c0.5-1,0.9-2,1.4-3
							c0.1,0.2,0.2,0.3,0.2,0.4c0.4,0.9,0.8,1.8,1.3,2.7c0.1,0.2,0.3,0.3,0.5,0.3c1.1,0.2,2.2,0.3,3.3,0.5c-0.8,0.8-1.5,1.5-2.2,2.3
							c-0.2,0.2-0.3,0.5-0.3,0.8c0.2,1.1,0.3,2.1,0.4,3.2c-0.3-0.2-0.6-0.3-0.9-0.5c-0.7-0.4-1.3-0.7-2-1.1c-0.3-0.2-0.4-0.1-0.7,0
							C91.3,99.1,90.4,99.6,89.4,100.1z"/>
					</g>
				</g>
			</g>
		</g>
	</g>
</g>
<g>
</g>
<g>
</g>
<g>
</g>
<g>
</g>
<g>
</g>
<g>
</g>
<g>
</g>
<g>
</g>
<g>
</g>
<g>
</g>
<g>
</g>
<g>
</g>
<g>
</g>
<g>
</g>
<g>
</g>
</svg>
