<?xml version="1.0" encoding="utf-8"?>
<!-- Generator: Adobe Illustrator 18.0.0, SVG Export Plug-In . SVG Version: 6.00 Build 0)  -->
<!DOCTYPE svg PUBLIC "-//W3C//DTD SVG 1.1//EN" "http://www.w3.org/Graphics/SVG/1.1/DTD/svg11.dtd">
<svg version="1.1" id="Layer_1" xmlns="http://www.w3.org/2000/svg" xmlns:xlink="http://www.w3.org/1999/xlink" x="0px" y="0px"
	 viewBox="0 0 856.2 499.6" enable-background="new 0 0 856.2 499.6" xml:space="preserve">
<g>
	<g>
		<g>
			<path fill="#0C56AB" d="M10.6,5.6c0,0.3,0,0.7,0,1.1c0.4,2.8,1.2,4.4,2.7,5.9c-0.3,0.2-0.5,0.5-0.7,0.8c-1.2-1.2-1.9-2.5-2.4-4.2
				c-0.4,1.4-1,2.9-2.3,4.2c-0.2-0.3-0.5-0.6-0.7-0.8l0,0c-0.3,0-0.7,0-1.1,0h-3c-1.5,0-2-0.5-2-2.1V2.2H0.6V1.3h6.8v0.9H2v8.4
				c0,0.8,0.3,1.1,1,1.1h3.1c0.4,0,1,0,1.3-0.1c0,0.2,0.1,0.5,0.1,0.7c2-2.2,2.1-4.9,2.1-6.8V4.6h1V5.6z M2.5,7.3h2.1v3.5H2.5V7.3z
				 M6.6,6.3H3V3.2h3.6V6.3z M3.1,10.1h0.9V7.9H3.1V10.1z M5.8,3.9h-2v1.8h2V3.9z M7.3,10.8H5.1V7.3h2.2V10.8z M6.7,8h-1v2.1h1V8z
				 M9.1,3.8c-0.3,1.1-0.7,2-1.2,2.8C7.7,6.4,7.3,6.1,7.1,6C8,4.7,8.5,2.7,8.9,0.6l1,0.2C9.7,1.5,9.6,2.2,9.4,2.8h3.3l0.2-0.1
				L13.5,3c-0.3,1.2-0.6,2.7-1,3.6l-0.8-0.3c0.2-0.7,0.5-1.7,0.7-2.6H9.1z"/>
			<path fill="#0C56AB" d="M17.3,6.7c-0.5-0.4-1.6-1-2.4-1.4l0.6-0.8c0.8,0.4,1.8,0.9,2.4,1.3L17.3,6.7z M15.2,12.7
				c0.6-1.1,1.4-2.9,1.9-4.5L18,8.8c-0.5,1.5-1.2,3.2-1.8,4.4L15.2,12.7z M17.8,3c-0.5-0.4-1.5-1.1-2.2-1.5l0.6-0.7
				c0.8,0.4,1.8,1,2.3,1.5L17.8,3z M20.1,0.9h1v4.9c0,2.7-0.2,5.5-2,7.6c-0.2-0.2-0.6-0.5-0.9-0.6c1.7-2,1.9-4.5,1.9-7V0.9z
				 M19.2,8.3C19,7.4,18.6,6,18.2,5L19,4.7c0.4,1.1,0.9,2.4,1,3.3L19.2,8.3z M21.9,4.7c0.4,1,0.8,2.2,1,3.1l-0.8,0.3
				C22,7.3,21.6,6,21.2,5L21.9,4.7z M27.1,0.9v12.5h-1V7.8l-0.7,0.3C25.2,7.3,24.6,6,24.1,5v8.1h-1v-12h1v3.7l0.6-0.3
				c0.6,1,1.1,2.2,1.4,3.1V0.9H27.1z"/>
			<path fill="#0C56AB" d="M31.5,10.4c-0.3,1.1-0.9,2.3-1.6,3c-0.2-0.2-0.6-0.4-0.8-0.6c0.6-0.7,1.1-1.7,1.4-2.7L31.5,10.4z
				 M33.8,9.9h-3.9V1.1h3.9V9.9z M32.9,2h-2.1v1.8h2.1V2z M32.9,4.6h-2.1v1.8h2.1V4.6z M32.9,7.2h-2.1V9h2.1V7.2z M33.1,10.2
				c0.5,0.7,0.9,1.6,1.2,2.2l-0.8,0.4c-0.2-0.6-0.7-1.5-1.1-2.2L33.1,10.2z M42.1,11.1h-0.8v1.2c0,0.5-0.1,0.8-0.5,0.9
				c-0.4,0.1-1,0.1-2,0.1c0-0.2-0.2-0.6-0.3-0.8c0.7,0,1.4,0,1.6,0c0.2,0,0.2-0.1,0.2-0.2v-1.2h-4.4v2.3h-0.9v-2.3H34v-0.8h0.9V6.7
				h2.6V5.9h-3.5V5.1h2V4.2h-1.3V3.4h1.3V2.6h-1.7V1.8h1.7V0.6H37v1.2h2.1V0.6H40v1.2h1.7v0.8H40v0.8h1.5v0.8H40v0.9h2v0.8h-3.5v0.8
				h2.7v3.6h0.8V11.1z M35.9,7.5v1h1.7v-1H35.9z M35.9,10.3h1.7V9.2h-1.7V10.3z M37,3.4h2.1V2.6H37V3.4z M37,5.1h2.1V4.2H37V5.1z
				 M38.5,7.5v1h1.8v-1H38.5z M40.3,10.3V9.2h-1.8v1.1H40.3z"/>
			<path fill="#0C56AB" d="M48.9,11.7c-1.1,0.7-2.9,1.3-4.3,1.7c-0.2-0.2-0.5-0.6-0.8-0.8c1.5-0.3,3.2-0.8,4.2-1.4L48.9,11.7z
				 M55.5,1.3v3.1H44.7V1.3H55.5z M54.7,5.1v6h-9.1v-6H54.7z M45.7,3.5H48V2.1h-2.3V3.5z M46.6,6.9h7v-1h-7V6.9z M46.6,8.7h7v-1h-7
				V8.7z M46.6,10.4h7V9.3h-7V10.4z M48.8,3.5h2.3V2.1h-2.3V3.5z M52,11.3c1.6,0.5,3.3,1.1,4.4,1.6l-1.1,0.6
				c-0.9-0.4-2.5-1.1-4.1-1.6L52,11.3z M52.1,3.5h2.4V2.1h-2.4V3.5z"/>
			<path fill="#0C56AB" d="M70.1,3.6c0,0,0,0.4,0,0.5c-0.3,5.7-0.6,7.8-1.2,8.5c-0.3,0.4-0.7,0.5-1.2,0.6c-0.5,0-1.4,0-2.2,0
				c0-0.3-0.1-0.8-0.4-1.1c1,0.1,1.8,0.1,2.2,0.1c0.3,0,0.5,0,0.6-0.2c0.5-0.5,0.8-2.5,1.1-7.4h-4.8C64,7.6,63.1,11,59,13.5
				c-0.2-0.3-0.5-0.7-0.8-0.8c3.8-2.3,4.7-5.3,4.9-7.9h-4.5v-1h4.5c0-0.2,0-0.4,0-0.6V0.6h1.1V3c0,0.2,0,0.4,0,0.6H70.1z"/>
			<path fill="#0C56AB" d="M85.1,9.2v1H72.5v-1h1.4l-0.3-7.4c0.9-0.3,1.9-0.7,2.6-1.1l0.5,0.9c-0.6,0.3-1.4,0.5-2.1,0.8l0.1,1.6h1.9
				v0.9h-1.8l0.1,1.7h1.8v0.9h-1.8l0.1,1.7h7.9c0-0.5,0.1-1.1,0.1-1.7H81V6.6h1.8c0-0.6,0-1.1,0.1-1.7h-1.8V4H83c0-0.6,0-1.2,0-1.8
				h-2V1.3h3c0,2.5-0.1,5.8-0.2,7.8H85.1z M77.4,11c-1.1,0.9-2.8,1.8-4.2,2.4c-0.1-0.2-0.4-0.6-0.6-0.8c1.3-0.5,3-1.5,3.9-2.2
				L77.4,11z M78.5,6c-0.1,1-0.4,1.9-0.9,2.6c-0.2-0.1-0.5-0.3-0.7-0.4c0.4-0.6,0.6-1.5,0.8-2.3L78.5,6z M79.5,5.2h-2.2V0.7h0.9V2
				h2.3v0.9h-2.3v1.5H80v0h0.4v3.7c0,0.4-0.1,0.6-0.4,0.8C79.7,9,79.2,9,78.5,9c0-0.2-0.2-0.5-0.3-0.7c0.5,0,0.9,0,1.1,0
				c0.2,0,0.2-0.1,0.2-0.2V5.2z M80.7,10.3c1.5,0.7,3.1,1.6,4.1,2.2l-0.7,0.8c-1-0.7-2.5-1.6-4-2.3L80.7,10.3z"/>
			<path fill="#0C56AB" d="M94,0.9c-0.1,0.2-0.2,0.3-0.3,0.4c1.8,2,3.8,3.2,6,4.2c-0.2,0.2-0.5,0.6-0.7,0.9c-2.1-1-4.1-2.2-5.9-4.3
				c-1.5,1.8-3.6,3.3-5.8,4.3c-0.2-0.3-0.4-0.6-0.7-0.9c2.6-1,5.1-3,6.5-5.1L94,0.9z M93.8,12h5.4v1H87.3v-1H89V6.9h1V12h2.6V4.4
				h1.1v3.2h4v0.9h-4V12z"/>
			<path fill="#0C56AB" d="M106.2,11.1c-1,0.8-2.8,1.5-4.3,1.8c-0.1-0.3-0.4-0.6-0.6-0.8c1.4-0.2,3.2-0.8,4.1-1.4L106.2,11.1z
				 M113.6,9.2v0.9h-5.6v3.3h-1v-3.3h-5.5V9.2h5.5v-1h-4.2V7.3h4.2v-1H102V5.5h3c-0.1-0.4-0.4-0.9-0.7-1.3L105,4h-3.6V3.1h2.3
				c-0.2-0.6-0.7-1.4-1.1-2l0.9-0.3c0.5,0.6,1,1.5,1.2,2.1l-0.7,0.3h1.7V0.6h1v2.5h1.7V0.6h1v2.5h1.7l-0.6-0.2
				c0.4-0.6,0.8-1.5,1.1-2.1l1.1,0.3c-0.4,0.7-0.9,1.5-1.2,2h2.2V4h-3.6l0.9,0.3c-0.3,0.5-0.7,0.9-1,1.3h3.2v0.8h-5.1v1h4.4v0.8
				h-4.4v1H113.6z M105.3,4c0.3,0.4,0.6,1,0.7,1.4l-0.6,0.2h3.9l-0.5-0.2c0.3-0.4,0.6-1,0.8-1.4H105.3z M109.5,10.7
				c1.3,0.4,3.1,1.1,4.1,1.6l-0.6,0.7c-0.9-0.4-2.7-1.2-4-1.7L109.5,10.7z"/>
			<path fill="#0C56AB" d="M119.6,1.4c-0.3,0.6-0.8,1.2-1.3,1.9c0.8,1.5,0.9,3.2,0.9,4.8c0,2-0.1,3.8-0.7,4.5
				c-0.2,0.3-0.4,0.4-0.8,0.5c-0.5,0.1-1,0.1-1.6,0.1c0-0.3-0.1-0.7-0.3-1c0.7,0.1,1.2,0,1.5,0c0.2,0,0.3-0.1,0.4-0.3
				c0.3-0.5,0.5-2,0.5-3.8c0-0.3,0-0.5,0-0.8c-0.7,1.1-1.5,2.1-2.3,2.7c-0.1-0.3-0.4-0.7-0.6-0.9c1-0.7,2.1-2.1,2.8-3.4
				c-0.1-0.6-0.3-1.2-0.5-1.7c-0.6,0.6-1.2,1.2-1.8,1.6c-0.1-0.3-0.4-0.7-0.6-0.9c0.6-0.4,1.3-0.9,1.9-1.6c-0.4-0.5-0.8-1.1-1.4-1.6
				l0.7-0.6c0.5,0.5,1,1,1.3,1.5c0.4-0.5,0.8-1,1-1.5L119.6,1.4z M127.5,9.9c-0.6,0.8-1.6,1.5-2.6,2c1.1,0.3,2.3,0.5,3.5,0.7
				c-0.2,0.2-0.5,0.6-0.6,0.8c-1.4-0.2-2.8-0.5-4.1-1c-1.3,0.5-2.7,0.8-4.1,1c-0.1-0.2-0.3-0.6-0.5-0.8c1.2-0.1,2.4-0.4,3.5-0.7
				c-0.8-0.4-1.5-0.9-2.1-1.4l0.4-0.2h-0.9V9.5h6.8l0.2,0L127.5,9.9z M122.1,2.5h-2.3V1.6h2.3v-1h0.9v2.6l0.7-0.4
				c0.4,0.4,0.9,0.9,1.1,1.2h2.8v0.7h-3v0.7h2.7v0.6h-2.7v0.7h2.7v0.6h-2.7v0.7h3.2v0.7h-6.4v0.4h-0.9V5.5c-0.2,0.3-0.4,0.5-0.6,0.7
				c-0.2-0.2-0.5-0.5-0.7-0.6c0.8-0.6,1.5-1.6,2-2.5l0.9,0.3c-0.1,0.3-0.3,0.5-0.4,0.8h2.2c-0.2-0.3-0.5-0.6-0.7-0.8v0h-0.9V2.5z
				 M123.7,4.8h-2.2v0.7h2.2V4.8z M123.7,6.1h-2.2v0.7h2.2V6.1z M123.7,7.4h-2.2v0.7h2.2V7.4z M121.5,10.3c0.5,0.5,1.3,0.9,2.2,1.2
				c0.9-0.3,1.6-0.7,2.2-1.2H121.5z M125.5,3.3h-1V0.6h1v1h2.7v0.8h-2.7V3.3z"/>
			<path fill="#0C56AB" d="M133.9,4.8h2.9v1h-2.9v0.4c0.7,0.6,2.3,2.2,2.7,2.7L136,9.7c-0.4-0.5-1.4-1.6-2.1-2.3v6.1h-1v-6
				c-0.7,1.6-1.7,3.2-2.6,4.1c-0.1-0.3-0.4-0.7-0.6-1c1.1-1.1,2.3-3,3-4.7h-2.7v-1h2.9V2.4c-0.9,0.2-1.8,0.3-2.7,0.4
				c0-0.3-0.2-0.6-0.3-0.8c2.1-0.3,4.5-0.8,5.8-1.4l0.8,0.8c-0.7,0.3-1.6,0.5-2.5,0.7V4.8z M138.9,9.9h-1V2.3h1V9.9z M141.9,0.8
				v11.2c0,0.7-0.2,1-0.6,1.2c-0.4,0.2-1.2,0.2-2.5,0.2c-0.1-0.3-0.2-0.8-0.4-1.1c1,0,1.8,0,2.1,0c0.3,0,0.4-0.1,0.4-0.4V0.8H141.9z
				"/>
		</g>
	</g>
	<g>
		<defs>
			<filter id="Adobe_OpacityMaskFilter" filterUnits="userSpaceOnUse" x="64.8" y="96.7" width="536.7" height="277.6">
				<feColorMatrix  type="matrix" values="1 0 0 0 0  0 1 0 0 0  0 0 1 0 0  0 0 0 1 0"/>
			</filter>
		</defs>
		<mask maskUnits="userSpaceOnUse" x="64.8" y="96.7" width="536.7" height="277.6" id="SVGID_1_">
			<g filter="url(#Adobe_OpacityMaskFilter)">
				<g>
					<path fill="#FFFFFF" d="M388.9,383.1c0.1-0.1,0.1-0.3,0.2-0.5C388.8,383,388.7,383.3,388.9,383.1z"/>
					<path fill="#FFFFFF" d="M587.1,208.5l-1.6-18.7l-4.2-4.7l-3,13.4l-5.5,36.7H464l-2.4-2.7l-2.6-6.3l-2.6-9.6l-4.9-9.8v-10.7
						l-2.4-9.2l-4.7-2.8l-2.6-11.5l-4.9,7v-6.3l-2.6-9.8l-3.5,3.3l-2.6,4.5l-3.3,14.1l-2.3,2.9l-6.7,6.5l-0.3,4.3
						c0,0-1.9,8.1-1.9,10.5s-3,9.1-3,9.1l-2.5,16.8h-28.6l-0.9-5.1l-3.7-2.3v-9.4l-1.6-4.7v-22.5l-2.1-7.5v-18.5l-2.3-11.5
						l-2.6-13.4l-2.1,17.3v10.1l-3.7,13.8l-2.1,7.5l-2.3,6.9l-3.3,6.7l-4,10.3l-3.7,14.3l-2,7.9h-4.4v-1.3l-2.8-1.4
						c0,0-1.4,1.2-1.6,1.9c-0.2,0.7-2.3-5.2-2.3-5.2l-1.9-7.4l-2.8-7.7v-13.5l-1.2-6.1l-4.5-4.9l-3.5-15.5l-3.3-6.8l-1.6,3.5
						l-1.9-5.4l-4.7,7.7l-5.6,7.3v8.4l-4,9.6l-2.3,6l-5.4-8.3l-4,9.8l-2.6-12.4l-4.7-3.5c0,0-1.3,19.7-1.3,20.4
						c-0.1,0.7-2.4-3.1-2.4-3.1l-1.6-2.9l-4,1.5v8.4v4.7l-3,6.2l-3.6,10.1h-71.5l-2.4-6.1l-1.6-10.9l-1.4-11.5l-2.1-4l-2.3-12.6
						l-5.6,0.7l-1.2-11.7l-3-6.1l-4.5,9.8h-6.3v9.6l-4.9,1.2v4.5l-3.3,7v13.8l-4.5,6.2v10.1H77.9v0.4v0.2v27.6l10.1-24.1h6.6
						l7.2,6.6l4.8-0.5l4.5,14.8l4,7l3.3,9.8l5.4,11.9l1.4-3.3l3.5,6.6h4.2l4.2-15.5l3.5-14.1l1.2-4.2l3.7-16.4l2-6.3h43.5l1.3,4.2
						l0.5,8l1.6,8.4c0,0-0.2,4.7-0.2,5.6s1.4,4.7,1.4,4.7v5.3c0,0,0.9,8.7,1.2,9.8c0.2,1.2,1.2,10.3,1.2,10.3l1.2-4.2l5.2,9.8
						l4.5-4.7l4.9-5.2l0.9-5.6l3,1.4l1.9-8.5l1.4-6.2l1.6-5.1l0.7-5.4l3-13.6l3-9.1h0.2l4.1,7l2.1,3.5c0,0,1.2,3,3.3,2.8l3.3-2.8
						c0,0,1.2,4,1.4,5.2c0.2,1.2,1.7,4.5,1.9,5.4c0.2,0.9,4.2-4.9,4.2-4.9s1.4,9.8,1.9,10.5s2.6,8.2,3,8.9c0.5,0.7,1.6-1.4,1.9-2.3
						c0.2-0.9,1-6.9,2.3-7.7c1.3-0.9,0.9-8.7,0.9-8.7l0.2-8.2l0.9-3.7l1.1-4.9h76.8v3.5l2.4,1.4l1.8-4.9h36.8l0.4,30.4l0.9,11.9
						c0,0,1.4,18.8,1.5,19.9s4.6,64.2,4.7,64.9c0.1,0.7,2.3,16.4,1.9,19.6c0.9-1.7,3.8-6.3,3.8-6.3l2.8-1.6c0,0,0.5-5.8,0.6-6.8
						c0.1-1,1-11,1-11l4.3-25.3l0.5-26.7c0,0,0.8-39.6,0.8-40.3c0-0.7,3.4-11,3.4-11l1.9-17.8h70.5l2.5,14.5l2.8,10.1
						c0,0,1.9,4.9,2.1,5.6c0.2,0.7,2.1-0.7,2.6,0c0.5,0.7,4,13.1,4,13.1l2.3-5.2l2.6,2.3l3.3-9.8l3.3,15.7l5.4-10.3l3-10.1l4.2,10.8
						c0,0,3.3-4.7,3.5-4c0.2,0.7,3,4.7,3,4.7l4.6,28.3l5.4-23.1l4.1,3.3l3.2-3.3l5.7,23.1l7.1-5.4l1.5,18.8l3.4,6.1l3.9-23.2
						l10.3-62h18.2v-0.2v-0.4v-14.9L587.1,208.5z"/>
				</g>
			</g>
		</mask>
		<g mask="url(#SVGID_1_)">
			<g>
				<rect x="64.8" y="96.7" fill="#7F58A5" width="536.7" height="138.9"/>
				<rect x="64.8" y="235.3" fill="#73B564" width="536.7" height="138.9"/>
			</g>
		</g>
		<line fill="none" stroke="#D9D9D9" stroke-miterlimit="10" x1="65.6" y1="37.5" x2="609" y2="37.5"/>
		<line fill="none" stroke="#D9D9D9" stroke-miterlimit="10" x1="65.6" y1="77.1" x2="609" y2="77.1"/>
		<line fill="none" stroke="#D9D9D9" stroke-miterlimit="10" x1="65.6" y1="116.7" x2="609" y2="116.7"/>
		<line fill="none" stroke="#D9D9D9" stroke-miterlimit="10" x1="65.6" y1="156.3" x2="609" y2="156.3"/>
		<line fill="none" stroke="#D9D9D9" stroke-miterlimit="10" x1="65.6" y1="195.9" x2="609" y2="195.9"/>
		<line fill="none" stroke="#D9D9D9" stroke-miterlimit="10" x1="65.6" y1="235.6" x2="609" y2="235.6"/>
		<line fill="none" stroke="#D9D9D9" stroke-miterlimit="10" x1="65.6" y1="275.2" x2="609" y2="275.2"/>
		<line fill="none" stroke="#D9D9D9" stroke-miterlimit="10" x1="65.6" y1="314.8" x2="609" y2="314.8"/>
		<line fill="none" stroke="#D9D9D9" stroke-miterlimit="10" x1="65.6" y1="354.4" x2="609" y2="354.4"/>
		<line fill="none" stroke="#D9D9D9" stroke-miterlimit="10" x1="65.6" y1="394" x2="609" y2="394"/>
		<line fill="none" stroke="#D9D9D9" stroke-miterlimit="10" x1="65.6" y1="433.7" x2="609" y2="433.7"/>
		<g>
			<g>
				<path fill="#231F20" d="M726.6,346.7h2.5c1.9,0,3.2,0.6,3.2,2.5c0,1.8-1.3,2.7-3.2,2.7h-1.4v3.4h-1.1V346.7z M729,351
					c1.5,0,2.2-0.6,2.2-1.8c0-1.2-0.8-1.6-2.3-1.6h-1.2v3.4H729z"/>
				<path fill="#231F20" d="M734.4,346.7h2.5c1.9,0,3.2,0.6,3.2,2.5c0,1.8-1.3,2.7-3.2,2.7h-1.4v3.4h-1.1V346.7z M736.7,351
					c1.5,0,2.2-0.6,2.2-1.8c0-1.2-0.8-1.6-2.3-1.6h-1.2v3.4H736.7z"/>
				<path fill="#231F20" d="M742.1,346.7h1.1v8.6h-1.1V346.7z"/>
				<path fill="#231F20" d="M745.2,351.6h3v0.8h-3V351.6z"/>
				<path fill="#231F20" d="M749.7,351c0-2.8,1.6-4.5,3.8-4.5c1,0,1.9,0.5,2.4,1.1l-0.6,0.7c-0.4-0.5-1-0.8-1.8-0.8
					c-1.6,0-2.7,1.3-2.7,3.5c0,2.2,1,3.5,2.7,3.5c0.8,0,1.4-0.4,2-1l0.6,0.7c-0.7,0.8-1.5,1.2-2.6,1.2
					C751.3,355.5,749.7,353.8,749.7,351z"/>
				<path fill="#231F20" d="M758,346.7h2.5c1.9,0,3.2,0.6,3.2,2.5c0,1.8-1.3,2.7-3.2,2.7h-1.4v3.4H758V346.7z M760.4,351
					c1.5,0,2.2-0.6,2.2-1.8c0-1.2-0.8-1.6-2.3-1.6h-1.2v3.4H760.4z"/>
				<path fill="#231F20" d="M765.7,346.7h1.1v8.6h-1.1V346.7z"/>
			</g>
			<path fill="#73B564" d="M716.3,351.3c0,4.8-3.9,8.6-8.6,8.6c-4.8,0-8.6-3.9-8.6-8.6"/>
			<path fill="#7F58A5" d="M699.1,351.3c0-4.8,3.9-8.6,8.6-8.6c4.8,0,8.6,3.9,8.6,8.6"/>
		</g>
		<g>
			<g>
				<path fill="#231F20" d="M726.6,377.2h2.5c1.9,0,3.2,0.6,3.2,2.5c0,1.8-1.3,2.7-3.2,2.7h-1.4v3.4h-1.1V377.2z M729,381.5
					c1.5,0,2.2-0.6,2.2-1.8c0-1.2-0.8-1.6-2.3-1.6h-1.2v3.4H729z"/>
				<path fill="#231F20" d="M734.4,377.2h2.5c1.9,0,3.2,0.6,3.2,2.5c0,1.8-1.3,2.7-3.2,2.7h-1.4v3.4h-1.1V377.2z M736.7,381.5
					c1.5,0,2.2-0.6,2.2-1.8c0-1.2-0.8-1.6-2.3-1.6h-1.2v3.4H736.7z"/>
				<path fill="#231F20" d="M742.1,377.2h1.1v8.6h-1.1V377.2z"/>
			</g>
			<path fill="#0C56AB" d="M716.3,381.8c0,4.8-3.9,8.6-8.6,8.6c-4.8,0-8.6-3.9-8.6-8.6"/>
			<path fill="#0C56AB" d="M699.1,381.8c0-4.8,3.9-8.6,8.6-8.6c4.8,0,8.6,3.9,8.6,8.6"/>
		</g>
		<g>
			<g>
				<path fill="#231F20" d="M734.4,410.7c0,0.3,0,0.6,0,0.9c0.4,2.3,1,3.7,2.3,4.9c-0.2,0.2-0.4,0.4-0.6,0.7c-1-1-1.6-2.1-2-3.6
					c-0.3,1.2-0.9,2.5-1.9,3.6c-0.1-0.2-0.4-0.5-0.6-0.6l0,0c-0.2,0-0.6,0-1,0h-2.6c-1.2,0-1.7-0.4-1.7-1.7v-7H726v-0.8h5.7v0.8
					h-4.5v7c0,0.7,0.2,1,0.8,1h2.6c0.3,0,0.8,0,1.1-0.1c0,0.2,0,0.4,0.1,0.6c1.6-1.8,1.8-4.1,1.8-5.7v-0.8h0.8V410.7z M727.6,412.1
					h1.8v3h-1.8V412.1z M731,411.3h-3v-2.6h3V411.3z M728.1,414.5h0.8v-1.8h-0.8V414.5z M730.3,409.3h-1.6v1.5h1.6V409.3z
					 M731.6,415.1h-1.8v-2.9h1.8V415.1z M731.1,412.7h-0.8v1.8h0.8V412.7z M733.1,409.2c-0.3,0.9-0.6,1.7-1,2.4
					c-0.2-0.1-0.5-0.4-0.7-0.5c0.8-1.1,1.2-2.8,1.5-4.6l0.8,0.1c-0.1,0.6-0.2,1.2-0.3,1.8h2.8l0.1,0l0.6,0.2c-0.2,1-0.5,2.3-0.8,3
					l-0.7-0.2c0.2-0.6,0.4-1.4,0.6-2.2H733.1z"/>
				<path fill="#231F20" d="M740,411.6c-0.4-0.4-1.3-0.9-2-1.2l0.5-0.6c0.7,0.3,1.5,0.8,2,1.1L740,411.6z M738.2,416.7
					c0.5-0.9,1.1-2.4,1.6-3.7l0.7,0.5c-0.4,1.2-1,2.7-1.5,3.7L738.2,416.7z M740.4,408.6c-0.4-0.4-1.2-0.9-1.9-1.3l0.5-0.6
					c0.6,0.3,1.5,0.9,1.9,1.2L740.4,408.6z M742.3,406.8h0.8v4.1c0,2.3-0.2,4.6-1.7,6.4c-0.2-0.2-0.5-0.4-0.7-0.5
					c1.4-1.7,1.6-3.8,1.6-5.9V406.8z M741.5,413c-0.1-0.8-0.5-1.9-0.8-2.8l0.7-0.2c0.4,0.9,0.7,2,0.8,2.8L741.5,413z M743.8,410
					c0.4,0.8,0.7,1.9,0.8,2.6l-0.6,0.2c-0.1-0.7-0.4-1.8-0.8-2.6L743.8,410z M748.2,406.8v10.5h-0.8v-4.7l-0.6,0.3
					c-0.2-0.7-0.7-1.8-1.1-2.6v6.8h-0.8v-10h0.8v3.1l0.5-0.2c0.5,0.8,1,1.9,1.2,2.6v-5.7H748.2z"/>
				<path fill="#231F20" d="M750.7,412.7c0-2.3,0.6-4.2,1.7-6l0.7,0.3c-1,1.7-1.5,3.7-1.5,5.7s0.5,4,1.5,5.7l-0.7,0.3
					C751.3,416.9,750.7,415,750.7,412.7z"/>
				<path fill="#231F20" d="M758.1,407.3c-0.4,1-0.8,2.1-1.3,3c0.9,1,1.1,1.8,1.1,2.5c0,0.6-0.1,1.1-0.5,1.4
					c-0.2,0.1-0.4,0.2-0.6,0.2c-0.2,0-0.6,0-0.8,0c0-0.2-0.1-0.6-0.2-0.8c0.3,0,0.5,0,0.7,0c0.2,0,0.3,0,0.4-0.1
					c0.2-0.1,0.3-0.4,0.3-0.8c0-0.6-0.2-1.4-1.1-2.4c0.4-0.8,0.7-1.9,1-2.6h-1.5v9.4h-0.8V407h2.6l0.1,0L758.1,407.3z M760.2,414
					c-0.5,0.9-1.1,1.9-1.7,2.6c-0.1-0.1-0.5-0.4-0.7-0.5c0.6-0.6,1.2-1.5,1.6-2.3L760.2,414z M762.4,406.7c-0.1,0.2-0.2,0.3-0.3,0.4
					c1,1.2,2.1,2,3.2,2.6c-0.2,0.2-0.5,0.4-0.6,0.7c-1-0.7-2-1.4-3-2.7c-0.9,1.1-2,2.1-3.2,2.8c-0.1-0.2-0.4-0.5-0.6-0.6
					c1.5-0.8,2.9-2.1,3.7-3.5L762.4,406.7z M762.1,413.1v3.1c0,0.5-0.1,0.7-0.4,0.9c-0.3,0.1-0.9,0.2-1.7,0.2c0-0.2-0.2-0.6-0.3-0.8
					c0.7,0,1.2,0,1.4,0c0.2,0,0.2-0.1,0.2-0.2v-3.1h-3.1v-0.8h3.1v-1.4h-2v-0.8h4.6v0.8h-1.8v1.4h2.9v0.8H762.1z M763.5,413.6
					c0.7,0.8,1.4,1.8,1.7,2.4l-0.7,0.4c-0.3-0.7-1-1.7-1.7-2.4L763.5,413.6z"/>
				<path fill="#231F20" d="M777.1,413v0.8H772c-0.4,1.4-1.7,2.6-5,3.4c-0.1-0.2-0.3-0.5-0.5-0.7c3-0.7,4.2-1.6,4.6-2.7h-4.5V413
					h1.3v-2.9h3.5V409h0.9v1.1h3.7v2.9H777.1z M769,408.5h-2.2v-0.8h2.2v-1.2h0.9v1.2h1.6v0.8h-1.6v1.2H769V408.5z M771.2,413
					c0-0.3,0-0.5,0-0.8v-1.3h-2.6v2.1H771.2z M772.4,414.1c1.6,0.6,3.6,1.7,4.7,2.4l-0.4,0.7c-1-0.7-3.1-1.8-4.7-2.5L772.4,414.1z
					 M773.8,408.5h-1.8v-0.8h1.8v-1.2h0.9v1.2h2.1v0.8h-2.1v1.1h-0.9V408.5z M772.2,412.2c0,0.3,0,0.5,0,0.8h2.8v-2.1h-2.8V412.2z"
					/>
				<path fill="#231F20" d="M788.7,407.1v10.2h-0.9v-0.5h-8.1v0.5H779v-10.2H788.7z M787.9,416v-8.1h-8.1v8.1H787.9z M783.9,414.2
					c-1.2,0.2-2.5,0.5-3.4,0.7l-0.1-0.7c0.9-0.1,2.2-0.4,3.5-0.6L783.9,414.2z M786.8,410.7c-0.3,1.1-0.7,2.1-1.3,2.9
					c0.2,0.6,0.6,1,1,1.1c0.2,0,0.3-0.5,0.4-1.2c0.1,0.1,0.4,0.3,0.6,0.4c-0.2,1.3-0.6,1.8-1.2,1.5c-0.5-0.1-0.9-0.5-1.2-1.1
					c-0.5,0.5-1,1-1.6,1.4c-0.1-0.1-0.4-0.4-0.5-0.6c0.7-0.4,1.3-0.9,1.8-1.5c-0.3-0.9-0.5-2.1-0.6-3.5h-3.6v-0.7h3.5
					c0-0.4-0.1-0.8-0.1-1.2h0.8c0,0.4,0,0.8,0.1,1.2h2.6v0.7h-2.5c0.1,1,0.2,2,0.4,2.7c0.4-0.6,0.7-1.4,0.9-2.2L786.8,410.7z
					 M783.5,410.8v2.3h-2.6v-2.3H783.5z M782.8,411.3h-1.4v1.2h1.4V411.3z M786.6,409.3c-0.3-0.3-0.8-0.6-1.3-0.8l0.4-0.4
					c0.5,0.2,1,0.5,1.3,0.8L786.6,409.3z"/>
				<path fill="#231F20" d="M795.6,408.3l0.6,0.2c-0.6,4.6-2.4,7.4-4.9,8.8c-0.1-0.2-0.5-0.6-0.7-0.7c1.4-0.7,2.5-1.8,3.3-3.4
					c-0.4-0.6-1.2-1.3-1.9-2c-0.2,0.4-0.5,0.8-0.7,1.1c-0.1-0.2-0.5-0.4-0.7-0.6c1.1-1.2,1.8-3.2,2.2-5.2l0.9,0.2
					c-0.1,0.6-0.3,1.1-0.4,1.6h2.2L795.6,408.3z M792.9,409.1c-0.2,0.5-0.4,0.9-0.6,1.3c0.7,0.6,1.4,1.2,1.9,1.8
					c0.4-0.9,0.7-2,0.9-3.2H792.9z M798.4,410.1c1,0.8,2.3,1.9,2.9,2.7l-0.7,0.6c-0.5-0.7-1.6-1.7-2.5-2.4v6.4h-0.9v-10.7h0.9v3.8
					L798.4,410.1z"/>
				<path fill="#231F20" d="M802.6,418.4c1-1.7,1.5-3.7,1.5-5.7s-0.5-4-1.5-5.7l0.7-0.3c1.1,1.8,1.7,3.7,1.7,6c0,2.3-0.6,4.2-1.7,6
					L802.6,418.4z"/>
				<path fill="#231F20" d="M731,431.4v5.5h-0.8v-1.2c-1.4,0.2-2.9,0.4-4,0.5l-0.1-0.8c0.3,0,0.7-0.1,1.1-0.1v-4h-1v-0.7h10.3v0.7
					H731z M728.4,430.1h-0.8v-3.5h7.6v3.5h-0.9v-2.9h-5.9V430.1z M730.1,431.4H728v0.8h2.2V431.4z M730.1,432.8H728v0.8h2.2V432.8z
					 M728,435.2c0.7-0.1,1.4-0.2,2.2-0.3v-0.7H728V435.2z M733.7,428.4h-4.8v-0.6h4.8V428.4z M728.9,429.7v-0.6h4.7v0.6H728.9z
					 M736.1,432.3c-0.4,1.1-1,2-1.7,2.7c0.6,0.5,1.4,0.8,2.3,1.1c-0.2,0.2-0.4,0.5-0.5,0.7c-0.9-0.3-1.7-0.7-2.4-1.2
					c-0.7,0.6-1.6,1-2.4,1.3c-0.1-0.2-0.3-0.5-0.5-0.7c0.8-0.2,1.6-0.6,2.3-1.1c-0.6-0.6-1-1.3-1.4-2.1l0.2-0.1h-0.7v-0.7h4l0.2,0
					L736.1,432.3z M732.7,432.8c0.3,0.6,0.7,1.2,1.2,1.7c0.5-0.5,0.9-1.1,1.2-1.7H732.7z"/>
				<path fill="#231F20" d="M741.2,431.7c-0.3,1.1-0.7,2.2-1.2,3.1c0.2,0.1,0.5,0.3,0.8,0.6c0.8,0.5,1.9,0.6,3.2,0.6
					c1.5,0,3.4-0.1,4.7-0.2c-0.1,0.2-0.2,0.6-0.3,0.9c-0.9,0.1-3.1,0.1-4.4,0.1c-1.5,0-2.5-0.1-3.4-0.6c-0.5-0.3-0.9-0.7-1.2-0.7
					c-0.3,0-0.7,0.7-1,1.5l-0.6-0.8c0.5-0.7,1-1.2,1.4-1.4c0.4-0.7,0.7-1.6,0.9-2.4h-1.6c0.3-0.7,0.7-1.7,1-2.6h-1.6V429h2.6
					c-0.3,0.8-0.7,1.8-1,2.6h1l0.1,0L741.2,431.7z M739.4,428.4c-0.1-0.5-0.4-1.3-0.6-1.9l0.8-0.2c0.2,0.6,0.5,1.4,0.6,1.8
					L739.4,428.4z M743.3,430.4c-0.1,1.5-0.4,3.2-1.3,4.4c-0.2-0.2-0.5-0.4-0.7-0.5c1-1.4,1.2-3.5,1.2-5v-2.5c1.8-0.1,4-0.3,5.1-0.7
					l0.7,0.6c-1.3,0.4-3.2,0.6-5,0.7v1.8v0.2h5.3v0.8h-2.1v4.9h-0.9v-4.9H743.3z"/>
				<path fill="#231F20" d="M750.6,435.1h1.9v-6.4H751V428c0.8-0.1,1.3-0.3,1.8-0.6h0.8v7.7h1.7v0.9h-4.7V435.1z"/>
				<path fill="#231F20" d="M756.9,435.3c2.7-2.4,4-4.1,4-5.6c0-1-0.5-1.7-1.6-1.7c-0.7,0-1.3,0.4-1.8,1l-0.6-0.6
					c0.7-0.8,1.4-1.3,2.5-1.3c1.5,0,2.5,1,2.5,2.6c0,1.7-1.4,3.5-3.4,5.4c0.4,0,1-0.1,1.4-0.1h2.4v0.9h-5.4V435.3z"/>
				<path fill="#231F20" d="M766.8,426.4c-0.3,0.8-0.6,1.6-0.9,2.3v8.2h-0.8v-6.7c-0.4,0.6-0.7,1.1-1.1,1.6
					c-0.1-0.2-0.3-0.7-0.5-0.9c1-1.1,2-2.9,2.6-4.7L766.8,426.4z M774.1,426.8v9.9h-0.8v-0.6h-5.2v0.7h-0.8v-10H774.1z M773.2,435.4
					v-7.8h-5.2v7.8H773.2z M771,430v1.3h1.4v3.1H769v-3.1h1.3V430h-1.8v-0.7h1.8V428h0.7v1.3h1.8v0.7H771z M771.7,431.9h-2v1.8h2
					V431.9z"/>
				<path fill="#231F20" d="M784.9,435.6c0,0.6-0.2,0.9-0.6,1.1c-0.4,0.2-1.2,0.2-2.5,0.2c-0.1-0.2-0.2-0.7-0.4-0.9c1,0,1.9,0,2.2,0
					c0.3,0,0.4-0.1,0.4-0.4v-2.4h-5.6c-0.3,1.3-0.9,2.7-2,3.7c-0.1-0.2-0.5-0.5-0.6-0.6c1.9-1.6,2.1-4,2.1-5.9v-3.6h7.2V435.6z
					 M784,432.4v-2h-5.4c0,0.6,0,1.3-0.1,2H784z M778.6,427.6v2h5.4v-2H778.6z"/>
				<path fill="#231F20" d="M789.8,431.4c-0.4-0.4-1.3-0.9-2.1-1.3l0.4-0.7c0.7,0.3,1.6,0.8,2.1,1.2L789.8,431.4z M788,436.1
					c0.6-0.9,1.4-2.4,2.1-3.6l0.6,0.6c-0.6,1.2-1.3,2.6-2,3.6L788,436.1z M790.4,428.3c-0.4-0.4-1.3-1-2-1.4l0.4-0.6
					c0.7,0.3,1.6,0.9,2.1,1.3L790.4,428.3z M798.6,432.3h-1v1.8h-2.8v1.6c0,0.5-0.1,0.7-0.4,0.9c-0.4,0.1-0.9,0.1-1.8,0.1
					c0-0.2-0.2-0.6-0.3-0.8c0.7,0,1.3,0,1.5,0c0.2,0,0.2-0.1,0.2-0.2v-1.6h-2.7v-0.7h2.7v-1.1h-3.3v-0.8h3.3v-1h-2.6v-0.7h6.2v1.8h1
					V432.3z M797.7,426.8c-1.7,0.5-4.3,0.8-6.4,0.9c0-0.2-0.1-0.5-0.2-0.7c2.1-0.2,4.7-0.5,6-0.9L797.7,426.8z M792.1,429.7
					c-0.1-0.4-0.3-1-0.6-1.5l0.6-0.2c0.3,0.4,0.6,1,0.7,1.4L792.1,429.7z M794.3,429.6c-0.1-0.4-0.3-1.1-0.6-1.6l0.7-0.2
					c0.3,0.5,0.5,1.2,0.6,1.6L794.3,429.6z M794.9,431.6h2v-1h-2V431.6z M796.9,432.3h-2v1.1h2V432.3z M796,429.3
					c0.3-0.5,0.7-1.3,0.9-1.8l0.8,0.3c-0.3,0.6-0.7,1.3-1,1.8L796,429.3z"/>
				<path fill="#231F20" d="M803.4,429.7h2.4v0.8h-2.4v0.3c0.6,0.5,1.9,1.9,2.3,2.2l-0.5,0.7c-0.4-0.4-1.1-1.3-1.8-2v5.1h-0.9v-5
					c-0.6,1.3-1.4,2.6-2.2,3.4c-0.1-0.2-0.3-0.6-0.5-0.8c0.9-0.9,2-2.5,2.5-4h-2.3v-0.8h2.5v-2c-0.8,0.2-1.5,0.3-2.3,0.4
					c0-0.2-0.2-0.5-0.3-0.7c1.7-0.3,3.8-0.7,4.9-1.1l0.6,0.7c-0.6,0.2-1.3,0.4-2.1,0.6V429.7z M807.6,434h-0.9v-6.4h0.9V434z
					 M810.1,426.3v9.4c0,0.6-0.2,0.9-0.5,1c-0.4,0.2-1,0.2-2.1,0.2c-0.1-0.2-0.2-0.6-0.3-0.9c0.8,0,1.6,0,1.8,0
					c0.2,0,0.3-0.1,0.3-0.3v-9.4H810.1z"/>
				<path fill="#231F20" d="M822.6,434.4h-4.8v2.5h-0.9v-2.5h-4.8v-0.8h4.8v-1h0.9v1h4.8V434.4z M815.2,431.3
					c-0.9,0.5-1.8,1-2.6,1.4l-0.4-0.7c0.7-0.3,1.8-0.8,2.9-1.3L815.2,431.3z M819.3,432.8c-0.1-0.2-0.2-0.4-0.3-0.6
					c-3.1,0.3-3.5,0.4-3.7,0.5c0-0.2-0.2-0.6-0.3-0.8c0.3,0,0.6-0.3,1-0.6c0.2-0.2,0.7-0.6,1.3-1.2c-1.4,0.1-1.6,0.2-1.8,0.2
					c0-0.2-0.2-0.6-0.2-0.7c0.2,0,0.3-0.2,0.5-0.4c0.2-0.2,0.6-0.6,0.9-1.2h-4.3v-0.8h4.8c-0.2-0.3-0.4-0.6-0.5-0.9l0.8-0.2
					c0.3,0.3,0.5,0.8,0.7,1.1h4.4v0.8h-5c-0.4,0.5-0.7,1-1.1,1.4l1.5-0.1c0.3-0.3,0.6-0.6,0.8-1l0.7,0.4c-0.9,1.1-2,2.1-3,2.9
					l2.1-0.2c-0.2-0.3-0.4-0.5-0.6-0.8l0.6-0.3c0.5,0.6,1.1,1.4,1.4,2L819.3,432.8z M813.1,428.5c0.6,0.4,1.4,0.9,1.8,1.3l-0.6,0.5
					c-0.4-0.4-1.1-1-1.8-1.4L813.1,428.5z M821.7,432.8c-0.5-0.5-1.5-1.2-2.3-1.6l0.6-0.5c0.8,0.4,1.8,1.1,2.3,1.6L821.7,432.8z
					 M821.9,428.9c-0.5,0.5-1.2,1.1-1.8,1.5l-0.6-0.4c0.5-0.4,1.3-1,1.7-1.5L821.9,428.9z"/>
				<path fill="#231F20" d="M824.6,432.3c0-2.3,0.6-4.2,1.7-6l0.7,0.3c-1,1.7-1.5,3.7-1.5,5.7s0.5,4,1.5,5.7l-0.7,0.3
					C825.3,436.5,824.6,434.6,824.6,432.3z"/>
				<path fill="#231F20" d="M832.7,429.2c-0.3,0.8-0.7,1.6-1.1,2.3h6.3v5.4h-0.9v-0.6h-5.2v0.7H831v-4.5c-0.6,0.8-1.3,1.6-2.2,2.2
					c-0.1-0.2-0.4-0.5-0.6-0.7c1.7-1.1,2.8-2.8,3.5-4.7h-3.2v-0.8h3.5c0.2-0.7,0.4-1.5,0.6-2.2l0.9,0.2c-0.2,0.7-0.3,1.4-0.6,2h5.8
					v0.8H832.7z M831.8,432.3v3.1h5.2v-3.1H831.8z"/>
				<path fill="#231F20" d="M843.3,434.1h2.1v0.8h-2.1v2h-0.8v-2h-2.2v-0.8h2.2v-1h-1.7V429h1.7v-0.9h-2v-0.8h2v-1.3h0.8v1.3h2v0.8
					h-2v0.9h1.8v4.1h-1.8V434.1z M841.5,430.7h1.1v-1h-1.1V430.7z M841.5,432.4h1.1v-1.1h-1.1V432.4z M844.4,429.7h-1.2v1h1.2V429.7
					z M844.4,431.4h-1.2v1.1h1.2V431.4z M850.8,428.6v8.2H850v-0.6h-3.5v0.6h-0.8v-8.2h2.1v-2.5h0.8v2.5H850.8z M846.5,429.4v2.5
					h1.3v-2.5H846.5z M846.5,435.4h1.3v-2.7h-1.3V435.4z M850,429.4h-1.4v2.5h1.4V429.4z M850,435.4v-2.7h-1.4v2.7H850z"/>
				<path fill="#231F20" d="M852.4,438c1-1.7,1.5-3.7,1.5-5.7s-0.5-4-1.5-5.7l0.7-0.3c1.1,1.8,1.7,3.7,1.7,6c0,2.3-0.6,4.2-1.7,6
					L852.4,438z"/>
			</g>
			<path fill="#002A5E" d="M716.3,412.3c0,4.8-3.9,8.6-8.6,8.6c-4.8,0-8.6-3.9-8.6-8.6"/>
			<path fill="#002A5E" d="M699.1,412.3c0-4.8,3.9-8.6,8.6-8.6c4.8,0,8.6,3.9,8.6,8.6"/>
		</g>
		<polygon fill="#73B564" points="464.4,235.6 469.3,229.1 472,232.4 478.7,235.1 		"/>
		<g>
			<path fill="#231F20" d="M46.8,153.1l3.3-4.5H52v4.8h1.3v1.3H52v1.7h-1.4v-1.7h-3.7V153.1z M50.5,150l-2.4,3.3h2.4V150z"/>
		</g>
		<g>
			<path fill="#231F20" d="M52.4,110.3c-0.3-0.2-0.7-0.3-1.3-0.3c-1.5,0-2.5,1-2.6,2.5c0.4-0.6,1.1-0.9,2-0.9c1.5,0,2.6,1,2.6,2.6
				c0,1.6-1.3,2.7-2.9,2.7c-2,0-3.1-1.6-3.1-3.6c0-2.8,1.8-4.5,4.2-4.5c0.7,0,1.3,0.2,1.6,0.4L52.4,110.3z M50.1,115.7
				c0.8,0,1.5-0.5,1.5-1.4c0-0.9-0.7-1.4-1.5-1.4s-1.5,0.5-1.5,1.4C48.6,115.1,49.3,115.7,50.1,115.7z"/>
		</g>
		<g>
			<path fill="#231F20" d="M46.9,75c0-0.9,0.6-1.6,1.4-1.9c-0.7-0.3-1.3-1-1.3-1.8c0-1.3,1.1-2.2,2.7-2.2s2.7,0.9,2.7,2.2
				c0,0.8-0.5,1.5-1.3,1.8c0.8,0.3,1.4,1,1.4,1.9c0,1.3-1.1,2.2-2.9,2.2C48,77.3,46.9,76.3,46.9,75z M51.3,74.9
				c0-0.6-0.5-1.2-1.5-1.2c-0.9,0-1.4,0.6-1.4,1.2c0,0.6,0.5,1.2,1.4,1.2C50.7,76.1,51.3,75.5,51.3,74.9z M51.1,71.4
				c0-0.6-0.5-1.1-1.3-1.1s-1.3,0.5-1.3,1.1c0,0.6,0.5,1.1,1.3,1.1C50.6,72.6,51.1,72.1,51.1,71.4z"/>
		</g>
		<g>
			<path fill="#231F20" d="M48.6,37.5v-5.3h-1.9v-1c1.1,0,1.9-0.6,2-1.5H50v7.7H48.6z"/>
			<path fill="#231F20" d="M52.5,30.8c0.5-0.8,1.3-1.3,2.5-1.3c1.2,0,2,0.5,2.5,1.3c0.5,0.8,0.7,1.8,0.7,2.8s-0.2,2-0.7,2.8
				c-0.5,0.8-1.3,1.3-2.5,1.3c-1.2,0-2-0.5-2.5-1.3c-0.5-0.8-0.7-1.8-0.7-2.8S52,31.6,52.5,30.8z M53.8,35.8
				c0.3,0.3,0.6,0.6,1.2,0.6s0.9-0.2,1.2-0.6c0.4-0.5,0.5-1.2,0.5-2.2s-0.2-1.7-0.5-2.2c-0.3-0.3-0.6-0.6-1.2-0.6s-0.9,0.2-1.2,0.6
				c-0.4,0.5-0.5,1.2-0.5,2.2S53.4,35.3,53.8,35.8z"/>
		</g>
		<g>
			<path fill="#231F20" d="M47.5,191c0-0.1,0-0.3,0-0.4c0-1.3,1-2.5,2.8-2.5c1.7,0,2.7,1.1,2.7,2.4c0,1-0.6,1.8-1.5,2.4l-1.5,0.9
				c-0.4,0.2-0.7,0.5-0.8,0.9H53v1.3h-5.6c0-1.3,0.5-2.4,1.8-3.2l1.3-0.8c0.7-0.4,1-0.9,1-1.5c0-0.6-0.4-1.2-1.3-1.2
				c-0.9,0-1.4,0.6-1.4,1.4c0,0.1,0,0.3,0,0.4L47.5,191z"/>
		</g>
		<g>
			<path fill="#231F20" d="M42.8,272.3v-1.2h3.4v1.2H42.8z"/>
			<path fill="#231F20" d="M47.5,270.2c0-0.1,0-0.3,0-0.4c0-1.3,1-2.5,2.8-2.5c1.7,0,2.7,1.1,2.7,2.4c0,1-0.6,1.8-1.5,2.4L50,273
				c-0.4,0.2-0.7,0.5-0.8,0.9H53v1.3h-5.6c0-1.3,0.5-2.4,1.8-3.2l1.3-0.8c0.7-0.4,1-0.9,1-1.5c0-0.6-0.4-1.2-1.3-1.2
				c-0.9,0-1.4,0.6-1.4,1.4c0,0.1,0,0.3,0,0.4L47.5,270.2z"/>
		</g>
		<g>
			<path fill="#231F20" d="M42.3,430.8v-1.2h3.4v1.2H42.3z"/>
			<path fill="#231F20" d="M48.4,433.7v-5.3h-1.9v-1c1.1,0,1.9-0.6,2-1.5h1.2v7.7H48.4z"/>
			<path fill="#231F20" d="M52.3,427c0.5-0.8,1.3-1.3,2.5-1.3c1.2,0,2,0.5,2.5,1.3c0.5,0.8,0.7,1.8,0.7,2.8s-0.2,2-0.7,2.8
				c-0.5,0.8-1.3,1.3-2.5,1.3c-1.2,0-2-0.5-2.5-1.3c-0.5-0.8-0.7-1.8-0.7-2.8S51.8,427.8,52.3,427z M53.6,432
				c0.3,0.3,0.6,0.6,1.2,0.6s0.9-0.2,1.2-0.6c0.4-0.5,0.5-1.2,0.5-2.2s-0.2-1.7-0.5-2.2c-0.3-0.3-0.6-0.6-1.2-0.6s-0.9,0.2-1.2,0.6
				c-0.4,0.5-0.5,1.2-0.5,2.2S53.2,431.5,53.6,432z"/>
		</g>
		<g>
			<path fill="#231F20" d="M42.3,391.2v-1.2h3.4v1.2H42.3z"/>
			<path fill="#231F20" d="M47,392c0-0.9,0.6-1.6,1.4-1.9c-0.7-0.3-1.3-1-1.3-1.8c0-1.3,1.1-2.2,2.7-2.2s2.7,0.9,2.7,2.2
				c0,0.8-0.5,1.5-1.3,1.8c0.8,0.3,1.4,1,1.4,1.9c0,1.3-1.1,2.2-2.9,2.2C48.1,394.2,47,393.3,47,392z M51.3,391.8
				c0-0.6-0.5-1.2-1.5-1.2c-0.9,0-1.4,0.6-1.4,1.2c0,0.6,0.5,1.2,1.4,1.2C50.8,393,51.3,392.5,51.3,391.8z M51.1,388.4
				c0-0.6-0.5-1.1-1.3-1.1s-1.3,0.5-1.3,1.1c0,0.6,0.5,1.1,1.3,1.1C50.6,389.5,51.1,389,51.1,388.4z"/>
		</g>
		<g>
			<path fill="#231F20" d="M42.3,351.5v-1.2h3.4v1.2H42.3z"/>
			<path fill="#231F20" d="M52.4,348.1c-0.3-0.2-0.7-0.3-1.3-0.3c-1.5,0-2.5,1-2.6,2.5c0.4-0.6,1.1-0.9,2-0.9c1.5,0,2.6,1,2.6,2.6
				c0,1.6-1.3,2.7-2.9,2.7c-2,0-3.1-1.6-3.1-3.6c0-2.8,1.8-4.5,4.2-4.5c0.7,0,1.3,0.2,1.6,0.4L52.4,348.1z M50.1,353.4
				c0.8,0,1.5-0.5,1.5-1.4c0-0.9-0.7-1.4-1.5-1.4s-1.5,0.5-1.5,1.4C48.6,352.8,49.4,353.4,50.1,353.4z"/>
		</g>
		<g>
			<path fill="#231F20" d="M42.3,311.9v-1.2h3.4v1.2H42.3z"/>
			<path fill="#231F20" d="M46.8,311.6l3.3-4.5H52v4.8h1.3v1.3H52v1.7h-1.4v-1.7h-3.7V311.6z M50.5,308.5l-2.4,3.3h2.4V308.5z"/>
		</g>
		<g>
			<path fill="#231F20" d="M47.3,228.9c0.5-0.8,1.3-1.3,2.5-1.3c1.2,0,2,0.5,2.5,1.3c0.5,0.8,0.7,1.8,0.7,2.8s-0.2,2-0.7,2.8
				c-0.5,0.8-1.3,1.3-2.5,1.3c-1.2,0-2-0.5-2.5-1.3c-0.5-0.8-0.7-1.8-0.7-2.8S46.7,229.7,47.3,228.9z M48.6,233.9
				c0.3,0.3,0.6,0.6,1.2,0.6s0.9-0.2,1.2-0.6c0.4-0.5,0.5-1.2,0.5-2.2s-0.2-1.7-0.5-2.2c-0.3-0.3-0.6-0.6-1.2-0.6s-0.9,0.2-1.2,0.6
				c-0.4,0.5-0.5,1.2-0.5,2.2S48.2,233.4,48.6,233.9z"/>
		</g>
		<g>
			<path fill="#231F20" d="M624,149.8c-0.6,0.5-2.8,2.5-3.2,6.5h-1.5c0.3-4.3,3-6.5,3-6.5h-4.2v-1.3h5.8V149.8z"/>
		</g>
		<g>
			<path fill="#231F20" d="M618.7,114.6c0-0.9,0.6-1.6,1.4-1.9c-0.7-0.3-1.3-1-1.3-1.8c0-1.3,1.1-2.2,2.7-2.2c1.6,0,2.7,0.9,2.7,2.2
				c0,0.8-0.5,1.5-1.3,1.8c0.8,0.3,1.4,1,1.4,1.9c0,1.3-1.1,2.2-2.9,2.2C619.8,116.9,618.7,115.9,618.7,114.6z M623,114.5
				c0-0.6-0.5-1.2-1.5-1.2c-0.9,0-1.4,0.6-1.4,1.2c0,0.6,0.5,1.2,1.4,1.2C622.5,115.7,623,115.1,623,114.5z M622.8,111
				c0-0.6-0.5-1.1-1.3-1.1c-0.8,0-1.3,0.5-1.3,1.1c0,0.6,0.5,1.1,1.3,1.1C622.3,112.2,622.8,111.7,622.8,111z"/>
		</g>
		<g>
			<path fill="#231F20" d="M619.2,75.6c0.3,0.2,0.9,0.4,1.4,0.4c1.6,0,2.5-1,2.6-2.4c-0.3,0.5-1,0.9-1.9,0.9c-1.4,0-2.7-1-2.7-2.6
				c0-1.6,1.3-2.7,2.9-2.7c1.6,0,3.1,1.1,3.1,3.6c0,2.8-1.3,4.5-4,4.5c-0.6,0-1.4-0.2-1.8-0.4L619.2,75.6z M621.5,70.4
				c-0.8,0-1.5,0.6-1.5,1.4c0,0.9,0.7,1.4,1.5,1.4c0.8,0,1.5-0.6,1.5-1.4C623,71,622.3,70.4,621.5,70.4z"/>
		</g>
		<g>
			<path fill="#231F20" d="M620.4,37.5v-5.3h-1.9v-1c1.1,0,1.9-0.6,2-1.5h1.2v7.7H620.4z"/>
			<path fill="#231F20" d="M624.3,30.8c0.5-0.8,1.3-1.3,2.5-1.3c1.2,0,2,0.5,2.5,1.3c0.5,0.8,0.7,1.8,0.7,2.8s-0.2,2-0.7,2.8
				c-0.5,0.8-1.3,1.3-2.5,1.3c-1.2,0-2-0.5-2.5-1.3c-0.5-0.8-0.7-1.8-0.7-2.8S623.8,31.6,624.3,30.8z M625.6,35.8
				c0.3,0.3,0.6,0.6,1.2,0.6s0.9-0.2,1.2-0.6c0.4-0.5,0.5-1.2,0.5-2.2s-0.2-1.7-0.5-2.2c-0.3-0.3-0.6-0.6-1.2-0.6s-0.9,0.2-1.2,0.6
				c-0.4,0.5-0.5,1.2-0.5,2.2S625.2,35.3,625.6,35.8z"/>
		</g>
		<g>
			<path fill="#231F20" d="M624.7,189.6c-0.3-0.2-0.7-0.3-1.3-0.3c-1.5,0-2.5,1-2.6,2.5c0.4-0.6,1.1-0.9,2-0.9c1.5,0,2.6,1,2.6,2.6
				c0,1.6-1.3,2.7-2.9,2.7c-2,0-3.1-1.6-3.1-3.6c0-2.8,1.8-4.5,4.2-4.5c0.7,0,1.3,0.2,1.6,0.4L624.7,189.6z M622.4,194.9
				c0.8,0,1.5-0.5,1.5-1.4c0-0.9-0.7-1.4-1.5-1.4c-0.8,0-1.5,0.5-1.5,1.4C620.9,194.3,621.6,194.9,622.4,194.9z"/>
		</g>
		<g>
			<path fill="#231F20" d="M614.5,271.9l3.3-4.5h1.8v4.8h1.3v1.3h-1.3v1.7h-1.4v-1.7h-3.7V271.9z M618.2,268.9l-2.4,3.3h2.4V268.9z"
				/>
		</g>
		<g>
			<path fill="#231F20" d="M614.7,427c0.5-0.8,1.3-1.3,2.5-1.3c1.2,0,2,0.5,2.5,1.3c0.5,0.8,0.7,1.8,0.7,2.8s-0.2,2-0.7,2.8
				c-0.5,0.8-1.3,1.3-2.5,1.3c-1.2,0-2-0.5-2.5-1.3c-0.5-0.8-0.7-1.8-0.7-2.8S614.2,427.8,614.7,427z M616,432
				c0.3,0.3,0.6,0.6,1.2,0.6s0.9-0.2,1.2-0.6c0.4-0.5,0.5-1.2,0.5-2.2s-0.2-1.7-0.5-2.2c-0.3-0.3-0.6-0.6-1.2-0.6s-0.9,0.2-1.2,0.6
				c-0.4,0.5-0.5,1.2-0.5,2.2S615.6,431.5,616,432z"/>
		</g>
		<g>
			<path fill="#231F20" d="M615.7,394v-5.3h-1.9v-1c1.1,0,1.9-0.6,2-1.5h1.2v7.7H615.7z"/>
		</g>
		<g>
			<path fill="#231F20" d="M614,349.5c0-0.1,0-0.3,0-0.4c0-1.3,1-2.5,2.8-2.5c1.7,0,2.7,1.1,2.7,2.4c0,1-0.6,1.8-1.5,2.4l-1.5,0.9
				c-0.4,0.2-0.7,0.5-0.8,0.9h3.8v1.3h-5.6c0-1.3,0.5-2.4,1.8-3.2l1.3-0.8c0.7-0.4,1-0.9,1-1.5c0-0.6-0.4-1.2-1.3-1.2
				c-0.9,0-1.4,0.6-1.4,1.4c0,0.1,0,0.3,0,0.4L614,349.5z"/>
		</g>
		<g>
			<path fill="#231F20" d="M615.4,310.2l2.1-1.9H614v-1.3h5.4v1.2l-2.1,1.8c1.2,0,2.3,0.9,2.3,2.4c0,1.3-1.1,2.5-2.9,2.5
				c-1.8,0-2.9-1.2-3-2.5l1.4-0.3c0,0.9,0.7,1.5,1.5,1.5c0.9,0,1.5-0.6,1.5-1.3c0-0.9-0.7-1.3-1.4-1.3c-0.4,0-0.6,0.1-0.7,0.1
				L615.4,310.2z"/>
		</g>
		<g>
			<path fill="#231F20" d="M619.5,233.1c0.1,0.8,0.7,1.4,1.6,1.4c0.8,0,1.5-0.5,1.5-1.4c0-1-0.7-1.4-1.5-1.4c-0.5,0-1,0.2-1.3,0.5
				l-1.4-0.5l1-3.9h4.2v1.3h-3.3l-0.5,2c0.3-0.3,0.9-0.5,1.5-0.5c1.5,0,2.7,1,2.7,2.6c0,1.5-1.1,2.7-2.9,2.7c-1.7,0-2.8-1.1-2.9-2.3
				L619.5,233.1z"/>
		</g>
		
			<path fill="none" stroke="#0C56AB" stroke-width="1.5" stroke-linecap="round" stroke-linejoin="round" stroke-miterlimit="10" d="
			M77.9,223.9l3,1.3l12.3-19.9l7.3,11.1l1.1,5.3l5.9,3.5l4,7.2l3.3,9.7c0,0,2,9.8,2.3,10.6s3,9.6,3,9.6s1.8,7.6,2.5,8.3
			s5.8,7.6,5.8,7.6l5.5-9.3l2.5-9.1l2.8-13.9l4-24.2l5-22.7l3.8-37.3l3.3-8.8h3.3l3-12.6h5v-12.1l5.5-4.8l2.3,1.3v18.4l7.1,11.8
			l5,13.1l4.5,24.4l2.3,8.3l1.5,19.9v18.9l1.3,8.1l1.3,3.3l4.8-1.5l6.3-4.5c0,0,3.8,6.5,4,5.8s4.5-9.3,4.5-9.3l2.3-11.3l2.8-11.8
			l2.5-2.8L226,204c0,0,4.8-18.4,5.5-17.9s2.3,11.8,2.3,11.8v9.3l3.3,4.8l5-4l3.3,7.1l3.3-7.8l1.8,9.3l2,9.6l2,9.4l3.3-1.8v-11.1
			l3.5-35l3.5-6.3l4.8-13.1v-11.9l2.5,2.6l2.3,3l2.3-4.5v-6.5l6-3l3.3,7.1v9.6l2.3-8.2l2.5-2.4l6.3-2.5l4.5-6l2-12.3v-6.5l6.3-3
			l1-6.7l5.8,2.9l1.3,5.5l1.8,16.6l2,16.4l2.8-1.9l3,11.2v12.8l4.5,9.1v9.6l6.7-4.5l1.1,8.6l3,2.5l1.2-5.5v-21.4l3.8-29l4.5-9.1
			l4.5-20.7l4-19.4l2.3-25.9l2.3-16.9l2.5,20.7l3.5,17.1l1.3,17.4V135l2,32.9l2,54.5l5.8,77.6l3.8,54.4l3.3,38l3-10.3l2.3-0.8
			c0,0,2-21.2,2-21.9s2-16.9,2-16.9l3.3-51.4l5.9-71.5l4.2-43.6l2.8-9.8l2.3-8.6l2.3-5.5l4.3-2.5l2.8-21.4l2.6-15.4l5.2-5.3
			l2.3,19.4l4.5-6.8l8.3,9.1l1.5,19.6l7.6,15.4v14.4l6.8,17.4l3-17.9l5.8,11.3l5.8,17.6l3.3,25.4l2,11.7l1.8-10.1l5.5,20.2h2.5
			l2.3,6.5l3.8-9.6l3,16.9l3.5-0.8l4.3-14.4l4,11.8l8.1-0.3l2.8,40.8l6.3-27h7.3l4,21.2l4.8-5l4,1.5l1.5,18.8l3.4,6.1l15.2-91.2
			l6-81.9l3.3,4.8l3.8,3.7v21.8l2,8.3"/>
		
			<polyline fill="none" stroke="#002A5E" stroke-width="1.5" stroke-linecap="round" stroke-linejoin="round" stroke-miterlimit="10" points="
			77.9,280.8 101.7,280.8 101.7,258 125,260.2 127.9,246.1 152,246.1 154.6,221.8 159,219.2 168.3,216.9 171,210.2 176.2,210.2 
			178.2,182.5 182.9,182.5 185.5,185.4 195.1,185.7 197.2,192.4 201.5,193 203.3,319.8 214.4,326.2 214.4,356.5 219.6,356.5 
			221.7,392.5 231.6,389.1 232.7,368.1 238,368.1 240.3,385 244.7,385.3 246.1,330.2 250.8,329.7 252.8,266.4 257.2,264.1 
			258.7,249.5 263.6,248.9 263.6,239.9 269.4,238.2 270.6,221.6 276.1,218.1 277.9,197.7 282.8,195.9 282.8,178.7 287.5,177 
			289.5,160.9 293.5,160.9 295.7,148.1 301.6,145.3 303,136.5 307.6,136.5 307.6,128 313.4,128 314.9,116.7 319.6,116.7 
			320.7,108.8 325.1,107.3 328,101.2 333.3,101.2 333.3,86.4 338.8,86.4 340,75.6 344.1,71.8 345.8,65.7 350.4,65.7 353.4,81.1 
			357.7,82.6 361,100.5 364.7,101.8 364.7,118.4 369.7,118.4 372.9,135 376.4,137.6 378.8,269.3 382.8,269.1 382.8,292.1 
			386.9,292.4 392.1,343.9 394.7,347.7 397.3,356.9 401.2,356.5 403.2,249.5 408.3,246.6 408.3,219.7 414.3,216.6 416,194.5 
			420.1,192.1 420.1,177 426.5,174.6 428,146.7 432.3,144.6 436.4,139.7 441.4,136.2 444.6,137.6 444.6,145.8 446.9,164.2 
			451.6,163.9 451.6,222.4 461.5,223.3 464.4,229.1 464.4,246.3 470.5,247.2 472,232.4 477.2,232.4 477.2,245.2 485.5,244.1 
			491.8,244.3 495.6,243.1 497.3,232.4 502.6,232.4 507.9,238.5 517.7,237.9 525.9,246.6 527.3,227.1 532.9,225.1 532.9,215.1 
			536.4,214.9 539.3,207.9 545.1,207.3 548,221.3 550.9,221.8 552.7,237.3 556.8,237.6 556.8,242.2 562.9,243.1 566.7,248.4 
			572.2,248.7 576.9,230.3 578.6,208.4 581.8,208.2 583,195.9 587.1,195.9 590.8,177.6 		"/>
		<g>
			<g>
				<path fill="#7F58A5" d="M478.8,99.5h2.3v0.8h-2.3v0.3c0.5,0.5,1.8,1.8,2.1,2.1l-0.5,0.7c-0.3-0.4-1.1-1.2-1.6-1.8v4.8H478v-4.7
					c-0.6,1.3-1.3,2.5-2.1,3.2c-0.1-0.2-0.3-0.6-0.5-0.8c0.9-0.8,1.8-2.3,2.4-3.7h-2.2v-0.8h2.3v-1.9c-0.7,0.1-1.4,0.3-2.1,0.4
					c0-0.2-0.2-0.5-0.3-0.7c1.6-0.2,3.5-0.6,4.6-1.1l0.6,0.6c-0.5,0.2-1.2,0.4-2,0.6V99.5z M482.7,103.6h-0.8v-6h0.8V103.6z
					 M485,96.3v8.8c0,0.6-0.2,0.8-0.5,0.9c-0.4,0.1-1,0.2-2,0.2c-0.1-0.2-0.2-0.6-0.3-0.8c0.8,0,1.5,0,1.7,0c0.2,0,0.3-0.1,0.3-0.3
					v-8.8H485z"/>
				<path fill="#7F58A5" d="M488.6,100.9c-0.4-0.3-1.2-0.8-1.8-1.1l0.5-0.6c0.6,0.3,1.4,0.7,1.8,1L488.6,100.9z M487,105.7
					c0.4-0.8,1.1-2.3,1.5-3.5l0.7,0.4c-0.4,1.1-1,2.5-1.4,3.5L487,105.7z M487.7,96.3c0.6,0.3,1.4,0.8,1.7,1.1l-0.5,0.7
					c-0.4-0.4-1.1-0.9-1.7-1.2L487.7,96.3z M490.3,100.3v5.9h-0.8v-9.6h3v3.7H490.3z M490.3,97.3v0.9h1.5v-0.9H490.3z M491.9,99.7
					v-0.9h-1.5v0.9H491.9z M495.1,105h-4.2v-0.6h1.7v-1.1h-1.3v-0.6h1.3v-0.9h-1.5v-0.6h3.8v0.6h-1.6v0.9h1.4v0.6h-1.4v1.1h1.8V105z
					 M496.4,105.3c0,0.4-0.1,0.7-0.4,0.8c-0.3,0.1-0.8,0.1-1.5,0.1c0-0.2-0.1-0.5-0.2-0.7c0.5,0,1.1,0,1.2,0c0.2,0,0.2-0.1,0.2-0.2
					v-5h-2.3v-3.7h3.1V105.3z M494.1,97.3v0.9h1.6v-0.9H494.1z M495.7,99.7v-0.9h-1.6v0.9H495.7z"/>
				<path fill="#7F58A5" d="M500.3,102.1v3.1c0,0.5-0.1,0.7-0.4,0.8c-0.3,0.1-0.7,0.2-1.3,0.2c0-0.2-0.1-0.6-0.2-0.8
					c0.5,0,0.9,0,1,0c0.1,0,0.2,0,0.2-0.2v-2.9c-0.5,0.2-0.9,0.3-1.4,0.5L498,102c0.4-0.1,1-0.3,1.6-0.5v-2.4h-1.4v-0.8h1.4v-2.2
					h0.8v2.2h1.2v0.8h-1.2v2.1l1-0.4l0.1,0.8L500.3,102.1z M508.2,100.6v0.6h-5.6c0,1.6-0.2,3.7-1.3,5.1c-0.1-0.1-0.4-0.4-0.6-0.5
					c1-1.3,1.1-3.2,1.1-4.8v-4h3c-0.1-0.2-0.2-0.5-0.3-0.7l0.8-0.2c0.1,0.3,0.3,0.6,0.4,0.9h2.3v0.6h-5.5v3H508.2z M504.8,105.2
					c-0.6,0.4-1.4,0.8-2,1c-0.1-0.2-0.3-0.4-0.4-0.5c0.5-0.3,1.4-0.7,1.8-0.9L504.8,105.2z M503.7,100.2v-1.1h-0.9v-0.5h0.9V98h0.7
					v0.7h1.8V98h0.7v0.7h1v0.5h-1v1.1H503.7z M507.7,104.6H503v-3h4.8V104.6z M503.6,102.9h1.3v-0.7h-1.3V102.9z M503.6,104.1h1.3
					v-0.7h-1.3V104.1z M504.4,99.1v0.6h1.8v-0.6H504.4z M507.1,102.2h-1.4v0.7h1.4V102.2z M507.1,103.4h-1.4v0.7h1.4V103.4z
					 M506.3,104.8c0.7,0.3,1.4,0.7,1.9,1l-0.4,0.5c-0.4-0.3-1.2-0.7-1.8-1.1L506.3,104.8z"/>
				<path fill="#7F58A5" d="M512.8,101.6c0,0,0,0.2,0,0.4c-0.1,2.6-0.3,3.6-0.6,3.9c-0.2,0.2-0.4,0.3-0.7,0.3c-0.3,0-0.8,0-1.3,0
					c0-0.3-0.1-0.6-0.3-0.8c0.6,0.1,1.1,0.1,1.3,0.1c0.2,0,0.3,0,0.4-0.1c0.2-0.2,0.3-1,0.4-3h-2.2c0.1-0.8,0.1-2.2,0.1-3.2h2.1
					v-1.7h-2.4v-0.7h3.1v3.2h-2.2c0,0.6,0,1.2-0.1,1.7L512.8,101.6z M519.1,102.8c-0.5,0.4-1.1,0.9-1.6,1.2c0.6,0.6,1.3,1.2,2.1,1.5
					c-0.2,0.2-0.4,0.4-0.6,0.7c-1.5-0.8-2.9-2.4-3.6-4.1h-0.9v3.2l1.8-0.6c0,0.2,0,0.5,0.1,0.7c-2.1,0.8-2.4,0.9-2.6,1
					c0-0.2-0.2-0.5-0.3-0.7c0.1-0.1,0.3-0.2,0.3-0.7v-3H513v-0.7h0.9v-4.5h5.2v0.7h-4.4v0.9h4v0.6h-4v0.9h4v0.6h-4v0.9h4.6v0.7h-3.2
					c0.3,0.5,0.6,1,1,1.5c0.5-0.4,1-0.9,1.3-1.2L519.1,102.8z"/>
			</g>
		</g>
		<g>
			<g>
				<path fill="#73B564" d="M478.8,338.4h2.3v0.8h-2.3v0.3c0.5,0.5,1.8,1.8,2.1,2.1l-0.5,0.7c-0.3-0.4-1.1-1.2-1.6-1.8v4.8H478v-4.7
					c-0.6,1.3-1.3,2.5-2.1,3.2c-0.1-0.2-0.3-0.6-0.5-0.8c0.9-0.8,1.8-2.3,2.4-3.7h-2.2v-0.8h2.3v-1.9c-0.7,0.1-1.4,0.3-2.1,0.4
					c0-0.2-0.2-0.5-0.3-0.7c1.6-0.2,3.5-0.6,4.6-1.1l0.6,0.6c-0.5,0.2-1.2,0.4-2,0.6V338.4z M482.7,342.5h-0.8v-6h0.8V342.5z
					 M485,335.2v8.8c0,0.6-0.2,0.8-0.5,0.9c-0.4,0.1-1,0.2-2,0.2c-0.1-0.2-0.2-0.6-0.3-0.8c0.8,0,1.5,0,1.7,0c0.2,0,0.3-0.1,0.3-0.3
					v-8.8H485z"/>
				<path fill="#73B564" d="M488.6,339.8c-0.4-0.3-1.2-0.8-1.8-1.1l0.5-0.6c0.6,0.3,1.4,0.7,1.8,1L488.6,339.8z M487,344.6
					c0.4-0.8,1.1-2.3,1.5-3.5l0.7,0.4c-0.4,1.1-1,2.5-1.4,3.5L487,344.6z M487.7,335.2c0.6,0.3,1.4,0.8,1.7,1.1l-0.5,0.7
					c-0.4-0.4-1.1-0.9-1.7-1.2L487.7,335.2z M490.3,339.2v5.9h-0.8v-9.6h3v3.7H490.3z M490.3,336.2v0.9h1.5v-0.9H490.3z
					 M491.9,338.6v-0.9h-1.5v0.9H491.9z M495.1,343.9h-4.2v-0.6h1.7v-1.1h-1.3v-0.6h1.3v-0.9h-1.5v-0.6h3.8v0.6h-1.6v0.9h1.4v0.6
					h-1.4v1.1h1.8V343.9z M496.4,344.2c0,0.4-0.1,0.7-0.4,0.8c-0.3,0.1-0.8,0.1-1.5,0.1c0-0.2-0.1-0.5-0.2-0.7c0.5,0,1.1,0,1.2,0
					c0.2,0,0.2-0.1,0.2-0.2v-5h-2.3v-3.7h3.1V344.2z M494.1,336.2v0.9h1.6v-0.9H494.1z M495.7,338.6v-0.9h-1.6v0.9H495.7z"/>
				<path fill="#73B564" d="M503.3,336.7v2l0.1-0.2c1.3,0.6,3,1.6,3.9,2.3l-0.6,0.7c-0.8-0.6-2.2-1.5-3.5-2.2v5.8h-0.9v-8.4h-4.2
					v-0.8h9.7v0.8H503.3z"/>
				<path fill="#73B564" d="M511.3,340c-0.4-0.3-1.2-0.8-1.9-1.2l0.5-0.6c0.6,0.3,1.5,0.8,1.9,1.1L511.3,340z M509.8,344.5
					c0.5-0.8,1.2-2.2,1.7-3.4l0.6,0.5c-0.5,1.1-1.1,2.5-1.6,3.5L509.8,344.5z M512,337.2c-0.4-0.4-1.3-1-2-1.4l0.5-0.6
					c0.7,0.4,1.5,1,2,1.3L512,337.2z M519.4,338.5v1.9h-0.8v-1.2h-5.7v1.2h-0.8v-1.9h1.1v-3h4.9v3H519.4z M518.3,344.4
					c0,0.4-0.1,0.6-0.4,0.7c-0.3,0.1-0.8,0.1-1.6,0.1c0-0.2-0.1-0.5-0.2-0.7c0.6,0,1.1,0,1.2,0c0.2,0,0.2-0.1,0.2-0.2V343
					c-1.1,0.3-2.3,0.5-3.2,0.7L514,343c0.9-0.2,2.2-0.4,3.5-0.7v-1.8H514v1.1c0,1.1-0.2,2.6-1,3.7c-0.1-0.1-0.5-0.4-0.6-0.5
					c0.8-0.9,0.8-2.2,0.8-3.2v-1.7h5.1V344.4z M514.1,338.5h1.3v-1.6h2.1v-0.7h-3.4V338.5z M514.6,341.1c0.9,0.1,2,0.3,2.5,0.6
					l-0.3,0.6c-0.6-0.3-1.7-0.5-2.5-0.6L514.6,341.1z M517.4,337.5H516v1h1.4V337.5z"/>
			</g>
		</g>
		<g>
			<polygon fill="#7F58A5" points="639.8,232.4 661,232.4 661,63.5 671.9,63.5 650.7,37.5 628.9,63.5 639.2,63.5 			"/>
			<polygon fill="#73B564" points="661,238.7 639.8,238.7 639.8,406.3 628.9,406.3 650.1,432.4 671.9,406.3 661.6,406.3 			"/>
		</g>
	</g>
	<g>
		<g>
			<path fill="#A7A9AC" d="M47.7,458.1h-4v-0.8h4V458.1z M48.8,465.3c-1.1,0.7-2.9,1.3-4.3,1.7c-0.2-0.2-0.5-0.6-0.8-0.8
				c1.4-0.3,3.1-0.8,4.1-1.3L48.8,465.3z M47.3,455.9H44v-0.8h3.3V455.9z M45.5,459.2h9.1v5.6h-9.1V459.2z M46.5,460.8h7v-1h-7
				V460.8z M46.5,462.5h7v-1h-7V462.5z M46.5,464.1h7v-1h-7V464.1z M49.9,456c-0.3,0.5-0.7,1-1.1,1.4c-0.2-0.2-0.6-0.4-0.8-0.5
				c0.7-0.7,1.3-1.6,1.6-2.7l0.9,0.2c-0.1,0.3-0.2,0.5-0.3,0.8H55l0.2,0l0.7,0.2c-0.4,0.7-0.8,1.5-1.2,2l-0.8-0.3
				c0.2-0.3,0.5-0.7,0.7-1.1h-2.2v0.2c0,0.1,0,0.3,0,0.5c0.7,0.8,2.3,1.4,4.1,1.5c-0.2,0.2-0.5,0.6-0.6,0.8
				c-1.6-0.2-2.9-0.8-3.8-1.6c-0.5,0.7-1.6,1.3-4,1.7c-0.1-0.2-0.4-0.6-0.6-0.8c3.6-0.5,4-1.4,4-2.2V456H49.9z M52,464.9
				c1.5,0.5,3.1,1.1,4.1,1.5l-0.9,0.6c-0.9-0.4-2.4-1-3.9-1.6L52,464.9z"/>
			<path fill="#A7A9AC" d="M60,461c-0.3,1.6-0.9,3.5-1.6,4.5c-0.1-0.4-0.4-0.8-0.5-1.1c0.6-0.8,1.2-2.4,1.4-3.6L60,461z M61.2,459.9
				v7.1h-1v-7.1H58v-1h2.2v-4.7h1v4.7h2.3v1H61.2z M58.9,458.4c-0.1-0.8-0.4-2.1-0.8-3.1l0.8-0.2c0.4,1,0.7,2.2,0.8,3.1L58.9,458.4z
				 M61.8,460.7c0.3,0.4,1.3,2.3,1.5,2.8l-0.7,0.8c-0.3-0.8-1-2.5-1.3-3.2L61.8,460.7z M63.5,455.3c-0.3,1.1-0.8,2.4-1.1,3.1
				l-0.7-0.2c0.3-0.8,0.7-2.2,0.9-3.1L63.5,455.3z M68.9,463.1v3.9h-1v-3.8l-4.3,0.8l-0.2-1l4.5-0.8v-8h1v7.9l1.7-0.3l0.2,1
				L68.9,463.1z M66.1,461.1c-0.5-0.5-1.5-1.2-2.3-1.7l0.5-0.7c0.8,0.4,1.8,1.1,2.3,1.6L66.1,461.1z M66.7,457.7
				c-0.4-0.5-1.4-1.3-2.2-1.8l0.5-0.7c0.8,0.5,1.8,1.2,2.2,1.7L66.7,457.7z"/>
			<path fill="#A7A9AC" d="M79.1,460.5c1.2,2.1,3.6,4.1,6,5c-0.3,0.2-0.6,0.6-0.8,0.9c-1.9-0.9-3.8-2.4-5.2-4.2v4.8h-1.1v-4.8
				c-1.4,1.8-3.3,3.3-5.1,4.2c-0.2-0.3-0.5-0.7-0.7-0.9c2.3-0.9,4.6-2.9,5.9-4.9v-3.4h-5.4v-1h5.4v-1.9h1.1v1.9h5.6v1h-5.6V460.5z
				 M76.1,457.7c-0.1,0.6-0.3,1.1-0.5,1.7c0.6,0.5,1.2,1.1,1.6,1.5l-0.7,0.7c-0.3-0.3-0.8-0.9-1.3-1.4c-0.5,0.9-1.1,1.6-1.8,2.2
				c-0.2-0.2-0.6-0.5-0.8-0.7c1.3-1,2.1-2.5,2.5-4.3L76.1,457.7z M82.7,457.7c-0.1,0.6-0.3,1.1-0.5,1.7c0.9,0.7,2,1.6,2.5,2.2
				l-0.7,0.7c-0.5-0.5-1.4-1.3-2.2-2c-0.4,0.6-0.8,1.2-1.2,1.7c-0.2-0.2-0.6-0.4-0.9-0.6c1-0.9,1.7-2.2,2-3.8L82.7,457.7z"/>
			<path fill="#A7A9AC" d="M88.9,460.4c-0.5-0.4-1.6-1.1-2.4-1.5l0.6-0.7c0.8,0.4,1.8,1,2.4,1.4L88.9,460.4z M89.8,462.4
				c-0.6,1.5-1.4,3.2-2,4.5l-0.9-0.6c0.6-1.1,1.5-2.9,2.1-4.5L89.8,462.4z M89.6,456.7c-0.5-0.4-1.6-1.1-2.3-1.6l0.6-0.7
				c0.8,0.4,1.8,1.1,2.3,1.5L89.6,456.7z M91.7,458.8c0,2.4-0.2,5.9-1.9,8.2c-0.2-0.2-0.6-0.4-0.9-0.5c1.6-2.2,1.7-5.4,1.7-7.7v-3.8
				h8.5v1h-7.5V458.8z M94,463.3c-0.5,1-1.2,2.1-1.8,2.9c-0.2-0.2-0.6-0.4-0.8-0.5c0.6-0.7,1.3-1.7,1.7-2.6L94,463.3z M96,462.3v3.7
				c0,0.5-0.1,0.8-0.5,0.9c-0.4,0.2-1,0.2-1.9,0.1c0-0.3-0.2-0.6-0.3-0.9c0.7,0,1.3,0,1.4,0c0.2,0,0.2-0.1,0.2-0.2v-3.6h-2.5v-4.8
				h2.1c0.2-0.4,0.3-1,0.4-1.4l1.2,0.2c-0.2,0.4-0.4,0.8-0.6,1.2h3.1v4.8H96z M93.5,459.5h4.3v-1.2h-4.3V459.5z M93.5,461.5h4.3
				v-1.2h-4.3V461.5z M97.9,463c0.5,0.9,1.2,2,1.6,2.7l-1,0.4c-0.3-0.7-1-1.9-1.5-2.7L97.9,463z"/>
			<path fill="#A7A9AC" d="M102.8,457.3c0-0.6,0.5-1.1,1.1-1.1c0.6,0,1.1,0.4,1.1,1.1s-0.5,1.1-1.1,1.1
				C103.3,458.3,102.8,457.9,102.8,457.3z M102.8,464.2c0-0.6,0.5-1.1,1.1-1.1c0.6,0,1.1,0.4,1.1,1.1c0,0.6-0.5,1-1.1,1
				C103.3,465.2,102.8,464.8,102.8,464.2z"/>
			<path fill="#A7A9AC" d="M111.2,456.8h-3.1v-1.1h7.5v1.1h-3.1v9.2h-1.3V456.8z"/>
			<path fill="#A7A9AC" d="M117.7,454.8h1.3v3.1l0,1.6c0.7-0.7,1.5-1.3,2.5-1.3c1.6,0,2.3,1,2.3,3v4.8h-1.3v-4.7c0-1.4-0.4-2-1.4-2
				c-0.8,0-1.3,0.4-2.1,1.2v5.5h-1.3V454.8z"/>
			<path fill="#A7A9AC" d="M126,462.2c0-2.5,1.7-4,3.5-4c1.9,0,3.5,1.5,3.5,4c0,2.5-1.7,4-3.5,4C127.6,466.1,126,464.7,126,462.2z
				 M131.7,462.2c0-1.8-0.9-2.9-2.2-2.9c-1.3,0-2.2,1.2-2.2,2.9s0.9,2.9,2.2,2.9C130.8,465.1,131.7,463.9,131.7,462.2z"/>
			<path fill="#A7A9AC" d="M135.4,458.4h1.1l0.1,1.1h0c0.7-0.7,1.5-1.3,2.4-1.3c1.2,0,1.8,0.6,2.1,1.5c0.8-0.9,1.6-1.5,2.5-1.5
				c1.6,0,2.3,1,2.3,3v4.8h-1.3v-4.7c0-1.4-0.4-2-1.4-2c-0.6,0-1.2,0.4-1.9,1.2v5.5H140v-4.7c0-1.4-0.4-2-1.4-2
				c-0.6,0-1.2,0.4-1.9,1.2v5.5h-1.3V458.4z"/>
			<path fill="#A7A9AC" d="M147.8,465.1l0.6-0.8c0.7,0.5,1.3,0.9,2.3,0.9c1,0,1.5-0.5,1.5-1.2c0-0.8-0.9-1.1-1.7-1.4
				c-1.1-0.4-2.3-0.9-2.3-2.2c0-1.2,1-2.2,2.6-2.2c0.9,0,1.8,0.4,2.4,0.9l-0.6,0.8c-0.5-0.4-1.1-0.7-1.8-0.7c-1,0-1.4,0.5-1.4,1.1
				c0,0.7,0.8,1,1.7,1.3c1.1,0.4,2.3,0.9,2.3,2.3c0,1.2-1,2.3-2.8,2.3C149.6,466.1,148.6,465.7,147.8,465.1z"/>
			<path fill="#A7A9AC" d="M155,462.2c0-2.5,1.7-4,3.5-4c1.9,0,3.5,1.5,3.5,4c0,2.5-1.7,4-3.5,4C156.7,466.1,155,464.7,155,462.2z
				 M160.8,462.2c0-1.8-0.9-2.9-2.2-2.9c-1.3,0-2.2,1.2-2.2,2.9s0.9,2.9,2.2,2.9C159.9,465.1,160.8,463.9,160.8,462.2z"/>
			<path fill="#A7A9AC" d="M164.4,458.4h1.1l0.1,1.1h0c0.7-0.7,1.5-1.3,2.5-1.3c1.6,0,2.3,1,2.3,3v4.8h-1.3v-4.7c0-1.4-0.4-2-1.4-2
				c-0.8,0-1.3,0.4-2.1,1.2v5.5h-1.3V458.4z"/>
			<path fill="#A7A9AC" d="M182.6,466l-2.5-4.4h-1.8v4.4h-1.3v-10.3h3.2c2.1,0,3.6,0.7,3.6,2.9c0,1.6-0.9,2.5-2.3,2.9l2.6,4.5H182.6
				z M178.2,460.6h1.7c1.6,0,2.5-0.6,2.5-2c0-1.4-0.9-1.8-2.5-1.8h-1.7V460.6z"/>
			<path fill="#A7A9AC" d="M185.3,462.2c0-2.5,1.7-4,3.4-4c1.9,0,3,1.4,3,3.6c0,0.3,0,0.5-0.1,0.7h-5.1c0.1,1.6,1.1,2.7,2.5,2.7
				c0.7,0,1.3-0.2,1.9-0.6l0.5,0.8c-0.7,0.4-1.5,0.8-2.5,0.8C187,466.1,185.3,464.7,185.3,462.2z M190.7,461.6
				c0-1.5-0.7-2.4-1.9-2.4c-1.1,0-2,0.9-2.2,2.4H190.7z"/>
			<path fill="#A7A9AC" d="M193.9,463.2v-4.8h1.3v4.7c0,1.4,0.4,2,1.4,2c0.8,0,1.3-0.4,2.1-1.3v-5.4h1.3v7.6h-1.1l-0.1-1.2h0
				c-0.7,0.8-1.5,1.4-2.5,1.4C194.6,466.1,193.9,465.1,193.9,463.2z"/>
			<path fill="#A7A9AC" d="M203.1,463.6v-4.2H202v-1l1.2-0.1l0.2-2.1h1.1v2.1h2.1v1h-2.1v4.2c0,0.9,0.3,1.5,1.2,1.5
				c0.3,0,0.6-0.1,0.9-0.2l0.3,1c-0.4,0.1-0.9,0.3-1.4,0.3C203.6,466.1,203.1,465.1,203.1,463.6z"/>
			<path fill="#A7A9AC" d="M207.7,462.2c0-2.5,1.7-4,3.4-4c1.9,0,3,1.4,3,3.6c0,0.3,0,0.5-0.1,0.7H209c0.1,1.6,1.1,2.7,2.5,2.7
				c0.7,0,1.3-0.2,1.9-0.6l0.5,0.8c-0.7,0.4-1.5,0.8-2.5,0.8C209.3,466.1,207.7,464.7,207.7,462.2z M213,461.6
				c0-1.5-0.7-2.4-1.9-2.4c-1.1,0-2,0.9-2.2,2.4H213z"/>
			<path fill="#A7A9AC" d="M216.4,458.4h1.1l0.1,1.4h0c0.5-1,1.3-1.6,2.2-1.6c0.3,0,0.6,0,0.8,0.2l-0.2,1.1
				c-0.3-0.1-0.4-0.1-0.7-0.1c-0.6,0-1.4,0.4-1.9,1.8v4.9h-1.3V458.4z"/>
			<path fill="#A7A9AC" d="M221.3,465.1l0.6-0.8c0.7,0.5,1.3,0.9,2.3,0.9c1,0,1.5-0.5,1.5-1.2c0-0.8-0.9-1.1-1.7-1.4
				c-1.1-0.4-2.3-0.9-2.3-2.2c0-1.2,1-2.2,2.6-2.2c0.9,0,1.8,0.4,2.4,0.9l-0.6,0.8c-0.5-0.4-1.1-0.7-1.8-0.7c-1,0-1.4,0.5-1.4,1.1
				c0,0.7,0.8,1,1.7,1.3c1.1,0.4,2.3,0.9,2.3,2.3c0,1.2-1,2.3-2.8,2.3C223,466.1,222,465.7,221.3,465.1z"/>
			<path fill="#A7A9AC" d="M233.3,461.9l-1,0.8c-0.9-1.1-2.1-2.3-3.1-3.1l0.9-0.8C231.1,459.6,232.4,460.8,233.3,461.9z"/>
			<path fill="#A7A9AC" d="M236.5,455.7h2.6c3.2,0,4.8,1.8,4.8,5.1c0,3.3-1.7,5.2-4.8,5.2h-2.6V455.7z M238.9,464.9
				c2.4,0,3.6-1.5,3.6-4.1c0-2.6-1.2-4-3.6-4h-1.2v8.2H238.9z"/>
			<path fill="#A7A9AC" d="M245.9,464c0-1.7,1.4-2.5,4.7-2.8c0-1-0.3-1.9-1.6-1.9c-0.9,0-1.7,0.4-2.3,0.8l-0.5-0.9
				c0.7-0.4,1.8-1,3-1c1.8,0,2.6,1.2,2.6,3.1v4.7h-1.1l-0.1-0.9h0c-0.7,0.6-1.6,1.1-2.5,1.1C246.8,466.1,245.9,465.4,245.9,464z
				 M250.5,464.1V462c-2.6,0.3-3.4,0.9-3.4,1.9c0,0.9,0.6,1.2,1.3,1.2C249.2,465.1,249.8,464.8,250.5,464.1z"/>
			<path fill="#A7A9AC" d="M254.6,463.6v-4.2h-1.1v-1l1.2-0.1l0.2-2.1h1.1v2.1h2.1v1h-2.1v4.2c0,0.9,0.3,1.5,1.2,1.5
				c0.3,0,0.6-0.1,0.9-0.2l0.3,1c-0.4,0.1-0.9,0.3-1.4,0.3C255.1,466.1,254.6,465.1,254.6,463.6z"/>
			<path fill="#A7A9AC" d="M259.2,464c0-1.7,1.4-2.5,4.7-2.8c0-1-0.3-1.9-1.6-1.9c-0.9,0-1.7,0.4-2.3,0.8l-0.5-0.9
				c0.7-0.4,1.8-1,3-1c1.8,0,2.6,1.2,2.6,3.1v4.7h-1.1l-0.1-0.9h0c-0.7,0.6-1.6,1.1-2.5,1.1C260.1,466.1,259.2,465.4,259.2,464z
				 M263.9,464.1V462c-2.6,0.3-3.4,0.9-3.4,1.9c0,0.9,0.6,1.2,1.3,1.2C262.5,465.1,263.1,464.8,263.9,464.1z"/>
			<path fill="#A7A9AC" d="M267.1,465.1l0.6-0.8c0.7,0.5,1.3,0.9,2.3,0.9c1,0,1.5-0.5,1.5-1.2c0-0.8-0.9-1.1-1.7-1.4
				c-1.1-0.4-2.3-0.9-2.3-2.2c0-1.2,1-2.2,2.6-2.2c0.9,0,1.8,0.4,2.4,0.9l-0.6,0.8c-0.5-0.4-1.1-0.7-1.8-0.7c-1,0-1.4,0.5-1.4,1.1
				c0,0.7,0.8,1,1.7,1.3c1.1,0.4,2.3,0.9,2.3,2.3c0,1.2-1,2.3-2.8,2.3C268.8,466.1,267.8,465.7,267.1,465.1z"/>
			<path fill="#A7A9AC" d="M274.7,463.6v-4.2h-1.1v-1l1.2-0.1l0.2-2.1h1.1v2.1h2.1v1H276v4.2c0,0.9,0.3,1.5,1.2,1.5
				c0.3,0,0.6-0.1,0.9-0.2l0.3,1c-0.4,0.1-0.9,0.3-1.4,0.3C275.3,466.1,274.7,465.1,274.7,463.6z"/>
			<path fill="#A7A9AC" d="M280.1,458.4h1.1l0.1,1.4h0c0.5-1,1.3-1.6,2.2-1.6c0.3,0,0.6,0,0.8,0.2l-0.2,1.1
				c-0.3-0.1-0.4-0.1-0.7-0.1c-0.6,0-1.4,0.4-1.9,1.8v4.9h-1.3V458.4z"/>
			<path fill="#A7A9AC" d="M285.2,462.2c0-2.5,1.7-4,3.4-4c1.9,0,3,1.4,3,3.6c0,0.3,0,0.5-0.1,0.7h-5.1c0.1,1.6,1.1,2.7,2.5,2.7
				c0.7,0,1.3-0.2,1.9-0.6l0.5,0.8c-0.7,0.4-1.5,0.8-2.5,0.8C286.8,466.1,285.2,464.7,285.2,462.2z M290.5,461.6
				c0-1.5-0.7-2.4-1.9-2.4c-1.1,0-2,0.9-2.2,2.4H290.5z"/>
			<path fill="#A7A9AC" d="M293.2,464c0-1.7,1.4-2.5,4.7-2.8c0-1-0.3-1.9-1.6-1.9c-0.9,0-1.7,0.4-2.3,0.8l-0.5-0.9
				c0.7-0.4,1.8-1,3-1c1.8,0,2.6,1.2,2.6,3.1v4.7h-1.1l-0.1-0.9h0c-0.7,0.6-1.6,1.1-2.5,1.1C294.1,466.1,293.2,465.4,293.2,464z
				 M297.8,464.1V462c-2.6,0.3-3.4,0.9-3.4,1.9c0,0.9,0.6,1.2,1.3,1.2C296.5,465.1,297.1,464.8,297.8,464.1z"/>
			<path fill="#A7A9AC" d="M301.9,458.4h1.1l0.1,1.1h0c0.7-0.7,1.5-1.3,2.4-1.3c1.2,0,1.8,0.6,2.1,1.5c0.8-0.9,1.6-1.5,2.5-1.5
				c1.6,0,2.3,1,2.3,3v4.8h-1.3v-4.7c0-1.4-0.4-2-1.4-2c-0.6,0-1.2,0.4-1.9,1.2v5.5h-1.3v-4.7c0-1.4-0.4-2-1.4-2
				c-0.6,0-1.2,0.4-1.9,1.2v5.5h-1.3V458.4z"/>
			<path fill="#A7A9AC" d="M319.4,461.9l-1,0.8c-0.9-1.1-2.1-2.3-3.1-3.1l0.9-0.8C317.3,459.6,318.6,460.8,319.4,461.9z"/>
			<path fill="#A7A9AC" d="M322.7,455.7h5.9v1.1H324v3.5h3.9v1.1H324v4.6h-1.3V455.7z"/>
			<path fill="#A7A9AC" d="M329.6,464c0-1.7,1.4-2.5,4.7-2.8c0-1-0.3-1.9-1.6-1.9c-0.9,0-1.7,0.4-2.3,0.8l-0.5-0.9
				c0.7-0.4,1.8-1,3-1c1.8,0,2.6,1.2,2.6,3.1v4.7h-1.1l-0.1-0.9h0c-0.7,0.6-1.6,1.1-2.5,1.1C330.6,466.1,329.6,465.4,329.6,464z
				 M334.3,464.1V462c-2.6,0.3-3.4,0.9-3.4,1.9c0,0.9,0.6,1.2,1.3,1.2C333,465.1,333.6,464.8,334.3,464.1z"/>
			<path fill="#A7A9AC" d="M338.4,463.6v-4.2h-1.1v-1l1.2-0.1l0.2-2.1h1.1v2.1h2.1v1h-2.1v4.2c0,0.9,0.3,1.5,1.2,1.5
				c0.3,0,0.6-0.1,0.9-0.2l0.3,1c-0.4,0.1-0.9,0.3-1.4,0.3C338.9,466.1,338.4,465.1,338.4,463.6z"/>
			<path fill="#A7A9AC" d="M343.8,454.8h1.3v3.1l0,1.6c0.7-0.7,1.5-1.3,2.5-1.3c1.6,0,2.3,1,2.3,3v4.8h-1.3v-4.7c0-1.4-0.4-2-1.4-2
				c-0.8,0-1.3,0.4-2.1,1.2v5.5h-1.3V454.8z"/>
			<path fill="#A7A9AC" d="M352,462.2c0-2.5,1.7-4,3.5-4c1.9,0,3.5,1.5,3.5,4c0,2.5-1.7,4-3.5,4C353.7,466.1,352,464.7,352,462.2z
				 M357.8,462.2c0-1.8-0.9-2.9-2.2-2.9c-1.3,0-2.2,1.2-2.2,2.9s0.9,2.9,2.2,2.9C356.9,465.1,357.8,463.9,357.8,462.2z"/>
			<path fill="#A7A9AC" d="M361.4,458.4h1.1l0.1,1.1h0c0.7-0.7,1.5-1.3,2.4-1.3c1.2,0,1.8,0.6,2.1,1.5c0.8-0.9,1.6-1.5,2.5-1.5
				c1.6,0,2.3,1,2.3,3v4.8h-1.3v-4.7c0-1.4-0.4-2-1.4-2c-0.6,0-1.2,0.4-1.9,1.2v5.5H366v-4.7c0-1.4-0.4-2-1.4-2
				c-0.6,0-1.2,0.4-1.9,1.2v5.5h-1.3V458.4z"/>
			<path fill="#A7A9AC" d="M377.8,460.8c0-3.3,1.9-5.3,4.6-5.3c1.2,0,2.2,0.6,2.8,1.3l-0.7,0.8c-0.5-0.6-1.2-1-2.1-1
				c-1.9,0-3.2,1.6-3.2,4.2c0,2.6,1.2,4.2,3.2,4.2c1,0,1.7-0.4,2.4-1.1l0.7,0.8c-0.8,0.9-1.8,1.5-3.2,1.5
				C379.7,466.1,377.8,464.2,377.8,460.8z"/>
			<path fill="#A7A9AC" d="M386.9,462.2c0-2.5,1.7-4,3.5-4s3.5,1.5,3.5,4c0,2.5-1.7,4-3.5,4S386.9,464.7,386.9,462.2z M392.7,462.2
				c0-1.8-0.9-2.9-2.2-2.9s-2.2,1.2-2.2,2.9s0.9,2.9,2.2,2.9S392.7,463.9,392.7,462.2z"/>
			<path fill="#A7A9AC" d="M396.4,458.4h1.1l0.1,1.1h0c0.7-0.7,1.5-1.3,2.5-1.3c1.6,0,2.3,1,2.3,3v4.8h-1.3v-4.7c0-1.4-0.4-2-1.4-2
				c-0.8,0-1.3,0.4-2.1,1.2v5.5h-1.3V458.4z"/>
			<path fill="#A7A9AC" d="M404.4,465.1l0.6-0.8c0.7,0.5,1.3,0.9,2.3,0.9c1,0,1.5-0.5,1.5-1.2c0-0.8-0.9-1.1-1.7-1.4
				c-1.1-0.4-2.3-0.9-2.3-2.2c0-1.2,1-2.2,2.6-2.2c0.9,0,1.8,0.4,2.4,0.9l-0.6,0.8c-0.5-0.4-1.1-0.7-1.8-0.7c-1,0-1.4,0.5-1.4,1.1
				c0,0.7,0.8,1,1.7,1.3c1.1,0.4,2.3,0.9,2.3,2.3c0,1.2-1,2.3-2.8,2.3C406.2,466.1,405.1,465.7,404.4,465.1z"/>
			<path fill="#A7A9AC" d="M412.1,463.2v-4.8h1.3v4.7c0,1.4,0.4,2,1.4,2c0.8,0,1.3-0.4,2.1-1.3v-5.4h1.3v7.6H417l-0.1-1.2h0
				c-0.7,0.8-1.5,1.4-2.5,1.4C412.8,466.1,412.1,465.1,412.1,463.2z"/>
			<path fill="#A7A9AC" d="M421,464.5v-9.6h1.3v9.7c0,0.4,0.2,0.5,0.4,0.5c0.1,0,0.1,0,0.3,0l0.2,1c-0.2,0.1-0.4,0.1-0.7,0.1
				C421.4,466.1,421,465.5,421,464.5z"/>
			<path fill="#A7A9AC" d="M425.6,463.6v-4.2h-1.1v-1l1.2-0.1l0.2-2.1h1.1v2.1h2.1v1h-2.1v4.2c0,0.9,0.3,1.5,1.2,1.5
				c0.3,0,0.6-0.1,0.9-0.2l0.3,1c-0.4,0.1-0.9,0.3-1.4,0.3C426.1,466.1,425.6,465.1,425.6,463.6z"/>
			<path fill="#A7A9AC" d="M430.7,456c0-0.5,0.4-0.8,0.9-0.8c0.5,0,0.9,0.3,0.9,0.8c0,0.5-0.4,0.8-0.9,0.8
				C431.1,456.8,430.7,456.4,430.7,456z M431,458.4h1.3v7.6H431V458.4z"/>
			<path fill="#A7A9AC" d="M435.2,458.4h1.1l0.1,1.1h0c0.7-0.7,1.5-1.3,2.5-1.3c1.6,0,2.3,1,2.3,3v4.8H440v-4.7c0-1.4-0.4-2-1.4-2
				c-0.8,0-1.3,0.4-2.1,1.2v5.5h-1.3V458.4z"/>
			<path fill="#A7A9AC" d="M443.5,467.4c0-0.6,0.4-1.3,1.1-1.7v-0.1c-0.4-0.2-0.7-0.6-0.7-1.2c0-0.6,0.5-1.1,0.9-1.4v-0.1
				c-0.5-0.4-1-1.1-1-2c0-1.7,1.3-2.7,2.9-2.7c0.4,0,0.8,0.1,1.1,0.2h2.6v1h-1.6c0.4,0.4,0.6,0.9,0.6,1.6c0,1.6-1.2,2.6-2.8,2.6
				c-0.4,0-0.8-0.1-1.1-0.3c-0.3,0.2-0.5,0.5-0.5,0.9c0,0.5,0.3,0.8,1.3,0.8h1.5c1.8,0,2.6,0.6,2.6,1.8c0,1.4-1.5,2.6-3.8,2.6
				C444.8,469.5,443.5,468.7,443.5,467.4z M449.2,467c0-0.7-0.5-0.9-1.6-0.9h-1.3c-0.3,0-0.6,0-1-0.1c-0.5,0.4-0.8,0.8-0.8,1.3
				c0,0.8,0.8,1.3,2.2,1.3C448.3,468.6,449.2,467.8,449.2,467z M448.3,460.9c0-1.1-0.7-1.8-1.6-1.8s-1.6,0.7-1.6,1.8
				c0,1.1,0.7,1.8,1.6,1.8C447.5,462.7,448.3,462,448.3,460.9z"/>
			<path fill="#A7A9AC" d="M453.1,462.6c1.1-0.4,1.7-1.1,1.8-2.1c-0.1,0-0.2,0-0.2,0c-0.6,0-1.1-0.3-1.1-1c0-0.7,0.5-1,1.1-1
				c0.8,0,1.2,0.6,1.2,1.6c0,1.5-1,2.7-2.4,3.2L453.1,462.6z"/>
			<path fill="#A7A9AC" d="M463.1,458.1h-4v-0.8h4V458.1z M464.2,465.3c-1.1,0.7-2.9,1.3-4.3,1.7c-0.2-0.2-0.5-0.6-0.8-0.8
				c1.4-0.3,3.1-0.8,4.1-1.3L464.2,465.3z M462.8,455.9h-3.3v-0.8h3.3V455.9z M460.9,459.2h9.1v5.6h-9.1V459.2z M461.9,460.8h7v-1
				h-7V460.8z M461.9,462.5h7v-1h-7V462.5z M461.9,464.1h7v-1h-7V464.1z M465.3,456c-0.3,0.5-0.7,1-1.1,1.4
				c-0.2-0.2-0.6-0.4-0.8-0.5c0.7-0.7,1.3-1.6,1.6-2.7l0.9,0.2c-0.1,0.3-0.2,0.5-0.3,0.8h4.7l0.2,0l0.7,0.2c-0.3,0.7-0.8,1.5-1.2,2
				l-0.8-0.3c0.2-0.3,0.5-0.7,0.7-1.1h-2.2v0.2c0,0.1,0,0.3,0,0.5c0.7,0.8,2.3,1.4,4.1,1.5c-0.2,0.2-0.5,0.6-0.6,0.8
				c-1.6-0.2-2.9-0.8-3.8-1.6c-0.5,0.7-1.6,1.3-4,1.7c-0.1-0.2-0.4-0.6-0.6-0.8c3.6-0.5,4-1.4,4-2.2V456H465.3z M467.4,464.9
				c1.5,0.5,3.1,1.1,4.1,1.5l-0.9,0.6c-0.9-0.4-2.4-1-3.9-1.6L467.4,464.9z"/>
			<path fill="#A7A9AC" d="M475.4,461c-0.3,1.6-0.9,3.5-1.6,4.5c-0.1-0.4-0.3-0.8-0.5-1.1c0.6-0.8,1.2-2.4,1.4-3.6L475.4,461z
				 M476.6,459.9v7.1h-1v-7.1h-2.2v-1h2.2v-4.7h1v4.7h2.3v1H476.6z M474.3,458.4c-0.1-0.8-0.4-2.1-0.8-3.1l0.8-0.2
				c0.4,1,0.7,2.2,0.8,3.1L474.3,458.4z M477.3,460.7c0.3,0.4,1.3,2.3,1.5,2.8l-0.7,0.8c-0.3-0.8-1-2.5-1.3-3.2L477.3,460.7z
				 M478.9,455.3c-0.3,1.1-0.8,2.4-1.1,3.1l-0.7-0.2c0.3-0.8,0.7-2.2,0.9-3.1L478.9,455.3z M484.4,463.1v3.9h-1v-3.8l-4.3,0.8
				l-0.2-1l4.5-0.8v-8h1v7.9l1.7-0.3l0.2,1L484.4,463.1z M481.5,461.1c-0.5-0.5-1.5-1.2-2.3-1.7l0.5-0.7c0.8,0.4,1.8,1.1,2.3,1.6
				L481.5,461.1z M482.1,457.7c-0.4-0.5-1.4-1.3-2.2-1.8l0.5-0.7c0.8,0.5,1.8,1.2,2.2,1.7L482.1,457.7z"/>
			<path fill="#A7A9AC" d="M499.7,459.7c-0.5,1.6-1.2,3.2-2.1,4.5c0.4,1.1,0.9,1.7,1.5,1.7c0.3,0,0.5-0.6,0.6-2.2
				c0.2,0.2,0.6,0.4,0.8,0.5c-0.2,2.1-0.5,2.7-1.5,2.7c-0.9,0-1.6-0.6-2.1-1.8c-0.6,0.7-1.3,1.4-2.1,1.9c-0.2-0.2-0.5-0.5-0.7-0.7
				c0.2-0.1,0.3-0.2,0.4-0.3h-4.6v0.7H489v-5c-0.2,0.3-0.4,0.5-0.6,0.7c-0.2-0.2-0.5-0.4-0.7-0.6c0.9-0.8,1.7-2,2.2-3.2l0.9,0.2
				c-0.2,0.4-0.4,0.8-0.6,1.2h1.9c-0.2-0.4-0.4-0.8-0.6-1.1l0.8-0.3c0.3,0.4,0.7,1,0.8,1.4h1.8v0.8h-2.1v0.9h1.8v0.7h-1.8v1h1.8v0.7
				h-1.8v1h2v0.6c0.6-0.5,1.1-1.1,1.6-1.7c-0.4-1.4-0.7-3.3-0.9-5.5h-7.7v-0.9h3.2v-1.2h-2.6v-0.9h2.6v-1.3h1v1.3h2.5v0.9H492v1.2
				h3.5c-0.1-1.1-0.1-2.2-0.1-3.4h1c0,1.2,0,2.3,0.1,3.4h3.8v0.9h-3.7c0.1,1.7,0.4,3.2,0.6,4.4c0.6-1.1,1.1-2.3,1.5-3.5L499.7,459.7
				z M491.9,460.9h-2v0.9h2V460.9z M491.9,462.5h-2v1h2V462.5z M489.9,465.2h2v-1h-2V465.2z M499.2,457.1c-0.4-0.6-1.3-1.5-2-2
				l0.7-0.5c0.8,0.6,1.6,1.4,2.1,2L499.2,457.1z"/>
			<path fill="#A7A9AC" d="M514.7,465.5v1h-12.4v-1h5.6v-2.6h-4.4v-1h4.4v-1.8h1.1v1.8h4.6v1h-4.6v2.6H514.7z M513.2,460.5
				c-0.2-0.3-0.5-0.6-0.9-1c-7.6,0.4-8.3,0.4-8.8,0.6c-0.1-0.2-0.2-0.8-0.3-1c0.3,0,0.6-0.3,1-0.6c0.3-0.3,1.3-1.3,2.1-2.4h-3.7v-1
				h11.7v1h-6.6c-0.8,1.1-1.7,2.1-2.6,2.9l6.5-0.3c-0.6-0.5-1.2-1-1.7-1.5l0.8-0.5c1.3,0.9,2.8,2.3,3.6,3.2L513.2,460.5z"/>
			<path fill="#A7A9AC" d="M516.4,465.2c3.2-2.8,4.7-4.9,4.7-6.6c0-1.2-0.6-2-1.9-2c-0.8,0-1.6,0.5-2.1,1.2l-0.7-0.7
				c0.8-0.9,1.7-1.5,3-1.5c1.8,0,3,1.2,3,3c0,2-1.6,4.1-4,6.4c0.5,0,1.2-0.1,1.7-0.1h2.8v1.1h-6.5V465.2z"/>
			<path fill="#A7A9AC" d="M524.6,460.8c0-3.6,1.2-5.3,3.2-5.3c1.9,0,3.2,1.7,3.2,5.3c0,3.6-1.2,5.4-3.2,5.4
				C525.8,466.1,524.6,464.4,524.6,460.8z M529.7,460.8c0-3-0.8-4.3-1.9-4.3c-1.2,0-2,1.3-2,4.3c0,3,0.8,4.3,2,4.3
				C528.9,465.1,529.7,463.8,529.7,460.8z"/>
			<path fill="#A7A9AC" d="M533.2,464.9h2.3v-7.7h-1.8v-0.8c0.9-0.2,1.6-0.4,2.1-0.7h1v9.2h2.1v1.1h-5.6V464.9z"/>
			<path fill="#A7A9AC" d="M545.8,456.8h-5v-1.1h6.4v0.8c-2.4,3.1-2.9,5.5-3,9.5h-1.3C543.1,462.1,543.8,459.6,545.8,456.8z"/>
			<path fill="#A7A9AC" d="M561.6,463.8h-5.1v3.2h-1.1v-3.2H549v-1h2.3v-3.8h4.2v-2.1H552c-0.6,1.1-1.4,2-2.1,2.8
				c-0.2-0.2-0.6-0.5-0.9-0.7c1.3-1.1,2.5-3,3.2-4.8l1.1,0.3c-0.2,0.5-0.4,1-0.6,1.5h8.3v1h-4.4v2.1h4.1v1h-4.1v2.8h5.1V463.8z
				 M555.4,462.8v-2.8h-3.1v2.8H555.4z"/>
			<path fill="#A7A9AC" d="M568.3,456.8h-5v-1.1h6.4v0.8c-2.4,3.1-2.9,5.5-3,9.5h-1.3C565.5,462.1,566.3,459.6,568.3,456.8z"/>
			<path fill="#A7A9AC" d="M582.2,465.5c0,0.7-0.2,1.1-0.7,1.3c-0.5,0.2-1.5,0.2-3,0.2c-0.1-0.3-0.3-0.8-0.4-1.1c1.2,0,2.3,0,2.6,0
				c0.3,0,0.4-0.1,0.4-0.4v-2.8h-6.7c-0.4,1.6-1.1,3.2-2.4,4.4c-0.1-0.2-0.6-0.6-0.8-0.8c2.2-2,2.5-4.8,2.5-7V455h8.5V465.5z
				 M581.1,461.7v-2.4h-6.4c0,0.7,0,1.5-0.2,2.4H581.1z M574.7,456v2.3h6.4V456H574.7z"/>
			<path fill="#A7A9AC" d="M586.3,464.9h2.3v-7.7h-1.8v-0.8c0.9-0.2,1.6-0.4,2.1-0.7h1v9.2h2.1v1.1h-5.6V464.9z"/>
			<path fill="#A7A9AC" d="M593.6,464.8l0.6-0.8c0.6,0.6,1.3,1.1,2.5,1.1c1.2,0,2.2-0.9,2.2-2.4c0-1.5-0.8-2.3-2.1-2.3
				c-0.7,0-1.1,0.2-1.7,0.6l-0.7-0.4l0.3-4.8h5v1.1h-3.9l-0.3,3c0.4-0.3,0.9-0.4,1.5-0.4c1.7,0,3.1,1,3.1,3.3c0,2.3-1.6,3.5-3.4,3.5
				C595.3,466.1,594.3,465.5,593.6,464.8z"/>
			<path fill="#A7A9AC" d="M612.9,455.2v11.6h-1.1V466h-6.9v0.9h-1.1v-11.7H612.9z M604.9,456.2v3.8h6.9v-3.8H604.9z M611.8,464.9
				V461h-6.9v3.9H611.8z"/>
			<path fill="#A7A9AC" d="M619.2,458.5c1.2,0,2.1,1,2.1,2.1s-1,2.1-2.1,2.1c-1.2,0-2.1-1-2.1-2.1S618,458.5,619.2,458.5z
				 M619.2,462.1c0.8,0,1.4-0.6,1.4-1.4c0-0.8-0.6-1.4-1.4-1.4c-0.8,0-1.4,0.6-1.4,1.4C617.8,461.4,618.4,462.1,619.2,462.1z"/>
			<path fill="#A7A9AC" d="M44.3,474.7h2.9c2.3,0,3.9,0.8,3.9,3c0,2.2-1.5,3.2-3.8,3.2h-1.7v4.1h-1.3V474.7z M47.2,479.8
				c1.8,0,2.7-0.7,2.7-2.1c0-1.5-0.9-2-2.7-2h-1.5v4.1H47.2z"/>
			<path fill="#A7A9AC" d="M53.5,474.7h2.9c2.3,0,3.9,0.8,3.9,3c0,2.2-1.5,3.2-3.8,3.2h-1.7v4.1h-1.3V474.7z M56.4,479.8
				c1.8,0,2.7-0.7,2.7-2.1c0-1.5-0.9-2-2.7-2h-1.5v4.1H56.4z"/>
			<path fill="#A7A9AC" d="M62.7,474.7H64V485h-1.3V474.7z"/>
			<path fill="#A7A9AC" d="M78.8,481.2c-0.3,2.9-0.5,4-1,4.5c-0.2,0.3-0.5,0.3-0.9,0.4c-0.4,0-1,0-1.7,0c0-0.3-0.1-0.7-0.3-0.9
				c0.7,0.1,1.3,0.1,1.6,0.1c0.2,0,0.4,0,0.5-0.1c0.3-0.3,0.5-1.2,0.7-3.3h-8.4c-0.7,0.6-1.6,1.2-2.5,1.7c-0.1-0.3-0.4-0.7-0.6-0.9
				c2.6-1.3,4.5-3.4,5.9-5.8h-5v-0.9H70c-0.2-0.6-0.6-1.4-1.1-2l0.9-0.4c0.5,0.6,1,1.5,1.1,2l-0.8,0.3h2.5c0.4-0.8,0.7-1.6,1-2.5
				l1,0.3c-0.3,0.7-0.6,1.5-0.9,2.2h2.9c-0.1,0.8-0.3,1.8-0.5,2.5h1.6c-0.1,0.8-0.3,1.8-0.4,2.5h1.4L78.8,481.2z M67,485.4
				c0.9-0.6,1.4-1.8,1.6-2.9l0.9,0.3c-0.3,1.2-0.8,2.4-1.7,3.1L67,485.4z M71.8,479.1c-0.4,0.6-0.9,1.1-1.4,1.6h6.1
				c0.1-0.5,0.2-1.1,0.3-1.6H71.8z M71.3,482.8c0.3,0.8,0.4,1.9,0.4,2.5l-0.9,0.1c0-0.7-0.1-1.7-0.3-2.6L71.3,482.8z M73.4,476.6
				c-0.3,0.5-0.6,1.1-1,1.6h2.9c0.1-0.5,0.2-1,0.3-1.6H73.4z M73.3,482.5c0.4,0.7,0.7,1.6,0.8,2.3l-0.9,0.2
				c-0.1-0.6-0.4-1.6-0.7-2.3L73.3,482.5z M75.6,484.4c-0.2-0.5-0.6-1.3-1-1.9l0.7-0.3c0.4,0.6,0.9,1.3,1.1,1.8L75.6,484.4z"/>
			<path fill="#A7A9AC" d="M93.4,484.6v1H81v-1h5.7V481h-4.2v-1h4.2V477h-3.3c-0.4,0.9-0.9,1.7-1.5,2.3c-0.2-0.2-0.7-0.5-0.9-0.6
				c1.1-1.2,2-3.2,2.6-5.2l1.1,0.2c-0.2,0.8-0.5,1.5-0.8,2.2h2.8v-2.7h1.1v2.7h5v1h-5v3.1h4.5v1h-4.5v3.6H93.4z"/>
			<path fill="#A7A9AC" d="M97.2,478.9v2.1c0,1.6-0.2,3.7-1.5,5.2c-0.2-0.2-0.6-0.5-0.8-0.7c1.1-1.3,1.3-3.1,1.3-4.5V478H98
				c-0.1-0.2-0.4-0.4-0.5-0.5c1.1-0.2,2.4-0.5,3.6-0.8c-1.1-0.3-2.2-0.6-3.2-0.8l0.6-0.5h-2.2v-0.9h5.2c-0.2-0.4-0.5-0.7-0.8-1
				l0.7-0.4c0.4,0.4,0.8,1,1.1,1.4h4.7v0.9h-2.1l0.6,0.3c-0.6,0.3-1.3,0.7-2.1,0.9c1,0.3,2,0.6,2.7,0.9l-0.6,0.5h2v0.9H97.2z
				 M107.9,484.7v0.9H97.5v-0.9h4.6v-1.4h-3.3v-0.8h3.3v-1.2h-2.9c-0.4,0.7-0.9,1.3-1.3,1.7c-0.1-0.2-0.4-0.7-0.5-0.9
				c0.8-0.7,1.4-1.8,1.8-2.9l0.9,0.3c-0.1,0.3-0.3,0.6-0.4,1h2.5v-1.2h1v1.2h3.8v0.9h-3.8v1.2h3.5v0.8h-3.5v1.4H107.9z M105.3,478
				c-0.8-0.3-1.8-0.6-3-1c-1.3,0.4-2.6,0.7-3.8,1H105.3z M98.9,475.4c1.1,0.3,2.3,0.6,3.5,0.9c0.9-0.3,1.7-0.6,2.3-0.9H98.9z"/>
			<path fill="#A7A9AC" d="M116.8,478.7c-0.7,0.5-1.5,1-2.3,1.5h5.8v5.9h-1.1v-0.4h-5.7v0.4h-1v-4.8c-0.8,0.4-1.7,0.8-2.6,1.1
				c-0.1-0.2-0.5-0.6-0.7-0.9c2-0.7,4-1.6,5.8-2.8h-5.4v-0.9h4.8v-1.8h-3.6V475h3.6v-1.8h1v1.8h3.5v0.6c0.6-0.6,1.1-1.2,1.6-1.8
				l0.9,0.5c-1,1.3-2.1,2.5-3.4,3.5h4v0.9H116.8z M119.2,481h-5.7v1.4h5.7V481z M119.2,484.7v-1.5h-5.7v1.5H119.2z M116.4,477.7
				c0.8-0.6,1.5-1.2,2.1-1.8h-3.1v1.8H116.4z"/>
			<path fill="#A7A9AC" d="M127.3,480.9v5.1h-1v-4.8c-0.8,0.3-1.6,0.5-2.3,0.7l-0.3-1c0.7-0.2,1.6-0.4,2.6-0.7v-3.1H125
				c-0.2,0.8-0.4,1.5-0.6,2.1c-0.2-0.1-0.6-0.4-0.8-0.5c0.5-1.2,0.8-3,1-4.7l0.9,0.2c-0.1,0.6-0.2,1.3-0.3,1.9h1.1v-2.8h1v2.8h1.4v1
				h-1.4v2.9l1.6-0.5l0.1,0.9L127.3,480.9z M136.4,475.6c0,0,0,0.4,0,0.5c-0.3,6.3-0.6,8.5-1.2,9.2c-0.3,0.4-0.5,0.5-1,0.5
				c-0.4,0.1-1,0-1.6,0c0-0.3-0.1-0.7-0.3-1c0.6,0.1,1.2,0.1,1.5,0.1c0.2,0,0.4-0.1,0.5-0.2c0.4-0.5,0.8-2.6,1-8.1h-0.7
				c-0.7,3.7-2.2,7.4-4.6,9.2c-0.2-0.2-0.6-0.5-0.9-0.6c2.3-1.7,3.8-5.1,4.5-8.6h-1.1c-0.6,2.4-1.9,5-3.4,6.3
				c-0.2-0.2-0.5-0.4-0.8-0.6c1.5-1.2,2.7-3.5,3.4-5.7h-1.2c-0.5,1-1,1.9-1.6,2.7c-0.2-0.2-0.6-0.5-0.8-0.6c1.1-1.2,2-3.3,2.5-5.4
				l1,0.2c-0.2,0.7-0.4,1.5-0.6,2.2h4.5v0L136.4,475.6z"/>
			<path fill="#A7A9AC" d="M141.8,473.6c-0.3,0.9-0.7,1.8-1.1,2.7v9.7h-1v-7.8c-0.4,0.7-0.9,1.3-1.3,1.9c-0.1-0.3-0.4-0.8-0.5-1.1
				c1.2-1.4,2.3-3.5,3-5.7L141.8,473.6z M145.5,484.6c-0.9,0.6-2.2,1.1-3.5,1.4c-0.1-0.2-0.4-0.5-0.6-0.7c1.2-0.3,2.6-0.8,3.3-1.3
				L145.5,484.6z M144.6,474.8h-2.7V474h8.9v0.8h-2.9v0.8h2.5v2.7h-8.2v-2.7h2.4V474.8z M142.5,484v-5h7.7v5H142.5z M143.1,477.6
				h1.5v-1.3h-1.5V477.6z M143.5,480.4h5.7v-0.8h-5.7V480.4z M143.5,481.9h5.7v-0.8h-5.7V481.9z M143.5,483.3h5.7v-0.8h-5.7V483.3z
				 M147,474.8h-1.5v0.8h1.5V474.8z M145.5,477.6h1.5v-1.3h-1.5V477.6z M147.7,484.1c1.2,0.4,2.6,1,3.4,1.4l-0.9,0.6
				c-0.7-0.4-1.9-1-3.2-1.4L147.7,484.1z M147.9,476.3v1.3h1.5v-1.3H147.9z"/>
			<path fill="#A7A9AC" d="M157.3,480.2l-1.8,0.5v4c0,0.6-0.1,0.9-0.5,1c-0.4,0.2-0.9,0.2-1.8,0.2c0-0.3-0.2-0.7-0.3-1
				c0.6,0,1.2,0,1.4,0c0.2,0,0.3-0.1,0.3-0.3v-3.7c-0.7,0.2-1.3,0.4-1.9,0.6l-0.3-1c0.6-0.2,1.4-0.4,2.2-0.6v-3h-2v-1h2v-2.8h1v2.8
				h1.6v1h-1.6v2.6c0.5-0.1,1.1-0.3,1.6-0.5L157.3,480.2z M159.8,478.7c-1.4,0-1.8-0.4-1.8-1.6v-3.8h1v1.7h5.6v0.9h-5.6v1.2
				c0,0.5,0.2,0.7,0.8,0.7h3.7c0.5,0,1.2,0,1.5-0.1c0,0.3,0.1,0.7,0.1,0.9c-0.3,0.1-1,0.1-1.6,0.1H159.8z M158.1,479.9h6.6v6.1h-1
				v-0.6H159v0.6h-1V479.9z M159,480.8v1.4h4.5v-1.4H159z M163.6,484.5v-1.5H159v1.5H163.6z"/>
			<path fill="#A7A9AC" d="M173.1,482.4c-0.1,0.6-0.4,1.2-1.2,1.8c0.6,0.3,1.2,0.6,1.6,0.8l-0.7,0.6c-0.4-0.3-1.1-0.6-1.7-0.9
				c-0.9,0.5-2.2,0.9-3.9,1.2c-0.1-0.2-0.3-0.5-0.4-0.7c1.5-0.3,2.6-0.6,3.4-0.9c-0.7-0.3-1.5-0.6-2.2-0.8c0.2-0.3,0.5-0.6,0.7-0.9
				l-1.7,0.1l-0.1-0.8c0.6,0,1.4-0.1,2.3-0.1c0.2-0.4,0.4-0.7,0.6-1.1h-2.3v-2.3h2.6V478h-2.3v-1.5H167v-0.8h0.9v-1.4h2.3v-1h0.8v1
				h2.4v1.4h1v0.8h-1v1.5H171v0.6h2.7v2.3h-3c-0.2,0.4-0.4,0.7-0.6,1.1c0.7,0,1.4-0.1,2.1-0.1v-0.1v-0.5h0.9v0.5v0.1l0.7,0l0,0.7
				L173.1,482.4z M168.4,480.1h1.8v-0.9h-1.8V480.1z M168.8,475v0.7h1.4V475H168.8z M170.1,477.2v-0.8h-1.4v0.8H170.1z M169.7,482.6
				c-0.1,0.2-0.3,0.4-0.4,0.6c0.6,0.2,1.2,0.4,1.8,0.6c0.7-0.4,1-1,1.2-1.4L169.7,482.6z M171,475v0.7h1.5V475H171z M172.4,477.2
				v-0.8H171v0.8H172.4z M171,479.3v0.9h1.8v-0.9H171z M178.6,476.9c-0.3,2.1-0.6,3.9-1.3,5.4c0.6,1.3,1.4,2.3,2.4,2.9
				c-0.2,0.2-0.5,0.5-0.6,0.7c-0.9-0.6-1.6-1.5-2.2-2.6c-0.6,1.1-1.4,2.1-2.5,2.9c-0.1-0.2-0.4-0.6-0.6-0.8c1.2-0.8,2-1.8,2.6-3.2
				c-0.4-1.1-0.8-2.3-1-3.7c-0.2,0.6-0.5,1.1-0.7,1.5c-0.2-0.1-0.5-0.5-0.7-0.6c0.9-1.5,1.5-3.7,1.8-6l0.9,0.1
				c-0.1,0.8-0.3,1.6-0.4,2.4h3.4v0.9H178.6z M175.9,476.9c0.2,1.5,0.5,2.9,0.9,4.1c0.4-1.2,0.6-2.6,0.8-4.1H175.9z"/>
			<path fill="#A7A9AC" d="M182.6,481.6c1.1-0.4,1.7-1.1,1.8-2.1c-0.1,0-0.2,0-0.2,0c-0.6,0-1.1-0.3-1.1-1c0-0.7,0.5-1,1.1-1
				c0.8,0,1.2,0.6,1.2,1.6c0,1.5-1,2.7-2.4,3.2L182.6,481.6z"/>
			<path fill="#A7A9AC" d="M188.7,479.8c0-3.3,1.9-5.3,4.6-5.3c1.2,0,2.2,0.6,2.8,1.3l-0.7,0.8c-0.5-0.6-1.2-1-2.1-1
				c-1.9,0-3.2,1.6-3.2,4.2c0,2.6,1.2,4.2,3.2,4.2c1,0,1.7-0.4,2.4-1.1l0.7,0.8c-0.8,0.9-1.8,1.5-3.2,1.5
				C190.7,485.1,188.7,483.2,188.7,479.8z"/>
			<path fill="#A7A9AC" d="M198.6,474.7h2.9c2.3,0,3.9,0.8,3.9,3c0,2.2-1.5,3.2-3.8,3.2h-1.7v4.1h-1.3V474.7z M201.4,479.8
				c1.8,0,2.7-0.7,2.7-2.1c0-1.5-0.9-2-2.7-2h-1.5v4.1H201.4z"/>
			<path fill="#A7A9AC" d="M207.8,474.7h1.3V485h-1.3V474.7z"/>
			<path fill="#A7A9AC" d="M223.8,481.2c-0.3,2.9-0.5,4-1,4.5c-0.2,0.3-0.5,0.3-0.9,0.4c-0.4,0-1,0-1.7,0c0-0.3-0.1-0.7-0.3-0.9
				c0.7,0.1,1.3,0.1,1.6,0.1c0.2,0,0.4,0,0.5-0.1c0.3-0.3,0.5-1.2,0.7-3.3h-8.4c-0.7,0.6-1.6,1.2-2.5,1.7c-0.1-0.3-0.4-0.7-0.6-0.9
				c2.6-1.3,4.5-3.4,5.9-5.8h-5v-0.9h2.8c-0.2-0.6-0.6-1.4-1.1-2l0.9-0.4c0.5,0.6,1,1.5,1.1,2l-0.8,0.3h2.5c0.4-0.8,0.7-1.6,1-2.5
				l1,0.3c-0.3,0.7-0.6,1.5-0.9,2.2h2.9c-0.1,0.8-0.3,1.8-0.5,2.5h1.6c-0.1,0.8-0.3,1.8-0.4,2.5h1.4L223.8,481.2z M212,485.4
				c0.9-0.6,1.4-1.8,1.6-2.9l0.9,0.3c-0.3,1.2-0.8,2.4-1.7,3.1L212,485.4z M216.9,479.1c-0.4,0.6-0.9,1.1-1.4,1.6h6.1
				c0.1-0.5,0.2-1.1,0.3-1.6H216.9z M216.3,482.8c0.3,0.8,0.4,1.9,0.4,2.5l-0.9,0.1c0-0.7-0.1-1.7-0.3-2.6L216.3,482.8z
				 M218.4,476.6c-0.3,0.5-0.6,1.1-1,1.6h2.9c0.1-0.5,0.2-1,0.3-1.6H218.4z M218.4,482.5c0.4,0.7,0.7,1.6,0.8,2.3l-0.9,0.2
				c-0.1-0.6-0.4-1.6-0.7-2.3L218.4,482.5z M220.7,484.4c-0.2-0.5-0.6-1.3-1-1.9l0.7-0.3c0.4,0.6,0.9,1.3,1.1,1.8L220.7,484.4z"/>
			<path fill="#A7A9AC" d="M228.3,479.5c-0.6-0.4-1.7-1.1-2.6-1.5l0.6-0.8c0.8,0.4,2,1,2.6,1.4L228.3,479.5z M226.2,485.1
				c0.7-1.1,1.8-2.9,2.6-4.5l0.8,0.7c-0.7,1.5-1.7,3.2-2.5,4.5L226.2,485.1z M227.1,473.4c0.8,0.5,2,1.1,2.5,1.5l-0.6,0.8
				c-0.6-0.4-1.7-1.1-2.5-1.6L227.1,473.4z M237.8,484.7c0,0.6-0.1,0.9-0.5,1.1c-0.4,0.2-1.1,0.2-2.2,0.2c0-0.3-0.2-0.7-0.3-1
				c0.8,0,1.5,0,1.7,0c0.2,0,0.3-0.1,0.3-0.3v-2.6c-1.7,0.4-3.4,0.9-4.7,1.2l-0.4-0.9c1.3-0.3,3.2-0.7,5.1-1.1v-3.1h-5.3v2.9
				c0,1.5-0.1,3.6-1,5c-0.2-0.2-0.6-0.5-0.8-0.6c0.7-1.3,0.8-3,0.8-4.4v-3.9h3.2v-4h1v4h3.1V484.7z M231.5,476.7
				c-0.2-0.7-0.8-1.8-1.4-2.6l0.9-0.4c0.6,0.8,1.2,1.8,1.5,2.6L231.5,476.7z M232.3,479.1c1.2,0.2,2.8,0.7,3.6,1.2l-0.4,0.8
				c-0.8-0.4-2.4-1-3.6-1.2L232.3,479.1z M238.2,474c-0.5,0.9-1.1,1.9-1.6,2.6l-0.9-0.4c0.5-0.7,1.1-1.8,1.5-2.6L238.2,474z"/>
			<path fill="#A7A9AC" d="M245.4,484.4c-1.1,0.6-2.9,1.3-4.3,1.6c-0.2-0.2-0.5-0.6-0.7-0.8c1.4-0.3,3.1-0.8,4.1-1.3L245.4,484.4z
				 M248.8,484c1.5,0.4,3,1,3.9,1.4l-0.8,0.6c-0.9-0.4-2.5-1-4.1-1.5l0.5-0.5h-6.2v-4.4c-0.4,0.1-0.8,0.2-1.2,0.3
				c-0.1-0.2-0.3-0.6-0.5-0.8c1.8-0.3,2.8-0.8,3.4-1.3h-2.4c0.1-0.6,0.3-1.5,0.4-2.2h2.8v-0.8h-3.4V474h3.4v-0.8h1v0.8h2.2v-0.8h1
				v0.8h3.1v2.2h-3.1v0.8h4c0,0,0,0.2,0,0.3c-0.1,0.8-0.2,1.2-0.4,1.3c-0.2,0.2-0.4,0.2-0.7,0.3c-0.1,0-0.2,0-0.4,0v5H248.8z
				 M242.6,476.2c0,0.3-0.1,0.6-0.1,0.8h1.8c0.1-0.3,0.2-0.5,0.2-0.8H242.6z M250.1,479.4h-7v0.9h7V479.4z M250.1,480.9h-7v0.9h7
				V480.9z M243.1,483.3h7v-0.9h-7V483.3z M245,477.7c-0.2,0.4-0.5,0.7-1,1h6.3c0-0.2-0.1-0.3-0.2-0.4c0.4,0,0.8,0.1,1,0.1
				c0.2,0,0.3,0,0.3-0.1c0.1-0.1,0.1-0.2,0.2-0.5h-3v1h-1v-1H245z M247.6,476.2h-2.2c0,0.3-0.1,0.6-0.1,0.8h2.3V476.2z M245.5,475.5
				h2.2v-0.8h-2.2V475.5z M248.6,474.7v0.8h2.2v-0.8H248.6z"/>
			<path fill="#A7A9AC" d="M261.9,478.7c-0.7,0.5-1.5,1-2.3,1.5h5.8v5.9h-1.1v-0.4h-5.7v0.4h-1v-4.8c-0.8,0.4-1.7,0.8-2.6,1.1
				c-0.1-0.2-0.5-0.6-0.7-0.9c2-0.7,4-1.6,5.8-2.8h-5.4v-0.9h4.8v-1.8h-3.6V475h3.6v-1.8h1v1.8h3.5v0.6c0.6-0.6,1.1-1.2,1.6-1.8
				l0.9,0.5c-1,1.3-2.1,2.5-3.4,3.5h4v0.9H261.9z M264.3,481h-5.7v1.4h5.7V481z M264.3,484.7v-1.5h-5.7v1.5H264.3z M261.5,477.7
				c0.8-0.6,1.5-1.2,2.1-1.8h-3.1v1.8H261.5z"/>
			<path fill="#A7A9AC" d="M272.4,480.9v5.1h-1v-4.8c-0.8,0.3-1.6,0.5-2.3,0.7l-0.3-1c0.7-0.2,1.6-0.4,2.6-0.7v-3.1h-1.3
				c-0.2,0.8-0.4,1.5-0.6,2.1c-0.2-0.1-0.6-0.4-0.8-0.5c0.5-1.2,0.8-3,1-4.7l0.9,0.2c-0.1,0.6-0.2,1.3-0.3,1.9h1.1v-2.8h1v2.8h1.4v1
				h-1.4v2.9l1.6-0.5l0.1,0.9L272.4,480.9z M281.5,475.6c0,0,0,0.4,0,0.5c-0.3,6.3-0.6,8.5-1.2,9.2c-0.3,0.4-0.5,0.5-1,0.5
				c-0.4,0.1-1,0-1.6,0c0-0.3-0.1-0.7-0.3-1c0.6,0.1,1.2,0.1,1.5,0.1c0.2,0,0.4-0.1,0.5-0.2c0.4-0.5,0.8-2.6,1-8.1h-0.7
				c-0.7,3.7-2.2,7.4-4.6,9.2c-0.2-0.2-0.6-0.5-0.9-0.6c2.3-1.7,3.8-5.1,4.5-8.6h-1.1c-0.6,2.4-1.9,5-3.4,6.3
				c-0.2-0.2-0.5-0.4-0.8-0.6c1.5-1.2,2.7-3.5,3.4-5.7h-1.2c-0.5,1-1,1.9-1.6,2.7c-0.2-0.2-0.6-0.5-0.8-0.6c1.1-1.2,2-3.3,2.5-5.4
				l1,0.2c-0.2,0.7-0.4,1.5-0.6,2.2h4.5v0L281.5,475.6z"/>
			<path fill="#A7A9AC" d="M286.9,473.6c-0.3,0.9-0.7,1.8-1.1,2.7v9.7h-1v-7.8c-0.4,0.7-0.9,1.3-1.3,1.9c-0.1-0.3-0.4-0.8-0.5-1.1
				c1.2-1.4,2.3-3.5,3-5.7L286.9,473.6z M290.6,484.6c-0.9,0.6-2.2,1.1-3.5,1.4c-0.1-0.2-0.4-0.5-0.6-0.7c1.2-0.3,2.6-0.8,3.3-1.3
				L290.6,484.6z M289.7,474.8H287V474h8.9v0.8H293v0.8h2.5v2.7h-8.2v-2.7h2.4V474.8z M287.6,484v-5h7.7v5H287.6z M288.2,477.6h1.5
				v-1.3h-1.5V477.6z M288.5,480.4h5.7v-0.8h-5.7V480.4z M288.5,481.9h5.7v-0.8h-5.7V481.9z M288.5,483.3h5.7v-0.8h-5.7V483.3z
				 M292.1,474.8h-1.5v0.8h1.5V474.8z M290.5,477.6h1.5v-1.3h-1.5V477.6z M292.8,484.1c1.2,0.4,2.6,1,3.4,1.4l-0.9,0.6
				c-0.7-0.4-1.9-1-3.2-1.4L292.8,484.1z M293,476.3v1.3h1.5v-1.3H293z"/>
			<path fill="#A7A9AC" d="M302.4,480.2l-1.8,0.5v4c0,0.6-0.1,0.9-0.5,1c-0.4,0.2-0.9,0.2-1.8,0.2c0-0.3-0.2-0.7-0.3-1
				c0.6,0,1.2,0,1.4,0c0.2,0,0.3-0.1,0.3-0.3v-3.7c-0.7,0.2-1.3,0.4-1.9,0.6l-0.3-1c0.6-0.2,1.4-0.4,2.2-0.6v-3h-2v-1h2v-2.8h1v2.8
				h1.6v1h-1.6v2.6c0.5-0.1,1.1-0.3,1.6-0.5L302.4,480.2z M304.9,478.7c-1.4,0-1.8-0.4-1.8-1.6v-3.8h1v1.7h5.6v0.9h-5.6v1.2
				c0,0.5,0.2,0.7,0.8,0.7h3.7c0.5,0,1.2,0,1.5-0.1c0,0.3,0.1,0.7,0.1,0.9c-0.3,0.1-1,0.1-1.6,0.1H304.9z M303.1,479.9h6.6v6.1h-1
				v-0.6h-4.5v0.6h-1V479.9z M304.1,480.8v1.4h4.5v-1.4H304.1z M308.7,484.5v-1.5h-4.5v1.5H308.7z"/>
			<path fill="#A7A9AC" d="M318.1,482.4c-0.1,0.6-0.4,1.2-1.2,1.8c0.6,0.3,1.2,0.6,1.6,0.8l-0.7,0.6c-0.4-0.3-1.1-0.6-1.7-0.9
				c-0.9,0.5-2.2,0.9-3.9,1.2c-0.1-0.2-0.3-0.5-0.4-0.7c1.5-0.3,2.6-0.6,3.4-0.9c-0.7-0.3-1.5-0.6-2.2-0.8c0.2-0.3,0.5-0.6,0.7-0.9
				l-1.7,0.1L312,482c0.6,0,1.4-0.1,2.3-0.1c0.2-0.4,0.4-0.7,0.6-1.1h-2.3v-2.3h2.6V478H313v-1.5H312v-0.8h0.9v-1.4h2.3v-1h0.8v1
				h2.4v1.4h1v0.8h-1v1.5h-2.4v0.6h2.7v2.3h-3c-0.2,0.4-0.4,0.7-0.6,1.1c0.7,0,1.4-0.1,2.1-0.1v-0.1v-0.5h0.9v0.5v0.1l0.7,0l0,0.7
				L318.1,482.4z M313.5,480.1h1.8v-0.9h-1.8V480.1z M313.9,475v0.7h1.4V475H313.9z M315.2,477.2v-0.8h-1.4v0.8H315.2z M314.7,482.6
				c-0.1,0.2-0.3,0.4-0.4,0.6c0.6,0.2,1.2,0.4,1.8,0.6c0.7-0.4,1-1,1.2-1.4L314.7,482.6z M316.1,475v0.7h1.5V475H316.1z
				 M317.5,477.2v-0.8h-1.5v0.8H317.5z M316.1,479.3v0.9h1.8v-0.9H316.1z M323.7,476.9c-0.3,2.1-0.6,3.9-1.3,5.4
				c0.6,1.3,1.4,2.3,2.4,2.9c-0.2,0.2-0.5,0.5-0.6,0.7c-0.9-0.6-1.6-1.5-2.2-2.6c-0.6,1.1-1.4,2.1-2.5,2.9c-0.1-0.2-0.4-0.6-0.6-0.8
				c1.2-0.8,2-1.8,2.6-3.2c-0.4-1.1-0.8-2.3-1-3.7c-0.2,0.6-0.5,1.1-0.7,1.5c-0.2-0.1-0.5-0.5-0.7-0.6c0.9-1.5,1.5-3.7,1.8-6
				l0.9,0.1c-0.1,0.8-0.3,1.6-0.4,2.4h3.4v0.9H323.7z M321,476.9c0.2,1.5,0.5,2.9,0.9,4.1c0.4-1.2,0.6-2.6,0.8-4.1H321z"/>
		</g>
	</g>
</g>
<g>
</g>
<g>
</g>
<g>
</g>
<g>
</g>
<g>
</g>
<g>
</g>
<g>
</g>
<g>
</g>
<g>
</g>
<g>
</g>
<g>
</g>
<g>
</g>
<g>
</g>
<g>
</g>
<g>
</g>
</svg>
