<?xml version="1.0" encoding="utf-8"?>
<!-- Generator: Adobe Illustrator 18.0.0, SVG Export Plug-In . SVG Version: 6.00 Build 0)  -->
<!DOCTYPE svg PUBLIC "-//W3C//DTD SVG 1.1//EN" "http://www.w3.org/Graphics/SVG/1.1/DTD/svg11.dtd">
<svg version="1.1" id="Layer_1" xmlns="http://www.w3.org/2000/svg" xmlns:xlink="http://www.w3.org/1999/xlink" x="0px" y="0px"
	 viewBox="0 0 58.3 58.3" enable-background="new 0 0 58.3 58.3" xml:space="preserve">
<g>
	<circle fill="#573392" cx="29.1" cy="29.1" r="29.1"/>
	<g>
		<g>
			<polygon fill="#FFFFFF" points="24.2,55.2 24,35.1 13.3,24.2 13.2,15.6 15.2,15.6 15.3,23.4 26,34.3 26.2,55.2 			"/>
			
				<rect x="7.2" y="32" transform="matrix(1.072561e-002 0.9999 -0.9999 1.072561e-002 62.0603 3.2555)" fill="#FFFFFF" width="44.3" height="2"/>
			<polygon fill="#FFFFFF" points="32.3,55.1 32,29.7 39.9,23.4 43.6,11.1 45.5,11.7 41.6,24.6 34,30.7 34.3,55.1 			"/>
			<path fill="#FFFFFF" d="M14.2,16.7c-0.8,0-1.6-0.3-2.2-0.9c-0.6-0.6-0.9-1.4-0.9-2.2c0-1.7,1.4-3.1,3.1-3.1c0,0,0,0,0,0
				c1.7,0,3.1,1.4,3.1,3.1c0,0.8-0.3,1.6-0.9,2.2C15.8,16.3,15.1,16.7,14.2,16.7C14.2,16.7,14.2,16.7,14.2,16.7z M14.2,12.5
				C14.2,12.5,14.2,12.5,14.2,12.5c-0.6,0-1.1,0.5-1.1,1.1c0,0.6,0.5,1.1,1.1,1.1c0,0,0,0,0,0c0.3,0,0.6-0.1,0.8-0.3
				c0.2-0.2,0.3-0.5,0.3-0.8l0,0C15.3,12.9,14.8,12.5,14.2,12.5z"/>
			<path fill="#FFFFFF" d="M13.1,36.5c-0.8,0-1.6-0.3-2.2-0.9C10.4,35,10,34.2,10,33.4c0-1.7,1.4-3.1,3.1-3.1c0,0,0,0,0,0
				c1.7,0,3.1,1.4,3.1,3.1l0,0C16.3,35,14.9,36.5,13.1,36.5C13.1,36.5,13.1,36.5,13.1,36.5z M13.1,32.3
				C13.1,32.3,13.1,32.3,13.1,32.3c-0.6,0-1.1,0.5-1.1,1.1c0,0.3,0.1,0.6,0.3,0.8s0.5,0.3,0.8,0.3c0.6,0,1.1-0.5,1.1-1.1l0,0
				C14.2,32.7,13.7,32.3,13.1,32.3z"/>
			<path fill="#FFFFFF" d="M29.1,11.8c-1.7,0-3.1-1.4-3.1-3.1c0-0.8,0.3-1.6,0.9-2.2c0.6-0.6,1.4-0.9,2.2-0.9c0.8,0,1.6,0.3,2.2,0.9
				c0.6,0.6,0.9,1.4,0.9,2.2l0,0C32.3,10.4,30.9,11.8,29.1,11.8C29.2,11.8,29.1,11.8,29.1,11.8z M29.1,7.6
				C29.1,7.6,29.1,7.6,29.1,7.6c-0.3,0-0.6,0.1-0.8,0.3C28.1,8.2,28,8.4,28,8.7c0,0.6,0.5,1.1,1.1,1.1c0,0,0,0,0,0
				c0.6,0,1.1-0.5,1.1-1.1l0,0c0-0.3-0.1-0.6-0.3-0.8C29.7,7.7,29.4,7.6,29.1,7.6z"/>
			<path fill="#FFFFFF" d="M44.6,12.6c-1.7,0-3.1-1.4-3.1-3.1c0-0.8,0.3-1.6,0.9-2.2c0.6-0.6,1.4-0.9,2.2-0.9c0.8,0,1.6,0.3,2.2,0.9
				c0.6,0.6,0.9,1.4,0.9,2.2l0,0C47.7,11.2,46.3,12.6,44.6,12.6C44.6,12.6,44.6,12.6,44.6,12.6z M44.6,8.4
				C44.6,8.4,44.6,8.4,44.6,8.4c-0.3,0-0.6,0.1-0.8,0.3c-0.2,0.2-0.3,0.5-0.3,0.8c0,0.6,0.5,1.1,1.1,1.1c0,0,0,0,0,0
				c0.6,0,1.1-0.5,1.1-1.1l0,0C45.7,8.9,45.2,8.4,44.6,8.4z"/>
			<polygon fill="#FFFFFF" points="20.6,55.2 20.4,44.4 12.2,41.8 12.1,35.5 14.1,35.5 14.2,40.3 22.4,43 22.6,55.2 			"/>
			<path fill="#FFFFFF" d="M45.2,36.1c-0.8,0-1.6-0.3-2.2-0.9c-0.6-0.6-0.9-1.4-0.9-2.2l0,0c0-1.7,1.4-3.1,3.1-3.1c0,0,0,0,0,0
				c1.7,0,3.1,1.4,3.1,3.1c0,0.8-0.3,1.6-0.9,2.2C46.9,35.8,46.1,36.1,45.2,36.1C45.2,36.1,45.2,36.1,45.2,36.1z M44.1,33
				c0,0.6,0.5,1.1,1.1,1.1c0,0,0,0,0,0c0.3,0,0.6-0.1,0.8-0.3c0.2-0.2,0.3-0.5,0.3-0.8c0-0.6-0.5-1.1-1.1-1.1c0,0,0,0,0,0
				C44.6,31.9,44.1,32.4,44.1,33L44.1,33z"/>
			<polygon fill="#FFFFFF" points="36.3,55.1 36.1,42.8 44.3,40 44.3,35.1 46.3,35.1 46.3,41.5 38.2,44.2 38.3,55 			"/>
		</g>
	</g>
</g>
<g>
</g>
<g>
</g>
<g>
</g>
<g>
</g>
<g>
</g>
<g>
</g>
<g>
</g>
<g>
</g>
<g>
</g>
<g>
</g>
<g>
</g>
<g>
</g>
<g>
</g>
<g>
</g>
<g>
</g>
</svg>
