<?xml version="1.0" encoding="utf-8"?>
<!-- Generator: Adobe Illustrator 18.0.0, SVG Export Plug-In . SVG Version: 6.00 Build 0)  -->
<!DOCTYPE svg PUBLIC "-//W3C//DTD SVG 1.1//EN" "http://www.w3.org/Graphics/SVG/1.1/DTD/svg11.dtd">
<svg version="1.1" id="Layer_1" xmlns="http://www.w3.org/2000/svg" xmlns:xlink="http://www.w3.org/1999/xlink" x="0px" y="0px"
	 viewBox="0 0 301.8 157.1" enable-background="new 0 0 301.8 157.1" xml:space="preserve">
<g>
	<g>
		<g>
			<path fill="#231F20" d="M19.5,127.4c0,0.1,0,0.3,0,0.4c0.2,1,0.4,1.6,1,2.1c-0.1,0.1-0.2,0.2-0.2,0.3c-0.4-0.4-0.7-0.9-0.9-1.5
				c-0.1,0.5-0.4,1.1-0.8,1.5c-0.1-0.1-0.2-0.2-0.3-0.3l0,0c-0.1,0-0.3,0-0.4,0h-1.1c-0.5,0-0.7-0.2-0.7-0.7v-3h-0.2v-0.3h2.4v0.3
				h-1.9v3c0,0.3,0.1,0.4,0.4,0.4h1.1c0.1,0,0.3,0,0.5,0c0,0.1,0,0.2,0,0.2c0.7-0.8,0.8-1.8,0.8-2.4V127h0.3V127.4z M16.6,128h0.8
				v1.3h-0.8V128z M18.1,127.6h-1.3v-1.1h1.3V127.6z M16.8,129h0.3v-0.8h-0.3V129z M17.8,126.8h-0.7v0.6h0.7V126.8z M18.3,129.2
				h-0.8V128h0.8V129.2z M18.1,128.2h-0.4v0.8h0.4V128.2z M19,126.7c-0.1,0.4-0.3,0.7-0.4,1c-0.1-0.1-0.2-0.2-0.3-0.2
				c0.3-0.5,0.5-1.2,0.6-2l0.3,0.1c0,0.3-0.1,0.5-0.1,0.8h1.2l0.1,0l0.2,0.1c-0.1,0.4-0.2,1-0.4,1.3l-0.3-0.1
				c0.1-0.2,0.2-0.6,0.2-0.9H19z"/>
			<path fill="#231F20" d="M25.1,129.7c0.2,0,0.2-0.1,0.3-0.9c0.1,0.1,0.2,0.1,0.3,0.2c0,0.9-0.1,1.1-0.6,1.1h-0.7
				c-0.4,0-0.6-0.1-0.6-0.6v-1.8h-0.9c-0.1,1.1-0.3,2-1.5,2.4c0-0.1-0.2-0.2-0.2-0.3c1.1-0.4,1.3-1.2,1.3-2.1h-1.3v-0.4h4.4v0.4
				h-1.4v1.8c0,0.2,0,0.2,0.2,0.2H25.1z M25.2,126.3h-3.6V126h3.6V126.3z"/>
			<path fill="#231F20" d="M29.9,129.6c0.3,0,0.7,0,0.8-0.1c0,0.1,0,0.3,0.1,0.4c-0.1,0-0.5,0-0.9,0h-2.2c-0.8,0-1.1-0.2-1.1-1v-2.8
				h-0.2v-0.3h4.2v0.3h-3.7v2.9c0,0.4,0.2,0.6,0.7,0.6H29.9z M27.3,127.9h1.3v1.3h-1.3V127.9z M27.6,129h0.7v-0.7h-0.7V129z
				 M29.7,127.6h-1.9v-1.1h1.9V127.6z M29.4,126.7h-1.2v0.6h1.2V126.7z M30.3,129.2H29v-1.3h1.4V129.2z M30,128.2h-0.7v0.7H30V128.2
				z"/>
		</g>
		<circle fill="#7F58A5" cx="8.1" cy="128.1" r="3.7"/>
	</g>
	<g>
		<g>
			<path fill="#231F20" d="M63.5,128v0.3h-2.1c0,0.1,0,0.3-0.1,0.4h2.1v0.3h-2.2c-0.2,0.7-0.8,1.1-2.1,1.3c0-0.1-0.1-0.3-0.2-0.3
				c1.2-0.2,1.7-0.5,1.9-1h-1.7v-0.3H61c0-0.1,0.1-0.3,0.1-0.4h-2V128h2v-0.4h-1.6v-0.3h1.6v-0.4h-1.8v-0.3h1.1
				c-0.1-0.2-0.2-0.4-0.4-0.6l0.3-0.1c0.2,0.2,0.4,0.5,0.4,0.6l-0.2,0.1h1.3c0.2-0.2,0.3-0.5,0.4-0.7l0.4,0.1
				c-0.1,0.2-0.3,0.4-0.4,0.6h1.1v0.3h-1.9v0.4h1.6v0.3h-1.6v0.4H63.5z M61.5,129.1c0.7,0.3,1.6,0.7,2.1,1l-0.2,0.3
				c-0.4-0.3-1.3-0.8-2-1L61.5,129.1z"/>
			<path fill="#231F20" d="M68.5,126v4.4h-0.4v-0.2h-3.5v0.2h-0.4V126H68.5z M68.2,129.8v-3.5h-3.5v3.5H68.2z M66.5,129.1
				c-0.5,0.1-1.1,0.2-1.5,0.3l-0.1-0.3c0.4-0.1,0.9-0.2,1.5-0.3L66.5,129.1z M67.7,127.6c-0.1,0.5-0.3,0.9-0.6,1.2
				c0.1,0.3,0.2,0.4,0.4,0.5c0.1,0,0.1-0.2,0.2-0.5c0.1,0.1,0.2,0.1,0.2,0.2c-0.1,0.6-0.2,0.8-0.5,0.7c-0.2,0-0.4-0.2-0.5-0.5
				c-0.2,0.2-0.4,0.4-0.7,0.6c0-0.1-0.2-0.2-0.2-0.2c0.3-0.2,0.6-0.4,0.8-0.7c-0.1-0.4-0.2-0.9-0.3-1.5H65V127h1.5
				c0-0.2,0-0.4,0-0.5h0.3c0,0.2,0,0.4,0,0.5h1.1v0.3h-1.1c0,0.4,0.1,0.8,0.2,1.2c0.2-0.3,0.3-0.6,0.4-0.9L67.7,127.6z M66.3,127.6
				v1h-1.1v-1H66.3z M66,127.8h-0.6v0.5H66V127.8z M67.6,126.9c-0.1-0.1-0.3-0.3-0.5-0.4l0.2-0.2c0.2,0.1,0.4,0.2,0.5,0.3
				L67.6,126.9z"/>
		</g>
		<circle fill="#87CF65" cx="51.1" cy="128.3" r="3.7"/>
	</g>
	<g>
		<g>
			<g>
				<path fill="#231F20" d="M102.5,129.8v0.3H98v-0.3h1.5v-0.9h-1.1v-1.7h1.1v-0.8h-1.4v-0.3h4.2v0.3H101v0.8h1.2v1.7H102v0h-1v0.9
					H102.5z M99.9,128.6v1.2h0.7v-1.2h1.1v-1h-1.1v-1.1h-0.8v1.1h-1.1v1H99.9z"/>
				<path fill="#231F20" d="M105.8,127.5c0.3,1.2,1,2.1,2,2.6c-0.1,0.1-0.2,0.2-0.3,0.3c-1-0.5-1.7-1.4-2-2.7
					c-0.1,0.5-0.3,1-0.6,1.5l0.1-0.1c0.3,0.3,0.8,0.7,1,1l-0.3,0.2c-0.2-0.3-0.6-0.7-0.9-1c-0.3,0.4-0.7,0.8-1.3,1
					c-0.1-0.1-0.2-0.2-0.3-0.3c1.3-0.6,1.8-1.6,2-2.6h-1.9v-0.4h1.9c0.1-0.5,0.1-1,0.1-1.3h0.4c0,0.4,0,0.9-0.1,1.3h2.1v0.4H105.8z"
					/>
				<path fill="#231F20" d="M108.6,128.4c0-1,0.3-1.8,0.7-2.6l0.3,0.1c-0.4,0.7-0.6,1.6-0.6,2.4c0,0.9,0.2,1.7,0.6,2.4l-0.3,0.1
					C108.8,130.2,108.6,129.4,108.6,128.4z"/>
				<path fill="#231F20" d="M111.8,126.1c-0.2,0.4-0.4,0.9-0.5,1.3c0.4,0.4,0.5,0.8,0.5,1.1c0,0.3-0.1,0.5-0.2,0.6
					c-0.1,0.1-0.2,0.1-0.3,0.1c-0.1,0-0.2,0-0.4,0c0-0.1,0-0.2-0.1-0.3c0.1,0,0.2,0,0.3,0c0.1,0,0.1,0,0.2-0.1
					c0.1-0.1,0.1-0.2,0.1-0.4c0-0.3-0.1-0.6-0.5-1c0.2-0.4,0.3-0.8,0.4-1.1h-0.6v4.1h-0.3V126h1.1l0.1,0L111.8,126.1z M112.7,129
					c-0.2,0.4-0.5,0.8-0.7,1.1c-0.1-0.1-0.2-0.2-0.3-0.2c0.3-0.3,0.5-0.6,0.7-1L112.7,129z M113.6,125.9c0,0.1-0.1,0.1-0.1,0.2
					c0.4,0.5,0.9,0.9,1.4,1.1c-0.1,0.1-0.2,0.2-0.2,0.3c-0.4-0.3-0.9-0.6-1.3-1.2c-0.4,0.5-0.9,0.9-1.4,1.2
					c-0.1-0.1-0.2-0.2-0.3-0.3c0.6-0.3,1.3-0.9,1.6-1.5L113.6,125.9z M113.5,128.6v1.3c0,0.2-0.1,0.3-0.2,0.4
					c-0.1,0.1-0.4,0.1-0.7,0.1c0-0.1-0.1-0.2-0.1-0.3c0.3,0,0.5,0,0.6,0c0.1,0,0.1,0,0.1-0.1v-1.3h-1.3v-0.3h1.3v-0.6h-0.8v-0.3h2
					v0.3h-0.8v0.6h1.2v0.3H113.5z M114.1,128.8c0.3,0.3,0.6,0.8,0.7,1l-0.3,0.2c-0.1-0.3-0.4-0.7-0.7-1.1L114.1,128.8z"/>
				<path fill="#231F20" d="M119.3,126.1v4.2h-0.4V130h-2.5v0.3H116v-4.2H119.3z M116.4,126.5v1.4h2.5v-1.4H116.4z M118.9,129.6
					v-1.4h-2.5v1.4H118.9z"/>
				<path fill="#231F20" d="M123.4,127.2c0.4,0.9,1,1.7,1.7,2c-0.1,0.1-0.2,0.2-0.3,0.3c-0.7-0.5-1.4-1.4-1.8-2.4H123v1.9h1.2v0.4
					H123v0.9h-0.4v-0.9h-1.2v-0.4h1.2v-1.9h-0.1c-0.4,1-1,1.9-1.8,2.4c-0.1-0.1-0.2-0.2-0.3-0.3c0.7-0.4,1.3-1.2,1.7-2.1h-1.5v-0.4
					h2v-1.1h0.4v1.1h2v0.4H123.4z"/>
				<path fill="#231F20" d="M127.8,126.5l0.3,0.1c-0.3,2-1,3.2-2.1,3.8c-0.1-0.1-0.2-0.2-0.3-0.3c0.6-0.3,1.1-0.8,1.4-1.4
					c-0.2-0.2-0.5-0.6-0.8-0.8c-0.1,0.2-0.2,0.3-0.3,0.5c-0.1-0.1-0.2-0.2-0.3-0.2c0.5-0.5,0.8-1.4,1-2.2l0.4,0.1
					c-0.1,0.2-0.1,0.5-0.2,0.7L127.8,126.5L127.8,126.5z M126.7,126.9c-0.1,0.2-0.2,0.4-0.2,0.6c0.3,0.2,0.6,0.5,0.8,0.8
					c0.2-0.4,0.3-0.8,0.4-1.4H126.7z M129,127.3c0.4,0.3,1,0.8,1.2,1.1l-0.3,0.3c-0.2-0.3-0.7-0.7-1.1-1v2.7h-0.4v-4.6h0.4v1.6
					L129,127.3z"/>
				<path fill="#231F20" d="M130.8,130.8c0.4-0.7,0.6-1.6,0.6-2.4c0-0.9-0.2-1.7-0.6-2.4l0.3-0.1c0.5,0.8,0.7,1.6,0.7,2.6
					c0,1-0.3,1.8-0.7,2.6L130.8,130.8z"/>
			</g>
			<circle fill="#002A5E" cx="90.1" cy="128.3" r="3.7"/>
		</g>
	</g>
	<g>
		<rect x="0" y="0" fill="none" width="101.1" height="10.6"/>
		<path fill="#0C56AB" d="M1.8,3.1C1.7,3.7,1.5,4.2,1.2,4.7C1.4,4.7,1.5,4.9,1.7,5c0.4,0.3,1,0.3,1.7,0.3c0.8,0,1.7-0.1,2.4-0.1
			c0,0.1-0.1,0.3-0.1,0.5c-0.4,0-1.6,0.1-2.3,0.1c-0.8,0-1.3-0.1-1.7-0.3C1.4,5.2,1.2,5,1,5C0.9,5,0.7,5.4,0.5,5.8L0.2,5.4
			c0.2-0.3,0.4-0.5,0.6-0.7C1,4.4,1.2,3.9,1.3,3.4H0.5c0.2-0.4,0.4-0.9,0.5-1.3H0.3V1.7h1.3C1.5,2.1,1.3,2.6,1.1,3h0.4l0.1,0
			L1.8,3.1z M1,1.4c-0.1-0.3-0.2-0.7-0.3-1l0.4-0.1C1.2,0.7,1.3,1,1.4,1.3L1,1.4z M2.5,2.6c0,0.7-0.1,1.6-0.4,2.3
			C2,4.8,1.8,4.7,1.7,4.6c0.3-0.8,0.4-1.8,0.4-2.6V0.5h3.3v3.9c0,0.2-0.1,0.3-0.2,0.4C5,4.9,4.7,4.9,4.3,4.9c0-0.1-0.1-0.3-0.1-0.4
			c0.3,0,0.6,0,0.6,0c0.1,0,0.1,0,0.1-0.1V2.6H2.5z M2.5,0.9v0.5h1V0.9H2.5z M2.5,2.2h1V1.7h-1v0.4V2.2z M4.5,2.9v1.4H2.9V2.9H4.5z
			 M4.2,3.2H3.2V4h0.9V3.2z M5,0.9h-1v0.5h1V0.9z M5,2.2V1.7h-1v0.5H5z"/>
		<path fill="#0C56AB" d="M9.3,4.3H6.4V3.9H7V1.5H6.5V1.1H7V0.3h0.4v0.7h1.1V0.3h0.4v0.7h0.4v0.4H8.9v2.4h0.4V4.3z M7.7,4.5
			C7.4,5,7.1,5.4,6.8,5.7C6.7,5.7,6.5,5.5,6.4,5.5C6.7,5.2,7,4.8,7.2,4.4L7.7,4.5z M7.4,1.5V2h1.1V1.5H7.4z M7.4,2.9h1.1V2.3H7.4
			V2.9z M7.4,3.9h1.1V3.3H7.4V3.9z M8.4,4.4c0.2,0.3,0.5,0.6,0.6,0.9L8.7,5.5C8.6,5.3,8.3,4.9,8.1,4.6L8.4,4.4z M11.7,5.2
			c0,0.3-0.1,0.4-0.2,0.5c-0.2,0.1-0.4,0.1-0.9,0.1c0-0.1-0.1-0.3-0.1-0.4c0.3,0,0.6,0,0.7,0c0.1,0,0.1,0,0.1-0.1V3.7H10
			C9.9,4.4,9.8,5.2,9.4,5.8C9.4,5.7,9.2,5.5,9.1,5.5c0.5-0.8,0.5-1.9,0.5-2.8V0.6h2.1V5.2z M11.3,3.3v-1H10v0.4c0,0.2,0,0.4,0,0.6
			H11.3z M10,1v1h1.2V1H10z"/>
		<path fill="#0C56AB" d="M14.6,1.6h-2V1.3h2V1.6z M12.8,2.8h1.6v0.4h-1.6V2.8z M14.4,5.4h-1.3v0.3h-0.4v-2h1.6V5.4z M14.4,2.4h-1.6
			V2.1h1.6V2.4z M13.2,4v1h0.9V4H13.2z M13.6,1.2c-0.1-0.2-0.3-0.6-0.4-0.8l0.3-0.1c0.2,0.2,0.4,0.6,0.4,0.8L13.6,1.2z M17.9,5.2
			c0,0.2-0.1,0.4-0.2,0.4c-0.1,0.1-0.4,0.1-0.8,0.1c0-0.1-0.1-0.3-0.1-0.4c0.3,0,0.6,0,0.7,0c0.1,0,0.1,0,0.1-0.1V2.9h-2.2
			c0,0.9-0.1,2.1-0.5,2.8c-0.1-0.1-0.2-0.2-0.3-0.2c0.4-0.8,0.5-1.9,0.5-2.8V0.5h2.9V5.2z M15.3,0.9v0.6h0.9V0.9H15.3z M15.3,2.5
			h0.9V1.9h-0.9V2.5z M15.9,4.7V5h-0.3V3.3h1.6v1.4H15.9z M15.9,3.6v0.7h0.9V3.6H15.9z M17.5,0.9h-0.9v0.6h0.9V0.9z M17.5,2.5V1.9
			h-0.9v0.6H17.5z"/>
		<path fill="#0C56AB" d="M20,2.6c-0.3,0.3-0.7,0.6-1,0.8c-0.1-0.1-0.2-0.2-0.3-0.3c0.4-0.2,0.9-0.5,1.1-0.8H19v-1h1V1h-1.2V0.6H20
			V0.3h0.4v0.4h1.1V1h-1.1v0.3h1v1h-1v0.2l0.2-0.2c0.3,0.1,0.6,0.3,0.8,0.5l-0.2,0.3c-0.2-0.2-0.5-0.4-0.8-0.5v0.8H20V2.6z
			 M21.7,5.2h2.5v0.4h-5.4V5.2h1v-1h0.4v1h1.1V3.9h-2.1V3.5h4.6v0.4h-2.1v0.5h1.7v0.3h-1.7V5.2z M19.3,2H20V1.6h-0.6V2z M20.4,1.6V2
			H21V1.6H20.4z M23.8,1.3c-0.1,0.5-0.4,0.9-0.6,1.2c0.3,0.3,0.6,0.5,1.1,0.6c-0.1,0.1-0.2,0.2-0.3,0.3c-0.4-0.2-0.8-0.4-1.1-0.7
			c-0.3,0.3-0.7,0.5-1.2,0.7c0-0.1-0.2-0.2-0.3-0.3c0.5-0.2,0.9-0.4,1.2-0.6c-0.2-0.3-0.4-0.5-0.5-0.8C22,1.8,21.8,2,21.7,2.1
			c-0.1-0.1-0.2-0.2-0.3-0.3c0.4-0.4,0.7-0.9,0.9-1.5l0.4,0.1c-0.1,0.2-0.1,0.4-0.2,0.6h1.7v0.4H23.8z M22.9,2.2
			c0.2-0.3,0.4-0.6,0.5-0.9l-1,0C22.4,1.6,22.6,1.9,22.9,2.2z"/>
		<path fill="#0C56AB" d="M26.6,1.6c-0.1,0.3-0.3,0.6-0.5,0.8v3.3h-0.4V3c-0.2,0.2-0.4,0.4-0.6,0.6c0-0.1-0.2-0.3-0.3-0.4
			c0.5-0.4,1-1,1.4-1.7L26.6,1.6z M26.5,0.4c-0.3,0.5-0.9,1.1-1.3,1.4c-0.1-0.1-0.2-0.2-0.2-0.3c0.4-0.3,0.9-0.8,1.2-1.2L26.5,0.4z
			 M29.8,3.5c-0.2,0.6-0.6,1-1.1,1.4c0.5,0.2,1,0.4,1.6,0.5C30.2,5.5,30,5.6,30,5.7c-0.6-0.1-1.2-0.4-1.7-0.7
			c-0.5,0.3-1.1,0.5-1.8,0.7c0-0.1-0.1-0.3-0.2-0.4c0.5-0.1,1.1-0.3,1.6-0.5c-0.2-0.2-0.5-0.4-0.7-0.6c-0.2,0.2-0.3,0.3-0.5,0.4
			c-0.1-0.1-0.2-0.3-0.3-0.3c0.2-0.1,0.4-0.2,0.5-0.4c-0.1-0.1-0.2-0.3-0.3-0.5L27,3.3c0.1,0.1,0.1,0.2,0.2,0.3
			c0.2-0.2,0.4-0.5,0.6-0.7c-0.9,0.1-1,0.1-1.1,0.1c0-0.1-0.1-0.3-0.1-0.4c0.2,0,0.4-0.1,0.7-0.3c0.1-0.1,0.4-0.2,0.7-0.5
			c-0.9,0-1.1,0.1-1.1,0.1c0-0.1-0.1-0.3-0.1-0.4c0.1,0,0.2-0.1,0.4-0.2c0.2-0.1,0.7-0.5,1-1l0.4,0.2c-0.4,0.4-0.8,0.7-1.1,1l1.1,0
			c0.3-0.2,0.5-0.4,0.8-0.6l0.4,0.2c-0.7,0.6-1.4,1.1-2.2,1.5l1.9-0.1c-0.1-0.2-0.3-0.3-0.4-0.5l0.3-0.2c0.4,0.4,0.8,0.9,1,1.3
			l-0.4,0.2c-0.1-0.1-0.2-0.3-0.3-0.5l-1.3,0.1C28.2,3,28.1,3.2,28,3.3h1.5l0.1,0L29.8,3.5z M27.7,3.7c-0.1,0.1-0.1,0.2-0.2,0.3
			c0.2,0.2,0.5,0.5,0.8,0.7c0.4-0.2,0.7-0.6,0.9-0.9H27.7z"/>
		<path fill="#0C56AB" d="M34,0.4c0.6,0.8,1.6,1.6,2.5,2c-0.1,0.1-0.2,0.3-0.3,0.4c-0.9-0.4-1.9-1.2-2.5-2c-0.6,0.8-1.6,1.6-2.5,2
			c-0.1-0.1-0.2-0.3-0.3-0.4c0.7-0.3,1.6-1,2.2-1.7h-1.1V0.4H34z M34,5.2h2.3v0.4h-5.1V5.2h2.3v-1h-1.7V3.8h1.7V2.9h-1.4V2.5h3.3
			v0.4H34v0.9h1.7v0.4H34V5.2z"/>
		<path fill="#0C56AB" d="M39.1,4.5c-0.7,0.2-1.4,0.4-1.9,0.6l-0.1-0.4c0.2-0.1,0.5-0.1,0.8-0.2V2.8h-0.7V2.4h0.7V1.1h-0.7V0.7H39
			v0.4h-0.7v1.3h0.6v0.4h-0.6v1.5l0.7-0.2L39.1,4.5z M42.5,2.3c-0.3,0.4-0.7,1-1,1.3c0.3,0.6,0.7,1,1.2,1.4
			c-0.1,0.1-0.2,0.2-0.3,0.3c-0.7-0.5-1.1-1-1.4-1.8v1.7c0,0.3-0.1,0.4-0.2,0.5c-0.2,0.1-0.4,0.1-0.9,0.1c0-0.1-0.1-0.3-0.2-0.4
			c0.3,0,0.7,0,0.7,0c0.1,0,0.1,0,0.1-0.1V3.8c-0.5,0.5-1,1-1.4,1.4l-0.3-0.4c0.4-0.3,1.1-0.9,1.7-1.5V1.7h-1.5V1.3h1.5v-1h0.4v1
			h1.6v0.4h-1.6v0.2c0.1,0.5,0.2,0.9,0.3,1.3c0.3-0.3,0.6-0.8,0.8-1.1L42.5,2.3z M39.6,2.1c0.3,0.3,0.5,0.8,0.7,1.1l-0.4,0.2
			c-0.1-0.3-0.4-0.8-0.6-1.1L39.6,2.1z M42.1,1.2c-0.1-0.2-0.4-0.5-0.7-0.7l0.3-0.2c0.3,0.2,0.6,0.4,0.7,0.6L42.1,1.2z"/>
		<path fill="#0C56AB" d="M48,1.1c-0.3,0.6-0.9,1-1.5,1.4c0.7,0.4,1.5,0.7,2.3,0.8c-0.1,0.1-0.2,0.3-0.3,0.4c-0.9-0.2-1.7-0.5-2.5-1
			c-0.8,0.5-1.8,0.8-2.6,1c0-0.1-0.1-0.3-0.2-0.4c0.8-0.2,1.7-0.5,2.4-0.9c-0.4-0.3-0.7-0.6-1-0.9c-0.3,0.3-0.6,0.5-1,0.7
			c-0.1-0.1-0.2-0.3-0.3-0.3c0.7-0.4,1.5-1.1,1.9-1.8l0.4,0.2c-0.1,0.2-0.2,0.4-0.4,0.5h2.2l0.1,0L48,1.1z M44.3,3.6h3.5v2.1h-0.5
			V5.5h-2.6v0.3h-0.4V3.6z M44.7,4v1.1h2.6V4H44.7z M45,1.3c0.3,0.3,0.7,0.6,1.1,0.9c0.5-0.3,0.9-0.6,1.2-1L45,1.3L45,1.3z"/>
		<path fill="#0C56AB" d="M50.7,3.8c0.2-0.1,0.4-0.2,0.7-0.3l0.1,0.4c-0.6,0.3-1.3,0.6-1.8,0.8l-0.2-0.4c0.2-0.1,0.5-0.2,0.8-0.3
			V2.1h-0.7V1.7h0.7V0.3h0.4v1.4h0.6v0.4h-0.6V3.8z M54.1,5.2c0.3,0,0.4-0.2,0.4-0.9c0.1,0.1,0.3,0.2,0.4,0.2
			c-0.1,0.8-0.2,1.1-0.8,1.1h-1.5c-0.7,0-0.9-0.2-0.9-0.8V2.9l-0.5,0.2l-0.2-0.4l0.6-0.3V0.8h0.4v1.4L53,1.9V0.3h0.4v1.5l0.9-0.4
			l0.3,0.1l0,0.1c-0.1,0.8-0.2,1.9-0.3,2.6L54,4.1c0.1-0.5,0.2-1.4,0.2-2.2l-0.8,0.3v2.2H53v-2l-0.8,0.3v2.1c0,0.3,0.1,0.4,0.5,0.4
			H54.1z"/>
		<path fill="#0C56AB" d="M60,5c0.3,0,0.8,0,1-0.1c0,0.1,0,0.3,0.1,0.4c-0.2,0-0.6,0.1-1.1,0.1h-2.6c-0.9,0-1.4-0.3-1.4-1.2V0.9
			h-0.2V0.5h5v0.4h-4.3v3.4c0,0.5,0.2,0.7,0.9,0.7H60z M56.9,3.1h1.6v1.5h-1.6V3.1z M57.3,4.3H58V3.4h-0.8V4.3z M59.8,2.7h-2.2V1.3
			h2.2V2.7z M59.3,1.6h-1.4v0.7h1.4V1.6z M60.5,4.6h-1.6V3.1h1.6V4.6z M60.1,3.4h-0.8v0.9h0.8V3.4z"/>
		<path fill="#0C56AB" d="M65.2,2c0.4,1,1.2,2,2,2.4c-0.1,0.1-0.3,0.3-0.3,0.4C66,4.2,65.3,3.1,64.8,2h-0.1v2.2h1.4v0.4h-1.4v1.1
			h-0.5V4.6h-1.4V4.2h1.4V2h-0.1c-0.5,1.2-1.2,2.2-2.1,2.8c-0.1-0.1-0.2-0.3-0.3-0.4c0.8-0.5,1.5-1.5,2-2.5h-1.8V1.5h2.4V0.3h0.5
			v1.3h2.4V2H65.2z"/>
		<path fill="#0C56AB" d="M73.4,5.2v0.4h-5.4V5.2h0.8V3.3h3.9v1.9H73.4z M73.2,1.8h-5.2V1.4h1.5c-0.1-0.3-0.4-0.7-0.6-1l0.4-0.2
			c0.3,0.3,0.5,0.7,0.6,1l-0.3,0.2h1.9l-0.3-0.1c0.2-0.3,0.5-0.7,0.6-1l0.4,0.1c-0.2,0.4-0.5,0.8-0.7,1h1.6V1.8z M70,2.3
			c-0.4,0.4-1.2,0.8-1.7,1.1c-0.1-0.1-0.2-0.3-0.3-0.3c0.5-0.2,1.3-0.6,1.6-0.9L70,2.3z M69.1,5.2h0.7V3.7h-0.7V5.2z M70.3,3.7v1.5
			H71V3.7H70.3z M73,3.2c-0.4-0.2-1.2-0.6-1.8-0.8l0.2-0.3c0.6,0.2,1.4,0.6,1.8,0.8L73,3.2z M71.4,3.7v1.5h0.8V3.7H71.4z"/>
		<path fill="#0C56AB" d="M76.7,4.5c0,0.1,0,0.3,0,0.4c-1.7,0.5-1.9,0.5-2.1,0.6c0-0.1-0.1-0.3-0.2-0.4c0.1-0.1,0.2-0.2,0.2-0.5V0.3
			h0.5v1.8h1.5v0.4h-1.5v2.4L76.7,4.5z M78.8,5.2c0.3,0,0.3-0.2,0.4-1.1c0.1,0.1,0.3,0.2,0.4,0.2c-0.1,1-0.2,1.3-0.7,1.3h-1
			c-0.6,0-0.7-0.2-0.7-0.8V0.3h0.4v1.8h1.6v0.4h-1.6v2.2c0,0.3,0.1,0.4,0.3,0.4H78.8z"/>
	</g>
	<g>
		<path fill="none" stroke="#D9D9D9" stroke-width="0.2582" stroke-linejoin="round" stroke-miterlimit="10" d="M9.3,15.1h231.2
			 M9.3,24.6h231.2 M9.3,34h231.2 M9.3,43.6h231.2 M9.3,53.1h231.2 M9.3,62.5h231.2 M9.3,72h231.2 M9.3,81.5h231.2 M9.3,90.9h231.2
			 M9.3,100.5h231.2"/>
		
			<line fill="none" stroke="#7F7F7F" stroke-width="0.2582" stroke-linejoin="round" stroke-miterlimit="10" x1="9.3" y1="110" x2="240.6" y2="110"/>
		<path fill="none" stroke="#7F7F7F" stroke-width="0.2582" stroke-linejoin="round" stroke-miterlimit="10" d="M235.2,110v1.5
			 M221.9,110v1.5 M208.7,110v1.5 M195.4,110v1.5 M182.1,110v1.5 M168.7,110v1.5 M155.5,110v1.5 M142.2,110v1.5 M128.9,110v1.5
			 M115.6,110v1.5 M102.4,110v1.5 M89.1,110v1.5 M75.8,110v1.5 M62.4,110v1.5 M49.2,110v1.5 M35.9,110v1.5 M22.6,110v1.5 M9.3,110
			v1.5"/>
		
			<polyline fill="none" stroke="#7F58A5" stroke-width="0.5163" stroke-linecap="round" stroke-linejoin="round" stroke-miterlimit="10" points="
			11.4,101 12,101.3 12.4,100.2 13.1,98.5 13.6,98 14.2,99.1 14.7,98.3 15.2,98.6 15.9,99.3 16.3,98.7 16.9,98.4 17.5,98.2 18,98.1 
			18.7,97 19.1,96.5 19.7,96.2 20.2,96.8 20.8,97.8 21.4,98 21.9,100.1 22.5,98.3 23,98.5 23.6,98.3 24.1,98.8 24.7,98.7 25.3,97.6 
			25.8,98.1 26.3,96.3 26.9,95.7 27.5,94.2 27.9,93.3 28.6,92.2 29.2,91 29.7,88.9 30.3,86.1 30.7,84 31.4,80.4 31.9,79.8 
			32.4,75.6 33,72.6 33.5,67.5 34.1,73.6 34.6,73.2 35.2,71 35.7,65 36.3,68.5 36.9,68.8 37.4,66.8 38,66.2 38.5,66.5 39.1,67.7 
			39.6,66.1 40.2,65.4 40.7,68.1 41.3,67 41.9,65.6 42.4,64.7 43,66.7 43.5,75.9 44.1,77.6 44.7,77 45.1,80.7 45.7,77.2 46.3,76.6 
			46.8,76.8 47.4,78.1 47.9,77.9 48.5,78.5 49.1,79.8 49.6,77.9 50.1,74.6 50.7,74.3 51.3,74 51.8,75 52.4,75.6 52.9,75.8 
			53.5,74.6 54,76.2 54.6,74.8 55.1,71.4 55.7,72 56.3,70.4 56.8,73.3 57.4,70.7 57.9,66.3 58.5,67.3 59,69.2 59.5,66.9 60.1,67.9 
			60.7,66.9 61.2,66.1 61.7,63.8 62.4,71.1 62.9,77.7 63.4,74.3 64,75.5 64.5,76.5 65.2,76.5 65.6,73.7 66.2,77.7 66.8,77.9 
			67.3,77.5 67.9,81.1 68.4,80.2 69,80.2 69.5,79.3 70.1,80.4 70.7,80.9 71.2,78.6 71.8,78.9 72.3,78.7 72.9,80.2 73.4,80.1 
			73.9,78.7 74.6,79.3 75.1,81.4 75.7,81.8 76.2,83.6 76.8,86 77.3,86.7 77.9,87.2 78.4,86.5 78.9,85.4 79.5,84.6 80,84.4 
			80.6,84.7 81.1,86.3 81.7,86.1 82.3,82.8 82.8,83.2 83.4,82.3 83.9,83.8 84.5,81.5 85,80.4 85.6,81.4 86.2,81.4 86.6,79.8 
			87.3,81.6 87.8,82.8 88.3,81.1 88.9,80.8 89.5,82.5 90.1,81.8 90.6,83.6 91.1,83.7 91.7,84.1 92.2,83.6 92.8,82.9 93.3,81.9 
			93.9,81.8 94.4,81.9 95,80.1 95.5,82.5 96.1,82.4 96.7,83.2 97.2,83.5 97.8,82.5 98.3,81.8 98.9,81.4 99.4,81.5 100,81.2 
			100.6,80.9 101,80.7 101.7,81.9 102.2,81.7 102.8,81.1 103.3,81 103.9,79.4 104.4,78.8 105,78.5 105.5,78.5 106.1,77.2 
			106.6,78.2 107.1,77 107.7,74.7 108.3,73.1 108.8,76.3 109.4,72.8 109.9,75.4 110.5,75.1 111,73.9 111.6,72 112.2,68.3 
			112.7,63.9 113.3,62.7 113.8,60.2 114.4,60.3 114.9,59 115.5,67.4 116.1,69.8 116.6,66.6 117.2,63.7 117.7,61.2 118.3,61.7 
			118.7,64.5 119.4,65.1 119.9,64.1 120.5,66.7 121,65.7 121.5,65.7 122.2,64.9 		"/>
		
			<polyline fill="none" stroke="#7F58A5" stroke-width="0.5163" stroke-linecap="round" stroke-linejoin="round" stroke-miterlimit="10" points="
			122.2,64.9 122.6,65.6 123.2,64.3 123.8,62.8 124.3,55.6 125,59.6 125.4,54.4 126,55.1 126.5,58.5 127.1,59.2 127.7,57.8 
			128.2,59.7 128.8,61.1 129.3,64.4 129.9,65.8 130.4,68 131,64.8 131.6,64.6 132.1,69.8 132.7,73.8 133.2,70.8 133.8,74.3 
			134.3,76.4 134.9,76.5 135.5,78.1 135.9,83.7 136.6,82.3 137.1,80.4 137.7,79.8 138.2,81.9 138.7,82.2 139.3,80.2 139.8,80.8 
			140.4,81 140.9,82.3 141.5,86.7 142.1,86.8 142.6,92.1 143.2,89.1 143.7,87.4 144.3,88.8 144.8,89.5 145.4,90.8 146,91.6 
			146.5,87.9 147.1,85.7 147.6,85.8 148.2,85.2 148.6,85.5 149.3,85.1 149.9,83 150.3,81.5 151,78.8 151.5,78.2 152,77.6 
			152.6,79.4 153.1,80.2 153.7,80.3 154.2,79.8 154.8,81.4 155.4,81.8 155.9,80.4 156.4,78.7 157,76 157.6,74.1 158.1,75.2 
			158.7,73.5 159.2,74.9 159.8,77.1 160.3,77.3 160.9,77.1 161.5,75.3 162,75.2 162.6,74.4 163.1,76.5 163.7,76 164.2,74.7 
			164.8,71.6 165.3,71 165.9,69.2 166.4,67.5 167,70 167.5,70.7 168,70.7 168.7,69.5 169.2,69.1 169.7,67.6 170.3,65.8 170.8,64.4 
			171.5,64.4 171.9,64.8 172.5,63.3 173.1,60.5 173.6,60.4 174.2,61.4 174.7,63.2 175.3,64.7 175.8,62.8 176.4,60.7 177,63 
			177.5,64.6 178.1,71.3 178.6,71.1 179.2,70.9 179.7,70.2 180.3,71 180.9,76.4 181.4,78.5 181.9,80.7 182.5,87.1 183.1,94.9 
			183.6,96.8 184.2,94.9 184.8,98.2 185.2,100.7 185.8,99.4 186.3,96.8 186.9,94.5 187.5,95.3 188,93.1 188.6,91.5 189.1,89.7 
			189.7,90.8 190.2,90.1 190.8,90 191.4,92 191.8,93 192.5,91.4 193,92.6 193.6,96.5 194.1,96.8 194.7,94.1 195.3,95.6 195.8,92.6 
			196.3,91.2 196.9,94.2 197.5,92.2 198,90.7 198.5,90.1 199.1,90 199.6,88 200.2,90 200.7,90.3 201.3,92.3 201.8,95.6 202.4,98.7 
			203,96.4 203.5,98 204.1,99 204.6,97.8 205.2,96.5 205.7,96.7 206.3,98 206.9,101 207.4,99.6 208,99.8 208.5,98.7 209,98 
			209.6,97.5 210.2,96.9 210.8,96.2 211.3,94.7 211.8,95.7 212.3,96.3 212.9,95 213.4,95.1 214,96.4 214.6,94.6 215.1,95 
			215.7,92.9 216.2,91.5 216.8,91.2 217.3,90.6 217.9,91.7 218.5,89.8 219,89.7 219.6,89.5 220.1,89.6 220.7,89.9 221.2,91.5 
			221.8,91.6 222.4,92.8 222.9,93.6 223.5,92.6 224,93.8 224.6,93.8 225.1,92 225.7,92.5 226.2,91.6 226.8,92.2 227.3,92.8 
			227.8,91.9 228.5,93.7 229,94.9 229.6,92.9 230.1,93.5 230.6,94 231.3,95.6 231.7,96.2 232.3,94.2 232.9,94 		"/>
		
			<polyline fill="none" stroke="#7F58A5" stroke-width="0.5163" stroke-linecap="round" stroke-linejoin="round" stroke-miterlimit="10" points="
			232.9,94 233.4,94.3 234,95.8 234.5,94.4 235.1,94.2 235.6,93.9 236.2,94.2 236.8,95.2 237.3,93.6 237.9,93 238.4,92.8 239,91.2 
			239.5,89.9 240.1,88.3 240.7,88.6 241.2,87.3 241.8,87 		"/>
		
			<polyline fill="none" stroke="#87CF65" stroke-width="0.5163" stroke-linecap="round" stroke-linejoin="round" stroke-miterlimit="10" points="
			11.4,94.3 12,93.7 12.4,93.3 13.1,92.8 13.6,91 14.2,91.6 14.7,91 15.2,91.8 15.9,91.9 16.3,91.6 16.9,92.1 17.5,91.9 18,92.5 
			18.7,93 19.1,94.3 19.7,94.2 20.2,94.2 20.8,95.9 21.4,95.6 21.9,96 22.5,93.7 23,94 23.6,94.1 24.1,94.5 24.7,94.1 25.3,92.4 
			25.8,92.3 26.3,92.6 26.9,92.8 27.5,91.5 27.9,91.3 28.6,91.6 29.2,92.2 29.7,93.4 30.3,92.5 30.7,90.8 31.4,89.6 31.9,89.5 
			32.4,87.6 33,86.1 33.5,86.7 34.1,85.4 34.6,85 35.2,87.1 35.7,85 36.3,88.2 36.9,86.8 37.4,86.3 38,87.4 38.5,83.4 39.1,82.3 
			39.6,81.7 40.2,82.4 40.7,82.5 41.3,80.9 41.9,79.6 42.4,78.2 43,79.4 43.5,87.9 44.1,90.7 44.7,88.9 45.1,87.8 45.7,86.8 
			46.3,88 46.8,87.9 47.4,88 47.9,86.8 48.5,87.2 49.1,88.5 49.6,87.5 50.1,87.2 50.7,88 51.3,87.6 51.8,85.8 52.4,87 52.9,86.5 
			53.5,85 54,83.9 54.6,84.4 55.1,81.6 55.7,81.3 56.3,81.7 56.8,82.7 57.4,82.2 57.9,81.7 58.5,84.5 59,84.2 59.5,83.6 60.1,84.6 
			60.7,81.5 61.2,81.8 61.7,82.2 62.4,85.8 62.9,87.6 63.4,87.9 64,85.9 64.5,85.2 65.2,83.7 65.6,81.4 66.2,80.5 66.8,80.7 
			67.3,79.4 67.9,81.3 68.4,79.7 69,78.8 69.5,79.6 70.1,79.1 70.7,80.8 71.2,76.5 71.8,77.3 72.3,77.1 72.9,78.1 73.4,77.2 
			73.9,77.1 74.6,78 75.1,76.4 75.7,77.4 76.2,77.2 76.8,77 77.3,75.7 77.9,75.3 78.4,75.3 78.9,75.1 79.5,74.4 80,75.8 80.6,74.8 
			81.1,74.8 81.7,75.3 82.3,73.9 82.8,74.4 83.4,73.8 83.9,74.7 84.5,74.4 85,73.3 85.6,74.6 86.2,76.8 86.6,76.5 87.3,76.3 
			87.8,77.7 88.3,76.6 88.9,75.1 89.5,76.4 90.1,75.8 90.6,77.5 91.1,77.2 91.7,76.3 92.2,74.9 92.8,74 93.3,73.1 93.9,71.7 
			94.4,70.7 95,69.4 95.5,69.6 96.1,67.9 96.7,68.4 97.2,66.8 97.8,66.4 98.3,65.2 98.9,64.9 99.4,64.8 100,64.3 100.6,63.3 
			101,63.7 101.7,66.8 102.2,65.8 102.8,63.1 103.3,62.5 103.9,58.9 104.4,60.4 105,57.4 105.5,57.7 106.1,60.8 106.6,58 
			107.1,54.6 107.7,52.5 108.3,47.6 108.8,51.7 109.4,48.6 109.9,51.3 110.5,48.9 111,48.1 111.6,47.9 112.2,43.4 112.7,40 
			113.3,39.8 113.8,42.3 114.4,39.6 114.9,41.3 115.5,53.4 116.1,49.5 116.6,44.4 117.2,40.2 117.7,35.6 118.3,32.8 118.7,36.2 
			119.4,33.4 119.9,30.3 120.5,33.1 121,29.3 121.5,32.9 122.2,34.3 		"/>
		
			<polyline fill="none" stroke="#87CF65" stroke-width="0.5163" stroke-linecap="round" stroke-linejoin="round" stroke-miterlimit="10" points="
			122.2,34.3 122.6,37.1 123.2,32.5 123.8,30.9 124.3,25.7 125,30.6 125.4,31.8 126,24.6 126.5,30.2 127.1,34.3 127.7,31.3 
			128.2,33.8 128.8,28.2 129.3,33.5 129.9,35.8 130.4,44.8 131,44.6 131.6,42.4 132.1,50.6 132.7,56 133.2,51.3 133.8,51.3 
			134.3,53.3 134.9,54.7 135.5,59.1 135.9,64.6 136.6,63.7 137.1,59.8 137.7,59.4 138.2,60.7 138.7,62.3 139.3,60.3 139.8,63.9 
			140.4,64.6 140.9,69 141.5,73 142.1,72.9 142.6,77.9 143.2,74.8 143.7,72.5 144.3,75.4 144.8,76.9 145.4,77.8 146,77.5 
			146.5,74.5 147.1,72.2 147.6,71.9 148.2,71.1 148.6,70.5 149.3,71.3 149.9,68.8 150.3,68.5 151,66.6 151.5,65.8 152,65.5 
			152.6,66.5 153.1,67.8 153.7,67.5 154.2,66.9 154.8,69.2 155.4,69.4 155.9,69.1 156.4,68.7 157,67.1 157.6,65.6 158.1,67.2 
			158.7,66.6 159.2,67.9 159.8,69.2 160.3,67.9 160.9,68 161.5,66.3 162,67.2 162.6,67.2 163.1,68.3 163.7,66.9 164.2,67.2 
			164.8,66 165.3,66.5 165.9,66.1 166.4,65.9 167,68 167.5,68.2 168,68.6 168.7,68 169.2,67.1 169.7,65.8 170.3,65.1 170.8,64.9 
			171.5,64.3 171.9,65.6 172.5,65.6 173.1,63.8 173.6,62.3 174.2,63.7 174.7,65.8 175.3,65.6 175.8,64 176.4,63.3 177,66.1 
			177.5,66.9 178.1,70.5 178.6,72.2 179.2,72.9 179.7,70.9 180.3,70.4 180.9,74.6 181.4,75.4 181.9,75.2 182.5,79.7 183.1,86.7 
			183.6,89.5 184.2,89.2 184.8,91.8 185.2,94.8 185.8,92.8 186.3,90.3 186.9,88.9 187.5,89 188,86.9 188.6,85.9 189.1,84.6 
			189.7,85.4 190.2,83.6 190.8,82.7 191.4,84 191.8,83 192.5,80.9 193,80.4 193.6,83.7 194.1,85.7 194.7,83.5 195.3,85.2 
			195.8,82.3 196.3,81 196.9,81.1 197.5,78.8 198,78.1 198.5,76.9 199.1,77.1 199.6,76 200.2,76.9 200.7,77.9 201.3,79 201.8,81.6 
			202.4,84.8 203,81.1 203.5,81.6 204.1,81.7 204.6,80.1 205.2,78.7 205.7,77.9 206.3,78.5 206.9,81.4 207.4,80.3 208,80.1 
			208.5,79.6 209,78.9 209.6,79.8 210.2,79.9 210.8,79.9 211.3,78 211.8,77.8 212.3,76.5 212.9,76 213.4,75.5 214,76.4 214.6,74.5 
			215.1,76 215.7,74.8 216.2,73.2 216.8,72.3 217.3,71.4 217.9,73.2 218.5,71.4 219,71.4 219.6,71.6 220.1,70.8 220.7,70 
			221.2,71.1 221.8,69.4 222.4,70.7 222.9,69.9 223.5,69 224,69.5 224.6,71.1 225.1,68.8 225.7,69.6 226.2,69.5 226.8,69.2 
			227.3,70.5 227.8,69.8 228.5,73.2 229,74.6 229.6,71.4 230.1,71.6 230.6,72.6 231.3,75.4 231.7,75.7 232.3,72.9 232.9,72.8 		"/>
		
			<polyline fill="none" stroke="#87CF65" stroke-width="0.5163" stroke-linecap="round" stroke-linejoin="round" stroke-miterlimit="10" points="
			232.9,72.8 233.4,72.1 234,72.2 234.5,70.7 235.1,70.8 235.6,70.9 236.2,72 236.8,70.6 237.3,69.8 237.9,68.9 238.4,67.2 
			239,67.4 239.5,67 240.1,66.6 240.7,66.4 241.2,65.6 241.8,65.6 		"/>
		
			<polyline fill="none" stroke="#002A5E" stroke-width="0.5163" stroke-linecap="round" stroke-linejoin="round" stroke-miterlimit="10" points="
			11.4,84.6 12,81.2 12.4,77.5 13.1,77.8 13.6,76.5 14.2,80.8 14.7,80.7 15.2,79.8 15.9,83.2 16.3,88.2 16.9,86.8 17.5,87 18,86.2 
			18.7,82.4 19.1,83.9 19.7,85.2 20.2,85.4 20.8,88.8 21.4,90.4 21.9,92 22.5,90.2 23,89.5 23.6,89.8 24.1,88.9 24.7,87.9 
			25.3,85.1 25.8,86 26.3,86 26.9,85 27.5,83.6 27.9,85.2 28.6,84.8 29.2,86.1 29.7,87 30.3,85 30.7,85 31.4,86.1 31.9,87.5 
			32.4,87.6 33,89.2 33.5,88 34.1,88.2 34.6,87.3 35.2,86.5 35.7,84.3 36.3,83.7 36.9,78.6 37.4,79.3 38,77.3 38.5,76 39.1,71 
			39.6,72.5 40.2,71.6 40.7,67.1 41.3,64.3 41.9,59.2 42.4,57.8 43,50.5 43.5,75.6 44.1,77.1 44.7,76.5 45.1,73.1 45.7,71.6 
			46.3,70.7 46.8,68.3 47.4,67.4 47.9,65.4 48.5,60.4 49.1,57.4 49.6,56.1 50.1,62.5 50.7,58.6 51.3,63.1 51.8,57.6 52.4,55.3 
			52.9,52.6 53.5,50 54,46.1 54.6,53.7 55.1,49.8 55.7,50.1 56.3,47.6 56.8,51.3 57.4,54.6 57.9,52 58.5,46.3 59,48.9 59.5,53.3 
			60.1,60.2 60.7,61.7 61.2,65.9 61.7,63.9 62.4,72.6 62.9,78.1 63.4,75.5 64,74.8 64.5,74.1 65.2,76.2 65.6,70.7 66.2,71 
			66.8,69.3 67.3,70.2 67.9,70.9 68.4,69.8 69,72 69.5,71.7 70.1,72.6 70.7,72.7 71.2,71.7 71.8,66.2 72.3,67.3 72.9,65.1 
			73.4,65.6 73.9,66.9 74.6,66.6 75.1,69.9 75.7,70.7 76.2,71.1 76.8,69.4 77.3,69.7 77.9,71.3 78.4,71.2 78.9,67.7 79.5,68.6 
			80,66.4 80.6,65.5 81.1,67.6 81.7,67 82.3,64.4 82.8,63.4 83.4,56.7 83.9,54.2 84.5,39.1 85,41.6 85.6,45.8 86.2,54.1 86.6,51.8 
			87.3,50.6 87.8,52.9 88.3,50 88.9,45.5 89.5,45.9 90.1,46.5 90.6,52.5 91.1,54.2 91.7,61.1 92.2,58.6 92.8,58.3 93.3,60.4 
			93.9,56.7 94.4,58.4 95,58.2 95.5,61.3 96.1,61.2 96.7,62.7 97.2,64.9 97.8,63.5 98.3,61 98.9,60.9 99.4,60.9 100,57.8 
			100.6,59.2 101,60 101.7,64.3 102.2,63.3 102.8,63 103.3,64.1 103.9,62 104.4,63 105,62.4 105.5,62.1 106.1,64.7 106.6,65.3 
			107.1,63.2 107.7,61.4 108.3,60.9 108.8,68.8 109.4,70.5 109.9,81.1 110.5,83.4 111,84.8 111.6,87.8 112.2,81.7 112.7,82.3 
			113.3,85.1 113.8,89.6 114.4,92.8 114.9,93.3 115.5,97.1 116.1,95.1 116.6,91.4 117.2,89.3 117.7,89.4 118.3,90.2 118.7,90.6 
			119.4,87.8 119.9,83.3 120.5,82.6 121,76.5 121.5,78.2 122.2,77.1 		"/>
		
			<polyline fill="none" stroke="#002A5E" stroke-width="0.5163" stroke-linecap="round" stroke-linejoin="round" stroke-miterlimit="10" points="
			122.2,77.1 122.6,80.5 123.2,79.3 123.8,75.7 124.3,71.4 125,71.8 125.4,72 126,71.4 126.5,76.5 127.1,78.6 127.7,76.8 
			128.2,78.1 128.8,78.1 129.3,82.7 129.9,85.8 130.4,87.2 131,87.2 131.6,83.9 132.1,86.1 132.7,89.7 133.2,89.4 133.8,89.5 
			134.3,90.2 134.9,91.9 135.5,92.8 135.9,96.4 136.6,95.7 137.1,93 137.7,91.8 138.2,91.6 138.7,91.5 139.3,89.9 139.8,89.7 
			140.4,90.4 140.9,91.3 141.5,92.6 142.1,92.9 142.6,95.6 143.2,94.7 143.7,93.7 144.3,95 144.8,94.7 145.4,95.6 146,96.7 
			146.5,96.3 147.1,94.2 147.6,92.8 148.2,91.3 148.6,89.1 149.3,88.8 149.9,86.3 150.3,86.7 151,84.8 151.5,83.4 152,82.1 
			152.6,83.1 153.1,85 153.7,86.3 154.2,86.6 154.8,87.3 155.4,86.3 155.9,85.1 156.4,85 157,82.1 157.6,81 158.1,81.2 158.7,79.5 
			159.2,81.5 159.8,82.2 160.3,81.5 160.9,80.9 161.5,79 162,80 162.6,78.4 163.1,81.2 163.7,78.9 164.2,77.1 164.8,74.5 
			165.3,74.2 165.9,73.5 166.4,71.3 167,75.2 167.5,75.6 168,75.6 168.7,74.4 169.2,73.3 169.7,71.8 170.3,69 170.8,67.1 
			171.5,67.6 171.9,68.6 172.5,67.8 173.1,65.5 173.6,63.2 174.2,61.4 174.7,58.2 175.3,59.7 175.8,53.3 176.4,45.2 177,51.6 
			177.5,51.9 178.1,62.3 178.6,60.2 179.2,64.6 179.7,61.1 180.3,64.2 180.9,71.4 181.4,71.9 181.9,75.7 182.5,83 183.1,92.4 
			183.6,94 184.2,92 184.8,93.9 185.2,95.6 185.8,93.4 186.3,89.5 186.9,84 187.5,84.2 188,80.6 188.6,81.8 189.1,79 189.7,79.4 
			190.2,78.4 190.8,77.2 191.4,79.5 191.8,79.4 192.5,77.2 193,76.7 193.6,80.4 194.1,79.7 194.7,77.9 195.3,78.5 195.8,74.6 
			196.3,73.8 196.9,75.1 197.5,73.3 198,74.7 198.5,76.3 199.1,74.3 199.6,73.2 200.2,74.4 200.7,75.8 201.3,75.7 201.8,80.2 
			202.4,85.5 203,82.4 203.5,85.8 204.1,86.2 204.6,83 205.2,81.2 205.7,82.7 206.3,83.1 206.9,87.1 207.4,86.3 208,85.9 
			208.5,86.3 209,84.3 209.6,84.6 210.2,84 210.8,83.4 211.3,82.7 211.8,83.4 212.3,84.3 212.9,83.7 213.4,84.6 214,87.1 
			214.6,87.1 215.1,88.5 215.7,87.1 216.2,85.9 216.8,86.4 217.3,86.9 217.9,88.7 218.5,87.8 219,87.5 219.6,87.5 220.1,86.3 
			220.7,85.9 221.2,85.2 221.8,85.2 222.4,87.1 222.9,86.7 223.5,86.8 224,87.9 224.6,87.1 225.1,86.8 225.7,87.2 226.2,85.5 
			226.8,86.5 227.3,87.9 227.8,89.5 228.5,92.5 229,93.1 229.6,91.5 230.1,92.5 230.6,92.7 231.3,94.6 231.7,95.2 232.3,92.8 
			232.9,92.8 		"/>
		
			<polyline fill="none" stroke="#002A5E" stroke-width="0.5163" stroke-linecap="round" stroke-linejoin="round" stroke-miterlimit="10" points="
			232.9,92.8 233.4,93.3 234,92.8 234.5,91.6 235.1,91 235.6,91 236.2,91.4 236.8,92.3 237.3,92.8 237.9,91.4 238.4,90.6 239,89.8 
			239.5,89.2 240.1,88.4 240.7,88.4 241.2,87.1 241.8,86.9 		"/>
		<g>
			<g>
				<path fill="#231F20" d="M3.1,110.4c0,0.3,0.3,0.6,0.6,0.6c0.3,0,0.6-0.2,0.6-0.5c0-0.4-0.3-0.6-0.6-0.6c-0.2,0-0.4,0.1-0.5,0.2
					l-0.5-0.2l0.4-1.5h1.6v0.5H3.5l-0.2,0.8c0.1-0.1,0.4-0.2,0.6-0.2c0.6,0,1,0.4,1,1c0,0.6-0.4,1-1.1,1c-0.6,0-1.1-0.4-1.1-0.9
					L3.1,110.4z"/>
			</g>
		</g>
		<g>
			<g>
				<path fill="#231F20" d="M0.9,101.9v-2.1H0.1v-0.4c0.4,0,0.7-0.3,0.8-0.6h0.5v3H0.9z"/>
				<path fill="#231F20" d="M2.4,99.3c0.2-0.3,0.5-0.5,1-0.5s0.8,0.2,1,0.5c0.2,0.3,0.3,0.7,0.3,1.1s-0.1,0.8-0.3,1.1
					c-0.2,0.3-0.5,0.5-1,0.5s-0.8-0.2-1-0.5c-0.2-0.3-0.3-0.7-0.3-1.1S2.2,99.6,2.4,99.3z M2.9,101.2c0.1,0.1,0.2,0.2,0.5,0.2
					s0.4-0.1,0.5-0.2c0.1-0.2,0.2-0.5,0.2-0.9s-0.1-0.7-0.2-0.9c-0.1-0.1-0.2-0.2-0.5-0.2S3,99.4,2.9,99.5c-0.1,0.2-0.2,0.5-0.2,0.9
					S2.7,101.1,2.9,101.2z"/>
			</g>
		</g>
		<g>
			<g>
				<path fill="#231F20" d="M0.9,92.4v-2.1H0.1v-0.4c0.4,0,0.7-0.3,0.8-0.6h0.5v3H0.9z"/>
				<path fill="#231F20" d="M2.6,91.4c0,0.3,0.3,0.6,0.6,0.6c0.3,0,0.6-0.2,0.6-0.5c0-0.4-0.3-0.6-0.6-0.6c-0.2,0-0.4,0.1-0.5,0.2
					l-0.5-0.2l0.4-1.5h1.6v0.5H2.9l-0.2,0.8c0.1-0.1,0.4-0.2,0.6-0.2c0.6,0,1,0.4,1,1c0,0.6-0.4,1-1.1,1c-0.6,0-1.1-0.4-1.1-0.9
					L2.6,91.4z"/>
			</g>
		</g>
		<g>
			<g>
				<path fill="#231F20" d="M0.2,81c0,0,0-0.1,0-0.2c0-0.5,0.4-1,1.1-1c0.7,0,1.1,0.4,1.1,0.9c0,0.4-0.2,0.7-0.6,0.9l-0.6,0.4
					c-0.1,0.1-0.3,0.2-0.3,0.3h1.5v0.5H0.2c0-0.5,0.2-0.9,0.7-1.2l0.5-0.3c0.3-0.2,0.4-0.3,0.4-0.6c0-0.2-0.2-0.5-0.5-0.5
					c-0.4,0-0.5,0.2-0.5,0.6c0,0,0,0.1,0,0.2L0.2,81z"/>
				<path fill="#231F20" d="M3.1,80.3c0.2-0.3,0.5-0.5,1-0.5s0.8,0.2,1,0.5c0.2,0.3,0.3,0.7,0.3,1.1S5.2,82.2,5,82.5
					C4.8,82.8,4.5,83,4,83s-0.8-0.2-1-0.5c-0.2-0.3-0.3-0.7-0.3-1.1S2.9,80.6,3.1,80.3z M3.6,82.3c0.1,0.1,0.2,0.2,0.5,0.2
					s0.4-0.1,0.5-0.2c0.1-0.2,0.2-0.5,0.2-0.9s-0.1-0.7-0.2-0.9c-0.1-0.1-0.2-0.2-0.5-0.2s-0.4,0.1-0.5,0.2
					c-0.1,0.2-0.2,0.5-0.2,0.9S3.4,82.1,3.6,82.3z"/>
			</g>
		</g>
		<g>
			<g>
				<path fill="#231F20" d="M0.2,71.5c0,0,0-0.1,0-0.2c0-0.5,0.4-1,1.1-1c0.7,0,1.1,0.4,1.1,0.9c0,0.4-0.2,0.7-0.6,0.9l-0.6,0.4
					c-0.1,0.1-0.3,0.2-0.3,0.3h1.5v0.5H0.2c0-0.5,0.2-0.9,0.7-1.2l0.5-0.3c0.3-0.2,0.4-0.3,0.4-0.6c0-0.2-0.2-0.5-0.5-0.5
					c-0.4,0-0.5,0.2-0.5,0.6c0,0,0,0.1,0,0.2L0.2,71.5z"/>
				<path fill="#231F20" d="M3.3,72.5c0,0.3,0.3,0.6,0.6,0.6c0.3,0,0.6-0.2,0.6-0.5c0-0.4-0.3-0.6-0.6-0.6c-0.2,0-0.4,0.1-0.5,0.2
					l-0.5-0.2l0.4-1.5h1.6v0.5H3.6l-0.2,0.8c0.1-0.1,0.4-0.2,0.6-0.2c0.6,0,1,0.4,1,1c0,0.6-0.4,1-1.1,1c-0.6,0-1.1-0.4-1.1-0.9
					L3.3,72.5z"/>
			</g>
		</g>
		<g>
			<g>
				<path fill="#231F20" d="M0.8,62.1l0.8-0.7H0.2v-0.5h2.1v0.5l-0.8,0.7c0.5,0,0.9,0.3,0.9,0.9c0,0.5-0.4,1-1.1,1
					c-0.7,0-1.1-0.5-1.1-1l0.5-0.1c0,0.3,0.3,0.6,0.6,0.6c0.4,0,0.6-0.2,0.6-0.5c0-0.3-0.3-0.5-0.5-0.5c-0.1,0-0.2,0-0.3,0.1
					L0.8,62.1z"/>
				<path fill="#231F20" d="M3.1,61.3c0.2-0.3,0.5-0.5,1-0.5s0.8,0.2,1,0.5c0.2,0.3,0.3,0.7,0.3,1.1s-0.1,0.8-0.3,1.1
					c-0.2,0.3-0.5,0.5-1,0.5s-0.8-0.2-1-0.5c-0.2-0.3-0.3-0.7-0.3-1.1S2.9,61.6,3.1,61.3z M3.6,63.3c0.1,0.1,0.2,0.2,0.5,0.2
					s0.4-0.1,0.5-0.2c0.1-0.2,0.2-0.5,0.2-0.9s-0.1-0.7-0.2-0.9c-0.1-0.1-0.2-0.2-0.5-0.2s-0.4,0.1-0.5,0.2
					c-0.1,0.2-0.2,0.5-0.2,0.9S3.5,63.1,3.6,63.3z"/>
			</g>
		</g>
		<g>
			<g>
				<path fill="#231F20" d="M0.8,52.7l0.8-0.7H0.2v-0.5h2.1v0.5l-0.8,0.7c0.5,0,0.9,0.3,0.9,0.9c0,0.5-0.4,1-1.1,1
					c-0.7,0-1.1-0.4-1.1-1l0.5-0.1c0,0.3,0.3,0.6,0.6,0.6c0.4,0,0.6-0.2,0.6-0.5c0-0.3-0.3-0.5-0.5-0.5c-0.1,0-0.2,0-0.3,0.1
					L0.8,52.7z"/>
				<path fill="#231F20" d="M3.3,53.5C3.4,53.8,3.6,54,4,54c0.3,0,0.6-0.2,0.6-0.5c0-0.4-0.3-0.6-0.6-0.6c-0.2,0-0.4,0.1-0.5,0.2
					l-0.5-0.2l0.4-1.5h1.6v0.5H3.7l-0.2,0.8c0.1-0.1,0.4-0.2,0.6-0.2c0.6,0,1,0.4,1,1c0,0.6-0.4,1-1.1,1c-0.6,0-1.1-0.4-1.1-0.9
					L3.3,53.5z"/>
			</g>
		</g>
		<g>
			<g>
				<path fill="#231F20" d="M0.2,43.7l1.3-1.7h0.7v1.9h0.5v0.5H2.1v0.7H1.6v-0.7H0.2V43.7z M1.6,42.5l-0.9,1.3h0.9V42.5z"/>
				<path fill="#231F20" d="M3.3,42.4c0.2-0.3,0.5-0.5,1-0.5s0.8,0.2,1,0.5c0.2,0.3,0.3,0.7,0.3,1.1s-0.1,0.8-0.3,1.1
					C5,44.8,4.7,45,4.3,45s-0.8-0.2-1-0.5c-0.2-0.3-0.3-0.7-0.3-1.1S3.1,42.7,3.3,42.4z M3.8,44.3c0.1,0.1,0.2,0.2,0.5,0.2
					s0.4-0.1,0.5-0.2C4.9,44.1,5,43.8,5,43.4s-0.1-0.7-0.2-0.9c-0.1-0.1-0.2-0.2-0.5-0.2s-0.4,0.1-0.5,0.2c-0.1,0.2-0.2,0.5-0.2,0.9
					S3.7,44.1,3.8,44.3z"/>
			</g>
		</g>
		<g>
			<g>
				<path fill="#231F20" d="M0.2,34.2l1.3-1.7h0.7v1.9h0.5v0.5H2.1v0.7H1.6v-0.7H0.2V34.2z M1.6,33l-0.9,1.3h0.9V33z"/>
				<path fill="#231F20" d="M3.5,34.5c0,0.3,0.3,0.6,0.6,0.6c0.3,0,0.6-0.2,0.6-0.5c0-0.4-0.3-0.6-0.6-0.6c-0.2,0-0.4,0.1-0.5,0.2
					L3.1,34l0.4-1.5h1.6v0.5H3.8l-0.2,0.8c0.1-0.1,0.4-0.2,0.6-0.2c0.6,0,1,0.4,1,1c0,0.6-0.4,1-1.1,1c-0.6,0-1.1-0.4-1.1-0.9
					L3.5,34.5z"/>
			</g>
		</g>
		<g>
			<g>
				<path fill="#231F20" d="M0.7,25c0,0.3,0.3,0.6,0.6,0.6c0.3,0,0.6-0.2,0.6-0.5c0-0.4-0.3-0.6-0.6-0.6c-0.2,0-0.4,0.1-0.5,0.2
					l-0.5-0.2L0.6,23h1.6v0.5H1l-0.2,0.8C0.9,24.1,1.2,24,1.4,24c0.6,0,1,0.4,1,1c0,0.6-0.4,1-1.1,1c-0.6,0-1.1-0.4-1.1-0.9L0.7,25z
					"/>
				<path fill="#231F20" d="M3.1,23.4c0.2-0.3,0.5-0.5,1-0.5s0.8,0.2,1,0.5c0.2,0.3,0.3,0.7,0.3,1.1s-0.1,0.8-0.3,1.1
					c-0.2,0.3-0.5,0.5-1,0.5s-0.8-0.2-1-0.5c-0.2-0.3-0.3-0.7-0.3-1.1S2.9,23.7,3.1,23.4z M3.6,25.3c0.1,0.1,0.2,0.2,0.5,0.2
					s0.4-0.1,0.5-0.2c0.1-0.2,0.2-0.5,0.2-0.9s-0.1-0.7-0.2-0.9c-0.1-0.1-0.2-0.2-0.5-0.2s-0.4,0.1-0.5,0.2
					c-0.1,0.2-0.2,0.5-0.2,0.9S3.5,25.1,3.6,25.3z"/>
			</g>
		</g>
		<g>
			<g>
				<path fill="#231F20" d="M0.7,15.5c0,0.3,0.3,0.6,0.6,0.6c0.3,0,0.6-0.2,0.6-0.5c0-0.4-0.3-0.6-0.6-0.6c-0.2,0-0.4,0.1-0.5,0.2
					L0.2,15l0.4-1.5h1.6V14H1l-0.2,0.8c0.1-0.1,0.4-0.2,0.6-0.2c0.6,0,1,0.4,1,1c0,0.6-0.4,1-1.1,1c-0.6,0-1.1-0.4-1.1-0.9L0.7,15.5
					z"/>
				<path fill="#231F20" d="M3.3,15.5c0,0.3,0.3,0.6,0.6,0.6c0.3,0,0.6-0.2,0.6-0.5c0-0.4-0.3-0.6-0.6-0.6c-0.2,0-0.4,0.1-0.5,0.2
					L2.9,15l0.4-1.5h1.6V14H3.7l-0.2,0.8c0.1-0.1,0.4-0.2,0.6-0.2c0.6,0,1,0.4,1,1c0,0.6-0.4,1-1.1,1c-0.6,0-1.1-0.4-1.1-0.9
					L3.3,15.5z"/>
			</g>
		</g>
		<g>
			<g>
				<path fill="#231F20" d="M5.2,117.6v-2.1H4.5v-0.4c0.4,0,0.7-0.3,0.8-0.6h0.5v3H5.2z"/>
				<path fill="#231F20" d="M6.6,117.1c0.1,0.1,0.3,0.1,0.5,0.1c0.6,0,1-0.4,1-0.9c-0.1,0.2-0.4,0.3-0.7,0.3c-0.5,0-1-0.4-1-1
					c0-0.6,0.5-1,1.1-1c0.6,0,1.2,0.4,1.2,1.4c0,1.1-0.5,1.7-1.5,1.7c-0.2,0-0.5-0.1-0.7-0.2L6.6,117.1z M7.5,115
					c-0.3,0-0.6,0.2-0.6,0.6c0,0.4,0.3,0.6,0.6,0.6c0.3,0,0.6-0.2,0.6-0.6C8.1,115.2,7.8,115,7.5,115z"/>
				<path fill="#231F20" d="M9.2,116.8c0-0.3,0.2-0.6,0.6-0.7c-0.3-0.1-0.5-0.4-0.5-0.7c0-0.5,0.4-0.8,1-0.8s1,0.3,1,0.8
					c0,0.3-0.2,0.6-0.5,0.7c0.3,0.1,0.6,0.4,0.6,0.7c0,0.5-0.4,0.9-1.1,0.9C9.7,117.7,9.2,117.3,9.2,116.8z M10.9,116.8
					c0-0.2-0.2-0.5-0.6-0.5c-0.4,0-0.6,0.2-0.6,0.5c0,0.2,0.2,0.5,0.6,0.5C10.7,117.2,10.9,117,10.9,116.8z M10.8,115.4
					c0-0.2-0.2-0.4-0.5-0.4s-0.5,0.2-0.5,0.4c0,0.3,0.2,0.4,0.5,0.4C10.6,115.9,10.8,115.7,10.8,115.4z"/>
				<path fill="#231F20" d="M12,115.7c0,0,0-0.1,0-0.2c0-0.5,0.4-1,1.1-1c0.7,0,1.1,0.4,1.1,0.9c0,0.4-0.2,0.7-0.6,0.9l-0.6,0.4
					c-0.1,0.1-0.3,0.2-0.3,0.3h1.5v0.5h-2.2c0-0.5,0.2-0.9,0.7-1.2l0.5-0.3c0.3-0.2,0.4-0.3,0.4-0.6c0-0.2-0.2-0.5-0.5-0.5
					c-0.4,0-0.5,0.2-0.5,0.6c0,0,0,0.1,0,0.2L12,115.7z"/>
			</g>
		</g>
		<g>
			<g>
				<path fill="#231F20" d="M18.5,117.6v-2.1h-0.7v-0.4c0.4,0,0.7-0.3,0.8-0.6h0.5v3H18.5z"/>
				<path fill="#231F20" d="M19.9,117.1c0.1,0.1,0.3,0.1,0.5,0.1c0.6,0,1-0.4,1-0.9c-0.1,0.2-0.4,0.3-0.7,0.3c-0.5,0-1-0.4-1-1
					c0-0.6,0.5-1,1.1-1c0.6,0,1.2,0.4,1.2,1.4c0,1.1-0.5,1.7-1.5,1.7c-0.2,0-0.5-0.1-0.7-0.2L19.9,117.1z M20.8,115
					c-0.3,0-0.6,0.2-0.6,0.6c0,0.4,0.3,0.6,0.6,0.6c0.3,0,0.6-0.2,0.6-0.6C21.4,115.2,21.1,115,20.8,115z"/>
				<path fill="#231F20" d="M22.5,116.8c0-0.3,0.2-0.6,0.6-0.7c-0.3-0.1-0.5-0.4-0.5-0.7c0-0.5,0.4-0.8,1-0.8s1,0.3,1,0.8
					c0,0.3-0.2,0.6-0.5,0.7c0.3,0.1,0.6,0.4,0.6,0.7c0,0.5-0.4,0.9-1.1,0.9C23,117.7,22.5,117.3,22.5,116.8z M24.2,116.8
					c0-0.2-0.2-0.5-0.6-0.5c-0.4,0-0.6,0.2-0.6,0.5c0,0.2,0.2,0.5,0.6,0.5C24,117.2,24.2,117,24.2,116.8z M24.1,115.4
					c0-0.2-0.2-0.4-0.5-0.4s-0.5,0.2-0.5,0.4c0,0.3,0.2,0.4,0.5,0.4C23.9,115.9,24.1,115.7,24.1,115.4z"/>
				<path fill="#231F20" d="M25.2,116.3l1.3-1.7h0.7v1.9h0.5v0.5h-0.5v0.7h-0.5V117h-1.4V116.3z M26.7,115.2l-0.9,1.3h0.9V115.2z"/>
			</g>
		</g>
		<g>
			<g>
				<path fill="#231F20" d="M31.8,117.6v-2.1h-0.7v-0.4c0.4,0,0.7-0.3,0.8-0.6h0.5v3H31.8z"/>
				<path fill="#231F20" d="M33.2,117.1c0.1,0.1,0.3,0.1,0.5,0.1c0.6,0,1-0.4,1-0.9c-0.1,0.2-0.4,0.3-0.7,0.3c-0.5,0-1-0.4-1-1
					c0-0.6,0.5-1,1.1-1c0.6,0,1.2,0.4,1.2,1.4c0,1.1-0.5,1.7-1.5,1.7c-0.2,0-0.5-0.1-0.7-0.2L33.2,117.1z M34.1,115
					c-0.3,0-0.6,0.2-0.6,0.6c0,0.4,0.3,0.6,0.6,0.6c0.3,0,0.6-0.2,0.6-0.6C34.7,115.2,34.4,115,34.1,115z"/>
				<path fill="#231F20" d="M35.8,116.8c0-0.3,0.2-0.6,0.6-0.7c-0.3-0.1-0.5-0.4-0.5-0.7c0-0.5,0.4-0.8,1-0.8s1,0.3,1,0.8
					c0,0.3-0.2,0.6-0.5,0.7c0.3,0.1,0.6,0.4,0.6,0.7c0,0.5-0.4,0.9-1.1,0.9C36.2,117.7,35.8,117.3,35.8,116.8z M37.5,116.8
					c0-0.2-0.2-0.5-0.6-0.5c-0.4,0-0.6,0.2-0.6,0.5c0,0.2,0.2,0.5,0.6,0.5C37.3,117.2,37.5,117,37.5,116.8z M37.4,115.4
					c0-0.2-0.2-0.4-0.5-0.4s-0.5,0.2-0.5,0.4c0,0.3,0.2,0.4,0.5,0.4C37.2,115.9,37.4,115.7,37.4,115.4z"/>
				<path fill="#231F20" d="M40.6,115.1c-0.1-0.1-0.3-0.1-0.5-0.1c-0.6,0-1,0.4-1,1c0.2-0.2,0.4-0.4,0.8-0.4c0.6,0,1,0.4,1,1
					c0,0.6-0.5,1-1.1,1c-0.8,0-1.2-0.6-1.2-1.4c0-1.1,0.7-1.7,1.6-1.7c0.3,0,0.5,0.1,0.6,0.1L40.6,115.1z M39.7,117.2
					c0.3,0,0.6-0.2,0.6-0.6c0-0.4-0.3-0.6-0.6-0.6s-0.6,0.2-0.6,0.6C39.2,117,39.4,117.2,39.7,117.2z"/>
			</g>
		</g>
		<g>
			<g>
				<path fill="#231F20" d="M45.1,117.6v-2.1h-0.7v-0.4c0.4,0,0.7-0.3,0.8-0.6h0.5v3H45.1z"/>
				<path fill="#231F20" d="M46.5,117.1c0.1,0.1,0.3,0.1,0.5,0.1c0.6,0,1-0.4,1-0.9c-0.1,0.2-0.4,0.3-0.7,0.3c-0.5,0-1-0.4-1-1
					c0-0.6,0.5-1,1.1-1c0.6,0,1.2,0.4,1.2,1.4c0,1.1-0.5,1.7-1.5,1.7c-0.2,0-0.5-0.1-0.7-0.2L46.5,117.1z M47.4,115
					c-0.3,0-0.6,0.2-0.6,0.6c0,0.4,0.3,0.6,0.6,0.6c0.3,0,0.6-0.2,0.6-0.6C48,115.2,47.7,115,47.4,115z"/>
				<path fill="#231F20" d="M49.1,116.8c0-0.3,0.2-0.6,0.6-0.7c-0.3-0.1-0.5-0.4-0.5-0.7c0-0.5,0.4-0.8,1-0.8s1,0.3,1,0.8
					c0,0.3-0.2,0.6-0.5,0.7c0.3,0.1,0.6,0.4,0.6,0.7c0,0.5-0.4,0.9-1.1,0.9C49.5,117.7,49.1,117.3,49.1,116.8z M50.8,116.8
					c0-0.2-0.2-0.5-0.6-0.5c-0.4,0-0.6,0.2-0.6,0.5c0,0.2,0.2,0.5,0.6,0.5C50.6,117.2,50.8,117,50.8,116.8z M50.7,115.4
					c0-0.2-0.2-0.4-0.5-0.4s-0.5,0.2-0.5,0.4c0,0.3,0.2,0.4,0.5,0.4C50.5,115.9,50.7,115.7,50.7,115.4z"/>
				<path fill="#231F20" d="M51.8,116.8c0-0.3,0.2-0.6,0.6-0.7c-0.3-0.1-0.5-0.4-0.5-0.7c0-0.5,0.4-0.8,1-0.8s1,0.3,1,0.8
					c0,0.3-0.2,0.6-0.5,0.7c0.3,0.1,0.6,0.4,0.6,0.7c0,0.5-0.4,0.9-1.1,0.9C52.3,117.7,51.8,117.3,51.8,116.8z M53.5,116.8
					c0-0.2-0.2-0.5-0.6-0.5c-0.4,0-0.6,0.2-0.6,0.5c0,0.2,0.2,0.5,0.6,0.5C53.3,117.2,53.5,117,53.5,116.8z M53.5,115.4
					c0-0.2-0.2-0.4-0.5-0.4s-0.5,0.2-0.5,0.4c0,0.3,0.2,0.4,0.5,0.4C53.3,115.9,53.5,115.7,53.5,115.4z"/>
			</g>
		</g>
		<g>
			<g>
				<path fill="#231F20" d="M58.4,117.6v-2.1h-0.7v-0.4c0.4,0,0.7-0.3,0.8-0.6h0.5v3H58.4z"/>
				<path fill="#231F20" d="M59.8,117.1c0.1,0.1,0.3,0.1,0.5,0.1c0.6,0,1-0.4,1-0.9c-0.1,0.2-0.4,0.3-0.7,0.3c-0.5,0-1-0.4-1-1
					c0-0.6,0.5-1,1.1-1c0.6,0,1.2,0.4,1.2,1.4c0,1.1-0.5,1.7-1.5,1.7c-0.2,0-0.5-0.1-0.7-0.2L59.8,117.1z M60.7,115
					c-0.3,0-0.6,0.2-0.6,0.6c0,0.4,0.3,0.6,0.6,0.6c0.3,0,0.6-0.2,0.6-0.6C61.3,115.2,61,115,60.7,115z"/>
				<path fill="#231F20" d="M62.6,117.1c0.1,0.1,0.3,0.1,0.5,0.1c0.6,0,1-0.4,1-0.9c-0.1,0.2-0.4,0.3-0.7,0.3c-0.5,0-1-0.4-1-1
					c0-0.6,0.5-1,1.1-1c0.6,0,1.2,0.4,1.2,1.4c0,1.1-0.5,1.7-1.5,1.7c-0.2,0-0.5-0.1-0.7-0.2L62.6,117.1z M63.5,115
					c-0.3,0-0.6,0.2-0.6,0.6c0,0.4,0.3,0.6,0.6,0.6c0.3,0,0.6-0.2,0.6-0.6C64.1,115.2,63.8,115,63.5,115z"/>
				<path fill="#231F20" d="M65.5,115c0.2-0.3,0.5-0.5,1-0.5s0.8,0.2,1,0.5c0.2,0.3,0.3,0.7,0.3,1.1s-0.1,0.8-0.3,1.1
					c-0.2,0.3-0.5,0.5-1,0.5s-0.8-0.2-1-0.5c-0.2-0.3-0.3-0.7-0.3-1.1S65.3,115.3,65.5,115z M66,117c0.1,0.1,0.2,0.2,0.5,0.2
					s0.4-0.1,0.5-0.2c0.1-0.2,0.2-0.5,0.2-0.9s-0.1-0.7-0.2-0.9c-0.1-0.1-0.2-0.2-0.5-0.2s-0.4,0.1-0.5,0.2
					c-0.1,0.2-0.2,0.5-0.2,0.9S65.9,116.8,66,117z"/>
			</g>
		</g>
		<g>
			<g>
				<path fill="#231F20" d="M71.7,117.6v-2.1H71v-0.4c0.4,0,0.7-0.3,0.8-0.6h0.5v3H71.7z"/>
				<path fill="#231F20" d="M73.1,117.1c0.1,0.1,0.3,0.1,0.5,0.1c0.6,0,1-0.4,1-0.9c-0.1,0.2-0.4,0.3-0.7,0.3c-0.5,0-1-0.4-1-1
					c0-0.6,0.5-1,1.1-1c0.6,0,1.2,0.4,1.2,1.4c0,1.1-0.5,1.7-1.5,1.7c-0.2,0-0.5-0.1-0.7-0.2L73.1,117.1z M74,115
					c-0.3,0-0.6,0.2-0.6,0.6c0,0.4,0.3,0.6,0.6,0.6c0.3,0,0.6-0.2,0.6-0.6C74.6,115.2,74.3,115,74,115z"/>
				<path fill="#231F20" d="M75.9,117.1c0.1,0.1,0.3,0.1,0.5,0.1c0.6,0,1-0.4,1-0.9c-0.1,0.2-0.4,0.3-0.7,0.3c-0.5,0-1-0.4-1-1
					c0-0.6,0.5-1,1.1-1c0.6,0,1.2,0.4,1.2,1.4c0,1.1-0.5,1.7-1.5,1.7c-0.2,0-0.5-0.1-0.7-0.2L75.9,117.1z M76.8,115
					c-0.3,0-0.6,0.2-0.6,0.6c0,0.4,0.3,0.6,0.6,0.6c0.3,0,0.6-0.2,0.6-0.6C77.4,115.2,77.1,115,76.8,115z"/>
				<path fill="#231F20" d="M78.5,115.7c0,0,0-0.1,0-0.2c0-0.5,0.4-1,1.1-1c0.7,0,1.1,0.4,1.1,0.9c0,0.4-0.2,0.7-0.6,0.9l-0.6,0.4
					c-0.1,0.1-0.3,0.2-0.3,0.3h1.5v0.5h-2.2c0-0.5,0.2-0.9,0.7-1.2l0.5-0.3c0.3-0.2,0.4-0.3,0.4-0.6c0-0.2-0.2-0.5-0.5-0.5
					c-0.4,0-0.5,0.2-0.5,0.6c0,0,0,0.1,0,0.2L78.5,115.7z"/>
			</g>
		</g>
		<g>
			<g>
				<path fill="#231F20" d="M85,117.6v-2.1h-0.7v-0.4c0.4,0,0.7-0.3,0.8-0.6h0.5v3H85z"/>
				<path fill="#231F20" d="M86.4,117.1c0.1,0.1,0.3,0.1,0.5,0.1c0.6,0,1-0.4,1-0.9c-0.1,0.2-0.4,0.3-0.7,0.3c-0.5,0-1-0.4-1-1
					c0-0.6,0.5-1,1.1-1c0.6,0,1.2,0.4,1.2,1.4c0,1.1-0.5,1.7-1.5,1.7c-0.2,0-0.5-0.1-0.7-0.2L86.4,117.1z M87.3,115
					c-0.3,0-0.6,0.2-0.6,0.6c0,0.4,0.3,0.6,0.6,0.6c0.3,0,0.6-0.2,0.6-0.6C87.9,115.2,87.6,115,87.3,115z"/>
				<path fill="#231F20" d="M89.2,117.1c0.1,0.1,0.3,0.1,0.5,0.1c0.6,0,1-0.4,1-0.9c-0.1,0.2-0.4,0.3-0.7,0.3c-0.5,0-1-0.4-1-1
					c0-0.6,0.5-1,1.1-1c0.6,0,1.2,0.4,1.2,1.4c0,1.1-0.5,1.7-1.5,1.7c-0.2,0-0.5-0.1-0.7-0.2L89.2,117.1z M90.1,115
					c-0.3,0-0.6,0.2-0.6,0.6c0,0.4,0.3,0.6,0.6,0.6c0.3,0,0.6-0.2,0.6-0.6C90.7,115.2,90.4,115,90.1,115z"/>
				<path fill="#231F20" d="M91.8,116.3l1.3-1.7h0.7v1.9h0.5v0.5h-0.5v0.7h-0.5V117h-1.4V116.3z M93.2,115.2l-0.9,1.3h0.9V115.2z"/>
			</g>
		</g>
		<g>
			<g>
				<path fill="#231F20" d="M98.3,117.6v-2.1h-0.7v-0.4c0.4,0,0.7-0.3,0.8-0.6h0.5v3H98.3z"/>
				<path fill="#231F20" d="M99.7,117.1c0.1,0.1,0.3,0.1,0.5,0.1c0.6,0,1-0.4,1-0.9c-0.1,0.2-0.4,0.3-0.7,0.3c-0.5,0-1-0.4-1-1
					c0-0.6,0.5-1,1.1-1c0.6,0,1.2,0.4,1.2,1.4c0,1.1-0.5,1.7-1.5,1.7c-0.2,0-0.5-0.1-0.7-0.2L99.7,117.1z M100.6,115
					c-0.3,0-0.6,0.2-0.6,0.6c0,0.4,0.3,0.6,0.6,0.6c0.3,0,0.6-0.2,0.6-0.6C101.2,115.2,100.9,115,100.6,115z"/>
				<path fill="#231F20" d="M102.5,117.1c0.1,0.1,0.3,0.1,0.5,0.1c0.6,0,1-0.4,1-0.9c-0.1,0.2-0.4,0.3-0.7,0.3c-0.5,0-1-0.4-1-1
					c0-0.6,0.5-1,1.1-1c0.6,0,1.2,0.4,1.2,1.4c0,1.1-0.5,1.7-1.5,1.7c-0.2,0-0.5-0.1-0.7-0.2L102.5,117.1z M103.4,115
					c-0.3,0-0.6,0.2-0.6,0.6c0,0.4,0.3,0.6,0.6,0.6c0.3,0,0.6-0.2,0.6-0.6C104,115.2,103.7,115,103.4,115z"/>
				<path fill="#231F20" d="M107.2,115.1c-0.1-0.1-0.3-0.1-0.5-0.1c-0.6,0-1,0.4-1,1c0.2-0.2,0.4-0.4,0.8-0.4c0.6,0,1,0.4,1,1
					c0,0.6-0.5,1-1.1,1c-0.8,0-1.2-0.6-1.2-1.4c0-1.1,0.7-1.7,1.6-1.7c0.3,0,0.5,0.1,0.6,0.1L107.2,115.1z M106.3,117.2
					c0.3,0,0.6-0.2,0.6-0.6c0-0.4-0.3-0.6-0.6-0.6s-0.6,0.2-0.6,0.6C105.7,117,106,117.2,106.3,117.2z"/>
			</g>
		</g>
		<g>
			<g>
				<path fill="#231F20" d="M111.6,117.6v-2.1h-0.7v-0.4c0.4,0,0.7-0.3,0.8-0.6h0.5v3H111.6z"/>
				<path fill="#231F20" d="M113,117.1c0.1,0.1,0.3,0.1,0.5,0.1c0.6,0,1-0.4,1-0.9c-0.1,0.2-0.4,0.3-0.7,0.3c-0.5,0-1-0.4-1-1
					c0-0.6,0.5-1,1.1-1c0.6,0,1.2,0.4,1.2,1.4c0,1.1-0.5,1.7-1.5,1.7c-0.2,0-0.5-0.1-0.7-0.2L113,117.1z M113.9,115
					c-0.3,0-0.6,0.2-0.6,0.6c0,0.4,0.3,0.6,0.6,0.6c0.3,0,0.6-0.2,0.6-0.6C114.4,115.2,114.2,115,113.9,115z"/>
				<path fill="#231F20" d="M115.8,117.1c0.1,0.1,0.3,0.1,0.5,0.1c0.6,0,1-0.4,1-0.9c-0.1,0.2-0.4,0.3-0.7,0.3c-0.5,0-1-0.4-1-1
					c0-0.6,0.5-1,1.1-1c0.6,0,1.2,0.4,1.2,1.4c0,1.1-0.5,1.7-1.5,1.7c-0.2,0-0.5-0.1-0.7-0.2L115.8,117.1z M116.7,115
					c-0.3,0-0.6,0.2-0.6,0.6c0,0.4,0.3,0.6,0.6,0.6c0.3,0,0.6-0.2,0.6-0.6C117.3,115.2,117,115,116.7,115z"/>
				<path fill="#231F20" d="M118.4,116.8c0-0.3,0.2-0.6,0.6-0.7c-0.3-0.1-0.5-0.4-0.5-0.7c0-0.5,0.4-0.8,1-0.8s1,0.3,1,0.8
					c0,0.3-0.2,0.6-0.5,0.7c0.3,0.1,0.6,0.4,0.6,0.7c0,0.5-0.4,0.9-1.1,0.9C118.8,117.7,118.4,117.3,118.4,116.8z M120.1,116.8
					c0-0.2-0.2-0.5-0.6-0.5c-0.4,0-0.6,0.2-0.6,0.5c0,0.2,0.2,0.5,0.6,0.5C119.9,117.2,120.1,117,120.1,116.8z M120,115.4
					c0-0.2-0.2-0.4-0.5-0.4s-0.5,0.2-0.5,0.4c0,0.3,0.2,0.4,0.5,0.4C119.8,115.9,120,115.7,120,115.4z"/>
			</g>
		</g>
		<g>
			<g>
				<path fill="#231F20" d="M124.2,115.7c0,0,0-0.1,0-0.2c0-0.5,0.4-1,1.1-1c0.7,0,1.1,0.4,1.1,0.9c0,0.4-0.2,0.7-0.6,0.9l-0.6,0.4
					c-0.1,0.1-0.3,0.2-0.3,0.3h1.5v0.5h-2.2c0-0.5,0.2-0.9,0.7-1.2l0.5-0.3c0.3-0.2,0.4-0.3,0.4-0.6c0-0.2-0.2-0.5-0.5-0.5
					c-0.4,0-0.5,0.2-0.5,0.6c0,0,0,0.1,0,0.2L124.2,115.7z"/>
				<path fill="#231F20" d="M127.1,115c0.2-0.3,0.5-0.5,1-0.5c0.4,0,0.8,0.2,1,0.5c0.2,0.3,0.3,0.7,0.3,1.1s-0.1,0.8-0.3,1.1
					c-0.2,0.3-0.5,0.5-1,0.5c-0.5,0-0.8-0.2-1-0.5c-0.2-0.3-0.3-0.7-0.3-1.1S126.9,115.3,127.1,115z M127.6,117
					c0.1,0.1,0.2,0.2,0.5,0.2c0.2,0,0.4-0.1,0.5-0.2c0.1-0.2,0.2-0.5,0.2-0.9s-0.1-0.7-0.2-0.9c-0.1-0.1-0.2-0.2-0.5-0.2
					c-0.2,0-0.4,0.1-0.5,0.2c-0.1,0.2-0.2,0.5-0.2,0.9S127.4,116.8,127.6,117z"/>
				<path fill="#231F20" d="M130.1,115c0.2-0.3,0.5-0.5,1-0.5c0.5,0,0.8,0.2,1,0.5c0.2,0.3,0.3,0.7,0.3,1.1s-0.1,0.8-0.3,1.1
					c-0.2,0.3-0.5,0.5-1,0.5c-0.4,0-0.8-0.2-1-0.5c-0.2-0.3-0.3-0.7-0.3-1.1S129.9,115.3,130.1,115z M130.6,117
					c0.1,0.1,0.2,0.2,0.5,0.2c0.2,0,0.4-0.1,0.5-0.2c0.1-0.2,0.2-0.5,0.2-0.9s-0.1-0.7-0.2-0.9c-0.1-0.1-0.2-0.2-0.5-0.2
					c-0.2,0-0.4,0.1-0.5,0.2c-0.1,0.2-0.2,0.5-0.2,0.9S130.4,116.8,130.6,117z"/>
				<path fill="#231F20" d="M133,115c0.2-0.3,0.5-0.5,1-0.5c0.4,0,0.8,0.2,1,0.5c0.2,0.3,0.3,0.7,0.3,1.1s-0.1,0.8-0.3,1.1
					c-0.2,0.3-0.5,0.5-1,0.5c-0.5,0-0.8-0.2-1-0.5c-0.2-0.3-0.3-0.7-0.3-1.1S132.8,115.3,133,115z M133.5,117
					c0.1,0.1,0.2,0.2,0.5,0.2c0.2,0,0.4-0.1,0.5-0.2c0.1-0.2,0.2-0.5,0.2-0.9s-0.1-0.7-0.2-0.9c-0.1-0.1-0.2-0.2-0.5-0.2
					c-0.2,0-0.4,0.1-0.5,0.2c-0.1,0.2-0.2,0.5-0.2,0.9S133.4,116.8,133.5,117z"/>
			</g>
		</g>
		<g>
			<g>
				<path fill="#231F20" d="M137.5,115.7c0,0,0-0.1,0-0.2c0-0.5,0.4-1,1.1-1c0.7,0,1.1,0.4,1.1,0.9c0,0.4-0.2,0.7-0.6,0.9l-0.6,0.4
					c-0.1,0.1-0.3,0.2-0.3,0.3h1.5v0.5h-2.2c0-0.5,0.2-0.9,0.7-1.2l0.5-0.3c0.3-0.2,0.4-0.3,0.4-0.6c0-0.2-0.2-0.5-0.5-0.5
					c-0.4,0-0.5,0.2-0.5,0.6c0,0,0,0.1,0,0.2L137.5,115.7z"/>
				<path fill="#231F20" d="M140.4,115c0.2-0.3,0.5-0.5,1-0.5c0.4,0,0.8,0.2,1,0.5c0.2,0.3,0.3,0.7,0.3,1.1s-0.1,0.8-0.3,1.1
					c-0.2,0.3-0.5,0.5-1,0.5c-0.5,0-0.8-0.2-1-0.5c-0.2-0.3-0.3-0.7-0.3-1.1S140.2,115.3,140.4,115z M140.9,117
					c0.1,0.1,0.2,0.2,0.5,0.2c0.2,0,0.4-0.1,0.5-0.2c0.1-0.2,0.2-0.5,0.2-0.9s-0.1-0.7-0.2-0.9c-0.1-0.1-0.2-0.2-0.5-0.2
					c-0.2,0-0.4,0.1-0.5,0.2c-0.1,0.2-0.2,0.5-0.2,0.9S140.7,116.8,140.9,117z"/>
				<path fill="#231F20" d="M143.4,115c0.2-0.3,0.5-0.5,1-0.5c0.4,0,0.8,0.2,1,0.5c0.2,0.3,0.3,0.7,0.3,1.1s-0.1,0.8-0.3,1.1
					c-0.2,0.3-0.5,0.5-1,0.5c-0.5,0-0.8-0.2-1-0.5c-0.2-0.3-0.3-0.7-0.3-1.1S143.2,115.3,143.4,115z M143.9,117
					c0.1,0.1,0.2,0.2,0.5,0.2c0.2,0,0.4-0.1,0.5-0.2c0.1-0.2,0.2-0.5,0.2-0.9s-0.1-0.7-0.2-0.9c-0.1-0.1-0.2-0.2-0.5-0.2
					c-0.2,0-0.4,0.1-0.5,0.2c-0.1,0.2-0.2,0.5-0.2,0.9S143.7,116.8,143.9,117z"/>
				<path fill="#231F20" d="M146.1,115.7c0,0,0-0.1,0-0.2c0-0.5,0.4-1,1.1-1c0.7,0,1.1,0.4,1.1,0.9c0,0.4-0.2,0.7-0.6,0.9l-0.6,0.4
					c-0.1,0.1-0.3,0.2-0.3,0.3h1.5v0.5H146c0-0.5,0.2-0.9,0.7-1.2l0.5-0.3c0.3-0.2,0.4-0.3,0.4-0.6c0-0.2-0.2-0.5-0.5-0.5
					c-0.4,0-0.5,0.2-0.5,0.6c0,0,0,0.1,0,0.2L146.1,115.7z"/>
			</g>
		</g>
		<g>
			<g>
				<path fill="#231F20" d="M150.8,115.7c0,0,0-0.1,0-0.2c0-0.5,0.4-1,1.1-1c0.7,0,1.1,0.4,1.1,0.9c0,0.4-0.2,0.7-0.6,0.9l-0.6,0.4
					c-0.1,0.1-0.3,0.2-0.3,0.3h1.5v0.5h-2.2c0-0.5,0.2-0.9,0.7-1.2l0.5-0.3c0.3-0.2,0.4-0.3,0.4-0.6c0-0.2-0.2-0.5-0.5-0.5
					c-0.4,0-0.5,0.2-0.5,0.6c0,0,0,0.1,0,0.2L150.8,115.7z"/>
				<path fill="#231F20" d="M153.7,115c0.2-0.3,0.5-0.5,1-0.5c0.4,0,0.8,0.2,1,0.5c0.2,0.3,0.3,0.7,0.3,1.1s-0.1,0.8-0.3,1.1
					c-0.2,0.3-0.5,0.5-1,0.5c-0.5,0-0.8-0.2-1-0.5c-0.2-0.3-0.3-0.7-0.3-1.1S153.5,115.3,153.7,115z M154.2,117
					c0.1,0.1,0.2,0.2,0.5,0.2c0.2,0,0.4-0.1,0.5-0.2c0.1-0.2,0.2-0.5,0.2-0.9s-0.1-0.7-0.2-0.9c-0.1-0.1-0.2-0.2-0.5-0.2
					c-0.2,0-0.4,0.1-0.5,0.2c-0.1,0.2-0.2,0.5-0.2,0.9S154,116.8,154.2,117z"/>
				<path fill="#231F20" d="M156.7,115c0.2-0.3,0.5-0.5,1-0.5c0.4,0,0.8,0.2,1,0.5c0.2,0.3,0.3,0.7,0.3,1.1s-0.1,0.8-0.3,1.1
					c-0.2,0.3-0.5,0.5-1,0.5c-0.5,0-0.8-0.2-1-0.5c-0.2-0.3-0.3-0.7-0.3-1.1S156.5,115.3,156.7,115z M157.2,117
					c0.1,0.1,0.2,0.2,0.5,0.2c0.2,0,0.4-0.1,0.5-0.2c0.1-0.2,0.2-0.5,0.2-0.9s-0.1-0.7-0.2-0.9c-0.1-0.1-0.2-0.2-0.5-0.2
					c-0.2,0-0.4,0.1-0.5,0.2c-0.1,0.2-0.2,0.5-0.2,0.9S157,116.8,157.2,117z"/>
				<path fill="#231F20" d="M159.3,116.3l1.3-1.7h0.7v1.9h0.5v0.5h-0.5v0.7h-0.5V117h-1.4V116.3z M160.8,115.2l-0.9,1.3h0.9V115.2z"
					/>
			</g>
		</g>
		<g>
			<g>
				<path fill="#231F20" d="M164.1,115.7c0,0,0-0.1,0-0.2c0-0.5,0.4-1,1.1-1c0.7,0,1.1,0.4,1.1,0.9c0,0.4-0.2,0.7-0.6,0.9l-0.6,0.4
					c-0.1,0.1-0.3,0.2-0.3,0.3h1.5v0.5H164c0-0.5,0.2-0.9,0.7-1.2l0.5-0.3c0.3-0.2,0.4-0.3,0.4-0.6c0-0.2-0.2-0.5-0.5-0.5
					c-0.4,0-0.5,0.2-0.5,0.6c0,0,0,0.1,0,0.2L164.1,115.7z"/>
				<path fill="#231F20" d="M167,115c0.2-0.3,0.5-0.5,1-0.5c0.4,0,0.8,0.2,1,0.5c0.2,0.3,0.3,0.7,0.3,1.1s-0.1,0.8-0.3,1.1
					c-0.2,0.3-0.5,0.5-1,0.5c-0.5,0-0.8-0.2-1-0.5c-0.2-0.3-0.3-0.7-0.3-1.1S166.8,115.3,167,115z M167.5,117
					c0.1,0.1,0.2,0.2,0.5,0.2c0.2,0,0.4-0.1,0.5-0.2c0.1-0.2,0.2-0.5,0.2-0.9s-0.1-0.7-0.2-0.9c-0.1-0.1-0.2-0.2-0.5-0.2
					c-0.2,0-0.4,0.1-0.5,0.2c-0.1,0.2-0.2,0.5-0.2,0.9S167.3,116.8,167.5,117z"/>
				<path fill="#231F20" d="M169.9,115c0.2-0.3,0.5-0.5,1-0.5c0.4,0,0.8,0.2,1,0.5c0.2,0.3,0.3,0.7,0.3,1.1s-0.1,0.8-0.3,1.1
					c-0.2,0.3-0.5,0.5-1,0.5c-0.5,0-0.8-0.2-1-0.5c-0.2-0.3-0.3-0.7-0.3-1.1S169.7,115.3,169.9,115z M170.4,117
					c0.1,0.1,0.2,0.2,0.5,0.2c0.2,0,0.4-0.1,0.5-0.2c0.1-0.2,0.2-0.5,0.2-0.9s-0.1-0.7-0.2-0.9c-0.1-0.1-0.2-0.2-0.5-0.2
					c-0.2,0-0.4,0.1-0.5,0.2c-0.1,0.2-0.2,0.5-0.2,0.9S170.3,116.8,170.4,117z"/>
				<path fill="#231F20" d="M174.7,115.1c-0.1-0.1-0.3-0.1-0.5-0.1c-0.6,0-1,0.4-1,1c0.2-0.2,0.4-0.4,0.8-0.4c0.6,0,1,0.4,1,1
					c0,0.6-0.5,1-1.1,1c-0.8,0-1.2-0.6-1.2-1.4c0-1.1,0.7-1.7,1.6-1.7c0.3,0,0.5,0.1,0.6,0.1L174.7,115.1z M173.8,117.2
					c0.3,0,0.6-0.2,0.6-0.6c0-0.4-0.3-0.6-0.6-0.6s-0.6,0.2-0.6,0.6C173.3,117,173.5,117.2,173.8,117.2z"/>
			</g>
		</g>
		<g>
			<g>
				<path fill="#231F20" d="M177.4,115.7c0,0,0-0.1,0-0.2c0-0.5,0.4-1,1.1-1c0.7,0,1.1,0.4,1.1,0.9c0,0.4-0.2,0.7-0.6,0.9l-0.6,0.4
					c-0.1,0.1-0.3,0.2-0.3,0.3h1.5v0.5h-2.2c0-0.5,0.2-0.9,0.7-1.2l0.5-0.3c0.3-0.2,0.4-0.3,0.4-0.6c0-0.2-0.2-0.5-0.5-0.5
					c-0.4,0-0.5,0.2-0.5,0.6c0,0,0,0.1,0,0.2L177.4,115.7z"/>
				<path fill="#231F20" d="M180.3,115c0.2-0.3,0.5-0.5,1-0.5c0.5,0,0.8,0.2,1,0.5c0.2,0.3,0.3,0.7,0.3,1.1s-0.1,0.8-0.3,1.1
					c-0.2,0.3-0.5,0.5-1,0.5c-0.4,0-0.8-0.2-1-0.5c-0.2-0.3-0.3-0.7-0.3-1.1S180.1,115.3,180.3,115z M180.8,117
					c0.1,0.1,0.2,0.2,0.5,0.2c0.2,0,0.4-0.1,0.5-0.2c0.1-0.2,0.2-0.5,0.2-0.9s-0.1-0.7-0.2-0.9c-0.1-0.1-0.2-0.2-0.5-0.2
					c-0.2,0-0.4,0.1-0.5,0.2c-0.1,0.2-0.2,0.5-0.2,0.9S180.6,116.8,180.8,117z"/>
				<path fill="#231F20" d="M183.2,115c0.2-0.3,0.5-0.5,1-0.5c0.5,0,0.8,0.2,1,0.5c0.2,0.3,0.3,0.7,0.3,1.1s-0.1,0.8-0.3,1.1
					c-0.2,0.3-0.5,0.5-1,0.5c-0.4,0-0.8-0.2-1-0.5c-0.2-0.3-0.3-0.7-0.3-1.1S183,115.3,183.2,115z M183.7,117
					c0.1,0.1,0.2,0.2,0.5,0.2c0.2,0,0.4-0.1,0.5-0.2c0.1-0.2,0.2-0.5,0.2-0.9s-0.1-0.7-0.2-0.9c-0.1-0.1-0.2-0.2-0.5-0.2
					c-0.2,0-0.4,0.1-0.5,0.2c-0.1,0.2-0.2,0.5-0.2,0.9S183.6,116.8,183.7,117z"/>
				<path fill="#231F20" d="M185.9,116.8c0-0.3,0.2-0.6,0.6-0.7c-0.3-0.1-0.5-0.4-0.5-0.7c0-0.5,0.4-0.8,1-0.8c0.6,0,1,0.3,1,0.8
					c0,0.3-0.2,0.6-0.5,0.7c0.3,0.1,0.6,0.4,0.6,0.7c0,0.5-0.4,0.9-1.1,0.9C186.3,117.7,185.9,117.3,185.9,116.8z M187.6,116.8
					c0-0.2-0.2-0.5-0.6-0.5c-0.4,0-0.6,0.2-0.6,0.5c0,0.2,0.2,0.5,0.6,0.5C187.4,117.2,187.6,117,187.6,116.8z M187.5,115.4
					c0-0.2-0.2-0.4-0.5-0.4c-0.3,0-0.5,0.2-0.5,0.4c0,0.3,0.2,0.4,0.5,0.4C187.3,115.9,187.5,115.7,187.5,115.4z"/>
			</g>
		</g>
		<g>
			<g>
				<path fill="#231F20" d="M190.7,115.7c0,0,0-0.1,0-0.2c0-0.5,0.4-1,1.1-1c0.7,0,1.1,0.4,1.1,0.9c0,0.4-0.2,0.7-0.6,0.9l-0.6,0.4
					c-0.1,0.1-0.3,0.2-0.3,0.3h1.5v0.5h-2.2c0-0.5,0.2-0.9,0.7-1.2l0.5-0.3c0.3-0.2,0.4-0.3,0.4-0.6c0-0.2-0.2-0.5-0.5-0.5
					c-0.4,0-0.5,0.2-0.5,0.6c0,0,0,0.1,0,0.2L190.7,115.7z"/>
				<path fill="#231F20" d="M193.6,115c0.2-0.3,0.5-0.5,1-0.5c0.5,0,0.8,0.2,1,0.5c0.2,0.3,0.3,0.7,0.3,1.1s-0.1,0.8-0.3,1.1
					c-0.2,0.3-0.5,0.5-1,0.5c-0.4,0-0.8-0.2-1-0.5c-0.2-0.3-0.3-0.7-0.3-1.1S193.3,115.3,193.6,115z M194,117
					c0.1,0.1,0.2,0.2,0.5,0.2c0.2,0,0.4-0.1,0.5-0.2c0.1-0.2,0.2-0.5,0.2-0.9s-0.1-0.7-0.2-0.9c-0.1-0.1-0.2-0.2-0.5-0.2
					c-0.2,0-0.4,0.1-0.5,0.2c-0.1,0.2-0.2,0.5-0.2,0.9S193.9,116.8,194,117z"/>
				<path fill="#231F20" d="M196.9,117.6v-2.1h-0.7v-0.4c0.4,0,0.7-0.3,0.8-0.6h0.5v3H196.9z"/>
				<path fill="#231F20" d="M198.4,115c0.2-0.3,0.5-0.5,1-0.5c0.5,0,0.8,0.2,1,0.5c0.2,0.3,0.3,0.7,0.3,1.1s-0.1,0.8-0.3,1.1
					c-0.2,0.3-0.5,0.5-1,0.5c-0.4,0-0.8-0.2-1-0.5c-0.2-0.3-0.3-0.7-0.3-1.1S198.2,115.3,198.4,115z M198.9,117
					c0.1,0.1,0.2,0.2,0.5,0.2c0.2,0,0.4-0.1,0.5-0.2c0.1-0.2,0.2-0.5,0.2-0.9s-0.1-0.7-0.2-0.9c-0.1-0.1-0.2-0.2-0.5-0.2
					c-0.2,0-0.4,0.1-0.5,0.2c-0.1,0.2-0.2,0.5-0.2,0.9S198.8,116.8,198.9,117z"/>
			</g>
		</g>
		<g>
			<g>
				<path fill="#231F20" d="M203.9,115.7c0,0,0-0.1,0-0.2c0-0.5,0.4-1,1.1-1c0.7,0,1.1,0.4,1.1,0.9c0,0.4-0.2,0.7-0.6,0.9l-0.6,0.4
					c-0.1,0.1-0.3,0.2-0.3,0.3h1.5v0.5h-2.2c0-0.5,0.2-0.9,0.7-1.2l0.5-0.3c0.3-0.2,0.4-0.3,0.4-0.6c0-0.2-0.2-0.5-0.5-0.5
					c-0.4,0-0.5,0.2-0.5,0.6c0,0,0,0.1,0,0.2L203.9,115.7z"/>
				<path fill="#231F20" d="M206.8,115c0.2-0.3,0.5-0.5,1-0.5c0.5,0,0.8,0.2,1,0.5c0.2,0.3,0.3,0.7,0.3,1.1s-0.1,0.8-0.3,1.1
					c-0.2,0.3-0.5,0.5-1,0.5c-0.4,0-0.8-0.2-1-0.5c-0.2-0.3-0.3-0.7-0.3-1.1S206.6,115.3,206.8,115z M207.3,117
					c0.1,0.1,0.2,0.2,0.5,0.2c0.2,0,0.4-0.1,0.5-0.2c0.1-0.2,0.2-0.5,0.2-0.9s-0.1-0.7-0.2-0.9c-0.1-0.1-0.2-0.2-0.5-0.2
					c-0.2,0-0.4,0.1-0.5,0.2c-0.1,0.2-0.2,0.5-0.2,0.9S207.2,116.8,207.3,117z"/>
				<path fill="#231F20" d="M210.2,117.6v-2.1h-0.7v-0.4c0.4,0,0.7-0.3,0.8-0.6h0.5v3H210.2z"/>
				<path fill="#231F20" d="M211.4,115.7c0,0,0-0.1,0-0.2c0-0.5,0.4-1,1.1-1c0.7,0,1.1,0.4,1.1,0.9c0,0.4-0.2,0.7-0.6,0.9l-0.6,0.4
					c-0.1,0.1-0.3,0.2-0.3,0.3h1.5v0.5h-2.2c0-0.5,0.2-0.9,0.7-1.2l0.5-0.3c0.3-0.2,0.4-0.3,0.4-0.6c0-0.2-0.2-0.5-0.5-0.5
					c-0.4,0-0.5,0.2-0.5,0.6c0,0,0,0.1,0,0.2L211.4,115.7z"/>
			</g>
		</g>
		<g>
			<g>
				<path fill="#231F20" d="M217.2,115.7c0,0,0-0.1,0-0.2c0-0.5,0.4-1,1.1-1c0.7,0,1.1,0.4,1.1,0.9c0,0.4-0.2,0.7-0.6,0.9l-0.6,0.4
					c-0.1,0.1-0.3,0.2-0.3,0.3h1.5v0.5h-2.2c0-0.5,0.2-0.9,0.7-1.2l0.5-0.3c0.3-0.2,0.4-0.3,0.4-0.6c0-0.2-0.2-0.5-0.5-0.5
					c-0.4,0-0.5,0.2-0.5,0.6c0,0,0,0.1,0,0.2L217.2,115.7z"/>
				<path fill="#231F20" d="M220.1,115c0.2-0.3,0.5-0.5,1-0.5c0.5,0,0.8,0.2,1,0.5c0.2,0.3,0.3,0.7,0.3,1.1s-0.1,0.8-0.3,1.1
					c-0.2,0.3-0.5,0.5-1,0.5c-0.4,0-0.8-0.2-1-0.5c-0.2-0.3-0.3-0.7-0.3-1.1S219.9,115.3,220.1,115z M220.6,117
					c0.1,0.1,0.2,0.2,0.5,0.2c0.2,0,0.4-0.1,0.5-0.2c0.1-0.2,0.2-0.5,0.2-0.9s-0.1-0.7-0.2-0.9c-0.1-0.1-0.2-0.2-0.5-0.2
					c-0.2,0-0.4,0.1-0.5,0.2c-0.1,0.2-0.2,0.5-0.2,0.9S220.5,116.8,220.6,117z"/>
				<path fill="#231F20" d="M223.5,117.6v-2.1h-0.7v-0.4c0.4,0,0.7-0.3,0.8-0.6h0.5v3H223.5z"/>
				<path fill="#231F20" d="M224.6,116.3l1.3-1.7h0.7v1.9h0.5v0.5h-0.5v0.7h-0.5V117h-1.4V116.3z M226.1,115.2l-0.9,1.3h0.9V115.2z"
					/>
			</g>
		</g>
		<g>
			<g>
				<path fill="#231F20" d="M230.5,115.7c0,0,0-0.1,0-0.2c0-0.5,0.4-1,1.1-1c0.7,0,1.1,0.4,1.1,0.9c0,0.4-0.2,0.7-0.6,0.9l-0.6,0.4
					c-0.1,0.1-0.3,0.2-0.3,0.3h1.5v0.5h-2.2c0-0.5,0.2-0.9,0.7-1.2l0.5-0.3c0.3-0.2,0.4-0.3,0.4-0.6c0-0.2-0.2-0.5-0.5-0.5
					c-0.4,0-0.5,0.2-0.5,0.6c0,0,0,0.1,0,0.2L230.5,115.7z"/>
				<path fill="#231F20" d="M233.4,115c0.2-0.3,0.5-0.5,1-0.5c0.5,0,0.8,0.2,1,0.5c0.2,0.3,0.3,0.7,0.3,1.1s-0.1,0.8-0.3,1.1
					c-0.2,0.3-0.5,0.5-1,0.5c-0.4,0-0.8-0.2-1-0.5c-0.2-0.3-0.3-0.7-0.3-1.1S233.2,115.3,233.4,115z M233.9,117
					c0.1,0.1,0.2,0.2,0.5,0.2c0.2,0,0.4-0.1,0.5-0.2c0.1-0.2,0.2-0.5,0.2-0.9s-0.1-0.7-0.2-0.9c-0.1-0.1-0.2-0.2-0.5-0.2
					c-0.2,0-0.4,0.1-0.5,0.2c-0.1,0.2-0.2,0.5-0.2,0.9S233.8,116.8,233.9,117z"/>
				<path fill="#231F20" d="M236.8,117.6v-2.1H236v-0.4c0.4,0,0.7-0.3,0.8-0.6h0.5v3H236.8z"/>
				<path fill="#231F20" d="M240.1,115.1c-0.1-0.1-0.3-0.1-0.5-0.1c-0.6,0-1,0.4-1,1c0.2-0.2,0.4-0.4,0.8-0.4c0.6,0,1,0.4,1,1
					c0,0.6-0.5,1-1.1,1c-0.8,0-1.2-0.6-1.2-1.4c0-1.1,0.7-1.7,1.6-1.7c0.3,0,0.5,0.1,0.6,0.1L240.1,115.1z M239.2,117.2
					c0.3,0,0.6-0.2,0.6-0.6c0-0.4-0.3-0.6-0.6-0.6s-0.6,0.2-0.6,0.6C238.6,117,238.9,117.2,239.2,117.2z"/>
			</g>
		</g>
		
			<line fill="none" stroke="#EA5284" stroke-width="0.5378" stroke-linejoin="round" stroke-miterlimit="10" stroke-dasharray="2.1513,1.6134" x1="8.3" y1="81.9" x2="240.6" y2="81.9"/>
		<g>
			<path fill="#EA5284" d="M248.6,79.6c0,0.1,0,0.3,0,0.4c0.2,1.3,0.6,2.1,1.4,2.8c-0.2,0.2-0.4,0.4-0.5,0.6
				c-0.5-0.5-0.9-1.1-1.1-1.8c-0.2,0.6-0.5,1.3-1.1,1.8c-0.1-0.1-0.2-0.3-0.3-0.4c-0.2,0-0.5,0-0.7,0h-1.3c-0.9,0-1.2-0.3-1.2-1.3
				V78h-0.2v-0.7h3.5V78h-2.5v3.9c0,0.4,0.1,0.6,0.4,0.6h1.4c0.2,0,0.5,0,0.7-0.1l0,0.3c0.8-1,0.9-2.2,0.9-3v-0.5h0.8V79.6z
				 M244.5,80.3h1.1v1.8h-1.1V80.3z M246.5,79.9h-1.7v-1.6h1.7V79.9z M244.9,81.6h0.3v-0.8h-0.3V81.6z M245.9,78.8h-0.5v0.6h0.5
				V78.8z M246.9,82.1h-1.1v-1.8h1.1V82.1z M246.4,80.8h-0.3v0.8h0.3V80.8z M247.8,78.8c-0.2,0.5-0.4,1-0.6,1.3
				c-0.1-0.1-0.5-0.3-0.6-0.4c0.5-0.6,0.7-1.6,0.9-2.6l0.8,0.1c0,0.3-0.1,0.6-0.2,0.9h1.3l0.1,0l0.5,0.2c-0.2,0.7-0.4,1.5-0.6,2
				l-0.6-0.2c0.1-0.3,0.2-0.7,0.3-1.2H247.8z"/>
			<path fill="#EA5284" d="M255.9,82.6c0.2,0,0.3-0.2,0.3-1.2c0.2,0.1,0.5,0.3,0.8,0.3c-0.1,1.2-0.3,1.6-1,1.6h-0.8
				c-0.8,0-1-0.3-1-1.1v-2.1h-1c-0.1,1.4-0.4,2.6-2.1,3.3c-0.1-0.2-0.3-0.5-0.5-0.7c1.4-0.5,1.6-1.5,1.7-2.6h-1.6v-0.8h6.2v0.8H255
				v2.1c0,0.3,0,0.3,0.3,0.3H255.9z M256.2,78.3h-4.9v-0.8h4.9V78.3z"/>
			<path fill="#EA5284" d="M262.7,82.5c0.4,0,1,0,1.3-0.1c0,0.2,0.1,0.6,0.1,0.8c-0.3,0.1-0.9,0.1-1.4,0.1h-2.7
				c-1.2,0-1.8-0.4-1.8-1.7V78h-0.3v-0.7h5.9V78h-4.8v3.7c0,0.6,0.2,0.8,0.9,0.8H262.7z M259.2,80.3h1.9v1.9h-1.9V80.3z M259.9,81.6
				h0.5v-0.8h-0.5V81.6z M262.7,80H260v-1.7h2.7V80z M261.9,78.8h-1.1v0.6h1.1V78.8z M263.4,82.1h-2v-1.9h2V82.1z M262.7,80.8h-0.6
				v0.8h0.6V80.8z"/>
			<path fill="#EA5284" d="M271.2,81.2h-2.7v2.3h-0.9v-2.3h-2.7v-0.8h2.7v-2.1h-2.3v-0.8h5.5v0.8h-2.3v2.1h2.7V81.2z M266.5,78.5
				c0.2,0.4,0.5,1,0.6,1.4l-0.8,0.3c-0.1-0.4-0.3-1-0.5-1.4L266.5,78.5z M269,79.9c0.2-0.4,0.5-1,0.6-1.5l0.9,0.2
				c-0.3,0.5-0.5,1.1-0.8,1.5L269,79.9z"/>
			<path fill="#EA5284" d="M274.2,80.7l0.2,0.7c-0.7,0.4-1.5,0.7-2.1,1l-0.3-0.8c0.2-0.1,0.5-0.2,0.9-0.3v-1.9H272v-0.8h0.7v-1.5
				h0.8v1.5h0.7v0.8h-0.7v1.5L274.2,80.7z M278.3,78.5c-0.1,3.2-0.2,4.3-0.4,4.6c-0.2,0.3-0.4,0.4-0.7,0.4c-0.3,0-0.7,0-1.1,0
				c0-0.2-0.1-0.6-0.3-0.8c0.5,0,0.9,0,1.1,0c0.1,0,0.2,0,0.3-0.1c0.2-0.2,0.3-1.3,0.3-3.8h-2c-0.2,0.4-0.4,0.8-0.6,1.1
				c-0.2-0.1-0.5-0.3-0.7-0.4c0.5-0.6,0.9-1.5,1.2-2.4l0.8,0.2c-0.1,0.3-0.2,0.6-0.3,0.9h2.5V78.5z M275,81h2.1v0.7H275V81z
				 M277,79.7v0.7h-1.6v-0.7H277z"/>
			<path fill="#EA5284" d="M279.9,78.7c0-0.4,0.3-0.7,0.7-0.7c0.4,0,0.7,0.3,0.7,0.7c0,0.4-0.3,0.6-0.7,0.6
				C280.2,79.3,279.9,79,279.9,78.7z M279.9,82c0-0.4,0.3-0.7,0.7-0.7c0.4,0,0.7,0.3,0.7,0.7c0,0.4-0.3,0.6-0.7,0.6
				C280.2,82.6,279.9,82.4,279.9,82z"/>
			<path fill="#EA5284" d="M283.1,82.1h1.1v-3.3h-0.9v-0.6c0.5-0.1,0.9-0.2,1.2-0.4h0.8v4.3h1v0.8h-3.1V82.1z"/>
			<path fill="#EA5284" d="M287.7,81.8c0.2,0.2,0.5,0.4,0.8,0.4c0.6,0,1.1-0.4,1.1-1.7c-0.3,0.3-0.7,0.6-1.1,0.6
				c-0.9,0-1.5-0.5-1.5-1.6c0-1.1,0.7-1.7,1.6-1.7c1,0,1.9,0.8,1.9,2.6c0,1.9-1,2.8-2,2.8c-0.6,0-1.1-0.3-1.4-0.6L287.7,81.8z
				 M289.6,79.7c-0.1-0.9-0.4-1.3-0.9-1.3c-0.4,0-0.7,0.3-0.7,0.9c0,0.6,0.3,0.9,0.7,0.9C289,80.3,289.3,80.1,289.6,79.7z"/>
			<path fill="#EA5284" d="M291.5,82.3c0-0.4,0.3-0.7,0.6-0.7c0.4,0,0.6,0.3,0.6,0.7s-0.3,0.7-0.6,0.7
				C291.8,83,291.5,82.7,291.5,82.3z"/>
			<path fill="#EA5284" d="M294.4,81.8c0.2,0.2,0.5,0.4,0.8,0.4c0.6,0,1.1-0.4,1.1-1.7c-0.3,0.3-0.7,0.6-1.1,0.6
				c-0.9,0-1.5-0.5-1.5-1.6c0-1.1,0.7-1.7,1.6-1.7c1,0,1.9,0.8,1.9,2.6c0,1.9-1,2.8-2,2.8c-0.6,0-1.1-0.3-1.4-0.6L294.4,81.8z
				 M296.3,79.7c-0.1-0.9-0.4-1.3-0.9-1.3c-0.4,0-0.7,0.3-0.7,0.9c0,0.6,0.3,0.9,0.7,0.9C295.7,80.3,296,80.1,296.3,79.7z"/>
			<path fill="#EA5284" d="M299.1,80.9L298,79h1.1l0.4,0.7c0.1,0.2,0.2,0.4,0.3,0.7h0c0.1-0.2,0.2-0.4,0.3-0.7l0.3-0.7h1.1l-1.1,2
				l1.2,1.9h-1.1l-0.4-0.7c-0.1-0.2-0.3-0.5-0.4-0.7h0c-0.1,0.2-0.2,0.5-0.3,0.7l-0.4,0.7h-1.1L299.1,80.9z"/>
		</g>
		<g>
			<path fill="#7F58A5" d="M246.1,90.9c-0.9,0.3-1.8,0.5-2.5,0.7l-0.2-0.8c0.3-0.1,0.6-0.1,1-0.2l0-1.4l-0.8,0l0-0.8l0.8,0l0-1.2
				l-0.8,0l0-0.8l2.4,0l0,0.8l-0.8,0l0,1.2l0.8,0l0,0.8l-0.8,0l0,1.2l0.8-0.2L246.1,90.9z M249.1,91.9c0.1,0,0.2-0.1,0.2-0.8
				c0.2,0.1,0.5,0.3,0.7,0.3c-0.1,1-0.3,1.2-0.8,1.2l-0.5,0c-0.6,0-0.8-0.2-0.8-0.9l0-1.4l-0.4,0c-0.1,1.1-0.5,1.9-2,2.4
				c-0.1-0.2-0.3-0.5-0.5-0.7c1.3-0.3,1.5-0.9,1.6-1.7l-0.5,0l0.1-3.9l3.4,0.1l-0.1,3.9l-0.9,0l0,1.4c0,0.2,0,0.2,0.1,0.2
				L249.1,91.9z M247,89.6l1.8,0l0-0.4l-1.8,0L247,89.6z M247,88.5l1.8,0l0-0.4l-1.8,0L247,88.5z M247,87.5l1.8,0l0-0.4l-1.8,0
				L247,87.5z"/>
			<path fill="#7F58A5" d="M252.8,86.5c-0.2,0.5-0.4,1-0.7,1.5l-0.1,4.7l-0.8,0l0.1-3.5c-0.1,0.2-0.3,0.3-0.4,0.5
				c-0.1-0.2-0.3-0.7-0.4-0.9c0.6-0.6,1.2-1.6,1.5-2.6L252.8,86.5z M257,91.9l0,0.7l-4.7-0.1l0-0.7l0.6,0L253,88l1.2,0
				c0-0.1,0.1-0.3,0.1-0.5l-1.6,0l0-0.7l1.7,0c0-0.2,0-0.4,0.1-0.6l0.9,0c0,0.2-0.1,0.4-0.1,0.6l1.7,0l0,0.7l-1.9,0
				c0,0.2-0.1,0.3-0.1,0.5l1.6,0l-0.1,3.9L257,91.9z M253.7,91.9l2.1,0l0-0.4l-2.1,0L253.7,91.9z M253.7,90.5l0,0.4l2.1,0l0-0.4
				L253.7,90.5z M255.8,89.6l-2.1,0l0,0.4l2.1,0L255.8,89.6z M253.7,88.6l0,0.4l2.1,0l0-0.4L253.7,88.6z"/>
			<path fill="#7F58A5" d="M258.5,91.3c0-0.4,0.3-0.7,0.7-0.7c0.4,0,0.7,0.3,0.7,0.7c0,0.4-0.3,0.6-0.7,0.6
				C258.8,91.9,258.5,91.6,258.5,91.3z M258.6,87.9c0-0.4,0.3-0.7,0.7-0.7c0.4,0,0.7,0.3,0.7,0.7c0,0.4-0.3,0.6-0.7,0.6
				C258.9,88.6,258.6,88.3,258.6,87.9z"/>
			<path fill="#7F58A5" d="M261.7,91.4l1.1,0l0-3.3l-0.9,0l0-0.6c0.5-0.1,0.9-0.2,1.2-0.4l0.8,0l-0.1,4.3l1,0l0,0.8l-3.1,0
				L261.7,91.4z"/>
			<path fill="#7F58A5" d="M268.1,88l-2.3,0l0-0.9l3.4,0.1l0,0.6c-1.2,1.4-1.4,2.5-1.5,4.5l-1,0C266.8,90.5,267.1,89.4,268.1,88z"/>
			<path fill="#7F58A5" d="M270.2,91.8c0-0.4,0.3-0.7,0.6-0.7c0.4,0,0.6,0.3,0.6,0.7c0,0.4-0.3,0.7-0.7,0.7
				C270.4,92.5,270.1,92.2,270.2,91.8z"/>
			<path fill="#7F58A5" d="M272.7,91.6l1.1,0l0-3.3l-0.9,0l0-0.6c0.5-0.1,0.9-0.2,1.2-0.4l0.8,0l-0.1,4.3l1,0l0,0.8l-3.1,0
				L272.7,91.6z"/>
			<path fill="#7F58A5" d="M277.7,90.4l-1.1-1.9l1.1,0l0.4,0.7c0.1,0.2,0.2,0.4,0.3,0.7l0,0c0.1-0.2,0.2-0.4,0.3-0.7l0.3-0.7l1.1,0
				l-1.2,2l1.2,1.9l-1.1,0l-0.4-0.7c-0.1-0.2-0.2-0.5-0.4-0.7h0c-0.1,0.2-0.2,0.4-0.3,0.7l-0.4,0.7l-1.1,0L277.7,90.4z"/>
		</g>
		<path fill="#EA5284" d="M241.1,99.6c-10.5-2.6-17-13.3-14.4-23.8c2.6-10.5,13.3-17,23.8-14.4c5.1,1.3,9.4,4.4,12.1,8.9l-0.3,0.2
			c-2.7-4.4-6.9-7.5-11.9-8.7c-10.3-2.6-20.8,3.8-23.3,14.1s3.8,20.8,14.1,23.3c5.7,1.4,11.7,0.2,16.4-3.5l0.2,0.3
			C253,99.7,246.9,101,241.1,99.6z"/>
	</g>
</g>
<g>
	<path fill="#A7A9AC" d="M5.5,140.6H3.8v-0.4h1.7V140.6z M5.9,143.7c-0.5,0.3-1.2,0.6-1.8,0.7c-0.1-0.1-0.2-0.3-0.3-0.3
		c0.6-0.1,1.3-0.3,1.8-0.6L5.9,143.7z M5.3,139.7H3.9v-0.3h1.4V139.7z M4.5,141.1h3.9v2.4H4.5V141.1z M5,141.8h3v-0.4H5V141.8z
		 M5,142.5h3v-0.4H5V142.5z M5,143.2h3v-0.4H5V143.2z M6.4,139.7c-0.1,0.2-0.3,0.4-0.4,0.6c-0.1-0.1-0.2-0.2-0.3-0.2
		c0.3-0.3,0.6-0.7,0.7-1.1l0.4,0.1c0,0.1-0.1,0.2-0.1,0.3h2l0.1,0l0.3,0.1c-0.1,0.3-0.3,0.7-0.5,0.9l-0.4-0.1
		c0.1-0.1,0.2-0.3,0.3-0.5h-1v0.1c0,0.1,0,0.1,0,0.2c0.3,0.4,1,0.6,1.8,0.7c-0.1,0.1-0.2,0.2-0.3,0.4c-0.7-0.1-1.3-0.3-1.6-0.7
		c-0.2,0.3-0.7,0.6-1.7,0.7c0-0.1-0.2-0.3-0.2-0.3c1.6-0.2,1.7-0.6,1.7-0.9v-0.1H6.4z M7.3,143.5c0.6,0.2,1.3,0.5,1.8,0.6l-0.4,0.3
		c-0.4-0.2-1-0.4-1.7-0.7L7.3,143.5z"/>
	<path fill="#A7A9AC" d="M10.7,141.8c-0.1,0.7-0.4,1.5-0.7,1.9c0-0.1-0.1-0.4-0.2-0.5c0.3-0.3,0.5-1,0.6-1.5L10.7,141.8z
		 M11.3,141.4v3.1h-0.4v-3.1h-1V141h1v-2h0.4v2h1v0.4H11.3z M10.3,140.8c0-0.4-0.2-0.9-0.3-1.3l0.3-0.1c0.2,0.4,0.3,1,0.4,1.3
		L10.3,140.8z M11.5,141.7c0.1,0.2,0.5,1,0.6,1.2l-0.3,0.3c-0.1-0.3-0.4-1.1-0.6-1.3L11.5,141.7z M12.3,139.4
		c-0.1,0.5-0.3,1-0.5,1.3l-0.3-0.1c0.1-0.4,0.3-0.9,0.4-1.3L12.3,139.4z M14.6,142.8v1.7h-0.4v-1.6l-1.9,0.3l-0.1-0.4l1.9-0.3V139
		h0.4v3.4l0.7-0.1l0.1,0.4L14.6,142.8z M13.4,141.9c-0.2-0.2-0.6-0.5-1-0.7l0.2-0.3c0.4,0.2,0.8,0.5,1,0.7L13.4,141.9z M13.6,140.5
		c-0.2-0.2-0.6-0.6-0.9-0.8l0.2-0.3c0.3,0.2,0.7,0.5,0.9,0.7L13.6,140.5z"/>
	<path fill="#A7A9AC" d="M19,141.7c0.5,0.9,1.5,1.7,2.6,2.1c-0.1,0.1-0.3,0.3-0.3,0.4c-0.8-0.4-1.6-1-2.2-1.8v2.1h-0.5v-2.1
		c-0.6,0.8-1.4,1.4-2.2,1.8c-0.1-0.1-0.2-0.3-0.3-0.4c1-0.4,2-1.2,2.5-2.1v-1.5h-2.3v-0.4h2.3V139H19v0.8h2.4v0.4H19V141.7z
		 M17.7,140.5c-0.1,0.3-0.1,0.5-0.2,0.7c0.3,0.2,0.5,0.5,0.7,0.7l-0.3,0.3c-0.1-0.1-0.3-0.4-0.6-0.6c-0.2,0.4-0.5,0.7-0.8,0.9
		c-0.1-0.1-0.3-0.2-0.4-0.3c0.5-0.4,0.9-1,1.1-1.8L17.7,140.5z M20.5,140.4c0,0.3-0.1,0.5-0.2,0.7c0.4,0.3,0.8,0.7,1.1,0.9l-0.3,0.3
		c-0.2-0.2-0.6-0.6-0.9-0.9c-0.1,0.3-0.3,0.5-0.5,0.7c-0.1-0.1-0.3-0.2-0.4-0.2c0.4-0.4,0.7-1,0.9-1.6L20.5,140.4z"/>
	<path fill="#A7A9AC" d="M23.1,141.6c-0.2-0.2-0.7-0.5-1-0.6l0.3-0.3c0.3,0.2,0.8,0.4,1,0.6L23.1,141.6z M23.5,142.4
		c-0.2,0.6-0.6,1.4-0.9,1.9l-0.4-0.2c0.3-0.5,0.6-1.2,0.9-1.9L23.5,142.4z M23.4,140c-0.2-0.2-0.7-0.5-1-0.7l0.3-0.3
		c0.3,0.2,0.8,0.5,1,0.6L23.4,140z M24.4,140.9c0,1-0.1,2.5-0.8,3.5c-0.1-0.1-0.3-0.2-0.4-0.2c0.7-1,0.7-2.3,0.7-3.3v-1.6h3.6v0.4
		h-3.2V140.9z M25.3,142.9c-0.2,0.4-0.5,0.9-0.8,1.2c-0.1-0.1-0.3-0.2-0.4-0.2c0.3-0.3,0.5-0.7,0.7-1.1L25.3,142.9z M26.2,142.4v1.6
		c0,0.2,0,0.3-0.2,0.4c-0.2,0.1-0.4,0.1-0.8,0.1c0-0.1-0.1-0.3-0.1-0.4c0.3,0,0.6,0,0.6,0c0.1,0,0.1,0,0.1-0.1v-1.6h-1.1v-2.1h0.9
		c0.1-0.2,0.1-0.4,0.2-0.6l0.5,0.1c-0.1,0.2-0.2,0.3-0.2,0.5h1.3v2.1H26.2z M25.1,141.2h1.8v-0.5h-1.8V141.2z M25.1,142.1h1.8v-0.5
		h-1.8V142.1z M27,142.7c0.2,0.4,0.5,0.9,0.7,1.1l-0.4,0.2c-0.1-0.3-0.4-0.8-0.7-1.2L27,142.7z"/>
	<path fill="#A7A9AC" d="M29.1,140.3c0-0.3,0.2-0.5,0.5-0.5c0.2,0,0.5,0.2,0.5,0.5c0,0.3-0.2,0.4-0.5,0.4
		C29.3,140.7,29.1,140.5,29.1,140.3z M29.1,143.2c0-0.3,0.2-0.5,0.5-0.5c0.2,0,0.5,0.2,0.5,0.5c0,0.3-0.2,0.4-0.5,0.4
		C29.3,143.7,29.1,143.5,29.1,143.2z"/>
	<path fill="#A7A9AC" d="M32.7,140.1h-1.3v-0.5h3.2v0.5h-1.3v3.9h-0.6V140.1z"/>
	<path fill="#A7A9AC" d="M35.5,139.2H36v1.3l0,0.7c0.3-0.3,0.6-0.5,1.1-0.5c0.7,0,1,0.4,1,1.3v2.1h-0.5v-2c0-0.6-0.2-0.9-0.6-0.9
		c-0.3,0-0.6,0.2-0.9,0.5v2.4h-0.5V139.2z"/>
	<path fill="#A7A9AC" d="M39,142.4c0-1.1,0.7-1.7,1.5-1.7c0.8,0,1.5,0.6,1.5,1.7c0,1.1-0.7,1.7-1.5,1.7
		C39.7,144.1,39,143.4,39,142.4z M41.5,142.4c0-0.8-0.4-1.3-0.9-1.3c-0.6,0-0.9,0.5-0.9,1.3c0,0.7,0.4,1.2,0.9,1.2
		C41.1,143.6,41.5,143.1,41.5,142.4z"/>
	<path fill="#A7A9AC" d="M43.1,140.7h0.4l0,0.5h0c0.3-0.3,0.6-0.6,1-0.6c0.5,0,0.8,0.2,0.9,0.6c0.3-0.4,0.7-0.6,1.1-0.6
		c0.7,0,1,0.4,1,1.3v2.1H47v-2c0-0.6-0.2-0.9-0.6-0.9c-0.3,0-0.5,0.2-0.8,0.5v2.4H45v-2c0-0.6-0.2-0.9-0.6-0.9
		c-0.2,0-0.5,0.2-0.8,0.5v2.4h-0.5V140.7z"/>
	<path fill="#A7A9AC" d="M48.4,143.6l0.3-0.4c0.3,0.2,0.6,0.4,1,0.4c0.4,0,0.6-0.2,0.6-0.5c0-0.3-0.4-0.5-0.7-0.6
		c-0.5-0.2-1-0.4-1-0.9c0-0.5,0.4-0.9,1.1-0.9c0.4,0,0.8,0.2,1,0.4l-0.3,0.4c-0.2-0.2-0.5-0.3-0.7-0.3c-0.4,0-0.6,0.2-0.6,0.5
		c0,0.3,0.4,0.4,0.7,0.6c0.5,0.2,1,0.4,1,1c0,0.5-0.4,1-1.2,1C49.2,144.1,48.7,143.9,48.4,143.6z"/>
	<path fill="#A7A9AC" d="M51.5,142.4c0-1.1,0.7-1.7,1.5-1.7c0.8,0,1.5,0.6,1.5,1.7c0,1.1-0.7,1.7-1.5,1.7
		C52.2,144.1,51.5,143.4,51.5,142.4z M53.9,142.4c0-0.8-0.4-1.3-0.9-1.3c-0.6,0-0.9,0.5-0.9,1.3c0,0.7,0.4,1.2,0.9,1.2
		C53.6,143.6,53.9,143.1,53.9,142.4z"/>
	<path fill="#A7A9AC" d="M55.5,140.7H56l0,0.5h0c0.3-0.3,0.6-0.6,1.1-0.6c0.7,0,1,0.4,1,1.3v2.1h-0.5v-2c0-0.6-0.2-0.9-0.6-0.9
		c-0.3,0-0.6,0.2-0.9,0.5v2.4h-0.5V140.7z"/>
	<path fill="#A7A9AC" d="M60.9,139.6H62c1.3,0,2.1,0.8,2.1,2.2c0,1.4-0.7,2.2-2.1,2.2h-1.1V139.6z M61.9,143.5c1,0,1.5-0.6,1.5-1.8
		c0-1.1-0.5-1.7-1.5-1.7h-0.5v3.5H61.9z"/>
	<path fill="#A7A9AC" d="M64.9,143.1c0-0.7,0.6-1.1,2-1.2c0-0.4-0.1-0.8-0.7-0.8c-0.4,0-0.7,0.2-1,0.3l-0.2-0.4
		c0.3-0.2,0.8-0.4,1.3-0.4c0.8,0,1.1,0.5,1.1,1.3v2H67l0-0.4h0c-0.3,0.3-0.7,0.5-1.1,0.5C65.3,144.1,64.9,143.7,64.9,143.1z
		 M66.9,143.2v-0.9c-1.1,0.1-1.5,0.4-1.5,0.8c0,0.4,0.3,0.5,0.6,0.5C66.3,143.6,66.6,143.5,66.9,143.2z"/>
	<path fill="#A7A9AC" d="M68.6,143v-1.8h-0.5v-0.4l0.5,0l0.1-0.9h0.5v0.9h0.9v0.4h-0.9v1.8c0,0.4,0.1,0.6,0.5,0.6
		c0.1,0,0.3,0,0.4-0.1l0.1,0.4c-0.2,0.1-0.4,0.1-0.6,0.1C68.9,144.1,68.6,143.6,68.6,143z"/>
	<path fill="#A7A9AC" d="M70.6,143.1c0-0.7,0.6-1.1,2-1.2c0-0.4-0.1-0.8-0.7-0.8c-0.4,0-0.7,0.2-1,0.3l-0.2-0.4
		c0.3-0.2,0.8-0.4,1.3-0.4c0.8,0,1.1,0.5,1.1,1.3v2h-0.4l0-0.4h0c-0.3,0.3-0.7,0.5-1.1,0.5C71,144.1,70.6,143.7,70.6,143.1z
		 M72.6,143.2v-0.9c-1.1,0.1-1.5,0.4-1.5,0.8c0,0.4,0.3,0.5,0.6,0.5C72,143.6,72.3,143.5,72.6,143.2z"/>
	<path fill="#A7A9AC" d="M74,143.6l0.3-0.4c0.3,0.2,0.6,0.4,1,0.4c0.4,0,0.6-0.2,0.6-0.5c0-0.3-0.4-0.5-0.7-0.6
		c-0.5-0.2-1-0.4-1-0.9c0-0.5,0.4-0.9,1.1-0.9c0.4,0,0.8,0.2,1,0.4l-0.3,0.4c-0.2-0.2-0.5-0.3-0.7-0.3c-0.4,0-0.6,0.2-0.6,0.5
		c0,0.3,0.4,0.4,0.7,0.6c0.5,0.2,1,0.4,1,1c0,0.5-0.4,1-1.2,1C74.7,144.1,74.3,143.9,74,143.6z"/>
	<path fill="#A7A9AC" d="M77.3,143v-1.8h-0.5v-0.4l0.5,0l0.1-0.9h0.5v0.9h0.9v0.4h-0.9v1.8c0,0.4,0.1,0.6,0.5,0.6
		c0.1,0,0.3,0,0.4-0.1l0.1,0.4c-0.2,0.1-0.4,0.1-0.6,0.1C77.5,144.1,77.3,143.6,77.3,143z"/>
	<path fill="#A7A9AC" d="M79.6,140.7H80l0,0.6h0c0.2-0.4,0.6-0.7,0.9-0.7c0.1,0,0.2,0,0.3,0.1l-0.1,0.5c-0.1,0-0.2-0.1-0.3-0.1
		c-0.3,0-0.6,0.2-0.8,0.8v2.1h-0.5V140.7z"/>
	<path fill="#A7A9AC" d="M81.7,142.4c0-1.1,0.7-1.7,1.5-1.7c0.8,0,1.3,0.6,1.3,1.5c0,0.1,0,0.2,0,0.3h-2.2c0,0.7,0.5,1.1,1.1,1.1
		c0.3,0,0.6-0.1,0.8-0.3l0.2,0.4c-0.3,0.2-0.6,0.3-1.1,0.3C82.4,144.1,81.7,143.4,81.7,142.4z M84,142.1c0-0.7-0.3-1-0.8-1
		c-0.5,0-0.9,0.4-0.9,1H84z"/>
	<path fill="#A7A9AC" d="M85.2,143.1c0-0.7,0.6-1.1,2-1.2c0-0.4-0.1-0.8-0.7-0.8c-0.4,0-0.7,0.2-1,0.3l-0.2-0.4
		c0.3-0.2,0.8-0.4,1.3-0.4c0.8,0,1.1,0.5,1.1,1.3v2h-0.4l0-0.4h0c-0.3,0.3-0.7,0.5-1.1,0.5C85.6,144.1,85.2,143.7,85.2,143.1z
		 M87.2,143.2v-0.9c-1.1,0.1-1.5,0.4-1.5,0.8c0,0.4,0.3,0.5,0.6,0.5C86.6,143.6,86.9,143.5,87.2,143.2z"/>
	<path fill="#A7A9AC" d="M88.9,140.7h0.4l0,0.5h0c0.3-0.3,0.6-0.6,1-0.6c0.5,0,0.8,0.2,0.9,0.6c0.3-0.4,0.7-0.6,1.1-0.6
		c0.7,0,1,0.4,1,1.3v2.1h-0.5v-2c0-0.6-0.2-0.9-0.6-0.9c-0.3,0-0.5,0.2-0.8,0.5v2.4h-0.5v-2c0-0.6-0.2-0.9-0.6-0.9
		c-0.2,0-0.5,0.2-0.8,0.5v2.4h-0.5V140.7z"/>
	<path fill="#A7A9AC" d="M94.9,142.5c0.5-0.2,0.7-0.5,0.8-0.9c0,0-0.1,0-0.1,0c-0.2,0-0.4-0.1-0.4-0.4c0-0.3,0.2-0.4,0.5-0.4
		c0.3,0,0.5,0.3,0.5,0.7c0,0.6-0.4,1.1-1,1.4L94.9,142.5z"/>
	<path fill="#A7A9AC" d="M99.2,140.6h-1.7v-0.4h1.7V140.6z M99.7,143.7c-0.5,0.3-1.2,0.6-1.8,0.7c-0.1-0.1-0.2-0.3-0.3-0.3
		c0.6-0.1,1.3-0.3,1.8-0.6L99.7,143.7z M99.1,139.7h-1.4v-0.3h1.4V139.7z M98.3,141.1h3.9v2.4h-3.9V141.1z M98.7,141.8h3v-0.4h-3
		V141.8z M98.7,142.5h3v-0.4h-3V142.5z M98.7,143.2h3v-0.4h-3V143.2z M100.2,139.7c-0.1,0.2-0.3,0.4-0.4,0.6
		c-0.1-0.1-0.2-0.2-0.3-0.2c0.3-0.3,0.6-0.7,0.7-1.1l0.4,0.1c0,0.1-0.1,0.2-0.1,0.3h2l0.1,0l0.3,0.1c-0.1,0.3-0.3,0.7-0.5,0.9
		l-0.4-0.1c0.1-0.1,0.2-0.3,0.3-0.5h-1v0.1c0,0.1,0,0.1,0,0.2c0.3,0.4,1,0.6,1.8,0.7c-0.1,0.1-0.2,0.2-0.3,0.4
		c-0.7-0.1-1.3-0.3-1.6-0.7c-0.2,0.3-0.7,0.6-1.7,0.7c0-0.1-0.2-0.3-0.2-0.3c1.6-0.2,1.7-0.6,1.7-0.9v-0.1H100.2z M101.1,143.5
		c0.6,0.2,1.3,0.5,1.8,0.6l-0.4,0.3c-0.4-0.2-1-0.4-1.7-0.7L101.1,143.5z"/>
	<path fill="#A7A9AC" d="M104.5,141.8c-0.1,0.7-0.4,1.5-0.7,1.9c0-0.1-0.1-0.4-0.2-0.5c0.3-0.3,0.5-1,0.6-1.5L104.5,141.8z
		 M105,141.4v3.1h-0.4v-3.1h-1V141h1v-2h0.4v2h1v0.4H105z M104,140.8c0-0.4-0.2-0.9-0.3-1.3l0.3-0.1c0.2,0.4,0.3,1,0.4,1.3
		L104,140.8z M105.3,141.7c0.1,0.2,0.5,1,0.6,1.2l-0.3,0.3c-0.1-0.3-0.4-1.1-0.6-1.3L105.3,141.7z M106,139.4
		c-0.1,0.5-0.3,1-0.5,1.3l-0.3-0.1c0.1-0.4,0.3-0.9,0.4-1.3L106,139.4z M108.4,142.8v1.7h-0.4v-1.6l-1.9,0.3l-0.1-0.4l1.9-0.3V139
		h0.4v3.4l0.7-0.1l0.1,0.4L108.4,142.8z M107.1,141.9c-0.2-0.2-0.6-0.5-1-0.7l0.2-0.3c0.4,0.2,0.8,0.5,1,0.7L107.1,141.9z
		 M107.4,140.5c-0.2-0.2-0.6-0.6-0.9-0.8l0.2-0.3c0.3,0.2,0.7,0.5,0.9,0.7L107.4,140.5z"/>
	<path fill="#A7A9AC" d="M114.9,141.3c-0.2,0.7-0.5,1.4-0.9,1.9c0.2,0.5,0.4,0.7,0.6,0.7c0.1,0,0.2-0.3,0.2-1
		c0.1,0.1,0.2,0.2,0.4,0.2c-0.1,0.9-0.2,1.2-0.6,1.2c-0.4,0-0.7-0.3-0.9-0.8c-0.3,0.3-0.6,0.6-0.9,0.8c-0.1-0.1-0.2-0.2-0.3-0.3
		c0.1,0,0.1-0.1,0.2-0.1h-2v0.3h-0.4v-2.1c-0.1,0.1-0.2,0.2-0.3,0.3c-0.1-0.1-0.2-0.2-0.3-0.3c0.4-0.3,0.7-0.9,0.9-1.4l0.4,0.1
		c-0.1,0.2-0.2,0.3-0.2,0.5h0.8c-0.1-0.2-0.2-0.3-0.3-0.5l0.3-0.1c0.1,0.2,0.3,0.4,0.4,0.6h0.8v0.3H112v0.4h0.8v0.3H112v0.4h0.8v0.3
		H112v0.4h0.9v0.3c0.3-0.2,0.5-0.5,0.7-0.7c-0.2-0.6-0.3-1.4-0.4-2.4h-3.3v-0.4h1.4v-0.5h-1.1v-0.4h1.1V139h0.4v0.6h1.1v0.4h-1.1
		v0.5h1.5c0-0.5,0-0.9,0-1.4h0.4c0,0.5,0,1,0,1.4h1.6v0.4h-1.6c0.1,0.7,0.1,1.4,0.3,1.9c0.3-0.5,0.5-1,0.6-1.5L114.9,141.3z
		 M111.6,141.8h-0.9v0.4h0.9V141.8z M111.6,142.5h-0.9v0.4h0.9V142.5z M110.7,143.6h0.9v-0.4h-0.9V143.6z M114.7,140.2
		c-0.2-0.3-0.5-0.6-0.9-0.9l0.3-0.2c0.3,0.2,0.7,0.6,0.9,0.8L114.7,140.2z"/>
	<path fill="#A7A9AC" d="M121.3,143.8v0.4H116v-0.4h2.4v-1.1h-1.9v-0.4h1.9v-0.8h0.4v0.8h1.9v0.4h-1.9v1.1H121.3z M120.7,141.6
		c-0.1-0.1-0.2-0.3-0.4-0.4c-3.2,0.2-3.6,0.2-3.8,0.2c0-0.1-0.1-0.3-0.1-0.4c0.1,0,0.3-0.1,0.4-0.3c0.1-0.1,0.6-0.5,0.9-1h-1.6v-0.4
		h5v0.4h-2.8c-0.4,0.5-0.7,0.9-1.1,1.2l2.8-0.1c-0.2-0.2-0.5-0.4-0.7-0.6l0.4-0.2c0.5,0.4,1.2,1,1.5,1.4L120.7,141.6z"/>
	<path fill="#A7A9AC" d="M122.1,143.7c1.4-1.2,2-2.1,2-2.8c0-0.5-0.3-0.9-0.8-0.9c-0.4,0-0.7,0.2-0.9,0.5l-0.3-0.3
		c0.4-0.4,0.7-0.6,1.3-0.6c0.8,0,1.3,0.5,1.3,1.3c0,0.9-0.7,1.8-1.7,2.7c0.2,0,0.5,0,0.7,0h1.2v0.5h-2.8V143.7z"/>
	<path fill="#A7A9AC" d="M125.6,141.8c0-1.5,0.5-2.3,1.4-2.3c0.8,0,1.4,0.7,1.4,2.3c0,1.5-0.5,2.3-1.4,2.3
		C126.1,144.1,125.6,143.3,125.6,141.8z M127.8,141.8c0-1.3-0.3-1.8-0.8-1.8c-0.5,0-0.8,0.5-0.8,1.8c0,1.3,0.3,1.9,0.8,1.9
		C127.5,143.6,127.8,143.1,127.8,141.8z"/>
	<path fill="#A7A9AC" d="M129.3,143.5h1v-3.3h-0.8v-0.3c0.4-0.1,0.7-0.2,0.9-0.3h0.4v3.9h0.9v0.5h-2.4V143.5z"/>
	<path fill="#A7A9AC" d="M134.7,140.1h-2.1v-0.5h2.8v0.3c-1,1.3-1.2,2.3-1.3,4.1h-0.6C133.5,142.3,133.8,141.3,134.7,140.1z"/>
	<path fill="#A7A9AC" d="M141.4,143.1h-2.2v1.4h-0.5v-1.4H136v-0.4h1V141h1.8v-0.9h-1.5c-0.3,0.5-0.6,0.9-0.9,1.2
		c-0.1-0.1-0.3-0.2-0.4-0.3c0.6-0.5,1.1-1.3,1.3-2.1l0.5,0.1c-0.1,0.2-0.2,0.4-0.3,0.6h3.6v0.4h-1.9v0.9h1.8v0.4h-1.8v1.2h2.2V143.1
		z M138.8,142.6v-1.2h-1.3v1.2H138.8z"/>
	<path fill="#A7A9AC" d="M142.2,142.9c0-0.6,0.4-1,0.8-1.2v0c-0.3-0.2-0.6-0.6-0.6-1c0-0.7,0.5-1.1,1.2-1.1c0.7,0,1.2,0.5,1.2,1.2
		c0,0.5-0.3,0.9-0.6,1.1v0c0.4,0.2,0.7,0.6,0.7,1.2c0,0.6-0.6,1.1-1.4,1.1C142.7,144.1,142.2,143.6,142.2,142.9z M144.4,142.9
		c0-0.6-0.5-0.8-1.2-1.1c-0.4,0.2-0.6,0.6-0.6,1c0,0.5,0.4,0.8,0.9,0.8C144.1,143.7,144.4,143.3,144.4,142.9z M144.3,140.7
		c0-0.4-0.3-0.8-0.8-0.8c-0.4,0-0.7,0.3-0.7,0.7c0,0.5,0.5,0.8,1,1C144.2,141.3,144.3,141,144.3,140.7z"/>
	<path fill="#A7A9AC" d="M150.3,143.8c0,0.3-0.1,0.5-0.3,0.5c-0.2,0.1-0.6,0.1-1.3,0.1c0-0.1-0.1-0.3-0.2-0.5c0.5,0,1,0,1.1,0
		c0.1,0,0.2,0,0.2-0.2v-1.2h-2.9c-0.2,0.7-0.5,1.4-1,1.9c-0.1-0.1-0.2-0.3-0.3-0.3c1-0.8,1-2.1,1-3v-1.8h3.7V143.8z M149.8,142.1v-1
		h-2.7c0,0.3,0,0.7-0.1,1H149.8z M147.1,139.7v1h2.7v-1H147.1z"/>
	<path fill="#A7A9AC" d="M151.7,143.5l0.3-0.4c0.3,0.3,0.6,0.5,1.1,0.5c0.5,0,0.9-0.3,0.9-0.8c0-0.5-0.4-0.9-1.4-0.9v-0.4
		c0.9,0,1.2-0.4,1.2-0.8c0-0.4-0.3-0.7-0.7-0.7c-0.4,0-0.7,0.2-0.9,0.4l-0.3-0.3c0.3-0.3,0.7-0.5,1.2-0.5c0.7,0,1.3,0.4,1.3,1.1
		c0,0.5-0.3,0.9-0.8,1.1v0c0.5,0.1,0.9,0.5,0.9,1.1c0,0.8-0.6,1.3-1.4,1.3C152.4,144.1,152,143.8,151.7,143.5z"/>
	<path fill="#A7A9AC" d="M155.5,143.5h1v-3.3h-0.8v-0.3c0.4-0.1,0.7-0.2,0.9-0.3h0.4v3.9h0.9v0.5h-2.4V143.5z"/>
	<path fill="#A7A9AC" d="M163.4,139.4v5H163V144h-3v0.4h-0.5v-5H163.4z M160,139.8v1.6h3v-1.6H160z M163,143.5v-1.7h-3v1.7H163z"/>
	<path fill="#A7A9AC" d="M166.1,140.8c0.5,0,0.9,0.4,0.9,0.9s-0.4,0.9-0.9,0.9c-0.5,0-0.9-0.4-0.9-0.9S165.6,140.8,166.1,140.8z
		 M166.1,142.3c0.3,0,0.6-0.3,0.6-0.6s-0.3-0.6-0.6-0.6c-0.3,0-0.6,0.3-0.6,0.6S165.8,142.3,166.1,142.3z"/>
	<path fill="#A7A9AC" d="M9.1,150.5v0.4H3.8v-0.4H6v-4.7h0.5v1.8h2.2v0.4H6.5v2.4H9.1z"/>
	<path fill="#A7A9AC" d="M11.5,148.6c-0.1,0.6-0.3,1.1-0.6,1.6c0.1,0.1,0.2,0.2,0.4,0.3c0.4,0.3,1,0.3,1.7,0.3
		c0.8,0,1.7-0.1,2.4-0.1c0,0.1-0.1,0.3-0.1,0.5c-0.4,0-1.6,0.1-2.3,0.1c-0.8,0-1.3-0.1-1.7-0.3c-0.2-0.1-0.5-0.3-0.6-0.3
		c-0.1,0-0.3,0.4-0.5,0.8l-0.3-0.4c0.2-0.3,0.5-0.6,0.7-0.7c0.2-0.3,0.4-0.8,0.5-1.2h-0.8c0.2-0.4,0.4-0.9,0.5-1.3H9.9v-0.4h1.3
		c-0.1,0.4-0.3,0.9-0.5,1.3h0.5l0.1,0L11.5,148.6z M10.6,146.9c-0.1-0.3-0.2-0.7-0.3-1l0.4-0.1c0.1,0.3,0.2,0.7,0.3,0.9L10.6,146.9z
		 M12.6,148.3c0,0.6-0.2,1.4-0.9,1.9c-0.1-0.1-0.2-0.2-0.3-0.3c0.6-0.5,0.8-1.2,0.8-1.6v-0.5h0.4V148.3z M13.1,147.3h-1.6v-0.4h1.6
		v-1.1h0.4v1.1h1.7v0.4h-1.7v3h-0.4V147.3z M14.7,146.8c-0.2-0.2-0.5-0.5-0.8-0.7l0.3-0.2c0.3,0.2,0.6,0.5,0.8,0.7L14.7,146.8z
		 M15,149.6c0.1,0,0.2,0,0.3,0c0,0.1,0,0.3,0,0.4c-0.1,0-0.2,0-0.3,0h-0.4c-0.4,0-0.5-0.1-0.5-0.6v-1.5h0.4v1.6c0,0.2,0,0.2,0.1,0.2
		H15z"/>
	<path fill="#A7A9AC" d="M20.6,146.6c-0.3,0.6-0.9,1-1.5,1.4c0.7,0.4,1.5,0.7,2.3,0.8c-0.1,0.1-0.2,0.3-0.3,0.4
		c-0.9-0.2-1.7-0.5-2.5-1c-0.8,0.5-1.8,0.8-2.6,1c0-0.1-0.1-0.3-0.2-0.4c0.8-0.2,1.7-0.5,2.4-0.9c-0.4-0.3-0.7-0.6-1-0.9
		c-0.3,0.3-0.6,0.5-1,0.7c-0.1-0.1-0.2-0.3-0.3-0.3c0.7-0.4,1.5-1.1,1.9-1.8l0.4,0.2c-0.1,0.2-0.2,0.4-0.4,0.5h2.2l0.1,0L20.6,146.6
		z M17,149.1h3.5v2.1H20V151h-2.6v0.3H17V149.1z M17.4,149.5v1.1H20v-1.1H17.4z M17.7,146.9c0.3,0.3,0.7,0.6,1.1,0.9
		c0.5-0.3,0.9-0.6,1.2-1L17.7,146.9L17.7,146.9z"/>
	<path fill="#A7A9AC" d="M23.4,149.3c0.2-0.1,0.4-0.2,0.7-0.3l0.1,0.4c-0.6,0.3-1.3,0.6-1.8,0.8l-0.2-0.4c0.2-0.1,0.5-0.2,0.8-0.3
		v-1.8h-0.7v-0.4h0.7v-1.4h0.4v1.4H24v0.4h-0.6V149.3z M26.8,150.7c0.3,0,0.4-0.2,0.4-0.9c0.1,0.1,0.3,0.2,0.4,0.2
		c-0.1,0.8-0.2,1.1-0.8,1.1h-1.5c-0.7,0-0.9-0.2-0.9-0.8v-1.9l-0.5,0.2l-0.2-0.4l0.6-0.3v-1.6h0.4v1.4l0.8-0.3v-1.7h0.4v1.5l0.9-0.4
		l0.3,0.1l0,0.1c-0.1,0.8-0.2,1.9-0.3,2.6l-0.4-0.1c0.1-0.5,0.2-1.4,0.2-2.2l-0.8,0.3v2.2h-0.4v-2l-0.8,0.3v2.1
		c0,0.3,0.1,0.4,0.5,0.4H26.8z"/>
	<path fill="#A7A9AC" d="M32.7,150.6c0.3,0,0.8,0,1-0.1c0,0.1,0,0.3,0.1,0.4c-0.2,0-0.6,0.1-1.1,0.1H30c-0.9,0-1.4-0.3-1.4-1.2v-3.4
		h-0.2v-0.4h5v0.4h-4.3v3.4c0,0.5,0.2,0.7,0.9,0.7H32.7z M29.6,148.6h1.6v1.5h-1.6V148.6z M29.9,149.8h0.8v-0.9h-0.8V149.8z
		 M32.4,148.2h-2.2v-1.3h2.2V148.2z M32,147.2h-1.4v0.7H32V147.2z M33.1,150.1h-1.6v-1.5h1.6V150.1z M32.8,148.9h-0.8v0.9h0.8V148.9
		z"/>
	<path fill="#A7A9AC" d="M36.2,145.9c-0.2,0.4-0.4,0.9-0.6,1.3v4h-0.4v-3.4c-0.2,0.3-0.4,0.5-0.6,0.7c0-0.1-0.2-0.3-0.3-0.4
		c0.6-0.6,1.1-1.5,1.5-2.4L36.2,145.9z M39.9,150.8v0.3h-3.9v-0.3h1.7v-0.5h-1.3V150h1.3v-0.4h-1.5v-0.3h1.5v-0.4h-1.4v-1.2h1.4
		v-0.3H37v-0.7h-0.8v-0.3H37v-0.6h0.4v0.6h1.3v-0.6h0.4v0.6h0.8v0.3h-0.8v0.7h-0.9v0.3h1.4v1.2h-1.4v0.4h1.5v0.3h-1.5v0.4h1.4v0.3
		h-1.4v0.5H39.9z M37.8,148.6V148h-1v0.6H37.8z M37.4,147.1h1.3v-0.4h-1.3V147.1z M38.2,148v0.6h1V148H38.2z"/>
	<path fill="#A7A9AC" d="M45.9,149.2c-0.1,1.2-0.2,1.7-0.4,1.9c-0.1,0.1-0.2,0.1-0.4,0.2c-0.1,0-0.4,0-0.7,0c0-0.1,0-0.3-0.1-0.4
		c0.3,0,0.6,0,0.7,0c0.1,0,0.2,0,0.2-0.1c0.1-0.1,0.2-0.5,0.3-1.4h-3.6c-0.3,0.3-0.7,0.5-1,0.7c-0.1-0.1-0.2-0.3-0.2-0.4
		c1.1-0.6,1.9-1.5,2.5-2.5H41v-0.4h1.2c-0.1-0.2-0.3-0.6-0.5-0.9l0.4-0.2c0.2,0.3,0.4,0.6,0.5,0.9l-0.3,0.1h1.1
		c0.2-0.3,0.3-0.7,0.4-1l0.4,0.1c-0.1,0.3-0.2,0.6-0.4,0.9H45c-0.1,0.4-0.1,0.8-0.2,1.1h0.7c-0.1,0.3-0.1,0.8-0.2,1.1h0.6
		L45.9,149.2z M40.9,151c0.4-0.3,0.6-0.8,0.7-1.2l0.4,0.1c-0.1,0.5-0.3,1-0.7,1.3L40.9,151z M42.9,148.3c-0.2,0.2-0.4,0.5-0.6,0.7
		h2.6c0-0.2,0.1-0.5,0.1-0.7H42.9z M42.7,149.9c0.1,0.3,0.2,0.8,0.2,1.1l-0.4,0.1c0-0.3,0-0.7-0.1-1.1L42.7,149.9z M43.6,147.2
		c-0.1,0.2-0.3,0.5-0.4,0.7h1.2c0.1-0.2,0.1-0.4,0.1-0.7H43.6z M43.6,149.8c0.2,0.3,0.3,0.7,0.3,1l-0.4,0.1c0-0.3-0.2-0.7-0.3-1
		L43.6,149.8z M44.6,150.5c-0.1-0.2-0.3-0.6-0.4-0.8l0.3-0.1c0.2,0.2,0.4,0.6,0.5,0.8L44.6,150.5z"/>
	<path fill="#A7A9AC" d="M47.5,147.7v3.5H47V146h2.2v1.7H47.5z M47.5,146.3v0.4h1.3v-0.4H47.5z M48.8,147.4V147h-1.3v0.4H48.8z
		 M49.7,150.7v0.5h-0.4v-0.5h-1.4v-0.3h1.4v-0.2h-1.1v-1.3h2.6v1.3h-1.1v0.2H51v0.3H49.7z M48.1,147.9h1.2v0.8h-1.2V147.9z
		 M48.4,148.5H49v-0.3h-0.6V148.5z M48.6,149.4h0.7v-0.3h-0.7V149.4z M49.3,149.9v-0.3h-0.7v0.3H49.3z M50.9,148.7h-1.3v-0.8h1.3
		V148.7z M50.4,149.1h-0.7v0.3h0.7V149.1z M50.4,149.6h-0.7v0.3h0.7V149.6z M52,150.7c0,0.2,0,0.4-0.2,0.4c-0.1,0.1-0.4,0.1-0.8,0.1
		c0-0.1-0.1-0.3-0.1-0.4c0.3,0,0.5,0,0.6,0c0.1,0,0.1,0,0.1-0.1v-3.1h-1.8V146H52V150.7z M50.6,148.1h-0.6v0.3h0.6V148.1z
		 M50.2,146.3v0.4h1.4v-0.4H50.2z M51.6,147.4V147h-1.4v0.4H51.6z"/>
	<path fill="#A7A9AC" d="M54.5,148.6c-0.1,0.6-0.3,1.1-0.6,1.6c0.1,0.1,0.2,0.2,0.4,0.3c0.4,0.3,1,0.3,1.7,0.3
		c0.8,0,1.7-0.1,2.4-0.1c0,0.1-0.1,0.3-0.1,0.5c-0.4,0-1.6,0.1-2.3,0.1c-0.8,0-1.3-0.1-1.7-0.3c-0.2-0.1-0.5-0.3-0.6-0.3
		c-0.1,0-0.3,0.4-0.5,0.8l-0.3-0.4c0.2-0.3,0.5-0.6,0.7-0.7c0.2-0.3,0.4-0.8,0.5-1.2h-0.8c0.2-0.4,0.4-0.9,0.5-1.3h-0.8v-0.4h1.3
		c-0.1,0.4-0.3,0.9-0.5,1.3h0.5l0.1,0L54.5,148.6z M53.6,146.9c-0.1-0.3-0.2-0.7-0.3-1l0.4-0.1c0.1,0.3,0.2,0.7,0.3,0.9L53.6,146.9z
		 M55.7,148.3c0,0.6-0.2,1.4-0.9,1.9c-0.1-0.1-0.2-0.2-0.3-0.3c0.6-0.5,0.8-1.2,0.8-1.6v-0.5h0.4V148.3z M56.2,147.3h-1.6v-0.4h1.6
		v-1.1h0.4v1.1h1.7v0.4h-1.7v3h-0.4V147.3z M57.8,146.8c-0.2-0.2-0.5-0.5-0.8-0.7l0.3-0.2c0.3,0.2,0.6,0.5,0.8,0.7L57.8,146.8z
		 M58,149.6c0.1,0,0.2,0,0.3,0c0,0.1,0,0.3,0,0.4c-0.1,0-0.2,0-0.3,0h-0.4c-0.4,0-0.5-0.1-0.5-0.6v-1.5h0.4v1.6c0,0.2,0,0.2,0.1,0.2
		H58z"/>
	<path fill="#A7A9AC" d="M59,148.5c0.1-0.4,0.3-1.1,0.3-1.5l0.4,0.1c0,0.5-0.1,1.2-0.3,1.6L59,148.5z M59.9,145.8h0.4v5.5h-0.4
		V145.8z M60.7,146.6c0.1,0.3,0.3,0.7,0.4,0.9l-0.3,0.2c-0.1-0.2-0.2-0.6-0.4-0.9L60.7,146.6z M64.5,147.7v0.3h-3.6v-0.3h1.6v-0.4
		h-1.3V147h1.3v-0.4H61v-0.3h1.4v-0.5h0.4v0.5h1.4v0.3h-1.4v0.4h1.3v0.3h-1.3v0.4H64.5z M64.1,150.8c0,0.2,0,0.3-0.2,0.4
		c-0.2,0.1-0.4,0.1-0.9,0.1c0-0.1-0.1-0.3-0.1-0.4c0.3,0,0.6,0,0.7,0c0.1,0,0.1,0,0.1-0.1v-0.4h-2.1c-0.1,0.4-0.2,0.7-0.4,1
		c-0.1-0.1-0.2-0.3-0.3-0.3c0.3-0.4,0.4-1.1,0.4-1.5v-1.1h2.9V150.8z M63.7,150v-0.5h-2c0,0.1,0,0.3,0,0.5H63.7z M61.7,148.7v0.5h2
		v-0.5H61.7z"/>
	<path fill="#A7A9AC" d="M67.8,148.9c-0.9,0.1-1.9,0.1-2.6,0.2l0-0.3c0.3,0,0.7,0,1.2-0.1v-0.4h-0.9V148h0.9v-0.3h0.4v0.3h0.9v0.3
		h-0.9v0.4l1-0.1L67.8,148.9z M66.4,147.1c-0.1,0.5-0.5,0.7-1,0.8c0-0.1-0.1-0.2-0.2-0.3c0.4-0.1,0.7-0.2,0.8-0.6h-0.7v-0.3h1.1
		v-0.3h-0.9v-0.3h0.9v-0.4h0.4v0.4h0.9v0.3h-0.9v0.3H68v0.3h-0.8v0.2c0,0.1,0,0.2,0.1,0.2h0.3c0.1,0,0.2,0,0.3,0c0,0.1,0,0.2,0,0.3
		c-0.1,0-0.2,0-0.3,0h-0.4c-0.3,0-0.4-0.1-0.4-0.5v-0.2H66.4z M70.2,149.5c0,0,0,0.1,0,0.2c-0.1,0.9-0.2,1.3-0.3,1.4
		c-0.1,0.1-0.2,0.1-0.4,0.2c-0.2,0-0.5,0-0.8,0c0-0.1-0.1-0.3-0.1-0.4c0.3,0,0.7,0,0.8,0s0.2,0,0.2,0c0.1-0.1,0.2-0.4,0.3-1H68
		c-0.3,0.7-0.9,1.2-2.4,1.4c0-0.1-0.1-0.3-0.2-0.4c1.3-0.2,1.9-0.5,2.2-1h-1.8v-0.4h2c0-0.1,0.1-0.2,0.1-0.4h0.4
		c0,0.1,0,0.2-0.1,0.4H70.2z M70.2,146.5c0,1.3,0,2.3,0.2,2.3c0.1,0,0.1-0.3,0.1-0.7c0.1,0.1,0.2,0.2,0.3,0.2c0,0.6-0.1,0.9-0.4,0.9
		c-0.6,0-0.6-0.9-0.6-2.3h-0.6c0,0.3-0.1,0.6-0.1,0.9c0.2,0.2,0.5,0.3,0.6,0.4l-0.2,0.3c-0.1-0.1-0.3-0.2-0.5-0.4
		c-0.2,0.4-0.4,0.7-0.8,1c0-0.1-0.2-0.2-0.3-0.3c0.4-0.2,0.6-0.5,0.7-0.9c-0.2-0.1-0.4-0.2-0.6-0.3l0.2-0.3c0.1,0.1,0.3,0.2,0.4,0.3
		c0-0.2,0.1-0.4,0.1-0.7h-0.6v-0.4h0.7c0-0.2,0-0.5,0-0.7h0.4c0,0.3,0,0.5,0,0.7H70.2z"/>
	<path fill="#A7A9AC" d="M74.3,146.5c-0.1,0.3-0.2,0.6-0.3,0.9h2.5v3.3c0,0.3-0.1,0.4-0.2,0.4c-0.2,0.1-0.5,0.1-0.9,0.1
		c0-0.1-0.1-0.3-0.2-0.4c0.3,0,0.6,0,0.7,0c0.1,0,0.1,0,0.1-0.1v-2.9h-1v3.2h-0.4v-3.2h-1v3.2h-0.4v-3.2h-0.9v3.4h-0.4v-3.8h1.8
		c0.1-0.3,0.2-0.6,0.2-0.9h-2.3v-0.4h5.3v0.4H74.3z"/>
	<path fill="#A7A9AC" d="M79.3,148.7c-0.2,0.1-0.4,0.2-0.6,0.2v1.8c0,0.2-0.1,0.4-0.2,0.4c-0.1,0.1-0.4,0.1-0.7,0.1
		c0-0.1-0.1-0.3-0.1-0.4c0.3,0,0.5,0,0.6,0c0.1,0,0.1,0,0.1-0.1v-1.6l-0.7,0.3l-0.1-0.4c0.2-0.1,0.5-0.2,0.8-0.3v-1.3h-0.7V147h0.7
		v-1.2h0.4v1.2h0.6v0.4h-0.6v1.1l0.5-0.2L79.3,148.7z M80.3,145.8h0.4v2.6c0,1.2-0.2,2.2-1.4,2.8c-0.1-0.1-0.2-0.3-0.3-0.3
		c0.9-0.5,1.2-1.1,1.3-1.8c-0.3,0.3-0.7,0.5-1,0.7l-0.2-0.4c0.3-0.2,0.8-0.5,1.2-0.8v-0.2V145.8z M79.9,148
		c-0.1-0.3-0.3-0.9-0.6-1.3l0.3-0.2c0.3,0.4,0.5,0.9,0.6,1.2L79.9,148z M82.4,150.8c0.1,0,0.2-0.2,0.2-0.9c0.1,0.1,0.3,0.2,0.4,0.2
		c0,0.8-0.1,1.1-0.6,1.1h-0.6c-0.4,0-0.6-0.1-0.6-0.7v-4.7h0.4v2.7l0.1-0.1c0.4,0.3,0.9,0.8,1.2,1.1l-0.3,0.3c-0.2-0.3-0.6-0.7-1-1
		v1.7c0,0.2,0,0.3,0.2,0.3H82.4z M82.9,146.7c-0.2,0.4-0.5,1-0.8,1.3l-0.3-0.2c0.2-0.3,0.5-0.9,0.7-1.3L82.9,146.7z"/>
	<path fill="#A7A9AC" d="M85.1,148.7c-0.1,0.5-0.3,1.1-0.5,1.5c0.1,0.1,0.3,0.2,0.5,0.3c0.4,0.3,1,0.3,1.7,0.3
		c0.8,0,1.7-0.1,2.4-0.1c-0.1,0.1-0.1,0.3-0.1,0.5c-0.4,0-1.6,0.1-2.3,0.1c-0.8,0-1.3-0.1-1.8-0.3c-0.2-0.1-0.5-0.3-0.6-0.3
		c-0.1,0-0.3,0.4-0.5,0.8l-0.3-0.4c0.2-0.2,0.3-0.4,0.5-0.6l0,0c0.3-0.3,0.4-0.9,0.6-1.3h-0.8c0.2-0.4,0.4-0.9,0.5-1.3h-0.7v-0.4
		h1.2c-0.1,0.4-0.3,0.9-0.5,1.3h0.3l0.1,0L85.1,148.7z M84.4,146.9c-0.1-0.3-0.3-0.7-0.4-1l0.4-0.1c0.1,0.3,0.3,0.7,0.4,1
		L84.4,146.9z M89.1,149.6h-3.9v-0.4h1v-0.6h-0.8v-0.3h0.8v-0.4h0.4v0.4h1v-0.4H88v0.4h0.8v0.3H88v0.6h1.1V149.6z M86.9,147.3
		c0,0.1-0.1,0.2-0.1,0.3c-1.2,0.2-1.3,0.2-1.5,0.3c0-0.1-0.1-0.3-0.2-0.4c0.1,0,0.2-0.1,0.2-0.3V146H87v1h-1.2v0.5L86.9,147.3z
		 M86.8,149.7c-0.3,0.3-0.8,0.6-1.2,0.8c-0.1-0.1-0.2-0.2-0.3-0.3c0.4-0.2,0.9-0.4,1.2-0.7L86.8,149.7z M85.7,146.3v0.4h0.9v-0.4
		H85.7z M86.6,149.2h1v-0.6h-1V149.2z M87.8,147.8c-0.4,0-0.5-0.1-0.5-0.6V146h1.6v1h-1.3v0.2c0,0.2,0,0.2,0.2,0.2h0.8
		c0.1,0,0.3,0,0.4,0c0,0.1,0,0.2,0,0.3c-0.1,0-0.2,0-0.4,0H87.8z M88.5,150.5c-0.3-0.2-0.7-0.5-1.2-0.7l0.3-0.2
		c0.5,0.2,1,0.5,1.3,0.7L88.5,150.5z M87.6,146.3v0.4h0.9v-0.4H87.6z"/>
	<path fill="#A7A9AC" d="M90.4,149.4c0.5-0.2,0.7-0.5,0.8-0.9c0,0-0.1,0-0.1,0c-0.2,0-0.4-0.1-0.4-0.4c0-0.3,0.2-0.4,0.5-0.4
		c0.3,0,0.5,0.3,0.5,0.7c0,0.6-0.4,1.1-1,1.4L90.4,149.4z"/>
	<path fill="#A7A9AC" d="M96.4,146.6c-0.1,0.2-0.3,0.4-0.4,0.7v3.9h-0.5v-3.3c-0.6,0.7-1.3,1.3-2.2,1.7c-0.1-0.1-0.2-0.3-0.3-0.4
		c1.2-0.6,2.2-1.6,2.8-2.6h-2.7v-0.4h5.1v0.4H96.4z M96.4,147.6c0.7,0.5,1.6,1.1,2,1.6l-0.4,0.3c-0.4-0.5-1.3-1.2-2-1.6L96.4,147.6z
		"/>
	<path fill="#A7A9AC" d="M104.5,146.3v0.4h-4.6v1.4v0c0.4-0.4,0.8-0.9,1.1-1.4l0.4,0.1c-0.1,0.2-0.2,0.4-0.4,0.6v2.1h-0.4v-1.6
		c-0.1,0.2-0.3,0.3-0.4,0.5c0-0.1-0.1-0.2-0.2-0.2c0,0.9-0.1,2.2-0.5,3.1c-0.1-0.1-0.2-0.2-0.3-0.3c0.4-0.9,0.5-2.1,0.5-3v-1.8h2.4
		c-0.1-0.1-0.2-0.3-0.3-0.4l0.4-0.1c0.1,0.2,0.3,0.4,0.4,0.6H104.5z M99.9,150.9c0.3-0.3,0.6-0.7,0.7-1.1l0.4,0.1
		c-0.1,0.4-0.4,0.9-0.7,1.2L99.9,150.9z M101.6,147.9c-0.1,0.1-0.2,0.3-0.3,0.4c-0.1-0.1-0.2-0.2-0.3-0.2c0.4-0.3,0.7-0.9,1-1.4
		l0.4,0.1c-0.1,0.2-0.1,0.3-0.2,0.4h0.9c-0.1-0.1-0.2-0.3-0.3-0.4l0.3-0.1c0.1,0.2,0.3,0.4,0.4,0.5l-0.1,0.1h1.1v0.3h-1v0.3h0.9v0.3
		h-0.9v0.3h0.9v0.3h-0.9v0.3h1.1v0.3H102v0.2h-0.4V147.9z M102.9,150.8c0.2,0,0.2-0.1,0.3-0.5c0.1,0.1,0.3,0.1,0.4,0.1
		c0,0.6-0.2,0.7-0.6,0.7h-1c-0.5,0-0.7-0.1-0.7-0.5v-0.8h0.4v0.8c0,0.1,0,0.2,0.3,0.2H102.9z M102.8,150.3c-0.2-0.2-0.6-0.4-1-0.6
		l0.3-0.2c0.4,0.2,0.8,0.4,1,0.6L102.8,150.3z M102.9,147.5H102v0.3h0.9V147.5z M102.9,148.1H102v0.3h0.9V148.1z M102.9,148.7H102
		v0.3h0.9V148.7z M103.7,149.8c0.3,0.3,0.7,0.8,0.9,1.1l-0.4,0.2c-0.1-0.3-0.5-0.8-0.8-1.2L103.7,149.8z"/>
	<path fill="#A7A9AC" d="M107,149.7c-0.1-0.2-0.3-0.5-0.5-0.8v2.4h-0.4v-2.3c-0.2,0.3-0.4,0.5-0.7,0.7c0-0.1-0.1-0.3-0.2-0.4
		c0.5-0.5,1.1-1.2,1.5-2h-1.4v-0.4h1.6l0.1,0l0.2,0.2c-0.2,0.5-0.4,0.9-0.7,1.3v0c0,0.1,0.1,0.1,0.2,0.2c0.2-0.2,0.4-0.4,0.5-0.6
		l0.3,0.2c-0.2,0.2-0.4,0.4-0.6,0.6c0.2,0.2,0.4,0.5,0.4,0.5L107,149.7z M106.3,146.8c-0.1-0.2-0.3-0.6-0.5-0.8l0.3-0.2
		c0.2,0.3,0.4,0.6,0.5,0.8L106.3,146.8z M110.4,148.2c-0.2,0.8-0.5,1.4-1,1.9c0.4,0.3,0.8,0.6,1.3,0.7c-0.1,0.1-0.2,0.3-0.3,0.4
		c-0.5-0.2-1-0.4-1.3-0.8c-0.4,0.4-0.9,0.6-1.3,0.8c0-0.1-0.2-0.3-0.2-0.4c0.5-0.2,0.9-0.4,1.3-0.8c-0.4-0.4-0.7-1-0.9-1.6h-0.1
		c0,0.9-0.2,2-0.8,2.7c-0.1-0.1-0.2-0.2-0.3-0.3c0.6-0.8,0.7-1.9,0.7-2.7v-1.6h1.3v-0.9h0.4v0.9h1.1l0.1,0l0.3,0.1
		c-0.1,0.4-0.3,0.9-0.4,1.2l-0.4-0.1c0.1-0.2,0.2-0.5,0.2-0.8h-0.9v1h0.9l0.1,0L110.4,148.2z M108,147.1v1h0.9v-1H108z M108.4,148.5
		c0.2,0.5,0.4,1,0.8,1.3c0.3-0.4,0.6-0.8,0.8-1.3H108.4z"/>
	<path fill="#A7A9AC" d="M113.4,149.4c-0.1-0.2-0.4-0.5-0.6-0.7v2.6h-0.4v-2.4c-0.3,0.3-0.6,0.5-0.8,0.7c0-0.1-0.1-0.3-0.2-0.4
		c0.7-0.4,1.4-1.1,1.7-1.9h-1.6v-0.4h1.8l0.1,0l0.2,0.2c-0.2,0.4-0.4,0.9-0.7,1.3c0.2,0.2,0.7,0.7,0.8,0.8L113.4,149.4z
		 M112.7,146.8c-0.1-0.2-0.3-0.6-0.5-0.8l0.3-0.2c0.2,0.2,0.5,0.5,0.6,0.7L112.7,146.8z M116.4,150.8c0.1,0,0.1-0.1,0.2-0.7
		c0.1,0.1,0.3,0.1,0.4,0.2c0,0.8-0.1,1-0.5,1h-0.5c-0.4,0-0.5-0.1-0.5-0.5v-1.4h-0.5c-0.1,1-0.4,1.6-1.4,2c0-0.1-0.2-0.3-0.2-0.3
		c1-0.3,1.2-0.8,1.3-1.7H114V146h2.6v3.2h-0.7v1.4c0,0.1,0,0.2,0.1,0.2H116.4z M114.4,147h1.8v-0.6h-1.8V147z M114.4,148h1.8v-0.6
		h-1.8V148z M114.4,148.9h1.8v-0.6h-1.8V148.9z"/>
	<path fill="#A7A9AC" d="M122.9,149.2c-0.1,1.2-0.2,1.7-0.4,1.9c-0.1,0.1-0.2,0.1-0.4,0.2c-0.1,0-0.4,0-0.7,0c0-0.1,0-0.3-0.1-0.4
		c0.3,0,0.6,0,0.7,0c0.1,0,0.2,0,0.2-0.1c0.1-0.1,0.2-0.5,0.3-1.4h-3.6c-0.3,0.3-0.7,0.5-1,0.7c-0.1-0.1-0.2-0.3-0.2-0.4
		c1.1-0.6,1.9-1.5,2.5-2.5h-2.1v-0.4h1.2c-0.1-0.2-0.3-0.6-0.5-0.9l0.4-0.2c0.2,0.3,0.4,0.6,0.5,0.9l-0.3,0.1h1.1
		c0.2-0.3,0.3-0.7,0.4-1l0.4,0.1c-0.1,0.3-0.2,0.6-0.4,0.9h1.2c-0.1,0.4-0.1,0.8-0.2,1.1h0.7c-0.1,0.3-0.1,0.8-0.2,1.1h0.6
		L122.9,149.2z M117.8,151c0.4-0.3,0.6-0.8,0.7-1.2l0.4,0.1c-0.1,0.5-0.3,1-0.7,1.3L117.8,151z M119.9,148.3
		c-0.2,0.2-0.4,0.5-0.6,0.7h2.6c0-0.2,0.1-0.5,0.1-0.7H119.9z M119.6,149.9c0.1,0.3,0.2,0.8,0.2,1.1l-0.4,0.1c0-0.3,0-0.7-0.1-1.1
		L119.6,149.9z M120.5,147.2c-0.1,0.2-0.3,0.5-0.4,0.7h1.2c0.1-0.2,0.1-0.4,0.1-0.7H120.5z M120.5,149.8c0.2,0.3,0.3,0.7,0.3,1
		l-0.4,0.1c0-0.3-0.2-0.7-0.3-1L120.5,149.8z M121.5,150.5c-0.1-0.2-0.3-0.6-0.4-0.8l0.3-0.1c0.2,0.2,0.4,0.6,0.5,0.8L121.5,150.5z"
		/>
	<path fill="#A7A9AC" d="M125.9,150.5c-0.5,0.3-1.2,0.6-1.9,0.7c-0.1-0.1-0.2-0.3-0.3-0.3c0.6-0.1,1.3-0.3,1.8-0.6L125.9,150.5z
		 M128.8,146.1v1.3h-4.6v-1.3H128.8z M128.4,147.7v2.6h-3.9v-2.6H128.4z M124.6,147h1v-0.6h-1V147z M125,148.5h3V148h-3V148.5z
		 M125,149.2h3v-0.4h-3V149.2z M125,150h3v-0.5h-3V150z M125.9,147h1v-0.6h-1V147z M127.3,150.4c0.7,0.2,1.4,0.5,1.9,0.7l-0.5,0.2
		c-0.4-0.2-1.1-0.5-1.7-0.7L127.3,150.4z M127.3,147h1v-0.6h-1V147z"/>
	<path fill="#A7A9AC" d="M132.1,150.7c-0.5,0.2-1.3,0.4-1.9,0.5c-0.1-0.1-0.2-0.2-0.3-0.3c0.6-0.1,1.4-0.2,1.8-0.4L132.1,150.7z
		 M132.4,146.4H130v-0.3h2.3v-0.3h0.4v0.3h2.3v0.3h-2.3v0.3h2v0.3h-4.3v-0.3h1.9V146.4z M134.9,148.2h-4.6v-1h4.6V148.2z
		 M130.7,150.5v-2h3.9v2H130.7z M131.7,147.5h-1v0.4h1V147.5z M131.1,149h3v-0.3h-3V149z M131.1,149.6h3v-0.3h-3V149.6z
		 M131.1,150.2h3v-0.3h-3V150.2z M133.1,147.5h-1v0.4h1V147.5z M133.5,150.6c0.7,0.1,1.4,0.3,1.8,0.5l-0.5,0.2
		c-0.4-0.1-1-0.3-1.7-0.5L133.5,150.6z M134.5,147.5h-1v0.4h1V147.5z"/>
	<path fill="#A7A9AC" d="M137.8,147.9c-0.1,0.9-0.3,1.5-0.5,2.1c0.6,0.6,1.4,0.7,2.4,0.7c0.2,0,1.5,0,1.8,0
		c-0.1,0.1-0.1,0.3-0.2,0.4h-1.7c-1.1,0-2-0.2-2.6-0.8c-0.2,0.4-0.5,0.7-0.7,0.9c-0.1-0.1-0.2-0.2-0.3-0.3c0.3-0.2,0.6-0.5,0.8-0.9
		c-0.2-0.3-0.4-0.7-0.5-1.2l0.3-0.1c0.1,0.4,0.2,0.6,0.4,0.9c0.2-0.4,0.3-0.9,0.4-1.4h-1c0.3-0.4,0.6-1.1,0.9-1.7h-1v-0.4h1.7
		c-0.3,0.5-0.6,1.2-0.8,1.7h0.4l0.1,0L137.8,147.9z M139.3,146.7h-1.2v-0.4h1.2v-0.5h0.4v0.5h1.3v0.8h0.4v0.4H141v0.8h-1.3v0.4h1.4
		v0.3h-1.4v0.5h1.6v0.4h-1.6v0.6h-0.4v-0.6h-1.5v-0.4h1.5v-0.5H138v-0.3h1.2v-0.4h-1.2v-0.4h1.2v-0.4h-1.5v-0.4h1.5V146.7z
		 M139.7,146.7v0.4h0.9v-0.4H139.7z M140.6,147.5h-0.9v0.4h0.9V147.5z"/>
	<path fill="#A7A9AC" d="M142.2,146.8h1.9v0.4h-1.9V146.8z M143.9,150.9h-1.2v0.3h-0.3v-2h1.5V150.9z M142.4,147.6h1.5v0.4h-1.5
		V147.6z M142.4,148.4h1.5v0.4h-1.5V148.4z M142.7,149.5v1h0.8v-1H142.7z M143,146.7c0-0.2-0.2-0.6-0.3-0.8l0.3-0.1
		c0.1,0.2,0.3,0.6,0.3,0.8L143,146.7z M147.3,149.8c-0.2,0.3-0.4,0.5-0.6,0.7c0.1,0.3,0.3,0.4,0.5,0.4c0.1,0,0.2-0.1,0.2-0.5
		c0.1,0.1,0.2,0.1,0.3,0.2c-0.1,0.5-0.2,0.7-0.5,0.7c-0.3,0-0.5-0.2-0.7-0.6c-0.2,0.2-0.5,0.3-0.8,0.4c0-0.1-0.1-0.2-0.2-0.2
		c0.3-0.1,0.6-0.3,0.8-0.5c-0.1-0.3-0.2-0.6-0.2-0.9h-0.8v0.4l0.6-0.1l0,0.3l-0.6,0.1v0.6c0,0.2,0,0.3-0.2,0.4
		c-0.1,0.1-0.4,0.1-0.7,0.1c0-0.1-0.1-0.2-0.1-0.3c0.3,0,0.5,0,0.6,0c0.1,0,0.1,0,0.1-0.1v-0.5l-0.8,0.1l-0.1-0.4
		c0.2,0,0.5-0.1,0.9-0.1v-0.5h-0.8v-0.3h0.8v-0.4c-0.2,0-0.4,0.1-0.6,0.1c0-0.1-0.1-0.2-0.1-0.3c0.5-0.1,1.1-0.2,1.5-0.3l0.3,0.3
		c-0.2,0.1-0.4,0.1-0.6,0.1v0.5h0.8c0-0.3,0-0.6-0.1-0.9h0.4c0,0.3,0,0.6,0,0.9h1.2v0.3h-1.1c0,0.3,0.1,0.5,0.1,0.7
		c0.2-0.2,0.3-0.3,0.4-0.5L147.3,149.8z M147.6,148.1h-3.5v-0.3h1.5v-0.4h-1.1v-0.3h1.1v-0.4h-1.3v-0.3h0.7
		c-0.1-0.1-0.2-0.3-0.3-0.5l0.3-0.1c0.1,0.2,0.3,0.4,0.4,0.6l0,0h0.9c0.1-0.2,0.3-0.4,0.3-0.6l0.4,0.1c-0.1,0.2-0.2,0.3-0.3,0.5h0.7
		v0.3H146v0.4h1.3v0.3H146v0.4h1.5V148.1z M146.9,148.3c0.2,0.2,0.5,0.4,0.7,0.6l-0.3,0.2c-0.1-0.2-0.4-0.4-0.6-0.6L146.9,148.3z"/>
	<path fill="#A7A9AC" d="M149.6,147.6c0.5,0,0.9,0.4,0.9,0.9s-0.4,0.9-0.9,0.9c-0.5,0-0.9-0.4-0.9-0.9S149.1,147.6,149.6,147.6z
		 M149.6,149.1c0.3,0,0.6-0.3,0.6-0.6s-0.3-0.6-0.6-0.6c-0.3,0-0.6,0.3-0.6,0.6S149.2,149.1,149.6,149.1z"/>
	<path fill="#A7A9AC" d="M151.6,150.5c0-0.2,0.2-0.4,0.4-0.4c0.2,0,0.4,0.2,0.4,0.4s-0.2,0.4-0.4,0.4
		C151.8,150.9,151.6,150.7,151.6,150.5z"/>
</g>
<g>
</g>
<g>
</g>
<g>
</g>
<g>
</g>
<g>
</g>
<g>
</g>
<g>
</g>
<g>
</g>
<g>
</g>
<g>
</g>
<g>
</g>
<g>
</g>
<g>
</g>
<g>
</g>
<g>
</g>
</svg>
