<?xml version="1.0" encoding="utf-8"?>
<!-- Generator: Adobe Illustrator 18.0.0, SVG Export Plug-In . SVG Version: 6.00 Build 0)  -->
<!DOCTYPE svg PUBLIC "-//W3C//DTD SVG 1.1//EN" "http://www.w3.org/Graphics/SVG/1.1/DTD/svg11.dtd">
<svg version="1.1" id="Layer_1" xmlns="http://www.w3.org/2000/svg" xmlns:xlink="http://www.w3.org/1999/xlink" x="0px" y="0px"
	 viewBox="0 0 863.8 337.7" enable-background="new 0 0 863.8 337.7" xml:space="preserve">
<g>
	<path fill="#7F58A5" d="M109,130.8H74.7c-8,0-14.6-6.5-14.6-14.6v-8.3H40.1c-0.3,0-0.5-0.2-0.5-0.5s0.2-0.5,0.5-0.5h20.6
		c0.3,0,0.5,0.2,0.5,0.5v8.8c0,7.5,6.1,13.6,13.6,13.6H109c0.3,0,0.5,0.2,0.5,0.5S109.2,130.8,109,130.8z"/>
	<path fill="#7F58A5" d="M343.8,130.8H214.2c-0.3,0-0.5-0.2-0.5-0.5s0.2-0.5,0.5-0.5h129.6c5,0,9-4,9-9c0-5.5,4.5-10,10-10h36.9
		c6,0,11-4.9,11-11s-4.9-11-11-11h-52.7c-5.5,0-10-4.5-10-10c0-5-4-9-9-9h-39.5c-0.3,0-0.5-0.2-0.5-0.5s0.2-0.5,0.5-0.5H328
		c5.5,0,10,4.5,10,10c0,5,4,9,9,9h52.7c6.6,0,12,5.4,12,12s-5.4,12-12,12h-36.9c-5,0-9,4-9,9C353.8,126.3,349.3,130.8,343.8,130.8z"
		/>
	<path fill="#7F58A5" d="M44.5,96.5H12.7c-0.3,0-0.5-0.2-0.5-0.5V13.1c0-0.3,0.2-0.5,0.5-0.5s0.5,0.2,0.5,0.5v82.4H44v-7.3
		C44,77.6,52.6,69,63.2,69h126.2c0.3,0,0.5,0.2,0.5,0.5s-0.2,0.5-0.5,0.5H63.2C53.2,70,45,78.1,45,88.2V96
		C45,96.3,44.8,96.5,44.5,96.5z"/>
	<path fill="#7F58A5" d="M794.5,99.4h-2.6c-0.3,0-0.5-0.2-0.5-0.5s0.2-0.5,0.5-0.5h2.6c0.3,0,0.5,0.2,0.5,0.5S794.7,99.4,794.5,99.4
		z M787.8,99.4h-4c-0.3,0-0.5-0.2-0.5-0.5s0.2-0.5,0.5-0.5h4c0.3,0,0.5,0.2,0.5,0.5S788.1,99.4,787.8,99.4z M779.8,99.4h-4
		c-0.3,0-0.5-0.2-0.5-0.5s0.2-0.5,0.5-0.5h4c0.3,0,0.5,0.2,0.5,0.5S780.1,99.4,779.8,99.4z M771.8,99.4h-4c-0.3,0-0.5-0.2-0.5-0.5
		s0.2-0.5,0.5-0.5h4c0.3,0,0.5,0.2,0.5,0.5S772.1,99.4,771.8,99.4z M763.8,99.4h-4c-0.3,0-0.5-0.2-0.5-0.5s0.2-0.5,0.5-0.5h4
		c0.3,0,0.5,0.2,0.5,0.5S764.1,99.4,763.8,99.4z M755.8,99.4h-4c-0.3,0-0.5-0.2-0.5-0.5s0.2-0.5,0.5-0.5h4c0.3,0,0.5,0.2,0.5,0.5
		S756.1,99.4,755.8,99.4z M747.8,99.4h-4c-0.3,0-0.5-0.2-0.5-0.5s0.2-0.5,0.5-0.5h4c0.3,0,0.5,0.2,0.5,0.5S748.1,99.4,747.8,99.4z
		 M739.8,99.4h-4c-0.3,0-0.5-0.2-0.5-0.5s0.2-0.5,0.5-0.5h4c0.3,0,0.5,0.2,0.5,0.5S740.1,99.4,739.8,99.4z M731.8,99.4h-4
		c-0.3,0-0.5-0.2-0.5-0.5s0.2-0.5,0.5-0.5h4c0.3,0,0.5,0.2,0.5,0.5S732.1,99.4,731.8,99.4z M723.8,99.4h-4c-0.3,0-0.5-0.2-0.5-0.5
		s0.2-0.5,0.5-0.5h4c0.3,0,0.5,0.2,0.5,0.5S724.1,99.4,723.8,99.4z M715.8,99.4h-4c-0.3,0-0.5-0.2-0.5-0.5s0.2-0.5,0.5-0.5h4
		c0.3,0,0.5,0.2,0.5,0.5S716.1,99.4,715.8,99.4z M707.8,99.4h-4c-0.3,0-0.5-0.2-0.5-0.5s0.2-0.5,0.5-0.5h4c0.3,0,0.5,0.2,0.5,0.5
		S708.1,99.4,707.8,99.4z M699.8,99.4h-4c-0.3,0-0.5-0.2-0.5-0.5s0.2-0.5,0.5-0.5h4c0.3,0,0.5,0.2,0.5,0.5S700.1,99.4,699.8,99.4z
		 M691.8,99.4h-4c-0.3,0-0.5-0.2-0.5-0.5s0.2-0.5,0.5-0.5h4c0.3,0,0.5,0.2,0.5,0.5S692.1,99.4,691.8,99.4z"/>
	<path fill="#7F58A5" d="M512.4,78.7H405.8c-0.3,0-0.5-0.2-0.5-0.5s0.2-0.5,0.5-0.5h106.6c0.3,0,0.5,0.2,0.5,0.5
		S512.7,78.7,512.4,78.7z"/>
	<path fill="#7F58A5" d="M626.9,112h-2.6c-0.3,0-0.5-0.2-0.5-0.5s0.2-0.5,0.5-0.5h2.6c0.3,0,0.5,0.2,0.5,0.5S627.1,112,626.9,112z
		 M620.2,112h-4c-0.3,0-0.5-0.2-0.5-0.5s0.2-0.5,0.5-0.5h4c0.3,0,0.5,0.2,0.5,0.5S620.5,112,620.2,112z M612.2,112h-4
		c-0.3,0-0.5-0.2-0.5-0.5s0.2-0.5,0.5-0.5h4c0.3,0,0.5,0.2,0.5,0.5S612.5,112,612.2,112z M604.2,112h-4c-0.3,0-0.5-0.2-0.5-0.5
		s0.2-0.5,0.5-0.5h4c0.3,0,0.5,0.2,0.5,0.5S604.5,112,604.2,112z M596.2,112h-4c-0.3,0-0.5-0.2-0.5-0.5s0.2-0.5,0.5-0.5h4
		c0.3,0,0.5,0.2,0.5,0.5S596.5,112,596.2,112z M588.2,112h-4c-0.3,0-0.5-0.2-0.5-0.5s0.2-0.5,0.5-0.5h4c0.3,0,0.5,0.2,0.5,0.5
		S588.5,112,588.2,112z M580.2,112h-4c-0.3,0-0.5-0.2-0.5-0.5s0.2-0.5,0.5-0.5h4c0.3,0,0.5,0.2,0.5,0.5S580.5,112,580.2,112z
		 M572.2,112h-4c-0.3,0-0.5-0.2-0.5-0.5s0.2-0.5,0.5-0.5h4c0.3,0,0.5,0.2,0.5,0.5S572.5,112,572.2,112z M564.2,112h-4
		c-0.3,0-0.5-0.2-0.5-0.5s0.2-0.5,0.5-0.5h4c0.3,0,0.5,0.2,0.5,0.5S564.5,112,564.2,112z M556.2,112h-4c-0.3,0-0.5-0.2-0.5-0.5
		s0.2-0.5,0.5-0.5h4c0.3,0,0.5,0.2,0.5,0.5S556.5,112,556.2,112z M548.2,112h-4c-0.3,0-0.5-0.2-0.5-0.5s0.2-0.5,0.5-0.5h4
		c0.3,0,0.5,0.2,0.5,0.5S548.5,112,548.2,112z M540.2,112h-4c-0.3,0-0.5-0.2-0.5-0.5s0.2-0.5,0.5-0.5h4c0.3,0,0.5,0.2,0.5,0.5
		S540.5,112,540.2,112z M532.2,112h-4c-0.3,0-0.5-0.2-0.5-0.5s0.2-0.5,0.5-0.5h4c0.3,0,0.5,0.2,0.5,0.5S532.5,112,532.2,112z
		 M524.2,112h-4c-0.3,0-0.5-0.2-0.5-0.5s0.2-0.5,0.5-0.5h4c0.3,0,0.5,0.2,0.5,0.5S524.5,112,524.2,112z"/>
	<path fill="#7F58A5" d="M93,249.8H34.3c-9.2,0-17.8-3.6-24.2-10c-6.5-6.5-10-15.1-10-24.2l0-215C0,0.2,0.3,0,0.5,0l0,0
		C0.8,0,1,0.2,1,0.5l0,215c0,8.9,3.5,17.3,9.7,23.5s14.6,9.8,23.5,9.8H93c0.3,0,0.5,0.2,0.5,0.5S93.3,249.8,93,249.8z"/>
	<g>
		<defs>
			<polygon id="SVGID_1_" points="83.4,252.7 83.4,319.3 357.8,275.6 357.8,117.6 83.4,117.6 			"/>
		</defs>
		<clipPath id="SVGID_2_">
			<use xlink:href="#SVGID_1_"  overflow="visible"/>
		</clipPath>
		<g clip-path="url(#SVGID_2_)">
			<g>
				<g>
					<polygon fill="#D1D3D4" points="181.1,272.8 181.1,188.1 219,175.6 219,175.4 249.6,193.4 249.6,272.8 					"/>
				</g>
				<g>
					<g>
						<rect x="185.8" y="191.5" fill="#939598" width="1.7" height="17.2"/>
						<rect x="190.5" y="190" fill="#939598" width="1.7" height="17.2"/>
						<rect x="195.1" y="188.6" fill="#939598" width="1.7" height="17.2"/>
						<rect x="199.7" y="187.1" fill="#939598" width="1.7" height="17.2"/>
						<rect x="204.3" y="185.6" fill="#939598" width="1.7" height="17.2"/>
						<rect x="208.9" y="184.1" fill="#939598" width="1.7" height="17.2"/>
						<rect x="213.5" y="182.6" fill="#939598" width="1.7" height="17.2"/>
					</g>
					<g>
						<rect x="185.8" y="212.9" fill="#939598" width="1.7" height="17.2"/>
						<rect x="190.5" y="211.4" fill="#939598" width="1.7" height="17.2"/>
						<rect x="195.1" y="209.9" fill="#939598" width="1.7" height="17.2"/>
						<rect x="199.7" y="208.5" fill="#939598" width="1.7" height="17.2"/>
						<rect x="204.3" y="207" fill="#939598" width="1.7" height="17.2"/>
						<rect x="208.9" y="205.5" fill="#939598" width="1.7" height="17.2"/>
						<rect x="213.5" y="204" fill="#939598" width="1.7" height="17.2"/>
					</g>
					<g>
						<rect x="185.8" y="234.3" fill="#939598" width="1.7" height="17.2"/>
						<rect x="190.5" y="232.8" fill="#939598" width="1.7" height="17.2"/>
						<rect x="195.1" y="231.3" fill="#939598" width="1.7" height="17.2"/>
						<rect x="199.7" y="229.8" fill="#939598" width="1.7" height="17.2"/>
						<rect x="204.3" y="228.4" fill="#939598" width="1.7" height="17.2"/>
						<rect x="208.9" y="226.9" fill="#939598" width="1.7" height="17.2"/>
						<rect x="213.5" y="225.4" fill="#939598" width="1.7" height="17.2"/>
					</g>
					<g>
						<rect x="185.8" y="255.6" fill="#939598" width="1.7" height="17.2"/>
						<rect x="190.5" y="254.2" fill="#939598" width="1.7" height="17.2"/>
						<rect x="195.1" y="252.7" fill="#939598" width="1.7" height="17.2"/>
						<rect x="199.7" y="251.2" fill="#939598" width="1.7" height="17.2"/>
						<rect x="204.3" y="249.7" fill="#939598" width="1.7" height="17.2"/>
						<rect x="208.9" y="248.3" fill="#939598" width="1.7" height="17.2"/>
						<rect x="213.5" y="246.8" fill="#939598" width="1.7" height="17.2"/>
					</g>
					<g>
						<rect x="185.8" y="277" fill="#939598" width="1.7" height="17.2"/>
						<rect x="190.5" y="275.5" fill="#939598" width="1.7" height="17.2"/>
						<rect x="195.1" y="274.1" fill="#939598" width="1.7" height="17.2"/>
						<rect x="199.7" y="272.6" fill="#939598" width="1.7" height="17.2"/>
						<rect x="204.3" y="271.1" fill="#939598" width="1.7" height="17.2"/>
						<rect x="208.9" y="269.6" fill="#939598" width="1.7" height="17.2"/>
						<rect x="213.5" y="268.2" fill="#939598" width="1.7" height="17.2"/>
					</g>
				</g>
				<g>
					<polygon fill="#E6E7E8" points="228.8,287.2 249.6,282.3 249.6,193.4 219,175.4 219,290.5 					"/>
				</g>
				<g>
					<rect x="222.6" y="183.9" fill="#939598" width="0.6" height="87.1"/>
					<rect x="226.5" y="185.9" fill="#939598" width="0.6" height="87.1"/>
					<rect x="230.4" y="187.9" fill="#939598" width="0.6" height="87.1"/>
					<rect x="234.3" y="189.9" fill="#939598" width="0.6" height="87.1"/>
					<rect x="238.2" y="191.9" fill="#939598" width="0.6" height="87.1"/>
					<rect x="242.1" y="193.9" fill="#939598" width="0.6" height="87.1"/>
					<rect x="246" y="195.9" fill="#939598" width="0.6" height="87.1"/>
				</g>
			</g>
			<g>
				<g>
					<polygon fill="#D1D3D4" points="225.2,252.2 225.2,167.5 263.2,155 263.2,154.8 293.8,172.8 293.8,252.2 					"/>
				</g>
				<g>
					<g>
						<rect x="230" y="170.9" fill="#939598" width="1.7" height="17.2"/>
						<rect x="234.6" y="169.4" fill="#939598" width="1.7" height="17.2"/>
						<rect x="239.2" y="168" fill="#939598" width="1.7" height="17.2"/>
						<rect x="243.8" y="166.5" fill="#939598" width="1.7" height="17.2"/>
						<rect x="248.5" y="165" fill="#939598" width="1.7" height="17.2"/>
						<rect x="253.1" y="163.5" fill="#939598" width="1.7" height="17.2"/>
						<rect x="257.7" y="162" fill="#939598" width="1.7" height="17.2"/>
					</g>
					<g>
						<rect x="230" y="192.3" fill="#939598" width="1.7" height="17.2"/>
						<rect x="234.6" y="190.8" fill="#939598" width="1.7" height="17.2"/>
						<rect x="239.2" y="189.3" fill="#939598" width="1.7" height="17.2"/>
						<rect x="243.8" y="187.9" fill="#939598" width="1.7" height="17.2"/>
						<rect x="248.5" y="186.4" fill="#939598" width="1.7" height="17.2"/>
						<rect x="253.1" y="184.9" fill="#939598" width="1.7" height="17.2"/>
						<rect x="257.7" y="183.4" fill="#939598" width="1.7" height="17.2"/>
					</g>
					<g>
						<rect x="230" y="213.7" fill="#939598" width="1.7" height="17.2"/>
						<rect x="234.6" y="212.2" fill="#939598" width="1.7" height="17.2"/>
						<rect x="239.2" y="210.7" fill="#939598" width="1.7" height="17.2"/>
						<rect x="243.8" y="209.2" fill="#939598" width="1.7" height="17.2"/>
						<rect x="248.5" y="207.8" fill="#939598" width="1.7" height="17.2"/>
						<rect x="253.1" y="206.3" fill="#939598" width="1.7" height="17.2"/>
						<rect x="257.7" y="204.8" fill="#939598" width="1.7" height="17.2"/>
					</g>
					<g>
						<rect x="230" y="235" fill="#939598" width="1.7" height="17.2"/>
						<rect x="234.6" y="233.6" fill="#939598" width="1.7" height="17.2"/>
						<rect x="239.2" y="232.1" fill="#939598" width="1.7" height="17.2"/>
						<rect x="243.8" y="230.6" fill="#939598" width="1.7" height="17.2"/>
						<rect x="248.5" y="229.1" fill="#939598" width="1.7" height="17.2"/>
						<rect x="253.1" y="227.7" fill="#939598" width="1.7" height="17.2"/>
						<rect x="257.7" y="226.2" fill="#939598" width="1.7" height="17.2"/>
					</g>
					<g>
						<rect x="230" y="256.4" fill="#939598" width="1.7" height="17.2"/>
						<rect x="234.6" y="254.9" fill="#939598" width="1.7" height="17.2"/>
						<rect x="239.2" y="253.5" fill="#939598" width="1.7" height="17.2"/>
						<rect x="243.8" y="252" fill="#939598" width="1.7" height="17.2"/>
						<rect x="248.5" y="250.5" fill="#939598" width="1.7" height="17.2"/>
						<rect x="253.1" y="249" fill="#939598" width="1.7" height="17.2"/>
						<rect x="257.7" y="247.6" fill="#939598" width="1.7" height="17.2"/>
					</g>
				</g>
				<g>
					<polygon fill="#E6E7E8" points="272.9,266.6 293.8,261.7 293.8,172.8 263.2,154.8 263.2,269.9 					"/>
				</g>
				<g>
					<rect x="266.7" y="163.3" fill="#939598" width="0.6" height="87.1"/>
					<rect x="270.6" y="165.3" fill="#939598" width="0.6" height="87.1"/>
					<rect x="274.5" y="167.3" fill="#939598" width="0.6" height="87.1"/>
					<rect x="278.4" y="169.3" fill="#939598" width="0.6" height="87.1"/>
					<rect x="282.4" y="171.3" fill="#939598" width="0.6" height="87.1"/>
					<rect x="286.3" y="173.3" fill="#939598" width="0.6" height="87.1"/>
					<rect x="290.2" y="175.3" fill="#939598" width="0.6" height="87.1"/>
				</g>
			</g>
			<g>
				<g>
					<polygon fill="#E6E7E8" points="100.2,323.4 100.2,257.9 133.5,223.4 133.5,323.4 					"/>
				</g>
				<g>
					<rect x="102.1" y="255.3" fill="#939598" width="1.1" height="69.4"/>
					<rect x="106.8" y="250.4" fill="#939598" width="1.1" height="75.4"/>
					<rect x="111.5" y="245.4" fill="#939598" width="1.1" height="81.3"/>
					<rect x="116.2" y="240.4" fill="#939598" width="1.1" height="87.2"/>
					<rect x="121" y="235.4" fill="#939598" width="1.1" height="93.1"/>
					<rect x="125.7" y="230.4" fill="#939598" width="1.1" height="99"/>
					<rect x="130.4" y="225.4" fill="#939598" width="1.1" height="105"/>
				</g>
			</g>
			<g>
				<g>
					<polygon fill="#D1D3D4" points="291.4,323.4 291.4,219.9 307.6,207.9 307.6,168.3 322.5,168.3 322.5,132.8 336.8,132.8 
						336.8,323.4 					"/>
				</g>
				<g>
					<rect x="293" y="221.1" fill="#939598" width="1.7" height="21.7"/>
					<rect x="297.4" y="218.1" fill="#939598" width="1.7" height="21.7"/>
					<rect x="301.8" y="215" fill="#939598" width="1.7" height="21.7"/>
					<rect x="306.1" y="211.9" fill="#939598" width="1.7" height="21.7"/>
				</g>
				<g>
					<rect x="309.4" y="171.8" fill="#939598" width="1.7" height="23"/>
					<rect x="313.3" y="171.8" fill="#939598" width="1.7" height="23"/>
					<rect x="317.1" y="171.8" fill="#939598" width="1.7" height="23"/>
					<rect x="320.9" y="171.8" fill="#939598" width="1.7" height="23"/>
				</g>
				<g>
					<rect x="325.1" y="135.9" fill="#939598" width="1.7" height="58.9"/>
					<rect x="329.3" y="135.9" fill="#939598" width="1.7" height="58.9"/>
					<rect x="333.6" y="135.9" fill="#939598" width="1.7" height="58.9"/>
				</g>
				<g>
					<rect x="325.1" y="198.2" fill="#939598" width="1.7" height="125.7"/>
					<rect x="329.3" y="198.2" fill="#939598" width="1.7" height="125.7"/>
					<rect x="333.6" y="198.2" fill="#939598" width="1.7" height="125.7"/>
				</g>
				<g>
					<rect x="309.4" y="197.8" fill="#939598" width="1.7" height="23"/>
					<rect x="313.3" y="197.8" fill="#939598" width="1.7" height="23"/>
					<rect x="317.1" y="197.8" fill="#939598" width="1.7" height="23"/>
					<rect x="320.9" y="197.8" fill="#939598" width="1.7" height="23"/>
				</g>
				<g>
					<rect x="309.4" y="223.8" fill="#939598" width="1.7" height="23"/>
					<rect x="313.3" y="223.8" fill="#939598" width="1.7" height="23"/>
					<rect x="317.1" y="223.8" fill="#939598" width="1.7" height="23"/>
					<rect x="320.9" y="223.8" fill="#939598" width="1.7" height="23"/>
				</g>
				<g>
					<rect x="309.4" y="249.8" fill="#939598" width="1.7" height="23"/>
					<rect x="313.3" y="249.8" fill="#939598" width="1.7" height="23"/>
					<rect x="317.1" y="249.8" fill="#939598" width="1.7" height="23"/>
					<rect x="320.9" y="249.8" fill="#939598" width="1.7" height="23"/>
				</g>
				<g>
					<rect x="309.4" y="275.7" fill="#939598" width="1.7" height="23"/>
					<rect x="313.3" y="275.7" fill="#939598" width="1.7" height="23"/>
					<rect x="317.1" y="275.7" fill="#939598" width="1.7" height="23"/>
					<rect x="320.9" y="275.7" fill="#939598" width="1.7" height="23"/>
				</g>
				<g>
					<rect x="309.4" y="301.7" fill="#939598" width="1.7" height="23"/>
					<rect x="313.3" y="301.7" fill="#939598" width="1.7" height="23"/>
					<rect x="317.1" y="301.7" fill="#939598" width="1.7" height="23"/>
					<rect x="320.9" y="301.7" fill="#939598" width="1.7" height="23"/>
				</g>
			</g>
			<g>
				<g>
					<polygon fill="#D1D3D4" points="121.3,323.4 121.3,266.9 146.6,258.5 146.6,207.3 167,219.3 167,323.4 					"/>
				</g>
				<g>
					<g>
						<rect x="124.5" y="269.1" fill="#939598" width="1.1" height="11.5"/>
						<rect x="127.6" y="268.2" fill="#939598" width="1.1" height="11.5"/>
						<rect x="130.6" y="267.2" fill="#939598" width="1.1" height="11.5"/>
						<rect x="133.7" y="266.2" fill="#939598" width="1.1" height="11.5"/>
						<rect x="136.8" y="265.2" fill="#939598" width="1.1" height="11.5"/>
						<rect x="139.9" y="264.2" fill="#939598" width="1.1" height="11.5"/>
						<rect x="143" y="263.2" fill="#939598" width="1.1" height="11.5"/>
					</g>
					<g>
						<rect x="124.5" y="283.4" fill="#939598" width="1.1" height="11.5"/>
						<rect x="127.6" y="282.4" fill="#939598" width="1.1" height="11.5"/>
						<rect x="130.6" y="281.4" fill="#939598" width="1.1" height="11.5"/>
						<rect x="133.7" y="280.5" fill="#939598" width="1.1" height="11.5"/>
						<rect x="136.8" y="279.5" fill="#939598" width="1.1" height="11.5"/>
						<rect x="139.9" y="278.5" fill="#939598" width="1.1" height="11.5"/>
						<rect x="143" y="277.5" fill="#939598" width="1.1" height="11.5"/>
					</g>
					<g>
						<rect x="124.5" y="297.7" fill="#939598" width="1.1" height="11.5"/>
						<rect x="127.6" y="296.7" fill="#939598" width="1.1" height="11.5"/>
						<rect x="130.6" y="295.7" fill="#939598" width="1.1" height="11.5"/>
						<rect x="133.7" y="294.7" fill="#939598" width="1.1" height="11.5"/>
						<rect x="136.8" y="293.7" fill="#939598" width="1.1" height="11.5"/>
						<rect x="139.9" y="292.7" fill="#939598" width="1.1" height="11.5"/>
						<rect x="143" y="291.8" fill="#939598" width="1.1" height="11.5"/>
					</g>
					<g>
						<rect x="124.5" y="311.9" fill="#939598" width="1.1" height="11.5"/>
						<rect x="127.6" y="310.9" fill="#939598" width="1.1" height="11.5"/>
						<rect x="130.6" y="310" fill="#939598" width="1.1" height="11.5"/>
						<rect x="133.7" y="309" fill="#939598" width="1.1" height="11.5"/>
						<rect x="136.8" y="308" fill="#939598" width="1.1" height="11.5"/>
						<rect x="139.9" y="307" fill="#939598" width="1.1" height="11.5"/>
						<rect x="143" y="306" fill="#939598" width="1.1" height="11.5"/>
					</g>
					<g>
						<rect x="124.5" y="326.2" fill="#939598" width="1.1" height="11.5"/>
						<rect x="127.6" y="325.2" fill="#939598" width="1.1" height="11.5"/>
						<rect x="130.6" y="324.2" fill="#939598" width="1.1" height="11.5"/>
						<rect x="133.7" y="323.2" fill="#939598" width="1.1" height="11.5"/>
						<rect x="136.8" y="322.2" fill="#939598" width="1.1" height="11.5"/>
						<rect x="139.9" y="321.3" fill="#939598" width="1.1" height="11.5"/>
						<rect x="143" y="320.3" fill="#939598" width="1.1" height="11.5"/>
					</g>
				</g>
				<g>
					<polygon fill="#E6E7E8" points="153.1,333 167,329.7 167,219.3 146.6,207.3 146.6,335.2 					"/>
				</g>
				<g>
					<rect x="148.9" y="213" fill="#939598" width="0.6" height="109.2"/>
					<rect x="151.5" y="214.3" fill="#939598" width="0.6" height="109.2"/>
					<rect x="154.1" y="215.6" fill="#939598" width="0.6" height="109.2"/>
					<rect x="156.7" y="217" fill="#939598" width="0.6" height="109.2"/>
					<rect x="159.3" y="218.3" fill="#939598" width="0.6" height="109.2"/>
					<rect x="161.9" y="219.6" fill="#939598" width="0.6" height="109.2"/>
					<rect x="164.5" y="221" fill="#939598" width="0.6" height="109.2"/>
				</g>
			</g>
			<g>
				<g>
					<polygon fill="#E6E7E8" points="162.4,252 201.1,229 312.5,229 312.5,323.4 162.4,323.4 					"/>
				</g>
				<g>
					<polygon fill="#D1D3D4" points="201.1,229 201.1,332.4 162.4,323.4 162.4,252 					"/>
				</g>
				<g>
					<g>
						<rect x="165.6" y="253.6" fill="#939598" width="1.7" height="7.3"/>
						<rect x="170.7" y="250.7" fill="#939598" width="1.7" height="7.3"/>
						<rect x="175.8" y="247.7" fill="#939598" width="1.7" height="7.3"/>
						<rect x="180.9" y="244.7" fill="#939598" width="1.7" height="7.3"/>
						<rect x="186" y="241.8" fill="#939598" width="1.7" height="7.3"/>
						<rect x="191.1" y="238.8" fill="#939598" width="1.7" height="7.3"/>
						<rect x="196.2" y="235.8" fill="#939598" width="1.7" height="7.3"/>
					</g>
					<g>
						<rect x="203.8" y="235.2" fill="#939598" width="1.7" height="7.3"/>
						<rect x="211.5" y="235.2" fill="#939598" width="1.7" height="7.3"/>
						<rect x="219.3" y="235.2" fill="#939598" width="1.7" height="7.3"/>
						<rect x="227.1" y="235.2" fill="#939598" width="1.7" height="7.3"/>
						<rect x="234.9" y="235.2" fill="#939598" width="1.7" height="7.3"/>
						<rect x="242.7" y="235.2" fill="#939598" width="1.7" height="7.3"/>
						<rect x="250.5" y="235.2" fill="#939598" width="1.7" height="7.3"/>
						<rect x="258.2" y="235.2" fill="#939598" width="1.7" height="7.3"/>
						<rect x="266" y="235.2" fill="#939598" width="1.7" height="7.3"/>
						<rect x="273.8" y="235.2" fill="#939598" width="1.7" height="7.3"/>
						<rect x="281.6" y="235.2" fill="#939598" width="1.7" height="7.3"/>
						<rect x="289.4" y="235.2" fill="#939598" width="1.7" height="7.3"/>
						<rect x="297.1" y="235.2" fill="#939598" width="1.7" height="7.3"/>
						<rect x="304.9" y="235.2" fill="#939598" width="1.7" height="7.3"/>
					</g>
					<g>
						<rect x="203.8" y="250.5" fill="#939598" width="1.7" height="7.3"/>
						<rect x="211.5" y="250.5" fill="#939598" width="1.7" height="7.3"/>
						<rect x="219.3" y="250.5" fill="#939598" width="1.7" height="7.3"/>
						<rect x="227.1" y="250.5" fill="#939598" width="1.7" height="7.3"/>
						<rect x="234.9" y="250.5" fill="#939598" width="1.7" height="7.3"/>
						<rect x="242.7" y="250.5" fill="#939598" width="1.7" height="7.3"/>
						<rect x="250.5" y="250.5" fill="#939598" width="1.7" height="7.3"/>
						<rect x="258.2" y="250.5" fill="#939598" width="1.7" height="7.3"/>
						<rect x="266" y="250.5" fill="#939598" width="1.7" height="7.3"/>
						<rect x="273.8" y="250.5" fill="#939598" width="1.7" height="7.3"/>
						<rect x="281.6" y="250.5" fill="#939598" width="1.7" height="7.3"/>
						<rect x="289.4" y="250.5" fill="#939598" width="1.7" height="7.3"/>
						<rect x="297.1" y="250.5" fill="#939598" width="1.7" height="7.3"/>
						<rect x="304.9" y="250.5" fill="#939598" width="1.7" height="7.3"/>
					</g>
					<g>
						<rect x="203.8" y="265.9" fill="#939598" width="1.7" height="7.3"/>
						<rect x="211.5" y="265.9" fill="#939598" width="1.7" height="7.3"/>
						<rect x="219.3" y="265.9" fill="#939598" width="1.7" height="7.3"/>
						<rect x="227.1" y="265.9" fill="#939598" width="1.7" height="7.3"/>
						<rect x="234.9" y="265.9" fill="#939598" width="1.7" height="7.3"/>
						<rect x="242.7" y="265.9" fill="#939598" width="1.7" height="7.3"/>
						<rect x="250.5" y="265.9" fill="#939598" width="1.7" height="7.3"/>
						<rect x="258.2" y="265.9" fill="#939598" width="1.7" height="7.3"/>
						<rect x="266" y="265.9" fill="#939598" width="1.7" height="7.3"/>
						<rect x="273.8" y="265.9" fill="#939598" width="1.7" height="7.3"/>
						<rect x="281.6" y="265.9" fill="#939598" width="1.7" height="7.3"/>
						<rect x="289.4" y="265.9" fill="#939598" width="1.7" height="7.3"/>
						<rect x="297.1" y="265.9" fill="#939598" width="1.7" height="7.3"/>
						<rect x="304.9" y="265.9" fill="#939598" width="1.7" height="7.3"/>
					</g>
					<g>
						<rect x="203.8" y="281.2" fill="#939598" width="1.7" height="7.3"/>
						<rect x="211.5" y="281.2" fill="#939598" width="1.7" height="7.3"/>
						<rect x="219.3" y="281.2" fill="#939598" width="1.7" height="7.3"/>
						<rect x="227.1" y="281.2" fill="#939598" width="1.7" height="7.3"/>
						<rect x="234.9" y="281.2" fill="#939598" width="1.7" height="7.3"/>
						<rect x="242.7" y="281.2" fill="#939598" width="1.7" height="7.3"/>
						<rect x="250.5" y="281.2" fill="#939598" width="1.7" height="7.3"/>
						<rect x="258.2" y="281.2" fill="#939598" width="1.7" height="7.3"/>
						<rect x="266" y="281.2" fill="#939598" width="1.7" height="7.3"/>
						<rect x="273.8" y="281.2" fill="#939598" width="1.7" height="7.3"/>
						<rect x="281.6" y="281.2" fill="#939598" width="1.7" height="7.3"/>
						<rect x="289.4" y="281.2" fill="#939598" width="1.7" height="7.3"/>
						<rect x="297.1" y="281.2" fill="#939598" width="1.7" height="7.3"/>
						<rect x="304.9" y="281.2" fill="#939598" width="1.7" height="7.3"/>
					</g>
					<g>
						<rect x="203.8" y="296.6" fill="#939598" width="1.7" height="7.3"/>
						<rect x="211.5" y="296.6" fill="#939598" width="1.7" height="7.3"/>
						<rect x="219.3" y="296.6" fill="#939598" width="1.7" height="7.3"/>
						<rect x="227.1" y="296.6" fill="#939598" width="1.7" height="7.3"/>
						<rect x="234.9" y="296.6" fill="#939598" width="1.7" height="7.3"/>
						<rect x="242.7" y="296.6" fill="#939598" width="1.7" height="7.3"/>
						<rect x="250.5" y="296.6" fill="#939598" width="1.7" height="7.3"/>
						<rect x="258.2" y="296.6" fill="#939598" width="1.7" height="7.3"/>
						<rect x="266" y="296.6" fill="#939598" width="1.7" height="7.3"/>
						<rect x="273.8" y="296.6" fill="#939598" width="1.7" height="7.3"/>
						<rect x="281.6" y="296.6" fill="#939598" width="1.7" height="7.3"/>
						<rect x="289.4" y="296.6" fill="#939598" width="1.7" height="7.3"/>
						<rect x="297.1" y="296.6" fill="#939598" width="1.7" height="7.3"/>
						<rect x="304.9" y="296.6" fill="#939598" width="1.7" height="7.3"/>
					</g>
					<g>
						<rect x="203.8" y="312" fill="#939598" width="1.7" height="7.3"/>
						<rect x="211.5" y="312" fill="#939598" width="1.7" height="7.3"/>
						<rect x="219.3" y="312" fill="#939598" width="1.7" height="7.3"/>
						<rect x="227.1" y="312" fill="#939598" width="1.7" height="7.3"/>
						<rect x="234.9" y="312" fill="#939598" width="1.7" height="7.3"/>
						<rect x="242.7" y="312" fill="#939598" width="1.7" height="7.3"/>
						<rect x="250.5" y="312" fill="#939598" width="1.7" height="7.3"/>
						<rect x="258.2" y="312" fill="#939598" width="1.7" height="7.3"/>
						<rect x="266" y="312" fill="#939598" width="1.7" height="7.3"/>
						<rect x="273.8" y="312" fill="#939598" width="1.7" height="7.3"/>
						<rect x="281.6" y="312" fill="#939598" width="1.7" height="7.3"/>
						<rect x="289.4" y="312" fill="#939598" width="1.7" height="7.3"/>
						<rect x="297.1" y="312" fill="#939598" width="1.7" height="7.3"/>
						<rect x="304.9" y="312" fill="#939598" width="1.7" height="7.3"/>
					</g>
					<g>
						<rect x="165.6" y="268.9" fill="#939598" width="1.7" height="7.3"/>
						<rect x="170.7" y="265.9" fill="#939598" width="1.7" height="7.3"/>
						<rect x="175.8" y="262.9" fill="#939598" width="1.7" height="7.3"/>
						<rect x="180.9" y="260" fill="#939598" width="1.7" height="7.3"/>
						<rect x="186" y="257" fill="#939598" width="1.7" height="7.3"/>
						<rect x="191.1" y="254" fill="#939598" width="1.7" height="7.3"/>
						<rect x="196.2" y="251.1" fill="#939598" width="1.7" height="7.3"/>
					</g>
					<g>
						<rect x="165.6" y="284.1" fill="#939598" width="1.7" height="7.3"/>
						<rect x="170.7" y="281.1" fill="#939598" width="1.7" height="7.3"/>
						<rect x="175.8" y="278.2" fill="#939598" width="1.7" height="7.3"/>
						<rect x="180.9" y="275.2" fill="#939598" width="1.7" height="7.3"/>
						<rect x="186" y="272.2" fill="#939598" width="1.7" height="7.3"/>
						<rect x="191.1" y="269.3" fill="#939598" width="1.7" height="7.3"/>
						<rect x="196.2" y="266.3" fill="#939598" width="1.7" height="7.3"/>
					</g>
					<g>
						<rect x="165.6" y="299.3" fill="#939598" width="1.7" height="7.3"/>
						<rect x="170.7" y="296.4" fill="#939598" width="1.7" height="7.3"/>
						<rect x="175.8" y="293.4" fill="#939598" width="1.7" height="7.3"/>
						<rect x="180.9" y="290.4" fill="#939598" width="1.7" height="7.3"/>
						<rect x="186" y="287.5" fill="#939598" width="1.7" height="7.3"/>
						<rect x="191.1" y="284.5" fill="#939598" width="1.7" height="7.3"/>
						<rect x="196.2" y="281.5" fill="#939598" width="1.7" height="7.3"/>
					</g>
					<g>
						<rect x="165.6" y="314.6" fill="#939598" width="1.7" height="7.3"/>
						<rect x="170.7" y="311.6" fill="#939598" width="1.7" height="7.3"/>
						<rect x="175.8" y="308.6" fill="#939598" width="1.7" height="7.3"/>
						<rect x="180.9" y="305.7" fill="#939598" width="1.7" height="7.3"/>
						<rect x="186" y="302.7" fill="#939598" width="1.7" height="7.3"/>
						<rect x="191.1" y="299.7" fill="#939598" width="1.7" height="7.3"/>
						<rect x="196.2" y="296.8" fill="#939598" width="1.7" height="7.3"/>
					</g>
					<g>
						<rect x="165.6" y="329.8" fill="#939598" width="1.7" height="7.3"/>
						<rect x="170.7" y="326.8" fill="#939598" width="1.7" height="7.3"/>
						<rect x="175.8" y="323.9" fill="#939598" width="1.7" height="7.3"/>
						<rect x="180.9" y="320.9" fill="#939598" width="1.7" height="7.3"/>
						<rect x="186" y="317.9" fill="#939598" width="1.7" height="7.3"/>
						<rect x="191.1" y="315" fill="#939598" width="1.7" height="7.3"/>
						<rect x="196.2" y="312" fill="#939598" width="1.7" height="7.3"/>
					</g>
				</g>
			</g>
		</g>
	</g>
	<path fill="#7F58A5" d="M108,315.6c-0.2,0-0.5-0.2-0.5-0.4c0-0.3,0.1-0.5,0.4-0.6L353.2,276c6.2-1,10.6-6.2,10.6-12.4
		c0-0.3,0.2-0.5,0.5-0.5s0.5,0.2,0.5,0.5c0,6.7-4.8,12.4-11.5,13.4L108,315.6C108,315.6,108,315.6,108,315.6z"/>
	<path fill="#7F58A5" d="M177,317.5c-0.2,0-0.5-0.2-0.5-0.4c0-0.3,0.1-0.5,0.4-0.6l97.4-16c0.3,0,0.5,0.1,0.6,0.4
		c0,0.3-0.1,0.5-0.4,0.6L177,317.5C177.1,317.5,177,317.5,177,317.5z"/>
	<path fill="#7F58A5" d="M270.7,314.2c-0.2,0-0.5-0.2-0.5-0.4c0-0.3,0.1-0.5,0.4-0.6l54.6-8.7c0.3,0,0.5,0.1,0.6,0.4
		c0,0.3-0.1,0.5-0.4,0.6L270.7,314.2C270.8,314.2,270.7,314.2,270.7,314.2z"/>
	<path fill="#7F58A5" d="M315.8,319c-0.2,0-0.5-0.2-0.5-0.4c0-0.3,0.1-0.5,0.4-0.6l54.6-8.7c0.3,0,0.5,0.1,0.6,0.4
		c0,0.3-0.1,0.5-0.4,0.6L315.8,319C315.8,319,315.8,319,315.8,319z"/>
	<g>
		<path fill="#7F58A5" d="M316.6,292.8c-0.2,0-0.5-0.2-0.5-0.4c0-0.3,0.1-0.5,0.4-0.6l88.2-14c0.3,0,0.5,0.1,0.6,0.4
			c0,0.3-0.1,0.5-0.4,0.6L316.6,292.8C316.7,292.8,316.6,292.8,316.6,292.8z"/>
		<path fill="#7F58A5" d="M398.1,284.8c-0.1,0-0.3-0.1-0.4-0.2c-0.2-0.2-0.1-0.5,0.1-0.7l6.7-5.6l-8.5-2c-0.3-0.1-0.4-0.3-0.4-0.6
			c0.1-0.3,0.3-0.4,0.6-0.4l9.5,2.2c0.2,0,0.3,0.2,0.4,0.4c0,0.2,0,0.4-0.2,0.5l-7.4,6.2C398.4,284.8,398.3,284.8,398.1,284.8z"/>
	</g>
	<g>
		<path fill="#7F58A5" d="M860,143.6c-1.9-1.8-3.5-2.8-5.9-2.8c-2.7,0-4.3,1.3-4.3,3.8c0,5.7,14,5,13.9,15.3c0,5-2.9,8.8-8.2,9.7
			l0,5.4l-4.6,0l0-5.2c-3.1-0.4-6.7-1.9-9.1-4.1l3-4.5c2.5,2,5,3.2,7.6,3.2c3.2,0,4.7-1.4,4.7-4c0-6.2-14-5.8-13.9-15.4
			c0-5,3.1-8.5,7.9-9.4l0-5.4l4.6,0l0,5.3c3.3,0.5,5.7,2.2,7.6,4.3L860,143.6z"/>
	</g>
	<g>
		<path fill="#7F58A5" d="M828.7,111.9c-1.9-1.8-3.5-2.8-5.9-2.8c-2.7,0-4.3,1.3-4.3,3.8c0,5.7,14,5,13.9,15.3c0,5-2.9,8.8-8.2,9.7
			l0,5.4l-4.6,0l0-5.2c-3.1-0.4-6.7-1.9-9.1-4.1l3-4.5c2.5,2,5,3.2,7.6,3.2c3.2,0,4.7-1.4,4.7-4c0-6.2-14-5.8-13.9-15.4
			c0-5,3.1-8.5,7.9-9.4l0-5.4l4.6,0l0,5.3c3.3,0.5,5.7,2.2,7.6,4.3L828.7,111.9z"/>
	</g>
	<g>
		<path fill="#7F58A5" d="M800.8,230c20.7-0.7,33.8-17,33.8-32.6h-15.9c0,0-7.8,32.6-19.3,32.6"/>
		<polygon fill="#7F58A5" points="806.5,203.5 828.2,171.5 843.8,206 825,198.8 		"/>
	</g>
	<path fill="#7F58A5" d="M93,249.8c-0.3,0-0.5-0.2-0.5-0.5v-60.9c0-0.3,0.2-0.5,0.5-0.5h49.5c0.3,0,0.5,0.2,0.5,0.5
		s-0.2,0.5-0.5,0.5h-49v60.4C93.5,249.6,93.3,249.8,93,249.8z"/>
	<path fill="#7F58A5" d="M795.8,185.8c-0.3,0-0.5-0.2-0.5-0.5V182c0-0.3,0.2-0.5,0.5-0.5s0.5,0.2,0.5,0.5v3.3
		C796.3,185.6,796,185.8,795.8,185.8z M795.8,178.5c-0.3,0-0.5-0.2-0.5-0.5v-4c0-0.3,0.2-0.5,0.5-0.5s0.5,0.2,0.5,0.5v4
		C796.3,178.3,796,178.5,795.8,178.5z M795.8,170.5c-0.3,0-0.5-0.2-0.5-0.5v-3.3c0-0.2,0-0.4,0-0.7c0-0.3,0.2-0.5,0.5-0.5
		c0.3,0,0.5,0.2,0.5,0.5c0,0.2,0,0.5,0,0.7v3.3C796.3,170.3,796,170.5,795.8,170.5z M795,162.6c-0.2,0-0.4-0.1-0.5-0.3
		c-0.4-1.2-1-2.4-1.7-3.4c-0.2-0.2-0.1-0.5,0.1-0.7c0.2-0.2,0.5-0.1,0.7,0.1c0.8,1.1,1.4,2.4,1.8,3.7c0.1,0.3-0.1,0.5-0.3,0.6
		C795.1,162.6,795.1,162.6,795,162.6z M790.6,156.1c-0.1,0-0.2,0-0.3-0.1c-1-0.8-2.1-1.5-3.3-2c-0.3-0.1-0.4-0.4-0.3-0.7
		c0.1-0.3,0.4-0.4,0.7-0.3c1.3,0.6,2.4,1.3,3.5,2.2c0.2,0.2,0.2,0.5,0.1,0.7C790.9,156,790.7,156.1,790.6,156.1z M783.4,152.8
		C783.4,152.8,783.3,152.8,783.4,152.8c-0.8-0.1-1.4-0.2-2.1-0.2h-1.9c-0.3,0-0.5-0.2-0.5-0.5s0.2-0.5,0.5-0.5h1.9
		c0.7,0,1.5,0.1,2.2,0.2c0.3,0,0.5,0.3,0.4,0.6C783.8,152.6,783.6,152.8,783.4,152.8z M765.2,152.7c-0.7,0-1.3-0.1-2-0.3
		c-0.3-0.1-0.4-0.4-0.3-0.6c0.1-0.3,0.4-0.4,0.6-0.3c0.5,0.2,1.1,0.2,1.7,0.2c0,0,0,0,0,0h2.2c0.3,0,0.5,0.2,0.5,0.5
		s-0.2,0.5-0.5,0.5H765.2C765.2,152.7,765.2,152.7,765.2,152.7z M775.4,152.7h-4c-0.3,0-0.5-0.2-0.5-0.5s0.2-0.5,0.5-0.5h4
		c0.3,0,0.5,0.2,0.5,0.5S775.7,152.7,775.4,152.7z M760.1,150.3c-0.1,0-0.3-0.1-0.4-0.2c-0.9-1.1-1.5-2.5-1.7-3.9
		c0-0.3,0.2-0.5,0.4-0.5c0.3,0,0.5,0.2,0.5,0.4c0.1,1.2,0.6,2.4,1.4,3.4c0.2,0.2,0.2,0.5-0.1,0.7
		C760.3,150.2,760.2,150.3,760.1,150.3z M757.7,142.8c-0.2,0-0.4-0.1-0.4-0.3c-0.6-1.1-1.5-2-2.6-2.6c-0.2-0.1-0.3-0.4-0.2-0.7
		c0.1-0.2,0.4-0.3,0.7-0.2c1.3,0.7,2.3,1.7,3,3c0.1,0.2,0,0.5-0.2,0.7C757.9,142.8,757.8,142.8,757.7,142.8z M751.1,139.2h-4
		c-0.3,0-0.5-0.2-0.5-0.5s0.2-0.5,0.5-0.5h4c0.3,0,0.5,0.2,0.5,0.5S751.3,139.2,751.1,139.2z M743.1,139.2h-4
		c-0.3,0-0.5-0.2-0.5-0.5s0.2-0.5,0.5-0.5h4c0.3,0,0.5,0.2,0.5,0.5S743.3,139.2,743.1,139.2z M735.1,139.2h-4
		c-0.3,0-0.5-0.2-0.5-0.5s0.2-0.5,0.5-0.5h4c0.3,0,0.5,0.2,0.5,0.5S735.3,139.2,735.1,139.2z M727.1,139.2h-4
		c-0.3,0-0.5-0.2-0.5-0.5s0.2-0.5,0.5-0.5h4c0.3,0,0.5,0.2,0.5,0.5S727.3,139.2,727.1,139.2z M719.1,139.2h-4
		c-0.3,0-0.5-0.2-0.5-0.5s0.2-0.5,0.5-0.5h4c0.3,0,0.5,0.2,0.5,0.5S719.3,139.2,719.1,139.2z M711.1,139.2h-4
		c-0.3,0-0.5-0.2-0.5-0.5s0.2-0.5,0.5-0.5h4c0.3,0,0.5,0.2,0.5,0.5S711.3,139.2,711.1,139.2z M703.1,139.2h-4
		c-0.3,0-0.5-0.2-0.5-0.5s0.2-0.5,0.5-0.5h4c0.3,0,0.5,0.2,0.5,0.5S703.3,139.2,703.1,139.2z M695.1,139.2h-4
		c-0.3,0-0.5-0.2-0.5-0.5s0.2-0.5,0.5-0.5h4c0.3,0,0.5,0.2,0.5,0.5S695.3,139.2,695.1,139.2z M687.1,139.2h-4
		c-0.3,0-0.5-0.2-0.5-0.5s0.2-0.5,0.5-0.5h4c0.3,0,0.5,0.2,0.5,0.5S687.3,139.2,687.1,139.2z M679.1,139.2h-4
		c-0.3,0-0.5-0.2-0.5-0.5s0.2-0.5,0.5-0.5h4c0.3,0,0.5,0.2,0.5,0.5S679.3,139.2,679.1,139.2z M671.1,139.2h-4
		c-0.3,0-0.5-0.2-0.5-0.5s0.2-0.5,0.5-0.5h4c0.3,0,0.5,0.2,0.5,0.5S671.3,139.2,671.1,139.2z M663.1,139.2h-4
		c-0.3,0-0.5-0.2-0.5-0.5s0.2-0.5,0.5-0.5h4c0.3,0,0.5,0.2,0.5,0.5S663.3,139.2,663.1,139.2z M655.1,139.2h-4
		c-0.3,0-0.5-0.2-0.5-0.5s0.2-0.5,0.5-0.5h4c0.3,0,0.5,0.2,0.5,0.5S655.3,139.2,655.1,139.2z M647.1,139.2h-4
		c-0.3,0-0.5-0.2-0.5-0.5s0.2-0.5,0.5-0.5h4c0.3,0,0.5,0.2,0.5,0.5S647.3,139.2,647.1,139.2z M639.1,139.2h-4
		c-0.3,0-0.5-0.2-0.5-0.5s0.2-0.5,0.5-0.5h4c0.3,0,0.5,0.2,0.5,0.5S639.3,139.2,639.1,139.2z M631.1,139.2h-4
		c-0.3,0-0.5-0.2-0.5-0.5s0.2-0.5,0.5-0.5h4c0.3,0,0.5,0.2,0.5,0.5S631.3,139.2,631.1,139.2z M623.1,139.2h-4
		c-0.3,0-0.5-0.2-0.5-0.5s0.2-0.5,0.5-0.5h4c0.3,0,0.5,0.2,0.5,0.5S623.3,139.2,623.1,139.2z M615.1,139.2h-4
		c-0.3,0-0.5-0.2-0.5-0.5s0.2-0.5,0.5-0.5h4c0.3,0,0.5,0.2,0.5,0.5S615.3,139.2,615.1,139.2z M607.1,139.2h-4
		c-0.3,0-0.5-0.2-0.5-0.5s0.2-0.5,0.5-0.5h4c0.3,0,0.5,0.2,0.5,0.5S607.3,139.2,607.1,139.2z M599.1,139.2h-4
		c-0.3,0-0.5-0.2-0.5-0.5s0.2-0.5,0.5-0.5h4c0.3,0,0.5,0.2,0.5,0.5S599.3,139.2,599.1,139.2z M591.1,139.2h-4
		c-0.3,0-0.5-0.2-0.5-0.5s0.2-0.5,0.5-0.5h4c0.3,0,0.5,0.2,0.5,0.5S591.3,139.2,591.1,139.2z M583.1,139.2h-4
		c-0.3,0-0.5-0.2-0.5-0.5s0.2-0.5,0.5-0.5h4c0.3,0,0.5,0.2,0.5,0.5S583.3,139.2,583.1,139.2z M575.1,139.2h-4
		c-0.3,0-0.5-0.2-0.5-0.5s0.2-0.5,0.5-0.5h4c0.3,0,0.5,0.2,0.5,0.5S575.3,139.2,575.1,139.2z M567.1,139.2h-4
		c-0.3,0-0.5-0.2-0.5-0.5s0.2-0.5,0.5-0.5h4c0.3,0,0.5,0.2,0.5,0.5S567.3,139.2,567.1,139.2z"/>
	<path fill="#7F58A5" d="M403.6,157.5h-9.2c-0.3,0-0.5-0.2-0.5-0.5s0.2-0.5,0.5-0.5h8.7v-7.4c0-6,4.9-10.9,10.9-10.9h80.7
		c0.3,0,0.5,0.2,0.5,0.5s-0.2,0.5-0.5,0.5h-80.7c-5.5,0-9.9,4.5-9.9,9.9v7.9C404.1,157.3,403.9,157.5,403.6,157.5z"/>
	<path fill="#7F58A5" d="M755.9,237.8h9.2c0.3,0,0.5,0.2,0.5,0.5s-0.2,0.5-0.5,0.5h-8.7v7.4c0,6-4.9,10.9-10.9,10.9h-80.7
		c-0.3,0-0.5-0.2-0.5-0.5s0.2-0.5,0.5-0.5h80.7c5.5,0,9.9-4.5,9.9-9.9v-7.9C755.4,238,755.6,237.8,755.9,237.8z"/>
	<path fill="#7F58A5" d="M364.4,255.3c-0.3,0-0.5-0.2-0.5-0.5v-57.2c0-0.2,0.1-0.3,0.2-0.4l23.6-17.2h-22.5c-0.3,0-0.5-0.2-0.5-0.5
		c0-5.9-4.8-10.8-10.8-10.8h-1.5c-0.3,0-0.5-0.2-0.5-0.5s0.2-0.5,0.5-0.5h1.5c6.3,0,11.5,5,11.8,11.3h23.6c0.2,0,0.4,0.1,0.5,0.3
		s0,0.4-0.2,0.6l-24.7,17.9v56.9C364.9,255.1,364.7,255.3,364.4,255.3z"/>
	<g>
		<g>
			<path fill="#7F58A5" d="M513.5,327.7h-95c-0.2,0-0.3-0.1-0.4-0.2s-0.1-0.3-0.1-0.4l14.8-55.4c0.1-0.2,0.3-0.4,0.5-0.4h68.4
				c0.2,0,0.4,0.2,0.5,0.4L514,327c0,0.1,0,0.3-0.1,0.4C513.8,327.6,513.6,327.7,513.5,327.7z M419.2,326.7h93.7l-11.6-54.4h-67.6
				L419.2,326.7z"/>
			<path fill="#7F58A5" d="M484.4,287.9c-0.3,0-0.5-0.2-0.5-0.5V266c0-9.5-7.8-17.3-17.3-17.3s-17.3,7.8-17.3,17.3v21.4
				c0,0.3-0.2,0.5-0.5,0.5s-0.5-0.2-0.5-0.5V266c0-10.1,8.2-18.3,18.3-18.3s18.3,8.2,18.3,18.3v21.4
				C484.9,287.7,484.7,287.9,484.4,287.9z"/>
			<path fill="#7F58A5" d="M448.8,290.7c-1.8,0-3.3-1.5-3.3-3.3c0-1.8,1.5-3.3,3.3-3.3s3.3,1.5,3.3,3.3
				C452.2,289.2,450.7,290.7,448.8,290.7z M448.8,285.1c-1.3,0-2.3,1.1-2.3,2.3c0,1.3,1.1,2.3,2.3,2.3c1.3,0,2.3-1.1,2.3-2.3
				C451.2,286.1,450.1,285.1,448.8,285.1z"/>
			<path fill="#7F58A5" d="M484.4,290.7c-1.8,0-3.3-1.5-3.3-3.3c0-1.8,1.5-3.3,3.3-3.3s3.3,1.5,3.3,3.3
				C487.7,289.2,486.2,290.7,484.4,290.7z M484.4,285.1c-1.3,0-2.3,1.1-2.3,2.3c0,1.3,1.1,2.3,2.3,2.3c1.3,0,2.3-1.1,2.3-2.3
				C486.7,286.1,485.6,285.1,484.4,285.1z"/>
			<path fill="#7F58A5" d="M567.9,327.7h-54.5c-0.3,0-0.5-0.2-0.5-0.5s0.2-0.5,0.5-0.5h54v-44.9h-63.6c-0.3,0-0.5-0.2-0.5-0.5
				s0.2-0.5,0.5-0.5h64.1c0.3,0,0.5,0.2,0.5,0.5v45.9C568.4,327.4,568.2,327.7,567.9,327.7z"/>
			<path fill="#7F58A5" d="M567.9,327.7c-0.2,0-0.4-0.1-0.5-0.3c-0.1-0.3,0-0.5,0.3-0.7l24.3-11v-41.3l-23.9,7.3
				c-0.3,0.1-0.5-0.1-0.6-0.3c-0.1-0.3,0.1-0.5,0.3-0.6l24.6-7.5c0.2,0,0.3,0,0.4,0.1c0.1,0.1,0.2,0.2,0.2,0.4V316
				c0,0.2-0.1,0.4-0.3,0.5l-24.6,11.1C568.1,327.6,568,327.7,567.9,327.7z"/>
			<path fill="#7F58A5" d="M592.5,274.3h-90.2c-0.3,0-0.5-0.2-0.5-0.5s0.2-0.5,0.5-0.5h90.2c0.3,0,0.5,0.2,0.5,0.5
				S592.8,274.3,592.5,274.3z"/>
			<path fill="#7F58A5" d="M542.6,327.7c-0.3,0-0.5-0.2-0.5-0.5v-45.9c0-0.2,0.1-0.3,0.2-0.4l12.2-7.5c0.2-0.1,0.5-0.1,0.7,0.2
				c0.1,0.2,0.1,0.5-0.2,0.7l-12,7.3v45.6C543.1,327.4,542.9,327.7,542.6,327.7z"/>
			<path fill="#7F58A5" d="M513,327.7c-0.3,0-0.5-0.2-0.5-0.5v-45.9c0-0.2,0.1-0.3,0.3-0.4l13.3-7.5c0.2-0.1,0.5,0,0.7,0.2
				c0.1,0.2,0,0.5-0.2,0.7l-13.1,7.3v45.6C513.5,327.4,513.3,327.7,513,327.7z"/>
			<path fill="#7F58A5" d="M535.3,291.7c-0.1,0-0.3-0.1-0.4-0.1c-2.3-2.3-6-8.6-4.9-11.9c0.4-1,1.2-1.7,2.4-1.8
				c0.9-0.1,1.6,0.1,2.2,0.7c2.7,2.7,1.2,12.3,1.2,12.7c0,0.2-0.2,0.3-0.3,0.4C535.4,291.7,535.3,291.7,535.3,291.7z M532.8,278.8
				c-0.1,0-0.2,0-0.3,0c-0.8,0.1-1.3,0.5-1.5,1.2c-0.8,2.3,1.6,7.3,3.9,10.1c0.4-3.2,0.7-9.1-1-10.8
				C533.6,279,533.2,278.8,532.8,278.8z"/>
			<g>
				
					<rect x="531.3" y="295.5" transform="matrix(0.866 0.5 -0.5 0.866 222.8159 -231.0111)" fill="#F7A823" width="22.4" height="9.6"/>
				<path fill="#7F58A5" d="M549.8,310.5c-0.1,0-0.2,0-0.3-0.1l-19.4-11.2c-0.1-0.1-0.2-0.2-0.2-0.3c0-0.1,0-0.3,0-0.4l4.8-8.3
					c0.1-0.2,0.4-0.3,0.7-0.2l19.4,11.2c0.1,0.1,0.2,0.2,0.2,0.3c0,0.1,0,0.3-0.1,0.4l-4.8,8.3C550.1,310.4,550,310.5,549.8,310.5z
					 M531.1,298.6l18.6,10.7l4.3-7.4l-18.6-10.7L531.1,298.6z"/>
			</g>
		</g>
		<g>
			<path fill="#7F58A5" d="M632.9,315.9h-40.4c-0.3,0-0.5-0.2-0.5-0.5s0.2-0.5,0.5-0.5h40.2c0.3-0.4,1.3-1.5,1.3-3.1
				c0-1.7-0.9-3.4-2.8-5.2c-5.6-5.2-21.8-7.5-21.9-7.5c-0.2,0-0.4-0.2-0.4-0.5v-31.8h-24.3v7c0,0.3-0.2,0.5-0.5,0.5
				s-0.5-0.2-0.5-0.5v-7.5c0-0.3,0.2-0.5,0.5-0.5h25.3c0.3,0,0.5,0.2,0.5,0.5v31.9c2.7,0.4,16.7,2.8,22.1,7.7c2.1,2,3.2,4,3.1,6
				c0,2.4-1.7,3.9-1.8,4C633.1,315.9,633,315.9,632.9,315.9z"/>
			<path fill="#7F58A5" d="M634,313.4h-41.2c-0.3,0-0.5-0.2-0.5-0.5s0.2-0.5,0.5-0.5H634c0.3,0,0.5,0.2,0.5,0.5
				S634.3,313.4,634,313.4z"/>
		</g>
		<g>
			<path fill="#7F58A5" d="M652,315.9h-40.4c-0.3,0-0.5-0.2-0.5-0.5s0.2-0.5,0.5-0.5h40.2c0.3-0.4,1.3-1.5,1.3-3.1
				c0-1.7-0.9-3.4-2.8-5.2c-5.6-5.2-21.8-7.5-21.9-7.5c-0.2,0-0.4-0.2-0.4-0.5v-31.8h-18.6c-0.3,0-0.5-0.2-0.5-0.5s0.2-0.5,0.5-0.5
				h19.1c0.3,0,0.5,0.2,0.5,0.5v31.9c2.7,0.4,16.7,2.8,22.1,7.7c2.1,2,3.2,4,3.1,6c0,2.4-1.7,3.9-1.8,4
				C652.2,315.9,652.1,315.9,652,315.9z"/>
			<path fill="#7F58A5" d="M653.2,313.4h-41.2c-0.3,0-0.5-0.2-0.5-0.5s0.2-0.5,0.5-0.5h41.2c0.3,0,0.5,0.2,0.5,0.5
				S653.4,313.4,653.2,313.4z"/>
		</g>
		<path fill="#7F58A5" d="M609.3,276.6h-4.4c-0.3,0-0.5-0.2-0.5-0.5v-2.7c0-0.3,0.2-0.5,0.5-0.5h4.4c0.3,0,0.5,0.2,0.5,0.5v2.7
			C609.8,276.4,609.6,276.6,609.3,276.6z M605.4,275.6h3.4V274h-3.4V275.6z"/>
		<path fill="#7F58A5" d="M609.3,281.5h-4.4c-0.3,0-0.5-0.2-0.5-0.5v-2.7c0-0.3,0.2-0.5,0.5-0.5h4.4c0.3,0,0.5,0.2,0.5,0.5v2.7
			C609.8,281.3,609.6,281.5,609.3,281.5z M605.4,280.5h3.4v-1.7h-3.4V280.5z"/>
		<path fill="#7F58A5" d="M609.3,286.4h-4.4c-0.3,0-0.5-0.2-0.5-0.5v-2.7c0-0.3,0.2-0.5,0.5-0.5h4.4c0.3,0,0.5,0.2,0.5,0.5v2.7
			C609.8,286.2,609.6,286.4,609.3,286.4z M605.4,285.4h3.4v-1.7h-3.4V285.4z"/>
		<path fill="#7F58A5" d="M609.3,291.2h-4.4c-0.3,0-0.5-0.2-0.5-0.5v-2.7c0-0.3,0.2-0.5,0.5-0.5h4.4c0.3,0,0.5,0.2,0.5,0.5v2.7
			C609.8,291,609.6,291.2,609.3,291.2z M605.4,290.2h3.4v-1.7h-3.4V290.2z"/>
		<path fill="#7F58A5" d="M628.5,276.6H624c-0.3,0-0.5-0.2-0.5-0.5v-2.7c0-0.3,0.2-0.5,0.5-0.5h4.4c0.3,0,0.5,0.2,0.5,0.5v2.7
			C629,276.4,628.8,276.6,628.5,276.6z M624.5,275.6h3.4V274h-3.4V275.6z"/>
		<path fill="#7F58A5" d="M628.5,281.5H624c-0.3,0-0.5-0.2-0.5-0.5v-2.7c0-0.3,0.2-0.5,0.5-0.5h4.4c0.3,0,0.5,0.2,0.5,0.5v2.7
			C629,281.3,628.8,281.5,628.5,281.5z M624.5,280.5h3.4v-1.7h-3.4V280.5z"/>
		<path fill="#7F58A5" d="M628.5,286.4H624c-0.3,0-0.5-0.2-0.5-0.5v-2.7c0-0.3,0.2-0.5,0.5-0.5h4.4c0.3,0,0.5,0.2,0.5,0.5v2.7
			C629,286.2,628.8,286.4,628.5,286.4z M624.5,285.4h3.4v-1.7h-3.4V285.4z"/>
		<path fill="#7F58A5" d="M628.5,291.2H624c-0.3,0-0.5-0.2-0.5-0.5v-2.7c0-0.3,0.2-0.5,0.5-0.5h4.4c0.3,0,0.5,0.2,0.5,0.5v2.7
			C629,291,628.8,291.2,628.5,291.2z M624.5,290.2h3.4v-1.7h-3.4V290.2z"/>
	</g>
</g>
<g>
</g>
<g>
</g>
<g>
</g>
<g>
</g>
<g>
</g>
<g>
</g>
<g>
</g>
<g>
</g>
<g>
</g>
<g>
</g>
<g>
</g>
<g>
</g>
<g>
</g>
<g>
</g>
<g>
</g>
</svg>
