<?xml version="1.0" encoding="utf-8"?>
<!-- Generator: Adobe Illustrator 18.0.0, SVG Export Plug-In . SVG Version: 6.00 Build 0)  -->
<!DOCTYPE svg PUBLIC "-//W3C//DTD SVG 1.1//EN" "http://www.w3.org/Graphics/SVG/1.1/DTD/svg11.dtd">
<svg version="1.1" id="Layer_1" xmlns="http://www.w3.org/2000/svg" xmlns:xlink="http://www.w3.org/1999/xlink" x="0px" y="0px"
	 viewBox="0 0 70.7 63.6" enable-background="new 0 0 70.7 63.6" xml:space="preserve">
<g>
	<g>
		<g>
			<g>
				<path fill="#FFFFFF" d="M39.8,30.5c0.1-0.1,0.2-0.2,0.4-0.2c0.1,0,0.2,0.1,0.4,0.2c0-0.1-0.1-0.3-0.1-0.4c0-0.1,0.2-0.2,0.3-0.3
					c-0.2,0-0.3,0-0.4,0c-0.1-0.1-0.1-0.2-0.2-0.3c-0.1,0.1-0.1,0.2-0.2,0.3c-0.1,0.1-0.2,0-0.4,0.1C39.9,30.1,39.9,30.3,39.8,30.5z
					"/>
				<path fill="#FFFFFF" d="M40.7,32c-0.3,0-0.5,0-0.5-0.4c-0.1,0.3-0.2,0.4-0.5,0.4c0.3,0.2,0.3,0.4,0.2,0.6c0.2-0.3,0.5-0.2,0.7,0
					C40.3,32.4,40.5,32.2,40.7,32z"/>
				<path fill="#FFFFFF" d="M28.8,34.9c-0.1,0.3-0.2,0.4-0.5,0.4c0.2,0.2,0.3,0.4,0.2,0.6c0.2-0.2,0.5-0.3,0.7,0
					c-0.2-0.3,0-0.4,0.2-0.6C29.1,35.3,28.9,35.2,28.8,34.9z"/>
				<path fill="#FFFFFF" d="M39.8,28.4c0.2-0.3,0.5-0.2,0.7,0c-0.2-0.3-0.1-0.5,0.2-0.6c-0.3,0-0.5,0-0.5-0.4
					c-0.1,0.3-0.2,0.4-0.5,0.4C39.9,27.9,39.9,28.1,39.8,28.4z"/>
				<path fill="#FFFFFF" d="M38.5,27.3c0.2-0.3,0.5-0.2,0.7,0c-0.2-0.3-0.1-0.5,0.2-0.6c-0.3,0-0.5,0-0.5-0.4
					c-0.1,0.2-0.2,0.4-0.5,0.4C38.6,26.9,38.7,27.1,38.5,27.3z"/>
				<path fill="#FFFFFF" d="M42.6,35.1c1.8,0,3.4,0,5.1,0c0-0.9-0.1-1.4-0.3-1.8c-1.6,0-3,0-4.8,0C42.6,33.8,42.6,34.2,42.6,35.1z"
					/>
				<path fill="#FFFFFF" d="M38.5,29.5c0.1-0.1,0.3-0.2,0.4-0.2c0.1,0,0.2,0.1,0.3,0.2c0,0,0,0,0.1,0c-0.2-0.3,0-0.4,0.1-0.6
					c-0.3,0-0.5,0-0.5-0.4c-0.1,0.3-0.2,0.4-0.5,0.3c0.1,0.1,0.2,0.2,0.2,0.3C38.6,29.2,38.6,29.3,38.5,29.5z"/>
				<path fill="#FFFFFF" d="M40.9,26.7c0.3,0.2,0.3,0.4,0.2,0.6c0.2-0.3,0.5-0.2,0.7,0c-0.1-0.3-0.1-0.4,0.1-0.6c0,0-0.1,0-0.1,0
					c-0.1,0-0.2,0-0.3-0.1c-0.1,0-0.1,0-0.2-0.1C41.3,26.6,41.1,26.7,40.9,26.7z"/>
				<path fill="#FFFFFF" d="M42.7,28.8c0,0,0.1,0,0.2,0c0.6,0,1.2-0.1,1.9-0.1c0.1,0,0.2,0,0.3,0c-0.6-0.5-1.2-0.9-2-1.4
					c-0.1,0-0.2,0-0.3,0C42.7,27.8,42.7,28.3,42.7,28.8z"/>
				<path fill="#FFFFFF" d="M42.7,30.7c0,0.4,0,0.7,0,1.1c0,0.2,0,0.2,0.2,0.2c0.9,0,1.7,0,2.6,0c0.5,0,1,0,1.5,0
					c-0.2-0.5-0.5-0.9-0.8-1.4c-1.2,0-2.3,0-3.5,0C42.7,30.5,42.7,30.6,42.7,30.7z"/>
				<path fill="#FFFFFF" d="M28.5,33.7c0.2-0.2,0.5-0.2,0.7,0c-0.2-0.3,0-0.4,0.2-0.6c-0.1,0-0.3,0-0.3,0c-0.1-0.1-0.1-0.2-0.2-0.3
					c-0.1,0.3-0.2,0.4-0.5,0.4C28.6,33.3,28.6,33.5,28.5,33.7z"/>
				<path fill="#FFFFFF" d="M29.2,31.6c-0.2-0.3,0-0.4,0.2-0.6c-0.2,0-0.3,0-0.4-0.1c-0.1,0.2-0.2,0.4-0.3,0.6
					C28.8,31.4,29,31.4,29.2,31.6z"/>
				<path fill="#FFFFFF" d="M33.5,27.3c0.2-0.3,0.5-0.2,0.7,0c-0.2-0.3-0.1-0.5,0.2-0.6c-0.2,0-0.4,0-0.5-0.2
					c-0.1,0-0.1,0.1-0.2,0.1c0,0-0.1,0.1-0.2,0.1c0,0-0.1,0-0.1,0.1C33.6,26.9,33.6,27.1,33.5,27.3z"/>
				<path fill="#FFFFFF" d="M37.3,28.4c0.2-0.3,0.5-0.3,0.7,0c-0.2-0.3,0-0.5,0.2-0.6c-0.3,0.1-0.5,0-0.5-0.4
					c-0.2,0.3-0.2,0.3-0.5,0.4C37.4,27.9,37.4,28.1,37.3,28.4z"/>
				<path fill="#FFFFFF" d="M36.6,28.8c-0.1-0.1-0.1-0.2-0.2-0.3c-0.1,0.3-0.3,0.4-0.5,0.3c0.2,0.2,0.3,0.4,0.2,0.6
					c0.2-0.2,0.5-0.2,0.7,0c-0.2-0.3,0-0.4,0.2-0.6c0,0,0,0,0,0C36.8,28.8,36.7,28.8,36.6,28.8z"/>
				<path fill="#FFFFFF" d="M37.6,33.8c-0.1,0.3-0.2,0.4-0.5,0.4c0.2,0.2,0.3,0.4,0.2,0.6c0.2-0.2,0.5-0.2,0.7,0
					c-0.2-0.3-0.1-0.5,0.2-0.6C37.9,34.2,37.7,34.1,37.6,33.8z"/>
				<path fill="#FFFFFF" d="M35.1,33.8c-0.1,0.3-0.2,0.4-0.5,0.3c0.3,0.2,0.3,0.4,0.2,0.6c0.1-0.1,0.2-0.2,0.3-0.2
					c0.1,0,0.2,0.1,0.3,0.2c-0.1-0.3,0-0.5,0.2-0.6c-0.2,0-0.3,0-0.4,0C35.2,34.1,35.2,33.9,35.1,33.8z"/>
				<path fill="#FFFFFF" d="M38.5,33.7c0.2-0.2,0.5-0.3,0.7,0c-0.2-0.3,0-0.5,0.2-0.6c-0.3,0.1-0.5,0-0.5-0.4
					c-0.1,0.2-0.1,0.3-0.2,0.3c-0.1,0.1-0.2,0-0.4,0.1C38.6,33.3,38.7,33.5,38.5,33.7z"/>
				<path fill="#FFFFFF" d="M37.6,29.5c-0.1,0.1-0.1,0.3-0.2,0.3c-0.1,0.1-0.2,0-0.4,0.1c0.3,0.2,0.3,0.4,0.2,0.6
					c0.2-0.2,0.5-0.2,0.7,0c-0.2-0.3,0-0.4,0.2-0.6c-0.2,0-0.3,0-0.4,0C37.7,29.8,37.7,29.6,37.6,29.5z"/>
				<path fill="#FFFFFF" d="M35.3,29.8c-0.1-0.1-0.1-0.2-0.2-0.4c0,0.3-0.2,0.4-0.5,0.4c0.2,0.2,0.3,0.4,0.2,0.6
					c0.2-0.2,0.5-0.3,0.7,0c-0.2-0.3,0-0.4,0.2-0.6C35.5,29.9,35.4,29.9,35.3,29.8z"/>
				<path fill="#FFFFFF" d="M39.5,35.3C39.5,35.3,39.4,35.3,39.5,35.3c-0.2-0.1-0.3,0-0.4-0.1C39,35.2,39,35,38.9,34.9
					c-0.1,0.3-0.2,0.4-0.5,0.4c0.3,0.2,0.3,0.4,0.2,0.6c0.2-0.3,0.5-0.2,0.7,0c0-0.2-0.1-0.3-0.1-0.4C39.2,35.4,39.4,35.4,39.5,35.3
					z"/>
				<path fill="#FFFFFF" d="M36.4,34.9c-0.2,0.3-0.2,0.3-0.6,0.4c0.3,0.1,0.3,0.4,0.2,0.6c0.2-0.2,0.5-0.3,0.7,0
					c-0.1-0.3,0-0.5,0.2-0.6C36.7,35.3,36.5,35.2,36.4,34.9z"/>
				<path fill="#FFFFFF" d="M36.9,33.1c-0.3,0-0.5,0-0.5-0.4c-0.1,0.3-0.2,0.4-0.5,0.4c0.2,0.2,0.3,0.4,0.1,0.6
					c0.2-0.2,0.5-0.3,0.7,0C36.6,33.4,36.7,33.2,36.9,33.1z"/>
				<path fill="#FFFFFF" d="M36.4,30.6c-0.1,0.2-0.1,0.3-0.2,0.3c-0.1,0.1-0.2,0-0.4,0.1c0.3,0.2,0.3,0.4,0.2,0.6
					c0.2-0.2,0.4-0.2,0.7,0c-0.2-0.3,0-0.4,0.2-0.6C36.7,31,36.4,30.9,36.4,30.6z"/>
				<path fill="#FFFFFF" d="M37.7,31.7c-0.1,0.3-0.2,0.4-0.5,0.3c0.2,0.3,0.2,0.3,0.2,0.7c0.2-0.2,0.4-0.3,0.7,0
					c-0.2-0.3,0-0.4,0.2-0.6C37.9,32.1,37.7,32,37.7,31.7z"/>
				<path fill="#FFFFFF" d="M47.1,39.3c-6.3,0-12.6,0-18.9,0c0.2,0.9,0.5,1.4,0.8,1.8c5.8,0,11.5,0,17.3,0
					C46.6,40.7,46.9,40.2,47.1,39.3z"/>
				<path fill="#FFFFFF" d="M45.3,42.5c-5,0-10.1,0-15.1,0c0.5,0.5,1.1,1.4,1.8,1.8c3.8,0,7.7,0,11.5,0C44.1,43.9,44.7,43,45.3,42.5
					z"/>
				<path fill="#FFFFFF" d="M35.2,45.8c0.8,0,1.6,0.3,2.5,0.3c0.9,0,1.7-0.3,2.5-0.3C38.5,45.8,36.9,45.8,35.2,45.8z"/>
				<path fill="#FFFFFF" d="M47.8,36.5c-6.7,0-13.4,0-20.2,0c0,0.5,0.1,0.9,0.2,1.4c6.6,0,13.2,0,19.7,0
					C47.7,37.4,47.7,37,47.8,36.5z"/>
				<path fill="#FFFFFF" d="M42,33.1c-0.3,0.1-0.5,0-0.5-0.3c-0.1,0.2-0.2,0.4-0.5,0.4c0.3,0.2,0.3,0.4,0.1,0.7
					c0.2-0.1,0.3-0.2,0.4-0.2c0.1,0,0.2,0.1,0.3,0.2C41.6,33.4,41.7,33.3,42,33.1z"/>
				<path fill="#FFFFFF" d="M40.3,34.1c-0.1-0.1-0.1-0.2-0.2-0.3c-0.1,0.3-0.2,0.4-0.5,0.3c0.1,0.1,0.2,0.2,0.2,0.3
					c0,0.1,0,0.2-0.1,0.4c0.3-0.3,0.5-0.3,0.7,0c-0.2-0.3-0.1-0.5,0.2-0.6C40.6,34.1,40.4,34.2,40.3,34.1z"/>
				<path fill="#FFFFFF" d="M41.1,29.4c0.2-0.2,0.5-0.3,0.7,0c-0.1-0.3-0.1-0.5,0.2-0.6c-0.3,0-0.5,0-0.5-0.4
					c-0.1,0.3-0.2,0.4-0.5,0.3c0.1,0.1,0.2,0.2,0.2,0.3C41.2,29.2,41.1,29.3,41.1,29.4z"/>
				<path fill="#FFFFFF" d="M41.4,34.9c-0.1,0.3-0.2,0.4-0.5,0.4c0.2,0.2,0.3,0.4,0.2,0.6c0.2-0.3,0.5-0.2,0.7,0
					c-0.2-0.3,0-0.5,0.2-0.6C41.7,35.3,41.5,35.2,41.4,34.9z"/>
				<path fill="#FFFFFF" d="M41.1,31.6c0.2-0.3,0.5-0.2,0.7,0c0-0.2-0.1-0.3-0.1-0.4c0-0.1,0.2-0.2,0.2-0.3c0,0,0,0,0-0.1
					c-0.3,0.1-0.5,0-0.5-0.3c-0.1,0.3-0.2,0.4-0.5,0.4C41.2,31.1,41.2,31.3,41.1,31.6z"/>
				<path fill="#FFFFFF" d="M30.1,29.5c-0.1,0.3-0.2,0.4-0.5,0.4c0.2,0.2,0.3,0.4,0.1,0.6c0.2-0.2,0.5-0.2,0.7,0
					c-0.2-0.3,0-0.4,0.2-0.6C30.3,29.9,30.1,29.8,30.1,29.5z"/>
				<path fill="#FFFFFF" d="M35.7,32c-0.3,0-0.5,0-0.5-0.4c-0.1,0.2-0.2,0.4-0.5,0.3c0.2,0.2,0.3,0.4,0.2,0.6c0.2-0.2,0.5-0.2,0.7,0
					C35.3,32.3,35.5,32.2,35.7,32z"/>
				<path fill="#FFFFFF" d="M31.4,32.7c-0.1,0.3-0.2,0.4-0.5,0.3c0.1,0.1,0.2,0.2,0.2,0.3c0,0.1,0,0.2-0.1,0.3
					c0.2-0.2,0.5-0.2,0.7,0c-0.2-0.3,0-0.4,0.2-0.6C31.6,33.1,31.4,33,31.4,32.7z"/>
				<path fill="#FFFFFF" d="M39.4,31c-0.3,0-0.5,0-0.5-0.4c-0.1,0.3-0.2,0.4-0.5,0.4c0.3,0.2,0.3,0.4,0.2,0.6c0.2-0.3,0.5-0.2,0.7,0
					C39.1,31.3,39.2,31.1,39.4,31z"/>
				<path fill="#FFFFFF" d="M32.2,30.5c0.2-0.2,0.5-0.3,0.7,0c-0.2-0.3,0-0.4,0.2-0.6c-0.3,0-0.5,0-0.5-0.4
					c-0.1,0.3-0.2,0.4-0.5,0.4C32.3,30,32.4,30.2,32.2,30.5z"/>
				<path fill="#FFFFFF" d="M32.6,33.8c-0.1,0.3-0.2,0.4-0.5,0.4c0.2,0.2,0.3,0.4,0.1,0.7c0.2-0.1,0.3-0.2,0.4-0.2
					c0.1,0,0.2,0.1,0.3,0.2c-0.1-0.3,0-0.5,0.2-0.6C32.8,34.2,32.7,34.1,32.6,33.8z"/>
				<path fill="#FFFFFF" d="M32.2,28.4c0.2-0.3,0.5-0.2,0.7,0c-0.2-0.3,0-0.5,0.2-0.7c-0.3,0-0.5,0-0.5-0.4
					c-0.1,0.2-0.1,0.3-0.2,0.3c-0.1,0.1-0.2,0-0.4,0C32.3,27.9,32.3,28.1,32.2,28.4z"/>
				<path fill="#FFFFFF" d="M36.1,27.3c0.1-0.1,0.2-0.1,0.3-0.2c0.1,0.1,0.2,0.1,0.3,0.2c-0.1-0.3,0-0.5,0.2-0.6
					c-0.3,0-0.5,0-0.5-0.4c-0.1,0.2-0.2,0.4-0.5,0.4C36.1,26.8,36.2,27,36.1,27.3z"/>
				<path fill="#FFFFFF" d="M30.1,33.8c0,0.3-0.2,0.4-0.5,0.4c0.2,0.2,0.3,0.4,0.2,0.6c0.2-0.2,0.5-0.2,0.7,0
					c-0.2-0.3,0-0.4,0.2-0.6C30.3,34.2,30.1,34.1,30.1,33.8z"/>
				<path fill="#FFFFFF" d="M31,29.5c0.2-0.3,0.5-0.3,0.7,0c-0.2-0.3,0-0.5,0.2-0.6c-0.3,0.1-0.5,0-0.5-0.4
					c-0.1,0.3-0.2,0.4-0.5,0.4C31.1,29,31.1,29.2,31,29.5z"/>
				<path fill="#FFFFFF" d="M30.1,31.7C30,32,29.8,32.1,29.6,32c0.3,0.2,0.3,0.4,0.1,0.6c0.2-0.1,0.3-0.2,0.4-0.2
					c0.1,0,0.2,0.1,0.3,0.1c-0.2-0.3,0-0.4,0.2-0.6C30.3,32.1,30.1,32,30.1,31.7z"/>
				<path fill="#FFFFFF" d="M31.4,30.6c-0.1,0.3-0.2,0.4-0.5,0.3c0.2,0.2,0.3,0.4,0.2,0.6c0.2-0.2,0.5-0.2,0.7,0
					c-0.2-0.3,0-0.4,0.2-0.6C31.6,31,31.4,30.9,31.4,30.6z"/>
				<path fill="#FFFFFF" d="M31.9,35.3c-0.3,0-0.5-0.1-0.5-0.4c-0.1,0.3-0.2,0.4-0.5,0.4c0.2,0.2,0.3,0.4,0.2,0.6
					c0.2-0.2,0.5-0.2,0.7,0c0-0.2-0.1-0.3,0-0.4C31.7,35.4,31.8,35.3,31.9,35.3z"/>
				<path fill="#FFFFFF" d="M34.1,28.8c-0.1-0.1-0.1-0.2-0.2-0.3c-0.1,0.3-0.2,0.4-0.5,0.3c0.1,0.1,0.2,0.2,0.2,0.3
					c0,0.1,0,0.2-0.1,0.3c0.1-0.1,0.2-0.2,0.4-0.2c0.1,0,0.2,0.1,0.3,0.2c-0.2-0.3,0-0.4,0.2-0.6C34.3,28.8,34.1,28.8,34.1,28.8z"/>
				<path fill="#FFFFFF" d="M34.4,30.9c-0.3,0-0.5,0-0.5-0.4c-0.1,0.3-0.2,0.4-0.5,0.4c0.2,0.2,0.3,0.4,0.2,0.6
					c0.1-0.1,0.2-0.2,0.3-0.2c0.1,0,0.2,0.1,0.4,0.2C34,31.3,34.2,31.1,34.4,30.9z"/>
				<path fill="#FFFFFF" d="M33.5,33.7c0.2-0.2,0.5-0.3,0.7,0c-0.2-0.3,0-0.5,0.2-0.6c-0.3,0.1-0.5,0-0.5-0.3
					c-0.1,0.3-0.2,0.4-0.5,0.4C33.6,33.3,33.6,33.5,33.5,33.7z"/>
				<path fill="#FFFFFF" d="M34.8,28.4c0.2-0.3,0.5-0.2,0.7,0c-0.2-0.3-0.1-0.5,0.2-0.6c-0.3,0-0.5,0-0.5-0.4
					c-0.1,0.3-0.2,0.4-0.5,0.4C34.9,27.9,34.9,28.1,34.8,28.4z"/>
				<path fill="#FFFFFF" d="M33.9,34.9c-0.1,0.3-0.2,0.4-0.5,0.3c0.3,0.2,0.3,0.4,0.2,0.6c0.2-0.3,0.5-0.2,0.7,0
					c-0.2-0.3,0-0.5,0.2-0.6C34.1,35.3,33.9,35.2,33.9,34.9z"/>
				<path fill="#FFFFFF" d="M32.6,31.7c-0.1,0.3-0.2,0.4-0.5,0.4c0.2,0.2,0.3,0.4,0.1,0.6c0.2-0.1,0.3-0.2,0.4-0.2
					c0.1,0,0.2,0.1,0.4,0.2c0-0.1-0.1-0.2,0-0.3c0-0.1,0.2-0.2,0.2-0.2c0,0,0,0,0-0.1C32.8,32.1,32.7,32,32.6,31.7z"/>
				<path fill="#2368B5" d="M41.8,26.7c-0.1,0-0.2-0.1-0.3-0.1C41.6,26.6,41.7,26.7,41.8,26.7z"/>
				<path fill="#2368B5" d="M47.8,36c0-0.3,0-0.9,0-0.9c-1.7,0-3.3,0-5.1,0c0-0.9,0-1.4,0-1.8c1.8,0,3.2,0,4.8,0
					c-0.1-0.5-0.3-0.9-0.5-1.4c-0.5,0-1,0-1.5,0c-0.9,0-1.7,0-2.6,0c-0.2,0-0.2,0-0.2-0.2c0-0.4,0-0.7,0-1.1c0-0.1,0-0.1,0-0.1
					c1.2,0,2.3,0,3.5,0c-0.4-0.5-0.8-1.4-1.2-1.8c-0.1,0-0.2,0-0.3,0c-0.6,0-1.2,0.1-1.9,0.1c-0.1,0-0.2,0-0.2-0.1c0-0.5,0-1,0-1.4
					c0.1,0,0.2,0,0.3,0c-0.3,0-0.7-0.4-1.1-0.6c-0.2,0.2-0.3,0.3-0.1,0.6c-0.2-0.2-0.5-0.3-0.7,0c0.1-0.3,0.1-0.5-0.2-0.6
					c0.2,0,0.4,0,0.5-0.2c-1.1-0.4-2.4-0.7-3.7-0.7c-1.3,0-2.6,0.3-3.8,0.7c0.1,0.2,0.3,0.2,0.5,0.2c-0.2,0.2-0.3,0.4-0.2,0.6
					c-0.2-0.2-0.5-0.3-0.7,0c0.1-0.2,0.1-0.4-0.1-0.6c-1.9,0.9-3.4,2.3-4.5,4.1c0.1,0.1,0.2,0.1,0.4,0.1c-0.2,0.2-0.4,0.3-0.2,0.6
					c-0.2-0.2-0.4-0.2-0.6-0.1c-0.6,1.3-1,2.8-1,4.4c0,0.2,0,0.2,0,0.6c6.7,0,13.4,0,20.2,0C47.8,36.1,47.8,36.2,47.8,36z
					 M28.8,32.7c0.1,0.1,0.1,0.3,0.2,0.3c0.1,0.1,0.2,0,0.3,0c-0.2,0.2-0.3,0.3-0.2,0.6c-0.3-0.2-0.5-0.2-0.7,0
					c0.1-0.2,0.1-0.4-0.2-0.6C28.6,33.1,28.8,33,28.8,32.7z M29.2,35.8c-0.3-0.2-0.5-0.2-0.7,0c0.1-0.2,0.1-0.4-0.2-0.6
					c0.3,0.1,0.4-0.1,0.5-0.4c0,0.3,0.3,0.4,0.5,0.3C29.2,35.4,29,35.6,29.2,35.8z M40.1,27.4c0,0.3,0.3,0.4,0.5,0.4
					c-0.2,0.2-0.3,0.4-0.2,0.6c-0.2-0.2-0.5-0.3-0.7,0c0.1-0.3,0.1-0.5-0.2-0.6C39.9,27.8,40.1,27.7,40.1,27.4z M40,29.8
					c0.1-0.1,0.1-0.2,0.2-0.3c0.1,0.1,0.1,0.3,0.2,0.3c0.1,0,0.2,0,0.4,0c-0.1,0.1-0.2,0.2-0.3,0.3c0,0.1,0,0.2,0.1,0.4
					c-0.1-0.1-0.3-0.2-0.4-0.2c-0.1,0-0.2,0.1-0.4,0.2c0.1-0.2,0.1-0.5-0.2-0.6C39.8,29.9,39.9,29.9,40,29.8z M40.5,32.7
					c-0.2-0.2-0.5-0.3-0.7,0c0.1-0.3,0.1-0.5-0.2-0.6c0.3,0,0.4-0.1,0.5-0.4c0.1,0.3,0.3,0.4,0.5,0.4C40.5,32.2,40.3,32.4,40.5,32.7
					z M38.9,26.3c0,0.3,0.2,0.4,0.5,0.4c-0.2,0.2-0.4,0.3-0.2,0.6c-0.3-0.2-0.5-0.3-0.7,0c0.1-0.3,0.1-0.5-0.1-0.6
					C38.7,26.7,38.8,26.6,38.9,26.3z M38.9,28.5c0,0.3,0.2,0.4,0.5,0.4c-0.2,0.2-0.4,0.3-0.1,0.6c0,0,0,0-0.1,0
					c-0.1-0.1-0.2-0.2-0.3-0.2c-0.1,0-0.2,0.1-0.4,0.2c0-0.2,0.1-0.3,0.1-0.4c0-0.1-0.1-0.2-0.2-0.3C38.7,28.9,38.8,28.7,38.9,28.5z
					 M39.3,31.6c-0.2-0.2-0.5-0.2-0.7,0c0.1-0.3,0.1-0.5-0.2-0.6c0.3,0.1,0.4-0.1,0.5-0.4c0.1,0.3,0.2,0.4,0.5,0.4
					C39.2,31.1,39.1,31.3,39.3,31.6z M37.7,27.4c0,0.3,0.2,0.4,0.5,0.4c-0.2,0.2-0.4,0.3-0.2,0.6c-0.3-0.2-0.5-0.3-0.7,0
					c0.1-0.3,0.1-0.5-0.2-0.6C37.5,27.7,37.5,27.7,37.7,27.4z M36.4,26.3c0,0.3,0.2,0.4,0.5,0.4c-0.2,0.2-0.4,0.3-0.2,0.6
					c-0.1-0.1-0.2-0.1-0.3-0.2c-0.1,0.1-0.2,0.1-0.3,0.2c0.1-0.2,0.1-0.4-0.2-0.6C36.2,26.7,36.3,26.5,36.4,26.3z M31.3,28.4
					c0.1,0.3,0.2,0.4,0.5,0.4c-0.2,0.2-0.4,0.4-0.2,0.6c-0.3-0.3-0.5-0.2-0.7,0c0.1-0.3,0.1-0.5-0.2-0.6
					C31.1,28.8,31.3,28.7,31.3,28.4z M31.7,31.6c-0.3-0.2-0.5-0.2-0.7,0c0.1-0.3,0.1-0.5-0.2-0.6c0.3,0.1,0.4-0.1,0.5-0.3
					c0,0.3,0.2,0.4,0.5,0.3C31.7,31.1,31.5,31.3,31.7,31.6z M30.4,32.6c-0.1-0.1-0.2-0.1-0.3-0.1c-0.1,0-0.2,0.1-0.4,0.2
					c0.1-0.3,0.1-0.5-0.1-0.6c0.3,0,0.5-0.1,0.5-0.4c0.1,0.3,0.2,0.4,0.5,0.4C30.4,32.2,30.2,32.3,30.4,32.6z M30.4,34.8
					c-0.2-0.2-0.5-0.2-0.7,0c0.1-0.2,0.1-0.4-0.2-0.6c0.3,0,0.5-0.1,0.5-0.4c0.1,0.3,0.2,0.4,0.5,0.4C30.4,34.3,30.3,34.5,30.4,34.8
					z M30.4,30.5c-0.3-0.2-0.5-0.2-0.7,0c0.1-0.2,0.1-0.4-0.1-0.6c0.3,0.1,0.4-0.1,0.5-0.4c0.1,0.3,0.2,0.4,0.5,0.4
					C30.4,30,30.3,30.2,30.4,30.5z M31.7,35.8c-0.2-0.2-0.5-0.2-0.7,0c0.1-0.3,0.1-0.4-0.2-0.6c0.3,0.1,0.4-0.1,0.5-0.4
					c0,0.3,0.2,0.4,0.5,0.4c-0.1,0.1-0.2,0.1-0.2,0.2C31.6,35.6,31.7,35.7,31.7,35.8z M31.7,33.7c-0.2-0.2-0.5-0.2-0.7,0
					c0-0.1,0.1-0.2,0.1-0.3c0-0.1-0.1-0.2-0.2-0.3c0.3,0.1,0.5-0.1,0.5-0.3c0,0.3,0.2,0.4,0.5,0.4C31.7,33.2,31.5,33.4,31.7,33.7z
					 M32.4,27.7c0.1-0.1,0.1-0.2,0.2-0.3c0,0.4,0.2,0.4,0.5,0.4c-0.2,0.2-0.3,0.4-0.2,0.7c-0.3-0.2-0.5-0.3-0.7,0
					c0.1-0.3,0.1-0.5-0.2-0.6C32.2,27.7,32.3,27.7,32.4,27.7z M32.6,29.5c0.1,0.3,0.3,0.4,0.5,0.4c-0.2,0.2-0.3,0.3-0.2,0.6
					c-0.3-0.2-0.5-0.2-0.7,0c0.1-0.3,0.1-0.4-0.2-0.6C32.4,29.9,32.5,29.8,32.6,29.5z M32.9,34.8c-0.1-0.1-0.2-0.2-0.3-0.2
					c-0.1,0-0.2,0.1-0.4,0.2c0.1-0.3,0.1-0.5-0.1-0.7c0.3,0.1,0.4-0.1,0.5-0.4c0.1,0.3,0.2,0.4,0.5,0.4
					C32.9,34.3,32.8,34.5,32.9,34.8z M32.9,32.3c0,0.1,0,0.2,0,0.3c-0.1-0.1-0.2-0.2-0.4-0.2c-0.1,0-0.2,0.1-0.4,0.2
					c0.2-0.3,0.1-0.5-0.1-0.6c0.3,0,0.4-0.1,0.5-0.4c0.1,0.3,0.2,0.4,0.5,0.3c0,0,0,0,0,0.1C33.1,32.1,32.9,32.2,32.9,32.3z
					 M34.2,35.9c-0.3-0.2-0.5-0.2-0.7,0c0.1-0.3,0.1-0.5-0.2-0.6c0.3,0.1,0.4-0.1,0.5-0.3c0,0.3,0.3,0.4,0.5,0.4
					C34.2,35.4,34.1,35.6,34.2,35.9z M34.3,31.6c-0.2-0.1-0.3-0.2-0.4-0.2c-0.1,0-0.2,0.1-0.3,0.2c0.1-0.2,0.1-0.4-0.2-0.6
					c0.3,0.1,0.4-0.1,0.5-0.4c0,0.3,0.3,0.4,0.5,0.4C34.2,31.1,34,31.3,34.3,31.6z M33.9,32.7c0.1,0.3,0.2,0.4,0.5,0.3
					c-0.2,0.2-0.4,0.3-0.2,0.6c-0.3-0.3-0.5-0.2-0.7,0c0.1-0.3,0.1-0.5-0.2-0.6C33.6,33.1,33.8,33,33.9,32.7z M34.2,29.4
					c-0.1-0.1-0.2-0.2-0.3-0.2c-0.1,0-0.2,0.1-0.4,0.2c0-0.1,0.1-0.2,0.1-0.3c0-0.1-0.1-0.2-0.2-0.3c0.3,0.1,0.4-0.1,0.5-0.3
					c0.1,0.1,0.1,0.3,0.2,0.3c0.1,0.1,0.2,0,0.4,0C34.2,29,34,29.1,34.2,29.4z M35.1,27.4c0.1,0.3,0.3,0.4,0.5,0.4
					c-0.2,0.2-0.3,0.4-0.2,0.6c-0.3-0.2-0.5-0.3-0.7,0c0.1-0.3,0.1-0.5-0.2-0.6C34.9,27.8,35,27.7,35.1,27.4z M35.5,32.6
					c-0.3-0.2-0.5-0.2-0.7,0c0.1-0.3,0.1-0.5-0.2-0.6c0.3,0.1,0.4-0.1,0.5-0.3c0,0.4,0.3,0.4,0.5,0.4C35.5,32.2,35.3,32.3,35.5,32.6
					z M35.5,34.8c-0.1-0.1-0.2-0.2-0.3-0.2c-0.1,0-0.2,0.1-0.3,0.2c0.1-0.2,0.1-0.4-0.2-0.6c0.3,0,0.5-0.1,0.5-0.3
					c0,0.1,0.1,0.2,0.2,0.3c0.1,0.1,0.2,0,0.4,0C35.5,34.3,35.3,34.5,35.5,34.8z M35.5,30.5c-0.3-0.3-0.5-0.2-0.7,0
					c0.1-0.3,0.1-0.4-0.2-0.6c0.3,0,0.5-0.1,0.5-0.4c0.1,0.2,0.1,0.3,0.2,0.4c0.1,0.1,0.2,0,0.4,0C35.5,30,35.3,30.2,35.5,30.5z
					 M36.7,33.7c-0.2-0.3-0.5-0.2-0.7,0c0.1-0.3,0.1-0.5-0.1-0.6c0.3,0.1,0.4-0.1,0.5-0.4c0.1,0.3,0.2,0.4,0.5,0.4
					C36.7,33.2,36.6,33.4,36.7,33.7z M36.8,31.5c-0.2-0.2-0.5-0.2-0.7,0c0.1-0.3,0.1-0.5-0.2-0.6c0.2,0,0.3,0,0.4-0.1
					c0.1-0.1,0.1-0.2,0.2-0.3c0,0.4,0.2,0.4,0.5,0.4C36.7,31.1,36.6,31.3,36.8,31.5z M36.8,35.9c-0.2-0.3-0.5-0.2-0.7,0
					c0.1-0.3,0.1-0.5-0.2-0.6c0.3-0.1,0.3-0.1,0.6-0.4c0,0.3,0.2,0.4,0.5,0.4C36.7,35.4,36.6,35.6,36.8,35.9z M36.8,29.4
					c-0.3-0.2-0.5-0.2-0.7,0c0.1-0.3,0.1-0.5-0.2-0.6c0.3,0,0.5,0,0.5-0.3c0.1,0.1,0.1,0.2,0.2,0.3c0.1,0.1,0.2,0,0.3,0c0,0,0,0,0,0
					C36.7,29,36.6,29.1,36.8,29.4z M38,34.8c-0.2-0.3-0.5-0.2-0.7,0c0.1-0.3,0.1-0.5-0.2-0.6c0.3,0,0.4-0.1,0.5-0.4
					c0.1,0.3,0.2,0.4,0.5,0.4C37.9,34.3,37.8,34.5,38,34.8z M38,32.6c-0.3-0.2-0.5-0.2-0.7,0c0-0.4,0-0.4-0.2-0.7
					c0.3,0.1,0.4-0.1,0.5-0.3c0,0.3,0.3,0.4,0.5,0.4C38,32.2,37.8,32.3,38,32.6z M38,30.5c-0.2-0.2-0.5-0.2-0.7,0
					c0.1-0.3,0.1-0.5-0.2-0.6c0.2,0,0.3,0,0.4-0.1c0.1-0.1,0.1-0.2,0.2-0.3c0.1,0.1,0.1,0.3,0.2,0.3c0.1,0.1,0.2,0,0.4,0
					C38,30,37.8,30.2,38,30.5z M38.7,33c0.1-0.1,0.1-0.2,0.2-0.3c0,0.3,0.2,0.4,0.5,0.4c-0.2,0.2-0.3,0.4-0.2,0.6
					c-0.2-0.3-0.5-0.2-0.7,0c0.1-0.3,0.1-0.5-0.2-0.6C38.5,33.1,38.7,33.1,38.7,33z M39.3,35.9c-0.2-0.3-0.5-0.3-0.7,0
					c0.1-0.3,0.1-0.5-0.2-0.6c0.3,0,0.4-0.1,0.5-0.4c0.1,0.1,0.1,0.3,0.2,0.3c0.1,0.1,0.2,0,0.3,0c0,0,0,0,0,0.1
					c-0.1,0.1-0.2,0.1-0.3,0.2C39.2,35.6,39.2,35.7,39.3,35.9z M40.5,34.8c-0.2-0.2-0.5-0.2-0.7,0c0-0.2,0.1-0.3,0.1-0.4
					c0-0.1-0.1-0.2-0.2-0.3c0.3,0.1,0.5-0.1,0.5-0.3c0.1,0.1,0.1,0.3,0.2,0.3c0.1,0.1,0.2,0,0.4,0C40.5,34.3,40.4,34.5,40.5,34.8z
					 M41.8,33.7c-0.1-0.1-0.2-0.2-0.3-0.2c-0.1,0-0.2,0.1-0.4,0.2c0.1-0.3,0.1-0.5-0.1-0.7c0.3,0.1,0.4-0.1,0.5-0.4
					c0.1,0.3,0.2,0.4,0.5,0.3C41.7,33.3,41.6,33.4,41.8,33.7z M41.4,28.4c0.1,0.3,0.2,0.4,0.5,0.4c-0.3,0.2-0.3,0.4-0.2,0.6
					c-0.3-0.3-0.5-0.2-0.7,0c0-0.1,0.1-0.2,0.1-0.3c0-0.1-0.1-0.2-0.2-0.3C41.2,28.8,41.4,28.7,41.4,28.4z M41.4,30.6
					c0.1,0.3,0.2,0.4,0.5,0.3c0,0,0,0,0,0.1c-0.1,0.1-0.2,0.2-0.2,0.3c0,0.1,0,0.2,0.1,0.4c-0.2-0.3-0.5-0.3-0.7,0
					c0.1-0.3,0.1-0.5-0.2-0.7C41.2,31,41.3,30.9,41.4,30.6z M41.8,35.9c-0.2-0.2-0.5-0.3-0.7,0c0.1-0.3,0.1-0.5-0.2-0.6
					c0.3,0.1,0.4-0.1,0.5-0.4c0,0.3,0.3,0.4,0.5,0.4C41.7,35.4,41.6,35.6,41.8,35.9z"/>
				<path fill="#2368B5" d="M33.7,26.6c-0.1,0-0.1,0.1-0.2,0.1C33.6,26.7,33.7,26.6,33.7,26.6z"/>
				<path fill="#2368B5" d="M43.4,44.4c-3.8,0-7.7,0-11.5,0c1,0.5,2.1,0.9,3.2,1.4c1.7,0,3.3,0,5,0C41.4,45.3,42.5,44.8,43.4,44.4z"
					/>
				<path fill="#2368B5" d="M46.3,41.1c-5.8,0-11.5,0-17.3,0c0.3,0.5,0.7,0.9,1.1,1.4c5,0,10.1,0,15.1,0
					C45.7,42.1,46,41.6,46.3,41.1z"/>
				<path fill="#2368B5" d="M47.6,37.9c-6.6,0-13.2,0-19.7,0c0.1,0.5,0.3,0.9,0.4,1.4c6.3,0,12.6,0,18.9,0
					C47.3,38.8,47.4,38.4,47.6,37.9z"/>
			</g>
			<g>
				<path fill="#0C56AB" d="M37.7,25.8c5.6,0,10.1,4.5,10.1,10.1S43.3,46,37.7,46c-5.6,0-10.1-4.5-10.1-10.1S32.1,25.8,37.7,25.8
					 M37.7,25.2C31.8,25.2,27,30,27,35.9s4.8,10.7,10.7,10.7c5.9,0,10.7-4.8,10.7-10.7S43.6,25.2,37.7,25.2L37.7,25.2z"/>
			</g>
		</g>
		<g>
			<circle fill="none" stroke="#FFFFFF" stroke-width="0.5922" stroke-miterlimit="10" cx="53.1" cy="17.6" r="16.6"/>
			<g>
				<defs>
					<circle id="SVGID_1_" cx="53.1" cy="17.6" r="16.5"/>
				</defs>
				<clipPath id="SVGID_2_">
					<use xlink:href="#SVGID_1_"  overflow="visible"/>
				</clipPath>
				<circle clip-path="url(#SVGID_2_)" fill="#FFFFFF" cx="53.1" cy="17.6" r="17.1"/>
			</g>
		</g>
		<polygon fill="#2368B5" points="55.5,16.1 59.9,16.1 59.9,19 54.9,19 54.9,21 59.8,21 59.8,24 54.9,24 54.9,28 51.4,28 51.4,24 
			46.4,24 46.4,21 51.4,21 51.4,19 46.4,19 46.4,16.1 50.3,16.1 45.7,7.2 49.3,7.2 53.1,14.5 56.9,7.2 60.6,7.2 		"/>
		<g id="GUfQnu_1_">
		</g>
		<g>
			<g>
				<path fill="#0C56AB" d="M53.1,1c9.2,0,16.6,7.4,16.6,16.6c0,9.2-7.4,16.6-16.6,16.6c-9.2,0-16.6-7.4-16.6-16.6
					C36.5,8.4,44,1,53.1,1 M53.1,0c-9.7,0-17.6,7.9-17.6,17.6s7.9,17.6,17.6,17.6c9.7,0,17.6-7.9,17.6-17.6S62.8,0,53.1,0L53.1,0z"
					/>
			</g>
		</g>
	</g>
	<g>
		<g>
			<g>
				<path fill="#0C56AB" d="M2,57.4c0.1,1,0.8,1.7,1.8,1.7c1,0,1.7-0.6,1.7-1.7c0-1.1-0.8-1.7-1.8-1.7c-0.6,0-1.2,0.3-1.5,0.6
					l-1.6-0.6l1.1-4.6h5v1.5H3l-0.6,2.3c0.4-0.4,1.1-0.6,1.7-0.6c1.8,0,3.1,1.1,3.1,3c0,1.7-1.3,3.2-3.4,3.2c-2,0-3.3-1.3-3.4-2.7
					L2,57.4z"/>
			</g>
		</g>
	</g>
</g>
<g>
</g>
<g>
</g>
<g>
</g>
<g>
</g>
<g>
</g>
<g>
</g>
<g>
</g>
<g>
</g>
<g>
</g>
<g>
</g>
<g>
</g>
<g>
</g>
<g>
</g>
<g>
</g>
<g>
</g>
</svg>
