<?xml version="1.0" encoding="utf-8"?>
<!-- Generator: Adobe Illustrator 18.0.0, SVG Export Plug-In . SVG Version: 6.00 Build 0)  -->
<!DOCTYPE svg PUBLIC "-//W3C//DTD SVG 1.1//EN" "http://www.w3.org/Graphics/SVG/1.1/DTD/svg11.dtd">
<svg version="1.1" id="Layer_1" xmlns="http://www.w3.org/2000/svg" xmlns:xlink="http://www.w3.org/1999/xlink" x="0px" y="0px"
	 viewBox="0 0 365.9 391.9" enable-background="new 0 0 365.9 391.9" xml:space="preserve">
<path fill="#C12B5D" d="M208.1,263c1.5-13.7,18.8-15.8,23.5-2.8c0.4,1,0.5,2.2,0.4,3.2c-1.5,13.7-18.8,15.8-23.5,2.8
	C208.1,265.3,207.9,264.1,208.1,263z"/>
<path fill="#007A6D" d="M185.4,325.8c9.2-10.1,24.3-1.7,20.5,11.4c-0.3,1-0.8,2-1.6,2.8c-9.2,10.1-24.3,1.7-20.5-11.4
	C184.2,327.6,184.7,326.6,185.4,325.8z"/>
<path fill="#007A6D" d="M292.6,222.8c1.6-13.4,18.5-15.4,23.2-2.8c0.4,1.1,0.6,2.3,0.4,3.5c-1.6,13.4-18.5,15.4-23.2,2.8
	C292.6,225.2,292.5,224,292.6,222.8z"/>
<path fill="#007A6D" d="M242.1,82.7c11.8,5.5,8.6,21.6-4.4,22.1c-1.2,0-2.3-0.2-3.4-0.7c-11.8-5.5-8.6-21.6,4.4-22.1
	C239.9,82,241.1,82.2,242.1,82.7z"/>
<path fill="#F6A822" d="M138.7,164.3c15-3,23.1,14.5,11.1,24c-1.1,0.8-2.3,1.4-3.6,1.7c-15,3-23.1-14.5-11.1-24
	C136.2,165.2,137.4,164.6,138.7,164.3z"/>
<path fill="#F6A822" d="M94.7,263.3c10.4-11.2,27.2-1.8,23.1,12.9c-0.4,1.3-1,2.5-1.9,3.5c-10.4,11.2-27.2,1.8-23.1-12.9
	C93.1,265.5,93.8,264.3,94.7,263.3z"/>
<path fill="#007A6D" d="M45.9,218.3c13.9,6.4,10.1,25.3-5.1,26c-1.3,0.1-2.7-0.2-3.9-0.8c-13.9-6.4-10.1-25.3,5.1-26
	C43.3,217.5,44.7,217.8,45.9,218.3z"/>
<path fill="#2368B5" d="M189.3,213.1c13.3,6.2,9.7,24.4-4.9,25c-1.3,0.1-2.6-0.2-3.8-0.7c-13.3-6.2-9.7-24.4,4.9-25
	C186.9,212.3,188.2,212.5,189.3,213.1z"/>
<path fill="none" stroke="#032360" stroke-width="0.2078" stroke-miterlimit="10" d="M57.6,331.5c-6.8-4.6-13.6-9.2-19-15.3
	c-6-6.9-12.2-20.4-10.5-37.6"/>
<path fill="none" stroke="#032360" stroke-width="0.2078" stroke-miterlimit="10" d="M181.8,337.2c-21.1,6.5-55.5,9.5-73.9,8.8"/>
<path fill="none" stroke="#032360" stroke-width="0.2078" stroke-miterlimit="10" d="M293.1,253.8c-17.5,28.3-38.3,55.7-86.3,74.2"
	/>
<path fill="none" stroke="#032360" stroke-width="0.2078" stroke-miterlimit="10" d="M324.5,173.9c-1.5,11.8-5.2,24.2-11.1,36.7"/>
<path fill="none" stroke="#032360" stroke-width="0.2078" stroke-miterlimit="10" d="M257,95c24.7,1.4,45.5,9.5,59.1,24.6"/>
<path fill="none" stroke="#032360" stroke-width="0.2078" stroke-miterlimit="10" d="M46.6,211.7c11-33.2,38.5-59.7,66.6-79.6
	c23.4-16.6,70-32.7,104.7-35"/>
<path fill="none" stroke="#032360" stroke-width="0.2078" stroke-miterlimit="10" d="M209.2,270.8c-14.7,9.3-29.9,15.6-44.3,19"/>
<path fill="none" stroke="#032360" stroke-width="0.2078" stroke-miterlimit="10" d="M267.2,195.4c-2.8,19.2-16,41-36.8,59.5"/>
<path fill="none" stroke="#032360" stroke-width="0.2078" stroke-miterlimit="10" d="M152.7,170.1c26.7-16.8,55-24,77-21.2"/>
<path fill="none" stroke="#032360" stroke-width="0.2078" stroke-miterlimit="10" d="M95.1,254.9c-1.1-29.4,16-50.8,36.2-68.8"/>
<path fill="#007A6D" d="M310.1,135.3c0.9-13,17.1-15.8,22.2-3.8c0.5,1.1,0.7,2.2,0.6,3.4c-0.9,13-17.1,15.8-22.2,3.8
	C310.2,137.6,310,136.4,310.1,135.3z"/>
<g>
	<path fill="#FFFFFF" d="M317.3,132.8c0-0.2-0.1-0.4-0.1-0.7c0-2,1.5-3.9,4.1-3.9c2.6,0,4.2,1.6,4.2,3.6c0,1.5-0.8,2.8-2.2,3.7
		l-2.3,1.4c-0.6,0.4-1,0.8-1.2,1.4l5.8-0.1l0,1.9l-8.5,0.1c0-2,0.7-3.6,2.7-4.9l1.9-1.2c1-0.7,1.5-1.4,1.5-2.2c0-1-0.7-1.8-2-1.8
		c-1.4,0-2,1-2,2.2c0,0.2,0,0.4,0.1,0.6L317.3,132.8z"/>
</g>
<g>
	<path fill="#FFFFFF" d="M238.3,99.4l-0.1-8.6l-3,0l0-1.6c1.8-0.1,3-1.1,3.3-2.4l2,0l0.2,12.5L238.3,99.4z"/>
</g>
<g>
	<path fill="#FFFFFF" d="M301.9,221.9l3.5-3.3l-5.9,0.1l0-2.1l9-0.1l0,2l-3.5,3.1c1.9,0,3.9,1.4,3.9,3.9c0,2.2-1.7,4.3-4.8,4.3
		c-3,0-4.8-1.9-5-4l2.3-0.5c0.1,1.5,1.2,2.5,2.6,2.5c1.6,0,2.5-1.1,2.4-2.2c0-1.5-1.2-2.1-2.3-2.1c-0.6,0-1,0.1-1.2,0.2L301.9,221.9
		z"/>
</g>
<g>
	<path fill="#FFFFFF" d="M189.3,334.2l5.4-7.6l3.1,0l0.1,8l2.2,0l0,2.1l-2.2,0l0,2.9l-2.4,0l0-2.9l-6.3,0.1L189.3,334.2z M195.5,329
		l-4,5.7l4.1-0.1L195.5,329z"/>
</g>
<g>
	<path fill="#FFFFFF" d="M215.4,266.2c0-1.5,1-2.8,2.4-3.3c-1.3-0.4-2.2-1.7-2.2-3c0-2.2,1.9-3.7,4.5-3.8s4.6,1.5,4.6,3.6
		c0,1.3-0.8,2.5-2.1,3c1.4,0.5,2.5,1.7,2.5,3.2c0,2.2-1.8,3.8-4.8,3.9C217.3,270,215.4,268.4,215.4,266.2z M222.7,265.9
		c0-1.1-0.9-2-2.5-2c-1.6,0-2.4,1-2.4,2.1c0,1.1,0.9,2,2.5,2C221.9,267.9,222.7,266.9,222.7,265.9z M222.3,260c0-1-0.9-1.9-2.2-1.8
		c-1.3,0-2.1,0.9-2.1,1.9c0,1.1,0.9,1.9,2.2,1.9C221.5,261.9,222.4,261.1,222.3,260z"/>
</g>
<g>
	<path fill="#032360" d="M101.2,275.9c0.6,0.4,1.7,0.7,2.6,0.6c3.1,0,4.7-1.9,4.8-4.7c-0.5,1-1.8,1.7-3.6,1.8
		c-2.7,0-5.1-1.7-5.2-4.9c0-3,2.4-5.2,5.5-5.2c3.1,0,5.8,2.1,5.9,6.8c0.1,5.3-2.4,8.5-7.4,8.6c-1.2,0-2.7-0.3-3.4-0.8L101.2,275.9z
		 M105.3,265.8c-1.5,0-2.8,1.1-2.8,2.8c0,1.7,1.3,2.7,2.9,2.7c1.5,0,2.8-1.1,2.8-2.8C108.2,266.9,106.8,265.8,105.3,265.8z"/>
</g>
<g>
	<path fill="#032360" d="M135.4,184.5l-0.1-10.1l-3.6,0.1l0-1.9c2.1-0.1,3.5-1.3,3.8-2.8l2.4,0l0.2,14.7L135.4,184.5z"/>
	<path fill="#032360" d="M142.1,171.8c0.9-1.4,2.5-2.4,4.7-2.5s3.7,0.9,4.7,2.3c1,1.5,1.4,3.3,1.4,5.3c0,2-0.3,3.8-1.2,5.3
		c-0.9,1.4-2.4,2.4-4.6,2.5s-3.8-0.9-4.7-2.3c-1-1.5-1.4-3.3-1.4-5.3C140.9,175.1,141.1,173.3,142.1,171.8z M144.7,181.2
		c0.5,0.7,1.2,1.1,2.3,1.1c1.1,0,1.7-0.5,2.3-1.1c0.7-0.9,1-2.3,1-4.2c0-1.9-0.4-3.3-1.1-4.2c-0.5-0.7-1.2-1.1-2.3-1.1
		c-1.1,0-1.8,0.5-2.3,1.1c-0.7,0.9-1,2.4-1,4.2S144,180.3,144.7,181.2z"/>
</g>
<path fill="#007A6D" d="M76.6,330.9c13.2-2.6,20.3,12.8,9.8,21.2c-0.9,0.7-2,1.3-3.2,1.5c-13.2,2.6-20.3-12.8-9.8-21.2
	C74.3,331.7,75.4,331.1,76.6,330.9z"/>
<g>
	<path fill="#FFFFFF" d="M77.3,344.5c0.1,1.4,1.2,2.4,2.7,2.4c1.4,0,2.4-1,2.4-2.4c0-1.6-1.2-2.4-2.5-2.4c-0.9,0-1.7,0.4-2.1,0.9
		l-2.3-0.8l1.5-6.6l7.1-0.1l0,2.1l-5.5,0.1l-0.8,3.3c0.6-0.6,1.5-0.9,2.5-0.9c2.6,0,4.5,1.5,4.5,4.3c0,2.4-1.8,4.5-4.8,4.5
		c-2.8,0-4.7-1.8-4.9-3.8L77.3,344.5z"/>
</g>
<g>
	<path fill="#FFFFFF" d="M45,225.5c-0.5-0.3-1.3-0.6-2.5-0.6c-2.8,0-4.7,1.9-4.9,4.8c0.8-1.2,2.2-1.8,3.7-1.8c2.9,0,5,1.9,5.1,4.9
		c0,3.1-2.4,5.1-5.5,5.2c-3.7,0.1-5.9-3-6-6.7c-0.1-5.3,3.2-8.6,7.8-8.7c1.4,0,2.5,0.3,3.1,0.7L45,225.5z M40.7,235.7
		c1.5,0,2.8-1.1,2.8-2.8c0-1.7-1.4-2.7-2.9-2.7c-1.5,0-2.8,1.1-2.8,2.8C37.8,234.7,39.2,235.7,40.7,235.7z"/>
</g>
<path fill="#C12B5D" d="M238.8,159.2c-7.5-13.3,6.7-26.4,19.4-18c1.1,0.7,2,1.7,2.7,2.9c7.5,13.3-6.7,26.4-19.4,18
	C240.4,161.4,239.5,160.4,238.8,159.2z"/>
<g>
	<path fill="#FFFFFF" d="M255.3,147.3c-1.2,1-5.3,4.8-5.9,12.4l-2.8,0c0.5-8.2,5.6-12.4,5.6-12.4l-7.9,0.1l0-2.4l11-0.2L255.3,147.3
		z"/>
</g>
<g>
	<path fill="#00AEEF" d="M281.3,58.4L281.3,58.4L281.3,58.4c-0.4,0.8-0.6,1.6-0.5,2.5l0,0l0,0c-0.8-0.4-1.6-0.6-2.5-0.5l0,0l0,0
		c0.4-0.8,0.6-1.6,0.5-2.5l0,0l0,0C279.6,58.3,280.4,58.5,281.3,58.4z"/>
	
		<line fill="none" stroke="#00AEEF" stroke-width="6.928107e-002" stroke-miterlimit="10" x1="278.2" y1="57" x2="281.4" y2="61.8"/>
	
		<line fill="none" stroke="#00AEEF" stroke-width="6.928107e-002" stroke-miterlimit="10" x1="282.1" y1="57.8" x2="277.4" y2="61"/>
</g>
<circle fill="#2368B5" cx="8.4" cy="18.8" r="8.4"/>
<circle fill="#2368B5" cx="117.5" cy="380.2" r="0.6"/>
<g>
	<path fill="#FFFFFF" d="M94,371.1L94,371.1L94,371.1c-0.5,1-0.7,2.1-0.6,3.1l0,0l0,0c-1-0.5-2.1-0.7-3.1-0.6l0,0l0,0
		c0.5-1,0.7-2.1,0.6-3.1l0,0l0,0C91.8,371,92.9,371.2,94,371.1z"/>
	
		<line fill="none" stroke="#FFFFFF" stroke-width="6.928107e-002" stroke-miterlimit="10" x1="90.1" y1="369.3" x2="94.1" y2="375.4"/>
	
		<line fill="none" stroke="#FFFFFF" stroke-width="6.928107e-002" stroke-miterlimit="10" x1="95.1" y1="370.3" x2="89.1" y2="374.4"/>
</g>
<g>
	<path fill="#FFFFFF" d="M23.3,306.6L23.3,306.6L23.3,306.6c-0.4,0.8-0.6,1.7-0.5,2.6l0,0l0,0c-0.8-0.4-1.7-0.6-2.6-0.5l0,0l0,0
		c0.4-0.8,0.6-1.7,0.5-2.6l0,0l0,0C21.4,306.5,22.3,306.7,23.3,306.6z"/>
	
		<line fill="none" stroke="#FFFFFF" stroke-width="6.928107e-002" stroke-miterlimit="10" x1="20" y1="305.1" x2="23.4" y2="310.2"/>
	
		<line fill="none" stroke="#FFFFFF" stroke-width="6.928107e-002" stroke-miterlimit="10" x1="24.2" y1="305.9" x2="19.1" y2="309.3"/>
</g>
<g>
	<circle fill="#9C8FC4" cx="58.1" cy="352" r="1.4"/>
	<circle fill="#9C8FC4" cx="56.4" cy="391.1" r="0.8"/>
	<circle fill="#9C8FC4" cx="77.8" cy="373.6" r="2.1"/>
	<circle fill="#9C8FC4" cx="52.9" cy="367" r="0.5"/>
	<circle fill="#9C8FC4" cx="94.4" cy="391" r="0.5"/>
	<circle fill="#9C8FC4" cx="39.2" cy="364.8" r="0.5"/>
	<path fill="#9C8FC4" d="M33.7,351.6c-0.1-0.5,0.5-0.8,0.9-0.5c0.1,0.1,0.1,0.2,0.2,0.3c0.1,0.5-0.5,0.8-0.9,0.5
		C33.8,351.8,33.8,351.7,33.7,351.6z"/>
	<circle fill="#9C8FC4" cx="50.7" cy="325.3" r="0.5"/>
	<circle fill="#9C8FC4" cx="25.6" cy="332.4" r="0.5"/>
</g>
<g>
	<g>
		<circle fill="#9C8FC4" cx="324.7" cy="43.7" r="1.1"/>
		<circle fill="#9C8FC4" cx="355.6" cy="55.1" r="0.7"/>
		<circle fill="#9C8FC4" cx="347.2" cy="33.3" r="1.7"/>
		<circle fill="#9C8FC4" cx="335.4" cy="51.7" r="0.4"/>
		<circle fill="#9C8FC4" cx="365.4" cy="24.5" r="0.4"/>
		<circle fill="#9C8FC4" cx="330.1" cy="62.1" r="0.4"/>
		<circle fill="#9C8FC4" cx="318.1" cy="62.7" r="0.4"/>
		<circle fill="#9C8FC4" cx="301.3" cy="42.7" r="0.4"/>
		<circle fill="#9C8FC4" cx="300.6" cy="64.7" r="0.4"/>
	</g>
	<path fill="none" stroke="#032360" stroke-width="0.2771" stroke-miterlimit="10" stroke-dasharray="3.3255" d="M181.8,30.8
		c16.5-1.4,49.6-19.8,74.7-5.7c25.1,14.1,91.5-1.2,102.2-25.1"/>
</g>
<g>
</g>
<g>
</g>
<g>
</g>
<g>
</g>
<g>
</g>
<g>
</g>
<g>
</g>
<g>
</g>
<g>
</g>
<g>
</g>
<g>
</g>
<g>
</g>
<g>
</g>
<g>
</g>
<g>
</g>
</svg>
