<?xml version="1.0" encoding="utf-8"?>
<!-- Generator: Adobe Illustrator 18.0.0, SVG Export Plug-In . SVG Version: 6.00 Build 0)  -->
<!DOCTYPE svg PUBLIC "-//W3C//DTD SVG 1.1//EN" "http://www.w3.org/Graphics/SVG/1.1/DTD/svg11.dtd">
<svg version="1.1" id="Layer_1" xmlns="http://www.w3.org/2000/svg" xmlns:xlink="http://www.w3.org/1999/xlink" x="0px" y="0px"
	 viewBox="0 0 352.7 241.2" enable-background="new 0 0 352.7 241.2" xml:space="preserve">
<circle fill="#C12B5D" cx="163.8" cy="194.9" r="7.9"/>
<circle fill="#007A6D" cx="111.5" cy="219.4" r="7.9"/>
<circle fill="#007A6D" cx="236.5" cy="214.3" r="7.9"/>
<circle fill="#007A6D" cx="223.8" cy="93.2" r="7.6"/>
<circle fill="#F6A822" cx="152.6" cy="117.3" r="8.9"/>
<circle fill="#F6A822" cx="95.1" cy="144" r="8.9"/>
<circle fill="#007A6D" cx="71.8" cy="105.5" r="8.9"/>
<circle fill="#2368B5" cx="157.9" cy="156.2" r="8.5"/>
<path fill="none" stroke="#032360" stroke-width="0.2078" stroke-miterlimit="10" d="M46.8,172.1c-2.1-5.1-3.2-10.5-3.2-16
	c0-10.7,4.2-20.8,11.6-29.8"/>
<path fill="none" stroke="#032360" stroke-width="0.2078" stroke-miterlimit="10" d="M99.5,220.9c-14.3-4.3-26.9-10.3-37-17.6"/>
<path fill="none" stroke="#032360" stroke-width="0.2078" stroke-miterlimit="10" d="M224.2,215.5c-18.7,7.9-41.6,12.6-66.3,12.6
	c-11.8,0-23.2-1.1-33.8-3"/>
<path fill="none" stroke="#032360" stroke-width="0.2078" stroke-miterlimit="10" d="M269.9,183.8c-5.7,8.3-14,15.7-24.3,22"/>
<path fill="none" stroke="#032360" stroke-width="0.2078" stroke-miterlimit="10" d="M251.9,115.2c13.4,10.1,22,22.5,24,36.1"/>
<path fill="none" stroke="#032360" stroke-width="0.2078" stroke-miterlimit="10" d="M80.8,101c20.3-11,47.4-17.8,77.1-17.8
	c18.6,0,36.1,2.6,51.7,7.3"/>
<path fill="none" stroke="#032360" stroke-width="0.2078" stroke-miterlimit="10" d="M153.1,198c-24.4-0.7-45.2-9.7-54.2-22.5"/>
<path fill="none" stroke="#032360" stroke-width="0.2078" stroke-miterlimit="10" d="M219.3,173.1c-6.5,12.4-23.7,22-45.2,25"/>
<path fill="none" stroke="#032360" stroke-width="0.2078" stroke-miterlimit="10" d="M163.9,116.3c20.1,0.5,37.8,6.8,48.4,16.1"/>
<path fill="none" stroke="#032360" stroke-width="0.2078" stroke-miterlimit="10" d="M100.9,135.1c8.4-8.9,22.8-15.5,40-17.9"/>
<circle fill="#007A6D" cx="272.4" cy="164.2" r="7.6"/>
<g>
	<path fill="#FFFFFF" d="M269.2,163c0-0.1,0-0.3,0-0.5c0-1.4,1-2.6,2.8-2.6c1.8,0,2.8,1.1,2.8,2.5c0,1-0.6,1.9-1.5,2.5l-1.5,1
		c-0.4,0.2-0.7,0.5-0.8,0.9h3.9v1.3h-5.7c0-1.4,0.5-2.4,1.9-3.3l1.3-0.8c0.7-0.4,1-0.9,1-1.5c0-0.6-0.4-1.2-1.3-1.2
		c-0.9,0-1.4,0.6-1.4,1.5c0,0.1,0,0.3,0,0.4L269.2,163z"/>
</g>
<g>
	<path fill="#FFFFFF" d="M223.2,96.9v-5.8h-2.1V90c1.2,0,2.1-0.7,2.2-1.6h1.4v8.5H223.2z"/>
</g>
<g>
	<path fill="#FFFFFF" d="M234.8,213.3l2.4-2.2h-4v-1.4h6.1v1.4l-2.4,2.1c1.3,0,2.6,1,2.6,2.7c0,1.5-1.2,2.9-3.3,2.9
		c-2,0-3.2-1.3-3.4-2.8l1.6-0.3c0,1,0.8,1.7,1.8,1.7c1.1,0,1.7-0.7,1.7-1.5c0-1-0.8-1.5-1.6-1.5c-0.4,0-0.7,0.1-0.8,0.1L234.8,213.3
		z"/>
</g>
<g>
	<path fill="#FFFFFF" d="M107.6,220l3.8-5.1h2.1v5.4h1.5v1.4h-1.5v1.9h-1.6v-1.9h-4.2V220z M111.8,216.5l-2.8,3.8h2.8V216.5z"/>
</g>
<g>
	<path fill="#FFFFFF" d="M160.5,196.9c0-1,0.7-1.9,1.6-2.2c-0.9-0.3-1.4-1.2-1.4-2c0-1.5,1.3-2.5,3.1-2.5s3.1,1,3.1,2.5
		c0,0.9-0.6,1.7-1.4,2c0.9,0.3,1.6,1.2,1.6,2.2c0,1.5-1.3,2.6-3.3,2.6C161.8,199.5,160.5,198.4,160.5,196.9z M165.5,196.8
		c0-0.7-0.6-1.4-1.7-1.4c-1.1,0-1.7,0.6-1.7,1.4c0,0.7,0.6,1.4,1.7,1.4C164.9,198.1,165.5,197.5,165.5,196.8z M165.3,192.8
		c0-0.7-0.6-1.3-1.5-1.3s-1.5,0.6-1.5,1.3c0,0.7,0.6,1.3,1.5,1.3C164.7,194.1,165.3,193.6,165.3,192.8z"/>
</g>
<g>
	<path fill="#032360" d="M92.2,147c0.4,0.2,1.1,0.5,1.8,0.5c2.1,0,3.2-1.3,3.3-3.1c-0.4,0.6-1.2,1.2-2.4,1.2c-1.8,0-3.4-1.2-3.4-3.3
		c0-2.1,1.7-3.5,3.7-3.5c2.1,0,3.9,1.5,3.9,4.7c0,3.6-1.7,5.8-5.1,5.8c-0.8,0-1.8-0.2-2.3-0.6L92.2,147z M95.1,140.3
		c-1,0-1.9,0.7-1.9,1.8c0,1.2,0.9,1.9,1.9,1.9c1,0,1.9-0.7,1.9-1.9C97,141,96.1,140.3,95.1,140.3z"/>
</g>
<g>
	<path fill="#032360" d="M147.7,122.2v-6.8h-2.4v-1.3c1.4,0,2.4-0.8,2.6-1.9h1.6v10H147.7z"/>
	<path fill="#032360" d="M152.3,113.7c0.6-1,1.7-1.6,3.2-1.6c1.5,0,2.5,0.7,3.2,1.6c0.7,1,0.9,2.3,0.9,3.6s-0.2,2.6-0.9,3.6
		c-0.6,1-1.7,1.6-3.2,1.6c-1.5,0-2.5-0.7-3.2-1.6c-0.7-1-0.9-2.3-0.9-3.6S151.6,114.7,152.3,113.7z M153.9,120.1
		c0.3,0.4,0.8,0.7,1.5,0.7s1.2-0.3,1.5-0.7c0.5-0.6,0.7-1.6,0.7-2.8s-0.2-2.2-0.7-2.8c-0.4-0.4-0.8-0.7-1.5-0.7s-1.2,0.3-1.5,0.7
		c-0.5,0.6-0.7,1.6-0.7,2.8S153.5,119.5,153.9,120.1z"/>
</g>
<g>
	<circle fill="#007A6D" cx="52.2" cy="178.7" r="7.8"/>
	<g>
		<path fill="#FFFFFF" d="M50.4,180.2c0.1,0.9,0.8,1.6,1.8,1.6c0.9,0,1.7-0.6,1.7-1.6c0-1.1-0.8-1.6-1.7-1.6c-0.6,0-1.2,0.3-1.5,0.6
			l-1.5-0.6l1.1-4.4H55v1.4h-3.7l-0.5,2.2c0.4-0.4,1.1-0.6,1.7-0.6c1.7,0,3,1.1,3,2.9c0,1.7-1.3,3-3.3,3c-1.9,0-3.2-1.3-3.3-2.6
			L50.4,180.2z"/>
	</g>
</g>
<g>
	<path fill="#FFFFFF" d="M74.5,101.5c-0.4-0.2-0.9-0.4-1.7-0.4c-1.9,0-3.2,1.2-3.4,3.2c0.5-0.8,1.5-1.2,2.5-1.2c2,0,3.4,1.3,3.4,3.4
		c0,2.1-1.7,3.5-3.8,3.5c-2.5,0-4-2.1-4-4.6c0-3.6,2.3-5.8,5.3-5.8c0.9,0,1.7,0.2,2.1,0.5L74.5,101.5z M71.5,108.3
		c1,0,1.9-0.7,1.9-1.9c0-1.2-0.9-1.9-1.9-1.9s-1.9,0.7-1.9,1.9C69.6,107.6,70.5,108.3,71.5,108.3z"/>
</g>
<circle fill="#C12B5D" cx="219" cy="141" r="8.9"/>
<g>
	<path fill="#FFFFFF" d="M222.8,138.3c-0.8,0.7-3.6,3.2-4.1,8.3h-1.9c0.4-5.6,3.9-8.3,3.9-8.3h-5.3v-1.6h7.4V138.3z"/>
</g>
<g>
	<path fill="#00AEEF" d="M328,118.7L328,118.7L328,118.7c-0.7,0.4-1.2,0.9-1.6,1.6l0,0l0,0c-0.4-0.7-0.9-1.2-1.6-1.6l0,0l0,0
		c0.7-0.4,1.2-0.9,1.6-1.6l0,0l0,0C326.7,117.8,327.3,118.4,328,118.7z"/>
	
		<line fill="none" stroke="#00AEEF" stroke-width="6.928107e-002" stroke-miterlimit="10" x1="326.4" y1="116.2" x2="326.4" y2="121.3"/>
	
		<line fill="none" stroke="#00AEEF" stroke-width="6.928107e-002" stroke-miterlimit="10" x1="328.9" y1="118.7" x2="323.8" y2="118.7"/>
</g>
<circle fill="#2368B5" cx="8.4" cy="9.4" r="8.4"/>
<circle fill="#2368B5" cx="59.4" cy="240.8" r="0.4"/>
<g>
	<path fill="#FFFFFF" d="M48.7,225.5L48.7,225.5L48.7,225.5c-0.7,0.4-1.3,1-1.7,1.7l0,0l0,0c-0.4-0.7-1-1.3-1.7-1.7l0,0l0,0
		c0.7-0.4,1.3-1,1.7-1.7l0,0l0,0C47.4,224.5,48,225.1,48.7,225.5z"/>
	<line fill="none" stroke="#FFFFFF" stroke-width="6.928107e-002" stroke-miterlimit="10" x1="47" y1="222.8" x2="47" y2="228.2"/>
	
		<line fill="none" stroke="#FFFFFF" stroke-width="6.928107e-002" stroke-miterlimit="10" x1="49.7" y1="225.5" x2="44.3" y2="225.5"/>
</g>
<g>
	<path fill="#FFFFFF" d="M33.4,152.1L33.4,152.1L33.4,152.1c-0.6,0.3-1,0.8-1.4,1.4l0,0l0,0c-0.3-0.6-0.8-1-1.4-1.4l0,0l0,0
		c0.6-0.3,1-0.8,1.4-1.4l0,0l0,0C32.4,151.3,32.8,151.8,33.4,152.1z"/>
	<line fill="none" stroke="#FFFFFF" stroke-width="6.928107e-002" stroke-miterlimit="10" x1="32" y1="149.9" x2="32" y2="154.3"/>
	
		<line fill="none" stroke="#FFFFFF" stroke-width="6.928107e-002" stroke-miterlimit="10" x1="34.2" y1="152.1" x2="29.9" y2="152.1"/>
</g>
<g>
	<circle fill="#9C8FC4" cx="48.6" cy="128.4" r="1.1"/>
	<circle fill="#9C8FC4" cx="47.2" cy="159.6" r="0.6"/>
	<circle fill="#9C8FC4" cx="64.4" cy="145.7" r="1.6"/>
	<circle fill="#9C8FC4" cx="44.5" cy="140.4" r="0.4"/>
	<circle fill="#9C8FC4" cx="77.6" cy="159.6" r="0.4"/>
	<circle fill="#9C8FC4" cx="33.5" cy="138.6" r="0.4"/>
	<circle fill="#9C8FC4" cx="29.6" cy="128" r="0.4"/>
	<circle fill="#9C8FC4" cx="42.7" cy="107" r="0.4"/>
	<circle fill="#9C8FC4" cx="22.7" cy="112.7" r="0.4"/>
</g>
<g>
	<g>
		<circle fill="#9C8FC4" cx="304.4" cy="36.7" r="1.1"/>
		<circle fill="#9C8FC4" cx="335.4" cy="48.2" r="0.7"/>
		<circle fill="#9C8FC4" cx="326.9" cy="26.4" r="1.7"/>
		<circle fill="#9C8FC4" cx="315.2" cy="44.8" r="0.4"/>
		<circle fill="#9C8FC4" cx="345.1" cy="17.6" r="0.4"/>
		<circle fill="#9C8FC4" cx="309.8" cy="55.2" r="0.4"/>
		<circle fill="#9C8FC4" cx="297.9" cy="55.7" r="0.4"/>
		<circle fill="#9C8FC4" cx="281.1" cy="35.7" r="0.4"/>
		<circle fill="#9C8FC4" cx="280.3" cy="57.7" r="0.4"/>
	</g>
	<path fill="none" stroke="#032360" stroke-width="0.2771" stroke-miterlimit="10" stroke-dasharray="3.3255" d="M175.6,30.8
		c16.5-1.4,49.6-19.8,74.7-5.7s91.5-1.2,102.2-25.1"/>
</g>
<g>
</g>
<g>
</g>
<g>
</g>
<g>
</g>
<g>
</g>
<g>
</g>
<g>
</g>
<g>
</g>
<g>
</g>
<g>
</g>
<g>
</g>
<g>
</g>
<g>
</g>
<g>
</g>
<g>
</g>
</svg>
