<?xml version="1.0" encoding="utf-8"?>
<!-- Generator: Adobe Illustrator 18.0.0, SVG Export Plug-In . SVG Version: 6.00 Build 0)  -->
<!DOCTYPE svg PUBLIC "-//W3C//DTD SVG 1.1//EN" "http://www.w3.org/Graphics/SVG/1.1/DTD/svg11.dtd">
<svg version="1.1" id="Layer_1" xmlns="http://www.w3.org/2000/svg" xmlns:xlink="http://www.w3.org/1999/xlink" x="0px" y="0px"
	 viewBox="0 0 166.2 112.1" enable-background="new 0 0 166.2 112.1" xml:space="preserve">
<g>
	<path fill="#7F58A5" d="M33.5,106.3H22.6c-2.6,0-4.6-2.1-4.6-4.6V99h-6.4c-0.1,0-0.2-0.1-0.2-0.2c0-0.1,0.1-0.2,0.2-0.2h6.5
		c0.1,0,0.2,0.1,0.2,0.2v2.8c0,2.4,1.9,4.3,4.3,4.3h10.9c0.1,0,0.2,0.1,0.2,0.2C33.7,106.2,33.6,106.3,33.5,106.3z"/>
	<path fill="#7F58A5" d="M118.3,108.4H55.9c-0.1,0-0.2-0.1-0.2-0.2c0-0.1,0.1-0.2,0.2-0.2h62.4c2.4,0,4.3-1.9,4.3-4.3
		c0-2.6,2.2-4.8,4.8-4.8h17.7c2.9,0,5.3-2.4,5.3-5.3c0-2.9-2.4-5.3-5.3-5.3h-25.4c-2.6,0-4.8-2.2-4.8-4.8c0-2.4-1.9-4.3-4.3-4.3h-19
		c-0.1,0-0.2-0.1-0.2-0.2c0-0.1,0.1-0.2,0.2-0.2h19c2.6,0,4.8,2.2,4.8,4.8c0,2.4,1.9,4.3,4.3,4.3h25.4c3.2,0,5.8,2.6,5.8,5.8
		c0,3.2-2.6,5.8-5.8,5.8h-17.7c-2.4,0-4.3,1.9-4.3,4.3C123.1,106.3,120.9,108.4,118.3,108.4z"/>
	<path fill="#7F58A5" d="M61.6,112.1H27.7c-0.1,0-0.2-0.1-0.2-0.2c0-0.1,0.1-0.2,0.2-0.2h33.9c0.1,0,0.2,0.1,0.2,0.2
		C61.7,112,61.6,112.1,61.6,112.1z"/>
	<path fill="#7F58A5" d="M14.1,89.9H0.2c-0.1,0-0.2-0.1-0.2-0.2V0.2C0,0.1,0.1,0,0.2,0s0.2,0.1,0.2,0.2v89.2h13.4v-3.2
		c0-4.6,3.8-8.4,8.4-8.4h55c0.1,0,0.2,0.1,0.2,0.2s-0.1,0.2-0.2,0.2h-55c-4.4,0-7.9,3.6-7.9,7.9v3.4C14.3,89.8,14.2,89.9,14.1,89.9z
		"/>
	<path fill="#7F58A5" d="M166,107.5h-33.9c-0.1,0-0.2-0.1-0.2-0.2s0.1-0.2,0.2-0.2H166c0.1,0,0.2,0.1,0.2,0.2S166.1,107.5,166,107.5
		z"/>
</g>
<g>
</g>
<g>
</g>
<g>
</g>
<g>
</g>
<g>
</g>
<g>
</g>
<g>
</g>
<g>
</g>
<g>
</g>
<g>
</g>
<g>
</g>
<g>
</g>
<g>
</g>
<g>
</g>
<g>
</g>
</svg>
