<?xml version="1.0" encoding="utf-8"?>
<!-- Generator: Adobe Illustrator 18.0.0, SVG Export Plug-In . SVG Version: 6.00 Build 0)  -->
<!DOCTYPE svg PUBLIC "-//W3C//DTD SVG 1.1//EN" "http://www.w3.org/Graphics/SVG/1.1/DTD/svg11.dtd">
<svg version="1.1" id="Layer_1" xmlns="http://www.w3.org/2000/svg" xmlns:xlink="http://www.w3.org/1999/xlink" x="0px" y="0px"
	 viewBox="0 0 161.7 101.2" enable-background="new 0 0 161.7 101.2" xml:space="preserve">
<g>
	<line fill="none" stroke="#414042" stroke-width="4.715824e-002" stroke-miterlimit="10" x1="17.4" y1="59" x2="22.9" y2="59"/>
	
		<line fill="none" stroke="#414042" stroke-width="4.715824e-002" stroke-miterlimit="10" x1="17.4" y1="45.5" x2="22.9" y2="45.5"/>
	
		<line fill="none" stroke="#414042" stroke-width="4.715824e-002" stroke-miterlimit="10" x1="17.4" y1="32.1" x2="22.9" y2="32.1"/>
	
		<line fill="none" stroke="#414042" stroke-width="4.715824e-002" stroke-miterlimit="10" x1="17.4" y1="18.6" x2="22.9" y2="18.6"/>
	
		<line fill="none" stroke="#414042" stroke-width="4.715824e-002" stroke-miterlimit="10" x1="17.4" y1="72.4" x2="22.9" y2="72.4"/>
	
		<line fill="none" stroke="#414042" stroke-width="4.715824e-002" stroke-miterlimit="10" x1="17.4" y1="85.9" x2="22.9" y2="85.9"/>
	<line fill="none" stroke="#414042" stroke-width="8.593263e-002" stroke-miterlimit="10" x1="19" y1="0" x2="19" y2="90.5"/>
	<g>
		<path fill="#414042" d="M1.7,6.9V4.1h-1V3.7c0.6,0,0.9-0.3,1-0.7h0.5v4H1.7z"/>
		<path fill="#414042" d="M3,4.3c0-0.1,0-0.1,0-0.2c0-0.7,0.5-1.3,1.4-1.3c0.9,0,1.3,0.6,1.3,1.2C5.7,4.6,5.4,5,5,5.3L4.2,5.8
			C4,5.9,3.8,6.1,3.7,6.3h2v0.6H3c0-0.7,0.3-1.1,0.9-1.6l0.7-0.4C5,4.6,5.1,4.4,5.1,4.1c0-0.4-0.2-0.7-0.7-0.7
			c-0.5,0-0.8,0.4-0.8,0.8c0,0.1,0,0.1,0,0.2L3,4.3z"/>
		<path fill="#414042" d="M6.7,3.5c0.3-0.4,0.7-0.6,1.2-0.6s1,0.3,1.2,0.6c0.3,0.4,0.4,0.9,0.4,1.4S9.4,6,9.1,6.4
			C8.9,6.7,8.5,7,7.9,7s-1-0.3-1.2-0.6C6.4,6,6.3,5.5,6.3,4.9S6.4,3.9,6.7,3.5z M7.3,6.2c0.2,0.2,0.3,0.3,0.6,0.3s0.5-0.1,0.6-0.3
			c0.2-0.3,0.3-0.7,0.3-1.3s-0.1-1-0.3-1.3C8.4,3.5,8.2,3.4,7.9,3.4S7.4,3.5,7.3,3.6C7,3.9,6.9,4.3,6.9,4.9S7,5.9,7.3,6.2z"/>
		<path fill="#414042" d="M11,2.9c0.5,0,1,0.4,1,1c0,0.5-0.5,1-1,1c-0.5,0-1-0.4-1-1C10,3.3,10.4,2.9,11,2.9z M10.5,6.9l2.9-4h0.6
			l-2.8,4H10.5z M11,4.3c0.3,0,0.5-0.2,0.5-0.5c0-0.3-0.2-0.5-0.5-0.5c-0.3,0-0.5,0.2-0.5,0.5C10.5,4.1,10.7,4.3,11,4.3z M13.4,5
			c0.5,0,1,0.4,1,1c0,0.5-0.5,1-1,1s-1-0.4-1-1C12.4,5.4,12.9,5,13.4,5z M13.4,6.5c0.3,0,0.5-0.2,0.5-0.5c0-0.3-0.2-0.5-0.5-0.5
			c-0.3,0-0.5,0.2-0.5,0.5C12.9,6.3,13.1,6.5,13.4,6.5z"/>
	</g>
	<g>
		<path fill="#414042" d="M1.7,19.9v-2.8h-1v-0.4c0.6,0,0.9-0.3,1-0.7h0.5v4H1.7z"/>
		<path fill="#414042" d="M3.8,19.9v-2.8h-1v-0.4c0.6,0,0.9-0.3,1-0.7h0.5v4H3.8z"/>
		<path fill="#414042" d="M5.6,16.5c0.3-0.4,0.7-0.6,1.2-0.6s1,0.3,1.2,0.6c0.3,0.4,0.4,0.9,0.4,1.4S8.3,19,8,19.4
			C7.8,19.7,7.4,20,6.8,20s-1-0.3-1.2-0.6c-0.3-0.4-0.4-0.9-0.4-1.4S5.3,16.9,5.6,16.5z M6.2,19.2c0.2,0.2,0.3,0.3,0.6,0.3
			s0.5-0.1,0.6-0.3c0.2-0.3,0.3-0.7,0.3-1.3s-0.1-1-0.3-1.3c-0.2-0.2-0.3-0.3-0.6-0.3s-0.5,0.1-0.6,0.3c-0.2,0.3-0.3,0.7-0.3,1.3
			S5.9,18.9,6.2,19.2z"/>
		<path fill="#414042" d="M9.9,15.9c0.5,0,1,0.4,1,1c0,0.5-0.5,1-1,1c-0.5,0-1-0.4-1-1C8.9,16.3,9.4,15.9,9.9,15.9z M9.4,19.9l2.9-4
			h0.6l-2.8,4H9.4z M9.9,17.3c0.3,0,0.5-0.2,0.5-0.5c0-0.3-0.2-0.5-0.5-0.5c-0.3,0-0.5,0.2-0.5,0.5C9.4,17.1,9.6,17.3,9.9,17.3z
			 M12.3,18c0.5,0,1,0.4,1,1c0,0.5-0.5,1-1,1s-1-0.4-1-1C11.3,18.4,11.8,18,12.3,18z M12.3,19.5c0.3,0,0.5-0.2,0.5-0.5
			c0-0.3-0.2-0.5-0.5-0.5c-0.3,0-0.5,0.2-0.5,0.5C11.8,19.3,12.1,19.5,12.3,19.5z"/>
	</g>
	<g>
		<path fill="#414042" d="M1.7,33.7v-2.8h-1v-0.4c0.6,0,0.9-0.3,1-0.7h0.5v4H1.7z"/>
		<path fill="#414042" d="M3.4,30.3c0.3-0.4,0.7-0.6,1.2-0.6s1,0.3,1.2,0.6c0.3,0.4,0.4,0.9,0.4,1.4c0,0.5-0.1,1-0.4,1.4
			c-0.3,0.4-0.7,0.6-1.2,0.6s-1-0.3-1.2-0.6c-0.3-0.4-0.4-0.9-0.4-1.4C3.1,31.2,3.2,30.7,3.4,30.3z M4,33c0.2,0.2,0.3,0.3,0.6,0.3
			s0.5-0.1,0.6-0.3c0.2-0.3,0.3-0.7,0.3-1.3c0-0.6-0.1-1-0.3-1.3c-0.2-0.2-0.3-0.3-0.6-0.3S4.2,30.3,4,30.5
			c-0.2,0.3-0.3,0.7-0.3,1.3C3.7,32.4,3.8,32.8,4,33z"/>
		<path fill="#414042" d="M7.2,30.3c0.3-0.4,0.7-0.6,1.2-0.6s1,0.3,1.2,0.6c0.3,0.4,0.4,0.9,0.4,1.4c0,0.5-0.1,1-0.4,1.4
			c-0.3,0.4-0.7,0.6-1.2,0.6s-1-0.3-1.2-0.6c-0.3-0.4-0.4-0.9-0.4-1.4C6.8,31.2,6.9,30.7,7.2,30.3z M7.7,33c0.2,0.2,0.3,0.3,0.6,0.3
			S8.9,33.2,9,33c0.2-0.3,0.3-0.7,0.3-1.3c0-0.6-0.1-1-0.3-1.3c-0.2-0.2-0.3-0.3-0.6-0.3s-0.5,0.1-0.6,0.3c-0.2,0.3-0.3,0.7-0.3,1.3
			C7.4,32.4,7.5,32.8,7.7,33z"/>
		<path fill="#414042" d="M11.5,29.7c0.5,0,1,0.4,1,1c0,0.5-0.5,1-1,1c-0.5,0-1-0.4-1-1C10.5,30.1,10.9,29.7,11.5,29.7z M11,33.7
			l2.9-4h0.6l-2.8,4H11z M11.5,31.2c0.3,0,0.5-0.2,0.5-0.5c0-0.3-0.2-0.5-0.5-0.5c-0.3,0-0.5,0.2-0.5,0.5C11,31,11.2,31.2,11.5,31.2
			z M13.9,31.9c0.5,0,1,0.4,1,1c0,0.5-0.5,1-1,1s-1-0.4-1-1C12.9,32.3,13.4,31.9,13.9,31.9z M13.9,33.3c0.3,0,0.5-0.2,0.5-0.5
			c0-0.3-0.2-0.5-0.5-0.5c-0.3,0-0.5,0.2-0.5,0.5C13.4,33.1,13.6,33.3,13.9,33.3z"/>
	</g>
	<g>
		<path fill="#414042" d="M0.5,46.1c0.2,0.1,0.5,0.2,0.7,0.2c1,0,1.4-0.6,1.4-1.4c-0.1,0.3-0.5,0.5-1,0.5c-0.7,0-1.4-0.5-1.4-1.3
			c0-0.8,0.7-1.4,1.5-1.4c0.8,0,1.5,0.6,1.5,1.8c0,1.5-0.6,2.3-2,2.3c-0.3,0-0.7-0.1-0.9-0.2L0.5,46.1z M1.7,43.2
			c-0.4,0-0.9,0.3-0.9,0.8c0,0.5,0.4,0.8,0.9,0.8c0.4,0,0.9-0.3,0.9-0.8C2.6,43.5,2.1,43.2,1.7,43.2z"/>
		<path fill="#414042" d="M4.2,43.3c0.3-0.4,0.7-0.6,1.2-0.6s1,0.3,1.2,0.6C6.9,43.7,7,44.2,7,44.8s-0.1,1-0.4,1.4
			c-0.3,0.4-0.7,0.6-1.2,0.6s-1-0.3-1.2-0.6c-0.3-0.4-0.4-0.9-0.4-1.4S3.9,43.7,4.2,43.3z M4.8,46c0.2,0.2,0.3,0.3,0.6,0.3
			S5.9,46.2,6,46c0.2-0.3,0.3-0.7,0.3-1.3s-0.1-1-0.3-1.3c-0.2-0.2-0.3-0.3-0.6-0.3s-0.5,0.1-0.6,0.3c-0.2,0.3-0.3,0.7-0.3,1.3
			S4.5,45.8,4.8,46z"/>
		<path fill="#414042" d="M8.5,42.7c0.5,0,1,0.4,1,1c0,0.5-0.5,1-1,1c-0.5,0-1-0.4-1-1C7.5,43.1,8,42.7,8.5,42.7z M8,46.7l2.9-4h0.6
			l-2.8,4H8z M8.5,44.2C8.8,44.2,9,44,9,43.7c0-0.3-0.2-0.5-0.5-0.5c-0.3,0-0.5,0.2-0.5,0.5C8,44,8.2,44.2,8.5,44.2z M10.9,44.9
			c0.5,0,1,0.4,1,1c0,0.5-0.5,1-1,1s-1-0.4-1-1C9.9,45.3,10.4,44.9,10.9,44.9z M10.9,46.3c0.3,0,0.5-0.2,0.5-0.5
			c0-0.3-0.2-0.5-0.5-0.5c-0.3,0-0.5,0.2-0.5,0.5C10.5,46.1,10.7,46.3,10.9,46.3z"/>
	</g>
	<g>
		<path fill="#414042" d="M0.3,59c0-0.5,0.3-0.8,0.8-1c-0.4-0.1-0.7-0.5-0.7-0.9C0.4,56.4,1,56,1.7,56s1.3,0.5,1.3,1.1
			c0,0.4-0.3,0.8-0.7,0.9c0.4,0.1,0.8,0.5,0.8,1c0,0.6-0.5,1.1-1.4,1.1S0.3,59.6,0.3,59z M2.6,58.9c0-0.4-0.3-0.7-0.8-0.7
			s-0.8,0.3-0.8,0.7c0,0.4,0.3,0.7,0.8,0.7C2.3,59.6,2.6,59.3,2.6,58.9z M2.5,57.1c0-0.4-0.3-0.6-0.7-0.6c-0.4,0-0.7,0.3-0.7,0.6
			c0,0.4,0.3,0.6,0.7,0.6C2.1,57.7,2.5,57.5,2.5,57.1z"/>
		<path fill="#414042" d="M4.1,56.6C4.3,56.2,4.7,56,5.3,56s1,0.3,1.2,0.6C6.8,57,6.9,57.5,6.9,58s-0.1,1-0.4,1.4
			c-0.3,0.4-0.7,0.6-1.2,0.6s-1-0.3-1.2-0.6c-0.3-0.4-0.4-0.9-0.4-1.4S3.8,57,4.1,56.6z M4.7,59.3c0.2,0.2,0.3,0.3,0.6,0.3
			s0.5-0.1,0.6-0.3c0.2-0.3,0.3-0.7,0.3-1.3s-0.1-1-0.3-1.3c-0.2-0.2-0.3-0.3-0.6-0.3s-0.5,0.1-0.6,0.3C4.4,57,4.3,57.4,4.3,58
			S4.4,59.1,4.7,59.3z"/>
		<path fill="#414042" d="M8.4,56c0.5,0,1,0.4,1,1c0,0.5-0.5,1-1,1c-0.5,0-1-0.4-1-1C7.4,56.4,7.8,56,8.4,56z M7.9,60l2.9-4h0.6
			l-2.8,4H7.9z M8.4,57.5c0.3,0,0.5-0.2,0.5-0.5c0-0.3-0.2-0.5-0.5-0.5c-0.3,0-0.5,0.2-0.5,0.5C7.9,57.3,8.1,57.5,8.4,57.5z
			 M10.8,58.1c0.5,0,1,0.4,1,1c0,0.5-0.5,1-1,1s-1-0.4-1-1C9.8,58.6,10.3,58.1,10.8,58.1z M10.8,59.6c0.3,0,0.5-0.2,0.5-0.5
			c0-0.3-0.2-0.5-0.5-0.5c-0.3,0-0.5,0.2-0.5,0.5C10.3,59.4,10.5,59.6,10.8,59.6z"/>
	</g>
	<g>
		<path fill="#414042" d="M2.9,70.8C2.6,71,1.4,72,1.3,74.2H0.6c0.2-2.3,1.6-3.4,1.6-3.4H0v-0.6h2.9V70.8z"/>
		<path fill="#414042" d="M3.5,70.7c0.3-0.4,0.7-0.6,1.2-0.6s1,0.3,1.2,0.6c0.3,0.4,0.4,0.9,0.4,1.4s-0.1,1-0.4,1.4
			c-0.3,0.4-0.7,0.6-1.2,0.6s-1-0.3-1.2-0.6c-0.3-0.4-0.4-0.9-0.4-1.4S3.2,71.1,3.5,70.7z M4.1,73.5c0.2,0.2,0.3,0.3,0.6,0.3
			s0.5-0.1,0.6-0.3c0.2-0.3,0.3-0.7,0.3-1.3s-0.1-1-0.3-1.3c-0.2-0.2-0.3-0.3-0.6-0.3s-0.5,0.1-0.6,0.3c-0.2,0.3-0.3,0.7-0.3,1.3
			S3.8,73.2,4.1,73.5z"/>
		<path fill="#414042" d="M7.8,70.1c0.5,0,1,0.4,1,1c0,0.5-0.5,1-1,1c-0.5,0-1-0.4-1-1C6.8,70.6,7.2,70.1,7.8,70.1z M7.3,74.2l2.9-4
			h0.6l-2.8,4H7.3z M7.8,71.6c0.3,0,0.5-0.2,0.5-0.5c0-0.3-0.2-0.5-0.5-0.5c-0.3,0-0.5,0.2-0.5,0.5C7.3,71.4,7.5,71.6,7.8,71.6z
			 M10.2,72.3c0.5,0,1,0.4,1,1c0,0.5-0.5,1-1,1s-1-0.4-1-1C9.2,72.7,9.7,72.3,10.2,72.3z M10.2,73.7c0.3,0,0.5-0.2,0.5-0.5
			c0-0.3-0.2-0.5-0.5-0.5c-0.3,0-0.5,0.2-0.5,0.5C9.7,73.5,9.9,73.7,10.2,73.7z"/>
	</g>
	<g>
		<path fill="#414042" d="M3,84.1c-0.1-0.1-0.4-0.2-0.7-0.2c-0.8,0-1.3,0.6-1.4,1.4c0.2-0.3,0.5-0.5,1-0.5c0.8,0,1.4,0.5,1.4,1.4
			c0,0.9-0.7,1.4-1.5,1.4c-0.8,0-1.6-0.5-1.6-1.8c0-1.5,0.9-2.3,2-2.3c0.4,0,0.7,0.1,0.9,0.2L3,84.1z M1.9,87c0.5,0,0.9-0.3,0.9-0.8
			c0-0.5-0.4-0.8-0.9-0.8S1,85.6,1,86.2C1,86.7,1.4,87,1.9,87z"/>
		<path fill="#414042" d="M4.2,84c0.3-0.4,0.7-0.6,1.2-0.6s1,0.3,1.2,0.6C6.9,84.4,7,84.9,7,85.4s-0.1,1-0.4,1.4
			c-0.3,0.4-0.7,0.6-1.2,0.6s-1-0.3-1.2-0.6C4,86.5,3.9,86,3.9,85.4S4,84.4,4.2,84z M4.8,86.7C5,86.9,5.2,87,5.4,87s0.5-0.1,0.6-0.3
			c0.2-0.3,0.3-0.7,0.3-1.3s-0.1-1-0.3-1.3c-0.2-0.2-0.3-0.3-0.6-0.3S5,84,4.8,84.2c-0.2,0.3-0.3,0.7-0.3,1.3S4.6,86.5,4.8,86.7z"/>
		<path fill="#414042" d="M8.5,83.4c0.5,0,1,0.4,1,1c0,0.5-0.5,1-1,1c-0.5,0-1-0.4-1-1C7.5,83.8,8,83.4,8.5,83.4z M8,87.4l2.9-4h0.6
			l-2.8,4H8z M8.5,84.9c0.3,0,0.5-0.2,0.5-0.5c0-0.3-0.2-0.5-0.5-0.5c-0.3,0-0.5,0.2-0.5,0.5C8,84.7,8.3,84.9,8.5,84.9z M10.9,85.6
			c0.5,0,1,0.4,1,1c0,0.5-0.5,1-1,1s-1-0.4-1-1C10,86,10.4,85.6,10.9,85.6z M10.9,87c0.3,0,0.5-0.2,0.5-0.5c0-0.3-0.2-0.5-0.5-0.5
			c-0.3,0-0.5,0.2-0.5,0.5C10.5,86.8,10.7,87,10.9,87z"/>
	</g>
	<path fill="none" stroke="#0C56AB" stroke-width="0.5" stroke-linejoin="bevel" stroke-miterlimit="10" d="M33,59.8l1.5-6.8l0.7-9
		l3.1,16.1l0.2,9.3c0.7-0.8,2.2-11,2.2-11l3.3,22.3l1.3-16.7c0,0,0.7,26.6,0.9,25.7c0.2-0.8,0.9-23.5,0.9-23.5l1.1,9.6l1.5-63.9
		c0,0,2,60.2,2,59.3c0-0.8,2.6-9.9,2.6-9.9l0.4,21.8l1.7-3.7l2.2,14.7l3-10.2l1.5,7.6l1.7-8.2l1.7,3.4l3.1-22.9l1.8,8.8l1.5-5.1
		c0,0,1.1,7.6,0.9,6.8c-0.2-0.8,3.3-30,3.3-30l2.2,6.2l5.9-33.9c0,0,3.3,46.1,3.5,45.2c0.2-0.8,2.4-20.9,2.4-20.9l1.5,22.9l1.7-25.7
		l1.3,7.1l0.9-6.5l4.8,14.1l3.7-5.7l4.8,22.9l5.2-9.6l3.9,9.9l1.3-4.8c0,0,2.2,7.1,2.4,6.2c0.2-0.8,2.8-11.6,2.8-11.6"/>
	
		<line fill="none" stroke="#F7A823" stroke-width="0.2335" stroke-linejoin="bevel" stroke-miterlimit="10" x1="33.6" y1="45.7" x2="125.6" y2="45.7"/>
	
		<line fill="none" stroke="#9C8FC4" stroke-width="0.2335" stroke-linejoin="bevel" stroke-miterlimit="10" x1="33.6" y1="61.8" x2="125.6" y2="61.8"/>
	
		<line fill="none" stroke="#73B564" stroke-width="0.2335" stroke-linejoin="bevel" stroke-miterlimit="10" x1="33.6" y1="77.9" x2="125.6" y2="77.9"/>
	<g>
		<path fill="#58595B" d="M136.7,46.7l-1,0l0-0.3l1,0l0-1.1l0.4,0l0,1.1l1,0l0,0.3l-1,0l0,1.1l-0.4,0L136.7,46.7z"/>
		<path fill="#58595B" d="M138.8,48.1l0.8,0l0-2.8l-0.7,0l0-0.3c0.3-0.1,0.6-0.2,0.8-0.3l0.4,0l0,3.4l0.8,0l0,0.4l-2.1,0L138.8,48.1
			z"/>
		<path fill="#58595B" d="M142.7,44.3c-0.1,0.3-0.2,0.7-0.4,1l0,3.6l-0.4,0l0-2.9c-0.2,0.3-0.3,0.5-0.5,0.7c0-0.1-0.1-0.3-0.2-0.4
			c0.5-0.5,0.9-1.3,1.1-2L142.7,44.3z M145.9,44.4l0,4.3l-0.4,0l0-0.3l-2.2,0l0,0.3l-0.4,0l0-4.4L145.9,44.4z M145.5,48.1l0-3.4
			l-2.2,0l0,3.4L145.5,48.1z M144.6,45.8l0,0.6l0.6,0l0,1.4l-1.5,0l0-1.4l0.6,0l0-0.6l-0.8,0l0-0.3l0.8,0l0-0.6l0.3,0l0,0.6l0.8,0
			l0,0.3L144.6,45.8z M144.8,46.6l-0.9,0l0,0.8l0.9,0L144.8,46.6z"/>
		<path fill="#58595B" d="M148,46.9c-0.1-0.2-0.2-0.5-0.4-0.7l0,2.6l-0.3,0l0-2.6c-0.2,0.6-0.4,1.2-0.6,1.5c0-0.1-0.1-0.3-0.2-0.4
			c0.3-0.4,0.6-1.2,0.8-1.9l-0.7,0l0-0.4l0.7,0l0-1l0.3,0l0,1l0.6,0l0,0.4l-0.6,0l0,0.3c0.1,0.2,0.5,0.8,0.6,0.9L148,46.9z
			 M149.1,47.7c-0.2,0.3-0.5,0.7-0.7,0.9c-0.1-0.1-0.2-0.2-0.3-0.2c0.3-0.2,0.5-0.5,0.7-0.8L149.1,47.7z M149.1,44.6l-0.9,0l0-0.3
			l2.9,0l0,0.3l-0.9,0l0,0.3l0.8,0l0,1.2l-2.6,0l0-1.2l0.8,0L149.1,44.6z M149.8,47.4l0,1.3l-0.3,0l0-1.3l-1.2,0l0-0.3l2.9,0l0,0.3
			L149.8,47.4z M148.5,46.7l0-0.3l2.2,0l0,0.3L148.5,46.7z M148.6,45.9l0.5,0l0-0.6l-0.5,0L148.6,45.9z M149.8,44.6l-0.5,0l0,0.3
			l0.5,0L149.8,44.6z M149.4,45.9l0.5,0l0-0.6l-0.5,0L149.4,45.9z M150.1,45.3l0,0.6l0.5,0l0-0.6L150.1,45.3z M150.4,47.6
			c0.3,0.3,0.6,0.6,0.7,0.8l-0.3,0.2c-0.1-0.2-0.4-0.6-0.7-0.9L150.4,47.6z"/>
		<path fill="#58595B" d="M152.4,45.6c-0.2-0.1-0.5-0.3-0.8-0.4l0.2-0.3c0.3,0.1,0.6,0.2,0.8,0.3L152.4,45.6z M156.2,47.7l-2.1,0
			l0,1l-0.4,0l0-1l-2.1,0l0-0.3l2.1,0l0-0.4l0.4,0l0,0.4l2.1,0L156.2,47.7z M151.7,46.8c0.3-0.2,0.7-0.7,1-1.1l0.2,0.3
			c-0.3,0.4-0.6,0.8-0.9,1.1L151.7,46.8z M152.8,44.8c-0.2-0.1-0.5-0.3-0.8-0.4l0.2-0.3c0.3,0.1,0.6,0.3,0.8,0.4L152.8,44.8z
			 M153.2,45.3c-0.1,0.1-0.2,0.2-0.3,0.3c-0.1-0.1-0.2-0.2-0.3-0.2c0.4-0.3,0.8-0.8,1-1.3l0.4,0.1c-0.1,0.2-0.2,0.3-0.3,0.5l0.8,0
			c-0.1-0.1-0.1-0.3-0.2-0.4l0.4-0.1c0.1,0.1,0.2,0.4,0.3,0.5l1,0l0,0.3l-1.1,0l0,0.4l1,0l0,0.3l-1,0l0,0.4l1,0l0,0.3l-1,0l0,0.4
			l1.2,0l0,0.3l-2.5,0l0,0.2l-0.4,0L153.2,45.3z M154.5,44.9l-0.9,0l0,0.4l0.9,0L154.5,44.9z M154.5,45.5l-0.9,0l0,0.4l0.9,0
			L154.5,45.5z M154.5,46.2l-0.9,0l0,0.4l0.9,0L154.5,46.2z"/>
		<path fill="#58595B" d="M161.3,46.2l0,0.3l-3.1,0c-0.2,0.9-0.6,1.6-1.2,2.1c-0.1-0.1-0.2-0.2-0.3-0.3c0.6-0.4,0.9-1,1.1-1.8l-1,0
			l0-0.3l2.1,0l0-0.5l-1.6,0l0-0.3l1.6,0l0-0.4l-1.8,0l0-0.3l1,0c-0.1-0.2-0.2-0.4-0.3-0.5L158,44c0.2,0.2,0.3,0.5,0.4,0.6l-0.1,0
			l1.3,0l0,0c0.1-0.2,0.3-0.5,0.4-0.7l0.4,0.1c-0.1,0.2-0.3,0.4-0.4,0.6l1.1,0l0,0.3l-1.9,0l0,0.4l1.6,0l0,0.3l-1.6,0l0,0.5
			L161.3,46.2z M159.7,48.2l1.6,0l0,0.3l-3.5,0l0-0.3l1.5,0l0-0.9l-1,0l0-0.3l2.6,0l0,0.3l-1.2,0L159.7,48.2z"/>
	</g>
	<g>
		<path fill="#58595B" d="M140.3,61.3l-2.1,0l0,1.8l-0.4,0l0-1.8l-2.1,0l0-0.4l2.1,0l0-1.8l-1.8,0l0-0.4l4,0l0,0.4l-1.8,0l0,1.8
			l2.1,0L140.3,61.3z M136.7,59.4c0.2,0.4,0.4,0.8,0.5,1.1l-0.4,0.1c-0.1-0.3-0.3-0.8-0.5-1.2L136.7,59.4z M138.8,60.6
			c0.2-0.3,0.4-0.8,0.5-1.2l0.4,0.1c-0.2,0.4-0.4,0.9-0.6,1.2L138.8,60.6z"/>
		<path fill="#58595B" d="M142.4,61.2l0.1,0.3c-0.5,0.3-1.1,0.5-1.5,0.7l-0.2-0.4c0.2-0.1,0.4-0.2,0.7-0.3l0-1.6l-0.6,0l0-0.4l0.6,0
			l0-1.2l0.4,0l0,1.2l0.6,0l0,0.4l-0.6,0l0,1.4L142.4,61.2z M145.4,59.2c0,0,0,0.2,0,0.2c0,2.4-0.1,3.2-0.3,3.4
			c-0.1,0.1-0.2,0.2-0.4,0.2c-0.2,0-0.5,0-0.7,0c0-0.1-0.1-0.3-0.1-0.4c0.3,0,0.6,0,0.7,0c0.1,0,0.2,0,0.2-0.1
			c0.2-0.2,0.2-1,0.3-3.1l-1.7,0c-0.1,0.3-0.3,0.6-0.5,0.8c-0.1-0.1-0.2-0.2-0.3-0.2c0.4-0.4,0.7-1.1,0.9-1.8l0.3,0.1
			c-0.1,0.3-0.1,0.5-0.2,0.7L145.4,59.2z M143.1,61.4l1.6,0l0,0.3l-1.6,0L143.1,61.4z M144.6,60.3l0,0.3l-1.3,0l0-0.3L144.6,60.3z"
			/>
		<path fill="#58595B" d="M147.4,58.5c-0.1,0.4-0.3,0.8-0.5,1.2l0,3.4l-0.4,0l0-2.8c-0.1,0.2-0.3,0.4-0.4,0.6c0-0.1-0.2-0.3-0.2-0.4
			c0.5-0.5,0.9-1.3,1.2-2L147.4,58.5z M150.6,62.5l0,0.3l-3.4,0l0-0.3l0.5,0l0-2.9l0.9,0c0-0.1,0.1-0.3,0.1-0.5l-1.2,0l0-0.3l1.3,0
			c0-0.2,0-0.4,0.1-0.5l0.4,0c0,0.2-0.1,0.3-0.1,0.5l1.4,0l0,0.3l-1.4,0c0,0.2-0.1,0.3-0.1,0.5l1.2,0l0,2.9L150.6,62.5z M148,60
			l0,0.4l1.8,0l0-0.4L148,60z M149.8,60.7l-1.8,0l0,0.4l1.8,0L149.8,60.7z M148,61.8l1.8,0l0-0.4l-1.8,0L148,61.8z M148,62.5l1.8,0
			l0-0.4l-1.8,0L148,62.5z"/>
	</g>
	<g>
		<path fill="#58595B" d="M135.7,77.7l1.3,0l0,0.4l-1.3,0L135.7,77.7z"/>
		<path fill="#58595B" d="M137.7,79l0.8,0l0-2.8l-0.7,0l0-0.3c0.3-0.1,0.6-0.2,0.8-0.3l0.4,0l0,3.4l0.8,0l0,0.4l-2.1,0L137.7,79z"/>
		<path fill="#58595B" d="M141.7,75.2c-0.1,0.3-0.2,0.7-0.4,1l0,3.6l-0.4,0l0-2.9c-0.2,0.3-0.3,0.5-0.5,0.7c0-0.1-0.1-0.3-0.2-0.4
			c0.5-0.5,0.9-1.3,1.1-2L141.7,75.2z M144.8,75.3l0,4.3l-0.4,0l0-0.3l-2.2,0l0,0.3l-0.4,0l0-4.4L144.8,75.3z M144.5,79l0-3.4
			l-2.2,0l0,3.4L144.5,79z M143.5,76.7l0,0.6l0.6,0l0,1.4l-1.5,0l0-1.4l0.6,0l0-0.6l-0.8,0l0-0.3l0.8,0l0-0.6l0.3,0l0,0.6l0.8,0
			l0,0.3L143.5,76.7z M143.8,77.5l-0.9,0l0,0.8l0.9,0L143.8,77.5z"/>
		<path fill="#58595B" d="M147,77.8c-0.1-0.2-0.2-0.5-0.4-0.7l0,2.6l-0.3,0l0-2.6c-0.2,0.6-0.4,1.2-0.6,1.5c0-0.1-0.1-0.3-0.2-0.4
			c0.3-0.4,0.6-1.2,0.8-1.9l-0.7,0l0-0.4l0.7,0l0-1l0.3,0l0,1l0.6,0l0,0.4l-0.6,0l0,0.3c0.1,0.2,0.5,0.8,0.6,0.9L147,77.8z
			 M148,78.6c-0.2,0.3-0.5,0.7-0.7,0.9c-0.1-0.1-0.2-0.2-0.3-0.2c0.3-0.2,0.5-0.5,0.7-0.8L148,78.6z M148,75.5l-0.9,0l0-0.3l2.9,0
			l0,0.3l-0.9,0l0,0.3l0.8,0l0,1.2l-2.6,0l0-1.2l0.8,0L148,75.5z M148.7,78.3l0,1.3l-0.3,0l0-1.3l-1.2,0l0-0.3l2.9,0l0,0.3
			L148.7,78.3z M147.5,77.6l0-0.3l2.2,0l0,0.3L147.5,77.6z M147.6,76.8l0.5,0l0-0.6l-0.5,0L147.6,76.8z M148.8,75.5l-0.5,0l0,0.3
			l0.5,0L148.8,75.5z M148.3,76.8l0.5,0l0-0.6l-0.5,0L148.3,76.8z M149.1,76.2l0,0.6l0.5,0l0-0.6L149.1,76.2z M149.4,78.5
			c0.3,0.3,0.6,0.6,0.7,0.8l-0.3,0.2c-0.1-0.2-0.4-0.6-0.7-0.9L149.4,78.5z"/>
		<path fill="#58595B" d="M151.4,76.5c-0.2-0.1-0.5-0.3-0.8-0.4l0.2-0.3c0.3,0.1,0.6,0.2,0.8,0.3L151.4,76.5z M155.2,78.6l-2.1,0
			l0,1l-0.4,0l0-1l-2.1,0l0-0.3l2.1,0l0-0.4l0.4,0l0,0.4l2.1,0L155.2,78.6z M150.7,77.7c0.3-0.2,0.7-0.7,1-1.1l0.2,0.3
			c-0.3,0.4-0.6,0.8-0.9,1.1L150.7,77.7z M151.7,75.7c-0.2-0.1-0.5-0.3-0.8-0.4l0.2-0.3c0.3,0.1,0.6,0.3,0.8,0.4L151.7,75.7z
			 M152.1,76.2c-0.1,0.1-0.2,0.2-0.3,0.3c-0.1-0.1-0.2-0.2-0.3-0.2c0.4-0.3,0.8-0.8,1-1.3l0.4,0.1c-0.1,0.2-0.2,0.3-0.3,0.5l0.8,0
			c-0.1-0.1-0.1-0.3-0.2-0.4l0.4-0.1c0.1,0.1,0.2,0.4,0.3,0.5l1,0l0,0.3l-1.1,0l0,0.4l1,0l0,0.3l-1,0l0,0.4l1,0l0,0.3l-1,0l0,0.4
			l1.2,0l0,0.3l-2.5,0l0,0.2l-0.4,0L152.1,76.2z M153.4,75.8l-0.9,0l0,0.4l0.9,0L153.4,75.8z M153.4,76.4l-0.9,0l0,0.4l0.9,0
			L153.4,76.4z M153.4,77.1l-0.9,0l0,0.4l0.9,0L153.4,77.1z"/>
		<path fill="#58595B" d="M160.2,77.1l0,0.3l-3.1,0c-0.2,0.9-0.6,1.6-1.2,2.1c-0.1-0.1-0.2-0.2-0.3-0.3c0.6-0.4,0.9-1,1.1-1.8l-1,0
			l0-0.3l2.1,0l0-0.5l-1.6,0l0-0.3l1.6,0l0-0.4l-1.8,0l0-0.3l1,0c-0.1-0.2-0.2-0.4-0.3-0.5l0.3-0.1c0.2,0.2,0.3,0.5,0.4,0.6l-0.1,0
			l1.3,0l0,0c0.1-0.2,0.3-0.5,0.4-0.7l0.4,0.1c-0.1,0.2-0.3,0.4-0.4,0.6l1.1,0l0,0.3l-1.9,0l0,0.4l1.6,0l0,0.3l-1.6,0l0,0.5
			L160.2,77.1z M158.6,79.1l1.6,0l0,0.3l-3.5,0l0-0.3l1.5,0l0-0.9l-1,0l0-0.3l2.6,0l0,0.3l-1.2,0L158.6,79.1z"/>
	</g>
	<g>
		<path fill="#414042" d="M31.3,101.1V99h-0.7v-0.3c0.4,0,0.7-0.2,0.8-0.6h0.4v3H31.3z"/>
		<path fill="#414042" d="M32.5,100.7c0.1,0.1,0.3,0.1,0.5,0.1c0.7,0,1-0.5,1-1.1c-0.1,0.2-0.4,0.4-0.8,0.4c-0.5,0-1-0.3-1-1
			c0-0.6,0.5-1,1.1-1c0.6,0,1.2,0.4,1.2,1.4c0,1.1-0.5,1.7-1.5,1.7c-0.2,0-0.5-0.1-0.7-0.2L32.5,100.7z M33.3,98.5
			c-0.3,0-0.6,0.2-0.6,0.6c0,0.4,0.3,0.6,0.6,0.6c0.3,0,0.6-0.2,0.6-0.6C34,98.7,33.7,98.5,33.3,98.5z"/>
		<path fill="#414042" d="M35.1,100.7c0.1,0.1,0.3,0.1,0.5,0.1c0.7,0,1-0.5,1-1.1c-0.1,0.2-0.4,0.4-0.8,0.4c-0.5,0-1-0.3-1-1
			c0-0.6,0.5-1,1.1-1c0.6,0,1.2,0.4,1.2,1.4c0,1.1-0.5,1.7-1.5,1.7c-0.2,0-0.5-0.1-0.7-0.2L35.1,100.7z M36,98.5
			c-0.3,0-0.6,0.2-0.6,0.6c0,0.4,0.3,0.6,0.6,0.6c0.3,0,0.6-0.2,0.6-0.6C36.7,98.7,36.3,98.5,36,98.5z"/>
		<path fill="#414042" d="M39.7,98.6c-0.1-0.1-0.3-0.1-0.5-0.1c-0.6,0-1,0.5-1,1.1c0.1-0.2,0.4-0.4,0.8-0.4c0.6,0,1,0.4,1,1
			c0,0.6-0.5,1-1.1,1c-0.6,0-1.2-0.4-1.2-1.4c0-1.1,0.7-1.7,1.5-1.7c0.3,0,0.5,0.1,0.6,0.2L39.7,98.6z M38.8,100.8
			c0.3,0,0.6-0.2,0.6-0.6c0-0.4-0.3-0.6-0.6-0.6c-0.3,0-0.6,0.2-0.6,0.6C38.1,100.6,38.5,100.8,38.8,100.8z"/>
	</g>
	<g>
		<path fill="#414042" d="M46.4,99.2c0,0,0-0.1,0-0.1c0-0.5,0.4-1,1-1c0.6,0,1,0.4,1,0.9c0,0.4-0.2,0.7-0.6,0.9l-0.6,0.4
			c-0.2,0.1-0.3,0.2-0.4,0.4h1.5v0.4h-2.1c0-0.5,0.2-0.9,0.7-1.2l0.5-0.3c0.3-0.2,0.4-0.4,0.4-0.6c0-0.3-0.2-0.5-0.6-0.5
			c-0.4,0-0.6,0.3-0.6,0.6c0,0,0,0.1,0,0.1L46.4,99.2z"/>
		<path fill="#414042" d="M49.2,98.6c0.2-0.3,0.5-0.5,0.9-0.5c0.4,0,0.7,0.2,0.9,0.5c0.2,0.3,0.3,0.7,0.3,1.1c0,0.4-0.1,0.8-0.3,1.1
			c-0.2,0.3-0.5,0.5-0.9,0.5c-0.4,0-0.7-0.2-0.9-0.5c-0.2-0.3-0.3-0.7-0.3-1.1C48.9,99.2,49,98.9,49.2,98.6z M49.6,100.6
			c0.1,0.1,0.3,0.2,0.5,0.2c0.2,0,0.4-0.1,0.5-0.2c0.2-0.2,0.3-0.5,0.3-1s-0.1-0.8-0.3-1c-0.1-0.1-0.3-0.2-0.5-0.2
			c-0.2,0-0.4,0.1-0.5,0.2c-0.2,0.2-0.3,0.5-0.3,1S49.4,100.4,49.6,100.6z"/>
		<path fill="#414042" d="M52,98.6c0.2-0.3,0.5-0.5,0.9-0.5s0.7,0.2,0.9,0.5c0.2,0.3,0.3,0.7,0.3,1.1c0,0.4-0.1,0.8-0.3,1.1
			c-0.2,0.3-0.5,0.5-0.9,0.5s-0.7-0.2-0.9-0.5c-0.2-0.3-0.3-0.7-0.3-1.1C51.7,99.2,51.8,98.9,52,98.6z M52.4,100.6
			c0.1,0.1,0.3,0.2,0.5,0.2c0.2,0,0.4-0.1,0.5-0.2c0.2-0.2,0.3-0.5,0.3-1s-0.1-0.8-0.3-1c-0.1-0.1-0.3-0.2-0.5-0.2
			c-0.2,0-0.4,0.1-0.5,0.2c-0.2,0.2-0.3,0.5-0.3,1S52.2,100.4,52.4,100.6z"/>
		<path fill="#414042" d="M54.8,98.6c0.2-0.3,0.5-0.5,0.9-0.5c0.4,0,0.7,0.2,0.9,0.5c0.2,0.3,0.3,0.7,0.3,1.1c0,0.4-0.1,0.8-0.3,1.1
			c-0.2,0.3-0.5,0.5-0.9,0.5c-0.4,0-0.7-0.2-0.9-0.5c-0.2-0.3-0.3-0.7-0.3-1.1C54.5,99.2,54.6,98.9,54.8,98.6z M55.2,100.6
			c0.1,0.1,0.3,0.2,0.5,0.2c0.2,0,0.4-0.1,0.5-0.2c0.2-0.2,0.3-0.5,0.3-1s-0.1-0.8-0.3-1c-0.1-0.1-0.3-0.2-0.5-0.2
			c-0.2,0-0.4,0.1-0.5,0.2c-0.2,0.2-0.3,0.5-0.3,1S55,100.4,55.2,100.6z"/>
	</g>
	<g>
		<path fill="#414042" d="M63.4,99.2c0,0,0-0.1,0-0.1c0-0.5,0.4-1,1-1c0.6,0,1,0.4,1,0.9c0,0.4-0.2,0.7-0.6,0.9l-0.6,0.4
			c-0.2,0.1-0.3,0.2-0.4,0.4h1.5v0.4h-2.1c0-0.5,0.2-0.9,0.7-1.2l0.5-0.3c0.3-0.2,0.4-0.4,0.4-0.6c0-0.3-0.2-0.5-0.6-0.5
			c-0.4,0-0.6,0.3-0.6,0.6c0,0,0,0.1,0,0.1L63.4,99.2z"/>
		<path fill="#414042" d="M66.1,98.6c0.2-0.3,0.5-0.5,0.9-0.5c0.4,0,0.7,0.2,0.9,0.5c0.2,0.3,0.3,0.7,0.3,1.1c0,0.4-0.1,0.8-0.3,1.1
			c-0.2,0.3-0.5,0.5-0.9,0.5c-0.4,0-0.7-0.2-0.9-0.5c-0.2-0.3-0.3-0.7-0.3-1.1C65.9,99.2,65.9,98.9,66.1,98.6z M66.6,100.6
			c0.1,0.1,0.3,0.2,0.5,0.2c0.2,0,0.4-0.1,0.5-0.2c0.2-0.2,0.3-0.5,0.3-1s-0.1-0.8-0.3-1c-0.1-0.1-0.3-0.2-0.5-0.2
			c-0.2,0-0.4,0.1-0.5,0.2c-0.2,0.2-0.3,0.5-0.3,1S66.4,100.4,66.6,100.6z"/>
		<path fill="#414042" d="M68.9,98.6c0.2-0.3,0.5-0.5,0.9-0.5c0.4,0,0.7,0.2,0.9,0.5c0.2,0.3,0.3,0.7,0.3,1.1c0,0.4-0.1,0.8-0.3,1.1
			c-0.2,0.3-0.5,0.5-0.9,0.5c-0.4,0-0.7-0.2-0.9-0.5c-0.2-0.3-0.3-0.7-0.3-1.1C68.7,99.2,68.7,98.9,68.9,98.6z M69.4,100.6
			c0.1,0.1,0.3,0.2,0.5,0.2c0.2,0,0.4-0.1,0.5-0.2c0.2-0.2,0.3-0.5,0.3-1s-0.1-0.8-0.3-1c-0.1-0.1-0.3-0.2-0.5-0.2
			c-0.2,0-0.4,0.1-0.5,0.2c-0.2,0.2-0.3,0.5-0.3,1S69.2,100.4,69.4,100.6z"/>
		<path fill="#414042" d="M71.4,99.9l1.3-1.8h0.6v1.9h0.5v0.4h-0.5v0.7h-0.4v-0.7h-1.5V99.9z M72.9,98.6l-1,1.5h1V98.6z"/>
	</g>
	<g>
		<path fill="#414042" d="M80.4,99.2c0,0,0-0.1,0-0.1c0-0.5,0.4-1,1-1c0.6,0,1,0.4,1,0.9c0,0.4-0.2,0.7-0.6,0.9l-0.6,0.4
			c-0.2,0.1-0.3,0.2-0.4,0.4h1.5v0.4h-2.1c0-0.5,0.2-0.9,0.7-1.2l0.5-0.3c0.3-0.2,0.4-0.4,0.4-0.6c0-0.3-0.2-0.5-0.6-0.5
			c-0.4,0-0.6,0.3-0.6,0.6c0,0,0,0.1,0,0.1L80.4,99.2z"/>
		<path fill="#414042" d="M83.1,98.6c0.2-0.3,0.5-0.5,0.9-0.5s0.7,0.2,0.9,0.5c0.2,0.3,0.3,0.7,0.3,1.1c0,0.4-0.1,0.8-0.3,1.1
			c-0.2,0.3-0.5,0.5-0.9,0.5s-0.7-0.2-0.9-0.5c-0.2-0.3-0.3-0.7-0.3-1.1C82.9,99.2,82.9,98.9,83.1,98.6z M83.6,100.6
			c0.1,0.1,0.3,0.2,0.5,0.2c0.2,0,0.4-0.1,0.5-0.2c0.2-0.2,0.3-0.5,0.3-1s-0.1-0.8-0.3-1c-0.1-0.1-0.3-0.2-0.5-0.2
			c-0.2,0-0.4,0.1-0.5,0.2c-0.2,0.2-0.3,0.5-0.3,1S83.4,100.4,83.6,100.6z"/>
		<path fill="#414042" d="M85.9,98.6c0.2-0.3,0.5-0.5,0.9-0.5s0.7,0.2,0.9,0.5c0.2,0.3,0.3,0.7,0.3,1.1c0,0.4-0.1,0.8-0.3,1.1
			c-0.2,0.3-0.5,0.5-0.9,0.5s-0.7-0.2-0.9-0.5c-0.2-0.3-0.3-0.7-0.3-1.1C85.7,99.2,85.7,98.9,85.9,98.6z M86.4,100.6
			c0.1,0.1,0.3,0.2,0.5,0.2c0.2,0,0.4-0.1,0.5-0.2c0.2-0.2,0.3-0.5,0.3-1s-0.1-0.8-0.3-1c-0.1-0.1-0.3-0.2-0.5-0.2
			c-0.2,0-0.4,0.1-0.5,0.2c-0.2,0.2-0.3,0.5-0.3,1S86.2,100.4,86.4,100.6z"/>
		<path fill="#414042" d="M88.4,100.4c0-0.4,0.2-0.6,0.6-0.7c-0.3-0.1-0.5-0.4-0.5-0.7c0-0.5,0.4-0.8,1-0.8s1,0.3,1,0.8
			c0,0.3-0.2,0.6-0.5,0.7c0.3,0.1,0.6,0.4,0.6,0.7c0,0.5-0.4,0.9-1.1,0.9C88.8,101.2,88.4,100.8,88.4,100.4z M90.1,100.3
			c0-0.3-0.2-0.5-0.6-0.5s-0.6,0.2-0.6,0.5c0,0.3,0.2,0.5,0.6,0.5S90.1,100.6,90.1,100.3z M90.1,98.9c0-0.3-0.2-0.5-0.6-0.5
			c-0.3,0-0.6,0.2-0.6,0.5c0,0.3,0.2,0.5,0.6,0.5C89.8,99.4,90.1,99.2,90.1,98.9z"/>
	</g>
	<g>
		<path fill="#414042" d="M97.2,99.2c0,0,0-0.1,0-0.1c0-0.5,0.4-1,1-1c0.6,0,1,0.4,1,0.9c0,0.4-0.2,0.7-0.6,0.9l-0.6,0.4
			c-0.2,0.1-0.3,0.2-0.4,0.4h1.5v0.4h-2.1c0-0.5,0.2-0.9,0.7-1.2l0.5-0.3c0.3-0.2,0.4-0.4,0.4-0.6c0-0.3-0.2-0.5-0.6-0.5
			c-0.4,0-0.6,0.3-0.6,0.6c0,0,0,0.1,0,0.1L97.2,99.2z"/>
		<path fill="#414042" d="M99.9,98.6c0.2-0.3,0.5-0.5,0.9-0.5c0.4,0,0.7,0.2,0.9,0.5c0.2,0.3,0.3,0.7,0.3,1.1c0,0.4-0.1,0.8-0.3,1.1
			c-0.2,0.3-0.5,0.5-0.9,0.5c-0.4,0-0.7-0.2-0.9-0.5c-0.2-0.3-0.3-0.7-0.3-1.1C99.6,99.2,99.7,98.9,99.9,98.6z M100.3,100.6
			c0.1,0.1,0.3,0.2,0.5,0.2c0.2,0,0.4-0.1,0.5-0.2c0.2-0.2,0.3-0.5,0.3-1s-0.1-0.8-0.3-1c-0.1-0.1-0.3-0.2-0.5-0.2
			c-0.2,0-0.4,0.1-0.5,0.2c-0.2,0.2-0.3,0.5-0.3,1S100.1,100.4,100.3,100.6z"/>
		<path fill="#414042" d="M103,101.1V99h-0.7v-0.3c0.4,0,0.7-0.2,0.8-0.6h0.4v3H103z"/>
		<path fill="#414042" d="M104,99.2c0,0,0-0.1,0-0.1c0-0.5,0.4-1,1-1c0.6,0,1,0.4,1,0.9c0,0.4-0.2,0.7-0.6,0.9l-0.6,0.4
			c-0.2,0.1-0.3,0.2-0.4,0.4h1.5v0.4H104c0-0.5,0.2-0.9,0.7-1.2l0.5-0.3c0.3-0.2,0.4-0.4,0.4-0.6c0-0.3-0.2-0.5-0.6-0.5
			c-0.4,0-0.6,0.3-0.6,0.6c0,0,0,0.1,0,0.1L104,99.2z"/>
	</g>
	<g>
		<path fill="#414042" d="M112.6,99.2c0,0,0-0.1,0-0.1c0-0.5,0.4-1,1-1c0.6,0,1,0.4,1,0.9c0,0.4-0.2,0.7-0.6,0.9l-0.6,0.4
			c-0.2,0.1-0.3,0.2-0.4,0.4h1.5v0.4h-2.1c0-0.5,0.2-0.9,0.7-1.2l0.5-0.3c0.3-0.2,0.4-0.4,0.4-0.6c0-0.3-0.2-0.5-0.6-0.5
			c-0.4,0-0.6,0.3-0.6,0.6c0,0,0,0.1,0,0.1L112.6,99.2z"/>
		<path fill="#414042" d="M115.4,98.6c0.2-0.3,0.5-0.5,0.9-0.5s0.7,0.2,0.9,0.5c0.2,0.3,0.3,0.7,0.3,1.1c0,0.4-0.1,0.8-0.3,1.1
			c-0.2,0.3-0.5,0.5-0.9,0.5s-0.7-0.2-0.9-0.5c-0.2-0.3-0.3-0.7-0.3-1.1C115.1,99.2,115.2,98.9,115.4,98.6z M115.8,100.6
			c0.1,0.1,0.3,0.2,0.5,0.2c0.2,0,0.4-0.1,0.5-0.2c0.2-0.2,0.3-0.5,0.3-1s-0.1-0.8-0.3-1c-0.1-0.1-0.3-0.2-0.5-0.2
			c-0.2,0-0.4,0.1-0.5,0.2c-0.2,0.2-0.3,0.5-0.3,1S115.6,100.4,115.8,100.6z"/>
		<path fill="#414042" d="M118.5,101.1V99h-0.7v-0.3c0.4,0,0.7-0.2,0.8-0.6h0.4v3H118.5z"/>
		<path fill="#414042" d="M121.6,98.6c-0.1-0.1-0.3-0.1-0.5-0.1c-0.6,0-1,0.5-1,1.1c0.1-0.2,0.4-0.4,0.8-0.4c0.6,0,1,0.4,1,1
			c0,0.6-0.5,1-1.1,1c-0.6,0-1.2-0.4-1.2-1.4c0-1.1,0.7-1.7,1.5-1.7c0.3,0,0.5,0.1,0.6,0.2L121.6,98.6z M120.7,100.8
			c0.3,0,0.6-0.2,0.6-0.6c0-0.4-0.3-0.6-0.6-0.6c-0.3,0-0.6,0.2-0.6,0.6C120.1,100.6,120.4,100.8,120.7,100.8z"/>
	</g>
	
		<line fill="none" stroke="#414042" stroke-width="4.715824e-002" stroke-miterlimit="10" x1="33.3" y1="96.1" x2="33.3" y2="92.9"/>
	
		<line fill="none" stroke="#414042" stroke-width="4.715824e-002" stroke-miterlimit="10" x1="90.5" y1="96.1" x2="90.5" y2="92.9"/>
	
		<line fill="none" stroke="#414042" stroke-width="4.715824e-002" stroke-miterlimit="10" x1="76.2" y1="96.1" x2="76.2" y2="92.9"/>
	
		<line fill="none" stroke="#414042" stroke-width="4.715824e-002" stroke-miterlimit="10" x1="61.9" y1="96.1" x2="61.9" y2="92.9"/>
	
		<line fill="none" stroke="#414042" stroke-width="4.715824e-002" stroke-miterlimit="10" x1="47.6" y1="96.1" x2="47.6" y2="92.9"/>
	
		<line fill="none" stroke="#414042" stroke-width="4.715824e-002" stroke-miterlimit="10" x1="104.7" y1="96.1" x2="104.7" y2="92.9"/>
	<line fill="none" stroke="#414042" stroke-width="4.715824e-002" stroke-miterlimit="10" x1="119" y1="96.1" x2="119" y2="92.9"/>
	<line fill="none" stroke="#414042" stroke-width="8.593263e-002" stroke-miterlimit="10" x1="27" y1="94.5" x2="124" y2="94.5"/>
</g>
<g>
</g>
<g>
</g>
<g>
</g>
<g>
</g>
<g>
</g>
<g>
</g>
<g>
</g>
<g>
</g>
<g>
</g>
<g>
</g>
<g>
</g>
<g>
</g>
<g>
</g>
<g>
</g>
<g>
</g>
</svg>
