<?xml version="1.0" encoding="utf-8"?>
<!-- Generator: Adobe Illustrator 18.0.0, SVG Export Plug-In . SVG Version: 6.00 Build 0)  -->
<!DOCTYPE svg PUBLIC "-//W3C//DTD SVG 1.1//EN" "http://www.w3.org/Graphics/SVG/1.1/DTD/svg11.dtd">
<svg version="1.1" id="Layer_1" xmlns="http://www.w3.org/2000/svg" xmlns:xlink="http://www.w3.org/1999/xlink" x="0px" y="0px"
	 viewBox="0 0 166.8 287.1" enable-background="new 0 0 166.8 287.1" xml:space="preserve">
<g>
	<path fill="#7F58A5" d="M6,243.1c-0.1,0-0.2-0.1-0.2-0.2v-1.3c0-0.1,0.1-0.2,0.2-0.2c0.1,0,0.2,0.1,0.2,0.2v1.3
		C6.1,243,6.1,243.1,6,243.1z M6,240.6c-0.1,0-0.2-0.1-0.2-0.2v-1.3c0-0.1,0.1-0.2,0.2-0.2c0.1,0,0.2,0.1,0.2,0.2v1.3
		C6.1,240.5,6.1,240.6,6,240.6z M6,238c-0.1,0-0.2-0.1-0.2-0.2v-1.3c0-0.1,0.1-0.2,0.2-0.2c0.1,0,0.2,0.1,0.2,0.2v1.3
		C6.1,238,6.1,238,6,238z M6,235.5c-0.1,0-0.2-0.1-0.2-0.2v-1.3c0-0.1,0.1-0.2,0.2-0.2c0.1,0,0.2,0.1,0.2,0.2v1.3
		C6.1,235.4,6.1,235.5,6,235.5z M6,233c-0.1,0-0.2-0.1-0.2-0.2v-1.3c0-0.1,0.1-0.2,0.2-0.2c0.1,0,0.2,0.1,0.2,0.2v1.3
		C6.1,232.9,6.1,233,6,233z M6,230.4c-0.1,0-0.2-0.1-0.2-0.2V229c0-0.1,0.1-0.2,0.2-0.2c0.1,0,0.2,0.1,0.2,0.2v1.3
		C6.1,230.3,6.1,230.4,6,230.4z M6,227.9c-0.1,0-0.2-0.1-0.2-0.2v-1.3c0-0.1,0.1-0.2,0.2-0.2c0.1,0,0.2,0.1,0.2,0.2v1.3
		C6.1,227.8,6.1,227.9,6,227.9z M6,225.3c-0.1,0-0.2-0.1-0.2-0.2v-1.3c0-0.1,0.1-0.2,0.2-0.2c0.1,0,0.2,0.1,0.2,0.2v1.3
		C6.1,225.3,6.1,225.3,6,225.3z M6,222.8c-0.1,0-0.2-0.1-0.2-0.2v-1.3c0-0.1,0.1-0.2,0.2-0.2c0.1,0,0.2,0.1,0.2,0.2v1.3
		C6.1,222.7,6.1,222.8,6,222.8z M6,220.2c-0.1,0-0.2-0.1-0.2-0.2v-1.3c0-0.1,0.1-0.2,0.2-0.2c0.1,0,0.2,0.1,0.2,0.2v1.3
		C6.1,220.2,6.1,220.2,6,220.2z M6,217.7c-0.1,0-0.2-0.1-0.2-0.2v-1.3c0-0.1,0.1-0.2,0.2-0.2c0.1,0,0.2,0.1,0.2,0.2v1.3
		C6.1,217.6,6.1,217.7,6,217.7z M6,215.2c-0.1,0-0.2-0.1-0.2-0.2v-1.3c0-0.1,0.1-0.2,0.2-0.2c0.1,0,0.2,0.1,0.2,0.2v1.3
		C6.1,215.1,6.1,215.2,6,215.2z M6,212.6c-0.1,0-0.2-0.1-0.2-0.2v-1.3c0-0.1,0.1-0.2,0.2-0.2c0.1,0,0.2,0.1,0.2,0.2v1.3
		C6.1,212.6,6.1,212.6,6,212.6z M6,210.1c-0.1,0-0.2-0.1-0.2-0.2v-1.3c0-0.1,0.1-0.2,0.2-0.2c0.1,0,0.2,0.1,0.2,0.2v1.3
		C6.1,210,6.1,210.1,6,210.1z M6,207.5c-0.1,0-0.2-0.1-0.2-0.2v-1.3c0-0.1,0.1-0.2,0.2-0.2c0.1,0,0.2,0.1,0.2,0.2v1.3
		C6.1,207.5,6.1,207.5,6,207.5z M6,205c-0.1,0-0.2-0.1-0.2-0.2v-1.3c0-0.1,0.1-0.2,0.2-0.2c0.1,0,0.2,0.1,0.2,0.2v1.3
		C6.1,204.9,6.1,205,6,205z M6,202.5c-0.1,0-0.2-0.1-0.2-0.2V201c0-0.1,0.1-0.2,0.2-0.2c0.1,0,0.2,0.1,0.2,0.2v1.3
		C6.1,202.4,6.1,202.5,6,202.5z M6,199.9c-0.1,0-0.2-0.1-0.2-0.2v-1.3c0-0.1,0.1-0.2,0.2-0.2c0.1,0,0.2,0.1,0.2,0.2v1.3
		C6.1,199.8,6.1,199.9,6,199.9z M6,197.4c-0.1,0-0.2-0.1-0.2-0.2V196c0-0.1,0.1-0.2,0.2-0.2c0.1,0,0.2,0.1,0.2,0.2v1.3
		C6.1,197.3,6.1,197.4,6,197.4z M6,194.8c-0.1,0-0.2-0.1-0.2-0.2v-1.3c0-0.1,0.1-0.2,0.2-0.2c0.1,0,0.2,0.1,0.2,0.2v1.3
		C6.1,194.8,6.1,194.8,6,194.8z M6,192.3c-0.1,0-0.2-0.1-0.2-0.2v-1.3c0-0.1,0.1-0.2,0.2-0.2c0.1,0,0.2,0.1,0.2,0.2v1.3
		C6.1,192.2,6.1,192.3,6,192.3z M6,189.8c-0.1,0-0.2-0.1-0.2-0.2v-1.3c0-0.1,0.1-0.2,0.2-0.2c0.1,0,0.2,0.1,0.2,0.2v1.3
		C6.1,189.7,6.1,189.8,6,189.8z M6,187.2c-0.1,0-0.2-0.1-0.2-0.2v-1.3c0-0.1,0.1-0.2,0.2-0.2c0.1,0,0.2,0.1,0.2,0.2v1.3
		C6.1,187.1,6.1,187.2,6,187.2z M6,184.7c-0.1,0-0.2-0.1-0.2-0.2v-1.3c0-0.1,0.1-0.2,0.2-0.2c0.1,0,0.2,0.1,0.2,0.2v1.3
		C6.1,184.6,6.1,184.7,6,184.7z M6,182.1c-0.1,0-0.2-0.1-0.2-0.2v-1.3c0-0.1,0.1-0.2,0.2-0.2c0.1,0,0.2,0.1,0.2,0.2v1.3
		C6.1,182.1,6.1,182.1,6,182.1z M6,179.6c-0.1,0-0.2-0.1-0.2-0.2v-1.3c0-0.1,0.1-0.2,0.2-0.2c0.1,0,0.2,0.1,0.2,0.2v1.3
		C6.1,179.5,6.1,179.6,6,179.6z M6,177.1c-0.1,0-0.2-0.1-0.2-0.2v-1.3c0-0.1,0.1-0.2,0.2-0.2c0.1,0,0.2,0.1,0.2,0.2v1.3
		C6.1,177,6.1,177.1,6,177.1z M6,174.5c-0.1,0-0.2-0.1-0.2-0.2v-1.3c0-0.1,0.1-0.2,0.2-0.2c0.1,0,0.2,0.1,0.2,0.2v1.3
		C6.1,174.4,6.1,174.5,6,174.5z M6,172c-0.1,0-0.2-0.1-0.2-0.2v-1.3c0-0.1,0.1-0.2,0.2-0.2c0.1,0,0.2,0.1,0.2,0.2v1.3
		C6.1,171.9,6.1,172,6,172z M6,169.4c-0.1,0-0.2-0.1-0.2-0.2V168c0-0.1,0.1-0.2,0.2-0.2c0.1,0,0.2,0.1,0.2,0.2v1.3
		C6.1,169.4,6.1,169.4,6,169.4z M6,166.9c-0.1,0-0.2-0.1-0.2-0.2v-1.3c0-0.1,0.1-0.2,0.2-0.2c0.1,0,0.2,0.1,0.2,0.2v1.3
		C6.1,166.8,6.1,166.9,6,166.9z M6,164.3c-0.1,0-0.2-0.1-0.2-0.2v-1.3c0-0.1,0.1-0.2,0.2-0.2c0.1,0,0.2,0.1,0.2,0.2v1.3
		C6.1,164.3,6.1,164.3,6,164.3z M6,161.8c-0.1,0-0.2-0.1-0.2-0.2v-1.3c0-0.1,0.1-0.2,0.2-0.2c0.1,0,0.2,0.1,0.2,0.2v1.3
		C6.1,161.7,6.1,161.8,6,161.8z M6,159.3c-0.1,0-0.2-0.1-0.2-0.2v-1.3c0-0.1,0.1-0.2,0.2-0.2c0.1,0,0.2,0.1,0.2,0.2v1.3
		C6.1,159.2,6.1,159.3,6,159.3z M6,156.7c-0.1,0-0.2-0.1-0.2-0.2v-1.3c0-0.1,0.1-0.2,0.2-0.2c0.1,0,0.2,0.1,0.2,0.2v1.3
		C6.1,156.7,6.1,156.7,6,156.7z M6,154.2c-0.1,0-0.2-0.1-0.2-0.2v-1.3c0-0.1,0.1-0.2,0.2-0.2c0.1,0,0.2,0.1,0.2,0.2v1.3
		C6.1,154.1,6.1,154.2,6,154.2z M6,151.6c-0.1,0-0.2-0.1-0.2-0.2v-1.3c0-0.1,0.1-0.2,0.2-0.2c0.1,0,0.2,0.1,0.2,0.2v1.3
		C6.1,151.6,6.1,151.6,6,151.6z M6,149.1c-0.1,0-0.2-0.1-0.2-0.2v-1.3c0-0.1,0.1-0.2,0.2-0.2c0.1,0,0.2,0.1,0.2,0.2v1.3
		C6.1,149,6.1,149.1,6,149.1z M6,146.6c-0.1,0-0.2-0.1-0.2-0.2v-1.3c0-0.1,0.1-0.2,0.2-0.2c0.1,0,0.2,0.1,0.2,0.2v1.3
		C6.1,146.5,6.1,146.6,6,146.6z M6,144c-0.1,0-0.2-0.1-0.2-0.2v-1.3c0-0.1,0.1-0.2,0.2-0.2c0.1,0,0.2,0.1,0.2,0.2v1.3
		C6.1,143.9,6.1,144,6,144z M6,141.5c-0.1,0-0.2-0.1-0.2-0.2V140c0-0.1,0.1-0.2,0.2-0.2c0.1,0,0.2,0.1,0.2,0.2v1.3
		C6.1,141.4,6.1,141.5,6,141.5z M6,138.9c-0.1,0-0.2-0.1-0.2-0.2v-1.3c0-0.1,0.1-0.2,0.2-0.2c0.1,0,0.2,0.1,0.2,0.2v1.3
		C6.1,138.9,6.1,138.9,6,138.9z M6,136.4c-0.1,0-0.2-0.1-0.2-0.2V135c0-0.1,0.1-0.2,0.2-0.2c0.1,0,0.2,0.1,0.2,0.2v1.3
		C6.1,136.3,6.1,136.4,6,136.4z M6,133.9c-0.1,0-0.2-0.1-0.2-0.2v-1.3c0-0.1,0.1-0.2,0.2-0.2c0.1,0,0.2,0.1,0.2,0.2v1.3
		C6.1,133.8,6.1,133.9,6,133.9z M6,131.3c-0.1,0-0.2-0.1-0.2-0.2v-1.3c0-0.1,0.1-0.2,0.2-0.2c0.1,0,0.2,0.1,0.2,0.2v1.3
		C6.1,131.2,6.1,131.3,6,131.3z M6,128.8c-0.1,0-0.2-0.1-0.2-0.2v-1.3c0-0.1,0.1-0.2,0.2-0.2c0.1,0,0.2,0.1,0.2,0.2v1.3
		C6.1,128.7,6.1,128.8,6,128.8z M6,126.2c-0.1,0-0.2-0.1-0.2-0.2v-1.3c0-0.1,0.1-0.2,0.2-0.2c0.1,0,0.2,0.1,0.2,0.2v1.3
		C6.1,126.2,6.1,126.2,6,126.2z M6,123.7c-0.1,0-0.2-0.1-0.2-0.2v-1.3c0-0.1,0.1-0.2,0.2-0.2c0.1,0,0.2,0.1,0.2,0.2v1.3
		C6.1,123.6,6.1,123.7,6,123.7z M6,121.1c-0.1,0-0.2-0.1-0.2-0.2v-1.3c0-0.1,0.1-0.2,0.2-0.2c0.1,0,0.2,0.1,0.2,0.2v1.3
		C6.1,121.1,6.1,121.1,6,121.1z M6,118.6c-0.1,0-0.2-0.1-0.2-0.2v-1.3c0-0.1,0.1-0.2,0.2-0.2c0.1,0,0.2,0.1,0.2,0.2v1.3
		C6.1,118.5,6.1,118.6,6,118.6z M6,116.1c-0.1,0-0.2-0.1-0.2-0.2v-1.3c0-0.1,0.1-0.2,0.2-0.2c0.1,0,0.2,0.1,0.2,0.2v1.3
		C6.1,116,6.1,116.1,6,116.1z M6,113.5c-0.1,0-0.2-0.1-0.2-0.2v-1.3c0-0.1,0.1-0.2,0.2-0.2c0.1,0,0.2,0.1,0.2,0.2v1.3
		C6.1,113.5,6.1,113.5,6,113.5z M6,111c-0.1,0-0.2-0.1-0.2-0.2v-1.3c0-0.1,0.1-0.2,0.2-0.2c0.1,0,0.2,0.1,0.2,0.2v1.3
		C6.1,110.9,6.1,111,6,111z M6,108.4c-0.1,0-0.2-0.1-0.2-0.2V107c0-0.1,0.1-0.2,0.2-0.2c0.1,0,0.2,0.1,0.2,0.2v1.3
		C6.1,108.4,6.1,108.4,6,108.4z M6,105.9c-0.1,0-0.2-0.1-0.2-0.2v-1.3c0-0.1,0.1-0.2,0.2-0.2c0.1,0,0.2,0.1,0.2,0.2v1.3
		C6.1,105.8,6.1,105.9,6,105.9z M6,103.4c-0.1,0-0.2-0.1-0.2-0.2v-1.3c0-0.1,0.1-0.2,0.2-0.2c0.1,0,0.2,0.1,0.2,0.2v1.3
		C6.1,103.3,6.1,103.4,6,103.4z M6,100.8c-0.1,0-0.2-0.1-0.2-0.2v-1.3c0-0.1,0.1-0.2,0.2-0.2c0.1,0,0.2,0.1,0.2,0.2v1.3
		C6.1,100.7,6.1,100.8,6,100.8z M6,98.3c-0.1,0-0.2-0.1-0.2-0.2v-1.3c0-0.1,0.1-0.2,0.2-0.2c0.1,0,0.2,0.1,0.2,0.2v1.3
		C6.1,98.2,6.1,98.3,6,98.3z M6,95.7c-0.1,0-0.2-0.1-0.2-0.2v-1.3c0-0.1,0.1-0.2,0.2-0.2c0.1,0,0.2,0.1,0.2,0.2v1.3
		C6.1,95.7,6.1,95.7,6,95.7z M6,93.2c-0.1,0-0.2-0.1-0.2-0.2v-1.3c0-0.1,0.1-0.2,0.2-0.2c0.1,0,0.2,0.1,0.2,0.2V93
		C6.1,93.1,6.1,93.2,6,93.2z M6,90.7c-0.1,0-0.2-0.1-0.2-0.2v-1.3c0-0.1,0.1-0.2,0.2-0.2c0.1,0,0.2,0.1,0.2,0.2v1.3
		C6.1,90.6,6.1,90.7,6,90.7z M6,88.1c-0.1,0-0.2-0.1-0.2-0.2v-1.3c0-0.1,0.1-0.2,0.2-0.2c0.1,0,0.2,0.1,0.2,0.2V88
		C6.1,88,6.1,88.1,6,88.1z M6,85.6c-0.1,0-0.2-0.1-0.2-0.2v-1.3C5.8,84.1,5.9,84,6,84c0.1,0,0.2,0.1,0.2,0.2v1.3
		C6.1,85.5,6.1,85.6,6,85.6z M6,83c-0.1,0-0.2-0.1-0.2-0.2v-1.3c0-0.1,0.1-0.2,0.2-0.2c0.1,0,0.2,0.1,0.2,0.2v1.3
		C6.1,83,6.1,83,6,83z M6,80.5c-0.1,0-0.2-0.1-0.2-0.2v-1.3c0-0.1,0.1-0.2,0.2-0.2c0.1,0,0.2,0.1,0.2,0.2v1.3
		C6.1,80.4,6.1,80.5,6,80.5z M6,78c-0.1,0-0.2-0.1-0.2-0.2v-1.3c0-0.1,0.1-0.2,0.2-0.2c0.1,0,0.2,0.1,0.2,0.2v1.3
		C6.1,77.9,6.1,78,6,78z M6,75.4c-0.1,0-0.2-0.1-0.2-0.2V74c0-0.1,0.1-0.2,0.2-0.2c0.1,0,0.2,0.1,0.2,0.2v1.3
		C6.1,75.3,6.1,75.4,6,75.4z M6,72.9c-0.1,0-0.2-0.1-0.2-0.2v-1.3c0-0.1,0.1-0.2,0.2-0.2c0.1,0,0.2,0.1,0.2,0.2v1.3
		C6.1,72.8,6.1,72.9,6,72.9z M6,70.3c-0.1,0-0.2-0.1-0.2-0.2v-1.3c0-0.1,0.1-0.2,0.2-0.2c0.1,0,0.2,0.1,0.2,0.2v1.3
		C6.1,70.3,6.1,70.3,6,70.3z M6,67.8c-0.1,0-0.2-0.1-0.2-0.2v-1.3c0-0.1,0.1-0.2,0.2-0.2c0.1,0,0.2,0.1,0.2,0.2v1.3
		C6.1,67.7,6.1,67.8,6,67.8z M6,65.2c-0.1,0-0.2-0.1-0.2-0.2v-1.3c0-0.1,0.1-0.2,0.2-0.2c0.1,0,0.2,0.1,0.2,0.2v1.3
		C6.1,65.2,6.1,65.2,6,65.2z M6,62.7c-0.1,0-0.2-0.1-0.2-0.2v-1.3c0-0.1,0.1-0.2,0.2-0.2c0.1,0,0.2,0.1,0.2,0.2v1.3
		C6.1,62.6,6.1,62.7,6,62.7z M6,60.2c-0.1,0-0.2-0.1-0.2-0.2v-1.3c0-0.1,0.1-0.2,0.2-0.2c0.1,0,0.2,0.1,0.2,0.2V60
		C6.1,60.1,6.1,60.2,6,60.2z M6,57.6c-0.1,0-0.2-0.1-0.2-0.2v-1.3C5.8,56.1,5.9,56,6,56c0.1,0,0.2,0.1,0.2,0.2v1.3
		C6.1,57.6,6.1,57.6,6,57.6z M6,55.1c-0.1,0-0.2-0.1-0.2-0.2v-1.3c0-0.1,0.1-0.2,0.2-0.2c0.1,0,0.2,0.1,0.2,0.2v1.3
		C6.1,55,6.1,55.1,6,55.1z M6,52.5c-0.1,0-0.2-0.1-0.2-0.2v-1.3C5.8,51,5.9,51,6,51c0.1,0,0.2,0.1,0.2,0.2v1.3
		C6.1,52.5,6.1,52.5,6,52.5z M6,50c-0.1,0-0.2-0.1-0.2-0.2v-1.3c0-0.1,0.1-0.2,0.2-0.2c0.1,0,0.2,0.1,0.2,0.2v1.3
		C6.1,49.9,6.1,50,6,50z M6,47.5c-0.1,0-0.2-0.1-0.2-0.2V46c0-0.1,0.1-0.2,0.2-0.2c0.1,0,0.2,0.1,0.2,0.2v1.3
		C6.1,47.4,6.1,47.5,6,47.5z M6,44.9c-0.1,0-0.2-0.1-0.2-0.2v-1.3c0-0.1,0.1-0.2,0.2-0.2c0.1,0,0.2,0.1,0.2,0.2v1.3
		C6.1,44.8,6.1,44.9,6,44.9z M6,42.4c-0.1,0-0.2-0.1-0.2-0.2v-1.3c0-0.1,0.1-0.2,0.2-0.2c0.1,0,0.2,0.1,0.2,0.2v1.3
		C6.1,42.3,6.1,42.4,6,42.4z M6,39.8c-0.1,0-0.2-0.1-0.2-0.2v-1.3c0-0.1,0.1-0.2,0.2-0.2c0.1,0,0.2,0.1,0.2,0.2v1.3
		C6.1,39.8,6.1,39.8,6,39.8z"/>
	<g>
		<path fill="#7F58A5" d="M49.4,281.3H38.5c-2.6,0-4.6-2.1-4.6-4.6V274h-6.4c-0.1,0-0.2-0.1-0.2-0.2c0-0.1,0.1-0.2,0.2-0.2H34
			c0.1,0,0.2,0.1,0.2,0.2v2.8c0,2.4,1.9,4.3,4.3,4.3h10.9c0.1,0,0.2,0.1,0.2,0.2C49.5,281.2,49.5,281.3,49.4,281.3z"/>
		<path fill="#7F58A5" d="M134.1,283.4H71.7c-0.1,0-0.2-0.1-0.2-0.2c0-0.1,0.1-0.2,0.2-0.2h62.4c2.4,0,4.3-1.9,4.3-4.3
			c0-2.6,2.2-4.8,4.8-4.8H161c2.9,0,5.3-2.4,5.3-5.3c0-2.9-2.4-5.3-5.3-5.3h-25.4c-2.6,0-4.8-2.2-4.8-4.8c0-2.4-1.9-4.3-4.3-4.3h-19
			c-0.1,0-0.2-0.1-0.2-0.2c0-0.1,0.1-0.2,0.2-0.2h19c2.6,0,4.8,2.2,4.8,4.8c0,2.4,1.9,4.3,4.3,4.3H161c3.2,0,5.8,2.6,5.8,5.8
			c0,3.2-2.6,5.8-5.8,5.8h-17.7c-2.4,0-4.3,1.9-4.3,4.3C138.9,281.3,136.8,283.4,134.1,283.4z"/>
		<path fill="#7F58A5" d="M20.8,264H10.7c-0.1,0-0.2-0.1-0.2-0.2V7.8c0-0.1,0.1-0.2,0.2-0.2c0.1,0,0.2,0.1,0.2,0.2v255.9h9.8v-2.3
			c0-3.4,2.7-6.1,6.1-6.1h20.4c0.1,0,0.2,0.1,0.2,0.2s-0.1,0.2-0.2,0.2H26.7c-3.2,0-5.8,2.6-5.8,5.8v2.5
			C20.9,263.9,20.9,264,20.8,264z"/>
		<path fill="#7F58A5" d="M77.4,287.1H43.6c-0.1,0-0.2-0.1-0.2-0.2c0-0.1,0.1-0.2,0.2-0.2h33.9c0.1,0,0.2,0.1,0.2,0.2
			C77.6,287.1,77.5,287.1,77.4,287.1z"/>
	</g>
	<rect x="0" y="0" fill="#7F58A5" width="0.3" height="111.7"/>
</g>
<g>
</g>
<g>
</g>
<g>
</g>
<g>
</g>
<g>
</g>
<g>
</g>
<g>
</g>
<g>
</g>
<g>
</g>
<g>
</g>
<g>
</g>
<g>
</g>
<g>
</g>
<g>
</g>
<g>
</g>
</svg>
