<?xml version="1.0" encoding="utf-8"?>
<!-- Generator: Adobe Illustrator 18.0.0, SVG Export Plug-In . SVG Version: 6.00 Build 0)  -->
<!DOCTYPE svg PUBLIC "-//W3C//DTD SVG 1.1//EN" "http://www.w3.org/Graphics/SVG/1.1/DTD/svg11.dtd">
<svg version="1.1" id="Layer_1" xmlns="http://www.w3.org/2000/svg" xmlns:xlink="http://www.w3.org/1999/xlink" x="0px" y="0px"
	 viewBox="0 0 96.5 179.2" enable-background="new 0 0 96.5 179.2" xml:space="preserve">
<g>
	<g>
		<circle fill="#0C56AB" cx="48.3" cy="128.8" r="37.1"/>
		<g>
			<path fill="#FFFFFF" d="M19.7,125.8c-0.1-0.3-0.1-0.8-0.1-1.3c0-3.3,2.5-6.3,6.8-6.3c4.2,0,6.8,2.8,6.8,6c0,2.4-1.3,4.4-3.6,5.8
				l-3.6,2.2c-0.7,0.5-1.3,1-1.6,1.7h9v3.4H19.4c0-3.3,1.1-6,4.4-8l3.1-1.8c1.6-1,2.2-1.9,2.2-3.2c0-1.4-1-2.6-2.8-2.6
				c-2,0-3,1.4-3,3.1c0,0.3,0.1,0.7,0.1,1L19.7,125.8z"/>
			<path fill="#FFFFFF" d="M37,121.3c1.2-1.8,3.3-3.1,6.2-3.1s4.9,1.3,6.2,3.1c1.3,1.9,1.7,4.3,1.7,6.7c0,2.4-0.4,4.7-1.7,6.7
				c-1.2,1.8-3.2,3.1-6.2,3.1s-4.9-1.3-6.2-3.1c-1.3-1.9-1.6-4.3-1.6-6.7C35.3,125.6,35.7,123.3,37,121.3z M40.3,132.8
				c0.6,0.9,1.5,1.5,2.8,1.5c1.4,0,2.2-0.6,2.8-1.5c0.8-1.1,1-2.8,1-4.8c0-2-0.3-3.6-1-4.8c-0.6-0.9-1.4-1.5-2.8-1.5
				c-1.4,0-2.3,0.6-2.8,1.5c-0.7,1.1-1,2.8-1,4.8C39.3,130,39.6,131.7,40.3,132.8z"/>
			<path fill="#FFFFFF" d="M57.3,137.4v-12.5h-4.5v-2.7c2.7,0,4.7-1.6,5-3.5h3.4v18.8H57.3z"/>
			<path fill="#FFFFFF" d="M64.7,132.3c0-2,1.3-3.8,3.3-4.6c-1.9-0.7-2.9-2.5-2.9-4.2c0-3.2,2.8-5.4,6.7-5.4s6.7,2.2,6.7,5.4
				c0,1.6-1,3.5-2.9,4.2c2,0.7,3.3,2.5,3.3,4.6c0,3.2-2.8,5.5-7.1,5.5S64.7,135.6,64.7,132.3z M75,131.9c0-1.4-1.1-2.7-3.2-2.7
				s-3.2,1.3-3.2,2.7c0,1.3,1.1,2.6,3.2,2.6C73.9,134.5,75,133.3,75,131.9z M74.6,123.9c0-1.2-1-2.4-2.8-2.4c-1.7,0-2.7,1.1-2.7,2.4
				c0,1.3,1,2.4,2.7,2.5C73.6,126.3,74.6,125.2,74.6,123.9z"/>
		</g>
		<polygon fill="#0C56AB" points="36,160.2 60.6,160.2 48.3,179.2 		"/>
	</g>
	<g>
		<g>
			<polygon fill="#0C56AB" points="2.4,28.9 94.1,28.9 49,0 			"/>
			<rect x="9.4" y="30.9" fill="#0C56AB" width="7.9" height="36.8"/>
			<rect x="26.7" y="30.9" fill="#0C56AB" width="7.9" height="36.8"/>
			<rect x="63.7" y="30.9" fill="#0C56AB" width="7.9" height="36.8"/>
			<rect x="81" y="30.9" fill="#0C56AB" width="7.9" height="36.8"/>
			<polygon fill="#0C56AB" points="92.7,73.8 92.7,71.4 3.8,71.4 3.8,73.8 0,73.8 0,80.1 96.5,80.1 96.5,73.8 			"/>
			<g>
				<path fill="#0C56AB" d="M49.9,33c1,0,1.9,0.8,1.9,1.9v0.5c1.9,0.3,3.7,0.9,5.2,1.7c0.7,0.4,1.3,1.1,1.3,2.1
					c0,1.4-1.1,2.4-2.4,2.4c-0.4,0-0.9-0.1-1.3-0.3c-1-0.5-2-1-3-1.2v5.4c5.4,1.5,7.8,3.7,7.8,7.7s-3.1,6.6-7.6,7.1v1.9
					c0,1-0.8,1.9-1.9,1.9c-1,0-1.9-0.8-1.9-1.9v-1.9c-2.5-0.3-4.9-1.2-7.1-2.5c-0.8-0.5-1.2-1.2-1.2-2.1c0-1.4,1.1-2.4,2.5-2.4
					c0.5,0,1,0.2,1.4,0.5c1.5,1,2.9,1.6,4.6,2v-5.7c-5.2-1.4-7.7-3.4-7.7-7.6c0-3.9,3-6.6,7.5-7.1v-0.4C48,33.8,48.8,33,49.9,33z
					 M48.2,44.6v-4.8c-1.7,0.3-2.5,1.1-2.5,2.3C45.7,43.1,46.2,43.9,48.2,44.6z M51.5,50.8v5c1.7-0.3,2.5-1,2.5-2.3
					C54.1,52.3,53.5,51.5,51.5,50.8z"/>
			</g>
		</g>
	</g>
</g>
<g>
</g>
<g>
</g>
<g>
</g>
<g>
</g>
<g>
</g>
<g>
</g>
<g>
</g>
<g>
</g>
<g>
</g>
<g>
</g>
<g>
</g>
<g>
</g>
<g>
</g>
<g>
</g>
<g>
</g>
</svg>
