<?xml version="1.0" encoding="utf-8"?>
<!-- Generator: Adobe Illustrator 18.0.0, SVG Export Plug-In . SVG Version: 6.00 Build 0)  -->
<!DOCTYPE svg PUBLIC "-//W3C//DTD SVG 1.1//EN" "http://www.w3.org/Graphics/SVG/1.1/DTD/svg11.dtd">
<svg version="1.1" id="Layer_1" xmlns="http://www.w3.org/2000/svg" xmlns:xlink="http://www.w3.org/1999/xlink" x="0px" y="0px"
	 viewBox="0 0 362.7 2652.1" enable-background="new 0 0 362.7 2652.1" xml:space="preserve">
<g>
	<path fill="none" stroke="#0074B7" stroke-width="3" stroke-miterlimit="10" d="M219.9,2307.4c0,0,62.2,0,94.5,0
		c15.6,0,22.5,7.2,22.5,22.5c0,15.3,0,248.3,0,248.3c0,29.1-13.9,32.2-31.5,32.2c-16.5,0-109.4,0-109.4,0
		c-20.5,0-27.2,6.3-27.2,37.9"/>
	<path fill="none" stroke="#0074B7" stroke-width="3" stroke-miterlimit="10" d="M1.5,2106.1c0,29.5,0,168.1,0,174
		c0,19.8,9.6,25.5,27.2,25.5c15.3,0,30.4,0,30.4,0"/>
	<circle fill="#032360" cx="62.7" cy="2305.7" r="3.7"/>
	<circle fill="#032360" cx="219.9" cy="2307.4" r="3.7"/>
	<circle fill="#F7A823" cx="168.8" cy="2648.4" r="3.7"/>
	<path fill="none" stroke="#0074B7" stroke-width="3" stroke-miterlimit="10" d="M54.3,688c0,0,6.9,0-17.9,0S2.6,703.1,2.6,721.2
		c0,4.2,0,19.7,0,41.2"/>
	<path fill="none" stroke="#0074B7" stroke-width="3" stroke-miterlimit="10" d="M166,37.7l84.6-0.3c9.4,0,17.1,7.6,17.1,17v0
		c0,9.4,7.7,17,17.1,17l35.8-0.1c9.4,0,17.1,7.6,17.1,17l0.5,548.2c0.1,28.1-22.7,51-50.9,51l-33.7,0.2"/>
	<path fill="none" stroke="#0074B7" stroke-width="3" stroke-miterlimit="10" d="M89.1,37.9L44.9,38c-11,0-19.8-7.3-19.8-25L24.8,0"
		/>
	<circle fill="#032360" cx="87.6" cy="37.7" r="3.7"/>
	<circle fill="#032360" cx="168" cy="37.7" r="3.7"/>
	<path fill="none" stroke="#0074B7" stroke-width="3" stroke-miterlimit="10" d="M362.7,1405.5c-27.5,0-75.7,0-75.7,0"/>
	<circle fill="#032360" cx="287" cy="1405.5" r="3.7"/>
	<circle fill="#032360" cx="254.9" cy="687.6" r="3.7"/>
	<circle fill="#032360" cx="58.1" cy="687.6" r="3.7"/>
</g>
<g>
</g>
<g>
</g>
<g>
</g>
<g>
</g>
<g>
</g>
<g>
</g>
<g>
</g>
<g>
</g>
<g>
</g>
<g>
</g>
<g>
</g>
<g>
</g>
<g>
</g>
<g>
</g>
<g>
</g>
</svg>
