<?xml version="1.0" encoding="utf-8"?>
<!-- Generator: Adobe Illustrator 18.0.0, SVG Export Plug-In . SVG Version: 6.00 Build 0)  -->
<!DOCTYPE svg PUBLIC "-//W3C//DTD SVG 1.1//EN" "http://www.w3.org/Graphics/SVG/1.1/DTD/svg11.dtd">
<svg version="1.1" id="Layer_1" xmlns="http://www.w3.org/2000/svg" xmlns:xlink="http://www.w3.org/1999/xlink" x="0px" y="0px"
	 viewBox="0 0 62.2 63.9" enable-background="new 0 0 62.2 63.9" xml:space="preserve">
<g>
	<g>
		<g>
			<path fill="#0C56AB" d="M6.8,53.4C6.5,53.2,6,53,5.3,53c-1.7,0-2.9,1.1-3,2.8c0.5-0.7,1.3-1,2.2-1c1.8,0,3,1.2,3,3
				c0,1.8-1.5,3.1-3.3,3.1c-2.2,0-3.5-1.8-3.5-4.1c0-3.2,2-5.1,4.7-5.1c0.8,0,1.5,0.2,1.9,0.4L6.8,53.4z M4.2,59.4
				c0.9,0,1.7-0.6,1.7-1.6c0-1-0.8-1.6-1.7-1.6s-1.7,0.6-1.7,1.6C2.4,58.8,3.3,59.4,4.2,59.4z"/>
		</g>
	</g>
	<g>
		<g>
			<g>
				<path fill="#FFFFFF" d="M28.3,32c-0.3,0-0.5,0-0.5-0.4c-0.1,0.2-0.2,0.4-0.5,0.4c0.2,0.2,0.3,0.4,0.1,0.6c0.2-0.2,0.5-0.3,0.7,0
					C28,32.4,28.1,32.2,28.3,32z"/>
				<path fill="#FFFFFF" d="M27.8,29.5c-0.1,0.2-0.1,0.3-0.2,0.3c-0.1,0.1-0.2,0-0.4,0.1c0.3,0.2,0.3,0.4,0.2,0.6
					c0.2-0.2,0.4-0.2,0.7,0c-0.2-0.3,0-0.4,0.2-0.6C28.1,29.9,27.8,29.9,27.8,29.5z"/>
				<path fill="#FFFFFF" d="M24,30.6C24,30.9,23.8,31,23.6,31c0.2,0.2,0.3,0.4,0.1,0.6c0.2-0.1,0.3-0.2,0.4-0.2
					c0.1,0,0.2,0.1,0.4,0.2c0-0.1-0.1-0.2,0-0.3c0-0.1,0.2-0.2,0.2-0.2c0,0,0,0,0-0.1C24.3,31,24.1,30.9,24,30.6z"/>
				<path fill="#FFFFFF" d="M26.7,28.8c-0.1-0.1-0.1-0.2-0.2-0.4c0,0.3-0.2,0.4-0.5,0.4c0.2,0.2,0.3,0.4,0.2,0.6
					c0.2-0.2,0.4-0.3,0.7,0c-0.2-0.3,0-0.4,0.2-0.6C26.9,28.8,26.8,28.9,26.7,28.8z"/>
				<path fill="#FFFFFF" d="M27.8,33.8c-0.2,0.3-0.2,0.3-0.6,0.4c0.3,0.1,0.3,0.4,0.2,0.6c0.2-0.2,0.4-0.3,0.7,0
					c-0.1-0.3,0-0.5,0.2-0.6C28,34.2,27.9,34.1,27.8,33.8z"/>
				<path fill="#FFFFFF" d="M28,27.7c-0.1,0-0.1-0.2-0.2-0.3c-0.1,0.3-0.3,0.3-0.5,0.3c0.2,0.2,0.3,0.4,0.2,0.6
					c0.2-0.2,0.5-0.2,0.7,0c-0.2-0.3,0-0.4,0.2-0.6c0,0,0,0,0,0C28.2,27.8,28.1,27.8,28,27.7z"/>
				<path fill="#FFFFFF" d="M25.8,29.9c-0.3,0-0.5,0-0.5-0.3c-0.1,0.3-0.2,0.4-0.5,0.4c0.2,0.2,0.3,0.4,0.2,0.6
					c0.1-0.1,0.2-0.2,0.3-0.2c0.1,0,0.2,0.1,0.4,0.2C25.5,30.2,25.7,30.1,25.8,29.9z"/>
				<path fill="#FFFFFF" d="M27.1,31c-0.3,0-0.5,0-0.5-0.3C26.5,30.9,26.3,31,26,31c0.2,0.2,0.3,0.4,0.2,0.6c0.2-0.2,0.5-0.2,0.7,0
					C26.7,31.3,26.9,31.1,27.1,31z"/>
				<path fill="#FFFFFF" d="M25.3,33.8c-0.1,0.3-0.2,0.4-0.5,0.3c0.3,0.2,0.3,0.4,0.2,0.6c0.2-0.2,0.5-0.2,0.7,0
					c-0.2-0.3,0-0.5,0.2-0.6C25.6,34.2,25.4,34.1,25.3,33.8z"/>
				<path fill="#FFFFFF" d="M25,32.7c0.2-0.2,0.5-0.3,0.7,0c-0.2-0.3,0-0.5,0.2-0.6c-0.3,0.1-0.5,0-0.5-0.3
					c-0.1,0.3-0.2,0.4-0.5,0.4C25.1,32.2,25.1,32.4,25,32.7z"/>
				<path fill="#FFFFFF" d="M29,32.7c-0.1,0.3-0.2,0.4-0.5,0.4c0.2,0.2,0.3,0.4,0.1,0.6c0.2-0.2,0.5-0.2,0.7,0
					c-0.2-0.3-0.1-0.5,0.2-0.6C29.3,33.1,29.1,33,29,32.7z"/>
				<path fill="#FFFFFF" d="M25.5,27.8c-0.1-0.1-0.1-0.2-0.2-0.3c-0.1,0.3-0.2,0.4-0.5,0.3c0.1,0.1,0.2,0.2,0.2,0.3
					c0,0.1,0,0.2-0.1,0.3c0.1-0.1,0.2-0.2,0.3-0.2c0.1,0,0.2,0.1,0.3,0.2c-0.2-0.3,0-0.4,0.2-0.6C25.7,27.8,25.6,27.8,25.5,27.8z"/>
				<path fill="#FFFFFF" d="M26.2,27.4c0.2-0.3,0.5-0.2,0.7,0c-0.2-0.3-0.1-0.5,0.2-0.6c-0.3,0-0.5,0-0.5-0.4
					c-0.1,0.3-0.2,0.4-0.5,0.4C26.3,26.9,26.3,27.1,26.2,27.4z"/>
				<path fill="#FFFFFF" d="M26.6,32.7c-0.1,0.3-0.2,0.4-0.5,0.3c0.3,0.2,0.3,0.4,0.2,0.6c0.1-0.1,0.2-0.2,0.3-0.2
					c0.1,0,0.2,0.1,0.3,0.2c-0.1-0.3,0-0.5,0.2-0.6c-0.2,0-0.3,0-0.4,0C26.6,33,26.6,32.8,26.6,32.7z"/>
				<path fill="#FFFFFF" d="M32.4,30.5c0.2-0.3,0.5-0.2,0.7,0c0-0.2-0.1-0.3-0.1-0.4c0-0.1,0.2-0.2,0.2-0.3c0,0,0,0,0-0.1
					c-0.3,0.1-0.5,0-0.5-0.3c-0.1,0.3-0.2,0.4-0.5,0.4C32.5,30.1,32.5,30.3,32.4,30.5z"/>
				<path fill="#FFFFFF" d="M39,35.4c-6.6,0-13.3,0-19.9,0c0,0.5,0.1,0.9,0.2,1.4c6.5,0,13,0,19.5,0C38.9,36.3,39,35.8,39,35.4z"/>
				<path fill="#FFFFFF" d="M32.8,33.8c-0.1,0.3-0.2,0.4-0.5,0.4c0.2,0.2,0.3,0.4,0.2,0.6c0.2-0.3,0.5-0.2,0.7,0
					c-0.2-0.3,0-0.5,0.2-0.6C33,34.2,32.8,34.1,32.8,33.8z"/>
				<path fill="#FFFFFF" d="M38.4,38.1c-6.2,0-12.4,0-18.6,0c0.2,0.9,0.5,1.4,0.8,1.8c5.7,0,11.4,0,17.1,0
					C37.9,39.5,38.2,39.1,38.4,38.1z"/>
				<path fill="#FFFFFF" d="M36.5,41.4c-5,0-9.9,0-14.9,0c0.5,0.5,1.1,0.9,1.8,1.4c3.8,0,7.6,0,11.4,0C35.4,42.3,36,41.8,36.5,41.4z
					"/>
				<path fill="#FFFFFF" d="M26.6,44.6c0.8,0,1.6,0.3,2.4,0.3s1.7-0.3,2.4-0.3C29.9,44.6,28.3,44.6,26.6,44.6z"/>
				<path fill="#FFFFFF" d="M32.4,28.4c0.2-0.2,0.5-0.3,0.7,0C33,28.1,33,28,33.3,27.8c-0.3,0-0.5,0-0.5-0.4
					c-0.1,0.3-0.2,0.4-0.5,0.3c0.1,0.1,0.2,0.2,0.2,0.3C32.5,28.2,32.4,28.3,32.4,28.4z"/>
				<path fill="#FFFFFF" d="M29.9,32.7c0.2-0.2,0.5-0.3,0.7,0c-0.2-0.3,0-0.5,0.2-0.6c-0.3,0.1-0.5,0-0.5-0.4
					c-0.1,0.2-0.1,0.3-0.2,0.3C30,32,29.9,32,29.7,32C30,32.2,30,32.4,29.9,32.7z"/>
				<path fill="#FFFFFF" d="M29,30.6c-0.1,0.3-0.2,0.4-0.5,0.3c0.2,0.3,0.2,0.3,0.2,0.6c0.2-0.2,0.4-0.3,0.7,0
					c-0.2-0.3,0-0.4,0.2-0.6C29.3,31,29.1,30.9,29,30.6z"/>
				<path fill="#FFFFFF" d="M29,28.5c-0.1,0.1-0.1,0.3-0.2,0.3c-0.1,0.1-0.2,0-0.4,0.1c0.3,0.2,0.3,0.4,0.2,0.6
					c0.2-0.2,0.5-0.2,0.7,0c-0.2-0.3,0-0.4,0.2-0.6c-0.2,0-0.3,0-0.4,0C29.1,28.8,29.1,28.6,29,28.5z"/>
				<path fill="#FFFFFF" d="M30.8,34.2C30.8,34.2,30.8,34.2,30.8,34.2c-0.2-0.1-0.3,0-0.4-0.1c-0.1-0.1-0.1-0.2-0.2-0.3
					c0,0.3-0.2,0.4-0.5,0.4c0.3,0.2,0.3,0.4,0.2,0.6c0.2-0.3,0.5-0.2,0.7,0c0-0.2-0.1-0.3-0.1-0.4C30.6,34.3,30.7,34.3,30.8,34.2z"
					/>
				<path fill="#FFFFFF" d="M33.3,32c-0.3,0.1-0.5,0-0.5-0.3c-0.1,0.2-0.2,0.4-0.5,0.4c0.2,0.2,0.3,0.4,0.1,0.6
					c0.2-0.1,0.3-0.2,0.4-0.2c0.1,0,0.2,0.1,0.3,0.2C32.9,32.4,33.1,32.2,33.3,32z"/>
				<path fill="#FFFFFF" d="M31.7,33c-0.1-0.1-0.1-0.2-0.2-0.3C31.4,33,31.3,33.1,31,33c0.1,0.1,0.2,0.2,0.2,0.3
					c0,0.1,0,0.2-0.1,0.4c0.3-0.3,0.5-0.3,0.7,0c-0.2-0.3,0-0.5,0.2-0.6C31.9,33.1,31.8,33.1,31.7,33z"/>
				<path fill="#FFFFFF" d="M22.8,29.6c-0.1,0.3-0.2,0.4-0.5,0.3c0.2,0.2,0.3,0.4,0.2,0.6c0.2-0.2,0.5-0.2,0.7,0
					c-0.2-0.3,0-0.4,0.2-0.6C23.1,29.9,22.9,29.9,22.8,29.6z"/>
				<path fill="#FFFFFF" d="M29.9,28.5c0.1-0.1,0.3-0.2,0.4-0.2c0.1,0,0.2,0.1,0.3,0.2c0,0,0,0,0.1,0c-0.2-0.3,0-0.4,0.1-0.6
					c-0.3,0-0.5,0-0.5-0.4c-0.1,0.3-0.2,0.4-0.5,0.3c0.1,0.1,0.2,0.2,0.2,0.3C30,28.2,29.9,28.3,29.9,28.5z"/>
				<path fill="#FFFFFF" d="M31.2,29.5c0.1-0.1,0.2-0.2,0.3-0.2c0.1,0,0.2,0.1,0.4,0.2c0-0.1-0.1-0.3-0.1-0.4c0-0.1,0.2-0.2,0.3-0.3
					c-0.2,0-0.3,0-0.4,0c-0.1-0.1-0.1-0.2-0.2-0.3c-0.1,0.1-0.1,0.2-0.2,0.3c-0.1,0.1-0.2,0-0.4,0.1C31.3,29,31.3,29.2,31.2,29.5z"
					/>
				<path fill="#FFFFFF" d="M29.9,26.3c0.2-0.3,0.5-0.2,0.7,0c-0.2-0.3-0.1-0.5,0.2-0.6c-0.3,0-0.5,0-0.5-0.4
					c-0.1,0.2-0.2,0.4-0.5,0.4C30,25.9,30,26.1,29.9,26.3z"/>
				<path fill="#FFFFFF" d="M31.2,27.4c0.2-0.3,0.5-0.2,0.7,0c-0.2-0.3-0.1-0.5,0.2-0.6c-0.3,0-0.5,0-0.5-0.4
					c-0.1,0.3-0.2,0.4-0.5,0.4C31.3,26.9,31.2,27.1,31.2,27.4z"/>
				<path fill="#FFFFFF" d="M20.3,33.8c-0.1,0.3-0.2,0.4-0.5,0.3c0.2,0.2,0.3,0.4,0.1,0.6c0.2-0.2,0.5-0.3,0.7,0
					c-0.2-0.3,0-0.4,0.2-0.6C20.6,34.2,20.4,34.1,20.3,33.8z"/>
				<path fill="#FFFFFF" d="M21.2,31.6c0.2-0.1,0.3-0.2,0.4-0.2c0.1,0,0.2,0.1,0.3,0.1c-0.2-0.3,0-0.4,0.2-0.6
					c-0.3,0.1-0.5-0.1-0.5-0.3C21.5,30.9,21.3,31,21,31C21.3,31.1,21.3,31.3,21.2,31.6z"/>
				<path fill="#FFFFFF" d="M21.6,32.7c0,0.3-0.2,0.4-0.5,0.4c0.2,0.2,0.3,0.4,0.2,0.6c0.2-0.2,0.5-0.2,0.7,0
					c-0.2-0.3,0-0.4,0.2-0.6C21.8,33.1,21.6,33,21.6,32.7z"/>
				<path fill="#FFFFFF" d="M23.3,34.2c-0.3,0-0.5-0.1-0.5-0.4c-0.1,0.3-0.2,0.4-0.5,0.4c0.2,0.2,0.3,0.4,0.2,0.6
					c0.2-0.2,0.5-0.2,0.7,0c0-0.1-0.1-0.3,0-0.4C23.1,34.3,23.3,34.2,23.3,34.2z"/>
				<path fill="#FFFFFF" d="M33.9,34c1.8,0,3.4,0,5.1,0c0-0.5-0.1-1.4-0.3-1.8c-1.6,0-2.9,0-4.8,0C33.9,33.1,33.9,33.5,33.9,34z"/>
				<path fill="#FFFFFF" d="M20,32.6c0.2-0.2,0.5-0.2,0.7,0c-0.2-0.3,0-0.4,0.2-0.6c-0.1,0-0.3,0-0.3,0c-0.1-0.1-0.1-0.2-0.2-0.3
					c-0.1,0.3-0.2,0.4-0.5,0.4C20.1,32.2,20.1,32.4,20,32.6z"/>
				<path fill="#FFFFFF" d="M24,32.7c-0.1,0.3-0.2,0.4-0.5,0.4c0.2,0.2,0.3,0.4,0.1,0.6c0.2-0.1,0.3-0.2,0.4-0.2
					c0.1,0,0.2,0.1,0.3,0.2c-0.1-0.3,0-0.5,0.2-0.6C24.3,33.1,24.1,33,24,32.7z"/>
				<path fill="#FFFFFF" d="M22.5,28.4c0.2-0.3,0.5-0.3,0.7,0c-0.2-0.3,0-0.5,0.2-0.6c-0.3,0.1-0.5,0-0.5-0.3
					c-0.1,0.3-0.2,0.4-0.5,0.4C22.6,28,22.6,28.2,22.5,28.4z"/>
				<path fill="#FFFFFF" d="M28.7,27.4c0.2-0.3,0.5-0.2,0.7,0c-0.2-0.3,0-0.5,0.2-0.6c-0.3,0.1-0.5,0-0.5-0.4
					c-0.2,0.3-0.2,0.3-0.5,0.4C28.8,26.9,28.7,27.1,28.7,27.4z"/>
				<path fill="#FFFFFF" d="M27.5,26.3c0.1-0.1,0.2-0.1,0.3-0.2c0.1,0.1,0.2,0.1,0.3,0.2c-0.1-0.3,0-0.5,0.2-0.6
					c-0.3,0-0.5,0-0.5-0.4c-0.1,0.2-0.2,0.4-0.5,0.4C27.5,25.9,27.6,26.1,27.5,26.3z"/>
				<path fill="#FFFFFF" d="M30.8,29.9c-0.3,0-0.5,0-0.5-0.4c-0.1,0.3-0.2,0.4-0.5,0.4c0.3,0.2,0.3,0.4,0.2,0.6
					c0.2-0.3,0.5-0.2,0.7,0C30.5,30.2,30.6,30.1,30.8,29.9z"/>
				<path fill="#FFFFFF" d="M32,31c-0.3,0-0.5,0-0.5-0.3C31.4,30.9,31.3,31,31,31c0.3,0.2,0.3,0.4,0.2,0.6c0.2-0.3,0.5-0.2,0.7,0
					C31.7,31.3,31.8,31.1,32,31z"/>
				<path fill="#FFFFFF" d="M25,26.3c0.2-0.3,0.5-0.2,0.7,0c-0.2-0.3-0.1-0.5,0.2-0.6c-0.2,0-0.4,0-0.5-0.2c-0.1,0-0.1,0.1-0.2,0.1
					c0,0-0.1,0.1-0.2,0.1c0,0-0.1,0-0.1,0.1C25,25.9,25.1,26.1,25,26.3z"/>
				<path fill="#FFFFFF" d="M34,27.7c0,0,0.1,0.2,0.2,0.2c0.6,0,1.2,0.1,1.8,0.1c0.1,0,0.2,0,0.3,0c-0.6-0.9-1.2-1.4-2-1.8
					c-0.1,0-0.2,0-0.3,0C34,26.6,34,27.2,34,27.7z"/>
				<path fill="#FFFFFF" d="M23.7,27.4c0.2-0.3,0.5-0.2,0.7,0c-0.2-0.3,0-0.5,0.2-0.6c-0.3,0-0.5,0-0.5-0.4
					c-0.1,0.2-0.1,0.3-0.2,0.3c-0.1,0.1-0.2,0-0.4,0C23.8,26.9,23.8,27.1,23.7,27.4z"/>
				<path fill="#FFFFFF" d="M34,29.6c0,0.4,0,0.7,0,1.1c0,0.2,0,0.2,0.2,0.2c0.9,0,1.7-0.1,2.6-0.1c0.5,0,1,0,1.5,0
					c-0.2-0.5-0.5-0.9-0.8-1.4c-1.1,0-2.3,0-3.4,0C34,29.4,34,29.5,34,29.6z"/>
				<path fill="#FFFFFF" d="M32.2,25.7c0.3,0.2,0.3,0.4,0.2,0.6c0.2-0.3,0.5-0.2,0.7,0c-0.1-0.3-0.1-0.4,0.1-0.6c0,0-0.1,0-0.1,0
					c-0.1,0-0.2,0-0.3-0.1c-0.1,0-0.1,0-0.2-0.1C32.6,25.6,32.5,25.7,32.2,25.7z"/>
				<path fill="#FFFFFF" d="M22.8,31.7c-0.1,0.3-0.2,0.4-0.5,0.3c0.1,0.1,0.2,0.2,0.2,0.3c0,0.1,0,0.2-0.1,0.3
					c0.2-0.2,0.5-0.2,0.7,0c-0.2-0.3,0-0.4,0.2-0.6C23.1,32.1,22.9,32,22.8,31.7z"/>
				<path fill="#FFFFFF" d="M20.7,30.5c-0.2-0.3,0-0.4,0.2-0.6c-0.2,0-0.3,0-0.4-0.1c-0.1,0.2-0.2,0.4-0.3,0.6
					C20.3,30.3,20.5,30.3,20.7,30.5z"/>
				<path fill="#FFFFFF" d="M21.2,29.5c0.2-0.2,0.5-0.2,0.7,0c-0.2-0.3,0-0.4,0.2-0.6c-0.3,0-0.5,0-0.5-0.4
					c-0.1,0.2-0.2,0.4-0.5,0.4c0,0,0,0,0,0C21.3,29,21.3,29.2,21.2,29.5z"/>
				<path fill="#FFFFFF" d="M23.7,29.4c0.2-0.2,0.5-0.2,0.7,0c-0.2-0.3,0-0.4,0.2-0.6c-0.3,0-0.5,0-0.5-0.4
					c-0.1,0.3-0.2,0.4-0.5,0.4C23.8,29,23.8,29.2,23.7,29.4z"/>
				<path fill="#2368B5" d="M39,34.8c0-0.3,0-0.8,0-0.8c-1.7,0-3.2,0-5.1,0c0-0.5,0-0.9,0-1.8c1.8,0,3.2,0,4.8,0
					c-0.1-0.5-0.3-0.9-0.5-1.4c-0.5,0-1,0-1.5,0c-0.9,0-1.7,0.1-2.6,0.1c-0.2,0-0.2,0-0.2-0.2c0-0.4,0-0.7,0-1.1c0-0.1,0-0.2,0-0.2
					c1.1,0,2.3,0,3.4,0c-0.3-0.5-0.7-0.9-1.2-1.4c-0.1,0-0.2,0-0.3,0c-0.6,0-1.2-0.1-1.8-0.1c-0.1,0-0.2-0.2-0.2-0.2
					c0-0.5,0-1.1,0-1.6c0.1,0,0.2,0,0.3,0c-0.3,0-0.7-0.3-1-0.5c-0.2,0.2-0.3,0.4-0.1,0.6c-0.2-0.2-0.5-0.2-0.7,0
					c0.1-0.3,0.1-0.5-0.2-0.6c0.2,0,0.4,0,0.4-0.2c-1.1-0.4-2.3-0.7-3.6-0.7c-1.3,0-2.6,0.3-3.7,0.7c0.1,0.2,0.3,0.2,0.5,0.2
					c-0.2,0.2-0.3,0.4-0.2,0.6c-0.2-0.2-0.5-0.3-0.7,0c0.1-0.2,0.1-0.4-0.1-0.6c-1.5,0.7-2.8,1.8-3.8,3.1c0.3,0.1,0.4-0.1,0.5-0.4
					c0.1,0.3,0.2,0.4,0.5,0.4c-0.2,0.2-0.4,0.3-0.2,0.6c-0.2-0.2-0.5-0.2-0.7,0c0.1-0.2,0.1-0.4-0.1-0.6c-0.2,0.3-0.4,0.6-0.6,0.9
					c0.1,0.1,0.2,0.1,0.4,0.1c-0.2,0.2-0.4,0.3-0.2,0.6c-0.2-0.2-0.4-0.2-0.6-0.1c-0.6,1.3-1,2.8-1,4.4c0,0.2,0,0.6,0,0.6
					c6.6,0,13.3,0,19.9,0C39,35.4,39,35,39,34.8z M20.3,31.6c0.1,0.1,0.1,0.3,0.2,0.3c0.1,0.1,0.2,0,0.3,0c-0.2,0.2-0.3,0.3-0.2,0.6
					c-0.2-0.2-0.5-0.2-0.7,0c0.1-0.2,0.1-0.4-0.2-0.6C20.1,32.1,20.3,31.9,20.3,31.6z M20.7,34.7c-0.3-0.2-0.5-0.2-0.7,0
					c0.1-0.2,0.1-0.4-0.1-0.6c0.3,0.1,0.4-0.1,0.5-0.3c0,0.3,0.3,0.4,0.5,0.3C20.7,34.3,20.5,34.5,20.7,34.7z M21.6,30.6
					c0.1,0.3,0.2,0.4,0.5,0.3c-0.2,0.2-0.4,0.3-0.2,0.6c-0.1-0.1-0.2-0.1-0.3-0.1c-0.1,0-0.2,0.1-0.4,0.2c0.1-0.3,0.1-0.5-0.1-0.6
					C21.3,31,21.5,30.9,21.6,30.6z M21.9,33.7c-0.2-0.2-0.5-0.2-0.7,0c0.1-0.2,0.1-0.4-0.2-0.6c0.3,0,0.5-0.1,0.5-0.4
					c0.1,0.3,0.2,0.4,0.5,0.4C21.9,33.2,21.7,33.4,21.9,33.7z M31.5,26.4c0,0.3,0.3,0.4,0.5,0.4c-0.2,0.2-0.3,0.3-0.2,0.6
					c-0.2-0.2-0.5-0.3-0.7,0c0.1-0.3,0.1-0.5-0.2-0.6C31.3,26.8,31.4,26.7,31.5,26.4z M31.3,28.8c0.1-0.1,0.1-0.2,0.2-0.3
					c0.1,0.1,0.1,0.2,0.2,0.3c0.1,0,0.2,0,0.4,0C32,29,31.8,29,31.8,29.1c0,0.1,0,0.2,0.1,0.4c-0.1-0.1-0.2-0.2-0.4-0.2
					c-0.1,0-0.2,0.1-0.3,0.2c0.1-0.2,0.1-0.4-0.2-0.6C31.1,28.8,31.3,28.9,31.3,28.8z M31.9,31.6c-0.2-0.2-0.5-0.3-0.7,0
					c0.1-0.3,0.1-0.5-0.2-0.6c0.3,0,0.4-0.1,0.5-0.4c0.1,0.3,0.2,0.4,0.5,0.3C31.8,31.1,31.7,31.3,31.9,31.6z M30.3,25.3
					c0,0.3,0.2,0.4,0.5,0.4c-0.2,0.2-0.4,0.3-0.2,0.6c-0.3-0.2-0.5-0.2-0.7,0c0.1-0.3,0.1-0.5-0.1-0.6
					C30.1,25.8,30.2,25.6,30.3,25.3z M30.3,27.4c0,0.3,0.2,0.4,0.5,0.4c-0.2,0.2-0.4,0.3-0.1,0.6c0,0,0,0-0.1,0
					c-0.1-0.1-0.2-0.2-0.3-0.2c-0.1,0-0.2,0.1-0.4,0.2c0-0.1,0.1-0.3,0.1-0.4c0-0.1-0.1-0.2-0.2-0.3C30.1,27.9,30.2,27.7,30.3,27.4z
					 M30.6,30.5c-0.2-0.2-0.5-0.2-0.7,0c0.1-0.3,0.1-0.5-0.2-0.6c0.3,0.1,0.4-0.1,0.5-0.4c0.1,0.3,0.2,0.4,0.5,0.4
					C30.6,30.1,30.5,30.2,30.6,30.5z M29,26.4c0,0.3,0.2,0.4,0.5,0.4c-0.2,0.2-0.4,0.3-0.2,0.6c-0.3-0.2-0.5-0.3-0.7,0
					c0.1-0.3,0.1-0.5-0.2-0.6C28.9,26.7,28.9,26.7,29,26.4z M27.8,25.3c0,0.3,0.2,0.4,0.5,0.4c-0.2,0.2-0.3,0.3-0.2,0.6
					c-0.1-0.1-0.2-0.1-0.3-0.2c-0.1,0.1-0.2,0.1-0.3,0.2c0.1-0.2,0.1-0.4-0.2-0.6C27.6,25.8,27.7,25.6,27.8,25.3z M22.8,27.4
					c0.1,0.3,0.2,0.4,0.5,0.3c-0.2,0.2-0.4,0.4-0.2,0.6c-0.2-0.3-0.5-0.2-0.7,0c0.1-0.3,0.1-0.5-0.2-0.6
					C22.6,27.8,22.7,27.7,22.8,27.4z M23.2,30.5c-0.3-0.2-0.5-0.2-0.7,0c0.1-0.3,0.1-0.4-0.2-0.6c0.3,0.1,0.4-0.1,0.5-0.3
					c0,0.3,0.2,0.4,0.5,0.3C23.2,30.1,23,30.2,23.2,30.5z M23.2,34.7c-0.2-0.2-0.5-0.2-0.7,0c0.1-0.3,0.1-0.4-0.2-0.6
					c0.3,0.1,0.4-0.1,0.5-0.4c0,0.3,0.2,0.4,0.5,0.4c-0.1,0.1-0.2,0.1-0.2,0.2C23.1,34.5,23.1,34.6,23.2,34.7z M23.2,32.6
					c-0.2-0.2-0.5-0.2-0.7,0c0-0.1,0.1-0.2,0.1-0.3c0-0.1-0.1-0.2-0.2-0.3c0.3,0.1,0.4-0.1,0.5-0.3c0,0.3,0.2,0.4,0.5,0.4
					C23.1,32.2,23,32.3,23.2,32.6z M23.9,26.7c0.1-0.1,0.1-0.2,0.2-0.3c0,0.4,0.2,0.4,0.5,0.4c-0.2,0.2-0.3,0.4-0.2,0.6
					c-0.2-0.2-0.5-0.3-0.7,0c0.1-0.3,0.1-0.5-0.2-0.6C23.7,26.7,23.8,26.7,23.9,26.7z M24.1,28.5c0.1,0.3,0.2,0.4,0.5,0.4
					c-0.2,0.2-0.3,0.3-0.2,0.6c-0.2-0.2-0.5-0.2-0.7,0c0.1-0.2,0.1-0.4-0.2-0.6C23.8,28.9,24,28.8,24.1,28.5z M24.4,33.7
					c-0.1-0.1-0.2-0.2-0.3-0.2c-0.1,0-0.2,0.1-0.4,0.2c0.1-0.3,0.1-0.5-0.1-0.6c0.3,0.1,0.4-0.1,0.5-0.4c0.1,0.3,0.2,0.4,0.5,0.4
					C24.4,33.2,24.2,33.4,24.4,33.7z M24.3,31.2c0,0.1,0,0.2,0,0.3c-0.1-0.1-0.2-0.2-0.4-0.2c-0.1,0-0.2,0.1-0.4,0.2
					c0.2-0.3,0.1-0.5-0.1-0.6c0.3,0,0.4-0.1,0.5-0.3c0.1,0.3,0.2,0.4,0.5,0.3c0,0,0,0,0,0.1C24.5,31.1,24.4,31.1,24.3,31.2z
					 M25.7,34.8c-0.3-0.2-0.5-0.2-0.7,0c0.1-0.3,0.1-0.5-0.2-0.6c0.3,0.1,0.4-0.1,0.5-0.3c0,0.3,0.3,0.4,0.5,0.4
					C25.6,34.3,25.5,34.5,25.7,34.8z M25.7,30.5c-0.2-0.1-0.3-0.2-0.4-0.2c-0.1,0-0.2,0.1-0.3,0.2c0.1-0.2,0.1-0.4-0.2-0.6
					c0.3,0.1,0.4-0.1,0.5-0.4c0,0.3,0.2,0.4,0.5,0.3C25.7,30.1,25.5,30.2,25.7,30.5z M25.3,31.7c0.1,0.3,0.2,0.4,0.5,0.3
					c-0.2,0.2-0.4,0.3-0.2,0.6c-0.3-0.3-0.5-0.2-0.7,0c0.1-0.2,0.1-0.5-0.2-0.6C25.1,32.1,25.2,32,25.3,31.7z M25.6,28.4
					c-0.1-0.1-0.2-0.2-0.3-0.2c-0.1,0-0.2,0.1-0.3,0.2c0-0.1,0.1-0.2,0.1-0.3c0-0.1-0.1-0.2-0.2-0.3c0.3,0.1,0.4-0.1,0.5-0.3
					c0.1,0.1,0.1,0.3,0.2,0.3c0.1,0.1,0.2,0,0.4,0C25.7,28,25.5,28.1,25.6,28.4z M26.5,26.4c0.1,0.3,0.3,0.4,0.5,0.4
					c-0.2,0.2-0.3,0.4-0.2,0.6c-0.2-0.2-0.5-0.3-0.7,0c0.1-0.3,0.1-0.5-0.2-0.6C26.3,26.8,26.5,26.7,26.5,26.4z M26.9,31.6
					c-0.3-0.2-0.5-0.2-0.7,0c0.1-0.3,0.1-0.4-0.2-0.6c0.3,0.1,0.4-0.1,0.5-0.3c0,0.3,0.3,0.4,0.5,0.3C26.9,31.1,26.7,31.3,26.9,31.6
					z M26.9,33.7c-0.1-0.1-0.2-0.2-0.3-0.2c-0.1,0-0.2,0.1-0.3,0.2c0.1-0.2,0.1-0.4-0.2-0.6c0.3,0,0.5-0.1,0.5-0.3
					c0,0.1,0.1,0.2,0.2,0.3c0.1,0.1,0.2,0,0.4,0C26.9,33.2,26.7,33.4,26.9,33.7z M26.9,29.5c-0.3-0.3-0.5-0.2-0.7,0
					c0.1-0.2,0.1-0.4-0.2-0.6c0.3,0,0.4-0.1,0.5-0.4c0.1,0.2,0.1,0.3,0.2,0.4c0.1,0.1,0.2,0,0.4,0C26.9,29,26.7,29.2,26.9,29.5z
					 M28.1,32.6c-0.2-0.3-0.5-0.2-0.7,0c0.1-0.3,0.1-0.5-0.1-0.6c0.3,0.1,0.4-0.1,0.5-0.4c0.1,0.3,0.2,0.4,0.5,0.4
					C28.1,32.2,28,32.4,28.1,32.6z M28.1,30.5c-0.2-0.2-0.5-0.2-0.7,0c0.1-0.3,0.1-0.4-0.2-0.6c0.2,0,0.3,0,0.4-0.1
					c0.1-0.1,0.1-0.2,0.2-0.3c0,0.4,0.2,0.4,0.5,0.4C28.1,30.1,28,30.2,28.1,30.5z M28.1,34.8c-0.2-0.3-0.5-0.2-0.7,0
					c0.1-0.3,0.1-0.5-0.2-0.6c0.3-0.1,0.3-0.1,0.6-0.4c0,0.3,0.2,0.4,0.5,0.4C28.1,34.3,28,34.5,28.1,34.8z M28.1,28.4
					c-0.2-0.2-0.5-0.2-0.7,0c0.1-0.3,0.1-0.5-0.2-0.6c0.3,0,0.4,0,0.5-0.3c0.1,0.1,0.1,0.2,0.2,0.3c0.1,0.1,0.2,0,0.3,0c0,0,0,0,0,0
					C28.1,27.9,28,28.1,28.1,28.4z M29.4,33.7c-0.2-0.2-0.5-0.2-0.7,0c0.1-0.3,0.1-0.5-0.1-0.6c0.3,0,0.4-0.1,0.5-0.4
					c0.1,0.3,0.2,0.4,0.5,0.4C29.3,33.2,29.2,33.4,29.4,33.7z M29.4,31.6c-0.3-0.2-0.5-0.2-0.7,0c0-0.3,0-0.3-0.2-0.6
					c0.3,0.1,0.4-0.1,0.5-0.3c0,0.3,0.3,0.4,0.5,0.3C29.4,31.1,29.2,31.3,29.4,31.6z M29.4,29.4c-0.2-0.2-0.5-0.2-0.7,0
					c0.1-0.3,0.1-0.4-0.2-0.6c0.2,0,0.3,0,0.4-0.1c0.1-0.1,0.1-0.2,0.2-0.3c0.1,0.1,0.1,0.3,0.2,0.3c0.1,0.1,0.2,0,0.4,0
					C29.4,29,29.2,29.2,29.4,29.4z M30.1,32c0.1-0.1,0.1-0.2,0.2-0.3c0,0.3,0.2,0.4,0.5,0.4c-0.2,0.2-0.3,0.4-0.2,0.6
					c-0.2-0.3-0.5-0.2-0.7,0c0.1-0.3,0.1-0.5-0.2-0.6C29.9,32,30,32,30.1,32z M30.6,34.8c-0.2-0.3-0.5-0.3-0.7,0
					c0.1-0.3,0.1-0.5-0.2-0.6c0.3,0,0.4-0.1,0.5-0.4c0.1,0.1,0.1,0.3,0.2,0.3c0.1,0.1,0.2,0,0.3,0c0,0,0,0,0,0.1
					c-0.1,0.1-0.2,0.1-0.3,0.2C30.5,34.5,30.6,34.6,30.6,34.8z M31.9,33.7c-0.2-0.2-0.5-0.2-0.7,0c0-0.2,0.1-0.3,0.1-0.4
					c0-0.1-0.1-0.2-0.2-0.3c0.3,0.1,0.5-0.1,0.5-0.3c0.1,0.1,0.1,0.3,0.2,0.3c0.1,0.1,0.2,0,0.4,0C31.8,33.2,31.7,33.4,31.9,33.7z
					 M33.1,32.6c-0.1-0.1-0.2-0.2-0.3-0.2c-0.1,0-0.2,0.1-0.4,0.2c0.1-0.3,0.1-0.5-0.1-0.6c0.3,0.1,0.4-0.1,0.5-0.4
					c0.1,0.3,0.2,0.4,0.5,0.3C33.1,32.2,32.9,32.4,33.1,32.6z M32.8,27.4c0.1,0.3,0.2,0.4,0.5,0.4C33,28,33,28.1,33.1,28.4
					c-0.2-0.3-0.5-0.2-0.7,0c0-0.1,0.1-0.2,0.1-0.3c0-0.1-0.1-0.2-0.2-0.3C32.5,27.8,32.7,27.7,32.8,27.4z M32.8,29.6
					c0.1,0.3,0.2,0.4,0.5,0.3c0,0,0,0,0,0.1c-0.1,0.1-0.2,0.2-0.2,0.3c0,0.1,0,0.2,0.1,0.4c-0.2-0.2-0.5-0.3-0.7,0
					c0.1-0.3,0.1-0.5-0.2-0.6C32.6,30,32.7,29.8,32.8,29.6z M33.1,34.8c-0.2-0.2-0.5-0.3-0.7,0c0.1-0.3,0.1-0.5-0.2-0.6
					c0.3,0.1,0.4-0.1,0.5-0.4c0,0.3,0.2,0.4,0.5,0.4C33.1,34.3,32.9,34.5,33.1,34.8z"/>
				<path fill="#2368B5" d="M33.1,25.7c-0.1,0-0.2-0.1-0.3-0.1C32.9,25.6,33,25.7,33.1,25.7z"/>
				<path fill="#2368B5" d="M25.2,25.6c-0.1,0-0.1,0.1-0.2,0.1C25.1,25.7,25.1,25.7,25.2,25.6z"/>
				<path fill="#2368B5" d="M34.8,42.8c-3.8,0-7.6,0-11.4,0c1,0.9,2.1,1.4,3.2,1.8c1.6,0,3.2,0,4.9,0C32.7,44.1,33.8,43.7,34.8,42.8
					z"/>
				<path fill="#2368B5" d="M37.6,40c-5.7,0-11.4,0-17.1,0c0.3,0.5,0.7,0.9,1.1,1.4c5,0,9.9,0,14.9,0C36.9,40.9,37.3,40.5,37.6,40z"
					/>
				<path fill="#2368B5" d="M38.8,36.8c-6.5,0-13,0-19.5,0c0.1,0.5,0.3,0.9,0.4,1.4c6.2,0,12.4,0,18.6,0
					C38.6,37.7,38.7,37.2,38.8,36.8z"/>
			</g>
			<g>
				<path fill="#0C56AB" d="M29.1,24.8c5.5,0,10,4.5,10,10c0,5.5-4.5,10-10,10c-5.5,0-10-4.5-10-10C19.1,29.3,23.6,24.8,29.1,24.8
					 M29.1,24.1c-5.9,0-10.6,4.8-10.6,10.6s4.8,10.6,10.6,10.6c5.9,0,10.6-4.8,10.6-10.6S34.9,24.1,29.1,24.1L29.1,24.1z"/>
			</g>
		</g>
		<g>
			<g>
				<g>
					<path fill="#0C56AB" d="M44.6,1.1C53.7,1.1,61,8.5,61,17.5c0,9.1-7.3,16.4-16.4,16.4c-9.1,0-16.4-7.3-16.4-16.4
						C28.2,8.5,35.6,1.1,44.6,1.1 M44.6,0C35,0,27.1,7.9,27.1,17.5c0,9.7,7.9,17.5,17.5,17.5c9.7,0,17.5-7.9,17.5-17.5
						C62.2,7.9,54.3,0,44.6,0L44.6,0z"/>
				</g>
			</g>
			<circle fill="none" stroke="#FFFFFF" stroke-width="0.6686" stroke-miterlimit="10" cx="44.6" cy="17.5" r="16.4"/>
			<g>
				<defs>
					<circle id="SVGID_1_" cx="44.6" cy="17.5" r="16.3"/>
				</defs>
				<clipPath id="SVGID_2_">
					<use xlink:href="#SVGID_1_"  overflow="visible"/>
				</clipPath>
				<circle clip-path="url(#SVGID_2_)" fill="#FFFFFF" cx="44.6" cy="17.5" r="16.9"/>
				<g id="yq35wh_3_" clip-path="url(#SVGID_2_)">
					<g>
						<path fill="#2368B5" d="M33.1,13.4c0.1-0.4,0.1-0.9,0.2-1.3c0-0.1,0-0.2-0.1-0.3c-0.3-0.3-0.6-0.6-0.9-0.9c0,0,0,0,0-0.1
							c0.3,0,0.5-0.1,0.8-0.1c0.1,0,0.1,0,0.2,0c0.3,0,0.4-0.1,0.6-0.4c0.1-0.3,0.3-0.6,0.4-1c0.2,0.4,0.4,0.8,0.5,1.2
							c0,0.1,0.1,0.2,0.2,0.2c0.4,0,0.8,0.1,1.2,0.2c-0.2,0.2-0.4,0.5-0.6,0.6c-0.3,0.3-0.4,0.6-0.3,1c0.1,0.3,0.1,0.6,0.2,0.9
							c-0.3-0.2-0.6-0.3-0.9-0.5c-0.3-0.2-0.6-0.2-0.9,0C33.6,13.1,33.4,13.2,33.1,13.4z"/>
						<path fill="#2368B5" d="M50.7,25c0.2,0.4,0.4,0.8,0.5,1.2c0.1,0.1,0.1,0.2,0.3,0.2c0.4,0,0.7,0.1,1.1,0.1c0,0,0,0,0.1,0
							c-0.1,0.1-0.2,0.2-0.3,0.4c-0.1,0.1-0.2,0.3-0.4,0.4c-0.2,0.2-0.3,0.4-0.2,0.7c0.1,0.3,0.1,0.7,0.1,1c-0.4-0.2-0.7-0.4-1-0.6
							c-0.1-0.1-0.3-0.1-0.4,0c-0.3,0.2-0.7,0.4-1,0.6c0.1-0.4,0.1-0.7,0.2-1.1c0.1-0.3,0-0.5-0.2-0.7c-0.3-0.2-0.5-0.5-0.8-0.7
							c0,0,0,0,0-0.1c0.3,0,0.6-0.1,0.9-0.1c0.4,0,0.6-0.2,0.8-0.5C50.4,25.6,50.5,25.3,50.7,25z"/>
						<path fill="#2368B5" d="M55,9.4c0.2,0.4,0.4,0.8,0.5,1.2c0.1,0.1,0.1,0.2,0.2,0.2c0.4,0,0.8,0.1,1.2,0.2
							C56.9,11,56.9,11,56.8,11c-0.3,0.3-0.5,0.5-0.8,0.8C56,11.9,55.9,12,56,12.1c0.1,0.4,0.1,0.8,0.2,1.3c-0.1,0-0.1,0-0.1-0.1
							c-0.3-0.2-0.6-0.3-0.9-0.5c-0.1-0.1-0.2-0.1-0.3,0c-0.4,0.2-0.7,0.4-1.1,0.6c0.1-0.4,0.1-0.8,0.2-1.1c0.1-0.2,0-0.4-0.2-0.6
							c-0.3-0.2-0.5-0.5-0.8-0.8c0.4-0.1,0.8-0.1,1.2-0.1c0.2,0,0.3-0.1,0.4-0.3C54.6,10.1,54.8,9.8,55,9.4z"/>
						<path fill="#2368B5" d="M40.6,26.6c-0.3,0.3-0.6,0.6-0.9,0.9c-0.1,0.1-0.1,0.2-0.1,0.3c0.1,0.4,0.1,0.7,0.2,1.1
							c0,0,0,0.1,0,0.2c-0.4-0.2-0.7-0.4-1-0.6c-0.1-0.1-0.2-0.1-0.4,0c-0.3,0.2-0.7,0.4-1,0.6c0-0.4,0.1-0.7,0.1-1
							c0.1-0.3,0-0.5-0.2-0.7c-0.3-0.2-0.5-0.5-0.7-0.8c0.2,0,0.4-0.1,0.6-0.1c0.2,0,0.4,0,0.6-0.1c0.1,0,0.2-0.1,0.2-0.1
							c0.2-0.4,0.4-0.8,0.6-1.2c0.2,0.4,0.3,0.7,0.5,1c0.1,0.2,0.2,0.3,0.4,0.3C39.9,26.4,40.2,26.5,40.6,26.6
							C40.6,26.6,40.6,26.6,40.6,26.6z"/>
						<path fill="#2368B5" d="M31.7,19.5c0.1-0.5,0.1-0.9,0.2-1.3c0-0.1,0-0.2-0.1-0.3c-0.3-0.2-0.5-0.5-0.8-0.8
							c0,0-0.1-0.1-0.1-0.1c0.4-0.1,0.8-0.1,1.3-0.2c0.1,0,0.2-0.1,0.2-0.1c0.2-0.4,0.4-0.8,0.6-1.2c0.1,0.2,0.1,0.3,0.2,0.4
							c0,0.1,0.1,0.2,0.1,0.3c0.1,0.2,0.2,0.5,0.3,0.6c0.2,0.1,0.4,0.1,0.7,0.1c0.2,0,0.4,0.1,0.7,0.1c0,0.1-0.1,0.1-0.1,0.1
							c-0.3,0.3-0.5,0.5-0.8,0.8c-0.1,0.1-0.1,0.2-0.1,0.3c0.1,0.4,0.1,0.8,0.2,1.3c-0.3-0.2-0.6-0.3-0.8-0.5
							c-0.3-0.2-0.5-0.2-0.8,0C32.2,19.2,32,19.4,31.7,19.5z"/>
						<path fill="#2368B5" d="M55.1,19.5c0.1-0.4,0.1-0.9,0.2-1.3c0-0.1,0-0.2-0.1-0.3c-0.3-0.3-0.6-0.6-0.9-0.9
							c0.3-0.1,0.6-0.1,0.9-0.1c0.4,0,0.7-0.2,0.8-0.6c0.1-0.3,0.2-0.5,0.3-0.7c0,0,0,0,0,0c0.1,0.3,0.3,0.5,0.3,0.7
							c0.1,0.4,0.4,0.6,0.8,0.6c0.3,0,0.5,0.1,0.8,0.1c-0.1,0.1-0.1,0.1-0.1,0.1c-0.3,0.3-0.5,0.5-0.8,0.8c-0.1,0.1-0.1,0.2-0.1,0.3
							c0.1,0.4,0.1,0.8,0.2,1.2c0,0,0,0,0,0c-0.1-0.1-0.2-0.1-0.4-0.2c-0.2-0.1-0.5-0.3-0.7-0.4c-0.1-0.1-0.2-0.1-0.3,0
							C55.9,19.1,55.5,19.3,55.1,19.5z"/>
						<path fill="#2368B5" d="M48.6,6.9c0.4-0.1,0.8-0.2,1.2-0.2c0.1,0,0.2-0.1,0.3-0.2c0.2-0.4,0.3-0.7,0.5-1.1
							c0.2,0.4,0.4,0.7,0.5,1.1c0.1,0.1,0.1,0.2,0.2,0.2c0.4,0.1,0.8,0.1,1.2,0.2c0,0-0.1,0.1-0.1,0.1c-0.3,0.3-0.5,0.5-0.8,0.8
							c-0.1,0.1-0.1,0.1-0.1,0.3c0.1,0.4,0.1,0.8,0.2,1.3c-0.1,0-0.1,0-0.1-0.1c-0.3-0.2-0.6-0.4-0.9-0.5c-0.1-0.1-0.2-0.1-0.3,0
							c-0.3,0.2-0.6,0.3-0.9,0.5c0,0-0.1,0-0.2,0.1c0-0.3,0.1-0.6,0.1-0.8c0-0.1,0-0.1,0-0.2c0.1-0.3,0-0.6-0.3-0.8
							C49.1,7.4,48.9,7.1,48.6,6.9z"/>
						<path fill="#2368B5" d="M39.8,9.3c-0.4-0.2-0.7-0.4-1-0.6c-0.2-0.1-0.3-0.1-0.5,0c-0.3,0.2-0.6,0.4-1,0.6c0-0.4,0.1-0.7,0.1-1
							c0.1-0.3,0-0.5-0.2-0.7c-0.2-0.2-0.5-0.4-0.7-0.7c0.4-0.1,0.8-0.2,1.3-0.2c0.1,0,0.2-0.1,0.2-0.2c0.2-0.4,0.3-0.7,0.5-1.1
							c0.1,0.3,0.3,0.5,0.4,0.8c0.1,0.4,0.4,0.6,0.8,0.6c0.3,0,0.5,0.1,0.9,0.1c-0.2,0.2-0.4,0.4-0.6,0.6c-0.4,0.3-0.5,0.6-0.3,1
							C39.8,8.7,39.8,9,39.8,9.3z"/>
						<path fill="#2368B5" d="M32.3,22.5c0.5-0.1,0.9-0.1,1.3-0.2c0.1,0,0.2-0.1,0.2-0.1c0.2-0.3,0.3-0.6,0.5-0.9
							c0-0.1,0.1-0.1,0.1-0.2c0.2,0.4,0.4,0.7,0.5,1.1c0,0.1,0.1,0.1,0.2,0.2c0.4,0.1,0.8,0.1,1.3,0.2c-0.1,0.1-0.2,0.2-0.3,0.3
							c0,0,0,0,0,0c-0.2,0.2-0.5,0.4-0.6,0.7c-0.1,0.3,0.1,0.6,0.1,0.9c0,0.2,0.1,0.3,0.1,0.5c-0.4-0.2-0.8-0.4-1.1-0.6
							c-0.1-0.1-0.2-0.1-0.3,0c-0.3,0.2-0.6,0.3-0.9,0.5c0,0-0.1,0.1-0.2,0.1c0.1-0.4,0.1-0.7,0.2-1c0.1-0.3,0-0.5-0.2-0.7
							C32.8,23,32.6,22.7,32.3,22.5z"/>
						<path fill="#2368B5" d="M53.7,24.9c0.1-0.5,0.2-0.9,0.2-1.3c0-0.1,0-0.2-0.1-0.2c-0.3-0.3-0.6-0.6-0.9-0.9c0,0,0,0,0-0.1
							c0.2,0,0.5-0.1,0.7-0.1c0.2,0,0.4-0.1,0.6-0.1c0.1,0,0.2-0.1,0.2-0.2c0.2-0.4,0.4-0.7,0.5-1.1c0.1,0.3,0.3,0.5,0.4,0.7
							c0.1,0.4,0.4,0.6,0.8,0.6c0.3,0,0.5,0.1,0.8,0.1c0,0,0,0,0,0c-0.1,0.1-0.2,0.2-0.2,0.2c-0.2,0.2-0.4,0.4-0.6,0.6
							c-0.1,0.1-0.1,0.2-0.1,0.3c0.1,0.4,0.1,0.7,0.2,1.1c0,0,0,0.1,0,0.2c-0.4-0.2-0.7-0.4-1-0.6c-0.1-0.1-0.2-0.1-0.4,0
							C54.4,24.5,54.1,24.7,53.7,24.9z"/>
						<path fill="#2368B5" d="M46.7,29.1c-0.3,0.3-0.5,0.5-0.8,0.8c-0.2,0.1-0.2,0.3-0.2,0.5c0.1,0.4,0.1,0.7,0.1,1.1
							c-0.3-0.2-0.6-0.3-0.8-0.5c-0.3-0.2-0.5-0.2-0.8,0c-0.2,0.2-0.5,0.3-0.8,0.5c0-0.3,0-0.6,0.1-0.9c0.1-0.4,0-0.7-0.3-0.9
							c-0.2-0.2-0.4-0.4-0.6-0.6c0,0,0,0,0,0c0.4-0.1,0.8-0.1,1.1-0.2c0.2,0,0.3-0.1,0.3-0.2c0.1-0.4,0.3-0.7,0.5-1.1
							c0,0.1,0.1,0.1,0.1,0.1c0.2,0.3,0.3,0.6,0.4,1c0.1,0.2,0.2,0.2,0.3,0.2C45.8,29,46.2,29,46.7,29.1z"/>
						<path fill="#2368B5" d="M43.4,7.4c0.1-0.4,0.1-0.8,0.2-1.2c0-0.1,0-0.2-0.1-0.3c-0.3-0.3-0.6-0.5-0.8-0.8c0,0,0,0,0-0.1
							c0.1,0,0.3,0,0.4-0.1c0.3,0,0.6-0.1,0.8-0.1c0.1,0,0.2-0.1,0.2-0.1c0.2-0.4,0.4-0.8,0.6-1.2c0,0.1,0.1,0.1,0.1,0.1
							c0.2,0.3,0.3,0.7,0.5,1c0,0.1,0.1,0.1,0.2,0.1c0.4,0.1,0.8,0.1,1.3,0.2c-0.3,0.3-0.6,0.6-0.9,0.9c-0.1,0.1-0.1,0.2-0.1,0.3
							c0.1,0.4,0.1,0.8,0.2,1.2c-0.1-0.1-0.2-0.1-0.3-0.2C45.3,7.1,45,7,44.8,6.8c-0.1-0.1-0.2-0.1-0.3,0C44.1,7,43.8,7.2,43.4,7.4z
							"/>
					</g>
				</g>
			</g>
		</g>
	</g>
</g>
<g>
</g>
<g>
</g>
<g>
</g>
<g>
</g>
<g>
</g>
<g>
</g>
<g>
</g>
<g>
</g>
<g>
</g>
<g>
</g>
<g>
</g>
<g>
</g>
<g>
</g>
<g>
</g>
<g>
</g>
</svg>
