<?xml version="1.0" encoding="utf-8"?>
<!-- Generator: Adobe Illustrator 18.0.0, SVG Export Plug-In . SVG Version: 6.00 Build 0)  -->
<!DOCTYPE svg PUBLIC "-//W3C//DTD SVG 1.1//EN" "http://www.w3.org/Graphics/SVG/1.1/DTD/svg11.dtd">
<svg version="1.1" id="Layer_1" xmlns="http://www.w3.org/2000/svg" xmlns:xlink="http://www.w3.org/1999/xlink" x="0px" y="0px"
	 viewBox="0 0 190.2 90" enable-background="new 0 0 190.2 90" xml:space="preserve">
<g>
	<g>
		<rect x="1.4" y="57.2" transform="matrix(0.1444 0.9895 -0.9895 0.1444 59.2086 47.8588)" fill="#573392" width="1" height="2"/>
		<path fill="#573392" d="M6.8,58l-0.1-1l3.8-0.6l0.1,1L6.8,58z M14.4,56.9l-0.1-1l3.8-0.6l0.1,1L14.4,56.9z M22,55.8l-0.1-1
			l3.8-0.5l0.1,1L22,55.8z M29.6,54.7l-0.1-1l3.8-0.6l0.1,1L29.6,54.7z M37.1,53.6l-0.1-1l0.9-0.1l1.6-1.9l0.8,0.7l-1.9,2.2
			L37.1,53.6z M42.9,48.3l-0.8-0.7l2.5-2.9l0.8,0.7L42.9,48.3z M47.9,42.5l-0.8-0.7l2.5-2.9l0.8,0.7L47.9,42.5z M52.9,36.7l-0.8-0.7
			l2.5-2.9l0.8,0.7L52.9,36.7z M58,30.9l-0.8-0.7l2.5-2.9l0.8,0.7L58,30.9z M63,25.2l-0.8-0.7l2.5-2.9l0.8,0.7L63,25.2z"/>
		<polygon fill="#573392" points="69.8,19.4 68.9,18.3 68,19.4 67.3,18.7 69,16.7 70.6,18.8 		"/>
		<path fill="#573392" d="M99.4,56.2l-2.5-3.1l0.8-0.6l2.5,3.1L99.4,56.2z M94.4,50L92,47l0.8-0.6l2.5,3.1L94.4,50z M89.5,43.9
			L87,40.8l0.8-0.6l2.5,3.1L89.5,43.9z M84.6,37.8l-2.5-3.1l0.8-0.6l2.5,3.1L84.6,37.8z M79.7,31.6l-2.5-3.1L78,28l2.5,3.1
			L79.7,31.6z M74.7,25.5l-2.5-3.1l0.8-0.6l2.5,3.1L74.7,25.5z"/>
		<polygon fill="#573392" points="103.6,61.4 101.8,59.2 102.6,58.6 103.4,59.5 103.9,58.4 104.8,58.9 		"/>
		<path fill="#573392" d="M106.5,55.3l-0.9-0.4l1.7-3.6l0.9,0.4L106.5,55.3z M110,48l-0.9-0.4l1.7-3.6l0.9,0.4L110,48z M113.5,40.8
			l-0.9-0.4l1.7-3.6l0.9,0.4L113.5,40.8z M117,33.5l-0.9-0.4l1.7-3.6l0.9,0.4L117,33.5z M120.5,26.3l-0.9-0.4l1.7-3.6l0.9,0.4
			L120.5,26.3z M124,19l-0.9-0.4l1.7-3.6l0.9,0.4L124,19z M127.5,11.8l-0.9-0.4l1.7-3.6l0.9,0.4L127.5,11.8z"/>
		<polygon fill="#573392" points="131,4.5 130.1,4.1 131.3,1.7 133.2,3.6 132.5,4.3 131.6,3.4 		"/>
		<path fill="#573392" d="M185.1,56.7l-2.9-2.9l0.7-0.7l2.9,2.9L185.1,56.7z M179.3,50.9l-2.9-2.9l0.7-0.7l2.9,2.9L179.3,50.9z
			 M173.4,45.1l-2.9-2.9l0.7-0.7l2.9,2.9L173.4,45.1z M167.6,39.2l-2.9-2.9l0.7-0.7l2.9,2.9L167.6,39.2z M161.7,33.4l-2.9-2.9
			l0.7-0.7l2.9,2.9L161.7,33.4z M155.9,27.6l-2.9-2.9l0.7-0.7l2.9,2.9L155.9,27.6z M150,21.8l-2.9-2.9l0.7-0.7l2.9,2.9L150,21.8z
			 M144.2,15.9l-2.9-2.9l0.7-0.7l2.9,2.9L144.2,15.9z M138.3,10.1l-2.9-2.9l0.7-0.7l2.9,2.9L138.3,10.1z"/>
		
			<rect x="188.1" y="59.5" transform="matrix(0.7086 0.7056 -0.7056 0.7086 97.4434 -115.9599)" fill="#573392" width="2" height="1"/>
	</g>
	<polygon fill="#573392" points="67.7,88.2 42,71.8 0,67.8 0.1,66.8 42.4,70.9 42.5,70.9 67.3,86.8 93.3,30.2 115.9,36.2 
		136.6,48.8 174.6,20 175.2,20.8 136.6,50 115.4,37.1 93.8,31.4 	"/>
	<circle fill="#573392" cx="42.2" cy="71.3" r="2.5"/>
	<circle fill="#573392" cx="38.8" cy="52.7" r="2.5"/>
	<circle fill="#573392" cx="69.4" cy="17.8" r="2.5"/>
	<circle fill="#573392" cx="103.1" cy="59.9" r="2.5"/>
	<circle fill="#573392" cx="131.4" cy="2.5" r="2.5"/>
	<circle fill="#573392" cx="67.9" cy="87.5" r="2.5"/>
	<circle fill="#573392" cx="93.6" cy="30.8" r="2.5"/>
	<circle fill="#573392" cx="115.6" cy="36.7" r="2.5"/>
	<circle fill="#573392" cx="136.6" cy="49.4" r="2.5"/>
	<polygon fill="#573392" points="175.5,27.1 174.5,27.1 174.5,20.8 167,20.8 167,19.8 175.5,19.8 	"/>
</g>
<g>
</g>
<g>
</g>
<g>
</g>
<g>
</g>
<g>
</g>
<g>
</g>
<g>
</g>
<g>
</g>
<g>
</g>
<g>
</g>
<g>
</g>
<g>
</g>
<g>
</g>
<g>
</g>
<g>
</g>
</svg>
