<?xml version="1.0" encoding="utf-8"?>
<!-- Generator: Adobe Illustrator 18.0.0, SVG Export Plug-In . SVG Version: 6.00 Build 0)  -->
<!DOCTYPE svg PUBLIC "-//W3C//DTD SVG 1.1//EN" "http://www.w3.org/Graphics/SVG/1.1/DTD/svg11.dtd">
<svg version="1.1" id="Layer_1" xmlns="http://www.w3.org/2000/svg" xmlns:xlink="http://www.w3.org/1999/xlink" x="0px" y="0px"
	 viewBox="0 0 113.5 74.7" enable-background="new 0 0 113.5 74.7" xml:space="preserve">
<g>
	<circle fill="#C42A5E" cx="13.3" cy="13.3" r="13.3"/>
	<g>
		<g>
			<path fill="#FFFFFF" d="M7.8,16.2c0-1.7,1.2-3.1,2.8-3.6C9.1,12,8.1,10.6,8.1,9.1c0-2.5,2.2-4.2,5.2-4.2c3,0,5.2,1.7,5.2,4.2
				c0,1.4-1,2.9-2.4,3.4c1.6,0.6,2.8,1.9,2.8,3.6c0,2.5-2.1,4.3-5.5,4.3C9.9,20.5,7.8,18.7,7.8,16.2z M16.1,15.9
				c0-1.2-1-2.3-2.8-2.3c-1.8,0-2.8,1.1-2.8,2.3s1,2.3,2.8,2.3C15.1,18.2,16.1,17.1,16.1,15.9z M15.8,9.3c0-1.1-0.9-2.1-2.5-2.1
				c-1.5,0-2.4,1-2.4,2.1c0,1.2,1,2.2,2.4,2.2C14.8,11.5,15.8,10.5,15.8,9.3z"/>
		</g>
		<g>
			<g id="CiTCLM_1_">
				<g>
					<defs>
						<circle id="SVGID_1_" cx="27.7" cy="59.1" r="15.5"/>
					</defs>
					<clipPath id="SVGID_2_">
						<use xlink:href="#SVGID_1_"  overflow="visible"/>
					</clipPath>
					<g id="CiTCLM_4_" clip-path="url(#SVGID_2_)">
						<rect x="12" y="43.6" fill="#040404" width="31.1" height="10.4"/>
						<rect x="12" y="53.9" fill="#D40404" width="31.1" height="10.4"/>
						<rect x="12" y="64.3" fill="#FFCE00" width="31.1" height="10.4"/>
					</g>
				</g>
			</g>
			<g>
				<g>
					<defs>
						<circle id="SVGID_3_" cx="56.5" cy="42.7" r="20.8"/>
					</defs>
					<clipPath id="SVGID_4_">
						<use xlink:href="#SVGID_3_"  overflow="visible"/>
					</clipPath>
					<circle clip-path="url(#SVGID_4_)" fill="#FFFFFF" cx="56.5" cy="43.2" r="22.4"/>
					<g id="_x38_raAOr_7_" clip-path="url(#SVGID_4_)">
						<g>
							<path fill="#2368B5" d="M113.5,21.8c0,1,0,2,0,3.1c-15.6,0-31.2,0-46.8,0c0,1.1,0,2,0,3c0,0.1,0.2,0.2,0.3,0.2
								c1.3,0,2.5,0,3.8,0c7.1,0,14.2,0,21.3,0c6.4,0,12.7,0,19.1,0c0.7,0,1.5,0,2.2,0c0,1,0,2.1,0,3.1c-15.6,0-31.1,0-46.7,0
								c0,0.2,0,0.3,0,0.4c0,0.8,0,1.6,0,2.3c0,0.4,0.1,0.5,0.5,0.5c1.8,0,3.6,0,5.3,0c13.5,0,26.9,0,40.4,0c0.2,0,0.4,0,0.6,0
								c0,1,0,1.9,0,2.9c-15.6,0-31.1,0-46.7,0c0,1.1,0,2.2,0,3.3c15.6,0,31.1,0,46.7,0c0,1.1,0,2.1,0,3.1c-26,0-51.9,0-77.9,0
								c0-7.4,0-14.7,0-22.1C61.6,21.8,87.5,21.8,113.5,21.8z M63.1,23.6c0.6,0.3,0.5,0.8,0.4,1.3c0.5-0.5,1-0.5,1.5,0
								c-0.3-0.6-0.1-1,0.4-1.3c-0.6,0.1-1-0.1-1.1-0.7C64,23.4,63.7,23.7,63.1,23.6z M46,25c-0.2,0.3-0.3,0.6-0.4,0.7
								c-0.2,0.1-0.4,0.1-0.8,0.1c0.6,0.4,0.6,0.8,0.4,1.3c0.5-0.5,1-0.5,1.5,0c-0.3-0.6-0.1-1,0.4-1.3C46.5,25.9,46.1,25.8,46,25z
								 M40.7,25c-0.1,0.6-0.4,0.9-1,0.8c0.5,0.4,0.6,0.8,0.2,1.4c0.4-0.2,0.6-0.5,0.8-0.5c0.2,0,0.5,0.2,0.7,0.4
								c-0.3-0.6,0-0.9,0.5-1.3C41,25.8,41,25.8,40.7,25z M42.6,29.4c0.5-0.5,1-0.5,1.5,0c-0.4-0.6-0.1-1,0.4-1.3
								c-0.6,0.1-1-0.1-1.1-0.7c-0.1,0.6-0.5,0.8-1.1,0.8C42.9,28.4,42.8,28.8,42.6,29.4z M37.1,28c0.4,0.6,0.4,0.6,0.4,1.4
								c0.3-0.2,0.5-0.3,0.7-0.5c0.2,0.2,0.5,0.3,0.7,0.5c-0.3-0.6,0-1,0.4-1.3c-0.6,0.1-1-0.1-1.1-0.7C38,27.9,37.7,28.2,37.1,28z
								 M55.3,25.9c0.6,0.3,0.5,0.8,0.3,1.3c0.5-0.6,0.9-0.5,1.5,0c-0.5-0.6-0.1-1,0.3-1.3c-0.6,0.1-1-0.1-1.1-0.7
								C56,25.8,56,25.8,55.3,25.9z M61.5,29.6c-0.1,0.2-0.2,0.5-0.3,0.6c-0.2,0.1-0.4,0.1-0.8,0.1c0.6,0.3,0.6,0.8,0.4,1.3
								c0.3-0.1,0.5-0.4,0.7-0.4c0.2,0,0.5,0.2,0.8,0.4c-0.1-0.3-0.2-0.5-0.1-0.7c0.1-0.2,0.3-0.4,0.6-0.6c-0.3,0-0.6,0.1-0.8,0
								C61.8,30.1,61.7,29.8,61.5,29.6z M39.7,30.3c0.5,0.3,0.5,0.8,0.3,1.3c0.5-0.4,1-0.5,1.5,0c-0.4-0.6,0-0.9,0.4-1.3
								c-0.6,0.1-1-0.1-1.1-0.7C40.6,30,40.4,30.4,39.7,30.3z M44.9,39.1c0.5,0.4,0.5,0.8,0.3,1.4c0.3-0.2,0.6-0.4,0.8-0.4
								c0.2,0,0.5,0.3,0.7,0.4c-0.3-0.6-0.1-1,0.4-1.3c-0.6,0.1-1-0.1-1.1-0.7C45.8,38.9,45.5,39.2,44.9,39.1z M62.7,25.9
								c-0.6,0.1-1,0-1.1-0.7c-0.1,0.6-0.4,0.8-1.1,0.7c0.6,0.3,0.5,0.8,0.4,1.3c0.5-0.6,1-0.4,1.5,0C62,26.6,62.2,26.2,62.7,25.9z
								 M60.1,32.5c-0.6,0.1-1-0.1-1.1-0.7c-0.2,0.6-0.4,0.9-1.1,0.7c0.6,0.3,0.6,0.8,0.4,1.3c0.5-0.5,0.9-0.5,1.5,0
								C59.4,33.2,59.6,32.8,60.1,32.5z M43.4,31.7c-0.2,0.5-0.4,0.9-1.1,0.7c0.5,0.4,0.6,0.8,0.3,1.3c0.5-0.4,1-0.5,1.5,0
								c-0.4-0.6,0-0.9,0.3-1.3C43.9,32.6,43.5,32.4,43.4,31.7z M43.4,22.9c-0.1,0.2-0.2,0.5-0.4,0.6c-0.2,0.1-0.4,0.1-0.8,0.1
								c0.6,0.3,0.6,0.8,0.4,1.3c0.2-0.1,0.4-0.3,0.7-0.5c0.2,0.2,0.5,0.3,0.7,0.4c-0.2-0.5-0.1-1,0.5-1.3
								C43.7,23.6,43.7,23.6,43.4,22.9z M58.2,38.2c0.5-0.5,1-0.5,1.5,0c-0.3-0.6-0.1-1,0.4-1.3c-0.6,0.1-1-0.1-1.1-0.8
								c-0.2,0.3-0.2,0.6-0.4,0.7c-0.2,0.1-0.4,0.1-0.8,0.1C58.4,37.2,58.5,37.7,58.2,38.2z M47.5,41.3c0.6,0.3,0.5,0.8,0.4,1.3
								c0.5-0.5,1-0.5,1.5,0c-0.4-0.6-0.1-1,0.4-1.3c-0.6,0.1-1,0-1.1-0.7C48.4,41.1,48.2,41.5,47.5,41.3z M51.2,34
								c-0.2,0.5-0.5,0.9-1.1,0.7c0.5,0.4,0.6,0.8,0.3,1.3c0.5-0.4,1-0.5,1.5,0c-0.4-0.6,0-0.9,0.4-1.3C51.7,34.7,51.3,34.7,51.2,34
								z M65.3,28.1c-0.6,0.1-1-0.1-1.1-0.7c-0.1,0.6-0.5,0.8-1.1,0.7c0.2,0.3,0.4,0.4,0.5,0.6c0,0.2-0.1,0.5-0.2,0.7
								c0.5-0.4,1-0.5,1.5,0.1C64.6,28.8,64.7,28.4,65.3,28.1z M51.9,31.5c-0.4-0.6,0-0.9,0.4-1.3c-0.4,0-0.6,0-0.8-0.1
								c-0.2-0.1-0.2-0.4-0.4-0.8c-0.1,0.7-0.4,0.9-1,0.8c0.5,0.3,0.6,0.7,0.3,1.3C50.9,31.2,51.4,31,51.9,31.5z M49.3,38.2
								c-0.4-0.6,0-1,0.4-1.3c-0.6,0.1-1-0.1-1.1-0.7c-0.1,0.6-0.5,0.8-1.1,0.7c0.6,0.3,0.5,0.8,0.3,1.3
								C48.4,37.7,48.8,37.6,49.3,38.2z M37.5,33.7c0.5-0.4,0.9-0.5,1.5,0c-0.4-0.6,0-0.9,0.4-1.3c-0.6,0.1-1-0.1-1.1-0.7
								c-0.1,0.7-0.5,0.8-1,0.8C37.6,32.8,37.7,33.2,37.5,33.7z M47.9,33.7c0.2-0.1,0.4-0.4,0.7-0.4c0.2,0,0.5,0.2,0.9,0.4
								c-0.5-0.6-0.1-0.9,0.3-1.3c-0.6,0.1-1,0-1.1-0.7c-0.2,0.6-0.5,0.8-1.1,0.7C48,32.8,48.1,33.2,47.9,33.7z M47.5,28
								c0.2,0.3,0.4,0.4,0.5,0.6c0,0.2-0.1,0.4-0.1,0.7c0.3-0.2,0.5-0.4,0.7-0.4c0.2,0,0.5,0.2,0.7,0.3c-0.3-0.6,0-0.9,0.5-1.2
								c-0.4,0-0.7,0-0.8-0.1c-0.2-0.1-0.2-0.4-0.4-0.7C48.4,27.8,48.2,28.2,47.5,28z M38.2,40.6c-0.2,0.5-0.5,0.8-1.1,0.7
								c0.5,0.4,0.6,0.8,0.3,1.3c0.5-0.4,1-0.5,1.5,0c-0.4-0.6,0-0.9,0.4-1.3C38.7,41.4,38.3,41.3,38.2,40.6z M60.5,34.7
								C61,35,61,35.5,60.8,36c0.5-0.6,1-0.5,1.5,0c-0.4-0.6-0.1-1,0.4-1.3c-0.6,0.1-1-0.1-1.1-0.7C61.4,34.5,61.1,34.8,60.5,34.7z
								 M50.4,27.2c0.5-0.5,1-0.5,1.5,0c-0.3-0.6-0.1-1,0.4-1.3c-0.6,0-1-0.1-1.1-0.7c-0.2,0.6-0.5,0.8-1.1,0.7
								C50.6,26.2,50.7,26.6,50.4,27.2z M61.5,38.3c-0.1,0.6-0.4,0.9-1.1,0.7c0.2,0.3,0.5,0.4,0.5,0.6c0,0.2-0.1,0.5-0.2,0.8
								c0.5-0.6,1-0.5,1.5-0.1c-0.3-0.6-0.1-1,0.4-1.3c-0.4,0-0.7,0-0.8-0.1C61.7,38.9,61.7,38.6,61.5,38.3z M50.5,40.4
								c0.2-0.1,0.5-0.4,0.7-0.4c0.2,0,0.4,0.2,0.7,0.4c-0.3-0.6,0-0.9,0.5-1.3c-0.4,0-0.6,0-0.8-0.1c-0.2-0.1-0.2-0.4-0.3-0.6
								c-0.1,0.6-0.5,0.7-1.1,0.7C50.7,39.5,50.7,39.9,50.5,40.4z M40,36c0.3-0.2,0.6-0.4,0.8-0.4c0.2,0,0.4,0.2,0.7,0.3
								c-0.3-0.6,0.1-0.9,0.4-1.2c-0.6,0.1-1-0.1-1.1-0.7c-0.1,0.6-0.5,0.8-1.1,0.8C40.3,35,40.3,35.5,40,36z M53.8,22.9
								c-0.2,0.5-0.4,0.9-1.1,0.7c0.5,0.4,0.6,0.8,0.4,1.3c0.2-0.1,0.4-0.3,0.7-0.4c0.2,0.2,0.4,0.3,0.7,0.4c-0.3-0.6,0-0.9,0.5-1.3
								C54.3,23.7,53.9,23.6,53.8,22.9z M54.9,28.1C54.9,28.1,54.9,28,54.9,28.1c-0.3-0.1-0.6,0-0.8-0.1c-0.2-0.1-0.2-0.4-0.3-0.6
								c-0.1,0.6-0.5,0.7-1.1,0.7c0.5,0.3,0.6,0.7,0.3,1.3c0.5-0.5,0.9-0.5,1.5-0.1C54.2,28.7,54.5,28.4,54.9,28.1z M47.5,23.7
								c0.5,0.4,0.5,0.8,0.3,1.3c0.5-0.5,1-0.5,1.5,0c-0.4-0.6-0.1-1,0.4-1.3c-0.6,0.1-1-0.1-1.1-0.7C48.4,23.5,48.1,23.8,47.5,23.7
								z M63.1,41.3c0.5,0.4,0.5,0.8,0.3,1.3c0.5-0.6,1-0.5,1.5,0c-0.4-0.6-0.1-1,0.4-1.3c-0.6,0.1-1,0-1.1-0.7
								C64,41.1,63.8,41.5,63.1,41.3z M37.4,25c0.5-0.5,1-0.5,1.5,0c-0.3-0.6-0.1-1,0.4-1.3c-0.6,0.1-1-0.1-1.1-0.8
								c-0.2,0.3-0.2,0.6-0.4,0.7c-0.2,0.1-0.4,0.1-0.8,0.1C37.6,24,37.7,24.4,37.4,25z M47.1,30.3c-0.6,0.1-1-0.1-1.1-0.7
								c-0.2,0.5-0.4,0.9-1.1,0.7c0.5,0.4,0.6,0.7,0.3,1.3c0.5-0.4,1-0.5,1.5,0C46.4,30.9,46.6,30.6,47.1,30.3z M44.9,34.7
								c0.5,0.4,0.6,0.8,0.2,1.3c0.4-0.2,0.6-0.4,0.8-0.4c0.2,0,0.5,0.2,0.7,0.3c0-0.3-0.2-0.5-0.1-0.7c0.1-0.2,0.3-0.3,0.5-0.5
								c0,0,0-0.1,0-0.1c-0.6,0.2-1,0-1.1-0.6C45.8,34.5,45.5,34.8,44.9,34.7z M59.7,42.7c-0.1-0.4-0.2-0.6-0.2-0.8
								c0.1-0.2,0.4-0.3,0.6-0.5c0,0-0.1-0.1-0.1-0.1c-0.2,0-0.5,0-0.7-0.1c-0.2-0.1-0.2-0.4-0.4-0.7c-0.1,0.6-0.4,0.9-1,0.8
								c0.5,0.3,0.6,0.8,0.3,1.3C58.8,42.1,59.2,42.2,59.7,42.7z M63.4,33.8c0.5-0.6,1-0.5,1.5,0c-0.1-0.4-0.2-0.6-0.2-0.8
								c0.1-0.2,0.3-0.4,0.5-0.5c0,0,0-0.1,0-0.1c-0.6,0.2-1,0-1.1-0.7c-0.2,0.6-0.4,0.8-1.1,0.7C63.7,32.8,63.7,33.3,63.4,33.8z
								 M57.9,23.7c0.5,0.4,0.5,0.8,0.3,1.3c0.5-0.5,1-0.5,1.5,0c-0.4-0.6-0.1-1,0.3-1.3c-0.6,0.1-1-0.1-1.1-0.7
								C58.8,23.4,58.6,23.8,57.9,23.7z M58.2,29.4c0.3-0.2,0.5-0.4,0.8-0.5c0.2,0,0.5,0.2,0.7,0.4c0,0,0.1,0,0.1,0
								c-0.5-0.6-0.1-0.9,0.3-1.3c-0.6,0.1-1-0.1-1.1-0.7c-0.2,0.5-0.4,0.9-1.1,0.7c0.2,0.3,0.5,0.5,0.5,0.7
								C58.4,28.9,58.3,29.1,58.2,29.4z M53.8,36.1c-0.2,0.5-0.4,0.9-1.1,0.7c0.5,0.4,0.6,0.8,0.3,1.3c0.5-0.5,1-0.5,1.5,0
								c-0.3-0.6-0.1-1,0.4-1.3C54.3,37,53.9,36.8,53.8,36.1z M55.3,39.1c0.5,0.4,0.6,0.8,0.3,1.3c0.5-0.5,1-0.5,1.5,0
								c-0.3-0.6-0.1-1,0.4-1.3c-0.6,0.1-1-0.1-1.1-0.7C56.2,38.9,55.9,39.2,55.3,39.1z M57.6,30.2c-0.4,0-0.7,0-0.9-0.1
								c-0.2-0.1-0.2-0.4-0.3-0.7c-0.1,0.3-0.2,0.5-0.4,0.6c-0.2,0.1-0.4,0.1-0.8,0.1c0.6,0.3,0.7,0.7,0.4,1.3c0.5-0.5,1-0.5,1.5,0
								C56.7,30.9,57.1,30.6,57.6,30.2z M54.9,32.5c-0.6,0.1-1-0.1-1.1-0.8c-0.2,0.3-0.2,0.6-0.4,0.7c-0.2,0.1-0.4,0.1-0.8,0.1
								c0.6,0.3,0.6,0.7,0.4,1.3c0.5-0.5,0.9-0.5,1.4-0.1C54.2,33.1,54.5,32.8,54.9,32.5z M63.1,36.9c0.5,0.4,0.5,0.8,0.2,1.3
								c0.3-0.2,0.6-0.4,0.8-0.4c0.2,0,0.4,0.2,0.7,0.4c-0.3-0.6-0.1-0.9,0.4-1.3c-0.6,0.2-1-0.1-1.1-0.7C64,36.6,63.8,37,63.1,36.9
								z M55.7,36c0.5-0.4,0.9-0.6,1.4,0c-0.4-0.6,0-0.9,0.4-1.3c-0.6,0.1-1,0-1.1-0.7c-0.2,0.6-0.5,0.8-1.1,0.7
								C55.8,35.3,55.8,35.3,55.7,36z M54.5,42.6c-0.3-0.6-0.1-1,0.4-1.3c-0.6,0.1-1-0.1-1.1-0.8c-0.5,0.7-0.5,0.7-1.2,0.8
								c0.6,0.3,0.6,0.8,0.4,1.3C53.6,42.1,54,42.1,54.5,42.6z M42.7,42.6c0.5-0.4,1-0.5,1.4,0c0-0.3-0.1-0.6-0.1-0.7
								c0.1-0.2,0.3-0.3,0.5-0.5c-0.6,0-1-0.1-1.1-0.8c-0.2,0.5-0.4,0.9-1.1,0.7C42.8,41.7,43,42,42.7,42.6z M39.2,36.9
								c-0.2,0-0.5,0-0.7-0.1c-0.2-0.1-0.2-0.4-0.4-0.7c-0.1,0.6-0.4,0.9-1,0.8c0.5,0.3,0.5,0.8,0.3,1.3c0.5-0.4,0.9-0.5,1.5-0.1
								C38.6,37.5,38.9,37.2,39.2,36.9z M44.5,36.9c-0.6,0.1-1-0.1-1.1-0.7c-0.2,0.5-0.4,0.9-1.1,0.7c0.2,0.3,0.5,0.4,0.5,0.6
								c0,0.2-0.1,0.4-0.1,0.6c0.5-0.4,1-0.4,1.5,0C43.8,37.5,44.1,37.2,44.5,36.9z M41.9,39.1c-0.6,0.1-1-0.1-1.1-0.8
								c-0.1,0.6-0.5,0.8-1,0.8c0.5,0.3,0.6,0.7,0.3,1.3c0.5-0.4,1-0.5,1.5,0C41.2,39.7,41.4,39.4,41.9,39.1z"/>
							<path fill="#2368B5" d="M113.5,59.8c0,1,0,2,0,3.1c-26,0-51.9,0-77.9,0c0-1,0-2,0-3.1C61.6,59.8,87.5,59.8,113.5,59.8z"/>
							<path fill="#2368B5" d="M35.6,56.5c0-1,0-2,0-3c26,0,51.9,0,77.9,0c0,0.5,0,1,0,1.5c0,0.5,0,1,0,1.6
								C87.6,56.5,61.6,56.5,35.6,56.5z"/>
							<path fill="#2368B5" d="M35.6,50.1c0-1,0-2,0-3c26,0,51.9,0,77.9,0c0,1,0,2,0,3C87.5,50.1,61.6,50.1,35.6,50.1z"/>
						</g>
					</g>
				</g>
				<g>
					<path fill="#0C56AB" d="M56.5,21.8c11.5,0,20.8,9.3,20.8,20.8c0,11.5-9.3,20.8-20.8,20.8s-20.8-9.3-20.8-20.8
						C35.6,31.1,45,21.8,56.5,21.8 M56.5,20.6c-12.2,0-22.1,9.9-22.1,22.1c0,12.2,9.9,22.1,22.1,22.1s22.1-9.9,22.1-22.1
						C78.5,30.5,68.6,20.6,56.5,20.6L56.5,20.6z"/>
				</g>
			</g>
		</g>
	</g>
</g>
<g>
</g>
<g>
</g>
<g>
</g>
<g>
</g>
<g>
</g>
<g>
</g>
<g>
</g>
<g>
</g>
<g>
</g>
<g>
</g>
<g>
</g>
<g>
</g>
<g>
</g>
<g>
</g>
<g>
</g>
</svg>
