<svg xmlns="http://www.w3.org/2000/svg" viewBox="0 0 34 34"><defs><style>.cls-1{fill:#14e6f1;}.cls-2{fill:#011d4b;}</style></defs><title>down_arrow_lens_blue_bg_dark_hover</title><g id="Layer_2" data-name="Layer 2"><g id="Layer_1-2" data-name="Layer 1"><circle class="cls-1" cx="17" cy="17" r="17"/><path class="cls-2" d="M18.49.91V4.08a12.94,12.94,0,0,1,0,25.67v3.17a16.09,16.09,0,0,0,0-32Z"/><path class="cls-2" d="M4.06,16.91A13,13,0,0,1,15.36,4.08V.91a16.09,16.09,0,0,0,0,32V29.74A13,13,0,0,1,4.06,16.91Z"/><polygon class="cls-2" points="24.16 11.41 16.93 18.78 9.69 11.41 6.93 14.23 16.93 24.41 26.93 14.23 24.16 11.41"/></g></g></svg>