<?xml version="1.0" encoding="utf-8"?>
<!-- Generator: Adobe Illustrator 18.0.0, SVG Export Plug-In . SVG Version: 6.00 Build 0)  -->
<!DOCTYPE svg PUBLIC "-//W3C//DTD SVG 1.1//EN" "http://www.w3.org/Graphics/SVG/1.1/DTD/svg11.dtd">
<svg version="1.1" id="Layer_1" xmlns="http://www.w3.org/2000/svg" xmlns:xlink="http://www.w3.org/1999/xlink" x="0px" y="0px"
	 viewBox="0 0 1800 800.4" enable-background="new 0 0 1800 800.4" xml:space="preserve">
<g>
	<g>
		<path fill="none" stroke="#007A6D" stroke-miterlimit="10" d="M1799.7,556.7C1182.6,1029.9,653.3,514.5,29.2,787.6"/>
		<path fill="none" stroke="#057D70" stroke-width="0.9853" stroke-miterlimit="10" d="M1796.9,547.3
			C1184.8,1018.2,646.8,506.6,28.6,779.7"/>
		<path fill="none" stroke="#0A7F73" stroke-width="0.9706" stroke-miterlimit="10" d="M1794.1,537.9
			C1187,1006.5,640.3,498.8,28.1,771.7"/>
		<path fill="none" stroke="#0F8276" stroke-width="0.9559" stroke-miterlimit="10" d="M1791.3,528.5
			C1189.3,994.8,633.8,491,27.5,763.7"/>
		<path fill="none" stroke="#148478" stroke-width="0.9412" stroke-miterlimit="10" d="M1788.5,519.1
			c-597,463.9-1161.2-36-1761.6,236.6"/>
		<path fill="none" stroke="#19877B" stroke-width="0.9265" stroke-miterlimit="10" d="M1785.7,509.7
			C1193.7,971.4,620.8,475.3,26.3,747.8"/>
		<path fill="none" stroke="#1E8A7E" stroke-width="0.9118" stroke-miterlimit="10" d="M1782.8,500.4
			C1196,959.7,614.2,467.5,25.8,739.8"/>
		<path fill="none" stroke="#238C81" stroke-width="0.8971" stroke-miterlimit="10" d="M1780,491
			c-581.8,457-1172.3-31.3-1754.8,240.9"/>
		<path fill="none" stroke="#288F84" stroke-width="0.8824" stroke-miterlimit="10" d="M1777.2,481.6
			c-576.8,454.7-1176-29.8-1752.6,242.4"/>
		<path fill="none" stroke="#2D9187" stroke-width="0.8676" stroke-miterlimit="10" d="M1774.4,472.2
			C1202.7,924.5,594.7,444,24.1,715.9"/>
		<path fill="none" stroke="#32948A" stroke-width="0.8529" stroke-miterlimit="10" d="M1771.6,462.8
			C1204.9,912.8,588.2,436.1,23.5,708"/>
		<path fill="none" stroke="#37978C" stroke-width="0.8382" stroke-miterlimit="10" d="M1768.8,453.4
			C1207.1,901.1,581.7,428.3,22.9,700"/>
		<path fill="none" stroke="#3C998F" stroke-width="0.8235" stroke-miterlimit="10" d="M1766,444
			C1209.4,889.4,575.2,420.5,22.3,692.1"/>
		<path fill="none" stroke="#419C92" stroke-width="0.8088" stroke-miterlimit="10" d="M1763.2,434.6
			c-551.6,443.1-1194.5-22-1741.4,249.5"/>
		<path fill="none" stroke="#469F95" stroke-width="0.7941" stroke-miterlimit="10" d="M1760.4,425.2
			C1213.9,866,562.1,404.8,21.2,676.1"/>
		<path fill="none" stroke="#4BA198" stroke-width="0.7794" stroke-miterlimit="10" d="M1757.6,415.8
			C1216.1,854.2,555.6,396.9,20.6,668.2"/>
		<path fill="none" stroke="#50A49B" stroke-width="0.7647" stroke-miterlimit="10" d="M1754.7,406.4
			C1218.3,842.5,549.1,389.1,20.1,660.2"/>
		<path fill="none" stroke="#55A69E" stroke-width="0.75" stroke-miterlimit="10" d="M1751.9,397
			C1220.6,830.8,542.6,381.3,19.5,652.2"/>
		<path fill="none" stroke="#5AA9A1" stroke-width="0.7353" stroke-miterlimit="10" d="M1749.1,387.6
			c-526.3,431.5-1213-14.2-1730.2,256.6"/>
		<path fill="none" stroke="#5FACA3" stroke-width="0.7206" stroke-miterlimit="10" d="M1746.3,378.2
			C1225,807.4,529.6,365.6,18.3,636.3"/>
		<path fill="none" stroke="#64AEA6" stroke-width="0.7059" stroke-miterlimit="10" d="M1743.5,368.8
			C1227.3,795.7,523.1,357.8,17.8,628.3"/>
		<path fill="none" stroke="#69B1A9" stroke-width="0.6912" stroke-miterlimit="10" d="M1740.7,359.4
			C1229.5,784,516.6,349.9,17.2,620.4"/>
		<path fill="none" stroke="#6EB3AC" stroke-width="0.6765" stroke-miterlimit="10" d="M1737.9,350
			C1231.7,772.3,510,342.1,16.6,612.4"/>
		<path fill="none" stroke="#73B6AF" stroke-width="0.6618" stroke-miterlimit="10" d="M1735.1,340.6
			C1234,760.6,503.5,334.3,16.1,604.4"/>
		<path fill="none" stroke="#78B9B2" stroke-width="0.6471" stroke-miterlimit="10" d="M1732.3,331.3
			C1236.2,748.8,497,326.4,15.5,596.5"/>
		<path fill="none" stroke="#7DBBB5" stroke-width="0.6324" stroke-miterlimit="10" d="M1729.5,321.9
			c-491,415.3-1239-3.3-1714.5,266.6"/>
		<path fill="none" stroke="#82BEB7" stroke-width="0.6176" stroke-miterlimit="10" d="M1726.6,312.5
			C1240.7,725.4,484,310.8,14.4,580.5"/>
		<path fill="none" stroke="#87C0BA" stroke-width="0.6029" stroke-miterlimit="10" d="M1723.8,303.1
			C1242.9,713.7,477.5,302.9,13.8,572.6"/>
		<path fill="none" stroke="#8CC3BD" stroke-width="0.5882" stroke-miterlimit="10" d="M1721,293.7C1245.2,702,471,295.1,13.2,564.6
			"/>
		<path fill="none" stroke="#91C6C0" stroke-width="0.5735" stroke-miterlimit="10" d="M1718.2,284.3
			c-470.8,406-1253.8,3-1705.6,272.4"/>
		<path fill="none" stroke="#96C8C3" stroke-width="0.5588" stroke-miterlimit="10" d="M1715.4,274.9
			C1249.6,678.6,457.9,279.4,12.1,548.7"/>
		<path fill="none" stroke="#9BCBC6" stroke-width="0.5441" stroke-miterlimit="10" d="M1712.6,265.5
			C1251.9,666.9,451.4,271.6,11.5,540.7"/>
		<path fill="none" stroke="#A0CDC9" stroke-width="0.5294" stroke-miterlimit="10" d="M1709.8,256.1
			c-455.7,399-1264.9,7.6-1698.9,276.6"/>
		<path fill="none" stroke="#A5D0CB" stroke-width="0.5147" stroke-miterlimit="10" d="M1707,246.7
			C1256.3,643.4,438.4,255.9,10.4,524.8"/>
		<path fill="none" stroke="#AAD3CE" stroke-width="0.5" stroke-miterlimit="10" d="M1704.2,237.3
			C1258.6,631.7,431.9,248.1,9.8,516.8"/>
		<path fill="none" stroke="#AFD5D1" stroke-width="0.4853" stroke-miterlimit="10" d="M1701.4,227.9
			C1260.8,620,425.4,240.2,9.2,508.8"/>
		<path fill="none" stroke="#B4D8D4" stroke-width="0.4706" stroke-miterlimit="10" d="M1698.5,218.5
			C1263,608.3,418.9,232.4,8.6,500.9"/>
		<path fill="none" stroke="#B9DAD7" stroke-width="0.4559" stroke-miterlimit="10" d="M1695.7,209.1
			C1265.3,596.6,412.4,224.6,8.1,492.9"/>
		<path fill="none" stroke="#BEDDDA" stroke-width="0.4412" stroke-miterlimit="10" d="M1692.9,199.7
			C1267.5,584.9,405.8,216.7,7.5,484.9"/>
		<path fill="none" stroke="#C3E0DD" stroke-width="0.4265" stroke-miterlimit="10" d="M1690.1,190.3
			C1269.7,573.2,399.3,208.9,6.9,477"/>
		<path fill="none" stroke="#C8E2E0" stroke-width="0.4118" stroke-miterlimit="10" d="M1687.3,180.9
			C1272,561.4,392.8,201.1,6.4,469"/>
		<path fill="none" stroke="#CDE5E2" stroke-width="0.3971" stroke-miterlimit="10" d="M1684.5,171.6
			C1274.2,549.7,386.3,193.2,5.8,461.1"/>
		<path fill="none" stroke="#D2E8E5" stroke-width="0.3824" stroke-miterlimit="10" d="M1681.7,162.2
			C1276.4,538,379.8,185.4,5.2,453.1"/>
		<path fill="none" stroke="#D7EAE8" stroke-width="0.3676" stroke-miterlimit="10" d="M1678.9,152.8
			C1278.7,526.3,373.3,177.6,4.6,445.1"/>
		<path fill="none" stroke="#DCEDEB" stroke-width="0.3529" stroke-miterlimit="10" d="M1676.1,143.4
			C1280.9,514.6,366.8,169.7,4.1,437.2"/>
		<path fill="none" stroke="#E1EFEE" stroke-width="0.3382" stroke-miterlimit="10" d="M1673.3,134
			C1283.2,502.9,360.3,161.9,3.5,429.2"/>
		<path fill="none" stroke="#E6F2F1" stroke-width="0.3235" stroke-miterlimit="10" d="M1670.4,124.6
			C1285.4,491.2,353.7,154.1,2.9,421.2"/>
		<path fill="none" stroke="#EBF5F4" stroke-width="0.3088" stroke-miterlimit="10" d="M1667.6,115.2
			c-380,364.3-1320.4,31-1665.3,298.1"/>
		<path fill="none" stroke="#F0F7F6" stroke-width="0.2941" stroke-miterlimit="10" d="M1664.8,105.8
			c-375,362-1324.1,32.6-1663,299.5"/>
		<path fill="none" stroke="#F5FAF9" stroke-width="0.2794" stroke-miterlimit="10" d="M1662,96.4C1292.1,456,334.2,130.6,1.2,397.3
			"/>
		<path fill="none" stroke="#FAFCFC" stroke-width="0.2647" stroke-miterlimit="10" d="M1659.2,87
			C1294.3,444.3,327.7,122.7,0.7,389.4"/>
		<path fill="none" stroke="#FFFFFF" stroke-width="0.25" stroke-miterlimit="10" d="M1656.4,77.6
			C1296.6,432.6,321.2,114.9,0.1,381.4"/>
	</g>
	<g>
		<polygon fill="#007A6D" points="952,277.1 847.4,277.1 833.6,265.8 847.4,251.3 952,251.3 		"/>
		<g>
			<g>
				<path fill="#FFFFFF" d="M861.7,266.9c-0.4,1.3-1.2,2.7-1.9,3.6c-0.2-0.2-0.7-0.5-0.9-0.6c0.7-0.8,1.3-2.1,1.7-3.2L861.7,266.9z
					 M863.9,265.6v6.2h-1.3v-6.2H859v-1.2h3.6v-1.9h-3.7v-1.1h5c0.3-0.8,0.8-2,1-2.8l1.2,0.3c-0.3,0.9-0.7,1.8-1,2.6h2.3v1.1h-3.5
					v1.9h3.3v1.2H863.9z M867.1,258.5h-7.9v-1.1h3.5c-0.2-0.5-0.5-1.2-0.8-1.6l1.3-0.3c0.4,0.6,0.8,1.4,1,2h2.8V258.5z M861.1,261.4
					c-0.1-0.7-0.4-1.7-0.7-2.5l1.1-0.3c0.4,0.8,0.7,1.8,0.7,2.4L861.1,261.4z M865.6,266.5c0.6,0.9,1.2,2.1,1.5,2.8l-1,0.5
					c-0.3-0.8-0.9-2-1.5-2.9L865.6,266.5z M875.2,262.8h-2v9.1H872v-9.1h-2.5v0.6c0,2.6-0.2,6.1-1.9,8.4c-0.2-0.3-0.7-0.7-1-0.8
					c1.5-2.2,1.7-5.2,1.7-7.6v-6.2c2-0.3,4.3-0.9,5.6-1.4l1.1,1c-1.5,0.6-3.5,1-5.4,1.3v3.4h5.7V262.8z"/>
				<path fill="#FFFFFF" d="M893.6,266.4v1.2h-16.2v-1.2h1.4l-0.3-9.6c1-0.3,2.3-0.8,3.1-1.1l0.6,1.2c-0.8,0.3-1.7,0.5-2.5,0.8
					l0.1,2.1h2v1.1h-2l0.1,2.2h2v1.1h-2l0.1,2.2h2.4v-10h6.2v10h2.4c0-0.6,0.1-1.4,0.1-2.2h-2v-1.1h2.1c0-0.7,0.1-1.5,0.1-2.2h-2
					v-1.1h2.1c0-0.8,0-1.6,0-2.4h-2.2v-1.1h3.4c0,3.2-0.2,7.4-0.3,10.1H893.6z M883.7,268.8c-1.5,1.1-3.6,2.3-5.4,3.1
					c-0.2-0.3-0.5-0.7-0.8-1c1.7-0.7,3.9-1.9,5-2.9L883.7,268.8z M883.4,266.4h4.2v-9h-4.2V266.4z M887,258.7v0.9h-3.1v-0.9H887z
					 M884.1,260.9h2.7v4.1h-2.7V260.9z M884.8,264.1h1.3v-2.4h-1.3V264.1z M888,267.9c1.9,0.9,3.9,2,5.2,2.9l-0.9,1
					c-1.2-0.9-3.2-2.1-5.1-3L888,267.9z"/>
				<path fill="#FFFFFF" d="M904.6,259.4v2.4h5.8v6.3c0,0.8-0.2,1.2-0.8,1.4c-0.6,0.2-1.6,0.2-3.2,0.2c-0.1-0.4-0.3-1-0.5-1.3
					c1.2,0,2.3,0,2.6,0c0.3,0,0.4-0.1,0.4-0.4v-5h-4.5v8.7h-1.4v-8.7H899v6.7h-1.3v-8h5.5v-2.4h-7.3v-1.3h7.7
					c-0.3-0.7-0.8-1.6-1.2-2.4l1.3-0.4c0.5,0.8,1.2,2,1.4,2.7l-0.2,0.1h7.1v1.3H904.6z"/>
				<path fill="#FFFFFF" d="M919.9,266.1c-1.8,0.9-3.8,1.9-5.3,2.6l-0.5-1.3c0.7-0.3,1.5-0.6,2.4-1.1v-5.6h-2.1v-1.3h2.1v-3.7h1.2
					v3.7h1.9v1.3h-1.9v5.1l1.8-0.8L919.9,266.1z M923.2,264c-0.2,0.4-0.5,0.9-0.8,1.3h7.7c0,0,0,0.4-0.1,0.5
					c-0.3,3.7-0.6,5.1-1.1,5.6c-0.3,0.3-0.6,0.4-1,0.5c-0.4,0-1.1,0-1.8,0c0-0.3-0.1-0.8-0.3-1.1c0.7,0.1,1.3,0.1,1.5,0.1
					c0.3,0,0.4,0,0.5-0.2c0.3-0.3,0.6-1.5,0.8-4.3h-1.4c-0.7,2.1-2.1,4.5-3.7,5.6c-0.2-0.3-0.6-0.6-1-0.8c1.5-1,2.8-2.9,3.5-4.9
					h-1.7c-1,1.9-2.7,3.8-4.4,4.9c-0.2-0.3-0.6-0.6-0.9-0.8c1.5-0.8,3.1-2.4,4.1-4h-1.8c-0.7,0.8-1.5,1.5-2.3,2.1
					c-0.2-0.2-0.6-0.6-0.9-0.8c1.4-0.8,2.7-2.1,3.6-3.6h-2.5v-1.1h11.3v1.1H923.2z M929.4,261.9h-8.2V256h8.2V261.9z M928.1,257
					h-5.8v1.4h5.8V257z M928.1,259.4h-5.8v1.4h5.8V259.4z"/>
			</g>
		</g>
	</g>
	<g>
		<polygon fill="#58595B" points="1047.9,244.5 948.9,244.5 948.9,218.7 1047.9,218.7 1058.8,232.2 		"/>
		<g>
			<path fill="#FFFFFF" d="M979,228.8c-0.8,2.3-1.8,4.4-3.2,6.1c0.7,1.8,1.5,2.8,2.4,2.8c0.5,0,0.7-0.9,0.8-3.3
				c0.3,0.3,0.8,0.6,1.2,0.7c-0.3,3.1-0.7,3.9-2.1,3.9c-1.4,0-2.5-1.1-3.3-3c-1.1,1.2-2.3,2.2-3.7,3c-0.2-0.3-0.7-0.8-1-1.1
				c1.6-0.9,3-2,4.1-3.3c-0.6-2-1.1-4.7-1.3-7.6h-6.2v2.3h4.6v0.6c-0.1,4-0.2,5.5-0.6,6c-0.3,0.3-0.6,0.5-1.1,0.5
				c-0.5,0-1.3,0-2.1,0c0-0.4-0.2-0.9-0.4-1.3c0.8,0.1,1.6,0.1,1.9,0.1c0.3,0,0.4,0,0.5-0.2c0.3-0.3,0.3-1.4,0.4-4.5h-3.3v0.1
				c0,2.5-0.3,6.1-1.9,8.5c-0.2-0.3-0.8-0.7-1.1-0.9c1.5-2.2,1.6-5.3,1.6-7.6v-5h7.5c-0.1-1-0.1-2-0.1-3h1.4c0,1,0,2.1,0.1,3h5.8
				v1.3h-5.7c0.2,2.4,0.5,4.5,1,6.2c1-1.4,1.7-3,2.3-4.9L979,228.8z M975.8,222.8c1.1,0.6,2.5,1.4,3.2,2.1l-0.8,0.9
				c-0.7-0.6-2.1-1.5-3.2-2.2L975.8,222.8z"/>
			<path fill="#FFFFFF" d="M990.5,232.5c-1,0.1-2.1,0.1-3.1,0.2v1.2c0,0.6-0.1,0.9-0.6,1c-0.5,0.2-1.2,0.2-2.3,0.2
				c-0.1-0.3-0.2-0.7-0.4-1c0.9,0,1.5,0,1.8,0c0.2,0,0.3-0.1,0.3-0.3v-1.1c-1.3,0.1-2.6,0.2-3.6,0.2l-0.1-1c1-0.1,2.3-0.1,3.7-0.2
				v-1c0.5-0.2,1.1-0.4,1.6-0.6h-4.6v-0.9h6.1l0.2-0.1l0.7,0.6c-0.8,0.6-1.8,1-2.8,1.4v0.5c1-0.1,2.1-0.1,3.1-0.2L990.5,232.5z
				 M990.7,225.1h-8.2v-1h3.8c-0.1-0.4-0.4-0.8-0.5-1.1l1.2-0.3c0.3,0.4,0.6,1,0.8,1.4h3.1V225.1z M982.6,238.6c0.8-0.7,1.5-1.9,2-3
				l1.2,0.3c-0.4,1.2-1.2,2.4-2,3.3L982.6,238.6z M983.6,228.6v-2.8h6.3v2.8H983.6z M984.7,227.8h4v-1.2h-4V227.8z M988.9,235.9
				c0.2,1,0.4,2.2,0.4,3L988,239c0-0.8-0.1-2.1-0.3-3L988.9,235.9z M996.9,225.4c0,5.5-0.1,8.4,0.7,8.4c0.3,0,0.3-1,0.3-2.4
				c0.2,0.3,0.6,0.6,0.8,0.8c-0.1,2.1-0.4,2.8-1.3,2.8c-1.8,0-1.9-2.9-1.9-8.5h-1.7v0.1c0,1.1-0.1,2.1-0.3,3.2
				c0.7,0.6,1.4,1.2,1.8,1.7l-0.7,1c-0.3-0.5-0.8-1-1.4-1.5c-0.6,1.5-1.5,2.8-3.2,4.1c-0.2-0.3-0.6-0.6-0.9-0.8
				c1.7-1.2,2.6-2.6,3.1-4.1c-0.6-0.5-1.2-0.9-1.8-1.3l0.6-0.9c0.5,0.3,1,0.6,1.4,1c0.1-0.8,0.2-1.6,0.2-2.4v-0.1h-1.9v-1.2h1.9
				v-2.7h1.2v2.7H996.9z M992.6,235.7c0.5,1,0.9,2.2,1.1,3l-1.3,0.3c-0.1-0.8-0.6-2.1-1-3L992.6,235.7z M996.3,235.5
				c0.7,1,1.6,2.3,2,3.2l-1.3,0.4c-0.3-0.8-1.2-2.2-1.9-3.2L996.3,235.5z"/>
			<path fill="#FFFFFF" d="M1016.4,223.5v15.7h-1.3v-0.8h-12.4v0.8h-1.3v-15.7H1016.4z M1015,237.2v-12.4h-12.4v12.4H1015z
				 M1008.9,234.4c-1.9,0.4-3.8,0.7-5.3,1l-0.2-1c1.4-0.2,3.4-0.6,5.4-0.9L1008.9,234.4z M1013.4,229.2c-0.5,1.7-1.1,3.2-2,4.4
				c0.4,1,0.9,1.6,1.5,1.7c0.3,0.1,0.4-0.7,0.6-1.9c0.2,0.2,0.6,0.5,0.9,0.6c-0.2,2-0.8,2.7-1.8,2.3c-0.8-0.2-1.4-0.8-1.9-1.7
				c-0.7,0.8-1.5,1.5-2.4,2.1c-0.2-0.2-0.6-0.6-0.8-0.8c1.1-0.6,2-1.4,2.7-2.4c-0.5-1.4-0.8-3.3-1-5.3h-5.5v-1h5.4
				c-0.1-0.6-0.1-1.3-0.1-1.9h1.2c0,0.6,0.1,1.3,0.1,1.9h3.9v1h-3.8c0.1,1.5,0.4,3,0.7,4.1c0.6-1,1-2.1,1.3-3.3L1013.4,229.2z
				 M1008.3,229.3v3.5h-4v-3.5H1008.3z M1007.3,230.1h-2.1v1.8h2.1V230.1z M1013,226.9c-0.4-0.4-1.2-1-1.9-1.3l0.6-0.7
				c0.7,0.3,1.5,0.8,1.9,1.2L1013,226.9z"/>
			<path fill="#FFFFFF" d="M1033.6,230c-0.8,0.7-1.8,1.4-2.8,2c0.8,2.4,2.5,4.4,4.8,5.3c-0.3,0.3-0.7,0.8-0.9,1.1
				c-2.3-1-4-3.1-5-5.7c-0.3,0.2-0.6,0.4-0.8,0.5c0.6,2.3,0.2,4.5-0.8,5.3c-0.6,0.5-1,0.6-1.8,0.6c-0.4,0-1,0-1.5,0
				c0-0.4-0.1-0.9-0.3-1.3c0.6,0.1,1.2,0.1,1.6,0.1c0.5,0,0.8-0.1,1.2-0.4c0.5-0.4,0.9-1.6,0.7-3.1c-2.1,1.6-5.1,3.1-7.7,3.9
				c-0.1-0.3-0.5-0.8-0.7-1.1c2.9-0.7,6.4-2.3,8.2-4c-0.1-0.4-0.3-0.8-0.5-1.3c-1.8,1.2-4.5,2.5-6.7,3.1c-0.1-0.3-0.4-0.8-0.7-1
				c2.3-0.5,5.3-1.8,6.8-3c-0.2-0.4-0.5-0.7-0.9-1.1c-1.6,0.9-3.5,1.6-5.2,2.1c-0.1-0.3-0.5-0.8-0.7-1.1c2.3-0.5,4.7-1.4,6.4-2.6
				h-4.1v-1.2h10.4v1.2h-4.5c-0.4,0.3-0.8,0.6-1.3,1c0.8,0.8,1.5,1.8,1.8,2.8c1.4-0.9,2.9-2.1,3.9-3L1033.6,230z M1021.2,228h-1.3
				v-3.7h6.8c-0.2-0.5-0.4-0.9-0.7-1.3l1.4-0.4c0.3,0.5,0.7,1.2,0.9,1.7h6.6v3.7h-1.4v-2.4h-12.3V228z"/>
		</g>
	</g>
	<g>
		<path fill="#007A6D" d="M683.1,378.5c-15.4,0-27.9-9.8-27.9-25.3c0-8.4,3.2-14.9,7.9-21.9l17.1-25.5h20.3L683.1,330l-0.3,0.5
			c1.3-0.5,3.4-0.8,5-0.8c12.4,0,23.2,9.3,23.2,23.1C711,368.9,698.4,378.5,683.1,378.5z M683.2,342.1c-6.6,0-11.2,4.6-11.2,11.2
			c0,6.1,4.4,11.2,11.1,11.2c6.6,0,11.1-4.6,11.1-11.3C694.2,346.8,689.8,342.1,683.2,342.1z"/>
		<path fill="#007A6D" d="M747,378.5c-12.9,0-24.6-5.6-28.4-18.8l15.6-4.1c1.3,4.7,5.6,8.8,12,8.8c4.8,0,10.3-2.4,10.3-9
			c0-7.2-7.4-9.3-14.4-9.3h-4.5v-12.3h4.9c6.3,0,12.4-1.6,12.4-8.4c0-5.1-4.3-7.8-8.9-7.8c-4.8,0-8.6,3.1-9.7,7.9l-15.6-3.6
			c3.4-11.9,14.6-18,26.4-18c12.5,0,24.9,6.4,24.9,20c0,7.8-5,13.6-11.9,15.4v0.3c8,1.9,13.6,8.5,13.6,16.4
			C773.7,371.5,760,378.5,747,378.5z"/>
		<path fill="#007A6D" d="M801.9,342.4c-10.5,0-19-8.5-19-18.9c0-10.6,8.5-18.9,19-18.9c10.5,0,19,8.3,19,18.9
			C820.9,333.9,812.4,342.4,801.9,342.4z M801.9,315.7c-4.3,0-7.8,3.5-7.8,7.8c0,4.3,3.5,7.7,7.8,7.7c4.3,0,7.8-3.4,7.8-7.7
			C809.7,319.2,806.2,315.7,801.9,315.7z M809.6,380l-8.9-4.4l41.3-73l9.3,4.5L809.6,380z M849.9,377.8c-10.5,0-19-8.4-19-18.9
			s8.5-18.9,19-18.9c10.5,0,19,8.4,19,18.9S860.4,377.8,849.9,377.8z M849.9,351.1c-4.3,0-7.8,3.5-7.8,7.8s3.5,7.7,7.8,7.7
			c4.2,0,7.8-3.4,7.8-7.7S854.1,351.1,849.9,351.1z"/>
	</g>
	<g>
		<path fill="#0074B7" d="M1140.4,312.9c-6.3,0-12.1-2.7-13.9-9.2l7.6-2c0.6,2.3,2.7,4.3,5.9,4.3c2.4,0,5-1.2,5-4.4
			c0-3.5-3.6-4.6-7.1-4.6h-2.2v-6h2.4c3.1,0,6.1-0.8,6.1-4.1c0-2.5-2.1-3.8-4.4-3.8c-2.4,0-4.2,1.5-4.8,3.9l-7.6-1.8
			c1.7-5.8,7.2-8.8,12.9-8.8c6.1,0,12.2,3.1,12.2,9.8c0,3.8-2.5,6.7-5.8,7.5v0.1c3.9,0.9,6.7,4.2,6.7,8
			C1153.5,309.4,1146.8,312.9,1140.4,312.9z"/>
		<path fill="#0074B7" d="M1171.6,311.9h-9.6l14.1-27.6h-16.4v-7.1h25.2v6.6L1171.6,311.9z"/>
		<path fill="#0074B7" d="M1199,295.2c-5.1,0-9.3-4.2-9.3-9.3c0-5.2,4.2-9.3,9.3-9.3s9.3,4.1,9.3,9.3
			C1208.3,291,1204.1,295.2,1199,295.2z M1199,282.1c-2.1,0-3.8,1.7-3.8,3.8s1.7,3.8,3.8,3.8s3.8-1.7,3.8-3.8
			S1201.1,282.1,1199,282.1z M1202.7,313.6l-4.4-2.2l20.2-35.8l4.6,2.2L1202.7,313.6z M1222.5,312.5c-5.1,0-9.3-4.1-9.3-9.3
			c0-5.1,4.2-9.3,9.3-9.3s9.3,4.1,9.3,9.3C1231.8,308.4,1227.6,312.5,1222.5,312.5z M1222.5,299.4c-2.1,0-3.8,1.7-3.8,3.8
			s1.7,3.8,3.8,3.8c2.1,0,3.8-1.7,3.8-3.8S1224.5,299.4,1222.5,299.4z"/>
	</g>
	<g>
		<path fill="#0074B7" d="M1128.9,465.8v-124c68,0,124,56,124,124c0,24.6-7.3,48.6-21,69L1128.9,465.8z"/>
		<g>
			<defs>
				<path id="SVGID_1_" d="M1128.9,465.8v-124c68,0,124,56,124,124c0,24.6-7.3,48.6-21,69L1128.9,465.8z"/>
			</defs>
			<clipPath id="SVGID_2_">
				<use xlink:href="#SVGID_1_"  overflow="visible"/>
			</clipPath>
			<g clip-path="url(#SVGID_2_)">
				<g>
					<path fill="#E6E7E8" d="M1329,532l-23.1-7.7l-35.7-6.6l-37.7,9.3l-6.6-4.4l-14.5,0.5l-29.1-43.4l-22.5-4.9l-5.3-23.6
						c0,0-21.2-17-23.8-20.9c-2.6-3.8-25.1-56-25.1-56l-68.1-25.8l-84.6,67l-19.5-3.8l-26.1,17.6v104.4h439.6L1329,532z"/>
					<polygon fill="#D1D3D4" points="933.3,411.7 974.6,482 1005.4,481.2 1011.2,458.8 968.9,433.2 952.8,415.6 					"/>
					<polygon fill="#D1D3D4" points="1037.4,348.5 1078,403.7 1068.3,422.1 1085.5,435.6 1088.3,481.2 1108.3,438 1130.7,430.4 
						1105.5,374.4 					"/>
					<polygon fill="#D1D3D4" points="1182.2,479.8 1173.5,514 1192.9,513.2 1193.5,525.1 1211.3,523.2 					"/>
					<polygon fill="#D1D3D4" points="1155.8,481.2 1129.5,518 1156.3,525.9 					"/>
					<polygon fill="#D1D3D4" points="926.6,515.6 950,493.2 975.2,518.8 981.4,506.8 1006.9,533.7 907.2,533.7 					"/>
					<polygon fill="#D1D3D4" points="981.4,506.8 1015.6,505.2 1005.4,481.2 					"/>
					<polygon fill="#BCBEC0" points="1037.4,348.5 1011.2,458.8 968.9,433.2 952.8,415.6 					"/>
					<polygon fill="#BCBEC0" points="1015.6,505.2 1059.1,525.9 1057.6,510.6 1101.2,532.1 1006.9,533.7 					"/>
					<polygon fill="#D1D3D4" points="1057.6,510.6 1097.2,503.6 1129.5,518 1156.3,525.9 1196.5,532.1 1101.2,532.1 					"/>
					<polygon opacity="0.38" fill="#D1D3D4" points="1037.4,348.5 1039.3,443.4 1050.8,446.9 1044.1,479.6 1057.6,510.6 
						1059.1,525.9 1015.6,505.2 1005.4,481.2 1011.2,458.8 					"/>
				</g>
				<g>
					<path fill="#D1D3D4" d="M1189.1,438c7.5-8.8,14.9-16,20.1-20.1c-4.3,1.5-12.8,8.9-21.4,19c-8.6,10.1-14.6,19.7-15.4,24.1
						C1175.6,455.2,1181.6,446.8,1189.1,438z"/>
					
						<rect x="1184.5" y="437.2" transform="matrix(0.6493 -0.7605 0.7605 0.6493 83.5074 1057.8344)" fill="#D1D3D4" width="8.6" height="2.3"/>
					
						<rect x="1184.2" y="435.7" transform="matrix(0.6493 -0.7605 0.7605 0.6493 84.036 1055.9581)" fill="#D1D3D4" width="5.7" height="2.3"/>
					
						<rect x="1201.4" y="433.1" transform="matrix(0.6493 -0.7605 0.7605 0.6493 79.2552 1072.9248)" fill="#D1D3D4" width="3.4" height="34.9"/>
					
						<rect x="1187.4" y="438.2" transform="matrix(0.6493 -0.7605 0.7605 0.6493 83.2178 1058.8622)" fill="#D1D3D4" width="4.9" height="1.9"/>
					
						<rect x="1220.6" y="457.7" transform="matrix(0.6493 -0.7605 0.7605 0.6493 73.4013 1093.6997)" fill="#D1D3D4" width="4.1" height="19.1"/>
				</g>
				<g>
					<path fill="#D1D3D4" d="M1212.4,434.8l-0.6-1l1.1,0.3c1.3,0.3,2.6,0.1,3.7-0.5l1-0.6l-0.3,1.1c-0.3,1.3-0.1,2.6,0.5,3.7l0.6,1
						l-1.1-0.3c-1.3-0.3-2.6-0.1-3.7,0.5l-1,0.6l0.3-1.1C1213.3,437.3,1213.1,435.9,1212.4,434.8z"/>
					
						<rect x="1208.6" y="435.8" transform="matrix(-0.5979 0.8016 -0.8016 -0.5979 2291.4958 -276.8696)" fill="#D1D3D4" width="13.2" height="1"/>
					
						<rect x="1214.7" y="429.7" transform="matrix(-0.5978 0.8016 -0.8016 -0.5978 2291.4502 -276.9382)" fill="#D1D3D4" width="1" height="13.2"/>
				</g>
				<g>
					<path fill="#D1D3D4" d="M1159.7,434.6l-1.2,0.1l0.7-0.9c0.8-1,1.2-2.3,1.1-3.6l-0.1-1.2l0.9,0.7c1,0.8,2.3,1.2,3.6,1.1l1.2-0.1
						l-0.7,0.9c-0.8,1-1.2,2.3-1.1,3.6l0.1,1.2l-0.9-0.7C1162.2,434.9,1161,434.5,1159.7,434.6z"/>
					
						<rect x="1155.6" y="432.2" transform="matrix(0.4691 0.8831 -0.8831 0.4691 999.1848 -796.6307)" fill="#D1D3D4" width="13.2" height="1"/>
					
						<rect x="1161.7" y="426.2" transform="matrix(0.4692 0.8831 -0.8831 0.4692 999.1067 -796.6202)" fill="#D1D3D4" width="1" height="13.2"/>
				</g>
			</g>
		</g>
	</g>
	<path fill="#007A6D" d="M615.5,388.1l228.1,159c-52,74.5-137.3,119.1-228.1,119.1c-152.6,0-278.1-125.5-278.1-278.1
		S463,109.9,615.5,109.9V388.1z"/>
	
		<line fill="none" stroke="#007A6D" stroke-width="6" stroke-linecap="round" stroke-linejoin="round" stroke-miterlimit="10" x1="949.8" y1="156.4" x2="949.8" y2="797.4"/>
	
		<line fill="none" stroke="#007A6D" stroke-width="6" stroke-linecap="round" stroke-linejoin="round" stroke-miterlimit="10" x1="949.8" y1="3" x2="949.8" y2="50.1"/>
	<g>
		<g>
			<path fill="#007A6D" d="M1033.4,690.2c-1.5-46.2-40.2-82.5-86.4-81c-46.2,1.5-82.5,40.2-81,86.4s40.2,82.5,86.4,81
				C998.6,775.1,1034.9,736.4,1033.4,690.2z M952,765.5c-40.1,1.3-73.7-30.2-75-70.3c-1.3-40.1,30.2-73.7,70.3-75
				c40.1-1.3,73.7,30.2,75,70.3C1023.6,730.7,992.1,764.2,952,765.5z"/>
			<path fill="#FFFFFF" d="M952,765.5c-40.1,1.3-73.7-30.2-75-70.3c-1.3-40.1,30.2-73.7,70.3-75c40.1-1.3,73.7,30.2,75,70.3
				C1023.6,730.7,992.1,764.2,952,765.5z"/>
			<polygon fill="#FFFFFF" points="956.7,765.4 949.7,774.4 942,765.3 948.9,758.8 			"/>
		</g>
		<g>
			<path fill="#73B564" d="M899.3,660.9l-1.1-0.4l1-0.5c1.1-0.5,2-1.4,2.4-2.6l0.4-1.1l0.5,1c0.5,1.1,1.4,2,2.6,2.4l1.1,0.4l-1,0.5
				c-1.1,0.5-2,1.4-2.4,2.6l-0.4,1.1l-0.5-1C901.4,662.3,900.4,661.4,899.3,660.9z"/>
			<line fill="none" stroke="#73B564" stroke-miterlimit="10" x1="902.4" y1="666.7" x2="902" y2="654.1"/>
			<line fill="none" stroke="#73B564" stroke-miterlimit="10" x1="895.9" y1="660.6" x2="908.5" y2="660.2"/>
		</g>
		<g>
			<path fill="#73B564" d="M1000.5,694.4l-0.9,0.4l0.3-0.9c0.4-1,0.3-2.1-0.1-3.1l-0.4-0.9l0.9,0.3c1,0.4,2.1,0.3,3.1-0.1l0.9-0.4
				l-0.3,0.9c-0.4,1-0.3,2.1,0.1,3.1l0.4,0.9l-0.9-0.3C1002.6,693.9,1001.5,693.9,1000.5,694.4z"/>
			<line fill="none" stroke="#73B564" stroke-miterlimit="10" x1="1006.1" y1="696" x2="997.9" y2="688.4"/>
			<line fill="none" stroke="#73B564" stroke-miterlimit="10" x1="998.2" y1="696.3" x2="1005.7" y2="688.1"/>
		</g>
		<g>
			<g>
				
					<polygon fill="none" stroke="#007A6D" stroke-width="3" stroke-linecap="round" stroke-linejoin="round" stroke-miterlimit="10" points="
					952.9,671.3 906.8,682.3 906.2,724 928.3,744.9 958.9,747.7 987.5,728.4 990.2,704.3 975.9,679 				"/>
				
					<polyline fill="none" stroke="#007A6D" stroke-width="3" stroke-linecap="round" stroke-linejoin="round" stroke-miterlimit="10" points="
					906.8,682.3 939.1,701.5 944.6,726.8 971.5,721.9 987.5,728.4 				"/>
				
					<line fill="none" stroke="#007A6D" stroke-width="3" stroke-linecap="round" stroke-linejoin="round" stroke-miterlimit="10" x1="939.1" y1="701.5" x2="906.2" y2="724"/>
				
					<line fill="none" stroke="#007A6D" stroke-width="3" stroke-linecap="round" stroke-linejoin="round" stroke-miterlimit="10" x1="944.6" y1="726.8" x2="958.9" y2="747.7"/>
				
					<line fill="none" stroke="#007A6D" stroke-width="3" stroke-linecap="round" stroke-linejoin="round" stroke-miterlimit="10" x1="928.3" y1="744.9" x2="942.4" y2="714.7"/>
			</g>
			
				<line fill="none" stroke="#007A6D" stroke-width="3" stroke-linecap="round" stroke-linejoin="round" stroke-miterlimit="10" x1="950.7" y1="643.9" x2="950.7" y2="658.2"/>
			
				<line fill="none" stroke="#007A6D" stroke-width="3" stroke-linecap="round" stroke-linejoin="round" stroke-miterlimit="10" x1="968.7" y1="647.4" x2="963" y2="660.5"/>
			
				<line fill="none" stroke="#007A6D" stroke-width="3" stroke-linecap="round" stroke-linejoin="round" stroke-miterlimit="10" x1="930" y1="649.1" x2="936.7" y2="661.7"/>
		</g>
	</g>
	<g>
		<defs>
			<path id="SVGID_3_" d="M615.5,388.1l228.1,159c-52,74.5-137.3,119.1-228.1,119.1c-152.6,0-278.1-125.5-278.1-278.1
				S463,109.9,615.5,109.9V388.1z"/>
		</defs>
		<clipPath id="SVGID_4_">
			<use xlink:href="#SVGID_3_"  overflow="visible"/>
		</clipPath>
		<g clip-path="url(#SVGID_4_)">
			<g>
				<path fill="#E6E7E8" d="M855.9,668.6l-34.3-11.4l-53-9.8l-55.9,13.9l-9.8-6.5l-21.6,0.8L638,591.1l-33.4-7.3l-7.9-35.1
					c0,0-31.4-25.3-35.3-31c-3.9-5.7-37.3-83.2-37.3-83.2l-101.1-38.3l-125.6,99.5l-28.9-5.7l-38.8,26.1V671h652.6L855.9,668.6z"/>
				<polygon fill="#D1D3D4" points="268.6,490 329.8,594.3 375.6,593.1 384.1,559.9 321.3,522 297.5,495.7 				"/>
				<polygon fill="#D1D3D4" points="423.1,396.2 483.4,478.1 468.9,505.4 494.4,525.5 498.6,593.1 528.3,529.1 561.5,517.7 
					524.2,434.6 				"/>
				<polygon fill="#D1D3D4" points="638,591.1 625,641.8 653.9,640.6 654.7,658.4 681.2,655.5 				"/>
				<polygon fill="#D1D3D4" points="598.7,593.1 559.7,647.7 599.6,659.5 				"/>
				<polygon fill="#D1D3D4" points="258.5,644.1 293.3,610.9 330.7,648.9 340,631.1 377.7,671 229.8,671 				"/>
				<polygon fill="#D1D3D4" points="340,631.1 390.8,628.8 375.6,593.1 				"/>
				<polygon fill="#BCBEC0" points="423.1,396.2 384.1,559.9 321.3,522 297.5,495.7 				"/>
				<polygon fill="#BCBEC0" points="390.8,628.8 455.3,659.5 453,636.8 517.8,668.7 377.7,671 				"/>
				<polygon fill="#D1D3D4" points="453,636.8 511.8,626.3 559.7,647.7 599.6,659.5 659.3,668.7 517.8,668.7 				"/>
				<polygon opacity="0.38" fill="#D1D3D4" points="423.1,396.2 425.9,537 442.9,542.2 433,590.7 453,636.8 455.3,659.5 
					390.8,628.8 375.6,593.1 384.1,559.9 				"/>
			</g>
			<g>
				<path fill="#D1D3D4" d="M648.2,529.1c11.1-13.1,22-23.8,29.8-29.8c-6.3,2.2-19,13.3-31.7,28.2c-12.8,14.9-21.7,29.2-22.9,35.8
					C628.2,554.6,637.1,542.1,648.2,529.1z"/>
				
					<rect x="641.4" y="527.8" transform="matrix(0.6493 -0.7605 0.7605 0.6493 -175.5557 678.3688)" fill="#D1D3D4" width="12.8" height="3.5"/>
				
					<rect x="641" y="525.6" transform="matrix(0.6493 -0.7605 0.7605 0.6493 -174.771 675.584)" fill="#D1D3D4" width="8.4" height="3.5"/>
				
					<rect x="666.4" y="521.7" transform="matrix(0.6493 -0.7605 0.7605 0.6493 -181.8672 700.7679)" fill="#D1D3D4" width="5" height="51.8"/>
				
					<rect x="645.7" y="529.3" transform="matrix(0.6493 -0.7605 0.7605 0.6493 -175.9856 679.8944)" fill="#D1D3D4" width="7.2" height="2.9"/>
				
					<rect x="695" y="558.2" transform="matrix(0.6493 -0.7605 0.7605 0.6493 -190.5562 731.6043)" fill="#D1D3D4" width="6.1" height="28.4"/>
			</g>
			<g>
				<path fill="#D1D3D4" d="M682.9,524.3l-0.9-1.5l1.7,0.4c1.9,0.5,3.8,0.2,5.5-0.8l1.5-0.9l-0.4,1.7c-0.5,1.9-0.2,3.8,0.8,5.5
					l0.9,1.5l-1.7-0.4c-1.9-0.5-3.8-0.2-5.5,0.8l-1.5,0.9l0.4-1.7C684.1,527.9,683.8,526,682.9,524.3z"/>
				
					<rect x="677.2" y="525.7" transform="matrix(-0.5979 0.8016 -0.8016 -0.5979 1519.7172 290.6752)" fill="#D1D3D4" width="19.6" height="1.6"/>
				
					<rect x="686.2" y="516.7" transform="matrix(-0.5978 0.8016 -0.8016 -0.5978 1519.7015 290.622)" fill="#D1D3D4" width="1.6" height="19.6"/>
			</g>
			<g>
				<path fill="#D1D3D4" d="M604.6,524l-1.7,0.2l1.1-1.4c1.2-1.5,1.8-3.4,1.6-5.3l-0.2-1.7l1.4,1.1c1.5,1.2,3.4,1.8,5.3,1.6l1.7-0.2
					l-1.1,1.4c-1.2,1.5-1.8,3.4-1.6,5.3l0.2,1.7l-1.4-1.1C608.4,524.4,606.5,523.8,604.6,524z"/>
				
					<rect x="598.5" y="520.5" transform="matrix(0.4691 0.8831 -0.8831 0.4691 783.2532 -260.4832)" fill="#D1D3D4" width="19.6" height="1.6"/>
				
					<rect x="607.5" y="511.4" transform="matrix(0.4692 0.8831 -0.8831 0.4692 783.2034 -260.494)" fill="#D1D3D4" width="1.6" height="19.6"/>
			</g>
		</g>
	</g>
	<g>
		<rect x="301.8" y="733.5" fill="none" width="334.4" height="36.2"/>
		<path fill="#939598" d="M305.9,737.4h-3.4v-0.7h3.4V737.4z M306.8,743.5c-1,0.6-2.5,1.1-3.7,1.5c-0.2-0.2-0.5-0.5-0.7-0.7
			c1.2-0.3,2.7-0.7,3.5-1.2L306.8,743.5z M305.6,735.5h-2.9v-0.7h2.9V735.5z M304,738.3h7.8v4.8H304V738.3z M304.9,739.7h6v-0.8h-6
			V739.7z M304.9,741.1h6v-0.8h-6V741.1z M304.9,742.5h6v-0.8h-6V742.5z M307.8,735.6c-0.3,0.5-0.6,0.9-0.9,1.2
			c-0.1-0.1-0.5-0.4-0.7-0.5c0.6-0.6,1.1-1.4,1.4-2.3l0.8,0.2c-0.1,0.2-0.2,0.4-0.3,0.7h4l0.1,0l0.6,0.2c-0.3,0.6-0.7,1.3-1,1.7
			l-0.7-0.3c0.2-0.3,0.4-0.6,0.6-0.9h-1.9v0.2c0,0.1,0,0.3,0,0.4c0.6,0.7,1.9,1.2,3.5,1.3c-0.2,0.2-0.4,0.5-0.5,0.7
			c-1.4-0.2-2.5-0.7-3.3-1.4c-0.4,0.6-1.3,1.1-3.5,1.5c-0.1-0.2-0.3-0.5-0.5-0.7c3.1-0.4,3.4-1.2,3.4-1.9v-0.1H307.8z M309.6,743.2
			c1.3,0.4,2.7,0.9,3.5,1.3l-0.8,0.5c-0.8-0.4-2.1-0.9-3.4-1.3L309.6,743.2z"/>
		<path fill="#939598" d="M316.4,739.8c-0.3,1.3-0.8,3-1.4,3.9c-0.1-0.3-0.3-0.7-0.5-1c0.5-0.7,1-2,1.2-3.1L316.4,739.8z
			 M317.5,738.9v6.1h-0.8v-6.1h-1.9v-0.8h1.9v-4h0.8v4h2v0.8H317.5z M315.5,737.6c-0.1-0.7-0.3-1.8-0.7-2.7l0.6-0.2
			c0.3,0.8,0.6,1.9,0.7,2.6L315.5,737.6z M318,739.6c0.2,0.3,1.1,2,1.3,2.4l-0.6,0.7c-0.2-0.6-0.9-2.2-1.1-2.7L318,739.6z
			 M319.4,735c-0.3,0.9-0.7,2-1,2.7l-0.6-0.2c0.3-0.7,0.6-1.9,0.8-2.7L319.4,735z M324.1,741.6v3.4h-0.8v-3.2l-3.7,0.7l-0.1-0.8
			l3.9-0.7v-6.9h0.8v6.7l1.4-0.3l0.1,0.8L324.1,741.6z M321.7,740c-0.4-0.4-1.3-1-2-1.4l0.4-0.6c0.7,0.4,1.6,0.9,2,1.3L321.7,740z
			 M322.2,737.1c-0.4-0.5-1.2-1.1-1.9-1.5l0.5-0.6c0.7,0.4,1.5,1,1.9,1.5L322.2,737.1z"/>
		<path fill="#939598" d="M332.8,739.4c1.1,1.8,3.1,3.5,5.1,4.3c-0.2,0.2-0.5,0.6-0.7,0.8c-1.7-0.7-3.3-2.1-4.5-3.6v4.1h-0.9v-4.1
			c-1.2,1.5-2.8,2.8-4.4,3.6c-0.1-0.2-0.4-0.6-0.6-0.7c1.9-0.8,3.9-2.4,5-4.2v-2.9h-4.6v-0.9h4.6v-1.7h0.9v1.7h4.8v0.9h-4.8V739.4z
			 M330.3,737c-0.1,0.5-0.3,1-0.5,1.4c0.5,0.4,1.1,1,1.4,1.3l-0.6,0.6c-0.2-0.3-0.7-0.7-1.1-1.2c-0.4,0.8-0.9,1.4-1.5,1.9
			c-0.2-0.2-0.5-0.4-0.7-0.6c1.1-0.8,1.8-2.1,2.2-3.6L330.3,737z M335.9,737c-0.1,0.5-0.2,1-0.4,1.4c0.8,0.6,1.7,1.4,2.2,1.8
			l-0.6,0.6c-0.4-0.5-1.2-1.1-1.9-1.7c-0.3,0.6-0.6,1-1.1,1.4c-0.2-0.1-0.5-0.4-0.7-0.5c0.9-0.7,1.4-1.9,1.7-3.2L335.9,737z"/>
		<path fill="#939598" d="M341.2,739.3c-0.5-0.3-1.3-0.9-2-1.3l0.5-0.6c0.6,0.4,1.6,0.9,2,1.2L341.2,739.3z M342,741
			c-0.5,1.3-1.2,2.7-1.7,3.8l-0.8-0.5c0.5-0.9,1.3-2.5,1.8-3.8L342,741z M341.8,736.2c-0.5-0.4-1.3-0.9-2-1.4l0.5-0.6
			c0.6,0.4,1.5,0.9,2,1.3L341.8,736.2z M343.7,737.9c0,2.1-0.2,5-1.6,7.1c-0.1-0.2-0.5-0.4-0.7-0.5c1.4-1.9,1.5-4.6,1.5-6.6v-3.3
			h7.3v0.8h-6.4V737.9z M345.6,741.8c-0.4,0.9-1,1.8-1.5,2.5c-0.2-0.1-0.5-0.3-0.7-0.5c0.6-0.6,1.1-1.4,1.4-2.2L345.6,741.8z
			 M347.3,741v3.1c0,0.4-0.1,0.7-0.4,0.8c-0.3,0.1-0.8,0.1-1.6,0.1c0-0.2-0.1-0.5-0.3-0.8c0.6,0,1.1,0,1.2,0c0.2,0,0.2,0,0.2-0.2
			V741h-2.1v-4.1h1.8c0.1-0.4,0.3-0.9,0.3-1.2l1,0.2c-0.2,0.3-0.3,0.7-0.5,1h2.6v4.1H347.3z M345.1,738.6h3.6v-1h-3.6V738.6z
			 M345.1,740.3h3.6v-1.1h-3.6V740.3z M348.9,741.5c0.5,0.7,1.1,1.7,1.4,2.3l-0.8,0.4c-0.3-0.6-0.9-1.6-1.3-2.4L348.9,741.5z"/>
		<path fill="#939598" d="M354.9,738.6c0-0.5,0.4-0.9,0.8-0.9s0.8,0.3,0.8,0.9c0,0.5-0.4,0.8-0.8,0.8S354.9,739.1,354.9,738.6z
			 M354.9,743.4c0-0.5,0.4-0.9,0.8-0.9s0.8,0.4,0.8,0.9c0,0.5-0.4,0.8-0.8,0.8S354.9,743.9,354.9,743.4z"/>
		<path fill="#939598" d="M361.8,735.3h1.1v3.7h4.1v-3.7h1.1v8.8H367v-4.1h-4.1v4.1h-1.1V735.3z"/>
		<path fill="#939598" d="M370.4,742.4c0-1.4,1.2-2.1,4-2.4c0-0.8-0.3-1.6-1.3-1.6c-0.8,0-1.4,0.3-2,0.7l-0.4-0.8
			c0.6-0.4,1.5-0.9,2.6-0.9c1.6,0,2.3,1.1,2.3,2.7v4h-0.9l-0.1-0.8h0c-0.6,0.5-1.4,0.9-2.2,0.9C371.2,744.3,370.4,743.6,370.4,742.4
			z M374.4,742.5v-1.8c-2.2,0.3-2.9,0.8-2.9,1.6c0,0.7,0.5,1,1.2,1C373.2,743.4,373.7,743.1,374.4,742.5z"/>
		<path fill="#939598" d="M376.9,737.6h1.1l1.2,3.7c0.2,0.6,0.4,1.3,0.6,1.9h0c0.2-0.6,0.4-1.3,0.6-1.9l1.2-3.7h1.1l-2.3,6.5h-1.3
			L376.9,737.6z"/>
		<path fill="#939598" d="M383.8,740.8c0-2.1,1.4-3.4,2.9-3.4c1.7,0,2.6,1.2,2.6,3.1c0,0.2,0,0.5,0,0.6h-4.4
			c0.1,1.4,0.9,2.3,2.2,2.3c0.6,0,1.2-0.2,1.6-0.5l0.4,0.7c-0.6,0.4-1.3,0.7-2.2,0.7C385.2,744.3,383.8,743,383.8,740.8z
			 M388.4,740.3c0-1.3-0.6-2-1.6-2c-0.9,0-1.7,0.7-1.9,2H388.4z"/>
		<path fill="#939598" d="M391.3,737.6h0.9l0.1,1.2h0c0.5-0.8,1.1-1.4,1.8-1.4c0.3,0,0.5,0,0.7,0.1l-0.2,1c-0.2-0.1-0.4-0.1-0.6-0.1
			c-0.5,0-1.2,0.4-1.6,1.5v4.2h-1.1V737.6z"/>
		<path fill="#939598" d="M395,745.7c0.7-0.3,1.2-0.9,1.2-1.6c0,0-0.1,0-0.1,0c-0.4,0-0.8-0.3-0.8-0.8c0-0.5,0.4-0.8,0.8-0.8
			c0.6,0,0.9,0.5,0.9,1.3c0,1.2-0.7,2.1-1.8,2.5L395,745.7z"/>
		<path fill="#939598" d="M405.9,738.5c0,0,0,0.3,0,0.4c-0.1,4-0.2,5.3-0.5,5.7c-0.2,0.3-0.4,0.3-0.7,0.4c-0.3,0-0.8,0-1.3,0
			c0-0.2-0.1-0.6-0.2-0.8c0.5,0,0.9,0,1.1,0c0.2,0,0.3,0,0.4-0.2c0.2-0.3,0.3-1.4,0.3-4.8h-1.4c-0.1,2.3-0.5,4.3-1.5,5.7
			c-0.1-0.2-0.4-0.5-0.7-0.6c1.2-1.7,1.4-4.6,1.4-7.6h-1.3V736h4.7v0.8h-2.6c0,0.6,0,1.1,0,1.6H405.9z M403.9,735.9
			c-0.1-0.4-0.4-1.1-0.6-1.6l0.8-0.2c0.3,0.5,0.5,1.2,0.6,1.6L403.9,735.9z M407.8,736.6c-0.3,0.7-0.7,1.4-1.2,1.9
			c-0.1-0.2-0.5-0.5-0.7-0.6c0.8-0.9,1.4-2.3,1.8-3.8l0.9,0.2c-0.1,0.5-0.3,1-0.4,1.5h4.3v0.8H407.8z M411.1,744.2
			c0.5,0,0.6-0.2,0.7-1.4c0.2,0.1,0.5,0.3,0.8,0.3c-0.1,1.4-0.4,1.8-1.4,1.8h-2.4c-1.2,0-1.5-0.3-1.5-1.3v-2.9l-0.7,0.3l-0.3-0.7
			l1-0.5v-1.9h0.8v1.5l1.1-0.5V737h0.8v1.5l1.3-0.6l0.2-0.2l0.6,0.2l0,0.1c0,1.3-0.1,3.1-0.2,4.1l-0.7-0.1c0.1-0.8,0.1-2.1,0.1-3.2
			l-1.3,0.6v3.6h-0.8v-3.2l-1.1,0.5v3.3c0,0.5,0.1,0.6,0.8,0.6H411.1z"/>
		<path fill="#939598" d="M415.4,742.5c-0.1,0.8-0.4,1.7-0.6,2.3c-0.2-0.1-0.5-0.2-0.7-0.2c0.3-0.6,0.5-1.4,0.6-2.2L415.4,742.5z
			 M418,739.9c0.4,0.6,0.8,1.5,0.9,2l-0.6,0.3c0-0.2-0.1-0.4-0.2-0.6c-2.9,0.3-3.3,0.4-3.6,0.5c0-0.1-0.2-0.5-0.3-0.7
			c0.3,0,0.6-0.2,0.9-0.6c0.2-0.2,0.7-0.6,1.2-1.1c-1.4,0.1-1.7,0.2-1.8,0.3c0-0.1-0.2-0.5-0.3-0.7c0.2,0,0.4-0.2,0.6-0.4
			c0.2-0.2,1-1,1.4-1.8h-1.6v-2.6h9.4v2.6h-7.6l0.6,0.3c-0.4,0.6-1,1.3-1.5,1.8l1.4-0.1c0.3-0.3,0.6-0.7,0.8-1l0.7,0.4
			c-0.8,1-1.8,2-2.7,2.7l2.1-0.2c-0.1-0.3-0.3-0.6-0.4-0.9L418,739.9z M415.5,736.4h1.9v-1.2h-1.9V736.4z M416.6,742.4
			c0.2,0.6,0.4,1.5,0.4,2.1l-0.7,0.1c0-0.6-0.2-1.4-0.4-2.1L416.6,742.4z M418,742.2c0.3,0.6,0.7,1.4,0.8,1.9l-0.7,0.2
			c-0.1-0.5-0.4-1.3-0.8-1.9L418,742.2z M424.8,744.6h-4.6v0.5h-0.8v-5c-0.2,0.2-0.3,0.4-0.5,0.6c-0.2-0.1-0.5-0.4-0.7-0.5
			c0.8-0.7,1.5-1.8,1.9-3l0.8,0.2c-0.2,0.4-0.4,0.9-0.6,1.3h1.8c-0.1-0.4-0.3-0.8-0.6-1.2l0.7-0.2c0.3,0.4,0.5,1,0.7,1.4h1.7v0.7
			h-1.8v1h1.6v0.7h-1.6v1h1.6v0.7h-1.6v1h2V744.6z M418.3,736.4h2v-1.2h-2V736.4z M421.9,739.4h-1.7v1h1.7V739.4z M421.9,741.1h-1.7
			v1h1.7V741.1z M420.2,743.8h1.7v-1h-1.7V743.8z M421.1,736.4h2v-1.2h-2V736.4z"/>
		<path fill="#939598" d="M429.6,737c-0.3,0.6-0.6,1.1-1,1.7v6.4h-0.8v-5.3c-0.4,0.5-0.8,1-1.2,1.4c-0.1-0.2-0.4-0.6-0.5-0.8
			c1-0.9,2.1-2.3,2.8-3.7L429.6,737z M429.4,734.4c-0.8,1-1.9,2.2-2.9,3c-0.1-0.2-0.3-0.5-0.4-0.7c0.9-0.7,1.9-1.8,2.5-2.6
			L429.4,734.4z M429,744.2c0.5-0.6,0.9-1.5,1.1-2.2l0.7,0.3c-0.3,0.8-0.6,1.7-1.1,2.3L429,744.2z M437.1,741.1h-7.7v-0.7h7.7V741.1
			z M432.5,736.7c0-0.3,0.1-0.6,0.1-0.9h-3.1v-0.7h3.2c0-0.4,0.1-0.7,0.1-1l0.9,0c0,0.3-0.1,0.6-0.2,1h3.4v0.7h-3.5
			c-0.1,0.3-0.1,0.6-0.2,0.9h3.2v3h-6.5v-3H432.5z M432,737.3h-1.2v1.6h1.2V737.3z M434.1,744.2c0.4,0,0.4-0.1,0.5-1.1
			c0.2,0.1,0.5,0.2,0.7,0.3c-0.1,1.2-0.3,1.5-1.1,1.5h-1.8c-1,0-1.3-0.2-1.3-1V742h0.8v1.8c0,0.3,0.1,0.3,0.5,0.3H434.1z M433.3,743
			c-0.2-0.4-0.6-1.1-0.9-1.5l0.7-0.2c0.3,0.5,0.7,1.1,0.9,1.5L433.3,743z M433.9,737.3h-1.2v1.6h1.2V737.3z M434.6,738.9h1.3v-1.6
			h-1.3V738.9z M435.9,741.8c0.5,0.7,1,1.7,1.2,2.3l-0.7,0.3c-0.2-0.6-0.7-1.6-1.2-2.3L435.9,741.8z"/>
		<path fill="#939598" d="M441,740.5v3.4c0,0.5-0.1,0.7-0.4,0.9c-0.3,0.1-0.8,0.2-1.6,0.2c0-0.2-0.2-0.6-0.3-0.8c0.6,0,1.1,0,1.2,0
			c0.2,0,0.2-0.1,0.2-0.2v-3.1l-1.5,0.4l-0.3-0.9c0.5-0.1,1.1-0.3,1.8-0.5v-2.6h-1.6v-0.8h1.6v-2.4h0.9v2.4h1.5v0.8H441v2.3l1.1-0.3
			l0.1,0.8L441,740.5z M448.5,739.6c-0.5,1.4-1.3,2.6-2.3,3.4c0.9,0.6,2,1,3.2,1.2c-0.2,0.2-0.4,0.6-0.6,0.8
			c-1.3-0.3-2.4-0.8-3.4-1.5c-1,0.7-2.3,1.2-3.5,1.5c-0.1-0.3-0.3-0.6-0.4-0.8c1.2-0.3,2.3-0.7,3.2-1.3c-0.8-0.8-1.5-1.7-2-2.7
			l0.1,0h-0.5v-0.8h5.4l0.2,0L448.5,739.6z M444.4,735.8c0,1.1-0.3,2.4-1.8,3.2c-0.1-0.2-0.4-0.5-0.6-0.7c1.3-0.7,1.5-1.7,1.5-2.6
			v-1.3h3.8v2.8c0,0.3,0,0.5,0.2,0.5h0.9c0.2,0,0.4,0,0.6-0.1c0,0.2,0,0.6,0.1,0.8c-0.2,0-0.4,0.1-0.6,0.1h-1c-0.8,0-1-0.3-1-1.2
			v-1.9h-2.1V735.8z M443.6,740.2c0.4,0.9,1.1,1.6,1.8,2.3c0.8-0.6,1.4-1.4,1.9-2.3H443.6z"/>
		<path fill="#939598" d="M454.3,737.4h-3.4v-0.7h3.4V737.4z M455.2,743.5c-1,0.6-2.5,1.1-3.7,1.5c-0.2-0.2-0.5-0.5-0.7-0.7
			c1.2-0.3,2.7-0.7,3.5-1.2L455.2,743.5z M454,735.5h-2.9v-0.7h2.9V735.5z M452.4,738.3h7.8v4.8h-7.8V738.3z M453.3,739.7h6v-0.8h-6
			V739.7z M453.3,741.1h6v-0.8h-6V741.1z M453.3,742.5h6v-0.8h-6V742.5z M456.1,735.6c-0.3,0.5-0.6,0.9-0.9,1.2
			c-0.1-0.1-0.5-0.4-0.7-0.5c0.6-0.6,1.1-1.4,1.4-2.3l0.8,0.2c-0.1,0.2-0.2,0.4-0.3,0.7h4l0.1,0l0.6,0.2c-0.3,0.6-0.7,1.3-1,1.7
			l-0.7-0.3c0.2-0.3,0.4-0.6,0.6-0.9h-1.9v0.2c0,0.1,0,0.3,0,0.4c0.6,0.7,1.9,1.2,3.5,1.3c-0.2,0.2-0.4,0.5-0.5,0.7
			c-1.4-0.2-2.5-0.7-3.3-1.4c-0.4,0.6-1.3,1.1-3.5,1.5c-0.1-0.2-0.3-0.5-0.5-0.7c3.1-0.4,3.4-1.2,3.4-1.9v-0.1H456.1z M457.9,743.2
			c1.3,0.4,2.7,0.9,3.5,1.3l-0.8,0.5c-0.8-0.4-2.1-0.9-3.4-1.3L457.9,743.2z"/>
		<path fill="#939598" d="M465.5,737.7c1,0,1.8,0.8,1.8,1.8c0,1-0.8,1.8-1.8,1.8c-1,0-1.8-0.8-1.8-1.8
			C463.7,738.5,464.5,737.7,465.5,737.7z M465.5,740.8c0.7,0,1.2-0.5,1.2-1.2c0-0.7-0.5-1.2-1.2-1.2c-0.7,0-1.2,0.5-1.2,1.2
			C464.3,740.2,464.9,740.8,465.5,740.8z"/>
		<path fill="#939598" d="M472.9,737.4h-3.4v-0.7h3.4V737.4z M473.8,743.5c-1,0.6-2.5,1.1-3.7,1.5c-0.2-0.2-0.5-0.5-0.7-0.7
			c1.2-0.3,2.7-0.7,3.5-1.2L473.8,743.5z M472.6,735.5h-2.9v-0.7h2.9V735.5z M471,738.3h7.8v4.8H471V738.3z M471.9,739.7h6v-0.8h-6
			V739.7z M471.9,741.1h6v-0.8h-6V741.1z M471.9,742.5h6v-0.8h-6V742.5z M474.7,735.6c-0.3,0.5-0.6,0.9-0.9,1.2
			c-0.1-0.1-0.5-0.4-0.7-0.5c0.6-0.6,1.1-1.4,1.4-2.3l0.8,0.2c-0.1,0.2-0.2,0.4-0.3,0.7h4l0.1,0l0.6,0.2c-0.3,0.6-0.7,1.3-1,1.7
			l-0.7-0.3c0.2-0.3,0.4-0.6,0.6-0.9h-1.9v0.2c0,0.1,0,0.3,0,0.4c0.6,0.7,1.9,1.2,3.5,1.3c-0.2,0.2-0.4,0.5-0.5,0.7
			c-1.4-0.2-2.5-0.7-3.3-1.4c-0.4,0.6-1.3,1.1-3.5,1.5c-0.1-0.2-0.3-0.5-0.5-0.7c3.1-0.4,3.4-1.2,3.4-1.9v-0.1H474.7z M476.5,743.2
			c1.3,0.4,2.7,0.9,3.5,1.3l-0.8,0.5c-0.8-0.4-2.1-0.9-3.4-1.3L476.5,743.2z"/>
		<path fill="#939598" d="M483.4,739.8c-0.3,1.3-0.8,3-1.4,3.9c-0.1-0.3-0.3-0.7-0.5-1c0.5-0.7,1-2,1.2-3.1L483.4,739.8z
			 M484.5,738.9v6.1h-0.8v-6.1h-1.9v-0.8h1.9v-4h0.8v4h2v0.8H484.5z M482.5,737.6c-0.1-0.7-0.3-1.8-0.7-2.7l0.6-0.2
			c0.3,0.8,0.6,1.9,0.7,2.6L482.5,737.6z M485,739.6c0.2,0.3,1.1,2,1.3,2.4l-0.6,0.7c-0.2-0.6-0.9-2.2-1.1-2.7L485,739.6z
			 M486.4,735c-0.3,0.9-0.7,2-1,2.7l-0.6-0.2c0.3-0.7,0.6-1.9,0.8-2.7L486.4,735z M491.1,741.6v3.4h-0.8v-3.2l-3.7,0.7l-0.1-0.8
			l3.9-0.7v-6.9h0.8v6.7l1.4-0.3l0.1,0.8L491.1,741.6z M488.7,740c-0.4-0.4-1.3-1-2-1.4l0.4-0.6c0.7,0.4,1.6,0.9,2,1.3L488.7,740z
			 M489.2,737.1c-0.4-0.5-1.2-1.1-1.9-1.5l0.5-0.6c0.7,0.4,1.5,1,1.9,1.5L489.2,737.1z"/>
		<path fill="#939598" d="M497.8,742.7h-2.6v1h-0.8v-8.8h3.4V742.7z M495.2,735.7v2.7h1.7v-2.7H495.2z M496.9,741.9v-2.8h-1.7v2.8
			H496.9z M501.8,736.3v1.5h2.6v0.8h-1v1.3h1.4v0.8h-1.4v3.2c0,0.5-0.1,0.8-0.5,0.9c-0.4,0.1-1,0.2-1.9,0.2c0-0.3-0.2-0.6-0.3-0.8
			c0.7,0,1.4,0,1.6,0c0.2,0,0.3-0.1,0.3-0.2v-3.2H498v-0.8h4.5v-1.3h-4v-0.8h2.5v-1.5h-3v-0.8h3v-1.4h0.9v1.4h3v0.8H501.8z
			 M499.5,741.2c0.6,0.6,1.2,1.5,1.5,2l-0.8,0.5c-0.3-0.6-0.9-1.5-1.5-2.1L499.5,741.2z"/>
		<path fill="#939598" d="M507.7,738.7v6.4h-0.9v-10.4h4.3v4.1H507.7z M507.7,735.3v1h2.6v-1H507.7z M510.3,738v-1.1h-2.6v1.1H510.3
			z M510.3,743.9v0.6h-0.8v-4.9h4.4v4.3H510.3z M510.3,740.2v1.1h2.8v-1.1H510.3z M513.1,743.2V742h-2.8v1.2H513.1z M516.7,743.8
			c0,0.6-0.1,0.9-0.5,1c-0.4,0.1-1,0.2-2,0.2c0-0.3-0.2-0.7-0.3-0.9c0.7,0,1.5,0,1.7,0c0.2,0,0.3-0.1,0.3-0.3v-5.1h-3.5v-4.1h4.4
			V743.8z M513.1,735.3v1h2.7v-1H513.1z M515.8,738v-1.1h-2.7v1.1H515.8z"/>
		<path fill="#939598" d="M529.1,740.9c-0.2,2.5-0.4,3.4-0.8,3.8c-0.2,0.2-0.4,0.3-0.8,0.3c-0.3,0-0.9,0-1.5,0
			c0-0.2-0.1-0.6-0.2-0.8c0.6,0.1,1.1,0.1,1.3,0.1c0.2,0,0.3,0,0.4-0.1c0.3-0.2,0.4-1,0.6-2.9h-7.2c-0.6,0.5-1.3,1-2.1,1.4
			c-0.1-0.2-0.3-0.6-0.5-0.7c2.2-1.2,3.9-3,5-5h-4.3v-0.8h2.4c-0.2-0.5-0.6-1.2-0.9-1.7l0.8-0.3c0.4,0.5,0.8,1.3,1,1.8l-0.7,0.3h2.1
			c0.3-0.7,0.6-1.4,0.9-2.1l0.9,0.3c-0.2,0.6-0.5,1.2-0.8,1.8h2.5c-0.1,0.7-0.3,1.5-0.4,2.2h1.4c-0.1,0.7-0.3,1.5-0.4,2.2h1.2
			L529.1,740.9z M519,744.4c0.7-0.6,1.2-1.5,1.4-2.5l0.8,0.2c-0.3,1-0.6,2.1-1.5,2.7L519,744.4z M523.1,739.1
			c-0.4,0.5-0.8,1-1.2,1.4h5.2c0.1-0.4,0.2-0.9,0.3-1.4H523.1z M522.7,742.2c0.2,0.7,0.3,1.6,0.3,2.2l-0.8,0.1
			c0-0.6-0.1-1.5-0.3-2.2L522.7,742.2z M524.5,737c-0.3,0.5-0.5,0.9-0.8,1.4h2.4c0.1-0.4,0.2-0.9,0.3-1.4H524.5z M524.5,742
			c0.3,0.6,0.6,1.4,0.7,1.9l-0.7,0.2c-0.1-0.5-0.3-1.3-0.6-2L524.5,742z M526.4,743.6c-0.2-0.5-0.5-1.1-0.9-1.6l0.6-0.2
			c0.4,0.5,0.8,1.2,0.9,1.6L526.4,743.6z"/>
		<path fill="#939598" d="M530.8,743.5c2.8-2.4,4-4.2,4-5.7c0-1-0.5-1.7-1.6-1.7c-0.7,0-1.3,0.4-1.8,1l-0.6-0.6
			c0.7-0.8,1.5-1.3,2.6-1.3c1.6,0,2.6,1,2.6,2.6c0,1.8-1.4,3.5-3.4,5.5c0.5,0,1-0.1,1.4-0.1h2.4v0.9h-5.5V743.5z"/>
		<path fill="#939598" d="M537.9,739.7c0-3.1,1.1-4.5,2.7-4.5c1.7,0,2.7,1.5,2.7,4.5c0,3.1-1.1,4.6-2.7,4.6
			C538.9,744.3,537.9,742.7,537.9,739.7z M542.3,739.7c0-2.6-0.7-3.6-1.7-3.6c-1,0-1.7,1.1-1.7,3.6c0,2.6,0.7,3.7,1.7,3.7
			C541.6,743.4,542.3,742.3,542.3,739.7z"/>
		<path fill="#939598" d="M545.3,743.2h2v-6.6h-1.6v-0.7c0.8-0.1,1.3-0.3,1.8-0.6h0.8v7.9h1.8v0.9h-4.8V743.2z"/>
		<path fill="#939598" d="M551.5,743.1l0.5-0.7c0.5,0.5,1.1,1,2.2,1c1,0,1.9-0.8,1.9-2.1c0-1.3-0.7-2-1.8-2c-0.6,0-1,0.2-1.5,0.5
			l-0.6-0.4l0.3-4.1h4.3v0.9h-3.3l-0.2,2.5c0.4-0.2,0.8-0.3,1.3-0.3c1.5,0,2.7,0.9,2.7,2.8s-1.4,3-2.9,3
			C553,744.3,552.1,743.7,551.5,743.1z"/>
		<path fill="#939598" d="M569.5,742.3h-4.3v2.7h-0.9v-2.7h-5.5v-0.9h2v-3.2h3.6v-1.8h-2.9c-0.5,0.9-1.2,1.7-1.8,2.4
			c-0.2-0.1-0.5-0.4-0.8-0.6c1.1-1,2.1-2.5,2.7-4.1l0.9,0.2c-0.2,0.4-0.4,0.9-0.6,1.3h7.1v0.9h-3.8v1.8h3.5v0.8h-3.5v2.4h4.3V742.3z
			 M564.3,741.4V739h-2.7v2.4H564.3z"/>
		<path fill="#939598" d="M571.5,743.2h2v-6.6h-1.6v-0.7c0.8-0.1,1.3-0.3,1.8-0.6h0.8v7.9h1.8v0.9h-4.8V743.2z"/>
		<path fill="#939598" d="M587.2,743.7c0,0.6-0.2,0.9-0.6,1.1c-0.5,0.2-1.2,0.2-2.5,0.2c-0.1-0.3-0.2-0.7-0.4-0.9c1,0,2,0,2.2,0
			c0.3,0,0.4-0.1,0.4-0.4v-2.4h-5.8c-0.3,1.4-0.9,2.7-2.1,3.7c-0.1-0.2-0.5-0.5-0.7-0.6c1.9-1.7,2.1-4.1,2.1-6v-3.7h7.3V743.7z
			 M586.3,740.4v-2h-5.5c0,0.6,0,1.3-0.1,2H586.3z M580.8,735.6v2h5.5v-2H580.8z"/>
		<path fill="#939598" d="M592.7,737.7c1,0,1.8,0.8,1.8,1.8c0,1-0.8,1.8-1.8,1.8c-1,0-1.8-0.8-1.8-1.8
			C590.9,738.5,591.7,737.7,592.7,737.7z M592.7,740.8c0.7,0,1.2-0.5,1.2-1.2c0-0.7-0.5-1.2-1.2-1.2c-0.7,0-1.2,0.5-1.2,1.2
			C591.5,740.2,592.1,740.8,592.7,740.8z"/>
	</g>
	<circle fill="#0074B7" cx="949.8" cy="48.5" r="7.4"/>
</g>
<g>
</g>
<g>
</g>
<g>
</g>
<g>
</g>
<g>
</g>
<g>
</g>
<g>
</g>
<g>
</g>
<g>
</g>
<g>
</g>
<g>
</g>
<g>
</g>
<g>
</g>
<g>
</g>
<g>
</g>
</svg>
