<?xml version="1.0" encoding="utf-8"?>
<!-- Generator: Adobe Illustrator 18.0.0, SVG Export Plug-In . SVG Version: 6.00 Build 0)  -->
<!DOCTYPE svg PUBLIC "-//W3C//DTD SVG 1.1//EN" "http://www.w3.org/Graphics/SVG/1.1/DTD/svg11.dtd">
<svg version="1.1" id="Layer_1" xmlns="http://www.w3.org/2000/svg" xmlns:xlink="http://www.w3.org/1999/xlink" x="0px" y="0px"
	 viewBox="0 0 246.4 131.8" enable-background="new 0 0 246.4 131.8" xml:space="preserve">
<g>
	<g>
		<circle fill="#007A6D" cx="29.1" cy="31.1" r="29.1"/>
		<g>
			<path fill="#FFFFFF" d="M27,45.1V22.8h-7.9v-4.1c4.7-0.1,7.9-2.7,8.6-6.1h5.2v32.6H27z"/>
		</g>
	</g>
	<g>
		<g>
			<g>
				<defs>
					<circle id="SVGID_1_" cx="143.7" cy="53.3" r="51.7"/>
				</defs>
				<clipPath id="SVGID_2_">
					<use xlink:href="#SVGID_1_"  overflow="visible"/>
				</clipPath>
				<g clip-path="url(#SVGID_2_)">
					<g>
						<polygon fill="#2368B5" points="101.2,95.1 99.4,93.1 116.7,77.4 126.5,87.2 142,70.5 153.1,80.6 179.9,55.6 181.7,57.6 
							153.2,84.2 142.2,74.3 126.5,91 116.6,81.1 						"/>
						<path fill="#2368B5" d="M179.9,55.6l1.8,1.9l-28.5,26.6l-11-9.9L126.5,91l-9.9-10l-15.4,14l-1.8-2l17.3-15.7l9.8,9.8L142,70.5
							l11.1,10L179.9,55.6 M179.9,54.1l-0.8,0.7l-26,24.2l-10.4-9.3L142,69l-0.7,0.8l-14.8,15.8l-9-9l-0.7-0.7l-0.8,0.7L98.7,92.3
							L97.9,93l0.7,0.8l1.8,2l0.7,0.8l0.8-0.7l14.6-13.3l9.2,9.2l0.8,0.8l0.8-0.8l14.9-16l10.2,9.2l0.7,0.7l0.7-0.7l28.5-26.6
							l0.8-0.7l-0.7-0.8l-1.8-1.9L179.9,54.1L179.9,54.1z"/>
					</g>
					<g>
						<polygon fill="#2368B5" points="182.5,66.8 179.9,66.8 179.9,57.4 167.9,57.4 167.9,54.7 182.5,54.7 						"/>
						<path fill="#2368B5" d="M182.5,54.7v12h-2.7v-9.4h-11.9v-2.7H182.5 M183.6,53.7h-1.1h-14.6h-1.1v1.1v2.7v1.1h1.1h10.8v8.3v1.1
							h1.1h2.7h1.1v-1.1v-12V53.7L183.6,53.7z"/>
					</g>
				</g>
				<g clip-path="url(#SVGID_2_)">
					<rect x="91.6" y="38" fill="#2368B5" width="6.6" height="3.3"/>
					<path fill="#2368B5" d="M174,41.2h-12.6V38H174V41.2z M148.7,41.2h-12.6V38h12.6V41.2z M123.4,41.2h-12.6V38h12.6V41.2z"/>
					<rect x="186.7" y="38" fill="#2368B5" width="6.6" height="3.3"/>
				</g>
			</g>
			<path fill="#2368B5" d="M143.7,106.6c-29.4,0-53.3-23.9-53.3-53.3S114.3,0,143.7,0S197,23.9,197,53.3S173.1,106.6,143.7,106.6z
				 M143.7,3.3c-27.6,0-50,22.4-50,50s22.4,50,50,50s50-22.4,50-50S171.3,3.3,143.7,3.3z"/>
			<g>
				<path fill="#2368B5" d="M175.9,107.8c0,0,35.2-4.9,39.9-40.5h22C237.8,67.3,239.6,96.8,175.9,107.8z"/>
				<path fill="#2368B5" d="M225.7,45.7c0.3,0.9-24.7,23.8-24.7,23.8h45.3L225.7,45.7z"/>
			</g>
		</g>
		<g>
			<g>
				<path fill="#2368B5" d="M95.5,121.4c-0.2,0.6-0.5,1.2-0.9,1.8v5.6h-0.6v-4.7c-0.3,0.4-0.6,0.7-0.8,1c-0.1-0.2-0.2-0.5-0.4-0.6
					c0.8-0.8,1.6-2.1,2.1-3.3L95.5,121.4z M99,125c0.2,1.8,0.6,3.1,1,3.1c0.2,0,0.3-0.4,0.3-1.2c0.1,0.1,0.3,0.3,0.4,0.3
					c-0.2,1.3-0.5,1.6-0.8,1.6c-0.9,0-1.4-1.6-1.6-3.8h-1.9v2.4l1.5-0.4c0,0.2,0,0.4,0,0.5c-1.8,0.5-2.1,0.6-2.3,0.7
					c0-0.1-0.1-0.4-0.2-0.5c0.2-0.1,0.4-0.2,0.4-0.5V122h0l0,0c1.4-0.2,3-0.5,3.9-0.9l0.5,0.5c-0.4,0.2-0.9,0.3-1.5,0.4
					c0,0.8,0.1,1.6,0.1,2.4h1.7v0.6H99z M98.3,124.4c-0.1-0.7-0.1-1.4-0.1-2.2c-0.6,0.1-1.2,0.2-1.8,0.3v1.9H98.3z M96.6,128.1h2.2
					v0.5h-2.2V128.1z"/>
				<path fill="#2368B5" d="M106.3,123.5c0.6,1.4,1.7,2.7,2.8,3.4c-0.2,0.1-0.4,0.4-0.5,0.5c-1.2-0.8-2.3-2.3-3-3.9h-0.1v3.1h1.9
					v0.6h-1.9v1.6H105v-1.6H103v-0.6h1.9v-3.1h-0.1c-0.6,1.6-1.7,3.1-2.9,4c-0.1-0.2-0.3-0.4-0.4-0.5c1.1-0.7,2.1-2,2.8-3.5h-2.5
					v-0.6h3.3v-1.8h0.6v1.8h3.3v0.6H106.3z"/>
				<path fill="#2368B5" d="M117.5,128v0.6h-7.6V128h1.1v-2.6h5.5v2.6H117.5z M117.3,123.4H110v-0.6h2.2c-0.2-0.4-0.5-1-0.8-1.4
					l0.5-0.2c0.4,0.4,0.7,1,0.9,1.4l-0.4,0.2h2.7l-0.4-0.2c0.3-0.4,0.7-1,0.9-1.5l0.6,0.2c-0.3,0.5-0.7,1.1-1,1.4h2.2V123.4z
					 M112.8,124c-0.6,0.5-1.6,1.1-2.4,1.5c-0.1-0.2-0.2-0.4-0.4-0.5c0.7-0.3,1.8-0.8,2.3-1.3L112.8,124z M111.5,128h1.1V126h-1.1
					V128z M113.2,126v2.1h1.1V126H113.2z M117,125.3c-0.6-0.3-1.7-0.8-2.5-1.1l0.3-0.4c0.8,0.3,2,0.8,2.6,1.1L117,125.3z M114.8,126
					v2.1h1.1V126H114.8z"/>
				<path fill="#2368B5" d="M121.9,127.1c0,0.2,0,0.4,0.1,0.6c-2.4,0.6-2.7,0.7-2.9,0.9c-0.1-0.2-0.2-0.4-0.3-0.5
					c0.1-0.1,0.3-0.3,0.3-0.6v-6.3h0.6v2.6h2.1v0.6h-2.1v3.3L121.9,127.1z M124.9,128.1c0.4,0,0.4-0.3,0.5-1.5
					c0.2,0.1,0.4,0.2,0.6,0.3c-0.1,1.4-0.3,1.8-1,1.8h-1.4c-0.8,0-1-0.2-1-1.2v-6.3h0.6v2.6h2.3v0.6h-2.3v3.1c0,0.5,0.1,0.5,0.5,0.5
					H124.9z"/>
				<path fill="#2368B5" d="M140.4,121.4c-0.2,0.6-0.5,1.2-0.9,1.8v5.6h-0.6v-4.7c-0.3,0.4-0.6,0.7-0.8,1c-0.1-0.2-0.2-0.5-0.4-0.6
					c0.8-0.8,1.6-2.1,2.1-3.3L140.4,121.4z M143.9,125c0.2,1.8,0.6,3.1,1,3.1c0.2,0,0.3-0.4,0.3-1.2c0.1,0.1,0.3,0.3,0.4,0.3
					c-0.2,1.3-0.5,1.6-0.8,1.6c-0.9,0-1.4-1.6-1.6-3.8h-1.9v2.4l1.5-0.4c0,0.2,0,0.4,0,0.5c-1.8,0.5-2.1,0.6-2.3,0.7
					c0-0.1-0.1-0.4-0.2-0.5c0.2-0.1,0.4-0.2,0.4-0.5V122h0l0,0c1.4-0.2,3-0.5,3.9-0.9l0.5,0.5c-0.4,0.2-0.9,0.3-1.5,0.4
					c0,0.8,0.1,1.6,0.1,2.4h1.7v0.6H143.9z M143.2,124.4c-0.1-0.7-0.1-1.4-0.1-2.2c-0.6,0.1-1.2,0.2-1.8,0.3v1.9H143.2z
					 M141.5,128.1h2.2v0.5h-2.2V128.1z"/>
				<path fill="#2368B5" d="M149.2,128c0,0.3-0.1,0.5-0.3,0.6c-0.2,0.1-0.5,0.1-1,0.1c0-0.2-0.1-0.4-0.2-0.6c0.4,0,0.7,0,0.8,0
					c0.1,0,0.1-0.1,0.1-0.2v-2.3c-0.4,0.2-0.7,0.4-1,0.6l-0.2-0.5c-0.1,1-0.2,2.1-0.6,3c-0.1-0.1-0.4-0.2-0.5-0.3
					c0.6-1.2,0.6-2.8,0.6-4.1v-3h2.3V128z M147.5,124.5c0,0.4,0,0.8,0,1.3c0.3-0.1,0.8-0.3,1.2-0.6v-1l-0.3,0.3
					c-0.2-0.3-0.6-0.7-0.9-1V124.5z M147.5,122v1.3l0.3-0.2c0.3,0.3,0.7,0.7,0.9,0.9v-2H147.5z M153.7,125c-0.3,1-0.8,1.8-1.5,2.5
					c0.5,0.4,1.1,0.7,1.8,0.8c-0.2,0.1-0.3,0.4-0.4,0.5c-0.7-0.2-1.4-0.6-1.9-1c-0.6,0.4-1.3,0.8-2,1c-0.1-0.2-0.2-0.4-0.3-0.5
					c0.7-0.2,1.3-0.5,1.9-0.9c-0.5-0.5-1-1.2-1.3-1.9l0.1,0h-0.4v-0.6h3.5l0.1,0L153.7,125z M151,122.4c0,0.7-0.2,1.6-1.2,2.2
					c-0.1-0.1-0.3-0.3-0.4-0.4c0.9-0.5,1.1-1.2,1.1-1.8v-0.9h2.6v2c0,0.2,0,0.3,0.1,0.3h0.5c0.1,0,0.3,0,0.4,0c0,0.2,0,0.4,0.1,0.5
					c-0.1,0-0.3,0-0.4,0h-0.5c-0.6,0-0.7-0.2-0.7-0.8v-1.4H151V122.4z M150.5,125.4c0.3,0.6,0.7,1.2,1.1,1.6c0.5-0.4,0.9-1,1.2-1.6
					H150.5z"/>
				<path fill="#2368B5" d="M156.9,121.4c-0.2,0.6-0.4,1.1-0.7,1.7v5.8h-0.6v-4.7c-0.2,0.4-0.5,0.8-0.8,1.1
					c-0.1-0.1-0.3-0.4-0.4-0.6c0.7-0.8,1.4-2.1,1.8-3.4L156.9,121.4z M159.1,128c-0.5,0.4-1.4,0.7-2.1,0.9c-0.1-0.1-0.2-0.3-0.3-0.4
					c0.7-0.2,1.5-0.5,2-0.8L159.1,128z M158.6,122.1H157v-0.5h5.3v0.5h-1.8v0.5h1.5v1.6h-4.9v-1.6h1.4V122.1z M157.3,127.6v-3h4.6v3
					H157.3z M157.7,123.8h0.9V123h-0.9V123.8z M157.9,125.5h3.4V125h-3.4V125.5z M157.9,126.3h3.4v-0.5h-3.4V126.3z M157.9,127.2
					h3.4v-0.5h-3.4V127.2z M160,122.1h-0.9v0.5h0.9V122.1z M159.1,123.8h0.9V123h-0.9V123.8z M160.4,127.7c0.7,0.2,1.5,0.6,2,0.8
					l-0.5,0.4c-0.4-0.3-1.2-0.6-1.9-0.8L160.4,127.7z M160.6,123v0.8h0.9V123H160.6z"/>
				<path fill="#2368B5" d="M164.5,124.9c-0.3-0.3-0.9-0.7-1.5-0.9l0.3-0.5c0.5,0.2,1.2,0.6,1.5,0.9L164.5,124.9z M163.2,128.3
					c0.4-0.6,1-1.7,1.5-2.6l0.4,0.4c-0.4,0.9-1,1.8-1.4,2.6L163.2,128.3z M164.9,122.7c-0.3-0.3-0.9-0.7-1.4-1l0.3-0.5
					c0.5,0.2,1.2,0.6,1.5,0.9L164.9,122.7z M170.8,125.6h-0.7v1.3h-2v1.2c0,0.4-0.1,0.5-0.3,0.6c-0.3,0.1-0.7,0.1-1.3,0.1
					c0-0.2-0.1-0.4-0.2-0.6c0.5,0,0.9,0,1.1,0c0.1,0,0.2,0,0.2-0.2v-1.2h-1.9v-0.5h1.9v-0.8h-2.4V125h2.4v-0.7h-1.9v-0.5h4.4v1.3
					h0.7V125.6z M170.2,121.7c-1.2,0.3-3.1,0.6-4.6,0.7c0-0.1-0.1-0.4-0.2-0.5c1.5-0.1,3.3-0.4,4.3-0.6L170.2,121.7z M166.2,123.7
					c-0.1-0.3-0.2-0.7-0.4-1.1l0.4-0.2c0.2,0.3,0.4,0.7,0.5,1L166.2,123.7z M167.7,123.6c-0.1-0.3-0.2-0.8-0.4-1.2l0.5-0.1
					c0.2,0.4,0.4,0.8,0.4,1.1L167.7,123.6z M168.1,125h1.4v-0.7h-1.4V125z M169.6,125.6h-1.4v0.8h1.4V125.6z M168.9,123.4
					c0.2-0.3,0.5-0.9,0.7-1.3l0.6,0.2c-0.2,0.5-0.5,1-0.7,1.3L168.9,123.4z"/>
				<path fill="#2368B5" d="M174,121.4c-0.2,0.7-0.5,1.3-0.9,1.9v5.6h-0.6v-4.6c-0.2,0.3-0.5,0.6-0.7,0.9c-0.1-0.1-0.2-0.5-0.3-0.6
					c0.8-0.8,1.5-2.1,1.9-3.3L174,121.4z M179.2,128.1v0.5h-5.6v-0.5h0.8v-4.7h1.4c0.1-0.2,0.1-0.5,0.2-0.8h-2.1V122h2.1
					c0-0.3,0.1-0.6,0.1-0.9l0.7,0c-0.1,0.3-0.1,0.5-0.2,0.8h2.2v0.5h-2.4c-0.1,0.3-0.1,0.6-0.2,0.8h2.1v4.7H179.2z M174.9,123.8v0.7
					h2.9v-0.7H174.9z M177.9,125h-2.9v0.7h2.9V125z M174.9,126.9h2.9v-0.7h-2.9V126.9z M174.9,128.1h2.9v-0.7h-2.9V128.1z"/>
				<path fill="#2368B5" d="M183.6,127.1c0,0.2,0,0.4,0.1,0.6c-2.4,0.6-2.7,0.7-2.9,0.9c-0.1-0.2-0.2-0.4-0.3-0.5
					c0.1-0.1,0.3-0.3,0.3-0.6v-6.3h0.6v2.6h2.1v0.6h-2.1v3.3L183.6,127.1z M186.5,128.1c0.4,0,0.4-0.3,0.5-1.5
					c0.2,0.1,0.4,0.2,0.6,0.3c-0.1,1.4-0.3,1.8-1,1.8h-1.4c-0.8,0-1-0.2-1-1.2v-6.3h0.6v2.6h2.3v0.6h-2.3v3.1c0,0.5,0.1,0.5,0.5,0.5
					H186.5z"/>
				<path fill="#2368B5" d="M205.2,122v0.5h-7.3V122h3.4c-0.1-0.2-0.2-0.5-0.3-0.8l0.6-0.1c0.1,0.3,0.2,0.6,0.3,0.9H205.2z
					 M205,128.2c0,0.3-0.1,0.4-0.3,0.5c-0.2,0.1-0.6,0.1-1.1,0.1c0-0.1-0.1-0.3-0.2-0.5c0.4,0,0.7,0,0.8,0c0.1,0,0.1,0,0.1-0.1v-2.5
					h-5.5v3.1h-0.6v-3.6h6.7V128.2z M204,123.1v1.7h-4.9v-1.7H204z M203.3,127.9h-3v0.4h-0.6v-2.1h3.5V127.9z M203.4,123.5h-3.6v0.8
					h3.6V123.5z M200.3,126.7v0.8h2.4v-0.8H200.3z"/>
				<path fill="#2368B5" d="M209,128c0,0.3-0.1,0.5-0.3,0.6c-0.2,0.1-0.5,0.1-1,0.1c0-0.2-0.1-0.4-0.2-0.6c0.4,0,0.7,0,0.8,0
					c0.1,0,0.1-0.1,0.1-0.2v-2.3c-0.4,0.2-0.7,0.4-1,0.6l-0.2-0.5c-0.1,1-0.2,2.1-0.6,3c-0.1-0.1-0.4-0.2-0.5-0.3
					c0.6-1.2,0.6-2.8,0.6-4.1v-3h2.3V128z M207.3,124.5c0,0.4,0,0.8,0,1.3c0.3-0.1,0.8-0.3,1.2-0.6v-1l-0.3,0.3
					c-0.2-0.3-0.6-0.7-0.9-1V124.5z M207.3,122v1.3l0.3-0.2c0.3,0.3,0.7,0.7,0.9,0.9v-2H207.3z M213.5,125c-0.3,1-0.8,1.8-1.5,2.5
					c0.5,0.4,1.1,0.7,1.8,0.8c-0.2,0.1-0.3,0.4-0.4,0.5c-0.7-0.2-1.4-0.6-1.9-1c-0.6,0.4-1.3,0.8-2,1c-0.1-0.2-0.2-0.4-0.3-0.5
					c0.7-0.2,1.3-0.5,1.9-0.9c-0.5-0.5-1-1.2-1.3-1.9l0.1,0h-0.4v-0.6h3.5l0.1,0L213.5,125z M210.9,122.4c0,0.7-0.2,1.6-1.2,2.2
					c-0.1-0.1-0.3-0.3-0.4-0.4c0.9-0.5,1.1-1.2,1.1-1.8v-0.9h2.6v2c0,0.2,0,0.3,0.1,0.3h0.5c0.1,0,0.3,0,0.4,0c0,0.2,0,0.4,0.1,0.5
					c-0.1,0-0.3,0-0.4,0h-0.5c-0.6,0-0.7-0.2-0.7-0.8v-1.4h-1.4V122.4z M210.4,125.4c0.3,0.6,0.7,1.2,1.1,1.6c0.5-0.4,0.9-1,1.2-1.6
					H210.4z"/>
				<path fill="#2368B5" d="M217,123.7h1.7v0.6H217v0.2c0.4,0.4,1.4,1.3,1.6,1.6l-0.4,0.5c-0.3-0.3-0.8-0.9-1.3-1.4v3.6h-0.6v-3.6
					c-0.4,1-1,1.9-1.6,2.5c-0.1-0.2-0.2-0.4-0.3-0.6c0.7-0.6,1.4-1.8,1.8-2.8h-1.6v-0.6h1.8v-1.4c-0.5,0.1-1.1,0.2-1.6,0.3
					c0-0.2-0.1-0.4-0.2-0.5c1.2-0.2,2.7-0.5,3.5-0.8l0.5,0.5c-0.4,0.2-0.9,0.3-1.5,0.4V123.7z M220,126.8h-0.6v-4.6h0.6V126.8z
					 M221.8,121.3v6.7c0,0.4-0.1,0.6-0.4,0.7c-0.3,0.1-0.7,0.1-1.5,0.1c0-0.2-0.1-0.5-0.2-0.6c0.6,0,1.1,0,1.3,0
					c0.2,0,0.2-0.1,0.2-0.2v-6.7H221.8z"/>
			</g>
			<rect x="89" y="118.9" fill="none" stroke="#0C56AB" stroke-miterlimit="10" width="39.3" height="12.4"/>
			<rect x="135.2" y="118.9" fill="none" stroke="#0C56AB" stroke-miterlimit="10" width="55.5" height="12.4"/>
			<rect x="195.4" y="118.9" fill="none" stroke="#0C56AB" stroke-miterlimit="10" width="28.7" height="12.4"/>
		</g>
	</g>
</g>
<g>
</g>
<g>
</g>
<g>
</g>
<g>
</g>
<g>
</g>
<g>
</g>
<g>
</g>
<g>
</g>
<g>
</g>
<g>
</g>
<g>
</g>
<g>
</g>
<g>
</g>
<g>
</g>
<g>
</g>
</svg>
