<?xml version="1.0" encoding="utf-8"?>
<!-- Generator: Adobe Illustrator 18.0.0, SVG Export Plug-In . SVG Version: 6.00 Build 0)  -->
<!DOCTYPE svg PUBLIC "-//W3C//DTD SVG 1.1//EN" "http://www.w3.org/Graphics/SVG/1.1/DTD/svg11.dtd">
<svg version="1.1" id="Layer_1" xmlns="http://www.w3.org/2000/svg" xmlns:xlink="http://www.w3.org/1999/xlink" x="0px" y="0px"
	 viewBox="0 0 192.2 193.4" enable-background="new 0 0 192.2 193.4" xml:space="preserve">
<g>
	<g>
		<circle fill="#032360" cx="125.1" cy="67.1" r="67.1"/>
		<g>
			
				<rect x="83.1" y="37.9" transform="matrix(0.8481 -0.5298 0.5298 0.8481 -15.2326 77.3008)" fill="#E6E7E8" stroke="#0C56AB" stroke-width="3" stroke-miterlimit="10" width="88.2" height="54.7"/>
			<g>
				<defs>
					
						<rect id="SVGID_1_" x="87.4" y="42.5" transform="matrix(0.8481 -0.5298 0.5298 0.8481 -15.3157 77.3035)" width="79.5" height="45.7"/>
				</defs>
				<clipPath id="SVGID_2_">
					<use xlink:href="#SVGID_1_"  overflow="visible"/>
				</clipPath>
				<g clip-path="url(#SVGID_2_)">
					
						<rect x="87.5" y="42.4" transform="matrix(0.8481 -0.5298 0.5298 0.8481 -15.2326 77.3008)" fill="#0C56AB" width="79.5" height="45.7"/>
					<g>
						<circle fill="#E6E7E8" cx="127.2" cy="65.2" r="15.3"/>
						<circle fill="#E6E7E8" cx="103.5" cy="81.4" r="3.1"/>
						<circle fill="#E6E7E8" cx="152.1" cy="51" r="3.1"/>
					</g>
					<g>
						<path fill="#0C56AB" d="M120.9,54.6c0.7-0.4,1.6-0.2,2,0.5l0.2,0.3c1.4-0.6,2.8-1,4.2-1c0.6,0,1.3,0.2,1.8,0.9
							c0.6,0.9,0.3,2.1-0.6,2.6c-0.3,0.2-0.6,0.3-1,0.3c-0.9,0.1-1.8,0.2-2.5,0.4l2.3,3.7c4.3-1.3,6.8-0.8,8.5,1.9
							c1.7,2.7,0.7,5.7-2.1,8l0.8,1.3c0.4,0.7,0.2,1.6-0.5,2c-0.7,0.4-1.6,0.2-2-0.5l-0.8-1.3c-1.9,0.9-3.8,1.3-5.8,1.3
							c-0.7,0-1.3-0.3-1.7-0.9c-0.6-0.9-0.3-2.1,0.6-2.7c0.3-0.2,0.7-0.3,1.1-0.3c1.4,0,2.7-0.1,3.9-0.6l-2.4-3.8
							c-4.1,1.2-6.6,1-8.4-1.9c-1.7-2.7-0.7-5.7,2.1-7.9l-0.2-0.3C120,55.9,120.2,55,120.9,54.6z M124.7,63.1l-2-3.3
							c-1.1,0.9-1.2,1.8-0.7,2.6C122.4,63.2,123,63.5,124.7,63.1z M129.6,65.9l2.1,3.4c1-0.9,1.3-1.8,0.7-2.6
							C131.9,65.9,131.2,65.6,129.6,65.9z"/>
					</g>
					<circle fill="#E6E7E8" cx="81.4" cy="66.9" r="5.6"/>
					<circle fill="#E6E7E8" cx="148.7" cy="24.9" r="5.6"/>
					<circle fill="#E6E7E8" cx="105.6" cy="105.7" r="5.6"/>
					<circle fill="#E6E7E8" cx="172.9" cy="63.7" r="5.6"/>
				</g>
			</g>
		</g>
		<g>
			<path fill="#0C56AB" d="M175.3,87.2l-90.7,9.8l-6.2-57.7l90.7-9.8L175.3,87.2z M87.9,92.8l83.2-9l-5.4-50.2l-83.2,9L87.9,92.8z"
				/>
			<g>
				
					<rect x="83.1" y="36.1" transform="matrix(0.9943 -0.107 0.107 0.9943 -6.0326 13.9325)" fill="#E6E7E8" width="87.5" height="54.3"/>
			</g>
			<g>
				<defs>
					
						<rect id="SVGID_3_" x="87.3" y="40.6" transform="matrix(0.9943 -0.107 0.107 0.9943 -6.0455 13.9229)" width="78.9" height="45.4"/>
				</defs>
				<clipPath id="SVGID_4_">
					<use xlink:href="#SVGID_3_"  overflow="visible"/>
				</clipPath>
				
					<rect x="87.4" y="40.5" transform="matrix(0.9943 -0.107 0.107 0.9943 -6.0326 13.9325)" clip-path="url(#SVGID_4_)" fill="#E6E7E8" width="78.9" height="45.4"/>
				<circle clip-path="url(#SVGID_4_)" fill="#0C56AB" cx="85.2" cy="44.9" r="5.5"/>
				<circle clip-path="url(#SVGID_4_)" fill="#0C56AB" cx="163.5" cy="36.4" r="5.5"/>
				<circle clip-path="url(#SVGID_4_)" fill="#0C56AB" cx="90.1" cy="90" r="5.5"/>
				<circle clip-path="url(#SVGID_4_)" fill="#0C56AB" cx="168.3" cy="81.6" r="5.5"/>
				<use xlink:href="#SVGID_3_"  overflow="visible" fill="none" stroke="#0C56AB" stroke-width="4" stroke-miterlimit="10"/>
			</g>
			<g>
				<circle fill="#0C56AB" cx="159.2" cy="60.9" r="2.1"/>
				<circle fill="#0C56AB" cx="94.7" cy="67.8" r="2.1"/>
			</g>
			<g>
				<polygon fill="#0C56AB" points="165.3,99.7 162.2,97.3 158.6,99.2 159.6,85.5 166.3,86 				"/>
				<polygon fill="#0C56AB" points="169.1,99.3 171.6,96.3 175.5,97.4 171.6,84.2 165.2,86.1 				"/>
				<circle fill="#0C56AB" cx="164.9" cy="80.8" r="8"/>
				<polygon fill="#E6E7E8" points="164.6,76.6 166.3,74.2 166.9,77.1 169.8,76.1 168.5,78.8 171.4,79.7 168.8,81.2 170.6,83.6 
					167.6,83.3 167.6,86.3 165.4,84.2 163.7,86.7 163.1,83.7 160.3,84.7 161.5,82 158.7,81.1 161.3,79.6 159.5,77.2 162.4,77.6 
					162.4,74.6 				"/>
			</g>
			<line fill="none" stroke="#0C56AB" stroke-linecap="round" stroke-miterlimit="10" x1="99.4" y1="47.4" x2="150.3" y2="42"/>
			<line fill="none" stroke="#0C56AB" stroke-linecap="round" stroke-miterlimit="10" x1="99.8" y1="51.4" x2="150.7" y2="45.9"/>
			<line fill="none" stroke="#0C56AB" stroke-linecap="round" stroke-miterlimit="10" x1="100.3" y1="55.4" x2="151.2" y2="49.9"/>
			<line fill="none" stroke="#0C56AB" stroke-linecap="round" stroke-miterlimit="10" x1="111.3" y1="58.2" x2="151.6" y2="53.8"/>
			<line fill="none" stroke="#0C56AB" stroke-linecap="round" stroke-miterlimit="10" x1="111.7" y1="62.1" x2="152" y2="57.8"/>
			<line fill="none" stroke="#0C56AB" stroke-linecap="round" stroke-miterlimit="10" x1="112.1" y1="66.1" x2="152.4" y2="61.7"/>
			<line fill="none" stroke="#0C56AB" stroke-linecap="round" stroke-miterlimit="10" x1="112.5" y1="70" x2="152.9" y2="65.7"/>
			<line fill="none" stroke="#0C56AB" stroke-linecap="round" stroke-miterlimit="10" x1="113" y1="74" x2="153.3" y2="69.6"/>
			<line fill="none" stroke="#0C56AB" stroke-linecap="round" stroke-miterlimit="10" x1="102.8" y1="79.1" x2="153.7" y2="73.6"/>
			<line fill="none" stroke="#0C56AB" stroke-linecap="round" stroke-miterlimit="10" x1="103.3" y1="83" x2="154.1" y2="77.5"/>
		</g>
	</g>
	<g>
		<polygon fill="#032360" points="22.7,89 58.1,73.1 58.2,77.4 46.1,85.4 		"/>
		<g>
			<polygon fill="#E6E7E8" points="42.3,81.6 42.3,84.9 37.4,95.8 34.7,92.8 32.2,95.1 23.5,88.1 33.8,79.9 			"/>
			<path fill="#032360" d="M29.8,82.8c0.3-1.6,2.1-4.9,6.2-4.4s6.5,2.9,8.1,2.6c0,0-1.6,1.6-4.9,0.8s-6.9,1.2-6.8,1.6L29.8,82.8z"/>
			<polygon fill="#E6E7E8" points="41,87.4 40.8,91 39.1,90.5 			"/>
			<path fill="#E6E7E8" d="M32.4,83.6c-0.1-0.8-1-1.1-1.5-0.7c-0.5,0.5-1,1.8-0.4,2c0.6,0.2,1,0,1,0"/>
		</g>
		<path fill="#032360" d="M60.2,78.4c0,0-27.9,7.7-38.3,9.9c-22.9,8.1-26.1,39.2-17.6,55l32.9-14.7c-6.9-0.9-18-22.8-3.8-32.9
			c13.4-6.9,26.8-12.4,26.8-12.4V78.4z"/>
		<path fill="#032360" d="M4.3,143.3c0,0,2.6,5.6,12,6.2c7.8,0.5,19.2-1.9,25-2.8c3.2-0.5,5.9,2.3,5.3,5.5L41,176.7l4-1.2l7.9-30.7
			c0.9-3.8-1.1-7.8-4.8-9.1l-14.7-5.5C33.4,130.2,2.2,144.3,4.3,143.3z"/>
		<path fill="#032360" d="M25.6,149.1c-0.2,2.2-4.5,28.8-11.4,38.3l-4.5,1.3c0,0,12.1-34.9,4.4-41.1l10.2-3.2L25.6,149.1z"/>
		<path fill="#231F20" d="M41.2,177.2l-0.4,2.9l8.1-3.7c0,0-2.2-0.2-3.2-0.2s-1,0.5-1,0.5L41.2,177.2z"/>
		<path fill="#231F20" d="M9.7,189.4l-0.3,1.5l0.3,0.1l0.4,1.7l3,0.8l3.9-1.9c0,0-0.4-0.7-1.5-0.7s-1.3-0.2-1.3-0.2s-0.6,1-2.5,0.5
			c-0.9-0.2-1.6-1.5-1.4-1.8L9.7,189.4z"/>
		<path fill="#231F20" d="M31.9,97.7c0,0,4,11.3,7.7,12.2l0.1,4.5c0,0-3.2-1.2-5.3-2.2c-1.8-3.9-3.3-13.5-3-14L31.9,97.7z"/>
		<g>
			<polygon fill="#E6E7E8" points="60.2,83.4 62,82.6 66.7,72 62.6,72.6 60.2,78.4 			"/>
			<polyline fill="#E6E7E8" points="62.6,72.6 63.9,70 67.4,69.7 66.7,72 			"/>
			<polygon fill="#E6E7E8" points="67.4,69.7 68.2,67.7 67.8,67.6 66.3,69.9 			"/>
			<polygon fill="#E6E7E8" points="65.1,69.9 67.1,66.4 69.2,64.4 69.4,65.2 67.6,67.2 66.3,69.9 			"/>
			<polygon fill="#E6E7E8" points="64.6,69.9 66.2,66 68.3,64.5 68.4,65.4 67.1,66.4 65.5,69.9 			"/>
			<polygon fill="#E6E7E8" points="63.9,70 65.6,65.9 67.5,65.1 67.5,65.6 66,66.6 64.8,70 			"/>
			<polygon fill="#E6E7E8" points="67.8,67.6 69,66.5 69.2,66.6 68.2,67.7 67.9,67.8 			"/>
		</g>
		<g>
			<path fill="#0C56AB" d="M23.5,88.1c3-1,6.1-1.9,9.1-2.8c3-0.9,6.1-1.7,9.2-2.5c3.1-0.8,6.1-1.6,9.2-2.4c3.1-0.7,6.2-1.5,9.3-2.1
				l0.2,0l0,0.2c0,1-0.1,2-0.2,3c-0.1-1-0.1-2-0.1-3l0.2,0.1c-3,1-6.1,1.8-9.1,2.7c-3.1,0.9-6.1,1.7-9.2,2.5
				c-3.1,0.8-6.1,1.6-9.2,2.3C29.7,86.8,26.6,87.5,23.5,88.1z"/>
		</g>
		<g>
			<path fill="#0C56AB" d="M4.3,143.3c0.9,1.2,1.9,2.2,3.1,3c1.2,0.8,2.5,1.4,3.9,1.9c1.4,0.4,2.8,0.7,4.2,0.8
				c1.4,0.1,2.9,0.1,4.3,0c2.9-0.1,5.8-0.4,8.8-0.7c1.5-0.1,2.9-0.3,4.4-0.4c1.5-0.1,2.9-0.3,4.4-0.5c-2.9,0.7-5.8,1.2-8.7,1.7
				c-2.9,0.4-5.9,0.7-8.8,0.9c-1.5,0.1-3,0.1-4.5,0c-1.5-0.2-3-0.5-4.4-1.1c-1.4-0.5-2.7-1.3-3.9-2.2C6,145.8,5,144.6,4.3,143.3z"/>
		</g>
	</g>
</g>
<g>
</g>
<g>
</g>
<g>
</g>
<g>
</g>
<g>
</g>
<g>
</g>
<g>
</g>
<g>
</g>
<g>
</g>
<g>
</g>
<g>
</g>
<g>
</g>
<g>
</g>
<g>
</g>
<g>
</g>
</svg>
