<?xml version="1.0" encoding="utf-8"?>
<!-- Generator: Adobe Illustrator 18.0.0, SVG Export Plug-In . SVG Version: 6.00 Build 0)  -->
<!DOCTYPE svg PUBLIC "-//W3C//DTD SVG 1.1//EN" "http://www.w3.org/Graphics/SVG/1.1/DTD/svg11.dtd">
<svg version="1.1" id="Layer_1" xmlns="http://www.w3.org/2000/svg" xmlns:xlink="http://www.w3.org/1999/xlink" x="0px" y="0px"
	 viewBox="0 0 150.9 141.9" enable-background="new 0 0 150.9 141.9" xml:space="preserve">
<g>
	<g>
		<path fill="#2368B5" d="M123.2,102.2c-1.4-2.6-4.2-4.1-7.1-4.1c-1.4,0-2.8,0.4-4,1l-23.7,13.3c-0.3,0.2-0.5,0.5-0.6,0.8
			c-0.4,1.7-1.4,4-3.7,5.7c-2.5,1.8-5.9,2.2-10.1,1.1c0,0,0,0-0.1,0l-13.7-4.2c-0.8-0.3-1.3-1.1-1-2c0.2-0.7,0.8-1.1,1.5-1.1
			c0.2,0,0.3,0,0.5,0.1l13.6,4.2c0,0,0,0,0.1,0c3.2,0.8,5.7,0.6,7.4-0.7c2.2-1.6,2.6-4.3,2.6-4.7c0,0,0,0,0,0c0,0,0,0,0,0l0,0l0,0
			c0.3-3.4-1.9-6.5-5.2-7.4l-0.1,0c-0.1,0-10.1-3.3-16.5-5.1c-0.7-0.2-2.7-0.7-5.5-0.7c-4,0-9.9,0.9-15.5,5.4l-23.5,19
			c-0.5,0.4-0.6,1.2-0.2,1.8l12.7,16.8c0.2,0.3,0.5,0.5,0.9,0.5c0.1,0,0.1,0,0.2,0c0.3,0,0.6-0.1,0.8-0.3L49.3,129
			c0.4-0.3,0.9-0.4,1.3-0.3l26.5,6.3c2,0.5,4.1,0.2,5.8-0.8l37.1-20.9C124,111,125.4,106.1,123.2,102.2z"/>
		<g>
			<g>
				<circle fill="#2368B5" cx="121.9" cy="59.8" r="28.9"/>
			</g>
			<path fill="#FFFFFF" d="M106.9,61.9c-1.5,0-3,0-4.5,0c-0.8,0-1.1-0.2-1.1-1c0-0.4,0-0.7,0-1.1c0-0.6,0.3-0.8,0.8-0.8
				c1.2,0,2.5,0,3.7,0c0.1,0,0.1,0,0.2,0c-0.3-1-0.5-2-0.8-3c-1,0-2,0-3,0c-0.9,0-1.1-0.2-1.1-1.1c0-0.3,0-0.7,0-1
				c0-0.7,0.2-0.9,0.9-0.9c0.8,0,1.6,0,2.4,0c-0.4-1.4-0.7-2.8-1.1-4.2c-0.3-1.2-0.6-2.4-0.9-3.7c-0.2-0.7,0.1-1.1,0.8-1.1
				c1,0,2,0,2.9,0c0.5,0,0.7,0.2,0.8,0.7c0.6,2.6,1.3,5.2,2,7.8c0,0.1,0.1,0.3,0.1,0.5c0.1,0,0.3,0,0.4,0c2.5,0,5,0,7.6,0
				c0.3,0,0.4-0.1,0.5-0.4c0.7-2.6,1.4-5.1,2.1-7.6c0.2-0.8,0.3-0.9,1.2-0.9c0.8,0,1.6,0,2.3,0c0.7,0,0.8,0.1,1,0.8
				c0.7,2.5,1.4,5.1,2.1,7.6c0.1,0.4,0.3,0.6,0.7,0.6c2.5,0,4.9,0,7.4,0c0.2,0,0.3,0,0.5,0c0.3-1.2,0.6-2.4,0.9-3.6
				c0.4-1.5,0.8-3.1,1.2-4.6c0.1-0.6,0.3-0.7,0.9-0.7c1,0,2,0,2.9,0c0.7,0,1,0.4,0.8,1.1c-0.6,2.5-1.3,4.9-1.9,7.4
				c0,0.1-0.1,0.3-0.1,0.5c0.8,0,1.5,0,2.2,0c1,0,1.1,0.2,1.1,1.1c0,0.3,0,0.7,0,1c0,0.6-0.3,0.9-0.9,0.9c-1,0-1.9,0-2.9,0
				c-0.3,0-0.4,0.1-0.5,0.4c-0.2,0.9-0.4,1.7-0.7,2.6c0.4,0,0.8,0,1.2,0c0.9,0,1.9,0,2.8,0c0.7,0,0.9,0.2,0.9,0.9c0,0.4,0,0.8,0,1.2
				c0,0.6-0.3,0.9-0.9,0.9c-1.4,0-2.9,0-4.3,0c-0.4,0-0.6,0.1-0.7,0.5c-1.2,4.5-2.4,9-3.6,13.5c-0.2,0.9-0.3,1-1.3,1c-1,0-2,0-3,0
				c-0.7,0-0.8-0.1-1-0.8c-1.2-4.6-2.5-9.2-3.7-13.8c0-0.1-0.1-0.2-0.1-0.4c-0.1,0-0.3,0-0.4,0c-1.3,0-2.6,0-3.9,0
				c-0.4,0-0.5,0.1-0.6,0.5c-1,3.6-1.9,7.2-2.9,10.8c-0.3,1-0.5,2-0.8,3c-0.2,0.6-0.3,0.7-0.9,0.7c-1.1,0-2.1,0-3.2,0
				c-0.8,0-1-0.1-1.2-0.9c-1.2-4.6-2.4-9.1-3.5-13.7C107,62.2,106.9,62.1,106.9,61.9z M128.2,58.9c1.8,0,3.6,0,5.4,0
				c0.3-1,0.5-2,0.8-2.9c-2.3,0-4.6,0-6.9,0C127.7,57,127.9,57.9,128.2,58.9z M116,58.9c0.3-1,0.5-2,0.8-2.9c-2.3,0-4.5,0-6.8,0
				c0.3,1,0.5,2,0.7,2.9C112.5,58.9,114.3,58.9,116,58.9z M130.9,69c0.6-2.4,1.2-4.8,1.8-7.1c-1.3,0-2.5,0-3.8,0
				C129.6,64.3,130.3,66.6,130.9,69z M115.2,62c-1.3,0-2.5,0-3.7,0c0.6,2.3,1.2,4.6,1.7,6.9c0,0,0.1,0,0.1,0
				C113.9,66.6,114.6,64.3,115.2,62z M120.5,58.9c1.1,0,2.1,0,3.2,0c-0.3-1-0.5-2-0.8-2.9c-0.6,0-1.1,0-1.6,0
				C121,56.9,120.8,57.9,120.5,58.9z"/>
		</g>
		<g>
			<path fill="#2368B5" d="M29.5,93.8c0,0,4.2-19.9,37-19.9V56C66.5,56,29.5,59.4,29.5,93.8z"/>
			<path fill="#2368B5" d="M84.1,63.5c-0.7-0.2-19.3,20-19.3,20V46.7L84.1,63.5z"/>
		</g>
	</g>
	<g>
		<circle fill="#F6A822" cx="30" cy="30" r="30"/>
		<g>
			<path fill="#032360" d="M13.9,47.6v-23H5.8v-4.3c4.8-0.1,8.1-2.8,8.9-6.3H20v33.6H13.9z"/>
			<path fill="#032360" d="M29.6,18.7c2.2-3.3,5.7-5.5,10.7-5.5s8.5,2.2,10.7,5.5c2.3,3.4,3,7.6,3,12.1s-0.7,8.7-3,12.1
				c-2.2,3.3-5.7,5.5-10.7,5.5s-8.6-2.2-10.7-5.5c-2.3-3.4-3-7.6-3-12.1S27.3,22.2,29.6,18.7z M35.1,40.4c1.1,1.5,2.7,2.5,5.2,2.5
				c2.4,0,4-1,5.2-2.5c1.6-2.1,2.3-5.3,2.3-9.6c0-4.3-0.7-7.5-2.3-9.6c-1.2-1.5-2.7-2.5-5.2-2.5c-2.4,0-4,1-5.2,2.5
				c-1.7,2.1-2.4,5.3-2.4,9.6C32.7,35.1,33.5,38.3,35.1,40.4z"/>
		</g>
	</g>
</g>
<g>
</g>
<g>
</g>
<g>
</g>
<g>
</g>
<g>
</g>
<g>
</g>
<g>
</g>
<g>
</g>
<g>
</g>
<g>
</g>
<g>
</g>
<g>
</g>
<g>
</g>
<g>
</g>
<g>
</g>
</svg>
