<?xml version="1.0" encoding="utf-8"?>
<!-- Generator: Adobe Illustrator 18.0.0, SVG Export Plug-In . SVG Version: 6.00 Build 0)  -->
<!DOCTYPE svg PUBLIC "-//W3C//DTD SVG 1.1//EN" "http://www.w3.org/Graphics/SVG/1.1/DTD/svg11.dtd">
<svg version="1.1" id="Layer_1" xmlns="http://www.w3.org/2000/svg" xmlns:xlink="http://www.w3.org/1999/xlink" x="0px" y="0px"
	 viewBox="0 0 66.7 63.5" enable-background="new 0 0 66.7 63.5" xml:space="preserve">
<g>
	<g>
		<g>
			<g>
				<path fill="#0C56AB" d="M1.2,58.5c0.4,0.2,1,0.4,1.6,0.4c1.9,0,2.9-1.2,3-2.9c-0.3,0.6-1.1,1.1-2.2,1.1C2,57.1,0.5,56,0.5,54
					c0-1.9,1.5-3.2,3.4-3.2c1.9,0,3.6,1.4,3.6,4.3c0,3.3-1.6,5.3-4.7,5.3c-0.7,0-1.6-0.2-2.1-0.5L1.2,58.5z M3.9,52.3
					c-0.9,0-1.7,0.7-1.7,1.7c0,1.1,0.8,1.7,1.7,1.7c0.9,0,1.7-0.7,1.7-1.7C5.7,53,4.8,52.3,3.9,52.3z"/>
			</g>
		</g>
	</g>
	<g>
		<g>
			<g>
				<g>
					<defs>
						<circle id="SVGID_1_" cx="23.5" cy="32.9" r="12.4"/>
					</defs>
					<clipPath id="SVGID_2_">
						<use xlink:href="#SVGID_1_"  overflow="visible"/>
					</clipPath>
					<circle clip-path="url(#SVGID_2_)" fill="#FFFFFF" cx="23.5" cy="32.9" r="12.7"/>
					<path clip-path="url(#SVGID_2_)" fill="#2368B5" d="M24.1,20.4c0.4,0,0.8,0.1,1.2,0.1c2.5,0.4,4.8,1.4,6.7,3.2
						c2,1.8,3.2,4,3.8,6.7c0.2,0.8,0.2,1.7,0.3,2.5c-8.4,0-16.7,0-25.1,0c0-0.5,0.1-1.1,0.1-1.6c0.4-2.7,1.5-5.1,3.5-7.1
						c1.9-1.9,4.1-3.1,6.8-3.5c0.4-0.1,0.9-0.1,1.3-0.2c0.1,0,0.1,0,0.2,0C23.2,20.4,23.6,20.4,24.1,20.4z M21.5,23.2
						c-1.4-0.4-3.2,0.4-4,1.7c-0.9,1.4-0.7,3.3,0.3,4.5c1,1.2,2.6,1.5,3.6,1.2c-1.8-0.6-2.8-1.7-2.9-3.6
						C18.5,25.1,19.6,23.9,21.5,23.2z M21.3,26.7c0.2,0.2,0.4,0.3,0.7,0.5c-0.1-0.2-0.1-0.4-0.2-0.6c-0.1-0.2-0.1-0.3,0.1-0.4
						c0.2-0.1,0.3-0.2,0.4-0.3c0,0,0,0,0-0.1c-0.2,0-0.4,0-0.6,0c-0.2,0-0.3,0-0.3-0.2c0-0.2-0.1-0.4-0.2-0.6
						c-0.1,0.2-0.1,0.4-0.2,0.6c0,0.2-0.1,0.3-0.4,0.3c-0.2,0-0.3,0-0.5,0c0.1,0.1,0.2,0.2,0.3,0.3c0.4,0.3,0.3,0.2,0.2,0.6
						c0,0.1-0.1,0.3-0.1,0.4c0,0,0,0,0,0C20.9,27,21.1,26.9,21.3,26.7z M24.5,25.9C24.5,25.9,24.5,25.9,24.5,25.9
						c0.1,0.2,0.3,0.3,0.5,0.4c0.1,0,0.1,0.2,0.1,0.2c0,0.2-0.1,0.4-0.2,0.7c0.2-0.2,0.4-0.3,0.6-0.4c0.1-0.1,0.2-0.1,0.3,0
						c0.2,0.1,0.3,0.2,0.5,0.4c0-0.2-0.1-0.4-0.1-0.6c-0.1-0.1,0-0.2,0.1-0.3c0.2-0.1,0.3-0.2,0.5-0.4c-0.2-0.1-0.4-0.1-0.6-0.1
						c-0.1,0-0.2,0-0.2-0.2c-0.1-0.2-0.1-0.4-0.2-0.7c-0.1,0.3-0.2,0.5-0.2,0.7c0,0.1-0.1,0.2-0.2,0.2
						C24.9,25.9,24.7,25.9,24.5,25.9z M23.5,23.5C23.4,23.5,23.4,23.5,23.5,23.5c-0.1,0.2-0.2,0.3-0.2,0.5c0,0.2-0.1,0.2-0.3,0.2
						c-0.2,0-0.4,0-0.6,0c0.1,0.2,0.3,0.3,0.5,0.4c0.2,0.1,0.2,0.2,0.1,0.3c-0.1,0.2-0.1,0.4-0.2,0.6c0.2-0.1,0.3-0.2,0.4-0.3
						c0.4-0.3,0.3-0.3,0.7,0c0.1,0.1,0.2,0.1,0.3,0.2c0-0.2,0-0.3-0.1-0.5c-0.1-0.2-0.1-0.4,0.2-0.5c0.1-0.1,0.2-0.2,0.4-0.3
						c-0.2,0-0.4-0.1-0.6,0c-0.2,0-0.2,0-0.3-0.2C23.6,23.9,23.5,23.7,23.5,23.5z M21.1,28.3C21.1,28.3,21.1,28.4,21.1,28.3
						c0.1,0.1,0.2,0.2,0.3,0.3c0.3,0.2,0.3,0.2,0.2,0.6c0,0.1-0.1,0.3-0.1,0.4c0,0,0,0,0,0c0.2-0.2,0.4-0.3,0.7-0.5
						c0.2,0.2,0.4,0.3,0.6,0.5c0-0.2-0.1-0.4-0.1-0.6c-0.1-0.1,0-0.2,0.1-0.3c0.2-0.1,0.3-0.2,0.5-0.3c0,0,0,0,0-0.1
						c-0.2,0-0.4,0-0.6,0c-0.2,0-0.2,0-0.3-0.2c0-0.2-0.1-0.4-0.2-0.6C22.1,27.7,22,27.9,22,28c0,0.3-0.2,0.4-0.4,0.3
						C21.4,28.3,21.2,28.3,21.1,28.3z M24.8,27.6C24.7,27.6,24.7,27.6,24.8,27.6c-0.1,0.2-0.2,0.4-0.2,0.5c0,0.2-0.1,0.2-0.3,0.2
						c-0.2,0-0.4,0-0.6,0c0.1,0.2,0.3,0.3,0.4,0.4c0.1,0.1,0.2,0.2,0.1,0.3c-0.1,0.2-0.1,0.4-0.2,0.5c0,0,0,0,0,0
						c0.2-0.1,0.4-0.3,0.6-0.5c0.2,0.2,0.4,0.3,0.7,0.5c-0.1-0.2-0.1-0.4-0.2-0.6c-0.1-0.2-0.1-0.3,0.1-0.4c0.2-0.1,0.3-0.2,0.4-0.3
						c0,0,0,0,0-0.1c-0.1,0-0.2,0-0.4,0c-0.5,0-0.4,0.1-0.6-0.4C24.8,27.8,24.8,27.7,24.8,27.6z"/>
				</g>
				<g>
					<g>
						<path fill="#0C56AB" d="M23.5,20.5c6.8,0,12.4,5.6,12.4,12.4c0,6.8-5.6,12.4-12.4,12.4c-6.8,0-12.4-5.6-12.4-12.4
							C11.1,26,16.6,20.5,23.5,20.5 M23.5,19.4C16,19.4,10,25.4,10,32.9S16,46.4,23.5,46.4c7.4,0,13.5-6.1,13.5-13.5
							S30.9,19.4,23.5,19.4L23.5,19.4z"/>
					</g>
				</g>
			</g>
			<g>
				<defs>
					<circle id="SVGID_3_" cx="46.3" cy="20.4" r="20.4"/>
				</defs>
				<use xlink:href="#SVGID_3_"  overflow="visible" fill="#2368B5"/>
				<clipPath id="SVGID_4_">
					<use xlink:href="#SVGID_3_"  overflow="visible"/>
				</clipPath>
				<circle clip-path="url(#SVGID_4_)" fill="#FFFFFF" cx="46.3" cy="20.4" r="19"/>
				<path clip-path="url(#SVGID_4_)" fill="#2368B5" d="M65,24.6H27.6c-0.3-1.3-0.4-2.6-0.4-4h19.1h19.1C65.4,22,65.3,23.3,65,24.6
					 M31.5,32.7c-1-1.2-1.9-2.6-2.5-4h34.7c-0.7,1.5-1.5,2.8-2.5,4H31.5 M46.3,12.5h17.4c0.6,1.3,1.1,2.6,1.4,4H46.3V12.5
					 M44.1,13.4L42.9,13l0.7,1.1l-0.9-0.9l0.1,1.3l-0.4-1.2l-0.4,1.2l0.1-1.3L41,14.1l0.7-1.1l-1.2,0.4l1.1-0.7l-1.3-0.2l1.3-0.2
					l-1.1-0.7l1.2,0.4L41,10.9l0.9,0.9l-0.1-1.3l0.4,1.2l0.4-1.2l-0.1,1.3l0.9-0.9L42.9,12l1.2-0.4L43,12.3l1.3,0.2L43,12.7
					L44.1,13.4 M38.1,16.3c0.8,0,1.5-0.2,2.1-0.7c-0.8,1-2.1,1.6-3.5,1.6c-2.5,0-4.6-2.1-4.6-4.7c0-2.6,2.1-4.7,4.6-4.7
					c1.4,0,2.6,0.6,3.5,1.6c-0.6-0.4-1.3-0.7-2.1-0.7c-2,0-3.7,1.7-3.7,3.8C34.5,14.6,36.1,16.3,38.1,16.3 M61.1,8.5H46.3v-4h10.3
					C58.3,5.5,59.8,6.9,61.1,8.5 M36,36.7h20.6c-3,1.9-6.5,3-10.3,3C42.5,39.7,39,38.6,36,36.7"/>
				<circle clip-path="url(#SVGID_4_)" fill="none" cx="46.3" cy="20.4" r="19.3"/>
			</g>
		</g>
	</g>
</g>
<g>
</g>
<g>
</g>
<g>
</g>
<g>
</g>
<g>
</g>
<g>
</g>
<g>
</g>
<g>
</g>
<g>
</g>
<g>
</g>
<g>
</g>
<g>
</g>
<g>
</g>
<g>
</g>
<g>
</g>
</svg>
