<?xml version="1.0" encoding="utf-8"?>
<!-- Generator: Adobe Illustrator 18.0.0, SVG Export Plug-In . SVG Version: 6.00 Build 0)  -->
<!DOCTYPE svg PUBLIC "-//W3C//DTD SVG 1.1//EN" "http://www.w3.org/Graphics/SVG/1.1/DTD/svg11.dtd">
<svg version="1.1" id="Layer_1" xmlns="http://www.w3.org/2000/svg" xmlns:xlink="http://www.w3.org/1999/xlink" x="0px" y="0px"
	 viewBox="0 0 130.6 143.5" enable-background="new 0 0 130.6 143.5" xml:space="preserve">
<g>
	<g>
		<g>
			<g>
				<path fill="#FFFFFF" d="M62.1,67.5c0.3-0.1,0.5-0.4,0.8-0.4c0.3,0,0.5,0.3,0.8,0.4c-0.1-0.3-0.2-0.6-0.1-0.8
					c0.1-0.2,0.3-0.4,0.6-0.7c-0.3,0-0.6,0.1-0.8,0c-0.2-0.1-0.3-0.4-0.4-0.7c-0.1,0.2-0.2,0.5-0.4,0.6c-0.2,0.1-0.4,0.1-0.8,0.1
					C62.4,66.5,62.4,67,62.1,67.5z"/>
				<path fill="#FFFFFF" d="M64.1,70.8c-0.6,0.1-1.1-0.1-1.2-0.8c-0.2,0.6-0.5,0.9-1.1,0.8c0.5,0.4,0.5,0.8,0.3,1.4
					c0.5-0.6,1-0.5,1.5,0C63.3,71.5,63.6,71.1,64.1,70.8z"/>
				<path fill="#FFFFFF" d="M38.4,77c-0.2,0.6-0.5,0.9-1.1,0.8c0.5,0.4,0.6,0.8,0.3,1.3c0.5-0.4,1-0.6,1.6,0c-0.4-0.6,0-1,0.4-1.3
					C39,77.8,38.5,77.7,38.4,77z"/>
				<path fill="#FFFFFF" d="M62.2,62.9c0.5-0.6,1-0.5,1.5,0c-0.3-0.6-0.1-1,0.4-1.4c-0.6,0.1-1.1,0-1.2-0.8
					c-0.1,0.6-0.5,0.9-1.1,0.8C62.4,61.9,62.3,62.4,62.2,62.9z"/>
				<path fill="#FFFFFF" d="M59.4,60.6c0.5-0.6,1-0.5,1.6,0c-0.4-0.6-0.1-1,0.4-1.4c-0.6,0.1-1-0.1-1.2-0.8
					c-0.2,0.5-0.4,0.9-1.1,0.8C59.7,59.6,59.7,60,59.4,60.6z"/>
				<path fill="#FFFFFF" d="M68.3,77.5c4,0,7.4,0,11.1,0c-0.1-2-0.3-3-0.6-4c-3.5,0-6.5,0-10.5,0C68.3,74.5,68.3,75.5,68.3,77.5z"/>
				<path fill="#FFFFFF" d="M59.4,65.3c0.3-0.2,0.6-0.5,0.8-0.5c0.2,0,0.5,0.2,0.7,0.4c0,0,0.1,0,0.1,0c-0.5-0.6-0.1-1,0.3-1.3
					c-0.6,0.1-1.1-0.1-1.2-0.8c-0.2,0.6-0.4,0.9-1.1,0.7c0.2,0.3,0.5,0.5,0.5,0.7C59.6,64.7,59.5,64.9,59.4,65.3z"/>
				<path fill="#FFFFFF" d="M64.5,59.2c0.6,0.3,0.6,0.8,0.4,1.4c0.5-0.6,1-0.5,1.5,0c-0.3-0.6-0.1-1,0.3-1.3c-0.1,0-0.1-0.1-0.2-0.1
					c-0.2,0-0.4-0.1-0.6-0.3c-0.1-0.1-0.3-0.1-0.4-0.2C65.3,59.1,65,59.3,64.5,59.2z"/>
				<path fill="#FFFFFF" d="M68.4,63.7c0,0.1,0.2,0,0.3,0c1.3,0,2.7-0.2,4-0.2c0.2,0,0.4,0,0.6,0c-1.3-1-2.7-2-4.3-3
					c-0.2,0-0.5,0-0.7,0C68.4,61.5,68.4,62.7,68.4,63.7z"/>
				<path fill="#FFFFFF" d="M68.4,67.8c0,0.8,0,1.6,0,2.4c0,0.4,0.1,0.4,0.5,0.4c1.9,0,3.7-0.1,5.6-0.1c1.1,0,2.2,0,3.3,0
					c-0.5-1-1.1-2-1.8-3c-2.5,0-5,0-7.5,0C68.4,67.5,68.4,67.7,68.4,67.8z"/>
				<path fill="#FFFFFF" d="M37.6,74.4c0.5-0.5,1-0.5,1.5-0.1c-0.4-0.6-0.1-0.9,0.3-1.3c-0.3,0-0.6,0.1-0.7-0.1
					c-0.2-0.1-0.2-0.4-0.4-0.7c-0.1,0.6-0.4,0.9-1.1,0.8C37.9,73.5,37.8,73.9,37.6,74.4z"/>
				<path fill="#FFFFFF" d="M39.2,69.8c-0.4-0.6,0-1,0.4-1.3c-0.4,0.1-0.7,0-0.9-0.2c-0.3,0.5-0.5,0.9-0.8,1.4
					C38.3,69.4,38.7,69.4,39.2,69.8z"/>
				<path fill="#FFFFFF" d="M48.5,60.6c0.5-0.6,1-0.5,1.6,0c-0.4-0.6-0.1-1,0.4-1.4c-0.5,0.1-0.8,0-1-0.4C49.3,58.9,49.1,59,49,59
					c-0.1,0.1-0.2,0.2-0.4,0.2c-0.1,0-0.2,0.1-0.2,0.1C48.7,59.7,48.8,60.1,48.5,60.6z"/>
				<path fill="#FFFFFF" d="M56.7,62.9c0.5-0.7,1-0.5,1.6,0c-0.5-0.6-0.1-1,0.4-1.4c-0.6,0.1-1-0.1-1.1-0.8
					c-0.4,0.7-0.4,0.7-1.1,0.8C57,61.9,56.8,62.4,56.7,62.9z"/>
				<path fill="#FFFFFF" d="M55.1,63.7c-0.2-0.1-0.2-0.4-0.4-0.6c-0.1,0.6-0.6,0.8-1.1,0.7c0.5,0.4,0.6,0.8,0.3,1.4
					c0.5-0.5,1-0.5,1.5-0.1c-0.4-0.6,0-1,0.4-1.3c0,0-0.1-0.1-0.1-0.1C55.6,63.8,55.3,63.8,55.1,63.7z"/>
				<path fill="#FFFFFF" d="M57.5,74.6c-0.1,0.6-0.5,0.9-1.1,0.8c0.5,0.4,0.6,0.8,0.3,1.4c0.5-0.5,1-0.5,1.6,0
					c-0.3-0.6-0.1-1,0.4-1.4C58,75.5,57.6,75.3,57.5,74.6z"/>
				<path fill="#FFFFFF" d="M52,74.7c-0.1,0.6-0.5,0.8-1.1,0.7c0.6,0.4,0.6,0.8,0.4,1.3c0.2-0.1,0.5-0.4,0.7-0.4
					c0.2,0,0.5,0.3,0.7,0.4c-0.3-0.6,0-1,0.5-1.4c-0.4,0-0.7,0-0.9-0.1C52.2,75.2,52.2,74.9,52,74.7z"/>
				<path fill="#FFFFFF" d="M59.4,74.5c0.5-0.5,1-0.6,1.5,0c-0.3-0.6-0.1-1,0.4-1.4c-0.7,0.1-1-0.1-1.1-0.8
					c-0.2,0.3-0.2,0.6-0.4,0.7c-0.2,0.1-0.4,0.1-0.8,0.1C59.6,73.5,59.7,73.9,59.4,74.5z"/>
				<path fill="#FFFFFF" d="M57.5,65.3c-0.1,0.3-0.2,0.6-0.4,0.7c-0.2,0.1-0.4,0.1-0.8,0.1c0.6,0.4,0.7,0.8,0.4,1.3
					c0.5-0.5,1-0.5,1.5,0c-0.4-0.6,0-0.9,0.5-1.3c-0.4,0-0.7,0-0.9-0.1C57.7,65.9,57.6,65.6,57.5,65.3z"/>
				<path fill="#FFFFFF" d="M52.4,66.1c-0.2-0.1-0.2-0.4-0.4-0.8c-0.1,0.7-0.4,1-1,0.9c0.5,0.4,0.6,0.8,0.3,1.3c0.5-0.4,1-0.6,1.5,0
					c-0.4-0.6,0-1,0.5-1.3C52.9,66.1,52.6,66.2,52.4,66.1z"/>
				<path fill="#FFFFFF" d="M61.4,77.9c0,0-0.1-0.1-0.1-0.1c-0.3,0-0.6,0-0.7-0.1c-0.2-0.1-0.2-0.4-0.4-0.7
					c-0.1,0.7-0.4,0.9-1.1,0.8c0.6,0.4,0.6,0.8,0.4,1.4c0.5-0.6,1-0.5,1.5,0.1c-0.1-0.4-0.2-0.7-0.2-0.9
					C60.9,78.2,61.2,78,61.4,77.9z"/>
				<path fill="#FFFFFF" d="M54.8,76.9c-0.5,0.7-0.5,0.7-1.2,0.8c0.7,0.3,0.6,0.8,0.4,1.3c0.5-0.5,1-0.6,1.5,0
					c-0.3-0.6-0.1-1,0.4-1.4C55.3,77.8,54.9,77.7,54.8,76.9z"/>
				<path fill="#FFFFFF" d="M55.9,73.1c-0.6,0.1-1.1-0.1-1.2-0.8c-0.2,0.5-0.4,0.9-1.1,0.8c0.5,0.4,0.6,0.8,0.3,1.4
					c0.5-0.5,1-0.6,1.5,0C55.2,73.9,55.4,73.4,55.9,73.1z"/>
				<path fill="#FFFFFF" d="M54.8,67.6c-0.2,0.3-0.2,0.6-0.4,0.8c-0.2,0.1-0.5,0.1-0.8,0.1c0.6,0.3,0.7,0.8,0.4,1.3
					c0.5-0.5,1-0.5,1.5-0.1c-0.4-0.6,0-0.9,0.4-1.3C55.3,68.5,54.9,68.4,54.8,67.6z"/>
				<path fill="#FFFFFF" d="M57.5,70c-0.2,0.6-0.5,0.9-1.1,0.7c0.4,0.6,0.4,0.6,0.4,1.4c0.5-0.4,1-0.6,1.5-0.1c-0.4-0.6,0-1,0.4-1.3
					C58,70.9,57.6,70.7,57.5,70z"/>
				<path fill="#FFFFFF" d="M78,86.5c-13.6,0-27.2,0-40.9,0c0.5,2,1,3,1.7,4c12.5,0,25,0,37.5,0C77,89.5,77.5,88.5,78,86.5z"/>
				<path fill="#FFFFFF" d="M74,93.5c-10.9,0-21.8,0-32.8,0c1.2,1,2.5,3,3.9,4c8.3,0,16.6,0,24.9,0C71.5,96.5,72.8,94.5,74,93.5z"/>
				<path fill="#FFFFFF" d="M52.1,100.5c1.7,0,3.6,0.7,5.4,0.7s3.7-0.7,5.4-0.7C59.4,100.5,55.8,100.5,52.1,100.5z"/>
				<path fill="#FFFFFF" d="M79.4,80.5c-14.5,0-29.1,0-43.7,0c0.1,1,0.2,2,0.5,3c14.2,0,28.5,0,42.7,0
					C79.2,82.5,79.3,81.5,79.4,80.5z"/>
				<path fill="#FFFFFF" d="M66.8,73.1c-0.7,0.2-1-0.1-1.2-0.8c-0.2,0.5-0.4,0.9-1.1,0.8c0.5,0.4,0.6,0.8,0.3,1.4
					c0.4-0.2,0.6-0.5,0.8-0.5c0.2,0,0.5,0.3,0.7,0.4C66.1,73.8,66.3,73.5,66.8,73.1z"/>
				<path fill="#FFFFFF" d="M63.3,75.3c-0.2-0.1-0.2-0.4-0.4-0.7c-0.1,0.6-0.4,1-1.1,0.7c0.3,0.3,0.5,0.5,0.5,0.7
					c0.1,0.2-0.1,0.5-0.2,0.9c0.6-0.6,1.1-0.6,1.6-0.1c-0.4-0.6-0.1-1,0.5-1.4C63.8,75.4,63.5,75.5,63.3,75.3z"/>
				<path fill="#FFFFFF" d="M64.9,65.2c0.5-0.4,1-0.6,1.6,0.1c-0.3-0.6-0.2-1,0.4-1.4c-0.6,0.1-1-0.1-1.2-0.8
					c-0.1,0.6-0.5,0.9-1.1,0.7c0.2,0.3,0.5,0.5,0.5,0.7C65.1,64.7,64.9,64.9,64.9,65.2z"/>
				<path fill="#FFFFFF" d="M65.7,77c-0.2,0.6-0.4,0.9-1.1,0.8c0.5,0.4,0.6,0.8,0.4,1.4c0.5-0.6,1-0.5,1.5,0c-0.4-0.6-0.1-1,0.4-1.4
					C66.2,77.8,65.8,77.7,65.7,77z"/>
				<path fill="#FFFFFF" d="M64.9,69.9c0.5-0.7,1-0.5,1.5,0c-0.1-0.4-0.2-0.7-0.2-0.9c0.1-0.2,0.3-0.4,0.5-0.6c0,0,0-0.1,0-0.1
					c-0.6,0.2-1,0-1.1-0.7c-0.2,0.6-0.5,0.9-1.1,0.8C65.1,68.8,65.1,69.3,64.9,69.9z"/>
				<path fill="#FFFFFF" d="M41.1,65.4c-0.2,0.5-0.4,0.9-1.1,0.8c0.5,0.4,0.6,0.8,0.3,1.3c0.5-0.4,1-0.5,1.5,0c-0.4-0.6,0-1,0.4-1.3
					C41.6,66.2,41.2,66.1,41.1,65.4z"/>
				<path fill="#FFFFFF" d="M53.2,70.8c-0.6,0-1.1,0-1.1-0.8c-0.2,0.5-0.5,0.9-1.1,0.8c0.5,0.4,0.6,0.8,0.3,1.4c0.5-0.5,1-0.5,1.5,0
					C52.4,71.5,52.8,71.2,53.2,70.8z"/>
				<path fill="#FFFFFF" d="M43.9,72.3c-0.2,0.6-0.5,0.9-1.2,0.7c0.2,0.3,0.5,0.5,0.5,0.7c0,0.2-0.1,0.5-0.1,0.7
					c0.5-0.4,1-0.4,1.5,0c-0.4-0.6-0.1-0.9,0.4-1.3C44.4,73.2,44,73,43.9,72.3z"/>
				<path fill="#FFFFFF" d="M61.4,68.5c-0.6,0.1-1-0.1-1.2-0.8c-0.2,0.6-0.5,0.9-1.1,0.8c0.6,0.4,0.6,0.8,0.4,1.4
					c0.5-0.6,1-0.5,1.5,0C60.6,69.2,60.9,68.8,61.4,68.5z"/>
				<path fill="#FFFFFF" d="M45.8,67.5c0.5-0.4,1-0.5,1.5,0c-0.4-0.6-0.1-1,0.4-1.3c-0.6,0.1-1-0.1-1.2-0.8
					c-0.2,0.6-0.5,0.9-1.1,0.8C45.9,66.5,46.1,66.9,45.8,67.5z"/>
				<path fill="#FFFFFF" d="M46.6,74.6c-0.2,0.6-0.5,0.9-1.1,0.8c0.5,0.4,0.6,0.8,0.3,1.4c0.4-0.2,0.6-0.5,0.8-0.5
					c0.2,0,0.5,0.3,0.7,0.4c-0.3-0.6-0.1-1,0.5-1.4C47.1,75.5,46.7,75.3,46.6,74.6z"/>
				<path fill="#FFFFFF" d="M45.8,62.9c0.5-0.6,1-0.5,1.6,0c-0.4-0.6-0.1-1,0.4-1.4c-0.6,0-1.1,0-1.1-0.8c-0.2,0.4-0.3,0.6-0.5,0.7
					c-0.2,0.1-0.4,0.1-0.8,0.1C46,61.9,46,62.4,45.8,62.9z"/>
				<path fill="#FFFFFF" d="M54.1,60.5c0.2-0.2,0.5-0.3,0.7-0.5c0.2,0.2,0.5,0.3,0.7,0.5c-0.3-0.6,0-1,0.5-1.3
					c-0.6,0.1-1.1-0.1-1.2-0.8c-0.2,0.5-0.4,0.9-1.1,0.8C54.2,59.6,54.3,60,54.1,60.5z"/>
				<path fill="#FFFFFF" d="M41.1,74.6c-0.1,0.7-0.5,0.9-1.1,0.8c0.5,0.4,0.6,0.8,0.3,1.3c0.5-0.5,1-0.5,1.5-0.1
					c-0.4-0.6-0.1-0.9,0.4-1.3C41.6,75.5,41.2,75.3,41.1,74.6z"/>
				<path fill="#FFFFFF" d="M43.1,65.2c0.5-0.6,1-0.6,1.6,0c-0.4-0.6-0.1-1,0.4-1.4c-0.6,0.1-1-0.1-1.2-0.8
					c-0.1,0.6-0.5,0.9-1.1,0.8C43.4,64.2,43.3,64.7,43.1,65.2z"/>
				<path fill="#FFFFFF" d="M41.1,70c-0.1,0.6-0.5,0.9-1.1,0.8c0.6,0.3,0.6,0.8,0.3,1.4c0.4-0.2,0.6-0.4,0.8-0.4
					c0.2,0,0.5,0.2,0.7,0.3c-0.3-0.6,0.1-0.9,0.5-1.3C41.6,70.9,41.2,70.7,41.1,70z"/>
				<path fill="#FFFFFF" d="M43.9,67.7c-0.2,0.6-0.5,0.9-1.1,0.8c0.5,0.4,0.6,0.8,0.3,1.4c0.5-0.5,1-0.5,1.6,0c-0.4-0.6,0-1,0.4-1.3
					C44.4,68.6,44,68.4,43.9,67.7z"/>
				<path fill="#FFFFFF" d="M45,77.8c-0.6,0-1-0.1-1.1-0.8c-0.2,0.5-0.4,0.9-1.1,0.8c0.5,0.4,0.7,0.8,0.3,1.3c0.5-0.5,1-0.5,1.5,0
					c0-0.3-0.2-0.6-0.1-0.8C44.6,78.1,44.8,78,45,77.8z"/>
				<path fill="#FFFFFF" d="M49.7,63.7c-0.2-0.1-0.3-0.4-0.4-0.7c-0.1,0.5-0.4,0.9-1.1,0.7c0.2,0.3,0.5,0.5,0.5,0.7
					c0,0.2-0.1,0.5-0.1,0.7c0.3-0.2,0.5-0.4,0.8-0.4c0.2,0,0.5,0.2,0.7,0.3c-0.4-0.6,0-0.9,0.5-1.3C50.2,63.8,49.9,63.9,49.7,63.7z"
					/>
				<path fill="#FFFFFF" d="M50.5,68.5c-0.6,0.1-1.1,0-1.2-0.8c-0.2,0.6-0.5,0.9-1.1,0.8c0.5,0.4,0.6,0.8,0.4,1.3
					c0.2-0.1,0.5-0.4,0.7-0.4c0.2,0,0.5,0.2,0.9,0.4C49.7,69.2,50.1,68.8,50.5,68.5z"/>
				<path fill="#FFFFFF" d="M48.5,74.5c0.5-0.5,1-0.6,1.5,0c-0.4-0.7,0-1,0.4-1.4c-0.6,0.1-1-0.1-1.2-0.7c-0.1,0.6-0.5,0.9-1.1,0.8
					C48.8,73.5,48.8,73.9,48.5,74.5z"/>
				<path fill="#FFFFFF" d="M51.2,62.9c0.5-0.6,1-0.5,1.6,0c-0.4-0.6-0.1-1,0.4-1.4c-0.6,0-1.1-0.1-1.2-0.8
					c-0.2,0.6-0.5,0.9-1.1,0.8C51.4,61.9,51.5,62.3,51.2,62.9z"/>
				<path fill="#FFFFFF" d="M49.3,77c-0.2,0.6-0.5,0.9-1.1,0.8c0.6,0.4,0.6,0.8,0.4,1.4c0.5-0.5,1-0.5,1.6,0c-0.4-0.6-0.1-1,0.4-1.4
					C49.9,77.8,49.4,77.7,49.3,77z"/>
				<path fill="#FFFFFF" d="M46.6,70c-0.2,0.6-0.5,0.9-1.1,0.8c0.5,0.4,0.6,0.8,0.2,1.4c0.4-0.2,0.6-0.4,0.8-0.4
					c0.2,0,0.5,0.2,0.8,0.3c0-0.3-0.2-0.5-0.1-0.7c0.1-0.2,0.3-0.3,0.5-0.5c0-0.1,0-0.1,0-0.2C47.1,70.9,46.7,70.7,46.6,70z"/>
				<path fill="#2368B5" d="M66.5,59.2c-0.2-0.1-0.4-0.2-0.6-0.3C66.1,59.1,66.3,59.2,66.5,59.2z"/>
				<path fill="#2368B5" d="M79.5,79.4c0-0.7,0-1.8-0.1-1.8c-3.6,0-7.1,0-11.1,0c0-2,0-3,0-4c4,0,7,0,10.5,0c-0.3-1-0.6-2-1-3
					c-1.1,0-2.2,0-3.3,0c-1.9,0-3.7,0-5.6,0.1c-0.4,0-0.5-0.1-0.5-0.5c0-0.8,0-1.5,0-2.3c0-0.1,0-0.3,0-0.3c2.5,0,5,0,7.5,0
					c-0.8-1-1.6-3-2.6-4c-0.2,0-0.4,0-0.6,0c-1.3,0-2.7,0.2-4,0.2c-0.1,0-0.3,0-0.3-0.1c0-1,0-2.1,0-3.1c0.2,0,0.5,0,0.7,0
					c-0.7,0-1.5-0.9-2.3-1.2c-0.4,0.3-0.6,0.7-0.3,1.3c-0.5-0.5-1-0.6-1.5,0c0.2-0.6,0.3-1.1-0.4-1.4c0.5,0.1,0.8-0.1,1-0.4
					c-2.5-1-5.1-1.5-7.9-1.5c-2.9,0-5.6,0.6-8.1,1.6c0.2,0.3,0.6,0.4,1,0.3c-0.5,0.4-0.8,0.8-0.4,1.4c-0.5-0.5-1-0.6-1.6,0
					c0.2-0.5,0.2-0.9-0.2-1.3c-4.1,1.9-7.5,5-9.7,8.9c0.2,0.2,0.5,0.3,0.9,0.2c-0.4,0.4-0.8,0.7-0.4,1.3c-0.4-0.4-0.9-0.4-1.3-0.2
					c-1.4,2.9-2.2,6.2-2.2,9.6c0,0.4,0,0.3,0,1.3c14.6,0,29.1,0,43.7,0C79.4,79.5,79.5,79.8,79.5,79.4z M38.4,72.3
					c0.2,0.3,0.2,0.6,0.4,0.7c0.2,0.1,0.5,0.1,0.7,0.1c-0.4,0.4-0.7,0.7-0.3,1.3c-0.5-0.4-1-0.4-1.5,0.1c0.2-0.5,0.2-1-0.3-1.3
					C37.9,73.2,38.2,72.9,38.4,72.3z M39.2,79.1c-0.6-0.5-1-0.4-1.6,0c0.3-0.5,0.2-1-0.3-1.3c0.6,0.1,0.9-0.2,1.1-0.8
					c0.1,0.7,0.6,0.8,1.1,0.8C39.1,78.1,38.8,78.5,39.2,79.1z M62.9,60.7c0.1,0.7,0.6,0.8,1.2,0.8c-0.5,0.4-0.7,0.8-0.4,1.4
					c-0.5-0.4-1-0.6-1.5,0c0.2-0.6,0.2-1-0.4-1.4C62.4,61.6,62.8,61.4,62.9,60.7z M62.6,66c0.2-0.1,0.2-0.4,0.4-0.6
					c0.2,0.3,0.2,0.5,0.4,0.7c0.2,0.1,0.5,0,0.8,0c-0.3,0.3-0.5,0.4-0.6,0.7c-0.1,0.2,0.1,0.5,0.1,0.8c-0.3-0.2-0.5-0.4-0.8-0.4
					c-0.2,0-0.5,0.3-0.8,0.4c0.3-0.5,0.2-1-0.4-1.3C62.1,66.1,62.4,66.2,62.6,66z M63.7,72.2c-0.5-0.5-1-0.6-1.5,0
					c0.2-0.6,0.2-1-0.3-1.4c0.6,0.1,0.9-0.2,1.1-0.8c0.1,0.7,0.5,0.9,1.2,0.8C63.6,71.1,63.3,71.5,63.7,72.2z M60.2,58.4
					c0.1,0.7,0.5,0.9,1.2,0.8c-0.5,0.4-0.8,0.7-0.4,1.4c-0.6-0.5-1-0.5-1.6,0c0.3-0.6,0.2-1-0.3-1.4C59.8,59.4,60,59,60.2,58.4z
					 M60.2,63.1c0.1,0.7,0.5,0.9,1.2,0.8c-0.4,0.4-0.8,0.7-0.3,1.3c0,0-0.1,0-0.1,0c-0.2-0.1-0.5-0.4-0.7-0.4
					c-0.2,0-0.5,0.3-0.8,0.5c0.1-0.3,0.3-0.6,0.2-0.8c0-0.2-0.3-0.4-0.5-0.7C59.8,64,60,63.6,60.2,63.1z M61,69.8
					c-0.5-0.5-1-0.5-1.5,0c0.2-0.6,0.3-1-0.4-1.4c0.7,0.1,1-0.2,1.1-0.8c0.1,0.7,0.5,0.9,1.2,0.8C60.9,68.8,60.6,69.2,61,69.8z
					 M57.5,60.7c0.1,0.7,0.5,0.9,1.1,0.8c-0.4,0.4-0.8,0.7-0.4,1.4c-0.6-0.5-1-0.6-1.6,0c0.1-0.6,0.3-1.1-0.4-1.4
					C57.1,61.4,57.1,61.4,57.5,60.7z M54.8,58.4c0.1,0.7,0.5,0.9,1.2,0.8c-0.5,0.4-0.8,0.7-0.5,1.3c-0.2-0.2-0.5-0.3-0.7-0.5
					c-0.2,0.2-0.5,0.3-0.7,0.5c0.2-0.5,0.2-1-0.4-1.4C54.4,59.4,54.6,58.9,54.8,58.4z M43.8,63c0.1,0.7,0.5,0.9,1.2,0.8
					c-0.4,0.4-0.8,0.8-0.4,1.4c-0.5-0.6-1-0.5-1.6,0c0.2-0.6,0.3-1-0.4-1.4C43.3,63.9,43.7,63.7,43.8,63z M44.6,69.8
					c-0.6-0.5-1-0.4-1.6,0c0.3-0.6,0.2-1-0.3-1.4c0.7,0.2,0.9-0.2,1.1-0.8c0.1,0.7,0.5,0.9,1.1,0.8C44.6,68.8,44.2,69.2,44.6,69.8z
					 M41.8,72c-0.2-0.1-0.5-0.3-0.7-0.3c-0.2,0-0.5,0.2-0.8,0.4c0.3-0.6,0.3-1-0.3-1.4c0.6,0.1,1-0.2,1.1-0.8
					c0.1,0.6,0.5,0.9,1.2,0.8C41.9,71.2,41.5,71.5,41.8,72z M41.9,76.7c-0.5-0.4-1-0.4-1.5,0.1c0.2-0.5,0.2-1-0.3-1.3
					c0.6,0.1,1-0.1,1.1-0.8c0.1,0.7,0.5,0.9,1.2,0.8C41.8,75.8,41.5,76.1,41.9,76.7z M41.9,67.5c-0.5-0.5-1-0.4-1.5,0
					c0.2-0.5,0.2-1-0.3-1.3c0.7,0.1,0.9-0.2,1.1-0.8c0.1,0.7,0.5,0.9,1.2,0.8C41.9,66.5,41.5,66.8,41.9,67.5z M44.6,79.1
					c-0.5-0.5-1-0.5-1.5,0c0.3-0.6,0.1-1-0.3-1.3c0.7,0.2,0.9-0.2,1.1-0.8c0.1,0.7,0.5,0.9,1.1,0.8c-0.2,0.2-0.4,0.3-0.5,0.5
					C44.4,78.5,44.5,78.7,44.6,79.1z M44.6,74.4c-0.5-0.5-1-0.4-1.5,0c0.1-0.2,0.2-0.5,0.1-0.7c-0.1-0.2-0.3-0.4-0.5-0.7
					c0.7,0.2,1-0.2,1.2-0.7c0.1,0.7,0.5,0.9,1.2,0.8C44.6,73.4,44.3,73.8,44.6,74.4z M46.2,61.4c0.2-0.1,0.3-0.4,0.5-0.7
					c0,0.8,0.5,0.9,1.1,0.8c-0.5,0.4-0.7,0.8-0.4,1.4c-0.5-0.5-1-0.6-1.6,0c0.2-0.6,0.2-1-0.4-1.4C45.7,61.5,46,61.5,46.2,61.4z
					 M46.6,65.4c0.1,0.7,0.5,0.8,1.2,0.8c-0.5,0.3-0.8,0.7-0.4,1.3c-0.5-0.5-1-0.4-1.5,0c0.3-0.5,0.2-1-0.3-1.3
					C46.1,66.3,46.4,65.9,46.6,65.4z M47.3,76.8c-0.2-0.1-0.5-0.4-0.7-0.4c-0.2,0-0.5,0.3-0.8,0.5c0.3-0.6,0.3-1-0.3-1.4
					c0.6,0.1,0.9-0.2,1.1-0.8c0.1,0.7,0.5,0.9,1.2,0.8C47.2,75.8,47,76.2,47.3,76.8z M47.2,71.4c-0.1,0.2,0.1,0.5,0.1,0.7
					c-0.3-0.1-0.5-0.4-0.8-0.3c-0.2,0-0.5,0.2-0.8,0.4c0.3-0.6,0.3-1-0.2-1.4c0.6,0.1,0.9-0.2,1.1-0.8c0.1,0.7,0.5,0.9,1.2,0.7
					c0,0.1,0,0.1,0,0.2C47.5,71,47.3,71.2,47.2,71.4z M50.1,79.1c-0.6-0.5-1-0.5-1.6,0c0.2-0.6,0.2-1-0.4-1.4c0.7,0.2,1-0.2,1.1-0.8
					c0.1,0.7,0.6,0.8,1.2,0.8C50,78.1,49.7,78.5,50.1,79.1z M50.2,69.8c-0.4-0.2-0.7-0.4-0.9-0.4c-0.2,0-0.5,0.2-0.7,0.4
					c0.2-0.5,0.1-1-0.4-1.3c0.6,0.1,1-0.2,1.1-0.8c0.1,0.7,0.5,0.8,1.2,0.8C50.1,68.8,49.7,69.2,50.2,69.8z M49.3,72.3
					c0.1,0.7,0.5,0.9,1.2,0.7c-0.4,0.4-0.8,0.8-0.4,1.4c-0.6-0.6-1-0.5-1.5,0c0.2-0.5,0.2-1-0.4-1.4C48.8,73.2,49.2,73,49.3,72.3z
					 M50,65.1c-0.2-0.1-0.5-0.3-0.7-0.3c-0.2,0-0.5,0.2-0.8,0.4c0.1-0.3,0.2-0.5,0.1-0.7c0-0.2-0.3-0.4-0.5-0.7
					c0.7,0.2,1-0.2,1.1-0.7c0.2,0.3,0.2,0.6,0.4,0.7c0.2,0.1,0.5,0,0.9,0.1C50.1,64.2,49.7,64.5,50,65.1z M52,60.8
					c0.1,0.7,0.6,0.8,1.2,0.8c-0.5,0.4-0.7,0.8-0.4,1.4c-0.5-0.5-1-0.6-1.6,0c0.3-0.6,0.2-1-0.3-1.4C51.5,61.6,51.9,61.3,52,60.8z
					 M52.8,72.1c-0.5-0.5-1-0.4-1.5,0c0.3-0.6,0.2-1-0.3-1.4c0.7,0.1,0.9-0.2,1.1-0.8c0.1,0.8,0.6,0.8,1.1,0.8
					C52.8,71.2,52.4,71.5,52.8,72.1z M52.7,76.8c-0.2-0.1-0.5-0.4-0.7-0.4c-0.2,0-0.5,0.2-0.7,0.4c0.2-0.5,0.2-1-0.4-1.3
					c0.6,0,1-0.1,1.1-0.7c0.1,0.2,0.2,0.5,0.3,0.6c0.2,0.1,0.5,0.1,0.9,0.1C52.7,75.8,52.4,76.2,52.7,76.8z M52.8,67.5
					c-0.6-0.6-1-0.4-1.5,0c0.3-0.5,0.2-1-0.3-1.3c0.6,0.1,1-0.1,1-0.9c0.2,0.4,0.2,0.7,0.4,0.8c0.2,0.1,0.5,0.1,0.9,0.1
					C52.8,66.5,52.4,66.8,52.8,67.5z M55.5,74.5c-0.5-0.6-1-0.5-1.5,0c0.3-0.6,0.2-1-0.3-1.4c0.7,0.1,0.9-0.2,1.1-0.8
					c0.1,0.7,0.5,0.9,1.2,0.8C55.4,73.4,55.2,73.9,55.5,74.5z M55.5,69.7c-0.5-0.4-1-0.4-1.5,0.1c0.2-0.5,0.2-1-0.4-1.3
					c0.4,0,0.7,0,0.8-0.1c0.2-0.1,0.2-0.4,0.4-0.8c0.1,0.8,0.5,0.9,1.1,0.9C55.5,68.8,55.2,69.1,55.5,69.7z M55.5,79.1
					c-0.5-0.6-1-0.5-1.5,0c0.2-0.6,0.3-1-0.4-1.3c0.7-0.1,0.7-0.1,1.2-0.8c0.1,0.7,0.5,0.9,1.1,0.8C55.4,78.1,55.2,78.5,55.5,79.1z
					 M55.5,65.1c-0.5-0.5-1-0.5-1.5,0.1c0.3-0.6,0.2-1-0.3-1.4c0.6,0,1-0.1,1.1-0.7c0.1,0.2,0.2,0.5,0.4,0.6
					c0.2,0.1,0.5,0.1,0.7,0.1c0,0,0.1,0.1,0.1,0.1C55.5,64.2,55.2,64.5,55.5,65.1z M58.3,76.8c-0.5-0.5-1-0.5-1.6,0
					c0.3-0.6,0.2-1-0.3-1.4c0.6,0.1,1-0.2,1.1-0.8c0.1,0.6,0.5,0.9,1.2,0.8C58.1,75.8,57.9,76.2,58.3,76.8z M58.3,72.1
					c-0.5-0.5-1-0.4-1.5,0.1c0.1-0.8,0.1-0.8-0.4-1.4c0.6,0.2,0.9-0.1,1.1-0.7c0.1,0.7,0.5,0.8,1.2,0.8
					C58.2,71.1,57.8,71.5,58.3,72.1z M58.3,67.4c-0.5-0.4-1-0.4-1.5,0c0.3-0.6,0.2-1-0.4-1.3c0.4,0,0.7,0,0.8-0.1
					c0.2-0.1,0.2-0.4,0.4-0.7c0.1,0.3,0.2,0.6,0.4,0.7c0.2,0.1,0.5,0.1,0.9,0.1C58.2,66.5,57.9,66.8,58.3,67.4z M59.8,73
					c0.2-0.1,0.2-0.4,0.4-0.7c0.1,0.7,0.5,1,1.1,0.8c-0.5,0.4-0.7,0.8-0.4,1.4c-0.5-0.6-1-0.5-1.5,0c0.3-0.6,0.2-1-0.4-1.4
					C59.4,73.1,59.7,73.1,59.8,73z M61,79.2c-0.5-0.6-1-0.7-1.5-0.1c0.2-0.6,0.2-1-0.4-1.4c0.6,0.1,1-0.2,1.1-0.8
					c0.2,0.3,0.2,0.6,0.4,0.7c0.2,0.1,0.5,0.1,0.7,0.1c0,0,0.1,0.1,0.1,0.1c-0.2,0.2-0.5,0.3-0.6,0.5C60.8,78.6,60.9,78.8,61,79.2z
					 M63.7,76.8c-0.5-0.5-1-0.5-1.6,0.1c0.1-0.4,0.2-0.7,0.2-0.9c0-0.2-0.3-0.4-0.5-0.7c0.7,0.2,1-0.1,1.1-0.7
					c0.2,0.3,0.2,0.6,0.4,0.7c0.2,0.1,0.5,0.1,0.9,0.1C63.6,75.8,63.4,76.2,63.7,76.8z M66.4,74.4c-0.2-0.1-0.5-0.4-0.7-0.4
					c-0.2,0-0.5,0.2-0.8,0.5c0.3-0.6,0.3-1-0.3-1.4c0.7,0.1,0.9-0.2,1.1-0.8c0.1,0.7,0.5,0.9,1.2,0.8C66.3,73.5,66.1,73.8,66.4,74.4
					z M65.7,63c0.1,0.7,0.5,0.9,1.2,0.8c-0.6,0.4-0.7,0.8-0.4,1.4c-0.5-0.6-1-0.5-1.6-0.1c0.1-0.2,0.2-0.5,0.2-0.7
					c0-0.2-0.3-0.4-0.5-0.7C65.2,63.9,65.5,63.7,65.7,63z M65.7,67.7c0.1,0.7,0.5,0.9,1.1,0.7c0,0,0,0.1,0,0.1
					c-0.2,0.2-0.4,0.3-0.5,0.6c-0.1,0.2,0.1,0.5,0.2,0.9c-0.5-0.5-1-0.7-1.5,0c0.2-0.6,0.2-1-0.3-1.4C65.2,68.6,65.5,68.3,65.7,67.7
					z M66.5,79.1c-0.5-0.5-1-0.6-1.5,0c0.2-0.6,0.2-1-0.4-1.4c0.7,0.2,0.9-0.2,1.1-0.8c0.1,0.7,0.5,0.8,1.2,0.8
					C66.3,78.1,66.1,78.5,66.5,79.1z"/>
				<path fill="#2368B5" d="M49,59c-0.1,0.1-0.3,0.1-0.4,0.2C48.7,59.2,48.9,59.1,49,59z"/>
				<path fill="#2368B5" d="M70,97.5c-8.3,0-16.6,0-24.9,0c2.1,1,4.5,2,7,3c3.6,0,7.3,0,10.9,0C65.6,99.5,67.9,98.5,70,97.5z"/>
				<path fill="#2368B5" d="M76.3,90.5c-12.5,0-25,0-37.5,0c0.7,1,1.5,2,2.4,3c10.9,0,21.9,0,32.8,0C74.8,92.5,75.6,91.5,76.3,90.5z
					"/>
				<path fill="#2368B5" d="M79,83.5c-14.2,0-28.5,0-42.7,0c0.2,1,0.5,2,0.9,3c13.6,0,27.3,0,40.9,0C78.4,85.5,78.7,84.5,79,83.5z"
					/>
			</g>
			<g>
				<path fill="#0C56AB" d="M57.6,57.3c12.1,0,21.9,9.8,21.9,21.9c0,12.1-9.8,21.9-21.9,21.9c-12.1,0-21.9-9.8-21.9-21.9
					C35.7,67.1,45.5,57.3,57.6,57.3 M57.6,55.1c-13.2,0-24,10.8-24,24c0,13.2,10.8,24,24,24s24-10.8,24-24
					C81.6,65.9,70.8,55.1,57.6,55.1L57.6,55.1z"/>
			</g>
		</g>
		<g>
			<circle fill="none" stroke="#FFFFFF" stroke-width="2.1371" stroke-miterlimit="10" cx="91" cy="39.6" r="36"/>
			<g>
				<defs>
					<circle id="SVGID_1_" cx="91" cy="39.6" r="35.7"/>
				</defs>
				<clipPath id="SVGID_2_">
					<use xlink:href="#SVGID_1_"  overflow="visible"/>
				</clipPath>
				<circle clip-path="url(#SVGID_2_)" fill="#FFFFFF" cx="91" cy="39.6" r="37.1"/>
			</g>
		</g>
		<polygon fill="#2368B5" points="96.2,36.3 105.6,36.3 105.6,42.7 94.8,42.7 94.8,46.9 105.5,46.9 105.5,53.4 94.8,53.4 94.8,62 
			87.2,62 87.2,53.4 76.5,53.4 76.5,46.9 87.2,46.9 87.2,42.7 76.4,42.7 76.4,36.3 85,36.3 74.9,17.1 82.8,17.1 91,32.7 99.2,17.1 
			107.1,17.1 		"/>
		<g id="GUfQnu_3_">
		</g>
		<g>
			<g>
				<path fill="#0C56AB" d="M91,3.6c19.9,0,36,16.1,36,36s-16.1,36-36,36s-36-16.1-36-36S71.2,3.6,91,3.6 M91,0
					C69.2,0,51.5,17.7,51.5,39.6S69.2,79.1,91,79.1s39.6-17.7,39.6-39.6S112.8,0,91,0L91,0z"/>
			</g>
		</g>
	</g>
	<g>
		<g>
			<path fill="#0C56AB" d="M7.1,121.6c0.2,3.4,2.7,5.9,6.4,5.9c3.3,0,6-2.3,6-5.8c0-3.9-2.9-5.9-6.1-5.9c-2.3,0-4.2,0.9-5.3,2.2
				l-5.5-2L6.5,100H24v5.2H10.5l-2,8c1.4-1.4,3.8-2.2,6.1-2.2c6.3,0,10.9,3.9,10.9,10.6c0,6-4.6,11-12,11c-6.9,0-11.6-4.6-12-9.6
				L7.1,121.6z"/>
		</g>
	</g>
</g>
<g>
</g>
<g>
</g>
<g>
</g>
<g>
</g>
<g>
</g>
<g>
</g>
<g>
</g>
<g>
</g>
<g>
</g>
<g>
</g>
<g>
</g>
<g>
</g>
<g>
</g>
<g>
</g>
<g>
</g>
</svg>
