<?xml version="1.0" encoding="utf-8"?>
<!-- Generator: Adobe Illustrator 18.0.0, SVG Export Plug-In . SVG Version: 6.00 Build 0)  -->
<!DOCTYPE svg PUBLIC "-//W3C//DTD SVG 1.1//EN" "http://www.w3.org/Graphics/SVG/1.1/DTD/svg11.dtd">
<svg version="1.1" id="Layer_1" xmlns="http://www.w3.org/2000/svg" xmlns:xlink="http://www.w3.org/1999/xlink" x="0px" y="0px"
	 viewBox="0 0 346.3 198.1" enable-background="new 0 0 346.3 198.1" xml:space="preserve">
<g>
	<g>
		<g>
			<defs>
				<path id="SVGID_1_" d="M107.9,55.6c12-12,28.6-19.4,47-19.4c36.7,0,66.4,29.7,66.4,66.4s-29.7,66.4-66.4,66.4
					s-66.4-29.7-66.4-66.4C88.5,84.2,95.9,67.6,107.9,55.6"/>
			</defs>
			<clipPath id="SVGID_2_">
				<use xlink:href="#SVGID_1_"  overflow="visible"/>
			</clipPath>
			<circle clip-path="url(#SVGID_2_)" fill="#808285" cx="154.9" cy="102.5" r="74.2"/>
			<circle clip-path="url(#SVGID_2_)" fill="#573392" cx="144.4" cy="106.7" r="74.2"/>
			<g clip-path="url(#SVGID_2_)">
				<g>
					<g>
						<rect x="164.2" y="139.1" fill="#FFDA6E" width="41.7" height="6.6"/>
						<rect x="164.2" y="144.9" fill="#CC9D58" width="41.7" height="0.8"/>
						<g>
							<rect x="166" y="139" fill="#8B5E3C" width="1" height="6.7"/>
							<rect x="169.4" y="139" fill="#8B5E3C" width="1" height="6.7"/>
							<rect x="172.8" y="139" fill="#8B5E3C" width="1" height="6.7"/>
							<rect x="176.3" y="139" fill="#8B5E3C" width="1" height="6.7"/>
							<rect x="179.7" y="139" fill="#8B5E3C" width="1" height="6.7"/>
							<rect x="183.1" y="139" fill="#8B5E3C" width="1" height="6.7"/>
							<rect x="186.5" y="139" fill="#8B5E3C" width="1" height="6.7"/>
							<rect x="190" y="139" fill="#8B5E3C" width="1" height="6.7"/>
							<rect x="193.4" y="139" fill="#8B5E3C" width="1" height="6.7"/>
							<rect x="196.8" y="139" fill="#8B5E3C" width="1" height="6.7"/>
							<rect x="200.3" y="139" fill="#8B5E3C" width="1" height="6.7"/>
							<rect x="203.7" y="139" fill="#8B5E3C" width="1" height="6.7"/>
						</g>
						<rect x="164.2" y="139.1" fill="#A7A9AC" width="21.2" height="6.6"/>
					</g>
					<g>
						<rect x="164.2" y="131.4" fill="#FFDA6E" width="41.7" height="6.6"/>
						<rect x="164.2" y="137.2" fill="#CC9D58" width="41.7" height="0.8"/>
						<g>
							<rect x="166" y="131.3" fill="#8B5E3C" width="1" height="6.7"/>
							<rect x="169.4" y="131.3" fill="#8B5E3C" width="1" height="6.7"/>
							<rect x="172.8" y="131.3" fill="#8B5E3C" width="1" height="6.7"/>
							<rect x="176.3" y="131.3" fill="#8B5E3C" width="1" height="6.7"/>
							<rect x="179.7" y="131.3" fill="#8B5E3C" width="1" height="6.7"/>
							<rect x="183.1" y="131.3" fill="#8B5E3C" width="1" height="6.7"/>
							<rect x="186.5" y="131.3" fill="#8B5E3C" width="1" height="6.7"/>
							<rect x="190" y="131.3" fill="#8B5E3C" width="1" height="6.7"/>
							<rect x="193.4" y="131.3" fill="#8B5E3C" width="1" height="6.7"/>
							<rect x="196.8" y="131.3" fill="#8B5E3C" width="1" height="6.7"/>
							<rect x="200.3" y="131.3" fill="#8B5E3C" width="1" height="6.7"/>
							<rect x="203.7" y="131.3" fill="#8B5E3C" width="1" height="6.7"/>
						</g>
						<rect x="164.2" y="131.4" fill="#A7A9AC" width="21.2" height="6.6"/>
					</g>
					<g>
						<rect x="164.2" y="123.6" fill="#FFDA6E" width="41.7" height="6.6"/>
						<rect x="164.2" y="129.5" fill="#CC9D58" width="41.7" height="0.8"/>
						<g>
							<rect x="166" y="123.6" fill="#8B5E3C" width="1" height="6.7"/>
							<rect x="169.4" y="123.6" fill="#8B5E3C" width="1" height="6.7"/>
							<rect x="172.8" y="123.6" fill="#8B5E3C" width="1" height="6.7"/>
							<rect x="176.3" y="123.6" fill="#8B5E3C" width="1" height="6.7"/>
							<rect x="179.7" y="123.6" fill="#8B5E3C" width="1" height="6.7"/>
							<rect x="183.1" y="123.6" fill="#8B5E3C" width="1" height="6.7"/>
							<rect x="186.5" y="123.6" fill="#8B5E3C" width="1" height="6.7"/>
							<rect x="190" y="123.6" fill="#8B5E3C" width="1" height="6.7"/>
							<rect x="193.4" y="123.6" fill="#8B5E3C" width="1" height="6.7"/>
							<rect x="196.8" y="123.6" fill="#8B5E3C" width="1" height="6.7"/>
							<rect x="200.3" y="123.6" fill="#8B5E3C" width="1" height="6.7"/>
							<rect x="203.7" y="123.6" fill="#8B5E3C" width="1" height="6.7"/>
						</g>
						<rect x="164.2" y="123.6" fill="#A7A9AC" width="21.2" height="6.6"/>
					</g>
					<g>
						<rect x="164.2" y="115.9" fill="#FFDA6E" width="41.7" height="6.6"/>
						<rect x="164.2" y="121.8" fill="#CC9D58" width="41.7" height="0.8"/>
						<g>
							<rect x="166" y="115.9" fill="#8B5E3C" width="1" height="6.7"/>
							<rect x="169.4" y="115.9" fill="#8B5E3C" width="1" height="6.7"/>
							<rect x="172.8" y="115.9" fill="#8B5E3C" width="1" height="6.7"/>
							<rect x="176.3" y="115.9" fill="#8B5E3C" width="1" height="6.7"/>
							<rect x="179.7" y="115.9" fill="#8B5E3C" width="1" height="6.7"/>
							<rect x="183.1" y="115.9" fill="#8B5E3C" width="1" height="6.7"/>
							<rect x="186.5" y="115.9" fill="#8B5E3C" width="1" height="6.7"/>
							<rect x="190" y="115.9" fill="#8B5E3C" width="1" height="6.7"/>
							<rect x="193.4" y="115.9" fill="#8B5E3C" width="1" height="6.7"/>
							<rect x="196.8" y="115.9" fill="#8B5E3C" width="1" height="6.7"/>
							<rect x="200.3" y="115.9" fill="#8B5E3C" width="1" height="6.7"/>
							<rect x="203.7" y="115.9" fill="#8B5E3C" width="1" height="6.7"/>
						</g>
						<rect x="164.2" y="115.9" fill="#A7A9AC" width="21.2" height="6.6"/>
					</g>
					<g>
						<rect x="164.2" y="108.2" fill="#FFDA6E" width="41.7" height="6.6"/>
						<rect x="164.2" y="114" fill="#CC9D58" width="41.7" height="0.8"/>
						<g>
							<rect x="166" y="108.1" fill="#8B5E3C" width="1" height="6.7"/>
							<rect x="169.4" y="108.1" fill="#8B5E3C" width="1" height="6.7"/>
							<rect x="172.8" y="108.1" fill="#8B5E3C" width="1" height="6.7"/>
							<rect x="176.3" y="108.1" fill="#8B5E3C" width="1" height="6.7"/>
							<rect x="179.7" y="108.1" fill="#8B5E3C" width="1" height="6.7"/>
							<rect x="183.1" y="108.1" fill="#8B5E3C" width="1" height="6.7"/>
							<rect x="186.5" y="108.1" fill="#8B5E3C" width="1" height="6.7"/>
							<rect x="190" y="108.1" fill="#8B5E3C" width="1" height="6.7"/>
							<rect x="193.4" y="108.1" fill="#8B5E3C" width="1" height="6.7"/>
							<rect x="196.8" y="108.1" fill="#8B5E3C" width="1" height="6.7"/>
							<rect x="200.3" y="108.1" fill="#8B5E3C" width="1" height="6.7"/>
							<rect x="203.7" y="108.1" fill="#8B5E3C" width="1" height="6.7"/>
						</g>
						<rect x="164.2" y="108.2" fill="#A7A9AC" width="21.2" height="6.6"/>
					</g>
					<g>
						<rect x="164.2" y="146.8" fill="#FFDA6E" width="41.7" height="6.6"/>
						<rect x="164.2" y="152.7" fill="#CC9D58" width="41.7" height="0.8"/>
						<g>
							<rect x="166" y="146.8" fill="#8B5E3C" width="1" height="6.7"/>
							<rect x="169.4" y="146.8" fill="#8B5E3C" width="1" height="6.7"/>
							<rect x="172.8" y="146.8" fill="#8B5E3C" width="1" height="6.7"/>
							<rect x="176.3" y="146.8" fill="#8B5E3C" width="1" height="6.7"/>
							<rect x="179.7" y="146.8" fill="#8B5E3C" width="1" height="6.7"/>
							<rect x="183.1" y="146.8" fill="#8B5E3C" width="1" height="6.7"/>
							<rect x="186.5" y="146.8" fill="#8B5E3C" width="1" height="6.7"/>
							<rect x="190" y="146.8" fill="#8B5E3C" width="1" height="6.7"/>
							<rect x="193.4" y="146.8" fill="#8B5E3C" width="1" height="6.7"/>
							<rect x="196.8" y="146.8" fill="#8B5E3C" width="1" height="6.7"/>
							<rect x="200.3" y="146.8" fill="#8B5E3C" width="1" height="6.7"/>
							<rect x="203.7" y="146.8" fill="#8B5E3C" width="1" height="6.7"/>
						</g>
						<rect x="164.2" y="146.8" fill="#A7A9AC" width="21.2" height="6.6"/>
					</g>
					<g>
						<rect x="164.2" y="154.5" fill="#FFDA6E" width="41.7" height="6.6"/>
						<rect x="164.2" y="160.4" fill="#CC9D58" width="41.7" height="0.8"/>
						<g>
							<rect x="166" y="154.5" fill="#8B5E3C" width="1" height="6.7"/>
							<rect x="169.4" y="154.5" fill="#8B5E3C" width="1" height="6.7"/>
							<rect x="172.8" y="154.5" fill="#8B5E3C" width="1" height="6.7"/>
							<rect x="176.3" y="154.5" fill="#8B5E3C" width="1" height="6.7"/>
							<rect x="179.7" y="154.5" fill="#8B5E3C" width="1" height="6.7"/>
							<rect x="183.1" y="154.5" fill="#8B5E3C" width="1" height="6.7"/>
							<rect x="186.5" y="154.5" fill="#8B5E3C" width="1" height="6.7"/>
							<rect x="190" y="154.5" fill="#8B5E3C" width="1" height="6.7"/>
							<rect x="193.4" y="154.5" fill="#8B5E3C" width="1" height="6.7"/>
							<rect x="196.8" y="154.5" fill="#8B5E3C" width="1" height="6.7"/>
							<rect x="200.3" y="154.5" fill="#8B5E3C" width="1" height="6.7"/>
							<rect x="203.7" y="154.5" fill="#8B5E3C" width="1" height="6.7"/>
						</g>
						<rect x="164.2" y="154.5" fill="#A7A9AC" width="21.2" height="6.6"/>
					</g>
					<g>
						<rect x="164.2" y="162.3" fill="#FFDA6E" width="41.7" height="6.6"/>
						<rect x="164.2" y="168.1" fill="#CC9D58" width="41.7" height="0.8"/>
						<g>
							<rect x="166" y="162.2" fill="#8B5E3C" width="1" height="6.7"/>
							<rect x="169.4" y="162.2" fill="#8B5E3C" width="1" height="6.7"/>
							<rect x="172.8" y="162.2" fill="#8B5E3C" width="1" height="6.7"/>
							<rect x="176.3" y="162.2" fill="#8B5E3C" width="1" height="6.7"/>
							<rect x="179.7" y="162.2" fill="#8B5E3C" width="1" height="6.7"/>
							<rect x="183.1" y="162.2" fill="#8B5E3C" width="1" height="6.7"/>
							<rect x="186.5" y="162.2" fill="#8B5E3C" width="1" height="6.7"/>
							<rect x="190" y="162.2" fill="#8B5E3C" width="1" height="6.7"/>
							<rect x="193.4" y="162.2" fill="#8B5E3C" width="1" height="6.7"/>
							<rect x="196.8" y="162.2" fill="#8B5E3C" width="1" height="6.7"/>
							<rect x="200.3" y="162.2" fill="#8B5E3C" width="1" height="6.7"/>
							<rect x="203.7" y="162.2" fill="#8B5E3C" width="1" height="6.7"/>
						</g>
						<rect x="164.2" y="162.3" fill="#A7A9AC" width="21.2" height="6.6"/>
					</g>
				</g>
				<g>
					<g>
						<rect x="102.9" y="139.1" fill="#FFDA6E" width="41.7" height="6.6"/>
						<rect x="102.9" y="144.9" fill="#CC9D58" width="41.7" height="0.8"/>
						<g>
							<rect x="104.7" y="139" fill="#8B5E3C" width="1" height="6.7"/>
							<rect x="108.1" y="139" fill="#8B5E3C" width="1" height="6.7"/>
							<rect x="111.5" y="139" fill="#8B5E3C" width="1" height="6.7"/>
							<rect x="114.9" y="139" fill="#8B5E3C" width="1" height="6.7"/>
							<rect x="118.4" y="139" fill="#8B5E3C" width="1" height="6.7"/>
							<rect x="121.8" y="139" fill="#8B5E3C" width="1" height="6.7"/>
							<rect x="125.2" y="139" fill="#8B5E3C" width="1" height="6.7"/>
							<rect x="128.7" y="139" fill="#8B5E3C" width="1" height="6.7"/>
							<rect x="132.1" y="139" fill="#8B5E3C" width="1" height="6.7"/>
							<rect x="135.5" y="139" fill="#8B5E3C" width="1" height="6.7"/>
							<rect x="138.9" y="139" fill="#8B5E3C" width="1" height="6.7"/>
							<rect x="142.4" y="139" fill="#8B5E3C" width="1" height="6.7"/>
						</g>
						<rect x="102.9" y="139.1" fill="#A7A9AC" width="21.2" height="6.6"/>
					</g>
					<g>
						<rect x="102.9" y="131.4" fill="#FFDA6E" width="41.7" height="6.6"/>
						<rect x="102.9" y="137.2" fill="#CC9D58" width="41.7" height="0.8"/>
						<g>
							<rect x="104.7" y="131.3" fill="#8B5E3C" width="1" height="6.7"/>
							<rect x="108.1" y="131.3" fill="#8B5E3C" width="1" height="6.7"/>
							<rect x="111.5" y="131.3" fill="#8B5E3C" width="1" height="6.7"/>
							<rect x="114.9" y="131.3" fill="#8B5E3C" width="1" height="6.7"/>
							<rect x="118.4" y="131.3" fill="#8B5E3C" width="1" height="6.7"/>
							<rect x="121.8" y="131.3" fill="#8B5E3C" width="1" height="6.7"/>
							<rect x="125.2" y="131.3" fill="#8B5E3C" width="1" height="6.7"/>
							<rect x="128.7" y="131.3" fill="#8B5E3C" width="1" height="6.7"/>
							<rect x="132.1" y="131.3" fill="#8B5E3C" width="1" height="6.7"/>
							<rect x="135.5" y="131.3" fill="#8B5E3C" width="1" height="6.7"/>
							<rect x="138.9" y="131.3" fill="#8B5E3C" width="1" height="6.7"/>
							<rect x="142.4" y="131.3" fill="#8B5E3C" width="1" height="6.7"/>
						</g>
						<rect x="102.9" y="131.4" fill="#A7A9AC" width="21.2" height="6.6"/>
					</g>
					<g>
						<rect x="102.9" y="123.6" fill="#FFDA6E" width="41.7" height="6.6"/>
						<rect x="102.9" y="129.5" fill="#CC9D58" width="41.7" height="0.8"/>
						<g>
							<rect x="104.7" y="123.6" fill="#8B5E3C" width="1" height="6.7"/>
							<rect x="108.1" y="123.6" fill="#8B5E3C" width="1" height="6.7"/>
							<rect x="111.5" y="123.6" fill="#8B5E3C" width="1" height="6.7"/>
							<rect x="114.9" y="123.6" fill="#8B5E3C" width="1" height="6.7"/>
							<rect x="118.4" y="123.6" fill="#8B5E3C" width="1" height="6.7"/>
							<rect x="121.8" y="123.6" fill="#8B5E3C" width="1" height="6.7"/>
							<rect x="125.2" y="123.6" fill="#8B5E3C" width="1" height="6.7"/>
							<rect x="128.7" y="123.6" fill="#8B5E3C" width="1" height="6.7"/>
							<rect x="132.1" y="123.6" fill="#8B5E3C" width="1" height="6.7"/>
							<rect x="135.5" y="123.6" fill="#8B5E3C" width="1" height="6.7"/>
							<rect x="138.9" y="123.6" fill="#8B5E3C" width="1" height="6.7"/>
							<rect x="142.4" y="123.6" fill="#8B5E3C" width="1" height="6.7"/>
						</g>
						<rect x="102.9" y="123.6" fill="#A7A9AC" width="21.2" height="6.6"/>
					</g>
					<g>
						<rect x="102.9" y="115.9" fill="#FFDA6E" width="41.7" height="6.6"/>
						<rect x="102.9" y="121.8" fill="#CC9D58" width="41.7" height="0.8"/>
						<g>
							<rect x="104.7" y="115.9" fill="#8B5E3C" width="1" height="6.7"/>
							<rect x="108.1" y="115.9" fill="#8B5E3C" width="1" height="6.7"/>
							<rect x="111.5" y="115.9" fill="#8B5E3C" width="1" height="6.7"/>
							<rect x="114.9" y="115.9" fill="#8B5E3C" width="1" height="6.7"/>
							<rect x="118.4" y="115.9" fill="#8B5E3C" width="1" height="6.7"/>
							<rect x="121.8" y="115.9" fill="#8B5E3C" width="1" height="6.7"/>
							<rect x="125.2" y="115.9" fill="#8B5E3C" width="1" height="6.7"/>
							<rect x="128.7" y="115.9" fill="#8B5E3C" width="1" height="6.7"/>
							<rect x="132.1" y="115.9" fill="#8B5E3C" width="1" height="6.7"/>
							<rect x="135.5" y="115.9" fill="#8B5E3C" width="1" height="6.7"/>
							<rect x="138.9" y="115.9" fill="#8B5E3C" width="1" height="6.7"/>
							<rect x="142.4" y="115.9" fill="#8B5E3C" width="1" height="6.7"/>
						</g>
						<rect x="102.9" y="115.9" fill="#A7A9AC" width="21.2" height="6.6"/>
					</g>
					<g>
						<rect x="102.9" y="108.2" fill="#FFDA6E" width="41.7" height="6.6"/>
						<rect x="102.9" y="114" fill="#CC9D58" width="41.7" height="0.8"/>
						<g>
							<rect x="104.7" y="108.1" fill="#8B5E3C" width="1" height="6.7"/>
							<rect x="108.1" y="108.1" fill="#8B5E3C" width="1" height="6.7"/>
							<rect x="111.5" y="108.1" fill="#8B5E3C" width="1" height="6.7"/>
							<rect x="114.9" y="108.1" fill="#8B5E3C" width="1" height="6.7"/>
							<rect x="118.4" y="108.1" fill="#8B5E3C" width="1" height="6.7"/>
							<rect x="121.8" y="108.1" fill="#8B5E3C" width="1" height="6.7"/>
							<rect x="125.2" y="108.1" fill="#8B5E3C" width="1" height="6.7"/>
							<rect x="128.7" y="108.1" fill="#8B5E3C" width="1" height="6.7"/>
							<rect x="132.1" y="108.1" fill="#8B5E3C" width="1" height="6.7"/>
							<rect x="135.5" y="108.1" fill="#8B5E3C" width="1" height="6.7"/>
							<rect x="138.9" y="108.1" fill="#8B5E3C" width="1" height="6.7"/>
							<rect x="142.4" y="108.1" fill="#8B5E3C" width="1" height="6.7"/>
						</g>
						<rect x="102.9" y="108.2" fill="#A7A9AC" width="21.2" height="6.6"/>
					</g>
					<g>
						<rect x="102.9" y="100.4" fill="#FFDA6E" width="41.7" height="6.6"/>
						<rect x="102.9" y="106.2" fill="#CC9D58" width="41.7" height="0.8"/>
						<g>
							<rect x="104.7" y="100.3" fill="#8B5E3C" width="1" height="6.7"/>
							<rect x="108.1" y="100.3" fill="#8B5E3C" width="1" height="6.7"/>
							<rect x="111.5" y="100.3" fill="#8B5E3C" width="1" height="6.7"/>
							<rect x="114.9" y="100.3" fill="#8B5E3C" width="1" height="6.7"/>
							<rect x="118.4" y="100.3" fill="#8B5E3C" width="1" height="6.7"/>
							<rect x="121.8" y="100.3" fill="#8B5E3C" width="1" height="6.7"/>
							<rect x="125.2" y="100.3" fill="#8B5E3C" width="1" height="6.7"/>
							<rect x="128.7" y="100.3" fill="#8B5E3C" width="1" height="6.7"/>
							<rect x="132.1" y="100.3" fill="#8B5E3C" width="1" height="6.7"/>
							<rect x="135.5" y="100.3" fill="#8B5E3C" width="1" height="6.7"/>
							<rect x="138.9" y="100.3" fill="#8B5E3C" width="1" height="6.7"/>
							<rect x="142.4" y="100.3" fill="#8B5E3C" width="1" height="6.7"/>
						</g>
						<rect x="102.9" y="100.4" fill="#A7A9AC" width="21.2" height="6.6"/>
					</g>
					<g>
						<rect x="102.9" y="92.5" fill="#FFDA6E" width="41.7" height="6.6"/>
						<rect x="102.9" y="98.4" fill="#CC9D58" width="41.7" height="0.8"/>
						<g>
							<rect x="104.7" y="92.5" fill="#8B5E3C" width="1" height="6.7"/>
							<rect x="108.1" y="92.5" fill="#8B5E3C" width="1" height="6.7"/>
							<rect x="111.5" y="92.5" fill="#8B5E3C" width="1" height="6.7"/>
							<rect x="114.9" y="92.5" fill="#8B5E3C" width="1" height="6.7"/>
							<rect x="118.4" y="92.5" fill="#8B5E3C" width="1" height="6.7"/>
							<rect x="121.8" y="92.5" fill="#8B5E3C" width="1" height="6.7"/>
							<rect x="125.2" y="92.5" fill="#8B5E3C" width="1" height="6.7"/>
							<rect x="128.7" y="92.5" fill="#8B5E3C" width="1" height="6.7"/>
							<rect x="132.1" y="92.5" fill="#8B5E3C" width="1" height="6.7"/>
							<rect x="135.5" y="92.5" fill="#8B5E3C" width="1" height="6.7"/>
							<rect x="138.9" y="92.5" fill="#8B5E3C" width="1" height="6.7"/>
							<rect x="142.4" y="92.5" fill="#8B5E3C" width="1" height="6.7"/>
						</g>
						<rect x="102.9" y="92.5" fill="#A7A9AC" width="21.2" height="6.6"/>
					</g>
					<g>
						<rect x="102.9" y="146.8" fill="#FFDA6E" width="41.7" height="6.6"/>
						<rect x="102.9" y="152.7" fill="#CC9D58" width="41.7" height="0.8"/>
						<g>
							<rect x="104.7" y="146.8" fill="#8B5E3C" width="1" height="6.7"/>
							<rect x="108.1" y="146.8" fill="#8B5E3C" width="1" height="6.7"/>
							<rect x="111.5" y="146.8" fill="#8B5E3C" width="1" height="6.7"/>
							<rect x="114.9" y="146.8" fill="#8B5E3C" width="1" height="6.7"/>
							<rect x="118.4" y="146.8" fill="#8B5E3C" width="1" height="6.7"/>
							<rect x="121.8" y="146.8" fill="#8B5E3C" width="1" height="6.7"/>
							<rect x="125.2" y="146.8" fill="#8B5E3C" width="1" height="6.7"/>
							<rect x="128.7" y="146.8" fill="#8B5E3C" width="1" height="6.7"/>
							<rect x="132.1" y="146.8" fill="#8B5E3C" width="1" height="6.7"/>
							<rect x="135.5" y="146.8" fill="#8B5E3C" width="1" height="6.7"/>
							<rect x="138.9" y="146.8" fill="#8B5E3C" width="1" height="6.7"/>
							<rect x="142.4" y="146.8" fill="#8B5E3C" width="1" height="6.7"/>
						</g>
						<rect x="102.9" y="146.8" fill="#A7A9AC" width="21.2" height="6.6"/>
					</g>
					<g>
						<rect x="102.9" y="154.5" fill="#FFDA6E" width="41.7" height="6.6"/>
						<rect x="102.9" y="160.4" fill="#CC9D58" width="41.7" height="0.8"/>
						<g>
							<rect x="104.7" y="154.5" fill="#8B5E3C" width="1" height="6.7"/>
							<rect x="108.1" y="154.5" fill="#8B5E3C" width="1" height="6.7"/>
							<rect x="111.5" y="154.5" fill="#8B5E3C" width="1" height="6.7"/>
							<rect x="114.9" y="154.5" fill="#8B5E3C" width="1" height="6.7"/>
							<rect x="118.4" y="154.5" fill="#8B5E3C" width="1" height="6.7"/>
							<rect x="121.8" y="154.5" fill="#8B5E3C" width="1" height="6.7"/>
							<rect x="125.2" y="154.5" fill="#8B5E3C" width="1" height="6.7"/>
							<rect x="128.7" y="154.5" fill="#8B5E3C" width="1" height="6.7"/>
							<rect x="132.1" y="154.5" fill="#8B5E3C" width="1" height="6.7"/>
							<rect x="135.5" y="154.5" fill="#8B5E3C" width="1" height="6.7"/>
							<rect x="138.9" y="154.5" fill="#8B5E3C" width="1" height="6.7"/>
							<rect x="142.4" y="154.5" fill="#8B5E3C" width="1" height="6.7"/>
						</g>
						<rect x="102.9" y="154.5" fill="#A7A9AC" width="21.2" height="6.6"/>
					</g>
					<g>
						<rect x="102.9" y="162.3" fill="#FFDA6E" width="41.7" height="6.6"/>
						<rect x="102.9" y="168.1" fill="#CC9D58" width="41.7" height="0.8"/>
						<g>
							<rect x="104.7" y="162.2" fill="#8B5E3C" width="1" height="6.7"/>
							<rect x="108.1" y="162.2" fill="#8B5E3C" width="1" height="6.7"/>
							<rect x="111.5" y="162.2" fill="#8B5E3C" width="1" height="6.7"/>
							<rect x="114.9" y="162.2" fill="#8B5E3C" width="1" height="6.7"/>
							<rect x="118.4" y="162.2" fill="#8B5E3C" width="1" height="6.7"/>
							<rect x="121.8" y="162.2" fill="#8B5E3C" width="1" height="6.7"/>
							<rect x="125.2" y="162.2" fill="#8B5E3C" width="1" height="6.7"/>
							<rect x="128.7" y="162.2" fill="#8B5E3C" width="1" height="6.7"/>
							<rect x="132.1" y="162.2" fill="#8B5E3C" width="1" height="6.7"/>
							<rect x="135.5" y="162.2" fill="#8B5E3C" width="1" height="6.7"/>
							<rect x="138.9" y="162.2" fill="#8B5E3C" width="1" height="6.7"/>
							<rect x="142.4" y="162.2" fill="#8B5E3C" width="1" height="6.7"/>
						</g>
						<rect x="102.9" y="162.3" fill="#A7A9AC" width="21.2" height="6.6"/>
					</g>
				</g>
				<g>
					<g>
						<circle fill="#FFDA6E" cx="156.9" cy="98" r="22"/>
						<path fill="#58595B" d="M156.9,120.5c-12.4,0-22.5-10.1-22.5-22.5c0-12.4,10.1-22.5,22.5-22.5s22.5,10.1,22.5,22.5
							C179.4,110.5,169.3,120.5,156.9,120.5z M156.9,76.6c-11.9,0-21.5,9.6-21.5,21.5c0,11.9,9.6,21.5,21.5,21.5s21.5-9.6,21.5-21.5
							C178.4,86.2,168.8,76.6,156.9,76.6z"/>
					</g>
					<g>
						<circle fill="#414042" cx="156.9" cy="98" r="19.2"/>
						<path fill="#6D6E71" d="M156.9,117.7c-10.8,0-19.7-8.8-19.7-19.7c0-10.8,8.8-19.7,19.7-19.7s19.7,8.8,19.7,19.7
							C176.6,108.9,167.8,117.7,156.9,117.7z M156.9,79.4c-10.3,0-18.7,8.4-18.7,18.7s8.4,18.7,18.7,18.7c10.3,0,18.7-8.4,18.7-18.7
							S167.2,79.4,156.9,79.4z"/>
					</g>
					<path fill="#58595B" d="M156.9,119.1c-11.6,0-21.1-9.4-21.1-21.1S145.3,77,156.9,77S178,86.4,178,98S168.5,119.1,156.9,119.1z
						 M156.9,77.5c-11.3,0-20.6,9.2-20.6,20.6s9.2,20.6,20.6,20.6s20.6-9.2,20.6-20.6S168.3,77.5,156.9,77.5z"/>
					<g>
						<path fill="#F7A823" d="M161.9,91.7c-1.3-1.2-2.5-1.9-4.2-1.9c-1.9,0-3,0.9-3,2.7c0,4,9.9,3.4,9.9,10.7c0,3.5-2,6.2-5.7,6.9
							v3.8h-3.2v-3.6c-2.2-0.3-4.7-1.3-6.4-2.8l2.1-3.2c1.8,1.4,3.5,2.2,5.4,2.2c2.3,0,3.3-1,3.3-2.9c0-4.4-9.9-4-9.9-10.8
							c0-3.5,2.1-6,5.5-6.6v-3.8h3.2V86c2.3,0.3,4,1.5,5.4,3L161.9,91.7z"/>
					</g>
				</g>
				<g>
					<g>
						<rect x="135" y="139.1" fill="#FFDA6E" width="41.7" height="6.6"/>
						<rect x="135" y="144.9" fill="#CC9D58" width="41.7" height="0.8"/>
						<g>
							<rect x="136.8" y="139" fill="#8B5E3C" width="1" height="6.7"/>
							<rect x="140.3" y="139" fill="#8B5E3C" width="1" height="6.7"/>
							<rect x="143.7" y="139" fill="#8B5E3C" width="1" height="6.7"/>
							<rect x="147.1" y="139" fill="#8B5E3C" width="1" height="6.7"/>
							<rect x="150.5" y="139" fill="#8B5E3C" width="1" height="6.7"/>
							<rect x="154" y="139" fill="#8B5E3C" width="1" height="6.7"/>
							<rect x="157.4" y="139" fill="#8B5E3C" width="1" height="6.7"/>
							<rect x="160.8" y="139" fill="#8B5E3C" width="1" height="6.7"/>
							<rect x="164.3" y="139" fill="#8B5E3C" width="1" height="6.7"/>
							<rect x="167.7" y="139" fill="#8B5E3C" width="1" height="6.7"/>
							<rect x="171.1" y="139" fill="#8B5E3C" width="1" height="6.7"/>
							<rect x="174.5" y="139" fill="#8B5E3C" width="1" height="6.7"/>
						</g>
						<rect x="135" y="139.1" fill="#A7A9AC" width="21.2" height="6.6"/>
					</g>
					<g>
						<rect x="135" y="146.8" fill="#FFDA6E" width="41.7" height="6.6"/>
						<rect x="135" y="152.7" fill="#CC9D58" width="41.7" height="0.8"/>
						<g>
							<rect x="136.8" y="146.8" fill="#8B5E3C" width="1" height="6.7"/>
							<rect x="140.3" y="146.8" fill="#8B5E3C" width="1" height="6.7"/>
							<rect x="143.7" y="146.8" fill="#8B5E3C" width="1" height="6.7"/>
							<rect x="147.1" y="146.8" fill="#8B5E3C" width="1" height="6.7"/>
							<rect x="150.5" y="146.8" fill="#8B5E3C" width="1" height="6.7"/>
							<rect x="154" y="146.8" fill="#8B5E3C" width="1" height="6.7"/>
							<rect x="157.4" y="146.8" fill="#8B5E3C" width="1" height="6.7"/>
							<rect x="160.8" y="146.8" fill="#8B5E3C" width="1" height="6.7"/>
							<rect x="164.3" y="146.8" fill="#8B5E3C" width="1" height="6.7"/>
							<rect x="167.7" y="146.8" fill="#8B5E3C" width="1" height="6.7"/>
							<rect x="171.1" y="146.8" fill="#8B5E3C" width="1" height="6.7"/>
							<rect x="174.5" y="146.8" fill="#8B5E3C" width="1" height="6.7"/>
						</g>
						<rect x="135" y="146.8" fill="#A7A9AC" width="21.2" height="6.6"/>
					</g>
					<g>
						<rect x="135" y="154.5" fill="#FFDA6E" width="41.7" height="6.6"/>
						<rect x="135" y="160.4" fill="#CC9D58" width="41.7" height="0.8"/>
						<g>
							<rect x="136.8" y="154.5" fill="#8B5E3C" width="1" height="6.7"/>
							<rect x="140.3" y="154.5" fill="#8B5E3C" width="1" height="6.7"/>
							<rect x="143.7" y="154.5" fill="#8B5E3C" width="1" height="6.7"/>
							<rect x="147.1" y="154.5" fill="#8B5E3C" width="1" height="6.7"/>
							<rect x="150.5" y="154.5" fill="#8B5E3C" width="1" height="6.7"/>
							<rect x="154" y="154.5" fill="#8B5E3C" width="1" height="6.7"/>
							<rect x="157.4" y="154.5" fill="#8B5E3C" width="1" height="6.7"/>
							<rect x="160.8" y="154.5" fill="#8B5E3C" width="1" height="6.7"/>
							<rect x="164.3" y="154.5" fill="#8B5E3C" width="1" height="6.7"/>
							<rect x="167.7" y="154.5" fill="#8B5E3C" width="1" height="6.7"/>
							<rect x="171.1" y="154.5" fill="#8B5E3C" width="1" height="6.7"/>
							<rect x="174.5" y="154.5" fill="#8B5E3C" width="1" height="6.7"/>
						</g>
						<rect x="135" y="154.5" fill="#A7A9AC" width="21.2" height="6.6"/>
					</g>
					<g>
						<rect x="135" y="162.3" fill="#FFDA6E" width="41.7" height="6.6"/>
						<rect x="135" y="168.1" fill="#CC9D58" width="41.7" height="0.8"/>
						<g>
							<rect x="136.8" y="162.2" fill="#8B5E3C" width="1" height="6.7"/>
							<rect x="140.3" y="162.2" fill="#8B5E3C" width="1" height="6.7"/>
							<rect x="143.7" y="162.2" fill="#8B5E3C" width="1" height="6.7"/>
							<rect x="147.1" y="162.2" fill="#8B5E3C" width="1" height="6.7"/>
							<rect x="150.5" y="162.2" fill="#8B5E3C" width="1" height="6.7"/>
							<rect x="154" y="162.2" fill="#8B5E3C" width="1" height="6.7"/>
							<rect x="157.4" y="162.2" fill="#8B5E3C" width="1" height="6.7"/>
							<rect x="160.8" y="162.2" fill="#8B5E3C" width="1" height="6.7"/>
							<rect x="164.3" y="162.2" fill="#8B5E3C" width="1" height="6.7"/>
							<rect x="167.7" y="162.2" fill="#8B5E3C" width="1" height="6.7"/>
							<rect x="171.1" y="162.2" fill="#8B5E3C" width="1" height="6.7"/>
							<rect x="174.5" y="162.2" fill="#8B5E3C" width="1" height="6.7"/>
						</g>
						<rect x="135" y="162.3" fill="#A7A9AC" width="21.2" height="6.6"/>
					</g>
					<g>
						
							<rect x="134" y="126.1" transform="matrix(0.9728 -0.2315 0.2315 0.9728 -25.7549 39.3723)" fill="#FFDA6E" width="41.7" height="6.6"/>
						
							<rect x="134.7" y="131.9" transform="matrix(0.9728 -0.2315 0.2315 0.9728 -26.3939 39.6059)" fill="#CC9D58" width="41.7" height="0.8"/>
						<g>
							
								<rect x="133.4" y="133.2" transform="matrix(0.2314 0.9729 -0.9729 0.2314 235.1849 -30.3055)" fill="#8B5E3C" width="6.7" height="1"/>
							
								<rect x="136.8" y="132.4" transform="matrix(0.2314 0.9729 -0.9729 0.2314 236.9746 -34.1615)" fill="#8B5E3C" width="6.7" height="1"/>
							
								<rect x="140.1" y="131.6" transform="matrix(0.2314 0.9729 -0.9729 0.2314 238.7644 -38.0173)" fill="#8B5E3C" width="6.7" height="1"/>
							
								<rect x="143.4" y="130.8" transform="matrix(0.2314 0.9728 -0.9728 0.2314 240.5539 -41.8731)" fill="#8B5E3C" width="6.7" height="1"/>
							
								<rect x="146.8" y="130" transform="matrix(0.2315 0.9728 -0.9728 0.2315 242.3435 -45.7289)" fill="#8B5E3C" width="6.7" height="1"/>
							
								<rect x="150.1" y="129.2" transform="matrix(0.2315 0.9728 -0.9728 0.2315 244.133 -49.5847)" fill="#8B5E3C" width="6.7" height="1"/>
							
								<rect x="153.5" y="128.4" transform="matrix(0.2315 0.9728 -0.9728 0.2315 245.9225 -53.4404)" fill="#8B5E3C" width="6.7" height="1"/>
							
								<rect x="156.8" y="127.6" transform="matrix(0.2315 0.9728 -0.9728 0.2315 247.7119 -57.2962)" fill="#8B5E3C" width="6.7" height="1"/>
							
								<rect x="160.1" y="126.8" transform="matrix(0.2315 0.9728 -0.9728 0.2315 249.5012 -61.1518)" fill="#8B5E3C" width="6.7" height="1"/>
							
								<rect x="163.5" y="126" transform="matrix(0.2315 0.9728 -0.9728 0.2315 251.2905 -65.0075)" fill="#8B5E3C" width="6.7" height="1"/>
							
								<rect x="166.8" y="125.3" transform="matrix(0.2315 0.9728 -0.9728 0.2315 253.0797 -68.8631)" fill="#8B5E3C" width="6.7" height="1"/>
							
								<rect x="170.1" y="124.5" transform="matrix(0.2315 0.9728 -0.9728 0.2315 254.8688 -72.7187)" fill="#8B5E3C" width="6.7" height="1"/>
						</g>
						
							<rect x="134.3" y="128.5" transform="matrix(0.9728 -0.2315 0.2315 0.9728 -26.5758 37.1266)" fill="#A7A9AC" width="21.2" height="6.6"/>
					</g>
				</g>
			</g>
		</g>
		<g>
			<path fill="#F7A823" d="M110.3,27.6l10-8.6h-16.6v-7h26.9v6.5l-9.8,8.2c5.7,0.2,11,4.6,11,11.6c0,6.6-5.4,12.6-14.6,12.6
				c-8.8,0-14.2-5.7-14.7-12.1l7.8-1.5c0.2,3.9,2.9,6.7,6.9,6.7c4,0,6.4-2.6,6.4-5.7c0-3.6-2.6-5.6-6.2-5.6c-1.6,0-2.6,0.3-3.5,0.6
				L110.3,27.6z"/>
			<path fill="#F7A823" d="M139,17.5c2.5-3.7,6.6-6.4,12.5-6.4s10,2.6,12.5,6.4c2.6,3.9,3.4,8.7,3.4,13.5s-0.8,9.6-3.4,13.5
				c-2.5,3.7-6.6,6.4-12.5,6.4s-10-2.6-12.5-6.4c-2.6-3.9-3.3-8.7-3.3-13.5S136.5,21.5,139,17.5z M145.8,40.7c1.2,1.9,3,3.1,5.7,3.1
				c2.8,0,4.5-1.2,5.7-3.1c1.5-2.3,2.1-5.7,2.1-9.7s-0.6-7.4-2.1-9.7c-1.2-1.9-2.9-3.1-5.7-3.1c-2.8,0-4.6,1.2-5.7,3.1
				c-1.5,2.3-2.1,5.7-2.1,9.7S144.4,38.5,145.8,40.7z"/>
			<path fill="#F7A823" d="M181,11.4c5.3,0,9.8,4.2,9.8,9.6c0,5.4-4.5,9.5-9.8,9.5c-5.3,0-9.7-4.2-9.7-9.5
				C171.2,15.6,175.7,11.4,181,11.4z M177,50.1l26.8-38h6.8l-26.8,38H177z M181,25.1c2.2,0,3.9-1.7,3.9-4.1c0-2.4-1.6-4-3.9-4
				c-2.2,0-3.9,1.6-3.9,4C177.1,23.5,178.8,25.1,181,25.1z M206.6,31.5c5.3,0,9.8,4.2,9.8,9.6c0,5.4-4.5,9.5-9.8,9.5
				c-5.3,0-9.7-4.2-9.7-9.5C196.8,35.8,201.3,31.5,206.6,31.5z M206.6,45.2c2.2,0,3.9-1.7,3.9-4.1c0-2.4-1.6-4-3.9-4
				c-2.2,0-3.9,1.6-3.9,4C202.7,43.6,204.4,45.2,206.6,45.2z"/>
		</g>
	</g>
	<polygon fill="#7F58A5" points="1,172.4 0,172.4 0,120 61.8,120 61.8,121 1,121 	"/>
	<path fill="#7F58A5" d="M324.4,198.1h-17v-1h17c11.5,0,20.9-9.4,20.9-20.9v-28.9c0-14.8-12-26.8-26.8-26.8H238v-1h80.6
		c15.3,0,27.8,12.5,27.8,27.8v28.9C346.3,188.3,336.5,198.1,324.4,198.1z"/>
</g>
<g>
</g>
<g>
</g>
<g>
</g>
<g>
</g>
<g>
</g>
<g>
</g>
<g>
</g>
<g>
</g>
<g>
</g>
<g>
</g>
<g>
</g>
<g>
</g>
<g>
</g>
<g>
</g>
<g>
</g>
</svg>
