<?xml version="1.0" encoding="utf-8"?>
<!-- Generator: Adobe Illustrator 18.0.0, SVG Export Plug-In . SVG Version: 6.00 Build 0)  -->
<!DOCTYPE svg PUBLIC "-//W3C//DTD SVG 1.1//EN" "http://www.w3.org/Graphics/SVG/1.1/DTD/svg11.dtd">
<svg version="1.1" id="Layer_1" xmlns="http://www.w3.org/2000/svg" xmlns:xlink="http://www.w3.org/1999/xlink" x="0px" y="0px"
	 viewBox="0 0 132 19.7" enable-background="new 0 0 132 19.7" xml:space="preserve">
<g>
	<rect x="0" y="0" fill="none" width="132" height="19.3"/>
	<path fill="#999999" d="M1.3,1.3H0.2V1h1.1V1.3z M1.6,3.3C1.3,3.5,0.8,3.7,0.4,3.8c0-0.1-0.1-0.2-0.2-0.2c0.4-0.1,0.9-0.2,1.2-0.4
		L1.6,3.3z M1.2,0.6H0.3V0.4h0.9V0.6z M3.3,3.2H0.7V1.6h2.6V3.2z M3,1.8H1v0.3H3V1.8z M3,2.2H1v0.3H3V2.2z M3,2.7H1V3H3V2.7z
		 M2.7,0.7c0,0,0,0.1,0,0.1c0.2,0.2,0.7,0.4,1.2,0.5C3.8,1.4,3.7,1.5,3.7,1.5C3.2,1.5,2.8,1.3,2.6,1.1C2.4,1.3,2.1,1.4,1.4,1.6
		c0-0.1-0.1-0.2-0.1-0.2c1-0.1,1.1-0.4,1.1-0.7v0H2C1.9,0.8,1.8,1,1.7,1.1c0,0-0.1-0.1-0.2-0.1c0.2-0.2,0.4-0.5,0.5-0.8l0.2,0.1
		c0,0.1-0.1,0.2-0.1,0.2h1.4l0,0l0.2,0.1C3.6,0.7,3.5,0.9,3.4,1.1L3.1,1c0.1-0.1,0.1-0.2,0.2-0.3L2.7,0.7L2.7,0.7z M2.6,3.2
		C3,3.4,3.5,3.5,3.8,3.7L3.5,3.8C3.3,3.7,2.8,3.5,2.4,3.4L2.6,3.2z"/>
	<path fill="#999999" d="M4.8,2.1c-0.1,0.4-0.3,1-0.5,1.3c0-0.1-0.1-0.2-0.1-0.3C4.3,2.8,4.5,2.4,4.6,2L4.8,2.1z M5.1,1.8v2.1H4.9
		V1.8H4.2V1.5h0.6V0.2h0.2v1.3h0.7v0.2H5.1z M4.5,1.4c0-0.2-0.1-0.6-0.2-0.9l0.2,0c0.1,0.3,0.2,0.6,0.2,0.9L4.5,1.4z M5.3,2
		c0.1,0.1,0.4,0.7,0.4,0.8L5.5,3C5.5,2.8,5.2,2.3,5.1,2.1L5.3,2z M5.8,0.5C5.7,0.8,5.5,1.2,5.4,1.4L5.2,1.3c0.1-0.2,0.2-0.6,0.3-0.9
		L5.8,0.5z M7.3,2.7v1.1H7.1V2.7L5.8,3l0-0.2l1.3-0.2V0.2h0.3v2.3l0.5-0.1l0,0.2L7.3,2.7z M6.5,2.1C6.4,2,6.1,1.8,5.9,1.7L6,1.5
		c0.2,0.1,0.5,0.3,0.7,0.4L6.5,2.1z M6.7,1.2C6.6,1,6.3,0.8,6.1,0.7l0.1-0.2C6.4,0.6,6.7,0.8,6.8,1L6.7,1.2z"/>
	<path fill="#999999" d="M10.1,2c0.4,0.6,1,1.2,1.7,1.4c-0.1,0.1-0.2,0.2-0.2,0.2c-0.6-0.2-1.1-0.7-1.5-1.3v1.4H9.9V2.4
		c-0.4,0.5-1,1-1.5,1.2c0-0.1-0.1-0.2-0.2-0.2C8.8,3.1,9.5,2.6,9.9,2V1H8.3V0.7h1.6V0.2h0.3v0.6h1.6V1h-1.6V2z M9.3,1.2
		c0,0.2-0.1,0.3-0.2,0.5C9.3,1.8,9.5,2,9.6,2.1L9.4,2.3C9.3,2.2,9.2,2,9,1.9C8.9,2.1,8.7,2.3,8.5,2.5c0,0-0.2-0.1-0.2-0.2
		C8.6,2.1,8.9,1.6,9,1.1L9.3,1.2z M11.2,1.2c0,0.2-0.1,0.3-0.1,0.5c0.3,0.2,0.6,0.5,0.7,0.6l-0.2,0.2c-0.1-0.2-0.4-0.4-0.6-0.6
		c-0.1,0.2-0.2,0.4-0.4,0.5c-0.1,0-0.2-0.1-0.2-0.1c0.3-0.2,0.5-0.6,0.6-1.1L11.2,1.2z"/>
	<path fill="#999999" d="M12.8,1.9c-0.2-0.1-0.5-0.3-0.7-0.4l0.1-0.2c0.2,0.1,0.5,0.3,0.7,0.4L12.8,1.9z M13.1,2.5
		c-0.2,0.4-0.4,0.9-0.6,1.3l-0.2-0.1c0.2-0.3,0.4-0.8,0.6-1.3L13.1,2.5z M13,0.9c-0.2-0.1-0.4-0.3-0.7-0.5l0.2-0.2
		c0.2,0.1,0.5,0.3,0.7,0.4L13,0.9z M13.6,1.5c0,0.7-0.1,1.7-0.5,2.3c0,0-0.2-0.1-0.2-0.1c0.5-0.6,0.5-1.5,0.5-2.2V0.4h2.4v0.2h-2.2
		V1.5z M14.3,2.8c-0.1,0.3-0.3,0.6-0.5,0.8c0,0-0.2-0.1-0.2-0.1C13.7,3.2,13.9,3,14,2.7L14.3,2.8z M14.9,2.5v1.1
		c0,0.1,0,0.2-0.1,0.2c-0.1,0-0.3,0-0.5,0c0-0.1,0-0.2-0.1-0.2c0.2,0,0.4,0,0.4,0c0.1,0,0.1,0,0.1-0.1V2.5h-0.7V1.1h0.6
		c0-0.1,0.1-0.3,0.1-0.4l0.3,0.1c-0.1,0.1-0.1,0.2-0.2,0.4h0.9v1.4H14.9z M14.1,1.7h1.3V1.3h-1.3V1.7z M14.1,2.3h1.3V1.9h-1.3V2.3z
		 M15.4,2.7c0.2,0.2,0.4,0.6,0.5,0.8l-0.2,0.1c-0.1-0.2-0.3-0.5-0.5-0.8L15.4,2.7z"/>
	<path fill="#999999" d="M16.7,1c0-0.2,0.1-0.3,0.3-0.3c0.2,0,0.3,0.1,0.3,0.3c0,0.2-0.1,0.3-0.3,0.3C16.8,1.3,16.7,1.2,16.7,1z
		 M16.7,3c0-0.2,0.1-0.3,0.3-0.3c0.2,0,0.3,0.1,0.3,0.3S17.2,3.3,17,3.3C16.8,3.3,16.7,3.2,16.7,3z"/>
	<path fill="#999999" d="M19.6,1.7c0,0,0,0.1,0,0.1c0,1.3-0.1,1.8-0.2,1.9c-0.1,0.1-0.1,0.1-0.2,0.1c-0.1,0-0.3,0-0.4,0
		c0-0.1,0-0.2-0.1-0.2c0.2,0,0.3,0,0.4,0c0.1,0,0.1,0,0.1-0.1c0.1-0.1,0.1-0.5,0.1-1.6h-0.5c0,0.8-0.2,1.5-0.5,1.9
		c0-0.1-0.1-0.1-0.2-0.2c0.4-0.6,0.5-1.6,0.5-2.6h-0.4V0.8h1.6v0.3h-0.9c0,0.2,0,0.4,0,0.6H19.6z M19,0.8c0-0.1-0.1-0.4-0.2-0.5
		L19,0.2c0.1,0.2,0.2,0.4,0.2,0.5L19,0.8z M20.2,1c-0.1,0.3-0.2,0.5-0.4,0.7c0,0-0.1-0.1-0.2-0.2c0.3-0.3,0.5-0.8,0.6-1.3l0.3,0.1
		c0,0.2-0.1,0.4-0.2,0.5h1.5V1H20.2z M21.4,3.6c0.2,0,0.2-0.1,0.2-0.5c0.1,0,0.2,0.1,0.2,0.1c0,0.5-0.1,0.6-0.4,0.6h-0.8
		c-0.4,0-0.5-0.1-0.5-0.4v-1l-0.3,0.1l-0.1-0.2l0.4-0.2V1.5h0.2V2l0.4-0.2V1.2h0.2v0.5l0.5-0.2l0.1-0.1l0.2,0.1l0,0
		c0,0.4,0,1-0.1,1.4l-0.2,0c0-0.3,0-0.7,0-1.1L20.9,2v1.2h-0.2V2.1l-0.4,0.2v1.1c0,0.2,0,0.2,0.3,0.2H21.4z"/>
	<path fill="#999999" d="M22.7,3c0,0.3-0.1,0.6-0.2,0.8c-0.1,0-0.2,0-0.2-0.1c0.1-0.2,0.2-0.5,0.2-0.7L22.7,3z M23.5,2.1
		c0.1,0.2,0.3,0.5,0.3,0.7l-0.2,0.1c0-0.1,0-0.1-0.1-0.2c-1,0.1-1.1,0.1-1.2,0.2c0,0,0-0.1-0.1-0.2c0.1,0,0.2-0.1,0.3-0.2
		C22.7,2.4,22.8,2.2,23,2c-0.5,0-0.6,0.1-0.6,0.1c0,0,0-0.2-0.1-0.2c0.1,0,0.1-0.1,0.2-0.1c0.1-0.1,0.3-0.3,0.5-0.6h-0.5V0.3h3.1
		v0.8H23l0.2,0.1c-0.2,0.2-0.3,0.4-0.5,0.6l0.5,0c0.1-0.1,0.2-0.2,0.3-0.3l0.2,0.1c-0.3,0.3-0.6,0.7-0.9,0.9l0.8-0.1
		c0-0.1-0.1-0.2-0.2-0.3L23.5,2.1z M22.7,1h0.7V0.5h-0.7V1z M23.1,3c0.1,0.2,0.1,0.5,0.1,0.7l-0.2,0C23,3.5,23,3.2,22.9,3L23.1,3z
		 M23.5,2.9c0.1,0.2,0.2,0.5,0.3,0.6l-0.2,0c0-0.2-0.2-0.4-0.3-0.6L23.5,2.9z M23.6,1h0.7V0.5h-0.7V1z M25.8,3.7h-1.5v0.2H24V2.1
		c-0.1,0.1-0.1,0.2-0.2,0.2c0,0-0.1-0.1-0.2-0.2c0.3-0.3,0.5-0.6,0.6-1l0.2,0.1c-0.1,0.2-0.1,0.3-0.2,0.5h0.6
		c-0.1-0.1-0.1-0.3-0.2-0.4l0.2-0.1c0.1,0.2,0.2,0.3,0.2,0.5h0.6v0.2h-0.6v0.4h0.5v0.2h-0.5v0.4h0.5v0.2h-0.5v0.4h0.7V3.7z
		 M24.9,1.9h-0.6v0.4h0.6V1.9z M24.9,2.5h-0.6v0.4h0.6V2.5z M24.3,3.4h0.6V3.1h-0.6V3.4z M24.6,1h0.7V0.5h-0.7V1z"/>
	<path fill="#999999" d="M27.3,1.1c-0.1,0.2-0.2,0.4-0.3,0.6v2.1h-0.2V2c-0.1,0.2-0.3,0.3-0.4,0.5c0-0.1-0.1-0.2-0.2-0.2
		C26.5,2,26.8,1.5,27.1,1L27.3,1.1z M27.2,0.3c-0.2,0.3-0.6,0.7-0.9,1c0-0.1-0.1-0.2-0.1-0.2c0.3-0.2,0.7-0.6,0.8-0.9L27.2,0.3z
		 M27.1,3.6c0.2-0.2,0.3-0.5,0.4-0.7l0.2,0.1c-0.1,0.2-0.2,0.6-0.4,0.8L27.1,3.6z M29.8,2.3v0.2h-2.6V2.3H29.8z M28.3,1
		c0-0.1,0-0.2,0.1-0.3h-1.1V0.5h1.1c0-0.1,0-0.2,0-0.3l0.3,0c0,0.1,0,0.2-0.1,0.3h1.1v0.2h-1.2c0,0.1,0,0.2-0.1,0.3h1.1v1h-2.2V1
		H28.3z M28.1,1.2h-0.4v0.6h0.4V1.2z M28.9,3.6c0.1,0,0.2,0,0.2-0.4c0.1,0,0.1,0.1,0.2,0.1c0,0.4-0.1,0.5-0.4,0.5h-0.6
		c-0.3,0-0.4-0.1-0.4-0.3V2.8h0.2v0.6c0,0.1,0,0.1,0.2,0.1H28.9z M28.6,3.1c-0.1-0.1-0.2-0.4-0.3-0.5l0.2-0.1
		c0.1,0.2,0.2,0.4,0.3,0.5L28.6,3.1z M28.8,1.2h-0.4v0.6h0.4V1.2z M29,1.8h0.5V1.2H29V1.8z M29.4,2.8c0.2,0.2,0.3,0.6,0.4,0.8
		l-0.2,0.1c-0.1-0.2-0.2-0.5-0.4-0.8L29.4,2.8z"/>
	<path fill="#999999" d="M30.6,2.6c0.3-0.1,0.5-0.3,0.5-0.6c0,0-0.1,0-0.1,0c-0.2,0-0.3-0.1-0.3-0.3c0-0.2,0.1-0.3,0.3-0.3
		c0.2,0,0.3,0.2,0.3,0.4c0,0.4-0.3,0.7-0.7,0.9L30.6,2.6z"/>
	<path fill="#999999" d="M35.6,1.7C35.4,2.2,35.2,2.6,35,3c0.1,0.3,0.3,0.5,0.4,0.5c0.1,0,0.2-0.2,0.2-0.6C35.7,2.9,35.8,3,35.8,3
		c0,0.6-0.1,0.8-0.4,0.8c-0.3,0-0.5-0.2-0.6-0.5c-0.2,0.2-0.4,0.4-0.6,0.6c0-0.1-0.1-0.1-0.2-0.2c0.1,0,0.1-0.1,0.2-0.1h-1.4v0.2
		h-0.2V2.3c-0.1,0.1-0.1,0.2-0.2,0.2c0,0-0.1-0.1-0.2-0.1c0.3-0.2,0.5-0.6,0.6-0.9L33,1.5c-0.1,0.1-0.1,0.2-0.2,0.4h0.6
		c0-0.1-0.1-0.2-0.2-0.3l0.2-0.1c0.1,0.1,0.2,0.3,0.2,0.4l0,0h0.5v0.2h-0.6v0.3h0.5v0.2h-0.5v0.3h0.5V3h-0.5v0.3h0.6v0.2
		c0.2-0.1,0.3-0.3,0.5-0.5c-0.1-0.4-0.2-1-0.3-1.6h-2.2V1.2h0.9V0.8h-0.8V0.6h0.8V0.2h0.3v0.4h0.7v0.2h-0.7v0.4h1c0-0.3,0-0.6,0-1
		h0.3c0,0.3,0,0.7,0,1h1.1v0.2h-1.1c0,0.5,0.1,0.9,0.2,1.3c0.2-0.3,0.3-0.7,0.4-1L35.6,1.7z M33.4,2.1h-0.6v0.3h0.6V2.1z M33.4,2.5
		h-0.6v0.3h0.6V2.5z M32.8,3.3h0.6V3h-0.6V3.3z M35.5,1c-0.1-0.2-0.4-0.4-0.6-0.6l0.2-0.1c0.2,0.2,0.5,0.4,0.6,0.6L35.5,1z"/>
	<path fill="#999999" d="M39.8,3.4v0.3h-3.5V3.4h1.6V2.6h-1.3V2.4h1.3V1.9h0.3v0.5h1.3v0.2h-1.3v0.8H39.8z M39.4,1.9
		c-0.1-0.1-0.2-0.2-0.3-0.3c-2.2,0.1-2.4,0.1-2.5,0.2c0-0.1-0.1-0.2-0.1-0.3c0.1,0,0.2-0.1,0.3-0.2c0.1-0.1,0.4-0.4,0.6-0.7h-1.1
		V0.4h3.3v0.2h-1.9C37.5,1,37.2,1.3,37,1.5l1.9-0.1c-0.2-0.2-0.4-0.3-0.5-0.4l0.2-0.1c0.4,0.3,0.8,0.7,1,0.9L39.4,1.9z"/>
	<path fill="#999999" d="M40.2,3.3c0.9-0.8,1.4-1.4,1.4-1.9c0-0.3-0.2-0.6-0.6-0.6c-0.2,0-0.5,0.2-0.6,0.3L40.2,1
		c0.2-0.3,0.5-0.4,0.9-0.4c0.5,0,0.8,0.3,0.8,0.9c0,0.6-0.5,1.2-1.2,1.9c0.2,0,0.3,0,0.5,0H42v0.3h-1.8V3.3z"/>
	<path fill="#999999" d="M42.4,2c0-1,0.3-1.5,0.9-1.5c0.5,0,0.9,0.5,0.9,1.5c0,1-0.3,1.5-0.9,1.5C42.7,3.6,42.4,3.1,42.4,2z M43.9,2
		c0-0.9-0.2-1.2-0.6-1.2c-0.3,0-0.6,0.4-0.6,1.2c0,0.9,0.2,1.3,0.6,1.3C43.6,3.3,43.9,2.9,43.9,2z"/>
	<path fill="#999999" d="M44.7,3.2h0.7V1h-0.5V0.8c0.3,0,0.4-0.1,0.6-0.2h0.2v2.7h0.6v0.3h-1.6V3.2z"/>
	<path fill="#999999" d="M48.2,0.9h-1.4V0.6h1.8v0.2c-0.7,0.9-0.8,1.6-0.9,2.7h-0.3C47.4,2.4,47.6,1.7,48.2,0.9z"/>
	<path fill="#999999" d="M52.6,2.9h-1.5v0.9h-0.3V2.9H49V2.6h0.7V1.6h1.2V0.9h-1c-0.2,0.3-0.4,0.6-0.6,0.8c-0.1,0-0.2-0.1-0.2-0.2
		c0.4-0.3,0.7-0.8,0.9-1.4l0.3,0.1c-0.1,0.1-0.1,0.3-0.2,0.4h2.4v0.3h-1.3v0.6h1.2v0.3h-1.2v0.8h1.5V2.9z M50.8,2.6V1.8h-0.9v0.8
		H50.8z"/>
	<path fill="#999999" d="M53,2.8c0-0.4,0.3-0.7,0.5-0.8v0c-0.2-0.1-0.4-0.4-0.4-0.7c0-0.4,0.3-0.7,0.8-0.7c0.5,0,0.8,0.3,0.8,0.8
		c0,0.3-0.2,0.6-0.4,0.7v0c0.3,0.1,0.5,0.4,0.5,0.8c0,0.4-0.4,0.8-0.9,0.8C53.4,3.6,53,3.2,53,2.8z M54.5,2.8c0-0.4-0.4-0.6-0.8-0.7
		c-0.2,0.2-0.4,0.4-0.4,0.7c0,0.3,0.3,0.6,0.6,0.6C54.2,3.3,54.5,3.1,54.5,2.8z M54.4,1.3c0-0.3-0.2-0.5-0.5-0.5
		c-0.3,0-0.5,0.2-0.5,0.5c0,0.4,0.3,0.5,0.7,0.7C54.3,1.8,54.4,1.6,54.4,1.3z"/>
	<path fill="#999999" d="M58.2,3.4c0,0.2-0.1,0.3-0.2,0.3c-0.1,0-0.4,0.1-0.8,0.1c0-0.1-0.1-0.2-0.1-0.3c0.3,0,0.7,0,0.8,0
		c0.1,0,0.1,0,0.1-0.1V2.6h-2c-0.1,0.5-0.3,0.9-0.7,1.3c0-0.1-0.1-0.2-0.2-0.2c0.6-0.6,0.7-1.4,0.7-2V0.4h2.4V3.4z M58,2.3V1.6h-1.9
		c0,0.2,0,0.5,0,0.7H58z M56.1,0.7v0.7H58V0.7H56.1z"/>
	<path fill="#999999" d="M59.1,3.2L59.3,3c0.2,0.2,0.4,0.3,0.7,0.3c0.4,0,0.6-0.2,0.6-0.6c0-0.4-0.2-0.6-0.9-0.6V1.9
		c0.6,0,0.8-0.3,0.8-0.6c0-0.3-0.2-0.5-0.5-0.5c-0.2,0-0.5,0.1-0.6,0.3l-0.2-0.2c0.2-0.2,0.5-0.3,0.8-0.3c0.5,0,0.8,0.3,0.8,0.7
		c0,0.4-0.2,0.6-0.5,0.7v0c0.3,0.1,0.6,0.3,0.6,0.7c0,0.5-0.4,0.8-0.9,0.8C59.6,3.6,59.3,3.4,59.1,3.2z"/>
	<path fill="#999999" d="M61.5,3.2h0.7V1h-0.5V0.8c0.3,0,0.4-0.1,0.6-0.2h0.2v2.7h0.6v0.3h-1.6V3.2z"/>
	<path fill="#999999" d="M66.7,0.5v3.3h-0.3V3.5h-2v0.3h-0.3V0.5H66.7z M64.4,0.7v1.1h2V0.7H64.4z M66.4,3.3V2.1h-2v1.1H66.4z"/>
	<path fill="#999999" d="M68.4,1.4C68.7,1.4,69,1.7,69,2c0,0.3-0.3,0.6-0.6,0.6c-0.3,0-0.6-0.3-0.6-0.6C67.8,1.7,68.1,1.4,68.4,1.4z
		 M68.4,2.4c0.2,0,0.4-0.2,0.4-0.4c0-0.2-0.2-0.4-0.4-0.4C68.2,1.6,68,1.8,68,2C68,2.2,68.2,2.4,68.4,2.4z"/>
	<path fill="#999999" d="M71.8,1.3c0.3,0.7,0.8,1.3,1.4,1.6C73.2,3,73.1,3.1,73,3.2c-0.6-0.4-1.1-1.1-1.4-1.9h-0.1v1.5h1v0.3h-1v0.8
		h-0.3V3.1h-0.9V2.8h0.9V1.3h-0.1c-0.3,0.8-0.8,1.5-1.4,1.9c0-0.1-0.1-0.2-0.2-0.2c0.5-0.3,1-1,1.3-1.7h-1.2V1h1.6V0.2h0.3V1h1.6
		v0.3H71.8z"/>
	<path fill="#999999" d="M77.2,3.5v0.2h-3.6V3.5h0.5V2.2h2.6v1.3H77.2z M77.1,1.2h-3.4V1h1c-0.1-0.2-0.3-0.5-0.4-0.7l0.2-0.1
		c0.2,0.2,0.3,0.5,0.4,0.7L74.7,1h2.4V1.2z M74.9,1.5c-0.3,0.2-0.8,0.5-1.1,0.7c0-0.1-0.1-0.2-0.2-0.2c0.3-0.1,0.8-0.4,1.1-0.6
		L74.9,1.5z M74.3,3.5h0.5v-1h-0.5V3.5z M75.1,2.4v1h0.5v-1H75.1z M76.9,2.2c-0.3-0.2-0.8-0.4-1.2-0.5l0.1-0.2
		c0.4,0.1,0.9,0.4,1.2,0.5L76.9,2.2z M76.5,0.3C76.4,0.5,76.2,0.8,76,1l-0.2-0.1c0.1-0.2,0.3-0.5,0.4-0.7L76.5,0.3z M75.9,2.4v1h0.5
		v-1H75.9z"/>
	<path fill="#999999" d="M79.3,3c0,0.1,0,0.2,0,0.2c-1.1,0.3-1.3,0.4-1.4,0.4c0-0.1-0.1-0.2-0.1-0.2c0.1,0,0.2-0.1,0.2-0.3v-3h0.3
		v1.2h1v0.3h-1v1.6L79.3,3z M80.7,3.5c0.2,0,0.2-0.1,0.2-0.7c0.1,0.1,0.2,0.1,0.2,0.1c0,0.6-0.1,0.9-0.5,0.9H80
		c-0.4,0-0.5-0.1-0.5-0.5v-3h0.3v1.2h1.1v0.3h-1.1v1.5c0,0.2,0,0.3,0.2,0.3H80.7z"/>
	<path fill="#999999" d="M81.6,3.6c0.2-0.2,0.4-0.5,0.5-0.7L82.3,3c-0.1,0.2-0.3,0.5-0.5,0.7L81.6,3.6z M85.1,1.1v0.2h-3.4V1.1h0.9
		c0-0.1-0.1-0.3-0.2-0.4l0.2-0.1h-0.8V0.5h1.5c0-0.1-0.1-0.2-0.2-0.3l0.3-0.1c0.1,0.1,0.1,0.2,0.2,0.3h1.3v0.2h-0.8l0.2,0.1
		c-0.1,0.1-0.1,0.3-0.2,0.4H85.1z M84.6,2.7h-1.4c0.2,0.1,0.5,0.3,0.6,0.4l-0.2,0.2C83.5,3.2,83.2,3,83,2.8l0.1-0.1h-1V1.6h2.5V2.7z
		 M84.4,1.7h-2V2h2V1.7z M84.4,2.2h-2v0.3h2V2.2z M83.8,3.6c0.2,0,0.2,0,0.2-0.4c0.1,0,0.2,0.1,0.2,0.1c0,0.4-0.1,0.5-0.4,0.5h-0.8
		c-0.4,0-0.5-0.1-0.5-0.3V2.9h0.3v0.5c0,0.1,0,0.1,0.2,0.1H83.8z M82.7,0.7c0.1,0.1,0.2,0.3,0.2,0.4l0,0h1C83.9,1,84,0.8,84,0.7
		H82.7z M84.6,2.9c0.2,0.2,0.4,0.5,0.5,0.7l-0.2,0.1c-0.1-0.2-0.3-0.5-0.5-0.7L84.6,2.9z"/>
	<path fill="#999999" d="M86.9,2.2l-0.5,0.2v1.2c0,0.2,0,0.2-0.1,0.3c-0.1,0-0.3,0.1-0.5,0c0-0.1-0.1-0.2-0.1-0.2c0.2,0,0.4,0,0.4,0
		c0.1,0,0.1,0,0.1-0.1V2.4l-0.6,0.2l-0.1-0.3c0.2,0,0.4-0.1,0.6-0.2V1.2h-0.6V1h0.6V0.2h0.3V1h0.5v0.3h-0.5V2c0.2,0,0.3-0.1,0.5-0.1
		L86.9,2.2z M87.6,1.7c-0.4,0-0.5-0.1-0.5-0.4V0.2h0.3v0.5H89v0.2h-1.6v0.4c0,0.2,0,0.2,0.2,0.2h1.1c0.1,0,0.3,0,0.4,0
		c0,0.1,0,0.2,0,0.2c-0.1,0-0.3,0-0.4,0H87.6z M87.1,2.1H89v1.7h-0.3V3.6h-1.3v0.2h-0.3V2.1z M87.4,2.3v0.4h1.3V2.3H87.4z M88.7,3.4
		V3h-1.3v0.4H88.7z"/>
	<path fill="#999999" d="M90.9,3.5c0,0.1,0,0.2-0.1,0.3c-0.1,0-0.2,0-0.5,0c0-0.1,0-0.2-0.1-0.2c0.2,0,0.3,0,0.4,0
		c0.1,0,0.1,0,0.1-0.1V2.3c-0.2,0.1-0.4,0.2-0.5,0.3l-0.1-0.2c0,0.5-0.1,1-0.3,1.4c0,0-0.2-0.1-0.2-0.1c0.3-0.6,0.3-1.4,0.3-1.9V0.3
		h1.1V3.5z M90.1,1.8c0,0.2,0,0.4,0,0.6c0.2-0.1,0.4-0.2,0.6-0.3V1.6l-0.2,0.1c-0.1-0.1-0.3-0.3-0.5-0.5V1.8z M90.1,0.6v0.6l0.1-0.1
		c0.2,0.2,0.4,0.3,0.5,0.5v-1H90.1z M93,2c-0.1,0.5-0.4,0.9-0.7,1.2c0.3,0.2,0.6,0.3,0.9,0.4c-0.1,0.1-0.1,0.2-0.2,0.2
		c-0.4-0.1-0.7-0.3-0.9-0.5c-0.3,0.2-0.6,0.4-1,0.5c0-0.1-0.1-0.2-0.1-0.2c0.3-0.1,0.6-0.2,0.9-0.4c-0.3-0.3-0.5-0.6-0.6-1l0,0h-0.2
		V1.9h1.7l0.1,0L93,2z M91.8,0.8c0,0.3-0.1,0.8-0.6,1.1c0-0.1-0.1-0.1-0.2-0.2c0.4-0.3,0.5-0.6,0.5-0.9V0.3h1.2v0.9
		c0,0.1,0,0.1,0.1,0.1H93c0,0,0.1,0,0.2,0c0,0.1,0,0.2,0,0.2c0,0-0.1,0-0.2,0h-0.3c-0.2,0-0.3-0.1-0.3-0.4V0.6h-0.7V0.8z M91.5,2.2
		c0.1,0.3,0.3,0.6,0.6,0.8c0.3-0.2,0.5-0.5,0.6-0.8H91.5z"/>
	<path fill="#999999" d="M94.6,0.3c-0.1,0.3-0.2,0.5-0.3,0.8v2.8H94V1.5c-0.1,0.2-0.3,0.4-0.4,0.6c0-0.1-0.1-0.2-0.1-0.3
		c0.4-0.4,0.7-1,0.9-1.6L94.6,0.3z M95.6,3.4c-0.2,0.2-0.6,0.3-1,0.4c0,0-0.1-0.1-0.1-0.2c0.3-0.1,0.7-0.2,0.9-0.4L95.6,3.4z
		 M95.4,0.6h-0.8V0.4h2.5v0.2h-0.8v0.2H97v0.8h-2.3V0.8h0.7V0.6z M94.8,3.2V1.8H97v1.4H94.8z M94.9,1.4h0.5V1h-0.5V1.4z M95,2.2h1.7
		V2H95V2.2z M95,2.6h1.7V2.4H95V2.6z M95,3.1h1.7V2.8H95V3.1z M96.1,0.6h-0.5v0.2h0.5V0.6z M95.6,1.4h0.5V1h-0.5V1.4z M96.3,3.3
		c0.3,0.1,0.7,0.3,1,0.4L97,3.8c-0.2-0.1-0.6-0.3-0.9-0.4L96.3,3.3z M96.3,1v0.4h0.5V1H96.3z"/>
	<path fill="#999999" d="M98.5,1.7c0.1,0.1,0.5,0.6,0.6,0.7l-0.2,0.2c-0.1-0.1-0.3-0.4-0.4-0.6v1.8h-0.3v-2
		c-0.2,0.5-0.4,0.9-0.6,1.2c0-0.1-0.1-0.2-0.1-0.2c0.3-0.3,0.6-1,0.7-1.5h-0.6V1h0.7V0.2h0.3V1h0.6v0.2h-0.6V1.7z M101.1,0.4v3.4
		h-0.3V3.5h-1.3v0.2h-0.3V0.4H101.1z M99.5,0.7v0.7h1.3V0.7H99.5z M99.5,2.3h1.3V1.6h-1.3V2.3z M100.8,3.3V2.6h-1.3v0.7H100.8z"/>
	<path fill="#999999" d="M105.2,1.5h-0.4v2c0,0.2,0,0.2-0.2,0.3c-0.1,0-0.3,0.1-0.6,0.1c0-0.1-0.1-0.2-0.1-0.3c0.2,0,0.5,0,0.5,0
		c0.1,0,0.1,0,0.1-0.1v-2h-1V1.3h-2V1h0.6V0.2h0.2V1h0.3V0.2h0.2v0.7c0.1-0.1,0.3-0.4,0.4-0.6l0.2,0.1c-0.1,0.2-0.3,0.4-0.4,0.5
		L103,0.9V1h0.6v0.2h0.9V0.2h0.3v1.1h0.4V1.5z M102.7,3.2c0.3,0,0.6-0.1,0.9-0.1l0,0.2c-0.7,0.1-1.4,0.2-2,0.3l0-0.3
		c0.2,0,0.5-0.1,0.9-0.1V2.8h-0.6V2.5h0.6V2.1h-0.8V1.9h1c0.1-0.2,0.2-0.4,0.3-0.6l0.2,0.1c-0.1,0.2-0.2,0.3-0.3,0.5h0.5v0.2h-0.7
		v0.4h0.7v0.2h-0.7V3.2z M102,1c-0.1-0.2-0.2-0.4-0.4-0.5l0.2-0.1c0.2,0.2,0.3,0.4,0.4,0.5L102,1z M102.1,1.3
		c0.1,0.1,0.3,0.3,0.3,0.5l-0.2,0.1c-0.1-0.1-0.2-0.3-0.3-0.5L102.1,1.3z M104,2.8c0-0.2-0.2-0.6-0.4-0.9l0.2-0.1
		c0.2,0.3,0.3,0.7,0.4,0.9L104,2.8z"/>
	<path fill="#999999" d="M107,1.7c0,0,0,0.1,0,0.1c0,1.3-0.1,1.7-0.2,1.8c-0.1,0.1-0.1,0.1-0.2,0.1c-0.1,0-0.2,0-0.4,0
		c0-0.1,0-0.2-0.1-0.2c0.1,0,0.3,0,0.3,0c0.1,0,0.1,0,0.1-0.1c0.1-0.1,0.1-0.5,0.2-1.5h-0.5c0,0.8-0.2,1.5-0.5,1.9
		c0-0.1-0.1-0.1-0.2-0.2c0.4-0.5,0.5-1.4,0.5-2.5h-0.4V0.8h1.6v0.2h-0.9c0,0.2,0,0.4,0,0.6H107z M106.4,0.8
		c-0.1-0.2-0.2-0.4-0.3-0.6l0.2-0.1c0.1,0.2,0.3,0.4,0.4,0.6L106.4,0.8z M108.3,0.2c0,0.1,0,0.1-0.1,0.2c0.2,0.4,0.6,0.9,1,1.1
		c-0.1,0-0.1,0.1-0.2,0.2c-0.3-0.2-0.7-0.6-0.9-1.1c-0.2,0.5-0.5,0.8-0.9,1.1c0-0.1-0.1-0.2-0.2-0.2c0.5-0.3,0.8-0.8,1-1.4
		L108.3,0.2z M107.6,2.8c0.4,0.2,0.9,0.5,1.1,0.7l-0.2,0.2c-0.2-0.2-0.7-0.5-1.1-0.7L107.6,2.8z M108.4,2.4
		c-0.1-0.2-0.5-0.4-0.7-0.5l0.2-0.2c0.2,0.2,0.5,0.4,0.7,0.5L108.4,2.4z"/>
	<path fill="#999999" d="M110.6,1.2c-0.2,0.5-0.4,0.9-0.8,1.2c0,0-0.1-0.1-0.2-0.2c0.5-0.3,0.8-0.9,0.9-1.6h-0.7V0.4h2.6
		c-0.1,0.2-0.1,0.5-0.2,0.7h0.8c0,0,0,0.1,0,0.1c-0.1,0.6-0.1,0.9-0.2,1c-0.1,0.1-0.1,0.1-0.3,0.1c-0.1,0-0.3,0-0.5,0
		c0-0.1,0-0.2-0.1-0.2c0.2,0,0.4,0,0.5,0c0.1,0,0.1,0,0.1,0c0.1-0.1,0.1-0.2,0.2-0.7h-0.8c0.1-0.2,0.1-0.5,0.2-0.7h-1.3
		c0,0.1,0,0.3-0.1,0.4h0.9l0,0l0.1,0.1c-0.1,0.3-0.2,0.5-0.3,0.7c0.2,0.1,0.3,0.2,0.4,0.3l-0.2,0.2c-0.1-0.1-0.2-0.2-0.4-0.3
		c-0.2,0.2-0.4,0.3-0.7,0.4c0-0.1-0.1-0.1-0.2-0.2c0.3-0.1,0.5-0.2,0.7-0.3c-0.2-0.1-0.3-0.2-0.5-0.3l0.2-0.1
		c0.2,0.1,0.3,0.2,0.5,0.2c0.1-0.1,0.2-0.3,0.2-0.4H110.6z M113.2,3.5v0.2h-3.6V3.5h0.5v-1h2.7v1H113.2z M110.3,3.5h0.6V2.7h-0.6
		V3.5z M111.1,2.7v0.8h0.6V2.7H111.1z M111.9,2.7v0.8h0.6V2.7H111.9z"/>
	<path fill="#999999" d="M114.9,1c-0.1-0.1-0.4-0.3-0.6-0.4c-0.2,0.3-0.5,0.5-0.7,0.7c0-0.1-0.1-0.2-0.1-0.2
		c0.3-0.2,0.6-0.5,0.8-0.9l0.2,0.1c0,0-0.1,0.1-0.1,0.1c0.2,0.1,0.4,0.3,0.6,0.4L114.9,1z M114.6,2.8c0.2,0.3,0.3,0.6,0.4,0.8
		l-0.2,0.1c0-0.1-0.1-0.2-0.2-0.3c-0.8,0.3-0.9,0.4-1,0.5c0-0.1-0.1-0.2-0.1-0.2c0.1,0,0.2-0.1,0.2-0.2v-2h1.1v1.3H114v0.7l0.6-0.2
		c-0.1-0.1-0.1-0.2-0.2-0.3L114.6,2.8z M114,1.6v0.3h0.6V1.6H114z M114.7,2.5V2.1H114v0.4H114.7z M114.1,0.9h0.7v0.2h-0.7V0.9z
		 M115.7,2.6c-0.1,0.3-0.3,0.7-0.5,0.9c0,0-0.1-0.1-0.2-0.1c0.2-0.2,0.3-0.6,0.4-0.8L115.7,2.6z M116.3,0.2c0,0.1-0.1,0.1-0.1,0.2
		c0.3,0.3,0.6,0.6,1,0.8c-0.1,0.1-0.1,0.1-0.2,0.2c-0.3-0.2-0.7-0.5-1-0.8c-0.3,0.3-0.6,0.6-0.9,0.8c0-0.1-0.1-0.1-0.2-0.2
		c0.4-0.2,0.9-0.6,1.1-1L116.3,0.2z M116.3,2.3v1.2c0,0.1,0,0.2-0.1,0.2c-0.1,0-0.2,0-0.5,0c0-0.1-0.1-0.2-0.1-0.2
		c0.2,0,0.3,0,0.4,0c0.1,0,0.1,0,0.1-0.1V2.3h-0.9V2.1h0.9V1.6h-0.6V1.3h1.5v0.2h-0.6v0.5h0.9v0.2H116.3z M116.7,2.5
		c0.2,0.3,0.4,0.7,0.5,0.9L117,3.5c-0.1-0.2-0.3-0.6-0.5-0.9L116.7,2.5z"/>
	<path fill="#999999" d="M120.8,1.1c-0.5,0.7-1.4,1.6-2.2,2.1c0,0,0.1,0.1,0.1,0.1c0.3,0.2,0.6,0.2,1,0.2c0.5,0,1.1,0,1.4-0.1
		c0,0.1-0.1,0.2-0.1,0.3c-0.3,0-1,0-1.4,0c-0.5,0-0.8,0-1.1-0.2c-0.2-0.1-0.3-0.2-0.4-0.2c-0.1,0-0.3,0.2-0.5,0.5l-0.2-0.2
		c0.3-0.3,0.5-0.5,0.7-0.5c0,0,0,0,0.1,0c0.7-0.4,1.5-1.2,2-1.8h-2.6V1h2.8l0.1,0L120.8,1.1z M119.5,1c-0.1-0.2-0.3-0.5-0.4-0.7
		l0.2-0.1c0.2,0.2,0.3,0.5,0.4,0.7L119.5,1z"/>
	<path fill="#999999" d="M123.3,3c0,0.1,0,0.2,0,0.2c-1.1,0.3-1.3,0.4-1.4,0.4c0-0.1-0.1-0.2-0.1-0.2c0.1,0,0.2-0.1,0.2-0.3v-3h0.3
		v1.2h1v0.3h-1v1.6L123.3,3z M124.7,3.5c0.2,0,0.2-0.1,0.2-0.7c0.1,0.1,0.2,0.1,0.2,0.1c0,0.6-0.1,0.9-0.5,0.9H124
		c-0.4,0-0.5-0.1-0.5-0.5v-3h0.3v1.2h1.1v0.3h-1.1v1.5c0,0.2,0,0.3,0.2,0.3H124.7z"/>
	<path fill="#999999" d="M126.5,0.2c-0.1,0.3-0.2,0.5-0.3,0.8v2.8H126V1.5c-0.1,0.2-0.2,0.3-0.3,0.5c0-0.1-0.1-0.2-0.1-0.3
		c0.3-0.4,0.6-1,0.7-1.6L126.5,0.2z M127.7,1.3l0.2,0c-0.1,1.4-0.6,2.1-1.3,2.5c0-0.1-0.1-0.2-0.2-0.2c0.3-0.2,0.6-0.5,0.8-0.9
		c-0.1-0.2-0.4-0.4-0.6-0.5c-0.1,0.1-0.1,0.2-0.2,0.3c0-0.1-0.1-0.2-0.2-0.2c0.3-0.4,0.5-1,0.6-1.6h-0.4V0.4h1.3v0.2h-0.7
		c0,0.2-0.1,0.4-0.1,0.6L127.7,1.3L127.7,1.3z M127,1.5c-0.1,0.2-0.1,0.3-0.2,0.5c0.2,0.2,0.4,0.3,0.6,0.5c0.1-0.3,0.2-0.6,0.2-0.9
		H127z M128.3,2.9h-0.2V0.6h0.2V2.9z M129,0.2v3.3c0,0.2,0,0.3-0.2,0.3c-0.1,0-0.3,0.1-0.6,0.1c0-0.1-0.1-0.2-0.1-0.3
		c0.2,0,0.5,0,0.5,0c0.1,0,0.1,0,0.1-0.1V0.2H129z"/>
	<path fill="#999999" d="M130,3.7c0.3-0.1,0.5-0.4,0.5-0.7c0,0-0.1,0-0.1,0c-0.2,0-0.3-0.1-0.3-0.3c0-0.2,0.1-0.3,0.3-0.3
		c0.2,0,0.3,0.2,0.3,0.5c0,0.5-0.3,0.8-0.7,1L130,3.7z M130.1,1c0-0.2,0.1-0.3,0.3-0.3c0.2,0,0.3,0.1,0.3,0.3c0,0.2-0.1,0.3-0.3,0.3
		C130.2,1.3,130.1,1.2,130.1,1z"/>
	<path fill="#999999" d="M1.3,8.4v1.4H1V8.4H0.2V8.2H1V7.7H0.2V7.5h1.1C1.4,7.3,1.5,7,1.5,6.9l0.2,0.1C1.7,7.1,1.6,7.3,1.5,7.5h0.5
		v0.2H1.3v0.4H2v0.2H1.3z M0.8,8.7C0.7,9,0.5,9.3,0.4,9.5c0,0-0.1-0.1-0.2-0.1c0.2-0.2,0.3-0.5,0.4-0.7L0.8,8.7z M2,6.8H0.3V6.6h0.8
		C1,6.5,0.9,6.3,0.9,6.2l0.3-0.1c0.1,0.1,0.2,0.3,0.2,0.4H2V6.8z M0.7,7.5c0-0.2-0.1-0.4-0.2-0.6l0.2-0.1C0.8,7,0.9,7.3,0.9,7.4
		L0.7,7.5z M1.7,8.6C1.8,8.8,1.9,9.1,2,9.3L1.8,9.4C1.8,9.2,1.6,8.9,1.5,8.7L1.7,8.6z M3.8,7.8H3.4v2H3.1v-2H2.5v0.2
		c0,0.6-0.1,1.4-0.4,1.9c0,0-0.1-0.1-0.2-0.2c0.3-0.5,0.4-1.2,0.4-1.7V6.6c0.4-0.1,1-0.2,1.3-0.3l0.2,0.2C3.4,6.6,3,6.7,2.5,6.7v0.8
		h1.3V7.8z"/>
	<path fill="#999999" d="M7.8,8.6v0.2H4.2V8.6h0.3L4.5,6.5C4.7,6.4,5,6.3,5.2,6.2l0.1,0.2C5.1,6.5,4.9,6.6,4.7,6.6l0,0.5h0.5v0.2
		H4.7l0,0.5h0.5v0.2H4.8l0,0.5h0.5V6.4h1.4v2.2h0.6c0-0.2,0-0.3,0-0.5H6.8V7.9h0.5c0-0.2,0-0.3,0-0.5H6.8V7.1h0.5c0-0.2,0-0.4,0-0.6
		H6.8V6.4h0.7c0,0.7,0,1.7-0.1,2.3H7.8z M5.6,9.1C5.3,9.4,4.8,9.6,4.4,9.8c0-0.1-0.1-0.1-0.2-0.2C4.6,9.5,5.1,9.2,5.4,9L5.6,9.1z
		 M5.5,8.6h1v-2h-1V8.6z M6.3,6.9v0.2H5.6V6.9H6.3z M5.7,7.4h0.6v0.9H5.7V7.4z M5.8,8.1h0.3V7.5H5.8V8.1z M6.5,8.9
		C7,9.1,7.4,9.4,7.7,9.6L7.5,9.8C7.3,9.6,6.8,9.3,6.4,9.1L6.5,8.9z"/>
	<path fill="#999999" d="M10.1,7v0.6h1.3V9c0,0.2,0,0.2-0.2,0.3c-0.1,0-0.4,0-0.7,0c0-0.1-0.1-0.2-0.1-0.3c0.3,0,0.5,0,0.6,0
		c0.1,0,0.1,0,0.1-0.1V7.8h-1v2H9.9v-2h-1v1.5H8.6V7.6h1.2V7H8.2V6.8h1.7C9.9,6.6,9.8,6.4,9.7,6.2l0.3-0.1c0.1,0.2,0.3,0.4,0.3,0.6
		l-0.1,0h1.6V7H10.1z"/>
	<path fill="#999999" d="M13.4,8.5c-0.4,0.2-0.8,0.4-1.2,0.6l-0.1-0.3c0.2-0.1,0.3-0.1,0.6-0.2V7.3h-0.5V7h0.5V6.2H13V7h0.4v0.3H13
		v1.2l0.4-0.2L13.4,8.5z M14.2,8c-0.1,0.1-0.1,0.2-0.2,0.3h1.7c0,0,0,0.1,0,0.1c-0.1,0.8-0.1,1.1-0.2,1.3c-0.1,0.1-0.1,0.1-0.2,0.1
		c-0.1,0-0.2,0-0.4,0c0-0.1,0-0.2-0.1-0.2c0.2,0,0.3,0,0.3,0c0.1,0,0.1,0,0.1,0c0.1-0.1,0.1-0.3,0.2-1h-0.3c-0.2,0.5-0.5,1-0.8,1.3
		c0-0.1-0.1-0.1-0.2-0.2c0.3-0.2,0.6-0.7,0.8-1.1h-0.4c-0.2,0.4-0.6,0.9-1,1.1c0-0.1-0.1-0.1-0.2-0.2c0.3-0.2,0.7-0.6,0.9-0.9h-0.4
		c-0.2,0.2-0.3,0.3-0.5,0.5c0,0-0.1-0.1-0.2-0.2c0.3-0.2,0.6-0.5,0.8-0.8h-0.6V7.8h2.5V8H14.2z M15.5,7.6h-1.8V6.3h1.8V7.6z
		 M15.3,6.5H14v0.3h1.3V6.5z M15.3,7H14v0.3h1.3V7z"/>
	<path fill="#999999" d="M17.1,7.7c0.1,0.1,0.5,0.6,0.6,0.7l-0.2,0.2c-0.1-0.1-0.3-0.4-0.4-0.6v1.8h-0.3v-2
		c-0.2,0.5-0.4,0.9-0.6,1.2c0-0.1-0.1-0.2-0.1-0.2c0.3-0.3,0.6-1,0.7-1.5h-0.6V7h0.7V6.2h0.3V7h0.6v0.2h-0.6V7.7z M19.7,6.4v3.4
		h-0.3V9.5h-1.3v0.2h-0.3V6.4H19.7z M18.2,6.7v0.7h1.3V6.7H18.2z M18.2,8.3h1.3V7.6h-1.3V8.3z M19.4,9.3V8.6h-1.3v0.7H19.4z"/>
	<path fill="#999999" d="M23.8,7.5h-0.4v2c0,0.2,0,0.2-0.2,0.3c-0.1,0-0.3,0.1-0.6,0.1c0-0.1-0.1-0.2-0.1-0.3c0.2,0,0.5,0,0.5,0
		c0.1,0,0.1,0,0.1-0.1v-2h-1V7.3h-2V7h0.6V6.2H21V7h0.3V6.2h0.2v0.7c0.1-0.1,0.3-0.4,0.4-0.6l0.2,0.1c-0.1,0.2-0.3,0.4-0.4,0.5
		l-0.2-0.1V7h0.6v0.2h0.9V6.2h0.3v1.1h0.4V7.5z M21.3,9.2c0.3,0,0.6-0.1,0.9-0.1l0,0.2c-0.7,0.1-1.4,0.2-2,0.3l0-0.3
		c0.2,0,0.5-0.1,0.9-0.1V8.8h-0.6V8.5h0.6V8.1h-0.8V7.9h1c0.1-0.2,0.2-0.4,0.3-0.6l0.2,0.1c-0.1,0.2-0.2,0.3-0.3,0.5h0.5v0.2h-0.7
		v0.4H22v0.2h-0.7V9.2z M20.6,7c-0.1-0.2-0.2-0.4-0.4-0.5l0.2-0.1c0.2,0.2,0.3,0.4,0.4,0.5L20.6,7z M20.7,7.3
		c0.1,0.1,0.3,0.3,0.3,0.5l-0.2,0.1c-0.1-0.1-0.2-0.3-0.3-0.5L20.7,7.3z M22.7,8.8c0-0.2-0.2-0.6-0.4-0.9l0.2-0.1
		c0.2,0.3,0.3,0.7,0.4,0.9L22.7,8.8z"/>
	<path fill="#999999" d="M25.7,7.7c0,0,0,0.1,0,0.1c0,1.3-0.1,1.7-0.2,1.8c-0.1,0.1-0.1,0.1-0.2,0.1c-0.1,0-0.2,0-0.4,0
		c0-0.1,0-0.2-0.1-0.2c0.1,0,0.3,0,0.3,0c0.1,0,0.1,0,0.1-0.1c0.1-0.1,0.1-0.5,0.2-1.5h-0.5c0,0.8-0.2,1.5-0.5,1.9
		c0-0.1-0.1-0.1-0.2-0.2c0.4-0.5,0.5-1.4,0.5-2.5h-0.4V6.8h1.6v0.2h-0.9c0,0.2,0,0.4,0,0.6H25.7z M25,6.8c-0.1-0.2-0.2-0.4-0.3-0.6
		l0.2-0.1c0.1,0.2,0.3,0.4,0.4,0.6L25,6.8z M26.9,6.2c0,0.1,0,0.1-0.1,0.2c0.2,0.4,0.6,0.9,1,1.1c-0.1,0-0.1,0.1-0.2,0.2
		c-0.3-0.2-0.7-0.6-0.9-1.1c-0.2,0.5-0.5,0.8-0.9,1.1c0-0.1-0.1-0.2-0.2-0.2c0.5-0.3,0.8-0.8,1-1.4L26.9,6.2z M26.3,8.8
		c0.4,0.2,0.9,0.5,1.1,0.7l-0.2,0.2C27,9.5,26.5,9.2,26.1,9L26.3,8.8z M27,8.4c-0.1-0.2-0.5-0.4-0.7-0.5l0.2-0.2
		c0.2,0.2,0.5,0.4,0.7,0.5L27,8.4z"/>
	<path fill="#999999" d="M31,9.4c0.4,0,0.5-0.1,0.6-0.8c0.1,0,0.2,0.1,0.3,0.1c-0.1,0.7-0.2,0.9-0.8,0.9h-1.5
		c-0.6,0-0.8-0.1-0.8-0.6v-2h0.3v0.7H31V6.7h-2.6V6.4h2.9v1.8H31V8h-2.1v1.1c0,0.3,0.1,0.3,0.5,0.3H31z"/>
	<path fill="#999999" d="M32.6,7.7v2.1h-0.3V6.4h1.4v1.3H32.6z M32.6,6.6v0.3h0.9V6.6H32.6z M33.6,7.5V7.1h-0.9v0.4H33.6z M34.5,8.8
		v0.9h-0.2V8.8h-0.6c0,0.3-0.1,0.7-0.5,1c0,0-0.1-0.1-0.2-0.2c0.4-0.2,0.5-0.6,0.5-0.8h-0.5V8.6h0.5V8.2H33V7.9h2v0.2h-0.5v0.5h0.6
		v0.2H34.5z M34.3,8.6V8.2h-0.6v0.5H34.3z M35.6,9.5c0,0.2,0,0.3-0.2,0.3c-0.1,0-0.3,0-0.6,0c0-0.1,0-0.2-0.1-0.3c0.2,0,0.4,0,0.5,0
		c0.1,0,0.1,0,0.1-0.1V7.7h-1.2V6.4h1.5V9.5z M34.4,6.6v0.3h1V6.6H34.4z M35.4,7.5V7.1h-1v0.4H35.4z"/>
	<path fill="#999999" d="M37.7,8.7c0,0,0,0.1,0,0.1c-0.1,0.6-0.1,0.8-0.2,0.9c-0.1,0.1-0.1,0.1-0.3,0.1c-0.1,0-0.3,0-0.5,0
		c0-0.1,0-0.2-0.1-0.2c0.2,0,0.4,0,0.5,0c0.1,0,0.1,0,0.1,0c0.1-0.1,0.1-0.2,0.1-0.6h-0.9c0-0.2,0.1-0.6,0.1-0.9h0.8V7.6h-0.7v0
		c-0.1,0.1-0.3,0.1-0.5,0.2c0-0.1-0.1-0.1-0.1-0.2c0.3-0.1,0.6-0.2,0.8-0.4c-0.1-0.1-0.3-0.3-0.5-0.4l0.2-0.1
		C36.8,6.8,37,6.9,37.1,7c0.2-0.1,0.3-0.3,0.4-0.5h-1V6.4h1.1l0,0l0.2,0.1c-0.2,0.4-0.5,0.7-0.9,1h0.6v0.9h-0.9c0,0.2,0,0.3-0.1,0.4
		H37.7z M39.7,6.7c-0.2,0.2-0.4,0.3-0.6,0.5c0.2,0.1,0.4,0.2,0.7,0.3c-0.1,0.1-0.1,0.2-0.2,0.2c-0.2-0.1-0.4-0.1-0.6-0.3V8
		c0,0.1,0,0.1,0.1,0.1h0.3c0,0,0.1,0,0.2,0c0,0.1,0,0.1,0,0.2c0,0-0.1,0-0.2,0h-0.3c-0.2,0-0.3-0.1-0.3-0.3V7.6h-0.6v0.1
		c0,0.3-0.1,0.5-0.4,0.7c0,0-0.1-0.1-0.2-0.2c0.3-0.2,0.4-0.4,0.4-0.6V7.4H39c-0.4-0.3-0.8-0.7-1-1.1l0.2-0.1
		c0.1,0.2,0.2,0.3,0.3,0.5c0.2-0.1,0.4-0.3,0.5-0.5l0.2,0.1c-0.2,0.2-0.4,0.3-0.6,0.5C38.8,6.9,38.9,7,39,7.1
		c0.2-0.1,0.4-0.3,0.6-0.5L39.7,6.7z M39.4,8.6c-0.1,0.3-0.3,0.5-0.5,0.7c0.2,0.1,0.4,0.3,0.6,0.4l-0.1,0.2
		c-0.1-0.1-0.4-0.3-0.6-0.4c-0.3,0.2-0.6,0.3-0.9,0.4c0-0.1-0.1-0.1-0.1-0.2c0.3-0.1,0.6-0.2,0.8-0.3c-0.2-0.1-0.4-0.3-0.6-0.4
		L38,8.8c0.2,0.1,0.5,0.3,0.7,0.4C38.9,9,39,8.9,39.1,8.7h-1.2V8.5h1.4l0,0L39.4,8.6z"/>
	<path fill="#999999" d="M43.7,6.4v3.5h-0.3V9.6h-2.8v0.2h-0.3V6.4H43.7z M43.4,9.4V6.6h-2.8v2.8H43.4z M42,8.8
		c-0.4,0.1-0.9,0.2-1.2,0.2l0-0.2c0.3-0.1,0.8-0.1,1.2-0.2L42,8.8z M43,7.6c-0.1,0.4-0.3,0.7-0.4,1C42.6,8.8,42.8,9,42.9,9
		C43,9,43,8.8,43,8.6c0,0,0.1,0.1,0.2,0.1c-0.1,0.4-0.2,0.6-0.4,0.5c-0.2,0-0.3-0.2-0.4-0.4c-0.2,0.2-0.3,0.3-0.5,0.5
		c0,0-0.1-0.1-0.2-0.2c0.2-0.1,0.4-0.3,0.6-0.5c-0.1-0.3-0.2-0.7-0.2-1.2h-1.2V7.2h1.2c0-0.1,0-0.3,0-0.4h0.2c0,0.1,0,0.3,0,0.4h0.9
		v0.2h-0.9c0,0.4,0.1,0.7,0.2,1c0.1-0.2,0.2-0.5,0.3-0.8L43,7.6z M41.9,7.6v0.8H41V7.6H41.9z M41.7,7.8h-0.5v0.4h0.5V7.8z M42.9,7.1
		c-0.1-0.1-0.3-0.2-0.4-0.3l0.1-0.1c0.2,0.1,0.3,0.2,0.4,0.3L42.9,7.1z"/>
	<path fill="#999999" d="M47.4,7.8c-0.2,0.1-0.4,0.3-0.6,0.5c0.2,0.5,0.6,1,1.1,1.2c-0.1,0-0.1,0.1-0.2,0.2
		c-0.5-0.2-0.9-0.7-1.1-1.3c-0.1,0-0.1,0.1-0.2,0.1c0.1,0.5,0,1-0.2,1.2c-0.1,0.1-0.2,0.1-0.4,0.1c-0.1,0-0.2,0-0.3,0
		c0-0.1,0-0.2-0.1-0.2c0.1,0,0.3,0,0.4,0c0.1,0,0.2,0,0.3-0.1c0.1-0.1,0.2-0.4,0.2-0.7c-0.5,0.4-1.1,0.7-1.7,0.9
		c0-0.1-0.1-0.2-0.1-0.2c0.6-0.1,1.4-0.5,1.8-0.9C46,8.4,46,8.3,46,8.2c-0.4,0.3-1,0.6-1.5,0.7c0-0.1-0.1-0.2-0.1-0.2
		c0.5-0.1,1.2-0.4,1.5-0.7c-0.1-0.1-0.1-0.2-0.2-0.3c-0.4,0.2-0.8,0.4-1.2,0.5c0-0.1-0.1-0.2-0.1-0.2c0.5-0.1,1.1-0.3,1.4-0.6h-0.9
		V7.2h2.3v0.2h-1C46,7.5,46,7.6,45.8,7.7c0.2,0.2,0.3,0.4,0.4,0.6c0.3-0.2,0.7-0.5,0.9-0.7L47.4,7.8z M44.6,7.3h-0.3V6.5h1.5
		c0-0.1-0.1-0.2-0.2-0.3L46,6.2c0.1,0.1,0.2,0.3,0.2,0.4h1.5v0.8h-0.3V6.8h-2.8V7.3z"/>
	<path fill="#999999" d="M51.4,7.1c-0.5,0.7-1.4,1.6-2.2,2.1c0,0,0.1,0.1,0.1,0.1c0.3,0.2,0.6,0.2,1,0.2c0.5,0,1.1,0,1.4-0.1
		c0,0.1-0.1,0.2-0.1,0.3c-0.3,0-1,0-1.4,0c-0.5,0-0.8,0-1.1-0.2c-0.2-0.1-0.3-0.2-0.4-0.2c-0.1,0-0.3,0.2-0.5,0.5l-0.2-0.2
		C48.5,9.2,48.7,9,48.9,9c0,0,0,0,0.1,0c0.7-0.4,1.5-1.2,2-1.8h-2.6V7h2.8l0.1,0L51.4,7.1z M50.1,7c-0.1-0.2-0.3-0.5-0.4-0.7
		l0.2-0.1c0.2,0.2,0.3,0.5,0.4,0.7L50.1,7z"/>
	<path fill="#999999" d="M54.5,7.3c0.3,0.7,0.8,1.3,1.4,1.6c-0.1,0.1-0.2,0.2-0.2,0.2c-0.6-0.4-1.1-1.1-1.4-1.9h-0.1v1.5h1v0.3h-1
		v0.8h-0.3V9.1h-0.9V8.8h0.9V7.3h-0.1c-0.3,0.8-0.8,1.5-1.4,1.9c0-0.1-0.1-0.2-0.2-0.2c0.5-0.3,1-1,1.3-1.7h-1.2V7h1.6V6.2h0.3V7
		h1.6v0.3H54.5z"/>
	<path fill="#999999" d="M59.8,9.5v0.2h-3.6V9.5h0.5V8.2h2.6v1.3H59.8z M59.7,7.2h-3.4V7h1c-0.1-0.2-0.3-0.5-0.4-0.7l0.2-0.1
		c0.2,0.2,0.3,0.5,0.4,0.7L57.3,7h2.4V7.2z M57.6,7.5c-0.3,0.2-0.8,0.5-1.1,0.7c0-0.1-0.1-0.2-0.2-0.2c0.3-0.1,0.8-0.4,1.1-0.6
		L57.6,7.5z M57,9.5h0.5v-1H57V9.5z M57.7,8.4v1h0.5v-1H57.7z M59.6,8.2c-0.3-0.2-0.8-0.4-1.2-0.5l0.1-0.2c0.4,0.1,0.9,0.4,1.2,0.5
		L59.6,8.2z M59.1,6.3C59,6.5,58.8,6.8,58.7,7l-0.2-0.1c0.1-0.2,0.3-0.5,0.4-0.7L59.1,6.3z M58.5,8.4v1h0.5v-1H58.5z"/>
	<path fill="#999999" d="M61.9,9c0,0.1,0,0.2,0,0.2c-1.1,0.3-1.3,0.4-1.4,0.4c0-0.1-0.1-0.2-0.1-0.2c0.1,0,0.2-0.1,0.2-0.3v-3h0.3
		v1.2h1v0.3h-1v1.6L61.9,9z M63.3,9.5c0.2,0,0.2-0.1,0.2-0.7c0.1,0.1,0.2,0.1,0.2,0.1c0,0.6-0.1,0.9-0.5,0.9h-0.7
		c-0.4,0-0.5-0.1-0.5-0.5v-3h0.3v1.2h1.1v0.3h-1.1v1.5c0,0.2,0,0.3,0.2,0.3H63.3z"/>
	<path fill="#999999" d="M65.6,8.1c-0.2,0.1-0.4,0.1-0.6,0.2v1.2c0,0.2,0,0.2-0.1,0.3c-0.1,0-0.3,0.1-0.5,0.1c0-0.1-0.1-0.2-0.1-0.2
		c0.2,0,0.4,0,0.4,0c0.1,0,0.1,0,0.1-0.1V8.4c-0.2,0.1-0.4,0.1-0.5,0.2l-0.1-0.3c0.2,0,0.4-0.1,0.6-0.2V7.2h-0.6V7h0.6V6.2h0.3V7
		h0.5v0.3h-0.5V8l0.5-0.2L65.6,8.1z M67.8,7.8h-0.7v2h-0.3v-2h-0.8v0c0,0.7-0.1,1.4-0.5,2c-0.1-0.1-0.1-0.1-0.2-0.2
		c0.4-0.6,0.4-1.2,0.4-1.8V6.5c0.6-0.1,1.3-0.2,1.7-0.3l0.2,0.2c-0.4,0.1-1,0.2-1.6,0.3v0.8h1.7V7.8z"/>
	<path fill="#999999" d="M69.2,6.3c-0.1,0.3-0.2,0.5-0.3,0.8v2.8h-0.3V7.5c-0.1,0.2-0.3,0.4-0.4,0.6c0-0.1-0.1-0.2-0.1-0.3
		c0.4-0.4,0.7-1,0.9-1.6L69.2,6.3z M70.3,9.4c-0.2,0.2-0.6,0.3-1,0.4c0,0-0.1-0.1-0.1-0.2c0.3-0.1,0.7-0.2,0.9-0.4L70.3,9.4z
		 M70,6.6h-0.8V6.4h2.5v0.2h-0.8v0.2h0.7v0.8h-2.3V6.8H70V6.6z M69.4,9.2V7.8h2.2v1.4H69.4z M69.6,7.4H70V7h-0.5V7.4z M69.7,8.2h1.7
		V8h-1.7V8.2z M69.7,8.6h1.7V8.4h-1.7V8.6z M69.7,9.1h1.7V8.8h-1.7V9.1z M70.7,6.6h-0.5v0.2h0.5V6.6z M70.2,7.4h0.5V7h-0.5V7.4z
		 M70.9,9.3c0.3,0.1,0.7,0.3,1,0.4l-0.2,0.2c-0.2-0.1-0.6-0.3-0.9-0.4L70.9,9.3z M70.9,7v0.4h0.5V7H70.9z"/>
	<path fill="#999999" d="M74,9.2c-0.6,0.1-1.3,0.3-1.7,0.4l-0.1-0.3C72.7,9.2,73.4,9,74,8.9L74,9.2z M75.6,7.5
		c-0.2,0.5-0.4,1-0.7,1.4c0.1,0.4,0.3,0.7,0.6,0.7c0.1,0,0.2-0.2,0.2-0.7c0.1,0.1,0.2,0.1,0.2,0.1c0,0.7-0.2,0.9-0.4,0.9
		c-0.3,0-0.6-0.3-0.7-0.7c-0.3,0.3-0.6,0.5-0.9,0.7c0-0.1-0.1-0.2-0.2-0.2c0.4-0.2,0.7-0.5,1-0.8c-0.1-0.5-0.2-1.1-0.3-1.7h-2V6.8h2
		c0-0.2,0-0.4,0-0.6h0.3c0,0.2,0,0.4,0,0.6h1.2v0.3h-1.2c0,0.6,0.1,1.1,0.2,1.5c0.2-0.3,0.4-0.7,0.5-1.2L75.6,7.5z M73.9,7.5v1.2
		h-1.4V7.5H73.9z M73.6,7.7h-0.9v0.7h0.9V7.7z M75.5,6.8c-0.1-0.1-0.4-0.3-0.7-0.4l0.2-0.2c0.2,0.1,0.6,0.3,0.7,0.4L75.5,6.8z"/>
	<path fill="#999999" d="M76.8,8c-0.1-0.1-0.4-0.4-0.6-0.5l0.2-0.2c0.2,0.1,0.5,0.4,0.7,0.5L76.8,8z M76.3,9.6
		c0.1-0.3,0.3-0.8,0.5-1.3L77,8.4c-0.1,0.4-0.3,0.9-0.4,1.3L76.3,9.6z M76.9,7c-0.1-0.2-0.4-0.4-0.6-0.6l0.2-0.2
		c0.2,0.2,0.5,0.4,0.6,0.5L76.9,7z M79.8,9.4v0.2H77V9.4h0.4V8.3h2.1v1.2H79.8z M78.2,7.6c-0.2,0.2-0.6,0.5-0.9,0.7
		c0-0.1-0.1-0.2-0.2-0.2c0.3-0.1,0.7-0.4,0.9-0.6L78.2,7.6z M77.1,7.1h2.6v0.2h-2.6V7.1z M77.9,7c-0.1-0.2-0.2-0.5-0.4-0.7l0.2-0.1
		c0.1,0.2,0.3,0.5,0.4,0.7L77.9,7z M77.6,9.4H78V8.5h-0.4V9.4z M78.2,8.5v0.9h0.4V8.5H78.2z M78.8,7.4c0.3,0.2,0.7,0.4,1,0.6
		l-0.1,0.2c-0.2-0.2-0.6-0.5-1-0.6L78.8,7.4z M79.4,6.3c-0.1,0.2-0.3,0.5-0.4,0.7l-0.2-0.1c0.1-0.2,0.3-0.5,0.4-0.7L79.4,6.3z
		 M78.8,8.5v0.9h0.4V8.5H78.8z"/>
	<path fill="#999999" d="M81.2,6.3c-0.1,0.3-0.2,0.5-0.3,0.8v2.8h-0.3V7.5c-0.1,0.2-0.3,0.4-0.4,0.6c0-0.1-0.1-0.2-0.1-0.3
		c0.4-0.4,0.7-1,0.9-1.6L81.2,6.3z M82.3,9.4c-0.2,0.2-0.6,0.3-1,0.4c0,0-0.1-0.1-0.1-0.2c0.3-0.1,0.7-0.2,0.9-0.4L82.3,9.4z
		 M82,6.6h-0.8V6.4h2.5v0.2h-0.8v0.2h0.7v0.8h-2.3V6.8H82V6.6z M81.4,9.2V7.8h2.2v1.4H81.4z M81.6,7.4H82V7h-0.5V7.4z M81.7,8.2h1.7
		V8h-1.7V8.2z M81.7,8.6h1.7V8.4h-1.7V8.6z M81.7,9.1h1.7V8.8h-1.7V9.1z M82.7,6.6h-0.5v0.2h0.5V6.6z M82.2,7.4h0.5V7h-0.5V7.4z
		 M82.9,9.3c0.3,0.1,0.7,0.3,1,0.4l-0.2,0.2c-0.2-0.1-0.6-0.3-0.9-0.4L82.9,9.3z M82.9,7v0.4h0.5V7H82.9z"/>
	<path fill="#999999" d="M87.4,7.1c-0.5,0.7-1.4,1.6-2.2,2.1c0,0,0.1,0.1,0.1,0.1c0.3,0.2,0.6,0.2,1,0.2c0.5,0,1.1,0,1.4-0.1
		c0,0.1-0.1,0.2-0.1,0.3c-0.3,0-1,0-1.4,0c-0.5,0-0.8,0-1.1-0.2c-0.2-0.1-0.3-0.2-0.4-0.2c-0.1,0-0.3,0.2-0.5,0.5l-0.2-0.2
		C84.5,9.2,84.7,9,84.9,9c0,0,0,0,0.1,0c0.7-0.4,1.5-1.2,2-1.8h-2.6V7h2.8l0.1,0L87.4,7.1z M86.1,7c-0.1-0.2-0.3-0.5-0.4-0.7
		l0.2-0.1c0.2,0.2,0.3,0.5,0.4,0.7L86.1,7z"/>
	<path fill="#999999" d="M89.4,8.5c-0.1-0.1-0.2-0.4-0.3-0.6v1.8h-0.3V8c-0.2,0.4-0.4,0.9-0.6,1.1c0-0.1-0.1-0.2-0.1-0.3
		c0.2-0.3,0.5-0.8,0.6-1.3h-0.6V7.3h0.6V6.6c-0.2,0-0.3,0.1-0.5,0.1c0-0.1,0-0.2-0.1-0.2c0.4-0.1,0.9-0.2,1.1-0.3l0.2,0.2
		c-0.1,0.1-0.3,0.1-0.4,0.2v0.7h0.5v0.3h-0.5v0.1c0.1,0.1,0.4,0.5,0.5,0.6L89.4,8.5z M91.8,9.5v0.2h-2.3V9.5h1V8.9h-0.8V8.7h0.8V8.2
		c-0.2,0-0.5,0-0.7,0.1c0-0.1,0-0.1-0.1-0.2c0.6,0,1.2-0.1,1.6-0.2L91.6,8c-0.2,0.1-0.5,0.1-0.7,0.1v0.5h0.8v0.2h-0.8v0.6H91.8z
		 M91.6,7.6h-1.8V6.4h1.8V7.6z M91.3,6.6H90v0.8h1.3V6.6z"/>
	<path fill="#999999" d="M92.8,7.7c0,0.6-0.1,1.5-0.4,2.2c-0.1,0-0.2-0.1-0.2-0.1c0.3-0.6,0.4-1.4,0.4-2V6.6h1.6
		c0-0.1-0.1-0.3-0.2-0.4l0.3-0.1c0.1,0.1,0.2,0.3,0.2,0.4h1.4v0.3h-3V7.7z M95.4,8.5c-0.2,0.3-0.5,0.6-0.9,0.8
		c0.4,0.1,0.8,0.2,1.2,0.3c-0.1,0.1-0.1,0.2-0.2,0.2c-0.5-0.1-1-0.2-1.4-0.4c-0.4,0.2-0.9,0.3-1.4,0.3c0-0.1-0.1-0.2-0.1-0.2
		c0.4,0,0.9-0.1,1.3-0.2c-0.3-0.2-0.5-0.4-0.7-0.6l0.1-0.1h-0.5V8.5h2.3l0.1,0L95.4,8.5z M93.5,8.2V7.5h-0.7V7.3h0.7V6.9h0.3v0.4h1
		V6.9h0.3v0.4h0.7v0.2h-0.7v0.7H93.5z M93.6,8.7c0.2,0.2,0.4,0.4,0.7,0.5c0.3-0.1,0.6-0.3,0.7-0.5H93.6z M93.8,7.5V8h1V7.5H93.8z"/>
	<path fill="#999999" d="M97,7.4c0.3,0,0.6,0.3,0.6,0.6c0,0.3-0.3,0.6-0.6,0.6c-0.3,0-0.6-0.3-0.6-0.6C96.4,7.7,96.7,7.4,97,7.4z
		 M97,8.4c0.2,0,0.4-0.2,0.4-0.4c0-0.2-0.2-0.4-0.4-0.4c-0.2,0-0.4,0.2-0.4,0.4C96.6,8.2,96.8,8.4,97,8.4z"/>
	<path fill="#999999" d="M101.7,6.6v0.2h-3.5V6.6h1.7c0-0.1-0.1-0.3-0.1-0.4l0.3-0.1c0.1,0.1,0.1,0.3,0.2,0.4H101.7z M101.6,9.5
		c0,0.1,0,0.2-0.1,0.2c-0.1,0-0.3,0-0.5,0c0-0.1-0.1-0.1-0.1-0.2c0.2,0,0.4,0,0.4,0c0,0,0.1,0,0.1-0.1V8.3h-2.7v1.5h-0.3V8.1h3.2
		V9.5z M101.2,7.1v0.8h-2.3V7.1H101.2z M100.9,7.3h-1.7v0.4h1.7V7.3z M100.8,9.4h-1.4v0.2h-0.2v-1h1.7V9.4z M99.4,8.8v0.4h1.2V8.8
		H99.4z"/>
	<path fill="#999999" d="M103.7,7.7c0,0,0,0.1,0,0.1c0,1.3-0.1,1.7-0.2,1.8c-0.1,0.1-0.1,0.1-0.2,0.1c-0.1,0-0.2,0-0.4,0
		c0-0.1,0-0.2-0.1-0.2c0.1,0,0.3,0,0.3,0c0.1,0,0.1,0,0.1-0.1c0.1-0.1,0.1-0.5,0.2-1.5h-0.5c0,0.8-0.2,1.5-0.5,1.9
		c0-0.1-0.1-0.1-0.2-0.2c0.4-0.5,0.5-1.4,0.5-2.5h-0.4V6.8h1.6v0.2h-0.9c0,0.2,0,0.4,0,0.6H103.7z M103,6.8
		c-0.1-0.2-0.2-0.4-0.3-0.6l0.2-0.1c0.1,0.2,0.3,0.4,0.4,0.6L103,6.8z M104.9,6.2c0,0.1,0,0.1-0.1,0.2c0.2,0.4,0.6,0.9,1,1.1
		c-0.1,0-0.1,0.1-0.2,0.2c-0.3-0.2-0.7-0.6-0.9-1.1c-0.2,0.5-0.5,0.8-0.9,1.1c0-0.1-0.1-0.2-0.2-0.2c0.5-0.3,0.8-0.8,1-1.4
		L104.9,6.2z M104.3,8.8c0.4,0.2,0.9,0.5,1.1,0.7l-0.2,0.2c-0.2-0.2-0.7-0.5-1.1-0.7L104.3,8.8z M105,8.4c-0.1-0.2-0.5-0.4-0.7-0.5
		l0.2-0.2c0.2,0.2,0.5,0.4,0.7,0.5L105,8.4z"/>
	<path fill="#999999" d="M106.4,9.2h0.7V7h-0.5V6.8c0.3,0,0.4-0.1,0.6-0.2h0.2v2.7h0.6v0.3h-1.6V9.2z"/>
	<path fill="#999999" d="M108.4,8c0-1,0.3-1.5,0.9-1.5c0.5,0,0.9,0.5,0.9,1.5c0,1-0.3,1.5-0.9,1.5C108.7,9.6,108.4,9.1,108.4,8z
		 M109.9,8c0-0.9-0.2-1.2-0.6-1.2c-0.3,0-0.6,0.4-0.6,1.2c0,0.9,0.2,1.3,0.6,1.3C109.6,9.3,109.9,8.9,109.9,8z"/>
	<path fill="#999999" d="M110.6,8c0-1,0.3-1.5,0.9-1.5c0.5,0,0.9,0.5,0.9,1.5c0,1-0.3,1.5-0.9,1.5C110.9,9.6,110.6,9.1,110.6,8z
		 M112.1,8c0-0.9-0.2-1.2-0.6-1.2c-0.3,0-0.6,0.4-0.6,1.2c0,0.9,0.2,1.3,0.6,1.3C111.8,9.3,112.1,8.9,112.1,8z"/>
	<path fill="#999999" d="M112.7,7.5c0-0.6,0.3-0.9,0.7-0.9s0.7,0.3,0.7,0.9c0,0.6-0.3,0.9-0.7,0.9S112.7,8,112.7,7.5z M113.8,7.5
		c0-0.5-0.2-0.7-0.4-0.7c-0.2,0-0.4,0.2-0.4,0.7s0.2,0.7,0.4,0.7C113.6,8.2,113.8,7.9,113.8,7.5z M115.1,6.5h0.2l-1.6,3h-0.2
		L115.1,6.5z M114.8,8.6c0-0.6,0.3-0.9,0.7-0.9c0.4,0,0.7,0.3,0.7,0.9c0,0.6-0.3,0.9-0.7,0.9C115,9.6,114.8,9.2,114.8,8.6z
		 M115.8,8.6c0-0.5-0.2-0.7-0.4-0.7c-0.2,0-0.4,0.2-0.4,0.7c0,0.5,0.2,0.7,0.4,0.7C115.7,9.4,115.8,9.1,115.8,8.6z"/>
	<path fill="#999999" d="M117.8,6.3c-0.1,0.3-0.3,0.6-0.4,0.8v2.7h-0.3V7.5c-0.2,0.2-0.4,0.4-0.6,0.6c0-0.1-0.1-0.2-0.2-0.3
		c0.5-0.4,0.9-1,1.2-1.6L117.8,6.3z M118.8,7.6c0.1,1.1,0.4,1.8,0.9,1.9c0.1,0,0.2-0.2,0.2-0.7c0.1,0.1,0.2,0.1,0.2,0.1
		c-0.1,0.7-0.2,0.9-0.4,0.9c-0.7,0-1-0.9-1.1-2.1l-1,0.1l0-0.3l1-0.1c0-0.4-0.1-0.8-0.1-1.2h0.3c0,0.4,0,0.8,0.1,1.2l1.2-0.1l0,0.2
		L118.8,7.6z M119.8,7.1c-0.1-0.2-0.4-0.5-0.7-0.7l0.2-0.1c0.2,0.2,0.5,0.5,0.7,0.6L119.8,7.1z"/>
	<path fill="#999999" d="M123.9,8.3c-0.2,0.2-0.5,0.4-0.8,0.6c0.3,0.3,0.6,0.5,1,0.6c-0.1,0.1-0.1,0.2-0.2,0.2
		c-0.8-0.3-1.4-0.9-1.7-1.7h0c-0.2,0.2-0.4,0.4-0.6,0.5v0.9l1-0.3c0,0.1,0,0.2,0,0.2c-1.1,0.4-1.2,0.4-1.3,0.5
		c0-0.1-0.1-0.2-0.1-0.2c0.1,0,0.1-0.1,0.1-0.3V8.7c-0.2,0.1-0.5,0.3-0.7,0.3c0-0.1-0.1-0.2-0.2-0.2c0.5-0.2,1.1-0.5,1.5-0.8h-1.3
		V7.7h1.6V7.4h-1.2V7.1h1.2V6.8h-1.4V6.5h1.4V6.2h0.3v0.4h1.5v0.2h-1.5v0.4h1.3v0.2h-1.3v0.4h1.6V8h-1.5c0.1,0.3,0.3,0.5,0.4,0.7
		c0.2-0.2,0.5-0.4,0.7-0.6L123.9,8.3z"/>
	<path fill="#999999" d="M125.5,8.4v1.4h-0.3V8.4h-0.8V8.2h0.8V7.7h-0.8V7.5h1.1c0.1-0.2,0.2-0.5,0.2-0.7l0.2,0.1
		c-0.1,0.2-0.2,0.4-0.2,0.6h0.5v0.2h-0.8v0.4h0.7v0.2H125.5z M125,8.7c-0.1,0.3-0.3,0.6-0.4,0.8c0,0-0.1-0.1-0.2-0.1
		c0.2-0.2,0.3-0.5,0.4-0.7L125,8.7z M126.3,6.8h-1.8V6.6h0.8c-0.1-0.1-0.1-0.3-0.2-0.4l0.3-0.1c0.1,0.1,0.2,0.3,0.2,0.4h0.6V6.8z
		 M124.9,7.5c0-0.2-0.1-0.4-0.2-0.6l0.2-0.1c0.1,0.2,0.2,0.4,0.2,0.6L124.9,7.5z M125.9,8.6c0.1,0.2,0.3,0.5,0.3,0.6l-0.2,0.1
		c-0.1-0.2-0.2-0.5-0.3-0.7L125.9,8.6z M128.1,7.8h-0.5v2h-0.3v-2h-0.6v0.2c0,0.6-0.1,1.4-0.4,1.9c0,0-0.1-0.1-0.2-0.2
		c0.3-0.5,0.4-1.2,0.4-1.7V6.6c0.4-0.1,1-0.2,1.3-0.3l0.2,0.2c-0.3,0.1-0.8,0.2-1.2,0.3v0.8h1.3V7.8z"/>
	<path fill="#999999" d="M3.8,14.6v0.2H0.2v-0.2h0.3l-0.1-2.1c0.2-0.1,0.5-0.2,0.7-0.3l0.1,0.2c-0.2,0.1-0.4,0.1-0.6,0.2l0,0.5h0.5
		v0.2H0.7l0,0.5h0.5v0.2H0.8l0,0.5h0.5v-2.2h1.4v2.2h0.6c0-0.2,0-0.3,0-0.5H2.8v-0.2h0.5c0-0.2,0-0.3,0-0.5H2.8v-0.2h0.5
		c0-0.2,0-0.4,0-0.6H2.8v-0.2h0.7c0,0.7,0,1.7-0.1,2.3H3.8z M1.6,15.1c-0.3,0.2-0.8,0.5-1.2,0.7c0-0.1-0.1-0.1-0.2-0.2
		c0.4-0.2,0.9-0.4,1.1-0.7L1.6,15.1z M1.5,14.6h1v-2h-1V14.6z M2.3,12.9v0.2H1.6v-0.2H2.3z M1.7,13.4h0.6v0.9H1.7V13.4z M1.8,14.1
		h0.3v-0.6H1.8V14.1z M2.5,14.9c0.4,0.2,0.9,0.5,1.2,0.7l-0.2,0.2c-0.3-0.2-0.7-0.5-1.1-0.7L2.5,14.9z"/>
	<path fill="#999999" d="M6.1,13v0.6h1.3V15c0,0.2,0,0.2-0.2,0.3c-0.1,0-0.4,0-0.7,0c0-0.1-0.1-0.2-0.1-0.3c0.3,0,0.5,0,0.6,0
		c0.1,0,0.1,0,0.1-0.1v-1.1h-1v2H5.9v-2h-1v1.5H4.6v-1.8h1.2V13H4.2v-0.3h1.7c-0.1-0.2-0.2-0.4-0.3-0.5l0.3-0.1
		c0.1,0.2,0.3,0.4,0.3,0.6l-0.1,0h1.6V13H6.1z"/>
	<path fill="#999999" d="M9.4,14.5c-0.4,0.2-0.8,0.4-1.2,0.6l-0.1-0.3c0.2-0.1,0.3-0.1,0.6-0.2v-1.3H8.2V13h0.5v-0.8H9V13h0.4v0.3H9
		v1.2l0.4-0.2L9.4,14.5z M10.2,14c-0.1,0.1-0.1,0.2-0.2,0.3h1.7c0,0,0,0.1,0,0.1c-0.1,0.8-0.1,1.1-0.2,1.3c-0.1,0.1-0.1,0.1-0.2,0.1
		c-0.1,0-0.2,0-0.4,0c0-0.1,0-0.2-0.1-0.2c0.2,0,0.3,0,0.3,0c0.1,0,0.1,0,0.1,0c0.1-0.1,0.1-0.3,0.2-1h-0.3c-0.2,0.5-0.5,1-0.8,1.3
		c0-0.1-0.1-0.1-0.2-0.2c0.3-0.2,0.6-0.7,0.8-1.1h-0.4c-0.2,0.4-0.6,0.9-1,1.1c0-0.1-0.1-0.1-0.2-0.2c0.3-0.2,0.7-0.6,0.9-0.9H9.8
		c-0.2,0.2-0.3,0.3-0.5,0.5c0,0-0.1-0.1-0.2-0.2c0.3-0.2,0.6-0.5,0.8-0.8H9.3v-0.2h2.5V14H10.2z M11.5,13.6H9.7v-1.3h1.8V13.6z
		 M11.3,12.5H10v0.3h1.3V12.5z M11.3,13H10v0.3h1.3V13z"/>
	<path fill="#999999" d="M13,14.3v1.2c0,0.2,0,0.2-0.1,0.3c-0.1,0-0.3,0.1-0.5,0.1c0-0.1,0-0.2-0.1-0.2c0.2,0,0.4,0,0.4,0
		c0.1,0,0.1,0,0.1-0.1v-1.1c-0.2,0.1-0.4,0.1-0.5,0.2l-0.1-0.3c0.2,0,0.4-0.1,0.6-0.2v-0.9h-0.6V13h0.6v-0.8H13V13h0.5v0.2H13v0.8
		c0.1,0,0.3-0.1,0.4-0.1l0,0.2L13,14.3z M15.5,14c-0.2,0.5-0.4,0.9-0.8,1.1c0.3,0.2,0.7,0.4,1.1,0.4c-0.1,0.1-0.1,0.2-0.2,0.2
		c-0.4-0.1-0.8-0.3-1.1-0.5c-0.4,0.2-0.8,0.4-1.2,0.5c0-0.1-0.1-0.2-0.1-0.2c0.4-0.1,0.8-0.2,1.1-0.4c-0.3-0.3-0.5-0.6-0.7-0.9l0,0
		h-0.1v-0.3h1.8l0.1,0L15.5,14z M14.2,12.8c0,0.4-0.1,0.8-0.6,1.1c0-0.1-0.1-0.2-0.2-0.2c0.4-0.3,0.5-0.6,0.5-0.9v-0.4h1.2v0.9
		c0,0.1,0,0.1,0.1,0.1h0.3c0.1,0,0.1,0,0.2,0c0,0.1,0,0.2,0,0.2c0,0-0.1,0-0.2,0h-0.3c-0.3,0-0.3-0.1-0.3-0.4v-0.7h-0.7V12.8z
		 M13.9,14.2c0.1,0.3,0.4,0.6,0.6,0.8c0.3-0.2,0.5-0.5,0.7-0.8H13.9z"/>
	<path fill="#999999" d="M17.3,13.3h-1.1V13h1.1V13.3z M17.6,15.3c-0.3,0.2-0.8,0.4-1.2,0.5c0-0.1-0.1-0.2-0.2-0.2
		c0.4-0.1,0.9-0.2,1.2-0.4L17.6,15.3z M17.2,12.6h-0.9v-0.2h0.9V12.6z M19.3,15.2h-2.6v-1.6h2.6V15.2z M19,13.8H17v0.3H19V13.8z
		 M19,14.2H17v0.3H19V14.2z M19,14.7H17V15H19V14.7z M18.7,12.7c0,0,0,0.1,0,0.1c0.2,0.2,0.7,0.4,1.2,0.5c-0.1,0.1-0.1,0.2-0.2,0.2
		c-0.5-0.1-0.9-0.2-1.1-0.5c-0.1,0.2-0.4,0.4-1.2,0.5c0-0.1-0.1-0.2-0.1-0.2c1-0.1,1.1-0.4,1.1-0.7v0H18c-0.1,0.2-0.2,0.3-0.3,0.4
		c0,0-0.1-0.1-0.2-0.1c0.2-0.2,0.4-0.5,0.5-0.8l0.2,0.1c0,0.1-0.1,0.2-0.1,0.2h1.4l0,0l0.2,0.1c-0.1,0.2-0.2,0.4-0.3,0.6L19.1,13
		c0.1-0.1,0.1-0.2,0.2-0.3L18.7,12.7L18.7,12.7z M18.6,15.2c0.4,0.1,0.9,0.3,1.2,0.4l-0.2,0.2c-0.3-0.1-0.7-0.3-1.1-0.4L18.6,15.2z"
		/>
	<path fill="#999999" d="M21.6,13.1h-1.4v-0.2h1.4V13.1z M21.5,15.6h-0.9v0.2h-0.2v-1.3h1.1V15.6z M20.4,13.4h1.1v0.2h-1.1V13.4z
		 M20.4,13.9h1.1v0.2h-1.1V13.9z M20.6,14.7v0.7h0.7v-0.7H20.6z M20.9,12.8c-0.1-0.1-0.2-0.4-0.3-0.5l0.2-0.1
		c0.1,0.2,0.2,0.4,0.3,0.5L20.9,12.8z M23.8,14.4h-1v1.4h-0.3v-1.4h-1v-0.3h1v-1.5h-0.8v-0.3h2v0.3h-0.9v1.5h1V14.4z M22.1,12.9
		c0.1,0.3,0.2,0.7,0.2,1l-0.2,0.1c0-0.3-0.1-0.7-0.2-1L22.1,12.9z M23.1,13.9c0.1-0.3,0.2-0.7,0.3-1l0.3,0.1c-0.1,0.3-0.2,0.8-0.3,1
		L23.1,13.9z"/>
	<path fill="#999999" d="M25.2,12.3c-0.1,0.3-0.2,0.5-0.3,0.8v2.8h-0.3v-2.3c-0.1,0.2-0.3,0.4-0.4,0.6c0-0.1-0.1-0.2-0.1-0.3
		c0.4-0.4,0.7-1,0.9-1.6L25.2,12.3z M26.3,15.4c-0.2,0.2-0.6,0.3-1,0.4c0,0-0.1-0.1-0.1-0.2c0.3-0.1,0.7-0.2,0.9-0.4L26.3,15.4z
		 M26,12.6h-0.8v-0.2h2.5v0.2h-0.8v0.2h0.7v0.8h-2.3v-0.8H26V12.6z M25.4,15.2v-1.4h2.2v1.4H25.4z M25.6,13.4H26V13h-0.5V13.4z
		 M25.7,14.2h1.7V14h-1.7V14.2z M25.7,14.6h1.7v-0.2h-1.7V14.6z M25.7,15.1h1.7v-0.2h-1.7V15.1z M26.7,12.6h-0.5v0.2h0.5V12.6z
		 M26.2,13.4h0.5V13h-0.5V13.4z M26.9,15.3c0.3,0.1,0.7,0.3,1,0.4l-0.2,0.2c-0.2-0.1-0.6-0.3-0.9-0.4L26.9,15.3z M26.9,13v0.4h0.5
		V13H26.9z"/>
	<path fill="#999999" d="M29.1,15.1v0.7h-0.2v-0.7h-0.7v-0.2h0.7v-0.3h-0.5v-1.4h0.5v-0.3h-0.6v-0.2h0.6v-0.4h0.2v0.4h0.6v0.2h-0.6
		v0.3h0.6v1.4h-0.6v0.3h0.6v0.2H29.1z M28.5,13.8h0.3v-0.4h-0.3V13.8z M28.5,14.4h0.3V14h-0.3V14.4z M29.4,13.4h-0.4v0.4h0.4V13.4z
		 M29.4,14h-0.4v0.4h0.4V14z M31.4,13.9c-0.1,0.4-0.2,0.7-0.4,1c0.3,0.3,0.6,0.6,0.9,0.7c-0.1,0-0.1,0.1-0.2,0.2
		c-0.4-0.2-0.7-0.4-0.9-0.7c-0.2,0.3-0.6,0.6-0.9,0.8c0-0.1-0.1-0.1-0.2-0.2c0.4-0.2,0.7-0.5,1-0.8c-0.2-0.3-0.3-0.6-0.4-0.9
		l0.2-0.1c0.1,0.3,0.2,0.5,0.4,0.8c0.1-0.2,0.3-0.5,0.3-0.8L31.4,13.9z M30.6,13.2c-0.2,0.3-0.4,0.7-0.6,0.9c0,0-0.2-0.1-0.2-0.2
		c0.2-0.2,0.4-0.5,0.5-0.8L30.6,13.2z M31.8,13h-2v-0.2h2V13z M30.7,12.7c-0.1-0.1-0.2-0.3-0.3-0.5l0.2-0.1c0.1,0.1,0.2,0.3,0.3,0.5
		L30.7,12.7z M31.2,13.1c0.2,0.3,0.5,0.6,0.6,0.8l-0.2,0.1c-0.1-0.2-0.4-0.6-0.6-0.8L31.2,13.1z"/>
	<path fill="#999999" d="M33.9,15c0,0.1,0,0.2,0,0.2c-1.2,0.2-1.3,0.3-1.4,0.3c0-0.1-0.1-0.2-0.1-0.2c0.1,0,0.2-0.1,0.2-0.2v-0.9
		c0.4-0.1,0.9-0.2,1.2-0.3l0.2,0.2c-0.3,0.1-0.7,0.2-1.1,0.3v0.8L33.9,15z M35.4,13.7h-2.7v-1.4h2.7V13.7z M35.1,12.6h-2.2v0.4h2.2
		V12.6z M35.1,13.1h-2.2v0.4h2.2V13.1z M35.6,15.2c0,0.1,0,0.2-0.1,0.3c-0.1,0-0.3,0-0.6,0c0-0.1,0-0.2-0.1-0.2c0.2,0,0.4,0,0.5,0
		c0.1,0,0.1,0,0.1-0.1v-1h-1v1.6h-0.3V14h1.5V15.2z"/>
	<path fill="#999999" d="M39.8,13.3v0.2h-3.5v-0.2h1.6v-0.2h-1.1v-0.7h1.1v-0.2h0.3v0.2h1.2v0.7h-1.2v0.2H39.8z M37.7,15.4
		c-0.3,0.2-0.8,0.3-1.2,0.4c0-0.1-0.1-0.2-0.2-0.2c0.4-0.1,0.9-0.2,1.2-0.3L37.7,15.4z M39.3,15.2h-2.6v-1.5h2.6V15.2z M39.1,13.9
		H37v0.3h2.1V13.9z M39.1,14.4H37v0.3h2.1V14.4z M39.1,14.8H37v0.3h2.1V14.8z M37.9,12.9v-0.3H37v0.3H37.9z M38.1,12.6v0.3H39v-0.3
		H38.1z M38.6,15.3c0.4,0.1,0.9,0.3,1.2,0.4l-0.3,0.1c-0.3-0.1-0.7-0.3-1.1-0.4L38.6,15.3z"/>
	<path fill="#999999" d="M40.6,14.6c0.3-0.1,0.5-0.3,0.5-0.6c0,0-0.1,0-0.1,0c-0.2,0-0.3-0.1-0.3-0.3c0-0.2,0.1-0.3,0.3-0.3
		c0.2,0,0.3,0.2,0.3,0.4c0,0.4-0.3,0.7-0.7,0.9L40.6,14.6z"/>
	<path fill="#999999" d="M45.4,13.5c-0.2,0.6-0.5,1.1-0.9,1.5c0.4,0.3,0.8,0.5,1.3,0.6c-0.1,0.1-0.1,0.2-0.2,0.2
		c-0.5-0.1-1-0.3-1.3-0.6c-0.4,0.3-0.8,0.5-1.3,0.6c0-0.1-0.1-0.2-0.2-0.2c0.4-0.1,0.8-0.3,1.2-0.6c-0.4-0.3-0.6-0.8-0.8-1.3H43
		c0,0.7-0.1,1.5-0.5,2.1c0,0-0.2-0.1-0.2-0.2c0.4-0.6,0.5-1.5,0.5-2.1v-1.1h2.9v0.3H43v0.7h2.2l0.1,0L45.4,13.5z M43.5,13.7
		c0.2,0.5,0.4,0.8,0.7,1.1c0.3-0.3,0.6-0.7,0.8-1.1H43.5z"/>
	<path fill="#999999" d="M49.4,13.1c-0.5,0.7-1.4,1.6-2.2,2.1c0,0,0.1,0.1,0.1,0.1c0.3,0.2,0.6,0.2,1,0.2c0.5,0,1.1,0,1.4-0.1
		c0,0.1-0.1,0.2-0.1,0.3c-0.3,0-1,0-1.4,0c-0.5,0-0.8,0-1.1-0.2c-0.2-0.1-0.3-0.2-0.4-0.2c-0.1,0-0.3,0.2-0.5,0.5l-0.2-0.2
		c0.3-0.3,0.5-0.5,0.7-0.5c0,0,0,0,0.1,0c0.7-0.4,1.5-1.2,2-1.8h-2.6V13h2.8l0.1,0L49.4,13.1z M48.1,13c-0.1-0.2-0.3-0.5-0.4-0.7
		l0.2-0.1c0.2,0.2,0.3,0.5,0.4,0.7L48.1,13z"/>
	<path fill="#999999" d="M50.9,15c-0.1,0.3-0.4,0.6-0.6,0.8c0,0-0.2-0.1-0.2-0.2c0.2-0.2,0.4-0.4,0.5-0.7L50.9,15z M51.9,12.3v2.5
		h-1.5v-2.5H51.9z M50.7,13.1h1v-0.5h-1V13.1z M50.7,13.8h1v-0.5h-1V13.8z M50.7,14.6h1v-0.5h-1V14.6z M51.6,15
		c0.2,0.2,0.4,0.5,0.5,0.7l-0.2,0.1c-0.1-0.2-0.3-0.5-0.4-0.7L51.6,15z M52.7,12.7v2.2h-0.3v-2.2H52.7z M53.6,12.3v3.2
		c0,0.2-0.1,0.3-0.2,0.3c-0.1,0-0.3,0-0.7,0c0-0.1-0.1-0.2-0.1-0.3c0.3,0,0.5,0,0.6,0c0.1,0,0.1,0,0.1-0.1v-3.2H53.6z"/>
	<path fill="#999999" d="M55.5,12.3c-0.1,0.3-0.3,0.6-0.4,0.8v2.7h-0.3v-2.3c-0.2,0.2-0.4,0.4-0.6,0.6c0-0.1-0.1-0.2-0.2-0.3
		c0.5-0.4,0.9-1,1.2-1.6L55.5,12.3z M56.6,13.6c0.1,1.1,0.4,1.8,0.9,1.9c0.1,0,0.2-0.2,0.2-0.7c0.1,0.1,0.2,0.1,0.2,0.1
		c-0.1,0.7-0.2,0.9-0.4,0.9c-0.7,0-1-0.9-1.1-2.1l-1,0.1l0-0.3l1-0.1c0-0.4-0.1-0.8-0.1-1.2h0.3c0,0.4,0,0.8,0.1,1.2l1.2-0.1l0,0.2
		L56.6,13.6z M57.5,13.1c-0.1-0.2-0.4-0.5-0.7-0.7l0.2-0.1c0.2,0.2,0.5,0.5,0.7,0.6L57.5,13.1z"/>
	<path fill="#999999" d="M61.6,14.3c-0.2,0.2-0.5,0.4-0.8,0.6c0.3,0.3,0.6,0.5,1,0.6c-0.1,0.1-0.1,0.2-0.2,0.2
		c-0.8-0.3-1.4-0.9-1.7-1.7h0c-0.2,0.2-0.4,0.4-0.6,0.5v0.9l1-0.3c0,0.1,0,0.2,0,0.2c-1.1,0.4-1.2,0.4-1.3,0.5
		c0-0.1-0.1-0.2-0.1-0.2c0.1,0,0.1-0.1,0.1-0.3v-0.6c-0.2,0.1-0.5,0.3-0.7,0.3c0-0.1-0.1-0.2-0.2-0.2c0.5-0.2,1.1-0.5,1.5-0.8h-1.3
		v-0.2h1.6v-0.4h-1.2v-0.2h1.2v-0.4h-1.4v-0.2h1.4v-0.4h0.3v0.4h1.5v0.2h-1.5v0.4h1.3v0.2h-1.3v0.4h1.6V14h-1.5
		c0.1,0.3,0.3,0.5,0.4,0.7c0.2-0.2,0.5-0.4,0.7-0.6L61.6,14.3z"/>
	<path fill="#999999" d="M65,15.4c0.4,0,0.5-0.1,0.6-0.8c0.1,0,0.2,0.1,0.3,0.1c-0.1,0.7-0.2,0.9-0.8,0.9h-1.5
		c-0.6,0-0.8-0.1-0.8-0.6v-2h0.3v0.7H65v-1.1h-2.6v-0.3h2.9v1.8H65V14h-2.1v1.1c0,0.3,0.1,0.3,0.5,0.3H65z"/>
	<path fill="#999999" d="M66.6,13.7v2.1h-0.3v-3.5h1.4v1.3H66.6z M66.6,12.6v0.3h0.9v-0.3H66.6z M67.6,13.5v-0.4h-0.9v0.4H67.6z
		 M68.5,14.8v0.9h-0.2v-0.9h-0.6c0,0.3-0.1,0.7-0.5,1c0,0-0.1-0.1-0.2-0.2c0.4-0.2,0.5-0.6,0.5-0.8h-0.5v-0.2h0.5v-0.5H67v-0.2h2
		v0.2h-0.5v0.5h0.6v0.2H68.5z M68.3,14.6v-0.5h-0.6v0.5H68.3z M69.6,15.5c0,0.2,0,0.3-0.2,0.3c-0.1,0-0.3,0-0.6,0
		c0-0.1,0-0.2-0.1-0.3c0.2,0,0.4,0,0.5,0c0.1,0,0.1,0,0.1-0.1v-1.8h-1.2v-1.3h1.5V15.5z M68.4,12.6v0.3h1v-0.3H68.4z M69.4,13.5
		v-0.4h-1v0.4H69.4z"/>
	<path fill="#999999" d="M71.7,14.7c0,0,0,0.1,0,0.1c-0.1,0.6-0.1,0.8-0.2,0.9c-0.1,0.1-0.1,0.1-0.3,0.1c-0.1,0-0.3,0-0.5,0
		c0-0.1,0-0.2-0.1-0.2c0.2,0,0.4,0,0.5,0c0.1,0,0.1,0,0.1,0c0.1-0.1,0.1-0.2,0.1-0.6h-0.9c0-0.2,0.1-0.6,0.1-0.9h0.8v-0.4h-0.7v0
		c-0.1,0.1-0.3,0.1-0.5,0.2c0-0.1-0.1-0.1-0.1-0.2c0.3-0.1,0.6-0.2,0.8-0.4c-0.1-0.1-0.3-0.3-0.5-0.4l0.2-0.1
		c0.2,0.1,0.4,0.3,0.5,0.4c0.2-0.1,0.3-0.3,0.4-0.5h-1v-0.2h1.1l0,0l0.2,0.1c-0.2,0.4-0.5,0.7-0.9,1h0.6v0.9h-0.9
		c0,0.2,0,0.3-0.1,0.4H71.7z M73.7,12.7c-0.2,0.2-0.4,0.3-0.6,0.5c0.2,0.1,0.4,0.2,0.7,0.3c-0.1,0.1-0.1,0.2-0.2,0.2
		c-0.2-0.1-0.4-0.1-0.6-0.3V14c0,0.1,0,0.1,0.1,0.1h0.3c0,0,0.1,0,0.2,0c0,0.1,0,0.1,0,0.2c0,0-0.1,0-0.2,0h-0.3
		c-0.2,0-0.3-0.1-0.3-0.3v-0.4h-0.6v0.1c0,0.3-0.1,0.5-0.4,0.7c0,0-0.1-0.1-0.2-0.2c0.3-0.2,0.4-0.4,0.4-0.6v-0.3H73
		c-0.4-0.3-0.8-0.7-1-1.1l0.2-0.1c0.1,0.2,0.2,0.3,0.3,0.5c0.2-0.1,0.4-0.3,0.5-0.5l0.2,0.1c-0.2,0.2-0.4,0.3-0.6,0.5
		c0.1,0.1,0.2,0.2,0.3,0.2c0.2-0.1,0.4-0.3,0.6-0.5L73.7,12.7z M73.4,14.6c-0.1,0.3-0.3,0.5-0.5,0.7c0.2,0.1,0.4,0.3,0.6,0.4
		l-0.1,0.2c-0.1-0.1-0.4-0.3-0.6-0.4c-0.3,0.2-0.6,0.3-0.9,0.4c0-0.1-0.1-0.1-0.1-0.2c0.3-0.1,0.6-0.2,0.8-0.3
		c-0.2-0.1-0.4-0.3-0.6-0.4l0.1-0.1c0.2,0.1,0.5,0.3,0.7,0.4c0.2-0.1,0.3-0.3,0.4-0.5h-1.2v-0.2h1.4l0,0L73.4,14.6z"/>
	<path fill="#999999" d="M77.7,12.4v3.5h-0.3v-0.2h-2.8v0.2h-0.3v-3.5H77.7z M77.4,15.4v-2.8h-2.8v2.8H77.4z M76,14.8
		c-0.4,0.1-0.9,0.2-1.2,0.2l0-0.2c0.3-0.1,0.8-0.1,1.2-0.2L76,14.8z M77,13.6c-0.1,0.4-0.3,0.7-0.4,1c0.1,0.2,0.2,0.4,0.4,0.4
		c0.1,0,0.1-0.2,0.1-0.4c0,0,0.1,0.1,0.2,0.1c-0.1,0.4-0.2,0.6-0.4,0.5c-0.2,0-0.3-0.2-0.4-0.4c-0.2,0.2-0.3,0.3-0.5,0.5
		c0,0-0.1-0.1-0.2-0.2c0.2-0.1,0.4-0.3,0.6-0.5c-0.1-0.3-0.2-0.7-0.2-1.2h-1.2v-0.2h1.2c0-0.1,0-0.3,0-0.4h0.2c0,0.1,0,0.3,0,0.4
		h0.9v0.2h-0.9c0,0.4,0.1,0.7,0.2,1c0.1-0.2,0.2-0.5,0.3-0.8L77,13.6z M75.9,13.6v0.8H75v-0.8H75.9z M75.7,13.8h-0.5v0.4h0.5V13.8z
		 M76.9,13.1c-0.1-0.1-0.3-0.2-0.4-0.3l0.1-0.1c0.2,0.1,0.3,0.2,0.4,0.3L76.9,13.1z"/>
	<path fill="#999999" d="M81.4,13.8c-0.2,0.1-0.4,0.3-0.6,0.5c0.2,0.5,0.6,1,1.1,1.2c-0.1,0-0.1,0.1-0.2,0.2
		c-0.5-0.2-0.9-0.7-1.1-1.3c-0.1,0-0.1,0.1-0.2,0.1c0.1,0.5,0,1-0.2,1.2c-0.1,0.1-0.2,0.1-0.4,0.1c-0.1,0-0.2,0-0.3,0
		c0-0.1,0-0.2-0.1-0.2c0.1,0,0.3,0,0.4,0c0.1,0,0.2,0,0.3-0.1c0.1-0.1,0.2-0.4,0.2-0.7c-0.5,0.4-1.1,0.7-1.7,0.9
		c0-0.1-0.1-0.2-0.1-0.2c0.6-0.1,1.4-0.5,1.8-0.9c0-0.1-0.1-0.2-0.1-0.3c-0.4,0.3-1,0.6-1.5,0.7c0-0.1-0.1-0.2-0.1-0.2
		c0.5-0.1,1.2-0.4,1.5-0.7c-0.1-0.1-0.1-0.2-0.2-0.3c-0.4,0.2-0.8,0.4-1.2,0.5c0-0.1-0.1-0.2-0.1-0.2c0.5-0.1,1.1-0.3,1.4-0.6h-0.9
		v-0.2h2.3v0.2h-1c-0.1,0.1-0.2,0.1-0.3,0.2c0.2,0.2,0.3,0.4,0.4,0.6c0.3-0.2,0.7-0.5,0.9-0.7L81.4,13.8z M78.6,13.3h-0.3v-0.8h1.5
		c0-0.1-0.1-0.2-0.2-0.3l0.3-0.1c0.1,0.1,0.2,0.3,0.2,0.4h1.5v0.8h-0.3v-0.6h-2.8V13.3z"/>
	<path fill="#999999" d="M83,14.3v1.2c0,0.2,0,0.2-0.1,0.3c-0.1,0-0.3,0.1-0.5,0.1c0-0.1,0-0.2-0.1-0.2c0.2,0,0.4,0,0.4,0
		c0.1,0,0.1,0,0.1-0.1v-1.1c-0.2,0.1-0.4,0.1-0.5,0.2l-0.1-0.3c0.2,0,0.4-0.1,0.6-0.2v-0.9h-0.6V13h0.6v-0.8H83V13h0.5v0.2H83v0.8
		c0.1,0,0.3-0.1,0.4-0.1l0,0.2L83,14.3z M85.5,14c-0.2,0.5-0.4,0.9-0.8,1.1c0.3,0.2,0.7,0.4,1.1,0.4c-0.1,0.1-0.1,0.2-0.2,0.2
		c-0.4-0.1-0.8-0.3-1.1-0.5c-0.4,0.2-0.8,0.4-1.2,0.5c0-0.1-0.1-0.2-0.1-0.2c0.4-0.1,0.8-0.2,1.1-0.4c-0.3-0.3-0.5-0.6-0.7-0.9l0,0
		h-0.1v-0.3h1.8l0.1,0L85.5,14z M84.2,12.8c0,0.4-0.1,0.8-0.6,1.1c0-0.1-0.1-0.2-0.2-0.2c0.4-0.3,0.5-0.6,0.5-0.9v-0.4h1.2v0.9
		c0,0.1,0,0.1,0.1,0.1h0.3c0.1,0,0.1,0,0.2,0c0,0.1,0,0.2,0,0.2c0,0-0.1,0-0.2,0h-0.3c-0.3,0-0.3-0.1-0.3-0.4v-0.7h-0.7V12.8z
		 M83.9,14.2c0.1,0.3,0.4,0.6,0.6,0.8c0.3-0.2,0.5-0.5,0.7-0.8H83.9z"/>
	<path fill="#999999" d="M87.3,13.3h-1.1V13h1.1V13.3z M87.6,15.3c-0.3,0.2-0.8,0.4-1.2,0.5c0-0.1-0.1-0.2-0.2-0.2
		c0.4-0.1,0.9-0.2,1.2-0.4L87.6,15.3z M87.2,12.6h-0.9v-0.2h0.9V12.6z M89.3,15.2h-2.6v-1.6h2.6V15.2z M89,13.8H87v0.3H89V13.8z
		 M89,14.2H87v0.3H89V14.2z M89,14.7H87V15H89V14.7z M88.7,12.7c0,0,0,0.1,0,0.1c0.2,0.2,0.7,0.4,1.2,0.5c-0.1,0.1-0.1,0.2-0.2,0.2
		c-0.5-0.1-0.9-0.2-1.1-0.5c-0.1,0.2-0.4,0.4-1.2,0.5c0-0.1-0.1-0.2-0.1-0.2c1-0.1,1.1-0.4,1.1-0.7v0H88c-0.1,0.2-0.2,0.3-0.3,0.4
		c0,0-0.1-0.1-0.2-0.1c0.2-0.2,0.4-0.5,0.5-0.8l0.2,0.1c0,0.1-0.1,0.2-0.1,0.2h1.4l0,0l0.2,0.1c-0.1,0.2-0.2,0.4-0.3,0.6L89.1,13
		c0.1-0.1,0.1-0.2,0.2-0.3L88.7,12.7L88.7,12.7z M88.6,15.2c0.4,0.1,0.9,0.3,1.2,0.4l-0.2,0.2c-0.3-0.1-0.7-0.3-1.1-0.4L88.6,15.2z"
		/>
	<path fill="#999999" d="M91.6,13.1h-1.4v-0.2h1.4V13.1z M91.5,15.6h-0.9v0.2h-0.2v-1.3h1.1V15.6z M90.4,13.4h1.1v0.2h-1.1V13.4z
		 M90.4,13.9h1.1v0.2h-1.1V13.9z M90.6,14.7v0.7h0.7v-0.7H90.6z M90.9,12.8c-0.1-0.1-0.2-0.4-0.3-0.5l0.2-0.1
		c0.1,0.2,0.2,0.4,0.3,0.5L90.9,12.8z M93.8,14.4h-1v1.4h-0.3v-1.4h-1v-0.3h1v-1.5h-0.8v-0.3h2v0.3h-0.9v1.5h1V14.4z M92.1,12.9
		c0.1,0.3,0.2,0.7,0.2,1l-0.2,0.1c0-0.3-0.1-0.7-0.2-1L92.1,12.9z M93.1,13.9c0.1-0.3,0.2-0.7,0.3-1l0.3,0.1c-0.1,0.3-0.2,0.8-0.3,1
		L93.1,13.9z"/>
	<path fill="#999999" d="M95.2,12.3c-0.1,0.3-0.2,0.5-0.3,0.8v2.8h-0.3v-2.3c-0.1,0.2-0.3,0.4-0.4,0.6c0-0.1-0.1-0.2-0.1-0.3
		c0.4-0.4,0.7-1,0.9-1.6L95.2,12.3z M96.3,15.4c-0.2,0.2-0.6,0.3-1,0.4c0,0-0.1-0.1-0.1-0.2c0.3-0.1,0.7-0.2,0.9-0.4L96.3,15.4z
		 M96,12.6h-0.8v-0.2h2.5v0.2h-0.8v0.2h0.7v0.8h-2.3v-0.8H96V12.6z M95.4,15.2v-1.4h2.2v1.4H95.4z M95.6,13.4H96V13h-0.5V13.4z
		 M95.7,14.2h1.7V14h-1.7V14.2z M95.7,14.6h1.7v-0.2h-1.7V14.6z M95.7,15.1h1.7v-0.2h-1.7V15.1z M96.7,12.6h-0.5v0.2h0.5V12.6z
		 M96.2,13.4h0.5V13h-0.5V13.4z M96.9,15.3c0.3,0.1,0.7,0.3,1,0.4l-0.2,0.2c-0.2-0.1-0.6-0.3-0.9-0.4L96.9,15.3z M96.9,13v0.4h0.5
		V13H96.9z"/>
	<path fill="#999999" d="M99.1,15.1v0.7h-0.2v-0.7h-0.7v-0.2h0.7v-0.3h-0.5v-1.4h0.5v-0.3h-0.6v-0.2h0.6v-0.4h0.2v0.4h0.6v0.2h-0.6
		v0.3h0.6v1.4h-0.6v0.3h0.6v0.2H99.1z M98.5,13.8h0.3v-0.4h-0.3V13.8z M98.5,14.4h0.3V14h-0.3V14.4z M99.4,13.4h-0.4v0.4h0.4V13.4z
		 M99.4,14h-0.4v0.4h0.4V14z M101.4,13.9c-0.1,0.4-0.2,0.7-0.4,1c0.3,0.3,0.6,0.6,0.9,0.7c-0.1,0-0.1,0.1-0.2,0.2
		c-0.4-0.2-0.7-0.4-0.9-0.7c-0.2,0.3-0.6,0.6-0.9,0.8c0-0.1-0.1-0.1-0.2-0.2c0.4-0.2,0.7-0.5,1-0.8c-0.2-0.3-0.3-0.6-0.4-0.9
		l0.2-0.1c0.1,0.3,0.2,0.5,0.4,0.8c0.1-0.2,0.3-0.5,0.3-0.8L101.4,13.9z M100.6,13.2c-0.2,0.3-0.4,0.7-0.6,0.9c0,0-0.2-0.1-0.2-0.2
		c0.2-0.2,0.4-0.5,0.5-0.8L100.6,13.2z M101.8,13h-2v-0.2h2V13z M100.7,12.7c-0.1-0.1-0.2-0.3-0.3-0.5l0.2-0.1
		c0.1,0.1,0.2,0.3,0.3,0.5L100.7,12.7z M101.2,13.1c0.2,0.3,0.5,0.6,0.6,0.8l-0.2,0.1c-0.1-0.2-0.4-0.6-0.6-0.8L101.2,13.1z"/>
	<path fill="#999999" d="M103.9,15c0,0.1,0,0.2,0,0.2c-1.2,0.2-1.3,0.3-1.4,0.3c0-0.1-0.1-0.2-0.1-0.2c0.1,0,0.2-0.1,0.2-0.2v-0.9
		c0.4-0.1,0.9-0.2,1.2-0.3l0.2,0.2c-0.3,0.1-0.7,0.2-1.1,0.3v0.8L103.9,15z M105.4,13.7h-2.7v-1.4h2.7V13.7z M105.1,12.6h-2.2v0.4
		h2.2V12.6z M105.1,13.1h-2.2v0.4h2.2V13.1z M105.6,15.2c0,0.1,0,0.2-0.1,0.3c-0.1,0-0.3,0-0.6,0c0-0.1,0-0.2-0.1-0.2
		c0.2,0,0.4,0,0.5,0c0.1,0,0.1,0,0.1-0.1v-1h-1v1.6h-0.3V14h1.5V15.2z"/>
	<path fill="#999999" d="M109.8,13.3v0.2h-3.5v-0.2h1.6v-0.2h-1.1v-0.7h1.1v-0.2h0.3v0.2h1.2v0.7h-1.2v0.2H109.8z M107.7,15.4
		c-0.3,0.2-0.8,0.3-1.2,0.4c0-0.1-0.1-0.2-0.2-0.2c0.4-0.1,0.9-0.2,1.2-0.3L107.7,15.4z M109.3,15.2h-2.6v-1.5h2.6V15.2z
		 M109.1,13.9H107v0.3h2.1V13.9z M109.1,14.4H107v0.3h2.1V14.4z M109.1,14.8H107v0.3h2.1V14.8z M107.9,12.9v-0.3H107v0.3H107.9z
		 M108.1,12.6v0.3h0.9v-0.3H108.1z M108.6,15.3c0.4,0.1,0.9,0.3,1.2,0.4l-0.3,0.1c-0.3-0.1-0.7-0.3-1.1-0.4L108.6,15.3z"/>
	<path fill="#999999" d="M111,13.4c0.3,0,0.6,0.3,0.6,0.6c0,0.3-0.3,0.6-0.6,0.6c-0.3,0-0.6-0.3-0.6-0.6
		C110.4,13.7,110.7,13.4,111,13.4z M111,14.4c0.2,0,0.4-0.2,0.4-0.4c0-0.2-0.2-0.4-0.4-0.4c-0.2,0-0.4,0.2-0.4,0.4
		C110.6,14.2,110.8,14.4,111,14.4z"/>
</g>
<g>
</g>
<g>
</g>
<g>
</g>
<g>
</g>
<g>
</g>
<g>
</g>
<g>
</g>
<g>
</g>
<g>
</g>
<g>
</g>
<g>
</g>
<g>
</g>
<g>
</g>
<g>
</g>
<g>
</g>
</svg>
