<?xml version="1.0" encoding="utf-8"?>
<!-- Generator: Adobe Illustrator 18.0.0, SVG Export Plug-In . SVG Version: 6.00 Build 0)  -->
<!DOCTYPE svg PUBLIC "-//W3C//DTD SVG 1.1//EN" "http://www.w3.org/Graphics/SVG/1.1/DTD/svg11.dtd">
<svg version="1.1" id="Layer_1" xmlns="http://www.w3.org/2000/svg" xmlns:xlink="http://www.w3.org/1999/xlink" x="0px" y="0px"
	 viewBox="0 0 184.2 144.5" enable-background="new 0 0 184.2 144.5" xml:space="preserve">
<g>
	<g>
		<g>
			<line fill="none" stroke="#A7A9AC" stroke-width="0.3021" stroke-miterlimit="10" x1="16.3" y1="18.3" x2="184.2" y2="18.3"/>
			<line fill="none" stroke="#A7A9AC" stroke-width="0.3021" stroke-miterlimit="10" x1="16.3" y1="39.6" x2="184.2" y2="39.6"/>
			<line fill="none" stroke="#A7A9AC" stroke-width="0.3021" stroke-miterlimit="10" x1="16.3" y1="60.9" x2="184.2" y2="60.9"/>
			<line fill="none" stroke="#A7A9AC" stroke-width="0.3021" stroke-miterlimit="10" x1="16.3" y1="82.2" x2="184.2" y2="82.2"/>
			<line fill="none" stroke="#A7A9AC" stroke-width="0.3021" stroke-miterlimit="10" x1="16.3" y1="103.5" x2="184.2" y2="103.5"/>
		</g>
		<path fill="none" stroke="#EA5284" stroke-width="0.3435" stroke-linejoin="bevel" stroke-miterlimit="10" d="M31.7,18.9l5.3-1.3
			L40,34l2.2-5.2l3.5,18.7l3.5-16.7l1.3,24.6l5.3-15.4L58,26.1l2.9-5.9l3.6,4.3l3.5-2.6v11.5l4.4-13.1l8.8,0.7l1.8,6.2l3.1-3.3v18.4
			l4.8-5.6l-0.9,22.6l6.1-10.2l1.3,14.8l2.2-20.3l13.1,42.9l4.4-22.6l7.4,30.8l5.7-30.2l3.9,14.1l4.8-27.2c0,0,7.4,39,8.3,36.7
			c0.9-2.3,7.4-25.9,7.4-25.9l3.9,5.6l3.1-7.9l2.6,13.4l4.4-9.2l3.1,7.9l2.2-9.8"/>
		<path fill="none" stroke="#0C56AB" stroke-width="0.3435" stroke-linejoin="bevel" stroke-miterlimit="10" d="M33.9,20.2l7-2
			l0.4,3.3c0,0,5.7-3.3,7-2.9c1.3,0.3,1.3,0.3,1.3,0.3l10.1-1h8.8l5.7,16.4l7.9-3.9c0,0,7-6.6,8.3-5.6c1.3,1,6.6,10.5,6.6,10.5
			l6.6-5.6c0,0,6.1,1.6,7,2.6c0.9,1,0.4,14.8,0.4,14.8l3.5-10.2l7.4,20.7c0,0,5.3-10.5,6.6-9.5c1.3,1,7.4,13.1,7.4,13.1l5.7-0.7
			l5.3,13.8l3.1-5.9l7.4,4.3l7.4-9.8l1.3-10.8l3.5,5.6l3.1-4.6"/>
		<circle fill="#2368B5" cx="3.1" cy="123.9" r="3.1"/>
		<g>
			<g>
				<path fill="#0C56AB" d="M12,121c0,0.2,0,0.5,0,0.9c0.1,0.7,0.4,3.2,2.6,4.2c-0.1,0.1-0.3,0.3-0.3,0.4c-1.5-0.7-2.1-2.2-2.4-3.3
					c-0.3,1.2-0.9,2.5-2.4,3.3c-0.1-0.1-0.2-0.3-0.4-0.3c2.5-1.3,2.5-4.2,2.5-5.1H12z"/>
				<path fill="#0C56AB" d="M18.4,124.4c0.3,1,0.9,1.6,1.4,1.6c0.2,0,0.2-0.2,0.3-0.9c0.1,0.1,0.3,0.2,0.4,0.2
					c-0.1,0.9-0.3,1.1-0.7,1.1c-0.8,0-1.5-0.8-1.8-2h-1.8v1.5l1.4-0.3c0,0.1,0,0.3,0,0.4c-1.6,0.4-1.9,0.5-2,0.6
					c0-0.1-0.1-0.3-0.2-0.4c0.1-0.1,0.3-0.2,0.3-0.4v-4.4h4.2v1.7h-1.8c0,0.3,0.1,0.6,0.1,0.9h2.1v0.4H18.4z M16.1,121.7v0.9h3.3
					v-0.9H16.1z M17.8,123.9c-0.1-0.3-0.1-0.6-0.1-0.9h-1.6v0.9H17.8z"/>
				<path fill="#0C56AB" d="M26.1,122c-0.1,0.5-0.4,0.8-0.7,1.2c0.3,0.3,0.7,0.5,1.1,0.6c-0.1,0.1-0.2,0.2-0.2,0.3
					c-0.4-0.2-0.8-0.4-1.1-0.7c-0.3,0.2-0.7,0.4-1.1,0.6c0-0.1-0.2-0.3-0.2-0.3c0.4-0.1,0.7-0.3,1-0.5c-0.2-0.2-0.4-0.5-0.5-0.8
					c-0.1,0.1-0.2,0.3-0.3,0.4c-0.1-0.1-0.2-0.2-0.3-0.3v1.5h-0.4v-1.6h-0.7v1.7h-0.3v-1.7h-0.7v1.8h-0.3V122h1v-1h0.4v1h1v0.4
					c0.4-0.3,0.7-0.8,0.8-1.3l0.4,0.1c-0.1,0.2-0.1,0.4-0.2,0.5h1.6v0.4H26.1z M21.7,122c-0.1-0.2-0.2-0.5-0.4-0.7l0.3-0.1
					c0.2,0.2,0.3,0.5,0.4,0.7L21.7,122z M25.9,125.7c0,0.2-0.1,0.3-0.2,0.4c-0.2,0.1-0.5,0.1-1,0.1c0-0.1-0.1-0.3-0.1-0.4
					c0.4,0,0.7,0,0.8,0c0.1,0,0.1,0,0.1-0.1v-0.9H24v1.7h-0.4v-1.7h-1.4v1.4h-0.4v-1.8h1.8V124H24v0.4h1.9V125.7z M22.2,122.6
					c-0.1,0.4-0.1,0.7-0.3,1c0,0-0.2-0.1-0.2-0.1c0.1-0.3,0.2-0.6,0.3-0.9L22.2,122.6z M23.1,122.5c0.1,0.3,0.2,0.7,0.3,0.9
					l-0.2,0.1c0-0.3-0.1-0.6-0.2-0.9L23.1,122.5z M23.8,121.3c-0.2,0.3-0.4,0.5-0.5,0.7l-0.3-0.1c0.1-0.2,0.3-0.5,0.4-0.7
					L23.8,121.3z M24.7,122c0.1,0.3,0.3,0.6,0.5,0.9c0.2-0.2,0.4-0.5,0.5-0.9H24.7z"/>
			</g>
		</g>
		<circle fill="#EA5284" cx="42.2" cy="123.9" r="3.1"/>
		<g>
			<g>
				<path fill="#0C56AB" d="M49.6,125h1v0.4h-1v1.1h-0.4v-1.1h-1V125h1v-0.5h-0.8v-2h0.8V122h-1v-0.4h1V121h0.4v0.6h1v0.4h-1v0.5
					h0.8v2h-0.8V125z M48.8,123.3H50v-0.5h-1.3V123.3z M48.8,124.1H50v-0.5h-1.3V124.1z M53.6,122.7h-3v-0.4h0.9
					c0-0.1,0-0.3,0.1-0.5h-0.7v-0.4h0.7c0-0.2,0-0.3,0-0.5l0.4,0c0,0.1,0,0.3,0,0.5h1.2v0.8h0.5V122.7z M53.6,125.8h-1.1v0.6h-0.4
					v-0.6h-1.2c0.1-0.3,0.2-0.6,0.2-0.9h-0.4v-0.4h1.4v-0.3H51V123h2.3v1.2h-0.8v0.3h0.9v0.4h-0.9v0.6h1.1V125.8z M51.4,123.9h1.4
					v-0.6h-1.4V123.9z M52.1,125.5v-0.6h-0.6c0,0.2-0.1,0.4-0.1,0.6H52.1z M51.9,121.8c0,0.2,0,0.3-0.1,0.5h0.9v-0.5H51.9z"/>
				<path fill="#0C56AB" d="M59.4,121.2v5.2h-0.4v-0.2h-4.1v0.2h-0.4v-5.2H59.4z M58.9,125.9v-4.2h-4.1v4.2h1.1
					c0-0.1-0.1-0.2-0.1-0.3c0.1,0,0.2-0.1,0.2-0.4V125c-0.3,0.1-0.5,0.2-0.8,0.3c0-0.1-0.1-0.2-0.2-0.3c0.5-0.1,1.1-0.3,1.5-0.6h-1
					v-0.9h2.6v0.9H57c-0.2,0.2-0.4,0.3-0.7,0.4v0.6l0.8-0.2c0,0.1,0,0.2,0,0.3c-1,0.3-1.2,0.3-1.3,0.4H58.9z M58.6,123.1v0.3h-3.5
					v-0.3H58.6z M58.4,122.8h-3v-0.9h3V122.8z M56.3,122.1h-0.6v0.4h0.6V122.1z M57.8,124.2v-0.4h-1.9v0.4H57.8z M57.1,122.1h-0.6
					v0.4h0.6V122.1z M58.5,124.6c-0.2,0.2-0.4,0.3-0.7,0.4c0.3,0.2,0.5,0.3,0.7,0.5l-0.2,0.3c-0.3-0.2-0.9-0.7-1.4-1l0.2-0.2
					c0.2,0.1,0.3,0.2,0.5,0.3c0.2-0.1,0.5-0.3,0.7-0.4L58.5,124.6z M58,122.1h-0.6v0.4H58V122.1z"/>
			</g>
		</g>
		<g>
			<path fill="#58595B" d="M0.7,16.8c0.2-0.3,0.6-0.5,1-0.5c0.5,0,0.8,0.2,1,0.5C2.9,17.1,3,17.6,3,18c0,0.5-0.1,0.9-0.3,1.2
				c-0.2,0.3-0.6,0.5-1,0.5c-0.5,0-0.8-0.2-1-0.5c-0.2-0.3-0.3-0.8-0.3-1.2C0.4,17.6,0.4,17.1,0.7,16.8z M1.2,19.1
				c0.1,0.1,0.3,0.2,0.5,0.2c0.2,0,0.4-0.1,0.5-0.2c0.2-0.2,0.3-0.6,0.3-1.1c0-0.5-0.1-0.9-0.3-1.1c-0.1-0.1-0.3-0.2-0.5-0.2
				c-0.2,0-0.4,0.1-0.5,0.2C1,17.1,0.9,17.5,0.9,18C0.9,18.5,1,18.9,1.2,19.1z"/>
			<path fill="#58595B" d="M4.3,16.3c0.4,0,0.8,0.4,0.8,0.8c0,0.5-0.4,0.8-0.8,0.8c-0.4,0-0.8-0.4-0.8-0.8
				C3.5,16.7,3.9,16.3,4.3,16.3z M3.9,19.7l2.4-3.4h0.5l-2.4,3.4H3.9z M4.3,17.5c0.2,0,0.4-0.2,0.4-0.4c0-0.2-0.2-0.4-0.4-0.4
				c-0.2,0-0.4,0.2-0.4,0.4C3.9,17.4,4.1,17.5,4.3,17.5z M6.4,18.1c0.4,0,0.8,0.4,0.8,0.8c0,0.5-0.4,0.8-0.8,0.8s-0.8-0.4-0.8-0.8
				C5.5,18.5,5.9,18.1,6.4,18.1z M6.4,19.3c0.2,0,0.4-0.2,0.4-0.4c0-0.2-0.2-0.4-0.4-0.4c-0.2,0-0.4,0.2-0.4,0.4
				C6,19.2,6.1,19.3,6.4,19.3z"/>
		</g>
		<g>
			<path fill="#58595B" d="M0.8,40c0,0.4,0.3,0.7,0.8,0.7c0.4,0,0.7-0.3,0.7-0.7c0-0.5-0.3-0.7-0.7-0.7c-0.2,0-0.5,0.1-0.6,0.2
				c-0.2-0.1-0.3-0.1-0.5-0.2l0.4-1.7h1.8v0.5H1.2l-0.2,1c0.2-0.2,0.4-0.3,0.7-0.3c0.7,0,1.1,0.4,1.1,1.1c0,0.6-0.5,1.1-1.2,1.1
				c-0.7,0-1.2-0.5-1.2-1L0.8,40z"/>
			<path fill="#58595B" d="M4,37.7c0.4,0,0.8,0.4,0.8,0.8c0,0.5-0.4,0.8-0.8,0.8c-0.4,0-0.8-0.4-0.8-0.8C3.2,38,3.6,37.7,4,37.7z
				 M3.6,41.1L6,37.7h0.5l-2.4,3.4H3.6z M4,38.9c0.2,0,0.4-0.2,0.4-0.4c0-0.2-0.2-0.4-0.4-0.4c-0.2,0-0.4,0.2-0.4,0.4
				C3.6,38.7,3.8,38.9,4,38.9z M6.1,39.5c0.4,0,0.8,0.4,0.8,0.8c0,0.5-0.4,0.8-0.8,0.8s-0.8-0.4-0.8-0.8C5.2,39.8,5.6,39.5,6.1,39.5
				z M6.1,40.7c0.2,0,0.4-0.2,0.4-0.4c0-0.2-0.2-0.4-0.4-0.4c-0.2,0-0.4,0.2-0.4,0.4C5.7,40.5,5.8,40.7,6.1,40.7z"/>
		</g>
		<g>
			<path fill="#58595B" d="M1,62.4V60H0.2v-0.4c0.5,0,0.8-0.3,0.9-0.6h0.4v3.4H1z"/>
			<path fill="#58595B" d="M2.5,59.5c0.2-0.3,0.6-0.5,1-0.5c0.5,0,0.8,0.2,1,0.5c0.2,0.3,0.3,0.8,0.3,1.2c0,0.5-0.1,0.9-0.3,1.2
				c-0.2,0.3-0.6,0.5-1,0.5c-0.5,0-0.8-0.2-1-0.5c-0.2-0.3-0.3-0.8-0.3-1.2C2.2,60.3,2.3,59.8,2.5,59.5z M3,61.8
				C3.1,62,3.3,62,3.6,62C3.8,62,4,62,4.1,61.8c0.2-0.2,0.3-0.6,0.3-1.1c0-0.5-0.1-0.9-0.3-1.1c-0.1-0.1-0.3-0.2-0.5-0.2
				c-0.2,0-0.4,0.1-0.5,0.2c-0.2,0.2-0.3,0.6-0.3,1.1C2.7,61.2,2.8,61.6,3,61.8z"/>
			<path fill="#58595B" d="M6.2,59C6.6,59,7,59.4,7,59.8c0,0.5-0.4,0.8-0.8,0.8c-0.4,0-0.8-0.4-0.8-0.8C5.3,59.4,5.7,59,6.2,59z
				 M5.7,62.4L8.2,59h0.5l-2.4,3.4H5.7z M6.2,60.2c0.2,0,0.4-0.2,0.4-0.4c0-0.2-0.2-0.4-0.4-0.4c-0.2,0-0.4,0.2-0.4,0.4
				C5.8,60.1,5.9,60.2,6.2,60.2z M8.2,60.8c0.4,0,0.8,0.4,0.8,0.8c0,0.5-0.4,0.8-0.8,0.8s-0.8-0.4-0.8-0.8
				C7.4,61.2,7.8,60.8,8.2,60.8z M8.2,62.1c0.2,0,0.4-0.2,0.4-0.4c0-0.2-0.2-0.4-0.4-0.4c-0.2,0-0.4,0.2-0.4,0.4
				C7.8,61.9,8,62.1,8.2,62.1z"/>
		</g>
		<g>
			<path fill="#58595B" d="M1,83.8v-2.4H0.2V81c0.5,0,0.8-0.3,0.9-0.6h0.4v3.4H1z"/>
			<path fill="#58595B" d="M2.6,82.7c0,0.4,0.3,0.7,0.8,0.7c0.4,0,0.7-0.3,0.7-0.7c0-0.5-0.3-0.7-0.7-0.7c-0.2,0-0.5,0.1-0.6,0.2
				c-0.2-0.1-0.3-0.1-0.5-0.2l0.4-1.7h1.8v0.5H3l-0.2,1c0.2-0.2,0.4-0.3,0.7-0.3c0.7,0,1.1,0.4,1.1,1.1c0,0.6-0.5,1.1-1.2,1.1
				c-0.7,0-1.2-0.5-1.2-1L2.6,82.7z"/>
			<path fill="#58595B" d="M5.8,80.4c0.4,0,0.8,0.4,0.8,0.8c0,0.5-0.4,0.8-0.8,0.8C5.4,82,5,81.6,5,81.2C5,80.7,5.4,80.4,5.8,80.4z
				 M5.4,83.8l2.4-3.4h0.5l-2.4,3.4H5.4z M5.8,81.6c0.2,0,0.4-0.2,0.4-0.4c0-0.2-0.2-0.4-0.4-0.4c-0.2,0-0.4,0.2-0.4,0.4
				C5.4,81.4,5.6,81.6,5.8,81.6z M7.9,82.2c0.4,0,0.8,0.4,0.8,0.8c0,0.5-0.4,0.8-0.8,0.8S7.1,83.5,7.1,83
				C7.1,82.5,7.5,82.2,7.9,82.2z M7.9,83.4c0.2,0,0.4-0.2,0.4-0.4c0-0.2-0.2-0.4-0.4-0.4c-0.2,0-0.4,0.2-0.4,0.4
				C7.5,83.2,7.7,83.4,7.9,83.4z"/>
		</g>
		<g>
			<path fill="#58595B" d="M0.3,102.9c0,0,0-0.1,0-0.1c0-0.6,0.4-1.1,1.2-1.1c0.7,0,1.1,0.5,1.1,1c0,0.4-0.2,0.8-0.6,1l-0.7,0.4
				c-0.2,0.1-0.4,0.3-0.4,0.5h1.7v0.5H0.3c0-0.6,0.2-1,0.8-1.3l0.6-0.4c0.3-0.2,0.5-0.4,0.5-0.7c0-0.3-0.2-0.6-0.6-0.6
				c-0.4,0-0.7,0.3-0.7,0.7c0,0,0,0.1,0,0.2L0.3,102.9z"/>
			<path fill="#58595B" d="M3.4,102.2c0.2-0.3,0.6-0.5,1-0.5c0.5,0,0.8,0.2,1,0.5c0.2,0.3,0.3,0.8,0.3,1.2c0,0.5-0.1,0.9-0.3,1.2
				c-0.2,0.3-0.6,0.5-1,0.5c-0.5,0-0.8-0.2-1-0.5c-0.2-0.3-0.3-0.8-0.3-1.2C3.1,103,3.2,102.6,3.4,102.2z M3.9,104.5
				c0.1,0.1,0.3,0.2,0.5,0.2c0.2,0,0.4-0.1,0.5-0.2c0.2-0.2,0.3-0.6,0.3-1.1c0-0.5-0.1-0.9-0.3-1.1c-0.1-0.1-0.3-0.2-0.5-0.2
				c-0.2,0-0.4,0.1-0.5,0.2c-0.2,0.2-0.3,0.6-0.3,1.1C3.6,104,3.7,104.3,3.9,104.5z"/>
			<path fill="#58595B" d="M7.1,101.7c0.4,0,0.8,0.4,0.8,0.8c0,0.5-0.4,0.8-0.8,0.8c-0.4,0-0.8-0.4-0.8-0.8
				C6.2,102.1,6.6,101.7,7.1,101.7z M6.6,105.1l2.4-3.4h0.5l-2.4,3.4H6.6z M7.1,103c0.2,0,0.4-0.2,0.4-0.4c0-0.2-0.2-0.4-0.4-0.4
				c-0.2,0-0.4,0.2-0.4,0.4C6.7,102.8,6.8,103,7.1,103z M9.1,103.5c0.4,0,0.8,0.4,0.8,0.8c0,0.5-0.4,0.8-0.8,0.8s-0.8-0.4-0.8-0.8
				C8.3,103.9,8.7,103.5,9.1,103.5z M9.1,104.8c0.2,0,0.4-0.2,0.4-0.4c0-0.2-0.2-0.4-0.4-0.4c-0.2,0-0.4,0.2-0.4,0.4
				C8.7,104.6,8.9,104.8,9.1,104.8z"/>
		</g>
		
			<line fill="none" stroke="#414042" stroke-width="5.943695e-002" stroke-miterlimit="10" x1="117.6" y1="105.2" x2="117.6" y2="102.5"/>
		
			<line fill="none" stroke="#414042" stroke-width="5.943695e-002" stroke-miterlimit="10" x1="90.2" y1="105.2" x2="90.2" y2="102.5"/>
		
			<line fill="none" stroke="#414042" stroke-width="5.943695e-002" stroke-miterlimit="10" x1="62.8" y1="105.2" x2="62.8" y2="102.5"/>
		
			<line fill="none" stroke="#414042" stroke-width="5.943695e-002" stroke-miterlimit="10" x1="35.4" y1="105.2" x2="35.4" y2="102.5"/>
		
			<line fill="none" stroke="#414042" stroke-width="5.943695e-002" stroke-miterlimit="10" x1="145" y1="105.2" x2="145" y2="102.5"/>
		<g>
			<path fill="#58595B" d="M30.7,109.4c0,0,0-0.1,0-0.1c0-0.5,0.4-0.9,1-0.9c0.6,0,0.9,0.4,0.9,0.9c0,0.4-0.2,0.7-0.5,0.9l-0.6,0.4
				c-0.2,0.1-0.3,0.2-0.3,0.4h1.4v0.4h-2c0-0.5,0.2-0.8,0.7-1.1l0.5-0.3c0.3-0.2,0.4-0.4,0.4-0.6c0-0.3-0.2-0.5-0.5-0.5
				c-0.4,0-0.5,0.3-0.5,0.6c0,0,0,0.1,0,0.1L30.7,109.4z"/>
			<path fill="#58595B" d="M33.3,108.8c0.2-0.3,0.5-0.5,0.9-0.5s0.7,0.2,0.9,0.5c0.2,0.3,0.3,0.6,0.3,1c0,0.4-0.1,0.7-0.3,1
				c-0.2,0.3-0.5,0.5-0.9,0.5s-0.7-0.2-0.9-0.5c-0.2-0.3-0.3-0.6-0.3-1C33,109.4,33.1,109.1,33.3,108.8z M33.7,110.7
				c0.1,0.1,0.2,0.2,0.4,0.2s0.3-0.1,0.4-0.2c0.2-0.2,0.2-0.5,0.2-0.9c0-0.4-0.1-0.7-0.2-0.9c-0.1-0.1-0.2-0.2-0.4-0.2
				s-0.3,0.1-0.4,0.2c-0.2,0.2-0.2,0.5-0.2,0.9C33.4,110.3,33.5,110.6,33.7,110.7z"/>
			<path fill="#58595B" d="M36.2,111.2v-2h-0.7V109c0.4,0,0.7-0.2,0.7-0.5h0.4v2.8H36.2z"/>
			<path fill="#58595B" d="M37.2,109.4c0,0,0-0.1,0-0.1c0-0.5,0.4-0.9,1-0.9c0.6,0,0.9,0.4,0.9,0.9c0,0.4-0.2,0.7-0.5,0.9l-0.6,0.4
				c-0.2,0.1-0.3,0.2-0.3,0.4h1.4v0.4h-2c0-0.5,0.2-0.8,0.7-1.1l0.5-0.3c0.3-0.2,0.4-0.4,0.4-0.6c0-0.3-0.2-0.5-0.5-0.5
				c-0.4,0-0.5,0.3-0.5,0.6c0,0,0,0.1,0,0.1L37.2,109.4z"/>
		</g>
		<g>
			<path fill="#58595B" d="M58.1,109.4c0,0,0-0.1,0-0.1c0-0.5,0.4-0.9,1-0.9c0.6,0,0.9,0.4,0.9,0.9c0,0.4-0.2,0.7-0.5,0.9l-0.6,0.4
				c-0.2,0.1-0.3,0.2-0.3,0.4H60v0.4h-2c0-0.5,0.2-0.8,0.7-1.1l0.5-0.3c0.3-0.2,0.4-0.4,0.4-0.6c0-0.3-0.2-0.5-0.5-0.5
				c-0.4,0-0.5,0.3-0.5,0.6c0,0,0,0.1,0,0.1L58.1,109.4z"/>
			<path fill="#58595B" d="M60.6,108.8c0.2-0.3,0.5-0.5,0.9-0.5c0.4,0,0.7,0.2,0.9,0.5c0.2,0.3,0.3,0.6,0.3,1c0,0.4-0.1,0.7-0.3,1
				c-0.2,0.3-0.5,0.5-0.9,0.5c-0.4,0-0.7-0.2-0.9-0.5c-0.2-0.3-0.3-0.6-0.3-1C60.4,109.4,60.4,109.1,60.6,108.8z M61,110.7
				c0.1,0.1,0.2,0.2,0.4,0.2s0.3-0.1,0.4-0.2c0.2-0.2,0.2-0.5,0.2-0.9c0-0.4-0.1-0.7-0.2-0.9c-0.1-0.1-0.2-0.2-0.4-0.2
				s-0.3,0.1-0.4,0.2c-0.2,0.2-0.2,0.5-0.2,0.9C60.8,110.3,60.9,110.6,61,110.7z"/>
			<path fill="#58595B" d="M63.6,111.2v-2h-0.7V109c0.4,0,0.7-0.2,0.7-0.5H64v2.8H63.6z"/>
			<path fill="#58595B" d="M65.1,109.6l0.8-0.8h-1.3v-0.4h1.9v0.4l-0.8,0.7c0.4,0,0.9,0.3,0.9,0.9c0,0.5-0.4,0.9-1,0.9
				c-0.7,0-1-0.4-1-0.9l0.4-0.1c0,0.4,0.3,0.6,0.6,0.6c0.4,0,0.6-0.2,0.6-0.5c0-0.4-0.3-0.5-0.6-0.5c-0.1,0-0.2,0-0.2,0L65.1,109.6z
				"/>
		</g>
		<g>
			<path fill="#58595B" d="M85.5,109.4c0,0,0-0.1,0-0.1c0-0.5,0.4-0.9,1-0.9c0.6,0,0.9,0.4,0.9,0.9c0,0.4-0.2,0.7-0.5,0.9l-0.6,0.4
				c-0.2,0.1-0.3,0.2-0.3,0.4h1.4v0.4h-2c0-0.5,0.2-0.8,0.7-1.1l0.5-0.3c0.3-0.2,0.4-0.4,0.4-0.6c0-0.3-0.2-0.5-0.5-0.5
				c-0.4,0-0.5,0.3-0.5,0.6c0,0,0,0.1,0,0.1L85.5,109.4z"/>
			<path fill="#58595B" d="M88.1,108.8c0.2-0.3,0.5-0.5,0.9-0.5c0.4,0,0.7,0.2,0.9,0.5c0.2,0.3,0.3,0.6,0.3,1c0,0.4-0.1,0.7-0.3,1
				c-0.2,0.3-0.5,0.5-0.9,0.5c-0.4,0-0.7-0.2-0.9-0.5c-0.2-0.3-0.3-0.6-0.3-1C87.8,109.4,87.9,109.1,88.1,108.8z M88.5,110.7
				c0.1,0.1,0.2,0.2,0.4,0.2c0.2,0,0.3-0.1,0.4-0.2c0.2-0.2,0.2-0.5,0.2-0.9c0-0.4-0.1-0.7-0.2-0.9c-0.1-0.1-0.2-0.2-0.4-0.2
				c-0.2,0-0.3,0.1-0.4,0.2c-0.2,0.2-0.2,0.5-0.2,0.9C88.3,110.3,88.3,110.6,88.5,110.7z"/>
			<path fill="#58595B" d="M91.1,111.2v-2h-0.7V109c0.4,0,0.7-0.2,0.7-0.5h0.4v2.8H91.1z"/>
			<path fill="#58595B" d="M91.9,110.1l1.2-1.7h0.6v1.8h0.5v0.4h-0.5v0.6h-0.4v-0.6h-1.4V110.1z M93.3,108.8l-1,1.4h1V108.8z"/>
		</g>
		<g>
			<path fill="#58595B" d="M113.2,109.4c0,0,0-0.1,0-0.1c0-0.5,0.4-0.9,1-0.9c0.6,0,0.9,0.4,0.9,0.9c0,0.4-0.2,0.7-0.5,0.9l-0.6,0.4
				c-0.2,0.1-0.3,0.2-0.3,0.4h1.4v0.4h-2c0-0.5,0.2-0.8,0.7-1.1l0.5-0.3c0.3-0.2,0.4-0.4,0.4-0.6c0-0.3-0.2-0.5-0.5-0.5
				c-0.4,0-0.5,0.3-0.5,0.6c0,0,0,0.1,0,0.1L113.2,109.4z"/>
			<path fill="#58595B" d="M115.7,108.8c0.2-0.3,0.5-0.5,0.9-0.5c0.4,0,0.7,0.2,0.9,0.5c0.2,0.3,0.3,0.6,0.3,1c0,0.4-0.1,0.7-0.3,1
				c-0.2,0.3-0.5,0.5-0.9,0.5c-0.4,0-0.7-0.2-0.9-0.5c-0.2-0.3-0.3-0.6-0.3-1C115.5,109.4,115.6,109.1,115.7,108.8z M116.2,110.7
				c0.1,0.1,0.2,0.2,0.4,0.2c0.2,0,0.3-0.1,0.4-0.2c0.2-0.2,0.2-0.5,0.2-0.9c0-0.4-0.1-0.7-0.2-0.9c-0.1-0.1-0.2-0.2-0.4-0.2
				c-0.2,0-0.3,0.1-0.4,0.2c-0.2,0.2-0.2,0.5-0.2,0.9C115.9,110.3,116,110.6,116.2,110.7z"/>
			<path fill="#58595B" d="M118.7,111.2v-2H118V109c0.4,0,0.7-0.2,0.7-0.5h0.4v2.8H118.7z"/>
			<path fill="#58595B" d="M120,110.4c0,0.3,0.3,0.6,0.6,0.6c0.3,0,0.6-0.2,0.6-0.6c0-0.4-0.3-0.6-0.6-0.6c-0.2,0-0.4,0.1-0.5,0.2
				c-0.1-0.1-0.3-0.1-0.4-0.2l0.4-1.4h1.5v0.4h-1.2l-0.2,0.8c0.1-0.1,0.4-0.2,0.6-0.2c0.6,0,1,0.4,1,0.9c0,0.5-0.4,1-1,1
				c-0.6,0-1-0.4-1-0.8L120,110.4z"/>
		</g>
		<g>
			<path fill="#58595B" d="M140.6,109.4c0,0,0-0.1,0-0.1c0-0.5,0.4-0.9,1-0.9c0.6,0,0.9,0.4,0.9,0.9c0,0.4-0.2,0.7-0.5,0.9l-0.6,0.4
				c-0.2,0.1-0.3,0.2-0.3,0.4h1.4v0.4h-2c0-0.5,0.2-0.8,0.7-1.1l0.5-0.3c0.3-0.2,0.4-0.4,0.4-0.6c0-0.3-0.2-0.5-0.5-0.5
				c-0.4,0-0.5,0.3-0.5,0.6c0,0,0,0.1,0,0.1L140.6,109.4z"/>
			<path fill="#58595B" d="M143.2,108.8c0.2-0.3,0.5-0.5,0.9-0.5c0.4,0,0.7,0.2,0.9,0.5c0.2,0.3,0.3,0.6,0.3,1c0,0.4-0.1,0.7-0.3,1
				c-0.2,0.3-0.5,0.5-0.9,0.5c-0.4,0-0.7-0.2-0.9-0.5c-0.2-0.3-0.3-0.6-0.3-1C142.9,109.4,143,109.1,143.2,108.8z M143.6,110.7
				c0.1,0.1,0.2,0.2,0.4,0.2c0.2,0,0.3-0.1,0.4-0.2c0.2-0.2,0.2-0.5,0.2-0.9c0-0.4-0.1-0.7-0.2-0.9c-0.1-0.1-0.2-0.2-0.4-0.2
				c-0.2,0-0.3,0.1-0.4,0.2c-0.2,0.2-0.2,0.5-0.2,0.9C143.4,110.3,143.4,110.6,143.6,110.7z"/>
			<path fill="#58595B" d="M146.2,111.2v-2h-0.7V109c0.4,0,0.7-0.2,0.7-0.5h0.4v2.8H146.2z"/>
			<path fill="#58595B" d="M149.1,108.9c-0.1-0.1-0.3-0.1-0.5-0.1c-0.6,0-1,0.4-1,1c0.1-0.2,0.4-0.4,0.7-0.4c0.6,0,1,0.3,1,1
				c0,0.6-0.5,1-1,1c-0.5,0-1.1-0.4-1.1-1.3c0-1,0.6-1.6,1.4-1.6c0.3,0,0.5,0.1,0.6,0.2L149.1,108.9z M148.2,110.9
				c0.3,0,0.6-0.2,0.6-0.6c0-0.4-0.3-0.6-0.6-0.6c-0.3,0-0.6,0.2-0.6,0.6C147.6,110.7,147.9,110.9,148.2,110.9z"/>
		</g>
	</g>
</g>
<g>
	<g>
		<path fill="#999999" d="M2,134.8H0.3v-0.2H2V134.8z M2.4,137.9c-0.5,0.3-1.2,0.5-1.8,0.7c0-0.1-0.2-0.2-0.2-0.2
			c0.6-0.1,1.3-0.4,1.8-0.6L2.4,137.9z M1.8,133.8H0.5v-0.2h1.4V133.8z M1.1,135.3h3.8v2.4H1.1V135.3z M1.4,136h3.3v-0.5H1.4V136z
			 M1.4,136.7h3.3v-0.5H1.4V136.7z M1.4,137.5h3.3v-0.5H1.4V137.5z M3,133.9c-0.1,0.3-0.3,0.5-0.5,0.7c0,0-0.2-0.1-0.2-0.2
			c0.3-0.3,0.6-0.7,0.7-1.2l0.3,0.1c0,0.1-0.1,0.3-0.2,0.4h2.2l0,0l0.2,0.1c-0.2,0.3-0.3,0.6-0.5,0.8l-0.2-0.1
			c0.1-0.2,0.2-0.4,0.3-0.6H4v0c0,0.1,0,0.2,0,0.3c0.3,0.4,1,0.7,1.8,0.8c-0.1,0.1-0.1,0.2-0.2,0.2c-0.7-0.1-1.3-0.4-1.7-0.8
			c-0.2,0.3-0.6,0.6-1.7,0.8c0-0.1-0.1-0.2-0.2-0.2c1.6-0.3,1.7-0.7,1.7-1.1v0H3z M3.8,137.8c0.7,0.2,1.4,0.4,1.8,0.6l-0.3,0.2
			c-0.4-0.2-1.1-0.4-1.8-0.6L3.8,137.8z"/>
		<path fill="#999999" d="M7.1,136c-0.1,0.7-0.4,1.5-0.7,1.9c0-0.1-0.1-0.2-0.2-0.3c0.2-0.4,0.5-1.1,0.6-1.7L7.1,136z M7.6,135.5
			v3.1H7.3v-3.1h-1v-0.3h1v-2h0.3v2h1v0.3H7.6z M6.8,134.9c0-0.3-0.2-0.9-0.4-1.3l0.2-0.1c0.2,0.4,0.3,0.9,0.4,1.3L6.8,134.9z
			 M7.9,135.9c0.1,0.2,0.5,1,0.6,1.3l-0.2,0.2c-0.1-0.3-0.5-1.1-0.6-1.4L7.9,135.9z M8.6,133.6c-0.1,0.4-0.3,1-0.5,1.3l-0.2-0.1
			c0.1-0.3,0.3-0.9,0.4-1.3L8.6,133.6z M10.9,136.9v1.7h-0.3v-1.7l-2,0.4L8.6,137l2-0.4v-3.5h0.3v3.4l0.8-0.1l0,0.3L10.9,136.9z
			 M9.8,136.1c-0.2-0.2-0.6-0.5-1-0.7l0.1-0.2c0.4,0.2,0.8,0.5,1,0.7L9.8,136.1z M10.1,134.6c-0.2-0.2-0.6-0.6-1-0.8l0.2-0.2
			c0.4,0.2,0.8,0.5,0.9,0.7L10.1,134.6z"/>
		<path fill="#999999" d="M15.1,135.8c0.5,1,1.6,1.9,2.6,2.2c-0.1,0.1-0.2,0.2-0.2,0.3c-0.9-0.4-1.8-1.1-2.4-2v2.3h-0.3v-2.3
			c-0.6,0.8-1.5,1.6-2.4,2c0-0.1-0.1-0.2-0.2-0.2c1-0.4,2-1.3,2.6-2.2v-1.5h-2.4v-0.3h2.4v-0.9h0.3v0.9h2.5v0.3h-2.5V135.8z
			 M13.8,134.6c-0.1,0.3-0.1,0.5-0.2,0.8c0.3,0.2,0.6,0.6,0.7,0.7l-0.2,0.2c-0.1-0.2-0.4-0.5-0.7-0.7c-0.2,0.4-0.5,0.8-0.8,1
			c0-0.1-0.2-0.1-0.2-0.2c0.6-0.4,0.9-1.1,1.1-1.9L13.8,134.6z M16.7,134.6c-0.1,0.3-0.1,0.5-0.2,0.7c0.4,0.3,0.9,0.8,1.1,1
			l-0.2,0.2c-0.2-0.3-0.7-0.6-1-1c-0.2,0.3-0.4,0.6-0.6,0.8c0,0-0.2-0.1-0.2-0.2c0.5-0.4,0.7-1,0.9-1.7L16.7,134.6z"/>
		<path fill="#999999" d="M19.3,135.7c-0.2-0.2-0.7-0.5-1-0.7l0.2-0.2c0.3,0.2,0.8,0.4,1,0.6L19.3,135.7z M19.6,136.6
			c-0.3,0.6-0.6,1.4-0.9,1.9l-0.3-0.2c0.3-0.5,0.7-1.3,0.9-1.9L19.6,136.6z M19.6,134.2c-0.2-0.2-0.7-0.5-1-0.7l0.2-0.2
			c0.3,0.2,0.8,0.5,1,0.7L19.6,134.2z M20.3,135.1c0,1-0.1,2.5-0.8,3.5c0,0-0.2-0.1-0.2-0.1c0.7-1,0.7-2.3,0.7-3.3v-1.6h3.6v0.3
			h-3.3V135.1z M21.3,137c-0.2,0.5-0.5,0.9-0.8,1.2c0,0-0.2-0.1-0.2-0.2c0.3-0.3,0.6-0.7,0.8-1.1L21.3,137z M22.2,136.5v1.7
			c0,0.2,0,0.3-0.2,0.3c-0.1,0-0.4,0-0.8,0c0-0.1-0.1-0.2-0.1-0.3c0.3,0,0.6,0,0.7,0c0.1,0,0.1,0,0.1-0.1v-1.7h-1.2v-2h1
			c0.1-0.2,0.1-0.5,0.2-0.7l0.3,0.1c-0.1,0.2-0.1,0.4-0.2,0.6h1.4v2H22.2z M21,135.4h2.1v-0.6H21V135.4z M21,136.3h2.1v-0.6H21
			V136.3z M23,136.9c0.3,0.4,0.6,0.9,0.7,1.2l-0.3,0.1c-0.2-0.3-0.5-0.8-0.7-1.2L23,136.9z"/>
		<path fill="#999999" d="M25.1,134.4c0-0.2,0.2-0.4,0.4-0.4c0.2,0,0.4,0.1,0.4,0.4c0,0.2-0.2,0.4-0.4,0.4
			C25.3,134.8,25.1,134.7,25.1,134.4z M25.1,137.4c0-0.2,0.2-0.4,0.4-0.4c0.2,0,0.4,0.1,0.4,0.4c0,0.2-0.2,0.4-0.4,0.4
			C25.3,137.8,25.1,137.7,25.1,137.4z"/>
		<path fill="#999999" d="M29.4,135.6c-0.1,2-0.1,2.7-0.2,2.9c-0.1,0.1-0.2,0.1-0.3,0.2c-0.1,0-0.4,0-0.7,0c0-0.1,0-0.2-0.1-0.3
			c0.3,0,0.5,0,0.6,0c0.1,0,0.1,0,0.2-0.1c0.1-0.1,0.2-0.8,0.2-2.6h-0.9c-0.1,1.2-0.2,2.3-0.8,2.9c0-0.1-0.2-0.1-0.2-0.2
			c0.6-0.8,0.7-2.4,0.7-4h-0.7v-0.3h2.3v0.3h-1.4c0,0.3,0,0.6,0,0.9h1.1V135.6z M28.5,134.1c-0.1-0.2-0.2-0.6-0.3-0.8l0.2-0.1
			c0.1,0.2,0.3,0.6,0.3,0.8L28.5,134.1z M30.3,134.3c-0.2,0.4-0.4,0.7-0.6,1c0,0-0.2-0.1-0.2-0.2c0.4-0.5,0.7-1.2,0.9-2l0.3,0.1
			c-0.1,0.3-0.2,0.6-0.3,0.8h2.3v0.3H30.3z M32.1,138.3c0.3,0,0.3-0.1,0.3-0.7c0.1,0.1,0.2,0.1,0.3,0.1c0,0.7-0.1,0.9-0.6,0.9h-1.3
			c-0.5,0-0.7-0.1-0.7-0.5v-1.7l-0.4,0.2l-0.1-0.2l0.6-0.3v-1h0.3v0.9l0.7-0.3v-1h0.3v0.9l0.8-0.4l0.1-0.1l0.2,0.1l0,0.1
			c0,0.7,0,1.5-0.1,2.1l-0.2-0.1c0-0.4,0.1-1.2,0.1-1.8l-0.8,0.4v1.9h-0.3v-1.7l-0.7,0.3v1.8c0,0.2,0.1,0.3,0.4,0.3H32.1z"/>
		<path fill="#999999" d="M34,137.4c-0.1,0.4-0.2,0.9-0.3,1.2c-0.1,0-0.2-0.1-0.2-0.1c0.2-0.3,0.3-0.7,0.3-1.1L34,137.4z
			 M35.2,136.1c0.2,0.3,0.4,0.8,0.5,1.1l-0.2,0.1c0-0.1-0.1-0.2-0.1-0.4c-1.6,0.2-1.7,0.2-1.9,0.2c0-0.1-0.1-0.2-0.1-0.3
			c0.1,0,0.3-0.1,0.5-0.3c0.1-0.1,0.4-0.3,0.7-0.7c-0.8,0.1-1,0.1-1,0.1c0-0.1-0.1-0.2-0.1-0.3c0.1,0,0.2-0.1,0.3-0.2
			c0.1-0.1,0.5-0.5,0.8-0.9l0.3,0.1c-0.3,0.3-0.5,0.7-0.8,0.9l0.9-0.1c0.1-0.2,0.3-0.3,0.4-0.5l0.2,0.1c-0.5,0.5-1,1.1-1.5,1.5
			l1.3-0.1c-0.1-0.2-0.2-0.3-0.3-0.5L35.2,136.1z M38.3,134.6h-4.6v-1.2h4.6V134.6z M35.1,133.7H34v0.7h1.1V133.7z M34.6,137.3
			c0.1,0.3,0.2,0.8,0.2,1.1l-0.2,0c0-0.3-0.1-0.7-0.2-1.1L34.6,137.3z M35.2,137.2c0.2,0.3,0.4,0.7,0.4,1l-0.2,0.1
			c-0.1-0.3-0.2-0.7-0.4-1L35.2,137.2z M36.6,133.7h-1.2v0.7h1.2V133.7z M38.7,138.4h-2.4v0.3H36V136c-0.1,0.2-0.2,0.3-0.4,0.5
			c-0.1,0-0.2-0.1-0.2-0.2c0.4-0.4,0.8-1,1-1.6l0.3,0.1c-0.1,0.3-0.2,0.5-0.4,0.7h1.1c-0.1-0.2-0.2-0.5-0.3-0.7l0.2-0.1
			c0.1,0.2,0.3,0.5,0.4,0.8h0.9v0.3h-1v0.6h0.9v0.2h-0.9v0.6h0.9v0.2h-0.9v0.6h1.1V138.4z M37.3,135.8h-1v0.6h1V135.8z M37.3,136.6
			h-1v0.6h1V136.6z M36.3,138.1h1v-0.6h-1V138.1z M38,133.7h-1.2v0.7H38V133.7z"/>
		<path fill="#999999" d="M40.9,134.6c-0.2,0.3-0.3,0.6-0.5,0.8v3.2h-0.3v-2.9c-0.2,0.3-0.5,0.6-0.7,0.8c0-0.1-0.1-0.2-0.2-0.2
			c0.5-0.5,1.1-1.2,1.4-1.9L40.9,134.6z M40.8,133.3c-0.4,0.5-0.9,1-1.4,1.4c0-0.1-0.1-0.2-0.2-0.2c0.4-0.3,1-0.9,1.3-1.3
			L40.8,133.3z M40.7,138.3c0.3-0.3,0.5-0.8,0.6-1.1l0.2,0.1c-0.1,0.4-0.3,0.9-0.6,1.2L40.7,138.3z M44.7,136.4v0.3h-3.8v-0.3H44.7z
			 M42.5,134.5c0-0.1,0.1-0.3,0.1-0.5h-1.6v-0.3h1.7c0-0.2,0.1-0.4,0.1-0.6l0.3,0c0,0.2-0.1,0.3-0.1,0.5h1.8v0.3h-1.8
			c0,0.2-0.1,0.4-0.1,0.5h1.7v1.4h-3.2v-1.4H42.5z M42.2,134.7h-0.7v1h0.7V134.7z M43.3,138.3c0.2,0,0.2-0.1,0.3-0.6
			c0.1,0,0.2,0.1,0.3,0.1c0,0.6-0.1,0.8-0.5,0.8h-1c-0.4,0-0.6-0.1-0.6-0.4v-1h0.3v1c0,0.1,0,0.2,0.3,0.2H43.3z M42.6,136.7
			c0.2,0.2,0.4,0.6,0.5,0.8l-0.2,0.1c-0.1-0.2-0.3-0.5-0.5-0.8L42.6,136.7z M43.2,134.7h-0.8v1h0.8V134.7z M43.4,135.7h0.8v-1h-0.8
			V135.7z M44.1,137.1c0.2,0.4,0.5,0.9,0.6,1.2l-0.2,0.1c-0.1-0.3-0.4-0.8-0.6-1.2L44.1,137.1z"/>
		<path fill="#999999" d="M45.9,136.7c0.5-0.2,0.7-0.5,0.7-1c0,0-0.1,0-0.1,0c-0.2,0-0.4-0.1-0.4-0.4s0.2-0.4,0.4-0.4
			c0.3,0,0.4,0.2,0.4,0.6c0,0.6-0.4,1.1-0.9,1.3L45.9,136.7z"/>
		<path fill="#999999" d="M48.8,137c-0.1,0.5-0.2,1.1-0.3,1.4c-0.1,0-0.2-0.1-0.2-0.1c0.1-0.4,0.2-0.9,0.3-1.4L48.8,137z
			 M50.1,136.7c0-0.1,0-0.2-0.1-0.3c-1.4,0.2-1.6,0.3-1.7,0.3c0-0.1-0.1-0.2-0.1-0.3c0.1,0,0.3-0.2,0.4-0.4c0.1-0.1,0.3-0.4,0.6-0.8
			c-0.8,0.1-0.9,0.1-1,0.1c0-0.1-0.1-0.2-0.1-0.3c0.1,0,0.2-0.2,0.3-0.3c0.1-0.2,0.6-0.9,0.9-1.5l0.3,0.1c-0.3,0.6-0.7,1.2-1.1,1.7
			l0.8-0.1c0.2-0.3,0.3-0.6,0.5-0.8l0.3,0.1c-0.4,0.7-0.9,1.5-1.4,2.1l1.2-0.2c-0.1-0.2-0.2-0.5-0.3-0.6l0.2-0.1
			c0.2,0.4,0.4,0.9,0.4,1.2L50.1,136.7z M49.4,137c0.1,0.4,0.2,0.9,0.2,1.3l-0.2,0.1c0-0.3-0.1-0.9-0.2-1.3L49.4,137z M50.2,138
			c-0.1-0.3-0.2-0.8-0.3-1.1l0.2-0.1c0.1,0.4,0.3,0.8,0.4,1.1L50.2,138z M53.3,138.3c0.1,0,0.2-0.1,0.2-0.8c0.1,0.1,0.2,0.1,0.3,0.1
			c0,0.7-0.1,0.9-0.4,0.9h-0.6c-0.3,0-0.4-0.1-0.4-0.4v-2.3l-0.7,0.1c0,1.5-0.2,2.3-1.3,2.8c0-0.1-0.1-0.2-0.2-0.2
			c1-0.4,1.2-1.1,1.2-2.5c-0.5,0.1-0.6,0.1-0.7,0.1c0-0.1-0.1-0.2-0.1-0.3c0.1,0,0.2-0.2,0.4-0.5c0.1-0.1,0.4-0.5,0.6-1h-1V134h1.1
			c0.1-0.3,0.3-0.5,0.4-0.8l0.3,0.1c-0.1,0.2-0.2,0.5-0.3,0.7h1.6v0.3h-1.8c-0.3,0.5-0.6,1-0.9,1.4l2.1-0.2
			c-0.1-0.3-0.3-0.5-0.5-0.8l0.2-0.1c0.3,0.4,0.7,1.1,0.9,1.4l-0.3,0.1c-0.1-0.1-0.1-0.3-0.2-0.4l-0.6,0.1v2.3c0,0.1,0,0.2,0.2,0.2
			H53.3z"/>
		<path fill="#999999" d="M56.9,134.5h-2.4v-0.3h2.4V134.5z M54.7,135h1.9v0.2h-1.9V135z M56.6,136h-1.9v-0.3h1.9V136z M56.6,138.2
			H55v0.3h-0.3v-2h1.9V138.2z M55,136.8v1.2h1.3v-1.2H55z M55.6,134.1c-0.1-0.2-0.3-0.5-0.5-0.8l0.2-0.1c0.2,0.2,0.4,0.5,0.5,0.8
			L55.6,134.1z M59.7,135.6h-1.3v3h-0.3v-3h-1.3v-0.3h1.3v-2h0.3v2h1.3V135.6z"/>
		<path fill="#999999" d="M61.1,138.1v0.4h-0.3v-2.2c-0.1,0.2-0.2,0.3-0.4,0.4c0,0-0.1-0.1-0.2-0.2c0.4-0.4,0.7-0.9,1-1.4l0.3,0.1
			c-0.1,0.2-0.2,0.4-0.3,0.6h1c-0.1-0.2-0.2-0.4-0.3-0.6l0.2-0.1c0.1,0.2,0.3,0.4,0.4,0.6l-0.1,0h1v0.2h-1v0.5h0.9v0.2h-0.9v0.5h0.9
			v0.2h-0.9v0.5h1v0.3H61.1z M65.3,135.5c-0.2,0.7-0.5,1.4-0.9,1.9c0.2,0.6,0.5,0.9,0.8,0.9c0.2,0,0.2-0.3,0.3-1
			c0.1,0.1,0.2,0.1,0.2,0.1c-0.1,0.9-0.2,1.2-0.5,1.2c-0.4,0-0.7-0.3-0.9-0.9c-0.3,0.4-0.6,0.7-1,1c-0.1-0.1-0.1-0.2-0.2-0.2
			c0.4-0.3,0.8-0.6,1.1-1.1c-0.2-0.6-0.3-1.4-0.4-2.4h-3.4v-0.3h1.5v-0.6h-1.2v-0.3h1.2v-0.6h0.3v0.6h1.2v0.3h-1.2v0.6h1.6
			c0-0.5,0-1,0-1.5h0.3c0,0.5,0,1,0,1.5h1.7v0.3H64c0.1,0.9,0.2,1.6,0.3,2.1c0.3-0.5,0.6-1.1,0.7-1.7L65.3,135.5z M62.1,135.9h-1
			v0.5h1V135.9z M62.1,136.6h-1v0.5h1V136.6z M62.1,137.4h-1v0.5h1V137.4z M65.3,134.4c-0.2-0.3-0.6-0.6-0.9-0.9l0.2-0.1
			c0.3,0.2,0.7,0.6,0.9,0.9L65.3,134.4z"/>
		<path fill="#999999" d="M71.6,138.1v0.3h-5.3v-0.3h2.5v-1.3h-2v-0.3h2v-0.9h0.3v0.9h2v0.3h-2v1.3H71.6z M71.1,135.8
			c-0.1-0.1-0.2-0.3-0.4-0.5c-3.4,0.2-3.7,0.2-3.8,0.3c0-0.1-0.1-0.2-0.1-0.3c0.1,0,0.2-0.1,0.4-0.3c0.2-0.1,0.6-0.6,1-1.2h-1.7
			v-0.3h5v0.3h-2.8c-0.4,0.5-0.9,1-1.3,1.4l3.1-0.1c-0.3-0.2-0.6-0.5-0.9-0.7l0.2-0.1c0.6,0.4,1.2,1,1.5,1.4L71.1,135.8z"/>
		<path fill="#999999" d="M72.3,138c1.5-1.3,2.1-2.2,2.1-3c0-0.5-0.3-1-0.9-1c-0.4,0-0.7,0.2-1,0.5l-0.2-0.2
			c0.3-0.4,0.7-0.6,1.2-0.6c0.8,0,1.2,0.5,1.2,1.3c0,0.9-0.7,1.8-1.9,2.9c0.2,0,0.5,0,0.7,0h1.4v0.3h-2.6V138z"/>
		<path fill="#999999" d="M75.5,136c0-1.5,0.5-2.2,1.3-2.2c0.8,0,1.3,0.7,1.3,2.2c0,1.5-0.5,2.3-1.3,2.3
			C76,138.3,75.5,137.5,75.5,136z M77.8,136c0-1.3-0.4-2-0.9-2c-0.6,0-0.9,0.7-0.9,2c0,1.3,0.4,2,0.9,2
			C77.4,138,77.8,137.3,77.8,136z"/>
		<path fill="#999999" d="M79,137.9h1v-3.6h-0.8v-0.2c0.4-0.1,0.6-0.2,0.8-0.3h0.3v4.1h0.9v0.3H79V137.9z"/>
		<path fill="#999999" d="M81.9,136c0-1.5,0.5-2.2,1.3-2.2c0.8,0,1.3,0.7,1.3,2.2c0,1.5-0.5,2.3-1.3,2.3
			C82.4,138.3,81.9,137.5,81.9,136z M84.2,136c0-1.3-0.4-2-0.9-2c-0.6,0-0.9,0.7-0.9,2c0,1.3,0.4,2,0.9,2
			C83.8,138,84.2,137.3,84.2,136z"/>
		<path fill="#999999" d="M90.5,137.2h-2.2v1.4H88v-1.4h-2.8v-0.3h1v-1.6H88v-1h-1.6c-0.3,0.5-0.6,0.9-1,1.2c-0.1,0-0.2-0.1-0.3-0.2
			c0.6-0.5,1.1-1.3,1.4-2.1l0.3,0.1c-0.1,0.2-0.2,0.5-0.3,0.7h3.7v0.3h-2v1h1.9v0.3h-1.9v1.4h2.2V137.2z M88,136.9v-1.4h-1.5v1.4H88
			z"/>
		<path fill="#999999" d="M91.4,137.9h1v-3.6h-0.8v-0.2c0.4-0.1,0.6-0.2,0.8-0.3h0.3v4.1h0.9v0.3h-2.3V137.9z"/>
		<path fill="#999999" d="M94.4,136c0-1.5,0.5-2.2,1.3-2.2c0.8,0,1.3,0.7,1.3,2.2c0,1.5-0.5,2.3-1.3,2.3
			C94.9,138.3,94.4,137.5,94.4,136z M96.6,136c0-1.3-0.4-2-0.9-2c-0.6,0-0.9,0.7-0.9,2c0,1.3,0.4,2,0.9,2
			C96.2,138,96.6,137.3,96.6,136z"/>
		<path fill="#999999" d="M102.1,138.1c0,0.3-0.1,0.4-0.3,0.4c-0.2,0.1-0.6,0.1-1.2,0.1c0-0.1-0.1-0.2-0.1-0.3c0.5,0,1,0,1.2,0
			c0.1,0,0.2,0,0.2-0.2v-1.4h-3.1c-0.1,0.7-0.4,1.4-1,1.9c0-0.1-0.1-0.2-0.2-0.2c1-0.9,1.1-2.1,1.1-3.1v-1.8h3.5V138.1z
			 M101.8,136.4v-1.2h-2.9v0c0,0.4,0,0.7-0.1,1.1H101.8z M98.9,133.8v1.2h2.9v-1.2H98.9z"/>
		<path fill="#999999" d="M103.5,138c1.5-1.3,2.1-2.2,2.1-3c0-0.5-0.3-1-0.9-1c-0.4,0-0.7,0.2-1,0.5l-0.2-0.2
			c0.3-0.4,0.7-0.6,1.2-0.6c0.8,0,1.2,0.5,1.2,1.3c0,0.9-0.7,1.8-1.9,2.9c0.2,0,0.5,0,0.7,0h1.4v0.3h-2.6V138z"/>
		<path fill="#999999" d="M106.8,136c0-1.5,0.5-2.2,1.3-2.2c0.8,0,1.3,0.7,1.3,2.2c0,1.5-0.5,2.3-1.3,2.3
			C107.3,138.3,106.8,137.5,106.8,136z M109,136c0-1.3-0.4-2-0.9-2c-0.6,0-0.9,0.7-0.9,2c0,1.3,0.4,2,0.9,2
			C108.6,138,109,137.3,109,136z"/>
		<path fill="#999999" d="M114.6,133.6v4.9h-0.3v-0.4h-3.2v0.4h-0.3v-4.9H114.6z M111.1,133.9v1.8h3.2v-1.8H111.1z M114.3,137.9V136
			h-3.2v1.9H114.3z"/>
	</g>
</g>
<g>
	<g>
		<path d="M3.1,5.7h1.3v0.5H3.1v1.4H2.5V6.2H1.2V5.7h1.4V5H1.5V2.4h1.1V1.7H1.3V1.2h1.3V0.3h0.6v0.8h1.3v0.5H3.1v0.7h1.1V5H3.1V5.7z
			 M2,3.5h1.7V2.9H2V3.5z M2,4.5h1.7V3.9H2V4.5z M8.4,2.6h-4V2.1h1.2c0-0.2,0.1-0.4,0.1-0.6H4.8V1h0.9c0-0.2,0-0.4,0.1-0.6l0.6,0
			c0,0.2,0,0.4-0.1,0.6h1.5v1.1h0.6V2.6z M8.4,6.8H7v0.9H6.5V6.8H4.9C5,6.4,5.1,6,5.2,5.5H4.7V5.1h1.8V4.6H5V3h3v1.6H7v0.5h1.2v0.5
			H7v0.8h1.4V6.8z M5.5,4.2h1.9V3.4H5.5V4.2z M6.5,6.3V5.5H5.7c0,0.2-0.1,0.5-0.2,0.8H6.5z M6.2,1.5c0,0.2-0.1,0.5-0.1,0.6h1.1V1.5
			H6.2z"/>
		<path d="M16.1,0.7v7h-0.6V7.4h-5.5v0.3H9.5v-7H16.1z M15.6,6.8V1.2h-5.5v5.7h1.5c0-0.1-0.1-0.3-0.2-0.4c0.1,0,0.3-0.2,0.3-0.5V5.7
			C11.3,5.8,11,6,10.6,6c-0.1-0.1-0.2-0.3-0.3-0.3c0.7-0.1,1.5-0.4,2-0.8h-1.4V3.8h3.5v1.1H13c-0.2,0.2-0.5,0.4-0.9,0.6v0.7L13.2,6
			c0,0.1,0,0.3,0,0.3c-1.4,0.4-1.6,0.5-1.7,0.5H15.6z M15.1,3.1v0.4h-4.6V3.1H15.1z M14.8,2.8h-4V1.5h4V2.8z M12,1.9h-0.7v0.6H12
			V1.9z M14.1,4.6V4.1h-2.5v0.5H14.1z M13.2,1.9h-0.8v0.6h0.8V1.9z M15,5.1c-0.3,0.2-0.6,0.4-0.9,0.6c0.4,0.2,0.7,0.5,0.9,0.6
			l-0.3,0.3c-0.4-0.3-1.3-0.9-1.9-1.3l0.3-0.3c0.2,0.1,0.4,0.2,0.6,0.4c0.3-0.2,0.7-0.4,0.9-0.6L15,5.1z M14.4,1.9h-0.8v0.6h0.8V1.9
			z"/>
		<path d="M24.4,5.2v0.6h-7.2V5.2H18L17.9,1c0.5-0.2,1.1-0.4,1.5-0.6l0.3,0.5c-0.4,0.2-0.8,0.3-1.2,0.4l0,0.9h1.1v0.5h-1.1l0,1h1.1
			v0.5h-1l0,1h4.5c0-0.3,0-0.6,0.1-1h-1V3.8h1.1c0-0.3,0-0.6,0-1h-1.1V2.3h1.1c0-0.3,0-0.7,0-1h-1.2V0.8h1.7c0,1.4,0,3.3-0.1,4.5
			H24.4z M20,6.3c-0.7,0.5-1.6,1-2.4,1.4c-0.1-0.1-0.2-0.3-0.4-0.4c0.8-0.3,1.7-0.8,2.2-1.3L20,6.3z M20.7,3.4
			c-0.1,0.6-0.2,1.1-0.5,1.5c-0.1-0.1-0.3-0.2-0.4-0.3c0.2-0.4,0.4-0.8,0.4-1.3L20.7,3.4z M21.2,3h-1.3V0.4h0.5v0.7h1.3v0.5h-1.3
			v0.9h1v0h0.2v2.1c0,0.2,0,0.4-0.2,0.4c-0.2,0.1-0.5,0.1-0.8,0.1c0-0.1-0.1-0.3-0.2-0.4c0.3,0,0.5,0,0.6,0c0.1,0,0.1,0,0.1-0.1V3z
			 M21.9,5.9c0.8,0.4,1.8,0.9,2.3,1.3l-0.4,0.4c-0.5-0.4-1.4-0.9-2.3-1.3L21.9,5.9z"/>
		<path d="M29.1,0.4c0,0.3,0,0.7-0.1,1.2c0.1,1,0.6,4.3,3.4,5.5c-0.2,0.1-0.3,0.3-0.4,0.5c-2-0.9-2.9-2.9-3.2-4.4
			c-0.4,1.6-1.2,3.4-3.2,4.4c-0.1-0.2-0.3-0.3-0.5-0.5c3.3-1.7,3.3-5.6,3.3-6.8H29.1z"/>
		<path d="M37.7,4.8C38.1,6.1,38.8,7,39.6,7c0.2,0,0.3-0.3,0.4-1.2c0.1,0.1,0.4,0.2,0.5,0.3c-0.1,1.2-0.3,1.5-0.9,1.5
			c-1.1,0-2-1.1-2.5-2.7h-2.4v2l1.9-0.5c0,0.2,0,0.4,0.1,0.5c-2.2,0.6-2.5,0.7-2.7,0.8c0-0.2-0.2-0.4-0.3-0.5
			C33.8,7.1,34,6.9,34,6.6V0.8h5.7v2.3h-2.3c0,0.4,0.1,0.8,0.2,1.2h2.8v0.6H37.7z M34.7,1.3v1.2h4.5V1.3H34.7z M36.9,4.3
			c-0.1-0.4-0.1-0.8-0.2-1.2h-2.1v1.2H36.9z"/>
		<path d="M47.9,1.6c-0.2,0.6-0.5,1.1-0.9,1.5c0.4,0.4,0.9,0.6,1.4,0.8c-0.1,0.1-0.3,0.3-0.3,0.4c-0.6-0.2-1-0.5-1.4-0.9
			c-0.4,0.3-0.9,0.6-1.4,0.8C45.2,4.2,45.1,4,45,3.9c0.5-0.2,1-0.4,1.4-0.7c-0.3-0.3-0.5-0.7-0.7-1.1c-0.1,0.2-0.3,0.3-0.5,0.5
			c-0.1-0.1-0.2-0.3-0.4-0.4v2h-0.5V2.1h-1v2.3H43V2.1h-1v2.4h-0.5V1.7h1.4V0.4h0.5v1.3h1.4v0.5c0.5-0.4,0.9-1.1,1.1-1.8l0.5,0.1
			c-0.1,0.2-0.2,0.5-0.3,0.7h2.2v0.5H47.9z M42.1,1.6C42,1.4,41.8,1,41.6,0.7L42,0.5c0.2,0.3,0.5,0.6,0.6,0.9L42.1,1.6z M47.7,6.6
			c0,0.3-0.1,0.5-0.3,0.5c-0.3,0.1-0.7,0.1-1.3,0.1c0-0.2-0.1-0.4-0.2-0.5c0.5,0,1,0,1.1,0c0.1,0,0.2,0,0.2-0.1V5.4h-2v2.3h-0.6V5.4
			h-1.8v1.9h-0.6V4.8h2.4V4.4h0.6v0.5h2.6V6.6z M42.8,2.4c-0.1,0.5-0.2,1-0.4,1.3c-0.1,0-0.2-0.1-0.3-0.2c0.2-0.3,0.3-0.8,0.3-1.2
			L42.8,2.4z M43.9,2.4c0.2,0.4,0.3,0.9,0.3,1.2l-0.3,0.1c0-0.3-0.2-0.9-0.3-1.3L43.9,2.4z M44.9,0.7c-0.2,0.3-0.5,0.7-0.7,0.9
			l-0.4-0.2c0.2-0.3,0.4-0.7,0.6-1L44.9,0.7z M46,1.6c0.2,0.4,0.4,0.8,0.7,1.2c0.3-0.3,0.5-0.7,0.7-1.2H46z"/>
		<path d="M55.7,2.2c-1,1.5-2.8,3.1-4.4,4.1c0.1,0,0.1,0.1,0.2,0.1c0.5,0.3,1.2,0.4,2,0.4c0.9,0,2.1-0.1,2.9-0.1
			c-0.1,0.2-0.2,0.5-0.2,0.6c-0.6,0-2,0.1-2.7,0.1c-1,0-1.6-0.1-2.1-0.4c-0.3-0.2-0.6-0.5-0.8-0.5c-0.3,0-0.6,0.5-1,1L49.2,7
			c0.5-0.6,1-1,1.5-1c0,0,0.1,0,0.1,0c1.5-0.8,3-2.3,3.9-3.5h-5.1V1.9h5.5l0.1,0L55.7,2.2z M53,1.9c-0.2-0.3-0.5-0.9-0.8-1.3
			l0.5-0.3c0.3,0.4,0.7,1,0.9,1.3L53,1.9z"/>
		<path d="M60.1,6.5c-1,0.3-2,0.6-2.8,0.8l-0.2-0.6c0.1,0,0.3-0.1,0.4-0.1V3.9H58v2.6l0.6-0.2V3.1h-1.1V0.7h2.4v2.4h-0.8v1.1H60v0.5
			h-0.8v1.4L60,5.9L60.1,6.5z M58,2.6h1.3V1.2H58V2.6z M62.6,4.5c0.3,1.2,1,2.2,1.9,2.6c-0.1,0.1-0.3,0.3-0.4,0.5
			c-0.9-0.5-1.5-1.3-1.9-2.4c-0.3,0.9-0.9,1.8-2,2.5c-0.1-0.1-0.3-0.3-0.4-0.4c1.3-0.7,1.8-1.8,2-2.7h-1.7V3.9h1.8c0-0.3,0-0.7,0-1
			V2.3h-1c-0.1,0.4-0.3,0.8-0.5,1.1c-0.1-0.1-0.4-0.2-0.5-0.3c0.4-0.6,0.6-1.6,0.7-2.5l0.6,0.1c0,0.3-0.1,0.7-0.2,1H62V0.4h0.6v1.4
			h1.7v0.6h-1.7v0.6c0,0.3,0,0.7,0,1h1.8v0.6H62.6z"/>
		<path d="M68,5.4c0,0.2,0,0.4-0.2,0.5c-0.1,0.1-0.3,0.1-0.6,0.1c0-0.2-0.1-0.4-0.2-0.5c0.2,0,0.3,0,0.4,0c0.1,0,0.1,0,0.1-0.1v-3
			h-0.6v5.3h-0.5V2.4h-0.6V6h-0.5V1.9h1V0.4h0.5v1.5H68V5.4z M72.4,0.8v0.5h-4.1V0.8H72.4z M68.3,4.3h4v3.3h-0.6V7.4h-2.9v0.3h-0.5
			V4.3z M72,1.8v1.9h-3.3V1.8H72z M68.8,4.8v0.8H70V4.8H68.8z M70,6.9V6.1h-1.1v0.8H70z M71.4,2.3h-2.2v0.9h2.2V2.3z M71.7,4.8h-1.2
			v0.8h1.2V4.8z M71.7,6.9V6.1h-1.2v0.8H71.7z"/>
	</g>
</g>
<g>
</g>
<g>
</g>
<g>
</g>
<g>
</g>
<g>
</g>
<g>
</g>
<g>
</g>
<g>
</g>
<g>
</g>
<g>
</g>
<g>
</g>
<g>
</g>
<g>
</g>
<g>
</g>
<g>
</g>
</svg>
