<?xml version="1.0" encoding="utf-8"?>
<!-- Generator: Adobe Illustrator 18.0.0, SVG Export Plug-In . SVG Version: 6.00 Build 0)  -->
<!DOCTYPE svg PUBLIC "-//W3C//DTD SVG 1.1//EN" "http://www.w3.org/Graphics/SVG/1.1/DTD/svg11.dtd">
<svg version="1.1" id="Layer_1" xmlns="http://www.w3.org/2000/svg" xmlns:xlink="http://www.w3.org/1999/xlink" x="0px" y="0px"
	 viewBox="0 0 1333.7 1111.1" enable-background="new 0 0 1333.7 1111.1" xml:space="preserve">
<g>
	<linearGradient id="SVGID_1_" gradientUnits="userSpaceOnUse" x1="666.8748" y1="241.8902" x2="666.8748" y2="21.5008">
		<stop  offset="0" style="stop-color:#E6E7E8;stop-opacity:0.1"/>
		<stop  offset="0.6107" style="stop-color:#E6E7E8;stop-opacity:0.8856"/>
		<stop  offset="0.6907" style="stop-color:#ECEAB3;stop-opacity:0.9091"/>
		<stop  offset="0.843" style="stop-color:#F6EE54;stop-opacity:0.9539"/>
		<stop  offset="0.9495" style="stop-color:#FCF117;stop-opacity:0.9851"/>
		<stop  offset="1" style="stop-color:#FFF200"/>
	</linearGradient>
	<path opacity="0.3" fill="url(#SVGID_1_)" d="M1333.7,270.6C1158.9,106.4,920.1,5.3,656.8,5.3C403.5,5.3,172.9,98.9,0,252.2v858.9
		h1320.6L1333.7,270.6z"/>
	<g>
		<path fill="#0C56AB" d="M119.9,166.8l15-10.5l7.5-5.2l3.7-2.6c1.2-0.9,2.6-1.7,3.8-2.5l15.4-9.8l7.7-4.9l1.9-1.2l2-1.1l4-2.3
			l15.8-9.2l7.9-4.6l8.1-4.3c10.8-5.6,21.5-11.6,32.6-16.6c44-21.2,89.8-38.6,136.7-52.3C429,25.8,476.9,15.8,525.3,9.2l18.2-2.4
			l2.3-0.3l2.3-0.2l4.6-0.4l9.1-0.9L580,3.3c1.5-0.1,3-0.3,4.6-0.4l4.6-0.3l9.1-0.5c12.2-0.7,24.4-1.6,36.6-1.6l18.3-0.4
			c3.1,0,6.1-0.2,9.2-0.1l9.2,0.1c24.4,0.3,48.9,1.4,73.2,3.3c24.4,2,48.6,4.8,72.8,8.6c48.3,7.6,96,18.6,142.6,33.4
			c46.6,14.8,92,33.2,135.4,55.4c21.7,11.2,42.9,23.2,63.6,36.2l3.9,2.4l3.8,2.5l7.7,5c2.6,1.6,5.1,3.4,7.6,5.1l7.5,5.2
			c5,3.5,9.9,7.1,14.8,10.7c4.9,3.6,9.7,7.3,14.6,11c-5-3.5-9.9-7.1-14.9-10.6c-5-3.4-10-6.9-15.1-10.3l-7.6-5
			c-2.5-1.7-5.1-3.4-7.7-5l-7.7-4.9l-3.9-2.4l-3.9-2.3c-20.8-12.6-42.2-24.2-64.1-35c-43.6-21.5-89.1-39.3-135.5-53.6
			c-46.5-14.2-94-25-142-32.3c-48-7.3-96.6-11.1-145.2-11.5c-97.2-0.8-194.5,11.5-288.1,38c-46.8,13.3-92.6,30-136.7,50.5
			c-11.2,4.8-21.9,10.6-32.8,16l-8.2,4.1l-8,4.4l-16,8.9l-4,2.2l-2,1.1l-1.9,1.2l-7.8,4.8l-15.6,9.5c-1.3,0.8-2.6,1.5-3.9,2.4
			l-3.8,2.5l-7.6,5.1L119.9,166.8z"/>
	</g>
</g>
<g>
</g>
<g>
</g>
<g>
</g>
<g>
</g>
<g>
</g>
<g>
</g>
<g>
</g>
<g>
</g>
<g>
</g>
<g>
</g>
<g>
</g>
<g>
</g>
<g>
</g>
<g>
</g>
<g>
</g>
</svg>
