<?xml version="1.0" encoding="utf-8"?>
<!-- Generator: Adobe Illustrator 18.0.0, SVG Export Plug-In . SVG Version: 6.00 Build 0)  -->
<!DOCTYPE svg PUBLIC "-//W3C//DTD SVG 1.1//EN" "http://www.w3.org/Graphics/SVG/1.1/DTD/svg11.dtd">
<svg version="1.1" id="Layer_1" xmlns="http://www.w3.org/2000/svg" xmlns:xlink="http://www.w3.org/1999/xlink" x="0px" y="0px"
	 viewBox="0 0 39.9 78.8" enable-background="new 0 0 39.9 78.8" xml:space="preserve">
<g>
	<g>
		<circle fill="#007A6D" cx="12.9" cy="12.9" r="12.9"/>
		<g>
			<path fill="#FFFFFF" d="M8,11c0-0.2-0.1-0.5-0.1-0.8c0-2.5,1.9-4.7,5.1-4.7c3.2,0,5.1,2.1,5.1,4.5c0,1.9-1,3.4-2.8,4.5l-2.8,1.7
				c-0.7,0.4-1.3,0.9-1.5,1.6h7.1v2.4H7.8c0-2.5,0.9-4.4,3.4-6l2.4-1.5c1.3-0.8,1.8-1.7,1.8-2.7c0-1.2-0.8-2.2-2.4-2.2
				c-1.7,0-2.5,1.2-2.5,2.7c0,0.2,0,0.5,0.1,0.7L8,11z"/>
		</g>
	</g>
	<g>
		<g>
			<g>
				<g>
					<polygon fill="#2368B5" points="2.8,42.3 2,41.4 9.9,34.2 14.3,38.7 21.4,31.1 26.5,35.6 38.7,24.3 39.5,25.2 26.5,37.3 
						21.5,32.8 14.3,40.4 9.8,35.9 					"/>
					<polygon fill="#2368B5" points="39.9,29.4 38.7,29.4 38.7,25.1 33.2,25.1 33.2,23.9 39.9,23.9 					"/>
				</g>
				<defs>
					<filter id="Adobe_OpacityMaskFilter" filterUnits="userSpaceOnUse" x="2.5" y="25.2" width="34.9" height="35.8">
						<feColorMatrix  type="matrix" values="1 0 0 0 0  0 1 0 0 0  0 0 1 0 0  0 0 0 1 0"/>
					</filter>
				</defs>
				<mask maskUnits="userSpaceOnUse" x="2.5" y="25.2" width="34.9" height="35.8" id="SVGID_1_">
					<g filter="url(#Adobe_OpacityMaskFilter)">
						<g>
							<path fill="#FFFFFF" d="M21,41.5c5.2,0,10,2,13.6,5.6c1.9,1.9,3.4,4.2,4.3,6.6V28.4L26.7,39.9l-5.2-4.7l-6.8,7.3
								C16.7,41.9,18.8,41.5,21,41.5z"/>
							<path fill="#FFFFFF" d="M1.7,60.8c0-5.2,2-10,5.6-13.7c1.9-1.9,4.1-3.3,6.5-4.3l-4.4-4.4l-7,6.4L1,61.1h0.7
								C1.7,61,1.7,60.9,1.7,60.8z"/>
						</g>
					</g>
				</mask>
				<g mask="url(#SVGID_1_)">
					<rect x="2.5" y="31.6" fill="#2368B5" width="8.1" height="29.4"/>
					<rect x="12" y="31.6" fill="#2368B5" width="8.1" height="29.4"/>
					<rect x="21.5" y="31.6" fill="#2368B5" width="8.1" height="29.4"/>
					<rect x="30.9" y="25.2" fill="#2368B5" width="6.5" height="35.8"/>
				</g>
				<path fill="#2368B5" d="M21,78.8c-9.9,0-17.9-8-17.9-18c0-10,8-18,18-18c10,0,18,8,18,18C39,70.8,30.9,78.8,21,78.8z M27,62.1
					c-4.1,0-8,0-12,0c0.3,1.9,0.6,3.7,1,5.5c0,0.2,0.4,0.4,0.5,0.4c3,0,6,0,9,0c0.2,0,0.5-0.3,0.6-0.4C26.4,65.7,26.7,64,27,62.1z
					 M27,59.4c-0.3-1.8-0.5-3.5-0.8-5.2c0-0.2-0.4-0.6-0.7-0.6c-3,0-6.1,0-9.1,0c-0.2,0-0.6,0.2-0.6,0.3c-0.3,1.8-0.6,3.6-0.9,5.4
					C19.1,59.4,22.9,59.4,27,59.4z M12.6,62.1c-2.4,0-4.7,0-7.1,0c0.1,2,0.7,3.8,1.5,5.5C7.1,67.8,7.3,68,7.4,68c2,0,4,0,6,0
					C13.1,66,12.9,64.1,12.6,62.1z M29.4,62.1c-0.3,2-0.5,3.9-0.8,5.9c2,0,4,0,5.9,0c0.1,0,0.4-0.1,0.4-0.2c0.9-1.8,1.5-3.6,1.6-5.7
					C34.1,62.1,31.8,62.1,29.4,62.1z M12.6,59.4c0.2-1.9,0.5-3.8,0.7-5.8c-2,0-3.9,0-5.9,0c-0.2,0-0.4,0.2-0.4,0.3
					c-0.8,1.7-1.4,3.5-1.5,5.4C7.9,59.4,10.2,59.4,12.6,59.4z M36.6,59.4c-0.2-2-0.7-3.7-1.5-5.4c-0.1-0.2-0.3-0.4-0.5-0.4
					c-1.9,0-3.9,0-5.8,0c0.3,2,0.5,3.9,0.7,5.8C31.8,59.4,34.1,59.4,36.6,59.4z M25.5,50.9c-0.7-1.6-1.4-3-2-4.4
					c-0.4-1.1-1.2-1.3-2.3-1.4c-1.4,0-2.4,0.3-2.9,1.7c-0.5,1.4-1.2,2.7-1.8,4.1C19.6,50.9,22.4,50.9,25.5,50.9z M25.3,70.7
					c-3,0-5.6,0-8.5,0c0.6,1.3,1.1,2.5,1.6,3.7c1,2.2,1.4,2.3,3.7,2c0.1,0,0.2,0,0.3,0c0.1-0.1,0.3-0.2,0.4-0.3
					C23.6,74.3,24.4,72.6,25.3,70.7z M8.9,70.6c2.1,2.4,4.4,4,7.3,5c-0.6-1.6-1.2-3.1-1.8-4.6c-0.1-0.2-0.3-0.4-0.4-0.4
					C12.3,70.6,10.7,70.6,8.9,70.6z M25.9,75.6c2.9-1,5.2-2.6,7.2-5c-1.8,0-3.4,0-5,0c-0.2,0-0.4,0.2-0.5,0.4
					C27.1,72.5,26.5,74,25.9,75.6z M8.9,51c1.8,0,3.3,0,4.8,0c0.2,0,0.5-0.2,0.5-0.3c0.6-1.5,1.1-3,1.7-4.6
					C13.1,47,10.9,48.6,8.9,51z M26.1,46.1c0.6,1.6,1.1,3,1.7,4.4c0.1,0.2,0.3,0.5,0.4,0.5c1.6,0,3.2,0,4.9,0
					C31.1,48.6,28.9,47,26.1,46.1z"/>
			</g>
		</g>
	</g>
</g>
<g>
</g>
<g>
</g>
<g>
</g>
<g>
</g>
<g>
</g>
<g>
</g>
<g>
</g>
<g>
</g>
<g>
</g>
<g>
</g>
<g>
</g>
<g>
</g>
<g>
</g>
<g>
</g>
<g>
</g>
</svg>
