<?xml version="1.0" encoding="utf-8"?>
<!-- Generator: Adobe Illustrator 18.0.0, SVG Export Plug-In . SVG Version: 6.00 Build 0)  -->
<!DOCTYPE svg PUBLIC "-//W3C//DTD SVG 1.1//EN" "http://www.w3.org/Graphics/SVG/1.1/DTD/svg11.dtd">
<svg version="1.1" id="Layer_1" xmlns="http://www.w3.org/2000/svg" xmlns:xlink="http://www.w3.org/1999/xlink" x="0px" y="0px"
	 viewBox="0 0 276 138" enable-background="new 0 0 276 138" xml:space="preserve">
<path opacity="0.3" fill="#D1D3D4" d="M0,37.3c14-10.6,35.6-9.1,45.8,1.9C56,50.1,56,69.1,80.2,71.3c24.2,2.3,26.1-2.6,44.3,8.7
	c18.2,11.3,33.3-3.4,57.5,15.9c24.2,19.3,28.7,41.6,28.7,41.6H1.9L0,37.3z"/>
<path opacity="0.3" fill="#D1D3D4" d="M90.4,0c11.6,0.7,22.8,15.3,23.8,20.7c1,5.4,1.7,18.7,15.3,21.4c13.6,2.7,20.1-4.4,30.3,7.1
	c10.2,11.6,15,26.9,31.6,28.6c16.7,1.7,31,0.3,40.5,14.3c9.5,13.9,16.3,29.6,28.9,30.6c12.6,1,15.3,15.3,15.3,15.3H89L90.4,0z"/>
<g>
</g>
<g>
</g>
<g>
</g>
<g>
</g>
<g>
</g>
<g>
</g>
<g>
</g>
<g>
</g>
<g>
</g>
<g>
</g>
<g>
</g>
<g>
</g>
<g>
</g>
<g>
</g>
<g>
</g>
</svg>
