<?xml version="1.0" encoding="utf-8"?>
<!-- Generator: Adobe Illustrator 18.0.0, SVG Export Plug-In . SVG Version: 6.00 Build 0)  -->
<!DOCTYPE svg PUBLIC "-//W3C//DTD SVG 1.1//EN" "http://www.w3.org/Graphics/SVG/1.1/DTD/svg11.dtd">
<svg version="1.1" id="Layer_1" xmlns="http://www.w3.org/2000/svg" xmlns:xlink="http://www.w3.org/1999/xlink" x="0px" y="0px"
	 viewBox="0 0 83.4 124.6" enable-background="new 0 0 83.4 124.6" xml:space="preserve">
<g>
	<path fill="#939598" d="M56,96.5l0.7-20.2c0,0,1-0.5,2.6,0l0,0.4"/>
	<path fill="#A7A9AC" d="M56.6,76.4c0.6,0.2,2.2,0.4,2.8,0.3l-2.6,17.7L56,93.9L56.6,76.4z"/>
	<path fill="#939598" d="M53.3,94.4l-5.9-19.3c0,0,0.8-0.8,2.4-0.8l0.1,0.4"/>
	<path fill="#D1D3D4" d="M47.5,75.1c0.6,0,2.2-0.3,2.8-0.6l3.2,17.6L52.5,92L47.5,75.1z"/>
	<path fill="#6D6E71" d="M54.3,96l-2-13.1c0,0,0.8-0.5,2.1-0.4l0,0.3"/>
	<path fill="#A7A9AC" d="M52.2,82.9c0.5,0.1,1.8,0,2.3-0.2l0.5,14.6l-0.7-0.2L52.2,82.9z"/>
	<path fill="#6D6E71" d="M56.4,96.3l3.8-12.7c0,0-0.7-0.6-2-0.6l-0.1,0.3"/>
	<path fill="#D1D3D4" d="M60.2,83.6c-0.5,0-1.8-0.2-2.3-0.5l-2.5,14.4l0.7-0.1L60.2,83.6z"/>
	<path fill="#939598" d="M54.3,98.2L55,78c0,0,1-0.5,2.6,0l0,0.4"/>
	<path fill="#D1D3D4" d="M55,78c0.6,0.2,2.2,0.4,2.8,0.3L55.1,96l-0.8-0.4L55,78z"/>
	<path fill="#2368B5" d="M55.8,90.1c-2.5,0-4.6,0.2-4.6,0.5l1.5,7.5c0,0.3,1.4,0.5,3.1,0.5c1.7,0,3.1-0.2,3.1-0.5l1.5-7.5
		C60.4,90.3,58.3,90.1,55.8,90.1"/>
	<path fill="#231F20" d="M62.4,89.4c-1.9,0-3.5,1.1-3.5,2.5c0,1.4,1.6,2.5,3.5,2.5c1.9,0,3.5-1.1,3.5-2.5
		C65.9,90.5,64.4,89.4,62.4,89.4 M62.4,94.1c-1.7,0-3.1-1-3.1-2.2c0-1.2,1.4-2.2,3.1-2.2s3.1,1,3.1,2.2
		C65.5,93.1,64.2,94.1,62.4,94.1"/>
	<path fill="#58595B" d="M62.4,89.5c1.9,0,3.4,1.1,3.5,2.5c0,0,0,0,0-0.1c0-1.4-1.6-2.5-3.5-2.5c-1.9,0-3.5,1.1-3.5,2.5
		c0,0,0,0,0,0.1C59,90.6,60.5,89.5,62.4,89.5"/>
	<path fill="#58595B" d="M62.4,94.3c1.7,0,3.1-1,3.1-2.2c0,0,0,0,0-0.1c0,1.2-1.4,2.2-3.1,2.2c-1.7,0-3-1-3.1-2.2c0,0,0,0,0,0.1
		C59.3,93.3,60.7,94.3,62.4,94.3"/>
	<polygon fill="#58595B" points="56.3,97.9 56.9,91.3 67.5,91.3 67.5,97.9 	"/>
	<path fill="#231F20" d="M56.9,91.3c0,0.8,0.3,3.3,0.3,3.3h7c0,0-6.7-0.1-6.7-0.2C57.5,94.4,56.9,91.3,56.9,91.3"/>
	<path fill="#58595B" d="M62.9,95h-1.4c-0.2,0-0.4-0.2-0.4-0.4c0-0.2,0.2-0.4,0.4-0.4h1.4c0.2,0,0.4,0.2,0.4,0.4
		C63.3,94.8,63.1,95,62.9,95"/>
	<path fill="#231F20" d="M63,94.9h-1.4c-0.2,0-0.4-0.2-0.4-0.4c0-0.1,0.1-0.2,0.1-0.3c-0.1,0.1-0.2,0.2-0.2,0.3
		c0,0.2,0.2,0.4,0.4,0.4L63,94.9c0,0,0.1,0,0.2,0C63.1,94.9,63.1,94.9,63,94.9"/>
	<path fill="#231F20" d="M56.9,93.8l-0.4,4.3c0,0,0.2,0,0.2-0.2C56.7,97.8,56.9,93.8,56.9,93.8"/>
	<polygon fill="#231F20" points="57.2,94.7 57.3,98.3 57.7,98.1 57.3,94.4 	"/>
	<polygon fill="#231F20" points="33.2,66.1 34,66.7 33.8,67.1 33.7,67.1 32.6,69.1 32.8,67.3 32.7,67 	"/>
	<polygon fill="#2368B5" points="28.5,59 32.8,66.9 33.4,66.6 30.4,58.4 	"/>
	<rect x="29.9" y="65.7" transform="matrix(-0.9798 -0.2 0.2 -0.9798 43.6262 170.3776)" fill="#C49A6C" width="1" height="34.5"/>
	<g>
		<g>
			<defs>
				<rect id="SVGID_1_" x="27" y="66.1" width="7.4" height="33.9"/>
			</defs>
			<clipPath id="SVGID_2_">
				<use xlink:href="#SVGID_1_"  overflow="visible"/>
			</clipPath>
			<polyline clip-path="url(#SVGID_2_)" fill="#808285" points="33.9,66.1 27,99.9 27.5,100 34.4,66.2 			"/>
		</g>
	</g>
	<g opacity="0.7">
		<g>
			<defs>
				<rect id="SVGID_3_" x="33.2" y="66.1" width="4.8" height="34.4"/>
			</defs>
			<clipPath id="SVGID_4_">
				<use xlink:href="#SVGID_3_"  overflow="visible"/>
			</clipPath>
			
				<rect x="35.1" y="66.1" transform="matrix(-0.9938 -0.1114 0.1114 -0.9938 61.641 170.102)" clip-path="url(#SVGID_4_)" fill="#C49A6C" width="1" height="34.5"/>
			<g clip-path="url(#SVGID_4_)">
				<g>
					<defs>
						<rect id="SVGID_5_" x="33.8" y="66.2" width="4.2" height="34.4"/>
					</defs>
					<clipPath id="SVGID_6_">
						<use xlink:href="#SVGID_5_"  overflow="visible"/>
					</clipPath>
					<polyline clip-path="url(#SVGID_6_)" fill="#808285" points="37.6,66.2 33.8,100.5 34.1,100.5 38,66.2 					"/>
				</g>
			</g>
		</g>
	</g>
	<g opacity="0.7">
		<g>
			<defs>
				<rect id="SVGID_7_" x="43.6" y="66.2" width="4.8" height="34.4"/>
			</defs>
			<clipPath id="SVGID_8_">
				<use xlink:href="#SVGID_7_"  overflow="visible"/>
			</clipPath>
			
				<rect x="45.6" y="66.1" transform="matrix(0.9938 -0.1111 0.1111 0.9938 -8.9779 5.632)" clip-path="url(#SVGID_8_)" fill="#C49A6C" width="1" height="34.5"/>
			<g clip-path="url(#SVGID_8_)">
				<g>
					<defs>
						<rect id="SVGID_9_" x="43.6" y="66.3" width="4.2" height="34.4"/>
					</defs>
					<clipPath id="SVGID_10_">
						<use xlink:href="#SVGID_9_"  overflow="visible"/>
					</clipPath>
					<polyline clip-path="url(#SVGID_10_)" fill="#808285" points="44,66.3 47.9,100.6 47.5,100.6 43.6,66.3 					"/>
				</g>
			</g>
		</g>
	</g>
	<rect x="50.6" y="65.7" transform="matrix(0.9798 -0.2 0.2 0.9798 -15.5653 11.8924)" fill="#C49A6C" width="1" height="34.5"/>
	<g>
		<g>
			<defs>
				<rect id="SVGID_11_" x="47.1" y="66.1" width="7.3" height="33.9"/>
			</defs>
			<clipPath id="SVGID_12_">
				<use xlink:href="#SVGID_11_"  overflow="visible"/>
			</clipPath>
			<polyline clip-path="url(#SVGID_12_)" fill="#808285" points="47.5,66.1 54.4,99.9 54,100 47.1,66.2 			"/>
		</g>
	</g>
	<g>
		<g>
			<defs>
				<rect id="SVGID_13_" x="47.2" y="66.4" width="1.1" height="0.9"/>
			</defs>
			<clipPath id="SVGID_14_">
				<use xlink:href="#SVGID_13_"  overflow="visible"/>
			</clipPath>
			<polygon clip-path="url(#SVGID_14_)" fill="#A7A9AC" points="47.2,66.4 48.2,66.4 48.3,66.9 47.3,67.2 			"/>
		</g>
	</g>
	<g>
		<g>
			<defs>
				<rect id="SVGID_15_" x="33.1" y="66.2" width="1.2" height="0.9"/>
			</defs>
			<clipPath id="SVGID_16_">
				<use xlink:href="#SVGID_15_"  overflow="visible"/>
			</clipPath>
			<polygon clip-path="url(#SVGID_16_)" fill="#A7A9AC" points="33.3,66.2 34.3,66.5 34.2,67.1 33.1,67.1 			"/>
		</g>
	</g>
	<g>
		<g>
			<defs>
				<rect id="SVGID_17_" x="36.9" y="66.5" width="1" height="1.8"/>
			</defs>
			<clipPath id="SVGID_18_">
				<use xlink:href="#SVGID_17_"  overflow="visible"/>
			</clipPath>
			<polygon clip-path="url(#SVGID_18_)" fill="#A7A9AC" points="36.9,66.7 37.8,68.3 38,66.5 37,66.5 			"/>
		</g>
	</g>
	<g>
		<g>
			<defs>
				<rect id="SVGID_19_" x="43.7" y="66.4" width="1.1" height="1.1"/>
			</defs>
			<clipPath id="SVGID_20_">
				<use xlink:href="#SVGID_19_"  overflow="visible"/>
			</clipPath>
			<polygon clip-path="url(#SVGID_20_)" fill="#A7A9AC" points="43.7,66.6 44.8,67.5 44.7,66.4 			"/>
		</g>
	</g>
	<path fill="#C49A6C" d="M41,64.1c-5.2,0-9.5,0.4-9.5,1v0.8c0,0.5,4.2,1,9.5,1s9.5-0.4,9.5-1V65C50.5,64.5,46.2,64.1,41,64.1"/>
	<path fill="#A97C50" d="M50.5,65c0,0.5-4.2,1-9.5,1c-5.2,0-9.5-0.4-9.5-1c0-0.5,4.2-1,9.5-1C46.2,64.1,50.5,64.5,50.5,65"/>
	<g>
		<g>
			<defs>
				<rect id="SVGID_21_" x="39.1" y="65" width="9.6" height="0.6"/>
			</defs>
			<clipPath id="SVGID_22_">
				<use xlink:href="#SVGID_21_"  overflow="visible"/>
			</clipPath>
			<path clip-path="url(#SVGID_22_)" fill="#808285" d="M48.7,65.2c0-0.2-3.6-0.3-5.7-0.3s-3.9,0.1-3.9,0.3c0,0.2,1.7,0.3,3.9,0.3
				S48.7,65.4,48.7,65.2"/>
		</g>
	</g>
	<path fill="#FFEBCA" d="M54.1,26.4l-5.6-3.9l-8.3,13l9.6,4.9C49.8,40.4,54.2,26.1,54.1,26.4"/>
	<polygon fill="#1B75BC" points="47,27.3 45.2,31.6 43.5,30.2 	"/>
	<path fill="#6D6E71" d="M48.4,22.5l-1-1.8c0,0,6.2,1.4,7.1,3.1c1.1,2-1.5,6-1.5,6s0.5-1.3-0.1-1.5c-0.3-0.2-0.8,0.4-0.8,0.4
		l0.3-3.2L48.4,22.5z"/>
	<path fill="#6D6E71" d="M49.7,28c-0.2,0.3-0.6,0.4-0.8,0.3c-0.2-0.2-0.2-0.5,0-0.8c0.2-0.3,0.6-0.4,0.8-0.3
		C49.9,27.3,49.9,27.7,49.7,28"/>
	<path fill="#F1F2F2" d="M49.5,27.5c-0.1,0.1-0.2,0.1-0.2,0c-0.1-0.1,0-0.2,0.1-0.2c0.1-0.1,0.2-0.1,0.2,0
		C49.6,27.3,49.5,27.4,49.5,27.5"/>
	<path fill="#6D6E71" d="M47.1,26.7c-0.2,0.3-0.6,0.4-0.8,0.3c-0.2-0.2-0.2-0.5,0-0.8c0.2-0.3,0.6-0.4,0.8-0.3
		C47.3,26,47.3,26.4,47.1,26.7"/>
	<path fill="#F1F2F2" d="M46.8,26.2c-0.1,0.1-0.2,0.1-0.2,0c-0.1-0.1,0-0.2,0.1-0.2c0.1-0.1,0.2-0.1,0.2,0
		C46.9,26,46.9,26.1,46.8,26.2"/>
	<polygon fill="#2368B5" points="49.8,40.4 49.9,56.2 50.6,59.2 33.7,58.8 40.1,35.5 	"/>
	<path fill="#2368B5" d="M40.1,35.5c-3.3-1.2-7.2-7.4-6.7-11.6l-2.6-1.5c0,0-2,4.9-0.1,9.9c1.7,4.6,6.6,10.3,10.3,11.6l2.1-3.8
		L40.1,35.5z"/>
	<path fill="#414042" d="M48.3,26.1l-13.2-6.1L9.6,3.5C9.5,3.4,9.4,3.3,9.2,3.2c-1.5-0.7-3.7,0.6-4.8,3c-1.1,2.4-0.8,4.9,0.8,5.6
		c0.1,0.1,42.2,16.3,42.2,16.3c0.6,0.2,1.2-0.1,1.5-0.7C49.1,26.9,48.9,26.3,48.3,26.1"/>
	<g>
		<g>
			<defs>
				<rect id="SVGID_23_" x="3.8" y="3.1" width="45.1" height="24.9"/>
			</defs>
			<clipPath id="SVGID_24_">
				<use xlink:href="#SVGID_23_"  overflow="visible"/>
			</clipPath>
			<path clip-path="url(#SVGID_24_)" fill="#A7A9AC" d="M48.3,26.1l-13.2-6.1L9.6,3.5C9.5,3.4,9.4,3.3,9.2,3.2
				c-1.5-0.7-3.7,0.6-4.8,3C4.1,7,3.9,7.7,3.8,8.5c1.1-1.9,2.9-3,4.3-2.4c0.1,0.1,0.3,0.1,0.4,0.2l26.1,15.5L48,27.5
				c0.2,0.1,0.4,0.3,0.5,0.5c0.2-0.1,0.3-0.3,0.4-0.5C49.1,26.9,48.9,26.3,48.3,26.1"/>
		</g>
	</g>
	<g>
		<g>
			<defs>
				<rect id="SVGID_25_" x="4" y="3.3" width="6.3" height="8.3"/>
			</defs>
			<clipPath id="SVGID_26_">
				<use xlink:href="#SVGID_25_"  overflow="visible"/>
			</clipPath>
			<g clip-path="url(#SVGID_26_)">
				<defs>
					<path id="SVGID_27_" d="M9.2,3.5c1.3,0.7,1.5,3,0.4,5.2c-1.1,2.2-3.1,3.4-4.5,2.7c-1.3-0.7-1.5-3-0.4-5.2
						C5.9,4,7.9,2.8,9.2,3.5"/>
				</defs>
				<clipPath id="SVGID_28_">
					<use xlink:href="#SVGID_27_"  overflow="visible"/>
				</clipPath>
				
					<linearGradient id="SVGID_29_" gradientUnits="userSpaceOnUse" x1="-356.185" y1="-511.5776" x2="-355.9079" y2="-511.5776" gradientTransform="matrix(13.3659 6.3959 6.3959 -13.3659 8038.5068 -4552.8237)">
					<stop  offset="0" style="stop-color:#FFFFFF"/>
					<stop  offset="1" style="stop-color:#231F20"/>
				</linearGradient>
				<polygon clip-path="url(#SVGID_28_)" fill="url(#SVGID_29_)" points="4.9,0 14.3,4.5 9.4,14.8 0,10.3 				"/>
			</g>
		</g>
	</g>
	<path fill="#231F20" d="M5,6.4C6.1,4.2,8.1,3,9.4,3.7c0.1,0.1,0.2,0.1,0.3,0.2C9.6,3.7,9.4,3.6,9.2,3.5C7.9,2.8,5.9,4,4.8,6.2
		c-1,2-1,4.1,0,5C4,10.2,4,8.2,5,6.4"/>
	<g opacity="0.36">
		<g>
			<defs>
				<rect id="SVGID_30_" x="4" y="3.3" width="6.3" height="8.3"/>
			</defs>
			<clipPath id="SVGID_31_">
				<use xlink:href="#SVGID_30_"  overflow="visible"/>
			</clipPath>
			<path clip-path="url(#SVGID_31_)" fill="#FFFFFF" d="M9.2,3.5c1.3,0.7,1.5,3,0.4,5.2c-1.1,2.2-3.1,3.4-4.5,2.7
				c-1.3-0.7-1.5-3-0.4-5.2C5.9,4,7.9,2.8,9.2,3.5"/>
		</g>
	</g>
	<g opacity="0.2">
		<g>
			<defs>
				<rect id="SVGID_32_" x="4.1" y="3.4" width="5.3" height="7.5"/>
			</defs>
			<clipPath id="SVGID_33_">
				<use xlink:href="#SVGID_32_"  overflow="visible"/>
			</clipPath>
			<path clip-path="url(#SVGID_33_)" fill="#FFFFFF" d="M8.9,3.4C8.2,3.1,6.5,3.6,5.2,5.6c-1.3,2.1-1.2,3.9-0.8,5
				c0.4,1.1,2.3-0.8,3.4-2.4C8.2,7.6,10.5,4.1,8.9,3.4"/>
		</g>
	</g>
	<g opacity="0.4">
		<g>
			<defs>
				<rect id="SVGID_34_" x="9" y="4.3" width="0.9" height="1.1"/>
			</defs>
			<clipPath id="SVGID_35_">
				<use xlink:href="#SVGID_34_"  overflow="visible"/>
			</clipPath>
			<path clip-path="url(#SVGID_35_)" fill="#FFFFFF" d="M9,4.7C8.9,5,9,5.3,9.2,5.3c0.2,0.1,0.5-0.1,0.6-0.4c0.1-0.3,0-0.6-0.2-0.6
				S9.1,4.4,9,4.7"/>
		</g>
	</g>
	<polygon fill="#FFEBCA" points="30.8,22.4 32.4,17.7 35.5,19.5 33.4,23.9 	"/>
	<path fill="#2368B5" d="M49.8,58.3c-0.4,2.3-3.8,7.4-8.4,7.2s-9.1-4.3-12.4-4.3c-1.5,0,0.7,4.8,3.5,8.8l-1.2,0.6
		c0,0-11.1-11-5.9-15.5c2.7-2.3,10.6,2,10.6,2L49.8,58.3z"/>
	<path fill="#C49A6C" d="M50,78.3c0,0.2-0.2,0.3-0.3,0.3H31.9c-0.2,0-0.3-0.2-0.3-0.3c0-0.2,0.2-0.4,0.4-0.4h17.5
		C49.8,77.9,50,78.1,50,78.3"/>
	<g>
		<g>
			<defs>
				<rect id="SVGID_36_" x="31.6" y="77.9" width="18.4" height="0.4"/>
			</defs>
			<clipPath id="SVGID_37_">
				<use xlink:href="#SVGID_36_"  overflow="visible"/>
			</clipPath>
			<path clip-path="url(#SVGID_37_)" fill="#808285" d="M50,78.3H31.6c0-0.2,0.2-0.4,0.4-0.4h17.5C49.8,77.9,50,78.1,50,78.3"/>
		</g>
	</g>
	<path fill="#917961" d="M45.2,80h-8.8c-0.1,0-0.2-0.1-0.2-0.2v-0.2c0-0.2,0.1-0.3,0.3-0.3h8.7c0.2,0,0.3,0.1,0.3,0.3v0.2
		C45.4,79.9,45.3,80,45.2,80"/>
	<g>
		<g>
			<defs>
				<rect id="SVGID_38_" x="36.1" y="79.2" width="9.3" height="0.4"/>
			</defs>
			<clipPath id="SVGID_39_">
				<use xlink:href="#SVGID_38_"  overflow="visible"/>
			</clipPath>
			<path clip-path="url(#SVGID_39_)" fill="#808285" d="M45.4,79.7h-9.3v-0.1c0-0.2,0.1-0.3,0.3-0.3h8.7c0.2,0,0.3,0.1,0.3,0.3V79.7
				z"/>
		</g>
	</g>
	<path fill="#032360" d="M38.3,42.3c0.5,0.3,1,0.6,1.6,0.9c0.5,0.3,1.1,0.5,1.6,0.8c0.5,0.3,1.1,0.5,1.6,0.8
		c0.1,0.1,0.3,0.2,0.4,0.3c0.1,0.1,0.2,0.2,0.4,0.3c0.2,0.2,0.4,0.5,0.5,0.8c-0.2-0.3-0.4-0.5-0.6-0.7c-0.1-0.1-0.2-0.2-0.4-0.3
		c-0.1-0.1-0.3-0.1-0.4-0.2c-0.5-0.3-1.1-0.5-1.6-0.8c-0.6-0.3-1.1-0.5-1.6-0.8C39.3,43,38.7,42.7,38.3,42.3"/>
	<path fill="#032360" d="M34.4,56.4c0.1,0,0.3,0.1,0.4,0.1c0.1,0.1,0.2,0.2,0.3,0.2c0.2,0.2,0.4,0.3,0.6,0.5
		c0.4,0.3,0.8,0.7,1.3,0.9c0.9,0.6,1.9,1,3,0.9c1.1,0,2.1-0.2,3.2-0.3c1.1-0.1,2.2-0.1,3.2,0.1c-0.5,0-1.1,0-1.6,0
		c-0.5,0-1.1,0.1-1.6,0.1l-1.6,0.2c-0.5,0.1-1.1,0.1-1.6,0.1c-1.1,0-2.2-0.4-3.1-1c-0.4-0.3-0.9-0.7-1.3-1c-0.2-0.2-0.4-0.4-0.6-0.5
		c-0.1-0.1-0.2-0.2-0.3-0.3C34.7,56.5,34.5,56.4,34.4,56.4"/>
	<polygon fill="#231F20" points="32.4,69.9 33,71.1 32.5,71.4 32.4,71.3 30.2,73 31.3,70.9 31.3,70.6 	"/>
	<path fill="#4C4446" d="M70.8,97.9H14l-6.1,6.1l-0.2,4.4l10.9,5.4l6.5,7.5l5.4-0.6l4.8,1.9h7.5l7.7,2.1c0,0,20.7-7.9,21.3-7.9
		s5.6,2.9,6.3,2.9c0.6,0,5.2-3.8,5.2-3.8L70.8,97.9z"/>
	<path d="M25,121.3l5.4-0.6l4.8,1.9h7.5l7.7,2.1c0,0,20.7-7.9,21.3-7.9c0.6,0,5.6,2.9,6.3,2.9c0.6,0,5.2-3.8,5.2-3.8l-12.5-18
		L53,97.9l-11.8,1.8l2.9,3.5l-1.8,4.9l-4.4,0.5l-1.6,3l-0.1,4l-6.6-0.8l-3.2-3.6l-18.8-2.9l10.9,5.4L25,121.3z"/>
</g>
<g>
</g>
<g>
</g>
<g>
</g>
<g>
</g>
<g>
</g>
<g>
</g>
<g>
</g>
<g>
</g>
<g>
</g>
<g>
</g>
<g>
</g>
<g>
</g>
<g>
</g>
<g>
</g>
<g>
</g>
</svg>
