<?xml version="1.0" encoding="utf-8"?>
<!-- Generator: Adobe Illustrator 22.0.1, SVG Export Plug-In . SVG Version: 6.00 Build 0)  -->
<!DOCTYPE svg PUBLIC "-//W3C//DTD SVG 1.1//EN" "http://www.w3.org/Graphics/SVG/1.1/DTD/svg11.dtd">
<svg version="1.1" id="Layer_1" xmlns="http://www.w3.org/2000/svg" xmlns:xlink="http://www.w3.org/1999/xlink" x="0px" y="0px"
	 viewBox="0 0 224.6 172.1" style="enable-background:new 0 0 224.6 172.1;" xml:space="preserve">
<style type="text/css">
	.st0{opacity:0.58;clip-path:url(#SVGID_2_);fill:#414042;enable-background:new    ;}
	.st1{clip-path:url(#SVGID_5_);}
	.st2{fill:#FFEBCA;}
	.st3{fill:#1B75BC;}
	.st4{fill:#6D6E71;}
	.st5{fill:#2368B5;}
	.st6{fill:#E6E7E8;}
	.st7{clip-path:url(#SVGID_7_);}
	.st8{clip-path:url(#SVGID_9_);}
	.st9{clip-path:url(#SVGID_11_);}
	.st10{fill:#0C56AB;}
	.st11{clip-path:url(#SVGID_13_);}
	.st12{fill:#FFFFFF;}
	.st13{clip-path:url(#SVGID_19_);}
	.st14{clip-path:url(#SVGID_20_);}
	.st15{clip-path:url(#SVGID_21_);}
	.st16{clip-path:url(#SVGID_22_);}
	.st17{clip-path:url(#SVGID_23_);fill:#FFFFFF;}
	.st18{clip-path:url(#SVGID_23_);fill:#2368B5;}
	.st19{clip-path:url(#SVGID_23_);}
	.st20{fill:none;stroke:#0C56AB;stroke-width:1.1085;stroke-miterlimit:10;}
	.st21{fill:none;stroke:#0C56AB;stroke-width:0.2771;stroke-linecap:round;stroke-miterlimit:10;}
</style>
<g>
	<g>
		<g>
			<defs>
				<path id="SVGID_1_" d="M224.6,0.1L0.1,0L0,164.6c75.2-24.1,149.9-22.9,224.6,0.1V0.1z"/>
			</defs>
			<clipPath id="SVGID_2_">
				<use xlink:href="#SVGID_1_"  style="overflow:visible;"/>
			</clipPath>
			<polyline class="st0" points="102.9,39 134.5,39 134.5,32.5 146.1,43.1 134.8,53.8 134.8,47.7 102.9,47.7 			"/>
		</g>
		<g>
			<defs>
				<path id="SVGID_4_" d="M224.6,0.1L0.1,0L0,164.6c75.2-24.1,149.9-22.9,224.6,0.1V0.1z"/>
			</defs>
			<clipPath id="SVGID_5_">
				<use xlink:href="#SVGID_4_"  style="overflow:visible;"/>
			</clipPath>
			<g class="st1">
				<g>
					<path class="st2" d="M129.3,72.2l-20.4-9.8l-15.1,44.9l30,4.7C123.8,111.9,129.5,71.2,129.3,72.2z"/>
					<polygon class="st3" points="106.9,79 103.2,93.8 97.2,90.2 					"/>
					<path class="st4" d="M108.9,62.4l-4.2-5.3c0,0,20.8,1.3,24.8,6.2c4.8,6-1.6,20.4-1.6,20.4s0.9-4.3-1.1-5
						c-1.1-0.4-2.4,1.6-2.4,1.6l-0.8-10.4L108.9,62.4z"/>
					
						<ellipse transform="matrix(0.4525 -0.8918 0.8918 0.4525 -7.7051 145.4243)" class="st4" cx="114.6" cy="79" rx="2.3" ry="1.6"/>
					
						<ellipse transform="matrix(0.4525 -0.8918 0.8918 0.4525 -10.2556 135.7034)" class="st4" cx="105.4" cy="76.2" rx="2.3" ry="1.6"/>
				</g>
				<path class="st5" d="M79.6,172.1c3.1-17.6,8.7-42.3,13.1-66.3l33,3c0,0,3.7,3.4,2.9,11c-0.6,4.9,2.5,30.7,5.2,52.2"/>
				<path class="st6" d="M113.3,109.7c0,0-7.2,22.7-7.5,21.5s-2.8-22.3-2.8-22.3L113.3,109.7z"/>
				<g>
					<path class="st5" d="M123.5,136.5c8.7-2.4,37.6-26.7,58-45.7l-3.4-4.7c0,0-35.6,22.7-55,22.5"/>
					<polygon class="st2" points="181.5,90.8 189.2,83.6 185.2,78.2 177.3,87 					"/>
				</g>
				<path class="st5" d="M90.4,133.4c-7.7-4-25.2-22.9-28.7-60.5l5.1-5.3c0,0,1.6,26.6,25.9,38.2l6.1,5.3L90.4,133.4z"/>
				<polygon class="st2" points="61.9,74.5 59.8,61.2 64.2,60.2 67.5,71.2 				"/>
			</g>
		</g>
		<g>
			<defs>
				<path id="SVGID_6_" d="M224.6,0.1L0.1,0L0,164.6c75.2-24.1,149.9-22.9,224.6,0.1V0.1z"/>
			</defs>
			<clipPath id="SVGID_7_">
				<use xlink:href="#SVGID_6_"  style="overflow:visible;"/>
			</clipPath>
			<g class="st7">
				<polygon class="st5" points="98.4,26.1 74.7,47.5 63,36 45.3,51.9 45.3,59.7 62.7,44.4 74.2,56.3 101.1,31.4 				"/>
				<polygon class="st5" points="93.1,24.4 108,19.5 103.1,35 				"/>
			</g>
		</g>
		<g>
			<defs>
				<path id="SVGID_8_" d="M224.6,0.1L0.1,0L0,164.6c75.2-24.1,149.9-22.9,224.6,0.1V0.1z"/>
			</defs>
			<clipPath id="SVGID_9_">
				<use xlink:href="#SVGID_8_"  style="overflow:visible;"/>
			</clipPath>
			<g class="st8">
				<polyline class="st5" points="194.5,20.8 182.4,9.6 173.6,17.5 166.4,10.7 155.6,21.3 155.6,17.7 166.2,7.1 173.6,14.1 
					182.5,6.6 196.1,19.7 194.5,20.8 				"/>
				<polygon class="st5" points="192.9,22.3 200.4,24.8 198,17 				"/>
			</g>
		</g>
		<g>
			<defs>
				<path id="SVGID_10_" d="M224.6,0.1L0.1,0L0,164.6c75.2-24.1,149.9-22.9,224.6,0.1V0.1z"/>
			</defs>
			<clipPath id="SVGID_11_">
				<use xlink:href="#SVGID_10_"  style="overflow:visible;"/>
			</clipPath>
			<g class="st9">
				<g>
					<path class="st10" d="M67.7,16.9c2.3,0,4.2,1.8,4.2,4.1s-2,4.1-4.3,4.1s-4.2-1.8-4.2-4.1S65.4,16.9,67.7,16.9z M65.8,33.9
						l11.9-16.7h2.7L68.5,33.9H65.8z M67.7,23c1,0,1.8-0.8,1.8-1.9s-0.8-1.9-1.8-1.9s-1.8,0.8-1.8,1.9S66.6,23,67.7,23z M78.4,25.8
						c2.3,0,4.2,1.8,4.2,4.1s-2,4.1-4.2,4.1c-2.3,0-4.2-1.8-4.2-4.1C74.2,27.6,76.1,25.8,78.4,25.8z M78.4,31.9c1,0,1.8-0.8,1.8-1.9
						s-0.8-1.9-1.8-1.9s-1.8,0.8-1.8,1.9S77.4,31.9,78.4,31.9z"/>
				</g>
			</g>
		</g>
		<g>
			<defs>
				<path id="SVGID_12_" d="M224.6,0.1L0.1,0L0,164.6c75.2-24.1,149.9-22.9,224.6,0.1V0.1z"/>
			</defs>
			<clipPath id="SVGID_13_">
				<use xlink:href="#SVGID_12_"  style="overflow:visible;"/>
			</clipPath>
			<g class="st11">
				<path class="st5" d="M202.8,59.6h-52.5V26.2h52.5V59.6z M152.5,57.4h48.2V28.3h-48.2V57.4z"/>
				<g>
					<rect x="151.4" y="27.3" class="st12" width="50.3" height="31.2"/>
				</g>
				<g>
					<g>
						<defs>
							<rect id="SVGID_14_" x="153.8" y="29.9" width="45.4" height="26.1"/>
						</defs>
						<defs>
							<rect id="SVGID_15_" x="153.8" y="29.9" width="45.4" height="26.1"/>
						</defs>
						<defs>
							<rect id="SVGID_16_" x="153.8" y="29.9" width="45.4" height="26.1"/>
						</defs>
						<defs>
							<rect id="SVGID_17_" x="153.8" y="29.9" width="45.4" height="26.1"/>
						</defs>
						<defs>
							<rect id="SVGID_18_" x="153.8" y="29.9" width="45.4" height="26.1"/>
						</defs>
						<clipPath id="SVGID_19_">
							<use xlink:href="#SVGID_14_"  style="overflow:visible;"/>
						</clipPath>
						<clipPath id="SVGID_20_" class="st13">
							<use xlink:href="#SVGID_15_"  style="overflow:visible;"/>
						</clipPath>
						<clipPath id="SVGID_21_" class="st14">
							<use xlink:href="#SVGID_16_"  style="overflow:visible;"/>
						</clipPath>
						<clipPath id="SVGID_22_" class="st15">
							<use xlink:href="#SVGID_17_"  style="overflow:visible;"/>
						</clipPath>
						<clipPath id="SVGID_23_" class="st16">
							<use xlink:href="#SVGID_18_"  style="overflow:visible;"/>
						</clipPath>
						<rect x="153.9" y="29.9" class="st17" width="45.4" height="26.1"/>
						<circle class="st18" cx="153.9" cy="29.8" r="3.2"/>
						<circle class="st18" cx="199.2" cy="29.9" r="3.2"/>
						<circle class="st18" cx="153.9" cy="56" r="3.2"/>
						<circle class="st18" cx="199.2" cy="56" r="3.2"/>
						<g class="st19">
							<rect id="SVGID_3_" x="153.8" y="29.9" class="st20" width="45.4" height="26.1"/>
						</g>
					</g>
					<g>
						<circle class="st5" cx="195.2" cy="43.6" r="1.2"/>
						<circle class="st5" cx="157.9" cy="43.6" r="1.2"/>
					</g>
					<g>
						<polygon class="st5" points="196.3,66.2 194.7,64.6 192.5,65.5 194,57.7 197.8,58.4 						"/>
						<polygon class="st5" points="198.5,66.2 200.1,64.6 202.3,65.5 200.9,57.7 197.1,58.4 						"/>
						<circle class="st5" cx="197.3" cy="55.3" r="4.6"/>
						<polygon class="st12" points="197.4,52.9 198.5,51.6 198.7,53.3 200.3,53 199.5,54.4 201,55.1 199.5,55.8 200.3,57.3 
							198.7,56.9 198.5,58.6 197.4,57.3 196.2,58.6 196.1,56.9 194.4,57.3 195.3,55.8 193.7,55.1 195.3,54.4 194.4,53 196.1,53.3 
							196.2,51.6 						"/>
					</g>
					<line class="st21" x1="161.8" y1="32.2" x2="191.3" y2="32.2"/>
					<line class="st21" x1="161.8" y1="34.5" x2="191.3" y2="34.5"/>
					<line class="st21" x1="161.8" y1="36.8" x2="191.3" y2="36.8"/>
					<line class="st21" x1="168" y1="39.1" x2="191.3" y2="39.1"/>
					<line class="st21" x1="168" y1="41.4" x2="191.3" y2="41.4"/>
					<line class="st21" x1="168" y1="43.6" x2="191.3" y2="43.6"/>
					<line class="st21" x1="168" y1="45.9" x2="191.3" y2="45.9"/>
					<line class="st21" x1="168" y1="48.2" x2="191.3" y2="48.2"/>
					<line class="st21" x1="161.8" y1="50.5" x2="191.3" y2="50.5"/>
					<line class="st21" x1="161.8" y1="52.8" x2="191.3" y2="52.8"/>
				</g>
			</g>
		</g>
	</g>
</g>
</svg>
