<?xml version="1.0" encoding="utf-8"?>
<!-- Generator: Adobe Illustrator 18.0.0, SVG Export Plug-In . SVG Version: 6.00 Build 0)  -->
<!DOCTYPE svg PUBLIC "-//W3C//DTD SVG 1.1//EN" "http://www.w3.org/Graphics/SVG/1.1/DTD/svg11.dtd">
<svg version="1.1" id="Layer_1" xmlns="http://www.w3.org/2000/svg" xmlns:xlink="http://www.w3.org/1999/xlink" x="0px" y="0px"
	 viewBox="0 0 76.3 58.7" enable-background="new 0 0 76.3 58.7" xml:space="preserve">
<g>
	<g>
		<circle fill="#007A6D" cx="12.9" cy="12.9" r="12.9"/>
		<g>
			<path fill="#FFFFFF" d="M9.1,14.4c0.1,1.5,1.2,2.7,2.9,2.7c1.5,0,2.7-1,2.7-2.6c0-1.8-1.3-2.7-2.8-2.7c-1,0-1.9,0.4-2.4,1L7,11.9
				l1.8-7.3h7.9V7h-6.1l-0.9,3.6c0.6-0.6,1.7-1,2.8-1c2.9,0,4.9,1.8,4.9,4.8c0,2.7-2.1,5-5.4,5c-3.1,0-5.2-2.1-5.4-4.3L9.1,14.4z"/>
		</g>
	</g>
	<g>
		<g>
			<g>
				<defs>
					<circle id="SVGID_1_" cx="36.6" cy="45.4" r="12"/>
				</defs>
				<clipPath id="SVGID_2_">
					<use xlink:href="#SVGID_1_"  overflow="visible"/>
				</clipPath>
				<circle clip-path="url(#SVGID_2_)" fill="#FFFFFF" cx="36.7" cy="45.8" r="12.9"/>
				<g id="_x38_raAOr_4_" clip-path="url(#SVGID_2_)">
					<g>
						<path fill="#2368B5" d="M69.5,33.4c0,0.6,0,1.2,0,1.8c-9,0-18,0-27,0c0,0.6,0,1.2,0,1.8c0,0,0.1,0.1,0.2,0.1
							c0.7,0,1.5,0,2.2,0c4.1,0,8.2,0,12.3,0c3.7,0,7.3,0,11,0c0.4,0,0.9,0,1.3,0c0,0.6,0,1.2,0,1.8c-9,0-18,0-27,0
							c0,0.1,0,0.2,0,0.3c0,0.5,0,0.9,0,1.3c0,0.2,0,0.3,0.3,0.3c1,0,2.1,0,3.1,0c7.8,0,15.5,0,23.3,0c0.1,0,0.2,0,0.3,0
							c0,0.6,0,1.1,0,1.7c-9,0-18,0-27,0c0,0.6,0,1.2,0,1.9c9,0,18,0,27,0c0,0.6,0,1.2,0,1.8c-15,0-29.9,0-44.9,0
							c0-4.2,0-8.5,0-12.7C39.6,33.4,54.6,33.4,69.5,33.4z M40.5,34.5c0.4,0.2,0.3,0.5,0.2,0.8c0.3-0.3,0.6-0.3,0.8,0
							c-0.2-0.3-0.1-0.6,0.2-0.8c-0.4,0-0.6-0.1-0.6-0.4C41,34.3,40.8,34.5,40.5,34.5z M30.6,35.3c-0.1,0.2-0.2,0.3-0.2,0.4
							c-0.1,0.1-0.2,0-0.4,0.1c0.4,0.2,0.4,0.5,0.2,0.8c0.3-0.3,0.6-0.3,0.9,0c-0.2-0.3-0.1-0.6,0.2-0.8
							C30.9,35.7,30.6,35.7,30.6,35.3z M27.5,35.3c-0.1,0.4-0.3,0.5-0.6,0.5c0.3,0.2,0.3,0.5,0.1,0.8c0.2-0.1,0.3-0.3,0.5-0.3
							c0.1,0,0.3,0.1,0.4,0.2c-0.2-0.3,0-0.5,0.3-0.7C27.7,35.7,27.7,35.7,27.5,35.3z M28.7,37.8c0.3-0.3,0.6-0.3,0.9,0
							c-0.2-0.3,0-0.6,0.2-0.8c-0.4,0.1-0.6-0.1-0.6-0.4C29,36.9,28.8,37,28.5,37C28.8,37.2,28.8,37.5,28.7,37.8z M25.5,37
							c0.3,0.3,0.3,0.3,0.2,0.8c0.1-0.1,0.3-0.2,0.4-0.3c0.1,0.1,0.3,0.2,0.4,0.3c-0.2-0.3,0-0.6,0.3-0.8c-0.3,0.1-0.6,0-0.6-0.4
							C26,36.9,25.8,37.1,25.5,37z M36,35.7c0.4,0.2,0.3,0.5,0.2,0.8c0.3-0.4,0.5-0.3,0.9,0c-0.3-0.4,0-0.6,0.2-0.8
							c-0.4,0.1-0.6-0.1-0.6-0.4C36.4,35.7,36.4,35.7,36,35.7z M39.6,37.9c-0.1,0.1-0.1,0.3-0.2,0.3c-0.1,0.1-0.2,0-0.4,0.1
							c0.3,0.2,0.4,0.4,0.2,0.7c0.2-0.1,0.3-0.2,0.4-0.2c0.1,0,0.3,0.1,0.4,0.2c0-0.2-0.1-0.3-0.1-0.4c0-0.1,0.2-0.2,0.3-0.4
							c-0.2,0-0.3,0-0.4,0C39.7,38.2,39.7,38,39.6,37.9z M27,38.3c0.3,0.2,0.3,0.4,0.2,0.7c0.3-0.2,0.6-0.3,0.9,0
							c-0.2-0.3,0-0.5,0.2-0.7c-0.3,0-0.6,0-0.6-0.4C27.5,38.2,27.3,38.4,27,38.3z M30,43.4c0.3,0.2,0.3,0.5,0.1,0.8
							c0.2-0.1,0.3-0.3,0.5-0.3c0.1,0,0.3,0.1,0.4,0.2c-0.2-0.3,0-0.6,0.2-0.8c-0.3,0.1-0.6,0-0.6-0.4C30.5,43.3,30.3,43.4,30,43.4z
							 M40.2,35.7c-0.3,0-0.6,0-0.7-0.4c-0.1,0.3-0.3,0.5-0.6,0.4c0.3,0.2,0.3,0.5,0.2,0.8c0.3-0.3,0.6-0.3,0.8,0
							C39.8,36.2,39.9,35.9,40.2,35.7z M38.7,39.6c-0.4,0.1-0.6-0.1-0.6-0.4c-0.1,0.3-0.3,0.5-0.6,0.4c0.3,0.2,0.3,0.5,0.2,0.8
							c0.3-0.3,0.5-0.3,0.8,0C38.3,40,38.4,39.7,38.7,39.6z M29.1,39.1c-0.1,0.3-0.3,0.5-0.6,0.4c0.3,0.2,0.3,0.4,0.2,0.7
							c0.3-0.3,0.6-0.3,0.9,0c-0.2-0.3,0-0.5,0.2-0.7C29.4,39.6,29.1,39.5,29.1,39.1z M29.1,34.1c-0.1,0.1-0.1,0.3-0.2,0.3
							c-0.1,0.1-0.2,0-0.4,0.1c0.4,0.2,0.3,0.5,0.3,0.7c0.1-0.1,0.3-0.2,0.4-0.3c0.1,0.1,0.3,0.2,0.4,0.3c-0.1-0.3-0.1-0.6,0.3-0.7
							C29.3,34.4,29.3,34.4,29.1,34.1z M37.7,42.9c0.3-0.3,0.6-0.3,0.8,0c-0.2-0.3-0.1-0.6,0.2-0.8c-0.4,0.1-0.6,0-0.6-0.5
							C38,41.8,38,42,37.9,42c-0.1,0.1-0.2,0-0.4,0.1C37.8,42.3,37.8,42.6,37.7,42.9z M31.5,44.7c0.3,0.2,0.3,0.5,0.2,0.8
							c0.3-0.3,0.6-0.3,0.9,0c-0.2-0.4-0.1-0.6,0.2-0.8c-0.3,0-0.6,0-0.6-0.4C32,44.5,31.9,44.7,31.5,44.7z M33.6,40.4
							c-0.1,0.3-0.3,0.5-0.6,0.4c0.3,0.2,0.3,0.4,0.2,0.7c0.3-0.2,0.6-0.3,0.9,0c-0.2-0.3,0-0.5,0.2-0.7
							C33.9,40.9,33.6,40.8,33.6,40.4z M41.7,37c-0.3,0-0.6-0.1-0.6-0.4c-0.1,0.3-0.3,0.5-0.6,0.4c0.1,0.2,0.2,0.2,0.3,0.4
							c0,0.1-0.1,0.3-0.1,0.4c0.3-0.2,0.6-0.3,0.9,0C41.3,37.4,41.4,37.2,41.7,37z M34,39c-0.2-0.3,0-0.5,0.2-0.7
							c-0.2,0-0.4,0-0.5,0c-0.1-0.1-0.1-0.2-0.2-0.4c0,0.4-0.2,0.5-0.6,0.5c0.3,0.2,0.3,0.4,0.2,0.7C33.4,38.8,33.7,38.7,34,39z
							 M32.5,42.9c-0.2-0.4,0-0.6,0.2-0.8c-0.4,0.1-0.6,0-0.6-0.4c-0.1,0.3-0.3,0.5-0.6,0.4c0.3,0.2,0.3,0.5,0.2,0.8
							C32,42.6,32.2,42.5,32.5,42.9z M25.7,40.3c0.3-0.2,0.5-0.3,0.8,0c-0.2-0.3,0-0.5,0.2-0.7c-0.4,0.1-0.6,0-0.7-0.4
							c0,0.4-0.3,0.5-0.6,0.4C25.7,39.8,25.8,40,25.7,40.3z M31.7,40.3c0.1-0.1,0.3-0.2,0.4-0.2c0.1,0,0.3,0.1,0.5,0.2
							c-0.3-0.4-0.1-0.5,0.2-0.7c-0.3,0-0.6,0-0.6-0.4c-0.1,0.3-0.3,0.5-0.6,0.4C31.8,39.8,31.8,40,31.7,40.3z M31.5,37
							c0.1,0.2,0.3,0.3,0.3,0.4c0,0.1,0,0.2-0.1,0.4c0.2-0.1,0.3-0.2,0.4-0.2c0.1,0,0.3,0.1,0.4,0.2c-0.2-0.3,0-0.5,0.3-0.7
							c-0.2,0-0.4,0-0.5,0c-0.1-0.1-0.1-0.2-0.2-0.4C32,36.9,31.9,37.1,31.5,37z M26.1,44.2c-0.1,0.3-0.3,0.5-0.6,0.4
							c0.3,0.2,0.3,0.4,0.2,0.7c0.3-0.2,0.6-0.3,0.9,0c-0.2-0.3,0-0.5,0.2-0.7C26.4,44.7,26.1,44.6,26.1,44.2z M39,40.8
							c0.3,0.2,0.3,0.5,0.2,0.8c0.3-0.3,0.6-0.3,0.8,0c-0.2-0.4,0-0.6,0.2-0.8c-0.3,0.1-0.6,0-0.6-0.4C39.5,40.7,39.3,40.9,39,40.8z
							 M33.1,36.5c0.3-0.3,0.6-0.3,0.9,0c-0.2-0.3-0.1-0.6,0.2-0.8c-0.3,0-0.6,0-0.6-0.4c-0.1,0.3-0.3,0.5-0.6,0.4
							C33.3,36,33.3,36.2,33.1,36.5z M39.6,42.9c-0.1,0.3-0.2,0.5-0.6,0.4c0.1,0.2,0.3,0.3,0.3,0.4c0,0.1,0,0.3-0.1,0.5
							c0.3-0.3,0.6-0.3,0.9-0.1c-0.2-0.3-0.1-0.6,0.3-0.8c-0.2,0-0.4,0-0.5,0C39.7,43.3,39.6,43.1,39.6,42.9z M33.2,44.1
							c0.1-0.1,0.3-0.2,0.4-0.2c0.1,0,0.3,0.1,0.4,0.2c-0.2-0.3,0-0.5,0.3-0.7c-0.2,0-0.4,0-0.5-0.1c-0.1-0.1-0.1-0.2-0.2-0.3
							c-0.1,0.3-0.3,0.4-0.6,0.4C33.3,43.6,33.3,43.8,33.2,44.1z M27.1,41.6c0.2-0.1,0.3-0.2,0.5-0.2c0.1,0,0.3,0.1,0.4,0.2
							c-0.2-0.3,0.1-0.5,0.3-0.7c-0.4,0.1-0.6-0.1-0.6-0.4c-0.1,0.3-0.3,0.5-0.6,0.4C27.3,41,27.3,41.3,27.1,41.6z M35.1,34
							c-0.1,0.3-0.2,0.5-0.6,0.4c0.3,0.2,0.3,0.5,0.2,0.7c0.1-0.1,0.3-0.2,0.4-0.3c0.1,0.1,0.3,0.2,0.4,0.3c-0.2-0.3,0-0.5,0.3-0.7
							C35.4,34.5,35.2,34.4,35.1,34z M35.8,37C35.7,37,35.7,37,35.8,37c-0.2-0.1-0.3,0-0.5-0.1c-0.1-0.1-0.1-0.2-0.2-0.3
							C35,36.9,34.8,37,34.5,37c0.3,0.2,0.3,0.4,0.2,0.8c0.3-0.3,0.5-0.3,0.8,0C35.3,37.4,35.5,37.2,35.8,37z M31.5,34.5
							c0.3,0.2,0.3,0.5,0.2,0.8c0.3-0.3,0.6-0.3,0.9,0c-0.2-0.3-0.1-0.6,0.2-0.8c-0.3,0.1-0.6,0-0.6-0.4
							C32,34.4,31.8,34.5,31.5,34.5z M40.5,44.6c0.3,0.2,0.3,0.5,0.2,0.8c0.3-0.3,0.5-0.3,0.8,0c-0.2-0.3-0.1-0.6,0.2-0.8
							c-0.3,0-0.6,0-0.6-0.4C41,44.5,40.8,44.7,40.5,44.6z M25.7,35.2c0.3-0.3,0.6-0.3,0.8,0c-0.2-0.3-0.1-0.6,0.2-0.8
							c-0.3,0-0.6,0-0.6-0.5c-0.1,0.2-0.1,0.3-0.2,0.4c-0.1,0.1-0.2,0-0.4,0.1C25.8,34.7,25.8,34.9,25.7,35.2z M31.2,38.3
							c-0.3,0-0.6,0-0.6-0.4c-0.1,0.3-0.3,0.5-0.6,0.4c0.3,0.2,0.3,0.4,0.2,0.7c0.3-0.2,0.6-0.3,0.9,0C30.8,38.7,31,38.5,31.2,38.3z
							 M30,40.8c0.3,0.2,0.3,0.4,0.1,0.8c0.2-0.1,0.3-0.2,0.5-0.2c0.1,0,0.3,0.1,0.4,0.2c0-0.1-0.1-0.3-0.1-0.4
							c0-0.1,0.2-0.2,0.3-0.3c0,0,0-0.1,0-0.1c-0.4,0.1-0.6,0-0.6-0.4C30.5,40.7,30.3,40.9,30,40.8z M38.5,45.5
							c0-0.2-0.1-0.4-0.1-0.5c0-0.1,0.2-0.2,0.3-0.3c0,0,0,0-0.1-0.1c-0.1,0-0.3,0-0.4,0c-0.1-0.1-0.1-0.2-0.2-0.4
							c-0.1,0.4-0.2,0.5-0.6,0.5c0.3,0.2,0.3,0.4,0.2,0.8C38,45.1,38.2,45.2,38.5,45.5z M40.7,40.3c0.3-0.4,0.6-0.3,0.9,0
							c0-0.2-0.1-0.4-0.1-0.5c0-0.1,0.2-0.2,0.3-0.3c0,0,0,0,0-0.1c-0.4,0.1-0.5,0-0.6-0.4c-0.1,0.3-0.3,0.5-0.6,0.4
							C40.8,39.8,40.8,40,40.7,40.3z M37.5,34.5c0.3,0.2,0.3,0.5,0.2,0.8c0.3-0.3,0.6-0.3,0.9,0c-0.2-0.3-0.1-0.6,0.2-0.8
							c-0.3,0.1-0.6,0-0.6-0.4C38,34.3,37.8,34.5,37.5,34.5z M37.6,37.8c0.2-0.1,0.3-0.3,0.4-0.3c0.1,0,0.3,0.1,0.4,0.2
							c0,0,0,0,0.1,0c-0.3-0.3-0.1-0.5,0.2-0.7c-0.3,0.1-0.6,0-0.6-0.4c-0.1,0.3-0.2,0.5-0.6,0.4c0.1,0.2,0.3,0.3,0.3,0.4
							C37.8,37.5,37.7,37.6,37.6,37.8z M35.1,41.7c-0.1,0.3-0.2,0.5-0.6,0.4c0.3,0.2,0.3,0.5,0.2,0.8c0.3-0.3,0.6-0.3,0.8,0
							c-0.2-0.3-0.1-0.6,0.2-0.8C35.4,42.1,35.2,42,35.1,41.7z M36,43.4c0.3,0.2,0.3,0.5,0.2,0.8c0.3-0.3,0.6-0.3,0.9,0
							c-0.2-0.3-0.1-0.6,0.2-0.8c-0.4,0.1-0.6-0.1-0.6-0.4C36.5,43.3,36.3,43.4,36,43.4z M37.3,38.3c-0.2,0-0.4,0-0.5,0
							c-0.1-0.1-0.1-0.2-0.2-0.4c-0.1,0.2-0.1,0.3-0.2,0.4c-0.1,0.1-0.2,0-0.4,0.1c0.3,0.2,0.4,0.4,0.2,0.7c0.3-0.3,0.5-0.3,0.8,0
							C36.8,38.6,37,38.5,37.3,38.3z M35.7,39.6c-0.3,0-0.6,0-0.6-0.5c-0.1,0.2-0.1,0.3-0.2,0.4c-0.1,0.1-0.2,0-0.5,0.1
							c0.3,0.2,0.4,0.4,0.2,0.7c0.3-0.3,0.5-0.3,0.8,0C35.3,39.9,35.5,39.7,35.7,39.6z M40.5,42.1c0.3,0.2,0.3,0.5,0.1,0.8
							c0.2-0.1,0.3-0.2,0.5-0.2c0.1,0,0.3,0.1,0.4,0.2c-0.2-0.3,0-0.5,0.2-0.8c-0.4,0.1-0.6-0.1-0.6-0.4C41,42,40.9,42.2,40.5,42.1z
							 M36.2,41.6c0.3-0.2,0.5-0.3,0.8,0c-0.2-0.3,0-0.5,0.2-0.7c-0.3,0-0.6,0-0.6-0.4c-0.1,0.3-0.3,0.5-0.6,0.4
							C36.2,41.2,36.2,41.2,36.2,41.6z M35.5,45.4c-0.2-0.3-0.1-0.6,0.2-0.8c-0.3,0-0.6,0-0.6-0.4c-0.3,0.4-0.3,0.4-0.7,0.5
							c0.4,0.2,0.3,0.4,0.2,0.7C35,45.1,35.2,45.1,35.5,45.4z M28.7,45.4c0.3-0.3,0.6-0.3,0.8,0c0-0.2-0.1-0.3,0-0.4
							c0-0.1,0.2-0.2,0.3-0.3c-0.3,0-0.6-0.1-0.6-0.5c-0.1,0.3-0.2,0.5-0.6,0.4C28.7,44.9,28.8,45.1,28.7,45.4z M26.7,42.1
							c-0.1,0-0.3,0-0.4,0c-0.1-0.1-0.1-0.2-0.2-0.4c-0.1,0.4-0.2,0.5-0.6,0.5c0.3,0.2,0.3,0.4,0.2,0.7c0.3-0.3,0.5-0.3,0.8,0
							C26.3,42.5,26.5,42.3,26.7,42.1z M29.7,42.1c-0.4,0.1-0.6-0.1-0.6-0.4c-0.1,0.3-0.3,0.5-0.6,0.4c0.1,0.2,0.3,0.3,0.3,0.4
							c0,0.1,0,0.2-0.1,0.4c0.3-0.2,0.5-0.2,0.8,0C29.3,42.5,29.5,42.3,29.7,42.1z M28.2,43.4c-0.3,0-0.6-0.1-0.6-0.4
							c-0.1,0.4-0.3,0.5-0.6,0.4c0.3,0.2,0.3,0.4,0.2,0.7c0.3-0.3,0.6-0.3,0.8,0C27.8,43.8,28,43.6,28.2,43.4z"/>
						<path fill="#2368B5" d="M69.5,55.3c0,0.6,0,1.2,0,1.8c-15,0-29.9,0-44.9,0c0-0.6,0-1.2,0-1.8C39.6,55.3,54.6,55.3,69.5,55.3z"
							/>
						<path fill="#2368B5" d="M24.6,53.4c0-0.6,0-1.2,0-1.8c15,0,29.9,0,45,0c0,0.3,0,0.6,0,0.9c0,0.3,0,0.6,0,0.9
							C54.6,53.4,39.6,53.4,24.6,53.4z"/>
						<path fill="#2368B5" d="M24.6,49.7c0-0.6,0-1.1,0-1.7c15,0,30,0,44.9,0c0,0.6,0,1.1,0,1.7C54.6,49.7,39.6,49.7,24.6,49.7z"/>
					</g>
				</g>
			</g>
			<g>
				<path fill="#0C56AB" d="M36.6,33.4c6.6,0,12,5.4,12,12s-5.4,12-12,12s-12-5.4-12-12S30,33.4,36.6,33.4 M36.6,32.5
					c-7.1,0-12.9,5.8-12.9,12.9s5.8,12.9,12.9,12.9s12.9-5.8,12.9-12.9S43.7,32.5,36.6,32.5L36.6,32.5z"/>
			</g>
		</g>
		<g>
			<circle fill="none" stroke="#FFFFFF" stroke-width="0.8787" stroke-miterlimit="10" cx="55" cy="23.7" r="19.8"/>
			<g>
				<defs>
					<circle id="SVGID_3_" cx="55" cy="23.7" r="19.6"/>
				</defs>
				<clipPath id="SVGID_4_">
					<use xlink:href="#SVGID_3_"  overflow="visible"/>
				</clipPath>
				<circle clip-path="url(#SVGID_4_)" fill="#FFFFFF" cx="55" cy="23.7" r="20.4"/>
			</g>
		</g>
		<polygon fill="#2368B5" points="57.8,21.9 63,21.9 63,25.4 57.1,25.4 57.1,27.7 63,27.7 63,31.3 57.1,31.3 57.1,36 52.9,36 
			52.9,31.3 47.1,31.3 47.1,27.7 52.9,27.7 52.9,25.4 47,25.4 47,21.9 51.7,21.9 46.2,11.3 50.5,11.3 55,19.9 59.5,11.3 63.9,11.3 
					"/>
		<g id="GUfQnu_2_">
		</g>
		<g>
			<g>
				<path fill="#0C56AB" d="M55,3.9c10.9,0,19.8,8.9,19.8,19.8S65.9,43.4,55,43.4c-10.9,0-19.8-8.9-19.8-19.8S44.1,3.9,55,3.9
					 M55,2.4c-11.7,0-21.2,9.5-21.2,21.2S43.3,44.9,55,44.9s21.2-9.5,21.2-21.2S66.7,2.4,55,2.4L55,2.4z"/>
			</g>
		</g>
	</g>
</g>
<g>
</g>
<g>
</g>
<g>
</g>
<g>
</g>
<g>
</g>
<g>
</g>
<g>
</g>
<g>
</g>
<g>
</g>
<g>
</g>
<g>
</g>
<g>
</g>
<g>
</g>
<g>
</g>
<g>
</g>
</svg>
