<?xml version="1.0" encoding="utf-8"?>
<!-- Generator: Adobe Illustrator 18.0.0, SVG Export Plug-In . SVG Version: 6.00 Build 0)  -->
<!DOCTYPE svg PUBLIC "-//W3C//DTD SVG 1.1//EN" "http://www.w3.org/Graphics/SVG/1.1/DTD/svg11.dtd">
<svg version="1.1" id="Layer_1" xmlns="http://www.w3.org/2000/svg" xmlns:xlink="http://www.w3.org/1999/xlink" x="0px" y="0px"
	 viewBox="0 0 159.3 160.6" enable-background="new 0 0 159.3 160.6" xml:space="preserve">
<g>
	<g>
		<rect x="0" y="156.6" fill="#573392" width="156.7" height="4"/>
		<polygon fill="#573392" points="140.5,158.6 136.5,158.6 136.5,110.1 48.6,110.1 48.6,99.7 20.2,99.7 20.2,158.6 16.2,158.6 
			16.2,95.7 52.6,95.7 52.6,106.1 140.5,106.1 		"/>
		<rect x="25.3" y="104.7" fill="#573392" width="4" height="4.5"/>
		<g>
			<rect x="25.3" y="116.9" fill="#573392" width="4" height="4.5"/>
			<rect x="36.6" y="116.9" fill="#573392" width="4" height="4.5"/>
			<rect x="47.9" y="116.9" fill="#573392" width="4" height="4.5"/>
			<rect x="59.2" y="116.9" fill="#573392" width="4" height="4.5"/>
			<rect x="70.5" y="116.9" fill="#573392" width="4" height="4.5"/>
			<rect x="81.8" y="116.9" fill="#573392" width="4" height="4.5"/>
			<rect x="93.1" y="116.9" fill="#573392" width="4" height="4.5"/>
			<rect x="104.4" y="116.9" fill="#573392" width="4" height="4.5"/>
			<rect x="115.7" y="116.9" fill="#573392" width="4" height="4.5"/>
			<rect x="127" y="116.9" fill="#573392" width="4" height="4.5"/>
		</g>
		<g>
			<rect x="25.3" y="126.4" fill="#573392" width="4" height="4.5"/>
			<rect x="36.6" y="126.4" fill="#573392" width="4" height="4.5"/>
			<rect x="47.9" y="126.4" fill="#573392" width="4" height="4.5"/>
			<rect x="59.2" y="126.4" fill="#573392" width="4" height="4.5"/>
			<rect x="70.5" y="126.4" fill="#573392" width="4" height="4.5"/>
			<rect x="81.8" y="126.4" fill="#573392" width="4" height="4.5"/>
			<rect x="93.1" y="126.4" fill="#573392" width="4" height="4.5"/>
			<rect x="104.4" y="126.4" fill="#573392" width="4" height="4.5"/>
			<rect x="115.7" y="126.4" fill="#573392" width="4" height="4.5"/>
			<rect x="127" y="126.4" fill="#573392" width="4" height="4.5"/>
		</g>
		<g>
			<rect x="25.3" y="135.9" fill="#573392" width="4" height="4.5"/>
			<rect x="36.6" y="135.9" fill="#573392" width="4" height="4.5"/>
			<rect x="47.9" y="135.9" fill="#573392" width="4" height="4.5"/>
			<rect x="59.2" y="135.9" fill="#573392" width="4" height="4.5"/>
			<rect x="70.5" y="135.9" fill="#573392" width="4" height="4.5"/>
			<rect x="81.8" y="135.9" fill="#573392" width="4" height="4.5"/>
			<rect x="93.1" y="135.9" fill="#573392" width="4" height="4.5"/>
			<rect x="104.4" y="135.9" fill="#573392" width="4" height="4.5"/>
			<rect x="115.7" y="135.9" fill="#573392" width="4" height="4.5"/>
			<rect x="127" y="135.9" fill="#573392" width="4" height="4.5"/>
		</g>
		<rect x="36" y="104.7" fill="#573392" width="4" height="4.5"/>
		<rect x="30.5" y="72.1" fill="#573392" width="4" height="25.2"/>
		<polyline fill="#573392" points="32.2,74.4 53.4,80.4 33.5,87.3 		"/>
	</g>
	<g>
		
			<rect x="77.9" y="89.1" transform="matrix(0.8925 0.4511 -0.4511 0.8925 49.0886 -25.6968)" fill="#573392" width="1" height="2"/>
		<path fill="#573392" d="M81.2,85.8l-0.9-0.5l1.8-3.6l0.9,0.5L81.2,85.8z M84.9,78.5L84,78.1l1.8-3.6l0.9,0.5L84.9,78.5z
			 M88.5,71.2l-0.9-0.5l1.8-3.6l0.9,0.5L88.5,71.2z M92.2,64l-0.9-0.5l1.8-3.6l0.9,0.5L92.2,64z M95.9,56.7L95,56.2l1.8-3.6l0.9,0.5
			L95.9,56.7z"/>
		<rect x="99" y="47.3" transform="matrix(0.8925 0.4511 -0.4511 0.8925 32.4829 -39.717)" fill="#573392" width="1" height="2"/>
	</g>
	<path fill="#573392" d="M88.5,95.1l-0.3-1l3.8-1.2l0.3,1L88.5,95.1z M96.2,92.7l-0.3-1l3.8-1.2l0.3,1L96.2,92.7z M103.8,90.4
		l-0.3-1l3.8-1.2l0.3,1L103.8,90.4z M111.5,88l-0.3-1l3.8-1.2l0.3,1L111.5,88z M119.1,85.6l-0.3-1l3.8-1.2l0.3,1L119.1,85.6z
		 M126.8,83.3l-0.3-1l3.8-1.2l0.3,1L126.8,83.3z M134.4,80.9l-0.3-1l3.8-1.2l0.3,1L134.4,80.9z"/>
	<path fill="#573392" d="M71.6,86.5l-1.3-3.8l0.9-0.3l1.3,3.8L71.6,86.5z M69,79l-1.3-3.8l0.9-0.3l1.3,3.8L69,79z M66.3,71.4
		L65,67.7l0.9-0.3l1.3,3.8L66.3,71.4z M63.7,63.9l-1.3-3.8l0.9-0.3l1.3,3.8L63.7,63.9z M61,56.3l-1.3-3.8l0.9-0.3L62,56L61,56.3z
		 M58.4,48.8L57,45l0.9-0.3l1.3,3.8L58.4,48.8z M55.7,41.2l-1.3-3.8l0.9-0.3l1.3,3.8L55.7,41.2z"/>
	<g>
		<path fill="#573392" d="M55.9,8.2c-1.2-1.1-2.2-1.7-3.6-1.7c-1.7,0-2.6,0.8-2.6,2.3c0,3.5,8.6,3,8.5,9.4c0,3.1-1.8,5.4-5,6l0,3.3
			l-2.8,0l0-3.2c-1.9-0.2-4.1-1.1-5.6-2.5l1.9-2.8c1.6,1.2,3,2,4.7,2c2,0,2.9-0.9,2.9-2.5c0-3.8-8.6-3.6-8.5-9.5
			c0-3.1,1.9-5.2,4.9-5.7l0-3.3l2.8,0l0,3.2c2,0.3,3.5,1.3,4.7,2.6L55.9,8.2z"/>
	</g>
	<g>
		<path fill="#573392" d="M112.5,20.2c-1.2-1.1-2.2-1.7-3.6-1.7c-1.7,0-2.6,0.8-2.6,2.3c0,3.5,8.6,3,8.5,9.4c0,3.1-1.8,5.4-5,6
			l0,3.3l-2.8,0l0-3.2c-1.9-0.2-4.1-1.1-5.6-2.5l1.9-2.8c1.6,1.2,3,2,4.7,2c2,0,2.9-0.9,2.9-2.5c0-3.8-8.6-3.6-8.5-9.5
			c0-3.1,1.9-5.2,4.9-5.7l0-3.3l2.8,0l0,3.2c2,0.3,3.5,1.3,4.7,2.6L112.5,20.2z"/>
	</g>
	<g>
		<path fill="#573392" d="M157,68.9c-1.2-1.1-2.2-1.7-3.6-1.7c-1.7,0-2.6,0.8-2.6,2.3c0,3.5,8.6,3,8.5,9.4c0,3.1-1.8,5.4-5,6l0,3.3
			l-2.8,0l0-3.2c-1.9-0.2-4.1-1.1-5.6-2.5l1.9-2.8c1.6,1.2,3,2,4.7,2c2,0,2.9-0.9,2.9-2.5c0-3.8-8.6-3.6-8.5-9.5
			c0-3.1,1.9-5.2,4.9-5.7l0-3.3l2.8,0l0,3.2c2,0.3,3.5,1.3,4.7,2.6L157,68.9z"/>
	</g>
	<polygon fill="#573392" points="52.7,40.6 51.7,40.5 52.8,32.7 59.2,37.3 58.6,38.1 53.6,34.5 	"/>
	<polygon fill="#573392" points="101.1,51.4 100.8,45.2 95.5,48.3 95,47.4 101.7,43.5 102.1,51.4 	"/>
	<polygon fill="#573392" points="137.7,83.4 137,82.7 141.3,78.2 135.4,76.5 135.6,75.5 143.2,77.7 	"/>
</g>
<g>
</g>
<g>
</g>
<g>
</g>
<g>
</g>
<g>
</g>
<g>
</g>
<g>
</g>
<g>
</g>
<g>
</g>
<g>
</g>
<g>
</g>
<g>
</g>
<g>
</g>
<g>
</g>
<g>
</g>
</svg>
