<?xml version="1.0" encoding="utf-8"?>
<!-- Generator: Adobe Illustrator 18.0.0, SVG Export Plug-In . SVG Version: 6.00 Build 0)  -->
<!DOCTYPE svg PUBLIC "-//W3C//DTD SVG 1.1//EN" "http://www.w3.org/Graphics/SVG/1.1/DTD/svg11.dtd">
<svg version="1.1" id="Layer_1" xmlns="http://www.w3.org/2000/svg" xmlns:xlink="http://www.w3.org/1999/xlink" x="0px" y="0px"
	 viewBox="0 0 51.9 346" enable-background="new 0 0 51.9 346" xml:space="preserve">
<g>
	<g>
		<g>
			<path fill="#7F3F98" d="M16.8,120.4v1.5H5.2v-1.5h4.9v-2.5H6.5v-1.5h3.7v-2.2H5.8v-1.5h5.1c-0.5-0.5-1.3-1.1-1.9-1.6l1.3-0.9
				c0.8,0.5,1.9,1.4,2.5,1.9l-0.7,0.5h4.1v1.5h-4.3v2.2h3.7v1.5h-3.7v2.5H16.8z"/>
			<path fill="#7F3F98" d="M16.7,128.6c0,0,0,0.5,0,0.7c-0.1,5.2-0.2,7.1-0.6,7.7c-0.3,0.4-0.6,0.6-1,0.6c-0.4,0.1-1,0.1-1.6,0.1
				c0-0.4-0.2-1-0.4-1.4c0.6,0.1,1.1,0.1,1.3,0.1c0.2,0,0.3,0,0.4-0.2c0.3-0.3,0.4-1.9,0.5-6H14c-0.2,3.5-0.7,6.1-2.9,7.9
				c-0.2-0.3-0.6-0.8-1-1.1c-1.8,0.2-3.6,0.4-5,0.5L5,136c0.7-0.1,1.6-0.1,2.6-0.2v-0.8H5.3V134h2.3v-0.5H5.4v-4h2.2V129H5v-1.1h2.5
				v-0.5c-0.8,0.1-1.5,0.1-2.2,0.1c0-0.3-0.2-0.8-0.3-1.1c1.9-0.1,4.1-0.3,5.6-0.7l0.7,1.1c-0.7,0.2-1.5,0.3-2.4,0.4v0.6h2.5v0.7
				h1.2c0-0.8,0-1.7,0-2.7h1.5c0,0.9,0,1.8,0,2.7H16.7z M6.6,131.1h1v-0.6h-1V131.1z M7.6,132.6V132h-1v0.6H7.6z M8.9,135.8
				c0.7-0.1,1.5-0.1,2.3-0.2c1-1.4,1.3-3.2,1.4-5.5h-1.2v-1H8.9v0.5h2.3v4H8.9v0.5h2.4v1.1H8.9V135.8z M10,131.1v-0.6h-1v0.6H10z
				 M8.9,132v0.6h1V132H8.9z"/>
			<path fill="#7F3F98" d="M13.2,144.8c0.3,3.8,1.1,6.7,2,6.7c0.3,0,0.4-0.7,0.5-2.3c0.3,0.4,0.9,0.7,1.3,0.9c-0.2,2.4-0.7,3-2,3
				c-2.2,0-3.2-3.8-3.5-8.3H5.2v-1.5h6.3c0-0.7,0-1.4,0-2.1h1.6c0,0.7,0,1.4,0,2.1h2c-0.3-0.4-1-1-1.5-1.4l1-0.8
				c0.6,0.4,1.3,1,1.7,1.4l-0.9,0.8h1.2v1.5H13.2z M9.2,150.6c0.8-0.1,1.6-0.3,2.4-0.5l0.1,1.4c-2.1,0.5-4.4,0.9-6,1.3l-0.4-1.5
				c0.7-0.1,1.5-0.2,2.4-0.4v-3.1H5.7v-1.5h5.5v1.5H9.2V150.6z"/>
			<path fill="#7F3F98" d="M8.1,163.8v3.1c0,0.7-0.1,1.1-0.6,1.3c-0.4,0.2-1,0.3-1.9,0.3c-0.1-0.4-0.2-1-0.4-1.4c0.5,0,1,0,1.2,0
				c0.2,0,0.2-0.1,0.2-0.2v-2.7l-1.3,0.3l-0.4-1.5c0.5-0.1,1.1-0.2,1.7-0.4v-2.3H5.1V159h1.5v-2.4h1.5v2.4h1.4v1.4H8.1v1.9l0.9-0.2
				l0.2,1.4L8.1,163.8z M16.2,162.5c-0.5,1.6-1.2,2.8-2.2,3.7c0.9,0.4,1.9,0.8,3,1c-0.3,0.3-0.7,1-1,1.4c-1.3-0.3-2.4-0.8-3.3-1.4
				c-1,0.6-2.2,1.1-3.5,1.4c-0.2-0.4-0.5-1.1-0.7-1.4c1.1-0.2,2.1-0.5,3-1c-0.7-0.7-1.3-1.5-1.8-2.5l0.5-0.2H9.4v-1.4H15l0.3-0.1
				L16.2,162.5z M9.8,162c-0.2-0.3-0.7-0.9-1-1.1c1.5-0.7,1.7-1.6,1.7-2.5V157H15v2.8c0,0.4,0,0.5,0.2,0.5h0.7c0.2,0,0.5,0,0.7-0.1
				c0,0.4,0.1,0.9,0.1,1.3c-0.2,0.1-0.5,0.1-0.8,0.1h-0.9c-1.3,0-1.5-0.5-1.5-1.8v-1.4l-1.7,0C11.9,159.7,11.5,161.2,9.8,162z
				 M11.1,163.6c0.4,0.7,0.9,1.3,1.6,1.8c0.6-0.5,1.1-1.1,1.5-1.8H11.1z"/>
			<path fill="#7F3F98" d="M13.1,174.3c0.7,0.7,2.1,1,3.8,1.1c-0.3,0.3-0.7,0.8-0.8,1.2c-1.4-0.2-2.6-0.6-3.4-1.3
				c-0.5,0.6-1.6,1.1-3.7,1.3c-0.1-0.2-0.3-0.6-0.5-0.8H5.1v-1.2H9v0.8c2.5-0.3,2.8-0.8,2.8-1.3v-0.2H11c-0.3,0.4-0.6,0.8-0.9,1.1
				c-0.2-0.2-0.8-0.6-1.1-0.8c0.7-0.6,1.2-1.4,1.5-2.3l1.3,0.3c-0.1,0.2-0.1,0.4-0.2,0.6h3.7l0.2-0.1l1,0.3c-0.3,0.7-0.8,1.5-1.2,2
				l-1.2-0.4c0.1-0.2,0.3-0.5,0.5-0.7h-1.4v0.3V174.3z M13.5,181.9c1.2,0.4,2.4,1,3.2,1.3l-1.4,0.8c-0.7-0.4-2.1-1.1-3.3-1.5
				l0.8-0.6H9.1l1.1,0.5c-1.1,0.7-2.7,1.3-4,1.7c-0.3-0.3-0.8-0.9-1.1-1.1c1.2-0.2,2.6-0.6,3.5-1.1H6.8v-5.2h8.6v5.2H13.5z
				 M8.7,173.8H5.4v-1.1h3.3V173.8z M8.2,178.1h5.6v-0.6H8.2V178.1z M8.2,179.6h5.6V179H8.2V179.6z M8.2,181h5.6v-0.6H8.2V181z"/>
		</g>
	</g>
	<path fill="#7F58A5" d="M6.5,18c-0.1,0-0.2-0.1-0.2-0.2v-7.4C6.3,4.7,11,0,16.8,0h35c0.1,0,0.2,0.1,0.2,0.2s-0.1,0.2-0.2,0.2h-35
		c-5.6,0-10.1,4.5-10.1,10.1v7.4C6.7,17.9,6.6,18,6.5,18z"/>
	<path fill="#7F58A5" d="M11.8,77.2c-0.1,0-0.2-0.1-0.2-0.2v-1.3c0-0.1,0.1-0.2,0.2-0.2s0.2,0.1,0.2,0.2V77
		C11.9,77.1,11.9,77.2,11.8,77.2z M11.8,74.7c-0.1,0-0.2-0.1-0.2-0.2v-1.3c0-0.1,0.1-0.2,0.2-0.2s0.2,0.1,0.2,0.2v1.3
		C11.9,74.6,11.9,74.7,11.8,74.7z M11.8,72.1c-0.1,0-0.2-0.1-0.2-0.2v-1.3c0-0.1,0.1-0.2,0.2-0.2s0.2,0.1,0.2,0.2V72
		C11.9,72.1,11.9,72.1,11.8,72.1z M11.8,69.6c-0.1,0-0.2-0.1-0.2-0.2v-1.3c0-0.1,0.1-0.2,0.2-0.2s0.2,0.1,0.2,0.2v1.3
		C11.9,69.5,11.9,69.6,11.8,69.6z M11.8,67c-0.1,0-0.2-0.1-0.2-0.2v-1.3c0-0.1,0.1-0.2,0.2-0.2s0.2,0.1,0.2,0.2v1.3
		C11.9,67,11.9,67,11.8,67z M11.8,64.5c-0.1,0-0.2-0.1-0.2-0.2v-1.3c0-0.1,0.1-0.2,0.2-0.2s0.2,0.1,0.2,0.2v1.3
		C11.9,64.4,11.9,64.5,11.8,64.5z M11.8,62c-0.1,0-0.2-0.1-0.2-0.2v-1.3c0-0.1,0.1-0.2,0.2-0.2s0.2,0.1,0.2,0.2v1.3
		C11.9,61.9,11.9,62,11.8,62z M11.8,59.4c-0.1,0-0.2-0.1-0.2-0.2V58c0-0.1,0.1-0.2,0.2-0.2s0.2,0.1,0.2,0.2v1.3
		C11.9,59.3,11.9,59.4,11.8,59.4z M11.8,56.9c-0.1,0-0.2-0.1-0.2-0.2v-1.3c0-0.1,0.1-0.2,0.2-0.2s0.2,0.1,0.2,0.2v1.3
		C11.9,56.8,11.9,56.9,11.8,56.9z M11.8,54.3c-0.1,0-0.2-0.1-0.2-0.2v-1.3c0-0.1,0.1-0.2,0.2-0.2s0.2,0.1,0.2,0.2v1.3
		C11.9,54.3,11.9,54.3,11.8,54.3z M11.8,51.8c-0.1,0-0.2-0.1-0.2-0.2v-1.3c0-0.1,0.1-0.2,0.2-0.2s0.2,0.1,0.2,0.2v1.3
		C11.9,51.7,11.9,51.8,11.8,51.8z M11.8,49.3c-0.1,0-0.2-0.1-0.2-0.2v-1.3c0-0.1,0.1-0.2,0.2-0.2s0.2,0.1,0.2,0.2v1.3
		C11.9,49.2,11.9,49.3,11.8,49.3z M11.8,46.7c-0.1,0-0.2-0.1-0.2-0.2v-1.3c0-0.1,0.1-0.2,0.2-0.2s0.2,0.1,0.2,0.2v1.3
		C11.9,46.6,11.9,46.7,11.8,46.7z M11.8,44.2c-0.1,0-0.2-0.1-0.2-0.2v-1.3c0-0.1,0.1-0.2,0.2-0.2s0.2,0.1,0.2,0.2V44
		C11.9,44.1,11.9,44.2,11.8,44.2z M11.8,41.6c-0.1,0-0.2-0.1-0.2-0.2v-1.3c0-0.1,0.1-0.2,0.2-0.2s0.2,0.1,0.2,0.2v1.3
		C11.9,41.6,11.9,41.6,11.8,41.6z M11.8,39.1c-0.1,0-0.2-0.1-0.2-0.2v-1.3c0-0.1,0.1-0.2,0.2-0.2s0.2,0.1,0.2,0.2v1.3
		C11.9,39,11.9,39.1,11.8,39.1z M11.8,36.6c-0.1,0-0.2-0.1-0.2-0.2v-1.3c0-0.1,0.1-0.2,0.2-0.2s0.2,0.1,0.2,0.2v1.3
		C11.9,36.5,11.9,36.6,11.8,36.6z M11.8,34c-0.1,0-0.2-0.1-0.2-0.2v-1.3c0-0.1,0.1-0.2,0.2-0.2s0.2,0.1,0.2,0.2v1.3
		C11.9,33.9,11.9,34,11.8,34z M11.8,31.5c-0.1,0-0.2-0.1-0.2-0.2V30c0-0.1,0.1-0.2,0.2-0.2s0.2,0.1,0.2,0.2v1.3
		C11.9,31.4,11.9,31.5,11.8,31.5z M11.8,28.9c-0.1,0-0.2-0.1-0.2-0.2v-1.3c0-0.1,0.1-0.2,0.2-0.2s0.2,0.1,0.2,0.2v1.3
		C11.9,28.9,11.9,28.9,11.8,28.9z M11.8,26.4c-0.1,0-0.2-0.1-0.2-0.2V25c0-0.1,0.1-0.2,0.2-0.2s0.2,0.1,0.2,0.2v1.3
		C11.9,26.3,11.9,26.4,11.8,26.4z M11.8,23.8c-0.1,0-0.2-0.1-0.2-0.2v-1.3c0-0.1,0.1-0.2,0.2-0.2s0.2,0.1,0.2,0.2v1.3
		C11.9,23.8,11.9,23.8,11.8,23.8z M11.8,21.3c-0.1,0-0.2-0.1-0.2-0.2v-1.3c0-0.1,0.1-0.2,0.2-0.2s0.2,0.1,0.2,0.2v1.3
		C11.9,21.2,11.9,21.3,11.8,21.3z M11.8,18.8c-0.1,0-0.2-0.1-0.2-0.2v-1.3c0-0.1,0.1-0.2,0.2-0.2s0.2,0.1,0.2,0.2v1.3
		C11.9,18.7,11.9,18.8,11.8,18.8z M11.8,16.2c-0.1,0-0.2-0.1-0.2-0.2v-1.3c0-0.1,0.1-0.2,0.2-0.2s0.2,0.1,0.2,0.2v1.3
		C11.9,16.2,11.9,16.2,11.8,16.2z M11.8,13.7c-0.1,0-0.2-0.1-0.2-0.2v-0.9c0-0.1,0-0.3,0-0.4c0-0.1,0.1-0.2,0.2-0.2
		c0.1,0,0.2,0.1,0.2,0.2c0,0.1,0,0.3,0,0.4v0.9C11.9,13.6,11.9,13.7,11.8,13.7z M12,11.2C12,11.2,11.9,11.2,12,11.2
		c-0.1,0-0.2-0.1-0.2-0.2c0.1-0.4,0.2-0.8,0.4-1.2c0-0.1,0.1-0.1,0.2-0.1c0.1,0,0.1,0.1,0.1,0.2c-0.1,0.4-0.3,0.8-0.4,1.2
		C12.1,11.1,12,11.2,12,11.2z M12.9,8.8C12.8,8.8,12.8,8.8,12.9,8.8c-0.2-0.1-0.2-0.2-0.1-0.2c0.2-0.4,0.5-0.7,0.7-1.1
		c0.1-0.1,0.2-0.1,0.2,0c0.1,0.1,0.1,0.2,0,0.2c-0.3,0.3-0.5,0.7-0.7,1C13,8.8,12.9,8.8,12.9,8.8z M14.5,6.8c0,0-0.1,0-0.1-0.1
		c-0.1-0.1-0.1-0.2,0-0.2c0.3-0.3,0.7-0.6,1-0.8c0.1,0,0.2,0,0.2,0c0,0.1,0,0.2,0,0.2c-0.3,0.2-0.7,0.5-1,0.8
		C14.5,6.8,14.5,6.8,14.5,6.8z M16.6,5.5c-0.1,0-0.1,0-0.1-0.1c0-0.1,0-0.2,0.1-0.2c0.4-0.2,0.8-0.3,1.2-0.4c0.1,0,0.2,0,0.2,0.1
		c0,0.1,0,0.2-0.1,0.2C17.4,5.1,17,5.3,16.6,5.5C16.6,5.5,16.6,5.5,16.6,5.5z M19,4.8c-0.1,0-0.1-0.1-0.2-0.1c0-0.1,0.1-0.2,0.1-0.2
		c0.3,0,0.5,0,0.8,0h0.5c0.1,0,0.2,0.1,0.2,0.2s-0.1,0.2-0.2,0.2h-0.5C19.6,4.8,19.3,4.8,19,4.8C19.1,4.8,19.1,4.8,19,4.8z
		 M38.1,4.8h-1.3c-0.1,0-0.2-0.1-0.2-0.2s0.1-0.2,0.2-0.2h1.3c0.1,0,0.2,0.1,0.2,0.2S38.2,4.8,38.1,4.8z M35.6,4.8h-1.3
		c-0.1,0-0.2-0.1-0.2-0.2s0.1-0.2,0.2-0.2h1.3c0.1,0,0.2,0.1,0.2,0.2S35.6,4.8,35.6,4.8z M33,4.8h-1.3c-0.1,0-0.2-0.1-0.2-0.2
		s0.1-0.2,0.2-0.2H33c0.1,0,0.2,0.1,0.2,0.2S33.1,4.8,33,4.8z M30.5,4.8h-1.3c-0.1,0-0.2-0.1-0.2-0.2s0.1-0.2,0.2-0.2h1.3
		c0.1,0,0.2,0.1,0.2,0.2S30.6,4.8,30.5,4.8z M27.9,4.8h-1.3c-0.1,0-0.2-0.1-0.2-0.2s0.1-0.2,0.2-0.2h1.3c0.1,0,0.2,0.1,0.2,0.2
		S28,4.8,27.9,4.8z M25.4,4.8h-1.3C24,4.8,24,4.7,24,4.6s0.1-0.2,0.2-0.2h1.3c0.1,0,0.2,0.1,0.2,0.2S25.5,4.8,25.4,4.8z M22.9,4.8
		h-1.3c-0.1,0-0.2-0.1-0.2-0.2s0.1-0.2,0.2-0.2h1.3c0.1,0,0.2,0.1,0.2,0.2S22.9,4.8,22.9,4.8z"/>
	<path fill="#7F58A5" d="M18,71.6c-0.1,0-0.2-0.1-0.2-0.2V23.9c0-0.1,0.1-0.2,0.2-0.2s0.2,0.1,0.2,0.2v47.5
		C18.2,71.5,18.1,71.6,18,71.6z"/>
	<path fill="#7F58A5" d="M18,241c-0.1,0-0.2-0.1-0.2-0.2v-51.2c0-0.1,0.1-0.2,0.2-0.2s0.2,0.1,0.2,0.2v51.2
		C18.2,240.9,18.1,241,18,241z"/>
	<path fill="#7F58A5" d="M6.5,100.8c-0.1,0-0.2-0.1-0.2-0.2V24.3c0-0.1,0.1-0.2,0.2-0.2c0.1,0,0.2,0.1,0.2,0.2v76.4
		C6.7,100.8,6.6,100.8,6.5,100.8z"/>
	<path fill="#7F58A5" d="M6,346c-0.1,0-0.2-0.1-0.2-0.2v-0.4c0-0.1,0.1-0.2,0.2-0.2c0.1,0,0.2,0.1,0.2,0.2v0.4
		C6.1,345.9,6.1,346,6,346z M6,344.4c-0.1,0-0.2-0.1-0.2-0.2v-1.3c0-0.1,0.1-0.2,0.2-0.2c0.1,0,0.2,0.1,0.2,0.2v1.3
		C6.1,344.3,6.1,344.4,6,344.4z M6,341.8c-0.1,0-0.2-0.1-0.2-0.2v-1.3c0-0.1,0.1-0.2,0.2-0.2c0.1,0,0.2,0.1,0.2,0.2v1.3
		C6.1,341.8,6.1,341.8,6,341.8z M6,339.3c-0.1,0-0.2-0.1-0.2-0.2v-1.3c0-0.1,0.1-0.2,0.2-0.2c0.1,0,0.2,0.1,0.2,0.2v1.3
		C6.1,339.2,6.1,339.3,6,339.3z M6,336.8c-0.1,0-0.2-0.1-0.2-0.2v-1.3c0-0.1,0.1-0.2,0.2-0.2c0.1,0,0.2,0.1,0.2,0.2v1.3
		C6.1,336.7,6.1,336.8,6,336.8z M6,334.2c-0.1,0-0.2-0.1-0.2-0.2v-1.3c0-0.1,0.1-0.2,0.2-0.2c0.1,0,0.2,0.1,0.2,0.2v1.3
		C6.1,334.1,6.1,334.2,6,334.2z M6,331.7c-0.1,0-0.2-0.1-0.2-0.2v-1.3c0-0.1,0.1-0.2,0.2-0.2c0.1,0,0.2,0.1,0.2,0.2v1.3
		C6.1,331.6,6.1,331.7,6,331.7z M6,329.1c-0.1,0-0.2-0.1-0.2-0.2v-1.3c0-0.1,0.1-0.2,0.2-0.2c0.1,0,0.2,0.1,0.2,0.2v1.3
		C6.1,329.1,6.1,329.1,6,329.1z M6,326.6c-0.1,0-0.2-0.1-0.2-0.2v-1.3c0-0.1,0.1-0.2,0.2-0.2c0.1,0,0.2,0.1,0.2,0.2v1.3
		C6.1,326.5,6.1,326.6,6,326.6z M6,324c-0.1,0-0.2-0.1-0.2-0.2v-1.3c0-0.1,0.1-0.2,0.2-0.2c0.1,0,0.2,0.1,0.2,0.2v1.3
		C6.1,324,6.1,324,6,324z M6,321.5c-0.1,0-0.2-0.1-0.2-0.2v-1.3c0-0.1,0.1-0.2,0.2-0.2c0.1,0,0.2,0.1,0.2,0.2v1.3
		C6.1,321.4,6.1,321.5,6,321.5z M6,319c-0.1,0-0.2-0.1-0.2-0.2v-1.3c0-0.1,0.1-0.2,0.2-0.2c0.1,0,0.2,0.1,0.2,0.2v1.3
		C6.1,318.9,6.1,319,6,319z M6,316.4c-0.1,0-0.2-0.1-0.2-0.2V315c0-0.1,0.1-0.2,0.2-0.2c0.1,0,0.2,0.1,0.2,0.2v1.3
		C6.1,316.4,6.1,316.4,6,316.4z M6,313.9c-0.1,0-0.2-0.1-0.2-0.2v-1.3c0-0.1,0.1-0.2,0.2-0.2c0.1,0,0.2,0.1,0.2,0.2v1.3
		C6.1,313.8,6.1,313.9,6,313.9z M6,311.3c-0.1,0-0.2-0.1-0.2-0.2v-1.3c0-0.1,0.1-0.2,0.2-0.2c0.1,0,0.2,0.1,0.2,0.2v1.3
		C6.1,311.3,6.1,311.3,6,311.3z M6,308.8c-0.1,0-0.2-0.1-0.2-0.2v-1.3c0-0.1,0.1-0.2,0.2-0.2c0.1,0,0.2,0.1,0.2,0.2v1.3
		C6.1,308.7,6.1,308.8,6,308.8z M6,306.3c-0.1,0-0.2-0.1-0.2-0.2v-1.3c0-0.1,0.1-0.2,0.2-0.2c0.1,0,0.2,0.1,0.2,0.2v1.3
		C6.1,306.2,6.1,306.3,6,306.3z M6,303.7c-0.1,0-0.2-0.1-0.2-0.2v-1.3c0-0.1,0.1-0.2,0.2-0.2c0.1,0,0.2,0.1,0.2,0.2v1.3
		C6.1,303.6,6.1,303.7,6,303.7z M6,301.2c-0.1,0-0.2-0.1-0.2-0.2v-1.3c0-0.1,0.1-0.2,0.2-0.2c0.1,0,0.2,0.1,0.2,0.2v1.3
		C6.1,301.1,6.1,301.2,6,301.2z M6,298.6c-0.1,0-0.2-0.1-0.2-0.2v-1.3c0-0.1,0.1-0.2,0.2-0.2c0.1,0,0.2,0.1,0.2,0.2v1.3
		C6.1,298.6,6.1,298.6,6,298.6z M6,296.1c-0.1,0-0.2-0.1-0.2-0.2v-1.3c0-0.1,0.1-0.2,0.2-0.2c0.1,0,0.2,0.1,0.2,0.2v1.3
		C6.1,296,6.1,296.1,6,296.1z M6,293.6c-0.1,0-0.2-0.1-0.2-0.2v-1.3c0-0.1,0.1-0.2,0.2-0.2c0.1,0,0.2,0.1,0.2,0.2v1.3
		C6.1,293.5,6.1,293.6,6,293.6z M6,291c-0.1,0-0.2-0.1-0.2-0.2v-1.3c0-0.1,0.1-0.2,0.2-0.2c0.1,0,0.2,0.1,0.2,0.2v1.3
		C6.1,290.9,6.1,291,6,291z M6,288.5c-0.1,0-0.2-0.1-0.2-0.2V287c0-0.1,0.1-0.2,0.2-0.2c0.1,0,0.2,0.1,0.2,0.2v1.3
		C6.1,288.4,6.1,288.5,6,288.5z M6,285.9c-0.1,0-0.2-0.1-0.2-0.2v-1.3c0-0.1,0.1-0.2,0.2-0.2c0.1,0,0.2,0.1,0.2,0.2v1.3
		C6.1,285.9,6.1,285.9,6,285.9z M6,283.4c-0.1,0-0.2-0.1-0.2-0.2V282c0-0.1,0.1-0.2,0.2-0.2c0.1,0,0.2,0.1,0.2,0.2v1.3
		C6.1,283.3,6.1,283.4,6,283.4z M6,280.9c-0.1,0-0.2-0.1-0.2-0.2v-1.3c0-0.1,0.1-0.2,0.2-0.2c0.1,0,0.2,0.1,0.2,0.2v1.3
		C6.1,280.8,6.1,280.9,6,280.9z M6,278.3c-0.1,0-0.2-0.1-0.2-0.2v-1.3c0-0.1,0.1-0.2,0.2-0.2c0.1,0,0.2,0.1,0.2,0.2v1.3
		C6.1,278.2,6.1,278.3,6,278.3z M6,275.8c-0.1,0-0.2-0.1-0.2-0.2v-1.3c0-0.1,0.1-0.2,0.2-0.2c0.1,0,0.2,0.1,0.2,0.2v1.3
		C6.1,275.7,6.1,275.8,6,275.8z M6,273.2c-0.1,0-0.2-0.1-0.2-0.2v-1.3c0-0.1,0.1-0.2,0.2-0.2c0.1,0,0.2,0.1,0.2,0.2v1.3
		C6.1,273.2,6.1,273.2,6,273.2z M6,270.7c-0.1,0-0.2-0.1-0.2-0.2v-1.3c0-0.1,0.1-0.2,0.2-0.2c0.1,0,0.2,0.1,0.2,0.2v1.3
		C6.1,270.6,6.1,270.7,6,270.7z M6,268.1c-0.1,0-0.2-0.1-0.2-0.2v-1.3c0-0.1,0.1-0.2,0.2-0.2c0.1,0,0.2,0.1,0.2,0.2v1.3
		C6.1,268.1,6.1,268.1,6,268.1z M6,265.6c-0.1,0-0.2-0.1-0.2-0.2v-1.3c0-0.1,0.1-0.2,0.2-0.2c0.1,0,0.2,0.1,0.2,0.2v1.3
		C6.1,265.5,6.1,265.6,6,265.6z M6,263.1c-0.1,0-0.2-0.1-0.2-0.2v-1.3c0-0.1,0.1-0.2,0.2-0.2c0.1,0,0.2,0.1,0.2,0.2v1.3
		C6.1,263,6.1,263.1,6,263.1z M6,260.5c-0.1,0-0.2-0.1-0.2-0.2v-1.3c0-0.1,0.1-0.2,0.2-0.2c0.1,0,0.2,0.1,0.2,0.2v1.3
		C6.1,260.5,6.1,260.5,6,260.5z M6,258c-0.1,0-0.2-0.1-0.2-0.2v-1.3c0-0.1,0.1-0.2,0.2-0.2c0.1,0,0.2,0.1,0.2,0.2v1.3
		C6.1,257.9,6.1,258,6,258z M6,255.4c-0.1,0-0.2-0.1-0.2-0.2V254c0-0.1,0.1-0.2,0.2-0.2c0.1,0,0.2,0.1,0.2,0.2v1.3
		C6.1,255.4,6.1,255.4,6,255.4z M6,252.9c-0.1,0-0.2-0.1-0.2-0.2v-1.3c0-0.1,0.1-0.2,0.2-0.2c0.1,0,0.2,0.1,0.2,0.2v1.3
		C6.1,252.8,6.1,252.9,6,252.9z M6,250.4c-0.1,0-0.2-0.1-0.2-0.2v-1.3c0-0.1,0.1-0.2,0.2-0.2c0.1,0,0.2,0.1,0.2,0.2v1.3
		C6.1,250.3,6.1,250.4,6,250.4z M6,247.8c-0.1,0-0.2-0.1-0.2-0.2v-1.3c0-0.1,0.1-0.2,0.2-0.2c0.1,0,0.2,0.1,0.2,0.2v1.3
		C6.1,247.7,6.1,247.8,6,247.8z M6,245.3c-0.1,0-0.2-0.1-0.2-0.2v-1.3c0-0.1,0.1-0.2,0.2-0.2c0.1,0,0.2,0.1,0.2,0.2v1.3
		C6.1,245.2,6.1,245.3,6,245.3z M6,242.7c-0.1,0-0.2-0.1-0.2-0.2v-1.3c0-0.1,0.1-0.2,0.2-0.2c0.1,0,0.2,0.1,0.2,0.2v1.3
		C6.1,242.7,6.1,242.7,6,242.7z M6,240.2c-0.1,0-0.2-0.1-0.2-0.2v-1.3c0-0.1,0.1-0.2,0.2-0.2c0.1,0,0.2,0.1,0.2,0.2v1.3
		C6.1,240.1,6.1,240.2,6,240.2z M6,237.7c-0.1,0-0.2-0.1-0.2-0.2v-1.3c0-0.1,0.1-0.2,0.2-0.2c0.1,0,0.2,0.1,0.2,0.2v1.3
		C6.1,237.6,6.1,237.7,6,237.7z M6,235.1c-0.1,0-0.2-0.1-0.2-0.2v-1.3c0-0.1,0.1-0.2,0.2-0.2c0.1,0,0.2,0.1,0.2,0.2v1.3
		C6.1,235,6.1,235.1,6,235.1z M6,232.6c-0.1,0-0.2-0.1-0.2-0.2v-1.3c0-0.1,0.1-0.2,0.2-0.2c0.1,0,0.2,0.1,0.2,0.2v1.3
		C6.1,232.5,6.1,232.6,6,232.6z M6,230c-0.1,0-0.2-0.1-0.2-0.2v-1.3c0-0.1,0.1-0.2,0.2-0.2c0.1,0,0.2,0.1,0.2,0.2v1.3
		C6.1,230,6.1,230,6,230z M6,227.5c-0.1,0-0.2-0.1-0.2-0.2v-1.3c0-0.1,0.1-0.2,0.2-0.2c0.1,0,0.2,0.1,0.2,0.2v1.3
		C6.1,227.4,6.1,227.5,6,227.5z M6,224.9c-0.1,0-0.2-0.1-0.2-0.2v-1.3c0-0.1,0.1-0.2,0.2-0.2c0.1,0,0.2,0.1,0.2,0.2v1.3
		C6.1,224.9,6.1,224.9,6,224.9z M6,222.4c-0.1,0-0.2-0.1-0.2-0.2V221c0-0.1,0.1-0.2,0.2-0.2c0.1,0,0.2,0.1,0.2,0.2v1.3
		C6.1,222.3,6.1,222.4,6,222.4z M6,219.9c-0.1,0-0.2-0.1-0.2-0.2v-24.5c0-0.1,0.1-0.2,0.2-0.2c0.1,0,0.2,0.1,0.2,0.2v24.5
		C6.1,219.8,6.1,219.9,6,219.9z M6,194.1c-0.1,0-0.2-0.1-0.2-0.2v-1.3c0-0.1,0.1-0.2,0.2-0.2c0.1,0,0.2,0.1,0.2,0.2v1.3
		C6.1,194,6.1,194.1,6,194.1z M6,191.5c-0.1,0-0.2-0.1-0.2-0.2v-1.3c0-0.1,0.1-0.2,0.2-0.2c0.1,0,0.2,0.1,0.2,0.2v1.3
		C6.1,191.5,6.1,191.5,6,191.5z"/>
	<path fill="#7F58A5" d="M11,310.7c-0.1,0-0.2-0.1-0.2-0.2V192.7c0-0.1,0.1-0.2,0.2-0.2s0.2,0.1,0.2,0.2v117.8
		C11.1,310.6,11.1,310.7,11,310.7z"/>
	<path fill="#7F58A5" d="M0.2,311.3c-0.1,0-0.2-0.1-0.2-0.2v-50.4c0-0.1,0.1-0.2,0.2-0.2s0.2,0.1,0.2,0.2v50.4
		C0.3,311.2,0.2,311.3,0.2,311.3z"/>
</g>
<g>
</g>
<g>
</g>
<g>
</g>
<g>
</g>
<g>
</g>
<g>
</g>
<g>
</g>
<g>
</g>
<g>
</g>
<g>
</g>
<g>
</g>
<g>
</g>
<g>
</g>
<g>
</g>
<g>
</g>
</svg>
