<?xml version="1.0" encoding="utf-8"?>
<!-- Generator: Adobe Illustrator 18.0.0, SVG Export Plug-In . SVG Version: 6.00 Build 0)  -->
<!DOCTYPE svg PUBLIC "-//W3C//DTD SVG 1.1//EN" "http://www.w3.org/Graphics/SVG/1.1/DTD/svg11.dtd">
<svg version="1.1" id="Layer_1" xmlns="http://www.w3.org/2000/svg" xmlns:xlink="http://www.w3.org/1999/xlink" x="0px" y="0px"
	 viewBox="0 0 194.8 155.2" enable-background="new 0 0 194.8 155.2" xml:space="preserve">
<g>
	<g>
		<rect x="85.9" y="0" fill="#7F58A5" width="0.3" height="5.2"/>
		
			<rect x="81" y="0.2" transform="matrix(0.9979 -6.413022e-002 6.413022e-002 0.9979 -9.303217e-003 5.2124)" fill="#7F58A5" width="0.3" height="5.2"/>
		
			<rect x="76.2" y="0.6" transform="matrix(0.9918 -0.1278 0.1278 0.9918 0.2159 9.7917)" fill="#7F58A5" width="0.3" height="5.2"/>
		
			<rect x="71.5" y="1.4" transform="matrix(0.9816 -0.1907 0.1907 0.9816 0.5582 13.746)" fill="#7F58A5" width="0.3" height="5.2"/>
		
			<rect x="66.9" y="2.4" transform="matrix(0.9676 -0.2525 0.2525 0.9676 0.9062 17.1016)" fill="#7F58A5" width="0.3" height="5.2"/>
		
			<rect x="62.4" y="3.8" transform="matrix(0.9498 -0.3129 0.3129 0.9498 1.1571 19.9011)" fill="#7F58A5" width="0.3" height="5.2"/>
		
			<rect x="58.1" y="5.3" transform="matrix(0.9284 -0.3716 0.3716 0.9284 1.2189 22.2011)" fill="#7F58A5" width="0.3" height="5.2"/>
		
			<rect x="53.8" y="7.2" transform="matrix(0.9036 -0.4284 0.4284 0.9036 1.0111 24.0698)" fill="#7F58A5" width="0.3" height="5.2"/>
		
			<rect x="49.7" y="9.3" transform="matrix(0.8755 -0.4832 0.4832 0.8755 0.4658 25.5851)" fill="#7F58A5" width="0.3" height="5.2"/>
		
			<rect x="45.8" y="11.6" transform="matrix(0.8443 -0.5359 0.5359 0.8443 -0.4718 26.8317)" fill="#7F58A5" width="0.3" height="5.2"/>
		
			<rect x="42" y="14.2" transform="matrix(0.8101 -0.5863 0.5863 0.8101 -1.844 27.9002)" fill="#7F58A5" width="0.3" height="5.2"/>
		<rect x="38.4" y="17" transform="matrix(0.7731 -0.6343 0.6343 0.7731 -3.68 28.8848)" fill="#7F58A5" width="0.3" height="5.2"/>
		
			<rect x="34.9" y="20" transform="matrix(0.7333 -0.6799 0.6799 0.7333 -5.9968 29.8823)" fill="#7F58A5" width="0.3" height="5.2"/>
		
			<rect x="31.7" y="23.2" transform="matrix(0.6909 -0.7229 0.7229 0.6909 -8.799 30.9911)" fill="#7F58A5" width="0.3" height="5.2"/>
		
			<rect x="28.6" y="26.6" transform="matrix(0.6459 -0.7634 0.7634 0.6459 -12.0793 32.31)" fill="#7F58A5" width="0.3" height="5.2"/>
		
			<rect x="25.8" y="30.2" transform="matrix(0.5985 -0.8011 0.8011 0.5985 -15.8184 33.9373)" fill="#7F58A5" width="0.3" height="5.2"/>
		
			<rect x="23.2" y="33.9" transform="matrix(0.5487 -0.836 0.836 0.5487 -19.9848 35.9703)" fill="#7F58A5" width="0.3" height="5.2"/>
		
			<rect x="20.8" y="37.8" transform="matrix(0.4966 -0.868 0.868 0.4966 -24.5351 38.5036)" fill="#7F58A5" width="0.3" height="5.2"/>
		
			<rect x="18.6" y="41.9" transform="matrix(0.4423 -0.8969 0.8969 0.4423 -29.413 41.6285)" fill="#7F58A5" width="0.3" height="5.2"/>
		
			<rect x="16.7" y="46.1" transform="matrix(0.386 -0.9225 0.9225 0.386 -34.5501 45.4313)" fill="#7F58A5" width="0.3" height="5.2"/>
		
			<rect x="15" y="50.4" transform="matrix(0.3277 -0.9448 0.9448 0.3277 -39.8653 49.9916)" fill="#7F58A5" width="0.3" height="5.2"/>
		
			<rect x="13.6" y="54.9" transform="matrix(0.2678 -0.9635 0.9635 0.2678 -45.265 55.3806)" fill="#7F58A5" width="0.3" height="5.2"/>
		
			<rect x="12.5" y="59.5" transform="matrix(0.2063 -0.9785 0.9785 0.2063 -50.6441 61.6586)" fill="#7F58A5" width="0.3" height="5.2"/>
		
			<rect x="11.7" y="64.1" transform="matrix(0.1436 -0.9896 0.9896 0.1436 -55.8867 68.8729)" fill="#7F58A5" width="0.3" height="5.2"/>
		
			<rect x="11.2" y="68.9" transform="matrix(8.011147e-002 -0.9968 0.9968 8.011147e-002 -60.868 77.0559)" fill="#7F58A5" width="0.3" height="5.2"/>
		
			<rect x="10.9" y="73.8" transform="matrix(1.605092e-002 -0.9999 0.9999 1.605092e-002 -65.4563 86.2227)" fill="#7F58A5" width="0.3" height="5.2"/>
		
			<rect x="11" y="78.7" transform="matrix(-4.812234e-002 -0.9988 0.9988 -4.812234e-002 -69.4765 96.3238)" fill="#7F58A5" width="0.3" height="5.2"/>
		
			<rect x="11.4" y="83.5" transform="matrix(-0.112 -0.9937 0.9937 -0.112 -72.7078 107.201)" fill="#7F58A5" width="0.3" height="5.2"/>
		
			<rect x="12.1" y="88.2" transform="matrix(-0.1751 -0.9845 0.9845 -0.1751 -75.0411 118.7656)" fill="#7F58A5" width="0.3" height="5.2"/>
		
			<rect x="13" y="92.9" transform="matrix(-0.2372 -0.9715 0.9715 -0.2372 -76.3839 130.9213)" fill="#7F58A5" width="0.3" height="5.2"/>
		
			<rect x="14.3" y="97.4" transform="matrix(-0.2979 -0.9546 0.9546 -0.2979 -76.6562 143.5627)" fill="#7F58A5" width="0.3" height="5.2"/>
		
			<rect x="15.8" y="101.8" transform="matrix(-0.3571 -0.9341 0.9341 -0.3571 -75.7901 156.5769)" fill="#7F58A5" width="0.3" height="5.2"/>
		
			<rect x="17.6" y="106" transform="matrix(-0.4144 -0.9101 0.9101 -0.4144 -73.731 169.846)" fill="#7F58A5" width="0.3" height="5.2"/>
		
			<rect x="19.7" y="110.2" transform="matrix(-0.4697 -0.8828 0.8828 -0.4697 -70.4358 183.2483)" fill="#7F58A5" width="0.3" height="5.2"/>
		
			<rect x="21.9" y="114.2" transform="matrix(-0.5229 -0.8524 0.8524 -0.5229 -65.8729 196.6596)" fill="#7F58A5" width="0.3" height="5.2"/>
		
			<rect x="24.5" y="118" transform="matrix(-0.5739 -0.8189 0.8189 -0.5739 -60.0216 209.9538)" fill="#7F58A5" width="0.3" height="5.2"/>
		
			<rect x="27.2" y="121.7" transform="matrix(-0.6225 -0.7826 0.7826 -0.6225 -52.8715 223.0037)" fill="#7F58A5" width="0.3" height="5.2"/>
		
			<rect x="30.1" y="125.1" transform="matrix(-0.6687 -0.7435 0.7435 -0.6687 -44.4221 235.6804)" fill="#7F58A5" width="0.3" height="5.2"/>
		
			<rect x="33.3" y="128.4" transform="matrix(-0.7124 -0.7017 0.7017 -0.7124 -34.6829 247.8541)" fill="#7F58A5" width="0.3" height="5.2"/>
		
			<rect x="36.6" y="131.5" transform="matrix(-0.7535 -0.6574 0.6574 -0.7535 -23.6737 259.3936)" fill="#7F58A5" width="0.3" height="5.2"/>
		
			<rect x="40.2" y="134.4" transform="matrix(-0.7919 -0.6106 0.6106 -0.7919 -11.4256 270.1668)" fill="#7F58A5" width="0.3" height="5.2"/>
		
			<rect x="43.9" y="137.1" transform="matrix(-0.8276 -0.5614 0.5614 -0.8276 2.0187 280.0404)" fill="#7F58A5" width="0.3" height="5.2"/>
		
			<rect x="47.7" y="139.6" transform="matrix(-0.8603 -0.5098 0.5098 -0.8603 16.6033 288.8812)" fill="#7F58A5" width="0.3" height="5.2"/>
		
			<rect x="51.8" y="141.8" transform="matrix(-0.8899 -0.4561 0.4561 -0.8899 32.2573 296.5569)" fill="#7F58A5" width="0.3" height="5.2"/>
		
			<rect x="55.9" y="143.8" transform="matrix(-0.9164 -0.4002 0.4002 -0.9164 48.8946 302.9374)" fill="#7F58A5" width="0.3" height="5.2"/>
		
			<rect x="60.2" y="145.5" transform="matrix(-0.9395 -0.3425 0.3425 -0.9395 66.4114 307.8975)" fill="#7F58A5" width="0.3" height="5.2"/>
		
			<rect x="64.7" y="147" transform="matrix(-0.9592 -0.2829 0.2829 -0.9592 84.6862 311.3195)" fill="#7F58A5" width="0.3" height="5.2"/>
		
			<rect x="69.2" y="148.1" transform="matrix(-0.9751 -0.2218 0.2218 -0.9751 103.5789 313.0962)" fill="#7F58A5" width="0.3" height="5.2"/>
		
			<rect x="73.9" y="149" transform="matrix(-0.9872 -0.1594 0.1594 -0.9872 122.9316 313.1352)" fill="#7F58A5" width="0.3" height="5.2"/>
		
			<rect x="78.6" y="149.7" transform="matrix(-0.9954 -9.605966e-002 9.605966e-002 -0.9954 142.5697 311.3624)" fill="#7F58A5" width="0.3" height="5.2"/>
		
			<rect x="83.5" y="150" transform="matrix(-0.9995 -3.209389e-002 3.209389e-002 -0.9995 162.3047 307.7257)" fill="#7F58A5" width="0.3" height="5.2"/>
		
			<rect x="88.4" y="150" transform="matrix(-0.9995 3.209365e-002 -3.209365e-002 -0.9995 181.9 302.2009)" fill="#7F58A5" width="0.3" height="5.2"/>
		
			<rect x="93.2" y="149.7" transform="matrix(-0.9954 9.605966e-002 -9.605966e-002 -0.9954 200.9276 294.8261)" fill="#7F58A5" width="0.3" height="5.2"/>
		
			<rect x="98" y="149" transform="matrix(-0.9872 0.1594 -0.1594 -0.9872 219.1605 285.6935)" fill="#7F58A5" width="0.3" height="5.2"/>
		
			<rect x="102.6" y="148.1" transform="matrix(-0.9751 0.2218 -0.2218 -0.9751 236.4271 274.9159)" fill="#7F58A5" width="0.3" height="5.2"/>
		
			<rect x="107.2" y="147" transform="matrix(-0.9592 0.2829 -0.2829 -0.9592 252.5753 262.6207)" fill="#7F58A5" width="0.3" height="5.2"/>
		
			<rect x="111.6" y="145.5" transform="matrix(-0.9395 0.3425 -0.3425 -0.9395 267.4733 248.9458)" fill="#7F58A5" width="0.3" height="5.2"/>
		
			<rect x="115.9" y="143.8" transform="matrix(-0.9164 0.4002 -0.4002 -0.9164 281.0088 234.0365)" fill="#7F58A5" width="0.3" height="5.2"/>
		
			<rect x="120.1" y="141.8" transform="matrix(-0.8899 0.4561 -0.4561 -0.8899 293.0883 218.042)" fill="#7F58A5" width="0.3" height="5.2"/>
		
			<rect x="124.1" y="139.6" transform="matrix(-0.8603 0.5098 -0.5098 -0.8603 303.6354 201.113)" fill="#7F58A5" width="0.3" height="5.2"/>
		
			<rect x="128" y="137.1" transform="matrix(-0.8276 0.5614 -0.5614 -0.8276 312.5891 183.4003)" fill="#7F58A5" width="0.3" height="5.2"/>
		
			<rect x="131.7" y="134.4" transform="matrix(-0.7919 0.6106 -0.6106 -0.7919 319.9016 165.0536)" fill="#7F58A5" width="0.3" height="5.2"/>
		
			<rect x="135.2" y="131.5" transform="matrix(-0.7535 0.6574 -0.6574 -0.7535 325.5375 146.2213)" fill="#7F58A5" width="0.3" height="5.2"/>
		
			<rect x="138.5" y="128.4" transform="matrix(-0.7124 0.7017 -0.7017 -0.7124 329.4717 127.051)" fill="#7F58A5" width="0.3" height="5.2"/>
		
			<rect x="141.7" y="125.1" transform="matrix(-0.6687 0.7435 -0.7435 -0.6687 331.6895 107.6894)" fill="#7F58A5" width="0.3" height="5.2"/>
		
			<rect x="144.6" y="121.7" transform="matrix(-0.6225 0.7826 -0.7826 -0.6225 332.1857 88.2832)" fill="#7F58A5" width="0.3" height="5.2"/>
		
			<rect x="147.4" y="118" transform="matrix(-0.5739 0.8189 -0.8189 -0.5739 330.9648 68.9796)" fill="#7F58A5" width="0.3" height="5.2"/>
		
			<rect x="149.9" y="114.2" transform="matrix(-0.5229 0.8524 -0.8524 -0.5229 328.0423 49.9272)" fill="#7F58A5" width="0.3" height="5.2"/>
		
			<rect x="152.2" y="110.2" transform="matrix(-0.4697 0.8828 -0.8828 -0.4697 323.4454 31.2757)" fill="#7F58A5" width="0.3" height="5.2"/>
		
			<rect x="154.2" y="106" transform="matrix(-0.4144 0.9101 -0.9101 -0.4144 317.2146 13.1758)" fill="#7F58A5" width="0.3" height="5.2"/>
		
			<rect x="156" y="101.8" transform="matrix(-0.3571 0.9341 -0.9341 -0.3571 309.4057 -4.2213)" fill="#7F58A5" width="0.3" height="5.2"/>
		
			<rect x="157.5" y="97.4" transform="matrix(-0.2979 0.9546 -0.9546 -0.2979 300.0914 -20.7661)" fill="#7F58A5" width="0.3" height="5.2"/>
		
			<rect x="158.8" y="92.9" transform="matrix(-0.2372 0.9715 -0.9715 -0.2372 289.3631 -36.3126)" fill="#7F58A5" width="0.3" height="5.2"/>
		
			<rect x="159.8" y="88.2" transform="matrix(-0.1751 0.9845 -0.9845 -0.1751 277.332 -50.7213)" fill="#7F58A5" width="0.3" height="5.2"/>
		
			<rect x="160.4" y="83.5" transform="matrix(-0.112 0.9937 -0.9937 -0.112 264.1296 -63.8632)" fill="#7F58A5" width="0.3" height="5.2"/>
		
			<rect x="160.8" y="78.7" transform="matrix(-4.812245e-002 0.9988 -0.9988 -4.812245e-002 249.9074 -75.6235)" fill="#7F58A5" width="0.3" height="5.2"/>
		
			<rect x="160.9" y="73.8" transform="matrix(1.605080e-002 0.9999 -0.9999 1.605080e-002 234.84 -85.9019)" fill="#7F58A5" width="0.3" height="5.2"/>
		
			<rect x="160.7" y="68.9" transform="matrix(8.011135e-002 0.9968 -0.9968 8.011135e-002 219.2237 -94.5375)" fill="#7F58A5" width="0.3" height="5.2"/>
		
			<rect x="160.1" y="64.1" transform="matrix(0.1436 0.9896 -0.9896 0.1436 203.3047 -101.4884)" fill="#7F58A5" width="0.3" height="5.2"/>
		
			<rect x="159.3" y="59.5" transform="matrix(0.2063 0.9785 -0.9785 0.2063 187.2766 -106.785)" fill="#7F58A5" width="0.3" height="5.2"/>
		
			<rect x="158.2" y="54.9" transform="matrix(0.2678 0.9635 -0.9635 0.2678 171.3193 -110.4807)" fill="#7F58A5" width="0.3" height="5.2"/>
		
			<rect x="156.8" y="50.4" transform="matrix(0.3277 0.9448 -0.9448 0.3277 155.5964 -112.6484)" fill="#7F58A5" width="0.3" height="5.2"/>
		
			<rect x="155.1" y="46.1" transform="matrix(0.386 0.9225 -0.9225 0.386 140.253 -113.3758)" fill="#7F58A5" width="0.3" height="5.2"/>
		
			<rect x="153.2" y="41.9" transform="matrix(0.4423 0.8969 -0.8969 0.4423 125.4154 -112.7623)" fill="#7F58A5" width="0.3" height="5.2"/>
		
			<rect x="151.1" y="37.8" transform="matrix(0.4966 0.868 -0.868 0.4966 111.1918 -110.9151)" fill="#7F58A5" width="0.3" height="5.2"/>
		
			<rect x="148.7" y="33.9" transform="matrix(0.5487 0.836 -0.836 0.5487 97.6726 -107.9464)" fill="#7F58A5" width="0.3" height="5.2"/>
		
			<rect x="146" y="30.2" transform="matrix(0.5985 0.8011 -0.8011 0.5985 84.9318 -103.9707)" fill="#7F58A5" width="0.3" height="5.2"/>
		
			<rect x="143.2" y="26.6" transform="matrix(0.6459 0.7634 -0.7634 0.6459 73.0288 -99.1041)" fill="#7F58A5" width="0.3" height="5.2"/>
		
			<rect x="140.1" y="23.2" transform="matrix(0.6909 0.7229 -0.7229 0.6909 62.0093 -93.4622)" fill="#7F58A5" width="0.3" height="5.2"/>
		
			<rect x="136.9" y="20" transform="matrix(0.7333 0.6799 -0.6799 0.7333 51.9071 -87.1599)" fill="#7F58A5" width="0.3" height="5.2"/>
		
			<rect x="133.5" y="17" transform="matrix(0.7731 0.6343 -0.6343 0.7731 42.7446 -80.3107)" fill="#7F58A5" width="0.3" height="5.2"/>
		
			<rect x="129.8" y="14.2" transform="matrix(0.8101 0.5863 -0.5863 0.8101 34.5342 -73.0274)" fill="#7F58A5" width="0.3" height="5.2"/>
		
			<rect x="126.1" y="11.6" transform="matrix(0.8443 0.5359 -0.5359 0.8443 27.278 -65.4214)" fill="#7F58A5" width="0.3" height="5.2"/>
		
			<rect x="122.1" y="9.3" transform="matrix(0.8755 0.4832 -0.4832 0.8755 20.9685 -57.603)" fill="#7F58A5" width="0.3" height="5.2"/>
		
			<rect x="118" y="7.2" transform="matrix(0.9036 0.4284 -0.4284 0.9036 15.5875 -49.6817)" fill="#7F58A5" width="0.3" height="5.2"/>
		
			<rect x="113.8" y="5.3" transform="matrix(0.9284 0.3716 -0.3716 0.9284 11.1067 -41.7653)" fill="#7F58A5" width="0.3" height="5.2"/>
		
			<rect x="109.4" y="3.8" transform="matrix(0.9498 0.3129 -0.3129 0.9498 7.4858 -33.96)" fill="#7F58A5" width="0.3" height="5.2"/>
		
			<rect x="104.9" y="2.4" transform="matrix(0.9676 0.2525 -0.2525 0.9676 4.6727 -26.3685)" fill="#7F58A5" width="0.3" height="5.2"/>
		
			<rect x="100.3" y="1.4" transform="matrix(0.9816 0.1907 -0.1907 0.9816 2.6024 -19.0893)" fill="#7F58A5" width="0.3" height="5.2"/>
		
			<rect x="95.6" y="0.6" transform="matrix(0.9918 0.1278 -0.1278 0.9918 1.1965 -12.2145)" fill="#7F58A5" width="0.3" height="5.2"/>
		
			<rect x="90.8" y="0.2" transform="matrix(0.9979 6.413035e-002 -6.413035e-002 0.9979 0.3637 -5.8274)" fill="#7F58A5" width="0.3" height="5.2"/>
		<rect x="85.9" y="0" fill="#7F58A5" width="0.3" height="5.2"/>
	</g>
	<path fill="#7F58A5" d="M86.1,9.5c-37.5,0-68,30.4-68,68s30.4,68,68,68s68-30.4,68-68S123.6,9.5,86.1,9.5z M86.1,143.7
		c-36.6,0-66.3-29.7-66.3-66.3c0-36.6,29.7-66.3,66.3-66.3s66.3,29.7,66.3,66.3C152.3,114,122.7,143.7,86.1,143.7z"/>
	<g>
		<g>
			<path fill="#573392" d="M27.1,53.8C27.1,53.8,27.1,53.8,27.1,53.8c-0.1,0.1-0.1,0.3-0.2,0.4C27.2,54,27.2,54,27.1,53.8z"/>
			<path fill="#573392" d="M112.5,55.5c0.3,0.1,0.8,0,0.8-0.3c0-0.1-0.2-0.4-0.3-0.7c-0.3-0.4-0.4-0.5-0.7-0.3
				c-0.2,0.1-0.3,0.1-0.3,0c0-0.1-0.3-0.3-0.7-0.5c-0.8-0.4-1.1-0.9-0.8-1.3c0.2-0.4,0.9-0.6,1.2-0.4c0.4,0.2,0.5-0.1,0.2-0.6
				c-0.8-1.1-1.9-1-3.3,0.2c-0.9,0.8-1,1-0.5,1.3c0.2,0.1,0.3,0.3,0.3,0.4c0,0.1,0.3,0.6,0.7,1c0.8,0.9,1,1.3,0.9,2.4l-0.1,0.9
				l1.2,0.6c0.6,0.3,1.2,0.6,1.2,0.6c0,0,0.3-0.1,0.5-0.2c0.4-0.2,0.5-0.3,0.5-1c0-0.5-0.1-0.8-0.3-1c-0.1-0.1-0.4-0.4-0.5-0.7
				C112.3,55.4,112.3,55.4,112.5,55.5z"/>
			<path fill="#573392" d="M27.9,52.2c0.1-0.2,0.1-0.4,0-0.5c-0.1,0.2-0.2,0.5-0.3,0.7C27.7,52.4,27.9,52.4,27.9,52.2z"/>
			<path fill="#573392" d="M29.6,53.1c0.4-0.2,0.4-0.3,0.1-0.4c-0.4-0.2-1.4,0.1-1.4,0.5C28.3,53.5,29.1,53.4,29.6,53.1z"/>
			<path fill="#573392" d="M29.7,103.2c0-0.6-0.1-1.4-0.2-1.8c-0.3-1-1.5-2.2-3-3c-0.2-0.1-0.3-0.2-0.5-0.3c1,3,2.3,5.8,3.7,8.6
				C29.6,105.6,29.6,104.4,29.7,103.2z"/>
			<path fill="#573392" d="M147.3,76c-0.2,0-0.2,0.2-0.2,0.6c0,0.3,0,1-0.1,1.4c-0.2,0.7-0.1,0.9,0.2,1.3c0.2,0.3,0.4,0.7,0.5,0.9
				c0.1,0.2,0.5,0.8,1.1,1.2c0.3,0.3,0.6,0.5,0.8,0.7c0.1-1.4,0.2-2.9,0.2-4.3C148.9,77,147.7,76,147.3,76z"/>
			<path fill="#573392" d="M148.5,88c-0.2-0.5-0.6-1.2-1-1.7c-0.4-0.5-0.8-1.1-0.9-1.3s-0.6-0.8-1-1.2c-0.8-0.8-1.3-1.6-1-1.6
				c0.4,0,1.6,0.6,2.1,1.1c1.3,1.4,1.6,1.7,2.3,2c0,0,0.1,0.1,0.1,0.1c0-0.3,0.1-0.6,0.1-0.9c-0.6-0.6-1.1-1.4-1.4-2.8
				c-0.2-0.7-0.4-0.9-0.9-1.3c-0.7-0.5-0.7-0.5-0.6-1.4c0-0.5,0.1-1.1,0.2-1.5c0.1-0.5,0-0.8-0.3-1.5c-0.2-0.5-0.5-1.3-0.6-1.7
				c-0.2-1-0.6-1.1-1.2-0.6c-0.2,0.2-0.5,0.4-0.5,0.4c-0.3,0-0.6-0.6-0.5-0.8c0.2-0.5-0.8-2.3-1.4-2.5c-0.3-0.1-0.6-0.4-0.8-0.9
				c-0.3-0.7-0.7-1-1.1-0.8c-0.1,0.1-0.7,0.2-1.2,0.3c-1,0.2-1.3,0.5-1.2,1c0,0.2-0.1,0.4-0.5,0.6c-0.3,0.2-0.7,0.5-0.8,0.7
				c-0.1,0.2-0.3,0.5-0.5,0.5c-0.2,0.1-0.5,0.3-0.6,0.6s-0.6,0.7-1,1.1c-0.6,0.4-0.7,0.7-0.7,1c0.2,1.8-0.1,3.3-0.7,4.2
				c-0.6,0.9-0.6,0.9-1.2,0.7c-0.3-0.1-0.5-0.4-0.5-0.8c-0.1-0.3-0.4-1.2-0.8-2c-2.2-4.6-2.5-5.5-2.3-6.3c0.1-0.6-0.2-1.4-0.5-1.3
				c-0.1,0-0.2,0.2-0.2,0.3c0,0.8-0.9,0.9-1.6,0.2l-0.4-0.4l0.4-0.1c0.4-0.2,0.4-0.6,0-0.5c-0.2,0-0.5-0.1-0.8-0.4
				c-0.3-0.2-0.6-0.4-0.7-0.4c-0.1,0-0.2-0.2-0.3-0.3c-0.2-0.5-1-0.9-1.5-0.7c-0.4,0.2-4.1,0.1-4.7,0c-0.2-0.1-0.6-0.4-0.9-0.7
				c-0.5-0.6-0.5-0.6-1.3-0.4c-0.7,0.2-0.8,0.2-1.8-0.3c-0.8-0.4-1.1-0.6-1.3-1.2c-0.3-0.7-1.1-1.3-1.5-1.1
				c-0.1,0.1-0.3,0.3-0.4,0.6c-0.1,0.4,0,0.6,0.4,1.2c0.3,0.4,0.6,1,0.7,1.4c0.2,0.8,0.6,1,0.9,0.5c0.2-0.3,0.3-0.3,0.4-0.1
				c0.1,0.1,0.1,0.3,0.1,0.4c-0.1,0.3,0.9,0.8,1.3,0.7c0.2-0.1,0.7-0.4,1.1-0.9c0.6-0.7,0.8-0.7,0.7-0.2c-0.1,0.4,0.2,0.8,0.7,1.1
				c0.8,0.4,1.8,1.3,1.8,1.5c0,0.1-0.2,0.4-0.4,0.6c-0.2,0.2-0.6,0.7-0.8,1.1c-0.4,0.9-1.7,2.1-2.2,2.1c-0.5,0-1.3,0.4-1.5,0.9
				c-0.1,0.2-0.5,0.5-0.8,0.7c-1.6,0.8-3.5,1.6-4.1,1.7c-0.6,0.1-0.6,0.1-0.9-0.5c-0.2-0.4-0.4-1.1-0.4-1.6
				c-0.1-0.7-0.3-1.1-0.6-1.5c-0.3-0.3-0.5-0.6-0.5-0.7c0-0.1-0.3-0.5-0.7-0.9c-0.5-0.5-0.8-1-0.9-1.6c-0.2-0.5-0.5-1.2-0.7-1.5
				c-1.5-1.9-2-2.6-2.2-3.3c-0.3-0.9-0.6-1.1-0.7-0.4l-0.1,0.5l-0.6-0.7c-0.9-1.1-1-0.6-0.2,0.7c0.4,0.6,1,1.8,1.4,2.5
				c0.4,0.7,0.8,1.6,1.1,1.9c0.2,0.3,0.4,0.8,0.4,1.1c0,0.6,0.2,1,0.9,2c0.3,0.4,0.6,0.9,0.7,1.2c0.1,0.4,0.4,0.8,1.1,1.3
				c1.1,0.9,1.8,1.7,1.9,2.5c0.1,0.3,0.3,0.6,0.6,0.7c0.5,0.2,0.6,0.2,2.1-0.1c0.9-0.2,1.8-0.5,2.1-0.6l0.5-0.2l0.1,0.7
				c0.1,0.6,0,0.9-1.2,3.2c-1.3,2.5-1.3,2.6-2.6,3.6c-0.7,0.6-1.5,1.3-1.7,1.5s-0.8,1-1.4,1.7c-1.7,1.9-1.9,3.6-0.8,5.8
				c0.3,0.6,0.4,1,0.3,1.3c-0.1,0.2,0,0.8,0.1,1.3c0.2,0.7,0.1,0.9-0.1,1.5c-0.4,0.8-0.7,1.1-1.8,1.6c-0.5,0.2-0.9,0.5-0.9,0.6
				c0,0.1-0.3,0.5-0.8,1s-0.8,0.9-0.8,1c0,0.1,0.2,0.5,0.3,0.8c0.6,1.1,0.2,1.9-1.2,2.5c-0.6,0.2-0.8,0.7-0.6,1.6
				c0.1,0.5,0,0.6-0.2,0.8c-0.2,0.1-0.5,0.5-0.7,0.8c-0.7,1.1-2.7,3-3.6,3.5c-0.8,0.4-0.9,0.4-1.5,0.3c-0.5-0.1-0.9-0.1-1.7,0.1
				c-1.3,0.3-1.2,0.3-1.7-0.2l0,0c-0.4-0.4-0.4-0.5-0.3-1c0.1-0.5,0-0.7-0.3-1.2c-0.2-0.3-0.4-0.7-0.4-0.8c0-0.1-0.3-0.6-0.7-1.1
				c-0.6-0.8-0.7-1.1-0.8-2c-0.2-1.7-0.7-3.5-1.4-4.8c-0.4-0.6-0.7-1.5-0.8-1.9c-0.1-0.8,0.2-2,0.9-3.5l0.5-1l-0.3-0.8
				c-0.2-0.5-0.2-1-0.2-1.3c0.1-0.3,0-0.6-0.2-1c-0.2-0.3-0.4-1-0.6-1.5c-0.2-0.7-0.5-1.1-1-1.7c-1.1-1-1.2-1.5-0.9-2.6
				c0.7-2.3-0.1-3.7-1.8-3.4c-0.7,0.1-0.7,0.1-0.8-0.4c-0.1-0.4-0.3-0.6-0.8-0.9c-0.7-0.3-0.9-0.3-1.8,0c-0.2,0.1-0.9,0.3-1.7,0.6
				c-1.1,0.4-1.4,0.4-1.9,0.3c-0.5-0.1-0.8-0.1-1.8,0.2c-1,0.3-1.3,0.3-1.8,0.2c-1.1-0.3-3-2-3.2-2.9c-0.2-0.7-1.5-2.4-1.9-2.5
				c-0.3-0.1-0.3-0.1-0.1-0.2c0.2-0.1,0.1-0.2-0.1-0.2c-0.4-0.1-0.5-0.5-0.1-0.5c0.3,0,0.3,0,0-0.2c-0.2-0.1-0.2-0.2,0-0.2
				c0.1,0,0.1-0.2-0.1-0.6c-0.3-0.5-0.3-0.6-0.1-0.9c0.8-0.8,0.9-2.6,0.3-3.8c-0.3-0.5-0.1-1.3,0.5-2.1c0.2-0.3,0.6-1,1-1.6
				c0.5-1,1.7-2.4,2-2.4c0.4,0,1.5-1.2,1.5-1.6c0-0.9,0.5-1.7,1.4-2.3c0.5-0.3,1-0.8,1.2-1.1c0.4-0.6,0.5-0.7,0.9-0.3
				c0.2,0.1,0.6,0.3,1,0.3c0.6,0.1,0.8,0,1.7-0.4c1.5-0.8,2.4-1,4-0.9c1.1,0.1,1.6,0,2.1-0.2c0.8-0.3,1.5-0.1,1.3,0.3
				c-0.1,0.1,0,0.4,0.1,0.5c0.1,0.1,0.1,0.4,0,0.7c-0.2,0.4-0.1,0.5,0.3,0.9c0.2,0.3,0.7,0.5,1,0.6c1.4,0.3,1.7,0.4,2,0.9
				c0.2,0.3,0.5,0.5,0.9,0.6c0.3,0.1,0.8,0.2,1.1,0.4c0.5,0.2,0.5,0.2,0.9-0.1c0.3-0.2,0.4-0.5,0.3-0.7c-0.1-0.2,0-0.5,0.1-0.6
				c0.3-0.5,1-0.4,2.2,0.1c1.3,0.6,3.6,1.1,4.5,0.8c0.4-0.1,0.8-0.1,1.2,0c1.2,0.4,1.8,0.1,1.9-0.9c0.1-0.3,0.1-0.6,0.2-0.6
				c0.1,0,0.2-0.5,0.2-1.6c0-0.3,0.1-0.6,0.2-0.6c0.1,0,0.1-0.1,0-0.4c-0.2-0.4-0.6-0.4-1.6,0c-0.5,0.2-0.6,0.2-1-0.1
				c-0.6-0.3-1.1-0.4-1.3-0.1c-0.1,0.2-1,0.1-1.4-0.2c-0.3-0.2-0.6-0.8-0.6-1.3c0-0.2-0.2-0.4-0.4-0.6c-0.3-0.2-0.3-0.3-0.1-0.4
				c0.1-0.1,0.4-0.1,0.6-0.1c0.3,0.1,0.5,0,0.8-0.4c0.3-0.3,0.6-0.5,1-0.5c0.3,0,0.8-0.2,1.1-0.3c0.6-0.4,1.8-0.3,2.8,0.2
				c1.3,0.7,2.5,0.6,3-0.1c0.2-0.4,0.2-0.5,0-0.8c-0.1-0.2-0.8-0.7-1.5-1.1l-1.3-0.7l0.2-0.5c0.1-0.3,0.2-0.5,0.1-0.6
				c-0.1-0.1,0-0.2,0-0.3c0.1-0.1,0.2-0.3,0.2-0.4c0-0.3-0.2-0.2-1.6,0.4c-0.8,0.3-0.9,0.4-0.7,0.7c0.1,0.1,0.4,0.3,0.6,0.3
				c0.3,0,0.2,0.1-0.3,0.3c-0.6,0.3-0.7,0.3-1.1,0.1c-0.3-0.2-0.4-0.3-0.2-0.5c0.2-0.2,0.1-0.3-0.1-0.4c-0.2-0.1-0.4-0.2-0.5-0.4
				c-0.5-0.6-2,1-2.5,2.7c-0.2,0.8-0.2,0.8,0.2,1.1l0.4,0.3L96,55.2c-0.4,0.1-1,0.1-1.2,0c-0.5-0.1-1.1,0.1-1.1,0.4
				c0,0.1-0.1,0.1-0.3,0.1c-0.1-0.1-0.4,0-0.5,0.1c-0.2,0.2-0.2,0.3,0.2,0.9c0.4,0.7,0.4,0.8,0.1,1.2c-0.3,0.6-0.6,0.5-1-0.2
				c-0.3-0.5-0.3-0.5,0.1-0.5c0.5-0.1,0.5-0.4,0-0.4c-1-0.2-1.6-0.7-1.6-1.6c0-0.7-0.6-1.4-1.4-1.6c-0.4-0.1-0.8-0.4-1-0.6
				s-0.5-0.5-0.8-0.6s-0.7-0.4-0.8-0.6c-0.2-0.3-0.3-0.3-0.6-0.1c-0.2,0.1-0.3,0.3-0.3,0.4c0,0.4,2.1,2.4,3.2,2.9
				c1.1,0.6,1.3,0.8,0.5,0.6c-0.7-0.2-0.9,0-0.6,0.5c0.2,0.4,0.1,0.5-0.2,0.8l-0.4,0.4l0.1-0.5c0.1-0.8-0.9-1.9-1.8-1.9
				c-0.3,0-1.5-1.2-1.9-1.8c-0.3-0.7-0.7-0.8-1.3-0.4c-0.8,0.6-1.4,0.7-2.1,0.6c-0.8-0.1-1.4,0.2-1.2,0.7c0.1,0.3,0,0.4-0.1,0.4
				c-0.1,0-0.4,0.2-0.7,0.4c-0.3,0.2-0.5,0.4-0.6,0.4c-0.2,0-0.8,1.1-0.8,1.4c0,0.4-0.7,1.1-1.3,1.4c-0.2,0.1-0.7,0.2-1,0.2
				c-0.5,0-0.7,0.1-0.9,0.3c-0.2,0.3-0.2,0.3-0.6-0.1c-0.4-0.4-0.6-0.5-1.5-0.6c-0.4-0.1-0.5-1-0.2-2.4c0.1-0.6,0.2-1.3,0.1-1.5
				c-0.2-0.6,0.3-1,1.2-0.9c1.9,0.3,3.1,0.3,3.3,0c0.4-0.4,0.5-1.6,0.3-2.2c-0.1-0.4-0.3-0.6-0.9-0.8c-0.9-0.3-0.9-0.7,0-0.7
				c0.3,0,0.8-0.1,1-0.3s0.5-0.3,0.6-0.2c0.2,0.1,1.1-0.4,1.4-0.8c0.1-0.2,0.4-0.4,0.6-0.5s0.7-0.4,1.2-0.9c0.7-0.6,1-0.8,1.6-0.9
				c0.7-0.1,1.4-0.7,1.1-0.9c-0.2-0.1-0.4-1-0.3-1.2c0.1-0.1,0.3-0.4,0.5-0.5l0.4-0.3l-0.1,0.7c-0.1,0.6-0.1,0.7,0.2,0.6
				c0.2,0,0.5-0.1,0.7-0.3c0.3-0.2,0.4-0.2,0.5,0.1c0.1,0.4-0.3,0.8-0.5,0.6c-0.2-0.1-0.3-0.1-0.3,0c-0.1,0.1-0.2,0.1-0.3,0
				c-0.1-0.1-0.2-0.2-0.2-0.1s0.1,0.3,0.3,0.6c0.4,0.4,0.4,0.5,0.9,0.3c0.4-0.2,0.6-0.1,1,0.1c0.4,0.2,0.6,0.2,1.4-0.1
				c0.7-0.3,1-0.3,1.3-0.2c0.3,0.1,0.5,0.1,0.8,0c0.8-0.4,1-0.7,0.9-1.2c-0.1-0.8,0.1-1.1,0.8-0.8c0.5,0.2,0.6,0.2,0.8,0
				c0.2-0.2,0.2-0.3-0.2-0.7c-0.3-0.4-0.4-0.5-0.2-0.6c0.1-0.1,0.6-0.1,1.1-0.1c0.9,0.1,2-0.3,1.8-0.6c-0.2-0.3-1.2-0.4-2.1-0.2
				c-0.8,0.2-1,0.2-1.6-0.1c-0.9-0.4-1-0.9-0.4-1.8c0.8-1.1,1-1.5,0.7-1.8c-0.3-0.4-0.7-0.3-1.5,0.6c-0.4,0.5-1,0.9-1.2,1
				s-0.6,0.4-0.8,0.7c-0.2,0.4-0.2,0.5,0,0.9c0.1,0.2,0.4,0.4,0.6,0.5c0.5,0.2,0.4,0.5-0.3,1c-0.2,0.2-0.5,0.6-0.7,1
				c-0.2,0.5-0.5,0.8-0.9,1.1c-0.6,0.3-0.6,0.3-1,0c-0.2-0.2-0.4-0.5-0.4-0.8s-0.3-0.7-0.6-1l-0.5-0.6l-0.6,0.4
				c-0.3,0.2-0.7,0.4-0.9,0.4c-0.5,0-1.2-0.6-1.2-1.1c0-0.3-0.1-0.6-0.2-0.8c-0.2-0.4,0.6-1.1,1.4-1.3c0.8-0.2,2.4-1.3,2.7-1.9
				c0.1-0.2,0.5-0.7,0.9-1s0.7-0.7,0.7-0.8c0-0.1,0.4-0.3,0.8-0.5c0.4-0.2,1.2-0.4,1.6-0.6c0.6-0.2,1.3-0.4,2.2-0.4
				c1.6,0,2.6,0.2,3.5,0.7c0.4,0.3,0.8,0.4,1.1,0.3c0.6-0.1,3.7,0.8,3.8,1.2c0.1,0.3-0.8,0.7-1.5,0.5c-0.4-0.1-1.1-0.2-1.6-0.3
				c-0.7-0.2-1-0.2-1.2,0s-0.1,0.2,0.3,0.4c0.3,0.1,0.6,0.4,0.7,0.7c0.3,0.7,1.4,1.2,2,1c0.5-0.2,0.5-0.3,0-0.6
				c-0.5-0.3-0.3-0.3,0.4-0.1c0.5,0.2,1.1,0,1-0.4c-0.1-0.2,0.1-0.3,0.6-0.4c1.1-0.3,1.2-0.3,1.1-0.6c-0.3-0.9-0.4-0.8,0.2-0.8
				c0.3,0,0.5,0.1,0.4,0.3c0,0.1,0.1,0.3,0.3,0.4c0.3,0.2,0.5,0.1,1.3-0.3c1.2-0.6,2.1-0.8,2.4-0.5c0.2,0.2,0.5,0.2,1.4,0
				c0.6-0.1,1.3-0.2,1.3-0.1c0.1,0.1,0.2,0,0.3-0.1c0.1-0.2-0.2-0.7-0.4-0.6c-0.2,0.1-1-0.1-0.9-0.3c0.2-0.2,4.9,0.9,5.1,1.2
				c0.2,0.2,0.8-0.1,0.8-0.3c0-0.1-0.3-0.3-0.7-0.5c-1.3-0.6-1.3-1.6-0.2-1.9c0.7-0.2,1,0,1.9,1.3c1.2,1.7,1.2,1.6,0.8,2.1
				c-0.3,0.4-0.3,0.5-0.1,0.6c0.4,0.2,1.2-0.4,1.4-0.9c0.1-0.6-0.1-1-0.7-1.3c-0.5-0.3-0.8-0.7-0.8-1.1c0-0.1,0.2-0.2,0.5-0.1
				c0.5,0.1,1-0.1,2.2-1c0.3-0.2,0.8-0.3,1.2-0.3c1,0,1.3-0.2,1-0.5c-0.1-0.1-0.2-0.3-0.1-0.3c0.2-0.2,3-0.6,3.6-0.5
				c0.6,0.1,0.8,0,1.3-0.3c0.3-0.2,0.6-0.5,0.6-0.6c0-0.2-1.5-0.2-1.6,0c-0.2,0.3-0.4,0.2-0.3-0.1c0.1-0.3-0.1-0.3-1.3-0.4
				c-3.3-0.3-3.6-0.3-3.2-0.7c0.4-0.4,1.2-0.3,1.9,0c0.3,0.1,0.8,0.3,1.1,0.3s0.6,0.1,0.7,0.2c0.1,0.1,0.4,0.2,0.7,0.2
				c0.8,0,2.5,0.4,2.4,0.5c0,0.1,0.1,0.1,0.3,0.1c0.2,0,0.7,0.1,1,0.3c0.1,0.1,0.3,0.1,0.5,0.2c-11.3-10.3-26.3-16.6-42.8-16.6
				c-14.8,0-28.4,5.1-39.2,13.6c0.8-0.1,1.6-0.1,2.4-0.2c1.3-0.1,2.7-0.2,3.1-0.2l0.8-0.1l-1.4,0.7c-1.3,0.6-3.3,1.2-4.2,1.2
				c-0.2,0-0.8,0.2-1.3,0.5c-0.5,0.3-1.1,0.5-1.2,0.5s-0.7,0.2-1.2,0.5c-0.4,0.2-0.8,0.4-0.9,0.5c-0.7,0.7-1.5,1.4-2.2,2.1
				c0.8,0.5,0.9,0.5,1.4,0.3c0.3-0.2,0.4-0.1,0.7,0.3c0.2,0.3,0.7,0.6,1.2,0.7c0.8,0.2,0.8,0.3,0.8,0.8c0,0.4,0.1,0.6,0.4,0.8
				c1.1,0.8,1.1,0.8,0.9,1.2c-0.3,0.5-0.6,0.6-1.3,0.2c-0.5-0.3-0.7-0.3-1-0.2c-0.3,0.2-0.3,0.2-0.1,0.7c0.2,0.4,0.2,0.6,0.1,0.9
				c-0.2,0.4-0.2,0.4-0.7,0.1c-0.9-0.5-1.6-0.2-0.7,0.4c0.3,0.2,0.5,0.4,0.4,0.4c-0.2,0.3-1,0.1-1.6-0.3c-0.4-0.2-0.8-0.6-1-0.9
				c-0.4-0.6-0.7-0.6-1.6-0.4c-0.3,0.1-0.7,0.1-0.8,0c-0.5-0.3,0.4-0.6,1.4-0.4c0.8,0.1,0.9,0.1,1-0.2c0.2-0.5,1-0.8,1.5-0.6
				c0.3,0.1,0.5,0.1,0.9,0c0.5-0.2,0.5-0.2,0.2-0.4c-0.2-0.1-0.4-0.2-0.5-0.2c-0.1,0-0.3-0.3-0.6-0.8c-0.2-0.4-0.7-0.9-1-1.1
				c-0.5-0.3-0.6-0.3-1.1-0.1c-0.1,0-0.2,0.1-0.2,0.1c-3.6,3.9-6.7,8.2-9.2,12.9c0.1,0.1,0.2,0.2,0.3,0.2c0.6,0,1.1-0.5,1.4-1.4
				c0.3-0.8,0.4-1,1.3-1.4c1.3-0.7,1.8-1.4,1.7-2.1c-0.1-0.5,0-0.6,0.4-0.9c0.3-0.2,0.6-0.7,0.8-1c0.4-0.8,1-1.1,2-0.9
				c0.9,0.1,2,0.7,2.1,1.1c0.1,0.2,0,0.5-0.1,0.7c-0.2,0.3-0.1,0.4,0.2,0.8l0.4,0.4l0.6-0.3c0.3-0.2,0.9-0.5,1.2-0.8l0.6-0.4
				l0.1,0.4c0.1,0.2,0.1,0.5,0,0.6c0,0.1,0,0.4,0.1,0.6c0.1,0.2,0.1,0.4,0,0.6c-0.1,0.2,0,0.5,0.2,1c0.4,0.7,0.4,0.7,0,0.9
				c-0.4,0.3-0.2,0.6,0.3,0.4c0.5-0.3,1-0.2,1.4,0.1c0.5,0.5,0.1,1-1.3,1.7c-1.5,0.7-2.1,0.8-4.1,0.8c-1.4,0-1.6,0.1-3,0.7
				c-0.8,0.4-1.5,0.8-1.5,0.9c0,0.3,0.3,0.3,1.2-0.1c0.6-0.3,1.3-0.5,1.7-0.5c0.6,0,0.6,0,0.4,0.4c-0.1,0.2-0.3,0.5-0.5,0.6
				c-0.3,0.2-0.3,0.3-0.1,0.7c0.3,0.6,1,0.9,1.8,0.7l0.7-0.1L40,51.7c-0.3,0.2-0.7,0.4-1,0.5c-0.3,0.1-0.9,0.3-1.3,0.5
				c-0.4,0.2-0.9,0.3-1,0.3c-0.3-0.2,0-0.4,0.9-0.8c0.8-0.3,0.6-0.7-0.2-0.5c-0.3,0.1-1.4,0.5-2.3,0.9c-1.5,0.7-1.8,0.8-1.8,1.2
				c-0.1,0.5-0.5,0.7-1.8,1.1c-0.4,0.1-0.9,0.4-1.2,0.7c-0.2,0.2-0.7,0.6-1,0.8c-0.3,0.2-0.6,0.6-0.7,0.8c-0.1,0.4-0.1,0.4-0.2,0.1
				c-0.2-0.5-0.5,0-0.5,0.9c0,1-0.5,1.6-1.6,2.1c-0.5,0.2-1.2,0.7-1.7,1.1c-0.7,2.5-1.1,5-1.5,7.7c0.5,0.2,1.1,0.5,2.2,1
				c1.5,0.8,1.5,0.8,1,0.9c-0.5,0.2-0.9,0.2-1,0.1c-0.1-0.1-0.4-0.1-0.8-0.1c-0.5,0-0.7-0.1-0.5-0.2c0.1-0.2-0.1-0.4-0.7-0.8
				c-0.1-0.1-0.2-0.1-0.2-0.1c-0.3,2.5-0.5,5.1-0.5,7.7c0,0.6,0,1.2,0,1.7c0.3,0,0.5,0.1,0.8,0.4c0.5,0.4,0.5,0.4,0.9,0.1
				c0.2-0.1,0.5-0.5,0.7-0.8c0.3-0.6,0.9-1.1,1.3-1.1c0.2,0,0.5-0.2,0.7-0.4c0.4-0.5,1.2-0.6,0.8-0.2c-0.3,0.4-0.5,1.6-0.3,2
				c0.2,0.3,0.2,0.3,0.5-0.1c0.2-0.3,0.3-0.4,0.1-0.6c-0.3-0.3-0.2-0.5,0.3-0.9c0.6-0.4,1-0.4,1.5,0.1c0.4,0.4,2.2,0.9,2.8,0.8
				c0.8-0.2,3,1.1,3.9,2.4c0.4,0.6,1.7,1.2,2.2,1c1.2-0.3,2.7,0.9,3.1,2.3c0.1,0.4,0.3,0.8,0.4,0.9c0.2,0.2-0.1,0.8-0.9,1.5
				c-0.5,0.5-0.6,0.7-0.5,0.8c0.1,0.1,0.4,0,1-0.5c0.8-0.8,1.1-0.8,1.5-0.4c0.3,0.3,0.2,0.3-0.1,0.7c-0.2,0.2-0.5,0.4-0.6,0.4
				c-0.2,0-0.1,0.1,0.1,0.2c0.3,0.1,0.5,0.1,0.8-0.2c0.9-0.7,1.1-0.8,1.9-0.3c0.5,0.3,0.7,0.5,0.7,0.7c-0.1,0.6,0.1,0.8,0.5,0.5
				c0.4-0.2,0.6-0.2,1.8-0.1c1.3,0.2,1.4,0.2,2,0.8c0.4,0.4,1,0.7,1.6,0.9c0.9,0.2,0.9,0.3,1.1,0.9c0.2,0.8,0,1.8-0.7,2.6
				c-0.3,0.4-0.7,0.9-0.8,1.2c-0.2,0.3-0.5,0.7-0.7,1c-0.4,0.4-0.4,0.5-0.3,1.5c0.2,1.9-0.7,5.4-1.6,6.2c-0.3,0.2-0.5,0.3-1,0.2
				c-0.4-0.1-0.7,0-0.7,0.1c-0.1,0.1-0.4,0.3-0.8,0.5c-0.4,0.2-1,0.5-1.3,0.8c-0.5,0.5-0.6,0.5-0.4,1.1c0.2,0.6,0.1,1.4-0.4,2
				c-0.1,0.2-0.3,0.6-0.3,0.8c0,0.2-0.2,0.6-0.4,0.9c-0.2,0.3-0.6,0.9-0.9,1.5c-0.7,1.3-1.1,1.5-2.2,1.1c-0.9-0.3-1.4-0.4-1.4-0.1
				c0,0.1,0.2,0.3,0.4,0.4c0.2,0.1,0.6,0.5,0.8,0.9c0.3,0.6,0.3,0.8,0.2,1.1c-0.2,0.5-1.2,1-2,1c-0.8,0-0.9,0.2-0.7,0.7
				c0.2,0.3,0.1,0.8-0.3,1.2c0,0-0.3-0.1-0.6-0.2c-0.2-0.1-0.4-0.2-0.5-0.2C48.2,131.7,66.1,141,86.1,141
				c31.4,0,57.4-22.8,62.6-52.7C148.6,88.2,148.6,88.1,148.5,88z M99.8,59.4c0.2,0,0.4-0.1,0.4-0.2c0.2-0.3,0.4-0.2,0.3,0.1
				c-0.1,0.3-0.8,0.6-1,0.5C99.4,59.6,99.5,59.4,99.8,59.4z M94,59.3c0.8,0,1.5,0.1,1.3,0.3c-0.1,0.2-0.9,0.2-1.5-0.1v0l-0.5-0.2
				L94,59.3z M86.7,57.4c0.4-0.1,1.4,0,1.3,0.2c0,0.1-0.1,0.2-0.1,0.4c-0.1,0.3-0.2,0.2-0.9-0.1C86.4,57.5,86.4,57.5,86.7,57.4z
				 M84.1,53.8c0.2-0.1,0.3,0,0.3,0.3c0,0.4-0.2,0.5-0.4,0.3C83.8,54.3,83.8,53.9,84.1,53.8z M83.8,55.3c0.3-0.3,0.6-0.1,0.6,0.6
				c0,0.8-0.4,0.9-0.7,0.2C83.5,55.6,83.6,55.5,83.8,55.3z M79.7,56.2c0.1-0.3,0.6-0.4,0.5-0.1c0,0.1-0.2,0.2-0.4,0.3
				C79.7,56.4,79.7,56.4,79.7,56.2z M90.2,41c0.2,0,0.3,0.1,0.3,0.2c0,0.3-0.1,0.3-0.4,0.1C89.8,41.2,89.9,41,90.2,41z M106.1,33.4
				c0.1-0.1,0.1-0.3,0.1-0.3c-0.1,0,0-0.1,0.2-0.3s0.3-0.3,0.3-0.4c0-0.2,0.7-0.9,1.2-1.1c0.3-0.1,1-0.3,1.6-0.3
				c0.6,0,1.4-0.1,1.8-0.2c0.4-0.1,0.7,0,0.8,0.1c0.1,0.2-0.1,0.3-1.4,0.5c-1.3,0.2-2.1,0.6-2.6,1.2c-0.5,0.6-0.6,1-0.1,1.4l0.4,0.3
				l-0.5,0c-0.3,0-0.8-0.1-1.2-0.3v0C105.8,33.7,105.8,33.7,106.1,33.4z M86.6,29.2c1,0.1,1.6,0.1,1.6-0.1c0-0.3,0.5-0.2,0.6,0.2
				l0.1,0.4l0.1-0.4c0-0.2,0.2-0.4,0.3-0.4c0.1,0,0.2-0.1,0.2-0.2c0-0.2,0-0.2,0.2,0c0.1,0.1,0.7,0.2,1.3,0.2c1.2,0,1.5,0.2,0.7,0.5
				c-0.4,0.2-1.1,0.1-1.9-0.1c-0.2,0-0.3,0-0.3,0.1c0,0.2,0.9,0.7,1.2,0.7c0.1,0,0.3,0.1,0.4,0.2c0.2,0.2,0.2,0.2,0,0.3
				c-0.1,0.1-0.2,0-0.2-0.1c0-0.1-0.2-0.1-0.6-0.1c-0.4,0.1-0.6,0.1-0.5-0.1c0.1-0.1,0-0.3-0.1-0.4c-0.2-0.3-0.8-0.3-0.8-0.1
				c0,0.1-0.2,0.4-0.5,0.7l-0.5,0.6l-0.7-0.4c-0.8-0.4-0.9-0.6-0.3-0.6c0.3,0,0.6-0.1,0.7-0.2c0.2-0.2,0.2-0.2,0-0.1
				c-0.2,0-0.4,0-0.5-0.1c-0.1-0.1-0.2-0.1-0.3,0c-0.1,0.1-0.3,0.2-0.6,0.1c-0.9-0.3-1.1-0.4-1.1-0.6C85,29.1,85.3,29.1,86.6,29.2z
				 M24.6,67.6c-0.1,0.1-0.2,0-0.4-0.2c-0.3-0.3-0.2-0.7,0.1-0.7c0.1,0,0.1,0.1,0.1,0.3c0,0.2,0,0.4,0.1,0.4S24.6,67.5,24.6,67.6z
				 M24.5,65.9c-0.1,0.1-0.3,0.3-0.3,0.3s-0.1-0.1-0.1-0.3s0.1-0.3,0.3-0.3C24.7,65.7,24.7,65.7,24.5,65.9z M25.4,66.3
				c0,0-0.1,0-0.2-0.2c-0.1-0.2-0.1-0.3,0-0.4c0,0,0.1,0,0.2,0.2C25.4,66.1,25.4,66.2,25.4,66.3z M24.3,72.6c-0.3,0-0.6,0-0.7-0.1
				c-0.1,0-0.2-0.2-0.2-0.2c0-0.2,0.7-0.2,1.1,0.1C24.8,72.6,24.8,72.6,24.3,72.6z M27.5,69L27.5,69c0.1-0.2,0.7-0.2,0.7,0
				c0,0.1-0.2,0.1-0.4,0.2C27.6,69.2,27.5,69.1,27.5,69z M26.4,69.5c0.3-0.2,0.5-0.2,0.5,0c0,0.1-0.2,0.2-0.4,0.2
				C26.3,69.7,26.2,69.7,26.4,69.5z M29,76.8c-0.1,0-0.2-0.1-0.2-0.2c0-0.1,0-0.2,0.1-0.2s0.1,0.1,0.2,0.2
				C29.1,76.7,29.1,76.8,29,76.8z M29.9,76.9c0,0-0.1,0-0.2,0c-0.1-0.1-0.1-0.2-0.1-0.3c0-0.1,0.1-0.1,0.2,0
				C29.9,76.7,30,76.8,29.9,76.9z M27.9,72.4c-0.2-0.1-0.5-0.1-0.7-0.1c-0.3,0.1-0.7,0-0.9-0.1c-0.4-0.1-0.3-0.2,0.3-0.1
				c0.9,0,1.1-0.1,0.9-0.6c-0.2-0.3-0.1-0.3,0.7-0.3c0.8,0,1.9,0.4,2.1,0.7C30.3,72.1,28.2,72.5,27.9,72.4z M31.1,72.5
				c-0.2-0.2,0-0.4,0.5-0.4c0.3,0,0.4,0.1,0.4,0.2C31.9,72.5,31.3,72.7,31.1,72.5z M32.7,72.2c-0.1,0-0.3,0-0.3-0.1
				c0,0,0.1-0.1,0.3-0.2s0.3,0,0.3,0.1S32.9,72.2,32.7,72.2z M34.5,72.7c0.1,0,0.2,0.1,0.2,0.2c0,0.1,0,0.2-0.1,0.2
				s-0.1-0.1-0.2-0.2C34.4,72.8,34.4,72.7,34.5,72.7z M34,73.4c-0.1,0-0.2-0.1-0.3-0.2c-0.1-0.1,0-0.1,0.2-0.1
				C34.2,73.3,34.3,73.4,34,73.4z M34.9,78.5c-0.1,0.2-0.2,0.3-0.4,0.3c-0.3,0-0.3,0-0.2-0.2c0.1-0.1,0.1-0.3,0.1-0.3
				c-0.1-0.1,0-0.1,0.2-0.1C34.9,78.1,35,78.2,34.9,78.5z M34.9,61.3c-0.1,0-0.2,0-0.2-0.1s0.1-0.1,0.2-0.2c0.1-0.1,0.2,0,0.2,0.1
				S34.9,61.3,34.9,61.3z M35.3,72.7c0,0,0.1,0.1,0.2,0.2c0.1,0.1,0,0.2-0.1,0.2s-0.2-0.1-0.2-0.2C35.2,72.8,35.2,72.7,35.3,72.7z
				 M35.4,74c-0.1,0.1-0.2,0-0.2-0.1c0-0.1,0.1-0.2,0.2-0.3s0.2,0,0.2,0.1S35.5,74,35.4,74z M35.9,75.3c-0.1,0-0.2,0-0.2-0.1
				s0.1-0.1,0.2-0.2C36,75,36,75,36,75.1S36,75.3,35.9,75.3z M36.9,76.4c-0.1,0-0.2-0.1-0.2-0.2c0-0.1,0-0.2,0.1-0.2
				s0.1,0.1,0.2,0.2C37,76.4,37,76.4,36.9,76.4z M43.7,50.6c-0.1,0.1-0.1,0.3-0.2,0.3c0,0-0.1-0.1-0.1-0.3s0.1-0.3,0.2-0.3
				S43.7,50.5,43.7,50.6z M45.2,50c-0.6,0.2-1.3,0.2-2.6,0.1L41.9,50l1.2-1.2c0.6-0.6,1.3-1.2,1.4-1.2c0.1,0,0.1,0.1-0.1,0.3
				c-0.4,0.4-0.1,0.8,0.5,1c0.3,0.1,0.6,0.3,0.7,0.5C45.8,49.8,45.7,49.8,45.2,50z M71.5,37.9c-0.3,0.3-1,0.5-2.5,0.9
				c-0.1,0-0.5-0.1-0.8-0.3s-0.6-0.3-0.8-0.2c-0.2,0.1-0.3,0-0.2-0.2c0.1-0.4,1.6-0.9,2.1-0.8c0.2,0.1,0.6,0,1-0.1
				c0.6-0.2,0.7-0.2,1.1,0.1l0.5,0.3L71.5,37.9z M75.8,34.5c0.3-0.2,0.5-0.2,0.5,0c0,0.1-0.2,0.2-0.4,0.2
				C75.6,34.7,75.6,34.7,75.8,34.5z M76.3,39.5c0,0.1-0.1,0.1-0.3,0.1s-0.3-0.1-0.3-0.1c0-0.1,0.1-0.1,0.3-0.1S76.3,39.5,76.3,39.5z
				 M75.7,48c0.2-0.1,0.5-0.2,0.8-0.3c0.6-0.2,0.5-0.4-0.2-0.6C75.8,47,75.7,47,76,46.8c0.2-0.1,0.3-0.3,0.2-0.4
				c-0.1-0.1,0.1-0.3,0.4-0.4c0.3-0.1,0.5-0.3,0.5-0.3c0-0.4-0.4-1-0.5-1c-0.4,0.1-0.7,0-0.6-0.2c0-0.1,0-0.3-0.1-0.5
				c-0.2-0.4,0.3-1.3,0.7-1.3c0.1,0,0.1,0.1,0.1,0.2c0,0.1,0.1,0.2,0.4,0.3l0.4,0.1l-0.4,0.4l-0.4,0.4l0.4,0.2
				c0.5,0.2,0.9,0.7,1.3,1.7c0.2,0.5,0.4,0.6,0.6,0.5c0.5-0.1,0.6,0.2,0.1,0.5c-0.3,0.2-0.4,0.3-0.2,0.5s-0.1,0.2-1.1,0.4
				c-0.7,0.1-1.6,0.2-1.9,0.3C75.5,48.1,75.4,48.1,75.7,48z M75.9,45.4c0,0,0.1-0.1,0.2-0.2c0.1-0.1,0.2,0,0.2,0.1s-0.1,0.2-0.2,0.2
				C76,45.5,75.9,45.4,75.9,45.4z M75.3,44.8c0.1,0.1,0,0.3-0.2,0.5s-0.3,0.6-0.3,0.8c0,0.4-0.1,0.5-0.7,0.7c-0.4,0.1-0.8,0.3-1,0.4
				c-0.2,0.1-0.3,0-0.4-0.2c-0.1-0.2,0-0.5,0.1-0.8c0.2-0.3,0.2-0.5,0.1-0.6c-0.3-0.2-0.2-0.4,0.2-0.5c0.2-0.1,0.5-0.2,0.6-0.3
				C74.2,44.6,75.2,44.5,75.3,44.8z M60.7,73.4c0,0-0.1-0.1-0.2-0.2s0-0.2,0.1-0.2s0.2,0.1,0.2,0.2S60.8,73.4,60.7,73.4z M62.3,74.8
				c-0.1,0-0.2-0.1-0.2-0.2c0-0.1,0.1-0.2,0.2-0.2c0.1,0,0.2,0.1,0.2,0.2C62.5,74.7,62.4,74.8,62.3,74.8z M61.2,36.5
				c-0.3,0.2-1,0.5-1.8,0.7c-1.7,0.3-2.3,0.7-3.3,2.2c-0.8,1.2-1.3,1.6-1.8,1.6c-0.1,0-0.6-0.2-1.1-0.5c-1.1-0.6-1.6-1.5-1.3-2.2
				c0.1-0.4,0.2-0.6,0-0.8c-0.3-0.5,0.1-1.1,1-1.7c0.4-0.3,0.9-0.6,1-0.8c0.3-0.5,0-1.4-0.4-1.6c-0.2-0.1-0.4-0.3-0.3-0.4
				c0.1-0.3-0.4-1.4-1-1.9c-0.4-0.4-0.6-0.4-2-0.4c-1.9,0-2.3-0.1-2.2-0.7c0-0.2,0.1-0.4,0.1-0.4c0,0,0.7-0.1,1.5-0.2
				c1-0.1,1.9-0.4,3-0.9c1.7-0.7,1.9-0.8,6-0.7c1.3,0,2.5-0.1,4-0.3c1.4-0.2,2.5-0.3,3.1-0.3c0.5,0.1,1.2,0,1.6-0.1
				c0.9-0.2,3.3,0.1,4.2,0.5c0.6,0.3,0.8,0.3,1.8,0.2c1-0.1,1.1-0.1,0.8,0.1c-0.2,0.1-0.8,0.3-1.3,0.4c-1.1,0.1-2.1,0.9-1.9,1.4
				c0.1,0.2,0,0.4-0.3,0.8c-0.3,0.3-0.5,0.6-0.6,0.8c-0.1,0.4-1.6,1.1-2.3,1.1c-0.8,0-0.9,0.2-0.3,0.6c0.3,0.2,0.7,0.4,1,0.6
				l0.4,0.3l-0.4,0.1c-0.3,0.1-0.5,0-1-0.3c-0.7-0.5-1.4-0.5-1,0c0.1,0.2,0.1,0.3-0.2,0.3c-0.6,0.2-0.2,0.5,0.5,0.4
				c0.4-0.1,0.7,0,0.8,0.1c0.2,0.2,0,0.3-1.3,0.5c-0.8,0.2-1.9,0.3-2.4,0.3C62.9,35.5,62.2,35.7,61.2,36.5z M82.7,85.9
				c-0.1,0-0.2,0-0.2-0.1s0.1-0.1,0.2-0.2c0.1-0.1,0.2,0,0.2,0.1S82.8,85.9,82.7,85.9z M83.7,83.9c-0.1,0-0.2,0-0.2-0.1
				s0.1-0.1,0.2-0.2c0.1-0.1,0.2,0,0.2,0.1S83.8,83.9,83.7,83.9z M108.4,96c0.1,0,0.2,0.1,0.2,0.2c0,0.1,0,0.2-0.1,0.2
				s-0.1-0.1-0.2-0.2C108.3,96.1,108.3,96,108.4,96z M111.7,99.9c-0.4,1.2-0.9,2.6-1,3.2c-0.4,1.8-0.7,2.2-1.4,2.4
				c-0.8,0.2-0.7,0.2-1.1,0c-0.5-0.3-0.5-0.4-0.7-1.4c-0.1-0.8-0.1-1,0.4-1.7c0.5-0.8,0.5-0.9,0.4-1.8c-0.2-1.2,0.1-1.9,0.8-2
				c0.7-0.1,2.1-1.4,2.5-2.2l0.3-0.6l0.2,0.4C112.6,97.2,112.5,97.7,111.7,99.9z M116.2,102.5c-0.1,0-0.2-0.1-0.2-0.2
				c0-0.1,0.1-0.2,0.2-0.2c0.1,0,0.2,0.1,0.2,0.2C116.4,102.5,116.3,102.5,116.2,102.5z M116.9,90.6c-0.1,0-0.2-0.1-0.2-0.2
				c0-0.1,0.1-0.2,0.2-0.2s0.2,0.1,0.2,0.2C117,90.5,116.9,90.6,116.9,90.6z M117.4,101.9c-0.1,0-0.2,0-0.2-0.1s0.1-0.1,0.2-0.2
				c0.1-0.1,0.2,0,0.2,0.1S117.5,101.9,117.4,101.9z M134.7,81.3c-0.2,0.2-0.8,0.5-0.9,0.3c-0.2-0.3-0.3-1.7-0.2-2
				c0.1-0.4,0.2-0.4,0.6,0.3C134.7,80.5,134.9,81,134.7,81.3z"/>
			<path fill="#573392" d="M46.1,28c-0.2,0.2-0.5,0.4-0.7,0.6c0.3,0,0.6-0.1,0.7-0.1C46.5,28.3,46.4,28,46.1,28z"/>
			<path fill="#573392" d="M23.4,81.7c-0.1-0.4-0.2-0.9-0.2-1c0-0.1-0.1-0.2-0.2-0.2c-0.1,0-0.1-0.2,0-0.3c0.2-0.3,0.1-0.4-0.3-0.5
				c-0.1,0-0.2-0.1-0.3-0.1c0.1,1.6,0.2,3.2,0.3,4.7C23.5,83.3,23.6,82.6,23.4,81.7z"/>
			<path fill="#FFFFFF" d="M44.9,48.9c-0.6-0.1-0.9-0.6-0.5-1c0.2-0.2,0.2-0.3,0.1-0.3c-0.1,0-0.7,0.5-1.4,1.2L41.9,50l0.6,0.1
				c1.3,0.1,2,0.1,2.6-0.1c0.6-0.2,0.6-0.2,0.4-0.6C45.5,49.2,45.2,49,44.9,48.9z"/>
			<path fill="#FFFFFF" d="M36.8,76.1c0,0-0.1,0.1-0.1,0.2c0,0.1,0.1,0.2,0.2,0.2s0.1-0.1,0.1-0.2C36.9,76.2,36.8,76.1,36.8,76.1z"
				/>
			<path fill="#FFFFFF" d="M43.4,50.6c0,0.1,0,0.3,0.1,0.3c0,0,0.1-0.1,0.2-0.3c0.1-0.1,0-0.3-0.1-0.3S43.4,50.5,43.4,50.6z"/>
			<path fill="#FFFFFF" d="M70.4,37.2c-0.4,0.1-0.8,0.2-1,0.1c-0.5-0.2-2,0.4-2.1,0.8c-0.1,0.2,0,0.3,0.2,0.2c0.2,0,0.5,0.1,0.8,0.2
				s0.6,0.3,0.8,0.3c1.5-0.4,2.2-0.6,2.5-0.9l0.4-0.3l-0.5-0.3C71.1,37,70.9,37,70.4,37.2z"/>
			<path fill="#FFFFFF" d="M76.3,34.5c0-0.2-0.2-0.2-0.5,0c-0.2,0.1-0.2,0.2,0.1,0.2C76.1,34.7,76.3,34.6,76.3,34.5z"/>
			<ellipse fill="#FFFFFF" cx="76" cy="39.5" rx="0.3" ry="0.1"/>
			<path fill="#FFFFFF" d="M34.6,78.1c-0.2,0-0.3,0-0.2,0.1c0.1,0.1,0,0.2-0.1,0.3c-0.1,0.2-0.1,0.2,0.2,0.2c0.2,0,0.4-0.1,0.4-0.3
				C35,78.2,34.9,78.1,34.6,78.1z"/>
			<path fill="#FFFFFF" d="M77.8,47.8c1-0.1,1.3-0.2,1.1-0.4s-0.1-0.3,0.2-0.5c0.5-0.3,0.4-0.7-0.1-0.5c-0.3,0.1-0.4-0.1-0.6-0.5
				c-0.4-1-0.9-1.6-1.3-1.7l-0.4-0.2l0.4-0.4l0.4-0.4l-0.4-0.1c-0.2,0-0.4-0.2-0.4-0.3c0-0.1,0-0.2-0.1-0.2c-0.5,0-1,0.9-0.7,1.3
				c0.1,0.2,0.1,0.4,0.1,0.5c-0.1,0.2,0.1,0.3,0.6,0.2c0.2,0,0.5,0.6,0.5,1c0,0.1-0.2,0.2-0.5,0.3c-0.3,0.1-0.5,0.3-0.4,0.4
				c0.1,0.1,0,0.3-0.2,0.4c-0.3,0.2-0.3,0.2,0.2,0.3c0.7,0.1,0.8,0.4,0.2,0.6c-0.3,0.1-0.6,0.2-0.8,0.3c-0.3,0.1-0.2,0.1,0.3,0.1
				C76.3,48,77.1,47.9,77.8,47.8z"/>
			<path fill="#FFFFFF" d="M34.9,61c-0.1,0.1-0.2,0.1-0.2,0.2s0.1,0.1,0.2,0.1c0.1,0,0.2-0.1,0.2-0.2S34.9,61,34.9,61z"/>
			<path fill="#FFFFFF" d="M33.8,73.3c0.1,0.1,0.2,0.2,0.3,0.2c0.2,0,0.2-0.1-0.1-0.2C33.8,73.1,33.7,73.2,33.8,73.3z"/>
			<path fill="#FFFFFF" d="M35.4,73.1c0.1,0,0.1-0.1,0.1-0.2c-0.1-0.1-0.1-0.2-0.2-0.2s-0.1,0.1-0.1,0.2
				C35.2,73,35.3,73.1,35.4,73.1z"/>
			<path fill="#FFFFFF" d="M35.9,75c-0.1,0.1-0.2,0.1-0.2,0.2s0.1,0.1,0.2,0.1c0.1,0,0.2-0.1,0.2-0.2S36,75,35.9,75z"/>
			<path fill="#FFFFFF" d="M35.4,73.7c-0.1,0.1-0.2,0.2-0.2,0.3c0,0.1,0.1,0.1,0.2,0.1c0.1-0.1,0.2-0.2,0.2-0.3S35.5,73.6,35.4,73.7
				z"/>
			<path fill="#FFFFFF" d="M83.7,83.6c-0.1,0.1-0.2,0.1-0.2,0.2s0.1,0.1,0.2,0.1c0.1,0,0.2-0.1,0.2-0.2S83.8,83.5,83.7,83.6z"/>
			<circle fill="#FFFFFF" cx="116.2" cy="102.4" r="0.2"/>
			<path fill="#FFFFFF" d="M111.9,95.8l-0.3,0.6c-0.3,0.8-1.8,2-2.5,2.2c-0.7,0.2-1,0.8-0.8,2c0.1,0.9,0.1,1-0.4,1.8
				c-0.5,0.8-0.5,0.9-0.4,1.7c0.1,1,0.2,1.1,0.7,1.4c0.4,0.2,0.3,0.2,1.1,0c0.7-0.2,1-0.6,1.4-2.4c0.1-0.6,0.6-2,1-3.2
				c0.8-2.2,0.9-2.7,0.4-3.7L111.9,95.8z"/>
			<path fill="#FFFFFF" d="M108.5,96.3c0,0,0.1-0.1,0.1-0.2c0-0.1-0.1-0.2-0.2-0.2s-0.1,0.1-0.1,0.2
				C108.4,96.2,108.5,96.3,108.5,96.3z"/>
			<circle fill="#FFFFFF" cx="116.9" cy="90.4" r="0.2"/>
			<path fill="#FFFFFF" d="M76.3,45.3c0-0.1-0.1-0.1-0.2-0.1c-0.1,0.1-0.2,0.1-0.2,0.2s0.1,0.1,0.2,0.1
				C76.2,45.5,76.3,45.4,76.3,45.3z"/>
			<path fill="#FFFFFF" d="M117.4,101.6c-0.1,0.1-0.2,0.1-0.2,0.2s0.1,0.1,0.2,0.1c0.1,0,0.2-0.1,0.2-0.2S117.5,101.6,117.4,101.6z"
				/>
			<path fill="#FFFFFF" d="M133.7,79.5c-0.1,0.4,0,1.7,0.2,2c0.1,0.2,0.8,0,0.9-0.3c0.2-0.3,0-0.7-0.5-1.5
				C133.8,79.1,133.8,79.1,133.7,79.5z"/>
			<circle fill="#FFFFFF" cx="62.3" cy="74.6" r="0.2"/>
			<path fill="#FFFFFF" d="M60.6,73.1c-0.1,0-0.1,0.1-0.1,0.2s0.1,0.2,0.2,0.2s0.1-0.1,0.1-0.2S60.7,73.1,60.6,73.1z"/>
			<path fill="#FFFFFF" d="M73.3,45.2c-0.4,0.1-0.5,0.3-0.2,0.5c0.1,0.1,0.1,0.3-0.1,0.6c-0.1,0.3-0.2,0.6-0.1,0.8
				c0.1,0.2,0.2,0.2,0.4,0.2c0.2-0.1,0.6-0.2,1-0.4c0.6-0.2,0.7-0.3,0.7-0.7c0-0.2,0.1-0.6,0.3-0.8s0.2-0.5,0.2-0.5
				c-0.2-0.3-1.2-0.2-1.4,0.1C73.8,45,73.6,45.1,73.3,45.2z"/>
			<path fill="#FFFFFF" d="M67.5,34.6c-0.1-0.2-0.4-0.2-0.8-0.1c-0.7,0.1-1.1-0.2-0.5-0.4c0.3-0.1,0.3-0.1,0.2-0.3
				c-0.4-0.5,0.3-0.5,1,0c0.5,0.3,0.7,0.4,1,0.3l0.4-0.1l-0.4-0.3c-0.2-0.2-0.7-0.5-1-0.6c-0.6-0.3-0.5-0.5,0.3-0.6
				c0.7,0,2.2-0.7,2.3-1.1c0-0.2,0.3-0.5,0.6-0.8c0.4-0.4,0.5-0.5,0.3-0.8c-0.3-0.5,0.7-1.3,1.9-1.4c0.5-0.1,1.1-0.2,1.3-0.4
				c0.3-0.2,0.2-0.2-0.8-0.1c-0.9,0.1-1.2,0.1-1.8-0.2c-0.9-0.5-3.3-0.8-4.2-0.5c-0.4,0.1-1.1,0.1-1.6,0.1c-0.6-0.1-1.6,0-3.1,0.3
				c-1.5,0.3-2.7,0.4-4,0.3c-4.1-0.1-4.3-0.1-6,0.7c-1.1,0.5-2,0.7-3,0.9c-0.8,0.1-1.5,0.2-1.5,0.2c0,0-0.1,0.2-0.1,0.4
				c0,0.5,0.3,0.7,2.2,0.7c1.4,0,1.6,0,2,0.4c0.6,0.5,1.1,1.6,1,1.9c-0.1,0.1,0.1,0.3,0.3,0.4c0.5,0.2,0.7,1.1,0.4,1.6
				c-0.1,0.2-0.5,0.6-1,0.8c-0.9,0.6-1.3,1.2-1,1.7c0.1,0.3,0.1,0.5,0,0.8c-0.3,0.7,0.2,1.6,1.3,2.2c0.5,0.3,1,0.5,1.1,0.5
				c0.5,0,1-0.4,1.8-1.6c1-1.5,1.6-1.8,3.3-2.2c0.8-0.2,1.5-0.4,1.8-0.7c1-0.8,1.7-1,2.6-1c0.5,0,1.6-0.2,2.4-0.3
				C67.4,34.9,67.7,34.8,67.5,34.6z"/>
			<path fill="#FFFFFF" d="M34.6,73.1c0,0,0.1-0.1,0.1-0.2c0-0.1-0.1-0.2-0.2-0.2s-0.1,0.1-0.1,0.2C34.5,73,34.6,73.1,34.6,73.1z"/>
			<path fill="#FFFFFF" d="M82.7,85.6c-0.1,0.1-0.2,0.1-0.2,0.2s0.1,0.1,0.2,0.1c0.1,0,0.2-0.1,0.2-0.2S82.8,85.6,82.7,85.6z"/>
			<path fill="#FFFFFF" d="M146.7,83.3c-0.5-0.5-1.6-1.1-2.1-1.1c-0.3,0,0.2,0.8,1,1.6c0.4,0.4,0.8,0.9,1,1.2s0.5,0.9,0.9,1.3
				c0.4,0.5,0.8,1.2,1,1.7c0,0.1,0.1,0.2,0.2,0.4c0.2-1,0.3-1.9,0.4-2.9c0,0-0.1-0.1-0.1-0.1C148.4,85,148.1,84.7,146.7,83.3z"/>
			<path fill="#FFFFFF" d="M87.1,57.9c0.7,0.3,0.8,0.4,0.9,0.1c0.1-0.2,0.1-0.3,0.1-0.4c0-0.2-0.9-0.3-1.3-0.2
				C86.4,57.5,86.4,57.5,87.1,57.9z"/>
			<path fill="#FFFFFF" d="M93.9,59.5c0.6,0.3,1.4,0.3,1.5,0.1c0.1-0.2-0.5-0.4-1.3-0.3l-0.7,0L93.9,59.5L93.9,59.5z"/>
			<path fill="#FFFFFF" d="M84.4,54.1c0-0.3-0.1-0.4-0.3-0.3c-0.3,0.1-0.3,0.4-0.1,0.6C84.2,54.7,84.4,54.5,84.4,54.1z"/>
			<path fill="#FFFFFF" d="M80.3,56.1c0.1-0.3-0.4-0.3-0.5,0.1c-0.1,0.2,0,0.2,0.2,0.2C80.1,56.4,80.2,56.2,80.3,56.1z"/>
			<path fill="#FFFFFF" d="M100.6,59.3c0.1-0.3-0.2-0.3-0.3-0.1c-0.1,0.1-0.3,0.2-0.4,0.2c-0.3,0-0.4,0.2-0.2,0.4
				C99.8,60,100.5,59.6,100.6,59.3z"/>
			<path fill="#FFFFFF" d="M84.4,55.8c0-0.7-0.3-0.9-0.6-0.6c-0.2,0.2-0.2,0.3-0.1,0.8C83.9,56.7,84.4,56.6,84.4,55.8z"/>
			<path fill="#FFFFFF" d="M37.6,117.7c0.3-0.4,0.4-0.9,0.3-1.2c-0.3-0.5-0.1-0.7,0.7-0.7c0.9,0,1.8-0.4,2-1
				c0.2-0.3,0.1-0.5-0.2-1.1c-0.2-0.4-0.5-0.8-0.8-0.9c-0.2-0.1-0.4-0.3-0.4-0.4c0-0.3,0.5-0.2,1.4,0.1c1,0.4,1.5,0.2,2.2-1.1
				c0.3-0.5,0.7-1.2,0.9-1.5c0.2-0.3,0.4-0.7,0.4-0.9c0-0.2,0.1-0.6,0.3-0.8c0.5-0.6,0.6-1.4,0.4-2c-0.2-0.6-0.2-0.6,0.4-1.1
				c0.3-0.3,0.9-0.6,1.3-0.8c0.4-0.2,0.8-0.4,0.8-0.5c0.1-0.1,0.4-0.2,0.7-0.1c0.5,0.1,0.7,0,1-0.2c0.9-0.8,1.8-4.3,1.6-6.2
				c-0.1-1-0.1-1.1,0.3-1.5c0.2-0.2,0.6-0.7,0.7-1c0.2-0.3,0.5-0.8,0.8-1.2c0.7-0.9,1-1.8,0.7-2.6c-0.2-0.6-0.2-0.6-1.1-0.9
				c-0.6-0.2-1.1-0.5-1.6-0.9c-0.6-0.6-0.8-0.7-2-0.8c-1.2-0.2-1.4-0.2-1.8,0.1c-0.4,0.3-0.6,0.1-0.5-0.5c0-0.2-0.2-0.4-0.7-0.7
				c-0.8-0.4-1-0.4-1.9,0.3c-0.3,0.3-0.5,0.3-0.8,0.2c-0.2-0.1-0.3-0.2-0.1-0.2c0.1,0,0.4-0.2,0.6-0.4c0.3-0.4,0.4-0.4,0.1-0.7
				c-0.4-0.4-0.7-0.3-1.5,0.4c-0.6,0.5-0.8,0.7-1,0.5c-0.1-0.1,0-0.4,0.5-0.8c0.8-0.8,1.2-1.4,0.9-1.5c-0.1-0.1-0.3-0.4-0.4-0.9
				c-0.4-1.4-1.9-2.6-3.1-2.3c-0.6,0.1-1.8-0.4-2.2-1c-0.8-1.2-3.1-2.6-3.9-2.4c-0.5,0.1-2.4-0.4-2.8-0.8c-0.5-0.5-0.9-0.6-1.5-0.1
				c-0.5,0.4-0.6,0.6-0.3,0.9c0.1,0.1,0.1,0.3-0.1,0.6c-0.3,0.4-0.3,0.4-0.5,0.1c-0.2-0.4,0-1.6,0.3-2c0.4-0.5-0.4-0.3-0.8,0.2
				c-0.2,0.2-0.6,0.4-0.7,0.4c-0.5,0-1,0.5-1.3,1.1c-0.1,0.3-0.4,0.6-0.7,0.8c-0.4,0.2-0.4,0.2-0.9-0.1c-0.3-0.2-0.5-0.3-0.8-0.4
				c0,0.1,0,0.2,0,0.4c0.1,0,0.2,0,0.3,0.1c0.4,0.2,0.4,0.2,0.3,0.5c-0.1,0.2-0.1,0.3,0,0.3c0.1,0,0.2,0.1,0.2,0.2
				c0,0.1,0.1,0.6,0.2,1c0.2,0.9,0.1,1.7-0.5,2.6c0.5,4.8,1.6,9.5,3.1,13.9c0.1,0.1,0.3,0.2,0.5,0.3c1.5,0.8,2.7,2,3,3
				c0.1,0.4,0.2,1.2,0.2,1.8c0,1.2,0,2.4,0,3.6c1.9,3.7,4.3,7.3,6.9,10.5c0.1,0,0.3,0.1,0.5,0.2C37.3,117.6,37.6,117.7,37.6,117.7z"
				/>
			<path fill="#FFFFFF" d="M45.1,29.8c0.1,0,0.7-0.2,1.2-0.5c0.5-0.3,1.1-0.5,1.3-0.5c0.9,0,2.9-0.6,4.2-1.2l1.4-0.7L52.3,27
				c-0.5,0.1-1.9,0.2-3.1,0.2c-0.7,0-1.5,0.1-2.4,0.2c-0.2,0.2-0.5,0.4-0.7,0.5c0.3,0,0.4,0.3,0,0.5c-0.1,0.1-0.4,0.1-0.7,0.1
				c-0.8,0.7-1.7,1.4-2.5,2.2c0.2-0.1,0.5-0.3,0.9-0.5C44.4,30,44.9,29.8,45.1,29.8z"/>
			<path fill="#FFFFFF" d="M32.7,72c-0.1,0.1-0.3,0.1-0.3,0.2c0,0,0.1,0.1,0.3,0.1s0.3-0.1,0.3-0.2S32.9,72,32.7,72z"/>
			<path fill="#FFFFFF" d="M40.7,34.4c0.3,0.2,0.8,0.7,1,1.1c0.2,0.4,0.5,0.8,0.6,0.8c0.1,0,0.3,0.1,0.5,0.2
				c0.3,0.2,0.3,0.2-0.2,0.4c-0.4,0.1-0.6,0.1-0.9,0c-0.5-0.2-1.3,0.1-1.5,0.6c-0.1,0.2-0.3,0.3-1,0.2c-1-0.1-1.9,0.1-1.4,0.4
				c0.1,0.1,0.5,0.1,0.8,0c0.9-0.3,1.3-0.2,1.6,0.4c0.2,0.3,0.6,0.7,1,0.9c0.7,0.4,1.5,0.5,1.6,0.3c0-0.1-0.1-0.3-0.4-0.4
				c-0.9-0.5-0.2-0.8,0.7-0.4c0.5,0.2,0.5,0.2,0.7-0.1c0.1-0.3,0.1-0.5-0.1-0.9c-0.3-0.5-0.3-0.5,0.1-0.7c0.3-0.1,0.5-0.1,1,0.2
				c0.7,0.4,1,0.3,1.3-0.2c0.2-0.4,0.3-0.4-0.9-1.2c-0.3-0.2-0.4-0.4-0.4-0.8c0-0.5-0.1-0.6-0.8-0.8c-0.5-0.2-1-0.5-1.2-0.7
				c-0.3-0.4-0.4-0.4-0.7-0.3c-0.5,0.3-0.6,0.2-1.4-0.3c-0.5,0.5-1,1-1.4,1.5c0.1,0,0.2-0.1,0.2-0.1C40.1,34,40.1,34,40.7,34.4z"/>
			<path fill="#FFFFFF" d="M27.9,58.1c0-0.9,0.3-1.5,0.5-0.9c0.1,0.3,0.1,0.3,0.2-0.1c0.1-0.2,0.4-0.6,0.7-0.8
				c0.3-0.2,0.8-0.6,1-0.8c0.2-0.2,0.8-0.5,1.2-0.7c1.3-0.4,1.6-0.6,1.8-1.1c0.1-0.4,0.3-0.6,1.8-1.2c1-0.4,2-0.8,2.3-0.9
				c0.8-0.2,1,0.2,0.2,0.5c-0.9,0.4-1.1,0.6-0.9,0.8c0.1,0.1,0.5,0,1-0.3c0.4-0.2,1-0.4,1.3-0.5c0.3-0.1,0.7-0.3,1-0.5l0.5-0.3
				l-0.7,0.1c-0.8,0.1-1.5-0.1-1.8-0.7c-0.2-0.4-0.2-0.5,0.1-0.7c0.2-0.1,0.4-0.4,0.5-0.6c0.2-0.4,0.2-0.4-0.4-0.4
				c-0.4,0-1.1,0.2-1.7,0.5c-1,0.5-1.2,0.5-1.2,0.1c0-0.1,0.7-0.5,1.5-0.9c1.4-0.7,1.6-0.7,3-0.7c1.9,0,2.6-0.2,4.1-0.8
				c1.4-0.6,1.8-1.2,1.3-1.7c-0.3-0.3-0.9-0.3-1.4-0.1c-0.5,0.3-0.8-0.1-0.3-0.4c0.3-0.2,0.3-0.2,0-0.9c-0.3-0.5-0.3-0.8-0.2-1
				c0.1-0.2,0.1-0.4,0-0.6C43,42.4,43,42.2,43,42.1c0-0.1,0-0.4,0-0.6l-0.1-0.4l-0.6,0.4c-0.3,0.2-0.9,0.6-1.2,0.8l-0.6,0.3
				l-0.4-0.4c-0.3-0.3-0.3-0.5-0.2-0.8c0.1-0.2,0.1-0.5,0.1-0.7c-0.1-0.4-1.2-1-2.1-1.1c-1-0.2-1.6,0.1-2,0.9
				c-0.2,0.4-0.5,0.8-0.8,1c-0.4,0.3-0.5,0.4-0.4,0.9c0.1,0.8-0.4,1.4-1.7,2.1c-0.9,0.5-1,0.6-1.3,1.4c-0.3,0.8-0.8,1.4-1.4,1.4
				c-0.1,0-0.2-0.1-0.3-0.2c-0.8,1.4-1.5,2.9-2.2,4.4c0.1,0.2,0.1,0.4,0,0.5c-0.1,0.1-0.2,0.2-0.3,0.2c-0.2,0.4-0.4,0.9-0.5,1.3
				c0,0,0,0,0,0c0.2,0.2,0.1,0.3-0.2,0.4c-0.9,2.3-1.7,4.6-2.3,7.1c0.5-0.4,1.2-0.8,1.7-1.1C27.3,59.7,27.8,59.1,27.9,58.1z
				 M29.7,52.7c0.2,0.1,0.2,0.2-0.1,0.4c-0.5,0.3-1.3,0.4-1.3,0C28.3,52.8,29.4,52.5,29.7,52.7z"/>
			<path fill="#FFFFFF" d="M90.1,41.3c0.3,0.1,0.4,0.1,0.4-0.1c0-0.1-0.1-0.2-0.3-0.2C89.9,41,89.8,41.2,90.1,41.3z"/>
			<path fill="#FFFFFF" d="M23.9,70.6c-0.1,0.2,0,0.2,0.5,0.2c0.4,0,0.7,0.1,0.8,0.1c0.1,0.1,0.5,0.1,1-0.1c0.5-0.1,0.5-0.1-1-0.9
				c-1-0.6-1.7-0.9-2.2-1c0,0.3-0.1,0.5-0.1,0.8c0.1,0,0.2,0.1,0.2,0.1C23.8,70.3,24,70.5,23.9,70.6z"/>
			<path fill="#FFFFFF" d="M127.4,30c-0.2,0-0.4-0.1-0.3-0.1c0.1-0.2-1.5-0.5-2.4-0.5c-0.3,0-0.6-0.1-0.7-0.2
				c-0.1-0.1-0.4-0.2-0.7-0.2s-0.8-0.1-1.1-0.3c-0.7-0.4-1.6-0.4-1.9,0c-0.4,0.4-0.1,0.5,3.2,0.7c1.2,0.1,1.4,0.1,1.3,0.4
				c-0.1,0.3,0.2,0.4,0.3,0.1c0.1-0.2,1.6-0.2,1.6,0c0,0.1-0.3,0.4-0.6,0.6c-0.5,0.4-0.7,0.4-1.3,0.3c-0.6-0.1-3.4,0.3-3.6,0.5
				c0,0,0,0.2,0.1,0.3c0.3,0.3,0,0.5-1,0.5c-0.5,0-1,0.1-1.2,0.3c-1.2,0.9-1.7,1.1-2.2,1c-0.4-0.1-0.5,0-0.5,0.1
				c0,0.4,0.4,0.8,0.8,1.1c0.6,0.3,0.9,0.8,0.7,1.3c-0.1,0.5-1,1-1.4,0.9c-0.2-0.1-0.2-0.2,0.1-0.6c0.4-0.6,0.4-0.5-0.8-2.1
				c-1-1.3-1.3-1.5-1.9-1.3c-1.2,0.3-1.1,1.3,0.2,1.9c0.4,0.2,0.7,0.4,0.7,0.5c0,0.3-0.6,0.5-0.8,0.3c-0.3-0.3-5-1.4-5.1-1.2
				c-0.2,0.2,0.6,0.4,0.9,0.3c0.2-0.1,0.6,0.4,0.4,0.6c-0.1,0.1-0.2,0.1-0.3,0.1c-0.1-0.1-0.7,0-1.3,0.1c-0.9,0.2-1.2,0.2-1.4,0
				c-0.3-0.3-1.3-0.1-2.4,0.5c-0.8,0.4-1,0.5-1.3,0.3c-0.2-0.1-0.3-0.3-0.3-0.4c0-0.1-0.2-0.2-0.4-0.3c-0.5-0.1-0.5-0.1-0.2,0.8
				c0.1,0.2,0,0.3-1.1,0.6c-0.5,0.1-0.7,0.3-0.6,0.4c0.1,0.4-0.5,0.6-1,0.4c-0.7-0.3-0.9-0.2-0.4,0.1c0.6,0.3,0.6,0.4,0,0.6
				c-0.6,0.2-1.7-0.3-2-1c-0.1-0.3-0.5-0.6-0.7-0.7c-0.3-0.2-0.4-0.3-0.3-0.4s0.4-0.1,1.2,0c0.5,0.1,1.3,0.2,1.6,0.3
				c0.8,0.1,1.7-0.2,1.5-0.5c-0.1-0.3-3.2-1.3-3.8-1.2c-0.3,0.1-0.7,0-1.1-0.3c-0.9-0.5-1.9-0.7-3.5-0.7c-0.9,0-1.6,0.1-2.2,0.4
				c-0.5,0.2-1.2,0.5-1.6,0.6c-0.4,0.2-0.8,0.4-0.8,0.5c0,0.1-0.3,0.4-0.7,0.8s-0.8,0.8-0.9,1c-0.3,0.5-1.9,1.6-2.7,1.9
				c-0.8,0.2-1.5,0.9-1.4,1.3c0.1,0.2,0.1,0.5,0.2,0.8c0,0.5,0.7,1.1,1.2,1.1c0.2,0,0.6-0.2,0.9-0.4l0.6-0.4l0.5,0.6
				c0.3,0.3,0.5,0.8,0.6,1s0.3,0.6,0.4,0.8c0.3,0.3,0.4,0.3,1,0c0.4-0.2,0.7-0.6,0.9-1.1c0.1-0.4,0.4-0.8,0.7-1
				c0.7-0.5,0.8-0.8,0.3-1c-0.2-0.1-0.5-0.3-0.6-0.5c-0.2-0.4-0.2-0.4,0-0.9c0.1-0.3,0.5-0.6,0.8-0.7s0.8-0.6,1.2-1
				c0.8-0.9,1.1-1,1.5-0.6c0.2,0.3,0.1,0.6-0.7,1.8c-0.6,0.9-0.5,1.4,0.4,1.8c0.6,0.3,0.8,0.3,1.6,0.1c0.9-0.2,1.9-0.1,2.1,0.2
				c0.2,0.3-0.9,0.7-1.8,0.6c-0.5-0.1-1,0-1.1,0.1c-0.2,0.1-0.2,0.2,0.2,0.6c0.4,0.4,0.4,0.5,0.2,0.7c-0.2,0.2-0.3,0.2-0.8,0
				c-0.7-0.3-0.9,0-0.8,0.8c0.1,0.5-0.1,0.8-0.9,1.2c-0.3,0.1-0.5,0.1-0.8,0c-0.3-0.1-0.6-0.1-1.3,0.2c-0.8,0.3-0.9,0.3-1.4,0.1
				c-0.4-0.2-0.6-0.2-1-0.1c-0.5,0.2-0.6,0.2-0.9-0.3c-0.2-0.3-0.3-0.5-0.3-0.6s0.1,0,0.2,0.1c0.1,0.2,0.2,0.2,0.3,0
				c0.1-0.1,0.2-0.1,0.3,0c0.3,0.2,0.7-0.2,0.5-0.6c-0.1-0.2-0.2-0.2-0.5-0.1c-0.2,0.1-0.5,0.2-0.7,0.3c-0.3,0-0.3,0-0.2-0.6
				l0.1-0.7l-0.4,0.3c-0.2,0.2-0.5,0.4-0.5,0.5C83.7,44,83.8,44.8,84,45c0.3,0.2-0.4,0.8-1.1,0.9c-0.6,0.1-0.9,0.3-1.6,0.9
				c-0.5,0.4-1,0.8-1.2,0.9s-0.5,0.3-0.6,0.5c-0.3,0.5-1.2,1-1.4,0.8c-0.1-0.1-0.4,0-0.6,0.2s-0.7,0.3-1,0.3c-0.9,0-0.8,0.3,0,0.7
				c0.6,0.2,0.8,0.4,0.9,0.8c0.2,0.7,0.1,1.9-0.3,2.2c-0.3,0.3-1.4,0.2-3.3,0C73,53,72.5,53.4,72.6,54c0.1,0.2,0,0.9-0.1,1.5
				c-0.3,1.4-0.2,2.4,0.2,2.4c0.8,0.1,1.1,0.2,1.5,0.6c0.4,0.4,0.4,0.4,0.6,0.1c0.1-0.3,0.4-0.3,0.9-0.3c0.4,0,0.8-0.1,1-0.2
				c0.6-0.3,1.3-1,1.3-1.4c0-0.4,0.6-1.4,0.8-1.4c0.1,0,0.3-0.2,0.6-0.4c0.3-0.2,0.6-0.4,0.7-0.4c0.2,0,0.2-0.1,0.1-0.4
				c-0.1-0.5,0.4-0.8,1.2-0.7c0.6,0.1,1.3-0.1,2.1-0.6c0.5-0.4,0.9-0.2,1.3,0.4c0.3,0.6,1.5,1.8,1.9,1.8c0.9,0,1.9,1.1,1.8,1.9
				l-0.1,0.5l0.4-0.4c0.3-0.3,0.4-0.4,0.2-0.8c-0.2-0.5,0-0.7,0.6-0.5c0.8,0.2,0.6,0-0.5-0.6c-1-0.5-3.2-2.5-3.2-2.9
				c0-0.1,0.1-0.3,0.3-0.4c0.3-0.1,0.4-0.1,0.6,0.1c0.1,0.2,0.5,0.4,0.8,0.6s0.7,0.4,0.8,0.6s0.6,0.4,1,0.6c0.8,0.2,1.4,1,1.4,1.6
				c0,0.9,0.6,1.4,1.6,1.6c0.5,0.1,0.4,0.4,0,0.4c-0.4,0.1-0.4,0.1-0.1,0.5c0.4,0.7,0.7,0.7,1,0.2c0.2-0.5,0.2-0.6-0.1-1.2
				c-0.3-0.6-0.4-0.8-0.2-0.9c0.1-0.1,0.4-0.2,0.5-0.1c0.1,0.1,0.3,0,0.3-0.1c0-0.3,0.6-0.5,1.1-0.4c0.3,0.1,0.8,0.1,1.2,0l0.7-0.2
				l-0.4-0.3c-0.4-0.3-0.4-0.3-0.2-1.1c0.4-1.7,2-3.4,2.5-2.7c0.1,0.1,0.3,0.3,0.5,0.4c0.2,0.1,0.3,0.2,0.1,0.4
				c-0.2,0.2-0.1,0.3,0.2,0.5c0.4,0.3,0.5,0.3,1.1-0.1c0.5-0.3,0.6-0.3,0.3-0.3c-0.2,0-0.5-0.1-0.6-0.3c-0.2-0.2-0.1-0.3,0.7-0.7
				c1.3-0.6,1.6-0.7,1.6-0.4c0,0.1-0.1,0.3-0.2,0.4c-0.1,0.1-0.1,0.3,0,0.3c0.1,0.1,0,0.3-0.1,0.6l-0.2,0.5l1.3,0.7
				c0.7,0.4,1.4,0.9,1.5,1.1c0.2,0.4,0.2,0.4,0,0.8c-0.5,0.7-1.6,0.8-3,0.1c-1-0.5-2.2-0.6-2.8-0.2c-0.3,0.2-0.7,0.3-1.1,0.3
				c-0.4,0-0.8,0.2-1,0.5c-0.3,0.3-0.6,0.4-0.8,0.4c-0.2,0-0.5,0-0.6,0.1c-0.2,0.1-0.2,0.2,0.1,0.4c0.2,0.1,0.4,0.4,0.4,0.6
				c0,0.5,0.3,1.1,0.6,1.3c0.5,0.3,1.3,0.4,1.4,0.2c0.2-0.3,0.7-0.2,1.3,0.1c0.4,0.3,0.6,0.3,1,0.1c1-0.4,1.4-0.4,1.6,0
				c0.1,0.2,0.1,0.4,0,0.4c-0.1,0-0.2,0.3-0.2,0.6c0,1.1-0.1,1.6-0.2,1.6c-0.1,0-0.1,0.3-0.2,0.6c-0.2,1-0.8,1.3-1.9,0.9
				c-0.4-0.1-0.7-0.1-1.2,0c-0.8,0.2-3.2-0.2-4.5-0.8c-1.2-0.6-1.9-0.6-2.2-0.1c-0.1,0.2-0.1,0.5-0.1,0.6c0.1,0.2-0.1,0.4-0.3,0.7
				c-0.4,0.4-0.4,0.4-0.9,0.1c-0.3-0.1-0.8-0.3-1.1-0.4c-0.4-0.1-0.7-0.3-0.9-0.6c-0.3-0.5-0.7-0.6-2-0.9c-0.3-0.1-0.7-0.3-1-0.6
				c-0.4-0.4-0.4-0.5-0.3-0.9c0.1-0.3,0.1-0.5,0-0.7c-0.1-0.1-0.1-0.3-0.1-0.5c0.2-0.5-0.5-0.7-1.3-0.3c-0.5,0.2-1,0.3-2.1,0.2
				c-1.7-0.1-2.6,0.1-4,0.9c-0.8,0.5-1.1,0.5-1.7,0.4c-0.4-0.1-0.8-0.2-1-0.3c-0.5-0.3-0.5-0.3-0.9,0.3c-0.2,0.3-0.7,0.8-1.2,1.1
				c-0.8,0.5-1.4,1.4-1.4,2.3c0,0.4-1.1,1.6-1.5,1.6c-0.3,0-1.5,1.4-2,2.4c-0.3,0.6-0.7,1.3-1,1.6c-0.6,0.8-0.8,1.5-0.5,2.1
				c0.6,1.1,0.4,2.9-0.3,3.8c-0.2,0.3-0.2,0.3,0.1,0.9c0.2,0.4,0.3,0.6,0.1,0.6c-0.1,0-0.1,0.1,0,0.2c0.2,0.1,0.2,0.2,0,0.2
				c-0.4,0-0.4,0.4,0.1,0.5c0.3,0.1,0.3,0.1,0.1,0.2c-0.2,0.1-0.1,0.2,0.1,0.2c0.4,0.1,1.7,1.8,1.9,2.5c0.3,0.9,2.1,2.6,3.2,2.9
				c0.5,0.1,0.9,0.1,1.8-0.2c0.9-0.3,1.3-0.3,1.8-0.2c0.5,0.1,0.8,0.1,1.9-0.3c0.7-0.2,1.5-0.5,1.7-0.6c0.8-0.3,1.1-0.3,1.8,0
				c0.5,0.3,0.7,0.5,0.8,0.9c0.1,0.5,0.1,0.5,0.8,0.4c1.8-0.3,2.5,1.1,1.8,3.4c-0.3,1.1-0.2,1.6,0.9,2.6c0.6,0.5,0.8,1,1,1.7
				c0.1,0.5,0.4,1.2,0.6,1.5c0.2,0.4,0.3,0.7,0.2,1c-0.1,0.2,0,0.8,0.2,1.3l0.3,0.8l-0.5,1c-0.8,1.5-1.1,2.7-0.9,3.5
				c0.1,0.4,0.4,1.2,0.8,1.9c0.7,1.3,1.3,3.1,1.4,4.8c0.1,1,0.2,1.3,0.8,2c0.4,0.5,0.7,1,0.7,1.1c0,0.1,0.2,0.5,0.4,0.8
				c0.3,0.5,0.4,0.7,0.3,1.2c-0.1,0.5,0,0.7,0.3,1l0,0c0.5,0.5,0.4,0.5,1.7,0.2c0.8-0.2,1.2-0.2,1.7-0.1c0.6,0.2,0.7,0.1,1.5-0.3
				c0.9-0.5,2.9-2.4,3.6-3.5c0.2-0.3,0.5-0.7,0.7-0.8c0.3-0.1,0.3-0.3,0.2-0.8c-0.1-0.9,0-1.4,0.6-1.6c1.4-0.6,1.8-1.4,1.2-2.5
				c-0.2-0.4-0.3-0.8-0.3-0.8c0-0.1,0.3-0.6,0.8-1s0.8-0.9,0.8-1c0-0.1,0.4-0.4,0.9-0.6c1.1-0.6,1.4-0.8,1.8-1.6
				c0.3-0.5,0.3-0.7,0.1-1.5c-0.1-0.5-0.1-1-0.1-1.3c0.1-0.3,0-0.7-0.3-1.3c-1.1-2.2-0.9-3.9,0.8-5.8c0.6-0.7,1.2-1.4,1.4-1.7
				s1-1,1.7-1.5c1.3-1,1.3-1.1,2.6-3.6c1.2-2.3,1.3-2.6,1.2-3.2l-0.1-0.7l-0.5,0.2c-0.3,0.1-1.2,0.4-2.1,0.6
				c-1.5,0.3-1.6,0.3-2.1,0.1c-0.3-0.2-0.6-0.4-0.6-0.7c-0.2-0.7-0.9-1.6-1.9-2.5c-0.7-0.6-1-1-1.1-1.3c-0.1-0.3-0.4-0.8-0.7-1.2
				c-0.7-0.9-0.9-1.3-0.9-2c0-0.3-0.2-0.8-0.4-1.1c-0.2-0.3-0.7-1.1-1.1-1.9c-0.4-0.7-1-1.9-1.4-2.5c-0.8-1.4-0.7-1.9,0.2-0.7
				l0.6,0.7l0.1-0.5c0.1-0.7,0.4-0.5,0.7,0.4c0.2,0.7,0.7,1.4,2.2,3.3c0.2,0.3,0.5,0.9,0.7,1.5c0.2,0.6,0.5,1.2,0.9,1.6
				c0.4,0.4,0.7,0.8,0.7,0.9c0,0.1,0.2,0.4,0.5,0.7c0.3,0.4,0.5,0.8,0.6,1.5c0.1,0.5,0.3,1.2,0.4,1.6c0.3,0.6,0.4,0.6,0.9,0.5
				c0.5-0.1,2.5-0.9,4.1-1.7c0.3-0.2,0.7-0.5,0.8-0.7c0.3-0.5,1-0.9,1.5-0.9c0.4,0,1.7-1.3,2.2-2.1c0.2-0.4,0.5-0.8,0.8-1.1
				c0.2-0.2,0.4-0.5,0.4-0.6c0-0.2-1-1.1-1.8-1.5c-0.5-0.3-0.8-0.7-0.7-1.1c0.1-0.6-0.1-0.5-0.7,0.2c-0.4,0.4-0.9,0.8-1.1,0.9
				c-0.5,0.1-1.4-0.4-1.3-0.7c0-0.1,0-0.3-0.1-0.4c-0.1-0.2-0.2-0.2-0.4,0.1c-0.3,0.5-0.7,0.2-0.9-0.5c-0.1-0.4-0.4-1-0.7-1.4
				c-0.4-0.6-0.5-0.8-0.4-1.2c0.1-0.3,0.2-0.5,0.4-0.6c0.4-0.2,1.2,0.4,1.5,1.1c0.3,0.6,0.5,0.8,1.3,1.2c1,0.5,1.1,0.5,1.8,0.3
				c0.8-0.2,0.8-0.2,1.3,0.4c0.3,0.3,0.7,0.6,0.9,0.7c0.6,0.2,4.3,0.2,4.7,0c0.4-0.2,1.3,0.2,1.5,0.7c0.1,0.2,0.2,0.3,0.3,0.3
				c0.1,0,0.4,0.2,0.7,0.4c0.3,0.2,0.6,0.4,0.8,0.4c0.4-0.1,0.5,0.4,0,0.5l-0.4,0.1l0.4,0.4c0.7,0.7,1.5,0.6,1.6-0.2
				c0-0.1,0.1-0.3,0.2-0.3c0.3-0.1,0.6,0.8,0.5,1.3c-0.2,0.8,0.1,1.7,2.3,6.3c0.4,0.8,0.7,1.6,0.8,2c0.1,0.4,0.2,0.6,0.5,0.8
				c0.5,0.2,0.6,0.2,1.2-0.7c0.6-0.9,0.9-2.4,0.7-4.2c0-0.3,0.1-0.6,0.7-1c0.4-0.3,0.9-0.8,1-1.1s0.4-0.5,0.6-0.6
				c0.2-0.1,0.4-0.3,0.5-0.5c0.1-0.2,0.5-0.5,0.8-0.7c0.4-0.2,0.6-0.4,0.5-0.6c-0.1-0.5,0.2-0.8,1.2-1c0.5-0.1,1.1-0.3,1.2-0.3
				c0.4-0.2,0.8,0.1,1.1,0.8c0.2,0.4,0.5,0.7,0.8,0.9c0.6,0.2,1.6,2,1.4,2.5c-0.1,0.3,0.3,0.8,0.5,0.8c0.1,0,0.3-0.2,0.5-0.4
				c0.6-0.6,0.9-0.4,1.2,0.6c0.1,0.4,0.4,1.2,0.6,1.7c0.3,0.7,0.4,1,0.3,1.5c-0.1,0.3-0.1,1-0.2,1.5c-0.1,0.8,0,0.9,0.6,1.4
				c0.5,0.4,0.7,0.7,0.9,1.3c0.4,1.4,0.8,2.2,1.4,2.8c0.1-0.8,0.2-1.6,0.2-2.4c-0.2-0.2-0.4-0.4-0.8-0.7c-0.6-0.4-1-1-1.1-1.2
				c-0.1-0.2-0.3-0.6-0.5-0.9c-0.3-0.4-0.3-0.6-0.2-1.3c0.1-0.4,0.2-1.1,0.1-1.4c0-0.4,0-0.6,0.2-0.6c0.4,0,1.6,1,2.3,1.7
				c0-0.1,0-0.2,0-0.3c0-18.6-8-35.4-20.8-47c-0.2,0-0.4-0.1-0.5-0.2C128.1,30.1,127.6,30,127.4,30z M112.5,55.9
				c0.1,0.3,0.4,0.6,0.5,0.7c0.2,0.1,0.3,0.5,0.3,1c0,0.6-0.1,0.8-0.5,1c-0.3,0.1-0.5,0.3-0.5,0.2c0,0-0.6-0.3-1.2-0.6l-1.2-0.6
				l0.1-0.9c0.1-1.1-0.1-1.5-0.9-2.4c-0.4-0.4-0.7-0.8-0.7-1c0-0.1-0.2-0.3-0.3-0.4c-0.5-0.3-0.4-0.5,0.5-1.3
				c1.4-1.3,2.5-1.3,3.3-0.2c0.3,0.5,0.2,0.8-0.2,0.6c-0.3-0.2-1,0.1-1.2,0.4c-0.3,0.5,0,0.9,0.8,1.3c0.4,0.2,0.7,0.4,0.7,0.5
				c0,0.1,0.1,0.1,0.3,0c0.3-0.1,0.4-0.1,0.7,0.3c0.2,0.3,0.3,0.6,0.3,0.7c0,0.2-0.5,0.4-0.8,0.3C112.3,55.4,112.3,55.4,112.5,55.9z
				"/>
			<path fill="#FFFFFF" d="M28.3,69c0-0.2-0.6-0.2-0.7,0v0c-0.1,0.1,0.1,0.1,0.3,0.1C28.1,69.1,28.3,69.1,28.3,69z"/>
			<path fill="#FFFFFF" d="M28.9,76.4c0,0-0.1,0.1-0.1,0.2c0,0.1,0.1,0.2,0.2,0.2s0.1-0.1,0.1-0.2C29,76.5,28.9,76.4,28.9,76.4z"/>
			<path fill="#FFFFFF" d="M26.9,69.5c0-0.2-0.2-0.2-0.5,0c-0.2,0.1-0.2,0.2,0.1,0.2C26.8,69.7,26.9,69.6,26.9,69.5z"/>
			<path fill="#FFFFFF" d="M29.6,76.6c0,0.1,0.1,0.2,0.1,0.3c0.1,0.1,0.2,0.1,0.2,0s0-0.2-0.1-0.3C29.7,76.5,29.6,76.5,29.6,76.6z"
				/>
			<path fill="#FFFFFF" d="M28.1,71.2c-0.8,0-0.9,0-0.7,0.3c0.2,0.4,0,0.6-0.9,0.6c-0.6,0-0.6,0-0.3,0.1c0.2,0.1,0.6,0.1,0.9,0.1
				c0.3-0.1,0.6,0,0.7,0.1c0.3,0.2,2.5-0.3,2.3-0.5C30,71.6,28.9,71.2,28.1,71.2z"/>
			<path fill="#FFFFFF" d="M31.6,72.1c-0.4,0-0.7,0.2-0.5,0.4c0.2,0.2,0.8,0,0.8-0.2C32,72.2,31.9,72.1,31.6,72.1z"/>
			<path fill="#FFFFFF" d="M25.2,65.7c0,0,0,0.2,0,0.4c0.1,0.2,0.1,0.2,0.2,0.2c0,0,0-0.2,0-0.4C25.3,65.8,25.2,65.7,25.2,65.7z"/>
			<path fill="#FFFFFF" d="M24.4,67c0-0.2,0-0.3-0.1-0.3c-0.3,0-0.3,0.4-0.1,0.7c0.1,0.2,0.3,0.2,0.4,0.2c0.1-0.1,0-0.1-0.1-0.2
				S24.3,67.2,24.4,67z"/>
			<path fill="#FFFFFF" d="M86.1,30c0.3,0.1,0.5,0.1,0.6-0.1c0.1-0.2,0.2-0.2,0.3,0c0.1,0.1,0.3,0.2,0.5,0.1c0.2-0.1,0.2-0.1,0,0.1
				c-0.1,0.1-0.5,0.2-0.7,0.2c-0.6,0-0.6,0.2,0.3,0.6l0.7,0.4l0.5-0.6c0.3-0.3,0.5-0.7,0.5-0.7c0-0.2,0.6-0.2,0.8,0.1
				c0.1,0.1,0.2,0.3,0.1,0.4c-0.1,0.1,0.1,0.2,0.5,0.1c0.4-0.1,0.6,0,0.6,0.1c0,0.1,0.1,0.1,0.2,0.1c0.2-0.1,0.2-0.1,0-0.3
				c-0.1-0.1-0.3-0.2-0.4-0.2c-0.3,0-1.2-0.6-1.2-0.7c0-0.1,0.1-0.1,0.3-0.1c0.8,0.2,1.5,0.3,1.9,0.1c0.8-0.3,0.5-0.5-0.7-0.5
				c-0.7,0-1.2-0.1-1.3-0.2c-0.2-0.2-0.2-0.2-0.2,0c0,0.1-0.1,0.2-0.2,0.2c-0.1,0-0.3,0.2-0.3,0.4l-0.1,0.4l-0.1-0.4
				c-0.1-0.4-0.6-0.5-0.6-0.2c0,0.1-0.6,0.1-1.6,0.1c-1.4-0.1-1.6-0.1-1.6,0.1C85,29.6,85.2,29.7,86.1,30z"/>
			<path fill="#FFFFFF" d="M24.5,72.3c-0.4-0.3-1.1-0.3-1.1-0.1c0,0.1,0.1,0.2,0.2,0.2c0.1,0,0.4,0.1,0.7,0.1
				C24.8,72.6,24.8,72.6,24.5,72.3z"/>
			<path fill="#FFFFFF" d="M24.1,65.9c0,0.1,0,0.3,0.1,0.3s0.2-0.1,0.3-0.3c0.2-0.2,0.2-0.3-0.1-0.3C24.3,65.7,24.1,65.8,24.1,65.9z
				"/>
			<path fill="#FFFFFF" d="M106.7,34.1L106.7,34.1c0.4,0.1,0.9,0.3,1.2,0.3l0.5,0l-0.4-0.3c-0.5-0.3-0.5-0.8,0.1-1.4
				c0.5-0.6,1.3-1,2.6-1.2c1.3-0.2,1.5-0.3,1.4-0.5c-0.1-0.1-0.4-0.1-0.8-0.1c-0.4,0.1-1.2,0.1-1.8,0.2c-0.6,0-1.3,0.2-1.6,0.3
				c-0.5,0.2-1.2,0.9-1.2,1.1c0,0.1-0.2,0.2-0.3,0.4s-0.3,0.3-0.2,0.3c0.1,0,0.1,0.1-0.1,0.3C105.8,33.7,105.8,33.7,106.7,34.1z"/>
		</g>
		<path fill="#573392" d="M86.1,141.8c-35.5,0-64.4-28.9-64.4-64.4s28.9-64.4,64.4-64.4s64.4,28.9,64.4,64.4S121.6,141.8,86.1,141.8
			z M86.1,14.7c-34.6,0-62.8,28.2-62.8,62.8s28.2,62.8,62.8,62.8s62.8-28.2,62.8-62.8S120.7,14.7,86.1,14.7z"/>
	</g>
	<path fill="#FFDA6E" d="M186.7,34.3l-3.1,1.9l-3.1,1.9c-2.1,1.3-4.2,2.5-6.3,3.8c-4.2,2.5-8.4,5-12.6,7.4L149,56.6l-12.7,7.2
		c-8.5,4.8-17,9.5-25.5,14.2c-4.3,2.3-8.5,4.7-12.8,7l-6.5,3.4c-2.1,1.1-4.3,2.3-6.5,3.4c-4.3,2.2-8.7,4.4-13.1,6.6
		c-4.4,2.1-8.8,4.3-13.2,6.3c-8.8,4.1-17.8,8-26.9,11.6c-4.6,1.8-9.1,3.5-13.8,5c-2.3,0.8-4.7,1.5-7.1,2.1c-1.2,0.3-2.4,0.6-3.7,0.8
		c-0.6,0.1-1.3,0.2-1.9,0.3c-0.7,0.1-1.3,0.1-2.1,0.1c-0.4,0-0.8,0-1.2-0.2c-0.2-0.1-0.5-0.2-0.8-0.3c-0.3-0.2-0.6-0.4-0.9-0.8
		c-0.3-0.4-0.4-0.9-0.3-1.3c0-0.4,0.1-0.7,0.2-0.9c0.2-0.5,0.4-0.8,0.6-1.1c0.4-0.6,0.9-1.1,1.4-1.5c0.5-0.5,1-0.9,1.4-1.3
		c1.9-1.6,4-3,6-4.3c4.1-2.7,8.3-5.1,12.6-7.4c-3.9,2.9-7.8,5.8-11.6,8.9c-1.9,1.5-3.7,3.1-5.4,4.7c-0.4,0.4-0.8,0.8-1.2,1.3
		c-0.4,0.4-0.7,0.9-1,1.3C3.1,121.7,3,121.9,3,122c0,0,0,0.1,0,0c0-0.1,0-0.2-0.1-0.4c-0.1-0.1-0.2-0.2-0.2-0.2c0,0,0,0,0.1,0
		c0.1,0,0.3,0,0.6,0c0.5,0,1-0.1,1.6-0.2c0.5-0.1,1.1-0.2,1.7-0.4c1.1-0.3,2.3-0.6,3.4-1c2.3-0.7,4.5-1.6,6.8-2.4
		c2.2-0.9,4.5-1.8,6.7-2.7c2.2-0.9,4.5-1.9,6.7-2.8c17.7-7.7,35.2-16.1,52.7-24.5l6.6-3.2l3.3-1.6c1.1-0.5,2.2-1.1,3.3-1.6
		c4.3-2.2,8.7-4.4,13-6.6l25.9-13.3l26-13.3C169.4,43.2,178,38.8,186.7,34.3z"/>
	<polygon fill="#FFDA6E" points="194.8,29.2 172.9,35.3 181.6,37.2 179,46.9 	"/>
	<path fill="#FFDA6E" d="M144.4,50c-3.2,1.6-6.5,3.2-9.7,4.9l-9.8,4.8c-6.5,3.2-13.1,6.3-19.6,9.4c-6.6,3.1-13.1,6.2-19.7,9.2
		l-9.9,4.5c-3.3,1.5-6.6,3-9.9,4.4c3.2-1.6,6.5-3.2,9.7-4.9l9.8-4.8c6.5-3.2,13.1-6.3,19.6-9.4c6.6-3.1,13.1-6.2,19.7-9.2l9.9-4.5
		C137.8,53,141.1,51.4,144.4,50z"/>
	<path fill="#FFDA6E" d="M94.1,93.7c-3.2,1.6-6.5,3.2-9.7,4.9l-9.8,4.8c-6.5,3.2-13.1,6.3-19.6,9.4c-6.6,3.1-13.1,6.2-19.7,9.2
		l-9.9,4.5c-3.3,1.5-6.6,3-9.9,4.4c3.2-1.6,6.5-3.2,9.7-4.9l9.8-4.8c6.5-3.2,13.1-6.3,19.6-9.4c6.6-3.1,13.1-6.2,19.7-9.2l9.9-4.5
		C87.5,96.7,90.8,95.1,94.1,93.7z"/>
	<path fill="#FFDA6E" d="M177.5,57.8c-4.2,2.2-8.4,4.3-12.7,6.4c-2.1,1-4.3,2.1-6.4,3.1l-6.4,3l-6.4,3c-2.2,1-4.3,2-6.5,3
		c-4.3,2-8.7,3.9-13,5.7c4.2-2.2,8.4-4.3,12.7-6.4c2.1-1,4.3-2.1,6.4-3.1l6.4-3l6.4-3c2.2-1,4.3-2,6.5-3
		C168.8,61.5,173.1,59.6,177.5,57.8z"/>
	<path fill="#FFDA6E" d="M139.2,86c-4.2,2.2-8.4,4.3-12.7,6.4c-2.1,1-4.3,2.1-6.4,3.1l-6.4,3l-6.4,3c-2.2,1-4.3,2-6.5,3
		c-4.3,2-8.7,3.9-13,5.7c4.2-2.2,8.4-4.3,12.7-6.4c2.1-1,4.3-2.1,6.4-3.1l6.4-3l6.4-3c2.2-1,4.3-2,6.5-3
		C130.5,89.8,134.8,87.9,139.2,86z"/>
	<path fill="#FFDA6E" d="M70.1,74.2c-4.2,2.2-8.4,4.3-12.7,6.4c-2.1,1-4.3,2.1-6.4,3.1l-6.4,3l-6.4,3c-2.2,1-4.3,2-6.5,3
		c-4.3,2-8.7,3.9-13,5.7c4.2-2.2,8.4-4.3,12.7-6.4c2.1-1,4.3-2.1,6.4-3.1l6.4-3l6.4-3c2.2-1,4.3-2,6.5-3
		C61.4,77.9,65.8,76,70.1,74.2z"/>
</g>
<g>
</g>
<g>
</g>
<g>
</g>
<g>
</g>
<g>
</g>
<g>
</g>
<g>
</g>
<g>
</g>
<g>
</g>
<g>
</g>
<g>
</g>
<g>
</g>
<g>
</g>
<g>
</g>
<g>
</g>
</svg>
