<?xml version="1.0" encoding="utf-8"?>
<!-- Generator: Adobe Illustrator 18.0.0, SVG Export Plug-In . SVG Version: 6.00 Build 0)  -->
<!DOCTYPE svg PUBLIC "-//W3C//DTD SVG 1.1//EN" "http://www.w3.org/Graphics/SVG/1.1/DTD/svg11.dtd">
<svg version="1.1" id="Layer_1" xmlns="http://www.w3.org/2000/svg" xmlns:xlink="http://www.w3.org/1999/xlink" x="0px" y="0px"
	 viewBox="0 0 414.9 183.1" enable-background="new 0 0 414.9 183.1" xml:space="preserve">
<g>
	<g>
		<g>
			<polygon fill="#1B75BC" points="99.2,98.2 37.6,98.2 37.9,56.2 99.4,56.2 			"/>
			<polygon fill="#1B3E61" points="37.9,68.7 99.4,61.8 99.4,61.8 37.9,61.4 			"/>
			<rect x="36.3" y="58.6" fill="#1B75BC" width="64.8" height="3.2"/>
		</g>
		<g>
			<rect x="49.7" y="73.5" fill="#FFFFFF" width="37.3" height="14"/>
			<g>
				<path d="M57.7,85.3V76h5.8v1.7h-4v2.1h3.6v1.6h-3.6v2.2h4v1.7H57.7z"/>
				<path d="M69.8,77.7v7.6h-1.8v-7.6h-3V76h7.7v1.7H69.8z"/>
				<path d="M74.3,85.3V76h5.9v1.7h-4.1V80h3.6v1.7h-3.6v3.6H74.3z"/>
			</g>
		</g>
	</g>
	<g>
		<g>
			<polygon fill="#AED581" points="173.1,98.2 111.6,98.2 111.9,56.2 173.4,56.2 			"/>
			<polygon fill="#5A6C45" points="111.9,68.7 173.4,61.8 173.4,61.8 111.9,61.4 			"/>
			<rect x="110.2" y="58.6" fill="#AED581" width="64.8" height="3.2"/>
		</g>
		<g>
			<rect x="123.7" y="73.5" fill="#FFFFFF" width="37.3" height="14"/>
			<g>
				<path d="M131.6,85.3V76h5.8v1.7h-4v2.1h3.6v1.6h-3.6v2.2h4v1.7H131.6z"/>
				<path d="M143.7,77.7v7.6h-1.8v-7.6h-3V76h7.7v1.7H143.7z"/>
				<path d="M148.3,85.3V76h5.9v1.7h-4.1V80h3.6v1.7h-3.6v3.6H148.3z"/>
			</g>
		</g>
	</g>
	<g>
		<g>
			<polygon fill="#FFDA6E" points="247.1,98.2 185.6,98.2 185.8,56.2 247.4,56.2 			"/>
			<polygon fill="#7D6E3D" points="184,68.7 245.5,61.8 245.5,61.8 184,61.4 			"/>
			<rect x="184.2" y="58.6" fill="#FFDA6E" width="64.8" height="3.2"/>
		</g>
		<g>
			<rect x="197.6" y="73.5" fill="#FFFFFF" width="37.3" height="14"/>
			<g>
				<path d="M205.6,85.3V76h5.8v1.7h-4v2.1h3.6v1.6h-3.6v2.2h4v1.7H205.6z"/>
				<path d="M217.7,77.7v7.6h-1.8v-7.6h-2.9V76h7.7v1.7H217.7z"/>
				<path d="M222.2,85.3V76h5.9v1.7h-4.1V80h3.6v1.7h-3.6v3.6H222.2z"/>
			</g>
		</g>
	</g>
	<g>
		<g>
			<polygon fill="#9C8FC4" points="321.1,98.2 259.5,98.2 259.8,56.2 321.3,56.2 			"/>
			<polygon fill="#4E4A65" points="259.8,68.7 321.3,61.8 321.3,61.8 259.8,61.4 			"/>
			<rect x="258.1" y="58.6" fill="#9C8FC4" width="64.8" height="3.2"/>
		</g>
		<g>
			<rect x="271.6" y="73.5" fill="#FFFFFF" width="37.3" height="14"/>
			<g>
				<path d="M279.6,85.3V76h5.8v1.7h-4v2.1h3.6v1.6h-3.6v2.2h4v1.7H279.6z"/>
				<path d="M291.6,77.7v7.6h-1.8v-7.6h-2.9V76h7.7v1.7H291.6z"/>
				<path d="M296.2,85.3V76h5.9v1.7H298V80h3.6v1.7H298v3.6H296.2z"/>
			</g>
		</g>
	</g>
	<rect x="0" y="100.3" fill="#F1F2F2" width="414.9" height="70.4"/>
	<rect x="5.4" y="97.3" fill="#E6E7E8" width="402.5" height="5.4"/>
	<g>
		<ellipse opacity="0.3" fill="#808285" cx="338.9" cy="180.1" rx="39.5" ry="3"/>
		<g>
			<polygon fill="#E6E7E8" points="332.7,2.8 331.7,7.6 335.7,24.9 340.4,21.3 343.4,25.4 358.1,17.8 345.6,2.9 			"/>
			<path fill="#032360" d="M350.5,8.3c0-2.5-1.7-7.7-7.6-8.2c-6-0.5-10.3,2.4-12.6,1.5c0,0,1.9,2.8,6.9,2.5c5-0.3,9.7,3.8,9.4,4.3
				L350.5,8.3z"/>
			<polygon fill="#E6E7E8" points="332.8,11.7 332.1,17 334.7,16.7 			"/>
			<path fill="#E6E7E8" d="M346.4,8.7c0.4-1.1,1.8-1.4,2.4-0.5c0.6,0.9,0.8,3,0,3.1c-0.9,0.1-1.4-0.3-1.4-0.3"/>
		</g>
		<path fill="#032360" d="M359.9,16.4c-10.3,1.6-17.6,8.8-17.6,8.8s-2.7,57.7-8.1,68.5l52.6-4.7C386.8,89,381,22.9,359.9,16.4z"/>
		<path fill="#032360" d="M343.3,24.5c-6.9,6.2-6.9,15.2-14.1,21.3c-6.8,5.9,4.7-15.2,4.7-15.2l-3-1.1c0,0-16.3,13.2-16.6,30
			c-0.3,16.8,31.1,2.3,31.1,2.3L343.3,24.5z"/>
		<polygon fill="#E6E7E8" points="333.9,30.6 337,28.8 339.1,23.8 338,23.9 336.2,26 333.6,23.3 334.7,22.2 336.1,22.5 336.3,25.1 
			337.1,24.5 337.1,22.3 335.1,21.2 334.2,21.2 332.8,22.7 332.1,22.8 330.2,24.4 329.9,27.5 330.9,29.5 		"/>
		<polygon fill="#E6E7E8" points="333.7,22.9 335.3,23 335.8,23.8 335.3,25.5 334.8,25.2 335,24.2 334.3,23.5 333.4,23.7 
			333.1,23.1 		"/>
		<path fill="#032360" d="M385.8,88c-1.9,27-15,55.7-17.3,86h-9.8c0,0-6.1-42.7-10.3-65.4c-4.2-22.7-8-23.3-8-23.3l23.4-10.8
			L385.8,88z"/>
		<path fill="#032360" d="M339.8,82.6l-5.6,90.7h7.5c0,0,14.1-50.1,23.9-59.8l-3.7-46L339.8,82.6z"/>
		<path fill="#231F20" d="M358.6,174l-10,5.3c0,0-6.1,1.9-2,1.9s22.2,0,22.2,0l-0.4-7.2H358.6z"/>
		<path fill="#231F20" d="M341.7,173.3v5.8c0,0-17.7,0-20.6,0s0.3-1.5,2.2-1.6s11-4.1,11-4.1"/>
	</g>
	<g>
		<path fill="#FFDA6E" d="M262,45.9L262,45.9L262,45.9c-1.8,0.3-3.5,1.1-4.9,2.3l0,0v0c-0.3-1.8-1.1-3.5-2.3-4.9l0,0l0,0
			c1.8-0.3,3.5-1.1,4.9-2.3l0,0v0C260,42.8,260.8,44.5,262,45.9z"/>
		
			<rect x="258.4" y="38.5" transform="matrix(0.9397 0.3419 -0.3419 0.9397 30.8275 -85.6817)" fill="#FFDA6E" width="0.2" height="12.2"/>
		
			<rect x="252.4" y="44.5" transform="matrix(0.9397 0.3419 -0.3419 0.9397 30.8275 -85.6817)" fill="#FFDA6E" width="12.2" height="0.2"/>
	</g>
	<g>
		<path fill="#FFDA6E" d="M176.5,41.8L176.5,41.8L176.5,41.8c-0.5,1.1-0.7,2.3-0.5,3.5v0v0c-1.1-0.5-2.3-0.7-3.5-0.5h0h0
			c0.5-1.1,0.7-2.3,0.5-3.5v0v0C174.1,41.8,175.3,41.9,176.5,41.8z"/>
		
			<rect x="174.4" y="39.2" transform="matrix(0.8027 -0.5963 0.5963 0.8027 8.6202 112.5919)" fill="#FFDA6E" width="0.1" height="8.1"/>
		
			<rect x="170.5" y="43.2" transform="matrix(0.8027 -0.5963 0.5963 0.8027 8.6202 112.5919)" fill="#FFDA6E" width="8.1" height="0.1"/>
	</g>
	<g>
		<path fill="#FFDA6E" d="M311.5,31.1L311.5,31.1L311.5,31.1c-0.5,1.1-0.7,2.3-0.5,3.5l0,0l0,0c-1.1-0.5-2.3-0.7-3.5-0.5l0,0v0
			c0.5-1.1,0.7-2.3,0.5-3.5v0h0C309.1,31.1,310.3,31.3,311.5,31.1z"/>
		
			<rect x="309.4" y="28.6" transform="matrix(0.8027 -0.5963 0.5963 0.8027 41.5911 190.9786)" fill="#FFDA6E" width="0.1" height="8.1"/>
		
			<rect x="305.4" y="32.6" transform="matrix(0.8027 -0.5963 0.5963 0.8027 41.5911 190.9786)" fill="#FFDA6E" width="8.1" height="0.1"/>
	</g>
	<g>
		<path fill="#FFDA6E" d="M100.1,38.6L100.1,38.6L100.1,38.6c-0.5,1.1-0.7,2.3-0.5,3.5l0,0l0,0c-1.1-0.5-2.3-0.7-3.5-0.5l0,0v0
			c0.5-1.1,0.7-2.3,0.5-3.5v0l0,0C97.7,38.6,98.9,38.7,100.1,38.6z"/>
		
			<rect x="98.1" y="36" transform="matrix(0.8027 -0.5963 0.5963 0.8027 -4.5359 66.4184)" fill="#FFDA6E" width="0.1" height="8.1"/>
		
			<rect x="94.1" y="40" transform="matrix(0.8027 -0.5963 0.5963 0.8027 -4.5359 66.4184)" fill="#FFDA6E" width="8.1" height="0.1"/>
	</g>
	<g>
		<path fill="#FFDA6E" d="M229.6,37.3L229.6,37.3L229.6,37.3c-0.5,1.1-0.7,2.3-0.5,3.5l0,0l0,0c-1.1-0.5-2.3-0.7-3.5-0.5l0,0v0
			c0.5-1.1,0.7-2.3,0.5-3.5l0,0l0,0C227.2,37.3,228.4,37.5,229.6,37.3z"/>
		
			<rect x="227.6" y="34.8" transform="matrix(0.8027 -0.5963 0.5963 0.8027 21.7533 143.3889)" fill="#FFDA6E" width="0.1" height="8.1"/>
		
			<rect x="223.6" y="38.8" transform="matrix(0.8027 -0.5963 0.5963 0.8027 21.7533 143.3889)" fill="#FFDA6E" width="8.1" height="0.1"/>
	</g>
	<g>
		<path fill="#FFDA6E" d="M289.2,29.1L289.2,29.1L289.2,29.1c-0.5,1.1-0.7,2.3-0.5,3.5v0v0c-1.1-0.5-2.3-0.7-3.5-0.5l0,0l0,0
			c0.5-1.1,0.7-2.3,0.5-3.5v0l0,0C286.7,29.1,288,29.2,289.2,29.1z"/>
		
			<rect x="287.1" y="26.5" transform="matrix(0.8027 -0.5963 0.5963 0.8027 38.4142 177.2624)" fill="#FFDA6E" width="0.1" height="8.1"/>
		
			<rect x="283.1" y="30.5" transform="matrix(0.8027 -0.5963 0.5963 0.8027 38.4142 177.2624)" fill="#FFDA6E" width="8.1" height="0.1"/>
	</g>
</g>
<g>
</g>
<g>
</g>
<g>
</g>
<g>
</g>
<g>
</g>
<g>
</g>
<g>
</g>
<g>
</g>
<g>
</g>
<g>
</g>
<g>
</g>
<g>
</g>
<g>
</g>
<g>
</g>
<g>
</g>
</svg>
