<?xml version="1.0" encoding="utf-8"?>
<!-- Generator: Adobe Illustrator 18.0.0, SVG Export Plug-In . SVG Version: 6.00 Build 0)  -->
<!DOCTYPE svg PUBLIC "-//W3C//DTD SVG 1.1//EN" "http://www.w3.org/Graphics/SVG/1.1/DTD/svg11.dtd">
<svg version="1.1" id="Layer_1" xmlns="http://www.w3.org/2000/svg" xmlns:xlink="http://www.w3.org/1999/xlink" x="0px" y="0px"
	 viewBox="0 0 899.2 406.5" enable-background="new 0 0 899.2 406.5" xml:space="preserve">
<g>
	<path fill="#7F58A5" d="M264.3,350.8c-1.1,0-2.1-0.1-3.2-0.2l0.1-1c1.3,0.2,2.6,0.2,3.9,0.2l0,1
		C264.9,350.8,264.6,350.8,264.3,350.8z M269.2,350.6l-0.1-1c1.3-0.1,2.6-0.3,3.9-0.5l0.2,1C271.9,350.3,270.5,350.5,269.2,350.6z
		 M257.1,349.8c-1.3-0.4-2.6-0.8-3.8-1.4l0.4-0.9c1.2,0.5,2.4,1,3.7,1.3L257.1,349.8z M277.1,349.3l-0.3-1c1.3-0.3,2.5-0.7,3.8-1.2
		l0.3,0.9C279.7,348.5,278.4,348.9,277.1,349.3z M249.7,346.6c-1.1-0.7-2.2-1.4-3.4-2.3l0.6-0.8c1.1,0.8,2.2,1.5,3.3,2.2
		L249.7,346.6z M284.7,346.5l-0.4-0.9c1.2-0.6,2.3-1.2,3.4-1.9l0.5,0.8C287.1,345.2,285.9,345.9,284.7,346.5z M291.5,342.2l-0.6-0.8
		c1-0.8,2-1.7,3-2.6l0.7,0.7C293.6,340.5,292.6,341.4,291.5,342.2z M243.3,341.8c-1-0.9-2-1.8-2.9-2.8l0.7-0.7c1,1,1.9,1.9,2.9,2.7
		L243.3,341.8z M297.4,336.6l-0.8-0.6c0.8-1,1.7-2,2.4-3.1l0.8,0.6C299.1,334.5,298.2,335.6,297.4,336.6z M237.6,336.1
		c-0.9-1-1.7-2-2.6-3.1l0.8-0.6c0.9,1.1,1.7,2.1,2.6,3L237.6,336.1z M302,330l-0.9-0.5c0.7-1.1,1.3-2.3,1.9-3.5l0.9,0.4
		C303.4,327.7,302.7,328.9,302,330z M232.5,329.9c-0.8-1.1-1.6-2.1-2.4-3.2l0.8-0.6c0.8,1.1,1.6,2.2,2.4,3.2L232.5,329.9z
		 M227.7,323.4c-0.8-1.1-1.5-2.2-2.3-3.3l0.8-0.6c0.7,1.1,1.5,2.2,2.3,3.3L227.7,323.4z M305.6,322.8l-0.9-0.4
		c0.5-1.2,1-2.5,1.4-3.7l0.9,0.3C306.6,320.3,306.1,321.5,305.6,322.8z M223.3,316.7c-0.7-1.1-1.5-2.2-2.2-3.4l0.8-0.5
		c0.7,1.1,1.5,2.2,2.2,3.4L223.3,316.7z M308.2,315.1l-1-0.3c0.3-1.3,0.7-2.6,1-3.9l1,0.2C308.9,312.5,308.6,313.8,308.2,315.1z
		 M135.3,312.8l-1-0.3c0.4-1.3,0.8-2.5,1.3-3.8l0.9,0.3C136.1,310.3,135.7,311.6,135.3,312.8z M218.9,310l-2.2-3.4l0.8-0.5l2.2,3.4
		L218.9,310z M309.9,307.2l-1-0.2c0.2-1.3,0.4-2.6,0.5-3.9l1,0.1C310.3,304.6,310.2,305.9,309.9,307.2z M137.9,305.2l-0.9-0.3
		c0.5-1.3,0.9-2.5,1.4-3.8l0.9,0.4C138.8,302.8,138.3,304,137.9,305.2z M214.5,303.3c-0.7-1.1-1.5-2.2-2.2-3.3l0.8-0.6
		c0.7,1.1,1.5,2.2,2.2,3.3L214.5,303.3z M310.8,299.2l-1,0c0-0.3,0-0.5,0-0.6l0.4-0.5l0.1,0.5l0.5,0
		C310.8,298.7,310.8,298.9,310.8,299.2z M140.8,297.8l-0.9-0.4c0.6-1.3,1.1-2.5,1.7-3.6l0.9,0.4
		C141.9,295.4,141.4,296.6,140.8,297.8z M210,296.7c-0.8-1.1-1.5-2.2-2.3-3.2l0.8-0.6c0.8,1.1,1.6,2.2,2.3,3.3L210,296.7z
		 M144.4,290.8l-0.9-0.5c0.7-1.2,1.4-2.3,2.2-3.4l0.8,0.6C145.8,288.5,145.1,289.6,144.4,290.8z M205.3,290.2
		c-0.8-1.1-1.7-2.1-2.5-3.1l0.8-0.6c0.8,1,1.7,2,2.5,3.1L205.3,290.2z M148.9,284.3l-0.8-0.6c0.9-1.1,1.8-2.1,2.7-3l0.7,0.7
		C150.7,282.2,149.8,283.2,148.9,284.3z M200.2,284.2c-0.9-1-1.9-2-2.8-2.8l0.7-0.7c0.9,0.9,1.9,1.9,2.8,2.9L200.2,284.2z
		 M154.5,278.7l-0.6-0.8c1.1-0.8,2.2-1.6,3.3-2.3l0.5,0.9C156.6,277.2,155.6,277.9,154.5,278.7z M194.4,278.7
		c-1.1-0.9-2.1-1.7-3.2-2.4l0.6-0.8c1.1,0.7,2.2,1.5,3.2,2.4L194.4,278.7z M161.2,274.7l-0.4-0.9c1.2-0.5,2.5-1,3.8-1.4l0.3,1
		C163.7,273.7,162.4,274.2,161.2,274.7z M187.8,274.4c-1.2-0.6-2.4-1.1-3.6-1.5l0.3-0.9c1.2,0.4,2.5,0.9,3.7,1.6L187.8,274.4z
		 M168.7,272.4l-0.2-1c1.3-0.2,2.6-0.4,4-0.6l0.1,1C171.3,271.9,170,272.1,168.7,272.4z M180.5,271.9c-1.2-0.2-2.5-0.3-3.7-0.3h-0.2
		v-1h0.2c1.3,0,2.6,0.1,3.9,0.3L180.5,271.9z"/>
	<path fill="#7F58A5" d="M109,198.9H74.7c-8,0-14.6-6.5-14.6-14.6v-8.3H40.1c-0.3,0-0.5-0.2-0.5-0.5s0.2-0.5,0.5-0.5h20.6
		c0.3,0,0.5,0.2,0.5,0.5v8.8c0,7.5,6.1,13.6,13.6,13.6H109c0.3,0,0.5,0.2,0.5,0.5S109.2,198.9,109,198.9z"/>
	<path fill="#7F58A5" d="M286.7,198.9H157c-0.3,0-0.5-0.2-0.5-0.5s0.2-0.5,0.5-0.5h129.6c5,0,9-4,9-9c0-5.5,4.5-10,10-10h36.9
		c6,0,11-4.9,11-11c0-6-4.9-11-11-11h-52.7c-5.5,0-10-4.5-10-10c0-5-4-9-9-9h-39.5c-0.3,0-0.5-0.2-0.5-0.5s0.2-0.5,0.5-0.5h39.5
		c5.5,0,10,4.5,10,10c0,5,4,9,9,9h52.7c6.6,0,12,5.4,12,12c0,6.6-5.4,12-12,12h-36.9c-5,0-9,4-9,9
		C296.6,194.4,292.2,198.9,286.7,198.9z"/>
	<path fill="#7F58A5" d="M44.5,164.5H12.7c-0.3,0-0.5-0.2-0.5-0.5V0.5c0-0.3,0.2-0.5,0.5-0.5s0.5,0.2,0.5,0.5v163H44v-7.3
		c0-10.6,8.6-19.2,19.2-19.2h126.2c0.3,0,0.5,0.2,0.5,0.5s-0.2,0.5-0.5,0.5H63.2c-10,0-18.2,8.2-18.2,18.2v7.8
		C45,164.3,44.8,164.5,44.5,164.5z"/>
	<path fill="#7F58A5" d="M456.4,199.4h-2.6c-0.3,0-0.5-0.2-0.5-0.5s0.2-0.5,0.5-0.5h2.6c0.3,0,0.5,0.2,0.5,0.5
		S456.7,199.4,456.4,199.4z M449.8,199.4h-4c-0.3,0-0.5-0.2-0.5-0.5s0.2-0.5,0.5-0.5h4c0.3,0,0.5,0.2,0.5,0.5
		S450.1,199.4,449.8,199.4z M441.8,199.4h-4c-0.3,0-0.5-0.2-0.5-0.5s0.2-0.5,0.5-0.5h4c0.3,0,0.5,0.2,0.5,0.5
		S442.1,199.4,441.8,199.4z M433.8,199.4h-4c-0.3,0-0.5-0.2-0.5-0.5s0.2-0.5,0.5-0.5h4c0.3,0,0.5,0.2,0.5,0.5
		S434.1,199.4,433.8,199.4z M425.8,199.4h-4c-0.3,0-0.5-0.2-0.5-0.5s0.2-0.5,0.5-0.5h4c0.3,0,0.5,0.2,0.5,0.5
		S426.1,199.4,425.8,199.4z M417.8,199.4h-4c-0.3,0-0.5-0.2-0.5-0.5s0.2-0.5,0.5-0.5h4c0.3,0,0.5,0.2,0.5,0.5
		S418.1,199.4,417.8,199.4z M409.8,199.4h-4c-0.3,0-0.5-0.2-0.5-0.5s0.2-0.5,0.5-0.5h4c0.3,0,0.5,0.2,0.5,0.5
		S410.1,199.4,409.8,199.4z M401.8,199.4h-4c-0.3,0-0.5-0.2-0.5-0.5s0.2-0.5,0.5-0.5h4c0.3,0,0.5,0.2,0.5,0.5
		S402.1,199.4,401.8,199.4z M393.8,199.4h-4c-0.3,0-0.5-0.2-0.5-0.5s0.2-0.5,0.5-0.5h4c0.3,0,0.5,0.2,0.5,0.5
		S394.1,199.4,393.8,199.4z M385.8,199.4h-4c-0.3,0-0.5-0.2-0.5-0.5s0.2-0.5,0.5-0.5h4c0.3,0,0.5,0.2,0.5,0.5
		S386.1,199.4,385.8,199.4z M377.8,199.4h-4c-0.3,0-0.5-0.2-0.5-0.5s0.2-0.5,0.5-0.5h4c0.3,0,0.5,0.2,0.5,0.5
		S378.1,199.4,377.8,199.4z M369.8,199.4h-4c-0.3,0-0.5-0.2-0.5-0.5s0.2-0.5,0.5-0.5h4c0.3,0,0.5,0.2,0.5,0.5
		S370.1,199.4,369.8,199.4z M361.8,199.4h-4c-0.3,0-0.5-0.2-0.5-0.5s0.2-0.5,0.5-0.5h4c0.3,0,0.5,0.2,0.5,0.5
		S362.1,199.4,361.8,199.4z M353.8,199.4h-4c-0.3,0-0.5-0.2-0.5-0.5s0.2-0.5,0.5-0.5h4c0.3,0,0.5,0.2,0.5,0.5
		S354.1,199.4,353.8,199.4z"/>
	<path fill="#7F58A5" d="M204.2,210.4H97.6c-0.3,0-0.5-0.2-0.5-0.5s0.2-0.5,0.5-0.5h106.6c0.3,0,0.5,0.2,0.5,0.5
		S204.5,210.4,204.2,210.4z"/>
	<g>
		<path fill="#BCBEC0" d="M223,367.4c-4.5-2-9-4.1-13.3-6.4c-4.4-2.3-8.7-4.8-12.9-7.3c-4.2-2.6-8.4-5.3-12.4-8.1
			c-2-1.4-4-2.9-6-4.3c-2-1.5-3.9-3-5.8-4.6l6.1,4.2c2,1.4,4.1,2.8,6.2,4.1c4.1,2.7,8.3,5.3,12.5,7.9c4.2,2.6,8.5,5,12.8,7.5
			C214.3,362.7,218.6,365,223,367.4z"/>
		
			<linearGradient id="SVGID_1_" gradientUnits="userSpaceOnUse" x1="-1068.4763" y1="710.2719" x2="-1068.4763" y2="777.1924" gradientTransform="matrix(0.8546 0.5192 -0.5192 0.8546 1488.5471 284.5247)">
			<stop  offset="0" style="stop-color:#FFF33B;stop-opacity:0"/>
			<stop  offset="1.385293e-002" style="stop-color:#FEEF3B;stop-opacity:2.072120e-002"/>
			<stop  offset="0.1383" style="stop-color:#FACD3D;stop-opacity:0.2069"/>
			<stop  offset="0.2654" style="stop-color:#F7B23E;stop-opacity:0.397"/>
			<stop  offset="0.3946" style="stop-color:#F59F3E;stop-opacity:0.5902"/>
			<stop  offset="0.5273" style="stop-color:#F3943F;stop-opacity:0.7887"/>
			<stop  offset="0.6685" style="stop-color:#F3903F"/>
			<stop  offset="0.8876" style="stop-color:#ED683C"/>
			<stop  offset="1" style="stop-color:#E93E3A"/>
		</linearGradient>
		<path fill="url(#SVGID_1_)" d="M178.5,340c-7.3,5-11.1,17.5-9.4,23.5l5.2-3.5c-3.8,7.1-5.4,15.1-4.8,23.9l5.8-5.6
			c-1.9,4.6-0.2,10.3-5.3,20.7c6.6-10.7,14.6-10.7,19.1-15.3l-1.8,8c6.6-5,11.9-10.4,15.4-16.3l-3.3,11.4c9.7-7.7,17.1-18.7,18-23.3
			l-5.7-27.9L178.5,340z"/>
		<path fill="#E6E7E8" d="M248.3,378.3L229.6,367c-0.9,0.9-1.9,1.8-2.8,2.7l-3.8-2.3l-1.3,2.1c-8.2-3.1-43.9-24.8-50.5-30.7l1.3-2.1
			l-3.8-2.3c0.3-1.3,0.7-2.5,1.1-3.8L151,319.2l37.9-25.7c17.1-24.1,40.2-44,57.1-53.1l28.4,17.2c-0.3,19.3-7.3,48.9-20.8,75.2
			L248.3,378.3z"/>
		
			<linearGradient id="SVGID_2_" gradientUnits="userSpaceOnUse" x1="-1098.9535" y1="669.2908" x2="-1066.6284" y2="669.2908" gradientTransform="matrix(0.8546 0.5192 -0.5192 0.8546 1488.5471 284.5247)">
			<stop  offset="0" style="stop-color:#FFFFFF"/>
			<stop  offset="1" style="stop-color:#231F20"/>
		</linearGradient>
		<path opacity="0.6" fill="url(#SVGID_2_)" d="M260.5,248.7l-64.6,106.4l-24.6-16.4l1.3-2.1l-3.8-2.3l1.1-3.8l19.2-37.1
			c0,0,26.9-37.6,57.1-53.1L260.5,248.7z"/>
		<path fill="#A7A9AC" d="M225.4,306c-9-5.5-11.7-17.4-6-26.7c5.7-9.3,17.5-12.4,26.5-7"/>
		<path fill="#BCBEC0" d="M245.9,272.3c9,5.5,11.7,17.4,6,26.7c-5.7,9.3-17.5,12.4-26.5,7"/>
		<polygon fill="#BCBEC0" points="189,293.5 169.8,330.6 151,319.2 		"/>
		<polygon fill="#BCBEC0" points="253.7,332.8 248.3,378.3 229.6,367 		"/>
		<path fill="#414042" d="M246.1,240.4l21.3-9c2.4-1,5,0.6,5.3,3.2l1.8,23L246.1,240.4z"/>
		<g id="yq35wh_5_">
			<g>
				<path fill="#0C56AB" d="M226.5,277.8c0.4-0.4,0.7-0.8,1-1.1c0.1-0.1,0.1-0.2,0.1-0.4c-0.1-0.5-0.3-1-0.4-1.5c0,0,0.1,0,0.1,0
					c0.3,0.1,0.6,0.3,0.9,0.4c0.1,0,0.2,0.1,0.2,0.1c0.3,0.2,0.5,0.1,0.8-0.1c0.3-0.2,0.7-0.5,1-0.7c-0.1,0.5-0.1,1-0.2,1.5
					c0,0.1,0,0.2,0.1,0.3c0.4,0.3,0.8,0.6,1.2,0.9c-0.4,0.1-0.7,0.2-1,0.3c-0.5,0.1-0.8,0.3-0.9,0.8c-0.1,0.3-0.2,0.6-0.4,1
					c-0.2-0.3-0.4-0.7-0.6-1c-0.2-0.4-0.4-0.6-0.9-0.5C227.2,277.9,226.9,277.8,226.5,277.8z"/>
				<path fill="#0C56AB" d="M237.1,300.5c-0.1,0.5-0.1,1-0.2,1.5c0,0.2,0,0.3,0.2,0.4c0.4,0.3,0.7,0.6,1,0.8c0,0,0,0,0.1,0.1
					c-0.2,0.1-0.4,0.1-0.5,0.2c-0.2,0.1-0.4,0.2-0.7,0.2c-0.4,0-0.5,0.3-0.6,0.6c-0.1,0.4-0.3,0.7-0.5,1.1c-0.2-0.4-0.5-0.8-0.7-1.2
					c-0.1-0.2-0.2-0.2-0.4-0.2c-0.5,0-0.9,0-1.4,0c0.3-0.3,0.5-0.7,0.8-1c0.2-0.2,0.3-0.5,0.2-0.8c-0.1-0.4-0.2-0.8-0.3-1.2
					c0,0,0,0,0.1,0c0.3,0.1,0.6,0.2,0.9,0.4c0.4,0.2,0.7,0.2,1.1-0.1C236.5,300.9,236.8,300.7,237.1,300.5z"/>
				<path fill="#0C56AB" d="M251.2,287.2c-0.1,0.5-0.1,1-0.2,1.5c0,0.2,0,0.2,0.1,0.3c0.4,0.3,0.8,0.6,1.2,0.9
					c-0.1,0-0.2,0.1-0.3,0.1c-0.4,0.1-0.8,0.2-1.3,0.3c-0.1,0-0.2,0.1-0.3,0.2c-0.2,0.5-0.4,0.9-0.6,1.4c0-0.1-0.1-0.1-0.1-0.1
					c-0.2-0.4-0.4-0.7-0.6-1.1c-0.1-0.1-0.2-0.2-0.3-0.2c-0.5,0-1,0-1.5-0.1c0.3-0.4,0.6-0.7,0.9-1c0.2-0.2,0.3-0.4,0.2-0.7
					c-0.1-0.4-0.2-0.8-0.3-1.3c0.4,0.2,0.9,0.4,1.3,0.6c0.2,0.1,0.3,0.1,0.5,0C250.3,287.8,250.7,287.5,251.2,287.2z"/>
				<path fill="#0C56AB" d="M226,295.9c-0.5,0.1-1,0.2-1.5,0.3c-0.1,0-0.2,0.1-0.3,0.2c-0.2,0.4-0.3,0.8-0.5,1.2
					c0,0.1,0,0.1-0.1,0.2c-0.2-0.4-0.5-0.8-0.7-1.2c-0.1-0.2-0.2-0.2-0.4-0.2c-0.5,0-0.9,0-1.4,0c0.3-0.3,0.5-0.7,0.8-0.9
					c0.2-0.3,0.3-0.5,0.2-0.9c-0.1-0.4-0.2-0.8-0.3-1.2c0.3,0.1,0.5,0.2,0.7,0.3c0.2,0.1,0.5,0.2,0.7,0.3c0.1,0,0.2,0,0.3,0
					c0.4-0.3,0.8-0.6,1.3-0.9c-0.1,0.5-0.1,0.9-0.2,1.3c0,0.3,0,0.4,0.3,0.6c0.3,0.2,0.7,0.5,1,0.8C226,295.8,226,295.9,226,295.9z"
					/>
				<path fill="#0C56AB" d="M221.2,283.2c0.4-0.4,0.7-0.8,1-1.2c0.1-0.1,0.1-0.2,0.1-0.3c-0.1-0.4-0.2-0.8-0.3-1.3
					c0-0.1,0-0.1,0-0.2c0.5,0.2,1,0.4,1.4,0.5c0.1,0,0.2,0,0.3,0c0.4-0.3,0.8-0.6,1.3-0.9c0,0.2,0,0.4-0.1,0.5c0,0.1,0,0.2,0,0.4
					c0,0.3-0.1,0.6,0,0.8c0.1,0.2,0.4,0.4,0.6,0.6c0.2,0.2,0.4,0.4,0.6,0.6c-0.1,0-0.1,0-0.2,0.1c-0.4,0.1-0.8,0.2-1.2,0.3
					c-0.2,0-0.2,0.1-0.3,0.2c-0.2,0.5-0.4,0.9-0.6,1.4c-0.2-0.4-0.4-0.7-0.6-1c-0.2-0.4-0.4-0.5-0.8-0.5
					C222,283.2,221.6,283.2,221.2,283.2z"/>
				<path fill="#0C56AB" d="M245.1,297.6c0.3-0.4,0.6-0.8,1-1.2c0.1-0.1,0.1-0.2,0.1-0.3c-0.1-0.5-0.2-0.9-0.3-1.4
					c0.3,0.1,0.7,0.2,1,0.4c0.4,0.2,0.8,0.2,1.2-0.1c0.2-0.2,0.5-0.4,0.8-0.5c0,0,0,0,0.1,0c0,0.3,0,0.7-0.1,1
					c-0.1,0.5,0,0.9,0.4,1.2c0.3,0.2,0.5,0.4,0.7,0.6c-0.1,0-0.1,0-0.2,0.1c-0.4,0.1-0.8,0.2-1.3,0.3c-0.1,0-0.2,0.1-0.3,0.2
					c-0.2,0.5-0.3,0.9-0.5,1.4c0,0,0,0,0,0c-0.1-0.1-0.2-0.3-0.2-0.4c-0.2-0.3-0.3-0.6-0.5-0.8c-0.1-0.1-0.1-0.2-0.3-0.2
					C246.1,297.7,245.6,297.7,245.1,297.6z"/>
				<path fill="#0C56AB" d="M246.3,280.8c0.5,0.2,1,0.4,1.4,0.5c0.1,0.1,0.3,0,0.4,0c0.4-0.3,0.8-0.5,1.2-0.8c0,0.5-0.1,1-0.1,1.4
					c0,0.1,0,0.2,0.1,0.3c0.4,0.3,0.7,0.6,1.1,1c-0.1,0-0.1,0-0.2,0.1c-0.4,0.1-0.8,0.2-1.3,0.3c-0.1,0-0.2,0.1-0.3,0.2
					c-0.2,0.5-0.4,0.9-0.6,1.4c0-0.1-0.1-0.1-0.1-0.1c-0.2-0.4-0.4-0.8-0.6-1.1c-0.1-0.1-0.1-0.2-0.3-0.2c-0.4,0-0.8,0-1.3,0
					c-0.1,0-0.1,0-0.2,0c0.2-0.3,0.4-0.5,0.6-0.8c0-0.1,0.1-0.1,0.1-0.2c0.3-0.3,0.4-0.6,0.2-0.9
					C246.5,281.6,246.4,281.2,246.3,280.8z"/>
				<path fill="#0C56AB" d="M235.8,277.8c-0.2-0.4-0.5-0.8-0.6-1.2c-0.1-0.2-0.3-0.3-0.5-0.3c-0.4,0-0.9,0-1.3,0
					c0.3-0.3,0.5-0.7,0.8-0.9c0.2-0.3,0.3-0.5,0.2-0.9c-0.1-0.4-0.2-0.7-0.3-1.1c0.5,0.2,1,0.4,1.4,0.5c0.1,0.1,0.2,0,0.3,0
					c0.4-0.3,0.8-0.5,1.2-0.8c0,0.4,0,0.7-0.1,1c-0.1,0.5,0,0.8,0.4,1.1c0.3,0.2,0.5,0.4,0.8,0.7c-0.4,0.1-0.7,0.2-1,0.2
					c-0.5,0-0.8,0.3-0.9,0.8C236.1,277.2,236,277.5,235.8,277.8z"/>
				<path fill="#0C56AB" d="M220.1,286.5c0.5,0.2,1,0.4,1.4,0.6c0.1,0,0.2,0,0.3,0c0.4-0.2,0.7-0.4,1.1-0.7c0.1,0,0.1-0.1,0.2-0.1
					c0,0.5-0.1,1-0.1,1.5c0,0.1,0,0.2,0.1,0.3c0.4,0.3,0.7,0.6,1.1,1c-0.2,0.1-0.4,0.1-0.5,0.1c0,0,0,0,0,0c-0.3,0.1-0.8,0.1-1,0.3
					c-0.2,0.2-0.3,0.6-0.4,1c-0.1,0.2-0.1,0.4-0.2,0.6c-0.3-0.5-0.5-0.9-0.8-1.3c-0.1-0.1-0.1-0.2-0.3-0.2c-0.4,0-0.8,0-1.2,0
					c-0.1,0-0.1,0-0.2,0c0.3-0.3,0.5-0.7,0.8-0.9c0.3-0.2,0.3-0.5,0.2-0.8C220.2,287.4,220.2,287,220.1,286.5z"/>
				<path fill="#0C56AB" d="M240.3,302.2c0.4-0.4,0.7-0.8,1-1.2c0.1-0.1,0.1-0.2,0.1-0.3c-0.1-0.5-0.2-0.9-0.4-1.4c0,0,0,0,0.1,0
					c0.3,0.1,0.5,0.2,0.8,0.3c0.2,0.1,0.4,0.2,0.6,0.3c0.1,0.1,0.2,0,0.3,0c0.4-0.3,0.8-0.5,1.2-0.8c0,0.4,0,0.7-0.1,1
					c-0.1,0.5,0,0.8,0.4,1.1c0.3,0.2,0.5,0.4,0.7,0.6c0,0,0,0,0,0.1c-0.1,0-0.3,0.1-0.4,0.1c-0.3,0.1-0.7,0.2-1,0.2
					c-0.2,0-0.2,0.1-0.3,0.3c-0.2,0.4-0.3,0.8-0.5,1.2c0,0-0.1,0.1-0.1,0.2c-0.2-0.4-0.5-0.8-0.7-1.2c-0.1-0.2-0.2-0.2-0.4-0.2
					C241.3,302.3,240.8,302.2,240.3,302.2z"/>
				<path fill="#0C56AB" d="M230.6,302.1c-0.5,0.1-0.9,0.2-1.3,0.3c-0.2,0.1-0.4,0.2-0.5,0.4c-0.2,0.4-0.4,0.8-0.6,1.3
					c-0.2-0.3-0.4-0.6-0.5-1c-0.2-0.4-0.4-0.5-0.8-0.5c-0.3,0-0.7,0-1.1,0c0.2-0.3,0.4-0.6,0.7-0.8c0.3-0.3,0.4-0.7,0.3-1.1
					c-0.1-0.3-0.2-0.7-0.3-1c0,0,0,0,0.1,0c0.4,0.2,0.8,0.4,1.3,0.6c0.2,0.1,0.3,0.1,0.5,0c0.4-0.3,0.8-0.5,1.2-0.8
					c0,0.1,0,0.1,0,0.2c0,0.4-0.1,0.8-0.1,1.3c0,0.2,0,0.3,0.2,0.4C229.8,301.5,230.2,301.8,230.6,302.1z"/>
				<path fill="#0C56AB" d="M240.6,278.1c0.3-0.4,0.6-0.8,0.9-1.2c0.1-0.1,0.1-0.2,0.1-0.4c-0.1-0.4-0.2-0.9-0.4-1.3c0,0,0,0,0.1,0
					c0.2,0.1,0.3,0.1,0.5,0.2c0.3,0.1,0.6,0.3,0.9,0.4c0.1,0,0.2,0,0.3,0c0.4-0.3,0.8-0.5,1.3-0.8c0,0.1,0,0.1,0,0.2
					c0,0.4-0.1,0.9-0.1,1.3c0,0.1,0,0.2,0.1,0.2c0.4,0.3,0.8,0.6,1.2,1c-0.5,0.1-0.9,0.2-1.4,0.4c-0.2,0-0.2,0.1-0.3,0.3
					c-0.2,0.4-0.4,0.9-0.6,1.4c-0.1-0.1-0.2-0.3-0.2-0.4c-0.2-0.3-0.4-0.6-0.5-0.9c-0.1-0.1-0.1-0.2-0.3-0.2
					C241.6,278.2,241.1,278.1,240.6,278.1z"/>
			</g>
		</g>
		<path fill="#BCBEC0" d="M213.1,339.3c-7.4,12.2-19.2,18.5-19.2,18.5s0.2-13.4,7.6-25.6s16-20.5,19.2-18.5
			C223.9,315.7,220.5,327.1,213.1,339.3z"/>
	</g>
	<g>
		<path fill="#7F58A5" d="M316.7,235.9c-1.9-1.8-3.5-2.8-5.9-2.8c-2.7,0-4.3,1.3-4.3,3.8c0,5.7,14,5,13.9,15.3c0,5-2.9,8.8-8.2,9.7
			l0,5.4l-4.6,0l0-5.2c-3.1-0.4-6.7-1.9-9.1-4.1l3-4.5c2.5,2,5,3.2,7.6,3.2c3.2,0,4.7-1.4,4.7-4c0-6.2-14-5.8-13.9-15.4
			c0-5,3.1-8.5,7.9-9.4l0-5.4l4.6,0l0,5.3c3.3,0.5,5.7,2.2,7.6,4.3L316.7,235.9z"/>
	</g>
	<polygon fill="#7F58A5" points="304.7,295.7 310.2,281.3 315.3,296.1 	"/>
	<path fill="#7F58A5" d="M161.9,399.1c-0.1,0-0.2,0-0.3-0.1c-20.4-16-45-43.1-46.5-81.1H34.3c-9.2,0-17.8-3.6-24.2-10
		c-6.5-6.5-10-15.1-10-24.2L0,30.8c0-0.3,0.2-0.5,0.5-0.5l0,0c0.3,0,0.5,0.2,0.5,0.5l0,252.8c0,8.9,3.5,17.3,9.7,23.5
		c6.3,6.3,14.6,9.8,23.5,9.8h81.3c0.3,0,0.5,0.2,0.5,0.5c1.3,37.9,25.8,64.9,46.1,80.9c0.2,0.2,0.3,0.5,0.1,0.7
		C162.2,399,162,399.1,161.9,399.1z"/>
	<polygon fill="#7F58A5" points="114.5,283 113.5,283 113.5,246.1 213.3,246.1 213.3,247.1 114.5,247.1 	"/>
	<path fill="#7F58A5" d="M220.5,406.5h-13.5v-1h13.5c63.2,0,114.7-51.4,114.7-114.7v-0.3l21.6-13.6h-21.6v-17.8h-8v-1h9V276h24.1
		l-24.1,15.2C336,354.8,284.1,406.5,220.5,406.5z"/>
	<path fill="#7F58A5" d="M876.7,290.3v-1c11.9,0,21.5-9.7,21.5-21.5V267c0-11.9-9.7-21.5-21.5-21.5h-52.1c-5.6,0-10.2-4.6-10.2-10.2
		c0-5.1-4.1-9.2-9.2-9.2H383v-1h422.2c5.6,0,10.2,4.6,10.2,10.2c0,5.1,4.1,9.2,9.2,9.2h52.1c12.4,0,22.5,10.1,22.5,22.5v0.8
		C899.2,280.2,889.1,290.3,876.7,290.3z"/>
	<path fill="#7F58A5" d="M550.5,376.8h-142c-11.2,0-20.2-9.1-20.2-20.2v-20.9h1v20.9c0,10.6,8.6,19.2,19.2,19.2h142V376.8z"/>
	<path fill="#7F58A5" d="M805.8,357.7h9.2c0.3,0,0.5,0.2,0.5,0.5s-0.2,0.5-0.5,0.5h-8.7v7.4c0,6-4.9,10.9-10.9,10.9h-80.7
		c-0.3,0-0.5-0.2-0.5-0.5s0.2-0.5,0.5-0.5h80.7c5.5,0,9.9-4.5,9.9-9.9v-7.9C805.3,357.9,805.5,357.7,805.8,357.7z"/>
</g>
<g>
</g>
<g>
</g>
<g>
</g>
<g>
</g>
<g>
</g>
<g>
</g>
<g>
</g>
<g>
</g>
<g>
</g>
<g>
</g>
<g>
</g>
<g>
</g>
<g>
</g>
<g>
</g>
<g>
</g>
</svg>
