<?xml version="1.0" encoding="utf-8"?>
<!-- Generator: Adobe Illustrator 18.0.0, SVG Export Plug-In . SVG Version: 6.00 Build 0)  -->
<!DOCTYPE svg PUBLIC "-//W3C//DTD SVG 1.1//EN" "http://www.w3.org/Graphics/SVG/1.1/DTD/svg11.dtd">
<svg version="1.1" id="Layer_1" xmlns="http://www.w3.org/2000/svg" xmlns:xlink="http://www.w3.org/1999/xlink" x="0px" y="0px"
	 viewBox="0 0 523.6 527" enable-background="new 0 0 523.6 527" xml:space="preserve">
<g>
	<g>
		<circle fill="#032360" cx="340.9" cy="182.8" r="182.8"/>
		<g>
			
				<rect x="226.5" y="103.1" transform="matrix(0.8481 -0.5298 0.5298 0.8481 -41.4955 210.5776)" fill="#E6E7E8" stroke="#0C56AB" stroke-width="3" stroke-miterlimit="10" width="240.2" height="149.1"/>
			<g>
				<defs>
					
						<rect id="SVGID_1_" x="238.2" y="115.8" transform="matrix(0.8481 -0.5298 0.5298 0.8481 -41.7221 210.585)" width="216.6" height="124.6"/>
				</defs>
				<clipPath id="SVGID_2_">
					<use xlink:href="#SVGID_1_"  overflow="visible"/>
				</clipPath>
				<g clip-path="url(#SVGID_2_)">
					
						<rect x="238.3" y="115.4" transform="matrix(0.8481 -0.5298 0.5298 0.8481 -41.4955 210.5776)" fill="#0C56AB" width="216.6" height="124.6"/>
					<g>
						<circle fill="#E6E7E8" cx="346.6" cy="177.7" r="41.8"/>
						<circle fill="#E6E7E8" cx="282" cy="221.7" r="8.5"/>
						<circle fill="#E6E7E8" cx="414.4" cy="139" r="8.5"/>
					</g>
					<g>
						<path fill="#0C56AB" d="M329.3,148.7c1.9-1.2,4.4-0.6,5.6,1.3l0.6,0.9c3.9-1.7,7.7-2.6,11.5-2.8c1.7-0.1,3.6,0.5,4.8,2.5
							c1.6,2.5,0.8,5.6-1.7,7.2c-0.8,0.5-1.7,0.8-2.7,0.8c-2.5,0.2-4.8,0.5-6.9,1.2l6.3,10c11.7-3.6,18.5-2.1,23.1,5.2
							s1.9,15.6-5.8,21.8l2.2,3.5c1.2,1.9,0.6,4.4-1.3,5.6c-1.9,1.2-4.4,0.6-5.6-1.3l-2.2-3.6c-5,2.3-10.5,3.4-15.8,3.5
							c-1.9,0-3.6-0.8-4.7-2.6c-1.6-2.6-0.8-5.7,1.7-7.3c0.9-0.5,2-0.8,3.1-0.7c3.9,0.1,7.3-0.3,10.7-1.6l-6.5-10.5
							c-11.1,3.4-18,2.7-22.9-5.2c-4.5-7.2-2-15.6,5.7-21.6l-0.5-0.8C326.9,152.4,327.4,149.9,329.3,148.7z M339.6,172l-5.6-8.9
							c-2.9,2.4-3.3,4.9-2,7C333.4,172.1,335.1,172.9,339.6,172z M353,179.6l5.7,9.2c2.8-2.4,3.5-4.8,2-7.2
							C359.3,179.4,357.3,178.7,353,179.6z"/>
					</g>
					<circle fill="#E6E7E8" cx="221.7" cy="182.2" r="15.2"/>
					<circle fill="#E6E7E8" cx="405" cy="67.7" r="15.2"/>
					<circle fill="#E6E7E8" cx="287.8" cy="287.9" r="15.2"/>
					<circle fill="#E6E7E8" cx="471.1" cy="173.4" r="15.2"/>
				</g>
			</g>
		</g>
		<g>
			<path fill="#0C56AB" d="M477.6,237.5l-247.1,26.6l-16.9-157.3l247.1-26.6L477.6,237.5z M239.6,252.8l226.7-24.4L451.6,91.6
				l-226.7,24.4L239.6,252.8z"/>
			<g>
				
					<rect x="226.4" y="98.2" transform="matrix(0.9943 -0.107 0.107 0.9943 -16.4336 37.954)" fill="#E6E7E8" width="238.3" height="147.9"/>
			</g>
			<g>
				<defs>
					
						<rect id="SVGID_3_" x="237.9" y="110.7" transform="matrix(0.9943 -0.107 0.107 0.9943 -16.4686 37.9277)" width="214.8" height="123.6"/>
				</defs>
				<clipPath id="SVGID_4_">
					<use xlink:href="#SVGID_3_"  overflow="visible"/>
				</clipPath>
				
					<rect x="238.1" y="110.4" transform="matrix(0.9943 -0.107 0.107 0.9943 -16.4336 37.954)" clip-path="url(#SVGID_4_)" fill="#E6E7E8" width="214.8" height="123.6"/>
				<circle clip-path="url(#SVGID_4_)" fill="#0C56AB" cx="232.2" cy="122.2" r="15.1"/>
				<circle clip-path="url(#SVGID_4_)" fill="#0C56AB" cx="445.3" cy="99.3" r="15.1"/>
				<circle clip-path="url(#SVGID_4_)" fill="#0C56AB" cx="245.4" cy="245.2" r="15.1"/>
				<circle clip-path="url(#SVGID_4_)" fill="#0C56AB" cx="458.5" cy="222.2" r="15.1"/>
				<use xlink:href="#SVGID_3_"  overflow="visible" fill="none" stroke="#0C56AB" stroke-width="4" stroke-miterlimit="10"/>
			</g>
			<g>
				<circle fill="#0C56AB" cx="433.7" cy="165.8" r="5.7"/>
				<circle fill="#0C56AB" cx="258.1" cy="184.8" r="5.7"/>
			</g>
			<g>
				<polygon fill="#0C56AB" points="450.3,271.7 441.9,265 432,270.3 434.9,232.9 453.1,234.3 				"/>
				<polygon fill="#0C56AB" points="460.7,270.6 467.5,262.3 478.2,265.4 467.4,229.4 449.9,234.6 				"/>
				<circle fill="#0C56AB" cx="449.3" cy="220.1" r="21.8"/>
				<polygon fill="#E6E7E8" points="448.4,208.7 453.1,202 454.7,210 462.5,207.4 459.1,214.8 466.9,217.2 459.8,221.2 464.7,227.7 
					456.6,226.8 456.7,235 450.7,229.5 446,236.1 444.3,228.1 436.6,230.8 440,223.3 432.2,220.9 439.3,216.9 434.4,210.4 
					442.5,211.3 442.4,203.2 				"/>
			</g>
			
				<line fill="none" stroke="#0C56AB" stroke-linecap="round" stroke-miterlimit="10" x1="270.8" y1="129.3" x2="409.4" y2="114.3"/>
			<line fill="none" stroke="#0C56AB" stroke-linecap="round" stroke-miterlimit="10" x1="272" y1="140" x2="410.6" y2="125.1"/>
			
				<line fill="none" stroke="#0C56AB" stroke-linecap="round" stroke-miterlimit="10" x1="273.2" y1="150.8" x2="411.8" y2="135.8"/>
			
				<line fill="none" stroke="#0C56AB" stroke-linecap="round" stroke-miterlimit="10" x1="303.1" y1="158.5" x2="412.9" y2="146.6"/>
			
				<line fill="none" stroke="#0C56AB" stroke-linecap="round" stroke-miterlimit="10" x1="304.2" y1="169.2" x2="414.1" y2="157.4"/>
			<line fill="none" stroke="#0C56AB" stroke-linecap="round" stroke-miterlimit="10" x1="305.4" y1="180" x2="415.2" y2="168.1"/>
			
				<line fill="none" stroke="#0C56AB" stroke-linecap="round" stroke-miterlimit="10" x1="306.5" y1="190.8" x2="416.4" y2="178.9"/>
			
				<line fill="none" stroke="#0C56AB" stroke-linecap="round" stroke-miterlimit="10" x1="307.7" y1="201.5" x2="417.6" y2="189.7"/>
			
				<line fill="none" stroke="#0C56AB" stroke-linecap="round" stroke-miterlimit="10" x1="280.1" y1="215.4" x2="418.7" y2="200.4"/>
			
				<line fill="none" stroke="#0C56AB" stroke-linecap="round" stroke-miterlimit="10" x1="281.3" y1="226.2" x2="419.9" y2="211.2"/>
		</g>
	</g>
	<g>
		<polygon fill="#032360" points="62,242.3 158.3,199 158.6,210.9 125.6,232.7 		"/>
		<g>
			<polygon fill="#E6E7E8" points="115.3,222.3 115.3,231.2 101.9,260.9 94.6,252.8 87.6,259 63.9,240 92,217.6 			"/>
			<path fill="#032360" d="M81.2,225.6c0.8-4.4,5.8-13.3,16.8-12.1s17.7,8,22.2,7.2c0,0-4.4,4.4-13.4,2.1c-9-2.4-18.8,3.3-18.6,4.4
				L81.2,225.6z"/>
			<polygon fill="#E6E7E8" points="111.8,238.1 111.2,248 106.6,246.5 			"/>
			<path fill="#E6E7E8" d="M88.4,227.8c-0.3-2.1-2.7-3.1-4.2-1.8c-1.5,1.3-2.6,5-1,5.6c1.6,0.5,2.6-0.1,2.6-0.1"/>
		</g>
		<path fill="#032360" d="M164.1,213.6c0,0-76.1,20.9-104.4,27c-62.5,22.1-71.2,106.8-47.9,149.8l89.6-40
			c-18.8-2.4-48.9-62-10.4-89.6c36.5-18.8,73-33.7,73-33.7V213.6z"/>
		<path fill="#032360" d="M11.8,390.4c0,0,7.1,15.2,32.7,17c21.1,1.5,52.3-5.2,68.2-7.5c8.7-1.3,16.1,6.4,14.5,15l-15.5,66.4
			l10.8-3.4l21.6-83.6c2.6-10.4-3.1-21.1-13.1-24.9l-40.1-15C91,354.6,6.1,393.2,11.8,390.4z"/>
		<path fill="#032360" d="M69.8,406.2c-0.5,5.9-12.3,78.3-31.2,104.4L26.4,514c0,0,32.9-95,12-112l27.7-8.8L69.8,406.2z"/>
		<path fill="#231F20" d="M112.2,482.7l-1.1,7.9l22.2-10c0,0-6-0.5-8.6-0.5s-2.8,1.2-2.8,1.2L112.2,482.7z"/>
		<path fill="#231F20" d="M26.3,515.9l-0.8,4l0.9,0.4l1,4.6l8.2,2.1l10.7-5.1c0,0-1.1-2-4.1-1.9c-2.9,0.1-3.7-0.5-3.7-0.5
			s-1.6,2.7-6.9,1.3c-2.4-0.6-4.4-4-3.8-5L26.3,515.9z"/>
		<path fill="#231F20" d="M87,266.1c0,0,11,30.7,20.8,33.3l0.2,12.3c0,0-8.8-3.2-14.5-6c-4.9-10.7-9.1-36.8-8.3-38.2L87,266.1z"/>
		<g>
			<polygon fill="#E6E7E8" points="164.1,227.1 168.8,224.9 181.6,196.2 170.6,197.8 164.1,213.6 			"/>
			<polyline fill="#E6E7E8" points="170.6,197.8 174.2,190.7 183.7,190 181.6,196.2 			"/>
			<polygon fill="#E6E7E8" points="183.7,190 185.7,184.3 184.7,184.2 180.6,190.3 			"/>
			<polygon fill="#E6E7E8" points="177.5,190.4 182.8,180.8 188.5,175.5 189,177.5 184.1,183.1 180.6,190.3 			"/>
			<polygon fill="#E6E7E8" points="175.9,190.5 180.3,179.9 186.2,175.6 186.4,178.1 182.8,180.8 178.5,190.4 			"/>
			<polygon fill="#E6E7E8" points="174.2,190.7 178.8,179.7 183.8,177.3 183.8,178.8 179.9,181.4 176.6,190.6 			"/>
			<polygon fill="#E6E7E8" points="184.7,184.2 187.9,181.1 188.6,181.4 185.7,184.3 184.9,184.7 			"/>
		</g>
		<g>
			<path fill="#0C56AB" d="M63.9,240c8.3-2.4,16.6-4.7,25-6.9c8.3-2.3,16.7-4.5,25-6.7l25.1-6.5c8.4-2.1,16.7-4.3,25.1-6.3l0.2,0
				l0,0.2l-0.2,8.1l-0.1-8.1l0.2,0.1c-8.3,2.3-16.6,4.6-25,6.9l-25,6.7c-8.4,2.2-16.7,4.4-25.1,6.5C80.7,235.9,72.3,238,63.9,240z"
				/>
		</g>
		<g>
			<path fill="#0C56AB" d="M11.8,390.4c2.2,3.4,5,6.3,8.3,8.6c3.2,2.3,6.8,4.1,10.6,5.3c3.8,1.3,7.7,2.1,11.6,2.5
				c3.9,0.4,7.9,0.2,11.9,0c8-0.4,16-1.2,23.9-2c4-0.4,8-0.9,11.9-1.4c4-0.5,7.9-1.1,11.9-1.7c-7.8,1.7-15.8,2.8-23.7,3.9
				c-8,1-15.9,1.8-23.9,2.3c-4,0.2-8,0.4-12.1-0.1c-4-0.4-8-1.3-11.8-2.7c-3.8-1.4-7.4-3.2-10.6-5.7
				C16.6,396.9,13.8,393.9,11.8,390.4z"/>
		</g>
	</g>
</g>
<g>
</g>
<g>
</g>
<g>
</g>
<g>
</g>
<g>
</g>
<g>
</g>
<g>
</g>
<g>
</g>
<g>
</g>
<g>
</g>
<g>
</g>
<g>
</g>
<g>
</g>
<g>
</g>
<g>
</g>
</svg>
