<?xml version="1.0" encoding="utf-8"?>
<!-- Generator: Adobe Illustrator 18.0.0, SVG Export Plug-In . SVG Version: 6.00 Build 0)  -->
<!DOCTYPE svg PUBLIC "-//W3C//DTD SVG 1.1//EN" "http://www.w3.org/Graphics/SVG/1.1/DTD/svg11.dtd">
<svg version="1.1" id="Layer_1" xmlns="http://www.w3.org/2000/svg" xmlns:xlink="http://www.w3.org/1999/xlink" x="0px" y="0px"
	 viewBox="0 0 187.6 183.6" enable-background="new 0 0 187.6 183.6" xml:space="preserve">
<g>
	<g>
		<polygon fill="#2368B5" points="37.7,119.1 26.2,38.9 18.8,76.2 15.4,75.5 26.8,18.6 36.7,87.8 39.6,51 48.6,73.3 66.3,0 
			74.6,86.9 86,45.7 90.3,69.3 99.8,16.1 114.5,94.6 131.1,44.1 135,67.9 155.8,33.9 171.2,79.4 167.9,80.5 154.9,42 133.1,77.6 
			130,58.5 113.5,108.3 99.9,35.3 90.4,88.5 85.3,61 73,105.8 64.8,20.7 49.4,84.5 41.9,65.9 		"/>
		<g>
			<path fill="#2368B5" d="M2.9,70.4H1.7c-0.9,0-1.7-0.8-1.7-1.7C0,67.7,0.8,67,1.7,67h1.1c0.9,0,1.7,0.8,1.7,1.7
				C4.6,69.6,3.8,70.4,2.9,70.4z"/>
			<path fill="#2368B5" d="M173,70.4h-2.4c-0.9,0-1.7-0.8-1.7-1.7c0-0.9,0.8-1.7,1.7-1.7h2.4c0.9,0,1.7,0.8,1.7,1.7
				C174.7,69.6,173.9,70.4,173,70.4z M158.8,70.4h-2.4c-0.9,0-1.7-0.8-1.7-1.7c0-0.9,0.8-1.7,1.7-1.7h2.4c0.9,0,1.7,0.8,1.7,1.7
				C160.5,69.6,159.7,70.4,158.8,70.4z M144.6,70.4h-2.4c-0.9,0-1.7-0.8-1.7-1.7c0-0.9,0.8-1.7,1.7-1.7h2.4c0.9,0,1.7,0.8,1.7,1.7
				C146.3,69.6,145.6,70.4,144.6,70.4z M130.4,70.4h-2.4c-0.9,0-1.7-0.8-1.7-1.7c0-0.9,0.8-1.7,1.7-1.7h2.4c0.9,0,1.7,0.8,1.7,1.7
				C132.2,69.6,131.4,70.4,130.4,70.4z M116.3,70.4h-2.4c-0.9,0-1.7-0.8-1.7-1.7c0-0.9,0.8-1.7,1.7-1.7h2.4c0.9,0,1.7,0.8,1.7,1.7
				C118,69.6,117.2,70.4,116.3,70.4z M102.1,70.4h-2.4c-0.9,0-1.7-0.8-1.7-1.7c0-0.9,0.8-1.7,1.7-1.7h2.4c0.9,0,1.7,0.8,1.7,1.7
				C103.8,69.6,103,70.4,102.1,70.4z M87.9,70.4h-2.4c-0.9,0-1.7-0.8-1.7-1.7c0-0.9,0.8-1.7,1.7-1.7h2.4c0.9,0,1.7,0.8,1.7,1.7
				C89.6,69.6,88.9,70.4,87.9,70.4z M73.7,70.4h-2.4c-0.9,0-1.7-0.8-1.7-1.7c0-0.9,0.8-1.7,1.7-1.7h2.4c0.9,0,1.7,0.8,1.7,1.7
				C75.5,69.6,74.7,70.4,73.7,70.4z M59.6,70.4h-2.4c-0.9,0-1.7-0.8-1.7-1.7c0-0.9,0.8-1.7,1.7-1.7h2.4c0.9,0,1.7,0.8,1.7,1.7
				C61.3,69.6,60.5,70.4,59.6,70.4z M45.4,70.4H43c-0.9,0-1.7-0.8-1.7-1.7c0-0.9,0.8-1.7,1.7-1.7h2.4c0.9,0,1.7,0.8,1.7,1.7
				C47.1,69.6,46.3,70.4,45.4,70.4z M31.2,70.4h-2.4c-0.9,0-1.7-0.8-1.7-1.7c0-0.9,0.8-1.7,1.7-1.7h2.4c0.9,0,1.7,0.8,1.7,1.7
				C32.9,69.6,32.2,70.4,31.2,70.4z M17,70.4h-2.4c-0.9,0-1.7-0.8-1.7-1.7c0-0.9,0.8-1.7,1.7-1.7H17c0.9,0,1.7,0.8,1.7,1.7
				C18.8,69.6,18,70.4,17,70.4z"/>
			<path fill="#2368B5" d="M185.9,70.4h-1.1c-0.9,0-1.7-0.8-1.7-1.7c0-0.9,0.8-1.7,1.7-1.7h1.1c0.9,0,1.7,0.8,1.7,1.7
				C187.6,69.6,186.9,70.4,185.9,70.4z"/>
		</g>
	</g>
	<g>
		<g>
			<path fill="#0C56AB" d="M14.3,153.1l8.8-7.9H8.6v-5.2h22.1v4.9l-8.6,7.6c4.8,0.1,9.5,3.5,9.5,9.7c0,5.4-4.4,10.4-11.9,10.4
				c-7.4,0-11.7-4.8-12.1-10.1l5.7-1.2c0.1,3.7,2.8,6.2,6.3,6.2c3.9,0,6-2.5,6-5.4c0-3.7-2.9-5.3-5.6-5.3c-1.5,0-2.5,0.3-3,0.5
				L14.3,153.1z"/>
		</g>
	</g>
</g>
<g>
</g>
<g>
</g>
<g>
</g>
<g>
</g>
<g>
</g>
<g>
</g>
<g>
</g>
<g>
</g>
<g>
</g>
<g>
</g>
<g>
</g>
<g>
</g>
<g>
</g>
<g>
</g>
<g>
</g>
</svg>
