<?xml version="1.0" encoding="utf-8"?>
<!-- Generator: Adobe Illustrator 18.0.0, SVG Export Plug-In . SVG Version: 6.00 Build 0)  -->
<!DOCTYPE svg PUBLIC "-//W3C//DTD SVG 1.1//EN" "http://www.w3.org/Graphics/SVG/1.1/DTD/svg11.dtd">
<svg version="1.1" id="Layer_1" xmlns="http://www.w3.org/2000/svg" xmlns:xlink="http://www.w3.org/1999/xlink" x="0px" y="0px"
	 viewBox="0 0 228.3 134.9" enable-background="new 0 0 228.3 134.9" xml:space="preserve">
<g>
	<path fill="#7F58A5" d="M17.8,46.9c-0.1,0-0.2-0.1-0.2-0.2v-9.7H0.2C0.1,37.1,0,37.1,0,37V21.3c0-0.1,0.1-0.2,0.2-0.2
		s0.2,0.1,0.2,0.2v15.5h17.5c0.1,0,0.2,0.1,0.2,0.2v9.8C18,46.9,17.9,46.9,17.8,46.9z"/>
	<path fill="#7F58A5" d="M92.5,112H26.1c-4.6,0-8.4-3.8-8.4-8.4v-48c0-0.1,0.1-0.2,0.2-0.2s0.2,0.1,0.2,0.2v48
		c0,4.5,3.6,8.1,8.1,8.1h66.4c0.1,0,0.2,0.1,0.2,0.2S92.6,112,92.5,112z"/>
	<path fill="#7F58A5" d="M183,134.9c0,0-0.1,0-0.1-0.1l-20-22.6h-62.9c-0.1,0-0.2-0.1-0.2-0.2s0.1-0.2,0.2-0.2h63c0,0,0.1,0,0.1,0.1
		l19.7,22.4V112c0-0.1,0.1-0.2,0.2-0.2h18.2c2.8,0,5.1-2.3,5.1-5.1c0-3,2.4-5.5,5.5-5.5h7.7c4.7,0,8.5-3.8,8.5-8.5s-3.8-8.5-8.5-8.5
		c-0.1,0-0.2-0.1-0.2-0.2c0-0.1,0.1-0.2,0.2-0.2c4.8,0,8.8,3.9,8.8,8.8c0,4.8-3.9,8.8-8.8,8.8h-7.7c-2.8,0-5.1,2.3-5.1,5.1
		c0,3-2.4,5.5-5.5,5.5h-18.1v22.5C183.2,134.8,183.1,134.9,183,134.9C183.1,134.9,183.1,134.9,183,134.9z"/>
	<path fill="#7F58A5" d="M224,61.4c-0.1,0-0.2-0.1-0.2-0.2c0-2.8-2.3-5.1-5.1-5.1h-34.8c-0.1,0-0.2-0.1-0.2-0.2s0.1-0.2,0.2-0.2
		h34.8c3.1,0,5.6,2.5,5.6,5.6C224.3,61.3,224.2,61.4,224,61.4z"/>
	<path fill="#7F58A5" d="M172.3,56h-20c-3.4,0-6.2-2.8-6.2-6.2s2.8-6.2,6.2-6.2c0.1,0,0.2,0.1,0.2,0.2s-0.1,0.2-0.2,0.2
		c-3.2,0-5.7,2.6-5.7,5.7s2.6,5.7,5.7,5.7h20c0.1,0,0.2,0.1,0.2,0.2S172.4,56,172.3,56z"/>
	<path fill="#7F58A5" d="M213.7,44.1h-34.3c-0.1,0-0.2-0.1-0.2-0.2s0.1-0.2,0.2-0.2h34.3c1.1,0,2.1-0.1,3.2-0.3
		c0.1,0,0.3,0.1,0.3,0.2s-0.1,0.3-0.2,0.3C215.9,44,214.8,44.1,213.7,44.1z"/>
	<path fill="#7F58A5" d="M214.9,27.3c-0.1,0-0.1-0.1-0.2-0.1c0-0.1,0-0.2,0.1-0.2c5.3-1,9.1-5.6,9.1-11c0-6.2-5-11.2-11.2-11.2H72.9
		c-0.1,0-0.2-0.1-0.2-0.2c0-0.1,0.1-0.2,0.2-0.2h139.8c6.4,0,11.5,5.2,11.5,11.5C224.3,21.5,220.3,26.3,214.9,27.3
		C214.9,27.3,214.9,27.3,214.9,27.3z"/>
	<path fill="#7F58A5" d="M13.9,19.9c-0.1,0-0.2-0.1-0.2-0.2v-5.3c0-5.6,4.5-10.1,10.1-10.1h40.1c0.1,0,0.2,0.1,0.2,0.2
		c0,0.1-0.1,0.2-0.2,0.2H23.8c-5.4,0-9.8,4.4-9.8,9.8v5.3C14.1,19.8,14,19.9,13.9,19.9z"/>
	<path fill="#7F58A5" d="M201.3,49h-48.6c-0.1,0-0.2-0.1-0.2-0.2c0-0.1,0.1-0.2,0.2-0.2h48.6c0.1,0,0.2,0.1,0.2,0.2
		C201.6,48.9,201.4,49,201.3,49z"/>
	<path fill="#7F58A5" d="M140.3,0.3h-1.2c-0.1,0-0.2-0.1-0.2-0.2S139,0,139.1,0h1.2c0.1,0,0.2,0.1,0.2,0.2S140.4,0.3,140.3,0.3z
		 M137.8,0.3h-1.3c-0.1,0-0.2-0.1-0.2-0.2s0.1-0.2,0.2-0.2h1.3c0.1,0,0.2,0.1,0.2,0.2S137.9,0.3,137.8,0.3z M135.2,0.3H134
		c-0.1,0-0.2-0.1-0.2-0.2S133.9,0,134,0h1.3c0.1,0,0.2,0.1,0.2,0.2S135.3,0.3,135.2,0.3z M132.7,0.3h-1.3c-0.1,0-0.2-0.1-0.2-0.2
		s0.1-0.2,0.2-0.2h1.3c0.1,0,0.2,0.1,0.2,0.2S132.8,0.3,132.7,0.3z M130.2,0.3h-1.3c-0.1,0-0.2-0.1-0.2-0.2s0.1-0.2,0.2-0.2h1.3
		c0.1,0,0.2,0.1,0.2,0.2S130.2,0.3,130.2,0.3z M127.6,0.3h-1.3c-0.1,0-0.2-0.1-0.2-0.2s0.1-0.2,0.2-0.2h1.3c0.1,0,0.2,0.1,0.2,0.2
		S127.7,0.3,127.6,0.3z M125.1,0.3h-1.3c-0.1,0-0.2-0.1-0.2-0.2s0.1-0.2,0.2-0.2h1.3c0.1,0,0.2,0.1,0.2,0.2S125.2,0.3,125.1,0.3z
		 M122.5,0.3h-1.3c-0.1,0-0.2-0.1-0.2-0.2s0.1-0.2,0.2-0.2h1.3c0.1,0,0.2,0.1,0.2,0.2S122.6,0.3,122.5,0.3z M120,0.3h-1.3
		c-0.1,0-0.2-0.1-0.2-0.2s0.1-0.2,0.2-0.2h1.3c0.1,0,0.2,0.1,0.2,0.2S120.1,0.3,120,0.3z M117.5,0.3h-1.3c-0.1,0-0.2-0.1-0.2-0.2
		s0.1-0.2,0.2-0.2h1.3c0.1,0,0.2,0.1,0.2,0.2S117.5,0.3,117.5,0.3z M114.9,0.3h-1.3c-0.1,0-0.2-0.1-0.2-0.2s0.1-0.2,0.2-0.2h1.3
		c0.1,0,0.2,0.1,0.2,0.2S115,0.3,114.9,0.3z M112.4,0.3h-1.3c-0.1,0-0.2-0.1-0.2-0.2S111,0,111.1,0h1.3c0.1,0,0.2,0.1,0.2,0.2
		S112.5,0.3,112.4,0.3z M109.8,0.3h-1.3c-0.1,0-0.2-0.1-0.2-0.2s0.1-0.2,0.2-0.2h1.3c0.1,0,0.2,0.1,0.2,0.2S109.9,0.3,109.8,0.3z
		 M107.3,0.3H106c-0.1,0-0.2-0.1-0.2-0.2S105.9,0,106,0h1.3c0.1,0,0.2,0.1,0.2,0.2S107.4,0.3,107.3,0.3z M104.8,0.3h-1.3
		c-0.1,0-0.2-0.1-0.2-0.2s0.1-0.2,0.2-0.2h1.3c0.1,0,0.2,0.1,0.2,0.2S104.8,0.3,104.8,0.3z M102.2,0.3h-1.3c-0.1,0-0.2-0.1-0.2-0.2
		s0.1-0.2,0.2-0.2h1.3c0.1,0,0.2,0.1,0.2,0.2S102.3,0.3,102.2,0.3z M99.7,0.3h-1.3c-0.1,0-0.2-0.1-0.2-0.2S98.3,0,98.4,0h1.3
		c0.1,0,0.2,0.1,0.2,0.2S99.8,0.3,99.7,0.3z M97.1,0.3h-1.3c-0.1,0-0.2-0.1-0.2-0.2S95.8,0,95.9,0h1.3c0.1,0,0.2,0.1,0.2,0.2
		S97.2,0.3,97.1,0.3z M94.6,0.3h-1.3c-0.1,0-0.2-0.1-0.2-0.2S93.2,0,93.3,0h1.3c0.1,0,0.2,0.1,0.2,0.2S94.7,0.3,94.6,0.3z M92,0.3
		h-1.3c-0.1,0-0.2-0.1-0.2-0.2S90.7,0,90.8,0H92c0.1,0,0.2,0.1,0.2,0.2S92.1,0.3,92,0.3z M89.5,0.3h-1.3c-0.1,0-0.2-0.1-0.2-0.2
		S88.1,0,88.2,0h1.3c0.1,0,0.2,0.1,0.2,0.2S89.6,0.3,89.5,0.3z M87,0.3h-1.3c-0.1,0-0.2-0.1-0.2-0.2S85.6,0,85.7,0H87
		c0.1,0,0.2,0.1,0.2,0.2S87.1,0.3,87,0.3z M84.4,0.3h-1.3c-0.1,0-0.2-0.1-0.2-0.2S83.1,0,83.2,0h1.3c0.1,0,0.2,0.1,0.2,0.2
		S84.5,0.3,84.4,0.3z M81.9,0.3h-1.3c-0.1,0-0.2-0.1-0.2-0.2S80.5,0,80.6,0h1.3C82,0,82,0.1,82,0.2S82,0.3,81.9,0.3z M79.3,0.3h-1.3
		c-0.1,0-0.2-0.1-0.2-0.2S78,0,78.1,0h1.3c0.1,0,0.2,0.1,0.2,0.2S79.4,0.3,79.3,0.3z M76.8,0.3h-1.3c-0.1,0-0.2-0.1-0.2-0.2
		S75.4,0,75.5,0h1.3C76.9,0,77,0.1,77,0.2S76.9,0.3,76.8,0.3z M74.3,0.3H73c-0.1,0-0.2-0.1-0.2-0.2S72.9,0,73,0h1.3
		c0.1,0,0.2,0.1,0.2,0.2S74.3,0.3,74.3,0.3z M71.7,0.3h-1.3c-0.1,0-0.2-0.1-0.2-0.2S70.4,0,70.4,0h1.3c0.1,0,0.2,0.1,0.2,0.2
		S71.8,0.3,71.7,0.3z M69.2,0.3h-1.3c-0.1,0-0.2-0.1-0.2-0.2S67.8,0,67.9,0h1.3c0.1,0,0.2,0.1,0.2,0.2S69.3,0.3,69.2,0.3z M66.6,0.3
		h-1.3c-0.1,0-0.2-0.1-0.2-0.2S65.3,0,65.4,0h1.3c0.1,0,0.2,0.1,0.2,0.2S66.7,0.3,66.6,0.3z M64.1,0.3h-1.3c-0.1,0-0.2-0.1-0.2-0.2
		S62.7,0,62.8,0h1.3c0.1,0,0.2,0.1,0.2,0.2S64.2,0.3,64.1,0.3z M61.6,0.3h-1.3c-0.1,0-0.2-0.1-0.2-0.2S60.2,0,60.3,0h1.3
		c0.1,0,0.2,0.1,0.2,0.2S61.6,0.3,61.6,0.3z M59,0.3h-1.3c-0.1,0-0.2-0.1-0.2-0.2S57.7,0,57.7,0H59c0.1,0,0.2,0.1,0.2,0.2
		S59.1,0.3,59,0.3z M56.5,0.3h-1.3c-0.1,0-0.2-0.1-0.2-0.2S55.1,0,55.2,0h1.3c0.1,0,0.2,0.1,0.2,0.2S56.6,0.3,56.5,0.3z M53.9,0.3
		h-1.3c-0.1,0-0.2-0.1-0.2-0.2S52.6,0,52.7,0h1.3c0.1,0,0.2,0.1,0.2,0.2S54,0.3,53.9,0.3z M51.4,0.3h-1.3C50,0.3,50,0.2,50,0.2
		S50,0,50.1,0h1.3c0.1,0,0.2,0.1,0.2,0.2S51.5,0.3,51.4,0.3z M48.8,0.3h-1.3c-0.1,0-0.2-0.1-0.2-0.2S47.5,0,47.6,0h1.3
		C48.9,0,49,0.1,49,0.2S48.9,0.3,48.8,0.3z M46.3,0.3H45c-0.1,0-0.2-0.1-0.2-0.2S44.9,0,45,0h1.3c0.1,0,0.2,0.1,0.2,0.2
		S46.4,0.3,46.3,0.3z M43.8,0.3h-1.3c-0.1,0-0.2-0.1-0.2-0.2S42.4,0,42.5,0h1.3c0.1,0,0.2,0.1,0.2,0.2S43.9,0.3,43.8,0.3z M41.2,0.3
		H40c-0.1,0-0.2-0.1-0.2-0.2S39.9,0,40,0h1.3c0.1,0,0.2,0.1,0.2,0.2S41.3,0.3,41.2,0.3z M38.7,0.3h-1.3c-0.1,0-0.2-0.1-0.2-0.2
		S37.3,0,37.4,0h1.3c0.1,0,0.2,0.1,0.2,0.2S38.8,0.3,38.7,0.3z M36.1,0.3h-1.3c-0.1,0-0.2-0.1-0.2-0.2S34.8,0,34.9,0h1.3
		c0.1,0,0.2,0.1,0.2,0.2S36.2,0.3,36.1,0.3z M33.6,0.3h-1.3c-0.1,0-0.2-0.1-0.2-0.2S32.2,0,32.3,0h1.3c0.1,0,0.2,0.1,0.2,0.2
		S33.7,0.3,33.6,0.3z M31.1,0.3h-1.3c-0.1,0-0.2-0.1-0.2-0.2S29.7,0,29.8,0h1.3c0.1,0,0.2,0.1,0.2,0.2S31.1,0.3,31.1,0.3z M28.5,0.3
		h-1.3c-0.1,0-0.2-0.1-0.2-0.2S27.2,0,27.2,0h1.3c0.1,0,0.2,0.1,0.2,0.2S28.6,0.3,28.5,0.3z M26,0.3h-1.3c-0.1,0-0.2-0.1-0.2-0.2
		S24.6,0,24.7,0H26c0.1,0,0.2,0.1,0.2,0.2S26.1,0.3,26,0.3z"/>
	<path fill="#7F58A5" d="M19.6,33H2.3c-0.1,0-0.2-0.1-0.2-0.2c0-0.1,0.1-0.2,0.2-0.2h17.3c0.1,0,0.2,0.1,0.2,0.2
		C19.7,32.9,19.7,33,19.6,33z"/>
</g>
<g>
</g>
<g>
</g>
<g>
</g>
<g>
</g>
<g>
</g>
<g>
</g>
<g>
</g>
<g>
</g>
<g>
</g>
<g>
</g>
<g>
</g>
<g>
</g>
<g>
</g>
<g>
</g>
<g>
</g>
</svg>
