<?xml version="1.0" encoding="utf-8"?>
<!-- Generator: Adobe Illustrator 18.0.0, SVG Export Plug-In . SVG Version: 6.00 Build 0)  -->
<!DOCTYPE svg PUBLIC "-//W3C//DTD SVG 1.1//EN" "http://www.w3.org/Graphics/SVG/1.1/DTD/svg11.dtd">
<svg version="1.1" id="Layer_1" xmlns="http://www.w3.org/2000/svg" xmlns:xlink="http://www.w3.org/1999/xlink" x="0px" y="0px"
	 viewBox="0 0 72.1 67.4" enable-background="new 0 0 72.1 67.4" xml:space="preserve">
<g>
	<g>
		<g>
			<g>
				<defs>
					<circle id="SVGID_1_" cx="34.4" cy="19.6" r="19"/>
				</defs>
				<clipPath id="SVGID_2_">
					<use xlink:href="#SVGID_1_"  overflow="visible"/>
				</clipPath>
				<g clip-path="url(#SVGID_2_)">
					<g>
						<polygon fill="#2368B5" points="18.8,34.9 18.2,34.2 24.5,28.4 28.1,32 33.8,25.9 37.9,29.6 47.7,20.4 48.4,21.1 37.9,30.9 
							33.9,27.3 28.1,33.4 24.5,29.8 						"/>
						<path fill="#2368B5" d="M47.7,20.4l0.7,0.7l-10.5,9.8l-4-3.6l-5.7,6.2l-3.6-3.7l-5.7,5.1l-0.7-0.7l6.3-5.8l3.6,3.6l5.7-6.1
							l4.1,3.7L47.7,20.4 M47.7,19.9l-0.3,0.3L37.9,29l-3.8-3.4l-0.3-0.3l-0.3,0.3l-5.4,5.8l-3.3-3.3l-0.3-0.3l-0.3,0.3l-6.3,5.8
							l-0.3,0.3l0.3,0.3l0.7,0.7l0.3,0.3l0.3-0.3l5.4-4.9l3.4,3.4l0.3,0.3l0.3-0.3l5.5-5.9l3.7,3.4l0.3,0.2l0.3-0.3l10.5-9.8
							l0.3-0.3l-0.3-0.3L48,20.1L47.7,19.9L47.7,19.9z"/>
					</g>
					<g>
						<polygon fill="#2368B5" points="48.7,24.5 47.7,24.5 47.7,21.1 43.3,21.1 43.3,20.1 48.7,20.1 						"/>
						<path fill="#2368B5" d="M48.7,20.1v4.4h-1v-3.4h-4.4v-1H48.7 M49.1,19.7h-0.4h-5.4h-0.4v0.4v1v0.4h0.4h4v3v0.4h0.4h1h0.4v-0.4
							v-4.4V19.7L49.1,19.7z"/>
					</g>
				</g>
				<g clip-path="url(#SVGID_2_)">
					<rect x="15.3" y="13.9" fill="#2368B5" width="2.4" height="1.2"/>
					<path fill="#2368B5" d="M45.6,15.1h-4.6v-1.2h4.6V15.1z M36.3,15.1h-4.6v-1.2h4.6V15.1z M27,15.1h-4.6v-1.2H27V15.1z"/>
					<rect x="50.2" y="13.9" fill="#2368B5" width="2.4" height="1.2"/>
				</g>
			</g>
			<path fill="#2368B5" d="M34.4,39.1c-10.8,0-19.6-8.8-19.6-19.6S23.6,0,34.4,0C45.2,0,54,8.8,54,19.6S45.2,39.1,34.4,39.1z
				 M34.4,1.2C24.3,1.2,16,9.4,16,19.6s8.2,18.4,18.4,18.4c10.1,0,18.4-8.2,18.4-18.4S44.5,1.2,34.4,1.2z"/>
			<g>
				<path fill="#2368B5" d="M46.2,39.6c0,0,12.9-1.8,14.7-14.9H69C69,24.7,69.6,35.5,46.2,39.6z"/>
				<path fill="#2368B5" d="M64.5,16.8c0.1,0.3-9.1,8.7-9.1,8.7h16.6L64.5,16.8z"/>
			</g>
		</g>
		<g>
			<g>
				<path fill="#2368B5" d="M16.7,44.6c-0.1,0.2-0.2,0.5-0.3,0.7v2.1h-0.2v-1.7c-0.1,0.1-0.2,0.3-0.3,0.4c0-0.1-0.1-0.2-0.1-0.2
					c0.3-0.3,0.6-0.8,0.8-1.2L16.7,44.6z M18,45.9c0.1,0.7,0.2,1.1,0.4,1.2c0.1,0,0.1-0.2,0.1-0.5c0,0,0.1,0.1,0.2,0.1
					c-0.1,0.5-0.2,0.6-0.3,0.6c-0.3,0-0.5-0.6-0.6-1.4h-0.7v0.9l0.6-0.1c0,0.1,0,0.1,0,0.2C17,47,16.9,47,16.8,47.1
					c0-0.1-0.1-0.1-0.1-0.2c0.1,0,0.1-0.1,0.1-0.2v-1.9h0l0,0c0.5-0.1,1.1-0.2,1.4-0.3l0.2,0.2c-0.2,0.1-0.3,0.1-0.6,0.2
					c0,0.3,0,0.6,0.1,0.9h0.6v0.2H18z M17.8,45.7c0-0.3,0-0.5,0-0.8c-0.2,0-0.4,0.1-0.6,0.1v0.7H17.8z M17.1,47H18v0.2h-0.8V47z"/>
				<path fill="#2368B5" d="M20.7,45.4c0.2,0.5,0.6,1,1,1.2c-0.1,0-0.1,0.1-0.2,0.2c-0.5-0.3-0.9-0.8-1.1-1.4h0v1.1h0.7v0.2h-0.7
					v0.6h-0.2v-0.6h-0.7v-0.2h0.7v-1.1h0c-0.2,0.6-0.6,1.2-1.1,1.5c0-0.1-0.1-0.1-0.2-0.2c0.4-0.2,0.8-0.7,1-1.3H19v-0.2h1.2v-0.6
					h0.2v0.6h1.2v0.2H20.7z"/>
				<path fill="#2368B5" d="M24.8,47v0.2H22V47h0.4v-1h2v1H24.8z M24.7,45.3h-2.7v-0.2h0.8c-0.1-0.1-0.2-0.4-0.3-0.5l0.2-0.1
					c0.1,0.2,0.3,0.4,0.3,0.5l-0.2,0.1h1L23.7,45c0.1-0.1,0.2-0.4,0.3-0.5l0.2,0.1c-0.1,0.2-0.2,0.4-0.4,0.5h0.8V45.3z M23.1,45.5
					c-0.2,0.2-0.6,0.4-0.9,0.5c0-0.1-0.1-0.1-0.1-0.2c0.3-0.1,0.7-0.3,0.8-0.5L23.1,45.5z M22.6,47H23v-0.8h-0.4V47z M23.2,46.2V47
					h0.4v-0.8H23.2z M24.6,46c-0.2-0.1-0.6-0.3-0.9-0.4l0.1-0.2c0.3,0.1,0.7,0.3,0.9,0.4L24.6,46z M23.8,46.2V47h0.4v-0.8H23.8z"/>
				<path fill="#2368B5" d="M26.4,46.7c0,0.1,0,0.2,0,0.2c-0.9,0.2-1,0.3-1.1,0.3c0-0.1-0.1-0.2-0.1-0.2c0,0,0.1-0.1,0.1-0.2v-2.3
					h0.2v0.9h0.8v0.2h-0.8v1.2L26.4,46.7z M27.5,47c0.1,0,0.2-0.1,0.2-0.6c0.1,0,0.1,0.1,0.2,0.1c0,0.5-0.1,0.7-0.4,0.7H27
					c-0.3,0-0.4-0.1-0.4-0.4v-2.3h0.2v1h0.8v0.2h-0.8v1.2c0,0.2,0,0.2,0.2,0.2H27.5z"/>
				<path fill="#2368B5" d="M33.2,44.6c-0.1,0.2-0.2,0.5-0.3,0.7v2.1h-0.2v-1.7c-0.1,0.1-0.2,0.3-0.3,0.4c0-0.1-0.1-0.2-0.1-0.2
					c0.3-0.3,0.6-0.8,0.8-1.2L33.2,44.6z M34.5,45.9c0.1,0.7,0.2,1.1,0.4,1.2c0.1,0,0.1-0.2,0.1-0.5c0,0,0.1,0.1,0.2,0.1
					c-0.1,0.5-0.2,0.6-0.3,0.6c-0.3,0-0.5-0.6-0.6-1.4h-0.7v0.9l0.6-0.1c0,0.1,0,0.1,0,0.2c-0.7,0.2-0.8,0.2-0.8,0.3
					c0-0.1-0.1-0.1-0.1-0.2c0.1,0,0.1-0.1,0.1-0.2v-1.9h0l0,0c0.5-0.1,1.1-0.2,1.4-0.3l0.2,0.2c-0.2,0.1-0.3,0.1-0.6,0.2
					c0,0.3,0,0.6,0.1,0.9h0.6v0.2H34.5z M34.3,45.7c0-0.3,0-0.5,0-0.8c-0.2,0-0.4,0.1-0.6,0.1v0.7H34.3z M33.6,47h0.8v0.2h-0.8V47z"
					/>
				<path fill="#2368B5" d="M36.5,47c0,0.1,0,0.2-0.1,0.2c-0.1,0-0.2,0-0.4,0c0-0.1,0-0.2-0.1-0.2c0.1,0,0.2,0,0.3,0
					c0,0,0.1,0,0.1-0.1v-0.8c-0.1,0.1-0.3,0.2-0.4,0.2l-0.1-0.2c0,0.4-0.1,0.8-0.2,1.1c0,0-0.1-0.1-0.2-0.1c0.2-0.4,0.2-1,0.2-1.5
					v-1.1h0.9V47z M35.8,45.7c0,0.1,0,0.3,0,0.5c0.1,0,0.3-0.1,0.5-0.2v-0.4l-0.1,0.1c-0.1-0.1-0.2-0.2-0.3-0.4V45.7z M35.8,44.8
					v0.5l0.1-0.1c0.1,0.1,0.3,0.2,0.3,0.3v-0.7H35.8z M38.1,45.9c-0.1,0.4-0.3,0.7-0.6,0.9c0.2,0.1,0.4,0.2,0.7,0.3
					c-0.1,0-0.1,0.1-0.2,0.2c-0.3-0.1-0.5-0.2-0.7-0.4c-0.2,0.2-0.5,0.3-0.7,0.4c0-0.1-0.1-0.1-0.1-0.2c0.2-0.1,0.5-0.2,0.7-0.3
					c-0.2-0.2-0.4-0.4-0.5-0.7l0,0h-0.2v-0.2h1.3l0,0L38.1,45.9z M37.1,44.9c0,0.3-0.1,0.6-0.5,0.8c0,0-0.1-0.1-0.1-0.2
					c0.3-0.2,0.4-0.4,0.4-0.7v-0.3h0.9v0.7c0,0.1,0,0.1,0,0.1h0.2c0,0,0.1,0,0.1,0c0,0.1,0,0.1,0,0.2c0,0-0.1,0-0.1,0h-0.2
					c-0.2,0-0.2-0.1-0.2-0.3v-0.5h-0.5V44.9z M36.9,46.1c0.1,0.2,0.2,0.4,0.4,0.6c0.2-0.2,0.3-0.4,0.4-0.6H36.9z"/>
				<path fill="#2368B5" d="M39.3,44.6c-0.1,0.2-0.2,0.4-0.2,0.6v2.1h-0.2v-1.7c-0.1,0.1-0.2,0.3-0.3,0.4c0-0.1-0.1-0.2-0.1-0.2
					c0.3-0.3,0.5-0.8,0.7-1.3L39.3,44.6z M40.1,47c-0.2,0.1-0.5,0.3-0.8,0.3c0,0-0.1-0.1-0.1-0.2c0.3-0.1,0.6-0.2,0.7-0.3L40.1,47z
					 M39.9,44.8h-0.6v-0.2h2v0.2h-0.6V45h0.5v0.6h-1.8V45h0.5V44.8z M39.4,46.9v-1.1h1.7v1.1H39.4z M39.6,45.5h0.3v-0.3h-0.3V45.5z
					 M39.7,46.1h1.3v-0.2h-1.3V46.1z M39.7,46.4h1.3v-0.2h-1.3V46.4z M39.7,46.7h1.3v-0.2h-1.3V46.7z M40.4,44.8h-0.3V45h0.3V44.8z
					 M40.1,45.5h0.3v-0.3h-0.3V45.5z M40.6,46.9c0.3,0.1,0.6,0.2,0.7,0.3l-0.2,0.1c-0.2-0.1-0.4-0.2-0.7-0.3L40.6,46.9z M40.6,45.2
					v0.3H41v-0.3H40.6z"/>
				<path fill="#2368B5" d="M42.1,45.9c-0.1-0.1-0.3-0.2-0.5-0.3l0.1-0.2c0.2,0.1,0.4,0.2,0.5,0.3L42.1,45.9z M41.6,47.1
					c0.2-0.2,0.4-0.6,0.5-1l0.2,0.1c-0.2,0.3-0.4,0.7-0.5,1L41.6,47.1z M42.2,45c-0.1-0.1-0.3-0.3-0.5-0.4l0.1-0.2
					c0.2,0.1,0.4,0.2,0.5,0.3L42.2,45z M44.4,46.1h-0.3v0.5h-0.7V47c0,0.1,0,0.2-0.1,0.2c-0.1,0-0.2,0-0.5,0c0-0.1,0-0.1-0.1-0.2
					c0.2,0,0.3,0,0.4,0c0,0,0.1,0,0.1-0.1v-0.4h-0.7v-0.2h0.7v-0.3h-0.9v-0.2h0.9v-0.3h-0.7v-0.2h1.6v0.5h0.3V46.1z M44.1,44.7
					c-0.4,0.1-1.1,0.2-1.7,0.2c0-0.1,0-0.1-0.1-0.2c0.6,0,1.2-0.1,1.6-0.2L44.1,44.7z M42.7,45.4c0-0.1-0.1-0.3-0.2-0.4l0.2-0.1
					c0.1,0.1,0.1,0.3,0.2,0.4L42.7,45.4z M43.3,45.4c0-0.1-0.1-0.3-0.2-0.4l0.2-0.1c0.1,0.1,0.1,0.3,0.2,0.4L43.3,45.4z M43.4,45.9
					h0.5v-0.3h-0.5V45.9z M43.9,46.1h-0.5v0.3h0.5V46.1z M43.7,45.3c0.1-0.1,0.2-0.3,0.2-0.5l0.2,0.1c-0.1,0.2-0.2,0.4-0.3,0.5
					L43.7,45.3z"/>
				<path fill="#2368B5" d="M45.5,44.6c-0.1,0.2-0.2,0.5-0.3,0.7v2H45v-1.7c-0.1,0.1-0.2,0.2-0.3,0.3c0-0.1-0.1-0.2-0.1-0.2
					c0.3-0.3,0.5-0.8,0.7-1.2L45.5,44.6z M47.5,47v0.2h-2.1V47h0.3v-1.7h0.5c0-0.1,0-0.2,0.1-0.3h-0.8v-0.2h0.8c0-0.1,0-0.2,0-0.3
					l0.2,0c0,0.1,0,0.2-0.1,0.3h0.8V45h-0.9c0,0.1,0,0.2-0.1,0.3h0.8V47H47.5z M45.9,45.5v0.3H47v-0.3H45.9z M47,45.9h-1.1v0.3H47
					V45.9z M45.9,46.6H47v-0.3h-1.1V46.6z M45.9,47H47v-0.3h-1.1V47z"/>
				<path fill="#2368B5" d="M49.1,46.7c0,0.1,0,0.2,0,0.2c-0.9,0.2-1,0.3-1.1,0.3c0-0.1-0.1-0.2-0.1-0.2c0,0,0.1-0.1,0.1-0.2v-2.3
					h0.2v0.9h0.8v0.2h-0.8v1.2L49.1,46.7z M50.2,47c0.1,0,0.2-0.1,0.2-0.6c0.1,0,0.1,0.1,0.2,0.1c0,0.5-0.1,0.7-0.4,0.7h-0.5
					c-0.3,0-0.4-0.1-0.4-0.4v-2.3h0.2v1h0.8v0.2h-0.8v1.2c0,0.2,0,0.2,0.2,0.2H50.2z"/>
				<path fill="#2368B5" d="M57,44.8V45h-2.7v-0.2h1.3c0-0.1-0.1-0.2-0.1-0.3l0.2-0.1c0,0.1,0.1,0.2,0.1,0.3H57z M56.9,47.1
					c0,0.1,0,0.2-0.1,0.2c-0.1,0-0.2,0-0.4,0c0-0.1,0-0.1-0.1-0.2c0.1,0,0.3,0,0.3,0c0,0,0.1,0,0.1,0v-0.9h-2v1.1h-0.2V46h2.5V47.1z
					 M56.6,45.2v0.6h-1.8v-0.6H56.6z M56.3,47h-1.1v0.2H55v-0.8h1.3V47z M56.3,45.3H55v0.3h1.3V45.3z M55.2,46.5v0.3h0.9v-0.3H55.2z
					"/>
				<path fill="#2368B5" d="M58.4,47c0,0.1,0,0.2-0.1,0.2c-0.1,0-0.2,0-0.4,0c0-0.1,0-0.2-0.1-0.2c0.1,0,0.2,0,0.3,0
					c0,0,0.1,0,0.1-0.1v-0.8c-0.1,0.1-0.3,0.2-0.4,0.2l-0.1-0.2c0,0.4-0.1,0.8-0.2,1.1c0,0-0.1-0.1-0.2-0.1c0.2-0.4,0.2-1,0.2-1.5
					v-1.1h0.9V47z M57.8,45.7c0,0.1,0,0.3,0,0.5c0.1,0,0.3-0.1,0.5-0.2v-0.4l-0.1,0.1c-0.1-0.1-0.2-0.2-0.3-0.4V45.7z M57.8,44.8
					v0.5l0.1-0.1c0.1,0.1,0.3,0.2,0.3,0.3v-0.7H57.8z M60.1,45.9c-0.1,0.4-0.3,0.7-0.6,0.9c0.2,0.1,0.4,0.2,0.7,0.3
					c-0.1,0-0.1,0.1-0.2,0.2c-0.3-0.1-0.5-0.2-0.7-0.4c-0.2,0.2-0.5,0.3-0.7,0.4c0-0.1-0.1-0.1-0.1-0.2c0.2-0.1,0.5-0.2,0.7-0.3
					c-0.2-0.2-0.4-0.4-0.5-0.7l0,0h-0.2v-0.2h1.3l0,0L60.1,45.9z M59.1,44.9c0,0.3-0.1,0.6-0.5,0.8c0,0-0.1-0.1-0.1-0.2
					c0.3-0.2,0.4-0.4,0.4-0.7v-0.3h0.9v0.7c0,0.1,0,0.1,0,0.1H60c0,0,0.1,0,0.1,0c0,0.1,0,0.1,0,0.2c0,0-0.1,0-0.1,0h-0.2
					c-0.2,0-0.2-0.1-0.2-0.3v-0.5h-0.5V44.9z M58.9,46.1c0.1,0.2,0.2,0.4,0.4,0.6c0.2-0.2,0.3-0.4,0.4-0.6H58.9z"/>
				<path fill="#2368B5" d="M61.4,45.4H62v0.2h-0.6v0.1c0.1,0.1,0.5,0.5,0.6,0.6l-0.1,0.2c-0.1-0.1-0.3-0.3-0.5-0.5v1.3h-0.2V46
					c-0.2,0.4-0.4,0.7-0.6,0.9c0-0.1-0.1-0.2-0.1-0.2c0.2-0.2,0.5-0.7,0.7-1h-0.6v-0.2h0.6v-0.5c-0.2,0-0.4,0.1-0.6,0.1
					c0-0.1,0-0.1-0.1-0.2c0.5-0.1,1-0.2,1.3-0.3l0.2,0.2c-0.2,0.1-0.3,0.1-0.6,0.2V45.4z M62.5,46.5h-0.2v-1.7h0.2V46.5z M63.1,44.5
					V47c0,0.2,0,0.2-0.1,0.3c-0.1,0-0.3,0-0.5,0c0-0.1,0-0.2-0.1-0.2c0.2,0,0.4,0,0.5,0c0.1,0,0.1,0,0.1-0.1v-2.5H63.1z"/>
			</g>
			<rect x="14.3" y="43.7" fill="none" stroke="#0C56AB" stroke-width="0.2771" stroke-miterlimit="10" width="14.4" height="4.6"/>
			<rect x="31.3" y="43.7" fill="none" stroke="#0C56AB" stroke-width="0.2771" stroke-miterlimit="10" width="20.4" height="4.6"/>
			<rect x="53.4" y="43.7" fill="none" stroke="#0C56AB" stroke-width="0.2771" stroke-miterlimit="10" width="10.6" height="4.6"/>
		</g>
	</g>
	<g>
		<g>
			<path fill="#0C56AB" d="M0.6,58.2c0-0.1,0-0.3,0-0.5c0-1.6,1.2-3,3.3-3c2,0,3.2,1.3,3.2,2.9c0,1.2-0.7,2.2-1.8,2.8l-1.8,1.1
				c-0.4,0.3-0.8,0.6-0.9,1h4.5V64H0.5c0-1.6,0.6-2.8,2.2-3.8l1.5-0.9c0.8-0.5,1.2-1.1,1.2-1.7c0-0.7-0.5-1.4-1.5-1.4
				c-1.1,0-1.6,0.7-1.6,1.7c0,0.1,0,0.3,0,0.5L0.6,58.2z"/>
		</g>
	</g>
</g>
<g>
</g>
<g>
</g>
<g>
</g>
<g>
</g>
<g>
</g>
<g>
</g>
<g>
</g>
<g>
</g>
<g>
</g>
<g>
</g>
<g>
</g>
<g>
</g>
<g>
</g>
<g>
</g>
<g>
</g>
</svg>
