<?xml version="1.0" encoding="utf-8"?>
<!-- Generator: Adobe Illustrator 18.0.0, SVG Export Plug-In . SVG Version: 6.00 Build 0)  -->
<!DOCTYPE svg PUBLIC "-//W3C//DTD SVG 1.1//EN" "http://www.w3.org/Graphics/SVG/1.1/DTD/svg11.dtd">
<svg version="1.1" id="Layer_1" xmlns="http://www.w3.org/2000/svg" xmlns:xlink="http://www.w3.org/1999/xlink" x="0px" y="0px"
	 viewBox="0 0 185 117.8" enable-background="new 0 0 185 117.8" xml:space="preserve">
<g>
	<circle fill="#2368B5" cx="3.4" cy="91.7" r="3.1"/>
	<g>
		<g>
			<path fill="#0C56AB" d="M9.3,93.2c0.4-0.3,0.6-0.8,0.7-1.4l0.4,0.1c-0.1,0.6-0.3,1.1-0.7,1.5L9.3,93.2z M14.6,91.2
				c0,0,0,0.1,0,0.2c-0.1,1.3-0.2,1.7-0.3,1.9c-0.1,0.1-0.2,0.2-0.4,0.2c-0.2,0-0.5,0-0.8,0c0-0.1-0.1-0.3-0.1-0.4
				c0.3,0,0.6,0,0.7,0c0.1,0,0.2,0,0.2-0.1c0.1-0.1,0.2-0.5,0.3-1.5h-4.1v-3.3h4.2v0.4h-1.9v0.6H14v0.4h-1.7v0.6H14v0.4h-1.7v0.6
				H14.6z M10.5,88.7v0.6h1.4v-0.6H10.5z M11.9,89.6h-1.4v0.6h1.4V89.6z M10.5,91.2h1.4v-0.6h-1.4V91.2z M11.2,92
				c0.1,0.4,0.2,0.9,0.2,1.2L11,93.2c0-0.3-0.1-0.8-0.2-1.2L11.2,92z M12.2,91.9c0.2,0.3,0.3,0.8,0.4,1l-0.4,0.1
				c0-0.3-0.2-0.7-0.3-1.1L12.2,91.9z M13.3,92.7c-0.1-0.2-0.3-0.6-0.5-0.8l0.3-0.1c0.2,0.2,0.4,0.6,0.5,0.8L13.3,92.7z"/>
			<path fill="#0C56AB" d="M18.3,90.7c0.5,0.9,1.5,1.7,2.6,2.1c-0.1,0.1-0.3,0.3-0.3,0.4c-0.8-0.4-1.6-1-2.2-1.8v2.1h-0.5v-2.1
				c-0.6,0.8-1.4,1.4-2.2,1.8c-0.1-0.1-0.2-0.3-0.3-0.4c1-0.4,2-1.2,2.5-2.1v-1.5h-2.3v-0.4h2.3V88h0.5v0.8h2.4v0.4h-2.4V90.7z
				 M17,89.5c-0.1,0.3-0.1,0.5-0.2,0.7c0.3,0.2,0.5,0.5,0.7,0.7l-0.3,0.3c-0.1-0.1-0.3-0.4-0.6-0.6c-0.2,0.4-0.5,0.7-0.8,0.9
				c-0.1-0.1-0.3-0.2-0.4-0.3c0.5-0.4,0.9-1,1.1-1.8L17,89.5z M19.8,89.5c0,0.3-0.1,0.5-0.2,0.7c0.4,0.3,0.8,0.7,1.1,0.9l-0.3,0.3
				c-0.2-0.2-0.6-0.6-0.9-0.9c-0.1,0.3-0.3,0.5-0.5,0.7c-0.1-0.1-0.3-0.2-0.4-0.2c0.4-0.4,0.7-1,0.9-1.6L19.8,89.5z"/>
			<path fill="#0C56AB" d="M24.9,88.8v0.9h1.5v3.7h-0.4v-0.3h-3.8v0.4h-0.4v-3.8h1.4v-0.9h-1.8v-0.4h5.2v0.4H24.9z M25.9,92.7v-1
				h-0.1h-0.8c-0.5,0-0.6-0.1-0.6-0.6v-0.9h-0.9c0,0.6-0.3,1.3-1.2,1.8c0-0.1-0.2-0.2-0.3-0.3v1.1H25.9z M22.2,90.1v1.5
				c0.8-0.4,1-0.9,1-1.5H22.2z M24.5,88.8h-0.9v0.9h0.9V88.8z M24.9,90.1v0.9c0,0.2,0,0.2,0.2,0.2h0.7c0.1,0,0.1,0,0.1,0v-1.1H24.9z
				"/>
			<path fill="#0C56AB" d="M32.7,92.8v0.4h-5.3v-0.4h1.8v-1.1h-1.3v-2h1.3v-0.9h-1.6v-0.4h5v0.4h-1.7v0.9h1.4v2h-0.2v0h-1.2v1.1
				H32.7z M29.6,91.4v1.5h0.9v-1.5h1.4v-1.2h-1.4v-1.3h-0.9v1.3h-1.3v1.2H29.6z"/>
			<path fill="#0C56AB" d="M36.4,88.2c0,0-0.1,0.1-0.1,0.1c0.6,0.6,1.6,1.3,2.5,1.6c-0.1,0.1-0.3,0.3-0.3,0.4
				c-0.8-0.4-1.8-1-2.4-1.7c-0.6,0.7-1.5,1.3-2.4,1.7c-0.1-0.1-0.2-0.3-0.3-0.4c1-0.4,2.1-1.2,2.7-2L36.4,88.2z M38.1,90.8
				c-0.5,0.5-1.2,1.2-1.8,1.8c0.2,0.2,0.5,0.4,0.6,0.5l-0.3,0.4c-0.4-0.4-1.2-1-1.8-1.4l0.3-0.3c0.3,0.2,0.6,0.4,0.9,0.6
				c0.4-0.4,0.9-0.9,1.3-1.3h-3.2v-0.4h3.6l0.1,0L38.1,90.8z M37.1,89.7v0.4h-2.2v-0.4H37.1z"/>
			<path fill="#0C56AB" d="M42.3,89.3v0.9h2.1v0.4h-4.5v-0.4h2v-0.9h-2.4v-0.4h2.4V88h0.5v0.8h2.4v0.4H42.3z M40.1,91.2H44v2.3h-0.5
				v-0.3h-2.9v0.3h-0.4V91.2z M40.6,91.7v1.2h2.9v-1.2H40.6z"/>
			<path fill="#0C56AB" d="M11.6,95.4c-0.5,0.7-1.2,1.4-2,1.8c-0.1-0.1-0.3-0.3-0.4-0.3c0.8-0.4,1.5-0.9,1.9-1.6L11.6,95.4z
				 M14,100.2c0.2,0,0.3-0.1,0.3-0.7c0.1,0.1,0.3,0.1,0.4,0.2c-0.1,0.8-0.2,1-0.7,1h-1c-0.6,0-0.7-0.1-0.7-0.6v-1.4h-0.6
				c-0.1,1.1-0.5,1.8-2,2.1c0-0.1-0.1-0.3-0.2-0.4c1.3-0.3,1.6-0.9,1.8-1.8h-0.8v-1.9h3.2v1.9h-0.9v1.4c0,0.2,0,0.2,0.3,0.2H14z
				 M10.9,98.2h2.2v-1.1h-2.2V98.2z M14.4,97.2c-0.4-0.5-1.2-1.2-1.9-1.7l0.4-0.2c0.7,0.5,1.5,1.2,2,1.7L14.4,97.2z"/>
			<path fill="#0C56AB" d="M20.7,97.8v0.4h-2.5c0,0.2,0,0.3-0.1,0.5h2.5v0.4H18c-0.3,0.8-0.9,1.3-2.5,1.6c0-0.1-0.1-0.3-0.2-0.4
				c1.4-0.2,2-0.6,2.2-1.2h-2v-0.4h2.1c0-0.1,0.1-0.3,0.1-0.5h-2.4v-0.4h2.4v-0.5h-1.9v-0.4h1.9v-0.5h-2.2V96h1.3
				c-0.1-0.2-0.3-0.5-0.5-0.7l0.4-0.2c0.2,0.2,0.4,0.5,0.5,0.8L17.1,96h1.6c0.2-0.2,0.4-0.6,0.5-0.9l0.5,0.1
				c-0.1,0.2-0.3,0.5-0.5,0.7h1.3v0.4h-2.2v0.5h1.9v0.4h-1.9v0.5H20.7z M18.3,99.1c0.8,0.3,1.9,0.8,2.4,1.2l-0.2,0.4
				c-0.5-0.4-1.6-0.9-2.4-1.2L18.3,99.1z"/>
			<path fill="#0C56AB" d="M26,100.2c0.2,0,0.3-0.2,0.3-1.1c0.1,0.1,0.3,0.2,0.4,0.2c0,1-0.2,1.3-0.7,1.3h-0.9
				c-0.5,0-0.7-0.2-0.7-0.7v-2.1h-1.1c-0.1,1.3-0.4,2.3-1.8,2.9c-0.1-0.1-0.2-0.3-0.3-0.3c1.3-0.5,1.5-1.4,1.6-2.5h-1.5v-0.4h5.2
				v0.4H25v2.1c0,0.2,0,0.2,0.3,0.2H26z M26.2,96.1H22v-0.4h4.2V96.1z"/>
			<path fill="#0C56AB" d="M30.5,95.4c-0.1,0.1-0.1,0.2-0.2,0.3c0.7,0.7,1.5,1.2,2.5,1.6c-0.1,0.1-0.2,0.3-0.3,0.4
				c-0.3-0.2-0.7-0.3-1-0.5v0.4h-3v-0.3c-0.3,0.2-0.6,0.3-0.9,0.5c-0.1-0.1-0.2-0.3-0.3-0.4c1.1-0.5,2.2-1.2,2.8-2.2L30.5,95.4z
				 M28.2,98.3h3.7v2.4h-0.5v-0.3h-2.8v0.3h-0.4V98.3z M28.7,98.7v1.2h2.8v-1.2H28.7z M31.5,97.2c-0.5-0.3-1-0.7-1.5-1.2
				c-0.4,0.5-0.9,0.8-1.4,1.2H31.5z"/>
			<path fill="#0C56AB" d="M35.2,99.5c-0.6,0.2-1.3,0.4-1.9,0.6l-0.1-0.4c0.2-0.1,0.5-0.2,0.8-0.3v-1.6h-0.7v-0.4h0.7V96h-0.7v-0.4
				h1.9V96h-0.7v1.3h0.6v0.4h-0.6v1.5l0.7-0.2L35.2,99.5z M38.8,100.1v0.4H35v-0.4h1.8v-0.8h-1.4v-0.4h1.4v-0.7h-1.3v-2.7h3v2.7
				h-1.3v0.7h1.4v0.4h-1.4v0.8H38.8z M35.9,96.6h0.9v-0.8h-0.9V96.6z M35.9,97.8h0.9V97h-0.9V97.8z M38.1,95.9h-0.9v0.8h0.9V95.9z
				 M38.1,97h-0.9v0.8h0.9V97z"/>
			<path fill="#0C56AB" d="M40.9,95.4c-0.1,0.4-0.3,0.8-0.5,1.2v4.2H40v-3.4c-0.2,0.3-0.4,0.6-0.6,0.8c0-0.1-0.2-0.3-0.2-0.5
				c0.5-0.6,1-1.5,1.3-2.4L40.9,95.4z M42.5,100.1c-0.4,0.3-1,0.5-1.5,0.6c-0.1-0.1-0.2-0.2-0.3-0.3c0.5-0.1,1.1-0.3,1.4-0.5
				L42.5,100.1z M42.1,95.9h-1.2v-0.3h3.8v0.3h-1.2v0.4h1.1v1.2h-3.5v-1.2h1V95.9z M41.2,99.8v-2.2h3.3v2.2H41.2z M41.4,97.1h0.6
				v-0.6h-0.6V97.1z M41.6,98.3H44v-0.3h-2.5V98.3z M41.6,98.9H44v-0.3h-2.5V98.9z M41.6,99.5H44v-0.4h-2.5V99.5z M43.1,95.9h-0.7
				v0.4h0.7V95.9z M42.4,97.1h0.7v-0.6h-0.7V97.1z M43.4,99.9c0.5,0.2,1.1,0.4,1.4,0.6l-0.4,0.3c-0.3-0.2-0.8-0.4-1.3-0.6L43.4,99.9
				z M43.5,96.5v0.6h0.7v-0.6H43.5z"/>
			<path fill="#0C56AB" d="M47.2,95.4c-0.2,0.4-0.4,0.9-0.6,1.3v4h-0.4v-3.4c-0.2,0.3-0.4,0.5-0.6,0.7c0-0.1-0.2-0.3-0.3-0.4
				c0.6-0.6,1.1-1.5,1.5-2.4L47.2,95.4z M50.7,100v0.4H47V100h2.1c0.2-0.8,0.5-2.1,0.6-3l0.5,0.1c-0.2,0.9-0.4,2.1-0.6,2.9H50.7z
				 M50.5,96.7h-3.2v-0.4h3.2V96.7z M48.1,99.7c0-0.6-0.2-1.7-0.4-2.6l0.4-0.1c0.2,0.8,0.4,1.9,0.4,2.5L48.1,99.7z M48.7,96.2
				c0-0.3-0.2-0.7-0.3-1l0.4-0.1c0.1,0.3,0.2,0.7,0.3,0.9L48.7,96.2z"/>
		</g>
	</g>
	<circle fill="#EA5284" cx="63.6" cy="91.7" r="3.1"/>
	<g>
		<g>
			<path fill="#0C56AB" d="M69.6,93.2c0.4-0.3,0.6-0.8,0.7-1.4l0.4,0.1c-0.1,0.6-0.3,1.1-0.7,1.5L69.6,93.2z M74.9,91.2
				c0,0,0,0.1,0,0.2c-0.1,1.3-0.2,1.7-0.3,1.9c-0.1,0.1-0.2,0.2-0.4,0.2c-0.2,0-0.5,0-0.8,0c0-0.1-0.1-0.3-0.1-0.4
				c0.3,0,0.6,0,0.7,0c0.1,0,0.2,0,0.2-0.1c0.1-0.1,0.2-0.5,0.3-1.5h-4.1v-3.3h4.2v0.4h-1.9v0.6h1.7v0.4h-1.7v0.6h1.7v0.4h-1.7v0.6
				H74.9z M70.8,88.7v0.6h1.4v-0.6H70.8z M72.2,89.6h-1.4v0.6h1.4V89.6z M70.8,91.2h1.4v-0.6h-1.4V91.2z M71.5,92
				c0.1,0.4,0.2,0.9,0.2,1.2l-0.4,0.1c0-0.3-0.1-0.8-0.2-1.2L71.5,92z M72.5,91.9c0.2,0.3,0.3,0.8,0.4,1l-0.4,0.1
				c0-0.3-0.2-0.7-0.3-1.1L72.5,91.9z M73.6,92.7c-0.1-0.2-0.3-0.6-0.5-0.8l0.3-0.1c0.2,0.2,0.4,0.6,0.5,0.8L73.6,92.7z"/>
			<path fill="#0C56AB" d="M78.6,90.7c0.5,0.9,1.5,1.7,2.6,2.1c-0.1,0.1-0.3,0.3-0.3,0.4c-0.8-0.4-1.6-1-2.2-1.8v2.1h-0.5v-2.1
				c-0.6,0.8-1.4,1.4-2.2,1.8c-0.1-0.1-0.2-0.3-0.3-0.4c1-0.4,2-1.2,2.5-2.1v-1.5h-2.3v-0.4h2.3V88h0.5v0.8h2.4v0.4h-2.4V90.7z
				 M77.3,89.5c-0.1,0.3-0.1,0.5-0.2,0.7c0.3,0.2,0.5,0.5,0.7,0.7l-0.3,0.3c-0.1-0.1-0.3-0.4-0.6-0.6c-0.2,0.4-0.5,0.7-0.8,0.9
				c-0.1-0.1-0.3-0.2-0.4-0.3c0.5-0.4,0.9-1,1.1-1.8L77.3,89.5z M80.1,89.5c0,0.3-0.1,0.5-0.2,0.7c0.4,0.3,0.8,0.7,1.1,0.9l-0.3,0.3
				c-0.2-0.2-0.6-0.6-0.9-0.9c-0.1,0.3-0.3,0.5-0.5,0.7c-0.1-0.1-0.3-0.2-0.4-0.2c0.4-0.4,0.7-1,0.9-1.6L80.1,89.5z"/>
			<path fill="#0C56AB" d="M85.2,88.8v0.9h1.5v3.7h-0.4v-0.3h-3.8v0.4H82v-3.8h1.4v-0.9h-1.8v-0.4H87v0.4H85.2z M86.2,92.7v-1h-0.1
				h-0.8c-0.5,0-0.6-0.1-0.6-0.6v-0.9h-0.9c0,0.6-0.3,1.3-1.2,1.8c0-0.1-0.2-0.2-0.3-0.3v1.1H86.2z M82.5,90.1v1.5
				c0.8-0.4,1-0.9,1-1.5H82.5z M84.8,88.8h-0.9v0.9h0.9V88.8z M85.2,90.1v0.9c0,0.2,0,0.2,0.2,0.2h0.7c0.1,0,0.1,0,0.1,0v-1.1H85.2z
				"/>
			<path fill="#0C56AB" d="M93,92.8v0.4h-5.3v-0.4h1.8v-1.1h-1.3v-2h1.3v-0.9h-1.6v-0.4h5v0.4h-1.7v0.9h1.4v2h-0.2v0h-1.2v1.1H93z
				 M89.9,91.4v1.5h0.9v-1.5h1.4v-1.2h-1.4v-1.3h-0.9v1.3h-1.3v1.2H89.9z"/>
			<path fill="#0C56AB" d="M96.7,88.2c0,0-0.1,0.1-0.1,0.1c0.6,0.6,1.6,1.3,2.5,1.6c-0.1,0.1-0.3,0.3-0.3,0.4
				c-0.8-0.4-1.8-1-2.4-1.7c-0.6,0.7-1.5,1.3-2.4,1.7c-0.1-0.1-0.2-0.3-0.3-0.4c1-0.4,2.1-1.2,2.7-2L96.7,88.2z M98.4,90.8
				c-0.5,0.5-1.2,1.2-1.8,1.8c0.2,0.2,0.5,0.4,0.6,0.5L97,93.5c-0.4-0.4-1.2-1-1.8-1.4l0.3-0.3c0.3,0.2,0.6,0.4,0.9,0.6
				c0.4-0.4,0.9-0.9,1.3-1.3h-3.2v-0.4H98l0.1,0L98.4,90.8z M97.4,89.7v0.4h-2.2v-0.4H97.4z"/>
			<path fill="#0C56AB" d="M102.6,89.3v0.9h2.1v0.4h-4.5v-0.4h2v-0.9h-2.4v-0.4h2.4V88h0.5v0.8h2.4v0.4H102.6z M100.4,91.2h3.9v2.3
				h-0.5v-0.3h-2.9v0.3h-0.4V91.2z M100.9,91.7v1.2h2.9v-1.2H100.9z"/>
			<path fill="#0C56AB" d="M107.9,88.2c-0.5,0.7-1.2,1.4-2,1.8c-0.1-0.1-0.3-0.3-0.4-0.3c0.8-0.4,1.5-0.9,1.9-1.6L107.9,88.2z
				 M110.3,93c0.2,0,0.3-0.1,0.3-0.7c0.1,0.1,0.3,0.1,0.4,0.2c-0.1,0.8-0.2,1-0.7,1h-1c-0.6,0-0.7-0.1-0.7-0.6v-1.4H108
				c-0.1,1.1-0.5,1.8-2,2.1c0-0.1-0.1-0.3-0.2-0.4c1.3-0.3,1.6-0.9,1.8-1.8h-0.8v-1.9h3.2v1.9H109v1.4c0,0.2,0,0.2,0.3,0.2H110.3z
				 M107.2,91h2.2v-1.1h-2.2V91z M110.7,90c-0.4-0.5-1.2-1.2-1.9-1.7l0.4-0.2c0.7,0.5,1.5,1.2,2,1.7L110.7,90z"/>
			<path fill="#0C56AB" d="M117,90.6V91h-2.5c0,0.2,0,0.3-0.1,0.5h2.5v0.4h-2.6c-0.3,0.8-0.9,1.3-2.5,1.6c0-0.1-0.2-0.3-0.2-0.4
				c1.4-0.2,2-0.6,2.2-1.2h-2v-0.4h2.1c0-0.1,0.1-0.3,0.1-0.5h-2.4v-0.4h2.4v-0.5h-1.9v-0.4h1.9v-0.5h-2.2v-0.4h1.3
				c-0.1-0.2-0.3-0.5-0.5-0.7l0.4-0.2c0.2,0.2,0.4,0.5,0.5,0.8l-0.2,0.1h1.6c0.2-0.2,0.4-0.6,0.5-0.9l0.5,0.1
				c-0.1,0.2-0.3,0.5-0.5,0.7h1.3v0.4h-2.2v0.5h1.9v0.4h-1.9v0.5H117z M114.6,91.9c0.8,0.3,1.9,0.8,2.4,1.2l-0.2,0.4
				c-0.5-0.4-1.6-0.9-2.4-1.2L114.6,91.9z"/>
			<path fill="#0C56AB" d="M122.3,93c0.2,0,0.3-0.2,0.3-1.1c0.1,0.1,0.3,0.2,0.4,0.2c0,1-0.2,1.3-0.7,1.3h-0.9
				c-0.5,0-0.7-0.2-0.7-0.7v-2.1h-1.1c-0.1,1.3-0.4,2.3-1.8,2.9c-0.1-0.1-0.2-0.3-0.3-0.3c1.3-0.5,1.5-1.4,1.6-2.5h-1.5v-0.4h5.2
				v0.4h-1.7v2.1c0,0.2,0,0.2,0.3,0.2H122.3z M122.5,88.9h-4.2v-0.4h4.2V88.9z"/>
			<path fill="#0C56AB" d="M71.6,98.6c0.3,0.5,0.7,1.1,0.8,1.5l-0.4,0.2c-0.1-0.2-0.2-0.4-0.3-0.6c-1.5,0.5-1.7,0.6-1.8,0.7
				c0-0.1-0.1-0.3-0.2-0.5c0.1,0,0.3-0.2,0.3-0.4v-4.1h2.3v2.8h-1.8v1.5l1.1-0.4c-0.1-0.2-0.2-0.4-0.4-0.6L71.6,98.6z M70.5,95.9
				v0.8h1.4v-0.8H70.5z M71.9,97.9v-0.8h-1.4v0.8H71.9z M74.8,99c0,0.3-0.1,0.4-0.2,0.5c-0.2,0.1-0.4,0.1-0.9,0.1
				c0-0.1-0.1-0.3-0.1-0.4c0.3,0,0.6,0,0.7,0c0.1,0,0.1,0,0.1-0.1v-3h-1.1v4.7h-0.4v-5.1h2V99z"/>
			<path fill="#0C56AB" d="M78.5,99.2h-2.9v-0.4h0.6v-2.4h-0.5V96h0.5v-0.7h0.4V96h1.1v-0.7h0.4V96h0.4v0.4h-0.4v2.4h0.4V99.2z
				 M76.9,99.5c-0.2,0.5-0.6,0.9-0.9,1.2c-0.1-0.1-0.3-0.2-0.4-0.3c0.3-0.3,0.6-0.7,0.8-1.1L76.9,99.5z M76.6,96.4v0.5h1.1v-0.5
				H76.6z M76.6,97.9h1.1v-0.6h-1.1V97.9z M76.6,98.8h1.1v-0.6h-1.1V98.8z M77.6,99.4c0.2,0.3,0.5,0.6,0.6,0.9l-0.4,0.2
				c-0.1-0.2-0.4-0.6-0.6-0.9L77.6,99.4z M80.9,100.1c0,0.3-0.1,0.4-0.2,0.5c-0.2,0.1-0.5,0.1-0.9,0.1c0-0.1-0.1-0.3-0.1-0.4
				c0.3,0,0.6,0,0.7,0c0.1,0,0.1,0,0.1-0.1v-1.4h-1.3c-0.1,0.7-0.2,1.5-0.6,2.1c-0.1-0.1-0.3-0.2-0.4-0.3c0.5-0.8,0.5-1.9,0.5-2.8
				v-2.2h2.1V100.1z M80.5,98.3v-1h-1.2v0.4c0,0.2,0,0.4,0,0.6H80.5z M79.2,95.9v1h1.2v-1H79.2z"/>
			<path fill="#0C56AB" d="M87,100.1v0.4h-5.1v-5h5v0.4h-4.6v4.2H87z M82.6,97.1c0.3,0.1,0.7,0.3,0.8,0.5l-0.2,0.3
				c-0.2-0.2-0.5-0.4-0.8-0.5L82.6,97.1z M83.7,98.4c-0.2,0.4-0.5,0.9-0.7,1.3l-0.3-0.3c0.2-0.3,0.5-0.9,0.8-1.3L83.7,98.4z
				 M83.5,96.8c-0.2-0.2-0.5-0.4-0.8-0.5L83,96c0.3,0.1,0.6,0.3,0.8,0.5L83.5,96.8z M85.8,97v0.5h0.9v0.3h-0.9v0.5h0.9v0.3h-0.9v0.5
				h1v0.4h-2.3v0.3h-0.4v-2.4c-0.1,0.2-0.3,0.3-0.4,0.5c0-0.1-0.2-0.3-0.3-0.3c0.4-0.4,0.8-1.1,1.1-1.7l0.4,0.1
				c-0.1,0.2-0.2,0.4-0.3,0.6h0.9c-0.1-0.2-0.2-0.4-0.3-0.5l0.4-0.1c0.1,0.2,0.3,0.5,0.3,0.7h0.9V97H85.8z M85.4,97h-0.9v0.5h0.9V97
				z M85.4,97.9h-0.9v0.5h0.9V97.9z M85.4,98.7h-0.9v0.5h0.9V98.7z"/>
			<path fill="#0C56AB" d="M93,99.4h-2.4v1.3h-0.5v-1.3h-2.4V99h2.4v-0.5h0.5V99H93V99.4z M89.3,97.9c-0.5,0.2-0.9,0.5-1.3,0.7
				l-0.2-0.4c0.4-0.2,0.9-0.4,1.5-0.7L89.3,97.9z M91.3,98.6c0-0.1-0.1-0.2-0.2-0.3c-1.6,0.2-1.8,0.2-1.9,0.2c0-0.1-0.1-0.3-0.1-0.4
				c0.1,0,0.3-0.1,0.5-0.3c0.1-0.1,0.4-0.3,0.7-0.6c-0.7,0.1-0.8,0.1-0.9,0.1c0-0.1-0.1-0.3-0.1-0.4c0.1,0,0.2-0.1,0.3-0.2
				c0.1-0.1,0.3-0.3,0.5-0.6h-2.2v-0.4h2.4c-0.1-0.2-0.2-0.3-0.3-0.5l0.4-0.1c0.1,0.2,0.3,0.4,0.4,0.6H93v0.4h-2.5
				c-0.2,0.3-0.4,0.5-0.6,0.7l0.8,0c0.1-0.2,0.3-0.3,0.4-0.5l0.4,0.2c-0.5,0.6-1,1.1-1.5,1.5l1-0.1c-0.1-0.1-0.2-0.3-0.3-0.4
				l0.3-0.1c0.3,0.3,0.6,0.7,0.7,1L91.3,98.6z M88.2,96.4c0.3,0.2,0.7,0.5,0.9,0.7l-0.3,0.3c-0.2-0.2-0.6-0.5-0.9-0.7L88.2,96.4z
				 M92.6,98.6c-0.2-0.2-0.8-0.6-1.2-0.8l0.3-0.2c0.4,0.2,0.9,0.6,1.2,0.8L92.6,98.6z M92.7,96.6c-0.3,0.3-0.6,0.6-0.9,0.8l-0.3-0.2
				c0.3-0.2,0.6-0.5,0.8-0.8L92.7,96.6z"/>
		</g>
	</g>
	<g>
		<path fill="#58595B" d="M0.6,1.5C0.8,1.2,1.1,1,1.6,1c0.5,0,0.8,0.2,1,0.5c0.2,0.3,0.3,0.8,0.3,1.2c0,0.5-0.1,0.9-0.3,1.2
			c-0.2,0.3-0.6,0.5-1,0.5c-0.5,0-0.8-0.2-1-0.5C0.3,3.7,0.3,3.2,0.3,2.8C0.3,2.3,0.3,1.9,0.6,1.5z M1.1,3.9C1.2,4,1.4,4.1,1.6,4.1
			C1.8,4.1,2,4,2.1,3.9c0.2-0.2,0.3-0.6,0.3-1.1c0-0.5-0.1-0.9-0.3-1.1C2,1.5,1.8,1.5,1.6,1.5c-0.2,0-0.4,0.1-0.5,0.2
			C0.9,1.9,0.8,2.2,0.8,2.8C0.8,3.3,0.9,3.6,1.1,3.9z"/>
		<path fill="#58595B" d="M3.7,3.8c0.2,0,0.4,0.2,0.4,0.4S3.9,4.5,3.7,4.5c-0.2,0-0.4-0.2-0.4-0.4S3.5,3.8,3.7,3.8z"/>
		<path fill="#58595B" d="M5.4,2.5l1-0.9H4.7V1.1H7v0.5l-1,0.9c0.5,0,1,0.3,1,1c0,0.6-0.4,1.1-1.2,1.1C5.1,4.5,4.7,4,4.6,3.5
			l0.5-0.1c0,0.4,0.3,0.7,0.7,0.7c0.5,0,0.7-0.3,0.7-0.6c0-0.4-0.4-0.6-0.7-0.6c-0.1,0-0.2,0-0.3,0.1L5.4,2.5z"/>
		<path fill="#58595B" d="M9.9,1.6C9.8,1.5,9.5,1.5,9.3,1.5C8.6,1.5,8.1,2,8.1,2.7C8.2,2.4,8.5,2.2,9,2.2c0.7,0,1.2,0.4,1.2,1.1
			c0,0.7-0.6,1.2-1.2,1.2C8.3,4.5,7.6,4.1,7.6,3c0-1.3,0.8-2,1.7-2C9.6,1,9.9,1.1,10,1.2L9.9,1.6z M8.9,4.1c0.4,0,0.7-0.3,0.7-0.7
			c0-0.5-0.3-0.7-0.7-0.7S8.2,2.9,8.2,3.4C8.2,3.8,8.5,4.1,8.9,4.1z"/>
	</g>
	<g>
		<path fill="#58595B" d="M0.6,12.3c0.2-0.3,0.6-0.5,1-0.5c0.5,0,0.8,0.2,1,0.5c0.2,0.3,0.3,0.8,0.3,1.2c0,0.5-0.1,0.9-0.3,1.2
			c-0.2,0.3-0.6,0.5-1,0.5c-0.5,0-0.8-0.2-1-0.5c-0.2-0.3-0.3-0.8-0.3-1.2C0.3,13.1,0.3,12.6,0.6,12.3z M1.1,14.6
			c0.1,0.1,0.3,0.2,0.5,0.2c0.2,0,0.4-0.1,0.5-0.2c0.2-0.2,0.3-0.6,0.3-1.1c0-0.5-0.1-0.9-0.3-1.1c-0.1-0.1-0.3-0.2-0.5-0.2
			c-0.2,0-0.4,0.1-0.5,0.2c-0.2,0.2-0.3,0.6-0.3,1.1C0.8,14,0.9,14.4,1.1,14.6z"/>
		<path fill="#58595B" d="M3.7,14.5c0.2,0,0.4,0.2,0.4,0.4s-0.2,0.4-0.4,0.4c-0.2,0-0.4-0.2-0.4-0.4S3.5,14.5,3.7,14.5z"/>
		<path fill="#58595B" d="M5.4,13.2l1-0.9H4.7v-0.5H7v0.5l-1,0.9c0.5,0,1,0.3,1,1c0,0.6-0.4,1.1-1.2,1.1c-0.8,0-1.2-0.5-1.3-1.1
			l0.5-0.1c0,0.4,0.3,0.7,0.7,0.7c0.5,0,0.7-0.3,0.7-0.6c0-0.4-0.4-0.6-0.7-0.6c-0.1,0-0.2,0-0.3,0.1L5.4,13.2z"/>
		<path fill="#58595B" d="M7.5,13.9l1.4-2h0.7V14h0.6v0.5H9.6v0.8H9.2v-0.8H7.5V13.9z M9.2,12.3L8,14h1.2V12.3z"/>
	</g>
	<g>
		<path fill="#58595B" d="M0.6,23.1c0.2-0.3,0.6-0.5,1-0.5c0.5,0,0.8,0.2,1,0.5c0.2,0.3,0.3,0.8,0.3,1.2c0,0.5-0.1,0.9-0.3,1.2
			c-0.2,0.3-0.6,0.5-1,0.5c-0.5,0-0.8-0.2-1-0.5c-0.2-0.3-0.3-0.8-0.3-1.2C0.3,23.8,0.3,23.4,0.6,23.1z M1.1,25.4
			c0.1,0.1,0.3,0.2,0.5,0.2c0.2,0,0.4-0.1,0.5-0.2c0.2-0.2,0.3-0.6,0.3-1.1c0-0.5-0.1-0.9-0.3-1.1C2,23.1,1.8,23,1.6,23
			c-0.2,0-0.4,0.1-0.5,0.2c-0.2,0.2-0.3,0.6-0.3,1.1C0.8,24.8,0.9,25.2,1.1,25.4z"/>
		<path fill="#58595B" d="M3.7,25.3c0.2,0,0.4,0.2,0.4,0.4S3.9,26,3.7,26c-0.2,0-0.4-0.2-0.4-0.4S3.5,25.3,3.7,25.3z"/>
		<path fill="#58595B" d="M5.4,24l1-0.9H4.7v-0.5H7v0.5l-1,0.9c0.5,0,1,0.3,1,1c0,0.6-0.4,1.1-1.2,1.1c-0.8,0-1.2-0.5-1.3-1.1
			l0.5-0.1c0,0.4,0.3,0.7,0.7,0.7c0.5,0,0.7-0.3,0.7-0.6c0-0.4-0.4-0.6-0.7-0.6c-0.1,0-0.2,0-0.3,0.1L5.4,24z"/>
		<path fill="#58595B" d="M7.5,23.8c0,0,0-0.1,0-0.1c0-0.6,0.4-1.1,1.2-1.1c0.7,0,1.1,0.5,1.1,1c0,0.4-0.2,0.8-0.6,1L8.5,25
			c-0.2,0.1-0.4,0.3-0.4,0.5h1.7V26H7.5c0-0.6,0.2-1,0.8-1.3l0.6-0.4c0.3-0.2,0.5-0.4,0.5-0.7c0-0.3-0.2-0.6-0.6-0.6
			C8.2,23,8,23.3,8,23.7c0,0,0,0.1,0,0.2L7.5,23.8z"/>
	</g>
	<g>
		<path fill="#58595B" d="M0.6,33.8c0.2-0.3,0.6-0.5,1-0.5c0.5,0,0.8,0.2,1,0.5c0.2,0.3,0.3,0.8,0.3,1.2c0,0.5-0.1,0.9-0.3,1.2
			c-0.2,0.3-0.6,0.5-1,0.5c-0.5,0-0.8-0.2-1-0.5c-0.2-0.3-0.3-0.8-0.3-1.2C0.3,34.6,0.3,34.2,0.6,33.8z M1.1,36.1
			c0.1,0.1,0.3,0.2,0.5,0.2c0.2,0,0.4-0.1,0.5-0.2c0.2-0.2,0.3-0.6,0.3-1.1c0-0.5-0.1-0.9-0.3-1.1c-0.1-0.1-0.3-0.2-0.5-0.2
			c-0.2,0-0.4,0.1-0.5,0.2c-0.2,0.2-0.3,0.6-0.3,1.1C0.8,35.6,0.9,35.9,1.1,36.1z"/>
		<path fill="#58595B" d="M3.7,36c0.2,0,0.4,0.2,0.4,0.4s-0.2,0.4-0.4,0.4c-0.2,0-0.4-0.2-0.4-0.4S3.5,36,3.7,36z"/>
		<path fill="#58595B" d="M5.4,34.7l1-0.9H4.7v-0.5H7v0.5l-1,0.9c0.5,0,1,0.3,1,1c0,0.6-0.4,1.1-1.2,1.1c-0.8,0-1.2-0.5-1.3-1.1
			l0.5-0.1c0,0.4,0.3,0.7,0.7,0.7c0.5,0,0.7-0.3,0.7-0.6c0-0.4-0.4-0.6-0.7-0.6c-0.1,0-0.2,0-0.3,0.1L5.4,34.7z"/>
		<path fill="#58595B" d="M7.9,33.8c0.2-0.3,0.6-0.5,1-0.5c0.5,0,0.8,0.2,1,0.5c0.2,0.3,0.3,0.8,0.3,1.2c0,0.5-0.1,0.9-0.3,1.2
			c-0.2,0.3-0.6,0.5-1,0.5c-0.5,0-0.8-0.2-1-0.5c-0.2-0.3-0.3-0.8-0.3-1.2C7.6,34.6,7.7,34.2,7.9,33.8z M8.4,36.1
			c0.1,0.1,0.3,0.2,0.5,0.2c0.2,0,0.4-0.1,0.5-0.2c0.2-0.2,0.3-0.6,0.3-1.1c0-0.5-0.1-0.9-0.3-1.1c-0.1-0.1-0.3-0.2-0.5-0.2
			c-0.2,0-0.4,0.1-0.5,0.2c-0.2,0.2-0.3,0.6-0.3,1.1C8.1,35.6,8.2,35.9,8.4,36.1z"/>
	</g>
	<g>
		<path fill="#58595B" d="M0.6,44.6c0.2-0.3,0.6-0.5,1-0.5c0.5,0,0.8,0.2,1,0.5c0.2,0.3,0.3,0.8,0.3,1.2c0,0.5-0.1,0.9-0.3,1.2
			c-0.2,0.3-0.6,0.5-1,0.5c-0.5,0-0.8-0.2-1-0.5c-0.2-0.3-0.3-0.8-0.3-1.2C0.3,45.3,0.3,44.9,0.6,44.6z M1.1,46.9
			c0.1,0.1,0.3,0.2,0.5,0.2c0.2,0,0.4-0.1,0.5-0.2c0.2-0.2,0.3-0.6,0.3-1.1c0-0.5-0.1-0.9-0.3-1.1c-0.1-0.1-0.3-0.2-0.5-0.2
			c-0.2,0-0.4,0.1-0.5,0.2c-0.2,0.2-0.3,0.6-0.3,1.1C0.8,46.3,0.9,46.7,1.1,46.9z"/>
		<path fill="#58595B" d="M3.7,46.8c0.2,0,0.4,0.2,0.4,0.4s-0.2,0.4-0.4,0.4c-0.2,0-0.4-0.2-0.4-0.4S3.5,46.8,3.7,46.8z"/>
		<path fill="#58595B" d="M4.7,45.3c0,0,0-0.1,0-0.1c0-0.6,0.4-1.1,1.2-1.1c0.7,0,1.1,0.5,1.1,1c0,0.4-0.2,0.8-0.6,1l-0.7,0.4
			c-0.2,0.1-0.4,0.3-0.4,0.5H7v0.5H4.6c0-0.6,0.2-1,0.8-1.3L6,45.8c0.3-0.2,0.5-0.4,0.5-0.7c0-0.3-0.2-0.6-0.6-0.6
			c-0.4,0-0.7,0.3-0.7,0.7c0,0,0,0.1,0,0.2L4.7,45.3z"/>
		<path fill="#58595B" d="M7.4,46.6c0-0.4,0.3-0.7,0.6-0.8c-0.3-0.1-0.6-0.4-0.6-0.8C7.5,44.4,8,44,8.6,44c0.6,0,1.1,0.4,1.1,0.9
			c0,0.4-0.2,0.7-0.6,0.8c0.4,0.1,0.6,0.4,0.6,0.8c0,0.5-0.4,1-1.2,1S7.4,47.1,7.4,46.6z M9.4,46.6c0-0.3-0.3-0.6-0.7-0.6
			c-0.4,0-0.7,0.3-0.7,0.6c0,0.3,0.3,0.6,0.7,0.6S9.4,46.9,9.4,46.6z M9.3,45c0-0.3-0.2-0.5-0.6-0.5S8,44.7,8,45
			c0,0.3,0.3,0.5,0.6,0.6C9,45.6,9.3,45.3,9.3,45z"/>
	</g>
	<g>
		<path fill="#58595B" d="M0.6,55.3c0.2-0.3,0.6-0.5,1-0.5c0.5,0,0.8,0.2,1,0.5c0.2,0.3,0.3,0.8,0.3,1.2c0,0.5-0.1,0.9-0.3,1.2
			c-0.2,0.3-0.6,0.5-1,0.5c-0.5,0-0.8-0.2-1-0.5c-0.2-0.3-0.3-0.8-0.3-1.2C0.3,56.1,0.3,55.7,0.6,55.3z M1.1,57.7
			c0.1,0.1,0.3,0.2,0.5,0.2c0.2,0,0.4-0.1,0.5-0.2c0.2-0.2,0.3-0.6,0.3-1.1c0-0.5-0.1-0.9-0.3-1.1c-0.1-0.1-0.3-0.2-0.5-0.2
			c-0.2,0-0.4,0.1-0.5,0.2c-0.2,0.2-0.3,0.6-0.3,1.1C0.8,57.1,0.9,57.4,1.1,57.7z"/>
		<path fill="#58595B" d="M3.7,57.6c0.2,0,0.4,0.2,0.4,0.4s-0.2,0.4-0.4,0.4c-0.2,0-0.4-0.2-0.4-0.4S3.5,57.6,3.7,57.6z"/>
		<path fill="#58595B" d="M4.7,56c0,0,0-0.1,0-0.1c0-0.6,0.4-1.1,1.2-1.1c0.7,0,1.1,0.5,1.1,1c0,0.4-0.2,0.8-0.6,1l-0.7,0.4
			c-0.2,0.1-0.4,0.3-0.4,0.5H7v0.5H4.6c0-0.6,0.2-1,0.8-1.3L6,56.5c0.3-0.2,0.5-0.4,0.5-0.7c0-0.3-0.2-0.6-0.6-0.6
			c-0.4,0-0.7,0.3-0.7,0.7c0,0,0,0.1,0,0.2L4.7,56z"/>
		<path fill="#58595B" d="M9.8,55.4c-0.1-0.1-0.3-0.1-0.6-0.1c-0.7,0-1.1,0.5-1.2,1.2C8.1,56.2,8.4,56,8.9,56c0.7,0,1.2,0.4,1.2,1.1
			c0,0.7-0.6,1.2-1.2,1.2c-0.6,0-1.3-0.4-1.3-1.6c0-1.3,0.8-2,1.7-2c0.3,0,0.6,0.1,0.7,0.2L9.8,55.4z M8.8,57.9
			c0.4,0,0.7-0.3,0.7-0.7c0-0.5-0.3-0.7-0.7-0.7s-0.7,0.3-0.7,0.7C8.1,57.6,8.4,57.9,8.8,57.9z"/>
	</g>
	<g>
		<path fill="#58595B" d="M0.6,66.1c0.2-0.3,0.6-0.5,1-0.5c0.5,0,0.8,0.2,1,0.5c0.2,0.3,0.3,0.8,0.3,1.2c0,0.5-0.1,0.9-0.3,1.2
			c-0.2,0.3-0.6,0.5-1,0.5c-0.5,0-0.8-0.2-1-0.5c-0.2-0.3-0.3-0.8-0.3-1.2C0.3,66.9,0.3,66.4,0.6,66.1z M1.1,68.4
			c0.1,0.1,0.3,0.2,0.5,0.2c0.2,0,0.4-0.1,0.5-0.2c0.2-0.2,0.3-0.6,0.3-1.1c0-0.5-0.1-0.9-0.3-1.1C2,66.1,1.8,66,1.6,66
			c-0.2,0-0.4,0.1-0.5,0.2c-0.2,0.2-0.3,0.6-0.3,1.1C0.8,67.8,0.9,68.2,1.1,68.4z"/>
		<path fill="#58595B" d="M3.7,68.3c0.2,0,0.4,0.2,0.4,0.4S3.9,69,3.7,69c-0.2,0-0.4-0.2-0.4-0.4S3.5,68.3,3.7,68.3z"/>
		<path fill="#58595B" d="M4.7,66.8c0,0,0-0.1,0-0.1c0-0.6,0.4-1.1,1.2-1.1c0.7,0,1.1,0.5,1.1,1c0,0.4-0.2,0.8-0.6,1l-0.7,0.4
			c-0.2,0.1-0.4,0.3-0.4,0.5H7V69H4.6c0-0.6,0.2-1,0.8-1.3L6,67.3c0.3-0.2,0.5-0.4,0.5-0.7c0-0.3-0.2-0.6-0.6-0.6
			c-0.4,0-0.7,0.3-0.7,0.7c0,0,0,0.1,0,0.2L4.7,66.8z"/>
		<path fill="#58595B" d="M7.3,67.7l1.4-2h0.7v2.1H10v0.5H9.4V69H9v-0.8H7.3V67.7z M9,66.1l-1.2,1.6H9V66.1z"/>
	</g>
	<polyline fill="none" stroke="#EA5284" stroke-width="0.3218" stroke-linejoin="bevel" stroke-miterlimit="10" points="30.6,9.5 
		35.4,5 38.6,7.7 42.8,4.6 46,17.1 48.1,10.9 50.7,15.7 53.9,6.4 59.7,16.4 68.2,9.1 71.3,10.2 72.9,13.3 78.2,9.1 84,23 89.3,14.7 
		93,23.7 106.2,15.4 117.3,39.3 120.5,33.1 131.6,60.8 137.4,56 143.2,46.6 146.4,52.9 151.2,51.1 155.4,63.6 164.9,57 170.2,56.3 	
		"/>
	<path fill="none" stroke="#0C56AB" stroke-width="0.3218" stroke-linejoin="bevel" stroke-miterlimit="10" d="M32.7,19.9L50.2,8.4
		L70.3,7l17.4,2.8c0,0,7.4,6.2,9.5,6.6c2.1,0.3,12.7-0.3,15.3,0c2.6,0.3,11.6,6.6,11.6,6.6l7.9,13.5l10,5.9l12.7-7.6
		c0,0,10.6,6.2,11.6,7.3c1.1,1,5.8,7.6,5.8,7.6"/>
	<line fill="none" stroke="#58595B" stroke-width="0.283" stroke-miterlimit="10" x1="17.4" y1="2.9" x2="185" y2="2.9"/>
	<line fill="none" stroke="#58595B" stroke-width="0.283" stroke-miterlimit="10" x1="17.4" y1="13.6" x2="185" y2="13.6"/>
	<line fill="none" stroke="#58595B" stroke-width="0.283" stroke-miterlimit="10" x1="17.4" y1="24.4" x2="185" y2="24.4"/>
	<line fill="none" stroke="#58595B" stroke-width="0.283" stroke-miterlimit="10" x1="17.4" y1="35.2" x2="185" y2="35.2"/>
	<line fill="none" stroke="#58595B" stroke-width="0.283" stroke-miterlimit="10" x1="17.4" y1="45.9" x2="185" y2="45.9"/>
	<line fill="none" stroke="#58595B" stroke-width="0.283" stroke-miterlimit="10" x1="17.4" y1="56.7" x2="185" y2="56.7"/>
	<line fill="none" stroke="#58595B" stroke-width="0.283" stroke-miterlimit="10" x1="17.4" y1="67.4" x2="185" y2="67.4"/>
	
		<line fill="none" stroke="#414042" stroke-width="5.943695e-002" stroke-miterlimit="10" x1="25.7" y1="72.1" x2="25.7" y2="69.4"/>
	
		<line fill="none" stroke="#414042" stroke-width="5.943695e-002" stroke-miterlimit="10" x1="123.7" y1="72.1" x2="123.7" y2="69.4"/>
	
		<line fill="none" stroke="#414042" stroke-width="5.943695e-002" stroke-miterlimit="10" x1="99.2" y1="72.1" x2="99.2" y2="69.4"/>
	
		<line fill="none" stroke="#414042" stroke-width="5.943695e-002" stroke-miterlimit="10" x1="74.7" y1="72.1" x2="74.7" y2="69.4"/>
	
		<line fill="none" stroke="#414042" stroke-width="5.943695e-002" stroke-miterlimit="10" x1="50.2" y1="72.1" x2="50.2" y2="69.4"/>
	
		<line fill="none" stroke="#414042" stroke-width="5.943695e-002" stroke-miterlimit="10" x1="148.1" y1="72.1" x2="148.1" y2="69.4"/>
	
		<line fill="none" stroke="#414042" stroke-width="5.943695e-002" stroke-miterlimit="10" x1="172.6" y1="72.1" x2="172.6" y2="69.4"/>
	<g>
		<path fill="#58595B" d="M22,76.3c0,0,0-0.1,0-0.1c0-0.5,0.4-0.9,1-0.9c0.6,0,0.9,0.4,0.9,0.9c0,0.4-0.2,0.7-0.5,0.9l-0.6,0.4
			c-0.2,0.1-0.3,0.2-0.3,0.4h1.4v0.4h-2c0-0.5,0.2-0.8,0.7-1.1l0.5-0.3c0.3-0.2,0.4-0.4,0.4-0.6c0-0.3-0.2-0.5-0.5-0.5
			c-0.4,0-0.5,0.3-0.5,0.6c0,0,0,0.1,0,0.1L22,76.3z"/>
		<path fill="#58595B" d="M24.5,75.7c0.2-0.3,0.5-0.5,0.9-0.5c0.4,0,0.7,0.2,0.9,0.5c0.2,0.3,0.3,0.6,0.3,1c0,0.4-0.1,0.7-0.3,1
			c-0.2,0.3-0.5,0.5-0.9,0.5c-0.4,0-0.7-0.2-0.9-0.5c-0.2-0.3-0.3-0.6-0.3-1C24.3,76.3,24.4,76,24.5,75.7z M25,77.6
			c0.1,0.1,0.2,0.2,0.4,0.2c0.2,0,0.3-0.1,0.4-0.2c0.2-0.2,0.2-0.5,0.2-0.9c0-0.4-0.1-0.7-0.2-0.9c-0.1-0.1-0.2-0.2-0.4-0.2
			c-0.2,0-0.3,0.1-0.4,0.2c-0.2,0.2-0.2,0.5-0.2,0.9C24.7,77.2,24.8,77.5,25,77.6z"/>
		<path fill="#58595B" d="M27.5,78.1v-2h-0.7v-0.3c0.4,0,0.7-0.2,0.7-0.5h0.4v2.8H27.5z"/>
		<path fill="#58595B" d="M29,78.1v-2h-0.7v-0.3c0.4,0,0.7-0.2,0.7-0.5h0.4v2.8H29z"/>
	</g>
	<g>
		<path fill="#58595B" d="M45.5,76.3c0,0,0-0.1,0-0.1c0-0.5,0.4-0.9,1-0.9c0.6,0,0.9,0.4,0.9,0.9c0,0.4-0.2,0.7-0.5,0.9l-0.6,0.4
			c-0.2,0.1-0.3,0.2-0.3,0.4h1.4v0.4h-2c0-0.5,0.2-0.8,0.7-1.1l0.5-0.3c0.3-0.2,0.4-0.4,0.4-0.6c0-0.3-0.2-0.5-0.5-0.5
			c-0.4,0-0.5,0.3-0.5,0.6c0,0,0,0.1,0,0.1L45.5,76.3z"/>
		<path fill="#58595B" d="M48.1,75.7c0.2-0.3,0.5-0.5,0.9-0.5c0.4,0,0.7,0.2,0.9,0.5c0.2,0.3,0.3,0.6,0.3,1c0,0.4-0.1,0.7-0.3,1
			c-0.2,0.3-0.5,0.5-0.9,0.5c-0.4,0-0.7-0.2-0.9-0.5c-0.2-0.3-0.3-0.6-0.3-1C47.8,76.3,47.9,76,48.1,75.7z M48.5,77.6
			c0.1,0.1,0.2,0.2,0.4,0.2s0.3-0.1,0.4-0.2c0.2-0.2,0.2-0.5,0.2-0.9c0-0.4-0.1-0.7-0.2-0.9c-0.1-0.1-0.2-0.2-0.4-0.2
			s-0.3,0.1-0.4,0.2c-0.2,0.2-0.2,0.5-0.2,0.9C48.2,77.2,48.3,77.5,48.5,77.6z"/>
		<path fill="#58595B" d="M51,78.1v-2h-0.7v-0.3c0.4,0,0.7-0.2,0.7-0.5h0.4v2.8H51z"/>
		<path fill="#58595B" d="M52,76.3c0,0,0-0.1,0-0.1c0-0.5,0.4-0.9,1-0.9c0.6,0,0.9,0.4,0.9,0.9c0,0.4-0.2,0.7-0.5,0.9l-0.6,0.4
			c-0.2,0.1-0.3,0.2-0.3,0.4h1.4v0.4h-2c0-0.5,0.2-0.8,0.7-1.1l0.5-0.3c0.3-0.2,0.4-0.4,0.4-0.6c0-0.3-0.2-0.5-0.5-0.5
			c-0.4,0-0.5,0.3-0.5,0.6c0,0,0,0.1,0,0.1L52,76.3z"/>
	</g>
	<g>
		<path fill="#58595B" d="M69.9,76.3c0,0,0-0.1,0-0.1c0-0.5,0.4-0.9,1-0.9c0.6,0,0.9,0.4,0.9,0.9c0,0.4-0.2,0.7-0.5,0.9l-0.6,0.4
			c-0.2,0.1-0.3,0.2-0.3,0.4h1.4v0.4h-2c0-0.5,0.2-0.8,0.7-1.1l0.5-0.3c0.3-0.2,0.4-0.4,0.4-0.6c0-0.3-0.2-0.5-0.5-0.5
			c-0.4,0-0.5,0.3-0.5,0.6c0,0,0,0.1,0,0.1L69.9,76.3z"/>
		<path fill="#58595B" d="M72.5,75.7c0.2-0.3,0.5-0.5,0.9-0.5c0.4,0,0.7,0.2,0.9,0.5c0.2,0.3,0.3,0.6,0.3,1c0,0.4-0.1,0.7-0.3,1
			c-0.2,0.3-0.5,0.5-0.9,0.5c-0.4,0-0.7-0.2-0.9-0.5c-0.2-0.3-0.3-0.6-0.3-1C72.3,76.3,72.3,76,72.5,75.7z M72.9,77.6
			c0.1,0.1,0.2,0.2,0.4,0.2c0.2,0,0.3-0.1,0.4-0.2c0.2-0.2,0.2-0.5,0.2-0.9c0-0.4-0.1-0.7-0.2-0.9c-0.1-0.1-0.2-0.2-0.4-0.2
			c-0.2,0-0.3,0.1-0.4,0.2c-0.2,0.2-0.2,0.5-0.2,0.9C72.7,77.2,72.8,77.5,72.9,77.6z"/>
		<path fill="#58595B" d="M75.5,78.1v-2h-0.7v-0.3c0.4,0,0.7-0.2,0.7-0.5h0.4v2.8H75.5z"/>
		<path fill="#58595B" d="M77,76.5l0.8-0.8h-1.3v-0.4h1.9v0.4l-0.8,0.7c0.4,0,0.9,0.3,0.9,0.9c0,0.5-0.4,0.9-1,0.9
			c-0.7,0-1-0.4-1-0.9l0.4-0.1c0,0.4,0.3,0.6,0.6,0.6c0.4,0,0.6-0.2,0.6-0.5c0-0.4-0.3-0.5-0.6-0.5c-0.1,0-0.2,0-0.2,0L77,76.5z"/>
	</g>
	<g>
		<path fill="#58595B" d="M94.5,76.3c0,0,0-0.1,0-0.1c0-0.5,0.4-0.9,1-0.9c0.6,0,0.9,0.4,0.9,0.9c0,0.4-0.2,0.7-0.5,0.9l-0.6,0.4
			c-0.2,0.1-0.3,0.2-0.3,0.4h1.4v0.4h-2c0-0.5,0.2-0.8,0.7-1.1l0.5-0.3c0.3-0.2,0.4-0.4,0.4-0.6c0-0.3-0.2-0.5-0.5-0.5
			c-0.4,0-0.5,0.3-0.5,0.6c0,0,0,0.1,0,0.1L94.5,76.3z"/>
		<path fill="#58595B" d="M97.1,75.7c0.2-0.3,0.5-0.5,0.9-0.5c0.4,0,0.7,0.2,0.9,0.5c0.2,0.3,0.3,0.6,0.3,1c0,0.4-0.1,0.7-0.3,1
			c-0.2,0.3-0.5,0.5-0.9,0.5c-0.4,0-0.7-0.2-0.9-0.5c-0.2-0.3-0.3-0.6-0.3-1C96.8,76.3,96.9,76,97.1,75.7z M97.5,77.6
			c0.1,0.1,0.2,0.2,0.4,0.2c0.2,0,0.3-0.1,0.4-0.2c0.2-0.2,0.2-0.5,0.2-0.9c0-0.4-0.1-0.7-0.2-0.9c-0.1-0.1-0.2-0.2-0.4-0.2
			c-0.2,0-0.3,0.1-0.4,0.2c-0.2,0.2-0.2,0.5-0.2,0.9C97.2,77.2,97.3,77.5,97.5,77.6z"/>
		<path fill="#58595B" d="M100,78.1v-2h-0.7v-0.3c0.4,0,0.7-0.2,0.7-0.5h0.4v2.8H100z"/>
		<path fill="#58595B" d="M100.9,77l1.2-1.7h0.6v1.8h0.5v0.4h-0.5v0.6h-0.4v-0.6h-1.4V77z M102.3,75.7l-1,1.4h1V75.7z"/>
	</g>
	<g>
		<path fill="#58595B" d="M119.2,76.3c0,0,0-0.1,0-0.1c0-0.5,0.4-0.9,1-0.9c0.6,0,0.9,0.4,0.9,0.9c0,0.4-0.2,0.7-0.5,0.9l-0.6,0.4
			c-0.2,0.1-0.3,0.2-0.3,0.4h1.4v0.4h-2c0-0.5,0.2-0.8,0.7-1.1l0.5-0.3c0.3-0.2,0.4-0.4,0.4-0.6c0-0.3-0.2-0.5-0.5-0.5
			c-0.4,0-0.5,0.3-0.5,0.6c0,0,0,0.1,0,0.1L119.2,76.3z"/>
		<path fill="#58595B" d="M121.8,75.7c0.2-0.3,0.5-0.5,0.9-0.5c0.4,0,0.7,0.2,0.9,0.5c0.2,0.3,0.3,0.6,0.3,1c0,0.4-0.1,0.7-0.3,1
			c-0.2,0.3-0.5,0.5-0.9,0.5c-0.4,0-0.7-0.2-0.9-0.5c-0.2-0.3-0.3-0.6-0.3-1C121.6,76.3,121.6,76,121.8,75.7z M122.2,77.6
			c0.1,0.1,0.2,0.2,0.4,0.2c0.2,0,0.3-0.1,0.4-0.2c0.2-0.2,0.2-0.5,0.2-0.9c0-0.4-0.1-0.7-0.2-0.9c-0.1-0.1-0.2-0.2-0.4-0.2
			c-0.2,0-0.3,0.1-0.4,0.2c-0.2,0.2-0.2,0.5-0.2,0.9C122,77.2,122.1,77.5,122.2,77.6z"/>
		<path fill="#58595B" d="M124.8,78.1v-2h-0.7v-0.3c0.4,0,0.7-0.2,0.7-0.5h0.4v2.8H124.8z"/>
		<path fill="#58595B" d="M126.1,77.3c0,0.3,0.3,0.6,0.6,0.6c0.3,0,0.6-0.2,0.6-0.6c0-0.4-0.3-0.6-0.6-0.6c-0.2,0-0.4,0.1-0.5,0.2
			c-0.1-0.1-0.3-0.1-0.4-0.2l0.4-1.4h1.5v0.4h-1.2l-0.2,0.8c0.1-0.1,0.4-0.2,0.6-0.2c0.6,0,1,0.4,1,0.9c0,0.5-0.4,1-1,1
			c-0.6,0-1-0.4-1-0.8L126.1,77.3z"/>
	</g>
	<g>
		<path fill="#58595B" d="M143.8,76.3c0,0,0-0.1,0-0.1c0-0.5,0.4-0.9,1-0.9c0.6,0,0.9,0.4,0.9,0.9c0,0.4-0.2,0.7-0.5,0.9l-0.6,0.4
			c-0.2,0.1-0.3,0.2-0.3,0.4h1.4v0.4h-2c0-0.5,0.2-0.8,0.7-1.1l0.5-0.3c0.3-0.2,0.4-0.4,0.4-0.6c0-0.3-0.2-0.5-0.5-0.5
			c-0.4,0-0.5,0.3-0.5,0.6c0,0,0,0.1,0,0.1L143.8,76.3z"/>
		<path fill="#58595B" d="M146.3,75.7c0.2-0.3,0.5-0.5,0.9-0.5s0.7,0.2,0.9,0.5c0.2,0.3,0.3,0.6,0.3,1c0,0.4-0.1,0.7-0.3,1
			c-0.2,0.3-0.5,0.5-0.9,0.5s-0.7-0.2-0.9-0.5c-0.2-0.3-0.3-0.6-0.3-1C146.1,76.3,146.2,76,146.3,75.7z M146.8,77.6
			c0.1,0.1,0.2,0.2,0.4,0.2c0.2,0,0.3-0.1,0.4-0.2c0.2-0.2,0.2-0.5,0.2-0.9c0-0.4-0.1-0.7-0.2-0.9c-0.1-0.1-0.2-0.2-0.4-0.2
			c-0.2,0-0.3,0.1-0.4,0.2c-0.2,0.2-0.2,0.5-0.2,0.9C146.5,77.2,146.6,77.5,146.8,77.6z"/>
		<path fill="#58595B" d="M149.3,78.1v-2h-0.7v-0.3c0.4,0,0.7-0.2,0.7-0.5h0.4v2.8H149.3z"/>
		<path fill="#58595B" d="M152.2,75.8c-0.1-0.1-0.3-0.1-0.5-0.1c-0.6,0-1,0.4-1,1c0.1-0.2,0.4-0.4,0.7-0.4c0.6,0,1,0.3,1,1
			c0,0.6-0.5,1-1,1c-0.5,0-1.1-0.4-1.1-1.3c0-1,0.6-1.6,1.4-1.6c0.3,0,0.5,0.1,0.6,0.2L152.2,75.8z M151.4,77.8
			c0.3,0,0.6-0.2,0.6-0.6c0-0.4-0.3-0.6-0.6-0.6c-0.3,0-0.6,0.2-0.6,0.6C150.8,77.6,151.1,77.8,151.4,77.8z"/>
	</g>
	<g>
		<path fill="#58595B" d="M168.5,76.3c0,0,0-0.1,0-0.1c0-0.5,0.4-0.9,1-0.9c0.6,0,0.9,0.4,0.9,0.9c0,0.4-0.2,0.7-0.5,0.9l-0.6,0.4
			c-0.2,0.1-0.3,0.2-0.3,0.4h1.4v0.4h-2c0-0.5,0.2-0.8,0.7-1.1l0.5-0.3c0.3-0.2,0.4-0.4,0.4-0.6c0-0.3-0.2-0.5-0.5-0.5
			c-0.4,0-0.5,0.3-0.5,0.6c0,0,0,0.1,0,0.1L168.5,76.3z"/>
		<path fill="#58595B" d="M171,75.7c0.2-0.3,0.5-0.5,0.9-0.5c0.4,0,0.7,0.2,0.9,0.5c0.2,0.3,0.3,0.6,0.3,1c0,0.4-0.1,0.7-0.3,1
			c-0.2,0.3-0.5,0.5-0.9,0.5c-0.4,0-0.7-0.2-0.9-0.5c-0.2-0.3-0.3-0.6-0.3-1C170.8,76.3,170.9,76,171,75.7z M171.5,77.6
			c0.1,0.1,0.2,0.2,0.4,0.2c0.2,0,0.3-0.1,0.4-0.2c0.2-0.2,0.2-0.5,0.2-0.9c0-0.4-0.1-0.7-0.2-0.9c-0.1-0.1-0.2-0.2-0.4-0.2
			c-0.2,0-0.3,0.1-0.4,0.2c-0.2,0.2-0.2,0.5-0.2,0.9C171.2,77.2,171.3,77.5,171.5,77.6z"/>
		<path fill="#58595B" d="M174,78.1v-2h-0.7v-0.3c0.4,0,0.7-0.2,0.7-0.5h0.4v2.8H174z"/>
		<path fill="#58595B" d="M176.8,75.7c-0.3,0.2-1.1,0.9-1.2,2.4h-0.4c0.1-1.6,1.2-2.4,1.2-2.4h-1.6v-0.4h2.1V75.7z"/>
	</g>
</g>
<g>
	<g>
		<path fill="#999999" d="M2,108.1H0.3v-0.3H2V108.1z M2.5,111.2c-0.5,0.3-1.2,0.6-1.8,0.7c-0.1-0.1-0.2-0.2-0.3-0.3
			c0.6-0.1,1.3-0.3,1.8-0.6L2.5,111.2z M1.9,107.2H0.4v-0.3h1.4V107.2z M5,111H1.1v-2.4H5V111z M4.6,108.9H1.5v0.4h3.1V108.9z
			 M4.6,109.6H1.5v0.4h3.1V109.6z M4.6,110.3H1.5v0.5h3.1V110.3z M4,107.3c0,0.1,0,0.1,0,0.2c0.3,0.4,1,0.6,1.8,0.7
			c-0.1,0.1-0.2,0.2-0.2,0.3c-0.7-0.1-1.3-0.3-1.6-0.7c-0.2,0.3-0.7,0.6-1.7,0.8c0-0.1-0.1-0.2-0.2-0.3c1.6-0.2,1.7-0.7,1.7-1v-0.1
			H3c-0.1,0.2-0.3,0.4-0.5,0.6c-0.1-0.1-0.2-0.2-0.3-0.2c0.3-0.3,0.6-0.7,0.7-1.2l0.4,0.1c0,0.1-0.1,0.2-0.1,0.3h2.1l0.1,0l0.3,0.1
			c-0.2,0.3-0.3,0.6-0.5,0.9l-0.3-0.1c0.1-0.1,0.2-0.3,0.3-0.5L4,107.3L4,107.3z M3.9,111.1c0.6,0.2,1.3,0.4,1.8,0.6l-0.4,0.2
			c-0.4-0.2-1-0.4-1.7-0.7L3.9,111.1z"/>
		<path fill="#999999" d="M7.1,109.3c-0.1,0.7-0.4,1.5-0.7,1.9c0-0.1-0.1-0.3-0.2-0.4c0.2-0.3,0.5-1,0.6-1.6L7.1,109.3z M7.7,108.9
			v3.1H7.3v-3.1h-1v-0.4h1v-2h0.4v2h1v0.4H7.7z M6.7,108.3c0-0.4-0.2-0.9-0.3-1.3l0.3-0.1c0.2,0.4,0.3,0.9,0.4,1.3L6.7,108.3z
			 M7.9,109.3c0.1,0.2,0.5,1,0.6,1.2l-0.3,0.3c-0.1-0.3-0.4-1.1-0.6-1.3L7.9,109.3z M8.6,107c-0.1,0.4-0.3,1-0.5,1.3l-0.3-0.1
			c0.1-0.3,0.3-0.9,0.4-1.3L8.6,107z M11,110.3v1.7h-0.4v-1.6l-1.9,0.3l-0.1-0.4l2-0.4v-3.4H11v3.4l0.7-0.1l0.1,0.4L11,110.3z
			 M9.8,109.4c-0.2-0.2-0.6-0.5-1-0.7l0.2-0.3c0.4,0.2,0.8,0.5,1,0.7L9.8,109.4z M10.1,108c-0.2-0.2-0.6-0.6-0.9-0.8l0.2-0.3
			c0.4,0.2,0.8,0.5,0.9,0.7L10.1,108z"/>
		<path fill="#999999" d="M15.2,109.2c0.5,0.9,1.6,1.8,2.6,2.2c-0.1,0.1-0.2,0.2-0.3,0.4c-0.8-0.4-1.7-1.1-2.3-1.9v2.1h-0.4v-2.1
			c-0.6,0.8-1.4,1.5-2.2,1.8c-0.1-0.1-0.2-0.2-0.3-0.3c1-0.4,2-1.2,2.5-2.1v-1.5h-2.3v-0.4h2.3v-0.8h0.4v0.8h2.4v0.4h-2.4V109.2z
			 M13.9,108c-0.1,0.3-0.1,0.5-0.2,0.7c0.3,0.2,0.6,0.5,0.7,0.7l-0.3,0.3c-0.1-0.2-0.4-0.4-0.6-0.6c-0.2,0.4-0.5,0.7-0.8,1
			c-0.1-0.1-0.2-0.2-0.3-0.3c0.5-0.4,0.9-1.1,1.1-1.8L13.9,108z M16.7,108c-0.1,0.3-0.1,0.5-0.2,0.7c0.4,0.3,0.9,0.7,1.1,0.9
			l-0.3,0.3c-0.2-0.2-0.6-0.6-1-0.9c-0.1,0.3-0.3,0.5-0.5,0.8c-0.1-0.1-0.2-0.2-0.3-0.2c0.4-0.4,0.7-1,0.9-1.6L16.7,108z"/>
		<path fill="#999999" d="M19.3,109.1c-0.2-0.2-0.7-0.5-1-0.6l0.2-0.3c0.3,0.2,0.8,0.4,1,0.6L19.3,109.1z M19.6,110
			c-0.3,0.6-0.6,1.4-0.9,1.9l-0.3-0.2c0.3-0.5,0.6-1.3,0.9-1.9L19.6,110z M19.5,107.5c-0.2-0.2-0.7-0.5-1-0.7l0.2-0.3
			c0.3,0.2,0.8,0.5,1,0.6L19.5,107.5z M20.4,108.4c0,1-0.1,2.5-0.8,3.5c-0.1-0.1-0.2-0.2-0.3-0.2c0.7-1,0.8-2.3,0.8-3.3v-1.6h3.6
			v0.4h-3.3V108.4z M21.4,110.4c-0.2,0.4-0.5,0.9-0.8,1.2c-0.1-0.1-0.2-0.2-0.3-0.2c0.3-0.3,0.6-0.7,0.7-1.1L21.4,110.4z
			 M22.3,109.9v1.6c0,0.2,0,0.3-0.2,0.4c-0.2,0.1-0.4,0.1-0.8,0.1c0-0.1-0.1-0.2-0.1-0.3c0.3,0,0.6,0,0.6,0c0.1,0,0.1,0,0.1-0.1
			v-1.6h-1.1v-2h0.9c0.1-0.2,0.1-0.4,0.2-0.6l0.4,0.1c-0.1,0.2-0.2,0.4-0.2,0.5h1.3v2H22.3z M21.2,108.7h1.9v-0.6h-1.9V108.7z
			 M21.2,109.6h1.9V109h-1.9V109.6z M23.1,110.2c0.2,0.4,0.6,0.9,0.7,1.1l-0.4,0.2c-0.1-0.3-0.4-0.8-0.7-1.2L23.1,110.2z"/>
		<path fill="#999999" d="M25.1,107.8c0-0.3,0.2-0.4,0.4-0.4c0.2,0,0.4,0.2,0.4,0.4c0,0.3-0.2,0.4-0.4,0.4
			C25.3,108.2,25.1,108.1,25.1,107.8z M25.1,110.7c0-0.3,0.2-0.4,0.4-0.4c0.2,0,0.4,0.2,0.4,0.4s-0.2,0.4-0.4,0.4
			C25.3,111.2,25.1,111,25.1,110.7z"/>
		<path fill="#999999" d="M32.7,111.4v0.3h-5.1v-5h5v0.3H28v4.3H32.7z M28.3,108.4c0.3,0.1,0.7,0.3,0.8,0.5l-0.2,0.3
			c-0.2-0.2-0.5-0.4-0.8-0.5L28.3,108.4z M29.3,109.7c-0.2,0.4-0.5,1-0.8,1.3l-0.3-0.2c0.2-0.3,0.6-0.9,0.8-1.3L29.3,109.7z
			 M29.1,108c-0.2-0.2-0.5-0.4-0.8-0.5l0.2-0.2c0.3,0.1,0.6,0.3,0.8,0.5L29.1,108z M31.4,108.3v0.5h0.9v0.3h-0.9v0.5h0.9v0.3h-0.9
			v0.6h1.1v0.3h-2.4v0.3h-0.4v-2.4c-0.1,0.2-0.3,0.4-0.4,0.5c0-0.1-0.2-0.2-0.3-0.3c0.4-0.4,0.8-1.1,1.1-1.7l0.3,0.1
			c-0.1,0.2-0.2,0.5-0.3,0.7h1c-0.1-0.2-0.2-0.4-0.3-0.6l0.3-0.1c0.1,0.2,0.3,0.5,0.3,0.7h0.9v0.3H31.4z M31,108.3h-0.9v0.5H31
			V108.3z M31,109.1h-0.9v0.5H31V109.1z M31,110h-0.9v0.6H31V110z"/>
		<path fill="#999999" d="M38.6,111.5v0.3h-5.3v-0.3H35c-0.1-0.2-0.2-0.4-0.3-0.6l0.2,0h-0.7v-1.1h3.8v1.1h-0.7l0.1,0
			c-0.1,0.2-0.3,0.4-0.4,0.6H38.6z M38.6,109.5h-5.1v-0.3h5.1V109.5z M38.3,108.8h-4.6v-2.2h0.3v1.9h0.7v-0.3h-0.6V108h0.6v-0.3
			h-0.5v-0.2h0.5v-0.3h-0.5v-0.2h0.5v-0.3h0.3v0.3h0.5v0.2h-0.5v0.3h0.5v0.2h-0.5v0.3h0.6v0.2h-0.6v0.3h0.7v-2h0.4v2h0.7v-0.3h-0.6
			V108h0.6v-0.3h-0.5v-0.2h0.5v-0.3h-0.5v-0.2h0.5v-0.3h0.3v0.3h0.6v0.2h-0.6v0.3h0.5v0.2h-0.5v0.3h0.6v0.2h-0.6v0.3h0.7v-1.9h0.4
			V108.8z M34.5,110.6h3V110h-3V110.6z M35.1,110.9c0.1,0.2,0.3,0.4,0.3,0.6l-0.1,0h1.5l-0.1,0c0.1-0.2,0.3-0.4,0.4-0.6H35.1z"/>
		<path fill="#999999" d="M41.5,110.9l0,0.3c-0.8,0.2-1.6,0.4-2.2,0.5l-0.1-0.4c0.3-0.1,0.6-0.1,1-0.2v-1.8h-0.9v-0.4h0.9v-0.7h-0.6
			v-0.3c-0.1,0.1-0.2,0.2-0.3,0.2c0-0.1-0.1-0.3-0.2-0.4c0.5-0.3,1-0.9,1.3-1.4l0.3,0.1c0,0.1-0.1,0.1-0.1,0.2
			c0.4,0.3,0.7,0.6,1,0.8l-0.2,0.3c-0.2-0.2-0.6-0.6-0.9-0.8c-0.2,0.3-0.5,0.6-0.8,0.9h1.6v0.4h-0.6v0.7h0.8v0.4h-0.8v1.7
			L41.5,110.9z M39.8,109.8c0.1,0.4,0.2,0.8,0.3,1.1l-0.3,0.1c0-0.3-0.1-0.8-0.3-1.1L39.8,109.8z M40.8,110.8
			c0.1-0.3,0.2-0.8,0.3-1.1l0.3,0.1c-0.1,0.4-0.3,0.8-0.4,1.1L40.8,110.8z M44.7,109.9c-0.3,0.2-0.7,0.5-1,0.7
			c0.3,0.4,0.6,0.8,1.1,1c-0.1,0.1-0.2,0.2-0.3,0.3c-0.8-0.5-1.4-1.4-1.7-2.5h-0.5v2l1-0.3c0,0.1,0,0.3,0,0.4
			c-1.3,0.4-1.4,0.5-1.6,0.5c0-0.1-0.1-0.3-0.1-0.3c0.1,0,0.2-0.1,0.2-0.4v-4.5h2.5v2.6h-1.2c0.1,0.3,0.2,0.6,0.4,0.9
			c0.3-0.2,0.7-0.5,0.9-0.7L44.7,109.9z M42.3,107.1v0.8H44v-0.8H42.3z M42.3,109H44v-0.8h-1.7V109z"/>
		<path fill="#999999" d="M47.2,107.9c-0.2,0.3-0.4,0.6-0.7,0.9v3.2h-0.4v-2.7c-0.2,0.2-0.5,0.5-0.7,0.7c-0.1-0.1-0.2-0.3-0.3-0.3
			c0.6-0.4,1.3-1.1,1.7-1.8L47.2,107.9z M47,106.6c-0.4,0.5-1,1.1-1.5,1.5c-0.1-0.1-0.2-0.2-0.2-0.3c0.5-0.3,1.1-0.9,1.4-1.3
			L47,106.6z M50.7,108.9h-0.9v2.5c0,0.3-0.1,0.4-0.3,0.4c-0.2,0.1-0.5,0.1-1.1,0.1c0-0.1-0.1-0.3-0.1-0.4c0.4,0,0.8,0,1,0
			c0.1,0,0.2,0,0.2-0.1v-2.5h-2v-0.4h3.4V108.9z M50.5,107.2h-2.9v-0.4h2.9V107.2z"/>
		<path fill="#999999" d="M51.9,110.1c0.5-0.2,0.7-0.5,0.8-0.9c0,0-0.1,0-0.1,0c-0.2,0-0.4-0.1-0.4-0.4c0-0.3,0.2-0.4,0.4-0.4
			c0.3,0,0.5,0.3,0.5,0.7c0,0.6-0.4,1.1-1,1.3L51.9,110.1z"/>
		<path fill="#999999" d="M56.1,110c0-0.1,0-0.2-0.1-0.3c-1.3,0.2-1.5,0.3-1.6,0.3c0-0.1-0.1-0.3-0.1-0.4c0.1,0,0.3-0.2,0.4-0.4
			c0.1-0.1,0.3-0.4,0.5-0.7c-0.7,0.1-0.8,0.1-0.9,0.1c0-0.1-0.1-0.3-0.1-0.4c0.1,0,0.2-0.1,0.3-0.3s0.6-0.9,0.8-1.5l0.4,0.2
			c-0.3,0.6-0.6,1.2-1,1.6l0.7-0.1c0.2-0.3,0.3-0.6,0.5-0.9l0.3,0.2c-0.4,0.7-0.9,1.4-1.4,2l1-0.2c-0.1-0.2-0.2-0.4-0.2-0.6l0.3-0.1
			c0.2,0.4,0.4,0.9,0.4,1.2L56.1,110z M54.9,110.4c-0.1,0.5-0.2,1.1-0.3,1.4c-0.1,0-0.2-0.1-0.3-0.1c0.1-0.4,0.2-0.9,0.3-1.4
			L54.9,110.4z M55.5,110.3c0.1,0.4,0.1,0.9,0.2,1.3l-0.3,0.1c0-0.3-0.1-0.9-0.2-1.3L55.5,110.3z M56.1,111.4
			c-0.1-0.3-0.2-0.8-0.3-1.1l0.3-0.1c0.1,0.3,0.3,0.8,0.3,1.1L56.1,111.4z M59.2,111.5c0.1,0,0.2-0.1,0.2-0.8
			c0.1,0.1,0.2,0.1,0.3,0.2c0,0.8-0.1,1-0.5,1h-0.5c-0.4,0-0.5-0.1-0.5-0.5v-2.2l-0.6,0.1c0,1.4-0.2,2.3-1.3,2.7
			c0-0.1-0.2-0.2-0.2-0.3c1-0.4,1.1-1.1,1.2-2.4c-0.4,0.1-0.5,0.1-0.6,0.1c0-0.1-0.1-0.3-0.1-0.4c0.1,0,0.3-0.2,0.4-0.4
			c0.1-0.1,0.3-0.5,0.5-0.9h-0.9v-0.4h1.1c0.1-0.2,0.2-0.5,0.3-0.8l0.4,0.1c-0.1,0.2-0.2,0.4-0.3,0.6h1.6v0.4h-1.8
			c-0.3,0.5-0.5,0.9-0.8,1.3l1.9-0.2c-0.1-0.2-0.3-0.5-0.4-0.7l0.3-0.1c0.3,0.4,0.7,1.1,0.8,1.4l-0.4,0.2c-0.1-0.1-0.1-0.3-0.2-0.4
			l-0.5,0.1v2.2c0,0.1,0,0.2,0.2,0.2H59.2z"/>
		<path fill="#999999" d="M62.9,107.9h-2.5v-0.3h2.5V107.9z M60.7,108.3h1.9v0.3h-1.9V108.3z M62.6,109.4h-1.9v-0.3h1.9V109.4z
			 M62.6,111.6h-1.5v0.3h-0.4v-2h1.9V111.6z M61.1,110.2v1h1.2v-1H61.1z M61.6,107.4c-0.1-0.2-0.3-0.6-0.4-0.8l0.3-0.2
			c0.2,0.2,0.4,0.6,0.5,0.8L61.6,107.4z M65.7,109h-1.2v3H64v-3h-1.2v-0.4H64v-2h0.4v2h1.2V109z"/>
		<path fill="#999999" d="M71.4,108.8c-0.2,0.7-0.5,1.3-0.9,1.9c0.2,0.5,0.4,0.8,0.7,0.8c0.2,0,0.2-0.3,0.3-1
			c0.1,0.1,0.2,0.2,0.3,0.2c-0.1,0.9-0.2,1.2-0.6,1.2c-0.4,0-0.7-0.3-0.9-0.8c-0.3,0.3-0.6,0.6-0.9,0.9c-0.1-0.1-0.2-0.2-0.3-0.3
			c0.1-0.1,0.2-0.1,0.3-0.2h-2.1v0.3h-0.4v-2.2c-0.1,0.1-0.2,0.2-0.3,0.3c-0.1-0.1-0.2-0.2-0.3-0.2c0.4-0.3,0.7-0.9,0.9-1.4l0.3,0.1
			c-0.1,0.2-0.2,0.4-0.3,0.5h0.9c-0.1-0.2-0.2-0.4-0.3-0.5l0.3-0.1c0.1,0.2,0.3,0.4,0.4,0.6l0,0h0.8v0.3h-0.9v0.4h0.8v0.3h-0.8v0.4
			h0.8v0.3h-0.8v0.4h0.9v0.3c0.3-0.2,0.5-0.5,0.7-0.8c-0.2-0.6-0.3-1.4-0.4-2.4h-3.3V108h1.4v-0.6h-1.1v-0.3h1.1v-0.6h0.4v0.6h1.1
			v0.3h-1.1v0.6h1.5c0-0.5,0-1,0-1.5H70c0,0.5,0,1,0,1.5h1.6v0.3h-1.6c0.1,0.8,0.2,1.4,0.3,1.9c0.3-0.5,0.5-1,0.7-1.6L71.4,108.8z
			 M68.1,109.3h-0.9v0.4h0.9V109.3z M68.1,110h-0.9v0.4h0.9V110z M67.2,111.2h0.9v-0.4h-0.9V111.2z M71.2,107.7
			c-0.2-0.2-0.6-0.6-0.9-0.9l0.3-0.2c0.3,0.2,0.7,0.6,0.9,0.9L71.2,107.7z"/>
		<path fill="#999999" d="M77.7,111.4v0.4h-5.3v-0.4h2.4v-1.2h-1.9v-0.4h1.9V109h0.4v0.8h2v0.4h-2v1.2H77.7z M77.1,109.2
			c-0.1-0.1-0.2-0.3-0.4-0.4c-3.3,0.2-3.6,0.2-3.8,0.2c0-0.1-0.1-0.3-0.1-0.4c0.1,0,0.3-0.1,0.4-0.3c0.1-0.1,0.6-0.6,0.9-1.1h-1.6
			v-0.4h5v0.4h-2.8c-0.4,0.5-0.8,0.9-1.2,1.3l2.9-0.1c-0.3-0.2-0.5-0.5-0.8-0.7l0.3-0.2c0.5,0.4,1.2,1,1.5,1.4L77.1,109.2z"/>
		<path fill="#999999" d="M78.3,111.2c1.4-1.2,2-2.1,2-2.9c0-0.5-0.3-0.9-0.8-0.9c-0.4,0-0.7,0.2-0.9,0.5l-0.3-0.3
			c0.4-0.4,0.7-0.6,1.3-0.6c0.8,0,1.3,0.5,1.3,1.3c0,0.9-0.7,1.8-1.8,2.8c0.2,0,0.5,0,0.7,0H81v0.4h-2.7V111.2z"/>
		<path fill="#999999" d="M81.6,109.3c0-1.5,0.5-2.3,1.3-2.3c0.8,0,1.3,0.7,1.3,2.3c0,1.5-0.5,2.3-1.3,2.3
			C82.1,111.6,81.6,110.8,81.6,109.3z M83.8,109.3c0-1.3-0.3-1.9-0.9-1.9c-0.5,0-0.9,0.6-0.9,1.9c0,1.3,0.4,1.9,0.9,1.9
			C83.5,111.2,83.8,110.6,83.8,109.3z"/>
		<path fill="#999999" d="M85.1,111.1h1v-3.4h-0.8v-0.3c0.4-0.1,0.7-0.2,0.9-0.3h0.4v4h0.9v0.4h-2.4V111.1z"/>
		<path fill="#999999" d="M90.3,107.5h-2.2v-0.4h2.7v0.3c-1,1.3-1.2,2.4-1.3,4.1h-0.5C89.2,109.8,89.5,108.7,90.3,107.5z"/>
		<path fill="#999999" d="M96.9,110.6h-2.2v1.4h-0.4v-1.4h-2.8v-0.4h1v-1.6h1.8v-1h-1.5c-0.3,0.5-0.6,0.9-0.9,1.2
			c-0.1-0.1-0.2-0.2-0.3-0.3c0.6-0.5,1.1-1.3,1.4-2.1l0.4,0.1c-0.1,0.2-0.2,0.4-0.3,0.7h3.6v0.4h-1.9v1h1.8v0.4h-1.8v1.2h2.2V110.6z
			 M94.3,110.2V109h-1.4v1.2H94.3z"/>
		<path fill="#999999" d="M97.7,111.1h1v-3.4h-0.8v-0.3c0.4-0.1,0.7-0.2,0.9-0.3h0.4v4h0.9v0.4h-2.4V111.1z"/>
		<path fill="#999999" d="M100.8,109.3c0-1.5,0.5-2.3,1.3-2.3c0.8,0,1.3,0.7,1.3,2.3c0,1.5-0.5,2.3-1.3,2.3
			C101.3,111.6,100.8,110.8,100.8,109.3z M103,109.3c0-1.3-0.3-1.9-0.9-1.9c-0.5,0-0.9,0.6-0.9,1.9c0,1.3,0.4,1.9,0.9,1.9
			C102.6,111.2,103,110.6,103,109.3z"/>
		<path fill="#999999" d="M108.7,111.4c0,0.3-0.1,0.4-0.3,0.5c-0.2,0.1-0.6,0.1-1.3,0.1c0-0.1-0.1-0.3-0.2-0.4c0.5,0,1,0,1.1,0
			c0.1,0,0.2,0,0.2-0.2v-1.3h-2.9c-0.1,0.7-0.4,1.4-1,1.9c-0.1-0.1-0.2-0.2-0.3-0.3c1-0.9,1.1-2.1,1.1-3.1v-1.8h3.6V111.4z
			 M108.2,109.7v-1.1h-2.8c0,0.3,0,0.7-0.1,1.1H108.2z M105.4,107.2v1h2.8v-1H105.4z"/>
		<path fill="#999999" d="M111.3,108.3c0.5,0,0.9,0.4,0.9,0.9c0,0.5-0.4,0.9-0.9,0.9c-0.5,0-0.9-0.4-0.9-0.9
			C110.4,108.7,110.8,108.3,111.3,108.3z M111.3,109.9c0.3,0,0.6-0.3,0.6-0.6c0-0.3-0.3-0.6-0.6-0.6c-0.3,0-0.6,0.3-0.6,0.6
			C110.7,109.6,110.9,109.9,111.3,109.9z"/>
	</g>
</g>
<g>
</g>
<g>
</g>
<g>
</g>
<g>
</g>
<g>
</g>
<g>
</g>
<g>
</g>
<g>
</g>
<g>
</g>
<g>
</g>
<g>
</g>
<g>
</g>
<g>
</g>
<g>
</g>
<g>
</g>
</svg>
