<?xml version="1.0" encoding="utf-8"?>
<!-- Generator: Adobe Illustrator 18.0.0, SVG Export Plug-In . SVG Version: 6.00 Build 0)  -->
<!DOCTYPE svg PUBLIC "-//W3C//DTD SVG 1.1//EN" "http://www.w3.org/Graphics/SVG/1.1/DTD/svg11.dtd">
<svg version="1.1" id="Layer_1" xmlns="http://www.w3.org/2000/svg" xmlns:xlink="http://www.w3.org/1999/xlink" x="0px" y="0px"
	 viewBox="0 0 124 166" enable-background="new 0 0 124 166" xml:space="preserve">
<g>
	<g>
		<path fill="#2368B5" d="M84,0c-6.6,0-12.8,1.6-18.3,4.4c0.2,0.1,0.3,0.1,0.5,0.2c0.4,0.2,1.1,0.6,1.5,0.8c0.8,0.5,0.9,0.5,1.4,0.2
			c0.5-0.2,0.8-0.2,1.5-0.1c0.7,0.1,1,0.1,1.4-0.1c0.4-0.2,0.5-0.3,0.3-0.5c-0.3-0.3,0.7-0.5,2-0.3c0.6,0.1,1.3,0.2,1.6,0.2
			c0.3,0,0.9,0.2,1.4,0.4c0.7,0.3,1.2,0.4,3.1,0.4c1.9,0.1,2.5,0.1,2.9,0.4c0.5,0.2,1,0.3,2.7,0.3c1.6,0,2.3,0.1,2.8,0.3
			c0.8,0.3,1.1,0.2,0.7-0.3c-0.3-0.3-0.3-0.3,0.9-0.2c1.9,0.2,4.2,0.6,5,0.9c0.4,0.2,1.2,0.3,1.7,0.4c0.5,0.1,1.3,0.3,1.8,0.5
			c0.4,0.2,0.7,0.3,0.9,0.3c0.1,0,0.2,0,0.4-0.1c0.6-0.2,0.9-0.1,1.8,0.7l0.5,0.5L102,9.6c-0.4,0.1-1.5-0.2-1.9-0.5
			C100.1,9,99.9,9,99.8,9.1c0,0,0,0-0.1,0c-0.2,0-0.5-0.1-0.8-0.2c-0.9-0.3-1.3-0.2-0.9,0.3c0.3,0.3,0.3,0.3-0.3,0.3
			c-1-0.1-0.7,0.2,0.8,0.8c0.8,0.3,1.5,0.6,1.6,0.7c0.2,0.1-0.4,0.3-0.7,0.3C99,11.1,98,11.5,98,11.8c0,0.1-0.2,0.3-0.3,0.5
			c-0.3,0.3-0.4,0.3-0.8,0.1c-0.4-0.2-0.5-0.2-0.9,0c-0.2,0.1-0.7,0.3-0.9,0.3c-0.3,0.1-0.6,0.2-0.7,0.3c-0.3,0.3,0.3,1.1,1.1,1.5
			c0.4,0.2,0.8,0.5,0.9,0.8c0.1,0.2,0.3,0.6,0.4,0.9c0.2,0.4,0.2,0.4,0,0.5c-0.2,0.1-0.2,0.2-0.1,0.4c0.1,0.2,0.1,0.5,0.2,0.7
			c0,0.2,0.1,0.5,0.2,0.7c0.1,0.2,0,0.3-0.2,0.4c-0.3,0.1-0.5,0-1-0.5c-0.3-0.4-0.9-0.9-1.2-1.1c-0.3-0.2-0.9-0.9-1.4-1.4
			c-0.7-0.9-0.7-1-0.5-1.5c0.1-0.3,0.2-0.6,0.2-0.8c0-0.2,0.1-0.6,0.2-0.8c0.2-0.4,0.1-0.8-0.4-1.4c-0.3-0.4-0.9-0.1-0.8,0.4
			c0.1,0.4-0.3,0.6-0.8,0.3c-0.2-0.1-0.7-0.3-1.1-0.4c-0.7-0.1-0.7-0.1-0.9,0.4c-0.1,0.3-0.1,0.7-0.1,0.9c0.1,0.4,0,0.5-0.4,0.5
			c-0.3,0.1-0.7,0-1.1-0.2C87.1,13,86.8,13,86.5,13c-0.2,0.1-1,0.1-1.8,0.1c-1.2,0-1.4,0.1-1.8,0.4c-0.2,0.2-0.5,0.7-0.6,1.2
			c-0.1,0.4-0.3,0.9-0.4,1.1c-0.2,0.3-0.2,0.4,0.4,0.7c0.7,0.4,1.5,0.5,2,0.3c0.4-0.2,1.8,0.9,2.2,1.7c0.2,0.3,0.5,0.7,0.6,0.8
			c0.7,0.4,0.8,2.7,0.2,4.3c-0.4,1.1-0.8,1.4-1.5,1.2c-0.2-0.1-0.5-0.2-0.5-0.2c0,0-0.2,0.3-0.4,0.7c-0.3,0.5-0.3,0.7-0.2,0.9
			c0.2,0.3,0.1,0.7-0.4,0.9c-0.2,0.1-0.4,0.3-0.4,0.3c0,0.1,0.5,0.5,1.1,0.9c0.8,0.5,1.2,1,1.4,1.4c0.2,0.3,0.3,0.6,0.2,0.7
			c0,0-0.4,0.2-0.7,0.4l-0.7,0.3l-0.4-0.9c-0.5-1.1-0.9-1.5-1.5-1.7c-0.3-0.1-0.5-0.2-0.5-0.5c0-0.3-0.2-0.5-0.5-0.7
			c-0.5-0.3-0.5-0.3-1.1,0c-0.6,0.3-0.6,0.3-0.7,0c-0.1-0.2-0.2-0.4-0.2-0.6c0-0.1-0.1-0.3-0.3-0.4c-0.3-0.1-0.4-0.1-0.9,0.4
			c-0.3,0.3-0.7,0.7-0.9,0.8c-0.3,0.2-0.3,0.2-0.1,0.4c0.1,0.1,0.5,0.4,0.9,0.7c0.6,0.3,0.7,0.4,0.9,0.2c0.2-0.2,0.4-0.2,1,0
			l0.7,0.2l-0.4,0.3c-0.7,0.5-1,0.8-1.1,1.2c-0.1,0.4,0,0.5,0.3,0.6c0.2,0.1,0.6,0.5,0.7,0.9c0.2,0.4,0.6,0.8,0.8,1
			c0.6,0.4,0.8,0.7,0.4,0.9c-0.3,0.2-0.2,0.5,0.3,0.5c0.5,0,0.5,0.3,0,2.1c-0.6,2.1-1.1,2.9-2.6,3.4c-0.6,0.2-1.2,0.4-1.5,0.4
			c-0.6,0-1.1,0.3-1.5,0.8l-0.3,0.4l-0.2-0.4c-0.2-0.5-0.7-0.7-1.4-0.4c-0.6,0.3-1,0.7-1.2,1.2c-0.1,0.5,0.4,1.3,1.2,2
			c0.7,0.6,1.5,2,1.7,3c0.2,0.9-0.1,1.5-0.9,1.8c-0.4,0.2-0.7,0.4-0.7,0.6c-0.1,0.4-0.9,0.9-1,0.6c-0.1-0.1-0.1-0.3,0-0.5
			c0.1-0.2,0-0.4,0-0.6c-0.1-0.2-0.2-0.2-0.4-0.1c-0.3,0.1-0.4,0.1-0.6-0.2c-0.5-0.8-2.1-2-2.5-2c-0.1,0-0.2,0.2-0.2,0.6
			c0,0.3,0,0.9-0.1,1.4c0,0.2-0.1,0.4-0.1,0.5c0,0.3,0,0.5,0.3,0.7c0.2,0.3,0.4,0.6,0.4,0.9c0,0.1,0.1,0.2,0.2,0.4
			c0.2,0.2,0.5,0.6,0.9,0.8c0.9,0.7,1,0.9,1.4,2.1c0.2,0.7,0.4,1.4,0.4,1.5c0,0.3-0.3,0.2-1.1-0.3c-0.7-0.5-1.2-1.4-1.6-2.9
			c-0.1-0.5-0.3-0.8-0.5-1c-0.1-0.1-0.2-0.2-0.3-0.3c-0.7-0.5-0.7-0.5-0.6-1.3c0-0.2,0-0.4,0-0.6c0-0.3,0.1-0.7,0.1-0.9
			c0.1-0.5,0-0.8-0.3-1.5c-0.2-0.5-0.5-1.2-0.6-1.6c-0.2-0.9-0.6-1.1-1.1-0.5C68,44.9,67.7,45,67.7,45c-0.3,0-0.6-0.6-0.5-0.8
			c0.2-0.5-0.8-2.2-1.4-2.4c-0.3-0.1-0.6-0.4-0.8-0.9c-0.3-0.7-0.7-1-1.1-0.8c-0.1,0.1-0.7,0.2-1.2,0.3c-0.9,0.2-1.3,0.5-1.2,1
			c0,0.2-0.1,0.4-0.5,0.5c-0.3,0.2-0.7,0.5-0.8,0.7c-0.1,0.2-0.3,0.5-0.5,0.5c-0.2,0.1-0.4,0.3-0.6,0.6c-0.2,0.3-0.6,0.7-1,1
			c-0.6,0.4-0.7,0.7-0.7,1c0.2,1.8-0.1,3.2-0.7,4.1c-0.6,0.9-0.6,0.9-1.1,0.6c-0.3-0.1-0.4-0.4-0.5-0.7c-0.1-0.3-0.4-1.2-0.7-1.9
			c-2.1-4.5-2.4-5.4-2.2-6.2c0.1-0.6-0.2-1.4-0.4-1.3c-0.1,0-0.2,0.2-0.2,0.3c0,0.8-0.9,0.9-1.5,0.2l-0.4-0.4l0.4-0.1
			c0.4-0.2,0.4-0.6,0-0.5c-0.2,0-0.5-0.1-0.8-0.4c-0.3-0.2-0.6-0.4-0.6-0.4c-0.1,0-0.2-0.1-0.2-0.3c-0.1-0.5-1-0.9-1.5-0.7
			C46.5,38,45.2,38.1,44,38c0,0.7,0,1.3,0,2c0,20.4,15.3,37.3,35.1,39.7c0-0.1,0-0.2,0-0.3c-0.1-0.7-0.1-1.4,0-2.4
			c0.1-0.8,0.1-1.6,0.1-1.8c0-0.2,0-0.7,0.2-1.1c0.3-0.7,0.3-0.7,2.1-1.5c1-0.4,2-0.8,2.3-0.8c0.7,0,1.5-0.6,2-1.5
			c0.3-0.5,0.5-0.7,0.7-0.7c0.5,0.2,0.6,0.1,0.5-0.2c0-0.2,0.1-0.4,0.3-0.5c0.2-0.1,0.5-0.4,0.7-0.7c0.2-0.3,0.7-0.7,1-0.8
			c0.6-0.2,0.7-0.2,1,0.1c0.6,0.5,1,0.7,1.2,0.5c0.1-0.1,0.1-0.3,0.1-0.3c-0.2-0.2,0.7-1.3,1.1-1.4c0.2-0.1,0.7-0.2,1-0.4
			c0.5-0.3,0.7-0.3,1.3-0.1c1.3,0.3,1.3,0.4,0.8,1.1c-0.6,0.9-0.5,1.3,1.1,2.4c0.7,0.5,1.4,0.9,1.5,0.8c0.1,0,0.4-0.4,0.8-0.8
			c0.4-0.6,0.6-1,0.6-1.7c0.1-1,0.6-2.3,0.8-2.3c0.1,0,0.3,0.4,0.4,0.9c0.1,0.5,0.4,1,0.7,1.3c0.5,0.5,0.8,1.8,0.6,2.6
			c-0.2,0.5-0.1,0.6,0.4,1.2c0.3,0.3,0.8,1.1,1.1,1.7c0.2,0.5,0.6,1.1,0.9,1.6c0.3-0.1,0.5-0.3,0.7-0.4c-0.1,0-0.2,0-0.3-0.1
			c-0.4-0.2-0.1-0.4,0.5-0.4c0.2,0,0.3,0,0.3,0.1C116.6,66.6,124,54.2,124,40C124,17.9,106.1,0,84,0z M102.2,57.3
			c0.1,0,0.2,0.1,0.2,0.2c0,0.1,0,0.2-0.1,0.2c-0.1,0-0.1-0.1-0.2-0.2C102.1,57.4,102.1,57.3,102.2,57.3z M100.6,51.7
			c0.1,0,0.1,0.1,0.2,0.2c0.1,0.1,0,0.2-0.1,0.2c-0.1,0-0.2-0.1-0.2-0.2C100.5,51.8,100.5,51.7,100.6,51.7z M94.9,51.1
			c0.1-0.1,0.2,0,0.2,0.1c0,0.1-0.1,0.2-0.2,0.3c-0.1,0.1-0.2,0-0.2-0.1C94.7,51.2,94.8,51.1,94.9,51.1z M91.3,23.6
			c0.3,0.2,0.9,0.5,1.4,0.7c0.9,0.3,1.1,0.5,0.7,0.6c-0.2,0.1-0.3,0.2-0.3,0.3c0,0.2-0.1,0.2-0.5,0.1c-0.9-0.2-1.1-0.2-1.1,0.2
			c0.1,0.5,0,0.5-0.4-0.1c-0.3-0.4-0.3-0.5-0.1-0.8c0.2-0.3,0.2-0.4,0-0.8C90.6,23.1,90.7,23.1,91.3,23.6z M87.7,18.7
			c-0.7-0.8-1-1.3-0.9-1.3c0.1,0,0.4,0.1,0.5,0.4c0.5,0.6,1,1.1,1.9,1.8c0.7,0.5,1.1,1,0.6,0.9c-0.5-0.2-0.4,0.3,0.3,1.1
			c0.4,0.5,0.7,0.9,0.7,0.9c0,0.2-0.6,0-0.9-0.2c-0.1-0.2-0.5-0.7-0.7-1.3C89,20.4,88.3,19.4,87.7,18.7z M88.6,31.9
			c0.4,0.3,0.7,0.9,0.5,1.3c-0.1,0.3-0.4,0.3-0.4,0c0-0.1-0.2-0.4-0.4-0.7C87.8,32,88,31.5,88.6,31.9z M88.7,48.3
			c0.4,0.6-0.1,0.5-0.6,0c-0.2-0.2-0.3-0.5-0.3-0.5C88,47.6,88.4,47.9,88.7,48.3z M87.8,48.7c0.2,0,0.4,0.7,0.3,0.8
			c0,0-0.1-0.1-0.2-0.2c-0.1-0.2-0.1-0.4-0.2-0.4C87.6,48.7,87.7,48.7,87.8,48.7z M88.3,50.4c0.2-0.2,0.4-0.5,0.4-0.7
			c0-0.4,0.6,1,0.8,1.7c0.1,0.6,0.1,0.6-0.2,0.4c-0.4-0.3-0.7,0-0.4,0.4c0.1,0.1,0.1,0.3,0,0.3c-0.1,0-0.3,0-0.4,0.1
			c-0.2,0.1-0.3-0.1-0.6-0.7c-0.3-0.7-0.4-0.8-0.8-0.7c-0.5,0.1-0.5,0.1-0.3-0.2c0.1-0.3,0.3-0.3,0.6-0.3
			C87.8,50.8,88,50.7,88.3,50.4z M86.6,48.6c-0.2,0.3-0.2,0.3-0.4,0.2c-0.2-0.3,0-0.7,0.3-0.6C86.7,48.2,86.7,48.3,86.6,48.6z
			 M86.8,49.4c0.1-0.2,0.2-0.2,0.3,0c0.1,0.2,0.1,0.3,0,0.5c-0.2,0.3-0.2,0.3-0.3,0C86.7,49.8,86.7,49.5,86.8,49.4z M85.7,43.8
			c0.2,0.5,0.2,0.6,0,1.2c-0.2,0.6-0.2,0.6,0.2,1.1c0.3,0.3,0.6,0.4,0.8,0.4c0.2-0.1,0.4,0,0.6,0.2c0.3,0.4,0.2,0.6-0.2,0.4
			c-0.2-0.1-0.5-0.1-0.7-0.1c-0.3,0.1-0.5,0-1.1-0.7c-0.8-0.9-1-1.2-0.8-1.7c0.1-0.2,0.2-0.5,0.2-0.8C84.6,42.9,85.2,42.9,85.7,43.8
			z M85.8,47.8c0,0.1-0.2,0-0.4-0.2c-0.1-0.1-0.3-0.4-0.3-0.5c0-0.1,0.2,0,0.4,0.2C85.7,47.5,85.8,47.7,85.8,47.8z M83.8,38.8
			c0.4-0.7,0.6-0.7,0.8-0.2c0.1,0.5-0.2,1.8-0.5,1.6c-0.1-0.1-0.3-0.3-0.4-0.5C83.5,39.3,83.5,39.2,83.8,38.8z M83.9,49.4
			c0.6-0.7,0.7-0.8,0.7-0.5c0,0.2-0.2,0.6-0.6,0.9c-0.5,0.6-0.9,0.8-0.9,0.5C83.2,50.3,83.5,49.9,83.9,49.4z M76.6,43
			c-0.4-0.4,0-1,0.8-1c0.4,0,0.4,0,0,0.5C77.1,43.2,76.9,43.3,76.6,43z M74.4,61c-0.6-0.3-1.7-1.7-2.1-2.5c-0.2-0.4-0.6-1.2-1-1.6
			c-0.3-0.5-0.7-1-0.9-1.3c-0.1-0.3-0.6-0.8-0.9-1.1c-0.8-0.8-1.3-1.6-0.9-1.6c0.4,0,1.5,0.6,2,1.1c1.3,1.4,1.6,1.6,2.2,2
			c0.6,0.4,0.9,0.8,0.9,1.2c0,0.1,0.2,0.3,0.4,0.6c0.2,0.2,0.6,0.6,0.8,0.9c0.3,0.3,0.5,0.8,0.6,1C75.7,60.6,75,61.3,74.4,61z
			 M81.8,63.2c0,0.1-0.2,0.1-0.3,0.1c-0.1,0-0.7-0.1-1.3-0.2c-0.6-0.1-1.4-0.3-1.8-0.4c-0.4-0.1-0.9-0.2-1.1-0.1
			c-0.4,0.1-2-0.4-2-0.6c0-0.5,1.5-0.6,2.3-0.1c0.3,0.2,0.5,0.2,1.1,0.1c0.7-0.2,0.8-0.1,1.2,0.2c0.2,0.2,0.5,0.3,0.6,0.3
			C80.8,62.5,81.8,63,81.8,63.2z M84,63.5c-0.1,0-0.4,0-0.5,0.1c-0.2,0-0.4,0-0.5,0c-0.1,0-0.2-0.2-0.1-0.2c0.1-0.2,1.2-0.2,1.3,0
			C84.1,63.4,84.1,63.5,84,63.5z M84,55.6l0.3,0.5l-0.4,0.3c-0.2,0.1-0.4,0.4-0.4,0.5c0,0.4-1.1,2.6-1.3,2.7
			c-0.2,0.1-0.4,0.1-0.7-0.1c-0.2-0.1-0.6-0.2-0.7-0.1c-0.4,0.1-2-0.2-2.2-0.4c-0.1-0.2-0.5-1.4-0.7-2.3c-0.1-0.2,0-0.5,0.1-0.7
			c0.2-0.3,0.3-0.3,0.6-0.1c0.3,0.2,0.4,0.1,0.6-0.2c0.1-0.2,0.5-0.6,0.8-0.7c0.3-0.2,0.7-0.5,0.8-0.8c0.1-0.3,0.4-0.6,0.8-0.7
			c0.3-0.1,0.8-0.4,1-0.7c0.2-0.3,0.5-0.6,0.6-0.6c0.1,0,0.4,0.2,0.7,0.5l0.5,0.5l-0.4,0.6C83.4,54.3,83.4,54.8,84,55.6z M85.3,64.4
			c0,0-0.3,0-0.5-0.1c-0.2-0.1-0.3-0.2-0.2-0.2C84.9,64,85.4,64.3,85.3,64.4z M86.1,63.5c-0.4,0.1-0.6,0-0.8-0.1
			c-0.3-0.4,0-0.5,0.8-0.3C86.9,63.4,86.9,63.4,86.1,63.5z M87.1,57.8c-0.6,0.3-0.7,0.7-0.4,1.2c0.1,0.3,0.2,0.7,0.2,0.9
			c0,0.4,0,0.4-0.3,0.2c-0.2-0.1-0.4-0.4-0.6-0.8c-0.2-0.6-0.3-0.6-0.6-0.3c-0.3,0.3-0.3,0.4-0.1,1c0.1,0.5,0.1,0.7,0,0.8
			c-0.3,0.2-0.4,0-0.6,0h0c-0.1-0.4-0.1-0.4,0-0.6c0.1-0.2,0-0.5-0.1-0.7c-0.2-0.3-0.2-0.4,0-0.8c0.1-0.2,0.3-0.8,0.4-1.3
			c0.1-0.6,0.2-1,0.5-1.3c0.4-0.4,0.4-0.4,1.3-0.2c0.7,0.1,1,0.1,1.3-0.1c0.6-0.3,0.7-0.3,0.5,0.1c-0.2,0.5-0.6,0.7-1.1,0.6
			c-0.1,0-0.2-0.1-0.3-0.1c-1-0.5-2.3,0.3-1.6,1c0.3,0.3,0.4,0.3,0.9,0.1c0.4-0.1,0.6-0.2,0.8-0.2C87.4,57.6,87.4,57.7,87.1,57.8z
			 M89.6,63.5c-0.2,0-0.8,0.2-1.2,0.5c-1,0.6-1.2,0.6-0.8,0c0.5-0.7,1.2-0.9,1.9-0.7C90,63.4,90,63.5,89.6,63.5z M90.5,56.9
			c-0.1-0.1-0.1-0.3,0-0.5c0.1-0.2,0.1-0.4,0.1-0.5c-0.1-0.2,0.2-0.8,0.5-0.8c0.2,0,0.2,0,0,0.3c-0.2,0.2-0.2,0.4-0.1,0.7
			C91.2,56.8,90.9,57.3,90.5,56.9z M92,59.4c-0.4,0.1-0.5,0.1-0.9,0C90.7,59.3,90.6,59,91,59c0.1,0,0.5,0.1,0.8,0.1
			C92.2,59.2,92.2,59.3,92,59.4z M91.6,31.8l-0.1,0.3l-0.3-0.3c-0.2-0.2-0.4-0.3-0.8-0.3c0.1,0.1,0,0.4-0.1,0.6
			c-0.3,0.3-0.4,0.2-0.5-0.1c-0.1-0.2,0-0.3,0.2-0.4c-0.1,0-0.3,0-0.5,0.1c-0.4,0.1-0.7,0.1-0.9,0c-0.2-0.1-0.2-0.1-0.1-0.1
			c0.1,0,0.4-0.1,0.7-0.3c0.3-0.2,0.6-0.2,0.9-0.2c0.3,0,0.6,0,1.3-0.4c1.3-0.6,1.4-0.8,0.9-1.5c-0.5-0.6-0.4-0.8,0.4-0.6
			c0.5,0.2,1.1,0.8,0.9,1.1c-0.1,0.1,0,0.4,0.2,0.6c0.2,0.4,0.2,0.5,0.1,0.7c-0.2,0.3-0.8,0.4-1.5,0.4
			C91.9,31.5,91.7,31.6,91.6,31.8z M103.4,63.7c-0.5-0.7-1.3-1.2-1.8-1.1c-0.2,0.1-0.5,0.4-0.7,0.7c-0.3,0.5-0.4,0.6-1,0.5
			c-0.3-0.1-0.8-0.3-1.1-0.5c-0.3-0.3-0.5-0.4-0.8-0.3c-0.2,0.1-0.5,0-0.6,0c-0.2-0.1-0.2-0.2,0.2-0.4c0.4-0.3,0.4-0.3,0.1-0.9
			c-0.2-0.5-0.5-0.7-1.6-1.2c-0.7-0.3-1.5-0.6-1.8-0.6c-0.6,0-0.9-0.6-0.4-0.9c0.3-0.2,0.2-0.2-0.5-0.6c-0.8-0.4-0.8-0.4-0.4-0.6
			c0.2-0.1,0.5-0.2,0.7-0.2c0.4,0,0.9,0.6,0.9,1c0,0.1,0.2,0.5,0.4,0.7c0.3,0.4,0.4,0.4,0.6,0.1c0.1-0.2,0.6-0.5,1-0.8l0.8-0.4
			l1,0.5c0.6,0.3,1.4,0.6,1.8,0.8c0.4,0.2,1.3,0.6,1.9,1c1.2,0.8,1.7,1.4,1.4,1.8c-0.2,0.3,0.7,1.6,1.7,2.3c1.1,0.8,1,0.9-0.1,0.5
			C104.3,64.6,103.8,64.3,103.4,63.7z M106.1,67.7c-0.1,0-0.2,0-0.2-0.1c0-0.1,0.1-0.1,0.2-0.2c0.1-0.1,0.2,0,0.2,0.1
			C106.2,67.6,106.2,67.7,106.1,67.7z M106.4,61.4c-0.6,0.5-0.6,0.5-1.1,0.2l-0.4-0.2l0.6-0.1c0.3-0.1,0.9-0.3,1.2-0.6
			c0.3-0.3,0.6-0.4,0.6-0.3C107.2,60.7,107,61,106.4,61.4z M107.7,60.2c0,0.1-0.2,0-0.3-0.2c-0.2-0.2-0.5-0.5-0.8-0.7
			c-0.3-0.1-0.5-0.3-0.4-0.3C106.4,58.7,107.8,59.8,107.7,60.2z M109,62.2c-0.1,0-0.2,0-0.3-0.1c-0.1-0.1-0.2-0.4-0.3-0.7
			c-0.1-0.4-0.1-0.5,0.1-0.2c0.1,0.2,0.3,0.5,0.4,0.6C109.1,62,109.1,62.2,109,62.2z M109.6,62c0.1,0,0.3,0.1,0.5,0.3
			c0.2,0.2,0.2,0.3,0.1,0.3c-0.1,0-0.3-0.1-0.5-0.3C109.6,62.2,109.5,62,109.6,62z M110.4,63.6c-0.1,0-0.2-0.1-0.3-0.3
			c-0.1-0.2-0.1-0.3,0-0.3c0.1,0,0.2,0.1,0.3,0.3C110.4,63.5,110.4,63.6,110.4,63.6z M111.3,63.1c0.2,0.2,0.3,0.4,0.2,0.4
			s-0.3-0.1-0.5-0.3C110.6,62.7,110.9,62.6,111.3,63.1z M111.5,64.2c-0.2-0.3-0.2-0.3,0.2-0.1c0.1,0.1,0.3,0.2,0.3,0.2
			C112,64.6,111.7,64.5,111.5,64.2z M117.4,57.1c0.1-0.1,0.2,0,0.2,0.1c0,0.1-0.1,0.2-0.2,0.2c-0.1,0-0.2,0-0.2-0.1
			C117.2,57.3,117.3,57.2,117.4,57.1z M112.8,65.1c0,0-0.2,0-0.3-0.2c-0.1-0.2-0.1-0.3,0-0.3C112.6,64.6,112.9,65,112.8,65.1z
			 M112.4,64.2c0,0.1-0.1,0-0.2-0.1c-0.1-0.2-0.1-0.4-0.1-0.6c0-0.2,0.1-0.1,0.2,0.1C112.4,63.9,112.5,64.1,112.4,64.2z"/>
		<path fill="#73B564" d="M106.1,67.4c-0.1,0.1-0.2,0.2-0.2,0.2c0,0,0.1,0.1,0.2,0.1c0.1,0,0.2-0.1,0.2-0.2
			C106.2,67.3,106.2,67.3,106.1,67.4z"/>
		<path fill="#73B564" d="M104.6,74c0.1,0,0.2,0.1,0.3,0.1c0.2-0.1,0.4-0.2,0.6-0.4c-0.1,0-0.2,0-0.3-0.1
			C104.5,73.6,104.3,73.8,104.6,74z"/>
		<path fill="#73B564" d="M102.4,57.7c0,0,0.1-0.1,0.1-0.2c0-0.1-0.1-0.2-0.2-0.2c-0.1,0-0.2,0.1-0.1,0.2
			C102.2,57.6,102.3,57.7,102.4,57.7z"/>
		<path fill="#73B564" d="M100.7,52.1c0.1,0,0.2-0.1,0.1-0.2c-0.1-0.1-0.2-0.2-0.2-0.2c0,0-0.1,0.1-0.1,0.2
			C100.5,52,100.6,52.1,100.7,52.1z"/>
		<path fill="#73B564" d="M117.4,57.4c0.1,0,0.2-0.1,0.2-0.2c0-0.1-0.1-0.1-0.2-0.1c-0.1,0.1-0.2,0.1-0.2,0.2
			C117.2,57.4,117.3,57.4,117.4,57.4z"/>
		<path fill="#73B564" d="M112.5,64.9c0.1,0.1,0.2,0.2,0.3,0.2c0.1-0.1-0.1-0.4-0.3-0.4C112.3,64.6,112.3,64.7,112.5,64.9z"/>
		<path fill="#73B564" d="M112.2,63.5c0,0.1,0,0.4,0.1,0.6c0.1,0.2,0.1,0.2,0.2,0.1c0-0.1,0-0.3-0.1-0.6
			C112.2,63.4,112.2,63.3,112.2,63.5z"/>
		<path fill="#73B564" d="M111.7,64.1c-0.4-0.2-0.5-0.1-0.2,0.1c0.2,0.3,0.5,0.3,0.5,0.1C112,64.2,111.9,64.1,111.7,64.1z"/>
		<path fill="#73B564" d="M111.3,63.1c-0.4-0.5-0.7-0.4-0.2,0.1c0.2,0.2,0.4,0.3,0.5,0.3S111.5,63.3,111.3,63.1z"/>
		<path fill="#73B564" d="M110,63c-0.1,0-0.1,0.1,0,0.3c0.1,0.2,0.3,0.3,0.3,0.3c0.1,0,0-0.1,0-0.3C110.2,63.1,110.1,63,110,63z"/>
		<path fill="#73B564" d="M110.1,62.3c-0.2-0.2-0.4-0.3-0.5-0.3c-0.1,0,0,0.1,0.1,0.3c0.2,0.2,0.4,0.3,0.5,0.3
			C110.3,62.7,110.2,62.5,110.1,62.3z"/>
		<path fill="#73B564" d="M108.5,61.3c-0.2-0.3-0.2-0.3-0.1,0.2c0.1,0.3,0.2,0.6,0.3,0.7c0.1,0.1,0.2,0.2,0.3,0.1
			c0.1-0.1,0.1-0.2-0.1-0.4C108.8,61.7,108.6,61.4,108.5,61.3z"/>
		<path fill="#73B564" d="M106.1,58.9c0,0,0.1,0.2,0.4,0.3c0.3,0.1,0.6,0.5,0.8,0.7c0.2,0.2,0.3,0.3,0.3,0.2
			C107.8,59.8,106.4,58.7,106.1,58.9z"/>
		<path fill="#73B564" d="M106.6,60.6c-0.3,0.3-0.8,0.5-1.2,0.6l-0.6,0.1l0.4,0.2c0.5,0.3,0.5,0.3,1.1-0.2c0.6-0.5,0.8-0.7,0.8-1
			C107.2,60.2,107,60.4,106.6,60.6z"/>
		<path fill="#73B564" d="M105.4,64.4c-1-0.7-1.9-2-1.7-2.3c0.3-0.4-0.2-1-1.4-1.8c-0.6-0.4-1.5-0.9-1.9-1c-0.4-0.2-1.2-0.5-1.8-0.8
			l-1-0.5l-0.8,0.4c-0.4,0.2-0.9,0.6-1,0.8c-0.3,0.3-0.3,0.3-0.6-0.1c-0.2-0.2-0.4-0.6-0.4-0.7c0-0.4-0.5-1-0.9-1
			c-0.2,0-0.5,0.1-0.7,0.2c-0.4,0.2-0.3,0.2,0.4,0.6c0.7,0.3,0.8,0.4,0.5,0.6c-0.5,0.3-0.2,0.9,0.4,0.9c0.3,0,1.1,0.3,1.8,0.6
			c1,0.5,1.3,0.8,1.6,1.2c0.3,0.6,0.3,0.6-0.1,0.9c-0.4,0.2-0.4,0.3-0.2,0.4c0.1,0.1,0.4,0.1,0.6,0c0.2-0.1,0.5,0,0.8,0.3
			c0.2,0.2,0.7,0.5,1.1,0.5c0.6,0.1,0.6,0.1,1-0.5c0.2-0.3,0.5-0.6,0.7-0.7c0.4-0.1,1.3,0.4,1.8,1.1c0.4,0.6,0.9,0.9,1.9,1.2
			C106.5,65.3,106.5,65.2,105.4,64.4z"/>
		<path fill="#73B564" d="M102.2,71.2c-0.5-0.5-0.6-0.6-0.4-1.2c0.2-0.8-0.1-2.1-0.6-2.6c-0.2-0.2-0.5-0.8-0.7-1.3
			c-0.1-0.5-0.3-0.9-0.4-0.9c-0.2,0-0.7,1.3-0.8,2.3c-0.1,0.7-0.2,1.1-0.6,1.7c-0.3,0.4-0.6,0.8-0.8,0.8c-0.1,0-0.8-0.3-1.5-0.8
			c-1.5-1.1-1.7-1.4-1.1-2.4c0.5-0.7,0.4-0.8-0.8-1.1c-0.6-0.2-0.8-0.1-1.3,0.1c-0.3,0.2-0.8,0.4-1,0.4c-0.4,0.1-1.3,1.2-1.1,1.4
			c0.1,0.1,0,0.2-0.1,0.3c-0.2,0.2-0.6,0.1-1.2-0.5c-0.3-0.3-0.4-0.3-1-0.1c-0.4,0.1-0.8,0.5-1,0.8c-0.2,0.3-0.5,0.6-0.7,0.7
			c-0.2,0.1-0.3,0.2-0.3,0.5c0,0.4-0.1,0.4-0.5,0.2c-0.2-0.1-0.4,0.1-0.7,0.7c-0.5,0.9-1.3,1.5-2,1.5c-0.2,0-1.3,0.3-2.3,0.8
			c-1.8,0.7-1.8,0.8-2.1,1.5c-0.1,0.4-0.2,0.9-0.2,1.1c0,0.2,0,1-0.1,1.8c-0.1,1.1-0.1,1.7,0,2.4c0,0.1,0,0.2,0,0.3
			c1.6,0.2,3.2,0.3,4.9,0.3c7.4,0,14.2-2,20.2-5.5c-0.3-0.5-0.7-1.1-0.9-1.6C103,72.3,102.5,71.5,102.2,71.2z"/>
		<path fill="#73B564" d="M99.8,9.1c0.1,0,0.2,0,0.3,0.1c0.4,0.3,1.4,0.6,1.9,0.5l0.4-0.1L101.9,9c-0.9-0.7-1.2-0.9-1.8-0.7
			c-0.1,0-0.3,0.1-0.4,0.1L99.8,9.1C99.8,9.1,99.8,9.1,99.8,9.1z"/>
		<path fill="#73B564" d="M46.7,37.9c0.4-0.2,1.3,0.2,1.5,0.7c0.1,0.2,0.2,0.3,0.2,0.3c0.1,0,0.4,0.2,0.6,0.4
			c0.3,0.2,0.6,0.4,0.8,0.4c0.4-0.1,0.5,0.3,0,0.5l-0.4,0.1l0.4,0.4c0.7,0.7,1.5,0.5,1.5-0.2c0-0.1,0.1-0.3,0.2-0.3
			c0.3-0.1,0.6,0.7,0.4,1.3c-0.2,0.8,0.1,1.7,2.2,6.2c0.3,0.7,0.7,1.6,0.7,1.9c0.1,0.4,0.2,0.6,0.5,0.7c0.5,0.2,0.5,0.2,1.1-0.6
			c0.6-0.9,0.8-2.3,0.7-4.1c0-0.3,0.1-0.5,0.7-1c0.4-0.3,0.9-0.8,1-1c0.2-0.3,0.4-0.5,0.6-0.6c0.2-0.1,0.4-0.3,0.5-0.5
			c0.1-0.2,0.4-0.5,0.8-0.7c0.4-0.2,0.6-0.4,0.5-0.5c-0.1-0.5,0.2-0.8,1.2-1c0.5-0.1,1.1-0.3,1.2-0.3c0.4-0.2,0.7,0.1,1.1,0.8
			c0.2,0.4,0.5,0.7,0.8,0.9c0.6,0.2,1.5,2,1.4,2.4C67,44.5,67.4,45,67.7,45c0.1,0,0.3-0.2,0.5-0.4c0.6-0.6,0.9-0.4,1.1,0.5
			c0.1,0.4,0.4,1.2,0.6,1.6c0.3,0.7,0.4,1,0.3,1.5c0,0.2-0.1,0.5-0.1,0.9l0.6,0.1c0-0.1,0-0.3,0.1-0.5c0.1-0.4,0.2-1.1,0.1-1.4
			c0-0.4,0-0.6,0.2-0.6c0.4,0,2,1.2,2.5,2c0.2,0.3,0.3,0.4,0.6,0.2c0.3-0.1,0.3-0.1,0.4,0.1c0.1,0.1,0.1,0.4,0,0.6
			c-0.1,0.2-0.1,0.4,0,0.5c0.1,0.2,0.9-0.3,1-0.6c0-0.2,0.4-0.4,0.7-0.6c0.8-0.3,1.1-0.9,0.9-1.8c-0.2-1-1-2.4-1.7-3
			c-0.9-0.7-1.4-1.5-1.2-2c0.2-0.5,0.6-1,1.2-1.2c0.7-0.3,1.2-0.1,1.4,0.4l0.2,0.4l0.3-0.4c0.4-0.5,0.9-0.8,1.5-0.8
			c0.3,0,0.9-0.2,1.5-0.4c1.4-0.5,2-1.2,2.6-3.4c0.5-1.8,0.5-2.1,0-2.1c-0.4,0-0.6-0.3-0.3-0.5c0.3-0.2,0.2-0.6-0.4-0.9
			c-0.3-0.2-0.7-0.6-0.8-1c-0.2-0.4-0.5-0.8-0.7-0.9c-0.3-0.1-0.4-0.3-0.3-0.6c0.1-0.4,0.3-0.7,1.1-1.2l0.4-0.3l-0.7-0.2
			c-0.6-0.2-0.8-0.2-1,0c-0.2,0.2-0.3,0.2-0.9-0.2c-0.4-0.2-0.8-0.5-0.9-0.7c-0.2-0.2-0.2-0.3,0.1-0.4c0.2-0.1,0.6-0.5,0.9-0.8
			c0.5-0.5,0.6-0.6,0.9-0.4c0.2,0.1,0.3,0.3,0.3,0.4c0,0.1,0.1,0.4,0.2,0.6c0.2,0.3,0.2,0.3,0.7,0c0.6-0.3,0.6-0.3,1.1,0
			c0.4,0.2,0.5,0.4,0.5,0.7c0,0.3,0.1,0.4,0.5,0.5c0.7,0.2,1.1,0.6,1.5,1.7l0.4,0.9l0.7-0.3c0.4-0.2,0.7-0.4,0.7-0.4
			c0,0-0.1-0.3-0.2-0.7c-0.2-0.4-0.6-0.9-1.4-1.4c-0.6-0.4-1.1-0.9-1.1-0.9c0-0.1,0.2-0.2,0.4-0.3c0.5-0.2,0.7-0.6,0.4-0.9
			c-0.1-0.1-0.1-0.4,0.2-0.9c0.2-0.4,0.4-0.7,0.4-0.7c0,0,0.3,0.1,0.5,0.2c0.6,0.2,1.1-0.1,1.5-1.2c0.6-1.5,0.4-3.9-0.2-4.3
			c-0.2-0.1-0.5-0.4-0.6-0.8c-0.4-0.8-1.8-1.9-2.2-1.7c-0.6,0.2-1.3,0.1-2-0.3c-0.6-0.3-0.7-0.4-0.4-0.7c0.1-0.2,0.3-0.7,0.4-1.1
			c0.1-0.4,0.4-0.9,0.6-1.2c0.4-0.3,0.6-0.4,1.8-0.4c0.7,0,1.5-0.1,1.8-0.1c0.3-0.1,0.7,0,1.1,0.1c0.4,0.2,0.8,0.2,1.1,0.2
			c0.4-0.1,0.4-0.2,0.4-0.5c0-0.2,0-0.7,0.1-0.9c0.2-0.4,0.2-0.5,0.9-0.4c0.4,0.1,0.9,0.2,1.1,0.4c0.5,0.3,0.9,0.2,0.8-0.3
			c-0.1-0.5,0.4-0.8,0.8-0.4c0.5,0.6,0.6,0.9,0.4,1.4c-0.1,0.2-0.2,0.6-0.2,0.8c0,0.2-0.1,0.6-0.2,0.8c-0.2,0.5-0.2,0.5,0.5,1.5
			c0.4,0.5,1,1.2,1.4,1.4c0.3,0.2,0.9,0.7,1.2,1.1c0.5,0.5,0.7,0.6,1,0.5c0.3-0.1,0.3-0.2,0.2-0.4c-0.1-0.1-0.1-0.5-0.2-0.7
			c0-0.2-0.1-0.5-0.2-0.7c-0.1-0.2,0-0.3,0.1-0.4c0.2-0.1,0.2-0.1,0-0.5c-0.1-0.2-0.3-0.6-0.4-0.9c-0.1-0.3-0.4-0.6-0.9-0.8
			c-0.8-0.4-1.4-1.2-1.1-1.5c0.1-0.1,0.4-0.2,0.7-0.3c0.3-0.1,0.7-0.2,0.9-0.3c0.4-0.2,0.5-0.2,0.9,0c0.4,0.2,0.5,0.2,0.8-0.1
			c0.2-0.2,0.3-0.4,0.3-0.5c0-0.3,1-0.7,1.4-0.6c0.4,0.1,0.9-0.1,0.7-0.3c0,0-0.7-0.3-1.6-0.7c-1.5-0.6-1.8-0.9-0.8-0.8
			c0.5,0,0.5,0,0.3-0.3c-0.4-0.5,0-0.6,0.9-0.3c0.3,0.1,0.6,0.2,0.8,0.2l0-0.7c-0.2,0-0.5-0.1-0.9-0.3c-0.4-0.2-1.2-0.4-1.8-0.5
			c-0.5-0.1-1.3-0.2-1.7-0.4c-0.8-0.3-3.1-0.7-5-0.9c-1.1-0.1-1.2-0.1-0.9,0.2c0.4,0.5,0.1,0.6-0.7,0.3c-0.5-0.2-1.2-0.3-2.8-0.3
			c-1.7,0-2.2-0.1-2.7-0.3c-0.4-0.2-1-0.3-2.9-0.4c-2-0.1-2.5-0.1-3.1-0.4c-0.4-0.2-1.1-0.4-1.4-0.4c-0.3,0-1-0.1-1.6-0.2
			C73,4.5,72,4.6,72.3,5c0.1,0.2,0.1,0.3-0.3,0.5c-0.4,0.2-0.7,0.2-1.4,0.1c-0.7-0.1-1-0.1-1.5,0.1c-0.6,0.3-0.6,0.3-1.4-0.2
			c-0.5-0.3-1.2-0.6-1.5-0.8c-0.1-0.1-0.3-0.1-0.5-0.2c-12.4,6.4-21,19-21.7,33.6C45.2,38.1,46.5,38,46.7,37.9z"/>
		<path fill="#73B564" d="M94.9,51.4c0.1-0.1,0.2-0.2,0.2-0.3c0-0.1-0.1-0.1-0.2-0.1c-0.1,0.1-0.2,0.2-0.2,0.3
			C94.7,51.4,94.8,51.4,94.9,51.4z"/>
		<path fill="#73B564" d="M93.6,30.4c-0.2-0.3-0.2-0.5-0.2-0.6c0.1-0.2-0.4-0.8-0.9-1.1c-0.8-0.3-0.9-0.1-0.4,0.6
			c0.5,0.7,0.4,0.9-0.9,1.5c-0.7,0.3-1,0.4-1.3,0.4c-0.3,0-0.5,0-0.9,0.2c-0.3,0.1-0.6,0.3-0.7,0.3c-0.1,0-0.1,0.1,0.1,0.1
			c0.2,0.1,0.5,0.1,0.9,0c0.2,0,0.3-0.1,0.5-0.1c0.1-0.1,0.2-0.1,0.3-0.1c0.1,0,0.1,0,0.1,0.1c0.4,0,0.6,0.1,0.8,0.3l0.3,0.3
			l0.1-0.3c0.1-0.3,0.2-0.3,0.6-0.3c0.7,0,1.3-0.2,1.5-0.4C93.8,30.9,93.8,30.8,93.6,30.4z"/>
		<path fill="#73B564" d="M91,23.8c0.2,0.4,0.2,0.5,0,0.8c-0.2,0.3-0.2,0.4,0.1,0.8c0.4,0.6,0.5,0.6,0.4,0.1
			c-0.1-0.4,0.2-0.5,1.1-0.2c0.3,0.1,0.5,0.1,0.5-0.1c0-0.1,0.1-0.3,0.3-0.3c0.5-0.2,0.3-0.4-0.7-0.6c-0.4-0.1-1.1-0.4-1.4-0.7
			C90.7,23.1,90.6,23.1,91,23.8z"/>
		<path fill="#73B564" d="M91.7,59.1C91.4,59.1,91.1,59,91,59c-0.3,0-0.3,0.3,0.1,0.4c0.4,0.1,0.6,0.1,0.9,0
			C92.2,59.3,92.2,59.2,91.7,59.1z"/>
		<path fill="#73B564" d="M90.9,56.1c-0.1-0.3-0.1-0.5,0.1-0.7c0.2-0.3,0.2-0.3,0-0.3c-0.3,0-0.7,0.6-0.5,0.8c0.1,0.1,0,0.3-0.1,0.5
			c-0.1,0.2-0.1,0.4,0,0.5C90.9,57.3,91.2,56.8,90.9,56.1z"/>
		<path fill="#73B564" d="M90,22.2c0.2,0.3,0.9,0.4,0.9,0.2c0,0-0.3-0.5-0.7-0.9c-0.7-0.8-0.8-1.3-0.3-1.1c0.5,0.2,0.1-0.3-0.6-0.9
			c-0.9-0.6-1.4-1.2-1.9-1.8c-0.2-0.2-0.4-0.4-0.5-0.4c-0.1,0,0.2,0.5,0.9,1.3c0.6,0.7,1.3,1.7,1.6,2.2C89.6,21.5,89.9,22,90,22.2z"
			/>
		<path fill="#73B564" d="M89.7,32.1c0.1,0.3,0.3,0.3,0.5,0.1c0.2-0.2,0.2-0.4,0.1-0.6c-0.1,0-0.3,0-0.5,0
			C89.7,31.7,89.6,31.9,89.7,32.1z"/>
		<path fill="#73B564" d="M89.9,31.6c0.2,0,0.4,0,0.5,0c0,0-0.1-0.1-0.1-0.1C90.1,31.6,90,31.6,89.9,31.6z"/>
		<path fill="#73B564" d="M87.6,64c-0.4,0.6-0.2,0.6,0.8,0c0.4-0.3,1-0.5,1.2-0.5c0.4,0,0.4,0-0.1-0.2C88.8,63.1,88.1,63.3,87.6,64z
			"/>
		<path fill="#73B564" d="M86.8,51c-0.2,0.3-0.2,0.3,0.3,0.2c0.5-0.1,0.5-0.1,0.8,0.7c0.2,0.6,0.4,0.7,0.6,0.7
			c0.1-0.1,0.3-0.1,0.4-0.1c0.1,0,0.1-0.1,0-0.3c-0.3-0.4,0.1-0.7,0.4-0.4c0.3,0.2,0.3,0.2,0.2-0.4c-0.1-0.7-0.8-2.1-0.8-1.7
			c0,0.2-0.2,0.5-0.4,0.7c-0.3,0.3-0.6,0.4-0.9,0.3C87.1,50.6,86.9,50.7,86.8,51z"/>
		<path fill="#73B564" d="M88.4,32.6c0.2,0.3,0.4,0.6,0.4,0.7c0,0.3,0.3,0.3,0.4,0c0.2-0.4-0.1-1-0.5-1.3C88,31.5,87.8,32,88.4,32.6
			z"/>
		<path fill="#73B564" d="M88.7,48.3c-0.2-0.4-0.7-0.7-0.8-0.5c0,0,0.1,0.3,0.3,0.5C88.6,48.8,89.1,48.8,88.7,48.3z"/>
		<path fill="#73B564" d="M87.2,57.6c-0.1,0-0.4,0.1-0.8,0.2c-0.5,0.1-0.6,0.1-0.9-0.1c-0.7-0.7,0.6-1.5,1.6-1
			c0.1,0,0.2,0.1,0.3,0.1c0.5,0.1,0.9-0.1,1.1-0.6c0.2-0.5,0.2-0.5-0.5-0.1c-0.4,0.2-0.7,0.2-1.3,0.1c-0.8-0.2-0.9-0.1-1.3,0.2
			c-0.3,0.3-0.4,0.7-0.5,1.3c-0.1,0.5-0.2,1.1-0.4,1.3c-0.2,0.4-0.3,0.4,0,0.8c0.1,0.2,0.2,0.6,0.1,0.8c-0.1,0.2-0.1,0.2,0,0.6h0
			c0.1,0,0.3,0.1,0.6,0c0.2-0.1,0.2-0.3,0-0.8c-0.2-0.6-0.1-0.7,0.1-1c0.3-0.3,0.3-0.3,0.6,0.3c0.1,0.3,0.4,0.7,0.6,0.8
			c0.3,0.2,0.3,0.1,0.3-0.3c0-0.2-0.1-0.6-0.2-0.9c-0.3-0.6-0.2-0.9,0.4-1.2C87.4,57.7,87.4,57.6,87.2,57.6z"/>
		<path fill="#73B564" d="M87.8,49.2c0.1,0.2,0.1,0.3,0.2,0.2c0.1-0.1-0.1-0.8-0.3-0.8c-0.1,0-0.1,0.1-0.1,0.1
			C87.7,48.9,87.8,49.1,87.8,49.2z"/>
		<path fill="#73B564" d="M85.2,46.3c0.6,0.6,0.8,0.7,1.1,0.7c0.2-0.1,0.5,0,0.7,0.1c0.4,0.2,0.5,0,0.2-0.4
			c-0.1-0.2-0.4-0.2-0.6-0.2c-0.2,0.1-0.5,0-0.8-0.4c-0.4-0.5-0.4-0.5-0.2-1.1c0.2-0.5,0.2-0.7,0-1.2c-0.4-0.9-1-1-1-0.1
			c0,0.3-0.1,0.6-0.2,0.8C84.2,45,84.4,45.4,85.2,46.3z"/>
		<path fill="#73B564" d="M87.1,49.9c0.2-0.2,0.2-0.3,0-0.5c-0.2-0.2-0.2-0.2-0.3,0c-0.1,0.1-0.1,0.4,0,0.5
			C86.8,50.2,86.9,50.2,87.1,49.9z"/>
		<path fill="#73B564" d="M86.5,48.2c-0.3-0.1-0.6,0.3-0.3,0.6c0.1,0.2,0.2,0.1,0.4-0.2C86.7,48.3,86.7,48.2,86.5,48.2z"/>
		<path fill="#73B564" d="M86.1,63.2c-0.8-0.2-1.1-0.1-0.8,0.3c0.1,0.2,0.4,0.2,0.8,0.1C86.9,63.4,86.9,63.4,86.1,63.2z"/>
		<path fill="#73B564" d="M85.1,47.1c0,0.1,0.1,0.3,0.3,0.5c0.1,0.1,0.3,0.2,0.4,0.2c0.1,0-0.1-0.3-0.3-0.5
			C85.3,47.1,85.1,47,85.1,47.1z"/>
		<path fill="#73B564" d="M84.6,64c-0.1,0-0.1,0.1,0.2,0.2c0.2,0.1,0.4,0.2,0.5,0.1C85.4,64.3,84.9,64,84.6,64z"/>
		<path fill="#73B564" d="M84.1,49.9c0.3-0.3,0.6-0.8,0.6-0.9c0-0.3-0.1-0.2-0.7,0.5c-0.4,0.4-0.7,0.9-0.7,0.9
			C83.2,50.6,83.6,50.4,84.1,49.9z"/>
		<path fill="#73B564" d="M84.1,40.1c0.2,0.2,0.6-1.1,0.5-1.6c-0.1-0.5-0.4-0.4-0.8,0.2c-0.2,0.4-0.3,0.6-0.1,0.9
			C83.8,39.9,84,40.1,84.1,40.1z"/>
		<path fill="#73B564" d="M84.3,53l-0.5-0.5c-0.3-0.3-0.6-0.5-0.7-0.5c-0.1,0-0.4,0.3-0.6,0.6c-0.2,0.3-0.7,0.6-1,0.7
			c-0.4,0.1-0.6,0.3-0.8,0.7c-0.1,0.3-0.5,0.6-0.8,0.8c-0.3,0.2-0.7,0.5-0.8,0.7c-0.2,0.4-0.2,0.4-0.6,0.2c-0.3-0.2-0.4-0.1-0.6,0.1
			c-0.1,0.2-0.2,0.5-0.1,0.7c0.2,0.9,0.6,2.1,0.7,2.3c0.2,0.2,1.8,0.6,2.2,0.4c0.2-0.1,0.5,0,0.7,0.1c0.3,0.2,0.5,0.2,0.7,0.1
			c0.3-0.2,1.3-2.3,1.3-2.7c0-0.1,0.2-0.3,0.4-0.5l0.4-0.3L84,55.6c-0.5-0.8-0.6-1.3-0.1-2L84.3,53z"/>
		<path fill="#73B564" d="M82.8,63.3c0,0.1,0,0.2,0.1,0.2c0.1,0,0.4,0.1,0.5,0c0.2,0,0.4-0.1,0.5-0.1c0.1,0,0.2-0.1,0.1-0.2
			C83.9,63.1,82.9,63.1,82.8,63.3z"/>
		<path fill="#73B564" d="M80.5,62.5c-0.1,0-0.4-0.2-0.6-0.3c-0.4-0.3-0.5-0.3-1.2-0.2c-0.6,0.1-0.9,0.1-1.1-0.1
			c-0.8-0.5-2.3-0.5-2.3,0.1c0,0.2,1.6,0.7,2,0.6c0.2-0.1,0.7,0,1.1,0.1c0.4,0.1,1.3,0.3,1.8,0.4c0.6,0.1,1.2,0.2,1.3,0.2
			c0.1,0,0.2,0,0.3-0.1C81.8,63,80.8,62.5,80.5,62.5z"/>
		<path fill="#73B564" d="M77.4,42.1c-0.8,0-1.2,0.5-0.8,1c0.3,0.3,0.5,0.2,0.8-0.4C77.8,42.1,77.8,42.1,77.4,42.1z"/>
		<path fill="#73B564" d="M75.5,59.7c-0.1-0.3-0.3-0.7-0.6-1c-0.3-0.3-0.6-0.7-0.8-0.9c-0.2-0.2-0.4-0.5-0.4-0.6
			c0-0.5-0.3-0.9-0.9-1.2c-0.6-0.4-0.9-0.6-2.2-2c-0.5-0.5-1.6-1.1-2-1.1c-0.3,0,0.2,0.8,0.9,1.6c0.4,0.4,0.8,0.9,0.9,1.1
			c0.1,0.3,0.5,0.9,0.9,1.3c0.3,0.5,0.8,1.2,1,1.6c0.4,0.8,1.4,2.2,2.1,2.5C75,61.3,75.7,60.6,75.5,59.7z"/>
		<path fill="#73B564" d="M71.6,52.4c0.4,1.5,0.9,2.3,1.6,2.9c0.7,0.5,1.1,0.6,1.1,0.3c0-0.1-0.2-0.7-0.4-1.5
			c-0.4-1.2-0.5-1.4-1.4-2.1c-0.3-0.3-0.7-0.6-0.9-0.8l-0.6,0.1C71.3,51.6,71.5,51.9,71.6,52.4z"/>
		<path fill="#73B564" d="M70.1,49.7c-0.1,0.8,0,0.8,0.6,1.3c0.1,0.1,0.2,0.2,0.3,0.3l0.6-0.1c-0.1-0.1-0.2-0.3-0.2-0.4
			c-0.1-0.2-0.3-0.6-0.4-0.9c-0.2-0.3-0.3-0.4-0.3-0.7l-0.6-0.1C70.1,49.4,70.1,49.6,70.1,49.7z"/>
	</g>
	<g>
		<g>
			<path fill="#2368B5" d="M16.6,125.7c0,0,38.7,3.3,61.6-10.9l-2.9-6.4c-8.2,6.7-45.4,12.2-51.2,6.9"/>
			<polygon fill="#FFEBCA" points="78.2,114.9 86.9,110.3 84.7,104.5 75.3,108.5 			"/>
		</g>
		<g>
			<g>
				<path fill="#FFEBCA" d="M6.7,74.8l21.8-10.4l16.2,48l-32.1,5C12.7,117.3,6.5,73.7,6.7,74.8z"/>
				<polygon fill="#1B75BC" points="30.7,82.1 34.6,97.9 41.1,94.1 				"/>
				<path fill="#6D6E71" d="M28.6,64.3l4.5-5.7c0,0-22.3,1.4-26.6,6.7c-5.1,6.4,1.8,21.8,1.8,21.8s-0.9-4.6,1.2-5.3
					c1.1-0.4,2.5,1.7,2.5,1.7l0.9-11.1L28.6,64.3z"/>
				
					<ellipse transform="matrix(-0.8917 0.4526 -0.4526 -0.8917 79.6315 145.0804)" fill="#6D6E71" cx="22.5" cy="82.1" rx="1.7" ry="2.4"/>
				
					<ellipse transform="matrix(-0.8917 0.4525 -0.4525 -0.8917 96.9521 135.0025)" fill="#6D6E71" cx="32.3" cy="79.1" rx="1.7" ry="2.4"/>
			</g>
			<g>
				<path fill="#1B75BC" d="M86,102h1.4c1.3,0,2.3-1,2.3-2.3V73.8h-6v25.9C83.7,101,84.7,102,86,102z"/>
				<path fill="#1B75BC" d="M56.9,45.5c0,16.8,13.6,30.3,30.3,30.3c16.8,0,30.3-13.6,30.3-30.3S104,15.1,87.3,15.1
					C70.5,15.1,56.9,28.7,56.9,45.5z M63.6,45.5c0-13.1,10.6-23.7,23.7-23.7c13.1,0,23.7,10.6,23.7,23.7c0,13.1-10.6,23.7-23.7,23.7
					C74.2,69.2,63.6,58.6,63.6,45.5z"/>
				<circle opacity="0.4" fill="#FFFFFF" cx="87.3" cy="45.5" r="23.7"/>
				<rect x="82.9" y="74.2" fill="#1B75BC" width="7.9" height="3.3"/>
				<path opacity="0.4" fill="#FFFFFF" d="M76.3,24.5L103,63.2c-4.2,3.7-9.7,6-15.7,6c-13.1,0-23.7-10.6-23.7-23.7
					C63.6,36.3,68.7,28.4,76.3,24.5z"/>
			</g>
			<path fill="#2368B5" d="M0,162.8c-0.3-16.6,2-26.9,3.8-33.4c2.4-8.8,8.3-15.7,8.3-15.7l37.6-3.6c-0.9,18,1.4,39.6,7.5,55.8
				C45.7,157.2,17.2,157.4,0,162.8z"/>
			<path fill="#E6E7E8" d="M24.9,114.9c0,0,8.6,27.3,9,25.8s3.4-26.8,3.4-26.8L24.9,114.9z"/>
			<g>
				<path fill="#2368B5" d="M11.4,141.7c0,0,48.8-21.1,72.1-46.7l-5.9-6.9c-10.1,7.2-52,31-61,26.5"/>
				<polygon fill="#FFEBCA" points="83.5,95.1 92.7,86.4 87.9,79.9 77.6,88.2 				"/>
			</g>
		</g>
	</g>
	<g>
		<path fill="#032360" d="M17.9,144.4c1.1-1.9,2.5-3.5,4-5.1c1.6-1.5,3.2-2.9,5-4.1c3.5-2.6,7.2-4.8,10.9-7
			c3.7-2.1,7.6-4.2,11.2-6.4l5.4-3.5l5.5-3.4c-3.6,2.4-7.2,4.8-10.8,7.1c-3.7,2.3-7.5,4.3-11.2,6.5c-3.7,2.1-7.4,4.3-10.9,6.9
			C23.6,137.9,20.3,140.7,17.9,144.4z"/>
	</g>
	<g>
		<path fill="#032360" d="M49.5,121.6l0.6,7.4c0.2,2.5,0.4,5,0.7,7.4c0.2,2.5,0.5,4.9,0.9,7.4c0.3,2.5,0.7,4.9,1.3,7.3
			c-1.3-4.8-1.9-9.8-2.5-14.7C49.9,131.6,49.6,126.6,49.5,121.6z"/>
	</g>
	<g>
		<path fill="#032360" d="M34.5,111.3c-1.8,0.7-3.7,1.2-5.6,1.5c-1.9,0.3-3.8,0.5-5.7,0.7c-1.9,0.2-3.8,0.4-5.6,1
			c-1.8,0.6-3.5,1.5-4.9,2.9c1.3-1.5,3-2.5,4.8-3.1c1.8-0.6,3.8-0.9,5.7-1.1C27,112.8,30.9,112.5,34.5,111.3z"/>
	</g>
</g>
<g>
</g>
<g>
</g>
<g>
</g>
<g>
</g>
<g>
</g>
<g>
</g>
<g>
</g>
<g>
</g>
<g>
</g>
<g>
</g>
<g>
</g>
<g>
</g>
<g>
</g>
<g>
</g>
<g>
</g>
</svg>
