<?xml version="1.0" encoding="utf-8"?>
<!-- Generator: Adobe Illustrator 18.0.0, SVG Export Plug-In . SVG Version: 6.00 Build 0)  -->
<!DOCTYPE svg PUBLIC "-//W3C//DTD SVG 1.1//EN" "http://www.w3.org/Graphics/SVG/1.1/DTD/svg11.dtd">
<svg version="1.1" id="Layer_1" xmlns="http://www.w3.org/2000/svg" xmlns:xlink="http://www.w3.org/1999/xlink" x="0px" y="0px"
	 viewBox="0 0 321.5 236.4" enable-background="new 0 0 321.5 236.4" xml:space="preserve">
<g>
	<g>
		<line fill="none" stroke="#939598" stroke-width="0.7711" stroke-miterlimit="10" x1="321.5" y1="171.2" x2="21.3" y2="171.2"/>
		<line fill="none" stroke="#939598" stroke-width="1.0281" stroke-miterlimit="10" x1="321.5" y1="187.1" x2="21.3" y2="187.1"/>
		<line fill="none" stroke="#939598" stroke-width="0.7711" stroke-miterlimit="10" x1="321.5" y1="152.9" x2="21.3" y2="152.9"/>
		<line fill="none" stroke="#939598" stroke-width="0.7711" stroke-miterlimit="10" x1="321.5" y1="134.5" x2="21.3" y2="134.5"/>
		<line fill="none" stroke="#939598" stroke-width="0.7711" stroke-miterlimit="10" x1="321.5" y1="116.1" x2="21.3" y2="116.1"/>
		<line fill="none" stroke="#939598" stroke-width="0.7711" stroke-miterlimit="10" x1="321.5" y1="97.7" x2="21.3" y2="97.7"/>
		<g>
			<path fill="#231F20" d="M1.6,98.6V95H0.3v-0.8c0.8,0,1.3-0.5,1.5-1h1v5.4H1.6z"/>
			<path fill="#231F20" d="M4.2,94c0.4-0.5,0.9-0.9,1.8-0.9s1.4,0.4,1.8,0.9c0.4,0.6,0.5,1.2,0.5,1.9s-0.1,1.4-0.5,1.9
				c-0.4,0.5-0.9,0.9-1.8,0.9s-1.4-0.4-1.8-0.9c-0.4-0.6-0.5-1.2-0.5-1.9S3.9,94.5,4.2,94z M5.2,97.3c0.2,0.3,0.4,0.4,0.8,0.4
				c0.4,0,0.6-0.2,0.8-0.4c0.2-0.3,0.3-0.8,0.3-1.4c0-0.6-0.1-1.1-0.3-1.4c-0.2-0.3-0.4-0.4-0.8-0.4c-0.4,0-0.7,0.2-0.8,0.4
				c-0.2,0.3-0.3,0.8-0.3,1.4C4.9,96.5,5,97,5.2,97.3z"/>
		</g>
		<line fill="none" stroke="#939598" stroke-width="0.7711" stroke-miterlimit="10" x1="321.5" y1="79.3" x2="21.3" y2="79.3"/>
		<g>
			<path fill="#231F20" d="M2.2,80.3v-3.6H0.9v-0.8c0.8,0,1.3-0.5,1.5-1h1v5.4H2.2z"/>
			<path fill="#231F20" d="M4.4,77c0-0.1,0-0.2,0-0.4c0-1,0.7-1.8,2-1.8c1.2,0,2,0.8,2,1.8c0,0.7-0.4,1.3-1.1,1.7l-1,0.6
				C6,79,5.9,79.1,5.8,79.3h2.6v1h-4c0-1,0.3-1.7,1.3-2.3l0.9-0.5c0.5-0.3,0.6-0.6,0.6-0.9c0-0.4-0.3-0.7-0.8-0.7
				c-0.6,0-0.9,0.4-0.9,0.9c0,0.1,0,0.2,0,0.3L4.4,77z"/>
		</g>
		<line fill="none" stroke="#939598" stroke-width="0.7711" stroke-miterlimit="10" x1="321.5" y1="60.9" x2="21.3" y2="60.9"/>
		<g>
			<path fill="#231F20" d="M1.9,62v-3.6H0.6v-0.8c0.8,0,1.3-0.5,1.5-1h1V62H1.9z"/>
			<path fill="#231F20" d="M3.9,59.7l2.3-3.1h1.4v3.3h0.9v1H7.6V62H6.5v-1.2H3.9V59.7z M6.5,57.8l-1.5,2.1h1.5V57.8z"/>
		</g>
		<line fill="none" stroke="#939598" stroke-width="0.7711" stroke-miterlimit="10" x1="321.5" y1="42.6" x2="21.3" y2="42.6"/>
		<g>
			<path fill="#231F20" d="M1.9,43.7v-3.6H0.6v-0.8c0.8,0,1.3-0.5,1.5-1h1v5.4H1.9z"/>
			<path fill="#231F20" d="M8,39.4c-0.2-0.1-0.6-0.2-0.9-0.2c-0.9,0-1.7,0.5-1.8,1.6c0.2-0.3,0.7-0.6,1.3-0.6c1.1,0,1.9,0.7,1.9,1.8
				c0,1.1-0.9,1.9-2.1,1.9c-1.2,0-2.2-0.9-2.2-2.5c0-2,1.2-3.2,3-3.2c0.5,0,0.9,0.1,1.1,0.3L8,39.4z M6.3,42.9c0.5,0,1-0.4,1-0.9
				c0-0.6-0.4-0.9-1-0.9c-0.5,0-1,0.3-1,0.9C5.4,42.5,5.8,42.9,6.3,42.9z"/>
		</g>
		<line fill="none" stroke="#939598" stroke-width="0.7711" stroke-miterlimit="10" x1="321.5" y1="24.2" x2="21.3" y2="24.2"/>
		<g>
			<path fill="#231F20" d="M2.1,25.4v-3.6H0.7V21c0.8,0,1.3-0.5,1.5-1h1v5.4H2.1z"/>
			<path fill="#231F20" d="M4.2,24c0-0.6,0.4-1.1,1-1.3c-0.5-0.2-0.9-0.7-0.9-1.2c0-0.9,0.8-1.6,1.9-1.6s1.9,0.6,1.9,1.6
				c0,0.5-0.3,1-0.8,1.2c0.6,0.2,1,0.7,1,1.3c0,0.9-0.8,1.6-2.1,1.6C5,25.6,4.2,24.9,4.2,24z M7.2,23.9c0-0.4-0.3-0.8-0.9-0.8
				c-0.6,0-0.9,0.4-0.9,0.8c0,0.4,0.3,0.8,0.9,0.8C6.9,24.6,7.2,24.2,7.2,23.9z M7.1,21.5c0-0.4-0.3-0.7-0.8-0.7
				c-0.5,0-0.8,0.3-0.8,0.7c0,0.4,0.3,0.7,0.8,0.7C6.8,22.2,7.1,21.9,7.1,21.5z"/>
		</g>
		<g>
			<path fill="#231F20" d="M4.2,115.5c0-0.6,0.4-1.1,1-1.3c-0.5-0.2-0.9-0.7-0.9-1.2c0-0.9,0.8-1.6,1.9-1.6s1.9,0.6,1.9,1.6
				c0,0.5-0.3,1-0.8,1.2c0.6,0.2,1,0.7,1,1.3c0,0.9-0.8,1.6-2.1,1.6C5,117.1,4.2,116.4,4.2,115.5z M7.2,115.3c0-0.4-0.3-0.8-0.9-0.8
				c-0.6,0-0.9,0.4-0.9,0.8c0,0.4,0.3,0.8,0.9,0.8C6.9,116.1,7.2,115.7,7.2,115.3z M7.1,113c0-0.4-0.3-0.7-0.8-0.7
				c-0.5,0-0.8,0.3-0.8,0.7c0,0.4,0.3,0.7,0.8,0.7C6.8,113.7,7.1,113.4,7.1,113z"/>
		</g>
		<g>
			<path fill="#231F20" d="M8,130.9c-0.2-0.1-0.6-0.2-0.9-0.2c-0.9,0-1.7,0.5-1.8,1.6c0.2-0.3,0.7-0.6,1.3-0.6
				c1.1,0,1.9,0.7,1.9,1.8c0,1.1-0.9,1.9-2.1,1.9c-1.2,0-2.2-0.9-2.2-2.5c0-2,1.2-3.2,3-3.2c0.5,0,0.9,0.1,1.1,0.3L8,130.9z
				 M6.3,134.4c0.5,0,1-0.4,1-0.9c0-0.6-0.4-0.9-1-0.9c-0.5,0-1,0.3-1,0.9C5.4,134,5.8,134.4,6.3,134.4z"/>
		</g>
		<g>
			<path fill="#231F20" d="M3.9,151.2l2.3-3.1h1.4v3.3h0.9v1H7.6v1.2H6.5v-1.2H3.9V151.2z M6.5,149.3l-1.5,2.1h1.5V149.3z"/>
		</g>
		<g>
			<path fill="#231F20" d="M4.4,168.5c0-0.1,0-0.2,0-0.4c0-1,0.7-1.8,2-1.8c1.2,0,2,0.8,2,1.8c0,0.7-0.4,1.3-1.1,1.7l-1,0.6
				c-0.2,0.1-0.4,0.3-0.5,0.5h2.6v1h-4c0-1,0.3-1.7,1.3-2.3l0.9-0.5c0.5-0.3,0.6-0.6,0.6-0.9c0-0.4-0.3-0.7-0.8-0.7
				c-0.6,0-0.9,0.4-0.9,0.9c0,0.1,0,0.2,0,0.3L4.4,168.5z"/>
		</g>
		<g>
			<path fill="#939598" d="M4.2,185.5c0.4-0.5,0.9-0.9,1.8-0.9s1.4,0.4,1.8,0.9c0.4,0.6,0.5,1.2,0.5,1.9s-0.1,1.4-0.5,1.9
				c-0.4,0.5-0.9,0.9-1.8,0.9s-1.4-0.4-1.8-0.9c-0.4-0.6-0.5-1.2-0.5-1.9S3.9,186,4.2,185.5z M5.2,188.8c0.2,0.3,0.4,0.4,0.8,0.4
				c0.4,0,0.6-0.2,0.8-0.4c0.2-0.3,0.3-0.8,0.3-1.4c0-0.6-0.1-1.1-0.3-1.4c-0.2-0.3-0.4-0.4-0.8-0.4c-0.4,0-0.7,0.2-0.8,0.4
				c-0.2,0.3-0.3,0.8-0.3,1.4C4.9,188,5,188.5,5.2,188.8z"/>
		</g>
		<g>
			<path fill="#231F20" d="M40.3,202.7v-2.9h-1v-0.5c0.6,0,1-0.4,1.1-0.8H41v4.2H40.3z"/>
			<path fill="#231F20" d="M42.1,202c0.2,0.1,0.5,0.2,0.8,0.2c0.9,0,1.4-0.5,1.4-1.3c-0.2,0.3-0.5,0.5-1,0.5c-0.8,0-1.5-0.5-1.5-1.4
				c0-0.9,0.7-1.5,1.6-1.5c0.9,0,1.7,0.6,1.7,2c0,1.5-0.7,2.4-2.2,2.4c-0.3,0-0.8-0.1-1-0.2L42.1,202z M43.4,199.1
				c-0.4,0-0.8,0.3-0.8,0.8c0,0.5,0.4,0.8,0.8,0.8c0.4,0,0.8-0.3,0.8-0.8C44.2,199.4,43.8,199.1,43.4,199.1z"/>
			<path fill="#231F20" d="M45.6,201.6c0-0.5,0.3-0.9,0.8-1c-0.4-0.2-0.7-0.5-0.7-1c0-0.7,0.6-1.2,1.5-1.2s1.5,0.5,1.5,1.2
				c0,0.4-0.3,0.8-0.7,1c0.4,0.2,0.8,0.6,0.8,1c0,0.7-0.6,1.2-1.6,1.2C46.2,202.8,45.6,202.3,45.6,201.6z M47.9,201.5
				c0-0.3-0.3-0.7-0.8-0.7c-0.5,0-0.8,0.3-0.8,0.7c0,0.3,0.3,0.6,0.8,0.6C47.7,202.2,47.9,201.9,47.9,201.5z M47.8,199.7
				c0-0.3-0.3-0.6-0.7-0.6s-0.7,0.3-0.7,0.6c0,0.4,0.3,0.6,0.7,0.6C47.6,200.3,47.8,200,47.8,199.7z"/>
			<path fill="#231F20" d="M50.2,202.7v-2.9h-1v-0.5c0.6,0,1-0.4,1.1-0.8h0.7v4.2H50.2z"/>
		</g>
		<g>
			<path fill="#231F20" d="M97.2,203.6v-2.9h-1v-0.5c0.6,0,1-0.4,1.1-0.8H98v4.2H97.2z"/>
			<path fill="#231F20" d="M99.1,202.8c0.2,0.1,0.5,0.2,0.8,0.2c0.9,0,1.4-0.5,1.4-1.3c-0.2,0.3-0.5,0.5-1,0.5
				c-0.8,0-1.5-0.5-1.5-1.4c0-0.9,0.7-1.5,1.6-1.5c0.9,0,1.7,0.6,1.7,2c0,1.5-0.7,2.4-2.2,2.4c-0.3,0-0.8-0.1-1-0.2L99.1,202.8z
				 M100.3,199.9c-0.4,0-0.8,0.3-0.8,0.8c0,0.5,0.4,0.8,0.8,0.8c0.4,0,0.8-0.3,0.8-0.8C101.1,200.2,100.7,199.9,100.3,199.9z"/>
			<path fill="#231F20" d="M102.9,202.8c0.2,0.1,0.5,0.2,0.8,0.2c0.9,0,1.4-0.5,1.4-1.3c-0.2,0.3-0.5,0.5-1,0.5
				c-0.8,0-1.5-0.5-1.5-1.4c0-0.9,0.7-1.5,1.6-1.5c0.9,0,1.7,0.6,1.7,2c0,1.5-0.7,2.4-2.2,2.4c-0.3,0-0.8-0.1-1-0.2L102.9,202.8z
				 M104.1,199.9c-0.4,0-0.8,0.3-0.8,0.8c0,0.5,0.4,0.8,0.8,0.8c0.4,0,0.8-0.3,0.8-0.8C104.9,200.2,104.5,199.9,104.1,199.9z"/>
			<path fill="#231F20" d="M106.7,199.9c0.3-0.4,0.7-0.7,1.3-0.7c0.6,0,1.1,0.3,1.3,0.7c0.3,0.4,0.4,1,0.4,1.5
				c0,0.6-0.1,1.1-0.4,1.5c-0.3,0.4-0.7,0.7-1.3,0.7c-0.6,0-1.1-0.3-1.3-0.7c-0.3-0.4-0.4-1-0.4-1.5
				C106.4,200.9,106.4,200.4,106.7,199.9z M107.4,202.7c0.1,0.2,0.3,0.3,0.7,0.3c0.3,0,0.5-0.1,0.7-0.3c0.2-0.3,0.3-0.7,0.3-1.2
				s-0.1-0.9-0.3-1.2c-0.1-0.2-0.3-0.3-0.7-0.3c-0.3,0-0.5,0.1-0.7,0.3c-0.2,0.3-0.3,0.7-0.3,1.2S107.2,202.4,107.4,202.7z"/>
		</g>
		<g>
			<path fill="#231F20" d="M141.3,203.3v-2.9h-1v-0.5c0.6,0,1-0.4,1.1-0.8h0.7v4.2H141.3z"/>
			<path fill="#231F20" d="M143.1,202.6c0.2,0.1,0.5,0.2,0.8,0.2c0.9,0,1.4-0.5,1.4-1.3c-0.2,0.3-0.5,0.5-1,0.5
				c-0.8,0-1.5-0.5-1.5-1.4c0-0.9,0.7-1.5,1.6-1.5c0.9,0,1.7,0.6,1.7,2c0,1.5-0.7,2.4-2.2,2.4c-0.3,0-0.8-0.1-1-0.2L143.1,202.6z
				 M144.4,199.7c-0.4,0-0.8,0.3-0.8,0.8c0,0.5,0.4,0.8,0.8,0.8c0.4,0,0.8-0.3,0.8-0.8C145.2,200,144.8,199.7,144.4,199.7z"/>
			<path fill="#231F20" d="M146.9,202.6c0.2,0.1,0.5,0.2,0.8,0.2c0.9,0,1.4-0.5,1.4-1.3c-0.2,0.3-0.5,0.5-1,0.5
				c-0.8,0-1.5-0.5-1.5-1.4c0-0.9,0.7-1.5,1.6-1.5c0.9,0,1.7,0.6,1.7,2c0,1.5-0.7,2.4-2.2,2.4c-0.3,0-0.8-0.1-1-0.2L146.9,202.6z
				 M148.2,199.7c-0.4,0-0.8,0.3-0.8,0.8c0,0.5,0.4,0.8,0.8,0.8c0.4,0,0.8-0.3,0.8-0.8C149,200,148.6,199.7,148.2,199.7z"/>
			<path fill="#231F20" d="M151.1,202c0,0.5,0.4,0.8,0.9,0.8c0.4,0,0.8-0.3,0.8-0.8c0-0.5-0.4-0.8-0.8-0.8c-0.3,0-0.6,0.1-0.7,0.3
				l-0.7-0.3l0.5-2.1h2.3v0.7h-1.8l-0.3,1.1c0.2-0.2,0.5-0.3,0.8-0.3c0.8,0,1.4,0.5,1.4,1.4c0,0.8-0.6,1.5-1.6,1.5
				c-0.9,0-1.5-0.6-1.6-1.3L151.1,202z"/>
		</g>
		<g>
			<path fill="#231F20" d="M176.8,200.8c0-0.1,0-0.2,0-0.2c0-0.7,0.5-1.4,1.5-1.4c0.9,0,1.5,0.6,1.5,1.3c0,0.5-0.3,1-0.8,1.3
				l-0.8,0.5c-0.2,0.1-0.4,0.3-0.4,0.5h2.1v0.7h-3.1c0-0.7,0.3-1.3,1-1.7l0.7-0.4c0.4-0.2,0.5-0.5,0.5-0.8c0-0.3-0.2-0.7-0.7-0.7
				c-0.5,0-0.7,0.3-0.7,0.8c0,0.1,0,0.1,0,0.2L176.8,200.8z"/>
			<path fill="#231F20" d="M180.7,199.9c0.3-0.4,0.7-0.7,1.3-0.7s1.1,0.3,1.3,0.7c0.3,0.4,0.4,1,0.4,1.5c0,0.6-0.1,1.1-0.4,1.5
				c-0.3,0.4-0.7,0.7-1.3,0.7s-1.1-0.3-1.3-0.7c-0.3-0.4-0.4-1-0.4-1.5C180.4,200.8,180.4,200.3,180.7,199.9z M181.4,202.6
				c0.1,0.2,0.3,0.3,0.7,0.3c0.3,0,0.5-0.1,0.7-0.3c0.2-0.3,0.3-0.7,0.3-1.2s-0.1-0.9-0.3-1.2c-0.1-0.2-0.3-0.3-0.7-0.3
				c-0.3,0-0.5,0.1-0.7,0.3c-0.2,0.3-0.3,0.7-0.3,1.2S181.2,202.3,181.4,202.6z"/>
			<path fill="#231F20" d="M184.7,199.9c0.3-0.4,0.7-0.7,1.3-0.7s1.1,0.3,1.3,0.7c0.3,0.4,0.4,1,0.4,1.5c0,0.6-0.1,1.1-0.4,1.5
				c-0.3,0.4-0.7,0.7-1.3,0.7s-1.1-0.3-1.3-0.7c-0.3-0.4-0.4-1-0.4-1.5C184.4,200.8,184.5,200.3,184.7,199.9z M185.4,202.6
				c0.1,0.2,0.3,0.3,0.7,0.3c0.3,0,0.5-0.1,0.7-0.3c0.2-0.3,0.3-0.7,0.3-1.2s-0.1-0.9-0.3-1.2c-0.1-0.2-0.3-0.3-0.7-0.3
				c-0.3,0-0.5,0.1-0.7,0.3c-0.2,0.3-0.3,0.7-0.3,1.2S185.2,202.3,185.4,202.6z"/>
			<path fill="#231F20" d="M189.3,203.5v-2.9h-1v-0.5c0.6,0,1-0.4,1.1-0.8h0.7v4.2H189.3z"/>
		</g>
		<g>
			<path fill="#231F20" d="M213.2,201.4c0-0.1,0-0.2,0-0.2c0-0.7,0.5-1.4,1.5-1.4c0.9,0,1.5,0.6,1.5,1.3c0,0.5-0.3,1-0.8,1.3
				l-0.8,0.5c-0.2,0.1-0.4,0.3-0.4,0.5h2.1v0.7h-3.1c0-0.7,0.3-1.3,1-1.7l0.7-0.4c0.4-0.2,0.5-0.5,0.5-0.8c0-0.3-0.2-0.7-0.7-0.7
				c-0.5,0-0.7,0.3-0.7,0.8c0,0.1,0,0.1,0,0.2L213.2,201.4z"/>
			<path fill="#231F20" d="M217.1,200.5c0.3-0.4,0.7-0.7,1.3-0.7s1.1,0.3,1.3,0.7c0.3,0.4,0.4,1,0.4,1.5c0,0.6-0.1,1.1-0.4,1.5
				c-0.3,0.4-0.7,0.7-1.3,0.7s-1.1-0.3-1.3-0.7c-0.3-0.4-0.4-1-0.4-1.5C216.7,201.4,216.8,200.9,217.1,200.5z M217.8,203.2
				c0.1,0.2,0.3,0.3,0.7,0.3c0.3,0,0.5-0.1,0.7-0.3c0.2-0.3,0.3-0.7,0.3-1.2s-0.1-0.9-0.3-1.2c-0.1-0.2-0.3-0.3-0.7-0.3
				c-0.3,0-0.5,0.1-0.7,0.3c-0.2,0.3-0.3,0.7-0.3,1.2S217.6,202.9,217.8,203.2z"/>
			<path fill="#231F20" d="M221.1,200.5c0.3-0.4,0.7-0.7,1.3-0.7s1.1,0.3,1.3,0.7c0.3,0.4,0.4,1,0.4,1.5c0,0.6-0.1,1.1-0.4,1.5
				c-0.3,0.4-0.7,0.7-1.3,0.7s-1.1-0.3-1.3-0.7c-0.3-0.4-0.4-1-0.4-1.5C220.7,201.4,220.8,200.9,221.1,200.5z M221.8,203.2
				c0.1,0.2,0.3,0.3,0.7,0.3c0.3,0,0.5-0.1,0.7-0.3c0.2-0.3,0.3-0.7,0.3-1.2s-0.1-0.9-0.3-1.2c-0.1-0.2-0.3-0.3-0.7-0.3
				c-0.3,0-0.5,0.1-0.7,0.3c-0.2,0.3-0.3,0.7-0.3,1.2S221.6,202.9,221.8,203.2z"/>
			<path fill="#231F20" d="M225.4,202.7c0,0.5,0.4,0.8,0.9,0.8c0.4,0,0.8-0.3,0.8-0.8c0-0.5-0.4-0.8-0.8-0.8c-0.3,0-0.6,0.1-0.7,0.3
				l-0.7-0.3l0.5-2.1h2.3v0.7h-1.8l-0.3,1.1c0.2-0.2,0.5-0.3,0.8-0.3c0.8,0,1.4,0.5,1.4,1.4c0,0.8-0.6,1.5-1.6,1.5
				c-0.9,0-1.5-0.6-1.6-1.3L225.4,202.7z"/>
		</g>
		<g>
			<path fill="#231F20" d="M250.5,200.9c0-0.1,0-0.2,0-0.2c0-0.7,0.5-1.4,1.5-1.4c0.9,0,1.5,0.6,1.5,1.3c0,0.5-0.3,1-0.8,1.3
				l-0.8,0.5c-0.2,0.1-0.4,0.3-0.4,0.5h2.1v0.7h-3.1c0-0.7,0.3-1.3,1-1.7l0.7-0.4c0.4-0.2,0.5-0.5,0.5-0.8c0-0.3-0.2-0.7-0.7-0.7
				c-0.5,0-0.7,0.3-0.7,0.8c0,0.1,0,0.1,0,0.2L250.5,200.9z"/>
			<path fill="#231F20" d="M254.4,199.9c0.3-0.4,0.7-0.7,1.3-0.7s1.1,0.3,1.3,0.7c0.3,0.4,0.4,1,0.4,1.5c0,0.6-0.1,1.1-0.4,1.5
				c-0.3,0.4-0.7,0.7-1.3,0.7s-1.1-0.3-1.3-0.7c-0.3-0.4-0.4-1-0.4-1.5C254,200.9,254.1,200.3,254.4,199.9z M255.1,202.6
				c0.1,0.2,0.3,0.3,0.7,0.3c0.3,0,0.5-0.1,0.7-0.3c0.2-0.3,0.3-0.7,0.3-1.2s-0.1-0.9-0.3-1.2c-0.1-0.2-0.3-0.3-0.7-0.3
				c-0.3,0-0.5,0.1-0.7,0.3c-0.2,0.3-0.3,0.7-0.3,1.2S254.8,202.4,255.1,202.6z"/>
			<path fill="#231F20" d="M258.9,203.5v-2.9h-1v-0.5c0.6,0,1-0.4,1.1-0.8h0.7v4.2H258.9z"/>
			<path fill="#231F20" d="M260.8,199.9c0.3-0.4,0.7-0.7,1.3-0.7s1.1,0.3,1.3,0.7c0.3,0.4,0.4,1,0.4,1.5c0,0.6-0.1,1.1-0.4,1.5
				c-0.3,0.4-0.7,0.7-1.3,0.7s-1.1-0.3-1.3-0.7c-0.3-0.4-0.4-1-0.4-1.5C260.5,200.9,260.6,200.3,260.8,199.9z M261.5,202.6
				c0.1,0.2,0.3,0.3,0.7,0.3c0.3,0,0.5-0.1,0.7-0.3c0.2-0.3,0.3-0.7,0.3-1.2s-0.1-0.9-0.3-1.2c-0.1-0.2-0.3-0.3-0.7-0.3
				c-0.3,0-0.5,0.1-0.7,0.3c-0.2,0.3-0.3,0.7-0.3,1.2S261.3,202.4,261.5,202.6z"/>
		</g>
		<g>
			<path fill="#231F20" d="M293.9,200.7c0-0.1,0-0.2,0-0.2c0-0.7,0.5-1.4,1.5-1.4c0.9,0,1.5,0.6,1.5,1.3c0,0.5-0.3,1-0.8,1.3
				l-0.8,0.5c-0.2,0.1-0.4,0.3-0.4,0.5h2.1v0.7h-3.1c0-0.7,0.3-1.3,1-1.7l0.7-0.4c0.4-0.2,0.5-0.5,0.5-0.8c0-0.3-0.2-0.7-0.7-0.7
				c-0.5,0-0.7,0.3-0.7,0.8c0,0.1,0,0.1,0,0.2L293.9,200.7z"/>
			<path fill="#231F20" d="M297.8,199.8c0.3-0.4,0.7-0.7,1.3-0.7s1.1,0.3,1.3,0.7c0.3,0.4,0.4,1,0.4,1.5c0,0.6-0.1,1.1-0.4,1.5
				c-0.3,0.4-0.7,0.7-1.3,0.7s-1.1-0.3-1.3-0.7c-0.3-0.4-0.4-1-0.4-1.5C297.4,200.7,297.5,200.2,297.8,199.8z M298.5,202.5
				c0.1,0.2,0.3,0.3,0.7,0.3c0.3,0,0.5-0.1,0.7-0.3c0.2-0.3,0.3-0.7,0.3-1.2s-0.1-0.9-0.3-1.2c-0.1-0.2-0.3-0.3-0.7-0.3
				c-0.3,0-0.5,0.1-0.7,0.3c-0.2,0.3-0.3,0.7-0.3,1.2S298.3,202.3,298.5,202.5z"/>
			<path fill="#231F20" d="M302.3,203.4v-2.9h-1V200c0.6,0,1-0.4,1.1-0.8h0.7v4.2H302.3z"/>
			<path fill="#231F20" d="M306.9,199.9c-0.2-0.1-0.4-0.2-0.7-0.2c-0.8,0-1.4,0.5-1.4,1.3c0.2-0.3,0.6-0.5,1.1-0.5
				c0.8,0,1.4,0.6,1.4,1.4c0,0.9-0.7,1.5-1.6,1.5c-1.1,0-1.7-0.9-1.7-2c0-1.5,1-2.5,2.3-2.5c0.4,0,0.7,0.1,0.9,0.2L306.9,199.9z
				 M305.6,202.9c0.4,0,0.8-0.3,0.8-0.8c0-0.5-0.4-0.8-0.8-0.8s-0.8,0.3-0.8,0.8C304.8,202.5,305.2,202.9,305.6,202.9z"/>
		</g>
		<line fill="none" stroke="#939598" stroke-width="0.7711" stroke-miterlimit="10" x1="44.7" y1="184.5" x2="44.7" y2="192.1"/>
		<line fill="none" stroke="#939598" stroke-width="0.7711" stroke-miterlimit="10" x1="52" y1="187.7" x2="52" y2="192.1"/>
		<line fill="none" stroke="#939598" stroke-width="0.7711" stroke-miterlimit="10" x1="59.3" y1="187.7" x2="59.3" y2="192.1"/>
		<line fill="none" stroke="#939598" stroke-width="0.7711" stroke-miterlimit="10" x1="66.7" y1="187.7" x2="66.7" y2="192.1"/>
		<line fill="none" stroke="#939598" stroke-width="0.7711" stroke-miterlimit="10" x1="74" y1="187.7" x2="74" y2="192.1"/>
		<line fill="none" stroke="#939598" stroke-width="0.7711" stroke-miterlimit="10" x1="81.3" y1="187.7" x2="81.3" y2="192.1"/>
		<line fill="none" stroke="#939598" stroke-width="0.7711" stroke-miterlimit="10" x1="88.6" y1="187.7" x2="88.6" y2="192.1"/>
		<line fill="none" stroke="#939598" stroke-width="0.7711" stroke-miterlimit="10" x1="95.9" y1="187.7" x2="95.9" y2="192.1"/>
		<line fill="none" stroke="#939598" stroke-width="0.7711" stroke-miterlimit="10" x1="103.3" y1="184.6" x2="103.3" y2="192.1"/>
		<line fill="none" stroke="#939598" stroke-width="0.7711" stroke-miterlimit="10" x1="110.6" y1="187.7" x2="110.6" y2="192.1"/>
		<line fill="none" stroke="#939598" stroke-width="0.7711" stroke-miterlimit="10" x1="117.9" y1="187.7" x2="117.9" y2="192.1"/>
		<line fill="none" stroke="#939598" stroke-width="0.7711" stroke-miterlimit="10" x1="125.2" y1="187.7" x2="125.2" y2="192.1"/>
		<line fill="none" stroke="#939598" stroke-width="0.7711" stroke-miterlimit="10" x1="132.5" y1="187.7" x2="132.5" y2="192.1"/>
		<line fill="none" stroke="#939598" stroke-width="0.7711" stroke-miterlimit="10" x1="139.9" y1="187.7" x2="139.9" y2="192.1"/>
		<line fill="none" stroke="#939598" stroke-width="0.7711" stroke-miterlimit="10" x1="147.2" y1="184.3" x2="147.2" y2="192.1"/>
		<line fill="none" stroke="#939598" stroke-width="0.7711" stroke-miterlimit="10" x1="154.5" y1="187.7" x2="154.5" y2="192.1"/>
		<line fill="none" stroke="#939598" stroke-width="0.7711" stroke-miterlimit="10" x1="161.8" y1="187.7" x2="161.8" y2="192.1"/>
		<line fill="none" stroke="#939598" stroke-width="0.7711" stroke-miterlimit="10" x1="169.1" y1="187.7" x2="169.1" y2="192.1"/>
		<line fill="none" stroke="#939598" stroke-width="0.7711" stroke-miterlimit="10" x1="176.5" y1="187.7" x2="176.5" y2="192.1"/>
		<line fill="none" stroke="#939598" stroke-width="0.7711" stroke-miterlimit="10" x1="183.8" y1="183.7" x2="183.8" y2="192.1"/>
		<line fill="none" stroke="#939598" stroke-width="0.7711" stroke-miterlimit="10" x1="191.1" y1="187.7" x2="191.1" y2="192.1"/>
		<line fill="none" stroke="#939598" stroke-width="0.7711" stroke-miterlimit="10" x1="198.4" y1="187.7" x2="198.4" y2="192.1"/>
		<line fill="none" stroke="#939598" stroke-width="0.7711" stroke-miterlimit="10" x1="205.7" y1="187.7" x2="205.7" y2="192.1"/>
		<line fill="none" stroke="#939598" stroke-width="0.7711" stroke-miterlimit="10" x1="213.1" y1="187.7" x2="213.1" y2="192.1"/>
		<line fill="none" stroke="#939598" stroke-width="0.7711" stroke-miterlimit="10" x1="220.4" y1="184.2" x2="220.4" y2="192.1"/>
		<line fill="none" stroke="#939598" stroke-width="0.7711" stroke-miterlimit="10" x1="227.7" y1="187.7" x2="227.7" y2="192.1"/>
		<line fill="none" stroke="#939598" stroke-width="0.7711" stroke-miterlimit="10" x1="235" y1="187.7" x2="235" y2="192.1"/>
		<line fill="none" stroke="#939598" stroke-width="0.7711" stroke-miterlimit="10" x1="242.3" y1="187.7" x2="242.3" y2="192.1"/>
		<line fill="none" stroke="#939598" stroke-width="0.7711" stroke-miterlimit="10" x1="249.7" y1="187.7" x2="249.7" y2="192.1"/>
		<line fill="none" stroke="#939598" stroke-width="0.7711" stroke-miterlimit="10" x1="257" y1="185.7" x2="257" y2="192.1"/>
		<line fill="none" stroke="#939598" stroke-width="0.7711" stroke-miterlimit="10" x1="264.3" y1="187.7" x2="264.3" y2="192.1"/>
		<line fill="none" stroke="#939598" stroke-width="0.7711" stroke-miterlimit="10" x1="271.6" y1="187.7" x2="271.6" y2="192.1"/>
		<line fill="none" stroke="#939598" stroke-width="0.7711" stroke-miterlimit="10" x1="278.9" y1="187.7" x2="278.9" y2="192.1"/>
		<line fill="none" stroke="#939598" stroke-width="0.7711" stroke-miterlimit="10" x1="286.3" y1="187.7" x2="286.3" y2="192.1"/>
		<line fill="none" stroke="#939598" stroke-width="0.7711" stroke-miterlimit="10" x1="293.6" y1="187.7" x2="293.6" y2="192.1"/>
		<line fill="none" stroke="#939598" stroke-width="0.7711" stroke-miterlimit="10" x1="300.9" y1="185.7" x2="300.9" y2="192.1"/>
		
			<polyline fill="none" stroke="#0C56AB" stroke-width="3.0843" stroke-linecap="round" stroke-linejoin="round" stroke-miterlimit="10" points="
			45.2,43.7 48,59 54.3,53.9 53.4,95.3 64.3,78.8 65.2,61.8 80.6,125.4 86,112.3 87.8,96.4 91.5,111.2 101.4,102.1 104.1,116.9 
			114.1,106.1 117.7,122 122.3,111.8 133.1,142.4 133.1,120.8 137.7,123.7 141.3,115.2 147.6,135.6 157.6,125.4 160.3,133.9 
			164.8,131 168.5,148.6 181.2,129.3 187.5,147.5 193.8,137.9 198.4,158.3 206.5,149.8 212,156 216.5,145.2 221.9,150.3 
			230.1,140.7 234.6,157.2 245.5,150.3 245.5,171.3 252.7,153.7 254.6,165.7 259.1,154.9 264.5,176.4 273.6,171.3 278.1,160.6 
			287.2,171.9 291.7,164.5 295.3,177.6 299.9,164.5 306.2,169.6 		"/>
		<line fill="none" stroke="#939598" stroke-width="0.7711" stroke-miterlimit="10" x1="307" y1="187.7" x2="307" y2="192.1"/>
	</g>
	<g>
		<rect x="85.3" y="211.8" fill="none" width="166.9" height="18.4"/>
		<path fill="#BCBEC0" d="M87.3,213.7h-1.7v-0.3h1.7V213.7z M87.7,216.8c-0.5,0.3-1.2,0.6-1.8,0.7c-0.1-0.1-0.2-0.2-0.3-0.3
			c0.6-0.1,1.3-0.3,1.8-0.6L87.7,216.8z M87.1,212.7h-1.4v-0.3h1.4V212.7z M90.2,216.6h-3.9v-2.4h3.9V216.6z M89.8,214.4h-3.1v0.4
			h3.1V214.4z M89.8,215.1h-3.1v0.4h3.1V215.1z M89.8,215.8h-3.1v0.5h3.1V215.8z M89.3,212.9c0,0.1,0,0.1,0,0.2
			c0.3,0.4,1,0.6,1.8,0.7c-0.1,0.1-0.2,0.2-0.2,0.3c-0.7-0.1-1.3-0.3-1.6-0.7c-0.2,0.3-0.7,0.6-1.7,0.8c0-0.1-0.1-0.2-0.2-0.3
			c1.6-0.2,1.7-0.7,1.7-1v-0.1h-0.7c-0.1,0.2-0.3,0.4-0.5,0.6c-0.1-0.1-0.2-0.2-0.3-0.2c0.3-0.3,0.6-0.7,0.7-1.2l0.4,0.1
			c0,0.1-0.1,0.2-0.1,0.3h2.1l0.1,0l0.3,0.1c-0.1,0.3-0.3,0.6-0.5,0.9l-0.3-0.1c0.1-0.1,0.2-0.3,0.3-0.5L89.3,212.9L89.3,212.9z
			 M89.1,216.6c0.6,0.2,1.3,0.4,1.8,0.6l-0.4,0.2c-0.4-0.2-1-0.4-1.7-0.7L89.1,216.6z"/>
		<path fill="#BCBEC0" d="M92.4,214.9c-0.1,0.7-0.4,1.5-0.7,1.9c0-0.1-0.1-0.3-0.2-0.4c0.2-0.3,0.5-1,0.6-1.6L92.4,214.9z
			 M92.9,214.4v3.1h-0.4v-3.1h-1v-0.4h1v-2h0.4v2h1v0.4H92.9z M92,213.8c0-0.4-0.2-0.9-0.3-1.3l0.3-0.1c0.2,0.4,0.3,0.9,0.4,1.3
			L92,213.8z M93.2,214.8c0.1,0.2,0.5,1,0.6,1.2l-0.3,0.3c-0.1-0.3-0.4-1.1-0.6-1.3L93.2,214.8z M93.9,212.5c-0.1,0.4-0.3,1-0.5,1.3
			l-0.3-0.1c0.1-0.3,0.3-0.9,0.4-1.3L93.9,212.5z M96.3,215.8v1.7h-0.4v-1.6l-1.9,0.3l-0.1-0.4l2-0.4v-3.4h0.4v3.4l0.7-0.1l0.1,0.4
			L96.3,215.8z M95.1,215c-0.2-0.2-0.6-0.5-1-0.7l0.2-0.3c0.4,0.2,0.8,0.5,1,0.7L95.1,215z M95.3,213.5c-0.2-0.2-0.6-0.6-0.9-0.8
			l0.2-0.3c0.4,0.2,0.8,0.5,0.9,0.7L95.3,213.5z"/>
		<path fill="#BCBEC0" d="M100.5,214.7c0.5,0.9,1.6,1.8,2.6,2.2c-0.1,0.1-0.2,0.2-0.3,0.4c-0.9-0.4-1.7-1.1-2.3-1.9v2.1H100v-2.1
			c-0.6,0.8-1.4,1.5-2.2,1.8c-0.1-0.1-0.2-0.3-0.3-0.3c1-0.4,2-1.2,2.5-2.1v-1.5h-2.3v-0.4h2.3v-0.8h0.4v0.8h2.4v0.4h-2.4V214.7z
			 M99.2,213.5c-0.1,0.3-0.1,0.5-0.2,0.7c0.3,0.2,0.6,0.5,0.7,0.7l-0.3,0.3c-0.1-0.2-0.4-0.4-0.6-0.6c-0.2,0.4-0.5,0.7-0.8,1
			c-0.1-0.1-0.2-0.2-0.3-0.3c0.6-0.4,0.9-1.1,1.1-1.8L99.2,213.5z M102,213.5c-0.1,0.3-0.1,0.5-0.2,0.7c0.4,0.3,0.9,0.7,1.1,1
			l-0.3,0.3c-0.2-0.2-0.6-0.6-1-0.9c-0.2,0.3-0.4,0.6-0.6,0.8c-0.1-0.1-0.2-0.2-0.3-0.3c0.4-0.4,0.7-1,0.9-1.7L102,213.5z"/>
		<path fill="#BCBEC0" d="M104.6,214.7c-0.2-0.2-0.7-0.5-1-0.6l0.2-0.3c0.3,0.2,0.8,0.4,1,0.6L104.6,214.7z M104.9,215.5
			c-0.3,0.6-0.6,1.4-0.9,1.9l-0.3-0.2c0.3-0.5,0.6-1.3,0.9-1.9L104.9,215.5z M104.8,213.1c-0.2-0.2-0.7-0.5-1-0.7l0.2-0.3
			c0.3,0.2,0.8,0.5,1,0.6L104.8,213.1z M105.7,214c0,1-0.1,2.5-0.8,3.5c-0.1-0.1-0.2-0.2-0.3-0.2c0.7-1,0.7-2.3,0.7-3.3v-1.6h3.6
			v0.4h-3.3V214z M106.7,215.9c-0.2,0.4-0.5,0.9-0.8,1.2c-0.1-0.1-0.2-0.2-0.3-0.2c0.3-0.3,0.6-0.7,0.7-1.1L106.7,215.9z
			 M107.6,215.5v1.6c0,0.2,0,0.3-0.2,0.4c-0.2,0.1-0.4,0.1-0.8,0.1c0-0.1-0.1-0.2-0.1-0.3c0.3,0,0.6,0,0.6,0c0.1,0,0.1,0,0.1-0.1
			v-1.6h-1.1v-2h0.9c0.1-0.2,0.1-0.4,0.2-0.6l0.4,0.1c-0.1,0.2-0.2,0.4-0.2,0.5h1.3v2H107.6z M106.4,214.3h1.9v-0.6h-1.9V214.3z
			 M106.4,215.2h1.9v-0.6h-1.9V215.2z M108.3,215.8c0.2,0.4,0.6,0.9,0.7,1.1l-0.4,0.2c-0.1-0.3-0.4-0.8-0.7-1.2L108.3,215.8z"/>
		<path fill="#BCBEC0" d="M110.3,213.3c0-0.3,0.2-0.4,0.4-0.4c0.2,0,0.4,0.2,0.4,0.4c0,0.3-0.2,0.4-0.4,0.4
			C110.5,213.8,110.3,213.6,110.3,213.3z M110.3,216.3c0-0.3,0.2-0.4,0.4-0.4c0.2,0,0.4,0.2,0.4,0.4s-0.2,0.4-0.4,0.4
			C110.5,216.7,110.3,216.6,110.3,216.3z"/>
		<path fill="#BCBEC0" d="M114.2,213.5c-0.1,0.3-0.3,0.6-0.5,0.8v3.2h-0.4v-2.7c-0.2,0.3-0.4,0.5-0.6,0.7c0-0.1-0.2-0.3-0.2-0.4
			c0.5-0.5,1.1-1.2,1.4-1.8L114.2,213.5z M114.1,212.2c-0.4,0.5-0.9,1.1-1.4,1.5c0-0.1-0.1-0.2-0.2-0.3c0.4-0.3,1-0.9,1.3-1.3
			L114.1,212.2z M114,217.1c0.2-0.3,0.4-0.8,0.5-1.1l0.3,0.1c-0.1,0.4-0.3,0.9-0.6,1.2L114,217.1z M118,215.2v0.3h-3.8v-0.3H118z
			 M115.7,213.3c0-0.1,0.1-0.3,0.1-0.5h-1.6v-0.3h1.6c0-0.2,0-0.4,0.1-0.5l0.4,0c0,0.2,0,0.3-0.1,0.5h1.7v0.3h-1.8
			c0,0.2-0.1,0.3-0.1,0.5h1.6v1.5h-3.3v-1.5H115.7z M115.5,213.7h-0.6v0.9h0.6V213.7z M116.6,217.1c0.2,0,0.2-0.1,0.3-0.6
			c0.1,0.1,0.2,0.1,0.3,0.1c0,0.6-0.1,0.8-0.5,0.8h-0.9c-0.5,0-0.6-0.1-0.6-0.5V216h0.4v0.9c0,0.1,0,0.2,0.3,0.2H116.6z
			 M116.1,216.5c-0.1-0.2-0.3-0.5-0.4-0.8l0.3-0.1c0.2,0.2,0.4,0.6,0.5,0.7L116.1,216.5z M116.4,213.7h-0.7v0.9h0.7V213.7z
			 M116.7,214.5h0.7v-0.9h-0.7V214.5z M117.4,215.9c0.2,0.4,0.5,0.8,0.6,1.1l-0.3,0.1c-0.1-0.3-0.4-0.8-0.6-1.2L117.4,215.9z"/>
		<path fill="#BCBEC0" d="M118.7,217.2c0.3-0.3,0.6-0.7,0.7-1l0.3,0.1c-0.2,0.4-0.4,0.8-0.7,1.1L118.7,217.2z M123.9,213.5v0.3h-5.1
			v-0.3h1.4c0-0.2-0.1-0.4-0.2-0.5l0.3-0.1H119v-0.3h2.2c-0.1-0.1-0.2-0.3-0.2-0.4l0.4-0.1c0.1,0.2,0.2,0.4,0.3,0.5h1.9v0.3h-1.2
			l0.3,0.1c-0.1,0.2-0.2,0.4-0.3,0.6H123.9z M123.2,215.8H121c0.3,0.2,0.7,0.4,0.9,0.6l-0.3,0.2c-0.2-0.2-0.6-0.5-0.9-0.7l0.2-0.2
			h-1.5v-1.7h3.7V215.8z M122.8,214.4h-3v0.4h3V214.4z M122.8,215.1h-3v0.4h3V215.1z M121.9,217.1c0.3,0,0.3-0.1,0.3-0.6
			c0.1,0.1,0.2,0.1,0.4,0.1c0,0.7-0.2,0.8-0.6,0.8h-1.2c-0.6,0-0.7-0.1-0.7-0.5v-0.8h0.4v0.8c0,0.1,0.1,0.2,0.4,0.2H121.9z
			 M120.3,212.8c0.1,0.2,0.2,0.4,0.3,0.6l0,0h1.5c0.1-0.2,0.2-0.5,0.3-0.6H120.3z M123,216.1c0.3,0.3,0.6,0.7,0.8,1l-0.3,0.2
			c-0.1-0.3-0.5-0.7-0.8-1.1L123,216.1z"/>
		<path fill="#BCBEC0" d="M124.6,217c0.3-0.4,0.5-1,0.6-1.5l0.4,0.1c-0.1,0.5-0.3,1.1-0.6,1.5L124.6,217z M129.9,212.9v0.4h-2.5v1.1
			h2.1v0.4H125v-0.4h2v-1.1h-2.4v-0.4h2.4v-0.9h0.4v0.9H129.9z M128.1,217.1c0.3,0,0.4-0.1,0.4-0.7c0.1,0.1,0.3,0.1,0.4,0.1
			c-0.1,0.8-0.2,1-0.8,1h-1.4c-0.7,0-0.8-0.1-0.8-0.6v-1.3h0.4v1.3c0,0.2,0.1,0.2,0.5,0.2H128.1z M127.9,216.2
			c-0.3-0.3-0.8-0.7-1.3-1l0.3-0.2c0.5,0.3,1.1,0.7,1.3,1L127.9,216.2z M129.1,215.5c0.3,0.5,0.7,1.2,0.8,1.6l-0.4,0.2
			c-0.1-0.4-0.5-1.1-0.8-1.6L129.1,215.5z"/>
		<path fill="#BCBEC0" d="M132.8,216.5l0,0.3c-0.8,0.2-1.6,0.4-2.2,0.5l-0.1-0.4c0.3-0.1,0.6-0.1,1-0.2V215h-0.9v-0.4h0.9v-0.7H131
			v-0.3c-0.1,0.1-0.2,0.2-0.3,0.2c0-0.1-0.1-0.3-0.2-0.4c0.5-0.3,1-0.9,1.3-1.4l0.3,0.1c0,0.1-0.1,0.1-0.1,0.2
			c0.4,0.3,0.7,0.6,1,0.8l-0.2,0.3c-0.2-0.2-0.6-0.6-0.9-0.8c-0.2,0.3-0.5,0.6-0.8,0.9h1.6v0.4h-0.6v0.7h0.8v0.4h-0.8v1.7
			L132.8,216.5z M131.1,215.3c0.1,0.4,0.2,0.8,0.3,1.1l-0.3,0.1c0-0.3-0.1-0.8-0.3-1.1L131.1,215.3z M132.1,216.3
			c0.1-0.3,0.2-0.8,0.3-1.1l0.3,0.1c-0.1,0.4-0.3,0.8-0.4,1.1L132.1,216.3z M136,215.4c-0.3,0.2-0.7,0.5-1,0.7
			c0.3,0.4,0.6,0.8,1.1,1c-0.1,0.1-0.2,0.2-0.3,0.3c-0.8-0.5-1.4-1.4-1.7-2.5h-0.5v2l1-0.3c0,0.1,0,0.3,0,0.4
			c-1.3,0.4-1.4,0.5-1.6,0.5c0-0.1-0.1-0.3-0.1-0.3c0.1,0,0.2-0.1,0.2-0.4v-4.5h2.5v2.6h-1.2c0.1,0.3,0.2,0.6,0.4,0.9
			c0.3-0.2,0.7-0.5,0.9-0.7L136,215.4z M133.6,212.7v0.8h1.7v-0.8H133.6z M133.6,214.6h1.7v-0.8h-1.7V214.6z"/>
		<path fill="#BCBEC0" d="M138.5,213.5c-0.2,0.3-0.4,0.6-0.7,0.9v3.2h-0.4v-2.7c-0.2,0.3-0.5,0.5-0.7,0.7c-0.1-0.1-0.2-0.2-0.3-0.3
			c0.6-0.4,1.3-1.1,1.7-1.8L138.5,213.5z M138.3,212.2c-0.4,0.5-1,1.1-1.5,1.5c-0.1-0.1-0.2-0.2-0.2-0.3c0.5-0.3,1.1-0.9,1.4-1.3
			L138.3,212.2z M142,214.5h-0.9v2.5c0,0.3-0.1,0.4-0.3,0.4c-0.2,0.1-0.5,0.1-1.1,0.1c0-0.1-0.1-0.3-0.1-0.4c0.4,0,0.8,0,1,0
			c0.1,0,0.2,0,0.2-0.1v-2.5h-2v-0.4h3.4V214.5z M141.8,212.8h-2.9v-0.4h2.9V212.8z"/>
		<path fill="#BCBEC0" d="M143.8,213.9c0.5,0,0.9,0.4,0.9,0.9c0,0.5-0.4,0.9-0.9,0.9c-0.5,0-0.9-0.4-0.9-0.9
			C142.9,214.3,143.3,213.9,143.8,213.9z M143.8,215.4c0.3,0,0.6-0.3,0.6-0.6c0-0.3-0.3-0.6-0.6-0.6c-0.3,0-0.6,0.3-0.6,0.6
			C143.2,215.1,143.5,215.4,143.8,215.4z"/>
		<path fill="#BCBEC0" d="M147.3,213.7h-1.7v-0.3h1.7V213.7z M147.7,216.8c-0.5,0.3-1.2,0.6-1.8,0.7c-0.1-0.1-0.2-0.2-0.3-0.3
			c0.6-0.1,1.3-0.3,1.8-0.6L147.7,216.8z M147.1,212.7h-1.4v-0.3h1.4V212.7z M150.2,216.6h-3.9v-2.4h3.9V216.6z M149.8,214.4h-3.1
			v0.4h3.1V214.4z M149.8,215.1h-3.1v0.4h3.1V215.1z M149.8,215.8h-3.1v0.5h3.1V215.8z M149.3,212.9c0,0.1,0,0.1,0,0.2
			c0.3,0.4,1,0.6,1.8,0.7c-0.1,0.1-0.2,0.2-0.2,0.3c-0.7-0.1-1.3-0.3-1.6-0.7c-0.2,0.3-0.7,0.6-1.7,0.8c0-0.1-0.1-0.2-0.2-0.3
			c1.6-0.2,1.7-0.7,1.7-1v-0.1h-0.7c-0.1,0.2-0.3,0.4-0.5,0.6c-0.1-0.1-0.2-0.2-0.3-0.2c0.3-0.3,0.6-0.7,0.7-1.2l0.4,0.1
			c0,0.1-0.1,0.2-0.1,0.3h2.1l0.1,0l0.3,0.1c-0.2,0.3-0.3,0.6-0.5,0.9l-0.3-0.1c0.1-0.1,0.2-0.3,0.3-0.5L149.3,212.9L149.3,212.9z
			 M149.1,216.6c0.6,0.2,1.3,0.4,1.8,0.6l-0.4,0.2c-0.4-0.2-1-0.4-1.7-0.7L149.1,216.6z"/>
		<path fill="#BCBEC0" d="M152.4,214.9c-0.1,0.7-0.4,1.5-0.7,1.9c0-0.1-0.1-0.3-0.2-0.4c0.2-0.3,0.5-1,0.6-1.6L152.4,214.9z
			 M152.9,214.4v3.1h-0.4v-3.1h-1v-0.4h1v-2h0.4v2h1v0.4H152.9z M152,213.8c0-0.4-0.2-0.9-0.3-1.3l0.3-0.1c0.2,0.4,0.3,0.9,0.4,1.3
			L152,213.8z M153.2,214.8c0.1,0.2,0.5,1,0.6,1.2l-0.3,0.3c-0.1-0.3-0.4-1.1-0.6-1.3L153.2,214.8z M153.9,212.5
			c-0.1,0.4-0.3,1-0.5,1.3l-0.3-0.1c0.1-0.3,0.3-0.9,0.4-1.3L153.9,212.5z M156.3,215.8v1.7h-0.4v-1.6l-1.9,0.3l-0.1-0.4l2-0.4v-3.4
			h0.4v3.4l0.7-0.1l0.1,0.4L156.3,215.8z M155.1,215c-0.2-0.2-0.6-0.5-1-0.7l0.2-0.3c0.4,0.2,0.8,0.5,1,0.7L155.1,215z M155.3,213.5
			c-0.2-0.2-0.6-0.6-0.9-0.8l0.2-0.3c0.4,0.2,0.8,0.5,0.9,0.7L155.3,213.5z"/>
		<path fill="#BCBEC0" d="M162.3,214.1c-0.3,1-0.7,1.7-1.3,2.3c0.5,0.4,1.2,0.7,1.9,0.8c-0.1,0.1-0.2,0.3-0.3,0.4
			c-0.8-0.2-1.4-0.5-2-0.9c-0.6,0.4-1.2,0.7-1.9,0.9c0-0.1-0.1-0.3-0.2-0.4c0.6-0.2,1.3-0.4,1.8-0.8c-0.5-0.5-0.9-1.2-1.2-2h-0.4
			c0,1-0.2,2.3-0.8,3.2c-0.1-0.1-0.2-0.2-0.3-0.2c0.7-0.9,0.7-2.2,0.7-3.2v-1.6h4.3v0.4h-3.9v1.1h3.3l0.1,0L162.3,214.1z
			 M159.6,214.3c0.2,0.7,0.6,1.3,1.1,1.7c0.5-0.4,0.9-1,1.1-1.7H159.6z"/>
		<path fill="#BCBEC0" d="M165.3,216.4h-1.2v0.5h-0.4v-4.4h1.5V216.4z M164.1,212.9v1.4h0.8v-1.4H164.1z M164.9,216v-1.4h-0.8v1.4
			H164.9z M167.4,215.3c-0.1,0.9-0.5,1.7-1.6,2.3c-0.1-0.1-0.2-0.2-0.3-0.3c1-0.5,1.3-1.2,1.5-2h-1.5v-0.4h0.4v-1.8h1.2v-1h0.4v1
			h1.2v1.8h0.3v0.4H167.4z M167.1,214.9c0-0.2,0-0.5,0-0.7v-0.7h-0.8v1.4H167.1z M167.7,215.6c0.4,0.5,1,1.2,1.3,1.7l-0.3,0.3
			c-0.2-0.4-0.8-1.2-1.2-1.7L167.7,215.6z M167.5,213.4v0.7c0,0.2,0,0.5,0,0.7h0.8v-1.4H167.5z"/>
		<path fill="#BCBEC0" d="M169.8,216.7h1v-3.4H170V213c0.4-0.1,0.7-0.2,0.9-0.3h0.4v4h0.9v0.4h-2.4V216.7z"/>
		<path fill="#BCBEC0" d="M173.2,216.4c0.2,0.2,0.5,0.3,0.7,0.3c0.6,0,1.1-0.5,1.1-1.9c-0.3,0.3-0.6,0.6-1,0.6
			c-0.7,0-1.2-0.5-1.2-1.4c0-0.8,0.6-1.4,1.2-1.4c0.8,0,1.5,0.7,1.5,2.1c0,1.8-0.8,2.5-1.6,2.5c-0.5,0-0.8-0.2-1-0.4L173.2,216.4z
			 M175.1,214.4c0-0.9-0.4-1.4-1-1.4c-0.4,0-0.8,0.4-0.8,1c0,0.6,0.3,1,0.8,1C174.4,215,174.8,214.9,175.1,214.4z"/>
		<path fill="#BCBEC0" d="M176.1,216c0-0.6,0.4-1,0.8-1.2v0c-0.3-0.2-0.6-0.5-0.6-1c0-0.7,0.5-1.1,1.2-1.1c0.7,0,1.2,0.5,1.2,1.2
			c0,0.5-0.3,0.9-0.6,1.1v0c0.4,0.2,0.7,0.6,0.7,1.2c0,0.6-0.5,1.1-1.4,1.1C176.7,217.1,176.1,216.7,176.1,216z M178.4,216
			c0-0.6-0.6-0.8-1.2-1.1c-0.4,0.2-0.6,0.6-0.6,1c0,0.5,0.4,0.8,1,0.8C178.1,216.8,178.4,216.4,178.4,216z M178.3,213.8
			c0-0.4-0.3-0.8-0.8-0.8c-0.4,0-0.7,0.3-0.7,0.7c0,0.5,0.5,0.8,1,1C178.1,214.4,178.3,214.1,178.3,213.8z"/>
		<path fill="#BCBEC0" d="M179.7,216.7h1v-3.4h-0.8V213c0.4-0.1,0.7-0.2,0.9-0.3h0.4v4h0.9v0.4h-2.4V216.7z"/>
		<path fill="#BCBEC0" d="M188.2,216.1H186v1.4h-0.4v-1.4h-2.8v-0.4h1v-1.6h1.8v-1h-1.5c-0.3,0.5-0.6,0.9-0.9,1.2
			c-0.1-0.1-0.2-0.2-0.3-0.3c0.6-0.5,1.1-1.3,1.4-2.1l0.4,0.1c-0.1,0.2-0.2,0.4-0.3,0.7h3.6v0.4H186v1h1.8v0.4H186v1.2h2.2V216.1z
			 M185.5,215.7v-1.2h-1.4v1.2H185.5z"/>
		<path fill="#BCBEC0" d="M194.1,216.9v0.4h-5.3v-0.4h2.4v-1.2h-1.9v-0.4h1.9v-0.8h0.4v0.8h2v0.4h-2v1.2H194.1z M193.5,214.7
			c-0.1-0.1-0.2-0.3-0.4-0.4c-3.3,0.2-3.6,0.2-3.8,0.2c0-0.1-0.1-0.3-0.1-0.4c0.1,0,0.3-0.1,0.4-0.3c0.1-0.1,0.6-0.6,0.9-1.1h-1.6
			v-0.4h5v0.4h-2.8c-0.4,0.5-0.8,0.9-1.2,1.3l2.9-0.1c-0.3-0.2-0.5-0.5-0.8-0.7l0.3-0.2c0.5,0.4,1.2,1,1.5,1.4L193.5,214.7z"/>
		<path fill="#BCBEC0" d="M194.7,216.8c1.4-1.2,2-2.1,2-2.9c0-0.5-0.3-0.9-0.8-0.9c-0.4,0-0.7,0.2-0.9,0.5l-0.3-0.3
			c0.4-0.4,0.7-0.6,1.3-0.6c0.8,0,1.3,0.5,1.3,1.3c0,0.9-0.7,1.8-1.8,2.8c0.2,0,0.5,0,0.7,0h1.3v0.4h-2.7V216.8z"/>
		<path fill="#BCBEC0" d="M198,214.9c0-1.5,0.5-2.3,1.3-2.3c0.8,0,1.3,0.7,1.3,2.3c0,1.5-0.5,2.3-1.3,2.3
			C198.6,217.1,198,216.4,198,214.9z M200.3,214.9c0-1.3-0.3-1.9-0.9-1.9c-0.5,0-0.9,0.6-0.9,1.9c0,1.3,0.4,1.9,0.9,1.9
			C199.9,216.7,200.3,216.2,200.3,214.9z"/>
		<path fill="#BCBEC0" d="M201.6,216.7h1v-3.4h-0.8V213c0.4-0.1,0.7-0.2,0.9-0.3h0.4v4h0.9v0.4h-2.4V216.7z"/>
		<path fill="#BCBEC0" d="M206.8,213.1h-2.2v-0.4h2.7v0.3c-1,1.3-1.2,2.4-1.3,4.1h-0.5C205.6,215.4,205.9,214.3,206.8,213.1z"/>
		<path fill="#BCBEC0" d="M213.3,216.1h-2.2v1.4h-0.4v-1.4h-2.8v-0.4h1v-1.6h1.8v-1h-1.5c-0.3,0.5-0.6,0.9-0.9,1.2
			c-0.1-0.1-0.2-0.2-0.3-0.3c0.6-0.5,1.1-1.3,1.4-2.1l0.4,0.1c-0.1,0.2-0.2,0.4-0.3,0.7h3.6v0.4h-1.9v1h1.8v0.4h-1.8v1.2h2.2V216.1z
			 M210.7,215.7v-1.2h-1.4v1.2H210.7z"/>
		<path fill="#BCBEC0" d="M214.3,216.4c0.2,0.2,0.5,0.3,0.7,0.3c0.6,0,1.1-0.5,1.1-1.9c-0.3,0.3-0.6,0.6-1,0.6
			c-0.7,0-1.2-0.5-1.2-1.4c0-0.8,0.6-1.4,1.2-1.4c0.8,0,1.5,0.7,1.5,2.1c0,1.8-0.8,2.5-1.6,2.5c-0.5,0-0.8-0.2-1-0.4L214.3,216.4z
			 M216.1,214.4c0-0.9-0.4-1.4-1-1.4c-0.4,0-0.8,0.4-0.8,1c0,0.6,0.3,1,0.8,1C215.5,215,215.8,214.9,216.1,214.4z"/>
		<path fill="#BCBEC0" d="M221.8,216.9c0,0.3-0.1,0.4-0.3,0.5c-0.2,0.1-0.6,0.1-1.3,0.1c0-0.1-0.1-0.3-0.2-0.4c0.5,0,1,0,1.1,0
			c0.1,0,0.2,0,0.2-0.2v-1.3h-2.9c-0.1,0.7-0.4,1.4-1,1.9c-0.1-0.1-0.2-0.2-0.3-0.3c1-0.9,1.1-2.1,1.1-3.1v-1.8h3.6V216.9z
			 M221.4,215.3v-1.1h-2.8c0,0.3,0,0.7-0.1,1.1H221.4z M218.6,212.8v1h2.8v-1H218.6z"/>
		<path fill="#BCBEC0" d="M223.1,216.5l0.3-0.3c0.3,0.3,0.6,0.5,1.1,0.5c0.5,0,0.9-0.3,0.9-0.9c0-0.5-0.4-0.9-1.4-0.9v-0.4
			c0.9,0,1.2-0.4,1.2-0.9c0-0.4-0.3-0.7-0.8-0.7c-0.4,0-0.7,0.2-0.9,0.4l-0.3-0.3c0.3-0.3,0.7-0.5,1.2-0.5c0.7,0,1.2,0.4,1.2,1.1
			c0,0.5-0.3,0.9-0.8,1.1v0c0.5,0.1,0.9,0.5,0.9,1.1c0,0.8-0.6,1.2-1.4,1.2C223.8,217.1,223.4,216.8,223.1,216.5z"/>
		<path fill="#BCBEC0" d="M226.5,214.9c0-1.5,0.5-2.3,1.3-2.3c0.8,0,1.3,0.7,1.3,2.3c0,1.5-0.5,2.3-1.3,2.3
			C227,217.1,226.5,216.4,226.5,214.9z M228.7,214.9c0-1.3-0.3-1.9-0.9-1.9c-0.5,0-0.9,0.6-0.9,1.9c0,1.3,0.4,1.9,0.9,1.9
			C228.4,216.7,228.7,216.2,228.7,214.9z"/>
		<path fill="#BCBEC0" d="M234.5,212.5v4.9h-0.4v-0.4h-3v0.4h-0.4v-5H234.5z M231,212.9v1.7h3v-1.7H231z M234.1,216.7v-1.7h-3v1.7
			H234.1z"/>
		<path fill="#BCBEC0" d="M236.5,214.4v3.1h-0.4v-5.2h2.1v2H236.5z M236.5,212.6v0.5h1.4v-0.5H236.5z M237.9,214.1v-0.6h-1.4v0.6
			H237.9z M237.8,217v0.3h-0.4v-2.5h2.2v2.2H237.8z M237.8,215.1v0.6h1.5v-0.6H237.8z M239.2,216.7V216h-1.5v0.6H239.2z M241,217
			c0,0.3-0.1,0.4-0.3,0.5c-0.2,0.1-0.5,0.1-1,0.1c0-0.1-0.1-0.3-0.1-0.4c0.4,0,0.7,0,0.8,0c0.1,0,0.1,0,0.1-0.1v-2.6h-1.8v-2h2.2
			V217z M239.2,212.6v0.5h1.4v-0.5H239.2z M240.6,214v-0.6h-1.4v0.6H240.6z"/>
		<path fill="#BCBEC0" d="M242.4,214.9c0.5-0.2,0.7-0.5,0.8-0.9c0,0-0.1,0-0.1,0c-0.2,0-0.4-0.1-0.4-0.4c0-0.3,0.2-0.4,0.4-0.4
			c0.3,0,0.5,0.3,0.5,0.7c0,0.6-0.4,1.1-1,1.3L242.4,214.9z"/>
		<path fill="#BCBEC0" d="M250.2,214.7v0.4h-2.5c0,0.2,0,0.3-0.1,0.5h2.5v0.4h-2.6c-0.3,0.8-0.9,1.4-2.5,1.6c0-0.1-0.1-0.3-0.2-0.4
			c1.4-0.2,2-0.6,2.3-1.3H245v-0.4h2.2c0-0.2,0.1-0.3,0.1-0.5h-2.4v-0.4h2.4v-0.5h-1.9v-0.3h1.9v-0.5h-2.2v-0.4h1.3
			c-0.1-0.2-0.3-0.5-0.5-0.7l0.3-0.1c0.2,0.2,0.4,0.6,0.5,0.8l-0.2,0.1h1.6c0.2-0.3,0.4-0.6,0.5-0.9l0.4,0.1
			c-0.2,0.3-0.3,0.5-0.5,0.7h1.3v0.4h-2.2v0.5h1.9v0.3h-1.9v0.5H250.2z M247.7,216c0.8,0.3,1.9,0.9,2.5,1.2l-0.2,0.3
			c-0.5-0.4-1.6-0.9-2.4-1.3L247.7,216z"/>
		<path fill="#BCBEC0" d="M90.7,218.9v5.2h-0.4v-0.3h-4.2v0.3h-0.4v-5.2H90.7z M90.4,223.4v-4.2h-4.2v4.2H90.4z M88.3,222.5
			c-0.6,0.1-1.3,0.3-1.8,0.4l-0.1-0.3c0.5-0.1,1.2-0.2,1.8-0.3L88.3,222.5z M89.8,220.7c-0.1,0.6-0.4,1.1-0.7,1.5
			c0.1,0.3,0.3,0.6,0.5,0.6c0.1,0,0.1-0.2,0.2-0.6c0.1,0.1,0.2,0.1,0.3,0.2c-0.1,0.6-0.2,0.9-0.6,0.8c-0.3,0-0.5-0.3-0.6-0.6
			c-0.2,0.3-0.5,0.5-0.8,0.7c0-0.1-0.2-0.2-0.2-0.3c0.4-0.2,0.7-0.5,0.9-0.8c-0.2-0.5-0.3-1.1-0.3-1.8h-1.9V220h1.8
			c0-0.2,0-0.4,0-0.7h0.3c0,0.2,0,0.4,0,0.7H90v0.3h-1.3c0.1,0.5,0.1,1,0.2,1.4c0.2-0.3,0.4-0.7,0.5-1.2L89.8,220.7z M88.1,220.7
			v1.2h-1.3v-1.2H88.1z M87.8,221H87v0.7h0.7V221z M89.7,220c-0.1-0.1-0.4-0.3-0.7-0.4l0.2-0.2c0.2,0.1,0.5,0.3,0.7,0.4L89.7,220z"
			/>
		<path fill="#BCBEC0" d="M91.8,223.2h1v-3.4H92v-0.3c0.4-0.1,0.7-0.2,0.9-0.3h0.4v4h0.9v0.4h-2.4V223.2z"/>
		<path fill="#BCBEC0" d="M94.9,221.4c0-1.5,0.5-2.3,1.3-2.3c0.8,0,1.3,0.7,1.3,2.3c0,1.5-0.5,2.3-1.3,2.3
			C95.4,223.7,94.9,222.9,94.9,221.4z M97.1,221.4c0-1.3-0.3-1.9-0.9-1.9c-0.5,0-0.9,0.6-0.9,1.9c0,1.3,0.4,1.9,0.9,1.9
			C96.7,223.3,97.1,222.7,97.1,221.4z"/>
		<path fill="#BCBEC0" d="M103.6,222.6h-2.2v1.4H101v-1.4h-2.8v-0.4h1v-1.6h1.8v-1h-1.5c-0.3,0.5-0.6,0.9-0.9,1.2
			c-0.1-0.1-0.2-0.2-0.3-0.3c0.6-0.5,1.1-1.3,1.4-2.1l0.4,0.1c-0.1,0.2-0.2,0.4-0.3,0.7h3.6v0.4h-1.9v1h1.8v0.4h-1.8v1.2h2.2V222.6z
			 M101,222.3V221h-1.4v1.2H101z"/>
		<path fill="#BCBEC0" d="M107.1,222.6h-2.9v-0.4h0.6v-2.5h-0.5v-0.4h0.5v-0.7h0.4v0.7h1.1v-0.7h0.4v0.7h0.4v0.4h-0.4v2.5h0.5V222.6
			z M105.3,222.8c-0.2,0.5-0.6,0.9-0.9,1.2c-0.1-0.1-0.2-0.2-0.3-0.2c0.3-0.3,0.7-0.7,0.8-1.1L105.3,222.8z M105.1,219.7v0.6h1.1
			v-0.6H105.1z M105.1,221.3h1.1v-0.6h-1.1V221.3z M105.1,222.2h1.1v-0.6h-1.1V222.2z M106.1,222.7c0.2,0.3,0.5,0.6,0.6,0.9
			l-0.3,0.2c-0.1-0.2-0.4-0.6-0.6-0.9L106.1,222.7z M109.4,223.5c0,0.3-0.1,0.4-0.2,0.4c-0.2,0.1-0.4,0.1-0.9,0.1
			c0-0.1-0.1-0.3-0.1-0.4c0.3,0,0.6,0,0.7,0s0.1,0,0.1-0.1V222h-1.3c-0.1,0.7-0.2,1.5-0.6,2.1c-0.1-0.1-0.2-0.2-0.3-0.2
			c0.5-0.8,0.6-1.9,0.6-2.8v-2.2h2V223.5z M109,221.6v-1h-1.3v0.4c0,0.2,0,0.4,0,0.6H109z M107.7,219.2v1h1.3v-1H107.7z"/>
		<path fill="#BCBEC0" d="M115.3,218.9v5.2h-0.4v-0.3h-4.2v0.3h-0.4v-5.2H115.3z M114.9,223.4v-4.2h-4.2v4.2H114.9z M112.9,222.5
			c-0.6,0.1-1.3,0.3-1.8,0.4l-0.1-0.3c0.5-0.1,1.2-0.2,1.8-0.3L112.9,222.5z M114.4,220.7c-0.1,0.6-0.4,1.1-0.7,1.5
			c0.1,0.3,0.3,0.6,0.5,0.6c0.1,0,0.1-0.2,0.2-0.6c0.1,0.1,0.2,0.1,0.3,0.2c-0.1,0.6-0.2,0.9-0.6,0.8c-0.3,0-0.5-0.3-0.6-0.6
			c-0.2,0.3-0.5,0.5-0.8,0.7c0-0.1-0.2-0.2-0.2-0.3c0.4-0.2,0.7-0.5,0.9-0.8c-0.2-0.5-0.3-1.1-0.3-1.8h-1.9V220h1.8
			c0-0.2,0-0.4,0-0.7h0.3c0,0.2,0,0.4,0,0.7h1.3v0.3h-1.3c0.1,0.5,0.1,1,0.2,1.4c0.2-0.3,0.4-0.7,0.5-1.2L114.4,220.7z M112.7,220.7
			v1.2h-1.3v-1.2H112.7z M112.4,221h-0.7v0.7h0.7V221z M114.3,220c-0.1-0.1-0.4-0.3-0.7-0.4l0.2-0.2c0.2,0.1,0.5,0.3,0.7,0.4
			L114.3,220z"/>
		<path fill="#BCBEC0" d="M117,219.5v1.5c0,0.9-0.1,2.2-0.6,3.1c-0.1-0.1-0.2-0.2-0.3-0.2c0.5-0.8,0.5-2,0.5-2.9v-1.9h2.4
			c-0.1-0.1-0.2-0.3-0.3-0.4l0.4-0.1c0.1,0.2,0.3,0.4,0.3,0.5h2.1v0.3H117z M121.6,223.3h-2.1v0.7h-0.4v-0.7h-2V223h2v-0.4h-1.5
			v-1.8h1.5v-0.4h-1.8V220h1.8v-0.4h0.4v0.4h1.9v0.3h-1.9v0.4h1.6v1.8h-1.6v0.4h2.1V223.3z M117.9,221.5h1.2V221h-1.2V221.5z
			 M119.1,222.2v-0.5h-1.2v0.5H119.1z M119.5,221v0.5h1.2V221H119.5z M120.7,221.8h-1.2v0.5h1.2V221.8z"/>
		<path fill="#BCBEC0" d="M126,221c0.4,0.5,1.1,0.9,1.7,1c-0.1,0.1-0.2,0.2-0.3,0.3c-0.3-0.1-0.7-0.3-1-0.5l0,0
			c-0.1,1.2-0.2,1.7-0.3,1.9c-0.1,0.1-0.2,0.2-0.4,0.2c-0.2,0-0.5,0-0.8,0c0-0.1-0.1-0.3-0.1-0.4c0.3,0,0.6,0,0.8,0
			c0.1,0,0.2,0,0.2-0.1c0.1-0.1,0.2-0.5,0.3-1.4h-1.5c-0.2,0.9-0.6,1.6-1.8,1.9c0-0.1-0.2-0.3-0.2-0.3c1.1-0.3,1.5-0.8,1.7-1.6h-1
			v-0.2c-0.2,0.2-0.5,0.3-0.8,0.5c0-0.1-0.2-0.2-0.3-0.3c0.6-0.3,1.1-0.6,1.5-1h-1.3v-0.4h1.6c0.2-0.2,0.3-0.4,0.4-0.7h-1.7v-0.4h1
			c-0.1-0.2-0.3-0.5-0.5-0.8l0.3-0.2c0.2,0.2,0.4,0.5,0.5,0.8l-0.3,0.2h0.8c0.1-0.4,0.2-0.7,0.3-1.1l0.4,0c-0.1,0.3-0.1,0.7-0.3,1
			h0.8c0.2-0.3,0.4-0.6,0.6-0.9l0.4,0.1c-0.2,0.3-0.4,0.6-0.6,0.8h1v0.4h-2.3c-0.1,0.2-0.2,0.4-0.4,0.7h3.1v0.4H126z M126.2,221.8
			c-0.3-0.2-0.5-0.5-0.7-0.7h-1.4c-0.2,0.3-0.5,0.5-0.8,0.7H126.2z"/>
		<path fill="#BCBEC0" d="M132.3,221.8c0.3,0.4,0.9,0.8,1.4,1c-0.1,0.1-0.2,0.2-0.3,0.3c-0.6-0.3-1.2-0.7-1.5-1.3h-1.9
			c-0.4,0.6-1,1.1-1.6,1.4c-0.1-0.1-0.2-0.2-0.3-0.3c0.5-0.2,1-0.6,1.4-1h-1.3v-0.3h1.2v-1.9h-0.9v-0.3h0.9v-0.6h0.4v0.6h2.2v-0.6
			h0.4v0.6h0.9v0.3h-0.9v1.9h1.2v0.3H132.3z M131.1,223.5h2.1v0.3h-4.5v-0.3h2v-0.7h-1.3v-0.3h1.3V222h0.4v0.5h1.3v0.3h-1.3V223.5z
			 M129.8,219.5v0.4h2.2v-0.4H129.8z M129.8,220.7h2.2v-0.4h-2.2V220.7z M129.8,221.4h2.2V221h-2.2V221.4z"/>
		<path fill="#BCBEC0" d="M135.1,220.3c-0.2-0.1-0.7-0.3-1-0.4l0.2-0.3c0.3,0.1,0.8,0.3,1,0.4L135.1,220.3z M139.6,222.8h-2.5v1.2
			h-0.4v-1.2h-2.4v-0.4h2.4V222h0.4v0.5h2.5L139.6,222.8z M134.3,221.8c0.3-0.3,0.8-0.8,1.2-1.2l0.2,0.3c-0.3,0.4-0.7,0.9-1.1,1.3
			L134.3,221.8z M135.6,219.4c-0.2-0.1-0.6-0.4-1-0.5l0.2-0.3c0.3,0.1,0.8,0.3,1,0.5L135.6,219.4z M136,219.9
			c-0.1,0.1-0.3,0.3-0.4,0.4c-0.1-0.1-0.2-0.2-0.3-0.3c0.5-0.4,0.9-0.9,1.2-1.5l0.4,0.1c-0.1,0.2-0.2,0.4-0.3,0.6h1
			c-0.1-0.2-0.2-0.3-0.2-0.5l0.4-0.1c0.1,0.2,0.2,0.4,0.3,0.6h1.2v0.3h-1.3v0.5h1.2v0.3h-1.2v0.5h1.2v0.3h-1.2v0.5h1.4v0.3h-3v0.3
			H136V219.9z M137.5,219.5h-1.1v0.5h1.1V219.5z M137.5,220.3h-1.1v0.5h1.1V220.3z M137.5,221h-1.1v0.5h1.1V221z"/>
		<path fill="#BCBEC0" d="M142.2,220.1c-0.2,2-0.8,3.2-1.7,3.9c-0.1-0.1-0.2-0.2-0.3-0.3c0.5-0.3,0.9-0.8,1.1-1.5
			c-0.2-0.2-0.4-0.5-0.7-0.8c-0.1,0.2-0.2,0.3-0.3,0.5c0-0.1-0.2-0.2-0.3-0.3c0.4-0.6,0.7-1.5,0.8-2.4h-0.7v-0.4h2.1v0.4h-1
			c-0.1,0.3-0.1,0.6-0.2,0.9h0.8l0.1,0L142.2,220.1z M141,220.4c-0.1,0.2-0.1,0.5-0.2,0.7c0.2,0.2,0.5,0.5,0.7,0.7
			c0.1-0.4,0.2-0.9,0.3-1.4H141z M145.6,223.5v0.3H142v-0.3h0.6v-3.4h0.8c0-0.2,0.1-0.3,0.1-0.5h-1.2v-0.3h1.2
			c0-0.2,0.1-0.5,0.1-0.7l0.4,0c0,0.2-0.1,0.4-0.1,0.7h1.5v0.3h-1.6c0,0.2-0.1,0.4-0.1,0.5h1.3v3.4H145.6z M142.9,220.4v0.5h1.8
			v-0.5H142.9z M144.7,221.3h-1.8v0.5h1.8V221.3z M142.9,222.1v0.5h1.8v-0.5H142.9z M142.9,223.5h1.8V223h-1.8V223.5z"/>
		<path fill="#BCBEC0" d="M147.9,220.4h1.3v0.4h-1.3v0.2c0.3,0.3,1,1,1.2,1.2l-0.2,0.3c-0.2-0.2-0.6-0.7-0.9-1v2.7h-0.4v-2.7
			c-0.3,0.7-0.8,1.4-1.2,1.8c0-0.1-0.1-0.3-0.2-0.4c0.5-0.5,1-1.3,1.3-2.1h-1.2v-0.4h1.3v-1.1c-0.4,0.1-0.8,0.1-1.2,0.2
			c0-0.1-0.1-0.2-0.1-0.3c0.9-0.1,1.9-0.3,2.5-0.6l0.3,0.3c-0.3,0.1-0.7,0.2-1.1,0.3V220.4z M150,222.6h-0.4v-3.3h0.4V222.6z
			 M151.3,218.6v4.8c0,0.3-0.1,0.4-0.3,0.5c-0.2,0.1-0.5,0.1-1.1,0.1c0-0.1-0.1-0.3-0.2-0.4c0.4,0,0.8,0,0.9,0c0.1,0,0.2,0,0.2-0.2
			v-4.8H151.3z"/>
		<path fill="#BCBEC0" d="M157.5,222.7h-2.5v1.3h-0.4v-1.3h-2.5v-0.4h2.5v-0.5h0.4v0.5h2.5V222.7z M153.8,221.2
			c-0.5,0.2-1,0.5-1.3,0.7l-0.2-0.3c0.4-0.2,0.9-0.4,1.5-0.7L153.8,221.2z M155.9,221.9c0-0.1-0.1-0.2-0.2-0.3
			c-1.6,0.2-1.8,0.2-1.9,0.2c0-0.1-0.1-0.3-0.1-0.4c0.1,0,0.3-0.1,0.5-0.3c0.1-0.1,0.4-0.3,0.7-0.7c-0.7,0.1-0.9,0.1-0.9,0.1
			c0-0.1-0.1-0.3-0.1-0.3c0.1,0,0.2-0.1,0.3-0.2c0.1-0.1,0.3-0.3,0.5-0.6h-2.2v-0.4h2.5c-0.1-0.2-0.2-0.3-0.3-0.5l0.4-0.1
			c0.1,0.2,0.3,0.4,0.4,0.6h2.2v0.4h-2.5c-0.2,0.3-0.4,0.6-0.6,0.8l0.8-0.1c0.1-0.2,0.3-0.3,0.4-0.5l0.3,0.2c-0.5,0.6-1,1.1-1.6,1.5
			l1.1-0.1c-0.1-0.1-0.2-0.3-0.3-0.4l0.3-0.1c0.3,0.3,0.6,0.7,0.7,1L155.9,221.9z M153.3,220.7c-0.2-0.2-0.6-0.5-0.9-0.7l0.3-0.2
			c0.3,0.2,0.7,0.5,0.9,0.7L153.3,220.7z M157.1,222c-0.2-0.2-0.8-0.6-1.2-0.9l0.3-0.2c0.4,0.2,0.9,0.6,1.2,0.8L157.1,222z
			 M157.2,219.9c-0.3,0.3-0.6,0.6-0.9,0.8l-0.3-0.2c0.3-0.2,0.7-0.5,0.9-0.8L157.2,219.9z"/>
		<path fill="#BCBEC0" d="M159,220.6c0,1-0.1,2.4-0.6,3.4c-0.1-0.1-0.2-0.2-0.3-0.2c0.5-0.9,0.5-2.3,0.5-3.2v-1.8h4.9v0.4H159V220.6
			z M163.5,223.5v0.3H159v-0.3h0.8v-1.3h0.4v1.3h0.9v-1.7h0.4v0.6h1.5v0.3h-1.5v0.8H163.5z M160,221.8v-0.9
			c-0.2,0.3-0.5,0.7-0.7,0.9c-0.1-0.1-0.2-0.2-0.2-0.3c0.3-0.2,0.6-0.5,0.8-0.9h-0.6v-0.3h0.8v-0.4c-0.2,0-0.5,0.1-0.7,0.1
			c0-0.1-0.1-0.2-0.1-0.2c0.5-0.1,1.1-0.2,1.5-0.3l0.3,0.2c-0.2,0.1-0.4,0.1-0.6,0.2v0.5h0.7v0.3h-0.7v0c0.2,0.1,0.6,0.4,0.7,0.5
			l-0.2,0.3c-0.1-0.1-0.3-0.3-0.5-0.4v0.8H160z M162.1,221.8v-1c-0.2,0.4-0.6,0.8-0.9,1c-0.1-0.1-0.2-0.2-0.2-0.3
			c0.3-0.2,0.7-0.5,0.9-0.9h-0.6v-0.3h0.8v-0.5c-0.2,0-0.5,0.1-0.7,0.1c0-0.1-0.1-0.2-0.1-0.3c0.6-0.1,1.2-0.2,1.6-0.3l0.3,0.2
			c-0.2,0.1-0.4,0.1-0.7,0.2v0.5h1v0.3h-1v0.1c0.2,0.1,0.9,0.6,1.1,0.8l-0.2,0.3c-0.2-0.2-0.6-0.5-0.9-0.7v0.8H162.1z"/>
		<path fill="#BCBEC0" d="M167.1,221.5c0,0.6-0.2,1.1-0.6,1.5c0.8,0.4,1.8,0.6,3.1,0.6c-0.1,0.1-0.2,0.3-0.2,0.4
			c-1.4-0.1-2.5-0.3-3.3-0.8c-0.4,0.3-1,0.6-1.8,0.8c0-0.1-0.2-0.3-0.2-0.4c0.8-0.2,1.3-0.4,1.7-0.6c-0.4-0.3-0.7-0.7-0.9-1.2
			l0.3-0.1c0.2,0.5,0.5,0.8,0.9,1.1c0.4-0.4,0.5-0.8,0.5-1.3h-2v-1.9h2v-0.9h0.4v0.9h2.1v1.9H167.1z M166.7,221.1L166.7,221.1v-1.2
			H165v1.2H166.7z M167.1,219.9v1.2v0h1.7v-1.2H167.1z"/>
		<path fill="#BCBEC0" d="M173.1,223.5c0.3,0.1,0.7,0.1,1.1,0.1c0.2,0,1.2,0,1.4,0c-0.1,0.1-0.1,0.3-0.1,0.4h-1.3
			c-1.3,0-2.3-0.2-2.9-1.3c-0.2,0.6-0.5,1.1-0.9,1.4c-0.1-0.1-0.2-0.2-0.3-0.3c0.7-0.6,1-1.6,1.1-2.5l0.4,0c0,0.3-0.1,0.6-0.2,0.8
			c0.3,0.6,0.7,1,1.2,1.2v-2.5h-2.4v-0.4h2.4v-0.9h-1.9v-0.4h1.9v-0.7h0.4v0.7h2v0.4h-2v0.9h2.4v0.4h-2.4v1h2v0.4h-2V223.5z"/>
		<path fill="#BCBEC0" d="M178.8,221.7c-0.9,0.1-1.9,0.1-2.6,0.2l0-0.3c0.3,0,0.7,0,1.2-0.1v-0.4h-0.9v-0.3h0.9v-0.3h0.4v0.3h0.9
			v0.3h-0.9v0.4l1-0.1V221.7z M177.3,219.8c-0.1,0.5-0.5,0.7-1,0.9c0-0.1-0.1-0.2-0.2-0.3c0.4-0.1,0.7-0.3,0.8-0.6h-0.8v-0.3h1.2
			v-0.3h-0.9v-0.3h0.9v-0.4h0.4v0.4h0.9v0.3h-0.9v0.3h1.2v0.3h-0.8v0.2c0,0.1,0,0.2,0.1,0.2h0.3c0.1,0,0.2,0,0.3,0
			c0,0.1,0,0.2,0,0.3c-0.1,0-0.2,0-0.3,0h-0.4c-0.3,0-0.3-0.1-0.3-0.4v-0.2H177.3z M181.1,222.5c-0.1,0.9-0.2,1.3-0.4,1.4
			c-0.1,0.1-0.2,0.1-0.4,0.1c-0.2,0-0.5,0-0.8,0c0-0.1-0.1-0.3-0.1-0.4c0.3,0,0.7,0,0.8,0c0.1,0,0.2,0,0.2-0.1
			c0.1-0.1,0.2-0.4,0.3-1h-1.8c-0.3,0.8-0.9,1.2-2.4,1.4c0-0.1-0.1-0.2-0.2-0.3c1.3-0.2,1.9-0.5,2.2-1.1h-1.9v-0.3h2
			c0-0.1,0.1-0.2,0.1-0.4h0.4c0,0.1,0,0.3-0.1,0.4h2.1L181.1,222.5z M181.1,219.3c0,1.3,0,2.3,0.3,2.3c0.1,0,0.1-0.3,0.1-0.8
			c0.1,0.1,0.2,0.2,0.2,0.2c0,0.6-0.1,0.9-0.4,0.9c-0.5,0-0.6-0.9-0.6-2.3h-0.6c0,0.3-0.1,0.6-0.1,0.9c0.3,0.2,0.5,0.3,0.6,0.4
			l-0.2,0.3c-0.1-0.1-0.3-0.3-0.5-0.4c-0.2,0.4-0.4,0.7-0.8,1c0-0.1-0.2-0.2-0.2-0.3c0.4-0.2,0.6-0.5,0.7-0.9
			c-0.2-0.1-0.4-0.3-0.6-0.4l0.2-0.3c0.1,0.1,0.3,0.2,0.5,0.3c0-0.2,0.1-0.4,0.1-0.7h-0.7v-0.3h0.7c0-0.2,0-0.5,0-0.7h0.4
			c0,0.3,0,0.5,0,0.7H181.1z"/>
		<path fill="#BCBEC0" d="M183.4,220.4c0.5,0,0.9,0.4,0.9,0.9c0,0.5-0.4,0.9-0.9,0.9c-0.5,0-0.9-0.4-0.9-0.9
			C182.5,220.8,182.9,220.4,183.4,220.4z M183.4,221.9c0.3,0,0.6-0.3,0.6-0.6c0-0.3-0.3-0.6-0.6-0.6c-0.3,0-0.6,0.3-0.6,0.6
			C182.8,221.7,183,221.9,183.4,221.9z"/>
	</g>
	<g>
		<g>
			<path fill="#0C56AB" d="M5.7,2.9v0.4H3.2c0,0.2,0,0.3-0.1,0.5h2.5v0.4H3C2.7,4.9,2.1,5.4,0.5,5.7c0-0.1-0.1-0.3-0.2-0.4
				c1.4-0.2,2-0.6,2.3-1.3H0.5V3.7h2.2c0-0.2,0.1-0.3,0.1-0.5H0.4V2.9h2.4V2.3H0.9V2h1.9V1.5H0.6V1.1h1.3C1.8,0.9,1.6,0.6,1.4,0.4
				l0.3-0.1C1.9,0.5,2.2,0.8,2.3,1L2.1,1.1h1.6c0.2-0.3,0.4-0.6,0.5-0.9l0.4,0.1C4.5,0.6,4.3,0.9,4.1,1.1h1.3v0.4H3.2V2h1.9v0.3H3.2
				v0.5H5.7z M3.2,4.2C4,4.5,5.1,5,5.7,5.4L5.5,5.8C4.9,5.4,3.9,4.8,3,4.5L3.2,4.2z"/>
			<path fill="#0C56AB" d="M11.5,0.6v5.2h-0.4V5.5H6.9v0.3H6.5V0.6H11.5z M11.1,5.1V0.9H6.9v4.2H11.1z M9,4.2
				C8.4,4.3,7.8,4.4,7.3,4.5L7.2,4.2C7.7,4.1,8.3,4,9,3.9L9,4.2z M10.5,2.4C10.3,3,10.1,3.5,9.8,3.9c0.1,0.3,0.3,0.6,0.5,0.6
				c0.1,0,0.1-0.2,0.2-0.6C10.6,3.9,10.7,4,10.8,4c-0.1,0.6-0.2,0.9-0.6,0.8c-0.3,0-0.5-0.3-0.6-0.6C9.3,4.5,9.1,4.7,8.8,4.9
				c0-0.1-0.2-0.2-0.2-0.3c0.4-0.2,0.7-0.5,0.9-0.8C9.3,3.4,9.2,2.7,9.1,2H7.2V1.7h1.8c0-0.2,0-0.4,0-0.7h0.3c0,0.2,0,0.4,0,0.7h1.3
				V2H9.4c0.1,0.5,0.1,1,0.2,1.4c0.2-0.3,0.4-0.7,0.5-1.2L10.5,2.4z M8.8,2.4v1.2H7.5V2.4H8.8z M8.5,2.7H7.7v0.7h0.7V2.7z M10.4,1.7
				C10.3,1.5,10,1.3,9.7,1.2L9.9,1c0.2,0.1,0.5,0.3,0.7,0.4L10.4,1.7z"/>
			<path fill="#0C56AB" d="M12.5,4.9h1V1.5h-0.8V1.2c0.4-0.1,0.7-0.2,0.9-0.3H14v4h0.9v0.4h-2.4V4.9z"/>
			<path fill="#0C56AB" d="M15.6,3.1c0-1.5,0.5-2.3,1.3-2.3c0.8,0,1.3,0.7,1.3,2.3c0,1.5-0.5,2.3-1.3,2.3
				C16.1,5.4,15.6,4.6,15.6,3.1z M17.8,3.1c0-1.3-0.3-1.9-0.9-1.9c-0.5,0-0.9,0.6-0.9,1.9c0,1.3,0.4,1.9,0.9,1.9
				C17.5,5,17.8,4.4,17.8,3.1z"/>
			<path fill="#0C56AB" d="M24.3,4.3h-2.2v1.4h-0.4V4.3h-2.8V4h1V2.3h1.8v-1h-1.5c-0.3,0.5-0.6,0.9-0.9,1.2
				c-0.1-0.1-0.2-0.2-0.3-0.3c0.6-0.5,1.1-1.3,1.4-2.1l0.4,0.1c-0.1,0.2-0.2,0.4-0.3,0.7H24v0.4h-1.9v1h1.8v0.4h-1.8V4h2.2V4.3z
				 M21.7,4V2.7h-1.4V4H21.7z"/>
			<path fill="#0C56AB" d="M27.8,4.3h-2.9V3.9h0.6V1.4h-0.5V1.1h0.5V0.3h0.4v0.7H27V0.3h0.4v0.7h0.4v0.4h-0.4v2.5h0.5V4.3z
				 M26.1,4.5c-0.2,0.5-0.6,0.9-0.9,1.2c-0.1-0.1-0.2-0.2-0.3-0.2c0.3-0.3,0.7-0.7,0.8-1.1L26.1,4.5z M25.8,1.4V2H27V1.4H25.8z
				 M25.8,2.9H27V2.3h-1.1V2.9z M25.8,3.9H27V3.3h-1.1V3.9z M26.8,4.4c0.2,0.3,0.5,0.6,0.6,0.9l-0.3,0.2c-0.1-0.2-0.4-0.6-0.6-0.9
				L26.8,4.4z M30.1,5.2c0,0.3-0.1,0.4-0.2,0.4c-0.2,0.1-0.4,0.1-0.9,0.1c0-0.1-0.1-0.3-0.1-0.4c0.3,0,0.6,0,0.7,0s0.1,0,0.1-0.1
				V3.7h-1.3c-0.1,0.7-0.2,1.5-0.6,2.1c-0.1-0.1-0.2-0.2-0.3-0.2c0.5-0.8,0.6-1.9,0.6-2.8V0.6h2V5.2z M29.7,3.3v-1h-1.3v0.4
				c0,0.2,0,0.4,0,0.6H29.7z M28.4,0.9v1h1.3v-1H28.4z"/>
			<path fill="#0C56AB" d="M36.1,0.6v5.2h-0.4V5.5h-4.2v0.3h-0.4V0.6H36.1z M35.7,5.1V0.9h-4.2v4.2H35.7z M33.6,4.2
				c-0.6,0.1-1.3,0.3-1.8,0.4l-0.1-0.3c0.5-0.1,1.2-0.2,1.8-0.3L33.6,4.2z M35.1,2.4c-0.1,0.6-0.4,1.1-0.7,1.5
				c0.1,0.3,0.3,0.6,0.5,0.6c0.1,0,0.1-0.2,0.2-0.6C35.2,3.9,35.3,4,35.4,4c-0.1,0.6-0.2,0.9-0.6,0.8c-0.3,0-0.5-0.3-0.6-0.6
				c-0.2,0.3-0.5,0.5-0.8,0.7c0-0.1-0.2-0.2-0.2-0.3c0.4-0.2,0.7-0.5,0.9-0.8c-0.2-0.5-0.3-1.1-0.3-1.8h-1.9V1.7h1.8
				c0-0.2,0-0.4,0-0.7H34c0,0.2,0,0.4,0,0.7h1.3V2H34c0.1,0.5,0.1,1,0.2,1.4c0.2-0.3,0.4-0.7,0.5-1.2L35.1,2.4z M33.4,2.4v1.2H32
				V2.4H33.4z M33.1,2.7h-0.7v0.7h0.7V2.7z M35,1.7c-0.1-0.1-0.4-0.3-0.7-0.4L34.5,1c0.2,0.1,0.5,0.3,0.7,0.4L35,1.7z"/>
			<path fill="#0C56AB" d="M37.7,1.2v1.5c0,0.9-0.1,2.2-0.6,3.1c-0.1-0.1-0.2-0.2-0.3-0.2c0.5-0.8,0.5-2,0.5-2.9V0.8h2.4
				c-0.1-0.1-0.2-0.3-0.3-0.4l0.4-0.1c0.1,0.2,0.3,0.4,0.3,0.5h2.1v0.3H37.7z M42.3,5h-2.1v0.7h-0.4V5h-2V4.7h2V4.2h-1.5V2.4h1.5V2
				H38V1.7h1.8V1.3h0.4v0.4h1.9V2h-1.9v0.4h1.6v1.8h-1.6v0.4h2.1V5z M38.6,3.2h1.2V2.7h-1.2V3.2z M39.8,3.9V3.5h-1.2v0.5H39.8z
				 M40.2,2.7v0.5h1.2V2.7H40.2z M41.4,3.5h-1.2v0.5h1.2V3.5z"/>
			<path fill="#0C56AB" d="M46.7,2.7c0.4,0.5,1.1,0.9,1.7,1c-0.1,0.1-0.2,0.2-0.3,0.3c-0.3-0.1-0.7-0.3-1-0.5l0,0
				c-0.1,1.2-0.2,1.7-0.3,1.9c-0.1,0.1-0.2,0.2-0.4,0.2c-0.2,0-0.5,0-0.8,0c0-0.1-0.1-0.3-0.1-0.4c0.3,0,0.6,0,0.8,0
				c0.1,0,0.2,0,0.2-0.1c0.1-0.1,0.2-0.5,0.3-1.4h-1.5c-0.2,0.9-0.6,1.6-1.8,1.9c0-0.1-0.2-0.3-0.2-0.3c1.1-0.3,1.5-0.8,1.7-1.6h-1
				V3.6c-0.2,0.2-0.5,0.3-0.8,0.5c0-0.1-0.2-0.2-0.3-0.3c0.6-0.3,1.1-0.6,1.5-1H43V2.4h1.6c0.2-0.2,0.3-0.4,0.4-0.7h-1.7V1.3h1
				c-0.1-0.2-0.3-0.5-0.5-0.8l0.3-0.2c0.2,0.2,0.4,0.5,0.5,0.8l-0.3,0.2h0.8c0.1-0.4,0.2-0.7,0.3-1.1l0.4,0c-0.1,0.3-0.1,0.7-0.3,1
				h0.8c0.2-0.3,0.4-0.6,0.6-0.9l0.4,0.1c-0.2,0.3-0.4,0.6-0.6,0.8h1v0.4h-2.3c-0.1,0.2-0.2,0.4-0.4,0.7h3.1v0.4H46.7z M47,3.5
				c-0.3-0.2-0.5-0.5-0.7-0.7h-1.4c-0.2,0.3-0.5,0.5-0.8,0.7H47z"/>
			<path fill="#0C56AB" d="M50.9,1.8c-0.2,2-0.8,3.2-1.7,3.9c-0.1-0.1-0.2-0.2-0.3-0.3c0.5-0.3,0.9-0.8,1.1-1.5
				c-0.2-0.2-0.4-0.5-0.7-0.8c-0.1,0.2-0.2,0.3-0.3,0.5c0-0.1-0.2-0.2-0.3-0.3c0.4-0.6,0.7-1.5,0.8-2.4H49V0.5H51v0.4h-1
				c-0.1,0.3-0.1,0.6-0.2,0.9h0.8l0.1,0L50.9,1.8z M49.8,2.1c-0.1,0.2-0.1,0.5-0.2,0.7C49.8,3,50,3.3,50.2,3.5
				c0.1-0.4,0.2-0.9,0.3-1.4H49.8z M54.3,5.2v0.3h-3.6V5.2h0.6V1.8h0.8c0-0.2,0.1-0.3,0.1-0.5H51V1h1.2c0-0.2,0.1-0.5,0.1-0.7l0.4,0
				c0,0.2-0.1,0.4-0.1,0.7h1.5v0.3h-1.6c0,0.2-0.1,0.4-0.1,0.5h1.3v3.4H54.3z M51.7,2.1v0.5h1.8V2.1H51.7z M53.4,3h-1.8v0.5h1.8V3z
				 M51.7,3.8v0.5h1.8V3.8H51.7z M51.7,5.2h1.8V4.7h-1.8V5.2z"/>
			<path fill="#0C56AB" d="M56.6,2.1h1.3v0.4h-1.3v0.2c0.3,0.3,1,1,1.2,1.2l-0.2,0.3c-0.2-0.2-0.6-0.7-0.9-1v2.7h-0.4V3.1
				c-0.3,0.7-0.8,1.4-1.2,1.8c0-0.1-0.1-0.3-0.2-0.4c0.5-0.5,1-1.3,1.3-2.1h-1.2V2.1h1.3V1c-0.4,0.1-0.8,0.1-1.2,0.2
				C55,1.1,55,1,54.9,0.9c0.9-0.1,1.9-0.3,2.5-0.6l0.3,0.3c-0.3,0.1-0.7,0.2-1.1,0.3V2.1z M58.8,4.3h-0.4V1h0.4V4.3z M60,0.3v4.8
				c0,0.3-0.1,0.4-0.3,0.5c-0.2,0.1-0.5,0.1-1.1,0.1c0-0.1-0.1-0.3-0.1-0.4c0.4,0,0.8,0,0.9,0c0.1,0,0.2,0,0.2-0.2V0.3H60z"/>
			<path fill="#0C56AB" d="M66.3,4.4h-2.5v1.3h-0.4V4.4h-2.5V4.1h2.5V3.6h0.4v0.5h2.5V4.4z M62.5,2.9c-0.5,0.2-1,0.5-1.3,0.7L61,3.3
				c0.4-0.2,0.9-0.4,1.5-0.7L62.5,2.9z M64.6,3.6c0-0.1-0.1-0.2-0.2-0.3c-1.6,0.2-1.8,0.2-1.9,0.2c0-0.1-0.1-0.3-0.1-0.4
				c0.1,0,0.3-0.1,0.5-0.3c0.1-0.1,0.4-0.3,0.7-0.7c-0.7,0.1-0.9,0.1-0.9,0.1c0-0.1-0.1-0.3-0.1-0.3c0.1,0,0.2-0.1,0.3-0.2
				c0.1-0.1,0.3-0.3,0.5-0.6H61V0.8h2.5c-0.1-0.2-0.2-0.3-0.3-0.5l0.4-0.1c0.1,0.2,0.3,0.4,0.4,0.6h2.2v0.4h-2.5
				c-0.2,0.3-0.4,0.6-0.6,0.8l0.8-0.1c0.1-0.2,0.3-0.3,0.4-0.5l0.3,0.2c-0.5,0.6-1,1.1-1.6,1.5L64.2,3c-0.1-0.1-0.2-0.3-0.3-0.4
				l0.3-0.1c0.3,0.3,0.6,0.7,0.7,1L64.6,3.6z M62,2.4c-0.2-0.2-0.6-0.5-0.9-0.7l0.3-0.2c0.3,0.2,0.7,0.5,0.9,0.7L62,2.4z M65.8,3.7
				c-0.2-0.2-0.8-0.6-1.2-0.9l0.3-0.2c0.4,0.2,0.9,0.6,1.2,0.8L65.8,3.7z M65.9,1.6c-0.3,0.3-0.6,0.6-0.9,0.8l-0.3-0.2
				C65,2,65.3,1.7,65.6,1.4L65.9,1.6z"/>
			<path fill="#0C56AB" d="M0.6,10.7c0-1.2,0.3-2.1,0.9-3l0.3,0.1C1.2,8.6,1,9.7,1,10.7s0.3,2,0.8,2.9l-0.3,0.1
				C0.9,12.8,0.6,11.9,0.6,10.7z"/>
			<path fill="#0C56AB" d="M2.2,9.4c0-0.9,0.4-1.4,1-1.4c0.6,0,1,0.5,1,1.4c0,0.9-0.4,1.4-1,1.4C2.6,10.8,2.2,10.3,2.2,9.4z
				 M3.8,9.4c0-0.7-0.2-1.1-0.6-1.1S2.6,8.7,2.6,9.4c0,0.7,0.2,1.1,0.6,1.1S3.8,10.1,3.8,9.4z M5.8,8.1h0.3l-2.4,4.5H3.3L5.8,8.1z
				 M5.3,11.2c0-0.9,0.4-1.4,1-1.4c0.6,0,1,0.5,1,1.4c0,0.9-0.4,1.4-1,1.4C5.6,12.6,5.3,12.1,5.3,11.2z M6.8,11.2
				c0-0.7-0.2-1.1-0.6-1.1c-0.4,0-0.6,0.4-0.6,1.1c0,0.7,0.2,1.1,0.6,1.1C6.6,12.3,6.8,11.9,6.8,11.2z"/>
			<path fill="#0C56AB" d="M7.7,13.6c0.5-0.9,0.8-1.9,0.8-2.9s-0.3-2-0.8-2.9L8,7.6c0.6,0.9,0.9,1.9,0.9,3c0,1.2-0.3,2.1-0.9,3
				L7.7,13.6z"/>
		</g>
	</g>
</g>
<g>
</g>
<g>
</g>
<g>
</g>
<g>
</g>
<g>
</g>
<g>
</g>
<g>
</g>
<g>
</g>
<g>
</g>
<g>
</g>
<g>
</g>
<g>
</g>
<g>
</g>
<g>
</g>
<g>
</g>
</svg>
