<?xml version="1.0" encoding="utf-8"?>
<!-- Generator: Adobe Illustrator 18.0.0, SVG Export Plug-In . SVG Version: 6.00 Build 0)  -->
<!DOCTYPE svg PUBLIC "-//W3C//DTD SVG 1.1//EN" "http://www.w3.org/Graphics/SVG/1.1/DTD/svg11.dtd">
<svg version="1.1" id="Layer_1" xmlns="http://www.w3.org/2000/svg" xmlns:xlink="http://www.w3.org/1999/xlink" x="0px" y="0px"
	 viewBox="0 0 92.7 70.6" enable-background="new 0 0 92.7 70.6" xml:space="preserve">
<g>
	<path fill="#0C56AB" d="M92.7,59L0,59L0,0l92.7,0L92.7,59z M3.8,55.2l85,0l0-51.3l-85,0L3.8,55.2z"/>
	<g>
		<rect x="1.9" y="1.9" fill="#FFFFFF" width="88.9" height="55.2"/>
	</g>
	<g>
		<defs>
			<rect id="SVGID_1_" x="6.2" y="6.6" width="80.1" height="46.1"/>
		</defs>
		<clipPath id="SVGID_2_">
			<use xlink:href="#SVGID_1_"  overflow="visible"/>
		</clipPath>
		<rect x="6.3" y="6.5" clip-path="url(#SVGID_2_)" fill="#FFFFFF" width="80.1" height="46.1"/>
		<circle clip-path="url(#SVGID_2_)" fill="#0C56AB" cx="6.3" cy="6.5" r="5.6"/>
		<circle clip-path="url(#SVGID_2_)" fill="#0C56AB" cx="86.3" cy="6.5" r="5.6"/>
		<circle clip-path="url(#SVGID_2_)" fill="#0C56AB" cx="6.3" cy="52.6" r="5.6"/>
		<circle clip-path="url(#SVGID_2_)" fill="#0C56AB" cx="86.3" cy="52.6" r="5.6"/>
		<use xlink:href="#SVGID_1_"  overflow="visible" fill="none" stroke="#0C56AB" stroke-width="2.3089" stroke-miterlimit="10"/>
	</g>
	<g>
		<circle fill="#0C56AB" cx="79.3" cy="30.7" r="2.1"/>
		<circle fill="#0C56AB" cx="13.4" cy="30.7" r="2.1"/>
	</g>
	<g>
		<polygon fill="#0C56AB" points="81.2,70.6 78.4,67.8 74.5,69.4 77.1,55.6 83.8,56.9 		"/>
		<polygon fill="#0C56AB" points="85.1,70.6 88,67.8 91.8,69.4 89.3,55.6 82.6,56.9 		"/>
		<circle fill="#0C56AB" cx="82.9" cy="51.4" r="8.1"/>
		<polygon fill="#FFFFFF" points="83,47.2 85.1,44.9 85.3,47.9 88.3,47.3 86.8,49.9 89.5,51.1 86.8,52.3 88.3,54.9 85.3,54.2 
			85.1,57.2 83,55 81,57.2 80.8,54.2 77.8,54.9 79.3,52.3 76.5,51.1 79.3,49.9 77.8,47.3 80.8,47.9 81,44.9 		"/>
	</g>
	
		<line fill="none" stroke="#0C56AB" stroke-width="0.5772" stroke-linecap="round" stroke-miterlimit="10" x1="20.4" y1="10.6" x2="72.4" y2="10.6"/>
	
		<line fill="none" stroke="#0C56AB" stroke-width="0.5772" stroke-linecap="round" stroke-miterlimit="10" x1="20.4" y1="14.7" x2="72.4" y2="14.7"/>
	
		<line fill="none" stroke="#0C56AB" stroke-width="0.5772" stroke-linecap="round" stroke-miterlimit="10" x1="20.4" y1="18.7" x2="72.4" y2="18.7"/>
	
		<line fill="none" stroke="#0C56AB" stroke-width="0.5772" stroke-linecap="round" stroke-miterlimit="10" x1="31.2" y1="22.7" x2="72.4" y2="22.7"/>
	
		<line fill="none" stroke="#0C56AB" stroke-width="0.5772" stroke-linecap="round" stroke-miterlimit="10" x1="31.2" y1="26.8" x2="72.4" y2="26.8"/>
	
		<line fill="none" stroke="#0C56AB" stroke-width="0.5772" stroke-linecap="round" stroke-miterlimit="10" x1="31.2" y1="30.8" x2="72.4" y2="30.8"/>
	
		<line fill="none" stroke="#0C56AB" stroke-width="0.5772" stroke-linecap="round" stroke-miterlimit="10" x1="31.2" y1="34.9" x2="72.4" y2="34.9"/>
	
		<line fill="none" stroke="#0C56AB" stroke-width="0.5772" stroke-linecap="round" stroke-miterlimit="10" x1="31.2" y1="38.9" x2="72.4" y2="38.9"/>
	
		<line fill="none" stroke="#0C56AB" stroke-width="0.5772" stroke-linecap="round" stroke-miterlimit="10" x1="20.4" y1="42.9" x2="72.4" y2="42.9"/>
	
		<line fill="none" stroke="#0C56AB" stroke-width="0.5772" stroke-linecap="round" stroke-miterlimit="10" x1="20.4" y1="47" x2="72.4" y2="47"/>
</g>
<g>
</g>
<g>
</g>
<g>
</g>
<g>
</g>
<g>
</g>
<g>
</g>
<g>
</g>
<g>
</g>
<g>
</g>
<g>
</g>
<g>
</g>
<g>
</g>
<g>
</g>
<g>
</g>
<g>
</g>
</svg>
