<?xml version="1.0" encoding="utf-8"?>
<!-- Generator: Adobe Illustrator 18.0.0, SVG Export Plug-In . SVG Version: 6.00 Build 0)  -->
<!DOCTYPE svg PUBLIC "-//W3C//DTD SVG 1.1//EN" "http://www.w3.org/Graphics/SVG/1.1/DTD/svg11.dtd">
<svg version="1.1" id="Layer_1" xmlns="http://www.w3.org/2000/svg" xmlns:xlink="http://www.w3.org/1999/xlink" x="0px" y="0px"
	 viewBox="0 0 146.9 141.2" enable-background="new 0 0 146.9 141.2" xml:space="preserve">
<g>
	<g>
		<g>
			<path fill="#0C56AB" d="M24.4,103.4c-1.2-0.6-2.8-1.3-5.4-1.3c-6,0-10.3,4-10.8,10.2c1.7-2.6,4.7-3.8,8.1-3.8
				c6.3,0,10.8,4.2,10.8,10.8c0,6.6-5.4,11-12.1,11c-8.1,0-12.7-6.6-12.7-14.8C2.3,104,9.5,97,19.3,97c2.9,0,5.4,0.7,6.8,1.6
				L24.4,103.4z M15,125.3c3.3,0,6.2-2.3,6.2-5.9c0-3.7-2.8-5.9-6.2-5.9s-6.2,2.2-6.2,5.9C8.8,123,11.7,125.3,15,125.3z"/>
		</g>
	</g>
	<g>
		<g>
			<g>
				<path fill="#FFFFFF" d="M72,70.9c-0.6,0.1-1-0.1-1.1-0.8c-0.2,0.5-0.4,0.9-1.1,0.8c0.5,0.4,0.6,0.8,0.3,1.4c0.5-0.5,1-0.6,1.5,0
					C71.3,71.7,71.5,71.3,72,70.9z"/>
				<path fill="#FFFFFF" d="M70.9,65.5c-0.2,0.3-0.2,0.6-0.4,0.7c-0.2,0.1-0.4,0.1-0.8,0.1c0.6,0.3,0.7,0.8,0.4,1.3
					c0.5-0.5,1-0.5,1.5-0.1c-0.4-0.6,0-0.9,0.4-1.3C71.4,66.4,71,66.3,70.9,65.5z"/>
				<path fill="#FFFFFF" d="M62.7,67.9c-0.2,0.6-0.5,0.9-1.1,0.8c0.5,0.4,0.6,0.8,0.2,1.4c0.4-0.2,0.6-0.4,0.8-0.4
					c0.2,0,0.5,0.2,0.8,0.3c0-0.3-0.2-0.5-0.1-0.7c0.1-0.2,0.3-0.3,0.5-0.5c0-0.1,0-0.1,0-0.2C63.2,68.8,62.9,68.6,62.7,67.9z"/>
				<path fill="#FFFFFF" d="M68.5,64c-0.2-0.1-0.2-0.4-0.4-0.8c-0.1,0.7-0.4,0.9-1,0.9c0.5,0.4,0.6,0.8,0.3,1.3c0.5-0.4,1-0.6,1.5,0
					c-0.4-0.6,0-0.9,0.4-1.3C69,64.1,68.7,64.1,68.5,64z"/>
				<path fill="#FFFFFF" d="M70.9,74.8c-0.5,0.7-0.5,0.7-1.2,0.8c0.7,0.3,0.6,0.8,0.4,1.3c0.5-0.5,1-0.6,1.5,0
					c-0.3-0.6-0.1-1,0.4-1.4C71.4,75.6,71,75.5,70.9,74.8z"/>
				<path fill="#FFFFFF" d="M71.2,61.7c-0.2-0.1-0.2-0.4-0.3-0.6c-0.1,0.6-0.5,0.8-1.1,0.7c0.5,0.4,0.6,0.8,0.3,1.3
					c0.5-0.5,1-0.5,1.5-0.1c-0.4-0.6,0-0.9,0.4-1.2c0,0-0.1-0.1-0.1-0.1C71.7,61.8,71.4,61.8,71.2,61.7z"/>
				<path fill="#FFFFFF" d="M66.6,66.4c-0.6,0.1-1,0-1.1-0.8c-0.2,0.6-0.5,0.9-1.1,0.8c0.5,0.4,0.6,0.8,0.4,1.3
					c0.2-0.1,0.5-0.4,0.7-0.4c0.2,0,0.5,0.2,0.9,0.4C65.8,67.1,66.2,66.8,66.6,66.4z"/>
				<path fill="#FFFFFF" d="M69.3,68.7c-0.6,0-1.1,0-1.1-0.8c-0.2,0.5-0.5,0.9-1.1,0.7c0.5,0.4,0.6,0.8,0.3,1.3c0.5-0.4,1-0.5,1.5,0
					C68.5,69.4,68.9,69.1,69.3,68.7z"/>
				<path fill="#FFFFFF" d="M65.5,74.8c-0.2,0.5-0.5,0.9-1.1,0.7c0.6,0.4,0.6,0.8,0.4,1.4c0.5-0.5,1-0.5,1.5,0
					c-0.4-0.6-0.1-1,0.4-1.4C66,75.6,65.6,75.5,65.5,74.8z"/>
				<path fill="#FFFFFF" d="M64.7,72.3c0.5-0.5,1-0.6,1.5,0c-0.4-0.6,0-1,0.4-1.4c-0.6,0.1-1-0.1-1.2-0.7c-0.1,0.6-0.5,0.8-1.1,0.8
					C64.9,71.3,64.9,71.8,64.7,72.3z"/>
				<path fill="#FFFFFF" d="M73.5,72.5c-0.1,0.6-0.5,0.9-1.1,0.8c0.5,0.4,0.6,0.8,0.3,1.4c0.5-0.5,1-0.5,1.5,0
					c-0.3-0.6-0.1-1,0.4-1.4C74,73.3,73.7,73.1,73.5,72.5z"/>
				<path fill="#FFFFFF" d="M65.9,61.7c-0.2-0.1-0.3-0.4-0.4-0.7c-0.1,0.5-0.4,0.9-1.1,0.7c0.2,0.3,0.5,0.5,0.5,0.7
					c0,0.2-0.1,0.4-0.1,0.7c0.3-0.2,0.5-0.4,0.8-0.4c0.2,0,0.5,0.2,0.7,0.3c-0.4-0.6,0-0.9,0.5-1.3C66.3,61.8,66,61.8,65.9,61.7z"/>
				<path fill="#FFFFFF" d="M67.4,60.9c0.5-0.6,1-0.5,1.6,0c-0.4-0.6-0.1-1,0.4-1.4c-0.6,0-1-0.1-1.2-0.8c-0.2,0.6-0.5,0.9-1.1,0.8
					C67.6,59.9,67.6,60.3,67.4,60.9z"/>
				<path fill="#FFFFFF" d="M68.2,72.5c-0.1,0.6-0.5,0.8-1.1,0.7c0.6,0.4,0.6,0.8,0.4,1.3c0.2-0.1,0.5-0.4,0.7-0.4
					c0.2,0,0.5,0.3,0.7,0.4c-0.3-0.6,0-1,0.5-1.3c-0.4,0-0.7,0-0.9-0.1C68.3,73.1,68.3,72.8,68.2,72.5z"/>
				<path fill="#FFFFFF" d="M80.9,67.8c0.5-0.6,1-0.5,1.5,0c-0.1-0.4-0.2-0.7-0.2-0.9c0.1-0.2,0.3-0.4,0.5-0.6c0,0,0-0.1,0-0.1
					c-0.6,0.2-1,0-1.1-0.7c-0.2,0.6-0.5,0.9-1.1,0.8C81.1,66.7,81.1,67.2,80.9,67.8z"/>
				<path fill="#FFFFFF" d="M95.2,78.2c-14.4,0-28.7,0-43.1,0c0.1,1,0.2,2,0.4,3c14.1,0,28.1,0,42.2,0C95,80.2,95.1,79.2,95.2,78.2z
					"/>
				<path fill="#FFFFFF" d="M81.6,74.8c-0.2,0.5-0.4,0.9-1.1,0.8c0.5,0.4,0.6,0.8,0.3,1.4c0.5-0.6,1-0.5,1.5,0
					c-0.4-0.6-0.1-1,0.4-1.4C82.2,75.6,81.7,75.5,81.6,74.8z"/>
				<path fill="#FFFFFF" d="M93.8,84.2c-13.4,0-26.9,0-40.3,0c0.5,2,1,3,1.7,4c12.3,0,24.6,0,37,0C92.8,87.2,93.3,86.2,93.8,84.2z"
					/>
				<path fill="#FFFFFF" d="M89.8,91.2c-10.8,0-21.5,0-32.3,0c1.1,1,2.4,2,3.9,3c8.2,0,16.4,0,24.6,0C87.3,93.2,88.6,92.2,89.8,91.2
					z"/>
				<path fill="#FFFFFF" d="M68.4,98.2c1.7,0,3.4,0.7,5.3,0.7c1.8,0,3.6-0.7,5.3-0.7C75.4,98.2,71.9,98.2,68.4,98.2z"/>
				<path fill="#FFFFFF" d="M80.8,63.1c0.5-0.4,1-0.5,1.6,0.1c-0.3-0.6-0.2-1,0.4-1.4c-0.6,0.1-1-0.1-1.1-0.8
					c-0.1,0.6-0.5,0.9-1.1,0.7c0.2,0.3,0.4,0.4,0.5,0.7C81,62.6,80.9,62.9,80.8,63.1z"/>
				<path fill="#FFFFFF" d="M75.5,72.3c0.5-0.5,1-0.6,1.5,0c-0.3-0.6-0.1-1,0.4-1.4c-0.6,0.1-1-0.1-1.1-0.8
					c-0.2,0.3-0.2,0.6-0.4,0.7c-0.2,0.1-0.4,0.1-0.8,0.1C75.6,71.3,75.7,71.8,75.5,72.3z"/>
				<path fill="#FFFFFF" d="M73.5,67.9c-0.2,0.6-0.5,0.9-1.1,0.7c0.4,0.6,0.4,0.6,0.4,1.4c0.5-0.4,1-0.6,1.5-0.1
					c-0.4-0.6,0-1,0.4-1.3C74.1,68.8,73.6,68.6,73.5,67.9z"/>
				<path fill="#FFFFFF" d="M73.5,63.3c-0.1,0.3-0.2,0.6-0.4,0.7c-0.2,0.1-0.4,0.1-0.8,0.1c0.6,0.3,0.7,0.8,0.4,1.3
					c0.5-0.5,1-0.5,1.5,0c-0.4-0.6,0-0.9,0.5-1.3c-0.4,0-0.7,0-0.9-0.1C73.7,63.9,73.7,63.6,73.5,63.3z"/>
				<path fill="#FFFFFF" d="M77.4,75.7c0,0-0.1-0.1-0.1-0.1c-0.2,0-0.5,0-0.7-0.1c-0.2-0.1-0.2-0.4-0.4-0.7
					c-0.1,0.7-0.4,0.9-1.1,0.8c0.6,0.4,0.6,0.8,0.4,1.4c0.5-0.6,1-0.5,1.5,0.1c-0.1-0.4-0.2-0.7-0.2-0.9
					C76.9,76,77.2,75.8,77.4,75.7z"/>
				<path fill="#FFFFFF" d="M82.8,70.9c-0.7,0.2-1-0.1-1.1-0.7c-0.2,0.5-0.4,0.9-1.1,0.8c0.5,0.4,0.6,0.8,0.2,1.4
					c0.4-0.2,0.6-0.4,0.8-0.4c0.2,0,0.5,0.3,0.7,0.4C82,71.7,82.3,71.3,82.8,70.9z"/>
				<path fill="#FFFFFF" d="M79.3,73.2c-0.2-0.1-0.2-0.4-0.4-0.7c-0.1,0.6-0.4,0.9-1.1,0.7c0.3,0.3,0.5,0.5,0.5,0.7
					c0,0.2-0.1,0.5-0.2,0.9c0.6-0.6,1-0.6,1.6-0.1c-0.3-0.6-0.1-1,0.5-1.3C79.8,73.2,79.5,73.3,79.3,73.2z"/>
				<path fill="#FFFFFF" d="M60.1,65.6c-0.2,0.6-0.5,0.9-1.1,0.7c0.5,0.4,0.6,0.8,0.3,1.3c0.5-0.5,1-0.5,1.5,0
					c-0.4-0.6,0-0.9,0.4-1.3C60.6,66.5,60.2,66.3,60.1,65.6z"/>
				<path fill="#FFFFFF" d="M75.4,63.2c0.3-0.2,0.6-0.5,0.8-0.5c0.2,0,0.5,0.2,0.7,0.4c0,0,0.1,0,0.1,0c-0.5-0.6-0.1-1,0.3-1.3
					c-0.6,0.1-1-0.1-1.1-0.8c-0.2,0.6-0.4,0.9-1.1,0.7c0.2,0.3,0.5,0.5,0.5,0.7C75.7,62.7,75.5,62.9,75.4,63.2z"/>
				<path fill="#FFFFFF" d="M78.1,65.5c0.3-0.1,0.5-0.4,0.8-0.4c0.2,0,0.5,0.3,0.8,0.4c-0.1-0.3-0.2-0.6-0.1-0.8
					c0.1-0.2,0.3-0.4,0.6-0.6c-0.3,0-0.6,0.1-0.8,0c-0.2-0.1-0.3-0.4-0.4-0.6c-0.1,0.2-0.2,0.5-0.4,0.6c-0.2,0.1-0.4,0.1-0.8,0.1
					C78.4,64.5,78.4,64.9,78.1,65.5z"/>
				<path fill="#FFFFFF" d="M75.4,58.6c0.5-0.6,1-0.5,1.5,0c-0.4-0.6-0.1-1,0.4-1.4c-0.6,0.1-1-0.1-1.1-0.8
					c-0.2,0.5-0.4,0.9-1.1,0.8C75.7,57.6,75.7,58.1,75.4,58.6z"/>
				<path fill="#FFFFFF" d="M78.2,60.9c0.5-0.6,1-0.5,1.5,0c-0.3-0.6-0.1-1,0.4-1.4c-0.6,0.1-1.1,0-1.2-0.8
					c-0.1,0.6-0.5,0.9-1.1,0.8C78.4,59.9,78.3,60.4,78.2,60.9z"/>
				<path fill="#FFFFFF" d="M54.7,74.8c-0.2,0.6-0.5,0.9-1.1,0.8c0.5,0.4,0.6,0.8,0.3,1.3c0.5-0.4,1-0.5,1.5,0c-0.4-0.6,0-1,0.4-1.3
					C55.2,75.6,54.8,75.5,54.7,74.8z"/>
				<path fill="#FFFFFF" d="M56.5,70.1c0.4-0.2,0.6-0.4,0.8-0.4c0.2,0,0.5,0.2,0.7,0.3c-0.3-0.6,0.1-0.9,0.5-1.2
					c-0.6,0.1-1-0.1-1.1-0.8c-0.1,0.6-0.5,0.8-1.1,0.8C56.8,69,56.8,69.5,56.5,70.1z"/>
				<path fill="#FFFFFF" d="M57.3,72.5c-0.1,0.7-0.5,0.9-1.1,0.8c0.5,0.4,0.6,0.8,0.3,1.3c0.5-0.5,1-0.5,1.5,0
					c-0.4-0.6-0.1-0.9,0.4-1.3C57.9,73.4,57.5,73.2,57.3,72.5z"/>
				<path fill="#FFFFFF" d="M61.2,75.6c-0.6,0-1-0.1-1.1-0.8c-0.2,0.5-0.4,0.9-1.1,0.8c0.5,0.4,0.6,0.8,0.3,1.3c0.5-0.5,1-0.5,1.5,0
					c0-0.3-0.2-0.6-0.1-0.8C60.8,75.9,61,75.8,61.2,75.6z"/>
				<path fill="#FFFFFF" d="M84.2,75.2c4,0,7.4,0,11,0c-0.1-1-0.3-3-0.6-4c-3.4,0-6.4,0-10.4,0C84.2,73.2,84.2,74.2,84.2,75.2z"/>
				<path fill="#FFFFFF" d="M53.9,72.3c0.5-0.5,1-0.5,1.5-0.1c-0.4-0.6-0.1-0.9,0.3-1.3c-0.2,0-0.5,0-0.7-0.1
					c-0.2-0.1-0.2-0.4-0.4-0.7c-0.1,0.6-0.4,0.9-1.1,0.8C54.2,71.3,54.1,71.8,53.9,72.3z"/>
				<path fill="#FFFFFF" d="M62.7,72.5c-0.2,0.6-0.5,0.9-1.1,0.8c0.5,0.4,0.6,0.8,0.3,1.4c0.4-0.2,0.6-0.5,0.8-0.5
					c0.2,0,0.5,0.3,0.7,0.4c-0.3-0.6-0.1-1,0.4-1.4C63.3,73.3,62.9,73.2,62.7,72.5z"/>
				<path fill="#FFFFFF" d="M59.3,63.2c0.5-0.5,1-0.6,1.5,0c-0.4-0.6-0.1-1,0.4-1.4c-0.6,0.1-1-0.1-1.2-0.8
					c-0.1,0.6-0.5,0.8-1.1,0.8C59.6,62.2,59.5,62.6,59.3,63.2z"/>
				<path fill="#FFFFFF" d="M72.8,60.9c0.5-0.7,1-0.5,1.5,0c-0.5-0.6-0.1-1,0.3-1.4c-0.6,0.1-1-0.1-1.1-0.8
					c-0.4,0.7-0.4,0.7-1.1,0.8C73.1,59.9,72.9,60.4,72.8,60.9z"/>
				<path fill="#FFFFFF" d="M70.1,58.6c0.2-0.2,0.5-0.3,0.7-0.5c0.2,0.2,0.5,0.3,0.7,0.5c-0.3-0.6,0-1,0.5-1.3
					c-0.6,0.1-1-0.1-1.1-0.8c-0.2,0.5-0.4,0.9-1.1,0.8C70.3,57.6,70.4,58,70.1,58.6z"/>
				<path fill="#FFFFFF" d="M77.4,66.4c-0.6,0.1-1-0.1-1.1-0.8c-0.2,0.6-0.5,0.9-1.1,0.8c0.6,0.3,0.6,0.8,0.4,1.4
					c0.5-0.6,1-0.5,1.5,0C76.7,67.1,76.9,66.7,77.4,66.4z"/>
				<path fill="#FFFFFF" d="M80.1,68.7c-0.6,0.1-1-0.1-1.2-0.7c-0.2,0.6-0.5,0.9-1.1,0.8c0.5,0.4,0.5,0.8,0.3,1.4
					c0.5-0.6,1-0.5,1.5,0C79.3,69.4,79.6,69,80.1,68.7z"/>
				<path fill="#FFFFFF" d="M64.7,58.6c0.5-0.6,1-0.5,1.5,0c-0.4-0.6-0.1-1,0.4-1.4c-0.5,0.1-0.8,0-1-0.3c-0.2,0.1-0.3,0.1-0.5,0.2
					c-0.1,0.1-0.2,0.2-0.4,0.2c-0.1,0-0.2,0.1-0.3,0.1C64.9,57.7,64.9,58.1,64.7,58.6z"/>
				<path fill="#FFFFFF" d="M84.3,61.6c0,0.1,0.2,0.4,0.3,0.5c1.3,0,2.6,0.2,4,0.2c0.2,0,0.4,0,0.6,0c-1.3-2-2.7-3-4.2-4
					c-0.2,0-0.4,0-0.6,0C84.3,59.2,84.3,60.5,84.3,61.6z"/>
				<path fill="#FFFFFF" d="M62,60.9c0.5-0.6,1-0.5,1.6,0c-0.4-0.6-0.1-1,0.4-1.4c-0.6,0-1.1,0-1.1-0.8c-0.2,0.4-0.3,0.6-0.4,0.7
					c-0.2,0.1-0.4,0.1-0.8,0.1C62.2,59.9,62.2,60.4,62,60.9z"/>
				<path fill="#FFFFFF" d="M84.3,65.6c0,0.8,0,1.6,0,2.4c0,0.4,0.1,0.4,0.5,0.4c1.8,0,3.7-0.2,5.5-0.2c1.1,0,2.1,0,3.2,0
					c-0.5-1-1.1-2-1.8-3c-2.5,0-4.9,0-7.4,0C84.3,65.2,84.3,65.5,84.3,65.6z"/>
				<path fill="#FFFFFF" d="M80.5,57.2c0.6,0.3,0.5,0.8,0.4,1.4c0.5-0.6,1-0.5,1.5,0c-0.3-0.5-0.1-0.9,0.3-1.3
					c-0.1,0-0.1-0.1-0.2-0.1c-0.2,0-0.4-0.1-0.5-0.2c-0.1-0.1-0.3-0.1-0.4-0.1C81.3,57.2,81,57.3,80.5,57.2z"/>
				<path fill="#FFFFFF" d="M60.1,70.2c-0.2,0.5-0.4,0.9-1.2,0.7c0.2,0.3,0.5,0.5,0.5,0.7c0,0.2-0.1,0.4-0.1,0.7
					c0.5-0.4,1-0.4,1.5,0c-0.4-0.6-0.1-0.9,0.4-1.3C60.6,71,60.2,70.9,60.1,70.2z"/>
				<path fill="#FFFFFF" d="M55.4,67.7c-0.4-0.6,0-1,0.4-1.3c-0.4,0.1-0.7,0-0.9-0.2c-0.3,0.4-0.5,0.9-0.7,1.3
					C54.6,67.3,55,67.3,55.4,67.7z"/>
				<path fill="#FFFFFF" d="M56.6,65.4c0.5-0.4,1-0.5,1.5,0c-0.4-0.6,0-0.9,0.4-1.3c-0.6,0.1-1-0.1-1.1-0.8
					c-0.2,0.5-0.4,0.9-1.1,0.8c0,0,0,0,0,0C56.8,64.5,56.8,64.9,56.6,65.4z"/>
				<path fill="#FFFFFF" d="M62,65.4c0.5-0.4,1-0.5,1.5,0c-0.4-0.6-0.1-0.9,0.4-1.3c-0.6,0.1-1-0.1-1.1-0.8
					c-0.2,0.6-0.5,0.9-1.1,0.8C62.1,64.5,62.3,64.9,62,65.4z"/>
				<path fill="#2368B5" d="M95.2,77.1c0-0.7,0-1.8-0.1-1.8c-3.6,0-7,0-11,0c0-1,0-2,0-4c4,0,7,0,10.4,0c-0.3-1-0.6-2-1-3
					c-1.1,0-2.1,0-3.2,0c-1.8,0-3.7,0.1-5.5,0.2c-0.4,0-0.5-0.1-0.5-0.5c0-0.8,0-1.5,0-2.3c0-0.1,0-0.4,0-0.4c2.5,0,4.9,0,7.4,0
					c-0.8-1-1.6-2-2.6-3c-0.2,0-0.4,0-0.6,0c-1.3,0-2.6-0.1-4-0.2c-0.1,0-0.3-0.4-0.3-0.5c0-1,0-2.4,0-3.4c0.2,0,0.4,0,0.6,0
					c-0.7,0-1.5-0.7-2.3-1.1c-0.4,0.3-0.6,0.8-0.3,1.3c-0.5-0.5-1-0.5-1.5,0c0.2-0.5,0.3-1-0.4-1.4c0.5,0.1,0.8-0.1,1-0.4
					c-2.4-0.9-5.1-1.5-7.8-1.5c-2.8,0-5.5,0.6-8,1.6c0.2,0.3,0.5,0.4,1,0.3c-0.5,0.4-0.7,0.8-0.4,1.4c-0.5-0.5-1-0.6-1.5,0
					c0.2-0.5,0.2-0.9-0.2-1.2c-3.3,1.5-6.1,3.8-8.2,6.7c0.6,0.1,0.9-0.2,1.1-0.8c0.1,0.7,0.5,0.8,1.1,0.8c-0.4,0.4-0.8,0.7-0.4,1.3
					c-0.5-0.5-1-0.4-1.5,0c0.2-0.5,0.2-1-0.3-1.3c-0.5,0.7-0.9,1.3-1.4,2c0.2,0.2,0.5,0.3,0.9,0.2c-0.4,0.4-0.8,0.7-0.4,1.3
					c-0.4-0.4-0.8-0.4-1.2-0.2C52.8,70.4,52,73.6,52,77c0,0.4,0,1.3,0.1,1.3c14.4,0,28.7,0,43.1,0C95.2,78.2,95.2,77.5,95.2,77.1z
					 M54.6,70.2c0.2,0.3,0.2,0.6,0.4,0.7c0.2,0.1,0.5,0.1,0.7,0.1c-0.4,0.4-0.7,0.7-0.3,1.3c-0.5-0.4-1-0.4-1.5,0.1
					c0.2-0.5,0.2-1-0.3-1.3C54.2,71.1,54.5,70.8,54.6,70.2z M55.4,76.9c-0.5-0.5-1-0.4-1.5,0c0.3-0.5,0.2-1-0.3-1.3
					c0.6,0.1,0.9-0.2,1.1-0.8c0.1,0.7,0.6,0.8,1.1,0.7C55.4,75.9,55.1,76.3,55.4,76.9z M57.3,67.9c0.1,0.6,0.5,0.9,1.1,0.8
					c-0.3,0.4-0.8,0.7-0.5,1.2c-0.2-0.1-0.5-0.3-0.7-0.3c-0.2,0-0.5,0.2-0.8,0.4c0.3-0.6,0.3-1-0.3-1.3
					C56.8,68.8,57.2,68.6,57.3,67.9z M58.1,74.5c-0.5-0.4-1-0.4-1.5,0c0.2-0.5,0.2-1-0.3-1.3c0.6,0.1,1-0.1,1.1-0.8
					c0.1,0.7,0.5,0.9,1.1,0.8C58.1,73.6,57.8,73.9,58.1,74.5z M78.9,58.8c0.1,0.7,0.6,0.8,1.2,0.8c-0.5,0.4-0.7,0.8-0.4,1.4
					c-0.5-0.4-1-0.6-1.5,0c0.2-0.5,0.2-1-0.4-1.4C78.4,59.6,78.7,59.4,78.9,58.8z M78.5,64c0.2-0.1,0.2-0.4,0.4-0.6
					c0.2,0.3,0.2,0.5,0.4,0.6c0.2,0.1,0.5,0,0.8,0c-0.3,0.3-0.5,0.4-0.6,0.6c-0.1,0.2,0.1,0.5,0.1,0.8c-0.3-0.2-0.5-0.4-0.8-0.4
					c-0.2,0-0.5,0.3-0.8,0.4c0.3-0.5,0.2-1-0.4-1.3C78.1,64.1,78.4,64.1,78.5,64z M79.7,70.1c-0.5-0.5-1-0.6-1.5,0
					c0.2-0.6,0.2-1-0.3-1.4c0.6,0.1,0.9-0.2,1.1-0.8c0.1,0.7,0.5,0.9,1.2,0.7C79.6,69,79.3,69.4,79.7,70.1z M76.2,56.5
					c0.1,0.7,0.5,0.9,1.1,0.8c-0.5,0.4-0.8,0.7-0.4,1.4c-0.5-0.5-1-0.5-1.5,0c0.2-0.5,0.2-1-0.3-1.4C75.8,57.4,76,57,76.2,56.5z
					 M76.2,61.1c0.1,0.7,0.5,0.9,1.1,0.8c-0.4,0.4-0.8,0.7-0.3,1.3c0,0-0.1,0-0.1,0c-0.2-0.1-0.5-0.4-0.7-0.4
					c-0.2,0-0.5,0.3-0.8,0.5c0.1-0.3,0.2-0.6,0.2-0.8c0-0.2-0.3-0.4-0.5-0.7C75.8,62,76.1,61.6,76.2,61.1z M77,67.7
					c-0.5-0.5-1-0.5-1.5,0c0.2-0.6,0.3-1-0.4-1.4c0.7,0.1,1-0.2,1.1-0.8c0.1,0.7,0.5,0.9,1.1,0.8C76.9,66.7,76.7,67.1,77,67.7z
					 M73.5,58.7c0.1,0.7,0.5,0.9,1.1,0.8c-0.4,0.4-0.8,0.7-0.3,1.4c-0.6-0.5-1-0.6-1.5,0c0.1-0.6,0.3-1.1-0.4-1.4
					C73.2,59.5,73.2,59.5,73.5,58.7z M70.9,56.5c0.1,0.7,0.5,0.8,1.1,0.8c-0.5,0.4-0.8,0.7-0.5,1.3c-0.2-0.2-0.5-0.3-0.7-0.5
					c-0.2,0.2-0.5,0.3-0.7,0.5c0.2-0.5,0.2-1-0.4-1.3C70.5,57.4,70.7,57,70.9,56.5z M60.1,61c0.1,0.7,0.5,0.9,1.2,0.8
					c-0.4,0.4-0.8,0.8-0.4,1.4c-0.5-0.5-1-0.5-1.5,0c0.2-0.5,0.3-1-0.4-1.4C59.6,61.9,59.9,61.6,60.1,61z M60.8,67.7
					c-0.5-0.5-1-0.4-1.5,0c0.3-0.5,0.2-1-0.3-1.3c0.7,0.1,0.9-0.2,1.1-0.7c0.1,0.7,0.5,0.8,1.1,0.7C60.8,66.7,60.4,67.1,60.8,67.7z
					 M60.8,76.9c-0.5-0.5-1-0.5-1.5,0c0.3-0.6,0.1-0.9-0.3-1.3c0.7,0.2,0.9-0.2,1.1-0.8c0.1,0.7,0.5,0.9,1.1,0.8
					c-0.2,0.2-0.4,0.3-0.5,0.5C60.6,76.3,60.8,76.5,60.8,76.9z M60.8,72.2c-0.5-0.5-1-0.4-1.5,0c0.1-0.2,0.2-0.5,0.1-0.7
					c-0.1-0.2-0.3-0.4-0.5-0.7c0.7,0.2,1-0.2,1.2-0.7c0.1,0.7,0.5,0.9,1.2,0.8C60.8,71.3,60.5,71.6,60.8,72.2z M62.4,59.4
					c0.2-0.1,0.2-0.4,0.4-0.7c0,0.8,0.5,0.8,1.1,0.8c-0.5,0.4-0.7,0.8-0.4,1.4c-0.5-0.5-1-0.6-1.6,0c0.2-0.6,0.2-1-0.4-1.4
					C61.9,59.5,62.2,59.5,62.4,59.4z M62.7,63.3c0.1,0.7,0.5,0.8,1.1,0.8c-0.5,0.3-0.7,0.7-0.4,1.3c-0.5-0.5-1-0.4-1.5,0
					c0.3-0.5,0.2-0.9-0.3-1.3C62.3,64.2,62.6,63.9,62.7,63.3z M63.4,74.6c-0.2-0.1-0.5-0.4-0.7-0.4c-0.2,0-0.5,0.3-0.8,0.5
					c0.3-0.6,0.3-1-0.3-1.4c0.6,0.1,0.9-0.2,1.1-0.8c0.1,0.7,0.5,0.9,1.2,0.8C63.4,73.6,63.2,74,63.4,74.6z M63.4,69.3
					c-0.1,0.2,0.1,0.4,0.1,0.7c-0.3-0.1-0.5-0.3-0.8-0.3c-0.2,0-0.5,0.2-0.8,0.4c0.3-0.6,0.3-1-0.2-1.4c0.6,0.1,0.9-0.2,1.1-0.8
					c0.1,0.7,0.5,0.9,1.2,0.7c0,0.1,0,0.1,0,0.2C63.7,68.9,63.5,69,63.4,69.3z M66.3,76.9c-0.5-0.5-1-0.5-1.5,0
					c0.2-0.6,0.2-1-0.4-1.4c0.7,0.2,0.9-0.2,1.1-0.7c0.1,0.7,0.5,0.8,1.1,0.8C66.2,75.9,65.8,76.3,66.3,76.9z M66.3,67.7
					c-0.4-0.2-0.6-0.4-0.9-0.4c-0.2,0-0.5,0.2-0.7,0.4c0.2-0.5,0.1-0.9-0.4-1.3c0.6,0.1,0.9-0.2,1.1-0.8c0.1,0.7,0.5,0.8,1.1,0.8
					C66.2,66.8,65.8,67.1,66.3,67.7z M65.5,70.2c0.1,0.7,0.5,0.9,1.2,0.7c-0.4,0.4-0.8,0.7-0.4,1.4c-0.5-0.6-1-0.5-1.5,0
					c0.2-0.5,0.2-1-0.3-1.4C65,71.1,65.3,70.8,65.5,70.2z M66.2,63.1c-0.2-0.1-0.5-0.3-0.7-0.3c-0.2,0-0.5,0.2-0.8,0.4
					c0.1-0.3,0.2-0.5,0.1-0.7c0-0.2-0.3-0.4-0.5-0.7c0.7,0.2,1-0.2,1.1-0.7c0.2,0.3,0.2,0.6,0.4,0.7c0.2,0.1,0.5,0,0.9,0.1
					C66.2,62.2,65.8,62.5,66.2,63.1z M68.1,58.8c0.1,0.7,0.6,0.8,1.2,0.8c-0.5,0.4-0.7,0.8-0.4,1.4c-0.5-0.5-1-0.6-1.6,0
					c0.3-0.6,0.2-1-0.3-1.4C67.7,59.6,68,59.4,68.1,58.8z M68.9,70c-0.5-0.5-1-0.4-1.5,0c0.3-0.5,0.2-1-0.3-1.3
					c0.7,0.1,0.9-0.2,1.1-0.7c0.1,0.8,0.6,0.8,1.1,0.8C68.9,69.1,68.5,69.4,68.9,70z M68.9,74.6c-0.2-0.1-0.5-0.4-0.7-0.4
					c-0.2,0-0.5,0.2-0.7,0.4c0.2-0.5,0.2-1-0.4-1.3c0.6,0,1-0.1,1.1-0.7c0.1,0.2,0.2,0.5,0.3,0.6c0.2,0.1,0.5,0.1,0.9,0.1
					C68.8,73.6,68.5,74,68.9,74.6z M68.9,65.4c-0.6-0.5-1-0.4-1.5,0c0.3-0.5,0.2-1-0.3-1.3c0.6,0.1,1-0.1,1-0.9
					c0.2,0.4,0.2,0.7,0.4,0.8c0.2,0.1,0.5,0.1,0.8,0.1C68.9,64.5,68.5,64.8,68.9,65.4z M71.6,72.3c-0.5-0.6-1-0.5-1.5,0
					c0.3-0.6,0.2-1-0.3-1.4c0.7,0.1,0.9-0.2,1.1-0.8c0.1,0.7,0.5,0.9,1.1,0.8C71.5,71.3,71.3,71.7,71.6,72.3z M71.6,67.7
					c-0.5-0.4-1-0.4-1.5,0.1c0.2-0.5,0.2-1-0.4-1.3c0.4,0,0.6,0,0.8-0.1c0.2-0.1,0.2-0.4,0.4-0.7c0.1,0.8,0.5,0.9,1.1,0.8
					C71.6,66.7,71.2,67,71.6,67.7z M71.6,76.9c-0.5-0.6-1-0.5-1.5,0c0.2-0.5,0.3-1-0.4-1.3c0.7-0.1,0.7-0.1,1.2-0.8
					c0.1,0.7,0.5,0.9,1.1,0.8C71.5,75.9,71.3,76.3,71.6,76.9z M71.6,63.1c-0.5-0.5-1-0.5-1.5,0.1c0.3-0.6,0.2-1-0.3-1.3
					c0.6,0,1-0.1,1.1-0.7c0.1,0.2,0.2,0.5,0.3,0.6c0.2,0.1,0.5,0.1,0.7,0.1c0,0,0.1,0.1,0.1,0.1C71.6,62.1,71.3,62.5,71.6,63.1z
					 M74.3,74.6c-0.5-0.5-1-0.5-1.5,0c0.3-0.6,0.2-1-0.3-1.4c0.6,0.1,0.9-0.2,1.1-0.8c0.1,0.6,0.5,0.9,1.1,0.8
					C74.2,73.6,74,74,74.3,74.6z M74.3,70c-0.5-0.5-1-0.4-1.5,0.1c0.1-0.8,0.1-0.8-0.4-1.4c0.6,0.2,0.9-0.1,1.1-0.7
					c0.1,0.7,0.5,0.8,1.1,0.8C74.3,69,73.9,69.4,74.3,70z M74.3,65.4c-0.5-0.4-1-0.4-1.5,0c0.3-0.5,0.2-1-0.4-1.3
					c0.4,0,0.6,0,0.8-0.1c0.2-0.1,0.2-0.4,0.4-0.7c0.1,0.3,0.2,0.6,0.4,0.7c0.2,0.1,0.5,0.1,0.9,0.1C74.3,64.4,73.9,64.8,74.3,65.4z
					 M75.9,70.9c0.2-0.1,0.2-0.4,0.4-0.7c0.1,0.7,0.5,0.9,1.1,0.8c-0.5,0.4-0.7,0.8-0.4,1.4c-0.5-0.6-1-0.5-1.5,0
					c0.3-0.6,0.2-1-0.4-1.4C75.4,70.9,75.7,71,75.9,70.9z M77,77c-0.5-0.6-1-0.7-1.5-0.1c0.2-0.6,0.2-1-0.4-1.4
					c0.6,0.1,0.9-0.2,1.1-0.8c0.2,0.3,0.2,0.6,0.4,0.7c0.2,0.1,0.5,0.1,0.7,0.1c0,0,0.1,0.1,0.1,0.1c-0.2,0.2-0.5,0.3-0.6,0.5
					C76.8,76.4,76.9,76.6,77,77z M79.7,74.6c-0.5-0.5-1-0.5-1.6,0.1c0.1-0.4,0.2-0.6,0.2-0.9c0-0.2-0.3-0.4-0.5-0.7
					c0.7,0.2,1-0.1,1.1-0.7c0.2,0.3,0.2,0.6,0.4,0.7c0.2,0.1,0.5,0,0.9,0.1C79.6,73.6,79.3,74,79.7,74.6z M82.3,72.3
					c-0.2-0.1-0.5-0.4-0.7-0.4c-0.2,0-0.5,0.2-0.8,0.4c0.3-0.6,0.3-1-0.2-1.4c0.7,0.1,0.9-0.2,1.1-0.8c0.1,0.7,0.5,0.9,1.1,0.7
					C82.3,71.3,82,71.7,82.3,72.3z M81.6,61c0.1,0.7,0.5,0.9,1.1,0.8c-0.6,0.4-0.7,0.8-0.4,1.4c-0.5-0.6-1-0.5-1.6-0.1
					c0.1-0.2,0.2-0.5,0.2-0.7c0-0.2-0.3-0.4-0.5-0.7C81.1,61.9,81.5,61.6,81.6,61z M81.6,65.6c0.1,0.7,0.5,0.9,1.1,0.7
					c0,0,0,0.1,0,0.1c-0.2,0.2-0.4,0.3-0.5,0.6c-0.1,0.2,0.1,0.5,0.2,0.9c-0.5-0.5-1-0.7-1.5,0c0.2-0.6,0.2-1-0.3-1.4
					C81.2,66.5,81.5,66.2,81.6,65.6z M82.4,76.9c-0.5-0.5-1-0.5-1.5,0c0.2-0.6,0.2-1-0.3-1.4c0.7,0.2,0.9-0.2,1.1-0.8
					c0.1,0.7,0.5,0.8,1.1,0.8C82.3,75.9,82,76.3,82.4,76.9z"/>
				<path fill="#2368B5" d="M82.4,57.2c-0.2-0.1-0.4-0.2-0.5-0.2C82,57.1,82.2,57.2,82.4,57.2z"/>
				<path fill="#2368B5" d="M65.1,57.1c-0.1,0.1-0.2,0.1-0.4,0.2C64.9,57.2,65,57.2,65.1,57.1z"/>
				<path fill="#2368B5" d="M85.9,94.2c-8.2,0-16.4,0-24.6,0c2.1,2,4.5,3,7,4c3.5,0,7,0,10.5,0C81.4,97.2,83.8,96.2,85.9,94.2z"/>
				<path fill="#2368B5" d="M92.1,88.2c-12.3,0-24.6,0-37,0c0.7,1,1.5,2,2.3,3c10.8,0,21.6,0,32.3,0C90.7,90.2,91.4,89.2,92.1,88.2z
					"/>
				<path fill="#2368B5" d="M94.7,81.2c-14.1,0-28.1,0-42.2,0c0.2,1,0.6,2,0.9,3c13.5,0,26.9,0,40.3,0
					C94.2,83.2,94.5,82.2,94.7,81.2z"/>
			</g>
			<g>
				<path fill="#0C56AB" d="M73.6,55.3c11.9,0,21.6,9.7,21.6,21.6c0,11.9-9.7,21.6-21.6,21.6C61.7,98.6,52,88.9,52,77
					C52,65,61.7,55.3,73.6,55.3 M73.6,52.9c-13.2,0-24,10.8-24,24c0,13.2,10.8,24,24,24c13.2,0,24-10.8,24-24
					C97.6,63.7,86.9,52.9,73.6,52.9L73.6,52.9z"/>
			</g>
		</g>
		<g>
			<g>
				<g>
					<path fill="#0C56AB" d="M107.3,4c19.6,0,35.6,15.9,35.6,35.6c0,19.6-15.9,35.6-35.6,35.6c-19.6,0-35.6-15.9-35.6-35.6
						C71.8,19.9,87.7,4,107.3,4 M107.3,0C85.5,0,67.7,17.8,67.7,39.6c0,21.8,17.8,39.6,39.6,39.6c21.8,0,39.6-17.8,39.6-39.6
						C146.9,17.8,129.1,0,107.3,0L107.3,0z"/>
				</g>
			</g>
			<circle fill="none" stroke="#FFFFFF" stroke-width="2.4128" stroke-miterlimit="10" cx="107.3" cy="39.6" r="35.6"/>
			<g>
				<defs>
					<circle id="SVGID_1_" cx="107.3" cy="39.6" r="35.2"/>
				</defs>
				<clipPath id="SVGID_2_">
					<use xlink:href="#SVGID_1_"  overflow="visible"/>
				</clipPath>
				<circle clip-path="url(#SVGID_2_)" fill="#FFFFFF" cx="107.3" cy="39.6" r="36.7"/>
				<g id="yq35wh_1_" clip-path="url(#SVGID_2_)">
					<g>
						<path fill="#2368B5" d="M82.3,30.6c0.2-1,0.3-1.8,0.5-2.7c0.1-0.3,0-0.5-0.2-0.7c-0.7-0.6-1.4-1.3-2-1.9c0,0,0.1-0.1,0.1-0.1
							c0.6-0.1,1.2-0.2,1.7-0.2c0.2,0,0.3-0.1,0.5-0.1c0.7,0.1,1-0.3,1.2-0.9c0.3-0.7,0.6-1.3,0.9-2.1c0.4,0.9,0.8,1.7,1.2,2.5
							c0.1,0.2,0.2,0.3,0.5,0.4c0.9,0.1,1.8,0.2,2.7,0.3c-0.5,0.5-0.8,1-1.3,1.4c-0.7,0.6-0.9,1.3-0.6,2.2c0.2,0.6,0.2,1.2,0.3,1.9
							c-0.7-0.3-1.3-0.6-1.8-1c-0.7-0.5-1.2-0.5-1.9,0C83.5,30,82.9,30.3,82.3,30.6z"/>
						<path fill="#2368B5" d="M120.4,55.8c0.4,0.9,0.8,1.7,1.2,2.5c0.1,0.3,0.3,0.4,0.6,0.4c0.8,0.1,1.6,0.2,2.4,0.3
							c0,0,0.1,0,0.2,0c-0.3,0.3-0.5,0.5-0.7,0.8c-0.3,0.3-0.5,0.7-0.9,0.9c-0.5,0.4-0.6,0.9-0.4,1.5c0.1,0.7,0.2,1.4,0.3,2.2
							c-0.8-0.4-1.5-0.8-2.2-1.3c-0.3-0.2-0.5-0.2-0.9,0c-0.7,0.4-1.4,0.8-2.2,1.3c0.1-0.8,0.2-1.6,0.4-2.3c0.1-0.6,0-1-0.4-1.4
							c-0.6-0.5-1.1-1-1.7-1.6c0,0,0.1-0.1,0.1-0.1c0.6-0.1,1.2-0.2,1.9-0.2c0.9,0,1.4-0.3,1.6-1.2C119.7,57,120.1,56.5,120.4,55.8z
							"/>
						<path fill="#2368B5" d="M129.7,21.9c0.4,0.9,0.8,1.7,1.2,2.5c0.1,0.3,0.3,0.4,0.5,0.4c0.9,0.1,1.7,0.2,2.7,0.3
							c-0.1,0.1-0.2,0.3-0.3,0.4c-0.6,0.6-1.1,1.1-1.7,1.7c-0.2,0.2-0.2,0.4-0.2,0.6c0.2,0.9,0.3,1.8,0.5,2.7
							c-0.1-0.1-0.2-0.1-0.3-0.1c-0.7-0.4-1.3-0.7-2-1.1c-0.3-0.2-0.5-0.2-0.7,0c-0.8,0.4-1.6,0.9-2.4,1.3c0.1-0.8,0.2-1.6,0.4-2.4
							c0.1-0.5,0-0.9-0.4-1.3c-0.6-0.5-1.1-1.1-1.7-1.8c0.9-0.1,1.7-0.2,2.5-0.3c0.4,0,0.6-0.1,0.8-0.5
							C128.9,23.5,129.3,22.8,129.7,21.9z"/>
						<path fill="#2368B5" d="M98.7,59.2c-0.7,0.6-1.3,1.3-2,1.9c-0.2,0.2-0.2,0.4-0.2,0.6c0.2,0.8,0.3,1.6,0.4,2.4
							c0,0.1,0,0.2,0,0.4c-0.8-0.4-1.5-0.8-2.2-1.2c-0.3-0.2-0.5-0.2-0.8,0c-0.7,0.4-1.4,0.8-2.2,1.3c0.1-0.8,0.1-1.5,0.3-2.2
							c0.1-0.6,0-1.1-0.5-1.5c-0.5-0.5-1-1.1-1.6-1.7c0.5-0.1,0.9-0.1,1.4-0.2c0.5-0.1,0.9-0.1,1.4-0.2c0.2,0,0.3-0.2,0.4-0.3
							c0.4-0.8,0.8-1.7,1.2-2.6c0.4,0.8,0.7,1.5,1,2.2c0.2,0.5,0.4,0.7,1,0.7c0.8,0,1.5,0.2,2.3,0.3C98.6,59.1,98.6,59.2,98.7,59.2z
							"/>
						<path fill="#2368B5" d="M79.2,43.9c0.2-1,0.3-1.9,0.5-2.8c0-0.2,0-0.4-0.2-0.6c-0.6-0.5-1.2-1.1-1.7-1.7
							c-0.1-0.1-0.1-0.2-0.3-0.3c0.9-0.2,1.8-0.3,2.7-0.5c0.2,0,0.3-0.2,0.4-0.3c0.4-0.8,0.8-1.7,1.2-2.6c0.2,0.3,0.3,0.6,0.4,0.9
							c0.1,0.2,0.2,0.4,0.3,0.6c0.2,0.4,0.3,1,0.7,1.3c0.4,0.3,0.9,0.2,1.4,0.3c0.5,0.1,1,0.2,1.5,0.3c-0.1,0.1-0.2,0.2-0.2,0.3
							c-0.5,0.6-1.1,1.1-1.6,1.6c-0.2,0.2-0.2,0.4-0.2,0.6c0.1,0.9,0.2,1.8,0.4,2.7c-0.6-0.4-1.3-0.6-1.8-1c-0.6-0.4-1.1-0.4-1.7,0
							C80.5,43.3,79.9,43.5,79.2,43.9z"/>
						<path fill="#2368B5" d="M130.1,43.9c0.1-1,0.2-1.9,0.4-2.7c0-0.2,0-0.4-0.2-0.6c-0.6-0.6-1.2-1.2-1.9-1.9
							c0.7-0.1,1.3-0.3,1.9-0.3c0.9,0,1.4-0.4,1.7-1.3c0.2-0.6,0.5-1.1,0.7-1.6c0,0,0,0,0.1-0.1c0.3,0.5,0.6,1.1,0.7,1.6
							c0.3,0.9,0.8,1.4,1.8,1.4c0.6,0,1.1,0.2,1.8,0.3c-0.1,0.1-0.2,0.2-0.3,0.3c-0.6,0.5-1.1,1.1-1.7,1.6c-0.2,0.2-0.2,0.4-0.2,0.6
							c0.2,0.9,0.3,1.7,0.5,2.6c0,0,0,0,0,0.1c-0.3-0.1-0.5-0.3-0.8-0.4c-0.5-0.3-1-0.6-1.5-0.9c-0.2-0.1-0.4-0.1-0.6,0
							C131.7,43,130.9,43.4,130.1,43.9z"/>
						<path fill="#2368B5" d="M116,16.5c1-0.2,1.8-0.3,2.7-0.5c0.3,0,0.4-0.2,0.6-0.4c0.4-0.8,0.7-1.5,1.1-2.3
							c0.4,0.8,0.8,1.6,1.2,2.4c0.1,0.2,0.3,0.3,0.5,0.4c0.9,0.1,1.7,0.3,2.7,0.5c-0.1,0.1-0.1,0.2-0.2,0.2
							c-0.5,0.6-1.1,1.1-1.7,1.7c-0.2,0.2-0.2,0.3-0.2,0.6c0.1,0.9,0.2,1.8,0.4,2.8c-0.1-0.1-0.2-0.1-0.3-0.1
							c-0.7-0.4-1.4-0.8-2-1.2c-0.2-0.1-0.4-0.1-0.6,0c-0.7,0.4-1.3,0.8-2,1.1c-0.1,0.1-0.2,0.1-0.4,0.2c0.1-0.6,0.2-1.2,0.3-1.8
							c0-0.1,0-0.3,0.1-0.4c0.3-0.7,0-1.2-0.6-1.7C117,17.6,116.5,17,116,16.5z"/>
						<path fill="#2368B5" d="M96.9,21.8c-0.8-0.4-1.5-0.8-2.1-1.2c-0.4-0.3-0.7-0.2-1.1,0c-0.7,0.4-1.4,0.8-2.1,1.2
							c0.1-0.8,0.1-1.5,0.3-2.2c0.1-0.7,0-1.1-0.5-1.6c-0.5-0.4-1-1-1.5-1.5c1-0.2,1.8-0.3,2.7-0.5c0.2,0,0.4-0.1,0.5-0.4
							c0.4-0.8,0.8-1.5,1.2-2.4c0.3,0.6,0.6,1.1,0.8,1.6c0.3,0.9,0.9,1.2,1.7,1.3c0.6,0,1.2,0.2,1.9,0.3c-0.5,0.5-0.9,0.9-1.4,1.3
							c-0.8,0.6-1,1.3-0.7,2.2C96.8,20.5,96.8,21.1,96.9,21.8z"/>
						<path fill="#2368B5" d="M80.6,50.3c1-0.2,1.9-0.3,2.8-0.5c0.2,0,0.3-0.2,0.4-0.3c0.4-0.7,0.7-1.4,1-2c0.1-0.1,0.1-0.2,0.2-0.4
							c0.4,0.8,0.8,1.6,1.2,2.4c0.1,0.2,0.2,0.3,0.5,0.4c0.9,0.1,1.8,0.3,2.7,0.5c-0.3,0.3-0.5,0.5-0.7,0.7c0,0,0,0-0.1,0.1
							c-0.4,0.5-1.1,0.9-1.3,1.5c-0.2,0.6,0.2,1.3,0.3,1.9c0.1,0.4,0.1,0.7,0.2,1.1c-0.9-0.5-1.7-0.9-2.5-1.3
							c-0.2-0.1-0.4-0.1-0.6,0c-0.6,0.4-1.3,0.7-1.9,1.1c-0.1,0.1-0.2,0.1-0.4,0.2c0.1-0.8,0.2-1.5,0.4-2.2c0.2-0.6,0.1-1.1-0.5-1.5
							C81.7,51.4,81.2,50.8,80.6,50.3z"/>
						<path fill="#2368B5" d="M126.9,55.6c0.2-1,0.3-1.9,0.5-2.8c0-0.2,0-0.4-0.1-0.5c-0.6-0.6-1.3-1.2-1.9-1.9c0,0,0-0.1,0.1-0.1
							c0.5-0.1,1-0.2,1.5-0.3c0.4-0.1,0.8-0.2,1.2-0.2c0.2,0,0.3-0.1,0.4-0.3c0.4-0.8,0.8-1.6,1.2-2.4c0.3,0.6,0.6,1.1,0.8,1.6
							c0.3,0.8,0.8,1.3,1.7,1.3c0.6,0,1.2,0.2,1.8,0.3c0,0,0,0,0.1,0.1c-0.2,0.2-0.3,0.3-0.5,0.5c-0.5,0.4-0.9,0.9-1.4,1.3
							c-0.2,0.2-0.3,0.4-0.2,0.7c0.2,0.8,0.3,1.6,0.4,2.4c0,0.1,0,0.2,0,0.4c-0.8-0.4-1.5-0.8-2.2-1.3c-0.3-0.2-0.5-0.2-0.8,0
							C128.5,54.7,127.7,55.1,126.9,55.6z"/>
						<path fill="#2368B5" d="M111.7,64.6c-0.6,0.6-1.1,1.2-1.7,1.7c-0.3,0.3-0.5,0.6-0.4,1.1c0.2,0.8,0.2,1.6,0.3,2.5
							c-0.6-0.3-1.2-0.6-1.8-1c-0.6-0.5-1.2-0.4-1.8,0c-0.5,0.4-1.1,0.6-1.7,1c0.1-0.7,0.1-1.3,0.3-2c0.2-0.8,0-1.4-0.6-1.9
							c-0.5-0.4-0.9-0.8-1.3-1.3c0,0,0-0.1,0.1-0.1c0.8-0.1,1.6-0.2,2.5-0.3c0.4,0,0.6-0.1,0.7-0.5c0.3-0.8,0.7-1.5,1.1-2.4
							c0.1,0.1,0.1,0.2,0.2,0.3c0.3,0.7,0.7,1.4,1,2.1c0.1,0.3,0.4,0.4,0.7,0.4C109.9,64.4,110.8,64.5,111.7,64.6z"/>
						<path fill="#2368B5" d="M104.7,17.7c0.1-0.9,0.2-1.8,0.4-2.7c0-0.3,0-0.5-0.2-0.7c-0.6-0.6-1.2-1.2-1.8-1.8c0,0,0-0.1,0-0.1
							c0.3,0,0.6-0.1,0.9-0.1c0.6-0.1,1.2-0.1,1.8-0.3c0.2,0,0.3-0.2,0.4-0.3c0.4-0.8,0.8-1.6,1.2-2.5c0.1,0.1,0.1,0.2,0.2,0.3
							c0.4,0.7,0.7,1.5,1.1,2.2c0.1,0.1,0.2,0.3,0.4,0.3c0.9,0.1,1.8,0.3,2.8,0.4c-0.6,0.7-1.2,1.3-1.9,1.9
							c-0.2,0.2-0.3,0.4-0.2,0.7c0.1,0.9,0.2,1.8,0.4,2.7c-0.3-0.1-0.5-0.3-0.7-0.4c-0.6-0.3-1.1-0.6-1.7-0.9
							c-0.2-0.1-0.4-0.1-0.6,0C106.3,16.8,105.5,17.3,104.7,17.7z"/>
					</g>
				</g>
			</g>
		</g>
	</g>
</g>
<g>
</g>
<g>
</g>
<g>
</g>
<g>
</g>
<g>
</g>
<g>
</g>
<g>
</g>
<g>
</g>
<g>
</g>
<g>
</g>
<g>
</g>
<g>
</g>
<g>
</g>
<g>
</g>
<g>
</g>
</svg>
