<?xml version="1.0" encoding="utf-8"?>
<!-- Generator: Adobe Illustrator 18.0.0, SVG Export Plug-In . SVG Version: 6.00 Build 0)  -->
<!DOCTYPE svg PUBLIC "-//W3C//DTD SVG 1.1//EN" "http://www.w3.org/Graphics/SVG/1.1/DTD/svg11.dtd">
<svg version="1.1" id="Layer_1" xmlns="http://www.w3.org/2000/svg" xmlns:xlink="http://www.w3.org/1999/xlink" x="0px" y="0px"
	 viewBox="0 0 96.1 77.8" enable-background="new 0 0 96.1 77.8" xml:space="preserve">
<g>
	<g>
		<g>
			<g>
				<path fill="#2368B5" d="M15,2.2c-0.3,2.7-1,4.4-2.3,5.3c-0.1-0.2-0.4-0.5-0.6-0.7c0.6-0.4,1-1,1.4-1.7c-0.2-0.2-0.4-0.5-0.6-0.7
					c-0.1,0.2-0.2,0.4-0.3,0.5c-0.1-0.2-0.4-0.6-0.6-0.7c0.5-0.7,0.8-1.7,1-2.8h-0.8V0.5H15v0.9h-1.1c0,0.2-0.1,0.5-0.1,0.7h0.6
					l0.2,0L15,2.2z M13.5,2.9c-0.1,0.3-0.2,0.5-0.2,0.7c0.2,0.2,0.4,0.4,0.6,0.6c0.1-0.4,0.2-0.8,0.3-1.3H13.5z M19.5,6.6v0.8h-4.9
					V6.6h0.8V2.1h1c0-0.2,0.1-0.3,0.1-0.5H15V0.9h1.5c0-0.3,0.1-0.6,0.1-0.8l1.1,0c0,0.3-0.1,0.5-0.2,0.8h1.8v0.8h-1.9
					c0,0.2-0.1,0.3-0.1,0.5h1.7v4.4H19.5z M16.2,2.8v0.4H18V2.8H16.2z M18,3.9h-1.8v0.4H18V3.9z M16.2,5v0.5H18V5H16.2z M16.2,6.6
					H18V6.1h-1.8V6.6z"/>
				<path fill="#2368B5" d="M22.6,2.4H24v0.9h-1.4v0.3c0.4,0.3,1.2,1,1.4,1.2l-0.5,0.8c-0.2-0.2-0.5-0.6-0.8-1v2.9h-1V4.7
					c-0.4,0.7-0.8,1.4-1.2,1.8c-0.1-0.3-0.3-0.7-0.5-0.9c0.6-0.6,1.2-1.5,1.5-2.3h-1.3V2.4h1.5v-1c-0.4,0.1-0.9,0.2-1.3,0.2
					c0-0.2-0.2-0.5-0.3-0.7c1.2-0.2,2.4-0.5,3.2-0.8l0.7,0.7c-0.4,0.2-0.8,0.3-1.3,0.4V2.4z M25.4,5.5h-1V1h1V5.5z M27.1,0.2v6.1
					c0,0.6-0.1,0.8-0.4,1c-0.3,0.2-0.9,0.2-1.6,0.2c0-0.3-0.2-0.7-0.3-1c0.5,0,1,0,1.2,0c0.2,0,0.2,0,0.2-0.2V0.2H27.1z"/>
				<path fill="#2368B5" d="M32.9,4.8c0-0.1-0.1-0.2-0.2-0.4c-1.9,0.2-2.2,0.2-2.4,0.3c0-0.2-0.2-0.6-0.3-0.8
					c-0.5,0.3-1.1,0.6-1.6,0.8L28.1,4c0.5-0.2,1.3-0.5,2-0.8l0.2,0.7L30.1,4c0.2,0,0.4-0.2,0.7-0.4c0.1-0.1,0.4-0.3,0.6-0.6
					c-0.6,0-0.8,0.1-0.9,0.1c0-0.2-0.2-0.5-0.3-0.7c0.1,0,0.2-0.1,0.4-0.3C30.7,2,30.9,1.8,31,1.6h-2.7V0.7h3
					c-0.1-0.2-0.2-0.3-0.3-0.5L32,0c0.2,0.2,0.3,0.5,0.4,0.7h2.8v0.9H32c-0.2,0.2-0.4,0.5-0.6,0.7l0.7,0c0.2-0.2,0.4-0.4,0.5-0.6
					L33.4,2c-0.5,0.6-1.2,1.3-1.8,1.8l0.8-0.1c-0.1-0.1-0.2-0.3-0.3-0.4l0.7-0.2c0.1,0.2,0.3,0.3,0.4,0.5l0.5-0.4
					c0.5,0.3,1.2,0.7,1.6,1l-0.7,0.6c-0.3-0.3-0.8-0.6-1.3-0.9c0.1,0.2,0.2,0.5,0.3,0.6L32.9,4.8z M35.4,6.1h-3.1v1.5h-1V6.1h-3.1
					V5.2h3.1V4.6h1v0.5h3.1V6.1z M29.5,3.2c-0.2-0.3-0.8-0.6-1.2-0.9l0.6-0.5c0.4,0.2,1,0.6,1.2,0.8L29.5,3.2z M33.2,2.7
					c0.3-0.2,0.8-0.7,1-1l0.8,0.5c-0.3,0.4-0.8,0.7-1.1,1L33.2,2.7z"/>
				<path fill="#2368B5" d="M41.8,4.3C42.3,4.6,43,4.9,43.6,5c-0.2,0.2-0.4,0.5-0.5,0.7c-0.9-0.2-1.7-0.7-2.3-1.3h-1.4
					c-0.1,0.1-0.3,0.2-0.4,0.3c0.7,0,1.4-0.1,1.8-0.2l0.5,0.4C41,4.9,40.7,5,40.4,5v0.3H42v0.5h-1.6V6h2.5v0.5h-2.5v0.2
					c0,0.4-0.1,0.6-0.5,0.7c-0.4,0.1-0.9,0.1-1.6,0.1c0-0.2-0.2-0.5-0.3-0.6c0.5,0,1.1,0,1.3,0c0.2,0,0.2,0,0.2-0.2V6.6h-3V6h3V5.8
					h-2V5.3c-0.4,0.2-0.8,0.3-1.3,0.4c0-0.2-0.2-0.6-0.3-0.8c0.7-0.1,1.4-0.3,2-0.6h-1.9V3.6h3c0.2-0.2,0.3-0.3,0.4-0.5l0.8,0.2
					c-0.1-0.1-0.3-0.3-0.5-0.4c-0.3,0.2-0.6,0.4-0.8,0.6c-0.1-0.1-0.4-0.3-0.6-0.5c0.3-0.1,0.6-0.3,0.8-0.5
					c-0.1-0.1-0.2-0.1-0.3-0.2l-0.5,0.5c-0.1-0.1-0.2-0.2-0.4-0.4v1.1h-0.8V2.5c-0.2,0.3-0.5,0.6-0.8,0.8c-0.1-0.2-0.2-0.6-0.3-0.8
					c0.3-0.2,0.7-0.6,1-1h-0.8V0.8h0.9V0.1H38v0.7h0.7v0.4C38.9,1.1,39,1,39.2,0.9c-0.2-0.1-0.4-0.2-0.5-0.3l0.5-0.4
					c0.2,0.1,0.4,0.2,0.6,0.3c0.1-0.1,0.3-0.2,0.3-0.4l0.7,0.2c-0.1,0.2-0.3,0.3-0.5,0.5c0.1,0.1,0.3,0.2,0.4,0.3V0.8h0.8V0.1h0.8
					v0.7h1v0.7h-1v0.1c0.3,0.2,1,0.8,1.2,0.9l-0.5,0.6c-0.1-0.2-0.4-0.5-0.7-0.7v1.1h-0.8V2.5c-0.1,0.2-0.3,0.4-0.4,0.5
					c-0.1-0.2-0.4-0.5-0.5-0.6c0.3-0.2,0.6-0.6,0.8-1h-0.7V1.3l-0.4,0.4c-0.1-0.1-0.3-0.3-0.5-0.4c-0.2,0.2-0.5,0.3-0.7,0.5
					c-0.1-0.1-0.2-0.2-0.3-0.3v0.1H38v0.1c0.2,0.1,0.5,0.3,0.8,0.5l0.4-0.4c0.2,0.1,0.4,0.2,0.5,0.3C39.8,1.9,40,1.8,40,1.6l0.7,0.2
					c-0.1,0.2-0.3,0.4-0.5,0.5c0.2,0.1,0.4,0.3,0.6,0.4l-0.5,0.5l0,0c-0.1,0.1-0.1,0.2-0.2,0.3h3.3v0.7H41.8z M39.5,5.1
					c-0.3,0-0.5,0-0.8,0c0-0.1-0.1-0.2-0.1-0.3C38.4,5,38,5.1,37.6,5.3h1.9V5.1z"/>
				<path fill="#2368B5" d="M51.4,4.1h-1.6v3.4h-1V4.1h-2.1c-0.1,1.3-0.5,2.6-2,3.4C44.6,7.3,44.2,7,44,6.8c1.3-0.7,1.7-1.7,1.8-2.7
					h-1.7V3.2h1.7V1.8c-0.4,0.1-0.9,0.2-1.4,0.3c0-0.2-0.2-0.6-0.3-0.8c1.2-0.3,2.6-0.7,3.4-1.2l0.7,0.8c-0.4,0.2-1,0.4-1.5,0.6v1.7
					h2v-3h1v3h1.6V4.1z"/>
				<path fill="#2368B5" d="M58.4,5.6c1,0.3,2.2,0.8,2.9,1.2l-0.4,0.8c-0.7-0.4-2.2-1-3.2-1.4L58,5.6h-0.3c-0.4,1-1.2,1.6-3.4,2
					c-0.1-0.3-0.3-0.7-0.5-0.9c1.6-0.2,2.4-0.6,2.7-1.1h-2.4V4.7h2.7c0-0.1,0-0.3,0.1-0.4H54V3.5h3.1V3.1h-2.4V2.3h2.4V1.9h-2.8V1
					h1.5c-0.1-0.2-0.3-0.5-0.4-0.7L56.2,0c0.2,0.3,0.5,0.7,0.6,0.9L56.5,1h1.8c0.2-0.3,0.4-0.7,0.6-1l1,0.3
					c-0.2,0.3-0.4,0.5-0.5,0.8h1.5v0.8H58v0.4h2.4v0.8H58v0.4h3.2v0.8h-3.3c0,0.1,0,0.3-0.1,0.4H61v0.8H58.4z"/>
				<path fill="#2368B5" d="M64.4,0.3c-0.2,0.5-0.4,1-0.7,1.5v5.7h-0.9V3.2c-0.2,0.3-0.4,0.5-0.6,0.7c-0.1-0.2-0.4-0.7-0.5-0.9
					c0.7-0.7,1.4-1.8,1.8-2.9L64.4,0.3z M66.5,6.5c-0.5,0.4-1.2,0.8-1.9,1.1c-0.2-0.2-0.5-0.5-0.7-0.7c0.6-0.2,1.3-0.5,1.7-0.8
					L66.5,6.5z M66.2,1h-1.8V0.5h1.8V0.1h1v0.4h1.8V1h-1.8v0.3h1.6v0.6h-1.6v0.3h2.1v0.6h-5.1V2.1h2.1V1.9h-1.6V1.3h1.6V1z
					 M67.9,6.1c0.5,0.3,1.1,0.7,1.5,1l-0.9,0.5c-0.3-0.3-0.9-0.8-1.5-1.1L67.9,6.1h-3.2V3h4.1v3.1H67.9z M67.8,3.6h-2.2v0.3h2.2V3.6
					z M67.8,4.4h-2.2v0.3h2.2V4.4z M67.8,5.2h-2.2v0.3h2.2V5.2z"/>
				<path fill="#2368B5" d="M76.1,4.1c-0.4,0.8-0.9,1.4-1.5,1.9c0.8,0.3,1.7,0.5,2.6,0.5c-0.2,0.2-0.5,0.6-0.6,0.9
					c-1.2-0.1-2.2-0.4-3.1-0.8c-0.9,0.4-2,0.7-3.1,0.9c-0.1-0.2-0.4-0.6-0.6-0.8c1-0.1,1.9-0.3,2.7-0.6c-0.5-0.3-0.9-0.8-1.3-1.3
					l0.3-0.1h-0.4V3.8h4l0.2,0L76.1,4.1z M71,4.1h-0.9V2.4h1.1c-0.1-0.2-0.2-0.6-0.4-0.8l0.7-0.2c-0.4,0-0.8,0-1.2,0
					c0-0.2-0.1-0.6-0.2-0.8c2.1-0.1,4.5-0.3,6-0.5l0.6,0.8c-0.9,0.2-1.9,0.3-3,0.4c0.2,0.3,0.3,0.7,0.4,1l-0.6,0.1H75
					c0.2-0.4,0.4-0.8,0.5-1.2l1,0.2c-0.2,0.3-0.4,0.7-0.6,1h1.1v1.7h-0.9V3.2H71V4.1z M73.7,1.2c-0.7,0.1-1.4,0.1-2,0.1
					c0.2,0.3,0.4,0.7,0.4,0.9l-0.4,0.1h1.5c0-0.3-0.2-0.7-0.3-1L73.7,1.2z M72.4,4.7c0.3,0.4,0.7,0.7,1.2,0.9
					C74,5.3,74.4,5,74.7,4.7H72.4z"/>
				<path fill="#2368B5" d="M85.3,3.4h-0.6v3.2c0,0.4-0.1,0.7-0.3,0.8c-0.2,0.2-0.6,0.2-1.1,0.2c0-0.2-0.1-0.5-0.2-0.7v0.1
					C82,7,80.8,7.1,79.9,7.1l-0.1-0.7c0.4,0,0.8,0,1.3-0.1V5.9h-1.1V5.2h1.1V4.9H80V2.6h1.2V2.2h-1.3v0c-0.1,0.2-0.3,0.5-0.4,0.7
					v4.6h-0.9V4.2c-0.2,0.2-0.3,0.4-0.5,0.5c-0.1-0.2-0.4-0.6-0.5-0.8c0.6-0.5,1.2-1.4,1.5-2.2L79.9,2V1.5h1.3V1.1
					c-0.4,0-0.7,0.1-1.1,0.1c0-0.2-0.1-0.5-0.2-0.7c1-0.1,2.1-0.2,2.8-0.4l0.5,0.7C82.8,0.9,82.4,1,81.9,1v0.5h1.3v0.7h-1.3v0.3h1.2
					v2.3h-1.2v0.3h1.2v0.7h-1.2v0.4c0.4,0,0.8-0.1,1.3-0.1v0.4c0.2,0,0.5,0,0.6,0c0.1,0,0.1,0,0.1-0.1V3.4h-0.6V2.5h2.1V3.4z
					 M79.9,0.4c-0.4,0.7-1.1,1.5-1.7,1.9c-0.1-0.2-0.3-0.5-0.5-0.7c0.5-0.4,1.1-1,1.3-1.5L79.9,0.4z M80.7,3.5h0.5V3.1h-0.5V3.5z
					 M81.2,4.3V4h-0.5v0.4H81.2z M81.9,3.1v0.4h0.5V3.1H81.9z M82.4,4h-0.5v0.4h0.5V4z M85.2,1.3h-1.8V0.5h1.8V1.3z"/>
				<path fill="#2368B5" d="M92.8,2.1C92.6,2.6,92.3,3,92,3.3c0.4,0.1,0.9,0.2,1.4,0.3C93.2,3.7,93,4,92.9,4.2
					c-0.3,0-0.6-0.1-0.8-0.2l0.5,0.4C91.9,4.6,91,4.7,90,4.7V5h2.4v0.6H90v0.2h3.3v0.6H90v0.3c0,0.4-0.1,0.6-0.4,0.7
					c-0.3,0.1-0.8,0.1-1.4,0.1c-0.1-0.2-0.2-0.5-0.3-0.7c0.4,0,0.9,0,1,0c0.1,0,0.2,0,0.2-0.1V6.4h-3.3V5.8h3.3V5.6h-2.6V5h2.6V4.8
					c-0.9,0-1.9,0-2.8,0c0-0.2-0.1-0.4-0.1-0.5c2,0,4.4,0,5.8-0.2c-0.3-0.1-0.6-0.2-0.8-0.3c-0.5,0.2-1,0.3-1.5,0.4
					c-0.1-0.2-0.2-0.4-0.3-0.6c0.4,0,0.8-0.1,1.2-0.2C90.3,3.1,90.1,3,90,2.8l0.4-0.1h-0.5V2c-0.1,0-0.2,0.1-0.3,0.1
					c-0.1-0.1-0.2-0.2-0.3-0.3v0.6h-1.2v0.2h1.4v0.5h-1.4v0.5h0.5V3.2h0.7V4h-3.1V3.2h0.6v0.4h0.5V3.1h-1.5V2.6h1.5V2.4h-1.1V1.1
					h1.1V0.9h-1.4V0.4h1.4V0.1h0.7v0.4h1.4v0.5h-1.4v0.2h1.2v0.4C89.9,1.3,90,1,90,0.7V0.3h1.5v0h0.8V1c0,0.2,0,0.2,0.1,0.2h0.4
					c0.1,0,0.3,0,0.4,0c0,0.2,0,0.5,0.1,0.7c-0.1,0-0.3,0-0.5,0h-0.5c-0.7,0-0.8-0.3-0.8-0.9v0h-0.7c0,0.4-0.2,0.8-0.8,1.1h2.3
					l0.1,0L92.8,2.1z M86.9,1.6h0.5V1.4h-0.5V1.6z M87.4,2.1V1.9h-0.5v0.2H87.4z M88.7,1.4h-0.6v0.2h0.6V1.4z M88.7,1.9h-0.6v0.2
					h0.6V1.9z M90.7,2.6C90.9,2.8,91,2.9,91.2,3c0.2-0.1,0.4-0.2,0.5-0.4H90.7z"/>
			</g>
		</g>
		<g>
			<g>
				<g>
					<defs>
						<circle id="SVGID_1_" cx="54.1" cy="27.8" r="15.4"/>
					</defs>
					<clipPath id="SVGID_2_">
						<use xlink:href="#SVGID_1_"  overflow="visible"/>
					</clipPath>
					<circle clip-path="url(#SVGID_2_)" fill="#FFFFFF" cx="54.1" cy="28.2" r="16.5"/>
					<g id="_x38_raAOr_3_" clip-path="url(#SVGID_2_)">
						<g>
							<path fill="#2368B5" d="M96.1,12.4c0,0.8,0,1.5,0,2.3c-11.5,0-23,0-34.5,0c0,0.8,0,1.5,0,2.2c0,0.1,0.2,0.2,0.2,0.2
								c0.9,0,1.9,0,2.8,0c5.2,0,10.5,0,15.7,0c4.7,0,9.4,0,14.1,0c0.5,0,1.1,0,1.7,0c0,0.8,0,1.5,0,2.3c-11.5,0-23,0-34.5,0
								c0,0.1,0,0.2,0,0.3c0,0.6,0,1.2,0,1.7c0,0.3,0.1,0.4,0.4,0.4c1.3,0,2.6,0,3.9,0c9.9,0,19.8,0,29.8,0c0.1,0,0.3,0,0.4,0
								c0,0.7,0,1.4,0,2.2c-11.5,0-23,0-34.5,0c0,0.8,0,1.6,0,2.4c11.5,0,23,0,34.5,0c0,0.8,0,1.5,0,2.3c-19.1,0-38.3,0-57.4,0
								c0-5.4,0-10.8,0-16.3C57.8,12.4,77,12.4,96.1,12.4z M58.9,13.7c0.5,0.2,0.4,0.6,0.3,1c0.4-0.4,0.7-0.4,1.1,0
								c-0.2-0.4-0.1-0.7,0.3-1c-0.5,0.1-0.7-0.1-0.8-0.5C59.6,13.6,59.4,13.8,58.9,13.7z M46.3,14.8c-0.1,0.2-0.2,0.4-0.3,0.5
								c-0.1,0.1-0.3,0-0.6,0.1c0.5,0.3,0.5,0.6,0.3,1c0.4-0.4,0.7-0.4,1.1,0c-0.3-0.4-0.1-0.7,0.3-1C46.7,15.4,46.4,15.4,46.3,14.8
								z M42.4,14.8c-0.1,0.5-0.3,0.6-0.8,0.6c0.4,0.3,0.4,0.6,0.2,1c0.3-0.2,0.4-0.4,0.6-0.4c0.2,0,0.3,0.2,0.5,0.3
								c-0.2-0.4,0-0.7,0.3-1C42.7,15.3,42.7,15.3,42.4,14.8z M43.9,18c0.4-0.4,0.7-0.4,1.1,0c-0.3-0.4,0-0.7,0.3-1
								c-0.5,0.1-0.7-0.1-0.8-0.5c-0.1,0.4-0.3,0.6-0.8,0.6C44.1,17.3,44,17.6,43.9,18z M39.8,17c0.3,0.4,0.3,0.4,0.3,1
								c0.2-0.1,0.4-0.2,0.5-0.4c0.2,0.1,0.3,0.2,0.5,0.3c-0.2-0.4,0-0.7,0.3-1c-0.4,0.1-0.7,0-0.8-0.5C40.4,16.9,40.2,17.1,39.8,17
								z M53.2,15.4c0.5,0.2,0.3,0.6,0.2,1c0.4-0.5,0.7-0.4,1.1,0c-0.3-0.5,0-0.7,0.2-1c-0.5,0.1-0.7-0.1-0.8-0.5
								C53.7,15.3,53.7,15.3,53.2,15.4z M57.8,18.1c-0.1,0.2-0.1,0.4-0.3,0.4c-0.1,0.1-0.3,0.1-0.6,0.1c0.4,0.3,0.5,0.6,0.3,0.9
								c0.2-0.1,0.4-0.3,0.5-0.3c0.2,0,0.4,0.2,0.6,0.3c0-0.2-0.1-0.4-0.1-0.5c0-0.2,0.2-0.3,0.4-0.5c-0.2,0-0.4,0.1-0.6,0
								C58,18.5,57.9,18.3,57.8,18.1z M41.7,18.6c0.4,0.3,0.4,0.6,0.2,0.9c0.4-0.3,0.7-0.4,1.1,0c-0.3-0.4,0-0.7,0.3-0.9
								c-0.4,0.1-0.7-0.1-0.8-0.5C42.3,18.5,42.2,18.7,41.7,18.6z M45.5,25.1c0.4,0.3,0.4,0.6,0.2,1c0.2-0.1,0.4-0.3,0.6-0.3
								c0.2,0,0.3,0.2,0.5,0.3c-0.2-0.4,0-0.7,0.3-1c-0.4,0.1-0.7,0-0.8-0.5C46.2,25,46,25.2,45.5,25.1z M58.6,15.4
								c-0.4,0-0.8,0-0.8-0.5c-0.1,0.4-0.3,0.6-0.8,0.5c0.4,0.2,0.4,0.6,0.3,1c0.4-0.4,0.7-0.3,1.1,0C58.1,15.9,58.3,15.6,58.6,15.4
								z M56.7,20.3c-0.4,0.1-0.7-0.1-0.8-0.5c-0.1,0.4-0.3,0.6-0.8,0.5c0.4,0.2,0.4,0.6,0.3,1c0.4-0.4,0.7-0.4,1.1,0
								C56.2,20.8,56.4,20.5,56.7,20.3z M44.4,19.7c-0.1,0.4-0.3,0.6-0.8,0.5c0.4,0.3,0.4,0.6,0.2,1c0.4-0.3,0.7-0.4,1.1,0
								c-0.3-0.4,0-0.7,0.3-0.9C44.8,20.3,44.5,20.2,44.4,19.7z M44.4,13.2c-0.1,0.2-0.1,0.3-0.3,0.4c-0.1,0.1-0.3,0.1-0.6,0.1
								c0.5,0.3,0.4,0.6,0.3,1c0.2-0.1,0.3-0.2,0.5-0.3c0.2,0.1,0.3,0.2,0.5,0.3c-0.1-0.4-0.1-0.7,0.3-0.9
								C44.7,13.7,44.7,13.7,44.4,13.2z M55.4,24.5c0.4-0.3,0.7-0.4,1.1,0c-0.2-0.4-0.1-0.7,0.3-1c-0.5,0.1-0.7-0.1-0.8-0.6
								c-0.1,0.2-0.2,0.4-0.3,0.5c-0.1,0.1-0.3,0.1-0.6,0.1C55.5,23.8,55.6,24.1,55.4,24.5z M47.5,26.8c0.4,0.3,0.4,0.6,0.3,1
								c0.4-0.4,0.7-0.4,1.1,0c-0.3-0.4-0.1-0.7,0.3-1c-0.4,0-0.7,0-0.8-0.5C48.1,26.6,47.9,26.9,47.5,26.8z M50.2,21.4
								c-0.1,0.4-0.3,0.6-0.8,0.5c0.4,0.3,0.4,0.6,0.2,1c0.4-0.3,0.7-0.4,1.1,0c-0.3-0.4,0-0.7,0.3-0.9
								C50.6,21.9,50.2,21.9,50.2,21.4z M60.5,17c-0.4,0.1-0.7-0.1-0.8-0.5c-0.1,0.4-0.3,0.6-0.8,0.5c0.2,0.2,0.3,0.3,0.3,0.5
								c0,0.2-0.1,0.3-0.1,0.5c0.4-0.3,0.7-0.4,1.1,0C60.1,17.6,60.2,17.3,60.5,17z M50.7,19.6c-0.3-0.4,0-0.7,0.3-0.9
								c-0.3,0-0.5,0-0.6-0.1c-0.1-0.1-0.2-0.3-0.3-0.6c0,0.5-0.3,0.7-0.7,0.6c0.4,0.3,0.4,0.5,0.2,0.9C50,19.3,50.3,19.2,50.7,19.6
								z M48.8,24.5c-0.3-0.5,0-0.7,0.3-1c-0.4,0.1-0.7,0-0.8-0.5c-0.1,0.4-0.3,0.6-0.8,0.5c0.4,0.3,0.4,0.6,0.2,1
								C48.1,24.1,48.4,24.1,48.8,24.5z M40,21.2c0.4-0.3,0.7-0.3,1.1,0c-0.3-0.4,0-0.7,0.3-0.9c-0.4,0.1-0.7-0.1-0.8-0.5
								c-0.1,0.5-0.4,0.6-0.8,0.6C40.1,20.5,40.2,20.8,40,21.2z M47.7,21.2c0.2-0.1,0.3-0.3,0.5-0.3c0.2,0,0.3,0.1,0.6,0.3
								c-0.4-0.5-0.1-0.7,0.2-1c-0.4,0.1-0.7,0-0.8-0.5c-0.1,0.4-0.3,0.6-0.8,0.5C47.8,20.5,47.9,20.8,47.7,21.2z M47.5,17
								c0.2,0.2,0.3,0.3,0.4,0.5c0,0.1-0.1,0.3-0.1,0.5c0.2-0.1,0.4-0.3,0.5-0.3c0.2,0,0.3,0.2,0.5,0.2c-0.3-0.4,0-0.7,0.4-0.9
								c-0.3,0-0.5,0-0.6,0c-0.1-0.1-0.2-0.3-0.3-0.5C48.1,16.8,48,17.1,47.5,17z M40.6,26.3c-0.1,0.4-0.3,0.6-0.8,0.5
								c0.4,0.3,0.4,0.6,0.2,0.9c0.4-0.3,0.7-0.4,1.1,0c-0.3-0.4,0-0.7,0.3-0.9C41,26.8,40.6,26.8,40.6,26.3z M57,21.9
								c0.4,0.3,0.4,0.6,0.2,1c0.4-0.4,0.7-0.4,1.1,0c-0.3-0.4,0-0.7,0.3-1c-0.4,0.1-0.7,0-0.8-0.5C57.7,21.8,57.5,22,57,21.9z
								 M49.6,16.4c0.4-0.4,0.7-0.4,1.1,0c-0.3-0.4-0.1-0.7,0.3-1c-0.4,0-0.7-0.1-0.8-0.5c-0.1,0.4-0.3,0.6-0.8,0.5
								C49.7,15.7,49.8,16,49.6,16.4z M57.8,24.6c-0.1,0.4-0.3,0.7-0.8,0.5c0.2,0.2,0.3,0.3,0.4,0.5c0,0.2-0.1,0.3-0.1,0.6
								c0.4-0.4,0.7-0.4,1.1-0.1c-0.2-0.4-0.1-0.7,0.3-1c-0.3,0-0.5,0-0.6-0.1C57.9,25,57.9,24.8,57.8,24.6z M49.7,26.1
								c0.2-0.1,0.3-0.3,0.5-0.3c0.2,0,0.3,0.2,0.5,0.3c-0.2-0.4,0-0.7,0.3-1c-0.3,0-0.5,0-0.6-0.1c-0.1-0.1-0.2-0.3-0.2-0.4
								c-0.1,0.4-0.4,0.5-0.8,0.5C49.8,25.4,49.8,25.7,49.7,26.1z M41.9,22.9c0.2-0.1,0.4-0.3,0.6-0.3c0.2,0,0.3,0.1,0.5,0.2
								c-0.2-0.4,0.1-0.6,0.3-0.9c-0.5,0.1-0.7-0.1-0.8-0.5c-0.1,0.4-0.3,0.6-0.8,0.6C42.1,22.1,42.1,22.5,41.9,22.9z M52.1,13.2
								c-0.1,0.4-0.3,0.7-0.8,0.5c0.4,0.3,0.4,0.6,0.3,1c0.2-0.1,0.3-0.2,0.5-0.3c0.2,0.1,0.3,0.2,0.5,0.3c-0.2-0.4,0-0.7,0.3-0.9
								C52.5,13.8,52.2,13.7,52.1,13.2z M52.9,17C52.9,17,52.9,17,52.9,17c-0.2-0.1-0.4,0-0.6-0.1c-0.1-0.1-0.2-0.3-0.2-0.4
								C52,16.9,51.7,17,51.3,17c0.4,0.3,0.4,0.6,0.2,1c0.4-0.4,0.7-0.4,1.1,0C52.4,17.5,52.6,17.2,52.9,17z M47.5,13.8
								c0.4,0.3,0.4,0.6,0.2,1c0.4-0.4,0.7-0.4,1.1,0c-0.3-0.4-0.1-0.7,0.3-1c-0.4,0.1-0.7,0-0.8-0.5C48.1,13.7,47.9,13.8,47.5,13.8
								z M59,26.8c0.4,0.3,0.4,0.6,0.2,1c0.4-0.4,0.7-0.4,1.1,0c-0.3-0.4-0.1-0.7,0.3-1c-0.4,0-0.8,0-0.8-0.5
								C59.6,26.6,59.4,26.9,59,26.8z M40,14.7c0.4-0.4,0.7-0.3,1.1,0c-0.2-0.4-0.1-0.7,0.3-1c-0.4,0-0.8-0.1-0.8-0.6
								c-0.1,0.2-0.2,0.4-0.3,0.5c-0.1,0.1-0.3,0.1-0.6,0.1C40.2,14,40.2,14.3,40,14.7z M47.1,18.6c-0.4,0-0.7-0.1-0.8-0.5
								c-0.1,0.4-0.3,0.6-0.8,0.5c0.4,0.3,0.4,0.5,0.2,0.9c0.4-0.3,0.7-0.4,1.1,0C46.6,19.1,46.8,18.9,47.1,18.6z M45.5,21.9
								c0.4,0.3,0.4,0.6,0.2,1c0.3-0.1,0.4-0.3,0.6-0.3c0.2,0,0.3,0.1,0.5,0.2c0-0.2-0.1-0.4-0.1-0.5c0.1-0.1,0.2-0.2,0.4-0.4
								c0,0,0-0.1,0-0.1c-0.5,0.2-0.7,0-0.8-0.5C46.2,21.8,46,22,45.5,21.9z M56.5,27.8c-0.1-0.3-0.2-0.5-0.1-0.6
								c0.1-0.1,0.3-0.2,0.4-0.3c0,0,0-0.1-0.1-0.1c-0.2,0-0.4,0-0.5-0.1c-0.1-0.1-0.2-0.3-0.3-0.5c-0.1,0.5-0.3,0.7-0.8,0.6
								c0.4,0.3,0.4,0.6,0.3,1C55.8,27.3,56.1,27.4,56.5,27.8z M59.2,21.3c0.4-0.5,0.7-0.4,1.1,0c-0.1-0.3-0.2-0.5-0.1-0.6
								c0-0.2,0.2-0.3,0.4-0.4c0,0,0-0.1,0-0.1c-0.4,0.1-0.7,0-0.8-0.5c-0.1,0.4-0.3,0.6-0.8,0.5C59.4,20.5,59.4,20.8,59.2,21.3z
								 M55.1,13.8c0.4,0.3,0.4,0.6,0.2,1c0.4-0.4,0.7-0.3,1.1,0c-0.3-0.4-0.1-0.7,0.3-1c-0.4,0.1-0.7-0.1-0.8-0.5
								C55.8,13.6,55.6,13.9,55.1,13.8z M55.3,18c0.2-0.1,0.4-0.3,0.6-0.3c0.2,0,0.3,0.2,0.5,0.3c0,0,0.1,0,0.1,0
								c-0.4-0.4-0.1-0.7,0.2-0.9c-0.4,0.1-0.7,0-0.8-0.5c-0.1,0.4-0.3,0.6-0.8,0.5c0.2,0.2,0.3,0.3,0.4,0.5
								C55.5,17.6,55.4,17.8,55.3,18z M52.1,23c-0.1,0.4-0.3,0.6-0.8,0.5c0.4,0.3,0.4,0.6,0.2,1c0.4-0.4,0.7-0.4,1.1,0
								c-0.2-0.4-0.1-0.7,0.3-1C52.5,23.6,52.2,23.4,52.1,23z M53.2,25.1c0.4,0.3,0.4,0.6,0.2,1c0.4-0.4,0.7-0.4,1.1,0
								c-0.2-0.4-0.1-0.7,0.3-1c-0.5,0.1-0.7-0.1-0.8-0.5C53.9,25,53.6,25.2,53.2,25.1z M54.9,18.6c-0.3,0-0.5,0-0.6-0.1
								c-0.1-0.1-0.2-0.3-0.3-0.5c-0.1,0.2-0.1,0.4-0.3,0.5c-0.1,0.1-0.3,0-0.6,0.1c0.4,0.2,0.5,0.5,0.3,0.9c0.4-0.3,0.7-0.3,1.1,0
								C54.2,19.1,54.5,18.9,54.9,18.6z M52.9,20.3c-0.4,0-0.7,0-0.8-0.6c-0.1,0.2-0.2,0.4-0.3,0.5c-0.1,0.1-0.3,0-0.6,0.1
								c0.4,0.2,0.5,0.6,0.3,0.9c0.3-0.4,0.7-0.3,1.1,0C52.3,20.7,52.6,20.5,52.9,20.3z M59,23.5c0.4,0.3,0.4,0.6,0.2,1
								c0.2-0.1,0.4-0.3,0.6-0.3c0.2,0,0.3,0.2,0.5,0.3c-0.2-0.4,0-0.7,0.3-1c-0.5,0.1-0.7-0.1-0.8-0.5C59.6,23.3,59.4,23.6,59,23.5
								z M53.5,22.9c0.3-0.3,0.7-0.4,1.1,0c-0.3-0.4,0-0.7,0.3-0.9c-0.4,0.1-0.7,0-0.8-0.5c-0.1,0.4-0.3,0.6-0.8,0.5
								C53.5,22.3,53.5,22.3,53.5,22.9z M52.6,27.7c-0.2-0.4-0.1-0.7,0.3-1c-0.4,0.1-0.7-0.1-0.8-0.6c-0.3,0.5-0.3,0.5-0.9,0.6
								c0.5,0.2,0.4,0.6,0.3,0.9C51.9,27.4,52.3,27.3,52.6,27.7z M43.9,27.7c0.4-0.3,0.7-0.3,1.1,0c0-0.2-0.1-0.4-0.1-0.6
								c0-0.1,0.2-0.2,0.3-0.3c-0.4,0-0.7-0.1-0.8-0.6c-0.1,0.4-0.3,0.7-0.8,0.5C44,27,44.1,27.3,43.9,27.7z M41.3,23.5
								c-0.2,0-0.4,0-0.5,0c-0.1-0.1-0.2-0.3-0.3-0.5c-0.1,0.4-0.3,0.6-0.7,0.6c0.4,0.2,0.4,0.6,0.2,0.9c0.4-0.3,0.7-0.4,1.1,0
								C40.9,24,41.1,23.8,41.3,23.5z M45.2,23.5c-0.5,0.1-0.7-0.1-0.8-0.6c-0.1,0.4-0.3,0.6-0.8,0.5c0.2,0.2,0.3,0.3,0.4,0.5
								c0,0.1-0.1,0.3-0.1,0.5c0.4-0.3,0.7-0.3,1.1,0C44.7,24,44.9,23.8,45.2,23.5z M43.3,25.2c-0.4,0.1-0.7-0.1-0.8-0.6
								c-0.1,0.5-0.3,0.6-0.8,0.6c0.4,0.3,0.4,0.6,0.2,0.9c0.4-0.3,0.7-0.3,1.1,0C42.8,25.6,43,25.4,43.3,25.2z"/>
							<path fill="#2368B5" d="M96.1,40.4c0,0.8,0,1.5,0,2.3c-19.1,0-38.3,0-57.4,0c0-0.8,0-1.5,0-2.3C57.8,40.4,77,40.4,96.1,40.4z
								"/>
							<path fill="#2368B5" d="M38.7,38c0-0.7,0-1.5,0-2.2c19.1,0,38.3,0,57.5,0c0,0.4,0,0.7,0,1.1c0,0.4,0,0.7,0,1.1
								C77,38,57.8,38,38.7,38z"/>
							<path fill="#2368B5" d="M38.7,33.3c0-0.7,0-1.5,0-2.2c19.1,0,38.3,0,57.4,0c0,0.7,0,1.5,0,2.2C77,33.3,57.8,33.3,38.7,33.3z"
								/>
						</g>
					</g>
				</g>
				<g>
					<path fill="#0C56AB" d="M54.1,12.4c8.5,0,15.4,6.9,15.4,15.4c0,8.5-6.9,15.4-15.4,15.4c-8.5,0-15.4-6.9-15.4-15.4
						C38.7,19.3,45.6,12.4,54.1,12.4 M54.1,11.6c-8.9,0-16.2,7.3-16.2,16.2S45.1,44,54.1,44c8.9,0,16.2-7.3,16.2-16.2
						S63,11.6,54.1,11.6L54.1,11.6z"/>
				</g>
			</g>
			<polygon fill="#2368B5" stroke="#FFFFFF" stroke-width="0.25" stroke-miterlimit="10" points="76.4,35.8 74,28.9 73.8,32.1 
				61.1,17.2 54.7,22.9 45.6,13.2 33.2,25.6 33.2,27.7 45.6,15.4 54.6,25.1 61,19.3 72.7,33.1 68.9,33.1 			"/>
			<g>
				<path fill="#2368B5" d="M72.5,60.5l-36.9,0l0-23.5l36.9,0L72.5,60.5z M37.1,58.9l33.9,0l0-20.5l-33.9,0L37.1,58.9z"/>
				<g>
					<rect x="36.3" y="37.7" fill="#FFFFFF" width="35.4" height="22"/>
				</g>
				<g>
					<defs>
						<rect id="SVGID_3_" x="38" y="39.5" width="31.9" height="18.4"/>
					</defs>
					<clipPath id="SVGID_4_">
						<use xlink:href="#SVGID_3_"  overflow="visible"/>
					</clipPath>
					<rect x="38.1" y="39.5" clip-path="url(#SVGID_4_)" fill="#FFFFFF" width="31.9" height="18.4"/>
					<circle clip-path="url(#SVGID_4_)" fill="#2368B5" cx="38.1" cy="39.5" r="2.2"/>
					<circle clip-path="url(#SVGID_4_)" fill="#2368B5" cx="70" cy="39.5" r="2.2"/>
					<circle clip-path="url(#SVGID_4_)" fill="#2368B5" cx="38.1" cy="57.9" r="2.2"/>
					<circle clip-path="url(#SVGID_4_)" fill="#2368B5" cx="69.9" cy="57.9" r="2.2"/>
					<use xlink:href="#SVGID_3_"  overflow="visible" fill="none" stroke="#0C56AB" stroke-width="1.1085" stroke-miterlimit="10"/>
				</g>
				<g>
					<circle fill="#2368B5" cx="67.2" cy="49.2" r="0.8"/>
					<circle fill="#2368B5" cx="40.9" cy="49.2" r="0.8"/>
				</g>
				<g>
					<polygon fill="#2368B5" points="67.9,65.1 66.8,64 65.3,64.6 66.3,59.1 69,59.6 					"/>
					<polygon fill="#2368B5" points="69.5,65.1 70.6,64 72.2,64.6 71.1,59.1 68.5,59.6 					"/>
					<circle fill="#2368B5" cx="68.6" cy="57.4" r="3.2"/>
					<polygon fill="#FFFFFF" points="68.7,55.7 69.5,54.8 69.6,56 70.8,55.8 70.1,56.8 71.3,57.3 70.1,57.8 70.8,58.8 69.6,58.5 
						69.5,59.7 68.7,58.8 67.9,59.7 67.8,58.5 66.6,58.8 67.2,57.8 66.1,57.3 67.2,56.8 66.6,55.8 67.8,56 67.9,54.8 					"/>
				</g>
				
					<line fill="none" stroke="#0C56AB" stroke-width="0.2771" stroke-linecap="round" stroke-miterlimit="10" x1="43.7" y1="41.2" x2="64.4" y2="41.2"/>
				
					<line fill="none" stroke="#0C56AB" stroke-width="0.2771" stroke-linecap="round" stroke-miterlimit="10" x1="43.7" y1="42.8" x2="64.4" y2="42.8"/>
				
					<line fill="none" stroke="#0C56AB" stroke-width="0.2771" stroke-linecap="round" stroke-miterlimit="10" x1="43.7" y1="44.4" x2="64.4" y2="44.4"/>
				
					<line fill="none" stroke="#0C56AB" stroke-width="0.2771" stroke-linecap="round" stroke-miterlimit="10" x1="48" y1="46" x2="64.4" y2="46"/>
				
					<line fill="none" stroke="#0C56AB" stroke-width="0.2771" stroke-linecap="round" stroke-miterlimit="10" x1="48" y1="47.6" x2="64.4" y2="47.6"/>
				
					<line fill="none" stroke="#0C56AB" stroke-width="0.2771" stroke-linecap="round" stroke-miterlimit="10" x1="48" y1="49.2" x2="64.4" y2="49.2"/>
				
					<line fill="none" stroke="#0C56AB" stroke-width="0.2771" stroke-linecap="round" stroke-miterlimit="10" x1="48" y1="50.8" x2="64.4" y2="50.8"/>
				
					<line fill="none" stroke="#0C56AB" stroke-width="0.2771" stroke-linecap="round" stroke-miterlimit="10" x1="48" y1="52.4" x2="64.4" y2="52.4"/>
				
					<line fill="none" stroke="#0C56AB" stroke-width="0.2771" stroke-linecap="round" stroke-miterlimit="10" x1="43.7" y1="54" x2="64.4" y2="54"/>
				
					<line fill="none" stroke="#0C56AB" stroke-width="0.2771" stroke-linecap="round" stroke-miterlimit="10" x1="43.7" y1="55.6" x2="64.4" y2="55.6"/>
			</g>
		</g>
	</g>
	<g>
		<g>
			<g>
				<path fill="#0C56AB" d="M6.9,66.8c-0.8,0.6-3.3,2.9-3.7,7.6H1.4C1.8,69.4,5,66.8,5,66.8H0.1v-1.5h6.8V66.8z"/>
			</g>
		</g>
	</g>
</g>
<g>
</g>
<g>
</g>
<g>
</g>
<g>
</g>
<g>
</g>
<g>
</g>
<g>
</g>
<g>
</g>
<g>
</g>
<g>
</g>
<g>
</g>
<g>
</g>
<g>
</g>
<g>
</g>
<g>
</g>
</svg>
