<?xml version="1.0" encoding="utf-8"?>
<!-- Generator: Adobe Illustrator 18.0.0, SVG Export Plug-In . SVG Version: 6.00 Build 0)  -->
<!DOCTYPE svg PUBLIC "-//W3C//DTD SVG 1.1//EN" "http://www.w3.org/Graphics/SVG/1.1/DTD/svg11.dtd">
<svg version="1.1" id="Layer_1" xmlns="http://www.w3.org/2000/svg" xmlns:xlink="http://www.w3.org/1999/xlink" x="0px" y="0px"
	 viewBox="0 0 88.8 100.9" enable-background="new 0 0 88.8 100.9" xml:space="preserve">
<g>
	<g>
		<circle fill="#C42A5E" cx="13.3" cy="13.3" r="13.3"/>
		<g>
			<path fill="#FFFFFF" d="M18.9,7.7c-1.2,1-5.4,4.8-6.1,12.4H9.9c0.6-8.3,5.8-12.4,5.8-12.4h-8V5.3h11.1V7.7z"/>
		</g>
	</g>
	<g>
		<g>
			<g>
				<defs>
					<circle id="SVGID_1_" cx="31.5" cy="50.2" r="20.9"/>
				</defs>
				<clipPath id="SVGID_2_">
					<use xlink:href="#SVGID_1_"  overflow="visible"/>
				</clipPath>
				<circle clip-path="url(#SVGID_2_)" fill="#FFFFFF" cx="31.6" cy="50.8" r="22.4"/>
				<g id="_x38_raAOr_3_" clip-path="url(#SVGID_2_)">
					<g>
						<path fill="#2368B5" d="M88.8,29.3c0,1,0,2,0,3.1c-15.6,0-31.3,0-46.9,0c0,1.1,0,2.1,0,3.1c0,0.1,0.2,0.2,0.3,0.2
							c1.3,0,2.6,0,3.8,0c7.1,0,14.2,0,21.3,0c6.4,0,12.8,0,19.2,0c0.7,0,1.5,0,2.3,0c0,1.1,0,2.1,0,3.1c-15.6,0-31.2,0-46.9,0
							c0,0.2,0,0.3,0,0.4c0,0.8,0,1.6,0,2.3c0,0.4,0.1,0.5,0.5,0.5c1.8,0,3.6,0,5.4,0c13.5,0,27,0,40.5,0c0.2,0,0.4,0,0.6,0
							c0,1,0,2,0,3c-15.6,0-31.2,0-46.9,0c0,1.1,0,2.2,0,3.3c15.6,0,31.2,0,46.9,0c0,1.1,0,2.1,0,3.1c-26,0-52.1,0-78.2,0
							c0-7.4,0-14.8,0-22.2C36.7,29.3,62.7,29.3,88.8,29.3z M38.2,31.1c0.6,0.3,0.5,0.8,0.4,1.3c0.5-0.5,1-0.5,1.5,0
							c-0.3-0.6-0.1-1,0.4-1.3c-0.6,0.1-1-0.1-1.1-0.7C39.1,30.9,38.8,31.2,38.2,31.1z M21,32.5c-0.2,0.3-0.3,0.6-0.4,0.7
							c-0.2,0.1-0.4,0.1-0.8,0.1c0.6,0.4,0.6,0.8,0.4,1.3c0.5-0.6,1-0.5,1.5,0c-0.4-0.6-0.1-1,0.4-1.3C21.5,33.3,21.1,33.3,21,32.5z
							 M15.7,32.5c-0.1,0.6-0.4,0.9-1,0.8c0.5,0.4,0.6,0.8,0.2,1.4c0.4-0.2,0.6-0.5,0.8-0.5c0.2,0,0.5,0.2,0.7,0.4
							c-0.3-0.6,0-1,0.5-1.3C16,33.2,16,33.2,15.7,32.5z M17.7,36.8c0.5-0.5,1-0.5,1.5,0c-0.4-0.6-0.1-1,0.4-1.3
							c-0.6,0.1-1-0.1-1.1-0.7c-0.1,0.6-0.5,0.8-1.1,0.8C17.9,35.9,17.9,36.3,17.7,36.8z M12.1,35.5c0.4,0.6,0.4,0.6,0.4,1.4
							c0.3-0.2,0.5-0.3,0.7-0.5c0.2,0.2,0.5,0.3,0.7,0.5c-0.3-0.6,0-1,0.4-1.3c-0.6,0.1-1-0.1-1.1-0.7C13,35.3,12.7,35.6,12.1,35.5z
							 M30.4,33.3c0.6,0.3,0.5,0.8,0.3,1.3c0.5-0.6,0.9-0.5,1.5,0c-0.5-0.6-0.1-1,0.3-1.3c-0.6,0.1-1-0.1-1.1-0.7
							C31.1,33.2,31.1,33.2,30.4,33.3z M36.6,37c-0.1,0.2-0.2,0.5-0.3,0.6c-0.2,0.1-0.4,0.1-0.8,0.1c0.6,0.4,0.6,0.8,0.4,1.3
							c0.3-0.1,0.5-0.4,0.7-0.4c0.2,0,0.5,0.2,0.8,0.4c-0.1-0.3-0.2-0.5-0.1-0.7c0.1-0.2,0.3-0.4,0.6-0.6c-0.3,0-0.6,0.1-0.8,0
							C36.9,37.6,36.8,37.3,36.6,37z M14.7,37.7c0.5,0.3,0.5,0.8,0.3,1.3c0.5-0.4,1-0.5,1.5,0c-0.4-0.6,0-0.9,0.4-1.3
							c-0.6,0.1-1-0.1-1.1-0.7C15.6,37.5,15.4,37.9,14.7,37.7z M19.9,46.6c0.5,0.4,0.5,0.8,0.3,1.4c0.3-0.2,0.6-0.5,0.8-0.4
							c0.2,0,0.5,0.3,0.7,0.4c-0.3-0.6-0.1-1,0.4-1.3c-0.6,0.1-1-0.1-1.1-0.7C20.8,46.4,20.5,46.7,19.9,46.6z M37.8,33.3
							c-0.6,0.1-1,0-1.1-0.7c-0.1,0.6-0.4,0.8-1.1,0.7c0.6,0.3,0.5,0.8,0.4,1.3c0.5-0.6,1-0.4,1.5,0C37.1,34,37.3,33.7,37.8,33.3z
							 M35.2,40c-0.6,0.1-1-0.1-1.1-0.7c-0.2,0.6-0.4,0.9-1.1,0.7c0.6,0.3,0.6,0.8,0.4,1.3c0.5-0.5,0.9-0.5,1.5,0
							C34.5,40.7,34.7,40.3,35.2,40z M18.4,39.2c-0.2,0.5-0.4,0.9-1.1,0.7c0.5,0.4,0.6,0.8,0.3,1.3c0.5-0.4,1-0.5,1.5,0
							c-0.4-0.6,0-0.9,0.3-1.3C18.9,40,18.5,39.9,18.4,39.2z M18.4,30.4c-0.1,0.2-0.2,0.5-0.4,0.6c-0.2,0.1-0.4,0.1-0.8,0.1
							c0.6,0.3,0.6,0.8,0.5,1.3c0.2-0.1,0.4-0.3,0.7-0.5c0.2,0.2,0.5,0.3,0.7,0.4c-0.2-0.5-0.1-1,0.5-1.3C18.7,31,18.7,31,18.4,30.4
							z M33.3,45.7c0.5-0.5,1-0.5,1.5,0c-0.3-0.6-0.1-1,0.4-1.3c-0.6,0.1-1-0.1-1.1-0.8c-0.2,0.3-0.2,0.6-0.4,0.7
							c-0.2,0.1-0.4,0.1-0.8,0.1C33.5,44.7,33.6,45.2,33.3,45.7z M22.5,48.8c0.6,0.3,0.6,0.8,0.4,1.3c0.5-0.5,1-0.5,1.5,0
							c-0.4-0.6-0.1-1,0.4-1.3c-0.6,0.1-1,0-1.1-0.7C23.5,48.6,23.2,49,22.5,48.8z M26.2,41.5c-0.2,0.5-0.5,0.9-1.1,0.7
							c0.5,0.4,0.6,0.8,0.3,1.3c0.5-0.4,1-0.5,1.5,0c-0.4-0.6,0-0.9,0.4-1.3C26.8,42.2,26.3,42.2,26.2,41.5z M40.4,35.5
							c-0.6,0.1-1-0.1-1.1-0.7c-0.1,0.6-0.5,0.8-1.1,0.7c0.2,0.3,0.4,0.4,0.5,0.6c0,0.2-0.1,0.5-0.2,0.7c0.5-0.4,1-0.5,1.5,0.1
							C39.7,36.3,39.8,35.9,40.4,35.5z M27,39c-0.4-0.6,0-0.9,0.4-1.3c-0.4,0-0.6,0-0.8-0.1c-0.2-0.1-0.2-0.4-0.4-0.8
							c-0.1,0.7-0.4,0.9-1,0.8c0.5,0.3,0.6,0.7,0.3,1.3C26,38.6,26.4,38.5,27,39z M24.4,45.7c-0.4-0.6,0-1,0.4-1.3
							c-0.6,0.1-1-0.1-1.1-0.7c-0.1,0.6-0.5,0.8-1.1,0.7c0.6,0.3,0.5,0.8,0.3,1.3C23.4,45.2,23.8,45.1,24.4,45.7z M12.5,41.2
							c0.5-0.4,1-0.5,1.5,0c-0.4-0.6,0-0.9,0.4-1.3c-0.6,0.1-1-0.1-1.1-0.7c-0.1,0.7-0.5,0.8-1,0.8C12.6,40.3,12.7,40.7,12.5,41.2z
							 M22.9,41.2c0.2-0.1,0.4-0.4,0.7-0.4c0.2,0,0.5,0.2,0.9,0.4c-0.5-0.6-0.1-1,0.3-1.3c-0.6,0.1-1,0-1.1-0.7
							c-0.2,0.6-0.5,0.8-1.1,0.7C23.1,40.3,23.2,40.7,22.9,41.2z M22.5,35.5c0.2,0.3,0.4,0.4,0.5,0.6c0,0.2-0.1,0.4-0.1,0.7
							c0.3-0.2,0.5-0.4,0.7-0.4c0.2,0,0.5,0.2,0.7,0.3c-0.4-0.6,0-0.9,0.5-1.2c-0.4,0-0.7,0-0.8-0.1c-0.2-0.1-0.2-0.4-0.4-0.7
							C23.5,35.3,23.2,35.7,22.5,35.5z M13.2,48.1c-0.2,0.5-0.5,0.8-1.1,0.7c0.5,0.4,0.6,0.8,0.3,1.3c0.5-0.4,1-0.5,1.5,0
							c-0.4-0.6,0-0.9,0.4-1.3C13.7,48.9,13.3,48.8,13.2,48.1z M35.6,42.2c0.5,0.4,0.5,0.8,0.3,1.3c0.5-0.6,1-0.5,1.5,0
							c-0.4-0.6-0.1-1,0.4-1.3c-0.6,0.1-1-0.1-1.1-0.7C36.5,42,36.2,42.3,35.6,42.2z M25.5,34.6c0.5-0.5,1-0.5,1.5,0
							c-0.3-0.6-0.1-1,0.4-1.3c-0.6,0-1-0.1-1.1-0.7c-0.2,0.6-0.5,0.8-1.1,0.7C25.6,33.7,25.7,34.1,25.5,34.6z M36.6,45.8
							c-0.1,0.6-0.4,0.9-1.1,0.7c0.2,0.3,0.5,0.4,0.5,0.6c0,0.2-0.1,0.5-0.2,0.8c0.5-0.6,1-0.5,1.5-0.1c-0.3-0.6-0.1-1,0.5-1.3
							c-0.4,0-0.7,0-0.8-0.1C36.8,46.4,36.8,46.1,36.6,45.8z M25.5,47.9c0.2-0.1,0.5-0.4,0.7-0.4c0.2,0,0.4,0.2,0.7,0.4
							c-0.3-0.6,0-1,0.5-1.3c-0.4,0-0.6,0-0.8-0.1c-0.2-0.1-0.2-0.4-0.3-0.6c-0.1,0.6-0.5,0.7-1.1,0.7C25.7,47,25.7,47.4,25.5,47.9z
							 M15,43.5c0.3-0.2,0.6-0.4,0.8-0.4c0.2,0,0.4,0.2,0.7,0.3c-0.3-0.6,0.1-0.9,0.4-1.2c-0.6,0.1-1-0.1-1.1-0.7
							c-0.1,0.6-0.5,0.8-1.1,0.8C15.3,42.5,15.3,42.9,15,43.5z M28.9,30.3c-0.2,0.5-0.4,0.9-1.1,0.7c0.5,0.4,0.6,0.8,0.4,1.3
							c0.2-0.1,0.5-0.3,0.7-0.4c0.2,0.2,0.4,0.3,0.7,0.4c-0.3-0.6,0-0.9,0.5-1.3C29.4,31.1,29,31,28.9,30.3z M30,35.5
							C30,35.5,29.9,35.5,30,35.5c-0.3-0.1-0.6,0-0.8-0.1C29,35.3,29,35,28.9,34.8c-0.1,0.6-0.5,0.7-1.1,0.7
							c0.5,0.3,0.6,0.8,0.3,1.3c0.5-0.5,1-0.5,1.5-0.1C29.2,36.2,29.6,35.8,30,35.5z M22.6,31.1c0.5,0.4,0.5,0.8,0.3,1.3
							c0.5-0.5,1-0.5,1.5,0c-0.4-0.6-0.1-1,0.4-1.3c-0.6,0.1-1-0.1-1.1-0.7C23.5,31,23.2,31.2,22.6,31.1z M38.2,48.8
							c0.5,0.4,0.6,0.8,0.3,1.3c0.5-0.6,1-0.5,1.5,0c-0.4-0.6-0.1-1,0.4-1.3c-0.6,0.1-1,0-1.1-0.7C39.1,48.6,38.9,49,38.2,48.8z
							 M12.4,32.4c0.5-0.6,1-0.5,1.5,0c-0.3-0.6-0.1-1,0.4-1.3c-0.6,0.1-1-0.1-1.1-0.8C13,30.6,13,30.9,12.8,31
							c-0.2,0.1-0.4,0.1-0.8,0.1C12.6,31.5,12.7,31.9,12.4,32.4z M22.1,37.7c-0.6,0.1-1-0.1-1.1-0.7c-0.2,0.5-0.4,0.9-1.1,0.7
							c0.5,0.4,0.6,0.7,0.3,1.3c0.5-0.4,1-0.5,1.5,0C21.4,38.4,21.7,38.1,22.1,37.7z M19.9,42.2c0.5,0.4,0.6,0.8,0.2,1.3
							c0.4-0.2,0.6-0.4,0.8-0.4c0.2,0,0.5,0.2,0.7,0.3c0-0.3-0.2-0.5-0.1-0.7c0.1-0.2,0.3-0.3,0.5-0.5c0,0,0-0.1,0-0.1
							c-0.6,0.2-1,0-1.1-0.6C20.8,42,20.5,42.3,19.9,42.2z M34.8,50.3c-0.1-0.4-0.2-0.7-0.2-0.8c0.1-0.2,0.4-0.3,0.6-0.5
							c0,0-0.1-0.1-0.1-0.1c-0.2,0-0.5,0-0.7-0.1c-0.2-0.1-0.2-0.4-0.4-0.7c-0.1,0.6-0.4,0.9-1,0.8c0.5,0.3,0.6,0.8,0.3,1.3
							C33.8,49.6,34.3,49.7,34.8,50.3z M38.5,41.3c0.5-0.6,1-0.5,1.5,0c-0.1-0.4-0.2-0.6-0.2-0.8c0.1-0.2,0.3-0.4,0.5-0.5
							c0,0,0-0.1,0-0.1c-0.6,0.2-1,0-1.1-0.7c-0.2,0.6-0.4,0.8-1.1,0.7C38.7,40.3,38.7,40.7,38.5,41.3z M33,31.1
							c0.5,0.4,0.5,0.8,0.3,1.3c0.5-0.5,1-0.5,1.5,0c-0.4-0.6-0.1-1,0.3-1.3c-0.6,0.1-1-0.1-1.1-0.7C33.9,30.9,33.6,31.2,33,31.1z
							 M33.3,36.9c0.3-0.2,0.5-0.5,0.8-0.5c0.2,0,0.5,0.2,0.7,0.4c0,0,0.1,0,0.1,0c-0.5-0.6-0.1-0.9,0.3-1.3c-0.6,0.1-1-0.1-1.1-0.7
							c-0.2,0.5-0.4,0.9-1.1,0.7c0.2,0.3,0.5,0.5,0.5,0.7C33.5,36.3,33.4,36.6,33.3,36.9z M28.8,43.6c-0.2,0.5-0.4,0.9-1.1,0.7
							c0.5,0.4,0.6,0.8,0.3,1.3c0.5-0.5,1-0.5,1.5,0c-0.3-0.6-0.1-1,0.4-1.3C29.3,44.5,29,44.3,28.8,43.6z M30.4,46.6
							c0.5,0.4,0.6,0.8,0.3,1.3c0.5-0.5,1-0.5,1.5,0c-0.3-0.6-0.1-1,0.4-1.3c-0.6,0.1-1-0.1-1.1-0.7C31.3,46.4,31,46.7,30.4,46.6z
							 M32.6,37.7c-0.4,0-0.7,0-0.9-0.1c-0.2-0.1-0.2-0.4-0.3-0.7c-0.1,0.3-0.2,0.5-0.4,0.7c-0.2,0.1-0.4,0.1-0.8,0.1
							c0.6,0.3,0.7,0.7,0.4,1.3c0.5-0.5,1-0.5,1.5,0C31.8,38.4,32.2,38.1,32.6,37.7z M30,39.9c-0.6,0.1-1-0.1-1.1-0.8
							c-0.2,0.3-0.2,0.6-0.4,0.7c-0.2,0.1-0.4,0.1-0.8,0.1c0.6,0.3,0.6,0.8,0.4,1.3c0.5-0.5,0.9-0.5,1.4-0.1
							C29.2,40.6,29.6,40.3,30,39.9z M38.2,44.4c0.5,0.4,0.5,0.8,0.2,1.3c0.3-0.2,0.6-0.4,0.8-0.4c0.2,0,0.5,0.2,0.7,0.4
							c-0.3-0.6-0.1-0.9,0.4-1.3c-0.6,0.2-1-0.1-1.1-0.7C39.1,44.1,38.9,44.5,38.2,44.4z M30.7,43.5c0.5-0.4,0.9-0.6,1.5,0
							c-0.4-0.6,0-0.9,0.4-1.3c-0.6,0.1-1,0-1.1-0.7c-0.2,0.6-0.5,0.8-1.1,0.7C30.8,42.7,30.8,42.7,30.7,43.5z M29.6,50.1
							c-0.3-0.6-0.1-1,0.4-1.3c-0.6,0.1-1-0.1-1.1-0.8c-0.5,0.7-0.5,0.7-1.2,0.8c0.6,0.3,0.6,0.8,0.4,1.3
							C28.6,49.6,29.1,49.6,29.6,50.1z M17.7,50.1c0.5-0.4,1-0.5,1.4,0c0-0.3-0.1-0.6-0.1-0.7c0.1-0.2,0.3-0.3,0.5-0.5
							c-0.6,0-1-0.1-1.1-0.8c-0.2,0.5-0.4,0.9-1.1,0.7C17.8,49.2,18,49.6,17.7,50.1z M14.2,44.4c-0.2,0-0.5,0-0.7-0.1
							c-0.2-0.1-0.2-0.4-0.4-0.7c-0.1,0.6-0.4,0.9-1,0.8c0.6,0.3,0.5,0.8,0.3,1.3c0.5-0.4,0.9-0.5,1.5-0.1
							C13.6,45,13.8,44.7,14.2,44.4z M19.5,44.4c-0.6,0.1-1-0.1-1.1-0.8c-0.2,0.5-0.4,0.9-1.1,0.7c0.2,0.3,0.5,0.4,0.5,0.6
							c0,0.2-0.1,0.4-0.1,0.7c0.5-0.4,1-0.4,1.5,0C18.8,45,19.1,44.7,19.5,44.4z M16.9,46.6c-0.6,0.1-1-0.1-1.1-0.8
							c-0.1,0.6-0.5,0.8-1,0.8c0.5,0.3,0.6,0.8,0.3,1.3c0.5-0.4,1-0.5,1.5,0C16.2,47.3,16.5,46.9,16.9,46.6z"/>
						<path fill="#2368B5" d="M88.8,67.4c0,1,0,2,0,3.1c-26.1,0-52.1,0-78.2,0c0-1,0-2,0-3.1C36.7,67.4,62.7,67.4,88.8,67.4z"/>
						<path fill="#2368B5" d="M10.6,64c0-1,0-2,0-3.1c26.1,0,52.1,0,78.2,0c0,0.5,0,1,0,1.5c0,0.5,0,1,0,1.6
							C62.7,64,36.7,64,10.6,64z"/>
						<path fill="#2368B5" d="M10.6,57.6c0-1,0-2,0-3c26.1,0,52.1,0,78.2,0c0,1,0,2,0,3C62.7,57.6,36.7,57.6,10.6,57.6z"/>
					</g>
				</g>
			</g>
			<g>
				<path fill="#0C56AB" d="M31.5,29.3c11.6,0,20.9,9.4,20.9,20.9s-9.4,20.9-20.9,20.9s-20.9-9.4-20.9-20.9S20,29.3,31.5,29.3
					 M31.5,28.1C19.3,28.1,9.4,38,9.4,50.2s9.9,22.1,22.1,22.1s22.1-9.9,22.1-22.1S43.7,28.1,31.5,28.1L31.5,28.1z"/>
			</g>
		</g>
		<polygon fill="#2368B5" stroke="#FFFFFF" stroke-width="0.4112" stroke-miterlimit="10" points="61.9,61.1 58.7,51.7 58.4,56 
			41.1,35.7 32.4,43.6 20,30.3 3.2,47.2 3.2,50.1 20,33.3 32.3,46.5 41,38.6 56.9,57.5 51.7,57.4 		"/>
		<g>
			<path fill="#2368B5" d="M56.7,94.6l-50.3,0l0-32l50.3,0L56.7,94.6z M8.5,92.6l46.1,0l0-27.8l-46.1,0L8.5,92.6z"/>
			<g>
				<rect x="7.4" y="63.7" fill="#FFFFFF" width="48.2" height="29.9"/>
			</g>
			<g>
				<defs>
					<rect id="SVGID_3_" x="9.7" y="66.2" width="43.5" height="25"/>
				</defs>
				<clipPath id="SVGID_4_">
					<use xlink:href="#SVGID_3_"  overflow="visible"/>
				</clipPath>
				<rect x="9.8" y="66.1" clip-path="url(#SVGID_4_)" fill="#FFFFFF" width="43.5" height="25"/>
				<circle clip-path="url(#SVGID_4_)" fill="#2368B5" cx="9.8" cy="66.1" r="3.1"/>
				<circle clip-path="url(#SVGID_4_)" fill="#2368B5" cx="53.2" cy="66.1" r="3.1"/>
				<circle clip-path="url(#SVGID_4_)" fill="#2368B5" cx="9.8" cy="91.1" r="3.1"/>
				<circle clip-path="url(#SVGID_4_)" fill="#2368B5" cx="53.2" cy="91.2" r="3.1"/>
				<use xlink:href="#SVGID_3_"  overflow="visible" fill="none" stroke="#0C56AB" stroke-width="1.6446" stroke-miterlimit="10"/>
			</g>
			<g>
				<circle fill="#2368B5" cx="49.4" cy="79.3" r="1.1"/>
				<circle fill="#2368B5" cx="13.7" cy="79.3" r="1.1"/>
			</g>
			<g>
				<polygon fill="#2368B5" points="50.4,100.9 48.9,99.4 46.8,100.3 48.2,92.8 51.8,93.5 				"/>
				<polygon fill="#2368B5" points="52.5,100.9 54.1,99.4 56.2,100.3 54.8,92.8 51.2,93.5 				"/>
				<circle fill="#2368B5" cx="51.3" cy="90.5" r="4.4"/>
				<polygon fill="#FFFFFF" points="51.4,88.2 52.5,87 52.7,88.6 54.3,88.3 53.4,89.7 54.9,90.3 53.4,91 54.3,92.4 52.7,92 
					52.5,93.7 51.4,92.4 50.3,93.7 50.2,92 48.6,92.4 49.4,91 47.9,90.3 49.4,89.7 48.6,88.3 50.2,88.6 50.3,87 				"/>
			</g>
			
				<line fill="none" stroke="#0C56AB" stroke-width="0.4112" stroke-linecap="round" stroke-miterlimit="10" x1="17.4" y1="68.4" x2="45.6" y2="68.4"/>
			
				<line fill="none" stroke="#0C56AB" stroke-width="0.4112" stroke-linecap="round" stroke-miterlimit="10" x1="17.4" y1="70.6" x2="45.6" y2="70.6"/>
			
				<line fill="none" stroke="#0C56AB" stroke-width="0.4112" stroke-linecap="round" stroke-miterlimit="10" x1="17.4" y1="72.8" x2="45.6" y2="72.8"/>
			
				<line fill="none" stroke="#0C56AB" stroke-width="0.4112" stroke-linecap="round" stroke-miterlimit="10" x1="23.3" y1="75" x2="45.6" y2="75"/>
			
				<line fill="none" stroke="#0C56AB" stroke-width="0.4112" stroke-linecap="round" stroke-miterlimit="10" x1="23.3" y1="77.2" x2="45.6" y2="77.2"/>
			
				<line fill="none" stroke="#0C56AB" stroke-width="0.4112" stroke-linecap="round" stroke-miterlimit="10" x1="23.3" y1="79.3" x2="45.6" y2="79.3"/>
			
				<line fill="none" stroke="#0C56AB" stroke-width="0.4112" stroke-linecap="round" stroke-miterlimit="10" x1="23.3" y1="81.5" x2="45.6" y2="81.5"/>
			
				<line fill="none" stroke="#0C56AB" stroke-width="0.4112" stroke-linecap="round" stroke-miterlimit="10" x1="23.3" y1="83.7" x2="45.6" y2="83.7"/>
			
				<line fill="none" stroke="#0C56AB" stroke-width="0.4112" stroke-linecap="round" stroke-miterlimit="10" x1="17.4" y1="85.9" x2="45.6" y2="85.9"/>
			
				<line fill="none" stroke="#0C56AB" stroke-width="0.4112" stroke-linecap="round" stroke-miterlimit="10" x1="17.4" y1="88.1" x2="45.6" y2="88.1"/>
		</g>
	</g>
</g>
<g>
</g>
<g>
</g>
<g>
</g>
<g>
</g>
<g>
</g>
<g>
</g>
<g>
</g>
<g>
</g>
<g>
</g>
<g>
</g>
<g>
</g>
<g>
</g>
<g>
</g>
<g>
</g>
<g>
</g>
</svg>
