<?xml version="1.0" encoding="utf-8"?>
<!-- Generator: Adobe Illustrator 18.0.0, SVG Export Plug-In . SVG Version: 6.00 Build 0)  -->
<!DOCTYPE svg PUBLIC "-//W3C//DTD SVG 1.1//EN" "http://www.w3.org/Graphics/SVG/1.1/DTD/svg11.dtd">
<svg version="1.1" id="Layer_1" xmlns="http://www.w3.org/2000/svg" xmlns:xlink="http://www.w3.org/1999/xlink" x="0px" y="0px"
	 viewBox="0 0 317.3 57.3" enable-background="new 0 0 317.3 57.3" xml:space="preserve">
<g>
	<polygon fill="#7F58A5" points="94,24.9 81.3,24.9 81.3,24.5 93.7,24.5 93.7,13.9 94,13.9 	"/>
	<g>
		<path fill="#7F58A5" d="M207.2,57.3h-31c-0.1,0-0.2-0.1-0.2-0.2s0.1-0.2,0.2-0.2h31c0.1,0,0.2,0.1,0.2,0.2S207.3,57.3,207.2,57.3z
			"/>
		<g>
			<g>
				<path fill="#7F58A5" d="M1,10.9c-0.6-1-1-2.2-1-3.4C0,3.9,2.9,1,6.5,1h15v0.3h-15C3.1,1.3,0.3,4,0.3,7.4c0,1.2,0.3,2.3,0.9,3.3
					L1,10.9z"/>
				<path fill="#7F58A5" d="M30.5,13.9H8.7v-0.3h21.8c3.4,0,6.2-2.8,6.2-6.2s-2.8-6.2-6.2-6.2h-2.9V1h2.9C34.1,1,37,3.9,37,7.4
					S34.1,13.9,30.5,13.9z"/>
				<g>
					<g>
						<path fill="#9C8FC4" d="M9,6.7c0-0.1,0-0.2,0-0.4c0-1,0.7-1.9,2-1.9c1.2,0,2,0.8,2,1.8c0,0.7-0.4,1.3-1.1,1.7l-1.1,0.7
							c-0.2,0.1-0.4,0.3-0.5,0.5H13v1H8.9c0-1,0.3-1.8,1.3-2.4l0.9-0.5c0.5-0.3,0.7-0.6,0.7-1c0-0.4-0.3-0.8-0.8-0.8
							c-0.6,0-0.9,0.4-0.9,0.9c0,0.1,0,0.2,0,0.3L9,6.7z"/>
						<path fill="#9C8FC4" d="M14.2,5.3c0.4-0.5,1-0.9,1.8-0.9c0.9,0,1.5,0.4,1.8,0.9c0.4,0.6,0.5,1.3,0.5,2s-0.1,1.4-0.5,2
							c-0.4,0.5-1,0.9-1.8,0.9c-0.9,0-1.5-0.4-1.8-0.9c-0.4-0.6-0.5-1.3-0.5-2S13.8,5.9,14.2,5.3z M15.1,8.7C15.3,9,15.6,9.2,16,9.2
							c0.4,0,0.7-0.2,0.8-0.5c0.2-0.3,0.3-0.8,0.3-1.4S17,6.2,16.8,5.9c-0.2-0.3-0.4-0.5-0.8-0.5c-0.4,0-0.7,0.2-0.8,0.5
							c-0.2,0.3-0.3,0.8-0.3,1.4S14.9,8.4,15.1,8.7z"/>
						<path fill="#9C8FC4" d="M19.5,5.3c0.4-0.5,1-0.9,1.8-0.9c0.9,0,1.5,0.4,1.8,0.9c0.4,0.6,0.5,1.3,0.5,2s-0.1,1.4-0.5,2
							c-0.4,0.5-1,0.9-1.8,0.9c-0.9,0-1.5-0.4-1.8-0.9C19.1,8.7,19,8,19,7.3S19.1,5.9,19.5,5.3z M20.5,8.7c0.2,0.3,0.4,0.5,0.8,0.5
							c0.4,0,0.7-0.2,0.8-0.5c0.2-0.3,0.3-0.8,0.3-1.4s-0.1-1.1-0.3-1.4c-0.2-0.3-0.4-0.5-0.8-0.5c-0.4,0-0.7,0.2-0.8,0.5
							c-0.2,0.3-0.3,0.8-0.3,1.4S20.3,8.4,20.5,8.7z"/>
						<path fill="#9C8FC4" d="M28.3,5.5c-0.4,0.4-2,1.8-2.2,4.6h-1.2c0.2-3,2.1-4.5,2.1-4.5H24v-1h4.2V5.5z"/>
					</g>
				</g>
			</g>
			<g>
				<path fill="#7F58A5" d="M77,12.2c-1.2-1.2-1.9-2.9-1.9-4.6c0-2.5,1.5-4.8,3.8-5.9L79,2c-2.2,1-3.6,3.2-3.6,5.6
					c0,1.6,0.6,3.2,1.8,4.4L77,12.2z"/>
				<path fill="#7F58A5" d="M105.6,14.1H80.1v-0.3h25.4c3.4,0,6.2-2.8,6.2-6.2s-2.8-6.2-6.2-6.2H86.3V1.1h19.3
					c3.6,0,6.5,2.9,6.5,6.5S109.2,14.1,105.6,14.1z"/>
				<g>
					<path fill="#7F58A5" d="M84.1,6.9c0-0.1,0-0.2,0-0.4c0-1,0.7-1.9,2-1.9c1.2,0,2,0.8,2,1.8c0,0.7-0.4,1.3-1.1,1.7L86,8.8
						c-0.2,0.1-0.4,0.3-0.5,0.5h2.7v1H84c0-1,0.3-1.8,1.3-2.4l0.9-0.5c0.5-0.3,0.7-0.6,0.7-1c0-0.4-0.3-0.8-0.8-0.8
						c-0.6,0-0.9,0.4-0.9,0.9c0,0.1,0,0.2,0,0.3L84.1,6.9z"/>
					<path fill="#7F58A5" d="M89.3,5.6c0.4-0.5,1-0.9,1.8-0.9c0.9,0,1.5,0.4,1.8,0.9c0.4,0.6,0.5,1.3,0.5,2s-0.1,1.4-0.5,2
						c-0.4,0.5-1,0.9-1.8,0.9c-0.9,0-1.5-0.4-1.8-0.9c-0.4-0.6-0.5-1.3-0.5-2S88.9,6.2,89.3,5.6z M90.3,9c0.2,0.3,0.4,0.5,0.8,0.5
						c0.4,0,0.7-0.2,0.8-0.5c0.2-0.3,0.3-0.8,0.3-1.4s-0.1-1.1-0.3-1.4c-0.2-0.3-0.4-0.5-0.8-0.5c-0.4,0-0.7,0.2-0.8,0.5
						C90,6.5,90,7,90,7.6S90,8.6,90.3,9z"/>
					<path fill="#7F58A5" d="M94.6,5.6c0.4-0.5,1-0.9,1.8-0.9c0.9,0,1.5,0.4,1.8,0.9c0.4,0.6,0.5,1.3,0.5,2s-0.1,1.4-0.5,2
						c-0.4,0.5-1,0.9-1.8,0.9c-0.9,0-1.5-0.4-1.8-0.9c-0.4-0.6-0.5-1.3-0.5-2S94.2,6.2,94.6,5.6z M95.6,9c0.2,0.3,0.4,0.5,0.8,0.5
						c0.4,0,0.7-0.2,0.8-0.5c0.2-0.3,0.3-0.8,0.3-1.4s-0.1-1.1-0.3-1.4c-0.2-0.3-0.4-0.5-0.8-0.5c-0.4,0-0.7,0.2-0.8,0.5
						c-0.2,0.3-0.3,0.8-0.3,1.4S95.4,8.6,95.6,9z"/>
					<path fill="#7F58A5" d="M99.4,8.8c0-0.6,0.4-1.1,1-1.4c-0.6-0.2-0.9-0.7-0.9-1.2c0-0.9,0.8-1.6,2-1.6s2,0.7,2,1.6
						c0,0.5-0.3,1-0.9,1.2c0.6,0.2,1,0.8,1,1.4c0,1-0.8,1.6-2.1,1.6C100.2,10.5,99.4,9.8,99.4,8.8z M102.4,8.7
						c0-0.4-0.3-0.8-0.9-0.8s-0.9,0.4-0.9,0.8c0,0.4,0.3,0.8,0.9,0.8C102.1,9.5,102.4,9.1,102.4,8.7z M102.3,6.3
						c0-0.4-0.3-0.7-0.8-0.7c-0.5,0-0.8,0.3-0.8,0.7c0,0.4,0.3,0.7,0.8,0.7C102,7,102.3,6.7,102.3,6.3z"/>
				</g>
			</g>
			<g>
				<path fill="#7F58A5" d="M159.3,14.1h-2.6c-3.6,0-6.5-2.9-6.5-6.5s2.9-6.5,6.5-6.5h12v0.3h-12c-3.4,0-6.2,2.8-6.2,6.2
					s2.8,6.2,6.2,6.2h2.6V14.1z"/>
				<path fill="#7F58A5" d="M180.7,14.1h-9.2v-0.3h9.2c3.4,0,6.2-2.8,6.2-6.2s-2.8-6.2-6.2-6.2h-4V1.1h4c3.6,0,6.5,2.9,6.5,6.5
					S184.3,14.1,180.7,14.1z"/>
				<g>
					<path fill="#7F58A5" d="M159.2,6.6c0-0.1,0-0.2,0-0.4c0-1,0.7-1.9,2-1.9c1.2,0,2,0.8,2,1.8c0,0.7-0.4,1.3-1.1,1.7l-1.1,0.7
						c-0.2,0.1-0.4,0.3-0.5,0.5h2.7v1h-4.1c0-1,0.3-1.8,1.3-2.4l0.9-0.5c0.5-0.3,0.7-0.6,0.7-1c0-0.4-0.3-0.8-0.8-0.8
						c-0.6,0-0.9,0.4-0.9,0.9c0,0.1,0,0.2,0,0.3L159.2,6.6z"/>
					<path fill="#7F58A5" d="M164.4,5.3c0.4-0.5,1-0.9,1.8-0.9s1.5,0.4,1.8,0.9c0.4,0.6,0.5,1.3,0.5,2s-0.1,1.4-0.5,2
						c-0.4,0.5-1,0.9-1.8,0.9s-1.5-0.4-1.8-0.9c-0.4-0.6-0.5-1.3-0.5-2S164,5.9,164.4,5.3z M165.4,8.7c0.2,0.3,0.4,0.5,0.8,0.5
						c0.4,0,0.7-0.2,0.8-0.5c0.2-0.3,0.3-0.8,0.3-1.4s-0.1-1.1-0.3-1.4c-0.2-0.3-0.4-0.5-0.8-0.5c-0.4,0-0.7,0.2-0.8,0.5
						c-0.2,0.3-0.3,0.8-0.3,1.4S165.2,8.4,165.4,8.7z"/>
					<path fill="#7F58A5" d="M169.7,5.3c0.4-0.5,1-0.9,1.8-0.9s1.5,0.4,1.8,0.9c0.4,0.6,0.5,1.3,0.5,2s-0.1,1.4-0.5,2
						c-0.4,0.5-1,0.9-1.8,0.9s-1.5-0.4-1.8-0.9c-0.4-0.6-0.5-1.3-0.5-2S169.3,5.9,169.7,5.3z M170.7,8.7c0.2,0.3,0.4,0.5,0.8,0.5
						c0.4,0,0.7-0.2,0.8-0.5c0.2-0.3,0.3-0.8,0.3-1.4s-0.1-1.1-0.3-1.4c-0.2-0.3-0.4-0.5-0.8-0.5c-0.4,0-0.7,0.2-0.8,0.5
						c-0.2,0.3-0.3,0.8-0.3,1.4S170.5,8.4,170.7,8.7z"/>
					<path fill="#7F58A5" d="M175,9c0.2,0.1,0.6,0.2,1,0.2c1,0,1.7-0.6,1.8-1.6c-0.2,0.4-0.7,0.6-1.3,0.6c-1,0-1.9-0.7-1.9-1.9
						c0-1.1,0.9-2,2.1-2c1.2,0,2.2,0.9,2.2,2.6c0,2-1,3.2-2.9,3.2c-0.5,0-1-0.1-1.3-0.3L175,9z M176.6,5.4c-0.5,0-1,0.4-1,0.9
						c0,0.6,0.4,0.9,1,0.9c0.5,0,1-0.4,1-0.9S177.1,5.4,176.6,5.4z"/>
				</g>
			</g>
			<g>
				<path fill="#7F58A5" d="M255.8,13.9v-0.3c3.4,0,6.2-2.8,6.2-6.2s-2.8-6.2-6.2-6.2H237V1h18.8c3.6,0,6.5,2.9,6.5,6.5
					S259.4,13.9,255.8,13.9z"/>
				<path fill="#7F58A5" d="M250.6,13.9h-18.8c-3.6,0-6.5-2.9-6.5-6.5s2.9-6.5,6.5-6.5v0.3c-3.4,0-6.2,2.8-6.2,6.2s2.8,6.2,6.2,6.2
					h18.8V13.9z"/>
				<g>
					<path fill="#573392" d="M234.3,7.4c0-0.1,0-0.2,0-0.4c0-1,0.7-1.9,2-1.9c1.2,0,2,0.8,2,1.8c0,0.7-0.4,1.3-1.1,1.7l-1.1,0.7
						c-0.2,0.1-0.4,0.3-0.5,0.5h2.7v1h-4.1c0-1,0.3-1.8,1.3-2.4l0.9-0.5c0.5-0.3,0.7-0.6,0.7-1c0-0.4-0.3-0.8-0.8-0.8
						c-0.6,0-0.9,0.4-0.9,0.9c0,0.1,0,0.2,0,0.3L234.3,7.4z"/>
					<path fill="#573392" d="M239.5,6.1c0.4-0.5,1-0.9,1.8-0.9s1.5,0.4,1.8,0.9c0.4,0.6,0.5,1.3,0.5,2s-0.1,1.4-0.5,2
						c-0.4,0.5-1,0.9-1.8,0.9s-1.5-0.4-1.8-0.9c-0.4-0.6-0.5-1.3-0.5-2S239.1,6.6,239.5,6.1z M240.5,9.4c0.2,0.3,0.4,0.5,0.8,0.5
						c0.4,0,0.7-0.2,0.8-0.5c0.2-0.3,0.3-0.8,0.3-1.4s-0.1-1.1-0.3-1.4c-0.2-0.3-0.4-0.5-0.8-0.5c-0.4,0-0.7,0.2-0.8,0.5
						c-0.2,0.3-0.3,0.8-0.3,1.4S240.3,9.1,240.5,9.4z"/>
					<path fill="#573392" d="M245.5,10.8V7.1h-1.3V6.3c0.8,0,1.4-0.5,1.5-1h1v5.6H245.5z"/>
					<path fill="#573392" d="M251.7,6.3c-0.2-0.1-0.6-0.2-0.9-0.2c-0.9,0-1.7,0.5-1.8,1.6c0.2-0.3,0.7-0.6,1.3-0.6
						c1.1,0,1.9,0.7,1.9,1.9c0,1.1-0.9,2-2.2,2c-1.2,0-2.3-0.9-2.3-2.6c0-2,1.3-3.3,3.1-3.3c0.5,0,0.9,0.1,1.2,0.3L251.7,6.3z
						 M250,9.9c0.5,0,1-0.4,1-0.9s-0.4-0.9-1-0.9c-0.5,0-1,0.4-1,0.9C249,9.6,249.5,9.9,250,9.9z"/>
				</g>
			</g>
			<path fill="#7F58A5" d="M75.3,7.6H39.3c-0.1,0-0.2-0.1-0.2-0.2s0.1-0.2,0.2-0.2h35.9c0.1,0,0.2,0.1,0.2,0.2S75.4,7.6,75.3,7.6z"
				/>
			<path fill="#7F58A5" d="M150.4,7.8h-12.8c-0.1,0-0.2-0.1-0.2-0.2c0-0.1,0.1-0.2,0.2-0.2h12.8c0.1,0,0.2,0.1,0.2,0.2
				C150.5,7.7,150.5,7.8,150.4,7.8z"/>
			<path fill="#7F58A5" d="M131.7,7.8h-19.8c-0.1,0-0.2-0.1-0.2-0.2c0-0.1,0.1-0.2,0.2-0.2h19.8c0.1,0,0.2,0.1,0.2,0.2
				C131.9,7.7,131.8,7.8,131.7,7.8z"/>
			<path fill="#7F58A5" d="M225.5,7.8H187c-0.1,0-0.2-0.1-0.2-0.2c0-0.1,0.1-0.2,0.2-0.2h38.5c0.1,0,0.2,0.1,0.2,0.2
				C225.6,7.7,225.6,7.8,225.5,7.8z"/>
			<path fill="#7F58A5" d="M294.6,52.8H86.1c-0.1,0-0.2-0.1-0.2-0.2c0-0.1,0.1-0.2,0.2-0.2h208.5c12.3,0,22.4-10,22.4-22.4
				c0-13.2-11.1-22.4-27-22.4h-27.8c-0.1,0-0.2-0.1-0.2-0.2c0-0.1,0.1-0.2,0.2-0.2H290c16.1,0,27.3,9.3,27.3,22.7
				C317.3,42.6,307.1,52.8,294.6,52.8z"/>
			<path fill="#7F58A5" d="M75.8,10.3H47c-0.1,0-0.2-0.1-0.2-0.2S47,9.9,47,9.9h28.7c0.1,0,0.2,0.1,0.2,0.2S75.9,10.3,75.8,10.3z"/>
			<path fill="#7F58A5" d="M136.3,11h-18.5c-0.1,0-0.2-0.1-0.2-0.2c0-0.1,0.1-0.2,0.2-0.2h18.5c0.1,0,0.2,0.1,0.2,0.2
				C136.5,10.9,136.4,11,136.3,11z"/>
			<path fill="#7F58A5" d="M165.1,49.5h-0.8c-0.1,0-0.2-0.1-0.2-0.2c0-0.1,0.1-0.2,0.2-0.2h0.8c0.1,0,0.2,0.1,0.2,0.2
				C165.2,49.4,165.2,49.5,165.1,49.5z M163,49.5h-1.3c-0.1,0-0.2-0.1-0.2-0.2c0-0.1,0.1-0.2,0.2-0.2h1.3c0.1,0,0.2,0.1,0.2,0.2
				C163.2,49.4,163.1,49.5,163,49.5z M160.5,49.5h-1.3c-0.1,0-0.2-0.1-0.2-0.2c0-0.1,0.1-0.2,0.2-0.2h1.3c0.1,0,0.2,0.1,0.2,0.2
				C160.6,49.4,160.5,49.5,160.5,49.5z M157.9,49.5h-1.3c-0.1,0-0.2-0.1-0.2-0.2c0-0.1,0.1-0.2,0.2-0.2h1.3c0.1,0,0.2,0.1,0.2,0.2
				C158.1,49.4,158,49.5,157.9,49.5z M155.4,49.5h-1.3c-0.1,0-0.2-0.1-0.2-0.2c0-0.1,0.1-0.2,0.2-0.2h1.3c0.1,0,0.2,0.1,0.2,0.2
				C155.5,49.4,155.5,49.5,155.4,49.5z M152.8,49.5h-1.3c-0.1,0-0.2-0.1-0.2-0.2c0-0.1,0.1-0.2,0.2-0.2h1.3c0.1,0,0.2,0.1,0.2,0.2
				C153,49.4,152.9,49.5,152.8,49.5z M150.3,49.5H149c-0.1,0-0.2-0.1-0.2-0.2c0-0.1,0.1-0.2,0.2-0.2h1.3c0.1,0,0.2,0.1,0.2,0.2
				C150.5,49.4,150.4,49.5,150.3,49.5z M147.8,49.5h-1.3c-0.1,0-0.2-0.1-0.2-0.2c0-0.1,0.1-0.2,0.2-0.2h1.3c0.1,0,0.2,0.1,0.2,0.2
				C147.9,49.4,147.8,49.5,147.8,49.5z M145.2,49.5h-1.3c-0.1,0-0.2-0.1-0.2-0.2c0-0.1,0.1-0.2,0.2-0.2h1.3c0.1,0,0.2,0.1,0.2,0.2
				C145.4,49.4,145.3,49.5,145.2,49.5z M142.7,49.5h-1.3c-0.1,0-0.2-0.1-0.2-0.2c0-0.1,0.1-0.2,0.2-0.2h1.3c0.1,0,0.2,0.1,0.2,0.2
				C142.8,49.4,142.8,49.5,142.7,49.5z M140.1,49.5h-1.3c-0.1,0-0.2-0.1-0.2-0.2c0-0.1,0.1-0.2,0.2-0.2h1.3c0.1,0,0.2,0.1,0.2,0.2
				C140.3,49.4,140.2,49.5,140.1,49.5z M137.6,49.5h-1.3c-0.1,0-0.2-0.1-0.2-0.2c0-0.1,0.1-0.2,0.2-0.2h1.3c0.1,0,0.2,0.1,0.2,0.2
				C137.7,49.4,137.7,49.5,137.6,49.5z M135,49.5h-1.3c-0.1,0-0.2-0.1-0.2-0.2c0-0.1,0.1-0.2,0.2-0.2h1.3c0.1,0,0.2,0.1,0.2,0.2
				C135.2,49.4,135.1,49.5,135,49.5z M132.5,49.5h-1.3c-0.1,0-0.2-0.1-0.2-0.2c0-0.1,0.1-0.2,0.2-0.2h1.3c0.1,0,0.2,0.1,0.2,0.2
				C132.7,49.4,132.6,49.5,132.5,49.5z M130,49.5h-1.3c-0.1,0-0.2-0.1-0.2-0.2c0-0.1,0.1-0.2,0.2-0.2h1.3c0.1,0,0.2,0.1,0.2,0.2
				C130.1,49.4,130.1,49.5,130,49.5z M127.4,49.5h-1.3c-0.1,0-0.2-0.1-0.2-0.2c0-0.1,0.1-0.2,0.2-0.2h1.3c0.1,0,0.2,0.1,0.2,0.2
				C127.6,49.4,127.5,49.5,127.4,49.5z M124.9,49.5h-1.3c-0.1,0-0.2-0.1-0.2-0.2c0-0.1,0.1-0.2,0.2-0.2h1.3c0.1,0,0.2,0.1,0.2,0.2
				C125,49.4,125,49.5,124.9,49.5z M122.3,49.5h-1.3c-0.1,0-0.2-0.1-0.2-0.2c0-0.1,0.1-0.2,0.2-0.2h1.3c0.1,0,0.2,0.1,0.2,0.2
				C122.5,49.4,122.4,49.5,122.3,49.5z M119.8,49.5h-1.3c-0.1,0-0.2-0.1-0.2-0.2c0-0.1,0.1-0.2,0.2-0.2h1.3c0.1,0,0.2,0.1,0.2,0.2
				C120,49.4,119.9,49.5,119.8,49.5z M117.3,49.5H116c-0.1,0-0.2-0.1-0.2-0.2c0-0.1,0.1-0.2,0.2-0.2h1.3c0.1,0,0.2,0.1,0.2,0.2
				C117.4,49.4,117.3,49.5,117.3,49.5z M114.7,49.5h-1.3c-0.1,0-0.2-0.1-0.2-0.2c0-0.1,0.1-0.2,0.2-0.2h1.3c0.1,0,0.2,0.1,0.2,0.2
				C114.9,49.4,114.8,49.5,114.7,49.5z M112.2,49.5h-1.3c-0.1,0-0.2-0.1-0.2-0.2c0-0.1,0.1-0.2,0.2-0.2h1.3c0.1,0,0.2,0.1,0.2,0.2
				C112.3,49.4,112.3,49.5,112.2,49.5z M109.6,49.5h-1.3c-0.1,0-0.2-0.1-0.2-0.2c0-0.1,0.1-0.2,0.2-0.2h1.3c0.1,0,0.2,0.1,0.2,0.2
				C109.8,49.4,109.7,49.5,109.6,49.5z M107.1,49.5h-1.3c-0.1,0-0.2-0.1-0.2-0.2c0-0.1,0.1-0.2,0.2-0.2h1.3c0.1,0,0.2,0.1,0.2,0.2
				C107.3,49.4,107.2,49.5,107.1,49.5z M104.6,49.5h-1.3c-0.1,0-0.2-0.1-0.2-0.2c0-0.1,0.1-0.2,0.2-0.2h1.3c0.1,0,0.2,0.1,0.2,0.2
				C104.7,49.4,104.6,49.5,104.6,49.5z"/>
			<path fill="#7F58A5" d="M276.6,11h-20c-0.1,0-0.2-0.1-0.2-0.2s0.1-0.2,0.2-0.2h20c0.1,0,0.2,0.1,0.2,0.2S276.7,11,276.6,11z"/>
			<g>
				<g>
					<path fill="#9C8FC4" d="M44.2,23.4v0.8h2.4V25h-1.2l0.8,0.3c-0.3,0.4-0.6,0.9-0.8,1.2H47v0.8h-6.6v-0.8h1.5
						c-0.1-0.4-0.4-0.9-0.6-1.2l0.6-0.3h-1.1v-0.8h2.4v-0.8h-1.5V23c-0.3,0.2-0.6,0.3-1,0.4c-0.1-0.3-0.4-0.6-0.6-0.8
						c1.4-0.4,2.8-1.2,3.5-2.3l0.9,0.4c-0.1,0.1-0.1,0.2-0.2,0.3c0.7,0.7,2,1.3,3.1,1.6c-0.2,0.2-0.5,0.6-0.6,0.8
						c-0.3-0.1-0.7-0.3-1-0.4v0.5H44.2z M42.1,25c0.3,0.4,0.6,0.9,0.7,1.2l-0.6,0.3h1.1V25H42.1z M45.1,22.6c-0.5-0.3-0.9-0.6-1.3-1
						c-0.4,0.4-0.8,0.7-1.2,1H45.1z M44.2,25v1.5h1l-0.5-0.2c0.2-0.3,0.5-0.9,0.7-1.3H44.2z"/>
					<path fill="#9C8FC4" d="M49.4,20.7h3.8v0.8h-3.8V20.7z M53,26.6c0,0.3,0,0.5-0.3,0.6c-0.2,0.1-0.5,0.1-0.8,0.1
						c0-0.2-0.1-0.5-0.2-0.7c0.2,0,0.4,0,0.5,0c0.1,0,0.1,0,0.1-0.1v-2.3h-2.1v3.2h-0.7v-3.9H53V26.6z M52.8,23.4h-3.1v-1.7h3.1
						V23.4z M50.7,25.4c-0.1-0.2-0.2-0.6-0.4-0.8l0.5-0.2c0.2,0.2,0.3,0.6,0.4,0.8L50.7,25.4z M51.6,26v1.3h-0.6V26h-0.5v-0.5h0.9
						c0.1-0.3,0.3-0.7,0.4-1l0.5,0.2c-0.1,0.3-0.3,0.6-0.4,0.8h0.3V26H51.6z M52,22.3h-1.5v0.4H52V22.3z M55.8,27.5
						c0-0.2-0.1-0.4-0.1-0.6c-0.8,0.2-1.7,0.3-2.3,0.4l-0.2-0.8c0.3,0,0.7-0.1,1.1-0.2V25h-1v-3.1h1v-1.3h0.8v1.3h1V25h-1v1.3
						l0.4-0.1c-0.1-0.3-0.1-0.5-0.2-0.8l0.6-0.1c0.2,0.7,0.4,1.5,0.5,2.1L55.8,27.5z M53.9,24.2h0.5v-1.6h-0.5V24.2z M55.5,22.6H55
						v1.6h0.4V22.6z"/>
					<path fill="#9C8FC4" d="M59.7,24.1c-0.3-0.3-0.8-0.6-1.2-0.8l0.5-0.6c0.4,0.2,1,0.5,1.3,0.8L59.7,24.1z M58.7,26.9
						c0.3-0.6,0.7-1.6,1.1-2.4l0.7,0.5c-0.3,0.8-0.6,1.7-1,2.4L58.7,26.9z M60.2,22c-0.3-0.3-0.9-0.6-1.3-0.9l0.5-0.6
						c0.4,0.2,1,0.5,1.4,0.8L60.2,22z M65,24.8c0,0.3,0,0.6-0.1,0.8h0.5v0.8h-0.6c-0.1,0.4-0.1,0.6-0.2,0.7
						c-0.2,0.2-0.4,0.3-0.6,0.3c-0.2,0-0.6,0-1,0c0-0.2-0.1-0.5-0.2-0.7c0.3,0,0.6,0,0.8,0c0.1,0,0.2,0,0.3-0.1c0,0,0.1-0.1,0.1-0.2
						h-3.2c0.1-0.4,0.2-1,0.3-1.6h-0.7V24h0.8c0.1-0.4,0.1-0.8,0.1-1.2c-0.1,0.1-0.2,0.3-0.3,0.4c-0.2-0.1-0.6-0.4-0.8-0.5
						c0.5-0.5,1-1.4,1.2-2.3l0.9,0.2c-0.1,0.2-0.1,0.4-0.2,0.5h3.2V22h-3.6c-0.1,0.2-0.2,0.3-0.3,0.5h3.6c0,0,0,0.3,0,0.4
						c0,0.4,0,0.8-0.1,1.1h0.5v0.8H65z M61.9,24.8c0,0.3-0.1,0.5-0.1,0.8H63c-0.2-0.2-0.4-0.4-0.7-0.6l0.3-0.2H61.9z M62.1,23.2
						c0,0.2-0.1,0.5-0.1,0.7h1c-0.2-0.2-0.4-0.4-0.6-0.6l0.3-0.2H62.1z M64.1,25.6c0-0.2,0.1-0.5,0.1-0.8H63
						c0.3,0.2,0.5,0.5,0.7,0.6l-0.2,0.2H64.1z M63.1,23.2c0.2,0.2,0.5,0.4,0.6,0.6L63.5,24h0.7c0-0.2,0-0.5,0-0.7H63.1z"/>
					<path fill="#9C8FC4" d="M68.5,25.4V26h-0.7v-4.9h1.8v4.2H68.5z M68.5,22v2.6H69V22H68.5z M73.7,25v-0.2h-0.9v-1.4h0.5v0.9h0.4
						v-0.9h0.7v4.1h-0.7v-1.1h-0.4v1.1h-0.5v-1.6h0.9v-0.2h-1.2v1.9h-0.7v-1.9h-1.2c0,0.1,0,0.2,0,0.2h0.9v1.6H71v-1.1h-0.6
						c-0.1,0.4-0.4,0.8-0.7,1.1c-0.1-0.1-0.4-0.3-0.5-0.4c0.7-0.6,0.8-1.6,0.8-2.3v-1.5h0.7v0.9H71v-0.9h0.5v1.4h-0.9v0.1V25h1.1
						v-1.8H70v-0.5h1.7v-0.3h-2v-0.5h2v-0.3H70v-0.5h1.7v-0.6h0.8v0.6h1.7v0.7h0.4v0.6h-0.4v0.8h-1.8V25H73.7z M72.6,21.8h0.9v-0.3
						h-0.9V21.8z M72.6,22.6h0.9v-0.3h-0.9V22.6z"/>
				</g>
			</g>
			<polygon fill="#7F58A5" points="31.2,24.7 21.6,24.7 21.6,13.8 21.9,13.8 21.9,24.4 31.2,24.4 			"/>
			<g>
				<g>
					<path fill="#7F58A5" d="M114.6,27c0.4-0.5,0.7-1.2,0.9-1.8l0.8,0.3c-0.2,0.6-0.6,1.4-0.9,1.9L114.6,27z M114.7,24
						c0.3,0,0.7-0.1,1.1-0.2v-2.2h-0.9v-0.8h2.7v0.8h-0.9v2l0.8-0.2l0,0.5c0.4-0.3,0.6-0.6,0.8-0.9c-0.3-0.2-0.6-0.4-0.8-0.5
						l0.4-0.6c0.2,0.1,0.4,0.2,0.6,0.3c0-0.1,0-0.2,0-0.3v-0.5h-0.7v-0.8h3.1v2.9c0,0.2,0,0.2,0,0.3c0,0,0,0,0.1,0h0.1
						c0,0,0.1,0,0.1,0c0,0,0-0.1,0.1-0.2c0-0.1,0-0.4,0-0.7c0.2,0.1,0.4,0.3,0.7,0.4c0,0.3-0.1,0.7-0.1,0.9
						c-0.1,0.2-0.1,0.3-0.3,0.3c-0.1,0.1-0.3,0.1-0.4,0.1h-0.4c-0.2,0-0.4-0.1-0.5-0.2c-0.1-0.1-0.2-0.3-0.2-0.8v-0.2l-0.3,0.5
						c-0.2-0.1-0.4-0.3-0.6-0.4c-0.2,0.4-0.5,0.7-0.9,1c0.4,0.4,1,0.9,1.2,1.2l-0.6,0.6c-0.3-0.4-0.9-0.9-1.3-1.3l0.5-0.5
						c-0.1-0.1-0.3-0.3-0.4-0.4c-0.9,0.2-1.9,0.4-2.7,0.6L114.7,24z M119.1,26.8c0.4,0,0.4-0.1,0.5-0.7c0.2,0.1,0.6,0.3,0.8,0.3
						c-0.1,1-0.4,1.2-1.2,1.2h-1.4c-1.1,0-1.3-0.3-1.3-1.1v-1.3h0.9v1.3c0,0.2,0.1,0.3,0.5,0.3H119.1z M119.4,22.1
						c0,0.2,0,0.5-0.1,0.7c0.3,0.2,0.5,0.3,0.7,0.5v-1.8h-0.7V22.1z M120.7,25c0.4,0.6,0.9,1.4,1.1,1.9l-0.8,0.5
						c-0.2-0.5-0.7-1.3-1.1-2L120.7,25z"/>
					<path fill="#7F58A5" d="M124.6,22c0,0.6-0.1,1.5-0.2,2.1l-0.6-0.2c0.2-0.5,0.2-1.4,0.2-2L124.6,22z M129.6,23.8
						c0.3,0,0.8,0,1-0.1c0,0.2,0,0.5,0.1,0.7c-0.2,0.1-0.6,0.1-1,0.1h-1.8c-0.9,0-1.2-0.3-1.2-1v-0.3h-0.4v-0.2l-0.4,0.1
						c-0.1-0.3-0.2-0.7-0.3-1.1v5.5h-0.9v-7.1h0.9v1.4l0.5-0.2c0.1,0.2,0.2,0.5,0.2,0.8h1.8c-0.1-0.1-0.1-0.3-0.2-0.4l0.8-0.2
						c0.1,0.2,0.2,0.4,0.3,0.6h1.8v0.7h-3.3v0.3c0,0.2,0.1,0.3,0.4,0.3H129.6z M126.7,24.8h0.8v0.7c0,0.7-0.1,1.6-1,2.2
						c-0.1-0.2-0.5-0.4-0.7-0.6c0.8-0.5,0.8-1.1,0.8-1.6V24.8z M127.1,21.8h-1v-0.7h1v-0.5h0.8v0.5h0.5v0.7h-0.5v0.4h-0.8V21.8z
						 M128,24.9h0.8v2.5H128V24.9z M129.1,21.8h-0.5v-0.7h0.5v-0.5h0.8v0.5h1v0.7h-1v0.4h-0.8V21.8z M130.5,27c0.1,0,0.3,0,0.4,0
						c0,0.2,0,0.4,0.1,0.6c-0.1,0-0.3,0.1-0.4,0.1h-0.4c-0.7,0-0.8-0.3-0.8-1v-1.8h0.8v1.8c0,0.2,0,0.3,0.1,0.3H130.5z"/>
					<path fill="#7F58A5" d="M134.7,26.2c-0.3,0.6-0.7,1.2-1.1,1.5c-0.2-0.2-0.5-0.4-0.7-0.5c0.4-0.3,0.8-0.8,1-1.2L134.7,26.2z
						 M136.7,25.9H133v-0.8h0.7v-2.8H133v-0.8h0.6v-0.8h0.8v0.8h0.9v-0.8h0.8v0.8h0.5v0.8h-0.5v2.8h0.5V25.9z M134.5,22.2v0.4h0.9
						v-0.4H134.5z M134.5,23.9h0.9v-0.5h-0.9V23.9z M134.5,25.1h0.9v-0.5h-0.9V25.1z M139.8,26.7c0,0.5-0.1,0.7-0.4,0.8
						s-0.7,0.2-1.2,0.2c0-0.2-0.1-0.6-0.3-0.9c0.3,0,0.7,0,0.8,0c0.1,0,0.2,0,0.2-0.2v-1.5h-1.2c-0.1,0.9-0.3,1.9-0.7,2.5
						c-0.1-0.2-0.5-0.4-0.7-0.5c0,0,0.1-0.1,0.1-0.1l-0.6,0.4c-0.2-0.3-0.5-0.8-0.8-1.2l0.7-0.4c0.3,0.3,0.6,0.7,0.8,1
						c0.4-1,0.5-2.2,0.5-3.2v-2.8h2.8V26.7z M139,24.3v-0.9h-1.1v0.3c0,0.2,0,0.4,0,0.7H139z M137.9,21.7v0.9h1.1v-0.9H137.9z"/>
				</g>
			</g>
			<polygon fill="#7F58A5" points="103.3,24.9 93.7,24.9 93.7,13.9 94,13.9 94,24.5 103.3,24.5 			"/>
			<polygon fill="#7F58A5" points="166.1,24.9 153.4,24.9 153.4,24.5 165.8,24.5 165.8,13.9 166.1,13.9 			"/>
			<g>
				<g>
					<path fill="#7F58A5" d="M189.4,22.5h-2.7v-0.7h1.2c-0.1-0.3-0.3-0.7-0.5-1l0.7-0.3c0.2,0.3,0.4,0.7,0.5,1l-0.5,0.2h1.2V22.5z
						 M193.5,26.7c0,0.4-0.1,0.6-0.3,0.7c-0.2,0.1-0.6,0.1-1.1,0.1c0-0.2-0.1-0.6-0.2-0.8c0.3,0,0.6,0,0.7,0c0.1,0,0.1,0,0.1-0.1
						v-2.6h-2.4c0,1.2-0.1,2.6-0.7,3.6c-0.1-0.1-0.5-0.4-0.6-0.4h-1.4v0.3H187v-2.6h2.2v2.1c0.5-1,0.5-2.3,0.5-3.3v-3h3.9V26.7z
						 M187,23.9h2.2v0.7H187V23.9z M189.2,23.6H187v-0.7h2.2V23.6z M188.5,25.7h-0.8v0.9h0.8V25.7z M190.4,21.6v0.5h0.8v-0.5H190.4z
						 M190.4,23.4h0.8v-0.5h-0.8V23.4z M191.2,26.3v0.4h-0.6v-2.2h1.9v1.9H191.2z M191.2,25.1v0.6h0.6v-0.6H191.2z M192.8,21.6H192
						v0.5h0.8V21.6z M192.8,23.4v-0.5H192v0.5H192.8z"/>
					<path fill="#7F58A5" d="M202.3,22.1c-0.1,0.5-0.4,0.9-0.6,1.2c0.3,0.3,0.8,0.5,1.3,0.6c-0.2,0.2-0.4,0.5-0.5,0.7
						c-0.5-0.2-1-0.4-1.3-0.7c-0.4,0.3-0.8,0.5-1.4,0.7c-0.1-0.2-0.3-0.5-0.5-0.6c0.5-0.1,1-0.3,1.3-0.6c-0.2-0.2-0.3-0.4-0.5-0.7
						c-0.1,0.1-0.2,0.3-0.3,0.4c-0.1-0.1-0.3-0.4-0.5-0.5v0.8h-0.7c0.3,0.2,0.5,0.3,0.7,0.5l-0.4,0.5c-0.2-0.2-0.5-0.4-0.8-0.6v0.8
						h-0.8v-0.6c-0.3,0.3-0.7,0.6-1,0.8c-0.1-0.2-0.3-0.4-0.5-0.6c0.4-0.2,0.9-0.4,1.2-0.7h-0.9v-1.4h1.2v-0.3H196v-0.6h1.4v-0.4
						h0.8v0.4h1.3v0.6h-1.3v0.3h1.2v0.5c0.4-0.4,0.8-1,0.9-1.7l0.8,0.2c-0.1,0.2-0.1,0.4-0.2,0.6h1.9v0.7H202.3z M199.8,26.7h3.1
						v0.7h-7v-0.7h1.1v-1.2h0.9v1.2h1v-1.4h-2.5v-0.7h6v0.7h-2.6v0.4h2v0.7h-2V26.7z M196.9,22.7h0.5v-0.4h-0.5V22.7z M198.2,22.3
						v0.4h0.5v-0.4H198.2z M198.4,23.2h-0.2v0.3L198.4,23.2z M200.6,22.1c0.1,0.3,0.3,0.5,0.5,0.7c0.2-0.2,0.3-0.5,0.4-0.7H200.6z"
						/>
					<path fill="#7F58A5" d="M206.8,26.2c-0.3,0.6-0.7,1.2-1.1,1.5c-0.2-0.2-0.5-0.4-0.7-0.5c0.4-0.3,0.8-0.8,1-1.2L206.8,26.2z
						 M208.7,25.9H205v-0.8h0.7v-2.8h-0.6v-0.8h0.6v-0.8h0.8v0.8h0.9v-0.8h0.8v0.8h0.5v0.8h-0.5v2.8h0.5V25.9z M206.5,22.2v0.4h0.9
						v-0.4H206.5z M206.5,23.9h0.9v-0.5h-0.9V23.9z M206.5,25.1h0.9v-0.5h-0.9V25.1z M211.9,26.7c0,0.5-0.1,0.7-0.4,0.8
						c-0.3,0.1-0.7,0.2-1.2,0.2c0-0.2-0.1-0.6-0.3-0.9c0.3,0,0.7,0,0.8,0c0.1,0,0.2,0,0.2-0.2v-1.5h-1.2c-0.1,0.9-0.3,1.9-0.7,2.5
						c-0.1-0.2-0.5-0.4-0.7-0.5c0,0,0.1-0.1,0.1-0.1l-0.6,0.4c-0.2-0.3-0.5-0.8-0.8-1.2l0.7-0.4c0.3,0.3,0.6,0.7,0.8,1
						c0.4-1,0.5-2.2,0.5-3.2v-2.8h2.8V26.7z M211,24.3v-0.9h-1.1v0.3c0,0.2,0,0.4,0,0.7H211z M209.9,21.7v0.9h1.1v-0.9H209.9z"/>
				</g>
			</g>
			<polygon fill="#7F58A5" points="175.3,24.9 165.7,24.9 165.7,13.9 166.1,13.9 166.1,24.5 175.3,24.5 			"/>
			<polygon fill="#7F58A5" points="238.1,24.7 225.4,24.7 225.4,24.4 237.8,24.4 237.8,13.8 238.1,13.8 			"/>
			<path fill="#7F58A5" d="M232,49.5h-45c-0.1,0-0.2-0.1-0.2-0.2c0-0.1,0.1-0.2,0.2-0.2h45c0.1,0,0.2,0.1,0.2,0.2
				C232.2,49.4,232.1,49.5,232,49.5z"/>
			<path fill="#7F58A5" d="M289.6,49.3h-1.3c-0.1,0-0.2-0.1-0.2-0.2c0-0.1,0.1-0.2,0.2-0.2h1.3c0.1,0,0.2,0.1,0.2,0.2
				C289.8,49.3,289.7,49.3,289.6,49.3z M287.1,49.3h-1.3c-0.1,0-0.2-0.1-0.2-0.2c0-0.1,0.1-0.2,0.2-0.2h1.3c0.1,0,0.2,0.1,0.2,0.2
				C287.2,49.3,287.1,49.3,287.1,49.3z M284.5,49.3h-1.3c-0.1,0-0.2-0.1-0.2-0.2c0-0.1,0.1-0.2,0.2-0.2h1.3c0.1,0,0.2,0.1,0.2,0.2
				C284.7,49.3,284.6,49.3,284.5,49.3z M282,49.3h-1.3c-0.1,0-0.2-0.1-0.2-0.2c0-0.1,0.1-0.2,0.2-0.2h1.3c0.1,0,0.2,0.1,0.2,0.2
				C282.1,49.3,282.1,49.3,282,49.3z M279.4,49.3h-1.3c-0.1,0-0.2-0.1-0.2-0.2c0-0.1,0.1-0.2,0.2-0.2h1.3c0.1,0,0.2,0.1,0.2,0.2
				C279.6,49.3,279.5,49.3,279.4,49.3z M276.9,49.3h-1.3c-0.1,0-0.2-0.1-0.2-0.2c0-0.1,0.1-0.2,0.2-0.2h1.3c0.1,0,0.2,0.1,0.2,0.2
				C277,49.3,277,49.3,276.9,49.3z M274.3,49.3h-1.3c-0.1,0-0.2-0.1-0.2-0.2c0-0.1,0.1-0.2,0.2-0.2h1.3c0.1,0,0.2,0.1,0.2,0.2
				C274.5,49.3,274.4,49.3,274.3,49.3z M271.8,49.3h-1.3c-0.1,0-0.2-0.1-0.2-0.2c0-0.1,0.1-0.2,0.2-0.2h1.3c0.1,0,0.2,0.1,0.2,0.2
				C272,49.3,271.9,49.3,271.8,49.3z M269.3,49.3H268c-0.1,0-0.2-0.1-0.2-0.2c0-0.1,0.1-0.2,0.2-0.2h1.3c0.1,0,0.2,0.1,0.2,0.2
				C269.4,49.3,269.4,49.3,269.3,49.3z M266.7,49.3h-1.3c-0.1,0-0.2-0.1-0.2-0.2c0-0.1,0.1-0.2,0.2-0.2h1.3c0.1,0,0.2,0.1,0.2,0.2
				C266.9,49.3,266.8,49.3,266.7,49.3z M264.2,49.3h-1.3c-0.1,0-0.2-0.1-0.2-0.2c0-0.1,0.1-0.2,0.2-0.2h1.3c0.1,0,0.2,0.1,0.2,0.2
				C264.3,49.3,264.3,49.3,264.2,49.3z M261.6,49.3h-1.3c-0.1,0-0.2-0.1-0.2-0.2c0-0.1,0.1-0.2,0.2-0.2h1.3c0.1,0,0.2,0.1,0.2,0.2
				C261.8,49.3,261.7,49.3,261.6,49.3z M259.1,49.3h-1.3c-0.1,0-0.2-0.1-0.2-0.2c0-0.1,0.1-0.2,0.2-0.2h1.3c0.1,0,0.2,0.1,0.2,0.2
				C259.3,49.3,259.2,49.3,259.1,49.3z M256.6,49.3h-1.3c-0.1,0-0.2-0.1-0.2-0.2c0-0.1,0.1-0.2,0.2-0.2h1.3c0.1,0,0.2,0.1,0.2,0.2
				C256.7,49.3,256.6,49.3,256.6,49.3z M254,49.3h-1.3c-0.1,0-0.2-0.1-0.2-0.2c0-0.1,0.1-0.2,0.2-0.2h1.3c0.1,0,0.2,0.1,0.2,0.2
				C254.2,49.3,254.1,49.3,254,49.3z M251.5,49.3h-1.3c-0.1,0-0.2-0.1-0.2-0.2c0-0.1,0.1-0.2,0.2-0.2h1.3c0.1,0,0.2,0.1,0.2,0.2
				C251.6,49.3,251.6,49.3,251.5,49.3z M248.9,49.3h-1.3c-0.1,0-0.2-0.1-0.2-0.2c0-0.1,0.1-0.2,0.2-0.2h1.3c0.1,0,0.2,0.1,0.2,0.2
				C249.1,49.3,249,49.3,248.9,49.3z M246.4,49.3H246c-0.1,0-0.2-0.1-0.2-0.2c0-0.1,0.1-0.2,0.2-0.2h0.4c0.1,0,0.2,0.1,0.2,0.2
				C246.6,49.3,246.5,49.3,246.4,49.3z"/>
			<path fill="#7F58A5" d="M295.4,49.3h-2.5c-0.1,0-0.2-0.1-0.2-0.2c0-0.1,0.1-0.2,0.2-0.2h2.5c1.6,0,3.3-0.2,4.8-0.6
				c0.1,0,0.2,0,0.2,0.1c0,0.1,0,0.2-0.1,0.2C298.7,49.1,297.1,49.3,295.4,49.3z"/>
			<path fill="#7F58A5" d="M306.1,46c0,0-0.1,0-0.1-0.1c-0.1-0.1,0-0.2,0-0.2c4.9-3.5,7.9-9.1,7.9-15.1c0-6.1-3-11.9-8.1-15.3
				c-0.1,0-0.1-0.1,0-0.2c0-0.1,0.1-0.1,0.2,0c5.2,3.5,8.3,9.3,8.3,15.6C314.2,36.7,311.2,42.4,306.1,46C306.2,46,306.1,46,306.1,46
				z"/>
			<path fill="#7F58A5" d="M295.4,12.1h-9.4c-0.1,0-0.2-0.1-0.2-0.2c0-0.1,0.1-0.2,0.2-0.2h9.4c0.1,0,0.2,0.1,0.2,0.2
				C295.6,12,295.5,12.1,295.4,12.1z"/>
		</g>
	</g>
	<path fill="#7F58A5" d="M148.4,0.3h-0.5c-0.1,0-0.2-0.1-0.2-0.2s0.1-0.2,0.2-0.2h0.5c0.1,0,0.2,0.1,0.2,0.2S148.5,0.3,148.4,0.3z
		 M146.6,0.3h-1.3c-0.1,0-0.2-0.1-0.2-0.2s0.1-0.2,0.2-0.2h1.3c0.1,0,0.2,0.1,0.2,0.2S146.6,0.3,146.6,0.3z M144,0.3h-1.3
		c-0.1,0-0.2-0.1-0.2-0.2s0.1-0.2,0.2-0.2h1.3c0.1,0,0.2,0.1,0.2,0.2S144.1,0.3,144,0.3z M141.5,0.3h-1.3c-0.1,0-0.2-0.1-0.2-0.2
		s0.1-0.2,0.2-0.2h1.3c0.1,0,0.2,0.1,0.2,0.2S141.6,0.3,141.5,0.3z M138.9,0.3h-1.3c-0.1,0-0.2-0.1-0.2-0.2s0.1-0.2,0.2-0.2h1.3
		c0.1,0,0.2,0.1,0.2,0.2S139,0.3,138.9,0.3z M136.4,0.3h-1.3c-0.1,0-0.2-0.1-0.2-0.2S135,0,135.1,0h1.3c0.1,0,0.2,0.1,0.2,0.2
		S136.5,0.3,136.4,0.3z M133.8,0.3h-1.3c-0.1,0-0.2-0.1-0.2-0.2s0.1-0.2,0.2-0.2h1.3c0.1,0,0.2,0.1,0.2,0.2S133.9,0.3,133.8,0.3z
		 M131.3,0.3H130c-0.1,0-0.2-0.1-0.2-0.2S129.9,0,130,0h1.3c0.1,0,0.2,0.1,0.2,0.2S131.4,0.3,131.3,0.3z M128.8,0.3h-1.3
		c-0.1,0-0.2-0.1-0.2-0.2s0.1-0.2,0.2-0.2h1.3c0.1,0,0.2,0.1,0.2,0.2S128.9,0.3,128.8,0.3z M126.2,0.3H125c-0.1,0-0.2-0.1-0.2-0.2
		S124.9,0,125,0h1.3c0.1,0,0.2,0.1,0.2,0.2S126.3,0.3,126.2,0.3z M123.7,0.3h-1.3c-0.1,0-0.2-0.1-0.2-0.2s0.1-0.2,0.2-0.2h1.3
		c0.1,0,0.2,0.1,0.2,0.2S123.8,0.3,123.7,0.3z M121.1,0.3h-1.3c-0.1,0-0.2-0.1-0.2-0.2s0.1-0.2,0.2-0.2h1.3c0.1,0,0.2,0.1,0.2,0.2
		S121.2,0.3,121.1,0.3z M118.6,0.3h-1.3c-0.1,0-0.2-0.1-0.2-0.2s0.1-0.2,0.2-0.2h1.3c0.1,0,0.2,0.1,0.2,0.2S118.7,0.3,118.6,0.3z"/>
</g>
<g>
</g>
<g>
</g>
<g>
</g>
<g>
</g>
<g>
</g>
<g>
</g>
<g>
</g>
<g>
</g>
<g>
</g>
<g>
</g>
<g>
</g>
<g>
</g>
<g>
</g>
<g>
</g>
<g>
</g>
</svg>
