<?xml version="1.0" encoding="utf-8"?>
<!-- Generator: Adobe Illustrator 18.0.0, SVG Export Plug-In . SVG Version: 6.00 Build 0)  -->
<!DOCTYPE svg PUBLIC "-//W3C//DTD SVG 1.1//EN" "http://www.w3.org/Graphics/SVG/1.1/DTD/svg11.dtd">
<svg version="1.1" id="Layer_1" xmlns="http://www.w3.org/2000/svg" xmlns:xlink="http://www.w3.org/1999/xlink" x="0px" y="0px"
	 viewBox="0 0 344.8 145.6" enable-background="new 0 0 344.8 145.6" xml:space="preserve">
<g>
	<g>
		<path fill="#E6E7E8" d="M83.7,117.8V58C44.2,60.6,14,65,0,70.2L0,130C14,124.8,44.2,120.4,83.7,117.8z"/>
		<path fill="#E6E7E8" d="M170.8,114.9V55.1c-30.3,0.1-58.8,1-83.7,2.6v59.8C112,115.9,140.5,115,170.8,114.9z"/>
		<path fill="#E6E7E8" d="M257.8,117.3V57.5c-25-1.5-53.5-2.4-83.6-2.4H174v59.8h0.2C204.3,114.9,232.7,115.8,257.8,117.3z"/>
		<path fill="#E6E7E8" d="M344.8,128.8V71.9c-15.7-4.8-45.6-11.8-83.7-14.2v59.8C299.2,120,329.1,124,344.8,128.8z"/>
	</g>
	<g>
		<path fill="#032360" d="M151.3,20.6c-8.2,6.3-8.8,12-18.6,19.6C118.3,51.4,96.6,39,96.6,39l-3,6.3c0,0,27.4,20.8,51.5,12.3
			s18.1-15.3,18.1-15.3L151.3,20.6z"/>
		<g>
			<polygon fill="#E6E7E8" points="97,39.3 90.6,34.7 87.3,42.7 95.8,48.1 			"/>
			<polygon fill="#E6E7E8" points="90.6,34.7 86,27.8 84.1,28.9 90.2,36.8 90.9,36.1 			"/>
			<path fill="#E6E7E8" d="M89.1,38.6c-0.4-0.1-4.5-3.5-4.5-3.5l-3.8-6.3l1.8-1l3.3,6.4l4.3,2.6L89.1,38.6z"/>
			<path fill="#E6E7E8" d="M88.6,40.7c-0.2-0.3-4.7-3.5-4.7-3.5l-1.9-5.2l1-0.6l1.5,3.8l4.5,3.5L88.6,40.7z"/>
			<path fill="#E6E7E8" d="M87.3,42.7c-0.5-0.1-2.9-3.8-2.9-3.8l-0.7-2.8l0.8-1l1.5,3.9l2.6,1.7L87.3,42.7z"/>
			<polygon fill="#E6E7E8" points="97,39.3 93.8,33.3 92.2,34.3 92.7,37 			"/>
			<path fill="#E6E7E8" d="M93.8,33.3c0,0-1.7-2.5-1.9-2.4c-0.2,0.1-1.4,0.4-1.4,0.4l0.8,1.3l0.9,1.7l1,0.2L93.8,33.3z"/>
		</g>
		<g>
			<path fill="#BCBEC0" d="M54.9,28.9c-5.5,2.5-7.2,20.8-4.8,26.5S57.4,67,57.4,67l17.9-22.6L77,22.1L54.9,28.9z"/>
			<path fill="#F1F2F2" d="M54.9,28.9c6.8-0.2,16.2,19.6,25.9,32.6l11.8,18.7c0,0,7.2-9.7,14.1-15.4C101,47.8,85.1,23.6,77,22.1
				L54.9,28.9z"/>
			<polyline fill="none" stroke="#0C56AB" stroke-width="0.8919" stroke-miterlimit="10" points="70.7,43 71.2,38.8 78.9,44.6 
				77,37 80,38.7 81,35.2 84,36.6 84.3,34.1 			"/>
			<line fill="none" stroke="#0C56AB" stroke-width="2.6758" stroke-miterlimit="10" x1="77.5" y1="50.9" x2="87.1" y2="44.7"/>
			<line fill="none" stroke="#AED581" stroke-width="2.6758" stroke-miterlimit="10" x1="78.5" y1="52.5" x2="92.1" y2="43.8"/>
			<line fill="none" stroke="#F79ABB" stroke-width="2.6758" stroke-miterlimit="10" x1="79.5" y1="54.1" x2="91.4" y2="46.5"/>
			<line fill="none" stroke="#C12B5D" stroke-width="2.6758" stroke-miterlimit="10" x1="80.5" y1="55.7" x2="88" y2="51.1"/>
			<line fill="none" stroke="#D1D3D4" stroke-width="0.6689" stroke-miterlimit="10" x1="66" y1="35.2" x2="81.3" y2="26.7"/>
			<line fill="none" stroke="#D1D3D4" stroke-width="0.6689" stroke-miterlimit="10" x1="66.6" y1="36" x2="82" y2="27.5"/>
			<line fill="none" stroke="#D1D3D4" stroke-width="0.6689" stroke-miterlimit="10" x1="67.3" y1="36.9" x2="82.6" y2="28.3"/>
			<line fill="none" stroke="#D1D3D4" stroke-width="0.6689" stroke-miterlimit="10" x1="67.9" y1="37.7" x2="83.2" y2="29.1"/>
			<line fill="none" stroke="#D1D3D4" stroke-width="0.6689" stroke-miterlimit="10" x1="71.1" y1="43.2" x2="86.3" y2="34"/>
			<polyline fill="none" stroke="#0C56AB" stroke-width="0.8919" stroke-miterlimit="10" points="67,37.9 66.9,30.1 71.3,35.1 
				71.3,31.8 73.3,32.9 73,26.4 78.6,30.6 77.7,27 80.6,29.6 			"/>
			<line fill="none" stroke="#D1D3D4" stroke-width="0.6689" stroke-miterlimit="10" x1="75.7" y1="49.3" x2="82.5" y2="59.7"/>
			<line fill="none" stroke="#D1D3D4" stroke-width="0.6689" stroke-miterlimit="10" x1="82.5" y1="59.7" x2="97.1" y2="49.3"/>
		</g>
		<g>
			<polygon fill="#E6E7E8" points="113.8,6.9 114,13.5 124.4,35.3 129.6,29.2 134.9,33.7 152.2,19.2 131,3.1 			"/>
			<path fill="#032360" d="M139.2,8.8c-0.7-3.3-4.5-9.8-12.6-8.7s-13,6.2-16.3,5.7c0,0,3.4,3.2,10,1.3s14,2.2,13.8,3L139.2,8.8z"/>
			<polygon fill="#E6E7E8" points="116.7,18.6 117.3,25.9 120.6,24.7 			"/>
			<path fill="#E6E7E8" d="M133.9,10.6c0.2-1.5,1.9-2.4,3.1-1.4c1.1,0.9,2,3.7,0.9,4.1s-1.9,0-1.9,0"/>
		</g>
		<path fill="#032360" d="M151.5,17.7c21.2,20.1,28.3,60.1,16.4,104.3l-55.1-1.1c12.8-25.5,23.6-53.9,22.2-87.2L151.5,17.7z"/>
		<path fill="#032360" d="M150.7,22.5c-10.4,8-16.4,19.9-28.8,29.5c-18.4,14.2-45.8-1.4-45.8-1.4l-3.8,8c0,0,34.7,26.3,65.2,15.6
			s22.9-19.4,22.9-19.4L150.7,22.5z"/>
		<g>
			<ellipse fill="#032360" cx="135.7" cy="10.5" rx="2.5" ry="2.4"/>
			<ellipse fill="#0C56AB" cx="135.7" cy="10.5" rx="1.5" ry="1.5"/>
		</g>
		<path fill="none" stroke="#0C56AB" stroke-width="0.8919" stroke-miterlimit="10" d="M135.4,11.7c0.3,2.3-2.6,12.1-7.4,13.6"/>
		<circle fill="#032360" cx="128" cy="25.4" r="1.3"/>
		<g>
			<polygon fill="#E6E7E8" points="76.1,50.6 71.5,44.2 65.9,50.8 72.3,58.6 			"/>
			<polygon fill="#E6E7E8" points="71.5,44.2 69.2,36.3 67.1,36.7 70.5,46.1 71.4,45.7 			"/>
			<path fill="#E6E7E8" d="M68.9,47.5c-0.3-0.2-3.2-4.7-3.2-4.7L64,35.7l2.1-0.4l1.1,7.1l3.3,3.7L68.9,47.5z"/>
			<path fill="#E6E7E8" d="M67.8,49.4c-0.1-0.3-3.4-4.7-3.4-4.7l-0.2-5.5l1.1-0.3l0.3,4.1l3.2,4.7L67.8,49.4z"/>
			<path fill="#E6E7E8" d="M65.9,50.8c-0.5-0.3-1.6-4.5-1.6-4.5l0.2-2.8l1.1-0.7l0.2,4.1l1.9,2.4L65.9,50.8z"/>
			<polygon fill="#E6E7E8" points="76.1,50.6 75,43.8 73.1,44.4 72.8,47.1 			"/>
			<path fill="#E6E7E8" d="M75,43.8c0,0-0.8-2.9-1.1-2.9s-1.5,0-1.5,0l0.4,1.5l0.3,1.9l0.9,0.5L75,43.8z"/>
		</g>
		<g>
			<path fill="#0C56AB" d="M113.9,56.2c2.4-1.4,4.8-2.7,7.1-4.1c2.3-1.4,4.7-2.8,7-4.4c2.3-1.5,4.5-3.1,6.7-4.7l1.6-1.3l1.5-1.3
				c0.5-0.5,1-0.9,1.5-1.4l1.4-1.5c-1.5,2.3-3.5,4.3-5.6,6c-2.1,1.8-4.4,3.4-6.7,4.9c-2.3,1.5-4.7,2.9-7.1,4.2
				C118.9,53.9,116.5,55.2,113.9,56.2z"/>
		</g>
		<g>
			<path fill="#0C56AB" d="M129.7,76.1c1.6-0.3,3.1-0.8,4.6-1.3c1.5-0.5,3-1.2,4.4-1.8c2.9-1.3,5.8-2.7,8.6-4.1
				c2.9-1.3,5.8-2.7,8.7-3.9c1.5-0.6,3-1.1,4.6-1.5c0.8-0.2,1.6-0.3,2.4-0.4c0.8-0.1,1.6-0.1,2.4,0.2c-1.6-0.3-3.2,0.2-4.6,0.6
				c-1.5,0.5-3,1.1-4.4,1.7c-2.9,1.3-5.8,2.7-8.6,4.1c-2.9,1.3-5.8,2.7-8.7,3.9C135.9,74.7,132.8,75.8,129.7,76.1z"/>
		</g>
	</g>
	<g>
		<path fill="#032360" d="M192.1,19.4c7.7,5.9,8.2,11.2,17.3,18.3c13.6,10.5,33.8-1,33.8-1l2.8,5.9c0,0-25.6,19.5-48.1,11.5
			S181,39.7,181,39.7L192.1,19.4z"/>
		<g>
			<polygon fill="#E6E7E8" points="242.9,36.9 248.8,32.6 251.9,40.1 244,45.1 			"/>
			<polygon fill="#E6E7E8" points="248.8,32.6 253.2,26.2 254.9,27.1 249.2,34.6 248.5,33.9 			"/>
			<path fill="#E6E7E8" d="M250.2,36.3c0.3-0.1,4.2-3.2,4.2-3.2l3.6-5.9l-1.7-0.9l-3.1,6l-4,2.4L250.2,36.3z"/>
			<path fill="#E6E7E8" d="M250.6,38.2c0.2-0.2,4.4-3.2,4.4-3.2l1.8-4.8l-0.9-0.6l-1.4,3.5l-4.2,3.2L250.6,38.2z"/>
			<path fill="#E6E7E8" d="M251.9,40.1c0.5-0.1,2.7-3.5,2.7-3.5l0.6-2.6l-0.8-0.9l-1.4,3.6l-2.4,1.6L251.9,40.1z"/>
			<polygon fill="#E6E7E8" points="242.9,36.9 245.8,31.2 247.3,32.2 246.8,34.7 			"/>
			<path fill="#E6E7E8" d="M245.8,31.2c0,0,1.6-2.3,1.8-2.3c0.2,0.1,1.3,0.4,1.3,0.4l-0.8,1.2l-0.8,1.6l-1,0.2L245.8,31.2z"/>
		</g>
		<g>
			<path fill="#BCBEC0" d="M282.2,27.1c5.1,2.4,6.7,19.5,4.5,24.8c-2.2,5.3-6.9,10.8-6.9,10.8l-16.8-21.1l-1.5-20.8L282.2,27.1z"/>
			<path fill="#F1F2F2" d="M282.2,27.1c-6.3-0.2-15.1,18.3-24.2,30.5l-11,17.5c0,0-6.7-9-13.2-14.4c5.3-15.9,20.1-38.5,27.7-39.9
				L282.2,27.1z"/>
			<polyline fill="none" stroke="#0C56AB" stroke-width="0.8919" stroke-miterlimit="10" points="267.4,40.3 266.9,36.4 259.8,41.8 
				261.5,34.8 258.7,36.3 257.8,33.1 255,34.4 254.7,32 			"/>
			<line fill="none" stroke="#0C56AB" stroke-width="2.6758" stroke-miterlimit="10" x1="261.1" y1="47.7" x2="252.1" y2="41.9"/>
			<line fill="none" stroke="#AED581" stroke-width="2.6758" stroke-miterlimit="10" x1="260.1" y1="49.2" x2="247.4" y2="41"/>
			<line fill="none" stroke="#F79ABB" stroke-width="2.6758" stroke-miterlimit="10" x1="259.2" y1="50.7" x2="248.1" y2="43.6"/>
			<line fill="none" stroke="#C12B5D" stroke-width="2.6758" stroke-miterlimit="10" x1="258.2" y1="52.2" x2="251.3" y2="47.9"/>
			<line fill="none" stroke="#D1D3D4" stroke-width="0.6689" stroke-miterlimit="10" x1="271.8" y1="33.1" x2="257.5" y2="25.1"/>
			<line fill="none" stroke="#D1D3D4" stroke-width="0.6689" stroke-miterlimit="10" x1="271.2" y1="33.8" x2="256.9" y2="25.8"/>
			<line fill="none" stroke="#D1D3D4" stroke-width="0.6689" stroke-miterlimit="10" x1="270.6" y1="34.6" x2="256.3" y2="26.6"/>
			<line fill="none" stroke="#D1D3D4" stroke-width="0.6689" stroke-miterlimit="10" x1="270" y1="35.3" x2="255.7" y2="27.3"/>
			<line fill="none" stroke="#D1D3D4" stroke-width="0.6689" stroke-miterlimit="10" x1="267" y1="40.6" x2="252.8" y2="32"/>
			<polyline fill="none" stroke="#0C56AB" stroke-width="0.8919" stroke-miterlimit="10" points="270.9,35.6 271,28.3 266.9,32.9 
				266.8,29.9 265,30.9 265.3,24.8 260,28.7 260.8,25.4 258.2,27.8 			"/>
			<line fill="none" stroke="#D1D3D4" stroke-width="0.6689" stroke-miterlimit="10" x1="262.8" y1="46.2" x2="256.4" y2="56"/>
			<line fill="none" stroke="#D1D3D4" stroke-width="0.6689" stroke-miterlimit="10" x1="256.4" y1="56" x2="242.7" y2="46.2"/>
		</g>
		<g>
			<polygon fill="#E6E7E8" points="227.1,6.6 227,12.8 217.3,33.1 212.4,27.4 207.4,31.6 191.3,18.1 211,3 			"/>
			<path fill="#032360" d="M203.5,8.4c0.6-3.1,4.2-9.1,11.8-8.1c7.6,1,12.2,5.8,15.3,5.3c0,0-3.1,3-9.3,1.2s-13.1,2-12.9,2.8
				L203.5,8.4z"/>
			<polygon fill="#E6E7E8" points="224.5,17.5 223.9,24.4 220.8,23.2 			"/>
			<path fill="#E6E7E8" d="M208.4,10c-0.1-1.4-1.8-2.2-2.9-1.3s-1.9,3.4-0.8,3.8c1.1,0.4,1.8,0,1.8,0"/>
		</g>
		<path fill="#032360" d="M191.9,16.7c-19.8,18.8-26.4,56.2-15.3,97.4l51.5-1c-11.9-23.9-22-50.4-20.7-81.5L191.9,16.7z"/>
		<path fill="#032360" d="M192.7,21.2c9.7,7.4,15.3,18.6,26.9,27.5c17.2,13.3,42.8-1.3,42.8-1.3l3.6,7.4c0,0-32.4,24.6-60.9,14.6
			s-21.4-18.1-21.4-18.1L192.7,21.2z"/>
		<g>
			<ellipse fill="#032360" cx="206.7" cy="10" rx="2.3" ry="2.2"/>
			<ellipse fill="#0C56AB" cx="206.7" cy="10" rx="1.4" ry="1.4"/>
		</g>
		<path fill="none" stroke="#0C56AB" stroke-width="0.8919" stroke-miterlimit="10" d="M207,11.1c-0.3,2.2,2.5,11.3,7,12.7"/>
		<circle fill="#032360" cx="213.9" cy="23.9" r="1.3"/>
		<g>
			<polygon fill="#E6E7E8" points="262.3,47.4 266.6,41.5 271.9,47.7 265.9,54.9 			"/>
			<polygon fill="#E6E7E8" points="266.6,41.5 268.8,34 270.8,34.4 267.6,43.3 266.8,42.8 			"/>
			<path fill="#E6E7E8" d="M269.1,44.6c0.3-0.2,3-4.4,3-4.4l1.6-6.7l-1.9-0.4l-1.1,6.6l-3.1,3.5L269.1,44.6z"/>
			<path fill="#E6E7E8" d="M270.1,46.3c0.1-0.3,3.1-4.4,3.1-4.4l0.2-5.1l-1.1-0.3l-0.3,3.8l-3,4.4L270.1,46.3z"/>
			<path fill="#E6E7E8" d="M271.9,47.7c0.5-0.2,1.5-4.2,1.5-4.2l-0.2-2.6l-1-0.6l-0.2,3.9l-1.8,2.2L271.9,47.7z"/>
			<polygon fill="#E6E7E8" points="262.3,47.4 263.4,41.1 265.1,41.6 265.4,44.1 			"/>
			<path fill="#E6E7E8" d="M263.4,41.1c0,0,0.8-2.7,1-2.7c0.2,0,1.4,0,1.4,0l-0.4,1.4l-0.3,1.8l-0.9,0.5L263.4,41.1z"/>
		</g>
		<g>
			<path fill="#0C56AB" d="M227,52.7c-2.4-0.9-4.7-2.1-7-3.3c-2.3-1.2-4.5-2.5-6.6-3.9c-2.1-1.4-4.3-2.9-6.2-4.6
				c-2-1.7-3.8-3.5-5.2-5.7l1.3,1.4c0.5,0.4,0.9,0.9,1.4,1.3l1.4,1.2l1.5,1.2c2,1.5,4.1,3,6.3,4.4c2.1,1.4,4.3,2.7,6.5,4.1
				C222.6,50.1,224.8,51.4,227,52.7z"/>
		</g>
		<g>
			<path fill="#0C56AB" d="M212.3,71.2c-3-0.2-5.9-1.3-8.6-2.3c-2.8-1.1-5.5-2.4-8.2-3.6c-2.7-1.3-5.3-2.6-8-3.8
				c-1.3-0.6-2.7-1.2-4.1-1.6c-1.4-0.4-2.9-0.8-4.3-0.6c0.7-0.2,1.5-0.3,2.2-0.2c0.8,0.1,1.5,0.2,2.2,0.4c1.5,0.4,2.9,0.9,4.3,1.4
				c2.8,1.1,5.5,2.4,8.2,3.6c2.7,1.3,5.3,2.6,8,3.8c1.3,0.6,2.7,1.2,4.1,1.7C209.5,70.5,210.9,70.9,212.3,71.2z"/>
		</g>
	</g>
	<path fill="#573392" d="M83.7,83v59.8c-39.5-2.7-69.8-7-83.7-12.2V70.7C14,76,44.2,80.3,83.7,83z"/>
	<path fill="#573392" d="M170.8,85.8v59.8c-30.3-0.1-58.8-1-83.7-2.6V83.2C112,84.8,140.5,85.7,170.8,85.8z"/>
	<path fill="#573392" d="M257.8,83.4v59.8c-25,1.5-53.5,2.4-83.6,2.4H174V85.8h0.2C204.3,85.8,232.7,84.9,257.8,83.4z"/>
	<path fill="#573392" d="M344.8,71.9v59.8c-15.7,4.8-45.6,8.8-83.7,11.3V83.2C299.2,80.8,329.1,76.8,344.8,71.9z"/>
	<g>
		<g>
			<g>
				<polygon fill="#FFFFFF" points="15.7,119.6 14.9,118.9 27.6,108.3 33.3,113.7 41.8,106.2 48.8,113 58.5,104.6 59.3,105.3 
					48.9,114.3 41.9,107.5 33.4,115 27.6,109.6 				"/>
				<polygon fill="#FFFFFF" points="59.7,107.8 58.7,107.7 58.7,105.1 55.8,104.8 55.8,103.9 59.7,104.4 				"/>
				<polygon fill="#FFFFFF" points="60.9,131.6 16.3,125 16.3,124.2 60.9,130.7 				"/>
				<polygon fill="#FFFFFF" points="18.2,124.8 17.3,124.6 17.3,117.2 18.2,117.3 				"/>
				<polygon fill="#FFFFFF" points="26,125.9 25,125.8 25,110.8 26,110.9 				"/>
				<polygon fill="#FFFFFF" points="33.8,127.1 32.8,126.9 32.8,114 33.8,114.2 				"/>
				<polygon fill="#FFFFFF" points="41.6,128.2 40.6,128.1 40.6,107.5 41.6,107.6 				"/>
				<polygon fill="#FFFFFF" points="49.4,129.3 48.4,129.2 48.4,113 49.4,113.1 				"/>
				<polygon fill="#FFFFFF" points="57.2,130.8 56.2,130.7 56.2,106.8 57.2,106.9 				"/>
			</g>
			<g>
				<g>
					<g>
						<path fill="#FFFFFF" d="M41.8,91.3c-0.8-0.7-1.5-1.1-2.4-1.3c-1.1-0.1-1.7,0.3-1.7,1.2c0,2,5.7,2.4,5.7,6.1
							c0,1.8-1.2,3-3.3,3.1v1.9l-1.9-0.2v-1.8c-1.3-0.3-2.7-1-3.7-1.9l1.2-1.5c1,0.8,2,1.4,3.1,1.5c1.3,0.2,1.9-0.3,1.9-1.2
							c0-2.2-5.7-2.7-5.7-6.2c0-1.8,1.2-2.9,3.2-3v-1.9l1.9,0.2v1.9c1.4,0.3,2.3,1,3.1,1.9L41.8,91.3z"/>
					</g>
				</g>
			</g>
		</g>
	</g>
	<g>
		<g>
			<path fill="#FFFFFF" d="M208.9,129.3l-15.4,0.8l3.9-7.3l8.6-0.4L208.9,129.3z M195.9,128.5l10.9-0.5l-1.8-4.2l-6.8,0.3
				L195.9,128.5z"/>
			<path fill="#FFFFFF" d="M216.8,119.8l-15.4,0.6l3.9-7.2l8.6-0.3L216.8,119.8z M203.8,118.9l10.9-0.4l-1.8-4.2l-6.8,0.2
				L203.8,118.9z"/>
			<path fill="#FFFFFF" d="M233.2,119.1l-15.4,0.6l3.9-7.1l8.6-0.3L233.2,119.1z M220.2,118.3l10.9-0.4l-1.8-4.1l-6.8,0.2
				L220.2,118.3z"/>
			<path fill="#FFFFFF" d="M224.9,110.5l-15.4,0.4l3.9-7.1l8.6-0.2L224.9,110.5z M211.8,109.5l10.9-0.3L221,105l-6.8,0.2
				L211.8,109.5z"/>
			<path fill="#FFFFFF" d="M225.3,128.5l-15.4,0.8l3.9-7.2l8.6-0.4L225.3,128.5z M212.3,127.7l10.9-0.5l-1.8-4.2l-6.8,0.3
				L212.3,127.7z"/>
			<path fill="#FFFFFF" d="M241.7,127.6l-15.4,0.8l3.9-7l8.6-0.4L241.7,127.6z M228.7,127l10.9-0.5l-1.8-4.1l-6.8,0.3L228.7,127z"/>
		</g>
	</g>
	<g>
		<g>
			<g>
				<g>
					<defs>
						<polygon id="SVGID_1_" points="141.8,135.7 116.2,133.6 116.2,119.6 141.8,121.7 						"/>
					</defs>
					<clipPath id="SVGID_2_">
						<use xlink:href="#SVGID_1_"  overflow="visible"/>
					</clipPath>
				</g>
			</g>
		</g>
		<g>
			<g>
				<path fill="#FFFFFF" d="M123.1,116.4l-1.1,0.4l-0.5-1.2l-2.2,0.7l-3.2-7.4l2.2-0.7l-0.6-1.4l1.1-0.4l0.6,1.4
					c0.6-0.2,1.2-0.3,1.6-0.3c0.4,0,0.7,0.1,1,0.3c0.1,0.1,0.3,0.2,0.4,0.3c0.1,0.1,0.2,0.3,0.3,0.4c0.3,0.6,0.2,1.2-0.2,1.8
					c-0.1,0.1-0.1,0.1-0.2,0.2c-0.1,0.1-0.1,0.1-0.2,0.2c0.3,0,0.6,0,0.9,0.1c0.3,0.1,0.5,0.1,0.8,0.3c0.4,0.2,0.7,0.5,0.8,0.9
					c0.2,0.4,0.2,0.8,0.1,1.2c-0.1,0.4-0.3,0.7-0.6,1c-0.3,0.3-0.8,0.6-1.5,0.8L123.1,116.4z M118.7,109.3l-0.7,0.2l0.8,1.9l0.7-0.2
					L118.7,109.3z M119.3,112.5l0.9,2.2l0.7-0.2l-0.9-2.2L119.3,112.5z M120.6,110.7c0.5-0.2,0.8-0.5,0.8-0.7s0-0.4-0.2-0.6
					s-0.3-0.4-0.5-0.5s-0.5-0.1-0.9,0L120.6,110.7z M122.1,114.1c0.6-0.3,0.9-0.6,0.9-1c0-0.4-0.2-0.7-0.4-1s-0.7-0.3-1.3-0.1
					L122.1,114.1z"/>
			</g>
			<g>
				<path fill="#FFFFFF" d="M135.3,115.8c0.3,0,0.6-0.1,1-0.2c0.4-0.1,0.6-0.3,0.7-0.6c0.1-0.1,0.1-0.3,0.1-0.5c0-0.1,0-0.3,0-0.5
					l-0.9-0.4l0.2-0.5l0.6,0.3c0-0.4,0-0.7,0-0.9c0-0.2,0.1-0.5,0.2-0.7c0.2-0.5,0.6-0.8,1.2-1c0.6-0.2,1.3-0.1,2.1,0.3
					c0.7,0.3,1.2,0.8,1.5,1.3s0.3,1.3,0,2.1l-1.4-0.7c0.1-0.3,0.1-0.6,0.1-0.9c-0.1-0.3-0.3-0.6-0.7-0.8c-0.3-0.1-0.6-0.2-0.9-0.1
					c-0.3,0.1-0.4,0.3-0.6,0.5c-0.1,0.1-0.1,0.3-0.1,0.5s0,0.5,0,1.1l1.5,0.7l-0.2,0.5l-1.2-0.6c0,0.1-0.1,0.2-0.1,0.3
					c0,0.1-0.1,0.2-0.1,0.2c-0.1,0.3-0.4,0.5-0.7,0.7c-0.2,0.1-0.6,0.2-1.1,0.4c0.3,0,0.5,0.1,0.7,0.1c0.2,0,0.4,0.1,0.6,0.2
					c0.1,0.1,0.2,0.1,0.3,0.2c0.1,0.1,0.2,0.2,0.3,0.3l0.2,0.2c0.1,0.1,0.1,0.1,0.2,0.2c0.1,0,0.1,0.1,0.2,0.1
					c0.2,0.1,0.4,0.1,0.6,0.1c0.1,0,0.3,0,0.6,0l0,1.2c-0.2,0-0.5,0-0.8,0c-0.3,0-0.7-0.1-0.9-0.3c-0.1-0.1-0.3-0.2-0.4-0.3
					c-0.1-0.1-0.3-0.2-0.5-0.4l-0.3-0.2c-0.1-0.1-0.2-0.2-0.3-0.2c-0.1-0.1-0.3-0.2-0.4-0.2c-0.2-0.1-0.3-0.1-0.5-0.2
					c-0.1,0-0.4,0-0.7,0L135.3,115.8z"/>
			</g>
			<g>
				<path fill="#FFFFFF" d="M124.9,107.3l0.6-0.9l1.3,0.5c0-0.2,0.1-0.3,0.2-0.5c0.1-0.2,0.1-0.3,0.2-0.4l-1.5-0.6l0.6-0.9l1.4,0.6
					c0.4-0.5,0.8-0.9,1.3-1.1c0.7-0.4,1.5-0.4,2.3-0.1c1.1,0.4,1.7,1.2,1.9,2.1c0.1,0.6,0.1,1.1,0,1.5l-1.3-0.5c0-0.4,0-0.7-0.1-0.9
					c-0.1-0.4-0.4-0.7-0.9-0.9c-0.5-0.2-1-0.1-1.4,0.2c-0.1,0.1-0.2,0.2-0.3,0.3l2.1,0.8l-0.6,0.9l-2.1-0.8
					c-0.1,0.1-0.1,0.3-0.2,0.5c-0.1,0.2-0.1,0.3-0.2,0.5l1.9,0.8l-0.6,0.9l-1.5-0.6c0,0.1,0,0.3,0.1,0.4c0.2,0.5,0.5,0.9,0.9,1.1
					c0.5,0.2,0.9,0.2,1.3-0.1c0.2-0.1,0.4-0.4,0.6-0.7l1.3,0.5c-0.4,0.7-0.9,1.2-1.6,1.5c-0.7,0.3-1.4,0.3-2.1,0
					c-0.9-0.4-1.5-1-1.8-1.9c-0.2-0.5-0.2-0.9-0.2-1.5L124.9,107.3z"/>
			</g>
			<g>
				<path fill="#FFFFFF" d="M117.3,98.7l-0.2-1.1l1.4-0.2l-0.5-1l-1,0.1l-0.2-1.1l0.7-0.1l-0.7-1.4l1.8-0.2l0.6,1.4l1.8-0.2l0-1.5
					l1.7-0.2l0.6,1.4l1.9-0.2l0-1.5l1.7-0.2l-0.1,1.5l0.7-0.1l0.2,1.1l-1,0.1l-0.1,1.1l1.3-0.2l0.2,1.1l-1.6,0.2l-0.2,3.2l-1.6,0.2
					l-1.3-3l-1.2,0.1l0,3.2l-1.5,0.2l-1.6-3L117.3,98.7z M120,97.3l0.9-0.1l0-1l-1.3,0.2L120,97.3z M120.9,99.4l0-1.1l-0.4,0
					L120.9,99.4z M122,97.1l0.8-0.1l-0.4-1l-0.3,0L122,97.1z M124,96.9l0.9-0.1l0-1l-1.4,0.2L124,96.9z M124.9,98.9l0-1.1l-0.5,0.1
					L124.9,98.9z"/>
			</g>
			<g>
				<path fill="#FFFFFF" d="M142.2,98l-2.1,1.6l0.7,0.3l-0.3,0.6l-1.1-0.5l-1,0.8l1.4,0.7l-0.3,0.6l-1.6-0.8l-1,2.2l-1.5-0.7l1-2.2
					l-1.6-0.8l0.3-0.6l1.4,0.7l-0.1-1.3l-1.1-0.5l0.3-0.6l0.7,0.4l-0.2-2.8l1.7,0.8l0,3.5l2.6-2.3L142.2,98z"/>
			</g>
			<g>
				<path fill="#0C56AB" d="M143.8,137.8l-29.6-2.5l0-17.9l29.6,2.5L143.8,137.8z M115.5,134.3l27.2,2.3l0-15.6l-27.2-2.3
					L115.5,134.3z"/>
				<g>
					<polygon fill="#FFFFFF" points="143.2,137.2 114.8,134.8 114.8,118.1 143.2,120.4 					"/>
				</g>
				<g>
					<defs>
						<polygon id="SVGID_3_" points="141.8,135.7 116.2,133.6 116.2,119.6 141.8,121.7 						"/>
					</defs>
					<clipPath id="SVGID_4_">
						<use xlink:href="#SVGID_3_"  overflow="visible"/>
					</clipPath>
					<polygon clip-path="url(#SVGID_4_)" fill="#FFFFFF" points="141.8,135.7 116.2,133.5 116.2,119.6 141.8,121.7 					"/>
					<path clip-path="url(#SVGID_4_)" fill="#0C56AB" d="M118,119.7c0,0.9-0.8,1.6-1.8,1.6c-1-0.1-1.8-0.9-1.8-1.9
						c0-0.9,0.8-1.6,1.8-1.6C117.2,117.9,118,118.8,118,119.7z"/>
					<path clip-path="url(#SVGID_4_)" fill="#0C56AB" d="M143.6,121.8c0,0.9-0.8,1.6-1.8,1.6s-1.8-0.9-1.8-1.9
						c0-0.9,0.8-1.6,1.8-1.6C142.8,120.1,143.6,120.9,143.6,121.8z"/>
					<path clip-path="url(#SVGID_4_)" fill="#0C56AB" d="M118,133.7c0,0.9-0.8,1.6-1.8,1.6c-1-0.1-1.8-0.9-1.8-1.9
						c0-0.9,0.8-1.6,1.8-1.6S118,132.8,118,133.7z"/>
					<path clip-path="url(#SVGID_4_)" fill="#0C56AB" d="M143.6,135.8c0,0.9-0.8,1.6-1.8,1.6c-1-0.1-1.8-0.9-1.8-1.9
						s0.8-1.6,1.8-1.6S143.6,134.9,143.6,135.8z"/>
					<use xlink:href="#SVGID_3_"  overflow="visible" fill="none" stroke="#0C56AB" stroke-width="2.0593" stroke-miterlimit="10"/>
				</g>
				<g>
					<path fill="#0C56AB" d="M140.2,128.9c0,0.4-0.3,0.6-0.7,0.6c-0.4,0-0.7-0.3-0.7-0.7c0-0.4,0.3-0.6,0.7-0.6
						C139.9,128.2,140.2,128.5,140.2,128.9z"/>
					<path fill="#0C56AB" d="M119.2,127.2c0,0.4-0.3,0.6-0.7,0.6c-0.4,0-0.7-0.3-0.7-0.7c0-0.4,0.3-0.6,0.7-0.6
						C118.9,126.5,119.2,126.8,119.2,127.2z"/>
				</g>
				<g>
					<polygon fill="#0C56AB" points="140.2,141 139.3,140.1 138,140.5 138.8,136.3 141,136.9 					"/>
					<polygon fill="#0C56AB" points="141.4,141.1 142.3,140.3 143.6,140.9 142.7,136.7 140.6,136.9 					"/>
					<path fill="#0C56AB" d="M143.3,135.4c0,1.4-1.2,2.4-2.6,2.3c-1.4-0.1-2.6-1.3-2.6-2.7c0-1.4,1.2-2.4,2.6-2.3
						C142.1,132.9,143.3,134.1,143.3,135.4z"/>
					<polygon fill="#FFFFFF" points="140.8,133.9 141.4,133.3 141.5,134.2 142.4,134.1 141.9,134.9 142.8,135.3 141.9,135.6 
						142.4,136.4 141.5,136.1 141.4,137.1 140.8,136.3 140.1,137 140,136 139.1,136.1 139.6,135.4 138.7,135 139.6,134.7 
						139.1,133.8 140,134.1 140.1,133.2 					"/>
				</g>
				
					<line fill="none" stroke="#0C56AB" stroke-width="0.5148" stroke-linecap="round" stroke-miterlimit="10" x1="120.7" y1="121.2" x2="137.3" y2="122.6"/>
				
					<line fill="none" stroke="#0C56AB" stroke-width="0.5148" stroke-linecap="round" stroke-miterlimit="10" x1="120.7" y1="122.4" x2="137.3" y2="123.8"/>
				
					<line fill="none" stroke="#0C56AB" stroke-width="0.5148" stroke-linecap="round" stroke-miterlimit="10" x1="120.7" y1="123.6" x2="137.3" y2="125"/>
				
					<line fill="none" stroke="#0C56AB" stroke-width="0.5148" stroke-linecap="round" stroke-miterlimit="10" x1="124.2" y1="125.2" x2="137.3" y2="126.2"/>
				
					<line fill="none" stroke="#0C56AB" stroke-width="0.5148" stroke-linecap="round" stroke-miterlimit="10" x1="124.2" y1="126.4" x2="137.3" y2="127.5"/>
				
					<line fill="none" stroke="#0C56AB" stroke-width="0.5148" stroke-linecap="round" stroke-miterlimit="10" x1="124.2" y1="127.6" x2="137.3" y2="128.7"/>
				
					<line fill="none" stroke="#0C56AB" stroke-width="0.5148" stroke-linecap="round" stroke-miterlimit="10" x1="124.2" y1="128.8" x2="137.3" y2="129.9"/>
				
					<line fill="none" stroke="#0C56AB" stroke-width="0.5148" stroke-linecap="round" stroke-miterlimit="10" x1="124.2" y1="130.1" x2="137.3" y2="131.1"/>
				
					<line fill="none" stroke="#0C56AB" stroke-width="0.5148" stroke-linecap="round" stroke-miterlimit="10" x1="120.7" y1="131" x2="137.3" y2="132.4"/>
				
					<line fill="none" stroke="#0C56AB" stroke-width="0.5148" stroke-linecap="round" stroke-miterlimit="10" x1="120.7" y1="132.2" x2="137.3" y2="133.6"/>
			</g>
		</g>
		<g>
			<g>
				<g>
					<defs>
						<polygon id="SVGID_5_" points="141.8,135.7 116.2,133.6 116.2,119.6 141.8,121.7 						"/>
					</defs>
					<clipPath id="SVGID_6_">
						<use xlink:href="#SVGID_5_"  overflow="visible"/>
					</clipPath>
				</g>
			</g>
		</g>
	</g>
	<g>
		<g>
			<g>
				<defs>
					<polygon id="SVGID_7_" points="327.5,117.5 284.8,121.6 284.8,100.6 327.5,95.9 					"/>
				</defs>
				<clipPath id="SVGID_8_">
					<use xlink:href="#SVGID_7_"  overflow="visible"/>
				</clipPath>
			</g>
		</g>
		<g>
			<path fill="#0C56AB" d="M330.9,120.2l-49.4,4.7l0-26.9l49.4-5.5L330.9,120.2z M283.6,122.9l45.3-4.3l0-24l-45.3,5L283.6,122.9z"
				/>
			<g>
				<polygon fill="#FFFFFF" points="329.9,119.4 282.5,123.9 282.5,98.7 329.9,93.5 				"/>
			</g>
			<g>
				<defs>
					<polygon id="SVGID_9_" points="327.5,117.5 284.8,121.6 284.8,100.6 327.5,95.9 					"/>
				</defs>
				<use xlink:href="#SVGID_9_"  overflow="visible" fill="#573392"/>
				<clipPath id="SVGID_10_">
					<use xlink:href="#SVGID_9_"  overflow="visible"/>
				</clipPath>
				<polygon clip-path="url(#SVGID_10_)" fill="#FFFFFF" stroke="#FFFFFF" stroke-width="0.8919" stroke-miterlimit="10" points="
					327.6,117.5 284.9,121.6 284.9,100.5 327.6,95.9 				"/>
				<path clip-path="url(#SVGID_10_)" fill="#0C56AB" d="M287.9,100.2c0,1.4-1.3,2.7-3,2.9c-1.7,0.2-3-0.8-3-2.2
					c0-1.4,1.3-2.7,3-2.9C286.5,97.8,287.9,98.8,287.9,100.2z"/>
				<path clip-path="url(#SVGID_10_)" fill="#0C56AB" d="M330.5,95.6c0,1.5-1.3,2.8-3,3c-1.7,0.2-3-0.9-3-2.3s1.3-2.8,3-3
					C329.2,93.1,330.5,94.1,330.5,95.6z"/>
				<path clip-path="url(#SVGID_10_)" fill="#0C56AB" d="M287.9,121.3c0,1.4-1.3,2.7-3,2.9c-1.7,0.2-3-0.9-3-2.3
					c0-1.4,1.3-2.7,3-2.9S287.9,119.9,287.9,121.3z"/>
				<path clip-path="url(#SVGID_10_)" fill="#0C56AB" d="M330.5,117.2c0,1.5-1.3,2.8-3,2.9c-1.7,0.2-3-0.9-3-2.3
					c0-1.5,1.3-2.8,3-2.9C329.1,114.7,330.5,115.7,330.5,117.2z"/>
			</g>
			<g>
				<path fill="#0C56AB" d="M324.9,107.5c0,0.5-0.5,1-1.1,1.1c-0.6,0.1-1.1-0.3-1.1-0.9c0-0.5,0.5-1,1.1-1.1
					C324.4,106.5,324.9,106.9,324.9,107.5z"/>
				<path fill="#0C56AB" d="M289.8,111.1c0,0.5-0.5,1-1.1,1.1c-0.6,0.1-1.1-0.3-1.1-0.9s0.5-1,1.1-1.1
					C289.3,110.2,289.8,110.5,289.8,111.1z"/>
			</g>
			<g>
				<polygon fill="#0C56AB" points="324.8,126.2 323.3,125 321.2,125.9 322.6,119.4 326.2,119.6 				"/>
				<polygon fill="#0C56AB" points="326.9,126 328.4,124.5 330.5,125.1 329.1,118.7 325.5,119.7 				"/>
				<path fill="#0C56AB" d="M330,116.7c0,2.1-1.9,4-4.3,4.2c-2.4,0.2-4.3-1.3-4.3-3.4c0-2.1,1.9-4,4.3-4.2
					C328.1,113.1,330,114.6,330,116.7z"/>
				<polygon fill="#FFFFFF" points="325.8,115.1 326.8,113.9 327,115.3 328.6,114.9 327.8,116.2 329.2,116.6 327.8,117.3 
					328.6,118.4 327,118.3 326.8,119.7 325.8,118.7 324.7,119.9 324.6,118.5 323,119 323.8,117.7 322.3,117.3 323.8,116.6 
					323,115.4 324.6,115.6 324.7,114.1 				"/>
			</g>
			
				<line fill="none" stroke="#0C56AB" stroke-width="0.5148" stroke-linecap="round" stroke-miterlimit="10" x1="292.4" y1="101.6" x2="320.1" y2="98.6"/>
			
				<line fill="none" stroke="#0C56AB" stroke-width="0.5148" stroke-linecap="round" stroke-miterlimit="10" x1="292.4" y1="103.5" x2="320.1" y2="100.5"/>
			
				<line fill="none" stroke="#0C56AB" stroke-width="0.5148" stroke-linecap="round" stroke-miterlimit="10" x1="292.4" y1="105.3" x2="320.1" y2="102.4"/>
			
				<line fill="none" stroke="#0C56AB" stroke-width="0.5148" stroke-linecap="round" stroke-miterlimit="10" x1="298.1" y1="106.6" x2="320.1" y2="104.3"/>
			
				<line fill="none" stroke="#0C56AB" stroke-width="0.5148" stroke-linecap="round" stroke-miterlimit="10" x1="298.1" y1="108.4" x2="320.1" y2="106.2"/>
			
				<line fill="none" stroke="#0C56AB" stroke-width="0.5148" stroke-linecap="round" stroke-miterlimit="10" x1="298.1" y1="110.3" x2="320.1" y2="108"/>
			
				<line fill="none" stroke="#0C56AB" stroke-width="0.5148" stroke-linecap="round" stroke-miterlimit="10" x1="298.1" y1="112.1" x2="320.1" y2="109.9"/>
			
				<line fill="none" stroke="#0C56AB" stroke-width="0.5148" stroke-linecap="round" stroke-miterlimit="10" x1="298.1" y1="114" x2="320.1" y2="111.8"/>
			
				<line fill="none" stroke="#0C56AB" stroke-width="0.5148" stroke-linecap="round" stroke-miterlimit="10" x1="292.4" y1="116.4" x2="320.1" y2="113.7"/>
			
				<line fill="none" stroke="#0C56AB" stroke-width="0.5148" stroke-linecap="round" stroke-miterlimit="10" x1="292.4" y1="118.3" x2="320.1" y2="115.6"/>
		</g>
		<g>
			<g>
				<defs>
					<polygon id="SVGID_11_" points="327.5,117.5 284.8,121.6 284.8,100.6 327.5,95.9 					"/>
				</defs>
				<clipPath id="SVGID_12_">
					<use xlink:href="#SVGID_11_"  overflow="visible"/>
				</clipPath>
			</g>
		</g>
	</g>
</g>
<g>
</g>
<g>
</g>
<g>
</g>
<g>
</g>
<g>
</g>
<g>
</g>
<g>
</g>
<g>
</g>
<g>
</g>
<g>
</g>
<g>
</g>
<g>
</g>
<g>
</g>
<g>
</g>
<g>
</g>
</svg>
