<?xml version="1.0" encoding="utf-8"?>
<!-- Generator: Adobe Illustrator 18.0.0, SVG Export Plug-In . SVG Version: 6.00 Build 0)  -->
<!DOCTYPE svg PUBLIC "-//W3C//DTD SVG 1.1//EN" "http://www.w3.org/Graphics/SVG/1.1/DTD/svg11.dtd">
<svg version="1.1" id="Layer_1" xmlns="http://www.w3.org/2000/svg" xmlns:xlink="http://www.w3.org/1999/xlink" x="0px" y="0px"
	 viewBox="0 0 613.3 488.5" enable-background="new 0 0 613.3 488.5" xml:space="preserve">
<g>
	<g>
		<rect x="270.5" y="0" fill="#7F58A5" width="1" height="16.3"/>
		
			<rect x="255.1" y="0.5" transform="matrix(0.9979 -6.413022e-002 6.413022e-002 0.9979 -2.928685e-002 16.4104)" fill="#7F58A5" width="1" height="16.3"/>
		<rect x="240" y="1.9" transform="matrix(0.9918 -0.1278 0.1278 0.9918 0.6797 30.8276)" fill="#7F58A5" width="1" height="16.3"/>
		
			<rect x="225.2" y="4.3" transform="matrix(0.9816 -0.1907 0.1907 0.9816 1.7573 43.277)" fill="#7F58A5" width="1" height="16.3"/>
		
			<rect x="210.7" y="7.6" transform="matrix(0.9676 -0.2525 0.2525 0.9676 2.8529 53.8416)" fill="#7F58A5" width="1" height="16.3"/>
		
			<rect x="196.5" y="11.8" transform="matrix(0.9498 -0.3129 0.3129 0.9498 3.6431 62.6553)" fill="#7F58A5" width="1" height="16.3"/>
		
			<rect x="182.8" y="16.8" transform="matrix(0.9284 -0.3716 0.3716 0.9284 3.8376 69.8964)" fill="#7F58A5" width="1" height="16.3"/>
		
			<rect x="169.4" y="22.6" transform="matrix(0.9036 -0.4284 0.4284 0.9036 3.1833 75.7799)" fill="#7F58A5" width="1" height="16.3"/>
		
			<rect x="156.5" y="29.3" transform="matrix(0.8755 -0.4832 0.4832 0.8755 1.4666 80.5503)" fill="#7F58A5" width="1" height="16.3"/>
		
			<rect x="144.1" y="36.6" transform="matrix(0.8443 -0.5359 0.5359 0.8443 -1.4855 84.4751)" fill="#7F58A5" width="1" height="16.3"/>
		
			<rect x="132.2" y="44.7" transform="matrix(0.8101 -0.5863 0.5863 0.8101 -5.8055 87.8391)" fill="#7F58A5" width="1" height="16.3"/>
		
			<rect x="120.8" y="53.5" transform="matrix(0.7731 -0.6343 0.6343 0.7731 -11.5858 90.9388)" fill="#7F58A5" width="1" height="16.3"/>
		
			<rect x="110" y="62.9" transform="matrix(0.7333 -0.6799 0.6799 0.7333 -18.8798 94.0794)" fill="#7F58A5" width="1" height="16.3"/>
		
			<rect x="99.8" y="73" transform="matrix(0.6909 -0.7229 0.7229 0.6909 -27.702 97.5703)" fill="#7F58A5" width="1" height="16.3"/>
		
			<rect x="90.1" y="83.7" transform="matrix(0.6459 -0.7634 0.7634 0.6459 -38.0296 101.7226)" fill="#7F58A5" width="1" height="16.3"/>
		
			<rect x="81.2" y="94.9" transform="matrix(0.5985 -0.8011 0.8011 0.5985 -49.8015 106.846)" fill="#7F58A5" width="1" height="16.3"/>
		
			<rect x="72.9" y="106.7" transform="matrix(0.5487 -0.836 0.836 0.5487 -62.9189 113.2464)" fill="#7F58A5" width="1" height="16.3"/>
		
			<rect x="65.4" y="119" transform="matrix(0.4966 -0.868 0.868 0.4966 -77.2445 121.2221)" fill="#7F58A5" width="1" height="16.3"/>
		
			<rect x="58.6" y="131.8" transform="matrix(0.4423 -0.8969 0.8969 0.4423 -92.6019 131.0603)" fill="#7F58A5" width="1" height="16.3"/>
		
			<rect x="52.6" y="145.1" transform="matrix(0.386 -0.9225 0.9225 0.386 -108.7754 143.0328)" fill="#7F58A5" width="1" height="16.3"/>
		
			<rect x="47.3" y="158.7" transform="matrix(0.3277 -0.9448 0.9448 0.3277 -125.5092 157.3903)" fill="#7F58A5" width="1" height="16.3"/>
		
			<rect x="43" y="172.8" transform="matrix(0.2678 -0.9635 0.9635 0.2678 -142.5094 174.3566)" fill="#7F58A5" width="1" height="16.3"/>
		
			<rect x="39.4" y="187.2" transform="matrix(0.2063 -0.9785 0.9785 0.2063 -159.4445 194.1217)" fill="#7F58A5" width="1" height="16.3"/>
		
			<rect x="36.8" y="201.9" transform="matrix(0.1436 -0.9896 0.9896 0.1436 -175.95 216.8349)" fill="#7F58A5" width="1" height="16.3"/>
		
			<rect x="35.1" y="217" transform="matrix(8.011147e-002 -0.9968 0.9968 8.011147e-002 -191.6326 242.5976)" fill="#7F58A5" width="1" height="16.3"/>
		
			<rect x="34.4" y="232.3" transform="matrix(1.605092e-002 -0.9999 0.9999 1.605092e-002 -206.0784 271.4576)" fill="#7F58A5" width="1" height="16.3"/>
		
			<rect x="34.6" y="247.7" transform="matrix(-4.812234e-002 -0.9988 0.9988 -4.812234e-002 -218.7353 303.2593)" fill="#7F58A5" width="1" height="16.3"/>
		
			<rect x="35.9" y="262.9" transform="matrix(-0.112 -0.9937 0.9937 -0.112 -228.9082 337.5045)" fill="#7F58A5" width="1" height="16.3"/>
		
			<rect x="38" y="277.8" transform="matrix(-0.1751 -0.9845 0.9845 -0.1751 -236.2544 373.9137)" fill="#7F58A5" width="1" height="16.3"/>
		
			<rect x="41.1" y="292.3" transform="matrix(-0.2372 -0.9715 0.9715 -0.2372 -240.4822 412.1841)" fill="#7F58A5" width="1" height="16.3"/>
		
			<rect x="45" y="306.6" transform="matrix(-0.2979 -0.9546 0.9546 -0.2979 -241.3391 451.9831)" fill="#7F58A5" width="1" height="16.3"/>
		
			<rect x="49.8" y="320.4" transform="matrix(-0.3571 -0.9341 0.9341 -0.3571 -238.6125 492.9561)" fill="#7F58A5" width="1" height="16.3"/>
		
			<rect x="55.5" y="333.9" transform="matrix(-0.4144 -0.9101 0.9101 -0.4144 -232.1296 534.7316)" fill="#7F58A5" width="1" height="16.3"/>
		
			<rect x="61.9" y="346.9" transform="matrix(-0.4697 -0.8828 0.8828 -0.4697 -221.7552 576.9265)" fill="#7F58A5" width="1" height="16.3"/>
		
			<rect x="69.1" y="359.4" transform="matrix(-0.5229 -0.8524 0.8524 -0.5229 -207.3897 619.1498)" fill="#7F58A5" width="1" height="16.3"/>
		
			<rect x="77" y="371.5" transform="matrix(-0.5739 -0.8189 0.8189 -0.5739 -188.9681 661.0046)" fill="#7F58A5" width="1" height="16.3"/>
		
			<rect x="85.6" y="383" transform="matrix(-0.6225 -0.7826 0.7826 -0.6225 -166.4572 702.0898)" fill="#7F58A5" width="1" height="16.3"/>
		
			<rect x="94.9" y="394" transform="matrix(-0.6687 -0.7435 0.7435 -0.6687 -139.8555 742.0003)" fill="#7F58A5" width="1" height="16.3"/>
		
			<rect x="104.8" y="404.4" transform="matrix(-0.7124 -0.7017 0.7017 -0.7124 -109.1933 780.3271)" fill="#7F58A5" width="1" height="16.3"/>
		
			<rect x="115.3" y="414.1" transform="matrix(-0.7535 -0.6574 0.6574 -0.7535 -74.5328 816.6575)" fill="#7F58A5" width="1" height="16.3"/>
		
			<rect x="126.4" y="423.2" transform="matrix(-0.7919 -0.6106 0.6106 -0.7919 -35.9715 850.575)" fill="#7F58A5" width="1" height="16.3"/>
		
			<rect x="138.1" y="431.7" transform="matrix(-0.8276 -0.5614 0.5614 -0.8276 6.3557 881.6604)" fill="#7F58A5" width="1" height="16.3"/>
		
			<rect x="150.3" y="439.4" transform="matrix(-0.8603 -0.5098 0.5098 -0.8603 52.2726 909.4944)" fill="#7F58A5" width="1" height="16.3"/>
		
			<rect x="162.9" y="446.4" transform="matrix(-0.8899 -0.4561 0.4561 -0.8899 101.5568 933.6597)" fill="#7F58A5" width="1" height="16.3"/>
		
			<rect x="176.1" y="452.6" transform="matrix(-0.9164 -0.4002 0.4002 -0.9164 153.9364 953.7476)" fill="#7F58A5" width="1" height="16.3"/>
		
			<rect x="189.6" y="458.1" transform="matrix(-0.9395 -0.3425 0.3425 -0.9395 209.0852 969.3639)" fill="#7F58A5" width="1" height="16.3"/>
		
			<rect x="203.6" y="462.7" transform="matrix(-0.9592 -0.2829 0.2829 -0.9592 266.6202 980.1374)" fill="#7F58A5" width="1" height="16.3"/>
		
			<rect x="217.9" y="466.4" transform="matrix(-0.9751 -0.2218 0.2218 -0.9751 326.1008 985.7312)" fill="#7F58A5" width="1" height="16.3"/>
		
			<rect x="232.6" y="469.2" transform="matrix(-0.9872 -0.1594 0.1594 -0.9872 387.0295 985.8539)" fill="#7F58A5" width="1" height="16.3"/>
		
			<rect x="247.5" y="471.2" transform="matrix(-0.9954 -9.605966e-002 9.605966e-002 -0.9954 448.8569 980.2724)" fill="#7F58A5" width="1" height="16.3"/>
		
			<rect x="262.8" y="472.1" transform="matrix(-0.9995 -3.209389e-002 3.209389e-002 -0.9995 510.9893 968.8229)" fill="#7F58A5" width="1" height="16.3"/>
		
			<rect x="278.2" y="472.1" transform="matrix(-0.9995 3.209365e-002 -3.209365e-002 -0.9995 572.6817 951.4288)" fill="#7F58A5" width="1" height="16.3"/>
		
			<rect x="293.5" y="471.2" transform="matrix(-0.9954 9.605966e-002 -9.605966e-002 -0.9954 632.587 928.2104)" fill="#7F58A5" width="1" height="16.3"/>
		
			<rect x="308.4" y="469.2" transform="matrix(-0.9872 0.1594 -0.1594 -0.9872 689.9904 899.4583)" fill="#7F58A5" width="1" height="16.3"/>
		
			<rect x="323.1" y="466.4" transform="matrix(-0.9751 0.2218 -0.2218 -0.9751 744.3513 865.527)" fill="#7F58A5" width="1" height="16.3"/>
		
			<rect x="337.4" y="462.7" transform="matrix(-0.9592 0.2829 -0.2829 -0.9592 795.1913 826.8173)" fill="#7F58A5" width="1" height="16.3"/>
		
			<rect x="351.4" y="458.1" transform="matrix(-0.9395 0.3425 -0.3425 -0.9395 842.0949 783.7642)" fill="#7F58A5" width="1" height="16.3"/>
		
			<rect x="364.9" y="452.6" transform="matrix(-0.9164 0.4002 -0.4002 -0.9164 884.709 736.8248)" fill="#7F58A5" width="1" height="16.3"/>
		
			<rect x="378" y="446.4" transform="matrix(-0.8899 0.4561 -0.4561 -0.8899 922.7393 686.4688)" fill="#7F58A5" width="1" height="16.3"/>
		
			<rect x="390.7" y="439.4" transform="matrix(-0.8603 0.5098 -0.5098 -0.8603 955.9453 633.1707)" fill="#7F58A5" width="1" height="16.3"/>
		
			<rect x="402.9" y="431.7" transform="matrix(-0.8276 0.5614 -0.5614 -0.8276 984.1343 577.405)" fill="#7F58A5" width="1" height="16.3"/>
		
			<rect x="414.5" y="423.2" transform="matrix(-0.7919 0.6106 -0.6106 -0.7919 1007.1566 519.6434)" fill="#7F58A5" width="1" height="16.3"/>
		
			<rect x="425.7" y="414.1" transform="matrix(-0.7535 0.6574 -0.6574 -0.7535 1024.9003 460.3534)" fill="#7F58A5" width="1" height="16.3"/>
		
			<rect x="436.2" y="404.4" transform="matrix(-0.7124 0.7017 -0.7017 -0.7124 1037.2866 399.9989)" fill="#7F58A5" width="1" height="16.3"/>
		
			<rect x="446.1" y="394" transform="matrix(-0.6687 0.7435 -0.7435 -0.6687 1044.2692 339.042)" fill="#7F58A5" width="1" height="16.3"/>
		
			<rect x="455.4" y="383" transform="matrix(-0.6225 0.7826 -0.7826 -0.6225 1045.8312 277.9448)" fill="#7F58A5" width="1" height="16.3"/>
		
			<rect x="464" y="371.5" transform="matrix(-0.5739 0.8189 -0.8189 -0.5739 1041.9874 217.1707)" fill="#7F58A5" width="1" height="16.3"/>
		
			<rect x="471.9" y="359.4" transform="matrix(-0.5229 0.8524 -0.8524 -0.5229 1032.7865 157.1873)" fill="#7F58A5" width="1" height="16.3"/>
		
			<rect x="479.1" y="346.9" transform="matrix(-0.4697 0.8828 -0.8828 -0.4697 1018.3137 98.4662)" fill="#7F58A5" width="1" height="16.3"/>
		
			<rect x="485.5" y="333.9" transform="matrix(-0.4144 0.9101 -0.9101 -0.4144 998.6971 41.4819)" fill="#7F58A5" width="1" height="16.3"/>
		
			<rect x="491.1" y="320.4" transform="matrix(-0.3571 0.9341 -0.9341 -0.3571 974.1121 -13.2902)" fill="#7F58A5" width="1" height="16.3"/>
		
			<rect x="495.9" y="306.6" transform="matrix(-0.2979 0.9546 -0.9546 -0.2979 944.7877 -65.3787)" fill="#7F58A5" width="1" height="16.3"/>
		
			<rect x="499.9" y="292.3" transform="matrix(-0.2372 0.9715 -0.9715 -0.2372 911.0115 -114.3241)" fill="#7F58A5" width="1" height="16.3"/>
		
			<rect x="503" y="277.8" transform="matrix(-0.1751 0.9845 -0.9845 -0.1751 873.1335 -159.6875)" fill="#7F58A5" width="1" height="16.3"/>
		
			<rect x="505.1" y="262.9" transform="matrix(-0.112 0.9937 -0.9937 -0.112 831.5679 -201.0624)" fill="#7F58A5" width="1" height="16.3"/>
		
			<rect x="506.3" y="247.7" transform="matrix(-4.812245e-002 0.9988 -0.9988 -4.812245e-002 786.7916 -238.0879)" fill="#7F58A5" width="1" height="16.3"/>
		
			<rect x="506.6" y="232.3" transform="matrix(1.605080e-002 0.9999 -0.9999 1.605080e-002 739.3544 -270.4477)" fill="#7F58A5" width="1" height="16.3"/>
		
			<rect x="505.9" y="217" transform="matrix(8.011135e-002 0.9968 -0.9968 8.011135e-002 690.1894 -297.6356)" fill="#7F58A5" width="1" height="16.3"/>
		
			<rect x="504.2" y="201.9" transform="matrix(0.1436 0.9896 -0.9896 0.1436 640.0708 -319.5193)" fill="#7F58A5" width="1" height="16.3"/>
		
			<rect x="501.5" y="187.2" transform="matrix(0.2063 0.9785 -0.9785 0.2063 589.6089 -336.1946)" fill="#7F58A5" width="1" height="16.3"/>
		
			<rect x="498" y="172.8" transform="matrix(0.2678 0.9635 -0.9635 0.2678 539.3702 -347.83)" fill="#7F58A5" width="1" height="16.3"/>
		
			<rect x="493.6" y="158.7" transform="matrix(0.3277 0.9448 -0.9448 0.3277 489.8693 -354.6545)" fill="#7F58A5" width="1" height="16.3"/>
		
			<rect x="488.4" y="145.1" transform="matrix(0.386 0.9225 -0.9225 0.386 441.563 -356.9448)" fill="#7F58A5" width="1" height="16.3"/>
		
			<rect x="482.4" y="131.8" transform="matrix(0.4423 0.8969 -0.8969 0.4423 394.8494 -355.0134)" fill="#7F58A5" width="1" height="16.3"/>
		
			<rect x="475.6" y="119" transform="matrix(0.4966 0.868 -0.868 0.4966 350.0689 -349.1978)" fill="#7F58A5" width="1" height="16.3"/>
		
			<rect x="468" y="106.7" transform="matrix(0.5487 0.836 -0.836 0.5487 307.5058 -339.851)" fill="#7F58A5" width="1" height="16.3"/>
		
			<rect x="459.8" y="94.9" transform="matrix(0.5985 0.8011 -0.8011 0.5985 267.3936 -327.3345)" fill="#7F58A5" width="1" height="16.3"/>
		
			<rect x="450.8" y="83.7" transform="matrix(0.6459 0.7634 -0.7634 0.6459 229.919 -312.0128)" fill="#7F58A5" width="1" height="16.3"/>
		
			<rect x="441.2" y="73" transform="matrix(0.6909 0.7229 -0.7229 0.6909 195.226 -294.2502)" fill="#7F58A5" width="1" height="16.3"/>
		
			<rect x="431" y="62.9" transform="matrix(0.7333 0.6799 -0.6799 0.7333 163.4208 -274.4083)" fill="#7F58A5" width="1" height="16.3"/>
		
			<rect x="420.2" y="53.5" transform="matrix(0.7731 0.6343 -0.6343 0.7731 134.5743 -252.8449)" fill="#7F58A5" width="1" height="16.3"/>
		
			<rect x="408.8" y="44.7" transform="matrix(0.8101 0.5863 -0.5863 0.8101 108.7253 -229.9146)" fill="#7F58A5" width="1" height="16.3"/>
		
			<rect x="396.9" y="36.6" transform="matrix(0.8443 0.5359 -0.5359 0.8443 85.8804 -205.9682)" fill="#7F58A5" width="1" height="16.3"/>
		
			<rect x="384.4" y="29.3" transform="matrix(0.8755 0.4832 -0.4832 0.8755 66.0157 -181.3534)" fill="#7F58A5" width="1" height="16.3"/>
		
			<rect x="371.5" y="22.6" transform="matrix(0.9036 0.4284 -0.4284 0.9036 49.0747 -156.4144)" fill="#7F58A5" width="1" height="16.3"/>
		
			<rect x="358.2" y="16.8" transform="matrix(0.9284 0.3716 -0.3716 0.9284 34.9675 -131.4911)" fill="#7F58A5" width="1" height="16.3"/>
		
			<rect x="344.4" y="11.8" transform="matrix(0.9498 0.3129 -0.3129 0.9498 23.5678 -106.9172)" fill="#7F58A5" width="1" height="16.3"/>
		
			<rect x="330.3" y="7.6" transform="matrix(0.9676 0.2525 -0.2525 0.9676 14.7113 -83.0167)" fill="#7F58A5" width="1" height="16.3"/>
		
			<rect x="315.8" y="4.3" transform="matrix(0.9816 0.1907 -0.1907 0.9816 8.1931 -60.0996)" fill="#7F58A5" width="1" height="16.3"/>
		
			<rect x="301" y="1.9" transform="matrix(0.9918 0.1278 -0.1278 0.9918 3.7669 -38.4554)" fill="#7F58A5" width="1" height="16.3"/>
		
			<rect x="285.9" y="0.5" transform="matrix(0.9979 6.413035e-002 -6.413035e-002 0.9979 1.1449 -18.3466)" fill="#7F58A5" width="1" height="16.3"/>
		<rect x="270.5" y="0" fill="#7F58A5" width="1" height="16.3"/>
	</g>
	<path fill="#7F58A5" d="M271,29.8c-118.2,0-214,95.8-214,214s95.8,214,214,214s214-95.8,214-214S389.2,29.8,271,29.8z M271,452.4
		c-115.2,0-208.6-93.4-208.6-208.6c0-115.2,93.4-208.6,208.6-208.6s208.6,93.4,208.6,208.6C479.6,359,386.2,452.4,271,452.4z"/>
	<g>
		<g>
			<path fill="#573392" d="M463.8,239.4c-0.5,0-0.7,0.6-0.6,1.9c0.1,1-0.1,3-0.5,4.4c-0.5,2.3-0.5,2.7,0.5,4.1
				c0.6,0.8,1.3,2.1,1.4,2.8c0.2,0.7,1.7,2.4,3.5,3.9c1.1,0.9,1.9,1.5,2.4,2.2c0.3-4.5,0.5-9.1,0.5-13.7
				C469,242.4,465,239.4,463.8,239.4z"/>
			<path fill="#573392" d="M145.2,88.2c-0.8,0.6-1.5,1.3-2.3,1.9c1.1,0,1.8-0.2,2.3-0.4C146.4,89,146.2,88.2,145.2,88.2z"/>
			<path fill="#573392" d="M354.3,175.8c-0.7-1.4-0.7-1.5,0-1.2c1,0.4,2.4-0.1,2.4-0.8c0-0.3-0.5-1.2-1.1-2.1
				c-0.9-1.3-1.3-1.4-2.1-1c-0.7,0.4-1,0.4-1,0c0-0.3-0.9-1-2.1-1.6c-2.6-1.3-3.5-2.8-2.7-4.2c0.6-1.1,2.8-1.9,3.7-1.4
				c1.2,0.8,1.6-0.4,0.6-1.8c-2.5-3.5-5.9-3.3-10.2,0.7c-2.8,2.5-3,3.2-1.4,4.1c0.6,0.3,1.1,0.9,1.1,1.4s0.9,1.8,2.1,3.1
				c2.7,2.9,3.1,4.2,2.8,7.6l-0.3,2.7l3.6,1.9c2,1,3.7,1.9,3.8,1.9c0.1,0,0.9-0.3,1.7-0.8v0c1.4-0.7,1.6-1.1,1.6-3.1
				c0-1.4-0.3-2.6-0.8-3C355.5,177.7,354.7,176.7,354.3,175.8z"/>
			<path fill="#573392" d="M87.9,164.5c0.3-0.6,0.3-1.2,0.1-1.8c-0.4,0.8-0.7,1.6-1.1,2.4C87.4,165.1,87.7,164.9,87.9,164.5z"/>
			<path fill="#573392" d="M93.2,167.2c1.1-0.8,1.1-0.9,0.4-1.4c-1.1-0.6-4.6,0.5-4.6,1.5C89.1,168.4,91.7,168.3,93.2,167.2z"/>
			<path fill="#573392" d="M73.7,257.1c-0.3-1.3-0.6-2.7-0.6-3c0-0.4-0.3-0.7-0.5-0.7s-0.2-0.5,0.1-1.1c0.5-0.9,0.4-1.2-0.8-1.7
				c-0.3-0.1-0.6-0.2-0.8-0.2c0.2,5,0.5,10,1,14.9C73.9,262.4,74.4,259.9,73.7,257.1z"/>
			<path fill="#573392" d="M467.6,277c-0.6-1.4-2-3.8-3.1-5.3c-1.1-1.5-2.4-3.4-2.8-4.2c-0.4-0.9-1.8-2.5-3-3.7
				c-2.6-2.5-4.1-5-3.1-5c1.4,0,5,2,6.5,3.6c4.2,4.4,5.1,5.2,7.1,6.4c0.2,0.1,0.3,0.2,0.4,0.3c0.1-1,0.2-2,0.3-3
				c-2-1.7-3.4-4.4-4.5-8.7c-0.6-2.1-1.2-3-2.9-4.2c-2.1-1.6-2.2-1.7-2-4.3c0.1-1.5,0.3-3.5,0.5-4.6c0.3-1.5,0-2.6-1-4.8
				c-0.8-1.6-1.6-3.9-2-5.3c-0.7-3-1.8-3.6-3.7-1.8c-0.8,0.7-1.5,1.3-1.7,1.3c-0.8,0-2-1.8-1.7-2.7c0.5-1.6-2.6-7.1-4.4-7.9
				c-1-0.4-1.9-1.4-2.5-2.8c-1.1-2.3-2.2-3.2-3.4-2.6c-0.4,0.2-2.2,0.7-3.8,1.1c-3.1,0.6-4.2,1.6-3.7,3.2c0.2,0.6-0.4,1.2-1.7,1.8
				c-1,0.5-2.2,1.5-2.5,2.2s-1.1,1.5-1.6,1.6s-1.4,1-1.9,1.8c-0.5,0.8-2,2.3-3.3,3.3c-1.8,1.4-2.3,2.1-2.3,3.1
				c0.5,5.7-0.3,10.4-2.2,13.2c-1.9,2.7-2,2.8-3.6,2.1c-0.9-0.4-1.4-1.2-1.7-2.4c-0.2-1-1.3-3.8-2.4-6.2c-6.8-14.6-7.8-17.3-7.2-20
				c0.4-1.8-0.5-4.5-1.5-4.2c-0.4,0.1-0.7,0.6-0.7,1c0,2.4-2.8,2.8-4.9,0.7l-1.4-1.4l1.2-0.4c1.4-0.5,1.2-1.9-0.1-1.6
				c-0.5,0.1-1.6-0.4-2.5-1.2c-0.9-0.7-1.8-1.4-2.1-1.4c-0.2,0-0.6-0.5-0.8-1.1c-0.5-1.5-3.3-2.9-4.7-2.2
				c-1.3,0.6-12.8,0.5-14.7-0.2c-0.7-0.2-2-1.2-2.9-2.2c-1.6-1.8-1.6-1.8-4-1.2c-2.2,0.6-2.6,0.5-5.6-1c-2.6-1.3-3.4-2-4.2-3.8
				c-1-2.3-3.3-3.9-4.7-3.4c-0.4,0.2-0.9,1-1.1,1.9c-0.3,1.2,0,2,1.3,3.8c0.9,1.2,1.9,3.1,2.2,4.3c0.6,2.4,1.9,3.1,3,1.7
				c0.6-0.9,0.8-0.9,1.2-0.2c0.3,0.4,0.4,1,0.3,1.3c-0.3,0.9,2.8,2.4,4.2,2.1c0.7-0.2,2.3-1.4,3.4-2.7c1.8-2.1,2.5-2.2,2.2-0.5
				c-0.2,1.2,0.7,2.6,2.2,3.3c2.4,1.2,5.7,3.9,5.7,4.7c0,0.3-0.6,1.2-1.4,1.9c-0.8,0.7-1.8,2.2-2.4,3.3c-1.4,2.7-5.4,6.7-6.8,6.7
				c-1.6,0-3.9,1.3-4.9,2.8c-0.4,0.7-1.6,1.6-2.6,2.1c-5,2.5-11.1,5.1-12.8,5.4c-1.8,0.3-2,0.3-2.9-1.6c-0.6-1.1-1.2-3.3-1.4-4.9
				c-0.3-2.1-0.8-3.4-1.9-4.7c-0.8-1-1.5-2-1.5-2.3c0-0.3-1-1.5-2.1-2.7c-1.5-1.5-2.4-3.1-3-5.2c-0.5-1.6-1.4-3.7-2.1-4.6
				c-4.9-6-6.3-8.2-7-10.4c-1-2.9-1.8-3.4-2.1-1.3l-0.3,1.5l-1.8-2.3c-2.8-3.5-3.1-1.9-0.5,2.4c1.2,2,3.2,5.6,4.3,7.9s2.7,5,3.4,5.9
				c0.7,0.9,1.2,2.4,1.2,3.3c0,2,0.6,3.2,2.9,6.1c0.9,1.2,1.9,2.9,2.1,3.8c0.3,1.2,1.3,2.4,3.5,4.2c3.3,2.7,5.5,5.5,6,7.8
				c0.2,0.9,1,1.8,1.9,2.3c1.5,0.8,2,0.7,6.7-0.3c2.8-0.6,5.7-1.4,6.6-1.9l1.5-0.8l0.4,2.1c0.3,1.9,0,2.8-3.8,10.1
				c-4.1,7.8-4.2,8-8.3,11.2c-2.3,1.8-4.6,4-5.3,4.9s-2.7,3.3-4.5,5.3c-5.4,6-6.1,11.2-2.5,18.3c0.9,1.8,1.3,3.1,1,4
				c-0.2,0.7-0.1,2.5,0.3,4c0.5,2.3,0.4,3-0.4,4.7c-1.3,2.5-2.3,3.3-5.8,5.1c-1.5,0.8-2.8,1.6-2.8,1.9c0,0.3-1.1,1.7-2.4,3.2
				c-1.3,1.5-2.4,2.9-2.4,3.2s0.5,1.5,1.1,2.7c1.8,3.5,0.6,6.1-3.7,7.9c-1.8,0.8-2.4,2.3-2,5.1c0.2,1.5,0.1,1.9-0.7,2.4
				c-0.6,0.3-1.6,1.4-2.3,2.5c-2.2,3.4-8.4,9.5-11.3,10.9c-2.4,1.2-3,1.3-4.7,0.8c-1.5-0.4-2.8-0.4-5.3,0.3c-4.2,1-3.7,1.1-5.3-0.5
				h0c-1.1-1.1-1.3-1.7-1.1-3.2c0.2-1.5,0-2.3-1-3.8c-0.7-1.1-1.3-2.2-1.3-2.5c0-0.3-0.9-1.8-2.1-3.4c-1.8-2.4-2.1-3.3-2.4-6.3
				c-0.5-5.3-2.2-11-4.5-15.2c-1.1-2-2.2-4.7-2.4-5.9c-0.4-2.6,0.6-6.4,3-11l1.6-3.1l-0.9-2.7c-0.5-1.5-0.7-3.3-0.5-4
				c0.2-0.9,0-1.9-0.7-3c-0.6-0.9-1.4-3-1.9-4.6c-0.6-2.1-1.5-3.5-3.2-5.2c-3.4-3.3-3.8-4.6-2.8-8.2c2.1-7.3-0.2-11.6-5.8-10.7
				c-2.2,0.3-2.3,0.3-2.6-1.3c-0.2-1.2-0.9-1.9-2.5-2.7c-2.1-1.1-3-1.1-5.6,0c-0.6,0.2-3,1.1-5.3,1.8c-3.5,1.2-4.6,1.3-6.1,0.9
				c-1.4-0.4-2.7-0.3-5.6,0.5c-3.1,0.8-4.2,0.9-5.8,0.5c-3.4-1-9.4-6.3-10.2-9.2c-0.7-2.3-4.7-7.5-6.1-7.9c-0.9-0.2-1-0.4-0.4-0.8
				c0.5-0.3,0.4-0.5-0.4-0.7c-1.3-0.4-1.5-1.4-0.2-1.5c0.8,0,0.8-0.1,0.1-0.5c-0.5-0.3-0.6-0.5-0.2-0.5c0.4,0,0.3-0.7-0.5-1.9
				c-1-1.7-1-2-0.3-2.8c2.4-2.6,2.9-8.3,1.1-11.8c-0.9-1.7-0.3-4,1.5-6.5c0.7-0.9,2-3.2,3-5c1.7-3.2,5.4-7.6,6.4-7.6
				c1.1,0,4.7-3.9,4.7-5.1c0-2.7,1.6-5.4,4.3-7.1c1.4-0.9,3.1-2.5,3.7-3.5c1.3-2,1.4-2.1,2.9-1.1c0.6,0.4,2,0.9,3.2,1.1
				c1.8,0.3,2.6,0.1,5.3-1.3c4.6-2.4,7.4-3.1,12.6-2.7c3.5,0.2,5,0.1,6.7-0.6c2.5-1,4.6-0.4,4,1.1c-0.2,0.5-0.1,1.1,0.2,1.5
				c0.4,0.5,0.4,1.1,0,2.1c-0.5,1.3-0.4,1.7,0.8,2.9c0.8,0.8,2.1,1.6,3,1.8c4.3,0.9,5.5,1.4,6.4,2.9c0.6,1.1,1.5,1.7,2.9,1.9
				c1.1,0.2,2.7,0.7,3.5,1.2c1.4,0.7,1.6,0.7,2.8-0.4c0.8-0.8,1.2-1.5,1-2.1c-0.2-0.5,0-1.4,0.3-2c0.8-1.5,3.1-1.4,6.8,0.4
				c4,2,11.5,3.4,14.1,2.7c1.3-0.4,2.5-0.4,3.6,0c3.7,1.1,5.5,0.2,6-2.8c0.2-1,0.4-1.9,0.6-1.9c0.3,0,0.5-1.5,0.6-4.9
				c0-1.1,0.3-2,0.6-2c0.4,0,0.3-0.4-0.1-1.1c-0.7-1.2-2-1.2-5.1,0.1c-1.5,0.6-1.9,0.6-3.3-0.2c-1.7-1-3.5-1.2-4-0.3
				c-0.4,0.6-3.1,0.2-4.6-0.7c-1.1-0.7-2-2.6-2-4.1c0-0.6-0.5-1.4-1.2-1.8c-1-0.7-1.1-0.9-0.4-1.4c0.4-0.3,1.3-0.4,2-0.2
				c0.8,0.2,1.6-0.1,2.6-1.1c0.9-0.9,2-1.4,3.3-1.5c1-0.1,2.6-0.5,3.4-1.1c1.8-1.2,5.7-0.8,8.8,0.7c4.2,2.1,7.9,2,9.3-0.3
				c0.8-1.2,0.8-1.4,0-2.5c-0.4-0.7-2.6-2.3-4.8-3.5l-4-2.3l0.7-1.4c0.4-0.8,0.6-1.6,0.4-1.7c-0.2-0.2-0.1-0.6,0.1-1s0.5-1,0.5-1.4
				c0.1-0.8-0.7-0.6-4.9,1.3c-2.4,1.1-2.8,1.4-2.3,2.1c0.4,0.4,1.2,0.8,1.8,0.8c0.9,0,0.7,0.3-0.9,1.1c-1.9,1-2.1,1-3.3,0.2
				c-1.1-0.7-1.2-1-0.7-1.6c0.5-0.6,0.4-0.8-0.4-1.1c-0.5-0.2-1.2-0.7-1.6-1.1c-1.5-2-6.3,3.3-7.7,8.6c-0.7,2.5-0.6,2.6,0.6,3.5
				l1.3,1l-2.4,0.5c-1.3,0.3-3,0.3-3.9,0.1c-1.5-0.4-3.5,0.2-3.5,1.1c0,0.3-0.4,0.4-0.8,0.2c-0.4-0.2-1.1,0-1.6,0.3
				c-0.6,0.5-0.6,1,0.5,3c1.2,2.2,1.2,2.5,0.5,3.9c-0.9,1.8-1.7,1.7-3-0.5c-0.9-1.5-0.9-1.5,0.3-1.7c1.5-0.2,1.6-1.2,0.1-1.4
				c-3.3-0.5-5-2.3-5-5c0-2.1-2-4.5-4.4-5.2c-1.2-0.4-2.6-1.2-3-1.7c-0.4-0.6-1.6-1.4-2.7-1.9c-1.1-0.4-2.2-1.2-2.6-1.8
				c-0.6-0.8-0.9-0.9-1.7-0.5c-0.6,0.3-1,0.9-1,1.3c0,1.4,6.8,7.6,10.1,9.3c3.5,1.8,4,2.4,1.6,1.9c-2.2-0.5-2.8,0-2,1.6
				c0.5,1.1,0.4,1.5-0.6,2.5l-1.2,1.2l0.3-1.6c0.4-2.5-2.9-6.1-5.6-6.1c-1,0-4.9-3.7-5.9-5.7c-1.1-2.1-2.3-2.5-4-1.3
				c-2.6,1.7-4.5,2.3-6.5,2c-2.7-0.5-4.4,0.5-3.9,2.2c0.2,0.9,0.1,1.3-0.4,1.3c-0.4,0-1.4,0.6-2.3,1.3c-0.8,0.7-1.7,1.3-1.9,1.3
				c-0.7,0-2.5,3.4-2.5,4.5c0,1.1-2.1,3.4-4.1,4.4c-0.6,0.3-2.1,0.6-3.3,0.6c-1.6,0-2.3,0.3-2.7,1.1c-0.6,1.1-0.6,1.1-2-0.3
				c-1.3-1.3-2-1.6-4.6-2c-1.4-0.2-1.6-3.3-0.6-7.6c0.4-1.9,0.6-4,0.5-4.6c-0.5-2,1.1-3.2,3.7-2.8c6.1,0.9,9.6,1,10.5,0.2
				c1.1-1.1,1.7-4.9,1-7c-0.5-1.4-1.1-1.9-3-2.7c-2.7-1.1-2.8-2.1-0.1-2.1c1,0,2.5-0.4,3.3-0.9c0.8-0.5,1.6-0.8,1.9-0.6
				c0.7,0.5,3.6-1.2,4.5-2.6c0.5-0.7,1.4-1.4,2-1.6c0.6-0.2,2.4-1.4,3.8-2.8c2.1-1.9,3.2-2.5,4.9-2.7c2.2-0.3,4.4-2.1,3.4-2.8
				c-0.6-0.4-1.2-3-0.8-3.9c0.2-0.4,0.9-1.2,1.7-1.7l1.4-0.9l-0.3,2.2c-0.3,1.9-0.2,2.2,0.6,2c0.5-0.1,1.5-0.5,2.1-0.8
				c1-0.6,1.3-0.5,1.5,0.2c0.5,1.2-0.8,2.6-1.7,1.9c-0.5-0.4-0.8-0.4-1.1,0.1c-0.3,0.4-0.5,0.4-0.8-0.1c-0.2-0.4-0.6-0.6-0.7-0.4
				c-0.1,0.1,0.3,1,0.9,1.8c1.1,1.4,1.3,1.5,2.9,0.9c1.4-0.5,2-0.4,3.2,0.2c1.3,0.7,1.8,0.6,4.3-0.3c2.2-0.8,3.1-1,4.1-0.5
				c0.9,0.4,1.6,0.4,2.4,0c2.4-1.2,3-2.2,2.7-3.9c-0.4-2.5,0.4-3.4,2.5-2.6c1.4,0.5,1.9,0.5,2.5-0.1c0.7-0.7,0.6-0.9-0.5-2.1
				c-1.1-1.2-1.2-1.4-0.5-1.9c0.4-0.3,2-0.4,3.6-0.2c2.8,0.3,6.3-0.8,5.7-1.8c-0.5-0.9-3.8-1.1-6.5-0.5c-2.4,0.5-3.1,0.5-4.9-0.3
				c-2.9-1.3-3.2-2.8-1.2-5.6c2.6-3.6,3-4.7,2.3-5.6c-1.1-1.3-2.1-0.9-4.6,1.8c-1.3,1.4-3.1,2.9-3.9,3.3s-1.9,1.4-2.4,2.2
				c-0.7,1.4-0.7,1.7,0,2.8c0.4,0.7,1.3,1.4,1.9,1.6c1.6,0.5,1.3,1.5-1,3.1c-0.7,0.5-1.7,1.9-2.1,3.1c-0.6,1.5-1.4,2.5-2.8,3.3
				c-1.9,1.1-2,1.1-3,0.2c-0.6-0.5-1.2-1.6-1.4-2.4c-0.2-0.8-1-2.2-1.8-3.2l-1.5-1.7l-1.8,1.1c-1,0.6-2.3,1.1-2.9,1.1
				c-1.7,0-3.6-1.8-3.8-3.5c-0.1-0.8-0.3-1.9-0.5-2.4c-0.5-1.2,1.9-3.4,4.4-4.1c2.5-0.7,7.5-4.2,8.4-5.9c0.4-0.7,1.7-2.2,2.9-3.3
				c1.2-1.1,2.2-2.2,2.2-2.5c0-0.3,1.1-0.9,2.5-1.4s3.7-1.4,5.2-2c1.8-0.7,4-1.1,6.9-1.2c5-0.1,8.3,0.5,11,2.2
				c1.4,0.8,2.4,1.1,3.4,0.9c1.8-0.4,11.6,2.7,12,3.7c0.4,1.1-2.4,2.1-4.8,1.7c-1.1-0.2-3.4-0.6-5.1-0.9c-2.3-0.5-3.2-0.5-3.7-0.1
				s-0.2,0.8,0.8,1.3c0.8,0.4,1.8,1.3,2.2,2.1c1.1,2.1,4.5,3.8,6.3,3.1c1.7-0.6,1.7-0.9-0.1-1.8c-1.7-0.9-0.9-1.1,1.2-0.3
				c1.7,0.6,3.6-0.2,3.1-1.3c-0.2-0.5,0.4-0.9,2-1.3c3.5-0.9,3.8-1,3.5-1.7c-1.1-2.7-1.1-2.6,0.5-2.4c0.9,0.1,1.5,0.5,1.4,0.8
				c-0.1,0.4,0.4,0.9,1,1.2c0.9,0.5,1.6,0.3,4.2-1c3.7-1.9,6.6-2.6,7.7-1.7c0.6,0.5,1.6,0.5,4.5,0c2-0.3,3.9-0.5,4.2-0.3
				c0.3,0.2,0.7,0.1,0.9-0.2c0.4-0.7-0.7-2.2-1.4-1.8c-0.8,0.5-3.3-0.4-2.7-0.9c0.5-0.5,15.3,2.9,16.2,3.8c0.6,0.6,2.5-0.2,2.5-1
				c0-0.3-1.1-1-2.3-1.7c-4-1.9-4.2-5-0.5-6c2.2-0.5,3.1,0.1,6.1,4.1c3.9,5.2,3.8,5,2.5,6.7c-0.9,1.3-1,1.6-0.3,1.9
				c1.2,0.5,3.9-1.2,4.3-2.7c0.4-1.7-0.4-3.2-2.3-4.2c-1.5-0.8-2.7-2.3-2.7-3.5c0-0.4,0.6-0.5,1.7-0.3c1.7,0.3,3.1-0.3,7-3.1
				c0.9-0.6,2.4-1.1,3.9-1.1c3.1-0.1,4.1-0.6,3.2-1.7c-0.3-0.4-0.5-0.9-0.4-1c0.7-0.7,9.4-1.9,11.4-1.6c1.9,0.3,2.5,0.1,4.1-1.1
				c1-0.8,1.9-1.6,1.9-1.9c0-0.6-4.6-0.6-5,0.1c-0.6,0.9-1.3,0.6-1.1-0.5c0.2-0.9-0.3-1-4.1-1.3c-10.5-0.8-11.4-1-10.1-2.3
				c1.1-1.1,3.8-1.1,6.1,0c0.9,0.5,2.5,0.8,3.4,0.8s1.9,0.2,2.1,0.5c0.2,0.3,1.1,0.5,2.1,0.5c2.6,0,7.8,1.1,7.4,1.7
				c-0.2,0.3,0.3,0.5,1.1,0.5s2.1,0.4,3.1,0.9c0.5,0.2,1,0.4,1.6,0.6C370.2,63.4,322.9,43.7,271,43.7c-46.7,0-89.6,16-123.7,42.8
				c2.6-0.2,5.2-0.4,7.5-0.6c4-0.3,8.4-0.6,9.8-0.8l2.6-0.3l-4.3,2.1c-4,1.9-10.5,3.8-13.2,3.8c-0.7,0-2.5,0.7-4.2,1.6
				s-3.3,1.6-3.7,1.6s-2.1,0.7-3.9,1.6c-1.4,0.7-2.5,1.3-2.9,1.5c-2.3,2.1-4.6,4.3-6.8,6.6c2.6,1.7,2.8,1.7,4.3,0.9
				c0.9-0.5,1.3-0.4,2.3,0.9c0.7,0.9,2.3,1.8,3.8,2.3c2.4,0.8,2.6,0.9,2.6,2.6c0,1.3,0.4,2,1.2,2.7c3.6,2.5,3.5,2.4,2.7,3.7
				c-1.1,1.7-1.9,1.8-4.2,0.6c-1.6-0.8-2.3-0.9-3.2-0.5c-1,0.5-1,0.7-0.2,2.2c0.7,1.3,0.7,1.9,0.3,2.9c-0.6,1.2-0.6,1.2-2.1,0.5
				c-3-1.5-4.9-0.5-2.2,1.1c0.9,0.5,1.5,1.1,1.3,1.4c-0.5,0.8-3.1,0.4-5.2-0.9c-1.1-0.7-2.5-2-3.1-2.9c-1.1-1.7-2.1-2-5.1-1.1
				c-1,0.3-2.1,0.3-2.6,0.1c-1.6-0.9,1.3-1.7,4.4-1.3c2.4,0.3,2.9,0.2,3.2-0.5c0.6-1.5,3.1-2.5,4.6-1.9c0.9,0.4,1.7,0.4,2.8,0
				c1.5-0.6,1.5-0.6,0.5-1.4c-0.6-0.4-1.2-0.8-1.4-0.8c-0.2,0-1-1.1-1.8-2.4c-0.8-1.3-2.2-2.9-3.2-3.5c-1.7-1-1.9-1.1-3.4-0.3
				c-0.3,0.2-0.6,0.3-0.8,0.4c-11.3,12.2-21.1,25.9-29,40.7c0.3,0.4,0.6,0.6,0.8,0.6c1.7-0.1,3.4-1.7,4.4-4.3c1-2.5,1.4-3,4.2-4.5
				c4.1-2.2,5.8-4.3,5.3-6.7c-0.3-1.6-0.1-1.9,1.2-2.9c0.8-0.6,2-2,2.5-3.2c1.2-2.6,3.1-3.5,6.2-3c2.8,0.5,6.1,2.2,6.5,3.5
				c0.2,0.5,0,1.5-0.3,2.1c-0.5,0.9-0.4,1.3,0.6,2.4l1.2,1.3l1.9-1c1.1-0.5,2.7-1.6,3.8-2.4l1.8-1.4l0.4,1.2
				c0.2,0.6,0.3,1.5,0.1,1.9s0,1.2,0.3,1.8c0.3,0.6,0.4,1.4,0.1,1.9c-0.3,0.6-0.1,1.5,0.7,3c1.2,2.2,1.2,2.2,0.1,2.9
				c-1.4,1-0.5,2,1,1.2c1.5-0.8,3.3-0.7,4.4,0.3c1.6,1.5,0.3,3.2-4,5.2c-4.6,2.2-6.7,2.6-12.8,2.7c-4.5,0-5.1,0.2-9.4,2.3
				c-2.6,1.2-4.6,2.4-4.6,2.7c0,1.1,0.8,1,3.9-0.5c1.8-0.9,4.2-1.5,5.3-1.5c1.9,0,2,0.1,1.4,1.2c-0.3,0.6-1.1,1.5-1.7,2
				c-0.9,0.7-0.9,1-0.4,2.2c0.8,1.8,3,2.7,5.6,2.3l2.1-0.3l-1.6,1.1c-0.9,0.6-2.3,1.2-3.2,1.4c-0.9,0.2-2.7,0.9-4,1.6
				c-1.4,0.7-2.7,1-3.1,0.8c-0.8-0.5,0-1.3,2.8-2.4c2.4-1,2-2.1-0.6-1.6c-1,0.2-4.3,1.4-7.3,2.8c-4.7,2.1-5.5,2.6-5.8,3.9
				c-0.3,1.5-1.5,2.3-5.5,3.5c-1.3,0.4-3,1.3-3.7,2.1c-0.8,0.8-2.2,1.9-3.2,2.5c-1,0.6-2,1.7-2.1,2.5c-0.3,1.2-0.3,1.2-0.7,0.3
				c-0.7-1.7-1.7,0-1.7,2.9c-0.1,3-1.6,5.1-4.9,6.6c-1.7,0.8-3.6,2.1-5.4,3.4c-2.1,7.8-3.6,15.9-4.7,24.1c1.6,0.5,3.5,1.5,6.9,3.3
				c4.7,2.5,4.7,2.5,3.2,2.9c-1.7,0.5-2.9,0.6-3.3,0.2c-0.2-0.2-1.3-0.3-2.5-0.3c-1.7,0-2.1-0.2-1.7-0.7c0.4-0.5-0.2-1.1-2.1-2.4
				c-0.3-0.2-0.5-0.3-0.8-0.5c-1,8-1.5,16-1.5,24.3c0,1.8,0,3.6,0.1,5.5c0.8,0.1,1.6,0.5,2.5,1.2c1.5,1.2,1.7,1.2,2.8,0.4
				c0.7-0.4,1.6-1.6,2.1-2.5c1-2,2.7-3.5,4.2-3.5c0.6,0,1.7-0.6,2.3-1.3c1.4-1.5,3.8-2,2.6-0.5c-1,1.2-1.6,5.1-0.9,6.3
				c0.5,1,0.6,1,1.6-0.2c0.7-0.9,0.8-1.4,0.5-1.8c-0.9-0.9-0.6-1.7,1.1-2.9c1.8-1.3,3.1-1.2,4.6,0.5c1.1,1.2,7.1,2.8,8.8,2.4
				c2.6-0.7,9.6,3.6,12.2,7.4c1.3,1.8,5.3,3.7,7,3.2c3.6-0.9,8.6,2.7,9.8,7.1c0.3,1.3,0.9,2.5,1.2,2.7c0.8,0.5-0.4,2.4-2.9,4.8
				c-1.6,1.5-2,2.2-1.5,2.7c0.5,0.5,1.2,0.1,3-1.6c2.6-2.4,3.5-2.7,4.8-1.3c0.8,0.8,0.8,1-0.3,2.1c-0.7,0.7-1.6,1.3-2,1.3
				c-0.5,0-0.3,0.3,0.5,0.6c1,0.4,1.6,0.3,2.7-0.6c2.8-2.3,3.5-2.4,5.9-1c1.6,0.9,2.3,1.6,2.2,2.3c-0.2,2,0.3,2.5,1.7,1.6
				c1.1-0.7,1.9-0.8,5.6-0.3c4,0.5,4.5,0.8,6.4,2.7c1.4,1.4,3,2.3,5,2.9c2.7,0.8,3,1,3.5,2.8c0.7,2.6-0.1,5.5-2.4,8.3
				c-1,1.2-2.1,2.9-2.6,3.8c-0.5,0.9-1.5,2.3-2.2,3.1c-1.3,1.3-1.4,1.6-1,4.7c0.6,6-2.3,17.1-5.1,19.5c-0.9,0.8-1.7,1-3.2,0.7
				c-1.2-0.2-2.1-0.1-2.3,0.3c-0.2,0.3-1.4,1-2.6,1.6s-3,1.7-4,2.5c-1.7,1.5-1.8,1.6-1.2,3.4c0.7,2,0.2,4.4-1.2,6.4
				c-0.5,0.7-0.8,1.8-0.8,2.5c0,0.7-0.6,2-1.2,2.9c-0.7,0.9-2,3-2.9,4.6c-2.3,4-3.6,4.7-6.9,3.5c-2.8-1-4.4-1.1-4.4-0.3
				c0,0.3,0.6,0.8,1.3,1.1c0.7,0.3,1.8,1.6,2.4,2.9c0.9,1.9,1,2.5,0.5,3.6c-0.8,1.7-3.6,3-6.3,3c-2.4,0-3,0.6-2.1,2.1
				c0.5,0.9,0.2,2.5-0.8,3.6c-0.1,0.1-0.9-0.2-1.8-0.7c-0.6-0.3-1.2-0.5-1.6-0.5c36.7,45.5,92.9,74.7,155.9,74.7
				c98.8,0,180.9-71.6,197.2-165.8C467.9,277.7,467.7,277.3,467.6,277z M314.3,187.1c0.6,0,1.2-0.2,1.4-0.5c0.5-0.8,1.3-0.6,1,0.2
				c-0.3,0.9-2.6,2-3.1,1.5h0C313,187.7,313.3,187.1,314.3,187.1z M296.1,186.7c2.6,0,4.6,0.5,4.2,1.1c-0.4,0.7-2.9,0.5-4.7-0.3
				l-1.6-0.7L296.1,186.7z M273,180.6c1.3-0.3,4.3,0.1,4.2,0.6c0,0.2-0.2,0.7-0.4,1.2c-0.3,0.8-0.6,0.8-2.7-0.3
				C272,181.1,271.9,180.9,273,180.6z M264.8,169.5c0.6-0.2,0.8,0.1,0.8,1c0,1.3-0.5,1.7-1.2,1C263.7,170.8,264,169.8,264.8,169.5z
				 M263.7,174c1.1-1.1,1.9-0.3,1.9,1.7c0,2.4-1.3,2.9-2.1,0.7C263,175.1,263.1,174.6,263.7,174z M251.1,176.8c0.4-1,2-1.1,1.7-0.2
				c-0.1,0.4-0.6,0.7-1.1,0.8C251,177.6,250.8,177.4,251.1,176.8z M284.1,129c0.5,0,1,0.3,1,0.7c0,0.8-0.2,0.8-1.3,0.4
				C282.8,129.7,282.9,129.1,284.1,129z M334,105.3c0.4-0.4,0.5-0.8,0.2-0.8s0-0.4,0.6-0.8s1.1-1,1.1-1.2c0-0.8,2.2-2.9,3.7-3.5
				c0.9-0.4,3.1-0.8,5-1s4.4-0.4,5.6-0.6c1.3-0.2,2.3-0.1,2.5,0.2c0.4,0.6-0.3,0.9-4.5,1.6c-4.1,0.7-6.5,1.9-8.2,3.8
				c-1.7,2-1.8,3.3-0.2,4.4l1.2,0.8l-1.6,0c-0.9,0-2.5-0.4-3.7-0.9C333.1,106.1,333.2,106.2,334,105.3z M272.7,91.9
				c3.3,0.2,5,0.2,5-0.2c0-1,1.5-0.5,1.9,0.7l0.4,1.2l0.2-1.2c0.1-0.7,0.6-1.2,1-1.2c0.4,0,0.8-0.3,0.8-0.6c0-0.5,0.1-0.5,0.6,0
				c0.4,0.4,2.1,0.6,4.2,0.6c3.8,0,4.7,0.7,2.2,1.6c-1.3,0.5-3.6,0.4-6.1-0.4c-0.5-0.1-0.9-0.1-0.9,0.2c0,0.5,3,2.3,3.8,2.3
				c0.3,0,0.9,0.3,1.3,0.7c0.6,0.6,0.6,0.8,0,1c-0.4,0.2-0.8,0-0.8-0.3c0-0.4-0.7-0.4-1.9-0.2c-1.3,0.3-1.8,0.2-1.5-0.2
				c0.2-0.3,0.1-0.9-0.3-1.4c-0.7-0.8-2.6-1.1-2.6-0.3c0,0.2-0.8,1.3-1.7,2.3l-1.7,1.9l-2.2-1.1h0c-2.6-1.3-2.9-1.9-0.8-1.9
				c0.8,0,1.8-0.3,2.3-0.6c0.7-0.5,0.7-0.5-0.1-0.3c-0.5,0.2-1.1,0-1.5-0.3c-0.5-0.5-0.7-0.5-1,0c-0.3,0.5-0.9,0.5-2,0.2
				c-2.8-0.8-3.4-1.2-3.4-2C267.7,91.7,268.4,91.6,272.7,91.9z M77.3,212.8c-0.2,0.2-0.7-0.1-1.1-0.6c-0.8-1-0.7-2.3,0.2-2.3
				c0.3,0,0.4,0.5,0.3,1c-0.1,0.6,0,1.1,0.3,1.3C77.4,212.3,77.5,212.6,77.3,212.8z M77.2,207.6c-0.4,0.4-0.9,0.8-1,0.8
				c-0.1,0-0.2-0.4-0.2-0.8s0.5-0.8,1-0.8C77.9,206.8,77.9,206.8,77.2,207.6z M79.9,208.7c-0.1,0.1-0.4-0.1-0.6-0.6
				c-0.2-0.5-0.2-1-0.1-1.2c0.1-0.1,0.4,0.1,0.6,0.6S80.1,208.5,79.9,208.7z M76.6,228.4c-0.9,0-1.9-0.1-2.3-0.3
				c-0.4-0.1-0.7-0.5-0.7-0.8c0-0.8,2.3-0.6,3.5,0.3C78.1,228.4,78.1,228.5,76.6,228.4z M86.7,217.3L86.7,217.3
				c0.4-0.6,2.4-0.6,2.4-0.1c0,0.2-0.6,0.4-1.3,0.5S86.5,217.6,86.7,217.3z M83.2,219c1-0.7,1.6-0.7,1.6,0c0,0.3-0.5,0.5-1.2,0.5
				C82.7,219.5,82.6,219.4,83.2,219z M91.2,241.7c-0.3,0-0.6-0.2-0.6-0.5c0-0.3,0.1-0.5,0.2-0.5c0.1,0,0.4,0.2,0.6,0.5
				C91.6,241.5,91.5,241.7,91.2,241.7z M94.3,242c-0.2,0.2-0.4,0.1-0.6-0.1c-0.2-0.2-0.4-0.6-0.4-0.9c0-0.3,0.2-0.3,0.6,0.1
				C94.3,241.4,94.4,241.9,94.3,242z M87.8,227.8c-0.5-0.3-1.5-0.3-2.3-0.2s-2.1,0.1-2.8-0.2c-1.1-0.5-1-0.5,0.9-0.5
				c2.8,0.1,3.6-0.4,2.9-1.7c-0.5-1-0.4-1,2.2-1c2.4,0,6,1.1,6.6,2.1C95.5,227,88.7,228.4,87.8,227.8z M97.9,228.2
				c-0.6-0.6,0.2-1.3,1.5-1.3c0.8,0,1.3,0.2,1.1,0.7C100.3,228.3,98.5,228.7,97.9,228.2z M103.1,227.4c-0.4,0-0.8-0.1-0.8-0.2
				s0.4-0.3,0.8-0.5c0.4-0.2,0.8-0.1,0.8,0.2S103.5,227.4,103.1,227.4z M108.6,229c0.3,0,0.6,0.2,0.6,0.5s-0.1,0.5-0.2,0.5
				c-0.1,0-0.4-0.2-0.6-0.5C108.2,229.3,108.3,229,108.6,229z M107.1,231.1c-0.3,0-0.6-0.2-0.8-0.5c-0.2-0.3,0-0.4,0.5-0.2
				C107.7,230.8,107.9,231.1,107.1,231.1z M109.9,247c-0.2,0.6-0.7,1.1-1.3,1.1c-0.8,0-0.9-0.2-0.5-0.7c0.3-0.4,0.4-0.9,0.2-1.1
				c-0.2-0.2,0.1-0.3,0.8-0.3C109.9,246,110.1,246.2,109.9,247z M109.7,193c-0.3,0-0.5-0.1-0.5-0.2c0-0.1,0.2-0.4,0.5-0.6
				s0.5-0.1,0.5,0.2S110,193,109.7,193z M111,229c0.1,0,0.4,0.2,0.6,0.5c0.2,0.3,0.1,0.5-0.2,0.5s-0.6-0.2-0.6-0.5
				S110.9,229,111,229z M111.3,233c-0.3,0.2-0.5,0.1-0.5-0.2c0-0.3,0.2-0.7,0.5-0.9c0.3-0.2,0.5-0.1,0.5,0.2
				C111.9,232.4,111.6,232.8,111.3,233z M112.9,237c-0.3,0-0.5-0.1-0.5-0.2c0-0.1,0.2-0.4,0.5-0.6s0.5-0.1,0.5,0.2
				S113.2,237,112.9,237z M116.1,240.7c-0.3,0-0.6-0.2-0.6-0.5s0.1-0.5,0.2-0.5c0.1,0,0.4,0.2,0.6,0.5
				C116.5,240.4,116.4,240.7,116.1,240.7z M137.5,159.3c-0.2,0.4-0.4,0.8-0.5,0.8c-0.1,0-0.2-0.4-0.2-0.8c0-0.4,0.2-0.8,0.5-0.8
				S137.7,158.9,137.5,159.3z M142.2,157.4c-1.9,0.5-4.2,0.6-8.2,0.2l-2-0.2l3.7-3.7c2-2,4-3.7,4.3-3.7c0.3,0,0.2,0.4-0.2,0.9
				c-1.1,1.2-0.4,2.6,1.7,3c0.9,0.2,1.8,0.9,2.1,1.6C144.1,156.8,144,156.9,142.2,157.4z M225.3,119.4c-1.1,0.8-3.1,1.6-7.9,2.9
				c-0.4,0.1-1.5-0.3-2.4-0.8s-2-0.9-2.5-0.8c-0.7,0.2-0.8,0-0.6-0.8c0.3-1.2,5-2.9,6.5-2.4c0.5,0.2,2,0,3.1-0.3
				c1.8-0.5,2.3-0.5,3.6,0.3l1.4,0.9L225.3,119.4z M238.6,108.7c1-0.7,1.6-0.7,1.6,0c0,0.3-0.5,0.5-1.2,0.5
				C238,109.2,237.9,109.1,238.6,108.7z M240.1,124.5c0,0.2-0.4,0.4-0.8,0.4c-0.4,0-0.8-0.2-0.8-0.4c0-0.2,0.4-0.4,0.8-0.4
				C239.8,124.1,240.1,124.3,240.1,124.5z M238.3,151.1L238.3,151.1c0.6-0.3,1.7-0.8,2.6-1.1c1.8-0.7,1.5-1.3-0.8-1.8
				c-1.6-0.3-1.6-0.4-0.7-1c0.5-0.4,0.8-1,0.6-1.3c-0.2-0.3,0.4-0.8,1.2-1.1c0.9-0.3,1.6-0.8,1.6-1.1c0-1.2-1.1-3.3-1.7-3.2
				c-1.4,0.2-2.1-0.1-1.8-0.7c0.1-0.4,0-1.1-0.2-1.6c-0.7-1.3,0.9-4.1,2.3-4.1c0.2,0,0.3,0.3,0.3,0.6c-0.1,0.4,0.4,0.7,1.1,0.8
				l1.2,0.2l-1.2,1.3l-1.2,1.3l1.3,0.5c1.4,0.5,2.8,2.3,4.2,5.4c0.7,1.5,1.1,1.9,1.9,1.7c1.6-0.4,1.8,0.7,0.3,1.7
				c-1,0.7-1.2,1.1-0.8,1.5c0.5,0.5-0.4,0.8-3.5,1.2c-2.3,0.3-5,0.8-6,0.9C237.7,151.5,237.5,151.5,238.3,151.1z M239.1,142.9
				c0-0.1,0.2-0.4,0.5-0.6s0.5-0.1,0.5,0.2s-0.2,0.6-0.5,0.6C239.3,143.1,239.1,143,239.1,142.9z M237.2,141c0.2,0.3,0,1.1-0.5,1.7
				c-0.5,0.6-0.8,1.8-0.8,2.6c0,1.2-0.4,1.5-2.3,2.2c-1.2,0.4-2.6,0.9-3.1,1.2c-0.6,0.2-1,0.1-1.2-0.5c-0.2-0.5,0-1.5,0.5-2.4
				c0.5-1,0.6-1.6,0.3-1.9c-0.9-0.6-0.6-1.3,0.8-1.6c0.7-0.2,1.6-0.7,1.9-1.1C233.5,140.4,236.7,140.2,237.2,141z M191.1,231.1
				c-0.1,0-0.4-0.2-0.6-0.5c-0.2-0.3-0.1-0.5,0.2-0.5s0.6,0.2,0.6,0.5C191.4,230.9,191.3,231.1,191.1,231.1z M196.1,235.4
				c-0.3,0-0.5-0.2-0.5-0.5s0.2-0.5,0.5-0.5s0.5,0.2,0.5,0.5S196.4,235.4,196.1,235.4z M192.6,114.9c-1,0.8-3.2,1.6-5.8,2
				c-5.4,1-7.2,2.2-10.4,6.8c-2.6,3.7-4.2,5.1-5.8,5.1c-0.4,0-2-0.6-3.4-1.4v0c-3.4-1.8-5-4.6-4-7c0.5-1.1,0.5-1.8,0.1-2.6
				c-0.9-1.6,0.3-3.6,3.2-5.4c1.4-0.9,2.8-2,3.1-2.6c0.8-1.6,0.1-4.3-1.4-5c-0.7-0.3-1.2-0.9-1-1.3c0.4-1-1.4-4.3-3.1-6
				c-1.3-1.2-1.9-1.3-6.3-1.4c-6,0-7.2-0.4-7.1-2.1c0-0.7,0.2-1.3,0.4-1.3c0.2,0,2.3-0.2,4.8-0.6c3.2-0.4,6-1.2,9.5-2.7
				c5.4-2.3,5.9-2.4,18.8-2.1c4.1,0.1,7.9-0.2,12.7-1c4.5-0.8,7.8-1,9.6-0.8c1.5,0.2,3.7,0.1,5-0.3c2.9-0.8,10.4,0.2,13.4,1.7
				c1.7,0.9,2.7,1,5.6,0.7c3.2-0.3,3.4-0.3,2.5,0.4c-0.6,0.4-2.4,1-4,1.2c-3.5,0.5-6.7,2.9-5.8,4.5c0.4,0.7,0.1,1.3-1.1,2.4
				c-0.9,0.8-1.7,1.9-1.8,2.4c-0.4,1.2-5.1,3.3-7.4,3.4c-2.6,0.1-2.9,0.6-0.9,1.7c0.9,0.5,2.3,1.4,3.1,2l1.3,1l-1.2,0.4
				c-0.9,0.3-1.7,0.1-3.2-1c-2.1-1.5-4.4-1.5-3.2,0c0.5,0.6,0.4,0.8-0.5,1c-2,0.5-0.6,1.5,1.6,1.2c1.4-0.2,2.2-0.1,2.6,0.4
				c0.5,0.6-0.2,0.9-4,1.7c-2.5,0.5-5.9,1-7.6,1C197.9,111.6,195.8,112.5,192.6,114.9z M260.3,270.4c-0.3,0-0.5-0.1-0.5-0.2
				c0-0.1,0.2-0.4,0.5-0.6s0.5-0.1,0.5,0.2S260.6,270.4,260.3,270.4z M263.5,264c-0.3,0-0.5-0.1-0.5-0.2c0-0.1,0.2-0.4,0.5-0.6
				s0.5-0.1,0.5,0.2S263.8,264,263.5,264z M341.4,302.2c0.3,0,0.6,0.2,0.6,0.5c0,0.3-0.1,0.5-0.2,0.5c-0.1,0-0.4-0.2-0.6-0.5
				C341,302.4,341.1,302.2,341.4,302.2z M351.7,314.6c-1.4,3.8-2.8,8.3-3.3,10.1c-1.4,5.6-2.1,6.9-4.4,7.6c-2.4,0.7-2.1,0.7-3.5,0h0
				c-1.5-0.8-1.7-1.3-2.1-4.4c-0.3-2.5-0.2-3,1.3-5.5c1.5-2.5,1.6-2.9,1.3-5.6c-0.5-3.9,0.3-5.9,2.6-6.4c2.1-0.5,6.7-4.5,7.8-6.9
				l0.8-1.8l0.6,1.3C354.4,306.2,354.3,307.6,351.7,314.6z M365.8,322.9c-0.3,0-0.5-0.2-0.5-0.5c0-0.3,0.2-0.5,0.5-0.5
				s0.5,0.2,0.5,0.5C366.3,322.6,366.1,322.9,365.8,322.9z M367.9,285.2c-0.3,0-0.5-0.2-0.5-0.5c0-0.3,0.2-0.5,0.5-0.5
				c0.3,0,0.5,0.2,0.5,0.5C368.4,285,368.2,285.2,367.9,285.2z M369.5,320.7c-0.3,0-0.5-0.1-0.5-0.2s0.2-0.4,0.5-0.6
				s0.5-0.1,0.5,0.2S369.8,320.7,369.5,320.7z M424.2,255.9c-0.5,0.8-2.6,1.4-2.9,0.9l0,0c-0.6-1-0.9-5.3-0.5-6.4
				c0.5-1.2,0.5-1.2,1.8,0.8C424.2,253.5,424.8,255,424.2,255.9z"/>
			<path fill="#573392" d="M93.4,324.8c0.1-1.8-0.2-4.3-0.5-5.6c-0.8-3-4.7-6.8-9.5-9.3c-0.6-0.3-1.1-0.6-1.6-0.9
				c3.2,9.4,7.1,18.4,11.7,27.1C93.3,332.6,93.2,328.6,93.4,324.8z"/>
			<path fill="#573392" d="M85.2,169.3C85.2,169.3,85.2,169.3,85.2,169.3c-0.2,0.5-0.4,1-0.6,1.5C85.8,170.2,85.8,169.9,85.2,169.3z
				"/>
			<path fill="#FFFFFF" d="M77,206.8c-0.6,0-1,0.4-1,0.8s0.1,0.8,0.2,0.8c0.1,0,0.6-0.4,1-0.8C77.9,206.8,77.9,206.8,77,206.8z"/>
			<path fill="#FFFFFF" d="M221.5,117.1c-1.2,0.3-2.6,0.5-3.1,0.3c-1.6-0.5-6.2,1.2-6.5,2.4c-0.2,0.8-0.1,1,0.6,0.8
				c0.5-0.2,1.6,0.2,2.5,0.8s1.9,0.9,2.4,0.8c4.8-1.3,6.8-2,7.9-2.9l1.3-1l-1.4-0.9C223.9,116.6,223.4,116.6,221.5,117.1z"/>
			<path fill="#FFFFFF" d="M141.5,154c-2-0.4-2.8-1.8-1.7-3c0.5-0.5,0.6-0.9,0.2-0.9c-0.3,0-2.3,1.7-4.3,3.7l-3.7,3.7l2,0.2
				c4,0.4,6.3,0.4,8.2-0.2c1.8-0.5,1.9-0.6,1.4-1.8C143.2,154.9,142.3,154.2,141.5,154z"/>
			<path fill="#FFFFFF" d="M238.9,109.2c0.7,0,1.2-0.2,1.2-0.5c0-0.7-0.6-0.7-1.6,0C237.9,109.1,238,109.2,238.9,109.2z"/>
			<ellipse fill="#FFFFFF" cx="239.3" cy="124.5" rx="0.8" ry="0.4"/>
			<path fill="#FFFFFF" d="M137.3,158.5c-0.3,0-0.5,0.4-0.5,0.8c0,0.4,0.1,0.8,0.2,0.8c0.1,0,0.3-0.4,0.5-0.8
				C137.7,158.9,137.6,158.5,137.3,158.5z"/>
			<path fill="#FFFFFF" d="M240.1,142.6c0-0.3-0.2-0.4-0.5-0.2s-0.5,0.4-0.5,0.6s0.2,0.2,0.5,0.2
				C239.9,143.1,240.1,142.9,240.1,142.6z"/>
			<path fill="#FFFFFF" d="M239.1,151.3c1-0.2,3.7-0.6,6-0.9c3.1-0.4,4-0.7,3.5-1.2c-0.5-0.5-0.3-0.8,0.8-1.5c1.5-1,1.3-2.1-0.3-1.7
				c-0.8,0.2-1.2-0.2-1.9-1.7c-1.4-3.1-2.8-4.9-4.2-5.4l-1.3-0.5l1.2-1.3l1.2-1.3l-1.2-0.2c-0.7-0.1-1.2-0.5-1.1-0.8
				c0.1-0.4,0-0.6-0.3-0.6c-1.5,0-3,2.8-2.3,4.1c0.3,0.5,0.4,1.2,0.2,1.6c-0.2,0.6,0.4,0.9,1.8,0.7c0.6-0.1,1.7,2,1.7,3.2
				c0,0.3-0.7,0.8-1.6,1.1c-0.9,0.3-1.4,0.8-1.2,1.1c0.2,0.3-0.1,0.9-0.6,1.3c-0.9,0.7-0.8,0.7,0.7,1c2.3,0.5,2.6,1.2,0.8,1.8
				c-0.8,0.3-2,0.8-2.5,1.1l0,0C237.5,151.5,237.7,151.5,239.1,151.3z"/>
			<path fill="#FFFFFF" d="M109.7,192.2c-0.3,0.2-0.5,0.4-0.5,0.6c0,0.1,0.2,0.2,0.5,0.2s0.5-0.3,0.5-0.6S110,192,109.7,192.2z"/>
			<path fill="#FFFFFF" d="M115.8,239.6c-0.1,0-0.2,0.2-0.2,0.5s0.3,0.5,0.6,0.5s0.4-0.2,0.2-0.5
				C116.2,239.9,115.9,239.6,115.8,239.6z"/>
			<path fill="#FFFFFF" d="M111.4,230.1c0.3,0,0.4-0.2,0.2-0.5c-0.2-0.3-0.4-0.5-0.6-0.5s-0.2,0.2-0.2,0.5S111,230.1,111.4,230.1z"
				/>
			<path fill="#FFFFFF" d="M109.1,246c-0.6,0-0.9,0.2-0.8,0.3c0.2,0.2,0.1,0.7-0.2,1.1c-0.5,0.6-0.4,0.7,0.5,0.7
				c0.6,0,1.2-0.4,1.3-1.1C110.1,246.2,109.9,246,109.1,246z"/>
			<path fill="#FFFFFF" d="M111.3,231.9c-0.3,0.2-0.5,0.6-0.5,0.9c0,0.3,0.2,0.4,0.5,0.2s0.5-0.6,0.5-0.9
				C111.9,231.9,111.6,231.8,111.3,231.9z"/>
			<path fill="#FFFFFF" d="M112.9,236.2c-0.3,0.2-0.5,0.4-0.5,0.6c0,0.1,0.2,0.2,0.5,0.2s0.5-0.3,0.5-0.6S113.2,236,112.9,236.2z"/>
			<path fill="#FFFFFF" d="M212.5,108.8c-0.4-0.5-1.2-0.6-2.6-0.4c-2.2,0.4-3.6-0.7-1.6-1.2c0.9-0.2,1-0.5,0.5-1
				c-1.2-1.5,1.1-1.4,3.2,0c1.6,1.1,2.3,1.3,3.2,1l1.2-0.4l-1.3-1c-0.7-0.6-2.1-1.4-3.1-2c-2-1.1-1.7-1.6,0.9-1.7
				c2.3-0.1,7-2.2,7.4-3.4c0.2-0.5,1-1.6,1.8-2.4c1.2-1.1,1.4-1.7,1.1-2.4c-0.8-1.6,2.3-4.1,5.8-4.5c1.6-0.2,3.4-0.7,4-1.2
				c1-0.7,0.7-0.7-2.5-0.4c-2.9,0.3-3.9,0.2-5.6-0.7c-3-1.5-10.5-2.4-13.4-1.7c-1.2,0.3-3.5,0.5-5,0.3c-1.8-0.2-5.1,0.1-9.6,0.8
				c-4.8,0.8-8.6,1.1-12.7,1c-13-0.3-13.4-0.3-18.8,2.1c-3.5,1.5-6.3,2.3-9.5,2.7c-2.5,0.3-4.6,0.6-4.8,0.6c-0.2,0-0.3,0.6-0.4,1.3
				c-0.1,1.7,1,2.1,7.1,2.1c4.4,0,5,0.1,6.3,1.4c1.8,1.6,3.5,5,3.1,6c-0.2,0.4,0.2,1,1,1.3c1.5,0.7,2.2,3.4,1.4,5
				c-0.3,0.6-1.7,1.7-3.1,2.6c-2.9,1.8-4.1,3.7-3.2,5.4c0.4,0.8,0.4,1.5-0.1,2.6c-1,2.3,0.6,5.2,4,7v0c1.5,0.8,3,1.4,3.4,1.4
				c1.6,0,3.2-1.4,5.8-5.1c3.2-4.6,5-5.8,10.4-6.8c2.6-0.5,4.7-1.3,5.8-2c3.2-2.4,5.3-3.3,8.3-3.3c1.6,0,5-0.5,7.6-1
				C212.3,109.7,213,109.5,212.5,108.8z"/>
			<circle fill="#FFFFFF" cx="365.8" cy="322.3" r="0.5"/>
			<path fill="#FFFFFF" d="M341.7,303.2c0.1,0,0.2-0.2,0.2-0.5c0-0.3-0.3-0.5-0.6-0.5s-0.4,0.2-0.2,0.5
				C341.3,303,341.6,303.2,341.7,303.2z"/>
			<path fill="#FFFFFF" d="M352.4,301.6l-0.8,1.8c-1.1,2.4-5.7,6.4-7.8,6.9c-2.3,0.5-3.1,2.5-2.6,6.4c0.3,2.7,0.2,3.2-1.3,5.6
				c-1.5,2.4-1.6,3-1.3,5.5c0.4,3.1,0.6,3.6,2.1,4.4h0c1.3,0.7,1.1,0.7,3.5,0c2.2-0.7,3-2,4.4-7.6c0.4-1.7,1.9-6.3,3.3-10.1
				c2.6-7.1,2.7-8.5,1.2-11.7L352.4,301.6z"/>
			<circle fill="#FFFFFF" cx="367.9" cy="284.7" r="0.5"/>
			<path fill="#FFFFFF" d="M230.8,142.3c-1.3,0.3-1.7,1.1-0.8,1.6c0.3,0.2,0.2,0.9-0.3,1.9c-0.4,0.8-0.6,1.9-0.5,2.4
				c0.2,0.6,0.6,0.7,1.2,0.5c0.5-0.2,1.9-0.7,3.1-1.2c1.9-0.7,2.3-1,2.3-2.2c0-0.8,0.4-1.9,0.8-2.6c0.5-0.6,0.7-1.4,0.5-1.7
				c-0.5-0.8-3.8-0.6-4.5,0.2C232.4,141.6,231.6,142.1,230.8,142.3z"/>
			<path fill="#FFFFFF" d="M420.8,250.3c-0.4,1.1-0.1,5.5,0.5,6.4l0,0c0.3,0.5,2.4-0.1,2.9-0.9c0.5-0.8,0-2.4-1.6-4.7
				C421.3,249.1,421.2,249.1,420.8,250.3z"/>
			<path fill="#FFFFFF" d="M369.5,319.9c-0.3,0.2-0.5,0.4-0.5,0.6s0.2,0.2,0.5,0.2s0.5-0.3,0.5-0.6S369.8,319.8,369.5,319.9z"/>
			<path fill="#FFFFFF" d="M263.5,263.2c-0.3,0.2-0.5,0.4-0.5,0.6c0,0.1,0.2,0.2,0.5,0.2s0.5-0.3,0.5-0.6S263.8,263,263.5,263.2z"/>
			<path fill="#FFFFFF" d="M462,262.3c-1.5-1.6-5.1-3.6-6.5-3.6c-1.1,0,0.5,2.6,3.1,5c1.2,1.2,2.6,2.8,3,3.7
				c0.4,0.9,1.7,2.8,2.8,4.2c1.1,1.5,2.5,3.8,3.1,5.3c0.2,0.4,0.4,0.8,0.6,1.2c0.5-3,1-6,1.4-9.1c-0.1-0.1-0.3-0.2-0.4-0.3
				C467.1,267.6,466.2,266.8,462,262.3z"/>
			<circle fill="#FFFFFF" cx="196.1" cy="234.9" r="0.5"/>
			<path fill="#FFFFFF" d="M260.3,269.6c-0.3,0.2-0.5,0.4-0.5,0.6c0,0.1,0.2,0.2,0.5,0.2s0.5-0.3,0.5-0.6S260.6,269.4,260.3,269.6z"
				/>
			<path fill="#FFFFFF" d="M106.8,230.4c-0.5-0.2-0.7-0.1-0.5,0.2c0.2,0.3,0.5,0.5,0.8,0.5C107.9,231.1,107.7,230.8,106.8,230.4z"/>
			<path fill="#FFFFFF" d="M190.8,230.1c-0.3,0-0.4,0.2-0.2,0.5c0.2,0.3,0.4,0.5,0.6,0.5c0.1,0,0.2-0.2,0.2-0.5
				C191.4,230.3,191.1,230.1,190.8,230.1z"/>
			<path fill="#FFFFFF" d="M265.6,170.5c0-0.9-0.2-1.2-0.8-1c-0.8,0.3-1.1,1.3-0.4,2C265.1,172.1,265.6,171.7,265.6,170.5z"/>
			<path fill="#FFFFFF" d="M274.1,182.1c2.1,1.1,2.4,1.1,2.7,0.3c0.2-0.5,0.4-1,0.4-1.2c0.1-0.5-2.9-1-4.2-0.6
				C271.9,180.9,272,181.1,274.1,182.1z"/>
			<path fill="#FFFFFF" d="M313.6,188.3c0.5,0.5,2.8-0.7,3.1-1.5c0.3-0.8-0.5-1-1-0.2c-0.2,0.3-0.8,0.5-1.4,0.5
				C313.3,187.1,313,187.7,313.6,188.3L313.6,188.3z"/>
			<path fill="#FFFFFF" d="M300.3,187.7c0.4-0.6-1.6-1.1-4.2-1.1l-2.1,0l1.6,0.7C297.4,188.3,299.8,188.4,300.3,187.7z"/>
			<path fill="#FFFFFF" d="M265.6,175.7c0-2.1-0.8-2.8-1.9-1.7c-0.6,0.6-0.6,1.1-0.2,2.4C264.3,178.6,265.6,178.1,265.6,175.7z"/>
			<path fill="#FFFFFF" d="M251.6,177.5c0.5-0.1,1-0.5,1.1-0.8c0.3-1-1.3-0.8-1.7,0.2C250.8,177.4,251,177.6,251.6,177.5z"/>
			<path fill="#FFFFFF" d="M87.7,182.9c0.1-2.9,1.1-4.6,1.7-2.9c0.4,0.9,0.4,0.9,0.7-0.3c0.2-0.7,1.1-1.8,2.1-2.5
				c1-0.6,2.4-1.8,3.2-2.5c0.8-0.8,2.4-1.7,3.7-2.1c4-1.2,5.2-2,5.5-3.5c0.3-1.2,1.1-1.8,5.8-3.9c3-1.3,6.3-2.6,7.3-2.8
				c2.6-0.5,3,0.6,0.6,1.6c-2.7,1.1-3.6,1.9-2.8,2.4c0.4,0.2,1.7-0.1,3.1-0.8c1.3-0.7,3.1-1.4,4-1.6c0.9-0.2,2.3-0.8,3.2-1.4
				l1.6-1.1l-2.1,0.3c-2.6,0.4-4.8-0.4-5.6-2.3c-0.6-1.2-0.5-1.5,0.4-2.2c0.6-0.5,1.3-1.4,1.7-2c0.6-1.1,0.5-1.2-1.4-1.2
				c-1.1,0-3.5,0.7-5.3,1.5c-3.1,1.5-3.9,1.6-3.9,0.5c0-0.3,2.1-1.5,4.6-2.7c4.3-2.1,4.9-2.2,9.4-2.3c6.1-0.1,8.1-0.5,12.8-2.7
				c4.3-2,5.6-3.7,4-5.2c-1.1-1-2.8-1.1-4.4-0.3c-1.6,0.8-2.5-0.2-1-1.2c1.1-0.8,1.1-0.8-0.1-2.9c-0.9-1.5-1.1-2.4-0.7-3
				c0.3-0.5,0.3-1.3-0.1-1.9c-0.3-0.6-0.4-1.4-0.3-1.8s0.1-1.3-0.1-1.9l-0.4-1.2l-1.8,1.4c-1,0.8-2.7,1.8-3.8,2.4l-1.9,1l-1.2-1.3
				c-1-1-1.1-1.4-0.6-2.4c0.3-0.6,0.5-1.6,0.3-2.1c-0.4-1.3-3.7-3.1-6.5-3.5c-3.2-0.5-5.1,0.4-6.2,3c-0.5,1.2-1.6,2.6-2.5,3.2
				c-1.3,1-1.5,1.3-1.2,2.9c0.5,2.4-1.2,4.6-5.3,6.7c-2.8,1.5-3.2,2-4.2,4.5c-1,2.7-2.6,4.3-4.4,4.3c-0.2,0-0.5-0.2-0.8-0.6
				c-2.4,4.5-4.7,9.1-6.8,13.8c0.2,0.6,0.3,1.2-0.1,1.8c-0.2,0.4-0.6,0.6-1,0.7c-0.6,1.4-1.2,2.7-1.7,4.1c0,0,0,0,0,0
				c0.6,0.6,0.5,0.8-0.6,1.5c-2.8,7.2-5.2,14.6-7.2,22.2c1.7-1.3,3.7-2.6,5.4-3.4C86.1,188,87.6,186,87.7,182.9z M93.6,165.8
				c0.8,0.4,0.7,0.6-0.4,1.4c-1.6,1.1-4.2,1.2-4.2,0.1C89.1,166.3,92.5,165.2,93.6,165.8z"/>
			<path fill="#FFFFFF" d="M141.9,93.8c0.4,0,2.1-0.7,3.7-1.6s3.5-1.6,4.2-1.6c2.7,0,9.2-1.9,13.2-3.8l4.3-2.1l-2.6,0.3
				c-1.4,0.2-5.8,0.5-9.8,0.8c-2.3,0.1-4.9,0.3-7.5,0.6c-0.7,0.6-1.4,1.1-2.1,1.7c1,0.1,1.2,0.8,0,1.5c-0.4,0.2-1.2,0.4-2.3,0.4
				c-2.7,2.2-5.3,4.5-7.8,6.9c0.4-0.2,1.6-0.8,2.9-1.5C139.8,94.6,141.5,93.8,141.9,93.8z"/>
			<path fill="#FFFFFF" d="M118.5,370.5c1-1.2,1.3-2.7,0.8-3.6c-0.8-1.5-0.2-2.1,2.1-2.1c2.7,0,5.6-1.4,6.3-3
				c0.5-1.1,0.4-1.7-0.5-3.6c-0.6-1.3-1.7-2.5-2.4-2.9c-0.7-0.3-1.3-0.8-1.3-1.1c0-0.8,1.5-0.7,4.4,0.3c3.3,1.2,4.6,0.5,6.9-3.5
				c0.9-1.6,2.2-3.7,2.9-4.6c0.7-0.9,1.2-2.2,1.2-2.9c0-0.7,0.4-1.8,0.8-2.5c1.4-2,1.9-4.4,1.2-6.4c-0.6-1.7-0.5-1.9,1.2-3.4
				c1-0.8,2.8-2,4-2.5s2.4-1.2,2.6-1.6c0.2-0.4,1.1-0.5,2.3-0.3c1.5,0.2,2.2,0,3.2-0.7c2.8-2.4,5.7-13.5,5.1-19.5
				c-0.3-3.1-0.2-3.4,1-4.7c0.8-0.8,1.8-2.1,2.2-3.1c0.5-0.9,1.6-2.7,2.6-3.8c2.2-2.8,3.1-5.7,2.4-8.3c-0.5-1.8-0.8-2-3.5-2.8
				c-2-0.6-3.6-1.5-5-2.9c-1.9-1.9-2.4-2.1-6.4-2.7c-3.7-0.5-4.5-0.5-5.6,0.3c-1.4,0.9-1.9,0.5-1.7-1.6c0.1-0.7-0.6-1.4-2.2-2.3
				c-2.5-1.4-3.1-1.3-5.9,1c-1.1,0.9-1.6,1-2.7,0.6c-0.8-0.3-0.9-0.5-0.5-0.6c0.5,0,1.4-0.6,2-1.3c1.1-1.2,1.1-1.3,0.3-2.1
				c-1.3-1.3-2.2-1.1-4.8,1.3c-1.8,1.7-2.5,2.1-3,1.6c-0.5-0.5-0.1-1.1,1.5-2.7c2.5-2.4,3.7-4.3,2.9-4.8c-0.3-0.2-0.8-1.4-1.2-2.7
				c-1.2-4.4-6.1-8-9.8-7.1c-1.8,0.4-5.8-1.4-7-3.2c-2.6-3.8-9.6-8.1-12.2-7.4c-1.7,0.4-7.6-1.2-8.8-2.4c-1.5-1.6-2.9-1.8-4.6-0.5
				c-1.7,1.3-2,2-1.1,2.9c0.4,0.4,0.2,0.9-0.5,1.8c-1,1.2-1,1.2-1.6,0.2c-0.6-1.2-0.1-5.1,0.9-6.3c1.2-1.4-1.3-1-2.6,0.5
				c-0.7,0.7-1.7,1.3-2.3,1.3c-1.4,0-3.2,1.4-4.2,3.5c-0.5,0.9-1.4,2-2.1,2.5c-1.1,0.8-1.4,0.7-2.8-0.4c-0.9-0.7-1.6-1.1-2.5-1.2
				c0,0.4,0,0.8,0,1.1c0.3,0,0.6,0.1,0.8,0.2c1.2,0.5,1.3,0.8,0.8,1.7c-0.3,0.6-0.4,1.1-0.1,1.1s0.5,0.3,0.5,0.7
				c0,0.4,0.3,1.7,0.6,3c0.7,2.8,0.2,5.3-1.7,8.2c1.6,15.2,4.9,29.8,9.8,43.8c0.4,0.3,1,0.5,1.6,0.9c4.8,2.5,8.6,6.3,9.5,9.3
				c0.3,1.2,0.6,3.7,0.5,5.6c-0.1,3.8-0.1,7.7,0.1,11.4c6.1,11.7,13.4,22.8,21.6,33c0.4,0,0.9,0.2,1.6,0.5
				C117.5,370.3,118.4,370.6,118.5,370.5z"/>
			<path fill="#FFFFFF" d="M401,94.4c-0.8,0-1.3-0.2-1.1-0.5c0.3-0.5-4.8-1.7-7.4-1.7c-1,0-1.9-0.2-2.1-0.5
				c-0.2-0.3-1.1-0.5-2.1-0.5s-2.5-0.4-3.4-0.8c-2.3-1.1-5-1.2-6.1,0c-1.3,1.3-0.4,1.5,10.1,2.3c3.9,0.3,4.3,0.4,4.1,1.3
				c-0.2,1.1,0.5,1.4,1.1,0.5c0.4-0.7,5-0.7,5-0.1c0,0.3-0.8,1.1-1.9,1.9c-1.6,1.2-2.2,1.4-4.1,1.1c-2-0.3-10.7,0.9-11.4,1.6
				c-0.1,0.1,0,0.6,0.4,1c0.9,1.1-0.1,1.6-3.2,1.7c-1.5,0-3,0.5-3.9,1.1c-3.9,2.8-5.3,3.4-7,3.1c-1.1-0.2-1.7-0.1-1.7,0.3
				c0,1.2,1.1,2.7,2.7,3.5c2,1,2.8,2.5,2.3,4.2c-0.4,1.5-3,3.2-4.3,2.7c-0.7-0.3-0.6-0.6,0.3-1.9c1.3-1.8,1.4-1.5-2.5-6.7
				c-3-4-4-4.6-6.1-4.1c-3.7,0.9-3.5,4,0.5,6c1.3,0.6,2.3,1.4,2.3,1.7c0,0.8-1.9,1.6-2.5,1c-0.9-0.9-15.6-4.3-16.2-3.8
				c-0.5,0.5,2,1.4,2.7,0.9c0.6-0.4,1.8,1.1,1.4,1.8c-0.2,0.3-0.6,0.4-0.9,0.2c-0.3-0.2-2.2,0-4.2,0.3c-2.9,0.5-3.9,0.5-4.5,0
				c-1.1-0.9-4-0.3-7.7,1.7c-2.5,1.3-3.3,1.5-4.2,1c-0.6-0.3-1.1-0.9-1-1.2c0.1-0.4-0.6-0.7-1.4-0.8c-1.6-0.2-1.6-0.3-0.5,2.4
				c0.3,0.7,0,0.8-3.5,1.7c-1.6,0.4-2.2,0.8-2,1.3c0.4,1.1-1.4,1.9-3.1,1.3c-2.1-0.8-2.9-0.6-1.2,0.3c1.8,1,1.8,1.2,0.1,1.8
				c-1.8,0.7-5.2-1-6.3-3.1c-0.4-0.8-1.4-1.8-2.2-2.1c-1.1-0.5-1.3-0.8-0.8-1.3s1.4-0.4,3.7,0.1c1.7,0.4,4,0.8,5.1,0.9
				c2.4,0.3,5.2-0.7,4.8-1.7c-0.4-1.1-10.2-4.1-12-3.7c-1,0.2-2.1-0.1-3.4-0.9c-2.7-1.7-6-2.4-11-2.2c-2.9,0.1-5.1,0.5-6.9,1.2
				c-1.5,0.6-3.8,1.5-5.2,2s-2.5,1.1-2.5,1.4c0,0.3-1,1.4-2.2,2.5c-1.2,1.1-2.5,2.6-2.9,3.3c-0.9,1.7-5.9,5.2-8.4,5.9
				c-2.5,0.7-4.8,2.9-4.4,4.1c0.2,0.5,0.4,1.6,0.5,2.4c0.1,1.7,2.1,3.5,3.8,3.5c0.6,0,1.9-0.5,2.9-1.1l1.8-1.1l1.5,1.7
				c0.8,1,1.6,2.4,1.8,3.2c0.2,0.8,0.8,1.9,1.4,2.4c1,0.9,1.1,0.9,3-0.2c1.3-0.8,2.2-1.8,2.8-3.3c0.5-1.2,1.4-2.6,2.1-3.1
				c2.3-1.6,2.6-2.6,1-3.1c-0.6-0.2-1.4-0.9-1.9-1.6c-0.7-1.1-0.7-1.4,0-2.8c0.4-0.9,1.5-1.8,2.4-2.2s2.6-1.8,3.9-3.3
				c2.5-2.7,3.5-3.1,4.6-1.8c0.7,0.9,0.3,2-2.3,5.6c-2,2.8-1.6,4.3,1.2,5.6c1.9,0.8,2.5,0.9,4.9,0.3c2.7-0.6,6-0.4,6.5,0.5
				c0.6,1-2.9,2.1-5.7,1.8c-1.5-0.2-3.1-0.1-3.6,0.2c-0.7,0.4-0.6,0.7,0.5,1.9c1.1,1.2,1.2,1.5,0.5,2.1c-0.7,0.7-1.1,0.7-2.5,0.1
				c-2.1-0.8-2.9,0-2.5,2.6c0.3,1.7-0.4,2.6-2.7,3.9c-0.8,0.4-1.5,0.4-2.4,0c-1-0.4-1.9-0.3-4.1,0.5c-2.5,1-3,1-4.3,0.3
				c-1.2-0.6-1.8-0.6-3.2-0.2c-1.6,0.6-1.8,0.5-2.9-0.9c-0.7-0.8-1.1-1.6-0.9-1.8c0.1-0.1,0.5,0,0.7,0.4c0.3,0.5,0.5,0.5,0.8,0.1
				c0.3-0.4,0.6-0.4,1.1-0.1c0.9,0.7,2.1-0.7,1.7-1.9c-0.3-0.7-0.5-0.7-1.5-0.2c-0.7,0.4-1.6,0.7-2.1,0.8c-0.8,0.1-0.9-0.1-0.6-2
				l0.3-2.2l-1.4,0.9c-0.7,0.5-1.5,1.3-1.7,1.7c-0.4,0.9,0.2,3.5,0.8,3.9c1,0.7-1.2,2.5-3.4,2.8c-1.8,0.2-2.9,0.8-4.9,2.7
				c-1.5,1.4-3.2,2.6-3.8,2.8c-0.6,0.2-1.5,0.9-2,1.6c-0.9,1.4-3.8,3.1-4.5,2.6c-0.3-0.2-1.1,0.1-1.9,0.6c-0.8,0.5-2.3,0.9-3.3,0.9
				c-2.7,0-2.6,1,0.1,2.1c1.9,0.7,2.5,1.3,3,2.7c0.7,2.1,0.2,5.9-1,7c-0.8,0.8-4.4,0.8-10.5-0.2c-2.6-0.4-4.2,0.8-3.7,2.8
				c0.2,0.7,0,2.8-0.5,4.6c-1,4.4-0.8,7.4,0.6,7.6c2.6,0.4,3.3,0.7,4.6,2c1.4,1.4,1.4,1.4,2,0.3c0.4-0.8,1.1-1.1,2.7-1.1
				c1.2,0,2.7-0.3,3.3-0.6c2-1,4.1-3.3,4.1-4.4c0-1.2,1.9-4.5,2.5-4.5c0.2,0,1.1-0.6,1.9-1.3c0.8-0.7,1.9-1.3,2.3-1.3
				c0.5,0,0.6-0.4,0.4-1.3c-0.4-1.7,1.3-2.6,3.9-2.2c2,0.3,3.9-0.2,6.5-2c1.7-1.2,2.9-0.8,4,1.3c1,2,4.9,5.7,5.9,5.7
				c2.7,0,6,3.6,5.6,6.1l-0.3,1.6l1.2-1.2c1-1,1.1-1.4,0.6-2.5c-0.7-1.6-0.2-2.1,2-1.6c2.4,0.5,1.9-0.1-1.6-1.9
				c-3.3-1.7-10.1-7.9-10.1-9.3c0-0.4,0.5-1,1-1.3c0.8-0.4,1.2-0.3,1.7,0.5c0.4,0.6,1.6,1.4,2.6,1.8c1.1,0.4,2.2,1.3,2.7,1.9
				c0.4,0.6,1.8,1.4,3,1.7c2.4,0.7,4.4,3.1,4.4,5.2c0,2.7,1.8,4.5,5,5c1.4,0.2,1.3,1.2-0.1,1.4c-1.2,0.2-1.2,0.2-0.3,1.7
				c1.3,2.2,2.1,2.3,3,0.5c0.7-1.4,0.7-1.7-0.5-3.9c-1.1-2-1.1-2.4-0.5-3c0.4-0.3,1.1-0.5,1.6-0.3c0.4,0.2,0.8,0.1,0.8-0.2
				c0-0.9,2-1.6,3.5-1.1c0.8,0.2,2.6,0.2,3.9-0.1l2.4-0.5l-1.3-1c-1.2-0.9-1.3-1.1-0.6-3.5c1.4-5.3,6.2-10.6,7.7-8.6
				c0.3,0.4,1,0.9,1.6,1.1c0.8,0.3,0.9,0.5,0.4,1.1c-0.5,0.6-0.4,0.9,0.7,1.6c1.2,0.8,1.4,0.8,3.3-0.2c1.6-0.8,1.8-1.1,0.9-1.1
				c-0.6,0-1.4-0.4-1.8-0.8c-0.5-0.7-0.2-1,2.3-2.1c4.2-1.9,5.1-2.1,4.9-1.3c-0.1,0.4-0.3,1-0.5,1.4s-0.3,0.8-0.1,1
				c0.2,0.2,0,0.9-0.4,1.7l-0.7,1.4l4,2.3c2.2,1.2,4.3,2.8,4.8,3.5c0.7,1.1,0.7,1.4,0,2.5c-1.5,2.3-5.2,2.4-9.3,0.3
				c-3.1-1.5-7.1-1.9-8.8-0.7c-0.8,0.5-2.3,1-3.4,1.1c-1.3,0.1-2.4,0.6-3.3,1.5c-1,1-1.8,1.3-2.6,1.1c-0.7-0.2-1.6,0-2,0.2
				c-0.7,0.4-0.6,0.6,0.4,1.4c0.7,0.5,1.2,1.3,1.2,1.8c0,1.4,1,3.4,2,4.1c1.5,0.9,4.2,1.4,4.6,0.7c0.5-0.8,2.3-0.7,4,0.3
				c1.3,0.8,1.8,0.8,3.3,0.2c3.2-1.3,4.5-1.3,5.1-0.1c0.4,0.7,0.4,1.1,0.1,1.1c-0.3,0-0.6,0.9-0.6,2c0,3.4-0.2,4.9-0.6,4.9
				c-0.2,0-0.5,0.8-0.6,1.9c-0.5,3.1-2.4,4-6,2.8c-1.1-0.3-2.4-0.3-3.6,0c-2.7,0.7-10.2-0.7-14.1-2.7c-3.6-1.8-6-2-6.8-0.4
				c-0.3,0.6-0.4,1.5-0.3,2c0.2,0.6-0.2,1.4-1,2.1c-1.2,1.1-1.4,1.1-2.8,0.4c-0.8-0.4-2.4-1-3.5-1.2c-1.4-0.3-2.2-0.8-2.9-1.9
				c-0.9-1.5-2.1-2-6.4-2.9c-0.9-0.2-2.3-1-3-1.8c-1.2-1.3-1.3-1.6-0.8-2.9c0.4-1,0.4-1.7,0-2.1c-0.3-0.4-0.4-1-0.2-1.5
				c0.6-1.5-1.6-2.1-4-1.1c-1.7,0.7-3.2,0.8-6.7,0.6c-5.2-0.3-8.1,0.3-12.6,2.7c-2.7,1.4-3.5,1.6-5.3,1.3c-1.2-0.2-2.6-0.7-3.2-1.1
				c-1.5-1-1.6-1-2.9,1.1c-0.6,1-2.3,2.6-3.7,3.5c-2.6,1.7-4.3,4.4-4.3,7.1c0,1.2-3.6,5.1-4.7,5.1c-1,0-4.7,4.4-6.4,7.6
				c-1,1.8-2.3,4-3,5c-1.8,2.4-2.4,4.8-1.5,6.5c1.8,3.6,1.3,9.2-1.1,11.8c-0.8,0.9-0.8,1.1,0.3,2.8c0.7,1.2,0.9,1.9,0.5,1.9
				c-0.4,0-0.4,0.2,0.2,0.5c0.7,0.4,0.7,0.5-0.1,0.5c-1.3,0-1.2,1.1,0.2,1.5c0.8,0.2,0.9,0.4,0.4,0.7c-0.5,0.3-0.4,0.5,0.4,0.8
				c1.4,0.4,5.4,5.6,6.1,7.9c0.8,2.9,6.8,8.3,10.2,9.2c1.7,0.5,2.8,0.4,5.8-0.5c3-0.8,4.2-0.9,5.6-0.5c1.5,0.4,2.6,0.3,6.1-0.9
				c2.3-0.8,4.7-1.6,5.3-1.8c2.6-1,3.5-1,5.6,0c1.6,0.8,2.2,1.5,2.5,2.7c0.3,1.5,0.4,1.6,2.6,1.3c5.6-0.8,7.9,3.4,5.8,10.7
				c-1,3.6-0.6,4.9,2.8,8.2c1.7,1.7,2.6,3.1,3.2,5.2c0.5,1.6,1.3,3.7,1.9,4.6c0.7,1.1,0.9,2.1,0.7,3c-0.2,0.7,0.1,2.5,0.5,4l0.9,2.7
				l-1.6,3.1c-2.4,4.6-3.4,8.4-3,11c0.2,1.2,1.3,3.9,2.4,5.9c2.3,4.2,4,9.9,4.5,15.2c0.3,3,0.7,4,2.4,6.3c1.1,1.5,2.1,3.1,2.1,3.4
				c0,0.3,0.6,1.4,1.3,2.5c1,1.5,1.2,2.3,1,3.8c-0.3,1.5-0.1,2.1,1.1,3.2h0c1.6,1.6,1.2,1.6,5.3,0.5c2.6-0.6,3.8-0.7,5.3-0.3
				c1.7,0.5,2.3,0.4,4.7-0.8c2.8-1.4,9.1-7.5,11.3-10.9c0.7-1.1,1.7-2.2,2.3-2.5c0.8-0.4,1-0.9,0.7-2.4c-0.5-2.8,0.1-4.3,2-5.1
				c4.3-1.8,5.5-4.3,3.7-7.9c-0.6-1.2-1.1-2.4-1.1-2.7s1.1-1.7,2.4-3.2c1.3-1.5,2.4-2.9,2.4-3.2c0-0.3,1.3-1.1,2.8-1.9
				c3.5-1.8,4.5-2.6,5.8-5.1c0.9-1.7,0.9-2.3,0.4-4.7c-0.3-1.5-0.4-3.3-0.3-4c0.2-0.9-0.1-2.2-1-4c-3.6-7-2.8-12.3,2.5-18.3
				c1.8-2,3.9-4.5,4.5-5.3s3-3.1,5.3-4.9c4-3.2,4.2-3.4,8.3-11.2c3.8-7.2,4.1-8.2,3.8-10.1l-0.4-2.1l-1.5,0.8
				c-0.8,0.4-3.8,1.3-6.6,1.9c-4.7,1-5.2,1-6.7,0.3c-1-0.5-1.7-1.4-1.9-2.3c-0.5-2.3-2.7-5.1-6-7.8c-2.2-1.8-3.2-3-3.5-4.2
				c-0.2-0.9-1.1-2.6-2.1-3.8c-2.3-2.9-2.9-4.1-2.9-6.1c0-1-0.5-2.4-1.2-3.3c-0.7-0.9-2.2-3.5-3.4-5.9s-3.1-5.9-4.3-7.9
				c-2.6-4.3-2.2-5.8,0.5-2.4l1.8,2.3l0.3-1.5c0.4-2.2,1.2-1.7,2.1,1.3c0.7,2.2,2.2,4.4,7,10.4c0.7,0.9,1.7,2.9,2.1,4.6
				c0.6,2,1.5,3.7,3,5.2c1.2,1.2,2.1,2.4,2.1,2.7c0,0.3,0.7,1.3,1.5,2.3c1.1,1.2,1.6,2.6,1.9,4.7c0.2,1.6,0.9,3.8,1.4,4.9
				c1,1.9,1.1,2,2.9,1.6c1.7-0.3,7.8-2.9,12.8-5.4c1-0.5,2.2-1.4,2.6-2.1c0.9-1.4,3.3-2.8,4.9-2.8c1.4,0,5.4-4,6.8-6.7
				c0.6-1.1,1.7-2.6,2.4-3.3c0.8-0.7,1.4-1.6,1.4-1.9c0-0.7-3.3-3.5-5.7-4.7c-1.5-0.8-2.5-2.2-2.2-3.3c0.3-1.7-0.3-1.6-2.2,0.5
				c-1.2,1.3-2.7,2.5-3.4,2.7c-1.4,0.4-4.5-1.1-4.2-2.1c0.1-0.3-0.1-0.9-0.3-1.3c-0.4-0.7-0.6-0.7-1.2,0.2c-1.1,1.4-2.3,0.7-3-1.7
				c-0.3-1.1-1.3-3-2.2-4.3c-1.3-1.8-1.6-2.6-1.3-3.8c0.2-0.9,0.7-1.7,1.1-1.9c1.4-0.5,3.7,1.1,4.7,3.4c0.8,1.8,1.6,2.5,4.2,3.8
				c3,1.5,3.4,1.6,5.6,1c2.4-0.6,2.4-0.6,4,1.2c0.9,1,2.2,2,2.9,2.2c1.9,0.6,13.4,0.7,14.7,0.2c1.4-0.6,4.2,0.7,4.7,2.2
				c0.2,0.6,0.5,1.1,0.8,1.1c0.2,0,1.2,0.6,2.1,1.4c0.9,0.7,2,1.3,2.5,1.2c1.4-0.2,1.5,1.1,0.1,1.6l-1.2,0.4l1.4,1.4
				c2.1,2.1,4.8,1.8,4.9-0.7c0-0.4,0.3-0.8,0.7-1c0.9-0.3,1.8,2.4,1.5,4.2c-0.6,2.6,0.4,5.4,7.2,20c1.1,2.4,2.2,5.2,2.4,6.2
				c0.2,1.2,0.8,2,1.7,2.4c1.6,0.7,1.7,0.7,3.6-2.1c1.9-2.8,2.7-7.5,2.2-13.2c-0.1-1,0.5-1.7,2.3-3.1c1.3-1,2.8-2.5,3.3-3.3
				c0.5-0.8,1.4-1.6,1.9-1.8s1.3-0.9,1.6-1.6s1.5-1.7,2.5-2.2c1.3-0.6,1.8-1.2,1.7-1.8c-0.4-1.6,0.7-2.5,3.7-3.2
				c1.7-0.3,3.4-0.8,3.8-1.1c1.2-0.6,2.4,0.2,3.4,2.6c0.6,1.3,1.5,2.3,2.5,2.8c1.8,0.8,4.9,6.3,4.4,7.9c-0.3,0.9,0.9,2.7,1.7,2.7
				c0.2,0,1-0.6,1.7-1.3c1.9-1.8,2.9-1.3,3.7,1.8c0.3,1.4,1.2,3.8,2,5.3c1.1,2.2,1.3,3.3,1,4.8c-0.2,1.1-0.4,3.1-0.5,4.6
				c-0.2,2.6-0.1,2.7,2,4.3c1.7,1.3,2.3,2.2,2.9,4.2c1.2,4.4,2.5,7,4.5,8.7c0.3-2.5,0.5-5,0.7-7.6c-0.6-0.7-1.3-1.3-2.4-2.2
				c-1.8-1.4-3.3-3.1-3.5-3.9c-0.2-0.7-0.8-2-1.4-2.8c-1-1.3-1-1.8-0.5-4.1c0.3-1.4,0.5-3.4,0.5-4.4c-0.1-1.3,0.1-1.9,0.6-1.9
				c1.2,0,5.2,3.1,7.3,5.5c0-0.4,0-0.7,0-1.1c0-58.6-25.2-111.3-65.4-148c-0.7-0.1-1.2-0.3-1.6-0.6C403.2,94.8,401.8,94.4,401,94.4z
				 M355.2,184.2L355.2,184.2c-0.9,0.4-1.6,0.8-1.7,0.8c-0.1,0-1.8-0.9-3.8-1.9l-3.6-1.9l0.3-2.7c0.3-3.4-0.2-4.7-2.8-7.6
				c-1.2-1.3-2.1-2.6-2.1-3.1s-0.5-1-1.1-1.4c-1.6-0.8-1.3-1.5,1.4-4.1c4.3-3.9,7.8-4.2,10.2-0.7c1,1.4,0.7,2.6-0.6,1.8
				c-0.9-0.6-3.1,0.2-3.7,1.4c-0.8,1.5,0.1,2.9,2.7,4.2c1.2,0.6,2.1,1.3,2.1,1.6c0,0.4,0.3,0.4,1,0c0.8-0.5,1.2-0.3,2.1,1
				c0.6,0.8,1.1,1.8,1.1,2.1c0,0.7-1.4,1.2-2.4,0.8c-0.8-0.3-0.8-0.2,0,1.2c0.4,0.9,1.2,1.9,1.6,2.3c0.5,0.4,0.8,1.5,0.8,3
				C356.8,183.1,356.6,183.5,355.2,184.2z"/>
			<path fill="#FFFFFF" d="M128,108.1c1,0.6,2.4,2.2,3.2,3.5c0.8,1.3,1.6,2.4,1.8,2.4c0.2,0,0.9,0.3,1.4,0.8c1,0.7,1,0.8-0.5,1.4
				c-1.1,0.4-1.9,0.4-2.8,0c-1.4-0.7-4,0.4-4.6,1.9c-0.3,0.7-0.8,0.8-3.2,0.5c-3.2-0.4-6,0.5-4.4,1.3c0.5,0.3,1.6,0.2,2.6-0.1
				c3-0.9,4-0.6,5.1,1.1c0.6,0.9,2,2.2,3.1,2.9c2.1,1.3,4.7,1.7,5.2,0.9c0.1-0.2-0.4-0.9-1.3-1.4c-2.8-1.6-0.8-2.6,2.2-1.1
				c1.5,0.8,1.6,0.8,2.1-0.5c0.4-1,0.4-1.6-0.3-2.9c-0.8-1.6-0.8-1.7,0.2-2.2c0.8-0.4,1.5-0.3,3.2,0.5c2.3,1.2,3.2,1.1,4.2-0.6
				c0.8-1.2,0.8-1.1-2.7-3.7c-0.9-0.6-1.2-1.4-1.2-2.7c0-1.7-0.2-1.8-2.6-2.6c-1.5-0.5-3.1-1.4-3.8-2.3c-1-1.3-1.4-1.4-2.3-0.9
				c-1.5,0.8-1.7,0.8-4.3-0.9c-1.5,1.6-3,3.1-4.5,4.7c0.3-0.1,0.5-0.2,0.8-0.4C126.1,107.1,126.3,107.1,128,108.1z"/>
			<path fill="#FFFFFF" d="M283.7,130.1c1.1,0.4,1.3,0.4,1.3-0.4c0-0.4-0.4-0.7-1-0.7C282.9,129.1,282.8,129.7,283.7,130.1z"/>
			<path fill="#FFFFFF" d="M75.3,222.4c-0.4,0.5,0,0.7,1.7,0.7c1.2,0,2.3,0.2,2.5,0.3c0.4,0.4,1.6,0.3,3.3-0.2
				c1.5-0.4,1.5-0.4-3.2-2.9c-3.3-1.8-5.3-2.7-6.9-3.3c-0.1,0.8-0.2,1.7-0.3,2.5c0.3,0.2,0.5,0.3,0.8,0.5
				C75.1,221.3,75.6,221.9,75.3,222.4z"/>
			<path fill="#FFFFFF" d="M93.3,241c0,0.3,0.2,0.7,0.4,0.9c0.2,0.2,0.5,0.2,0.6,0.1c0.2-0.2,0-0.6-0.4-0.9
				C93.5,240.7,93.3,240.7,93.3,241z"/>
			<path fill="#FFFFFF" d="M109,230.1c0.1,0,0.2-0.2,0.2-0.5s-0.3-0.5-0.6-0.5s-0.4,0.2-0.2,0.5C108.6,229.8,108.8,230.1,109,230.1z
				"/>
			<path fill="#FFFFFF" d="M84.8,219c0-0.7-0.6-0.7-1.6,0c-0.6,0.4-0.6,0.5,0.4,0.5C84.3,219.5,84.8,219.2,84.8,219z"/>
			<path fill="#FFFFFF" d="M90.9,240.7c-0.1,0-0.2,0.2-0.2,0.5c0,0.3,0.3,0.5,0.6,0.5s0.4-0.2,0.2-0.5
				C91.3,240.9,91,240.7,90.9,240.7z"/>
			<path fill="#FFFFFF" d="M88.6,224.3c-2.5,0-2.7,0.1-2.2,1c0.7,1.3,0,1.8-2.9,1.7c-1.9,0-2,0-0.9,0.5c0.7,0.3,2,0.4,2.8,0.2
				s1.9-0.1,2.3,0.2c0.9,0.5,7.8-0.9,7.4-1.5C94.5,225.4,91,224.3,88.6,224.3z"/>
			<path fill="#FFFFFF" d="M99.5,226.9c-1.4,0-2.2,0.6-1.5,1.3c0.6,0.6,2.4,0.1,2.7-0.6C100.7,227.2,100.3,226.9,99.5,226.9z"/>
			<path fill="#FFFFFF" d="M103.1,226.7c-0.4,0.2-0.8,0.4-0.8,0.5s0.4,0.2,0.8,0.2c0.4,0,0.8-0.2,0.8-0.5S103.5,226.5,103.1,226.7z"
				/>
			<path fill="#FFFFFF" d="M271.1,94.4c1.1,0.3,1.7,0.3,2-0.2c0.3-0.5,0.6-0.5,1,0c0.3,0.3,1,0.5,1.5,0.3c0.7-0.2,0.8-0.2,0.1,0.3
				c-0.4,0.3-1.5,0.6-2.3,0.6c-2,0-1.8,0.6,0.8,1.9h0l2.2,1.1l1.7-1.9c0.9-1,1.7-2.1,1.7-2.3c0-0.7,2-0.5,2.6,0.3
				c0.4,0.4,0.5,1,0.3,1.4c-0.3,0.4,0.2,0.5,1.5,0.2c1.2-0.2,1.9-0.2,1.9,0.2c0,0.3,0.4,0.4,0.8,0.3c0.7-0.3,0.7-0.4,0-1
				c-0.4-0.4-1-0.7-1.3-0.7c-0.8,0-3.8-1.8-3.8-2.3c0-0.2,0.4-0.3,0.9-0.2c2.5,0.7,4.8,0.9,6.1,0.4c2.5-1,1.6-1.6-2.2-1.6
				c-2.1,0-3.9-0.3-4.2-0.6c-0.5-0.5-0.6-0.5-0.6,0c0,0.3-0.3,0.6-0.8,0.6c-0.4,0-0.9,0.5-1,1.2l-0.2,1.2l-0.4-1.2
				c-0.4-1.2-1.9-1.7-1.9-0.7c0,0.4-1.7,0.4-5,0.2c-4.3-0.3-5-0.2-5,0.5C267.7,93.2,268.3,93.6,271.1,94.4z"/>
			<path fill="#FFFFFF" d="M335.8,107.2c1.2,0.5,2.8,0.8,3.7,0.9l1.6,0l-1.2-0.8c-1.6-1.1-1.5-2.4,0.2-4.4c1.6-1.9,4.1-3.1,8.2-3.8
				c4.1-0.7,4.8-1,4.5-1.6c-0.2-0.3-1.2-0.4-2.5-0.2c-1.2,0.2-3.7,0.5-5.6,0.6s-4.2,0.6-5,1c-1.5,0.7-3.7,2.8-3.7,3.5
				c0,0.2-0.5,0.7-1.1,1.2s-0.9,0.8-0.6,0.8s0.2,0.4-0.2,0.8C333.2,106.2,333.1,106.1,335.8,107.2z"/>
			<path fill="#FFFFFF" d="M77.1,212.2c-0.3-0.1-0.5-0.7-0.3-1.3c0.1-0.6,0-1-0.3-1c-0.9,0-1.1,1.3-0.2,2.3c0.4,0.5,1,0.8,1.1,0.6
				C77.5,212.6,77.4,212.3,77.1,212.2z"/>
			<path fill="#FFFFFF" d="M87.7,217.7c0.7,0,1.3-0.3,1.3-0.5c0-0.6-2-0.5-2.4,0.1v0C86.5,217.6,87,217.7,87.7,217.7z"/>
			<path fill="#FFFFFF" d="M77.2,227.7c-1.1-0.9-3.5-1.1-3.5-0.3c0,0.3,0.3,0.6,0.7,0.8c0.4,0.1,1.4,0.3,2.3,0.3
				C78.1,228.5,78.1,228.4,77.2,227.7z"/>
			<path fill="#FFFFFF" d="M79.2,206.9c-0.1,0.1-0.1,0.7,0.1,1.2c0.2,0.5,0.5,0.8,0.6,0.6c0.1-0.1,0.1-0.7-0.1-1.2
				S79.4,206.7,79.2,206.9z"/>
		</g>
		<path fill="#573392" d="M271,446.4c-111.7,0-202.6-90.9-202.6-202.6S159.3,41.2,271,41.2s202.6,90.9,202.6,202.6
			S382.7,446.4,271,446.4z M271,46.2c-109,0-197.6,88.7-197.6,197.6S162,441.4,271,441.4s197.6-88.7,197.6-197.6S380,46.2,271,46.2z
			"/>
	</g>
	<path fill="#FFDA6E" d="M587.7,108l-9.7,6.1l-9.8,6c-6.5,4-13.1,7.9-19.7,11.8c-13.2,7.8-26.3,15.6-39.6,23.3l-39.8,23l-39.9,22.7
		c-26.7,15-53.4,30-80.3,44.7c-13.5,7.3-26.9,14.7-40.5,21.9L288,278.3c-6.8,3.6-13.6,7.1-20.4,10.6c-13.6,7.1-27.4,13.9-41.1,20.7
		c-13.8,6.7-27.6,13.4-41.6,19.8c-27.8,12.9-56,25.2-84.7,36.4c-14.3,5.6-28.8,10.9-43.5,15.8c-7.4,2.4-14.8,4.6-22.4,6.6
		c-3.8,1-7.6,1.9-11.6,2.6c-2,0.4-4,0.7-6,0.9c-2.1,0.2-4.2,0.4-6.5,0.3c-1.2-0.1-2.4-0.2-3.9-0.6c-0.7-0.2-1.6-0.5-2.5-1
		c-0.9-0.5-2-1.3-2.8-2.6c-0.8-1.3-1.1-2.8-1.1-3.9c0-1.2,0.3-2.1,0.6-2.9c0.6-1.5,1.3-2.6,2-3.6c1.4-1.9,2.8-3.4,4.3-4.9
		c1.5-1.4,3-2.7,4.5-4c6.1-5,12.5-9.4,19-13.6c13-8.4,26.3-16.1,39.8-23.3c-12.3,9.2-24.6,18.3-36.4,27.9c-5.9,4.8-11.7,9.7-17,14.9
		c-1.3,1.3-2.6,2.6-3.7,4c-1.2,1.3-2.2,2.7-3,4c-0.4,0.6-0.6,1.2-0.7,1.5c0,0.1,0,0.2,0-0.1c0-0.2,0-0.8-0.3-1.2
		c-0.3-0.5-0.6-0.7-0.6-0.7c-0.1-0.1,0,0,0.2,0c0.4,0.1,1.1,0.1,1.8,0c1.5-0.1,3.2-0.3,4.9-0.6c1.7-0.3,3.5-0.7,5.2-1.2
		c3.5-0.9,7.1-2,10.6-3.2c7.1-2.3,14.2-4.9,21.3-7.7c7.1-2.7,14.1-5.6,21.1-8.5c7-2.9,14-5.9,21-8.9c55.8-24.4,111-50.7,166-77.2
		l20.6-10l10.3-5c3.4-1.7,6.9-3.3,10.3-5.1c13.6-6.8,27.2-13.8,40.8-20.8l81.6-42l81.7-41.9C533.2,136,560.5,122.2,587.7,108z"/>
	<polygon fill="#FFDA6E" points="613.3,91.8 544.3,111.2 571.7,117.1 563.5,147.8 	"/>
	<path fill="#FFDA6E" d="M454.7,157.4c-10.2,5.2-20.4,10.2-30.7,15.3l-30.8,15c-20.5,10-41.2,19.8-61.8,29.6
		c-20.7,9.7-41.3,19.4-62.1,29l-31.2,14.3c-10.4,4.7-20.8,9.4-31.3,14c10.2-5.2,20.4-10.2,30.7-15.3l30.8-15
		c20.5-10,41.2-19.8,61.8-29.6c20.7-9.7,41.3-19.4,62.1-29l31.2-14.3C433.9,166.7,444.3,162,454.7,157.4z"/>
	<path fill="#FFDA6E" d="M296.3,295c-10.2,5.2-20.4,10.2-30.7,15.3l-30.8,15c-20.5,10-41.2,19.8-61.8,29.6
		c-20.7,9.7-41.3,19.4-62.1,29l-31.2,14.3c-10.4,4.7-20.8,9.4-31.3,14c10.2-5.2,20.4-10.2,30.7-15.3l30.8-15
		c20.5-10,41.2-19.8,61.8-29.6c20.7-9.7,41.3-19.4,62.1-29L265,309C275.4,304.3,285.8,299.6,296.3,295z"/>
	<path fill="#FFDA6E" d="M558.7,181.9c-13.3,6.9-26.6,13.6-40,20.1c-6.7,3.3-13.4,6.5-20.2,9.7l-20.2,9.6l-20.3,9.4
		c-6.8,3.1-13.6,6.2-20.4,9.3c-13.6,6.2-27.3,12.2-41,18c13.3-6.9,26.6-13.6,40-20.1c6.7-3.3,13.4-6.5,20.2-9.7l20.2-9.6l20.3-9.4
		c6.8-3.1,13.6-6.2,20.4-9.3C531.3,193.7,545,187.8,558.7,181.9z"/>
	<path fill="#FFDA6E" d="M438.3,270.8c-13.3,6.9-26.6,13.6-40,20.1c-6.7,3.3-13.4,6.5-20.2,9.7l-20.2,9.6l-20.3,9.4
		c-6.8,3.1-13.6,6.2-20.4,9.3c-13.6,6.2-27.3,12.2-41,18c13.3-6.9,26.6-13.6,40-20.1c6.7-3.3,13.4-6.5,20.2-9.7l20.2-9.6l20.3-9.4
		c6.8-3.1,13.6-6.2,20.4-9.3C410.8,282.7,424.5,276.7,438.3,270.8z"/>
	<path fill="#FFDA6E" d="M220.8,233.5c-13.3,6.9-26.6,13.6-40,20.1c-6.7,3.3-13.4,6.5-20.2,9.7l-20.2,9.6l-20.3,9.4
		c-6.8,3.1-13.6,6.2-20.4,9.3c-13.6,6.2-27.3,12.2-41,18c13.3-6.9,26.6-13.6,40-20.1c6.7-3.3,13.4-6.5,20.2-9.7l20.2-9.6l20.3-9.4
		c6.8-3.1,13.6-6.2,20.4-9.3C193.4,245.3,207,239.3,220.8,233.5z"/>
</g>
<g>
</g>
<g>
</g>
<g>
</g>
<g>
</g>
<g>
</g>
<g>
</g>
<g>
</g>
<g>
</g>
<g>
</g>
<g>
</g>
<g>
</g>
<g>
</g>
<g>
</g>
<g>
</g>
<g>
</g>
</svg>
