<?xml version="1.0" encoding="utf-8"?>
<!-- Generator: Adobe Illustrator 18.0.0, SVG Export Plug-In . SVG Version: 6.00 Build 0)  -->
<!DOCTYPE svg PUBLIC "-//W3C//DTD SVG 1.1//EN" "http://www.w3.org/Graphics/SVG/1.1/DTD/svg11.dtd">
<svg version="1.1" id="Layer_1" xmlns="http://www.w3.org/2000/svg" xmlns:xlink="http://www.w3.org/1999/xlink" x="0px" y="0px"
	 viewBox="0 0 107.6 63.1" enable-background="new 0 0 107.6 63.1" xml:space="preserve">
<g>
	<g>
		<circle fill="#007A6D" cx="12.9" cy="12.9" r="12.9"/>
		<g>
			<path fill="#FFFFFF" d="M10.6,12l4-3.6H8V6.1h10v2.2l-3.9,3.4c2.2,0,4.3,1.6,4.3,4.4c0,2.5-2,4.7-5.4,4.7c-3.3,0-5.3-2.2-5.5-4.6
				l2.6-0.5c0.1,1.7,1.3,2.8,2.9,2.8c1.8,0,2.7-1.1,2.7-2.4c0-1.7-1.3-2.4-2.6-2.4c-0.7,0-1.1,0.1-1.4,0.2L10.6,12z"/>
		</g>
	</g>
	<g>
		<polygon fill="#2368B5" points="41.3,63.1 36.3,27.7 33,44.1 31.5,43.8 36.5,18.7 40.9,49.3 42.2,33 46.1,42.9 54,10.5 57.6,48.8 
			62.7,30.6 64.6,41.1 68.8,17.6 75.2,52.2 82.6,30 84.3,40.5 93.5,25.5 100.3,45.5 98.9,46 93.1,29 83.5,44.8 82.1,36.3 74.8,58.3 
			68.8,26 64.6,49.6 62.4,37.4 56.9,57.2 53.3,19.6 46.5,47.8 43.2,39.6 		"/>
		<g>
			<path fill="#2368B5" d="M25.9,41.6h-0.5c-0.4,0-0.8-0.3-0.8-0.8s0.3-0.8,0.8-0.8h0.5c0.4,0,0.8,0.3,0.8,0.8S26.4,41.6,25.9,41.6z
				"/>
			<path fill="#2368B5" d="M101.1,41.6h-1c-0.4,0-0.8-0.3-0.8-0.8s0.3-0.8,0.8-0.8h1c0.4,0,0.8,0.3,0.8,0.8S101.5,41.6,101.1,41.6z
				 M94.8,41.6h-1c-0.4,0-0.8-0.3-0.8-0.8s0.3-0.8,0.8-0.8h1c0.4,0,0.8,0.3,0.8,0.8S95.3,41.6,94.8,41.6z M88.6,41.6h-1
				c-0.4,0-0.8-0.3-0.8-0.8s0.3-0.8,0.8-0.8h1c0.4,0,0.8,0.3,0.8,0.8S89,41.6,88.6,41.6z M82.3,41.6h-1c-0.4,0-0.8-0.3-0.8-0.8
				s0.3-0.8,0.8-0.8h1c0.4,0,0.8,0.3,0.8,0.8S82.7,41.6,82.3,41.6z M76,41.6h-1c-0.4,0-0.8-0.3-0.8-0.8s0.3-0.8,0.8-0.8h1
				c0.4,0,0.8,0.3,0.8,0.8S76.5,41.6,76,41.6z M69.8,41.6h-1c-0.4,0-0.8-0.3-0.8-0.8s0.3-0.8,0.8-0.8h1c0.4,0,0.8,0.3,0.8,0.8
				S70.2,41.6,69.8,41.6z M63.5,41.6h-1c-0.4,0-0.8-0.3-0.8-0.8s0.3-0.8,0.8-0.8h1c0.4,0,0.8,0.3,0.8,0.8S63.9,41.6,63.5,41.6z
				 M57.3,41.6h-1c-0.4,0-0.8-0.3-0.8-0.8s0.3-0.8,0.8-0.8h1c0.4,0,0.8,0.3,0.8,0.8S57.7,41.6,57.3,41.6z M51,41.6h-1
				c-0.4,0-0.8-0.3-0.8-0.8s0.3-0.8,0.8-0.8h1c0.4,0,0.8,0.3,0.8,0.8S51.4,41.6,51,41.6z M44.7,41.6h-1c-0.4,0-0.8-0.3-0.8-0.8
				s0.3-0.8,0.8-0.8h1c0.4,0,0.8,0.3,0.8,0.8S45.2,41.6,44.7,41.6z M38.5,41.6h-1c-0.4,0-0.8-0.3-0.8-0.8s0.3-0.8,0.8-0.8h1
				c0.4,0,0.8,0.3,0.8,0.8S38.9,41.6,38.5,41.6z M32.2,41.6h-1c-0.4,0-0.8-0.3-0.8-0.8s0.3-0.8,0.8-0.8h1c0.4,0,0.8,0.3,0.8,0.8
				S32.6,41.6,32.2,41.6z"/>
			<path fill="#2368B5" d="M106.8,41.6h-0.5c-0.4,0-0.8-0.3-0.8-0.8s0.3-0.8,0.8-0.8h0.5c0.4,0,0.8,0.3,0.8,0.8
				S107.2,41.6,106.8,41.6z"/>
		</g>
	</g>
</g>
<g>
</g>
<g>
</g>
<g>
</g>
<g>
</g>
<g>
</g>
<g>
</g>
<g>
</g>
<g>
</g>
<g>
</g>
<g>
</g>
<g>
</g>
<g>
</g>
<g>
</g>
<g>
</g>
<g>
</g>
</svg>
