<?xml version="1.0" encoding="utf-8"?>
<!-- Generator: Adobe Illustrator 18.0.0, SVG Export Plug-In . SVG Version: 6.00 Build 0)  -->
<!DOCTYPE svg PUBLIC "-//W3C//DTD SVG 1.1//EN" "http://www.w3.org/Graphics/SVG/1.1/DTD/svg11.dtd">
<svg version="1.1" id="Layer_1" xmlns="http://www.w3.org/2000/svg" xmlns:xlink="http://www.w3.org/1999/xlink" x="0px" y="0px"
	 viewBox="0 0 74.4 91.2" enable-background="new 0 0 74.4 91.2" xml:space="preserve">
<g>
	<g>
		<path fill="#0C56AB" d="M25.7,16.3c6.2,4.5,12.5,6.4,19,5.9v5.1c-6.8-1.3-13.2,0.3-19,5V16.3z"/>
		<polygon fill="#0C56AB" points="44.2,19.4 44.2,30.6 51.6,24.3 		"/>
		<g>
			<g>
				<circle fill="#F7A823" stroke="#594A42" stroke-width="0.3404" stroke-miterlimit="10" cx="9.6" cy="9.6" r="9.4"/>
			</g>
			<g>
				<circle fill="#754C29" cx="9.6" cy="9.6" r="8.8"/>
			</g>
			<g>
				<path fill="#F7A823" d="M9.8,2c0.5,0,0.9,0.4,0.9,0.9v0.2c0.9,0.1,1.8,0.4,2.5,0.8c0.3,0.2,0.6,0.5,0.6,1.1
					c0,0.7-0.5,1.2-1.2,1.2c-0.2,0-0.4-0.1-0.6-0.2c-0.5-0.3-1-0.5-1.5-0.6l0,2.7c2.7,0.7,3.8,1.8,3.8,3.8c0,2-1.5,3.2-3.7,3.5v0.9
					c0,0.5-0.4,0.9-0.9,0.9c-0.5,0-0.9-0.4-0.9-0.9v-0.9c-1.2-0.2-2.4-0.6-3.5-1.2c-0.4-0.2-0.6-0.6-0.6-1.1c0-0.7,0.5-1.2,1.2-1.2
					c0.2,0,0.5,0.1,0.7,0.2c0.7,0.5,1.4,0.8,2.2,1l0-2.8C6.4,9.6,5.2,8.7,5.2,6.6c0-1.9,1.5-3.2,3.7-3.5V2.9C8.9,2.4,9.3,2,9.8,2z
					 M8.9,7.7V5.3C8.1,5.4,7.7,5.8,7.7,6.4C7.7,7,8,7.3,8.9,7.7z M10.6,10.7l0,2.4c0.8-0.1,1.2-0.5,1.2-1.1
					C11.8,11.5,11.5,11.1,10.6,10.7z"/>
			</g>
		</g>
		<g>
			<g>
				<circle fill="#F7A823" stroke="#594A42" stroke-width="0.3404" stroke-miterlimit="10" cx="9.6" cy="33.6" r="9.4"/>
			</g>
			<g>
				<circle fill="#754C29" cx="9.6" cy="33.6" r="8.8"/>
			</g>
			<g>
				<path fill="#F7A823" d="M9.8,26c0.5,0,0.9,0.4,0.9,0.9v0.2c0.9,0.1,1.8,0.4,2.5,0.8c0.3,0.2,0.6,0.5,0.6,1.1
					c0,0.7-0.5,1.2-1.2,1.2c-0.2,0-0.4-0.1-0.6-0.2c-0.5-0.3-1-0.5-1.5-0.6l0,2.7c2.7,0.7,3.8,1.8,3.8,3.8c0,2-1.5,3.2-3.7,3.5v0.9
					c0,0.5-0.4,0.9-0.9,0.9c-0.5,0-0.9-0.4-0.9-0.9v-0.9c-1.2-0.2-2.4-0.6-3.5-1.2c-0.4-0.2-0.6-0.6-0.6-1.1c0-0.7,0.5-1.2,1.2-1.2
					c0.2,0,0.5,0.1,0.7,0.2c0.7,0.5,1.4,0.8,2.2,1l0-2.8c-2.5-0.7-3.8-1.6-3.8-3.7c0-1.9,1.5-3.2,3.7-3.5v-0.2
					C8.9,26.4,9.3,26,9.8,26z M8.9,31.7v-2.4c-0.8,0.1-1.2,0.5-1.2,1.1C7.7,31,8,31.3,8.9,31.7z M10.6,34.8l0,2.4
					c0.8-0.1,1.2-0.5,1.2-1.1C11.8,35.5,11.5,35.1,10.6,34.8z"/>
			</g>
		</g>
		<g>
			<g>
				<circle fill="#F7A823" stroke="#594A42" stroke-width="0.3404" stroke-miterlimit="10" cx="64.8" cy="24.2" r="9.4"/>
			</g>
			<g>
				<circle fill="#754C29" cx="64.8" cy="24.2" r="8.8"/>
			</g>
			<g>
				<path fill="#F7A823" d="M65,16.6c0.5,0,0.9,0.4,0.9,0.9v0.2c0.9,0.1,1.8,0.4,2.5,0.8c0.3,0.2,0.6,0.5,0.6,1.1
					c0,0.7-0.5,1.2-1.2,1.2c-0.2,0-0.4-0.1-0.6-0.2c-0.5-0.3-1-0.5-1.5-0.6l0,2.7c2.7,0.7,3.8,1.8,3.8,3.8s-1.5,3.2-3.7,3.5v0.9
					c0,0.5-0.4,0.9-0.9,0.9c-0.5,0-0.9-0.4-0.9-0.9v-0.9c-1.2-0.2-2.4-0.6-3.5-1.2c-0.4-0.2-0.6-0.6-0.6-1.1c0-0.7,0.5-1.2,1.2-1.2
					c0.2,0,0.5,0.1,0.7,0.2c0.7,0.5,1.4,0.8,2.2,1v-2.8c-2.5-0.7-3.8-1.6-3.8-3.7c0-1.9,1.5-3.2,3.7-3.5v-0.2
					C64.1,17,64.5,16.6,65,16.6z M64.2,22.3v-2.4C63.3,20,63,20.4,63,21C63,21.6,63.2,21.9,64.2,22.3z M65.8,25.3v2.4
					c0.8-0.1,1.2-0.5,1.2-1.1C67.1,26.1,66.8,25.7,65.8,25.3z"/>
			</g>
		</g>
	</g>
	<g>
		<g>
			<polygon fill="#0C56AB" points="8.4,59.3 65.5,59.3 37.4,41.3 			"/>
			<rect x="12.8" y="60.5" fill="#0C56AB" width="4.9" height="22.9"/>
			<rect x="23.5" y="60.5" fill="#0C56AB" width="4.9" height="22.9"/>
			<rect x="46.6" y="60.5" fill="#0C56AB" width="4.9" height="22.9"/>
			<rect x="57.3" y="60.5" fill="#0C56AB" width="4.9" height="22.9"/>
			<polygon fill="#0C56AB" points="64.6,87.3 64.6,85.8 9.3,85.8 9.3,87.3 6.9,87.3 6.9,91.2 67,91.2 67,87.3 			"/>
			<g>
				<path fill="#0C56AB" d="M38,61.8c0.6,0,1.2,0.5,1.2,1.2v0.3c1.2,0.2,2.3,0.5,3.2,1.1c0.4,0.2,0.8,0.7,0.8,1.3
					c0,0.8-0.7,1.5-1.5,1.5c-0.3,0-0.5-0.1-0.8-0.2c-0.6-0.3-1.2-0.6-1.9-0.8v3.4c3.4,0.9,4.8,2.3,4.8,4.8s-1.9,4.1-4.7,4.4V80
					c0,0.6-0.5,1.2-1.2,1.2c-0.6,0-1.2-0.5-1.2-1.2v-1.2c-1.6-0.2-3.1-0.8-4.4-1.6c-0.5-0.3-0.8-0.7-0.8-1.3c0-0.9,0.7-1.5,1.5-1.5
					c0.3,0,0.6,0.1,0.9,0.3c0.9,0.6,1.8,1,2.9,1.2v-3.5c-3.2-0.9-4.8-2.1-4.8-4.7c0-2.5,1.9-4.1,4.7-4.4V63
					C36.8,62.3,37.3,61.8,38,61.8z M36.9,69.1v-3c-1.1,0.2-1.5,0.7-1.5,1.4C35.4,68.1,35.7,68.6,36.9,69.1z M39,73v3.1
					c1-0.2,1.6-0.6,1.6-1.5C40.6,73.9,40.2,73.4,39,73z"/>
			</g>
		</g>
	</g>
</g>
<g>
</g>
<g>
</g>
<g>
</g>
<g>
</g>
<g>
</g>
<g>
</g>
<g>
</g>
<g>
</g>
<g>
</g>
<g>
</g>
<g>
</g>
<g>
</g>
<g>
</g>
<g>
</g>
<g>
</g>
</svg>
