<?xml version="1.0" encoding="utf-8"?>
<!-- Generator: Adobe Illustrator 18.0.0, SVG Export Plug-In . SVG Version: 6.00 Build 0)  -->
<!DOCTYPE svg PUBLIC "-//W3C//DTD SVG 1.1//EN" "http://www.w3.org/Graphics/SVG/1.1/DTD/svg11.dtd">
<svg version="1.1" id="Layer_1" xmlns="http://www.w3.org/2000/svg" xmlns:xlink="http://www.w3.org/1999/xlink" x="0px" y="0px"
	 viewBox="0 0 128.9 77.3" enable-background="new 0 0 128.9 77.3" xml:space="preserve">
<g>
	<g>
		<defs>
			<path id="SVGID_1_" d="M47.9,17.6c3.8-3.8,9.1-6.2,14.9-6.2c11.6,0,21.1,9.4,21.1,21.1s-9.4,21.1-21.1,21.1s-21.1-9.4-21.1-21.1
				C41.7,26.7,44.1,21.5,47.9,17.6"/>
		</defs>
		<clipPath id="SVGID_2_">
			<use xlink:href="#SVGID_1_"  overflow="visible"/>
		</clipPath>
		<circle clip-path="url(#SVGID_2_)" fill="#808285" cx="62.8" cy="32.6" r="23.6"/>
		<circle clip-path="url(#SVGID_2_)" fill="#573392" cx="59.5" cy="33.9" r="23.6"/>
		<g clip-path="url(#SVGID_2_)">
			<g>
				<g>
					<rect x="65.8" y="44.2" fill="#FFDA6E" width="13.3" height="2.1"/>
					<rect x="65.8" y="46" fill="#CC9D58" width="13.3" height="0.3"/>
					<g>
						<rect x="66.3" y="44.2" fill="#8B5E3C" width="0.3" height="2.1"/>
						<rect x="67.4" y="44.2" fill="#8B5E3C" width="0.3" height="2.1"/>
						<rect x="68.5" y="44.2" fill="#8B5E3C" width="0.3" height="2.1"/>
						<rect x="69.6" y="44.2" fill="#8B5E3C" width="0.3" height="2.1"/>
						<rect x="70.7" y="44.2" fill="#8B5E3C" width="0.3" height="2.1"/>
						<rect x="71.8" y="44.2" fill="#8B5E3C" width="0.3" height="2.1"/>
						<rect x="72.9" y="44.2" fill="#8B5E3C" width="0.3" height="2.1"/>
						<rect x="73.9" y="44.2" fill="#8B5E3C" width="0.3" height="2.1"/>
						<rect x="75" y="44.2" fill="#8B5E3C" width="0.3" height="2.1"/>
						<rect x="76.1" y="44.2" fill="#8B5E3C" width="0.3" height="2.1"/>
						<rect x="77.2" y="44.2" fill="#8B5E3C" width="0.3" height="2.1"/>
						<rect x="78.3" y="44.2" fill="#8B5E3C" width="0.3" height="2.1"/>
					</g>
					<rect x="65.8" y="44.2" fill="#A7A9AC" width="6.7" height="2.1"/>
				</g>
				<g>
					<rect x="65.8" y="41.7" fill="#FFDA6E" width="13.3" height="2.1"/>
					<rect x="65.8" y="43.6" fill="#CC9D58" width="13.3" height="0.3"/>
					<g>
						<rect x="66.3" y="41.7" fill="#8B5E3C" width="0.3" height="2.1"/>
						<rect x="67.4" y="41.7" fill="#8B5E3C" width="0.3" height="2.1"/>
						<rect x="68.5" y="41.7" fill="#8B5E3C" width="0.3" height="2.1"/>
						<rect x="69.6" y="41.7" fill="#8B5E3C" width="0.3" height="2.1"/>
						<rect x="70.7" y="41.7" fill="#8B5E3C" width="0.3" height="2.1"/>
						<rect x="71.8" y="41.7" fill="#8B5E3C" width="0.3" height="2.1"/>
						<rect x="72.9" y="41.7" fill="#8B5E3C" width="0.3" height="2.1"/>
						<rect x="73.9" y="41.7" fill="#8B5E3C" width="0.3" height="2.1"/>
						<rect x="75" y="41.7" fill="#8B5E3C" width="0.3" height="2.1"/>
						<rect x="76.1" y="41.7" fill="#8B5E3C" width="0.3" height="2.1"/>
						<rect x="77.2" y="41.7" fill="#8B5E3C" width="0.3" height="2.1"/>
						<rect x="78.3" y="41.7" fill="#8B5E3C" width="0.3" height="2.1"/>
					</g>
					<rect x="65.8" y="41.7" fill="#A7A9AC" width="6.7" height="2.1"/>
				</g>
				<g>
					<rect x="65.8" y="39.3" fill="#FFDA6E" width="13.3" height="2.1"/>
					<rect x="65.8" y="41.1" fill="#CC9D58" width="13.3" height="0.3"/>
					<g>
						<rect x="66.3" y="39.3" fill="#8B5E3C" width="0.3" height="2.1"/>
						<rect x="67.4" y="39.3" fill="#8B5E3C" width="0.3" height="2.1"/>
						<rect x="68.5" y="39.3" fill="#8B5E3C" width="0.3" height="2.1"/>
						<rect x="69.6" y="39.3" fill="#8B5E3C" width="0.3" height="2.1"/>
						<rect x="70.7" y="39.3" fill="#8B5E3C" width="0.3" height="2.1"/>
						<rect x="71.8" y="39.3" fill="#8B5E3C" width="0.3" height="2.1"/>
						<rect x="72.9" y="39.3" fill="#8B5E3C" width="0.3" height="2.1"/>
						<rect x="73.9" y="39.3" fill="#8B5E3C" width="0.3" height="2.1"/>
						<rect x="75" y="39.3" fill="#8B5E3C" width="0.3" height="2.1"/>
						<rect x="76.1" y="39.3" fill="#8B5E3C" width="0.3" height="2.1"/>
						<rect x="77.2" y="39.3" fill="#8B5E3C" width="0.3" height="2.1"/>
						<rect x="78.3" y="39.3" fill="#8B5E3C" width="0.3" height="2.1"/>
					</g>
					<rect x="65.8" y="39.3" fill="#A7A9AC" width="6.7" height="2.1"/>
				</g>
				<g>
					<rect x="65.8" y="36.8" fill="#FFDA6E" width="13.3" height="2.1"/>
					<rect x="65.8" y="38.7" fill="#CC9D58" width="13.3" height="0.3"/>
					<g>
						<rect x="66.3" y="36.8" fill="#8B5E3C" width="0.3" height="2.1"/>
						<rect x="67.4" y="36.8" fill="#8B5E3C" width="0.3" height="2.1"/>
						<rect x="68.5" y="36.8" fill="#8B5E3C" width="0.3" height="2.1"/>
						<rect x="69.6" y="36.8" fill="#8B5E3C" width="0.3" height="2.1"/>
						<rect x="70.7" y="36.8" fill="#8B5E3C" width="0.3" height="2.1"/>
						<rect x="71.8" y="36.8" fill="#8B5E3C" width="0.3" height="2.1"/>
						<rect x="72.9" y="36.8" fill="#8B5E3C" width="0.3" height="2.1"/>
						<rect x="73.9" y="36.8" fill="#8B5E3C" width="0.3" height="2.1"/>
						<rect x="75" y="36.8" fill="#8B5E3C" width="0.3" height="2.1"/>
						<rect x="76.1" y="36.8" fill="#8B5E3C" width="0.3" height="2.1"/>
						<rect x="77.2" y="36.8" fill="#8B5E3C" width="0.3" height="2.1"/>
						<rect x="78.3" y="36.8" fill="#8B5E3C" width="0.3" height="2.1"/>
					</g>
					<rect x="65.8" y="36.8" fill="#A7A9AC" width="6.7" height="2.1"/>
				</g>
				<g>
					<rect x="65.8" y="34.4" fill="#FFDA6E" width="13.3" height="2.1"/>
					<rect x="65.8" y="36.2" fill="#CC9D58" width="13.3" height="0.3"/>
					<g>
						<rect x="66.3" y="34.3" fill="#8B5E3C" width="0.3" height="2.1"/>
						<rect x="67.4" y="34.3" fill="#8B5E3C" width="0.3" height="2.1"/>
						<rect x="68.5" y="34.3" fill="#8B5E3C" width="0.3" height="2.1"/>
						<rect x="69.6" y="34.3" fill="#8B5E3C" width="0.3" height="2.1"/>
						<rect x="70.7" y="34.3" fill="#8B5E3C" width="0.3" height="2.1"/>
						<rect x="71.8" y="34.3" fill="#8B5E3C" width="0.3" height="2.1"/>
						<rect x="72.9" y="34.3" fill="#8B5E3C" width="0.3" height="2.1"/>
						<rect x="73.9" y="34.3" fill="#8B5E3C" width="0.3" height="2.1"/>
						<rect x="75" y="34.3" fill="#8B5E3C" width="0.3" height="2.1"/>
						<rect x="76.1" y="34.3" fill="#8B5E3C" width="0.3" height="2.1"/>
						<rect x="77.2" y="34.3" fill="#8B5E3C" width="0.3" height="2.1"/>
						<rect x="78.3" y="34.3" fill="#8B5E3C" width="0.3" height="2.1"/>
					</g>
					<rect x="65.8" y="34.4" fill="#A7A9AC" width="6.7" height="2.1"/>
				</g>
				<g>
					<rect x="65.8" y="46.6" fill="#FFDA6E" width="13.3" height="2.1"/>
					<rect x="65.8" y="48.5" fill="#CC9D58" width="13.3" height="0.3"/>
					<g>
						<rect x="66.3" y="46.6" fill="#8B5E3C" width="0.3" height="2.1"/>
						<rect x="67.4" y="46.6" fill="#8B5E3C" width="0.3" height="2.1"/>
						<rect x="68.5" y="46.6" fill="#8B5E3C" width="0.3" height="2.1"/>
						<rect x="69.6" y="46.6" fill="#8B5E3C" width="0.3" height="2.1"/>
						<rect x="70.7" y="46.6" fill="#8B5E3C" width="0.3" height="2.1"/>
						<rect x="71.8" y="46.6" fill="#8B5E3C" width="0.3" height="2.1"/>
						<rect x="72.9" y="46.6" fill="#8B5E3C" width="0.3" height="2.1"/>
						<rect x="73.9" y="46.6" fill="#8B5E3C" width="0.3" height="2.1"/>
						<rect x="75" y="46.6" fill="#8B5E3C" width="0.3" height="2.1"/>
						<rect x="76.1" y="46.6" fill="#8B5E3C" width="0.3" height="2.1"/>
						<rect x="77.2" y="46.6" fill="#8B5E3C" width="0.3" height="2.1"/>
						<rect x="78.3" y="46.6" fill="#8B5E3C" width="0.3" height="2.1"/>
					</g>
					<rect x="65.8" y="46.6" fill="#A7A9AC" width="6.7" height="2.1"/>
				</g>
				<g>
					<rect x="65.8" y="49.1" fill="#FFDA6E" width="13.3" height="2.1"/>
					<rect x="65.8" y="50.9" fill="#CC9D58" width="13.3" height="0.3"/>
					<g>
						<rect x="66.3" y="49.1" fill="#8B5E3C" width="0.3" height="2.1"/>
						<rect x="67.4" y="49.1" fill="#8B5E3C" width="0.3" height="2.1"/>
						<rect x="68.5" y="49.1" fill="#8B5E3C" width="0.3" height="2.1"/>
						<rect x="69.6" y="49.1" fill="#8B5E3C" width="0.3" height="2.1"/>
						<rect x="70.7" y="49.1" fill="#8B5E3C" width="0.3" height="2.1"/>
						<rect x="71.8" y="49.1" fill="#8B5E3C" width="0.3" height="2.1"/>
						<rect x="72.9" y="49.1" fill="#8B5E3C" width="0.3" height="2.1"/>
						<rect x="73.9" y="49.1" fill="#8B5E3C" width="0.3" height="2.1"/>
						<rect x="75" y="49.1" fill="#8B5E3C" width="0.3" height="2.1"/>
						<rect x="76.1" y="49.1" fill="#8B5E3C" width="0.3" height="2.1"/>
						<rect x="77.2" y="49.1" fill="#8B5E3C" width="0.3" height="2.1"/>
						<rect x="78.3" y="49.1" fill="#8B5E3C" width="0.3" height="2.1"/>
					</g>
					<rect x="65.8" y="49.1" fill="#A7A9AC" width="6.7" height="2.1"/>
				</g>
				<g>
					<rect x="65.8" y="51.5" fill="#FFDA6E" width="13.3" height="2.1"/>
					<rect x="65.8" y="53.4" fill="#CC9D58" width="13.3" height="0.3"/>
					<g>
						<rect x="66.3" y="51.5" fill="#8B5E3C" width="0.3" height="2.1"/>
						<rect x="67.4" y="51.5" fill="#8B5E3C" width="0.3" height="2.1"/>
						<rect x="68.5" y="51.5" fill="#8B5E3C" width="0.3" height="2.1"/>
						<rect x="69.6" y="51.5" fill="#8B5E3C" width="0.3" height="2.1"/>
						<rect x="70.7" y="51.5" fill="#8B5E3C" width="0.3" height="2.1"/>
						<rect x="71.8" y="51.5" fill="#8B5E3C" width="0.3" height="2.1"/>
						<rect x="72.9" y="51.5" fill="#8B5E3C" width="0.3" height="2.1"/>
						<rect x="73.9" y="51.5" fill="#8B5E3C" width="0.3" height="2.1"/>
						<rect x="75" y="51.5" fill="#8B5E3C" width="0.3" height="2.1"/>
						<rect x="76.1" y="51.5" fill="#8B5E3C" width="0.3" height="2.1"/>
						<rect x="77.2" y="51.5" fill="#8B5E3C" width="0.3" height="2.1"/>
						<rect x="78.3" y="51.5" fill="#8B5E3C" width="0.3" height="2.1"/>
					</g>
					<rect x="65.8" y="51.5" fill="#A7A9AC" width="6.7" height="2.1"/>
				</g>
			</g>
			<g>
				<g>
					<rect x="46.3" y="44.2" fill="#FFDA6E" width="13.3" height="2.1"/>
					<rect x="46.3" y="46" fill="#CC9D58" width="13.3" height="0.3"/>
					<g>
						<rect x="46.8" y="44.2" fill="#8B5E3C" width="0.3" height="2.1"/>
						<rect x="47.9" y="44.2" fill="#8B5E3C" width="0.3" height="2.1"/>
						<rect x="49" y="44.2" fill="#8B5E3C" width="0.3" height="2.1"/>
						<rect x="50.1" y="44.2" fill="#8B5E3C" width="0.3" height="2.1"/>
						<rect x="51.2" y="44.2" fill="#8B5E3C" width="0.3" height="2.1"/>
						<rect x="52.3" y="44.2" fill="#8B5E3C" width="0.3" height="2.1"/>
						<rect x="53.4" y="44.2" fill="#8B5E3C" width="0.3" height="2.1"/>
						<rect x="54.5" y="44.2" fill="#8B5E3C" width="0.3" height="2.1"/>
						<rect x="55.6" y="44.2" fill="#8B5E3C" width="0.3" height="2.1"/>
						<rect x="56.6" y="44.2" fill="#8B5E3C" width="0.3" height="2.1"/>
						<rect x="57.7" y="44.2" fill="#8B5E3C" width="0.3" height="2.1"/>
						<rect x="58.8" y="44.2" fill="#8B5E3C" width="0.3" height="2.1"/>
					</g>
					<rect x="46.3" y="44.2" fill="#A7A9AC" width="6.7" height="2.1"/>
				</g>
				<g>
					<rect x="46.3" y="41.7" fill="#FFDA6E" width="13.3" height="2.1"/>
					<rect x="46.3" y="43.6" fill="#CC9D58" width="13.3" height="0.3"/>
					<g>
						<rect x="46.8" y="41.7" fill="#8B5E3C" width="0.3" height="2.1"/>
						<rect x="47.9" y="41.7" fill="#8B5E3C" width="0.3" height="2.1"/>
						<rect x="49" y="41.7" fill="#8B5E3C" width="0.3" height="2.1"/>
						<rect x="50.1" y="41.7" fill="#8B5E3C" width="0.3" height="2.1"/>
						<rect x="51.2" y="41.7" fill="#8B5E3C" width="0.3" height="2.1"/>
						<rect x="52.3" y="41.7" fill="#8B5E3C" width="0.3" height="2.1"/>
						<rect x="53.4" y="41.7" fill="#8B5E3C" width="0.3" height="2.1"/>
						<rect x="54.5" y="41.7" fill="#8B5E3C" width="0.3" height="2.1"/>
						<rect x="55.6" y="41.7" fill="#8B5E3C" width="0.3" height="2.1"/>
						<rect x="56.6" y="41.7" fill="#8B5E3C" width="0.3" height="2.1"/>
						<rect x="57.7" y="41.7" fill="#8B5E3C" width="0.3" height="2.1"/>
						<rect x="58.8" y="41.7" fill="#8B5E3C" width="0.3" height="2.1"/>
					</g>
					<rect x="46.3" y="41.7" fill="#A7A9AC" width="6.7" height="2.1"/>
				</g>
				<g>
					<rect x="46.3" y="39.3" fill="#FFDA6E" width="13.3" height="2.1"/>
					<rect x="46.3" y="41.1" fill="#CC9D58" width="13.3" height="0.3"/>
					<g>
						<rect x="46.8" y="39.3" fill="#8B5E3C" width="0.3" height="2.1"/>
						<rect x="47.9" y="39.3" fill="#8B5E3C" width="0.3" height="2.1"/>
						<rect x="49" y="39.3" fill="#8B5E3C" width="0.3" height="2.1"/>
						<rect x="50.1" y="39.3" fill="#8B5E3C" width="0.3" height="2.1"/>
						<rect x="51.2" y="39.3" fill="#8B5E3C" width="0.3" height="2.1"/>
						<rect x="52.3" y="39.3" fill="#8B5E3C" width="0.3" height="2.1"/>
						<rect x="53.4" y="39.3" fill="#8B5E3C" width="0.3" height="2.1"/>
						<rect x="54.5" y="39.3" fill="#8B5E3C" width="0.3" height="2.1"/>
						<rect x="55.6" y="39.3" fill="#8B5E3C" width="0.3" height="2.1"/>
						<rect x="56.6" y="39.3" fill="#8B5E3C" width="0.3" height="2.1"/>
						<rect x="57.7" y="39.3" fill="#8B5E3C" width="0.3" height="2.1"/>
						<rect x="58.8" y="39.3" fill="#8B5E3C" width="0.3" height="2.1"/>
					</g>
					<rect x="46.3" y="39.3" fill="#A7A9AC" width="6.7" height="2.1"/>
				</g>
				<g>
					<rect x="46.3" y="36.8" fill="#FFDA6E" width="13.3" height="2.1"/>
					<rect x="46.3" y="38.7" fill="#CC9D58" width="13.3" height="0.3"/>
					<g>
						<rect x="46.8" y="36.8" fill="#8B5E3C" width="0.3" height="2.1"/>
						<rect x="47.9" y="36.8" fill="#8B5E3C" width="0.3" height="2.1"/>
						<rect x="49" y="36.8" fill="#8B5E3C" width="0.3" height="2.1"/>
						<rect x="50.1" y="36.8" fill="#8B5E3C" width="0.3" height="2.1"/>
						<rect x="51.2" y="36.8" fill="#8B5E3C" width="0.3" height="2.1"/>
						<rect x="52.3" y="36.8" fill="#8B5E3C" width="0.3" height="2.1"/>
						<rect x="53.4" y="36.8" fill="#8B5E3C" width="0.3" height="2.1"/>
						<rect x="54.5" y="36.8" fill="#8B5E3C" width="0.3" height="2.1"/>
						<rect x="55.6" y="36.8" fill="#8B5E3C" width="0.3" height="2.1"/>
						<rect x="56.6" y="36.8" fill="#8B5E3C" width="0.3" height="2.1"/>
						<rect x="57.7" y="36.8" fill="#8B5E3C" width="0.3" height="2.1"/>
						<rect x="58.8" y="36.8" fill="#8B5E3C" width="0.3" height="2.1"/>
					</g>
					<rect x="46.3" y="36.8" fill="#A7A9AC" width="6.7" height="2.1"/>
				</g>
				<g>
					<rect x="46.3" y="34.4" fill="#FFDA6E" width="13.3" height="2.1"/>
					<rect x="46.3" y="36.2" fill="#CC9D58" width="13.3" height="0.3"/>
					<g>
						<rect x="46.8" y="34.3" fill="#8B5E3C" width="0.3" height="2.1"/>
						<rect x="47.9" y="34.3" fill="#8B5E3C" width="0.3" height="2.1"/>
						<rect x="49" y="34.3" fill="#8B5E3C" width="0.3" height="2.1"/>
						<rect x="50.1" y="34.3" fill="#8B5E3C" width="0.3" height="2.1"/>
						<rect x="51.2" y="34.3" fill="#8B5E3C" width="0.3" height="2.1"/>
						<rect x="52.3" y="34.3" fill="#8B5E3C" width="0.3" height="2.1"/>
						<rect x="53.4" y="34.3" fill="#8B5E3C" width="0.3" height="2.1"/>
						<rect x="54.5" y="34.3" fill="#8B5E3C" width="0.3" height="2.1"/>
						<rect x="55.6" y="34.3" fill="#8B5E3C" width="0.3" height="2.1"/>
						<rect x="56.6" y="34.3" fill="#8B5E3C" width="0.3" height="2.1"/>
						<rect x="57.7" y="34.3" fill="#8B5E3C" width="0.3" height="2.1"/>
						<rect x="58.8" y="34.3" fill="#8B5E3C" width="0.3" height="2.1"/>
					</g>
					<rect x="46.3" y="34.4" fill="#A7A9AC" width="6.7" height="2.1"/>
				</g>
				<g>
					<rect x="46.3" y="31.9" fill="#FFDA6E" width="13.3" height="2.1"/>
					<rect x="46.3" y="33.7" fill="#CC9D58" width="13.3" height="0.3"/>
					<g>
						<rect x="46.8" y="31.9" fill="#8B5E3C" width="0.3" height="2.1"/>
						<rect x="47.9" y="31.9" fill="#8B5E3C" width="0.3" height="2.1"/>
						<rect x="49" y="31.9" fill="#8B5E3C" width="0.3" height="2.1"/>
						<rect x="50.1" y="31.9" fill="#8B5E3C" width="0.3" height="2.1"/>
						<rect x="51.2" y="31.9" fill="#8B5E3C" width="0.3" height="2.1"/>
						<rect x="52.3" y="31.9" fill="#8B5E3C" width="0.3" height="2.1"/>
						<rect x="53.4" y="31.9" fill="#8B5E3C" width="0.3" height="2.1"/>
						<rect x="54.5" y="31.9" fill="#8B5E3C" width="0.3" height="2.1"/>
						<rect x="55.6" y="31.9" fill="#8B5E3C" width="0.3" height="2.1"/>
						<rect x="56.6" y="31.9" fill="#8B5E3C" width="0.3" height="2.1"/>
						<rect x="57.7" y="31.9" fill="#8B5E3C" width="0.3" height="2.1"/>
						<rect x="58.8" y="31.9" fill="#8B5E3C" width="0.3" height="2.1"/>
					</g>
					<rect x="46.3" y="31.9" fill="#A7A9AC" width="6.7" height="2.1"/>
				</g>
				<g>
					<rect x="46.3" y="29.4" fill="#FFDA6E" width="13.3" height="2.1"/>
					<rect x="46.3" y="31.2" fill="#CC9D58" width="13.3" height="0.3"/>
					<g>
						<rect x="46.8" y="29.4" fill="#8B5E3C" width="0.3" height="2.1"/>
						<rect x="47.9" y="29.4" fill="#8B5E3C" width="0.3" height="2.1"/>
						<rect x="49" y="29.4" fill="#8B5E3C" width="0.3" height="2.1"/>
						<rect x="50.1" y="29.4" fill="#8B5E3C" width="0.3" height="2.1"/>
						<rect x="51.2" y="29.4" fill="#8B5E3C" width="0.3" height="2.1"/>
						<rect x="52.3" y="29.4" fill="#8B5E3C" width="0.3" height="2.1"/>
						<rect x="53.4" y="29.4" fill="#8B5E3C" width="0.3" height="2.1"/>
						<rect x="54.5" y="29.4" fill="#8B5E3C" width="0.3" height="2.1"/>
						<rect x="55.6" y="29.4" fill="#8B5E3C" width="0.3" height="2.1"/>
						<rect x="56.6" y="29.4" fill="#8B5E3C" width="0.3" height="2.1"/>
						<rect x="57.7" y="29.4" fill="#8B5E3C" width="0.3" height="2.1"/>
						<rect x="58.8" y="29.4" fill="#8B5E3C" width="0.3" height="2.1"/>
					</g>
					<rect x="46.3" y="29.4" fill="#A7A9AC" width="6.7" height="2.1"/>
				</g>
				<g>
					<rect x="46.3" y="46.6" fill="#FFDA6E" width="13.3" height="2.1"/>
					<rect x="46.3" y="48.5" fill="#CC9D58" width="13.3" height="0.3"/>
					<g>
						<rect x="46.8" y="46.6" fill="#8B5E3C" width="0.3" height="2.1"/>
						<rect x="47.9" y="46.6" fill="#8B5E3C" width="0.3" height="2.1"/>
						<rect x="49" y="46.6" fill="#8B5E3C" width="0.3" height="2.1"/>
						<rect x="50.1" y="46.6" fill="#8B5E3C" width="0.3" height="2.1"/>
						<rect x="51.2" y="46.6" fill="#8B5E3C" width="0.3" height="2.1"/>
						<rect x="52.3" y="46.6" fill="#8B5E3C" width="0.3" height="2.1"/>
						<rect x="53.4" y="46.6" fill="#8B5E3C" width="0.3" height="2.1"/>
						<rect x="54.5" y="46.6" fill="#8B5E3C" width="0.3" height="2.1"/>
						<rect x="55.6" y="46.6" fill="#8B5E3C" width="0.3" height="2.1"/>
						<rect x="56.6" y="46.6" fill="#8B5E3C" width="0.3" height="2.1"/>
						<rect x="57.7" y="46.6" fill="#8B5E3C" width="0.3" height="2.1"/>
						<rect x="58.8" y="46.6" fill="#8B5E3C" width="0.3" height="2.1"/>
					</g>
					<rect x="46.3" y="46.6" fill="#A7A9AC" width="6.7" height="2.1"/>
				</g>
				<g>
					<rect x="46.3" y="49.1" fill="#FFDA6E" width="13.3" height="2.1"/>
					<rect x="46.3" y="50.9" fill="#CC9D58" width="13.3" height="0.3"/>
					<g>
						<rect x="46.8" y="49.1" fill="#8B5E3C" width="0.3" height="2.1"/>
						<rect x="47.9" y="49.1" fill="#8B5E3C" width="0.3" height="2.1"/>
						<rect x="49" y="49.1" fill="#8B5E3C" width="0.3" height="2.1"/>
						<rect x="50.1" y="49.1" fill="#8B5E3C" width="0.3" height="2.1"/>
						<rect x="51.2" y="49.1" fill="#8B5E3C" width="0.3" height="2.1"/>
						<rect x="52.3" y="49.1" fill="#8B5E3C" width="0.3" height="2.1"/>
						<rect x="53.4" y="49.1" fill="#8B5E3C" width="0.3" height="2.1"/>
						<rect x="54.5" y="49.1" fill="#8B5E3C" width="0.3" height="2.1"/>
						<rect x="55.6" y="49.1" fill="#8B5E3C" width="0.3" height="2.1"/>
						<rect x="56.6" y="49.1" fill="#8B5E3C" width="0.3" height="2.1"/>
						<rect x="57.7" y="49.1" fill="#8B5E3C" width="0.3" height="2.1"/>
						<rect x="58.8" y="49.1" fill="#8B5E3C" width="0.3" height="2.1"/>
					</g>
					<rect x="46.3" y="49.1" fill="#A7A9AC" width="6.7" height="2.1"/>
				</g>
				<g>
					<rect x="46.3" y="51.5" fill="#FFDA6E" width="13.3" height="2.1"/>
					<rect x="46.3" y="53.4" fill="#CC9D58" width="13.3" height="0.3"/>
					<g>
						<rect x="46.8" y="51.5" fill="#8B5E3C" width="0.3" height="2.1"/>
						<rect x="47.9" y="51.5" fill="#8B5E3C" width="0.3" height="2.1"/>
						<rect x="49" y="51.5" fill="#8B5E3C" width="0.3" height="2.1"/>
						<rect x="50.1" y="51.5" fill="#8B5E3C" width="0.3" height="2.1"/>
						<rect x="51.2" y="51.5" fill="#8B5E3C" width="0.3" height="2.1"/>
						<rect x="52.3" y="51.5" fill="#8B5E3C" width="0.3" height="2.1"/>
						<rect x="53.4" y="51.5" fill="#8B5E3C" width="0.3" height="2.1"/>
						<rect x="54.5" y="51.5" fill="#8B5E3C" width="0.3" height="2.1"/>
						<rect x="55.6" y="51.5" fill="#8B5E3C" width="0.3" height="2.1"/>
						<rect x="56.6" y="51.5" fill="#8B5E3C" width="0.3" height="2.1"/>
						<rect x="57.7" y="51.5" fill="#8B5E3C" width="0.3" height="2.1"/>
						<rect x="58.8" y="51.5" fill="#8B5E3C" width="0.3" height="2.1"/>
					</g>
					<rect x="46.3" y="51.5" fill="#A7A9AC" width="6.7" height="2.1"/>
				</g>
			</g>
			<g>
				<g>
					<circle fill="#FFDA6E" cx="63.4" cy="31.1" r="7"/>
					<path fill="#58595B" d="M63.4,38.3c-3.9,0-7.1-3.2-7.1-7.1c0-3.9,3.2-7.1,7.1-7.1c3.9,0,7.1,3.2,7.1,7.1
						C70.6,35.1,67.4,38.3,63.4,38.3z M63.4,24.3c-3.8,0-6.8,3.1-6.8,6.8c0,3.8,3.1,6.8,6.8,6.8c3.8,0,6.8-3.1,6.8-6.8
						C70.3,27.4,67.2,24.3,63.4,24.3z"/>
				</g>
				<g>
					<circle fill="#414042" cx="63.4" cy="31.1" r="6.1"/>
					<path fill="#6D6E71" d="M63.4,37.4c-3.4,0-6.2-2.8-6.2-6.2c0-3.4,2.8-6.2,6.2-6.2c3.4,0,6.2,2.8,6.2,6.2
						C69.7,34.6,66.9,37.4,63.4,37.4z M63.4,25.2c-3.3,0-5.9,2.7-5.9,5.9s2.7,5.9,5.9,5.9c3.3,0,5.9-2.7,5.9-5.9
						S66.7,25.2,63.4,25.2z"/>
				</g>
				<path fill="#58595B" d="M63.4,37.8c-3.7,0-6.7-3-6.7-6.7s3-6.7,6.7-6.7c3.7,0,6.7,3,6.7,6.7S67.1,37.8,63.4,37.8z M63.4,24.6
					c-3.6,0-6.5,2.9-6.5,6.5s2.9,6.5,6.5,6.5c3.6,0,6.5-2.9,6.5-6.5S67,24.6,63.4,24.6z"/>
				<g>
					<path fill="#F7A823" d="M65,29.1c-0.4-0.4-0.8-0.6-1.3-0.6c-0.6,0-1,0.3-1,0.9c0,1.3,3.1,1.1,3.1,3.4c0,1.1-0.6,2-1.8,2.2v1.2
						h-1V35c-0.7-0.1-1.5-0.4-2-0.9l0.7-1c0.6,0.4,1.1,0.7,1.7,0.7c0.7,0,1.1-0.3,1.1-0.9c0-1.4-3.1-1.3-3.1-3.4
						c0-1.1,0.7-1.9,1.8-2.1v-1.2h1v1.2c0.7,0.1,1.3,0.5,1.7,0.9L65,29.1z"/>
				</g>
			</g>
			<g>
				<g>
					<rect x="56.5" y="44.2" fill="#FFDA6E" width="13.3" height="2.1"/>
					<rect x="56.5" y="46" fill="#CC9D58" width="13.3" height="0.3"/>
					<g>
						<rect x="57.1" y="44.2" fill="#8B5E3C" width="0.3" height="2.1"/>
						<rect x="58.1" y="44.2" fill="#8B5E3C" width="0.3" height="2.1"/>
						<rect x="59.2" y="44.2" fill="#8B5E3C" width="0.3" height="2.1"/>
						<rect x="60.3" y="44.2" fill="#8B5E3C" width="0.3" height="2.1"/>
						<rect x="61.4" y="44.2" fill="#8B5E3C" width="0.3" height="2.1"/>
						<rect x="62.5" y="44.2" fill="#8B5E3C" width="0.3" height="2.1"/>
						<rect x="63.6" y="44.2" fill="#8B5E3C" width="0.3" height="2.1"/>
						<rect x="64.7" y="44.2" fill="#8B5E3C" width="0.3" height="2.1"/>
						<rect x="65.8" y="44.2" fill="#8B5E3C" width="0.3" height="2.1"/>
						<rect x="66.9" y="44.2" fill="#8B5E3C" width="0.3" height="2.1"/>
						<rect x="68" y="44.2" fill="#8B5E3C" width="0.3" height="2.1"/>
						<rect x="69" y="44.2" fill="#8B5E3C" width="0.3" height="2.1"/>
					</g>
					<rect x="56.5" y="44.2" fill="#A7A9AC" width="6.7" height="2.1"/>
				</g>
				<g>
					<rect x="56.5" y="46.6" fill="#FFDA6E" width="13.3" height="2.1"/>
					<rect x="56.5" y="48.5" fill="#CC9D58" width="13.3" height="0.3"/>
					<g>
						<rect x="57.1" y="46.6" fill="#8B5E3C" width="0.3" height="2.1"/>
						<rect x="58.1" y="46.6" fill="#8B5E3C" width="0.3" height="2.1"/>
						<rect x="59.2" y="46.6" fill="#8B5E3C" width="0.3" height="2.1"/>
						<rect x="60.3" y="46.6" fill="#8B5E3C" width="0.3" height="2.1"/>
						<rect x="61.4" y="46.6" fill="#8B5E3C" width="0.3" height="2.1"/>
						<rect x="62.5" y="46.6" fill="#8B5E3C" width="0.3" height="2.1"/>
						<rect x="63.6" y="46.6" fill="#8B5E3C" width="0.3" height="2.1"/>
						<rect x="64.7" y="46.6" fill="#8B5E3C" width="0.3" height="2.1"/>
						<rect x="65.8" y="46.6" fill="#8B5E3C" width="0.3" height="2.1"/>
						<rect x="66.9" y="46.6" fill="#8B5E3C" width="0.3" height="2.1"/>
						<rect x="68" y="46.6" fill="#8B5E3C" width="0.3" height="2.1"/>
						<rect x="69" y="46.6" fill="#8B5E3C" width="0.3" height="2.1"/>
					</g>
					<rect x="56.5" y="46.6" fill="#A7A9AC" width="6.7" height="2.1"/>
				</g>
				<g>
					<rect x="56.5" y="49.1" fill="#FFDA6E" width="13.3" height="2.1"/>
					<rect x="56.5" y="50.9" fill="#CC9D58" width="13.3" height="0.3"/>
					<g>
						<rect x="57.1" y="49.1" fill="#8B5E3C" width="0.3" height="2.1"/>
						<rect x="58.1" y="49.1" fill="#8B5E3C" width="0.3" height="2.1"/>
						<rect x="59.2" y="49.1" fill="#8B5E3C" width="0.3" height="2.1"/>
						<rect x="60.3" y="49.1" fill="#8B5E3C" width="0.3" height="2.1"/>
						<rect x="61.4" y="49.1" fill="#8B5E3C" width="0.3" height="2.1"/>
						<rect x="62.5" y="49.1" fill="#8B5E3C" width="0.3" height="2.1"/>
						<rect x="63.6" y="49.1" fill="#8B5E3C" width="0.3" height="2.1"/>
						<rect x="64.7" y="49.1" fill="#8B5E3C" width="0.3" height="2.1"/>
						<rect x="65.8" y="49.1" fill="#8B5E3C" width="0.3" height="2.1"/>
						<rect x="66.9" y="49.1" fill="#8B5E3C" width="0.3" height="2.1"/>
						<rect x="68" y="49.1" fill="#8B5E3C" width="0.3" height="2.1"/>
						<rect x="69" y="49.1" fill="#8B5E3C" width="0.3" height="2.1"/>
					</g>
					<rect x="56.5" y="49.1" fill="#A7A9AC" width="6.7" height="2.1"/>
				</g>
				<g>
					<rect x="56.5" y="51.5" fill="#FFDA6E" width="13.3" height="2.1"/>
					<rect x="56.5" y="53.4" fill="#CC9D58" width="13.3" height="0.3"/>
					<g>
						<rect x="57.1" y="51.5" fill="#8B5E3C" width="0.3" height="2.1"/>
						<rect x="58.1" y="51.5" fill="#8B5E3C" width="0.3" height="2.1"/>
						<rect x="59.2" y="51.5" fill="#8B5E3C" width="0.3" height="2.1"/>
						<rect x="60.3" y="51.5" fill="#8B5E3C" width="0.3" height="2.1"/>
						<rect x="61.4" y="51.5" fill="#8B5E3C" width="0.3" height="2.1"/>
						<rect x="62.5" y="51.5" fill="#8B5E3C" width="0.3" height="2.1"/>
						<rect x="63.6" y="51.5" fill="#8B5E3C" width="0.3" height="2.1"/>
						<rect x="64.7" y="51.5" fill="#8B5E3C" width="0.3" height="2.1"/>
						<rect x="65.8" y="51.5" fill="#8B5E3C" width="0.3" height="2.1"/>
						<rect x="66.9" y="51.5" fill="#8B5E3C" width="0.3" height="2.1"/>
						<rect x="68" y="51.5" fill="#8B5E3C" width="0.3" height="2.1"/>
						<rect x="69" y="51.5" fill="#8B5E3C" width="0.3" height="2.1"/>
					</g>
					<rect x="56.5" y="51.5" fill="#A7A9AC" width="6.7" height="2.1"/>
				</g>
				<g>
					
						<rect x="56.2" y="40.1" transform="matrix(0.9728 -0.2315 0.2315 0.9728 -7.8109 15.6546)" fill="#FFDA6E" width="13.3" height="2.1"/>
					
						<rect x="56.4" y="41.9" transform="matrix(0.9728 -0.2315 0.2315 0.9728 -8.0139 15.7288)" fill="#CC9D58" width="13.3" height="0.3"/>
					<g>
						
							<rect x="56" y="42.3" transform="matrix(0.2314 0.9729 -0.9729 0.2314 85.1548 -22.8578)" fill="#8B5E3C" width="2.1" height="0.3"/>
						
							<rect x="57" y="42.1" transform="matrix(0.2314 0.9729 -0.9729 0.2314 85.7232 -24.0825)" fill="#8B5E3C" width="2.1" height="0.3"/>
						
							<rect x="58.1" y="41.8" transform="matrix(0.2314 0.9729 -0.9729 0.2314 86.2915 -25.3072)" fill="#8B5E3C" width="2.1" height="0.3"/>
						
							<rect x="59.2" y="41.5" transform="matrix(0.2314 0.9728 -0.9728 0.2314 86.8598 -26.5319)" fill="#8B5E3C" width="2.1" height="0.3"/>
						
							<rect x="60.2" y="41.3" transform="matrix(0.2315 0.9728 -0.9728 0.2315 87.428 -27.7566)" fill="#8B5E3C" width="2.1" height="0.3"/>
						
							<rect x="61.3" y="41" transform="matrix(0.2315 0.9728 -0.9728 0.2315 87.9963 -28.9813)" fill="#8B5E3C" width="2.1" height="0.3"/>
						
							<rect x="62.3" y="40.8" transform="matrix(0.2315 0.9728 -0.9728 0.2315 88.5646 -30.2059)" fill="#8B5E3C" width="2.1" height="0.3"/>
						
							<rect x="63.4" y="40.5" transform="matrix(0.2315 0.9728 -0.9728 0.2315 89.1328 -31.4306)" fill="#8B5E3C" width="2.1" height="0.3"/>
						
							<rect x="64.5" y="40.3" transform="matrix(0.2315 0.9728 -0.9728 0.2315 89.701 -32.6552)" fill="#8B5E3C" width="2.1" height="0.3"/>
						
							<rect x="65.5" y="40" transform="matrix(0.2315 0.9728 -0.9728 0.2315 90.2692 -33.8799)" fill="#8B5E3C" width="2.1" height="0.3"/>
						
							<rect x="66.6" y="39.8" transform="matrix(0.2315 0.9728 -0.9728 0.2315 90.8374 -35.1045)" fill="#8B5E3C" width="2.1" height="0.3"/>
						
							<rect x="67.6" y="39.5" transform="matrix(0.2315 0.9728 -0.9728 0.2315 91.4056 -36.3291)" fill="#8B5E3C" width="2.1" height="0.3"/>
					</g>
					
						<rect x="56.3" y="40.8" transform="matrix(0.9728 -0.2315 0.2315 0.9728 -8.0717 14.9413)" fill="#A7A9AC" width="6.7" height="2.1"/>
				</g>
			</g>
		</g>
	</g>
	<g>
		<path fill="#F7A823" d="M48.6,8.8L51.8,6h-5.3V3.8H55v2.1l-3.1,2.6c1.8,0.1,3.5,1.5,3.5,3.7c0,2.1-1.7,4-4.6,4
			c-2.8,0-4.5-1.8-4.7-3.9l2.5-0.5c0.1,1.2,0.9,2.1,2.2,2.1c1.3,0,2-0.8,2-1.8c0-1.1-0.8-1.8-2-1.8c-0.5,0-0.8,0.1-1.1,0.2L48.6,8.8
			z"/>
		<path fill="#F7A823" d="M57.8,5.6c0.8-1.2,2.1-2,4-2c1.9,0,3.2,0.8,4,2c0.8,1.2,1.1,2.8,1.1,4.3s-0.3,3-1.1,4.3
			c-0.8,1.2-2.1,2-4,2c-1.9,0-3.2-0.8-4-2c-0.8-1.2-1.1-2.8-1.1-4.3S56.9,6.8,57.8,5.6z M59.9,12.9c0.4,0.6,0.9,1,1.8,1
			c0.9,0,1.4-0.4,1.8-1c0.5-0.7,0.7-1.8,0.7-3.1S64,7.5,63.5,6.8c-0.4-0.6-0.9-1-1.8-1c-0.9,0-1.5,0.4-1.8,1
			c-0.5,0.7-0.7,1.8-0.7,3.1S59.5,12.2,59.9,12.9z"/>
		<path fill="#F7A823" d="M71.1,3.6c1.7,0,3.1,1.3,3.1,3.1c0,1.7-1.4,3-3.1,3c-1.7,0-3.1-1.3-3.1-3C68,5,69.4,3.6,71.1,3.6z
			 M69.8,15.9l8.5-12.1h2.2L72,15.9H69.8z M71.1,8c0.7,0,1.2-0.5,1.2-1.3s-0.5-1.3-1.2-1.3c-0.7,0-1.2,0.5-1.2,1.3
			C69.9,7.5,70.4,8,71.1,8z M79.2,10c1.7,0,3.1,1.3,3.1,3.1c0,1.7-1.4,3-3.1,3c-1.7,0-3.1-1.3-3.1-3C76.1,11.4,77.5,10,79.2,10z
			 M79.2,14.4c0.7,0,1.2-0.5,1.2-1.3s-0.5-1.3-1.2-1.3c-0.7,0-1.2,0.5-1.2,1.3C78,13.9,78.5,14.4,79.2,14.4z"/>
	</g>
	<g>
		<circle fill="#573392" cx="9.3" cy="68" r="9.3"/>
		<g>
			<g>
				<polygon fill="#FFFFFF" points="7.7,76.3 7.6,69.9 4.2,66.4 4.2,63.7 4.8,63.7 4.9,66.2 8.3,69.6 8.3,76.3 				"/>
				
					<rect x="2.3" y="68.9" transform="matrix(1.072561e-002 0.9999 -0.9999 1.072561e-002 78.4596 59.1548)" fill="#FFFFFF" width="14.1" height="0.6"/>
				<polygon fill="#FFFFFF" points="10.3,76.3 10.2,68.2 12.7,66.2 13.8,62.3 14.4,62.5 13.2,66.6 10.8,68.5 10.9,76.2 				"/>
				<path fill="#FFFFFF" d="M4.5,64c-0.3,0-0.5-0.1-0.7-0.3c-0.2-0.2-0.3-0.4-0.3-0.7c0-0.5,0.4-1,1-1c0,0,0,0,0,0c0.5,0,1,0.4,1,1
					c0,0.3-0.1,0.5-0.3,0.7C5,63.9,4.8,64,4.5,64C4.5,64,4.5,64,4.5,64z M4.5,62.7C4.5,62.7,4.5,62.7,4.5,62.7
					c-0.2,0-0.4,0.2-0.4,0.4c0,0.2,0.2,0.3,0.4,0.3c0,0,0,0,0,0c0.1,0,0.2,0,0.2-0.1c0.1-0.1,0.1-0.2,0.1-0.2l0,0
					C4.9,62.9,4.7,62.7,4.5,62.7z"/>
				<path fill="#FFFFFF" d="M4.2,70.3c-0.3,0-0.5-0.1-0.7-0.3c-0.2-0.2-0.3-0.4-0.3-0.7c0-0.5,0.4-1,1-1c0,0,0,0,0,0
					c0.5,0,1,0.4,1,1l0,0C5.2,69.9,4.7,70.3,4.2,70.3C4.2,70.3,4.2,70.3,4.2,70.3z M4.2,69C4.2,69,4.2,69,4.2,69
					c-0.2,0-0.4,0.2-0.4,0.4c0,0.1,0,0.2,0.1,0.2c0.1,0.1,0.2,0.1,0.2,0.1c0.2,0,0.3-0.2,0.3-0.4l0,0C4.5,69.2,4.4,69,4.2,69z"/>
				<path fill="#FFFFFF" d="M9.3,62.5c-0.5,0-1-0.4-1-1c0-0.3,0.1-0.5,0.3-0.7c0.2-0.2,0.4-0.3,0.7-0.3c0.3,0,0.5,0.1,0.7,0.3
					c0.2,0.2,0.3,0.4,0.3,0.7l0,0C10.2,62.1,9.8,62.5,9.3,62.5C9.3,62.5,9.3,62.5,9.3,62.5z M9.3,61.2C9.3,61.2,9.3,61.2,9.3,61.2
					c-0.1,0-0.2,0-0.3,0.1c-0.1,0.1-0.1,0.2-0.1,0.2c0,0.2,0.2,0.3,0.4,0.3c0,0,0,0,0,0c0.2,0,0.3-0.2,0.3-0.4l0,0
					c0-0.1,0-0.2-0.1-0.2C9.4,61.2,9.3,61.2,9.3,61.2z"/>
				<path fill="#FFFFFF" d="M14.2,62.8c-0.5,0-1-0.4-1-1c0-0.3,0.1-0.5,0.3-0.7c0.2-0.2,0.4-0.3,0.7-0.3c0.3,0,0.5,0.1,0.7,0.3
					c0.2,0.2,0.3,0.4,0.3,0.7l0,0C15.2,62.3,14.7,62.7,14.2,62.8C14.2,62.8,14.2,62.8,14.2,62.8z M14.2,61.4
					C14.2,61.4,14.2,61.4,14.2,61.4c-0.1,0-0.2,0-0.3,0.1c-0.1,0.1-0.1,0.2-0.1,0.2c0,0.2,0.2,0.3,0.4,0.3c0,0,0,0,0,0
					c0.2,0,0.3-0.2,0.3-0.4l0,0C14.5,61.6,14.4,61.4,14.2,61.4z"/>
				<polygon fill="#FFFFFF" points="6.5,76.3 6.5,72.9 3.9,72 3.9,70 4.5,70 4.5,71.6 7.1,72.4 7.2,76.3 				"/>
				<path fill="#FFFFFF" d="M14.4,70.2c-0.3,0-0.5-0.1-0.7-0.3c-0.2-0.2-0.3-0.4-0.3-0.7l0,0c0-0.5,0.4-1,1-1c0,0,0,0,0,0
					c0.5,0,1,0.4,1,1c0,0.3-0.1,0.5-0.3,0.7C14.9,70.1,14.6,70.2,14.4,70.2C14.4,70.2,14.4,70.2,14.4,70.2z M14,69.2
					c0,0.2,0.2,0.3,0.4,0.3c0,0,0,0,0,0c0.1,0,0.2,0,0.2-0.1c0.1-0.1,0.1-0.2,0.1-0.2c0-0.2-0.2-0.3-0.4-0.3c0,0,0,0,0,0
					C14.2,68.9,14,69,14,69.2L14,69.2z"/>
				<polygon fill="#FFFFFF" points="11.5,76.2 11.5,72.3 14.1,71.5 14.1,69.9 14.7,69.9 14.7,71.9 12.1,72.8 12.2,76.2 				"/>
			</g>
		</g>
	</g>
	<polygon fill="#7F58A5" points="9.4,54.8 9.1,54.8 9.1,38.1 28.7,38.1 28.7,38.4 9.4,38.4 	"/>
	<path fill="#7F58A5" d="M122,62.9h-5.4v-0.3h5.4c3.7,0,6.6-3,6.6-6.6v-9.2c0-4.7-3.8-8.5-8.5-8.5H94.5V38h25.6c4.9,0,8.8,4,8.8,8.8
		V56C128.9,59.8,125.8,62.9,122,62.9z"/>
</g>
<g>
</g>
<g>
</g>
<g>
</g>
<g>
</g>
<g>
</g>
<g>
</g>
<g>
</g>
<g>
</g>
<g>
</g>
<g>
</g>
<g>
</g>
<g>
</g>
<g>
</g>
<g>
</g>
<g>
</g>
</svg>
