<?xml version="1.0" encoding="utf-8"?>
<!-- Generator: Adobe Illustrator 18.0.0, SVG Export Plug-In . SVG Version: 6.00 Build 0)  -->
<!DOCTYPE svg PUBLIC "-//W3C//DTD SVG 1.1//EN" "http://www.w3.org/Graphics/SVG/1.1/DTD/svg11.dtd">
<svg version="1.1" id="Layer_1" xmlns="http://www.w3.org/2000/svg" xmlns:xlink="http://www.w3.org/1999/xlink" x="0px" y="0px"
	 viewBox="0 0 331 481.4" enable-background="new 0 0 331 481.4" xml:space="preserve">
<g>
	<path fill="#2368B5" d="M226.3,215.6L226.3,215.6L226.3,215.6c-0.7,0.4-1.2,0.9-1.6,1.6l0,0h0c-0.4-0.7-0.9-1.2-1.6-1.6l0,0l0,0
		c0.7-0.4,1.2-0.9,1.6-1.6h0l0,0C225,214.7,225.6,215.2,226.3,215.6z"/>
	<rect x="224.6" y="213.1" fill="#2368B5" width="0.1" height="5.1"/>
	<rect x="222.1" y="215.6" fill="#2368B5" width="5.1" height="0.1"/>
</g>
<g>
	<path fill="#2368B5" d="M253,325.9L253,325.9L253,325.9c-0.7,0.4-1.2,0.9-1.6,1.6l0,0l0,0c-0.4-0.7-0.9-1.2-1.6-1.6h0h0
		c0.7-0.4,1.2-0.9,1.6-1.6l0,0l0,0C251.8,325,252.3,325.5,253,325.9z"/>
	<rect x="251.4" y="323.3" fill="#2368B5" width="0.1" height="5.1"/>
	<rect x="248.9" y="325.8" fill="#2368B5" width="5.1" height="0.1"/>
</g>
<g>
	<path fill="#2368B5" d="M53.6,253.6L53.6,253.6L53.6,253.6c-0.9,0.5-1.7,1.3-2.2,2.2l0,0l0,0c-0.5-0.9-1.3-1.7-2.2-2.2h0h0
		c0.9-0.5,1.7-1.3,2.2-2.2l0,0l0,0C52,252.4,52.7,253.1,53.6,253.6z"/>
	<rect x="51.4" y="250.1" fill="#2368B5" width="0.1" height="7"/>
	<rect x="48" y="253.6" fill="#2368B5" width="7" height="0.1"/>
</g>
<g>
	<circle fill="#2368B5" cx="74.1" cy="42.5" r="0.9"/>
	<circle fill="#2368B5" cx="69.6" cy="29.6" r="1.2"/>
	<circle fill="#2368B5" cx="95.4" cy="52.4" r="1.2"/>
	<circle fill="#2368B5" cx="145.8" cy="405.8" r="1"/>
	<circle fill="#2368B5" cx="47.5" cy="37.1" r="1.9"/>
	<circle fill="#2368B5" cx="119.9" cy="389.1" r="1.9"/>
	<circle fill="#2368B5" cx="1.5" cy="279.3" r="1.5"/>
	<circle fill="#2368B5" cx="13.8" cy="31.3" r="0.6"/>
	<circle fill="#2368B5" cx="235" cy="249.6" r="0.8"/>
	<circle fill="#2368B5" cx="260.4" cy="370.8" r="0.4"/>
	<circle fill="#2368B5" cx="253.6" cy="297.5" r="0.8"/>
	<circle fill="#2368B5" cx="330.2" cy="270.6" r="0.8"/>
	<circle fill="#2368B5" cx="34.7" cy="0.6" r="0.6"/>
	<circle fill="#2368B5" cx="25.2" cy="295.1" r="0.5"/>
	<circle fill="#2368B5" cx="65.2" cy="307.1" r="0.5"/>
	<circle fill="#2368B5" cx="24.9" cy="308.4" r="0.5"/>
	<circle fill="#2368B5" cx="195.1" cy="471.8" r="0.4"/>
	<circle fill="#2368B5" cx="62.7" cy="344.9" r="0.5"/>
	<circle fill="#2368B5" cx="106.5" cy="353.4" r="0.5"/>
	<circle fill="#2368B5" cx="1.5" cy="325.7" r="0.5"/>
	<circle fill="#2368B5" cx="25.9" cy="328.1" r="0.5"/>
	<circle fill="#2368B5" cx="268.6" cy="255.9" r="2"/>
	<circle fill="#2368B5" cx="287.9" cy="217.1" r="3.1"/>
	<circle fill="#2368B5" cx="43.4" cy="320.4" r="1.9"/>
	<circle fill="#2368B5" cx="95.9" cy="366.4" r="1.9"/>
	<circle fill="#2368B5" cx="71.3" cy="326.9" r="1.9"/>
	<circle fill="#2368B5" cx="292" cy="255" r="0.8"/>
	<circle fill="#2368B5" cx="296.1" cy="275.1" r="0.8"/>
	<circle fill="#2368B5" cx="280.5" cy="289" r="0.8"/>
	<circle fill="#2368B5" cx="235.5" cy="280.1" r="0.8"/>
	<circle fill="#2368B5" cx="148" cy="399.2" r="0.5"/>
	<circle fill="#2368B5" cx="139.9" cy="428.5" r="1.9"/>
	<circle fill="#2368B5" cx="53.3" cy="333.9" r="0.5"/>
</g>
<circle fill="#2368B5" cx="288.4" cy="187" r="6"/>
<circle fill="#F6A822" cx="240.7" cy="401.2" r="16.4"/>
<g>
	<path fill="none" stroke="#032360" stroke-width="0.3616" stroke-miterlimit="10" d="M272.4,475.1c-11.7,4.8-24.7,7-38.1,5.7
		c-44-4.1-76.3-43.2-72.1-87.2c0.2-2.2,0.5-4.3,0.9-6.5"/>
	<path fill="none" stroke="#032360" stroke-width="0.3616" stroke-miterlimit="10" d="M227.1,322.4c6-1.4,16.1-1.5,22.2-0.9
		c42.1,4,73.5,39.9,72.5,81.5"/>
</g>
<circle fill="#C42A5E" cx="126.8" cy="186.3" r="16.4"/>
<g>
	<path fill="none" stroke="#032360" stroke-width="0.3931" stroke-miterlimit="10" d="M211.9,172.6c1.4,9,1.4,18.4-0.2,27.9
		c-8.1,47.3-53,79.2-100.3,71.1c-21.7-3.7-40.2-15.2-53-31.1"/>
	<path fill="none" stroke="#032360" stroke-width="0.3931" stroke-miterlimit="10" d="M51.5,140.8c17.9-29.7,52.8-46.9,89-40.7
		c9.5,1.6,18.4,4.7,26.5,9.1"/>
</g>
<circle fill="none" stroke="#032360" stroke-width="0.3931" stroke-miterlimit="10" cx="125.9" cy="186.3" r="38"/>
<circle fill="none" stroke="#032360" stroke-width="0.3616" stroke-miterlimit="10" cx="240.4" cy="401.2" r="34.4"/>
<circle fill="#C42A5E" cx="143.2" cy="208.3" r="4.4"/>
<circle fill="#F6A822" cx="248.8" cy="375.3" r="4.4"/>
<g>
</g>
<g>
</g>
<g>
</g>
<g>
</g>
<g>
</g>
<g>
</g>
<g>
</g>
<g>
</g>
<g>
</g>
<g>
</g>
<g>
</g>
<g>
</g>
<g>
</g>
<g>
</g>
<g>
</g>
</svg>
