<svg xmlns="http://www.w3.org/2000/svg" xmlns:xlink="http://www.w3.org/1999/xlink" viewBox="0 0 1448.37 800"><defs><style>.a,.b,.i,.j,.k,.l{fill:none;}.b,.m{stroke:#fff;stroke-width:3px;}.b,.l,.m{stroke-linecap:round;stroke-linejoin:round;}.c{fill:#fff;}.d{clip-path:url(#a);}.e{opacity:0.4;fill:url(#b);}.f{fill:#d1d3d4;}.g{fill:#939598;}.h{fill:#e6e7e8;}.i,.j,.k{stroke:#939598;stroke-miterlimit:10;}.i{stroke-width:0.91px;}.j{stroke-width:2.74px;}.k{stroke-width:1.83px;}.l{stroke:#33ade0;stroke-width:11.88px;}.m{fill:#1855aa;}</style><clipPath id="a"><polygon class="a" points="419.26 643.42 704.49 643.42 704.49 596.43 977.86 596.43 977.86 525.96 1130.96 525.96 1130.96 466.49 1299.77 410.22 1299.77 195.81 968.96 195.81 774.89 456.42 774.89 418.71 611.86 418.71 348.54 645.91 419.26 643.42"/></clipPath><linearGradient id="b" x1="625.35" y1="748.39" x2="1385.03" y2="370.11" gradientUnits="userSpaceOnUse"><stop offset="0" stop-color="#f7a823"/><stop offset="0.17" stop-color="#f7a924" stop-opacity="0.99"/><stop offset="0.31" stop-color="#f7ab27" stop-opacity="0.95"/><stop offset="0.43" stop-color="#f8ae2c" stop-opacity="0.88"/><stop offset="0.49" stop-color="#f8b030" stop-opacity="0.83"/><stop offset="0.54" stop-color="#f8b232" stop-opacity="0.8"/><stop offset="0.62" stop-color="#f9b638" stop-opacity="0.72"/><stop offset="0.71" stop-color="#fabd43" stop-opacity="0.58"/><stop offset="0.82" stop-color="#fcc651" stop-opacity="0.39"/><stop offset="0.93" stop-color="#fed262" stop-opacity="0.16"/><stop offset="1" stop-color="#ffda6e" stop-opacity="0"/></linearGradient></defs><title>r3</title><path class="b" d="M417.37,488.89s-23.74,27.72-53,27.72-53-27.72-53-27.72,23.74-27.71,53-27.71S417.37,488.89,417.37,488.89Z"/><circle class="b" cx="364.34" cy="488.89" r="16.47"/><line class="b" x1="357.92" y1="443.12" x2="357.92" y2="403.88"/><line class="b" x1="383.97" y1="447.04" x2="405.39" y2="414.17"/><line class="b" x1="336.14" y1="452.27" x2="316.76" y2="418.15"/><polyline class="b" points="281.08 549.39 315.42 524.86 339.51 543.22 371.07 527 400.77 539.89 477.27 467.64"/><polyline class="b" points="456.06 466.33 478.33 466.33 478.33 487.96"/><path class="c" d="M481.27,415.27c-2.16-2-4.06-3.11-6.76-3.11-3.12,0-4.86,1.48-4.86,4.38,0,6.56,16.07,5.55,16.07,17.39,0,5.76-3.23,10.05-9.31,11.21v6.13h-5.23v-5.92a19.76,19.76,0,0,1-10.47-4.6l3.44-5.23c2.91,2.27,5.71,3.59,8.72,3.59,3.7,0,5.39-1.64,5.39-4.65,0-7.13-16.07-6.5-16.07-17.55,0-5.76,3.44-9.72,9-10.78V400h5.23v6a14.55,14.55,0,0,1,8.78,4.81Z"/><g class="d"><polygon class="e" points="370.42 644.13 1301.69 219.6 1301.69 642.81 704.49 643.42 370.42 644.13"/><polygon class="f" points="1109.62 477.55 1109.62 325.55 1177.67 303.17 1177.67 302.78 1232.6 335.13 1232.6 477.55 1109.62 477.55"/><rect class="g" x="1118.16" y="331.7" width="3" height="30.87"/><rect class="g" x="1126.44" y="329.05" width="3" height="30.87"/><rect class="g" x="1134.73" y="326.4" width="3" height="30.87"/><rect class="g" x="1143.01" y="323.75" width="3" height="30.87"/><rect class="g" x="1151.3" y="321.1" width="3" height="30.87"/><rect class="g" x="1159.58" y="318.45" width="3" height="30.87"/><rect class="g" x="1167.86" y="315.8" width="3" height="30.87"/><rect class="g" x="1118.16" y="370.05" width="3" height="30.87"/><rect class="g" x="1126.44" y="367.4" width="3" height="30.87"/><rect class="g" x="1134.73" y="364.75" width="3" height="30.87"/><rect class="g" x="1143.01" y="362.1" width="3" height="30.87"/><rect class="g" x="1151.3" y="359.45" width="3" height="30.87"/><rect class="g" x="1159.58" y="356.8" width="3" height="30.87"/><rect class="g" x="1167.86" y="354.15" width="3" height="30.87"/><rect class="g" x="1118.16" y="408.4" width="3" height="30.87"/><rect class="g" x="1126.44" y="405.75" width="3" height="30.87"/><rect class="g" x="1134.73" y="403.1" width="3" height="30.87"/><rect class="g" x="1143.01" y="400.45" width="3" height="30.87"/><rect class="g" x="1151.3" y="397.8" width="3" height="30.87"/><rect class="g" x="1159.58" y="395.15" width="3" height="30.87"/><rect class="g" x="1167.86" y="392.5" width="3" height="30.87"/><rect class="g" x="1118.16" y="446.75" width="3" height="30.87"/><rect class="g" x="1126.44" y="444.1" width="3" height="30.87"/><rect class="g" x="1134.73" y="441.45" width="3" height="30.87"/><rect class="g" x="1143.01" y="438.8" width="3" height="30.87"/><rect class="g" x="1151.3" y="436.15" width="3" height="30.87"/><rect class="g" x="1159.58" y="433.5" width="3" height="30.87"/><rect class="g" x="1167.86" y="430.85" width="3" height="30.87"/><rect class="g" x="1118.16" y="485.1" width="3" height="30.87"/><rect class="g" x="1126.44" y="482.45" width="3" height="30.87"/><rect class="g" x="1134.73" y="479.8" width="3" height="30.87"/><rect class="g" x="1143.01" y="477.15" width="3" height="30.87"/><rect class="g" x="1151.3" y="474.5" width="3" height="30.87"/><rect class="g" x="1159.58" y="471.85" width="3" height="30.87"/><rect class="g" x="1167.86" y="469.2" width="3" height="30.87"/><polygon class="h" points="1195.13 503.42 1232.6 494.54 1232.6 335.13 1177.67 302.78 1177.67 509.33 1195.13 503.42"/><line class="i" x1="1184.56" y1="318.11" x2="1184.56" y2="474.34"/><line class="i" x1="1191.58" y1="321.7" x2="1191.58" y2="477.93"/><line class="i" x1="1198.59" y1="325.28" x2="1198.59" y2="481.51"/><line class="i" x1="1205.61" y1="328.87" x2="1205.61" y2="485.1"/><line class="i" x1="1212.62" y1="332.45" x2="1212.62" y2="488.68"/><line class="i" x1="1219.64" y1="336.04" x2="1219.64" y2="492.27"/><line class="i" x1="1226.65" y1="339.62" x2="1226.65" y2="495.85"/><polygon class="f" points="1188.8 440.6 1188.8 288.6 1256.85 266.21 1256.85 265.83 1311.78 298.18 1311.78 440.6 1188.8 440.6"/><rect class="g" x="1197.33" y="294.75" width="3" height="30.87"/><rect class="g" x="1205.62" y="292.1" width="3" height="30.87"/><rect class="g" x="1213.9" y="289.45" width="3" height="30.87"/><rect class="g" x="1222.19" y="286.8" width="3" height="30.87"/><rect class="g" x="1230.47" y="284.15" width="3" height="30.87"/><rect class="g" x="1238.76" y="281.5" width="3" height="30.87"/><rect class="g" x="1247.04" y="278.85" width="3" height="30.87"/><rect class="g" x="1197.33" y="333.1" width="3" height="30.87"/><rect class="g" x="1205.62" y="330.45" width="3" height="30.87"/><rect class="g" x="1213.9" y="327.8" width="3" height="30.87"/><rect class="g" x="1222.19" y="325.15" width="3" height="30.87"/><rect class="g" x="1230.47" y="322.5" width="3" height="30.87"/><rect class="g" x="1238.76" y="319.85" width="3" height="30.87"/><rect class="g" x="1247.04" y="317.2" width="3" height="30.87"/><rect class="g" x="1197.33" y="371.45" width="3" height="30.87"/><rect class="g" x="1205.62" y="368.8" width="3" height="30.87"/><rect class="g" x="1213.9" y="366.15" width="3" height="30.87"/><rect class="g" x="1222.19" y="363.5" width="3" height="30.87"/><rect class="g" x="1230.47" y="360.85" width="3" height="30.87"/><rect class="g" x="1238.76" y="358.2" width="3" height="30.87"/><rect class="g" x="1247.04" y="355.55" width="3" height="30.87"/><rect class="g" x="1197.33" y="409.8" width="3" height="30.87"/><rect class="g" x="1205.62" y="407.15" width="3" height="30.87"/><rect class="g" x="1213.9" y="404.5" width="3" height="30.87"/><rect class="g" x="1222.19" y="401.85" width="3" height="30.87"/><rect class="g" x="1230.47" y="399.2" width="3" height="30.87"/><rect class="g" x="1238.76" y="396.55" width="3" height="30.87"/><rect class="g" x="1247.04" y="393.9" width="3" height="30.87"/><rect class="g" x="1197.33" y="448.15" width="3" height="30.87"/><rect class="g" x="1205.62" y="445.5" width="3" height="30.87"/><rect class="g" x="1213.9" y="442.85" width="3" height="30.87"/><rect class="g" x="1222.19" y="440.2" width="3" height="30.87"/><rect class="g" x="1230.47" y="437.55" width="3" height="30.87"/><rect class="g" x="1238.76" y="434.9" width="3" height="30.87"/><rect class="g" x="1247.04" y="432.25" width="3" height="30.87"/><polygon class="h" points="1274.31 466.46 1311.78 457.59 1311.78 298.18 1256.85 265.83 1256.85 472.38 1274.31 466.46"/><line class="i" x1="1263.74" y1="281.16" x2="1263.74" y2="437.39"/><line class="i" x1="1270.76" y1="284.75" x2="1270.76" y2="440.98"/><line class="i" x1="1277.77" y1="288.33" x2="1277.77" y2="444.56"/><line class="i" x1="1284.79" y1="291.92" x2="1284.79" y2="448.15"/><line class="i" x1="1291.8" y1="295.5" x2="1291.8" y2="451.73"/><line class="i" x1="1298.82" y1="299.09" x2="1298.82" y2="455.32"/><line class="i" x1="1305.83" y1="302.67" x2="1305.83" y2="458.9"/><polygon class="h" points="1015.71 455.41 1059.7 429.35 1186.41 429.35 1186.41 536.63 1015.71 536.63 1015.71 455.41"/><polygon class="f" points="1059.7 429.35 1059.7 546.94 1015.71 536.63 1015.71 455.41 1059.7 429.35"/><line class="j" x1="1020.34" y1="457.31" x2="1020.34" y2="465.63"/><line class="j" x1="1026.14" y1="453.93" x2="1026.14" y2="462.25"/><line class="j" x1="1031.94" y1="450.56" x2="1031.94" y2="458.88"/><line class="j" x1="1037.73" y1="447.18" x2="1037.73" y2="455.5"/><line class="j" x1="1043.53" y1="443.8" x2="1043.53" y2="452.12"/><line class="j" x1="1049.33" y1="440.43" x2="1049.33" y2="448.75"/><line class="j" x1="1055.13" y1="437.05" x2="1055.13" y2="445.37"/><line class="j" x1="1063.74" y1="436.29" x2="1063.74" y2="444.61"/><line class="j" x1="1072.59" y1="436.29" x2="1072.59" y2="444.61"/><line class="j" x1="1081.44" y1="436.29" x2="1081.44" y2="444.61"/><line class="j" x1="1090.29" y1="436.29" x2="1090.29" y2="444.61"/><line class="j" x1="1099.14" y1="436.29" x2="1099.14" y2="444.61"/><line class="j" x1="1107.99" y1="436.29" x2="1107.99" y2="444.61"/><line class="j" x1="1116.84" y1="436.29" x2="1116.84" y2="444.61"/><line class="j" x1="1125.69" y1="436.29" x2="1125.69" y2="444.61"/><line class="j" x1="1134.54" y1="436.29" x2="1134.54" y2="444.61"/><line class="j" x1="1143.39" y1="436.29" x2="1143.39" y2="444.61"/><line class="j" x1="1152.24" y1="436.29" x2="1152.24" y2="444.61"/><line class="j" x1="1161.09" y1="436.29" x2="1161.09" y2="444.61"/><line class="j" x1="1169.94" y1="436.29" x2="1169.94" y2="444.61"/><line class="j" x1="1178.79" y1="436.29" x2="1178.79" y2="444.61"/><line class="j" x1="1063.74" y1="453.76" x2="1063.74" y2="462.08"/><line class="j" x1="1072.59" y1="453.76" x2="1072.59" y2="462.08"/><line class="j" x1="1081.44" y1="453.76" x2="1081.44" y2="462.08"/><line class="j" x1="1090.29" y1="453.76" x2="1090.29" y2="462.08"/><line class="j" x1="1099.14" y1="453.76" x2="1099.14" y2="462.08"/><line class="j" x1="1107.99" y1="453.76" x2="1107.99" y2="462.08"/><line class="j" x1="1116.84" y1="453.76" x2="1116.84" y2="462.08"/><line class="j" x1="1125.69" y1="453.76" x2="1125.69" y2="462.08"/><line class="j" x1="1134.54" y1="453.76" x2="1134.54" y2="462.08"/><line class="j" x1="1143.39" y1="453.76" x2="1143.39" y2="462.08"/><line class="j" x1="1152.24" y1="453.76" x2="1152.24" y2="462.08"/><line class="j" x1="1161.09" y1="453.76" x2="1161.09" y2="462.08"/><line class="j" x1="1169.94" y1="453.76" x2="1169.94" y2="462.08"/><line class="j" x1="1178.79" y1="453.76" x2="1178.79" y2="462.08"/><line class="j" x1="1063.74" y1="471.23" x2="1063.74" y2="479.55"/><line class="j" x1="1072.59" y1="471.23" x2="1072.59" y2="479.55"/><line class="j" x1="1081.44" y1="471.23" x2="1081.44" y2="479.55"/><line class="j" x1="1090.29" y1="471.23" x2="1090.29" y2="479.55"/><line class="j" x1="1099.14" y1="471.23" x2="1099.14" y2="479.55"/><line class="j" x1="1107.99" y1="471.23" x2="1107.99" y2="479.55"/><line class="j" x1="1116.84" y1="471.23" x2="1116.84" y2="479.55"/><line class="j" x1="1125.69" y1="471.23" x2="1125.69" y2="479.55"/><line class="j" x1="1134.54" y1="471.23" x2="1134.54" y2="479.55"/><line class="j" x1="1143.39" y1="471.23" x2="1143.39" y2="479.55"/><line class="j" x1="1152.24" y1="471.23" x2="1152.24" y2="479.55"/><line class="j" x1="1161.09" y1="471.23" x2="1161.09" y2="479.55"/><line class="j" x1="1169.94" y1="471.23" x2="1169.94" y2="479.55"/><line class="j" x1="1178.79" y1="471.23" x2="1178.79" y2="479.55"/><line class="j" x1="1063.74" y1="488.7" x2="1063.74" y2="497.02"/><line class="j" x1="1072.59" y1="488.7" x2="1072.59" y2="497.02"/><line class="j" x1="1081.44" y1="488.7" x2="1081.44" y2="497.02"/><line class="j" x1="1090.29" y1="488.7" x2="1090.29" y2="497.02"/><line class="j" x1="1099.14" y1="488.7" x2="1099.14" y2="497.02"/><line class="j" x1="1107.99" y1="488.7" x2="1107.99" y2="497.02"/><line class="j" x1="1116.84" y1="488.7" x2="1116.84" y2="497.02"/><line class="j" x1="1125.69" y1="488.7" x2="1125.69" y2="497.02"/><line class="j" x1="1134.54" y1="488.7" x2="1134.54" y2="497.02"/><line class="j" x1="1143.39" y1="488.7" x2="1143.39" y2="497.02"/><line class="j" x1="1152.24" y1="488.7" x2="1152.24" y2="497.02"/><line class="j" x1="1161.09" y1="488.7" x2="1161.09" y2="497.02"/><line class="j" x1="1169.94" y1="488.7" x2="1169.94" y2="497.02"/><line class="j" x1="1178.79" y1="488.7" x2="1178.79" y2="497.02"/><line class="j" x1="1063.74" y1="506.17" x2="1063.74" y2="514.49"/><line class="j" x1="1072.59" y1="506.17" x2="1072.59" y2="514.49"/><line class="j" x1="1081.44" y1="506.17" x2="1081.44" y2="514.49"/><line class="j" x1="1090.29" y1="506.17" x2="1090.29" y2="514.49"/><line class="j" x1="1099.14" y1="506.17" x2="1099.14" y2="514.49"/><line class="j" x1="1107.99" y1="506.17" x2="1107.99" y2="514.49"/><line class="j" x1="1116.84" y1="506.17" x2="1116.84" y2="514.49"/><line class="j" x1="1125.69" y1="506.17" x2="1125.69" y2="514.49"/><line class="j" x1="1134.54" y1="506.17" x2="1134.54" y2="514.49"/><line class="j" x1="1143.39" y1="506.17" x2="1143.39" y2="514.49"/><line class="j" x1="1152.24" y1="506.17" x2="1152.24" y2="514.49"/><line class="j" x1="1161.09" y1="506.17" x2="1161.09" y2="514.49"/><line class="j" x1="1169.94" y1="506.17" x2="1169.94" y2="514.49"/><line class="j" x1="1178.79" y1="506.17" x2="1178.79" y2="514.49"/><line class="j" x1="1063.74" y1="523.64" x2="1063.74" y2="531.96"/><line class="j" x1="1072.59" y1="523.64" x2="1072.59" y2="531.96"/><line class="j" x1="1081.44" y1="523.64" x2="1081.44" y2="531.96"/><line class="j" x1="1090.29" y1="523.64" x2="1090.29" y2="531.96"/><line class="j" x1="1099.14" y1="523.64" x2="1099.14" y2="531.96"/><line class="j" x1="1107.99" y1="523.64" x2="1107.99" y2="531.96"/><line class="j" x1="1116.84" y1="523.64" x2="1116.84" y2="531.96"/><line class="j" x1="1125.69" y1="523.64" x2="1125.69" y2="531.96"/><line class="j" x1="1134.54" y1="523.64" x2="1134.54" y2="531.96"/><line class="j" x1="1143.39" y1="523.64" x2="1143.39" y2="531.96"/><line class="j" x1="1152.24" y1="523.64" x2="1152.24" y2="531.96"/><line class="j" x1="1161.09" y1="523.64" x2="1161.09" y2="531.96"/><line class="j" x1="1169.94" y1="523.64" x2="1169.94" y2="531.96"/><line class="j" x1="1178.79" y1="523.64" x2="1178.79" y2="531.96"/><line class="j" x1="1020.34" y1="474.63" x2="1020.34" y2="482.95"/><line class="j" x1="1026.14" y1="471.26" x2="1026.14" y2="479.58"/><line class="j" x1="1031.94" y1="467.88" x2="1031.94" y2="476.2"/><line class="j" x1="1037.73" y1="464.5" x2="1037.73" y2="472.82"/><line class="j" x1="1043.53" y1="461.13" x2="1043.53" y2="469.45"/><line class="j" x1="1049.33" y1="457.75" x2="1049.33" y2="466.07"/><line class="j" x1="1055.13" y1="454.38" x2="1055.13" y2="462.69"/><line class="j" x1="1020.34" y1="491.96" x2="1020.34" y2="500.28"/><line class="j" x1="1026.14" y1="488.58" x2="1026.14" y2="496.9"/><line class="j" x1="1031.94" y1="485.2" x2="1031.94" y2="493.52"/><line class="j" x1="1037.73" y1="481.83" x2="1037.73" y2="490.15"/><line class="j" x1="1043.53" y1="478.45" x2="1043.53" y2="486.77"/><line class="j" x1="1049.33" y1="475.08" x2="1049.33" y2="483.39"/><line class="j" x1="1055.13" y1="471.7" x2="1055.13" y2="480.02"/><line class="j" x1="1020.34" y1="509.28" x2="1020.34" y2="517.6"/><line class="j" x1="1026.14" y1="505.9" x2="1026.14" y2="514.22"/><line class="j" x1="1031.94" y1="502.53" x2="1031.94" y2="510.85"/><line class="j" x1="1037.73" y1="499.15" x2="1037.73" y2="507.47"/><line class="j" x1="1043.53" y1="495.78" x2="1043.53" y2="504.09"/><line class="j" x1="1049.33" y1="492.4" x2="1049.33" y2="500.72"/><line class="j" x1="1055.13" y1="489.02" x2="1055.13" y2="497.34"/><line class="j" x1="1020.34" y1="526.6" x2="1020.34" y2="534.92"/><line class="j" x1="1026.14" y1="523.23" x2="1026.14" y2="531.55"/><line class="j" x1="1031.94" y1="519.85" x2="1031.94" y2="528.17"/><line class="j" x1="1037.73" y1="516.48" x2="1037.73" y2="524.79"/><line class="j" x1="1043.53" y1="513.1" x2="1043.53" y2="521.42"/><line class="j" x1="1049.33" y1="509.72" x2="1049.33" y2="518.04"/><line class="j" x1="1055.13" y1="506.35" x2="1055.13" y2="514.67"/><line class="j" x1="1020.34" y1="543.93" x2="1020.34" y2="552.25"/><line class="j" x1="1026.14" y1="540.55" x2="1026.14" y2="548.87"/><line class="j" x1="1031.94" y1="537.18" x2="1031.94" y2="545.49"/><line class="j" x1="1037.73" y1="533.8" x2="1037.73" y2="542.12"/><line class="j" x1="1043.53" y1="530.42" x2="1043.53" y2="538.74"/><line class="j" x1="1049.33" y1="527.05" x2="1049.33" y2="535.37"/><line class="j" x1="1055.13" y1="523.67" x2="1055.13" y2="531.99"/><polygon class="h" points="634.97 643.42 634.97 525.96 694.69 464.17 694.69 643.42 634.97 643.42"/><line class="k" x1="639.37" y1="521.38" x2="639.37" y2="645.92"/><line class="k" x1="647.83" y1="512.43" x2="647.83" y2="647.59"/><line class="k" x1="656.29" y1="503.48" x2="656.29" y2="649.26"/><line class="k" x1="664.75" y1="494.53" x2="664.75" y2="650.94"/><line class="k" x1="673.21" y1="485.58" x2="673.21" y2="652.61"/><line class="k" x1="681.67" y1="476.63" x2="681.67" y2="654.28"/><line class="k" x1="690.13" y1="467.68" x2="690.13" y2="655.95"/><polygon class="f" points="977.86 643.42 977.86 457.77 1006.97 436.19 1006.97 365.29 1033.69 365.29 1033.69 301.57 1059.38 301.57 1059.38 643.42 977.86 643.42"/><line class="j" x1="982.28" y1="460" x2="982.28" y2="498.96"/><line class="j" x1="990.15" y1="454.49" x2="990.15" y2="493.45"/><line class="j" x1="998.02" y1="448.99" x2="998.02" y2="487.94"/><line class="j" x1="1005.89" y1="443.48" x2="1005.89" y2="482.43"/><line class="j" x1="1011.79" y1="371.47" x2="1011.79" y2="412.79"/><line class="j" x1="1018.68" y1="371.47" x2="1018.68" y2="412.79"/><line class="j" x1="1025.57" y1="371.47" x2="1025.57" y2="412.79"/><line class="j" x1="1032.45" y1="371.47" x2="1032.45" y2="412.79"/><line class="j" x1="1039.87" y1="307.22" x2="1039.87" y2="412.79"/><line class="j" x1="1047.5" y1="307.22" x2="1047.5" y2="412.79"/><line class="j" x1="1055.13" y1="307.22" x2="1055.13" y2="412.79"/><line class="j" x1="1039.87" y1="418.96" x2="1039.87" y2="644.4"/><line class="j" x1="1047.5" y1="418.96" x2="1047.5" y2="644.4"/><line class="j" x1="1055.13" y1="418.96" x2="1055.13" y2="644.4"/><line class="j" x1="1011.79" y1="418.1" x2="1011.79" y2="459.41"/><line class="j" x1="1018.68" y1="418.1" x2="1018.68" y2="459.41"/><line class="j" x1="1025.57" y1="418.1" x2="1025.57" y2="459.41"/><line class="j" x1="1032.45" y1="418.1" x2="1032.45" y2="459.41"/><line class="j" x1="1011.79" y1="464.73" x2="1011.79" y2="506.04"/><line class="j" x1="1018.68" y1="464.73" x2="1018.68" y2="506.04"/><line class="j" x1="1025.57" y1="464.73" x2="1025.57" y2="506.04"/><line class="j" x1="1032.45" y1="464.73" x2="1032.45" y2="506.04"/><line class="j" x1="1011.79" y1="511.35" x2="1011.79" y2="552.67"/><line class="j" x1="1018.68" y1="511.35" x2="1018.68" y2="552.67"/><line class="j" x1="1025.57" y1="511.35" x2="1025.57" y2="552.67"/><line class="j" x1="1032.45" y1="511.35" x2="1032.45" y2="552.67"/><line class="j" x1="1011.79" y1="557.98" x2="1011.79" y2="599.29"/><line class="j" x1="1018.68" y1="557.98" x2="1018.68" y2="599.29"/><line class="j" x1="1025.57" y1="557.98" x2="1025.57" y2="599.29"/><line class="j" x1="1032.45" y1="557.98" x2="1032.45" y2="599.29"/><line class="j" x1="1011.79" y1="604.6" x2="1011.79" y2="645.92"/><line class="j" x1="1018.68" y1="604.6" x2="1018.68" y2="645.92"/><line class="j" x1="1025.57" y1="604.6" x2="1025.57" y2="645.92"/><line class="j" x1="1032.45" y1="604.6" x2="1032.45" y2="645.92"/><polygon class="f" points="672.83 643.42 672.83 542.04 718.21 527.11 718.21 435.16 754.85 456.74 754.85 643.42 672.83 643.42"/><rect class="g" x="678.52" y="546.14" width="2" height="20.59"/><rect class="g" x="684.04" y="544.37" width="2" height="20.59"/><rect class="g" x="689.57" y="542.61" width="2" height="20.59"/><rect class="g" x="695.09" y="540.84" width="2" height="20.59"/><rect class="g" x="700.62" y="539.07" width="2" height="20.59"/><rect class="g" x="706.15" y="537.3" width="2" height="20.59"/><rect class="g" x="711.67" y="535.54" width="2" height="20.59"/><rect class="g" x="678.52" y="571.72" width="2" height="20.59"/><rect class="g" x="684.04" y="569.95" width="2" height="20.59"/><rect class="g" x="689.57" y="568.18" width="2" height="20.59"/><rect class="g" x="695.09" y="566.42" width="2" height="20.59"/><rect class="g" x="700.62" y="564.65" width="2" height="20.59"/><rect class="g" x="706.15" y="562.88" width="2" height="20.59"/><rect class="g" x="711.67" y="561.11" width="2" height="20.59"/><rect class="g" x="678.52" y="597.3" width="2" height="20.59"/><rect class="g" x="684.04" y="595.53" width="2" height="20.59"/><rect class="g" x="689.57" y="593.76" width="2" height="20.59"/><rect class="g" x="695.09" y="591.99" width="2" height="20.59"/><rect class="g" x="700.62" y="590.23" width="2" height="20.59"/><rect class="g" x="706.15" y="588.46" width="2" height="20.59"/><rect class="g" x="711.67" y="586.69" width="2" height="20.59"/><rect class="g" x="678.52" y="622.88" width="2" height="20.59"/><rect class="g" x="684.04" y="621.11" width="2" height="20.59"/><rect class="g" x="689.57" y="619.34" width="2" height="20.59"/><rect class="g" x="695.09" y="617.57" width="2" height="20.59"/><rect class="g" x="700.62" y="615.8" width="2" height="20.59"/><rect class="g" x="706.15" y="614.04" width="2" height="20.59"/><rect class="g" x="711.67" y="612.27" width="2" height="20.59"/><rect class="g" x="678.52" y="648.45" width="2" height="20.59"/><rect class="g" x="684.04" y="646.69" width="2" height="20.59"/><rect class="g" x="689.57" y="644.92" width="2" height="20.59"/><rect class="g" x="695.09" y="643.15" width="2" height="20.59"/><rect class="g" x="700.62" y="641.38" width="2" height="20.59"/><rect class="g" x="706.15" y="639.62" width="2" height="20.59"/><rect class="g" x="711.67" y="637.85" width="2" height="20.59"/><polygon class="h" points="729.86 660.67 754.85 654.75 754.85 456.74 718.21 435.16 718.21 664.62 729.86 660.67"/><line class="i" x1="722.81" y1="445.39" x2="722.81" y2="641.28"/><line class="i" x1="727.49" y1="447.78" x2="727.49" y2="643.67"/><line class="i" x1="732.17" y1="450.17" x2="732.17" y2="646.06"/><line class="i" x1="736.85" y1="452.56" x2="736.85" y2="648.45"/><line class="i" x1="741.53" y1="454.95" x2="741.53" y2="650.84"/><line class="i" x1="746.21" y1="457.35" x2="746.21" y2="653.24"/><line class="i" x1="750.88" y1="459.74" x2="750.88" y2="655.63"/><polygon class="h" points="746.5 515.32 815.88 474.21 1015.74 474.21 1015.74 643.42 746.5 643.42 746.5 515.32"/><polygon class="f" points="815.88 474.21 815.88 659.68 746.5 643.42 746.5 515.32 815.88 474.21"/><line class="j" x1="753.81" y1="518.32" x2="753.81" y2="531.44"/><line class="j" x1="762.95" y1="512.99" x2="762.95" y2="526.11"/><line class="j" x1="772.1" y1="507.67" x2="772.1" y2="520.79"/><line class="j" x1="781.24" y1="502.34" x2="781.24" y2="515.46"/><line class="j" x1="790.39" y1="497.02" x2="790.39" y2="510.14"/><line class="j" x1="799.53" y1="491.69" x2="799.53" y2="504.81"/><line class="j" x1="808.68" y1="486.37" x2="808.68" y2="499.49"/><line class="j" x1="822.27" y1="485.17" x2="822.27" y2="498.29"/><line class="j" x1="836.22" y1="485.17" x2="836.22" y2="498.29"/><line class="j" x1="850.18" y1="485.17" x2="850.18" y2="498.29"/><line class="j" x1="864.14" y1="485.17" x2="864.14" y2="498.29"/><line class="j" x1="878.1" y1="485.17" x2="878.1" y2="498.29"/><line class="j" x1="892.05" y1="485.17" x2="892.05" y2="498.29"/><line class="j" x1="906.01" y1="485.17" x2="906.01" y2="498.29"/><line class="j" x1="919.97" y1="485.17" x2="919.97" y2="498.29"/><line class="j" x1="933.93" y1="485.17" x2="933.93" y2="498.29"/><line class="j" x1="947.88" y1="485.17" x2="947.88" y2="498.29"/><line class="j" x1="961.84" y1="485.17" x2="961.84" y2="498.29"/><line class="j" x1="975.8" y1="485.17" x2="975.8" y2="498.29"/><line class="j" x1="989.76" y1="485.17" x2="989.76" y2="498.29"/><line class="j" x1="1003.71" y1="485.17" x2="1003.71" y2="498.29"/><line class="j" x1="822.27" y1="512.72" x2="822.27" y2="525.84"/><line class="j" x1="836.22" y1="512.72" x2="836.22" y2="525.84"/><line class="j" x1="850.18" y1="512.72" x2="850.18" y2="525.84"/><line class="j" x1="864.14" y1="512.72" x2="864.14" y2="525.84"/><line class="j" x1="878.1" y1="512.72" x2="878.1" y2="525.84"/><line class="j" x1="892.05" y1="512.72" x2="892.05" y2="525.84"/><line class="j" x1="906.01" y1="512.72" x2="906.01" y2="525.84"/><line class="j" x1="919.97" y1="512.72" x2="919.97" y2="525.84"/><line class="j" x1="933.93" y1="512.72" x2="933.93" y2="525.84"/><line class="j" x1="947.88" y1="512.72" x2="947.88" y2="525.84"/><line class="j" x1="961.84" y1="512.72" x2="961.84" y2="525.84"/><line class="j" x1="975.8" y1="512.72" x2="975.8" y2="525.84"/><line class="j" x1="989.76" y1="512.72" x2="989.76" y2="525.84"/><line class="j" x1="1003.71" y1="512.72" x2="1003.71" y2="525.84"/><line class="j" x1="822.27" y1="540.28" x2="822.27" y2="553.4"/><line class="j" x1="836.22" y1="540.28" x2="836.22" y2="553.4"/><line class="j" x1="850.18" y1="540.28" x2="850.18" y2="553.4"/><line class="j" x1="864.14" y1="540.28" x2="864.14" y2="553.4"/><line class="j" x1="878.1" y1="540.28" x2="878.1" y2="553.4"/><line class="j" x1="892.05" y1="540.28" x2="892.05" y2="553.4"/><line class="j" x1="906.01" y1="540.28" x2="906.01" y2="553.4"/><line class="j" x1="919.97" y1="540.28" x2="919.97" y2="553.4"/><line class="j" x1="933.93" y1="540.28" x2="933.93" y2="553.4"/><line class="j" x1="947.88" y1="540.28" x2="947.88" y2="553.4"/><line class="j" x1="961.84" y1="540.28" x2="961.84" y2="553.4"/><line class="j" x1="975.8" y1="540.28" x2="975.8" y2="553.4"/><line class="j" x1="989.76" y1="540.28" x2="989.76" y2="553.4"/><line class="j" x1="1003.71" y1="540.28" x2="1003.71" y2="553.4"/><line class="j" x1="822.27" y1="567.83" x2="822.27" y2="580.95"/><line class="j" x1="836.22" y1="567.83" x2="836.22" y2="580.95"/><line class="j" x1="850.18" y1="567.83" x2="850.18" y2="580.95"/><line class="j" x1="864.14" y1="567.83" x2="864.14" y2="580.95"/><line class="j" x1="878.1" y1="567.83" x2="878.1" y2="580.95"/><line class="j" x1="892.05" y1="567.83" x2="892.05" y2="580.95"/><line class="j" x1="906.01" y1="567.83" x2="906.01" y2="580.95"/><line class="j" x1="919.97" y1="567.83" x2="919.97" y2="580.95"/><line class="j" x1="933.93" y1="567.83" x2="933.93" y2="580.95"/><line class="j" x1="947.88" y1="567.83" x2="947.88" y2="580.95"/><line class="j" x1="961.84" y1="567.83" x2="961.84" y2="580.95"/><line class="j" x1="975.8" y1="567.83" x2="975.8" y2="580.95"/><line class="j" x1="989.76" y1="567.83" x2="989.76" y2="580.95"/><line class="j" x1="1003.71" y1="567.83" x2="1003.71" y2="580.95"/><line class="j" x1="822.27" y1="595.38" x2="822.27" y2="608.5"/><line class="j" x1="836.22" y1="595.38" x2="836.22" y2="608.5"/><line class="j" x1="850.18" y1="595.38" x2="850.18" y2="608.5"/><line class="j" x1="864.14" y1="595.38" x2="864.14" y2="608.5"/><line class="j" x1="878.1" y1="595.38" x2="878.1" y2="608.5"/><line class="j" x1="892.05" y1="595.38" x2="892.05" y2="608.5"/><line class="j" x1="906.01" y1="595.38" x2="906.01" y2="608.5"/><line class="j" x1="919.97" y1="595.38" x2="919.97" y2="608.5"/><line class="j" x1="933.93" y1="595.38" x2="933.93" y2="608.5"/><line class="j" x1="947.88" y1="595.38" x2="947.88" y2="608.5"/><line class="j" x1="961.84" y1="595.38" x2="961.84" y2="608.5"/><line class="j" x1="975.8" y1="595.38" x2="975.8" y2="608.5"/><line class="j" x1="989.76" y1="595.38" x2="989.76" y2="608.5"/><line class="j" x1="1003.71" y1="595.38" x2="1003.71" y2="608.5"/><line class="j" x1="822.27" y1="622.94" x2="822.27" y2="636.06"/><line class="j" x1="836.22" y1="622.94" x2="836.22" y2="636.06"/><line class="j" x1="850.18" y1="622.94" x2="850.18" y2="636.06"/><line class="j" x1="864.14" y1="622.94" x2="864.14" y2="636.06"/><line class="j" x1="878.1" y1="622.94" x2="878.1" y2="636.06"/><line class="j" x1="892.05" y1="622.94" x2="892.05" y2="636.06"/><line class="j" x1="906.01" y1="622.94" x2="906.01" y2="636.06"/><line class="j" x1="919.97" y1="622.94" x2="919.97" y2="636.06"/><line class="j" x1="933.93" y1="622.94" x2="933.93" y2="636.06"/><line class="j" x1="947.88" y1="622.94" x2="947.88" y2="636.06"/><line class="j" x1="961.84" y1="622.94" x2="961.84" y2="636.06"/><line class="j" x1="975.8" y1="622.94" x2="975.8" y2="636.06"/><line class="j" x1="989.76" y1="622.94" x2="989.76" y2="636.06"/><line class="j" x1="1003.71" y1="622.94" x2="1003.71" y2="636.06"/><line class="j" x1="753.81" y1="545.64" x2="753.81" y2="558.76"/><line class="j" x1="762.95" y1="540.32" x2="762.95" y2="553.44"/><line class="j" x1="772.1" y1="534.99" x2="772.1" y2="548.11"/><line class="j" x1="781.24" y1="529.67" x2="781.24" y2="542.79"/><line class="j" x1="790.39" y1="524.34" x2="790.39" y2="537.46"/><line class="j" x1="799.53" y1="519.02" x2="799.53" y2="532.14"/><line class="j" x1="808.68" y1="513.69" x2="808.68" y2="526.81"/><line class="j" x1="753.81" y1="572.96" x2="753.81" y2="586.08"/><line class="j" x1="762.95" y1="567.64" x2="762.95" y2="580.76"/><line class="j" x1="772.1" y1="562.31" x2="772.1" y2="575.43"/><line class="j" x1="781.24" y1="556.99" x2="781.24" y2="570.11"/><line class="j" x1="790.39" y1="551.66" x2="790.39" y2="564.78"/><line class="j" x1="799.53" y1="546.34" x2="799.53" y2="559.46"/><line class="j" x1="808.68" y1="541.01" x2="808.68" y2="554.13"/><line class="j" x1="753.81" y1="600.29" x2="753.81" y2="613.41"/><line class="j" x1="762.95" y1="594.96" x2="762.95" y2="608.08"/><line class="j" x1="772.1" y1="589.64" x2="772.1" y2="602.76"/><line class="j" x1="781.24" y1="584.31" x2="781.24" y2="597.43"/><line class="j" x1="790.39" y1="578.99" x2="790.39" y2="592.11"/><line class="j" x1="799.53" y1="573.66" x2="799.53" y2="586.78"/><line class="j" x1="808.68" y1="568.34" x2="808.68" y2="581.46"/><line class="j" x1="753.81" y1="627.61" x2="753.81" y2="640.73"/><line class="j" x1="762.95" y1="622.29" x2="762.95" y2="635.41"/><line class="j" x1="772.1" y1="616.96" x2="772.1" y2="630.08"/><line class="j" x1="781.24" y1="611.64" x2="781.24" y2="624.76"/><line class="j" x1="790.39" y1="606.31" x2="790.39" y2="619.43"/><line class="j" x1="799.53" y1="600.99" x2="799.53" y2="614.11"/><line class="j" x1="808.68" y1="595.66" x2="808.68" y2="608.78"/><line class="j" x1="753.81" y1="654.93" x2="753.81" y2="668.05"/><line class="j" x1="762.95" y1="649.61" x2="762.95" y2="662.73"/><line class="j" x1="772.1" y1="644.28" x2="772.1" y2="657.4"/><line class="j" x1="781.24" y1="638.96" x2="781.24" y2="652.08"/><line class="j" x1="790.39" y1="633.63" x2="790.39" y2="646.75"/><line class="j" x1="799.53" y1="628.31" x2="799.53" y2="641.43"/><line class="j" x1="808.68" y1="622.98" x2="808.68" y2="636.1"/></g><polyline class="l" points="1196.02 418.14 1226.96 435.81 1208.35 468.4"/><polygon class="b" points="339.81 571.43 408.19 571.43 419.99 626.87 325.03 626.87 339.81 571.43"/><path class="b" d="M355.37,587.12V565.67a17.78,17.78,0,0,1,17.78-17.78h0a17.78,17.78,0,0,1,17.79,17.78v21.45"/><circle class="b" cx="355.37" cy="587.12" r="2.84"/><circle class="b" cx="390.88" cy="587.12" r="2.84"/><polyline class="b" points="410.38 580.97 474.46 580.97 474.46 626.87 419.99 626.87"/><polyline class="b" points="474.46 580.97 499.03 573.5 499.03 615.76 474.46 626.87"/><line class="b" x1="499.03" y1="573.5" x2="408.86" y2="573.5"/><polyline class="b" points="461.39 573.5 449.17 580.97 449.17 626.87"/><polyline class="b" points="419.51 626.87 419.51 580.97 432.82 573.5"/><path class="b" d="M442.42,591.81s-4.74-3.36-3.93-10.84"/><path class="b" d="M343.13,571.44H314.66v35.9s-18.5,2.59-25,8.63-1.51,10.34-1.51,10.34h37"/><line class="b" x1="286.89" y1="620.14" x2="324.82" y2="620.14"/><path class="b" d="M314.66,571.44H293.14v35.9s-18.5,2.59-25,8.63-1.51,10.34-1.51,10.34H312"/><line class="b" x1="265.38" y1="620.14" x2="311.7" y2="620.14"/><rect class="c" x="314.66" y="579.12" width="4.99" height="3.02" transform="translate(634.3 1161.26) rotate(-180)"/><rect class="c" x="314.66" y="584.59" width="4.99" height="3.02" transform="translate(634.3 1172.2) rotate(-180)"/><rect class="c" x="314.66" y="590.07" width="4.99" height="3.02" transform="translate(634.3 1183.15) rotate(-180)"/><rect class="c" x="314.66" y="595.54" width="4.99" height="3.02" transform="translate(634.3 1194.09) rotate(-180)"/><rect class="c" x="293.11" y="579.12" width="4.99" height="3.02" transform="translate(591.2 1161.26) rotate(-180)"/><rect class="c" x="293.11" y="584.59" width="4.99" height="3.02" transform="translate(591.2 1172.2) rotate(-180)"/><rect class="c" x="293.11" y="590.07" width="4.99" height="3.02" transform="translate(591.2 1183.15) rotate(-180)"/><rect class="c" x="293.11" y="595.54" width="4.99" height="3.02" transform="translate(591.2 1194.09) rotate(-180)"/><rect class="m" x="438.51" y="596" width="22.43" height="9.56" transform="translate(360.64 -144.38) rotate(30)"/><polyline class="l" points="224.1 643.42 704.49 643.42 704.49 596.43 977.86 596.43 977.86 525.96 1130.96 525.96 1130.96 466.49 1225.23 435.44"/></svg>