<?xml version="1.0" encoding="utf-8"?>
<!-- Generator: Adobe Illustrator 18.0.0, SVG Export Plug-In . SVG Version: 6.00 Build 0)  -->
<!DOCTYPE svg PUBLIC "-//W3C//DTD SVG 1.1//EN" "http://www.w3.org/Graphics/SVG/1.1/DTD/svg11.dtd">
<svg version="1.1" id="Layer_1" xmlns="http://www.w3.org/2000/svg" xmlns:xlink="http://www.w3.org/1999/xlink" x="0px" y="0px"
	 viewBox="0 0 288.2 248.7" enable-background="new 0 0 288.2 248.7" xml:space="preserve">
<g>
	<g>
		<g>
			<path fill="#0C56AB" d="M4.6,2.4c0,0.2,0,0.3,0,0.5C4.7,4.1,5,4.8,5.7,5.4C5.6,5.5,5.5,5.6,5.4,5.7c-0.5-0.5-0.8-1.1-1-1.8
				C4.2,4.5,4,5.2,3.4,5.7C3.3,5.6,3.2,5.5,3.1,5.4l0,0c-0.1,0-0.3,0-0.5,0H1.3c-0.6,0-0.9-0.2-0.9-0.9V1H0.3V0.6h2.9V1H0.9v3.6
				C0.9,4.9,1,5,1.3,5h1.3c0.2,0,0.4,0,0.5,0c0,0.1,0,0.2,0,0.3c0.8-0.9,0.9-2.1,0.9-2.9V2h0.4V2.4z M1.1,3.1H2v1.5H1.1V3.1z
				 M2.8,2.7H1.3V1.4h1.5V2.7z M1.3,4.3h0.4V3.4H1.3V4.3z M2.5,1.7H1.6v0.8h0.8V1.7z M3.1,4.6H2.2V3.1h0.9V4.6z M2.9,3.4H2.4v0.9
				h0.4V3.4z M3.9,1.6C3.8,2.1,3.6,2.5,3.4,2.8C3.3,2.8,3.1,2.6,3,2.6C3.4,2,3.7,1.2,3.8,0.3l0.4,0.1c0,0.3-0.1,0.6-0.2,0.9h1.4
				l0.1,0l0.3,0.1C5.7,1.8,5.5,2.5,5.4,2.8L5,2.7C5.1,2.4,5.2,2,5.3,1.6H3.9z"/>
			<path fill="#0C56AB" d="M7.4,2.9c-0.2-0.2-0.7-0.4-1-0.6l0.3-0.3c0.3,0.2,0.8,0.4,1,0.6L7.4,2.9z M6.5,5.4C6.8,5,7.1,4.2,7.3,3.5
				l0.4,0.2C7.5,4.4,7.2,5.1,6.9,5.7L6.5,5.4z M7.6,1.3C7.4,1.1,7,0.8,6.7,0.6l0.3-0.3c0.3,0.2,0.8,0.4,1,0.6L7.6,1.3z M8.6,0.4H9
				v2.1c0,1.2-0.1,2.3-0.9,3.3C8.1,5.7,7.9,5.5,7.8,5.5c0.7-0.9,0.8-1.9,0.8-3V0.4z M8.2,3.6c0-0.4-0.2-1-0.4-1.4L8.1,2
				c0.2,0.4,0.4,1,0.4,1.4L8.2,3.6z M9.4,2c0.2,0.4,0.4,1,0.4,1.3L9.5,3.5C9.4,3.1,9.2,2.6,9.1,2.1L9.4,2z M11.6,0.4v5.3h-0.4V3.3
				l-0.3,0.1c-0.1-0.4-0.3-0.9-0.6-1.3v3.4H9.9V0.5h0.4v1.6L10.6,2c0.2,0.4,0.5,0.9,0.6,1.3V0.4H11.6z"/>
			<path fill="#0C56AB" d="M13.5,4.5c-0.1,0.5-0.4,1-0.7,1.3c-0.1-0.1-0.2-0.2-0.3-0.2c0.3-0.3,0.5-0.7,0.6-1.1L13.5,4.5z M14.5,4.2
				h-1.7V0.5h1.7V4.2z M14.1,0.9h-0.9v0.8h0.9V0.9z M14.1,2h-0.9v0.8h0.9V2z M14.1,3.1h-0.9v0.8h0.9V3.1z M14.2,4.4
				c0.2,0.3,0.4,0.7,0.5,0.9l-0.4,0.2c-0.1-0.3-0.3-0.7-0.5-0.9L14.2,4.4z M18,4.8h-0.4v0.5c0,0.2,0,0.3-0.2,0.4
				c-0.2,0.1-0.4,0.1-0.9,0.1c0-0.1-0.1-0.3-0.1-0.4c0.3,0,0.6,0,0.7,0c0.1,0,0.1,0,0.1-0.1V4.8h-1.9v1H15v-1h-0.4V4.4H15V2.9h1.1
				V2.5h-1.5V2.2h0.9V1.8h-0.6V1.5h0.6V1.1h-0.7V0.8h0.7V0.3h0.4v0.5h0.9V0.3h0.4v0.5h0.7v0.3h-0.7v0.4h0.6v0.3h-0.6v0.4H18v0.3
				h-1.5v0.3h1.2v1.5H18V4.8z M15.4,3.2v0.4h0.7V3.2H15.4z M15.4,4.4h0.7V4h-0.7V4.4z M15.9,1.5h0.9V1.1h-0.9V1.5z M15.9,2.2h0.9
				V1.8h-0.9V2.2z M16.5,3.2v0.4h0.8V3.2H16.5z M17.3,4.4V4h-0.8v0.5H17.3z"/>
			<path fill="#0C56AB" d="M21,5c-0.5,0.3-1.2,0.6-1.9,0.7c-0.1-0.1-0.2-0.3-0.3-0.3c0.6-0.1,1.3-0.3,1.8-0.6L21,5z M23.8,0.5v1.3
				h-4.6V0.5H23.8z M23.4,2.2v2.6h-3.9V2.2H23.4z M19.6,1.5h1V0.9h-1V1.5z M20,3h3V2.5h-3V3z M20,3.7h3V3.3h-3V3.7z M20,4.5h3V4h-3
				V4.5z M20.9,1.5h1V0.9h-1V1.5z M22.3,4.8C23,5,23.7,5.3,24.2,5.5l-0.5,0.2c-0.4-0.2-1.1-0.5-1.7-0.7L22.3,4.8z M22.3,1.5h1V0.9
				h-1V1.5z"/>
			<path fill="#0C56AB" d="M30,1.6c0,0,0,0.2,0,0.2c-0.1,2.5-0.3,3.4-0.5,3.7c-0.1,0.2-0.3,0.2-0.5,0.2c-0.2,0-0.6,0-1,0
				c0-0.1-0.1-0.3-0.1-0.5c0.4,0,0.8,0,0.9,0c0.1,0,0.2,0,0.3-0.1c0.2-0.2,0.3-1,0.5-3.2h-2c-0.1,1.2-0.5,2.7-2.2,3.8
				c-0.1-0.1-0.2-0.3-0.3-0.4c1.6-1,2-2.3,2.1-3.4h-1.9V1.6h1.9c0-0.1,0-0.2,0-0.3v-1h0.5v1c0,0.1,0,0.2,0,0.3H30z"/>
			<path fill="#0C56AB" d="M36.5,3.9v0.4H31V3.9h0.6l-0.1-3.2c0.4-0.1,0.8-0.3,1.1-0.5l0.2,0.4C32.6,0.8,32.3,0.9,32,1l0,0.7h0.8
				v0.4H32l0,0.7h0.8v0.4H32l0,0.7h3.4c0-0.2,0-0.5,0-0.7h-0.8V2.8h0.8c0-0.2,0-0.5,0-0.7h-0.8V1.7h0.8c0-0.3,0-0.5,0-0.7h-0.9V0.6
				H36c0,1,0,2.5-0.1,3.4H36.5z M33.2,4.7c-0.5,0.4-1.2,0.8-1.8,1c-0.1-0.1-0.2-0.2-0.3-0.3c0.6-0.2,1.3-0.6,1.7-1L33.2,4.7z
				 M33.6,2.6c-0.1,0.4-0.2,0.8-0.4,1.1c-0.1-0.1-0.2-0.1-0.3-0.2c0.2-0.3,0.3-0.6,0.3-1L33.6,2.6z M34.1,2.2h-1V0.3h0.4v0.6h1v0.4
				h-1v0.6h0.8v0h0.2v1.6c0,0.2,0,0.3-0.2,0.3c-0.1,0.1-0.3,0.1-0.6,0.1c0-0.1-0.1-0.2-0.1-0.3c0.2,0,0.4,0,0.4,0
				c0.1,0,0.1,0,0.1-0.1V2.2z M34.6,4.4c0.6,0.3,1.3,0.7,1.7,1L36,5.7c-0.4-0.3-1.1-0.7-1.7-1L34.6,4.4z"/>
			<path fill="#0C56AB" d="M40.3,0.4c0,0.1-0.1,0.1-0.1,0.2c0.8,0.9,1.6,1.4,2.6,1.8c-0.1,0.1-0.2,0.2-0.3,0.4
				c-0.9-0.4-1.7-1-2.5-1.9c-0.6,0.8-1.5,1.4-2.5,1.9c-0.1-0.1-0.2-0.3-0.3-0.4c1.1-0.4,2.2-1.3,2.8-2.2L40.3,0.4z M40.2,5.2h2.3
				v0.4h-5.1V5.2h0.8V2.9h0.4v2.2h1.1V1.9h0.5v1.4h1.7v0.4h-1.7V5.2z"/>
			<path fill="#0C56AB" d="M45.5,4.8c-0.4,0.3-1.2,0.6-1.8,0.8c-0.1-0.1-0.2-0.3-0.3-0.3c0.6-0.1,1.4-0.3,1.8-0.6L45.5,4.8z
				 M48.7,3.9v0.4h-2.4v1.4h-0.4V4.3h-2.4V3.9h2.4V3.5H44V3.2h1.8V2.7h-2.1V2.4H45c-0.1-0.2-0.2-0.4-0.3-0.6L45,1.7h-1.5V1.3h1
				c-0.1-0.2-0.3-0.6-0.5-0.9l0.4-0.1c0.2,0.3,0.4,0.6,0.5,0.9l-0.3,0.1h0.7V0.3h0.4v1.1h0.7V0.3h0.4v1.1h0.7l-0.2-0.1
				c0.2-0.2,0.4-0.6,0.5-0.9l0.5,0.1c-0.2,0.3-0.4,0.6-0.5,0.9h0.9v0.4h-1.6l0.4,0.1c-0.1,0.2-0.3,0.4-0.4,0.6h1.4v0.4h-2.2v0.4h1.9
				v0.3h-1.9v0.5H48.7z M45.1,1.7c0.1,0.2,0.3,0.4,0.3,0.6l-0.2,0.1h1.7l-0.2-0.1c0.1-0.2,0.3-0.4,0.4-0.6H45.1z M46.9,4.6
				c0.6,0.2,1.3,0.5,1.7,0.7l-0.3,0.3C48,5.3,47.2,5,46.6,4.8L46.9,4.6z"/>
			<path fill="#0C56AB" d="M51.3,0.6c-0.1,0.3-0.3,0.5-0.5,0.8C51,2,51.1,2.8,51.1,3.5c0,0.9-0.1,1.6-0.3,1.9
				c-0.1,0.1-0.2,0.2-0.3,0.2c-0.2,0-0.4,0-0.7,0c0-0.1-0.1-0.3-0.1-0.4c0.3,0,0.5,0,0.6,0c0.1,0,0.1,0,0.2-0.1
				c0.1-0.2,0.2-0.9,0.2-1.6c0-0.1,0-0.2,0-0.3c-0.3,0.5-0.6,0.9-1,1.2c0-0.1-0.2-0.3-0.3-0.4c0.4-0.3,0.9-0.9,1.2-1.4
				c0-0.3-0.1-0.5-0.2-0.7c-0.2,0.3-0.5,0.5-0.7,0.7c-0.1-0.1-0.2-0.3-0.3-0.4c0.3-0.2,0.5-0.4,0.8-0.7c-0.2-0.2-0.4-0.5-0.6-0.7
				l0.3-0.2c0.2,0.2,0.4,0.4,0.6,0.6c0.2-0.2,0.3-0.4,0.4-0.6L51.3,0.6z M54.6,4.2c-0.3,0.4-0.7,0.6-1.1,0.9c0.5,0.1,1,0.2,1.5,0.3
				c-0.1,0.1-0.2,0.2-0.3,0.4c-0.6-0.1-1.2-0.2-1.7-0.4c-0.6,0.2-1.2,0.3-1.8,0.4c0-0.1-0.1-0.3-0.2-0.4c0.5-0.1,1-0.2,1.5-0.3
				c-0.4-0.2-0.7-0.4-0.9-0.6l0.2-0.1h-0.4V4.1h2.9l0.1,0L54.6,4.2z M52.3,1.1h-1V0.7h1V0.3h0.4v1.1L53,1.2c0.2,0.2,0.4,0.4,0.5,0.5
				h1.2v0.3h-1.3v0.3h1.1v0.3h-1.1v0.3h1.1v0.3h-1.1v0.3h1.4v0.3H52v0.2h-0.4V2.4c-0.1,0.1-0.2,0.2-0.3,0.3
				c-0.1-0.1-0.2-0.2-0.3-0.3c0.3-0.3,0.6-0.7,0.8-1.1l0.4,0.1c-0.1,0.1-0.1,0.2-0.2,0.4H53c-0.1-0.1-0.2-0.3-0.3-0.4v0h-0.4V1.1z
				 M53,2.1h-1v0.3h1V2.1z M53,2.6h-1v0.3h1V2.6z M53,3.2h-1v0.3h1V3.2z M52.1,4.4c0.2,0.2,0.6,0.4,0.9,0.5c0.4-0.1,0.7-0.3,0.9-0.5
				H52.1z M53.8,1.4h-0.4V0.3h0.4v0.4h1.1V1h-1.1V1.4z"/>
			<path fill="#0C56AB" d="M57.4,2.1h1.2v0.4h-1.2v0.2c0.3,0.3,1,1,1.2,1.1l-0.3,0.4c-0.2-0.2-0.6-0.7-0.9-1v2.6H57V3.2
				c-0.3,0.7-0.7,1.3-1.1,1.8c-0.1-0.1-0.2-0.3-0.2-0.4c0.5-0.5,1-1.3,1.3-2h-1.2V2.1H57V1c-0.4,0.1-0.8,0.1-1.2,0.2
				c0-0.1-0.1-0.3-0.1-0.4c0.9-0.1,1.9-0.3,2.5-0.6l0.3,0.3c-0.3,0.1-0.7,0.2-1.1,0.3V2.1z M59.5,4.3h-0.4V1h0.4V4.3z M60.8,0.3v4.8
				c0,0.3-0.1,0.4-0.3,0.5c-0.2,0.1-0.5,0.1-1.1,0.1c0-0.1-0.1-0.3-0.2-0.4c0.4,0,0.8,0,0.9,0c0.1,0,0.2,0,0.2-0.2V0.3H60.8z"/>
		</g>
	</g>
	<g>
		<defs>
			<filter id="Adobe_OpacityMaskFilter" filterUnits="userSpaceOnUse" x="13.6" y="44.3" width="242.7" height="125.5">
				<feColorMatrix  type="matrix" values="1 0 0 0 0  0 1 0 0 0  0 0 1 0 0  0 0 0 1 0"/>
			</filter>
		</defs>
		<mask maskUnits="userSpaceOnUse" x="13.6" y="44.3" width="242.7" height="125.5" id="SVGID_1_">
			<g filter="url(#Adobe_OpacityMaskFilter)">
				<g>
					<path fill="#FFFFFF" d="M160.2,173.9c0,0,0.1-0.1,0.1-0.2C160.2,173.8,160.1,174,160.2,173.9z"/>
					<path fill="#FFFFFF" d="M249.9,94.9l-0.7-8.5l-1.9-2.1l-1.4,6l-2.5,16.6h-49.2l-1.1-1.2l-1.2-2.9l-1.2-4.3l-2.2-4.4v-4.8
						l-1.1-4.2l-2.1-1.3l-1.2-5.2l-2.2,3.2v-2.9l-1.2-4.4l-1.6,1.5l-1.2,2l-1.5,6.4l-1.1,1.3l-3,2.9l-0.2,1.9c0,0-0.9,3.7-0.9,4.7
						c0,1.1-1.4,4.1-1.4,4.1L169,107h-12.9l-0.4-2.3l-1.7-1.1v-4.2l-0.7-2.1V87.1l-1-3.4v-8.4l-1.1-5.2l-1.2-6l-1,7.8v4.6l-1.7,6.3
						l-1,3.4l-1.1,3.1l-1.5,3l-1.8,4.7l-1.7,6.5l-0.9,3.6h-2v-0.6l-1.2-0.6c0,0-0.6,0.5-0.7,0.8c-0.1,0.3-1.1-2.4-1.1-2.4l-0.8-3.4
						l-1.3-3.5v-6.1l-0.5-2.8l-2-2.2l-1.6-7l-1.5-3.1l-0.7,1.6l-0.8-2.4l-2.1,3.5l-2.5,3.3v3.8l-1.8,4.3l-1.1,2.7l-2.4-3.8l-1.8,4.4
						l-1.2-5.6l-2.1-1.6c0,0-0.6,8.9-0.6,9.2c0,0.3-1.1-1.4-1.1-1.4l-0.7-1.3l-1.8,0.7v3.8v2.1l-1.4,2.8l-1.6,4.6H70.5l-1.1-2.8
						l-0.7-4.9l-0.6-5.2l-1-1.8L66,86.5l-2.5,0.3L63,81.6l-1.4-2.8l-2,4.4h-2.9v4.3l-2.2,0.5v2L53,93.3v6.3l-2,2.8v4.6H19.5v0.2v0.1
						v12.5l4.6-10.9h3l3.2,3l2.2-0.2l2,6.7l1.8,3.2l1.5,4.4l2.4,5.4l0.6-1.5l1.6,3h1.9l1.9-7l1.6-6.4l0.5-1.9l1.7-7.4l0.9-2.8h19.7
						l0.6,1.9l0.2,3.6l0.7,3.8c0,0-0.1,2.1-0.1,2.5s0.6,2.1,0.6,2.1v2.4c0,0,0.4,3.9,0.5,4.4c0.1,0.5,0.5,4.7,0.5,4.7l0.5-1.9
						l2.3,4.4l2-2.1l2.2-2.3l0.4-2.5l1.4,0.6l0.8-3.9l0.6-2.8l0.7-2.3l0.3-2.5l1.4-6.1l1.3-4.1H88l1.9,3.2l1,1.6
						c0,0,0.5,1.4,1.5,1.3l1.5-1.3c0,0,0.5,1.8,0.6,2.3c0.1,0.5,0.8,2,0.9,2.4c0.1,0.4,1.9-2.2,1.9-2.2s0.6,4.4,0.8,4.8
						c0.2,0.3,1.2,3.7,1.4,4c0.2,0.3,0.7-0.6,0.8-1.1c0.1-0.4,0.5-3.1,1.1-3.5c0.6-0.4,0.4-3.9,0.4-3.9l0.1-3.7l0.4-1.7l0.5-2.2
						h34.7v1.6l1.1,0.6l0.8-2.2h16.7l0.2,13.8l0.4,5.4c0,0,0.6,8.5,0.7,9c0,0.5,2.1,29,2.1,29.4c0,0.3,1,7.4,0.9,8.9
						c0.4-0.8,1.7-2.9,1.7-2.9l1.2-0.7c0,0,0.2-2.6,0.3-3.1c0-0.4,0.5-5,0.5-5l1.9-11.5l0.2-12.1c0,0,0.3-17.9,0.3-18.2
						c0-0.3,1.5-5,1.5-5l0.9-8h31.9l1.1,6.5l1.3,4.6c0,0,0.8,2.2,1,2.5c0.1,0.3,1-0.3,1.2,0c0.2,0.3,1.8,5.9,1.8,5.9l1.1-2.3
						l1.2,1.1l1.5-4.4l1.5,7.1l2.4-4.7l1.4-4.6l1.9,4.9c0,0,1.5-2.1,1.6-1.8c0.1,0.3,1.4,2.1,1.4,2.1l2.1,12.8l2.4-10.4l1.9,1.5
						l1.4-1.5l2.6,10.4l3.2-2.5l0.7,8.5l1.5,2.8l1.7-10.5l4.7-28h8.2v-0.1V107v-6.7L249.9,94.9z"/>
				</g>
			</g>
		</mask>
		<g mask="url(#SVGID_1_)">
			<g>
				<rect x="13.6" y="44.3" fill="#7F58A5" width="242.7" height="62.8"/>
				<rect x="13.6" y="107" fill="#73B564" width="242.7" height="62.8"/>
			</g>
		</g>
		<line fill="none" stroke="#D9D9D9" stroke-width="0.4523" stroke-miterlimit="10" x1="14" y1="17.5" x2="259.8" y2="17.5"/>
		<line fill="none" stroke="#D9D9D9" stroke-width="0.4523" stroke-miterlimit="10" x1="14" y1="35.5" x2="259.8" y2="35.5"/>
		<line fill="none" stroke="#D9D9D9" stroke-width="0.4523" stroke-miterlimit="10" x1="14" y1="53.4" x2="259.8" y2="53.4"/>
		<line fill="none" stroke="#D9D9D9" stroke-width="0.4523" stroke-miterlimit="10" x1="14" y1="71.3" x2="259.8" y2="71.3"/>
		<line fill="none" stroke="#D9D9D9" stroke-width="0.4523" stroke-miterlimit="10" x1="14" y1="89.2" x2="259.8" y2="89.2"/>
		<line fill="none" stroke="#D9D9D9" stroke-width="0.4523" stroke-miterlimit="10" x1="14" y1="107.1" x2="259.8" y2="107.1"/>
		<line fill="none" stroke="#D9D9D9" stroke-width="0.4523" stroke-miterlimit="10" x1="14" y1="125.1" x2="259.8" y2="125.1"/>
		<line fill="none" stroke="#D9D9D9" stroke-width="0.4523" stroke-miterlimit="10" x1="14" y1="143" x2="259.8" y2="143"/>
		<line fill="none" stroke="#D9D9D9" stroke-width="0.4523" stroke-miterlimit="10" x1="14" y1="160.9" x2="259.8" y2="160.9"/>
		<line fill="none" stroke="#D9D9D9" stroke-width="0.4523" stroke-miterlimit="10" x1="14" y1="178.8" x2="259.8" y2="178.8"/>
		<line fill="none" stroke="#D9D9D9" stroke-width="0.4523" stroke-miterlimit="10" x1="14" y1="196.7" x2="259.8" y2="196.7"/>
		<g>
			<g>
				<path fill="#231F20" d="M14.9,211.4h0.9c0.7,0,1.2,0.3,1.2,1c0,0.7-0.5,1-1.2,1h-0.5v1.3h-0.4V211.4z M15.8,213.1
					c0.6,0,0.9-0.2,0.9-0.7c0-0.5-0.3-0.6-0.9-0.6h-0.5v1.3H15.8z"/>
				<path fill="#231F20" d="M17.9,211.4h0.9c0.7,0,1.2,0.3,1.2,1c0,0.7-0.5,1-1.2,1h-0.5v1.3h-0.4V211.4z M18.8,213.1
					c0.6,0,0.9-0.2,0.9-0.7c0-0.5-0.3-0.6-0.9-0.6h-0.5v1.3H18.8z"/>
				<path fill="#231F20" d="M20.8,211.4h0.4v3.3h-0.4V211.4z"/>
				<path fill="#231F20" d="M22,213.3h1.2v0.3H22V213.3z"/>
				<path fill="#231F20" d="M23.8,213.1c0-1.1,0.6-1.7,1.5-1.7c0.4,0,0.7,0.2,0.9,0.4l-0.2,0.3c-0.2-0.2-0.4-0.3-0.7-0.3
					c-0.6,0-1,0.5-1,1.3c0,0.8,0.4,1.4,1,1.4c0.3,0,0.6-0.1,0.8-0.4l0.2,0.3c-0.3,0.3-0.6,0.5-1,0.5
					C24.4,214.8,23.8,214.2,23.8,213.1z"/>
				<path fill="#231F20" d="M27,211.4h0.9c0.7,0,1.2,0.3,1.2,1c0,0.7-0.5,1-1.2,1h-0.5v1.3H27V211.4z M27.9,213.1
					c0.6,0,0.9-0.2,0.9-0.7c0-0.5-0.3-0.6-0.9-0.6h-0.5v1.3H27.9z"/>
				<path fill="#231F20" d="M29.9,211.4h0.4v3.3h-0.4V211.4z"/>
			</g>
			<path fill="#73B564" d="M10.9,213.2c0,1.8-1.5,3.3-3.3,3.3s-3.3-1.5-3.3-3.3"/>
			<path fill="#7F58A5" d="M4.3,213.2c0-1.8,1.5-3.3,3.3-3.3s3.3,1.5,3.3,3.3"/>
		</g>
		<g>
			<g>
				<path fill="#231F20" d="M53.7,211.4h0.9c0.7,0,1.2,0.3,1.2,1c0,0.7-0.5,1-1.2,1h-0.5v1.3h-0.4V211.4z M54.6,213.1
					c0.6,0,0.9-0.2,0.9-0.7c0-0.5-0.3-0.6-0.9-0.6h-0.5v1.3H54.6z"/>
				<path fill="#231F20" d="M56.7,211.4h0.9c0.7,0,1.2,0.3,1.2,1c0,0.7-0.5,1-1.2,1h-0.5v1.3h-0.4V211.4z M57.6,213.1
					c0.6,0,0.9-0.2,0.9-0.7c0-0.5-0.3-0.6-0.9-0.6h-0.5v1.3H57.6z"/>
				<path fill="#231F20" d="M59.7,211.4h0.4v3.3h-0.4V211.4z"/>
			</g>
			<path fill="#0C56AB" d="M49.7,213.2c0,1.8-1.5,3.3-3.3,3.3s-3.3-1.5-3.3-3.3"/>
			<path fill="#0C56AB" d="M43.1,213.2c0-1.8,1.5-3.3,3.3-3.3s3.3,1.5,3.3,3.3"/>
		</g>
		<g>
			<g>
				<path fill="#231F20" d="M81.6,212.6c0,0.1,0,0.2,0,0.4c0.1,0.9,0.4,1.4,0.9,1.9c-0.1,0.1-0.2,0.2-0.2,0.3
					c-0.4-0.4-0.6-0.8-0.8-1.4c-0.1,0.5-0.3,1-0.7,1.4c0-0.1-0.2-0.2-0.2-0.3l0,0c-0.1,0-0.2,0-0.4,0h-1c-0.5,0-0.6-0.2-0.6-0.7
					v-2.7h-0.2v-0.3h2.2v0.3h-1.7v2.7c0,0.3,0.1,0.4,0.3,0.4h1c0.1,0,0.3,0,0.4,0c0,0.1,0,0.1,0,0.2c0.6-0.7,0.7-1.6,0.7-2.2v-0.3
					h0.3V212.6z M79,213.1h0.7v1.1H79V213.1z M80.3,212.8h-1.2v-1h1.2V212.8z M79.2,214h0.3v-0.7h-0.3V214z M80,212h-0.6v0.6H80V212
					z M80.5,214.2h-0.7v-1.1h0.7V214.2z M80.3,213.3H80v0.7h0.3V213.3z M81.1,212c-0.1,0.3-0.2,0.7-0.4,0.9
					c-0.1-0.1-0.2-0.1-0.3-0.2c0.3-0.4,0.5-1.1,0.6-1.8l0.3,0c0,0.2-0.1,0.5-0.1,0.7h1.1l0.1,0l0.2,0.1c-0.1,0.4-0.2,0.9-0.3,1.2
					l-0.3-0.1c0.1-0.2,0.2-0.5,0.2-0.8H81.1z"/>
				<path fill="#231F20" d="M83.7,212.9c-0.2-0.1-0.5-0.3-0.8-0.5l0.2-0.2c0.3,0.1,0.6,0.3,0.8,0.4L83.7,212.9z M83.1,214.8
					c0.2-0.3,0.4-0.9,0.6-1.4l0.3,0.2c-0.2,0.5-0.4,1-0.6,1.4L83.1,214.8z M83.9,211.7c-0.2-0.1-0.5-0.4-0.7-0.5l0.2-0.2
					c0.2,0.1,0.6,0.3,0.7,0.5L83.9,211.7z M84.6,211H85v1.6c0,0.9-0.1,1.8-0.7,2.5c-0.1-0.1-0.2-0.2-0.3-0.2
					c0.6-0.6,0.6-1.5,0.6-2.3V211z M84.3,213.4c0-0.3-0.2-0.7-0.3-1.1l0.3-0.1c0.1,0.3,0.3,0.8,0.3,1.1L84.3,213.4z M85.2,212.3
					c0.1,0.3,0.3,0.7,0.3,1l-0.2,0.1c0-0.3-0.2-0.7-0.3-1L85.2,212.3z M86.9,211v4h-0.3v-1.8l-0.2,0.1c-0.1-0.3-0.3-0.7-0.4-1v2.6
					h-0.3v-3.9h0.3v1.2l0.2-0.1c0.2,0.3,0.4,0.7,0.5,1V211H86.9z"/>
				<path fill="#231F20" d="M87.8,213.3c0-0.9,0.2-1.6,0.7-2.3l0.3,0.1c-0.4,0.6-0.6,1.4-0.6,2.2s0.2,1.5,0.6,2.2l-0.3,0.1
					C88.1,214.9,87.8,214.2,87.8,213.3z"/>
				<path fill="#231F20" d="M90.7,211.2c-0.1,0.4-0.3,0.8-0.5,1.2c0.3,0.4,0.4,0.7,0.4,1c0,0.2-0.1,0.4-0.2,0.5
					c-0.1,0-0.2,0.1-0.2,0.1c-0.1,0-0.2,0-0.3,0c0-0.1,0-0.2-0.1-0.3c0.1,0,0.2,0,0.3,0c0.1,0,0.1,0,0.1,0c0.1,0,0.1-0.2,0.1-0.3
					c0-0.2-0.1-0.5-0.4-0.9c0.1-0.3,0.3-0.7,0.4-1h-0.6v3.6h-0.3v-3.9h1l0,0L90.7,211.2z M91.5,213.8c-0.2,0.4-0.4,0.7-0.7,1
					c-0.1,0-0.2-0.1-0.3-0.2c0.2-0.2,0.5-0.6,0.6-0.9L91.5,213.8z M92.4,211c0,0.1-0.1,0.1-0.1,0.2c0.4,0.5,0.8,0.8,1.2,1
					c-0.1,0.1-0.2,0.2-0.2,0.3c-0.4-0.3-0.8-0.6-1.2-1c-0.3,0.4-0.8,0.8-1.2,1.1c-0.1-0.1-0.1-0.2-0.2-0.2c0.6-0.3,1.1-0.8,1.4-1.4
					L92.4,211z M92.3,213.5v1.2c0,0.2,0,0.3-0.2,0.3c-0.1,0.1-0.3,0.1-0.7,0.1c0-0.1-0.1-0.2-0.1-0.3c0.3,0,0.5,0,0.5,0
					c0.1,0,0.1,0,0.1-0.1v-1.2h-1.2v-0.3h1.2v-0.5h-0.8v-0.3H93v0.3h-0.7v0.5h1.1v0.3H92.3z M92.8,213.7c0.3,0.3,0.5,0.7,0.7,0.9
					l-0.3,0.2c-0.1-0.3-0.4-0.7-0.6-0.9L92.8,213.7z"/>
				<path fill="#231F20" d="M98,213.5v0.3h-2c-0.2,0.5-0.6,1-1.9,1.3c0-0.1-0.1-0.2-0.2-0.3c1.2-0.3,1.6-0.6,1.8-1H94v-0.3h0.5v-1.1
					h1.3v-0.4h0.3v0.4h1.4v1.1H98z M94.9,211.7h-0.8v-0.3h0.8v-0.5h0.3v0.5h0.6v0.3h-0.6v0.4h-0.3V211.7z M95.8,213.5
					c0-0.1,0-0.2,0-0.3v-0.5h-1v0.8H95.8z M96.2,213.9c0.6,0.2,1.4,0.6,1.8,0.9l-0.2,0.3c-0.4-0.3-1.2-0.7-1.8-1L96.2,213.9z
					 M96.8,211.7h-0.7v-0.3h0.7v-0.4h0.3v0.4h0.8v0.3h-0.8v0.4h-0.3V211.7z M96.1,213.2c0,0.1,0,0.2,0,0.3h1.1v-0.8h-1.1V213.2z"/>
				<path fill="#231F20" d="M102.5,211.2v3.9h-0.3v-0.2h-3.1v0.2h-0.3v-3.9H102.5z M102.2,214.6v-3.1h-3.1v3.1H102.2z M100.6,213.9
					c-0.5,0.1-1,0.2-1.3,0.3l0-0.3c0.3-0.1,0.8-0.1,1.4-0.2L100.6,213.9z M101.8,212.6c-0.1,0.4-0.3,0.8-0.5,1.1
					c0.1,0.2,0.2,0.4,0.4,0.4c0.1,0,0.1-0.2,0.1-0.5c0.1,0.1,0.2,0.1,0.2,0.1c-0.1,0.5-0.2,0.7-0.4,0.6c-0.2,0-0.3-0.2-0.5-0.4
					c-0.2,0.2-0.4,0.4-0.6,0.5c0-0.1-0.1-0.2-0.2-0.2c0.3-0.2,0.5-0.4,0.7-0.6c-0.1-0.4-0.2-0.8-0.2-1.3h-1.4v-0.3h1.4
					c0-0.2,0-0.3,0-0.5h0.3c0,0.2,0,0.3,0,0.5h1v0.3h-1c0,0.4,0.1,0.8,0.2,1c0.1-0.2,0.3-0.5,0.3-0.8L101.8,212.6z M100.5,212.6v0.9
					h-1v-0.9H100.5z M100.2,212.8h-0.5v0.5h0.5V212.8z M101.7,212c-0.1-0.1-0.3-0.2-0.5-0.3l0.2-0.2c0.2,0.1,0.4,0.2,0.5,0.3
					L101.7,212z"/>
				<path fill="#231F20" d="M105.2,211.6l0.2,0.1c-0.2,1.8-0.9,2.8-1.9,3.4c-0.1-0.1-0.2-0.2-0.3-0.3c0.5-0.3,1-0.7,1.3-1.3
					c-0.2-0.2-0.5-0.5-0.7-0.8c-0.1,0.2-0.2,0.3-0.3,0.4c-0.1-0.1-0.2-0.2-0.3-0.2c0.4-0.5,0.7-1.2,0.9-2l0.3,0.1
					c0,0.2-0.1,0.4-0.2,0.6L105.2,211.6L105.2,211.6z M104.1,212c-0.1,0.2-0.1,0.4-0.2,0.5c0.3,0.2,0.5,0.5,0.7,0.7
					c0.1-0.4,0.3-0.8,0.3-1.2H104.1z M106.2,212.3c0.4,0.3,0.9,0.7,1.1,1l-0.3,0.2c-0.2-0.3-0.6-0.6-1-0.9v2.5h-0.3v-4.1h0.3v1.5
					L106.2,212.3z"/>
				<path fill="#231F20" d="M107.8,215.5c0.4-0.6,0.6-1.4,0.6-2.2s-0.2-1.5-0.6-2.2l0.3-0.1c0.4,0.7,0.7,1.4,0.7,2.3
					c0,0.9-0.2,1.6-0.7,2.3L107.8,215.5z"/>
				<path fill="#231F20" d="M80.3,220.5v2.1H80v-0.4c-0.6,0.1-1.1,0.1-1.5,0.2l0-0.3c0.1,0,0.3,0,0.4,0v-1.5h-0.4v-0.3h4v0.3H80.3z
					 M79.3,220H79v-1.4h2.9v1.4h-0.3v-1.1h-2.3V220z M80,220.5h-0.8v0.3H80V220.5z M80,221.1h-0.8v0.3H80V221.1z M79.1,222
					c0.3,0,0.5-0.1,0.8-0.1v-0.3h-0.8V222z M81.3,219.4h-1.8v-0.2h1.8V219.4z M79.5,219.9v-0.2h1.8v0.2H79.5z M82.3,220.9
					c-0.1,0.4-0.4,0.8-0.7,1.1c0.2,0.2,0.5,0.3,0.9,0.4c-0.1,0.1-0.2,0.2-0.2,0.3c-0.3-0.1-0.7-0.3-0.9-0.5
					c-0.3,0.2-0.6,0.4-0.9,0.5c0-0.1-0.1-0.2-0.2-0.3c0.3-0.1,0.6-0.2,0.9-0.4c-0.2-0.2-0.4-0.5-0.5-0.8l0.1,0h-0.3v-0.3H82l0.1,0
					L82.3,220.9z M80.9,221.1c0.1,0.2,0.3,0.5,0.5,0.7c0.2-0.2,0.4-0.4,0.5-0.7H80.9z"/>
				<path fill="#231F20" d="M84.2,220.7c-0.1,0.4-0.3,0.9-0.4,1.2c0.1,0.1,0.2,0.1,0.3,0.2c0.3,0.2,0.7,0.2,1.3,0.2
					c0.6,0,1.3,0,1.8-0.1c0,0.1-0.1,0.2-0.1,0.3c-0.3,0-1.2,0-1.7,0c-0.6,0-1,0-1.3-0.3c-0.2-0.1-0.3-0.3-0.4-0.3
					c-0.1,0-0.3,0.3-0.4,0.6l-0.2-0.3c0.2-0.3,0.4-0.5,0.5-0.5c0.1-0.3,0.3-0.6,0.4-0.9h-0.6c0.1-0.3,0.3-0.6,0.4-1H83v-0.3h1
					c-0.1,0.3-0.3,0.7-0.4,1H84l0.1,0L84.2,220.7z M83.5,219.4c0-0.2-0.2-0.5-0.2-0.7l0.3-0.1c0.1,0.2,0.2,0.5,0.2,0.7L83.5,219.4z
					 M85,220.1c0,0.6-0.1,1.2-0.5,1.7c-0.1-0.1-0.2-0.2-0.3-0.2c0.4-0.6,0.4-1.3,0.4-1.9v-1c0.7,0,1.5-0.1,2-0.3l0.3,0.3
					c-0.5,0.2-1.2,0.2-1.9,0.3v0.7v0.1h2v0.3h-0.8v1.9h-0.3v-1.9H85z"/>
				<path fill="#231F20" d="M87.8,221.9h0.7v-2.5H88v-0.3c0.3-0.1,0.5-0.1,0.7-0.2H89v3h0.7v0.3h-1.8V221.9z"/>
				<path fill="#231F20" d="M90.3,222c1-0.9,1.5-1.6,1.5-2.1c0-0.4-0.2-0.7-0.6-0.7c-0.3,0-0.5,0.2-0.7,0.4l-0.2-0.2
					c0.3-0.3,0.6-0.5,1-0.5c0.6,0,1,0.4,1,1c0,0.7-0.5,1.3-1.3,2.1c0.2,0,0.4,0,0.5,0h0.9v0.4h-2.1V222z"/>
				<path fill="#231F20" d="M94.1,218.6c-0.1,0.3-0.2,0.6-0.4,0.9v3.2h-0.3v-2.6c-0.1,0.2-0.3,0.4-0.4,0.6c0-0.1-0.1-0.3-0.2-0.3
					c0.4-0.4,0.8-1.1,1-1.8L94.1,218.6z M96.9,218.8v3.8h-0.3v-0.2h-2v0.3h-0.3v-3.9H96.9z M96.5,222.1v-3h-2v3H96.5z M95.7,220v0.5
					h0.5v1.2h-1.3v-1.2h0.5V220h-0.7v-0.3h0.7v-0.5h0.3v0.5h0.7v0.3H95.7z M95.9,220.7h-0.8v0.7h0.8V220.7z"/>
				<path fill="#231F20" d="M101,222.1c0,0.2-0.1,0.4-0.2,0.4c-0.2,0.1-0.5,0.1-1,0.1c0-0.1-0.1-0.3-0.1-0.3c0.4,0,0.7,0,0.8,0
					c0.1,0,0.1,0,0.1-0.1v-0.9h-2.2c-0.1,0.5-0.3,1-0.8,1.4c0-0.1-0.2-0.2-0.2-0.2c0.7-0.6,0.8-1.6,0.8-2.3v-1.4h2.8V222.1z
					 M100.7,220.9v-0.8h-2.1c0,0.2,0,0.5,0,0.8H100.7z M98.6,219.1v0.8h2.1v-0.8H98.6z"/>
				<path fill="#231F20" d="M102.9,220.5c-0.2-0.2-0.5-0.4-0.8-0.5l0.2-0.3c0.3,0.1,0.6,0.3,0.8,0.5L102.9,220.5z M102.2,222.3
					c0.2-0.3,0.5-0.9,0.8-1.4l0.2,0.2c-0.2,0.5-0.5,1-0.8,1.4L102.2,222.3z M103.1,219.3c-0.2-0.2-0.5-0.4-0.8-0.5l0.2-0.2
					c0.3,0.1,0.6,0.3,0.8,0.5L103.1,219.3z M106.3,220.9h-0.4v0.7h-1.1v0.6c0,0.2,0,0.3-0.2,0.3c-0.1,0.1-0.4,0.1-0.7,0.1
					c0-0.1-0.1-0.2-0.1-0.3c0.3,0,0.5,0,0.6,0c0.1,0,0.1,0,0.1-0.1v-0.6h-1v-0.3h1v-0.4h-1.3v-0.3h1.3v-0.4h-1v-0.3h2.4v0.7h0.4
					V220.9z M106,218.8c-0.6,0.2-1.6,0.3-2.5,0.4c0-0.1,0-0.2-0.1-0.3c0.8-0.1,1.8-0.2,2.3-0.3L106,218.8z M103.8,219.9
					c0-0.2-0.1-0.4-0.2-0.6l0.2-0.1c0.1,0.2,0.2,0.4,0.3,0.6L103.8,219.9z M104.7,219.8c0-0.2-0.1-0.4-0.2-0.6l0.3-0.1
					c0.1,0.2,0.2,0.4,0.2,0.6L104.7,219.8z M104.9,220.6h0.8v-0.4h-0.8V220.6z M105.6,220.9h-0.8v0.4h0.8V220.9z M105.3,219.7
					c0.1-0.2,0.3-0.5,0.4-0.7l0.3,0.1c-0.1,0.2-0.3,0.5-0.4,0.7L105.3,219.7z"/>
				<path fill="#231F20" d="M108.2,219.9h0.9v0.3h-0.9v0.1c0.2,0.2,0.7,0.7,0.9,0.9l-0.2,0.3c-0.1-0.2-0.4-0.5-0.7-0.8v2h-0.3v-1.9
					c-0.2,0.5-0.6,1-0.9,1.3c0-0.1-0.1-0.2-0.2-0.3c0.4-0.3,0.8-1,1-1.5h-0.9v-0.3h1v-0.8c-0.3,0.1-0.6,0.1-0.9,0.1
					c0-0.1-0.1-0.2-0.1-0.3c0.7-0.1,1.4-0.3,1.9-0.4l0.2,0.3c-0.2,0.1-0.5,0.2-0.8,0.2V219.9z M109.8,221.5h-0.3V219h0.3V221.5z
					 M110.7,218.5v3.6c0,0.2-0.1,0.3-0.2,0.4c-0.1,0.1-0.4,0.1-0.8,0.1c0-0.1-0.1-0.2-0.1-0.3c0.3,0,0.6,0,0.7,0
					c0.1,0,0.1,0,0.1-0.1v-3.6H110.7z"/>
				<path fill="#231F20" d="M115.5,221.7h-1.8v1h-0.4v-1h-1.8v-0.3h1.8V221h0.4v0.4h1.8V221.7z M112.7,220.5c-0.3,0.2-0.7,0.4-1,0.5
					l-0.2-0.3c0.3-0.1,0.7-0.3,1.1-0.5L112.7,220.5z M114.3,221.1c0-0.1-0.1-0.2-0.1-0.2c-1.2,0.1-1.3,0.1-1.4,0.2
					c0-0.1-0.1-0.2-0.1-0.3c0.1,0,0.2-0.1,0.4-0.2c0.1-0.1,0.3-0.2,0.5-0.5c-0.5,0-0.6,0.1-0.7,0.1c0-0.1-0.1-0.2-0.1-0.3
					c0.1,0,0.1-0.1,0.2-0.1c0.1-0.1,0.2-0.2,0.3-0.5h-1.6v-0.3h1.8c-0.1-0.1-0.1-0.2-0.2-0.4l0.3-0.1c0.1,0.1,0.2,0.3,0.3,0.4h1.7
					v0.3h-1.9c-0.1,0.2-0.3,0.4-0.4,0.6l0.6,0c0.1-0.1,0.2-0.2,0.3-0.4l0.3,0.2c-0.4,0.4-0.8,0.8-1.1,1.1l0.8-0.1
					c-0.1-0.1-0.1-0.2-0.2-0.3l0.2-0.1c0.2,0.2,0.4,0.5,0.5,0.8L114.3,221.1z M111.9,219.4c0.2,0.1,0.5,0.4,0.7,0.5l-0.2,0.2
					c-0.1-0.2-0.4-0.4-0.7-0.5L111.9,219.4z M115.2,221.1c-0.2-0.2-0.6-0.4-0.9-0.6l0.2-0.2c0.3,0.2,0.7,0.4,0.9,0.6L115.2,221.1z
					 M115.3,219.6c-0.2,0.2-0.5,0.4-0.7,0.6l-0.2-0.2c0.2-0.1,0.5-0.4,0.6-0.6L115.3,219.6z"/>
				<path fill="#231F20" d="M116.3,220.9c0-0.9,0.2-1.6,0.7-2.3l0.3,0.1c-0.4,0.6-0.6,1.4-0.6,2.2s0.2,1.5,0.6,2.2l-0.3,0.1
					C116.6,222.5,116.3,221.8,116.3,220.9z"/>
				<path fill="#231F20" d="M119.4,219.7c-0.1,0.3-0.3,0.6-0.4,0.9h2.4v2.1h-0.3v-0.2h-2v0.3h-0.3v-1.7c-0.2,0.3-0.5,0.6-0.8,0.8
					c0-0.1-0.2-0.2-0.2-0.3c0.6-0.4,1.1-1.1,1.4-1.8h-1.2v-0.3h1.3c0.1-0.3,0.2-0.6,0.2-0.8l0.3,0.1c-0.1,0.3-0.1,0.5-0.2,0.8h2.2
					v0.3H119.4z M119.1,220.9v1.2h2v-1.2H119.1z"/>
				<path fill="#231F20" d="M123.5,221.5h0.8v0.3h-0.8v0.8h-0.3v-0.8h-0.8v-0.3h0.8v-0.4h-0.7v-1.6h0.7v-0.3h-0.8V219h0.8v-0.5h0.3
					v0.5h0.8v0.3h-0.8v0.3h0.7v1.6h-0.7V221.5z M122.8,220.3h0.4v-0.4h-0.4V220.3z M122.8,220.9h0.4v-0.4h-0.4V220.9z M123.9,219.9
					h-0.5v0.4h0.5V219.9z M123.9,220.5h-0.5v0.4h0.5V220.5z M126.4,219.5v3.1h-0.3v-0.2h-1.4v0.3h-0.3v-3.2h0.8v-1h0.3v1H126.4z
					 M124.7,219.8v1h0.5v-1H124.7z M124.7,222.1h0.5v-1h-0.5V222.1z M126.1,219.8h-0.5v1h0.5V219.8z M126.1,222.1v-1h-0.5v1H126.1z"
					/>
				<path fill="#231F20" d="M127,223.1c0.4-0.6,0.6-1.4,0.6-2.2s-0.2-1.5-0.6-2.2l0.3-0.1c0.4,0.7,0.7,1.4,0.7,2.3
					c0,0.9-0.2,1.6-0.7,2.3L127,223.1z"/>
			</g>
			<path fill="#002A5E" d="M74.6,213.2c0,1.8-1.5,3.3-3.3,3.3S68,215,68,213.2"/>
			<path fill="#002A5E" d="M68,213.2c0-1.8,1.5-3.3,3.3-3.3s3.3,1.5,3.3,3.3"/>
		</g>
		<polygon fill="#73B564" points="194.3,107.1 196.6,104.2 197.8,105.7 200.8,107 		"/>
		<g>
			<path fill="#231F20" d="M5.5,69.8l1.5-2h0.8V70h0.6v0.6H7.8v0.8H7.2v-0.8H5.5V69.8z M7.2,68.5L6.1,70h1.1V68.5z"/>
		</g>
		<g>
			<path fill="#231F20" d="M8,50.5c-0.1-0.1-0.3-0.1-0.6-0.1c-0.7,0-1.1,0.4-1.2,1.1c0.2-0.3,0.5-0.4,0.9-0.4c0.7,0,1.2,0.5,1.2,1.2
				c0,0.7-0.6,1.2-1.3,1.2c-0.9,0-1.4-0.7-1.4-1.6c0-1.3,0.8-2,1.9-2c0.3,0,0.6,0.1,0.7,0.2L8,50.5z M7,52.9c0.4,0,0.7-0.2,0.7-0.7
				c0-0.4-0.3-0.7-0.7-0.7s-0.7,0.2-0.7,0.7C6.3,52.7,6.6,52.9,7,52.9z"/>
		</g>
		<g>
			<path fill="#231F20" d="M5.5,34.5c0-0.4,0.3-0.7,0.6-0.9c-0.3-0.1-0.6-0.5-0.6-0.8c0-0.6,0.5-1,1.2-1s1.2,0.4,1.2,1
				c0,0.3-0.2,0.7-0.6,0.8c0.4,0.1,0.6,0.5,0.6,0.9c0,0.6-0.5,1-1.3,1C6,35.5,5.5,35.1,5.5,34.5z M7.5,34.5c0-0.3-0.2-0.5-0.7-0.5
				c-0.4,0-0.7,0.3-0.7,0.5S6.4,35,6.8,35C7.3,35,7.5,34.7,7.5,34.5z M7.4,32.9c0-0.3-0.2-0.5-0.6-0.5s-0.6,0.2-0.6,0.5
				c0,0.3,0.2,0.5,0.6,0.5C7.2,33.4,7.4,33.2,7.4,32.9z"/>
		</g>
		<g>
			<path fill="#231F20" d="M6.3,17.5v-2.4H5.5v-0.4c0.5,0,0.8-0.3,0.9-0.7h0.6v3.5H6.3z"/>
			<path fill="#231F20" d="M8.1,14.5C8.3,14.2,8.7,14,9.2,14s0.9,0.2,1.1,0.6c0.2,0.4,0.3,0.8,0.3,1.3s-0.1,0.9-0.3,1.3
				c-0.2,0.3-0.6,0.6-1.1,0.6S8.3,17.4,8.1,17c-0.2-0.4-0.3-0.8-0.3-1.3S7.8,14.9,8.1,14.5z M8.7,16.8C8.8,16.9,8.9,17,9.2,17
				s0.4-0.1,0.5-0.3c0.2-0.2,0.2-0.6,0.2-1c0-0.4-0.1-0.8-0.2-1c-0.1-0.2-0.3-0.3-0.5-0.3s-0.4,0.1-0.5,0.3c-0.2,0.2-0.2,0.6-0.2,1
				C8.4,16.2,8.5,16.6,8.7,16.8z"/>
		</g>
		<g>
			<path fill="#231F20" d="M5.8,87c0,0,0-0.1,0-0.2c0-0.6,0.5-1.2,1.2-1.2c0.8,0,1.2,0.5,1.2,1.1c0,0.5-0.3,0.8-0.7,1.1l-0.7,0.4
				c-0.2,0.1-0.3,0.2-0.4,0.4h1.7v0.6H5.8c0-0.6,0.2-1.1,0.8-1.4l0.6-0.4c0.3-0.2,0.4-0.4,0.4-0.7c0-0.3-0.2-0.5-0.6-0.5
				c-0.4,0-0.6,0.3-0.6,0.6c0,0.1,0,0.1,0,0.2L5.8,87z"/>
		</g>
		<g>
			<path fill="#231F20" d="M3.7,123.8v-0.6h1.5v0.6H3.7z"/>
			<path fill="#231F20" d="M5.8,122.8c0,0,0-0.1,0-0.2c0-0.6,0.5-1.2,1.2-1.2c0.8,0,1.2,0.5,1.2,1.1c0,0.5-0.3,0.8-0.7,1.1l-0.7,0.4
				c-0.2,0.1-0.3,0.2-0.4,0.4h1.7v0.6H5.8c0-0.6,0.2-1.1,0.8-1.4l0.6-0.4c0.3-0.2,0.4-0.4,0.4-0.7c0-0.3-0.2-0.5-0.6-0.5
				c-0.4,0-0.6,0.3-0.6,0.6c0,0.1,0,0.1,0,0.2L5.8,122.8z"/>
		</g>
		<g>
			<path fill="#231F20" d="M3.4,195.4v-0.6h1.5v0.6H3.4z"/>
			<path fill="#231F20" d="M6.2,196.7v-2.4H5.4v-0.4c0.5,0,0.8-0.3,0.9-0.7h0.6v3.5H6.2z"/>
			<path fill="#231F20" d="M8,193.7c0.2-0.3,0.6-0.6,1.1-0.6s0.9,0.2,1.1,0.6c0.2,0.4,0.3,0.8,0.3,1.3s-0.1,0.9-0.3,1.3
				c-0.2,0.3-0.6,0.6-1.1,0.6s-0.9-0.2-1.1-0.6c-0.2-0.4-0.3-0.8-0.3-1.3S7.7,194.1,8,193.7z M8.6,196c0.1,0.2,0.3,0.3,0.5,0.3
				s0.4-0.1,0.5-0.3c0.2-0.2,0.2-0.6,0.2-1c0-0.4-0.1-0.8-0.2-1c-0.1-0.2-0.3-0.3-0.5-0.3s-0.4,0.1-0.5,0.3c-0.2,0.2-0.2,0.6-0.2,1
				C8.3,195.4,8.4,195.8,8.6,196z"/>
		</g>
		<g>
			<path fill="#231F20" d="M3.4,177.5V177h1.5v0.6H3.4z"/>
			<path fill="#231F20" d="M5.6,177.9c0-0.4,0.3-0.7,0.6-0.9c-0.3-0.1-0.6-0.5-0.6-0.8c0-0.6,0.5-1,1.2-1c0.7,0,1.2,0.4,1.2,1
				c0,0.3-0.2,0.7-0.6,0.8c0.4,0.1,0.6,0.5,0.6,0.9c0,0.6-0.5,1-1.3,1C6,178.9,5.6,178.5,5.6,177.9z M7.5,177.8
				c0-0.3-0.2-0.5-0.7-0.5c-0.4,0-0.7,0.3-0.7,0.5s0.2,0.5,0.7,0.5C7.3,178.4,7.5,178.1,7.5,177.8z M7.4,176.3
				c0-0.3-0.2-0.5-0.6-0.5c-0.4,0-0.6,0.2-0.6,0.5c0,0.3,0.2,0.5,0.6,0.5C7.2,176.8,7.4,176.6,7.4,176.3z"/>
		</g>
		<g>
			<path fill="#231F20" d="M3.4,159.6V159h1.5v0.6H3.4z"/>
			<path fill="#231F20" d="M8,158c-0.1-0.1-0.3-0.1-0.6-0.1c-0.7,0-1.1,0.4-1.2,1.1c0.2-0.3,0.5-0.4,0.9-0.4c0.7,0,1.2,0.5,1.2,1.2
				c0,0.7-0.6,1.2-1.3,1.2c-0.9,0-1.4-0.7-1.4-1.6c0-1.3,0.8-2,1.9-2c0.3,0,0.6,0.1,0.7,0.2L8,158z M7,160.4c0.4,0,0.7-0.2,0.7-0.7
				c0-0.4-0.3-0.7-0.7-0.7s-0.7,0.2-0.7,0.7C6.3,160.2,6.6,160.4,7,160.4z"/>
		</g>
		<g>
			<path fill="#231F20" d="M3.4,141.7v-0.6h1.5v0.6H3.4z"/>
			<path fill="#231F20" d="M5.5,141.5l1.5-2h0.8v2.2h0.6v0.6H7.8v0.8H7.2v-0.8H5.5V141.5z M7.2,140.1l-1.1,1.5h1.1V140.1z"/>
		</g>
		<g>
			<path fill="#231F20" d="M5.7,104.1c0.2-0.3,0.6-0.6,1.1-0.6s0.9,0.2,1.1,0.6c0.2,0.4,0.3,0.8,0.3,1.3s-0.1,0.9-0.3,1.3
				c-0.2,0.3-0.6,0.6-1.1,0.6s-0.9-0.2-1.1-0.6c-0.2-0.4-0.3-0.8-0.3-1.3S5.5,104.5,5.7,104.1z M6.3,106.4c0.1,0.2,0.3,0.3,0.5,0.3
				s0.4-0.1,0.5-0.3c0.2-0.2,0.2-0.6,0.2-1c0-0.4-0.1-0.8-0.2-1c-0.1-0.2-0.3-0.3-0.5-0.3s-0.4,0.1-0.5,0.3c-0.2,0.2-0.2,0.6-0.2,1
				C6,105.8,6.1,106.2,6.3,106.4z"/>
		</g>
		<g>
			<path fill="#231F20" d="M266.5,68.4c-0.3,0.2-1.3,1.1-1.4,2.9h-0.7c0.2-2,1.4-2.9,1.4-2.9h-1.9v-0.6h2.6V68.4z"/>
		</g>
		<g>
			<path fill="#231F20" d="M264.1,52.4c0-0.4,0.3-0.7,0.6-0.9c-0.3-0.1-0.6-0.5-0.6-0.8c0-0.6,0.5-1,1.2-1s1.2,0.4,1.2,1
				c0,0.3-0.2,0.7-0.6,0.8c0.4,0.1,0.6,0.5,0.6,0.9c0,0.6-0.5,1-1.3,1C264.6,53.5,264.1,53,264.1,52.4z M266.1,52.4
				c0-0.3-0.2-0.5-0.7-0.5c-0.4,0-0.7,0.3-0.7,0.5s0.2,0.5,0.7,0.5C265.9,52.9,266.1,52.7,266.1,52.4z M266,50.8
				c0-0.3-0.2-0.5-0.6-0.5s-0.6,0.2-0.6,0.5c0,0.3,0.2,0.5,0.6,0.5C265.8,51.3,266,51.1,266,50.8z"/>
		</g>
		<g>
			<path fill="#231F20" d="M264.4,34.8c0.1,0.1,0.4,0.2,0.6,0.2c0.7,0,1.1-0.4,1.2-1.1c-0.1,0.2-0.4,0.4-0.9,0.4
				c-0.6,0-1.2-0.4-1.2-1.2c0-0.7,0.6-1.2,1.3-1.2c0.7,0,1.4,0.5,1.4,1.6c0,1.3-0.6,2-1.8,2c-0.3,0-0.6-0.1-0.8-0.2L264.4,34.8z
				 M265.4,32.4c-0.4,0-0.7,0.3-0.7,0.6c0,0.4,0.3,0.7,0.7,0.7c0.4,0,0.7-0.3,0.7-0.7C266.1,32.7,265.8,32.4,265.4,32.4z"/>
		</g>
		<g>
			<path fill="#231F20" d="M264.9,17.5v-2.4h-0.8v-0.4c0.5,0,0.8-0.3,0.9-0.7h0.6v3.5H264.9z"/>
			<path fill="#231F20" d="M266.7,14.5c0.2-0.3,0.6-0.6,1.1-0.6c0.5,0,0.9,0.2,1.1,0.6c0.2,0.4,0.3,0.8,0.3,1.3s-0.1,0.9-0.3,1.3
				c-0.2,0.3-0.6,0.6-1.1,0.6c-0.5,0-0.9-0.2-1.1-0.6c-0.2-0.4-0.3-0.8-0.3-1.3S266.4,14.9,266.7,14.5z M267.2,16.8
				c0.1,0.2,0.3,0.3,0.5,0.3s0.4-0.1,0.5-0.3c0.2-0.2,0.2-0.6,0.2-1c0-0.4-0.1-0.8-0.2-1c-0.1-0.2-0.3-0.3-0.5-0.3s-0.4,0.1-0.5,0.3
				c-0.2,0.2-0.2,0.6-0.2,1C267,16.2,267.1,16.6,267.2,16.8z"/>
		</g>
		<g>
			<path fill="#231F20" d="M266.9,86.3c-0.1-0.1-0.3-0.1-0.6-0.1c-0.7,0-1.1,0.4-1.2,1.1c0.2-0.3,0.5-0.4,0.9-0.4
				c0.7,0,1.2,0.5,1.2,1.2c0,0.7-0.6,1.2-1.3,1.2c-0.9,0-1.4-0.7-1.4-1.6c0-1.3,0.8-2,1.9-2c0.3,0,0.6,0.1,0.7,0.2L266.9,86.3z
				 M265.8,88.8c0.4,0,0.7-0.2,0.7-0.7c0-0.4-0.3-0.7-0.7-0.7s-0.7,0.2-0.7,0.7C265.1,88.5,265.5,88.8,265.8,88.8z"/>
		</g>
		<g>
			<path fill="#231F20" d="M262.2,123.6l1.5-2h0.8v2.2h0.6v0.6h-0.6v0.8h-0.6v-0.8h-1.7V123.6z M263.9,122.2l-1.1,1.5h1.1V122.2z"/>
		</g>
		<g>
			<path fill="#231F20" d="M262.3,193.7c0.2-0.3,0.6-0.6,1.1-0.6c0.5,0,0.9,0.2,1.1,0.6c0.2,0.4,0.3,0.8,0.3,1.3s-0.1,0.9-0.3,1.3
				c-0.2,0.3-0.6,0.6-1.1,0.6c-0.5,0-0.9-0.2-1.1-0.6c-0.2-0.4-0.3-0.8-0.3-1.3S262.1,194.1,262.3,193.7z M262.9,196
				c0.1,0.2,0.3,0.3,0.5,0.3s0.4-0.1,0.5-0.3c0.2-0.2,0.2-0.6,0.2-1c0-0.4-0.1-0.8-0.2-1c-0.1-0.2-0.3-0.3-0.5-0.3s-0.4,0.1-0.5,0.3
				c-0.2,0.2-0.2,0.6-0.2,1C262.7,195.4,262.7,195.8,262.9,196z"/>
		</g>
		<g>
			<path fill="#231F20" d="M262.8,178.8v-2.4h-0.8V176c0.5,0,0.8-0.3,0.9-0.7h0.6v3.5H262.8z"/>
		</g>
		<g>
			<path fill="#231F20" d="M262,158.7c0,0,0-0.1,0-0.2c0-0.6,0.5-1.2,1.2-1.2c0.8,0,1.2,0.5,1.2,1.1c0,0.5-0.3,0.8-0.7,1.1l-0.7,0.4
				c-0.2,0.1-0.3,0.2-0.4,0.4h1.7v0.6H262c0-0.6,0.2-1.1,0.8-1.4l0.6-0.4c0.3-0.2,0.4-0.4,0.4-0.7c0-0.3-0.2-0.5-0.6-0.5
				c-0.4,0-0.6,0.3-0.6,0.6c0,0.1,0,0.1,0,0.2L262,158.7z"/>
		</g>
		<g>
			<path fill="#231F20" d="M262.7,140.9l1-0.9H262v-0.6h2.4v0.5l-1,0.8c0.5,0,1,0.4,1,1.1c0,0.6-0.5,1.1-1.3,1.1
				c-0.8,0-1.3-0.5-1.3-1.1l0.6-0.1c0,0.4,0.3,0.7,0.7,0.7c0.4,0,0.7-0.3,0.7-0.6c0-0.4-0.3-0.6-0.6-0.6c-0.2,0-0.3,0-0.3,0.1
				L262.7,140.9z"/>
		</g>
		<g>
			<path fill="#231F20" d="M264.5,106c0,0.4,0.3,0.7,0.7,0.7c0.4,0,0.7-0.2,0.7-0.6c0-0.4-0.3-0.6-0.7-0.6c-0.2,0-0.5,0.1-0.6,0.2
				l-0.6-0.2l0.4-1.8h1.9v0.6h-1.5l-0.2,0.9c0.2-0.2,0.4-0.2,0.7-0.2c0.7,0,1.2,0.4,1.2,1.2c0,0.7-0.5,1.2-1.3,1.2
				c-0.8,0-1.3-0.5-1.3-1.1L264.5,106z"/>
		</g>
		
			<path fill="none" stroke="#0C56AB" stroke-width="0.6784" stroke-linecap="round" stroke-linejoin="round" stroke-miterlimit="10" d="
			M19.5,101.9l1.4,0.6l5.6-9l3.3,5l0.5,2.4l2.7,1.6l1.8,3.3l1.5,4.4c0,0,0.9,4.4,1,4.8c0.1,0.3,1.4,4.3,1.4,4.3s0.8,3.4,1.1,3.8
			c0.3,0.3,2.6,3.4,2.6,3.4l2.5-4.2l1.1-4.1l1.3-6.3l1.8-10.9l2.3-10.3l1.7-16.9l1.5-4h1.5l1.4-5.7h2.3v-5.5l2.5-2.2l1,0.6v8.3
			l3.2,5.4l2.3,5.9l2.1,11.1l1,3.8l0.7,9v8.5l0.6,3.6l0.6,1.5l2.2-0.7l2.8-2.1c0,0,1.7,3,1.8,2.6c0.1-0.3,2.1-4.2,2.1-4.2l1-5.1
			l1.3-5.4L86,98l0.6-5.1c0,0,2.2-8.3,2.5-8.1s1,5.4,1,5.4v4.2l1.5,2.2l2.3-1.8l1.5,3.2l1.5-3.5l0.8,4.2l0.9,4.3l0.9,4.2l1.5-0.8v-5
			l1.6-15.8l1.6-2.8l2.2-5.9v-5.4l1.1,1.2l1,1.4l1-2.1v-3l2.7-1.4l1.5,3.2V75l1-3.7l1.1-1.1l2.8-1.1l2.1-2.7l0.9-5.6v-3l2.8-1.4
			l0.5-3l2.6,1.3l0.6,2.5l0.8,7.5l0.9,7.4l1.3-0.8l1.4,5.1v5.8l2.1,4.1v4.3l3-2.1l0.5,3.9l1.4,1.1l0.6-2.5v-9.7l1.7-13.1l2.1-4.1
			l2.1-9.3l1.8-8.8l1-11.7l1-7.6l1.1,9.3l1.6,7.7l0.6,7.9v10l0.9,14.9l0.9,24.7l2.6,35.1l1.7,24.6l1.5,17.2l1.4-4.7l1-0.3
			c0,0,0.9-9.6,0.9-9.9c0-0.3,0.9-7.6,0.9-7.6l1.5-23.2l2.7-32.4l1.9-19.7l1.3-4.4l1-3.9l1-2.5l1.9-1.1l1.3-9.7l1.2-7l2.4-2.4l1,8.8
			l2.1-3.1l3.8,4.1l0.7,8.9l3.4,7v6.5l3.1,7.8l1.4-8.1l2.6,5.1l2.6,8l1.5,11.5l0.9,5.3l0.8-4.6l2.5,9.1h1.1l1,3l1.7-4.3l1.4,7.6
			l1.6-0.3l2-6.5l1.8,5.4l3.6-0.1l1.3,18.5l2.8-12.2h3.3l1.8,9.6l2.2-2.3l1.8,0.7l0.7,8.5l1.5,2.8l6.9-41.2l2.7-37l1.5,2.2l1.7,1.7
			v9.8l0.9,3.8"/>
		
			<polyline fill="none" stroke="#002A5E" stroke-width="0.6784" stroke-linecap="round" stroke-linejoin="round" stroke-miterlimit="10" points="
			19.5,127.6 30.3,127.6 30.3,117.3 40.8,118.3 42.2,111.9 53.1,111.9 54.2,100.9 56.2,99.8 60.4,98.7 61.6,95.7 64,95.7 64.9,83.1 
			67,83.1 68.2,84.5 72.6,84.6 73.5,87.6 75.5,87.9 76.3,145.2 81.3,148.1 81.3,161.8 83.6,161.8 84.6,178.1 89,176.6 89.6,167.1 
			91.9,167.1 93,174.7 95,174.9 95.6,150 97.7,149.7 98.7,121.1 100.6,120 101.3,113.5 103.5,113.2 103.5,109.1 106.2,108.3 
			106.7,100.8 109.2,99.2 110,90 112.2,89.2 112.2,81.4 114.3,80.6 115.3,73.4 117.1,73.4 118,67.6 120.7,66.3 121.4,62.3 
			123.4,62.3 123.4,58.5 126.1,58.5 126.7,53.4 128.8,53.4 129.4,49.8 131.3,49.1 132.7,46.4 135.1,46.4 135.1,39.7 137.5,39.7 
			138.1,34.8 140,33.1 140.7,30.3 142.8,30.3 144.1,37.3 146.1,37.9 147.6,46 149.3,46.6 149.3,54.2 151.5,54.2 153,61.7 
			154.5,62.8 155.7,122.4 157.4,122.3 157.4,132.7 159.3,132.8 161.7,156.2 162.8,157.9 164,162 165.7,161.8 166.7,113.5 169,112.1 
			169,99.9 171.7,98.6 172.5,88.5 174.3,87.5 174.3,80.6 177.2,79.6 177.9,66.9 179.8,66 181.7,63.8 183.9,62.2 185.4,62.8 
			185.4,66.5 186.4,74.8 188.5,74.7 188.5,101.2 193,101.6 194.3,104.2 194.3,112 197.1,112.4 197.8,105.7 200.1,105.7 200.1,111.5 
			203.9,111 206.7,111.1 208.4,110.6 209.2,105.7 211.6,105.7 214,108.4 218.5,108.2 222.2,112.1 222.8,103.3 225.3,102.4 
			225.3,97.9 226.9,97.8 228.2,94.6 230.9,94.3 232.2,100.7 233.5,100.9 234.3,107.9 236.1,108.1 236.1,110.2 238.9,110.6 
			240.6,112.9 243.1,113.1 245.2,104.8 246,94.9 247.5,94.7 248,89.2 249.8,89.2 251.5,80.9 		"/>
		<g>
			<g>
				<path fill="#7F58A5" d="M200.9,45.6h1v0.3h-1v0.1c0.2,0.2,0.8,0.8,1,0.9l-0.2,0.3c-0.2-0.2-0.5-0.6-0.7-0.8v2.2h-0.4v-2.1
					c-0.3,0.6-0.6,1.1-0.9,1.5c0-0.1-0.1-0.3-0.2-0.3c0.4-0.4,0.8-1.1,1.1-1.7h-1v-0.3h1v-0.8c-0.3,0.1-0.6,0.1-1,0.2
					c0-0.1-0.1-0.2-0.1-0.3c0.7-0.1,1.6-0.3,2.1-0.5l0.3,0.3c-0.2,0.1-0.6,0.2-0.9,0.3V45.6z M202.6,47.4h-0.4v-2.7h0.4V47.4z
					 M203.7,44.2v4c0,0.3-0.1,0.4-0.2,0.4c-0.2,0.1-0.4,0.1-0.9,0.1c0-0.1-0.1-0.3-0.1-0.4c0.3,0,0.7,0,0.8,0c0.1,0,0.1,0,0.1-0.1
					v-4H203.7z"/>
				<path fill="#7F58A5" d="M205.3,46.3c-0.2-0.2-0.5-0.4-0.8-0.5l0.2-0.3c0.3,0.1,0.6,0.3,0.8,0.5L205.3,46.3z M204.6,48.4
					c0.2-0.4,0.5-1,0.7-1.6l0.3,0.2c-0.2,0.5-0.4,1.1-0.6,1.6L204.6,48.4z M204.9,44.2c0.3,0.1,0.6,0.3,0.8,0.5l-0.2,0.3
					c-0.2-0.2-0.5-0.4-0.8-0.5L204.9,44.2z M206.1,46v2.7h-0.3v-4.3h1.3V46H206.1z M206.1,44.6V45h0.7v-0.4H206.1z M206.8,45.7v-0.4
					h-0.7v0.4H206.8z M208.2,48.1h-1.9v-0.3h0.8v-0.5h-0.6V47h0.6v-0.4h-0.7v-0.3h1.7v0.3h-0.7V47h0.6v0.3h-0.6v0.5h0.8V48.1z
					 M208.8,48.2c0,0.2,0,0.3-0.2,0.4c-0.1,0.1-0.3,0.1-0.7,0.1c0-0.1-0.1-0.2-0.1-0.3c0.2,0,0.5,0,0.5,0c0.1,0,0.1,0,0.1-0.1V46
					h-1.1v-1.7h1.4V48.2z M207.8,44.6V45h0.7v-0.4H207.8z M208.5,45.7v-0.4h-0.7v0.4H208.5z"/>
				<path fill="#7F58A5" d="M210.6,46.8v1.4c0,0.2,0,0.3-0.2,0.4c-0.1,0.1-0.3,0.1-0.6,0.1c0-0.1-0.1-0.3-0.1-0.4c0.2,0,0.4,0,0.4,0
					c0.1,0,0.1,0,0.1-0.1v-1.3c-0.2,0.1-0.4,0.1-0.6,0.2l-0.1-0.4c0.2,0,0.4-0.1,0.7-0.2v-1.1h-0.6v-0.3h0.6v-1h0.3v1h0.5v0.3h-0.5
					v1l0.5-0.2l0,0.3L210.6,46.8z M214.2,46.1v0.3h-2.6c0,0.7-0.1,1.7-0.6,2.3c0-0.1-0.2-0.2-0.3-0.2c0.5-0.6,0.5-1.5,0.5-2.2v-1.8
					h1.4c0-0.1-0.1-0.2-0.1-0.3l0.3-0.1c0.1,0.1,0.1,0.3,0.2,0.4h1.1v0.3h-2.5v1.3H214.2z M212.6,48.2c-0.3,0.2-0.7,0.3-0.9,0.5
					c0-0.1-0.1-0.2-0.2-0.2c0.2-0.1,0.6-0.3,0.8-0.4L212.6,48.2z M212.1,45.9v-0.5h-0.4v-0.2h0.4v-0.3h0.3v0.3h0.8v-0.3h0.3v0.3h0.4
					v0.2h-0.4v0.5H212.1z M214,47.9h-2.2v-1.3h2.2V47.9z M212.1,47.1h0.6v-0.3h-0.6V47.1z M212.1,47.7h0.6v-0.3h-0.6V47.7z
					 M212.4,45.4v0.3h0.8v-0.3H212.4z M213.7,46.8H213v0.3h0.6V46.8z M213.7,47.4H213v0.3h0.6V47.4z M213.3,48
					c0.3,0.1,0.6,0.3,0.8,0.5l-0.2,0.2c-0.2-0.1-0.5-0.3-0.8-0.5L213.3,48z"/>
				<path fill="#7F58A5" d="M216.2,46.6c0,0,0,0.1,0,0.2c-0.1,1.2-0.1,1.6-0.3,1.8c-0.1,0.1-0.2,0.1-0.3,0.1c-0.1,0-0.4,0-0.6,0
					c0-0.1,0-0.3-0.1-0.4c0.2,0,0.5,0,0.6,0c0.1,0,0.1,0,0.2-0.1c0.1-0.1,0.1-0.4,0.2-1.4h-1c0-0.4,0.1-1,0.1-1.4h1v-0.8h-1.1v-0.3
					h1.4v1.4h-1c0,0.3,0,0.5,0,0.8L216.2,46.6z M219.1,47.1c-0.2,0.2-0.5,0.4-0.7,0.5c0.3,0.3,0.6,0.5,0.9,0.7
					c-0.1,0.1-0.2,0.2-0.3,0.3c-0.7-0.4-1.3-1.1-1.6-1.9H217v1.5l0.8-0.3c0,0.1,0,0.2,0,0.3c-0.9,0.3-1.1,0.4-1.2,0.5
					c0-0.1-0.1-0.2-0.2-0.3c0.1,0,0.1-0.1,0.1-0.3v-1.3h-0.3v-0.3h0.4v-2.1h2.3v0.3h-2V45h1.8v0.3h-1.8v0.4h1.8V46h-1.8v0.4h2.1v0.3
					h-1.5c0.1,0.2,0.3,0.5,0.4,0.7c0.2-0.2,0.5-0.4,0.6-0.6L219.1,47.1z"/>
			</g>
		</g>
		<g>
			<g>
				<path fill="#73B564" d="M200.9,153.7h1v0.3h-1v0.1c0.2,0.2,0.8,0.8,1,0.9l-0.2,0.3c-0.2-0.2-0.5-0.6-0.7-0.8v2.2h-0.4v-2.1
					c-0.3,0.6-0.6,1.1-0.9,1.5c0-0.1-0.1-0.3-0.2-0.3c0.4-0.4,0.8-1.1,1.1-1.7h-1v-0.3h1v-0.8c-0.3,0.1-0.6,0.1-1,0.2
					c0-0.1-0.1-0.2-0.1-0.3c0.7-0.1,1.6-0.3,2.1-0.5l0.3,0.3c-0.2,0.1-0.6,0.2-0.9,0.3V153.7z M202.6,155.5h-0.4v-2.7h0.4V155.5z
					 M203.7,152.2v4c0,0.3-0.1,0.4-0.2,0.4c-0.2,0.1-0.4,0.1-0.9,0.1c0-0.1-0.1-0.3-0.1-0.4c0.3,0,0.7,0,0.8,0c0.1,0,0.1,0,0.1-0.1
					v-4H203.7z"/>
				<path fill="#73B564" d="M205.3,154.3c-0.2-0.2-0.5-0.4-0.8-0.5l0.2-0.3c0.3,0.1,0.6,0.3,0.8,0.5L205.3,154.3z M204.6,156.5
					c0.2-0.4,0.5-1,0.7-1.6l0.3,0.2c-0.2,0.5-0.4,1.1-0.6,1.6L204.6,156.5z M204.9,152.2c0.3,0.1,0.6,0.3,0.8,0.5l-0.2,0.3
					c-0.2-0.2-0.5-0.4-0.8-0.5L204.9,152.2z M206.1,154v2.7h-0.3v-4.3h1.3v1.7H206.1z M206.1,152.7v0.4h0.7v-0.4H206.1z
					 M206.8,153.7v-0.4h-0.7v0.4H206.8z M208.2,156.1h-1.9v-0.3h0.8v-0.5h-0.6v-0.3h0.6v-0.4h-0.7v-0.3h1.7v0.3h-0.7v0.4h0.6v0.3
					h-0.6v0.5h0.8V156.1z M208.8,156.3c0,0.2,0,0.3-0.2,0.4c-0.1,0.1-0.3,0.1-0.7,0.1c0-0.1-0.1-0.2-0.1-0.3c0.2,0,0.5,0,0.5,0
					c0.1,0,0.1,0,0.1-0.1V154h-1.1v-1.7h1.4V156.3z M207.8,152.7v0.4h0.7v-0.4H207.8z M208.5,153.7v-0.4h-0.7v0.4H208.5z"/>
				<path fill="#73B564" d="M212,152.9v0.9l0.1-0.1c0.6,0.3,1.4,0.7,1.8,1l-0.3,0.3c-0.3-0.3-1-0.7-1.6-1v2.6h-0.4v-3.8h-1.9v-0.4
					h4.4v0.4H212z"/>
				<path fill="#73B564" d="M215.6,154.4c-0.2-0.1-0.6-0.4-0.8-0.5l0.2-0.3c0.3,0.1,0.7,0.4,0.9,0.5L215.6,154.4z M214.9,156.4
					c0.2-0.4,0.5-1,0.8-1.6l0.3,0.2c-0.2,0.5-0.5,1.1-0.7,1.6L214.9,156.4z M215.9,153.1c-0.2-0.2-0.6-0.5-0.9-0.6l0.2-0.2
					c0.3,0.2,0.7,0.4,0.9,0.6L215.9,153.1z M219.2,153.7v0.8h-0.4V154h-2.6v0.5H216v-0.8h0.5v-1.3h2.2v1.3H219.2z M218.7,156.3
					c0,0.2,0,0.3-0.2,0.3c-0.1,0.1-0.4,0.1-0.7,0.1c0-0.1-0.1-0.2-0.1-0.3c0.3,0,0.5,0,0.6,0c0.1,0,0.1,0,0.1-0.1v-0.6
					c-0.5,0.1-1,0.2-1.5,0.3l-0.1-0.3c0.4-0.1,1-0.2,1.6-0.3v-0.8h-1.6v0.5c0,0.5-0.1,1.2-0.4,1.7c-0.1-0.1-0.2-0.2-0.3-0.2
					c0.3-0.4,0.4-1,0.4-1.4v-0.8h2.3V156.3z M216.8,153.7h0.6V153h0.9v-0.3h-1.5V153.7z M217.1,154.9c0.4,0,0.9,0.1,1.2,0.3
					l-0.1,0.3c-0.3-0.1-0.8-0.2-1.2-0.3L217.1,154.9z M218.3,153.2h-0.6v0.5h0.6V153.2z"/>
			</g>
		</g>
		<g>
			<polygon fill="#7F58A5" points="273.7,105.7 283.3,105.7 283.3,29.3 288.2,29.3 278.6,17.5 268.8,29.3 273.4,29.3 			"/>
			<polygon fill="#73B564" points="283.3,108.6 273.7,108.6 273.7,184.4 268.8,184.4 278.3,196.2 288.2,184.4 283.6,184.4 			"/>
		</g>
	</g>
	<g>
		<g>
			<path fill="#A7A9AC" d="M5.5,232.7H3.9v-0.3h1.5V232.7z M5.9,235.5c-0.4,0.3-1.1,0.5-1.6,0.7C4.2,236,4,235.9,4,235.8
				c0.5-0.1,1.2-0.3,1.6-0.5L5.9,235.5z M5.3,231.8H4v-0.3h1.3V231.8z M4.6,233.1h3.5v2.2H4.6V233.1z M5,233.7h2.7v-0.4H5V233.7z
				 M5,234.4h2.7V234H5V234.4z M5,235h2.7v-0.4H5V235z M6.3,231.9c-0.1,0.2-0.3,0.4-0.4,0.5c-0.1-0.1-0.2-0.2-0.3-0.2
				c0.3-0.3,0.5-0.6,0.6-1l0.4,0.1c0,0.1-0.1,0.2-0.1,0.3h1.8l0.1,0l0.3,0.1c-0.1,0.3-0.3,0.6-0.5,0.8l-0.3-0.1
				c0.1-0.1,0.2-0.3,0.3-0.4H7.2v0.1c0,0.1,0,0.1,0,0.2c0.3,0.3,0.9,0.5,1.6,0.6c-0.1,0.1-0.2,0.2-0.2,0.3c-0.6-0.1-1.1-0.3-1.5-0.6
				c-0.2,0.3-0.6,0.5-1.6,0.7c0-0.1-0.1-0.2-0.2-0.3c1.4-0.2,1.5-0.6,1.5-0.8v-0.1H6.3z M7.1,235.3c0.6,0.2,1.2,0.4,1.6,0.6
				l-0.4,0.2c-0.3-0.2-0.9-0.4-1.5-0.6L7.1,235.3z"/>
			<path fill="#A7A9AC" d="M10.2,233.8c-0.1,0.6-0.3,1.4-0.6,1.7c0-0.1-0.1-0.3-0.2-0.4c0.2-0.3,0.4-0.9,0.5-1.4L10.2,233.8z
				 M10.7,233.4v2.7h-0.4v-2.7H9.4V233h0.9v-1.8h0.4v1.8h0.9v0.4H10.7z M9.8,232.8c0-0.3-0.2-0.8-0.3-1.2l0.3-0.1
				c0.2,0.4,0.3,0.9,0.3,1.2L9.8,232.8z M10.9,233.7c0.1,0.2,0.5,0.9,0.6,1.1l-0.3,0.3c-0.1-0.3-0.4-1-0.5-1.2L10.9,233.7z
				 M11.6,231.6c-0.1,0.4-0.3,0.9-0.4,1.2l-0.3-0.1c0.1-0.3,0.3-0.8,0.4-1.2L11.6,231.6z M13.7,234.6v1.5h-0.4v-1.4l-1.7,0.3
				l-0.1-0.4l1.7-0.3v-3.1h0.4v3l0.6-0.1l0.1,0.4L13.7,234.6z M12.6,233.8c-0.2-0.2-0.6-0.5-0.9-0.6l0.2-0.3
				c0.3,0.2,0.7,0.4,0.9,0.6L12.6,233.8z M12.8,232.5c-0.2-0.2-0.5-0.5-0.8-0.7l0.2-0.3c0.3,0.2,0.7,0.5,0.8,0.7L12.8,232.5z"/>
			<path fill="#A7A9AC" d="M17.6,233.6c0.5,0.8,1.4,1.6,2.3,1.9c-0.1,0.1-0.2,0.2-0.3,0.4c-0.7-0.3-1.5-0.9-2-1.6v1.9h-0.4v-1.8
				c-0.5,0.7-1.3,1.3-2,1.6c-0.1-0.1-0.2-0.3-0.3-0.3c0.9-0.4,1.8-1.1,2.3-1.9v-1.3h-2.1v-0.4h2.1v-0.7h0.4v0.7h2.1v0.4h-2.1V233.6z
				 M16.4,232.5c-0.1,0.2-0.1,0.4-0.2,0.6c0.2,0.2,0.5,0.4,0.6,0.6l-0.3,0.3c-0.1-0.1-0.3-0.3-0.5-0.5c-0.2,0.3-0.4,0.6-0.7,0.8
				c-0.1-0.1-0.2-0.2-0.3-0.3c0.5-0.4,0.8-0.9,1-1.6L16.4,232.5z M19,232.5c0,0.2-0.1,0.4-0.2,0.6c0.3,0.3,0.8,0.6,1,0.8l-0.3,0.3
				c-0.2-0.2-0.5-0.5-0.8-0.8c-0.1,0.2-0.3,0.5-0.5,0.6c-0.1-0.1-0.2-0.2-0.3-0.2c0.4-0.3,0.6-0.9,0.8-1.5L19,232.5z"/>
			<path fill="#A7A9AC" d="M21.3,233.6c-0.2-0.2-0.6-0.4-0.9-0.6l0.2-0.3c0.3,0.2,0.7,0.4,0.9,0.5L21.3,233.6z M21.7,234.3
				c-0.2,0.6-0.5,1.2-0.8,1.7l-0.4-0.2c0.2-0.4,0.6-1.1,0.8-1.7L21.7,234.3z M21.6,232.1c-0.2-0.2-0.6-0.4-0.9-0.6l0.2-0.3
				c0.3,0.2,0.7,0.4,0.9,0.6L21.6,232.1z M22.4,232.9c0,0.9-0.1,2.3-0.7,3.2c-0.1-0.1-0.2-0.2-0.3-0.2c0.6-0.9,0.7-2.1,0.7-3v-1.5
				h3.3v0.4h-2.9V232.9z M23.3,234.7c-0.2,0.4-0.4,0.8-0.7,1.1c-0.1-0.1-0.2-0.2-0.3-0.2c0.2-0.3,0.5-0.6,0.6-1L23.3,234.7z
				 M24.1,234.3v1.4c0,0.2,0,0.3-0.2,0.4c-0.1,0.1-0.4,0.1-0.7,0.1c0-0.1-0.1-0.2-0.1-0.3c0.3,0,0.5,0,0.6,0c0.1,0,0.1,0,0.1-0.1
				v-1.4h-1v-1.8h0.8c0.1-0.2,0.1-0.4,0.2-0.5l0.4,0.1c-0.1,0.2-0.2,0.3-0.2,0.5h1.2v1.8H24.1z M23.1,233.2h1.6v-0.5h-1.6V233.2z
				 M23.1,234h1.6v-0.5h-1.6V234z M24.8,234.6c0.2,0.3,0.5,0.8,0.6,1l-0.4,0.2c-0.1-0.3-0.4-0.7-0.6-1.1L24.8,234.6z"/>
			<path fill="#A7A9AC" d="M26.7,232.4c0-0.2,0.2-0.4,0.4-0.4c0.2,0,0.4,0.2,0.4,0.4s-0.2,0.4-0.4,0.4
				C26.9,232.8,26.7,232.6,26.7,232.4z M26.7,235c0-0.2,0.2-0.4,0.4-0.4c0.2,0,0.4,0.2,0.4,0.4c0,0.2-0.2,0.4-0.4,0.4
				C26.9,235.4,26.7,235.3,26.7,235z"/>
			<path fill="#A7A9AC" d="M29.9,232.2h-1.2v-0.4h2.9v0.4h-1.2v3.5h-0.5V232.2z"/>
			<path fill="#A7A9AC" d="M32.4,231.4h0.5v1.2l0,0.6c0.3-0.3,0.6-0.5,1-0.5c0.6,0,0.9,0.4,0.9,1.1v1.9h-0.5v-1.8
				c0-0.5-0.2-0.8-0.6-0.8c-0.3,0-0.5,0.2-0.8,0.4v2.1h-0.5V231.4z"/>
			<path fill="#A7A9AC" d="M35.6,234.2c0-1,0.6-1.5,1.4-1.5c0.7,0,1.4,0.6,1.4,1.5c0,1-0.6,1.5-1.4,1.5
				C36.3,235.8,35.6,235.2,35.6,234.2z M37.8,234.2c0-0.7-0.3-1.1-0.9-1.1c-0.5,0-0.8,0.5-0.8,1.1c0,0.7,0.3,1.1,0.8,1.1
				C37.5,235.4,37.8,234.9,37.8,234.2z"/>
			<path fill="#A7A9AC" d="M39.2,232.8h0.4l0,0.4h0c0.3-0.3,0.6-0.5,0.9-0.5c0.4,0,0.7,0.2,0.8,0.6c0.3-0.3,0.6-0.6,1-0.6
				c0.6,0,0.9,0.4,0.9,1.1v1.9h-0.5v-1.8c0-0.5-0.2-0.8-0.5-0.8c-0.2,0-0.5,0.1-0.7,0.4v2.1H41v-1.8c0-0.5-0.2-0.8-0.5-0.8
				c-0.2,0-0.5,0.1-0.7,0.4v2.1h-0.5V232.8z"/>
			<path fill="#A7A9AC" d="M44,235.4l0.2-0.3c0.3,0.2,0.5,0.3,0.9,0.3c0.4,0,0.6-0.2,0.6-0.5c0-0.3-0.3-0.4-0.7-0.6
				c-0.4-0.2-0.9-0.3-0.9-0.8c0-0.5,0.4-0.8,1-0.8c0.4,0,0.7,0.2,0.9,0.3l-0.2,0.3c-0.2-0.2-0.4-0.3-0.7-0.3c-0.4,0-0.5,0.2-0.5,0.4
				c0,0.3,0.3,0.4,0.6,0.5c0.4,0.2,0.9,0.3,0.9,0.9c0,0.5-0.4,0.9-1.1,0.9C44.7,235.8,44.3,235.6,44,235.4z"/>
			<path fill="#A7A9AC" d="M46.8,234.2c0-1,0.6-1.5,1.4-1.5c0.7,0,1.4,0.6,1.4,1.5c0,1-0.6,1.5-1.4,1.5
				C47.4,235.8,46.8,235.2,46.8,234.2z M49,234.2c0-0.7-0.3-1.1-0.9-1.1c-0.5,0-0.8,0.5-0.8,1.1c0,0.7,0.3,1.1,0.8,1.1
				C48.7,235.4,49,234.9,49,234.2z"/>
			<path fill="#A7A9AC" d="M50.4,232.8h0.4l0,0.4h0c0.3-0.3,0.6-0.5,1-0.5c0.6,0,0.9,0.4,0.9,1.1v1.9h-0.5v-1.8
				c0-0.5-0.2-0.8-0.6-0.8c-0.3,0-0.5,0.2-0.8,0.4v2.1h-0.5V232.8z"/>
			<path fill="#A7A9AC" d="M57.4,235.7l-1-1.7h-0.7v1.7h-0.5v-3.9h1.2c0.8,0,1.4,0.3,1.4,1.1c0,0.6-0.4,1-0.9,1.1l1,1.7H57.4z
				 M55.7,233.6h0.7c0.6,0,1-0.2,1-0.8c0-0.5-0.3-0.7-1-0.7h-0.7V233.6z"/>
			<path fill="#A7A9AC" d="M58.5,234.2c0-0.9,0.6-1.5,1.3-1.5c0.7,0,1.2,0.5,1.2,1.4c0,0.1,0,0.2,0,0.3h-2c0,0.6,0.4,1,1,1
				c0.3,0,0.5-0.1,0.7-0.2l0.2,0.3c-0.3,0.2-0.6,0.3-1,0.3C59.1,235.8,58.5,235.2,58.5,234.2z M60.5,234c0-0.6-0.3-0.9-0.7-0.9
				c-0.4,0-0.8,0.3-0.8,0.9H60.5z"/>
			<path fill="#A7A9AC" d="M61.8,234.6v-1.9h0.5v1.8c0,0.5,0.2,0.8,0.5,0.8c0.3,0,0.5-0.1,0.8-0.5v-2.1h0.5v2.9h-0.4l0-0.5h0
				c-0.3,0.3-0.6,0.5-1,0.5C62.1,235.8,61.8,235.4,61.8,234.6z"/>
			<path fill="#A7A9AC" d="M65.3,234.8v-1.6h-0.4v-0.4l0.5,0l0.1-0.8h0.4v0.8h0.8v0.4h-0.8v1.6c0,0.4,0.1,0.6,0.5,0.6
				c0.1,0,0.2,0,0.3-0.1l0.1,0.4c-0.2,0.1-0.4,0.1-0.5,0.1C65.5,235.8,65.3,235.4,65.3,234.8z"/>
			<path fill="#A7A9AC" d="M67.1,234.2c0-0.9,0.6-1.5,1.3-1.5c0.7,0,1.2,0.5,1.2,1.4c0,0.1,0,0.2,0,0.3h-2c0,0.6,0.4,1,1,1
				c0.3,0,0.5-0.1,0.7-0.2l0.2,0.3c-0.3,0.2-0.6,0.3-1,0.3C67.7,235.8,67.1,235.2,67.1,234.2z M69.1,234c0-0.6-0.3-0.9-0.7-0.9
				c-0.4,0-0.8,0.3-0.8,0.9H69.1z"/>
			<path fill="#A7A9AC" d="M70.4,232.8h0.4l0,0.5h0c0.2-0.4,0.5-0.6,0.8-0.6c0.1,0,0.2,0,0.3,0.1l-0.1,0.4c-0.1,0-0.2,0-0.3,0
				c-0.2,0-0.5,0.2-0.7,0.7v1.9h-0.5V232.8z"/>
			<path fill="#A7A9AC" d="M72.3,235.4l0.2-0.3c0.3,0.2,0.5,0.3,0.9,0.3c0.4,0,0.6-0.2,0.6-0.5c0-0.3-0.3-0.4-0.7-0.6
				c-0.4-0.2-0.9-0.3-0.9-0.8c0-0.5,0.4-0.8,1-0.8c0.4,0,0.7,0.2,0.9,0.3l-0.2,0.3c-0.2-0.2-0.4-0.3-0.7-0.3c-0.4,0-0.5,0.2-0.5,0.4
				c0,0.3,0.3,0.4,0.6,0.5c0.4,0.2,0.9,0.3,0.9,0.9c0,0.5-0.4,0.9-1.1,0.9C73,235.8,72.6,235.6,72.3,235.4z"/>
			<path fill="#A7A9AC" d="M76.9,234.1l-0.4,0.3c-0.4-0.4-0.8-0.9-1.2-1.2l0.4-0.3C76.1,233.2,76.6,233.7,76.9,234.1z"/>
			<path fill="#A7A9AC" d="M78.2,231.8h1c1.2,0,1.9,0.7,1.9,2c0,1.2-0.7,2-1.8,2h-1V231.8z M79.1,235.3c0.9,0,1.4-0.6,1.4-1.6
				c0-1-0.5-1.6-1.4-1.6h-0.4v3.1H79.1z"/>
			<path fill="#A7A9AC" d="M81.8,234.9c0-0.6,0.6-1,1.8-1.1c0-0.4-0.1-0.7-0.6-0.7c-0.3,0-0.6,0.2-0.9,0.3l-0.2-0.3
				c0.3-0.2,0.7-0.4,1.2-0.4c0.7,0,1,0.5,1,1.2v1.8h-0.4l0-0.4h0c-0.3,0.2-0.6,0.4-1,0.4C82.1,235.8,81.8,235.5,81.8,234.9z
				 M83.6,235v-0.8c-1,0.1-1.3,0.4-1.3,0.7c0,0.3,0.2,0.5,0.5,0.5C83.1,235.4,83.3,235.2,83.6,235z"/>
			<path fill="#A7A9AC" d="M85.1,234.8v-1.6h-0.4v-0.4l0.5,0l0.1-0.8h0.4v0.8h0.8v0.4h-0.8v1.6c0,0.4,0.1,0.6,0.5,0.6
				c0.1,0,0.2,0,0.3-0.1l0.1,0.4c-0.2,0.1-0.4,0.1-0.5,0.1C85.3,235.8,85.1,235.4,85.1,234.8z"/>
			<path fill="#A7A9AC" d="M86.9,234.9c0-0.6,0.6-1,1.8-1.1c0-0.4-0.1-0.7-0.6-0.7c-0.3,0-0.6,0.2-0.9,0.3l-0.2-0.3
				c0.3-0.2,0.7-0.4,1.2-0.4c0.7,0,1,0.5,1,1.2v1.8h-0.4l0-0.4h0c-0.3,0.2-0.6,0.4-1,0.4C87.3,235.8,86.9,235.5,86.9,234.9z
				 M88.7,235v-0.8c-1,0.1-1.3,0.4-1.3,0.7c0,0.3,0.2,0.5,0.5,0.5C88.2,235.4,88.4,235.2,88.7,235z"/>
			<path fill="#A7A9AC" d="M89.9,235.4l0.2-0.3c0.3,0.2,0.5,0.3,0.9,0.3c0.4,0,0.6-0.2,0.6-0.5c0-0.3-0.3-0.4-0.7-0.6
				c-0.4-0.2-0.9-0.3-0.9-0.8c0-0.5,0.4-0.8,1-0.8c0.4,0,0.7,0.2,0.9,0.3l-0.2,0.3c-0.2-0.2-0.4-0.3-0.7-0.3c-0.4,0-0.5,0.2-0.5,0.4
				c0,0.3,0.3,0.4,0.6,0.5c0.4,0.2,0.9,0.3,0.9,0.9c0,0.5-0.4,0.9-1.1,0.9C90.6,235.8,90.2,235.6,89.9,235.4z"/>
			<path fill="#A7A9AC" d="M92.9,234.8v-1.6h-0.4v-0.4l0.5,0L93,232h0.4v0.8h0.8v0.4h-0.8v1.6c0,0.4,0.1,0.6,0.5,0.6
				c0.1,0,0.2,0,0.3-0.1l0.1,0.4c-0.2,0.1-0.4,0.1-0.5,0.1C93.1,235.8,92.9,235.4,92.9,234.8z"/>
			<path fill="#A7A9AC" d="M95,232.8h0.4l0,0.5h0c0.2-0.4,0.5-0.6,0.8-0.6c0.1,0,0.2,0,0.3,0.1l-0.1,0.4c-0.1,0-0.2,0-0.3,0
				c-0.2,0-0.5,0.2-0.7,0.7v1.9H95V232.8z"/>
			<path fill="#A7A9AC" d="M96.9,234.2c0-0.9,0.6-1.5,1.3-1.5c0.7,0,1.2,0.5,1.2,1.4c0,0.1,0,0.2,0,0.3h-2c0,0.6,0.4,1,1,1
				c0.3,0,0.5-0.1,0.7-0.2l0.2,0.3c-0.3,0.2-0.6,0.3-1,0.3C97.5,235.8,96.9,235.2,96.9,234.2z M99,234c0-0.6-0.3-0.9-0.7-0.9
				c-0.4,0-0.8,0.3-0.8,0.9H99z"/>
			<path fill="#A7A9AC" d="M100,234.9c0-0.6,0.6-1,1.8-1.1c0-0.4-0.1-0.7-0.6-0.7c-0.3,0-0.6,0.2-0.9,0.3l-0.2-0.3
				c0.3-0.2,0.7-0.4,1.2-0.4c0.7,0,1,0.5,1,1.2v1.8h-0.4l0-0.4h0c-0.3,0.2-0.6,0.4-1,0.4C100.4,235.8,100,235.5,100,234.9z
				 M101.8,235v-0.8c-1,0.1-1.3,0.4-1.3,0.7c0,0.3,0.2,0.5,0.5,0.5C101.3,235.4,101.5,235.2,101.8,235z"/>
			<path fill="#A7A9AC" d="M103.3,232.8h0.4l0,0.4h0c0.3-0.3,0.6-0.5,0.9-0.5c0.4,0,0.7,0.2,0.8,0.6c0.3-0.3,0.6-0.6,1-0.6
				c0.6,0,0.9,0.4,0.9,1.1v1.9h-0.5v-1.8c0-0.5-0.2-0.8-0.5-0.8c-0.2,0-0.5,0.1-0.7,0.4v2.1h-0.5v-1.8c0-0.5-0.2-0.8-0.5-0.8
				c-0.2,0-0.5,0.1-0.7,0.4v2.1h-0.5V232.8z"/>
			<path fill="#A7A9AC" d="M110.1,234.1l-0.4,0.3c-0.4-0.4-0.8-0.9-1.2-1.2l0.3-0.3C109.3,233.2,109.8,233.7,110.1,234.1z"/>
			<path fill="#A7A9AC" d="M111.3,231.8h2.3v0.4h-1.8v1.3h1.5v0.4h-1.5v1.8h-0.5V231.8z"/>
			<path fill="#A7A9AC" d="M114,234.9c0-0.6,0.6-1,1.8-1.1c0-0.4-0.1-0.7-0.6-0.7c-0.3,0-0.6,0.2-0.9,0.3l-0.2-0.3
				c0.3-0.2,0.7-0.4,1.2-0.4c0.7,0,1,0.5,1,1.2v1.8h-0.4l0-0.4h0c-0.3,0.2-0.6,0.4-1,0.4C114.4,235.8,114,235.5,114,234.9z
				 M115.8,235v-0.8c-1,0.1-1.3,0.4-1.3,0.7c0,0.3,0.2,0.5,0.5,0.5C115.3,235.4,115.5,235.2,115.8,235z"/>
			<path fill="#A7A9AC" d="M117.4,234.8v-1.6H117v-0.4l0.5,0l0.1-0.8h0.4v0.8h0.8v0.4h-0.8v1.6c0,0.4,0.1,0.6,0.5,0.6
				c0.1,0,0.2,0,0.3-0.1l0.1,0.4c-0.2,0.1-0.4,0.1-0.5,0.1C117.6,235.8,117.4,235.4,117.4,234.8z"/>
			<path fill="#A7A9AC" d="M119.5,231.4h0.5v1.2l0,0.6c0.3-0.3,0.6-0.5,1-0.5c0.6,0,0.9,0.4,0.9,1.1v1.9h-0.5v-1.8
				c0-0.5-0.2-0.8-0.6-0.8c-0.3,0-0.5,0.2-0.8,0.4v2.1h-0.5V231.4z"/>
			<path fill="#A7A9AC" d="M122.7,234.2c0-1,0.6-1.5,1.4-1.5c0.7,0,1.4,0.6,1.4,1.5c0,1-0.6,1.5-1.4,1.5
				C123.3,235.8,122.7,235.2,122.7,234.2z M124.9,234.2c0-0.7-0.3-1.1-0.9-1.1c-0.5,0-0.8,0.5-0.8,1.1c0,0.7,0.3,1.1,0.8,1.1
				C124.5,235.4,124.9,234.9,124.9,234.2z"/>
			<path fill="#A7A9AC" d="M126.3,232.8h0.4l0,0.4h0c0.3-0.3,0.6-0.5,0.9-0.5c0.4,0,0.7,0.2,0.8,0.6c0.3-0.3,0.6-0.6,1-0.6
				c0.6,0,0.9,0.4,0.9,1.1v1.9h-0.5v-1.8c0-0.5-0.2-0.8-0.5-0.8c-0.2,0-0.5,0.1-0.7,0.4v2.1H128v-1.8c0-0.5-0.2-0.8-0.5-0.8
				c-0.2,0-0.5,0.1-0.7,0.4v2.1h-0.5V232.8z"/>
			<path fill="#A7A9AC" d="M132.6,233.7c0-1.3,0.7-2.1,1.8-2.1c0.5,0,0.9,0.2,1.1,0.5l-0.3,0.3c-0.2-0.2-0.5-0.4-0.8-0.4
				c-0.7,0-1.2,0.6-1.2,1.6c0,1,0.5,1.6,1.2,1.6c0.4,0,0.7-0.2,0.9-0.4l0.3,0.3c-0.3,0.4-0.7,0.6-1.2,0.6
				C133.3,235.8,132.6,235,132.6,233.7z"/>
			<path fill="#A7A9AC" d="M136.1,234.2c0-1,0.6-1.5,1.4-1.5c0.7,0,1.4,0.6,1.4,1.5c0,1-0.6,1.5-1.4,1.5
				C136.7,235.8,136.1,235.2,136.1,234.2z M138.3,234.2c0-0.7-0.3-1.1-0.9-1.1c-0.5,0-0.8,0.5-0.8,1.1c0,0.7,0.3,1.1,0.8,1.1
				C138,235.4,138.3,234.9,138.3,234.2z"/>
			<path fill="#A7A9AC" d="M139.7,232.8h0.4l0,0.4h0c0.3-0.3,0.6-0.5,1-0.5c0.6,0,0.9,0.4,0.9,1.1v1.9h-0.5v-1.8
				c0-0.5-0.2-0.8-0.6-0.8c-0.3,0-0.5,0.2-0.8,0.4v2.1h-0.5V232.8z"/>
			<path fill="#A7A9AC" d="M142.8,235.4l0.2-0.3c0.3,0.2,0.5,0.3,0.9,0.3c0.4,0,0.6-0.2,0.6-0.5c0-0.3-0.3-0.4-0.7-0.6
				c-0.4-0.2-0.9-0.3-0.9-0.8c0-0.5,0.4-0.8,1-0.8c0.4,0,0.7,0.2,0.9,0.3l-0.2,0.3c-0.2-0.2-0.4-0.3-0.7-0.3c-0.4,0-0.5,0.2-0.5,0.4
				c0,0.3,0.3,0.4,0.6,0.5c0.4,0.2,0.9,0.3,0.9,0.9c0,0.5-0.4,0.9-1.1,0.9C143.5,235.8,143.1,235.6,142.8,235.4z"/>
			<path fill="#A7A9AC" d="M145.8,234.6v-1.9h0.5v1.8c0,0.5,0.2,0.8,0.5,0.8c0.3,0,0.5-0.1,0.8-0.5v-2.1h0.5v2.9h-0.4l0-0.5h0
				c-0.3,0.3-0.6,0.5-1,0.5C146,235.8,145.8,235.4,145.8,234.6z"/>
			<path fill="#A7A9AC" d="M149.2,235.1v-3.7h0.5v3.7c0,0.2,0.1,0.2,0.1,0.2c0,0,0,0,0.1,0l0.1,0.4c-0.1,0-0.2,0-0.3,0
				C149.4,235.8,149.2,235.5,149.2,235.1z"/>
			<path fill="#A7A9AC" d="M151,234.8v-1.6h-0.4v-0.4l0.5,0l0.1-0.8h0.4v0.8h0.8v0.4h-0.8v1.6c0,0.4,0.1,0.6,0.5,0.6
				c0.1,0,0.2,0,0.3-0.1l0.1,0.4c-0.2,0.1-0.4,0.1-0.5,0.1C151.2,235.8,151,235.4,151,234.8z"/>
			<path fill="#A7A9AC" d="M153,231.9c0-0.2,0.1-0.3,0.3-0.3c0.2,0,0.3,0.1,0.3,0.3c0,0.2-0.1,0.3-0.3,0.3
				C153.1,232.2,153,232,153,231.9z M153,232.8h0.5v2.9H153V232.8z"/>
			<path fill="#A7A9AC" d="M154.7,232.8h0.4l0,0.4h0c0.3-0.3,0.6-0.5,1-0.5c0.6,0,0.9,0.4,0.9,1.1v1.9h-0.5v-1.8
				c0-0.5-0.2-0.8-0.6-0.8c-0.3,0-0.5,0.2-0.8,0.4v2.1h-0.5V232.8z"/>
			<path fill="#A7A9AC" d="M157.9,236.3c0-0.2,0.2-0.5,0.4-0.7v0c-0.2-0.1-0.3-0.2-0.3-0.5c0-0.2,0.2-0.4,0.3-0.5v0
				c-0.2-0.2-0.4-0.4-0.4-0.8c0-0.6,0.5-1,1.1-1c0.2,0,0.3,0,0.4,0.1h1v0.4h-0.6c0.1,0.1,0.2,0.4,0.2,0.6c0,0.6-0.5,1-1.1,1
				c-0.1,0-0.3,0-0.4-0.1c-0.1,0.1-0.2,0.2-0.2,0.3c0,0.2,0.1,0.3,0.5,0.3h0.6c0.7,0,1,0.2,1,0.7c0,0.5-0.6,1-1.5,1
				C158.4,237,157.9,236.8,157.9,236.3z M160.1,236.1c0-0.3-0.2-0.4-0.6-0.4H159c-0.1,0-0.2,0-0.4,0c-0.2,0.2-0.3,0.3-0.3,0.5
				c0,0.3,0.3,0.5,0.9,0.5C159.7,236.7,160.1,236.4,160.1,236.1z M159.7,233.7c0-0.4-0.3-0.7-0.6-0.7s-0.6,0.3-0.6,0.7
				c0,0.4,0.3,0.7,0.6,0.7C159.4,234.4,159.7,234.2,159.7,233.7z"/>
			<path fill="#A7A9AC" d="M161.6,234.4c0.4-0.2,0.7-0.4,0.7-0.8c0,0-0.1,0-0.1,0c-0.2,0-0.4-0.1-0.4-0.4s0.2-0.4,0.4-0.4
				c0.3,0,0.5,0.2,0.5,0.6c0,0.6-0.4,1-0.9,1.2L161.6,234.4z"/>
			<path fill="#A7A9AC" d="M165.4,232.7h-1.5v-0.3h1.5V232.7z M165.8,235.5c-0.4,0.3-1.1,0.5-1.6,0.7c-0.1-0.1-0.2-0.2-0.3-0.3
				c0.5-0.1,1.2-0.3,1.6-0.5L165.8,235.5z M165.3,231.8H164v-0.3h1.3V231.8z M164.6,233.1h3.5v2.2h-3.5V233.1z M165,233.7h2.7v-0.4
				H165V233.7z M165,234.4h2.7V234H165V234.4z M165,235h2.7v-0.4H165V235z M166.3,231.9c-0.1,0.2-0.3,0.4-0.4,0.5
				c-0.1-0.1-0.2-0.2-0.3-0.2c0.3-0.3,0.5-0.6,0.6-1l0.4,0.1c0,0.1-0.1,0.2-0.1,0.3h1.8l0.1,0l0.3,0.1c-0.1,0.3-0.3,0.6-0.5,0.8
				l-0.3-0.1c0.1-0.1,0.2-0.3,0.3-0.4h-0.9v0.1c0,0.1,0,0.1,0,0.2c0.3,0.3,0.9,0.5,1.6,0.6c-0.1,0.1-0.2,0.2-0.2,0.3
				c-0.6-0.1-1.1-0.3-1.5-0.6c-0.2,0.3-0.6,0.5-1.6,0.7c0-0.1-0.1-0.2-0.2-0.3c1.4-0.2,1.5-0.6,1.5-0.8v-0.1H166.3z M167.1,235.3
				c0.6,0.2,1.2,0.4,1.6,0.6l-0.3,0.2c-0.3-0.2-0.9-0.4-1.5-0.6L167.1,235.3z"/>
			<path fill="#A7A9AC" d="M170.1,233.8c-0.1,0.6-0.3,1.4-0.6,1.7c0-0.1-0.1-0.3-0.2-0.4c0.2-0.3,0.4-0.9,0.5-1.4L170.1,233.8z
				 M170.6,233.4v2.7h-0.4v-2.7h-0.9V233h0.9v-1.8h0.4v1.8h0.9v0.4H170.6z M169.7,232.8c0-0.3-0.2-0.8-0.3-1.2l0.3-0.1
				c0.2,0.4,0.3,0.9,0.3,1.2L169.7,232.8z M170.9,233.7c0.1,0.2,0.5,0.9,0.6,1.1l-0.3,0.3c-0.1-0.3-0.4-1-0.5-1.2L170.9,233.7z
				 M171.5,231.6c-0.1,0.4-0.3,0.9-0.4,1.2l-0.3-0.1c0.1-0.3,0.3-0.8,0.4-1.2L171.5,231.6z M173.6,234.6v1.5h-0.4v-1.4l-1.7,0.3
				l-0.1-0.4l1.7-0.3v-3.1h0.4v3l0.6-0.1l0.1,0.4L173.6,234.6z M172.5,233.8c-0.2-0.2-0.6-0.5-0.9-0.6l0.2-0.3
				c0.3,0.2,0.7,0.4,0.9,0.6L172.5,233.8z M172.7,232.5c-0.2-0.2-0.5-0.5-0.8-0.7l0.2-0.3c0.3,0.2,0.7,0.5,0.8,0.7L172.7,232.5z"/>
			<path fill="#A7A9AC" d="M179.5,233.3c-0.2,0.6-0.5,1.2-0.8,1.7c0.2,0.4,0.3,0.7,0.6,0.7c0.1,0,0.2-0.2,0.2-0.9
				c0.1,0.1,0.2,0.2,0.3,0.2c-0.1,0.8-0.2,1.1-0.6,1.1c-0.3,0-0.6-0.2-0.8-0.7c-0.2,0.3-0.5,0.5-0.8,0.7c-0.1-0.1-0.2-0.2-0.3-0.3
				c0.1,0,0.1-0.1,0.2-0.1h-1.8v0.3h-0.3v-1.9c-0.1,0.1-0.2,0.2-0.2,0.3c-0.1-0.1-0.2-0.2-0.3-0.2c0.3-0.3,0.7-0.8,0.9-1.2l0.3,0.1
				c-0.1,0.2-0.1,0.3-0.2,0.5h0.7c-0.1-0.1-0.2-0.3-0.2-0.4l0.3-0.1c0.1,0.2,0.3,0.4,0.3,0.5h0.7v0.3h-0.8v0.3h0.7v0.3h-0.7v0.4h0.7
				v0.3h-0.7v0.4h0.8v0.2c0.2-0.2,0.4-0.4,0.6-0.7c-0.2-0.6-0.3-1.3-0.3-2.1h-3v-0.3h1.2V232h-1v-0.3h1v-0.5h0.4v0.5h1v0.3h-1v0.5
				h1.3c0-0.4,0-0.9,0-1.3h0.4c0,0.5,0,0.9,0,1.3h1.5v0.3h-1.4c0,0.7,0.1,1.2,0.2,1.7c0.2-0.4,0.4-0.9,0.6-1.4L179.5,233.3z
				 M176.5,233.8h-0.8v0.3h0.8V233.8z M176.5,234.4h-0.8v0.4h0.8V234.4z M175.7,235.4h0.8V235h-0.8V235.4z M179.3,232.3
				c-0.2-0.2-0.5-0.6-0.8-0.8l0.3-0.2c0.3,0.2,0.6,0.5,0.8,0.8L179.3,232.3z"/>
			<path fill="#A7A9AC" d="M185.3,235.5v0.4h-4.8v-0.4h2.2v-1H181v-0.4h1.7v-0.7h0.4v0.7h1.8v0.4h-1.8v1H185.3z M184.7,233.6
				c-0.1-0.1-0.2-0.2-0.3-0.4c-2.9,0.1-3.2,0.2-3.4,0.2c0-0.1-0.1-0.3-0.1-0.4c0.1,0,0.2-0.1,0.4-0.2c0.1-0.1,0.5-0.5,0.8-0.9h-1.4
				v-0.4h4.5v0.4h-2.5c-0.3,0.4-0.7,0.8-1,1.1l2.5-0.1c-0.2-0.2-0.5-0.4-0.7-0.6l0.3-0.2c0.5,0.4,1.1,0.9,1.4,1.2L184.7,233.6z"/>
			<path fill="#A7A9AC" d="M185.9,235.4c1.2-1.1,1.8-1.9,1.8-2.5c0-0.5-0.2-0.8-0.7-0.8c-0.3,0-0.6,0.2-0.8,0.5l-0.3-0.3
				c0.3-0.4,0.7-0.6,1.2-0.6c0.7,0,1.1,0.5,1.1,1.2c0,0.8-0.6,1.6-1.5,2.5c0.2,0,0.4,0,0.6,0h1.1v0.4h-2.5V235.4z"/>
			<path fill="#A7A9AC" d="M189.1,233.7c0-1.4,0.5-2,1.2-2c0.7,0,1.2,0.7,1.2,2c0,1.4-0.5,2.1-1.2,2.1
				C189.6,235.8,189.1,235.1,189.1,233.7z M191.1,233.7c0-1.2-0.3-1.6-0.7-1.6c-0.5,0-0.8,0.5-0.8,1.6c0,1.2,0.3,1.7,0.8,1.7
				C190.8,235.4,191.1,234.9,191.1,233.7z"/>
			<path fill="#A7A9AC" d="M192.4,235.3h0.9v-2.9h-0.7V232c0.4-0.1,0.6-0.2,0.8-0.3h0.4v3.5h0.8v0.4h-2.2V235.3z"/>
			<path fill="#A7A9AC" d="M197.3,232.2h-1.9v-0.4h2.5v0.3c-0.9,1.2-1.1,2.1-1.2,3.7h-0.5C196.2,234.2,196.5,233.3,197.3,232.2z"/>
			<path fill="#A7A9AC" d="M203.3,234.9h-2v1.2H201v-1.2h-2.5v-0.4h0.9v-1.4h1.6v-0.8h-1.3c-0.2,0.4-0.5,0.8-0.8,1.1
				c-0.1-0.1-0.2-0.2-0.3-0.3c0.5-0.4,1-1.1,1.2-1.9l0.4,0.1c-0.1,0.2-0.2,0.4-0.2,0.6h3.2v0.4h-1.7v0.8h1.6v0.4h-1.6v1.1h2V234.9z
				 M201,234.5v-1.1h-1.2v1.1H201z"/>
			<path fill="#A7A9AC" d="M205.9,232.2H204v-0.4h2.5v0.3c-0.9,1.2-1.1,2.1-1.2,3.7h-0.5C204.9,234.2,205.1,233.3,205.9,232.2z"/>
			<path fill="#A7A9AC" d="M211.3,235.5c0,0.3-0.1,0.4-0.3,0.5c-0.2,0.1-0.6,0.1-1.1,0.1c0-0.1-0.1-0.3-0.2-0.4c0.5,0,0.9,0,1,0
				c0.1,0,0.2,0,0.2-0.2v-1.1h-2.6c-0.1,0.6-0.4,1.2-0.9,1.7c-0.1-0.1-0.2-0.2-0.3-0.3c0.9-0.8,0.9-1.8,0.9-2.7v-1.6h3.3V235.5z
				 M210.8,234.1v-0.9h-2.5c0,0.3,0,0.6-0.1,0.9H210.8z M208.4,231.9v0.9h2.5v-0.9H208.4z"/>
			<path fill="#A7A9AC" d="M212.9,235.3h0.9v-2.9H213V232c0.4-0.1,0.6-0.2,0.8-0.3h0.4v3.5h0.8v0.4h-2.2V235.3z"/>
			<path fill="#A7A9AC" d="M215.7,235.3l0.2-0.3c0.2,0.2,0.5,0.4,1,0.4c0.5,0,0.8-0.4,0.8-0.9c0-0.6-0.3-0.9-0.8-0.9
				c-0.3,0-0.4,0.1-0.7,0.2l-0.3-0.2l0.1-1.8h1.9v0.4h-1.5l-0.1,1.1c0.2-0.1,0.4-0.2,0.6-0.2c0.7,0,1.2,0.4,1.2,1.3
				s-0.6,1.4-1.3,1.4C216.3,235.8,215.9,235.5,215.7,235.3z"/>
			<path fill="#A7A9AC" d="M223.1,231.6v4.5h-0.4v-0.3H220v0.4h-0.4v-4.5H223.1z M220,232v1.5h2.7V232H220z M222.7,235.3v-1.5H220
				v1.5H222.7z"/>
			<path fill="#A7A9AC" d="M225.5,232.8c0.5,0,0.8,0.4,0.8,0.8c0,0.5-0.4,0.8-0.8,0.8c-0.4,0-0.8-0.4-0.8-0.8
				C224.7,233.2,225.1,232.8,225.5,232.8z M225.5,234.2c0.3,0,0.5-0.2,0.5-0.5c0-0.3-0.2-0.5-0.5-0.5c-0.3,0-0.5,0.2-0.5,0.5
				C225,234,225.2,234.2,225.5,234.2z"/>
			<path fill="#A7A9AC" d="M4.2,239.1h1.1c0.9,0,1.5,0.3,1.5,1.2c0,0.8-0.6,1.2-1.5,1.2H4.7v1.6H4.2V239.1z M5.3,241
				c0.7,0,1-0.3,1-0.8c0-0.6-0.4-0.8-1-0.8H4.7v1.6H5.3z"/>
			<path fill="#A7A9AC" d="M7.7,239.1h1.1c0.9,0,1.5,0.3,1.5,1.2c0,0.8-0.6,1.2-1.5,1.2H8.2v1.6H7.7V239.1z M8.8,241
				c0.7,0,1-0.3,1-0.8c0-0.6-0.4-0.8-1-0.8H8.2v1.6H8.8z"/>
			<path fill="#A7A9AC" d="M11.3,239.1h0.5v3.9h-0.5V239.1z"/>
			<path fill="#A7A9AC" d="M17.4,241.6c-0.1,1.1-0.2,1.5-0.4,1.7c-0.1,0.1-0.2,0.1-0.3,0.1c-0.1,0-0.4,0-0.7,0c0-0.1,0-0.3-0.1-0.4
				c0.3,0,0.5,0,0.6,0c0.1,0,0.1,0,0.2-0.1c0.1-0.1,0.2-0.4,0.3-1.3h-3.2c-0.3,0.2-0.6,0.5-0.9,0.6c0-0.1-0.1-0.3-0.2-0.3
				c1-0.5,1.7-1.3,2.3-2.2H13v-0.4h1.1c-0.1-0.2-0.2-0.5-0.4-0.8l0.3-0.1c0.2,0.2,0.4,0.6,0.4,0.8l-0.3,0.1h1
				c0.2-0.3,0.3-0.6,0.4-0.9l0.4,0.1c-0.1,0.3-0.2,0.6-0.3,0.8h1.1c-0.1,0.3-0.1,0.7-0.2,1h0.6c-0.1,0.3-0.1,0.7-0.2,1h0.5
				L17.4,241.6z M12.9,243.2c0.3-0.2,0.5-0.7,0.6-1.1l0.3,0.1c-0.1,0.4-0.3,0.9-0.7,1.2L12.9,243.2z M14.7,240.8
				c-0.2,0.2-0.4,0.4-0.5,0.6h2.3c0-0.2,0.1-0.4,0.1-0.6H14.7z M14.5,242.2c0.1,0.3,0.2,0.7,0.2,1l-0.4,0c0-0.3,0-0.7-0.1-1
				L14.5,242.2z M15.4,239.8c-0.1,0.2-0.2,0.4-0.4,0.6h1.1c0-0.2,0.1-0.4,0.1-0.6H15.4z M15.4,242.1c0.1,0.3,0.3,0.6,0.3,0.9
				l-0.3,0.1c0-0.2-0.2-0.6-0.3-0.9L15.4,242.1z M16.2,242.8c-0.1-0.2-0.2-0.5-0.4-0.7l0.3-0.1c0.2,0.2,0.3,0.5,0.4,0.7L16.2,242.8z
				"/>
			<path fill="#A7A9AC" d="M23.1,242.9v0.4h-4.8v-0.4h2.2v-1.4h-1.6v-0.4h1.6v-1.2h-1.3c-0.2,0.3-0.4,0.6-0.6,0.9
				c-0.1-0.1-0.3-0.2-0.4-0.2c0.4-0.5,0.8-1.2,1-2l0.4,0.1c-0.1,0.3-0.2,0.6-0.3,0.9h1.1v-1h0.4v1h1.9v0.4h-1.9v1.2h1.7v0.4h-1.7
				v1.4H23.1z"/>
			<path fill="#A7A9AC" d="M24.6,240.7v0.8c0,0.6-0.1,1.4-0.6,2c-0.1-0.1-0.2-0.2-0.3-0.3c0.4-0.5,0.5-1.2,0.5-1.7v-1.1h0.7
				c-0.1-0.1-0.1-0.2-0.2-0.2c0.4-0.1,0.9-0.2,1.4-0.3c-0.4-0.1-0.8-0.2-1.2-0.3l0.2-0.2h-0.9V239h2c-0.1-0.1-0.2-0.3-0.3-0.4
				l0.3-0.1c0.1,0.2,0.3,0.4,0.4,0.5h1.8v0.3h-0.8l0.2,0.1c-0.2,0.1-0.5,0.3-0.8,0.4c0.4,0.1,0.8,0.2,1,0.3l-0.2,0.2h0.8v0.3H24.6z
				 M28.6,242.9v0.3h-4v-0.3h1.8v-0.5h-1.3v-0.3h1.3v-0.5h-1.1c-0.2,0.3-0.3,0.5-0.5,0.7c0-0.1-0.1-0.3-0.2-0.3
				c0.3-0.3,0.6-0.7,0.7-1.1l0.3,0.1c0,0.1-0.1,0.2-0.2,0.4h0.9v-0.5h0.4v0.5h1.4v0.3h-1.4v0.5h1.3v0.3h-1.3v0.5H28.6z M27.6,240.4
				c-0.3-0.1-0.7-0.2-1.1-0.4c-0.5,0.2-1,0.3-1.5,0.4H27.6z M25.2,239.3c0.4,0.1,0.9,0.2,1.4,0.4c0.3-0.1,0.7-0.2,0.9-0.4H25.2z"/>
			<path fill="#A7A9AC" d="M32.1,240.6c-0.3,0.2-0.6,0.4-0.9,0.6h2.2v2.3H33v-0.2h-2.2v0.2h-0.4v-1.9c-0.3,0.2-0.7,0.3-1,0.4
				c0-0.1-0.2-0.2-0.3-0.3c0.8-0.3,1.5-0.6,2.2-1.1h-2.1v-0.4h1.8v-0.7h-1.4v-0.4h1.4v-0.7h0.4v0.7h1.3v0.2c0.2-0.2,0.4-0.5,0.6-0.7
				l0.3,0.2c-0.4,0.5-0.8,0.9-1.3,1.4h1.6v0.4H32.1z M33,241.5h-2.2v0.5H33V241.5z M33,242.9v-0.6h-2.2v0.6H33z M31.9,240.2
				c0.3-0.2,0.6-0.4,0.8-0.7h-1.2v0.7H31.9z"/>
			<path fill="#A7A9AC" d="M36.1,241.5v2h-0.4v-1.8c-0.3,0.1-0.6,0.2-0.9,0.3l-0.1-0.4c0.3-0.1,0.6-0.2,1-0.3V240h-0.5
				c-0.1,0.3-0.1,0.6-0.2,0.8c-0.1,0-0.2-0.1-0.3-0.2c0.2-0.5,0.3-1.1,0.4-1.8l0.4,0.1c0,0.2-0.1,0.5-0.1,0.7h0.4v-1.1h0.4v1.1h0.6
				v0.4h-0.6v1.1l0.6-0.2l0.1,0.4L36.1,241.5z M39.6,239.4c0,0,0,0.2,0,0.2c-0.1,2.4-0.2,3.3-0.5,3.5c-0.1,0.1-0.2,0.2-0.4,0.2
				c-0.1,0-0.4,0-0.6,0c0-0.1,0-0.3-0.1-0.4c0.2,0,0.5,0,0.6,0c0.1,0,0.1,0,0.2-0.1c0.2-0.2,0.3-1,0.4-3.1H39
				c-0.3,1.4-0.9,2.8-1.8,3.6c-0.1-0.1-0.2-0.2-0.3-0.2c0.9-0.6,1.5-2,1.7-3.3h-0.4c-0.2,0.9-0.7,1.9-1.3,2.4
				c-0.1-0.1-0.2-0.2-0.3-0.2c0.6-0.4,1.1-1.3,1.3-2.2h-0.5c-0.2,0.4-0.4,0.7-0.6,1c-0.1-0.1-0.2-0.2-0.3-0.2
				c0.4-0.5,0.8-1.3,0.9-2.1l0.4,0.1c-0.1,0.3-0.1,0.6-0.2,0.8h1.7v0L39.6,239.4z"/>
			<path fill="#A7A9AC" d="M41.7,238.6c-0.1,0.4-0.3,0.7-0.4,1.1v3.7h-0.4v-3c-0.2,0.3-0.3,0.5-0.5,0.7c0-0.1-0.1-0.3-0.2-0.4
				c0.5-0.5,0.9-1.4,1.1-2.2L41.7,238.6z M43.1,242.9c-0.3,0.2-0.9,0.4-1.3,0.6c-0.1-0.1-0.2-0.2-0.2-0.3c0.5-0.1,1-0.3,1.3-0.5
				L43.1,242.9z M42.8,239.1h-1.1v-0.3h3.4v0.3H44v0.3h1v1h-3.1v-1h0.9V239.1z M42,242.6v-1.9h3v1.9H42z M42.2,240.2h0.6v-0.5h-0.6
				V240.2z M42.4,241.3h2.2V241h-2.2V241.3z M42.4,241.8h2.2v-0.3h-2.2V241.8z M42.4,242.4h2.2v-0.3h-2.2V242.4z M43.7,239.1h-0.6
				v0.3h0.6V239.1z M43.1,240.2h0.6v-0.5h-0.6V240.2z M44,242.7c0.5,0.2,1,0.4,1.3,0.5l-0.3,0.2c-0.3-0.2-0.7-0.4-1.2-0.5L44,242.7z
				 M44,239.7v0.5h0.6v-0.5H44z"/>
			<path fill="#A7A9AC" d="M47.7,241.2l-0.7,0.2v1.5c0,0.2-0.1,0.3-0.2,0.4c-0.1,0.1-0.4,0.1-0.7,0.1c0-0.1-0.1-0.3-0.1-0.4
				c0.2,0,0.5,0,0.5,0c0.1,0,0.1,0,0.1-0.1v-1.4c-0.3,0.1-0.5,0.2-0.7,0.2l-0.1-0.4c0.2-0.1,0.5-0.1,0.8-0.2V240h-0.8v-0.4h0.8v-1.1
				H47v1.1h0.6v0.4H47v1c0.2-0.1,0.4-0.1,0.6-0.2L47.7,241.2z M48.7,240.6c-0.5,0-0.7-0.2-0.7-0.6v-1.5h0.4v0.6h2.2v0.4h-2.2v0.5
				c0,0.2,0.1,0.3,0.3,0.3h1.4c0.2,0,0.5,0,0.6,0c0,0.1,0,0.3,0,0.3c-0.1,0-0.4,0-0.6,0H48.7z M48,241.1h2.5v2.3h-0.4v-0.2h-1.7v0.2
				H48V241.1z M48.3,241.4v0.5h1.7v-0.5H48.3z M50.1,242.9v-0.6h-1.7v0.6H50.1z"/>
			<path fill="#A7A9AC" d="M53.7,242c0,0.2-0.2,0.5-0.5,0.7c0.2,0.1,0.5,0.2,0.6,0.3l-0.3,0.2c-0.2-0.1-0.4-0.2-0.7-0.4
				c-0.3,0.2-0.8,0.3-1.5,0.5c0-0.1-0.1-0.2-0.2-0.3c0.6-0.1,1-0.2,1.3-0.4c-0.3-0.1-0.6-0.2-0.8-0.3c0.1-0.1,0.2-0.2,0.3-0.4
				l-0.6,0l0-0.3c0.2,0,0.5,0,0.9,0c0.1-0.1,0.2-0.3,0.2-0.4h-0.9v-0.9h1v-0.2h-0.9v-0.6h-0.4v-0.3h0.4v-0.5h0.9v-0.4h0.3v0.4h0.9
				v0.5h0.4v0.3h-0.4v0.6h-0.9v0.2h1v0.9h-1.1c-0.1,0.1-0.1,0.3-0.2,0.4c0.3,0,0.5,0,0.8,0v-0.1v-0.2h0.3v0.2v0l0.3,0l0,0.3
				L53.7,242z M52,241.2h0.7v-0.3H52V241.2z M52.1,239.2v0.3h0.5v-0.3H52.1z M52.6,240v-0.3h-0.5v0.3H52.6z M52.4,242.1
				c-0.1,0.1-0.1,0.2-0.2,0.2c0.2,0.1,0.5,0.2,0.7,0.2c0.3-0.2,0.4-0.4,0.5-0.5L52.4,242.1z M52.9,239.2v0.3h0.6v-0.3H52.9z
				 M53.5,240v-0.3h-0.6v0.3H53.5z M52.9,240.8v0.3h0.7v-0.3H52.9z M55.9,239.9c-0.1,0.8-0.2,1.5-0.5,2.1c0.2,0.5,0.5,0.9,0.9,1.1
				c-0.1,0.1-0.2,0.2-0.2,0.3c-0.4-0.2-0.6-0.6-0.8-1c-0.2,0.4-0.6,0.8-1,1.1c0-0.1-0.1-0.2-0.2-0.3c0.5-0.3,0.8-0.7,1-1.2
				c-0.2-0.4-0.3-0.9-0.4-1.4c-0.1,0.2-0.2,0.4-0.3,0.6c-0.1-0.1-0.2-0.2-0.3-0.2c0.4-0.6,0.6-1.4,0.7-2.3l0.3,0.1
				c0,0.3-0.1,0.6-0.2,0.9h1.3v0.4H55.9z M54.8,239.9c0.1,0.6,0.2,1.1,0.4,1.6c0.2-0.5,0.2-1,0.3-1.6H54.8z"/>
			<path fill="#A7A9AC" d="M57.4,241.7c0.4-0.2,0.7-0.4,0.7-0.8c0,0-0.1,0-0.1,0c-0.2,0-0.4-0.1-0.4-0.4s0.2-0.4,0.4-0.4
				c0.3,0,0.5,0.2,0.5,0.6c0,0.6-0.4,1-0.9,1.2L57.4,241.7z"/>
			<path fill="#A7A9AC" d="M59.8,241c0-1.3,0.7-2.1,1.8-2.1c0.5,0,0.9,0.2,1.1,0.5l-0.3,0.3c-0.2-0.2-0.5-0.4-0.8-0.4
				c-0.7,0-1.2,0.6-1.2,1.6c0,1,0.5,1.6,1.2,1.6c0.4,0,0.7-0.2,0.9-0.4l0.3,0.3c-0.3,0.4-0.7,0.6-1.2,0.6
				C60.5,243.1,59.8,242.3,59.8,241z"/>
			<path fill="#A7A9AC" d="M63.6,239.1h1.1c0.9,0,1.5,0.3,1.5,1.2c0,0.8-0.6,1.2-1.5,1.2h-0.7v1.6h-0.5V239.1z M64.7,241
				c0.7,0,1-0.3,1-0.8c0-0.6-0.4-0.8-1-0.8h-0.6v1.6H64.7z"/>
			<path fill="#A7A9AC" d="M67.1,239.1h0.5v3.9h-0.5V239.1z"/>
			<path fill="#A7A9AC" d="M73.3,241.6c-0.1,1.1-0.2,1.5-0.4,1.7c-0.1,0.1-0.2,0.1-0.3,0.1c-0.1,0-0.4,0-0.7,0c0-0.1,0-0.3-0.1-0.4
				c0.3,0,0.5,0,0.6,0c0.1,0,0.1,0,0.2-0.1c0.1-0.1,0.2-0.4,0.3-1.3h-3.2c-0.3,0.2-0.6,0.5-0.9,0.6c0-0.1-0.1-0.3-0.2-0.3
				c1-0.5,1.7-1.3,2.3-2.2h-1.9v-0.4h1.1c-0.1-0.2-0.2-0.5-0.4-0.8l0.3-0.1c0.2,0.2,0.4,0.6,0.4,0.8l-0.3,0.1h1
				c0.2-0.3,0.3-0.6,0.4-0.9l0.4,0.1c-0.1,0.3-0.2,0.6-0.3,0.8h1.1c-0.1,0.3-0.1,0.7-0.2,1h0.6c-0.1,0.3-0.1,0.7-0.2,1h0.5
				L73.3,241.6z M68.8,243.2c0.3-0.2,0.5-0.7,0.6-1.1l0.3,0.1c-0.1,0.4-0.3,0.9-0.7,1.2L68.8,243.2z M70.6,240.8
				c-0.2,0.2-0.4,0.4-0.5,0.6h2.3c0-0.2,0.1-0.4,0.1-0.6H70.6z M70.4,242.2c0.1,0.3,0.2,0.7,0.2,1l-0.4,0c0-0.3,0-0.7-0.1-1
				L70.4,242.2z M71.2,239.8c-0.1,0.2-0.2,0.4-0.4,0.6h1.1c0-0.2,0.1-0.4,0.1-0.6H71.2z M71.2,242.1c0.1,0.3,0.3,0.6,0.3,0.9
				l-0.3,0.1c0-0.2-0.2-0.6-0.3-0.9L71.2,242.1z M72.1,242.8c-0.1-0.2-0.2-0.5-0.4-0.7L72,242c0.2,0.2,0.3,0.5,0.4,0.7L72.1,242.8z"
				/>
			<path fill="#A7A9AC" d="M75,240.9c-0.2-0.2-0.7-0.4-1-0.6l0.2-0.3c0.3,0.2,0.8,0.4,1,0.5L75,240.9z M74.2,243.1
				c0.3-0.4,0.7-1.1,1-1.7l0.3,0.3c-0.3,0.6-0.7,1.2-1,1.7L74.2,243.1z M74.6,238.6c0.3,0.2,0.8,0.4,1,0.6l-0.2,0.3
				c-0.2-0.2-0.6-0.4-1-0.6L74.6,238.6z M78.7,242.9c0,0.2,0,0.3-0.2,0.4c-0.2,0.1-0.4,0.1-0.8,0.1c0-0.1-0.1-0.3-0.1-0.4
				c0.3,0,0.6,0,0.7,0c0.1,0,0.1,0,0.1-0.1v-1c-0.6,0.2-1.3,0.3-1.8,0.4l-0.1-0.3c0.5-0.1,1.2-0.3,2-0.4v-1.2h-2v1.1
				c0,0.6-0.1,1.4-0.4,1.9c-0.1-0.1-0.2-0.2-0.3-0.2c0.3-0.5,0.3-1.2,0.3-1.7V240h1.2v-1.5h0.4v1.5h1.2V242.9z M76.3,239.9
				c-0.1-0.3-0.3-0.7-0.5-1l0.3-0.2c0.2,0.3,0.5,0.7,0.6,1L76.3,239.9z M76.6,240.8c0.5,0.1,1.1,0.3,1.4,0.4l-0.2,0.3
				c-0.3-0.2-0.9-0.4-1.4-0.5L76.6,240.8z M78.8,238.8c-0.2,0.3-0.4,0.7-0.6,1l-0.3-0.1c0.2-0.3,0.4-0.7,0.6-1L78.8,238.8z"/>
			<path fill="#A7A9AC" d="M81.6,242.8c-0.4,0.2-1.1,0.5-1.7,0.6c-0.1-0.1-0.2-0.2-0.3-0.3c0.5-0.1,1.2-0.3,1.6-0.5L81.6,242.8z
				 M82.9,242.6c0.6,0.2,1.1,0.4,1.5,0.5l-0.3,0.2c-0.4-0.2-1-0.4-1.6-0.6l0.2-0.2h-2.4v-1.7c-0.1,0-0.3,0.1-0.5,0.1
				c0-0.1-0.1-0.2-0.2-0.3c0.7-0.1,1.1-0.3,1.3-0.5h-0.9c0-0.2,0.1-0.6,0.1-0.9h1.1v-0.3h-1.3v-0.3h1.3v-0.3h0.4v0.3h0.8v-0.3h0.4
				v0.3H84v0.8h-1.2v0.3h1.5c0,0,0,0.1,0,0.1c0,0.3-0.1,0.4-0.1,0.5c-0.1,0.1-0.2,0.1-0.3,0.1c0,0-0.1,0-0.1,0v1.9H82.9z
				 M80.5,239.6c0,0.1,0,0.2,0,0.3h0.7c0-0.1,0.1-0.2,0.1-0.3H80.5z M83.4,240.9h-2.7v0.3h2.7V240.9z M83.4,241.5h-2.7v0.3h2.7
				V241.5z M80.7,242.4h2.7V242h-2.7V242.4z M81.5,240.2c-0.1,0.1-0.2,0.3-0.4,0.4h2.4c0-0.1,0-0.1-0.1-0.2c0.2,0,0.3,0,0.4,0
				c0.1,0,0.1,0,0.1,0c0,0,0-0.1,0.1-0.2h-1.1v0.4h-0.4v-0.4H81.5z M82.5,239.6h-0.8c0,0.1,0,0.2-0.1,0.3h0.9V239.6z M81.6,239.4
				h0.8v-0.3h-0.8V239.4z M82.8,239.1v0.3h0.8v-0.3H82.8z"/>
			<path fill="#A7A9AC" d="M87.9,240.6c-0.3,0.2-0.6,0.4-0.9,0.6h2.2v2.3h-0.4v-0.2h-2.2v0.2h-0.4v-1.9c-0.3,0.2-0.7,0.3-1,0.4
				c0-0.1-0.2-0.2-0.3-0.3c0.8-0.3,1.5-0.6,2.2-1.1h-2.1v-0.4H87v-0.7h-1.4v-0.4H87v-0.7h0.4v0.7h1.3v0.2c0.2-0.2,0.4-0.5,0.6-0.7
				l0.3,0.2c-0.4,0.5-0.8,0.9-1.3,1.4h1.6v0.4H87.9z M88.9,241.5h-2.2v0.5h2.2V241.5z M88.9,242.9v-0.6h-2.2v0.6H88.9z M87.8,240.2
				c0.3-0.2,0.6-0.4,0.8-0.7h-1.2v0.7H87.8z"/>
			<path fill="#A7A9AC" d="M92,241.5v2h-0.4v-1.8c-0.3,0.1-0.6,0.2-0.9,0.3l-0.1-0.4c0.3-0.1,0.6-0.2,1-0.3V240h-0.5
				c-0.1,0.3-0.1,0.6-0.2,0.8c-0.1,0-0.2-0.1-0.3-0.2c0.2-0.5,0.3-1.1,0.4-1.8l0.4,0.1c0,0.2-0.1,0.5-0.1,0.7h0.4v-1.1H92v1.1h0.6
				v0.4H92v1.1l0.6-0.2l0.1,0.4L92,241.5z M95.5,239.4c0,0,0,0.2,0,0.2c-0.1,2.4-0.2,3.3-0.5,3.5c-0.1,0.1-0.2,0.2-0.4,0.2
				c-0.1,0-0.4,0-0.6,0c0-0.1,0-0.3-0.1-0.4c0.2,0,0.5,0,0.6,0c0.1,0,0.1,0,0.2-0.1c0.2-0.2,0.3-1,0.4-3.1h-0.3
				c-0.3,1.4-0.9,2.8-1.8,3.6c-0.1-0.1-0.2-0.2-0.3-0.2c0.9-0.6,1.5-2,1.7-3.3h-0.4c-0.2,0.9-0.7,1.9-1.3,2.4
				c-0.1-0.1-0.2-0.2-0.3-0.2c0.6-0.4,1.1-1.3,1.3-2.2h-0.5c-0.2,0.4-0.4,0.7-0.6,1c-0.1-0.1-0.2-0.2-0.3-0.2
				c0.4-0.5,0.8-1.3,0.9-2.1l0.4,0.1c-0.1,0.3-0.1,0.6-0.2,0.8h1.7v0L95.5,239.4z"/>
			<path fill="#A7A9AC" d="M97.6,238.6c-0.1,0.4-0.3,0.7-0.4,1.1v3.7h-0.4v-3c-0.2,0.3-0.3,0.5-0.5,0.7c0-0.1-0.1-0.3-0.2-0.4
				c0.5-0.5,0.9-1.4,1.1-2.2L97.6,238.6z M99,242.9c-0.3,0.2-0.9,0.4-1.3,0.6c-0.1-0.1-0.2-0.2-0.2-0.3c0.5-0.1,1-0.3,1.3-0.5
				L99,242.9z M98.6,239.1h-1.1v-0.3h3.4v0.3h-1.1v0.3h1v1h-3.1v-1h0.9V239.1z M97.8,242.6v-1.9h3v1.9H97.8z M98.1,240.2h0.6v-0.5
				h-0.6V240.2z M98.2,241.3h2.2V241h-2.2V241.3z M98.2,241.8h2.2v-0.3h-2.2V241.8z M98.2,242.4h2.2v-0.3h-2.2V242.4z M99.6,239.1
				H99v0.3h0.6V239.1z M99,240.2h0.6v-0.5H99V240.2z M99.8,242.7c0.5,0.2,1,0.4,1.3,0.5l-0.3,0.2c-0.3-0.2-0.7-0.4-1.2-0.5
				L99.8,242.7z M99.9,239.7v0.5h0.6v-0.5H99.9z"/>
			<path fill="#A7A9AC" d="M103.5,241.2l-0.7,0.2v1.5c0,0.2-0.1,0.3-0.2,0.4c-0.1,0.1-0.4,0.1-0.7,0.1c0-0.1-0.1-0.3-0.1-0.4
				c0.2,0,0.5,0,0.5,0c0.1,0,0.1,0,0.1-0.1v-1.4c-0.3,0.1-0.5,0.2-0.7,0.2l-0.1-0.4c0.2-0.1,0.5-0.1,0.8-0.2V240h-0.8v-0.4h0.8v-1.1
				h0.4v1.1h0.6v0.4h-0.6v1c0.2-0.1,0.4-0.1,0.6-0.2L103.5,241.2z M104.5,240.6c-0.5,0-0.7-0.2-0.7-0.6v-1.5h0.4v0.6h2.2v0.4h-2.2
				v0.5c0,0.2,0.1,0.3,0.3,0.3h1.4c0.2,0,0.5,0,0.6,0c0,0.1,0,0.3,0,0.3c-0.1,0-0.4,0-0.6,0H104.5z M103.8,241.1h2.5v2.3H106v-0.2
				h-1.7v0.2h-0.4V241.1z M104.2,241.4v0.5h1.7v-0.5H104.2z M106,242.9v-0.6h-1.7v0.6H106z"/>
			<path fill="#A7A9AC" d="M109.6,242c0,0.2-0.2,0.5-0.5,0.7c0.2,0.1,0.5,0.2,0.6,0.3l-0.3,0.2c-0.2-0.1-0.4-0.2-0.7-0.4
				c-0.3,0.2-0.8,0.3-1.5,0.5c0-0.1-0.1-0.2-0.2-0.3c0.6-0.1,1-0.2,1.3-0.4c-0.3-0.1-0.6-0.2-0.8-0.3c0.1-0.1,0.2-0.2,0.3-0.4
				l-0.6,0l0-0.3c0.2,0,0.5,0,0.9,0c0.1-0.1,0.2-0.3,0.2-0.4h-0.9v-0.9h1v-0.2h-0.9v-0.6h-0.4v-0.3h0.4v-0.5h0.9v-0.4h0.3v0.4h0.9
				v0.5h0.4v0.3h-0.4v0.6h-0.9v0.2h1v0.9h-1.1c-0.1,0.1-0.1,0.3-0.2,0.4c0.3,0,0.5,0,0.8,0v-0.1v-0.2h0.3v0.2v0l0.3,0l0,0.3
				L109.6,242z M107.8,241.2h0.7v-0.3h-0.7V241.2z M108,239.2v0.3h0.5v-0.3H108z M108.5,240v-0.3H108v0.3H108.5z M108.3,242.1
				c-0.1,0.1-0.1,0.2-0.2,0.2c0.2,0.1,0.5,0.2,0.7,0.2c0.3-0.2,0.4-0.4,0.5-0.5L108.3,242.1z M108.8,239.2v0.3h0.6v-0.3H108.8z
				 M109.4,240v-0.3h-0.6v0.3H109.4z M108.8,240.8v0.3h0.7v-0.3H108.8z M111.7,239.9c-0.1,0.8-0.2,1.5-0.5,2.1
				c0.2,0.5,0.5,0.9,0.9,1.1c-0.1,0.1-0.2,0.2-0.2,0.3c-0.3-0.2-0.6-0.6-0.8-1c-0.2,0.4-0.6,0.8-1,1.1c0-0.1-0.1-0.2-0.2-0.3
				c0.5-0.3,0.8-0.7,1-1.2c-0.2-0.4-0.3-0.9-0.4-1.4c-0.1,0.2-0.2,0.4-0.3,0.6c-0.1-0.1-0.2-0.2-0.3-0.2c0.4-0.6,0.6-1.4,0.7-2.3
				l0.3,0.1c0,0.3-0.1,0.6-0.2,0.9h1.3v0.4H111.7z M110.7,239.9c0.1,0.6,0.2,1.1,0.4,1.6c0.2-0.5,0.2-1,0.3-1.6H110.7z"/>
		</g>
	</g>
</g>
<g>
</g>
<g>
</g>
<g>
</g>
<g>
</g>
<g>
</g>
<g>
</g>
<g>
</g>
<g>
</g>
<g>
</g>
<g>
</g>
<g>
</g>
<g>
</g>
<g>
</g>
<g>
</g>
<g>
</g>
</svg>
