<?xml version="1.0" encoding="utf-8"?>
<!-- Generator: Adobe Illustrator 18.0.0, SVG Export Plug-In . SVG Version: 6.00 Build 0)  -->
<!DOCTYPE svg PUBLIC "-//W3C//DTD SVG 1.1//EN" "http://www.w3.org/Graphics/SVG/1.1/DTD/svg11.dtd">
<svg version="1.1" id="Layer_1" xmlns="http://www.w3.org/2000/svg" xmlns:xlink="http://www.w3.org/1999/xlink" x="0px" y="0px"
	 viewBox="0 0 334.3 360.5" enable-background="new 0 0 334.3 360.5" xml:space="preserve">
<g>
	<path fill="#2368B5" d="M227.7,73L227.7,73L227.7,73c-1,0.5-1.8,1.4-2.3,2.3v0v0c-0.5-1-1.4-1.8-2.3-2.3v0l0,0
		c1-0.5,1.8-1.4,2.3-2.3l0,0l0,0C225.9,71.6,226.7,72.4,227.7,73z"/>
	<rect x="225.3" y="69.2" fill="#2368B5" width="0.1" height="7.5"/>
	<rect x="221.6" y="72.9" fill="#2368B5" width="7.5" height="0.1"/>
</g>
<g>
	<path fill="#2368B5" d="M306.8,108.2L306.8,108.2L306.8,108.2c-0.7,0.4-1.2,0.9-1.6,1.6l0,0l0,0c-0.4-0.7-0.9-1.2-1.6-1.6l0,0l0,0
		c0.7-0.4,1.2-0.9,1.6-1.6l0,0l0,0C305.6,107.3,306.1,107.9,306.8,108.2z"/>
	<rect x="305.2" y="105.7" fill="#2368B5" width="0.1" height="5.1"/>
	<rect x="302.7" y="108.2" fill="#2368B5" width="5.1" height="0.1"/>
</g>
<g>
	<path fill="#2368B5" d="M263.8,131.5L263.8,131.5L263.8,131.5c-0.7,0.4-1.2,0.9-1.6,1.6l0,0l0,0c-0.4-0.7-0.9-1.2-1.6-1.6l0,0l0,0
		c0.7-0.4,1.2-0.9,1.6-1.6l0,0l0,0C262.6,130.6,263.1,131.1,263.8,131.5z"/>
	<rect x="262.2" y="129" fill="#2368B5" width="0.1" height="5.1"/>
	<rect x="259.7" y="131.5" fill="#2368B5" width="5.1" height="0.1"/>
</g>
<g>
	<path fill="#2368B5" d="M123.4,41.7L123.4,41.7L123.4,41.7c-1.1,0.6-2.1,1.5-2.7,2.7l0,0l0,0c-0.6-1.1-1.5-2.1-2.7-2.7l0,0l0,0
		c1.1-0.6,2.1-1.5,2.7-2.7v0v0C121.4,40.1,122.3,41,123.4,41.7z"/>
	<rect x="120.7" y="37.4" fill="#2368B5" width="0.1" height="8.6"/>
	<rect x="116.4" y="41.6" fill="#2368B5" width="8.6" height="0.1"/>
</g>
<g>
	<path fill="#FFFFFF" d="M143.9,185.2L143.9,185.2L143.9,185.2c-0.6,0.3-1,0.8-1.4,1.4l0,0l0,0c-0.3-0.6-0.8-1-1.4-1.4l0,0l0,0
		c0.6-0.3,1-0.8,1.4-1.4l0,0l0,0C142.8,184.4,143.3,184.9,143.9,185.2z"/>
	
		<line fill="none" stroke="#FFFFFF" stroke-width="6.928107e-002" stroke-miterlimit="10" x1="142.5" y1="183" x2="142.5" y2="187.4"/>
	
		<line fill="none" stroke="#FFFFFF" stroke-width="6.928107e-002" stroke-miterlimit="10" x1="144.7" y1="185.2" x2="140.3" y2="185.2"/>
</g>
<g>
	<circle fill="#9C8FC4" cx="287.3" cy="49.6" r="1"/>
	<circle fill="#9C8FC4" cx="314.7" cy="59.8" r="0.6"/>
	<circle fill="#9C8FC4" cx="307.2" cy="40.5" r="1.5"/>
	<circle fill="#9C8FC4" cx="296.8" cy="56.7" r="0.4"/>
	<circle fill="#9C8FC4" cx="323.3" cy="32.7" r="0.4"/>
	<circle fill="#9C8FC4" cx="292" cy="66" r="0.4"/>
	<circle fill="#9C8FC4" cx="281.5" cy="66.5" r="0.4"/>
	<circle fill="#9C8FC4" cx="266.6" cy="48.7" r="0.4"/>
	<circle fill="#9C8FC4" cx="265.9" cy="68.2" r="0.4"/>
</g>
<circle fill="#2368B5" cx="5.9" cy="5.9" r="5.9"/>
<circle fill="#2368B5" cx="214" cy="242.5" r="3.2"/>
<circle fill="#007A6D" cx="160.1" cy="115.8" r="16.4"/>
<g>
	<path fill="none" stroke="#032360" stroke-width="0.3692" stroke-miterlimit="10" d="M43.9,121c-1.5-2.8-1-19.7,0.9-25"/>
	<path fill="none" stroke="#032360" stroke-width="0.3692" stroke-miterlimit="10" d="M126.5,226.4c-19.7-6-37.3-17.1-51-31.7"/>
	<path fill="none" stroke="#032360" stroke-width="0.3692" stroke-miterlimit="10" d="M244.3,195.3c-13.1,13.7-29.5,24.3-48,30.3"/>
	<path fill="none" stroke="#032360" stroke-width="0.3692" stroke-miterlimit="10" d="M276.4,111.4c0,1.2,0.1,2.5,0.1,3.7
		c0,9.2-1.1,18.2-3.1,26.8"/>
	<path fill="none" stroke="#032360" stroke-width="0.3692" stroke-miterlimit="10" d="M205.4,8c20.4,8.6,37.9,23,50.4,41"/>
	<path fill="none" stroke="#032360" stroke-width="0.3216" stroke-miterlimit="10" d="M82.8,28.4c14.2-13.4,32.6-23,53.3-27"/>
</g>
<circle fill="none" stroke="#032360" stroke-width="0.2771" stroke-miterlimit="10" cx="160.1" cy="115.8" r="34.5"/>
<g>
	<g>
		<g>
			<path fill="#BCBEC0" d="M231,349.6c1.5-3.6,2.8-7.3,4-11c1.2-3.7,2.2-7.5,3.1-11.3c-0.7,3.8-1.8,7.6-2.9,11.4
				C233.9,342.4,232.6,346.1,231,349.6z"/>
		</g>
		
			<linearGradient id="SVGID_1_" gradientUnits="userSpaceOnUse" x1="164.5114" y1="-1537.4717" x2="164.5114" y2="-1510.9357" gradientTransform="matrix(-0.3026 0.9531 0.9531 0.3026 1743.0392 644.6998)">
			<stop  offset="0" style="stop-color:#FFF33B;stop-opacity:0"/>
			<stop  offset="1.385293e-002" style="stop-color:#FEEF3B;stop-opacity:2.072120e-002"/>
			<stop  offset="0.1383" style="stop-color:#FACD3D;stop-opacity:0.2069"/>
			<stop  offset="0.2654" style="stop-color:#F7B23E;stop-opacity:0.397"/>
			<stop  offset="0.3946" style="stop-color:#F59F3E;stop-opacity:0.5902"/>
			<stop  offset="0.5273" style="stop-color:#F3943F;stop-opacity:0.7887"/>
			<stop  offset="0.6685" style="stop-color:#F3903F"/>
			<stop  offset="0.8876" style="stop-color:#ED683C"/>
			<stop  offset="1" style="stop-color:#E93E3A"/>
		</linearGradient>
		<path fill="url(#SVGID_1_)" d="M237.1,329.9c3.5-0.4,7.9,2.3,8.9,4.6l-2.5,0.3c3,1.2,5.5,3.1,7.7,5.9l-3.2-0.2
			c1.8,0.9,2.7,3,7,4.8c-4.8-1.5-7.1,0.6-9.7,0.4l2.6,1.9c-3.3,0.2-6.2,0-8.8-0.9l4,2.6c-4.9,0.2-10-1.2-11.5-2.3l-5.6-9.8
			L237.1,329.9z"/>
		<path fill="#E6E7E8" d="M226.2,359.5l2.6-8.3c0.5,0,1,0.1,1.6,0.1l0.5-1.7l0.9,0.3c1.6-3.1,6.7-18.9,7.1-22.3l-0.9-0.3l0.5-1.7
			c-0.4-0.3-0.9-0.6-1.3-0.8l2.6-8.3l-18,2.2c-11.4-2.7-23.5-2.7-30.9-1l-4,12.5c5.1,5.7,14.9,12.7,25.8,17L226.2,359.5z"/>
		
			<linearGradient id="SVGID_2_" gradientUnits="userSpaceOnUse" x1="152.4263" y1="-1553.7219" x2="165.2442" y2="-1553.7219" gradientTransform="matrix(-0.3026 0.9531 0.9531 0.3026 1743.0392 644.6998)">
			<stop  offset="0" style="stop-color:#FFFFFF"/>
			<stop  offset="1" style="stop-color:#231F20"/>
		</linearGradient>
		<path opacity="0.6" fill="url(#SVGID_2_)" d="M188.8,324l47,14.9l3.1-11.3l-0.9-0.3l0.5-1.7l-1.3-0.8l-15.4-6.1
			c0,0-17.8-4.2-30.9-1L188.8,324z"/>
		<path fill="#A7A9AC" d="M214.2,331.9c1.3-4-1.1-8.3-5.2-9.6c-4.1-1.3-8.5,0.9-9.7,4.8"/>
		<path fill="#BCBEC0" d="M199.3,327.2c-1.3,4,1.1,8.3,5.2,9.6c4.1,1.3,8.5-0.9,9.7-4.8"/>
		<polygon fill="#BCBEC0" points="221.9,318.7 237.3,324.8 239.9,316.5 		"/>
		<polygon fill="#BCBEC0" points="212.8,347.3 226.2,359.5 228.9,351.2 		"/>
		<path fill="#414042" d="M190.9,317.7l-8.7,2.9c-1,0.3-1.3,1.5-0.7,2.3l5.4,7.4L190.9,317.7z"/>
		<path fill="#BCBEC0" d="M226.6,338.7c5.4,1.7,10.6,0.5,10.6,0.5s-3.6-3.9-8.9-5.7c-5.4-1.7-10.1-1.9-10.6-0.5
			C217.2,334.4,221.2,337,226.6,338.7z"/>
	</g>
	<g>
		<g>
			<path fill="#FFEBCA" d="M234.9,294.2l-4.7-4.1l-9.3,12.2l8.9,4.1C229.8,306.4,235.1,294,234.9,294.2z"/>
			<polygon fill="#1B75BC" points="228.5,294.4 226.4,298 225.1,296.6 			"/>
			<path fill="#6D6E71" d="M230.2,290.1l-0.7-1.7c0,0,5.4,1.9,6.1,3.5c0.8,1.9-1.9,5.3-1.9,5.3s0.6-1.1,0.1-1.4
				c-0.3-0.2-0.7,0.2-0.7,0.2l0.6-2.8L230.2,290.1z"/>
			
				<ellipse transform="matrix(0.7382 0.6746 -0.6746 0.7382 259.3185 -78.2951)" fill="#6D6E71" cx="230.5" cy="294.9" rx="0.4" ry="0.6"/>
			
				<ellipse transform="matrix(0.7382 0.6746 -0.6746 0.7382 257.7731 -77.1502)" fill="#6D6E71" cx="228.3" cy="293.5" rx="0.4" ry="0.6"/>
		</g>
		<polygon fill="#1B75BC" points="221.5,301.5 212.6,316 228.8,320.2 230.7,304.2 		"/>
		<path fill="#1B75BC" d="M221.5,301.5c-6.9,0.2-9.5,3.7-9.8,6.5c-0.3,2.7,3.2,4.8,5.2,5.2l0.5-0.7c0,0-4.8-1.5-3.8-4
			c1.1-2.7,5.2-2.6,5.2-2.6L221.5,301.5z"/>
		<path fill="#1B75BC" d="M230.7,304.2c5,4.9,4.5,9.1,2.8,11.4c-1.6,2.1-5.6,1.3-7.3,0.3l0.1-0.8c0,0,4.6,2.1,5.5-0.4
			c1-2.8-2.1-5.4-2.1-5.4L230.7,304.2z"/>
		<polygon fill="#58595B" points="219.9,307.9 223.2,309.9 226.6,309.3 224.5,316.3 221.3,316.6 217.9,314.1 		"/>
		<polyline fill="#FFEBCA" points="217.8,312.6 219.8,313.3 219.4,314 216.7,313.1 		"/>
		<polygon fill="#FFEBCA" points="226,315.2 224.1,314.4 223.9,314.9 226.5,316.1 		"/>
		<path fill="#808285" d="M223.2,309.9c-0.1-0.1-2.8-2.6-2.8-2.6l-0.1,0.8L223.2,309.9z"/>
		<polygon fill="#939598" points="223.2,309.9 221.4,306.5 220.9,307.7 		"/>
		<path fill="#1B75BC" d="M212.6,316c-2.7,2-4.2,4.6-4,6.7c0.2,2,2.2,5.7,2.2,5.7s2.4-0.6,2.2-0.8c-0.2-0.2-1.6-6.1,0.1-7.3
			s4.6-1.7,7.9-0.4c3.3,1.3,3.3,3.9,2.6,5.7s-2,3.4-2,3.4l1.8,0.7c0,0,5.5-4.5,5.6-6.8c0.1-2.3-0.2-2.6-0.2-2.6L212.6,316z"/>
		<polygon fill="#231F20" points="210.8,328.4 209.8,331.6 213.1,328.8 213,327.6 		"/>
		<polygon fill="#231F20" points="221.6,329 222.3,332.4 223.5,329.7 		"/>
		<polyline fill="#939598" points="223.2,309.9 225.2,307.4 224.5,309.2 		"/>
		<polygon fill="#808285" points="226.1,309.4 226.5,308.3 223.2,309.9 		"/>
		<polygon fill="#414042" points="223.2,309.9 221.3,316.6 218.9,314.8 		"/>
		<g>
			<polygon fill="#939598" points="223.2,309.9 222.2,313.2 221.2,316.5 222.2,313.2 			"/>
		</g>
		<polygon fill="#73B564" points="221.8,307.5 222,306.9 222.1,307.2 221.8,307.5 		"/>
		<polygon fill="#F7A823" points="221.9,307.9 222.1,307.3 222.3,307.6 222,307.9 		"/>
		<polygon fill="#2368B5" points="222.1,308.2 222.3,307.7 222.5,307.9 222.2,308.3 		"/>
		<polygon fill="#F7A823" points="224.7,308.2 224.7,307.8 224.5,308 224.6,308.4 		"/>
	</g>
</g>
<path fill="none" stroke="#032360" stroke-width="0.2771" stroke-miterlimit="10" stroke-dasharray="3.3255" d="M334.3,215.8
	c-10.9,5.1-24.6,10.4-36.3,21.3c-23.2,21.5-16.2,43.2-5.6,51c10.5,7.7,16.2-11.9,4.9-16.9c-11.2-4.9-21.1,16.2-11.9,29.5
	c9.1,13.3,29.5,28.1,25.3,49.9c-4.2,21.8-45,0.7-45,0.7"/>
<circle fill="#007A6D" cx="148" cy="84.2" r="6.5"/>
<g>
</g>
<g>
</g>
<g>
</g>
<g>
</g>
<g>
</g>
<g>
</g>
<g>
</g>
<g>
</g>
<g>
</g>
<g>
</g>
<g>
</g>
<g>
</g>
<g>
</g>
<g>
</g>
<g>
</g>
</svg>
