<?xml version="1.0" encoding="utf-8"?>
<!-- Generator: Adobe Illustrator 18.0.0, SVG Export Plug-In . SVG Version: 6.00 Build 0)  -->
<!DOCTYPE svg PUBLIC "-//W3C//DTD SVG 1.1//EN" "http://www.w3.org/Graphics/SVG/1.1/DTD/svg11.dtd">
<svg version="1.1" id="Layer_1" xmlns="http://www.w3.org/2000/svg" xmlns:xlink="http://www.w3.org/1999/xlink" x="0px" y="0px"
	 viewBox="0 0 48.5 52.3" enable-background="new 0 0 48.5 52.3" xml:space="preserve">
<g>
	<g>
		<path fill="#573392" d="M24.2,52.3C10.9,52.3,0,41.4,0,28C0,18.5,5.4,7.6,17.4,4.7l0.5,2C5.4,9.7,2.1,21.5,2.1,28
			c0,12.2,9.9,22.2,22.2,22.2S46.4,40.2,46.4,28S36.5,5.8,24.2,5.8V3.8c13.4,0,24.2,10.9,24.2,24.2C48.5,41.4,37.6,52.3,24.2,52.3z"
			/>
		<polygon fill="#573392" points="24.5,12.7 21.6,3.5 32.3,0 32.9,2 24.2,4.8 26.5,12.1 		"/>
		<g>
			<path fill="#573392" d="M27.9,24.5c-1.2-1.1-2.2-1.7-3.7-1.7c-1.7,0-2.6,0.8-2.6,2.4c0,3.6,8.7,3,8.7,9.4c0,3.1-1.7,5.4-5,6.1V44
				h-2.8v-3.2c-1.9-0.2-4.2-1.1-5.7-2.5l1.9-2.8c1.6,1.2,3.1,1.9,4.7,1.9c2,0,2.9-0.9,2.9-2.5c0-3.9-8.7-3.5-8.7-9.5
				c0-3.1,1.9-5.3,4.9-5.8v-3.3h2.8v3.3c2.1,0.3,3.5,1.3,4.8,2.6L27.9,24.5z"/>
		</g>
	</g>
</g>
<g>
</g>
<g>
</g>
<g>
</g>
<g>
</g>
<g>
</g>
<g>
</g>
<g>
</g>
<g>
</g>
<g>
</g>
<g>
</g>
<g>
</g>
<g>
</g>
<g>
</g>
<g>
</g>
<g>
</g>
</svg>
