<svg xmlns="http://www.w3.org/2000/svg" viewBox="0 0 34 34"><defs><style>.cls-1{fill:none;}.cls-2{fill:#fff;}</style></defs><title>close_lens_white_bg</title><g id="Layer_2" data-name="Layer 2"><g id="Layer_1-2" data-name="Layer 1"><circle class="cls-1" cx="17" cy="17" r="17"/><path class="cls-2" d="M18.4.91V4.08a12.94,12.94,0,0,1,0,25.67v3.17a16.09,16.09,0,0,0,0-32Z"/><path class="cls-2" d="M4,16.91A13,13,0,0,1,15.27,4.08V.91a16.09,16.09,0,0,0,0,32V29.74A13,13,0,0,1,4,16.91Z"/><polygon class="cls-2" points="21.08 9.84 16.83 14.08 12.59 9.84 9.76 12.67 14.01 16.91 9.76 21.15 12.59 23.98 16.83 19.74 21.08 23.98 23.91 21.15 19.66 16.91 23.91 12.67 21.08 9.84"/></g></g></svg>