<?xml version="1.0" encoding="utf-8"?>
<!-- Generator: Adobe Illustrator 18.0.0, SVG Export Plug-In . SVG Version: 6.00 Build 0)  -->
<!DOCTYPE svg PUBLIC "-//W3C//DTD SVG 1.1//EN" "http://www.w3.org/Graphics/SVG/1.1/DTD/svg11.dtd">
<svg version="1.1" id="Layer_1" xmlns="http://www.w3.org/2000/svg" xmlns:xlink="http://www.w3.org/1999/xlink" x="0px" y="0px"
	 viewBox="0 0 484.1 235.3" enable-background="new 0 0 484.1 235.3" xml:space="preserve">
<g>
	<g>
		<g>
			<path fill="#0C56AB" d="M0,44c4.4-3,9-5.7,13.8-8.1c4.8-2.4,9.7-4.4,14.8-6.1c10.1-3.5,20.5-5.9,31.1-7.6
				c10.6-1.6,21.2-2.4,31.9-2.5c10.7-0.1,21.4,0.4,32,1.5c21.3,2.1,42.3,6.4,62.8,12c10.3,2.9,20.5,6.1,30.5,9.6
				c10.1,3.6,20,7.5,29.9,11.4c19.8,7.9,39.8,15.4,60.1,21.8c10.2,3.3,20.4,6.2,30.7,8.8c10.3,2.6,20.8,4.9,31.3,6.5
				c10.5,1.6,21.2,2.6,31.8,2.5c10.7-0.1,21.3-1.3,31.6-4.2c1.3-0.3,2.5-0.8,3.8-1.2c1.3-0.4,2.5-0.8,3.8-1.3l3.7-1.4
				c1.2-0.5,2.4-1.1,3.6-1.7l1.8-0.8l1.8-0.9c1.2-0.6,2.4-1.2,3.5-1.9c2.3-1.4,4.6-2.8,6.7-4.4c8.7-6.1,16.2-13.9,22.9-22.2
				c-6.7,8.3-14.1,16.1-22.8,22.3c-2.1,1.6-4.4,3-6.7,4.4c-1.1,0.7-2.3,1.3-3.5,1.9l-1.8,1l-1.8,0.9c-1.2,0.6-2.4,1.1-3.6,1.7
				l-3.7,1.5c-1.2,0.5-2.5,0.9-3.8,1.3c-1.3,0.4-2.5,0.9-3.8,1.2c-10.3,2.8-21,4.1-31.7,4.2c-10.7,0.1-21.4-0.9-31.9-2.5
				c-10.6-1.6-21-3.8-31.4-6.4c-10.4-2.6-20.6-5.5-30.8-8.8c-20.4-6.4-40.4-13.9-60.2-21.7c-9.9-4-19.8-7.9-29.9-11.5
				c-10.1-3.6-20.2-6.8-30.5-9.7c-20.5-5.7-41.5-10-62.7-12.1c-21.2-2.1-42.7-2.2-63.8,0.9c-10.5,1.6-21,3.9-31.1,7.4
				c-5,1.7-10,3.7-14.8,6C9.1,38.3,4.4,41,0,44z"/>
		</g>
		<g>
			<path fill="#0C56AB" d="M0,52c4.3-3.1,8.9-5.8,13.7-8.3c2.4-1.2,4.8-2.3,7.2-3.4c2.5-1,4.9-2.1,7.4-2.9c10-3.7,20.4-6.3,30.9-8.1
				c10.5-1.8,21.2-2.7,31.8-3c10.7-0.3,21.3,0.2,31.9,1.1c21.2,1.9,42.2,6.1,62.8,11.7c10.3,2.9,20.4,6.1,30.5,9.6
				c10,3.6,19.9,7.6,29.8,11.5c9.9,4,19.8,7.8,29.8,11.5c10,3.6,20,7.2,30.2,10.4c10.1,3.2,20.3,6.3,30.7,8.8
				c10.3,2.6,20.7,4.9,31.2,6.5c10.5,1.6,21.1,2.6,31.8,2.6c10.6,0,21.3-1.1,31.6-3.8c10.3-2.7,20.2-6.9,29-12.8
				c2.3-1.4,4.3-3.1,6.5-4.6c1-0.8,2.1-1.7,3.1-2.5l1.5-1.3l1.5-1.3l2.9-2.7l2.8-2.8l1.4-1.4l1.3-1.5l2.7-3l-2.7,3l-1.3,1.5
				l-1.4,1.4l-2.8,2.9l-2.9,2.7l-1.5,1.4l-1.5,1.3c-1,0.8-2,1.7-3.1,2.6c-2.2,1.6-4.2,3.3-6.5,4.7c-8.8,6-18.8,10.3-29,13
				c-10.3,2.7-21,3.8-31.7,3.8c-10.7,0.1-21.3-0.9-31.8-2.5c-10.5-1.6-21-3.9-31.3-6.4c-10.3-2.6-20.6-5.6-30.7-8.8
				c-10.2-3.2-20.2-6.7-30.2-10.3c-10-3.7-20-7.5-29.8-11.4c-9.9-4-19.7-8-29.8-11.6c-10-3.5-20.2-6.8-30.4-9.7
				c-20.5-5.6-41.4-9.9-62.7-11.8c-10.6-1-21.2-1.4-31.9-1.2c-10.6,0.2-21.3,1.1-31.8,2.9c-10.5,1.7-20.9,4.2-30.9,7.9
				c-2.5,0.9-5,1.9-7.4,2.9c-2.4,1.1-4.9,2.2-7.2,3.4C9,46.2,4.4,48.9,0,52z"/>
		</g>
		<g>
			<path fill="#0C56AB" d="M0.1,60c4.3-3.2,8.8-6,13.5-8.5c2.3-1.3,4.7-2.4,7.1-3.5c2.4-1,4.9-2.2,7.4-3.1
				c9.9-3.9,20.2-6.6,30.7-8.6c20.9-3.9,42.4-4.4,63.6-2.6c10.6,0.9,21.2,2.3,31.6,4.2c10.5,2,20.8,4.4,31.1,7.2
				c10.3,2.8,20.4,6.1,30.4,9.7l7.5,2.8c2.5,0.9,5,1.9,7.4,2.9l14.8,5.9c19.7,7.9,39.7,15.3,59.9,21.8c20.2,6.4,40.8,12,61.8,15.3
				c10.5,1.6,21.1,2.7,31.7,2.7l4,0l4-0.2c2.7-0.1,5.3-0.3,7.9-0.6c0.7-0.1,1.3-0.1,2-0.2l2-0.3l3.9-0.6c1.3-0.2,2.6-0.5,3.9-0.8
				c1.3-0.3,2.6-0.5,3.9-0.9l3.9-1c1.3-0.3,2.5-0.8,3.8-1.2c2.6-0.7,5-1.8,7.5-2.7c4.9-2.1,9.7-4.4,14.2-7.2l1.7-1l1.7-1.1l3.3-2.2
				l3.2-2.4c0.5-0.4,1.1-0.8,1.6-1.2l1.5-1.3l3-2.6l2.9-2.7l1.5-1.4l1.4-1.4l2.8-2.9l-2.8,2.9l-1.4,1.4l-1.4,1.4l-2.9,2.7l-3,2.6
				l-1.5,1.3c-0.5,0.4-1.1,0.8-1.6,1.2l-3.2,2.4l-3.3,2.3l-1.6,1.1l-1.7,1c-4.5,2.9-9.3,5.2-14.2,7.3c-2.5,0.9-4.9,2-7.5,2.7
				c-1.3,0.4-2.5,0.9-3.8,1.2l-3.9,1c-1.3,0.4-2.6,0.6-3.9,0.9c-1.3,0.3-2.6,0.5-3.9,0.8l-4,0.6l-2,0.3c-0.7,0.1-1.3,0.1-2,0.2
				c-2.6,0.3-5.3,0.5-8,0.6l-4,0.2l-4,0c-10.6,0-21.3-1-31.8-2.7c-21-3.3-41.6-8.8-61.9-15.2c-20.3-6.5-40.2-13.8-60-21.8l-14.8-6
				c-2.5-1-4.9-2-7.4-2.9l-7.5-2.8c-10-3.6-20.1-6.9-30.3-9.7c-10.2-2.8-20.6-5.3-31-7.2c-10.4-2-21-3.4-31.6-4.3
				c-21.2-1.8-42.6-1.3-63.5,2.5c-10.4,1.9-20.8,4.6-30.7,8.4c-2.5,0.9-4.9,2-7.4,3c-2.4,1.1-4.8,2.2-7.2,3.5
				C8.9,54.1,4.3,56.9,0.1,60z"/>
		</g>
		<g>
			<path fill="#0C56AB" d="M0.1,68c4.2-3.2,8.7-6.1,13.3-8.7c2.3-1.3,4.7-2.5,7.1-3.7c2.4-1.1,4.8-2.2,7.3-3.2
				c9.8-4.1,20.1-7,30.5-9.1c20.8-4.2,42.3-5,63.4-3.4c10.6,0.8,21.1,2.2,31.6,4c10.5,1.9,20.8,4.3,31,7.2
				c10.3,2.8,20.3,6.1,30.3,9.7l7.5,2.8l7.4,2.9l14.8,6c19.7,7.9,39.6,15.3,59.8,21.9c10.1,3.2,20.3,6.2,30.6,8.9
				c10.3,2.6,20.7,4.8,31.1,6.5c10.5,1.7,21.1,2.7,31.7,2.8c5.3,0.1,10.6-0.2,15.9-0.6c1.3-0.1,2.6-0.3,3.9-0.5
				c1.3-0.2,2.6-0.3,3.9-0.5c2.6-0.5,5.2-0.8,7.8-1.5c1.3-0.3,2.6-0.6,3.9-0.9l3.8-1.1c0.6-0.2,1.3-0.4,1.9-0.6l1.9-0.6l3.8-1.3
				l3.7-1.5l1.8-0.8l1.8-0.9l3.6-1.7l3.5-1.9c0.6-0.3,1.2-0.6,1.7-1l1.7-1.1c1.1-0.7,2.3-1.4,3.4-2.1c2.2-1.5,4.4-3,6.4-4.7
				c4.3-3.2,8.1-6.8,12-10.5c-3.8,3.7-7.7,7.3-11.9,10.5c-2,1.7-4.3,3.1-6.4,4.7c-1.1,0.7-2.2,1.4-3.4,2.1l-1.7,1.1
				c-0.6,0.3-1.2,0.7-1.7,1l-3.5,1.9c-1.2,0.6-2.4,1.2-3.6,1.7l-1.8,0.9l-1.8,0.8l-3.7,1.5l-3.8,1.3l-1.9,0.7
				c-0.6,0.2-1.3,0.4-1.9,0.6l-3.8,1.1c-1.3,0.3-2.6,0.6-3.9,0.9c-2.6,0.7-5.2,1-7.8,1.5c-1.3,0.3-2.6,0.4-3.9,0.5
				c-1.3,0.2-2.6,0.3-4,0.5c-5.3,0.4-10.6,0.7-15.9,0.6c-10.6-0.1-21.2-1.1-31.7-2.8c-10.5-1.6-20.9-3.8-31.2-6.5
				c-10.3-2.6-20.5-5.6-30.6-8.8c-20.2-6.5-40.2-13.9-59.9-21.8l-14.8-6l-7.4-3l-7.5-2.8c-10-3.6-20-7-30.3-9.8
				c-10.2-2.8-20.5-5.3-31-7.2c-10.4-1.9-21-3.3-31.5-4.1c-21.1-1.6-42.5-0.8-63.3,3.3c-10.4,2.1-20.7,4.9-30.5,9
				c-2.5,1-4.9,2.1-7.3,3.2c-2.4,1.2-4.8,2.3-7.1,3.6C8.8,62,4.3,64.8,0.1,68z"/>
		</g>
		<g>
			<path fill="#0C56AB" d="M0.1,76c4.2-3.3,8.6-6.2,13.2-8.9c4.6-2.7,9.3-5.1,14.2-7.1c2.4-1.1,4.9-2,7.4-3c2.5-0.9,5-1.8,7.5-2.6
				l3.8-1.2l3.8-1.1l1.9-0.5l1.9-0.5l3.9-0.9c20.8-4.5,42.2-5.6,63.3-4.2c21.2,1.4,42.2,5.3,62.6,11c5.1,1.4,10.2,3,15.2,4.6
				l7.5,2.5c2.5,0.8,5,1.7,7.5,2.7c2.5,0.9,5,1.8,7.4,2.8l7.4,3l14.7,6c19.7,7.9,39.5,15.4,59.7,21.9c10.1,3.3,20.3,6.2,30.5,8.9
				c10.3,2.6,20.6,4.9,31.1,6.6c10.5,1.7,21,2.8,31.6,2.9c10.6,0.2,21.2-0.6,31.6-2.7c2.6-0.5,5.2-1.2,7.7-1.8
				c1.3-0.3,2.5-0.8,3.8-1.1c1.3-0.4,2.5-0.7,3.8-1.2c2.5-0.9,5-1.8,7.4-2.9c1.2-0.5,2.4-1,3.6-1.6l3.5-1.8c1.2-0.6,2.3-1.3,3.5-1.9
				c1.1-0.7,2.3-1.3,3.4-2c2.2-1.4,4.5-2.8,6.6-4.4c4.4-3,8.4-6.5,12.4-10c-4,3.5-8,7-12.3,10.1c-2.1,1.6-4.4,3-6.6,4.5
				c-1.1,0.7-2.3,1.3-3.4,2c-1.2,0.7-2.3,1.4-3.5,1.9l-3.5,1.8c-1.2,0.6-2.4,1.1-3.6,1.6c-2.4,1.1-4.9,2-7.4,3
				c-1.2,0.5-2.5,0.8-3.8,1.2c-1.3,0.4-2.5,0.8-3.8,1.2c-2.6,0.6-5.1,1.4-7.7,1.9c-10.4,2.1-21,3-31.7,2.8
				c-10.6-0.2-21.2-1.2-31.7-2.9c-10.5-1.6-20.9-3.9-31.1-6.5c-10.3-2.6-20.5-5.5-30.6-8.8c-20.2-6.5-40.1-13.9-59.8-21.8l-14.7-6
				l-7.4-3c-2.5-1-5-1.9-7.4-2.8c-2.5-0.9-5-1.9-7.5-2.7l-7.5-2.6c-5.1-1.6-10.1-3.2-15.2-4.6c-20.4-5.7-41.3-9.6-62.5-11.1
				c-21.1-1.4-42.5-0.4-63.2,4.1L54,51.5L52,52l-1.9,0.5l-3.8,1l-3.8,1.2c-2.5,0.7-5,1.7-7.5,2.5c-2.5,1-5,1.9-7.4,2.9
				c-4.9,2-9.6,4.4-14.2,7C8.7,69.8,4.3,72.7,0.1,76z"/>
		</g>
		<g>
			<path fill="#0C56AB" d="M0.2,84c4.1-3.4,8.5-6.4,13-9.1c4.5-2.7,9.2-5.2,14.1-7.4l1.8-0.8l1.8-0.8c1.2-0.5,2.4-1,3.7-1.5
				c2.5-0.9,4.9-1.9,7.5-2.7c5-1.7,10.1-3.1,15.3-4.4c20.7-4.9,42-6.3,63.2-5c10.6,0.6,21.1,1.9,31.6,3.7c2.6,0.5,5.2,0.9,7.8,1.5
				l7.8,1.7c5.2,1.2,10.3,2.5,15.4,3.9l3.8,1.1c1.3,0.4,2.5,0.8,3.8,1.2c2.5,0.8,5.1,1.5,7.6,2.4l7.5,2.6c2.5,0.8,5,1.8,7.5,2.7
				c9.9,3.7,19.7,7.9,29.5,11.8c4.9,2,9.8,4,14.8,5.8l7.4,2.9l7.4,2.8c5,1.9,10,3.6,14.9,5.4c5,1.7,10,3.4,15.1,5
				c5,1.7,10.1,3.2,15.2,4.7c5.1,1.4,10.2,2.9,15.3,4.2c10.3,2.6,20.6,4.9,31,6.6c10.4,1.7,21,2.8,31.6,3.1
				c10.6,0.2,21.2-0.5,31.6-2.4c1.3-0.2,2.6-0.5,3.9-0.8l3.9-0.9l3.8-1.1l1.9-0.5c0.6-0.2,1.3-0.4,1.9-0.6l3.8-1.3
				c1.2-0.4,2.5-1,3.7-1.4c2.5-0.9,4.9-2.1,7.3-3.2c9.5-4.6,18.4-10.6,26.5-17.4c-8.1,6.8-16.9,12.9-26.4,17.5
				c-2.4,1.1-4.8,2.3-7.3,3.2c-1.2,0.5-2.4,1-3.7,1.5l-3.8,1.3c-0.6,0.2-1.3,0.4-1.9,0.6l-1.9,0.5l-3.8,1.1l-3.9,0.9
				c-1.3,0.3-2.6,0.6-3.9,0.8c-10.4,2-21.1,2.7-31.7,2.5c-10.6-0.2-21.2-1.3-31.6-3c-10.5-1.7-20.8-4-31.1-6.6
				c-5.1-1.3-10.2-2.7-15.3-4.2c-5.1-1.5-10.2-3-15.2-4.7c-5.1-1.6-10.1-3.3-15.1-5c-5-1.8-10-3.5-15-5.4l-7.5-2.8l-7.4-2.8
				c-5-1.9-9.9-3.9-14.8-5.8c-9.8-4-19.6-8.2-29.5-11.9c-2.5-0.9-4.9-1.9-7.5-2.7l-7.5-2.6c-2.5-0.8-5.1-1.6-7.6-2.4
				c-1.3-0.4-2.5-0.8-3.8-1.2l-3.8-1.1c-5.1-1.5-10.2-2.7-15.4-4l-7.8-1.7c-2.6-0.6-5.2-1-7.8-1.5c-10.4-1.8-20.9-3.1-31.5-3.8
				c-21.1-1.3-42.5,0.1-63.1,4.9c-5.1,1.3-10.3,2.6-15.3,4.3c-2.5,0.8-5,1.8-7.5,2.7c-1.2,0.5-2.5,1-3.7,1.5l-1.8,0.8l-1.8,0.8
				c-4.8,2.1-9.5,4.6-14.1,7.3C8.6,77.7,4.3,80.7,0.2,84z"/>
		</g>
		<g>
			<path fill="#0C56AB" d="M0.2,92c4-3.4,8.3-6.5,12.8-9.3c4.5-2.8,9.1-5.4,13.9-7.6c4.8-2.3,9.7-4.3,14.7-6.1
				c5-1.8,10.1-3.3,15.2-4.7c20.6-5.2,41.9-6.9,63.1-5.9c10.6,0.5,21.1,1.8,31.6,3.5c10.4,1.8,20.8,4.1,31,7
				c10.2,2.9,20.3,6.1,30.2,9.9c9.9,3.8,19.6,8,29.5,11.9c19.6,7.9,39.4,15.4,59.6,21.9c20.1,6.5,40.6,12.1,61.5,15.5
				c20.8,3.4,42.2,4.7,63.2,1.2c10.4-1.8,20.6-4.8,30.3-9.1c9.6-4.3,18.7-10,27.1-16.5c-8.3,6.5-17.3,12.2-27,16.6
				c-9.7,4.3-19.9,7.4-30.3,9.3c-20.9,3.5-42.4,2.3-63.3-1.1c-20.9-3.4-41.4-9-61.6-15.4c-20.2-6.5-40-13.9-59.7-21.8
				c-9.8-4-19.5-8.2-29.4-11.9c-9.9-3.8-19.9-7.1-30.1-10c-10.2-2.9-20.5-5.2-30.9-7.1c-10.4-1.8-20.9-3-31.5-3.6
				c-21.1-1.1-42.4,0.6-63,5.7c-5.1,1.3-10.2,2.8-15.2,4.6c-5,1.7-9.9,3.8-14.7,6c-4.8,2.2-9.4,4.8-13.9,7.6
				C8.6,85.6,4.2,88.6,0.2,92z"/>
		</g>
		<g>
			<path fill="#0C56AB" d="M0.2,100.1c4-3.5,8.2-6.7,12.6-9.6c4.4-2.9,9-5.6,13.8-7.9c4.7-2.4,9.6-4.5,14.5-6.4c2.5-1,5-1.8,7.5-2.7
				c2.5-0.8,5.1-1.6,7.6-2.3c20.4-5.6,41.8-7.6,63-6.7c21.2,0.9,42.2,4.6,62.6,10.4c10.2,2.9,20.3,6.2,30.1,10
				c9.9,3.8,19.6,8,29.4,12c9.8,4,19.7,7.8,29.6,11.5c9.9,3.7,19.9,7.2,30,10.5c10.1,3.2,20.2,6.3,30.4,8.9
				c10.2,2.7,20.6,4.9,31,6.7c10.4,1.7,21,2.9,31.5,3.3c10.6,0.4,21.2,0,31.6-1.7c10.4-1.6,20.7-4.4,30.5-8.4
				c9.8-4.1,19-9.4,27.6-15.6c-8.5,6.3-17.8,11.6-27.5,15.7c-9.8,4.1-20.1,6.9-30.5,8.6c-10.5,1.7-21.1,2.1-31.7,1.7
				c-10.6-0.4-21.1-1.5-31.6-3.3c-10.4-1.7-20.8-4-31.1-6.6c-10.3-2.7-20.4-5.7-30.5-8.9c-10.1-3.3-20.1-6.8-30-10.4
				c-9.9-3.7-19.8-7.5-29.6-11.5c-9.8-4-19.5-8.2-29.4-12c-9.9-3.8-19.9-7.1-30.1-10.1c-20.3-5.7-41.3-9.5-62.4-10.5
				c-21.1-1-42.4,1-62.8,6.6c-2.5,0.7-5.1,1.5-7.6,2.2c-2.5,0.9-5,1.6-7.5,2.6c-5,1.8-9.8,4-14.6,6.3c-4.8,2.3-9.3,5-13.8,7.8
				C8.5,93.4,4.2,96.6,0.2,100.1z"/>
		</g>
		<g>
			<path fill="#0C56AB" d="M0.2,108.1c7.8-7.1,16.7-13,26.1-18c4.7-2.4,9.5-4.7,14.4-6.7c2.4-1,5-1.9,7.4-2.8l3.8-1.2
				c1.3-0.4,2.5-0.8,3.8-1.2c20.3-6,41.7-8.3,62.8-7.5c21.2,0.7,42.2,4.5,62.6,10.2c10.2,2.9,20.2,6.4,30.1,10.2c4.9,2,9.8,4,14.7,6
				c4.9,2,9.8,4.1,14.7,6.1c19.6,8,39.4,15.5,59.5,22.1c10.1,3.3,20.2,6.3,30.4,9c10.2,2.7,20.6,5,31,6.8c10.4,1.8,20.9,3,31.5,3.5
				c10.6,0.5,21.2,0.1,31.6-1.4c10.5-1.5,20.8-3.9,30.7-7.7c9.9-3.8,19.3-8.8,28.1-14.7c-8.8,5.9-18.1,11-28,14.8
				c-9.9,3.8-20.2,6.4-30.7,7.9c-10.5,1.5-21.1,1.9-31.7,1.4c-10.6-0.4-21.1-1.7-31.6-3.4c-10.4-1.7-20.8-4-31-6.7
				c-10.2-2.7-20.4-5.6-30.5-8.9c-20.1-6.5-40-14-59.6-22c-4.9-2-9.8-4-14.7-6.1c-4.9-2.1-9.8-4.1-14.7-6.1
				c-9.9-3.8-19.9-7.2-30-10.2c-20.3-5.7-41.3-9.5-62.4-10.3c-21.1-0.8-42.4,1.5-62.7,7.4c-1.3,0.3-2.5,0.8-3.8,1.2l-3.8,1.2
				c-2.5,0.9-5,1.7-7.4,2.8c-4.9,1.9-9.7,4.2-14.4,6.6C17,95.1,8.1,101,0.2,108.1z"/>
		</g>
		<g>
			<path fill="#0C56AB" d="M0.3,116.1C8,108.8,16.7,102.7,26,97.6c1.1-0.7,2.3-1.2,3.5-1.9c1.2-0.6,2.3-1.2,3.5-1.8l3.6-1.7l3.6-1.6
				c1.2-0.5,2.4-1,3.7-1.5l3.7-1.4l3.8-1.3c1.2-0.4,2.5-0.9,3.8-1.2c10.1-3.2,20.5-5.4,31-6.8c10.5-1.3,21.1-1.8,31.7-1.6
				c21.2,0.5,42.2,4.3,62.6,10.1c10.2,2.9,20.2,6.4,30.1,10.3c9.8,4,19.5,8.2,29.3,12.2c4.9,2,9.8,4,14.7,5.9
				c4.9,1.9,9.9,3.9,14.8,5.7c9.9,3.7,19.9,7.2,29.9,10.5c10,3.3,20.2,6.3,30.4,9c10.2,2.7,20.6,5,31,6.8
				c20.8,3.6,42.1,5.1,63.2,2.6c10.5-1.3,20.9-3.5,30.9-7.1c10-3.5,19.5-8.2,28.5-13.8c-8.9,5.7-18.5,10.4-28.5,13.9
				c-10,3.6-20.4,5.9-30.9,7.3c-21.1,2.6-42.4,1.1-63.3-2.4c-10.4-1.8-20.8-4.1-31-6.8c-10.3-2.7-20.4-5.7-30.5-9
				c-10.1-3.3-20.1-6.8-30-10.5c-5-1.8-9.9-3.8-14.8-5.6c-4.9-2-9.9-3.9-14.7-5.9c-9.8-4-19.5-8.2-29.3-12.2
				c-9.8-3.9-19.8-7.4-30-10.3c-20.3-5.8-41.3-9.6-62.5-10.1c-10.6-0.3-21.2,0.2-31.7,1.5c-10.5,1.4-20.9,3.6-31,6.7
				c-1.3,0.4-2.5,0.8-3.8,1.2L47.7,88L44,89.4c-1.2,0.5-2.5,1-3.7,1.5l-3.6,1.6l-3.6,1.7c-1.2,0.5-2.4,1.2-3.6,1.8
				c-1.2,0.6-2.4,1.2-3.5,1.8C16.8,102.8,8,108.8,0.3,116.1z"/>
		</g>
		<g>
			<path fill="#0C56AB" d="M0.3,124.1c7.6-7.4,16.2-13.7,25.3-19c9.2-5.3,18.9-9.7,28.9-13c10.1-3.3,20.4-5.8,30.9-7.3
				c10.5-1.5,21.1-2.1,31.7-1.9c10.6,0.2,21.2,1.2,31.6,2.9c10.5,1.7,20.8,4.1,31,7c10.2,2.9,20.2,6.5,30,10.4
				c4.9,2,9.8,4.1,14.7,6.1c4.9,2.1,9.8,4.1,14.7,6.1c19.6,8,39.4,15.6,59.5,22.2c20.1,6.6,40.6,12.2,61.4,15.9
				c20.8,3.7,42.1,5.3,63.2,3.1c21.1-2.1,41.6-8.8,60-19.4C465,148,444.4,154.8,423.3,157c-21.1,2.3-42.5,0.7-63.3-2.9
				c-20.9-3.7-41.4-9.3-61.5-15.8c-20.2-6.5-40-14.1-59.6-22.1c-4.9-2-9.8-4-14.7-6.1c-4.9-2.1-9.7-4.1-14.6-6.2
				c-9.8-3.9-19.8-7.6-29.9-10.5c-10.2-2.9-20.5-5.4-30.9-7.1c-10.4-1.7-21-2.7-31.6-2.9c-10.6-0.2-21.2,0.4-31.6,1.8
				c-10.5,1.5-20.8,3.9-30.9,7.2c-10.1,3.3-19.8,7.6-29,12.8C16.6,110.5,7.9,116.7,0.3,124.1z"/>
		</g>
		<g>
			<path fill="#0C56AB" d="M0.3,132.1c7.4-7.6,15.9-14,25-19.6C34.4,107.1,44,102.5,54,99c20-7.2,41.3-10.3,62.5-10
				c10.6,0.1,21.2,1.1,31.7,2.7c10.5,1.7,20.8,4.1,31,7.1l3.8,1.1l1.9,0.6l1.9,0.6l7.5,2.5c2.5,0.9,5,1.9,7.5,2.8
				c1.2,0.5,2.5,0.9,3.7,1.4l3.7,1.5c4.9,2,9.8,4.1,14.6,6.2c4.9,2.1,9.8,4.1,14.7,6.1c19.6,8.1,39.4,15.6,59.5,22.3
				c20.1,6.6,40.6,12.3,61.4,16c20.8,3.7,42.1,5.5,63.2,3.6c21.1-1.8,41.8-7.9,60.5-18c-18.6,10.2-39.3,16.4-60.5,18.3
				c-21.1,2-42.5,0.3-63.3-3.4c-20.9-3.7-41.4-9.4-61.5-16c-20.2-6.6-40-14.2-59.6-22.2c-4.9-2-9.8-4.1-14.7-6.2
				c-4.9-2.1-9.7-4.2-14.6-6.2l-3.7-1.5c-1.2-0.5-2.5-0.9-3.7-1.4c-2.5-0.9-4.9-1.9-7.4-2.8l-7.5-2.5l-1.9-0.6l-1.9-0.6l-3.8-1.1
				c-10.2-3-20.5-5.5-30.9-7.1c-10.5-1.7-21-2.6-31.6-2.8c-21.1-0.3-42.4,2.8-62.4,9.9c-10,3.5-19.6,8-28.7,13.4
				C16.4,118.2,7.8,124.6,0.3,132.1z"/>
		</g>
		<g>
			<path fill="#0C56AB" d="M0.4,140.1C7.6,132.4,16,125.8,25,120c9-5.7,18.5-10.5,28.5-14.2c19.9-7.6,41.2-10.9,62.4-10.9
				c21.2,0.1,42.4,3.6,62.7,9.7l3.8,1.1c1.3,0.4,2.5,0.8,3.8,1.2c2.5,0.9,5,1.7,7.5,2.6l7.5,2.8c1.2,0.5,2.5,1,3.7,1.5l3.7,1.5
				c4.9,2,9.8,4.2,14.6,6.2c4.9,2.1,9.8,4.1,14.7,6.1c9.8,4.1,19.7,8,29.6,11.7c9.9,3.7,19.9,7.3,30,10.7
				c20.1,6.6,40.6,12.4,61.5,16.2c20.8,3.8,42.1,5.7,63.3,4c10.6-0.8,21.1-2.6,31.3-5.4c10.2-2.8,20.2-6.6,29.7-11.3
				c-9.5,4.8-19.4,8.6-29.6,11.5c-10.2,2.8-20.7,4.6-31.3,5.5c-21.2,1.7-42.5-0.2-63.4-3.9c-20.9-3.8-41.4-9.5-61.6-16.1
				c-10.1-3.3-20.1-6.9-30-10.6c-9.9-3.8-19.8-7.6-29.6-11.7c-4.9-2-9.8-4.1-14.7-6.2c-4.9-2.1-9.7-4.2-14.6-6.3l-3.7-1.5
				c-1.2-0.5-2.4-1-3.7-1.5l-7.4-2.8c-2.5-0.9-5-1.7-7.5-2.6c-1.3-0.4-2.5-0.9-3.8-1.3l-3.8-1.1c-20.3-6.1-41.4-9.7-62.6-9.8
				c-21.2-0.1-42.5,3.2-62.3,10.7C33.7,113.5,15.1,124.8,0.4,140.1z"/>
		</g>
		<g>
			<path fill="#0C56AB" d="M0.4,148.1c7.1-7.9,15.4-14.7,24.2-20.6c4.4-2.9,9-5.6,13.7-8.1c4.7-2.4,9.5-4.7,14.5-6.6
				c2.4-1,5-1.9,7.5-2.8c2.5-0.9,5.1-1.6,7.6-2.4c5.1-1.4,10.3-2.7,15.5-3.6c10.5-1.9,21.1-2.9,31.7-2.9c10.6,0,21.3,0.9,31.8,2.5
				c10.5,1.6,20.9,4,31.1,7.1c2.6,0.7,5.1,1.6,7.6,2.4c2.5,0.9,5.1,1.6,7.5,2.6l7.5,2.8l7.4,3.1c4.9,2,9.7,4.2,14.6,6.3
				c4.9,2.1,9.8,4.2,14.7,6.2c19.6,8.1,39.4,15.8,59.6,22.5c10.1,3.4,20.2,6.5,30.5,9.2c10.2,2.8,20.6,5.2,31,7.1
				c20.8,3.9,42.1,5.9,63.3,4.5c10.6-0.7,21.1-2.2,31.4-4.8c10.3-2.5,20.4-6.1,30-10.5c-9.6,4.5-19.7,8.1-30,10.7
				c-10.3,2.6-20.8,4.2-31.4,4.9c-21.2,1.5-42.6-0.5-63.4-4.4c-10.4-1.9-20.8-4.4-31.1-7.1c-10.3-2.7-20.4-5.8-30.5-9.2
				c-20.2-6.7-40-14.3-59.7-22.4c-4.9-2-9.8-4.1-14.7-6.2c-4.9-2.1-9.7-4.3-14.6-6.3l-7.3-3.1l-7.4-2.8c-2.5-1-5-1.8-7.5-2.6
				c-2.5-0.8-5-1.7-7.6-2.4c-10.1-3.1-20.5-5.5-31-7.2c-10.5-1.7-21.1-2.6-31.7-2.6c-10.6,0-21.2,0.9-31.6,2.8
				c-5.2,0.9-10.4,2.2-15.5,3.6c-2.5,0.8-5.1,1.5-7.6,2.4c-2.5,0.9-5,1.7-7.5,2.8c-5,1.9-9.8,4.2-14.5,6.6c-4.7,2.5-9.3,5.1-13.7,8
				C15.9,133.5,7.5,140.3,0.4,148.1z"/>
		</g>
		<g>
			<path fill="#0C56AB" d="M0.4,156.1c7-8.1,15.1-15,23.8-21.2c4.4-3,8.9-5.8,13.5-8.4l3.5-1.9l1.8-0.9l1.8-0.9l3.6-1.7l3.7-1.6
				c19.6-8.3,40.9-12.4,62.2-12.6c21.3-0.2,42.6,3.4,62.9,9.6c1.3,0.4,2.5,0.8,3.8,1.2l3.8,1.3l3.8,1.3l3.7,1.4c2.5,1,5,1.8,7.4,2.9
				l7.4,3.1c9.8,4.2,19.5,8.5,29.3,12.6c9.8,4.1,19.7,8.1,29.6,11.9c9.9,3.8,19.9,7.4,30,10.8c20.2,6.7,40.7,12.5,61.5,16.5
				c20.9,4,42.2,6.1,63.4,5c21.2-1,42.3-5.6,61.9-14c-19.5,8.5-40.6,13.2-61.9,14.3c-21.3,1.2-42.6-1-63.5-4.9
				c-20.9-4-41.5-9.7-61.6-16.4c-10.1-3.3-20.1-6.9-30.1-10.7c-10-3.8-19.8-7.7-29.6-11.8c-19.7-8-38.8-17.7-59.1-23.8
				c-20.3-6.2-41.5-9.8-62.7-9.7c-21.2,0.2-42.5,4.2-62.1,12.4l-3.7,1.6l-3.6,1.7l-1.8,0.9l-1.8,0.9l-3.5,1.8
				c-4.6,2.6-9.2,5.3-13.6,8.3C15.6,141.2,7.4,148.1,0.4,156.1z"/>
		</g>
		<g>
			<path fill="#0C56AB" d="M0.5,164.2c6.8-8.2,14.8-15.4,23.4-21.7c4.3-3.2,8.8-6,13.4-8.7c2.3-1.3,4.6-2.6,7-3.8l3.6-1.8l3.6-1.7
				c19.5-8.7,40.8-13.1,62.1-13.5c21.4-0.4,42.6,3.3,63,9.5c10.2,3.2,20.1,7.1,29.9,11.4c9.7,4.3,19.5,8.6,29.3,12.7
				c19.6,8.2,39.5,16,59.7,22.8c20.2,6.7,40.7,12.7,61.6,16.7c20.9,4.1,42.2,6.4,63.5,5.5c21.3-0.8,42.5-4.8,62.3-12.7
				c-19.8,8-41,12.2-62.3,13.1c-21.3,0.9-42.7-1.4-63.6-5.4c-20.9-4-41.5-9.9-61.7-16.6c-20.2-6.8-40.1-14.5-59.8-22.7
				c-19.7-8.1-38.8-17.8-59.1-24.1c-20.3-6.3-41.5-10-62.8-9.6c-21.3,0.3-42.5,4.7-62,13.3l-3.6,1.6l-3.6,1.8
				c-2.4,1.1-4.7,2.5-7,3.8c-4.6,2.7-9.1,5.5-13.4,8.7C15.3,148.9,7.3,156,0.5,164.2z"/>
		</g>
		<g>
			<path fill="#0C56AB" d="M0.5,172.2c6.6-8.4,14.5-15.7,22.9-22.2c4.2-3.3,8.7-6.2,13.2-9c2.3-1.3,4.6-2.7,7-4
				c1.2-0.6,2.3-1.3,3.5-1.9l3.6-1.7c19.4-9.1,40.6-13.9,62-14.4c21.4-0.6,42.7,3.2,63.1,9.6c10.2,3.2,20.1,7.2,29.9,11.5
				c9.7,4.4,19.5,8.6,29.4,12.7c9.8,4.1,19.7,8.1,29.7,12c10,3.8,20,7.5,30.1,10.9c20.2,6.8,40.8,12.7,61.7,16.9
				c20.9,4.1,42.2,6.6,63.6,6c21.3-0.5,42.6-4.1,62.7-11.5c-20,7.5-41.3,11.2-62.7,11.8c-21.4,0.6-42.7-1.8-63.7-5.9
				c-20.9-4.2-41.5-10-61.8-16.8c-10.1-3.4-20.2-7.1-30.1-10.9c-10-3.8-19.9-7.8-29.7-12c-9.8-4.2-19.6-8.4-29.3-12.8
				c-9.8-4.3-19.6-8.4-29.8-11.6c-20.3-6.4-41.6-10.2-62.9-9.6c-21.3,0.5-42.5,5.2-61.9,14.2l-3.6,1.7c-1.2,0.6-2.4,1.2-3.5,1.8
				c-2.4,1.2-4.7,2.6-7,3.9c-4.5,2.8-9,5.7-13.2,9C15.1,156.5,7.2,163.8,0.5,172.2z"/>
		</g>
		<g>
			<path fill="#0C56AB" d="M0.5,180.2c6.5-8.5,14.2-16.1,22.5-22.8c4.2-3.4,8.6-6.4,13-9.3c2.3-1.4,4.5-2.8,6.9-4.1
				c2.3-1.3,4.7-2.5,7.1-3.8c19.2-9.5,40.5-14.6,61.9-15.3c21.4-0.7,42.8,3.1,63.2,9.6c10.2,3.2,20.1,7.4,29.9,11.7
				c9.7,4.4,19.6,8.7,29.4,12.8c19.7,8.3,39.6,16.2,59.8,23.1c20.2,6.9,40.8,12.8,61.7,17.1c20.9,4.3,42.3,6.9,63.7,6.6
				c21.4-0.2,42.8-3.4,63-10.3c-20.2,7-41.6,10.3-63,10.7c-21.4,0.3-42.8-2.2-63.7-6.5c-21-4.3-41.6-10.1-61.8-17
				c-20.3-6.9-40.2-14.7-59.9-23c-9.8-4.2-19.6-8.5-29.4-12.9c-9.8-4.3-19.6-8.6-29.8-11.8c-20.3-6.5-41.6-10.3-63-9.7
				c-21.3,0.6-42.6,5.7-61.8,15.1c-2.4,1.2-4.8,2.4-7.1,3.7c-2.4,1.3-4.6,2.7-6.9,4.1c-4.5,2.9-8.9,5.9-13.1,9.3
				C14.8,164.2,7,171.7,0.5,180.2z"/>
		</g>
		<g>
			<path fill="#0C56AB" d="M0.5,188.2c6.3-8.7,13.8-16.4,22-23.3c4.1-3.5,8.4-6.6,12.9-9.6c2.2-1.5,4.5-2.9,6.8-4.3
				c2.3-1.4,4.7-2.6,7-3.9c19.1-9.8,40.3-15.4,61.8-16.2c10.7-0.4,21.5,0.3,32.1,1.9c10.6,1.7,21,4.3,31.2,7.7l3.8,1.3l1.9,0.6
				l1.9,0.7l7.5,2.9c4.9,2.1,9.9,4.2,14.7,6.4c9.8,4.4,19.6,8.7,29.4,12.9c9.9,4.2,19.8,8.3,29.7,12.2c10,3.9,20,7.6,30.2,11.1
				c10.1,3.5,20.3,6.7,30.6,9.7c10.3,2.9,20.7,5.5,31.2,7.7c21,4.4,42.3,7.1,63.8,7.1c21.4,0,42.9-2.8,63.4-9.2
				c-20.4,6.5-41.9,9.5-63.4,9.5c-21.5,0.1-42.9-2.7-63.8-7c-10.5-2.2-20.9-4.8-31.2-7.6c-10.3-2.9-20.5-6.2-30.7-9.6
				c-10.2-3.4-20.2-7.2-30.2-11c-10-3.9-19.9-7.9-29.8-12.1c-9.9-4.2-19.7-8.5-29.4-13c-4.9-2.2-9.8-4.3-14.7-6.5l-7.5-2.9l-1.9-0.7
				l-1.9-0.6l-3.8-1.3c-10.2-3.3-20.6-6-31.1-7.7c-10.6-1.6-21.3-2.4-32-2c-21.4,0.7-42.6,6.2-61.7,16c-2.4,1.3-4.7,2.5-7,3.9
				c-2.3,1.3-4.6,2.8-6.8,4.2c-4.4,3-8.8,6.1-12.9,9.6C14.5,171.8,6.9,179.5,0.5,188.2z"/>
		</g>
		<g>
			<path fill="#0C56AB" d="M0.6,196.2c6.1-8.8,13.5-16.8,21.6-23.9c4-3.6,8.3-6.8,12.7-9.9l3.3-2.3c1.1-0.8,2.3-1.4,3.4-2.2
				c2.3-1.5,4.6-2.7,7-4.1c9.5-5.1,19.5-9.2,29.9-12.1c10.4-2.9,21.1-4.5,31.8-5c21.5-1,43.1,2.7,63.5,9.6l3.8,1.3
				c1.3,0.4,2.5,0.9,3.8,1.4c2.5,1,5,1.9,7.5,2.9c4.9,2.1,9.9,4.3,14.7,6.5c9.8,4.4,19.6,8.8,29.5,13c19.7,8.5,39.7,16.4,60,23.4
				c20.3,7,40.9,13.1,61.9,17.6c21,4.5,42.4,7.3,63.9,7.6c21.5,0.3,43-2.1,63.7-8.1c-20.6,6.1-42.2,8.6-63.7,8.4
				c-21.5-0.2-42.9-3.1-64-7.5c-21-4.4-41.7-10.6-62-17.5c-20.3-7-40.3-14.9-60.1-23.4c-9.9-4.2-19.7-8.6-29.5-13.1
				c-4.9-2.3-9.8-4.4-14.7-6.6c-2.5-1.1-5-2-7.5-2.9c-1.3-0.5-2.5-1-3.8-1.4l-3.8-1.3c-20.3-6.9-41.8-10.6-63.3-9.7
				c-10.7,0.5-21.4,2-31.7,4.9c-10.3,2.9-20.4,6.9-29.8,12c-2.3,1.3-4.7,2.6-7,4c-1.1,0.7-2.3,1.4-3.4,2.1l-3.3,2.2
				c-4.4,3.1-8.7,6.3-12.7,9.9C14.2,179.5,6.7,187.4,0.6,196.2z"/>
		</g>
		<g>
			<path fill="#0C56AB" d="M0.6,204.2c5.9-9,13.1-17.1,21.1-24.4c7.9-7.3,16.7-13.7,26-19.1c9.4-5.3,19.4-9.6,29.7-12.6
				c10.3-3.1,21.1-4.8,31.8-5.4c10.8-0.6,21.6,0.1,32.3,1.8l4,0.7c1.3,0.2,2.7,0.4,4,0.8l7.9,1.8l7.8,2.2c1.3,0.3,2.6,0.8,3.9,1.2
				l3.8,1.3c1.3,0.4,2.6,0.8,3.8,1.3l3.8,1.5c2.5,1,5.1,1.9,7.5,3l7.4,3.2l7.3,3.4c9.8,4.5,19.6,8.9,29.5,13.1
				c9.9,4.3,19.8,8.4,29.8,12.4c10,3.9,20.1,7.7,30.3,11.3c20.3,7.1,41,13.2,62,17.9c21,4.6,42.4,7.6,64,8.1c21.5,0.5,43.2-1.5,64-7
				c-20.8,5.6-42.5,7.8-64,7.3c-21.6-0.5-43-3.4-64.1-8c-21.1-4.6-41.8-10.7-62.1-17.8c-10.2-3.5-20.3-7.3-30.3-11.2
				c-10-4-20-8.1-29.9-12.3c-9.9-4.3-19.7-8.7-29.5-13.2l-7.3-3.4l-7.4-3.3c-2.4-1.1-5-2-7.5-3l-3.8-1.5c-1.2-0.5-2.5-0.9-3.8-1.3
				l-3.8-1.3c-1.3-0.4-2.5-0.9-3.8-1.2l-7.8-2.2l-7.9-1.8c-1.3-0.3-2.6-0.5-4-0.8l-4-0.7c-10.6-1.7-21.4-2.4-32.1-1.8
				c-10.7,0.6-21.4,2.3-31.8,5.3c-10.3,3-20.3,7.3-29.7,12.5c-9.3,5.3-18.1,11.6-26.1,18.9C13.8,187.2,6.6,195.2,0.6,204.2z"/>
		</g>
		<g>
			<path fill="#0C56AB" d="M0.6,212.2c5.7-9.2,12.8-17.5,20.6-25c7.8-7.5,16.4-14.1,25.7-19.7c9.3-5.5,19.2-10,29.6-13.2
				c10.3-3.2,21.1-5.1,31.9-5.8c21.6-1.3,43.4,2.6,63.8,9.7c5.1,1.8,10.2,3.7,15.1,5.9c5,2.2,9.8,4.5,14.7,6.7
				c9.8,4.5,19.7,8.9,29.6,13.2c19.8,8.6,39.9,16.7,60.2,23.9c20.4,7.1,41.1,13.4,62.2,18.1c21.1,4.7,42.5,7.9,64.1,8.6
				c21.6,0.8,43.3-1,64.3-6c-21,5.1-42.7,7-64.3,6.3c-21.6-0.7-43.1-3.8-64.2-8.5c-21.1-4.7-41.8-10.9-62.3-18
				c-20.4-7.1-40.5-15.2-60.3-23.8c-9.9-4.3-19.8-8.8-29.6-13.3c-4.9-2.3-9.8-4.6-14.7-6.8c-4.9-2.2-10-4.1-15.1-5.9
				c-20.3-7.1-42-11-63.5-9.8c-10.8,0.6-21.5,2.5-31.8,5.7c-10.3,3.2-20.2,7.6-29.5,13.1c-9.3,5.5-17.9,12.1-25.8,19.5
				C13.5,194.8,6.4,203.1,0.6,212.2z"/>
		</g>
	</g>
	<polyline fill="none" stroke="#0C56AB" stroke-width="2.9338" stroke-miterlimit="10" points="2,79.1 67.1,22.5 142.6,93 
		195.2,52.8 278.1,108.8 379.5,2.1 470.6,90.3 	"/>
	<g>
		
			<rect x="118" y="17.4" transform="matrix(0.9052 -0.425 0.425 0.9052 0.1327 61.8716)" fill="#FFFFFF" width="41.4" height="26.4"/>
		<g>
			<path fill="#0C56AB" d="M150.7,13.2l9.1,19.4l-33,15.5l-9.1-19.4L150.7,13.2 M151.9,9.9l-37.5,17.6l11.2,23.9l37.5-17.6
				L151.9,9.9L151.9,9.9z"/>
		</g>
		<g>
			<g>
				<circle fill="#0C56AB" cx="138.9" cy="31.1" r="10"/>
				<circle fill="none" stroke="#FFFFFF" stroke-width="1.1452" stroke-miterlimit="10" cx="138.9" cy="31.1" r="8.6"/>
				<g>
					<path fill="#FFFFFF" d="M133.7,32.7c-0.1-0.1,0-0.3,0.1-0.4l0.8-0.4c0.3-0.1,0.5-0.1,0.7-0.1c0.2,0.1,0.3,0.2,0.3,0.3l0,0
						c0.1,0.3,0.1,0.5-0.1,0.6c0.3,0,0.5,0.1,0.7,0.4l0,0c0.2,0.4,0,0.8-0.6,1l-0.8,0.4c-0.1,0.1-0.3,0-0.4-0.1L133.7,32.7z
						 M135,32.9c0.2-0.1,0.3-0.2,0.2-0.4l0,0c-0.1-0.1-0.2-0.2-0.4-0.1l-0.5,0.2l0.2,0.5L135,32.9z M135.5,33.7
						c0.2-0.1,0.3-0.2,0.2-0.4l0,0c-0.1-0.2-0.2-0.2-0.5-0.1l-0.6,0.3l0.2,0.5L135.5,33.7z"/>
					<path fill="#FFFFFF" d="M136.4,32.5L136.4,32.5c-0.3-0.7,0-1.4,0.7-1.8c0.7-0.3,1.5,0,1.8,0.6l0,0c0.3,0.6,0,1.4-0.7,1.8
						S136.7,33.1,136.4,32.5z M138.3,31.6L138.3,31.6c-0.2-0.4-0.6-0.6-1-0.4c-0.4,0.2-0.5,0.6-0.4,1l0,0c0.2,0.4,0.6,0.6,1,0.4
						C138.3,32.5,138.5,32,138.3,31.6z"/>
					<path fill="#FFFFFF" d="M138.8,30.2c-0.1-0.1,0-0.3,0.1-0.4l0.1,0c0.1-0.1,0.2,0,0.3,0l1.6,0.8l-0.6-1.2
						c-0.1-0.1,0-0.3,0.1-0.4s0.3,0,0.4,0.1l0.9,1.8c0.1,0.1,0,0.3-0.1,0.4l0,0c-0.1,0.1-0.2,0-0.3,0l-1.6-0.8l0.6,1.2
						c0.1,0.1,0,0.3-0.1,0.4c-0.1,0.1-0.3,0-0.4-0.1L138.8,30.2z"/>
					<path fill="#FFFFFF" d="M141.4,29c-0.1-0.1,0-0.3,0.1-0.4l0.6-0.3c0.7-0.3,1.4-0.1,1.7,0.6l0,0c0.3,0.6,0,1.4-0.7,1.7l-0.6,0.3
						c-0.1,0.1-0.3,0-0.4-0.1L141.4,29z M143,30.2c0.4-0.2,0.6-0.6,0.4-1l0,0c-0.2-0.4-0.6-0.6-1-0.4L142,29l0.6,1.4L143,30.2z"/>
				</g>
			</g>
			<circle fill="#0C56AB" cx="125.3" cy="37" r="1.1"/>
			<circle fill="#0C56AB" cx="152.2" cy="24.4" r="1.1"/>
		</g>
	</g>
	<g>
		
			<rect x="368.9" y="48.1" transform="matrix(0.8519 -0.5237 0.5237 0.8519 26.6197 209.7184)" fill="#F1F2F2" width="30.4" height="19.3"/>
		<g>
			<path fill="#0C56AB" d="M391.4,44.1l8.2,13.4l-22.8,14l-8.2-13.4L391.4,44.1 M392,41.6l-25.9,15.9L376.3,74l25.9-15.9L392,41.6
				L392,41.6z"/>
		</g>
		<g>
			<g>
				<circle fill="#0C56AB" cx="384.3" cy="58.1" r="7.3"/>
				<circle fill="none" stroke="#FFFFFF" stroke-width="0.8399" stroke-miterlimit="10" cx="384.3" cy="58.1" r="6.3"/>
				<g>
					<path fill="#FFFFFF" d="M380.7,59.6c-0.1-0.1,0-0.2,0.1-0.3l0.6-0.3c0.2-0.1,0.4-0.1,0.5-0.1c0.1,0,0.2,0.1,0.3,0.2l0,0
						c0.1,0.2,0.1,0.3,0,0.5c0.2,0,0.4,0,0.5,0.2l0,0c0.2,0.3,0,0.6-0.3,0.8l-0.6,0.4c-0.1,0.1-0.2,0-0.3-0.1L380.7,59.6z
						 M381.6,59.7c0.2-0.1,0.2-0.2,0.1-0.3l0,0c-0.1-0.1-0.2-0.1-0.3,0l-0.3,0.2l0.2,0.3L381.6,59.7z M382.1,60.3
						c0.2-0.1,0.2-0.2,0.1-0.3l0,0c-0.1-0.1-0.2-0.1-0.4,0l-0.4,0.2l0.2,0.3L382.1,60.3z"/>
					<path fill="#FFFFFF" d="M382.6,59.3L382.6,59.3c-0.3-0.5-0.2-1,0.3-1.3c0.5-0.3,1.1-0.2,1.3,0.3l0,0c0.3,0.4,0.1,1-0.3,1.3
						C383.4,59.9,382.9,59.8,382.6,59.3z M383.9,58.5L383.9,58.5c-0.2-0.3-0.5-0.4-0.8-0.2c-0.3,0.2-0.3,0.5-0.2,0.8l0,0
						c0.2,0.3,0.5,0.4,0.8,0.2C384,59.1,384.1,58.8,383.9,58.5z"/>
					<path fill="#FFFFFF" d="M384.2,57.5c-0.1-0.1,0-0.2,0.1-0.3l0,0c0.1-0.1,0.2,0,0.2,0l1.2,0.5l-0.5-0.8c-0.1-0.1,0-0.2,0.1-0.3
						c0.1-0.1,0.2,0,0.3,0.1l0.8,1.3c0.1,0.1,0,0.2-0.1,0.3l0,0c-0.1,0.1-0.2,0-0.2,0l-1.3-0.5l0.5,0.8c0.1,0.1,0,0.2-0.1,0.3
						c-0.1,0.1-0.2,0-0.3-0.1L384.2,57.5z"/>
					<path fill="#FFFFFF" d="M386,56.4c-0.1-0.1,0-0.2,0.1-0.3l0.4-0.3c0.5-0.3,1-0.2,1.3,0.3l0,0c0.3,0.4,0.1,1-0.4,1.3l-0.4,0.3
						c-0.1,0.1-0.2,0-0.3-0.1L386,56.4z M387.3,57.1c0.3-0.2,0.4-0.5,0.2-0.8l0,0c-0.2-0.3-0.5-0.4-0.8-0.2l-0.3,0.2l0.6,0.9
						L387.3,57.1z"/>
				</g>
			</g>
			<circle fill="#0C56AB" cx="374.8" cy="63.6" r="0.8"/>
			<circle fill="#0C56AB" cx="393.5" cy="52.1" r="0.8"/>
		</g>
	</g>
	<g>
		<g>
			<polygon fill="#E6E7E8" points="297.9,44 296.1,39.7 298,36.3 301.4,41.2 			"/>
			<path fill="#E6E7E8" d="M297.5,43c0-0.1-2.5-1.9-2.5-1.9l0.3-0.9l1.4,0.3L297.5,43z"/>
			<polygon fill="#E6E7E8" points="295.3,40.2 293.8,39.7 293.7,40.5 294.9,41.1 295.4,40.9 			"/>
			<path fill="#E6E7E8" d="M296.1,39.7l-1.4-1.9c0,0,0.2-0.9,0.3-0.9s1.9,2.1,1.9,2.1L296.1,39.7z"/>
			<polygon fill="#E6E7E8" points="295.1,36.9 293.1,36.2 293,37.2 294.8,37.8 295.4,38 			"/>
			<path fill="#E6E7E8" d="M296.1,38.2c-0.1-0.2-0.8-1.9-0.8-1.9l-2.2-1.4l0.5-0.6l2.3,1.3l1.4,2.7l-0.1,0.7L296.1,38.2z"/>
			<polygon fill="#E6E7E8" points="294.5,34.9 295.1,34.4 296.7,35.4 297.9,37.5 297.3,38.4 295.7,36.1 			"/>
			<path fill="#E6E7E8" d="M295.8,35l0.5-0.4c0,0,1.4,0.6,1.4,0.7s0.4,1,0.4,1l-0.1,1.8l-1-2L295.8,35z"/>
		</g>
		<path fill="#032360" d="M337.4,66.4c0,0-25.4-10-36.1-25.1l-4.1,1.4c0,0,7.4,17.3,21.9,26.3c14.6,8.9,18.3,9.1,18.3,9.1
			L337.4,66.4z"/>
		<g>
			<polygon fill="#E6E7E8" points="336.3,40.6 333.4,44.2 329.3,60.4 334.8,59.5 335.6,64.2 351.2,64.2 347.1,46.3 			"/>
			<path fill="#032360" d="M348.9,52.9c1.1-2,1.9-7.2-2.9-10.2c-4.8-3-9.7-2.5-11.2-4.2c0,0,0.4,3.2,4.7,5.1c4.4,1.9,6.5,7.4,6,7.7
				L348.9,52.9z"/>
			<polygon fill="#E6E7E8" points="332.6,48.1 329.7,52.3 332,53.1 			"/>
			<path fill="#E6E7E8" d="M345.3,51.5c0.8-0.8,2.1-0.4,2.3,0.6c0.2,1-0.6,2.9-1.4,2.6s-1-0.9-1-0.9"/>
		</g>
		<path fill="#032360" d="M350.7,59.5c12.4,10.5,23.9,50.3-14.3,63.2l-35.9-18.5c18.1-1,33.4-19.9,30.5-39.5L350.7,59.5z"/>
		<path fill="#231F20" d="M279,140.4l0,3l-11,2.3c0,0,1.4-3.6,3.6-4.1c2.2-0.6,2.2-0.6,2.2-0.6l0,0l0.4,1.2l3.2-1.7L279,140.4z"/>
		<path fill="#032360" d="M338.4,63.6c-17,5.9-41.2,1.7-52.2-15.7l-5.8,2.8c0,0,12.8,18,22.5,23.5c10.4,5.8,31.1,14.6,40,7.6
			L338.4,63.6z"/>
		<path fill="#032360" d="M338.6,118.7c-9.3,5.9-20.7,8.2-33.2,7c-12.5-1.2-24.5,24.5-24.5,24.5l-4.1-2.1c0,0,6.1-17.6,15.3-28.4
			c9.2-10.9,31.5-16.3,31.5-16.3L338.6,118.7z"/>
		<path fill="#032360" d="M309.5,105c-8,0.5-32,3.7-34,17.3c-2,13.7-1.4,17.9-1.4,17.9l4.7-1.3c0,0,0.3-15.2,5.6-16.8
			c5.3-1.6,46.3-5.6,46.3-5.6L309.5,105z"/>
		<g>
			<path fill="#0C56AB" d="M343,81.8c-1.6,1-3.2,1.9-5.1,2.4c-1.8,0.5-3.8,0.7-5.7,0.7c-1.9-0.1-3.8-0.4-5.6-0.9
				c-1.8-0.5-3.6-1.2-5.2-2c1.8,0.4,3.6,0.9,5.4,1.3c1.8,0.3,3.6,0.6,5.5,0.7c1.8,0.1,3.6-0.1,5.4-0.4
				C339.5,83.1,341.2,82.5,343,81.8z"/>
		</g>
		<g>
			<path fill="#0C56AB" d="M303.4,111.1c-2.4,1.9-5,3.5-7.3,5.4c-1.2,0.9-2.3,1.9-3.3,3c-1.1,1.1-2.1,2.2-3.1,3.3
				c0.7-1.3,1.6-2.6,2.5-3.8c1-1.2,2.1-2.3,3.3-3.3C297.8,113.8,300.5,112.3,303.4,111.1z"/>
		</g>
		<path fill="#231F20" d="M280.5,151l-1.7,2.7l-11.4-4.3c0,0,3.3-2.5,5.6-1.7c2.3,0.8,2.3,0.8,2.3,0.8l0,0l-0.3,1.3l3.9,0.3
			L280.5,151z"/>
		<g>
			
				<rect x="258.4" y="16.9" transform="matrix(0.992 0.1262 -0.1262 0.992 6.2499 -35.2912)" fill="#FFFFFF" width="46.4" height="29.6"/>
			<g>
				<path fill="#0C56AB" d="M262.9,17.2l40.5,5.2l-3,23.8L259.9,41L262.9,17.2 M260.5,14.1l-3.7,29.3l46.1,5.9l3.7-29.3L260.5,14.1
					L260.5,14.1z"/>
			</g>
			<g>
				<g>
					<circle fill="#0C56AB" cx="281.6" cy="32.2" r="11.2"/>
					<circle fill="none" stroke="#FFFFFF" stroke-width="1.284" stroke-miterlimit="10" cx="281.6" cy="32.2" r="9.6"/>
					<g>
						<path fill="#FFFFFF" d="M275.7,30.6c0-0.2,0.2-0.3,0.3-0.3l1,0.1c0.3,0,0.6,0.2,0.7,0.3c0.1,0.1,0.2,0.3,0.1,0.5l0,0
							c0,0.3-0.2,0.5-0.4,0.6c0.3,0.2,0.5,0.4,0.4,0.8l0,0c-0.1,0.5-0.5,0.7-1.1,0.6l-1-0.1c-0.2,0-0.3-0.2-0.3-0.3L275.7,30.6z
							 M276.8,32.7c0.3,0,0.4,0,0.5-0.2l0,0c0-0.2-0.1-0.3-0.4-0.4l-0.7-0.1l-0.1,0.6L276.8,32.7z M276.8,31.5c0.3,0,0.5,0,0.5-0.2
							l0,0c0-0.2-0.1-0.3-0.4-0.3l-0.6-0.1l-0.1,0.6L276.8,31.5z"/>
						<path fill="#FFFFFF" d="M278.3,32L278.3,32c0.1-0.8,0.8-1.4,1.7-1.3c0.9,0.1,1.4,0.8,1.3,1.6l0,0c-0.1,0.8-0.8,1.4-1.7,1.3
							C278.8,33.5,278.2,32.8,278.3,32z M280.7,32.3L280.7,32.3c0.1-0.5-0.2-0.9-0.7-1c-0.5-0.1-0.9,0.3-1,0.8l0,0
							c-0.1,0.5,0.2,0.9,0.7,1C280.2,33.1,280.6,32.8,280.7,32.3z"/>
						<path fill="#FFFFFF" d="M282,31.4c0-0.2,0.2-0.3,0.3-0.3l0.1,0c0.1,0,0.2,0.1,0.3,0.2l1,1.7l0.2-1.4c0-0.2,0.2-0.3,0.3-0.3
							s0.3,0.2,0.3,0.3l-0.3,2.2c0,0.2-0.2,0.3-0.3,0.3l0,0c-0.1,0-0.2-0.1-0.3-0.2l-1-1.8l-0.2,1.5c0,0.2-0.2,0.3-0.3,0.3
							c-0.2,0-0.3-0.2-0.3-0.3L282,31.4z"/>
						<path fill="#FFFFFF" d="M285.2,31.8c0-0.2,0.2-0.3,0.3-0.3l0.8,0.1c0.9,0.1,1.4,0.8,1.3,1.6l0,0c-0.1,0.8-0.8,1.3-1.7,1.2
							l-0.8-0.1c-0.2,0-0.3-0.2-0.3-0.3L285.2,31.8z M286,33.8c0.5,0.1,0.9-0.2,0.9-0.7l0,0c0.1-0.5-0.2-0.9-0.7-0.9l-0.5-0.1
							l-0.2,1.7L286,33.8z"/>
					</g>
				</g>
				<circle fill="#0C56AB" cx="265.1" cy="29.6" r="1.3"/>
				<circle fill="#0C56AB" cx="298.2" cy="33.9" r="1.3"/>
			</g>
		</g>
		<g>
			<polygon fill="#E6E7E8" points="286.2,47.9 281.7,43 276.3,43.3 280.4,50.7 			"/>
			<path fill="#E6E7E8" d="M285.1,46.7c-0.1-0.1-0.9-4.4-0.9-4.4l-1.4-0.1l-0.4,2L285.1,46.7z"/>
			<polygon fill="#E6E7E8" points="282.8,42.2 283.1,40 284.2,40.4 284.2,42.3 283.6,42.8 			"/>
			<path fill="#E6E7E8" d="M281.7,43l-1.6-2.9c0,0-1.3-0.3-1.3-0.1s1.6,3.7,1.6,3.7L281.7,43z"/>
			<polygon fill="#E6E7E8" points="278.8,40 279,37 280.5,37.5 280.1,40.1 280,41.1 			"/>
			<path fill="#E6E7E8" d="M279.8,42.1c-0.2-0.3-1.9-2.2-1.9-2.2l-0.4-3.6l-1.1,0.3l0.3,3.8l2.7,3.4l0.9,0.3L279.8,42.1z"/>
			<polygon fill="#E6E7E8" points="276.5,38 275.5,38.5 275.9,41.2 277.8,43.9 279.4,43.8 277.3,40.3 			"/>
			<path fill="#E6E7E8" d="M275.9,39.7l-0.8,0.4c0,0-0.1,2.1,0.1,2.2s1.1,1.1,1.1,1.1l2.4,1l-1.9-2.5L275.9,39.7z"/>
		</g>
	</g>
</g>
<g>
</g>
<g>
</g>
<g>
</g>
<g>
</g>
<g>
</g>
<g>
</g>
<g>
</g>
<g>
</g>
<g>
</g>
<g>
</g>
<g>
</g>
<g>
</g>
<g>
</g>
<g>
</g>
<g>
</g>
</svg>
