<?xml version="1.0" encoding="utf-8"?>
<!-- Generator: Adobe Illustrator 18.0.0, SVG Export Plug-In . SVG Version: 6.00 Build 0)  -->
<!DOCTYPE svg PUBLIC "-//W3C//DTD SVG 1.1//EN" "http://www.w3.org/Graphics/SVG/1.1/DTD/svg11.dtd">
<svg version="1.1" id="Layer_1" xmlns="http://www.w3.org/2000/svg" xmlns:xlink="http://www.w3.org/1999/xlink" x="0px" y="0px"
	 viewBox="0 0 130 79.2" enable-background="new 0 0 130 79.2" xml:space="preserve">
<g>
	<g>
		<g>
			<path fill="#0C56AB" d="M100.8,28.1c0-0.1-0.1-0.3-0.1-0.5c0-1.2,0.9-2.2,2.4-2.2c1.5,0,2.4,1,2.4,2.2c0,0.9-0.5,1.6-1.3,2.1
				l-1.3,0.8c-0.3,0.2-0.5,0.4-0.6,0.6h3.2v1.2h-5c0-1.2,0.4-2.1,1.6-2.9l1.1-0.7c0.6-0.3,0.8-0.7,0.8-1.2c0-0.5-0.3-0.9-1-0.9
				c-0.7,0-1.1,0.5-1.1,1.1c0,0.1,0,0.3,0.1,0.4L100.8,28.1z"/>
			<path fill="#0C56AB" d="M107,26.6c0.4-0.7,1.2-1.1,2.2-1.1s1.8,0.5,2.2,1.1c0.5,0.7,0.6,1.5,0.6,2.4s-0.1,1.7-0.6,2.4
				c-0.4,0.7-1.2,1.1-2.2,1.1s-1.8-0.5-2.2-1.1c-0.5-0.7-0.6-1.5-0.6-2.4S106.5,27.2,107,26.6z M108.2,30.6c0.2,0.3,0.5,0.5,1,0.5
				c0.5,0,0.8-0.2,1-0.5c0.3-0.4,0.4-1,0.4-1.7c0-0.7-0.1-1.3-0.4-1.7c-0.2-0.3-0.5-0.5-1-0.5c-0.5,0-0.8,0.2-1,0.5
				c-0.3,0.4-0.4,1-0.4,1.7C107.8,29.6,107.9,30.2,108.2,30.6z"/>
			<path fill="#0C56AB" d="M114.2,32.3v-4.5h-1.6v-1c1,0,1.7-0.6,1.8-1.3h1.2v6.7H114.2z"/>
			<path fill="#0C56AB" d="M116.9,30.5c0-0.7,0.5-1.4,1.2-1.6c-0.7-0.2-1.1-0.9-1.1-1.5c0-1.1,1-1.9,2.4-1.9s2.4,0.8,2.4,1.9
				c0,0.6-0.4,1.3-1,1.5c0.7,0.3,1.2,0.9,1.2,1.6c0,1.2-1,2-2.5,2S116.9,31.6,116.9,30.5z M120.5,30.3c0-0.5-0.4-1-1.1-1
				c-0.8,0-1.1,0.5-1.1,1c0,0.5,0.4,0.9,1.1,0.9C120.2,31.3,120.5,30.8,120.5,30.3z M120.4,27.4c0-0.4-0.4-0.8-1-0.8
				c-0.6,0-1,0.4-1,0.8c0,0.5,0.4,0.9,1,0.9C120,28.3,120.4,27.9,120.4,27.4z"/>
		</g>
	</g>
	<g>
		<g>
			
				<rect x="9.9" y="20.6" transform="matrix(0.1435 0.9897 -0.9897 0.1435 29.4571 7.9599)" fill="#7F58A5" width="0.4" height="0.7"/>
			<path fill="#7F58A5" d="M12,20.9l-0.1-0.4l1.5-0.2l0.1,0.4L12,20.9z M14.9,20.5l-0.1-0.4l1.5-0.2l0.1,0.4L14.9,20.5z M17.8,20.1
				l-0.1-0.4l1.5-0.2l0.1,0.4L17.8,20.1z M20.7,19.7l-0.1-0.4l1.5-0.2l0.1,0.4L20.7,19.7z M23.6,19.2l-0.1-0.4l1.5-0.2L25,19
				L23.6,19.2z M26.5,18.8l-0.1-0.4l1.1-0.2l0.2-0.1l0.2,0.3l-0.3,0.1L26.5,18.8z M29.3,17.9l-0.2-0.3l1.3-0.6l0.2,0.3L29.3,17.9z
				 M32,16.6l-0.2-0.3l1.3-0.6l0.2,0.3L32,16.6z M34.6,15.4l-0.2-0.3l1.3-0.6l0.2,0.3L34.6,15.4z M37.3,14.1l-0.2-0.3l1.3-0.6
				l0.2,0.3L37.3,14.1z M39.9,12.9l-0.2-0.3l1.3-0.6l0.2,0.3L39.9,12.9z M42.6,11.7l-0.2-0.3l1.3-0.6l0.2,0.3L42.6,11.7z M57.8,11.4
				L56.3,11l0.1-0.4l1.4,0.3L57.8,11.4z M59.2,10.8L59,10.5l1.3-0.7l0.2,0.3L59.2,10.8z M54.9,10.7l-1.4-0.3l0.1-0.4l1.4,0.3
				L54.9,10.7z M45.2,10.4l-0.2-0.3l1.3-0.6l0.2,0.3L45.2,10.4z M52.1,10l-1.4-0.3l0.1-0.4l1.4,0.3L52.1,10z M49.2,9.4L48,9.1
				l-0.1,0.1l-0.2-0.3L48,8.7L49.3,9L49.2,9.4z M61.7,9.3L61.6,9l1.3-0.7L63,8.6L61.7,9.3z M64.3,7.9l-0.2-0.3l1.3-0.7l0.2,0.3
				L64.3,7.9z M66.8,6.4l-0.2-0.3l1.3-0.7l0.2,0.3L66.8,6.4z M69.4,4.9l-0.2-0.3l1.3-0.7l0.2,0.3L69.4,4.9z M71.9,3.5l-0.2-0.3
				L73,2.4l0.2,0.3L71.9,3.5z M74.5,2l-0.2-0.3L75.4,1l0.2,0l0,0.4l-0.1,0L74.5,2z M77.1,1.3l0-0.4l1.5-0.1l0,0.4L77.1,1.3z
				 M80.1,1.2l0-0.4l1.5-0.1l0,0.4L80.1,1.2z M83,1l0-0.4l1.5-0.1l0,0.4L83,1z M85.9,0.9l0-0.4l1.5-0.1l0,0.4L85.9,0.9z M88.9,0.8
				l0-0.4l1.5-0.1l0,0.4L88.9,0.8z"/>
			
				<rect x="92" y="0.1" transform="matrix(4.691507e-002 0.9989 -0.9989 4.691507e-002 88.2607 -91.6357)" fill="#7F58A5" width="0.4" height="0.7"/>
		</g>
		<polygon fill="#7F58A5" points="29.5,27.5 29.5,27.5 9.3,25.5 9.4,25.2 29.5,27.1 40.6,24.4 40.6,24.4 50.5,25.2 61.9,16.5 
			74.7,16.6 93,2.7 93.2,3 74.8,17 62,16.8 50.6,25.5 40.6,24.7 		"/>
		<circle fill="#7F58A5" cx="29.5" cy="27.3" r="1.2"/>
		<circle fill="#7F58A5" cx="27.9" cy="18.3" r="1.2"/>
		<circle fill="#7F58A5" cx="48.2" cy="9.1" r="1.2"/>
		<circle fill="#7F58A5" cx="57.9" cy="11" r="1.2"/>
		<circle fill="#7F58A5" cx="75.5" cy="1.2" r="1.2"/>
		<circle fill="#7F58A5" cx="40.8" cy="24.5" r="1.2"/>
		<circle fill="#7F58A5" cx="50.6" cy="25.4" r="1.2"/>
		<circle fill="#7F58A5" cx="61.9" cy="16.7" r="1.2"/>
		<circle fill="#7F58A5" cx="74.7" cy="16.8" r="1.2"/>
		<polygon fill="#7F58A5" points="93.3,6.1 93,6.1 93,3 89.3,3 89.3,2.7 93.3,2.7 		"/>
	</g>
	<rect x="8.7" y="31.2" fill="#7F58A5" width="86.6" height="0.4"/>
	<polygon fill="#7F58A5" points="90.7,33.4 90.7,29.4 92.9,31.4 	"/>
	<path fill="#7F58A5" d="M126.4,62.6c-0.1,0-0.2-0.1-0.2-0.2V50.7c0-0.1,0.1-0.2,0.2-0.2c0.1,0,0.2,0.1,0.2,0.2v11.8
		C126.5,62.5,126.5,62.6,126.4,62.6z"/>
	<path fill="#7F58A5" d="M116,74.1c-0.1,0-0.2-0.1-0.2-0.2v-1.1c0-2.9,2.4-5.3,5.3-5.3c2.8,0,5-2.3,5-5c0-0.1,0.1-0.2,0.2-0.2
		c0.1,0,0.2,0.1,0.2,0.2c0,2.9-2.4,5.3-5.3,5.3c-2.8,0-5,2.3-5,5v1.1C116.2,74,116.1,74.1,116,74.1z"/>
	<path fill="#7F58A5" d="M110.8,79.2h-4.1c-0.1,0-0.2-0.1-0.2-0.2s0.1-0.2,0.2-0.2h4.1c2.8,0,5-2.3,5-5c0-0.1,0.1-0.2,0.2-0.2
		c0.1,0,0.2,0.1,0.2,0.2C116.2,76.9,113.8,79.2,110.8,79.2z"/>
	<path fill="#7F58A5" d="M106.7,79.2H6.3c-0.1,0-0.2-0.1-0.2-0.2s0.1-0.2,0.2-0.2h100.4c0.1,0,0.2,0.1,0.2,0.2
		S106.8,79.2,106.7,79.2z"/>
	<path fill="#7F58A5" d="M105,74.8H29.4c-0.1,0-0.2-0.1-0.2-0.2s0.1-0.2,0.2-0.2H105c0.1,0,0.2,0.1,0.2,0.2S105,74.8,105,74.8z"/>
	<path fill="#7F58A5" d="M2.8,77.4c0,0-0.1,0-0.1,0C0.9,75.7,0,73.4,0,71V41.1C0,41,0.1,41,0.2,41s0.2,0.1,0.2,0.2V71
		c0,2.3,0.9,4.5,2.6,6.2c0.1,0.1,0.1,0.2,0,0.2C2.8,77.4,2.8,77.4,2.8,77.4z"/>
	<path fill="#7F58A5" d="M0.2,30.7c-0.1,0-0.2-0.1-0.2-0.2v-25c0-0.1,0.1-0.2,0.2-0.2H36c0.1,0,0.2,0.1,0.2,0.2
		c0,0.1-0.1,0.2-0.2,0.2H0.3v24.9C0.3,30.7,0.2,30.7,0.2,30.7z"/>
	<path fill="#7F58A5" d="M122.5,20c-0.1,0-0.2-0.1-0.2-0.2v-5.2c0-5-4-9-9-9h-11.9c-0.1,0-0.2-0.1-0.2-0.2c0-0.1,0.1-0.2,0.2-0.2
		h11.9c5.1,0,9.3,4.2,9.3,9.3v5.2C122.7,19.9,122.6,20,122.5,20z"/>
</g>
<g>
</g>
<g>
</g>
<g>
</g>
<g>
</g>
<g>
</g>
<g>
</g>
<g>
</g>
<g>
</g>
<g>
</g>
<g>
</g>
<g>
</g>
<g>
</g>
<g>
</g>
<g>
</g>
<g>
</g>
</svg>
