<?xml version="1.0" encoding="utf-8"?>
<!-- Generator: Adobe Illustrator 18.0.0, SVG Export Plug-In . SVG Version: 6.00 Build 0)  -->
<!DOCTYPE svg PUBLIC "-//W3C//DTD SVG 1.1//EN" "http://www.w3.org/Graphics/SVG/1.1/DTD/svg11.dtd">
<svg version="1.1" id="Layer_1" xmlns="http://www.w3.org/2000/svg" xmlns:xlink="http://www.w3.org/1999/xlink" x="0px" y="0px"
	 viewBox="0 0 337 322.3" enable-background="new 0 0 337 322.3" xml:space="preserve">
<g>
	<g>
		<polygon fill="#BCBEC0" points="106.2,214.7 87.5,240 64.2,251 58.8,257.3 49.6,250.8 56.7,233 73.8,223 81.8,194.8 97.7,181.3 		
			"/>
		<path fill="#2B3990" d="M65.7,244.6c-2.5-0.1-4.9-0.5-7.3-0.9l0.6-0.4c-0.2,1.4-0.5,2.7-0.8,4.1c-0.2,0.7-0.3,1.4-0.5,2
			c-0.2,0.7-0.4,1.3-0.6,2c0-0.7,0.1-1.4,0.1-2.1c0.1-0.7,0.1-1.4,0.2-2.1c0.2-1.4,0.4-2.8,0.6-4.1l0.1-0.5l0.5,0.1
			C61,243.2,63.3,243.8,65.7,244.6z"/>
		<g>
			<g>
				<circle fill="#F7A823" cx="36" cy="289" r="32.8"/>
				<path fill="#58595B" d="M36,322.3c-18.4,0-33.3-14.9-33.3-33.3s14.9-33.3,33.3-33.3s33.3,14.9,33.3,33.3S54.4,322.3,36,322.3z
					 M36,256.7c-17.8,0-32.3,14.5-32.3,32.3s14.5,32.3,32.3,32.3s32.3-14.5,32.3-32.3S53.8,256.7,36,256.7z"/>
			</g>
			<g>
				<circle fill="#414042" cx="36" cy="289" r="28.6"/>
				<path fill="#6D6E71" d="M36,318.1c-16,0-29.1-13-29.1-29.1c0-16,13-29.1,29.1-29.1s29.1,13,29.1,29.1
					C65.1,305,52,318.1,36,318.1z M36,260.9c-15.5,0-28.1,12.6-28.1,28.1s12.6,28.1,28.1,28.1s28.1-12.6,28.1-28.1
					S51.5,260.9,36,260.9z"/>
			</g>
			<path fill="#58595B" d="M36,320.3c-17.2,0-31.3-14-31.3-31.3s14-31.3,31.3-31.3s31.3,14,31.3,31.3S53.2,320.3,36,320.3z
				 M36,258.2C19,258.2,5.2,272,5.2,289S19,319.8,36,319.8S66.8,306,66.8,289S53,258.2,36,258.2z"/>
			<g>
				<path fill="#F7A823" d="M43.4,279.5c-2-1.8-3.7-2.9-6.2-2.9c-2.9,0-4.5,1.4-4.5,4c0,6,14.8,5.1,14.8,16c0,5.3-3,9.2-8.5,10.3
					v5.6h-4.8v-5.4c-3.3-0.4-7-1.9-9.6-4.2l3.2-4.8c2.7,2.1,5.2,3.3,8,3.3c3.4,0,5-1.5,5-4.3c0-6.6-14.8-6-14.8-16.1
					c0-5.3,3.2-8.9,8.3-9.9v-5.6h4.8v5.5c3.5,0.5,6,2.2,8.1,4.4L43.4,279.5z"/>
			</g>
		</g>
		<g>
			<polygon fill="#BCBEC0" points="132.8,119.9 47.9,123.3 81.8,194.8 160.5,162.3 			"/>
			<polygon fill="#BCBEC0" points="81.8,194.8 56.1,210.5 19.6,161 47.9,123.3 73.3,139.3 			"/>
			<polygon fill="#BCBEC0" points="133.9,172.9 106.2,214.7 81.8,194.8 94,165.8 			"/>
			<polygon fill="#BCBEC0" points="56.1,210.5 32.1,230.2 28.4,245 43.1,249.6 49,260.3 33.6,273.1 8.1,253.2 5.4,234.3 24.3,201 
				48.7,189.8 62.5,194.9 			"/>
			<polygon fill="#BCBEC0" points="19.6,161 0,203 13.1,226 44.4,205 59,177.8 			"/>
			<path fill="#2B3990" d="M34.9,170.6c-3.2,3.3-6.5,6.6-9.8,9.8c-3.3,3.3-6.6,6.4-9.9,9.6l0.1-0.1c-0.9,1.6-1.9,3.1-2.8,4.6
				l-2.9,4.6c-2,3.1-3.9,6.1-6,9.1c1.7-3.2,3.5-6.4,5.3-9.5l2.8-4.7c0.9-1.6,1.8-3.1,2.8-4.7l0-0.1l0,0c3.4-3.1,6.7-6.4,10.1-9.5
				C28,176.8,31.4,173.7,34.9,170.6z"/>
			<path fill="#2B3990" d="M43.6,181.1c-3.1,3.4-6.2,6.8-9.4,10.2c-3.1,3.4-6.4,6.7-9.6,10l0.1-0.1c-1,1.8-2.1,3.5-3.2,5.2l-3.3,5.2
				c-2.2,3.4-4.4,6.9-6.8,10.3c1.9-3.6,4-7.2,6.1-10.7l3.2-5.3c1.1-1.8,2.1-3.5,3.2-5.3l0-0.1l0,0c3.2-3.3,6.4-6.6,9.7-9.9
				C37,187.5,40.3,184.3,43.6,181.1z"/>
			<path fill="#2B3990" d="M14.6,172.5c0.8-1.1,1.7-2.2,2.6-3.3c0.9-1.1,1.8-2.2,2.7-3.2c1.8-2.1,3.7-4.2,5.6-6.2l0.1-0.1l0.1,0
				c2.5-0.7,5-1.4,7.5-2c-2.4,1-4.8,2-7.2,2.8l0.2-0.1c-1.8,2.1-3.7,4.2-5.6,6.3c-1,1-1.9,2-2.9,3C16.7,170.6,15.7,171.5,14.6,172.5
				z"/>
			<path fill="#2B3990" d="M52.7,137.2c0.3,0.9,0.5,1.8,0.7,2.6c0.2,0.9,0.5,1.8,0.7,2.6l1.4,5.3l-0.2-0.3c2.5,1.2,4.9,2.4,7.4,3.7
				l0.2,0.1l0.1,0.2c1,2.9,1.9,5.8,2.8,8.7l-0.1-0.2l3.8,3.1c1.2,1,2.5,2.1,3.7,3.1c-1.4-0.9-2.7-1.8-4-2.7l-3.9-2.8l-0.1-0.1l0-0.1
				c-1-2.9-2-5.8-3-8.6l0.2,0.3c-2.4-1.3-4.9-2.5-7.3-3.8l-0.2-0.1l0-0.2l-1.1-5.4c-0.2-0.9-0.3-1.8-0.5-2.7
				C53,139,52.9,138.1,52.7,137.2z"/>
		</g>
		<path fill="#2B3990" d="M22.1,260.5c2.1-0.8,4.2-1.5,6.3-2.1l0.2-0.1l0.2,0.2c1.4,1.3,2.7,2.5,4,3.9c1.3,1.3,2.6,2.7,3.8,4.1
			c-1.5-1.1-3-2.3-4.4-3.5c-1.4-1.2-2.8-2.5-4.1-3.8l0.4,0.1C26.5,259.8,24.3,260.2,22.1,260.5z"/>
	</g>
	<polygon fill="#573392" points="337,135.1 179.3,192.3 125,110.5 329.2,0 	"/>
	<path fill="#7F58A5" d="M329.2,0c0,0-173.7,101.6-173.7,104.9s23.8,87.4,23.8,87.4L125,110.5L329.2,0z"/>
</g>
<g>
</g>
<g>
</g>
<g>
</g>
<g>
</g>
<g>
</g>
<g>
</g>
<g>
</g>
<g>
</g>
<g>
</g>
<g>
</g>
<g>
</g>
<g>
</g>
<g>
</g>
<g>
</g>
<g>
</g>
</svg>
