<?xml version="1.0" encoding="utf-8"?>
<!-- Generator: Adobe Illustrator 18.0.0, SVG Export Plug-In . SVG Version: 6.00 Build 0)  -->
<!DOCTYPE svg PUBLIC "-//W3C//DTD SVG 1.1//EN" "http://www.w3.org/Graphics/SVG/1.1/DTD/svg11.dtd">
<svg version="1.1" id="Layer_1" xmlns="http://www.w3.org/2000/svg" xmlns:xlink="http://www.w3.org/1999/xlink" x="0px" y="0px"
	 viewBox="0 0 312.1 161" enable-background="new 0 0 312.1 161" xml:space="preserve">
<g>
	<path fill="#573392" d="M41.5,136.8c-8.8,0-15.8-8.1-16.1-8.4c-0.1-0.2-0.1-0.4,0-0.6c0.3-0.3,7.3-8.4,16.1-8.4s15.8,8.1,16.1,8.4
		c0.1,0.2,0.1,0.4,0,0.6C57.4,128.7,50.4,136.8,41.5,136.8z M26.3,128.1c1.4,1.5,7.7,7.8,15.2,7.8c7.5,0,13.8-6.3,15.2-7.8
		c-1.4-1.5-7.7-7.8-15.2-7.8C34,120.3,27.7,126.6,26.3,128.1z"/>
	<path fill="#573392" d="M41.5,133.4c-3,0-5.4-2.4-5.4-5.4s2.4-5.4,5.4-5.4c3,0,5.4,2.4,5.4,5.4S44.5,133.4,41.5,133.4z M41.5,123.6
		c-2.5,0-4.5,2-4.5,4.5c0,2.5,2,4.5,4.5,4.5s4.5-2,4.5-4.5C46,125.6,44,123.6,41.5,123.6z"/>
	<path fill="#573392" d="M39.6,114.9c-0.3,0-0.5-0.2-0.5-0.5v-11.7c0-0.3,0.2-0.5,0.5-0.5c0.3,0,0.5,0.2,0.5,0.5v11.7
		C40.1,114.7,39.9,114.9,39.6,114.9z"/>
	<path fill="#573392" d="M47.4,116.1c-0.1,0-0.2,0-0.2-0.1c-0.2-0.1-0.3-0.4-0.1-0.6l6.4-9.8c0.1-0.2,0.4-0.3,0.6-0.1
		c0.2,0.1,0.3,0.4,0.1,0.6l-6.4,9.8C47.7,116,47.5,116.1,47.4,116.1z"/>
	<path fill="#573392" d="M33.1,117.6c-0.2,0-0.3-0.1-0.4-0.2L27,107.2c-0.1-0.2,0-0.5,0.2-0.6c0.2-0.1,0.5,0,0.6,0.2l5.8,10.2
		c0.1,0.2,0,0.5-0.2,0.6C33.3,117.6,33.2,117.6,33.1,117.6z"/>
	<path fill="#573392" d="M37.2,147c-0.1,0-0.2,0-0.3-0.1l-10-7.6l-10,7.1c-0.2,0.1-0.5,0.1-0.6-0.1c-0.1-0.2-0.1-0.5,0.1-0.6
		l10.2-7.3c0.2-0.1,0.4-0.1,0.5,0l10,7.6l9.5-6.6c0.2-0.1,0.4-0.1,0.5,0l5.2,3.3l22.5-21.3c0.2-0.2,0.5-0.2,0.6,0
		c0.2,0.2,0.2,0.5,0,0.6l-22.8,21.5c-0.2,0.1-0.4,0.2-0.6,0.1l-5.2-3.3l-9.5,6.6C37.4,147,37.3,147,37.2,147z"/>
	<path fill="#573392" d="M75.5,128.3c-0.3,0-0.5-0.2-0.5-0.5v-6h-6.2c-0.3,0-0.5-0.2-0.5-0.5s0.2-0.5,0.5-0.5h6.6
		c0.3,0,0.5,0.2,0.5,0.5v6.4C75.9,128,75.7,128.3,75.5,128.3z"/>
</g>
<g>
	<path fill="#F7A823" d="M270,25.5h-1.6c-0.1,0-0.2-0.1-0.2-0.2v-1.6c-1.1-0.2-2.3-0.7-3.1-1.4c-0.1,0-0.1-0.1,0-0.2l1-1.6
		c0,0,0.1-0.1,0.1-0.1c0,0,0.1,0,0.1,0c0.9,0.7,1.7,1,2.5,1c1,0,1.5-0.4,1.5-1.2c0-0.9-0.9-1.3-1.9-1.8c-1.3-0.7-2.9-1.5-2.9-3.4
		c0-1.7,1-3,2.7-3.3v-1.7c0-0.1,0.1-0.2,0.2-0.2h1.6c0.1,0,0.2,0.1,0.2,0.2v1.7c1,0.2,1.8,0.6,2.6,1.5c0.1,0.1,0.1,0.1,0,0.2
		l-1.2,1.3c0,0-0.1,0-0.1,0.1c0,0-0.1,0-0.1,0c-0.6-0.5-1.1-0.9-1.9-0.9c-0.9,0-1.3,0.4-1.3,1.2c0,0.7,0.8,1.1,1.8,1.6
		c1.3,0.6,3,1.5,3,3.6c0,1.8-1,3.1-2.8,3.5v1.7C270.2,25.4,270.1,25.5,270,25.5z M268.6,25.2h1.3v-1.7c0-0.1,0.1-0.1,0.1-0.1
		c1.7-0.3,2.6-1.5,2.6-3.2c0-1.9-1.5-2.7-2.8-3.3c-1-0.5-2-1-2-1.9c0-0.9,0.6-1.5,1.6-1.5c0.8,0,1.4,0.3,2,0.9l1-1.1
		c-0.8-0.8-1.5-1.2-2.4-1.3c-0.1,0-0.1-0.1-0.1-0.1v-1.6h-1.3v1.7c0,0.1-0.1,0.1-0.1,0.1c-1.6,0.3-2.6,1.4-2.6,3.1
		c0,1.7,1.4,2.4,2.7,3.1c1.1,0.6,2.1,1.1,2.1,2.1c0,0.7-0.3,1.5-1.8,1.5c-0.8,0-1.7-0.3-2.6-1l-0.9,1.3c0.8,0.6,1.9,1.1,2.9,1.2
		c0.1,0,0.1,0.1,0.1,0.2V25.2z"/>
</g>
<g>
	<path fill="#573392" d="M76.4,106.1c-0.6-0.6-1.2-0.9-2-0.9c-0.9,0-1.4,0.4-1.4,1.3c0,2,4.8,1.7,4.8,5.2c0,1.7-1,3-2.8,3.3v1.8
		h-1.6v-1.8c-1.1-0.1-2.3-0.6-3.1-1.4l1-1.6c0.9,0.7,1.7,1.1,2.6,1.1c1.1,0,1.6-0.5,1.6-1.4c0-2.1-4.8-1.9-4.8-5.2
		c0-1.7,1-2.9,2.7-3.2v-1.8h1.6v1.8c1.1,0.2,1.9,0.7,2.6,1.4L76.4,106.1z"/>
</g>
<g>
	<path fill="#F7A823" d="M283.8,15.6h-1.6c-0.1,0-0.2-0.1-0.2-0.2v-1.6c-1.1-0.2-2.3-0.7-3.1-1.4c-0.1,0-0.1-0.1,0-0.2l1-1.6
		c0,0,0.1-0.1,0.1-0.1c0,0,0.1,0,0.1,0c0.9,0.7,1.7,1,2.5,1c1,0,1.5-0.4,1.5-1.2c0-0.9-0.9-1.3-1.9-1.8c-1.3-0.7-2.9-1.5-2.9-3.4
		c0-1.7,1-3,2.7-3.3V0.2c0-0.1,0.1-0.2,0.2-0.2h1.6c0.1,0,0.2,0.1,0.2,0.2v1.7c1,0.2,1.8,0.6,2.6,1.5c0.1,0.1,0.1,0.1,0,0.2
		l-1.2,1.3c0,0-0.1,0-0.1,0.1c0,0-0.1,0-0.1,0c-0.6-0.5-1.1-0.9-1.9-0.9c-0.9,0-1.3,0.4-1.3,1.2c0,0.7,0.8,1.1,1.8,1.6
		c1.3,0.6,3,1.5,3,3.6c0,1.8-1,3.1-2.8,3.5v1.7C283.9,15.5,283.9,15.6,283.8,15.6z M282.4,15.3h1.3v-1.7c0-0.1,0.1-0.1,0.1-0.1
		c1.7-0.3,2.6-1.5,2.6-3.2c0-1.9-1.5-2.7-2.8-3.3c-1-0.5-2-1-2-1.9c0-0.9,0.6-1.5,1.6-1.5c0.8,0,1.4,0.3,2,0.9l1-1.1
		c-0.8-0.8-1.5-1.2-2.4-1.3c-0.1,0-0.1-0.1-0.1-0.1V0.3h-1.3V2c0,0.1-0.1,0.1-0.1,0.1c-1.6,0.3-2.6,1.4-2.6,3.1
		c0,1.7,1.4,2.4,2.7,3.1c1.1,0.6,2.1,1.1,2.1,2.1c0,0.7-0.3,1.5-1.8,1.5c-0.8,0-1.7-0.3-2.6-1l-0.9,1.3c0.8,0.6,1.9,1.1,2.9,1.2
		c0.1,0,0.1,0.1,0.1,0.2V15.3z"/>
</g>
<g>
	<defs>
		<polygon id="SVGID_1_" points="46.2,153.4 131.2,153.4 131.2,139.4 212.6,139.4 212.6,118.4 258.3,118.4 258.3,100.6 308.6,83.9 
			308.6,20 210,20 152.2,97.6 152.2,86.4 103.6,86.4 25.1,154.1 		"/>
	</defs>
	<clipPath id="SVGID_2_">
		<use xlink:href="#SVGID_1_"  overflow="visible"/>
	</clipPath>
	<linearGradient id="SVGID_3_" gradientUnits="userSpaceOnUse" x1="107.6053" y1="184.6407" x2="333.9651" y2="71.9266">
		<stop  offset="0" style="stop-color:#FFDA6E;stop-opacity:0"/>
		<stop  offset="4.096297e-003" style="stop-color:#FFDA6D;stop-opacity:6.636602e-003"/>
		<stop  offset="0.2175" style="stop-color:#FBC34C;stop-opacity:0.3523"/>
		<stop  offset="0.3947" style="stop-color:#F9B537;stop-opacity:0.6394"/>
		<stop  offset="0.5128" style="stop-color:#F8B030;stop-opacity:0.8309"/>
		<stop  offset="0.5144" style="stop-color:#F8B030;stop-opacity:0.8314"/>
		<stop  offset="0.727" style="stop-color:#F7AA26;stop-opacity:0.9052"/>
		<stop  offset="1" style="stop-color:#F7A823"/>
	</linearGradient>
	<polygon clip-path="url(#SVGID_2_)" fill="url(#SVGID_3_)" points="31.6,153.6 309.1,27.1 309.1,153.2 131.2,153.4 	"/>
	<g clip-path="url(#SVGID_2_)">
		<g>
			<polygon fill="#D1D3D4" points="251.9,103.9 251.9,58.6 272.2,52 272.2,51.9 288.5,61.5 288.5,103.9 			"/>
			<g>
				<g>
					<rect x="254.4" y="60.5" fill="#939598" width="0.9" height="9.2"/>
					<rect x="256.9" y="59.7" fill="#939598" width="0.9" height="9.2"/>
					<rect x="259.4" y="58.9" fill="#939598" width="0.9" height="9.2"/>
					<rect x="261.9" y="58.1" fill="#939598" width="0.9" height="9.2"/>
					<rect x="264.3" y="57.3" fill="#939598" width="0.9" height="9.2"/>
					<rect x="266.8" y="56.5" fill="#939598" width="0.9" height="9.2"/>
					<rect x="269.3" y="55.7" fill="#939598" width="0.9" height="9.2"/>
				</g>
				<g>
					<rect x="254.4" y="71.9" fill="#939598" width="0.9" height="9.2"/>
					<rect x="256.9" y="71.1" fill="#939598" width="0.9" height="9.2"/>
					<rect x="259.4" y="70.3" fill="#939598" width="0.9" height="9.2"/>
					<rect x="261.9" y="69.5" fill="#939598" width="0.9" height="9.2"/>
					<rect x="264.3" y="68.8" fill="#939598" width="0.9" height="9.2"/>
					<rect x="266.8" y="68" fill="#939598" width="0.9" height="9.2"/>
					<rect x="269.3" y="67.2" fill="#939598" width="0.9" height="9.2"/>
				</g>
				<g>
					<rect x="254.4" y="83.3" fill="#939598" width="0.9" height="9.2"/>
					<rect x="256.9" y="82.5" fill="#939598" width="0.9" height="9.2"/>
					<rect x="259.4" y="81.8" fill="#939598" width="0.9" height="9.2"/>
					<rect x="261.9" y="81" fill="#939598" width="0.9" height="9.2"/>
					<rect x="264.3" y="80.2" fill="#939598" width="0.9" height="9.2"/>
					<rect x="266.8" y="79.4" fill="#939598" width="0.9" height="9.2"/>
					<rect x="269.3" y="78.6" fill="#939598" width="0.9" height="9.2"/>
				</g>
				<g>
					<rect x="254.4" y="94.8" fill="#939598" width="0.9" height="9.2"/>
					<rect x="256.9" y="94" fill="#939598" width="0.9" height="9.2"/>
					<rect x="259.4" y="93.2" fill="#939598" width="0.9" height="9.2"/>
					<rect x="261.9" y="92.4" fill="#939598" width="0.9" height="9.2"/>
					<rect x="264.3" y="91.6" fill="#939598" width="0.9" height="9.2"/>
					<rect x="266.8" y="90.8" fill="#939598" width="0.9" height="9.2"/>
					<rect x="269.3" y="90" fill="#939598" width="0.9" height="9.2"/>
				</g>
				<g>
					<rect x="254.4" y="106.2" fill="#939598" width="0.9" height="9.2"/>
					<rect x="256.9" y="105.4" fill="#939598" width="0.9" height="9.2"/>
					<rect x="259.4" y="104.6" fill="#939598" width="0.9" height="9.2"/>
					<rect x="261.9" y="103.8" fill="#939598" width="0.9" height="9.2"/>
					<rect x="264.3" y="103" fill="#939598" width="0.9" height="9.2"/>
					<rect x="266.8" y="102.2" fill="#939598" width="0.9" height="9.2"/>
					<rect x="269.3" y="101.5" fill="#939598" width="0.9" height="9.2"/>
				</g>
			</g>
			<polygon fill="#E6E7E8" points="277.4,111.6 288.5,109 288.5,61.5 272.2,51.9 272.2,113.4 			"/>
			<g>
				<rect x="274.1" y="56.4" fill="#939598" width="0.3" height="46.6"/>
				<rect x="276.2" y="57.5" fill="#939598" width="0.3" height="46.6"/>
				<rect x="278.3" y="58.6" fill="#939598" width="0.3" height="46.6"/>
				<rect x="280.4" y="59.6" fill="#939598" width="0.3" height="46.6"/>
				<rect x="282.4" y="60.7" fill="#939598" width="0.3" height="46.6"/>
				<rect x="284.5" y="61.8" fill="#939598" width="0.3" height="46.6"/>
				<rect x="286.6" y="62.8" fill="#939598" width="0.3" height="46.6"/>
			</g>
		</g>
		<g>
			<polygon fill="#D1D3D4" points="275.5,92.9 275.5,47.6 295.8,41 295.8,40.9 312.1,50.5 312.1,92.9 			"/>
			<g>
				<g>
					<rect x="278" y="49.5" fill="#939598" width="0.9" height="9.2"/>
					<rect x="280.5" y="48.7" fill="#939598" width="0.9" height="9.2"/>
					<rect x="283" y="47.9" fill="#939598" width="0.9" height="9.2"/>
					<rect x="285.4" y="47.1" fill="#939598" width="0.9" height="9.2"/>
					<rect x="287.9" y="46.3" fill="#939598" width="0.9" height="9.2"/>
					<rect x="290.4" y="45.5" fill="#939598" width="0.9" height="9.2"/>
					<rect x="292.8" y="44.7" fill="#939598" width="0.9" height="9.2"/>
				</g>
				<g>
					<rect x="278" y="60.9" fill="#939598" width="0.9" height="9.2"/>
					<rect x="280.5" y="60.1" fill="#939598" width="0.9" height="9.2"/>
					<rect x="283" y="59.3" fill="#939598" width="0.9" height="9.2"/>
					<rect x="285.4" y="58.5" fill="#939598" width="0.9" height="9.2"/>
					<rect x="287.9" y="57.7" fill="#939598" width="0.9" height="9.2"/>
					<rect x="290.4" y="57" fill="#939598" width="0.9" height="9.2"/>
					<rect x="292.8" y="56.2" fill="#939598" width="0.9" height="9.2"/>
				</g>
				<g>
					<rect x="278" y="72.3" fill="#939598" width="0.9" height="9.2"/>
					<rect x="280.5" y="71.5" fill="#939598" width="0.9" height="9.2"/>
					<rect x="283" y="70.7" fill="#939598" width="0.9" height="9.2"/>
					<rect x="285.4" y="70" fill="#939598" width="0.9" height="9.2"/>
					<rect x="287.9" y="69.2" fill="#939598" width="0.9" height="9.2"/>
					<rect x="290.4" y="68.4" fill="#939598" width="0.9" height="9.2"/>
					<rect x="292.8" y="67.6" fill="#939598" width="0.9" height="9.2"/>
				</g>
				<g>
					<rect x="278" y="83.8" fill="#939598" width="0.9" height="9.2"/>
					<rect x="280.5" y="83" fill="#939598" width="0.9" height="9.2"/>
					<rect x="283" y="82.2" fill="#939598" width="0.9" height="9.2"/>
					<rect x="285.4" y="81.4" fill="#939598" width="0.9" height="9.2"/>
					<rect x="287.9" y="80.6" fill="#939598" width="0.9" height="9.2"/>
					<rect x="290.4" y="79.8" fill="#939598" width="0.9" height="9.2"/>
					<rect x="292.8" y="79" fill="#939598" width="0.9" height="9.2"/>
				</g>
				<g>
					<rect x="278" y="95.2" fill="#939598" width="0.9" height="9.2"/>
					<rect x="280.5" y="94.4" fill="#939598" width="0.9" height="9.2"/>
					<rect x="283" y="93.6" fill="#939598" width="0.9" height="9.2"/>
					<rect x="285.4" y="92.8" fill="#939598" width="0.9" height="9.2"/>
					<rect x="287.9" y="92" fill="#939598" width="0.9" height="9.2"/>
					<rect x="290.4" y="91.2" fill="#939598" width="0.9" height="9.2"/>
					<rect x="292.8" y="90.4" fill="#939598" width="0.9" height="9.2"/>
				</g>
			</g>
			<polygon fill="#E6E7E8" points="301,100.6 312.1,98 312.1,50.5 295.8,40.9 295.8,102.4 			"/>
			<g>
				<rect x="297.7" y="45.4" fill="#939598" width="0.3" height="46.6"/>
				<rect x="299.8" y="46.5" fill="#939598" width="0.3" height="46.6"/>
				<rect x="301.9" y="47.6" fill="#939598" width="0.3" height="46.6"/>
				<rect x="303.9" y="48.6" fill="#939598" width="0.3" height="46.6"/>
				<rect x="306" y="49.7" fill="#939598" width="0.3" height="46.6"/>
				<rect x="308.1" y="50.8" fill="#939598" width="0.3" height="46.6"/>
				<rect x="310.2" y="51.8" fill="#939598" width="0.3" height="46.6"/>
			</g>
		</g>
		<g>
			<polygon fill="#E6E7E8" points="223.9,97.3 237,89.6 274.8,89.6 274.8,121.5 223.9,121.5 			"/>
			<polygon fill="#D1D3D4" points="237,89.6 237,124.6 223.9,121.5 223.9,97.3 			"/>
			<g>
				<g>
					<rect x="224.8" y="97.9" fill="#939598" width="0.9" height="2.5"/>
					<rect x="226.6" y="96.9" fill="#939598" width="0.9" height="2.5"/>
					<rect x="228.3" y="95.9" fill="#939598" width="0.9" height="2.5"/>
					<rect x="230" y="94.9" fill="#939598" width="0.9" height="2.5"/>
					<rect x="231.8" y="93.9" fill="#939598" width="0.9" height="2.5"/>
					<rect x="233.5" y="92.9" fill="#939598" width="0.9" height="2.5"/>
					<rect x="235.2" y="91.9" fill="#939598" width="0.9" height="2.5"/>
				</g>
				<g>
					<rect x="237.8" y="91.6" fill="#939598" width="0.9" height="2.5"/>
					<rect x="240.4" y="91.6" fill="#939598" width="0.9" height="2.5"/>
					<rect x="243.1" y="91.6" fill="#939598" width="0.9" height="2.5"/>
					<rect x="245.7" y="91.6" fill="#939598" width="0.9" height="2.5"/>
					<rect x="248.3" y="91.6" fill="#939598" width="0.9" height="2.5"/>
					<rect x="251" y="91.6" fill="#939598" width="0.9" height="2.5"/>
					<rect x="253.6" y="91.6" fill="#939598" width="0.9" height="2.5"/>
					<rect x="256.2" y="91.6" fill="#939598" width="0.9" height="2.5"/>
					<rect x="258.9" y="91.6" fill="#939598" width="0.9" height="2.5"/>
					<rect x="261.5" y="91.6" fill="#939598" width="0.9" height="2.5"/>
					<rect x="264.1" y="91.6" fill="#939598" width="0.9" height="2.5"/>
					<rect x="266.8" y="91.6" fill="#939598" width="0.9" height="2.5"/>
					<rect x="269.4" y="91.6" fill="#939598" width="0.9" height="2.5"/>
					<rect x="272.1" y="91.6" fill="#939598" width="0.9" height="2.5"/>
				</g>
				<g>
					<rect x="237.8" y="96.9" fill="#939598" width="0.9" height="2.5"/>
					<rect x="240.4" y="96.9" fill="#939598" width="0.9" height="2.5"/>
					<rect x="243.1" y="96.9" fill="#939598" width="0.9" height="2.5"/>
					<rect x="245.7" y="96.9" fill="#939598" width="0.9" height="2.5"/>
					<rect x="248.3" y="96.9" fill="#939598" width="0.9" height="2.5"/>
					<rect x="251" y="96.9" fill="#939598" width="0.9" height="2.5"/>
					<rect x="253.6" y="96.9" fill="#939598" width="0.9" height="2.5"/>
					<rect x="256.2" y="96.9" fill="#939598" width="0.9" height="2.5"/>
					<rect x="258.9" y="96.9" fill="#939598" width="0.9" height="2.5"/>
					<rect x="261.5" y="96.9" fill="#939598" width="0.9" height="2.5"/>
					<rect x="264.1" y="96.9" fill="#939598" width="0.9" height="2.5"/>
					<rect x="266.8" y="96.9" fill="#939598" width="0.9" height="2.5"/>
					<rect x="269.4" y="96.9" fill="#939598" width="0.9" height="2.5"/>
					<rect x="272.1" y="96.9" fill="#939598" width="0.9" height="2.5"/>
				</g>
				<g>
					<rect x="237.8" y="102.1" fill="#939598" width="0.9" height="2.5"/>
					<rect x="240.4" y="102.1" fill="#939598" width="0.9" height="2.5"/>
					<rect x="243.1" y="102.1" fill="#939598" width="0.9" height="2.5"/>
					<rect x="245.7" y="102.1" fill="#939598" width="0.9" height="2.5"/>
					<rect x="248.3" y="102.1" fill="#939598" width="0.9" height="2.5"/>
					<rect x="251" y="102.1" fill="#939598" width="0.9" height="2.5"/>
					<rect x="253.6" y="102.1" fill="#939598" width="0.9" height="2.5"/>
					<rect x="256.2" y="102.1" fill="#939598" width="0.9" height="2.5"/>
					<rect x="258.9" y="102.1" fill="#939598" width="0.9" height="2.5"/>
					<rect x="261.5" y="102.1" fill="#939598" width="0.9" height="2.5"/>
					<rect x="264.1" y="102.1" fill="#939598" width="0.9" height="2.5"/>
					<rect x="266.8" y="102.1" fill="#939598" width="0.9" height="2.5"/>
					<rect x="269.4" y="102.1" fill="#939598" width="0.9" height="2.5"/>
					<rect x="272.1" y="102.1" fill="#939598" width="0.9" height="2.5"/>
				</g>
				<g>
					<rect x="237.8" y="107.3" fill="#939598" width="0.9" height="2.5"/>
					<rect x="240.4" y="107.3" fill="#939598" width="0.9" height="2.5"/>
					<rect x="243.1" y="107.3" fill="#939598" width="0.9" height="2.5"/>
					<rect x="245.7" y="107.3" fill="#939598" width="0.9" height="2.5"/>
					<rect x="248.3" y="107.3" fill="#939598" width="0.9" height="2.5"/>
					<rect x="251" y="107.3" fill="#939598" width="0.9" height="2.5"/>
					<rect x="253.6" y="107.3" fill="#939598" width="0.9" height="2.5"/>
					<rect x="256.2" y="107.3" fill="#939598" width="0.9" height="2.5"/>
					<rect x="258.9" y="107.3" fill="#939598" width="0.9" height="2.5"/>
					<rect x="261.5" y="107.3" fill="#939598" width="0.9" height="2.5"/>
					<rect x="264.1" y="107.3" fill="#939598" width="0.9" height="2.5"/>
					<rect x="266.8" y="107.3" fill="#939598" width="0.9" height="2.5"/>
					<rect x="269.4" y="107.3" fill="#939598" width="0.9" height="2.5"/>
					<rect x="272.1" y="107.3" fill="#939598" width="0.9" height="2.5"/>
				</g>
				<g>
					<rect x="237.8" y="112.5" fill="#939598" width="0.9" height="2.5"/>
					<rect x="240.4" y="112.5" fill="#939598" width="0.9" height="2.5"/>
					<rect x="243.1" y="112.5" fill="#939598" width="0.9" height="2.5"/>
					<rect x="245.7" y="112.5" fill="#939598" width="0.9" height="2.5"/>
					<rect x="248.3" y="112.5" fill="#939598" width="0.9" height="2.5"/>
					<rect x="251" y="112.5" fill="#939598" width="0.9" height="2.5"/>
					<rect x="253.6" y="112.5" fill="#939598" width="0.9" height="2.5"/>
					<rect x="256.2" y="112.5" fill="#939598" width="0.9" height="2.5"/>
					<rect x="258.9" y="112.5" fill="#939598" width="0.9" height="2.5"/>
					<rect x="261.5" y="112.5" fill="#939598" width="0.9" height="2.5"/>
					<rect x="264.1" y="112.5" fill="#939598" width="0.9" height="2.5"/>
					<rect x="266.8" y="112.5" fill="#939598" width="0.9" height="2.5"/>
					<rect x="269.4" y="112.5" fill="#939598" width="0.9" height="2.5"/>
					<rect x="272.1" y="112.5" fill="#939598" width="0.9" height="2.5"/>
				</g>
				<g>
					<rect x="237.8" y="117.7" fill="#939598" width="0.9" height="2.5"/>
					<rect x="240.4" y="117.7" fill="#939598" width="0.9" height="2.5"/>
					<rect x="243.1" y="117.7" fill="#939598" width="0.9" height="2.5"/>
					<rect x="245.7" y="117.7" fill="#939598" width="0.9" height="2.5"/>
					<rect x="248.3" y="117.7" fill="#939598" width="0.9" height="2.5"/>
					<rect x="251" y="117.7" fill="#939598" width="0.9" height="2.5"/>
					<rect x="253.6" y="117.7" fill="#939598" width="0.9" height="2.5"/>
					<rect x="256.2" y="117.7" fill="#939598" width="0.9" height="2.5"/>
					<rect x="258.9" y="117.7" fill="#939598" width="0.9" height="2.5"/>
					<rect x="261.5" y="117.7" fill="#939598" width="0.9" height="2.5"/>
					<rect x="264.1" y="117.7" fill="#939598" width="0.9" height="2.5"/>
					<rect x="266.8" y="117.7" fill="#939598" width="0.9" height="2.5"/>
					<rect x="269.4" y="117.7" fill="#939598" width="0.9" height="2.5"/>
					<rect x="272.1" y="117.7" fill="#939598" width="0.9" height="2.5"/>
				</g>
				<g>
					<rect x="224.8" y="103.1" fill="#939598" width="0.9" height="2.5"/>
					<rect x="226.6" y="102.1" fill="#939598" width="0.9" height="2.5"/>
					<rect x="228.3" y="101.1" fill="#939598" width="0.9" height="2.5"/>
					<rect x="230" y="100.1" fill="#939598" width="0.9" height="2.5"/>
					<rect x="231.8" y="99" fill="#939598" width="0.9" height="2.5"/>
					<rect x="233.5" y="98" fill="#939598" width="0.9" height="2.5"/>
					<rect x="235.2" y="97" fill="#939598" width="0.9" height="2.5"/>
				</g>
				<g>
					<rect x="224.8" y="108.2" fill="#939598" width="0.9" height="2.5"/>
					<rect x="226.6" y="107.2" fill="#939598" width="0.9" height="2.5"/>
					<rect x="228.3" y="106.2" fill="#939598" width="0.9" height="2.5"/>
					<rect x="230" y="105.2" fill="#939598" width="0.9" height="2.5"/>
					<rect x="231.8" y="104.2" fill="#939598" width="0.9" height="2.5"/>
					<rect x="233.5" y="103.2" fill="#939598" width="0.9" height="2.5"/>
					<rect x="235.2" y="102.2" fill="#939598" width="0.9" height="2.5"/>
				</g>
				<g>
					<rect x="224.8" y="113.4" fill="#939598" width="0.9" height="2.5"/>
					<rect x="226.6" y="112.4" fill="#939598" width="0.9" height="2.5"/>
					<rect x="228.3" y="111.4" fill="#939598" width="0.9" height="2.5"/>
					<rect x="230" y="110.4" fill="#939598" width="0.9" height="2.5"/>
					<rect x="231.8" y="109.4" fill="#939598" width="0.9" height="2.5"/>
					<rect x="233.5" y="108.4" fill="#939598" width="0.9" height="2.5"/>
					<rect x="235.2" y="107.4" fill="#939598" width="0.9" height="2.5"/>
				</g>
				<g>
					<rect x="224.8" y="118.6" fill="#939598" width="0.9" height="2.5"/>
					<rect x="226.6" y="117.5" fill="#939598" width="0.9" height="2.5"/>
					<rect x="228.3" y="116.5" fill="#939598" width="0.9" height="2.5"/>
					<rect x="230" y="115.5" fill="#939598" width="0.9" height="2.5"/>
					<rect x="231.8" y="114.5" fill="#939598" width="0.9" height="2.5"/>
					<rect x="233.5" y="113.5" fill="#939598" width="0.9" height="2.5"/>
					<rect x="235.2" y="112.5" fill="#939598" width="0.9" height="2.5"/>
				</g>
				<g>
					<rect x="224.8" y="123.7" fill="#939598" width="0.9" height="2.5"/>
					<rect x="226.6" y="122.7" fill="#939598" width="0.9" height="2.5"/>
					<rect x="228.3" y="121.7" fill="#939598" width="0.9" height="2.5"/>
					<rect x="230" y="120.7" fill="#939598" width="0.9" height="2.5"/>
					<rect x="231.8" y="119.7" fill="#939598" width="0.9" height="2.5"/>
					<rect x="233.5" y="118.7" fill="#939598" width="0.9" height="2.5"/>
					<rect x="235.2" y="117.7" fill="#939598" width="0.9" height="2.5"/>
				</g>
			</g>
		</g>
		<g>
			<polygon fill="#E6E7E8" points="110.5,153.4 110.5,118.4 128.3,100 128.3,153.4 			"/>
			<g>
				<rect x="111.5" y="117" fill="#939598" width="0.6" height="37.1"/>
				<rect x="114" y="114.3" fill="#939598" width="0.6" height="40.3"/>
				<rect x="116.5" y="111.7" fill="#939598" width="0.6" height="43.4"/>
				<rect x="119" y="109" fill="#939598" width="0.6" height="46.6"/>
				<rect x="121.6" y="106.3" fill="#939598" width="0.6" height="49.8"/>
				<rect x="124.1" y="103.7" fill="#939598" width="0.6" height="52.9"/>
				<rect x="126.6" y="101" fill="#939598" width="0.6" height="56.1"/>
			</g>
		</g>
		<g>
			<polygon fill="#D1D3D4" points="212.6,153.4 212.6,98 221.3,91.6 221.3,70.5 229.3,70.5 229.3,51.5 236.9,51.5 236.9,153.4 			
				"/>
			<g>
				<rect x="213.5" y="98.7" fill="#939598" width="0.9" height="11.6"/>
				<rect x="215.9" y="97.1" fill="#939598" width="0.9" height="11.6"/>
				<rect x="218.2" y="95.4" fill="#939598" width="0.9" height="11.6"/>
				<rect x="220.5" y="93.8" fill="#939598" width="0.9" height="11.6"/>
			</g>
			<g>
				<rect x="222.3" y="72.3" fill="#939598" width="0.9" height="12.3"/>
				<rect x="224.4" y="72.3" fill="#939598" width="0.9" height="12.3"/>
				<rect x="226.4" y="72.3" fill="#939598" width="0.9" height="12.3"/>
				<rect x="228.5" y="72.3" fill="#939598" width="0.9" height="12.3"/>
			</g>
			<g>
				<rect x="230.7" y="53.2" fill="#939598" width="0.9" height="31.5"/>
				<rect x="232.9" y="53.2" fill="#939598" width="0.9" height="31.5"/>
				<rect x="235.2" y="53.2" fill="#939598" width="0.9" height="31.5"/>
			</g>
			<g>
				<rect x="230.7" y="86.5" fill="#939598" width="0.9" height="67.2"/>
				<rect x="232.9" y="86.5" fill="#939598" width="0.9" height="67.2"/>
				<rect x="235.2" y="86.5" fill="#939598" width="0.9" height="67.2"/>
			</g>
			<g>
				<rect x="222.3" y="86.2" fill="#939598" width="0.9" height="12.3"/>
				<rect x="224.4" y="86.2" fill="#939598" width="0.9" height="12.3"/>
				<rect x="226.4" y="86.2" fill="#939598" width="0.9" height="12.3"/>
				<rect x="228.5" y="86.2" fill="#939598" width="0.9" height="12.3"/>
			</g>
			<g>
				<rect x="222.3" y="100.1" fill="#939598" width="0.9" height="12.3"/>
				<rect x="224.4" y="100.1" fill="#939598" width="0.9" height="12.3"/>
				<rect x="226.4" y="100.1" fill="#939598" width="0.9" height="12.3"/>
				<rect x="228.5" y="100.1" fill="#939598" width="0.9" height="12.3"/>
			</g>
			<g>
				<rect x="222.3" y="114" fill="#939598" width="0.9" height="12.3"/>
				<rect x="224.4" y="114" fill="#939598" width="0.9" height="12.3"/>
				<rect x="226.4" y="114" fill="#939598" width="0.9" height="12.3"/>
				<rect x="228.5" y="114" fill="#939598" width="0.9" height="12.3"/>
			</g>
			<g>
				<rect x="222.3" y="127.9" fill="#939598" width="0.9" height="12.3"/>
				<rect x="224.4" y="127.9" fill="#939598" width="0.9" height="12.3"/>
				<rect x="226.4" y="127.9" fill="#939598" width="0.9" height="12.3"/>
				<rect x="228.5" y="127.9" fill="#939598" width="0.9" height="12.3"/>
			</g>
			<g>
				<rect x="222.3" y="141.8" fill="#939598" width="0.9" height="12.3"/>
				<rect x="224.4" y="141.8" fill="#939598" width="0.9" height="12.3"/>
				<rect x="226.4" y="141.8" fill="#939598" width="0.9" height="12.3"/>
				<rect x="228.5" y="141.8" fill="#939598" width="0.9" height="12.3"/>
			</g>
		</g>
		<g>
			<polygon fill="#D1D3D4" points="121.8,153.4 121.8,123.2 135.3,118.7 135.3,91.3 146.2,97.7 146.2,153.4 			"/>
			<g>
				<g>
					<rect x="123.4" y="124.4" fill="#939598" width="0.6" height="6.1"/>
					<rect x="125.1" y="123.8" fill="#939598" width="0.6" height="6.1"/>
					<rect x="126.7" y="123.3" fill="#939598" width="0.6" height="6.1"/>
					<rect x="128.4" y="122.8" fill="#939598" width="0.6" height="6.1"/>
					<rect x="130" y="122.3" fill="#939598" width="0.6" height="6.1"/>
					<rect x="131.7" y="121.7" fill="#939598" width="0.6" height="6.1"/>
					<rect x="133.3" y="121.2" fill="#939598" width="0.6" height="6.1"/>
				</g>
				<g>
					<rect x="123.4" y="132" fill="#939598" width="0.6" height="6.1"/>
					<rect x="125.1" y="131.5" fill="#939598" width="0.6" height="6.1"/>
					<rect x="126.7" y="130.9" fill="#939598" width="0.6" height="6.1"/>
					<rect x="128.4" y="130.4" fill="#939598" width="0.6" height="6.1"/>
					<rect x="130" y="129.9" fill="#939598" width="0.6" height="6.1"/>
					<rect x="131.7" y="129.4" fill="#939598" width="0.6" height="6.1"/>
					<rect x="133.3" y="128.8" fill="#939598" width="0.6" height="6.1"/>
				</g>
				<g>
					<rect x="123.4" y="139.6" fill="#939598" width="0.6" height="6.1"/>
					<rect x="125.1" y="139.1" fill="#939598" width="0.6" height="6.1"/>
					<rect x="126.7" y="138.6" fill="#939598" width="0.6" height="6.1"/>
					<rect x="128.4" y="138" fill="#939598" width="0.6" height="6.1"/>
					<rect x="130" y="137.5" fill="#939598" width="0.6" height="6.1"/>
					<rect x="131.7" y="137" fill="#939598" width="0.6" height="6.1"/>
					<rect x="133.3" y="136.5" fill="#939598" width="0.6" height="6.1"/>
				</g>
				<g>
					<rect x="123.4" y="147.2" fill="#939598" width="0.6" height="6.1"/>
					<rect x="125.1" y="146.7" fill="#939598" width="0.6" height="6.1"/>
					<rect x="126.7" y="146.2" fill="#939598" width="0.6" height="6.1"/>
					<rect x="128.4" y="145.7" fill="#939598" width="0.6" height="6.1"/>
					<rect x="130" y="145.1" fill="#939598" width="0.6" height="6.1"/>
					<rect x="131.7" y="144.6" fill="#939598" width="0.6" height="6.1"/>
					<rect x="133.3" y="144.1" fill="#939598" width="0.6" height="6.1"/>
				</g>
				<g>
					<rect x="123.4" y="154.9" fill="#939598" width="0.6" height="6.1"/>
					<rect x="125.1" y="154.3" fill="#939598" width="0.6" height="6.1"/>
					<rect x="126.7" y="153.8" fill="#939598" width="0.6" height="6.1"/>
					<rect x="128.4" y="153.3" fill="#939598" width="0.6" height="6.1"/>
					<rect x="130" y="152.8" fill="#939598" width="0.6" height="6.1"/>
					<rect x="131.7" y="152.2" fill="#939598" width="0.6" height="6.1"/>
					<rect x="133.3" y="151.7" fill="#939598" width="0.6" height="6.1"/>
				</g>
			</g>
			<polygon fill="#E6E7E8" points="138.7,158.5 146.2,156.7 146.2,97.7 135.3,91.3 135.3,159.7 			"/>
			<g>
				<rect x="136.5" y="94.4" fill="#939598" width="0.3" height="58.4"/>
				<rect x="137.9" y="95.1" fill="#939598" width="0.3" height="58.4"/>
				<rect x="139.3" y="95.8" fill="#939598" width="0.3" height="58.4"/>
				<rect x="140.7" y="96.5" fill="#939598" width="0.3" height="58.4"/>
				<rect x="142.1" y="97.2" fill="#939598" width="0.3" height="58.4"/>
				<rect x="143.5" y="97.9" fill="#939598" width="0.3" height="58.4"/>
				<rect x="144.9" y="98.6" fill="#939598" width="0.3" height="58.4"/>
			</g>
		</g>
		<g>
			<polygon fill="#E6E7E8" points="143.7,115.2 164.4,102.9 223.9,102.9 223.9,153.4 143.7,153.4 			"/>
			<polygon fill="#D1D3D4" points="164.4,102.9 164.4,158.2 143.7,153.4 143.7,115.2 			"/>
			<g>
				<g>
					<rect x="145.4" y="116.1" fill="#939598" width="0.9" height="3.9"/>
					<rect x="148.2" y="114.5" fill="#939598" width="0.9" height="3.9"/>
					<rect x="150.9" y="112.9" fill="#939598" width="0.9" height="3.9"/>
					<rect x="153.6" y="111.3" fill="#939598" width="0.9" height="3.9"/>
					<rect x="156.3" y="109.7" fill="#939598" width="0.9" height="3.9"/>
					<rect x="159.1" y="108.2" fill="#939598" width="0.9" height="3.9"/>
					<rect x="161.8" y="106.6" fill="#939598" width="0.9" height="3.9"/>
				</g>
				<g>
					<rect x="165.8" y="106.2" fill="#939598" width="0.9" height="3.9"/>
					<rect x="170" y="106.2" fill="#939598" width="0.9" height="3.9"/>
					<rect x="174.1" y="106.2" fill="#939598" width="0.9" height="3.9"/>
					<rect x="178.3" y="106.2" fill="#939598" width="0.9" height="3.9"/>
					<rect x="182.5" y="106.2" fill="#939598" width="0.9" height="3.9"/>
					<rect x="186.6" y="106.2" fill="#939598" width="0.9" height="3.9"/>
					<rect x="190.8" y="106.2" fill="#939598" width="0.9" height="3.9"/>
					<rect x="194.9" y="106.2" fill="#939598" width="0.9" height="3.9"/>
					<rect x="199.1" y="106.2" fill="#939598" width="0.9" height="3.9"/>
					<rect x="203.3" y="106.2" fill="#939598" width="0.9" height="3.9"/>
					<rect x="207.4" y="106.2" fill="#939598" width="0.9" height="3.9"/>
					<rect x="211.6" y="106.2" fill="#939598" width="0.9" height="3.9"/>
					<rect x="215.7" y="106.2" fill="#939598" width="0.9" height="3.9"/>
					<rect x="219.9" y="106.2" fill="#939598" width="0.9" height="3.9"/>
				</g>
				<g>
					<rect x="165.8" y="114.4" fill="#939598" width="0.9" height="3.9"/>
					<rect x="170" y="114.4" fill="#939598" width="0.9" height="3.9"/>
					<rect x="174.1" y="114.4" fill="#939598" width="0.9" height="3.9"/>
					<rect x="178.3" y="114.4" fill="#939598" width="0.9" height="3.9"/>
					<rect x="182.5" y="114.4" fill="#939598" width="0.9" height="3.9"/>
					<rect x="186.6" y="114.4" fill="#939598" width="0.9" height="3.9"/>
					<rect x="190.8" y="114.4" fill="#939598" width="0.9" height="3.9"/>
					<rect x="194.9" y="114.4" fill="#939598" width="0.9" height="3.9"/>
					<rect x="199.1" y="114.4" fill="#939598" width="0.9" height="3.9"/>
					<rect x="203.3" y="114.4" fill="#939598" width="0.9" height="3.9"/>
					<rect x="207.4" y="114.4" fill="#939598" width="0.9" height="3.9"/>
					<rect x="211.6" y="114.4" fill="#939598" width="0.9" height="3.9"/>
					<rect x="215.7" y="114.4" fill="#939598" width="0.9" height="3.9"/>
					<rect x="219.9" y="114.4" fill="#939598" width="0.9" height="3.9"/>
				</g>
				<g>
					<rect x="165.8" y="122.6" fill="#939598" width="0.9" height="3.9"/>
					<rect x="170" y="122.6" fill="#939598" width="0.9" height="3.9"/>
					<rect x="174.1" y="122.6" fill="#939598" width="0.9" height="3.9"/>
					<rect x="178.3" y="122.6" fill="#939598" width="0.9" height="3.9"/>
					<rect x="182.5" y="122.6" fill="#939598" width="0.9" height="3.9"/>
					<rect x="186.6" y="122.6" fill="#939598" width="0.9" height="3.9"/>
					<rect x="190.8" y="122.6" fill="#939598" width="0.9" height="3.9"/>
					<rect x="194.9" y="122.6" fill="#939598" width="0.9" height="3.9"/>
					<rect x="199.1" y="122.6" fill="#939598" width="0.9" height="3.9"/>
					<rect x="203.3" y="122.6" fill="#939598" width="0.9" height="3.9"/>
					<rect x="207.4" y="122.6" fill="#939598" width="0.9" height="3.9"/>
					<rect x="211.6" y="122.6" fill="#939598" width="0.9" height="3.9"/>
					<rect x="215.7" y="122.6" fill="#939598" width="0.9" height="3.9"/>
					<rect x="219.9" y="122.6" fill="#939598" width="0.9" height="3.9"/>
				</g>
				<g>
					<rect x="165.8" y="130.8" fill="#939598" width="0.9" height="3.9"/>
					<rect x="170" y="130.8" fill="#939598" width="0.9" height="3.9"/>
					<rect x="174.1" y="130.8" fill="#939598" width="0.9" height="3.9"/>
					<rect x="178.3" y="130.8" fill="#939598" width="0.9" height="3.9"/>
					<rect x="182.5" y="130.8" fill="#939598" width="0.9" height="3.9"/>
					<rect x="186.6" y="130.8" fill="#939598" width="0.9" height="3.9"/>
					<rect x="190.8" y="130.8" fill="#939598" width="0.9" height="3.9"/>
					<rect x="194.9" y="130.8" fill="#939598" width="0.9" height="3.9"/>
					<rect x="199.1" y="130.8" fill="#939598" width="0.9" height="3.9"/>
					<rect x="203.3" y="130.8" fill="#939598" width="0.9" height="3.9"/>
					<rect x="207.4" y="130.8" fill="#939598" width="0.9" height="3.9"/>
					<rect x="211.6" y="130.8" fill="#939598" width="0.9" height="3.9"/>
					<rect x="215.7" y="130.8" fill="#939598" width="0.9" height="3.9"/>
					<rect x="219.9" y="130.8" fill="#939598" width="0.9" height="3.9"/>
				</g>
				<g>
					<rect x="165.8" y="139" fill="#939598" width="0.9" height="3.9"/>
					<rect x="170" y="139" fill="#939598" width="0.9" height="3.9"/>
					<rect x="174.1" y="139" fill="#939598" width="0.9" height="3.9"/>
					<rect x="178.3" y="139" fill="#939598" width="0.9" height="3.9"/>
					<rect x="182.5" y="139" fill="#939598" width="0.9" height="3.9"/>
					<rect x="186.6" y="139" fill="#939598" width="0.9" height="3.9"/>
					<rect x="190.8" y="139" fill="#939598" width="0.9" height="3.9"/>
					<rect x="194.9" y="139" fill="#939598" width="0.9" height="3.9"/>
					<rect x="199.1" y="139" fill="#939598" width="0.9" height="3.9"/>
					<rect x="203.3" y="139" fill="#939598" width="0.9" height="3.9"/>
					<rect x="207.4" y="139" fill="#939598" width="0.9" height="3.9"/>
					<rect x="211.6" y="139" fill="#939598" width="0.9" height="3.9"/>
					<rect x="215.7" y="139" fill="#939598" width="0.9" height="3.9"/>
					<rect x="219.9" y="139" fill="#939598" width="0.9" height="3.9"/>
				</g>
				<g>
					<rect x="165.8" y="147.3" fill="#939598" width="0.9" height="3.9"/>
					<rect x="170" y="147.3" fill="#939598" width="0.9" height="3.9"/>
					<rect x="174.1" y="147.3" fill="#939598" width="0.9" height="3.9"/>
					<rect x="178.3" y="147.3" fill="#939598" width="0.9" height="3.9"/>
					<rect x="182.5" y="147.3" fill="#939598" width="0.9" height="3.9"/>
					<rect x="186.6" y="147.3" fill="#939598" width="0.9" height="3.9"/>
					<rect x="190.8" y="147.3" fill="#939598" width="0.9" height="3.9"/>
					<rect x="194.9" y="147.3" fill="#939598" width="0.9" height="3.9"/>
					<rect x="199.1" y="147.3" fill="#939598" width="0.9" height="3.9"/>
					<rect x="203.3" y="147.3" fill="#939598" width="0.9" height="3.9"/>
					<rect x="207.4" y="147.3" fill="#939598" width="0.9" height="3.9"/>
					<rect x="211.6" y="147.3" fill="#939598" width="0.9" height="3.9"/>
					<rect x="215.7" y="147.3" fill="#939598" width="0.9" height="3.9"/>
					<rect x="219.9" y="147.3" fill="#939598" width="0.9" height="3.9"/>
				</g>
				<g>
					<rect x="145.4" y="124.2" fill="#939598" width="0.9" height="3.9"/>
					<rect x="148.2" y="122.6" fill="#939598" width="0.9" height="3.9"/>
					<rect x="150.9" y="121.1" fill="#939598" width="0.9" height="3.9"/>
					<rect x="153.6" y="119.5" fill="#939598" width="0.9" height="3.9"/>
					<rect x="156.3" y="117.9" fill="#939598" width="0.9" height="3.9"/>
					<rect x="159.1" y="116.3" fill="#939598" width="0.9" height="3.9"/>
					<rect x="161.8" y="114.7" fill="#939598" width="0.9" height="3.9"/>
				</g>
				<g>
					<rect x="145.4" y="132.4" fill="#939598" width="0.9" height="3.9"/>
					<rect x="148.2" y="130.8" fill="#939598" width="0.9" height="3.9"/>
					<rect x="150.9" y="129.2" fill="#939598" width="0.9" height="3.9"/>
					<rect x="153.6" y="127.6" fill="#939598" width="0.9" height="3.9"/>
					<rect x="156.3" y="126" fill="#939598" width="0.9" height="3.9"/>
					<rect x="159.1" y="124.4" fill="#939598" width="0.9" height="3.9"/>
					<rect x="161.8" y="122.8" fill="#939598" width="0.9" height="3.9"/>
				</g>
				<g>
					<rect x="145.4" y="140.5" fill="#939598" width="0.9" height="3.9"/>
					<rect x="148.2" y="138.9" fill="#939598" width="0.9" height="3.9"/>
					<rect x="150.9" y="137.3" fill="#939598" width="0.9" height="3.9"/>
					<rect x="153.6" y="135.8" fill="#939598" width="0.9" height="3.9"/>
					<rect x="156.3" y="134.2" fill="#939598" width="0.9" height="3.9"/>
					<rect x="159.1" y="132.6" fill="#939598" width="0.9" height="3.9"/>
					<rect x="161.8" y="131" fill="#939598" width="0.9" height="3.9"/>
				</g>
				<g>
					<rect x="145.4" y="148.7" fill="#939598" width="0.9" height="3.9"/>
					<rect x="148.2" y="147.1" fill="#939598" width="0.9" height="3.9"/>
					<rect x="150.9" y="145.5" fill="#939598" width="0.9" height="3.9"/>
					<rect x="153.6" y="143.9" fill="#939598" width="0.9" height="3.9"/>
					<rect x="156.3" y="142.3" fill="#939598" width="0.9" height="3.9"/>
					<rect x="159.1" y="140.7" fill="#939598" width="0.9" height="3.9"/>
					<rect x="161.8" y="139.1" fill="#939598" width="0.9" height="3.9"/>
				</g>
				<g>
					<rect x="145.4" y="156.8" fill="#939598" width="0.9" height="3.9"/>
					<rect x="148.2" y="155.2" fill="#939598" width="0.9" height="3.9"/>
					<rect x="150.9" y="153.6" fill="#939598" width="0.9" height="3.9"/>
					<rect x="153.6" y="152" fill="#939598" width="0.9" height="3.9"/>
					<rect x="156.3" y="150.4" fill="#939598" width="0.9" height="3.9"/>
					<rect x="159.1" y="148.9" fill="#939598" width="0.9" height="3.9"/>
					<rect x="161.8" y="147.3" fill="#939598" width="0.9" height="3.9"/>
				</g>
			</g>
		</g>
	</g>
</g>
<path fill="#573392" d="M287.8,89.8l-9.2-5.3c-0.9-0.5-2.1-0.2-2.7,0.7c-0.5,0.9-0.2,2.1,0.7,2.7l5.1,2.9l-24.1,7.9
	c-0.8,0.3-1.4,1-1.4,1.9v15.8h-43.7c-1.1,0-2,0.9-2,2v19h-79.5c-1.1,0-2,0.9-2,2v12H2c-1.1,0-2,0.9-2,2s0.9,2,2,2h129.2
	c1.1,0,2-0.9,2-2v-12h79.5c1.1,0,2-0.9,2-2v-19h43.7c1.1,0,2-0.9,2-2v-16.3l22.6-7.4l-3.2,5.6c-0.5,0.9-0.2,2.1,0.7,2.7
	c0.3,0.2,0.6,0.3,1,0.3c0.7,0,1.3-0.4,1.7-1l5.5-9.7C289.1,91.5,288.8,90.3,287.8,89.8z"/>
<g>
</g>
<g>
</g>
<g>
</g>
<g>
</g>
<g>
</g>
<g>
</g>
<g>
</g>
<g>
</g>
<g>
</g>
<g>
</g>
<g>
</g>
<g>
</g>
<g>
</g>
<g>
</g>
<g>
</g>
</svg>
