<?xml version="1.0" encoding="utf-8"?>
<!-- Generator: Adobe Illustrator 18.0.0, SVG Export Plug-In . SVG Version: 6.00 Build 0)  -->
<!DOCTYPE svg PUBLIC "-//W3C//DTD SVG 1.1//EN" "http://www.w3.org/Graphics/SVG/1.1/DTD/svg11.dtd">
<svg version="1.1" id="Layer_1" xmlns="http://www.w3.org/2000/svg" xmlns:xlink="http://www.w3.org/1999/xlink" x="0px" y="0px"
	 viewBox="0 0 108.8 58.2" enable-background="new 0 0 108.8 58.2" xml:space="preserve">
<g>
	<g>
		<circle fill="#007A6D" cx="12.9" cy="13.7" r="12.9"/>
		<g>
			<path fill="#FFFFFF" d="M11.9,19.9v-9.9H8.4V8.3c2.1,0,3.5-1.2,3.8-2.7h2.3v14.4H11.9z"/>
		</g>
	</g>
	<g>
		<g>
			<g>
				<defs>
					<circle id="SVGID_1_" cx="63.5" cy="23.6" r="22.8"/>
				</defs>
				<clipPath id="SVGID_2_">
					<use xlink:href="#SVGID_1_"  overflow="visible"/>
				</clipPath>
				<g clip-path="url(#SVGID_2_)">
					<g>
						<polygon fill="#2368B5" points="44.7,42 43.9,41.1 51.6,34.2 55.9,38.5 62.7,31.2 67.7,35.6 79.5,24.6 80.3,25.4 67.7,37.2 
							62.8,32.8 55.9,40.2 51.5,35.8 						"/>
						<path fill="#2368B5" d="M79.5,24.6l0.8,0.9L67.7,37.2l-4.9-4.4l-6.9,7.4l-4.4-4.4L44.7,42l-0.8-0.9l7.6-6.9l4.3,4.3l6.9-7.4
							l4.9,4.4L79.5,24.6 M79.5,23.9l-0.4,0.3L67.7,34.9l-4.6-4.1l-0.4-0.3l-0.3,0.3l-6.5,7l-4-4l-0.3-0.3l-0.3,0.3l-7.6,6.9
							l-0.4,0.3l0.3,0.4l0.8,0.9l0.3,0.4l0.4-0.3l6.5-5.9l4.1,4.1l0.4,0.4l0.3-0.4l6.6-7.1l4.5,4.1l0.3,0.3l0.3-0.3l12.6-11.7
							l0.4-0.3l-0.3-0.4l-0.8-0.9L79.5,23.9L79.5,23.9z"/>
					</g>
					<g>
						<polygon fill="#2368B5" points="80.6,29.5 79.5,29.5 79.5,25.4 74.2,25.4 74.2,24.2 80.6,24.2 						"/>
						<path fill="#2368B5" d="M80.6,24.2v5.3h-1.2v-4.1h-5.3v-1.2H80.6 M81.1,23.7h-0.5h-6.4h-0.5v0.5v1.2v0.5h0.5H79v3.7V30h0.5
							h1.2h0.5v-0.5v-5.3V23.7L81.1,23.7z"/>
					</g>
				</g>
				<g clip-path="url(#SVGID_2_)">
					<rect x="40.5" y="16.8" fill="#2368B5" width="2.9" height="1.4"/>
					<path fill="#2368B5" d="M76.9,18.2h-5.6v-1.4h5.6V18.2z M65.7,18.2h-5.6v-1.4h5.6V18.2z M54.5,18.2h-5.6v-1.4h5.6V18.2z"/>
					<rect x="82.5" y="16.8" fill="#2368B5" width="2.9" height="1.4"/>
				</g>
			</g>
			<path fill="#2368B5" d="M63.5,47.1c-13,0-23.6-10.6-23.6-23.6S50.5,0,63.5,0S87,10.6,87,23.6S76.5,47.1,63.5,47.1z M63.5,1.4
				c-12.2,0-22.1,9.9-22.1,22.1s9.9,22.1,22.1,22.1s22.1-9.9,22.1-22.1S75.7,1.4,63.5,1.4z"/>
			<g>
				<path fill="#2368B5" d="M77.7,47.6c0,0,15.5-2.2,17.6-17.9h9.7C105.1,29.7,105.8,42.8,77.7,47.6z"/>
				<path fill="#2368B5" d="M99.7,20.2c0.1,0.4-10.9,10.5-10.9,10.5h20L99.7,20.2z"/>
			</g>
		</g>
		<g>
			<g>
				<path fill="#2368B5" d="M42.2,53.6c-0.1,0.3-0.2,0.5-0.4,0.8v2.5h-0.3v-2.1c-0.1,0.2-0.2,0.3-0.4,0.5c0-0.1-0.1-0.2-0.2-0.3
					c0.4-0.4,0.7-0.9,0.9-1.5L42.2,53.6z M43.7,55.2c0.1,0.8,0.2,1.4,0.4,1.4c0.1,0,0.1-0.2,0.1-0.5c0,0,0.1,0.1,0.2,0.1
					c-0.1,0.6-0.2,0.7-0.3,0.7c-0.4,0-0.6-0.7-0.7-1.7h-0.9v1l0.7-0.2c0,0.1,0,0.2,0,0.2c-0.8,0.2-0.9,0.3-1,0.3
					c0-0.1-0.1-0.2-0.1-0.2c0.1,0,0.2-0.1,0.2-0.2v-2.2h0l0,0c0.6-0.1,1.3-0.2,1.7-0.4l0.2,0.2c-0.2,0.1-0.4,0.1-0.7,0.2
					c0,0.4,0,0.7,0.1,1h0.7v0.3H43.7z M43.4,54.9c0-0.3,0-0.6-0.1-1c-0.3,0.1-0.5,0.1-0.8,0.1v0.8H43.4z M42.7,56.6h1v0.2h-1V56.6z"
					/>
				<path fill="#2368B5" d="M47,54.6c0.3,0.6,0.7,1.2,1.2,1.5c-0.1,0.1-0.2,0.2-0.2,0.2c-0.5-0.3-1-1-1.3-1.7h-0.1V56h0.9v0.3h-0.9
					v0.7h-0.3v-0.7h-0.9V56h0.9v-1.4h-0.1C46,55.3,45.5,56,45,56.3c0-0.1-0.1-0.2-0.2-0.2c0.5-0.3,0.9-0.9,1.2-1.5h-1.1v-0.3h1.5
					v-0.8h0.3v0.8h1.5v0.3H47z"/>
				<path fill="#2368B5" d="M51.9,56.6v0.2h-3.4v-0.2H49v-1.2h2.4v1.2H51.9z M51.8,54.5h-3.2v-0.2h1c-0.1-0.2-0.2-0.4-0.4-0.6
					l0.2-0.1c0.2,0.2,0.3,0.4,0.4,0.6l-0.2,0.1h1.2l-0.2-0.1c0.1-0.2,0.3-0.4,0.4-0.6l0.3,0.1c-0.1,0.2-0.3,0.5-0.4,0.6h1V54.5z
					 M49.8,54.8c-0.3,0.2-0.7,0.5-1,0.7c0-0.1-0.1-0.2-0.2-0.2c0.3-0.1,0.8-0.4,1-0.6L49.8,54.8z M49.3,56.6h0.5v-0.9h-0.5V56.6z
					 M50,55.7v0.9h0.5v-0.9H50z M51.7,55.4c-0.3-0.1-0.7-0.4-1.1-0.5l0.1-0.2c0.4,0.1,0.9,0.3,1.1,0.5L51.7,55.4z M50.7,55.7v0.9
					h0.5v-0.9H50.7z"/>
				<path fill="#2368B5" d="M53.9,56.2c0,0.1,0,0.2,0,0.3c-1.1,0.3-1.2,0.3-1.3,0.4c0-0.1-0.1-0.2-0.1-0.2c0.1,0,0.1-0.1,0.1-0.3
					v-2.8h0.3v1.1h0.9v0.3h-0.9v1.5L53.9,56.2z M55.2,56.6c0.2,0,0.2-0.1,0.2-0.7c0.1,0.1,0.2,0.1,0.3,0.1c0,0.6-0.1,0.8-0.5,0.8
					h-0.6c-0.4,0-0.5-0.1-0.5-0.5v-2.8h0.3v1.1h1v0.3h-1v1.4c0,0.2,0,0.2,0.2,0.2H55.2z"/>
				<path fill="#2368B5" d="M62,53.6c-0.1,0.3-0.2,0.5-0.4,0.8v2.5h-0.3v-2.1c-0.1,0.2-0.2,0.3-0.4,0.5c0-0.1-0.1-0.2-0.2-0.3
					c0.4-0.4,0.7-0.9,0.9-1.5L62,53.6z M63.6,55.2c0.1,0.8,0.2,1.4,0.4,1.4c0.1,0,0.1-0.2,0.1-0.5c0,0,0.1,0.1,0.2,0.1
					c-0.1,0.6-0.2,0.7-0.3,0.7c-0.4,0-0.6-0.7-0.7-1.7h-0.9v1l0.7-0.2c0,0.1,0,0.2,0,0.2c-0.8,0.2-0.9,0.3-1,0.3
					c0-0.1-0.1-0.2-0.1-0.2c0.1,0,0.2-0.1,0.2-0.2v-2.2h0l0,0c0.6-0.1,1.3-0.2,1.7-0.4l0.2,0.2c-0.2,0.1-0.4,0.1-0.7,0.2
					c0,0.4,0,0.7,0.1,1h0.7v0.3H63.6z M63.3,54.9c0-0.3,0-0.6-0.1-1c-0.3,0.1-0.5,0.1-0.8,0.1v0.8H63.3z M62.5,56.6h1v0.2h-1V56.6z"
					/>
				<path fill="#2368B5" d="M65.9,56.6c0,0.1,0,0.2-0.1,0.3c-0.1,0-0.2,0-0.5,0c0-0.1,0-0.2-0.1-0.3c0.2,0,0.3,0,0.3,0
					c0,0,0.1,0,0.1-0.1v-1c-0.2,0.1-0.3,0.2-0.4,0.3l-0.1-0.2c0,0.5-0.1,0.9-0.3,1.3c0,0-0.2-0.1-0.2-0.1c0.2-0.5,0.3-1.3,0.3-1.8
					v-1.3h1V56.6z M65.1,55c0,0.2,0,0.4,0,0.6c0.1-0.1,0.3-0.1,0.5-0.2v-0.4L65.5,55c-0.1-0.1-0.2-0.3-0.4-0.4V55z M65.1,53.9v0.6
					l0.1-0.1c0.1,0.1,0.3,0.3,0.4,0.4v-0.9H65.1z M67.9,55.2c-0.1,0.5-0.4,0.8-0.7,1.1c0.2,0.2,0.5,0.3,0.8,0.4
					c-0.1,0.1-0.1,0.2-0.2,0.2c-0.3-0.1-0.6-0.2-0.9-0.4c-0.3,0.2-0.6,0.3-0.9,0.4c0-0.1-0.1-0.2-0.1-0.2c0.3-0.1,0.6-0.2,0.8-0.4
					c-0.2-0.2-0.4-0.5-0.6-0.9l0.1,0h-0.2v-0.3h1.6l0,0L67.9,55.2z M66.7,54.1c0,0.3-0.1,0.7-0.5,1c0-0.1-0.1-0.2-0.2-0.2
					c0.4-0.2,0.5-0.5,0.5-0.8v-0.4h1.1v0.9c0,0.1,0,0.1,0.1,0.1h0.2c0,0,0.1,0,0.2,0c0,0.1,0,0.2,0,0.2c0,0-0.1,0-0.2,0h-0.2
					c-0.2,0-0.3-0.1-0.3-0.4v-0.6h-0.6V54.1z M66.5,55.4c0.1,0.3,0.3,0.5,0.5,0.7c0.2-0.2,0.4-0.4,0.5-0.7H66.5z"/>
				<path fill="#2368B5" d="M69.3,53.6c-0.1,0.2-0.2,0.5-0.3,0.7v2.6h-0.3v-2.1c-0.1,0.2-0.2,0.3-0.3,0.5c0-0.1-0.1-0.2-0.2-0.3
					c0.3-0.4,0.6-0.9,0.8-1.5L69.3,53.6z M70.3,56.5c-0.2,0.2-0.6,0.3-0.9,0.4c0-0.1-0.1-0.1-0.2-0.2c0.3-0.1,0.7-0.2,0.9-0.3
					L70.3,56.5z M70.1,53.9h-0.7v-0.2h2.4v0.2h-0.8v0.2h0.7v0.7h-2.2v-0.7h0.6V53.9z M69.5,56.4V55h2v1.3H69.5z M69.7,54.7h0.4v-0.4
					h-0.4V54.7z M69.8,55.4h1.5v-0.2h-1.5V55.4z M69.8,55.8h1.5v-0.2h-1.5V55.8z M69.8,56.2h1.5V56h-1.5V56.2z M70.7,53.9h-0.4v0.2
					h0.4V53.9z M70.3,54.7h0.4v-0.4h-0.4V54.7z M70.9,56.4c0.3,0.1,0.7,0.2,0.9,0.4l-0.2,0.2c-0.2-0.1-0.5-0.3-0.8-0.4L70.9,56.4z
					 M70.9,54.3v0.4h0.4v-0.4H70.9z"/>
				<path fill="#2368B5" d="M72.7,55.2c-0.1-0.1-0.4-0.3-0.6-0.4l0.1-0.2c0.2,0.1,0.5,0.2,0.7,0.4L72.7,55.2z M72.1,56.7
					c0.2-0.3,0.4-0.7,0.6-1.1l0.2,0.2c-0.2,0.4-0.4,0.8-0.6,1.2L72.1,56.7z M72.9,54.2c-0.1-0.1-0.4-0.3-0.6-0.4l0.1-0.2
					c0.2,0.1,0.5,0.3,0.6,0.4L72.9,54.2z M75.5,55.5h-0.3v0.6h-0.9v0.5c0,0.2,0,0.2-0.1,0.3c-0.1,0-0.3,0-0.6,0c0-0.1,0-0.2-0.1-0.3
					c0.2,0,0.4,0,0.5,0c0.1,0,0.1,0,0.1-0.1v-0.5h-0.8v-0.2H74v-0.3H73v-0.2H74v-0.3h-0.8v-0.2h2v0.6h0.3V55.5z M75.2,53.7
					c-0.5,0.1-1.3,0.2-2,0.3c0-0.1,0-0.2-0.1-0.2c0.7-0.1,1.5-0.2,1.9-0.3L75.2,53.7z M73.4,54.7c0-0.1-0.1-0.3-0.2-0.5l0.2-0.1
					c0.1,0.1,0.2,0.3,0.2,0.5L73.4,54.7z M74.1,54.6c0-0.1-0.1-0.3-0.2-0.5l0.2-0.1c0.1,0.2,0.2,0.4,0.2,0.5L74.1,54.6z M74.3,55.2
					h0.6v-0.3h-0.6V55.2z M74.9,55.5h-0.6v0.3h0.6V55.5z M74.6,54.5c0.1-0.2,0.2-0.4,0.3-0.6l0.3,0.1c-0.1,0.2-0.2,0.4-0.3,0.6
					L74.6,54.5z"/>
				<path fill="#2368B5" d="M76.9,53.6c-0.1,0.3-0.2,0.6-0.4,0.8v2.5h-0.3v-2c-0.1,0.1-0.2,0.3-0.3,0.4c0-0.1-0.1-0.2-0.2-0.3
					c0.3-0.4,0.7-0.9,0.9-1.5L76.9,53.6z M79.2,56.6v0.2h-2.5v-0.2H77v-2.1h0.6c0-0.1,0-0.2,0.1-0.3h-0.9v-0.2h0.9
					c0-0.1,0-0.3,0-0.4l0.3,0c0,0.1,0,0.2-0.1,0.4h1v0.2h-1c0,0.1-0.1,0.2-0.1,0.3h0.9v2.1H79.2z M77.3,54.7V55h1.3v-0.3H77.3z
					 M78.6,55.2h-1.3v0.3h1.3V55.2z M77.3,56.1h1.3v-0.3h-1.3V56.1z M77.3,56.6h1.3v-0.3h-1.3V56.6z"/>
				<path fill="#2368B5" d="M81.1,56.2c0,0.1,0,0.2,0,0.3c-1.1,0.3-1.2,0.3-1.3,0.4c0-0.1-0.1-0.2-0.1-0.2c0.1,0,0.1-0.1,0.1-0.3
					v-2.8h0.3v1.1h0.9v0.3h-0.9v1.5L81.1,56.2z M82.4,56.6c0.2,0,0.2-0.1,0.2-0.7c0.1,0.1,0.2,0.1,0.3,0.1c0,0.6-0.1,0.8-0.5,0.8
					h-0.6c-0.4,0-0.5-0.1-0.5-0.5v-2.8h0.3v1.1h1v0.3h-1v1.4c0,0.2,0,0.2,0.2,0.2H82.4z"/>
				<path fill="#2368B5" d="M90.7,53.9v0.2h-3.2v-0.2H89c0-0.1-0.1-0.2-0.1-0.3l0.3-0.1c0.1,0.1,0.1,0.3,0.1,0.4H90.7z M90.5,56.6
					c0,0.1,0,0.2-0.1,0.2c-0.1,0-0.3,0-0.5,0c0-0.1-0.1-0.1-0.1-0.2c0.2,0,0.3,0,0.4,0c0,0,0.1,0,0.1-0.1v-1.1h-2.4v1.4h-0.3v-1.6h3
					V56.6z M90.1,54.4v0.7H88v-0.7H90.1z M89.8,56.5h-1.3v0.2h-0.3v-0.9h1.6V56.5z M89.9,54.6h-1.6v0.3h1.6V54.6z M88.5,56v0.3h1.1
					V56H88.5z"/>
				<path fill="#2368B5" d="M92.3,56.6c0,0.1,0,0.2-0.1,0.3c-0.1,0-0.2,0-0.5,0c0-0.1,0-0.2-0.1-0.3c0.2,0,0.3,0,0.3,0
					c0,0,0.1,0,0.1-0.1v-1c-0.2,0.1-0.3,0.2-0.4,0.3l-0.1-0.2c0,0.5-0.1,0.9-0.3,1.3c0,0-0.2-0.1-0.2-0.1c0.2-0.5,0.3-1.3,0.3-1.8
					v-1.3h1V56.6z M91.6,55c0,0.2,0,0.4,0,0.6c0.1-0.1,0.3-0.1,0.5-0.2v-0.4L92,55c-0.1-0.1-0.2-0.3-0.4-0.4V55z M91.6,53.9v0.6
					l0.1-0.1c0.1,0.1,0.3,0.3,0.4,0.4v-0.9H91.6z M94.3,55.2c-0.1,0.5-0.4,0.8-0.7,1.1c0.2,0.2,0.5,0.3,0.8,0.4
					c-0.1,0.1-0.1,0.2-0.2,0.2c-0.3-0.1-0.6-0.2-0.9-0.4c-0.3,0.2-0.6,0.3-0.9,0.4c0-0.1-0.1-0.2-0.1-0.2c0.3-0.1,0.6-0.2,0.8-0.4
					c-0.2-0.2-0.4-0.5-0.6-0.9l0.1,0h-0.2v-0.3h1.6l0,0L94.3,55.2z M93.2,54.1c0,0.3-0.1,0.7-0.5,1c0-0.1-0.1-0.2-0.2-0.2
					c0.4-0.2,0.5-0.5,0.5-0.8v-0.4H94v0.9c0,0.1,0,0.1,0.1,0.1h0.2c0,0,0.1,0,0.2,0c0,0.1,0,0.2,0,0.2c0,0-0.1,0-0.2,0h-0.2
					c-0.2,0-0.3-0.1-0.3-0.4v-0.6h-0.6V54.1z M92.9,55.4c0.1,0.3,0.3,0.5,0.5,0.7c0.2-0.2,0.4-0.4,0.5-0.7H92.9z"/>
				<path fill="#2368B5" d="M95.9,54.6h0.8v0.3h-0.8V55c0.2,0.2,0.6,0.6,0.7,0.7l-0.2,0.2c-0.1-0.1-0.4-0.4-0.6-0.6v1.6h-0.3v-1.6
					c-0.2,0.4-0.5,0.8-0.7,1.1c0-0.1-0.1-0.2-0.2-0.3c0.3-0.3,0.6-0.8,0.8-1.3h-0.7v-0.3h0.8V54c-0.2,0-0.5,0.1-0.7,0.1
					c0-0.1-0.1-0.2-0.1-0.2c0.5-0.1,1.2-0.2,1.5-0.4l0.2,0.2c-0.2,0.1-0.4,0.1-0.7,0.2V54.6z M97.2,56h-0.3v-2h0.3V56z M98,53.6v3
					c0,0.2-0.1,0.3-0.2,0.3c-0.1,0-0.3,0.1-0.7,0.1c0-0.1-0.1-0.2-0.1-0.3c0.3,0,0.5,0,0.6,0c0.1,0,0.1,0,0.1-0.1v-3H98z"/>
			</g>
			<rect x="39.3" y="52.5" fill="none" stroke="#0C56AB" stroke-width="0.4112" stroke-miterlimit="10" width="17.4" height="5.5"/>
			<rect x="59.7" y="52.5" fill="none" stroke="#0C56AB" stroke-width="0.4112" stroke-miterlimit="10" width="24.5" height="5.5"/>
			<rect x="86.3" y="52.5" fill="none" stroke="#0C56AB" stroke-width="0.4112" stroke-miterlimit="10" width="12.7" height="5.5"/>
		</g>
	</g>
</g>
<g>
</g>
<g>
</g>
<g>
</g>
<g>
</g>
<g>
</g>
<g>
</g>
<g>
</g>
<g>
</g>
<g>
</g>
<g>
</g>
<g>
</g>
<g>
</g>
<g>
</g>
<g>
</g>
<g>
</g>
</svg>
