<svg xmlns="http://www.w3.org/2000/svg" xmlns:xlink="http://www.w3.org/1999/xlink" viewBox="0 0 988 296"><defs><style>.a,.b,.i{fill:none;}.b,.e,.i{stroke:#0c56ab;stroke-miterlimit:10;}.b{stroke-width:2.02px;}.c{clip-path:url(#a);}.d{fill:#0c56ab;}.e,.g{fill:#e6e7e8;}.e{stroke-width:1.52px;}.f{clip-path:url(#b);}.h{clip-path:url(#c);}.i{stroke-linecap:round;stroke-width:0.51px;}.j{fill:#fff8d9;}.k{fill:#231f20;}.l{fill:#33ade0;}.m{fill:#fff;}.n{fill:#9c8fc4;}</style><clipPath id="a"><rect class="a" width="988" height="296"/></clipPath><clipPath id="b"><polygon class="a" points="206.93 152.64 131.82 199.63 104.84 156.35 179.95 109.37 206.93 152.64"/></clipPath><clipPath id="c"><rect class="b" x="111.49" y="126.9" width="87.85" height="50.61" transform="translate(-15.41 17.53) rotate(-6.15)"/></clipPath></defs><title>q4</title><g class="c"><ellipse class="d" cx="153.59" cy="156.42" rx="74.73" ry="74.85"/><polygon class="e" points="213.72 154.17 130.42 206.28 98.13 154.5 181.43 102.38 213.72 154.17"/><g class="f"><polygon class="d" points="206.97 152.47 131.87 199.46 104.88 156.19 179.99 109.2 206.97 152.47"/><ellipse class="g" cx="155.93" cy="154.33" rx="17.08" ry="17.11"/><ellipse class="g" cx="129.53" cy="172.36" rx="3.46" ry="3.47"/><ellipse class="g" cx="183.68" cy="138.48" rx="3.46" ry="3.47"/><path class="d" d="M148.89,142.47a1.63,1.63,0,0,1,2.27.53l.24.38a13,13,0,0,1,4.7-1.15,2.14,2.14,0,0,1,1.28,4,2.46,2.46,0,0,1-1.1.35,11.53,11.53,0,0,0-2.8.48l2.55,4.1c4.79-1.46,7.58-.88,9.46,2.14s.78,6.41-2.38,8.91l.89,1.43a1.65,1.65,0,0,1-2.8,1.75l-.9-1.46a15.89,15.89,0,0,1-6.48,1.43,2.16,2.16,0,0,1-1.93-1,2.13,2.13,0,0,1,.72-3,2.33,2.33,0,0,1,1.27-.31,12.18,12.18,0,0,0,4.38-.64L155.59,156c-4.53,1.37-7.37,1.09-9.37-2.12-1.85-3-.83-6.38,2.34-8.85l-.2-.32A1.65,1.65,0,0,1,148.89,142.47Zm4.18,9.53-2.27-3.64c-1.18,1-1.34,2-.8,2.86S151.25,152.38,153.07,152Zm5.47,3.13,2.34,3.75c1.14-1,1.42-2,.81-2.95S160.31,154.73,158.54,155.13Z"/><ellipse class="g" cx="104.88" cy="156.19" rx="6.22" ry="6.24"/><ellipse class="g" cx="179.83" cy="109.3" rx="6.22" ry="6.24"/><ellipse class="g" cx="131.88" cy="199.49" rx="6.22" ry="6.24"/><ellipse class="g" cx="206.82" cy="152.6" rx="6.22" ry="6.24"/></g><path class="d" d="M209.5,178.83l-101,10.89-6.92-64.4,101.05-10.89Zm-97.32,6.26,92.69-10-6-56-92.69,10Z"/><rect class="g" x="106.8" y="121.79" width="97.43" height="60.57" transform="translate(-15.4 17.54) rotate(-6.15)"/><g class="h"><rect class="g" x="111.59" y="126.77" width="87.85" height="50.61" transform="translate(-15.4 17.54) rotate(-6.15)"/><ellipse class="d" cx="109.14" cy="131.62" rx="6.18" ry="6.19"/><ellipse class="d" cx="196.3" cy="122.23" rx="6.18" ry="6.19"/><ellipse class="d" cx="114.55" cy="181.97" rx="6.18" ry="6.19"/><ellipse class="d" cx="201.71" cy="172.58" rx="6.18" ry="6.19"/></g><rect class="b" x="111.49" y="126.9" width="87.85" height="50.61" transform="translate(-15.41 17.53) rotate(-6.15)"/><circle class="d" cx="191.55" cy="149.47" r="2.32"/><circle class="d" cx="119.76" cy="157.23" r="2.32"/><polygon class="d" points="198.33 192.85 194.89 190.12 190.88 192.28 192.03 176.95 199.5 177.51 198.33 192.85"/><polygon class="d" points="202.58 192.39 205.36 188.98 209.75 190.24 205.34 175.51 198.18 177.66 202.58 192.39"/><ellipse class="d" cx="197.92" cy="171.69" rx="8.93" ry="8.94"/><polygon class="g" points="197.57 167.03 199.49 164.3 200.16 167.57 203.31 166.5 201.93 169.53 205.11 170.52 202.21 172.16 204.21 174.84 200.9 174.46 200.94 177.8 198.49 175.54 196.57 178.27 195.9 175 192.75 176.07 194.13 173.04 190.95 172.05 193.85 170.41 191.85 167.74 195.16 168.11 195.11 164.78 197.57 167.03"/><line class="i" x1="124.96" y1="134.5" x2="181.63" y2="128.38"/><line class="i" x1="125.43" y1="138.91" x2="182.1" y2="132.79"/><line class="i" x1="125.91" y1="143.32" x2="182.58" y2="137.2"/><line class="i" x1="138.14" y1="146.46" x2="183.05" y2="141.61"/><line class="i" x1="138.61" y1="150.87" x2="183.53" y2="146.02"/><line class="i" x1="139.09" y1="155.28" x2="184" y2="150.43"/><line class="i" x1="139.56" y1="159.7" x2="184.48" y2="154.84"/><line class="i" x1="140.04" y1="164.11" x2="184.95" y2="159.25"/><line class="i" x1="128.76" y1="169.79" x2="185.43" y2="163.66"/><line class="i" x1="129.24" y1="174.2" x2="185.91" y2="168.07"/><polygon class="d" points="40.7 177.13 80.08 159.4 80.2 164.23 66.71 173.16 40.7 177.13"/><polygon class="j" points="62.5 168.9 62.5 172.56 57.02 184.73 54.06 181.42 51.2 183.96 41.5 176.17 52.97 167.01 62.5 168.9"/><path class="d" d="M48.56,170.27a6.21,6.21,0,0,1,6.86-4.93c4.47.51,7.25,3.29,9.06,2.95,0,0-1.81,1.81-5.49.85S51.28,170.5,51.4,171Z"/><polygon class="g" points="61.08 175.41 60.83 179.46 58.95 178.82 61.08 175.41"/><path class="j" d="M51.5,171.18a1.06,1.06,0,0,0-1.7-.75c-.6.54-1.06,2.06-.43,2.28a1.38,1.38,0,0,0,1.07,0"/><path class="d" d="M82.46,165.37s-31.13,8.54-42.67,11.06c-25.55,9.06-29.11,43.74-19.58,61.34L56.85,221.4c-7.67-1-20-25.4-4.26-36.72C67.53,177,82.46,170.9,82.46,170.9Z"/><path class="d" d="M20.21,237.77s2.89,6.23,13.38,7c8.63.6,21.36-2.12,27.87-3.08a5.26,5.26,0,0,1,5.94,6.16L61.08,275l4.43-1.39,8.84-34.23A8.64,8.64,0,0,0,69,229.23l-16.4-6.13S17.87,238.91,20.21,237.77Z"/><path class="d" d="M43.93,244.23c-.2,2.42-5,32.08-12.75,42.74l-5,1.41s13.45-38.92,4.92-45.86l11.34-3.62Z"/><path class="k" d="M61.25,275.57l-.44,3.24,9.08-4.11s-2.45-.22-3.53-.22-1.15.51-1.15.51Z"/><path class="k" d="M26.14,289.18l-.34,1.64.36.15.39,1.88,3.35.85,4.4-2.08a1.83,1.83,0,0,0-1.67-.79c-1.2.05-1.49-.19-1.49-.19s-.64,1.09-2.84.52c-1-.25-1.78-1.62-1.56-2.06Z"/><path class="k" d="M51,186.84s4.49,12.58,8.52,13.63l.06,5S56,204.18,53.61,203c-2-4.37-3.71-15.06-3.38-15.64Z"/><polygon class="j" points="82.46 170.9 84.4 169.99 89.62 158.24 85.13 158.89 82.46 165.37 82.46 170.9"/><polyline class="j" points="85.13 158.89 86.6 156 90.49 155.68 89.62 158.24"/><polygon class="j" points="90.49 155.68 91.32 153.36 90.9 153.34 89.21 155.81 90.49 155.68"/><polygon class="j" points="87.92 155.86 90.12 151.91 92.46 149.76 92.64 150.58 90.63 152.88 89.21 155.81 87.92 155.86"/><polygon class="j" points="87.28 155.91 89.07 151.55 91.5 149.8 91.59 150.81 90.12 151.91 88.34 155.86 87.28 155.91"/><polygon class="j" points="86.6 156 88.47 151.46 90.54 150.49 90.54 151.09 88.93 152.19 87.57 155.96 86.6 156"/><polygon class="j" points="90.9 153.34 92.19 152.04 92.47 152.19 91.32 153.36 90.96 153.52 90.9 153.34"/><path class="l" d="M41.5,176.17c3.39-1,6.78-1.95,10.19-2.88s6.82-1.83,10.22-2.76l10.25-2.67c3.42-.86,6.84-1.75,10.28-2.56l.09,0v.09l-.09,3.32-.06-3.32.09.07c-3.39,1-6.79,1.9-10.2,2.84L62,171c-3.42.88-6.83,1.79-10.26,2.64S44.93,175.35,41.5,176.17Z"/><path class="l" d="M20.21,237.77a14.56,14.56,0,0,0,7.73,5.66,21.3,21.3,0,0,0,4.74,1,31.67,31.67,0,0,0,4.87,0c3.27-.16,6.52-.49,9.78-.83s6.5-.74,9.74-1.24c-3.2.69-6.44,1.2-9.7,1.63s-6.51.74-9.79.94a31.48,31.48,0,0,1-4.95,0,20,20,0,0,1-4.82-1.11,16.32,16.32,0,0,1-4.35-2.34A12.43,12.43,0,0,1,20.21,237.77Z"/><ellipse class="m" cx="918.52" cy="58.6" rx="16.34" ry="16.37"/><path class="d" d="M906.47,62.39V61.7l.88-.86c2.11-2,3.06-3.08,3.07-4.33a1.47,1.47,0,0,0-1.63-1.62,2.82,2.82,0,0,0-1.76.71l-.35-.79A3.57,3.57,0,0,1,909,54a2.33,2.33,0,0,1,2.53,2.41c0,1.53-1.1,2.77-2.84,4.45l-.66.61v0h3.71v.93Z"/><path class="d" d="M918.49,58.16c0,2.81-1,4.37-2.88,4.37-1.61,0-2.7-1.52-2.73-4.26s1.2-4.31,2.87-4.31S918.49,55.52,918.49,58.16Zm-4.49.12c0,2.16.66,3.38,1.68,3.38s1.69-1.34,1.69-3.45-.52-3.38-1.68-3.38C914.71,54.83,914,56,914,58.28Z"/><path class="d" d="M922,55.15h0l-1.44.78-.21-.86,1.8-1h1v8.29H922Z"/><path class="d" d="M925.94,60.28a2.35,2.35,0,0,1,1.64-2.21v0a2,2,0,0,1-1.31-1.86A2.32,2.32,0,0,1,928.81,54a2.15,2.15,0,0,1,2.41,2,2.12,2.12,0,0,1-1.36,1.94v0a2.3,2.3,0,0,1,1.66,2.14,2.55,2.55,0,0,1-2.81,2.41C927,62.53,925.94,61.49,925.94,60.28Zm4.45-.05c0-1-.7-1.49-1.82-1.81a1.81,1.81,0,0,0-1.49,1.71,1.54,1.54,0,0,0,1.66,1.58A1.49,1.49,0,0,0,930.39,60.23Zm-3.08-4.14c0,.83.63,1.28,1.58,1.53a1.63,1.63,0,0,0,1.26-1.5,1.29,1.29,0,0,0-1.4-1.35A1.32,1.32,0,0,0,927.31,56.09Z"/><polygon class="m" points="898.33 14.58 938.7 14.58 918.86 1.83 898.33 14.58"/><rect class="m" x="901.41" y="15.44" width="3.49" height="16.22"/><rect class="m" x="909.03" y="15.44" width="3.49" height="16.22"/><rect class="m" x="925.31" y="15.44" width="3.49" height="16.22"/><rect class="m" x="932.93" y="15.44" width="3.49" height="16.22"/><polygon class="m" points="938.09 34.36 938.09 33.31 898.95 33.31 898.95 34.36 897.28 34.36 897.28 37.13 939.75 37.13 939.75 34.36 938.09 34.36"/><path class="m" d="M919.23,16.36a.82.82,0,0,1,.82.82v.23a6.45,6.45,0,0,1,2.28.75,1.08,1.08,0,0,1,.57.95,1.05,1.05,0,0,1-1.07,1.06,1.18,1.18,0,0,1-.55-.14,6.16,6.16,0,0,0-1.31-.54v2.4c2.39.65,3.42,1.63,3.42,3.39s-1.36,2.91-3.34,3.13v.84a.82.82,0,0,1-1.64,0v-.86a7.83,7.83,0,0,1-3.11-1.1,1.07,1.07,0,0,1-.53-.95,1.05,1.05,0,0,1,1.08-1.07,1.2,1.2,0,0,1,.62.2,6,6,0,0,0,2,.89V23.85c-2.27-.62-3.39-1.49-3.39-3.37s1.32-2.9,3.31-3.11v-.19A.82.82,0,0,1,919.23,16.36Zm-.74,5.12V19.35c-.76.11-1.09.49-1.09,1S917.62,21.16,918.49,21.48ZM920,24.24v2.2c.74-.11,1.12-.46,1.12-1S920.82,24.54,920,24.24Z"/><polygon class="m" points="914.37 72.97 922.67 72.97 918.55 79.39 914.37 72.97"/><polygon class="n" points="22.01 296 484.87 128.07 627.73 139.27 712.72 98.69 824.4 147.45 990 67.66 990 296 22.01 296"/></g></svg>