<svg xmlns="http://www.w3.org/2000/svg" xmlns:xlink="http://www.w3.org/1999/xlink" viewBox="0 0 1450 800"><defs><style>.a,.b,.f,.j,.k,.m,.n,.r{fill:none;}.b,.r{stroke:#fff;}.b,.f,.j,.k,.m,.n,.r{stroke-miterlimit:10;}.b,.f,.k{stroke-width:0.81px;}.c{fill:#e6e7e8;}.d{fill:#1b75bc;}.e{fill:#6d6e71;}.f{stroke:#bcbec0;}.g{fill:#939598;}.h{fill:#bcbec0;}.i{clip-path:url(#a);}.j,.k{stroke:#f2f2f2;}.j{stroke-width:0.87px;}.l{fill:#f7a823;}.m,.n{stroke:#e6e7e8;}.m{stroke-width:0.55px;}.n{stroke-width:0.69px;}.o{fill:#231f20;}.p{fill:#f2f2f2;}.q{fill:#fff;}.r{stroke-width:1.02px;}</style><clipPath id="a"><polygon class="a" points="933.87 362.01 928.52 338.05 936.46 327.76 943.4 359.6 933.87 362.01"/></clipPath></defs><title>r1</title><polyline class="b" points="1133.07 396.66 825.45 396.66 825.45 659.56"/><path class="c" d="M914.59,237.58l-26.75-.91,2,65.9,40.47-10.42S914.35,236.41,914.59,237.58Z"/><polygon class="d" points="893.54 255.56 896.54 273.31 888.31 272.32 893.54 255.56"/><path class="e" d="M887.84,236.67l-7.09-3.75s23.18-8.47,29.85-5c8,4.17,7.86,22.85,7.86,22.85s-1.1-5.1-3.54-4.89c-1.33.12-1.79,2.84-1.79,2.84l-5.79-10.9Z"/><ellipse class="e" cx="901.86" cy="251.92" rx="2.69" ry="1.86" transform="translate(598.14 1137.68) rotate(-86.68)"/><ellipse class="e" cx="890.55" cy="253.28" rx="2.69" ry="1.86" transform="translate(586.13 1127.67) rotate(-86.68)"/><polygon class="d" points="929.97 288.98 963.16 375.99 880.02 381.53 888.1 296.59 929.97 288.98"/><path class="d" d="M888.1,296.59c-26.51.81-64.61-10.94-67.38-56.39l-10.53-.55c-1.62,28.2,8,54.61,22.06,66.65,19.4,16.63,55,22.67,55,22.67Z"/><path class="d" d="M930,289c23-.67,50,24.66,50.34,42.33.48,25.51-28.67,25.33-28.67,25.33l-3.45-11.13s20.12-5.53,19.12-13.87c-1.19-9.84-13-17.33-30.34-14.33Z"/><polygon class="c" points="810.19 239.65 809.63 215.82 821.27 224.68 820.72 240.2 810.19 239.65"/><line class="f" x1="932.85" y1="327.43" x2="931.7" y2="321.84"/><polyline class="g" points="931.48 332.28 930.64 329.39 934.22 324.92 934.97 328.51"/><polygon class="h" points="934.22 324.92 939.3 325.77 939.43 327.41 935 328.85 934.22 324.92"/><polygon class="g" points="933.87 362.01 928.15 336.49 936.08 326.2 943.4 359.6 933.87 362.01"/><polygon class="h" points="936.08 326.2 942.48 327.58 948.01 352.9 942.61 356.92 936.08 326.2"/><g class="i"><line class="j" x1="934.16" y1="325" x2="940.61" y2="355.6"/><line class="j" x1="933.03" y1="326.41" x2="939.48" y2="357.01"/><line class="j" x1="931.91" y1="327.83" x2="938.36" y2="358.43"/><line class="j" x1="930.78" y1="329.25" x2="937.23" y2="359.84"/><line class="j" x1="929.66" y1="330.66" x2="936.11" y2="361.26"/><line class="j" x1="928.53" y1="332.08" x2="934.98" y2="362.68"/></g><line class="k" x1="937.23" y1="328.1" x2="937.5" y2="329.48"/><line class="k" x1="938.74" y1="328.24" x2="939.01" y2="329.61"/><line class="k" x1="940.25" y1="328.37" x2="940.52" y2="329.75"/><line class="k" x1="941.76" y1="328.51" x2="942.03" y2="329.88"/><line class="k" x1="937.78" y1="330.42" x2="938.05" y2="331.79"/><line class="k" x1="939.29" y1="330.56" x2="939.56" y2="331.93"/><line class="k" x1="940.8" y1="330.69" x2="941.07" y2="332.06"/><line class="k" x1="942.31" y1="330.83" x2="942.58" y2="332.2"/><line class="k" x1="938.33" y1="332.74" x2="938.6" y2="334.11"/><line class="k" x1="939.84" y1="332.87" x2="940.11" y2="334.24"/><line class="k" x1="941.35" y1="333.01" x2="941.62" y2="334.38"/><line class="k" x1="942.86" y1="333.14" x2="943.13" y2="334.51"/><line class="k" x1="938.88" y1="335.05" x2="939.15" y2="336.42"/><line class="k" x1="940.39" y1="335.19" x2="940.66" y2="336.56"/><line class="k" x1="941.91" y1="335.32" x2="942.17" y2="336.7"/><line class="k" x1="943.42" y1="335.46" x2="943.68" y2="336.83"/><line class="k" x1="939.44" y1="337.37" x2="939.7" y2="338.74"/><line class="k" x1="940.95" y1="337.5" x2="941.21" y2="338.88"/><line class="k" x1="942.46" y1="337.64" x2="942.72" y2="339.01"/><line class="k" x1="943.97" y1="337.77" x2="944.23" y2="339.15"/><line class="k" x1="939.99" y1="339.68" x2="940.25" y2="341.06"/><line class="k" x1="941.5" y1="339.82" x2="941.76" y2="341.19"/><line class="k" x1="943.01" y1="339.95" x2="943.27" y2="341.33"/><line class="k" x1="944.52" y1="340.09" x2="944.78" y2="341.46"/><line class="k" x1="940.54" y1="342" x2="940.8" y2="343.37"/><line class="k" x1="942.05" y1="342.13" x2="942.31" y2="343.51"/><line class="k" x1="943.56" y1="342.27" x2="943.82" y2="343.64"/><line class="k" x1="945.07" y1="342.4" x2="945.33" y2="343.78"/><line class="k" x1="941.09" y1="344.31" x2="941.35" y2="345.69"/><line class="k" x1="942.6" y1="344.45" x2="942.86" y2="345.82"/><line class="k" x1="944.11" y1="344.59" x2="944.38" y2="345.96"/><line class="k" x1="945.62" y1="344.72" x2="945.89" y2="346.09"/><line class="k" x1="941.64" y1="346.63" x2="941.9" y2="348"/><line class="k" x1="943.15" y1="346.77" x2="943.42" y2="348.14"/><line class="k" x1="944.66" y1="346.9" x2="944.93" y2="348.27"/><line class="k" x1="946.17" y1="347.04" x2="946.44" y2="348.41"/><line class="k" x1="942.19" y1="348.95" x2="942.46" y2="350.32"/><line class="k" x1="943.7" y1="349.08" x2="943.97" y2="350.45"/><line class="k" x1="945.21" y1="349.22" x2="945.48" y2="350.59"/><line class="k" x1="946.72" y1="349.35" x2="946.99" y2="350.72"/><line class="k" x1="942.74" y1="351.26" x2="943.01" y2="352.64"/><line class="k" x1="944.25" y1="351.4" x2="944.52" y2="352.77"/><line class="k" x1="945.76" y1="351.53" x2="946.03" y2="352.91"/><line class="k" x1="947.27" y1="351.67" x2="947.54" y2="353.04"/><line class="k" x1="943.29" y1="353.58" x2="943.56" y2="354.95"/><line class="k" x1="944.8" y1="353.71" x2="945.07" y2="355.09"/><line class="k" x1="946.31" y1="353.85" x2="946.58" y2="355.22"/><line class="k" x1="947.83" y1="353.98" x2="948.09" y2="355.36"/><polygon class="c" points="948.19 345.51 930.18 355.44 932.74 364.48 948.37 358.96 948.19 345.51"/><path class="d" d="M880,381.53c-16.63,13.86-19.95,56,7.21,83.69a75.8,75.8,0,0,1,5.74-7.6c-10.3-15.63-14.77-45.7,9.38-57.92,25.22-12.76,53.43-2.11,61.08,10.64s14,33.42,14.89,49.53l8.11,3.14s9.43-69.84-23.27-87Z"/><path class="c" d="M901.59,294.94l10.65,26.85-12.73-9,2.78-4.63s-9.49-10.88-8.8-10.88S901.59,294.94,901.59,294.94Z"/><polygon class="c" points="915.48 293.79 912.47 327.81 920.57 310.68 917.56 303.28 923.81 292.4 915.48 293.79"/><rect class="l" x="991.11" y="387.65" width="29.81" height="6.73"/><line class="m" x1="993.13" y1="387.63" x2="993.13" y2="394.24"/><line class="m" x1="995.92" y1="387.63" x2="995.92" y2="394.24"/><line class="m" x1="998.71" y1="387.63" x2="998.71" y2="394.24"/><line class="m" x1="1001.5" y1="387.63" x2="1001.5" y2="394.24"/><line class="m" x1="1004.29" y1="387.63" x2="1004.29" y2="394.24"/><line class="m" x1="1007.08" y1="387.63" x2="1007.08" y2="394.24"/><line class="m" x1="1009.87" y1="387.63" x2="1009.87" y2="394.24"/><line class="m" x1="1012.66" y1="387.63" x2="1012.66" y2="394.24"/><line class="m" x1="1015.45" y1="387.63" x2="1015.45" y2="394.24"/><line class="m" x1="1018.24" y1="387.63" x2="1018.24" y2="394.24"/><rect class="l" x="991.11" y="380.08" width="29.81" height="6.73"/><line class="m" x1="993.13" y1="380.07" x2="993.13" y2="386.67"/><line class="m" x1="995.92" y1="380.07" x2="995.92" y2="386.67"/><line class="m" x1="998.71" y1="380.07" x2="998.71" y2="386.67"/><line class="m" x1="1001.5" y1="380.07" x2="1001.5" y2="386.67"/><line class="m" x1="1004.29" y1="380.07" x2="1004.29" y2="386.67"/><line class="m" x1="1007.08" y1="380.07" x2="1007.08" y2="386.67"/><line class="m" x1="1009.87" y1="380.07" x2="1009.87" y2="386.67"/><line class="m" x1="1012.66" y1="380.07" x2="1012.66" y2="386.67"/><line class="m" x1="1015.45" y1="380.07" x2="1015.45" y2="386.67"/><line class="m" x1="1018.24" y1="380.07" x2="1018.24" y2="386.67"/><rect class="l" x="991.11" y="372.51" width="29.81" height="6.73"/><line class="m" x1="993.13" y1="372.5" x2="993.13" y2="379.1"/><line class="m" x1="995.92" y1="372.5" x2="995.92" y2="379.1"/><line class="m" x1="998.71" y1="372.5" x2="998.71" y2="379.1"/><line class="m" x1="1001.5" y1="372.5" x2="1001.5" y2="379.1"/><line class="m" x1="1004.29" y1="372.5" x2="1004.29" y2="379.1"/><line class="m" x1="1007.08" y1="372.5" x2="1007.08" y2="379.1"/><line class="m" x1="1009.87" y1="372.5" x2="1009.87" y2="379.1"/><line class="m" x1="1012.66" y1="372.5" x2="1012.66" y2="379.1"/><line class="m" x1="1015.45" y1="372.5" x2="1015.45" y2="379.1"/><line class="m" x1="1018.24" y1="372.5" x2="1018.24" y2="379.1"/><rect class="l" x="991.11" y="364.94" width="29.81" height="6.73"/><line class="m" x1="993.13" y1="364.93" x2="993.13" y2="371.53"/><line class="m" x1="995.92" y1="364.93" x2="995.92" y2="371.53"/><line class="m" x1="998.71" y1="364.93" x2="998.71" y2="371.53"/><line class="m" x1="1001.5" y1="364.93" x2="1001.5" y2="371.53"/><line class="m" x1="1004.29" y1="364.93" x2="1004.29" y2="371.53"/><line class="m" x1="1007.08" y1="364.93" x2="1007.08" y2="371.53"/><line class="m" x1="1009.87" y1="364.93" x2="1009.87" y2="371.53"/><line class="m" x1="1012.66" y1="364.93" x2="1012.66" y2="371.53"/><line class="m" x1="1015.45" y1="364.93" x2="1015.45" y2="371.53"/><line class="m" x1="1018.24" y1="364.93" x2="1018.24" y2="371.53"/><rect class="l" x="991.11" y="357.37" width="29.81" height="6.73"/><line class="m" x1="993.13" y1="357.36" x2="993.13" y2="363.97"/><line class="m" x1="995.92" y1="357.36" x2="995.92" y2="363.97"/><line class="m" x1="998.71" y1="357.36" x2="998.71" y2="363.97"/><line class="m" x1="1001.5" y1="357.36" x2="1001.5" y2="363.97"/><line class="m" x1="1004.29" y1="357.36" x2="1004.29" y2="363.97"/><line class="m" x1="1007.08" y1="357.36" x2="1007.08" y2="363.97"/><line class="m" x1="1009.87" y1="357.36" x2="1009.87" y2="363.97"/><line class="m" x1="1012.66" y1="357.36" x2="1012.66" y2="363.97"/><line class="m" x1="1015.45" y1="357.36" x2="1015.45" y2="363.97"/><line class="m" x1="1018.24" y1="357.36" x2="1018.24" y2="363.97"/><rect class="l" x="991.11" y="349.81" width="29.81" height="6.73"/><line class="m" x1="993.13" y1="349.79" x2="993.13" y2="356.4"/><line class="m" x1="995.92" y1="349.79" x2="995.92" y2="356.4"/><line class="m" x1="998.71" y1="349.79" x2="998.71" y2="356.4"/><line class="m" x1="1001.5" y1="349.79" x2="1001.5" y2="356.4"/><line class="m" x1="1004.29" y1="349.79" x2="1004.29" y2="356.4"/><line class="m" x1="1007.08" y1="349.79" x2="1007.08" y2="356.4"/><line class="m" x1="1009.87" y1="349.79" x2="1009.87" y2="356.4"/><line class="m" x1="1012.66" y1="349.79" x2="1012.66" y2="356.4"/><line class="m" x1="1015.45" y1="349.79" x2="1015.45" y2="356.4"/><line class="m" x1="1018.24" y1="349.79" x2="1018.24" y2="356.4"/><rect class="l" x="567.02" y="652.76" width="21.91" height="4.95"/><line class="n" x1="568.51" y1="652.75" x2="568.51" y2="657.6"/><line class="n" x1="570.56" y1="652.75" x2="570.56" y2="657.6"/><line class="n" x1="572.61" y1="652.75" x2="572.61" y2="657.6"/><line class="n" x1="574.67" y1="652.75" x2="574.67" y2="657.6"/><line class="n" x1="576.72" y1="652.75" x2="576.72" y2="657.6"/><line class="n" x1="578.77" y1="652.75" x2="578.77" y2="657.6"/><line class="n" x1="580.82" y1="652.75" x2="580.82" y2="657.6"/><line class="n" x1="582.87" y1="652.75" x2="582.87" y2="657.6"/><line class="n" x1="584.92" y1="652.75" x2="584.92" y2="657.6"/><line class="n" x1="586.97" y1="652.75" x2="586.97" y2="657.6"/><rect class="l" x="567.02" y="647.19" width="21.91" height="4.95"/><line class="n" x1="568.51" y1="647.18" x2="568.51" y2="652.04"/><line class="n" x1="570.56" y1="647.18" x2="570.56" y2="652.04"/><line class="n" x1="572.61" y1="647.18" x2="572.61" y2="652.04"/><line class="n" x1="574.67" y1="647.18" x2="574.67" y2="652.04"/><line class="n" x1="576.72" y1="647.18" x2="576.72" y2="652.04"/><line class="n" x1="578.77" y1="647.18" x2="578.77" y2="652.04"/><line class="n" x1="580.82" y1="647.18" x2="580.82" y2="652.04"/><line class="n" x1="582.87" y1="647.18" x2="582.87" y2="652.04"/><line class="n" x1="584.92" y1="647.18" x2="584.92" y2="652.04"/><line class="n" x1="586.97" y1="647.18" x2="586.97" y2="652.04"/><rect class="l" x="567.02" y="641.63" width="21.91" height="4.95"/><line class="n" x1="568.51" y1="641.62" x2="568.51" y2="646.47"/><line class="n" x1="570.56" y1="641.62" x2="570.56" y2="646.47"/><line class="n" x1="572.61" y1="641.62" x2="572.61" y2="646.47"/><line class="n" x1="574.67" y1="641.62" x2="574.67" y2="646.47"/><line class="n" x1="576.72" y1="641.62" x2="576.72" y2="646.47"/><line class="n" x1="578.77" y1="641.62" x2="578.77" y2="646.47"/><line class="n" x1="580.82" y1="641.62" x2="580.82" y2="646.47"/><line class="n" x1="582.87" y1="641.62" x2="582.87" y2="646.47"/><line class="n" x1="584.92" y1="641.62" x2="584.92" y2="646.47"/><line class="n" x1="586.97" y1="641.62" x2="586.97" y2="646.47"/><rect class="l" x="567.02" y="636.07" width="21.91" height="4.95"/><line class="n" x1="568.51" y1="636.06" x2="568.51" y2="640.91"/><line class="n" x1="570.56" y1="636.06" x2="570.56" y2="640.91"/><line class="n" x1="572.61" y1="636.06" x2="572.61" y2="640.91"/><line class="n" x1="574.67" y1="636.06" x2="574.67" y2="640.91"/><line class="n" x1="576.72" y1="636.06" x2="576.72" y2="640.91"/><line class="n" x1="578.77" y1="636.06" x2="578.77" y2="640.91"/><line class="n" x1="580.82" y1="636.06" x2="580.82" y2="640.91"/><line class="n" x1="582.87" y1="636.06" x2="582.87" y2="640.91"/><line class="n" x1="584.92" y1="636.06" x2="584.92" y2="640.91"/><line class="n" x1="586.97" y1="636.06" x2="586.97" y2="640.91"/><rect class="l" x="567.02" y="630.5" width="21.91" height="4.95"/><line class="n" x1="568.51" y1="630.49" x2="568.51" y2="635.35"/><line class="n" x1="570.56" y1="630.49" x2="570.56" y2="635.35"/><line class="n" x1="572.61" y1="630.49" x2="572.61" y2="635.35"/><line class="n" x1="574.67" y1="630.49" x2="574.67" y2="635.35"/><line class="n" x1="576.72" y1="630.49" x2="576.72" y2="635.35"/><line class="n" x1="578.77" y1="630.49" x2="578.77" y2="635.35"/><line class="n" x1="580.82" y1="630.49" x2="580.82" y2="635.35"/><line class="n" x1="582.87" y1="630.49" x2="582.87" y2="635.35"/><line class="n" x1="584.92" y1="630.49" x2="584.92" y2="635.35"/><line class="n" x1="586.97" y1="630.49" x2="586.97" y2="635.35"/><rect class="l" x="567.02" y="624.94" width="21.91" height="4.95"/><line class="n" x1="568.51" y1="624.93" x2="568.51" y2="629.78"/><line class="n" x1="570.56" y1="624.93" x2="570.56" y2="629.78"/><line class="n" x1="572.61" y1="624.93" x2="572.61" y2="629.78"/><line class="n" x1="574.67" y1="624.93" x2="574.67" y2="629.78"/><line class="n" x1="576.72" y1="624.93" x2="576.72" y2="629.78"/><line class="n" x1="578.77" y1="624.93" x2="578.77" y2="629.78"/><line class="n" x1="580.82" y1="624.93" x2="580.82" y2="629.78"/><line class="n" x1="582.87" y1="624.93" x2="582.87" y2="629.78"/><line class="n" x1="584.92" y1="624.93" x2="584.92" y2="629.78"/><line class="n" x1="586.97" y1="624.93" x2="586.97" y2="629.78"/><rect class="l" x="488.46" y="652.76" width="21.91" height="4.95"/><line class="n" x1="489.94" y1="652.75" x2="489.94" y2="657.6"/><line class="n" x1="491.99" y1="652.75" x2="491.99" y2="657.6"/><line class="n" x1="494.05" y1="652.75" x2="494.05" y2="657.6"/><line class="n" x1="496.1" y1="652.75" x2="496.1" y2="657.6"/><line class="n" x1="498.15" y1="652.75" x2="498.15" y2="657.6"/><line class="n" x1="500.2" y1="652.75" x2="500.2" y2="657.6"/><line class="n" x1="502.25" y1="652.75" x2="502.25" y2="657.6"/><line class="n" x1="504.3" y1="652.75" x2="504.3" y2="657.6"/><line class="n" x1="506.35" y1="652.75" x2="506.35" y2="657.6"/><line class="n" x1="508.4" y1="652.75" x2="508.4" y2="657.6"/><rect class="l" x="488.46" y="647.19" width="21.91" height="4.95"/><line class="n" x1="489.94" y1="647.18" x2="489.94" y2="652.04"/><line class="n" x1="491.99" y1="647.18" x2="491.99" y2="652.04"/><line class="n" x1="494.05" y1="647.18" x2="494.05" y2="652.04"/><line class="n" x1="496.1" y1="647.18" x2="496.1" y2="652.04"/><line class="n" x1="498.15" y1="647.18" x2="498.15" y2="652.04"/><line class="n" x1="500.2" y1="647.18" x2="500.2" y2="652.04"/><line class="n" x1="502.25" y1="647.18" x2="502.25" y2="652.04"/><line class="n" x1="504.3" y1="647.18" x2="504.3" y2="652.04"/><line class="n" x1="506.35" y1="647.18" x2="506.35" y2="652.04"/><line class="n" x1="508.4" y1="647.18" x2="508.4" y2="652.04"/><rect class="l" x="488.46" y="641.63" width="21.91" height="4.95"/><line class="n" x1="489.94" y1="641.62" x2="489.94" y2="646.47"/><line class="n" x1="491.99" y1="641.62" x2="491.99" y2="646.47"/><line class="n" x1="494.05" y1="641.62" x2="494.05" y2="646.47"/><line class="n" x1="496.1" y1="641.62" x2="496.1" y2="646.47"/><line class="n" x1="498.15" y1="641.62" x2="498.15" y2="646.47"/><line class="n" x1="500.2" y1="641.62" x2="500.2" y2="646.47"/><line class="n" x1="502.25" y1="641.62" x2="502.25" y2="646.47"/><line class="n" x1="504.3" y1="641.62" x2="504.3" y2="646.47"/><line class="n" x1="506.35" y1="641.62" x2="506.35" y2="646.47"/><line class="n" x1="508.4" y1="641.62" x2="508.4" y2="646.47"/><rect class="l" x="488.46" y="636.07" width="21.91" height="4.95"/><line class="n" x1="489.94" y1="636.06" x2="489.94" y2="640.91"/><line class="n" x1="491.99" y1="636.06" x2="491.99" y2="640.91"/><line class="n" x1="494.05" y1="636.06" x2="494.05" y2="640.91"/><line class="n" x1="496.1" y1="636.06" x2="496.1" y2="640.91"/><line class="n" x1="498.15" y1="636.06" x2="498.15" y2="640.91"/><line class="n" x1="500.2" y1="636.06" x2="500.2" y2="640.91"/><line class="n" x1="502.25" y1="636.06" x2="502.25" y2="640.91"/><line class="n" x1="504.3" y1="636.06" x2="504.3" y2="640.91"/><line class="n" x1="506.35" y1="636.06" x2="506.35" y2="640.91"/><line class="n" x1="508.4" y1="636.06" x2="508.4" y2="640.91"/><rect class="l" x="488.46" y="630.5" width="21.91" height="4.95"/><line class="n" x1="489.94" y1="630.49" x2="489.94" y2="635.35"/><line class="n" x1="491.99" y1="630.49" x2="491.99" y2="635.35"/><line class="n" x1="494.05" y1="630.49" x2="494.05" y2="635.35"/><line class="n" x1="496.1" y1="630.49" x2="496.1" y2="635.35"/><line class="n" x1="498.15" y1="630.49" x2="498.15" y2="635.35"/><line class="n" x1="500.2" y1="630.49" x2="500.2" y2="635.35"/><line class="n" x1="502.25" y1="630.49" x2="502.25" y2="635.35"/><line class="n" x1="504.3" y1="630.49" x2="504.3" y2="635.35"/><line class="n" x1="506.35" y1="630.49" x2="506.35" y2="635.35"/><line class="n" x1="508.4" y1="630.49" x2="508.4" y2="635.35"/><rect class="l" x="488.46" y="624.94" width="21.91" height="4.95"/><line class="n" x1="489.94" y1="624.93" x2="489.94" y2="629.78"/><line class="n" x1="491.99" y1="624.93" x2="491.99" y2="629.78"/><line class="n" x1="494.05" y1="624.93" x2="494.05" y2="629.78"/><line class="n" x1="496.1" y1="624.93" x2="496.1" y2="629.78"/><line class="n" x1="498.15" y1="624.93" x2="498.15" y2="629.78"/><line class="n" x1="500.2" y1="624.93" x2="500.2" y2="629.78"/><line class="n" x1="502.25" y1="624.93" x2="502.25" y2="629.78"/><line class="n" x1="504.3" y1="624.93" x2="504.3" y2="629.78"/><line class="n" x1="506.35" y1="624.93" x2="506.35" y2="629.78"/><line class="n" x1="508.4" y1="624.93" x2="508.4" y2="629.78"/><rect class="l" x="409.89" y="652.76" width="21.91" height="4.95"/><line class="n" x1="411.37" y1="652.75" x2="411.37" y2="657.6"/><line class="n" x1="413.43" y1="652.75" x2="413.43" y2="657.6"/><line class="n" x1="415.48" y1="652.75" x2="415.48" y2="657.6"/><line class="n" x1="417.53" y1="652.75" x2="417.53" y2="657.6"/><line class="n" x1="419.58" y1="652.75" x2="419.58" y2="657.6"/><line class="n" x1="421.63" y1="652.75" x2="421.63" y2="657.6"/><line class="n" x1="423.68" y1="652.75" x2="423.68" y2="657.6"/><line class="n" x1="425.73" y1="652.75" x2="425.73" y2="657.6"/><line class="n" x1="427.78" y1="652.75" x2="427.78" y2="657.6"/><line class="n" x1="429.83" y1="652.75" x2="429.83" y2="657.6"/><rect class="l" x="409.89" y="647.19" width="21.91" height="4.95"/><line class="n" x1="411.37" y1="647.18" x2="411.37" y2="652.04"/><line class="n" x1="413.43" y1="647.18" x2="413.43" y2="652.04"/><line class="n" x1="415.48" y1="647.18" x2="415.48" y2="652.04"/><line class="n" x1="417.53" y1="647.18" x2="417.53" y2="652.04"/><line class="n" x1="419.58" y1="647.18" x2="419.58" y2="652.04"/><line class="n" x1="421.63" y1="647.18" x2="421.63" y2="652.04"/><line class="n" x1="423.68" y1="647.18" x2="423.68" y2="652.04"/><line class="n" x1="425.73" y1="647.18" x2="425.73" y2="652.04"/><line class="n" x1="427.78" y1="647.18" x2="427.78" y2="652.04"/><line class="n" x1="429.83" y1="647.18" x2="429.83" y2="652.04"/><rect class="l" x="409.89" y="641.63" width="21.91" height="4.95"/><line class="n" x1="411.37" y1="641.62" x2="411.37" y2="646.47"/><line class="n" x1="413.43" y1="641.62" x2="413.43" y2="646.47"/><line class="n" x1="415.48" y1="641.62" x2="415.48" y2="646.47"/><line class="n" x1="417.53" y1="641.62" x2="417.53" y2="646.47"/><line class="n" x1="419.58" y1="641.62" x2="419.58" y2="646.47"/><line class="n" x1="421.63" y1="641.62" x2="421.63" y2="646.47"/><line class="n" x1="423.68" y1="641.62" x2="423.68" y2="646.47"/><line class="n" x1="425.73" y1="641.62" x2="425.73" y2="646.47"/><line class="n" x1="427.78" y1="641.62" x2="427.78" y2="646.47"/><line class="n" x1="429.83" y1="641.62" x2="429.83" y2="646.47"/><rect class="l" x="409.89" y="636.07" width="21.91" height="4.95"/><line class="n" x1="411.37" y1="636.06" x2="411.37" y2="640.91"/><line class="n" x1="413.43" y1="636.06" x2="413.43" y2="640.91"/><line class="n" x1="415.48" y1="636.06" x2="415.48" y2="640.91"/><line class="n" x1="417.53" y1="636.06" x2="417.53" y2="640.91"/><line class="n" x1="419.58" y1="636.06" x2="419.58" y2="640.91"/><line class="n" x1="421.63" y1="636.06" x2="421.63" y2="640.91"/><line class="n" x1="423.68" y1="636.06" x2="423.68" y2="640.91"/><line class="n" x1="425.73" y1="636.06" x2="425.73" y2="640.91"/><line class="n" x1="427.78" y1="636.06" x2="427.78" y2="640.91"/><line class="n" x1="429.83" y1="636.06" x2="429.83" y2="640.91"/><rect class="l" x="409.89" y="630.5" width="21.91" height="4.95"/><line class="n" x1="411.37" y1="630.49" x2="411.37" y2="635.35"/><line class="n" x1="413.43" y1="630.49" x2="413.43" y2="635.35"/><line class="n" x1="415.48" y1="630.49" x2="415.48" y2="635.35"/><line class="n" x1="417.53" y1="630.49" x2="417.53" y2="635.35"/><line class="n" x1="419.58" y1="630.49" x2="419.58" y2="635.35"/><line class="n" x1="421.63" y1="630.49" x2="421.63" y2="635.35"/><line class="n" x1="423.68" y1="630.49" x2="423.68" y2="635.35"/><line class="n" x1="425.73" y1="630.49" x2="425.73" y2="635.35"/><line class="n" x1="427.78" y1="630.49" x2="427.78" y2="635.35"/><line class="n" x1="429.83" y1="630.49" x2="429.83" y2="635.35"/><rect class="l" x="409.89" y="624.94" width="21.91" height="4.95"/><line class="n" x1="411.37" y1="624.93" x2="411.37" y2="629.78"/><line class="n" x1="413.43" y1="624.93" x2="413.43" y2="629.78"/><line class="n" x1="415.48" y1="624.93" x2="415.48" y2="629.78"/><line class="n" x1="417.53" y1="624.93" x2="417.53" y2="629.78"/><line class="n" x1="419.58" y1="624.93" x2="419.58" y2="629.78"/><line class="n" x1="421.63" y1="624.93" x2="421.63" y2="629.78"/><line class="n" x1="423.68" y1="624.93" x2="423.68" y2="629.78"/><line class="n" x1="425.73" y1="624.93" x2="425.73" y2="629.78"/><line class="n" x1="427.78" y1="624.93" x2="427.78" y2="629.78"/><line class="n" x1="429.83" y1="624.93" x2="429.83" y2="629.78"/><rect class="l" x="1024.55" y="387.65" width="29.81" height="6.73"/><line class="m" x1="1026.58" y1="387.63" x2="1026.58" y2="394.24"/><line class="m" x1="1029.37" y1="387.63" x2="1029.37" y2="394.24"/><line class="m" x1="1032.16" y1="387.63" x2="1032.16" y2="394.24"/><line class="m" x1="1034.95" y1="387.63" x2="1034.95" y2="394.24"/><line class="m" x1="1037.74" y1="387.63" x2="1037.74" y2="394.24"/><line class="m" x1="1040.53" y1="387.63" x2="1040.53" y2="394.24"/><line class="m" x1="1043.32" y1="387.63" x2="1043.32" y2="394.24"/><line class="m" x1="1046.11" y1="387.63" x2="1046.11" y2="394.24"/><line class="m" x1="1048.9" y1="387.63" x2="1048.9" y2="394.24"/><line class="m" x1="1051.69" y1="387.63" x2="1051.69" y2="394.24"/><rect class="l" x="1024.55" y="380.08" width="29.81" height="6.73"/><line class="m" x1="1026.58" y1="380.07" x2="1026.58" y2="386.67"/><line class="m" x1="1029.37" y1="380.07" x2="1029.37" y2="386.67"/><line class="m" x1="1032.16" y1="380.07" x2="1032.16" y2="386.67"/><line class="m" x1="1034.95" y1="380.07" x2="1034.95" y2="386.67"/><line class="m" x1="1037.74" y1="380.07" x2="1037.74" y2="386.67"/><line class="m" x1="1040.53" y1="380.07" x2="1040.53" y2="386.67"/><line class="m" x1="1043.32" y1="380.07" x2="1043.32" y2="386.67"/><line class="m" x1="1046.11" y1="380.07" x2="1046.11" y2="386.67"/><line class="m" x1="1048.9" y1="380.07" x2="1048.9" y2="386.67"/><line class="m" x1="1051.69" y1="380.07" x2="1051.69" y2="386.67"/><rect class="l" x="1024.55" y="372.51" width="29.81" height="6.73"/><line class="m" x1="1026.58" y1="372.5" x2="1026.58" y2="379.1"/><line class="m" x1="1029.37" y1="372.5" x2="1029.37" y2="379.1"/><line class="m" x1="1032.16" y1="372.5" x2="1032.16" y2="379.1"/><line class="m" x1="1034.95" y1="372.5" x2="1034.95" y2="379.1"/><line class="m" x1="1037.74" y1="372.5" x2="1037.74" y2="379.1"/><line class="m" x1="1040.53" y1="372.5" x2="1040.53" y2="379.1"/><line class="m" x1="1043.32" y1="372.5" x2="1043.32" y2="379.1"/><line class="m" x1="1046.11" y1="372.5" x2="1046.11" y2="379.1"/><line class="m" x1="1048.9" y1="372.5" x2="1048.9" y2="379.1"/><line class="m" x1="1051.69" y1="372.5" x2="1051.69" y2="379.1"/><rect class="l" x="1024.55" y="364.94" width="29.81" height="6.73"/><line class="m" x1="1026.58" y1="364.93" x2="1026.58" y2="371.53"/><line class="m" x1="1029.37" y1="364.93" x2="1029.37" y2="371.53"/><line class="m" x1="1032.16" y1="364.93" x2="1032.16" y2="371.53"/><line class="m" x1="1034.95" y1="364.93" x2="1034.95" y2="371.53"/><line class="m" x1="1037.74" y1="364.93" x2="1037.74" y2="371.53"/><line class="m" x1="1040.53" y1="364.93" x2="1040.53" y2="371.53"/><line class="m" x1="1043.32" y1="364.93" x2="1043.32" y2="371.53"/><line class="m" x1="1046.11" y1="364.93" x2="1046.11" y2="371.53"/><line class="m" x1="1048.9" y1="364.93" x2="1048.9" y2="371.53"/><line class="m" x1="1051.69" y1="364.93" x2="1051.69" y2="371.53"/><rect class="l" x="1024.55" y="357.37" width="29.81" height="6.73"/><line class="m" x1="1026.58" y1="357.36" x2="1026.58" y2="363.97"/><line class="m" x1="1029.37" y1="357.36" x2="1029.37" y2="363.97"/><line class="m" x1="1032.16" y1="357.36" x2="1032.16" y2="363.97"/><line class="m" x1="1034.95" y1="357.36" x2="1034.95" y2="363.97"/><line class="m" x1="1037.74" y1="357.36" x2="1037.74" y2="363.97"/><line class="m" x1="1040.53" y1="357.36" x2="1040.53" y2="363.97"/><line class="m" x1="1043.32" y1="357.36" x2="1043.32" y2="363.97"/><line class="m" x1="1046.11" y1="357.36" x2="1046.11" y2="363.97"/><line class="m" x1="1048.9" y1="357.36" x2="1048.9" y2="363.97"/><line class="m" x1="1051.69" y1="357.36" x2="1051.69" y2="363.97"/><rect class="l" x="1024.55" y="349.81" width="29.81" height="6.73"/><line class="m" x1="1026.58" y1="349.79" x2="1026.58" y2="356.4"/><line class="m" x1="1029.37" y1="349.79" x2="1029.37" y2="356.4"/><line class="m" x1="1032.16" y1="349.79" x2="1032.16" y2="356.4"/><line class="m" x1="1034.95" y1="349.79" x2="1034.95" y2="356.4"/><line class="m" x1="1037.74" y1="349.79" x2="1037.74" y2="356.4"/><line class="m" x1="1040.53" y1="349.79" x2="1040.53" y2="356.4"/><line class="m" x1="1043.32" y1="349.79" x2="1043.32" y2="356.4"/><line class="m" x1="1046.11" y1="349.79" x2="1046.11" y2="356.4"/><line class="m" x1="1048.9" y1="349.79" x2="1048.9" y2="356.4"/><line class="m" x1="1051.69" y1="349.79" x2="1051.69" y2="356.4"/><rect class="l" x="1024.55" y="341.66" width="29.81" height="6.73"/><line class="m" x1="1026.58" y1="341.65" x2="1026.58" y2="348.25"/><line class="m" x1="1029.37" y1="341.65" x2="1029.37" y2="348.25"/><line class="m" x1="1032.16" y1="341.65" x2="1032.16" y2="348.25"/><line class="m" x1="1034.95" y1="341.65" x2="1034.95" y2="348.25"/><line class="m" x1="1037.74" y1="341.65" x2="1037.74" y2="348.25"/><line class="m" x1="1040.53" y1="341.65" x2="1040.53" y2="348.25"/><line class="m" x1="1043.32" y1="341.65" x2="1043.32" y2="348.25"/><line class="m" x1="1046.11" y1="341.65" x2="1046.11" y2="348.25"/><line class="m" x1="1048.9" y1="341.65" x2="1048.9" y2="348.25"/><line class="m" x1="1051.69" y1="341.65" x2="1051.69" y2="348.25"/><rect class="l" x="1024.55" y="334.09" width="29.81" height="6.73"/><line class="m" x1="1026.58" y1="334.08" x2="1026.58" y2="340.68"/><line class="m" x1="1029.37" y1="334.08" x2="1029.37" y2="340.68"/><line class="m" x1="1032.16" y1="334.08" x2="1032.16" y2="340.68"/><line class="m" x1="1034.95" y1="334.08" x2="1034.95" y2="340.68"/><line class="m" x1="1037.74" y1="334.08" x2="1037.74" y2="340.68"/><line class="m" x1="1040.53" y1="334.08" x2="1040.53" y2="340.68"/><line class="m" x1="1043.32" y1="334.08" x2="1043.32" y2="340.68"/><line class="m" x1="1046.11" y1="334.08" x2="1046.11" y2="340.68"/><line class="m" x1="1048.9" y1="334.08" x2="1048.9" y2="340.68"/><line class="m" x1="1051.69" y1="334.08" x2="1051.69" y2="340.68"/><rect class="l" x="1024.55" y="326.52" width="29.81" height="6.73"/><line class="m" x1="1026.58" y1="326.51" x2="1026.58" y2="333.12"/><line class="m" x1="1029.37" y1="326.51" x2="1029.37" y2="333.12"/><line class="m" x1="1032.16" y1="326.51" x2="1032.16" y2="333.12"/><line class="m" x1="1034.95" y1="326.51" x2="1034.95" y2="333.12"/><line class="m" x1="1037.74" y1="326.51" x2="1037.74" y2="333.12"/><line class="m" x1="1040.53" y1="326.51" x2="1040.53" y2="333.12"/><line class="m" x1="1043.32" y1="326.51" x2="1043.32" y2="333.12"/><line class="m" x1="1046.11" y1="326.51" x2="1046.11" y2="333.12"/><line class="m" x1="1048.9" y1="326.51" x2="1048.9" y2="333.12"/><line class="m" x1="1051.69" y1="326.51" x2="1051.69" y2="333.12"/><rect class="l" x="1024.55" y="318.96" width="29.81" height="6.73"/><line class="m" x1="1026.58" y1="318.94" x2="1026.58" y2="325.55"/><line class="m" x1="1029.37" y1="318.94" x2="1029.37" y2="325.55"/><line class="m" x1="1032.16" y1="318.94" x2="1032.16" y2="325.55"/><line class="m" x1="1034.95" y1="318.94" x2="1034.95" y2="325.55"/><line class="m" x1="1037.74" y1="318.94" x2="1037.74" y2="325.55"/><line class="m" x1="1040.53" y1="318.94" x2="1040.53" y2="325.55"/><line class="m" x1="1043.32" y1="318.94" x2="1043.32" y2="325.55"/><line class="m" x1="1046.11" y1="318.94" x2="1046.11" y2="325.55"/><line class="m" x1="1048.9" y1="318.94" x2="1048.9" y2="325.55"/><line class="m" x1="1051.69" y1="318.94" x2="1051.69" y2="325.55"/><rect class="l" x="1024.55" y="311.39" width="29.81" height="6.73"/><line class="m" x1="1026.58" y1="311.38" x2="1026.58" y2="317.98"/><line class="m" x1="1029.37" y1="311.38" x2="1029.37" y2="317.98"/><line class="m" x1="1032.16" y1="311.38" x2="1032.16" y2="317.98"/><line class="m" x1="1034.95" y1="311.38" x2="1034.95" y2="317.98"/><line class="m" x1="1037.74" y1="311.38" x2="1037.74" y2="317.98"/><line class="m" x1="1040.53" y1="311.38" x2="1040.53" y2="317.98"/><line class="m" x1="1043.32" y1="311.38" x2="1043.32" y2="317.98"/><line class="m" x1="1046.11" y1="311.38" x2="1046.11" y2="317.98"/><line class="m" x1="1048.9" y1="311.38" x2="1048.9" y2="317.98"/><line class="m" x1="1051.69" y1="311.38" x2="1051.69" y2="317.98"/><rect class="l" x="1024.55" y="303.82" width="29.81" height="6.73"/><line class="m" x1="1026.58" y1="303.81" x2="1026.58" y2="310.41"/><line class="m" x1="1029.37" y1="303.81" x2="1029.37" y2="310.41"/><line class="m" x1="1032.16" y1="303.81" x2="1032.16" y2="310.41"/><line class="m" x1="1034.95" y1="303.81" x2="1034.95" y2="310.41"/><line class="m" x1="1037.74" y1="303.81" x2="1037.74" y2="310.41"/><line class="m" x1="1040.53" y1="303.81" x2="1040.53" y2="310.41"/><line class="m" x1="1043.32" y1="303.81" x2="1043.32" y2="310.41"/><line class="m" x1="1046.11" y1="303.81" x2="1046.11" y2="310.41"/><line class="m" x1="1048.9" y1="303.81" x2="1048.9" y2="310.41"/><line class="m" x1="1051.69" y1="303.81" x2="1051.69" y2="310.41"/><rect class="l" x="1058" y="387.65" width="29.81" height="6.73"/><line class="m" x1="1060.02" y1="387.63" x2="1060.02" y2="394.24"/><line class="m" x1="1062.81" y1="387.63" x2="1062.81" y2="394.24"/><line class="m" x1="1065.6" y1="387.63" x2="1065.6" y2="394.24"/><line class="m" x1="1068.39" y1="387.63" x2="1068.39" y2="394.24"/><line class="m" x1="1071.18" y1="387.63" x2="1071.18" y2="394.24"/><line class="m" x1="1073.97" y1="387.63" x2="1073.97" y2="394.24"/><line class="m" x1="1076.76" y1="387.63" x2="1076.76" y2="394.24"/><line class="m" x1="1079.55" y1="387.63" x2="1079.55" y2="394.24"/><line class="m" x1="1082.34" y1="387.63" x2="1082.34" y2="394.24"/><line class="m" x1="1085.13" y1="387.63" x2="1085.13" y2="394.24"/><rect class="l" x="1058" y="380.08" width="29.81" height="6.73"/><line class="m" x1="1060.02" y1="380.07" x2="1060.02" y2="386.67"/><line class="m" x1="1062.81" y1="380.07" x2="1062.81" y2="386.67"/><line class="m" x1="1065.6" y1="380.07" x2="1065.6" y2="386.67"/><line class="m" x1="1068.39" y1="380.07" x2="1068.39" y2="386.67"/><line class="m" x1="1071.18" y1="380.07" x2="1071.18" y2="386.67"/><line class="m" x1="1073.97" y1="380.07" x2="1073.97" y2="386.67"/><line class="m" x1="1076.76" y1="380.07" x2="1076.76" y2="386.67"/><line class="m" x1="1079.55" y1="380.07" x2="1079.55" y2="386.67"/><line class="m" x1="1082.34" y1="380.07" x2="1082.34" y2="386.67"/><line class="m" x1="1085.13" y1="380.07" x2="1085.13" y2="386.67"/><rect class="l" x="1058" y="372.51" width="29.81" height="6.73"/><line class="m" x1="1060.02" y1="372.5" x2="1060.02" y2="379.1"/><line class="m" x1="1062.81" y1="372.5" x2="1062.81" y2="379.1"/><line class="m" x1="1065.6" y1="372.5" x2="1065.6" y2="379.1"/><line class="m" x1="1068.39" y1="372.5" x2="1068.39" y2="379.1"/><line class="m" x1="1071.18" y1="372.5" x2="1071.18" y2="379.1"/><line class="m" x1="1073.97" y1="372.5" x2="1073.97" y2="379.1"/><line class="m" x1="1076.76" y1="372.5" x2="1076.76" y2="379.1"/><line class="m" x1="1079.55" y1="372.5" x2="1079.55" y2="379.1"/><line class="m" x1="1082.34" y1="372.5" x2="1082.34" y2="379.1"/><line class="m" x1="1085.13" y1="372.5" x2="1085.13" y2="379.1"/><rect class="l" x="1058" y="364.94" width="29.81" height="6.73"/><line class="m" x1="1060.02" y1="364.93" x2="1060.02" y2="371.53"/><line class="m" x1="1062.81" y1="364.93" x2="1062.81" y2="371.53"/><line class="m" x1="1065.6" y1="364.93" x2="1065.6" y2="371.53"/><line class="m" x1="1068.39" y1="364.93" x2="1068.39" y2="371.53"/><line class="m" x1="1071.18" y1="364.93" x2="1071.18" y2="371.53"/><line class="m" x1="1073.97" y1="364.93" x2="1073.97" y2="371.53"/><line class="m" x1="1076.76" y1="364.93" x2="1076.76" y2="371.53"/><line class="m" x1="1079.55" y1="364.93" x2="1079.55" y2="371.53"/><line class="m" x1="1082.34" y1="364.93" x2="1082.34" y2="371.53"/><line class="m" x1="1085.13" y1="364.93" x2="1085.13" y2="371.53"/><rect class="l" x="1058" y="357.37" width="29.81" height="6.73"/><line class="m" x1="1060.02" y1="357.36" x2="1060.02" y2="363.97"/><line class="m" x1="1062.81" y1="357.36" x2="1062.81" y2="363.97"/><line class="m" x1="1065.6" y1="357.36" x2="1065.6" y2="363.97"/><line class="m" x1="1068.39" y1="357.36" x2="1068.39" y2="363.97"/><line class="m" x1="1071.18" y1="357.36" x2="1071.18" y2="363.97"/><line class="m" x1="1073.97" y1="357.36" x2="1073.97" y2="363.97"/><line class="m" x1="1076.76" y1="357.36" x2="1076.76" y2="363.97"/><line class="m" x1="1079.55" y1="357.36" x2="1079.55" y2="363.97"/><line class="m" x1="1082.34" y1="357.36" x2="1082.34" y2="363.97"/><line class="m" x1="1085.13" y1="357.36" x2="1085.13" y2="363.97"/><rect class="l" x="1058" y="349.81" width="29.81" height="6.73"/><line class="m" x1="1060.02" y1="349.79" x2="1060.02" y2="356.4"/><line class="m" x1="1062.81" y1="349.79" x2="1062.81" y2="356.4"/><line class="m" x1="1065.6" y1="349.79" x2="1065.6" y2="356.4"/><line class="m" x1="1068.39" y1="349.79" x2="1068.39" y2="356.4"/><line class="m" x1="1071.18" y1="349.79" x2="1071.18" y2="356.4"/><line class="m" x1="1073.97" y1="349.79" x2="1073.97" y2="356.4"/><line class="m" x1="1076.76" y1="349.79" x2="1076.76" y2="356.4"/><line class="m" x1="1079.55" y1="349.79" x2="1079.55" y2="356.4"/><line class="m" x1="1082.34" y1="349.79" x2="1082.34" y2="356.4"/><line class="m" x1="1085.13" y1="349.79" x2="1085.13" y2="356.4"/><rect class="l" x="1058" y="341.66" width="29.81" height="6.73"/><line class="m" x1="1060.02" y1="341.65" x2="1060.02" y2="348.25"/><line class="m" x1="1062.81" y1="341.65" x2="1062.81" y2="348.25"/><line class="m" x1="1065.6" y1="341.65" x2="1065.6" y2="348.25"/><line class="m" x1="1068.39" y1="341.65" x2="1068.39" y2="348.25"/><line class="m" x1="1071.18" y1="341.65" x2="1071.18" y2="348.25"/><line class="m" x1="1073.97" y1="341.65" x2="1073.97" y2="348.25"/><line class="m" x1="1076.76" y1="341.65" x2="1076.76" y2="348.25"/><line class="m" x1="1079.55" y1="341.65" x2="1079.55" y2="348.25"/><line class="m" x1="1082.34" y1="341.65" x2="1082.34" y2="348.25"/><line class="m" x1="1085.13" y1="341.65" x2="1085.13" y2="348.25"/><rect class="l" x="1058" y="334.09" width="29.81" height="6.73"/><line class="m" x1="1060.02" y1="334.08" x2="1060.02" y2="340.68"/><line class="m" x1="1062.81" y1="334.08" x2="1062.81" y2="340.68"/><line class="m" x1="1065.6" y1="334.08" x2="1065.6" y2="340.68"/><line class="m" x1="1068.39" y1="334.08" x2="1068.39" y2="340.68"/><line class="m" x1="1071.18" y1="334.08" x2="1071.18" y2="340.68"/><line class="m" x1="1073.97" y1="334.08" x2="1073.97" y2="340.68"/><line class="m" x1="1076.76" y1="334.08" x2="1076.76" y2="340.68"/><line class="m" x1="1079.55" y1="334.08" x2="1079.55" y2="340.68"/><line class="m" x1="1082.34" y1="334.08" x2="1082.34" y2="340.68"/><line class="m" x1="1085.13" y1="334.08" x2="1085.13" y2="340.68"/><rect class="l" x="1058" y="326.52" width="29.81" height="6.73"/><line class="m" x1="1060.02" y1="326.51" x2="1060.02" y2="333.12"/><line class="m" x1="1062.81" y1="326.51" x2="1062.81" y2="333.12"/><line class="m" x1="1065.6" y1="326.51" x2="1065.6" y2="333.12"/><line class="m" x1="1068.39" y1="326.51" x2="1068.39" y2="333.12"/><line class="m" x1="1071.18" y1="326.51" x2="1071.18" y2="333.12"/><line class="m" x1="1073.97" y1="326.51" x2="1073.97" y2="333.12"/><line class="m" x1="1076.76" y1="326.51" x2="1076.76" y2="333.12"/><line class="m" x1="1079.55" y1="326.51" x2="1079.55" y2="333.12"/><line class="m" x1="1082.34" y1="326.51" x2="1082.34" y2="333.12"/><line class="m" x1="1085.13" y1="326.51" x2="1085.13" y2="333.12"/><rect class="l" x="1058" y="318.96" width="29.81" height="6.73"/><line class="m" x1="1060.02" y1="318.94" x2="1060.02" y2="325.55"/><line class="m" x1="1062.81" y1="318.94" x2="1062.81" y2="325.55"/><line class="m" x1="1065.6" y1="318.94" x2="1065.6" y2="325.55"/><line class="m" x1="1068.39" y1="318.94" x2="1068.39" y2="325.55"/><line class="m" x1="1071.18" y1="318.94" x2="1071.18" y2="325.55"/><line class="m" x1="1073.97" y1="318.94" x2="1073.97" y2="325.55"/><line class="m" x1="1076.76" y1="318.94" x2="1076.76" y2="325.55"/><line class="m" x1="1079.55" y1="318.94" x2="1079.55" y2="325.55"/><line class="m" x1="1082.34" y1="318.94" x2="1082.34" y2="325.55"/><line class="m" x1="1085.13" y1="318.94" x2="1085.13" y2="325.55"/><rect class="l" x="1058" y="311.39" width="29.81" height="6.73"/><line class="m" x1="1060.02" y1="311.38" x2="1060.02" y2="317.98"/><line class="m" x1="1062.81" y1="311.38" x2="1062.81" y2="317.98"/><line class="m" x1="1065.6" y1="311.38" x2="1065.6" y2="317.98"/><line class="m" x1="1068.39" y1="311.38" x2="1068.39" y2="317.98"/><line class="m" x1="1071.18" y1="311.38" x2="1071.18" y2="317.98"/><line class="m" x1="1073.97" y1="311.38" x2="1073.97" y2="317.98"/><line class="m" x1="1076.76" y1="311.38" x2="1076.76" y2="317.98"/><line class="m" x1="1079.55" y1="311.38" x2="1079.55" y2="317.98"/><line class="m" x1="1082.34" y1="311.38" x2="1082.34" y2="317.98"/><line class="m" x1="1085.13" y1="311.38" x2="1085.13" y2="317.98"/><rect class="l" x="1058" y="303.82" width="29.81" height="6.73"/><line class="m" x1="1060.02" y1="303.81" x2="1060.02" y2="310.41"/><line class="m" x1="1062.81" y1="303.81" x2="1062.81" y2="310.41"/><line class="m" x1="1065.6" y1="303.81" x2="1065.6" y2="310.41"/><line class="m" x1="1068.39" y1="303.81" x2="1068.39" y2="310.41"/><line class="m" x1="1071.18" y1="303.81" x2="1071.18" y2="310.41"/><line class="m" x1="1073.97" y1="303.81" x2="1073.97" y2="310.41"/><line class="m" x1="1076.76" y1="303.81" x2="1076.76" y2="310.41"/><line class="m" x1="1079.55" y1="303.81" x2="1079.55" y2="310.41"/><line class="m" x1="1082.34" y1="303.81" x2="1082.34" y2="310.41"/><line class="m" x1="1085.13" y1="303.81" x2="1085.13" y2="310.41"/><rect class="l" x="1058" y="295.68" width="29.81" height="6.73"/><line class="m" x1="1060.02" y1="295.66" x2="1060.02" y2="302.27"/><line class="m" x1="1062.81" y1="295.66" x2="1062.81" y2="302.27"/><line class="m" x1="1065.6" y1="295.66" x2="1065.6" y2="302.27"/><line class="m" x1="1068.39" y1="295.66" x2="1068.39" y2="302.27"/><line class="m" x1="1071.18" y1="295.66" x2="1071.18" y2="302.27"/><line class="m" x1="1073.97" y1="295.66" x2="1073.97" y2="302.27"/><line class="m" x1="1076.76" y1="295.66" x2="1076.76" y2="302.27"/><line class="m" x1="1079.55" y1="295.66" x2="1079.55" y2="302.27"/><line class="m" x1="1082.34" y1="295.66" x2="1082.34" y2="302.27"/><line class="m" x1="1085.13" y1="295.66" x2="1085.13" y2="302.27"/><rect class="l" x="1058" y="288.11" width="29.81" height="6.73"/><line class="m" x1="1060.02" y1="288.1" x2="1060.02" y2="294.7"/><line class="m" x1="1062.81" y1="288.1" x2="1062.81" y2="294.7"/><line class="m" x1="1065.6" y1="288.1" x2="1065.6" y2="294.7"/><line class="m" x1="1068.39" y1="288.1" x2="1068.39" y2="294.7"/><line class="m" x1="1071.18" y1="288.1" x2="1071.18" y2="294.7"/><line class="m" x1="1073.97" y1="288.1" x2="1073.97" y2="294.7"/><line class="m" x1="1076.76" y1="288.1" x2="1076.76" y2="294.7"/><line class="m" x1="1079.55" y1="288.1" x2="1079.55" y2="294.7"/><line class="m" x1="1082.34" y1="288.1" x2="1082.34" y2="294.7"/><line class="m" x1="1085.13" y1="288.1" x2="1085.13" y2="294.7"/><rect class="l" x="1058" y="280.54" width="29.81" height="6.73"/><line class="m" x1="1060.02" y1="280.53" x2="1060.02" y2="287.13"/><line class="m" x1="1062.81" y1="280.53" x2="1062.81" y2="287.13"/><line class="m" x1="1065.6" y1="280.53" x2="1065.6" y2="287.13"/><line class="m" x1="1068.39" y1="280.53" x2="1068.39" y2="287.13"/><line class="m" x1="1071.18" y1="280.53" x2="1071.18" y2="287.13"/><line class="m" x1="1073.97" y1="280.53" x2="1073.97" y2="287.13"/><line class="m" x1="1076.76" y1="280.53" x2="1076.76" y2="287.13"/><line class="m" x1="1079.55" y1="280.53" x2="1079.55" y2="287.13"/><line class="m" x1="1082.34" y1="280.53" x2="1082.34" y2="287.13"/><line class="m" x1="1085.13" y1="280.53" x2="1085.13" y2="287.13"/><rect class="l" x="1058" y="272.97" width="29.81" height="6.73"/><line class="m" x1="1060.02" y1="272.96" x2="1060.02" y2="279.56"/><line class="m" x1="1062.81" y1="272.96" x2="1062.81" y2="279.56"/><line class="m" x1="1065.6" y1="272.96" x2="1065.6" y2="279.56"/><line class="m" x1="1068.39" y1="272.96" x2="1068.39" y2="279.56"/><line class="m" x1="1071.18" y1="272.96" x2="1071.18" y2="279.56"/><line class="m" x1="1073.97" y1="272.96" x2="1073.97" y2="279.56"/><line class="m" x1="1076.76" y1="272.96" x2="1076.76" y2="279.56"/><line class="m" x1="1079.55" y1="272.96" x2="1079.55" y2="279.56"/><line class="m" x1="1082.34" y1="272.96" x2="1082.34" y2="279.56"/><line class="m" x1="1085.13" y1="272.96" x2="1085.13" y2="279.56"/><rect class="l" x="1058" y="265.4" width="29.81" height="6.73"/><line class="m" x1="1060.02" y1="265.39" x2="1060.02" y2="271.99"/><line class="m" x1="1062.81" y1="265.39" x2="1062.81" y2="271.99"/><line class="m" x1="1065.6" y1="265.39" x2="1065.6" y2="271.99"/><line class="m" x1="1068.39" y1="265.39" x2="1068.39" y2="271.99"/><line class="m" x1="1071.18" y1="265.39" x2="1071.18" y2="271.99"/><line class="m" x1="1073.97" y1="265.39" x2="1073.97" y2="271.99"/><line class="m" x1="1076.76" y1="265.39" x2="1076.76" y2="271.99"/><line class="m" x1="1079.55" y1="265.39" x2="1079.55" y2="271.99"/><line class="m" x1="1082.34" y1="265.39" x2="1082.34" y2="271.99"/><line class="m" x1="1085.13" y1="265.39" x2="1085.13" y2="271.99"/><rect class="l" x="1058" y="257.83" width="29.81" height="6.73"/><line class="m" x1="1060.02" y1="257.82" x2="1060.02" y2="264.43"/><line class="m" x1="1062.81" y1="257.82" x2="1062.81" y2="264.43"/><line class="m" x1="1065.6" y1="257.82" x2="1065.6" y2="264.43"/><line class="m" x1="1068.39" y1="257.82" x2="1068.39" y2="264.43"/><line class="m" x1="1071.18" y1="257.82" x2="1071.18" y2="264.43"/><line class="m" x1="1073.97" y1="257.82" x2="1073.97" y2="264.43"/><line class="m" x1="1076.76" y1="257.82" x2="1076.76" y2="264.43"/><line class="m" x1="1079.55" y1="257.82" x2="1079.55" y2="264.43"/><line class="m" x1="1082.34" y1="257.82" x2="1082.34" y2="264.43"/><line class="m" x1="1085.13" y1="257.82" x2="1085.13" y2="264.43"/><rect class="l" x="1092.4" y="387.65" width="29.81" height="6.73"/><line class="m" x1="1094.43" y1="387.63" x2="1094.43" y2="394.24"/><line class="m" x1="1097.22" y1="387.63" x2="1097.22" y2="394.24"/><line class="m" x1="1100.01" y1="387.63" x2="1100.01" y2="394.24"/><line class="m" x1="1102.8" y1="387.63" x2="1102.8" y2="394.24"/><line class="m" x1="1105.59" y1="387.63" x2="1105.59" y2="394.24"/><line class="m" x1="1108.38" y1="387.63" x2="1108.38" y2="394.24"/><line class="m" x1="1111.17" y1="387.63" x2="1111.17" y2="394.24"/><line class="m" x1="1113.96" y1="387.63" x2="1113.96" y2="394.24"/><line class="m" x1="1116.75" y1="387.63" x2="1116.75" y2="394.24"/><line class="m" x1="1119.54" y1="387.63" x2="1119.54" y2="394.24"/><rect class="l" x="1092.4" y="380.08" width="29.81" height="6.73"/><line class="m" x1="1094.43" y1="380.07" x2="1094.43" y2="386.67"/><line class="m" x1="1097.22" y1="380.07" x2="1097.22" y2="386.67"/><line class="m" x1="1100.01" y1="380.07" x2="1100.01" y2="386.67"/><line class="m" x1="1102.8" y1="380.07" x2="1102.8" y2="386.67"/><line class="m" x1="1105.59" y1="380.07" x2="1105.59" y2="386.67"/><line class="m" x1="1108.38" y1="380.07" x2="1108.38" y2="386.67"/><line class="m" x1="1111.17" y1="380.07" x2="1111.17" y2="386.67"/><line class="m" x1="1113.96" y1="380.07" x2="1113.96" y2="386.67"/><line class="m" x1="1116.75" y1="380.07" x2="1116.75" y2="386.67"/><line class="m" x1="1119.54" y1="380.07" x2="1119.54" y2="386.67"/><rect class="l" x="1092.4" y="372.51" width="29.81" height="6.73"/><line class="m" x1="1094.43" y1="372.5" x2="1094.43" y2="379.1"/><line class="m" x1="1097.22" y1="372.5" x2="1097.22" y2="379.1"/><line class="m" x1="1100.01" y1="372.5" x2="1100.01" y2="379.1"/><line class="m" x1="1102.8" y1="372.5" x2="1102.8" y2="379.1"/><line class="m" x1="1105.59" y1="372.5" x2="1105.59" y2="379.1"/><line class="m" x1="1108.38" y1="372.5" x2="1108.38" y2="379.1"/><line class="m" x1="1111.17" y1="372.5" x2="1111.17" y2="379.1"/><line class="m" x1="1113.96" y1="372.5" x2="1113.96" y2="379.1"/><line class="m" x1="1116.75" y1="372.5" x2="1116.75" y2="379.1"/><line class="m" x1="1119.54" y1="372.5" x2="1119.54" y2="379.1"/><rect class="l" x="1092.4" y="364.94" width="29.81" height="6.73"/><line class="m" x1="1094.43" y1="364.93" x2="1094.43" y2="371.53"/><line class="m" x1="1097.22" y1="364.93" x2="1097.22" y2="371.53"/><line class="m" x1="1100.01" y1="364.93" x2="1100.01" y2="371.53"/><line class="m" x1="1102.8" y1="364.93" x2="1102.8" y2="371.53"/><line class="m" x1="1105.59" y1="364.93" x2="1105.59" y2="371.53"/><line class="m" x1="1108.38" y1="364.93" x2="1108.38" y2="371.53"/><line class="m" x1="1111.17" y1="364.93" x2="1111.17" y2="371.53"/><line class="m" x1="1113.96" y1="364.93" x2="1113.96" y2="371.53"/><line class="m" x1="1116.75" y1="364.93" x2="1116.75" y2="371.53"/><line class="m" x1="1119.54" y1="364.93" x2="1119.54" y2="371.53"/><rect class="l" x="1092.4" y="357.37" width="29.81" height="6.73"/><line class="m" x1="1094.43" y1="357.36" x2="1094.43" y2="363.97"/><line class="m" x1="1097.22" y1="357.36" x2="1097.22" y2="363.97"/><line class="m" x1="1100.01" y1="357.36" x2="1100.01" y2="363.97"/><line class="m" x1="1102.8" y1="357.36" x2="1102.8" y2="363.97"/><line class="m" x1="1105.59" y1="357.36" x2="1105.59" y2="363.97"/><line class="m" x1="1108.38" y1="357.36" x2="1108.38" y2="363.97"/><line class="m" x1="1111.17" y1="357.36" x2="1111.17" y2="363.97"/><line class="m" x1="1113.96" y1="357.36" x2="1113.96" y2="363.97"/><line class="m" x1="1116.75" y1="357.36" x2="1116.75" y2="363.97"/><line class="m" x1="1119.54" y1="357.36" x2="1119.54" y2="363.97"/><rect class="l" x="1092.4" y="349.81" width="29.81" height="6.73"/><line class="m" x1="1094.43" y1="349.79" x2="1094.43" y2="356.4"/><line class="m" x1="1097.22" y1="349.79" x2="1097.22" y2="356.4"/><line class="m" x1="1100.01" y1="349.79" x2="1100.01" y2="356.4"/><line class="m" x1="1102.8" y1="349.79" x2="1102.8" y2="356.4"/><line class="m" x1="1105.59" y1="349.79" x2="1105.59" y2="356.4"/><line class="m" x1="1108.38" y1="349.79" x2="1108.38" y2="356.4"/><line class="m" x1="1111.17" y1="349.79" x2="1111.17" y2="356.4"/><line class="m" x1="1113.96" y1="349.79" x2="1113.96" y2="356.4"/><line class="m" x1="1116.75" y1="349.79" x2="1116.75" y2="356.4"/><line class="m" x1="1119.54" y1="349.79" x2="1119.54" y2="356.4"/><rect class="l" x="1092.4" y="341.66" width="29.81" height="6.73"/><line class="m" x1="1094.43" y1="341.65" x2="1094.43" y2="348.25"/><line class="m" x1="1097.22" y1="341.65" x2="1097.22" y2="348.25"/><line class="m" x1="1100.01" y1="341.65" x2="1100.01" y2="348.25"/><line class="m" x1="1102.8" y1="341.65" x2="1102.8" y2="348.25"/><line class="m" x1="1105.59" y1="341.65" x2="1105.59" y2="348.25"/><line class="m" x1="1108.38" y1="341.65" x2="1108.38" y2="348.25"/><line class="m" x1="1111.17" y1="341.65" x2="1111.17" y2="348.25"/><line class="m" x1="1113.96" y1="341.65" x2="1113.96" y2="348.25"/><line class="m" x1="1116.75" y1="341.65" x2="1116.75" y2="348.25"/><line class="m" x1="1119.54" y1="341.65" x2="1119.54" y2="348.25"/><rect class="l" x="1092.4" y="334.09" width="29.81" height="6.73"/><line class="m" x1="1094.43" y1="334.08" x2="1094.43" y2="340.68"/><line class="m" x1="1097.22" y1="334.08" x2="1097.22" y2="340.68"/><line class="m" x1="1100.01" y1="334.08" x2="1100.01" y2="340.68"/><line class="m" x1="1102.8" y1="334.08" x2="1102.8" y2="340.68"/><line class="m" x1="1105.59" y1="334.08" x2="1105.59" y2="340.68"/><line class="m" x1="1108.38" y1="334.08" x2="1108.38" y2="340.68"/><line class="m" x1="1111.17" y1="334.08" x2="1111.17" y2="340.68"/><line class="m" x1="1113.96" y1="334.08" x2="1113.96" y2="340.68"/><line class="m" x1="1116.75" y1="334.08" x2="1116.75" y2="340.68"/><line class="m" x1="1119.54" y1="334.08" x2="1119.54" y2="340.68"/><rect class="l" x="1092.4" y="326.52" width="29.81" height="6.73"/><line class="m" x1="1094.43" y1="326.51" x2="1094.43" y2="333.12"/><line class="m" x1="1097.22" y1="326.51" x2="1097.22" y2="333.12"/><line class="m" x1="1100.01" y1="326.51" x2="1100.01" y2="333.12"/><line class="m" x1="1102.8" y1="326.51" x2="1102.8" y2="333.12"/><line class="m" x1="1105.59" y1="326.51" x2="1105.59" y2="333.12"/><line class="m" x1="1108.38" y1="326.51" x2="1108.38" y2="333.12"/><line class="m" x1="1111.17" y1="326.51" x2="1111.17" y2="333.12"/><line class="m" x1="1113.96" y1="326.51" x2="1113.96" y2="333.12"/><line class="m" x1="1116.75" y1="326.51" x2="1116.75" y2="333.12"/><line class="m" x1="1119.54" y1="326.51" x2="1119.54" y2="333.12"/><rect class="l" x="1092.4" y="318.96" width="29.81" height="6.73"/><line class="m" x1="1094.43" y1="318.94" x2="1094.43" y2="325.55"/><line class="m" x1="1097.22" y1="318.94" x2="1097.22" y2="325.55"/><line class="m" x1="1100.01" y1="318.94" x2="1100.01" y2="325.55"/><line class="m" x1="1102.8" y1="318.94" x2="1102.8" y2="325.55"/><line class="m" x1="1105.59" y1="318.94" x2="1105.59" y2="325.55"/><line class="m" x1="1108.38" y1="318.94" x2="1108.38" y2="325.55"/><line class="m" x1="1111.17" y1="318.94" x2="1111.17" y2="325.55"/><line class="m" x1="1113.96" y1="318.94" x2="1113.96" y2="325.55"/><line class="m" x1="1116.75" y1="318.94" x2="1116.75" y2="325.55"/><line class="m" x1="1119.54" y1="318.94" x2="1119.54" y2="325.55"/><rect class="l" x="1092.4" y="311.39" width="29.81" height="6.73"/><line class="m" x1="1094.43" y1="311.38" x2="1094.43" y2="317.98"/><line class="m" x1="1097.22" y1="311.38" x2="1097.22" y2="317.98"/><line class="m" x1="1100.01" y1="311.38" x2="1100.01" y2="317.98"/><line class="m" x1="1102.8" y1="311.38" x2="1102.8" y2="317.98"/><line class="m" x1="1105.59" y1="311.38" x2="1105.59" y2="317.98"/><line class="m" x1="1108.38" y1="311.38" x2="1108.38" y2="317.98"/><line class="m" x1="1111.17" y1="311.38" x2="1111.17" y2="317.98"/><line class="m" x1="1113.96" y1="311.38" x2="1113.96" y2="317.98"/><line class="m" x1="1116.75" y1="311.38" x2="1116.75" y2="317.98"/><line class="m" x1="1119.54" y1="311.38" x2="1119.54" y2="317.98"/><rect class="l" x="1092.4" y="303.82" width="29.81" height="6.73"/><line class="m" x1="1094.43" y1="303.81" x2="1094.43" y2="310.41"/><line class="m" x1="1097.22" y1="303.81" x2="1097.22" y2="310.41"/><line class="m" x1="1100.01" y1="303.81" x2="1100.01" y2="310.41"/><line class="m" x1="1102.8" y1="303.81" x2="1102.8" y2="310.41"/><line class="m" x1="1105.59" y1="303.81" x2="1105.59" y2="310.41"/><line class="m" x1="1108.38" y1="303.81" x2="1108.38" y2="310.41"/><line class="m" x1="1111.17" y1="303.81" x2="1111.17" y2="310.41"/><line class="m" x1="1113.96" y1="303.81" x2="1113.96" y2="310.41"/><line class="m" x1="1116.75" y1="303.81" x2="1116.75" y2="310.41"/><line class="m" x1="1119.54" y1="303.81" x2="1119.54" y2="310.41"/><rect class="l" x="1092.4" y="295.68" width="29.81" height="6.73"/><line class="m" x1="1094.43" y1="295.66" x2="1094.43" y2="302.27"/><line class="m" x1="1097.22" y1="295.66" x2="1097.22" y2="302.27"/><line class="m" x1="1100.01" y1="295.66" x2="1100.01" y2="302.27"/><line class="m" x1="1102.8" y1="295.66" x2="1102.8" y2="302.27"/><line class="m" x1="1105.59" y1="295.66" x2="1105.59" y2="302.27"/><line class="m" x1="1108.38" y1="295.66" x2="1108.38" y2="302.27"/><line class="m" x1="1111.17" y1="295.66" x2="1111.17" y2="302.27"/><line class="m" x1="1113.96" y1="295.66" x2="1113.96" y2="302.27"/><line class="m" x1="1116.75" y1="295.66" x2="1116.75" y2="302.27"/><line class="m" x1="1119.54" y1="295.66" x2="1119.54" y2="302.27"/><rect class="l" x="1092.4" y="288.11" width="29.81" height="6.73"/><line class="m" x1="1094.43" y1="288.1" x2="1094.43" y2="294.7"/><line class="m" x1="1097.22" y1="288.1" x2="1097.22" y2="294.7"/><line class="m" x1="1100.01" y1="288.1" x2="1100.01" y2="294.7"/><line class="m" x1="1102.8" y1="288.1" x2="1102.8" y2="294.7"/><line class="m" x1="1105.59" y1="288.1" x2="1105.59" y2="294.7"/><line class="m" x1="1108.38" y1="288.1" x2="1108.38" y2="294.7"/><line class="m" x1="1111.17" y1="288.1" x2="1111.17" y2="294.7"/><line class="m" x1="1113.96" y1="288.1" x2="1113.96" y2="294.7"/><line class="m" x1="1116.75" y1="288.1" x2="1116.75" y2="294.7"/><line class="m" x1="1119.54" y1="288.1" x2="1119.54" y2="294.7"/><rect class="l" x="1092.4" y="280.54" width="29.81" height="6.73"/><line class="m" x1="1094.43" y1="280.53" x2="1094.43" y2="287.13"/><line class="m" x1="1097.22" y1="280.53" x2="1097.22" y2="287.13"/><line class="m" x1="1100.01" y1="280.53" x2="1100.01" y2="287.13"/><line class="m" x1="1102.8" y1="280.53" x2="1102.8" y2="287.13"/><line class="m" x1="1105.59" y1="280.53" x2="1105.59" y2="287.13"/><line class="m" x1="1108.38" y1="280.53" x2="1108.38" y2="287.13"/><line class="m" x1="1111.17" y1="280.53" x2="1111.17" y2="287.13"/><line class="m" x1="1113.96" y1="280.53" x2="1113.96" y2="287.13"/><line class="m" x1="1116.75" y1="280.53" x2="1116.75" y2="287.13"/><line class="m" x1="1119.54" y1="280.53" x2="1119.54" y2="287.13"/><rect class="l" x="1092.4" y="272.97" width="29.81" height="6.73"/><line class="m" x1="1094.43" y1="272.96" x2="1094.43" y2="279.56"/><line class="m" x1="1097.22" y1="272.96" x2="1097.22" y2="279.56"/><line class="m" x1="1100.01" y1="272.96" x2="1100.01" y2="279.56"/><line class="m" x1="1102.8" y1="272.96" x2="1102.8" y2="279.56"/><line class="m" x1="1105.59" y1="272.96" x2="1105.59" y2="279.56"/><line class="m" x1="1108.38" y1="272.96" x2="1108.38" y2="279.56"/><line class="m" x1="1111.17" y1="272.96" x2="1111.17" y2="279.56"/><line class="m" x1="1113.96" y1="272.96" x2="1113.96" y2="279.56"/><line class="m" x1="1116.75" y1="272.96" x2="1116.75" y2="279.56"/><line class="m" x1="1119.54" y1="272.96" x2="1119.54" y2="279.56"/><rect class="l" x="1092.4" y="265.4" width="29.81" height="6.73"/><line class="m" x1="1094.43" y1="265.39" x2="1094.43" y2="271.99"/><line class="m" x1="1097.22" y1="265.39" x2="1097.22" y2="271.99"/><line class="m" x1="1100.01" y1="265.39" x2="1100.01" y2="271.99"/><line class="m" x1="1102.8" y1="265.39" x2="1102.8" y2="271.99"/><line class="m" x1="1105.59" y1="265.39" x2="1105.59" y2="271.99"/><line class="m" x1="1108.38" y1="265.39" x2="1108.38" y2="271.99"/><line class="m" x1="1111.17" y1="265.39" x2="1111.17" y2="271.99"/><line class="m" x1="1113.96" y1="265.39" x2="1113.96" y2="271.99"/><line class="m" x1="1116.75" y1="265.39" x2="1116.75" y2="271.99"/><line class="m" x1="1119.54" y1="265.39" x2="1119.54" y2="271.99"/><rect class="l" x="1092.4" y="257.83" width="29.81" height="6.73"/><line class="m" x1="1094.43" y1="257.82" x2="1094.43" y2="264.43"/><line class="m" x1="1097.22" y1="257.82" x2="1097.22" y2="264.43"/><line class="m" x1="1100.01" y1="257.82" x2="1100.01" y2="264.43"/><line class="m" x1="1102.8" y1="257.82" x2="1102.8" y2="264.43"/><line class="m" x1="1105.59" y1="257.82" x2="1105.59" y2="264.43"/><line class="m" x1="1108.38" y1="257.82" x2="1108.38" y2="264.43"/><line class="m" x1="1111.17" y1="257.82" x2="1111.17" y2="264.43"/><line class="m" x1="1113.96" y1="257.82" x2="1113.96" y2="264.43"/><line class="m" x1="1116.75" y1="257.82" x2="1116.75" y2="264.43"/><line class="m" x1="1119.54" y1="257.82" x2="1119.54" y2="264.43"/><rect class="l" x="1092.4" y="249.79" width="29.81" height="6.73"/><line class="m" x1="1094.43" y1="249.78" x2="1094.43" y2="256.38"/><line class="m" x1="1097.22" y1="249.78" x2="1097.22" y2="256.38"/><line class="m" x1="1100.01" y1="249.78" x2="1100.01" y2="256.38"/><line class="m" x1="1102.8" y1="249.78" x2="1102.8" y2="256.38"/><line class="m" x1="1105.59" y1="249.78" x2="1105.59" y2="256.38"/><line class="m" x1="1108.38" y1="249.78" x2="1108.38" y2="256.38"/><line class="m" x1="1111.17" y1="249.78" x2="1111.17" y2="256.38"/><line class="m" x1="1113.96" y1="249.78" x2="1113.96" y2="256.38"/><line class="m" x1="1116.75" y1="249.78" x2="1116.75" y2="256.38"/><line class="m" x1="1119.54" y1="249.78" x2="1119.54" y2="256.38"/><rect class="l" x="1092.4" y="242.22" width="29.81" height="6.73"/><line class="m" x1="1094.43" y1="242.21" x2="1094.43" y2="248.82"/><line class="m" x1="1097.22" y1="242.21" x2="1097.22" y2="248.82"/><line class="m" x1="1100.01" y1="242.21" x2="1100.01" y2="248.82"/><line class="m" x1="1102.8" y1="242.21" x2="1102.8" y2="248.82"/><line class="m" x1="1105.59" y1="242.21" x2="1105.59" y2="248.82"/><line class="m" x1="1108.38" y1="242.21" x2="1108.38" y2="248.82"/><line class="m" x1="1111.17" y1="242.21" x2="1111.17" y2="248.82"/><line class="m" x1="1113.96" y1="242.21" x2="1113.96" y2="248.82"/><line class="m" x1="1116.75" y1="242.21" x2="1116.75" y2="248.82"/><line class="m" x1="1119.54" y1="242.21" x2="1119.54" y2="248.82"/><rect class="l" x="1092.4" y="234.66" width="29.81" height="6.73"/><line class="m" x1="1094.43" y1="234.64" x2="1094.43" y2="241.25"/><line class="m" x1="1097.22" y1="234.64" x2="1097.22" y2="241.25"/><line class="m" x1="1100.01" y1="234.64" x2="1100.01" y2="241.25"/><line class="m" x1="1102.8" y1="234.64" x2="1102.8" y2="241.25"/><line class="m" x1="1105.59" y1="234.64" x2="1105.59" y2="241.25"/><line class="m" x1="1108.38" y1="234.64" x2="1108.38" y2="241.25"/><line class="m" x1="1111.17" y1="234.64" x2="1111.17" y2="241.25"/><line class="m" x1="1113.96" y1="234.64" x2="1113.96" y2="241.25"/><line class="m" x1="1116.75" y1="234.64" x2="1116.75" y2="241.25"/><line class="m" x1="1119.54" y1="234.64" x2="1119.54" y2="241.25"/><rect class="l" x="1092.4" y="227.09" width="29.81" height="6.73"/><line class="m" x1="1094.43" y1="227.08" x2="1094.43" y2="233.68"/><line class="m" x1="1097.22" y1="227.08" x2="1097.22" y2="233.68"/><line class="m" x1="1100.01" y1="227.08" x2="1100.01" y2="233.68"/><line class="m" x1="1102.8" y1="227.08" x2="1102.8" y2="233.68"/><line class="m" x1="1105.59" y1="227.08" x2="1105.59" y2="233.68"/><line class="m" x1="1108.38" y1="227.08" x2="1108.38" y2="233.68"/><line class="m" x1="1111.17" y1="227.08" x2="1111.17" y2="233.68"/><line class="m" x1="1113.96" y1="227.08" x2="1113.96" y2="233.68"/><line class="m" x1="1116.75" y1="227.08" x2="1116.75" y2="233.68"/><line class="m" x1="1119.54" y1="227.08" x2="1119.54" y2="233.68"/><rect class="l" x="1092.4" y="219.52" width="29.81" height="6.73"/><line class="m" x1="1094.43" y1="219.51" x2="1094.43" y2="226.11"/><line class="m" x1="1097.22" y1="219.51" x2="1097.22" y2="226.11"/><line class="m" x1="1100.01" y1="219.51" x2="1100.01" y2="226.11"/><line class="m" x1="1102.8" y1="219.51" x2="1102.8" y2="226.11"/><line class="m" x1="1105.59" y1="219.51" x2="1105.59" y2="226.11"/><line class="m" x1="1108.38" y1="219.51" x2="1108.38" y2="226.11"/><line class="m" x1="1111.17" y1="219.51" x2="1111.17" y2="226.11"/><line class="m" x1="1113.96" y1="219.51" x2="1113.96" y2="226.11"/><line class="m" x1="1116.75" y1="219.51" x2="1116.75" y2="226.11"/><line class="m" x1="1119.54" y1="219.51" x2="1119.54" y2="226.11"/><rect class="l" x="1092.4" y="211.95" width="29.81" height="6.73"/><line class="m" x1="1094.43" y1="211.94" x2="1094.43" y2="218.54"/><line class="m" x1="1097.22" y1="211.94" x2="1097.22" y2="218.54"/><line class="m" x1="1100.01" y1="211.94" x2="1100.01" y2="218.54"/><line class="m" x1="1102.8" y1="211.94" x2="1102.8" y2="218.54"/><line class="m" x1="1105.59" y1="211.94" x2="1105.59" y2="218.54"/><line class="m" x1="1108.38" y1="211.94" x2="1108.38" y2="218.54"/><line class="m" x1="1111.17" y1="211.94" x2="1111.17" y2="218.54"/><line class="m" x1="1113.96" y1="211.94" x2="1113.96" y2="218.54"/><line class="m" x1="1116.75" y1="211.94" x2="1116.75" y2="218.54"/><line class="m" x1="1119.54" y1="211.94" x2="1119.54" y2="218.54"/><path class="c" d="M594.77,522.85l13.87-5,10,34.89-23,1.32S594.69,522.2,594.77,522.85Z"/><polygon class="d" points="608.82 528.75 610.22 538.56 614.37 536.65 608.82 528.75"/><path class="e" d="M608.64,517.88l3.08-3.15s-13.57-.55-16.48,2.39c-3.51,3.53-.29,13.29-.29,13.29s-.28-2.86,1-3.15c.71-.16,1.41,1.18,1.41,1.18l1.21-6.68Z"/><ellipse class="e" cx="603.84" cy="528.24" rx="1.03" ry="1.48" transform="translate(-149.47 252.24) rotate(-21.06)"/><ellipse class="e" cx="610" cy="527.05" rx="1.03" ry="1.48" transform="translate(-148.64 254.37) rotate(-21.06)"/><path class="d" d="M593.92,554.64,593,595S629,596.68,629,593.86c0-4.1,0-2.88-8.85-43.66Z"/><polygon class="d" points="592.96 594.99 599.25 656.69 605.87 656.69 610.94 608.24 618.46 656.69 625.07 656.69 629.03 593.86 612.48 587.98 592.96 594.99"/><path class="d" d="M593.92,554.64c-10.18,2.83-21.2,14.17-20.73,24.09s9.13,17.15,9.13,17.15l3.94-5.19s-7.09-5.51-6-12.44,14.48-11.65,14.48-11.65Z"/><polygon class="h" points="590.35 593.52 596.33 594.78 596.96 601.39 586.73 595.73 590.35 593.52"/><path class="d" d="M620.18,550.2c8.5,1,23.54,10.89,25.43,20.81s-8,20.31-8,20.31l-2.84-6.93s4.57-5.66,4.25-11.8-15.51-14-18.82-14Z"/><polygon class="h" points="624.67 597.93 626.56 590.06 632.7 587.23 634.12 591.79 625.93 598.4 624.67 597.93"/><polygon class="c" points="586.26 590.69 590.35 593.52 586.89 598.4 582.32 595.88 586.26 590.69"/><path class="c" d="M634.74,584.39l-3.93,3.15,2.05,6.14s4.88-1.42,4.72-2.36S634.74,584.39,634.74,584.39Z"/><polygon class="c" points="605.15 553.14 610.73 567.58 603.23 560.07 603.81 557.43 602.11 556.2 601.45 553.75 605.15 553.14"/><polygon class="c" points="611.07 552.14 611.02 570.45 615.02 558.15 613.66 555.82 614.9 554.13 614.81 551.49 611.07 552.14"/><polygon class="o" points="599.25 656.69 592.55 659.56 606.09 659.4 605.87 656.69 599.25 656.69"/><polygon class="o" points="618.46 656.69 618.69 659.56 631.12 659.25 625.07 656.69 618.46 656.69"/><path class="c" d="M516.54,522.85l13.87-5,10,34.89-23,1.32S516.47,522.2,516.54,522.85Z"/><polygon class="d" points="530.59 528.75 531.99 538.56 536.14 536.65 530.59 528.75"/><path class="e" d="M530.41,517.88l3.09-3.15s-13.57-.55-16.49,2.39c-3.51,3.53-.29,13.29-.29,13.29s-.28-2.86,1-3.15c.71-.16,1.42,1.18,1.42,1.18l1.2-6.68Z"/><ellipse class="e" cx="525.62" cy="528.24" rx="1.03" ry="1.48" transform="translate(-154.7 224.13) rotate(-21.06)"/><ellipse class="e" cx="531.78" cy="527.05" rx="1.03" ry="1.48" transform="translate(-153.86 226.27) rotate(-21.06)"/><path class="d" d="M515.69,554.64l-1,40.35s36.07,1.69,36.07-1.13c0-4.1,0-2.88-8.85-43.66Z"/><polygon class="d" points="514.74 594.99 521.03 656.69 527.64 656.69 532.72 608.24 540.24 656.69 546.85 656.69 550.81 593.86 534.25 587.98 514.74 594.99"/><path class="d" d="M515.69,554.64c-10.18,2.83-21.2,14.17-20.72,24.09s9.13,17.15,9.13,17.15l3.93-5.19s-7.08-5.51-6-12.44,14.48-11.65,14.48-11.65Z"/><polygon class="h" points="512.13 593.52 518.11 594.78 518.74 601.39 508.5 595.73 512.13 593.52"/><path class="d" d="M542,550.2c8.49,1,23.53,10.89,25.42,20.81s-8,20.31-8,20.31l-2.83-6.93s4.56-5.66,4.25-11.8-15.52-14-18.82-14Z"/><polygon class="h" points="546.44 597.93 548.33 590.06 554.47 587.23 555.89 591.79 547.7 598.4 546.44 597.93"/><polygon class="c" points="508.03 590.69 512.13 593.52 508.66 598.4 504.1 595.88 508.03 590.69"/><path class="c" d="M556.52,584.39l-3.94,3.15,2,6.14s4.88-1.42,4.72-2.36S556.52,584.39,556.52,584.39Z"/><polygon class="c" points="526.92 553.14 532.51 567.58 525 560.07 525.59 557.43 523.89 556.2 523.22 553.75 526.92 553.14"/><polygon class="c" points="532.85 552.14 532.8 570.45 536.8 558.15 535.43 555.82 536.67 554.13 536.58 551.49 532.85 552.14"/><polygon class="o" points="521.03 656.69 514.33 659.56 527.87 659.4 527.64 656.69 521.03 656.69"/><polygon class="o" points="540.24 656.69 540.46 659.56 552.9 659.25 546.85 656.69 540.24 656.69"/><path class="c" d="M441.88,522.85l13.87-5,10,34.89-23,1.32S441.8,522.2,441.88,522.85Z"/><polygon class="d" points="455.93 528.75 457.33 538.56 461.48 536.65 455.93 528.75"/><path class="e" d="M455.75,517.88l3.08-3.15s-13.57-.55-16.48,2.39c-3.51,3.53-.29,13.29-.29,13.29s-.28-2.86,1-3.15c.72-.16,1.42,1.18,1.42,1.18l1.21-6.68Z"/><ellipse class="e" cx="450.95" cy="528.24" rx="1.03" ry="1.48" transform="translate(-159.68 197.31) rotate(-21.06)"/><ellipse class="e" cx="457.11" cy="527.05" rx="1.03" ry="1.48" transform="translate(-158.85 199.44) rotate(-21.06)"/><path class="d" d="M441,554.64l-1,40.35s36.07,1.69,36.07-1.13c0-4.1,0-2.88-8.85-43.66Z"/><polygon class="d" points="440.07 594.99 446.37 656.69 452.98 656.69 458.05 608.24 465.57 656.69 472.18 656.69 476.14 593.86 459.59 587.98 440.07 594.99"/><path class="d" d="M441,554.64c-10.18,2.83-21.2,14.17-20.73,24.09s9.13,17.15,9.13,17.15l3.94-5.19s-7.09-5.51-6-12.44,14.48-11.65,14.48-11.65Z"/><polygon class="h" points="437.46 593.52 443.44 594.78 444.07 601.39 433.84 595.73 437.46 593.52"/><path class="d" d="M467.29,550.2c8.49,1,23.54,10.89,25.43,20.81s-8,20.31-8,20.31l-2.84-6.93s4.57-5.66,4.25-11.8-15.51-14-18.82-14Z"/><polygon class="h" points="471.78 597.93 473.67 590.06 479.81 587.23 481.22 591.79 473.04 598.4 471.78 597.93"/><polygon class="c" points="433.37 590.69 437.46 593.52 434 598.4 429.43 595.88 433.37 590.69"/><path class="c" d="M481.85,584.39l-3.93,3.15,2,6.14s4.88-1.42,4.73-2.36S481.85,584.39,481.85,584.39Z"/><polygon class="c" points="452.26 553.14 457.84 567.58 450.34 560.07 450.92 557.43 449.22 556.2 448.56 553.75 452.26 553.14"/><polygon class="c" points="458.18 552.14 458.13 570.45 462.13 558.15 460.77 555.82 462.01 554.13 461.92 551.49 458.18 552.14"/><polygon class="o" points="446.37 656.69 439.67 659.56 453.2 659.4 452.98 656.69 446.37 656.69"/><polygon class="o" points="465.57 656.69 465.8 659.56 478.23 659.25 472.18 656.69 465.57 656.69"/><polygon class="p" points="953.39 343.98 946.61 343.98 947.82 359.66 955.65 356.19 953.39 343.98"/><polygon class="q" points="810.19 239.65 809.18 233.86 821.52 235.27 820.72 240.2 810.19 239.65"/><polygon class="o" points="893.19 456.73 899.36 463.29 896.46 466.95 894.77 466.51 884.98 478.39 887.23 465.22 893.19 456.73"/><polygon class="o" points="978.32 459.87 974.98 467.46 978.87 471.04 980.18 469.73 992.35 477.64 986.43 463.01 978.32 459.87"/><line class="b" x1="853.46" y1="659.5" x2="233.46" y2="659.5"/><polyline class="r" points="274.05 536.62 364.77 449.96 413.52 494.65 513.72 403.93 577.02 474.02 699.07 344.34"/><polyline class="r" points="661.03 344.11 699.23 344.11 699.23 381.86"/></svg>