<svg xmlns="http://www.w3.org/2000/svg" xmlns:xlink="http://www.w3.org/1999/xlink" viewBox="0 0 988 296"><defs><style>.a,.h{fill:none;}.b{fill:#0c56ab;}.c{fill:#e6e7e8;}.d{clip-path:url(#a);}.e,.k{fill:#fff;}.f{fill:#73b564;}.g{fill:#9c8fc4;}.h{stroke:#4beabc;stroke-miterlimit:10;stroke-width:0.3px;}.i{fill:#1b75bc;}.j{fill:#6d6e71;}.k{opacity:0.4;}</style><clipPath id="a"><circle class="a" cx="480.31" cy="118.19" r="115.48"/></clipPath></defs><title>q2</title><path class="b" d="M644.2,268.33s-86.79,7.37-138-24.34l6.58-14.32c18.38,15.12,101.63,27.24,114.65,15.46"/><polygon class="c" points="506.25 243.99 486.74 233.76 491.79 220.68 512.83 229.67 506.25 243.99"/><g class="d"><rect class="b" x="344.12" y="-11.21" width="306.2" height="293.54"/><path class="a" d="M370.59,88.33c-1.41.62-1.86,1.46-.78,1.46a5.75,5.75,0,0,0,1.79-.61c1-.54,1.15-.67.78-1S371.78,87.8,370.59,88.33Z"/><path class="a" d="M364.88,82.87a1.56,1.56,0,0,1,1.9,0,2.94,2.94,0,0,0,1.68.3c.37-.09.76,0,.87.12s-.32.37-.95.48c-1.71.29-2.6,1-3.85,3.09-1,1.74-1.09,2-.68,2.41s.52.45,1.08.06a6.37,6.37,0,0,0,1.35-2c.78-1.64,2.24-2.86,3.41-2.86.85,0,.85.14.08,1.12l-.61.78.63.5a1,1,0,0,0,1.34.18,1.83,1.83,0,0,0,.89-.89c.13-.42.35-.52.86-.39a.76.76,0,0,0,1-.33c.59-1.07-.92-2.42-2-1.83a1.14,1.14,0,0,1-1.43-.42,1.1,1.1,0,0,1-.19-.9,1.9,1.9,0,0,0-.37-1.3c-.61-.8-1.54-.88-3.55-.32a9,9,0,0,1-1.84.35c-.28,0-.44.1-.34.25s.06.27-.07.28a3.39,3.39,0,0,0-1,.57l-.73.56.82.31A1.78,1.78,0,0,0,364.88,82.87Z"/><path class="a" d="M521.05,91.05c.56.22,1.35,0,1.35-.44a3.54,3.54,0,0,0-.61-1.15c-.5-.7-.7-.79-1.17-.54s-.57.2-.57,0-.51-.56-1.16-.89c-1.41-.72-1.91-1.51-1.47-2.34a1.85,1.85,0,0,1,2-.75c.69.43.89-.2.32-1-1.37-1.92-3.28-1.79-5.65.38-1.53,1.41-1.66,1.78-.8,2.24a1.11,1.11,0,0,1,.59.76A5,5,0,0,0,515.06,89c1.47,1.59,1.74,2.31,1.55,4.2l-.14,1.51,2,1c1.11.56,2,1,2.1,1a6.37,6.37,0,0,0,1-.43,1.46,1.46,0,0,0,.7-.58,0,0,0,0,0,0,0,2.62,2.62,0,0,0,.15-1.13,2.3,2.3,0,0,0-.46-1.66,5,5,0,0,1-.91-1.25C520.62,91,520.62,90.89,521.05,91.05Z"/><path class="a" d="M376.8,87c.6-.42.63-.51.2-.75-.63-.36-2.52.26-2.52.82S375.94,87.56,376.8,87Z"/><path class="e" d="M687.48,162.77c-.63-.12-.88.09-.62.53.15.24.34.22.67-.05S687.94,162.86,687.48,162.77Z"/><path class="e" d="M681.47,171.65a.35.35,0,0,0-.13.5c.11.19.26.16.42-.09C682.05,171.59,681.9,171.37,681.47,171.65Z"/><path class="e" d="M677.64,157.59c-.16.1-.29.24-.29.32s.13.13.29.13a.31.31,0,0,0,.29-.32C677.93,157.55,677.8,157.5,677.64,157.59Z"/><path class="e" d="M675.57,167.39a.94.94,0,0,0,1-.09c.5-.3.49-.34-.22-.43C675.4,166.76,675,167,675.57,167.39Z"/><path class="e" d="M674.6,168.06c-.81-.37-1.17-.11-.88.64.22.57.43.58,1.1.08C675.31,168.43,675.3,168.38,674.6,168.06Z"/><path class="e" d="M672.05,142.8c-.17,0-.22.13-.12.3s.23.29.31.29.13-.13.13-.29A.31.31,0,0,0,672.05,142.8Z"/><path class="e" d="M669.57,134.6c-.07,0-.13.13-.13.29a.3.3,0,0,0,.31.3c.17,0,.23-.13.13-.3S669.64,134.6,669.57,134.6Z"/><path class="e" d="M663.87,145.29c-.16.1-.29.24-.29.31s.13.13.29.13a.3.3,0,0,0,.3-.31C664.17,145.25,664,145.19,663.87,145.29Z"/><path class="e" d="M662.77,195.19c-.52.29-.71.2-1.38-.6a1.88,1.88,0,0,1-.61-1.86c.13-.67,0-1-.32-1.34s-.47-.29-.29,1.12c.27,2.05,0,2.89-1,3.31-1.3.54-1.86,1.3-1.48,2,.26.49.19.69-.4,1.16-.4.31-.65.65-.55.76a.64.64,0,0,0,.31.18,9.31,9.31,0,0,0,2.71-1.76,16.77,16.77,0,0,1,2.27-1.58,3.22,3.22,0,0,0,1-.6,3.83,3.83,0,0,1,.19-.61C663.35,194.94,663.29,194.92,662.77,195.19Z"/><path class="e" d="M663.2,166.29a.59.59,0,0,0,0-.56c-.1-.1-.16.08-.15.38S663.1,166.52,663.2,166.29Z"/><path class="e" d="M662.48,167.11c.31,0,.29,0-.35-1.34s-.83-.74-.23.55C662.1,166.76,662.36,167.11,662.48,167.11Z"/><path class="e" d="M659.77,174.49a3.67,3.67,0,0,0-.89-1.09,11.88,11.88,0,0,1-1.62-2.1c-.85-1.45-1-1.53-1-.55a5.15,5.15,0,0,0,1.49,2.35C659.15,174.62,659.77,175.05,659.77,174.49Z"/><path class="e" d="M655,158.62c-.19,0-.17.17.06.45s.43.38.51.31S655.39,158.62,655,158.62Z"/><path class="e" d="M652.73,200.23a22.13,22.13,0,0,1-4.09,2.35c-4.33,1.81-6.07,3-5.23,3.52,1.2.76,3.82-.11,5.89-2a3.91,3.91,0,0,1,1.69-1,2,2,0,0,0,1.19-.7,6.07,6.07,0,0,1,1.74-1.21c1.3-.58,1.62-1.13,1.08-1.9C654.66,198.83,654.5,198.9,652.73,200.23Z"/><path class="e" d="M655,157.84a1.92,1.92,0,0,0-.18-1c-.19-.47-.29-.55-.3-.22a3.08,3.08,0,0,0,.18,1C654.81,157.91,655,158,655,157.84Z"/><path class="e" d="M653.33,157.89c.4.48.88.58.88.17,0-.14-.21-.34-.46-.43C653,157.35,652.93,157.41,653.33,157.89Z"/><path class="e" d="M653.42,156.57c.17,0,0-.33-.39-.73-.8-.86-1.22-.72-.43.14A1.72,1.72,0,0,0,653.42,156.57Z"/><path class="e" d="M650.68,155.69c-.16,0-.12.26.08.59s.47.58.6.58.09-.26-.08-.58S650.84,155.69,650.68,155.69Z"/><path class="e" d="M651.08,155.1c.16,0,0-.26-.24-.58a1.85,1.85,0,0,0-.82-.59c-.17,0-.06.27.23.59A1.73,1.73,0,0,0,651.08,155.1Z"/><path class="e" d="M648.4,154.14a.51.51,0,0,0,.59.2c.16-.1.1-.37-.14-.65a9.53,9.53,0,0,1-.77-1.08c-.31-.52-.33-.48-.16.3A3.56,3.56,0,0,0,648.4,154.14Z"/><path class="e" d="M644.51,149.08a4.33,4.33,0,0,1,1.4,1.24c.29.43.56.62.63.41.21-.65-2.33-2.71-2.79-2.26C643.67,148.55,644,148.83,644.51,149.08Z"/><path class="e" d="M644.25,152.91c1.09-.81,1.45-1.27,1.46-1.86,0-.24-.39-.05-1,.47a5.28,5.28,0,0,1-2.12,1.08l-1.12.21.72.4C643.16,153.75,643.1,153.75,644.25,152.91Z"/><path class="e" d="M642.56,158.18c-1.72-1.31-3.38-3.63-3-4.14s-.39-1.79-2.47-3.16a20.39,20.39,0,0,0-3.37-1.8c-.75-.27-2.22-.87-3.25-1.34l-1.87-.85-1.35.78a8.47,8.47,0,0,0-1.81,1.35c-.46.58-.48.58-1.1-.22a2.86,2.86,0,0,1-.63-1.28,2,2,0,0,0-1.56-1.78,3.53,3.53,0,0,0-1.31.38c-.64.36-.62.38.73,1s1.34.71.86,1.07c-.82.6-.37,1.61.72,1.61a11.14,11.14,0,0,1,3.13,1.13c1.81.92,2.37,1.36,2.77,2.2.5,1,.5,1.05-.25,1.54s-.68.53-.28.75a1.52,1.52,0,0,0,1.08.07c.42-.13.84,0,1.38.54a4.54,4.54,0,0,0,1.88.92c1,.18,1.14.13,1.71-.83a3,3,0,0,1,1.18-1.21c.77-.25,2.3.69,3.13,1.93a5.49,5.49,0,0,0,3.42,2.21C644.43,159.75,644.46,159.62,642.56,158.18Z"/><path class="e" d="M638.71,173.41a13,13,0,0,0-2-3.08c-.93-1-1-1.11-.71-2.06a5.63,5.63,0,0,0-1-4.67,6.06,6.06,0,0,1-1.17-2.24,3.61,3.61,0,0,0-.7-1.57c-.43,0-1.25,2.38-1.42,4.1a5.31,5.31,0,0,1-1.15,3,6.4,6.4,0,0,1-1.34,1.49,8.88,8.88,0,0,1-2.61-1.47c-2.68-1.89-3-2.54-1.88-4.2.86-1.28.78-1.38-1.51-2a2.54,2.54,0,0,0-2.34.22,12.12,12.12,0,0,1-1.84.74c-.75.18-2.28,2.1-1.95,2.44.1.1,0,.36-.13.57-.37.44-1.13.15-2.2-.82-.58-.52-.69-.53-1.76-.11a4.78,4.78,0,0,0-1.83,1.47,3.52,3.52,0,0,1-1.24,1.19.71.71,0,0,0-.48.82c.07.63-.1.7-1,.36-.31-.12-.67.25-1.18,1.22-.82,1.56-2.33,2.72-3.54,2.72a20.22,20.22,0,0,0-4,1.37c-3.14,1.33-3.25,1.41-3.72,2.62a4.17,4.17,0,0,0-.31,1.89,15.55,15.55,0,0,1-.14,3.25,13.06,13.06,0,0,0,0,4.32,3.91,3.91,0,0,1-.23,3,3.39,3.39,0,0,1-1,1.5c-.7.27-.25,1,.84,1.37.81.26,1.26.2,2.87-.4a18.71,18.71,0,0,1,3.91-.93,11.35,11.35,0,0,0,3.36-.88,20.46,20.46,0,0,1,6.8-1.75c1.79-.17,2.11-.12,3,.49a5.67,5.67,0,0,1,1.7,2.1c.37.77.72,1.28.77,1.12a5.65,5.65,0,0,1,1.43-1.18c1.68-1.13,2.18-.74.91.71-.52.59-.87,1.16-.76,1.26s.31,0,.47-.32c.38-.69.85-.65.85.06a3.75,3.75,0,0,0,.32,1.28,1.34,1.34,0,0,1,0,1.38c-.31.58-.27.73.34,1.2,1.13.89,2.56,1.17,3.31.68.59-.39.7-.36,1.32.29h0l.67.72,1-.78a3.5,3.5,0,0,1,2.28-.81c1.15,0,1.35-.15,2.45-1.55a6.43,6.43,0,0,1,1.49-1.52,4.87,4.87,0,0,0,1.33-1.45,5.48,5.48,0,0,1,1.61-1.63c.87-.27,2.52-2.14,3.63-4.1a10.44,10.44,0,0,0,1.31-4.07l.32-2.31-1.13-1.5A23.1,23.1,0,0,1,638.71,173.41Z"/><path class="e" d="M632.6,59.73a.59.59,0,0,1,.61.12,5.57,5.57,0,0,0,3.29.81l.73-.17-1-.84c-1.54-1.33-2.19-1.59-3.19-1.23a2.35,2.35,0,0,1-.68.14l.05,1.19A.3.3,0,0,0,632.6,59.73Z"/><path class="f" d="M578.33,124a18,18,0,0,0,1.08,2.94,3.82,3.82,0,0,1,.57,2.64c-.07.37-.15.95-.21,1.54l1,.1a6.28,6.28,0,0,1,.16-.91,10.19,10.19,0,0,0,.25-2.44c0-.71.06-1,.33-1,.77,0,3.54,2.22,4.5,3.61.38.56.58.63,1.05.37s.63-.21.77.17a1.77,1.77,0,0,1,0,1,1.22,1.22,0,0,0,0,.83c.24.38,1.54-.47,1.76-1.15a2.75,2.75,0,0,1,1.31-1,2.64,2.64,0,0,0,1.6-3.26,10.58,10.58,0,0,0-3-5.36c-1.55-1.22-2.48-2.75-2.22-3.61a3.55,3.55,0,0,1,2.13-2.18c1.21-.51,2.05-.27,2.42.7l.28.74.6-.77a3.6,3.6,0,0,1,2.76-1.5,13.14,13.14,0,0,0,2.68-.71c2.53-.92,3.49-2.19,4.56-6,.88-3.14.87-3.68,0-3.68-.76,0-1-.48-.46-.81s.31-1-.76-1.65a4.85,4.85,0,0,1-1.5-1.79,3.85,3.85,0,0,0-1.33-1.59c-.59-.27-.69-.47-.53-1.13s.61-1.26,1.94-2.15l.71-.48-1.28-.35c-1.07-.29-1.36-.28-1.71.08s-.59.33-1.69-.28a7.83,7.83,0,0,1-1.66-1.18c-.33-.4-.3-.52.18-.8a9.53,9.53,0,0,0,1.57-1.41c.82-.89,1.11-1,1.56-.79a1,1,0,0,1,.54.74,2.67,2.67,0,0,0,.31,1c.31.58.32.58,1.32,0s1-.62,2-.07c.65.38,1,.78,1,1.25s.21.75.83.91c1.23.34,1.94,1.09,2.75,3l.72,1.66,1.21-.6c.67-.34,1.27-.66,1.34-.72a2.77,2.77,0,0,0-.38-1.21,6.76,6.76,0,0,0-2.54-2.51,8.51,8.51,0,0,1-2-1.69c0-.15.32-.43.71-.61.85-.39,1.17-1.05.74-1.57-.22-.27-.13-.71.32-1.58a6.61,6.61,0,0,1,.73-1.19,6.69,6.69,0,0,1,.88.3c1.14.43,1.92-.19,2.61-2.1,1-2.75.76-6.94-.44-7.59a3.85,3.85,0,0,1-1.14-1.41c-.75-1.48-3.18-3.37-4-3.09a4.83,4.83,0,0,1-3.63-.46c-1.15-.58-1.19-.64-.79-1.26a8,8,0,0,0,.76-2,5,5,0,0,1,1.07-2c.64-.6,1-.68,3.12-.71a18,18,0,0,0,3.16-.24,3,3,0,0,1,1.89.26,3.7,3.7,0,0,0,1.93.29c.7-.15.79-.29.66-1a3.42,3.42,0,0,1,.16-1.63c.3-.79.39-.83,1.56-.64a5.91,5.91,0,0,1,1.92.64c.86.57,1.62.32,1.37-.46a.78.78,0,0,1,1.39-.67c.9,1,1.07,1.65.64,2.42a3.73,3.73,0,0,0-.42,1.4A4,4,0,0,1,619.5,69c-.42.82-.4.9.88,2.59a15,15,0,0,0,2.41,2.54,16.36,16.36,0,0,1,2.16,2c.85.93,1.19,1.12,1.7,1s.59-.34.44-.69a5.76,5.76,0,0,1-.29-1.22,5.68,5.68,0,0,0-.28-1.24.46.46,0,0,1,.27-.69c.42-.16.42-.26,0-.95a12.49,12.49,0,0,1-.71-1.55,3,3,0,0,0-1.54-1.38c-1.47-.71-2.5-2.14-1.92-2.63a4.13,4.13,0,0,1,1.24-.51,8.65,8.65,0,0,0,1.68-.62,1.41,1.41,0,0,1,1.65,0c.77.4.89.38,1.47-.15a2,2,0,0,0,.62-.85c0-.46,1.78-1.24,2.51-1.1s1.56-.2,1.29-.47a29.71,29.71,0,0,0-2.78-1.16c-2.66-1-3.16-1.58-1.34-1.45,1,.07,1,.06.47-.51-.75-.82,0-1,1.62-.47a5.12,5.12,0,0,0,1.37.31l-.05-1.19a3.45,3.45,0,0,1-1.58-.53,11.43,11.43,0,0,0-3.13-.91,15.92,15.92,0,0,1-3.07-.72,46,46,0,0,0-8.93-1.63c-2-.21-2.05-.21-1.52.39.74.82.19,1-1.16.46-.83-.37-2.11-.5-4.94-.53-3.07,0-4-.14-4.81-.57s-1.85-.56-5.17-.65c-3.49-.09-4.39-.22-5.58-.76a9.14,9.14,0,0,0-2.45-.71c-.56,0-1.86-.22-2.89-.41-2.24-.4-4.07-.17-3.56.45.27.32.16.5-.54.86a3.12,3.12,0,0,1-2.43.15,3.59,3.59,0,0,0-2.62.18c-1,.46-1.1.45-2.58-.36l-2.74-1.48a8.13,8.13,0,0,0-5.55-.36,4.91,4.91,0,0,1-2.8-.14,4.9,4.9,0,0,0-2.7-.17,4,4,0,0,1-2.44-.14A4.49,4.49,0,0,0,556,51c-2.4.62-2.83.14-.84-1a5.91,5.91,0,0,0,1.51-1c0-.11-.36-.43-.8-.74-.65-.43-1.38-.54-3.59-.55-2.06,0-3-.14-3.73-.51a4.31,4.31,0,0,0-1.7-.51c-.42,0-.69-.12-.6-.25.18-.29-2.65-.93-4.11-.93a1.79,1.79,0,0,1-1.14-.28,1.67,1.67,0,0,0-1.14-.3A5.11,5.11,0,0,1,538,44.5c-1.26-.63-2.77-.63-3.38,0s-.23.81,5.6,1.26c2.13.17,2.38.25,2.28.74s.29.75.6.26,2.78-.4,2.78,0a3.41,3.41,0,0,1-1,1,2.33,2.33,0,0,1-2.29.59c-1.11-.16-5.93.51-6.3.88-.08.08,0,.33.21.56.49.59-.06.88-1.76.91a4.12,4.12,0,0,0-2.16.61c-2.15,1.53-2.93,1.87-3.89,1.7-.63-.12-1-.06-1,.17a2.52,2.52,0,0,0,1.47,1.92,2,2,0,0,1,1.29,2.35c-.21.82-1.68,1.74-2.37,1.48-.36-.14-.32-.31.2-1,.7-1,.75-.85-1.4-3.73-1.67-2.22-2.19-2.57-3.39-2.27-2.07.52-1.93,2.23.27,3.31.71.34,1.29.75,1.29.91,0,.46-1,.91-1.36.58-.49-.49-8.64-2.39-8.95-2.09s1.09.77,1.51.51,1,.63.75,1a.33.33,0,0,1-.47.14,7.88,7.88,0,0,0-2.33.17c-1.59.27-2.15.27-2.48,0-.59-.49-2.19-.15-4.24.93-1.4.74-1.8.83-2.31.56-.33-.19-.58-.49-.54-.68s-.31-.41-.78-.46c-.88-.11-.87-.15-.26,1.34.16.39,0,.46-1.92,1-.9.23-1.22.44-1.11.74.25.63-.8,1.07-1.72.72-1.15-.45-1.57-.34-.66.16s1,.65.06,1-2.88-.57-3.47-1.71a3,3,0,0,0-1.23-1.19c-.58-.26-.71-.45-.46-.69s.77-.24,2,0c.93.2,2.19.44,2.8.53,1.33.19,2.87-.37,2.65-1s-5.62-2.26-6.63-2a2.6,2.6,0,0,1-1.9-.52c-1.49-.93-3.3-1.3-6.07-1.23a10.72,10.72,0,0,0-3.81.67c-.8.33-2.08.82-2.85,1.1s-1.39.62-1.39.78a4.73,4.73,0,0,1-1.2,1.37,9,9,0,0,0-1.59,1.81c-.47.91-3.25,2.86-4.61,3.24s-2.68,1.61-2.41,2.26a6,6,0,0,1,.26,1.34,2.38,2.38,0,0,0,2.08,1.94,4.21,4.21,0,0,0,1.6-.62l1-.62.8,1a5.34,5.34,0,0,1,1,1.76,3,3,0,0,0,.52,1.07,1.66,1.66,0,0,0,.25.27c.57.52.62.52,1.66-.08a3.27,3.27,0,0,0,1.53-1.83,4.15,4.15,0,0,1,1.17-1.7c.89-.61,1.25-1,1.1-1.36a.84.84,0,0,0-.53-.33,2.42,2.42,0,0,1-1.05-.89c-.4-.61-.4-.77,0-1.54a3,3,0,0,1,1.31-1.22,8.29,8.29,0,0,0,2.17-1.8c1.37-1.5,1.95-1.73,2.54-1,.41.49.15,1.12-1.26,3.08-.7,1-.88,1.67-.5,2.23a2.71,2.71,0,0,0,1.19.86,2.86,2.86,0,0,0,1.68.37c.28,0,.61-.09,1-.18,1.51-.34,3.3-.2,3.59.28s-1.6,1.15-3.15,1a6.45,6.45,0,0,0-1.38,0,1.49,1.49,0,0,0-.6.14c-.37.25-.33.41.27,1s.66.81.28,1.18-.59.38-1.39.08c-1.17-.45-1.62,0-1.37,1.41.17.94-.2,1.45-1.52,2.14a1.34,1.34,0,0,1-1.33,0c-.55-.25-1-.18-2.26.28-1.39.53-1.64.55-2.37.17a1.84,1.84,0,0,0-1.77-.08c-.88.31-1,.27-1.62-.51-.37-.46-.61-.91-.52-1s.13,0,.22,0l0-.43c-.3,0-.32-.22-.17-1.13l.19-1.21-.75.49a2.85,2.85,0,0,0-.92.94,2.84,2.84,0,0,0,.45,2.17c.58.38-.65,1.38-1.86,1.53a4.37,4.37,0,0,0-2.72,1.51,8.3,8.3,0,0,1-2.1,1.53,2.31,2.31,0,0,0-1.11.86c-.52.79-2.08,1.7-2.5,1.44-.15-.09-.63.07-1.06.35a3.9,3.9,0,0,1-1.81.52c-1.49,0-1.46.58.06,1.16,1,.39,1.38.7,1.63,1.46.39,1.17.11,3.26-.53,3.89-.46.46-2.42.43-5.78-.08-1.45-.22-2.32.43-2,1.53a8.16,8.16,0,0,1-.26,2.57c-.56,2.41-.43,4.09.31,4.21a3.57,3.57,0,0,1,2.53,1.1,2.63,2.63,0,0,0,.67.58c.16,0,.24-.11.41-.43s.62-.6,1.51-.6a4.93,4.93,0,0,0,1.82-.33c1.1-.57,2.25-1.81,2.25-2.44s1-2.5,1.39-2.5a4.12,4.12,0,0,0,1.07-.73,3,3,0,0,1,1.25-.74c.28,0,.35-.21.23-.71-.24-.93.69-1.45,2.16-1.2a4.79,4.79,0,0,0,3.6-1.1c.94-.64,1.6-.41,2.2.74s2.69,3.15,3.25,3.15c1.51,0,3.33,2,3.09,3.37l-.15.88.67-.65c.59-.56.63-.75.34-1.38-.41-.9-.08-1.17,1.11-.9.56.12.83.13.83,0s-.57-.5-1.71-1.07c-1.83-.92-5.57-4.36-5.57-5.13a1,1,0,0,1,.57-.71c.45-.24.65-.2,1,.24a3.93,3.93,0,0,0,1.44,1,4,4,0,0,1,1.47,1,3.62,3.62,0,0,0,1.65,1,3.37,3.37,0,0,1,2.41,2.86,2.85,2.85,0,0,0,.1.79,3,3,0,0,0,2.68,2c.34.06.52.18.56.31l.85,0-.24-.45c-.59-1.11-.63-1.36-.27-1.65a.92.92,0,0,1,.85-.17c.25.09.45,0,.45-.11,0-.51,1.09-.86,1.94-.63a5.74,5.74,0,0,0,2.14,0l1-.22.27-.06-.71-.53c-.69-.51-.7-.59-.34-2,.78-2.9,3.44-5.84,4.28-4.72a2.19,2.19,0,0,0,.86.62c.44.17.48.29.2.62s-.2.51.38.89.8.45,1.85-.11c.86-.45,1-.59.5-.6a1.5,1.5,0,0,1-1-.45c-.3-.35-.1-.54,1.26-1.14,2.32-1,2.79-1.15,2.73-.71a2.41,2.41,0,0,1-.3.76c-.13.22-.16.47-.07.56s0,.52-.25,1l-.41.79,2.19,1.24a11.29,11.29,0,0,1,2.64,1.93c.4.62.4.76,0,1.41-.82,1.26-2.86,1.33-5.16.17-1.71-.85-3.9-1-4.87-.39a4.33,4.33,0,0,1-1.86.59,2.71,2.71,0,0,0-1.83.83l-.16.16a1.39,1.39,0,0,1-1.28.45,1.72,1.72,0,0,0-1.1.13c-.37.25-.34.36.22.76a1.54,1.54,0,0,1,.66,1,3.1,3.1,0,0,0,1.13,2.25c.81.5,2.31.74,2.52.4s1.27-.38,2.24.19a1.55,1.55,0,0,0,1.8.12c1.75-.72,2.48-.74,2.83-.07.22.41.23.62,0,.62s-.31.49-.31,1.09c0,1.86-.13,2.72-.32,2.72s-.26.46-.35,1l16,3.77a.29.29,0,0,1,0-.09,1.57,1.57,0,0,1,.63-1c.77-.3,2,.61,2.6,1.88.45,1,.88,1.38,2.32,2.11,1.68.84,1.86.88,3.1.54s1.31-.35,2,.43l.2.22A4.62,4.62,0,0,0,530,111a34.11,34.11,0,0,0,8.12.09,2.36,2.36,0,0,1,2.6,1.24c.11.32.3.58.44.58a4,4,0,0,1,1.14.76,2.38,2.38,0,0,0,1.38.65c.77-.13.84.62.09.9l-.67.24.78.78c1.17,1.17,2.67,1,2.7-.37a.61.61,0,0,1,.37-.54c.5-.17,1,1.32.8,2.3-.32,1.45.24,3,4,11a20.9,20.9,0,0,1,1.31,3.41,1.67,1.67,0,0,0,.92,1.32c.88.4,1,.36,2-1.16s1.51-4.16,1.22-7.28c0-.54.26-1,1.25-1.72a9,9,0,0,0,1.81-1.83,2.44,2.44,0,0,1,1.06-1,1.89,1.89,0,0,0,.9-.91,3.18,3.18,0,0,1,1.38-1.23c.71-.34,1-.65.92-1-.23-.89.38-1.4,2.07-1.75a11.83,11.83,0,0,0,2.11-.58c.66-.36,1.31.13,1.89,1.43a2.93,2.93,0,0,0,1.39,1.53c1,.41,2.72,3.48,2.44,4.36-.15.48.49,1.47,1,1.47a3.39,3.39,0,0,0,1-.73C577.34,122,577.92,122.32,578.33,124ZM521,91.74a5,5,0,0,0,.91,1.25,2.3,2.3,0,0,1,.46,1.66,2.62,2.62,0,0,1-.15,1.13,0,0,0,0,1,0,0,1.46,1.46,0,0,1-.7.58,6.37,6.37,0,0,1-1,.43c-.05,0-1-.48-2.1-1l-2-1,.14-1.51c.19-1.89-.08-2.61-1.55-4.2a5,5,0,0,1-1.15-1.69,1.11,1.11,0,0,0-.59-.76c-.86-.46-.73-.83.8-2.24,2.37-2.17,4.28-2.3,5.65-.38.57.8.37,1.43-.32,1a1.85,1.85,0,0,0-2,.75c-.44.83.06,1.62,1.47,2.34.65.33,1.16.73,1.16.89s.2.2.57,0,.67-.16,1.17.54a3.54,3.54,0,0,1,.61,1.15c0,.4-.79.66-1.35.44S520.62,91,521,91.74Z"/><path class="e" d="M626.76,199.59a12,12,0,0,0-1.25-.09,6.87,6.87,0,0,1-1.69-.27c-.59-.21-.66-.14-.66.69a3.83,3.83,0,0,1-.32,1.52c-.26.46-.23.66.07.85.54.35.48.36,1.86-.45C625.94,201.15,627.24,199.67,626.76,199.59Z"/><path class="e" d="M623.75,134.45a.66.66,0,0,0-.3.48c0,.16.13.21.3.11a.65.65,0,0,0,.28-.47C624,134.41,623.9,134.36,623.75,134.45Z"/><path class="g" d="M621.7,98.92c.25-.3.21-.57-.17-1.21-.27-.46-.42-1-.32-1.12.27-.44-.65-1.5-1.63-1.87-1.34-.5-1.59-.14-.68,1s.73,1.54-1.59,2.66A4,4,0,0,1,615,99a2.41,2.41,0,0,0-1.58.36,4.19,4.19,0,0,1-1.23.49c-.18,0-.11.09.17.19a3.3,3.3,0,0,0,1.62,0l.85-.14a1.07,1.07,0,0,1,.61-.17.34.34,0,0,1,.27.11,1.94,1.94,0,0,1,1.48.5l.51.5.27-.6c.21-.48.41-.59,1.08-.59A3.78,3.78,0,0,0,621.7,98.92Z"/><path class="g" d="M619.72,88.71c.6.16.81.1.81-.22s.26-.5.58-.61c.86-.27.46-.65-1.19-1.14a9.19,9.19,0,0,1-2.47-1.22c-1.14-.87-1.23-.8-.58.48.4.78.41.94,0,1.49s-.39.71.15,1.47c.72,1,.91,1,.79.17C617.74,88.42,618.17,88.31,619.72,88.71Z"/><path class="e" d="M616.94,149.34a2.15,2.15,0,0,0,1.66-.07c.49-.19.43-.25-.4-.41a9.68,9.68,0,0,0-1.37-.2C616.24,148.66,616.33,149.18,616.94,149.34Z"/><path class="e" d="M615.91,144.81c.75.74,1.25-.1.79-1.32a1,1,0,0,1,.2-1.31c.45-.5.45-.55,0-.55s-1.2,1-.94,1.47a1,1,0,0,1-.12.83A.67.67,0,0,0,615.91,144.81Z"/><path class="g" d="M614.86,80c.84.32.2-.57-1.1-1.53a15,15,0,0,1-3.36-3.16c-.33-.44-.78-.74-1-.67s.39,1,1.59,2.31a22.6,22.6,0,0,1,2.84,3.94,15.63,15.63,0,0,0,1.33,2.27c.4.46,1.54.74,1.54.38a13.06,13.06,0,0,0-1.33-1.63C614.14,80.46,613.9,79.58,614.86,80Z"/><path class="g" d="M614.54,100.72c.22.58.47.62,1,.14s.42-.8.25-1a7.49,7.49,0,0,0-.88.06A.65.65,0,0,0,614.54,100.72Z"/><path class="g" d="M614.86,99.92a7.49,7.49,0,0,1,.88-.06.34.34,0,0,0-.27-.11A1.07,1.07,0,0,0,614.86,99.92Z"/><path class="e" d="M612.22,157.45a6,6,0,0,1,2.14-.91c.69,0,.68,0-.19-.33a3,3,0,0,0-3.34,1.28C610.06,158.56,610.49,158.55,612.22,157.45Z"/><path class="e" d="M609.38,134.32c-.32.6-.28.62.57.43s.94-.13,1.49,1.17c.44,1,.71,1.33,1.06,1.2a2.93,2.93,0,0,1,.76-.18c.18,0,.15-.18-.07-.45-.56-.67.1-1.25.78-.69.46.38.48.32.29-.68-.25-1.33-1.34-3.81-1.35-3.07a2.41,2.41,0,0,1-.79,1.26,1.55,1.55,0,0,1-1.59.55C609.9,133.72,609.65,133.82,609.38,134.32Z"/><path class="g" d="M612.2,101.58a3.11,3.11,0,0,1,.71,1.26c0,.56.48.54.7,0a2.12,2.12,0,0,0-.91-2.34C611.59,99.74,611.27,100.48,612.2,101.58Z"/><path class="e" d="M611.75,129.43c.82,1,1.68,1.1,1,.07-.44-.67-1.26-1.19-1.5-1C611.19,128.61,611.42,129,611.75,129.43Z"/><path class="e" d="M610.15,144.35a3.56,3.56,0,0,0,.47.19,1.61,1.61,0,0,0,2-1c.38-.82.3-.85-.83-.26a3.21,3.21,0,0,1-2.39.14c-1.44-.27-1.6-.24-2.24.4a3.91,3.91,0,0,0-.91,2.29,6.46,6.46,0,0,1-.7,2.3c-.44.64-.45.77,0,1.39a1.72,1.72,0,0,1,.27,1.25,1.28,1.28,0,0,0,0,.87h0c.22.36.46.37,1,0,.3-.2.32-.49.08-1.39s-.24-1.2.26-1.7.57-.57,1,.49a3.21,3.21,0,0,0,1,1.39c.52.27.59.23.59-.44a4.19,4.19,0,0,0-.44-1.6,1.4,1.4,0,0,1,.69-2.21c.51-.27.55-.42.23-.42a6.07,6.07,0,0,0-1.36.27c-.85.25-1.11.21-1.57-.25C606,144.81,608.37,143.42,610.15,144.35Z"/><path class="e" d="M611.1,130.21c-.16,0-.22.1-.16.22a7,7,0,0,1,.32.77c.11.31.25.5.33.43C611.81,131.41,611.39,130.21,611.1,130.21Z"/><path class="e" d="M607.43,121.57c-.78-1.64-1.85-1.7-1.85-.11a3.57,3.57,0,0,1-.31,1.46c-.43.82-.14,1.47,1.36,3,1.06,1.1,1.45,1.32,2,1.18a1.94,1.94,0,0,1,1.23.12c.67.38.89-.07.37-.71a1,1,0,0,0-1-.29c-.44.11-.87-.09-1.43-.68-.78-.82-.79-.86-.35-1.91A1.84,1.84,0,0,0,607.43,121.57Z"/><path class="e" d="M609.88,132.4c.29-.41.3-.63,0-.94s-.38-.34-.59,0a1.24,1.24,0,0,0,0,.93C609.47,132.89,609.51,132.89,609.88,132.4Z"/><path class="e" d="M608.89,129.37a.64.64,0,0,0-.6,1.07c.27.32.4.27.7-.29S609.28,129.46,608.89,129.37Z"/><path class="e" d="M608.19,156.68c1.44-.26,1.44-.32,0-.69s-2-.18-1.45.47C607,156.75,607.44,156.82,608.19,156.68Z"/><path class="e" d="M606.46,127.48a1.59,1.59,0,0,0,.48.82c.26.26.55.39.64.3s-.12-.45-.47-.81S606.46,127.3,606.46,127.48Z"/><path class="e" d="M605.88,157.87c.4.23.79.34.86.27s-.63-.69-1.16-.68C605.33,157.47,605.45,157.64,605.88,157.87Z"/><path class="e" d="M604.26,131.52A8.94,8.94,0,0,0,603,133.2c0,.53.72.16,1.64-.85a3.71,3.71,0,0,0,1-1.69C605.56,130.18,605.31,130.34,604.26,131.52Z"/><path class="e" d="M604,112.57c-.44.76-.47,1-.18,1.58a2.91,2.91,0,0,0,.68.89c.43.28,1.1-2,.87-2.9S604.71,111.4,604,112.57Z"/><path class="e" d="M605,138l-.94-1a3.46,3.46,0,0,0-1.28-1c-.19,0-.69.45-1.11,1a4.47,4.47,0,0,1-1.76,1.33,2.11,2.11,0,0,0-1.37,1.21,3.28,3.28,0,0,1-1.43,1.43,3.51,3.51,0,0,0-1.42,1.31c-.31.67-.43.73-1,.43s-.7-.26-1,.2a1.73,1.73,0,0,0-.23,1.29,25.13,25.13,0,0,0,1.26,4c.28.44,3.18,1,3.91.8a2.07,2.07,0,0,1,1.32.25c.56.3.94.34,1.27.13a16.44,16.44,0,0,0,2.35-4.83c0-.2.33-.58.72-.84l.73-.48-.58-.82c-1-1.36-1-2.34-.16-3.49Z"/><path class="e" d="M602.23,156.25c-.09.15,0,.34.21.43a2,2,0,0,0,.95,0,5.79,5.79,0,0,1,1-.13c.21,0,.3-.13.2-.29A2.62,2.62,0,0,0,602.23,156.25Z"/><path class="e" d="M597.68,155.93l2.25.31a.56.56,0,0,0,.5-.21c.15-.24-1.61-1.22-2.19-1.22a3.2,3.2,0,0,1-1.1-.6c-.72-.53-1-.56-2.19-.29s-1.52.22-2-.11c-1.4-.9-4-.83-4,.11,0,.41,2.85,1.25,3.52,1a4.33,4.33,0,0,1,2,.26A23.71,23.71,0,0,0,597.68,155.93Z"/><path class="e" d="M591.29,120.19c.5.5.87.3,1.5-.77s.54-.93-.09-.93C591.29,118.49,590.52,119.42,591.29,120.19Z"/><path class="e" d="M589.32,149.82a4.89,4.89,0,0,0-1-1.82c-.47-.52-1.16-1.28-1.51-1.68a2.88,2.88,0,0,1-.68-1,2.79,2.79,0,0,0-1.62-2.19c-1.11-.69-1.59-1.12-3.93-3.56a7.84,7.84,0,0,0-3.59-2c-.6,0,.28,1.41,1.68,2.78a10,10,0,0,1,1.68,2,20.2,20.2,0,0,0,1.57,2.35,16.49,16.49,0,0,1,1.73,2.91,12.63,12.63,0,0,0,3.65,4.46C588.42,152.74,589.67,151.37,589.32,149.82Z"/><path class="e" d="M582.38,136.81c.7,2.64,1.54,4.15,2.86,5.09s1.89,1.12,1.89.62a25.86,25.86,0,0,0-.73-2.58c-.68-2.16-.85-2.41-2.46-3.71a9.36,9.36,0,0,1-1.52-1.48l-1,.21A3.57,3.57,0,0,1,582.38,136.81Z"/><path class="e" d="M579.68,132.11c-.09,1.42-.06,1.5,1.11,2.35a5.65,5.65,0,0,1,.61.5l1-.21a1.74,1.74,0,0,1-.4-.65,5.55,5.55,0,0,0-.79-1.55,1.55,1.55,0,0,1-.45-1.33l-1-.1C579.73,131.47,579.7,131.81,579.68,132.11Z"/><path class="e" d="M557.76,132.89a7.57,7.57,0,0,0,.28,3.55c.18.3,1.34-.05,1.62-.49s0-1.3-.88-2.62C558,132.23,558,132.22,557.76,132.89Z"/><path class="e" d="M499.3,103.76l-.27,1.71c.19,0,.57.33,1.14,1l1,1.25.15-.84c.21-1.2.65-.94,1.19.69.4,1.23,1.19,2.41,3.88,5.75a8.58,8.58,0,0,1,1.19,2.52,6.42,6.42,0,0,0,1.64,2.85,5.64,5.64,0,0,1,1.18,1.5,4.25,4.25,0,0,0,.84,1.25,4.46,4.46,0,0,1,1.06,2.57,10.92,10.92,0,0,0,.78,2.72c0,.1.09.18.14.26.42.8.57.82,1.49.65a47.33,47.33,0,0,0,7.08-3,4.29,4.29,0,0,0,1.43-1.17,3.84,3.84,0,0,1,2.7-1.53c.76,0,3-2.21,3.76-3.71a8,8,0,0,1,1.34-1.83,2.43,2.43,0,0,0,.76-1.06c0-.4-1.82-1.91-3.12-2.58a1.93,1.93,0,0,1-1.24-1.85c.08-.44.05-.67-.11-.67s-.54.31-1.09.93a5.58,5.58,0,0,1-1.89,1.51c-.79.2-2.48-.63-2.32-1.14a1.09,1.09,0,0,0-.18-.73c-.24-.38-.34-.36-.68.12-.59.79-1.29.4-1.65-.92a8.36,8.36,0,0,0-1.21-2.35c-.68-.94-.85-1.38-.74-2l-16-3.77C501.29,103.3,500.6,103.88,499.3,103.76Z"/><path class="e" d="M529.43,171.36c-.16.1-.29.24-.29.31s.13.13.29.13a.3.3,0,0,0,.29-.31C529.72,171.32,529.59,171.26,529.43,171.36Z"/><path class="e" d="M528.55,151.59a.29.29,0,1,0,.29.29A.29.29,0,0,0,528.55,151.59Z"/><path class="e" d="M527.38,172.39a.29.29,0,1,0,.29.29A.29.29,0,0,0,527.38,172.39Z"/><path class="e" d="M498.18,103.51a3.62,3.62,0,0,0-2,0c-1.48.41-5.62-.38-7.81-1.47-2-1-3.3-1.09-3.75-.24a1.71,1.71,0,0,0-.15,1.11c.1.33-.1.77-.54,1.19-.66.62-.76.63-1.56.22a8.74,8.74,0,0,0-1.93-.64,2.1,2.1,0,0,1-1.6-1c-.48-.83-1.15-1.13-3.5-1.6a3.94,3.94,0,0,1-1.69-1c-.66-.7-.72-.9-.46-1.61.22-.56.22-.93,0-1.19a.92.92,0,0,1-.13-.81c.32-.83-.85-1.16-2.22-.61a7.67,7.67,0,0,1-3.69.32,11.19,11.19,0,0,0-7,1.51c-1.47.79-1.94.91-2.93.74a5.39,5.39,0,0,1-1.75-.59,1.6,1.6,0,0,0-.65-.35c-.3-.06-.5.21-.95.94a8,8,0,0,1-2.06,1.92,4.82,4.82,0,0,0-2.35,3.94c0,.66-2,2.81-2.62,2.81s-2.62,2.43-3.55,4.18a27.21,27.21,0,0,1-1.66,2.75c-1,1.34-1.32,2.64-.84,3.57,1,2,.7,5.09-.6,6.54-.43.47-.42.6.14,1.55.4.68.49,1,.25,1s-.19.11.09.29.37.28-.07.28c-.72,0-.64.62.09.81.47.12.52.22.22.41s-.24.29.25.43c.76.21,3,3.11,3.36,4.36.47,1.61,3.75,4.56,5.65,5.09a5.29,5.29,0,0,0,3.21-.26c1.64-.46,2.31-.52,3.11-.28s1.43.16,3.37-.48c1.28-.42,2.6-.88,2.93-1a2.88,2.88,0,0,1,3.06,0c.89.45,1.24.83,1.37,1.49.17.85.22.87,1.43.69,3.09-.46,4.36,1.89,3.18,5.92-.57,2-.33,2.7,1.53,4.52a6,6,0,0,1,1.77,2.9,12,12,0,0,0,1,2.54,2.19,2.19,0,0,1,.37,1.67,5.24,5.24,0,0,0,.3,2.21l.5,1.47-.87,1.7c-1.31,2.54-1.88,4.64-1.66,6.05a14,14,0,0,0,1.32,3.26,23.2,23.2,0,0,1,2.48,8.39,5.4,5.4,0,0,0,1.34,3.49,7.88,7.88,0,0,1,1.15,1.87,5,5,0,0,0,.72,1.38,2.46,2.46,0,0,1,.55,2.09,1.64,1.64,0,0,0,.59,1.79c.89.89.64.87,3,.29a5.2,5.2,0,0,1,2.95-.16c1,.27,1.29.21,2.6-.45a24.11,24.11,0,0,0,6.22-6,5,5,0,0,1,1.26-1.4c.46-.24.54-.51.41-1.31-.24-1.53.08-2.39,1.09-2.8,2.39-1,3.06-2.4,2.06-4.35a6.51,6.51,0,0,1-.6-1.49,7.61,7.61,0,0,1,1.32-1.78,7.89,7.89,0,0,0,1.31-1.75c0-.16.7-.63,1.54-1.06,1.93-1,2.49-1.45,3.18-2.81a3,3,0,0,0,.23-2.58,6.64,6.64,0,0,1-.14-2.21,3.57,3.57,0,0,0-.58-2.21c-2-3.89-1.56-6.79,1.41-10.1,1-1.13,2.14-2.45,2.49-2.94a19.76,19.76,0,0,1,2.92-2.7c2.22-1.76,2.33-1.9,4.58-6.2,2.08-4,2.27-4.51,2.09-5.56l-.19-1.17-.83.43a22.07,22.07,0,0,1-3.62,1c-2.58.56-2.87.57-3.69.15a2.1,2.1,0,0,1-1.07-1.26,5.62,5.62,0,0,0-1.09-2.09,13.58,13.58,0,0,0-2.25-2.23c-1.22-1-1.78-1.65-1.92-2.3a6.44,6.44,0,0,0-1.14-2.09c-1.3-1.6-1.63-2.3-1.63-3.4a3.5,3.5,0,0,0-.68-1.84,27.87,27.87,0,0,1-1.85-3.26c-.65-1.28-1.73-3.25-2.4-4.36-.89-1.47-1.15-2.36-.86-2.36l.27-1.71A6,6,0,0,1,498.18,103.51Z"/><path class="e" d="M520,161.25l-.47,1a9.68,9.68,0,0,1-4.31,3.81c-1.25.27-1.7,1.4-1.43,3.54a3.5,3.5,0,0,1-.72,3.1,3.45,3.45,0,0,0-.72,3c.21,1.73.33,2,1.16,2.45s.6.41,1.91,0,1.67-1.12,2.42-4.21c.23-1,1-3.48,1.8-5.56,1.41-3.91,1.49-4.7.68-6.48Z"/><path class="e" d="M510.83,53.82a6.75,6.75,0,0,0,2.05.48l.88,0-.66-.46c-.86-.61-.84-1.32.11-2.43s2.25-1.7,4.51-2.1,2.66-.55,2.46-.89c-.11-.17-.69-.22-1.4-.11s-2.07.26-3.12.34a10.75,10.75,0,0,0-2.78.56c-.84.38-2,1.52-2,2,0,.12-.27.41-.59.65s-.47.45-.34.45.09.22-.11.46C509.36,53.27,509.33,53.24,510.83,53.82Z"/><path class="e" d="M514.07,162.13c.07,0,.13-.13.13-.29a.3.3,0,0,0-.31-.29c-.18,0-.23.13-.13.29S514,162.13,514.07,162.13Z"/><path class="e" d="M500.26,97.8c.18-.46-.29-.55-.56-.1A1,1,0,0,1,499,98c-.56,0-.74.31-.39.66S500.08,98.27,500.26,97.8Z"/><path class="e" d="M491.19,98.31c.21-.34-.87-.61-2.33-.58h-1.17l.88.4C489.58,98.61,491,98.7,491.19,98.31Z"/><path class="e" d="M485.86,94.13c-.65.09-.66.11-.17.94.71,1.19,1.17,1.27,1.67.27a1.45,1.45,0,0,0,0-1.71l-.85,0C486.55,93.86,486.34,94.06,485.86,94.13Z"/><path class="e" d="M481.38,46.86a.75.75,0,0,1,.16.75c-.14.23.11.27.85.13s1.05-.09,1.05.12.19.24.43.15.38-.23,0-.57a1.32,1.32,0,0,0-.69-.41,4.39,4.39,0,0,1-2.1-1.27c0-.14.23-.17.51-.09a5.94,5.94,0,0,0,3.37.21c1.4-.53.91-.91-1.19-.91a5.16,5.16,0,0,1-2.34-.35c-.27-.28-.35-.28-.35,0a.39.39,0,0,1-.42.35c-.23,0-.48.3-.55.66l-.13.66.11.18A1.44,1.44,0,0,1,481.38,46.86Z"/><path class="e" d="M482.05,66.46c.61.24.71.21.71-.23,0-.23-.24-.4-.53-.38s-.59.2-.51.37A.7.7,0,0,0,482.05,66.46Z"/><path class="e" d="M475.08,46.76c.61.18.93.15,1.09-.1s.3-.28.56,0a.93.93,0,0,0,.82.19c.41-.13.42-.11,0,.16a2.57,2.57,0,0,1-1.24.32c-1.13,0-1,.34.45,1.08L478,49,479,48a5.11,5.11,0,0,0,.95-1.29c0-.11.07-.17.18-.21l-.11-.18-.22-.66c-.21-.65-1-.94-1-.36,0,.2-1,.23-2.79.11-2.39-.17-2.78-.14-2.78.25S473.53,46.29,475.08,46.76Z"/><path class="e" d="M478.22,95.4a3.79,3.79,0,0,0,.22-.67c0-.29-1.58-.53-2.32-.34s-.56.23.61.83S478.05,95.84,478.22,95.4Z"/><path class="e" d="M472.88,72.18c.17.28.3.29.45,0s.31-.25.58,0c.48.4,1.18-.37.93-1a.79.79,0,0,0-.12-.23c-.13-.14-.31-.09-.72.14a5,5,0,0,1-1.18.45h-.15l0,.43A.69.69,0,0,1,472.88,72.18Z"/><path class="e" d="M472,88.77c0-.52-.12-.67-.44-.55a.66.66,0,0,0-.24,1.08C471.73,89.7,472,89.47,472,88.77Z"/><path class="e" d="M470.87,92.06c.41,1.2,1.15,1,1.15-.38,0-1.14-.46-1.56-1.06-1C470.63,91.05,470.61,91.32,470.87,92.06Z"/><path class="e" d="M470.85,140c-.16.1-.29.24-.29.31s.13.13.29.13a.3.3,0,0,0,.29-.31C471.14,140,471,139.92,470.85,140Z"/><path class="e" d="M469.09,143.54c-.16.09-.29.24-.29.3s.13.13.29.13a.29.29,0,0,0,.29-.3C469.38,143.5,469.25,143.43,469.09,143.54Z"/><path class="e" d="M464.31,92.66a.86.86,0,0,0,.61-.45c.17-.54-.72-.45-.92.09C463.88,92.62,464,92.73,464.31,92.66Z"/><path class="e" d="M457.37,78.17c.57-.1,2.05-.33,3.31-.51,1.7-.25,2.2-.42,1.94-.66s-.14-.46.44-.84c.83-.55.73-1.15-.17-.92-.44.11-.68-.1-1.05-.93-.78-1.72-1.55-2.7-2.35-3l-.74-.29.66-.7.66-.7-.69-.1c-.38,0-.65-.27-.61-.46s0-.36-.15-.36a1.92,1.92,0,0,0-1.3,2.27,1.32,1.32,0,0,1,.14.88c-.13.35.23.49,1,.39.34,0,.95,1.09.95,1.77,0,.15-.39.42-.87.59s-.8.44-.69.62-.05.48-.34.7c-.5.36-.47.4.39.58,1.27.25,1.43.63.43,1-.45.16-1.08.43-1.41.59S456.59,78.32,457.37,78.17Z"/><path class="e" d="M458,73.36c0-.17-.13-.22-.29-.12s-.3.23-.3.31.14.13.3.13A.31.31,0,0,0,458,73.36Z"/><path class="e" d="M457.3,54.92c.37,0,.66-.12.66-.28,0-.37-.31-.37-.88,0C456.73,54.87,456.77,54.92,457.3,54.92Z"/><path class="e" d="M457.08,63.38c0,.13.2.24.44.24s.44-.11.44-.24-.2-.25-.44-.25S457.08,63.24,457.08,63.38Z"/><path class="e" d="M452.82,73.21c-.74.2-.93.59-.43.91.19.11.13.49-.14,1a2,2,0,0,0-.25,1.32.44.44,0,0,0,.65.27c.26-.12,1-.4,1.73-.64,1-.36,1.24-.56,1.24-1.21a3,3,0,0,1,.45-1.43c.26-.36.38-.78.28-1-.27-.44-2.08-.35-2.47.13A2.24,2.24,0,0,1,452.82,73.21Z"/><path class="e" d="M442.68,54.72c-.24-.29-.67-.36-1.44-.23-1.19.21-2-.35-.88-.64.49-.13.56-.25.29-.56-.66-.81.59-.8,1.75,0,.85.6,1.27.72,1.79.53l.67-.25-.74-.57a19.81,19.81,0,0,0-1.69-1.08c-1.1-.61-1-.91.47-1s3.87-1.24,4.08-1.88a4.63,4.63,0,0,1,1-1.32c.65-.63.8-.95.6-1.32-.47-.88,1.3-2.25,3.22-2.5a6.32,6.32,0,0,0,2.2-.64c.52-.39.39-.41-1.36-.24a4.55,4.55,0,0,1-3.11-.39,14.8,14.8,0,0,0-7.38-.92,8.83,8.83,0,0,1-2.75.15,22.66,22.66,0,0,0-5.32.45,34.24,34.24,0,0,1-7,.57c-7.18-.17-7.41-.14-10.42,1.14a18.65,18.65,0,0,1-5.24,1.49c-1.37.16-2.55.3-2.64.3s-.17.33-.19.72c-.06,1,.56,1.15,3.89,1.17,2.45,0,2.76.08,3.47.75,1,.9,1.95,2.76,1.75,3.3-.1.23.13.53.54.72a2.22,2.22,0,0,1,.76,2.75,6.23,6.23,0,0,1-1.7,1.44c-1.62,1-2.25,2-1.77,3a1.48,1.48,0,0,1,0,1.43c-.54,1.3.35,2.86,2.2,3.87a7,7,0,0,0,1.9.79c.89,0,1.76-.76,3.19-2.8,1.78-2.54,2.78-3.2,5.74-3.76a8.7,8.7,0,0,0,3.19-1.13,7.08,7.08,0,0,1,4.58-1.83,28.26,28.26,0,0,0,4.17-.56C442.59,55.23,443,55.06,442.68,54.72Z"/><path class="e" d="M447.68,59.3a3.85,3.85,0,0,1-1.72.17c-.87-.27-3.44.69-3.61,1.36-.12.43,0,.53.33.41a2.17,2.17,0,0,1,1.37.43,2.28,2.28,0,0,0,1.32.46c2.67-.73,3.77-1.13,4.36-1.6l.71-.54-.8-.52C449,59,448.69,59,447.68,59.3Z"/><path class="e" d="M433.65,124.06a.29.29,0,1,0,.29.29A.29.29,0,0,0,433.65,124.06Z"/><path class="e" d="M430.7,121.71c-.17,0-.23.14-.13.3s.24.29.31.29.13-.13.13-.29A.3.3,0,0,0,430.7,121.71Z"/><path class="f" d="M415.91,151.45a6.2,6.2,0,0,1-2.76-1.61c-1-1.05-1.34-1.17-3.52-1.47s-2.49-.26-3.1.14c-.78.5-1,.26-.92-.86.05-.4-.31-.78-1.2-1.28-1.38-.77-1.74-.71-3.29.54-.59.48-.89.55-1.46.32s-.53-.29-.26-.31a2.3,2.3,0,0,0,1.12-.71c.6-.64.61-.73.17-1.18-.72-.71-1.2-.58-2.64.75-1,.92-1.41,1.14-1.67.88s0-.61.86-1.47c1.4-1.33,2-2.38,1.61-2.65a3.83,3.83,0,0,1-.63-1.49c-.65-2.44-3.4-4.44-5.39-3.94-1,.24-3.19-.77-3.88-1.78-1.46-2.11-5.33-4.47-6.76-4.11a9,9,0,0,1-4.84-1.31,1.67,1.67,0,0,0-2.56-.25c-.94.69-1.09,1.11-.59,1.61.21.22.13.52-.25,1-.55.67-.57.67-.87.11a4.78,4.78,0,0,1,.52-3.49c.66-.79-.7-.52-1.46.29a2.32,2.32,0,0,1-1.29.74,3.14,3.14,0,0,0-2.32,1.93,4.07,4.07,0,0,1-1.15,1.35c-.63.42-.74.4-1.55-.24l-.49,1.64c.14,0,.27.17.29.37s.18.95.36,1.68c.47,1.89,0,3.54-1.74,5.7-2.57,3.24-3.17,5.15-1.74,5.53.59.15.57.2-.29,1.46s-.86,1.41-.61,2.33a3,3,0,0,0,1,1.5c.75.5,1.85,2.43,2.47,4.35a10.22,10.22,0,0,0,1.45,2.49,21,21,0,0,1,1.89,3.07c.74,1.52,1,1.78,2.89,2.77,2.64,1.39,4.78,3.48,5.24,5.15a12.61,12.61,0,0,1,.3,3.07,64.33,64.33,0,0,0,.7,12.67,18.45,18.45,0,0,1,.32,5.38c-.13,2-.08,3,.15,3.31a3.79,3.79,0,0,1,.4,1.73,3.17,3.17,0,0,0,1.29,2.58c.82.84,1.17,1.41,1,1.73a1.9,1.9,0,0,0,.43,1.34c.73,1,.57,2.56-.3,2.83s-.69.5.29,1.05a3.56,3.56,0,0,1,1.37,1.91c.68,1.86,1.91,3.86,2.5,4.06a2.05,2.05,0,0,1,.86.89c.27.5.56.68.92.56a1.51,1.51,0,0,1,1,.12c.72.4,2.31-.71,1.84-1.29s-.42-1.95.25-3.27.53-2.47-.35-2.81a2.68,2.68,0,0,1-.94-.92c-.47-.72-.46-.79.27-1.75.46-.6.7-1.2.59-1.48a1.14,1.14,0,0,1,.32-1c.47-.52.46-.56-.12-.74a2.41,2.41,0,0,1-1.07-1.08c-.62-1.21-.19-1.62,1-1a2.77,2.77,0,0,0,1,.39,1.94,1.94,0,0,0,.44-2c-.45-.84-.12-1.16,1.19-1.16,1.47,0,3.07-.76,3.48-1.68.27-.59.22-.94-.3-2a4,4,0,0,0-1.32-1.58c-.39-.17-.7-.45-.7-.61,0-.43.84-.37,2.41.2,1.81.64,2.56.26,3.81-2a26.33,26.33,0,0,1,1.6-2.53,3.44,3.44,0,0,0,.67-1.62,2.85,2.85,0,0,1,.47-1.37,4.07,4.07,0,0,0,.66-3.55c-.31-1-.28-1.06.67-1.87a10.19,10.19,0,0,1,2.2-1.38,4.61,4.61,0,0,0,1.42-.87c.13-.21.62-.27,1.28-.17a1.87,1.87,0,0,0,1.74-.41c1.56-1.32,3.17-7.46,2.82-10.75-.18-1.69-.14-1.87.58-2.58a8.45,8.45,0,0,0,1.23-1.7,15.4,15.4,0,0,1,1.44-2.13,5.16,5.16,0,0,0,1.3-4.57C417.55,152,417.39,151.88,415.91,151.45Z"/><path class="e" d="M395.84,46.86c-1.83,0-2,0-1.38.36a4.12,4.12,0,0,0,2.29.24,3.92,3.92,0,0,1,2.34.28l.73.44,1.72-.87a9.51,9.51,0,0,1,2.14-.87,9,9,0,0,0,2.05-.89,7.79,7.79,0,0,1,2.29-.87,23.47,23.47,0,0,0,7.3-2.1l2.37-1.14-1.44.18c-.78.1-3.22.29-5.41.43-4.23.27-10.67.86-10.81,1s4.36.46,5,.3c.95-.24,1.28.32.44.77a7.59,7.59,0,0,1-3.17.18c-2.72-.17-3.57,0-2.8.66s.2.94-1.11.77c-1-.15-1.1-.12-.51.13C399.13,46.39,398.13,46.87,395.84,46.86Z"/><path class="e" d="M389.46,54.2a7.36,7.36,0,0,1,2.38.13,2.76,2.76,0,0,0,2.29-.14c.82-.43.95-.42,1.87.15a6.59,6.59,0,0,1,1.76,1.92,4,4,0,0,0,1,1.3,2.43,2.43,0,0,1,.79.42c.55.41.54.43-.3.75a1.79,1.79,0,0,1-1.55,0,2.18,2.18,0,0,0-2.52,1c-.16.4-.45.45-1.78.28-1.75-.21-3.31.26-2.44.74a2.24,2.24,0,0,0,1.43,0c1.65-.47,2.21-.35,2.83.61A6.18,6.18,0,0,0,396.92,63c1.13.69,2.58.94,2.86.48.09-.14-.24-.47-.71-.75-1.53-.9-.43-1.46,1.21-.62.82.43.87.43,1.18-.24a1.56,1.56,0,0,0-.15-1.62c-.45-.86-.44-.92.11-1.21s.85-.18,1.75.28c1.28.65,1.75.58,2.33-.35.43-.68.47-.63-1.5-2a1.59,1.59,0,0,1-.67-1.46c0-.92-.09-1-1.43-1.44a4.66,4.66,0,0,1-2.08-1.28c-.56-.69-.75-.77-1.26-.5-.86.46-1,.44-2.48-.57-1.14-.75-1.52-.86-2.43-.69a5.21,5.21,0,0,0-2,1c-1.25,1.1-1.68.54-.53-.7l.84-.88-1.17.2c-1.48.26-4,2-4,2.82C386.78,53.91,388.51,54.38,389.46,54.2Z"/><path class="e" d="M403.83,81.57c1-.28,1.07-.35.77-1a1.78,1.78,0,0,0-1.16-.9c-1.11-.24-1.53-1-.92-1.68.27-.29.33-.5.14-.5a11.92,11.92,0,0,0-2.38,2l-2.06,2,1.09.12A12.18,12.18,0,0,0,403.83,81.57Z"/><path class="e" d="M362.58,132.69c-.91.38-1.13.38-1.86,0a4.85,4.85,0,0,1-1.47-1.46c-.63-1-.63-1.08-.19-3.84a16.06,16.06,0,0,0,.3-3.21c-.22-.54-2-.76-4-.47-2.15.3-2.25.06-1-2.66,1.84-4,2-4.41,1.57-4.67s-1-.3-2.33.06a1.68,1.68,0,0,0-1.41,1.32c-.42,1.26-1.56,2.09-3.46,2.49-2.52.54-3.72-.46-4.59-3.81l-.48-1.82.93-2.83c.51-1.56,1.05-3.17,1.2-3.58a3.71,3.71,0,0,1,1.8-1.53c.84-.44,2-1.06,2.55-1.38a2.47,2.47,0,0,1,2.87-.18,8.69,8.69,0,0,0,1.69.6c.77.16.95.08,1.23-.52a2.39,2.39,0,0,1,1.32-1,2.72,2.72,0,0,1,2.41.27,4.06,4.06,0,0,0,2,.42,1.37,1.37,0,0,1,1.3.5,1.54,1.54,0,0,1,.59,1l2-.07c-.21-1.72-.14-2.08.29-2.89.55-1,3.25-3.12,5.15-4s2.7-2,2.73-3.67.58-2.56.95-1.6c.19.51.23.49.39-.17a2.89,2.89,0,0,1,1.18-1.37A11.42,11.42,0,0,0,378,91.11,5.88,5.88,0,0,1,380.07,90c2.23-.68,2.87-1.08,3.05-1.93.15-.68.61-1,3.21-2.13a30.23,30.23,0,0,1,4.05-1.53c1.44-.27,1.66.32.32.88-1.5.63-2,1.06-1.53,1.35a2.81,2.81,0,0,0,1.69-.45,12.52,12.52,0,0,1,2.23-.87,5.94,5.94,0,0,0,1.76-.79l.87-.6-1.13.19a2.71,2.71,0,0,1-3.1-1.25c-.31-.67-.28-.85.21-1.24a4.38,4.38,0,0,0,.91-1.1c.33-.62.29-.65-.76-.65a8.76,8.76,0,0,0-2.91.85c-1.71.81-2.16.86-2.16.26a10.58,10.58,0,0,1,2.57-1.49,8.74,8.74,0,0,1,5.19-1.25,13.4,13.4,0,0,0,7.06-1.48c2.36-1.11,3.09-2.06,2.21-2.87a2.14,2.14,0,0,0-2.43-.14c-.86.45-1.36-.13-.58-.67.6-.42.6-.42-.08-1.61-.47-.83-.59-1.34-.41-1.66a1.12,1.12,0,0,0,0-1,1.34,1.34,0,0,1-.14-1,1.88,1.88,0,0,0-.09-1l-.24-.65-1,.76a17.86,17.86,0,0,1-2.07,1.31l-1.06.55L395,68c-.54-.57-.59-.8-.32-1.32a1.69,1.69,0,0,0,.17-1.14c-.22-.71-2.06-1.69-3.62-1.94-1.75-.29-2.79.2-3.44,1.64A5.24,5.24,0,0,1,386.41,67c-.74.52-.83.73-.66,1.6.25,1.33-.69,2.52-2.95,3.72-1.52.82-1.77,1.09-2.3,2.48s-1.46,2.35-2.42,2.38c-.2,0-.56-.38-.81-.85-.41-.8-.4-1,.13-2.34.62-1.57.61-1.6-.72-1.89a15.82,15.82,0,0,1-2.64-1,14.45,14.45,0,0,0-2.57-1,1.63,1.63,0,0,1-1.16-1,2.86,2.86,0,0,0-.73-1c-1.09-.68,1.93-3.31,5.49-4.76,1.1-.45,1.6-.83,1.61-1.18s.27-.53,1.32-.56a13.43,13.43,0,0,0,2.59-.41l1.28-.36-.64-.68c-.75-.8-.38-1.2.66-.72a1.56,1.56,0,0,0,1.62-.14,4.8,4.8,0,0,1,1.63-.41L385,57.62c-.69.13-1-.18-.48-1,.41-.63.42-.75.05-.89a1.37,1.37,0,0,0-.85,0c-.63.24-1.15-.91-.74-1.68.24-.45.25-.7,0-.93s-.77-.11-2,.48c-1.61.79-1.63.82-1,1.25.86.6.38,1.46-1.07,1.86a6.61,6.61,0,0,0-1.81.86c-.71.56-.74.56-1.54,0a2.35,2.35,0,0,0-2.06-.39,6.59,6.59,0,0,1-2.64-.25,3.6,3.6,0,0,0-2.77,0,4.54,4.54,0,0,0-2,1.2l-.63.79-.48-.93c-.31-.6-.42-.81-.9-.84a9.47,9.47,0,0,0-1.32.08,7.56,7.56,0,0,1-2.26,0c-.51-.2-.51-.23,0-.63.34-.25.47-.35.38-.39a2,2,0,0,0-.46,0,11.92,11.92,0,0,1-2.48-.61,7,7,0,0,0-3.24-.46,3.8,3.8,0,0,1-2.27-.26c-.64-.34-1-.37-1.44-.13a1.75,1.75,0,0,1-1.15.15,9.35,9.35,0,0,0-2.89.42,12.21,12.21,0,0,1-7.23,0,30.16,30.16,0,0,0-3.81-.76c-1-.11-2.91-.39-4.32-.62a15.27,15.27,0,0,0-6,.05,31.21,31.21,0,0,0-5.3,1.18,11,11,0,0,1-2.68.71c-.88,0-2.65.54-2.65.82a3.11,3.11,0,0,0,.62.83l.61.65-.93.48a3.05,3.05,0,0,1-2.05.29,6.25,6.25,0,0,0-4,.85c-.54.39-.49.43.71.76a2.83,2.83,0,0,0,2.12,0c1.41-.58,1.63.09.33,1a8.11,8.11,0,0,1-3.27,1.08c-2.69.4-3.94,1.07-3.71,2s-.08,1.53-1.1,2l-.9.47.82.44a1.51,1.51,0,0,0,1.55.1c.75-.34,1.38-.18,1.09.29s-2.78,1.67-5.26,2.64c-1.45.59-1.82.83-1.28.84a22.46,22.46,0,0,0,6.06-2.15,13.55,13.55,0,0,1,2.4-.92,18.32,18.32,0,0,0,3.25-1.38c1.82-1,2.34-1.11,2.82-.85.64.34,2.2,0,3.67-.73.71-.37,1.07-.35,3.12.18a23.67,23.67,0,0,0,2.83.59,3.48,3.48,0,0,1,1.44.7,11,11,0,0,0,2,1.16c1.09.46,1.42,1.07,1.33,2.54-.05.91.12,1.54.5,1.82.16.13.08.22-.19.22-.66,0-1.28,1.56-.89,2.25a.76.76,0,0,1-.15,1c-.41.45-.33.6.9,1.8a5.28,5.28,0,0,1,1.35,1.74.61.61,0,0,0,.27.55c.15.05-.08.62-.53,1.27-.74,1.09-1.41,1.34-1.31.51,0-.2-.24-.36-.59-.36s-.79.39-1.33,1.63a13.65,13.65,0,0,1-2,3,12,12,0,0,0-1.74,2.54,7.05,7.05,0,0,1-1.2,1.91c-.4.43-.65.92-.55,1.08a1.45,1.45,0,0,1-.16,1,1.23,1.23,0,0,0,.14,1.48c.26.4.36.8.21.89s-.16.57,0,1.12.32,1.43.42,2a1.53,1.53,0,0,0,1.07,1.43,2.85,2.85,0,0,1,1.59,3.21,3.63,3.63,0,0,0,.57,2.61c.59,1.16.69,1.63.46,2.06-.39.74-.17,1.26.91,2,.71.53.85.8.71,1.39s.05,1,.73,1.87c1.16,1.46,1.63,1.49.9,0a10,10,0,0,1-.78-2.55,14.85,14.85,0,0,0-1-3.21c-1.11-2.4-1.26-3.13-.75-3.82.36-.48.53-.52,1.16-.24s.77.63.93,1.79a9.26,9.26,0,0,0,1.33,3.29,5.83,5.83,0,0,1,1,2.1c-.09.14.35.81,1,1.49a13.27,13.27,0,0,1,1.81,2.63,3,3,0,0,1,.37,2.64c-.3,1.17-.27,1.27.63,2.22a21.45,21.45,0,0,0,4.84,2.89l3.91,1.9,1.27-.49c1.16-.44,1.36-.44,2.15,0a5.14,5.14,0,0,1,1.53,1.36,6,6,0,0,0,2.23,1.62c1.73.76,2.45.86,2.93.37.23-.22.41,0,.66.7a4.17,4.17,0,0,0,.91,1.54,1.9,1.9,0,0,1,.57,1.2,1.43,1.43,0,0,0,.36,1c.21.16.91.76,1.58,1.33a5.23,5.23,0,0,0,1.53,1,6.28,6.28,0,0,1,1.51.62c1.22.64,1.6.57,1.61-.27s1.41-1.13,2.34-.69c.64.28.71.43.44.93-.17.32-.2.58-.06.58l.49-1.64C364.83,132.15,364,132.09,362.58,132.69ZM377,86.21c.43.24.4.33-.2.75-.86.6-2.32.64-2.32.07S376.37,85.85,377,86.21Zm-5.4,3a5.75,5.75,0,0,1-1.79.61c-1.08,0-.63-.84.78-1.46,1.19-.53,1.42-.56,1.79-.19S372.64,88.64,371.6,89.18Zm-8.54-7a3.39,3.39,0,0,1,1-.57c.13,0,.16-.13.07-.28s.06-.27.34-.25a9,9,0,0,0,1.84-.35c2-.56,2.94-.48,3.55.32a1.9,1.9,0,0,1,.37,1.3,1.1,1.1,0,0,0,.19.9,1.14,1.14,0,0,0,1.43.42c1.12-.59,2.63.76,2,1.83a.76.76,0,0,1-1,.33c-.51-.13-.73,0-.86.39a1.83,1.83,0,0,1-.89.89,1,1,0,0,1-1.34-.18l-.63-.5.61-.78c.77-1,.77-1.12-.08-1.12-1.17,0-2.63,1.22-3.41,2.86a6.37,6.37,0,0,1-1.35,2c-.56.39-.67.39-1.08-.06s-.35-.67.68-2.41c1.25-2.08,2.14-2.8,3.85-3.09.63-.11,1.05-.31.95-.48s-.5-.21-.87-.12a2.94,2.94,0,0,1-1.68-.3,1.56,1.56,0,0,0-1.9,0,1.78,1.78,0,0,1-1.73.16l-.82-.31Z"/><path class="e" d="M400.84,82.61c0,.24.06.44.12.44s.19-.2.28-.44,0-.44-.11-.44S400.84,82.37,400.84,82.61Z"/><path class="e" d="M399.52,212.22l-.25,0,0,.31c.14,0,.09.16-.1.36a1.12,1.12,0,0,0-.36.58c0,.4.62.26,1.36-.33S400.82,212.31,399.52,212.22Z"/><path class="e" d="M397.77,212.51c.1.17,0,.3-.2.3s-.15.15.18.34.62.22.9-.15.46-.49.6-.49l0-.31C398,212.14,397.59,212.23,397.77,212.51Z"/><path class="e" d="M392.5,49.58l3.95.32a4.31,4.31,0,0,0,1.47-.52l1-.55-.83-.21a13.58,13.58,0,0,0-2.93-.06,5.09,5.09,0,0,1-3.23-.42c-.94-.49-1.26-.52-1.95-.23s-1.36,1.08-1.1,1.32C388.94,49.27,390.56,49.43,392.5,49.58Z"/><path class="e" d="M396,44.63c1-.6,1-.66.53-1.05s-2.09-.28-3.62.52c-1,.54-1,.65.43,1A2.93,2.93,0,0,0,396,44.63Z"/><path class="e" d="M392.54,215.4a8.84,8.84,0,0,0-2.15-1.13c-.22,0-.53.36-.69.79-.36.93.06,1.47,1.55,2a4.24,4.24,0,0,0,1.8.23c.46-.06,1.32-.13,1.9-.14l1.06,0-.86-.32A17.83,17.83,0,0,1,392.54,215.4Z"/><path class="e" d="M386.06,58.74a4.13,4.13,0,0,0,3.87-1.7c1.09-1.19,1.15-1.39.49-1.64a2.51,2.51,0,0,0-2.78.58A5.41,5.41,0,0,1,385,57.62l.13,1.18A7.22,7.22,0,0,1,386.06,58.74Z"/><path class="e" d="M389.26,127c-.07,0-.13.13-.13.29a.3.3,0,0,0,.31.29c.17,0,.23-.13.13-.29S389.33,127,389.26,127Z"/><path class="e" d="M387.66,125.08c-.16.1-.29.24-.29.31s.13.13.29.13a.31.31,0,0,0,.3-.31C388,125,387.82,125,387.66,125.08Z"/><path class="e" d="M383.81,51.83a11.83,11.83,0,0,1,1.75-.41c1.54-.26,2.14-.74,1.25-1-1.22-.39-4.08.66-3.67,1.34A.55.55,0,0,0,383.81,51.83Z"/><path class="e" d="M386.78,123.33a.66.66,0,0,0,.3-.48c0-.16-.13-.21-.3-.11a.64.64,0,0,0-.29.47C386.49,123.37,386.62,123.42,386.78,123.33Z"/><path class="e" d="M386.93,121.42c-.1-.16-.24-.29-.31-.29s-.13.13-.13.29a.3.3,0,0,0,.31.29C387,121.71,387,121.58,386.93,121.42Z"/><path class="e" d="M382.88,61c-.69.77-.22,1,1.16.67a2.15,2.15,0,0,1,1.83.1c.66.35.8.34,1,0,.33-.57-.21-1.17-1.43-1.57C384.38,59.84,383.77,60,382.88,61Z"/><path class="e" d="M386.2,100.9c0-.17-.14-.23-.29-.13s-.3.24-.3.31.13.13.3.13A.31.31,0,0,0,386.2,100.9Z"/><path class="e" d="M385.25,131.67a.79.79,0,0,0,.74-.58c.11-.45,0-.59-.45-.59s-.52.09-.42.19.05.37-.13.59S384.79,131.67,385.25,131.67Z"/><path class="e" d="M385.48,121.71c.08,0,.13-.13.13-.29a.3.3,0,0,0-.31-.29c-.17,0-.23.13-.13.29S385.41,121.71,385.48,121.71Z"/><path class="e" d="M384,122a.64.64,0,0,0,.46.29c.42,0,.32-.21-.18-.4C384,121.79,383.9,121.84,384,122Z"/><path class="e" d="M382.25,119.85c-.25.09-.45.22-.45.28s.2.12.45.12.43-.13.43-.28S382.49,119.76,382.25,119.85Z"/><path class="e" d="M378.58,52.6c0,.87,2.78-.34,3.37-1.48.25-.48.35-.87.23-.87a5.81,5.81,0,0,0-2.81,1.06c-.17.3-.56.37-1.32.25L377,51.39l.81.46C378.22,52.11,378.58,52.44,378.58,52.6Z"/><path class="e" d="M379.38,120.66a1.16,1.16,0,0,0,1.47-.34c.08-.23-.16-.37-.61-.37C379.47,120,379,120.31,379.38,120.66Z"/><path class="e" d="M378,55.83c1-.51,1-.54.34-.74a2.65,2.65,0,0,0-1.52.14c-.68.29-.79.45-.53.76C376.69,56.5,376.75,56.49,378,55.83Z"/><path class="e" d="M377.84,119.65c-.33-.54-2.28-1.16-3.63-1.16s-1.48,0-1.2.57c.39.74,0,1-1.58,1-1.06,0-1.11,0-.48.26a3.24,3.24,0,0,0,1.52.11,2.28,2.28,0,0,1,1.3.08C374.29,120.77,378.06,120,377.84,119.65Z"/><path class="e" d="M376.82,127.76a.82.82,0,0,0,.2.5.27.27,0,0,0,.35,0c.08-.08,0-.31-.2-.5S376.82,127.57,376.82,127.76Z"/><path class="e" d="M375.49,127.57c-.07,0-.13.13-.13.3a.3.3,0,0,0,.31.28c.18,0,.23-.13.13-.28S375.56,127.57,375.49,127.57Z"/><path class="e" d="M362.77,52c-1,.43-1,.44-.3.63,1,.25.93.71-.15.87-.63.11-.39.18.89.3,1,.09,1.75.29,1.75.45s-.91.36-2,.44l-2,.14.54.24.91.42a16.24,16.24,0,0,0,1.79.66l.4.1a4.08,4.08,0,0,0,3.1-.41,3.38,3.38,0,0,1,2.8-.26,3.37,3.37,0,0,0,2.94-.38l1.55-.7L374,54l-1-.49.58-1a4.81,4.81,0,0,0,.58-1.17c0-.5-1.11-.16-1.76.52s-1.28.83-1.35.19c0-.19-.06-.49-.08-.67s-.29-.16-.74.14c-.64.42-.85.42-2.21,0A7.78,7.78,0,0,0,362.77,52Z"/><path class="e" d="M374.48,114.61c0-.31-1.1-.27-1.3,0-.08.15.17.24.57.22S374.48,114.73,374.48,114.61Z"/><path class="e" d="M372.14,115.56c0-.37-.31-.37-.88,0-.35.23-.31.29.22.29C371.84,115.85,372.14,115.72,372.14,115.56Z"/><path class="e" d="M371,117.93c.83-.24.83-.24-1.76-1.63-3.15-1.68-4-2-5.66-2.15s-4,.55-4,1.17c0,.33.09.31,1.43-.22s2.6-.3,4.7,1.07c1.08.7,1.4,1,1.18,1.31s0,.36.91.37a3.8,3.8,0,0,1,1.37.18C369.35,118.24,370,118.2,371,117.93Z"/><path class="e" d="M369.43,109.87c.08-.07.06-.36,0-.63s-.26-.43-.34-.35-.06.37,0,.64S369.35,110,369.43,109.87Z"/><path class="e" d="M366,120.23a.55.55,0,0,0,.36.41,4.57,4.57,0,0,0,1.25.16c.83,0,.85,0,.31-.41S366,119.8,366,120.23Z"/><path class="e" d="M367.93,109.26c.39-.39.38-.43-.11-.43a.51.51,0,0,0-.56.43c0,.24.05.44.12.44A2,2,0,0,0,367.93,109.26Z"/><path class="e" d="M367.39,111.83c.25.28.53.43.62.33s0-.25-.16-.31-.27-.38-.18-.7,0-.57-.16-.57C367,110.58,366.92,111.3,367.39,111.83Z"/><path class="e" d="M358.37,53.29a45.84,45.84,0,0,1,6.89-2.3l1.76-.35-1.32-.4c-2.38-.73-3.72-.53-6.38.92-2.26,1.24-2.37,1.34-1.9,1.82A1,1,0,0,0,358.37,53.29Z"/><path class="e" d="M363.5,107c-.21,1.15.55,3.74,1.18,4,.27.1.58-.15.86-.68.37-.71.38-1.25.1-3.4,0-.24-.05-.46-.08-.67l-2,.07A2.23,2.23,0,0,1,363.5,107Z"/><path class="e" d="M327.48,78c-.67.26-.55.66.46,1.61a3.13,3.13,0,0,0,1.47.85c.65,0,.65,0,.21-1S328.09,77.73,327.48,78Z"/><path class="e" d="M327.48,71.33c-.37.3-.39.46-.1.81s.4.34.64-.19C328.37,71.18,328.07,70.84,327.48,71.33Z"/><path class="e" d="M327.18,69.28c-.24.2-.35.49-.26.65s.28.14.43-.1C327.76,69.2,327.65,68.88,327.18,69.28Z"/><path class="e" d="M310.14,68.88c-1.26.3-2.15.66-2.15.87s.23.09.51,0a10.3,10.3,0,0,1,1.33-.36,1.91,1.91,0,0,0,1-.43C310.9,68.79,310.62,68.76,310.14,68.88Z"/><line class="h" x1="365.34" y1="134.6" x2="365.83" y2="132.96"/></g><path class="c" d="M666.42,154.2l-49-23.41-36.23,107.5,71.9,11.15S666.93,151.84,666.42,154.2Z"/><polygon class="i" points="612.73 170.51 603.92 205.93 589.42 197.41 612.73 170.51"/><path class="j" d="M617.46,130.79l-10.11-12.7s49.91,3.07,59.5,14.92c11.53,14.26-3.92,48.82-3.92,48.82s2.08-10.37-2.63-11.94c-2.56-.86-5.63,3.81-5.63,3.81l-1.91-24.95Z"/><ellipse class="j" cx="631.14" cy="170.51" rx="5.45" ry="3.78" transform="translate(193.46 656.16) rotate(-63.09)"/><ellipse class="j" cx="609.03" cy="163.86" rx="5.45" ry="3.78" transform="translate(187.29 632.81) rotate(-63.09)"/><path class="i" d="M480.48,152h13.41a0,0,0,0,1,0,0v56.52a6.7,6.7,0,0,1-6.7,6.7h0a6.7,6.7,0,0,1-6.7-6.7V152a0,0,0,0,1,0,0Z"/><path class="i" d="M485.92,42.28a57.52,57.52,0,1,0,57.52,57.51A57.51,57.51,0,0,0,485.92,42.28Zm0,102.46a44.95,44.95,0,1,1,44.95-44.95A45,45,0,0,1,485.92,144.74Z"/><circle class="k" cx="485.92" cy="99.79" r="44.95"/><rect class="i" x="478.02" y="153" width="17.62" height="7.39"/><path class="k" d="M506.7,59.94l-50.57,73.5a44.94,44.94,0,1,0,50.57-73.5Z"/><path class="b" d="M681.41,351.44c.7-37.19-4.4-60.3-8.41-74.76-5.49-19.75-18.63-35.08-18.63-35.08l-84.16-8c2.11,40.25-3.14,88.76-16.75,125.06C579.17,339,643,339.32,681.41,351.44Z"/><path class="c" d="M625.67,244.19s-19.28,61.21-20.12,57.86-7.55-60-7.55-60Z"/><path class="b" d="M656,304.25S546.68,256.91,494.35,199.67l13.18-15.46C530.22,200.34,624,253.6,644.28,243.56"/><polygon class="c" points="494.35 199.67 473.74 180.14 484.58 165.68 507.53 184.21 494.35 199.67"/></svg>