<svg xmlns="http://www.w3.org/2000/svg" xmlns:xlink="http://www.w3.org/1999/xlink" viewBox="0 0 988 296"><defs><style>.a,.f{fill:none;}.b{fill:#0c56ab;}.c{fill:#e6e7e8;}.d{fill:#1b75bc;}.e{fill:#6d6e71;}.f{stroke:#fff;stroke-miterlimit:10;stroke-width:2.41px;}.g{clip-path:url(#a);}.h{fill:#fff;}.i{fill:#ea5284;}</style><clipPath id="a"><circle class="a" cx="578.78" cy="87.91" r="35.23"/></clipPath></defs><title>q3</title><path class="b" d="M490.07,115s37.05,8.23,61-2.47L549,106c-8.81,5.46-45.46,5.84-50.39,0"/><polygon class="c" points="551.05 112.56 560.07 109.27 558.65 103.33 549.04 105.99 551.05 112.56"/><path class="c" d="M487.13,64.46l22.5-7.25L519,105.73l-31.69.62S487.05,63.41,487.13,64.46Z"/><polygon class="d" points="509.36 74.63 511.1 90.44 517.85 87.6 509.36 74.63"/><path class="e" d="M509.63,57.21l5.11-4.9s-21.73-1.58-26.56,3c-5.81,5.48-1.15,21.3-1.15,21.3s-.3-4.59,1.83-5c1.15-.22,2.21,2,2.21,2l2.28-10.66Z"/><ellipse class="e" cx="501.41" cy="73.56" rx="1.65" ry="2.38" transform="translate(3.74 169.19) rotate(-19.22)"/><ellipse class="e" cx="511.34" cy="71.98" rx="1.65" ry="2.38" transform="translate(4.81 172.37) rotate(-19.22)"/><path class="b" d="M466.62,160.83c1.87-16.1,8-37.87,10.54-43.88a44.8,44.8,0,0,1,10.08-14l36.8,1.44c-3.25,17.25-3.81,38.5,0,55C508.84,173.58,483.87,169.67,466.62,160.83Z"/><path class="c" d="M499.48,105.69s4.76,27.54,5.32,26.15,6.75-25.45,6.75-25.45Z"/><path class="b" d="M578.78,52.36a35.56,35.56,0,1,1-35.55,35.55,35.55,35.55,0,0,1,35.55-35.55m0-4a39.58,39.58,0,1,0,39.58,39.57,39.61,39.61,0,0,0-39.58-39.57Z"/><circle class="f" cx="578.78" cy="87.91" r="35.55"/><g class="g"><circle class="h" cx="578.78" cy="87.91" r="36.67"/><path class="b" d="M553.78,79c.16-1,.3-1.84.47-2.71a.64.64,0,0,0-.21-.67c-.68-.62-1.35-1.26-2-1.9l.09-.14,1.74-.24a1.73,1.73,0,0,1,.45-.05c.68.06,1-.32,1.19-.9s.61-1.33.95-2.06c.41.89.81,1.7,1.17,2.53a.56.56,0,0,0,.5.37c.88.1,1.75.22,2.71.35a17.28,17.28,0,0,1-1.28,1.37,1.79,1.79,0,0,0-.64,2.15,14.7,14.7,0,0,1,.33,1.9,19.93,19.93,0,0,1-1.85-1,1.4,1.4,0,0,0-1.86,0A17.21,17.21,0,0,1,553.78,79Z"/><path class="b" d="M591.84,104.16c.41.89.8,1.68,1.15,2.5a.63.63,0,0,0,.59.42c.81.09,1.61.21,2.42.32l.2,0c-.26.29-.47.53-.69.76a9.44,9.44,0,0,1-.86.92,1.36,1.36,0,0,0-.45,1.51c.14.7.19,1.42.29,2.21-.78-.44-1.52-.83-2.23-1.26a.71.71,0,0,0-.86,0c-.7.42-1.42.8-2.21,1.25.13-.82.2-1.56.38-2.28a1.22,1.22,0,0,0-.44-1.42c-.59-.49-1.13-1-1.69-1.58l.08-.13a14.42,14.42,0,0,1,1.85-.25A1.5,1.5,0,0,0,591,106,16.6,16.6,0,0,1,591.84,104.16Z"/><path class="b" d="M601.16,70.28c.41.89.8,1.7,1.16,2.52a.58.58,0,0,0,.53.39l2.67.33-.33.36c-.55.56-1.1,1.13-1.66,1.68a.64.64,0,0,0-.2.64c.17.88.31,1.77.47,2.71-.13-.06-.22-.08-.3-.13-.66-.37-1.33-.74-2-1.13a.63.63,0,0,0-.72,0c-.78.45-1.57.86-2.43,1.33.14-.85.23-1.64.41-2.41a1.16,1.16,0,0,0-.37-1.26c-.57-.54-1.07-1.14-1.65-1.76.88-.12,1.7-.23,2.51-.32a.81.81,0,0,0,.79-.55C600.37,71.88,600.76,71.12,601.16,70.28Z"/><path class="b" d="M570.15,107.58c-.67.63-1.34,1.27-2,1.89a.62.62,0,0,0-.19.64c.15.78.28,1.57.41,2.35a2.87,2.87,0,0,1,0,.36c-.77-.43-1.5-.82-2.21-1.25a.71.71,0,0,0-.82,0c-.72.43-1.45.82-2.24,1.27.09-.78.14-1.5.28-2.2a1.41,1.41,0,0,0-.46-1.54,21,21,0,0,1-1.56-1.66l1.38-.2c.47-.06.94-.1,1.39-.2a.65.65,0,0,0,.41-.31c.41-.82.79-1.67,1.21-2.57.36.78.73,1.5,1,2.25a1,1,0,0,0,1,.71c.77,0,1.53.19,2.29.3Z"/><path class="b" d="M550.7,92.24c.17-1,.31-1.89.48-2.8a.51.51,0,0,0-.18-.56c-.58-.54-1.16-1.1-1.73-1.65L549,87c.94-.17,1.84-.32,2.72-.5a.65.65,0,0,0,.41-.31c.41-.82.79-1.66,1.21-2.57.17.35.31.63.44.91s.19.41.29.62c.22.43.34,1,.7,1.27s.94.22,1.42.31l1.52.26c-.09.11-.15.2-.22.27-.55.55-1.08,1.11-1.64,1.65a.63.63,0,0,0-.2.64c.13.89.24,1.78.37,2.74a18.46,18.46,0,0,1-1.82-1,1.29,1.29,0,0,0-1.72,0A18.74,18.74,0,0,1,550.7,92.24Z"/><path class="b" d="M601.55,92.24c.13-1,.23-1.86.36-2.75a.6.6,0,0,0-.19-.6c-.62-.62-1.22-1.25-1.88-1.93a13.52,13.52,0,0,1,1.86-.33,1.64,1.64,0,0,0,1.7-1.31,14.78,14.78,0,0,1,.75-1.62s0,0,.09-.08a16.62,16.62,0,0,1,.74,1.62,1.74,1.74,0,0,0,1.81,1.4,12.21,12.21,0,0,1,1.77.31,4,4,0,0,1-.28.29c-.56.55-1.12,1.1-1.69,1.64a.58.58,0,0,0-.2.63c.18.87.32,1.74.47,2.61l0,.08-.78-.42c-.51-.28-1-.56-1.52-.85a.52.52,0,0,0-.63,0C603.15,91.36,602.39,91.78,601.55,92.24Z"/><path class="b" d="M587.44,64.86c.95-.17,1.82-.34,2.69-.48a.65.65,0,0,0,.56-.42c.35-.77.74-1.52,1.15-2.34.41.83.8,1.6,1.17,2.38a.6.6,0,0,0,.5.38c.88.14,1.75.31,2.67.48a3.11,3.11,0,0,1-.2.25c-.55.56-1.09,1.12-1.65,1.67a.61.61,0,0,0-.2.57c.14.9.24,1.81.36,2.76L594.2,70c-.69-.39-1.37-.77-2.05-1.17a.53.53,0,0,0-.61,0c-.65.39-1.32.76-2,1.13l-.37.19.28-1.77a1.59,1.59,0,0,1,.07-.38,1.31,1.31,0,0,0-.57-1.67C588.44,65.89,588,65.39,587.44,64.86Z"/><path class="b" d="M568.4,70.15c-.76-.43-1.46-.79-2.11-1.21a.9.9,0,0,0-1.09,0c-.66.43-1.35.79-2.1,1.21.09-.78.14-1.5.28-2.19a1.45,1.45,0,0,0-.51-1.59,18,18,0,0,1-1.52-1.51c1-.17,1.84-.34,2.72-.48a.6.6,0,0,0,.51-.38c.36-.78.75-1.55,1.17-2.38a13.35,13.35,0,0,1,.78,1.63,1.74,1.74,0,0,0,1.75,1.29,17.72,17.72,0,0,1,1.86.32,12.28,12.28,0,0,1-1.36,1.28,1.73,1.73,0,0,0-.71,2.18A14.66,14.66,0,0,1,568.4,70.15Z"/><path class="b" d="M552,98.61c1-.18,1.89-.32,2.78-.5a.67.67,0,0,0,.41-.31c.36-.67.68-1.36,1-2l.21-.38c.41.83.8,1.6,1.16,2.39a.57.57,0,0,0,.48.36c.88.14,1.76.31,2.72.48l-.69.71-.06.06c-.45.47-1.11.89-1.28,1.45a4.63,4.63,0,0,0,.26,1.93l.19,1.14c-.86-.47-1.67-.89-2.48-1.34a.54.54,0,0,0-.62,0c-.64.39-1.3.75-2,1.11l-.39.22c.14-.81.21-1.54.39-2.25a1.24,1.24,0,0,0-.47-1.47C553.13,99.72,552.63,99.17,552,98.61Z"/><path class="b" d="M598.36,103.9c.17-1,.34-1.91.47-2.84a.66.66,0,0,0-.14-.49c-.62-.63-1.27-1.23-1.91-1.85l.05-.12,1.47-.26c.41-.08.82-.17,1.23-.21a.51.51,0,0,0,.44-.35c.38-.79.77-1.57,1.19-2.42a16.9,16.9,0,0,1,.78,1.62,1.69,1.69,0,0,0,1.72,1.31,10.68,10.68,0,0,1,1.75.3l.07.07-.53.51c-.47.44-.92.9-1.41,1.33a.63.63,0,0,0-.2.67c.15.78.28,1.57.41,2.35a3.16,3.16,0,0,1,0,.35c-.77-.43-1.5-.83-2.21-1.26a.69.69,0,0,0-.8,0C600,103,599.21,103.44,598.36,103.9Z"/><path class="b" d="M583.17,113c-.59.61-1.11,1.18-1.67,1.7a1.05,1.05,0,0,0-.38,1.09c.15.79.22,1.6.32,2.48a19.36,19.36,0,0,1-1.76-1,1.33,1.33,0,0,0-1.79,0,18.52,18.52,0,0,1-1.75,1,18.47,18.47,0,0,1,.26-2,1.68,1.68,0,0,0-.64-1.94,14.59,14.59,0,0,1-1.34-1.27l.06-.1c.82-.11,1.64-.24,2.47-.33a.75.75,0,0,0,.73-.51c.32-.78.71-1.54,1.1-2.36.08.13.13.22.18.32.33.69.68,1.38,1,2.1a.7.7,0,0,0,.66.45Z"/><path class="b" d="M576.14,66.07c.12-.94.22-1.82.35-2.69a.69.69,0,0,0-.23-.7c-.62-.58-1.23-1.18-1.84-1.77l.05-.11.9-.14c.6-.08,1.21-.14,1.81-.25a.68.68,0,0,0,.4-.3c.41-.82.78-1.64,1.2-2.53l.18.33c.35.74.69,1.49,1.06,2.23a.59.59,0,0,0,.38.27c.9.14,1.8.26,2.77.39-.65.66-1.24,1.29-1.86,1.88a.76.76,0,0,0-.22.68c.13.87.24,1.75.36,2.7l-.72-.39c-.55-.31-1.11-.6-1.65-.93a.49.49,0,0,0-.58,0Z"/></g><path class="b" d="M482.9,129.85s49.94-14.07,75.87-35.74L554,86.67c-10.74,5.64-54.33,23.17-62.5,17.66"/><polygon class="c" points="558.77 94.11 568.8 86.88 564.96 80.01 553.98 86.67 558.77 94.11"/><path class="b" d="M466.62,160.83c-8.95,15.32-24.8,31.17-37,25.89s-15-7.32-15-7.32l-2,5.69s15,25.19,47.13,20.32S524,159.31,524,159.31Z"/><path class="b" d="M524,159.31s6.54,3.14,25.92,11.9c18.65,8.42,32.46,26.18,34.79,32.81l-5.2,5.56c-12.6-13.81-29.2-18.8-58.45-21.24a354.33,354.33,0,0,0-40.63-.81l13-23.16Z"/><polygon points="412.73 178.2 405.38 174.97 391.57 190.93 410.4 186.09 412.73 178.2"/><path d="M586.85,205.28l14.34-7.54S589.54,218,588.64,217.47s-7.89-6.1-7.89-6.1Z"/><rect class="i" x="236.71" y="214.83" width="40.94" height="81.44"/><rect class="i" x="299.98" y="94.98" width="40.94" height="201.29"/><rect class="i" x="363.25" y="206.47" width="40.94" height="89.8"/><rect class="i" x="426.51" y="256.31" width="40.94" height="39.97"/><rect class="i" x="489.04" y="217.63" width="40.94" height="78.64"/><rect class="i" x="553.05" y="236.73" width="40.94" height="59.55"/><rect class="i" x="616.32" y="177.18" width="40.94" height="119.1"/><rect class="i" x="679.59" y="158.95" width="40.94" height="137.32"/></svg>