<svg xmlns="http://www.w3.org/2000/svg" xmlns:xlink="http://www.w3.org/1999/xlink" viewBox="0 0 988 296"><defs><style>.a,.g,.h{fill:none;}.b{fill:#33ade0;}.c{fill:#0c56ab;}.d{clip-path:url(#a);}.e{fill:#2e3192;}.f{fill:#fff;}.g,.h{stroke:#fff;stroke-miterlimit:10;}.g{stroke-width:3.95px;}.h{stroke-width:0.79px;}</style><clipPath id="a"><circle class="a" cx="497.84" cy="149.55" r="104.25"/></clipPath></defs><title>q1</title><rect class="b" x="138.8" y="270.03" width="51.52" height="18.58"/><rect class="b" x="222.01" y="244.48" width="53.26" height="44.13"/><rect class="b" x="305.23" y="218.93" width="54.99" height="69.68"/><rect class="b" x="388.45" y="193.38" width="56.73" height="95.22"/><rect class="b" x="471.67" y="167.84" width="58.46" height="120.77"/><rect class="b" x="554.89" y="142.29" width="60.2" height="146.32"/><rect class="b" x="638.11" y="116.74" width="61.94" height="171.87"/><rect class="b" x="721.32" y="91.19" width="63.67" height="197.41"/><rect class="b" x="804.54" y="65.65" width="65.41" height="222.96"/><path class="c" d="M497.84,38.06A111.49,111.49,0,1,0,609.32,149.55,111.48,111.48,0,0,0,497.84,38.06Zm0,220.15A108.67,108.67,0,1,1,606.5,149.55,108.66,108.66,0,0,1,497.84,258.21Z"/><g class="d"><circle class="e" cx="495.76" cy="146.92" r="120.34"/><path class="f" d="M418.87,232.31c-1.4-.52-1.79-1-1.46-1.91.15-.41.45-.74.66-.74a8.28,8.28,0,0,1,2,1.06,16.7,16.7,0,0,0,2.46,1.36l.82.3-1,0a15.69,15.69,0,0,0-1.79.14,4.13,4.13,0,0,1-1.7-.23Zm-3.18-2.69a1.4,1.4,0,0,0-1-.11c-.35.11-.61,0-.87-.53a1.88,1.88,0,0,0-.81-.84c-.55-.19-1.71-2.07-2.36-3.83a3.24,3.24,0,0,0-1.28-1.79c-.93-.53-1-.77-.28-1s1-1.7.28-2.67a1.68,1.68,0,0,1-.4-1.26c.12-.31-.21-.84-1-1.64a2.94,2.94,0,0,1-1.21-2.43,3.78,3.78,0,0,0-.37-1.63c-.22-.26-.27-1.22-.15-3.11a17.46,17.46,0,0,0-.3-5.08,61.27,61.27,0,0,1-.66-11.94,12.39,12.39,0,0,0-.28-2.9c-.44-1.57-2.45-3.54-4.94-4.85-1.78-.94-2-1.18-2.72-2.61a20.36,20.36,0,0,0-1.79-2.89,9.34,9.34,0,0,1-1.36-2.35,9.5,9.5,0,0,0-2.33-4.1,2.88,2.88,0,0,1-1-1.42c-.24-.87-.17-1.11.58-2.2s.82-1.23.27-1.38c-1.35-.35-.78-2.16,1.64-5.21,1.61-2,2.08-3.58,1.64-5.37-.17-.69-.32-1.4-.34-1.59s-.14-.34-.27-.34-.11-.25.06-.56c.25-.47.19-.6-.42-.87-.88-.41-2.2,0-2.21.66s-.36.85-1.51.25a6,6,0,0,0-1.43-.59,4.83,4.83,0,0,1-1.44-1c-.63-.54-1.29-1.1-1.48-1.25a1.31,1.31,0,0,1-.35-.91,1.77,1.77,0,0,0-.54-1.13,3.9,3.9,0,0,1-.86-1.45c-.23-.69-.4-.87-.62-.66-.45.46-1.13.37-2.76-.35a5.67,5.67,0,0,1-2.1-1.52,5,5,0,0,0-1.44-1.3c-.75-.38-.94-.38-2,0l-1.2.46-3.68-1.79a20.7,20.7,0,0,1-4.57-2.72c-.85-.89-.87-1-.59-2.1a2.81,2.81,0,0,0-.35-2.48,12.27,12.27,0,0,0-1.71-2.49c-.59-.64-1-1.27-.92-1.4a5.65,5.65,0,0,0-.92-2,8.87,8.87,0,0,1-1.26-3.11c-.15-1.09-.33-1.42-.88-1.68s-.75-.23-1.09.23c-.47.65-.34,1.33.71,3.6a14.49,14.49,0,0,1,1,3,9.62,9.62,0,0,0,.73,2.4c.69,1.35.25,1.33-.84-.05-.65-.81-.82-1.26-.7-1.77s0-.8-.66-1.3c-1-.75-1.23-1.23-.86-1.93.22-.41.12-.85-.43-1.94a3.44,3.44,0,0,1-.54-2.47,2.68,2.68,0,0,0-1.5-3,1.45,1.45,0,0,1-1-1.35c-.09-.56-.27-1.41-.4-1.9s-.12-1,0-1,0-.47-.2-.85a1.15,1.15,0,0,1-.14-1.38,1.35,1.35,0,0,0,.15-1c-.09-.15.14-.61.52-1a6.76,6.76,0,0,0,1.14-1.79,9.87,9.87,0,0,1,1.64-2.4,12.79,12.79,0,0,0,1.86-2.87c.51-1.17.81-1.54,1.26-1.54s.57.15.55.34c-.09.79.54.55,1.24-.48.41-.61.64-1.15.5-1.2a.56.56,0,0,1-.26-.51,4.81,4.81,0,0,0-1.27-1.65c-1.16-1.12-1.23-1.27-.85-1.7a.71.71,0,0,0,.14-1c-.36-.65.21-2.12.84-2.12.26,0,.33-.09.17-.21-.35-.26-.51-.86-.46-1.72.08-1.38-.23-2-1.25-2.39a9.79,9.79,0,0,1-1.88-1.09,3.23,3.23,0,0,0-1.36-.66,22.86,22.86,0,0,1-2.66-.56c-1.94-.5-2.28-.52-2.95-.17-1.39.71-2.86,1-3.46.68s-.94-.09-2.65.81a17.52,17.52,0,0,1-3.07,1.3,12.22,12.22,0,0,0-2.26.87,21,21,0,0,1-5.71,2c-.52,0-.17-.24,1.2-.78a21.38,21.38,0,0,0,5-2.49c.27-.44-.32-.6-1-.28a1.39,1.39,0,0,1-1.46-.1l-.78-.41.85-.44c1-.49,1.26-1,1-1.93s1-1.47,3.49-1.85a7.69,7.69,0,0,0,3.09-1c1.23-.84,1-1.47-.3-.92a2.7,2.7,0,0,1-2,0c-1.13-.3-1.17-.35-.67-.71a5.86,5.86,0,0,1,3.74-.8,2.89,2.89,0,0,0,1.93-.28l.88-.45-.58-.62A2.68,2.68,0,0,1,347,81c0-.26,1.66-.77,2.49-.77a10.34,10.34,0,0,0,2.53-.67,29.79,29.79,0,0,1,5-1.11,14.32,14.32,0,0,1,5.65,0c1.33.23,3.16.49,4.07.59a28.37,28.37,0,0,1,3.59.71,11.46,11.46,0,0,0,6.81,0,9.13,9.13,0,0,1,2.73-.4,1.59,1.59,0,0,0,1.08-.14,1.27,1.27,0,0,1,1.36.12,3.63,3.63,0,0,0,2.14.25,6.62,6.62,0,0,1,3.07.43,11.15,11.15,0,0,0,2.33.58c.59,0,.6,0,.07.39s-.51.4,0,.59a7,7,0,0,0,2.14,0c1.62-.17,1.63-.17,2.08.7l.46.89.59-.75a4.41,4.41,0,0,1,1.9-1.13,3.42,3.42,0,0,1,2.61,0,6.18,6.18,0,0,0,2.49.23,2.26,2.26,0,0,1,1.95.38c.75.54.77.54,1.44,0a6.17,6.17,0,0,1,1.71-.82c1.36-.38,1.82-1.18,1-1.75-.58-.41-.55-.44,1-1.18,1.13-.56,1.64-.68,1.86-.46s.22.46,0,.88c-.38.72.1,1.81.7,1.58a1.26,1.26,0,0,1,.79,0c.35.13.35.24,0,.83-1.06,1.62,1.32,1.16,2.93-.56a2.36,2.36,0,0,1,2.63-.55c.61.23.55.42-.46,1.54A3.92,3.92,0,0,1,414,83a6.23,6.23,0,0,0-2.4.44,1.47,1.47,0,0,1-1.53.14c-1-.45-1.33-.08-.62.68l.6.64-1.2.34a11.9,11.9,0,0,1-2.45.38c-1,0-1.24.14-1.24.53s-.49.69-1.52,1.11c-3.36,1.38-6.2,3.85-5.17,4.5a2.65,2.65,0,0,1,.68,1,1.49,1.49,0,0,0,1.1.9,15.47,15.47,0,0,1,2.42,1,15,15,0,0,0,2.49,1c1.25.27,1.26.3.68,1.79-.5,1.26-.51,1.44-.12,2.19.23.45.57.82.76.81.9,0,1.75-.86,2.28-2.24s.73-1.57,2.17-2.34c2.13-1.14,3-2.26,2.78-3.51-.15-.82-.07-1,.63-1.51a5,5,0,0,0,1.3-1.68c.61-1.35,1.59-1.82,3.24-1.55,1.47.24,3.2,1.17,3.41,1.83a1.57,1.57,0,0,1-.16,1.08c-.26.49-.21.7.3,1.24l.61.66,1-.52a17.32,17.32,0,0,0,2-1.24l1-.71.22.6a1.7,1.7,0,0,1,.08,1,1.32,1.32,0,0,0,.14.92,1,1,0,0,1,0,1c-.18.31-.06.79.38,1.57.64,1.12.64,1.12.08,1.51-.73.52-.26,1.06.55.63a2,2,0,0,1,2.28.14c.84.76.14,1.66-2.08,2.71a12.6,12.6,0,0,1-6.65,1.39,8.24,8.24,0,0,0-4.9,1.18,9.83,9.83,0,0,0-2.41,1.4c0,.57.42.52,2-.24a8.25,8.25,0,0,1,2.75-.8c1,0,1,0,.72.61a4.3,4.3,0,0,1-.86,1c-.46.37-.49.53-.2,1.16a2.55,2.55,0,0,0,2.92,1.19l1.07-.19-.82.57a5.81,5.81,0,0,1-1.66.75,11.54,11.54,0,0,0-2.1.82,2.66,2.66,0,0,1-1.6.42c-.43-.27,0-.67,1.45-1.27,1.26-.53,1.06-1.09-.3-.83a28.62,28.62,0,0,0-3.82,1.44c-2.45,1.08-2.88,1.36-3,2-.18.8-.78,1.18-2.88,1.82a5.44,5.44,0,0,0-1.94,1.1,11.07,11.07,0,0,1-1.66,1.32,2.79,2.79,0,0,0-1.12,1.29c-.15.63-.18.64-.37.16-.34-.9-.86,0-.89,1.51s-.83,2.65-2.58,3.47-4.33,2.83-4.85,3.79-.48,1.17-.2,3.35c.27,2,.25,2.54-.09,3.2-.26.5-.56.74-.81.64-.59-.23-1.32-2.66-1.12-3.75a1.35,1.35,0,0,0-.51-1.56c-.45-.42-.87-.59-1.22-.47a3.92,3.92,0,0,1-1.86-.4,2.54,2.54,0,0,0-2.27-.25,2.23,2.23,0,0,0-1.25,1c-.26.57-.43.65-1.15.49a7.77,7.77,0,0,1-1.6-.56,2.33,2.33,0,0,0-2.71.17c-.53.31-1.61.89-2.4,1.3a3.41,3.41,0,0,0-1.69,1.45c-.15.38-.66,1.9-1.14,3.37l-.87,2.66.45,1.72c.82,3.16,2,4.11,4.33,3.6,1.79-.38,2.86-1.16,3.26-2.36a1.58,1.58,0,0,1,1.33-1.24c1.22-.33,1.73-.35,2.2-.05s.25.65-1.48,4.4c-1.19,2.57-1.1,2.8.93,2.5,1.85-.27,3.55-.06,3.74.46a14,14,0,0,1-.27,3c-.42,2.61-.41,2.66.18,3.62a4.32,4.32,0,0,0,1.38,1.38c.69.36.9.36,1.76,0,1.37-.57,2.11-.51,3.06.25.76.6.87.62,1.47.23a3.93,3.93,0,0,0,1.07-1.28,3,3,0,0,1,2.19-1.82,2.17,2.17,0,0,0,1.22-.69c.72-.77,2-1,1.38-.27a4.42,4.42,0,0,0-.49,3.28c.28.53.3.53.81-.1.37-.45.44-.74.24-.94-.47-.48-.33-.87.55-1.52a1.57,1.57,0,0,1,2.42.24,8.62,8.62,0,0,0,4.56,1.23c1.35-.34,5,1.88,6.38,3.87a4.76,4.76,0,0,0,3.65,1.68c1.89-.47,4.48,1.42,5.08,3.71a3.49,3.49,0,0,0,.61,1.42c.4.25-.2,1.24-1.52,2.49-.85.81-1,1.15-.81,1.39s.63,0,1.56-.83c1.36-1.26,1.82-1.39,2.5-.71.41.42.4.5-.17,1.11a2.13,2.13,0,0,1-1.05.67c-.25,0-.15.13.24.29s.83.16,1.39-.3c1.45-1.18,1.8-1.23,3.09-.51.84.47,1.18.83,1.14,1.21-.12,1.05.13,1.29.86.81s1-.4,2.92-.14,2.33.4,3.32,1.39a5.82,5.82,0,0,0,2.61,1.52c1.39.41,1.54.53,1.8,1.47a4.89,4.89,0,0,1-1.23,4.31,14.41,14.41,0,0,0-1.35,2,7.91,7.91,0,0,1-1.17,1.6c-.67.67-.71.84-.54,2.43.33,3.11-1.19,8.9-2.66,10.14a1.74,1.74,0,0,1-1.64.38c-.62-.09-1.09,0-1.21.17a4.4,4.4,0,0,1-1.34.82,9.94,9.94,0,0,0-2.08,1.3c-.89.76-.92.85-.62,1.76a3.79,3.79,0,0,1-.63,3.34,2.71,2.71,0,0,0-.43,1.3,3.25,3.25,0,0,1-.64,1.53,24,24,0,0,0-1.51,2.39c-1.18,2.08-1.89,2.44-3.59,1.82-1.48-.53-2.27-.59-2.27-.18,0,.16.29.42.65.58a3.72,3.72,0,0,1,1.25,1.49c.49,1,.54,1.31.29,1.87a3.88,3.88,0,0,1-3.29,1.58c-1.23,0-1.54.3-1.11,1.1a1.85,1.85,0,0,1-.43,1.89,2.58,2.58,0,0,1-1-.37c-1.16-.6-1.57-.22-1,.92a2.27,2.27,0,0,0,1,1c.54.17.54.21.1.7a1.09,1.09,0,0,0-.29,1c.1.26-.13.83-.56,1.39-.69.91-.7,1-.25,1.65a2.55,2.55,0,0,0,.88.87c.83.32,1,1.41.33,2.65s-.73,2.5-.24,3.09-1.06,1.59-1.73,1.21ZM395.34,110c.73-1.54,2.11-2.69,3.21-2.69.8,0,.81.13.08,1.06l-.57.73.58.47a1,1,0,0,0,1.26.17,1.65,1.65,0,0,0,.84-.83c.13-.4.33-.5.82-.38a.71.71,0,0,0,.92-.31c.56-1-.87-2.28-1.92-1.72a1.12,1.12,0,0,1-1.53-1.25,1.73,1.73,0,0,0-.35-1.22c-.58-.75-1.44-.83-3.34-.3a8.35,8.35,0,0,1-1.74.32c-.27,0-.41.1-.33.24s.06.27-.06.27a2.9,2.9,0,0,0-.91.53l-.69.53.78.29a1.65,1.65,0,0,0,1.62-.15,1.48,1.48,0,0,1,1.8,0,2.92,2.92,0,0,0,1.58.28c.36-.09.72,0,.82.11s-.3.35-.89.46c-1.62.27-2.46.94-3.63,2.9-1,1.64-1,1.84-.65,2.27s.49.43,1,.07a6.09,6.09,0,0,0,1.28-1.86Zm5,1.71c1-.5,1.08-.63.73-1s-.56-.32-1.69.18c-1.32.58-1.74,1.37-.73,1.37A5.09,5.09,0,0,0,400.35,111.72Zm4.9-2.09c.57-.4.6-.48.19-.71-.6-.33-2.37.24-2.37.77S404.44,110.2,405.25,109.63ZM426,228.89a1.1,1.1,0,0,1,.33-.55c.18-.19.23-.34.1-.34s-.38.21-.56.46-.45.39-.86.14-.37-.31-.17-.31.29-.13.19-.29.3-.37,1.66-.27,1.34.26.59.85-1.28.69-1.28.31ZM656.61,222q-1.18-.75,4.94-3.32a21.46,21.46,0,0,0,3.86-2.22c1.67-1.26,1.81-1.31,2.14-.84.5.72.2,1.24-1,1.79a5.52,5.52,0,0,0-1.64,1.14,1.9,1.9,0,0,1-1.13.66,3.63,3.63,0,0,0-1.59.93c-1.95,1.75-4.42,2.58-5.56,1.86Zm-19.32-3.59c-.29-.18-.3-.37-.07-.81a3.6,3.6,0,0,0,.3-1.43c0-.78.07-.84.63-.65a6.58,6.58,0,0,0,1.58.26c.53,0,1.07,0,1.18.07.46.09-.76,1.48-1.86,2.13-1.31.76-1.26.75-1.76.43ZM669.2,216c-.1-.09.13-.41.5-.71.57-.44.63-.63.39-1.09-.36-.66.17-1.38,1.4-1.89,1-.39,1.19-1.19.93-3.11-.17-1.33-.15-1.41.27-1.06s.42.63.3,1.26a1.8,1.8,0,0,0,.57,1.76c.63.75.82.83,1.31.57s.54-.24.39.16a3.15,3.15,0,0,0-.18.58,3.17,3.17,0,0,1-.9.56,17,17,0,0,0-2.14,1.49,8.53,8.53,0,0,1-2.56,1.66.54.54,0,0,1-.28-.18ZM640,212.39c-.58-.62-.69-.65-1.25-.28-.71.47-2,.19-3.12-.64-.58-.44-.61-.58-.32-1.13a1.26,1.26,0,0,0,0-1.3,3.75,3.75,0,0,1-.3-1.21c0-.67-.44-.7-.8-.06-.14.27-.34.41-.44.31s.22-.63.71-1.19c1.2-1.36.73-1.73-.85-.67a5,5,0,0,0-1.34,1.11c-.06.15-.39-.32-.73-1.05a5.23,5.23,0,0,0-1.61-2c-.88-.58-1.18-.63-2.86-.46a19.74,19.74,0,0,0-6.42,1.64,11.09,11.09,0,0,1-3.16.84,18.1,18.1,0,0,0-3.7.87c-1.5.57-1.93.63-2.7.38-1-.34-1.45-1-.79-1.29a3.29,3.29,0,0,0,1-1.41,3.66,3.66,0,0,0,.22-2.85,12.1,12.1,0,0,1,0-4.07,14.24,14.24,0,0,0,.13-3.06,4,4,0,0,1,.3-1.78c.44-1.14.54-1.22,3.51-2.47a18.37,18.37,0,0,1,3.82-1.3c1.14,0,2.55-1.08,3.33-2.56.48-.91.82-1.26,1.11-1.15.8.31,1,.25.9-.34a.66.66,0,0,1,.45-.77,3.3,3.3,0,0,0,1.17-1.12A4.32,4.32,0,0,1,628,182c1-.41,1.1-.4,1.65.09,1,.92,1.73,1.19,2.07.78.17-.2.23-.44.13-.54-.32-.32,1.13-2.13,1.84-2.31a9.94,9.94,0,0,0,1.73-.69,2.42,2.42,0,0,1,2.21-.21c2.16.58,2.23.68,1.43,1.89-1,1.56-.76,2.17,1.77,4a8.33,8.33,0,0,0,2.45,1.38,6,6,0,0,0,1.27-1.4,5.14,5.14,0,0,0,1.09-2.81c.16-1.62.93-3.86,1.33-3.86.13,0,.43.66.66,1.47a5.59,5.59,0,0,0,1.1,2.11,5.32,5.32,0,0,1,1,4.42c-.26.88-.21,1,.67,1.93a12.53,12.53,0,0,1,1.84,2.91,21.13,21.13,0,0,0,1.95,3.34l1.06,1.41-.3,2.18a9.93,9.93,0,0,1-1.24,3.84c-1,1.84-2.6,3.6-3.42,3.86a5.24,5.24,0,0,0-1.52,1.54,4.65,4.65,0,0,1-1.25,1.36,5.64,5.64,0,0,0-1.4,1.44c-1,1.31-1.23,1.43-2.32,1.45a3.4,3.4,0,0,0-2.15.77l-1,.74-.63-.68Zm-134.66-5.81a1.53,1.53,0,0,1-.55-1.69,2.35,2.35,0,0,0-.52-2,4.31,4.31,0,0,1-.68-1.3,7.29,7.29,0,0,0-1.09-1.76,5.1,5.1,0,0,1-1.26-3.29,21.84,21.84,0,0,0-2.34-7.92,12.7,12.7,0,0,1-1.24-3.07c-.21-1.33.33-3.31,1.56-5.7l.82-1.6-.46-1.39a4.78,4.78,0,0,1-.29-2.08,2.09,2.09,0,0,0-.35-1.57,11.9,11.9,0,0,1-1-2.4,5.59,5.59,0,0,0-1.67-2.73c-1.75-1.72-2-2.4-1.44-4.27,1.11-3.8-.08-6-3-5.58-1.14.17-1.18.15-1.34-.65-.13-.62-.46-1-1.3-1.41a2.71,2.71,0,0,0-2.89,0c-.31.12-1.55.55-2.76.95-1.83.6-2.38.68-3.17.45a5,5,0,0,0-2.93.26,5,5,0,0,1-3,.25c-1.79-.5-4.88-3.28-5.32-4.8-.34-1.18-2.45-3.91-3.17-4.11-.45-.13-.51-.22-.23-.4s.23-.28-.21-.39c-.7-.19-.77-.76-.09-.76.41,0,.42,0,.07-.27s-.29-.27-.08-.28.14-.34-.24-1c-.53-.89-.54-1-.14-1.46a6.17,6.17,0,0,0,.57-6.16c-.45-.88-.16-2.1.8-3.37a24.54,24.54,0,0,0,1.56-2.59c.87-1.65,2.82-3.94,3.35-3.94s2.46-2,2.46-2.65a4.54,4.54,0,0,1,2.23-3.71,7.39,7.39,0,0,0,1.93-1.81c.66-1.06.75-1.1,1.51-.57a5,5,0,0,0,1.66.57c.93.16,1.37,0,2.76-.7a10.49,10.49,0,0,1,6.58-1.42,7.43,7.43,0,0,0,3.49-.31c1.28-.51,2.39-.21,2.09.57a.89.89,0,0,0,.12.78c.2.24.2.58,0,1.11s-.2.87.43,1.52a3.56,3.56,0,0,0,1.58.93c2.22.44,2.85.73,3.31,1.51a2,2,0,0,0,1.5,1,8,8,0,0,1,1.83.61c.75.38.84.37,1.46-.21.42-.39.61-.81.51-1.12a1.59,1.59,0,0,1,.15-1.05c.42-.8,1.64-.72,3.53.23,2.06,1,6,1.77,7.37,1.38a3.37,3.37,0,0,1,1.89,0c1.91.58,2.88.12,3.14-1.48.09-.54.24-1,.33-1s.27-.8.3-2.56c0-.57.14-1,.3-1s.18-.2,0-.58c-.34-.64-1-.62-2.67,0a1.44,1.44,0,0,1-1.7-.1c-.91-.54-1.84-.62-2.11-.18s-1.61.09-2.38-.39a2.87,2.87,0,0,1-1.06-2.11,1.42,1.42,0,0,0-.63-1c-.52-.38-.55-.48-.2-.71a1.55,1.55,0,0,1,1-.13c.44.11.84-.07,1.35-.58a2.61,2.61,0,0,1,1.72-.78,4.28,4.28,0,0,0,1.76-.55c.91-.61,3-.44,4.59.37,2.17,1.08,4.1,1,4.87-.16.4-.62.41-.75,0-1.33a9.77,9.77,0,0,0-2.49-1.82l-2.06-1.18.39-.75c.21-.41.31-.81.23-.9s0-.32.07-.52a2.15,2.15,0,0,0,.28-.72c.07-.42-.38-.3-2.58.67-1.27.56-1.46.74-1.18,1.08a1.44,1.44,0,0,0,.93.42c.45,0,.34.14-.47.57-1,.52-1.1.53-1.75.1s-.62-.52-.36-.84.22-.43-.19-.59a2.18,2.18,0,0,1-.81-.58c-.79-1.06-3.3,1.72-4,4.45-.34,1.29-.33,1.35.32,1.84l.67.5-1.23.26a5.36,5.36,0,0,1-2,0c-.8-.22-1.82.11-1.82.6,0,.14-.19.18-.42.09a.93.93,0,0,0-.81.17c-.34.28-.3.51.26,1.55s.62,1.29.24,2c-.47.94-.91.87-1.57-.25-.46-.79-.46-.81.15-.89.78-.11.82-.6.07-.72-1.71-.28-2.62-1.18-2.62-2.6a3.16,3.16,0,0,0-2.27-2.69,3.55,3.55,0,0,1-1.56-.91,3.75,3.75,0,0,0-1.38-1,3.67,3.67,0,0,1-1.36-.94c-.29-.41-.48-.46-.9-.24a1,1,0,0,0-.54.68c0,.72,3.52,4,5.24,4.83s2.11,1.25.85,1-1.44,0-1.06.84c.28.6.23.78-.32,1.31l-.63.61.14-.83c.23-1.3-1.49-3.18-2.92-3.18-.52,0-2.53-1.95-3.06-3s-1.19-1.3-2.07-.7a4.49,4.49,0,0,1-3.39,1c-1.39-.24-2.27.25-2.05,1.13.12.47.05.67-.21.67a3,3,0,0,0-1.18.69,3.45,3.45,0,0,1-1,.69c-.34,0-1.3,1.75-1.31,2.37s-1.08,1.76-2.12,2.29a4.62,4.62,0,0,1-1.71.31c-.85,0-1.19.14-1.42.57s-.31.57-1-.14a3.41,3.41,0,0,0-2.39-1c-.7-.11-.82-1.7-.3-4a7.47,7.47,0,0,0,.25-2.42c-.26-1,.56-1.65,1.93-1.44,3.16.48,5,.51,5.45.08a4.7,4.7,0,0,0,.5-3.67c-.24-.72-.57-1-1.54-1.38-1.43-.55-1.46-1.08-.06-1.09a3.79,3.79,0,0,0,1.71-.5c.41-.27.86-.41,1-.32.39.24,1.87-.61,2.36-1.36a2.18,2.18,0,0,1,1-.82,7.31,7.31,0,0,0,2-1.44,4.15,4.15,0,0,1,2.57-1.42c1.14-.14,2.29-1.08,1.75-1.44a2.72,2.72,0,0,1-.43-2,2.57,2.57,0,0,1,.87-.89l.71-.46L495.48,94c-.16,1-.12,1.13.3,1.06a4.69,4.69,0,0,0,1.12-.43c.52-.28.65-.27.79.09.23.62-.43,1.34-.88,1-.25-.21-.41-.21-.55,0s-.26.22-.42,0-.29-.3-.37-.22.14.5.49.93c.59.74.7.77,1.53.48a1.75,1.75,0,0,1,1.67.08c.68.36.92.34,2.24-.16,1.15-.44,1.61-.5,2.12-.26a1.28,1.28,0,0,0,1.26,0c1.24-.64,1.58-1.13,1.43-2-.23-1.32.19-1.75,1.29-1.34.75.29,1,.28,1.31-.06s.33-.5-.26-1.12-.6-.75-.26-1a4.17,4.17,0,0,1,1.86-.12c1.47.16,3.3-.41,3-.93s-2-.58-3.39-.26a3.09,3.09,0,0,1-2.56-.18c-1.51-.68-1.69-1.47-.65-2.91,1.32-1.85,1.57-2.45,1.19-2.9-.56-.68-1.11-.46-2.39,1a8.33,8.33,0,0,1-2.05,1.69A2.87,2.87,0,0,0,502,87.5c-.38.73-.38.88,0,1.46a2.31,2.31,0,0,0,1,.83c.85.26.68.77-.53,1.6a3.84,3.84,0,0,0-1.11,1.6A3.13,3.13,0,0,1,500,94.72c-1,.56-1,.57-1.57.07a2.8,2.8,0,0,1-.73-1.26,4.9,4.9,0,0,0-.92-1.66L496,91l-1,.58a4,4,0,0,1-1.51.58,2.25,2.25,0,0,1-2-1.83A5.38,5.38,0,0,0,491.3,89c-.25-.62,1-1.78,2.27-2.13a10.72,10.72,0,0,0,4.36-3,7.73,7.73,0,0,1,1.49-1.71,4.55,4.55,0,0,0,1.13-1.29c0-.15.59-.49,1.31-.74s1.94-.73,2.69-1a10.05,10.05,0,0,1,3.59-.63c2.61-.06,4.32.28,5.72,1.16a2.5,2.5,0,0,0,1.8.49c1-.19,6,1.38,6.25,1.93s-1.25,1.08-2.5.9c-.58-.08-1.77-.3-2.64-.49-1.18-.25-1.68-.26-1.91,0s-.11.4.44.65a2.84,2.84,0,0,1,1.16,1.12c.56,1.08,2.35,2,3.27,1.61s.88-.44-.06-1-.46-.57.63-.16c.86.33,1.85-.08,1.62-.68-.11-.28.19-.48,1.05-.7,1.82-.47,1.95-.53,1.8-.9-.57-1.4-.58-1.36.25-1.26.45,0,.77.24.73.42s.2.48.52.65c.48.26.85.17,2.17-.52,1.93-1,3.44-1.35,4-.88.31.26.83.26,2.33,0a7.25,7.25,0,0,1,2.2-.16.34.34,0,0,0,.45-.13c.22-.35-.38-1.15-.71-1s-1.71-.19-1.42-.48,8,1.51,8.43,2c.31.31,1.29-.11,1.29-.55,0-.14-.55-.53-1.22-.86-2.07-1-2.21-2.62-.25-3.11,1.13-.29,1.62,0,3.19,2.13,2,2.72,2,2.58,1.32,3.52-.5.69-.52.85-.18,1,.64.25,2-.62,2.22-1.4a1.89,1.89,0,0,0-1.21-2.21,2.35,2.35,0,0,1-1.38-1.81c0-.21.3-.27.89-.16.9.17,1.64-.16,3.67-1.6a3.91,3.91,0,0,1,2-.57c1.6,0,2.12-.31,1.66-.86-.19-.22-.28-.46-.21-.53.36-.35,4.9-1,6-.83a2.21,2.21,0,0,0,2.15-.56c.53-.41,1-.85,1-1,0-.34-2.41-.31-2.62,0s-.67.31-.56-.24-.15-.54-2.16-.7c-5.49-.42-5.94-.53-5.28-1.18s2-.57,3.19,0A4.85,4.85,0,0,0,559,70a1.63,1.63,0,0,1,1.08.28,1.65,1.65,0,0,0,1.08.28c1.37,0,4,.59,3.87.86s.18.24.57.24a4.06,4.06,0,0,1,1.61.48,7.68,7.68,0,0,0,3.5.48c2.09,0,2.78.12,3.39.52.41.29.75.6.75.69a5.29,5.29,0,0,1-1.41,1c-1.88,1-1.48,1.48.79.89a4.24,4.24,0,0,1,3,0,3.73,3.73,0,0,0,2.3.14,4.63,4.63,0,0,1,2.55.16,4.61,4.61,0,0,0,2.64.13,7.83,7.83,0,0,1,5.23.33l2.58,1.41c1.4.76,1.46.77,2.44.34a3.32,3.32,0,0,1,2.46-.17,2.94,2.94,0,0,0,2.3-.15c.66-.34.76-.5.51-.81-.48-.58,1.24-.8,3.35-.42,1,.17,2.2.35,2.73.39a8.37,8.37,0,0,1,2.31.67c1.12.51,2,.62,5.26.71,3.13.09,4.12.21,4.87.61s1.64.51,4.54.54c2.67,0,3.87.16,4.66.5,1.27.54,1.79.34,1.09-.44-.5-.56-.5-.56,1.43-.36a44.93,44.93,0,0,1,8.42,1.53,15.05,15.05,0,0,0,2.9.69,10.78,10.78,0,0,1,3,.85c1.08.55,1.43.61,2.12.37,1-.33,1.57-.09,3,1.17l.9.78-.67.17a5.39,5.39,0,0,1-3.12-.77.56.56,0,0,0-.57-.12,3.16,3.16,0,0,1-1.43-.27c-1.54-.53-2.23-.33-1.53.45.48.53.47.54-.44.48-1.72-.12-1.24.38,1.27,1.36,1.37.54,2.54,1,2.62,1.1.25.25-.6.56-1.22.44s-2.37.6-2.37,1a1.86,1.86,0,0,1-.59.81c-.54.51-.65.52-1.38.14a1.31,1.31,0,0,0-1.55,0,9.08,9.08,0,0,1-1.58.58,3.85,3.85,0,0,0-1.18.48c-.55.46.43,1.81,1.81,2.47a2.85,2.85,0,0,1,1.46,1.31,11.09,11.09,0,0,0,.67,1.46c.36.65.36.74,0,.9a.43.43,0,0,0-.25.65,5.65,5.65,0,0,1,.26,1.17,4.86,4.86,0,0,0,.27,1.15c.14.32,0,.51-.41.65s-.81,0-1.61-.92a17.29,17.29,0,0,0-2-1.86,13.6,13.6,0,0,1-2.28-2.39c-1.2-1.6-1.22-1.67-.82-2.44a4.21,4.21,0,0,0,.42-1.43,3.3,3.3,0,0,1,.39-1.32c.39-.72.24-1.29-.61-2.27a.74.74,0,0,0-1.31.63c.23.73-.48,1-1.29.43a5.72,5.72,0,0,0-1.81-.61c-1.11-.18-1.19-.14-1.47.61a3.24,3.24,0,0,0-.16,1.53c.13.64,0,.77-.61.91a3.5,3.5,0,0,1-1.83-.28,2.89,2.89,0,0,0-1.78-.24,16.16,16.16,0,0,1-3,.23c-2,0-2.35.11-2.95.67a4.63,4.63,0,0,0-1,1.93,7.9,7.9,0,0,1-.72,1.9c-.38.59-.34.65.74,1.2a4.51,4.51,0,0,0,3.42.42c.75-.26,3,1.52,3.75,2.92a3.66,3.66,0,0,0,1.07,1.33c1.13.61,1.36,4.57.42,7.16-.65,1.79-1.39,2.38-2.46,2a6.14,6.14,0,0,0-.84-.28,6.22,6.22,0,0,0-.68,1.13c-.43.82-.51,1.23-.3,1.48.4.49.11,1.12-.7,1.48-.37.17-.67.43-.67.58a7.94,7.94,0,0,0,1.92,1.59,6.42,6.42,0,0,1,2.39,2.36,2.57,2.57,0,0,1,.35,1.15c-.06,0-.62.36-1.25.68l-1.14.57-.69-1.58c-.77-1.76-1.43-2.47-2.59-2.78-.59-.16-.79-.39-.79-.87s-.29-.82-.89-1.18c-.89-.52-.91-.51-1.85.07s-1,.58-1.25,0a2.57,2.57,0,0,1-.29-1,1,1,0,0,0-.52-.7c-.42-.22-.68-.09-1.46.75a8.51,8.51,0,0,1-1.48,1.33c-.46.26-.49.37-.17.75a7.27,7.27,0,0,0,1.56,1.12c1,.58,1.24.61,1.59.26s.61-.35,1.62-.07l1.21.33-.68.45c-1.25.83-1.65,1.27-1.82,2s-.06.81.49,1.06a3.55,3.55,0,0,1,1.26,1.5,4.56,4.56,0,0,0,1.41,1.69c1,.59,1.31,1.23.72,1.56s-.28.75.44.75.86.52,0,3.48c-1,3.59-1.91,4.78-4.29,5.65a12.14,12.14,0,0,1-2.53.67,3.39,3.39,0,0,0-2.6,1.42l-.57.72-.26-.7c-.35-.91-1.14-1.14-2.28-.65a3.28,3.28,0,0,0-2,2c-.25.82.63,2.25,2.08,3.4a10,10,0,0,1,2.86,5.06,2.49,2.49,0,0,1-1.52,3.07,2.56,2.56,0,0,0-1.23,1c-.21.64-1.43,1.45-1.66,1.08a1.14,1.14,0,0,1,0-.78,1.84,1.84,0,0,0,0-1c-.14-.36-.29-.39-.73-.15s-.63.18-1-.35c-.9-1.31-3.52-3.41-4.24-3.41-.26,0-.35.31-.31,1a10,10,0,0,1-.24,2.3c-.27,1.2-.25,1.42.27,2.11a5.53,5.53,0,0,1,.75,1.47,6.13,6.13,0,0,0,1.81,2c1.52,1.22,1.68,1.46,2.32,3.49a23.18,23.18,0,0,1,.69,2.44c0,.47-.58.28-1.78-.59s-2-2.31-2.71-4.81a3.32,3.32,0,0,0-1.5-2.21c-1.09-.8-1.13-.87-1-2.21.05-.76.18-1.84.28-2.39a3.63,3.63,0,0,0-.53-2.49,16.57,16.57,0,0,1-1-2.77c-.39-1.58-.94-1.85-1.91-.92a3.59,3.59,0,0,1-.9.7c-.44,0-1.05-.94-.9-1.39.26-.83-1.36-3.72-2.3-4.11a2.71,2.71,0,0,1-1.31-1.44c-.55-1.22-1.17-1.69-1.79-1.35a11.67,11.67,0,0,1-2,.55c-1.6.32-2.17.81-1.95,1.64.08.31-.2.61-.87.93a3,3,0,0,0-1.3,1.16,1.71,1.71,0,0,1-.85.85,2.35,2.35,0,0,0-1,.94,8.31,8.31,0,0,1-1.71,1.72c-.93.72-1.22,1.12-1.18,1.62.27,3-.14,5.41-1.16,6.88s-1,1.46-1.89,1.08a1.55,1.55,0,0,1-.86-1.24,20.67,20.67,0,0,0-1.24-3.21c-3.53-7.59-4-9-3.75-10.41.2-.92-.29-2.32-.76-2.16a.58.58,0,0,0-.35.51c0,1.26-1.44,1.45-2.54.34l-.74-.73.63-.23c.71-.26.65-1-.07-.84a2.36,2.36,0,0,1-1.31-.62,3.57,3.57,0,0,0-1.07-.71c-.13,0-.32-.25-.41-.55a2.23,2.23,0,0,0-2.46-1.17,32.34,32.34,0,0,1-7.66-.08,4.52,4.52,0,0,1-1.48-1.16c-.83-.94-.84-.94-2.07-.61s-1.34.29-2.92-.51c-1.36-.69-1.77-1.06-2.19-2-.54-1.19-1.73-2-2.45-1.77a1.44,1.44,0,0,0-.6,1c-.14.64,0,1,.68,2a8.14,8.14,0,0,1,1.15,2.22c.33,1.24,1,1.62,1.54.86.34-.45.43-.47.65-.11a1,1,0,0,1,.17.69c-.15.48,1.44,1.26,2.19,1.07a5.29,5.29,0,0,0,1.78-1.42c1-1.08,1.29-1.15,1.12-.24a1.85,1.85,0,0,0,1.17,1.74c1.24.64,3,2,3,2.44a2.37,2.37,0,0,1-.71,1,7.11,7.11,0,0,0-1.27,1.73c-.72,1.42-2.83,3.49-3.55,3.49a3.67,3.67,0,0,0-2.54,1.44,3.91,3.91,0,0,1-1.35,1.11,44.53,44.53,0,0,1-6.68,2.81c-1,.18-1,.13-1.53-.86a9.76,9.76,0,0,1-.73-2.57,4.22,4.22,0,0,0-1-2.42,3.87,3.87,0,0,1-.8-1.17,5.21,5.21,0,0,0-1.1-1.41,6.18,6.18,0,0,1-1.56-2.69,8.13,8.13,0,0,0-1.12-2.38c-2.53-3.15-3.28-4.26-3.66-5.42-.5-1.54-.92-1.78-1.12-.66l-.14.8-.93-1.18c-1.44-1.81-1.62-1-.27,1.23.64,1,1.66,2.91,2.27,4.12a26.22,26.22,0,0,0,1.74,3.06,3.34,3.34,0,0,1,.65,1.75c0,1,.31,1.69,1.53,3.2a6,6,0,0,1,1.07,2c.13.61.67,1.25,1.81,2.17a8.47,8.47,0,0,1,3.15,4.07,2,2,0,0,0,1,1.19c.77.39,1,.38,3.48-.14a21.83,21.83,0,0,0,3.42-1l.77-.4.19,1.09c.17,1,0,1.47-2,5.25-2.11,4-2.21,4.18-4.32,5.84a20.13,20.13,0,0,0-2.75,2.54c-.33.47-1.38,1.72-2.34,2.79-2.81,3.11-3.19,5.85-1.33,9.52a3.45,3.45,0,0,1,.55,2.08,5.84,5.84,0,0,0,.13,2.08,2.81,2.81,0,0,1-.22,2.43c-.65,1.28-1.17,1.74-3,2.66-.8.4-1.45.84-1.45,1a7.64,7.64,0,0,1-1.24,1.66,7,7,0,0,0-1.24,1.67,6,6,0,0,0,.56,1.4c.94,1.84.31,3.17-1.94,4.1-1,.4-1.26,1.2-1,2.65.12.75,0,1-.39,1.24a4.47,4.47,0,0,0-1.19,1.31,22.68,22.68,0,0,1-5.86,5.67c-1.24.62-1.55.67-2.46.42a5,5,0,0,0-2.78.15c-2.17.55-1.94.57-2.78-.27Zm36.37-88.08c.71-.37.82-.57.82-1.62a2.1,2.1,0,0,0-.44-1.56,4.8,4.8,0,0,1-.85-1.18c-.39-.75-.39-.81,0-.65s1.27,0,1.27-.42A3.39,3.39,0,0,0,542,112c-.48-.66-.67-.75-1.11-.51s-.53.19-.53,0-.5-.53-1.1-.84c-1.33-.68-1.81-1.43-1.39-2.21a1.72,1.72,0,0,1,1.92-.7c.65.4.84-.19.3-.94-1.29-1.82-3.1-1.7-5.33.35-1.45,1.33-1.57,1.68-.75,2.12a1,1,0,0,1,.55.7,4.53,4.53,0,0,0,1.09,1.6c1.38,1.5,1.64,2.18,1.46,4l-.13,1.43,1.89,1c1,.54,1.94,1,2,1a5.45,5.45,0,0,0,.9-.41Zm-7.61,77.14c-.78-.44-.89-.68-1.09-2.31a3.27,3.27,0,0,1,.68-2.85,3.28,3.28,0,0,0,.68-2.93c-.25-2,.18-3.08,1.35-3.34a9.12,9.12,0,0,0,4.07-3.59l.44-1,.3.67c.77,1.68.69,2.42-.64,6.11-.72,2-1.48,4.33-1.7,5.24-.71,2.92-1.12,3.62-2.28,4s-1.12.37-1.81,0Zm136-4.8a4.86,4.86,0,0,1-1.41-2.21c0-.93.15-.85.94.51a11,11,0,0,0,1.54,2,3.28,3.28,0,0,1,.83,1c0,.53-.58.12-1.9-1.32Zm-123.2-.39a.28.28,0,1,1,.28.27A.28.28,0,0,1,546.94,190.45Zm145.43-.51a.35.35,0,0,1,.12-.47c.41-.25.56-.05.28.39-.14.24-.28.27-.4.08Zm-143.49-.44c0-.07.12-.2.27-.3s.28,0,.28.13a.28.28,0,0,1-.28.29C549,189.62,548.88,189.56,548.88,189.5Zm136.31-2.81c-.27-.7.07-.94.83-.6s.67.35.22.68C685.6,187.24,685.39,187.23,685.19,186.69Zm1.75-1.22c-.54-.34-.17-.6.69-.5.67.09.69.12.21.41a.91.91,0,0,1-.9.09Zm-12.89-1c-.57-1.22-.37-1.69.21-.51s.62,1.26.34,1.26C674.48,185.2,674.24,184.86,674.05,184.45Zm1.05-.19c0-.29.06-.46.15-.37a.56.56,0,0,1,0,.53c-.09.22-.15.16-.17-.16Zm22.48-2.66c-.25-.4,0-.61.58-.5.43.09.44.13.05.45s-.49.28-.63,0Zm-163.2-1.37c-.09-.15,0-.28.12-.28a.29.29,0,0,1,.29.28c0,.15,0,.28-.12.28S534.47,180.38,534.38,180.23Zm121.23-2.6a5.19,5.19,0,0,1-3.23-2.08c-.78-1.17-2.22-2.05-3-1.82a2.81,2.81,0,0,0-1.11,1.14c-.54.9-.64.95-1.61.78a4,4,0,0,1-1.77-.87c-.52-.47-.91-.63-1.31-.5a1.5,1.5,0,0,1-1-.06c-.38-.22-.35-.32.26-.71s.71-.47.23-1.46c-.38-.79-.9-1.21-2.61-2.07a10.21,10.21,0,0,0-3-1.07c-1,0-1.45-.95-.68-1.52.46-.33.39-.42-.81-1s-1.29-.64-.68-1a3.25,3.25,0,0,1,1.23-.36,1.85,1.85,0,0,1,1.47,1.67,2.64,2.64,0,0,0,.59,1.21c.59.75.61.75,1,.21a7.66,7.66,0,0,1,1.71-1.27l1.27-.73,1.77.79c1,.44,2.35,1,3.06,1.27a18.79,18.79,0,0,1,3.17,1.7c2,1.29,2.82,2.38,2.33,3s1.17,2.67,2.8,3.91c1.79,1.35,1.76,1.47-.21.85Zm12,0c-.22-.26-.24-.42-.06-.42.34,0,.73.53.54.72s-.29-.07-.48-.3Zm-46.4-1.12c-.4-.22-.52-.39-.28-.39.5,0,1.29.45,1.1.64S621.61,176.7,621.23,176.49Zm4.67-.37a2.79,2.79,0,0,1,3.14-1.2c.83.26.84.28.18.31a5.77,5.77,0,0,0-2,.86c-1.64,1-2,1-1.31,0Zm40.07.38c-.38-.45-.29-.5.39-.25.24.1.44.28.44.42C666.8,177.05,666.35,177,666,176.5Zm1.29-.24a3,3,0,0,1-.17-1c0-.3.11-.23.28.21a2,2,0,0,1,.18,1c-.06.16-.19.07-.29-.2Zm21.35.26c0-.07.13-.2.28-.3s.27,0,.27.13a.28.28,0,0,1-.27.29C688.74,176.64,688.61,176.58,688.61,176.52ZM618,175.36a.29.29,0,0,1-.19-.4,2.5,2.5,0,0,1,2.2,0c.09.15,0,.28-.19.28a6.29,6.29,0,0,0-.92.12,1.79,1.79,0,0,1-.9,0Zm4.1-.21c-.5-.6.08-.79,1.38-.44s1.31.41-.05.65C622.7,175.49,622.32,175.43,622.08,175.15Zm41.47-.17c-.19-.3-.23-.55-.08-.55s.4.25.56.55.2.55.08.55S663.74,175.29,663.55,175Zm1.73-.28c-.74-.81-.35-.94.41-.13.36.38.52.69.37.69a1.6,1.6,0,0,1-.78-.56Zm-51.78,0a21.55,21.55,0,0,1-3.1-.68,4.17,4.17,0,0,0-1.86-.24c-.64.2-3.33-.59-3.33-1,0-.88,2.48-.95,3.79-.1.5.31.88.33,1.92.1s1.39-.22,2.07.28a3,3,0,0,0,1,.56c.55,0,2.2.93,2.06,1.15a.51.51,0,0,1-.47.19l-2.12-.28Zm49.57-1.33c-.28-.31-.38-.56-.23-.56a1.6,1.6,0,0,1,.78.56c.28.3.38.55.22.55a1.67,1.67,0,0,1-.77-.55Zm-1.74-.35a3.42,3.42,0,0,1-.47-1.18c-.15-.73-.14-.76.16-.27a9.6,9.6,0,0,0,.72,1c.23.26.29.52.13.62S661.48,173.16,661.33,173Zm-5.85-.88-.69-.38,1.07-.2a5,5,0,0,0,2-1c.56-.49.94-.67.93-.45,0,.56-.34,1-1.37,1.76s-1,.79-1.93.29ZM603.68,171a11.75,11.75,0,0,1-3.44-4.2,16.33,16.33,0,0,0-1.64-2.75,20.11,20.11,0,0,1-1.48-2.21,9.77,9.77,0,0,0-1.57-1.93c-1.34-1.28-2.16-2.63-1.6-2.62a7.43,7.43,0,0,1,3.39,1.89c2.21,2.3,2.66,2.71,3.7,3.36a2.59,2.59,0,0,1,1.53,2.07,2.87,2.87,0,0,0,.64,1c.34.38,1,1.1,1.43,1.59a4.59,4.59,0,0,1,1,1.71c.33,1.46-.85,2.75-1.94,2.13Zm-55.63-.18a.28.28,0,1,1,.28.28A.28.28,0,0,1,548.05,170.84Zm73,0a1.26,1.26,0,0,1,0-.82,1.62,1.62,0,0,0-.26-1.18c-.38-.59-.38-.71,0-1.31a6.11,6.11,0,0,0,.67-2.17,3.65,3.65,0,0,1,.86-2.16c.6-.61.75-.63,2.1-.38a3,3,0,0,0,2.26-.13c1.06-.55,1.14-.52.78.25a1.54,1.54,0,0,1-2.28.8c-1.68-.88-3.92.43-2.74,1.61.43.43.67.47,1.48.24,1.37-.39,1.91-.32,1.06.14a1.32,1.32,0,0,0-.65,2.08,4,4,0,0,1,.41,1.51c0,.63-.07.68-.55.41a3,3,0,0,1-1-1.3c-.42-1-.42-1-1-.47s-.5.68-.24,1.61.21,1.12-.08,1.3c-.49.31-.71.3-.92,0ZM659,169.36a4.18,4.18,0,0,0-1.33-1.16c-.46-.24-.78-.5-.71-.58.43-.43,2.83,1.52,2.62,2.14-.06.18-.31,0-.58-.4Zm-43.37-.91a2,2,0,0,0-1.24-.25c-.69.22-3.42-.33-3.69-.75a22.81,22.81,0,0,1-1.19-3.79,1.62,1.62,0,0,1,.22-1.21c.32-.43.48-.46,1-.2s.64.24.93-.4a3.39,3.39,0,0,1,1.34-1.24,3.09,3.09,0,0,0,1.36-1.34,1.93,1.93,0,0,1,1.28-1.14,4.11,4.11,0,0,0,1.66-1.26c.4-.52.87-.94,1-.94a3.36,3.36,0,0,1,1.21.91l.88.91-.7.95c-.81,1.08-.77,2,.14,3.3l.56.77-.69.45c-.38.25-.69.6-.69.79a15.21,15.21,0,0,1-2.21,4.56c-.31.19-.67.15-1.2-.12Zm16,0c-.58-.15-.66-.64-.11-.64a8.36,8.36,0,0,1,1.3.19c.78.15.84.21.38.39a2,2,0,0,1-1.57.06Zm44-3.52c0-.07.13-.2.28-.29s.28,0,.28.12a.29.29,0,0,1-.28.29C675.76,165,675.63,165,675.63,164.92Zm-44.94-.75a.62.62,0,0,1,0-.83,1,1,0,0,0,.11-.78c-.25-.41.37-1.39.88-1.39s.4.05,0,.52a1,1,0,0,0-.19,1.24c.44,1.15,0,1.95-.74,1.24ZM492,163.26c0-.07.12-.2.28-.29s.27,0,.27.12a.28.28,0,0,1-.27.29C492.11,163.38,492,163.33,492,163.26Zm191.51-.7c-.09-.16,0-.28.13-.28a.28.28,0,0,1,.29.28c0,.15-.06.27-.12.27S683.6,162.71,683.5,162.56ZM493.65,160c0-.07.12-.2.27-.29s.28,0,.28.12a.29.29,0,0,1-.28.29C493.77,160.07,493.65,160,493.65,160Zm132.83-4.15c-.53-1.23-.6-1.29-1.41-1.11s-.83.16-.53-.41.48-.56,1.08-.43a1.49,1.49,0,0,0,1.5-.52,2.28,2.28,0,0,0,.74-1.19c0-.69,1,1.64,1.27,2.89.18.95.16,1-.27.65-.64-.53-1.26,0-.74.65.21.25.24.43.07.43a2.56,2.56,0,0,0-.72.16c-.32.13-.58-.17-1-1.12Zm-50.35.48a7,7,0,0,1-.26-3.35c.23-.63.25-.62,1,.42.84,1.25,1.11,2,.83,2.47s-1.36.74-1.53.46Zm61.67-1.42a.57.57,0,0,1,.28-.45c.15-.1.27,0,.27.1a.59.59,0,0,1-.27.45C637.92,155.05,637.8,155,637.8,154.86Zm43.36,0c0-.15.05-.27.12-.27s.2.12.29.27,0,.28-.12.28A.29.29,0,0,1,681.16,154.82Zm-62.69-1.59a7.85,7.85,0,0,1,1.23-1.59c1-1.11,1.23-1.26,1.24-.81a3.35,3.35,0,0,1-.92,1.59C619.15,153.37,618.47,153.73,618.47,153.23Zm6-.74a1.16,1.16,0,0,1,0-.88c.19-.35.27-.36.54,0s.24.51,0,.89S624.62,152.94,624.45,152.49ZM413,151.41c.17-.2.23-.45.13-.55s.07-.18.39-.18.54.13.43.55a.74.74,0,0,1-.7.55c-.43,0-.49-.08-.25-.37Zm213.33-.07a5.49,5.49,0,0,0-.3-.73c-.06-.11,0-.21.15-.21s.67,1.14.46,1.34S626.41,151.63,626.3,151.34Zm-2.8-.72a.6.6,0,0,1,.57-1c.37.08.38.19.09.73S623.76,150.92,623.5,150.62Zm3.27-1c-.32-.4-.53-.78-.47-.83.22-.23,1,.27,1.41.9C628.35,150.71,627.54,150.65,626.77,149.67Zm-4.54-1.07a1.45,1.45,0,0,1-.45-.76c0-.18.28-.05.61.29s.53.67.45.76S622.48,148.85,622.23,148.6Zm-216.77,0a.76.76,0,0,1-.18-.47c0-.17.13-.15.32,0s.27.39.19.46A.24.24,0,0,1,405.46,148.56Zm-1.56-.37c0-.15.05-.27.12-.27s.2.12.29.27,0,.28-.12.28A.28.28,0,0,1,403.9,148.19Zm13-.55c0-.15.05-.27.12-.27s.2.12.29.27,0,.28-.12.28A.29.29,0,0,1,416.88,147.64Zm208.13,0a1.83,1.83,0,0,0-1.17-.12c-.53.14-.9-.08-1.9-1.11-1.42-1.45-1.69-2.07-1.28-2.84a3.52,3.52,0,0,0,.29-1.38c0-1.49,1-1.43,1.74.11a1.75,1.75,0,0,1,0,2c-.41,1-.4,1,.33,1.8.53.56.93.75,1.35.64a.93.93,0,0,1,1,.28c.5.59.28,1-.34.67Zm-209.79-1.74c0-.06.12-.19.27-.29s.28,0,.28.12a.29.29,0,0,1-.28.3C415.34,146,415.22,145.93,415.22,145.86Zm43.36-1a.28.28,0,0,1,.27-.28.28.28,0,1,1,0,.56A.28.28,0,0,1,458.58,144.88Zm-44.19-1.07a.61.61,0,0,1,.28-.45c.15-.09.27,0,.27.11a.59.59,0,0,1-.27.44C414.51,144,414.39,144,414.39,143.81ZM412,142.68c-.09-.16,0-.21.26-.11.48.18.57.38.17.38A.6.6,0,0,1,412,142.68Zm43.91,0c-.09-.15,0-.27.12-.27a.29.29,0,0,1,.3.27c0,.15-.06.28-.13.28S456.05,142.82,456,142.67Zm-42.8-.55c-.1-.15,0-.28.12-.28a.29.29,0,0,1,.29.28c0,.15-.05.28-.12.28S413.24,142.27,413.15,142.12Zm1.24,0c0-.15.06-.28.12-.28s.2.13.29.28,0,.28-.12.28A.29.29,0,0,1,414.39,142.12Zm-19-.74a.5.5,0,0,1-.34-.39c0-.4,1.22-.29,1.81.15s.5.41-.29.4A4.38,4.38,0,0,1,395.4,141.38Zm7-.15a2.06,2.06,0,0,0-1.21-.09,2.79,2.79,0,0,1-1.44-.1c-.6-.24-.55-.26.45-.24,1.47,0,1.86-.21,1.49-.91-.27-.49-.19-.53,1.13-.53s3.11.58,3.42,1.09c.21.33-3.34,1.05-3.84.78Zm5.3.17c-.33-.32.08-.66.8-.66.44,0,.66.13.59.34A1.1,1.1,0,0,1,407.69,141.4ZM607.48,141c-.73-.73,0-1.6,1.33-1.6.59,0,.59,0,.09.87C608.3,141.25,608,141.43,607.48,141ZM410,140.91c0-.06.19-.18.42-.27s.41,0,.41.11-.19.26-.41.26S410,141,410,140.91Zm-11.94-2a3.21,3.21,0,0,0-1.29-.17c-.87,0-1.07-.1-.86-.36s-.09-.57-1.11-1.23c-2-1.29-3.1-1.54-4.44-1s-1.35.52-1.35.2c0-.58,2.2-1.21,3.78-1.09s2.37.44,5.34,2c2.44,1.3,2.44,1.31,1.65,1.53S398.23,139.12,398,138.93Zm2-2.33c.54-.35.83-.35.83,0,0,.15-.28.27-.62.27C399.73,136.86,399.7,136.81,400,136.6ZM620,136.11a2.84,2.84,0,0,1-.64-.84c-.28-.53-.25-.78.17-1.5.64-1.1,1.08-1.24,1.29-.4s-.42,3-.82,2.74Zm-218.12-.37c.19-.3,1.23-.33,1.23,0,0,.11-.31.22-.69.25s-.62-.08-.54-.21Zm-5.46-2.66c-.44-.51-.38-1.18.12-1.18.15,0,.22.24.14.54s0,.59.17.65.25.2.16.29S396.61,133.34,396.38,133.08Zm1.61-2.17c-.1-.26-.12-.53,0-.61s.21.08.31.33.12.53,0,.61S398.08,131.16,398,130.91Zm-1.73-.25a.48.48,0,0,1,.52-.42c.47,0,.48,0,.11.42a1.65,1.65,0,0,1-.52.41C396.31,131.07,396.26,130.89,396.26,130.66Zm231.6-6.06a2.8,2.8,0,0,0-.67-1.18c-.88-1-.57-1.74.47-1.06a2,2,0,0,1,.86,2.2C628.31,125.1,627.86,125.13,627.86,124.6Zm-214.3-1.66c0-.06.13-.2.28-.29s.27,0,.27.12a.28.28,0,0,1-.27.29C413.69,123.06,413.56,123,413.56,122.94Zm215.84-.34c-.18-.46.24-.9.87-.91.44,0,.45.61,0,1s-.68.42-.89-.13Zm2.52-1c-.54-.82-1.29-.94-3-.45a2,2,0,0,1-1.52,0c-.26-.15-.33-.28-.15-.29a3.3,3.3,0,0,0,1.15-.7c.59-.5,1-.66,1.49-.54s1-.11,2.15-1c2.19-1.64,2.38-2.16,1.49-3.91s-.61-2.22.65-1.48c.92.55,1.79,2.1,1.54,2.76a3.41,3.41,0,0,0,.3,1.65c.36.94.4,1.34.15,1.79a2.76,2.76,0,0,1-2.46,1.11c-.63,0-.82.16-1,.88l-.25.88-.49-.74Zm-111.87-.95c-.33-.33-.16-.62.37-.62a.91.91,0,0,0,.7-.28c.26-.41.7-.33.53.1s-1.36,1-1.6.8Zm-9.42-.47-.83-.38,1.11,0c1.37,0,2.39.23,2.19.55s-1.52.28-2.47-.15Zm-11.16-2.76c-1.1-.57-1.15-.64-.58-.79s2.22.05,2.19.32a3.48,3.48,0,0,1-.2.63C500.71,118,500.57,118,499.47,117.42Zm-5.53-3c-.24-.68-.22-1,.09-1.26.56-.56,1-.16,1,.91,0,1.26-.7,1.49-1.09.35Zm-6.48.23c.2-.51,1-.59.87-.09a.8.8,0,0,1-.57.44c-.32.06-.41,0-.3-.35Zm144.3-3.15c-.51-.71-.52-.84-.15-1.37s.36-.68,0-1.41c-.62-1.21-.54-1.28.54-.46a8.65,8.65,0,0,0,2.34,1.15q2.32.69,1.11,1.08c-.3.1-.55.36-.55.58s-.19.35-.76.2c-1.46-.37-1.87-.28-1.78.39.12.83-.07.79-.74-.16Zm-137.38.32a.62.62,0,0,1,.23-1c.3-.11.42,0,.42.53C495,112,494.76,112.21,494.38,111.83ZM630,106a14.26,14.26,0,0,1-1.25-2.14,21.81,21.81,0,0,0-2.68-3.72c-1.14-1.27-1.71-2.11-1.5-2.18s.61.23.92.64a14.53,14.53,0,0,0,3.18,3c1.22.9,1.82,1.74,1,1.43s-.68.48.5,1.81a12,12,0,0,1,1.25,1.54c0,.33-1.07.07-1.45-.36Zm-202.08-.48c0-.23.12-.42.27-.42s.2.19.11.42-.21.41-.27.41S427.92,105.76,427.92,105.53Zm-1.44-.89-1-.11,1.94-1.92a11.53,11.53,0,0,1,2.24-1.91c.18,0,.13.2-.13.48-.57.63-.18,1.35.87,1.58a1.63,1.63,0,0,1,1.09.84c.29.62.24.69-.72,1a11.51,11.51,0,0,1-4.26.09Zm-67.29-2c-1-.9-1.06-1.27-.43-1.52s1.62.5,2,1.37.41.95-.2.95A2.89,2.89,0,0,1,359.19,102.66Zm121.62-1.41c.3-.15.9-.39,1.32-.55.94-.34.79-.7-.4-.94-.82-.16-.85-.2-.38-.54.28-.21.43-.5.33-.66s.18-.42.64-.58.83-.42.83-.57c0-.63-.57-1.71-.89-1.66-.74.09-1.08,0-1-.37a1.23,1.23,0,0,0-.13-.83,1.79,1.79,0,0,1,1.22-2.13c.12,0,.18.14.14.33s.22.38.58.44l.65.1-.62.65-.62.66.7.27c.75.28,1.47,1.21,2.21,2.84.35.77.58,1,1,.87.84-.22.94.35.15.87-.53.35-.64.55-.4.78s-.23.4-1.83.63c-1.19.17-2.59.39-3.12.49-.74.13-.84.11-.41-.1Zm-4.66-1.52a1.85,1.85,0,0,1,.24-1.24c.26-.51.31-.86.13-1-.47-.3-.29-.67.41-.85a2.15,2.15,0,0,0,1-.56c.37-.44,2.07-.52,2.32-.11.1.15,0,.55-.26.89a2.86,2.86,0,0,0-.43,1.35c0,.62-.19.8-1.17,1.14-.65.23-1.38.5-1.62.6A.41.41,0,0,1,476.15,99.73ZM481.22,97c0-.06.12-.19.28-.29s.27,0,.27.12a.29.29,0,0,1-.27.3C481.34,97.11,481.22,97.05,481.22,97ZM358.66,95.65c-.27-.32-.25-.47.09-.76.56-.46.84-.15.51.59-.22.5-.31.53-.6.17Zm-.43-2.07c-.09-.15,0-.43.24-.62.45-.37.54-.08.17.52C358.49,93.7,358.33,93.74,358.23,93.58Zm-17.85-.18c0-.19.84-.53,2-.82.45-.11.71-.08.62.06a1.79,1.79,0,0,1-.92.41,9.48,9.48,0,0,0-1.25.34c-.26.1-.48.11-.48,0Zm164.11-3.1c-.51-.21-.42-.53.16-.57.28,0,.5.14.5.35,0,.42-.09.45-.66.22ZM443.8,88.88c-1.75-.95-2.58-2.41-2.08-3.64a1.41,1.41,0,0,0,0-1.35c-.46-.85.14-1.85,1.67-2.79a5.76,5.76,0,0,0,1.6-1.36,2.09,2.09,0,0,0-.72-2.59c-.39-.18-.6-.46-.51-.68.19-.51-.73-2.26-1.64-3.11-.68-.63-1-.69-3.27-.71-3.15,0-3.73-.2-3.68-1.1,0-.37.11-.68.19-.68l2.48-.29a17.47,17.47,0,0,0,4.95-1.4c2.84-1.21,3.05-1.23,9.82-1.07a33.77,33.77,0,0,0,6.63-.53,21,21,0,0,1,5-.44,7.82,7.82,0,0,0,2.59-.14,14.15,14.15,0,0,1,7,.87,4.3,4.3,0,0,0,2.93.37c1.66-.16,1.78-.14,1.28.22a5.69,5.69,0,0,1-2.07.61c-1.81.24-3.48,1.53-3,2.36.19.35.05.65-.57,1.24a4.51,4.51,0,0,0-.95,1.24c-.2.61-2.64,1.74-3.85,1.78s-1.48.33-.44.9a15,15,0,0,1,1.59,1l.7.53-.63.23c-.49.18-.88.07-1.69-.49-1.1-.76-2.28-.76-1.65,0,.25.3.19.41-.27.53-1,.27-.3.8.83.61.72-.12,1.13-.06,1.35.22s-.08.47-2.09.89a25.89,25.89,0,0,1-3.93.53A6.66,6.66,0,0,0,457,82.38a8.24,8.24,0,0,1-3,1.07c-2.79.53-3.73,1.15-5.41,3.54-1.35,1.92-2.16,2.64-3,2.64a6.19,6.19,0,0,1-1.8-.75ZM424.22,87a6,6,0,0,1-1.61-1.51c-.58-.91-1.11-1-2.67-.58a2.21,2.21,0,0,1-1.35,0c-.82-.46.66-.91,2.3-.7,1.25.15,1.53.11,1.68-.27A2.07,2.07,0,0,1,425,83a1.73,1.73,0,0,0,1.46,0c.79-.3.8-.33.29-.71a2.11,2.11,0,0,0-.75-.39,3.84,3.84,0,0,1-.94-1.24,6,6,0,0,0-1.65-1.8c-.87-.54-1-.55-1.77-.15a2.6,2.6,0,0,1-2.15.14,6.86,6.86,0,0,0-2.25-.13c-.89.17-2.52-.27-2.52-.67,0-.74,2.34-2.41,3.72-2.65l1.11-.2-.79.84c-1.09,1.16-.68,1.7.5.66a4.81,4.81,0,0,1,1.93-1c.85-.16,1.22-.06,2.29.65,1.42.94,1.53,1,2.34.54.48-.26.66-.19,1.19.47a4.5,4.5,0,0,0,2,1.2c1.26.4,1.35.49,1.35,1.36a1.52,1.52,0,0,0,.63,1.38c1.85,1.32,1.81,1.27,1.41,1.91-.55.88-1,1-2.2.32-.85-.43-1.22-.49-1.64-.26s-.53.34-.11,1.15A1.45,1.45,0,0,1,428.5,86c-.29.63-.33.64-1.11.24-1.54-.8-2.58-.28-1.15.57.46.27.76.59.68.71-.26.43-1.63.2-2.7-.45Zm56.72.35c0-.12.19-.23.42-.23s.41.11.41.23-.18.23-.41.23S480.94,87.52,480.94,87.39Zm-67.13-1.48a2,2,0,0,0-1.73-.1c-1.3.36-1.75.1-1.09-.63a2,2,0,0,1,2.43-.78c1.14.38,1.65.94,1.34,1.48C414.56,86.23,414.43,86.23,413.81,85.91Zm54.84-.13a2,2,0,0,0-1.28-.4c-.35.12-.43,0-.32-.39.16-.63,2.59-1.54,3.41-1.27a3.72,3.72,0,0,0,1.62-.17c1-.29,1.21-.26,1.85.16l.75.49-.67.52c-.56.43-1.6.81-4.11,1.5A2.2,2.2,0,0,1,468.65,85.78Zm-75-5.15a11.71,11.71,0,0,1-2.06-.72l-1.36-.62,1.92-.13c1.05-.08,1.91-.27,1.91-.42s-.74-.34-1.65-.42c-1.21-.11-1.43-.19-.83-.28,1-.15,1.08-.59.14-.83-.68-.17-.68-.18.28-.59a7.36,7.36,0,0,1,5-.39c1.28.38,1.48.38,2.09,0,.42-.28.68-.33.7-.13l.07.63c.06.6.61.52,1.27-.18s1.66-1,1.66-.49a4.72,4.72,0,0,1-.55,1.1l-.54.89.89.47.89.46-1.46.67a3.17,3.17,0,0,1-2.78.35,3.19,3.19,0,0,0-2.63.26,3.92,3.92,0,0,1-2.93.38Zm11.07-.2c-.25-.3-.14-.44.5-.71a2.46,2.46,0,0,1,1.44-.14c.6.19.58.22-.33.7-1.16.62-1.21.63-1.61.15Zm76.19-1.27c.54-.35.83-.35.83,0,0,.15-.28.27-.62.27C480.65,79.42,480.61,79.37,480.94,79.16Zm50.68-.77c-1.41-.56-1.38-.53-1-1,.19-.23.24-.43.1-.43s0-.2.32-.43.55-.5.55-.61c0-.41,1.14-1.49,1.93-1.85a10.25,10.25,0,0,1,2.62-.52c1-.08,2.31-.22,2.94-.32s1.22-.06,1.32.1c.19.32-.18.46-2.32.84s-3.41,1-4.25,2-.92,1.72-.1,2.29l.62.43h-.83a7,7,0,0,1-1.93-.45ZM387,77.59c-.44-.45-.34-.54,1.8-1.71,2.5-1.37,3.76-1.56,6-.87l1.25.38-1.66.33a42.2,42.2,0,0,0-6.5,2.17A1,1,0,0,1,387,77.59Zm19.95-.36c0-.15-.34-.46-.76-.7l-.75-.44,1,.16c.72.12,1.08,0,1.24-.23a5.56,5.56,0,0,1,2.65-1c.12,0,0,.37-.21.82-.55,1.07-3.18,2.22-3.18,1.39Zm4.3-.8c-.39-.64,2.31-1.64,3.46-1.27.83.26.28.72-1.18,1a11,11,0,0,0-1.65.39.53.53,0,0,1-.63-.08Zm8.82-2c-1.82-.14-3.35-.29-3.39-.33-.24-.23.37-1,1-1.25s1-.24,1.85.22a4.88,4.88,0,0,0,3,.4,12.31,12.31,0,0,1,2.77,0l.78.2-1,.52a4,4,0,0,1-1.38.49l-3.73-.3Zm79.47-1.13c-1.35-.69-1.48-1-.42-1a2.39,2.39,0,0,0,1.17-.3c.36-.26.36-.28,0-.16a.82.82,0,0,1-.77-.18c-.25-.24-.37-.24-.53,0s-.45.27-1,.1c-1.45-.44-1.78-.63-1.78-1.07s.37-.4,2.63-.24c1.72.12,2.62.09,2.62-.1,0-.54.77-.27,1,.34l.2.63.13-.63c.06-.34.3-.62.51-.62a.37.37,0,0,0,.4-.33c0-.26.07-.26.33,0a4.82,4.82,0,0,0,2.21.33c2,0,2.44.36,1.12.86a5.63,5.63,0,0,1-3.18-.2c-.26-.08-.48,0-.48.08a4.09,4.09,0,0,0,2,1.2,1.27,1.27,0,0,1,.66.38c.34.34.33.41,0,.55s-.4,0-.4-.14-.35-.24-1-.12-.93.1-.8-.12a.67.67,0,0,0-.15-.7c-.35-.43-1.37-.56-1.37-.18a4.84,4.84,0,0,1-.89,1.22l-.9,1-1.17-.6Zm-73.26-.6a3.55,3.55,0,0,0-2.2-.27,4.09,4.09,0,0,1-2.16-.22c-.56-.32-.42-.36,1.3-.35,2.16,0,3.11-.44,1.94-.94-.56-.24-.48-.26.48-.13,1.24.17,1.72-.16,1-.72s.07-.78,2.64-.62a7.22,7.22,0,0,0,3-.17c.78-.42.47-.95-.42-.73a19,19,0,0,1-4.72-.28c.13-.13,6.2-.69,10.18-.94,2.07-.13,4.37-.31,5.11-.41l1.35-.16-2.23,1.07a22.12,22.12,0,0,1-6.88,2,7.1,7.1,0,0,0-2.17.83,8.31,8.31,0,0,1-1.93.82,9.56,9.56,0,0,0-2,.83l-1.62.82-.7-.41Zm-5.38-2.53c-1.34-.29-1.39-.4-.4-.91,1.43-.75,2.79-.94,3.4-.48s.46.41-.5,1A2.69,2.69,0,0,1,420.88,70.13Z"/></g><circle class="g" cx="497.84" cy="149.55" r="104.25"/><path class="b" d="M662.8,78.81c-13.36,8.77-27,17-40.7,25.28s-27.45,16.28-41.26,24.29S553.15,144.25,539.21,152c-7,3.87-14,7.75-21,11.55l-10.54,5.74c-3.51,1.93-7.06,3.77-10.6,5.64-7.07,3.75-14.23,7.32-21.38,10.9s-14.39,7-21.68,10.33q-21.8,10.11-44.3,18.78c-7.51,2.87-15.11,5.56-22.85,8-3.88,1.19-7.79,2.31-11.8,3.29-2,.47-4.05.91-6.16,1.26-1.05.18-2.12.33-3.24.45a24.8,24.8,0,0,1-3.63.12,11.45,11.45,0,0,1-2.33-.36,6.88,6.88,0,0,1-1.6-.65,5.27,5.27,0,0,1-1.91-1.79,5,5,0,0,1-.75-2.75,5.63,5.63,0,0,1,.37-1.89,8.81,8.81,0,0,1,1.19-2.14,27.06,27.06,0,0,1,4.89-4.75A109.06,109.06,0,0,1,372,206.81c6.91-4.19,14-8,21.2-11.49-6.22,5.07-12.51,10-18.5,15.19-3,2.58-5.95,5.21-8.58,7.94-.65.68-1.27,1.37-1.84,2.06a12.24,12.24,0,0,0-1.38,1.94c-.15.27-.23.53-.19.51a.83.83,0,0,0,.11-.43,2.52,2.52,0,0,0-.36-1.34,2.47,2.47,0,0,0-.8-.81c-.17-.11-.24-.13-.2-.14s.33,0,.63,0a28.57,28.57,0,0,0,5-1c1.78-.5,3.6-1.1,5.42-1.74,3.64-1.25,7.29-2.68,10.92-4.16,7.28-2.93,14.52-6.11,21.74-9.32,28.9-12.93,57.55-26.67,86.3-40.24l10.77-5.12c3.59-1.7,7.22-3.35,10.75-5.14q10.66-5.28,21.33-10.69L577,121.26q21.39-10.7,42.83-21.32Z"/><polygon class="b" points="676.18 70.36 640.23 80.45 654.46 83.56 650.24 99.51 676.18 70.36"/><line class="h" x1="497.84" y1="31.05" x2="497.84" y2="22.54"/><line class="h" x1="490.1" y1="31.3" x2="489.56" y2="22.8"/><line class="h" x1="482.5" y1="32.03" x2="481.42" y2="23.59"/><line class="h" x1="475.05" y1="33.23" x2="473.43" y2="24.88"/><line class="h" x1="467.76" y1="34.89" x2="465.62" y2="26.65"/><line class="h" x1="460.65" y1="36.99" x2="457.99" y2="28.9"/><line class="h" x1="453.74" y1="39.51" x2="450.58" y2="31.61"/><line class="h" x1="447.03" y1="42.44" x2="443.38" y2="34.75"/><line class="h" x1="440.54" y1="45.76" x2="436.43" y2="38.31"/><line class="h" x1="434.29" y1="49.47" x2="429.73" y2="42.28"/><line class="h" x1="428.29" y1="53.53" x2="423.3" y2="46.64"/><line class="h" x1="422.57" y1="57.95" x2="417.17" y2="51.37"/><line class="h" x1="417.12" y1="62.7" x2="411.34" y2="56.46"/><line class="h" x1="411.98" y1="67.77" x2="405.82" y2="61.89"/><line class="h" x1="407.15" y1="73.14" x2="400.65" y2="67.64"/><line class="h" x1="402.64" y1="78.8" x2="395.83" y2="73.7"/><line class="h" x1="398.49" y1="84.73" x2="391.37" y2="80.06"/><line class="h" x1="394.69" y1="90.92" x2="387.3" y2="86.69"/><line class="h" x1="391.27" y1="97.35" x2="383.64" y2="93.58"/><line class="h" x1="388.24" y1="104" x2="380.39" y2="100.72"/><line class="h" x1="385.62" y1="110.87" x2="377.58" y2="108.08"/><line class="h" x1="383.41" y1="117.93" x2="375.21" y2="115.65"/><line class="h" x1="381.64" y1="125.18" x2="373.32" y2="123.42"/><line class="h" x1="380.33" y1="132.59" x2="371.9" y2="131.37"/><line class="h" x1="379.47" y1="140.15" x2="370.99" y2="139.47"/><line class="h" x1="379.1" y1="147.86" x2="370.59" y2="147.72"/><line class="h" x1="379.23" y1="155.61" x2="370.73" y2="156.02"/><line class="h" x1="379.84" y1="163.25" x2="371.38" y2="164.2"/><line class="h" x1="380.93" y1="170.74" x2="372.55" y2="172.23"/><line class="h" x1="382.47" y1="178.07" x2="374.2" y2="180.09"/><line class="h" x1="384.46" y1="185.23" x2="376.34" y2="187.76"/><line class="h" x1="386.88" y1="192.19" x2="378.93" y2="195.23"/><line class="h" x1="389.71" y1="198.96" x2="381.96" y2="202.48"/><line class="h" x1="392.93" y1="205.5" x2="385.42" y2="209.5"/><line class="h" x1="396.54" y1="211.81" x2="389.29" y2="216.26"/><line class="h" x1="400.52" y1="217.87" x2="393.55" y2="222.76"/><line class="h" x1="404.85" y1="223.67" x2="398.19" y2="228.97"/><line class="h" x1="409.52" y1="229.19" x2="403.19" y2="234.88"/><line class="h" x1="414.51" y1="234.41" x2="408.54" y2="240.47"/><line class="h" x1="419.81" y1="239.32" x2="414.21" y2="245.73"/><line class="h" x1="425.4" y1="243.9" x2="420.2" y2="250.64"/><line class="h" x1="431.26" y1="248.15" x2="426.48" y2="255.19"/><line class="h" x1="437.39" y1="252.03" x2="433.05" y2="259.36"/><line class="h" x1="443.76" y1="255.55" x2="439.87" y2="263.12"/><line class="h" x1="450.36" y1="258.68" x2="446.95" y2="266.48"/><line class="h" x1="457.17" y1="261.41" x2="454.26" y2="269.4"/><line class="h" x1="464.19" y1="263.72" x2="461.78" y2="271.88"/><line class="h" x1="471.39" y1="265.6" x2="469.5" y2="273.9"/><line class="h" x1="478.76" y1="267.03" x2="477.4" y2="275.43"/><line class="h" x1="486.29" y1="268" x2="485.47" y2="276.47"/><line class="h" x1="493.96" y1="268.49" x2="493.68" y2="277"/><line class="h" x1="501.72" y1="268.49" x2="502" y2="277"/><line class="h" x1="509.39" y1="268" x2="510.21" y2="276.47"/><line class="h" x1="516.92" y1="267.03" x2="518.28" y2="275.43"/><line class="h" x1="524.29" y1="265.6" x2="526.18" y2="273.9"/><line class="h" x1="531.49" y1="263.72" x2="533.9" y2="271.88"/><line class="h" x1="538.51" y1="261.41" x2="541.42" y2="269.4"/><line class="h" x1="545.32" y1="258.68" x2="548.73" y2="266.48"/><line class="h" x1="551.92" y1="255.55" x2="555.81" y2="263.12"/><line class="h" x1="558.29" y1="252.03" x2="562.63" y2="259.36"/><line class="h" x1="564.42" y1="248.15" x2="569.2" y2="255.19"/><line class="h" x1="570.28" y1="243.9" x2="575.48" y2="250.64"/><line class="h" x1="575.87" y1="239.32" x2="581.47" y2="245.73"/><line class="h" x1="581.17" y1="234.41" x2="587.14" y2="240.47"/><line class="h" x1="586.16" y1="229.19" x2="592.49" y2="234.88"/><line class="h" x1="590.83" y1="223.67" x2="597.49" y2="228.97"/><line class="h" x1="595.16" y1="217.87" x2="602.13" y2="222.76"/><line class="h" x1="599.14" y1="211.81" x2="606.39" y2="216.26"/><line class="h" x1="602.75" y1="205.5" x2="610.26" y2="209.5"/><line class="h" x1="605.97" y1="198.96" x2="613.72" y2="202.48"/><line class="h" x1="608.8" y1="192.19" x2="616.75" y2="195.23"/><line class="h" x1="611.22" y1="185.23" x2="619.34" y2="187.76"/><line class="h" x1="613.21" y1="178.07" x2="621.48" y2="180.09"/><line class="h" x1="614.75" y1="170.74" x2="623.13" y2="172.23"/><line class="h" x1="615.84" y1="163.25" x2="624.3" y2="164.2"/><line class="h" x1="616.45" y1="155.61" x2="624.95" y2="156.02"/><line class="h" x1="616.58" y1="147.86" x2="625.09" y2="147.72"/><line class="h" x1="616.21" y1="140.15" x2="624.69" y2="139.47"/><line class="h" x1="615.35" y1="132.59" x2="623.78" y2="131.37"/><line class="h" x1="614.04" y1="125.18" x2="622.36" y2="123.42"/><line class="h" x1="612.27" y1="117.93" x2="620.47" y2="115.65"/><line class="h" x1="610.06" y1="110.87" x2="618.1" y2="108.08"/><line class="h" x1="607.44" y1="104" x2="615.29" y2="100.72"/><line class="h" x1="604.41" y1="97.35" x2="612.04" y2="93.58"/><line class="h" x1="600.99" y1="90.92" x2="608.38" y2="86.69"/><line class="h" x1="597.19" y1="84.73" x2="604.31" y2="80.06"/><line class="h" x1="593.04" y1="78.8" x2="599.85" y2="73.7"/><line class="h" x1="588.53" y1="73.14" x2="595.03" y2="67.64"/><line class="h" x1="583.7" y1="67.77" x2="589.86" y2="61.89"/><line class="h" x1="578.56" y1="62.7" x2="584.34" y2="56.46"/><line class="h" x1="573.11" y1="57.95" x2="578.51" y2="51.37"/><line class="h" x1="567.39" y1="53.53" x2="572.38" y2="46.64"/><line class="h" x1="561.39" y1="49.47" x2="565.95" y2="42.28"/><line class="h" x1="555.14" y1="45.76" x2="559.25" y2="38.31"/><line class="h" x1="548.65" y1="42.44" x2="552.3" y2="34.75"/><line class="h" x1="541.94" y1="39.51" x2="545.1" y2="31.61"/><line class="h" x1="535.03" y1="36.99" x2="537.69" y2="28.9"/><line class="h" x1="527.92" y1="34.89" x2="530.06" y2="26.65"/><line class="h" x1="520.63" y1="33.23" x2="522.25" y2="24.88"/><line class="h" x1="513.18" y1="32.03" x2="514.26" y2="23.59"/><line class="h" x1="505.58" y1="31.3" x2="506.12" y2="22.8"/><line class="h" x1="497.84" y1="31.05" x2="497.84" y2="22.54"/><path class="b" d="M593.56,104.53q-15.84,8.23-31.88,16.08C551,125.86,540.27,131,529.52,136.09s-21.54,10.1-32.38,15-21.71,9.74-32.66,14.41q15.84-8.25,31.87-16.08c10.68-5.26,21.41-10.39,32.16-15.49s21.55-10.1,32.39-15S582.61,109.19,593.56,104.53Z"/><path class="b" d="M511,176.2q-15.84,8.25-31.88,16.08c-10.68,5.26-21.41,10.38-32.16,15.49s-21.54,10.1-32.38,15-21.71,9.75-32.67,14.42q15.84-8.25,31.88-16.09c10.68-5.25,21.41-10.38,32.16-15.48s21.54-10.1,32.38-15S500.06,180.87,511,176.2Z"/><path class="b" d="M647.73,117.31q-10.26,5.58-20.72,10.75c-7,3.48-14,6.83-21,10.15s-14.1,6.55-21.21,9.68-14.26,6.22-21.5,9.08c6.82-3.75,13.75-7.29,20.71-10.75s14-6.83,21-10.15,14.1-6.54,21.22-9.68S640.5,120.2,647.73,117.31Z"/><path class="b" d="M585,163.63q-10.26,5.58-20.72,10.74c-7,3.48-14,6.83-21,10.16s-14.11,6.54-21.22,9.68-14.26,6.22-21.5,9.08c6.82-3.76,13.75-7.29,20.71-10.76s14-6.82,21-10.15,14.1-6.54,21.22-9.67S577.75,166.52,585,163.63Z"/><path class="b" d="M471.68,144.17q-10.26,5.58-20.71,10.75c-7,3.48-14,6.83-21,10.15s-14.1,6.55-21.22,9.68-14.25,6.22-21.5,9.08c6.83-3.75,13.76-7.29,20.72-10.75s14-6.82,21-10.15,14.11-6.54,21.22-9.67S464.45,147.06,471.68,144.17Z"/></svg>