<svg xmlns="http://www.w3.org/2000/svg" xmlns:xlink="http://www.w3.org/1999/xlink" viewBox="0 0 1450 800"><defs><style>.a,.i,.l{fill:none;}.b{fill:#9c8fc4;}.c,.h{fill:#e6e7e8;}.d{fill:#1b75bc;}.e{fill:#6d6e71;}.f{fill:#0c56ab;}.g{fill:#032360;}.h{stroke:#33ade0;stroke-width:5px;}.h,.i,.l{stroke-miterlimit:10;}.i,.l{stroke:#0c56ab;}.i{stroke-width:3px;}.j{clip-path:url(#a);}.k{clip-path:url(#b);}.l{stroke-width:2px;}</style><clipPath id="a"><rect class="a" x="1072.75" y="473.02" width="72.71" height="41.82" transform="matrix(0.99, -0.15, 0.15, 0.99, -62.71, 176.24)"/></clipPath><clipPath id="b"><rect class="a" x="1077.8" y="602.1" width="54.75" height="31.49"/></clipPath></defs><title>r4</title><rect class="b" x="777.41" y="498.08" width="45.11" height="105.07"/><rect class="b" x="847.13" y="420.46" width="45.11" height="182.7"/><rect class="b" x="916.85" y="487.29" width="45.11" height="115.86"/><rect class="b" x="986.57" y="551.59" width="45.11" height="51.57"/><rect class="b" x="1055.46" y="501.7" width="45.11" height="101.46"/><rect class="b" x="1126" y="526.33" width="45.11" height="76.83"/><rect class="b" x="1195.72" y="449.5" width="45.11" height="153.65"/><rect class="b" x="1265.44" y="284.4" width="45.11" height="318.75"/><path class="c" d="M1034.62,273.79l60.56-6.92,7.43,149.94-93.74-16.3S1034.94,271.1,1034.62,273.79Z"/><polygon class="d" points="1075.52 326.92 1061.27 365.36 1080.11 366.63 1075.52 326.92"/><path class="e" d="M1101,278.36l17.09-6.39s-49.85-25.9-65.94-20c-19.35,7.07-24.44,49.29-24.44,49.29s4-11.19,9.43-10c3,.65,3.23,6.92,3.23,6.92l16.26-22.92Z"/><ellipse class="e" cx="1060.11" cy="322.19" rx="4.25" ry="6.12" transform="translate(-15.24 55.24) rotate(-2.96)"/><ellipse class="e" cx="1086.96" cy="323.9" rx="6.12" ry="4.25" transform="matrix(0.26, -0.97, 0.97, 0.26, 496.49, 1292.27)"/><path class="f" d="M1010.05,394.15l-14.2,93.37c38.95-7.93,78-8.17,117-1.78,0,0-3.1-6.2-11.69-99.81Z"/><polygon class="c" points="1057.36 396.55 1032.4 395.69 1036.42 416.06 1057.65 400.57 1057.36 396.55"/><polygon class="c" points="1058.88 396.96 1083.15 391.04 1083.35 411.8 1059.42 400.95 1058.88 396.96"/><circle class="c" cx="1058.56" cy="398.89" r="3.73"/><path class="f" d="M1011.55,394.37C968.4,395.06,882.26,451,878.9,519.24l12.4-1s23.63-63.29,115.14-70.65"/><path class="f" d="M1101.19,385.93c43,3.68,125.36,66.78,124,135.09l-12.31-1.81s-19.2-64.76-110-78.45"/><path class="g" d="M1106.11,412.14l.29,10.07c.12,3.36.19,6.71.34,10.06s.24,6.71.35,10.07l.37,10.07c-.5-3.33-.81-6.68-1.08-10s-.41-6.71-.57-10.07-.16-6.73-.12-10.09S1105.83,415.49,1106.11,412.14Z"/><path class="g" d="M1001.42,450.84l1-8.06c.3-2.69.62-5.37.86-8.06s.51-5.38.68-8.07c.09-1.35.16-2.7.17-4a28.87,28.87,0,0,0-.15-4.05,35.57,35.57,0,0,1,.56,8.11c-.06,2.72-.29,5.42-.52,8.12s-.61,5.39-1,8.07S1002.05,448.2,1001.42,450.84Z"/><polygon class="c" points="878.9 519.24 875.72 557.88 892.14 553.1 890.09 541.47 894.84 535.18 891.3 518.29 878.9 519.24"/><polygon class="c" points="1212.87 519.21 1204.03 545.57 1208.82 551.73 1208.13 559.94 1218.39 559.94 1225.18 521.02 1212.87 519.21"/><circle class="h" cx="997.52" cy="493.65" r="63.32"/><polygon class="i" points="947.38 499.25 956.61 488.5 972.52 492.1 974.59 505.42 947.38 499.25"/><polygon class="i" points="968.24 483.17 977.47 472.42 993.37 476.02 995.44 489.34 968.24 483.17"/><polygon class="i" points="1002.13 490.86 1011.36 480.1 1027.26 483.71 1029.33 497.02 1002.13 490.86"/><polygon class="i" points="989.33 467.15 998.55 456.39 1014.46 460 1016.53 473.31 989.33 467.15"/><polygon class="i" points="981.27 506.94 990.5 496.18 1006.41 499.79 1008.48 513.1 981.27 506.94"/><polygon class="i" points="1015.16 514.62 1024.39 503.86 1040.3 507.47 1042.37 520.79 1015.16 514.62"/><circle class="h" cx="1111.13" cy="493.03" r="63.32"/><rect class="f" x="1068.87" y="468.79" width="80.64" height="50.05" transform="translate(-62.69 176.25) rotate(-8.84)"/><g class="j"><rect class="c" x="1072.83" y="472.91" width="72.71" height="41.82" transform="matrix(0.99, -0.15, 0.15, 0.99, -62.69, 176.25)"/><circle class="f" cx="1109.19" cy="493.82" r="14.02"/><circle class="f" cx="1083.45" cy="498.88" r="2.84"/><circle class="f" cx="1135.25" cy="490.83" r="2.84"/><path class="c" d="M1107.69,482.61a1.34,1.34,0,0,1,1.55,1.13l.06.36a11,11,0,0,1,3.92.65,1.76,1.76,0,0,1-.31,3.4,1.9,1.9,0,0,1-.94-.09,10.07,10.07,0,0,0-2.27-.54l.61,3.91c4.07.45,6,1.78,6.44,4.67s-1.47,5.08-4.66,5.94l.21,1.37a1.36,1.36,0,1,1-2.68.41l-.21-1.39a13,13,0,0,1-5.36-1,1.79,1.79,0,0,1,.39-3.44,2,2,0,0,1,1.06.18,9.79,9.79,0,0,0,3.52.93l-.64-4.09c-3.86-.43-5.91-1.56-6.39-4.63-.44-2.83,1.43-5.07,4.62-5.91l0-.31A1.35,1.35,0,0,1,1107.69,482.61Zm.09,8.53-.54-3.48c-1.21.37-1.65,1.07-1.52,1.9S1106.28,490.84,1107.78,491.14Zm3.12,4.13.56,3.57c1.18-.36,1.71-1,1.57-1.95S1112.37,495.54,1110.9,495.27Z"/><circle class="f" cx="1070.05" cy="478.74" r="5.11"/><circle class="f" cx="1141.74" cy="467.6" r="5.11"/><circle class="f" cx="1076.48" cy="520.09" r="5.11"/><circle class="f" cx="1148.17" cy="508.94" r="5.11"/></g><circle class="h" cx="1105.02" cy="587.63" r="63.32"/><rect class="f" x="1074.89" y="598.93" width="60.72" height="37.69"/><g class="k"><rect class="c" x="1077.87" y="602.03" width="54.75" height="31.49"/><circle class="f" cx="1105.25" cy="617.78" r="10.56"/><circle class="f" cx="1085.51" cy="618.57" r="2.14"/><circle class="f" cx="1124.98" cy="618.57" r="2.14"/><path class="c" d="M1105.43,609.26a1,1,0,0,1,1,1v.28a8.12,8.12,0,0,1,2.85.94,1.32,1.32,0,0,1,.71,1.18,1.31,1.31,0,0,1-1.34,1.31,1.45,1.45,0,0,1-.69-.18,7.08,7.08,0,0,0-1.62-.66v3c3,.8,4.25,2,4.25,4.22s-1.68,3.61-4.16,3.88v1a1,1,0,0,1-2,0v-1.06a9.81,9.81,0,0,1-3.86-1.37,1.34,1.34,0,0,1-.67-1.18,1.32,1.32,0,0,1,1.35-1.33,1.49,1.49,0,0,1,.77.25,7.55,7.55,0,0,0,2.51,1.1v-3.12c-2.82-.76-4.22-1.84-4.22-4.18,0-2.16,1.65-3.61,4.12-3.86v-.24A1,1,0,0,1,1105.43,609.26Zm-.92,6.36V613c-.94.14-1.35.61-1.35,1.24S1103.43,615.23,1104.51,615.62Zm1.85,3.43v2.73c.92-.14,1.39-.57,1.39-1.28S1107.42,619.42,1106.36,619.05Z"/><circle class="f" cx="1077.87" cy="602.03" r="3.85"/><circle class="f" cx="1132.51" cy="602.03" r="3.85"/><circle class="f" cx="1077.87" cy="633.54" r="3.85"/><circle class="f" cx="1132.51" cy="633.54" r="3.85"/></g><path class="f" d="M1091.49,594.58l-2.67,1.13-1.18-2.8-5.24,2.22-7.53-17.82,5.24-2.22-1.4-3.31,2.67-1.13,1.41,3.34a12.57,12.57,0,0,1,3.87-1,3.83,3.83,0,0,1,2.45.65,5.66,5.66,0,0,1,.88.79,3.39,3.39,0,0,1,.59.95A4.66,4.66,0,0,1,1090,580l-.4.54-.46.6a8.58,8.58,0,0,1,2.09,0,6.46,6.46,0,0,1,1.88.52,3.93,3.93,0,0,1,2,2.15,4.59,4.59,0,0,1,.22,2.89,6.12,6.12,0,0,1-1.51,2.75,10.64,10.64,0,0,1-3.51,2.32Zm-10.23-16.77-1.76.75,1.9,4.49,1.76-.74Zm1.28,8,2.19,5.18,1.76-.75L1084.3,585Zm3.21-4.77c1.2-.71,1.81-1.31,1.84-1.8a3,3,0,0,0-.4-1.55,2.32,2.32,0,0,0-1.07-1.08,3.49,3.49,0,0,0-2.17.17Zm3.41,8.06c1.41-.79,2.09-1.67,2-2.61a3.3,3.3,0,0,0-1-2.33q-1-.9-3.12-.06Z"/><path class="f" d="M1120.57,590.58a7.36,7.36,0,0,0,2.41-.78,3.29,3.29,0,0,0,1.77-1.66,4.71,4.71,0,0,0,.31-1.28c0-.29,0-.68.06-1.19l-2.14-.88.56-1.35,1.37.57a14.26,14.26,0,0,1,0-2.24,6.31,6.31,0,0,1,.47-1.89,4.86,4.86,0,0,1,2.9-2.68,6.56,6.56,0,0,1,5,.33,7.17,7.17,0,0,1,3.55,3c.79,1.34.8,3.07,0,5.16l-3.26-1.34a5,5,0,0,0,.24-2.15,2.5,2.5,0,0,0-1.73-1.91,2.45,2.45,0,0,0-2,0,2.42,2.42,0,0,0-1.31,1.32,3.37,3.37,0,0,0-.24,1.23c0,.46,0,1.36.08,2.7l3.45,1.43-.55,1.35-2.94-1.22c-.1.33-.18.6-.24.82s-.15.43-.23.64a4,4,0,0,1-1.59,1.86,16.64,16.64,0,0,1-2.57,1.12,15.17,15.17,0,0,1,1.6.14,6,6,0,0,1,1.51.4,5.75,5.75,0,0,1,.82.42,7.47,7.47,0,0,1,.8.57l.43.35a3.5,3.5,0,0,0,.49.36,3.3,3.3,0,0,0,.37.19,3.82,3.82,0,0,0,1.43.23,12.57,12.57,0,0,0,1.3-.1l-.11,3.08a8.23,8.23,0,0,1-2,.07,6.81,6.81,0,0,1-2.24-.49,5.05,5.05,0,0,1-1-.59c-.35-.25-.71-.54-1.1-.87l-.6-.51c-.25-.21-.47-.39-.64-.51a4.78,4.78,0,0,0-.95-.5,3.9,3.9,0,0,0-1.25-.27c-.32,0-.91,0-1.78,0Z"/><path class="f" d="M1095.77,571.4l1.36-2.3,3,1a12.72,12.72,0,0,1,.39-1.31c.13-.39.28-.78.43-1.15l-3.55-1.2,1.36-2.3,3.38,1.15a9.16,9.16,0,0,1,3-3.1,6.2,6.2,0,0,1,5.5-.62,6.4,6.4,0,0,1,4.61,4.92,7.73,7.73,0,0,1-.1,3.75l-3.19-1.09a5.71,5.71,0,0,0-.13-2.24,3.13,3.13,0,0,0-2.17-2.06,3.23,3.23,0,0,0-3.31.74,5.63,5.63,0,0,0-.82.86l4.89,1.67-1.36,2.29-4.87-1.65c-.15.37-.3.78-.45,1.2s-.28.85-.38,1.25l4.55,1.55-1.36,2.3-3.48-1.19a4.91,4.91,0,0,0,.17,1,3.35,3.35,0,0,0,2.18,2.43,3,3,0,0,0,3-.44,6.21,6.21,0,0,0,1.53-1.83l3.16,1.08a9.27,9.27,0,0,1-3.77,4.1,5.94,5.94,0,0,1-5,.38,6.48,6.48,0,0,1-4.32-4.28,9.57,9.57,0,0,1-.38-3.64Z"/><path class="f" d="M1077.85,551.72l-.53-2.6,3.2-.65-1.23-2.36-2.49.52-.53-2.6,1.74-.36-1.72-3.33,4.17-.86,1.5,3.37,4.22-.87,0-3.67,4.14-.85,1.45,3.38,4.38-.9.06-3.7,4-.82-.27,3.74,1.74-.36.53,2.6-2.47.51-.19,2.64,3.18-.65.53,2.6-3.9.8-.57,8-3.74.77-3.08-7.25-2.83.59.05,7.87-3.65.75-3.7-7.12Zm6.29-4,2.11-.44,0-2.59-3.15.64Zm2.17,4.89,0-2.62-1,.21Zm2.77-5.91,1.78-.37-1-2.39-.79.16Zm4.74-1,2.19-.45,0-2.61-3.26.67Zm2.1,4.91,0-2.64-1.08.22Z"/><path class="f" d="M1136.84,544.8l-5.09,4.51,1.71.72-.67,1.62-2.51-1-2.38,2.09,3.38,1.41-.67,1.62-3.85-1.6-2.35,5.66-3.51-1.46,2.36-5.66-3.82-1.59.67-1.62,3.37,1.4-.23-3.18-2.55-1.06.68-1.62,1.75.73-.52-6.85,4.08,1.69.08,8.82,6.17-6.22Z"/><circle class="h" cx="988.74" cy="582.43" r="63.32"/><polyline class="l" points="948.18 606.11 969.22 582.44 979.02 591.53 993.61 574.55 1005.56 586.03 1022.78 566.66"/><polyline class="l" points="1017.37 566.18 1023.2 566.18 1023.2 571.91"/><line class="l" x1="949.84" y1="616.54" x2="1026.18" y2="616.54"/><line class="l" x1="952.37" y1="616.33" x2="952.37" y2="601.55"/><line class="l" x1="965.69" y1="616.33" x2="965.69" y2="586.78"/><line class="l" x1="979.01" y1="616.33" x2="979.01" y2="591"/><line class="l" x1="992.32" y1="616.33" x2="992.32" y2="576.12"/><line class="l" x1="1005.64" y1="616.33" x2="1005.64" y2="584.88"/><line class="l" x1="1018.96" y1="616.96" x2="1018.96" y2="570.84"/><path class="f" d="M993.54,544.36a5.75,5.75,0,0,0-4.12-1.9c-1.9,0-3,.9-3,2.68,0,4,9.8,3.38,9.8,10.61a6.53,6.53,0,0,1-5.67,6.83v3.74h-3.19v-3.61A12,12,0,0,1,981,559.9l2.1-3.19a8.63,8.63,0,0,0,5.32,2.19c2.25,0,3.29-1,3.29-2.83,0-4.36-9.8-4-9.8-10.71a6.33,6.33,0,0,1,5.48-6.57v-3.74h3.19v3.67a8.85,8.85,0,0,1,5.35,2.94Z"/></svg>