<svg xmlns="http://www.w3.org/2000/svg" xmlns:xlink="http://www.w3.org/1999/xlink" viewBox="0 0 50 60"><defs><style>.a,.d{fill:none;}.b{clip-path:url(#a);}.c{fill:#fff;}.d{stroke:#fff;stroke-miterlimit:10;stroke-width:1.01px;}</style><clipPath id="a"><rect class="a" x="-1349.34" y="122.44" width="1450.18" height="800"/></clipPath></defs><title>close</title><path class="c" d="M1.3,53c0-3.66,2.48-5.77,5.28-5.77a4.64,4.64,0,0,1,3.21,1.29l-.94,1.23a3.19,3.19,0,0,0-2.2-1c-2,0-3.44,1.72-3.44,4.24s1.38,4.2,3.39,4.2a3.91,3.91,0,0,0,2.59-1.09L10,57.36a5.22,5.22,0,0,1-3.54,1.39C3.54,58.75,1.3,56.65,1.3,53Z"/><path class="c" d="M12.4,56.31V42.42h1.84v14c0,.57.24.79.52.79a1.63,1.63,0,0,0,.39,0l.26,1.41a2.94,2.94,0,0,1-1.07.16C13,58.75,12.4,57.86,12.4,56.31Z"/><path class="c" d="M17.33,53c0-3.66,2.4-5.77,5.09-5.77S27.5,49.36,27.5,53s-2.4,5.73-5.08,5.73S17.33,56.65,17.33,53Zm8.28,0c0-2.52-1.3-4.24-3.19-4.24S19.25,50.5,19.25,53s1.27,4.2,3.17,4.2S25.61,55.54,25.61,53Z"/><path class="c" d="M29.16,57.24,30.07,56a5,5,0,0,0,3.25,1.29c1.46,0,2.16-.77,2.16-1.72,0-1.11-1.29-1.61-2.5-2.08-1.54-.56-3.27-1.31-3.27-3.17s1.39-3.1,3.77-3.1a5.67,5.67,0,0,1,3.42,1.23L36,49.67a4.12,4.12,0,0,0-2.53-1c-1.37,0-2,.73-2,1.57,0,1,1.19,1.44,2.42,1.9,1.59.61,3.35,1.25,3.35,3.33,0,1.78-1.41,3.25-4,3.25A6.61,6.61,0,0,1,29.16,57.24Z"/><path class="c" d="M39,53c0-3.55,2.4-5.77,4.94-5.77,2.79,0,4.36,2,4.36,5.14a7.14,7.14,0,0,1-.08,1H40.86c.12,2.34,1.55,3.84,3.63,3.84a4.66,4.66,0,0,0,2.74-.87l.67,1.21a6.49,6.49,0,0,1-3.63,1.13C41.36,58.75,39,56.63,39,53Zm7.69-.89c0-2.22-1-3.41-2.73-3.41-1.55,0-2.92,1.25-3.15,3.41Z"/><line class="d" x1="10.68" y1="1" x2="40.29" y2="30.92"/><line class="d" x1="40.29" y1="1" x2="10.68" y2="30.92"/></svg>