<svg xmlns="http://www.w3.org/2000/svg" viewBox="0 0 1450 802"><defs><style>.a,.b,.e,.f,.g,.i,.j{fill:none;}.a,.f,.i,.j,.k,.l{stroke:#fff;}.a,.e,.f,.g,.i,.k,.l{stroke-miterlimit:10;}.a,.l{stroke-width:4px;}.c{fill:#9c8fc4;}.d{fill:#fff;}.e{stroke:#4beabc;stroke-width:0.82px;}.f,.g{stroke-width:0.25px;}.g{stroke:#f7a823;}.h{fill:#f7a823;}.i,.j,.k{stroke-width:3px;}.j{stroke-linecap:round;stroke-linejoin:round;}.k,.l{fill:#032c5c;}</style></defs><title>r2</title><rect class="a" x="915.5" y="268.22" width="109.26" height="109.26" rx="54.63" ry="54.63"/><polygon class="a" points="933.1 305.95 956.94 295.5 986.64 295.5 1007.13 306.79 1005.04 324.78 971.58 364.51 934.77 323.52 933.1 305.95"/><polyline class="a" points="933.1 305.95 958.61 310.97 986.64 310.56 1007.13 306.79"/><polyline class="a" points="934.77 323.52 962.38 325.61 983.71 325.61 1005.04 324.78"/><polyline class="a" points="986.64 295.5 986.64 310.56 983.71 325.61 971.58 364.51 958.61 310.97 956.94 295.5"/><path class="b" d="M912.93,517.68c-3.27,1.44-4.3,3.38-1.81,3.38a13,13,0,0,0,4.18-1.41c2.42-1.24,2.66-1.54,1.8-2.4S915.7,516.45,912.93,517.68Z"/><path class="b" d="M899.68,505c1.94-1,2.29-1,4.42,0a6.87,6.87,0,0,0,3.89.7c.88-.2,1.78-.09,2,.29s-.73.86-2.19,1.11c-4,.67-6.06,2.34-9,7.17-2.4,4-2.55,4.53-1.59,5.59s1.21,1.07,2.51.16a14.81,14.81,0,0,0,3.15-4.56c1.81-3.81,5.19-6.64,7.91-6.64,2,0,2,.32.19,2.61l-1.41,1.79,1.46,1.18a2.39,2.39,0,0,0,3.1.41,4.16,4.16,0,0,0,2.07-2.07c.31-1,.82-1.2,2-.9a1.76,1.76,0,0,0,2.26-.78c1.38-2.48-2.13-5.63-4.72-4.24a2.65,2.65,0,0,1-3.32-1,2.53,2.53,0,0,1-.45-2.1,4.27,4.27,0,0,0-.87-3c-1.41-1.86-3.56-2.05-8.23-.75a21.7,21.7,0,0,1-4.28.81c-.67,0-1,.24-.81.59s.14.64-.16.65a7.85,7.85,0,0,0-2.24,1.32l-1.7,1.3,1.91.72A4.11,4.11,0,0,0,899.68,505Z"/><path class="b" d="M1262.61,524c1.3.51,3.13-.09,3.13-1a8.2,8.2,0,0,0-1.42-2.65c-1.16-1.64-1.62-1.85-2.71-1.28-.88.48-1.32.48-1.32,0s-1.21-1.3-2.71-2.07c-3.27-1.68-4.45-3.52-3.41-5.45.76-1.44,3.54-2.46,4.72-1.73,1.6,1,2.06-.46.74-2.32-3.19-4.48-7.63-4.18-13.14.87-3.56,3.28-3.86,4.14-1.86,5.22a2.47,2.47,0,0,1,1.37,1.75c0,.55,1.2,2.32,2.68,3.92,3.42,3.7,4,5.39,3.61,9.76l-.33,3.53,4.67,2.4c2.58,1.32,4.77,2.41,4.88,2.43a15.77,15.77,0,0,0,2.22-1,3.45,3.45,0,0,0,1.64-1.35,0,0,0,0,0,0,0,6.14,6.14,0,0,0,.35-2.64c0-1.86-.4-3.29-1.07-3.84a11.46,11.46,0,0,1-2.11-2.91C1261.61,523.76,1261.61,523.62,1262.61,524Z"/><path class="b" d="M927.37,514.5c1.41-1,1.47-1.18.47-1.75-1.48-.83-5.85.6-5.85,1.91S925.38,515.9,927.37,514.5Z"/><path class="c" d="M1395.7,600.58a44,44,0,0,0,2.53,6.82c1.37,2.81,1.65,4.2,1.3,6.14-.15.85-.33,2.22-.47,3.59l2.33.22a15.54,15.54,0,0,1,.39-2.11,23.86,23.86,0,0,0,.58-5.68c-.09-1.64.15-2.38.77-2.38,1.79,0,8.23,5.16,10.46,8.39.89,1.3,1.33,1.46,2.44.86s1.45-.5,1.78.38a4.14,4.14,0,0,1,0,2.37,2.72,2.72,0,0,0,0,1.94c.56.89,3.58-1.08,4.09-2.67.2-.67,1.57-1.75,3-2.42,3.21-1.45,4.4-3.88,3.74-7.58-.78-4.26-4.09-10.13-7-12.45-3.59-2.84-5.77-6.39-5.15-8.39a8.23,8.23,0,0,1,4.94-5.07c2.82-1.19,4.77-.62,5.63,1.62l.65,1.72,1.4-1.78a8.36,8.36,0,0,1,6.41-3.5,29.67,29.67,0,0,0,6.23-1.63c5.86-2.15,8.1-5.11,10.58-13.94,2-7.3,2-8.57-.08-8.57-1.76,0-2.41-1.11-1.06-1.88s.71-2.36-1.78-3.83a11.2,11.2,0,0,1-3.48-4.16,9,9,0,0,0-3.1-3.7c-1.37-.62-1.59-1.09-1.23-2.61.45-1.86,1.42-2.94,4.5-5l1.67-1.11-3-.81c-2.48-.68-3.16-.65-4,.17s-1.37.78-3.93-.65a17.57,17.57,0,0,1-3.84-2.73c-.78-.94-.72-1.21.41-1.86a22.49,22.49,0,0,0,3.66-3.28c1.9-2.06,2.56-2.4,3.6-1.84a2.36,2.36,0,0,1,1.28,1.72,6.12,6.12,0,0,0,.71,2.38c.72,1.34.75,1.34,3.07-.09s2.37-1.45,4.56-.16c1.49.87,2.21,1.81,2.21,2.89s.49,1.75,1.94,2.13c2.86.78,4.5,2.53,6.39,6.88l1.68,3.88,2.82-1.41c1.55-.78,2.94-1.53,3.1-1.67a6.71,6.71,0,0,0-.89-2.82c-.81-1.81-2.58-3.56-5.89-5.83-2.6-1.8-4.73-3.56-4.73-3.93s.75-1,1.67-1.41c2-.91,2.72-2.45,1.71-3.66-.5-.62-.3-1.63.75-3.65a13.62,13.62,0,0,1,1.69-2.78,15.8,15.8,0,0,1,2.05.7c2.65,1,4.45-.45,6.07-4.87,2.32-6.39,1.75-16.15-1-17.64a8.83,8.83,0,0,1-2.63-3.27c-1.77-3.45-7.39-7.84-9.24-7.2a11.27,11.27,0,0,1-8.44-1.05c-2.67-1.35-2.76-1.5-1.83-2.94a19.37,19.37,0,0,0,1.77-4.69,11.67,11.67,0,0,1,2.48-4.77c1.48-1.38,2.41-1.59,7.26-1.64a41.06,41.06,0,0,0,7.33-.57,7,7,0,0,1,4.4.6,8.39,8.39,0,0,0,4.48.67c1.62-.35,1.83-.67,1.53-2.22a8.05,8.05,0,0,1,.38-3.79c.7-1.84.91-1.94,3.62-1.49a13.7,13.7,0,0,1,4.45,1.49c2,1.32,3.77.73,3.2-1.06-.62-2,1.84-3.13,3.23-1.56,2.09,2.42,2.48,3.83,1.49,5.61a8.51,8.51,0,0,0-1,3.26,9.5,9.5,0,0,1-1,3.51c-1,1.91-.92,2.08,2,6a34.53,34.53,0,0,0,5.61,5.91,38.55,38.55,0,0,1,5,4.6c2,2.16,2.76,2.62,4,2.24s1.37-.8,1-1.61a11.78,11.78,0,0,1-.67-2.83,12.87,12.87,0,0,0-.65-2.89,1.08,1.08,0,0,1,.62-1.61c1-.36,1-.6.06-2.2a28.6,28.6,0,0,1-1.63-3.6,7,7,0,0,0-3.59-3.21c-3.41-1.65-5.82-5-4.46-6.1a9.26,9.26,0,0,1,2.88-1.19,21.25,21.25,0,0,0,3.91-1.43c1.62-.81,2.15-.8,3.83.06s2.07.89,3.4-.35a4.72,4.72,0,0,0,1.45-2c0-1.06,4.15-2.86,5.83-2.54s3.64-.48,3-1.1c-.18-.17-3.09-1.38-6.46-2.7-6.19-2.41-7.36-3.65-3.13-3.37,2.26.16,2.28.15,1.1-1.17-1.73-1.91,0-2.4,3.77-1.1a11.74,11.74,0,0,0,3.18.73l-.12-2.76a8.16,8.16,0,0,1-3.67-1.24,26.15,26.15,0,0,0-7.26-2.12,36.18,36.18,0,0,1-7.14-1.68c-3.22-1.26-12.79-3-20.76-3.79-4.75-.47-4.76-.47-3.52.91,1.71,1.92.44,2.42-2.71,1.07-1.94-.85-4.89-1.16-11.47-1.23-7.14-.06-9.28-.32-11.18-1.32s-4.3-1.3-12-1.51c-8.11-.22-10.21-.51-13-1.76a21.89,21.89,0,0,0-5.69-1.66c-1.32-.09-4.34-.52-6.72-.95-5.22-.94-9.46-.4-8.27,1,.62.75.37,1.16-1.25,2s-2.72.92-5.66.36-4.09-.49-6.09.42c-2.4,1.06-2.54,1-6-.85l-6.38-3.45c-3.11-1.7-8.5-2.05-12.89-.82-1.92.52-3.48.44-6.51-.34s-4.61-.85-6.28-.38-3.2.38-5.66-.33c-3-.91-3.83-.89-7.45.05-5.6,1.44-6.58.33-2-2.21,1.92-1.07,3.5-2.12,3.5-2.35s-.83-1-1.86-1.71c-1.5-1-3.2-1.27-8.35-1.28-4.78,0-7-.34-8.64-1.19a10,10,0,0,0-4-1.18c-1,0-1.61-.27-1.4-.59.41-.67-6.15-2.14-9.55-2.14a4.13,4.13,0,0,1-2.66-.67c-.22-.38-1.43-.69-2.65-.69a11.82,11.82,0,0,1-4.42-1.09c-2.94-1.46-6.44-1.48-7.87-.07-1.62,1.64-.52,1.88,13,2.93,5,.4,5.53.57,5.31,1.71-.25,1.36.67,1.75,1.38.61.53-.84,6.47-.92,6.47-.08,0,.32-1.08,1.41-2.38,2.42-2,1.55-2.82,1.76-5.31,1.38s-13.78,1.19-14.66,2c-.17.17.05.76.5,1.3,1.14,1.37-.13,2-4.09,2.12a9.56,9.56,0,0,0-5,1.39c-5,3.56-6.82,4.36-9,4-1.48-.27-2.21-.14-2.21.4,0,1.56,1.43,3.43,3.4,4.45,2.51,1.3,3.56,3.21,3,5.47-.5,1.9-3.91,4.05-5.5,3.43-.84-.32-.76-.71.44-2.42,1.64-2.3,1.77-2-3.24-8.66-3.88-5.16-5.09-6-7.87-5.27-4.81,1.2-4.5,5.19.62,7.69,1.66.79,3,1.75,3,2.11,0,1.08-2.42,2.12-3.18,1.35-1.13-1.14-20.08-5.54-20.79-4.84s2.53,1.78,3.51,1.17c.81-.49,2.29,1.46,1.75,2.34a.81.81,0,0,1-1.1.32c-.36-.23-2.81,0-5.42.39-3.7.62-5,.62-5.75,0-1.38-1.14-5.1-.33-9.86,2.16-3.25,1.72-4.18,1.94-5.37,1.31-.78-.43-1.35-1.15-1.25-1.59s-.72-.94-1.82-1.07c-2-.24-2-.33-.62,3.12.39.9,0,1.08-4.45,2.22-2.09.54-2.82,1-2.57,1.73.57,1.47-1.86,2.48-4,1.67-2.67-1-3.65-.78-1.52.39,2.3,1.25,2.32,1.51.14,2.35s-6.69-1.31-8.07-4a7.17,7.17,0,0,0-2.85-2.75c-1.36-.62-1.65-1-1.08-1.6s1.78-.56,4.69.06c2.16.46,5.09,1,6.52,1.23,3.08.44,6.67-.86,6.15-2.23s-13.05-5.24-15.4-4.77c-1.31.27-2.69-.11-4.42-1.19-3.47-2.18-7.68-3-14.1-2.86a25,25,0,0,0-8.85,1.54c-1.86.78-4.85,1.92-6.63,2.56s-3.24,1.45-3.24,1.83-1.26,1.79-2.79,3.18a20,20,0,0,0-3.68,4.21c-1.1,2.11-7.55,6.64-10.73,7.52s-6.22,3.73-5.6,5.26a12.66,12.66,0,0,1,.61,3.1,5.52,5.52,0,0,0,4.83,4.51,9.47,9.47,0,0,0,3.72-1.43l2.37-1.45,1.86,2.25a11.92,11.92,0,0,1,2.27,4.08,7.07,7.07,0,0,0,1.22,2.48,5.29,5.29,0,0,0,.58.64c1.33,1.2,1.44,1.2,3.86-.19a7.77,7.77,0,0,0,3.56-4.25,9.49,9.49,0,0,1,2.72-4c2.06-1.41,2.89-2.44,2.54-3.16a2,2,0,0,0-1.22-.78,5.62,5.62,0,0,1-2.44-2c-.93-1.43-.93-1.79,0-3.59a7.06,7.06,0,0,1,3-2.83,19.8,19.8,0,0,0,5-4.18c3.17-3.48,4.52-4,5.9-2.37.94,1.13.33,2.59-2.94,7.15-1.62,2.26-2,3.88-1.16,5.19a6.33,6.33,0,0,0,2.77,2,6.93,6.93,0,0,0,3.91.86,22.89,22.89,0,0,0,2.41-.43c3.51-.78,7.66-.46,8.35.65.79,1.27-3.72,2.69-7.33,2.3a17.43,17.43,0,0,0-3.21,0,3.29,3.29,0,0,0-1.38.33c-.86.57-.77.95.63,2.43s1.53,1.88.64,2.75-1.37.88-3.23.18c-2.72-1-3.75,0-3.18,3.27.38,2.19-.48,3.39-3.53,5a3.14,3.14,0,0,1-3.1,0c-1.27-.58-2.38-.43-5.24.65-3.24,1.24-3.82,1.27-5.52.4a4.26,4.26,0,0,0-4.1-.19c-2.06.71-2.33.62-3.78-1.2-.86-1.06-1.4-2.09-1.21-2.29s.32-.07.53.1l-.1-1c-.7,0-.75-.51-.4-2.64l.45-2.8-1.75,1.15a6.31,6.31,0,0,0-2.13,2.17c-.46,1.21.22,4.5,1.05,5,1.33.89-1.51,3.21-4.32,3.55-2.28.27-3.68,1-6.33,3.51a18.58,18.58,0,0,1-4.9,3.56,5.24,5.24,0,0,0-2.55,2c-1.21,1.85-4.85,3.95-5.82,3.36-.35-.23-1.46.14-2.47.79a9.36,9.36,0,0,1-4.21,1.23c-3.45,0-3.38,1.33.15,2.68,2.4.91,3.21,1.64,3.79,3.4.89,2.72.24,7.57-1.23,9.05-1.07,1.06-5.63,1-13.44-.19-3.37-.53-5.38,1-4.75,3.56a18.82,18.82,0,0,1-.6,6c-1.31,5.59-1,9.52.73,9.79,3.31.51,4.24.92,5.88,2.56a5.87,5.87,0,0,0,1.56,1.33c.36.11.55-.24.95-1,.57-1.07,1.43-1.4,3.5-1.4a11.2,11.2,0,0,0,4.23-.78c2.57-1.32,5.23-4.2,5.24-5.66s2.37-5.82,3.21-5.82a8.88,8.88,0,0,0,2.5-1.7,7.06,7.06,0,0,1,2.91-1.7c.65,0,.81-.51.52-1.65-.56-2.18,1.61-3.37,5-2.8,2.59.45,5-.32,8.34-2.56,2.2-1.48,3.74-1,5.12,1.73,1.3,2.52,6.26,7.32,7.55,7.32,3.51,0,7.76,4.62,7.2,7.83l-.35,2,1.56-1.51c1.35-1.29,1.46-1.74.78-3.2-1-2.1-.19-2.72,2.59-2.1,1.29.29,1.92.31,1.92.1s-1.33-1.16-4-2.5c-4.24-2.13-12.92-10.12-12.92-11.9a2.39,2.39,0,0,1,1.32-1.67c1.05-.56,1.51-.44,2.22.57a9.16,9.16,0,0,0,3.36,2.32,9,9,0,0,1,3.4,2.39,8.56,8.56,0,0,0,3.85,2.22c3.06.92,5.59,3.93,5.59,6.65a6.57,6.57,0,0,0,.24,1.82c.68,2.45,2.81,4,6.23,4.57.78.12,1.21.41,1.3.71l2-.09c-.15-.31-.34-.66-.54-1-1.37-2.58-1.46-3.15-.64-3.83a2.25,2.25,0,0,1,2-.4c.57.2,1,.09,1-.26,0-1.17,2.53-2,4.52-1.46a13.08,13.08,0,0,0,5-.08l2.42-.51.62-.12-1.66-1.24c-1.59-1.2-1.62-1.37-.78-4.53,1.82-6.74,8-13.58,9.94-11a5.53,5.53,0,0,0,2,1.45c1,.38,1.11.66.46,1.44s-.46,1.18.89,2.07c1.59,1.05,1.86,1,4.31-.26,2-1.06,2.27-1.38,1.16-1.41a3.4,3.4,0,0,1-2.27-1c-.7-.83-.24-1.26,2.91-2.66,5.4-2.38,6.5-2.67,6.35-1.63a5.83,5.83,0,0,1-.7,1.76c-.3.49-.38,1.08-.17,1.29s0,1.21-.57,2.22l-1,1.85,5.09,2.89c2.8,1.59,5.56,3.61,6.13,4.48.94,1.45.94,1.77-.06,3.28-1.91,2.92-6.64,3.08-12,.39-4-2-9.06-2.38-11.32-.9a10.07,10.07,0,0,1-4.32,1.36,6.35,6.35,0,0,0-4.24,1.93l-.38.36a3.22,3.22,0,0,1-3,1.07,3.92,3.92,0,0,0-2.58.3c-.85.57-.77.83.53,1.75a3.58,3.58,0,0,1,1.52,2.37,7.16,7.16,0,0,0,2.63,5.22c1.89,1.18,5.37,1.74,5.86.94.65-1.08,3-.87,5.2.45,1.72,1,2.26,1.05,4.18.27,4.07-1.67,5.77-1.72,6.6-.15.5.94.52,1.44.06,1.44s-.72,1.14-.73,2.54c-.07,4.32-.29,6.31-.73,6.31-.24,0-.61,1.06-.81,2.38l37.25,8.78a1.33,1.33,0,0,1,0-.21,3.63,3.63,0,0,1,1.47-2.38c1.79-.69,4.72,1.43,6,4.37,1,2.29,2,3.21,5.39,4.91,3.89,2,4.31,2,7.2,1.25s3.05-.81,4.66,1l.44.51a11,11,0,0,0,3.66,2.85c2.48.78,17.24.92,18.88.19,1.81-.81,5.42.9,6,2.88.24.76.7,1.36,1,1.36a9.13,9.13,0,0,1,2.65,1.75c1.13.95,2.58,1.64,3.21,1.53,1.78-.32,1.94,1.43.19,2.08l-1.55.57,1.81,1.8c2.73,2.73,6.21,2.25,6.28-.86a1.41,1.41,0,0,1,.85-1.24c1.16-.4,2.37,3,1.86,5.34-.73,3.37.56,6.93,9.25,25.62a49.5,49.5,0,0,1,3.06,7.93,3.82,3.82,0,0,0,2.13,3.07c2,.94,2.22.84,4.67-2.69s3.51-9.68,2.84-16.92c-.11-1.26.61-2.24,2.91-4a20.93,20.93,0,0,0,4.2-4.24,5.87,5.87,0,0,1,2.46-2.31,4.26,4.26,0,0,0,2.08-2.11,7.41,7.41,0,0,1,3.21-2.86c1.66-.78,2.34-1.51,2.15-2.27-.54-2.07.87-3.26,4.8-4.07a27.53,27.53,0,0,0,4.91-1.36c1.53-.82,3,.32,4.4,3.34a6.74,6.74,0,0,0,3.23,3.55c2.34.95,6.33,8.09,5.68,10.12-.35,1.13,1.12,3.44,2.2,3.44a8.41,8.41,0,0,0,2.23-1.72C1393.4,596,1394.75,596.67,1395.7,600.58Zm-133.14-75a11.46,11.46,0,0,0,2.11,2.91c.67.55,1.07,2,1.07,3.84a6.14,6.14,0,0,1-.35,2.64,0,0,0,0,1,0,0,3.45,3.45,0,0,1-1.64,1.35,15.77,15.77,0,0,1-2.22,1c-.11,0-2.3-1.11-4.88-2.43l-4.67-2.4.33-3.53c.43-4.37-.19-6.06-3.61-9.76-1.48-1.6-2.68-3.37-2.68-3.92a2.47,2.47,0,0,0-1.37-1.75c-2-1.08-1.7-1.94,1.86-5.22,5.51-5.05,10-5.35,13.14-.87,1.32,1.86.86,3.3-.74,2.32-1.18-.73-4,.29-4.72,1.73-1,1.93.14,3.77,3.41,5.45,1.5.77,2.71,1.69,2.71,2.07s.44.46,1.32,0c1.09-.57,1.55-.36,2.71,1.28a8.2,8.2,0,0,1,1.42,2.65c0,.94-1.83,1.54-3.13,1C1261.61,523.62,1261.61,523.76,1262.56,525.61Z"/><path class="d" d="M1457.69,633.1l-2.18-2.24c-1.19-1.24-2.54-2.24-3-2.24s-1.61,1-2.58,2.32a10.37,10.37,0,0,1-4.1,3.1,4.8,4.8,0,0,0-3.16,2.81,7.59,7.59,0,0,1-3.34,3.32,8.2,8.2,0,0,0-3.31,3.06c-.71,1.55-1,1.68-2.28,1s-1.64-.59-2.42.48a4,4,0,0,0-.54,3,60.11,60.11,0,0,0,2.92,9.34c.67,1,7.39,2.39,9.09,1.86a4.85,4.85,0,0,1,3.07.59c1.31.68,2.2.78,3,.3,1.1-.68,5.45-9.68,5.45-11.24,0-.46.76-1.33,1.69-1.93l1.7-1.12-1.37-1.9c-2.24-3.17-2.35-5.46-.37-8.13Z"/><path class="d" d="M1440.67,674.78l5.24.71a1.28,1.28,0,0,0,1.16-.48c.34-.55-3.75-2.83-5.08-2.83a7.65,7.65,0,0,1-2.58-1.39c-1.67-1.24-2.25-1.32-5.08-.69-2.58.59-3.53.53-4.74-.25-3.24-2.08-9.34-1.92-9.34.25,0,1,6.62,2.91,8.18,2.42a9.88,9.88,0,0,1,4.61.6A55.23,55.23,0,0,0,1440.67,674.78Z"/><path class="d" d="M1425.84,591.73c1.16,1.16,2,.7,3.48-1.8,1.26-2.14,1.26-2.16-.21-2.16C1425.82,587.77,1424,589.93,1425.84,591.73Z"/><path class="d" d="M1421.26,660.57a11.51,11.51,0,0,0-2.43-4.22c-1.1-1.22-2.69-3-3.51-3.91a6.94,6.94,0,0,1-1.58-2.38c-.11-2-1.28-3.58-3.76-5.1s-3.69-2.61-9.13-8.28c-2-2-6.58-4.61-8.36-4.64-1.38,0,.66,3.29,3.93,6.45a23.72,23.72,0,0,1,3.89,4.75,47.7,47.7,0,0,0,3.64,5.45,38.94,38.94,0,0,1,4,6.77c1.48,3.42,6,8.94,8.49,10.37C1419.15,667.35,1422.06,664.17,1421.26,660.57Z"/><path class="d" d="M1405.11,630.34c1.64,6.15,3.6,9.64,6.66,11.84s4.39,2.6,4.39,1.44a62.17,62.17,0,0,0-1.68-6c-1.59-5-2-5.59-5.74-8.61a24.74,24.74,0,0,1-3.53-3.43l-2.37.47A8,8,0,0,1,1405.11,630.34Z"/><path class="d" d="M1398.85,619.43c-.22,3.29-.14,3.47,2.58,5.45a13.89,13.89,0,0,1,1.41,1.16l2.37-.47a4.38,4.38,0,0,1-.92-1.51,13.13,13.13,0,0,0-1.85-3.63,3.7,3.7,0,0,1-1-3.08l-2.33-.22C1399,617.94,1398.9,618.73,1398.85,619.43Z"/><path class="d" d="M1347.91,621.24c-.54,1.47-.11,7,.65,8.25.42.69,3.12-.12,3.77-1.14s0-3-2-6.09C1348.55,619.7,1348.5,619.67,1347.91,621.24Z"/><path class="d" d="M1212.05,553.53l-.62,4c.43,0,1.32.76,2.65,2.45l2.31,2.9.33-2c.49-2.78,1.53-2.16,2.77,1.62.93,2.87,2.78,5.6,9,13.36a19.77,19.77,0,0,1,2.75,5.86,15.34,15.34,0,0,0,3.83,6.63c1.51,1.56,2.74,3.11,2.74,3.48a9.43,9.43,0,0,0,2,2.89,10.38,10.38,0,0,1,2.47,6,24.31,24.31,0,0,0,1.81,6.32,4.93,4.93,0,0,0,.32.61c1,1.86,1.31,1.91,3.46,1.51s10-3.69,16.45-6.92a10,10,0,0,0,3.34-2.73,9,9,0,0,1,6.26-3.56c1.77,0,7-5.12,8.74-8.61a19,19,0,0,1,3.12-4.26,5.74,5.74,0,0,0,1.76-2.45c0-.94-4.23-4.44-7.26-6-2-1-3.16-2.78-2.88-4.29.19-1,.11-1.56-.25-1.56s-1.26.72-2.53,2.16c-1.49,1.7-3.46,3.28-4.4,3.52-1.83.46-5.76-1.48-5.37-2.66a2.59,2.59,0,0,0-.43-1.7c-.56-.87-.78-.84-1.59.29-1.35,1.84-3,.93-3.82-2.15a20.21,20.21,0,0,0-2.81-5.47c-1.59-2.17-2-3.19-1.72-4.65l-37.25-8.78C1216.69,552.47,1215.07,553.82,1212.05,553.53Z"/><path class="d" d="M1282.08,710.63c-.38.24-.69.56-.69.73s.31.29.69.29a.69.69,0,0,0,.66-.72C1282.74,710.54,1282.44,710.41,1282.08,710.63Z"/><path class="d" d="M1280,664.68a.7.7,0,0,0-.69.69.69.69,0,0,0,.69.68.67.67,0,0,0,.68-.68A.69.69,0,0,0,1280,664.68Z"/><path class="d" d="M1277.31,713a.68.68,0,0,0,0,1.36.68.68,0,1,0,0-1.36Z"/><path class="d" d="M1209.44,553a8.3,8.3,0,0,0-4.66,0c-3.43.95-13.06-.88-18.15-3.42-4.67-2.34-7.66-2.53-8.72-.56a4,4,0,0,0-.35,2.6c.23.76-.23,1.78-1.26,2.75-1.52,1.44-1.76,1.47-3.61.52a20,20,0,0,0-4.5-1.49,4.9,4.9,0,0,1-3.7-2.45c-1.13-1.93-2.68-2.62-8.15-3.72a9,9,0,0,1-3.91-2.29c-1.54-1.62-1.69-2.1-1.07-3.75.51-1.3.51-2.15,0-2.75a2.09,2.09,0,0,1-.3-1.89c.74-1.94-2-2.69-5.17-1.42-2.14.86-4.13,1-8.57.75-6.73-.41-10.36.37-16.24,3.51-3.42,1.83-4.51,2.12-6.8,1.72a12.63,12.63,0,0,1-4.09-1.38,3.69,3.69,0,0,0-1.49-.81c-.72-.15-1.18.49-2.23,2.19a18.43,18.43,0,0,1-4.76,4.45,11.22,11.22,0,0,0-5.49,9.15c0,1.55-4.64,6.54-6.07,6.54s-6.1,5.66-8.25,9.72a61.85,61.85,0,0,1-3.86,6.38c-2.35,3.13-3.07,6.13-2,8.31,2.31,4.56,1.64,11.81-1.39,15.18-1,1.1-1,1.4.33,3.61.92,1.57,1.13,2.41.59,2.41s-.45.26.19.67c.87.57.86.67-.16.67-1.67,0-1.5,1.43.22,1.87,1.08.29,1.21.51.51,1s-.56.68.57,1c1.78.48,7,7.23,7.82,10.12,1.08,3.75,8.7,10.61,13.11,11.83,2.13.59,3.55.48,7.48-.6s5.37-1.2,7.23-.66,3.3.38,7.82-1.09c3-1,6-2.05,6.8-2.36,3.29-1.35,4.43-1.33,7.12,0,2.07,1.05,2.89,1.94,3.19,3.46.4,2,.51,2,3.31,1.61,7.2-1.07,10.14,4.4,7.41,13.76-1.34,4.61-.78,6.28,3.54,10.51a13.89,13.89,0,0,1,4.12,6.74,29.6,29.6,0,0,0,2.38,5.91,5.18,5.18,0,0,1,.88,3.88,11.87,11.87,0,0,0,.7,5.13l1.14,3.42-2,3.94c-3,5.91-4.37,10.78-3.84,14.07a31.77,31.77,0,0,0,3.06,7.56,53.84,53.84,0,0,1,5.76,19.5c.38,3.87.84,5.07,3.11,8.13a18,18,0,0,1,2.67,4.32,11.2,11.2,0,0,0,1.69,3.21c1.28,1.89,1.57,3,1.27,4.86s-.08,2.72,1.37,4.17c2.06,2.06,1.49,2,6.85.67,3.3-.83,4.89-.91,6.86-.37,2.23.62,3,.48,6-1,3.66-1.84,11.67-9.6,14.47-14a11,11,0,0,1,2.92-3.24c1.07-.56,1.26-1.19,1-3-.57-3.56.19-5.55,2.53-6.52,5.55-2.29,7.11-5.58,4.79-10.11a15.28,15.28,0,0,1-1.4-3.45c0-.36,1.38-2.22,3.06-4.13a18.1,18.1,0,0,0,3.06-4.09c0-.36,1.62-1.46,3.57-2.44,4.5-2.24,5.79-3.39,7.39-6.54,1.12-2.19,1.2-3,.54-6a15.25,15.25,0,0,1-.31-5.13c.27-1.1-.18-2.85-1.36-5.14-4.57-9-3.64-15.79,3.28-23.47,2.37-2.62,5-5.71,5.78-6.85a47.34,47.34,0,0,1,6.78-6.26c5.18-4.11,5.43-4.42,10.64-14.42,4.84-9.3,5.28-10.47,4.87-12.92l-.45-2.7-1.92,1a53.12,53.12,0,0,1-8.42,2.4c-6,1.3-6.66,1.32-8.57.35a4.88,4.88,0,0,1-2.48-2.93,13,13,0,0,0-2.54-4.85,32.11,32.11,0,0,0-5.23-5.19c-2.83-2.26-4.14-3.83-4.45-5.34a15.17,15.17,0,0,0-2.66-4.87c-3-3.72-3.78-5.32-3.78-7.88a8.16,8.16,0,0,0-1.59-4.29,67,67,0,0,1-4.31-7.57c-1.49-3-4-7.55-5.58-10.14-2.06-3.4-2.67-5.48-2-5.48l.62-4A14.42,14.42,0,0,1,1209.44,553Z"/><path class="d" d="M1260.06,687.14l-1.08,2.34c-1.41,3-7.31,8.26-10,8.85-2.89.64-3.94,3.26-3.32,8.23.43,3.44.29,4.06-1.67,7.22s-2.08,3.83-1.68,7c.51,4,.78,4.59,2.7,5.68,1.68,1,1.4,1,4.45,0,2.86-.86,3.86-2.59,5.61-9.77.54-2.26,2.43-8.08,4.18-12.92,3.29-9.1,3.48-10.92,1.59-15.06Z"/><path class="d" d="M1238.84,437.49a16.62,16.62,0,0,0,4.77,1.11l2,0-1.53-1.07c-2-1.41-1.94-3.05.26-5.64s5.22-3.94,10.47-4.88,6.2-1.29,5.72-2.07c-.25-.4-1.6-.51-3.24-.25s-4.82.6-7.25.79a24.75,24.75,0,0,0-6.47,1.29c-1.95.89-4.73,3.54-4.75,4.55,0,.27-.62.93-1.37,1.51s-1.09,1-.78,1,.21.5-.27,1.07C1235.44,436.2,1235.36,436.12,1238.84,437.49Z"/><path class="d" d="M1246.38,689.19c.16,0,.3-.3.3-.68a.7.7,0,0,0-.73-.67c-.4,0-.53.3-.3.67S1246.2,689.19,1246.38,689.19Z"/><path class="d" d="M1214.29,539.69c.41-1.06-.67-1.27-1.31-.24a2.27,2.27,0,0,1-1.74.67c-1.29,0-1.72.73-.91,1.54C1210.92,542.27,1213.86,540.79,1214.29,539.69Z"/><path class="d" d="M1193.2,540.88c.49-.79-2-1.43-5.41-1.36l-2.72,0,2,.94C1189.46,541.57,1192.64,541.77,1193.2,540.88Z"/><path class="d" d="M1180.81,531.16c-1.51.2-1.52.25-.38,2.19,1.64,2.76,2.72,2.94,3.88.62.8-1.59.88-2.1-.06-4l-2,.09C1182.42,530.54,1181.93,531,1180.81,531.16Z"/><path class="d" d="M1170.42,421.31a1.72,1.72,0,0,1,.35,1.75c-.32.52.27.62,2,.3s2.44-.21,2.44.27.45.56,1,.35c.85-.33.87-.52,0-1.33a3.11,3.11,0,0,0-1.62-1c-1,0-4.86-2.32-4.86-2.94,0-.32.52-.4,1.17-.2,3.23.93,6.16,1.12,7.84.47,3.24-1.22,2.11-2.1-2.77-2.1-2.68,0-5-.35-5.43-.82-.64-.64-.83-.64-.83,0a.9.9,0,0,1-1,.82c-.54,0-1.11.69-1.27,1.53l-.3,1.54.24.41A3.35,3.35,0,0,1,1170.42,421.31Z"/><path class="d" d="M1172,466.85c1.4.55,1.63.49,1.63-.53,0-.54-.55-.92-1.23-.87-1,.08-1.37.44-1.18.84A1.49,1.49,0,0,0,1172,466.85Z"/><path class="d" d="M1155.77,421.07c1.41.42,2.16.35,2.52-.24s.72-.65,1.31,0a2.1,2.1,0,0,0,1.9.44c1-.3,1-.25.08.38a6.13,6.13,0,0,1-2.89.75c-2.62,0-2.29.79,1,2.5l2.88,1.47,2.21-2.44a12.24,12.24,0,0,0,2.2-3,.51.51,0,0,1,.42-.48l-.24-.41-.51-1.54c-.49-1.51-2.38-2.18-2.38-.83,0,.45-2.23.53-6.47.24-5.57-.4-6.47-.32-6.47.59C1151.38,419.51,1152.17,420,1155.77,421.07Z"/><path class="d" d="M1163.08,534.11a10.61,10.61,0,0,0,.51-1.56c.08-.68-3.69-1.24-5.41-.79-1.41.36-1.29.54,1.43,1.94S1162.66,535.13,1163.08,534.11Z"/><path class="d" d="M1150.65,480.15c.41.65.7.68,1,.11s.73-.57,1.35-.06c1.13.94,2.75-.86,2.16-2.39a1.74,1.74,0,0,0-.29-.52c-.28-.32-.71-.21-1.67.32a10.73,10.73,0,0,1-2.73,1.05,1.5,1.5,0,0,1-.35,0l.1,1A1.66,1.66,0,0,1,1150.65,480.15Z"/><path class="d" d="M1148.66,518.71c0-1.22-.29-1.57-1-1.29a1.52,1.52,0,0,0-.57,2.51C1148,520.86,1148.66,520.33,1148.66,518.71Z"/><path class="d" d="M1146,526.34c1,2.8,2.69,2.22,2.69-.87,0-2.64-1.08-3.63-2.46-2.23C1145.43,524,1145.39,524.64,1146,526.34Z"/><path class="d" d="M1145.93,637.81c-.37.22-.67.55-.67.71s.3.3.67.3a.69.69,0,0,0,.68-.71C1146.61,637.71,1146.31,637.57,1145.93,637.81Z"/><path class="d" d="M1141.86,646c-.38.22-.69.55-.69.71s.31.3.69.3a.7.7,0,0,0,.67-.71C1142.53,645.88,1142.22,645.74,1141.86,646Z"/><path class="d" d="M1130.73,527.75a2,2,0,0,0,1.42-1.06c.41-1.26-1.66-1.05-2.13.21C1129.73,527.64,1130,527.91,1130.73,527.75Z"/><path class="d" d="M1114.62,494.07c1.31-.23,4.76-.77,7.69-1.19,4-.57,5.1-1,4.51-1.54s-.33-1.06,1-1.94c1.94-1.27,1.7-2.68-.38-2.14-1,.27-1.59-.24-2.45-2.15-1.81-4-3.59-6.29-5.45-7l-1.71-.66,1.52-1.63,1.53-1.62-1.59-.24c-.89-.13-1.53-.62-1.43-1.08s-.07-.83-.35-.83c-1.86.05-3.88,3.56-3,5.28a3.09,3.09,0,0,1,.32,2c-.3.83.54,1.15,2.35.91.8-.11,2.21,2.54,2.21,4.11,0,.37-.92,1-2,1.39s-1.84,1-1.61,1.43-.11,1.13-.79,1.62c-1.16.84-1.08.94.92,1.35,2.94.59,3.32,1.48,1,2.3-1,.39-2.52,1-3.27,1.37C1112.57,494.36,1112.8,494.42,1114.62,494.07Z"/><path class="d" d="M1116,482.9c0-.4-.3-.52-.68-.29s-.68.55-.68.72.31.3.68.3A.71.71,0,0,0,1116,482.9Z"/><path class="d" d="M1114.46,440.05c.84,0,1.52-.29,1.52-.67,0-.86-.71-.86-2,0C1113.12,439.92,1113.22,440.05,1114.46,440.05Z"/><path class="d" d="M1114,459.7c0,.3.46.55,1,.55s1-.25,1-.55-.46-.58-1-.58S1114,459.38,1114,459.7Z"/><path class="d" d="M1104.05,482.55c-1.74.45-2.18,1.37-1,2.1.43.27.31,1.14-.33,2.38a4.66,4.66,0,0,0-.59,3.05,1,1,0,0,0,1.53.64c.6-.27,2.4-.94,4-1.48,2.42-.84,2.9-1.3,2.9-2.81a6.91,6.91,0,0,1,1-3.34c.58-.83.87-1.81.65-2.19-.64-1-4.83-.81-5.74.28A5.26,5.26,0,0,1,1104.05,482.55Z"/><path class="d" d="M1080.47,439.57c-.55-.66-1.55-.82-3.33-.52-2.78.48-4.58-.83-2.05-1.5,1.13-.3,1.28-.58.66-1.3-1.54-1.87,1.37-1.86,4.07,0,2,1.38,3,1.67,4.15,1.23l1.56-.58-1.72-1.32a42.85,42.85,0,0,0-3.92-2.51c-2.56-1.41-2.23-2.13,1.09-2.24,3-.09,9-2.88,9.48-4.37a10.44,10.44,0,0,1,2.36-3c1.51-1.46,1.85-2.21,1.39-3.08-1.1-2,3-5.22,7.48-5.81a14.43,14.43,0,0,0,5.11-1.49c1.22-.91.92-.95-3.17-.56-3.78.38-5,.24-7.21-.9-3.8-1.94-13.45-3.15-17.15-2.15a20,20,0,0,1-6.39.35c-2.31-.27-6.57.1-12.37,1.07a82.34,82.34,0,0,1-16.34,1.32c-16.67-.4-17.21-.34-24.2,2.65a43.63,43.63,0,0,1-12.2,3.45c-3.17.38-5.92.7-6.13.7s-.4.76-.45,1.68c-.12,2.23,1.32,2.66,9.06,2.71,5.69,0,6.41.19,8.06,1.74,2.26,2.1,4.53,6.41,4.06,7.66-.23.56.3,1.24,1.25,1.69,1.91.86,2.88,4.35,1.78,6.39a14,14,0,0,1-4,3.34c-3.76,2.32-5.23,4.78-4.1,6.88a3.5,3.5,0,0,1-.06,3.34c-1.26,3,.81,6.62,5.12,9a16.65,16.65,0,0,0,4.42,1.84c2.06,0,4.08-1.78,7.4-6.52,4.14-5.89,6.47-7.42,13.34-8.74,3.29-.62,6.1-1.62,7.42-2.62,4-3.08,6.8-4.18,10.63-4.24a65.68,65.68,0,0,0,9.7-1.31C1080.27,440.75,1081.13,440.37,1080.47,439.57Z"/><path class="d" d="M1092.09,450.21a8.89,8.89,0,0,1-4,.41c-2-.64-8,1.59-8.4,3.15-.27,1-.08,1.24.77,1a4.92,4.92,0,0,1,3.18,1,5.31,5.31,0,0,0,3.07,1.07c6.2-1.69,8.76-2.63,10.14-3.71l1.64-1.27-1.84-1.21C1095.07,449.55,1094.45,449.51,1092.09,450.21Z"/><path class="d" d="M1059.49,600.71a.68.68,0,1,0,.67.68A.67.67,0,0,0,1059.49,600.71Z"/><path class="d" d="M1052.64,595.26c-.39,0-.54.31-.3.68s.56.68.72.68.3-.3.3-.68A.7.7,0,0,0,1052.64,595.26Z"/><path class="c" d="M1018.26,664.36a14.46,14.46,0,0,1-6.42-3.75c-2.43-2.43-3.1-2.71-8.18-3.41-4.8-.66-5.77-.61-7.2.33-1.8,1.18-2.42.6-2.13-2,.11-.92-.72-1.81-2.8-3-3.19-1.78-4-1.64-7.63,1.25-1.38,1.13-2.08,1.27-3.4.75-1-.4-1.22-.69-.6-.72a5.29,5.29,0,0,0,2.59-1.65c1.4-1.49,1.43-1.7.41-2.73-1.68-1.67-2.8-1.37-6.15,1.73-2.32,2.13-3.28,2.64-3.86,2s-.08-1.43,2-3.42c3.26-3.08,4.76-5.53,3.75-6.15a9,9,0,0,1-1.47-3.48c-1.5-5.66-7.89-10.32-12.53-9.16-2.27.58-7.4-1.78-9-4.13-3.39-4.91-12.38-10.38-15.72-9.55-2.18.56-9.81-1.51-11.24-3-1.95-2.08-3.7-2.25-6-.58s-2.52,2.57-1.35,3.75c.48.49.3,1.2-.59,2.3-1.27,1.56-1.32,1.58-2,.27-.83-1.56-.1-6.55,1.2-8.1,1.53-1.85-1.62-1.23-3.4.66a5.25,5.25,0,0,1-3,1.72c-1.86,0-4.09,1.86-5.39,4.48A9.6,9.6,0,0,1,905.5,622c-1.48,1-1.74.92-3.61-.57l-1.15,3.83c.34,0,.64.38.67.84s.41,2.22.84,3.91c1.1,4.4-.06,8.22-4,13.24-6,7.53-7.38,12-4.06,12.86,1.37.35,1.34.46-.66,3.38-1.85,2.69-2,3.28-1.42,5.42a7,7,0,0,0,2.35,3.5c1.74,1.14,4.29,5.64,5.74,10.11a23.92,23.92,0,0,0,3.35,5.78,48.71,48.71,0,0,1,4.41,7.13c1.71,3.54,2.33,4.13,6.72,6.45,6.14,3.21,11.09,8.09,12.18,11.95a30.09,30.09,0,0,1,.68,7.14c-.35,11,.32,23,1.62,29.45a42,42,0,0,1,.75,12.51c-.29,4.65-.18,7,.36,7.67a9,9,0,0,1,.92,4c.12,2.6.56,3.51,3,6,1.93,1.95,2.72,3.27,2.43,4s.2,2,1,3.11c1.68,2.39,1.32,5.95-.7,6.58-1.77.58-1.61,1.16.66,2.45a8.09,8.09,0,0,1,3.18,4.44c1.59,4.32,4.45,9,5.82,9.42a5,5,0,0,1,2,2.07c.62,1.17,1.29,1.59,2.13,1.32a3.4,3.4,0,0,1,2.42.27c1.67.94,5.37-1.66,4.27-3s-1-4.53.59-7.6,1.23-5.75-.82-6.55A6.07,6.07,0,0,1,955,791c-1.1-1.66-1.07-1.82.63-4.07,1.07-1.38,1.63-2.78,1.37-3.43a2.68,2.68,0,0,1,.73-2.37c1.1-1.2,1.08-1.3-.27-1.73a5.49,5.49,0,0,1-2.48-2.51c-1.44-2.8-.44-3.75,2.43-2.27a6.53,6.53,0,0,0,2.37.92c1.26-1.51,1.69-3.45,1-4.67-1-2-.29-2.71,2.75-2.71,3.43,0,7.13-1.78,8.1-3.91.62-1.36.49-2.19-.7-4.59a9.25,9.25,0,0,0-3.08-3.67c-.89-.4-1.62-1.05-1.62-1.43,0-1,1.95-.86,5.59.46,4.21,1.49,6,.62,8.86-4.51a66.51,66.51,0,0,1,3.71-5.9,7.78,7.78,0,0,0,1.58-3.75,6.64,6.64,0,0,1,1.08-3.2,9.37,9.37,0,0,0,1.54-8.25c-.73-2.24-.65-2.46,1.54-4.34a25.36,25.36,0,0,1,5.14-3.21,10.58,10.58,0,0,0,3.29-2c.3-.5,1.44-.64,3-.4a4.38,4.38,0,0,0,4.05-.94c3.61-3.07,7.36-17.36,6.55-25-.41-3.93-.32-4.34,1.33-6a18.23,18.23,0,0,0,2.88-4,37.1,37.1,0,0,1,3.34-4.93c2.86-3.54,3.93-7.28,3-10.63C1022.08,665.67,1021.7,665.37,1018.26,664.36Z"/><path class="d" d="M971.62,421.31c-4.25,0-4.6.05-3.2.84,1,.59,2.88.78,5.31.56,2.59-.24,4.26,0,5.44.65.93.56,1.7,1,1.7,1l4-2a22.91,22.91,0,0,1,5-2,21.17,21.17,0,0,0,4.77-2.05,17.6,17.6,0,0,1,5.34-2c3.43,0,11.81-2.42,17-4.88l5.5-2.64-3.34.42c-1.83.22-7.49.66-12.59,1-9.82.62-24.79,2-25.11,2.32s10.12,1.06,11.65.68c2.19-.54,3,.76,1,1.8q-1.51.81-7.38.43c-6.32-.42-8.28,0-6.5,1.52s.48,2.2-2.59,1.78c-2.34-.33-2.54-.27-1.18.3C979.26,420.21,976.94,421.34,971.62,421.31Z"/><path class="d" d="M956.79,438.37a16.8,16.8,0,0,1,5.54.3c2.67.6,3.64.54,5.31-.34,1.93-1,2.21-1,4.36.37a15,15,0,0,1,4.08,4.45c1,1.67,2,3,2.31,3a5.51,5.51,0,0,1,1.84,1c1.27.94,1.24,1-.7,1.75a4.19,4.19,0,0,1-3.61.05c-1.84-.84-5.15.51-5.86,2.4-.37.94-1,1-4.13.65-4.06-.49-7.7.61-5.68,1.73a5.21,5.21,0,0,0,3.32-.07c3.85-1.1,5.15-.82,6.58,1.43a14.33,14.33,0,0,0,4,3.72c2.64,1.62,6,2.19,6.66,1.12.19-.31-.56-1.09-1.67-1.74-3.55-2.1-1-3.39,2.81-1.44,1.92,1,2,1,2.75-.57.59-1.27.51-2.1-.35-3.75-1-2-1-2.14.27-2.83,1-.55,2-.41,4,.65,3,1.53,4.07,1.37,5.42-.79,1-1.59,1.08-1.46-3.48-4.72a3.73,3.73,0,0,1-1.55-3.4c0-2.15-.21-2.37-3.33-3.34a11,11,0,0,1-4.84-3c-1.29-1.62-1.74-1.8-2.93-1.16-2,1.06-2.26,1-5.77-1.34-2.64-1.75-3.53-2-5.64-1.6a11.92,11.92,0,0,0-4.75,2.44c-2.91,2.56-3.91,1.24-1.24-1.62l2-2.06-2.72.47c-3.43.61-9.2,4.72-9.2,6.55C950.57,437.7,954.59,438.78,956.79,438.37Z"/><path class="d" d="M990.2,502c2.36-.65,2.48-.81,1.78-2.33a4.08,4.08,0,0,0-2.69-2.08c-2.59-.56-3.56-2.33-2.15-3.9.64-.68.77-1.18.32-1.18s-2.91,2.12-5.53,4.73l-4.77,4.72,2.53.27C984.78,502.72,987.73,502.66,990.2,502Z"/><path class="d" d="M894.34,620.77c-2.12.89-2.64.89-4.33,0a11,11,0,0,1-3.41-3.4c-1.47-2.37-1.47-2.51-.45-8.93.56-3.6.88-7,.69-7.44-.5-1.28-4.68-1.78-9.24-1.12-5,.72-5.23.16-2.3-6.18,4.27-9.23,4.61-10.24,3.65-10.84-1.16-.73-2.41-.7-5.42.14-2,.56-2.65,1.18-3.27,3.06-1,2.94-3.63,4.86-8,5.8-5.85,1.25-8.65-1.07-10.67-8.87l-1.11-4.23,2.16-6.56c1.18-3.63,2.43-7.36,2.78-8.32s1.94-2.43,4.18-3.57c2-1,4.61-2.45,5.93-3.2,2.78-1.6,4.18-1.7,6.68-.43a18.64,18.64,0,0,0,3.92,1.4c1.78.38,2.21.19,2.85-1.21a5.5,5.5,0,0,1,3.08-2.43c2-.65,2.84-.55,5.59.62,1.78.78,3.85,1.21,4.58,1s1.91.11,3,1.16a3.55,3.55,0,0,1,1.38,2.22l4.66-.16c-.48-4-.32-4.84.69-6.7,1.27-2.37,7.54-7.27,11.95-9.35s6.28-4.66,6.34-8.53,1.37-6,2.21-3.72c.46,1.17.54,1.14.9-.4a7,7,0,0,1,2.75-3.18,26.82,26.82,0,0,0,4.12-3.27,13.43,13.43,0,0,1,4.77-2.71c5.18-1.57,6.66-2.51,7.09-4.48.35-1.59,1.41-2.3,7.45-5a70.14,70.14,0,0,1,9.41-3.54c3.36-.64,3.86.75.75,2.05-3.5,1.46-4.64,2.46-3.56,3.13.46.29,2.21-.17,3.94-1a29.59,29.59,0,0,1,5.17-2,13.53,13.53,0,0,0,4.08-1.84l2-1.4-2.64.45c-3.34.57-6.14-.56-7.2-2.91-.72-1.56-.66-2,.49-2.88a10.23,10.23,0,0,0,2.11-2.56c.77-1.43.69-1.51-1.76-1.51a20.47,20.47,0,0,0-6.77,2c-4,1.87-5,2-5,.59,0-.32,2.69-1.88,6-3.45,5.58-2.67,6.34-2.86,12.08-2.91,7.77-.07,10.43-.62,16.39-3.44,5.48-2.57,7.2-4.8,5.13-6.67a4.94,4.94,0,0,0-5.64-.33c-2,1.06-3.15-.29-1.34-1.56,1.39-1,1.39-1-.19-3.74-1.09-1.92-1.38-3.1-1-3.86a2.54,2.54,0,0,0-.1-2.43,3.21,3.21,0,0,1-.33-2.26,4.37,4.37,0,0,0-.19-2.45l-.56-1.49-2.36,1.76a41.83,41.83,0,0,1-4.84,3L971.17,472l-1.51-1.61c-1.26-1.33-1.37-1.86-.73-3.07a4.06,4.06,0,0,0,.4-2.65c-.51-1.64-4.79-3.93-8.41-4.51-4.07-.67-6.5.47-8,3.81a12,12,0,0,1-3.21,4.13c-1.71,1.23-1.92,1.7-1.54,3.72.59,3.1-1.6,5.87-6.85,8.66-3.54,1.9-4.12,2.52-5.36,5.76-1.3,3.42-3.38,5.47-5.62,5.53-.45,0-1.29-.87-1.86-2-1-1.84-.94-2.29.3-5.42,1.43-3.65,1.4-3.72-1.68-4.4a35.74,35.74,0,0,1-6.14-2.45,34,34,0,0,0-6-2.38,3.83,3.83,0,0,1-2.7-2.24,6.48,6.48,0,0,0-1.68-2.4c-2.53-1.59,4.48-7.7,12.74-11.07,2.56-1,3.74-1.92,3.76-2.74s.62-1.23,3.06-1.31a30.15,30.15,0,0,0,6-.94l3-.84L937.67,452c-1.74-1.86-.89-2.78,1.54-1.67,1.3.59,2.1.53,3.75-.33a11.89,11.89,0,0,1,3.8-.95l-.31-2.74c-1.6.3-2.4-.41-1.11-2.4,1-1.44,1-1.73.11-2.06a3.16,3.16,0,0,0-2,0c-1.48.55-2.67-2.12-1.71-3.9.55-1.05.57-1.64,0-2.18s-1.79-.23-4.58,1.13c-3.73,1.83-3.79,1.91-2.36,2.9,2,1.41.87,3.4-2.48,4.33a14.63,14.63,0,0,0-4.22,2c-1.65,1.28-1.71,1.28-3.57-.05-1.48-1-2.53-1.26-4.79-.92a15.42,15.42,0,0,1-6.13-.57,8.48,8.48,0,0,0-6.45,0,10.72,10.72,0,0,0-4.68,2.8l-1.46,1.83L900,447c-.72-1.39-1-1.88-2.1-2a19.46,19.46,0,0,0-3.05.21,18.13,18.13,0,0,1-5.26-.06c-1.19-.47-1.18-.53.08-1.47.79-.57,1.09-.81.87-.9a4.39,4.39,0,0,0-1.06-.07,27.29,27.29,0,0,1-5.76-1.43,16.24,16.24,0,0,0-7.53-1.05,8.93,8.93,0,0,1-5.29-.62c-1.48-.77-2.31-.84-3.34-.28a4,4,0,0,1-2.67.33c-.7-.22-3.74.22-6.73,1-6.77,1.73-10.72,1.75-16.8.08a69.05,69.05,0,0,0-8.83-1.75c-2.24-.26-6.77-.91-10.05-1.45-5.32-.87-6.82-.87-13.92.11a73.8,73.8,0,0,0-12.32,2.75A25.4,25.4,0,0,1,790,442.1c-2.05,0-6.15,1.27-6.15,1.91a7.17,7.17,0,0,0,1.43,1.92l1.43,1.51-2.18,1.13a7.1,7.1,0,0,1-4.75.68,14.48,14.48,0,0,0-9.2,2c-1.26.92-1.15,1,1.63,1.76,2.28.62,3.41.62,5,0,3.27-1.35,3.78.21.76,2.27a18.74,18.74,0,0,1-7.61,2.51c-6.25.94-9.14,2.48-8.62,4.58s-.19,3.55-2.56,4.75L757,468.13l1.91,1a3.43,3.43,0,0,0,3.59.24c1.75-.79,3.21-.41,2.54.68-.54.89-6.45,3.87-12.22,6.14-3.38,1.35-4.24,1.91-3,1.94,2,0,9.11-2.5,14.08-5a28.45,28.45,0,0,1,5.58-2.13,43.14,43.14,0,0,0,7.55-3.23c4.23-2.21,5.44-2.57,6.55-2,1.48.8,5.1.06,8.52-1.68,1.65-.86,2.49-.82,7.26.41a53.45,53.45,0,0,0,6.58,1.37,8,8,0,0,1,3.34,1.63,24.86,24.86,0,0,0,4.62,2.69c2.55,1.06,3.3,2.48,3.09,5.9-.11,2.13.28,3.59,1.16,4.24.38.29.21.49-.43.51-1.54,0-3,3.62-2.07,5.23a1.77,1.77,0,0,1-.35,2.4c-1,1.05-.76,1.41,2.1,4.19,1.72,1.67,3.13,3.5,3.13,4.06a1.39,1.39,0,0,0,.62,1.25c.35.13-.19,1.46-1.22,3-1.73,2.54-3.28,3.13-3.05,1.19,0-.48-.56-.84-1.37-.84-1.11,0-1.83.9-3.08,3.78a31.3,31.3,0,0,1-4.61,7.07,27.25,27.25,0,0,0-4,5.92,16.8,16.8,0,0,1-2.8,4.43c-.93,1-1.51,2.13-1.28,2.5a3.49,3.49,0,0,1-.35,2.41,2.82,2.82,0,0,0,.31,3.42c.61.94.83,1.87.5,2.08s-.39,1.32-.05,2.59.75,3.32,1,4.68c.33,1.92.87,2.67,2.48,3.33a6.61,6.61,0,0,1,3.7,7.46c-.35,2-.06,3.35,1.32,6.07s1.61,3.78,1.08,4.78c-.92,1.72-.4,2.93,2.12,4.77,1.63,1.23,2,1.86,1.63,3.21s.11,2.35,1.7,4.36c2.7,3.4,3.8,3.46,2.09.11a23.92,23.92,0,0,1-1.82-5.91,33.4,33.4,0,0,0-2.4-7.47c-2.59-5.58-2.92-7.27-1.75-8.87.83-1.13,1.24-1.21,2.69-.56s1.8,1.45,2.16,4.15a21.67,21.67,0,0,0,3.1,7.64c1.45,2.37,2.48,4.57,2.27,4.9s.83,1.87,2.28,3.45a30.35,30.35,0,0,1,4.21,6.12c1.38,2.86,1.49,3.62.86,6.13-.69,2.72-.62,3,1.46,5.17,1.34,1.41,5.67,4,11.25,6.71l9.09,4.4,3-1.13c2.69-1,3.15-1,5-.08a11.92,11.92,0,0,1,3.55,3.18,14.13,14.13,0,0,0,5.18,3.75c4,1.78,5.69,2,6.82.87.54-.52,1-.08,1.52,1.63a9.7,9.7,0,0,0,2.12,3.57,4.39,4.39,0,0,1,1.33,2.78A3.23,3.23,0,0,0,880,617c.48.37,2.12,1.77,3.66,3.09a12.14,12.14,0,0,0,3.56,2.41,14.68,14.68,0,0,1,3.51,1.45c2.85,1.49,3.72,1.34,3.74-.62,0-1.64,3.27-2.62,5.45-1.62,1.48.67,1.64,1,1,2.16-.4.75-.46,1.37-.15,1.37l1.15-3.83C899.55,619.51,897.71,619.37,894.34,620.77Zm33.5-108c1,.57.94.76-.47,1.75-2,1.4-5.38,1.49-5.38.16S926.36,511.92,927.84,512.75Zm-12.54,6.9a13,13,0,0,1-4.18,1.41c-2.49,0-1.46-1.94,1.81-3.38,2.77-1.23,3.31-1.29,4.17-.43S917.72,518.41,915.3,519.65Zm-19.85-16.31a7.85,7.85,0,0,1,2.24-1.32c.3,0,.38-.3.16-.65s.14-.62.81-.59a21.7,21.7,0,0,0,4.28-.81c4.67-1.3,6.82-1.11,8.23.75a4.27,4.27,0,0,1,.87,3,2.53,2.53,0,0,0,.45,2.1,2.65,2.65,0,0,0,3.32,1c2.59-1.39,6.1,1.76,4.72,4.24a1.76,1.76,0,0,1-2.26.78c-1.19-.3-1.7-.08-2,.9a4.16,4.16,0,0,1-2.07,2.07,2.39,2.39,0,0,1-3.1-.41l-1.46-1.18,1.41-1.79c1.8-2.29,1.78-2.61-.19-2.61-2.72,0-6.1,2.83-7.91,6.64a14.81,14.81,0,0,1-3.15,4.56c-1.3.91-1.56.89-2.51-.16s-.81-1.55,1.59-5.59c2.89-4.83,5-6.5,9-7.17,1.46-.25,2.43-.73,2.19-1.11s-1.14-.49-2-.29a6.87,6.87,0,0,1-3.89-.7c-2.13-1-2.48-1-4.42,0a4.11,4.11,0,0,1-4,.37l-1.91-.72Z"/><path class="d" d="M983.25,504.39c0,.56.13,1,.27,1s.45-.46.65-1,.1-1-.25-1S983.25,503.83,983.25,504.39Z"/><path class="d" d="M963.86,427.64l9.19.73a9.78,9.78,0,0,0,3.4-1.21l2.38-1.27-1.94-.49a31.1,31.1,0,0,0-6.8-.13c-4,.28-5.36.09-7.5-1s-2.94-1.21-4.55-.54-3.15,2.51-2.54,3.09C955.59,426.91,959.36,427.29,963.86,427.64Z"/><path class="d" d="M972.06,416.13c2.37-1.4,2.43-1.54,1.24-2.43-1.53-1.12-4.86-.65-8.41,1.19-2.41,1.26-2.3,1.53,1,2.26C968.6,417.73,969.6,417.58,972.06,416.13Z"/><path class="d" d="M948.89,448.92c4.49,0,6-.68,9-4,2.51-2.75,2.65-3.23,1.13-3.8a5.84,5.84,0,0,0-6.46,1.35,12.56,12.56,0,0,1-6.12,3.8l.31,2.74A19.32,19.32,0,0,1,948.89,448.92Z"/><path class="d" d="M956.33,607.51c-.16,0-.31.3-.31.68a.71.71,0,0,0,.72.69c.4,0,.54-.32.3-.69S956.48,607.51,956.33,607.51Z"/><path class="d" d="M952.62,603.09c-.38.23-.68.56-.68.72s.3.3.68.3a.71.71,0,0,0,.69-.72C953.31,603,953,602.85,952.62,603.09Z"/><path class="d" d="M943.67,432.87a25.56,25.56,0,0,1,4.06-1c3.59-.6,5-1.73,2.91-2.38-2.83-.89-9.49,1.54-8.52,3.13A1.28,1.28,0,0,0,943.67,432.87Z"/><path class="d" d="M950.57,599a1.49,1.49,0,0,0,.68-1.11c0-.37-.3-.48-.68-.26a1.54,1.54,0,0,0-.67,1.1C949.9,599.12,950.21,599.23,950.57,599Z"/><path class="d" d="M950.92,594.57c-.24-.36-.56-.66-.73-.66s-.29.3-.29.66a.7.7,0,0,0,.72.69C951,595.26,951.14,595,950.92,594.57Z"/><path class="d" d="M941.51,454.23c-1.62,1.79-.51,2.43,2.69,1.56a5,5,0,0,1,4.26.23c1.52.81,1.86.8,2.35-.06.75-1.33-.49-2.72-3.32-3.66C945,451.48,943.58,451.94,941.51,454.23Z"/><path class="d" d="M949.22,546.89c0-.4-.32-.52-.68-.3s-.69.55-.69.73.31.29.69.29A.71.71,0,0,0,949.22,546.89Z"/><path class="d" d="M947,618.4a1.81,1.81,0,0,0,1.72-1.35c.27-1,0-1.37-1.05-1.37-.78,0-1.21.21-1,.45s.11.85-.3,1.36C945.82,618.21,946,618.4,947,618.4Z"/><path class="d" d="M947.55,595.26c.18,0,.3-.31.3-.69a.68.68,0,0,0-.71-.66c-.4,0-.54.3-.3.66S947.39,595.26,947.55,595.26Z"/><path class="d" d="M944.12,596a1.44,1.44,0,0,0,1,.66c1,0,.76-.49-.42-.93C944.15,595.45,943.88,595.56,944.12,596Z"/><path class="d" d="M940,590.93c-.57.21-1,.51-1,.66s.46.27,1,.27,1-.31,1-.66S940.59,590.71,940,590.93Z"/><path class="d" d="M931.51,434.65c0,2,6.47-.8,7.84-3.44.57-1.13.81-2,.52-2-1.73,0-6,1.65-6.53,2.48-.4.68-1.29.84-3.07.57l-2.49-.4,1.87,1.08C930.67,433.5,931.51,434.28,931.51,434.65Z"/><path class="d" d="M933.37,592.81c.74.71,3.12.17,3.42-.78.18-.54-.36-.86-1.43-.86C933.58,591.17,932.58,592,933.37,592.81Z"/><path class="d" d="M930.12,442.16c2.24-1.19,2.27-1.27.79-1.73a6.2,6.2,0,0,0-3.54.34c-1.58.66-1.83,1-1.23,1.76C927.11,443.71,927.25,443.69,930.12,442.16Z"/><path class="d" d="M929.8,590.46c-.78-1.24-5.31-2.69-8.44-2.69s-3.45.1-2.8,1.32c.92,1.73,0,2.32-3.66,2.24-2.46-.06-2.59,0-1.12.59a7.15,7.15,0,0,0,3.54.25,5.25,5.25,0,0,1,3,.21C921.55,593.06,930.31,591.28,929.8,590.46Z"/><path class="d" d="M927.43,609.31a1.93,1.93,0,0,0,.46,1.16.6.6,0,0,0,.81.09c.19-.19,0-.71-.46-1.16S927.43,608.88,927.43,609.31Z"/><path class="d" d="M924.33,608.88c-.16,0-.3.3-.3.68a.7.7,0,0,0,.73.67c.4,0,.52-.3.29-.67S924.49,608.88,924.33,608.88Z"/><path class="d" d="M894.77,433.14c-2.36,1-2.36,1-.69,1.46,2.32.57,2.15,1.65-.35,2-1.47.24-.92.42,2,.69,2.25.2,4.09.66,4.09,1.05s-2.13.82-4.72,1l-4.74.34,1.24.55,2.13,1a32,32,0,0,0,4.15,1.54,6.43,6.43,0,0,0,.92.23c3.32.54,4,.44,7.22-.94,2.86-1.23,3.67-1.3,6.5-.62s3.57.62,6.83-.88l3.61-1.63-2.19-1.15-2.2-1.14,1.34-2.21a10.8,10.8,0,0,0,1.35-2.72c0-1.16-2.59-.38-4.1,1.21s-3,1.92-3.13.44c-.05-.44-.13-1.14-.18-1.55s-.68-.37-1.73.31c-1.48,1-2,1-5.13.05A18,18,0,0,0,894.77,433.14Z"/><path class="d" d="M922,578.76c0-.73-2.57-.64-3,.09-.2.34.39.56,1.32.51S922,579,922,578.76Z"/><path class="d" d="M916.54,581c0-.86-.71-.86-2,0-.83.52-.73.67.51.67C915.86,581.64,916.54,581.33,916.54,581Z"/><path class="d" d="M913.82,586.47c1.94-.56,1.94-.56-4.08-3.79-7.33-3.91-9.41-4.7-13.15-5-3.91-.3-9.31,1.28-9.31,2.71,0,.77.22.73,3.32-.5,3.29-1.32,6-.7,10.94,2.48,2.51,1.62,3.24,2.43,2.73,3s0,.84,2.12.87a8.75,8.75,0,0,1,3.19.42C910.06,587.18,911.61,587.1,913.82,586.47Z"/><path class="d" d="M910.25,567.74c.19-.17.14-.84-.1-1.47s-.6-1-.79-.82a1.84,1.84,0,0,0,.11,1.5C909.71,567.57,910.06,567.93,910.25,567.74Z"/><path class="d" d="M902.25,591.81a1.26,1.26,0,0,0,.85,1,10.6,10.6,0,0,0,2.89.38c1.94,0,2,0,.73-1C905.26,591.08,902.25,590.82,902.25,591.81Z"/><path class="d" d="M906.77,566.33c.9-.91.87-1-.27-1a1.2,1.2,0,0,0-1.31,1c0,.56.13,1,.29,1A4.6,4.6,0,0,0,906.77,566.33Z"/><path class="d" d="M905.51,572.29c.57.65,1.23,1,1.45.76s0-.57-.38-.71-.62-.89-.43-1.62,0-1.32-.37-1.32C904.57,569.4,904.41,571.05,905.51,572.29Z"/><path class="d" d="M884.55,436.25a109.89,109.89,0,0,1,16-5.36l4.09-.79-3.07-.94c-5.53-1.68-8.63-1.24-14.81,2.15-5.26,2.87-5.52,3.11-4.42,4.21A2.32,2.32,0,0,0,884.55,436.25Z"/><path class="d" d="M896.47,561.1c-.5,2.65,1.28,8.68,2.75,9.23.62.24,1.35-.34,2-1.57.86-1.65.89-2.91.24-7.9-.06-.57-.12-1.08-.19-1.56l-4.66.16A5.84,5.84,0,0,1,896.47,561.1Z"/><path class="d" d="M812.77,493.58c-1.56.61-1.29,1.53,1.06,3.74a7.15,7.15,0,0,0,3.41,2c1.5,0,1.52-.1.5-2.35S814.17,493,812.77,493.58Z"/><path class="d" d="M812.75,478.18c-.84.68-.89,1.07-.22,1.88s.92.79,1.48-.45C814.82,477.81,814.14,477,812.75,478.18Z"/><path class="d" d="M812.07,473.41c-.56.46-.83,1.15-.6,1.51s.65.32,1-.24C813.4,473.22,813.17,472.49,812.07,473.41Z"/><path class="d" d="M772.46,472.47c-2.92.7-5,1.55-5,2,0,.24.54.23,1.19,0a24.11,24.11,0,0,1,3.09-.84,4.41,4.41,0,0,0,2.27-1C774.23,472.27,773.57,472.2,772.46,472.47Z"/><line class="e" x1="900.74" y1="625.22" x2="901.89" y2="621.39"/><path class="d" d="M1248.25,505.64h0a19.74,19.74,0,0,0-10.65,3.18h0a19.82,19.82,0,0,0-3.18-10.65h0a19.85,19.85,0,0,0,10.65-3.18h0A19.74,19.74,0,0,0,1248.25,505.64Z"/><line class="f" x1="1247.34" y1="490.77" x2="1235.32" y2="513.03"/><line class="f" x1="1252.46" y1="507.92" x2="1230.2" y2="495.89"/><line class="g" x1="1135.83" y1="226.71" x2="1123.8" y2="248.97"/><path class="h" d="M959.24,248.49h0a19.86,19.86,0,0,0-10.66,3.18h0A19.76,19.76,0,0,0,945.4,241h0a19.77,19.77,0,0,0,10.66-3.18h0A19.74,19.74,0,0,0,959.24,248.49Z"/><line class="g" x1="958.33" y1="233.63" x2="946.31" y2="255.89"/><line class="g" x1="963.45" y1="250.77" x2="941.19" y2="238.74"/><polygon class="c" points="1065.67 243.47 1065.71 217.24 1086.17 217.24 1052.93 180 1019.7 217.24 1039.42 217.24 1039.38 243.47 1065.67 243.47"/><polygon class="c" points="1270.25 226.63 1270.21 252.85 1249.76 252.85 1282.99 290.09 1316.23 252.85 1296.51 252.85 1296.54 226.63 1270.25 226.63"/><rect class="a" x="1066.69" y="270.99" width="109.26" height="109.25" rx="54.63" ry="54.63"/><path class="d" d="M1131.93,308c-3-3-5.58-4.68-10.12-4.68-5.13,0-8.4,3.2-8.4,8,0,12.13,23.28,8.78,23.28,26.63,0,7.88-5,13.31-12.87,14.43v8.41h-4.91v-8.26a25.79,25.79,0,0,1-14.2-6.4l3.19-4.61c3.5,3,7.74,5.43,12.8,5.43,6.17,0,9.37-3.35,9.37-8.55,0-13.54-23.28-10.57-23.28-26.78,0-7.44,4.91-12.72,12.12-13.76v-8.41h4.91v8.26c5.36.59,8.78,3.12,11.75,6.25Z"/><rect class="i" x="1212.26" y="310.6" width="53.65" height="53.65" rx="26.82" ry="26.82"/><polygon class="d" points="1243.98 320.94 1228.23 339.76 1239.17 339.76 1229.76 357.05 1249.46 336.04 1238.73 336.04 1243.98 320.94"/><rect class="i" x="1301.76" y="310.6" width="53.65" height="53.65" rx="26.82" ry="26.82"/><polygon class="j" points="1313.12 328.84 1329.58 335.69 1344.17 328.3 1329.28 321.66 1313.12 328.84"/><path class="j" d="M1313.12,328.84v19.38l17.05,8.62-.59-21.14,14.59-7.4V347s-12.92,9.69-14,9.87"/><rect class="k" x="1247.48" y="301.91" width="71.03" height="71.03" rx="35.51" ry="35.51"/><polyline class="i" points="1262.61 365.77 1262.95 358.65 1291.55 351.44 1291.55 358.52 1315.07 352.69"/><path class="i" d="M1268.18,356.74l1.82-24.23a9.69,9.69,0,0,1,8.08,0v22.32"/><path class="i" d="M1296.66,356.74l1.83-24.23a9.69,9.69,0,0,1,8.08,0v22.32"/><line class="i" x1="1281.02" y1="359.97" x2="1281.02" y2="365.51"/><line class="i" x1="1273.21" y1="359.97" x2="1273.21" y2="365.51"/><path class="i" d="M1271.51,327.15c0-3.52,8.81-8.81,9.87-8.45s3.17-6.35,10.21-5.29"/><path class="i" d="M1301.1,327.15c0-3.52,8.81-8.81,9.87-8.45"/><rect class="l" x="995.31" y="257.68" width="115.25" height="115.25" rx="57.63" ry="57.63"/><polyline class="a" points="1048.18 359.52 1048.18 319.46 1035.19 298.16"/><line class="a" x1="1058.93" y1="359.52" x2="1058.93" y2="289.68"/><polyline class="a" points="1070.66 358.55 1070.66 338.03 1078.64 322.84"/><circle class="a" cx="1031.57" cy="292.1" r="6.84"/><circle class="a" cx="1058.93" cy="283.31" r="6.37"/><circle class="a" cx="1081.41" cy="317.51" r="6.33"/><polyline class="a" points="1036.2 358.55 1036.2 338.03 1028.21 322.84"/><circle class="a" cx="1025.45" cy="317.51" r="6.33"/></svg>