<?xml version="1.0" encoding="utf-8"?>
<!-- Generator: Adobe Illustrator 18.0.0, SVG Export Plug-In . SVG Version: 6.00 Build 0)  -->
<!DOCTYPE svg PUBLIC "-//W3C//DTD SVG 1.1//EN" "http://www.w3.org/Graphics/SVG/1.1/DTD/svg11.dtd">
<svg version="1.1" id="Layer_1" xmlns="http://www.w3.org/2000/svg" xmlns:xlink="http://www.w3.org/1999/xlink" x="0px" y="0px"
	 viewBox="0 0 424.6 297.9" enable-background="new 0 0 424.6 297.9" xml:space="preserve">
<g>
	<g>
		<g>
			<line fill="none" stroke="#A7A9AC" stroke-width="0.8649" stroke-miterlimit="10" x1="37.6" y1="30.1" x2="424.6" y2="30.1"/>
			<line fill="none" stroke="#A7A9AC" stroke-width="0.8649" stroke-miterlimit="10" x1="37.6" y1="79.3" x2="424.6" y2="79.3"/>
			<line fill="none" stroke="#A7A9AC" stroke-width="0.8649" stroke-miterlimit="10" x1="37.6" y1="128.4" x2="424.6" y2="128.4"/>
			<line fill="none" stroke="#A7A9AC" stroke-width="0.8649" stroke-miterlimit="10" x1="37.6" y1="177.6" x2="424.6" y2="177.6"/>
			<line fill="none" stroke="#A7A9AC" stroke-width="0.8649" stroke-miterlimit="10" x1="37.6" y1="226.7" x2="424.6" y2="226.7"/>
		</g>
		<path fill="none" stroke="#EA5284" stroke-width="0.9834" stroke-linejoin="bevel" stroke-miterlimit="10" d="M73,31.7l12.1-3
			l7.1,37.8l5.1-12.1l8.1,43.1l8.1-38.5l3,56.7L128.6,80l5.1-31.7l6.7-13.6l8.4,9.8l8.1-6v26.5L167,34.7l20.2,1.5l4,14.4l7.1-7.6
			v42.3l11.1-12.8l-2,52.1l14.1-23.4l3,34l5.1-46.9l30.3,99l10.1-52.1l17.2,71l13.1-69.5l9.1,32.5l11.1-62.7
			c0,0,17.2,89.9,19.2,84.6c2-5.3,17.2-59.7,17.2-59.7l9.1,12.8l7.1-18.1l6.1,31l10.1-21.2l7.1,18.1l5.1-22.7"/>
		<path fill="none" stroke="#0C56AB" stroke-width="0.9834" stroke-linejoin="bevel" stroke-miterlimit="10" d="M78.1,34.7l16.2-4.5
			l1,7.6c0,0,13.1-7.6,16.2-6.8c3,0.8,3,0.8,3,0.8l23.2-2.3h20.2L171,67.2l18.2-9.1c0,0,16.2-15.1,19.2-12.8
			c3,2.3,15.2,24.2,15.2,24.2l15.2-12.8c0,0,14.1,3.8,16.2,6c2,2.3,1,34,1,34l8.1-23.4l17.2,47.6c0,0,12.1-24.2,15.2-21.9
			c3,2.3,17.2,30.2,17.2,30.2l13.1-1.5l12.1,31.7l7.1-13.6l17.2,9.8l17.2-22.7l3-24.9l8.1,12.8l7.1-10.6"/>
		<circle fill="#2368B5" cx="7.1" cy="273.6" r="7.1"/>
		<g>
			<g>
				<path fill="#0C56AB" d="M25.6,268.3c0,0.4,0,0.9-0.1,1.4c0.1,1.2,0.8,5.4,4.3,6.9c-0.2,0.2-0.4,0.4-0.5,0.6
					c-2.5-1.2-3.6-3.6-4-5.5c-0.5,2-1.5,4.2-4,5.5c-0.1-0.2-0.4-0.4-0.6-0.6c4.1-2.1,4.1-7,4.1-8.5H25.6z"/>
				<path fill="#0C56AB" d="M36.3,273.9c0.5,1.6,1.4,2.7,2.3,2.7c0.3,0,0.4-0.4,0.5-1.5c0.2,0.1,0.5,0.3,0.7,0.3
					c-0.1,1.5-0.4,1.8-1.1,1.8c-1.3,0-2.5-1.4-3.1-3.4h-3v2.5l2.4-0.6c0,0.2,0,0.5,0.1,0.7c-2.7,0.7-3.1,0.8-3.3,1
					c-0.1-0.2-0.2-0.5-0.3-0.7c0.2-0.1,0.4-0.3,0.4-0.7v-7.3h7.1v2.9h-2.9c0,0.5,0.1,1,0.2,1.5h3.4v0.7H36.3z M32.5,269.5v1.5h5.6
					v-1.5H32.5z M35.3,273.2c-0.1-0.5-0.2-1-0.2-1.5h-2.6v1.5H35.3z"/>
				<path fill="#0C56AB" d="M49.1,269.9c-0.2,0.8-0.6,1.4-1.1,1.9c0.5,0.5,1.1,0.8,1.8,1c-0.1,0.1-0.3,0.4-0.4,0.5
					c-0.7-0.3-1.3-0.6-1.8-1.1c-0.5,0.4-1.1,0.7-1.8,1c-0.1-0.1-0.3-0.4-0.4-0.6c0.7-0.2,1.2-0.5,1.7-0.9c-0.3-0.4-0.6-0.9-0.8-1.4
					c-0.2,0.2-0.4,0.4-0.6,0.6c-0.1-0.1-0.3-0.3-0.5-0.5v2.6h-0.6v-2.7h-1.2v2.8h-0.5v-2.8h-1.2v2.9h-0.6v-3.4h1.7v-1.6h0.7v1.6h1.7
					v0.6c0.6-0.5,1.1-1.3,1.4-2.2l0.6,0.1c-0.1,0.3-0.2,0.6-0.3,0.9h2.7v0.6H49.1z M41.8,269.9c-0.1-0.3-0.4-0.8-0.7-1.1l0.5-0.2
					c0.3,0.3,0.6,0.8,0.7,1.1L41.8,269.9z M48.8,276.1c0,0.4-0.1,0.6-0.4,0.7c-0.3,0.1-0.8,0.1-1.7,0.1c0-0.2-0.1-0.4-0.3-0.6
					c0.6,0,1.2,0,1.4,0c0.2,0,0.2-0.1,0.2-0.2v-1.5h-2.5v2.9h-0.7v-2.9h-2.3v2.4h-0.7v-3h3v-0.6h0.7v0.6h3.2V276.1z M42.6,270.9
					c-0.1,0.6-0.3,1.2-0.5,1.6c-0.1,0-0.3-0.2-0.4-0.2c0.2-0.4,0.3-1,0.4-1.5L42.6,270.9z M44.1,270.8c0.2,0.5,0.4,1.1,0.4,1.6
					l-0.4,0.1c0-0.4-0.2-1.1-0.4-1.6L44.1,270.8z M45.3,268.7c-0.3,0.4-0.6,0.9-0.9,1.2l-0.5-0.2c0.2-0.3,0.5-0.9,0.7-1.2
					L45.3,268.7z M46.7,269.9c0.2,0.5,0.5,1,0.8,1.5c0.4-0.4,0.6-0.9,0.8-1.5H46.7z"/>
			</g>
		</g>
		<circle fill="#EA5284" cx="70.7" cy="273.6" r="7.1"/>
		<g>
			<g>
				<path fill="#0C56AB" d="M86.8,275h1.7v0.7h-1.7v1.8H86v-1.8h-1.7V275H86v-0.8h-1.3v-3.3H86V270h-1.6v-0.7H86v-1.1h0.7v1.1h1.6
					v0.7h-1.6v0.8h1.4v3.3h-1.4V275z M85.3,272.2h2.1v-0.8h-2.1V272.2z M85.3,273.5h2.1v-0.8h-2.1V273.5z M93.4,271.1h-5v-0.6h1.5
					c0-0.2,0.1-0.5,0.1-0.8h-1.1v-0.6H90c0-0.3,0.1-0.6,0.1-0.8l0.7,0c0,0.2,0,0.5-0.1,0.8h1.9v1.4h0.8V271.1z M93.4,276.3h-1.8v1.1
					h-0.7v-1.1h-2c0.1-0.4,0.3-1,0.4-1.5h-0.7v-0.6h2.3v-0.6h-1.9v-2h3.8v2h-1.2v0.6h1.5v0.6h-1.5v1h1.8V276.3z M89.8,273.1h2.4v-1
					h-2.4V273.1z M90.9,275.7v-1H90c-0.1,0.3-0.1,0.7-0.2,1H90.9z M90.7,269.7c0,0.3-0.1,0.6-0.1,0.8H92v-0.8H90.7z"/>
				<path fill="#0C56AB" d="M103,268.7v8.7h-0.7V277h-6.9v0.4h-0.7v-8.7H103z M102.3,276.4v-7.1h-6.9v7.1h1.8c0-0.1-0.1-0.3-0.2-0.4
					c0.2-0.1,0.4-0.2,0.4-0.6V275c-0.4,0.2-0.9,0.3-1.3,0.4c-0.1-0.1-0.2-0.3-0.3-0.4c0.9-0.2,1.9-0.5,2.5-1h-1.7v-1.4h4.4v1.4h-2
					c-0.3,0.3-0.7,0.5-1.1,0.7v0.9l1.4-0.4c0,0.1,0,0.3,0.1,0.4c-1.7,0.5-2,0.6-2.2,0.7H102.3z M101.7,271.7v0.5h-5.8v-0.5H101.7z
					 M101.4,271.4h-4.9v-1.6h4.9V271.4z M97.8,270.2h-0.9v0.7h0.9V270.2z M100.5,273.6V273h-3.2v0.6H100.5z M99.3,270.2h-1v0.7h1
					V270.2z M101.6,274.3c-0.3,0.3-0.7,0.5-1.1,0.7c0.5,0.3,0.9,0.6,1.2,0.8l-0.4,0.4c-0.5-0.4-1.6-1.1-2.4-1.6l0.3-0.3
					c0.3,0.1,0.5,0.3,0.8,0.5c0.4-0.2,0.8-0.5,1.1-0.7L101.6,274.3z M100.8,270.2h-1v0.7h1V270.2z"/>
			</g>
		</g>
		<g>
			<path fill="#58595B" d="M1.5,26.8C2,26,2.8,25.5,3.9,25.5s1.9,0.5,2.4,1.2C6.8,27.5,7,28.5,7,29.6s-0.2,2.1-0.7,2.8
				c-0.5,0.8-1.3,1.2-2.4,1.2S2,33.2,1.5,32.4c-0.5-0.8-0.7-1.8-0.7-2.8S1,27.5,1.5,26.8z M2.7,32.1c0.3,0.3,0.7,0.5,1.2,0.5
				s0.9-0.2,1.2-0.5c0.5-0.5,0.7-1.3,0.7-2.5s-0.2-2-0.7-2.5c-0.3-0.3-0.7-0.5-1.2-0.5S3,26.8,2.7,27.1C2.2,27.6,2,28.4,2,29.6
				S2.2,31.6,2.7,32.1z"/>
			<path fill="#58595B" d="M9.9,25.6c1,0,1.9,0.8,1.9,1.9c0,1.1-0.9,1.9-1.9,1.9c-1,0-1.9-0.8-1.9-1.9C8,26.4,8.9,25.6,9.9,25.6z
				 M9,33.5l5.6-7.8h1.1l-5.6,7.8H9z M9.9,28.5c0.5,0,0.9-0.4,0.9-0.9c0-0.5-0.4-0.9-0.9-0.9C9.4,26.6,9,27,9,27.5
				C9,28.1,9.4,28.5,9.9,28.5z M14.7,29.8c1,0,1.9,0.8,1.9,1.9c0,1.1-0.9,1.9-1.9,1.9s-1.9-0.8-1.9-1.9
				C12.7,30.6,13.6,29.8,14.7,29.8z M14.7,32.6c0.5,0,0.9-0.4,0.9-0.9c0-0.5-0.4-0.9-0.9-0.9c-0.5,0-0.9,0.4-0.9,0.9
				C13.7,32.2,14.2,32.6,14.7,32.6z"/>
		</g>
		<g>
			<path fill="#58595B" d="M1.8,80.3c0.1,1,0.8,1.6,1.8,1.6c0.9,0,1.7-0.6,1.7-1.6c0-1.1-0.8-1.6-1.7-1.6c-0.6,0-1.1,0.2-1.4,0.6
				c-0.4-0.2-0.8-0.3-1.2-0.5l1-3.9H6V76H2.7l-0.6,2.2c0.3-0.4,1-0.6,1.6-0.6c1.5,0,2.6,1,2.6,2.6c0,1.5-1.1,2.7-2.9,2.7
				c-1.7,0-2.8-1.1-2.9-2.3L1.8,80.3z"/>
			<path fill="#58595B" d="M9.2,74.9c1,0,1.9,0.8,1.9,1.9c0,1.1-0.9,1.9-1.9,1.9c-1,0-1.9-0.8-1.9-1.9C7.3,75.7,8.2,74.9,9.2,74.9z
				 M8.3,82.7l5.6-7.8H15l-5.6,7.8H8.3z M9.2,77.7c0.5,0,0.9-0.4,0.9-0.9c0-0.5-0.4-0.9-0.9-0.9c-0.5,0-0.9,0.4-0.9,0.9
				C8.3,77.3,8.7,77.7,9.2,77.7z M14,79c1,0,1.9,0.8,1.9,1.9c0,1.1-0.9,1.9-1.9,1.9s-1.9-0.8-1.9-1.9C12.1,79.9,13,79,14,79z
				 M14,81.9c0.5,0,0.9-0.4,0.9-0.9c0-0.5-0.4-0.9-0.9-0.9c-0.5,0-0.9,0.4-0.9,0.9C13.1,81.5,13.5,81.9,14,81.9z"/>
		</g>
		<g>
			<path fill="#58595B" d="M2.4,132v-5.5H0.5v-0.8c1.1,0,1.8-0.6,2-1.5h1v7.8H2.4z"/>
			<path fill="#58595B" d="M5.8,125.3c0.5-0.8,1.3-1.2,2.4-1.2s1.9,0.5,2.4,1.2c0.5,0.8,0.7,1.8,0.7,2.8s-0.2,2.1-0.7,2.8
				c-0.5,0.8-1.3,1.2-2.4,1.2s-1.9-0.5-2.4-1.2c-0.5-0.8-0.7-1.8-0.7-2.8S5.3,126,5.8,125.3z M7,130.6c0.3,0.3,0.7,0.5,1.2,0.5
				s0.9-0.2,1.2-0.5c0.5-0.5,0.7-1.3,0.7-2.5s-0.2-2-0.7-2.5c-0.3-0.3-0.7-0.5-1.2-0.5s-0.9,0.2-1.2,0.5c-0.5,0.5-0.7,1.3-0.7,2.5
				S6.5,130.1,7,130.6z"/>
			<path fill="#58595B" d="M14.2,124.1c1,0,1.9,0.8,1.9,1.9c0,1.1-0.9,1.9-1.9,1.9c-1,0-1.9-0.8-1.9-1.9
				C12.3,124.9,13.2,124.1,14.2,124.1z M13.3,132l5.6-7.8h1.1l-5.6,7.8H13.3z M14.2,126.9c0.5,0,0.9-0.4,0.9-0.9
				c0-0.5-0.4-0.9-0.9-0.9c-0.5,0-0.9,0.4-0.9,0.9C13.3,126.5,13.7,126.9,14.2,126.9z M19,128.3c1,0,1.9,0.8,1.9,1.9
				c0,1.1-0.9,1.9-1.9,1.9s-1.9-0.8-1.9-1.9C17,129.1,17.9,128.3,19,128.3z M19,131.1c0.5,0,0.9-0.4,0.9-0.9c0-0.5-0.4-0.9-0.9-0.9
				c-0.5,0-0.9,0.4-0.9,0.9C18,130.7,18.4,131.1,19,131.1z"/>
		</g>
		<g>
			<path fill="#58595B" d="M2.4,181.2v-5.5H0.5v-0.8c1.1,0,1.8-0.6,2-1.5h1v7.8H2.4z"/>
			<path fill="#58595B" d="M6,178.8c0.1,1,0.8,1.6,1.8,1.6c0.9,0,1.7-0.6,1.7-1.6c0-1.1-0.8-1.6-1.7-1.6c-0.6,0-1.1,0.2-1.4,0.6
				c-0.4-0.2-0.8-0.3-1.2-0.5l1-3.9h4.1v1.1H7l-0.6,2.2c0.3-0.4,1-0.6,1.6-0.6c1.5,0,2.6,1,2.6,2.6c0,1.5-1.1,2.7-2.9,2.7
				c-1.7,0-2.8-1.1-2.9-2.3L6,178.8z"/>
			<path fill="#58595B" d="M13.5,173.4c1,0,1.9,0.8,1.9,1.9c0,1.1-0.9,1.9-1.9,1.9c-1,0-1.9-0.8-1.9-1.9
				C11.6,174.2,12.5,173.4,13.5,173.4z M12.5,181.2l5.6-7.8h1.1l-5.6,7.8H12.5z M13.5,176.2c0.5,0,0.9-0.4,0.9-0.9
				c0-0.5-0.4-0.9-0.9-0.9c-0.5,0-0.9,0.4-0.9,0.9C12.6,175.8,13,176.2,13.5,176.2z M18.2,177.5c1,0,1.9,0.8,1.9,1.9
				c0,1.1-0.9,1.9-1.9,1.9s-1.9-0.8-1.9-1.9C16.3,178.4,17.2,177.5,18.2,177.5z M18.2,180.4c0.5,0,0.9-0.4,0.9-0.9
				c0-0.5-0.4-0.9-0.9-0.9c-0.5,0-0.9,0.4-0.9,0.9C17.3,180,17.7,180.4,18.2,180.4z"/>
		</g>
		<g>
			<path fill="#58595B" d="M0.7,225.3c0-0.1,0-0.2,0-0.3c0-1.3,1-2.5,2.7-2.5c1.7,0,2.6,1.1,2.6,2.4c0,1-0.6,1.8-1.5,2.4l-1.5,1
				c-0.4,0.3-0.8,0.6-0.9,1.1h4v1.1H0.6c0-1.3,0.5-2.2,1.8-3.1l1.3-0.8c0.7-0.5,1.1-1,1.1-1.6c0-0.7-0.5-1.4-1.5-1.4
				c-1,0-1.5,0.7-1.5,1.6c0,0.1,0,0.2,0,0.3L0.7,225.3z"/>
			<path fill="#58595B" d="M7.9,223.8c0.5-0.8,1.3-1.2,2.4-1.2s1.9,0.5,2.4,1.2c0.5,0.8,0.7,1.8,0.7,2.8c0,1.1-0.2,2.1-0.7,2.8
				c-0.5,0.8-1.3,1.2-2.4,1.2s-1.9-0.5-2.4-1.2c-0.5-0.8-0.7-1.8-0.7-2.8C7.2,225.5,7.3,224.5,7.9,223.8z M9,229.1
				c0.3,0.3,0.7,0.5,1.2,0.5s0.9-0.2,1.2-0.5c0.5-0.5,0.7-1.3,0.7-2.5s-0.2-2-0.7-2.5c-0.3-0.3-0.7-0.5-1.2-0.5s-0.9,0.2-1.2,0.5
				c-0.5,0.5-0.7,1.3-0.7,2.5S8.5,228.6,9,229.1z"/>
			<path fill="#58595B" d="M16.3,222.6c1,0,1.9,0.8,1.9,1.9c0,1.1-0.9,1.9-1.9,1.9c-1,0-1.9-0.8-1.9-1.9
				C14.3,223.4,15.2,222.6,16.3,222.6z M15.3,230.5l5.6-7.8H22l-5.6,7.8H15.3z M16.3,225.4c0.5,0,0.9-0.4,0.9-0.9
				c0-0.5-0.4-0.9-0.9-0.9c-0.5,0-0.9,0.4-0.9,0.9C15.3,225,15.8,225.4,16.3,225.4z M21,226.8c1,0,1.9,0.8,1.9,1.9
				c0,1.1-0.9,1.9-1.9,1.9s-1.9-0.8-1.9-1.9C19.1,227.6,20,226.8,21,226.8z M21,229.6c0.5,0,0.9-0.4,0.9-0.9c0-0.5-0.4-0.9-0.9-0.9
				c-0.5,0-0.9,0.4-0.9,0.9C20.1,229.2,20.5,229.6,21,229.6z"/>
		</g>
		<line fill="none" stroke="#414042" stroke-width="0.1702" stroke-miterlimit="10" x1="271.1" y1="230.6" x2="271.1" y2="224.3"/>
		<line fill="none" stroke="#414042" stroke-width="0.1702" stroke-miterlimit="10" x1="207.9" y1="230.6" x2="207.9" y2="224.3"/>
		<line fill="none" stroke="#414042" stroke-width="0.1702" stroke-miterlimit="10" x1="144.8" y1="230.6" x2="144.8" y2="224.3"/>
		<line fill="none" stroke="#414042" stroke-width="0.1702" stroke-miterlimit="10" x1="81.6" y1="230.6" x2="81.6" y2="224.3"/>
		<line fill="none" stroke="#414042" stroke-width="0.1702" stroke-miterlimit="10" x1="334.3" y1="230.6" x2="334.3" y2="224.3"/>
		<g>
			<path fill="#58595B" d="M70.7,240.3c0-0.1,0-0.2,0-0.3c0-1.1,0.8-2.1,2.2-2.1c1.4,0,2.2,0.9,2.2,2c0,0.8-0.5,1.5-1.2,2l-1.3,0.8
				c-0.4,0.2-0.7,0.5-0.8,0.9h3.3v0.9h-4.5c0-1.1,0.4-1.9,1.5-2.6l1.1-0.7c0.6-0.4,0.9-0.8,0.9-1.3c0-0.6-0.4-1.1-1.2-1.1
				c-0.8,0-1.2,0.6-1.2,1.3c0,0.1,0,0.2,0,0.3L70.7,240.3z"/>
			<path fill="#58595B" d="M76.7,238.9c0.4-0.6,1.1-1,2-1s1.6,0.4,2,1c0.4,0.6,0.6,1.5,0.6,2.3c0,0.9-0.1,1.7-0.6,2.3
				c-0.4,0.6-1.1,1-2,1s-1.6-0.4-2-1c-0.4-0.6-0.6-1.5-0.6-2.3C76.1,240.4,76.3,239.6,76.7,238.9z M77.6,243.4
				c0.3,0.3,0.6,0.4,1,0.4s0.8-0.2,1-0.4c0.4-0.4,0.6-1.1,0.6-2.1c0-1-0.2-1.7-0.6-2.1c-0.3-0.3-0.6-0.4-1-0.4s-0.8,0.2-1,0.4
				c-0.4,0.4-0.6,1.1-0.6,2.1C77.1,242.3,77.3,243,77.6,243.4z"/>
			<path fill="#58595B" d="M83.5,244.5V240h-1.6v-0.7c0.9,0,1.5-0.5,1.7-1.2h0.9v6.5H83.5z"/>
			<path fill="#58595B" d="M85.7,240.3c0-0.1,0-0.2,0-0.3c0-1.1,0.8-2.1,2.2-2.1c1.4,0,2.2,0.9,2.2,2c0,0.8-0.5,1.5-1.2,2l-1.3,0.8
				c-0.4,0.2-0.7,0.5-0.8,0.9h3.3v0.9h-4.5c0-1.1,0.4-1.9,1.5-2.6l1.1-0.7c0.6-0.4,0.9-0.8,0.9-1.3c0-0.6-0.4-1.1-1.2-1.1
				c-0.8,0-1.2,0.6-1.2,1.3c0,0.1,0,0.2,0,0.3L85.7,240.3z"/>
		</g>
		<g>
			<path fill="#58595B" d="M133.9,240.3c0-0.1,0-0.2,0-0.3c0-1.1,0.8-2.1,2.2-2.1c1.4,0,2.2,0.9,2.2,2c0,0.8-0.5,1.5-1.2,2l-1.3,0.8
				c-0.4,0.2-0.7,0.5-0.8,0.9h3.3v0.9h-4.5c0-1.1,0.4-1.9,1.5-2.6l1.1-0.7c0.6-0.4,0.9-0.8,0.9-1.3c0-0.6-0.4-1.1-1.2-1.1
				c-0.8,0-1.2,0.6-1.2,1.3c0,0.1,0,0.2,0,0.3L133.9,240.3z"/>
			<path fill="#58595B" d="M139.8,238.9c0.4-0.6,1.1-1,2-1c0.9,0,1.6,0.4,2,1c0.4,0.6,0.6,1.5,0.6,2.3c0,0.9-0.1,1.7-0.6,2.3
				c-0.4,0.6-1.1,1-2,1c-0.9,0-1.6-0.4-2-1c-0.4-0.6-0.6-1.5-0.6-2.3C139.2,240.4,139.4,239.6,139.8,238.9z M140.8,243.4
				c0.3,0.3,0.6,0.4,1,0.4c0.5,0,0.8-0.2,1-0.4c0.4-0.4,0.6-1.1,0.6-2.1c0-1-0.2-1.7-0.6-2.1c-0.3-0.3-0.6-0.4-1-0.4
				c-0.5,0-0.8,0.2-1,0.4c-0.4,0.4-0.6,1.1-0.6,2.1C140.2,242.3,140.4,243,140.8,243.4z"/>
			<path fill="#58595B" d="M146.6,244.5V240h-1.6v-0.7c0.9,0,1.5-0.5,1.7-1.2h0.9v6.5H146.6z"/>
			<path fill="#58595B" d="M150.1,240.7l1.9-1.8h-3.1V238h4.4v0.9l-1.8,1.7c1,0,2,0.6,2,2c0,1.1-0.8,2.1-2.3,2.1c-1.5,0-2.3-1-2.4-2
				l1-0.2c0,0.9,0.7,1.4,1.4,1.4c0.9,0,1.4-0.5,1.4-1.2c0-0.8-0.7-1.2-1.3-1.2c-0.2,0-0.4,0-0.6,0.1L150.1,240.7z"/>
		</g>
		<g>
			<path fill="#58595B" d="M197.2,240.3c0-0.1,0-0.2,0-0.3c0-1.1,0.8-2.1,2.2-2.1c1.4,0,2.2,0.9,2.2,2c0,0.8-0.5,1.5-1.2,2l-1.3,0.8
				c-0.4,0.2-0.7,0.5-0.8,0.9h3.3v0.9h-4.5c0-1.1,0.4-1.9,1.5-2.6l1.1-0.7c0.6-0.4,0.9-0.8,0.9-1.3c0-0.6-0.4-1.1-1.2-1.1
				c-0.8,0-1.2,0.6-1.2,1.3c0,0.1,0,0.2,0,0.3L197.2,240.3z"/>
			<path fill="#58595B" d="M203.1,238.9c0.4-0.6,1.1-1,2-1c0.9,0,1.6,0.4,2,1c0.4,0.6,0.6,1.5,0.6,2.3c0,0.9-0.1,1.7-0.6,2.3
				c-0.4,0.6-1.1,1-2,1c-0.9,0-1.6-0.4-2-1c-0.4-0.6-0.6-1.5-0.6-2.3C202.5,240.4,202.7,239.6,203.1,238.9z M204.1,243.4
				c0.3,0.3,0.6,0.4,1,0.4c0.5,0,0.8-0.2,1-0.4c0.4-0.4,0.6-1.1,0.6-2.1c0-1-0.2-1.7-0.6-2.1c-0.3-0.3-0.6-0.4-1-0.4
				c-0.5,0-0.8,0.2-1,0.4c-0.4,0.4-0.6,1.1-0.6,2.1C203.5,242.3,203.7,243,204.1,243.4z"/>
			<path fill="#58595B" d="M209.9,244.5V240h-1.6v-0.7c0.9,0,1.5-0.5,1.7-1.2h0.9v6.5H209.9z"/>
			<path fill="#58595B" d="M212,241.9l2.8-3.9h1.3v4.1h1.1v0.9h-1.1v1.5h-0.9v-1.5H212V241.9z M215.2,239l-2.3,3.2h2.3V239z"/>
		</g>
		<g>
			<path fill="#58595B" d="M260.9,240.3c0-0.1,0-0.2,0-0.3c0-1.1,0.8-2.1,2.2-2.1c1.4,0,2.2,0.9,2.2,2c0,0.8-0.5,1.5-1.2,2l-1.3,0.8
				c-0.4,0.2-0.7,0.5-0.8,0.9h3.3v0.9h-4.5c0-1.1,0.4-1.9,1.5-2.6l1.1-0.7c0.6-0.4,0.9-0.8,0.9-1.3c0-0.6-0.4-1.1-1.2-1.1
				c-0.8,0-1.2,0.6-1.2,1.3c0,0.1,0,0.2,0,0.3L260.9,240.3z"/>
			<path fill="#58595B" d="M266.9,238.9c0.4-0.6,1.1-1,2-1s1.6,0.4,2,1c0.4,0.6,0.6,1.5,0.6,2.3c0,0.9-0.1,1.7-0.6,2.3
				c-0.4,0.6-1.1,1-2,1s-1.6-0.4-2-1c-0.4-0.6-0.6-1.5-0.6-2.3C266.3,240.4,266.4,239.6,266.9,238.9z M267.8,243.4
				c0.3,0.3,0.6,0.4,1,0.4s0.8-0.2,1-0.4c0.4-0.4,0.6-1.1,0.6-2.1c0-1-0.2-1.7-0.6-2.1c-0.3-0.3-0.6-0.4-1-0.4s-0.8,0.2-1,0.4
				c-0.4,0.4-0.6,1.1-0.6,2.1C267.3,242.3,267.4,243,267.8,243.4z"/>
			<path fill="#58595B" d="M273.7,244.5V240h-1.6v-0.7c0.9,0,1.5-0.5,1.7-1.2h0.9v6.5H273.7z"/>
			<path fill="#58595B" d="M276.7,242.5c0.1,0.8,0.6,1.3,1.5,1.3c0.8,0,1.4-0.5,1.4-1.3c0-0.9-0.6-1.3-1.4-1.3
				c-0.5,0-0.9,0.2-1.2,0.5c-0.3-0.1-0.6-0.3-1-0.4l0.8-3.2h3.4v0.9h-2.8l-0.5,1.9c0.3-0.3,0.8-0.5,1.3-0.5c1.3,0,2.2,0.8,2.2,2.1
				c0,1.2-0.9,2.2-2.4,2.2c-1.4,0-2.3-0.9-2.4-1.9L276.7,242.5z"/>
		</g>
		<g>
			<path fill="#58595B" d="M324.2,240.3c0-0.1,0-0.2,0-0.3c0-1.1,0.8-2.1,2.2-2.1c1.4,0,2.2,0.9,2.2,2c0,0.8-0.5,1.5-1.2,2l-1.3,0.8
				c-0.4,0.2-0.7,0.5-0.8,0.9h3.3v0.9h-4.5c0-1.1,0.4-1.9,1.5-2.6l1.1-0.7c0.6-0.4,0.9-0.8,0.9-1.3c0-0.6-0.4-1.1-1.2-1.1
				c-0.8,0-1.2,0.6-1.2,1.3c0,0.1,0,0.2,0,0.3L324.2,240.3z"/>
			<path fill="#58595B" d="M330.2,238.9c0.4-0.6,1.1-1,2-1c0.9,0,1.6,0.4,2,1c0.4,0.6,0.6,1.5,0.6,2.3c0,0.9-0.1,1.7-0.6,2.3
				c-0.4,0.6-1.1,1-2,1c-0.9,0-1.6-0.4-2-1c-0.4-0.6-0.6-1.5-0.6-2.3C329.6,240.4,329.7,239.6,330.2,238.9z M331.1,243.4
				c0.3,0.3,0.6,0.4,1,0.4c0.5,0,0.8-0.2,1-0.4c0.4-0.4,0.6-1.1,0.6-2.1c0-1-0.2-1.7-0.6-2.1c-0.3-0.3-0.6-0.4-1-0.4
				c-0.5,0-0.8,0.2-1,0.4c-0.4,0.4-0.6,1.1-0.6,2.1C330.6,242.3,330.7,243,331.1,243.4z"/>
			<path fill="#58595B" d="M337,244.5V240h-1.6v-0.7c0.9,0,1.5-0.5,1.7-1.2h0.9v6.5H337z"/>
			<path fill="#58595B" d="M343.7,239.1c-0.2-0.1-0.7-0.3-1.2-0.3c-1.3,0-2.2,1-2.3,2.3c0.3-0.4,0.8-0.8,1.7-0.8
				c1.3,0,2.2,0.8,2.2,2.2c0,1.4-1.1,2.2-2.4,2.2c-1.2,0-2.5-0.9-2.5-3c0-2.4,1.4-3.8,3.3-3.8c0.6,0,1.1,0.1,1.4,0.4L343.7,239.1z
				 M341.8,243.8c0.8,0,1.4-0.5,1.4-1.4c0-0.9-0.6-1.4-1.4-1.4c-0.7,0-1.4,0.5-1.4,1.4C340.4,243.3,341.1,243.8,341.8,243.8z"/>
		</g>
		<g>
			<rect x="207.6" y="269.5" fill="none" width="158.1" height="28.4"/>
			<path fill="#58595B" d="M210.2,272H208v-0.3h2.2V272z M210.8,276.1c-0.6,0.4-1.6,0.7-2.4,0.9c-0.1-0.1-0.2-0.2-0.3-0.3
				c0.8-0.2,1.8-0.5,2.4-0.8L210.8,276.1z M210,270.7h-1.8v-0.3h1.8V270.7z M209,272.6h5.1v3.2H209V272.6z M209.4,273.6h4.3v-0.7
				h-4.3V273.6z M209.4,274.6h4.3v-0.7h-4.3V274.6z M209.4,275.6h4.3v-0.7h-4.3V275.6z M211.5,270.7c-0.2,0.3-0.4,0.6-0.6,0.9
				c-0.1-0.1-0.2-0.2-0.3-0.2c0.4-0.4,0.7-1,0.9-1.6l0.4,0.1c-0.1,0.2-0.1,0.3-0.2,0.5h3l0.1,0l0.3,0.1c-0.2,0.4-0.4,0.8-0.6,1.1
				l-0.3-0.1c0.1-0.2,0.3-0.5,0.4-0.7h-1.5v0.1c0,0.1,0,0.2,0,0.4c0.4,0.5,1.3,0.9,2.4,1c-0.1,0.1-0.2,0.2-0.2,0.3
				c-1-0.1-1.8-0.5-2.2-1c-0.2,0.4-0.8,0.8-2.3,1.1c0-0.1-0.1-0.2-0.2-0.3c2.1-0.3,2.3-1,2.3-1.5v-0.1H211.5z M212.7,276
				c0.9,0.2,1.8,0.6,2.4,0.8l-0.3,0.2c-0.5-0.2-1.4-0.6-2.3-0.8L212.7,276z"/>
			<path fill="#58595B" d="M217,273.5c-0.2,0.9-0.5,2-0.9,2.6c0-0.1-0.2-0.3-0.2-0.4c0.3-0.5,0.7-1.5,0.8-2.3L217,273.5z
				 M217.7,272.9v4.2h-0.4v-4.2H216v-0.4h1.3v-2.7h0.4v2.7h1.4v0.4H217.7z M216.6,272.2c0-0.5-0.3-1.2-0.5-1.7l0.3-0.1
				c0.2,0.5,0.4,1.3,0.5,1.7L216.6,272.2z M218.1,273.5c0.2,0.2,0.7,1.4,0.8,1.7l-0.3,0.3c-0.1-0.4-0.6-1.5-0.8-1.8L218.1,273.5z
				 M219,270.5c-0.2,0.6-0.5,1.3-0.7,1.8l-0.3-0.1c0.2-0.5,0.5-1.2,0.6-1.8L219,270.5z M222.1,274.8v2.3h-0.4v-2.2l-2.6,0.5L219,275
				l2.7-0.5v-4.6h0.4v4.6l1-0.2l0.1,0.3L222.1,274.8z M220.6,273.7c-0.3-0.3-0.9-0.7-1.3-0.9l0.2-0.3c0.5,0.2,1.1,0.6,1.4,0.9
				L220.6,273.7z M221,271.8c-0.3-0.3-0.8-0.7-1.3-1l0.2-0.3c0.5,0.3,1,0.7,1.3,1L221,271.8z"/>
			<path fill="#58595B" d="M227.7,273.4c0.7,1.3,2.1,2.5,3.5,3c-0.1,0.1-0.2,0.2-0.3,0.3c-1.2-0.5-2.4-1.5-3.2-2.7v3h-0.4v-3
				c-0.8,1.1-2,2.1-3.2,2.6c-0.1-0.1-0.2-0.2-0.3-0.3c1.3-0.5,2.7-1.7,3.4-3v-2h-3.2V271h3.2v-1.2h0.4v1.2h3.3v0.4h-3.3V273.4z
				 M226,271.7c-0.1,0.4-0.2,0.7-0.3,1c0.4,0.3,0.8,0.7,1,1l-0.3,0.3c-0.2-0.2-0.5-0.6-0.9-0.9c-0.3,0.6-0.6,1-1.1,1.4
				c-0.1-0.1-0.2-0.2-0.3-0.2c0.7-0.6,1.2-1.4,1.5-2.5L226,271.7z M229.8,271.7c-0.1,0.4-0.2,0.7-0.3,1c0.5,0.4,1.2,1,1.5,1.3
				l-0.3,0.3c-0.3-0.3-0.9-0.9-1.4-1.3c-0.2,0.4-0.5,0.8-0.8,1.1c-0.1-0.1-0.2-0.2-0.3-0.2c0.6-0.5,1-1.3,1.2-2.3L229.8,271.7z"/>
			<path fill="#58595B" d="M233.3,273.2c-0.3-0.2-0.9-0.6-1.4-0.9l0.2-0.3c0.4,0.2,1.1,0.6,1.4,0.8L233.3,273.2z M233.7,274.4
				c-0.4,0.8-0.8,1.9-1.2,2.6l-0.3-0.2c0.4-0.6,0.9-1.7,1.3-2.6L233.7,274.4z M233.7,271.2c-0.3-0.3-0.9-0.7-1.3-0.9l0.2-0.3
				c0.4,0.3,1,0.7,1.4,0.9L233.7,271.2z M234.7,272.4c0,1.4-0.1,3.3-1.1,4.6c-0.1-0.1-0.2-0.2-0.3-0.2c0.9-1.3,1-3.1,1-4.4v-2.2h4.8
				v0.4h-4.4V272.4z M236,274.9c-0.3,0.6-0.7,1.2-1.1,1.6c-0.1,0-0.2-0.2-0.3-0.2c0.4-0.4,0.8-1,1-1.5L236,274.9z M237.2,274.3v2.3
				c0,0.2,0,0.3-0.2,0.4c-0.2,0.1-0.5,0.1-1.1,0.1c0-0.1-0.1-0.2-0.1-0.3c0.4,0,0.8,0,0.9,0c0.1,0,0.1,0,0.1-0.1v-2.3h-1.5v-2.7h1.3
				c0.1-0.3,0.2-0.6,0.2-0.9l0.4,0.1c-0.1,0.3-0.2,0.5-0.3,0.8h1.9v2.7H237.2z M235.6,272.8h2.8V272h-2.8V272.8z M235.6,274h2.8
				v-0.9h-2.8V274z M238.2,274.8c0.4,0.5,0.8,1.2,1,1.5l-0.4,0.2c-0.2-0.4-0.6-1.1-1-1.6L238.2,274.8z"/>
			<path fill="#58595B" d="M241,271.5c0-0.3,0.2-0.5,0.5-0.5s0.5,0.2,0.5,0.5c0,0.3-0.2,0.5-0.5,0.5S241,271.8,241,271.5z
				 M241,275.5c0-0.3,0.2-0.5,0.5-0.5s0.5,0.2,0.5,0.5c0,0.3-0.2,0.5-0.5,0.5S241,275.8,241,275.5z"/>
			<path fill="#58595B" d="M246.7,273c-0.1,2.7-0.1,3.6-0.3,3.9c-0.1,0.1-0.2,0.2-0.4,0.2c-0.2,0-0.5,0-0.9,0c0-0.1,0-0.3-0.1-0.4
				c0.4,0,0.7,0,0.8,0c0.1,0,0.2,0,0.3-0.1c0.1-0.2,0.2-1,0.3-3.5h-1.2c-0.1,1.6-0.3,3-1,3.9c-0.1-0.1-0.2-0.2-0.3-0.2
				c0.8-1.1,1-3.2,1-5.3h-0.9v-0.4h3.1v0.4h-1.8c0,0.4,0,0.8,0,1.2h1.5V273z M245.6,271.1c-0.1-0.3-0.3-0.7-0.4-1.1l0.3-0.1
				c0.2,0.3,0.4,0.8,0.5,1L245.6,271.1z M248,271.4c-0.2,0.5-0.5,1-0.8,1.4c-0.1-0.1-0.2-0.2-0.3-0.2c0.6-0.7,1-1.6,1.2-2.7l0.4,0.1
				c-0.1,0.4-0.2,0.8-0.3,1.1h3.1v0.4H248z M250.4,276.7c0.4,0,0.4-0.2,0.5-1c0.1,0.1,0.2,0.1,0.3,0.2c-0.1,0.9-0.2,1.2-0.8,1.2
				h-1.8c-0.7,0-0.9-0.1-0.9-0.7v-2.2l-0.6,0.3l-0.2-0.3l0.7-0.3v-1.3h0.4v1.1l0.9-0.5v-1.3h0.4v1.2l1-0.5l0.1-0.1l0.3,0.1l0,0.1
				c0,0.9-0.1,2.1-0.1,2.8l-0.3-0.1c0.1-0.6,0.1-1.6,0.1-2.4l-1.1,0.5v2.5H249v-2.3l-0.9,0.4v2.4c0,0.3,0.1,0.4,0.5,0.4H250.4z"/>
			<path fill="#58595B" d="M252.9,275.4c-0.1,0.6-0.2,1.2-0.4,1.6c-0.1,0-0.2-0.1-0.3-0.1c0.2-0.4,0.4-1,0.4-1.5L252.9,275.4z
				 M254.5,273.7c0.3,0.4,0.6,1,0.6,1.4l-0.3,0.1c0-0.1-0.1-0.3-0.2-0.5c-2.1,0.2-2.3,0.2-2.5,0.3c0-0.1-0.1-0.2-0.1-0.3
				c0.2,0,0.4-0.2,0.6-0.4c0.2-0.1,0.5-0.5,1-0.9c-1.1,0.1-1.3,0.1-1.4,0.2c0-0.1-0.1-0.2-0.1-0.3c0.1,0,0.2-0.1,0.4-0.2
				c0.2-0.1,0.7-0.7,1-1.2l0.4,0.2c-0.3,0.5-0.7,0.9-1.1,1.2l1.1-0.1c0.2-0.2,0.4-0.4,0.5-0.6l0.3,0.2c-0.6,0.7-1.3,1.4-2,1.9
				l1.7-0.2c-0.1-0.2-0.2-0.5-0.4-0.7L254.5,273.7z M258.6,271.8h-6.1v-1.6h6.1V271.8z M254.4,270.5h-1.5v1h1.5V270.5z M253.7,275.3
				c0.2,0.4,0.3,1,0.3,1.4l-0.3,0.1c0-0.4-0.1-1-0.3-1.4L253.7,275.3z M254.5,275.2c0.2,0.4,0.5,1,0.6,1.3l-0.3,0.1
				c-0.1-0.4-0.3-0.9-0.6-1.3L254.5,275.2z M256.3,270.5h-1.6v1h1.6V270.5z M259.2,276.7H256v0.4h-0.4v-3.5
				c-0.2,0.2-0.3,0.4-0.5,0.6c-0.1-0.1-0.2-0.2-0.3-0.2c0.5-0.5,1-1.3,1.3-2.1l0.4,0.1c-0.1,0.3-0.3,0.7-0.5,1h1.5
				c-0.1-0.3-0.3-0.6-0.4-0.9l0.3-0.1c0.2,0.3,0.4,0.7,0.5,1h1.2v0.3h-1.4v0.8h1.2v0.3h-1.2v0.8h1.2v0.3h-1.2v0.8h1.5V276.7z
				 M257.3,273.3H256v0.8h1.3V273.3z M257.3,274.4H256v0.8h1.3V274.4z M256,276.4h1.3v-0.8H256V276.4z M258.3,270.5h-1.6v1h1.6
				V270.5z"/>
			<path fill="#58595B" d="M262.1,271.7c-0.2,0.4-0.4,0.7-0.7,1.1v4.3H261v-3.8c-0.3,0.4-0.6,0.8-1,1.1c0-0.1-0.2-0.2-0.3-0.3
				c0.7-0.6,1.4-1.6,1.9-2.5L262.1,271.7z M262,270c-0.5,0.6-1.2,1.4-1.9,1.9c0-0.1-0.1-0.2-0.2-0.3c0.6-0.5,1.3-1.2,1.7-1.7
				L262,270z M261.8,276.6c0.3-0.4,0.6-1,0.8-1.5l0.3,0.1c-0.2,0.5-0.4,1.1-0.8,1.6L261.8,276.6z M267.2,274.1v0.3h-5.1v-0.3H267.2z
				 M264.2,271.6c0-0.2,0.1-0.4,0.1-0.7h-2.2v-0.3h2.2c0-0.3,0.1-0.5,0.1-0.7l0.4,0c0,0.2-0.1,0.5-0.1,0.7h2.4v0.3h-2.5
				c0,0.2-0.1,0.5-0.1,0.7h2.3v1.9h-4.3v-1.9H264.2z M263.8,271.9h-1v1.3h1V271.9z M265.3,276.6c0.3,0,0.3-0.1,0.3-0.8
				c0.1,0.1,0.2,0.1,0.3,0.1c0,0.8-0.2,1-0.6,1H264c-0.6,0-0.7-0.1-0.7-0.5v-1.3h0.4v1.3c0,0.2,0.1,0.2,0.4,0.2H265.3z M264.4,274.6
				c0.2,0.3,0.5,0.8,0.6,1l-0.3,0.2c-0.1-0.3-0.4-0.7-0.6-1.1L264.4,274.6z M265.1,271.9h-1v1.3h1V271.9z M265.4,273.2h1v-1.3h-1
				V273.2z M266.4,275c0.3,0.5,0.6,1.1,0.8,1.5l-0.3,0.2c-0.2-0.4-0.5-1.1-0.8-1.6L266.4,275z"/>
			<path fill="#58595B" d="M268.8,274.6c0.6-0.3,1-0.7,1-1.3c-0.1,0-0.1,0-0.2,0c-0.3,0-0.5-0.2-0.5-0.5s0.2-0.5,0.5-0.5
				c0.4,0,0.6,0.3,0.6,0.8c0,0.8-0.5,1.4-1.3,1.7L268.8,274.6z"/>
			<path fill="#58595B" d="M272.6,275c-0.1,0.7-0.3,1.4-0.4,1.9c-0.1,0-0.2-0.1-0.3-0.1c0.2-0.5,0.3-1.2,0.4-1.9L272.6,275z
				 M274.4,274.5c0-0.1-0.1-0.3-0.1-0.4c-1.9,0.3-2.1,0.4-2.2,0.4c0-0.1-0.1-0.3-0.1-0.4c0.2,0,0.3-0.2,0.6-0.5
				c0.1-0.2,0.5-0.6,0.8-1c-1,0.1-1.2,0.2-1.3,0.2c0-0.1-0.1-0.3-0.1-0.4c0.1,0,0.3-0.2,0.4-0.4c0.2-0.2,0.8-1.2,1.2-2.1l0.4,0.2
				c-0.4,0.8-0.9,1.7-1.4,2.3l1.1-0.1c0.2-0.4,0.5-0.7,0.7-1.1l0.4,0.2c-0.6,1-1.2,2-1.9,2.7l1.6-0.2c-0.1-0.3-0.2-0.6-0.3-0.9
				l0.3-0.1c0.2,0.5,0.5,1.2,0.6,1.6L274.4,274.5z M273.4,274.9c0.1,0.5,0.2,1.2,0.2,1.7l-0.3,0.1c0-0.5-0.1-1.2-0.2-1.7
				L273.4,274.9z M274.5,276.3c-0.1-0.4-0.3-1-0.5-1.5l0.3-0.1c0.2,0.5,0.4,1.1,0.5,1.5L274.5,276.3z M278.6,276.6
				c0.2,0,0.2-0.1,0.2-1c0.1,0.1,0.2,0.1,0.4,0.2c0,1-0.1,1.2-0.6,1.2h-0.8c-0.5,0-0.6-0.1-0.6-0.6v-3l-0.9,0.1
				c-0.1,2-0.3,3.1-1.8,3.7c0-0.1-0.2-0.2-0.3-0.3c1.4-0.5,1.6-1.5,1.6-3.3c-0.7,0.1-0.8,0.1-0.9,0.2c0-0.1-0.1-0.3-0.1-0.4
				c0.1,0,0.3-0.3,0.5-0.6c0.1-0.2,0.5-0.7,0.8-1.4h-1.3v-0.4h1.5c0.2-0.3,0.3-0.7,0.5-1l0.4,0.1c-0.1,0.3-0.3,0.6-0.4,0.9h2.2v0.4
				h-2.4c-0.4,0.7-0.8,1.3-1.2,1.9l2.8-0.3c-0.2-0.4-0.4-0.7-0.6-1l0.3-0.1c0.4,0.6,0.9,1.4,1.2,1.9l-0.4,0.2
				c-0.1-0.2-0.2-0.4-0.3-0.6l-0.8,0.1v3.1c0,0.2,0,0.2,0.2,0.2H278.6z"/>
			<path fill="#58595B" d="M283.4,271.6h-3.3v-0.3h3.3V271.6z M280.5,272.2h2.6v0.3h-2.6V272.2z M283,273.6h-2.5v-0.3h2.5V273.6z
				 M283,276.6h-2.1v0.4h-0.3v-2.7h2.5V276.6z M280.9,274.7v1.6h1.8v-1.6H280.9z M281.7,271c-0.1-0.3-0.4-0.7-0.6-1l0.3-0.2
				c0.2,0.3,0.5,0.7,0.6,1L281.7,271z M287.1,273.1h-1.7v4H285v-4h-1.7v-0.4h1.7V270h0.4v2.7h1.7V273.1z"/>
			<path fill="#58595B" d="M289.1,276.4v0.5h-0.4v-3c-0.2,0.2-0.3,0.4-0.5,0.6c-0.1-0.1-0.2-0.2-0.3-0.2c0.5-0.5,1-1.2,1.3-1.9
				l0.3,0.1c-0.1,0.3-0.2,0.5-0.4,0.8h1.4c-0.1-0.2-0.3-0.5-0.4-0.8l0.3-0.1c0.2,0.2,0.4,0.6,0.5,0.8l-0.1,0.1h1.3v0.3h-1.3v0.6h1.2
				v0.3h-1.2v0.7h1.2v0.3h-1.2v0.7h1.3v0.3H289.1z M294.7,272.9c-0.3,0.9-0.7,1.8-1.2,2.6c0.3,0.7,0.6,1.1,1,1.1
				c0.2,0,0.3-0.4,0.4-1.4c0.1,0.1,0.2,0.2,0.3,0.2c-0.1,1.2-0.2,1.6-0.7,1.6c-0.5,0-0.9-0.4-1.2-1.2c-0.4,0.5-0.8,0.9-1.3,1.3
				c-0.1-0.1-0.2-0.2-0.3-0.3c0.6-0.4,1-0.9,1.5-1.4c-0.3-0.8-0.4-1.9-0.5-3.2H288v-0.4h1.9V271h-1.6v-0.3h1.6v-0.8h0.4v0.8h1.6v0.3
				h-1.6v0.8h2.2c0-0.6-0.1-1.3-0.1-2h0.4c0,0.7,0,1.4,0.1,2h2.2v0.4h-2.2c0.1,1.1,0.2,2.1,0.4,2.8c0.4-0.7,0.8-1.4,1-2.2
				L294.7,272.9z M290.4,273.5h-1.3v0.6h1.3V273.5z M290.4,274.5h-1.3v0.7h1.3V274.5z M290.4,275.4h-1.3v0.7h1.3V275.4z
				 M294.6,271.4c-0.3-0.3-0.8-0.8-1.2-1.2l0.3-0.2c0.5,0.3,1,0.8,1.3,1.1L294.6,271.4z"/>
			<path fill="#58595B" d="M303.1,276.4v0.4H296v-0.4h3.3v-1.7h-2.6v-0.4h2.6v-1.2h0.4v1.2h2.7v0.4h-2.7v1.7H303.1z M302.4,273.3
				c-0.1-0.2-0.3-0.4-0.5-0.6c-4.5,0.2-4.9,0.2-5.1,0.3c0-0.1-0.1-0.3-0.1-0.4c0.2,0,0.3-0.2,0.6-0.4c0.2-0.2,0.9-0.9,1.4-1.6h-2.3
				v-0.4h6.6v0.4H299c-0.6,0.7-1.2,1.4-1.7,1.9l4.2-0.2c-0.4-0.3-0.8-0.7-1.1-1l0.3-0.2c0.7,0.5,1.6,1.3,2,1.8L302.4,273.3z"/>
			<path fill="#58595B" d="M303.9,276.2c2-1.7,2.8-2.9,2.8-4c0-0.7-0.4-1.3-1.2-1.3c-0.5,0-1,0.3-1.3,0.7l-0.3-0.3
				c0.4-0.5,0.9-0.8,1.6-0.8c1,0,1.6,0.7,1.6,1.7c0,1.2-0.9,2.4-2.5,3.9c0.3,0,0.7,0,1,0h1.8v0.4h-3.5V276.2z"/>
			<path fill="#58595B" d="M308.3,273.6c0-2,0.7-3,1.7-3c1.1,0,1.7,1,1.7,3c0,2-0.7,3-1.7,3C308.9,276.6,308.3,275.6,308.3,273.6z
				 M311.2,273.6c0-1.7-0.5-2.6-1.2-2.6c-0.8,0-1.3,0.9-1.3,2.6c0,1.8,0.5,2.6,1.3,2.6C310.7,276.2,311.2,275.3,311.2,273.6z"/>
			<path fill="#58595B" d="M312.8,276.1h1.3v-4.7h-1V271c0.5-0.1,0.8-0.2,1.1-0.4h0.4v5.4h1.2v0.4h-3V276.1z"/>
			<path fill="#58595B" d="M316.8,273.6c0-2,0.7-3,1.7-3c1.1,0,1.7,1,1.7,3c0,2-0.7,3-1.7,3C317.5,276.6,316.8,275.6,316.8,273.6z
				 M319.8,273.6c0-1.7-0.5-2.6-1.2-2.6c-0.8,0-1.3,0.9-1.3,2.6c0,1.8,0.5,2.6,1.3,2.6C319.3,276.2,319.8,275.3,319.8,273.6z"/>
			<path fill="#58595B" d="M328.3,275.2h-3v1.9h-0.4v-1.9h-3.8v-0.4h1.4v-2.2h2.4v-1.4h-2.1c-0.4,0.6-0.8,1.2-1.3,1.7
				c-0.1-0.1-0.2-0.2-0.3-0.2c0.8-0.7,1.5-1.7,1.9-2.8l0.4,0.1c-0.1,0.3-0.3,0.6-0.4,1h4.9v0.4h-2.7v1.4h2.5v0.4h-2.5v1.8h3V275.2z
				 M324.9,274.8V273h-2v1.8H324.9z"/>
			<path fill="#58595B" d="M329.4,276.1h1.3v-4.7h-1V271c0.5-0.1,0.8-0.2,1.1-0.4h0.4v5.4h1.2v0.4h-3V276.1z"/>
			<path fill="#58595B" d="M333.4,273.6c0-2,0.7-3,1.7-3c1.1,0,1.7,1,1.7,3c0,2-0.7,3-1.7,3C334,276.6,333.4,275.6,333.4,273.6z
				 M336.3,273.6c0-1.7-0.5-2.6-1.2-2.6c-0.8,0-1.3,0.9-1.3,2.6c0,1.8,0.5,2.6,1.3,2.6C335.8,276.2,336.3,275.3,336.3,273.6z"/>
			<path fill="#58595B" d="M343.7,276.4c0,0.3-0.1,0.5-0.4,0.6c-0.3,0.1-0.8,0.1-1.7,0.1c0-0.1-0.1-0.3-0.2-0.4c0.7,0,1.4,0,1.5,0
				c0.2,0,0.2-0.1,0.2-0.2v-1.9h-4.1c-0.2,0.9-0.6,1.8-1.4,2.6c-0.1-0.1-0.2-0.2-0.3-0.3c1.3-1.2,1.5-2.9,1.5-4.2v-2.4h4.7V276.4z
				 M343.3,274.2v-1.6h-3.9v0c0,0.5,0,1-0.1,1.5H343.3z M339.4,270.7v1.6h3.9v-1.6H339.4z"/>
			<path fill="#58595B" d="M345.6,276.2c2-1.7,2.8-2.9,2.8-4c0-0.7-0.4-1.3-1.2-1.3c-0.5,0-1,0.3-1.3,0.7l-0.3-0.3
				c0.4-0.5,0.9-0.8,1.6-0.8c1,0,1.6,0.7,1.6,1.7c0,1.2-0.9,2.4-2.5,3.9c0.3,0,0.7,0,1,0h1.8v0.4h-3.5V276.2z"/>
			<path fill="#58595B" d="M349.9,273.6c0-2,0.7-3,1.7-3c1.1,0,1.7,1,1.7,3c0,2-0.7,3-1.7,3C350.6,276.6,349.9,275.6,349.9,273.6z
				 M352.9,273.6c0-1.7-0.5-2.6-1.2-2.6c-0.8,0-1.3,0.9-1.3,2.6c0,1.8,0.5,2.6,1.3,2.6C352.4,276.2,352.9,275.3,352.9,273.6z"/>
			<path fill="#58595B" d="M360.3,270.4v6.5h-0.4v-0.5h-4.2v0.5h-0.4v-6.6H360.3z M355.7,270.8v2.4h4.2v-2.4H355.7z M359.9,276.1
				v-2.5h-4.2v2.5H359.9z"/>
		</g>
	</g>
	<g>
		<g>
			<path fill="#414042" d="M3.7,8.5h2v0.8h-2v2.1H2.8V9.3H0.8V8.5h2.1v-1H1.2V3.6h1.6v-1H0.9V1.8h1.9V0.5h0.9v1.3h1.9v0.8H3.7v1h1.7
				v3.9H3.7V8.5z M2,5.2h2.5V4.3H2V5.2z M2,6.8h2.5V5.9H2V6.8z M11.6,3.9h-6V3.2h1.8c0-0.3,0.1-0.6,0.1-1H6.2V1.5h1.4
				c0-0.3,0.1-0.7,0.1-1l0.8,0.1c0,0.3-0.1,0.6-0.1,0.9h2.3v1.7h0.9V3.9z M11.7,10.2H9.5v1.3H8.7v-1.3H6.3C6.5,9.7,6.6,9,6.8,8.3H6
				V7.6h2.7V6.9H6.5V4.5H11v2.5H9.5v0.7h1.9v0.7H9.5v1.2h2.1V10.2z M7.3,6.3h2.9V5.1H7.3V6.3z M8.7,9.5V8.3H7.6
				C7.5,8.7,7.4,9.1,7.3,9.5H8.7z M8.4,2.2c0,0.3-0.1,0.7-0.1,1h1.7v-1H8.4z"/>
			<path fill="#414042" d="M23.2,1v10.5h-0.9V11h-8.2v0.4h-0.9V1H23.2z M22.3,10.3V1.8h-8.2v8.5h2.2c0-0.2-0.2-0.4-0.3-0.5
				c0.2-0.1,0.5-0.3,0.5-0.7V8.6c-0.5,0.2-1,0.4-1.5,0.5c-0.1-0.2-0.3-0.4-0.4-0.5c1-0.2,2.2-0.6,3.1-1.1h-2V5.7h5.3v1.7h-2.4
				c-0.4,0.3-0.8,0.6-1.3,0.9v1.1l1.7-0.4c0,0.2,0,0.4,0.1,0.5c-2.1,0.6-2.4,0.7-2.6,0.8H22.3z M21.7,4.7v0.6h-7V4.7H21.7z
				 M21.2,4.2h-5.9V2.3h5.9V4.2z M17,2.8h-1.1v0.9H17V2.8z M20.1,6.9V6.2h-3.8v0.7H20.1z M18.8,2.8h-1.2v0.9h1.2V2.8z M21.5,7.7
				c-0.4,0.3-0.9,0.6-1.4,0.9c0.6,0.3,1.1,0.7,1.4,0.9L21.2,10c-0.6-0.5-1.9-1.3-2.9-1.9l0.4-0.4c0.3,0.2,0.6,0.4,1,0.6
				c0.5-0.3,1-0.6,1.3-0.9L21.5,7.7z M20.6,2.8h-1.2v0.9h1.2V2.8z"/>
			<path fill="#414042" d="M35.6,7.8v0.8H24.8V7.8H26l-0.2-6.3c0.7-0.3,1.6-0.6,2.2-0.9l0.4,0.7c-0.6,0.2-1.2,0.5-1.8,0.6l0,1.4h1.6
				v0.8h-1.6l0,1.5h1.6v0.8h-1.5l0,1.5h6.8c0-0.4,0.1-0.9,0.1-1.4h-1.6V5.7h1.6c0-0.5,0-1,0.1-1.5h-1.6V3.4h1.6c0-0.5,0-1,0-1.5
				h-1.7V1.1h2.5c0,2.1-0.1,4.9-0.2,6.7H35.6z M29.1,9.4c-1,0.7-2.4,1.5-3.6,2.1c-0.1-0.2-0.4-0.5-0.5-0.7c1.1-0.5,2.6-1.3,3.3-1.9
				L29.1,9.4z M30,5.1c-0.1,0.8-0.4,1.7-0.7,2.2c-0.1-0.1-0.4-0.3-0.6-0.4c0.4-0.5,0.6-1.2,0.7-2L30,5.1z M30.8,4.5h-1.9V0.6h0.8
				v1.1h2v0.8h-2v1.3h1.6v0h0.3v3.2c0,0.4-0.1,0.5-0.3,0.6C31,7.7,30.6,7.7,30,7.7c0-0.2-0.1-0.4-0.2-0.6c0.4,0,0.8,0,0.9,0
				c0.1,0,0.2,0,0.2-0.2V4.5z M31.9,8.8c1.3,0.6,2.6,1.3,3.5,1.9l-0.6,0.7c-0.8-0.6-2.1-1.4-3.4-2L31.9,8.8z"/>
			<path fill="#414042" d="M42.7,0.6c0,0.4,0,1-0.1,1.7c0.2,1.4,0.9,6.4,5.1,8.3c-0.3,0.2-0.5,0.5-0.6,0.8c-3-1.4-4.3-4.4-4.9-6.6
				c-0.6,2.4-1.8,5.1-4.7,6.6c-0.2-0.2-0.4-0.5-0.7-0.7c5-2.5,4.9-8.3,4.9-10.2H42.7z"/>
			<path fill="#414042" d="M55.5,7.3c0.6,1.9,1.7,3.2,2.8,3.2c0.3,0,0.5-0.5,0.6-1.8c0.2,0.2,0.5,0.3,0.8,0.4
				c-0.1,1.8-0.5,2.2-1.4,2.2c-1.6,0-3-1.7-3.7-4.1H51v3l2.9-0.7c0,0.2,0,0.6,0.1,0.8c-3.3,0.9-3.7,1-4,1.2
				c-0.1-0.2-0.3-0.6-0.4-0.8c0.2-0.1,0.5-0.4,0.5-0.9V1.1h8.5v3.5H55c0,0.6,0.1,1.2,0.3,1.8h4.1v0.8H55.5z M51,2v1.8h6.7V2H51z
				 M54.4,6.4c-0.1-0.6-0.2-1.2-0.2-1.8H51v1.8H54.4z"/>
			<path fill="#414042" d="M70.9,2.5c-0.3,0.9-0.7,1.7-1.3,2.3c0.6,0.6,1.3,1,2.1,1.2c-0.2,0.1-0.4,0.4-0.5,0.6
				c-0.8-0.3-1.5-0.8-2.2-1.4c-0.6,0.5-1.3,0.9-2.1,1.2c-0.1-0.2-0.3-0.5-0.5-0.7c0.8-0.3,1.5-0.6,2.1-1.1c-0.4-0.5-0.7-1-1-1.6
				c-0.2,0.3-0.4,0.5-0.7,0.7c-0.1-0.1-0.4-0.4-0.6-0.5v3.1h-0.7V3.1h-1.5v3.4h-0.6V3.1H62v3.5h-0.7V2.5h2.1v-2h0.8v2h2.1v0.7
				c0.8-0.6,1.4-1.6,1.7-2.7l0.8,0.2c-0.1,0.4-0.2,0.7-0.4,1.1h3.3v0.7H70.9z M62.2,2.5c-0.1-0.4-0.5-1-0.8-1.4L62,0.8
				c0.3,0.4,0.7,0.9,0.8,1.3L62.2,2.5z M70.5,9.9c0,0.5-0.1,0.7-0.5,0.8c-0.4,0.1-1,0.1-2,0.1c0-0.2-0.2-0.5-0.3-0.7
				c0.8,0,1.5,0,1.7,0c0.2,0,0.3-0.1,0.3-0.2V8.1h-3v3.4h-0.9V8.1H63v2.8h-0.9V7.3h3.6V6.5h0.9v0.7h3.9V9.9z M63.1,3.7
				c-0.1,0.7-0.3,1.5-0.6,2c-0.1-0.1-0.3-0.2-0.5-0.2c0.3-0.5,0.4-1.2,0.5-1.8L63.1,3.7z M64.9,3.5c0.3,0.6,0.5,1.4,0.5,1.9
				l-0.5,0.1c0-0.5-0.3-1.3-0.5-1.9L64.9,3.5z M66.4,1c-0.3,0.5-0.7,1.1-1,1.4l-0.5-0.2c0.3-0.4,0.6-1,0.8-1.5L66.4,1z M68,2.5
				c0.2,0.6,0.6,1.2,1,1.8c0.4-0.5,0.8-1.1,1-1.8H68z"/>
			<path fill="#414042" d="M82.6,3.3C81.1,5.5,78.5,8,76,9.5c0.1,0.1,0.2,0.1,0.3,0.2c0.8,0.5,1.7,0.6,3.1,0.6
				c1.4,0,3.2-0.1,4.3-0.2c-0.1,0.2-0.3,0.7-0.3,1c-0.9,0.1-2.9,0.1-4.1,0.1c-1.4,0-2.4-0.1-3.2-0.6c-0.5-0.3-0.9-0.7-1.1-0.7
				c-0.4,0-0.9,0.7-1.5,1.5l-0.7-0.8C73.6,9.6,74.4,9,75,9c0.1,0,0.1,0,0.2,0c2.2-1.3,4.6-3.4,5.9-5.2h-7.6V2.9h8.3l0.2-0.1
				L82.6,3.3z M78.5,2.9c-0.2-0.5-0.8-1.4-1.2-2L78,0.5c0.5,0.6,1.1,1.4,1.3,1.9L78.5,2.9z"/>
			<path fill="#414042" d="M89.1,9.7c-1.5,0.4-3,0.9-4.2,1.2L84.7,10c0.2,0,0.4-0.1,0.6-0.1V5.8H86v3.9l0.8-0.2V4.7h-1.6V1h3.6v3.6
				h-1.2v1.7h1.3v0.8h-1.3v2.1L89,8.9L89.1,9.7z M86.1,3.9h2V1.8h-2V3.9z M92.9,6.7c0.5,1.8,1.4,3.3,2.9,4c-0.2,0.2-0.5,0.5-0.6,0.7
				c-1.3-0.7-2.2-2-2.8-3.6c-0.4,1.4-1.3,2.7-3,3.7c-0.1-0.2-0.4-0.5-0.6-0.7c2-1.1,2.8-2.6,3-4.1h-2.6V5.9h2.7c0-0.5,0.1-1,0.1-1.5
				V3.5h-1.4c-0.2,0.6-0.4,1.2-0.7,1.7c-0.2-0.1-0.5-0.3-0.7-0.4C89.7,3.8,90,2.4,90.2,1L91,1.1c-0.1,0.5-0.2,1-0.3,1.5h1.2V0.6h0.9
				v2.1h2.5v0.8h-2.5v0.9c0,0.5,0,1-0.1,1.5h2.8v0.9H92.9z"/>
			<path fill="#414042" d="M101,8c0,0.3,0,0.6-0.3,0.7c-0.2,0.1-0.5,0.2-0.9,0.2c0-0.2-0.1-0.6-0.2-0.8c0.3,0,0.5,0,0.6,0
				c0.1,0,0.1,0,0.1-0.1V3.6h-0.9v7.9h-0.8V3.6h-0.9V9h-0.7V2.8h1.6V0.5h0.8v2.3h1.6V8z M107.6,1.1v0.7h-6.2V1.1H107.6z M101.5,6.4
				h6v5h-0.8v-0.4h-4.3v0.4h-0.8V6.4z M106.9,2.7v2.8h-5V2.7H106.9z M102.3,7.2v1.2h1.7V7.2H102.3z M104,10.3V9.1h-1.7v1.2H104z
				 M106.1,3.4h-3.4v1.4h3.4V3.4z M106.6,7.2h-1.8v1.2h1.8V7.2z M106.6,10.3V9.1h-1.8v1.2H106.6z"/>
		</g>
	</g>
</g>
<g>
</g>
<g>
</g>
<g>
</g>
<g>
</g>
<g>
</g>
<g>
</g>
<g>
</g>
<g>
</g>
<g>
</g>
<g>
</g>
<g>
</g>
<g>
</g>
<g>
</g>
<g>
</g>
<g>
</g>
</svg>
