<?xml version="1.0" encoding="utf-8"?>
<!-- Generator: Adobe Illustrator 18.0.0, SVG Export Plug-In . SVG Version: 6.00 Build 0)  -->
<!DOCTYPE svg PUBLIC "-//W3C//DTD SVG 1.1//EN" "http://www.w3.org/Graphics/SVG/1.1/DTD/svg11.dtd">
<svg version="1.1" id="Layer_1" xmlns="http://www.w3.org/2000/svg" xmlns:xlink="http://www.w3.org/1999/xlink" x="0px" y="0px"
	 viewBox="0 0 157.8 149.5" enable-background="new 0 0 157.8 149.5" xml:space="preserve">
<g>
	<g>
		<g>
			<g>
				<g>
					<defs>
						<circle id="SVGID_1_" cx="48.7" cy="115.5" r="31.3"/>
					</defs>
					<clipPath id="SVGID_2_">
						<use xlink:href="#SVGID_1_"  overflow="visible"/>
					</clipPath>
					<circle clip-path="url(#SVGID_2_)" fill="#FFFFFF" cx="48.7" cy="115.5" r="32.1"/>
					<path clip-path="url(#SVGID_2_)" fill="#2368B5" d="M50.2,84.1c1,0.1,1.9,0.2,2.9,0.4c6.4,0.9,12,3.6,16.8,8
						c5,4.6,8.2,10.2,9.5,16.8c0.4,2.1,0.6,4.2,0.8,6.3c-21.2,0-42.1,0-63.2,0c0.1-1.4,0.2-2.7,0.3-4.1c0.9-6.9,3.9-12.9,8.8-17.9
						c4.7-4.8,10.4-7.8,17-9c1.1-0.2,2.2-0.3,3.3-0.4c0.2,0,0.4-0.1,0.5-0.1C48.1,84.1,49.2,84.1,50.2,84.1z M43.7,91.2
						c-3.7-1-8,0.9-10,4.3c-2.2,3.6-1.9,8.3,0.9,11.4c2.5,2.9,6.6,3.8,9.1,3c-4.4-1.5-7.1-4.4-7.2-9.2C36.3,95.9,39,92.8,43.7,91.2z
						 M43.3,100c0.6,0.4,1.1,0.8,1.8,1.3c-0.2-0.6-0.3-1.1-0.5-1.5c-0.2-0.4-0.1-0.8,0.3-1c0.4-0.2,0.7-0.5,1.1-0.8
						c0-0.1,0-0.1-0.1-0.2c-0.5,0-0.9,0-1.4,0c-0.4,0-0.7-0.1-0.8-0.6c-0.1-0.5-0.3-0.9-0.5-1.5c-0.2,0.6-0.4,1-0.5,1.4
						c-0.1,0.5-0.4,0.8-0.9,0.7c-0.4,0-0.9,0-1.3,0c0.2,0.4,0.5,0.6,0.8,0.8c0.9,0.7,0.8,0.4,0.5,1.5c-0.1,0.3-0.2,0.7-0.3,1
						c0,0,0.1,0,0.1,0.1C42.2,100.8,42.7,100.4,43.3,100z M51.3,97.9c0,0.1,0,0.1-0.1,0.2c0.4,0.3,0.9,0.6,1.3,0.9
						c0.1,0.1,0.2,0.4,0.2,0.6c-0.1,0.5-0.3,1-0.5,1.7c0.6-0.4,1-0.7,1.5-1c0.3-0.2,0.4-0.2,0.7,0c0.4,0.3,0.8,0.6,1.3,0.9
						c0-0.6-0.2-1.1-0.3-1.5c-0.1-0.3-0.1-0.5,0.2-0.7c0.4-0.3,0.8-0.6,1.2-0.9c-0.6-0.1-1.1-0.2-1.6-0.1c-0.3,0-0.5-0.1-0.6-0.4
						c-0.1-0.5-0.3-1-0.6-1.7c-0.2,0.7-0.4,1.2-0.5,1.7c-0.1,0.3-0.3,0.5-0.6,0.4C52.3,97.9,51.8,97.9,51.3,97.9z M48.7,91.9
						c-0.1,0-0.1,0-0.2,0c-0.1,0.4-0.3,0.9-0.4,1.3c-0.1,0.5-0.4,0.6-0.8,0.6c-0.5,0-0.9,0-1.4,0c0.4,0.5,0.7,0.8,1.2,1
						c0.4,0.2,0.4,0.5,0.3,0.9c-0.2,0.5-0.3,0.9-0.5,1.6c0.4-0.3,0.7-0.5,0.9-0.6c1.1-0.8,0.7-0.8,1.7,0c0.3,0.2,0.5,0.4,0.8,0.6
						c0-0.4-0.1-0.8-0.2-1.2c-0.3-0.6-0.2-1.1,0.4-1.4c0.3-0.2,0.6-0.5,0.9-0.7c-0.6-0.1-1.1-0.1-1.5-0.1c-0.4,0-0.6-0.1-0.7-0.5
						C49,92.8,48.9,92.3,48.7,91.9z M42.7,104.1c0,0.1,0,0.1,0,0.2c0.3,0.2,0.5,0.4,0.8,0.6c0.8,0.6,0.8,0.6,0.5,1.6
						c-0.1,0.3-0.2,0.7-0.3,1c0,0,0.1,0,0.1,0.1c0.5-0.4,1.1-0.8,1.6-1.2c0.6,0.4,1.1,0.8,1.6,1.1c0-0.6-0.2-1-0.3-1.5
						c-0.1-0.3-0.1-0.6,0.2-0.8c0.4-0.3,0.8-0.6,1.2-0.9c0-0.1,0-0.1-0.1-0.2c-0.5,0-1,0-1.4,0c-0.4,0-0.6-0.1-0.7-0.5
						c-0.1-0.5-0.3-1-0.5-1.6c-0.2,0.5-0.3,0.9-0.4,1.3c-0.1,0.7-0.4,0.9-1.1,0.8C43.4,104,43,104.1,42.7,104.1z M52,102.1
						c0,0-0.1,0-0.1,0c-0.2,0.5-0.3,0.9-0.4,1.4c-0.1,0.4-0.4,0.6-0.8,0.6c-0.5,0-0.9,0-1.4,0c0.4,0.4,0.7,0.8,1.1,1
						c0.4,0.2,0.4,0.5,0.3,0.9c-0.2,0.4-0.3,0.9-0.4,1.4c0,0,0.1,0,0.1,0.1c0.5-0.4,1.1-0.8,1.6-1.1c0.6,0.4,1.1,0.8,1.8,1.3
						c-0.2-0.6-0.3-1-0.5-1.5c-0.2-0.5-0.1-0.8,0.3-1.1c0.4-0.2,0.7-0.5,1.1-0.8c0,0,0-0.1,0-0.1c-0.3,0-0.6,0-0.9,0
						c-1.3,0-1,0.2-1.4-1C52.2,102.7,52.1,102.4,52,102.1z"/>
				</g>
				<g>
					<g>
						<path fill="#0C56AB" d="M48.7,84.2c17.3,0,31.3,14,31.3,31.3c0,17.3-14,31.3-31.3,31.3c-17.3,0-31.3-14-31.3-31.3
							C17.4,98.2,31.4,84.2,48.7,84.2 M48.7,81.5c-18.8,0-34,15.3-34,34c0,18.8,15.3,34,34,34c18.8,0,34-15.3,34-34
							C82.7,96.7,67.4,81.5,48.7,81.5L48.7,81.5z"/>
					</g>
				</g>
			</g>
			<g>
				<defs>
					<circle id="SVGID_3_" cx="106.3" cy="84.1" r="51.5"/>
				</defs>
				<use xlink:href="#SVGID_3_"  overflow="visible" fill="#2368B5"/>
				<clipPath id="SVGID_4_">
					<use xlink:href="#SVGID_3_"  overflow="visible"/>
				</clipPath>
				<circle clip-path="url(#SVGID_4_)" fill="#FFFFFF" cx="106.3" cy="84.1" r="47.8"/>
				<path clip-path="url(#SVGID_4_)" fill="#2368B5" d="M153.5,94.7H59.1C58.4,91.4,58,88,58,84.5h48.3h48.3
					C154.6,88,154.2,91.4,153.5,94.7 M68.9,115c-2.5-3.1-4.7-6.5-6.4-10.2h87.6c-1.7,3.7-3.9,7.1-6.4,10.2H68.9 M106.3,64.1h43.8
					c1.5,3.2,2.7,6.6,3.4,10.2h-47.2L106.3,64.1 M100.7,66.4l-3.1-1l1.6,2.8L97,65.9l0.3,3.3l-1.1-3.1L95,69.2l0.3-3.3l-2.3,2.3
					l1.6-2.8l-3.1,1l2.7-1.8L91,64.1l3.2-0.4l-2.7-1.8l3.1,1l-1.6-2.8l2.3,2.3L95,59l1.1,3.1l1.1-3.1L97,62.3l2.3-2.3l-1.6,2.8
					l3.1-1L98,63.7l3.2,0.4L98,64.6L100.7,66.4 M85.7,73.6c2,0,3.8-0.6,5.3-1.7c-2.1,2.5-5.3,4.1-8.7,4.1c-6.4,0-11.6-5.3-11.6-11.9
					c0-6.6,5.2-11.9,11.6-11.9c3.5,0,6.6,1.6,8.7,4.1c-1.5-1.1-3.3-1.7-5.3-1.7c-5.1,0-9.3,4.3-9.3,9.5
					C76.5,69.4,80.6,73.6,85.7,73.6 M143.7,54h-37.4V43.8h25.9C136.6,46.6,140.4,50,143.7,54 M80.4,125.2h51.9
					c-7.5,4.8-16.4,7.6-25.9,7.6S87.9,130,80.4,125.2"/>
				<circle clip-path="url(#SVGID_4_)" fill="none" cx="106.3" cy="84.1" r="48.6"/>
			</g>
		</g>
	</g>
	<g>
		<circle fill="#F6A822" cx="30" cy="30" r="30"/>
		<g>
			<path fill="#032360" d="M20.3,40.4c1.3,0.8,3.8,1.6,6,1.6c7.1,0,10.8-4.3,11.1-10.6c-1.2,2.2-4.2,3.9-8.2,3.9
				c-6.1,0-11.6-4.1-11.6-11.3c0-6.9,5.6-11.7,12.7-11.7c7,0,13.3,5,13.3,15.7c0,12.2-5.8,19.4-17.2,19.4c-2.7,0-6.1-0.8-7.8-1.9
				L20.3,40.4z M30.2,17.5c-3.4,0-6.4,2.4-6.4,6.2c0,3.9,3,6.3,6.4,6.3c3.4,0,6.4-2.4,6.4-6.3C36.6,20,33.6,17.5,30.2,17.5z"/>
		</g>
	</g>
</g>
<g>
</g>
<g>
</g>
<g>
</g>
<g>
</g>
<g>
</g>
<g>
</g>
<g>
</g>
<g>
</g>
<g>
</g>
<g>
</g>
<g>
</g>
<g>
</g>
<g>
</g>
<g>
</g>
<g>
</g>
</svg>
