<?xml version="1.0" encoding="utf-8"?>
<!-- Generator: Adobe Illustrator 18.0.0, SVG Export Plug-In . SVG Version: 6.00 Build 0)  -->
<!DOCTYPE svg PUBLIC "-//W3C//DTD SVG 1.1//EN" "http://www.w3.org/Graphics/SVG/1.1/DTD/svg11.dtd">
<svg version="1.1" id="Layer_1" xmlns="http://www.w3.org/2000/svg" xmlns:xlink="http://www.w3.org/1999/xlink" x="0px" y="0px"
	 viewBox="0 0 188.7 146.4" enable-background="new 0 0 188.7 146.4" xml:space="preserve">
<g>
	<g>
		<circle fill="#007A6D" cx="29.1" cy="29.1" r="29.1"/>
		<g>
			<path fill="#FFFFFF" d="M20.5,32.7c0.3,3.5,2.8,6.1,6.6,6.1c3.4,0,6.2-2.3,6.2-5.9c0-4-3-6-6.3-6c-2.3,0-4.3,1-5.4,2.3L15.9,27
				l4-16.4h17.9v5.3H24l-2,8.2c1.4-1.5,3.9-2.3,6.2-2.3c6.5,0,11.2,4,11.2,10.9c0,6.1-4.7,11.3-12.3,11.3c-7,0-11.9-4.7-12.3-9.8
				L20.5,32.7z"/>
		</g>
	</g>
	<g>
		<g>
			<g>
				<defs>
					<circle id="SVGID_1_" cx="98.8" cy="116.4" r="27.2"/>
				</defs>
				<clipPath id="SVGID_2_">
					<use xlink:href="#SVGID_1_"  overflow="visible"/>
				</clipPath>
				<circle clip-path="url(#SVGID_2_)" fill="#FFFFFF" cx="98.9" cy="117.2" r="29.2"/>
				<g id="_x38_raAOr_8_" clip-path="url(#SVGID_2_)">
					<g>
						<path fill="#2368B5" d="M173.3,89.2c0,1.3,0,2.6,0,4c-20.4,0-40.7,0-61.1,0c0,1.4,0,2.7,0,4c0,0.1,0.3,0.3,0.4,0.3
							c1.7,0,3.3,0,5,0c9.3,0,18.5,0,27.8,0c8.3,0,16.6,0,24.9,0c1,0,1.9,0,2.9,0c0,1.4,0,2.7,0,4.1c-20.3,0-40.6,0-61,0
							c0,0.2,0,0.4,0,0.6c0,1,0,2,0,3.1c0,0.5,0.1,0.7,0.6,0.7c2.3,0,4.6,0,7,0c17.6,0,35.1,0,52.7,0c0.2,0,0.5,0,0.8,0
							c0,1.3,0,2.5,0,3.9c-20.3,0-40.6,0-61,0c0,1.4,0,2.8,0,4.3c20.3,0,40.6,0,61,0c0,1.4,0,2.7,0,4.1c-33.9,0-67.8,0-101.7,0
							c0-9.6,0-19.2,0-28.8C105.4,89.2,139.3,89.2,173.3,89.2z M107.4,91.6c0.8,0.4,0.7,1,0.5,1.7c0.7-0.7,1.3-0.7,1.9,0
							c-0.4-0.8-0.1-1.3,0.5-1.7c-0.8,0.1-1.3-0.1-1.5-1C108.6,91.3,108.2,91.7,107.4,91.6z M85.1,93.4c-0.3,0.4-0.3,0.8-0.6,0.9
							c-0.2,0.1-0.5,0.1-1,0.1c0.8,0.5,0.8,1,0.5,1.7c0.7-0.7,1.3-0.7,2,0c-0.5-0.8-0.1-1.3,0.5-1.8C85.8,94.5,85.2,94.4,85.1,93.4z
							 M78.1,93.4c-0.1,0.8-0.6,1.1-1.3,1c0.7,0.5,0.7,1.1,0.3,1.8c0.5-0.3,0.8-0.6,1.1-0.6c0.3,0,0.6,0.3,0.9,0.5
							c-0.4-0.7,0-1.2,0.6-1.7C78.6,94.3,78.6,94.3,78.1,93.4z M80.7,99.1c0.6-0.7,1.3-0.7,1.9,0c-0.5-0.8-0.1-1.3,0.5-1.7
							c-0.8,0.1-1.3-0.1-1.5-0.9c-0.2,0.8-0.6,1.1-1.4,1C81.1,97.8,81,98.4,80.7,99.1z M73.5,97.3c0.6,0.8,0.6,0.8,0.5,1.8
							c0.3-0.2,0.6-0.4,0.9-0.6c0.3,0.2,0.6,0.4,0.9,0.6c-0.4-0.8,0-1.3,0.6-1.7c-0.8,0.1-1.3-0.1-1.5-1
							C74.7,97.1,74.3,97.5,73.5,97.3z M97.2,94.5c0.8,0.4,0.6,1,0.4,1.7c0.6-0.8,1.2-0.7,1.9-0.1c-0.6-0.8-0.1-1.3,0.4-1.7
							c-0.8,0.2-1.3-0.1-1.4-1C98.2,94.4,98.2,94.4,97.2,94.5z M105.4,99.3c-0.2,0.3-0.2,0.6-0.4,0.8c-0.2,0.1-0.6,0.1-1,0.2
							c0.8,0.5,0.8,1,0.5,1.7c0.4-0.2,0.7-0.5,0.9-0.5c0.3,0,0.6,0.3,1,0.5c-0.1-0.4-0.3-0.7-0.2-1c0.1-0.3,0.4-0.5,0.7-0.8
							c-0.4,0-0.8,0.1-1,0C105.7,100,105.6,99.7,105.4,99.3z M76.9,100.2c0.7,0.5,0.7,1,0.4,1.7c0.6-0.5,1.2-0.7,1.9,0
							c-0.5-0.8,0-1.2,0.5-1.7c-0.8,0.1-1.3-0.1-1.4-1C78,99.9,77.7,100.4,76.9,100.2z M83.7,111.7c0.7,0.5,0.7,1,0.3,1.8
							c0.4-0.3,0.7-0.6,1-0.6c0.3,0,0.6,0.3,0.9,0.5c-0.4-0.7-0.1-1.2,0.6-1.7c-0.8,0.1-1.3-0.1-1.5-1
							C84.8,111.5,84.5,111.9,83.7,111.7z M106.9,94.5c-0.8,0.1-1.3-0.1-1.5-1c-0.2,0.8-0.6,1.1-1.4,1c0.8,0.4,0.7,1,0.5,1.7
							c0.6-0.7,1.2-0.6,1.9,0C106,95.4,106.2,94.9,106.9,94.5z M103.5,103.1c-0.8,0.1-1.3-0.1-1.4-1c-0.2,0.7-0.6,1.1-1.4,1
							c0.8,0.4,0.7,1,0.5,1.7c0.6-0.7,1.2-0.6,1.9-0.1C102.6,104,102.9,103.6,103.5,103.1z M81.7,102.2c-0.2,0.7-0.6,1.1-1.4,0.9
							c0.6,0.5,0.7,1,0.4,1.7c0.6-0.6,1.2-0.6,1.9,0c-0.5-0.8,0-1.2,0.5-1.7C82.3,103.2,81.8,103,81.7,102.2z M81.7,90.7
							c-0.2,0.3-0.2,0.6-0.5,0.8c-0.2,0.1-0.6,0.1-1,0.2c0.8,0.4,0.8,1,0.6,1.7c0.3-0.2,0.6-0.4,0.9-0.6c0.3,0.2,0.6,0.4,0.9,0.6
							c-0.2-0.7-0.1-1.3,0.6-1.7C82.1,91.5,82.1,91.5,81.7,90.7z M101.1,110.6c0.7-0.6,1.3-0.7,1.9,0c-0.4-0.8-0.1-1.3,0.5-1.7
							c-0.8,0.1-1.3-0.1-1.4-1c-0.2,0.4-0.3,0.8-0.5,0.9c-0.2,0.1-0.6,0.1-1,0.1C101.3,109.4,101.4,109.9,101.1,110.6z M87.1,114.7
							c0.8,0.5,0.7,1,0.5,1.7c0.6-0.7,1.3-0.6,1.9,0c-0.5-0.8-0.1-1.3,0.5-1.7c-0.8,0.1-1.3,0-1.4-1
							C88.3,114.4,87.9,114.9,87.1,114.7z M91.9,105.1c-0.2,0.7-0.6,1.1-1.4,0.9c0.6,0.5,0.7,1,0.4,1.7c0.6-0.6,1.2-0.7,1.9,0
							c-0.5-0.8,0-1.2,0.5-1.6C92.6,106,92,106,91.9,105.1z M110.3,97.3c-0.8,0.1-1.3-0.1-1.4-1c-0.2,0.8-0.6,1.1-1.4,0.9
							c0.3,0.3,0.6,0.6,0.6,0.8c0,0.3-0.1,0.6-0.2,0.9c0.7-0.5,1.3-0.7,2,0.1C109.4,98.3,109.6,97.8,110.3,97.3z M92.8,101.9
							c-0.5-0.8,0-1.2,0.6-1.6c-0.5,0-0.8,0-1.1-0.1c-0.2-0.1-0.3-0.5-0.5-1c-0.1,0.9-0.5,1.2-1.3,1.1c0.6,0.5,0.8,1,0.4,1.7
							C91.5,101.4,92.1,101.2,92.8,101.9z M89.4,110.6c-0.6-0.8,0-1.3,0.5-1.8c-0.8,0.1-1.3-0.1-1.5-0.9c-0.2,0.8-0.6,1.1-1.4,1
							c0.7,0.4,0.7,1,0.4,1.7C88.2,110,88.8,109.9,89.4,110.6z M73.9,104.8c0.6-0.5,1.2-0.6,1.9,0c-0.5-0.8,0-1.2,0.5-1.7
							c-0.8,0.2-1.3-0.1-1.5-0.9c-0.1,0.9-0.6,1-1.4,1C74.1,103.6,74.3,104.1,73.9,104.8z M87.6,104.8c0.3-0.2,0.6-0.5,0.9-0.5
							c0.3,0,0.6,0.3,1.1,0.5c-0.7-0.8-0.1-1.2,0.4-1.7c-0.8,0.1-1.3-0.1-1.4-0.9c-0.2,0.7-0.6,1.1-1.4,1
							C87.7,103.6,87.9,104.1,87.6,104.8z M87.1,97.3c0.3,0.4,0.6,0.6,0.6,0.8c0.1,0.3-0.1,0.6-0.2,0.9c0.4-0.2,0.7-0.5,0.9-0.5
							c0.3,0,0.6,0.3,0.9,0.4c-0.5-0.7,0.1-1.2,0.7-1.6c-0.5,0-0.8,0.1-1.1-0.1c-0.2-0.1-0.3-0.5-0.5-0.9
							C88.3,97.1,88,97.5,87.1,97.3z M74.9,113.7c-0.2,0.7-0.6,1.1-1.4,0.9c0.6,0.5,0.7,1,0.4,1.7c0.6-0.5,1.2-0.7,1.9,0
							c-0.5-0.8,0-1.2,0.5-1.6C75.6,114.7,75,114.6,74.9,113.7z M104,106c0.7,0.5,0.7,1,0.4,1.7c0.7-0.7,1.3-0.6,1.9,0
							c-0.5-0.8-0.1-1.3,0.5-1.7c-0.8,0.1-1.3-0.1-1.5-0.9C105.2,105.8,104.8,106.1,104,106z M90.9,96.2c0.7-0.7,1.3-0.6,2,0
							c-0.5-0.8-0.2-1.3,0.5-1.7c-0.7,0.1-1.3-0.1-1.4-1c-0.2,0.7-0.6,1.1-1.4,1C91.1,95,91.2,95.5,90.9,96.2z M105.4,110.8
							c-0.2,0.7-0.5,1.2-1.4,0.9c0.3,0.4,0.6,0.6,0.7,0.8c0.1,0.3-0.1,0.6-0.2,1.1c0.7-0.8,1.3-0.7,2-0.1c-0.4-0.8-0.1-1.3,0.6-1.7
							c-0.5,0-0.9,0.1-1.1-0.1C105.7,111.5,105.6,111.1,105.4,110.8z M91,113.4c0.3-0.2,0.6-0.5,0.9-0.5c0.3,0,0.6,0.3,0.9,0.5
							c-0.4-0.8,0-1.2,0.6-1.7c-0.5,0-0.8,0-1.1-0.1c-0.2-0.1-0.3-0.5-0.4-0.8c-0.2,0.8-0.7,1-1.4,0.9
							C91.2,112.2,91.2,112.8,91,113.4z M77.2,107.7c0.4-0.2,0.7-0.5,1-0.5c0.3,0,0.6,0.2,0.9,0.4c-0.4-0.7,0.1-1.1,0.6-1.6
							c-0.8,0.2-1.3-0.1-1.4-0.9c-0.2,0.8-0.6,1.1-1.4,1C77.6,106.5,77.6,107,77.2,107.7z M95.3,90.6c-0.2,0.7-0.5,1.2-1.4,1
							c0.7,0.5,0.7,1,0.5,1.7c0.3-0.2,0.6-0.4,0.9-0.6c0.3,0.2,0.6,0.4,0.9,0.6c-0.4-0.7,0-1.2,0.6-1.7C96,91.7,95.4,91.5,95.3,90.6
							z M96.8,97.4C96.7,97.4,96.7,97.3,96.8,97.4c-0.4-0.1-0.8,0-1-0.2c-0.2-0.1-0.3-0.5-0.4-0.8c-0.2,0.8-0.7,1-1.4,0.9
							c0.6,0.5,0.8,1,0.4,1.7c0.6-0.7,1.2-0.7,1.9-0.1C95.8,98.2,96.2,97.8,96.8,97.4z M87.1,91.6c0.7,0.5,0.7,1,0.4,1.7
							c0.7-0.7,1.3-0.6,1.9,0c-0.5-0.8-0.2-1.3,0.5-1.7c-0.8,0.1-1.3-0.1-1.5-0.9C88.3,91.4,87.9,91.7,87.1,91.6z M107.5,114.6
							c0.7,0.5,0.7,1,0.4,1.8c0.6-0.7,1.2-0.7,1.9,0c-0.5-0.8-0.1-1.3,0.5-1.7c-0.8,0.1-1.3-0.1-1.4-1
							C108.6,114.4,108.3,114.8,107.5,114.6z M73.9,93.3c0.7-0.7,1.3-0.6,1.9,0c-0.4-0.8-0.2-1.3,0.5-1.7c-0.8,0.1-1.3-0.1-1.4-1.1
							c-0.2,0.4-0.3,0.8-0.5,0.9c-0.2,0.1-0.6,0.1-1,0.1C74.2,92.1,74.3,92.6,73.9,93.3z M86.5,100.2c-0.8,0.1-1.3-0.1-1.4-1
							c-0.2,0.7-0.6,1.1-1.4,1c0.6,0.5,0.8,1,0.4,1.7c0.6-0.5,1.2-0.7,1.9,0C85.6,101.1,85.9,100.6,86.5,100.2z M83.7,106
							c0.7,0.5,0.7,1,0.3,1.7c0.5-0.3,0.7-0.6,1-0.6c0.3,0,0.6,0.3,1,0.4c-0.1-0.3-0.2-0.7-0.1-0.9c0.1-0.3,0.4-0.4,0.7-0.6
							c0-0.1,0-0.1,0-0.2c-0.8,0.3-1.3,0-1.5-0.8C84.9,105.8,84.5,106.1,83.7,106z M103,116.5c-0.1-0.5-0.3-0.8-0.2-1.1
							c0.1-0.3,0.5-0.4,0.7-0.6c0,0-0.1-0.1-0.1-0.1c-0.3,0-0.7,0.1-0.9-0.1c-0.2-0.1-0.3-0.5-0.5-0.9c-0.1,0.8-0.5,1.2-1.3,1
							c0.7,0.4,0.7,1,0.5,1.7C101.8,115.6,102.4,115.8,103,116.5z M107.9,104.9c0.6-0.8,1.3-0.6,1.9,0c-0.1-0.5-0.3-0.8-0.2-1.1
							c0.1-0.3,0.4-0.5,0.6-0.7c0,0,0-0.1,0-0.1c-0.8,0.3-1.2,0-1.4-0.9c-0.2,0.7-0.6,1.1-1.4,1
							C108.2,103.6,108.2,104.1,107.9,104.9z M100.7,91.6c0.7,0.5,0.7,1,0.4,1.7c0.6-0.7,1.3-0.6,1.9,0c-0.5-0.8-0.1-1.3,0.5-1.7
							c-0.8,0.1-1.3-0.1-1.4-1C101.8,91.3,101.5,91.8,100.7,91.6z M101,99.1c0.4-0.3,0.7-0.6,1-0.6c0.3,0,0.6,0.3,0.9,0.5
							c0.1,0,0.1,0,0.2,0c-0.6-0.8-0.1-1.2,0.4-1.7c-0.8,0.1-1.3-0.1-1.4-1c-0.2,0.7-0.6,1.1-1.4,0.9c0.3,0.4,0.6,0.6,0.7,0.9
							C101.3,98.4,101.1,98.7,101,99.1z M95.3,107.9c-0.2,0.7-0.6,1.1-1.4,1c0.7,0.5,0.7,1,0.4,1.7c0.6-0.6,1.3-0.7,1.9,0
							c-0.4-0.8-0.1-1.3,0.5-1.7C95.9,109,95.4,108.7,95.3,107.9z M97.3,111.7c0.7,0.5,0.7,1,0.4,1.7c0.7-0.7,1.3-0.7,1.9,0
							c-0.4-0.8-0.2-1.3,0.5-1.7c-0.8,0.1-1.3-0.2-1.4-1C98.5,111.5,98.1,111.8,97.3,111.7z M100.2,100.2c-0.5,0-0.9,0-1.1-0.1
							c-0.2-0.1-0.3-0.5-0.4-0.9c-0.2,0.3-0.2,0.7-0.5,0.8c-0.2,0.1-0.6,0.1-1,0.1c0.7,0.4,0.9,1,0.5,1.7c0.6-0.6,1.2-0.6,1.9-0.1
							C99.1,101.1,99.6,100.6,100.2,100.2z M96.7,103.1c-0.8,0.1-1.3-0.1-1.4-1.1c-0.2,0.4-0.3,0.8-0.5,0.9c-0.2,0.1-0.6,0.1-1,0.1
							c0.7,0.4,0.8,1,0.5,1.7c0.6-0.6,1.2-0.6,1.9-0.1C95.7,103.9,96.2,103.5,96.7,103.1z M107.5,108.9c0.7,0.5,0.7,1,0.3,1.8
							c0.4-0.3,0.7-0.6,1.1-0.6c0.3,0,0.6,0.3,0.9,0.5c-0.4-0.7-0.1-1.2,0.6-1.7c-0.8,0.2-1.3-0.1-1.4-0.9
							C108.6,108.6,108.3,109,107.5,108.9z M97.7,107.7c0.6-0.6,1.2-0.7,1.9-0.1c-0.5-0.8,0-1.2,0.5-1.6c-0.8,0.1-1.3-0.1-1.4-0.9
							c-0.2,0.7-0.6,1.1-1.4,0.9C97.8,106.7,97.8,106.7,97.7,107.7z M96.2,116.4c-0.4-0.8-0.1-1.3,0.5-1.7c-0.8,0.1-1.3-0.1-1.4-1
							c-0.6,0.9-0.6,0.9-1.5,1c0.8,0.4,0.7,1,0.5,1.7C95,115.7,95.6,115.7,96.2,116.4z M80.7,116.3c0.6-0.6,1.3-0.6,1.9,0
							c-0.1-0.4-0.2-0.7-0.1-1c0.1-0.2,0.4-0.4,0.6-0.6c-0.8,0-1.3-0.2-1.4-1c-0.2,0.7-0.6,1.2-1.4,1
							C80.9,115.1,81.1,115.6,80.7,116.3z M76.3,108.9c-0.3,0-0.7,0.1-0.9-0.1c-0.2-0.1-0.3-0.5-0.5-0.9c-0.1,0.8-0.6,1.1-1.3,1
							c0.7,0.4,0.7,1,0.4,1.6c0.6-0.6,1.2-0.6,1.9-0.1C75.4,109.7,75.8,109.3,76.3,108.9z M83.2,108.8c-0.8,0.1-1.3-0.1-1.5-1
							c-0.2,0.7-0.6,1.1-1.5,0.9c0.3,0.4,0.6,0.6,0.7,0.8c0.1,0.3-0.1,0.6-0.2,0.8c0.6-0.5,1.2-0.6,1.9,0
							C82.2,109.7,82.6,109.3,83.2,108.8z M79.7,111.8c-0.8,0.1-1.3-0.1-1.4-1c-0.1,0.8-0.6,1.1-1.4,1c0.7,0.4,0.7,1,0.4,1.7
							c0.6-0.6,1.2-0.6,1.9-0.1C78.8,112.6,79.2,112.2,79.7,111.8z"/>
						<path fill="#2368B5" d="M173.3,138.8c0,1.3,0,2.6,0,4c-33.9,0-67.8,0-101.7,0c0-1.3,0-2.6,0-4
							C105.4,138.8,139.3,138.8,173.3,138.8z"/>
						<path fill="#2368B5" d="M71.5,134.4c0-1.3,0-2.6,0-4c33.9,0,67.8,0,101.8,0c0,0.6,0,1.3,0,1.9c0,0.7,0,1.3,0,2
							C139.4,134.4,105.5,134.4,71.5,134.4z"/>
						<path fill="#2368B5" d="M71.5,126.1c0-1.3,0-2.6,0-3.9c33.9,0,67.8,0,101.7,0c0,1.3,0,2.6,0,3.9
							C139.3,126.1,105.5,126.1,71.5,126.1z"/>
					</g>
				</g>
			</g>
			<g>
				<path fill="#0C56AB" d="M98.8,89.2c15,0,27.2,12.2,27.2,27.2s-12.2,27.2-27.2,27.2s-27.2-12.2-27.2-27.2S83.7,89.2,98.8,89.2
					 M98.8,87.1c-16.2,0-29.3,13.2-29.3,29.3s13.2,29.3,29.3,29.3s29.3-13.2,29.3-29.3S114.9,87.1,98.8,87.1L98.8,87.1z"/>
			</g>
		</g>
		<g>
			<circle fill="none" stroke="#FFFFFF" stroke-width="2.1371" stroke-miterlimit="10" cx="140.4" cy="67.1" r="44.8"/>
			<g>
				<defs>
					<circle id="SVGID_3_" cx="140.4" cy="67.1" r="44.4"/>
				</defs>
				<clipPath id="SVGID_4_">
					<use xlink:href="#SVGID_3_"  overflow="visible"/>
				</clipPath>
				<circle clip-path="url(#SVGID_4_)" fill="#FFFFFF" cx="140.4" cy="67.1" r="46.2"/>
			</g>
		</g>
		<polygon fill="#2368B5" points="146.8,63.1 158.6,63.1 158.6,71 145.1,71 145.1,76.3 158.4,76.3 158.4,84.4 145.1,84.4 
			145.1,95.1 135.6,95.1 135.6,84.4 122.3,84.4 122.3,76.3 135.6,76.3 135.6,71 122.2,71 122.2,63.1 132.8,63.1 120.3,39.2 
			130.2,39.2 140.4,58.7 150.6,39.2 160.4,39.2 		"/>
		<g id="GUfQnu_1_">
		</g>
		<g>
			<g>
				<path fill="#0C56AB" d="M140.4,22.4c24.7,0,44.8,20,44.8,44.8c0,24.7-20,44.8-44.8,44.8s-44.8-20-44.8-44.8
					C95.6,42.4,115.7,22.4,140.4,22.4 M140.4,18.8C113.7,18.8,92,40.5,92,67.1s21.7,48.3,48.3,48.3s48.3-21.7,48.3-48.3
					S167,18.8,140.4,18.8L140.4,18.8z"/>
			</g>
		</g>
	</g>
</g>
<g>
</g>
<g>
</g>
<g>
</g>
<g>
</g>
<g>
</g>
<g>
</g>
<g>
</g>
<g>
</g>
<g>
</g>
<g>
</g>
<g>
</g>
<g>
</g>
<g>
</g>
<g>
</g>
<g>
</g>
</svg>
