<?xml version="1.0" encoding="utf-8"?>
<!-- Generator: Adobe Illustrator 18.0.0, SVG Export Plug-In . SVG Version: 6.00 Build 0)  -->
<!DOCTYPE svg PUBLIC "-//W3C//DTD SVG 1.1//EN" "http://www.w3.org/Graphics/SVG/1.1/DTD/svg11.dtd">
<svg version="1.1" id="Layer_1" xmlns="http://www.w3.org/2000/svg" xmlns:xlink="http://www.w3.org/1999/xlink" x="0px" y="0px"
	 viewBox="0 0 313.8 453.1" enable-background="new 0 0 313.8 453.1" xml:space="preserve">
<g>
	<g>
		<g>
			<path fill="#939598" d="M200.5,337.3l2.4-72.7c0,0,3.8-1.6,9.2,0.1l-0.1,1.4"/>
			<path fill="#A7A9AC" d="M202.9,264.6c2.2,0.8,7.9,1.6,10.2,1.1l-9.5,63.8l-2.8-1.5L202.9,264.6z"/>
		</g>
		<g>
			<path fill="#939598" d="M191,329.7l-21.2-69.6c0,0,3.1-2.8,8.7-2.9l0.4,1.3"/>
			<path fill="#D1D3D4" d="M169.9,260.1c2.3,0,8-1.1,10-2.3l11.5,63.4l-3.1-0.5L169.9,260.1z"/>
		</g>
		<g>
			<path fill="#6D6E71" d="M194.3,335.2l-7.4-47.1c0,0,2.8-1.9,7.4-1.3l0.1,1.1"/>
			<path fill="#A7A9AC" d="M187,288.1c1.9,0.3,6.6,0.1,8.3-0.7l2,52.8l-2.5-0.8L187,288.1z"/>
		</g>
		<g>
			<path fill="#6D6E71" d="M202.3,336.4l13.7-45.7c0,0-2.5-2.2-7.2-2.3l-0.3,1.1"/>
			<path fill="#D1D3D4" d="M216,290.8c-1.9,0-6.6-0.8-8.2-1.8l-9.1,52l2.6-0.4L216,290.8z"/>
		</g>
		<g>
			<path fill="#939598" d="M194.5,343.3l2.4-72.7c0,0,3.8-1.6,9.2,0.1L206,272"/>
			<path fill="#D1D3D4" d="M196.9,270.6c2.2,0.8,7.9,1.6,10.2,1.1l-9.5,63.8l-2.8-1.5L196.9,270.6z"/>
		</g>
		<path fill="#2368B5" d="M199.9,314c-9.2,0-16.6,0.9-16.6,1.9l5.3,27.1c0,1,5.1,1.9,11.4,1.9s11.4-0.9,11.4-1.9l5.3-27.1
			C216.5,314.8,209.1,314,199.9,314z"/>
	</g>
	<g>
		<path fill="#231F20" d="M223.9,311.5c-7,0-12.6,4.1-12.6,9.1c0,5.1,5.6,9.1,12.6,9.1c7,0,12.6-4.1,12.6-9.1
			C236.5,315.6,230.9,311.5,223.9,311.5z M223.9,328.7c-6.2,0-11.2-3.6-11.2-8.1s5-8.1,11.2-8.1c6.2,0,11.2,3.6,11.2,8.1
			S230.1,328.7,223.9,328.7z"/>
		<g>
			<path fill="#58595B" d="M223.9,311.9c6.9,0,12.4,4,12.6,8.9c0-0.1,0-0.1,0-0.2c0-5.1-5.6-9.1-12.6-9.1c-7,0-12.6,4.1-12.6,9.1
				c0,0.1,0,0.1,0,0.2C211.5,315.9,217,311.9,223.9,311.9z"/>
			<path fill="#58595B" d="M223.9,329.1c6.2,0,11.2-3.6,11.2-8.1c0-0.1,0-0.1,0-0.2c-0.2,4.4-5.1,7.9-11.1,7.9
				c-6.1,0-11-3.5-11.1-7.9c0,0.1,0,0.1,0,0.2C212.7,325.5,217.7,329.1,223.9,329.1z"/>
		</g>
		<polygon fill="#58595B" points="201.6,342.3 204.1,318.6 242.3,318.6 242.3,342.4 		"/>
		<path fill="#231F20" d="M204.1,318.6c0,2.7,1,12,1,12h25.1c0,0-24.1-0.5-24.2-0.8C205.9,329.5,204.1,318.6,204.1,318.6z"/>
		<path fill="#58595B" d="M225.7,331.7h-5c-0.7,0-1.3-0.6-1.3-1.3l0,0c0-0.7,0.6-1.3,1.3-1.3h5c0.7,0,1.3,0.6,1.3,1.3l0,0
			C227,331.1,226.4,331.7,225.7,331.7z"/>
		<path fill="#231F20" d="M225.9,331.5h-5c-0.7,0-1.3-0.6-1.3-1.3c0-0.4,0.2-0.8,0.5-1c-0.4,0.2-0.7,0.7-0.7,1.2l0,0
			c0,0.7,0.6,1.3,1.3,1.3h5c0.3,0,0.6-0.1,0.9-0.3C226.4,331.5,226.2,331.5,225.9,331.5z"/>
		<path fill="#231F20" d="M204,327.4l-1.6,15.5c0,0,0.6-0.1,0.7-0.6C203.3,341.7,204,327.4,204,327.4z"/>
		<polygon fill="#231F20" points="205,330.6 205.3,343.6 206.7,343 205.4,329.7 		"/>
	</g>
	<g>
		<polygon fill="#231F20" points="118.3,227.6 121.4,229.8 120.6,231.2 120.2,231 116.2,238.3 116.9,231.7 116.6,230.8 		"/>
		<polygon fill="#2368B5" points="101.3,201.8 116.9,230.6 119.1,229.5 108.3,199.8 		"/>
		<g>
			
				<rect x="106.5" y="226.2" transform="matrix(-0.9798 -0.1999 0.1999 -0.9798 156.8263 592.7112)" fill="#C49A6C" width="3.6" height="124.5"/>
			<polyline fill="#808285" points="120.8,227.5 95.9,349.5 97.7,349.9 122.6,227.8 			"/>
		</g>
		<g opacity="0.7">
			
				<rect x="125.1" y="227.4" transform="matrix(-0.9938 -0.1113 0.1113 -0.9938 220.8322 591.6869)" fill="#C49A6C" width="3.6" height="124.5"/>
			<polyline fill="#808285" points="134.3,227.8 120.4,351.6 121.8,351.8 135.6,228 			"/>
		</g>
		<g opacity="0.7">
			
				<rect x="163" y="227.7" transform="matrix(0.9938 -0.1113 0.1113 0.9938 -31.2467 20.143)" fill="#C49A6C" width="3.6" height="124.5"/>
			<polyline fill="#808285" points="157.4,228.1 171.3,351.9 169.9,352.1 156,228.3 			"/>
		</g>
		<g>
			
				<rect x="181.1" y="226.2" transform="matrix(0.9798 -0.1999 0.1999 0.9798 -53.9733 42.3862)" fill="#C49A6C" width="3.6" height="124.5"/>
			<polyline fill="#808285" points="170,227.5 194.9,349.5 193.6,349.9 168.7,227.9 			"/>
			<polygon fill="#A7A9AC" points="168.8,228.6 172.5,228.4 172.9,230.4 169.4,231.5 			"/>
			<polygon fill="#A7A9AC" points="118.8,228 122.3,228.9 121.9,231.2 118.2,231.2 			"/>
			<polygon fill="#A7A9AC" points="131.8,229.7 134.8,235.6 135.5,229.1 132,229.1 			"/>
			<polygon fill="#A7A9AC" points="156.1,229.5 160.2,232.6 159.7,228.5 			"/>
		</g>
		<path fill="#C49A6C" d="M146.6,220.2c-18.9,0-34.2,1.6-34.2,3.5v2.9c0,1.9,15.3,3.5,34.2,3.5c18.9,0,34.2-1.6,34.2-3.5v-2.9
			C180.7,221.8,165.4,220.2,146.6,220.2z"/>
		<ellipse fill="#A97C50" cx="146.6" cy="223.7" rx="34.2" ry="3.5"/>
		<path fill="#808285" d="M174.3,224.4c0-0.6-12.9-1-20.6-1s-13.9,0.5-13.9,1.1c0,0.6,6.2,1.1,13.9,1.1S174.3,225,174.3,224.4z"/>
		<g>
			<path fill="#FFEBCA" d="M193.6,84.3l-20.3-14.2l-29.9,46.9l34.8,17.7C178.2,134.6,194,83.3,193.6,84.3z"/>
			<polygon fill="#1B75BC" points="168.2,87.6 161.5,102.9 155.6,98 			"/>
			<path fill="#6D6E71" d="M173.3,70.1l-3.6-6.5c0,0,22.3,5.1,25.7,11.2c4.1,7.3-5.4,21.7-5.4,21.7s1.7-4.5-0.3-5.6
				c-1.1-0.6-2.8,1.3-2.8,1.3l1-11.4L173.3,70.1z"/>
			
				<ellipse transform="matrix(0.8049 0.5934 -0.5934 0.8049 87.2382 -87.3617)" fill="#6D6E71" cx="176.5" cy="89" rx="1.7" ry="2.5"/>
			
				<ellipse transform="matrix(0.6672 0.7449 -0.7449 0.6672 124.2227 -102.385)" fill="#F1F2F2" cx="176.7" cy="87.8" rx="0.5" ry="0.7"/>
			
				<ellipse transform="matrix(0.8049 0.5934 -0.5934 0.8049 82.6206 -82.6524)" fill="#6D6E71" cx="167" cy="84.3" rx="1.7" ry="2.5"/>
			
				<ellipse transform="matrix(0.6672 0.7449 -0.7449 0.6672 117.5626 -96.7581)" fill="#F1F2F2" cx="167.1" cy="83.2" rx="0.5" ry="0.7"/>
		</g>
		<polygon fill="#2368B5" points="178.2,134.6 178.7,191.6 181.1,202.7 120.3,201.3 143.4,116.9 		"/>
		<path fill="#2368B5" d="M143.4,116.9c-11.9-4.4-26.1-26.8-24.3-41.9l-9.4-5.3c0,0-7.1,17.7-0.5,35.6c6.2,16.7,23.9,37.2,37.3,41.7
			l7.7-13.9L143.4,116.9z"/>
		<g>
			<path fill="#414042" d="M173,83.1l-47.5-22.2L33.3,1.6l0,0c-0.4-0.3-0.9-0.7-1.4-0.9C26.3-1.9,18.6,3,14.7,11.5
				c-4,8.5-2.7,17.5,2.8,20.1c0.5,0.2,152.4,58.9,152.4,58.9c2.1,0.8,4.4-0.2,5.2-2.3l0,0C175.8,86.2,174.9,84,173,83.1z"/>
			<path fill="#A7A9AC" d="M173,83.1l-47.5-22.2L33.3,1.6c-0.4-0.3-0.9-0.7-1.4-0.9C26.3-1.9,18.6,3,14.7,11.5c-1.2,2.7-2,5.4-2.2,8
				c3.9-7,10.4-10.8,15.4-8.7c0.5,0.2,1,0.5,1.5,0.9l94.2,56l48.2,20.5c0.9,0.4,1.5,1,1.9,1.7c0.6-0.4,1-1,1.3-1.7l0,0
				C175.8,86.2,174.9,84,173,83.1z"/>
			<linearGradient id="SVGID_1_" gradientUnits="userSpaceOnUse" x1="19.4115" y1="13.3366" x2="32.7774" y2="19.7325">
				<stop  offset="0" style="stop-color:#FFFFFF"/>
				<stop  offset="1" style="stop-color:#231F20"/>
			</linearGradient>
			<path fill="url(#SVGID_1_)" d="M31.9,1.5c4.8,2.5,5.4,10.9,1.3,18.8C29.1,28.2,21.9,32.5,17,30c-4.8-2.5-5.4-10.9-1.3-18.8
				C19.8,3.3,27.1-1,31.9,1.5z"/>
			<path fill="#231F20" d="M16.5,12c4.1-7.9,11.3-12.3,16.1-9.8C33,2.4,33.4,2.7,33.7,3c-0.5-0.6-1.1-1.1-1.9-1.5
				c-4.8-2.5-12,1.9-16.1,9.8c-3.7,7.2-3.6,14.9,0.2,18C12.9,25.7,13,18.7,16.5,12z"/>
			
				<ellipse transform="matrix(0.4605 -0.8877 0.8877 0.4605 -0.787 30.2073)" opacity="0.36" fill="#FFFFFF" cx="24.5" cy="15.8" rx="16.1" ry="9.8"/>
			<path opacity="0.2" fill="#FFFFFF" d="M30.7,1.4c-2.6-1-8.7,0.5-13.3,7.9c-4.6,7.4-4.4,14.1-2.9,17.9c1.5,3.8,8.2-2.8,12.2-8.7
				C28.2,16.3,36.6,3.7,30.7,1.4z"/>
			
				<ellipse transform="matrix(-0.9453 -0.3262 0.3262 -0.9453 61.0204 22.9321)" opacity="0.4" fill="#FFFFFF" cx="32.4" cy="6.4" rx="1.5" ry="2"/>
		</g>
		<polygon fill="#FFEBCA" points="109.7,69.8 115.4,52.8 126.8,59.3 119.1,75.1 		"/>
		<path fill="#2368B5" d="M178.1,199.3c-1.6,8.1-13.8,26.8-30.3,26.1c-16.5-0.7-33-15.7-44.7-15.4c-5.4,0.1,2.5,17.4,12.7,31.6
			l-4.2,2.2c0,0-40.2-39.7-21.2-55.8c9.7-8.2,38.1,7.2,38.1,7.2L178.1,199.3z"/>
		<g>
			<path fill="#C49A6C" d="M178.8,271.6c0,0.7-0.5,1.2-1.2,1.2h-63.9c-0.7,0-1.2-0.5-1.2-1.2l0,0c0-0.9,0.7-1.6,1.6-1.6h63.2
				C178.1,270,178.8,270.7,178.8,271.6L178.8,271.6z"/>
			<path fill="#808285" d="M178.8,271.6h-66.3l0,0c0-0.9,0.7-1.6,1.6-1.6h63.2C178.1,270,178.8,270.7,178.8,271.6L178.8,271.6z"/>
		</g>
		<g>
			<path fill="#917961" d="M161.6,277.7h-31.9c-0.5,0-0.9-0.4-0.9-0.9V276c0-0.6,0.5-1.1,1.1-1.1h31.3c0.6,0,1.1,0.5,1.1,1.1v0.8
				C162.5,277.3,162.1,277.7,161.6,277.7z"/>
			<path fill="#808285" d="M162.5,276.5h-33.6V276c0-0.6,0.5-1.1,1.1-1.1h31.3c0.6,0,1.1,0.5,1.1,1.1V276.5z"/>
		</g>
		<g>
			<path fill="#032360" d="M136.8,141.5c1.9,1.2,3.8,2.2,5.7,3.2c2,0.9,3.9,1.8,5.9,2.7c2,0.9,4,1.8,5.9,3c0.5,0.3,0.9,0.6,1.4,0.9
				c0.4,0.4,0.9,0.7,1.3,1.1c0.8,0.8,1.5,1.7,1.9,2.7c-0.6-0.9-1.3-1.7-2.2-2.4c-0.4-0.4-0.9-0.6-1.3-0.9c-0.5-0.3-0.9-0.5-1.4-0.8
				c-1.9-1-3.9-1.9-5.9-2.8c-2-0.9-4-1.8-5.9-3C140.2,144.3,138.4,143,136.8,141.5z"/>
		</g>
		<g>
			<path fill="#032360" d="M122.7,192.4c0.5-0.1,1,0.2,1.4,0.4c0.4,0.3,0.8,0.5,1.2,0.8c0.8,0.6,1.5,1.2,2.3,1.8
				c1.5,1.2,3,2.4,4.7,3.4c3.2,2,6.9,3.4,10.7,3.3c3.8-0.1,7.7-0.7,11.6-0.9c3.9-0.2,7.8-0.4,11.6,0.3c-1.9-0.1-3.9-0.1-5.8,0
				c-1.9,0.1-3.9,0.3-5.8,0.5l-5.8,0.7c-1.9,0.2-3.9,0.5-5.8,0.5c-4,0-7.9-1.5-11.1-3.7c-1.6-1.1-3.1-2.4-4.6-3.7
				c-0.7-0.7-1.4-1.3-2.1-2c-0.4-0.3-0.7-0.6-1.1-0.9C123.6,192.7,123.2,192.4,122.7,192.4z"/>
		</g>
		<polygon fill="#231F20" points="115.6,241.4 117.5,245.7 115.7,246.8 115.3,246.3 107.6,252.3 111.3,245 111.6,243.8 		"/>
	</g>
	<g>
		<path fill="#231F20" d="M261.8,342.2H26L0.9,367.3L0,385.5L45.1,408L72,439.3l22.5-2.6l19.9,7.8h31.2l32.1,8.7
			c0,0,85.8-32.9,88.4-32.9s23.4,12.1,26,12.1s21.7-15.6,21.7-15.6L261.8,342.2z"/>
		<linearGradient id="SVGID_2_" gradientUnits="userSpaceOnUse" x1="234.3873" y1="425.231" x2="91.3705" y2="352.088">
			<stop  offset="0" style="stop-color:#FFFFFF"/>
			<stop  offset="1" style="stop-color:#231F20"/>
		</linearGradient>
		<path fill="url(#SVGID_2_)" d="M72,439.3l22.5-2.6l19.9,7.8h31.2l32.1,8.7c0,0,85.8-32.9,88.4-32.9c2.6,0,23.4,12.1,26,12.1
			c2.6,0,21.7-15.6,21.7-15.6l-52-74.6l-74,0.3l-48.9,7.3l12.1,14.6l-7.3,20.2l-18.2,2l-6.5,12.5l-0.4,16.6l-27.5-3.2l-13.3-15
			L0,385.5L45.1,408L72,439.3z"/>
	</g>
</g>
<g>
</g>
<g>
</g>
<g>
</g>
<g>
</g>
<g>
</g>
<g>
</g>
<g>
</g>
<g>
</g>
<g>
</g>
<g>
</g>
<g>
</g>
<g>
</g>
<g>
</g>
<g>
</g>
<g>
</g>
</svg>
