<?xml version="1.0" encoding="utf-8"?>
<!-- Generator: Adobe Illustrator 18.0.0, SVG Export Plug-In . SVG Version: 6.00 Build 0)  -->
<!DOCTYPE svg PUBLIC "-//W3C//DTD SVG 1.1//EN" "http://www.w3.org/Graphics/SVG/1.1/DTD/svg11.dtd">
<svg version="1.1" id="Layer_1" xmlns="http://www.w3.org/2000/svg" xmlns:xlink="http://www.w3.org/1999/xlink" x="0px" y="0px"
	 viewBox="0 0 150.9 188" enable-background="new 0 0 150.9 188" xml:space="preserve">
<g>
	<g>
		<g>
			<g>
				<polygon fill="#2368B5" points="53.6,48.3 51.4,45.9 72.1,27.1 83.8,38.9 102.4,18.9 115.7,30.9 147.7,1 149.9,3.4 115.8,35.2 
					102.6,23.4 83.9,43.4 72,31.5 				"/>
				<polygon fill="#2368B5" points="150.9,14.4 147.7,14.4 147.7,3.2 133.4,3.2 133.4,0 150.9,0 				"/>
			</g>
			<defs>
				<filter id="Adobe_OpacityMaskFilter" filterUnits="userSpaceOnUse" x="52.9" y="3.4" width="91.7" height="94">
					<feColorMatrix  type="matrix" values="1 0 0 0 0  0 1 0 0 0  0 0 1 0 0  0 0 0 1 0"/>
				</filter>
			</defs>
			<mask maskUnits="userSpaceOnUse" x="52.9" y="3.4" width="91.7" height="94" id="SVGID_1_">
				<g filter="url(#Adobe_OpacityMaskFilter)">
					<g>
						<path fill="#FFFFFF" d="M101.4,46.3c13.6,0,26.3,5.3,35.8,14.8c5,5,8.9,11,11.4,17.4V11.9l-32.4,30.2l-13.6-12.2L84.7,49.1
							C90,47.3,95.6,46.3,101.4,46.3z"/>
						<path fill="#FFFFFF" d="M50.8,96.9c0-13.6,5.2-26.3,14.8-35.8c4.9-4.9,10.7-8.7,17-11.2L71.1,38.3L52.6,55l-3.7,42.6h1.9
							C50.8,97.4,50.8,97.2,50.8,96.9z"/>
					</g>
				</g>
			</mask>
			<g mask="url(#SVGID_1_)">
				<rect x="52.9" y="20.2" fill="#2368B5" width="21.2" height="77.2"/>
				<rect x="77.7" y="20.2" fill="#2368B5" width="21.2" height="77.2"/>
				<rect x="102.6" y="20.2" fill="#2368B5" width="21.2" height="77.2"/>
				<rect x="127.4" y="3.4" fill="#2368B5" width="17.2" height="94"/>
			</g>
			<path fill="#2368B5" d="M101.3,144c-26,0-47-21.1-47-47.1c0-26.1,21-47.2,47.2-47.2c26.1,0,47.2,21.1,47.1,47.2
				C148.5,123.1,127.5,144,101.3,144z M117.1,100.3c-10.8,0-20.9,0-31.5,0c0.9,5,1.7,9.7,2.6,14.5c0.1,0.4,0.9,1,1.4,1
				c7.8,0.1,15.7,0.1,23.5,0c0.5,0,1.4-0.7,1.5-1.2C115.5,109.9,116.3,105.2,117.1,100.3z M117.1,93.1c-0.7-4.8-1.3-9.2-2.1-13.6
				c-0.1-0.6-1.1-1.4-1.7-1.5c-8-0.1-16-0.1-24,0c-0.5,0-1.5,0.5-1.5,0.8c-0.8,4.7-1.5,9.4-2.2,14.2
				C96.3,93.1,106.4,93.1,117.1,93.1z M79.3,100.3c-6.3,0-12.4,0-18.7,0c0.4,5.2,1.8,10,4,14.5c0.2,0.4,0.8,0.9,1.2,0.9
				c5.2,0.1,10.5,0,15.7,0C80.7,110.5,80,105.5,79.3,100.3z M123.5,100.3c-0.7,5.2-1.4,10.2-2.1,15.5c5.2,0,10.4,0,15.6,0
				c0.4,0,0.9-0.3,1.1-0.6c2.4-4.6,3.9-9.5,4.1-14.9C135.8,100.3,129.7,100.3,123.5,100.3z M79.3,93.1c0.6-5.1,1.3-9.9,1.9-15.1
				c-5.2,0-10.3,0-15.4,0c-0.4,0-1,0.5-1.2,0.9c-2.2,4.4-3.6,9.1-3.9,14.2C67,93.1,73.1,93.1,79.3,93.1z M142.2,93.1
				c-0.5-5.1-1.8-9.8-4-14.2c-0.2-0.4-0.9-0.9-1.3-0.9c-5.1-0.1-10.1,0-15.3,0c0.7,5.2,1.3,10.1,1.9,15.1
				C129.7,93.1,135.8,93.1,142.2,93.1z M113.1,71c-1.9-4.2-3.7-7.8-5.2-11.6c-1.1-2.9-3.1-3.5-6-3.6c-3.6-0.1-6.2,0.7-7.5,4.5
				c-1.3,3.6-3.1,7-4.7,10.8C97.6,71,105,71,113.1,71z M112.6,122.8c-7.7,0-14.8,0-22.3,0c1.5,3.4,2.8,6.6,4.2,9.7
				c2.6,5.7,3.6,6.1,9.8,5.2c0.2,0,0.5,0,0.7-0.1c0.4-0.2,0.9-0.4,1-0.8C108.2,132.3,110.3,127.7,112.6,122.8z M69.6,122.6
				c5.4,6.4,11.5,10.6,19.1,13.1c-1.6-4.2-3.1-8.1-4.6-11.9c-0.2-0.5-0.8-1.1-1.2-1.1C78.6,122.6,74.4,122.6,69.6,122.6z
				 M114.2,135.8c7.6-2.7,13.8-6.8,19-13.2c-4.7,0-8.9,0-13,0c-0.4,0-1.1,0.5-1.3,1C117.3,127.6,115.8,131.5,114.2,135.8z
				 M69.6,71.1c4.6,0,8.6,0,12.5,0c0.5,0,1.2-0.4,1.4-0.8c1.5-3.9,3-7.8,4.6-12.1C80.7,60.8,74.8,64.9,69.6,71.1z M114.8,58.2
				c1.6,4.1,3,7.9,4.5,11.6c0.2,0.5,0.7,1.2,1.1,1.2c4.1,0.1,8.3,0.1,13,0.1C128,65,122.2,60.7,114.8,58.2z"/>
		</g>
	</g>
	<g>
		<g>
			<path fill="#0C56AB" d="M9.2,176.2v-22.1H1.4V150c4.6-0.1,7.8-2.7,8.5-6.1h5.2v32.2H9.2z"/>
		</g>
	</g>
</g>
<g>
</g>
<g>
</g>
<g>
</g>
<g>
</g>
<g>
</g>
<g>
</g>
<g>
</g>
<g>
</g>
<g>
</g>
<g>
</g>
<g>
</g>
<g>
</g>
<g>
</g>
<g>
</g>
<g>
</g>
</svg>
