<?xml version="1.0" encoding="utf-8"?>
<!-- Generator: Adobe Illustrator 18.0.0, SVG Export Plug-In . SVG Version: 6.00 Build 0)  -->
<!DOCTYPE svg PUBLIC "-//W3C//DTD SVG 1.1//EN" "http://www.w3.org/Graphics/SVG/1.1/DTD/svg11.dtd">
<svg version="1.1" id="Layer_1" xmlns="http://www.w3.org/2000/svg" xmlns:xlink="http://www.w3.org/1999/xlink" x="0px" y="0px"
	 viewBox="0 0 201 228.5" enable-background="new 0 0 201 228.5" xml:space="preserve">
<g>
	<g>
		<circle fill="#C42A5E" cx="30" cy="30" r="30"/>
		<g>
			<path fill="#FFFFFF" d="M42.7,17.4c-2.8,2.3-12.3,10.8-13.8,28.2h-6.4c1.5-18.8,13.2-28.2,13.2-28.2h-18V12h25.1V17.4z"/>
		</g>
	</g>
	<g>
		<g>
			<g>
				<defs>
					<circle id="SVGID_1_" cx="71.4" cy="113.6" r="47.3"/>
				</defs>
				<clipPath id="SVGID_2_">
					<use xlink:href="#SVGID_1_"  overflow="visible"/>
				</clipPath>
				<circle clip-path="url(#SVGID_2_)" fill="#FFFFFF" cx="71.5" cy="114.9" r="50.8"/>
				<g id="_x38_raAOr_4_" clip-path="url(#SVGID_2_)">
					<g>
						<path fill="#2368B5" d="M200.9,66.2c0,2.3,0,4.6,0,7c-35.4,0-70.8,0-106.3,0c0,2.4,0,4.7,0,6.9c0,0.2,0.5,0.5,0.8,0.5
							c2.9,0,5.8,0,8.7,0c16.1,0,32.2,0,48.3,0c14.5,0,28.9,0,43.4,0c1.7,0,3.3,0,5.1,0c0,2.4,0,4.7,0,7c-35.4,0-70.7,0-106.2,0
							c0,0.4,0,0.7,0,1c0,1.8,0,3.5,0,5.3c0,0.9,0.2,1.2,1.1,1.2c4-0.1,8.1,0,12.1,0c30.6,0,61.1,0,91.7,0c0.4,0,0.9,0,1.3,0
							c0,2.3,0,4.4,0,6.7c-35.3,0-70.7,0-106.2,0c0,2.5,0,4.9,0,7.4c35.3,0,70.7,0,106.1,0c0,2.4,0,4.7,0,7.1c-59,0-117.9,0-176.9,0
							c0-16.7,0-33.4,0-50.1C83,66.2,141.9,66.2,200.9,66.2z M86.4,70.4c1.4,0.7,1.2,1.8,0.8,3c1.1-1.2,2.2-1.1,3.3,0
							c-0.7-1.3-0.3-2.2,0.8-3c-1.4,0.2-2.3-0.2-2.5-1.7C88.5,69.9,87.8,70.6,86.4,70.4z M47.6,73.5c-0.4,0.8-0.6,1.4-1,1.6
							c-0.4,0.2-1,0.1-1.8,0.2c1.4,0.8,1.4,1.8,0.9,3c1.1-1.2,2.2-1.2,3.4,0c-0.8-1.4-0.2-2.2,0.8-3C48.8,75.4,47.7,75.3,47.6,73.5z
							 M35.5,73.6c-0.2,1.5-1,1.9-2.3,1.8c1.2,0.8,1.3,1.8,0.5,3.2c0.8-0.5,1.3-1.1,1.9-1.1c0.5,0,1.1,0.6,1.6,0.9
							c-0.7-1.3-0.1-2.2,1-2.9C36.3,75.2,36.3,75.2,35.5,73.6z M40,83.4c1.1-1.2,2.2-1.2,3.4,0c-0.9-1.4-0.1-2.2,0.8-3
							c-1.4,0.2-2.2-0.2-2.5-1.6c-0.3,1.4-1.1,1.9-2.5,1.7C40.6,81.2,40.4,82.2,40,83.4z M27.3,80.3c1,1.4,1,1.4,0.8,3.2
							c0.6-0.4,1.1-0.7,1.6-1.1c0.5,0.4,1,0.7,1.5,1c-0.7-1.3,0-2.2,1-3c-1.4,0.2-2.3-0.2-2.5-1.7C29.4,80,28.8,80.6,27.3,80.3z
							 M68.7,75.4c1.4,0.7,1.1,1.8,0.8,3c1.1-1.4,2.1-1.2,3.4-0.1c-1-1.4-0.1-2.2,0.8-3c-1.4,0.3-2.2-0.2-2.4-1.7
							C70.3,75.2,70.3,75.2,68.7,75.4z M82.9,83.8c-0.3,0.5-0.4,1.1-0.8,1.4c-0.4,0.3-1,0.2-1.7,0.3c1.3,0.8,1.4,1.8,0.8,2.9
							c0.6-0.3,1.1-0.9,1.6-0.9c0.5,0,1.1,0.6,1.7,0.9c-0.1-0.6-0.4-1.2-0.3-1.7c0.2-0.5,0.7-0.8,1.3-1.4c-0.7,0-1.3,0.2-1.7,0
							C83.4,85,83.3,84.4,82.9,83.8z M33.3,85.4c1.2,0.8,1.2,1.7,0.7,2.9c1.1-0.9,2.2-1.1,3.4,0c-0.9-1.3,0-2.1,0.8-2.9
							c-1.4,0.2-2.3-0.2-2.5-1.7C35.3,84.9,34.8,85.7,33.3,85.4z M45.1,105.4c1.2,0.8,1.2,1.8,0.6,3.1c0.8-0.5,1.3-1,1.8-1
							c0.5,0,1,0.6,1.5,0.9c-0.6-1.3-0.1-2.2,1-3c-1.4,0.2-2.3-0.2-2.5-1.7C47.1,105,46.5,105.7,45.1,105.4z M85.5,75.4
							c-1.3,0.1-2.3-0.1-2.6-1.7c-0.3,1.3-1,1.9-2.4,1.7c1.3,0.8,1.2,1.8,0.8,3c1.1-1.3,2.2-1,3.3,0C83.9,77.1,84.3,76.2,85.5,75.4z
							 M79.6,90.4c-1.4,0.2-2.2-0.2-2.5-1.7c-0.4,1.3-1,1.9-2.5,1.7c1.4,0.8,1.3,1.8,0.8,3c1.1-1.2,2.1-1.1,3.3-0.1
							C78,92,78.5,91.2,79.6,90.4z M41.7,88.8c-0.4,1.2-1,2-2.4,1.6c1.1,0.8,1.3,1.8,0.7,2.9c1.1-1,2.2-1.1,3.4-0.1
							c-0.9-1.3,0-2.1,0.8-2.9C42.8,90.6,41.9,90.3,41.7,88.8z M41.6,68.8c-0.3,0.5-0.4,1.1-0.8,1.3c-0.4,0.3-1,0.2-1.8,0.3
							c1.4,0.8,1.4,1.8,1,3c0.5-0.3,1-0.7,1.6-1c0.5,0.3,1,0.7,1.5,1c-0.4-1.2-0.3-2.2,1.1-2.9C42.4,70.2,42.4,70.2,41.6,68.8z
							 M75.4,103.5c1.1-1.1,2.2-1.2,3.3,0c-0.7-1.3-0.2-2.2,0.9-3c-1.4,0.3-2.3-0.2-2.4-1.8c-0.4,0.7-0.5,1.3-0.9,1.6
							c-0.4,0.3-1,0.2-1.7,0.3C75.8,101.3,76,102.2,75.4,103.5z M51,110.5c1.3,0.8,1.2,1.8,0.8,3c1.1-1.2,2.2-1.1,3.4,0
							c-0.9-1.4-0.2-2.2,0.8-3c-1.3,0.1-2.3-0.1-2.5-1.7C53.1,110.1,52.5,110.9,51,110.5z M59.4,93.8c-0.4,1.2-1,1.9-2.5,1.6
							c1.1,0.8,1.3,1.7,0.7,2.9c1.1-1,2.2-1.1,3.4-0.1c-0.9-1.4-0.1-2.1,0.8-2.9C60.6,95.5,59.6,95.5,59.4,93.8z M91.4,80.4
							c-1.4,0.2-2.3-0.2-2.5-1.7c-0.3,1.3-1,1.9-2.4,1.6c0.5,0.6,1,1,1.1,1.4c0.1,0.5-0.2,1-0.4,1.6c1.2-0.9,2.2-1.2,3.4,0.1
							C89.9,82.1,90.2,81.2,91.4,80.4z M61,88.3c-0.9-1.4,0-2.1,1-2.9c-0.8-0.1-1.5,0.1-1.9-0.2c-0.4-0.2-0.5-0.9-0.9-1.7
							c-0.1,1.6-0.9,2.1-2.3,1.9c1.1,0.8,1.3,1.7,0.7,2.9C58.8,87.5,59.8,87.1,61,88.3z M55.2,103.5c-1-1.4-0.1-2.2,0.8-3
							c-1.4,0.3-2.2-0.2-2.5-1.6c-0.3,1.4-1.1,1.8-2.4,1.7c1.3,0.8,1.2,1.8,0.8,3C52.9,102.4,54,102.2,55.2,103.5z M28.2,93.3
							c1.1-1,2.2-1.1,3.3,0c-0.9-1.4,0-2.1,0.9-2.9c-1.4,0.3-2.2-0.2-2.6-1.6c-0.2,1.5-1.1,1.8-2.4,1.7
							C28.5,91.3,28.8,92.1,28.2,93.3z M51.9,93.3c0.5-0.3,1-0.8,1.5-0.8c0.5,0,1.1,0.5,1.9,0.9c-1.1-1.4-0.2-2.2,0.6-2.9
							c-1.3,0.2-2.3-0.1-2.5-1.6c-0.3,1.3-1,1.9-2.4,1.7C52.2,91.2,52.5,92.1,51.9,93.3z M51,80.2c0.5,0.6,1,1,1.1,1.5
							c0.1,0.4-0.2,1-0.3,1.6c0.6-0.4,1.1-0.9,1.7-0.9c0.5,0,1.1,0.5,1.6,0.7c-0.8-1.3,0.1-2,1.2-2.8c-0.8,0-1.5,0.1-1.9-0.1
							c-0.4-0.2-0.6-0.9-0.9-1.5C53.1,79.9,52.6,80.7,51,80.2z M29.9,108.9c-0.4,1.2-1,1.9-2.4,1.6c1.1,0.8,1.3,1.7,0.7,2.9
							c1.1-0.9,2.2-1.2,3.4,0c-0.8-1.3-0.1-2.1,0.8-2.9C31.1,110.6,30.1,110.5,29.9,108.9z M80.5,95.5c1.2,0.8,1.2,1.8,0.7,3
							c1.1-1.3,2.2-1.1,3.3,0c-0.9-1.4-0.2-2.2,0.8-3c-1.4,0.2-2.3-0.1-2.5-1.6C82.6,95,81.9,95.7,80.5,95.5z M57.6,78.4
							c1.2-1.2,2.2-1.1,3.4,0c-0.8-1.3-0.3-2.2,0.8-3c-1.3,0.1-2.3-0.2-2.5-1.7c-0.3,1.3-1,1.9-2.4,1.7C58,76.2,58.2,77.2,57.6,78.4
							z M82.9,103.7c-0.3,1.3-0.9,2.1-2.5,1.6c0.6,0.7,1.1,1,1.2,1.4c0.1,0.5-0.2,1-0.3,1.9c1.2-1.3,2.3-1.2,3.4-0.2
							c-0.8-1.3-0.2-2.2,1-3c-0.9,0-1.5,0.1-1.9-0.2C83.4,105.1,83.2,104.4,82.9,103.7z M57.8,108.4c0.5-0.3,1.1-0.8,1.6-0.8
							c0.5,0,1,0.6,1.5,0.9c-0.7-1.3,0-2.2,1.1-2.9c-0.8-0.1-1.5,0.1-1.9-0.2c-0.4-0.2-0.5-0.9-0.7-1.4c-0.3,1.3-1.2,1.7-2.4,1.6
							C58.2,106.3,58.2,107.3,57.8,108.4z M33.9,98.5c0.8-0.4,1.3-0.9,1.8-0.9c0.5,0,1,0.4,1.5,0.7c-0.7-1.3,0.2-1.9,1-2.7
							c-1.4,0.3-2.2-0.3-2.5-1.6c-0.3,1.4-1.1,1.9-2.4,1.7C34.5,96.2,34.5,97.2,33.9,98.5z M65.3,68.7c-0.4,1.1-0.9,2-2.4,1.7
							c1.2,0.8,1.3,1.8,0.8,2.9c0.5-0.3,1-0.7,1.5-1c0.5,0.3,1,0.7,1.5,1c-0.6-1.3-0.1-2.1,1-2.9C66.5,70.5,65.5,70.2,65.3,68.7z
							 M67.9,80.5c-0.1-0.1-0.1-0.1-0.2-0.2c-0.6,0-1.2,0.1-1.6-0.1c-0.4-0.2-0.5-0.9-0.8-1.4c-0.3,1.3-1.2,1.7-2.4,1.6
							c1.1,0.8,1.3,1.7,0.7,3c1.1-1.2,2.2-1.1,3.3-0.1C66.2,81.8,66.9,81.1,67.9,80.5z M51.1,70.4c1.2,0.8,1.2,1.8,0.7,3
							c1.1-1.2,2.2-1.1,3.4,0c-0.8-1.3-0.3-2.2,0.8-3c-1.4,0.2-2.3-0.1-2.5-1.6C53.1,70.1,52.4,70.6,51.1,70.4z M86.5,110.5
							c1.2,0.8,1.2,1.8,0.8,3c1.1-1.3,2.2-1.2,3.3-0.1c-0.8-1.4-0.2-2.2,0.9-3c-1.3,0.1-2.3-0.1-2.5-1.7
							C88.5,110,88,110.8,86.5,110.5z M28.1,73.4c1.1-1.2,2.2-1.1,3.3,0c-0.8-1.3-0.3-2.2,0.9-3c-1.3,0.1-2.3-0.2-2.5-1.8
							c-0.4,0.7-0.5,1.3-0.9,1.6c-0.4,0.3-1,0.2-1.7,0.3C28.6,71.2,28.7,72.1,28.1,73.4z M50,85.4c-1.3,0.1-2.3-0.2-2.5-1.7
							c-0.4,1.2-1,1.9-2.4,1.7c1.1,0.8,1.4,1.7,0.7,2.9c1.1-0.9,2.2-1.2,3.4,0C48.4,86.9,49,86.1,50,85.4z M45.1,95.5
							c1.1,0.8,1.3,1.7,0.5,3c0.8-0.5,1.3-1,1.8-1c0.5,0,1.1,0.5,1.7,0.7c-0.1-0.6-0.4-1.1-0.2-1.6c0.2-0.4,0.8-0.7,1.2-1.1
							c0-0.1,0-0.2,0-0.3c-1.4,0.5-2.2,0-2.5-1.5C47.2,95.1,46.5,95.7,45.1,95.5z M78.8,113.8c-0.2-0.9-0.5-1.5-0.3-1.9
							c0.2-0.5,0.8-0.7,1.3-1.1c-0.1-0.1-0.2-0.2-0.2-0.3c-0.5,0-1.2,0.1-1.6-0.2c-0.4-0.2-0.5-0.9-0.9-1.6c-0.2,1.4-0.9,2-2.3,1.8
							c1.2,0.8,1.3,1.8,0.8,3C76.6,112.2,77.6,112.5,78.8,113.8z M87.2,93.5c1.1-1.4,2.2-1.1,3.3,0.1c-0.2-0.8-0.5-1.4-0.3-1.9
							c0.1-0.5,0.7-0.8,1.1-1.2c0-0.1,0-0.2,0-0.2c-1.4,0.5-2.2-0.1-2.4-1.5c-0.4,1.2-1,1.9-2.4,1.7C87.7,91.2,87.7,92.2,87.2,93.5z
							 M74.7,70.4c1.2,0.8,1.2,1.8,0.7,3c1.1-1.2,2.2-1.1,3.4,0c-0.9-1.4-0.2-2.2,0.8-3c-1.4,0.2-2.3-0.2-2.5-1.7
							C76.6,69.9,76.1,70.7,74.7,70.4z M75.3,83.5c0.7-0.4,1.2-1,1.7-1c0.5,0,1.1,0.5,1.6,0.8c0.1,0,0.2,0,0.3,0
							c-1.1-1.3-0.2-2.1,0.7-2.9c-1.4,0.2-2.3-0.1-2.5-1.7c-0.4,1.2-1,2-2.5,1.5c0.5,0.6,1.1,1,1.1,1.5
							C75.8,82.3,75.5,82.8,75.3,83.5z M65.3,98.7c-0.4,1.2-1,2-2.4,1.7c1.1,0.8,1.3,1.8,0.7,3c1.1-1.1,2.2-1.2,3.3,0
							c-0.7-1.3-0.2-2.2,0.9-3C66.4,100.6,65.5,100.2,65.3,98.7z M68.8,105.4c1.1,0.8,1.3,1.8,0.7,3c1.1-1.2,2.2-1.2,3.4,0
							c-0.8-1.3-0.3-2.2,0.8-3c-1.4,0.2-2.2-0.3-2.5-1.7C70.8,105.1,70.1,105.6,68.8,105.4z M73.9,85.4c-0.9-0.1-1.5,0.1-2-0.2
							c-0.4-0.2-0.5-0.9-0.8-1.5c-0.3,0.6-0.4,1.2-0.8,1.5c-0.4,0.3-1,0.2-1.8,0.2c1.3,0.8,1.5,1.7,0.9,2.9c1.1-1.1,2.2-1.1,3.3-0.1
							C72,86.8,72.8,86.1,73.9,85.4z M67.8,90.4c-1.3,0.1-2.3-0.1-2.4-1.8c-0.4,0.7-0.5,1.4-0.9,1.6c-0.4,0.3-1,0.2-1.8,0.2
							c1.3,0.8,1.4,1.7,0.9,2.9c1.1-1.1,2.1-1,3.3-0.1C66.1,91.9,66.9,91.2,67.8,90.4z M86.5,100.4c1.2,0.8,1.2,1.8,0.5,3.1
							c0.8-0.4,1.3-1,1.8-1c0.5,0,1,0.6,1.5,0.9c-0.7-1.3-0.1-2.1,1-3c-1.5,0.3-2.2-0.2-2.5-1.6C88.5,99.9,88,100.7,86.5,100.4z
							 M69.5,98.4c1.1-1,2.1-1.3,3.3-0.1c-0.9-1.4,0-2.1,0.9-2.9c-1.3,0.2-2.3-0.1-2.5-1.6c-0.4,1.3-1,1.9-2.4,1.6
							C69.7,96.7,69.7,96.7,69.5,98.4z M67,113.5c-0.7-1.3-0.2-2.2,0.9-3c-1.4,0.2-2.3-0.2-2.4-1.7c-1,1.5-1,1.5-2.6,1.8
							c1.4,0.7,1.3,1.7,0.9,2.9C64.8,112.4,65.8,112.2,67,113.5z M40,113.4c1.1-1,2.2-1,3.3,0c-0.1-0.7-0.3-1.3-0.2-1.7
							c0.2-0.4,0.7-0.7,1.1-1.1c-1.3,0.1-2.2-0.3-2.4-1.8c-0.4,1.2-1,2-2.4,1.7C40.3,111.3,40.7,112.2,40,113.4z M32.2,100.4
							c-0.5,0-1.2,0.1-1.6-0.1c-0.4-0.2-0.5-0.9-0.9-1.6c-0.3,1.4-1,2-2.3,1.8c1.2,0.8,1.2,1.7,0.7,2.9c1.1-1,2.1-1.1,3.3-0.1
							C30.7,101.9,31.3,101.2,32.2,100.4z M44.2,100.4c-1.4,0.2-2.3-0.2-2.5-1.7c-0.4,1.2-1,2-2.5,1.6c0.5,0.6,1,1,1.2,1.4
							c0.1,0.4-0.2,1-0.3,1.5c1.1-0.9,2.2-1,3.3,0C42.5,101.9,43.2,101.2,44.2,100.4z M38.2,105.5c-1.4,0.2-2.2-0.2-2.5-1.7
							c-0.2,1.5-1,1.9-2.4,1.8c1.1,0.8,1.3,1.7,0.7,2.9c1.1-1,2.2-1,3.3-0.1C36.6,107,37.2,106.2,38.2,105.5z"/>
						<path fill="#2368B5" d="M200.9,152.5c0,2.3,0,4.6,0,7c-59,0-117.9,0-177,0c0-2.3,0-4.6,0-7C83,152.5,141.9,152.5,200.9,152.5z
							"/>
						<path fill="#2368B5" d="M24,144.9c0-2.3,0-4.6,0-6.9c59,0,117.9,0,177,0c0,1.1,0,2.2,0,3.4c0,1.1,0,2.3,0,3.5
							C142,144.9,83.1,144.9,24,144.9z"/>
						<path fill="#2368B5" d="M24,130.4c0-2.3,0-4.5,0-6.8c59,0,117.9,0,177,0c0,2.3,0,4.5,0,6.8C142,130.4,83,130.4,24,130.4z"/>
					</g>
				</g>
			</g>
			<g>
				<path fill="#0C56AB" d="M71.4,66.2c26.1,0,47.3,21.2,47.3,47.3c0,26.1-21.2,47.3-47.3,47.3S24,139.7,24,113.6
					C24,87.4,45.2,66.2,71.4,66.2 M71.4,63.3c-27.7,0-50.3,22.5-50.3,50.3c0,27.7,22.5,50.3,50.3,50.3s50.3-22.5,50.3-50.3
					C121.6,85.9,99.1,63.3,71.4,63.3L71.4,63.3z"/>
			</g>
		</g>
		<polygon fill="#2368B5" stroke="#FFFFFF" stroke-miterlimit="10" points="140.1,138.2 132.9,116.9 132.1,126.8 93,80.9 73.3,98.6 
			45.3,68.6 7.2,106.9 7.2,113.5 45.2,75.4 73,105.2 92.9,87.3 128.7,130.1 117,129.9 		"/>
		<g>
			<path fill="#2368B5" d="M128.3,214.2l-113.8,0l0-72.4l113.8,0L128.3,214.2z M19.1,209.5l104.4,0l0-63l-104.4,0L19.1,209.5z"/>
			<g>
				<rect x="16.8" y="144.1" fill="#FFFFFF" width="109.1" height="67.7"/>
			</g>
			<g>
				<defs>
					<rect id="SVGID_3_" x="22" y="149.8" width="98.4" height="56.6"/>
				</defs>
				<clipPath id="SVGID_4_">
					<use xlink:href="#SVGID_3_"  overflow="visible"/>
				</clipPath>
				<rect x="22.2" y="149.7" clip-path="url(#SVGID_4_)" fill="#FFFFFF" width="98.4" height="56.6"/>
				<circle clip-path="url(#SVGID_4_)" fill="#2368B5" cx="22.2" cy="149.7" r="6.9"/>
				<circle clip-path="url(#SVGID_4_)" fill="#2368B5" cx="120.3" cy="149.7" r="6.9"/>
				<circle clip-path="url(#SVGID_4_)" fill="#2368B5" cx="22.2" cy="206.3" r="6.9"/>
				<circle clip-path="url(#SVGID_4_)" fill="#2368B5" cx="120.3" cy="206.3" r="6.9"/>
				<use xlink:href="#SVGID_3_"  overflow="visible" fill="none" stroke="#0C56AB" stroke-width="4" stroke-miterlimit="10"/>
			</g>
			<g>
				<circle fill="#2368B5" cx="111.8" cy="179.4" r="2.6"/>
				<circle fill="#2368B5" cx="30.9" cy="179.4" r="2.6"/>
			</g>
			<g>
				<polygon fill="#2368B5" points="114.1,228.5 110.6,225 105.9,226.9 109,210 117.3,211.6 				"/>
				<polygon fill="#2368B5" points="118.9,228.5 122.4,225 127.2,226.9 124,210 115.8,211.6 				"/>
				<circle fill="#2368B5" cx="116.2" cy="204.9" r="10"/>
				<polygon fill="#FFFFFF" points="116.4,199.7 118.9,196.9 119.2,200.6 122.8,199.8 120.9,203 124.4,204.5 120.9,205.9 
					122.8,209.2 119.2,208.3 118.9,212 116.4,209.2 113.9,212 113.6,208.3 109.9,209.2 111.8,205.9 108.4,204.5 111.8,203 
					109.9,199.8 113.6,200.6 113.9,196.9 				"/>
			</g>
			<line fill="none" stroke="#0C56AB" stroke-linecap="round" stroke-miterlimit="10" x1="39.4" y1="154.8" x2="103.3" y2="154.8"/>
			<line fill="none" stroke="#0C56AB" stroke-linecap="round" stroke-miterlimit="10" x1="39.4" y1="159.8" x2="103.3" y2="159.8"/>
			<line fill="none" stroke="#0C56AB" stroke-linecap="round" stroke-miterlimit="10" x1="39.4" y1="164.7" x2="103.3" y2="164.7"/>
			<line fill="none" stroke="#0C56AB" stroke-linecap="round" stroke-miterlimit="10" x1="52.7" y1="169.7" x2="103.3" y2="169.7"/>
			<line fill="none" stroke="#0C56AB" stroke-linecap="round" stroke-miterlimit="10" x1="52.7" y1="174.6" x2="103.3" y2="174.6"/>
			<line fill="none" stroke="#0C56AB" stroke-linecap="round" stroke-miterlimit="10" x1="52.7" y1="179.6" x2="103.3" y2="179.6"/>
			<line fill="none" stroke="#0C56AB" stroke-linecap="round" stroke-miterlimit="10" x1="52.7" y1="184.6" x2="103.3" y2="184.6"/>
			<line fill="none" stroke="#0C56AB" stroke-linecap="round" stroke-miterlimit="10" x1="52.7" y1="189.5" x2="103.3" y2="189.5"/>
			<line fill="none" stroke="#0C56AB" stroke-linecap="round" stroke-miterlimit="10" x1="39.4" y1="194.5" x2="103.3" y2="194.5"/>
			<line fill="none" stroke="#0C56AB" stroke-linecap="round" stroke-miterlimit="10" x1="39.4" y1="199.4" x2="103.3" y2="199.4"/>
		</g>
	</g>
</g>
<g>
</g>
<g>
</g>
<g>
</g>
<g>
</g>
<g>
</g>
<g>
</g>
<g>
</g>
<g>
</g>
<g>
</g>
<g>
</g>
<g>
</g>
<g>
</g>
<g>
</g>
<g>
</g>
<g>
</g>
</svg>
