<?xml version="1.0" encoding="utf-8"?>
<!-- Generator: Adobe Illustrator 18.0.0, SVG Export Plug-In . SVG Version: 6.00 Build 0)  -->
<!DOCTYPE svg PUBLIC "-//W3C//DTD SVG 1.1//EN" "http://www.w3.org/Graphics/SVG/1.1/DTD/svg11.dtd">
<svg version="1.1" id="Layer_1" xmlns="http://www.w3.org/2000/svg" xmlns:xlink="http://www.w3.org/1999/xlink" x="0px" y="0px"
	 viewBox="0 0 265.8 49.4" enable-background="new 0 0 265.8 49.4" xml:space="preserve">
<g>
	<rect x="0" y="0" fill="none" width="265.8" height="48.8"/>
	<path fill="#58595B" d="M2.7,2.5H0.4V2.2h2.2V2.5z M3.2,6.7C2.6,7,1.6,7.4,0.8,7.6C0.7,7.5,0.6,7.4,0.5,7.3
		c0.8-0.2,1.8-0.5,2.4-0.8L3.2,6.7z M2.5,1.2H0.6V0.9h1.8V1.2z M1.5,3.2h5.1v3.2H1.5V3.2z M1.9,4.1h4.3V3.5H1.9V4.1z M1.9,5.1h4.3
		V4.4H1.9V5.1z M1.9,6.1h4.3V5.4H1.9V6.1z M3.9,1.3C3.8,1.6,3.5,1.9,3.3,2.2C3.2,2.1,3.1,2,3,2c0.4-0.4,0.7-1,0.9-1.6l0.4,0.1
		C4.2,0.6,4.2,0.8,4.1,1h3l0.1,0L7.4,1C7.2,1.4,6.9,1.9,6.7,2.1L6.4,2c0.1-0.2,0.3-0.5,0.4-0.7H5.3v0.1c0,0.1,0,0.2,0,0.4
		c0.4,0.5,1.3,0.9,2.4,1C7.6,2.8,7.5,2.9,7.4,3c-1-0.1-1.8-0.5-2.2-1C4.9,2.4,4.3,2.8,2.9,3.1c0-0.1-0.1-0.2-0.2-0.3
		C4.8,2.5,5,1.8,5,1.3V1.3H3.9z M5.1,6.5C6,6.8,6.9,7.1,7.5,7.4L7.2,7.6C6.6,7.3,5.7,7,4.8,6.7L5.1,6.5z"/>
	<path fill="#58595B" d="M9.4,4.1C9.3,5,8.9,6.1,8.6,6.6c0-0.1-0.2-0.3-0.2-0.4C8.7,5.8,9,4.8,9.2,4L9.4,4.1z M10.1,3.4v4.2H9.8V3.4
		H8.4V3.1h1.3V0.4h0.4v2.7h1.4v0.4H10.1z M9,2.7C9,2.2,8.8,1.5,8.5,1l0.3-0.1c0.2,0.5,0.4,1.3,0.5,1.7L9,2.7z M10.5,4
		c0.2,0.2,0.7,1.4,0.8,1.7L11.1,6c-0.1-0.4-0.6-1.5-0.8-1.8L10.5,4z M11.4,1c-0.2,0.6-0.5,1.3-0.7,1.8l-0.3-0.1
		c0.2-0.5,0.5-1.2,0.6-1.8L11.4,1z M14.6,5.3v2.3h-0.4V5.4l-2.6,0.5l-0.1-0.4L14.2,5V0.4h0.4V5l1-0.2l0.1,0.3L14.6,5.3z M13.1,4.2
		c-0.3-0.3-0.9-0.7-1.3-0.9L11.9,3c0.5,0.2,1.1,0.6,1.4,0.9L13.1,4.2z M13.5,2.3c-0.3-0.3-0.8-0.7-1.3-1L12.4,1c0.5,0.3,1,0.7,1.3,1
		L13.5,2.3z"/>
	<path fill="#58595B" d="M20.2,3.9c0.7,1.3,2.1,2.5,3.5,3c-0.1,0.1-0.2,0.2-0.3,0.3c-1.2-0.5-2.4-1.5-3.2-2.7v3h-0.4v-3
		c-0.8,1.1-2,2.1-3.2,2.6c-0.1-0.1-0.2-0.2-0.3-0.3c1.3-0.5,2.7-1.7,3.4-3v-2h-3.2V1.6h3.2V0.4h0.4v1.2h3.3v0.4h-3.3V3.9z M18.4,2.3
		c-0.1,0.4-0.2,0.7-0.3,1c0.4,0.3,0.8,0.7,1,1l-0.3,0.3c-0.2-0.2-0.5-0.6-0.9-0.9c-0.3,0.6-0.6,1-1.1,1.4c-0.1-0.1-0.2-0.2-0.3-0.2
		c0.7-0.6,1.2-1.4,1.5-2.5L18.4,2.3z M22.2,2.3c-0.1,0.4-0.2,0.7-0.3,1c0.5,0.4,1.2,1,1.5,1.3l-0.3,0.3c-0.3-0.3-0.9-0.9-1.4-1.3
		C21.6,4,21.3,4.4,21,4.7c-0.1-0.1-0.2-0.2-0.3-0.2c0.6-0.5,1-1.3,1.2-2.3L22.2,2.3z"/>
	<path fill="#58595B" d="M25.7,3.8c-0.3-0.2-0.9-0.6-1.4-0.9l0.2-0.3C25,2.9,25.6,3.2,26,3.5L25.7,3.8z M26.1,4.9
		c-0.4,0.8-0.8,1.9-1.2,2.6l-0.3-0.2c0.4-0.6,0.9-1.7,1.3-2.6L26.1,4.9z M26.1,1.7c-0.3-0.3-0.9-0.7-1.3-0.9L25,0.5
		c0.4,0.3,1,0.7,1.4,0.9L26.1,1.7z M27.1,2.9c0,1.4-0.1,3.3-1.1,4.6c-0.1-0.1-0.2-0.2-0.3-0.2c0.9-1.3,1-3.1,1-4.4V0.8h4.8v0.4h-4.4
		V2.9z M28.4,5.5c-0.3,0.6-0.7,1.2-1.1,1.6c-0.1,0-0.2-0.2-0.3-0.2c0.4-0.4,0.8-1,1-1.5L28.4,5.5z M29.6,4.9v2.3
		c0,0.2,0,0.3-0.2,0.4c-0.2,0.1-0.5,0.1-1.1,0.1c0-0.1-0.1-0.2-0.1-0.3c0.4,0,0.8,0,0.9,0c0.1,0,0.1,0,0.1-0.1V4.9h-1.5V2.2H29
		c0.1-0.3,0.2-0.6,0.2-0.9l0.4,0.1c-0.1,0.3-0.2,0.5-0.3,0.8h1.9v2.7H29.6z M28.1,3.4h2.8V2.5h-2.8V3.4z M28.1,4.5h2.8V3.7h-2.8V4.5
		z M30.6,5.3c0.4,0.5,0.8,1.2,1,1.5L31.3,7c-0.2-0.4-0.6-1.1-1-1.6L30.6,5.3z"/>
	<path fill="#58595B" d="M33.5,2.1c0-0.3,0.2-0.5,0.5-0.5s0.5,0.2,0.5,0.5c0,0.3-0.2,0.5-0.5,0.5S33.5,2.4,33.5,2.1z M33.5,6
		c0-0.3,0.2-0.5,0.5-0.5s0.5,0.2,0.5,0.5c0,0.3-0.2,0.5-0.5,0.5S33.5,6.3,33.5,6z"/>
	<path fill="#58595B" d="M39.2,3.6c-0.1,2.7-0.1,3.6-0.3,3.9c-0.1,0.1-0.2,0.2-0.4,0.2c-0.2,0-0.5,0-0.9,0c0-0.1,0-0.3-0.1-0.4
		c0.4,0,0.7,0,0.8,0c0.1,0,0.2,0,0.3-0.1c0.1-0.2,0.2-1,0.3-3.5h-1.2c-0.1,1.6-0.3,3-1,3.9c-0.1-0.1-0.2-0.2-0.3-0.2
		c0.8-1.1,1-3.2,1-5.3h-0.9V1.7h3.1v0.4h-1.8c0,0.4,0,0.8,0,1.2h1.5V3.6z M38.1,1.6c-0.1-0.3-0.3-0.7-0.4-1.1l0.3-0.1
		c0.2,0.3,0.4,0.8,0.5,1L38.1,1.6z M40.4,1.9c-0.2,0.5-0.5,1-0.8,1.4c-0.1-0.1-0.2-0.2-0.3-0.2c0.6-0.7,1-1.6,1.2-2.7l0.4,0.1
		c-0.1,0.4-0.2,0.8-0.3,1.1h3.1v0.4H40.4z M42.8,7.2c0.4,0,0.4-0.2,0.5-1c0.1,0.1,0.2,0.1,0.3,0.2c-0.1,0.9-0.2,1.2-0.8,1.2h-1.8
		c-0.7,0-0.9-0.1-0.9-0.7V4.6l-0.6,0.3l-0.2-0.3l0.7-0.3V2.9h0.4v1.1l0.9-0.5V2.3h0.4v1.2l1-0.5L43,2.9l0.3,0.1l0,0.1
		c0,0.9-0.1,2.1-0.1,2.8l-0.3-0.1c0.1-0.6,0.1-1.6,0.1-2.4l-1.1,0.5v2.5h-0.4V4l-0.9,0.4v2.4c0,0.3,0.1,0.4,0.5,0.4H42.8z"/>
	<path fill="#58595B" d="M45.3,5.9c-0.1,0.6-0.2,1.2-0.4,1.6c-0.1,0-0.2-0.1-0.3-0.1c0.2-0.4,0.4-1,0.4-1.5L45.3,5.9z M47,4.2
		c0.3,0.4,0.6,1,0.6,1.4l-0.3,0.1c0-0.1-0.1-0.3-0.2-0.5c-2.1,0.2-2.3,0.2-2.5,0.3c0-0.1-0.1-0.2-0.1-0.3c0.2,0,0.4-0.2,0.6-0.4
		c0.2-0.1,0.5-0.5,1-0.9c-1.1,0.1-1.3,0.1-1.4,0.2c0-0.1-0.1-0.2-0.1-0.3c0.1,0,0.2-0.1,0.4-0.2c0.2-0.1,0.7-0.7,1-1.2l0.4,0.2
		c-0.3,0.5-0.7,0.9-1.1,1.2l1.1-0.1C46.6,3.5,46.8,3.3,47,3l0.3,0.2c-0.6,0.7-1.3,1.4-2,1.9L47,5c-0.1-0.2-0.2-0.5-0.4-0.7L47,4.2z
		 M51.1,2.3h-6.1V0.7h6.1V2.3z M46.8,1h-1.5v1h1.5V1z M46.1,5.9c0.2,0.4,0.3,1,0.3,1.4l-0.3,0.1c0-0.4-0.1-1-0.3-1.4L46.1,5.9z
		 M47,5.7c0.2,0.4,0.5,1,0.6,1.3l-0.3,0.1c-0.1-0.4-0.3-0.9-0.6-1.3L47,5.7z M48.7,1h-1.6v1h1.6V1z M51.6,7.3h-3.2v0.4h-0.4V4.1
		c-0.2,0.2-0.3,0.4-0.5,0.6c-0.1-0.1-0.2-0.2-0.3-0.2c0.5-0.5,1-1.3,1.3-2.1l0.4,0.1c-0.1,0.3-0.3,0.7-0.5,1h1.5
		c-0.1-0.3-0.3-0.6-0.4-0.9l0.3-0.1c0.2,0.3,0.4,0.7,0.5,1h1.2v0.3h-1.4v0.8h1.2V5h-1.2v0.8h1.2v0.3h-1.2v0.8h1.5V7.3z M49.8,3.8
		h-1.3v0.8h1.3V3.8z M49.8,5h-1.3v0.8h1.3V5z M48.4,6.9h1.3V6.1h-1.3V6.9z M50.7,1h-1.6v1h1.6V1z"/>
	<path fill="#58595B" d="M54.6,2.2c-0.2,0.4-0.4,0.7-0.7,1.1v4.3h-0.4V3.8c-0.3,0.4-0.6,0.8-1,1.1c0-0.1-0.2-0.2-0.3-0.3
		C53,4,53.7,3,54.2,2.1L54.6,2.2z M54.4,0.5c-0.5,0.6-1.2,1.4-1.9,1.9c0-0.1-0.1-0.2-0.2-0.3c0.6-0.5,1.3-1.2,1.7-1.7L54.4,0.5z
		 M54.2,7.2c0.3-0.4,0.6-1,0.8-1.5l0.3,0.1c-0.2,0.5-0.4,1.1-0.8,1.6L54.2,7.2z M59.6,4.6V5h-5.1V4.6H59.6z M56.6,2.1
		c0-0.2,0.1-0.4,0.1-0.7h-2.2V1.1h2.2c0-0.3,0.1-0.5,0.1-0.7l0.4,0c0,0.2-0.1,0.5-0.1,0.7h2.4v0.3h-2.5c0,0.2-0.1,0.5-0.1,0.7h2.3V4
		H55V2.1H56.6z M56.3,2.4h-1v1.3h1V2.4z M57.7,7.2c0.3,0,0.3-0.1,0.3-0.8c0.1,0.1,0.2,0.1,0.3,0.1c0,0.8-0.2,1-0.6,1h-1.3
		c-0.6,0-0.7-0.1-0.7-0.5V5.6h0.4V7c0,0.2,0.1,0.2,0.4,0.2H57.7z M56.8,5.1c0.2,0.3,0.5,0.8,0.6,1l-0.3,0.2C57,6,56.8,5.5,56.5,5.2
		L56.8,5.1z M57.6,2.4h-1v1.3h1V2.4z M57.9,3.7h1V2.4h-1V3.7z M58.8,5.6c0.3,0.5,0.6,1.1,0.8,1.5l-0.3,0.2c-0.2-0.4-0.5-1.1-0.8-1.6
		L58.8,5.6z"/>
	<path fill="#58595B" d="M61.2,5.1c0.6-0.3,1-0.7,1-1.3c-0.1,0-0.1,0-0.2,0c-0.3,0-0.5-0.2-0.5-0.5c0-0.3,0.2-0.5,0.5-0.5
		c0.4,0,0.6,0.3,0.6,0.8c0,0.8-0.5,1.4-1.3,1.7L61.2,5.1z"/>
	<path fill="#58595B" d="M65.5,7v0.5h-0.4v-3C65,4.6,64.9,4.8,64.7,5c-0.1-0.1-0.2-0.2-0.3-0.2c0.5-0.5,1-1.2,1.3-1.9L66,3
		c-0.1,0.3-0.2,0.5-0.4,0.8H67c-0.1-0.2-0.3-0.5-0.4-0.8l0.3-0.1c0.2,0.2,0.4,0.6,0.5,0.8l-0.1,0.1h1.3v0.3h-1.3v0.6h1.2V5h-1.2v0.7
		h1.2V6h-1.2v0.7h1.3V7H65.5z M71.1,3.4c-0.3,0.9-0.7,1.8-1.2,2.6c0.3,0.7,0.6,1.1,1,1.1c0.2,0,0.3-0.4,0.4-1.4
		C71.4,5.9,71.5,6,71.6,6c-0.1,1.2-0.2,1.6-0.7,1.6c-0.5,0-0.9-0.4-1.2-1.2c-0.4,0.5-0.8,0.9-1.3,1.3c-0.1-0.1-0.2-0.2-0.3-0.3
		c0.6-0.4,1-0.9,1.5-1.4C69.2,5.1,69.1,4,69,2.7h-4.5V2.4h1.9V1.6h-1.6V1.2h1.6V0.4h0.4v0.8h1.6v0.3h-1.6v0.8h2.2
		c0-0.6-0.1-1.3-0.1-2h0.4c0,0.7,0,1.4,0.1,2h2.2v0.4h-2.2c0.1,1.1,0.2,2.1,0.4,2.8c0.4-0.7,0.8-1.4,1-2.2L71.1,3.4z M66.9,4.1h-1.3
		v0.6h1.3V4.1z M66.9,5h-1.3v0.7h1.3V5z M66.9,6h-1.3v0.7h1.3V6z M71.1,1.9c-0.3-0.3-0.8-0.8-1.2-1.2l0.3-0.2c0.5,0.3,1,0.8,1.3,1.1
		L71.1,1.9z"/>
	<path fill="#58595B" d="M79.5,6.9v0.4h-7.1V6.9h3.3V5.2h-2.6V4.9h2.6V3.7h0.4v1.2h2.7v0.4h-2.7v1.7H79.5z M78.8,3.8
		c-0.1-0.2-0.3-0.4-0.5-0.6c-4.5,0.2-4.9,0.2-5.1,0.3c0-0.1-0.1-0.3-0.1-0.4c0.2,0,0.3-0.2,0.6-0.4c0.2-0.2,0.9-0.9,1.4-1.6h-2.3
		V0.9h6.6v0.4h-3.8c-0.6,0.7-1.2,1.4-1.7,1.9l4.2-0.2c-0.4-0.3-0.8-0.7-1.1-1l0.3-0.2c0.7,0.5,1.6,1.3,2,1.8L78.8,3.8z"/>
	<path fill="#58595B" d="M80.4,6.8c2-1.7,2.8-2.9,2.8-4c0-0.7-0.4-1.3-1.2-1.3c-0.5,0-1,0.3-1.3,0.7l-0.3-0.3
		c0.4-0.5,0.9-0.8,1.6-0.8c1,0,1.6,0.7,1.6,1.7c0,1.2-0.9,2.4-2.5,3.9c0.3,0,0.7,0,1,0h1.8V7h-3.5V6.8z"/>
	<path fill="#58595B" d="M84.7,4.1c0-2,0.7-3,1.7-3c1.1,0,1.7,1,1.7,3c0,2-0.7,3-1.7,3C85.4,7.1,84.7,6.2,84.7,4.1z M87.7,4.1
		c0-1.7-0.5-2.6-1.2-2.6c-0.8,0-1.3,0.9-1.3,2.6c0,1.8,0.5,2.6,1.3,2.6C87.2,6.8,87.7,5.9,87.7,4.1z"/>
	<path fill="#58595B" d="M89.3,6.6h1.3V1.9h-1V1.6c0.5-0.1,0.8-0.2,1.1-0.4h0.4v5.4h1.2V7h-3V6.6z"/>
	<path fill="#58595B" d="M96.2,1.6h-3V1.2h3.5v0.3C95.4,3.3,95.1,4.8,95,7h-0.5C94.6,4.7,95,3.2,96.2,1.6z"/>
	<path fill="#58595B" d="M104.7,5.7h-3v1.9h-0.4V5.7h-3.8V5.3h1.4V3.2h2.4V1.8h-2.1c-0.4,0.6-0.8,1.2-1.3,1.7
		c-0.1-0.1-0.2-0.2-0.3-0.2c0.8-0.7,1.5-1.7,1.9-2.8l0.4,0.1c-0.1,0.3-0.3,0.6-0.4,1h4.9v0.4h-2.7v1.4h2.5v0.4h-2.5v1.8h3V5.7z
		 M101.3,5.3V3.5h-2v1.8H101.3z"/>
	<path fill="#58595B" d="M105.5,5.6c0-0.8,0.6-1.4,1.1-1.7v0c-0.4-0.3-0.8-0.7-0.8-1.3c0-0.8,0.7-1.4,1.5-1.4c1,0,1.5,0.6,1.5,1.5
		c0,0.6-0.5,1.2-0.8,1.4v0c0.5,0.3,1,0.7,1,1.5c0,0.8-0.7,1.5-1.7,1.5C106.2,7.1,105.5,6.5,105.5,5.6z M108.6,5.7
		c0-0.9-0.8-1.2-1.7-1.6c-0.6,0.3-1,0.8-1,1.5c0,0.7,0.6,1.2,1.4,1.2C108.1,6.8,108.6,6.3,108.6,5.7z M108.4,2.7
		c0-0.6-0.4-1.2-1.1-1.2c-0.6,0-1,0.4-1,1.1c0,0.8,0.7,1.1,1.5,1.4C108.2,3.6,108.4,3.2,108.4,2.7z"/>
	<path fill="#58595B" d="M115.9,6.9c0,0.3-0.1,0.5-0.4,0.6c-0.3,0.1-0.8,0.1-1.7,0.1c0-0.1-0.1-0.3-0.2-0.4c0.7,0,1.4,0,1.5,0
		c0.2,0,0.2-0.1,0.2-0.2V5.1h-4.1c-0.2,0.9-0.6,1.8-1.4,2.6c-0.1-0.1-0.2-0.2-0.3-0.3c1.3-1.2,1.5-2.9,1.5-4.2V0.8h4.7V6.9z
		 M115.5,4.7V3.1h-3.9v0c0,0.5,0,1-0.1,1.5H115.5z M111.5,1.2v1.6h3.9V1.2H111.5z"/>
	<path fill="#58595B" d="M117.6,6.3l0.3-0.3c0.3,0.4,0.8,0.7,1.5,0.7c0.8,0,1.3-0.5,1.3-1.2c0-0.8-0.5-1.3-1.9-1.3V3.8
		c1.3,0,1.7-0.6,1.7-1.2c0-0.6-0.4-1-1.1-1.1c-0.5,0-1,0.3-1.3,0.6l-0.3-0.3c0.4-0.4,0.9-0.7,1.6-0.7c0.9,0,1.6,0.5,1.6,1.4
		c0,0.8-0.4,1.2-1.1,1.4v0c0.7,0.2,1.3,0.7,1.3,1.5c0,1-0.8,1.6-1.8,1.6C118.6,7.1,118,6.7,117.6,6.3z"/>
	<path fill="#58595B" d="M122.4,6.6h1.3V1.9h-1V1.6c0.5-0.1,0.8-0.2,1.1-0.4h0.4v5.4h1.2V7h-3V6.6z"/>
	<path fill="#58595B" d="M132.5,1v6.5h-0.4V7h-4.2v0.5h-0.4V1H132.5z M127.9,1.3v2.4h4.2V1.3H127.9z M132.1,6.6V4.2h-4.2v2.5H132.1z
		"/>
	<path fill="#58595B" d="M136,2.8c0.6,0,1.2,0.5,1.2,1.2s-0.5,1.2-1.2,1.2c-0.6,0-1.2-0.5-1.2-1.2S135.3,2.8,136,2.8z M136,4.9
		c0.5,0,0.9-0.4,0.9-0.9c0-0.5-0.4-0.9-0.9-0.9c-0.5,0-0.9,0.4-0.9,0.9C135.1,4.5,135.5,4.9,136,4.9z"/>
	<path fill="#58595B" d="M142.7,2.5c0.6,1.5,1.7,2.8,3,3.4c-0.1,0.1-0.2,0.2-0.3,0.3c-1.2-0.7-2.4-2.2-3-3.8h-0.2v3.1h2V6h-2v1.6
		h-0.4V6h-2V5.7h2V2.5h-0.2c-0.6,1.6-1.8,3-3,3.8c-0.1-0.1-0.2-0.2-0.3-0.3c1.1-0.7,2.2-2,2.9-3.5h-2.7V2.1h3.2V0.4h0.4v1.8h3.3v0.4
		H142.7z"/>
	<path fill="#58595B" d="M153.6,7v0.4h-7.2V7h1.1V4.4h5.1V7H153.6z M153.4,2.3h-6.9V2h6.9V2.3z M149,3c-0.5,0.5-1.5,1.1-2.1,1.4
		c-0.1-0.1-0.2-0.2-0.3-0.3c0.7-0.3,1.7-0.9,2.1-1.3L149,3z M147.8,7h1.2V4.8h-1.2V7z M148.7,1.9c-0.1-0.4-0.5-1-0.8-1.4l0.3-0.2
		c0.3,0.4,0.7,1,0.9,1.4L148.7,1.9z M149.4,4.8V7h1.2V4.8H149.4z M153.1,4.3c-0.5-0.3-1.6-0.8-2.4-1.1l0.2-0.3
		c0.8,0.3,1.9,0.8,2.4,1.1L153.1,4.3z M152.2,0.5c-0.3,0.5-0.6,1-1,1.4l-0.3-0.1c0.3-0.4,0.7-1,0.9-1.4L152.2,0.5z M150.9,4.8V7h1.2
		V4.8H150.9z"/>
	<path fill="#58595B" d="M157.8,6.1c0,0.1,0,0.3,0,0.4c-2.3,0.7-2.6,0.7-2.8,0.8c0-0.1-0.1-0.3-0.2-0.3c0.1-0.1,0.3-0.2,0.3-0.5V0.4
		h0.4v2.5h2.2v0.4h-2.2v3.4L157.8,6.1z M160.7,7.1c0.4,0,0.5-0.3,0.5-1.5c0.1,0.1,0.2,0.2,0.4,0.2c-0.1,1.3-0.2,1.7-0.9,1.7h-1.5
		c-0.7,0-0.9-0.2-0.9-0.9V0.4h0.4v2.5h2.3v0.4h-2.3v3.3c0,0.4,0.1,0.5,0.5,0.5H160.7z"/>
	<path fill="#58595B" d="M162.6,7.2c0.4-0.4,0.8-1,1-1.4l0.3,0.1c-0.2,0.5-0.5,1.1-0.9,1.4L162.6,7.2z M169.4,2.3v0.3h-6.8V2.3h2
		c-0.1-0.2-0.2-0.6-0.4-0.8l0.4-0.1c0.2,0.3,0.3,0.6,0.4,0.9l-0.2,0.1h2.2c0.2-0.3,0.4-0.7,0.5-0.9h-4.5V1.1h3
		c-0.1-0.2-0.2-0.4-0.4-0.6l0.4-0.1c0.2,0.2,0.4,0.5,0.5,0.7h2.6v0.3h-1.6l0.4,0.1c-0.2,0.3-0.3,0.6-0.4,0.8H169.4z M168.4,5.4h-4.9
		V3.1h4.9V5.4z M168.1,3.4h-4.2v0.7h4.2V3.4z M168.1,4.4h-4.2v0.7h4.2V4.4z M166.9,7.2c0.4,0,0.4-0.1,0.4-0.9
		c0.1,0.1,0.2,0.1,0.4,0.1c-0.1,0.9-0.2,1.1-0.8,1.1h-1.6c-0.7,0-0.9-0.1-0.9-0.6V5.8h0.4V7c0,0.2,0.1,0.2,0.5,0.2H166.9z
		 M165.5,5.4c0.4,0.2,1,0.6,1.2,0.9l-0.2,0.2c-0.3-0.3-0.8-0.7-1.2-1L165.5,5.4z M168.2,5.7c0.4,0.4,0.9,1,1.1,1.4L169,7.3
		c-0.2-0.4-0.7-1-1.1-1.4L168.2,5.7z"/>
	<path fill="#58595B" d="M173,4.2L172,4.6v2.5c0,0.3-0.1,0.4-0.2,0.4c-0.2,0.1-0.5,0.1-1,0.1c0-0.1-0.1-0.3-0.1-0.4
		c0.4,0,0.7,0,0.8,0c0.1,0,0.2,0,0.2-0.2V4.7c-0.4,0.1-0.9,0.3-1.2,0.4l-0.1-0.4c0.4-0.1,0.8-0.2,1.3-0.4V2.4h-1.2V2.1h1.2V0.4h0.4
		v1.7h1v0.4h-1v1.7c0.3-0.1,0.7-0.2,1-0.3L173,4.2z M173.5,4.2h3.7v3.4h-0.4V7.2h-2.9v0.4h-0.4V4.2z M174.4,3.4
		c-0.6,0-0.8-0.2-0.8-0.8V0.4h0.4v1h3.3v0.3h-3.3v0.9c0,0.3,0.1,0.4,0.4,0.4h2.3c0.2,0,0.6,0,0.8,0c0,0.1,0,0.3,0.1,0.3
		c-0.1,0-0.5,0-0.8,0H174.4z M173.9,4.6v1h2.9v-1H173.9z M176.8,6.9v-1h-2.9v1H176.8z"/>
	<path fill="#58595B" d="M181,7c0,0.2-0.1,0.4-0.2,0.4c-0.2,0.1-0.5,0.1-1,0.1c0-0.1-0.1-0.3-0.1-0.4c0.4,0,0.8,0,0.8,0
		c0.1,0,0.2,0,0.2-0.2V4.5c-0.4,0.2-0.8,0.5-1.2,0.7l-0.2-0.4c0.4-0.2,0.9-0.4,1.4-0.7V1h-1.3v2.5c0,1.2-0.1,2.9-0.7,4.1
		c-0.1-0.1-0.2-0.2-0.3-0.2c0.6-1.1,0.6-2.7,0.6-3.9V0.7h2.1V7z M180.3,3.5c-0.2-0.3-0.6-0.8-1-1.1l0.3-0.2c0.4,0.3,0.8,0.8,1,1
		L180.3,3.5z M185.2,4c-0.3,1-0.9,1.7-1.5,2.3c0.5,0.4,1.2,0.8,1.9,0.9c-0.1,0.1-0.2,0.2-0.3,0.3c-0.7-0.2-1.4-0.6-1.9-1
		c-0.6,0.5-1.3,0.8-2,1c0-0.1-0.1-0.2-0.2-0.3c0.7-0.2,1.3-0.5,1.9-1c-0.6-0.6-1-1.2-1.3-2h-0.4V3.9h3.4l0.1,0L185.2,4z M182.7,1.6
		c0,0.7-0.2,1.5-1.1,2.1c0-0.1-0.2-0.2-0.2-0.3c0.9-0.5,1-1.2,1-1.8V0.7h2.3v1.9c0,0.2,0,0.3,0.1,0.3h0.5c0.1,0,0.2,0,0.3,0
		c0,0.1,0,0.2,0,0.3c-0.1,0-0.2,0-0.3,0h-0.5c-0.4,0-0.5-0.2-0.5-0.6V1.1h-1.6V1.6z M182.2,4.3c0.3,0.7,0.7,1.3,1.2,1.8
		c0.6-0.5,1-1.1,1.3-1.8H182.2z"/>
	<path fill="#58595B" d="M188.3,0.5c-0.2,0.5-0.4,1.1-0.6,1.6v5.5h-0.4V2.8c-0.3,0.5-0.6,1-0.9,1.3c0-0.1-0.2-0.3-0.2-0.4
		c0.7-0.8,1.4-2.1,1.8-3.4L188.3,0.5z M190.4,6.8c-0.5,0.3-1.2,0.7-2,0.8c-0.1-0.1-0.2-0.2-0.2-0.3c0.7-0.2,1.5-0.5,1.9-0.8
		L190.4,6.8z M190,1.1h-1.6V0.8h5.1v0.3h-1.7v0.6h1.5v1.5h-4.7V1.7h1.4V1.1z M188.8,6.5V3.6h4.3v2.8H188.8z M189,2.9h1.1V2H189V2.9z
		 M189.2,4.5h3.6V3.9h-3.6V4.5z M189.2,5.3h3.6V4.8h-3.6V5.3z M189.2,6.2h3.6V5.6h-3.6V6.2z M191.5,1.1h-1.1v0.6h1.1V1.1z
		 M190.4,2.9h1.1V2h-1.1V2.9z M191.7,6.6c0.7,0.2,1.5,0.5,1.9,0.8l-0.3,0.2c-0.4-0.2-1.1-0.6-1.8-0.8L191.7,6.6z M191.8,2v0.9h1.1V2
		H191.8z"/>
	<path fill="#58595B" d="M196.2,2.1h1.2v0.4h-1.2v0.9c0.3,0.3,1,1.1,1.2,1.4L197.1,5c-0.2-0.3-0.6-0.8-1-1.2v3.8h-0.4V3.4
		c-0.3,1-0.8,2.1-1.3,2.7c0-0.1-0.2-0.2-0.2-0.3c0.6-0.7,1.2-2,1.5-3.2h-1.3V2.1h1.4V0.4h0.4V2.1z M201.3,0.9v6.7h-0.4V7.1h-2.8v0.5
		h-0.4V0.9H201.3z M198.2,1.2v1.5h2.8V1.2H198.2z M198.2,4.7h2.8V3.1h-2.8V4.7z M200.9,6.7V5.1h-2.8v1.6H200.9z"/>
	<path fill="#58595B" d="M206.4,2.5h-4V2.1h1.3V0.4h0.3v1.7h0.8V0.4h0.3v1.7h1.3V2.5z M206.4,6.3l0,0.4c-1.4,0.2-2.9,0.4-3.9,0.6
		l-0.1-0.4c0.5-0.1,1.1-0.2,1.8-0.3V5.5h-1.3V5.1h1.3v-1h-1.6V3.8h2.1c0.2-0.3,0.5-0.9,0.6-1.2l0.4,0.1c-0.2,0.4-0.4,0.8-0.6,1.1h1
		v0.3h-1.6v1h1.4v0.3h-1.4v1.1L206.4,6.3z M203.3,1.9c-0.1-0.3-0.5-0.8-0.8-1.1l0.3-0.2c0.3,0.3,0.7,0.8,0.8,1.1L203.3,1.9z
		 M203.8,3.7c-0.1-0.3-0.4-0.7-0.6-1l0.3-0.1c0.3,0.3,0.5,0.7,0.6,0.9L203.8,3.7z M206.3,0.8c-0.3,0.4-0.6,0.8-0.9,1.1l-0.3-0.2
		c0.3-0.3,0.6-0.8,0.8-1.2L206.3,0.8z M209.6,3h-0.9v4.1c0,0.3-0.1,0.4-0.3,0.5c-0.2,0.1-0.6,0.1-1.2,0.1c0-0.1-0.1-0.3-0.2-0.4
		c0.5,0,1,0,1.1,0c0.1,0,0.2,0,0.2-0.2V3h-2V2.6h2V0.4h0.4v2.2h0.9V3z M207.4,5.7c-0.1-0.5-0.4-1.3-0.8-1.8l0.3-0.1
		c0.4,0.6,0.7,1.3,0.8,1.8L207.4,5.7z"/>
	<path fill="#58595B" d="M213.2,3.4c0,0,0,0.2,0,0.2c-0.1,2.6-0.2,3.4-0.5,3.7c-0.1,0.1-0.2,0.2-0.4,0.2c-0.2,0-0.4,0-0.7,0
		c0-0.1,0-0.3-0.1-0.4c0.3,0,0.5,0,0.7,0c0.1,0,0.2,0,0.2-0.1c0.2-0.2,0.3-1,0.4-3.3h-1.2c-0.1,1.7-0.3,3-1,3.9
		c-0.1-0.1-0.2-0.2-0.3-0.3c0.9-1,1-3,1-5.2h-0.9V1.7h3.2v0.4h-1.9c0,0.4,0,0.8,0,1.2H213.2z M212.1,1.6c-0.1-0.3-0.4-0.8-0.7-1.2
		l0.3-0.1c0.3,0.3,0.6,0.8,0.7,1.1L212.1,1.6z M215.7,0.5c0,0.1-0.1,0.2-0.1,0.4c0.4,0.9,1.3,1.9,2.1,2.3c-0.1,0.1-0.2,0.2-0.3,0.3
		c-0.7-0.4-1.4-1.3-1.9-2.2c-0.4,1-1,1.8-1.8,2.3c-0.1-0.1-0.2-0.2-0.3-0.3c0.9-0.6,1.7-1.7,2-2.9L215.7,0.5z M214.4,5.7
		c0.7,0.4,1.7,0.9,2.1,1.3l-0.2,0.4c-0.5-0.4-1.4-1-2.1-1.4L214.4,5.7z M214.9,3.5c0.5,0.3,1.1,0.7,1.4,1L216,4.8
		c-0.3-0.3-0.9-0.8-1.4-1.1L214.9,3.5z"/>
	<path fill="#58595B" d="M220.3,2.3c-0.3,1.1-0.9,1.9-1.7,2.5c-0.1-0.1-0.2-0.2-0.3-0.3c1.1-0.7,1.7-1.8,1.9-3.4h-1.6V0.8h5.2
		c-0.1,0.5-0.2,1-0.4,1.4h1.7c0,0,0,0.1,0,0.2c-0.1,1.3-0.2,1.8-0.4,2c-0.1,0.1-0.2,0.2-0.4,0.2c-0.2,0-0.6,0-1,0
		c0-0.1-0.1-0.2-0.1-0.3c0.4,0,0.8,0,0.9,0c0.1,0,0.2,0,0.3-0.1c0.1-0.1,0.2-0.5,0.3-1.6H223c0.1-0.4,0.3-0.9,0.4-1.4h-2.8
		c0,0.3-0.1,0.6-0.2,0.8h2l0.1,0l0.2,0.1c-0.2,0.6-0.4,1.1-0.7,1.4c0.4,0.2,0.7,0.5,0.9,0.7l-0.3,0.2c-0.2-0.2-0.5-0.5-0.9-0.7
		c-0.4,0.4-0.9,0.7-1.5,0.8c0-0.1-0.2-0.2-0.2-0.3c0.6-0.2,1-0.4,1.4-0.8c-0.4-0.2-0.7-0.4-1.1-0.5l0.3-0.2c0.4,0.1,0.7,0.3,1.1,0.5
		c0.2-0.3,0.4-0.6,0.6-1H220.3z M225.6,7v0.4h-7.2V7h0.9V5h5.4V7H225.6z M219.6,7h1.3V5.3h-1.3V7z M221.3,5.3V7h1.3V5.3H221.3z
		 M223,5.3V7h1.3V5.3H223z"/>
	<path fill="#58595B" d="M229.1,1.9c-0.3-0.2-0.7-0.6-1.2-0.9c-0.4,0.6-0.9,1.1-1.5,1.5c0-0.1-0.2-0.3-0.2-0.3
		c0.7-0.4,1.3-1.1,1.7-1.8l0.3,0.1c0,0.1-0.1,0.2-0.2,0.3c0.4,0.3,0.9,0.7,1.2,0.9L229.1,1.9z M228.5,5.6c0.3,0.5,0.7,1.2,0.9,1.6
		L229,7.4c-0.1-0.2-0.2-0.4-0.3-0.7c-1.7,0.7-1.9,0.8-2,1c0-0.1-0.1-0.3-0.1-0.4c0.1,0,0.3-0.1,0.3-0.4v-4h2.2v2.6h-1.8V7l1.3-0.6
		c-0.1-0.2-0.3-0.5-0.4-0.7L228.5,5.6z M227.2,3.1v0.8h1.5V3.1H227.2z M228.7,5V4.2h-1.5V5H228.7z M227.3,2.2V1.9h1.3v0.3H227.3z
		 M230.5,5.2c-0.3,0.6-0.7,1.3-1,1.8c-0.1-0.1-0.2-0.2-0.3-0.2c0.4-0.5,0.7-1.1,1-1.7L230.5,5.2z M231.9,0.5
		c-0.1,0.1-0.1,0.2-0.2,0.3c0.6,0.7,1.3,1.2,2,1.6c-0.1,0.1-0.2,0.2-0.2,0.3c-0.7-0.4-1.4-0.9-2-1.6c-0.5,0.6-1.2,1.2-1.9,1.6
		c-0.1-0.1-0.2-0.2-0.2-0.3c0.9-0.4,1.8-1.2,2.2-2L231.9,0.5z M231.7,4.6v2.6c0,0.2-0.1,0.4-0.2,0.4c-0.2,0.1-0.5,0.1-1,0.1
		c0-0.1-0.1-0.2-0.1-0.3c0.4,0,0.7,0,0.8,0c0.1,0,0.1,0,0.1-0.1V4.6h-1.8V4.2h1.8V3.1H230V2.7h3v0.4h-1.4v1.1h1.9v0.4H231.7z
		 M232.6,5c0.3,0.6,0.8,1.3,1,1.8L233.3,7c-0.2-0.5-0.6-1.2-1-1.8L232.6,5z"/>
	<path fill="#58595B" d="M240.7,2.2c-1,1.4-2.8,3.2-4.5,4.1c0.1,0.1,0.2,0.2,0.4,0.3c0.5,0.3,1.2,0.4,2,0.4c1,0,2.2-0.1,3-0.1
		c0,0.1-0.1,0.3-0.1,0.4c-0.6,0-2.1,0.1-2.8,0.1c-1,0-1.6-0.1-2.2-0.4c-0.3-0.2-0.6-0.5-0.7-0.5c-0.3,0-0.6,0.4-1.1,1l-0.3-0.3
		c0.5-0.6,1-1,1.4-1c0,0,0.1,0,0.1,0c1.5-0.9,3.3-2.4,4.2-3.7h-5.3V2h5.5l0.1,0L240.7,2.2z M238.2,1.9c-0.2-0.3-0.5-0.9-0.8-1.3
		l0.3-0.2c0.3,0.4,0.7,1,0.9,1.3L238.2,1.9z"/>
	<path fill="#58595B" d="M245.8,6.1c0,0.1,0,0.3,0,0.4c-2.3,0.7-2.6,0.7-2.8,0.8c0-0.1-0.1-0.3-0.2-0.3c0.1-0.1,0.3-0.2,0.3-0.5V0.4
		h0.4v2.5h2.2v0.4h-2.2v3.4L245.8,6.1z M248.7,7.1c0.4,0,0.5-0.3,0.5-1.5c0.1,0.1,0.2,0.2,0.4,0.2c-0.1,1.3-0.2,1.7-0.9,1.7h-1.5
		c-0.7,0-0.9-0.2-0.9-0.9V0.4h0.4v2.5h2.3v0.4h-2.3v3.3c0,0.4,0.1,0.5,0.5,0.5H248.7z"/>
	<path fill="#58595B" d="M252.2,0.5c-0.2,0.6-0.4,1.1-0.6,1.6v5.5h-0.4V2.9c-0.2,0.4-0.5,0.8-0.7,1.1c0-0.1-0.2-0.3-0.2-0.4
		c0.6-0.8,1.2-2,1.5-3.2L252.2,0.5z M252.3,0.9h2.6v0.4h-1.4c-0.1,0.5-0.2,1-0.3,1.4h1.4l0.1,0l0.2,0.1c-0.2,2.8-1.2,4.2-2.5,4.9
		c-0.1-0.1-0.2-0.2-0.2-0.3c0.7-0.3,1.3-1,1.8-1.9c-0.3-0.3-0.8-0.8-1.3-1.1c-0.1,0.2-0.2,0.4-0.4,0.6c-0.1-0.1-0.2-0.2-0.3-0.3
		c0.6-0.8,1-2,1.2-3.4h-0.9V0.9z M253.2,3c-0.1,0.4-0.2,0.7-0.4,1c0.5,0.3,1,0.8,1.3,1.1c0.2-0.6,0.4-1.3,0.5-2.1H253.2z M255.9,5.7
		h-0.3V1.4h0.3V5.7z M257.2,0.4V7c0,0.3-0.1,0.4-0.3,0.5c-0.2,0.1-0.6,0.1-1.2,0.1c0-0.1-0.1-0.3-0.1-0.4c0.5,0,0.9,0,1,0
		c0.1,0,0.2,0,0.2-0.2V0.4H257.2z"/>
	<path fill="#58595B" d="M259.2,7.4c0.6-0.3,1-0.8,1-1.4c-0.1,0-0.1,0-0.2,0c-0.3,0-0.5-0.2-0.5-0.5s0.2-0.5,0.5-0.5
		c0.4,0,0.6,0.3,0.6,0.8c0,0.9-0.5,1.5-1.3,1.8L259.2,7.4z M259.4,2.1c0-0.3,0.2-0.5,0.5-0.5s0.5,0.2,0.5,0.5c0,0.3-0.2,0.5-0.5,0.5
		S259.4,2.4,259.4,2.1z"/>
	<path fill="#58595B" d="M2.5,21.8v2.9H2.1v-2.9H0.4v-0.4h1.7v-1H0.4v-0.3h2.2c0.2-0.4,0.4-1,0.5-1.4l0.4,0.1
		c-0.1,0.4-0.3,0.9-0.5,1.3h1.1v0.3H2.5v1h1.6v0.4H2.5z M1.6,22.4c-0.2,0.6-0.5,1.2-0.8,1.6c-0.1,0-0.2-0.2-0.3-0.2
		c0.3-0.4,0.6-0.9,0.8-1.5L1.6,22.4z M4,18.6H0.5v-0.3h1.7C2.1,18,2,17.7,1.8,17.5l0.4-0.1c0.2,0.3,0.4,0.6,0.5,0.9H4V18.6z M1.5,20
		c0-0.3-0.2-0.9-0.3-1.2l0.3-0.1c0.2,0.4,0.3,0.9,0.4,1.2L1.5,20z M3.3,22.2c0.3,0.4,0.6,1,0.7,1.3l-0.3,0.2
		c-0.1-0.4-0.4-0.9-0.7-1.4L3.3,22.2z M7.6,20.5h-1v4.1H6.3v-4.1H5v0.4c0,1.1-0.1,2.7-0.9,3.7c-0.1-0.1-0.2-0.2-0.3-0.2
		c0.7-1,0.8-2.4,0.8-3.5v-2.7c0.9-0.1,2-0.4,2.5-0.6l0.3,0.3c-0.7,0.2-1.6,0.4-2.5,0.6v1.7h2.6V20.5z"/>
	<path fill="#58595B" d="M15.6,22.3v0.4H8.4v-0.4h0.7L9,18c0.5-0.1,1-0.3,1.4-0.5l0.2,0.3c-0.4,0.1-0.8,0.3-1.2,0.4l0,1.1h1v0.3h-1
		l0,1.2h1v0.3h-1l0,1.2h1.2v-4.5h2.7v4.5h1.2c0-0.3,0-0.7,0.1-1.1h-1v-0.3h1c0-0.4,0-0.8,0-1.2h-1v-0.3h1c0-0.4,0-0.9,0-1.3h-1.1
		v-0.3H15c0,1.4-0.1,3.4-0.1,4.6H15.6z M11.1,23.2c-0.6,0.5-1.6,1.1-2.4,1.4c0-0.1-0.2-0.2-0.2-0.3c0.8-0.3,1.7-0.9,2.2-1.4
		L11.1,23.2z M11,22.3h2v-4.2h-2V22.3z M12.7,18.8v0.3h-1.5v-0.3H12.7z M11.4,19.7h1.3v1.9h-1.3V19.7z M11.6,21.3h0.7V20h-0.7V21.3z
		 M13.1,22.9c0.9,0.4,1.8,0.9,2.3,1.4l-0.3,0.3c-0.6-0.4-1.4-1-2.3-1.4L13.1,22.9z"/>
	<path fill="#58595B" d="M20.2,19v1.2h2.6V23c0,0.3-0.1,0.4-0.3,0.5c-0.2,0.1-0.7,0.1-1.4,0.1c0-0.1-0.1-0.3-0.1-0.4
		c0.6,0,1.1,0,1.3,0c0.2,0,0.2-0.1,0.2-0.2v-2.5h-2.2v4.1h-0.4v-4.1h-2.1v3.1h-0.4v-3.5h2.5V19h-3.3v-0.4H20
		c-0.1-0.3-0.4-0.8-0.6-1.2l0.4-0.1c0.2,0.4,0.5,0.9,0.6,1.2l-0.3,0.1h3.4V19H20.2z"/>
	<path fill="#58595B" d="M26.9,21.9c-0.8,0.4-1.7,0.8-2.4,1.2l-0.2-0.4c0.3-0.1,0.7-0.3,1.1-0.5v-2.7h-1v-0.4h1v-1.7h0.4v1.7h0.9
		v0.4h-0.9V22l0.9-0.4L26.9,21.9z M28.3,21c-0.1,0.2-0.3,0.5-0.4,0.7h3.6c0,0,0,0.1,0,0.2c-0.1,1.7-0.3,2.3-0.5,2.5
		c-0.1,0.1-0.2,0.2-0.4,0.2c-0.2,0-0.5,0-0.8,0c0-0.1,0-0.2-0.1-0.3c0.3,0,0.6,0,0.7,0c0.1,0,0.2,0,0.2-0.1c0.2-0.2,0.3-0.7,0.4-2.2
		h-0.8c-0.3,1-0.9,2.1-1.6,2.6c-0.1-0.1-0.2-0.2-0.3-0.2c0.7-0.5,1.3-1.4,1.6-2.4h-1c-0.4,0.9-1.2,1.8-2,2.3
		c-0.1-0.1-0.2-0.2-0.3-0.3c0.7-0.4,1.5-1.2,1.9-2h-1c-0.3,0.4-0.7,0.7-1.1,1c0-0.1-0.2-0.2-0.3-0.3c0.7-0.4,1.3-1,1.7-1.8h-1.2
		v-0.4h5V21H28.3z M31,20.2h-3.6v-2.5H31V20.2z M30.7,18h-2.9v0.8h2.9V18z M30.7,19.1h-2.9v0.8h2.9V19.1z"/>
	<path fill="#58595B" d="M34.2,19.1h1.2v0.4h-1.2v0.9c0.3,0.3,1,1.1,1.2,1.4L35.2,22c-0.2-0.3-0.6-0.8-1-1.2v3.8h-0.4v-4.2
		c-0.3,1-0.8,2.1-1.3,2.7c0-0.1-0.2-0.2-0.2-0.3c0.6-0.7,1.2-2,1.5-3.2h-1.3v-0.4h1.4v-1.7h0.4V19.1z M39.3,17.9v6.7h-0.4v-0.5h-2.8
		v0.5h-0.4v-6.7H39.3z M36.2,18.2v1.5h2.8v-1.5H36.2z M36.2,21.7h2.8v-1.6h-2.8V21.7z M38.9,23.7v-1.6h-2.8v1.6H38.9z"/>
	<path fill="#58595B" d="M44.4,19.5h-4v-0.3h1.3v-1.7H42v1.7h0.8v-1.7h0.3v1.7h1.3V19.5z M44.4,23.3l0,0.4c-1.4,0.2-2.9,0.4-3.9,0.6
		l-0.1-0.4c0.5-0.1,1.1-0.2,1.8-0.3v-1.2h-1.3v-0.3h1.3v-1h-1.6v-0.3h2.1c0.2-0.3,0.5-0.9,0.6-1.2l0.4,0.1c-0.2,0.4-0.4,0.8-0.6,1.1
		h1v0.3h-1.6v1H44v0.3h-1.4v1.1L44.4,23.3z M41.3,18.9c-0.1-0.3-0.5-0.8-0.8-1.1l0.3-0.2c0.3,0.3,0.7,0.8,0.8,1.1L41.3,18.9z
		 M41.8,20.7c-0.1-0.3-0.4-0.7-0.6-1l0.3-0.1c0.3,0.3,0.5,0.7,0.6,0.9L41.8,20.7z M44.4,17.8c-0.3,0.4-0.6,0.8-0.9,1.1l-0.3-0.2
		c0.3-0.3,0.6-0.8,0.8-1.2L44.4,17.8z M47.6,20h-0.9v4.1c0,0.3-0.1,0.4-0.3,0.5c-0.2,0.1-0.6,0.1-1.2,0.1c0-0.1-0.1-0.3-0.2-0.4
		c0.5,0,1,0,1.1,0c0.1,0,0.2,0,0.2-0.2V20h-2v-0.4h2v-2.2h0.4v2.2h0.9V20z M45.4,22.7c-0.1-0.5-0.4-1.3-0.8-1.8l0.3-0.1
		c0.4,0.6,0.7,1.3,0.8,1.8L45.4,22.7z"/>
	<path fill="#58595B" d="M51.2,20.4c0,0,0,0.2,0,0.2c-0.1,2.6-0.2,3.4-0.5,3.7c-0.1,0.1-0.2,0.2-0.4,0.2c-0.2,0-0.4,0-0.7,0
		c0-0.1,0-0.3-0.1-0.4c0.3,0,0.5,0,0.7,0c0.1,0,0.2,0,0.2-0.1c0.2-0.2,0.3-1,0.4-3.3h-1.2c-0.1,1.7-0.3,3-1,3.9
		c-0.1-0.1-0.2-0.2-0.3-0.3c0.9-1,1-3,1-5.2h-0.9v-0.4h3.2v0.4h-1.9c0,0.4,0,0.8,0,1.2H51.2z M50.1,18.6c-0.1-0.3-0.4-0.8-0.7-1.2
		l0.3-0.1c0.3,0.3,0.6,0.8,0.7,1.1L50.1,18.6z M53.8,17.5c0,0.1-0.1,0.2-0.1,0.4c0.4,0.9,1.3,1.9,2.1,2.3c-0.1,0.1-0.2,0.2-0.3,0.3
		c-0.7-0.4-1.4-1.3-1.9-2.2c-0.4,1-1,1.8-1.8,2.3c-0.1-0.1-0.2-0.2-0.3-0.3c0.9-0.6,1.7-1.7,2-2.9L53.8,17.5z M52.5,22.7
		c0.7,0.4,1.7,0.9,2.1,1.3l-0.2,0.4c-0.5-0.4-1.4-1-2.1-1.4L52.5,22.7z M52.9,20.5c0.5,0.3,1.1,0.7,1.4,1l-0.3,0.3
		c-0.3-0.3-0.9-0.8-1.4-1.1L52.9,20.5z"/>
	<path fill="#58595B" d="M62,24c0.9,0,1-0.3,1.1-1.7c0.1,0.1,0.3,0.2,0.4,0.2c-0.1,1.4-0.3,1.9-1.6,1.9h-3.2c-1.1,0-1.5-0.2-1.5-1
		v-4.2h0.4v1.4h4.5v-2.3h-5.4v-0.4h5.8v3.5h-0.4V21h-4.5v2.4c0,0.5,0.2,0.6,1.1,0.6H62z"/>
	<path fill="#58595B" d="M65.1,20.3v4.3h-0.4v-6.9h2.8v2.6H65.1z M65.1,18.1v0.8h2.1v-0.8H65.1z M67.2,20v-0.8h-2.1V20H67.2z
		 M69,22.6v1.9h-0.4v-1.9h-1.3c0,0.5-0.3,1.4-1.1,2c-0.1-0.1-0.2-0.2-0.3-0.2c0.8-0.5,1-1.2,1-1.7h-1.1v-0.4h1.1v-1h-1v-0.3h4v0.3
		h-1v1h1.2v0.4H69z M68.6,22.3v-1h-1.3v1H68.6z M71.3,24c0,0.3-0.1,0.4-0.3,0.5c-0.2,0.1-0.6,0.1-1.2,0.1c0-0.1-0.1-0.3-0.1-0.4
		c0.5,0,0.9,0,1.1,0c0.1,0,0.2,0,0.2-0.2v-3.7h-2.5v-2.6h2.9V24z M68.8,18.1v0.8h2.1v-0.8H68.8z M70.9,20v-0.8h-2.1V20H70.9z"/>
	<path fill="#58595B" d="M75.3,22.5c0,0,0,0.1,0,0.2c-0.1,1.1-0.2,1.6-0.4,1.8c-0.1,0.1-0.2,0.2-0.5,0.2c-0.2,0-0.6,0-1.1,0
		c0-0.1-0.1-0.2-0.1-0.3c0.5,0,0.9,0,1.1,0c0.2,0,0.2,0,0.3-0.1c0.1-0.1,0.2-0.5,0.3-1.4h-1.9c0.1-0.4,0.2-1.1,0.3-1.6h1.7v-1h-1.4
		V20c-0.3,0.2-0.7,0.3-1,0.4c0-0.1-0.1-0.2-0.2-0.3c0.6-0.2,1.2-0.5,1.7-0.8c-0.2-0.3-0.6-0.6-1-0.8l0.2-0.2c0.4,0.2,0.8,0.6,1,0.8
		c0.4-0.3,0.7-0.7,0.9-1h-2v-0.3h2.2l0.1,0l0.2,0.1c-0.4,0.8-1,1.5-1.8,1.9h1.4v1.7h-1.8c0,0.3-0.1,0.7-0.1,1H75.3z M79.4,18.4
		c-0.4,0.3-0.8,0.7-1.2,1c0.5,0.3,1,0.5,1.5,0.6c-0.1,0.1-0.2,0.2-0.2,0.3c-0.5-0.1-0.9-0.3-1.3-0.6v1.3c0,0.2,0,0.2,0.1,0.2H79
		c0.1,0,0.3,0,0.4,0c0,0.1,0,0.2,0,0.3c-0.1,0-0.2,0-0.4,0h-0.8c-0.4,0-0.5-0.1-0.5-0.5v-1h-1.3v0.3c0,0.5-0.2,1-0.9,1.4
		c-0.1-0.1-0.2-0.2-0.3-0.2c0.7-0.3,0.8-0.8,0.8-1.2v-0.7h1.8v0h0.2c-0.9-0.6-1.7-1.4-2.1-2.3l0.3-0.1c0.2,0.4,0.4,0.7,0.7,1.1
		c0.4-0.3,0.9-0.7,1.2-1l0.3,0.2c-0.4,0.4-0.9,0.8-1.3,1c0.2,0.2,0.4,0.4,0.7,0.6c0.4-0.3,0.9-0.7,1.2-1L79.4,18.4z M78.8,22.2
		c-0.2,0.6-0.6,1.1-1.1,1.4c0.5,0.3,0.9,0.6,1.2,0.8l-0.2,0.3c-0.3-0.2-0.7-0.5-1.2-0.8c-0.6,0.4-1.2,0.6-1.9,0.8
		c0-0.1-0.1-0.2-0.2-0.3c0.6-0.1,1.2-0.4,1.8-0.7c-0.5-0.3-0.9-0.6-1.3-0.8l0.2-0.2c0.4,0.2,0.9,0.5,1.4,0.8c0.4-0.3,0.7-0.6,0.9-1
		h-2.6v-0.3h2.8l0.1,0L78.8,22.2z"/>
	<path fill="#58595B" d="M87.3,17.8v6.9h-0.4v-0.4h-5.8v0.4h-0.4v-6.9H87.3z M86.9,23.9v-5.8h-5.8v5.8H86.9z M84.1,22.5
		c-0.9,0.2-1.8,0.4-2.4,0.5l-0.1-0.3c0.6-0.1,1.6-0.3,2.5-0.5L84.1,22.5z M86,20.2c-0.2,0.8-0.5,1.5-0.9,2.1
		c0.2,0.5,0.5,0.9,0.8,0.9c0.1,0,0.2-0.3,0.3-0.9c0.1,0.1,0.2,0.1,0.3,0.2c-0.1,0.8-0.3,1.1-0.6,1c-0.4-0.1-0.7-0.4-1-0.9
		c-0.3,0.4-0.7,0.8-1.2,1.1c-0.1-0.1-0.2-0.2-0.2-0.3c0.5-0.3,0.9-0.7,1.3-1.2c-0.2-0.7-0.4-1.6-0.5-2.5h-2.6v-0.3h2.6
		c0-0.3,0-0.6-0.1-1h0.3c0,0.3,0,0.6,0.1,1h1.9v0.3h-1.9c0.1,0.8,0.2,1.6,0.4,2.2c0.3-0.5,0.6-1.1,0.7-1.7L86,20.2z M83.7,20.3v1.6
		h-1.8v-1.6H83.7z M83.4,20.5h-1.1v1h1.1V20.5z M85.9,19.1c-0.2-0.2-0.6-0.4-0.9-0.6l0.2-0.2c0.3,0.1,0.7,0.4,0.9,0.6L85.9,19.1z"/>
	<path fill="#58595B" d="M94.7,20.5c-0.4,0.3-0.9,0.7-1.4,1c0.4,1.1,1.2,2.1,2.3,2.5c-0.1,0.1-0.2,0.2-0.3,0.3
		c-1.1-0.5-1.9-1.4-2.4-2.6c-0.2,0.1-0.3,0.2-0.5,0.3c0.3,1.1,0.1,2.1-0.4,2.4c-0.2,0.2-0.4,0.2-0.7,0.2c-0.2,0-0.4,0-0.7,0
		c0-0.1,0-0.3-0.1-0.4c0.3,0,0.6,0,0.7,0c0.2,0,0.4,0,0.6-0.2c0.3-0.2,0.5-0.9,0.4-1.7c-0.9,0.7-2.3,1.5-3.5,1.8
		c0-0.1-0.1-0.2-0.2-0.3c1.3-0.3,2.9-1.1,3.7-1.8c-0.1-0.2-0.1-0.5-0.3-0.7c-0.8,0.6-2,1.2-3,1.5c0-0.1-0.1-0.2-0.2-0.3
		c1-0.3,2.4-0.9,3.1-1.4c-0.1-0.2-0.3-0.4-0.5-0.6c-0.7,0.4-1.6,0.8-2.4,1c0-0.1-0.1-0.2-0.2-0.3c1-0.3,2.2-0.7,3-1.3h-2v-0.4h4.7
		v0.4h-2.1c-0.2,0.2-0.4,0.3-0.6,0.5c0.4,0.4,0.7,0.9,0.9,1.4c0.6-0.4,1.4-1,1.9-1.4L94.7,20.5z M89.1,19.7h-0.4v-1.5h3.1
		c-0.1-0.2-0.2-0.5-0.4-0.7l0.4-0.1c0.2,0.2,0.3,0.6,0.4,0.8h3v1.5h-0.4v-1.2h-5.8V19.7z"/>
	<path fill="#58595B" d="M102.8,19.2c-1,1.4-2.8,3.2-4.5,4.1c0.1,0.1,0.2,0.2,0.4,0.3c0.5,0.3,1.2,0.4,2,0.4c1,0,2.2-0.1,3-0.1
		c0,0.1-0.1,0.3-0.1,0.4c-0.6,0-2.1,0.1-2.8,0.1c-1,0-1.6-0.1-2.2-0.4c-0.3-0.2-0.6-0.5-0.7-0.5c-0.3,0-0.6,0.4-1.1,1l-0.3-0.3
		c0.5-0.6,1-1,1.4-1c0,0,0.1,0,0.1,0c1.5-0.9,3.3-2.4,4.2-3.7h-5.3V19h5.5l0.1,0L102.8,19.2z M100.3,18.9c-0.2-0.3-0.5-0.9-0.8-1.3
		l0.3-0.2c0.3,0.4,0.7,1,0.9,1.3L100.3,18.9z"/>
	<path fill="#58595B" d="M108.7,19.5c0.6,1.5,1.7,2.8,3,3.4c-0.1,0.1-0.2,0.2-0.3,0.3c-1.2-0.7-2.4-2.2-3-3.8h-0.2v3.1h2V23h-2v1.6
		h-0.4V23h-2v-0.4h2v-3.1h-0.2c-0.6,1.6-1.8,3-3,3.8c-0.1-0.1-0.2-0.2-0.3-0.3c1.1-0.7,2.2-2,2.9-3.5h-2.7v-0.4h3.2v-1.8h0.4v1.8
		h3.3v0.4H108.7z"/>
	<path fill="#58595B" d="M119.6,24v0.4h-7.2V24h1.1v-2.6h5.1V24H119.6z M119.4,19.3h-6.9V19h6.9V19.3z M115,20
		c-0.5,0.5-1.5,1.1-2.1,1.4c-0.1-0.1-0.2-0.2-0.3-0.3c0.7-0.3,1.7-0.9,2.1-1.3L115,20z M113.9,24h1.2v-2.2h-1.2V24z M114.7,18.9
		c-0.1-0.4-0.5-1-0.8-1.4l0.3-0.2c0.3,0.4,0.7,1,0.9,1.4L114.7,18.9z M115.4,21.8V24h1.2v-2.2H115.4z M119.2,21.3
		c-0.5-0.3-1.6-0.8-2.4-1.1l0.2-0.3c0.8,0.3,1.9,0.8,2.4,1.1L119.2,21.3z M118.2,17.5c-0.3,0.5-0.6,1-1,1.4l-0.3-0.1
		c0.3-0.4,0.7-1,0.9-1.4L118.2,17.5z M117,21.8V24h1.2v-2.2H117z"/>
	<path fill="#58595B" d="M123.8,23.1c0,0.1,0,0.3,0,0.4c-2.3,0.7-2.6,0.7-2.8,0.8c0-0.1-0.1-0.3-0.2-0.3c0.1-0.1,0.3-0.2,0.3-0.5
		v-6.1h0.4v2.5h2.2v0.4h-2.2v3.4L123.8,23.1z M126.8,24.1c0.4,0,0.5-0.3,0.5-1.5c0.1,0.1,0.2,0.2,0.4,0.2c-0.1,1.3-0.2,1.7-0.9,1.7
		h-1.5c-0.7,0-0.9-0.2-0.9-0.9v-6.1h0.4v2.5h2.3v0.4h-2.3v3.3c0,0.4,0.1,0.5,0.5,0.5H126.8z"/>
	<path fill="#58595B" d="M131.2,21.2c-0.4,0.1-0.8,0.3-1.2,0.4v2.5c0,0.3-0.1,0.4-0.2,0.4c-0.2,0.1-0.5,0.1-1,0.1
		c0-0.1-0.1-0.3-0.1-0.4c0.4,0,0.7,0,0.8,0c0.1,0,0.2,0,0.2-0.2v-2.4c-0.4,0.1-0.8,0.3-1.2,0.4l-0.1-0.4c0.4-0.1,0.8-0.2,1.3-0.4
		v-1.9h-1.2v-0.4h1.2v-1.7h0.4v1.7h1.1v0.4h-1.1v1.8c0.4-0.1,0.7-0.2,1.1-0.4L131.2,21.2z M135.6,20.4h-1.5v4.2h-0.4v-4.2H132v0.3
		c0,1.4-0.1,2.8-1,3.9c-0.1-0.1-0.2-0.2-0.3-0.2c0.8-1.1,0.9-2.4,0.9-3.7v-2.6c1.2-0.1,2.6-0.4,3.4-0.6l0.2,0.3
		c-0.8,0.3-2.1,0.5-3.3,0.6V20h3.6V20.4z"/>
	<path fill="#58595B" d="M138.3,17.5c-0.2,0.5-0.4,1.1-0.6,1.6v5.5h-0.4v-4.8c-0.3,0.5-0.6,1-0.9,1.3c0-0.1-0.2-0.3-0.2-0.4
		c0.7-0.8,1.4-2.1,1.8-3.4L138.3,17.5z M140.4,23.8c-0.5,0.3-1.2,0.7-2,0.8c-0.1-0.1-0.2-0.2-0.2-0.3c0.7-0.2,1.5-0.5,1.9-0.8
		L140.4,23.8z M140.1,18.1h-1.6v-0.3h5.1v0.3h-1.7v0.6h1.5v1.5h-4.7v-1.5h1.4V18.1z M138.8,23.5v-2.8h4.3v2.8H138.8z M139,19.9h1.1
		V19H139V19.9z M139.2,21.5h3.6v-0.5h-3.6V21.5z M139.2,22.3h3.6v-0.6h-3.6V22.3z M139.2,23.2h3.6v-0.6h-3.6V23.2z M141.5,18.1h-1.1
		v0.6h1.1V18.1z M140.4,19.9h1.1V19h-1.1V19.9z M141.7,23.6c0.7,0.2,1.5,0.5,1.9,0.8l-0.3,0.2c-0.4-0.2-1.1-0.6-1.8-0.8L141.7,23.6z
		 M141.8,19v0.9h1.1V19H141.8z"/>
	<path fill="#58595B" d="M148.1,23.3c-1.2,0.3-2.6,0.6-3.5,0.8l-0.1-0.4c0.9-0.2,2.2-0.5,3.5-0.7L148.1,23.3z M151.1,19.9
		c-0.4,1.1-0.9,2-1.5,2.8c0.3,1,0.8,1.6,1.3,1.6c0.3,0,0.4-0.4,0.4-1.5c0.1,0.1,0.2,0.2,0.3,0.2c-0.1,1.3-0.2,1.7-0.8,1.7
		c-0.7,0-1.2-0.6-1.6-1.6c-0.6,0.6-1.2,1.2-2,1.6c-0.1-0.1-0.2-0.2-0.3-0.3c0.8-0.4,1.5-1,2.1-1.7c-0.3-0.9-0.5-2.2-0.6-3.5h-4v-0.4
		h4c0-0.4,0-0.9,0-1.3h0.4c0,0.5,0,0.9,0,1.3h2.5v0.4H149c0.1,1.2,0.2,2.3,0.5,3.1c0.5-0.7,0.9-1.5,1.2-2.5L151.1,19.9z M147.8,19.9
		v2.4h-2.6v-2.4H147.8z M147.4,20.3h-1.9v1.7h1.9V20.3z M151,18.6c-0.3-0.3-0.9-0.7-1.5-0.9l0.2-0.2c0.5,0.2,1.2,0.6,1.5,0.9
		L151,18.6z"/>
	<path fill="#58595B" d="M152.6,19.7c0.5,0.3,1,0.7,1.3,1l-0.3,0.3c-0.3-0.3-0.8-0.7-1.3-1L152.6,19.7z M152.6,24.2
		c0.3-0.6,0.7-1.7,1-2.6l0.3,0.2c-0.3,0.8-0.6,1.9-0.9,2.6L152.6,24.2z M152.9,17.5c0.5,0.3,1,0.8,1.3,1.1l-0.3,0.3
		c-0.3-0.3-0.8-0.8-1.3-1.1L152.9,17.5z M159.6,24v0.4H154V24h0.8v-2.4h4.1V24H159.6z M156.3,20.1c-0.4,0.5-1.2,1.1-1.8,1.4
		c-0.1-0.1-0.2-0.2-0.3-0.3c0.6-0.3,1.4-0.8,1.8-1.3L156.3,20.1z M159.4,19.6h-5.2v-0.4h5.2V19.6z M155.8,18.9
		c-0.2-0.4-0.5-1-0.8-1.4l0.3-0.1c0.3,0.4,0.6,1,0.8,1.3L155.8,18.9z M155.1,24h0.9v-2h-0.9V24z M156.4,21.9v2h0.9v-2H156.4z
		 M159.2,21.4c-0.4-0.4-1.2-0.9-1.9-1.3l0.2-0.2c0.6,0.4,1.5,0.9,1.9,1.3L159.2,21.4z M158.6,17.6c-0.3,0.5-0.6,1-0.9,1.4l-0.3-0.2
		c0.3-0.4,0.6-1,0.8-1.4L158.6,17.6z M157.6,21.9v2h0.9v-2H157.6z"/>
	<path fill="#58595B" d="M162.3,17.5c-0.2,0.5-0.4,1.1-0.6,1.6v5.5h-0.4v-4.8c-0.3,0.5-0.6,1-0.9,1.3c0-0.1-0.2-0.3-0.2-0.4
		c0.7-0.8,1.4-2.1,1.8-3.4L162.3,17.5z M164.4,23.8c-0.5,0.3-1.2,0.7-2,0.8c-0.1-0.1-0.2-0.2-0.2-0.3c0.7-0.2,1.5-0.5,1.9-0.8
		L164.4,23.8z M164.1,18.1h-1.6v-0.3h5.1v0.3h-1.7v0.6h1.5v1.5h-4.7v-1.5h1.4V18.1z M162.8,23.5v-2.8h4.3v2.8H162.8z M163,19.9h1.1
		V19H163V19.9z M163.2,21.5h3.6v-0.5h-3.6V21.5z M163.2,22.3h3.6v-0.6h-3.6V22.3z M163.2,23.2h3.6v-0.6h-3.6V23.2z M165.5,18.1h-1.1
		v0.6h1.1V18.1z M164.4,19.9h1.1V19h-1.1V19.9z M165.7,23.6c0.7,0.2,1.5,0.5,1.9,0.8l-0.3,0.2c-0.4-0.2-1.1-0.6-1.8-0.8L165.7,23.6z
		 M165.8,19v0.9h1.1V19H165.8z"/>
	<path fill="#58595B" d="M174.8,19.2c-1,1.4-2.8,3.2-4.5,4.1c0.1,0.1,0.2,0.2,0.4,0.3c0.5,0.3,1.2,0.4,2,0.4c1,0,2.2-0.1,3-0.1
		c0,0.1-0.1,0.3-0.1,0.4c-0.6,0-2.1,0.1-2.8,0.1c-1,0-1.6-0.1-2.2-0.4c-0.3-0.2-0.6-0.5-0.7-0.5c-0.3,0-0.6,0.4-1.1,1l-0.3-0.3
		c0.5-0.6,1-1,1.4-1c0,0,0.1,0,0.1,0c1.5-0.9,3.3-2.4,4.2-3.7h-5.3V19h5.5l0.1,0L174.8,19.2z M172.3,18.9c-0.2-0.3-0.5-0.9-0.8-1.3
		l0.3-0.2c0.3,0.4,0.7,1,0.9,1.3L172.3,18.9z"/>
	<path fill="#58595B" d="M178.8,21.9c-0.1-0.2-0.4-0.8-0.7-1.2v3.9h-0.4v-3.9c-0.3,0.9-0.8,1.9-1.2,2.4c0-0.1-0.1-0.3-0.2-0.4
		c0.5-0.6,1.1-1.7,1.4-2.7h-1.2v-0.4h1.3v-1.5c-0.4,0.1-0.7,0.2-1.1,0.2c0-0.1-0.1-0.2-0.1-0.3c0.8-0.1,1.7-0.4,2.2-0.6l0.3,0.3
		c-0.3,0.1-0.6,0.2-0.9,0.3v1.6h1.1V20h-1.1v0.3c0.2,0.3,0.8,1.1,0.9,1.3L178.8,21.9z M183.6,24v0.4H179V24h2.1v-1.3h-1.7v-0.4h1.7
		v-1.1c-0.5,0.1-1,0.1-1.4,0.1c0-0.1-0.1-0.2-0.1-0.3c1.1-0.1,2.4-0.2,3.1-0.5l0.3,0.3c-0.4,0.1-0.9,0.2-1.5,0.3v1.2h1.7v0.4h-1.7
		V24H183.6z M183.1,20.2h-3.5v-2.4h3.5V20.2z M182.8,18.2H180v1.7h2.8V18.2z"/>
	<path fill="#58595B" d="M185.5,20.4c0,1.2-0.1,3-0.8,4.2c-0.1-0.1-0.2-0.2-0.3-0.2c0.7-1.2,0.7-2.8,0.7-4v-2.2h3.1
		c-0.1-0.2-0.3-0.6-0.4-0.8l0.4-0.1c0.2,0.3,0.4,0.6,0.5,0.9h2.9v0.4h-6.1V20.4z M190.8,22.1c-0.4,0.7-1,1.2-1.8,1.6
		c0.8,0.3,1.7,0.5,2.6,0.6c-0.1,0.1-0.2,0.2-0.2,0.3c-1-0.1-2-0.4-2.8-0.8c-0.9,0.4-1.9,0.6-3,0.7c0-0.1-0.1-0.2-0.2-0.3
		c0.9-0.1,1.9-0.3,2.7-0.6c-0.6-0.3-1.1-0.8-1.5-1.3l0.3-0.1h-1.2V22h4.7l0.1,0L190.8,22.1z M187.1,21.3V20h-1.4v-0.3h1.4v-0.8h0.4
		v0.8h2.2v-0.8h0.4v0.8h1.4V20h-1.4v1.4H187.1z M187.1,22.3c0.4,0.5,0.9,0.9,1.5,1.2c0.7-0.3,1.3-0.7,1.6-1.2H187.1z M187.5,20v1
		h2.2v-1H187.5z"/>
	<path fill="#58595B" d="M194,19.8c0.6,0,1.2,0.5,1.2,1.2s-0.5,1.2-1.2,1.2c-0.6,0-1.2-0.5-1.2-1.2S193.4,19.8,194,19.8z M194,21.9
		c0.5,0,0.9-0.4,0.9-0.9c0-0.5-0.4-0.9-0.9-0.9c-0.5,0-0.9,0.4-0.9,0.9C193.2,21.5,193.5,21.9,194,21.9z"/>
	<path fill="#58595B" d="M203.5,18.3v0.4h-6.9v-0.4h3.4c-0.1-0.3-0.2-0.6-0.3-0.8l0.3-0.1c0.1,0.3,0.2,0.6,0.3,0.9H203.5z
		 M203.2,24.1c0,0.2,0,0.3-0.2,0.4c-0.2,0.1-0.5,0.1-1,0.1c0-0.1-0.1-0.2-0.1-0.3c0.4,0,0.7,0,0.8,0c0.1,0,0.1,0,0.1-0.1v-2.6h-5.6
		v3.1h-0.4v-3.4h6.3V24.1z M202.2,19.2v1.5h-4.4v-1.5H202.2z M201.8,19.5h-3.7v0.9h3.7V19.5z M201.6,23.7h-3v0.4h-0.4v-2h3.3V23.7z
		 M198.7,22.4v0.9h2.6v-0.9H198.7z"/>
	<path fill="#58595B" d="M207.2,20.4c0,0,0,0.2,0,0.2c-0.1,2.6-0.2,3.4-0.5,3.7c-0.1,0.1-0.2,0.2-0.4,0.2c-0.2,0-0.4,0-0.7,0
		c0-0.1,0-0.3-0.1-0.4c0.3,0,0.5,0,0.7,0c0.1,0,0.2,0,0.2-0.1c0.2-0.2,0.3-1,0.4-3.3h-1.2c-0.1,1.7-0.3,3-1,3.9
		c-0.1-0.1-0.2-0.2-0.3-0.3c0.9-1,1-3,1-5.2h-0.9v-0.4h3.2v0.4h-1.9c0,0.4,0,0.8,0,1.2H207.2z M206.1,18.6c-0.1-0.3-0.4-0.8-0.7-1.2
		l0.3-0.1c0.3,0.3,0.6,0.8,0.7,1.1L206.1,18.6z M209.8,17.5c0,0.1-0.1,0.2-0.1,0.4c0.4,0.9,1.3,1.9,2.1,2.3
		c-0.1,0.1-0.2,0.2-0.3,0.3c-0.7-0.4-1.4-1.3-1.9-2.2c-0.4,1-1,1.8-1.8,2.3c-0.1-0.1-0.2-0.2-0.3-0.3c0.9-0.6,1.7-1.7,2-2.9
		L209.8,17.5z M208.5,22.7c0.7,0.4,1.7,0.9,2.1,1.3l-0.2,0.4c-0.5-0.4-1.4-1-2.1-1.4L208.5,22.7z M208.9,20.5c0.5,0.3,1.1,0.7,1.4,1
		l-0.3,0.3c-0.3-0.3-0.9-0.8-1.4-1.1L208.9,20.5z"/>
	<path fill="#58595B" d="M212.7,23.6h1.3v-4.7h-1v-0.3c0.5-0.1,0.8-0.2,1.1-0.4h0.4v5.4h1.2V24h-3V23.6z"/>
	<path fill="#58595B" d="M216.7,21.1c0-2,0.7-3,1.7-3c1.1,0,1.7,1,1.7,3c0,2-0.7,3-1.7,3C217.4,24.1,216.7,23.2,216.7,21.1z
		 M219.7,21.1c0-1.7-0.5-2.6-1.2-2.6c-0.8,0-1.3,0.9-1.3,2.6c0,1.8,0.5,2.6,1.3,2.6C219.2,23.8,219.7,22.9,219.7,21.1z"/>
	<path fill="#58595B" d="M221,21.1c0-2,0.7-3,1.7-3c1.1,0,1.7,1,1.7,3c0,2-0.7,3-1.7,3C221.6,24.1,221,23.2,221,21.1z M224,21.1
		c0-1.7-0.5-2.6-1.2-2.6c-0.8,0-1.3,0.9-1.3,2.6c0,1.8,0.5,2.6,1.3,2.6C223.5,23.8,224,22.9,224,21.1z"/>
	<path fill="#58595B" d="M225.2,19.9c0-1.2,0.5-1.8,1.3-1.8c0.8,0,1.3,0.7,1.3,1.8c0,1.2-0.5,1.8-1.3,1.8
		C225.7,21.8,225.2,21.1,225.2,19.9z M227.3,19.9c0-1-0.4-1.5-0.9-1.5c-0.5,0-0.9,0.5-0.9,1.5c0,1,0.3,1.5,0.9,1.5
		C227,21.4,227.3,20.9,227.3,19.9z M229.9,18.1h0.4l-3.2,6h-0.4L229.9,18.1z M229.1,22.3c0-1.2,0.5-1.8,1.3-1.8
		c0.8,0,1.3,0.7,1.3,1.8c0,1.2-0.5,1.8-1.3,1.8C229.6,24.1,229.1,23.5,229.1,22.3z M231.3,22.3c0-1-0.4-1.5-0.9-1.5
		c-0.5,0-0.9,0.5-0.9,1.5s0.3,1.5,0.9,1.5C230.9,23.8,231.3,23.3,231.3,22.3z"/>
	<path fill="#58595B" d="M235,17.6c-0.3,0.6-0.6,1.2-0.9,1.7v5.3h-0.4v-4.8c-0.4,0.5-0.8,1-1.2,1.3c0-0.1-0.2-0.3-0.2-0.3
		c1-0.8,1.9-2,2.4-3.3L235,17.6z M237.1,20.2c0.3,2.3,0.9,3.9,1.9,4c0.3,0,0.4-0.5,0.5-1.5c0.1,0.1,0.2,0.2,0.3,0.2
		c-0.2,1.3-0.4,1.7-0.8,1.7c-1.3-0.1-1.9-1.8-2.3-4.4l-2.1,0.3l-0.1-0.4l2.1-0.3c-0.1-0.7-0.1-1.6-0.2-2.4h0.4
		c0,0.8,0.1,1.6,0.2,2.4l2.5-0.3l0.1,0.4L237.1,20.2z M239.1,19.1c-0.3-0.4-0.9-0.9-1.4-1.3l0.3-0.2c0.5,0.4,1.1,0.9,1.4,1.3
		L239.1,19.1z"/>
	<path fill="#58595B" d="M247.2,21.5c-0.5,0.4-1.1,0.9-1.6,1.2c0.6,0.6,1.3,1,2.1,1.2c-0.1,0.1-0.2,0.2-0.3,0.3
		c-1.6-0.5-2.8-1.8-3.4-3.4h-0.1c-0.4,0.4-0.8,0.8-1.3,1.1v2l2.1-0.6c0,0.1,0,0.2,0.1,0.3c-2.2,0.7-2.4,0.8-2.6,0.9
		c0-0.1-0.1-0.3-0.2-0.4c0.1,0,0.3-0.2,0.3-0.5v-1.5c-0.5,0.3-1.1,0.6-1.6,0.7c-0.1-0.1-0.2-0.2-0.3-0.3c1-0.3,2.3-1,3-1.8h-2.8
		v-0.4h3.2v-0.9h-2.5v-0.3h2.5v-0.8h-2.9v-0.4h2.9v-0.8h0.4v0.8h3v0.4h-3v0.8h2.6v0.3h-2.6v0.9h3.2v0.4h-3.1c0.2,0.6,0.6,1.1,1,1.6
		c0.5-0.4,1.1-0.8,1.5-1.2L247.2,21.5z"/>
	<path fill="#58595B" d="M250.5,21.8v2.9h-0.4v-2.9h-1.7v-0.4h1.7v-1h-1.7v-0.3h2.2c0.2-0.4,0.4-1,0.5-1.4l0.4,0.1
		c-0.1,0.4-0.3,0.9-0.5,1.3h1.1v0.3h-1.6v1h1.6v0.4H250.5z M249.6,22.4c-0.2,0.6-0.5,1.2-0.8,1.6c-0.1,0-0.2-0.2-0.3-0.2
		c0.3-0.4,0.6-0.9,0.8-1.5L249.6,22.4z M252,18.6h-3.5v-0.3h1.7c-0.1-0.2-0.3-0.6-0.4-0.8l0.4-0.1c0.2,0.3,0.4,0.6,0.5,0.9h1.3V18.6
		z M249.5,20c0-0.3-0.2-0.9-0.3-1.2l0.3-0.1c0.2,0.4,0.3,0.9,0.4,1.2L249.5,20z M251.3,22.2c0.3,0.4,0.6,1,0.7,1.3l-0.3,0.2
		c-0.1-0.4-0.4-0.9-0.7-1.4L251.3,22.2z M255.6,20.5h-1v4.1h-0.4v-4.1H253v0.4c0,1.1-0.1,2.7-0.9,3.7c-0.1-0.1-0.2-0.2-0.3-0.2
		c0.7-1,0.8-2.4,0.8-3.5v-2.7c0.9-0.1,2-0.4,2.5-0.6l0.3,0.3c-0.7,0.2-1.6,0.4-2.5,0.6v1.7h2.6V20.5z"/>
	<path fill="#58595B" d="M263.6,22.3v0.4h-7.1v-0.4h0.7L257,18c0.5-0.1,1-0.3,1.4-0.5l0.2,0.3c-0.4,0.1-0.8,0.3-1.2,0.4l0,1.1h1v0.3
		h-1l0,1.2h1v0.3h-1l0,1.2h1.2v-4.5h2.7v4.5h1.2c0-0.3,0-0.7,0.1-1.1h-1v-0.3h1c0-0.4,0-0.8,0-1.2h-1v-0.3h1c0-0.4,0-0.9,0-1.3h-1.1
		v-0.3h1.5c0,1.4-0.1,3.4-0.1,4.6H263.6z M259.1,23.2c-0.6,0.5-1.6,1.1-2.4,1.4c0-0.1-0.2-0.2-0.2-0.3c0.8-0.3,1.7-0.9,2.2-1.4
		L259.1,23.2z M259,22.3h2v-4.2h-2V22.3z M260.7,18.8v0.3h-1.5v-0.3H260.7z M259.4,19.7h1.3v1.9h-1.3V19.7z M259.6,21.3h0.7V20h-0.7
		V21.3z M261.1,22.9c0.9,0.4,1.8,0.9,2.3,1.4l-0.3,0.3c-0.6-0.4-1.4-1-2.3-1.4L261.1,22.9z"/>
	<path fill="#58595B" d="M4.2,36v1.2h2.6V40c0,0.3-0.1,0.4-0.3,0.5c-0.2,0.1-0.7,0.1-1.4,0.1c0-0.1-0.1-0.3-0.1-0.4
		c0.6,0,1.1,0,1.3,0c0.2,0,0.2-0.1,0.2-0.2v-2.5H4.2v4.1H3.8v-4.1H1.7v3.1H1.3v-3.5h2.5V36H0.5v-0.4H4c-0.1-0.3-0.4-0.8-0.6-1.2
		l0.4-0.1c0.2,0.4,0.5,0.9,0.6,1.2l-0.3,0.1h3.4V36H4.2z"/>
	<path fill="#58595B" d="M10.9,38.9c-0.8,0.4-1.7,0.8-2.4,1.2l-0.2-0.4c0.3-0.1,0.7-0.3,1.1-0.5v-2.7h-1v-0.4h1v-1.7h0.4v1.7h0.9
		v0.4H9.8V39l0.9-0.4L10.9,38.9z M12.3,38c-0.1,0.2-0.3,0.5-0.4,0.7h3.6c0,0,0,0.1,0,0.2c-0.1,1.7-0.3,2.3-0.5,2.5
		c-0.1,0.1-0.2,0.2-0.4,0.2c-0.2,0-0.5,0-0.8,0c0-0.1,0-0.2-0.1-0.3c0.3,0,0.6,0,0.7,0c0.1,0,0.2,0,0.2-0.1c0.2-0.2,0.3-0.7,0.4-2.2
		h-0.8c-0.3,1-0.9,2.1-1.6,2.6c-0.1-0.1-0.2-0.2-0.3-0.2c0.7-0.5,1.3-1.4,1.6-2.4h-1c-0.4,0.9-1.2,1.8-2,2.3
		c-0.1-0.1-0.2-0.2-0.3-0.3c0.7-0.4,1.5-1.2,1.9-2h-1c-0.3,0.4-0.7,0.7-1.1,1c0-0.1-0.2-0.2-0.3-0.3c0.7-0.4,1.3-1,1.7-1.8h-1.2
		v-0.4h5V38H12.3z M15,37.2h-3.6v-2.5H15V37.2z M14.7,35h-2.9v0.8h2.9V35z M14.7,36.1h-2.9v0.8h2.9V36.1z"/>
	<path fill="#58595B" d="M18.9,38.3c-0.3,0.1-0.6,0.2-0.9,0.3V41c0,0.3-0.1,0.4-0.2,0.4c-0.2,0.1-0.5,0.1-1,0.1
		c0-0.1-0.1-0.2-0.1-0.4c0.4,0,0.8,0,0.9,0c0.1,0,0.2,0,0.2-0.2v-2.3c-0.4,0.1-0.8,0.2-1.1,0.4l-0.1-0.4c0.4-0.1,0.8-0.2,1.3-0.4
		v-1.9h-1.2v-0.4h1.2v-1.7H18v1.7H19v0.4H18v1.8l0.8-0.3L18.9,38.3z M23,38c-0.3,0.9-0.9,1.7-1.7,2.3c0.6,0.5,1.4,0.8,2.3,1
		c-0.1,0.1-0.2,0.2-0.2,0.4c-0.9-0.2-1.7-0.6-2.3-1.1c-0.7,0.5-1.6,0.9-2.5,1.1c0-0.1-0.1-0.3-0.2-0.4c0.8-0.2,1.6-0.5,2.4-1
		c-0.6-0.5-1.1-1.2-1.4-2H19v-0.4h3.7l0.1,0L23,38z M20.2,35.6c0,0.7-0.2,1.5-1.1,2.1c0-0.1-0.2-0.2-0.2-0.3c0.9-0.5,1-1.2,1-1.8
		v-0.9h2.4v1.9c0,0.2,0,0.3,0.2,0.3h0.7c0.1,0,0.3,0,0.4,0c0,0.1,0,0.3,0,0.3c-0.1,0-0.3,0-0.4,0h-0.8c-0.4,0-0.5-0.2-0.5-0.6v-1.5
		h-1.6V35.6z M19.6,38.3c0.3,0.7,0.8,1.3,1.4,1.8c0.6-0.5,1.1-1.1,1.4-1.8H19.6z"/>
	<path fill="#58595B" d="M26.7,36.5h-2.2v-0.3h2.2V36.5z M27.2,40.7c-0.6,0.4-1.6,0.7-2.4,0.9c-0.1-0.1-0.2-0.2-0.3-0.3
		c0.8-0.2,1.8-0.5,2.4-0.8L27.2,40.7z M26.5,35.2h-1.8v-0.3h1.8V35.2z M25.5,37.2h5.1v3.2h-5.1V37.2z M25.9,38.1h4.3v-0.7h-4.3V38.1
		z M25.9,39.1h4.3v-0.7h-4.3V39.1z M25.9,40.1h4.3v-0.7h-4.3V40.1z M27.9,35.3c-0.2,0.3-0.4,0.6-0.6,0.9C27.2,36.1,27.1,36,27,36
		c0.4-0.4,0.7-1,0.9-1.6l0.4,0.1c-0.1,0.2-0.1,0.3-0.2,0.5h3l0.1,0l0.3,0.1c-0.2,0.4-0.4,0.8-0.6,1.1L30.4,36
		c0.1-0.2,0.3-0.5,0.4-0.7h-1.5v0.1c0,0.1,0,0.2,0,0.4c0.4,0.5,1.3,0.9,2.4,1c-0.1,0.1-0.2,0.2-0.2,0.3c-1-0.1-1.8-0.5-2.2-1
		c-0.2,0.4-0.8,0.8-2.3,1.1c0-0.1-0.1-0.2-0.2-0.3c2.1-0.3,2.3-1,2.3-1.5v-0.1H27.9z M29.1,40.5c0.9,0.2,1.8,0.6,2.4,0.8l-0.3,0.2
		c-0.5-0.2-1.4-0.6-2.3-0.8L29.1,40.5z"/>
	<path fill="#58595B" d="M32.4,35.8h2.8v0.3h-2.8V35.8z M34.9,41.1h-1.9v0.4h-0.3v-2.7h2.2V41.1z M34.9,36.8v0.3h-2.2v-0.3H34.9z
		 M32.8,37.8H35v0.3h-2.2V37.8z M33.1,39.2v1.6h1.5v-1.6H33.1z M33.9,35.6c-0.1-0.3-0.4-0.7-0.6-1l0.3-0.2c0.2,0.3,0.5,0.7,0.6,1
		L33.9,35.6z M39.7,38.7h-2v3h-0.4v-3h-2.1v-0.4h2.1v-3.1h-1.7v-0.4h3.9v0.4h-1.8v3.1h2V38.7z M36.1,35.7c0.2,0.7,0.4,1.5,0.5,2
		l-0.3,0.1c0-0.6-0.2-1.4-0.5-2L36.1,35.7z M38.3,37.8c0.2-0.5,0.5-1.5,0.6-2.1l0.4,0.1c-0.2,0.7-0.4,1.5-0.6,2.1L38.3,37.8z"/>
	<path fill="#58595B" d="M42.3,34.5c-0.2,0.5-0.4,1.1-0.6,1.6v5.5h-0.4v-4.8c-0.3,0.5-0.6,1-0.9,1.3c0-0.1-0.2-0.3-0.2-0.4
		c0.7-0.8,1.4-2.1,1.8-3.4L42.3,34.5z M44.4,40.8c-0.5,0.3-1.2,0.7-2,0.8c-0.1-0.1-0.2-0.2-0.2-0.3c0.7-0.2,1.5-0.5,1.9-0.8
		L44.4,40.8z M44.1,35.1h-1.6v-0.3h5.1v0.3h-1.7v0.6h1.5v1.5h-4.7v-1.5h1.4V35.1z M42.8,40.5v-2.8h4.3v2.8H42.8z M43,36.9h1.1V36H43
		V36.9z M43.2,38.5h3.6v-0.5h-3.6V38.5z M43.2,39.3h3.6v-0.6h-3.6V39.3z M43.2,40.2h3.6v-0.6h-3.6V40.2z M45.5,35.1h-1.1v0.6h1.1
		V35.1z M44.4,36.9h1.1V36h-1.1V36.9z M45.7,40.6c0.7,0.2,1.5,0.5,1.9,0.8l-0.3,0.2c-0.4-0.2-1.1-0.6-1.8-0.8L45.7,40.6z M45.8,36
		v0.9h1.1V36H45.8z"/>
	<path fill="#58595B" d="M50.2,40.2v1.4h-0.4v-1.4h-1.4v-0.3h1.4v-0.7h-1.1v-2.8h1.1v-0.7h-1.3v-0.4h1.3v-0.9h0.4v0.9h1.3v0.4h-1.3
		v0.7h1.2v2.8h-1.2v0.7h1.4v0.3H50.2z M49,37.6h0.8v-0.9H49V37.6z M49,38.8h0.8v-0.9H49V38.8z M51,36.7h-0.8v0.9H51V36.7z M51,37.9
		h-0.8v0.9H51V37.9z M54.6,37.7c-0.2,0.7-0.5,1.4-0.9,2c0.5,0.7,1.2,1.3,2,1.6c-0.1,0.1-0.2,0.2-0.3,0.3c-0.7-0.3-1.4-0.9-1.9-1.6
		c-0.5,0.7-1.2,1.2-2,1.6c0-0.1-0.2-0.2-0.3-0.3c0.8-0.4,1.5-1,2-1.7c-0.4-0.6-0.7-1.2-0.9-1.9l0.3-0.1c0.2,0.6,0.5,1.2,0.8,1.7
		c0.3-0.5,0.6-1.1,0.7-1.7L54.6,37.7z M53,36.4c-0.3,0.6-0.8,1.3-1.2,1.8c-0.1-0.1-0.2-0.2-0.3-0.2c0.4-0.4,0.8-1.1,1.1-1.6L53,36.4
		z M55.5,35.9h-3.9v-0.4h3.9V35.9z M53.5,35.5c-0.1-0.3-0.3-0.7-0.5-1l0.3-0.2c0.2,0.3,0.4,0.7,0.6,0.9L53.5,35.5z M54.4,36.2
		c0.4,0.5,1,1.2,1.2,1.6l-0.3,0.2c-0.3-0.4-0.8-1.1-1.2-1.7L54.4,36.2z"/>
	<path fill="#58595B" d="M59.7,40c0,0.1,0,0.3,0,0.3c-2.4,0.5-2.7,0.5-2.8,0.6c0-0.1-0.1-0.2-0.2-0.3c0.1,0,0.3-0.2,0.3-0.5v-1.8
		c0.8-0.2,1.8-0.4,2.4-0.7l0.3,0.3c-0.6,0.2-1.5,0.5-2.3,0.6v1.8L59.7,40z M62.7,37.4h-5.4v-2.7h5.4V37.4z M62.3,35h-4.6v0.8h4.6V35
		z M62.3,36.2h-4.6v0.9h4.6V36.2z M63.1,40.5c0,0.2-0.1,0.4-0.2,0.4C62.6,41,62.3,41,61.6,41c0-0.1-0.1-0.2-0.1-0.3c0.5,0,1,0,1.1,0
		c0.1,0,0.2,0,0.2-0.1v-2.1h-2.2v3.2h-0.4v-3.5h2.9V40.5z"/>
	<path fill="#58595B" d="M71.5,36.7V37h-7v-0.3h3.3v-0.5h-2.2v-1.3h2.2v-0.5h0.4v0.5h2.4v1.3h-2.4v0.5H71.5z M67.2,40.8
		c-0.6,0.3-1.7,0.7-2.5,0.9c-0.1-0.1-0.2-0.2-0.3-0.3c0.8-0.2,1.8-0.4,2.4-0.7L67.2,40.8z M70.6,40.4h-5.1v-3h5.1V40.4z M70.2,37.8
		h-4.3v0.6h4.3V37.8z M70.2,38.7h-4.3v0.6h4.3V38.7z M70.2,39.6h-4.3v0.6h4.3V39.6z M67.8,35.9v-0.7h-1.9v0.7H67.8z M68.2,35.2v0.7
		h2v-0.7H68.2z M69.1,40.6c0.9,0.2,1.9,0.5,2.4,0.8l-0.4,0.2c-0.5-0.2-1.4-0.5-2.3-0.8L69.1,40.6z"/>
	<path fill="#58595B" d="M73.2,39.1c0.6-0.3,1-0.7,1-1.3c-0.1,0-0.1,0-0.2,0c-0.3,0-0.5-0.2-0.5-0.5c0-0.3,0.2-0.5,0.5-0.5
		c0.4,0,0.6,0.3,0.6,0.8c0,0.8-0.5,1.4-1.3,1.7L73.2,39.1z"/>
	<path fill="#58595B" d="M82.7,37c-0.4,1.3-1.1,2.3-1.9,3c0.7,0.6,1.6,1,2.7,1.2c-0.1,0.1-0.2,0.2-0.3,0.4c-1.1-0.3-2-0.7-2.8-1.3
		c-0.8,0.6-1.7,1-2.6,1.3c0-0.1-0.1-0.3-0.2-0.4c0.9-0.2,1.8-0.6,2.5-1.2c-0.8-0.7-1.3-1.6-1.7-2.8h-0.6c0,1.3-0.2,3.1-1,4.3
		c-0.1-0.1-0.2-0.2-0.3-0.2c0.9-1.3,1-3,1-4.3v-2.1h5.7v0.4h-5.3v1.6h4.5l0.1,0L82.7,37z M78.9,37.3c0.4,1,0.9,1.9,1.6,2.5
		c0.7-0.6,1.4-1.5,1.7-2.5H78.9z"/>
	<path fill="#58595B" d="M90.8,36.2c-1,1.4-2.8,3.2-4.5,4.1c0.1,0.1,0.2,0.2,0.4,0.3c0.5,0.3,1.2,0.4,2,0.4c1,0,2.2-0.1,3-0.1
		c0,0.1-0.1,0.3-0.1,0.4c-0.6,0-2.1,0.1-2.8,0.1c-1,0-1.6-0.1-2.2-0.4c-0.3-0.2-0.6-0.5-0.7-0.5c-0.3,0-0.6,0.4-1.1,1l-0.3-0.3
		c0.5-0.6,1-1,1.4-1c0,0,0.1,0,0.1,0c1.5-0.9,3.3-2.4,4.2-3.7h-5.3V36h5.5l0.1,0L90.8,36.2z M88.3,35.9c-0.2-0.3-0.5-0.9-0.8-1.3
		l0.3-0.2c0.3,0.4,0.7,1,0.9,1.3L88.3,35.9z"/>
	<path fill="#58595B" d="M93.8,40.1c-0.3,0.6-0.7,1.2-1.1,1.6c-0.1-0.1-0.2-0.2-0.3-0.2c0.4-0.4,0.8-0.9,1.1-1.4L93.8,40.1z
		 M95.8,34.7v5h-3v-5H95.8z M93.2,36.2h2.3V35h-2.3V36.2z M93.2,37.7h2.3v-1.2h-2.3V37.7z M93.2,39.3h2.3v-1.2h-2.3V39.3z M95.2,40
		c0.4,0.4,0.8,1,0.9,1.3l-0.4,0.2c-0.2-0.4-0.6-1-0.9-1.4L95.2,40z M97.2,35.3v4.4h-0.4v-4.4H97.2z M99.2,34.5V41
		c0,0.3-0.1,0.4-0.3,0.5c-0.2,0.1-0.6,0.1-1.4,0.1c0-0.1-0.1-0.3-0.2-0.4c0.6,0,1.1,0,1.2,0c0.2,0,0.2,0,0.2-0.2v-6.5H99.2z"/>
	<path fill="#58595B" d="M103,34.6c-0.3,0.6-0.6,1.2-0.9,1.7v5.3h-0.4v-4.8c-0.4,0.5-0.8,1-1.2,1.3c0-0.1-0.2-0.3-0.2-0.3
		c1-0.8,1.9-2,2.4-3.3L103,34.6z M105.1,37.2c0.3,2.3,0.9,3.9,1.9,4c0.3,0,0.4-0.5,0.5-1.5c0.1,0.1,0.2,0.2,0.3,0.2
		c-0.2,1.3-0.4,1.7-0.8,1.7c-1.3-0.1-1.9-1.8-2.3-4.4l-2.1,0.3l-0.1-0.4l2.1-0.3c-0.1-0.7-0.1-1.6-0.2-2.4h0.4
		c0,0.8,0.1,1.6,0.2,2.4l2.5-0.3l0.1,0.4L105.1,37.2z M107.1,36.1c-0.3-0.4-0.9-0.9-1.4-1.3l0.3-0.2c0.5,0.4,1.1,0.9,1.4,1.3
		L107.1,36.1z"/>
	<path fill="#58595B" d="M115.1,38.5c-0.5,0.4-1.1,0.9-1.6,1.2c0.6,0.6,1.3,1,2.1,1.2c-0.1,0.1-0.2,0.2-0.3,0.3
		c-1.6-0.5-2.8-1.8-3.4-3.4h-0.1c-0.4,0.4-0.8,0.8-1.3,1.1v2l2.1-0.6c0,0.1,0,0.2,0.1,0.3c-2.2,0.7-2.4,0.8-2.6,0.9
		c0-0.1-0.1-0.3-0.2-0.4c0.1,0,0.3-0.2,0.3-0.5v-1.5c-0.5,0.3-1.1,0.6-1.6,0.7c-0.1-0.1-0.2-0.2-0.3-0.3c1-0.3,2.3-1,3-1.8h-2.8
		v-0.4h3.2v-0.9h-2.5v-0.3h2.5v-0.8h-2.9v-0.4h2.9v-0.8h0.4v0.8h3v0.4h-3v0.8h2.6v0.3h-2.6v0.9h3.2v0.4h-3.1c0.2,0.6,0.6,1.1,1,1.6
		c0.5-0.4,1.1-0.8,1.5-1.2L115.1,38.5z"/>
	<path fill="#58595B" d="M122,41c0.9,0,1-0.3,1.1-1.7c0.1,0.1,0.3,0.2,0.4,0.2c-0.1,1.4-0.3,1.9-1.6,1.9h-3.2c-1.1,0-1.5-0.2-1.5-1
		v-4.2h0.4v1.4h4.5v-2.3h-5.4v-0.4h5.8v3.5h-0.4V38h-4.5v2.4c0,0.5,0.2,0.6,1.1,0.6H122z"/>
	<path fill="#58595B" d="M125.1,37.3v4.3h-0.4v-6.9h2.8v2.6H125.1z M125.1,35.1v0.8h2.1v-0.8H125.1z M127.2,37v-0.8h-2.1V37H127.2z
		 M129,39.6v1.9h-0.4v-1.9h-1.3c0,0.5-0.3,1.4-1.1,2c-0.1-0.1-0.2-0.2-0.3-0.2c0.8-0.5,1-1.2,1-1.7h-1.1v-0.4h1.1v-1h-1v-0.3h4v0.3
		h-1v1h1.2v0.4H129z M128.6,39.3v-1h-1.3v1H128.6z M131.3,41c0,0.3-0.1,0.4-0.3,0.5c-0.2,0.1-0.6,0.1-1.2,0.1c0-0.1-0.1-0.3-0.1-0.4
		c0.5,0,0.9,0,1.1,0c0.1,0,0.2,0,0.2-0.2v-3.7h-2.5v-2.6h2.9V41z M128.8,35.1v0.8h2.1v-0.8H128.8z M130.9,37v-0.8h-2.1V37H130.9z"/>
	<path fill="#58595B" d="M135.3,39.5c0,0,0,0.1,0,0.2c-0.1,1.1-0.2,1.6-0.4,1.8c-0.1,0.1-0.2,0.2-0.5,0.2c-0.2,0-0.6,0-1.1,0
		c0-0.1-0.1-0.2-0.1-0.3c0.5,0,0.9,0,1.1,0c0.2,0,0.2,0,0.3-0.1c0.1-0.1,0.2-0.5,0.3-1.4h-1.9c0.1-0.4,0.2-1.1,0.3-1.6h1.7v-1h-1.4
		V37c-0.3,0.2-0.7,0.3-1,0.4c0-0.1-0.1-0.2-0.2-0.3c0.6-0.2,1.2-0.5,1.7-0.8c-0.2-0.3-0.6-0.6-1-0.8l0.2-0.2c0.4,0.2,0.8,0.6,1,0.8
		c0.4-0.3,0.7-0.7,0.9-1h-2v-0.3h2.2l0.1,0l0.2,0.1c-0.4,0.8-1,1.5-1.8,1.9h1.4v1.7h-1.8c0,0.3-0.1,0.7-0.1,1H135.3z M139.4,35.4
		c-0.4,0.3-0.8,0.7-1.2,1c0.5,0.3,1,0.5,1.5,0.6c-0.1,0.1-0.2,0.2-0.2,0.3c-0.5-0.1-0.9-0.3-1.3-0.6v1.3c0,0.2,0,0.2,0.1,0.2h0.7
		c0.1,0,0.3,0,0.4,0c0,0.1,0,0.2,0,0.3c-0.1,0-0.2,0-0.4,0h-0.8c-0.4,0-0.5-0.1-0.5-0.5v-1h-1.3v0.3c0,0.5-0.2,1-0.9,1.4
		c-0.1-0.1-0.2-0.2-0.3-0.2c0.7-0.3,0.8-0.8,0.8-1.2v-0.7h1.8v0h0.2c-0.9-0.6-1.7-1.4-2.1-2.3l0.3-0.1c0.2,0.4,0.4,0.7,0.7,1.1
		c0.4-0.3,0.9-0.7,1.2-1l0.3,0.2c-0.4,0.4-0.9,0.8-1.3,1c0.2,0.2,0.4,0.4,0.7,0.6c0.4-0.3,0.9-0.7,1.2-1L139.4,35.4z M138.8,39.2
		c-0.2,0.6-0.6,1.1-1.1,1.4c0.5,0.3,0.9,0.6,1.2,0.8l-0.2,0.3c-0.3-0.2-0.7-0.5-1.2-0.8c-0.6,0.4-1.2,0.6-1.9,0.8
		c0-0.1-0.1-0.2-0.2-0.3c0.6-0.1,1.2-0.4,1.8-0.7c-0.5-0.3-0.9-0.6-1.3-0.8l0.2-0.2c0.4,0.2,0.9,0.5,1.4,0.8c0.4-0.3,0.7-0.6,0.9-1
		h-2.6v-0.3h2.8l0.1,0L138.8,39.2z"/>
	<path fill="#58595B" d="M147.3,34.8v6.9h-0.4v-0.4h-5.8v0.4h-0.4v-6.9H147.3z M146.9,40.9v-5.8h-5.8v5.8H146.9z M144.1,39.5
		c-0.9,0.2-1.8,0.4-2.4,0.5l-0.1-0.3c0.6-0.1,1.6-0.3,2.5-0.5L144.1,39.5z M146,37.2c-0.2,0.8-0.5,1.5-0.9,2.1
		c0.2,0.5,0.5,0.9,0.8,0.9c0.1,0,0.2-0.3,0.3-0.9c0.1,0.1,0.2,0.1,0.3,0.2c-0.1,0.8-0.3,1.1-0.6,1c-0.4-0.1-0.7-0.4-1-0.9
		c-0.3,0.4-0.7,0.8-1.2,1.1c-0.1-0.1-0.2-0.2-0.2-0.3c0.5-0.3,0.9-0.7,1.3-1.2c-0.2-0.7-0.4-1.6-0.5-2.5h-2.6v-0.3h2.6
		c0-0.3,0-0.6-0.1-1h0.3c0,0.3,0,0.6,0.1,1h1.9v0.3h-1.9c0.1,0.8,0.2,1.6,0.4,2.2c0.3-0.5,0.6-1.1,0.7-1.7L146,37.2z M143.7,37.3
		v1.6h-1.8v-1.6H143.7z M143.4,37.5h-1.1v1h1.1V37.5z M145.9,36.1c-0.2-0.2-0.6-0.4-0.9-0.6l0.2-0.2c0.3,0.1,0.7,0.4,0.9,0.6
		L145.9,36.1z"/>
	<path fill="#58595B" d="M154.7,37.5c-0.4,0.3-0.9,0.7-1.4,1c0.4,1.1,1.2,2.1,2.3,2.5c-0.1,0.1-0.2,0.2-0.3,0.3
		c-1.1-0.5-1.9-1.4-2.4-2.6c-0.2,0.1-0.3,0.2-0.5,0.3c0.3,1.1,0.1,2.1-0.4,2.4c-0.2,0.2-0.4,0.2-0.7,0.2c-0.2,0-0.4,0-0.7,0
		c0-0.1,0-0.3-0.1-0.4c0.3,0,0.6,0,0.7,0c0.2,0,0.4,0,0.6-0.2c0.3-0.2,0.5-0.9,0.4-1.7c-0.9,0.7-2.3,1.5-3.5,1.8
		c0-0.1-0.1-0.2-0.2-0.3c1.3-0.3,2.9-1.1,3.7-1.8c-0.1-0.2-0.1-0.5-0.3-0.7c-0.8,0.6-2,1.2-3,1.5c0-0.1-0.1-0.2-0.2-0.3
		c1-0.3,2.4-0.9,3.1-1.4c-0.1-0.2-0.3-0.4-0.5-0.6c-0.7,0.4-1.6,0.8-2.4,1c0-0.1-0.1-0.2-0.2-0.3c1-0.3,2.2-0.7,3-1.3h-2v-0.4h4.7
		v0.4h-2.1c-0.2,0.2-0.4,0.3-0.6,0.5c0.4,0.4,0.7,0.9,0.9,1.4c0.6-0.4,1.4-1,1.9-1.4L154.7,37.5z M149.1,36.7h-0.4v-1.5h3.1
		c-0.1-0.2-0.2-0.5-0.4-0.7l0.4-0.1c0.2,0.2,0.3,0.6,0.4,0.8h3v1.5h-0.4v-1.2h-5.8V36.7z"/>
	<path fill="#58595B" d="M158.9,38.3c-0.3,0.1-0.6,0.2-0.9,0.3V41c0,0.3-0.1,0.4-0.2,0.4c-0.2,0.1-0.5,0.1-1,0.1
		c0-0.1-0.1-0.2-0.1-0.4c0.4,0,0.8,0,0.9,0c0.1,0,0.2,0,0.2-0.2v-2.3c-0.4,0.1-0.8,0.2-1.1,0.4l-0.1-0.4c0.4-0.1,0.8-0.2,1.3-0.4
		v-1.9h-1.2v-0.4h1.2v-1.7h0.4v1.7h1.1v0.4H158v1.8l0.8-0.3L158.9,38.3z M163,38c-0.3,0.9-0.9,1.7-1.7,2.3c0.6,0.5,1.4,0.8,2.3,1
		c-0.1,0.1-0.2,0.2-0.2,0.4c-0.9-0.2-1.7-0.6-2.3-1.1c-0.7,0.5-1.6,0.9-2.5,1.1c0-0.1-0.1-0.3-0.2-0.4c0.8-0.2,1.6-0.5,2.4-1
		c-0.6-0.5-1.1-1.2-1.4-2H159v-0.4h3.7l0.1,0L163,38z M160.2,35.6c0,0.7-0.2,1.5-1.1,2.1c0-0.1-0.2-0.2-0.2-0.3c0.9-0.5,1-1.2,1-1.8
		v-0.9h2.4v1.9c0,0.2,0,0.3,0.2,0.3h0.7c0.1,0,0.3,0,0.4,0c0,0.1,0,0.3,0,0.3c-0.1,0-0.3,0-0.4,0h-0.8c-0.4,0-0.5-0.2-0.5-0.6v-1.5
		h-1.6V35.6z M159.6,38.3c0.3,0.7,0.8,1.3,1.4,1.8c0.6-0.5,1.1-1.1,1.4-1.8H159.6z"/>
	<path fill="#58595B" d="M166.7,36.5h-2.2v-0.3h2.2V36.5z M167.2,40.7c-0.6,0.4-1.6,0.7-2.4,0.9c-0.1-0.1-0.2-0.2-0.3-0.3
		c0.8-0.2,1.8-0.5,2.4-0.8L167.2,40.7z M166.5,35.2h-1.8v-0.3h1.8V35.2z M165.5,37.2h5.1v3.2h-5.1V37.2z M165.9,38.1h4.3v-0.7h-4.3
		V38.1z M165.9,39.1h4.3v-0.7h-4.3V39.1z M165.9,40.1h4.3v-0.7h-4.3V40.1z M167.9,35.3c-0.2,0.3-0.4,0.6-0.6,0.9
		c-0.1-0.1-0.2-0.2-0.3-0.2c0.4-0.4,0.7-1,0.9-1.6l0.4,0.1c-0.1,0.2-0.1,0.3-0.2,0.5h3l0.1,0l0.3,0.1c-0.2,0.4-0.4,0.8-0.6,1.1
		l-0.3-0.1c0.1-0.2,0.3-0.5,0.4-0.7h-1.5v0.1c0,0.1,0,0.2,0,0.4c0.4,0.5,1.3,0.9,2.4,1c-0.1,0.1-0.2,0.2-0.2,0.3
		c-1-0.1-1.8-0.5-2.2-1c-0.2,0.4-0.8,0.8-2.3,1.1c0-0.1-0.1-0.2-0.2-0.3c2.1-0.3,2.3-1,2.3-1.5v-0.1H167.9z M169.1,40.5
		c0.9,0.2,1.8,0.6,2.4,0.8l-0.3,0.2c-0.5-0.2-1.4-0.6-2.3-0.8L169.1,40.5z"/>
	<path fill="#58595B" d="M172.4,35.8h2.8v0.3h-2.8V35.8z M174.9,41.1h-1.9v0.4h-0.3v-2.7h2.2V41.1z M174.9,36.8v0.3h-2.2v-0.3H174.9
		z M172.8,37.8h2.2v0.3h-2.2V37.8z M173.1,39.2v1.6h1.5v-1.6H173.1z M173.9,35.6c-0.1-0.3-0.4-0.7-0.6-1l0.3-0.2
		c0.2,0.3,0.5,0.7,0.6,1L173.9,35.6z M179.7,38.7h-2v3h-0.4v-3h-2.1v-0.4h2.1v-3.1h-1.7v-0.4h3.9v0.4h-1.8v3.1h2V38.7z M176.1,35.7
		c0.2,0.7,0.4,1.5,0.5,2l-0.3,0.1c0-0.6-0.2-1.4-0.5-2L176.1,35.7z M178.3,37.8c0.2-0.5,0.5-1.5,0.6-2.1l0.4,0.1
		c-0.2,0.7-0.4,1.5-0.6,2.1L178.3,37.8z"/>
	<path fill="#58595B" d="M182.3,34.5c-0.2,0.5-0.4,1.1-0.6,1.6v5.5h-0.4v-4.8c-0.3,0.5-0.6,1-0.9,1.3c0-0.1-0.2-0.3-0.2-0.4
		c0.7-0.8,1.4-2.1,1.8-3.4L182.3,34.5z M184.4,40.8c-0.5,0.3-1.2,0.7-2,0.8c-0.1-0.1-0.2-0.2-0.2-0.3c0.7-0.2,1.5-0.5,1.9-0.8
		L184.4,40.8z M184.1,35.1h-1.6v-0.3h5.1v0.3h-1.7v0.6h1.5v1.5h-4.7v-1.5h1.4V35.1z M182.8,40.5v-2.8h4.3v2.8H182.8z M183,36.9h1.1
		V36H183V36.9z M183.2,38.5h3.6v-0.5h-3.6V38.5z M183.2,39.3h3.6v-0.6h-3.6V39.3z M183.2,40.2h3.6v-0.6h-3.6V40.2z M185.5,35.1h-1.1
		v0.6h1.1V35.1z M184.4,36.9h1.1V36h-1.1V36.9z M185.7,40.6c0.7,0.2,1.5,0.5,1.9,0.8l-0.3,0.2c-0.4-0.2-1.1-0.6-1.8-0.8L185.7,40.6z
		 M185.8,36v0.9h1.1V36H185.8z"/>
	<path fill="#58595B" d="M190.2,40.2v1.4h-0.4v-1.4h-1.4v-0.3h1.4v-0.7h-1.1v-2.8h1.1v-0.7h-1.3v-0.4h1.3v-0.9h0.4v0.9h1.3v0.4h-1.3
		v0.7h1.2v2.8h-1.2v0.7h1.4v0.3H190.2z M189,37.6h0.8v-0.9H189V37.6z M189,38.8h0.8v-0.9H189V38.8z M191,36.7h-0.8v0.9h0.8V36.7z
		 M191,37.9h-0.8v0.9h0.8V37.9z M194.6,37.7c-0.2,0.7-0.5,1.4-0.9,2c0.5,0.7,1.2,1.3,2,1.6c-0.1,0.1-0.2,0.2-0.3,0.3
		c-0.7-0.3-1.4-0.9-1.9-1.6c-0.5,0.7-1.2,1.2-2,1.6c0-0.1-0.2-0.2-0.3-0.3c0.8-0.4,1.5-1,2-1.7c-0.4-0.6-0.7-1.2-0.9-1.9l0.3-0.1
		c0.2,0.6,0.5,1.2,0.8,1.7c0.3-0.5,0.6-1.1,0.7-1.7L194.6,37.7z M193,36.4c-0.3,0.6-0.8,1.3-1.2,1.8c-0.1-0.1-0.2-0.2-0.3-0.2
		c0.4-0.4,0.8-1.1,1.1-1.6L193,36.4z M195.5,35.9h-3.9v-0.4h3.9V35.9z M193.5,35.5c-0.1-0.3-0.3-0.7-0.5-1l0.3-0.2
		c0.2,0.3,0.4,0.7,0.6,0.9L193.5,35.5z M194.4,36.2c0.4,0.5,1,1.2,1.2,1.6l-0.3,0.2c-0.3-0.4-0.8-1.1-1.2-1.7L194.4,36.2z"/>
	<path fill="#58595B" d="M199.7,40c0,0.1,0,0.3,0,0.3c-2.4,0.5-2.7,0.5-2.8,0.6c0-0.1-0.1-0.2-0.2-0.3c0.1,0,0.3-0.2,0.3-0.5v-1.8
		c0.8-0.2,1.8-0.4,2.4-0.7l0.3,0.3c-0.6,0.2-1.5,0.5-2.3,0.6v1.8L199.7,40z M202.7,37.4h-5.4v-2.7h5.4V37.4z M202.3,35h-4.6v0.8h4.6
		V35z M202.3,36.2h-4.6v0.9h4.6V36.2z M203.1,40.5c0,0.2-0.1,0.4-0.2,0.4c-0.2,0.1-0.6,0.1-1.2,0.1c0-0.1-0.1-0.2-0.1-0.3
		c0.5,0,1,0,1.1,0c0.1,0,0.2,0,0.2-0.1v-2.1h-2.2v3.2h-0.4v-3.5h2.9V40.5z"/>
	<path fill="#58595B" d="M211.5,36.7V37h-7v-0.3h3.3v-0.5h-2.2v-1.3h2.2v-0.5h0.4v0.5h2.4v1.3h-2.4v0.5H211.5z M207.2,40.8
		c-0.6,0.3-1.7,0.7-2.5,0.9c-0.1-0.1-0.2-0.2-0.3-0.3c0.8-0.2,1.8-0.4,2.4-0.7L207.2,40.8z M210.6,40.4h-5.1v-3h5.1V40.4z
		 M210.2,37.8h-4.3v0.6h4.3V37.8z M210.2,38.7h-4.3v0.6h4.3V38.7z M210.2,39.6h-4.3v0.6h4.3V39.6z M207.8,35.9v-0.7h-1.9v0.7H207.8z
		 M208.2,35.2v0.7h2v-0.7H208.2z M209.1,40.6c0.9,0.2,1.9,0.5,2.4,0.8l-0.4,0.2c-0.5-0.2-1.4-0.5-2.3-0.8L209.1,40.6z"/>
	<path fill="#58595B" d="M214,36.8c0.6,0,1.2,0.5,1.2,1.2s-0.5,1.2-1.2,1.2c-0.6,0-1.2-0.5-1.2-1.2S213.4,36.8,214,36.8z M214,38.9
		c0.5,0,0.9-0.4,0.9-0.9c0-0.5-0.4-0.9-0.9-0.9c-0.5,0-0.9,0.4-0.9,0.9C213.2,38.5,213.5,38.9,214,38.9z"/>
</g>
<g>
</g>
<g>
</g>
<g>
</g>
<g>
</g>
<g>
</g>
<g>
</g>
<g>
</g>
<g>
</g>
<g>
</g>
<g>
</g>
<g>
</g>
<g>
</g>
<g>
</g>
<g>
</g>
<g>
</g>
</svg>
