<?xml version="1.0" encoding="utf-8"?>
<!-- Generator: Adobe Illustrator 18.0.0, SVG Export Plug-In . SVG Version: 6.00 Build 0)  -->
<!DOCTYPE svg PUBLIC "-//W3C//DTD SVG 1.1//EN" "http://www.w3.org/Graphics/SVG/1.1/DTD/svg11.dtd">
<svg version="1.1" id="Layer_1" xmlns="http://www.w3.org/2000/svg" xmlns:xlink="http://www.w3.org/1999/xlink" x="0px" y="0px"
	 viewBox="0 0 185 177.1" enable-background="new 0 0 185 177.1" xml:space="preserve">
<g>
	<g>
		<g>
			<g>
				<defs>
					<circle id="SVGID_1_" cx="82.3" cy="53.3" r="51.7"/>
				</defs>
				<clipPath id="SVGID_2_">
					<use xlink:href="#SVGID_1_"  overflow="visible"/>
				</clipPath>
				<g clip-path="url(#SVGID_2_)">
					<g>
						<polygon fill="#2368B5" points="39.8,95.1 38,93.1 55.3,77.4 65.1,87.2 80.6,70.5 91.7,80.6 118.5,55.6 120.3,57.6 91.8,84.2 
							80.8,74.3 65.1,91 55.2,81.1 						"/>
						<path fill="#2368B5" d="M118.5,55.6l1.8,1.9L91.8,84.2l-11-9.9L65.1,91l-9.9-10l-15.4,14l-1.8-2l17.3-15.7l9.8,9.8l15.5-16.7
							l11.1,10L118.5,55.6 M118.5,54.1l-0.8,0.7l-26,24.2l-10.4-9.3L80.5,69l-0.7,0.8L65,85.6l-9-9l-0.7-0.7l-0.8,0.7L37.3,92.3
							L36.5,93l0.7,0.8l1.8,2l0.7,0.8l0.8-0.7l14.6-13.3l9.2,9.2l0.8,0.8l0.8-0.8l14.9-16L91,85l0.7,0.7l0.7-0.7L121,58.4l0.8-0.7
							l-0.7-0.8l-1.8-1.9L118.5,54.1L118.5,54.1z"/>
					</g>
					<g>
						<polygon fill="#2368B5" points="121.1,66.8 118.5,66.8 118.5,57.4 106.5,57.4 106.5,54.7 121.1,54.7 						"/>
						<path fill="#2368B5" d="M121.1,54.7v12h-2.7v-9.4h-11.9v-2.7H121.1 M122.2,53.7h-1.1h-14.6h-1.1v1.1v2.7v1.1h1.1h10.8v8.3v1.1
							h1.1h2.7h1.1v-1.1v-12V53.7L122.2,53.7z"/>
					</g>
				</g>
				<g clip-path="url(#SVGID_2_)">
					<rect x="30.2" y="38" fill="#2368B5" width="6.6" height="3.3"/>
					<path fill="#2368B5" d="M112.6,41.2H100V38h12.6V41.2z M87.3,41.2H74.7V38h12.6V41.2z M62,41.2H49.4V38H62V41.2z"/>
					<rect x="125.3" y="38" fill="#2368B5" width="6.6" height="3.3"/>
				</g>
			</g>
			<path fill="#2368B5" d="M82.3,106.6C52.9,106.6,29,82.7,29,53.3S52.9,0,82.3,0c29.4,0,53.3,23.9,53.3,53.3
				S111.7,106.6,82.3,106.6z M82.3,3.3c-27.6,0-50,22.4-50,50s22.4,50,50,50c27.6,0,50-22.4,50-50S109.8,3.3,82.3,3.3z"/>
			<g>
				<path fill="#2368B5" d="M114.5,107.8c0,0,35.2-4.9,39.9-40.5h22C176.4,67.3,178.2,96.8,114.5,107.8z"/>
				<path fill="#2368B5" d="M164.3,45.7c0.3,0.9-24.7,23.8-24.7,23.8H185L164.3,45.7z"/>
			</g>
		</g>
		<g>
			<g>
				<path fill="#2368B5" d="M34.1,121.4c-0.2,0.6-0.5,1.2-0.9,1.8v5.6h-0.6v-4.7c-0.3,0.4-0.6,0.7-0.8,1c-0.1-0.2-0.2-0.5-0.4-0.6
					c0.8-0.8,1.6-2.1,2.1-3.3L34.1,121.4z M37.6,125c0.2,1.8,0.6,3.1,1,3.1c0.2,0,0.3-0.4,0.3-1.2c0.1,0.1,0.3,0.3,0.4,0.3
					c-0.2,1.3-0.5,1.6-0.8,1.6c-0.9,0-1.4-1.6-1.6-3.8H35v2.4l1.5-0.4c0,0.2,0,0.4,0,0.5c-1.8,0.5-2.1,0.6-2.3,0.7
					c0-0.1-0.1-0.4-0.2-0.5c0.2-0.1,0.4-0.2,0.4-0.5V122h0l0,0c1.4-0.2,3-0.5,3.9-0.9l0.5,0.5c-0.4,0.2-0.9,0.3-1.5,0.4
					c0,0.8,0.1,1.6,0.1,2.4h1.7v0.6H37.6z M36.9,124.4c-0.1-0.7-0.1-1.4-0.1-2.2c-0.6,0.1-1.2,0.2-1.8,0.3v1.9H36.9z M35.2,128.1
					h2.2v0.5h-2.2V128.1z"/>
				<path fill="#2368B5" d="M44.9,123.5c0.6,1.4,1.7,2.7,2.8,3.4c-0.2,0.1-0.4,0.4-0.5,0.5c-1.2-0.8-2.3-2.3-3-3.9h-0.1v3.1h1.9v0.6
					h-1.9v1.6h-0.6v-1.6h-1.9v-0.6h1.9v-3.1h-0.1c-0.6,1.6-1.7,3.1-2.9,4c-0.1-0.2-0.3-0.4-0.4-0.5c1.1-0.7,2.1-2,2.8-3.5h-2.5v-0.6
					h3.3v-1.8h0.6v1.8h3.3v0.6H44.9z"/>
				<path fill="#2368B5" d="M56.1,128v0.6h-7.6V128h1.1v-2.6H55v2.6H56.1z M55.9,123.4h-7.3v-0.6h2.2c-0.2-0.4-0.5-1-0.8-1.4
					l0.5-0.2c0.4,0.4,0.7,1,0.9,1.4l-0.4,0.2h2.7l-0.4-0.2c0.3-0.4,0.7-1,0.9-1.5l0.6,0.2c-0.3,0.5-0.7,1.1-1,1.4h2.2V123.4z
					 M51.4,124c-0.6,0.5-1.6,1.1-2.4,1.5c-0.1-0.2-0.2-0.4-0.4-0.5c0.7-0.3,1.8-0.8,2.3-1.3L51.4,124z M50.1,128h1.1V126h-1.1V128z
					 M51.8,126v2.1h1.1V126H51.8z M55.6,125.3c-0.6-0.3-1.7-0.8-2.5-1.1l0.3-0.4c0.8,0.3,2,0.8,2.6,1.1L55.6,125.3z M53.4,126v2.1
					h1.1V126H53.4z"/>
				<path fill="#2368B5" d="M60.5,127.1c0,0.2,0,0.4,0.1,0.6c-2.4,0.6-2.7,0.7-2.9,0.9c-0.1-0.2-0.2-0.4-0.3-0.5
					c0.1-0.1,0.3-0.3,0.3-0.6v-6.3h0.6v2.6h2.1v0.6h-2.1v3.3L60.5,127.1z M63.4,128.1c0.4,0,0.4-0.3,0.5-1.5
					c0.2,0.1,0.4,0.2,0.6,0.3c-0.1,1.4-0.3,1.8-1,1.8h-1.4c-0.8,0-1-0.2-1-1.2v-6.3h0.6v2.6h2.3v0.6h-2.3v3.1c0,0.5,0.1,0.5,0.5,0.5
					H63.4z"/>
				<path fill="#2368B5" d="M79,121.4c-0.2,0.6-0.5,1.2-0.9,1.8v5.6h-0.6v-4.7c-0.3,0.4-0.6,0.7-0.8,1c-0.1-0.2-0.2-0.5-0.4-0.6
					c0.8-0.8,1.6-2.1,2.1-3.3L79,121.4z M82.5,125c0.2,1.8,0.6,3.1,1,3.1c0.2,0,0.3-0.4,0.3-1.2c0.1,0.1,0.3,0.3,0.4,0.3
					c-0.2,1.3-0.5,1.6-0.8,1.6c-0.9,0-1.4-1.6-1.6-3.8h-1.9v2.4l1.5-0.4c0,0.2,0,0.4,0,0.5c-1.8,0.5-2.1,0.6-2.3,0.7
					c0-0.1-0.1-0.4-0.2-0.5c0.2-0.1,0.4-0.2,0.4-0.5V122h0l0,0c1.4-0.2,3-0.5,3.9-0.9l0.5,0.5c-0.4,0.2-0.9,0.3-1.5,0.4
					c0,0.8,0.1,1.6,0.1,2.4h1.7v0.6H82.5z M81.8,124.4c-0.1-0.7-0.1-1.4-0.1-2.2c-0.6,0.1-1.2,0.2-1.8,0.3v1.9H81.8z M80.1,128.1
					h2.2v0.5h-2.2V128.1z"/>
				<path fill="#2368B5" d="M87.8,128c0,0.3-0.1,0.5-0.3,0.6c-0.2,0.1-0.5,0.1-1,0.1c0-0.2-0.1-0.4-0.2-0.6c0.4,0,0.7,0,0.8,0
					c0.1,0,0.1-0.1,0.1-0.2v-2.3c-0.4,0.2-0.7,0.4-1,0.6l-0.2-0.5c-0.1,1-0.2,2.1-0.6,3c-0.1-0.1-0.4-0.2-0.5-0.3
					c0.6-1.2,0.6-2.8,0.6-4.1v-3h2.3V128z M86,124.5c0,0.4,0,0.8,0,1.3c0.3-0.1,0.8-0.3,1.2-0.6v-1l-0.3,0.3c-0.2-0.3-0.6-0.7-0.9-1
					V124.5z M86,122v1.3l0.3-0.2c0.3,0.3,0.7,0.7,0.9,0.9v-2H86z M92.3,125c-0.3,1-0.8,1.8-1.5,2.5c0.5,0.4,1.1,0.7,1.8,0.8
					c-0.2,0.1-0.3,0.4-0.4,0.5c-0.7-0.2-1.4-0.6-1.9-1c-0.6,0.4-1.3,0.8-2,1c-0.1-0.2-0.2-0.4-0.3-0.5c0.7-0.2,1.3-0.5,1.9-0.9
					c-0.5-0.5-1-1.2-1.3-1.9l0.1,0h-0.4v-0.6h3.5l0.1,0L92.3,125z M89.6,122.4c0,0.7-0.2,1.6-1.2,2.2c-0.1-0.1-0.3-0.3-0.4-0.4
					c0.9-0.5,1.1-1.2,1.1-1.8v-0.9h2.6v2c0,0.2,0,0.3,0.1,0.3h0.5c0.1,0,0.3,0,0.4,0c0,0.2,0,0.4,0.1,0.5c-0.1,0-0.3,0-0.4,0h-0.5
					c-0.6,0-0.7-0.2-0.7-0.8v-1.4h-1.4V122.4z M89.1,125.4c0.3,0.6,0.7,1.2,1.1,1.6c0.5-0.4,0.9-1,1.2-1.6H89.1z"/>
				<path fill="#2368B5" d="M95.5,121.4c-0.2,0.6-0.4,1.1-0.7,1.7v5.8h-0.6v-4.7c-0.2,0.4-0.5,0.8-0.8,1.1c-0.1-0.1-0.3-0.4-0.4-0.6
					c0.7-0.8,1.4-2.1,1.8-3.4L95.5,121.4z M97.7,128c-0.5,0.4-1.4,0.7-2.1,0.9c-0.1-0.1-0.2-0.3-0.3-0.4c0.7-0.2,1.5-0.5,2-0.8
					L97.7,128z M97.2,122.1h-1.6v-0.5h5.3v0.5h-1.8v0.5h1.5v1.6h-4.9v-1.6h1.4V122.1z M95.9,127.6v-3h4.6v3H95.9z M96.3,123.8h0.9
					V123h-0.9V123.8z M96.5,125.5h3.4V125h-3.4V125.5z M96.5,126.3h3.4v-0.5h-3.4V126.3z M96.5,127.2h3.4v-0.5h-3.4V127.2z
					 M98.6,122.1h-0.9v0.5h0.9V122.1z M97.7,123.8h0.9V123h-0.9V123.8z M99,127.7c0.7,0.2,1.5,0.6,2,0.8l-0.5,0.4
					c-0.4-0.3-1.2-0.6-1.9-0.8L99,127.7z M99.2,123v0.8h0.9V123H99.2z"/>
				<path fill="#2368B5" d="M103.1,124.9c-0.3-0.3-0.9-0.7-1.5-0.9l0.3-0.5c0.5,0.2,1.2,0.6,1.5,0.9L103.1,124.9z M101.8,128.3
					c0.4-0.6,1-1.7,1.5-2.6l0.4,0.4c-0.4,0.9-1,1.8-1.4,2.6L101.8,128.3z M103.5,122.7c-0.3-0.3-0.9-0.7-1.4-1l0.3-0.5
					c0.5,0.2,1.2,0.6,1.5,0.9L103.5,122.7z M109.4,125.6h-0.7v1.3h-2v1.2c0,0.4-0.1,0.5-0.3,0.6c-0.3,0.1-0.7,0.1-1.3,0.1
					c0-0.2-0.1-0.4-0.2-0.6c0.5,0,0.9,0,1.1,0c0.1,0,0.2,0,0.2-0.2v-1.2h-1.9v-0.5h1.9v-0.8h-2.4V125h2.4v-0.7h-1.9v-0.5h4.4v1.3
					h0.7V125.6z M108.8,121.7c-1.2,0.3-3.1,0.6-4.6,0.7c0-0.1-0.1-0.4-0.2-0.5c1.5-0.1,3.3-0.4,4.3-0.6L108.8,121.7z M104.7,123.7
					c-0.1-0.3-0.2-0.7-0.4-1.1l0.4-0.2c0.2,0.3,0.4,0.7,0.5,1L104.7,123.7z M106.3,123.6c-0.1-0.3-0.2-0.8-0.4-1.2l0.5-0.1
					c0.2,0.4,0.4,0.8,0.4,1.1L106.3,123.6z M106.7,125h1.4v-0.7h-1.4V125z M108.2,125.6h-1.4v0.8h1.4V125.6z M107.5,123.4
					c0.2-0.3,0.5-0.9,0.7-1.3l0.6,0.2c-0.2,0.5-0.5,1-0.7,1.3L107.5,123.4z"/>
				<path fill="#2368B5" d="M112.6,121.4c-0.2,0.7-0.5,1.3-0.9,1.9v5.6h-0.6v-4.6c-0.2,0.3-0.5,0.6-0.7,0.9
					c-0.1-0.1-0.2-0.5-0.3-0.6c0.8-0.8,1.5-2.1,1.9-3.3L112.6,121.4z M117.8,128.1v0.5h-5.6v-0.5h0.8v-4.7h1.4
					c0.1-0.2,0.1-0.5,0.2-0.8h-2.1V122h2.1c0-0.3,0.1-0.6,0.1-0.9l0.7,0c-0.1,0.3-0.1,0.5-0.2,0.8h2.2v0.5h-2.4
					c-0.1,0.3-0.1,0.6-0.2,0.8h2.1v4.7H117.8z M113.5,123.8v0.7h2.9v-0.7H113.5z M116.5,125h-2.9v0.7h2.9V125z M113.5,126.9h2.9
					v-0.7h-2.9V126.9z M113.5,128.1h2.9v-0.7h-2.9V128.1z"/>
				<path fill="#2368B5" d="M122.2,127.1c0,0.2,0,0.4,0.1,0.6c-2.4,0.6-2.7,0.7-2.9,0.9c-0.1-0.2-0.2-0.4-0.3-0.5
					c0.1-0.1,0.3-0.3,0.3-0.6v-6.3h0.6v2.6h2.1v0.6H120v3.3L122.2,127.1z M125.1,128.1c0.4,0,0.4-0.3,0.5-1.5
					c0.2,0.1,0.4,0.2,0.6,0.3c-0.1,1.4-0.3,1.8-1,1.8h-1.4c-0.8,0-1-0.2-1-1.2v-6.3h0.6v2.6h2.3v0.6h-2.3v3.1c0,0.5,0.1,0.5,0.5,0.5
					H125.1z"/>
				<path fill="#2368B5" d="M143.8,122v0.5h-7.3V122h3.4c-0.1-0.2-0.2-0.5-0.3-0.8l0.6-0.1c0.1,0.3,0.2,0.6,0.3,0.9H143.8z
					 M143.5,128.2c0,0.3-0.1,0.4-0.3,0.5c-0.2,0.1-0.6,0.1-1.1,0.1c0-0.1-0.1-0.3-0.2-0.5c0.4,0,0.7,0,0.8,0c0.1,0,0.1,0,0.1-0.1
					v-2.5h-5.5v3.1h-0.6v-3.6h6.7V128.2z M142.6,123.1v1.7h-4.9v-1.7H142.6z M141.9,127.9h-3v0.4h-0.6v-2.1h3.5V127.9z M142,123.5
					h-3.6v0.8h3.6V123.5z M138.9,126.7v0.8h2.4v-0.8H138.9z"/>
				<path fill="#2368B5" d="M147.6,128c0,0.3-0.1,0.5-0.3,0.6c-0.2,0.1-0.5,0.1-1,0.1c0-0.2-0.1-0.4-0.2-0.6c0.4,0,0.7,0,0.8,0
					c0.1,0,0.1-0.1,0.1-0.2v-2.3c-0.4,0.2-0.7,0.4-1,0.6l-0.2-0.5c-0.1,1-0.2,2.1-0.6,3c-0.1-0.1-0.4-0.2-0.5-0.3
					c0.6-1.2,0.6-2.8,0.6-4.1v-3h2.3V128z M145.9,124.5c0,0.4,0,0.8,0,1.3c0.3-0.1,0.8-0.3,1.2-0.6v-1l-0.3,0.3
					c-0.2-0.3-0.6-0.7-0.9-1V124.5z M145.9,122v1.3l0.3-0.2c0.3,0.3,0.7,0.7,0.9,0.9v-2H145.9z M152.1,125c-0.3,1-0.8,1.8-1.5,2.5
					c0.5,0.4,1.1,0.7,1.8,0.8c-0.2,0.1-0.3,0.4-0.4,0.5c-0.7-0.2-1.4-0.6-1.9-1c-0.6,0.4-1.3,0.8-2,1c-0.1-0.2-0.2-0.4-0.3-0.5
					c0.7-0.2,1.3-0.5,1.9-0.9c-0.5-0.5-1-1.2-1.3-1.9l0.1,0H148v-0.6h3.5l0.1,0L152.1,125z M149.4,122.4c0,0.7-0.2,1.6-1.2,2.2
					c-0.1-0.1-0.3-0.3-0.4-0.4c0.9-0.5,1.1-1.2,1.1-1.8v-0.9h2.6v2c0,0.2,0,0.3,0.1,0.3h0.5c0.1,0,0.3,0,0.4,0c0,0.2,0,0.4,0.1,0.5
					c-0.1,0-0.3,0-0.4,0h-0.5c-0.6,0-0.7-0.2-0.7-0.8v-1.4h-1.4V122.4z M148.9,125.4c0.3,0.6,0.7,1.2,1.1,1.6c0.5-0.4,0.9-1,1.2-1.6
					H148.9z"/>
				<path fill="#2368B5" d="M155.6,123.7h1.7v0.6h-1.7v0.2c0.4,0.4,1.4,1.3,1.6,1.6l-0.4,0.5c-0.3-0.3-0.8-0.9-1.3-1.4v3.6H155v-3.6
					c-0.4,1-1,1.9-1.6,2.5c-0.1-0.2-0.2-0.4-0.3-0.6c0.7-0.6,1.4-1.8,1.8-2.8h-1.6v-0.6h1.8v-1.4c-0.5,0.1-1.1,0.2-1.6,0.3
					c0-0.2-0.1-0.4-0.2-0.5c1.2-0.2,2.7-0.5,3.5-0.8l0.5,0.5c-0.4,0.2-0.9,0.3-1.5,0.4V123.7z M158.6,126.8H158v-4.6h0.6V126.8z
					 M160.4,121.3v6.7c0,0.4-0.1,0.6-0.4,0.7c-0.3,0.1-0.7,0.1-1.5,0.1c0-0.2-0.1-0.5-0.2-0.6c0.6,0,1.1,0,1.3,0
					c0.2,0,0.2-0.1,0.2-0.2v-6.7H160.4z"/>
			</g>
			<rect x="27.6" y="118.9" fill="none" stroke="#0C56AB" stroke-miterlimit="10" width="39.3" height="12.4"/>
			<rect x="73.8" y="118.9" fill="none" stroke="#0C56AB" stroke-miterlimit="10" width="55.5" height="12.4"/>
			<rect x="134" y="118.9" fill="none" stroke="#0C56AB" stroke-miterlimit="10" width="28.7" height="12.4"/>
		</g>
	</g>
	<g>
		<g>
			<path fill="#0C56AB" d="M2.1,144c-0.1-0.5-0.2-1.2-0.2-1.9c0-5.7,4.3-10.8,11.7-10.8c7.3,0,11.6,4.7,11.6,10.4
				c0,4.3-2.4,7.8-6.4,10.2l-6.4,4c-1.6,1-2.9,2.1-3.4,3.8h16.3v5.4H1.7c0.1-5.6,2.1-10.1,7.8-13.6l5.4-3.4c2.9-1.8,4.2-3.8,4.2-6.2
				c0-2.7-1.8-5.1-5.5-5.1c-3.9,0-5.7,2.7-5.7,6.1c0,0.5,0.1,1.1,0.2,1.7L2.1,144z"/>
		</g>
	</g>
</g>
<g>
</g>
<g>
</g>
<g>
</g>
<g>
</g>
<g>
</g>
<g>
</g>
<g>
</g>
<g>
</g>
<g>
</g>
<g>
</g>
<g>
</g>
<g>
</g>
<g>
</g>
<g>
</g>
<g>
</g>
</svg>
